<?xml version="1.0" standalone="no"?>
<!DOCTYPE svg PUBLIC "-//W3C//DTD SVG 1.1//EN" "http://www.w3.org/Graphics/SVG/1.1/DTD/svg11.dtd" >
<svg xmlns="http://www.w3.org/2000/svg" xmlns:xlink="http://www.w3.org/1999/xlink" version="1.1">
<metadata>
Created by FontForge 20201107 at Fri Aug 19 06:48:34 2022
 By 
Copyright (c) 2022 by Muntab Art. All rights reserved.
</metadata>
<defs>
<font id="Beachwalk" horiz-adv-x="0" >
  <font-face 
    font-family="Beachwalk"
    font-weight="400"
    font-stretch="normal"
    units-per-em="1000"
    panose-1="2 0 5 6 0 0 0 2 0 4"
    ascent="750"
    descent="-250"
    x-height="483"
    cap-height="701"
    bbox="-149 -232 861 950"
    underline-thickness="50"
    underline-position="-100"
    unicode-range="U+000D-FB02"
  />
<missing-glyph horiz-adv-x="200" 
 />
    <glyph glyph-name=".notdef" horiz-adv-x="200" 
 />
    <glyph glyph-name=".null" 
 />
    <glyph glyph-name="nonmarkingreturn" unicode="&#xd;" horiz-adv-x="200" 
 />
    <glyph glyph-name="NULL" 
 />
    <glyph glyph-name="NULL" 
 />
    <glyph glyph-name="space" unicode=" " horiz-adv-x="200" 
 />
    <glyph glyph-name="exclam" unicode="!" horiz-adv-x="173" 
d="M15 701h143v-10q-21 0 -29.5 -10t-9.5 -30l-28 -542h-10l-28 549q-3 33 -38 33v10zM86 0q15 0 25 10.5t10 24.5q0 15 -10 25t-25 10q-14 0 -24.5 -10t-10.5 -25q0 -14 10.5 -24.5t24.5 -10.5z" />
    <glyph glyph-name="quotedbl" unicode="&#x22;" horiz-adv-x="105" 
d="M39 625h-24v125h24v-125zM90 625h-24v125h24v-125z" />
    <glyph glyph-name="numbersign" unicode="#" horiz-adv-x="859" 
d="M15 197v10h152l77 282h-171v10h174l39 141q7 24 -2.5 37.5t-44.5 13.5v10h197v-10q-37 0 -54 -11t-23 -29l-42 -152h319l39 141q7 24 -2.5 37.5t-44.5 13.5v10h197v-10q-37 0 -54 -11t-23 -29l-42 -152h138v-10h-140l-78 -282h159v-10h-161l-38 -136q-6 -24 3 -37.5
t44 -13.5v-10h-197v10q39 0 56 12.5t22 31.5l39 143h-318l-38 -136q-6 -24 3 -37.5t44 -13.5v-10h-197v10q39 0 56 12.5t22 31.5l39 143h-149zM237 207h319l77 282h-318z" />
    <glyph glyph-name="dollar" unicode="$" horiz-adv-x="294" 
d="M142 808h10v-102q19 0 32 -7.5t22 -16t15 -15.5t12 -7q7 0 12 9t5 32h10v-227h-10q0 27 -4 65t-15 72.5t-30 59t-49 25.5v-283q22 -21 44.5 -42.5t41 -48t30 -61t11.5 -82.5q0 -30 -7 -61.5t-22.5 -58t-39.5 -44.5t-58 -20v-102h-10v102q-19 0 -33.5 7.5t-25.5 16
t-19.5 15.5t-14.5 7q-12 0 -16 -9t-4 -32h-10v227h10q0 -27 6.5 -65t20 -72.5t35 -59t51.5 -25.5v283q-22 21 -44.5 42.5t-41 48.5t-30 61.5t-11.5 81.5q0 30 7 61.5t22.5 58t39.5 44.5t58 20v102zM142 422v274q-19 -2 -33.5 -12t-24 -25t-14 -33t-4.5 -36q0 -30 6 -54.5
t16.5 -44.5t24 -37t29.5 -32zM152 279v-274q19 2 33 12t23.5 25t14.5 33t5 36q0 30 -6 54.5t-16.5 44.5t-24.5 37t-29 32z" />
    <glyph glyph-name="percent" unicode="%" horiz-adv-x="548" 
d="M423 399q23 0 43.5 -16t35.5 -45t23 -66t8 -75.5t-8 -75.5t-23 -66q-16 -30 -36.5 -45t-42 -15t-42 15t-36.5 45q-16 29 -24 66t-8 75.5t8 75.5t24 66q15 29 35 45t43 16zM125 701q23 0 43.5 -16t35.5 -44q15 -29 23 -66t8 -75.5t-8 -75.5t-23 -66q-16 -30 -36.5 -45
t-42 -15t-42 15t-36.5 45q-16 29 -24 66t-8 75.5t8 75.5t24 66q15 28 35 44t43 16zM389 651q6 18 23 29t54 11v10h-198v-10q35 0 44.5 -13.5t2.5 -37.5l-160 -586q-5 -19 -22 -31.5t-57 -12.5v-10h198v10q-35 0 -44.5 13.5t-2.5 37.5zM463 337q-17 57 -39.5 57t-39.5 -57
q-9 -29 -13 -65.5t-4 -74.5t4 -74.5t13 -65.5q17 -57 39.5 -57t39.5 57q9 29 13 65.5t4 74.5t-4 74.5t-13 65.5zM165 639q-17 57 -39.5 57t-39.5 -57q-9 -29 -13 -65.5t-4 -74.5t4 -74.5t13 -65.5q17 -56 39.5 -56t39.5 56q9 29 13 65.5t4 74.5t-4 74.5t-13 65.5z" />
    <glyph glyph-name="ampersand" unicode="&#x26;" horiz-adv-x="458" 
d="M443 66q-12 -14 -25 -29.5t-26 -32.5q-8 -4 -20 -4q-17 0 -33.5 9t-32.5 23t-30 30t-25 31q-14 -18 -28 -34.5t-28.5 -29.5t-30.5 -21t-35 -8q-38 0 -63 21.5t-37.5 56.5t-13 78.5t10.5 88t33.5 85t54.5 69.5q-6 21 -10.5 44t-7.5 46.5t-2.5 45.5t5.5 41q3 13 11.5 34.5
t20.5 41t28 34t34 14.5q16 0 26.5 -8.5t16.5 -22t8.5 -29.5t2.5 -31q0 -51 -24.5 -91.5t-66.5 -88.5q8 -27 23 -65t33 -77t37 -74t36 -56l3 -3q13 19 27.5 44t26.5 54t20 60.5t8 64.5q12 0 20 1t13 4.5t8.5 11t5.5 19.5h10l-18 -106q-17 0 -28.5 -4t-15.5 -18
q-13 -42 -32.5 -77t-38.5 -61q10 -12 27 -33t37 -37t41.5 -19.5t40.5 19.5zM245 101q-23 40 -41 75.5t-33 70t-28 69t-26 72.5q-33 -33 -45 -78t-8.5 -90t20.5 -84.5t42 -60.5t56 -17.5t63 43.5zM153 440q12 14 22.5 35.5t18.5 41.5q6 16 8 38t0 43t-7.5 38.5t-14 24.5
t-20.5 1t-27 -31q-10 -18 -10 -42t5.5 -50t12.5 -52t12 -47z" />
    <glyph glyph-name="quotesingle" unicode="'" horiz-adv-x="54" 
d="M39 625h-24v125h24v-125z" />
    <glyph glyph-name="parenleft" unicode="(" horiz-adv-x="344" 
d="M329 -180v-23q-87 46 -143 106q-84 89 -127.5 206t-43.5 243q0 93 22 177t65 160q87 153 227 219v-26q-78 -45 -120 -119t-62 -170q-22 -106 -22 -226q0 -127 18 -232q7 -36 14.5 -66t18.5 -57t25.5 -52.5t34.5 -51.5q35 -45 93 -88z" />
    <glyph glyph-name="parenright" unicode=")" horiz-adv-x="344" 
d="M15 -180q58 43 93 88q20 26 34.5 51.5t25.5 52.5t18.5 57t14.5 66q18 105 18 232q0 120 -22 226q-20 96 -62 170t-120 119v26q140 -66 227 -219q43 -76 65 -160t22 -177q0 -126 -43.5 -243t-127.5 -206q-56 -60 -143 -106v23v0z" />
    <glyph glyph-name="asterisk" unicode="*" horiz-adv-x="147" 
d="M70 621q-1 17 -5 31t-4 24t4 15.5t8.5 5.5t8.5 -5t4 -16t-4 -25t-5 -30q7 6 12 13t9.5 13.5t9.5 10.5t11 4q8 0 11.5 -10t-4.5 -19q-6 -6 -20.5 -9.5t-25.5 -9.5q11 -8 24.5 -10t20.5 -10q5 -6 5.5 -12.5t-2 -11t-8 -5.5t-12.5 4t-13 16t-18 22q1 -21 7 -40.5t-2 -30.5
q-4 -7 -9 -6t-9 6q-3 4 -3.5 11.5t1 15.5t4 15.5t3.5 12.5q0 3 0.5 7t0.5 9q-15 -13 -23 -27.5t-18 -14.5q-5 0 -8.5 4t-4.5 9t2 11t11 11q5 3 15.5 5t22.5 9q-8 5 -17 7t-16.5 5t-12.5 7.5t-5 14.5q0 7 5.5 12.5t16.5 -2.5q8 -6 14.5 -17t17.5 -20z" />
    <glyph glyph-name="plus" unicode="+" horiz-adv-x="212" 
d="M118 182h-24v78h-79v25h79v78h24v-78h79v-25h-79v-78z" />
    <glyph glyph-name="comma" unicode="," horiz-adv-x="129" 
d="M63 95q32 0 42.5 -24t6 -53t-21.5 -53t-41 -24q-14 0 -13 8t9 8q3 0 8 0.5t10 5t8.5 13t3.5 25.5q-23 -6 -41.5 6t-18.5 40q0 20 14 34t34 14z" />
    <glyph glyph-name="hyphen" unicode="-" horiz-adv-x="211" 
d="M196 285v-25h-181v25h181z" />
    <glyph glyph-name="period" unicode="." horiz-adv-x="125" 
d="M63 0q-20 0 -34 13.5t-14 33.5t14 34t34 14t33.5 -14t13.5 -34t-13.5 -33.5t-33.5 -13.5z" />
    <glyph glyph-name="slash" unicode="/" horiz-adv-x="333" 
d="M39 0h-24l279 699h24z" />
    <glyph glyph-name="zero" unicode="0" horiz-adv-x="324" 
d="M162 706q31 0 58 -28.5t47 -77.5q21 -52 31.5 -117t10.5 -132.5t-10.5 -132.5t-31.5 -117q-22 -53 -49.5 -79.5t-56 -26.5t-56 26.5t-48.5 79.5q-21 52 -31.5 117t-10.5 132.5t10.5 132.5t31.5 117q20 49 46.5 77.5t58.5 28.5zM214 597q-23 99 -52.5 99t-52.5 -99
q-12 -51 -18 -115.5t-6 -131t6 -131t18 -115.5q23 -99 52.5 -99t52.5 99q12 51 18 115.5t6 131t-6 131t-18 115.5z" />
    <glyph glyph-name="one" unicode="1" horiz-adv-x="234" 
d="M155 699v-649q0 -13 2 -20.5t8.5 -12t19 -6t34.5 -1.5v-10h-197v10q21 0 33.5 1.5t19 6t8.5 12t2 20.5v528q0 10 -2 20t-7.5 14.5t-16 1.5t-27.5 -19l-17 -17v14l81 76l34 33h22z" />
    <glyph glyph-name="two" unicode="2" horiz-adv-x="361" 
d="M77 608q-9 -18 1 -58q6 -21 18 -46.5t24 -50.5t19.5 -47t3.5 -36t-21 -18.5t-55 5.5l2 10q24 -7 29 13q4 13 1.5 33.5t-7.5 44t-12 48t-12 44.5q-11 42 -0.5 76.5t38.5 54.5q23 16 50.5 20t53.5 -3.5t48 -24.5t34 -43q12 -25 17 -54t5 -58v-14q0 -38 -10.5 -72t-25.5 -68
q-17 -37 -38 -74t-43 -72q-3 -5 -10.5 -16.5t-16 -23.5t-15.5 -22t-10 -13q-4 -5 -11.5 -16t-12.5 -17q-11 -14 -11 -27t11 -13h142q26 0 42.5 13t30.5 53l10 -4l-49 -132h-282l26 28l43 51l22 27q5 6 12.5 17.5t12.5 16.5q4 5 12.5 17.5t12.5 17.5q2 2 5.5 7.5t7.5 11.5
t7.5 11.5t5.5 7.5q3 4 11.5 18t18 30t18 30.5t11.5 19.5l26 54l22 53q6 17 10 41t5 51q-1 35 -16.5 59.5t-38.5 39.5t-50.5 21t-52.5 5t-44 -8t-25 -19z" />
    <glyph glyph-name="three" unicode="3" horiz-adv-x="357" 
d="M342 702l-161 -280q36 -17 63 -42q35 -32 53.5 -74.5t20 -88.5t-13 -90.5t-45.5 -79.5q-27 -30 -66 -42.5t-76 -6.5t-63.5 30t-28.5 65q-2 35 19 78q9 18 16 14q5 -2 6 -11.5t2 -24.5q3 -54 21 -88.5t45 -46t59.5 1t64.5 52.5q27 33 32 68.5t-5 70t-32.5 66t-50.5 56.5
q-17 16 -34.5 25.5t-31.5 9.5l155 268h-195q-26 0 -41.5 -13t-30.5 -53l-9 3l49 133h278z" />
    <glyph glyph-name="four" unicode="4" horiz-adv-x="426" 
d="M333 259v1q26 0 40 13t29 52l9 -3l-23 -63l-26 -70h-66v-139q0 -13 2 -20.5t8.5 -12t19 -6t34.5 -1.5v-10h-198v10q21 0 34 1.5t19.5 6t8.5 12t2 20.5v139h-211l241 512h40v-442h37zM59 260h167v353z" />
    <glyph glyph-name="five" unicode="5" horiz-adv-x="339" 
d="M110 631l-35 -139q68 -6 120.5 -45t82.5 -95t32.5 -122t-30.5 -126q-14 -26 -35 -46t-46 -33t-51 -18.5t-49 -3.5q-37 3 -55.5 18.5t-24.5 32.5t-2.5 31t12.5 14q8 0 23 -10t35 -21.5t43 -21t47 -8.5t48.5 16t45.5 53q34 60 26 117.5t-43 102.5t-90 73t-116 28l69 273
h142q26 0 37.5 5t18.5 23v1l9 -4l-35 -95h-179z" />
    <glyph glyph-name="six" unicode="6" horiz-adv-x="318" 
d="M93 399q12 13 27 24.5t31 17.5t33 5t35 -11q34 -20 54 -60.5t26.5 -89.5t0.5 -100t-23.5 -93t-45 -68t-64.5 -25q-55 1 -89.5 44.5t-50.5 112.5q-11 50 -11.5 110.5t10.5 121t33.5 117t56.5 100t80 70t104 26.5v-10q-49 0 -84.5 -26t-60.5 -68t-40 -94t-22 -104zM143 427
q-15 -8 -26 -18q-15 -14 -26 -29q-4 -40 -6 -82q-1 -35 1 -69.5t7 -65.5q10 -68 29.5 -111t46.5 -43q15 0 27 20.5t20 53.5t12.5 74.5t4.5 84t-5.5 81t-16.5 65.5t-27.5 39t-40.5 0z" />
    <glyph glyph-name="seven" unicode="7" horiz-adv-x="312" 
d="M297 702l-166 -702h-10l149 632h-174q-26 0 -41.5 -13t-29.5 -53l-10 3l49 133h233z" />
    <glyph glyph-name="eight" unicode="8" horiz-adv-x="290" 
d="M159 -5q-43 0 -73 19t-47.5 50t-22 70t4.5 79.5t31 78t58 65.5q-32 41 -55.5 88t-23.5 109q0 29 7 56t21.5 48.5t37 34.5t53.5 13q37 0 63 -17.5t40.5 -45.5t17.5 -63t-6.5 -70.5t-31.5 -68t-57 -54.5q22 -27 41.5 -55.5t33.5 -60t20.5 -68t0.5 -79.5q-3 -22 -10.5 -45
t-21.5 -41.5t-34 -30.5t-47 -12zM121 344q-18 -24 -28 -58.5t-12.5 -72t1 -75t14 -67t26.5 -48t37 -18.5q24 0 41 11t27 28.5t14.5 38.5t3.5 41q-2 34 -13.5 63.5t-29.5 56t-39 51t-42 49.5zM151 696q-42 0 -66.5 -25.5t-24.5 -67.5q0 -27 11 -55.5t27 -55.5t35 -51.5
t35 -44.5q18 16 28.5 44.5t14.5 62t1.5 68t-10.5 62.5t-21 45.5t-30 17.5z" />
    <glyph glyph-name="nine" unicode="9" horiz-adv-x="318" 
d="M226 301q-12 -14 -27 -25t-31 -17t-33 -5t-35 11q-35 20 -55 60.5t-26.5 89.5t-0.5 100t23.5 93t45.5 68t65 25q54 -1 89 -44.5t50 -112.5q11 -51 11.5 -111t-10.5 -120.5t-33.5 -117t-56.5 -100t-80 -70t-104 -26.5v10q49 0 85 26t61 68t40 94t22 104zM175 273
q15 8 26 18q14 12 27 29q2 20 3.5 41t1.5 41q1 35 -0.5 69.5t-6.5 65.5q-10 68 -29.5 111t-46.5 43q-15 0 -27 -20.5t-20.5 -53.5t-13 -74.5t-4 -84t5.5 -81t16 -65.5t28 -39t40 0z" />
    <glyph glyph-name="colon" unicode=":" horiz-adv-x="125" 
d="M63 250q-20 0 -34 14t-14 34t14 33.5t34 13.5t33.5 -13.5t13.5 -33.5t-13.5 -34t-33.5 -14zM63 0q-20 0 -34 13.5t-14 33.5t14 34t34 14t33.5 -14t13.5 -34t-13.5 -33.5t-33.5 -13.5z" />
    <glyph glyph-name="semicolon" unicode=";" horiz-adv-x="129" 
d="M63 95q32 0 43 -24t6.5 -53t-21.5 -53t-41 -24q-15 0 -13.5 8t9.5 8q3 0 8 0.5t10 5t8.5 13t2.5 25.5q-23 -6 -41.5 6t-18.5 40q0 20 14 34t34 14zM63 250q-20 0 -34 14t-14 34t14 33.5t34 13.5t33.5 -13.5t13.5 -33.5t-13.5 -34t-33.5 -14z" />
    <glyph glyph-name="less" unicode="&#x3c;" horiz-adv-x="326" 
d="M307 246h4v-82h-4q0 20 -3.5 28.5t-12.5 11.5l-276 100v6l274 100q11 4 14.5 9.5t3.5 32.5h4v-125h-4q0 27 -3 34t-14 3l-212 -77l215 -77q9 -4 11.5 8.5t2.5 27.5z" />
    <glyph glyph-name="equal" unicode="=" horiz-adv-x="162" 
d="M147 324v-25h-132v25h132zM147 275v-25h-132v25h132z" />
    <glyph glyph-name="greater" unicode="&#x3e;" horiz-adv-x="326" 
d="M19 246q0 -15 2.5 -27.5t11.5 -8.5l215 77l-212 77q-11 4 -14 -3t-3 -34h-4v125h4q0 -27 3.5 -32.5t14.5 -9.5l274 -100v-6l-276 -100q-9 -3 -12.5 -11.5t-3.5 -28.5h-4v82h4v0z" />
    <glyph glyph-name="question" unicode="?" horiz-adv-x="297" 
d="M16 573q-2 39 11 66t34.5 42.5t49 19t55.5 -4.5t53 -28t42 -52q19 -38 20 -75t-10.5 -74t-31.5 -74t-42 -74q-15 -25 -29.5 -51t-26.5 -52.5t-19.5 -53t-7.5 -53.5h-10q0 27 7.5 54t19 53.5t26 52t28.5 49.5q21 36 29 80t5 87t-14.5 83t-29 68.5t-39.5 42.5t-44 7
q-35 -12 -51.5 -43t-14.5 -70q1 -27 14 -56.5t26.5 -58t23 -52.5t5.5 -39q-4 -14 -21 -17.5t-55 6.5l2 10q19 -5 24 9q4 14 -0.5 37t-10.5 52q-6 26 -11 54t-7 55zM109 0q14 0 24.5 10.5t10.5 24.5q0 15 -10.5 25t-24.5 10t-24.5 -10t-10.5 -25q0 -14 10.5 -24.5t24.5 -10.5
z" />
    <glyph glyph-name="at" unicode="@" horiz-adv-x="602" 
d="M485 509l-68 -151q-20 -45 -37 -84.5t-22 -60.5q-2 -11 3 -21.5t16 -12.5q24 -5 62 18q39 22 75 83q34 58 48 126.5t-3 134.5q-16 62 -58 102t-103 51q-50 9 -94.5 -7.5t-82 -51t-67 -83.5t-49 -104.5t-27.5 -114t-2.5 -112.5t24.5 -99.5t55 -75.5q43 -36 87 -46.5t85 1
t77 41t65 72.5q17 25 40.5 39.5t37 13t9 -20t-44.5 -57.5q-28 -30 -55 -51q-38 -30 -80.5 -45.5t-86 -16.5t-86.5 13t-81 44q-44 34 -69 84.5t-33.5 108.5t-1.5 120t28 120.5t55 109t79.5 85.5t100.5 50.5t119 3.5q69 -13 115.5 -57t62.5 -114q17 -73 2.5 -145t-53.5 -137
q-40 -67 -86 -91q-45 -25 -91 -17q-26 5 -35 22t-4 42q2 11 6 25.5t10 31.5q-59 -61 -94 -78q-29 -14 -53 -12t-38 33q-9 21 -8 46t9.5 51t21.5 51t27 46q44 67 103 101q41 26 73 21q24 -5 34.5 -22.5t10.5 -43.5l19 41h53zM367 515q-19 3 -39.5 -10.5t-39.5 -35.5
t-35.5 -46.5t-26.5 -42.5q-9 -16 -17.5 -33.5t-13.5 -35t-6 -34t5 -29.5q9 -17 23 -20q12 -2 25 2.5t26 13t24.5 19t20.5 21.5q30 32 47 67q29 57 37 99q5 27 -4 44q-8 17 -26 21z" />
    <glyph glyph-name="A" unicode="A" horiz-adv-x="484" 
d="M145 10v-10h-130v10q32 0 45 8t18 28l158 655h10l156 -650q3 -13 5.5 -21t9 -12.5t18.5 -6t34 -1.5v-10h-198v10q43 0 54 7t5 32l-43 179h-155l-45 -185q-5 -22 14 -27.5t44 -5.5zM134 238h150l-75 313z" />
    <glyph glyph-name="B" unicode="B" horiz-adv-x="387" 
d="M228 386q31 -6 57.5 -20t45.5 -37.5t30 -57t11 -77.5q0 -54 -15.5 -92t-42.5 -61.5t-63.5 -34.5t-77.5 -11q-40 0 -79 2.5t-79 2.5v10q21 0 34 1.5t19.5 6t8.5 12t2 20.5v601q0 13 -2 20.5t-8.5 12t-19.5 6t-34 1.5v10q40 0 79 2.5t79 2.5q81 0 127 -37.5t46 -124.5
q0 -71 -30.5 -109t-87.5 -49zM173 381h-24v-376h24q63 0 91 46t28 143q0 96 -28 141.5t-91 45.5zM149 391h24q53 0 72.5 40t19.5 113t-19.5 112.5t-72.5 39.5h-24v-305z" />
    <glyph glyph-name="C" unicode="C" horiz-adv-x="380" 
d="M355 228h10v-228h-10q0 23 -4 30.5t-16 7.5q-6 0 -14.5 -6.5t-20 -15t-26 -15t-33.5 -6.5q-65 0 -108 34t-69.5 86t-37.5 115t-11 121t11 120.5t37.5 114.5t69.5 86t108 34q19 0 33.5 -6.5t26 -14.5t20 -14.5t14.5 -6.5q12 0 16 7t4 30h10v-227h-10q0 28 -6.5 66
t-20 72.5t-35 59t-52.5 24.5q-42 0 -70 -30.5t-45 -79t-24 -110.5t-7 -125t7 -125t24 -111t45 -79.5t70 -30.5q31 0 52.5 24.5t35 59.5t20 73t6.5 66z" />
    <glyph glyph-name="D" unicode="D" horiz-adv-x="391" 
d="M375 345q0 -34 -2.5 -73t-10 -78t-21 -75t-36 -63.5t-55 -44t-77.5 -16.5q-40 0 -79 2.5t-79 2.5v10q21 0 33.5 1.5t19.5 6t9 12t2 20.5v601q0 13 -2 20.5t-9 12t-19.5 6t-33.5 1.5v10q40 0 79 2.5t79 2.5q46 0 79 -17t55.5 -46t36 -66t20.5 -77.5t9 -80.5t2 -74z
M300 344q0 22 -1 56.5t-5.5 73.5t-12.5 78.5t-22 71.5t-35 52t-51 20h-24v-691h24q29 0 49.5 19t34.5 49.5t22.5 68.5t13 76t6 71t1.5 55z" />
    <glyph glyph-name="E" unicode="E" horiz-adv-x="357" 
d="M148 381v-371h87q19 1 37 8.5t31 28.5t21 59t8 101h10v-207h-327v10q21 0 33.5 1.5t19 6t8.5 12t2 20.5v601q0 13 -2 20.5t-8.5 12t-19 6t-33.5 1.5v10h327v-207h-10q0 63 -8 101t-21 59t-31 28.5t-37 8.5h-87v-300h11q26 0 42 6.5t24.5 23t11.5 45.5t3 75h10v-309h-10
q0 45 -3 74t-11.5 45.5t-24.5 23t-42 6.5h-11z" />
    <glyph glyph-name="F" unicode="F" horiz-adv-x="357" 
d="M78 651q0 13 -2 20.5t-8.5 12t-19 6t-33.5 1.5v10h327v-207h-10q0 63 -8 101t-21 59t-31 28.5t-37 8.5h-86v-300h10q26 0 42 6.5t25 23t12 45.5t3 75h10v-309h-10q0 45 -3 74t-12 45.5t-25 23t-42 6.5h-10v-331q0 -13 2 -20.5t8.5 -12t19 -6t33.5 -1.5v-10h-197v10
q21 0 33.5 1.5t19 6t8.5 12t2 20.5v601z" />
    <glyph glyph-name="G" unicode="G" horiz-adv-x="452" 
d="M303 294q0 13 -2 20.5t-8.5 12t-19 6t-34.5 1.5v10h198v-10q-22 0 -34.5 -1.5t-19 -6t-8.5 -12t-2 -20.5v-294h-10q0 18 -5.5 19.5t-20 -4t-38 -13t-59.5 -7.5q-64 0 -107 34t-69.5 86t-37.5 115t-11 121t11 120.5t37.5 114.5t69.5 86t107 34q36 0 59.5 -7.5t38 -13
t20 -4t5.5 19.5h10v-227h-10q0 28 -7.5 66t-23 72.5t-38.5 59t-54 24.5q-41 0 -69 -30.5t-45 -79t-24 -110.5t-7 -125t7 -125t24 -111t45 -79.5t69 -30.5q19 0 34.5 9t28.5 25v255z" />
    <glyph glyph-name="H" unicode="H" horiz-adv-x="453" 
d="M304 381h-155v-331q0 -13 2 -20.5t8.5 -12t19 -6t33.5 -1.5v-10h-197v10q21 0 33.5 1.5t19 6t8.5 12t2 20.5v601q0 13 -2 20.5t-8.5 12t-19 6t-33.5 1.5v10h197v-10q-21 0 -33.5 -1.5t-19 -6t-8.5 -12t-2 -20.5v-260h155v260q0 13 -2 20.5t-8.5 12t-19 6t-34.5 1.5v10
h198v-10q-22 0 -34.5 -1.5t-19 -6t-8.5 -12t-2 -20.5v-601q0 -13 2 -20.5t8.5 -12t19 -6t34.5 -1.5v-10h-198v10q22 0 34.5 1.5t19 6t8.5 12t2 20.5v331z" />
    <glyph glyph-name="I" unicode="I" horiz-adv-x="227" 
d="M15 701h197v-10q-21 0 -33.5 -1.5t-19 -6t-8.5 -12t-2 -20.5v-601q0 -13 2 -20.5t8.5 -12t19 -6t33.5 -1.5v-10h-197v10q21 0 33.5 1.5t19 6t8.5 12t2 20.5v601q0 13 -2 20.5t-8.5 12t-19 6t-33.5 1.5v10z" />
    <glyph glyph-name="J" unicode="J" horiz-adv-x="232" 
d="M154 238q0 -44 -7.5 -99.5t-28 -104t-57 -81.5t-94.5 -33v10q30 0 50.5 17t33.5 44.5t19.5 62t9.5 68.5t3 65v51v413q0 13 -2 20.5t-8.5 12t-19 6t-33.5 1.5v10h197v-10q-21 0 -33.5 -1.5t-19 -6t-8.5 -12t-2 -20.5v-413z" />
    <glyph glyph-name="K" unicode="K" horiz-adv-x="493" 
d="M441 691q-17 0 -28 -1.5t-18.5 -5.5t-13 -10.5t-11.5 -16.5h-1l-138 -222l169 -381q11 -25 27.5 -34.5t50.5 -9.5v-10h-197v10q21 0 32.5 1.5t16 6t2.5 12.5t-8 20l-138 313l-37 -60v-253q0 -13 2 -20.5t8.5 -12t19 -6t33.5 -1.5v-10h-197v10q21 0 33.5 1.5t19 6t8.5 12
t2 20.5v601q0 13 -2 20.5t-8.5 12t-19 6t-33.5 1.5v10h197v-10q-21 0 -33.5 -1.5t-19 -6t-8.5 -12t-2 -20.5v-329l207 333q12 20 4.5 28t-49.5 8v10h130v-10v0z" />
    <glyph glyph-name="L" unicode="L" horiz-adv-x="357" 
d="M78 651q0 13 -2 20.5t-8.5 12t-19 6t-33.5 1.5v10h197v-10q-21 0 -33.5 -1.5t-19 -6t-8.5 -12t-2 -20.5v-641h86q20 1 37.5 8.5t31 28.5t21 59t7.5 101h10v-207h-327v10q21 0 33.5 1.5t19 6t8.5 12t2 20.5v601z" />
    <glyph glyph-name="M" unicode="M" horiz-adv-x="541" 
d="M88 50q0 -13 2 -20.5t8.5 -12t19 -6t34.5 -1.5v-10h-137v10q21 0 33.5 1.5t19 6t8.5 12t2 20.5v601q0 13 -2 20.5t-8.5 12t-19 6t-33.5 1.5v10h135l121 -538l121 538h134v-10q-22 0 -34.5 -1.5t-19 -6t-8.5 -12t-2 -20.5v-601q0 -13 2 -20.5t8.5 -12t19 -6t34.5 -1.5v-10
h-198v10q22 0 34.5 1.5t19 6t8.5 12t2 20.5v606l-147 -656h-10v3l-147 653v-606z" />
    <glyph glyph-name="N" unicode="N" horiz-adv-x="441" 
d="M78 640q-5 13 -10 22.5t-12 16t-16.5 9.5t-24.5 3v10h114l223 -522v472q0 13 -2 20.5t-8.5 12t-19 6t-33.5 1.5v10h137v-10q-22 0 -34.5 -1.5t-19 -6t-8.5 -12t-2 -20.5v-651h-10l-264 617v-567q0 -13 2 -20.5t8.5 -12t19 -6t34.5 -1.5v-10h-137v10q21 0 33.5 1.5t19 6
t8.5 12t2 20.5v590z" />
    <glyph glyph-name="O" unicode="O" horiz-adv-x="443" 
d="M221 -5q-57 0 -96.5 34t-63.5 86t-35 115t-11 121t11 120.5t35 114.5t63.5 86t96.5 34t96.5 -34t64 -86t35.5 -114.5t11 -120.5t-11 -121t-35.5 -115t-64 -86t-96.5 -34zM347 351q0 26 -2 62t-7.5 74t-15 75.5t-23.5 67t-33 48t-45 18.5t-45 -18.5t-33 -48t-23.5 -67
t-14.5 -75.5t-7.5 -74t-2.5 -62q0 -27 2.5 -62.5t7.5 -74t14.5 -76t23.5 -67t33 -48t45 -18.5t45 18.5t33 48t23.5 67t15 76t7.5 74t2 62.5z" />
    <glyph glyph-name="P" unicode="P" horiz-adv-x="387" 
d="M79 651q0 13 -2 20.5t-8.5 12t-19.5 6t-34 1.5v10q40 0 79 2.5t79 2.5q41 0 77 -11t63 -34.5t43 -61t16 -91.5t-16 -91.5t-43 -61.5t-63 -34.5t-77 -10.5h-24v-260q0 -13 2 -20.5t8.5 -12t19 -6t34.5 -1.5v-10h-198v10q21 0 34 1.5t19.5 6t8.5 12t2 20.5v601zM173 320
q63 0 91 46t28 142t-28 142t-91 46h-24v-376h24z" />
    <glyph glyph-name="Q" unicode="Q" horiz-adv-x="443" 
d="M238 -4q13 -13 26.5 -41.5t31.5 -55t43 -43.5t63 -7l3 -9q-43 -25 -70 -23t-44 19.5t-26 44.5t-15.5 52t-12 43.5t-16.5 18.5q-57 0 -96.5 34t-63.5 86t-35 115t-11 121t11 120.5t35 114.5t63.5 86t96.5 34t96.5 -34t64 -86t35.5 -114.5t11 -120.5q0 -56 -10 -116.5
t-32.5 -111.5t-59 -86.5t-88.5 -40.5zM348 351q0 26 -2.5 62t-8 74t-14.5 75.5t-23 67t-33.5 48t-45.5 18.5t-45 -18.5t-33 -48t-23.5 -67t-14.5 -75.5t-7.5 -74t-2.5 -62q0 -27 2.5 -62.5t7.5 -74t14.5 -76t23.5 -67t33 -48t45 -18.5t45.5 18.5t33.5 48t23 67t14.5 76t8 74
t2.5 62.5z" />
    <glyph glyph-name="R" unicode="R" horiz-adv-x="464" 
d="M449 0q-53 -14 -87 -1t-56.5 41.5t-36 68t-24.5 78.5q-7 25 -13.5 47t-15 39t-19 27t-24.5 10h-24v-260q0 -13 2 -20.5t8.5 -12t19 -6t34.5 -1.5v-10h-198v10q22 0 34.5 1.5t19 6t8.5 12t2 20.5v601q0 13 -2 20.5t-8.5 12t-19 6t-34.5 1.5v10q41 0 80 2.5t78 2.5
q41 0 77.5 -11t63.5 -34.5t42.5 -61t15.5 -91.5q0 -47 -12 -81.5t-33 -58t-49.5 -37t-62.5 -18.5q32 -12 55 -38.5t41 -60.5t32.5 -70t29.5 -65.5t33 -49t43 -19.5v-10zM173 320q63 0 91 46t28 142t-28 142t-91 46h-24v-376h24z" />
    <glyph glyph-name="S" unicode="S" horiz-adv-x="294" 
d="M251 474q0 28 -4.5 66t-15.5 72.5t-30.5 59t-50.5 24.5q-21 0 -37 -9.5t-26.5 -25t-15.5 -34t-5 -36.5q0 -50 16 -84.5t39.5 -61.5t51 -51t51 -53t39.5 -67.5t16 -94.5q0 -30 -7.5 -62.5t-23.5 -59.5t-42 -44.5t-62 -17.5q-19 0 -34 7t-26.5 16t-20 16t-14.5 7
q-12 0 -15.5 -9t-3.5 -32h-10v228h10q0 -28 6.5 -66t20 -73t35 -59.5t52.5 -24.5q21 0 36.5 9.5t26 25t16 34.5t5.5 37q0 50 -16 84.5t-39.5 61.5t-51 51t-51 52.5t-39.5 67t-16 94.5q0 30 7.5 62.5t23.5 59.5t42 44.5t62 17.5q20 0 33 -7t22 -15.5t15.5 -15.5t12.5 -7
q8 0 13 8.5t5 31.5h10v-227h-10v0z" />
    <glyph glyph-name="T" unicode="T" horiz-adv-x="372" 
d="M111 691q-17 -1 -32.5 -8.5t-27.5 -28.5t-19 -59t-7 -101h-10v207h342v-207h-10q0 63 -7 101t-19 59t-27.5 28.5t-32.5 8.5h-40v-641q0 -13 2 -20.5t8.5 -12t19 -6t34.5 -1.5v-10h-198v10q21 0 34 1.5t19.5 6t8.5 12t2 20.5v641h-40z" />
    <glyph glyph-name="U" unicode="U" horiz-adv-x="424" 
d="M149 231v-59.5t7.5 -71t25.5 -59t53 -24.5q30 0 49 21t30.5 53t16 69.5t4.5 70.5v419q0 13 -2 20.5t-8.5 12t-19 6t-33.5 1.5v10h137v-10q-22 0 -34.5 -1.5t-19 -6t-8.5 -12t-2 -20.5v-419q0 -37 -5.5 -78.5t-19.5 -77t-39 -58.5t-65 -23q-43 0 -70 21t-42 54.5t-20 76
t-5 85.5v419q0 13 -2 20.5t-8.5 12t-19.5 6t-34 1.5v10h198v-10q-22 0 -34.5 -1.5t-19 -6t-8.5 -12t-2 -20.5v-419z" />
    <glyph glyph-name="V" unicode="V" horiz-adv-x="478" 
d="M245 0h-10l-151 650q-6 25 -19 33t-50 8v10h197v-10q-43 0 -52.5 -8t-3.5 -33l115 -494l114 495q6 25 -5 32.5t-54 7.5v10h137v-10q-21 0 -33 -1t-18.5 -5.5t-9.5 -12.5t-6 -21h-1z" />
    <glyph glyph-name="W" unicode="W" horiz-adv-x="690" 
d="M457 0h-10l-102 435l-100 -435h-10l-152 650q-5 25 -18 33t-50 8v10h197v-10q-43 0 -52.5 -8t-3.5 -33l115 -494l69 301l-44 193q-6 25 -19 33t-50 8v10h197v-10q-43 0 -52.5 -8t-3.5 -33l115 -494l114 495q6 25 -5 32.5t-54 7.5v10h137v-10q-21 0 -33 -1t-18.5 -5.5
t-9.5 -12.5t-6 -21h-1z" />
    <glyph glyph-name="X" unicode="X" horiz-adv-x="456" 
d="M251 390l121 -334q5 -14 9.5 -23t11.5 -14t18 -7t30 -2v-10h-197v10q43 0 54 6t1 35l-89 247l-111 -248q-10 -24 0 -32t53 -8v-10h-137v10q19 0 31 1.5t19 5t11 10t9 16.5l120 268l-120 335q-5 14 -9.5 23t-12 14t-18.5 6.5t-30 1.5v10h198v-10q-22 0 -35 -1t-19.5 -5
t-6 -12t5.5 -23l88 -246l111 247q10 25 0 32.5t-53 7.5v10h137v-10q-20 0 -31.5 -1.5t-18.5 -5t-11.5 -9.5t-8.5 -16z" />
    <glyph glyph-name="Y" unicode="Y" horiz-adv-x="462" 
d="M264 280v-230q0 -13 2 -20.5t8.5 -12t19 -6t33.5 -1.5v-10h-197v10q21 0 33.5 1.5t19 6t8.5 12t2 20.5v225l-109 371q-8 28 -20 36.5t-49 8.5v10h197v-10h-3q-21 0 -33 -0.5t-18 -4.5t-6 -12.5t4 -23.5l103 -350l104 352q4 13 4.5 21t-5.5 12t-18.5 5t-33.5 1v10h137v-10
q-22 0 -34.5 -1t-20 -5.5t-11.5 -13t-8 -22.5z" />
    <glyph glyph-name="Z" unicode="Z" horiz-adv-x="355" 
d="M262 691h-133q-17 -1 -32.5 -8.5t-27.5 -28.5t-19 -59t-7 -101h-9v207h306l-246 -691h132q17 1 32.5 8.5t27.5 28.5t19 59t7 101h10v-207h-307z" />
    <glyph glyph-name="bracketleft" unicode="[" horiz-adv-x="280" 
d="M265 -185h-250v1072h250v-48h-165v-976h165v-48z" />
    <glyph glyph-name="backslash" unicode="\" horiz-adv-x="333" 
d="M15 699h24l279 -699h-24z" />
    <glyph glyph-name="bracketright" unicode="]" horiz-adv-x="280" 
d="M15 -137h165v976h-165v48h250v-1072h-250v48z" />
    <glyph glyph-name="asciicircum" unicode="^" horiz-adv-x="199" 
d="M63 443v-4h-48v4q12 0 16.5 2.5t6.5 10.5l59 245h4l59 -244q2 -9 5.5 -11.5t18.5 -2.5v-4h-73v4q16 0 19.5 2.5t1.5 11.5l-45 188l-45 -190q-2 -8 5 -10t16 -2z" />
    <glyph glyph-name="underscore" unicode="_" horiz-adv-x="364" 
d="M349 -42v-25h-334v25h334z" />
    <glyph glyph-name="grave" unicode="`" horiz-adv-x="130" 
d="M115 625h-24l-76 125h49z" />
    <glyph glyph-name="a" unicode="a" horiz-adv-x="303" 
d="M105 454q-22 -22 -24.5 -41t11.5 -43q6 -10 9 -20t2.5 -19t-5.5 -16t-17 -10q-19 -5 -31 4.5t-18 24.5t-6.5 30t3.5 22q6 11 23.5 29t45.5 46q27 27 40 27q25 0 43.5 -11t30.5 -27.5t17.5 -37.5t5.5 -40v-247q0 -32 4.5 -41t9.5 -5q7 4 14.5 21t15.5 46l9 -3
q-22 -81 -40 -114.5t-35 -33.5q-18 0 -32 21.5t-16 73.5q-12 -42 -35 -68.5t-48 -26.5q-24 0 -45.5 22.5t-21.5 70.5q0 39 11 68t28 51.5t36 41t36 37t28 39t11 47.5q0 31 -7 50.5t-16.5 28.5t-19.5 9.5t-17 -6.5zM165 321q-8 -20 -20.5 -37t-24.5 -37.5t-20.5 -49
t-8.5 -70.5q0 -50 11.5 -65.5t25.5 -7.5t25.5 36.5t11.5 67.5v163z" />
    <glyph glyph-name="b" unicode="b" horiz-adv-x="333" 
d="M68 0v620q0 24 -8 31.5t-42 -1.5l-3 9l113 31h10v-293q9 18 19.5 34t21 29t20.5 20.5t18 7.5q38 0 61 -36.5t32.5 -91.5t6 -118.5t-19 -118.5t-43 -91.5t-65.5 -36.5q-18 0 -30 6.5t-20 14.5t-15 14.5t-16 6.5q-11 0 -20.5 -9.5t-9.5 -27.5h-10zM183 13q19 0 32.5 31
t21 77.5t8 100.5t-5.5 100.5t-19.5 77.5t-33.5 31q-12 0 -23.5 -15.5t-24.5 -38.5v-287q0 -35 12.5 -56t32.5 -21z" />
    <glyph glyph-name="c" unicode="c" horiz-adv-x="259" 
d="M151 478q-25 0 -40 -32.5t-21 -81t-3.5 -105.5t12.5 -105.5t26.5 -81t38.5 -32.5q17 0 28.5 11.5t20 28t13.5 34.5t8 32l10 -3q-8 -41 -22 -74q-12 -28 -32.5 -51t-50.5 -23q-42 0 -70 36.5t-41.5 91.5t-12 118.5t17 118.5t45 91.5t73.5 36.5q37 0 56.5 -22.5t24 -49.5
t-5.5 -49.5t-33 -22.5q-24 0 -29 18t1 41q9 34 6 54.5t-20 20.5z" />
    <glyph glyph-name="d" unicode="d" horiz-adv-x="332" 
d="M194 620q0 24 -8 31.5t-42 -1.5l-2 9l113 31h10v-620q0 -24 8 -31.5t42 1.5l2 -10l-113 -30h-10v86q-9 -18 -19.5 -34t-21 -29t-20 -20.5t-17.5 -7.5q-38 0 -61 36.5t-32.5 91.5t-6 118.5t19 118.5t43 91.5t65.5 36.5q15 0 28.5 -10.5t21.5 -29.5v172zM150 470
q-20 0 -33.5 -31t-20.5 -77.5t-7.5 -100.5t5.5 -100.5t19 -77.5t33 -31q13 0 24.5 15.5t23.5 38.5v287q0 35 -12 56t-32 21z" />
    <glyph glyph-name="e" unicode="e" horiz-adv-x="253" 
d="M235 315l-142 -142q4 -28 10 -52.5t14.5 -42.5t18.5 -28t22 -10q17 0 29 11.5t20 28t13 34.5t9 32l9 -3q-8 -41 -22 -74q-12 -28 -32 -51t-51 -23q-42 0 -68.5 36.5t-38.5 91.5t-10 118.5t16.5 118.5t40.5 91.5t63 36.5q43 0 71 -47.5t28 -125.5zM92 185l80 80
q0 36 -0.5 74t-3.5 69t-10.5 50.5t-21.5 19.5q-17 0 -28.5 -28t-17 -70.5t-5 -94.5t6.5 -100z" />
    <glyph glyph-name="f" unicode="f" horiz-adv-x="263" 
d="M191 10v-10h-176v10q35 0 44 8t9 32v422h-34v10h34v5q0 70 10.5 111t26 62t32.5 27t29 6q36 0 55.5 -22.5t24 -49.5t-5.5 -49.5t-32 -22.5q-24 0 -29 18.5t1 40.5q9 34 6 54.5t-20 20.5q-9 0 -14.5 -9.5t-8.5 -32.5t-4 -60.5t-1 -93.5v-5h70v-10h-70v-422q0 -24 9 -32
t44 -8z" />
    <glyph glyph-name="g" unicode="g" horiz-adv-x="290" 
d="M275 483v-10h-85q18 -11 30 -29t19.5 -39t11 -44t3.5 -44q0 -28 -6 -58t-19.5 -55t-36.5 -41t-57 -16q-28 0 -50 11q-17 -12 -27 -27t-7 -28.5t22.5 -22.5t62.5 -9q69 0 104 -34.5t35 -99.5q0 -32 -8 -62.5t-24.5 -54t-42 -38t-60.5 -14.5q-33 0 -56.5 9t-38.5 23.5
t-22 33t-7 37.5q0 26 14 44.5t34 13.5q19 -5 19 -22t-10 -33q-9 -16 -8 -33t10.5 -31t26 -23t38.5 -9q32 0 57 16t39.5 40t17 51.5t-11 51.5t-44 40t-81.5 16q-46 0 -67.5 19.5t-24 47t11.5 56.5t39 48q-17 12 -28.5 29.5t-19 38t-10.5 42.5t-3 43q0 28 6 58.5t19.5 55.5
t36.5 41t58 16q16 0 33 -5h107zM86 317q0 -27 2 -55.5t7.5 -52t15 -38t24.5 -14.5q14 0 23.5 14.5t15 38t8 52t2.5 55.5q0 28 -2.5 56.5t-8 51.5t-15 38t-23.5 15q-15 0 -24.5 -15t-15 -38t-7.5 -51.5t-2 -56.5z" />
    <glyph glyph-name="h" unicode="h" horiz-adv-x="389" 
d="M321 50q0 -12 2 -20t7.5 -12.5t16 -6t27.5 -1.5v-10h-176v10q34 0 43.5 8t9.5 32v319q0 22 -5.5 37t-14.5 24t-19.5 12.5t-20.5 0.5q-13 -4 -26 -23t-27 -44v-326q0 -24 9 -32t44 -8v-10h-176v10q34 0 43.5 8t9.5 32v570q0 24 -8.5 31.5t-42.5 -1.5l-2 9l113 31h10v-293
q9 18 19.5 34t21 29t20.5 20.5t18 7.5q20 0 38.5 -5t33 -18.5t23.5 -36.5t9 -59v-319z" />
    <glyph glyph-name="i" unicode="i" horiz-adv-x="206" 
d="M139 483v-433q0 -12 1.5 -20t7 -12.5t16 -6t27.5 -1.5v-10h-176v10q35 0 44 8t9 32v363q0 24 -8 31.5t-42 -1.5l-3 10l114 30h10zM104 629q17 0 28.5 -11.5t11.5 -28.5t-11.5 -28.5t-28.5 -11.5t-28.5 11.5t-11.5 28.5t11.5 28.5t28.5 11.5z" />
    <glyph glyph-name="j" unicode="j" horiz-adv-x="123" 
d="M5 -227q12 0 29 6t32.5 27.5t26 62.5t10.5 111v503h-10l-113 -30l3 -10q33 9 41.5 1.5t8.5 -31.5v-433q0 -56 -1 -94t-4 -61t-8.5 -32.5t-14.5 -9.5q-17 0 -20 21t6 54q6 23 1 41.5t-29 18.5q-23 0 -32.5 -22.5t-5 -50t24 -50t55.5 -22.5zM69 629q17 0 28 -11.5t11 -28.5
t-11 -28.5t-28 -11.5t-28.5 11.5t-11.5 28.5t11.5 28.5t28.5 11.5z" />
    <glyph glyph-name="k" unicode="k" horiz-adv-x="389" 
d="M237 483h114v-10q-34 0 -50.5 -16t-24.5 -30l-62 -107l98 -269q4 -12 8 -20t10 -12.5t16.5 -6.5t27.5 -2v-10h-176v10q35 0 41.5 8t-1.5 31l-70 191l-30 -52v-138q0 -24 9 -32t44 -8v-10h-176v10q34 0 43.5 8t9.5 32v570q0 24 -8.5 31.5t-41.5 -1.5l-3 9l113 31h10v-482
l132 228q7 12 5.5 19.5t-7.5 11.5t-14.5 5t-16.5 1v10z" />
    <glyph glyph-name="l" unicode="l" horiz-adv-x="206" 
d="M138 50q0 -12 2 -20t7.5 -12.5t16 -6t27.5 -1.5v-10h-176v10q35 0 44 8t9 32v570q0 24 -8 31.5t-42 -1.5l-3 9l114 31h9v-640z" />
    <glyph glyph-name="m" unicode="m" horiz-adv-x="572" 
d="M504 50q0 -12 2 -20t7.5 -12.5t16 -6t27.5 -1.5v-10h-176v10q34 0 43.5 8t9.5 32v319q0 22 -5.5 37t-14.5 24t-19.5 12.5t-20.5 0.5q-13 -4 -26 -23t-27 -44v-326q0 -24 9 -32t44 -8v-10h-176v10q34 0 43.5 8t9.5 32v319q0 22 -5.5 37t-14.5 24t-20 12.5t-21 0.5
q-12 -4 -25 -23t-27 -44v-326q0 -12 1.5 -20t7 -12.5t16 -6t27.5 -1.5v-10h-175v10q34 0 43 8t9 32v363q0 24 -8 31.5t-42 -1.5l-2 10l113 30h10v-86q9 18 19.5 34t21 29t20 20.5t17.5 7.5q18 0 35.5 -4t31.5 -14.5t24 -29t13 -46.5q9 18 19.5 35t21 30t20.5 21t19 8
q20 0 38.5 -5t33 -18.5t23.5 -36.5t9 -59v-319z" />
    <glyph glyph-name="n" unicode="n" horiz-adv-x="389" 
d="M321 50q0 -24 9 -32t44 -8v-10h-176v10q34 0 43.5 8t9.5 32v319q0 44 -20 61.5t-41 12.5q-12 -4 -25 -23t-27 -44v-326q0 -24 9 -32t44 -8v-10h-176v10q34 0 43 8t9 32v363q0 24 -8 31.5t-42 -1.5l-2 10l113 30h10v-86q9 18 19.5 34t21 29t20 20.5t17.5 7.5q20 0 39 -5
t33.5 -18.5t23.5 -36.5t9 -59v-319z" />
    <glyph glyph-name="o" unicode="o" horiz-adv-x="275" 
d="M260 241q0 -42 -6.5 -86t-21.5 -79.5t-38.5 -58t-56.5 -22.5t-56.5 22.5t-38 58t-21 79.5t-6.5 86q0 43 6.5 87t21 79.5t38 58t56.5 22.5t56.5 -22.5t38.5 -58t21.5 -79.5t6.5 -87zM137 5q15 0 25 19t15 51.5t7 75.5t2 90q0 48 -2 91t-7 75.5t-15 51.5t-25 19t-24.5 -19
t-14.5 -51.5t-7 -75.5t-2 -91q0 -47 2 -90t7 -75.5t14.5 -51.5t24.5 -19z" />
    <glyph glyph-name="p" unicode="p" horiz-adv-x="332" 
d="M138 -176q0 -12 2 -20t7.5 -12.5t16 -6.5t27.5 -2v-10h-176v10q34 0 43.5 8t9.5 32v590q0 24 -8.5 31.5t-41.5 -1.5l-3 10l113 30h10v-86q9 18 19.5 34t21 29t20.5 20.5t18 7.5q37 0 60 -36.5t32.5 -91.5t6 -118.5t-19 -118.5t-42.5 -91.5t-65 -36.5q-16 0 -29.5 10.5
t-21.5 29.5v-211zM183 13q19 0 32.5 31t20.5 77.5t8 100.5t-5 100.5t-19.5 77.5t-33.5 31q-12 0 -23.5 -15.5t-24.5 -38.5v-287q0 -35 12.5 -56t32.5 -21z" />
    <glyph glyph-name="q" unicode="q" horiz-adv-x="332" 
d="M265 -176q0 -12 1.5 -20t7 -12.5t16 -6.5t27.5 -2v-10h-176v10q35 0 44 8t9 32v263q-9 -18 -19.5 -34t-21 -29t-20.5 -20.5t-18 -7.5q-38 0 -60.5 36.5t-32 91.5t-6 118.5t19 118.5t43 91.5t65.5 36.5q18 0 29.5 -6.5t20 -14.5t15 -14.5t15.5 -6.5q12 0 21.5 9t9.5 28h10
v-659zM150 470q-20 0 -33.5 -31t-20.5 -77.5t-7.5 -100.5t5.5 -100.5t19 -77.5t33 -31q13 0 24 15.5t24 38.5v287q0 35 -12 56t-32 21z" />
    <glyph glyph-name="r" unicode="r" horiz-adv-x="315" 
d="M237 488q32 0 47 -20.5t16 -45.5t-10.5 -45.5t-31.5 -20.5q-11 0 -16 5t-7.5 13t-3 18t-3.5 19q-6 21 -23 20t-36 -20q-10 -10 -17.5 -20.5t-13.5 -20.5v-320q0 -24 9 -32t44 -8v-10h-176v10q34 0 43.5 8t9.5 32v363q0 24 -8.5 31.5t-41.5 -1.5l-3 10l113 30h10v-95
q11 19 25 37t27.5 32t25.5 22.5t21 8.5z" />
    <glyph glyph-name="s" unicode="s" horiz-adv-x="213" 
d="M110 10q20 0 31.5 13.5t11.5 34.5q0 35 -10 62.5t-25.5 51.5t-33.5 46t-33.5 45.5t-25.5 50t-10 60.5q0 22 6.5 43t18.5 36.5t28 25t35 9.5q12 0 25 -4t23.5 -6.5t17.5 -1t7 11.5h9v-157h-9q0 25 -6 51.5t-16 47.5t-23 34.5t-28 13.5q-20 0 -31.5 -13.5t-11.5 -35.5
q0 -27 10 -49t25.5 -43t33.5 -43.5t33.5 -48.5t25.5 -58.5t10 -73.5q0 -22 -6.5 -42.5t-18 -36t-28 -25t-35.5 -9.5q-12 0 -25 4t-23.5 6.5t-17 1t-6.5 -11.5h-10v157h10q0 -26 6 -52t15.5 -47t22.5 -34.5t28 -13.5z" />
    <glyph glyph-name="t" unicode="t" horiz-adv-x="204" 
d="M15 483q14 0 30.5 17.5t31 43.5t24 56.5t9.5 57.5h10v-175h69v-10h-69v-348q0 -32 4 -41t10 -5t13.5 21t15.5 46l9 -3q-22 -81 -40 -114.5t-35 -33.5q-19 0 -33.5 23.5t-14.5 81.5v373h-34v10z" />
    <glyph glyph-name="u" unicode="u" horiz-adv-x="389" 
d="M251 413q0 24 -8.5 31.5t-41.5 -1.5l-3 10l113 30h10v-413q0 -24 8.5 -31.5t41.5 1.5l3 -10l-113 -30h-10v86q-9 -18 -19.5 -34t-21 -29t-20.5 -20.5t-18 -7.5q-20 0 -39 5t-33.5 18.5t-23.5 36t-9 58.5v300q0 24 -8 31.5t-42 -1.5l-2 10l113 30h10v-370q0 -21 5.5 -36.5
t14.5 -24.5t19.5 -12t20.5 0q12 3 25.5 22t27.5 44v307z" />
    <glyph glyph-name="v" unicode="v" horiz-adv-x="388" 
d="M144 431l79 -295l79 292q4 16 2 25t-9 13.5t-16.5 5.5t-20.5 1v10h115v-10q-17 0 -27.5 -2t-17 -7.5t-10.5 -15.5t-8 -25l-113 -423h-10l-115 428q-4 15 -6.5 23.5t-8 13.5t-15 6.5t-27.5 1.5v10h176v-10q-35 0 -45 -7t-2 -35z" />
    <glyph glyph-name="w" unicode="w" horiz-adv-x="571" 
d="M406 136l79 292q4 16 2 25t-9 13.5t-16.5 5.5t-20.5 1v10h115v-10q-17 0 -27 -2t-16.5 -7.5t-10.5 -15.5t-8 -25l-114 -423h-10l-87 323l-86 -323h-10l-115 428q-4 15 -6.5 23.5t-8 13.5t-15 6.5t-27.5 1.5v10h176v-10q-35 0 -45 -7t-2 -35l79 -295l55 206l-23 86
q-4 15 -6.5 23.5t-8 13.5t-15 6.5t-27.5 1.5v10h176v-10q-35 0 -45 -7t-2 -35z" />
    <glyph glyph-name="x" unicode="x" horiz-adv-x="344" 
d="M193 297l61 129q8 16 6.5 25.5t-8 14.5t-17 6t-21.5 1v10h115v-10q-26 0 -35.5 -4.5t-17.5 -19.5l-79 -167l64 -222q5 -16 9.5 -26t12 -15t18.5 -7t28 -2v-10h-176v10q18 0 27.5 1.5t13 6.5t1.5 14.5t-6 24.5l-38 129l-61 -129q-8 -17 -6.5 -26t8 -14t17 -6t21.5 -1v-10
h-115v10q26 0 35.5 4.5t17.5 18.5l79 168l-64 222q-5 16 -9.5 26t-11.5 15t-18 7t-29 2v10h176v-10q-17 0 -26.5 -1.5t-13 -6.5t-2 -14.5t6.5 -24.5z" />
    <glyph glyph-name="y" unicode="y" horiz-adv-x="388" 
d="M105 -194q11 0 20 11t18 34.5t19.5 60.5t24.5 88l-115 428q-4 15 -6.5 23.5t-8 13.5t-15 6.5t-27.5 1.5v10h176v-10q-35 0 -45 -7t-2 -35l79 -295l79 292q4 16 2 25t-9 13.5t-16.5 5.5t-20.5 1v10h115v-10q-17 0 -27 -2t-16.5 -7.5t-10.5 -15.5t-8 -25l-114 -423
q-14 -50 -24.5 -92t-22 -72t-25.5 -46.5t-35 -16.5q-28 0 -43 22.5t-17.5 50t8 50t33.5 22.5t28 -18.5t-1 -41.5q-13 -52 7 -52z" />
    <glyph glyph-name="z" unicode="z" horiz-adv-x="234" 
d="M210 152h9v-152h-203l127 473h-35q-30 0 -46.5 -7t-24.5 -21.5t-10 -37t-2 -54.5v-22h-10v152h204l-127 -473h35q30 0 46.5 7t24.5 21.5t10 37t2 54.5v22z" />
    <glyph glyph-name="braceleft" unicode="{" horiz-adv-x="346" 
d="M331 -186v-21q-95 13 -155 81q-26 29 -39 58t-17.5 59.5t-1 63.5t11.5 69q12 57 12 89q0 42 -33 80q-34 37 -94 46v23q60 9 94 46q33 36 33 80q0 32 -12 89q-8 36 -11.5 69t1 63.5t17.5 59.5t39 58q60 68 155 81v-21q-67 -16 -98 -55q-31 -37 -31 -83q0 -38 13 -93
q12 -59 12 -99q0 -59 -41 -117q-41 -56 -125 -88q82 -32 124 -90q42 -57 42 -118q0 -41 -12 -98q-13 -56 -13 -93q0 -47 31 -84t98 -55z" />
    <glyph glyph-name="bar" unicode="|" horiz-adv-x="54" 
d="M39 -154h-24v881h24v-881z" />
    <glyph glyph-name="braceright" unicode="}" horiz-adv-x="346" 
d="M15 -186q67 18 98 55t31 84q0 37 -13 93q-12 57 -12 98q0 61 42 118q42 58 124 90q-84 32 -125 88q-41 58 -41 117q0 40 12 99q13 55 13 93q0 46 -31 83q-31 39 -98 55v21q95 -13 155 -81q25 -29 38.5 -58t18 -59.5t1 -63.5t-11.5 -69q-12 -57 -12 -89q0 -44 33 -80
q34 -37 94 -46v-23q-60 -9 -94 -46q-33 -38 -33 -80q0 -32 12 -89q8 -36 11.5 -69t-1 -63.5t-18 -59.5t-38.5 -58q-60 -68 -155 -81v21v0z" />
    <glyph glyph-name="asciitilde" unicode="~" horiz-adv-x="269" 
d="M240 204q0 17 -6.5 24t-18 7t-27.5 -5.5t-35 -12.5q-21 -8 -45.5 -15t-45 -5t-34 17t-13.5 51h14q0 -34 24 -34q13 0 31.5 6.5t38.5 14t40.5 14t37.5 6.5q23 0 38 -15t15 -53h-14z" />
    <glyph glyph-name="uni00A0" unicode="&#xa0;" 
 />
    <glyph glyph-name="exclamdown" unicode="&#xa1;" horiz-adv-x="173" 
d="M15 0h143v10q-21 0 -29.5 10t-9.5 30l-28 542h-10l-28 -549q-3 -33 -38 -33v-10zM86 701q15 0 25 -10.5t10 -24.5q0 -15 -10 -25t-25 -10q-14 0 -24.5 10t-10.5 25q0 14 10.5 24.5t24.5 10.5z" />
    <glyph glyph-name="cent" unicode="&#xa2;" horiz-adv-x="259" 
d="M130 807h10v-211q3 1 11 1q36 0 55.5 -22.5t24 -49.5t-5.5 -49.5t-32 -22.5q-24 0 -29 18t1 41q9 34 6 54.5t-20 20.5q-5 0 -11 -2v-424q10 -12 24 -12q17 0 28.5 11.5t19.5 28t13 34.5t9 32l10 -2q-8 -41 -22 -74q-12 -28 -32 -51.5t-50 -23.5v-211h-10v211
q-39 4 -64 39.5t-38 87t-12.5 111t13 112.5t38 92t63.5 48v213zM130 173v407q-16 -12 -26 -41t-14.5 -67.5t-4 -82t6 -84.5t15 -76t23.5 -56z" />
    <glyph glyph-name="sterling" unicode="&#xa3;" horiz-adv-x="459" 
d="M81 382h70q-11 61 -12.5 114t9.5 94t37 68.5t72 37.5q26 5 52.5 5h52.5l28 -153l-6 -3q-14 82 -46 114t-74 18q-35 -12 -48.5 -42.5t-15 -71.5t6 -88t15.5 -93h85v-15h-83q7 -44 8 -83.5t-8 -74t-29 -63t-54 -50.5q26 14 51 15.5t47.5 -4.5t42.5 -16t36 -19
q15 -8 27.5 -16.5t25.5 -11t28.5 5.5t36.5 32l8 -15q-39 -50 -69 -63.5t-55.5 -7t-51 23.5t-55 29t-67.5 10t-89 -35q-9 -6 -17 -13t-18 -14q-1 0 -1 -0.5t-1 -0.5l-5 17q8 7 16 12.5t16 11.5q39 33 64.5 64.5t38.5 69t13.5 84.5t-10.5 112h-72v15z" />
    <glyph glyph-name="currency" unicode="&#xa4;" horiz-adv-x="408" 
d="M15 195q3 1 10.5 6.5t15.5 12l16 13t13 10.5q-21 24 -31.5 53.5t-10.5 60t10.5 60t31.5 53.5q-5 4 -13 10.5l-16 13t-15.5 12t-10.5 6.5l33 33q1 -3 6.5 -10.5t12 -15.5l13 -16t10.5 -13q25 21 54.5 32t59.5 11t59.5 -11t54.5 -32q3 5 9.5 13t13.5 16t12 15.5l7 10.5
l33 -33q-3 -1 -10.5 -6.5t-16 -12t-16.5 -13t-12 -10.5q21 -25 31 -54t10 -59.5t-10 -59.5t-31 -54q4 -4 12 -10.5t16.5 -13t16 -12t10.5 -6.5l-33 -33l-7 10.5t-12 15.5t-13.5 16t-9.5 13q-24 -21 -53.5 -31.5t-60 -10.5t-60.5 10.5t-54 31.5q-4 -5 -10.5 -13l-13 -16
t-12 -15.5t-6.5 -10.5zM344 351q0 46 -20.5 77t-52 46.5t-67.5 15t-67.5 -16t-52 -46t-20.5 -76.5q0 -29 11 -54.5t30 -44.5t44.5 -30t54.5 -11t54.5 11t44.5 30t30 44.5t11 54.5z" />
    <glyph glyph-name="yen" unicode="&#xa5;" horiz-adv-x="462" 
d="M354 131v-10h-90v-71q0 -13 2 -20.5t8.5 -12t19 -6t34.5 -1.5v-10h-198v10q22 0 34.5 1.5t19 6t8.5 12t2 20.5v71h-90v10h90v44h-90v10h90v90l-109 371q-8 28 -20.5 36.5t-49.5 8.5v10h197v-10h-2q-21 0 -33.5 -0.5t-18.5 -4.5t-6 -12.5t5 -23.5l103 -350l103 352
q4 13 4.5 21t-5.5 12t-18.5 5t-33.5 1v10h137v-10q-21 0 -34 -1t-20.5 -5.5t-11.5 -13t-8 -22.5l-109 -369v-95h90v-10h-90v-44h90z" />
    <glyph glyph-name="brokenbar" unicode="&#xa6;" horiz-adv-x="54" 
d="M39 330h-24v397h24v-397zM39 -130h-24v397h24v-397z" />
    <glyph glyph-name="section" unicode="&#xa7;" horiz-adv-x="294" 
d="M279 -27q0 -30 -7.5 -62.5t-23.5 -59.5t-42 -44.5t-62 -17.5q-19 0 -34 7t-26.5 15.5t-20 15.5t-14.5 7q-12 0 -16 -8.5t-4 -31.5h-9v227h9q0 -28 6.5 -66t20.5 -72.5t35.5 -59t52.5 -24.5v-1q21 0 36.5 10t26 25t16 34t5.5 37q0 50 -16 84.5t-39.5 61.5t-51 51t-51 53
t-39.5 67.5t-16 94.5q0 23 4.5 48t13.5 48t23.5 42t35.5 31q-32 32 -54.5 75t-22.5 111q0 30 7.5 62.5t23.5 59.5t42 44.5t62 17.5q19 0 32.5 -7t22.5 -15.5t15.5 -15.5t12.5 -7q7 0 12 8.5t5 31.5h10v-227h-10q0 28 -4 66t-15 73t-30.5 59.5t-50.5 24.5q-21 0 -37 -9.5
t-26.5 -25t-15.5 -34.5t-5 -37q0 -50 16 -84.5t39.5 -61.5t51 -51t51 -53t39.5 -67.5t16 -94.5q0 -23 -4.5 -48t-14 -48t-24 -42t-35.5 -31q16 -16 30 -34.5t24.5 -40.5t17 -49.5t6.5 -61.5zM104 474q-20 -16 -29 -40.5t-9 -49.5q0 -42 11 -72.5t29 -55t40 -45t44 -41.5
q19 16 28.5 40.5t9.5 49.5q0 42 -11 72.5t-29 55t-40 45t-44 41.5z" />
    <glyph glyph-name="dieresis" unicode="&#xa8;" horiz-adv-x="325" 
d="M63 603q-20 0 -34 13.5t-14 33.5t14 34t34 14t33.5 -14t13.5 -34t-13.5 -33.5t-33.5 -13.5zM263 603q-20 0 -34 13.5t-14 33.5t14 34t34 14t33.5 -14t13.5 -34t-13.5 -33.5t-33.5 -13.5z" />
    <glyph glyph-name="copyright" unicode="&#xa9;" horiz-adv-x="425" 
d="M213 548q41 0 77 -15.5t62.5 -42.5t42 -63t15.5 -77t-15.5 -77t-42 -62.5t-62.5 -42t-77 -15.5t-77 15.5t-63 42t-42.5 62.5t-15.5 77t15.5 77t42.5 63t63 42.5t77 15.5zM152 343q0 -25 3 -49.5t9.5 -44t17.5 -31.5t28 -12q12 0 20.5 9.5t14 23.5t8 29t2.5 26h4v-90h-4
q0 10 -1.5 12.5t-6.5 2.5t-13.5 -8.5t-23.5 -8.5q-26 0 -43 13.5t-27.5 34t-15 45.5t-4.5 48t4.5 48t15 46t27.5 34.5t43 13.5q15 0 23.5 -8.5t13.5 -8.5t6.5 2.5t1.5 12.5h4v-91h-4q0 11 -2.5 26.5t-8 29.5t-14 23.5t-20.5 9.5q-17 0 -28 -12t-17.5 -31.5t-9.5 -44.5
t-3 -50zM213 515q-34 0 -64 -13t-52.5 -35.5t-35.5 -52.5t-13 -64t13 -63.5t35.5 -52t52.5 -35.5t64 -13t63.5 13t52 35.5t35.5 52t13 63.5t-13 64t-35.5 52.5t-52 35.5t-63.5 13z" />
    <glyph glyph-name="ordfeminine" unicode="&#xaa;" horiz-adv-x="303" 
d="M105 454q-22 -22 -24.5 -41t11.5 -43q6 -10 9 -20t2.5 -19t-5.5 -16t-17 -10q-19 -5 -31 4.5t-18 24.5t-6.5 30t3.5 22q6 11 23.5 29t45.5 46q27 27 40 27q25 0 43.5 -11t30.5 -27.5t17.5 -37.5t5.5 -40v-247q0 -32 4.5 -41t9.5 -5q7 4 14.5 21t15.5 46l9 -3
q-22 -81 -40 -114.5t-35 -33.5q-18 0 -32 21.5t-16 73.5q-12 -42 -35 -68.5t-48 -26.5q-24 0 -45.5 22.5t-21.5 70.5q0 39 11 68t28 51.5t36 41t36 37t28 39t11 47.5q0 31 -7 50.5t-16.5 28.5t-19.5 9.5t-17 -6.5zM165 321q-8 -20 -20.5 -37t-24.5 -37.5t-20.5 -49
t-8.5 -70.5q0 -50 11.5 -65.5t25.5 -7.5t25.5 36.5t11.5 67.5v163z" />
    <glyph glyph-name="guillemotleft" unicode="&#xab;" horiz-adv-x="213" 
d="M114 13l-6 -13l-93 89v13l93 89l6 -13l-58 -82zM198 13l-5 -13l-93 89v13l93 89l5 -13l-57 -82z" />
    <glyph glyph-name="logicalnot" unicode="&#xac;" horiz-adv-x="313" 
d="M298 244h-26v96h-257v26h283v-122z" />
    <glyph glyph-name="registered" unicode="&#xae;" horiz-adv-x="425" 
d="M213 548q41 0 77 -15.5t62.5 -42.5t42 -63t15.5 -77t-15.5 -77t-42 -62.5t-62.5 -42t-77 -15.5t-77 15.5t-63 42t-42.5 62.5t-15.5 77t15.5 77t42.5 63t63 42.5t77 15.5zM195 332q43 0 43 69q0 68 -43 68h-9v-137h9zM295 216q-21 -6 -34 0.5t-21 19t-12.5 28.5t-9 30.5
t-9.5 24.5t-14 10h-9v-95q0 -9 3.5 -12t19.5 -3v-3h-72v3q16 0 20 3t4 12v219q0 9 -4 11.5t-20 2.5v4q15 0 29.5 1t28.5 1q30 0 51 -16.5t21 -55.5q0 -35 -16 -51.5t-41 -19.5q18 -6 28 -24.5t18.5 -37.5t16.5 -34t22 -15v-3zM213 515q-34 0 -64 -13t-52.5 -35.5
t-35.5 -52.5t-13 -64t13 -63.5t35.5 -52t52.5 -35.5t64 -13t63.5 13t52 35.5t35.5 52t13 63.5t-13 64t-35.5 52.5t-52 35.5t-63.5 13z" />
    <glyph glyph-name="macron" unicode="&#xaf;" horiz-adv-x="833" 
 />
    <glyph glyph-name="degree" unicode="&#xb0;" horiz-adv-x="250" 
d="M235 564q0 -24 -6 -49t-19 -45t-34 -32.5t-51 -12.5t-51 12.5t-34 32.5t-19 45t-6 49t6 48t19 44t34 32.5t51 12.5t51 -12.5t34 -32.5t19 -44t6 -48zM125 441q27 0 36 34.5t9 88.5q0 53 -9 87t-36 34t-35 -34t-8 -87q0 -54 8 -88.5t35 -34.5z" />
    <glyph glyph-name="plusminus" unicode="&#xb1;" horiz-adv-x="212" 
d="M118 62h-24v78h-79v25h79v78h24v-78h79v-25h-79v-78zM15 0v25h182v-25h-182z" />
    <glyph glyph-name="twosuperior" unicode="&#xb2;" horiz-adv-x="361" 
d="M77 608q-9 -18 1 -58q6 -21 18 -46.5t24 -50.5t19.5 -47t3.5 -36t-21 -18.5t-55 5.5l2 10q24 -7 29 13q4 13 1.5 33.5t-7.5 44t-12 48t-12 44.5q-11 42 -0.5 76.5t38.5 54.5q23 16 50.5 20t53.5 -3.5t48 -24.5t34 -43q12 -25 17 -54t5 -58v-14q0 -38 -10.5 -72t-25.5 -68
q-17 -37 -38 -74t-43 -72q-3 -5 -10.5 -16.5t-16 -23.5t-15.5 -22t-10 -13q-4 -5 -11.5 -16t-12.5 -17q-11 -14 -11 -27t11 -13h142q26 0 42.5 13t30.5 53l10 -4l-49 -132h-282l26 28l43 51l22 27q5 6 12.5 17.5t12.5 16.5q4 5 12.5 17.5t12.5 17.5q2 2 5.5 7.5t7.5 11.5
t7.5 11.5t5.5 7.5q3 4 11.5 18t18 30t18 30.5t11.5 19.5l26 54l22 53q6 17 10 41t5 51q-1 35 -16.5 59.5t-38.5 39.5t-50.5 21t-52.5 5t-44 -8t-25 -19z" />
    <glyph glyph-name="threesuperior" unicode="&#xb3;" horiz-adv-x="357" 
d="M342 702l-161 -280q36 -17 63 -42q35 -32 53.5 -74.5t20 -88.5t-13 -90.5t-45.5 -79.5q-27 -30 -66 -42.5t-76 -6.5t-63.5 30t-28.5 65q-2 35 19 78q9 18 16 14q5 -2 6 -11.5t2 -24.5q3 -54 21 -88.5t45 -46t59.5 1t64.5 52.5q27 33 32 68.5t-5 70t-32.5 66t-50.5 56.5
q-17 16 -34.5 25.5t-31.5 9.5l155 268h-195q-26 0 -41.5 -13t-30.5 -53l-9 3l49 133h278z" />
    <glyph glyph-name="acute" unicode="&#xb4;" horiz-adv-x="130" 
d="M66 750h49l-76 -125h-24z" />
    <glyph glyph-name="mu" unicode="&#xb5;" horiz-adv-x="282" 
d="M15 -116v550h51v-320q0 -21 2 -40.5t11.5 -28t28 -1t51.5 40.5v349h50v-371q0 -50 43 -23l12 7l3 -7q-15 -11 -34 -25t-35.5 -19.5t-27.5 4t-11 47.5v24q-31 -30 -51.5 -49t-35.5 -23t-26 8.5t-21 44.5v-168h-10z" />
    <glyph glyph-name="paragraph" unicode="&#xb6;" horiz-adv-x="396" 
d="M217 425h-16q-48 0 -83.5 14t-58 38t-33.5 55.5t-11 66.5q0 36 11 68.5t33.5 57t58 39t83.5 14.5h180v-12h-50v-843h-13v843h-88v-843h-13v502z" />
    <glyph glyph-name="periodcentered" unicode="&#xb7;" horiz-adv-x="125" 
d="M63 264q-20 0 -34 13.5t-14 33.5t14 34t34 14t33.5 -14t13.5 -34t-13.5 -33.5t-33.5 -13.5z" />
    <glyph glyph-name="cedilla" unicode="&#xb8;" horiz-adv-x="161" 
d="M116 0l-27 -50q33 -5 45.5 -18.5t10.5 -30.5t-16 -35t-33 -32t-41 -21t-40 -1l4 11q18 0 35 6.5t29 16.5t17.5 22t0.5 24q-6 14 -20.5 16.5t-31.5 2.5l57 96z" />
    <glyph glyph-name="onesuperior" unicode="&#xb9;" horiz-adv-x="234" 
d="M155 699v-649q0 -13 2 -20.5t8.5 -12t19 -6t34.5 -1.5v-10h-197v10q21 0 33.5 1.5t19 6t8.5 12t2 20.5v528q0 10 -2 20t-7.5 14.5t-16 1.5t-27.5 -19l-17 -17v14l81 76l34 33h22z" />
    <glyph glyph-name="ordmasculine" unicode="&#xba;" horiz-adv-x="275" 
d="M260 457q0 -42 -6.5 -86t-21.5 -79.5t-38.5 -58t-56.5 -22.5t-56.5 22.5t-38 58t-21 79.5t-6.5 86q0 43 6.5 87t21 79.5t38 58t56.5 22.5t56.5 -22.5t38.5 -58t21.5 -79.5t6.5 -87zM137 221q15 0 25 19t15 51.5t7 75.5t2 90q0 48 -2 91t-7 75.5t-15 51.5t-25 19
t-24.5 -19t-14.5 -51.5t-7 -75.5t-2 -91q0 -47 2 -90t7 -75.5t14.5 -51.5t24.5 -19z" />
    <glyph glyph-name="guillemotright" unicode="&#xbb;" horiz-adv-x="213" 
d="M73 96l-58 82l6 13l93 -89v-13l-93 -89l-6 13zM157 96l-57 82l5 13l93 -89v-13l-93 -89l-5 13z" />
    <glyph glyph-name="onequarter" unicode="&#xbc;" horiz-adv-x="850" 
d="M155 699v-649q0 -13 2 -20.5t8.5 -12t19 -6t34.5 -1.5v-10h-197v10q21 0 33.5 1.5t19 6t8.5 12t2 20.5v528q0 10 -2 20t-7.5 14.5t-16 1.5t-27.5 -19l-17 -17v14l81 76l34 33h22zM281 0h-24l279 699h24zM757 259v1q26 0 40 13t29 52l9 -3l-23 -63l-26 -70h-66v-139
q0 -13 2 -20.5t8.5 -12t19 -6t34.5 -1.5v-10h-198v10q21 0 34 1.5t19.5 6t8.5 12t2 20.5v139h-211l241 512h40v-442h37zM483 260h167v353z" />
    <glyph glyph-name="onehalf" unicode="&#xbd;" horiz-adv-x="876" 
d="M155 699v-649q0 -13 2 -20.5t8.5 -12t19 -6t34.5 -1.5v-10h-197v10q21 0 33.5 1.5t19 6t8.5 12t2 20.5v528q0 10 -2 20t-7.5 14.5t-16 1.5t-27.5 -19l-17 -17v14l81 76l34 33h22zM288 0h-24l279 699h24zM592 608q-9 -18 1 -58q6 -21 18 -46.5t24 -50.5t19.5 -47t3.5 -36
t-21 -18.5t-55 5.5l2 10q24 -7 29 13q4 13 1.5 33.5t-7.5 44t-12 48t-12 44.5q-11 42 -0.5 76.5t38.5 54.5q23 16 50.5 20t53.5 -3.5t48 -24.5t34 -43q12 -25 17 -54t5 -58v-14q0 -38 -10.5 -72t-25.5 -68q-17 -37 -38 -74t-43 -72q-3 -5 -10.5 -16.5t-16 -23.5t-15.5 -22
t-10 -13q-4 -5 -11.5 -16t-12.5 -17q-11 -14 -11 -27t11 -13h142q26 0 42.5 13t30.5 53l10 -4l-49 -132h-282l26 28l43 51l22 27q5 6 12.5 17.5t12.5 16.5q4 5 12.5 17.5t12.5 17.5q2 2 5.5 7.5t7.5 11.5t7.5 11.5t5.5 7.5q3 4 11.5 18t18 30t18 30.5t11.5 19.5l26 54l22 53
q6 17 10 41t5 51q-1 35 -16.5 59.5t-38.5 39.5t-50.5 21t-52.5 5t-44 -8t-25 -19z" />
    <glyph glyph-name="threequarters" unicode="&#xbe;" horiz-adv-x="874" 
d="M342 702l-161 -280q36 -17 63 -42q35 -32 53.5 -74.5t20 -88.5t-13 -90.5t-45.5 -79.5q-27 -30 -66 -42.5t-76 -6.5t-63.5 30t-28.5 65q-2 35 19 78q9 18 16 14q5 -2 6 -11.5t2 -24.5q3 -54 21 -88.5t45 -46t59.5 1t64.5 52.5q27 33 32 68.5t-5 70t-32.5 66t-50.5 56.5
q-17 16 -34.5 25.5t-31.5 9.5l155 268h-195q-26 0 -41.5 -13t-30.5 -53l-9 3l49 133h278zM322 0h-24l279 699h24zM781 259v1q26 0 40 13t29 52l9 -3l-23 -63l-26 -70h-66v-139q0 -13 2 -20.5t8.5 -12t19 -6t34.5 -1.5v-10h-198v10q21 0 34 1.5t19.5 6t8.5 12t2 20.5v139
h-211l241 512h40v-442h37zM507 260h167v353z" />
    <glyph glyph-name="questiondown" unicode="&#xbf;" horiz-adv-x="297" 
d="M281 128q2 -39 -11 -66t-34.5 -42.5t-49 -19t-55.5 4.5t-53 28t-42 52q-20 37 -20.5 74.5t11 74.5t31.5 74t42 74q15 25 29.5 51t26.5 52.5t19.5 53t7.5 53.5h10q0 -27 -7.5 -54t-19 -53.5t-26 -52t-28.5 -49.5q-22 -37 -29.5 -80.5t-4.5 -86.5t14.5 -83t29 -68.5
t39.5 -43t44 -6.5q35 12 51.5 43t14.5 70q-2 27 -14.5 56.5t-26 58t-23 52.5t-5.5 39q4 14 21 17.5t55 -6.5l-2 -10q-19 5 -24 -9q-4 -14 0.5 -37t10.5 -52q6 -26 11 -54t7 -55zM188 701q14 0 24.5 -10.5t10.5 -24.5q0 -15 -10.5 -25t-24.5 -10t-24.5 10t-10.5 25
q0 14 10.5 24.5t24.5 10.5z" />
    <glyph glyph-name="Agrave" unicode="&#xc0;" horiz-adv-x="484" 
d="M145 10v-10h-130v10q32 0 45 8t18 28l158 655h10l156 -650q3 -13 5.5 -21t9 -12.5t18.5 -6t34 -1.5v-10h-198v10q43 0 54 7t5 32l-43 179h-155l-45 -185q-5 -22 14 -27.5t44 -5.5zM134 238h150l-75 313zM292 825h-24l-76 125h49z" />
    <glyph glyph-name="Aacute" unicode="&#xc1;" horiz-adv-x="484" 
d="M145 10v-10h-130v10q32 0 45 8t18 28l158 655h10l156 -650q3 -13 5.5 -21t9 -12.5t18.5 -6t34 -1.5v-10h-198v10q43 0 54 7t5 32l-43 179h-155l-45 -185q-5 -22 14 -27.5t44 -5.5zM134 238h150l-75 313zM243 950h49l-76 -125h-24z" />
    <glyph glyph-name="Acircumflex" unicode="&#xc2;" horiz-adv-x="484" 
d="M145 10v-10h-130v10q32 0 45 8t18 28l158 655h10l156 -650q3 -13 5.5 -21t9 -12.5t18.5 -6t34 -1.5v-10h-198v10q43 0 54 7t5 32l-43 179h-155l-45 -185q-5 -22 14 -27.5t44 -5.5zM134 238h150l-75 313zM241 873l-52 -53l-8 5l56 86h9l56 -86l-8 -5z" />
    <glyph glyph-name="Atilde" unicode="&#xc3;" horiz-adv-x="484" 
d="M145 10v-10h-130v10q32 0 45 8t18 28l158 655h10l156 -650q3 -13 5.5 -21t9 -12.5t18.5 -6t34 -1.5v-10h-198v10q43 0 54 7t5 32l-43 179h-155l-45 -185q-5 -22 14 -27.5t44 -5.5zM134 238h150l-75 313zM185 887q0 -17 3.5 -24t9.5 -7t15 5t20 12q11 8 22.5 14.5
t21.5 6.5q14 0 22 -15t8 -54h-7q0 19 -3.5 26.5t-9.5 7.5q-8 0 -19 -7.5t-23 -15.5t-24 -13.5t-22 -2.5t-16 18t-6 49h8z" />
    <glyph glyph-name="Adieresis" unicode="&#xc4;" horiz-adv-x="484" 
d="M145 10v-10h-130v10q32 0 45 8t18 28l158 655h10l156 -650q3 -13 5.5 -21t9 -12.5t18.5 -6t34 -1.5v-10h-198v10q43 0 54 7t5 32l-43 179h-155l-45 -185q-5 -22 14 -27.5t44 -5.5zM134 238h150l-75 313zM142 803q-20 0 -34 13.5t-14 33.5t14 34t34 14t33.5 -14t13.5 -34
t-13.5 -33.5t-33.5 -13.5zM342 803q-20 0 -34 13.5t-14 33.5t14 34t34 14t33.5 -14t13.5 -34t-13.5 -33.5t-33.5 -13.5z" />
    <glyph glyph-name="Aring" unicode="&#xc5;" horiz-adv-x="484" 
d="M145 10v-10h-130v10q32 0 45 8t18 28l158 655h10l156 -650q3 -13 5.5 -21t9 -12.5t18.5 -6t34 -1.5v-10h-198v10q43 0 54 7t5 32l-43 179h-155l-45 -185q-5 -22 14 -27.5t44 -5.5zM134 238h150l-75 313zM291 840q0 -22 -11 -42t-38 -20t-38 20t-11 42q0 21 11 41t38 20
t38 -20t11 -41zM242 785q12 0 16 15.5t4 39.5q0 23 -4 38.5t-16 15.5t-15.5 -15.5t-3.5 -38.5q0 -24 3.5 -39.5t15.5 -15.5z" />
    <glyph glyph-name="AE" unicode="&#xc6;" horiz-adv-x="515" 
d="M236 235h-102l-47 -193q-2 -11 2 -17t12.5 -9.5t20 -4.5t23.5 -1v-10h-130v10q32 0 45 8t18 28l152 633q-5 8 -18.5 10t-39.5 2v10h328v-207h-10q0 63 -8 101t-21.5 59t-31 28.5t-37.5 8.5h-86v-300h10q26 0 42 6.5t25 23t12 45.5t3 74h10v-308h-10q0 45 -3 74t-12 45.5
t-25 23t-42 6.5h-10v-371h86q20 1 37.5 8.5t31 28.5t21.5 59t8 101h10v-207h-328v10q21 0 34 1.5t19.5 6t8.5 12t2 20.5v185zM136 245h100v413z" />
    <glyph glyph-name="Ccedilla" unicode="&#xc7;" horiz-adv-x="380" 
d="M355 228h10v-228h-10q0 23 -4 30.5t-16 7.5q-6 0 -14.5 -6.5t-20 -15t-26 -15t-33.5 -6.5q-65 0 -108 34t-69.5 86t-37.5 115t-11 121t11 120.5t37.5 114.5t69.5 86t108 34q19 0 33.5 -6.5t26 -14.5t20 -14.5t14.5 -6.5q12 0 16 7t4 30h10v-227h-10q0 28 -6.5 66
t-20 72.5t-35 59t-52.5 24.5q-42 0 -70 -30.5t-45 -79t-24 -110.5t-7 -125t7 -125t24 -111t45 -79.5t70 -30.5q31 0 52.5 24.5t35 59.5t20 73t6.5 66zM188 0l-27 -50q33 -5 45.5 -18.5t10.5 -30.5t-16 -35t-33 -32t-41 -21t-40 -1l4 11q18 0 35 6.5t29 16.5t17.5 22t0.5 24
q-6 14 -20.5 16.5t-31.5 2.5l57 96z" />
    <glyph glyph-name="Egrave" unicode="&#xc8;" horiz-adv-x="357" 
d="M148 381v-371h87q19 1 37 8.5t31 28.5t21 59t8 101h10v-207h-327v10q21 0 33.5 1.5t19 6t8.5 12t2 20.5v601q0 13 -2 20.5t-8.5 12t-19 6t-33.5 1.5v10h327v-207h-10q0 63 -8 101t-21 59t-31 28.5t-37 8.5h-87v-300h11q26 0 42 6.5t24.5 23t11.5 45.5t3 75h10v-309h-10
q0 45 -3 74t-11.5 45.5t-24.5 23t-42 6.5h-11zM228 825h-24l-76 125h49z" />
    <glyph glyph-name="Eacute" unicode="&#xc9;" horiz-adv-x="357" 
d="M148 381v-371h87q19 1 37 8.5t31 28.5t21 59t8 101h10v-207h-327v10q21 0 33.5 1.5t19 6t8.5 12t2 20.5v601q0 13 -2 20.5t-8.5 12t-19 6t-33.5 1.5v10h327v-207h-10q0 63 -8 101t-21 59t-31 28.5t-37 8.5h-87v-300h11q26 0 42 6.5t24.5 23t11.5 45.5t3 75h10v-309h-10
q0 45 -3 74t-11.5 45.5t-24.5 23t-42 6.5h-11zM179 950h49l-76 -125h-24z" />
    <glyph glyph-name="Ecircumflex" unicode="&#xca;" horiz-adv-x="357" 
d="M148 381v-371h87q19 1 37 8.5t31 28.5t21 59t8 101h10v-207h-327v10q21 0 33.5 1.5t19 6t8.5 12t2 20.5v601q0 13 -2 20.5t-8.5 12t-19 6t-33.5 1.5v10h327v-207h-10q0 63 -8 101t-21 59t-31 28.5t-37 8.5h-87v-300h11q26 0 42 6.5t24.5 23t11.5 45.5t3 75h10v-309h-10
q0 45 -3 74t-11.5 45.5t-24.5 23t-42 6.5h-11zM178 873l-52 -53l-8 5l56 86h9l56 -86l-8 -5z" />
    <glyph glyph-name="Edieresis" unicode="&#xcb;" horiz-adv-x="357" 
d="M148 381v-371h87q19 1 37 8.5t31 28.5t21 59t8 101h10v-207h-327v10q21 0 33.5 1.5t19 6t8.5 12t2 20.5v601q0 13 -2 20.5t-8.5 12t-19 6t-33.5 1.5v10h327v-207h-10q0 63 -8 101t-21 59t-31 28.5t-37 8.5h-87v-300h11q26 0 42 6.5t24.5 23t11.5 45.5t3 75h10v-309h-10
q0 45 -3 74t-11.5 45.5t-24.5 23t-42 6.5h-11zM79 803q-20 0 -34 13.5t-14 33.5t14 34t34 14t33.5 -14t13.5 -34t-13.5 -33.5t-33.5 -13.5zM279 803q-20 0 -34 13.5t-14 33.5t14 34t34 14t33.5 -14t13.5 -34t-13.5 -33.5t-33.5 -13.5z" />
    <glyph glyph-name="Igrave" unicode="&#xcc;" horiz-adv-x="227" 
d="M15 701h197v-10q-21 0 -33.5 -1.5t-19 -6t-8.5 -12t-2 -20.5v-601q0 -13 2 -20.5t8.5 -12t19 -6t33.5 -1.5v-10h-197v10q21 0 33.5 1.5t19 6t8.5 12t2 20.5v601q0 13 -2 20.5t-8.5 12t-19 6t-33.5 1.5v10zM163 825h-24l-76 125h49z" />
    <glyph glyph-name="Iacute" unicode="&#xcd;" horiz-adv-x="227" 
d="M15 701h197v-10q-21 0 -33.5 -1.5t-19 -6t-8.5 -12t-2 -20.5v-601q0 -13 2 -20.5t8.5 -12t19 -6t33.5 -1.5v-10h-197v10q21 0 33.5 1.5t19 6t8.5 12t2 20.5v601q0 13 -2 20.5t-8.5 12t-19 6t-33.5 1.5v10zM114 950h49l-76 -125h-24z" />
    <glyph glyph-name="Icircumflex" unicode="&#xce;" horiz-adv-x="227" 
d="M15 701h197v-10q-21 0 -33.5 -1.5t-19 -6t-8.5 -12t-2 -20.5v-601q0 -13 2 -20.5t8.5 -12t19 -6t33.5 -1.5v-10h-197v10q21 0 33.5 1.5t19 6t8.5 12t2 20.5v601q0 13 -2 20.5t-8.5 12t-19 6t-33.5 1.5v10zM113 873l-52 -53l-8 5l56 86h9l56 -86l-8 -5z" />
    <glyph glyph-name="Idieresis" unicode="&#xcf;" horiz-adv-x="227" 
d="M15 701h197v-10q-21 0 -33.5 -1.5t-19 -6t-8.5 -12t-2 -20.5v-601q0 -13 2 -20.5t8.5 -12t19 -6t33.5 -1.5v-10h-197v10q21 0 33.5 1.5t19 6t8.5 12t2 20.5v601q0 13 -2 20.5t-8.5 12t-19 6t-33.5 1.5v10zM14 803q-20 0 -34 13.5t-14 33.5t14 34t34 14t33.5 -14t13.5 -34
t-13.5 -33.5t-33.5 -13.5zM214 803q-20 0 -34 13.5t-14 33.5t14 34t34 14t33.5 -14t13.5 -34t-13.5 -33.5t-33.5 -13.5z" />
    <glyph glyph-name="Eth" unicode="&#xd0;" horiz-adv-x="391" 
d="M375 345q0 -34 -2.5 -73t-10 -78t-21 -75t-36 -63.5t-55 -44t-77.5 -16.5q-40 0 -79 2.5t-79 2.5v10q21 0 33.5 1.5t19.5 6t9 12t2 20.5v601q0 13 -2 20.5t-9 12t-19.5 6t-33.5 1.5v10q40 0 79 2.5t79 2.5q46 0 79 -17t55.5 -46t36 -66t20.5 -77.5t9 -80.5t2 -74z
M300 344q0 22 -1 56.5t-5.5 73.5t-12.5 78.5t-22 71.5t-35 52t-51 20h-24v-691h24q29 0 49.5 19t34.5 49.5t22.5 68.5t13 76t6 71t1.5 55zM202 339v-25h-181v25h181z" />
    <glyph glyph-name="Ntilde" unicode="&#xd1;" horiz-adv-x="441" 
d="M78 640q-5 13 -10 22.5t-12 16t-16.5 9.5t-24.5 3v10h114l223 -522v472q0 13 -2 20.5t-8.5 12t-19 6t-33.5 1.5v10h137v-10q-22 0 -34.5 -1.5t-19 -6t-8.5 -12t-2 -20.5v-651h-10l-264 617v-567q0 -13 2 -20.5t8.5 -12t19 -6t34.5 -1.5v-10h-137v10q21 0 33.5 1.5t19 6
t8.5 12t2 20.5v590zM163 887q0 -17 3.5 -24t9.5 -7t15 5t20 12q11 8 22.5 14.5t21.5 6.5q14 0 22 -15t8 -54h-7q0 19 -3.5 26.5t-9.5 7.5q-8 0 -19 -7.5t-23 -15.5t-24 -13.5t-22 -2.5t-16 18t-6 49h8z" />
    <glyph glyph-name="Ograve" unicode="&#xd2;" horiz-adv-x="443" 
d="M221 -5q-57 0 -96.5 34t-63.5 86t-35 115t-11 121t11 120.5t35 114.5t63.5 86t96.5 34t96.5 -34t64 -86t35.5 -114.5t11 -120.5t-11 -121t-35.5 -115t-64 -86t-96.5 -34zM347 351q0 26 -2 62t-7.5 74t-15 75.5t-23.5 67t-33 48t-45 18.5t-45 -18.5t-33 -48t-23.5 -67
t-14.5 -75.5t-7.5 -74t-2.5 -62q0 -27 2.5 -62.5t7.5 -74t14.5 -76t23.5 -67t33 -48t45 -18.5t45 18.5t33 48t23.5 67t15 76t7.5 74t2 62.5zM271 825h-24l-76 125h49z" />
    <glyph glyph-name="Oacute" unicode="&#xd3;" horiz-adv-x="443" 
d="M221 -5q-57 0 -96.5 34t-63.5 86t-35 115t-11 121t11 120.5t35 114.5t63.5 86t96.5 34t96.5 -34t64 -86t35.5 -114.5t11 -120.5t-11 -121t-35.5 -115t-64 -86t-96.5 -34zM347 351q0 26 -2 62t-7.5 74t-15 75.5t-23.5 67t-33 48t-45 18.5t-45 -18.5t-33 -48t-23.5 -67
t-14.5 -75.5t-7.5 -74t-2.5 -62q0 -27 2.5 -62.5t7.5 -74t14.5 -76t23.5 -67t33 -48t45 -18.5t45 18.5t33 48t23.5 67t15 76t7.5 74t2 62.5zM222 950h49l-76 -125h-24z" />
    <glyph glyph-name="Ocircumflex" unicode="&#xd4;" horiz-adv-x="443" 
d="M221 -5q-57 0 -96.5 34t-63.5 86t-35 115t-11 121t11 120.5t35 114.5t63.5 86t96.5 34t96.5 -34t64 -86t35.5 -114.5t11 -120.5t-11 -121t-35.5 -115t-64 -86t-96.5 -34zM347 351q0 26 -2 62t-7.5 74t-15 75.5t-23.5 67t-33 48t-45 18.5t-45 -18.5t-33 -48t-23.5 -67
t-14.5 -75.5t-7.5 -74t-2.5 -62q0 -27 2.5 -62.5t7.5 -74t14.5 -76t23.5 -67t33 -48t45 -18.5t45 18.5t33 48t23.5 67t15 76t7.5 74t2 62.5zM221 873l-52 -53l-8 5l56 86h9l56 -86l-8 -5z" />
    <glyph glyph-name="Otilde" unicode="&#xd5;" horiz-adv-x="443" 
d="M221 -5q-57 0 -96.5 34t-63.5 86t-35 115t-11 121t11 120.5t35 114.5t63.5 86t96.5 34t96.5 -34t64 -86t35.5 -114.5t11 -120.5t-11 -121t-35.5 -115t-64 -86t-96.5 -34zM347 351q0 26 -2 62t-7.5 74t-15 75.5t-23.5 67t-33 48t-45 18.5t-45 -18.5t-33 -48t-23.5 -67
t-14.5 -75.5t-7.5 -74t-2.5 -62q0 -27 2.5 -62.5t7.5 -74t14.5 -76t23.5 -67t33 -48t45 -18.5t45 18.5t33 48t23.5 67t15 76t7.5 74t2 62.5zM164 887q0 -17 3.5 -24t9.5 -7t15 5t20 12q11 8 22.5 14.5t21.5 6.5q14 0 22 -15t8 -54h-7q0 19 -3.5 26.5t-9.5 7.5q-8 0 -19 -7.5
t-23 -15.5t-24 -13.5t-22 -2.5t-16 18t-6 49h8z" />
    <glyph glyph-name="Odieresis" unicode="&#xd6;" horiz-adv-x="443" 
d="M221 -5q-57 0 -96.5 34t-63.5 86t-35 115t-11 121t11 120.5t35 114.5t63.5 86t96.5 34t96.5 -34t64 -86t35.5 -114.5t11 -120.5t-11 -121t-35.5 -115t-64 -86t-96.5 -34zM347 351q0 26 -2 62t-7.5 74t-15 75.5t-23.5 67t-33 48t-45 18.5t-45 -18.5t-33 -48t-23.5 -67
t-14.5 -75.5t-7.5 -74t-2.5 -62q0 -27 2.5 -62.5t7.5 -74t14.5 -76t23.5 -67t33 -48t45 -18.5t45 18.5t33 48t23.5 67t15 76t7.5 74t2 62.5zM122 803q-20 0 -34 13.5t-14 33.5t14 34t34 14t33.5 -14t13.5 -34t-13.5 -33.5t-33.5 -13.5zM322 803q-20 0 -34 13.5t-14 33.5
t14 34t34 14t33.5 -14t13.5 -34t-13.5 -33.5t-33.5 -13.5z" />
    <glyph glyph-name="multiply" unicode="&#xd7;" horiz-adv-x="177" 
d="M33 200l-17 17l55 55l-56 56l18 18l56 -56l55 55l17 -17l-55 -55l56 -56l-18 -18l-56 56z" />
    <glyph glyph-name="Oslash" unicode="&#xd8;" horiz-adv-x="443" 
d="M221 -5q-57 0 -96.5 34t-63.5 86t-35 115t-11 121t11 120.5t35 114.5t63.5 86t96.5 34t96.5 -34t64 -86t35.5 -114.5t11 -120.5t-11 -121t-35.5 -115t-64 -86t-96.5 -34zM347 351q0 26 -2 62t-7.5 74t-15 75.5t-23.5 67t-33 48t-45 18.5t-45 -18.5t-33 -48t-23.5 -67
t-14.5 -75.5t-7.5 -74t-2.5 -62q0 -27 2.5 -62.5t7.5 -74t14.5 -76t23.5 -67t33 -48t45 -18.5t45 18.5t33 48t23.5 67t15 76t7.5 74t2 62.5zM94 0h-24l279 699h24z" />
    <glyph glyph-name="Ugrave" unicode="&#xd9;" horiz-adv-x="424" 
d="M149 231v-59.5t7.5 -71t25.5 -59t53 -24.5q30 0 49 21t30.5 53t16 69.5t4.5 70.5v419q0 13 -2 20.5t-8.5 12t-19 6t-33.5 1.5v10h137v-10q-22 0 -34.5 -1.5t-19 -6t-8.5 -12t-2 -20.5v-419q0 -37 -5.5 -78.5t-19.5 -77t-39 -58.5t-65 -23q-43 0 -70 21t-42 54.5t-20 76
t-5 85.5v419q0 13 -2 20.5t-8.5 12t-19.5 6t-34 1.5v10h198v-10q-22 0 -34.5 -1.5t-19 -6t-8.5 -12t-2 -20.5v-419zM262 825h-24l-76 125h49z" />
    <glyph glyph-name="Uacute" unicode="&#xda;" horiz-adv-x="424" 
d="M149 231v-59.5t7.5 -71t25.5 -59t53 -24.5q30 0 49 21t30.5 53t16 69.5t4.5 70.5v419q0 13 -2 20.5t-8.5 12t-19 6t-33.5 1.5v10h137v-10q-22 0 -34.5 -1.5t-19 -6t-8.5 -12t-2 -20.5v-419q0 -37 -5.5 -78.5t-19.5 -77t-39 -58.5t-65 -23q-43 0 -70 21t-42 54.5t-20 76
t-5 85.5v419q0 13 -2 20.5t-8.5 12t-19.5 6t-34 1.5v10h198v-10q-22 0 -34.5 -1.5t-19 -6t-8.5 -12t-2 -20.5v-419zM213 950h49l-76 -125h-24z" />
    <glyph glyph-name="Ucircumflex" unicode="&#xdb;" horiz-adv-x="424" 
d="M149 231v-59.5t7.5 -71t25.5 -59t53 -24.5q30 0 49 21t30.5 53t16 69.5t4.5 70.5v419q0 13 -2 20.5t-8.5 12t-19 6t-33.5 1.5v10h137v-10q-22 0 -34.5 -1.5t-19 -6t-8.5 -12t-2 -20.5v-419q0 -37 -5.5 -78.5t-19.5 -77t-39 -58.5t-65 -23q-43 0 -70 21t-42 54.5t-20 76
t-5 85.5v419q0 13 -2 20.5t-8.5 12t-19.5 6t-34 1.5v10h198v-10q-22 0 -34.5 -1.5t-19 -6t-8.5 -12t-2 -20.5v-419zM211 873l-52 -53l-8 5l56 86h9l56 -86l-8 -5z" />
    <glyph glyph-name="Udieresis" unicode="&#xdc;" horiz-adv-x="424" 
d="M149 231v-59.5t7.5 -71t25.5 -59t53 -24.5q30 0 49 21t30.5 53t16 69.5t4.5 70.5v419q0 13 -2 20.5t-8.5 12t-19 6t-33.5 1.5v10h137v-10q-22 0 -34.5 -1.5t-19 -6t-8.5 -12t-2 -20.5v-419q0 -37 -5.5 -78.5t-19.5 -77t-39 -58.5t-65 -23q-43 0 -70 21t-42 54.5t-20 76
t-5 85.5v419q0 13 -2 20.5t-8.5 12t-19.5 6t-34 1.5v10h198v-10q-22 0 -34.5 -1.5t-19 -6t-8.5 -12t-2 -20.5v-419zM112 803q-20 0 -34 13.5t-14 33.5t14 34t34 14t33.5 -14t13.5 -34t-13.5 -33.5t-33.5 -13.5zM312 803q-20 0 -34 13.5t-14 33.5t14 34t34 14t33.5 -14
t13.5 -34t-13.5 -33.5t-33.5 -13.5z" />
    <glyph glyph-name="Yacute" unicode="&#xdd;" horiz-adv-x="462" 
d="M264 280v-230q0 -13 2 -20.5t8.5 -12t19 -6t33.5 -1.5v-10h-197v10q21 0 33.5 1.5t19 6t8.5 12t2 20.5v225l-109 371q-8 28 -20 36.5t-49 8.5v10h197v-10h-3q-21 0 -33 -0.5t-18 -4.5t-6 -12.5t4 -23.5l103 -350l104 352q4 13 4.5 21t-5.5 12t-18.5 5t-33.5 1v10h137v-10
q-22 0 -34.5 -1t-20 -5.5t-11.5 -13t-8 -22.5zM232 950h49l-76 -125h-24z" />
    <glyph glyph-name="germandbls" unicode="&#xdf;" horiz-adv-x="386" 
d="M227 386q31 -6 57.5 -20.5t45.5 -38t30 -56.5t11 -78q0 -54 -15.5 -90.5t-42.5 -59.5t-63.5 -33t-77.5 -10v10q63 0 91 43.5t28 139.5q0 97 -28 142.5t-91 45.5v10q53 0 73 39.5t20 112.5q0 13 -1 24t-1 22q0 25 -9.5 48.5t-23.5 39.5t-30 19.5t-29.5 -10.5t-21.5 -50.5
t-5 -101.5q1 -37 3 -74t2 -69v-391h-134v10q21 0 33.5 1.5t19 6t8.5 12t2 20.5v344q0 32 0.5 70t4.5 76q6 67 26 105t46.5 53.5t57 12t57 -20.5t46 -44t25.5 -57q4 -19 4 -46q0 -71 -30.5 -108.5t-87.5 -48.5z" />
    <glyph glyph-name="agrave" unicode="&#xe0;" horiz-adv-x="303" 
d="M105 454q-22 -22 -24.5 -41t11.5 -43q6 -10 9 -20t2.5 -19t-5.5 -16t-17 -10q-19 -5 -31 4.5t-18 24.5t-6.5 30t3.5 22q6 11 23.5 29t45.5 46q27 27 40 27q25 0 43.5 -11t30.5 -27.5t17.5 -37.5t5.5 -40v-247q0 -32 4.5 -41t9.5 -5q7 4 14.5 21t15.5 46l9 -3
q-22 -81 -40 -114.5t-35 -33.5q-18 0 -32 21.5t-16 73.5q-12 -42 -35 -68.5t-48 -26.5q-24 0 -45.5 22.5t-21.5 70.5q0 39 11 68t28 51.5t36 41t36 37t28 39t11 47.5q0 31 -7 50.5t-16.5 28.5t-19.5 9.5t-17 -6.5zM165 321q-8 -20 -20.5 -37t-24.5 -37.5t-20.5 -49
t-8.5 -70.5q0 -50 11.5 -65.5t25.5 -7.5t25.5 36.5t11.5 67.5v163zM201 625h-24l-76 125h49z" />
    <glyph glyph-name="aacute" unicode="&#xe1;" horiz-adv-x="303" 
d="M105 454q-22 -22 -24.5 -41t11.5 -43q6 -10 9 -20t2.5 -19t-5.5 -16t-17 -10q-19 -5 -31 4.5t-18 24.5t-6.5 30t3.5 22q6 11 23.5 29t45.5 46q27 27 40 27q25 0 43.5 -11t30.5 -27.5t17.5 -37.5t5.5 -40v-247q0 -32 4.5 -41t9.5 -5q7 4 14.5 21t15.5 46l9 -3
q-22 -81 -40 -114.5t-35 -33.5q-18 0 -32 21.5t-16 73.5q-12 -42 -35 -68.5t-48 -26.5q-24 0 -45.5 22.5t-21.5 70.5q0 39 11 68t28 51.5t36 41t36 37t28 39t11 47.5q0 31 -7 50.5t-16.5 28.5t-19.5 9.5t-17 -6.5zM165 321q-8 -20 -20.5 -37t-24.5 -37.5t-20.5 -49
t-8.5 -70.5q0 -50 11.5 -65.5t25.5 -7.5t25.5 36.5t11.5 67.5v163zM152 750h49l-76 -125h-24z" />
    <glyph glyph-name="acircumflex" unicode="&#xe2;" horiz-adv-x="303" 
d="M105 454q-22 -22 -24.5 -41t11.5 -43q6 -10 9 -20t2.5 -19t-5.5 -16t-17 -10q-19 -5 -31 4.5t-18 24.5t-6.5 30t3.5 22q6 11 23.5 29t45.5 46q27 27 40 27q25 0 43.5 -11t30.5 -27.5t17.5 -37.5t5.5 -40v-247q0 -32 4.5 -41t9.5 -5q7 4 14.5 21t15.5 46l9 -3
q-22 -81 -40 -114.5t-35 -33.5q-18 0 -32 21.5t-16 73.5q-12 -42 -35 -68.5t-48 -26.5q-24 0 -45.5 22.5t-21.5 70.5q0 39 11 68t28 51.5t36 41t36 37t28 39t11 47.5q0 31 -7 50.5t-16.5 28.5t-19.5 9.5t-17 -6.5zM165 321q-8 -20 -20.5 -37t-24.5 -37.5t-20.5 -49
t-8.5 -70.5q0 -50 11.5 -65.5t25.5 -7.5t25.5 36.5t11.5 67.5v163zM151 673l-52 -53l-8 5l56 86h9l56 -86l-8 -5z" />
    <glyph glyph-name="atilde" unicode="&#xe3;" horiz-adv-x="303" 
d="M105 454q-22 -22 -24.5 -41t11.5 -43q6 -10 9 -20t2.5 -19t-5.5 -16t-17 -10q-19 -5 -31 4.5t-18 24.5t-6.5 30t3.5 22q6 11 23.5 29t45.5 46q27 27 40 27q25 0 43.5 -11t30.5 -27.5t17.5 -37.5t5.5 -40v-247q0 -32 4.5 -41t9.5 -5q7 4 14.5 21t15.5 46l9 -3
q-22 -81 -40 -114.5t-35 -33.5q-18 0 -32 21.5t-16 73.5q-12 -42 -35 -68.5t-48 -26.5q-24 0 -45.5 22.5t-21.5 70.5q0 39 11 68t28 51.5t36 41t36 37t28 39t11 47.5q0 31 -7 50.5t-16.5 28.5t-19.5 9.5t-17 -6.5zM165 321q-8 -20 -20.5 -37t-24.5 -37.5t-20.5 -49
t-8.5 -70.5q0 -50 11.5 -65.5t25.5 -7.5t25.5 36.5t11.5 67.5v163zM94 687q0 -17 3.5 -24t9.5 -7t15 5t20 12q11 8 22.5 14.5t21.5 6.5q14 0 22 -15t8 -54h-7q0 19 -3.5 26.5t-9.5 7.5q-8 0 -19 -7.5t-23 -15.5t-24 -13.5t-22 -2.5t-16 18t-6 49h8z" />
    <glyph glyph-name="adieresis" unicode="&#xe4;" horiz-adv-x="303" 
d="M105 454q-22 -22 -24.5 -41t11.5 -43q6 -10 9 -20t2.5 -19t-5.5 -16t-17 -10q-19 -5 -31 4.5t-18 24.5t-6.5 30t3.5 22q6 11 23.5 29t45.5 46q27 27 40 27q25 0 43.5 -11t30.5 -27.5t17.5 -37.5t5.5 -40v-247q0 -32 4.5 -41t9.5 -5q7 4 14.5 21t15.5 46l9 -3
q-22 -81 -40 -114.5t-35 -33.5q-18 0 -32 21.5t-16 73.5q-12 -42 -35 -68.5t-48 -26.5q-24 0 -45.5 22.5t-21.5 70.5q0 39 11 68t28 51.5t36 41t36 37t28 39t11 47.5q0 31 -7 50.5t-16.5 28.5t-19.5 9.5t-17 -6.5zM165 321q-8 -20 -20.5 -37t-24.5 -37.5t-20.5 -49
t-8.5 -70.5q0 -50 11.5 -65.5t25.5 -7.5t25.5 36.5t11.5 67.5v163zM52 603q-20 0 -34 13.5t-14 33.5t14 34t34 14t33.5 -14t13.5 -34t-13.5 -33.5t-33.5 -13.5zM252 603q-20 0 -34 13.5t-14 33.5t14 34t34 14t33.5 -14t13.5 -34t-13.5 -33.5t-33.5 -13.5z" />
    <glyph glyph-name="aring" unicode="&#xe5;" horiz-adv-x="303" 
d="M105 454q-22 -22 -24.5 -41t11.5 -43q6 -10 9 -20t2.5 -19t-5.5 -16t-17 -10q-19 -5 -31 4.5t-18 24.5t-6.5 30t3.5 22q6 11 23.5 29t45.5 46q27 27 40 27q25 0 43.5 -11t30.5 -27.5t17.5 -37.5t5.5 -40v-247q0 -32 4.5 -41t9.5 -5q7 4 14.5 21t15.5 46l9 -3
q-22 -81 -40 -114.5t-35 -33.5q-18 0 -32 21.5t-16 73.5q-12 -42 -35 -68.5t-48 -26.5q-24 0 -45.5 22.5t-21.5 70.5q0 39 11 68t28 51.5t36 41t36 37t28 39t11 47.5q0 31 -7 50.5t-16.5 28.5t-19.5 9.5t-17 -6.5zM165 321q-8 -20 -20.5 -37t-24.5 -37.5t-20.5 -49
t-8.5 -70.5q0 -50 11.5 -65.5t25.5 -7.5t25.5 36.5t11.5 67.5v163zM200 640q0 -22 -11 -42t-38 -20t-38 20t-11 42q0 21 11 41t38 20t38 -20t11 -41zM151 585q12 0 16 15.5t4 39.5q0 23 -4 38.5t-16 15.5t-15.5 -15.5t-3.5 -38.5q0 -24 3.5 -39.5t15.5 -15.5z" />
    <glyph glyph-name="ae" unicode="&#xe6;" horiz-adv-x="406" 
d="M175 153q-2 -31 -10.5 -58.5t-21 -48.5t-29 -33.5t-32.5 -12.5q-24 0 -45.5 22.5t-21.5 70.5q0 38 10.5 66.5t27 51t35.5 40.5t35.5 36t28 37.5t13.5 44.5v7q0 31 -7 50.5t-16.5 28.5t-19.5 9t-17 -6q-22 -23 -24.5 -41.5t11.5 -42.5q6 -10 9 -20t2.5 -19t-5.5 -16
t-17 -10q-19 -5 -31 4.5t-18 24t-6.5 30t3.5 21.5q6 11 23.5 29t45.5 47q27 27 40 27q29 0 49 -14t31 -34q14 22 32 35t39 13q43 0 71 -47.5t28 -125.5l-142 -142q4 -28 10 -52t14.5 -42t18.5 -28t22 -10q17 0 29 11.5t20 28t13 34.5t8 32l10 -3q-8 -41 -22 -74
q-12 -28 -32 -51t-51 -23q-23 0 -41.5 12t-32.5 32.5t-23.5 48.5t-13.5 60zM325 269q0 36 -0.5 74t-3.5 69t-10.5 50.5t-21.5 19.5q-17 0 -28.5 -28t-17 -70.5t-5 -94t6.5 -99.5zM165 163v162q-8 -20 -20.5 -37t-24.5 -37.5t-20.5 -49t-8.5 -70.5q0 -49 11.5 -65t25.5 -7.5
t25.5 37t11.5 67.5z" />
    <glyph glyph-name="ccedilla" unicode="&#xe7;" horiz-adv-x="259" 
d="M151 478q-25 0 -40 -32.5t-21 -81t-3.5 -105.5t12.5 -105.5t26.5 -81t38.5 -32.5q17 0 28.5 11.5t20 28t13.5 34.5t8 32l10 -3q-8 -41 -22 -74q-12 -28 -32.5 -51t-50.5 -23q-42 0 -70 36.5t-41.5 91.5t-12 118.5t17 118.5t45 91.5t73.5 36.5q37 0 56.5 -22.5t24 -49.5
t-5.5 -49.5t-33 -22.5q-24 0 -29 18t1 41q9 34 6 54.5t-20 20.5zM127 0l-27 -50q33 -5 45.5 -18.5t10.5 -30.5t-16 -35t-33 -32t-41 -21t-40 -1l4 11q18 0 35 6.5t29 16.5t17.5 22t0.5 24q-6 14 -20.5 16.5t-31.5 2.5l57 96z" />
    <glyph glyph-name="egrave" unicode="&#xe8;" horiz-adv-x="253" 
d="M235 315l-142 -142q4 -28 10 -52.5t14.5 -42.5t18.5 -28t22 -10q17 0 29 11.5t20 28t13 34.5t9 32l9 -3q-8 -41 -22 -74q-12 -28 -32 -51t-51 -23q-42 0 -68.5 36.5t-38.5 91.5t-10 118.5t16.5 118.5t40.5 91.5t63 36.5q43 0 71 -47.5t28 -125.5zM92 185l80 80
q0 36 -0.5 74t-3.5 69t-10.5 50.5t-21.5 19.5q-17 0 -28.5 -28t-17 -70.5t-5 -94.5t6.5 -100zM176 625h-24l-76 125h49z" />
    <glyph glyph-name="eacute" unicode="&#xe9;" horiz-adv-x="253" 
d="M235 315l-142 -142q4 -28 10 -52.5t14.5 -42.5t18.5 -28t22 -10q17 0 29 11.5t20 28t13 34.5t9 32l9 -3q-8 -41 -22 -74q-12 -28 -32 -51t-51 -23q-42 0 -68.5 36.5t-38.5 91.5t-10 118.5t16.5 118.5t40.5 91.5t63 36.5q43 0 71 -47.5t28 -125.5zM92 185l80 80
q0 36 -0.5 74t-3.5 69t-10.5 50.5t-21.5 19.5q-17 0 -28.5 -28t-17 -70.5t-5 -94.5t6.5 -100zM127 750h49l-76 -125h-24z" />
    <glyph glyph-name="ecircumflex" unicode="&#xea;" horiz-adv-x="253" 
d="M235 315l-142 -142q4 -28 10 -52.5t14.5 -42.5t18.5 -28t22 -10q17 0 29 11.5t20 28t13 34.5t9 32l9 -3q-8 -41 -22 -74q-12 -28 -32 -51t-51 -23q-42 0 -68.5 36.5t-38.5 91.5t-10 118.5t16.5 118.5t40.5 91.5t63 36.5q43 0 71 -47.5t28 -125.5zM92 185l80 80
q0 36 -0.5 74t-3.5 69t-10.5 50.5t-21.5 19.5q-17 0 -28.5 -28t-17 -70.5t-5 -94.5t6.5 -100zM126 673l-52 -53l-8 5l56 86h9l56 -86l-8 -5z" />
    <glyph glyph-name="edieresis" unicode="&#xeb;" horiz-adv-x="253" 
d="M235 315l-142 -142q4 -28 10 -52.5t14.5 -42.5t18.5 -28t22 -10q17 0 29 11.5t20 28t13 34.5t9 32l9 -3q-8 -41 -22 -74q-12 -28 -32 -51t-51 -23q-42 0 -68.5 36.5t-38.5 91.5t-10 118.5t16.5 118.5t40.5 91.5t63 36.5q43 0 71 -47.5t28 -125.5zM92 185l80 80
q0 36 -0.5 74t-3.5 69t-10.5 50.5t-21.5 19.5q-17 0 -28.5 -28t-17 -70.5t-5 -94.5t6.5 -100zM27 603q-20 0 -34 13.5t-14 33.5t14 34t34 14t33.5 -14t13.5 -34t-13.5 -33.5t-33.5 -13.5zM227 603q-20 0 -34 13.5t-14 33.5t14 34t34 14t33.5 -14t13.5 -34t-13.5 -33.5
t-33.5 -13.5z" />
    <glyph glyph-name="igrave" unicode="&#xec;" horiz-adv-x="206" 
d="M139 483v-433q0 -12 1.5 -20t7 -12.5t16 -6t27.5 -1.5v-10h-176v10q35 0 44 8t9 32v363q0 24 -8 31.5t-42 -1.5l-3 10l114 30h10zM153 625h-24l-76 125h49z" />
    <glyph glyph-name="iacute" unicode="&#xed;" horiz-adv-x="206" 
d="M139 483v-433q0 -12 1.5 -20t7 -12.5t16 -6t27.5 -1.5v-10h-176v10q35 0 44 8t9 32v363q0 24 -8 31.5t-42 -1.5l-3 10l114 30h10zM104 750h49l-76 -125h-24z" />
    <glyph glyph-name="icircumflex" unicode="&#xee;" horiz-adv-x="206" 
d="M139 483v-433q0 -12 1.5 -20t7 -12.5t16 -6t27.5 -1.5v-10h-176v10q35 0 44 8t9 32v363q0 24 -8 31.5t-42 -1.5l-3 10l114 30h10zM102 673l-52 -53l-8 5l56 86h9l56 -86l-8 -5z" />
    <glyph glyph-name="idieresis" unicode="&#xef;" horiz-adv-x="206" 
d="M139 483v-433q0 -12 1.5 -20t7 -12.5t16 -6t27.5 -1.5v-10h-176v10q35 0 44 8t9 32v363q0 24 -8 31.5t-42 -1.5l-3 10l114 30h10zM4 603q-20 0 -34 13.5t-14 33.5t14 34t34 14t33.5 -14t13.5 -34t-13.5 -33.5t-33.5 -13.5zM204 603q-20 0 -34 13.5t-14 33.5t14 34t34 14
t33.5 -14t13.5 -34t-13.5 -33.5t-33.5 -13.5z" />
    <glyph glyph-name="eth" unicode="&#xf0;" horiz-adv-x="318" 
d="M226 301q-12 -14 -27 -25t-31 -17t-33 -5t-35 11q-35 20 -55 60.5t-26.5 89.5t-0.5 100t23.5 93t45.5 68t65 25q54 -1 89 -44.5t50 -112.5q11 -51 11.5 -111t-10.5 -120.5t-33.5 -117t-56.5 -100t-80 -70t-104 -26.5v10q49 0 85 26t61 68t40 94t22 104zM175 273
q15 8 26 18q14 12 27 29q2 20 3.5 41t1.5 41q1 35 -0.5 69.5t-6.5 65.5q-10 68 -29.5 111t-46.5 43q-15 0 -27 -20.5t-20.5 -53.5t-13 -74.5t-4 -84t5.5 -81t16 -65.5t28 -39t40 0z" />
    <glyph glyph-name="ntilde" unicode="&#xf1;" horiz-adv-x="389" 
d="M321 50q0 -24 9 -32t44 -8v-10h-176v10q34 0 43.5 8t9.5 32v319q0 44 -20 61.5t-41 12.5q-12 -4 -25 -23t-27 -44v-326q0 -24 9 -32t44 -8v-10h-176v10q34 0 43 8t9 32v363q0 24 -8 31.5t-42 -1.5l-2 10l113 30h10v-86q9 18 19.5 34t21 29t20 20.5t17.5 7.5q20 0 39 -5
t33.5 -18.5t23.5 -36.5t9 -59v-319zM137 687q0 -17 3.5 -24t9.5 -7t15 5t20 12q11 8 22.5 14.5t21.5 6.5q14 0 22 -15t8 -54h-7q0 19 -3.5 26.5t-9.5 7.5q-8 0 -19 -7.5t-23 -15.5t-24 -13.5t-22 -2.5t-16 18t-6 49h8z" />
    <glyph glyph-name="ograve" unicode="&#xf2;" horiz-adv-x="275" 
d="M260 241q0 -42 -6.5 -86t-21.5 -79.5t-38.5 -58t-56.5 -22.5t-56.5 22.5t-38 58t-21 79.5t-6.5 86q0 43 6.5 87t21 79.5t38 58t56.5 22.5t56.5 -22.5t38.5 -58t21.5 -79.5t6.5 -87zM137 5q15 0 25 19t15 51.5t7 75.5t2 90q0 48 -2 91t-7 75.5t-15 51.5t-25 19t-24.5 -19
t-14.5 -51.5t-7 -75.5t-2 -91q0 -47 2 -90t7 -75.5t14.5 -51.5t24.5 -19zM187 625h-24l-76 125h49z" />
    <glyph glyph-name="oacute" unicode="&#xf3;" horiz-adv-x="275" 
d="M260 241q0 -42 -6.5 -86t-21.5 -79.5t-38.5 -58t-56.5 -22.5t-56.5 22.5t-38 58t-21 79.5t-6.5 86q0 43 6.5 87t21 79.5t38 58t56.5 22.5t56.5 -22.5t38.5 -58t21.5 -79.5t6.5 -87zM137 5q15 0 25 19t15 51.5t7 75.5t2 90q0 48 -2 91t-7 75.5t-15 51.5t-25 19t-24.5 -19
t-14.5 -51.5t-7 -75.5t-2 -91q0 -47 2 -90t7 -75.5t14.5 -51.5t24.5 -19zM138 750h49l-76 -125h-24z" />
    <glyph glyph-name="ocircumflex" unicode="&#xf4;" horiz-adv-x="275" 
d="M260 241q0 -42 -6.5 -86t-21.5 -79.5t-38.5 -58t-56.5 -22.5t-56.5 22.5t-38 58t-21 79.5t-6.5 86q0 43 6.5 87t21 79.5t38 58t56.5 22.5t56.5 -22.5t38.5 -58t21.5 -79.5t6.5 -87zM137 5q15 0 25 19t15 51.5t7 75.5t2 90q0 48 -2 91t-7 75.5t-15 51.5t-25 19t-24.5 -19
t-14.5 -51.5t-7 -75.5t-2 -91q0 -47 2 -90t7 -75.5t14.5 -51.5t24.5 -19zM137 673l-52 -53l-8 5l56 86h9l56 -86l-8 -5z" />
    <glyph glyph-name="otilde" unicode="&#xf5;" horiz-adv-x="275" 
d="M260 241q0 -42 -6.5 -86t-21.5 -79.5t-38.5 -58t-56.5 -22.5t-56.5 22.5t-38 58t-21 79.5t-6.5 86q0 43 6.5 87t21 79.5t38 58t56.5 22.5t56.5 -22.5t38.5 -58t21.5 -79.5t6.5 -87zM137 5q15 0 25 19t15 51.5t7 75.5t2 90q0 48 -2 91t-7 75.5t-15 51.5t-25 19t-24.5 -19
t-14.5 -51.5t-7 -75.5t-2 -91q0 -47 2 -90t7 -75.5t14.5 -51.5t24.5 -19zM80 687q0 -17 3.5 -24t9.5 -7t15 5t20 12q11 8 22.5 14.5t21.5 6.5q14 0 22 -15t8 -54h-7q0 19 -3.5 26.5t-9.5 7.5q-8 0 -19 -7.5t-23 -15.5t-24 -13.5t-22 -2.5t-16 18t-6 49h8z" />
    <glyph glyph-name="odieresis" unicode="&#xf6;" horiz-adv-x="275" 
d="M260 241q0 -42 -6.5 -86t-21.5 -79.5t-38.5 -58t-56.5 -22.5t-56.5 22.5t-38 58t-21 79.5t-6.5 86q0 43 6.5 87t21 79.5t38 58t56.5 22.5t56.5 -22.5t38.5 -58t21.5 -79.5t6.5 -87zM137 5q15 0 25 19t15 51.5t7 75.5t2 90q0 48 -2 91t-7 75.5t-15 51.5t-25 19t-24.5 -19
t-14.5 -51.5t-7 -75.5t-2 -91q0 -47 2 -90t7 -75.5t14.5 -51.5t24.5 -19zM38 603q-20 0 -34 13.5t-14 33.5t14 34t34 14t33.5 -14t13.5 -34t-13.5 -33.5t-33.5 -13.5zM238 603q-20 0 -34 13.5t-14 33.5t14 34t34 14t33.5 -14t13.5 -34t-13.5 -33.5t-33.5 -13.5z" />
    <glyph glyph-name="divide" unicode="&#xf7;" horiz-adv-x="211" 
d="M196 280v-26h-181v26h181zM106 298q-14 0 -23 9t-9 22t9 22t23 9q13 0 22 -9t9 -22t-9 -22t-22 -9zM106 236q13 0 22 -9t9 -22t-9 -22t-22 -9q-14 0 -23 9t-9 22t9 22t23 9z" />
    <glyph glyph-name="oslash" unicode="&#xf8;" horiz-adv-x="275" 
d="M10 -95h-24l279 699h24zM260 241q0 -42 -6.5 -86t-21.5 -79.5t-38.5 -58t-56.5 -22.5t-56.5 22.5t-38 58t-21 79.5t-6.5 86q0 43 6.5 87t21 79.5t38 58t56.5 22.5t56.5 -22.5t38.5 -58t21.5 -79.5t6.5 -87zM137 5q15 0 25 19t15 51.5t7 75.5t2 90q0 48 -2 91t-7 75.5
t-15 51.5t-25 19t-24.5 -19t-14.5 -51.5t-7 -75.5t-2 -91q0 -47 2 -90t7 -75.5t14.5 -51.5t24.5 -19z" />
    <glyph glyph-name="ugrave" unicode="&#xf9;" horiz-adv-x="389" 
d="M251 413q0 24 -8.5 31.5t-41.5 -1.5l-3 10l113 30h10v-413q0 -24 8.5 -31.5t41.5 1.5l3 -10l-113 -30h-10v86q-9 -18 -19.5 -34t-21 -29t-20.5 -20.5t-18 -7.5q-20 0 -39 5t-33.5 18.5t-23.5 36t-9 58.5v300q0 24 -8 31.5t-42 -1.5l-2 10l113 30h10v-370q0 -21 5.5 -36.5
t14.5 -24.5t19.5 -12t20.5 0q12 3 25.5 22t27.5 44v307zM244 625h-24l-76 125h49z" />
    <glyph glyph-name="uacute" unicode="&#xfa;" horiz-adv-x="389" 
d="M251 413q0 24 -8.5 31.5t-41.5 -1.5l-3 10l113 30h10v-413q0 -24 8.5 -31.5t41.5 1.5l3 -10l-113 -30h-10v86q-9 -18 -19.5 -34t-21 -29t-20.5 -20.5t-18 -7.5q-20 0 -39 5t-33.5 18.5t-23.5 36t-9 58.5v300q0 24 -8 31.5t-42 -1.5l-2 10l113 30h10v-370q0 -21 5.5 -36.5
t14.5 -24.5t19.5 -12t20.5 0q12 3 25.5 22t27.5 44v307zM195 750h49l-76 -125h-24z" />
    <glyph glyph-name="ucircumflex" unicode="&#xfb;" horiz-adv-x="389" 
d="M251 413q0 24 -8.5 31.5t-41.5 -1.5l-3 10l113 30h10v-413q0 -24 8.5 -31.5t41.5 1.5l3 -10l-113 -30h-10v86q-9 -18 -19.5 -34t-21 -29t-20.5 -20.5t-18 -7.5q-20 0 -39 5t-33.5 18.5t-23.5 36t-9 58.5v300q0 24 -8 31.5t-42 -1.5l-2 10l113 30h10v-370q0 -21 5.5 -36.5
t14.5 -24.5t19.5 -12t20.5 0q12 3 25.5 22t27.5 44v307zM194 673l-52 -53l-8 5l56 86h9l56 -86l-8 -5z" />
    <glyph glyph-name="udieresis" unicode="&#xfc;" horiz-adv-x="389" 
d="M251 413q0 24 -8.5 31.5t-41.5 -1.5l-3 10l113 30h10v-413q0 -24 8.5 -31.5t41.5 1.5l3 -10l-113 -30h-10v86q-9 -18 -19.5 -34t-21 -29t-20.5 -20.5t-18 -7.5q-20 0 -39 5t-33.5 18.5t-23.5 36t-9 58.5v300q0 24 -8 31.5t-42 -1.5l-2 10l113 30h10v-370q0 -21 5.5 -36.5
t14.5 -24.5t19.5 -12t20.5 0q12 3 25.5 22t27.5 44v307zM95 603q-20 0 -34 13.5t-14 33.5t14 34t34 14t33.5 -14t13.5 -34t-13.5 -33.5t-33.5 -13.5zM295 603q-20 0 -34 13.5t-14 33.5t14 34t34 14t33.5 -14t13.5 -34t-13.5 -33.5t-33.5 -13.5z" />
    <glyph glyph-name="yacute" unicode="&#xfd;" horiz-adv-x="388" 
d="M105 -194q11 0 20 11t18 34.5t19.5 60.5t24.5 88l-115 428q-4 15 -6.5 23.5t-8 13.5t-15 6.5t-27.5 1.5v10h176v-10q-35 0 -45 -7t-2 -35l79 -295l79 292q4 16 2 25t-9 13.5t-16.5 5.5t-20.5 1v10h115v-10q-17 0 -27 -2t-16.5 -7.5t-10.5 -15.5t-8 -25l-114 -423
q-14 -50 -24.5 -92t-22 -72t-25.5 -46.5t-35 -16.5q-28 0 -43 22.5t-17.5 50t8 50t33.5 22.5t28 -18.5t-1 -41.5q-13 -52 7 -52zM195 750h49l-76 -125h-24z" />
    <glyph glyph-name="thorn" unicode="&#xfe;" horiz-adv-x="54" 
d="M39 -154h-24v881h24v-881zM-96 0v620q0 24 -8 31.5t-42 -1.5l-3 9l113 31h10v-293q9 18 19.5 34t21 29t20.5 20.5t18 7.5q38 0 61 -36.5t32.5 -91.5t6 -118.5t-19 -118.5t-43 -91.5t-65.5 -36.5q-18 0 -30 6.5t-20 14.5t-15 14.5t-16 6.5q-11 0 -20.5 -9.5t-9.5 -27.5
h-10zM19 13q19 0 33 31t21 77.5t7.5 100.5t-5.5 100.5t-19.5 77.5t-33.5 31q-12 0 -23.5 -15.5t-24.5 -38.5v-287q0 -35 12.5 -56t32.5 -21z" />
    <glyph glyph-name="ydieresis" unicode="&#xff;" horiz-adv-x="388" 
d="M105 -194q11 0 20 11t18 34.5t19.5 60.5t24.5 88l-115 428q-4 15 -6.5 23.5t-8 13.5t-15 6.5t-27.5 1.5v10h176v-10q-35 0 -45 -7t-2 -35l79 -295l79 292q4 16 2 25t-9 13.5t-16.5 5.5t-20.5 1v10h115v-10q-17 0 -27 -2t-16.5 -7.5t-10.5 -15.5t-8 -25l-114 -423
q-14 -50 -24.5 -92t-22 -72t-25.5 -46.5t-35 -16.5q-28 0 -43 22.5t-17.5 50t8 50t33.5 22.5t28 -18.5t-1 -41.5q-13 -52 7 -52zM94 603q-20 0 -34 13.5t-14 33.5t14 34t34 14t33.5 -14t13.5 -34t-13.5 -33.5t-33.5 -13.5zM294 603q-20 0 -34 13.5t-14 33.5t14 34t34 14
t33.5 -14t13.5 -34t-13.5 -33.5t-33.5 -13.5z" />
    <glyph glyph-name="dotlessi" unicode="&#x131;" horiz-adv-x="206" 
d="M139 483v-433q0 -12 1.5 -20t7 -12.5t16 -6t27.5 -1.5v-10h-176v10q35 0 44 8t9 32v363q0 24 -8 31.5t-42 -1.5l-3 10l114 30h10z" />
    <glyph glyph-name="Lslash" unicode="&#x141;" horiz-adv-x="357" 
d="M204 366v-26h-181v26h181zM78 651q0 13 -2 20.5t-8.5 12t-19 6t-33.5 1.5v10h197v-10q-21 0 -33.5 -1.5t-19 -6t-8.5 -12t-2 -20.5v-641h86q20 1 37.5 8.5t31 28.5t21 59t7.5 101h10v-207h-327v10q21 0 33.5 1.5t19 6t8.5 12t2 20.5v601z" />
    <glyph glyph-name="lslash" unicode="&#x142;" horiz-adv-x="206" 
d="M194 366v-26h-181v26h181zM138 50q0 -12 2 -20t7.5 -12.5t16 -6t27.5 -1.5v-10h-176v10q35 0 44 8t9 32v570q0 24 -8 31.5t-42 -1.5l-3 9l114 31h9v-640z" />
    <glyph glyph-name="OE" unicode="&#x152;" horiz-adv-x="683" 
d="M475 381v-371h86q19 1 37 8.5t31 28.5t21 59t8 101h10v-207h-327v10q21 0 33.5 1.5t19 6t8.5 12t2 20.5v123q-11 -37 -27 -69.5t-38.5 -56.5t-51.5 -38t-65 -14q-57 0 -96.5 34t-64 86t-35.5 114.5t-11 120.5t11 121t35.5 115t64 86t96.5 34q36 0 65 -14t51.5 -38.5
t38.5 -57t27 -69.5v124q0 13 -2 20.5t-8.5 12t-19 6t-33.5 1.5v10h327v-207h-10q0 63 -8 101t-21 59t-31 28.5t-37 8.5h-86v-300h10q26 0 42 6.5t25 23t12 45.5t3 74h9v-308h-9q0 45 -3 74t-12 45.5t-25 23t-42 6.5h-10zM348 350q0 26 -2 62t-7.5 74.5t-15 76t-23.5 67
t-33 48t-45 18.5t-45 -18.5t-33 -48t-23.5 -67t-15 -76t-7.5 -74.5t-2 -62t2 -62t7.5 -74t15 -75.5t23.5 -67t33 -48t45 -18.5t45 18.5t33 48t23.5 67t15 75.5t7.5 74t2 62z" />
    <glyph glyph-name="oe" unicode="&#x153;" horiz-adv-x="426" 
d="M408 319l-141 -142q4 -28 10 -52t14 -42t18 -28t22 -10q17 0 29 11.5t20 28t13 34.5t9 32l9 -3q-8 -41 -22 -74q-12 -28 -32 -51t-50 -23q-29 0 -50 16.5t-35 44.5q-14 -28 -35 -44.5t-50 -16.5q-33 0 -56.5 22.5t-38 58t-21 79.5t-6.5 86t6.5 86t21 79.5t38 58
t56.5 22.5q31 0 53 -19t36 -51q16 32 36.5 51t46.5 19q43 0 71 -47.5t28 -125.5zM137 10q15 0 24.5 19t14.5 51.5t7 75.5t2 90t-2 90t-7 75.5t-14.5 51.5t-24.5 19t-24.5 -19t-15 -51.5t-7.5 -75.5t-2 -90t2 -90t7.5 -75.5t15 -51.5t24.5 -19zM265 190l80 79q0 36 -0.5 74
t-3.5 69t-10.5 50.5t-21.5 19.5q-17 0 -28.5 -28t-17 -70.5t-5 -94t6.5 -99.5z" />
    <glyph glyph-name="Scaron" unicode="&#x160;" horiz-adv-x="294" 
d="M251 474q0 28 -4.5 66t-15.5 72.5t-30.5 59t-50.5 24.5q-21 0 -37 -9.5t-26.5 -25t-15.5 -34t-5 -36.5q0 -50 16 -84.5t39.5 -61.5t51 -51t51 -53t39.5 -67.5t16 -94.5q0 -30 -7.5 -62.5t-23.5 -59.5t-42 -44.5t-62 -17.5q-19 0 -34 7t-26.5 16t-20 16t-14.5 7
q-12 0 -15.5 -9t-3.5 -32h-10v228h10q0 -28 6.5 -66t20 -73t35 -59.5t52.5 -24.5q21 0 36.5 9.5t26 25t16 34.5t5.5 37q0 50 -16 84.5t-39.5 61.5t-51 51t-51 52.5t-39.5 67t-16 94.5q0 30 7.5 62.5t23.5 59.5t42 44.5t62 17.5q20 0 33 -7t22 -15.5t15.5 -15.5t12.5 -7
q8 0 13 8.5t5 31.5h10v-227h-10v0zM199 911l8 -5l-56 -86h-9l-56 86l8 5l53 -54z" />
    <glyph glyph-name="scaron" unicode="&#x161;" horiz-adv-x="213" 
d="M110 10q20 0 31.5 13.5t11.5 34.5q0 35 -10 62.5t-25.5 51.5t-33.5 46t-33.5 45.5t-25.5 50t-10 60.5q0 22 6.5 43t18.5 36.5t28 25t35 9.5q12 0 25 -4t23.5 -6.5t17.5 -1t7 11.5h9v-157h-9q0 25 -6 51.5t-16 47.5t-23 34.5t-28 13.5q-20 0 -31.5 -13.5t-11.5 -35.5
q0 -27 10 -49t25.5 -43t33.5 -43.5t33.5 -48.5t25.5 -58.5t10 -73.5q0 -22 -6.5 -42.5t-18 -36t-28 -25t-35.5 -9.5q-12 0 -25 4t-23.5 6.5t-17 1t-6.5 -11.5h-10v157h10q0 -26 6 -52t15.5 -47t22.5 -34.5t28 -13.5zM159 711l8 -5l-56 -86h-9l-56 86l8 5l53 -54z" />
    <glyph glyph-name="Ydieresis" unicode="&#x178;" horiz-adv-x="462" 
d="M264 280v-230q0 -13 2 -20.5t8.5 -12t19 -6t33.5 -1.5v-10h-197v10q21 0 33.5 1.5t19 6t8.5 12t2 20.5v225l-109 371q-8 28 -20 36.5t-49 8.5v10h197v-10h-3q-21 0 -33 -0.5t-18 -4.5t-6 -12.5t4 -23.5l103 -350l104 352q4 13 4.5 21t-5.5 12t-18.5 5t-33.5 1v10h137v-10
q-22 0 -34.5 -1t-20 -5.5t-11.5 -13t-8 -22.5zM131 803q-20 0 -34 13.5t-14 33.5t14 34t34 14t33.5 -14t13.5 -34t-13.5 -33.5t-33.5 -13.5zM331 803q-20 0 -34 13.5t-14 33.5t14 34t34 14t33.5 -14t13.5 -34t-13.5 -33.5t-33.5 -13.5z" />
    <glyph glyph-name="Zcaron" unicode="&#x17d;" horiz-adv-x="355" 
d="M262 691h-133q-17 -1 -32.5 -8.5t-27.5 -28.5t-19 -59t-7 -101h-9v207h306l-246 -691h132q17 1 32.5 8.5t27.5 28.5t19 59t7 101h10v-207h-307zM230 911l8 -5l-56 -86h-9l-56 86l8 5l53 -54z" />
    <glyph glyph-name="zcaron" unicode="&#x17e;" horiz-adv-x="234" 
d="M210 152h9v-152h-203l127 473h-35q-30 0 -46.5 -7t-24.5 -21.5t-10 -37t-2 -54.5v-22h-10v152h204l-127 -473h35q30 0 46.5 7t24.5 21.5t10 37t2 54.5v22zM169 711l8 -5l-56 -86h-9l-56 86l8 5l53 -54z" />
    <glyph glyph-name="florin" unicode="&#x192;" horiz-adv-x="263" 
d="M191 10v-10h-176v10q35 0 44 8t9 32v422h-34v10h34v5q0 70 10.5 111t26 62t32.5 27t29 6q36 0 55.5 -22.5t24 -49.5t-5.5 -49.5t-32 -22.5q-24 0 -29 18.5t1 40.5q9 34 6 54.5t-20 20.5q-9 0 -14.5 -9.5t-8.5 -32.5t-4 -60.5t-1 -93.5v-5h70v-10h-70v-422q0 -24 9 -32
t44 -8z" />
    <glyph glyph-name="circumflex" unicode="&#x2c6;" horiz-adv-x="151" 
d="M75 673l-52 -53l-8 5l56 86h9l56 -86l-8 -5z" />
    <glyph glyph-name="caron" unicode="&#x2c7;" horiz-adv-x="151" 
d="M128 711l8 -5l-56 -86h-9l-56 86l8 5l53 -54z" />
    <glyph glyph-name="breve" unicode="&#x2d8;" horiz-adv-x="194" 
d="M179 701q0 -57 -25.5 -86t-56.5 -29t-56.5 29t-25.5 86h5q0 -35 24 -53.5t53 -19t53 17t24 55.5h5z" />
    <glyph glyph-name="dotaccent" unicode="&#x2d9;" horiz-adv-x="125" 
d="M63 606q-20 0 -34 13.5t-14 33.5t14 34t34 14t33.5 -14t13.5 -34t-13.5 -33.5t-33.5 -13.5z" />
    <glyph glyph-name="ring" unicode="&#x2da;" horiz-adv-x="128" 
d="M113 640q0 -22 -11 -42t-38 -20t-38 20t-11 42q0 21 11 41t38 20t38 -20t11 -41zM64 585q12 0 16 15.5t4 39.5q0 23 -4 38.5t-16 15.5t-15.5 -15.5t-3.5 -38.5q0 -24 3.5 -39.5t15.5 -15.5z" />
    <glyph glyph-name="ogonek" unicode="&#x2db;" horiz-adv-x="151" 
d="M117 0q-43 -42 -57 -74.5t-11 -55.5q2 -17 11 -25t21 -8.5t25 6t22 18.5l8 -7q-10 -12 -24.5 -21t-30 -12.5t-29.5 0t-24 15.5q-5 5 -9 14t-4 20q0 27 21.5 62t73.5 77z" />
    <glyph glyph-name="tilde" unicode="&#x2dc;" horiz-adv-x="160" 
d="M23 687q0 -17 3.5 -24t9.5 -7t15 5t20 12q11 8 22.5 14.5t21.5 6.5q14 0 22 -15t8 -54h-7q0 19 -3.5 26.5t-9.5 7.5q-8 0 -19 -7.5t-23 -15.5t-24 -13.5t-22 -2.5t-16 18t-6 49h8z" />
    <glyph glyph-name="hungarumlaut" unicode="&#x2dd;" horiz-adv-x="209" 
d="M66 750h49l-76 -125h-24zM145 750h49l-76 -125h-24z" />
    <glyph glyph-name="endash" unicode="&#x2013;" horiz-adv-x="211" 
d="M196 366v-26h-181v26h181z" />
    <glyph glyph-name="emdash" unicode="&#x2014;" horiz-adv-x="268" 
d="M253 366v-26h-238v26h238z" />
    <glyph glyph-name="quoteleft" unicode="&#x2018;" horiz-adv-x="129" 
d="M66 602q-32 0 -42.5 24t-6 53t21.5 53t41 24q14 0 13 -8t-9 -8q-3 0 -8 -0.5t-10 -5t-8.5 -13.5t-3.5 -25q23 6 41.5 -6t18.5 -40q0 -20 -14 -34t-34 -14z" />
    <glyph glyph-name="quoteright" unicode="&#x2019;" horiz-adv-x="129" 
d="M63 701q32 0 42.5 -24t6 -53t-21.5 -53t-41 -24q-14 0 -13 8t9 8q3 0 8 0.5t10 5t8.5 13t3.5 25.5q-23 -6 -41.5 6t-18.5 40q0 20 14 34t34 14z" />
    <glyph glyph-name="quotesinglbase" unicode="&#x201a;" horiz-adv-x="129" 
d="M63 95q32 0 42.5 -24t6 -53t-21.5 -53t-41 -24q-14 0 -13 8t9 8q3 0 8 0.5t10 5t8.5 13t3.5 25.5q-23 -6 -41.5 6t-18.5 40q0 20 14 34t34 14z" />
    <glyph glyph-name="quotedblleft" unicode="&#x201c;" horiz-adv-x="251" 
d="M188 602q-32 0 -42.5 24t-6 53t21.5 53t41 24q14 0 13 -8t-9 -8q-3 0 -8 -0.5t-10 -5t-8.5 -13.5t-3.5 -25q23 6 41.5 -6t18.5 -40q0 -20 -14 -34t-34 -14zM66 602q-32 0 -42.5 24t-6 53t21.5 53t41 24q14 0 13 -8t-9 -8q-3 0 -8 -0.5t-10 -5t-8.5 -13.5t-3.5 -25
q23 6 41.5 -6t18.5 -40q0 -20 -14 -34t-34 -14z" />
    <glyph glyph-name="quotedblright" unicode="&#x201d;" horiz-adv-x="251" 
d="M63 701q32 0 42.5 -24t6 -53t-21.5 -53t-41 -24q-14 0 -13 8t9 8q3 0 8 0.5t10 5t8.5 13t3.5 25.5q-23 -6 -41.5 6t-18.5 40q0 20 14 34t34 14zM185 701q32 0 42.5 -24t6 -53t-21.5 -53t-41 -24q-14 0 -13 8t9 8q3 0 8 0.5t10 5t8.5 13t3.5 25.5q-23 -6 -41.5 6t-18.5 40
q0 20 14 34t34 14z" />
    <glyph glyph-name="quotedblbase" unicode="&#x201e;" horiz-adv-x="251" 
d="M63 95q32 0 42.5 -24t6 -53t-21.5 -53t-41 -24q-14 0 -13 8t9 8q3 0 8 0.5t10 5t8.5 13t3.5 25.5q-23 -6 -41.5 6t-18.5 40q0 20 14 34t34 14zM185 95q32 0 42.5 -24t6 -53t-21.5 -53t-41 -24q-14 0 -13 8t9 8q3 0 8 0.5t10 5t8.5 13t3.5 25.5q-23 -6 -41.5 6t-18.5 40
q0 20 14 34t34 14z" />
    <glyph glyph-name="dagger" unicode="&#x2020;" horiz-adv-x="211" 
d="M114 -154h-24v881h24v-881zM196 285v-25h-181v25h181z" />
    <glyph glyph-name="daggerdbl" unicode="&#x2021;" horiz-adv-x="162" 
d="M93 -154h-24v881h24v-881zM147 324v-25h-132v25h132zM147 275v-25h-132v25h132z" />
    <glyph glyph-name="bullet" unicode="&#x2022;" horiz-adv-x="148" 
d="M74 270q-24 0 -41.5 17.5t-17.5 41.5t17.5 41.5t41.5 17.5q25 0 42 -17.5t17 -41.5t-17 -41.5t-42 -17.5z" />
    <glyph glyph-name="ellipsis" unicode="&#x2026;" horiz-adv-x="513" 
d="M63 0q-20 0 -34 13.5t-14 33.5t14 34t34 14t33.5 -14t13.5 -34t-13.5 -33.5t-33.5 -13.5zM251 0q-20 0 -34 13.5t-14 33.5t14 34t34 14t33.5 -14t13.5 -34t-13.5 -33.5t-33.5 -13.5zM451 0q-20 0 -34 13.5t-14 33.5t14 34t34 14t33.5 -14t13.5 -34t-13.5 -33.5
t-33.5 -13.5z" />
    <glyph glyph-name="perthousand" unicode="&#x2030;" horiz-adv-x="795" 
d="M423 399q23 0 43.5 -16t35.5 -45t23 -66t8 -75.5t-8 -75.5t-23 -66q-16 -30 -36.5 -45t-42 -15t-42 15t-36.5 45q-16 29 -24 66t-8 75.5t8 75.5t24 66q15 29 35 45t43 16zM670 399q23 0 43.5 -16t35.5 -45t23 -66t8 -75.5t-8 -75.5t-23 -66q-16 -30 -36.5 -45t-42 -15
t-42 15t-36.5 45q-16 29 -24 66t-8 75.5t8 75.5t24 66q15 29 35 45t43 16zM125 701q23 0 43.5 -16t35.5 -44q15 -29 23 -66t8 -75.5t-8 -75.5t-23 -66q-16 -30 -36.5 -45t-42 -15t-42 15t-36.5 45q-16 29 -24 66t-8 75.5t8 75.5t24 66q15 28 35 44t43 16zM389 651
q6 18 23 29t54 11v10h-198v-10q35 0 44.5 -13.5t2.5 -37.5l-160 -586q-5 -19 -22 -31.5t-57 -12.5v-10h198v10q-35 0 -44.5 13.5t-2.5 37.5zM710 337q-17 57 -39.5 57t-39.5 -57q-9 -29 -13 -65.5t-4 -74.5t4 -74.5t13 -65.5q17 -57 39.5 -57t39.5 57q9 29 13 65.5t4 74.5
t-4 74.5t-13 65.5zM463 337q-17 57 -39.5 57t-39.5 -57q-9 -29 -13 -65.5t-4 -74.5t4 -74.5t13 -65.5q17 -57 39.5 -57t39.5 57q9 29 13 65.5t4 74.5t-4 74.5t-13 65.5zM165 639q-17 57 -39.5 57t-39.5 -57q-9 -29 -13 -65.5t-4 -74.5t4 -74.5t13 -65.5q17 -56 39.5 -56
t39.5 56q9 29 13 65.5t4 74.5t-4 74.5t-13 65.5z" />
    <glyph glyph-name="guilsinglleft" unicode="&#x2039;" horiz-adv-x="129" 
d="M114 13l-6 -13l-93 89v13l93 89l6 -13l-58 -82z" />
    <glyph glyph-name="guilsinglright" unicode="&#x203a;" horiz-adv-x="129" 
d="M73 96l-58 82l6 13l93 -89v-13l-93 -89l-6 13z" />
    <glyph glyph-name="fraction" unicode="&#x2044;" horiz-adv-x="333" 
d="M39 0h-24l279 699h24z" />
    <glyph glyph-name="Euro" unicode="&#x20ac;" horiz-adv-x="422" 
d="M265 478v-10h-122q-4 -39 -5.5 -88t2 -100.5t12.5 -101t26 -88t43 -62t62 -23.5q31 0 52.5 24.5t35 59t20 72.5t6.5 66h10v-227h-10q0 23 -4 30t-16 7q-6 0 -14.5 -6.5t-20 -14.5t-26 -14.5t-33.5 -6.5q-65 0 -108 34t-69.5 86t-37.5 114.5t-11 120.5q0 29 2.5 58.5
t7.5 59.5h-52v10h54q2 11 5 22l6 22h-65v10h68q12 36 29.5 67.5t42 55.5t56.5 37.5t72 13.5q19 0 33.5 -6.5t26 -14.5t20 -14.5t14.5 -6.5q12 0 16 7t4 30h10v-227h-10q0 27 -6.5 65.5t-20 73t-35 59t-52.5 24.5q-26 0 -47 -12.5t-37 -34.5t-27.5 -52t-18.5 -65h112v-10
h-114l-7 -44h121z" />
    <glyph glyph-name="trademark" unicode="&#x2122;" horiz-adv-x="706" 
d="M87 693q-13 -1 -24.5 -6t-20.5 -21t-14 -44.5t-5 -76.5h-8v156h258v-156h-8q0 48 -5.5 76.5t-14.5 44.5t-20.5 21t-24.5 6h-30v-483q0 -19 8 -24.5t40 -5.5v-7h-149v7q32 0 40 5.5t8 24.5v483h-30zM361 210q0 -19 7.5 -24.5t40.5 -5.5v-7h-103v7q32 0 39.5 5.5t7.5 24.5
v453q0 19 -7.5 24.5t-39.5 5.5v8h102l91 -405l91 405h101v-8q-33 0 -40.5 -5.5t-7.5 -24.5v-453q0 -19 7.5 -24.5t40.5 -5.5v-7h-149v7q32 0 40 5.5t8 24.5v457l-111 -494h-7v2l-111 492v-457z" />
    <glyph glyph-name="minus" unicode="&#x2212;" horiz-adv-x="211" 
d="M196 366v-26h-181v26h181z" />
    <glyph glyph-name="fi" unicode="&#xfb01;" horiz-adv-x="413" 
d="M345 482v-432q0 -12 1.5 -20t7 -12.5t16 -6t27.5 -1.5v-10h-176v10q35 0 44 8t9 32v363q0 12 -1.5 22.5t-6.5 19t-15 13t-27 4.5v7l111 3h10zM191 10v-10h-176v10q35 0 44 8t9 32v422h-34v10h34v5q0 70 10.5 111t26 62t32.5 27t29 6q36 0 55.5 -22.5t24 -49.5t-5.5 -49.5
t-32 -22.5q-24 0 -29 18.5t1 40.5q9 34 6 54.5t-20 20.5q-9 0 -14.5 -9.5t-8.5 -32.5t-4 -60.5t-1 -93.5v-5h207v-10h-207v-422q0 -24 9 -32t44 -8zM310 629q17 0 28.5 -11.5t11.5 -28.5t-11.5 -28.5t-28.5 -11.5t-28.5 11.5t-11.5 28.5t11.5 28.5t28.5 11.5z" />
    <glyph glyph-name="fl" unicode="&#xfb02;" horiz-adv-x="413" 
d="M191 10v-10h-176v10q35 0 44 8t9 32v422h-34v10h34v5q0 70 10.5 111t26 62t32.5 27t29 6q36 0 55.5 -22.5t24 -49.5t-5.5 -49.5t-32 -22.5q-24 0 -29 18.5t1 40.5q9 34 6 54.5t-20 20.5q-9 0 -14.5 -9.5t-8.5 -32.5t-4 -60.5t-1 -93.5v-5h70v-10h-70v-422q0 -24 9 -32
t44 -8zM345 50q0 -12 2 -20t7.5 -12.5t16 -6t27.5 -1.5v-10h-176v10q35 0 44 8t9 32v570q0 24 -8 31.5t-42 -1.5l-3 9l114 31h9v-640z" />
    <glyph glyph-name="_0127" 
 />
    <glyph glyph-name="_0141" 
 />
    <glyph glyph-name="_0142" 
 />
    <glyph glyph-name="_0129" 
 />
    <glyph glyph-name="_0143" 
 />
    <glyph glyph-name="_0144" 
 />
    <glyph glyph-name="_0157" 
 />
    <glyph glyph-name="_0158" 
 />
    <glyph glyph-name="_0022" 
 />
    <glyph glyph-name="_0023" 
 />
    <glyph glyph-name="_0024" 
 />
    <glyph glyph-name="_0014" 
 />
    <glyph glyph-name="_0015" 
 />
    <glyph glyph-name="_0016" 
 />
    <glyph glyph-name="_0018" 
 />
    <glyph glyph-name="_0017" 
 />
    <glyph glyph-name="_0019" 
 />
    <glyph glyph-name="_0020" 
 />
    <glyph glyph-name="_0021" 
 />
    <glyph glyph-name="_0009" 
 />
    <glyph glyph-name="_0007" 
 />
    <glyph glyph-name="_0004" 
 />
    <glyph glyph-name="_0003" 
 />
    <glyph glyph-name="_0002" 
 />
    <glyph glyph-name="_0001" 
 />
    <glyph glyph-name="_0000" 
 />
    <glyph glyph-name="A.alt01" horiz-adv-x="484" 
d="M235 445q2 -42 2.5 -93t-4.5 -102q-2 -21 -6 -50t-11 -59.5t-17.5 -59t-26.5 -49.5t-37.5 -30.5t-49.5 -1.5q-25 7 -38.5 28t-15 51.5t10 69t35.5 79.5t50 87.5t44 99t24 111t-9 123.5q-3 12 -7 20.5t-11.5 13t-20.5 6.5t-34 2v10h133l156 -650q3 -13 5.5 -21t9 -12.5
t18.5 -6t34 -1.5v-10h-198v10q43 0 54 7t5 32zM68 122q0 -32 11 -53t43 -23q21 -1 37 14.5t27.5 41t19 57t12 62t6.5 56.5t3 41q2 63 -1.5 117t-8.5 85l-10 43q0 -48 -10 -92t-25.5 -83.5t-33.5 -75.5t-33.5 -69t-26 -63t-10.5 -58z" />
    <glyph glyph-name="B.alt01" horiz-adv-x="387" 
d="M226 405q24 -21 50 -39t47.5 -40.5t35 -54t13.5 -77.5q0 -54 -15.5 -92t-42.5 -61.5t-63.5 -34.5t-77.5 -11q-39 0 -78.5 2.5t-79.5 2.5v10q22 0 34.5 1.5t19 6t8.5 12t2 20.5v601q0 13 -2 20.5t-8.5 12t-19 6t-34.5 1.5v10q40 0 79.5 2.5t78.5 2.5q81 0 127 -37.5
t46 -124.5q0 -38 -11 -66.5t-28 -46.5t-38.5 -25t-42.5 -1zM292 194q0 49 -8 82t-21.5 56t-29.5 39.5l-32 33t-30 37.5t-22 53v-490h24q63 0 91 46t28 143zM149 696v-113q0 -68 18.5 -102.5t40 -38.5t40 22t18.5 80q0 73 -20 112.5t-73 39.5h-24z" />
    <glyph glyph-name="C.alt01" horiz-adv-x="380" 
d="M241 706q39 0 65 -13t40.5 -35.5t16.5 -53.5t-7 -66q-11 -41 -18 -73.5t-8 -55.5q-3 -43 20 -43l2 -9q-35 -10 -57 4t-20 52q1 24 11 45.5t22 44t22 48t10 57.5q0 25 -8 41.5t-22 27t-32 15t-37 4.5q-42 0 -70 -30.5t-45 -79.5t-24 -111t-7 -125t7 -122t24 -105t45 -73.5
t70 -27.5q31 0 51.5 21t33.5 51t18.5 62.5t5.5 55.5h10q0 -26 -7 -63t-22.5 -71t-39.5 -58.5t-58 -24.5q-64 0 -106 34t-67 86t-35 114.5t-10 120.5t11.5 121t37.5 115t69.5 86t107.5 34z" />
    <glyph glyph-name="E.alt01" horiz-adv-x="357" 
d="M149 381v-371h86q19 1 37 8.5t31 28.5t21 59t8 101h10v-207h-327v10q21 0 33.5 1.5t19 6t8.5 12t2 20.5v601q0 13 -2 20.5t-8.5 12t-19 6t-33.5 1.5v10h327v-207h-10q0 63 -8 101t-21 59t-31 28.5t-37 8.5h-86v-300q29 0 47.5 2.5t32.5 16.5t25.5 43t26.5 83l9 -2
l-40 -149v-4h-1l-39 -145l-9 2v1q12 45 16.5 73t0 43.5t-18.5 20.5t-40 5h-10z" />
    <glyph glyph-name="F.alt01" horiz-adv-x="357" 
d="M149 381v-331q0 -13 2 -20.5t8.5 -12t19 -6t33.5 -1.5v-10h-197v10q21 0 34 1.5t19.5 6t8.5 12t2 20.5v601q0 13 -2 20.5t-8.5 12t-19.5 6t-34 1.5v10h327v-207h-9q0 63 -8 101t-21.5 59t-31 28.5t-37.5 8.5h-86v-300q29 0 48 2.5t33 16.5t25.5 43t25.5 83l10 -2
l-40 -149v-4h-1l-39 -145l-10 2v1q12 45 17 73t0.5 43.5t-19 20.5t-40.5 5h-10z" />
    <glyph glyph-name="G.alt01" horiz-adv-x="452" 
d="M241 706q39 0 65 -13t40.5 -35.5t16.5 -53.5t-7 -66q-11 -41 -18 -73.5t-8 -55.5q-3 -43 20 -43l2 -9q-35 -10 -57 4t-21 52q1 24 11.5 45.5t22.5 44t22 48t10 57.5q0 25 -8 41.5t-22 27t-32 15t-37 4.5q-42 0 -70 -30.5t-45 -79.5t-24 -111t-7 -125t7 -125t24 -110.5
t45 -79t70 -30.5q18 0 33.5 9t28.5 25v189q0 12 -2 20t-8.5 12.5t-19 6t-33.5 1.5v10h197v-10q-21 0 -34 -1.5t-19.5 -6t-8.5 -12.5t-2 -21v-227h-10q0 18 -5.5 19.5t-19.5 -4t-37.5 -13t-59.5 -7.5q-65 0 -108 34t-69.5 86t-37.5 114.5t-11 120.5t11 121t37.5 115t69.5 86
t108 34z" />
    <glyph glyph-name="H.alt01" horiz-adv-x="453" 
d="M149 448q0 -34 19.5 -52.5t45.5 -32t52 -28t38 -40.5v356q0 13 -2 20.5t-8.5 12t-19 6t-34.5 1.5v10h198v-10q-22 0 -34.5 -1.5t-19 -6t-8.5 -12t-2 -20.5v-601q0 -13 2 -20.5t8.5 -12t19 -6t34.5 -1.5v-10h-198v10q22 0 34.5 1.5t19 6t8.5 12t2 20.5v206h-2
q0 33 -19 51.5t-44.5 32t-51 27.5t-38.5 39v-356q0 -13 2 -20.5t8.5 -12t19 -6t33.5 -1.5v-10h-197v10q21 0 33.5 1.5t19 6t8.5 12t2 20.5v601q0 13 -2 20.5t-8.5 12t-19 6t-33.5 1.5v10h197v-10q-21 0 -33.5 -1.5t-19 -6t-8.5 -12t-2 -20.5v-203z" />
    <glyph glyph-name="K.alt01" horiz-adv-x="493" 
d="M149 168q8 86 23.5 159t37.5 133q7 20 21 53t31.5 67.5t36 65t33.5 45.5q5 5 20 8.5t30.5 1.5t28 -11t12.5 -28q0 -25 -18.5 -29.5t-41.5 1.5t-45.5 -12.5t-41.5 -47t-34 -61t-22 -53.5l180 -406q11 -25 27.5 -34.5t51.5 -9.5v-10h-198v10q21 0 32.5 1.5t16 6t2.5 12.5
t-8 20l-135 306q-16 -66 -25.5 -142.5t-9.5 -163.5h-5q0 -13 2 -20.5t8.5 -12t19 -6t33.5 -1.5v-10h-197v10q21 0 34 1.5t19.5 6t8.5 12t2 20.5v601q0 13 -2 20.5t-8.5 12t-19.5 6t-34 1.5v10h197v-10q-21 0 -33.5 -1.5t-19 -6t-8.5 -12t-2 -20.5v-483z" />
    <glyph glyph-name="L.alt01" horiz-adv-x="357" 
d="M15 0v10q21 0 34 1.5t19.5 6t8.5 12t2 20.5v601q0 13 -2 20.5t-8.5 12t-19.5 6t-34 1.5v10h197v-10q-21 0 -33.5 -1.5t-19 -6t-8.5 -12t-2 -20.5v-641h70q20 0 38 4.5t32 15t22 27t8 41.5q0 32 -10 57t-22 47.5t-22.5 44.5t-11.5 46q-1 38 20.5 52t56.5 4l-1 -9
q-23 0 -20 -43q1 -23 8 -55.5t18 -73.5q9 -35 7 -66t-16.5 -53.5t-41 -35.5t-65.5 -13h-204z" />
    <glyph glyph-name="P.alt01" horiz-adv-x="387" 
d="M149 50q0 -13 2 -20.5t8.5 -12t19 -6t34.5 -1.5v-10h-198v10q21 0 34 1.5t19.5 6t8.5 12t2 20.5v601q0 13 -2 20.5t-8.5 12t-19.5 6t-34 1.5v10q40 0 79.5 2.5t78.5 2.5q41 0 77.5 -11t63.5 -34.5t42.5 -61t15.5 -91.5t-13.5 -93.5t-34.5 -64.5t-47 -35.5t-51 -6
t-45.5 24t-31.5 55.5v-338zM292 508q0 96 -28 142t-91 46h-24v-240q0 -37 10.5 -64.5t26.5 -42.5t34.5 -15t34.5 18t26.5 56t10.5 100z" />
    <glyph glyph-name="Q.alt01" horiz-adv-x="443" 
d="M348 351q0 26 -2.5 62t-8 74t-14.5 75.5t-23 67t-33.5 48t-45.5 18.5t-45 -18.5t-33 -48t-23.5 -67t-14.5 -75.5t-7.5 -74t-2.5 -62q0 -27 2.5 -62.5t7.5 -74t14.5 -76t23.5 -67t33 -48t45 -18.5t45.5 18.5t33.5 48t23 67t14.5 76t8 74t2.5 62.5zM299 16l-144 -84
q39 9 74 1.5t66.5 -20.5t60 -26.5t54 -17t49 8t45.5 49.5l9 -5q-29 -51 -54.5 -74t-48.5 -27.5t-45 5.5t-45 26t-47 33t-51 27t-59 9t-69 -23l-4 8l157 91q-6 -1 -12.5 -1.5t-12.5 -0.5q-57 0 -96.5 34t-64 86t-35.5 114.5t-11 120.5t11 121t35.5 115t64 86t96.5 34
t96.5 -34t63.5 -86t35 -115t11 -121q0 -47 -7 -97t-22.5 -96t-40 -83t-59.5 -58z" />
    <glyph glyph-name="R.alt01" horiz-adv-x="464" 
d="M449 0q-53 -14 -87.5 -1.5t-56.5 41.5t-35.5 68.5t-24.5 78.5q-6 22 -15.5 46t-19 45t-19 36.5t-15.5 21.5v1q-17 19 -28 51v-338q0 -13 2 -20.5t8.5 -12t19.5 -6t34 -1.5v-10h-197v10q21 0 33.5 1.5t19 6t8.5 12t2 20.5v601q0 13 -2 20.5t-8.5 12t-19 6t-33.5 1.5v10
q40 0 79 2.5t78 2.5q41 0 77.5 -11t63.5 -34.5t42.5 -61t15.5 -91.5q0 -51 -12 -89t-31.5 -63.5t-43 -37.5t-47.5 -11q16 -13 29.5 -28.5t26 -35.5t25.5 -46.5t28 -61.5q11 -26 22 -48.5t23 -39.5t26 -27t32 -10v-10zM291 508q0 96 -28 142t-91 46h-24v-240
q0 -37 10.5 -64.5t26.5 -42.5t34.5 -15t34.5 18t26.5 56t10.5 100z" />
    </font>
</defs>
</svg>
