<?xml version="1.0" standalone="no"?>
<!DOCTYPE svg PUBLIC "-//W3C//DTD SVG 1.1//EN" "http://www.w3.org/Graphics/SVG/1.1/DTD/svg11.dtd" >
<svg xmlns="http://www.w3.org/2000/svg" xmlns:xlink="http://www.w3.org/1999/xlink" version="1.1">
<metadata>
Created by FontForge 20201107 at Wed Jan 29 00:58:57 2020
 By 
Copyright (c) 2019 by Kadek Mahardika. All rights reserved.
</metadata>
<defs>
<font id="Cattedrale-Demo-Regular" horiz-adv-x="425" >
  <font-face 
    font-family="Cattedrale-Demo"
    font-weight="400"
    font-stretch="condensed"
    units-per-em="1000"
    panose-1="0 0 5 6 0 0 0 0 0 0"
    ascent="800"
    descent="-200"
    x-height="660"
    cap-height="855"
    bbox="-63 -280 725 912"
    underline-thickness="50"
    underline-position="-100"
    unicode-range="U+0020-2018"
  />
<missing-glyph horiz-adv-x="600" 
 />
    <glyph glyph-name=".notdef" horiz-adv-x="600" 
 />
    <glyph glyph-name=".null" horiz-adv-x="0" 
 />
    <glyph glyph-name="nonmarkingreturn" horiz-adv-x="333" 
 />
    <glyph glyph-name="space" unicode=" " horiz-adv-x="200" 
 />
    <glyph glyph-name="exclam" unicode="!" horiz-adv-x="277" 
d="M56 374v477l140 -100v-483zM50 107l89 90l88 -88l-90 -89z" />
    <glyph glyph-name="quotesingle" unicode="'" horiz-adv-x="148" 
d="M20 785l53 73l55 -73l-53 -127z" />
    <glyph glyph-name="comma" unicode="," horiz-adv-x="189" 
d="M73 -127v70q0 12 -11.5 25t-31.5 32l60 60l59 -60q-26 -32 -42.5 -61.5t-29.5 -69.5z" />
    <glyph glyph-name="period" unicode="." horiz-adv-x="277" 
d="M50 107l89 90l88 -88l-90 -89z" />
    <glyph glyph-name="zero" unicode="0" horiz-adv-x="640" 
d="M156 90.5q-67 61.5 -101.5 143t-34.5 171.5q0 127 66.5 246t194.5 199q70 -7 150 -59t134.5 -138t54.5 -189q0 -115 -49 -209t-118 -157.5t-135 -97.5q-95 29 -162 90.5zM496 338q0 94 -41.5 183t-103 152.5t-116.5 85.5q-44 -56 -66 -120.5t-22 -132.5q0 -121 68 -227
t191 -164q90 90 90 223z" />
    <glyph glyph-name="one" unicode="1" horiz-adv-x="415" 
d="M156 57q-34 36 -55 57q2 2 12 9.5t17.5 26t7.5 45.5v465q0 48 -18.5 68t-52.5 22l-30 -29l-17 10l120 119q0 3 36 -8.5t65 -36.5t29 -66v-590l49 -59l57 25l19 -29l-184 -86q-21 21 -55 57z" />
    <glyph glyph-name="two" unicode="2" horiz-adv-x="595" 
d="M24 9h-1l1 1q12 30 36.5 68t68.5 99q78 110 129.5 195t90 190.5t38.5 212.5l-195 -172l-78 111l216 148l209 -98q0 -197 -109.5 -356.5t-275.5 -295.5q52 22 113 41q67 22 129 22q54 0 93.5 -14.5t62.5 -31.5t23 -20l-96 -109q0 2 -36 16.5t-89.5 26.5t-113.5 12
q-118 0 -220 -55q2 6 4 9z" />
    <glyph glyph-name="three" unicode="3" horiz-adv-x="599" 
d="M20 180l88 97l248 -207q39 45 39 102q0 50 -30.5 99t-84.5 83.5t-122 44.5v57q100 54 151 122.5t77 164.5l-55 32l-125 -152l-127 51l159 176l305 -137q-20 -86 -77.5 -158.5t-146.5 -111.5q84 -8 150.5 -52t66.5 -141q0 -85 -65 -140.5t-146 -85t-81 -24.5z" />
    <glyph glyph-name="four" unicode="4" horiz-adv-x="613" 
d="M372 45q-41 32 -41 76v132h-207l-104 152l331 445q30 0 58 -13.5t45 -37t17 -52.5v-354h36l86 -140h-122v-95q0 -30 19 -49t46 -19q11 0 21 3l11 -17l-109 -76q-46 13 -87 45zM331 743l-262 -348l262 -1v349z" />
    <glyph glyph-name="five" unicode="5" horiz-adv-x="578" 
d="M20 128l115 135l217 -179q29 30 44 73t15 91q0 82 -42.5 153.5t-121.5 100.5l-203 -121l50 469h395l-36 -140h-314l-28 -252l208 155q31 0 81 -28.5t88.5 -88.5t38.5 -150q0 -133 -64 -210t-136.5 -106.5t-104.5 -29.5z" />
    <glyph glyph-name="six" unicode="6" horiz-adv-x="600" 
d="M222.5 54.5q-77.5 44.5 -140 130t-62.5 208.5q0 120 63 222t141.5 172.5t78.5 62.5l200 -97l-80 -123l-194 101q-39 -57 -58.5 -121.5t-19.5 -129.5q0 -35 6 -70l262 169q58 -30 109.5 -88.5t51.5 -140.5q0 -87 -42.5 -160.5t-96 -121t-92.5 -68.5q-49 10 -126.5 54.5z
M428 247q0 83 -32.5 140.5t-71.5 91.5l-161 -101q23 -95 83.5 -169.5t150.5 -114.5q31 78 31 153z" />
    <glyph glyph-name="seven" unicode="7" horiz-adv-x="530" 
d="M136 377q98 188 237 333h-236q-71 0 -113 -58l-4 3l75 195h407l8 -17q-128 -182 -195.5 -320.5t-92 -256t-24.5 -256.5h-160q0 189 98 377z" />
    <glyph glyph-name="eight" unicode="8" horiz-adv-x="575" 
d="M80 53q-60 53 -60 141q0 62 49 124.5t113 114.5q-67 22 -92.5 54.5t-23.5 83.5q1 75 54 154t98 126q128 -2 219.5 -33.5t91.5 -130.5q0 -41 -39 -91.5t-93 -99.5q84 -42 121 -90.5t37 -118.5q0 -76 -38 -142t-106.5 -105.5t-154.5 -39.5q-116 0 -176 53zM424 609
q0 30 -30 48t-85 29t-148 22q-26 -43 -26 -68q0 -45 72 -69q98 -32 162 -62q55 35 55 100zM412 161.5q45 16.5 73.5 46.5t28.5 68q0 46 -68.5 81t-191.5 58q-19 3 -33 7q-84 -55 -84 -145q0 -63 53.5 -97.5t127.5 -34.5q49 0 94 16.5z" />
    <glyph glyph-name="nine" unicode="9" horiz-adv-x="613" 
d="M52 107l83 125l248 -131q33 39 52.5 101.5t19.5 132.5q0 67 -11 126l-246 -196q0 -4 -49.5 34t-89 95t-39.5 127q0 77 44 152.5t100 126t83 50.5q68 0 147.5 -33.5t139 -119.5t59.5 -230q0 -143 -64.5 -247.5t-138.5 -161t-115 -72.5zM435 500q-27 102 -94.5 170
t-187.5 83q-12 -39 -12 -94q0 -85 33 -160.5t108 -108.5z" />
    <glyph glyph-name="colon" unicode=":" horiz-adv-x="277" 
d="M50 452l89 90l88 -88l-90 -89zM50 107l89 90l88 -88l-90 -89z" />
    <glyph glyph-name="question" unicode="?" 
d="M163 340l102 108v204q0 34 -11 46l-72 82q-22 -20 -22 -38v-112q0 -31 10 -44l15 -21l-105 -74q-22 18 -41 42.5t-19 40.5v113q0 18 13 37.5t36 30.5l222 95l92 -82q22 -20 22 -49v-303l-158 -166zM158 107l89 90l88 -88l-90 -89z" />
    <glyph glyph-name="A" unicode="A" horiz-adv-x="490" 
d="M396.5 20.5q-33.5 18.5 -58.5 43.5q-46 -27 -65 -40l-4 4q28 34 28 90v336l-108 -63v-253q0 -27 -21.5 -46t-73.5 -49q-10 -6 -31 -18.5t-38 -24.5l-4 4q28 34 28 90v544q0 28 24.5 49.5t82.5 55.5q27 16 65 41v-5q-32 -38 -32 -89v-216l108 63v175l-72 72l110 67l86 -73
l48 30v-5q-32 -38 -32 -89v-602q0 -37 4.5 -62t20.5 -50l-4 -4q-28 6 -61.5 24.5z" />
    <glyph glyph-name="B" unicode="B" horiz-adv-x="471" 
d="M167 -96q20 46 56 102q-76 45 -116 84l-25 -16q-14 -8 -44 -28l-4 4q28 35 28 93v556q0 50 -9 85t-33 62l4 4q25 -8 59 -23.5t62 -32.5l19 12q59 37 70 44v-4q-32 -40 -32 -92v-26l105 161l-1 -39q51 -31 96 -72.5t45 -71.5v-97q0 -16 -19.5 -39t-61.5 -61l-37 -34
l98 -67q24 -16 24 -54v-236q-71 -26 -154 -87.5t-126 -130.5zM307 507v160q0 20 -15.5 36t-48.5 40l-41 -70v-267zM278 80q27 36 33 45v173q0 13 -2.5 20.5t-10.5 13.5l-70 51l-26 -24v-242q0 -31 8 -57.5t19 -44.5q20 29 49 65z" />
    <glyph glyph-name="C" unicode="C" horiz-adv-x="406" 
d="M75 109q-20 14 -33 27q-19 -10 -46 -27l-4 3q28 34 28 86v517q0 26 24 45.5t81 52.5q46 26 67 40v-4q-28 -33 -32 -74l92 75l134 -184q-23 -28 -36.5 -53.5t-28.5 -62.5q-15 -39 -29 -65l-4 3q0 48 -20.5 104t-89.5 155q-8 -7 -13 -15.5t-5 -23.5v-467q0 -15 22 -32
l94 -69l55 77l25 -18l-129 -199z" />
    <glyph glyph-name="D" unicode="D" horiz-adv-x="470" 
d="M205 -95q-1 49 25 98q-74 42 -122 87l-25 -16q-14 -8 -44 -28l-4 4q28 35 28 93v556q0 50 -9 85t-33 62l4 4q25 -8 59 -23.5t62 -32.5l19 12q59 37 70 44v-4q-32 -40 -32 -92v-45l104 186v-57l111 -74q15 -10 22.5 -26t7.5 -34v-599q-46 -17 -98 -49t-92 -73t-49 -82z
M263.5 58q16.5 21 44.5 54v528q0 33 -13 42l-54 39l-38 -66v-538q0 -34 9 -61.5t21 -45.5q14 27 30.5 48z" />
    <glyph glyph-name="E" unicode="E" horiz-adv-x="406" 
d="M75 109q-20 14 -33 27q-19 -10 -46 -27l-4 3q28 34 28 86v517q0 26 24 45.5t81 52.5q46 26 67 40v-4q-28 -33 -32 -74l92 75l134 -184q-23 -28 -36.5 -53.5t-28.5 -62.5q-15 -39 -29 -65l-4 3q0 48 -20.5 104t-89.5 155q-8 -7 -13 -15.5t-5 -23.5v-225q32 -1 55 -4.5
t54 -10.5v-8q-29 0 -60 -17t-49 -43v-159q0 -15 22 -32l94 -69l55 77l25 -18l-129 -199z" />
    <glyph glyph-name="F" unicode="F" horiz-adv-x="451" 
d="M20 -100q36 93 36 171v677q0 55 -32 97v5q18 -13 64 -43l39 -26l171 85l91 -97q11 -12 23.5 -16t18.5 -1v-3l-112 -95l-106 137q-11 -8 -14 -17t-3 -25v-153q28 0 47.5 -3.5t44.5 -11.5v-8q-26 0 -52.5 -20t-39.5 -50v-401q0 -62 28 -98l-4 -4q-19 14 -62 41
q-7 -6 -34.5 -29t-53.5 -53t-46 -63z" />
    <glyph glyph-name="G" unicode="G" 
d="M170 -80q0 30 8 62q-16 21 -62 65q-51 51 -63 65l-26 -16l-31 -19l-4 4q28 32 28 88v531q0 27 24 47.5t83 55.5q33 18 65 39v-4q-16 -19 -24 -40t-8 -48v-55l100 199v-57l32 -18q51 -28 80 -53.5t29 -62.5v-52q0 -30 -27.5 -56.5t-79.5 -61.5q-40 -28 -53 -40l-4 4
q24 36 24 83v74q0 19 -14.5 34.5t-42.5 36.5l-44 -87v-460q35 -43 76 -85q20 26 29 36v185q0 39 -6 67.5t-31 56.5l5 15q80 -34 172 -82v-257q-30 -8 -82.5 -40t-96 -75t-52.5 -83z" />
    <glyph glyph-name="H" unicode="H" horiz-adv-x="509" 
d="M215 -103q10 96 103 207v361l-126 -73v-222q0 -46 -34 -72l-130 -98l-4 4q28 38 28 100v70l-24 -14l-4 3q28 31 28 80v519q0 57 -32 100l4 4q42 -36 98 -71l36 19q11 6 31 16.5t35 19.5v-4q-32 -34 -32 -79v-292l126 73v206q0 28 -8 49.5t-24 41.5v5l55 -36
q27 -15 33 -20q42 28 68 51.5t43 59.5l4 -4q-31 -69 -31 -150v-607q0 -57 28 -92l-4 -4q-4 3 -63 40q-7 5 -21 13q-160 -120 -179 -208z" />
    <glyph glyph-name="I" unicode="I" horiz-adv-x="241" 
d="M23 4q28 38 28 99v645q0 57 -31 97v5q24 -18 69 -48l28 -18l46 31q42 28 58 40v-5q-32 -43 -32 -98v-650q0 -61 27 -98l-4 -4q-9 7 -74 51l-18 11l-18 -12q-41 -26 -75 -50z" />
    <glyph glyph-name="J" unicode="J" horiz-adv-x="244" 
d="M-40 -60q3 4 28 36.5t44.5 84t19.5 102.5v497q0 35 22 66.5t54 57.5t96 73v-5q-32 -43 -32 -99v-623q-42 -49 -77.5 -79t-95.5 -75q-28 -19 -55 -40z" />
    <glyph glyph-name="K" unicode="K" horiz-adv-x="493" 
d="M463 -52q-25 12 -65 35q-5 3 -37 21.5t-56 25.5v260q0 15 -3.5 26.5t-16.5 20.5l-53 38l-29 -39v-219q0 -37 11 -67.5t24 -45.5l-4 -4q-41 25 -77.5 50t-63.5 56l-54 -33l-4 4q28 34 28 89v533q0 50 -9 85t-33 62l4 4q26 -8 59 -23t60 -32q14 8 21 13q30 16 70 42v-4
q-32 -38 -32 -89v-375l99 139v169q0 30 8.5 48.5t22.5 30t41 26.5q28 16 50 32t45 39l4 -4q-32 -43 -32 -107v-134l-38 -39q-30 -30 -50 -51.5t-39 -48.5q6 -3 45.5 -26t62.5 -49.5t23 -52.5v-319q0 -31 20 -56t44 -39l-4 -4q-17 0 -42 12z" />
    <glyph glyph-name="L" unicode="L" horiz-adv-x="224" 
d="M264.5 -124q-15.5 12 -26 21t-15.5 13q-58 53 -107.5 83t-110.5 30l-3 6q31 20 58 26v646q21 23 56 73q30 43 57 75.5t59 58.5v-5q-32 -43 -32 -99v-628q0 -35 -26 -67.5t-62 -52.5q48 -4 84 -21t91 -53q5 -3 40.5 -26t78.5 -44q14 -6 25 -6q12 0 30 7l2 -2
q-21 -23 -64 -40.5t-78 -17.5q-18 0 -30 6q-11 5 -26.5 17z" />
    <glyph glyph-name="M" unicode="M" horiz-adv-x="745" 
d="M347.5 84.5q-40.5 36.5 -40.5 64.5v471l-40 58l-65 -168v-393q0 -37 11 -67.5t24 -45.5l-4 -4q-94 55 -136 100q-8 -5 -26 -14.5t-33 -18.5l-4 3q28 31 28 82v547q0 50 -9 85t-33 62l4 4q46 -15 98 -43t71 -55l41 23v-4q-32 -35 -32 -81v-121l106 281l140 -140v-140
l106 280l140 -140l-1 -624q0 -56 32 -99v-5q-91 66 -131.5 102.5t-40.5 64.5v471l-43 58l-62 -170l-1 -422q0 -56 32 -99v-5q-91 66 -131.5 102.5z" />
    <glyph glyph-name="N" unicode="N" horiz-adv-x="500" 
d="M354 85q-46 45 -46 74v482l-56 64l-49 -80v-508q0 -37 11 -67.5t24 -45.5l-4 -4q-102 59 -145 111q-16 -8 -50 -28l-4 3q28 31 28 82v531q0 50 -9 85t-33 62l4 4q40 -12 88 -37t72 -50q16 8 50 28v-4q-32 -35 -32 -81v-36l106 180l140 -140l-1 -624q0 -56 32 -99v-5
q-80 58 -126 103z" />
    <glyph glyph-name="O" unicode="O" 
d="M80 52q-21 12 -38 31t-21 46l-26 -15l-4 3q28 31 28 82v491q0 25 24.5 44t82.5 51q44 24 65 37v-4q-28 -30 -31 -69v-558q0 -23 19 -39l51 -41l35 46v513q0 10 -4 20t-11 16l-57 46l71 101l107 -71q16 -10 25 -27.5t9 -35.5v-502l-140 -170v59l-77 -113z" />
    <glyph glyph-name="P" unicode="P" horiz-adv-x="457" 
d="M20 -81q15 20 23.5 62.5t8.5 86.5v627q0 46 -32 81v4q43 -25 59 -33q18 16 62 42q59 38 83 56v-5q-32 -43 -32 -99v-46l104 207q0 -40 24 -69t67 -64q27 -22 38.5 -34t11.5 -24v-275q0 -35 -75.5 -96t-143.5 -100l-4 4q24 25 53.5 73.5t29.5 82.5v262q0 9 -5 19.5
t-13 17.5l-39 34l-48 -95v-481q0 -51 28 -82l-4 -3l-25 15q-36 -16 -61.5 -41.5t-64.5 -77.5l-41 -53z" />
    <glyph glyph-name="Q" unicode="Q" horiz-adv-x="440" 
d="M461.5 -38q-38.5 17 -86.5 48q-32 22 -52.5 32t-42.5 10v76l-92 -143l-27 15l-25 15q-53 31 -83 56t-33 57q-8 -4 -24 -14l-4 3q28 31 28 82v491q0 25 24.5 44t82.5 51q44 24 65 37v-4q-32 -35 -32 -81v-554q0 -21 17.5 -38.5t52.5 -41.5l50 76v491q0 21 -17 38t-55 44
l71 101q6 -4 12.5 -7.5t11.5 -6.5q54 -31 85.5 -58.5t31.5 -61.5v-595q0 -41 21 -82t52 -67t60 -26l-2 -4q-51 0 -89.5 17z" />
    <glyph glyph-name="R" unicode="R" horiz-adv-x="489" 
d="M81 121l-42 -24l-4 3q28 31 28 82v517q0 50 -9 85t-33 62l4 4q36 -11 80 -33.5t71 -45.5q7 4 59 34v-4q-32 -35 -32 -81v-7l97 153v-28q59 -38 100 -73.5t41 -74.5v-169q-109 -52 -161 -85q59 -24 112 -57.5t53 -63.5v-209q0 -79 24 -102l-4 -4q-57 29 -108.5 75
t-51.5 81v205q0 30 -59 51q-31 -24 -43 -43v-252q0 -37 11 -67.5t24 -45.5l-4 -4q-116 69 -153 121zM271 459q28 20 30 22v173q0 19 -14.5 34.5t-42.5 36.5l-41 -69v-249q14 16 68 52z" />
    <glyph glyph-name="S" unicode="S" horiz-adv-x="467" 
d="M87 123q-44 88 -105 88q-18 0 -41 -10l-4 5q23 23 76 45t93 22q35 0 47 -18l103 -179q8 6 14.5 22.5t6.5 32.5v330l-171 -60q-9 -3 -17 -3q-19 0 -29.5 14t-10.5 30v266q0 26 10.5 43.5t27 29.5t49.5 31q48 28 82 54l4 -4q-5 -7 -14.5 -20t-13.5 -26t-4 -34v-25l30 27
q30 26 47.5 43.5t30.5 38.5l149 -171q-22 -25 -33 -43t-24 -46q-16 -35 -26 -51l-4 3q2 10 2 16q0 24 -9.5 41t-22.5 34l-98 118q-22 -15 -42 -39v-269l181 64q8 2 12 2q14 0 24.5 -9.5t10.5 -18.5v-362q-23 0 -72.5 -25.5t-97.5 -65t-70 -79.5z" />
    <glyph glyph-name="T" unicode="T" horiz-adv-x="501" 
d="M188 109v551q0 53 -32 95t-71 67.5t-65 34.5l4 4q19 -3 42.5 -10.5t32.5 -10.5q46 -15 78.5 -23t67.5 -8q44 0 109.5 22.5t122.5 51.5l4 -5q-52 -29 -102.5 -79t-50.5 -104v-586q-25 -55 -36.5 -90.5t-11.5 -65.5q0 -37 19 -75l-4 -4q-107 146 -107 235z" />
    <glyph glyph-name="U" unicode="U" horiz-adv-x="489" 
d="M341.5 99.5q-44.5 43.5 -44.5 72.5l-1 89l-105 -261l-131 132q-13 -6 -32 -18l-4 3q28 31 28 82v565q0 56 -32 99v5l44 -32q59 -42 80 -59q43 23 80 45v-4q-32 -35 -32 -81v-528l37 -37l68 165v376q0 24 28 49t96 74q-3 -2 48 34v-5q-32 -43 -32 -99v-664q0 -61 28 -99
v-5q-79 58 -123.5 101.5z" />
    <glyph glyph-name="V" unicode="V" horiz-adv-x="457" 
d="M137 98.5q-62 61.5 -93 118.5l-48 -27l-4 3q28 31 28 79v477q0 24 25 43t85 51l62 33v-3q-32 -35 -32 -79v-478q0 -34 20 -75.5t45.5 -75t39.5 -42.5v566q0 26 17 44.5t56 46.5q30 22 51.5 39t43.5 41l4 -4q-32 -43 -32 -99v-515l12 -12l-152 -240q-66 47 -128 108.5z
" />
    <glyph glyph-name="W" unicode="W" horiz-adv-x="739" 
d="M56 130l-34 -19l-4 3q28 31 28 82v568q0 56 -32 99v5l29 -21q73 -55 94 -74l30 17q19 10 51 29v-4q-32 -35 -32 -81v-504l43 -58l62 170l1 422q0 56 -32 99v5q91 -66 131.5 -102.5t40.5 -64.5v-471l40 -58l65 168v393q0 37 -11 67.5t-24 45.5l4 4q94 -55 136 -100
q8 5 26 14.5t33 18.5l4 -3q-28 -31 -28 -82v-547q0 -49 9 -84.5t33 -62.5l-4 -4q-46 15 -98 43t-71 55l-41 -23v4q32 35 32 81v121l-106 -281l-140 140v140l-106 -280z" />
    <glyph glyph-name="X" unicode="X" horiz-adv-x="495" 
d="M109 80.5q-53 42.5 -54 86.5v101l172 144l-143 97q-16 11 -22.5 25.5t-6.5 36.5v162q0 37 -11 67.5t-24 45.5l4 4q64 -38 117 -80.5t54 -86.5v-186l74 -49l31 26v259q0 37 -11 67.5t-24 45.5l4 4q64 -38 117 -80.5t54 -86.5v-136l-141 -119l113 -74q11 -8 19.5 -22.5
t8.5 -27.5v-187q0 -37 11 -67.5t24 -45.5l-4 -4q-64 38 -117 80.5t-54 86.5v196l-43 29l-62 -52v-223q0 -37 11 -67.5t24 -45.5l-4 -4q-64 38 -117 80.5z" />
    <glyph glyph-name="Y" unicode="Y" horiz-adv-x="473" 
d="M48 100q38 42 58 67.5t44 65.5l4 -3q-5 -15 -5 -28q0 -52 60 -123l9 -10q25 18 44 45t19 55v305l-90 -184l-156 95l1 377q0 57 -32 100l4 4q84 -62 126 -103t42 -77v-232l47 -33l58 122v170q0 46 -32 81v4q40 -24 70 -39q40 42 130 107l4 -4q-16 -21 -24 -44.5t-8 -53.5
v-589q0 -51 28 -82l-4 -3q-15 9 -33 18.5t-26 14.5l-34 19q-52 -37 -114.5 -91t-99.5 -90z" />
    <glyph glyph-name="Z" unicode="Z" horiz-adv-x="465" 
d="M64 -20q1 30 -4 56t-16 58q-9 27 -13 45.5t-4 38.5q0 44 24 89l239 455q-59 35 -94 41q-25 -40 -49.5 -106.5t-24.5 -105.5q0 -13 3 -21l-4 -3q-13 22 -37 83q-17 46 -31 75.5t-33 50.5l68 122q142 -58 228 -89q27 48 39 76.5t20 66.5l4 -2q-2 -37 7 -63.5t26 -59.5
q11 -22 16.5 -36t5.5 -30q0 -17 -7 -34l-297 -575l105 -41q6 26 50 100q40 69 60.5 114t16.5 81l4 3q21 -75 38 -112.5t41 -64.5q-16 -16 -39.5 -48t-41.5 -71t-18 -73l-233 77q-3 -7 -18.5 -37.5t-24.5 -60.5z" />
    <glyph glyph-name="a" unicode="a" 
d="M237 0q16 20 22 36.5t6 37.5v58l-77 -132l-126 59q-16 7 -29 23.5t-13 33.5v161q0 24 42 45l203 105v116q0 15 -14 23l-72 -68q-35 -32 -35 -79q0 -11 1 -17l-4 -4q-63 105 -63 147q0 15 8 22l108 93l154 -104q57 -38 57 -89v-340q0 -12 -27.5 -38t-66.5 -52.5t-70 -40.5
zM265 183v212l-87 -50q-9 -5 -13.5 -13.5t-4.5 -17.5v-148q0 -20 20 -32l42 -26z" />
    <glyph glyph-name="b" unicode="b" 
d="M162 -103q0 56 14.5 93t30 54.5t58.5 59.5v373q0 19 -14.5 34.5t-42.5 36.5l-48 -95v-449l-4 -4q-12 22 -29 36.5t-45 33.5q-32 21 -47 37.5t-15 43.5v516q66 36 113 76.5t118 122.5l4 -4q-21 -28 -58 -101t-37 -101v-150l104 207v-57q6 -4 12.5 -7.5t11.5 -6.5
q54 -31 85.5 -58.5t31.5 -61.5v-429q-46 -17 -98 -49t-92 -73t-49 -82z" />
    <glyph glyph-name="c" unicode="c" horiz-adv-x="429" 
d="M60 118q-17 11 -28.5 28.5t-11.5 38.5v295q0 26 13.5 43.5t43.5 32.5l216 108l116 -136q-23 -28 -36.5 -53.5t-28.5 -62.5q-15 -39 -29 -65l-4 4q5 30 5 49q0 38 -22 70l-92 129q-12 -5 -27 -17.5t-15 -25.5v-322q0 -11 7 -23t15 -17l127 -82l46 59l19 -19l-123 -154z
" />
    <glyph glyph-name="d" unicode="d" 
d="M209.5 -82q-40.5 51 -93.5 95.5t-96 66.5v446q0 34 31.5 61.5t85.5 58.5q5 3 11.5 6.5t12.5 7.5v57l104 -237v180q0 28 -37 101t-58 101l4 4q71 -82 118 -122.5t113 -76.5v-515q0 -25 -20 -45t-62 -47q-29 -19 -47.5 -33t-31.5 -31l-3 4l9 24q8 19 11.5 32t3.5 32v336
l-48 124q-28 -21 -42.5 -36.5t-14.5 -34.5v-390q46 -56 74.5 -118t28.5 -143h-4q-9 41 -49.5 92z" />
    <glyph glyph-name="e" unicode="e" horiz-adv-x="393" 
d="M44 137q-24 18 -24 36v307q0 20 10.5 35.5t27.5 25.5l197 119l118 -193l-213 -184v-54q0 -16 22 -32l103 -77l67 73l18 -23l-142 -170zM259 417l-90 153q-9 -4 -9 -14v-224z" />
    <glyph glyph-name="f" unicode="f" horiz-adv-x="409" 
d="M20 -100q36 93 36 171v435q0 15 14 31.5t33 25.5l195 97l91 -97q-20 -22 -33 -44t-27 -54q-16 -36 -31 -60l-4 3q3 9 3 19q0 30 -22 67.5t-62 90.5q-11 -8 -14 -17t-3 -25v-157q28 0 47.5 -3.5t44.5 -11.5v-8q-26 0 -52.5 -20t-39.5 -50v-197q0 -16 -12.5 -30t-42.5 -39
q-38 -33 -65.5 -61.5t-51.5 -69.5z" />
    <glyph glyph-name="g" unicode="g" 
d="M56 -132q5 5 13 15q29 32 43.5 50t36.5 54l4 -4q-4 -9 -4 -23q0 -30 28 -68l26 -35q23 25 42.5 66t19.5 70v237l-106 -230l-139 140v324q0 46 35 77t100 66q59 32 82 53l55 -24q53 -21 83 -47.5t30 -76.5v-506q-47 -17 -125 -106.5t-134 -170.5zM265 298v258q0 37 -12 65
q-41 -17 -67 -41.5t-26 -62.5v-308l41 -41z" />
    <glyph glyph-name="h" unicode="h" horiz-adv-x="453" 
d="M224.5 1.5q28.5 55.5 68.5 102.5v373q0 19 -13.5 34.5t-35.5 30.5l-56 -110v-280q0 -29 -21.5 -50t-74.5 -56q-42 -27 -68 -46l-4 4q28 38 28 100v601q0 31 25 56t83 63l60 42l4 -4q-32 -43 -32 -100v-262l104 217v-57q6 -4 12.5 -7.5t11.5 -6.5q54 -31 85.5 -58.5
t31.5 -61.5v-382q-217 -149 -239 -251h-4q6 53 34.5 108.5z" />
    <glyph glyph-name="i" unicode="i" horiz-adv-x="240" 
d="M38 760l89 90l88 -88l-90 -89zM20 4q15 20 21.5 43.5t6.5 54.5v409q0 29 21 49t70 49q64 42 77 51l4 -4q-32 -43 -32 -100v-415q0 -20 -21 -39.5t-72 -52.5q-45 -30 -71 -49z" />
    <glyph glyph-name="j" unicode="j" horiz-adv-x="247" 
d="M50 760l89 90l88 -88l-90 -89zM-40 -266q11 16 34 60t40.5 90.5t17.5 72.5v507q0 35 22 66.5t54 57.5t96 73v-5q-32 -43 -32 -99v-557q-22 -21 -42.5 -46t-38.5 -49l-24 -32q-37 -51 -65 -84t-58 -59z" />
    <glyph glyph-name="k" unicode="k" horiz-adv-x="467" 
d="M20 -29q10 27 15 60.5t5 57.5v578q66 36 113 76.5t118 122.5l4 -4q-21 -28 -58 -101t-37 -101v-177l190 177q0 -32 9 -88q7 -35 7 -56q0 -42 -30 -76q-29 -32 -128 -119q10 4 98 35l46 16q0 -57 7 -128.5t22 -110.5q7 -17 19 -17q10 0 38 13l4 -7l-171 -122
q-15 16 -19.5 46.5t-7.5 88.5q-3 53 -7 85t-17.5 54t-40.5 22q-9 0 -19 -3v-128q0 -21 -16 -41t-51 -53q-33 -31 -53.5 -53.5t-35.5 -50.5zM209 342.5q24 20.5 40 53.5t16 75q0 24 -6 54l-79 -75v-132q5 4 29 24.5z" />
    <glyph glyph-name="l" unicode="l" horiz-adv-x="240" 
d="M20 4q28 38 28 100v601q0 30 24.5 54t82.5 62q11 8 27.5 18.5t37.5 26.5v-5q-32 -43 -32 -99v-610q0 -29 -21.5 -50t-74.5 -56q-42 -27 -68 -46z" />
    <glyph glyph-name="m" unicode="m" horiz-adv-x="702" 
d="M514 -1q28 38 28 100v373q0 19 -14.5 34.5t-42.5 36.5l-48 -95v-311q0 -20 -19.5 -37t-66.5 -47q-48 -32 -78 -53l-4 4q28 38 28 100v373q0 19 -14.5 34.5t-42.5 36.5l-48 -95v-317q0 -19 -19 -35t-65 -45q-52 -33 -84 -56l-4 4q32 43 32 99v420q0 27 17.5 43t60.5 39
q58 30 90 55l4 -4q-32 -43 -32 -100v-47l87 172q9 -16 27.5 -31.5t50.5 -37.5q41 -29 60.5 -47t19.5 -39v-21l89 177q9 -18 29 -35.5t51 -40.5q38 -28 57 -47t19 -38v-389q0 -20 -19.5 -37t-66.5 -47q-48 -32 -78 -53z" />
    <glyph glyph-name="n" unicode="n" horiz-adv-x="457" 
d="M20 4q32 43 32 99v409q0 31 20 50t66 45q58 35 82 53l4 -4q-32 -43 -32 -100v-46l104 207v-57q6 -4 12.5 -7.5t11.5 -6.5q54 -31 85.5 -58.5t31.5 -61.5v-379q0 -22 -23.5 -43.5t-81.5 -61.5l-59 -42l-4 4q28 38 28 100v373q0 19 -14.5 34.5t-42.5 36.5l-48 -95v-307
q0 -21 -23 -41.5t-77 -57.5q-48 -32 -68 -47z" />
    <glyph glyph-name="o" unicode="o" horiz-adv-x="426" 
d="M235 -17q2 6 11 34q10 31 14.5 50t4.5 36v25l-81 -130l-135 112q-14 12 -21.5 26.5t-7.5 36.5v307q0 30 45 78t119 102l4 -4q-28 -38 -28 -100v-359q0 -20 17.5 -35t54.5 -38l33 50v307q0 28 -15.5 44.5t-49.5 31.5l64 103q7 -4 45.5 -27t67 -52.5t28.5 -56.5v-337
q0 -17 -12 -30.5t-40 -37.5q-39 -32 -66.5 -62.5t-47.5 -77.5z" />
    <glyph glyph-name="p" unicode="p" horiz-adv-x="457" 
d="M20 -266q15 20 23.5 62.5t8.5 86.5v631q0 24 20 42t70 49q45 27 82 55v-5q-32 -43 -32 -99v-46l104 207q0 -40 24 -69t67 -64q27 -22 38.5 -34t11.5 -24v-275q0 -35 -75.5 -96t-143.5 -100l-4 4q24 25 53.5 73.5t29.5 82.5v262q0 9 -5 19.5t-13 17.5l-39 34l-48 -95v-496
q0 -15 2 -26t10 -24q-42 -15 -69.5 -42t-71.5 -85l-39 -50z" />
    <glyph glyph-name="q" unicode="q" 
d="M245 -202q20 71 20 171v190l-77 -174l-82 52q-86 54 -86 115v328q0 30 45 78t119 102l4 -4q-28 -38 -28 -100v-373q0 -20 17 -35t45 -34l43 95v272q0 21 -17 38t-55 44l71 101q61 -31 101 -63t40 -71v-530q0 -18 -12.5 -33t-39.5 -36q-39 -32 -64 -61.5t-40 -75.5z" />
    <glyph glyph-name="r" unicode="r" horiz-adv-x="422" 
d="M20 4q32 43 32 148v369q0 25 18.5 40.5t63.5 41.5q54 30 90 57v-5q-32 -43 -32 -99v-35l125 141l85 -138q-19 -21 -33 -52t-34 -85q-9 -26 -19.5 -51t-19.5 -40l-4 3q6 15 6 44q0 52 -15.5 112.5t-41.5 89.5l-49 -51v-342q0 -23 -11 -40t-27.5 -29t-51.5 -33
q-7 -4 -31.5 -18.5t-46.5 -31.5z" />
    <glyph glyph-name="s" unicode="s" horiz-adv-x="452" 
d="M87 96.5q-26 32.5 -41 43.5t-31 11l-4 6q24 18 59 33t66 15q36 0 54 -23l88 -108v282l-172 -48q-37 -10 -55 -56l-1 89v209q0 29 19.5 45t66.5 38q51 23 82 42l4 -3q-5 -6 -14.5 -16.5t-13.5 -20.5t-4 -26v-20l30 21q31 22 48 35t30 30l120 -94l-22 -40q-21 -41 -34 -63
t-31 -46l-5 2q0 3 2 14.5t2 21.5q0 19 -8 26l-104 93q-10 -6 -16.5 -12.5t-11.5 -10.5v-212l181 51q32 10 61 36q-14 -33 -14 -57v-285q-24 0 -78 -15t-104.5 -39.5t-71.5 -52.5q-51 72 -77 104.5z" />
    <glyph glyph-name="t" unicode="t" horiz-adv-x="303" 
d="M106 64.5q-54 40.5 -54 88.5v421q0 29 -6.5 51t-25.5 35v4q23 7 57 30.5t65.5 63.5t45.5 92l4 -4v-221l87 35l4 -4q-34 -23 -62.5 -61.5t-28.5 -93.5v-348q0 -63 9.5 -91.5t37.5 -57.5l-4 -4q-75 24 -129 64.5z" />
    <glyph glyph-name="u" unicode="u" horiz-adv-x="458" 
d="M20 140v364q0 23 11.5 40t29.5 30.5t55 37.5q57 36 73 48l4 -4q-32 -43 -32 -102v-345l43 -53l62 141v218q0 24 9.5 40t25.5 27t48 27q54 28 85 51l4 -4q-32 -43 -32 -100v-454q0 -31 6.5 -54.5t21.5 -43.5l-4 -4q-37 26 -86 52q-44 24 -61 40t-17 46v106l-106 -244z" />
    <glyph glyph-name="v" unicode="v" horiz-adv-x="472" 
d="M191 29q-17 18 -26 28q-44 46 -73 80t-50.5 77t-21.5 87v211q0 24 19 42t62 46q55 36 83 60l4 -4q-28 -38 -28 -100v-201q0 -69 32 -122t74 -98q13 -15 14 -17v389q0 28 22.5 49.5t77.5 57.5q38 24 68 46l4 -4q-32 -43 -32 -99v-345q0 -22 -11 -39.5t-36 -44.5
q-27 -29 -48.5 -58t-40.5 -70l-4 4v89l-64 -93q-8 11 -25 29z" />
    <glyph glyph-name="w" unicode="w" horiz-adv-x="722" 
d="M161 -6l-111 75q-30 20 -30 48v376q0 32 11 53t29 34.5t53 34.5q37 20 71 45l4 -4q-28 -38 -28 -100v-379q0 -19 14.5 -34.5t42.5 -36.5l68 134v253q0 30 11.5 50.5t30 35t54.5 37.5q39 22 68 44l4 -4q-28 -38 -28 -100v-373q0 -19 14.5 -34.5t42.5 -36.5l48 88v294
q0 29 11.5 49t30 34t55.5 37q7 4 29.5 17.5t41.5 28.5l4 -4q-32 -43 -32 -99v-380q0 -37 -27.5 -65t-89.5 -73q-22 -15 -55 -39v5q32 43 32 99v46l-104 -207v57l-114 78q-27 19 -27 45v61l-124 -247v57z" />
    <glyph glyph-name="x" unicode="x" horiz-adv-x="525" 
d="M268 91l-51 116l-71 -195h-11q-4 8 -17 12.5t-31 4.5q-39 0 -67 -17h-10q8 43 37.5 72t63 42t51.5 10l39 106l-119 270l-57 36l77 113l88 -55l80 -181l90 235q32 -21 71 -21q40 0 67 21q-3 -54 -34 -91t-71.5 -55t-71.5 -18l-31 -88l-8 -8l104 -235l68 -57l37 33l14 -17
l-111 -124z" />
    <glyph glyph-name="y" unicode="y" horiz-adv-x="458" 
d="M58 -144q99 85 138 150l4 -3q-14 -37 -14 -77q0 -45 19 -65l19 -21q42 30 42 90v292l-106 -222l-140 140l1 360q0 26 11.5 45t30 33t53.5 35q45 27 73 47l4 -4q-32 -43 -32 -100v-347l48 -43l57 113v230q0 32 20.5 51.5t69.5 49.5q44 25 78 50l4 -4q-32 -43 -32 -100
v-613q-52 -19 -133 -90.5t-123 -132.5z" />
    <glyph glyph-name="z" unicode="z" horiz-adv-x="470" 
d="M125.5 51.5q-78.5 31.5 -105.5 31.5l277 497q-49 -18 -87 -65.5t-56 -108.5l-4 -3q-7 27 -26 50t-47 49q-3 3 -14 13.5t-14 17.5l149 130q56 -43 115 -54l28 51q0 -34 34.5 -62t74.5 -34l-271 -471q172 52 215 120l4 3q10 -17 16 -40.5t6 -47.5q0 -30 -11 -53t-34 -30
l-129 -49q-42 24 -120.5 55.5z" />
    <glyph glyph-name="quoteleft" unicode="&#x2018;" horiz-adv-x="208" 
d="M50 785l53 73l55 -73l-53 -127z" />
    </font>
</defs>
</svg>
