<?xml version="1.0" standalone="no"?>
<!DOCTYPE svg PUBLIC "-//W3C//DTD SVG 1.1//EN" "http://www.w3.org/Graphics/SVG/1.1/DTD/svg11.dtd" >
<svg xmlns="http://www.w3.org/2000/svg" xmlns:xlink="http://www.w3.org/1999/xlink" version="1.1">
<metadata>
Created by FontForge 20170731 at Tue Jul 18 20:59:27 2023
 By Aleksey,,,
Mergury (c) Nathatype  2023  All Right Reserved
</metadata>
<defs>
<font id="Mergury" horiz-adv-x="1974" >
  <font-face 
    font-family="Mergury"
    font-weight="400"
    font-stretch="normal"
    units-per-em="2048"
    panose-1="0 0 0 0 0 0 0 0 0 0"
    ascent="1638"
    descent="-410"
    x-height="895"
    cap-height="1434"
    bbox="-248 -539 3109 1970"
    underline-thickness="102"
    underline-position="-358"
    unicode-range="U+0020-FB03"
  />
<missing-glyph horiz-adv-x="1443" 
d="M184 0v1434h1076v-1434h-1076zM369 184h706v1065h-706v-1065z" />
    <glyph glyph-name="dollar" unicode="Mergury" horiz-adv-x="3209" 
d="M57 872q-12 -61 4 -61h-43q7 0 15 22.5t10 38.5l102 508q4 17 3.5 41.5t-7.5 24.5h84l76 -563l301 563h88q-17 0 -28 -66l-99 -508q-12 -61 2 -61h-96q7 0 16 22.5t11 38.5l100 508q4 16 4 35q-3 -5 -11 -18t-11 -17l-306 -573h-22l-80 573q0 16 -6 31q-1 -6 -4.5 -18
t-3.5 -13zM926 1212q97 0 135.5 -35.5t25.5 -99.5q-12 -65 -129 -65h-213q-15 -89 15.5 -132.5t111.5 -43.5q35 0 66.5 9t51.5 21.5t35 25t21 21.5l7 9q-34 -53 -81 -83t-124 -30q-109 0 -153.5 49t-24.5 152q20 102 86 152t170 50zM1022 1077q14 68 -7 98.5t-91 30.5
q-69 0 -111.5 -44t-64.5 -140h172q40 0 63.5 10t29.5 20t9 25zM1196 872q-14 -61 6 -61h-112q18 0 30 61l51 254q4 19 2.5 43.5t-10.5 24.5l99 14l-15 -73q48 77 148 77q16 0 25.5 -1t22 -3.5t20 -10t10.5 -19.5l-46 -48q-1 18 -4.5 29.5t-18.5 22t-42 10.5q-38 0 -76.5 -27
t-44.5 -61zM1896 1251q18 -8 14.5 -25.5t-22.5 -19.5q-15 21 -47 21q-38 0 -61 -33q85 -32 67 -129q-29 -147 -231 -147q-82 0 -129 24q-16 -8 -21 -24q-2 -7 3.5 -13t17.5 -6h215q58 0 86.5 -20.5t21.5 -63.5q-9 -48 -69.5 -84.5t-181.5 -36.5q-111 0 -153.5 26.5
t-31.5 76.5q3 23 26 39t48 10q-19 -7 -27.5 -41t24.5 -67t116 -33q81 0 125 28t51 68q7 35 -16 49t-79 14h-149q-34 0 -47 8t-10 27q5 31 45 47q-54 38 -39 119q15 73 75 110t156 37q49 0 96 -14q39 57 97 57q10 0 30 -4zM1778 1065q26 141 -107 141t-162 -141
q-13 -73 13 -108t94 -35q135 0 162 143zM2171 883q-48 -74 -135 -74q-82 0 -114.5 21.5t-23.5 66.5l46 229q4 19 2.5 43.5t-9.5 24.5l99 14l-64 -311q0 -1 -1.5 -7.5t-2 -9.5t-0.5 -10t0.5 -10.5t2.5 -10t5.5 -10t9 -8t13.5 -7t19 -4t24 -1.5q64 0 101.5 40.5t58.5 137.5
l24 129q4 19 3 43.5t-9 24.5l100 14l-69 -344q0 -20 12 -20t23.5 17t17.5 36q-8 -37 -27 -65.5t-51 -28.5q-70 0 -55 80zM2429 811h-113q17 0 29 61l51 254q4 19 3 43.5t-9 24.5l98 14l-16 -73q51 77 149 77q16 0 25.5 -1t22 -3.5t20 -10t10.5 -19.5l-45 -48
q-1 18 -4.5 29.5t-18.5 22t-42 10.5q-38 0 -77 -27t-46 -61l-43 -232q-14 -61 6 -61zM2746 868q4 52 5 104.5t-1.5 104.5t-13.5 84.5t-29 32.5l93 14q4 -9 7.5 -21t5.5 -23.5t3 -28.5t1.5 -29.5t0 -34t-0.5 -33.5t-1.5 -36t-2.5 -34.5t-2.5 -36.5t-2.5 -34q-3 -34 5 -52
t38 -18q59 0 110 62.5t74 150.5q17 61 10.5 96.5t-17 48.5t-19.5 13l63 10q18 -53 -27 -190q-9 -26 -26 -62.5t-47 -84.5t-63.5 -87t-78 -66t-88.5 -26q-42 0 -64.5 22.5t-15.5 57.5q5 23 24.5 42t43.5 13q-10 -3 -17.5 -27t4.5 -47.5t48 -23.5q53 0 95 30t91 103
q-61 -51 -133 -51q-77 0 -72 57zM573 760q-14 0 -14 -66v-508q0 -61 14 -61h-96q15 0 15 59l2 510q0 23 -2 35q-3 -7 -9 -19.5t-8 -15.5l-194 -573h-21l-192 573q-2 10 -13 31q-2 -10 -2 -31v-508q0 -61 17 -61h-45q8 0 12 20.5t4 38.5l2 510q0 21 -5 43.5t-13 22.5h86
l184 -563l192 563h86zM1057 391q0 -65 -117 -65h-211q0 -176 162 -176q35 0 64.5 9t46 21.5t28.5 25t16 21.5l5 9q-22 -53 -63.5 -84t-119.5 -31q-215 0 -215 203q0 202 215 202q189 0 189 -135zM729 336h170q94 0 94 53q0 68 -28 98.5t-97 30.5q-70 0 -104 -44t-35 -138z
M1354 526q68 0 86 -34l-37 -48q-14 62 -78 62q-38 0 -71 -27t-33 -61v-232q0 -61 18 -61h-113q8 0 12.5 20.5t4.5 38.5l4 256q0 20 -6.5 44t-14.5 24l95 14v-73q33 77 133 77zM1829 539q-41 0 -60 -31q93 -36 93 -129q0 -148 -201 -148q-81 0 -133 25q-15 -11 -15 -25
q0 -18 23 -18h215q58 0 91.5 -21.5t33.5 -62.5q0 -48 -54 -83.5t-175 -35.5q-112 0 -158.5 25t-46.5 76q0 22 19 38.5t44 10.5q-8 -11 -16 -42.5t33.5 -65.5t124.5 -34t120 27.5t37 69.5q0 35 -25.5 49t-80.5 14q-80 -2 -150 -2q-34 0 -48.5 8.5t-14.5 28.5q0 31 37 47
q-64 39 -64 119q0 73 54 110t149 37q49 0 100 -14q10 26 33.5 41.5t50.5 15.5q16 0 31 -6l-10 -33q-14 9 -37 9zM1794 379q0 141 -133 141t-133 -141q0 -74 32 -108.5t101 -34.5q133 0 133 143zM2316 193q0 -23 5.5 -45.5t15.5 -22.5h-94v51q-48 -55 -129 -55
q-154 0 -154 88v231q0 21 -6 44.5t-15 23.5l95 14v-313v-5q0 -14 1.5 -23t8 -22.5t25.5 -20.5t49 -7q61 0 93 32t32 81v196q0 21 -5.5 44.5t-13.5 23.5l94 14q-2 -261 -2 -329zM2634 526q68 0 86 -34l-37 -48q-14 62 -78 62q-38 0 -71 -27t-33 -61v-232q0 -61 18 -61h-113
q9 0 14 20t5 39l2 256q0 21 -6 44.5t-15 23.5l95 14v-73q33 77 133 77zM3070 508l39 14l-137 -370q-10 -30 -18.5 -49t-25.5 -44.5t-41.5 -39t-56.5 -13.5q-41 0 -67.5 22.5t-26.5 57.5q0 23 15.5 42t39.5 13q-9 -4 -11.5 -27.5t14 -47t53.5 -23.5q35 0 54.5 15.5t35.5 50.5
q-25 4 -49 61l-97 270q-7 21 -21 44.5t-22 23.5l88 14l123 -360l107 278q7 21 9.5 43t-5.5 25z" />
    <glyph glyph-name="f_j.liga" unicode="fj" horiz-adv-x="759" 
d="M455 1106q0 39 17.5 64.5t45.5 31.5q-207 -3 -211 -305h338v-840q0 -44 -8 -82.5t-31 -79t-59.5 -69.5t-99 -47.5t-144.5 -18.5q-88 0 -143.5 36t-55.5 104q30 -103 199 -103q35 0 62.5 12t45 28.5t30 44t18 48.5t8.5 53t3.5 45.5t0.5 37.5l4 647q0 127 -31 170h-137
v-746q0 -137 41 -137h-252q19 0 29 45t10 90q6 725 8 748h-86v14h88q14 320 371 320q82 0 118 -27.5t36 -83.5q0 -44 -32.5 -76.5t-76.5 -32.5t-75 32t-31 77z" />
    <glyph glyph-name="f_f_j.liga" unicode="ffj" horiz-adv-x="1097" 
d="M436 1102q-68 0 -97 -43t-30 -162h172q6 87 35 154q-18 51 -80 51zM59 897h101q12 45 30 80.5t36.5 58t44 38.5t45 24t47 12.5t42.5 5t39 0.5q46 0 101 -20q88 121 307 121q83 0 119.5 -27.5t36.5 -83.5q0 -44 -32.5 -76.5t-76.5 -32.5t-76 32.5t-32 76.5q0 39 18 64.5
t47 31.5q-207 -3 -211 -305h336v-840q0 -44 -7.5 -82.5t-30.5 -79t-59.5 -69.5t-99 -47.5t-145.5 -18.5q-86 0 -141.5 36t-55.5 104q27 -103 197 -103q35 0 63.5 12t45.5 28.5t30 44t18.5 48.5t8.5 53t3.5 45.5t0.5 37.5l4 647q0 127 -31 170h-137v-746q0 -137 39 -137h-252
q21 0 30 44t9 91q8 725 8 748h-170v-746q0 -137 41 -137h-252q19 0 29 45t10 90l4 600q0 75 17 148h-99v14z" />
    <glyph glyph-name="ff" unicode="ff" horiz-adv-x="833" 
d="M518 993q7 46 -13.5 77.5t-70.5 31.5q-68 0 -97 -43t-30 -162h170q13 49 41 96zM588 1069q80 57 209 57q122 0 211 -41l-68 -98q-22 57 -56 91t-100 34q-154 0 -157 -215h190v-14h-190v-746q0 -137 41 -137h-252q19 0 29 45t10 90l4 600q0 79 16 148h-168v-746
q0 -137 41 -137h-252q19 0 29 45t10 90l4 600q0 75 17 148h-99v14h101q12 45 30 80.5t36.5 58t44 38.5t45 24t47 12.5t42.5 5t39 0.5q87 0 146 -47z" />
    <glyph glyph-name="fi" unicode="fi" horiz-adv-x="759" 
d="M57 897h88q14 320 371 320q82 0 118 -27.5t36 -83.5q0 -44 -32.5 -76.5t-76.5 -32.5t-75 32t-31 77q0 39 17.5 64.5t45.5 31.5q-207 -3 -211 -305h336v-760q0 -137 41 -137h-252q19 0 29 45t10 90l4 578q0 127 -31 170h-137v-746q0 -137 41 -137h-254q21 0 31 45t10 90
q6 725 8 748h-86v14z" />
    <glyph glyph-name="ffi" unicode="ffi" horiz-adv-x="1091" 
d="M307 897h168q6 100 39 158q-19 47 -80 47q-68 0 -97 -43t-30 -162zM784 1106q0 39 18.5 64.5t47.5 31.5q-207 -3 -211 -305h336v-760q0 -137 41 -137h-254q21 0 31 45t10 90l4 578q0 127 -31 170h-137v-746q0 -137 41 -137h-254q21 0 30 44t9 91q8 725 10 748h-168v-746
q0 -137 41 -137h-252q19 0 29 45t10 90l4 600q0 75 17 148h-99v14h101q12 45 30 80.5t36.5 58t44 38.5t45 24t47 12.5t42.5 5t39 0.5q50 0 97 -18q91 119 309 119q81 0 117 -27.5t36 -83.5q0 -44 -32 -76.5t-76 -32.5t-76.5 32.5t-32.5 76.5z" />
    <glyph glyph-name=".notdef" horiz-adv-x="1443" 
d="M184 0v1434h1076v-1434h-1076zM369 184h706v1065h-706v-1065z" />
    <glyph glyph-name=".null" horiz-adv-x="0" 
 />
    <glyph glyph-name="nonmarkingreturn" horiz-adv-x="682" 
 />
    <glyph glyph-name="space" unicode=" " horiz-adv-x="512" 
 />
    <glyph glyph-name="exclam" unicode="!" horiz-adv-x="489" 
d="M254 385h-25q-40 1049 -65 1049h168q-16 0 -35.5 -262.5t-30.5 -524.5zM244 317q54 0 92.5 -38.5t38.5 -92.5q0 -55 -38.5 -94t-92.5 -39t-92.5 39t-38.5 94q0 54 38.5 92.5t92.5 38.5z" />
    <glyph glyph-name="quotedbl" unicode="&#x22;" horiz-adv-x="411" 
d="M123 1165q-27 269 -45 269h117q-11 0 -24.5 -67t-21.5 -135l-8 -67h-18zM219 1434h115q-10 0 -23.5 -67t-21.5 -135l-8 -67h-17q-29 269 -45 269z" />
    <glyph glyph-name="numbersign" unicode="#" horiz-adv-x="1234" 
d="M467 584h209l86 284h-211zM1139 899v-31h-275l-86 -284h289v-33h-299l-141 -473h-103l142 473h-209l-142 -473h-102l141 473h-258v33h269l84 284h-281v31h291l141 471h102l-141 -471h209l141 471h103l-142 -471h267z" />
    <glyph glyph-name="percent" unicode="%" 
d="M59 1315h39q17 0 27 -9t10 -24t-10 -24t-27 -9h-18v-22h-21v88zM115 1282q0 16 -19 16h-16v-30h16q19 0 19 14zM244 1298h-45v-20h39v-16h-39v-19h45v-16h-66v88h66v-17zM365 1282q0 -21 -19 -27l19 -28h-21l-16 24h-19v-24h-18v88h37q17 0 27 -9t10 -24zM326 1268
q18 0 18 14q0 16 -18 16h-17v-30h17zM438 1241q17 0 17 8q0 7 -24.5 14t-24.5 25q0 27 34 27q19 0 31 -6l-6 -17q-12 6 -25 6q-16 0 -16 -8q0 -6 25.5 -13t25.5 -26q0 -26 -39 -26q-23 0 -33 10l7 14q12 -8 28 -8zM512 1270q0 20 13.5 32.5t33.5 12.5t33.5 -12.5t13.5 -32.5
t-13.5 -32.5t-33.5 -12.5t-33.5 12.5t-13.5 32.5zM586 1270q0 12 -8 20t-19 8q-12 0 -19.5 -8t-7.5 -20t7.5 -19.5t19.5 -7.5q11 0 19 7.5t8 19.5zM668 1315l43 -53v53h18v-88h-16l-43 53v-53h-19v88h17zM768 1227l39 88h18l39 -88h-20l-8 18h-41l-7 -18h-20zM829 1262
l-14 32l-12 -32h26zM903 1315h19v-72h43v-16h-62v88zM1069 1315h21v-49q0 -23 18 -23t18 23v49h21v-51q0 -39 -39 -39t-39 39v51zM1225 1241q16 0 16 8q0 7 -24.5 14t-24.5 25q0 27 35 27q18 0 30 -6l-6 -17q-12 6 -24 6q-17 0 -17 -8q0 -6 25 -13t25 -26q0 -26 -35 -26
q-22 0 -35 10l6 14q16 -8 29 -8zM1370 1298h-47v-20h41v-16h-41v-19h47v-16h-65v88h65v-17zM1475 1270q0 20 13.5 32.5t33.5 12.5t33.5 -12.5t13.5 -32.5t-13.5 -32.5t-33.5 -12.5t-33.5 12.5t-13.5 32.5zM1548 1270q0 12 -7.5 20t-18.5 8q-12 0 -19.5 -8t-7.5 -20
t7.5 -19.5t19.5 -7.5q11 0 18.5 7.5t7.5 19.5zM1630 1315l43 -53v53h19v-88h-17l-43 53v-53h-18v88h16zM1743 1315h18v-72h43v-16h-61v88zM1878 1227h-20v30l-33 58h20l25 -41l20 41h21l-33 -58v-30zM76 283v-2h-23l-4 -21h-2l8 45h29l-2 -4h-25l-2 -18h21zM88 272q0 9 5 15
t13 6q15 0 15 -12q0 -9 -5.5 -15t-13.5 -6q-14 0 -14 12zM117 281q0 10 -13 10q-14 0 -14 -19q0 -8 12 -8q15 0 15 17zM137 293h2v-6q3 6 13 6v-4q-12 0 -15 -13l-4 -16h-2zM207 301q-9 0 -15 -6.5t-6 -15.5q0 -15 15 -15q12 0 14 4l2 -2q-6 -6 -16 -6q-19 0 -19 19
q0 11 7.5 18.5t17.5 7.5q4 0 16 -6l-4 -4q-3 6 -12 6zM260 281q0 -9 -5 -15t-13 -6q-6 0 -10.5 3.5t-4.5 8.5q0 9 5.5 15t13.5 6q14 0 14 -12zM242 264q14 0 14 17q0 10 -10 10q-6 0 -10.5 -5.5t-4.5 -13.5t11 -8zM276 293h5l-2 -6q6 6 12 6q10 0 10 -6q6 6 14 6
q11 0 11 -10v-2l-4 -21h-3l5 21v2q0 8 -9 8q-11 0 -14 -12l-4 -19h-2l4 21v2q0 8 -8 8q-12 0 -15 -12l-2 -19h-4zM385 293q10 0 10 -10v-2l-4 -21h-2l4 21v2q0 8 -8 8q-11 0 -14 -12l-2 -19h-4l4 21v2q0 8 -11 8q-9 0 -12 -12l-2 -19h-4l6 33h4l-2 -6q3 6 12 6q10 0 13 -6
q3 6 12 6zM440 276h-28v-4q0 -8 12 -8q8 0 10 2l2 -2q-4 -4 -12 -4q-14 0 -14 12q0 21 16 21q14 0 14 -12v-5zM426 291q-11 0 -14 -12h24v2q0 10 -10 10zM457 293h4l-2 -6q6 6 12 6v-4q-11 0 -14 -13l-2 -16h-4zM496 291q-6 0 -10.5 -5.5t-4.5 -13.5t13 -8q8 0 10 2h2
q-6 -6 -12 -6q-15 0 -15 12q0 9 5.5 15t11.5 6q9 0 12 -6h-2q-4 4 -10 4zM530 303q0 -2 -4 -2q-2 0 -2 2t4 2q2 0 2 -2zM518 260l6 33h2l-6 -33h-2zM567 260h-2v6q-3 -6 -12 -6q-14 0 -14 12q0 21 18 21q8 0 12 -8l2 8h2zM553 264q14 0 14 17q0 10 -10 10q-14 0 -14 -19
q0 -8 10 -8zM588 260h-2l8 47h4zM604 252h-2l2 8v2q0 4 2 4l2 -2v-4zM664 274h-13l-2 -14h-4l10 45h15q14 0 14 -12q0 -19 -20 -19zM657 301l-6 -25h13q16 0 16 17q0 8 -10 8h-13zM696 260h-4l10 47h3zM743 276h-26v-4q0 -8 12 -8q8 0 10 2l2 -2q-8 -4 -12 -4q-16 0 -16 12
q0 9 5 15t13 6q14 0 14 -12q0 -5 -2 -5zM731 291q-11 0 -14 -12h24v2q0 10 -10 10zM786 293h5l-7 -33h-4l2 6q-6 -6 -12 -6q-14 0 -14 12q0 9 5 15t11 6q12 0 12 -8zM770 264q14 0 14 17q0 10 -12 10q-14 0 -14 -19q0 -8 12 -8zM809 264q12 0 12 6q0 4 -9 6t-9 7q0 10 12 10
q8 0 10 -4v-2q-4 4 -10 4q-10 0 -10 -8q0 -4 9 -6t9 -7q0 -10 -14 -10q-4 0 -12 4l4 2q2 -2 8 -2zM866 276h-28v-4q0 -8 12 -8q8 0 10 2l2 -2q-4 -4 -12 -4q-14 0 -14 12q0 21 16 21q14 0 14 -12v-5zM852 291q-8 0 -14 -12h24v2q0 10 -10 10zM913 260h-2l-12 45h4l10 -41
l25 41h2zM956 303q0 -2 -4 -2q-2 0 -2 2l2 2q4 0 4 -2zM944 260l6 33h2l-6 -33h-2zM979 291q-10 0 -10 -8q0 -4 9 -6t9 -7q0 -10 -14 -10q-8 0 -12 4l2 2q2 -2 12 -2q8 0 8 6q0 4 -9 6t-9 7q0 10 14 10q8 0 10 -4l-2 -2q-4 4 -8 4zM999 260l7 33h4l-9 -33h-2zM1012 303
l-2 -2q-4 0 -4 2t4 2q2 0 2 -2zM1028 299h2v-6h10v-4h-10l-4 -19q-2 -2 -2 -4q0 -4 6 -4l4 2l2 -2q-2 -2 -6 -2q-8 0 -8 6v4l4 19h-4v4h6v6zM1929 1174v-7h-1870v7h1870zM1929 1374v-6h-1870v6h1870zM1929 1395v-4h-1870v4h1870zM61 51v4h1870v-4h-1870zM61 74v4h1870v-4
h-1870zM1059 276h872v-4h-872v4zM1235 434q-8 0 -8 -14t8 -14q3 0 4.5 -3t-0.5 -6q-6 -6 -22 -6q-12 0 -15 4t0 17q3 18 -6 30q-14 7 -14 31q0 21 16 21q9 0 10.5 -4t-0.5 -17q-3 -17 -1.5 -20.5t10.5 -1.5q9 1 11.5 10.5t2.5 38.5q-2 42 6 42q2 0 4 -1q12 -2 12 -37
q0 -70 -18 -70zM1165 522q-7 -3 -9.5 -13.5t-2.5 -41.5q0 -53 8 -57q9 -6 5.5 -12.5t-15.5 -6.5t-14 8.5t0 55.5q2 57 -4 60q-3 1 -9 -1q-9 -3 -12.5 -1t-3.5 11q0 10 6 13.5t27 3.5q39 0 45 2q7 3 9.5 -0.5t2.5 -14.5q0 -19 -9 -19q-5 0 -7 9q-3 8 -17 4zM1317 446
q-20 -12 -22 -31q-1 -9 8 -9q3 0 4.5 -3t-0.5 -6q-3 -6 -19 -6q-7 0 -10 4.5t-4.5 20t-1.5 49.5l-2 76h26q24 0 38 -11.5t14 -31.5q0 -39 -31 -52zM1292 481q9 -39 31 -14q15 15 7 36t-30 21q-10 0 -11.5 -8.5t3.5 -34.5zM1479 580q-37 15 -47 32q-20 29 -29 2
q-4 -14 -27 -26q-20 -9 -48.5 -4t-43.5 22q-12 14 -27 8q-38 -22 -75 15q-14 15 -17.5 27t-3.5 46q0 54 -10 54q-12 0 -19.5 -23t-7.5 -59q0 -33 -6.5 -45.5t-27.5 -16.5q-16 0 -19 -24q-19 -86 -88 -64q-20 8 -40.5 30t-24.5 42q-3 11 -8.5 13t-24.5 -1q-31 -3 -49 15
l-21 16l-14 -18q-13 -21 -41 -21h-25v-41q0 -80 -55 -80q-24 0 -45 17q-21 14 -31 53q-9 29 -10 81t2 267q0 65 -6 68q-7 3 -24 -32t-25 -69q-10 -48 -13 -168l-4 -129l-30 4q-24 3 -39 13q-6 10 -13 121q-3 92 -10 123.5t-24 31.5q-31 0 -56.5 -43t-25.5 -94q0 -68 51 -76
q23 -4 22 -11q-4 -12 -48 -13l-32 2q-35 6 -59 30q-19 19 -22.5 29.5t-1.5 44.5q6 78 69 119q40 28 91.5 25.5t80.5 -31.5q27 -27 27 18q0 16 10 49q14 45 40.5 65.5t55 11t47.5 -47.5q10 -21 12 -56t1 -153q-2 -142 1.5 -180.5t16.5 -38.5q19 0 23 46t-13 75q-21 34 -13 79
t38 64q18 13 53 10q33 -4 33 2q0 7 14 9.5t33 -2.5l29 -7l2 -73q1 -76 8 -72q9 7 14 119q4 119 0 123q-24 4 -53 6q-53 3 -88 -12q-44 -19 -63 -11q-8 4 0 13q14 15 57.5 24.5t79.5 5.5q41 -3 61 -8q12 -3 16.5 4.5t10.5 40.5q8 38 16.5 45t40.5 0q12 -4 13.5 -12.5
t-1.5 -48.5l-6 -53h21q12 0 15.5 4t6.5 24q10 69 59.5 109.5t102.5 25.5q51 -15 57 -67q6 -65 -65 -101q-41 -18 -60 -18q-13 0 -16.5 -5.5t-5.5 -27.5q-4 -29 0 -55v-23l22 21q23 23 44 18q29 -6 43 -27.5t20 -68.5q7 -54 16.5 -54t12.5 54q3 35 7 46.5t21 25.5
q18 14 27.5 17.5t28.5 0.5q30 -4 43 -8q13 -6 16 10q7 26 53 8l21 -8l-6 -73q-5 -75 8 -95q17 -26 42 -17t50 50q17 31 20 76q0 37 -11.5 54.5t-39.5 25.5q-24 7 -23 12q3 8 46 10q78 5 108 -50t-14 -124q-37 -58 -109 -72q-28 -4 -39.5 -3.5t-35.5 8.5zM1128 950
q-23 -68 -14 -73q7 -4 37 12q38 20 54.5 51.5t4.5 63.5q-11 35 -38 17.5t-44 -71.5zM791 651q9 19 11 61t-7 48q-19 11 -30 -25q-11 -32 -5 -73q10 -59 31 -11zM1016 563q22 -35 23 21q0 16 -1 41q-1 16 -5 69t-5 76q-4 81 -12 84q-19 12 -23 -2t-4 -82q0 -161 27 -207z
M1376 621q11 20 13 62t-7 54q-8 11 -10.5 10t-11.5 -16q-27 -39 -17 -98q3 -22 13.5 -25.5t19.5 13.5zM1427 516q-51 22 -51 -16q0 -15 10.5 -19.5t16.5 6.5q4 6 8 6.5t7 -4.5t3 -14q0 -11 -3.5 -13t-16.5 1q-17 3 -21 0t-4 -23q0 -18 3 -22t16 -4q18 0 24 6q8 8 13 -6
q2 -9 -2 -13t-17 -4q-21 0 -41 -4q-10 -3 -12 9l-2 63v76h22q31 0 39 2q11 5 14.5 2t0.5 -15q-1 -13 -7 -14zM172 119h-14l-25 80h17l10 -41q1 -4 3 -13.5t3 -13.5q1 4 4 13.5t4 13.5l14 41h13l12 -41q1 -4 3 -13.5t3 -13.5q1 4 3 13.5t3 13.5l13 41h14l-27 -80h-12l-12 39
q-1 4 -4 12t-4 12q-1 -2 -3.5 -11t-3.5 -15zM315 119h-14l-25 80h17l10 -41q1 -4 3 -13.5t3 -13.5q5 22 8 27l13 41h12l14 -41q1 -4 3 -13.5t3 -13.5q1 4 3.5 13.5t3.5 13.5l12 41h14l-26 -80h-13l-12 39q-4 8 -8 24q-4 -16 -8 -26zM459 119h-15l-24 80h14l12 -41
q1 -4 3.5 -13.5t3.5 -13.5q1 4 3 13.5t3 13.5l14 41h12l13 -41q2 -5 8 -27q1 4 3 13.5t3 13.5l12 41h15l-27 -80h-12l-13 39q-4 8 -8 24q-4 -16 -8 -26zM571 117q-10 0 -10 10t10 10q9 0 9 -10t-9 -10zM686 119h-16v45q0 26 -19 26q-16 0 -20 -16q0 -1 -1 -3t-1 -3v-49h-15
v57v23h13l2 -13q11 17 26 17q12 0 21.5 -9t9.5 -28v-47zM719 139q0 14 13 22.5t36 8.5q0 20 -18 20q-12 0 -21 -6l-4 11q16 8 27 8q30 0 30 -35v-31q0 -12 2 -18h-14v8q-10 -10 -25 -10q-26 0 -26 22zM770 160q-35 0 -35 -19q0 -14 13 -14q16 0 20 12q0 2 1 3.5t1 2.5v15z
M862 188h-20v-45q0 -16 10 -16l8 2l2 -10q-4 -2 -14 -2q-11 0 -17 6q-6 12 -6 20v45h-12v11h12v20l17 4v-24h20v-11zM965 119h-15v45q0 26 -18 26q-13 0 -21 -16v-6v-49h-16v119h16v-52q4 7 11 11q12 6 16 6q10 0 18.5 -9t8.5 -28v-47zM1032 203q31 0 31 -35v-31q0 -3 1 -9
t1 -9h-12l-2 8h-2q-7 -10 -25 -10q-10 0 -17.5 6.5t-7.5 15.5q0 14 13.5 22.5t36.5 8.5q0 20 -19 20q-11 0 -20 -6l-4 11q12 8 26 8zM1049 145v15q-33 0 -33 -19q0 -14 12 -14q17 0 21 12v6zM1108 219l12 4v-24h23v-11h-23v-45q0 -16 13 -16q2 0 4.5 1t3.5 1l2 -10
q-4 -2 -15 -2q-10 0 -16 6q-4 4 -4 20v45h-14v11h14v20zM1184 100q8 3 12 17q2 2 2 4v4l-31 74h15l20 -47q0 -9 4 -17q4 8 4 17l19 47h14l-22 -58q-13 -37 -27 -51q-13 -10 -18 -10l-5 12q10 5 13 8zM1288 84h-14v90q0 19 -2 25h14l2 -13q10 17 29 17q14 0 23.5 -12.5
t9.5 -30.5q0 -21 -10.5 -32t-26.5 -11t-25 12v-45zM1288 164v-12v-7q7 -18 23 -18q24 0 24 31q0 32 -22 32q-8 0 -15 -5.5t-8 -14.5q-2 0 -2 -6zM1452 162v-6h-57q0 -13 8.5 -21t19.5 -8t23 4l2 -10q-8 -4 -27 -4t-30 11t-11 30t10.5 32t28.5 13q33 0 33 -41zM1395 166h43
q0 24 -21 24q-17 0 -22 -24zM1503 127q0 -10 -10 -10t-10 10t10 10t10 -10zM1575 190q-13 0 -21 -9t-8 -23q0 -13 8.5 -22t20.5 -9q5 0 11 2t7 2l2 -10q-4 -4 -22 -4q-19 0 -30 11t-11 30t11.5 31t31.5 12q16 0 20 -4l-2 -11q-1 0 -7 2t-11 2zM1702 160q0 -22 -12 -32.5
t-29 -10.5q-15 0 -26 11.5t-11 29.5q0 45 41 45q17 0 27 -12t10 -31zM1638 158q0 -13 7 -22t18 -9t18 9t7 22q0 12 -7 22t-18 10t-18 -9.5t-7 -22.5zM1855 119h-14v45q0 26 -18 26q-14 0 -19 -14v-8v-49h-14v49q0 22 -16 22q-15 0 -19 -16q-2 -2 -2 -6v-49h-14v57v23h12v-13
q13 17 27 17q18 0 22 -19q6 9 10 13q12 6 19 6q10 0 18 -9t8 -28v-47z" />
    <glyph glyph-name="ampersand" unicode="&#x26;" 
d="M59 1315h39q17 0 27 -9t10 -24t-10 -24t-27 -9h-18v-22h-21v88zM115 1282q0 16 -19 16h-16v-30h16q19 0 19 14zM244 1298h-45v-20h39v-16h-39v-19h45v-16h-66v88h66v-17zM365 1282q0 -21 -19 -27l19 -28h-21l-16 24h-19v-24h-18v88h37q17 0 27 -9t10 -24zM326 1268
q18 0 18 14q0 16 -18 16h-17v-30h17zM438 1241q17 0 17 8q0 7 -24.5 14t-24.5 25q0 27 34 27q19 0 31 -6l-6 -17q-12 6 -25 6q-16 0 -16 -8q0 -6 25.5 -13t25.5 -26q0 -26 -39 -26q-23 0 -33 10l7 14q12 -8 28 -8zM512 1270q0 20 13.5 32.5t33.5 12.5t33.5 -12.5t13.5 -32.5
t-13.5 -32.5t-33.5 -12.5t-33.5 12.5t-13.5 32.5zM586 1270q0 12 -8 20t-19 8q-12 0 -19.5 -8t-7.5 -20t7.5 -19.5t19.5 -7.5q11 0 19 7.5t8 19.5zM668 1315l43 -53v53h18v-88h-16l-43 53v-53h-19v88h17zM768 1227l39 88h18l39 -88h-20l-8 18h-41l-7 -18h-20zM829 1262
l-14 32l-12 -32h26zM903 1315h19v-72h43v-16h-62v88zM1069 1315h21v-49q0 -23 18 -23t18 23v49h21v-51q0 -39 -39 -39t-39 39v51zM1225 1241q16 0 16 8q0 7 -24.5 14t-24.5 25q0 27 35 27q18 0 30 -6l-6 -17q-12 6 -24 6q-17 0 -17 -8q0 -6 25 -13t25 -26q0 -26 -35 -26
q-22 0 -35 10l6 14q16 -8 29 -8zM1370 1298h-47v-20h41v-16h-41v-19h47v-16h-65v88h65v-17zM1475 1270q0 20 13.5 32.5t33.5 12.5t33.5 -12.5t13.5 -32.5t-13.5 -32.5t-33.5 -12.5t-33.5 12.5t-13.5 32.5zM1548 1270q0 12 -7.5 20t-18.5 8q-12 0 -19.5 -8t-7.5 -20
t7.5 -19.5t19.5 -7.5q11 0 18.5 7.5t7.5 19.5zM1630 1315l43 -53v53h19v-88h-17l-43 53v-53h-18v88h16zM1743 1315h18v-72h43v-16h-61v88zM1878 1227h-20v30l-33 58h20l25 -41l20 41h21l-33 -58v-30zM76 283v-2h-23l-4 -21h-2l8 45h29l-2 -4h-25l-2 -18h21zM88 272q0 9 5 15
t13 6q15 0 15 -12q0 -9 -5.5 -15t-13.5 -6q-14 0 -14 12zM117 281q0 10 -13 10q-14 0 -14 -19q0 -8 12 -8q15 0 15 17zM137 293h2v-6q3 6 13 6v-4q-12 0 -15 -13l-4 -16h-2zM207 301q-9 0 -15 -6.5t-6 -15.5q0 -15 15 -15q12 0 14 4l2 -2q-6 -6 -16 -6q-19 0 -19 19
q0 11 7.5 18.5t17.5 7.5q4 0 16 -6l-4 -4q-3 6 -12 6zM260 281q0 -9 -5 -15t-13 -6q-6 0 -10.5 3.5t-4.5 8.5q0 9 5.5 15t13.5 6q14 0 14 -12zM242 264q14 0 14 17q0 10 -10 10q-6 0 -10.5 -5.5t-4.5 -13.5t11 -8zM276 293h5l-2 -6q6 6 12 6q10 0 10 -6q6 6 14 6
q11 0 11 -10v-2l-4 -21h-3l5 21v2q0 8 -9 8q-11 0 -14 -12l-4 -19h-2l4 21v2q0 8 -8 8q-12 0 -15 -12l-2 -19h-4zM385 293q10 0 10 -10v-2l-4 -21h-2l4 21v2q0 8 -8 8q-11 0 -14 -12l-2 -19h-4l4 21v2q0 8 -11 8q-9 0 -12 -12l-2 -19h-4l6 33h4l-2 -6q3 6 12 6q10 0 13 -6
q3 6 12 6zM440 276h-28v-4q0 -8 12 -8q8 0 10 2l2 -2q-4 -4 -12 -4q-14 0 -14 12q0 21 16 21q14 0 14 -12v-5zM426 291q-11 0 -14 -12h24v2q0 10 -10 10zM457 293h4l-2 -6q6 6 12 6v-4q-11 0 -14 -13l-2 -16h-4zM496 291q-6 0 -10.5 -5.5t-4.5 -13.5t13 -8q8 0 10 2h2
q-6 -6 -12 -6q-15 0 -15 12q0 9 5.5 15t11.5 6q9 0 12 -6h-2q-4 4 -10 4zM530 303q0 -2 -4 -2q-2 0 -2 2t4 2q2 0 2 -2zM518 260l6 33h2l-6 -33h-2zM567 260h-2v6q-3 -6 -12 -6q-14 0 -14 12q0 21 18 21q8 0 12 -8l2 8h2zM553 264q14 0 14 17q0 10 -10 10q-14 0 -14 -19
q0 -8 10 -8zM588 260h-2l8 47h4zM604 252h-2l2 8v2q0 4 2 4l2 -2v-4zM664 274h-13l-2 -14h-4l10 45h15q14 0 14 -12q0 -19 -20 -19zM657 301l-6 -25h13q16 0 16 17q0 8 -10 8h-13zM696 260h-4l10 47h3zM743 276h-26v-4q0 -8 12 -8q8 0 10 2l2 -2q-8 -4 -12 -4q-16 0 -16 12
q0 9 5 15t13 6q14 0 14 -12q0 -5 -2 -5zM731 291q-11 0 -14 -12h24v2q0 10 -10 10zM786 293h5l-7 -33h-4l2 6q-6 -6 -12 -6q-14 0 -14 12q0 9 5 15t11 6q12 0 12 -8zM770 264q14 0 14 17q0 10 -12 10q-14 0 -14 -19q0 -8 12 -8zM809 264q12 0 12 6q0 4 -9 6t-9 7q0 10 12 10
q8 0 10 -4v-2q-4 4 -10 4q-10 0 -10 -8q0 -4 9 -6t9 -7q0 -10 -14 -10q-4 0 -12 4l4 2q2 -2 8 -2zM866 276h-28v-4q0 -8 12 -8q8 0 10 2l2 -2q-4 -4 -12 -4q-14 0 -14 12q0 21 16 21q14 0 14 -12v-5zM852 291q-8 0 -14 -12h24v2q0 10 -10 10zM913 260h-2l-12 45h4l10 -41
l25 41h2zM956 303q0 -2 -4 -2q-2 0 -2 2l2 2q4 0 4 -2zM944 260l6 33h2l-6 -33h-2zM979 291q-10 0 -10 -8q0 -4 9 -6t9 -7q0 -10 -14 -10q-8 0 -12 4l2 2q2 -2 12 -2q8 0 8 6q0 4 -9 6t-9 7q0 10 14 10q8 0 10 -4l-2 -2q-4 4 -8 4zM999 260l7 33h4l-9 -33h-2zM1012 303
l-2 -2q-4 0 -4 2t4 2q2 0 2 -2zM1028 299h2v-6h10v-4h-10l-4 -19q-2 -2 -2 -4q0 -4 6 -4l4 2l2 -2q-2 -2 -6 -2q-8 0 -8 6v4l4 19h-4v4h6v6zM1929 1174v-7h-1870v7h1870zM1929 1374v-6h-1870v6h1870zM1929 1395v-4h-1870v4h1870zM61 51v4h1870v-4h-1870zM61 74v4h1870v-4
h-1870zM1059 276h872v-4h-872v4zM1235 434q-8 0 -8 -14t8 -14q3 0 4.5 -3t-0.5 -6q-6 -6 -22 -6q-12 0 -15 4t0 17q3 18 -6 30q-14 7 -14 31q0 21 16 21q9 0 10.5 -4t-0.5 -17q-3 -17 -1.5 -20.5t10.5 -1.5q9 1 11.5 10.5t2.5 38.5q-2 42 6 42q2 0 4 -1q12 -2 12 -37
q0 -70 -18 -70zM1165 522q-7 -3 -9.5 -13.5t-2.5 -41.5q0 -53 8 -57q9 -6 5.5 -12.5t-15.5 -6.5t-14 8.5t0 55.5q2 57 -4 60q-3 1 -9 -1q-9 -3 -12.5 -1t-3.5 11q0 10 6 13.5t27 3.5q39 0 45 2q7 3 9.5 -0.5t2.5 -14.5q0 -19 -9 -19q-5 0 -7 9q-3 8 -17 4zM1317 446
q-20 -12 -22 -31q-1 -9 8 -9q3 0 4.5 -3t-0.5 -6q-3 -6 -19 -6q-7 0 -10 4.5t-4.5 20t-1.5 49.5l-2 76h26q24 0 38 -11.5t14 -31.5q0 -39 -31 -52zM1292 481q9 -39 31 -14q15 15 7 36t-30 21q-10 0 -11.5 -8.5t3.5 -34.5zM1479 580q-37 15 -47 32q-20 29 -29 2
q-4 -14 -27 -26q-20 -9 -48.5 -4t-43.5 22q-12 14 -27 8q-38 -22 -75 15q-14 15 -17.5 27t-3.5 46q0 54 -10 54q-12 0 -19.5 -23t-7.5 -59q0 -33 -6.5 -45.5t-27.5 -16.5q-16 0 -19 -24q-19 -86 -88 -64q-20 8 -40.5 30t-24.5 42q-3 11 -8.5 13t-24.5 -1q-31 -3 -49 15
l-21 16l-14 -18q-13 -21 -41 -21h-25v-41q0 -80 -55 -80q-24 0 -45 17q-21 14 -31 53q-9 29 -10 81t2 267q0 65 -6 68q-7 3 -24 -32t-25 -69q-10 -48 -13 -168l-4 -129l-30 4q-24 3 -39 13q-6 10 -13 121q-3 92 -10 123.5t-24 31.5q-31 0 -56.5 -43t-25.5 -94q0 -68 51 -76
q23 -4 22 -11q-4 -12 -48 -13l-32 2q-35 6 -59 30q-19 19 -22.5 29.5t-1.5 44.5q6 78 69 119q40 28 91.5 25.5t80.5 -31.5q27 -27 27 18q0 16 10 49q14 45 40.5 65.5t55 11t47.5 -47.5q10 -21 12 -56t1 -153q-2 -142 1.5 -180.5t16.5 -38.5q19 0 23 46t-13 75q-21 34 -13 79
t38 64q18 13 53 10q33 -4 33 2q0 7 14 9.5t33 -2.5l29 -7l2 -73q1 -76 8 -72q9 7 14 119q4 119 0 123q-24 4 -53 6q-53 3 -88 -12q-44 -19 -63 -11q-8 4 0 13q14 15 57.5 24.5t79.5 5.5q41 -3 61 -8q12 -3 16.5 4.5t10.5 40.5q8 38 16.5 45t40.5 0q12 -4 13.5 -12.5
t-1.5 -48.5l-6 -53h21q12 0 15.5 4t6.5 24q10 69 59.5 109.5t102.5 25.5q51 -15 57 -67q6 -65 -65 -101q-41 -18 -60 -18q-13 0 -16.5 -5.5t-5.5 -27.5q-4 -29 0 -55v-23l22 21q23 23 44 18q29 -6 43 -27.5t20 -68.5q7 -54 16.5 -54t12.5 54q3 35 7 46.5t21 25.5
q18 14 27.5 17.5t28.5 0.5q30 -4 43 -8q13 -6 16 10q7 26 53 8l21 -8l-6 -73q-5 -75 8 -95q17 -26 42 -17t50 50q17 31 20 76q0 37 -11.5 54.5t-39.5 25.5q-24 7 -23 12q3 8 46 10q78 5 108 -50t-14 -124q-37 -58 -109 -72q-28 -4 -39.5 -3.5t-35.5 8.5zM1128 950
q-23 -68 -14 -73q7 -4 37 12q38 20 54.5 51.5t4.5 63.5q-11 35 -38 17.5t-44 -71.5zM791 651q9 19 11 61t-7 48q-19 11 -30 -25q-11 -32 -5 -73q10 -59 31 -11zM1016 563q22 -35 23 21q0 16 -1 41q-1 16 -5 69t-5 76q-4 81 -12 84q-19 12 -23 -2t-4 -82q0 -161 27 -207z
M1376 621q11 20 13 62t-7 54q-8 11 -10.5 10t-11.5 -16q-27 -39 -17 -98q3 -22 13.5 -25.5t19.5 13.5zM1427 516q-51 22 -51 -16q0 -15 10.5 -19.5t16.5 6.5q4 6 8 6.5t7 -4.5t3 -14q0 -11 -3.5 -13t-16.5 1q-17 3 -21 0t-4 -23q0 -18 3 -22t16 -4q18 0 24 6q8 8 13 -6
q2 -9 -2 -13t-17 -4q-21 0 -41 -4q-10 -3 -12 9l-2 63v76h22q31 0 39 2q11 5 14.5 2t0.5 -15q-1 -13 -7 -14zM172 119h-14l-25 80h17l10 -41q1 -4 3 -13.5t3 -13.5q1 4 4 13.5t4 13.5l14 41h13l12 -41q1 -4 3 -13.5t3 -13.5q1 4 3 13.5t3 13.5l13 41h14l-27 -80h-12l-12 39
q-1 4 -4 12t-4 12q-1 -2 -3.5 -11t-3.5 -15zM315 119h-14l-25 80h17l10 -41q1 -4 3 -13.5t3 -13.5q5 22 8 27l13 41h12l14 -41q1 -4 3 -13.5t3 -13.5q1 4 3.5 13.5t3.5 13.5l12 41h14l-26 -80h-13l-12 39q-4 8 -8 24q-4 -16 -8 -26zM459 119h-15l-24 80h14l12 -41
q1 -4 3.5 -13.5t3.5 -13.5q1 4 3 13.5t3 13.5l14 41h12l13 -41q2 -5 8 -27q1 4 3 13.5t3 13.5l12 41h15l-27 -80h-12l-13 39q-4 8 -8 24q-4 -16 -8 -26zM571 117q-10 0 -10 10t10 10q9 0 9 -10t-9 -10zM686 119h-16v45q0 26 -19 26q-16 0 -20 -16q0 -1 -1 -3t-1 -3v-49h-15
v57v23h13l2 -13q11 17 26 17q12 0 21.5 -9t9.5 -28v-47zM719 139q0 14 13 22.5t36 8.5q0 20 -18 20q-12 0 -21 -6l-4 11q16 8 27 8q30 0 30 -35v-31q0 -12 2 -18h-14v8q-10 -10 -25 -10q-26 0 -26 22zM770 160q-35 0 -35 -19q0 -14 13 -14q16 0 20 12q0 2 1 3.5t1 2.5v15z
M862 188h-20v-45q0 -16 10 -16l8 2l2 -10q-4 -2 -14 -2q-11 0 -17 6q-6 12 -6 20v45h-12v11h12v20l17 4v-24h20v-11zM965 119h-15v45q0 26 -18 26q-13 0 -21 -16v-6v-49h-16v119h16v-52q4 7 11 11q12 6 16 6q10 0 18.5 -9t8.5 -28v-47zM1032 203q31 0 31 -35v-31q0 -3 1 -9
t1 -9h-12l-2 8h-2q-7 -10 -25 -10q-10 0 -17.5 6.5t-7.5 15.5q0 14 13.5 22.5t36.5 8.5q0 20 -19 20q-11 0 -20 -6l-4 11q12 8 26 8zM1049 145v15q-33 0 -33 -19q0 -14 12 -14q17 0 21 12v6zM1108 219l12 4v-24h23v-11h-23v-45q0 -16 13 -16q2 0 4.5 1t3.5 1l2 -10
q-4 -2 -15 -2q-10 0 -16 6q-4 4 -4 20v45h-14v11h14v20zM1184 100q8 3 12 17q2 2 2 4v4l-31 74h15l20 -47q0 -9 4 -17q4 8 4 17l19 47h14l-22 -58q-13 -37 -27 -51q-13 -10 -18 -10l-5 12q10 5 13 8zM1288 84h-14v90q0 19 -2 25h14l2 -13q10 17 29 17q14 0 23.5 -12.5
t9.5 -30.5q0 -21 -10.5 -32t-26.5 -11t-25 12v-45zM1288 164v-12v-7q7 -18 23 -18q24 0 24 31q0 32 -22 32q-8 0 -15 -5.5t-8 -14.5q-2 0 -2 -6zM1452 162v-6h-57q0 -13 8.5 -21t19.5 -8t23 4l2 -10q-8 -4 -27 -4t-30 11t-11 30t10.5 32t28.5 13q33 0 33 -41zM1395 166h43
q0 24 -21 24q-17 0 -22 -24zM1503 127q0 -10 -10 -10t-10 10t10 10t10 -10zM1575 190q-13 0 -21 -9t-8 -23q0 -13 8.5 -22t20.5 -9q5 0 11 2t7 2l2 -10q-4 -4 -22 -4q-19 0 -30 11t-11 30t11.5 31t31.5 12q16 0 20 -4l-2 -11q-1 0 -7 2t-11 2zM1702 160q0 -22 -12 -32.5
t-29 -10.5q-15 0 -26 11.5t-11 29.5q0 45 41 45q17 0 27 -12t10 -31zM1638 158q0 -13 7 -22t18 -9t18 9t7 22q0 12 -7 22t-18 10t-18 -9.5t-7 -22.5zM1855 119h-14v45q0 26 -18 26q-14 0 -19 -14v-8v-49h-14v49q0 22 -16 22q-15 0 -19 -16q-2 -2 -2 -6v-49h-14v57v23h12v-13
q13 17 27 17q18 0 22 -19q6 9 10 13q12 6 19 6q10 0 18 -9t8 -28v-47z" />
    <glyph glyph-name="quotesingle" unicode="'" horiz-adv-x="270" 
d="M78 1434h117q-11 0 -24.5 -67t-21.5 -135l-8 -67h-18q-27 269 -45 269z" />
    <glyph glyph-name="parenleft" unicode="(" horiz-adv-x="540" 
d="M438 1423q-98 -59 -157.5 -243.5t-59.5 -462.5t59.5 -463.5t157.5 -245.5v-8q-143 48 -230 231.5t-87 485.5t87 485.5t230 231.5v-11z" />
    <glyph glyph-name="parenright" unicode=")" horiz-adv-x="540" 
d="M102 1434q143 -48 230.5 -232t87.5 -485t-87.5 -485t-230.5 -232v8q97 61 157 246.5t60 462.5t-60 462t-157 244v11z" />
    <glyph glyph-name="asterisk" unicode="*" horiz-adv-x="448" 
d="M371 1391q-49 -22 -103 -64q31 -70 72 -117l-10 -8q-43 49 -107 90q-65 -45 -104 -90l-10 8q39 45 71 117q-55 43 -102 64l6 12q35 -17 121 -35q12 58 12 105h12q0 -33 15 -105q83 17 121 35z" />
    <glyph glyph-name="plus" unicode="+" horiz-adv-x="860" 
d="M674 762q30 0 62 6.5t32 17.5v-137q0 21 -94 21h-197v-205q0 -86 21 -86h-138q11 0 17 29.5t6 56.5v205h-205q-86 0 -86 -21v137q0 -11 29.5 -16.5t56.5 -5.5h207v197q0 30 -7 62t-18 32h138q-21 0 -21 -92v-199z" />
    <glyph glyph-name="comma" unicode="," 
d="M59 1315h39q17 0 27 -9t10 -24t-10 -24t-27 -9h-18v-22h-21v88zM115 1282q0 16 -19 16h-16v-30h16q19 0 19 14zM244 1298h-45v-20h39v-16h-39v-19h45v-16h-66v88h66v-17zM365 1282q0 -21 -19 -27l19 -28h-21l-16 24h-19v-24h-18v88h37q17 0 27 -9t10 -24zM326 1268
q18 0 18 14q0 16 -18 16h-17v-30h17zM438 1241q17 0 17 8q0 7 -24.5 14t-24.5 25q0 27 34 27q19 0 31 -6l-6 -17q-12 6 -25 6q-16 0 -16 -8q0 -6 25.5 -13t25.5 -26q0 -26 -39 -26q-23 0 -33 10l7 14q12 -8 28 -8zM512 1270q0 20 13.5 32.5t33.5 12.5t33.5 -12.5t13.5 -32.5
t-13.5 -32.5t-33.5 -12.5t-33.5 12.5t-13.5 32.5zM586 1270q0 12 -8 20t-19 8q-12 0 -19.5 -8t-7.5 -20t7.5 -19.5t19.5 -7.5q11 0 19 7.5t8 19.5zM668 1315l43 -53v53h18v-88h-16l-43 53v-53h-19v88h17zM768 1227l39 88h18l39 -88h-20l-8 18h-41l-7 -18h-20zM829 1262
l-14 32l-12 -32h26zM903 1315h19v-72h43v-16h-62v88zM1069 1315h21v-49q0 -23 18 -23t18 23v49h21v-51q0 -39 -39 -39t-39 39v51zM1225 1241q16 0 16 8q0 7 -24.5 14t-24.5 25q0 27 35 27q18 0 30 -6l-6 -17q-12 6 -24 6q-17 0 -17 -8q0 -6 25 -13t25 -26q0 -26 -35 -26
q-22 0 -35 10l6 14q16 -8 29 -8zM1370 1298h-47v-20h41v-16h-41v-19h47v-16h-65v88h65v-17zM1475 1270q0 20 13.5 32.5t33.5 12.5t33.5 -12.5t13.5 -32.5t-13.5 -32.5t-33.5 -12.5t-33.5 12.5t-13.5 32.5zM1548 1270q0 12 -7.5 20t-18.5 8q-12 0 -19.5 -8t-7.5 -20
t7.5 -19.5t19.5 -7.5q11 0 18.5 7.5t7.5 19.5zM1630 1315l43 -53v53h19v-88h-17l-43 53v-53h-18v88h16zM1743 1315h18v-72h43v-16h-61v88zM1878 1227h-20v30l-33 58h20l25 -41l20 41h21l-33 -58v-30zM76 283v-2h-23l-4 -21h-2l8 45h29l-2 -4h-25l-2 -18h21zM88 272q0 9 5 15
t13 6q15 0 15 -12q0 -9 -5.5 -15t-13.5 -6q-14 0 -14 12zM117 281q0 10 -13 10q-14 0 -14 -19q0 -8 12 -8q15 0 15 17zM137 293h2v-6q3 6 13 6v-4q-12 0 -15 -13l-4 -16h-2zM207 301q-9 0 -15 -6.5t-6 -15.5q0 -15 15 -15q12 0 14 4l2 -2q-6 -6 -16 -6q-19 0 -19 19
q0 11 7.5 18.5t17.5 7.5q4 0 16 -6l-4 -4q-3 6 -12 6zM260 281q0 -9 -5 -15t-13 -6q-6 0 -10.5 3.5t-4.5 8.5q0 9 5.5 15t13.5 6q14 0 14 -12zM242 264q14 0 14 17q0 10 -10 10q-6 0 -10.5 -5.5t-4.5 -13.5t11 -8zM276 293h5l-2 -6q6 6 12 6q10 0 10 -6q6 6 14 6
q11 0 11 -10v-2l-4 -21h-3l5 21v2q0 8 -9 8q-11 0 -14 -12l-4 -19h-2l4 21v2q0 8 -8 8q-12 0 -15 -12l-2 -19h-4zM385 293q10 0 10 -10v-2l-4 -21h-2l4 21v2q0 8 -8 8q-11 0 -14 -12l-2 -19h-4l4 21v2q0 8 -11 8q-9 0 -12 -12l-2 -19h-4l6 33h4l-2 -6q3 6 12 6q10 0 13 -6
q3 6 12 6zM440 276h-28v-4q0 -8 12 -8q8 0 10 2l2 -2q-4 -4 -12 -4q-14 0 -14 12q0 21 16 21q14 0 14 -12v-5zM426 291q-11 0 -14 -12h24v2q0 10 -10 10zM457 293h4l-2 -6q6 6 12 6v-4q-11 0 -14 -13l-2 -16h-4zM496 291q-6 0 -10.5 -5.5t-4.5 -13.5t13 -8q8 0 10 2h2
q-6 -6 -12 -6q-15 0 -15 12q0 9 5.5 15t11.5 6q9 0 12 -6h-2q-4 4 -10 4zM530 303q0 -2 -4 -2q-2 0 -2 2t4 2q2 0 2 -2zM518 260l6 33h2l-6 -33h-2zM567 260h-2v6q-3 -6 -12 -6q-14 0 -14 12q0 21 18 21q8 0 12 -8l2 8h2zM553 264q14 0 14 17q0 10 -10 10q-14 0 -14 -19
q0 -8 10 -8zM588 260h-2l8 47h4zM604 252h-2l2 8v2q0 4 2 4l2 -2v-4zM664 274h-13l-2 -14h-4l10 45h15q14 0 14 -12q0 -19 -20 -19zM657 301l-6 -25h13q16 0 16 17q0 8 -10 8h-13zM696 260h-4l10 47h3zM743 276h-26v-4q0 -8 12 -8q8 0 10 2l2 -2q-8 -4 -12 -4q-16 0 -16 12
q0 9 5 15t13 6q14 0 14 -12q0 -5 -2 -5zM731 291q-11 0 -14 -12h24v2q0 10 -10 10zM786 293h5l-7 -33h-4l2 6q-6 -6 -12 -6q-14 0 -14 12q0 9 5 15t11 6q12 0 12 -8zM770 264q14 0 14 17q0 10 -12 10q-14 0 -14 -19q0 -8 12 -8zM809 264q12 0 12 6q0 4 -9 6t-9 7q0 10 12 10
q8 0 10 -4v-2q-4 4 -10 4q-10 0 -10 -8q0 -4 9 -6t9 -7q0 -10 -14 -10q-4 0 -12 4l4 2q2 -2 8 -2zM866 276h-28v-4q0 -8 12 -8q8 0 10 2l2 -2q-4 -4 -12 -4q-14 0 -14 12q0 21 16 21q14 0 14 -12v-5zM852 291q-8 0 -14 -12h24v2q0 10 -10 10zM913 260h-2l-12 45h4l10 -41
l25 41h2zM956 303q0 -2 -4 -2q-2 0 -2 2l2 2q4 0 4 -2zM944 260l6 33h2l-6 -33h-2zM979 291q-10 0 -10 -8q0 -4 9 -6t9 -7q0 -10 -14 -10q-8 0 -12 4l2 2q2 -2 12 -2q8 0 8 6q0 4 -9 6t-9 7q0 10 14 10q8 0 10 -4l-2 -2q-4 4 -8 4zM999 260l7 33h4l-9 -33h-2zM1012 303
l-2 -2q-4 0 -4 2t4 2q2 0 2 -2zM1028 299h2v-6h10v-4h-10l-4 -19q-2 -2 -2 -4q0 -4 6 -4l4 2l2 -2q-2 -2 -6 -2q-8 0 -8 6v4l4 19h-4v4h6v6zM1929 1174v-7h-1870v7h1870zM1929 1374v-6h-1870v6h1870zM1929 1395v-4h-1870v4h1870zM61 51v4h1870v-4h-1870zM61 74v4h1870v-4
h-1870zM1059 276h872v-4h-872v4zM1235 434q-8 0 -8 -14t8 -14q3 0 4.5 -3t-0.5 -6q-6 -6 -22 -6q-12 0 -15 4t0 17q3 18 -6 30q-14 7 -14 31q0 21 16 21q9 0 10.5 -4t-0.5 -17q-3 -17 -1.5 -20.5t10.5 -1.5q9 1 11.5 10.5t2.5 38.5q-2 42 6 42q2 0 4 -1q12 -2 12 -37
q0 -70 -18 -70zM1165 522q-7 -3 -9.5 -13.5t-2.5 -41.5q0 -53 8 -57q9 -6 5.5 -12.5t-15.5 -6.5t-14 8.5t0 55.5q2 57 -4 60q-3 1 -9 -1q-9 -3 -12.5 -1t-3.5 11q0 10 6 13.5t27 3.5q39 0 45 2q7 3 9.5 -0.5t2.5 -14.5q0 -19 -9 -19q-5 0 -7 9q-3 8 -17 4zM1317 446
q-20 -12 -22 -31q-1 -9 8 -9q3 0 4.5 -3t-0.5 -6q-3 -6 -19 -6q-7 0 -10 4.5t-4.5 20t-1.5 49.5l-2 76h26q24 0 38 -11.5t14 -31.5q0 -39 -31 -52zM1292 481q9 -39 31 -14q15 15 7 36t-30 21q-10 0 -11.5 -8.5t3.5 -34.5zM1479 580q-37 15 -47 32q-20 29 -29 2
q-4 -14 -27 -26q-20 -9 -48.5 -4t-43.5 22q-12 14 -27 8q-38 -22 -75 15q-14 15 -17.5 27t-3.5 46q0 54 -10 54q-12 0 -19.5 -23t-7.5 -59q0 -33 -6.5 -45.5t-27.5 -16.5q-16 0 -19 -24q-19 -86 -88 -64q-20 8 -40.5 30t-24.5 42q-3 11 -8.5 13t-24.5 -1q-31 -3 -49 15
l-21 16l-14 -18q-13 -21 -41 -21h-25v-41q0 -80 -55 -80q-24 0 -45 17q-21 14 -31 53q-9 29 -10 81t2 267q0 65 -6 68q-7 3 -24 -32t-25 -69q-10 -48 -13 -168l-4 -129l-30 4q-24 3 -39 13q-6 10 -13 121q-3 92 -10 123.5t-24 31.5q-31 0 -56.5 -43t-25.5 -94q0 -68 51 -76
q23 -4 22 -11q-4 -12 -48 -13l-32 2q-35 6 -59 30q-19 19 -22.5 29.5t-1.5 44.5q6 78 69 119q40 28 91.5 25.5t80.5 -31.5q27 -27 27 18q0 16 10 49q14 45 40.5 65.5t55 11t47.5 -47.5q10 -21 12 -56t1 -153q-2 -142 1.5 -180.5t16.5 -38.5q19 0 23 46t-13 75q-21 34 -13 79
t38 64q18 13 53 10q33 -4 33 2q0 7 14 9.5t33 -2.5l29 -7l2 -73q1 -76 8 -72q9 7 14 119q4 119 0 123q-24 4 -53 6q-53 3 -88 -12q-44 -19 -63 -11q-8 4 0 13q14 15 57.5 24.5t79.5 5.5q41 -3 61 -8q12 -3 16.5 4.5t10.5 40.5q8 38 16.5 45t40.5 0q12 -4 13.5 -12.5
t-1.5 -48.5l-6 -53h21q12 0 15.5 4t6.5 24q10 69 59.5 109.5t102.5 25.5q51 -15 57 -67q6 -65 -65 -101q-41 -18 -60 -18q-13 0 -16.5 -5.5t-5.5 -27.5q-4 -29 0 -55v-23l22 21q23 23 44 18q29 -6 43 -27.5t20 -68.5q7 -54 16.5 -54t12.5 54q3 35 7 46.5t21 25.5
q18 14 27.5 17.5t28.5 0.5q30 -4 43 -8q13 -6 16 10q7 26 53 8l21 -8l-6 -73q-5 -75 8 -95q17 -26 42 -17t50 50q17 31 20 76q0 37 -11.5 54.5t-39.5 25.5q-24 7 -23 12q3 8 46 10q78 5 108 -50t-14 -124q-37 -58 -109 -72q-28 -4 -39.5 -3.5t-35.5 8.5zM1128 950
q-23 -68 -14 -73q7 -4 37 12q38 20 54.5 51.5t4.5 63.5q-11 35 -38 17.5t-44 -71.5zM791 651q9 19 11 61t-7 48q-19 11 -30 -25q-11 -32 -5 -73q10 -59 31 -11zM1016 563q22 -35 23 21q0 16 -1 41q-1 16 -5 69t-5 76q-4 81 -12 84q-19 12 -23 -2t-4 -82q0 -161 27 -207z
M1376 621q11 20 13 62t-7 54q-8 11 -10.5 10t-11.5 -16q-27 -39 -17 -98q3 -22 13.5 -25.5t19.5 13.5zM1427 516q-51 22 -51 -16q0 -15 10.5 -19.5t16.5 6.5q4 6 8 6.5t7 -4.5t3 -14q0 -11 -3.5 -13t-16.5 1q-17 3 -21 0t-4 -23q0 -18 3 -22t16 -4q18 0 24 6q8 8 13 -6
q2 -9 -2 -13t-17 -4q-21 0 -41 -4q-10 -3 -12 9l-2 63v76h22q31 0 39 2q11 5 14.5 2t0.5 -15q-1 -13 -7 -14zM172 119h-14l-25 80h17l10 -41q1 -4 3 -13.5t3 -13.5q1 4 4 13.5t4 13.5l14 41h13l12 -41q1 -4 3 -13.5t3 -13.5q1 4 3 13.5t3 13.5l13 41h14l-27 -80h-12l-12 39
q-1 4 -4 12t-4 12q-1 -2 -3.5 -11t-3.5 -15zM315 119h-14l-25 80h17l10 -41q1 -4 3 -13.5t3 -13.5q5 22 8 27l13 41h12l14 -41q1 -4 3 -13.5t3 -13.5q1 4 3.5 13.5t3.5 13.5l12 41h14l-26 -80h-13l-12 39q-4 8 -8 24q-4 -16 -8 -26zM459 119h-15l-24 80h14l12 -41
q1 -4 3.5 -13.5t3.5 -13.5q1 4 3 13.5t3 13.5l14 41h12l13 -41q2 -5 8 -27q1 4 3 13.5t3 13.5l12 41h15l-27 -80h-12l-13 39q-4 8 -8 24q-4 -16 -8 -26zM571 117q-10 0 -10 10t10 10q9 0 9 -10t-9 -10zM686 119h-16v45q0 26 -19 26q-16 0 -20 -16q0 -1 -1 -3t-1 -3v-49h-15
v57v23h13l2 -13q11 17 26 17q12 0 21.5 -9t9.5 -28v-47zM719 139q0 14 13 22.5t36 8.5q0 20 -18 20q-12 0 -21 -6l-4 11q16 8 27 8q30 0 30 -35v-31q0 -12 2 -18h-14v8q-10 -10 -25 -10q-26 0 -26 22zM770 160q-35 0 -35 -19q0 -14 13 -14q16 0 20 12q0 2 1 3.5t1 2.5v15z
M862 188h-20v-45q0 -16 10 -16l8 2l2 -10q-4 -2 -14 -2q-11 0 -17 6q-6 12 -6 20v45h-12v11h12v20l17 4v-24h20v-11zM965 119h-15v45q0 26 -18 26q-13 0 -21 -16v-6v-49h-16v119h16v-52q4 7 11 11q12 6 16 6q10 0 18.5 -9t8.5 -28v-47zM1032 203q31 0 31 -35v-31q0 -3 1 -9
t1 -9h-12l-2 8h-2q-7 -10 -25 -10q-10 0 -17.5 6.5t-7.5 15.5q0 14 13.5 22.5t36.5 8.5q0 20 -19 20q-11 0 -20 -6l-4 11q12 8 26 8zM1049 145v15q-33 0 -33 -19q0 -14 12 -14q17 0 21 12v6zM1108 219l12 4v-24h23v-11h-23v-45q0 -16 13 -16q2 0 4.5 1t3.5 1l2 -10
q-4 -2 -15 -2q-10 0 -16 6q-4 4 -4 20v45h-14v11h14v20zM1184 100q8 3 12 17q2 2 2 4v4l-31 74h15l20 -47q0 -9 4 -17q4 8 4 17l19 47h14l-22 -58q-13 -37 -27 -51q-13 -10 -18 -10l-5 12q10 5 13 8zM1288 84h-14v90q0 19 -2 25h14l2 -13q10 17 29 17q14 0 23.5 -12.5
t9.5 -30.5q0 -21 -10.5 -32t-26.5 -11t-25 12v-45zM1288 164v-12v-7q7 -18 23 -18q24 0 24 31q0 32 -22 32q-8 0 -15 -5.5t-8 -14.5q-2 0 -2 -6zM1452 162v-6h-57q0 -13 8.5 -21t19.5 -8t23 4l2 -10q-8 -4 -27 -4t-30 11t-11 30t10.5 32t28.5 13q33 0 33 -41zM1395 166h43
q0 24 -21 24q-17 0 -22 -24zM1503 127q0 -10 -10 -10t-10 10t10 10t10 -10zM1575 190q-13 0 -21 -9t-8 -23q0 -13 8.5 -22t20.5 -9q5 0 11 2t7 2l2 -10q-4 -4 -22 -4q-19 0 -30 11t-11 30t11.5 31t31.5 12q16 0 20 -4l-2 -11q-1 0 -7 2t-11 2zM1702 160q0 -22 -12 -32.5
t-29 -10.5q-15 0 -26 11.5t-11 29.5q0 45 41 45q17 0 27 -12t10 -31zM1638 158q0 -13 7 -22t18 -9t18 9t7 22q0 12 -7 22t-18 10t-18 -9.5t-7 -22.5zM1855 119h-14v45q0 26 -18 26q-14 0 -19 -14v-8v-49h-14v49q0 22 -16 22q-15 0 -19 -16q-2 -2 -2 -6v-49h-14v57v23h12v-13
q13 17 27 17q18 0 22 -19q6 9 10 13q12 6 19 6q10 0 18 -9t8 -28v-47z" />
    <glyph glyph-name="hyphenminus" unicode="-" horiz-adv-x="819" 
d="M653 762q30 0 62.5 6.5t32.5 17.5v-137q0 21 -95 21h-495q-86 0 -86 -21v137q0 -11 29.5 -16.5t56.5 -5.5z" />
    <glyph glyph-name="period" unicode="." 
d="M59 1315h39q17 0 27 -9t10 -24t-10 -24t-27 -9h-18v-22h-21v88zM115 1282q0 16 -19 16h-16v-30h16q19 0 19 14zM244 1298h-45v-20h39v-16h-39v-19h45v-16h-66v88h66v-17zM365 1282q0 -21 -19 -27l19 -28h-21l-16 24h-19v-24h-18v88h37q17 0 27 -9t10 -24zM326 1268
q18 0 18 14q0 16 -18 16h-17v-30h17zM438 1241q17 0 17 8q0 7 -24.5 14t-24.5 25q0 27 34 27q19 0 31 -6l-6 -17q-12 6 -25 6q-16 0 -16 -8q0 -6 25.5 -13t25.5 -26q0 -26 -39 -26q-23 0 -33 10l7 14q12 -8 28 -8zM512 1270q0 20 13.5 32.5t33.5 12.5t33.5 -12.5t13.5 -32.5
t-13.5 -32.5t-33.5 -12.5t-33.5 12.5t-13.5 32.5zM586 1270q0 12 -8 20t-19 8q-12 0 -19.5 -8t-7.5 -20t7.5 -19.5t19.5 -7.5q11 0 19 7.5t8 19.5zM668 1315l43 -53v53h18v-88h-16l-43 53v-53h-19v88h17zM768 1227l39 88h18l39 -88h-20l-8 18h-41l-7 -18h-20zM829 1262
l-14 32l-12 -32h26zM903 1315h19v-72h43v-16h-62v88zM1069 1315h21v-49q0 -23 18 -23t18 23v49h21v-51q0 -39 -39 -39t-39 39v51zM1225 1241q16 0 16 8q0 7 -24.5 14t-24.5 25q0 27 35 27q18 0 30 -6l-6 -17q-12 6 -24 6q-17 0 -17 -8q0 -6 25 -13t25 -26q0 -26 -35 -26
q-22 0 -35 10l6 14q16 -8 29 -8zM1370 1298h-47v-20h41v-16h-41v-19h47v-16h-65v88h65v-17zM1475 1270q0 20 13.5 32.5t33.5 12.5t33.5 -12.5t13.5 -32.5t-13.5 -32.5t-33.5 -12.5t-33.5 12.5t-13.5 32.5zM1548 1270q0 12 -7.5 20t-18.5 8q-12 0 -19.5 -8t-7.5 -20
t7.5 -19.5t19.5 -7.5q11 0 18.5 7.5t7.5 19.5zM1630 1315l43 -53v53h19v-88h-17l-43 53v-53h-18v88h16zM1743 1315h18v-72h43v-16h-61v88zM1878 1227h-20v30l-33 58h20l25 -41l20 41h21l-33 -58v-30zM76 283v-2h-23l-4 -21h-2l8 45h29l-2 -4h-25l-2 -18h21zM88 272q0 9 5 15
t13 6q15 0 15 -12q0 -9 -5.5 -15t-13.5 -6q-14 0 -14 12zM117 281q0 10 -13 10q-14 0 -14 -19q0 -8 12 -8q15 0 15 17zM137 293h2v-6q3 6 13 6v-4q-12 0 -15 -13l-4 -16h-2zM207 301q-9 0 -15 -6.5t-6 -15.5q0 -15 15 -15q12 0 14 4l2 -2q-6 -6 -16 -6q-19 0 -19 19
q0 11 7.5 18.5t17.5 7.5q4 0 16 -6l-4 -4q-3 6 -12 6zM260 281q0 -9 -5 -15t-13 -6q-6 0 -10.5 3.5t-4.5 8.5q0 9 5.5 15t13.5 6q14 0 14 -12zM242 264q14 0 14 17q0 10 -10 10q-6 0 -10.5 -5.5t-4.5 -13.5t11 -8zM276 293h5l-2 -6q6 6 12 6q10 0 10 -6q6 6 14 6
q11 0 11 -10v-2l-4 -21h-3l5 21v2q0 8 -9 8q-11 0 -14 -12l-4 -19h-2l4 21v2q0 8 -8 8q-12 0 -15 -12l-2 -19h-4zM385 293q10 0 10 -10v-2l-4 -21h-2l4 21v2q0 8 -8 8q-11 0 -14 -12l-2 -19h-4l4 21v2q0 8 -11 8q-9 0 -12 -12l-2 -19h-4l6 33h4l-2 -6q3 6 12 6q10 0 13 -6
q3 6 12 6zM440 276h-28v-4q0 -8 12 -8q8 0 10 2l2 -2q-4 -4 -12 -4q-14 0 -14 12q0 21 16 21q14 0 14 -12v-5zM426 291q-11 0 -14 -12h24v2q0 10 -10 10zM457 293h4l-2 -6q6 6 12 6v-4q-11 0 -14 -13l-2 -16h-4zM496 291q-6 0 -10.5 -5.5t-4.5 -13.5t13 -8q8 0 10 2h2
q-6 -6 -12 -6q-15 0 -15 12q0 9 5.5 15t11.5 6q9 0 12 -6h-2q-4 4 -10 4zM530 303q0 -2 -4 -2q-2 0 -2 2t4 2q2 0 2 -2zM518 260l6 33h2l-6 -33h-2zM567 260h-2v6q-3 -6 -12 -6q-14 0 -14 12q0 21 18 21q8 0 12 -8l2 8h2zM553 264q14 0 14 17q0 10 -10 10q-14 0 -14 -19
q0 -8 10 -8zM588 260h-2l8 47h4zM604 252h-2l2 8v2q0 4 2 4l2 -2v-4zM664 274h-13l-2 -14h-4l10 45h15q14 0 14 -12q0 -19 -20 -19zM657 301l-6 -25h13q16 0 16 17q0 8 -10 8h-13zM696 260h-4l10 47h3zM743 276h-26v-4q0 -8 12 -8q8 0 10 2l2 -2q-8 -4 -12 -4q-16 0 -16 12
q0 9 5 15t13 6q14 0 14 -12q0 -5 -2 -5zM731 291q-11 0 -14 -12h24v2q0 10 -10 10zM786 293h5l-7 -33h-4l2 6q-6 -6 -12 -6q-14 0 -14 12q0 9 5 15t11 6q12 0 12 -8zM770 264q14 0 14 17q0 10 -12 10q-14 0 -14 -19q0 -8 12 -8zM809 264q12 0 12 6q0 4 -9 6t-9 7q0 10 12 10
q8 0 10 -4v-2q-4 4 -10 4q-10 0 -10 -8q0 -4 9 -6t9 -7q0 -10 -14 -10q-4 0 -12 4l4 2q2 -2 8 -2zM866 276h-28v-4q0 -8 12 -8q8 0 10 2l2 -2q-4 -4 -12 -4q-14 0 -14 12q0 21 16 21q14 0 14 -12v-5zM852 291q-8 0 -14 -12h24v2q0 10 -10 10zM913 260h-2l-12 45h4l10 -41
l25 41h2zM956 303q0 -2 -4 -2q-2 0 -2 2l2 2q4 0 4 -2zM944 260l6 33h2l-6 -33h-2zM979 291q-10 0 -10 -8q0 -4 9 -6t9 -7q0 -10 -14 -10q-8 0 -12 4l2 2q2 -2 12 -2q8 0 8 6q0 4 -9 6t-9 7q0 10 14 10q8 0 10 -4l-2 -2q-4 4 -8 4zM999 260l7 33h4l-9 -33h-2zM1012 303
l-2 -2q-4 0 -4 2t4 2q2 0 2 -2zM1028 299h2v-6h10v-4h-10l-4 -19q-2 -2 -2 -4q0 -4 6 -4l4 2l2 -2q-2 -2 -6 -2q-8 0 -8 6v4l4 19h-4v4h6v6zM1929 1174v-7h-1870v7h1870zM1929 1374v-6h-1870v6h1870zM1929 1395v-4h-1870v4h1870zM61 51v4h1870v-4h-1870zM61 74v4h1870v-4
h-1870zM1059 276h872v-4h-872v4zM1235 434q-8 0 -8 -14t8 -14q3 0 4.5 -3t-0.5 -6q-6 -6 -22 -6q-12 0 -15 4t0 17q3 18 -6 30q-14 7 -14 31q0 21 16 21q9 0 10.5 -4t-0.5 -17q-3 -17 -1.5 -20.5t10.5 -1.5q9 1 11.5 10.5t2.5 38.5q-2 42 6 42q2 0 4 -1q12 -2 12 -37
q0 -70 -18 -70zM1165 522q-7 -3 -9.5 -13.5t-2.5 -41.5q0 -53 8 -57q9 -6 5.5 -12.5t-15.5 -6.5t-14 8.5t0 55.5q2 57 -4 60q-3 1 -9 -1q-9 -3 -12.5 -1t-3.5 11q0 10 6 13.5t27 3.5q39 0 45 2q7 3 9.5 -0.5t2.5 -14.5q0 -19 -9 -19q-5 0 -7 9q-3 8 -17 4zM1317 446
q-20 -12 -22 -31q-1 -9 8 -9q3 0 4.5 -3t-0.5 -6q-3 -6 -19 -6q-7 0 -10 4.5t-4.5 20t-1.5 49.5l-2 76h26q24 0 38 -11.5t14 -31.5q0 -39 -31 -52zM1292 481q9 -39 31 -14q15 15 7 36t-30 21q-10 0 -11.5 -8.5t3.5 -34.5zM1479 580q-37 15 -47 32q-20 29 -29 2
q-4 -14 -27 -26q-20 -9 -48.5 -4t-43.5 22q-12 14 -27 8q-38 -22 -75 15q-14 15 -17.5 27t-3.5 46q0 54 -10 54q-12 0 -19.5 -23t-7.5 -59q0 -33 -6.5 -45.5t-27.5 -16.5q-16 0 -19 -24q-19 -86 -88 -64q-20 8 -40.5 30t-24.5 42q-3 11 -8.5 13t-24.5 -1q-31 -3 -49 15
l-21 16l-14 -18q-13 -21 -41 -21h-25v-41q0 -80 -55 -80q-24 0 -45 17q-21 14 -31 53q-9 29 -10 81t2 267q0 65 -6 68q-7 3 -24 -32t-25 -69q-10 -48 -13 -168l-4 -129l-30 4q-24 3 -39 13q-6 10 -13 121q-3 92 -10 123.5t-24 31.5q-31 0 -56.5 -43t-25.5 -94q0 -68 51 -76
q23 -4 22 -11q-4 -12 -48 -13l-32 2q-35 6 -59 30q-19 19 -22.5 29.5t-1.5 44.5q6 78 69 119q40 28 91.5 25.5t80.5 -31.5q27 -27 27 18q0 16 10 49q14 45 40.5 65.5t55 11t47.5 -47.5q10 -21 12 -56t1 -153q-2 -142 1.5 -180.5t16.5 -38.5q19 0 23 46t-13 75q-21 34 -13 79
t38 64q18 13 53 10q33 -4 33 2q0 7 14 9.5t33 -2.5l29 -7l2 -73q1 -76 8 -72q9 7 14 119q4 119 0 123q-24 4 -53 6q-53 3 -88 -12q-44 -19 -63 -11q-8 4 0 13q14 15 57.5 24.5t79.5 5.5q41 -3 61 -8q12 -3 16.5 4.5t10.5 40.5q8 38 16.5 45t40.5 0q12 -4 13.5 -12.5
t-1.5 -48.5l-6 -53h21q12 0 15.5 4t6.5 24q10 69 59.5 109.5t102.5 25.5q51 -15 57 -67q6 -65 -65 -101q-41 -18 -60 -18q-13 0 -16.5 -5.5t-5.5 -27.5q-4 -29 0 -55v-23l22 21q23 23 44 18q29 -6 43 -27.5t20 -68.5q7 -54 16.5 -54t12.5 54q3 35 7 46.5t21 25.5
q18 14 27.5 17.5t28.5 0.5q30 -4 43 -8q13 -6 16 10q7 26 53 8l21 -8l-6 -73q-5 -75 8 -95q17 -26 42 -17t50 50q17 31 20 76q0 37 -11.5 54.5t-39.5 25.5q-24 7 -23 12q3 8 46 10q78 5 108 -50t-14 -124q-37 -58 -109 -72q-28 -4 -39.5 -3.5t-35.5 8.5zM1128 950
q-23 -68 -14 -73q7 -4 37 12q38 20 54.5 51.5t4.5 63.5q-11 35 -38 17.5t-44 -71.5zM791 651q9 19 11 61t-7 48q-19 11 -30 -25q-11 -32 -5 -73q10 -59 31 -11zM1016 563q22 -35 23 21q0 16 -1 41q-1 16 -5 69t-5 76q-4 81 -12 84q-19 12 -23 -2t-4 -82q0 -161 27 -207z
M1376 621q11 20 13 62t-7 54q-8 11 -10.5 10t-11.5 -16q-27 -39 -17 -98q3 -22 13.5 -25.5t19.5 13.5zM1427 516q-51 22 -51 -16q0 -15 10.5 -19.5t16.5 6.5q4 6 8 6.5t7 -4.5t3 -14q0 -11 -3.5 -13t-16.5 1q-17 3 -21 0t-4 -23q0 -18 3 -22t16 -4q18 0 24 6q8 8 13 -6
q2 -9 -2 -13t-17 -4q-21 0 -41 -4q-10 -3 -12 9l-2 63v76h22q31 0 39 2q11 5 14.5 2t0.5 -15q-1 -13 -7 -14zM172 119h-14l-25 80h17l10 -41q1 -4 3 -13.5t3 -13.5q1 4 4 13.5t4 13.5l14 41h13l12 -41q1 -4 3 -13.5t3 -13.5q1 4 3 13.5t3 13.5l13 41h14l-27 -80h-12l-12 39
q-1 4 -4 12t-4 12q-1 -2 -3.5 -11t-3.5 -15zM315 119h-14l-25 80h17l10 -41q1 -4 3 -13.5t3 -13.5q5 22 8 27l13 41h12l14 -41q1 -4 3 -13.5t3 -13.5q1 4 3.5 13.5t3.5 13.5l12 41h14l-26 -80h-13l-12 39q-4 8 -8 24q-4 -16 -8 -26zM459 119h-15l-24 80h14l12 -41
q1 -4 3.5 -13.5t3.5 -13.5q1 4 3 13.5t3 13.5l14 41h12l13 -41q2 -5 8 -27q1 4 3 13.5t3 13.5l12 41h15l-27 -80h-12l-13 39q-4 8 -8 24q-4 -16 -8 -26zM571 117q-10 0 -10 10t10 10q9 0 9 -10t-9 -10zM686 119h-16v45q0 26 -19 26q-16 0 -20 -16q0 -1 -1 -3t-1 -3v-49h-15
v57v23h13l2 -13q11 17 26 17q12 0 21.5 -9t9.5 -28v-47zM719 139q0 14 13 22.5t36 8.5q0 20 -18 20q-12 0 -21 -6l-4 11q16 8 27 8q30 0 30 -35v-31q0 -12 2 -18h-14v8q-10 -10 -25 -10q-26 0 -26 22zM770 160q-35 0 -35 -19q0 -14 13 -14q16 0 20 12q0 2 1 3.5t1 2.5v15z
M862 188h-20v-45q0 -16 10 -16l8 2l2 -10q-4 -2 -14 -2q-11 0 -17 6q-6 12 -6 20v45h-12v11h12v20l17 4v-24h20v-11zM965 119h-15v45q0 26 -18 26q-13 0 -21 -16v-6v-49h-16v119h16v-52q4 7 11 11q12 6 16 6q10 0 18.5 -9t8.5 -28v-47zM1032 203q31 0 31 -35v-31q0 -3 1 -9
t1 -9h-12l-2 8h-2q-7 -10 -25 -10q-10 0 -17.5 6.5t-7.5 15.5q0 14 13.5 22.5t36.5 8.5q0 20 -19 20q-11 0 -20 -6l-4 11q12 8 26 8zM1049 145v15q-33 0 -33 -19q0 -14 12 -14q17 0 21 12v6zM1108 219l12 4v-24h23v-11h-23v-45q0 -16 13 -16q2 0 4.5 1t3.5 1l2 -10
q-4 -2 -15 -2q-10 0 -16 6q-4 4 -4 20v45h-14v11h14v20zM1184 100q8 3 12 17q2 2 2 4v4l-31 74h15l20 -47q0 -9 4 -17q4 8 4 17l19 47h14l-22 -58q-13 -37 -27 -51q-13 -10 -18 -10l-5 12q10 5 13 8zM1288 84h-14v90q0 19 -2 25h14l2 -13q10 17 29 17q14 0 23.5 -12.5
t9.5 -30.5q0 -21 -10.5 -32t-26.5 -11t-25 12v-45zM1288 164v-12v-7q7 -18 23 -18q24 0 24 31q0 32 -22 32q-8 0 -15 -5.5t-8 -14.5q-2 0 -2 -6zM1452 162v-6h-57q0 -13 8.5 -21t19.5 -8t23 4l2 -10q-8 -4 -27 -4t-30 11t-11 30t10.5 32t28.5 13q33 0 33 -41zM1395 166h43
q0 24 -21 24q-17 0 -22 -24zM1503 127q0 -10 -10 -10t-10 10t10 10t10 -10zM1575 190q-13 0 -21 -9t-8 -23q0 -13 8.5 -22t20.5 -9q5 0 11 2t7 2l2 -10q-4 -4 -22 -4q-19 0 -30 11t-11 30t11.5 31t31.5 12q16 0 20 -4l-2 -11q-1 0 -7 2t-11 2zM1702 160q0 -22 -12 -32.5
t-29 -10.5q-15 0 -26 11.5t-11 29.5q0 45 41 45q17 0 27 -12t10 -31zM1638 158q0 -13 7 -22t18 -9t18 9t7 22q0 12 -7 22t-18 10t-18 -9.5t-7 -22.5zM1855 119h-14v45q0 26 -18 26q-14 0 -19 -14v-8v-49h-14v49q0 22 -16 22q-15 0 -19 -16q-2 -2 -2 -6v-49h-14v57v23h12v-13
q13 17 27 17q18 0 22 -19q6 9 10 13q12 6 19 6q10 0 18 -9t8 -28v-47z" />
    <glyph glyph-name="slash" unicode="/" horiz-adv-x="759" 
d="M541 1434h157q-37 0 -84 -150l-374 -1147q-9 -29 -13 -42.5t-10 -41t-3 -40.5t15 -13h-157q18 0 42 47t36 88l380 1149q6 21 11.5 45.5t9 48.5t1.5 40t-11 16z" />
    <glyph glyph-name="zero" unicode="0" 
d="M59 1315h39q17 0 27 -9t10 -24t-10 -24t-27 -9h-18v-22h-21v88zM115 1282q0 16 -19 16h-16v-30h16q19 0 19 14zM244 1298h-45v-20h39v-16h-39v-19h45v-16h-66v88h66v-17zM365 1282q0 -21 -19 -27l19 -28h-21l-16 24h-19v-24h-18v88h37q17 0 27 -9t10 -24zM326 1268
q18 0 18 14q0 16 -18 16h-17v-30h17zM438 1241q17 0 17 8q0 7 -24.5 14t-24.5 25q0 27 34 27q19 0 31 -6l-6 -17q-12 6 -25 6q-16 0 -16 -8q0 -6 25.5 -13t25.5 -26q0 -26 -39 -26q-23 0 -33 10l7 14q12 -8 28 -8zM512 1270q0 20 13.5 32.5t33.5 12.5t33.5 -12.5t13.5 -32.5
t-13.5 -32.5t-33.5 -12.5t-33.5 12.5t-13.5 32.5zM586 1270q0 12 -8 20t-19 8q-12 0 -19.5 -8t-7.5 -20t7.5 -19.5t19.5 -7.5q11 0 19 7.5t8 19.5zM668 1315l43 -53v53h18v-88h-16l-43 53v-53h-19v88h17zM768 1227l39 88h18l39 -88h-20l-8 18h-41l-7 -18h-20zM829 1262
l-14 32l-12 -32h26zM903 1315h19v-72h43v-16h-62v88zM1069 1315h21v-49q0 -23 18 -23t18 23v49h21v-51q0 -39 -39 -39t-39 39v51zM1225 1241q16 0 16 8q0 7 -24.5 14t-24.5 25q0 27 35 27q18 0 30 -6l-6 -17q-12 6 -24 6q-17 0 -17 -8q0 -6 25 -13t25 -26q0 -26 -35 -26
q-22 0 -35 10l6 14q16 -8 29 -8zM1370 1298h-47v-20h41v-16h-41v-19h47v-16h-65v88h65v-17zM1475 1270q0 20 13.5 32.5t33.5 12.5t33.5 -12.5t13.5 -32.5t-13.5 -32.5t-33.5 -12.5t-33.5 12.5t-13.5 32.5zM1548 1270q0 12 -7.5 20t-18.5 8q-12 0 -19.5 -8t-7.5 -20
t7.5 -19.5t19.5 -7.5q11 0 18.5 7.5t7.5 19.5zM1630 1315l43 -53v53h19v-88h-17l-43 53v-53h-18v88h16zM1743 1315h18v-72h43v-16h-61v88zM1878 1227h-20v30l-33 58h20l25 -41l20 41h21l-33 -58v-30zM76 283v-2h-23l-4 -21h-2l8 45h29l-2 -4h-25l-2 -18h21zM88 272q0 9 5 15
t13 6q15 0 15 -12q0 -9 -5.5 -15t-13.5 -6q-14 0 -14 12zM117 281q0 10 -13 10q-14 0 -14 -19q0 -8 12 -8q15 0 15 17zM137 293h2v-6q3 6 13 6v-4q-12 0 -15 -13l-4 -16h-2zM207 301q-9 0 -15 -6.5t-6 -15.5q0 -15 15 -15q12 0 14 4l2 -2q-6 -6 -16 -6q-19 0 -19 19
q0 11 7.5 18.5t17.5 7.5q4 0 16 -6l-4 -4q-3 6 -12 6zM260 281q0 -9 -5 -15t-13 -6q-6 0 -10.5 3.5t-4.5 8.5q0 9 5.5 15t13.5 6q14 0 14 -12zM242 264q14 0 14 17q0 10 -10 10q-6 0 -10.5 -5.5t-4.5 -13.5t11 -8zM276 293h5l-2 -6q6 6 12 6q10 0 10 -6q6 6 14 6
q11 0 11 -10v-2l-4 -21h-3l5 21v2q0 8 -9 8q-11 0 -14 -12l-4 -19h-2l4 21v2q0 8 -8 8q-12 0 -15 -12l-2 -19h-4zM385 293q10 0 10 -10v-2l-4 -21h-2l4 21v2q0 8 -8 8q-11 0 -14 -12l-2 -19h-4l4 21v2q0 8 -11 8q-9 0 -12 -12l-2 -19h-4l6 33h4l-2 -6q3 6 12 6q10 0 13 -6
q3 6 12 6zM440 276h-28v-4q0 -8 12 -8q8 0 10 2l2 -2q-4 -4 -12 -4q-14 0 -14 12q0 21 16 21q14 0 14 -12v-5zM426 291q-11 0 -14 -12h24v2q0 10 -10 10zM457 293h4l-2 -6q6 6 12 6v-4q-11 0 -14 -13l-2 -16h-4zM496 291q-6 0 -10.5 -5.5t-4.5 -13.5t13 -8q8 0 10 2h2
q-6 -6 -12 -6q-15 0 -15 12q0 9 5.5 15t11.5 6q9 0 12 -6h-2q-4 4 -10 4zM530 303q0 -2 -4 -2q-2 0 -2 2t4 2q2 0 2 -2zM518 260l6 33h2l-6 -33h-2zM567 260h-2v6q-3 -6 -12 -6q-14 0 -14 12q0 21 18 21q8 0 12 -8l2 8h2zM553 264q14 0 14 17q0 10 -10 10q-14 0 -14 -19
q0 -8 10 -8zM588 260h-2l8 47h4zM604 252h-2l2 8v2q0 4 2 4l2 -2v-4zM664 274h-13l-2 -14h-4l10 45h15q14 0 14 -12q0 -19 -20 -19zM657 301l-6 -25h13q16 0 16 17q0 8 -10 8h-13zM696 260h-4l10 47h3zM743 276h-26v-4q0 -8 12 -8q8 0 10 2l2 -2q-8 -4 -12 -4q-16 0 -16 12
q0 9 5 15t13 6q14 0 14 -12q0 -5 -2 -5zM731 291q-11 0 -14 -12h24v2q0 10 -10 10zM786 293h5l-7 -33h-4l2 6q-6 -6 -12 -6q-14 0 -14 12q0 9 5 15t11 6q12 0 12 -8zM770 264q14 0 14 17q0 10 -12 10q-14 0 -14 -19q0 -8 12 -8zM809 264q12 0 12 6q0 4 -9 6t-9 7q0 10 12 10
q8 0 10 -4v-2q-4 4 -10 4q-10 0 -10 -8q0 -4 9 -6t9 -7q0 -10 -14 -10q-4 0 -12 4l4 2q2 -2 8 -2zM866 276h-28v-4q0 -8 12 -8q8 0 10 2l2 -2q-4 -4 -12 -4q-14 0 -14 12q0 21 16 21q14 0 14 -12v-5zM852 291q-8 0 -14 -12h24v2q0 10 -10 10zM913 260h-2l-12 45h4l10 -41
l25 41h2zM956 303q0 -2 -4 -2q-2 0 -2 2l2 2q4 0 4 -2zM944 260l6 33h2l-6 -33h-2zM979 291q-10 0 -10 -8q0 -4 9 -6t9 -7q0 -10 -14 -10q-8 0 -12 4l2 2q2 -2 12 -2q8 0 8 6q0 4 -9 6t-9 7q0 10 14 10q8 0 10 -4l-2 -2q-4 4 -8 4zM999 260l7 33h4l-9 -33h-2zM1012 303
l-2 -2q-4 0 -4 2t4 2q2 0 2 -2zM1028 299h2v-6h10v-4h-10l-4 -19q-2 -2 -2 -4q0 -4 6 -4l4 2l2 -2q-2 -2 -6 -2q-8 0 -8 6v4l4 19h-4v4h6v6zM1929 1174v-7h-1870v7h1870zM1929 1374v-6h-1870v6h1870zM1929 1395v-4h-1870v4h1870zM61 51v4h1870v-4h-1870zM61 74v4h1870v-4
h-1870zM1059 276h872v-4h-872v4zM1235 434q-8 0 -8 -14t8 -14q3 0 4.5 -3t-0.5 -6q-6 -6 -22 -6q-12 0 -15 4t0 17q3 18 -6 30q-14 7 -14 31q0 21 16 21q9 0 10.5 -4t-0.5 -17q-3 -17 -1.5 -20.5t10.5 -1.5q9 1 11.5 10.5t2.5 38.5q-2 42 6 42q2 0 4 -1q12 -2 12 -37
q0 -70 -18 -70zM1165 522q-7 -3 -9.5 -13.5t-2.5 -41.5q0 -53 8 -57q9 -6 5.5 -12.5t-15.5 -6.5t-14 8.5t0 55.5q2 57 -4 60q-3 1 -9 -1q-9 -3 -12.5 -1t-3.5 11q0 10 6 13.5t27 3.5q39 0 45 2q7 3 9.5 -0.5t2.5 -14.5q0 -19 -9 -19q-5 0 -7 9q-3 8 -17 4zM1317 446
q-20 -12 -22 -31q-1 -9 8 -9q3 0 4.5 -3t-0.5 -6q-3 -6 -19 -6q-7 0 -10 4.5t-4.5 20t-1.5 49.5l-2 76h26q24 0 38 -11.5t14 -31.5q0 -39 -31 -52zM1292 481q9 -39 31 -14q15 15 7 36t-30 21q-10 0 -11.5 -8.5t3.5 -34.5zM1479 580q-37 15 -47 32q-20 29 -29 2
q-4 -14 -27 -26q-20 -9 -48.5 -4t-43.5 22q-12 14 -27 8q-38 -22 -75 15q-14 15 -17.5 27t-3.5 46q0 54 -10 54q-12 0 -19.5 -23t-7.5 -59q0 -33 -6.5 -45.5t-27.5 -16.5q-16 0 -19 -24q-19 -86 -88 -64q-20 8 -40.5 30t-24.5 42q-3 11 -8.5 13t-24.5 -1q-31 -3 -49 15
l-21 16l-14 -18q-13 -21 -41 -21h-25v-41q0 -80 -55 -80q-24 0 -45 17q-21 14 -31 53q-9 29 -10 81t2 267q0 65 -6 68q-7 3 -24 -32t-25 -69q-10 -48 -13 -168l-4 -129l-30 4q-24 3 -39 13q-6 10 -13 121q-3 92 -10 123.5t-24 31.5q-31 0 -56.5 -43t-25.5 -94q0 -68 51 -76
q23 -4 22 -11q-4 -12 -48 -13l-32 2q-35 6 -59 30q-19 19 -22.5 29.5t-1.5 44.5q6 78 69 119q40 28 91.5 25.5t80.5 -31.5q27 -27 27 18q0 16 10 49q14 45 40.5 65.5t55 11t47.5 -47.5q10 -21 12 -56t1 -153q-2 -142 1.5 -180.5t16.5 -38.5q19 0 23 46t-13 75q-21 34 -13 79
t38 64q18 13 53 10q33 -4 33 2q0 7 14 9.5t33 -2.5l29 -7l2 -73q1 -76 8 -72q9 7 14 119q4 119 0 123q-24 4 -53 6q-53 3 -88 -12q-44 -19 -63 -11q-8 4 0 13q14 15 57.5 24.5t79.5 5.5q41 -3 61 -8q12 -3 16.5 4.5t10.5 40.5q8 38 16.5 45t40.5 0q12 -4 13.5 -12.5
t-1.5 -48.5l-6 -53h21q12 0 15.5 4t6.5 24q10 69 59.5 109.5t102.5 25.5q51 -15 57 -67q6 -65 -65 -101q-41 -18 -60 -18q-13 0 -16.5 -5.5t-5.5 -27.5q-4 -29 0 -55v-23l22 21q23 23 44 18q29 -6 43 -27.5t20 -68.5q7 -54 16.5 -54t12.5 54q3 35 7 46.5t21 25.5
q18 14 27.5 17.5t28.5 0.5q30 -4 43 -8q13 -6 16 10q7 26 53 8l21 -8l-6 -73q-5 -75 8 -95q17 -26 42 -17t50 50q17 31 20 76q0 37 -11.5 54.5t-39.5 25.5q-24 7 -23 12q3 8 46 10q78 5 108 -50t-14 -124q-37 -58 -109 -72q-28 -4 -39.5 -3.5t-35.5 8.5zM1128 950
q-23 -68 -14 -73q7 -4 37 12q38 20 54.5 51.5t4.5 63.5q-11 35 -38 17.5t-44 -71.5zM791 651q9 19 11 61t-7 48q-19 11 -30 -25q-11 -32 -5 -73q10 -59 31 -11zM1016 563q22 -35 23 21q0 16 -1 41q-1 16 -5 69t-5 76q-4 81 -12 84q-19 12 -23 -2t-4 -82q0 -161 27 -207z
M1376 621q11 20 13 62t-7 54q-8 11 -10.5 10t-11.5 -16q-27 -39 -17 -98q3 -22 13.5 -25.5t19.5 13.5zM1427 516q-51 22 -51 -16q0 -15 10.5 -19.5t16.5 6.5q4 6 8 6.5t7 -4.5t3 -14q0 -11 -3.5 -13t-16.5 1q-17 3 -21 0t-4 -23q0 -18 3 -22t16 -4q18 0 24 6q8 8 13 -6
q2 -9 -2 -13t-17 -4q-21 0 -41 -4q-10 -3 -12 9l-2 63v76h22q31 0 39 2q11 5 14.5 2t0.5 -15q-1 -13 -7 -14zM172 119h-14l-25 80h17l10 -41q1 -4 3 -13.5t3 -13.5q1 4 4 13.5t4 13.5l14 41h13l12 -41q1 -4 3 -13.5t3 -13.5q1 4 3 13.5t3 13.5l13 41h14l-27 -80h-12l-12 39
q-1 4 -4 12t-4 12q-1 -2 -3.5 -11t-3.5 -15zM315 119h-14l-25 80h17l10 -41q1 -4 3 -13.5t3 -13.5q5 22 8 27l13 41h12l14 -41q1 -4 3 -13.5t3 -13.5q1 4 3.5 13.5t3.5 13.5l12 41h14l-26 -80h-13l-12 39q-4 8 -8 24q-4 -16 -8 -26zM459 119h-15l-24 80h14l12 -41
q1 -4 3.5 -13.5t3.5 -13.5q1 4 3 13.5t3 13.5l14 41h12l13 -41q2 -5 8 -27q1 4 3 13.5t3 13.5l12 41h15l-27 -80h-12l-13 39q-4 8 -8 24q-4 -16 -8 -26zM571 117q-10 0 -10 10t10 10q9 0 9 -10t-9 -10zM686 119h-16v45q0 26 -19 26q-16 0 -20 -16q0 -1 -1 -3t-1 -3v-49h-15
v57v23h13l2 -13q11 17 26 17q12 0 21.5 -9t9.5 -28v-47zM719 139q0 14 13 22.5t36 8.5q0 20 -18 20q-12 0 -21 -6l-4 11q16 8 27 8q30 0 30 -35v-31q0 -12 2 -18h-14v8q-10 -10 -25 -10q-26 0 -26 22zM770 160q-35 0 -35 -19q0 -14 13 -14q16 0 20 12q0 2 1 3.5t1 2.5v15z
M862 188h-20v-45q0 -16 10 -16l8 2l2 -10q-4 -2 -14 -2q-11 0 -17 6q-6 12 -6 20v45h-12v11h12v20l17 4v-24h20v-11zM965 119h-15v45q0 26 -18 26q-13 0 -21 -16v-6v-49h-16v119h16v-52q4 7 11 11q12 6 16 6q10 0 18.5 -9t8.5 -28v-47zM1032 203q31 0 31 -35v-31q0 -3 1 -9
t1 -9h-12l-2 8h-2q-7 -10 -25 -10q-10 0 -17.5 6.5t-7.5 15.5q0 14 13.5 22.5t36.5 8.5q0 20 -19 20q-11 0 -20 -6l-4 11q12 8 26 8zM1049 145v15q-33 0 -33 -19q0 -14 12 -14q17 0 21 12v6zM1108 219l12 4v-24h23v-11h-23v-45q0 -16 13 -16q2 0 4.5 1t3.5 1l2 -10
q-4 -2 -15 -2q-10 0 -16 6q-4 4 -4 20v45h-14v11h14v20zM1184 100q8 3 12 17q2 2 2 4v4l-31 74h15l20 -47q0 -9 4 -17q4 8 4 17l19 47h14l-22 -58q-13 -37 -27 -51q-13 -10 -18 -10l-5 12q10 5 13 8zM1288 84h-14v90q0 19 -2 25h14l2 -13q10 17 29 17q14 0 23.5 -12.5
t9.5 -30.5q0 -21 -10.5 -32t-26.5 -11t-25 12v-45zM1288 164v-12v-7q7 -18 23 -18q24 0 24 31q0 32 -22 32q-8 0 -15 -5.5t-8 -14.5q-2 0 -2 -6zM1452 162v-6h-57q0 -13 8.5 -21t19.5 -8t23 4l2 -10q-8 -4 -27 -4t-30 11t-11 30t10.5 32t28.5 13q33 0 33 -41zM1395 166h43
q0 24 -21 24q-17 0 -22 -24zM1503 127q0 -10 -10 -10t-10 10t10 10t10 -10zM1575 190q-13 0 -21 -9t-8 -23q0 -13 8.5 -22t20.5 -9q5 0 11 2t7 2l2 -10q-4 -4 -22 -4q-19 0 -30 11t-11 30t11.5 31t31.5 12q16 0 20 -4l-2 -11q-1 0 -7 2t-11 2zM1702 160q0 -22 -12 -32.5
t-29 -10.5q-15 0 -26 11.5t-11 29.5q0 45 41 45q17 0 27 -12t10 -31zM1638 158q0 -13 7 -22t18 -9t18 9t7 22q0 12 -7 22t-18 10t-18 -9.5t-7 -22.5zM1855 119h-14v45q0 26 -18 26q-14 0 -19 -14v-8v-49h-14v49q0 22 -16 22q-15 0 -19 -16q-2 -2 -2 -6v-49h-14v57v23h12v-13
q13 17 27 17q18 0 22 -19q6 9 10 13q12 6 19 6q10 0 18 -9t8 -28v-47z" />
    <glyph glyph-name="one" unicode="1" 
d="M59 1315h39q17 0 27 -9t10 -24t-10 -24t-27 -9h-18v-22h-21v88zM115 1282q0 16 -19 16h-16v-30h16q19 0 19 14zM244 1298h-45v-20h39v-16h-39v-19h45v-16h-66v88h66v-17zM365 1282q0 -21 -19 -27l19 -28h-21l-16 24h-19v-24h-18v88h37q17 0 27 -9t10 -24zM326 1268
q18 0 18 14q0 16 -18 16h-17v-30h17zM438 1241q17 0 17 8q0 7 -24.5 14t-24.5 25q0 27 34 27q19 0 31 -6l-6 -17q-12 6 -25 6q-16 0 -16 -8q0 -6 25.5 -13t25.5 -26q0 -26 -39 -26q-23 0 -33 10l7 14q12 -8 28 -8zM512 1270q0 20 13.5 32.5t33.5 12.5t33.5 -12.5t13.5 -32.5
t-13.5 -32.5t-33.5 -12.5t-33.5 12.5t-13.5 32.5zM586 1270q0 12 -8 20t-19 8q-12 0 -19.5 -8t-7.5 -20t7.5 -19.5t19.5 -7.5q11 0 19 7.5t8 19.5zM668 1315l43 -53v53h18v-88h-16l-43 53v-53h-19v88h17zM768 1227l39 88h18l39 -88h-20l-8 18h-41l-7 -18h-20zM829 1262
l-14 32l-12 -32h26zM903 1315h19v-72h43v-16h-62v88zM1069 1315h21v-49q0 -23 18 -23t18 23v49h21v-51q0 -39 -39 -39t-39 39v51zM1225 1241q16 0 16 8q0 7 -24.5 14t-24.5 25q0 27 35 27q18 0 30 -6l-6 -17q-12 6 -24 6q-17 0 -17 -8q0 -6 25 -13t25 -26q0 -26 -35 -26
q-22 0 -35 10l6 14q16 -8 29 -8zM1370 1298h-47v-20h41v-16h-41v-19h47v-16h-65v88h65v-17zM1475 1270q0 20 13.5 32.5t33.5 12.5t33.5 -12.5t13.5 -32.5t-13.5 -32.5t-33.5 -12.5t-33.5 12.5t-13.5 32.5zM1548 1270q0 12 -7.5 20t-18.5 8q-12 0 -19.5 -8t-7.5 -20
t7.5 -19.5t19.5 -7.5q11 0 18.5 7.5t7.5 19.5zM1630 1315l43 -53v53h19v-88h-17l-43 53v-53h-18v88h16zM1743 1315h18v-72h43v-16h-61v88zM1878 1227h-20v30l-33 58h20l25 -41l20 41h21l-33 -58v-30zM76 283v-2h-23l-4 -21h-2l8 45h29l-2 -4h-25l-2 -18h21zM88 272q0 9 5 15
t13 6q15 0 15 -12q0 -9 -5.5 -15t-13.5 -6q-14 0 -14 12zM117 281q0 10 -13 10q-14 0 -14 -19q0 -8 12 -8q15 0 15 17zM137 293h2v-6q3 6 13 6v-4q-12 0 -15 -13l-4 -16h-2zM207 301q-9 0 -15 -6.5t-6 -15.5q0 -15 15 -15q12 0 14 4l2 -2q-6 -6 -16 -6q-19 0 -19 19
q0 11 7.5 18.5t17.5 7.5q4 0 16 -6l-4 -4q-3 6 -12 6zM260 281q0 -9 -5 -15t-13 -6q-6 0 -10.5 3.5t-4.5 8.5q0 9 5.5 15t13.5 6q14 0 14 -12zM242 264q14 0 14 17q0 10 -10 10q-6 0 -10.5 -5.5t-4.5 -13.5t11 -8zM276 293h5l-2 -6q6 6 12 6q10 0 10 -6q6 6 14 6
q11 0 11 -10v-2l-4 -21h-3l5 21v2q0 8 -9 8q-11 0 -14 -12l-4 -19h-2l4 21v2q0 8 -8 8q-12 0 -15 -12l-2 -19h-4zM385 293q10 0 10 -10v-2l-4 -21h-2l4 21v2q0 8 -8 8q-11 0 -14 -12l-2 -19h-4l4 21v2q0 8 -11 8q-9 0 -12 -12l-2 -19h-4l6 33h4l-2 -6q3 6 12 6q10 0 13 -6
q3 6 12 6zM440 276h-28v-4q0 -8 12 -8q8 0 10 2l2 -2q-4 -4 -12 -4q-14 0 -14 12q0 21 16 21q14 0 14 -12v-5zM426 291q-11 0 -14 -12h24v2q0 10 -10 10zM457 293h4l-2 -6q6 6 12 6v-4q-11 0 -14 -13l-2 -16h-4zM496 291q-6 0 -10.5 -5.5t-4.5 -13.5t13 -8q8 0 10 2h2
q-6 -6 -12 -6q-15 0 -15 12q0 9 5.5 15t11.5 6q9 0 12 -6h-2q-4 4 -10 4zM530 303q0 -2 -4 -2q-2 0 -2 2t4 2q2 0 2 -2zM518 260l6 33h2l-6 -33h-2zM567 260h-2v6q-3 -6 -12 -6q-14 0 -14 12q0 21 18 21q8 0 12 -8l2 8h2zM553 264q14 0 14 17q0 10 -10 10q-14 0 -14 -19
q0 -8 10 -8zM588 260h-2l8 47h4zM604 252h-2l2 8v2q0 4 2 4l2 -2v-4zM664 274h-13l-2 -14h-4l10 45h15q14 0 14 -12q0 -19 -20 -19zM657 301l-6 -25h13q16 0 16 17q0 8 -10 8h-13zM696 260h-4l10 47h3zM743 276h-26v-4q0 -8 12 -8q8 0 10 2l2 -2q-8 -4 -12 -4q-16 0 -16 12
q0 9 5 15t13 6q14 0 14 -12q0 -5 -2 -5zM731 291q-11 0 -14 -12h24v2q0 10 -10 10zM786 293h5l-7 -33h-4l2 6q-6 -6 -12 -6q-14 0 -14 12q0 9 5 15t11 6q12 0 12 -8zM770 264q14 0 14 17q0 10 -12 10q-14 0 -14 -19q0 -8 12 -8zM809 264q12 0 12 6q0 4 -9 6t-9 7q0 10 12 10
q8 0 10 -4v-2q-4 4 -10 4q-10 0 -10 -8q0 -4 9 -6t9 -7q0 -10 -14 -10q-4 0 -12 4l4 2q2 -2 8 -2zM866 276h-28v-4q0 -8 12 -8q8 0 10 2l2 -2q-4 -4 -12 -4q-14 0 -14 12q0 21 16 21q14 0 14 -12v-5zM852 291q-8 0 -14 -12h24v2q0 10 -10 10zM913 260h-2l-12 45h4l10 -41
l25 41h2zM956 303q0 -2 -4 -2q-2 0 -2 2l2 2q4 0 4 -2zM944 260l6 33h2l-6 -33h-2zM979 291q-10 0 -10 -8q0 -4 9 -6t9 -7q0 -10 -14 -10q-8 0 -12 4l2 2q2 -2 12 -2q8 0 8 6q0 4 -9 6t-9 7q0 10 14 10q8 0 10 -4l-2 -2q-4 4 -8 4zM999 260l7 33h4l-9 -33h-2zM1012 303
l-2 -2q-4 0 -4 2t4 2q2 0 2 -2zM1028 299h2v-6h10v-4h-10l-4 -19q-2 -2 -2 -4q0 -4 6 -4l4 2l2 -2q-2 -2 -6 -2q-8 0 -8 6v4l4 19h-4v4h6v6zM1929 1174v-7h-1870v7h1870zM1929 1374v-6h-1870v6h1870zM1929 1395v-4h-1870v4h1870zM61 51v4h1870v-4h-1870zM61 74v4h1870v-4
h-1870zM1059 276h872v-4h-872v4zM1235 434q-8 0 -8 -14t8 -14q3 0 4.5 -3t-0.5 -6q-6 -6 -22 -6q-12 0 -15 4t0 17q3 18 -6 30q-14 7 -14 31q0 21 16 21q9 0 10.5 -4t-0.5 -17q-3 -17 -1.5 -20.5t10.5 -1.5q9 1 11.5 10.5t2.5 38.5q-2 42 6 42q2 0 4 -1q12 -2 12 -37
q0 -70 -18 -70zM1165 522q-7 -3 -9.5 -13.5t-2.5 -41.5q0 -53 8 -57q9 -6 5.5 -12.5t-15.5 -6.5t-14 8.5t0 55.5q2 57 -4 60q-3 1 -9 -1q-9 -3 -12.5 -1t-3.5 11q0 10 6 13.5t27 3.5q39 0 45 2q7 3 9.5 -0.5t2.5 -14.5q0 -19 -9 -19q-5 0 -7 9q-3 8 -17 4zM1317 446
q-20 -12 -22 -31q-1 -9 8 -9q3 0 4.5 -3t-0.5 -6q-3 -6 -19 -6q-7 0 -10 4.5t-4.5 20t-1.5 49.5l-2 76h26q24 0 38 -11.5t14 -31.5q0 -39 -31 -52zM1292 481q9 -39 31 -14q15 15 7 36t-30 21q-10 0 -11.5 -8.5t3.5 -34.5zM1479 580q-37 15 -47 32q-20 29 -29 2
q-4 -14 -27 -26q-20 -9 -48.5 -4t-43.5 22q-12 14 -27 8q-38 -22 -75 15q-14 15 -17.5 27t-3.5 46q0 54 -10 54q-12 0 -19.5 -23t-7.5 -59q0 -33 -6.5 -45.5t-27.5 -16.5q-16 0 -19 -24q-19 -86 -88 -64q-20 8 -40.5 30t-24.5 42q-3 11 -8.5 13t-24.5 -1q-31 -3 -49 15
l-21 16l-14 -18q-13 -21 -41 -21h-25v-41q0 -80 -55 -80q-24 0 -45 17q-21 14 -31 53q-9 29 -10 81t2 267q0 65 -6 68q-7 3 -24 -32t-25 -69q-10 -48 -13 -168l-4 -129l-30 4q-24 3 -39 13q-6 10 -13 121q-3 92 -10 123.5t-24 31.5q-31 0 -56.5 -43t-25.5 -94q0 -68 51 -76
q23 -4 22 -11q-4 -12 -48 -13l-32 2q-35 6 -59 30q-19 19 -22.5 29.5t-1.5 44.5q6 78 69 119q40 28 91.5 25.5t80.5 -31.5q27 -27 27 18q0 16 10 49q14 45 40.5 65.5t55 11t47.5 -47.5q10 -21 12 -56t1 -153q-2 -142 1.5 -180.5t16.5 -38.5q19 0 23 46t-13 75q-21 34 -13 79
t38 64q18 13 53 10q33 -4 33 2q0 7 14 9.5t33 -2.5l29 -7l2 -73q1 -76 8 -72q9 7 14 119q4 119 0 123q-24 4 -53 6q-53 3 -88 -12q-44 -19 -63 -11q-8 4 0 13q14 15 57.5 24.5t79.5 5.5q41 -3 61 -8q12 -3 16.5 4.5t10.5 40.5q8 38 16.5 45t40.5 0q12 -4 13.5 -12.5
t-1.5 -48.5l-6 -53h21q12 0 15.5 4t6.5 24q10 69 59.5 109.5t102.5 25.5q51 -15 57 -67q6 -65 -65 -101q-41 -18 -60 -18q-13 0 -16.5 -5.5t-5.5 -27.5q-4 -29 0 -55v-23l22 21q23 23 44 18q29 -6 43 -27.5t20 -68.5q7 -54 16.5 -54t12.5 54q3 35 7 46.5t21 25.5
q18 14 27.5 17.5t28.5 0.5q30 -4 43 -8q13 -6 16 10q7 26 53 8l21 -8l-6 -73q-5 -75 8 -95q17 -26 42 -17t50 50q17 31 20 76q0 37 -11.5 54.5t-39.5 25.5q-24 7 -23 12q3 8 46 10q78 5 108 -50t-14 -124q-37 -58 -109 -72q-28 -4 -39.5 -3.5t-35.5 8.5zM1128 950
q-23 -68 -14 -73q7 -4 37 12q38 20 54.5 51.5t4.5 63.5q-11 35 -38 17.5t-44 -71.5zM791 651q9 19 11 61t-7 48q-19 11 -30 -25q-11 -32 -5 -73q10 -59 31 -11zM1016 563q22 -35 23 21q0 16 -1 41q-1 16 -5 69t-5 76q-4 81 -12 84q-19 12 -23 -2t-4 -82q0 -161 27 -207z
M1376 621q11 20 13 62t-7 54q-8 11 -10.5 10t-11.5 -16q-27 -39 -17 -98q3 -22 13.5 -25.5t19.5 13.5zM1427 516q-51 22 -51 -16q0 -15 10.5 -19.5t16.5 6.5q4 6 8 6.5t7 -4.5t3 -14q0 -11 -3.5 -13t-16.5 1q-17 3 -21 0t-4 -23q0 -18 3 -22t16 -4q18 0 24 6q8 8 13 -6
q2 -9 -2 -13t-17 -4q-21 0 -41 -4q-10 -3 -12 9l-2 63v76h22q31 0 39 2q11 5 14.5 2t0.5 -15q-1 -13 -7 -14zM172 119h-14l-25 80h17l10 -41q1 -4 3 -13.5t3 -13.5q1 4 4 13.5t4 13.5l14 41h13l12 -41q1 -4 3 -13.5t3 -13.5q1 4 3 13.5t3 13.5l13 41h14l-27 -80h-12l-12 39
q-1 4 -4 12t-4 12q-1 -2 -3.5 -11t-3.5 -15zM315 119h-14l-25 80h17l10 -41q1 -4 3 -13.5t3 -13.5q5 22 8 27l13 41h12l14 -41q1 -4 3 -13.5t3 -13.5q1 4 3.5 13.5t3.5 13.5l12 41h14l-26 -80h-13l-12 39q-4 8 -8 24q-4 -16 -8 -26zM459 119h-15l-24 80h14l12 -41
q1 -4 3.5 -13.5t3.5 -13.5q1 4 3 13.5t3 13.5l14 41h12l13 -41q2 -5 8 -27q1 4 3 13.5t3 13.5l12 41h15l-27 -80h-12l-13 39q-4 8 -8 24q-4 -16 -8 -26zM571 117q-10 0 -10 10t10 10q9 0 9 -10t-9 -10zM686 119h-16v45q0 26 -19 26q-16 0 -20 -16q0 -1 -1 -3t-1 -3v-49h-15
v57v23h13l2 -13q11 17 26 17q12 0 21.5 -9t9.5 -28v-47zM719 139q0 14 13 22.5t36 8.5q0 20 -18 20q-12 0 -21 -6l-4 11q16 8 27 8q30 0 30 -35v-31q0 -12 2 -18h-14v8q-10 -10 -25 -10q-26 0 -26 22zM770 160q-35 0 -35 -19q0 -14 13 -14q16 0 20 12q0 2 1 3.5t1 2.5v15z
M862 188h-20v-45q0 -16 10 -16l8 2l2 -10q-4 -2 -14 -2q-11 0 -17 6q-6 12 -6 20v45h-12v11h12v20l17 4v-24h20v-11zM965 119h-15v45q0 26 -18 26q-13 0 -21 -16v-6v-49h-16v119h16v-52q4 7 11 11q12 6 16 6q10 0 18.5 -9t8.5 -28v-47zM1032 203q31 0 31 -35v-31q0 -3 1 -9
t1 -9h-12l-2 8h-2q-7 -10 -25 -10q-10 0 -17.5 6.5t-7.5 15.5q0 14 13.5 22.5t36.5 8.5q0 20 -19 20q-11 0 -20 -6l-4 11q12 8 26 8zM1049 145v15q-33 0 -33 -19q0 -14 12 -14q17 0 21 12v6zM1108 219l12 4v-24h23v-11h-23v-45q0 -16 13 -16q2 0 4.5 1t3.5 1l2 -10
q-4 -2 -15 -2q-10 0 -16 6q-4 4 -4 20v45h-14v11h14v20zM1184 100q8 3 12 17q2 2 2 4v4l-31 74h15l20 -47q0 -9 4 -17q4 8 4 17l19 47h14l-22 -58q-13 -37 -27 -51q-13 -10 -18 -10l-5 12q10 5 13 8zM1288 84h-14v90q0 19 -2 25h14l2 -13q10 17 29 17q14 0 23.5 -12.5
t9.5 -30.5q0 -21 -10.5 -32t-26.5 -11t-25 12v-45zM1288 164v-12v-7q7 -18 23 -18q24 0 24 31q0 32 -22 32q-8 0 -15 -5.5t-8 -14.5q-2 0 -2 -6zM1452 162v-6h-57q0 -13 8.5 -21t19.5 -8t23 4l2 -10q-8 -4 -27 -4t-30 11t-11 30t10.5 32t28.5 13q33 0 33 -41zM1395 166h43
q0 24 -21 24q-17 0 -22 -24zM1503 127q0 -10 -10 -10t-10 10t10 10t10 -10zM1575 190q-13 0 -21 -9t-8 -23q0 -13 8.5 -22t20.5 -9q5 0 11 2t7 2l2 -10q-4 -4 -22 -4q-19 0 -30 11t-11 30t11.5 31t31.5 12q16 0 20 -4l-2 -11q-1 0 -7 2t-11 2zM1702 160q0 -22 -12 -32.5
t-29 -10.5q-15 0 -26 11.5t-11 29.5q0 45 41 45q17 0 27 -12t10 -31zM1638 158q0 -13 7 -22t18 -9t18 9t7 22q0 12 -7 22t-18 10t-18 -9.5t-7 -22.5zM1855 119h-14v45q0 26 -18 26q-14 0 -19 -14v-8v-49h-14v49q0 22 -16 22q-15 0 -19 -16q-2 -2 -2 -6v-49h-14v57v23h12v-13
q13 17 27 17q18 0 22 -19q6 9 10 13q12 6 19 6q10 0 18 -9t8 -28v-47z" />
    <glyph glyph-name="two" unicode="2" 
d="M59 1315h39q17 0 27 -9t10 -24t-10 -24t-27 -9h-18v-22h-21v88zM115 1282q0 16 -19 16h-16v-30h16q19 0 19 14zM244 1298h-45v-20h39v-16h-39v-19h45v-16h-66v88h66v-17zM365 1282q0 -21 -19 -27l19 -28h-21l-16 24h-19v-24h-18v88h37q17 0 27 -9t10 -24zM326 1268
q18 0 18 14q0 16 -18 16h-17v-30h17zM438 1241q17 0 17 8q0 7 -24.5 14t-24.5 25q0 27 34 27q19 0 31 -6l-6 -17q-12 6 -25 6q-16 0 -16 -8q0 -6 25.5 -13t25.5 -26q0 -26 -39 -26q-23 0 -33 10l7 14q12 -8 28 -8zM512 1270q0 20 13.5 32.5t33.5 12.5t33.5 -12.5t13.5 -32.5
t-13.5 -32.5t-33.5 -12.5t-33.5 12.5t-13.5 32.5zM586 1270q0 12 -8 20t-19 8q-12 0 -19.5 -8t-7.5 -20t7.5 -19.5t19.5 -7.5q11 0 19 7.5t8 19.5zM668 1315l43 -53v53h18v-88h-16l-43 53v-53h-19v88h17zM768 1227l39 88h18l39 -88h-20l-8 18h-41l-7 -18h-20zM829 1262
l-14 32l-12 -32h26zM903 1315h19v-72h43v-16h-62v88zM1069 1315h21v-49q0 -23 18 -23t18 23v49h21v-51q0 -39 -39 -39t-39 39v51zM1225 1241q16 0 16 8q0 7 -24.5 14t-24.5 25q0 27 35 27q18 0 30 -6l-6 -17q-12 6 -24 6q-17 0 -17 -8q0 -6 25 -13t25 -26q0 -26 -35 -26
q-22 0 -35 10l6 14q16 -8 29 -8zM1370 1298h-47v-20h41v-16h-41v-19h47v-16h-65v88h65v-17zM1475 1270q0 20 13.5 32.5t33.5 12.5t33.5 -12.5t13.5 -32.5t-13.5 -32.5t-33.5 -12.5t-33.5 12.5t-13.5 32.5zM1548 1270q0 12 -7.5 20t-18.5 8q-12 0 -19.5 -8t-7.5 -20
t7.5 -19.5t19.5 -7.5q11 0 18.5 7.5t7.5 19.5zM1630 1315l43 -53v53h19v-88h-17l-43 53v-53h-18v88h16zM1743 1315h18v-72h43v-16h-61v88zM1878 1227h-20v30l-33 58h20l25 -41l20 41h21l-33 -58v-30zM76 283v-2h-23l-4 -21h-2l8 45h29l-2 -4h-25l-2 -18h21zM88 272q0 9 5 15
t13 6q15 0 15 -12q0 -9 -5.5 -15t-13.5 -6q-14 0 -14 12zM117 281q0 10 -13 10q-14 0 -14 -19q0 -8 12 -8q15 0 15 17zM137 293h2v-6q3 6 13 6v-4q-12 0 -15 -13l-4 -16h-2zM207 301q-9 0 -15 -6.5t-6 -15.5q0 -15 15 -15q12 0 14 4l2 -2q-6 -6 -16 -6q-19 0 -19 19
q0 11 7.5 18.5t17.5 7.5q4 0 16 -6l-4 -4q-3 6 -12 6zM260 281q0 -9 -5 -15t-13 -6q-6 0 -10.5 3.5t-4.5 8.5q0 9 5.5 15t13.5 6q14 0 14 -12zM242 264q14 0 14 17q0 10 -10 10q-6 0 -10.5 -5.5t-4.5 -13.5t11 -8zM276 293h5l-2 -6q6 6 12 6q10 0 10 -6q6 6 14 6
q11 0 11 -10v-2l-4 -21h-3l5 21v2q0 8 -9 8q-11 0 -14 -12l-4 -19h-2l4 21v2q0 8 -8 8q-12 0 -15 -12l-2 -19h-4zM385 293q10 0 10 -10v-2l-4 -21h-2l4 21v2q0 8 -8 8q-11 0 -14 -12l-2 -19h-4l4 21v2q0 8 -11 8q-9 0 -12 -12l-2 -19h-4l6 33h4l-2 -6q3 6 12 6q10 0 13 -6
q3 6 12 6zM440 276h-28v-4q0 -8 12 -8q8 0 10 2l2 -2q-4 -4 -12 -4q-14 0 -14 12q0 21 16 21q14 0 14 -12v-5zM426 291q-11 0 -14 -12h24v2q0 10 -10 10zM457 293h4l-2 -6q6 6 12 6v-4q-11 0 -14 -13l-2 -16h-4zM496 291q-6 0 -10.5 -5.5t-4.5 -13.5t13 -8q8 0 10 2h2
q-6 -6 -12 -6q-15 0 -15 12q0 9 5.5 15t11.5 6q9 0 12 -6h-2q-4 4 -10 4zM530 303q0 -2 -4 -2q-2 0 -2 2t4 2q2 0 2 -2zM518 260l6 33h2l-6 -33h-2zM567 260h-2v6q-3 -6 -12 -6q-14 0 -14 12q0 21 18 21q8 0 12 -8l2 8h2zM553 264q14 0 14 17q0 10 -10 10q-14 0 -14 -19
q0 -8 10 -8zM588 260h-2l8 47h4zM604 252h-2l2 8v2q0 4 2 4l2 -2v-4zM664 274h-13l-2 -14h-4l10 45h15q14 0 14 -12q0 -19 -20 -19zM657 301l-6 -25h13q16 0 16 17q0 8 -10 8h-13zM696 260h-4l10 47h3zM743 276h-26v-4q0 -8 12 -8q8 0 10 2l2 -2q-8 -4 -12 -4q-16 0 -16 12
q0 9 5 15t13 6q14 0 14 -12q0 -5 -2 -5zM731 291q-11 0 -14 -12h24v2q0 10 -10 10zM786 293h5l-7 -33h-4l2 6q-6 -6 -12 -6q-14 0 -14 12q0 9 5 15t11 6q12 0 12 -8zM770 264q14 0 14 17q0 10 -12 10q-14 0 -14 -19q0 -8 12 -8zM809 264q12 0 12 6q0 4 -9 6t-9 7q0 10 12 10
q8 0 10 -4v-2q-4 4 -10 4q-10 0 -10 -8q0 -4 9 -6t9 -7q0 -10 -14 -10q-4 0 -12 4l4 2q2 -2 8 -2zM866 276h-28v-4q0 -8 12 -8q8 0 10 2l2 -2q-4 -4 -12 -4q-14 0 -14 12q0 21 16 21q14 0 14 -12v-5zM852 291q-8 0 -14 -12h24v2q0 10 -10 10zM913 260h-2l-12 45h4l10 -41
l25 41h2zM956 303q0 -2 -4 -2q-2 0 -2 2l2 2q4 0 4 -2zM944 260l6 33h2l-6 -33h-2zM979 291q-10 0 -10 -8q0 -4 9 -6t9 -7q0 -10 -14 -10q-8 0 -12 4l2 2q2 -2 12 -2q8 0 8 6q0 4 -9 6t-9 7q0 10 14 10q8 0 10 -4l-2 -2q-4 4 -8 4zM999 260l7 33h4l-9 -33h-2zM1012 303
l-2 -2q-4 0 -4 2t4 2q2 0 2 -2zM1028 299h2v-6h10v-4h-10l-4 -19q-2 -2 -2 -4q0 -4 6 -4l4 2l2 -2q-2 -2 -6 -2q-8 0 -8 6v4l4 19h-4v4h6v6zM1929 1174v-7h-1870v7h1870zM1929 1374v-6h-1870v6h1870zM1929 1395v-4h-1870v4h1870zM61 51v4h1870v-4h-1870zM61 74v4h1870v-4
h-1870zM1059 276h872v-4h-872v4zM1235 434q-8 0 -8 -14t8 -14q3 0 4.5 -3t-0.5 -6q-6 -6 -22 -6q-12 0 -15 4t0 17q3 18 -6 30q-14 7 -14 31q0 21 16 21q9 0 10.5 -4t-0.5 -17q-3 -17 -1.5 -20.5t10.5 -1.5q9 1 11.5 10.5t2.5 38.5q-2 42 6 42q2 0 4 -1q12 -2 12 -37
q0 -70 -18 -70zM1165 522q-7 -3 -9.5 -13.5t-2.5 -41.5q0 -53 8 -57q9 -6 5.5 -12.5t-15.5 -6.5t-14 8.5t0 55.5q2 57 -4 60q-3 1 -9 -1q-9 -3 -12.5 -1t-3.5 11q0 10 6 13.5t27 3.5q39 0 45 2q7 3 9.5 -0.5t2.5 -14.5q0 -19 -9 -19q-5 0 -7 9q-3 8 -17 4zM1317 446
q-20 -12 -22 -31q-1 -9 8 -9q3 0 4.5 -3t-0.5 -6q-3 -6 -19 -6q-7 0 -10 4.5t-4.5 20t-1.5 49.5l-2 76h26q24 0 38 -11.5t14 -31.5q0 -39 -31 -52zM1292 481q9 -39 31 -14q15 15 7 36t-30 21q-10 0 -11.5 -8.5t3.5 -34.5zM1479 580q-37 15 -47 32q-20 29 -29 2
q-4 -14 -27 -26q-20 -9 -48.5 -4t-43.5 22q-12 14 -27 8q-38 -22 -75 15q-14 15 -17.5 27t-3.5 46q0 54 -10 54q-12 0 -19.5 -23t-7.5 -59q0 -33 -6.5 -45.5t-27.5 -16.5q-16 0 -19 -24q-19 -86 -88 -64q-20 8 -40.5 30t-24.5 42q-3 11 -8.5 13t-24.5 -1q-31 -3 -49 15
l-21 16l-14 -18q-13 -21 -41 -21h-25v-41q0 -80 -55 -80q-24 0 -45 17q-21 14 -31 53q-9 29 -10 81t2 267q0 65 -6 68q-7 3 -24 -32t-25 -69q-10 -48 -13 -168l-4 -129l-30 4q-24 3 -39 13q-6 10 -13 121q-3 92 -10 123.5t-24 31.5q-31 0 -56.5 -43t-25.5 -94q0 -68 51 -76
q23 -4 22 -11q-4 -12 -48 -13l-32 2q-35 6 -59 30q-19 19 -22.5 29.5t-1.5 44.5q6 78 69 119q40 28 91.5 25.5t80.5 -31.5q27 -27 27 18q0 16 10 49q14 45 40.5 65.5t55 11t47.5 -47.5q10 -21 12 -56t1 -153q-2 -142 1.5 -180.5t16.5 -38.5q19 0 23 46t-13 75q-21 34 -13 79
t38 64q18 13 53 10q33 -4 33 2q0 7 14 9.5t33 -2.5l29 -7l2 -73q1 -76 8 -72q9 7 14 119q4 119 0 123q-24 4 -53 6q-53 3 -88 -12q-44 -19 -63 -11q-8 4 0 13q14 15 57.5 24.5t79.5 5.5q41 -3 61 -8q12 -3 16.5 4.5t10.5 40.5q8 38 16.5 45t40.5 0q12 -4 13.5 -12.5
t-1.5 -48.5l-6 -53h21q12 0 15.5 4t6.5 24q10 69 59.5 109.5t102.5 25.5q51 -15 57 -67q6 -65 -65 -101q-41 -18 -60 -18q-13 0 -16.5 -5.5t-5.5 -27.5q-4 -29 0 -55v-23l22 21q23 23 44 18q29 -6 43 -27.5t20 -68.5q7 -54 16.5 -54t12.5 54q3 35 7 46.5t21 25.5
q18 14 27.5 17.5t28.5 0.5q30 -4 43 -8q13 -6 16 10q7 26 53 8l21 -8l-6 -73q-5 -75 8 -95q17 -26 42 -17t50 50q17 31 20 76q0 37 -11.5 54.5t-39.5 25.5q-24 7 -23 12q3 8 46 10q78 5 108 -50t-14 -124q-37 -58 -109 -72q-28 -4 -39.5 -3.5t-35.5 8.5zM1128 950
q-23 -68 -14 -73q7 -4 37 12q38 20 54.5 51.5t4.5 63.5q-11 35 -38 17.5t-44 -71.5zM791 651q9 19 11 61t-7 48q-19 11 -30 -25q-11 -32 -5 -73q10 -59 31 -11zM1016 563q22 -35 23 21q0 16 -1 41q-1 16 -5 69t-5 76q-4 81 -12 84q-19 12 -23 -2t-4 -82q0 -161 27 -207z
M1376 621q11 20 13 62t-7 54q-8 11 -10.5 10t-11.5 -16q-27 -39 -17 -98q3 -22 13.5 -25.5t19.5 13.5zM1427 516q-51 22 -51 -16q0 -15 10.5 -19.5t16.5 6.5q4 6 8 6.5t7 -4.5t3 -14q0 -11 -3.5 -13t-16.5 1q-17 3 -21 0t-4 -23q0 -18 3 -22t16 -4q18 0 24 6q8 8 13 -6
q2 -9 -2 -13t-17 -4q-21 0 -41 -4q-10 -3 -12 9l-2 63v76h22q31 0 39 2q11 5 14.5 2t0.5 -15q-1 -13 -7 -14zM172 119h-14l-25 80h17l10 -41q1 -4 3 -13.5t3 -13.5q1 4 4 13.5t4 13.5l14 41h13l12 -41q1 -4 3 -13.5t3 -13.5q1 4 3 13.5t3 13.5l13 41h14l-27 -80h-12l-12 39
q-1 4 -4 12t-4 12q-1 -2 -3.5 -11t-3.5 -15zM315 119h-14l-25 80h17l10 -41q1 -4 3 -13.5t3 -13.5q5 22 8 27l13 41h12l14 -41q1 -4 3 -13.5t3 -13.5q1 4 3.5 13.5t3.5 13.5l12 41h14l-26 -80h-13l-12 39q-4 8 -8 24q-4 -16 -8 -26zM459 119h-15l-24 80h14l12 -41
q1 -4 3.5 -13.5t3.5 -13.5q1 4 3 13.5t3 13.5l14 41h12l13 -41q2 -5 8 -27q1 4 3 13.5t3 13.5l12 41h15l-27 -80h-12l-13 39q-4 8 -8 24q-4 -16 -8 -26zM571 117q-10 0 -10 10t10 10q9 0 9 -10t-9 -10zM686 119h-16v45q0 26 -19 26q-16 0 -20 -16q0 -1 -1 -3t-1 -3v-49h-15
v57v23h13l2 -13q11 17 26 17q12 0 21.5 -9t9.5 -28v-47zM719 139q0 14 13 22.5t36 8.5q0 20 -18 20q-12 0 -21 -6l-4 11q16 8 27 8q30 0 30 -35v-31q0 -12 2 -18h-14v8q-10 -10 -25 -10q-26 0 -26 22zM770 160q-35 0 -35 -19q0 -14 13 -14q16 0 20 12q0 2 1 3.5t1 2.5v15z
M862 188h-20v-45q0 -16 10 -16l8 2l2 -10q-4 -2 -14 -2q-11 0 -17 6q-6 12 -6 20v45h-12v11h12v20l17 4v-24h20v-11zM965 119h-15v45q0 26 -18 26q-13 0 -21 -16v-6v-49h-16v119h16v-52q4 7 11 11q12 6 16 6q10 0 18.5 -9t8.5 -28v-47zM1032 203q31 0 31 -35v-31q0 -3 1 -9
t1 -9h-12l-2 8h-2q-7 -10 -25 -10q-10 0 -17.5 6.5t-7.5 15.5q0 14 13.5 22.5t36.5 8.5q0 20 -19 20q-11 0 -20 -6l-4 11q12 8 26 8zM1049 145v15q-33 0 -33 -19q0 -14 12 -14q17 0 21 12v6zM1108 219l12 4v-24h23v-11h-23v-45q0 -16 13 -16q2 0 4.5 1t3.5 1l2 -10
q-4 -2 -15 -2q-10 0 -16 6q-4 4 -4 20v45h-14v11h14v20zM1184 100q8 3 12 17q2 2 2 4v4l-31 74h15l20 -47q0 -9 4 -17q4 8 4 17l19 47h14l-22 -58q-13 -37 -27 -51q-13 -10 -18 -10l-5 12q10 5 13 8zM1288 84h-14v90q0 19 -2 25h14l2 -13q10 17 29 17q14 0 23.5 -12.5
t9.5 -30.5q0 -21 -10.5 -32t-26.5 -11t-25 12v-45zM1288 164v-12v-7q7 -18 23 -18q24 0 24 31q0 32 -22 32q-8 0 -15 -5.5t-8 -14.5q-2 0 -2 -6zM1452 162v-6h-57q0 -13 8.5 -21t19.5 -8t23 4l2 -10q-8 -4 -27 -4t-30 11t-11 30t10.5 32t28.5 13q33 0 33 -41zM1395 166h43
q0 24 -21 24q-17 0 -22 -24zM1503 127q0 -10 -10 -10t-10 10t10 10t10 -10zM1575 190q-13 0 -21 -9t-8 -23q0 -13 8.5 -22t20.5 -9q5 0 11 2t7 2l2 -10q-4 -4 -22 -4q-19 0 -30 11t-11 30t11.5 31t31.5 12q16 0 20 -4l-2 -11q-1 0 -7 2t-11 2zM1702 160q0 -22 -12 -32.5
t-29 -10.5q-15 0 -26 11.5t-11 29.5q0 45 41 45q17 0 27 -12t10 -31zM1638 158q0 -13 7 -22t18 -9t18 9t7 22q0 12 -7 22t-18 10t-18 -9.5t-7 -22.5zM1855 119h-14v45q0 26 -18 26q-14 0 -19 -14v-8v-49h-14v49q0 22 -16 22q-15 0 -19 -16q-2 -2 -2 -6v-49h-14v57v23h12v-13
q13 17 27 17q18 0 22 -19q6 9 10 13q12 6 19 6q10 0 18 -9t8 -28v-47z" />
    <glyph glyph-name="three" unicode="3" 
d="M59 1315h39q17 0 27 -9t10 -24t-10 -24t-27 -9h-18v-22h-21v88zM115 1282q0 16 -19 16h-16v-30h16q19 0 19 14zM244 1298h-45v-20h39v-16h-39v-19h45v-16h-66v88h66v-17zM365 1282q0 -21 -19 -27l19 -28h-21l-16 24h-19v-24h-18v88h37q17 0 27 -9t10 -24zM326 1268
q18 0 18 14q0 16 -18 16h-17v-30h17zM438 1241q17 0 17 8q0 7 -24.5 14t-24.5 25q0 27 34 27q19 0 31 -6l-6 -17q-12 6 -25 6q-16 0 -16 -8q0 -6 25.5 -13t25.5 -26q0 -26 -39 -26q-23 0 -33 10l7 14q12 -8 28 -8zM512 1270q0 20 13.5 32.5t33.5 12.5t33.5 -12.5t13.5 -32.5
t-13.5 -32.5t-33.5 -12.5t-33.5 12.5t-13.5 32.5zM586 1270q0 12 -8 20t-19 8q-12 0 -19.5 -8t-7.5 -20t7.5 -19.5t19.5 -7.5q11 0 19 7.5t8 19.5zM668 1315l43 -53v53h18v-88h-16l-43 53v-53h-19v88h17zM768 1227l39 88h18l39 -88h-20l-8 18h-41l-7 -18h-20zM829 1262
l-14 32l-12 -32h26zM903 1315h19v-72h43v-16h-62v88zM1069 1315h21v-49q0 -23 18 -23t18 23v49h21v-51q0 -39 -39 -39t-39 39v51zM1225 1241q16 0 16 8q0 7 -24.5 14t-24.5 25q0 27 35 27q18 0 30 -6l-6 -17q-12 6 -24 6q-17 0 -17 -8q0 -6 25 -13t25 -26q0 -26 -35 -26
q-22 0 -35 10l6 14q16 -8 29 -8zM1370 1298h-47v-20h41v-16h-41v-19h47v-16h-65v88h65v-17zM1475 1270q0 20 13.5 32.5t33.5 12.5t33.5 -12.5t13.5 -32.5t-13.5 -32.5t-33.5 -12.5t-33.5 12.5t-13.5 32.5zM1548 1270q0 12 -7.5 20t-18.5 8q-12 0 -19.5 -8t-7.5 -20
t7.5 -19.5t19.5 -7.5q11 0 18.5 7.5t7.5 19.5zM1630 1315l43 -53v53h19v-88h-17l-43 53v-53h-18v88h16zM1743 1315h18v-72h43v-16h-61v88zM1878 1227h-20v30l-33 58h20l25 -41l20 41h21l-33 -58v-30zM76 283v-2h-23l-4 -21h-2l8 45h29l-2 -4h-25l-2 -18h21zM88 272q0 9 5 15
t13 6q15 0 15 -12q0 -9 -5.5 -15t-13.5 -6q-14 0 -14 12zM117 281q0 10 -13 10q-14 0 -14 -19q0 -8 12 -8q15 0 15 17zM137 293h2v-6q3 6 13 6v-4q-12 0 -15 -13l-4 -16h-2zM207 301q-9 0 -15 -6.5t-6 -15.5q0 -15 15 -15q12 0 14 4l2 -2q-6 -6 -16 -6q-19 0 -19 19
q0 11 7.5 18.5t17.5 7.5q4 0 16 -6l-4 -4q-3 6 -12 6zM260 281q0 -9 -5 -15t-13 -6q-6 0 -10.5 3.5t-4.5 8.5q0 9 5.5 15t13.5 6q14 0 14 -12zM242 264q14 0 14 17q0 10 -10 10q-6 0 -10.5 -5.5t-4.5 -13.5t11 -8zM276 293h5l-2 -6q6 6 12 6q10 0 10 -6q6 6 14 6
q11 0 11 -10v-2l-4 -21h-3l5 21v2q0 8 -9 8q-11 0 -14 -12l-4 -19h-2l4 21v2q0 8 -8 8q-12 0 -15 -12l-2 -19h-4zM385 293q10 0 10 -10v-2l-4 -21h-2l4 21v2q0 8 -8 8q-11 0 -14 -12l-2 -19h-4l4 21v2q0 8 -11 8q-9 0 -12 -12l-2 -19h-4l6 33h4l-2 -6q3 6 12 6q10 0 13 -6
q3 6 12 6zM440 276h-28v-4q0 -8 12 -8q8 0 10 2l2 -2q-4 -4 -12 -4q-14 0 -14 12q0 21 16 21q14 0 14 -12v-5zM426 291q-11 0 -14 -12h24v2q0 10 -10 10zM457 293h4l-2 -6q6 6 12 6v-4q-11 0 -14 -13l-2 -16h-4zM496 291q-6 0 -10.5 -5.5t-4.5 -13.5t13 -8q8 0 10 2h2
q-6 -6 -12 -6q-15 0 -15 12q0 9 5.5 15t11.5 6q9 0 12 -6h-2q-4 4 -10 4zM530 303q0 -2 -4 -2q-2 0 -2 2t4 2q2 0 2 -2zM518 260l6 33h2l-6 -33h-2zM567 260h-2v6q-3 -6 -12 -6q-14 0 -14 12q0 21 18 21q8 0 12 -8l2 8h2zM553 264q14 0 14 17q0 10 -10 10q-14 0 -14 -19
q0 -8 10 -8zM588 260h-2l8 47h4zM604 252h-2l2 8v2q0 4 2 4l2 -2v-4zM664 274h-13l-2 -14h-4l10 45h15q14 0 14 -12q0 -19 -20 -19zM657 301l-6 -25h13q16 0 16 17q0 8 -10 8h-13zM696 260h-4l10 47h3zM743 276h-26v-4q0 -8 12 -8q8 0 10 2l2 -2q-8 -4 -12 -4q-16 0 -16 12
q0 9 5 15t13 6q14 0 14 -12q0 -5 -2 -5zM731 291q-11 0 -14 -12h24v2q0 10 -10 10zM786 293h5l-7 -33h-4l2 6q-6 -6 -12 -6q-14 0 -14 12q0 9 5 15t11 6q12 0 12 -8zM770 264q14 0 14 17q0 10 -12 10q-14 0 -14 -19q0 -8 12 -8zM809 264q12 0 12 6q0 4 -9 6t-9 7q0 10 12 10
q8 0 10 -4v-2q-4 4 -10 4q-10 0 -10 -8q0 -4 9 -6t9 -7q0 -10 -14 -10q-4 0 -12 4l4 2q2 -2 8 -2zM866 276h-28v-4q0 -8 12 -8q8 0 10 2l2 -2q-4 -4 -12 -4q-14 0 -14 12q0 21 16 21q14 0 14 -12v-5zM852 291q-8 0 -14 -12h24v2q0 10 -10 10zM913 260h-2l-12 45h4l10 -41
l25 41h2zM956 303q0 -2 -4 -2q-2 0 -2 2l2 2q4 0 4 -2zM944 260l6 33h2l-6 -33h-2zM979 291q-10 0 -10 -8q0 -4 9 -6t9 -7q0 -10 -14 -10q-8 0 -12 4l2 2q2 -2 12 -2q8 0 8 6q0 4 -9 6t-9 7q0 10 14 10q8 0 10 -4l-2 -2q-4 4 -8 4zM999 260l7 33h4l-9 -33h-2zM1012 303
l-2 -2q-4 0 -4 2t4 2q2 0 2 -2zM1028 299h2v-6h10v-4h-10l-4 -19q-2 -2 -2 -4q0 -4 6 -4l4 2l2 -2q-2 -2 -6 -2q-8 0 -8 6v4l4 19h-4v4h6v6zM1929 1174v-7h-1870v7h1870zM1929 1374v-6h-1870v6h1870zM1929 1395v-4h-1870v4h1870zM61 51v4h1870v-4h-1870zM61 74v4h1870v-4
h-1870zM1059 276h872v-4h-872v4zM1235 434q-8 0 -8 -14t8 -14q3 0 4.5 -3t-0.5 -6q-6 -6 -22 -6q-12 0 -15 4t0 17q3 18 -6 30q-14 7 -14 31q0 21 16 21q9 0 10.5 -4t-0.5 -17q-3 -17 -1.5 -20.5t10.5 -1.5q9 1 11.5 10.5t2.5 38.5q-2 42 6 42q2 0 4 -1q12 -2 12 -37
q0 -70 -18 -70zM1165 522q-7 -3 -9.5 -13.5t-2.5 -41.5q0 -53 8 -57q9 -6 5.5 -12.5t-15.5 -6.5t-14 8.5t0 55.5q2 57 -4 60q-3 1 -9 -1q-9 -3 -12.5 -1t-3.5 11q0 10 6 13.5t27 3.5q39 0 45 2q7 3 9.5 -0.5t2.5 -14.5q0 -19 -9 -19q-5 0 -7 9q-3 8 -17 4zM1317 446
q-20 -12 -22 -31q-1 -9 8 -9q3 0 4.5 -3t-0.5 -6q-3 -6 -19 -6q-7 0 -10 4.5t-4.5 20t-1.5 49.5l-2 76h26q24 0 38 -11.5t14 -31.5q0 -39 -31 -52zM1292 481q9 -39 31 -14q15 15 7 36t-30 21q-10 0 -11.5 -8.5t3.5 -34.5zM1479 580q-37 15 -47 32q-20 29 -29 2
q-4 -14 -27 -26q-20 -9 -48.5 -4t-43.5 22q-12 14 -27 8q-38 -22 -75 15q-14 15 -17.5 27t-3.5 46q0 54 -10 54q-12 0 -19.5 -23t-7.5 -59q0 -33 -6.5 -45.5t-27.5 -16.5q-16 0 -19 -24q-19 -86 -88 -64q-20 8 -40.5 30t-24.5 42q-3 11 -8.5 13t-24.5 -1q-31 -3 -49 15
l-21 16l-14 -18q-13 -21 -41 -21h-25v-41q0 -80 -55 -80q-24 0 -45 17q-21 14 -31 53q-9 29 -10 81t2 267q0 65 -6 68q-7 3 -24 -32t-25 -69q-10 -48 -13 -168l-4 -129l-30 4q-24 3 -39 13q-6 10 -13 121q-3 92 -10 123.5t-24 31.5q-31 0 -56.5 -43t-25.5 -94q0 -68 51 -76
q23 -4 22 -11q-4 -12 -48 -13l-32 2q-35 6 -59 30q-19 19 -22.5 29.5t-1.5 44.5q6 78 69 119q40 28 91.5 25.5t80.5 -31.5q27 -27 27 18q0 16 10 49q14 45 40.5 65.5t55 11t47.5 -47.5q10 -21 12 -56t1 -153q-2 -142 1.5 -180.5t16.5 -38.5q19 0 23 46t-13 75q-21 34 -13 79
t38 64q18 13 53 10q33 -4 33 2q0 7 14 9.5t33 -2.5l29 -7l2 -73q1 -76 8 -72q9 7 14 119q4 119 0 123q-24 4 -53 6q-53 3 -88 -12q-44 -19 -63 -11q-8 4 0 13q14 15 57.5 24.5t79.5 5.5q41 -3 61 -8q12 -3 16.5 4.5t10.5 40.5q8 38 16.5 45t40.5 0q12 -4 13.5 -12.5
t-1.5 -48.5l-6 -53h21q12 0 15.5 4t6.5 24q10 69 59.5 109.5t102.5 25.5q51 -15 57 -67q6 -65 -65 -101q-41 -18 -60 -18q-13 0 -16.5 -5.5t-5.5 -27.5q-4 -29 0 -55v-23l22 21q23 23 44 18q29 -6 43 -27.5t20 -68.5q7 -54 16.5 -54t12.5 54q3 35 7 46.5t21 25.5
q18 14 27.5 17.5t28.5 0.5q30 -4 43 -8q13 -6 16 10q7 26 53 8l21 -8l-6 -73q-5 -75 8 -95q17 -26 42 -17t50 50q17 31 20 76q0 37 -11.5 54.5t-39.5 25.5q-24 7 -23 12q3 8 46 10q78 5 108 -50t-14 -124q-37 -58 -109 -72q-28 -4 -39.5 -3.5t-35.5 8.5zM1128 950
q-23 -68 -14 -73q7 -4 37 12q38 20 54.5 51.5t4.5 63.5q-11 35 -38 17.5t-44 -71.5zM791 651q9 19 11 61t-7 48q-19 11 -30 -25q-11 -32 -5 -73q10 -59 31 -11zM1016 563q22 -35 23 21q0 16 -1 41q-1 16 -5 69t-5 76q-4 81 -12 84q-19 12 -23 -2t-4 -82q0 -161 27 -207z
M1376 621q11 20 13 62t-7 54q-8 11 -10.5 10t-11.5 -16q-27 -39 -17 -98q3 -22 13.5 -25.5t19.5 13.5zM1427 516q-51 22 -51 -16q0 -15 10.5 -19.5t16.5 6.5q4 6 8 6.5t7 -4.5t3 -14q0 -11 -3.5 -13t-16.5 1q-17 3 -21 0t-4 -23q0 -18 3 -22t16 -4q18 0 24 6q8 8 13 -6
q2 -9 -2 -13t-17 -4q-21 0 -41 -4q-10 -3 -12 9l-2 63v76h22q31 0 39 2q11 5 14.5 2t0.5 -15q-1 -13 -7 -14zM172 119h-14l-25 80h17l10 -41q1 -4 3 -13.5t3 -13.5q1 4 4 13.5t4 13.5l14 41h13l12 -41q1 -4 3 -13.5t3 -13.5q1 4 3 13.5t3 13.5l13 41h14l-27 -80h-12l-12 39
q-1 4 -4 12t-4 12q-1 -2 -3.5 -11t-3.5 -15zM315 119h-14l-25 80h17l10 -41q1 -4 3 -13.5t3 -13.5q5 22 8 27l13 41h12l14 -41q1 -4 3 -13.5t3 -13.5q1 4 3.5 13.5t3.5 13.5l12 41h14l-26 -80h-13l-12 39q-4 8 -8 24q-4 -16 -8 -26zM459 119h-15l-24 80h14l12 -41
q1 -4 3.5 -13.5t3.5 -13.5q1 4 3 13.5t3 13.5l14 41h12l13 -41q2 -5 8 -27q1 4 3 13.5t3 13.5l12 41h15l-27 -80h-12l-13 39q-4 8 -8 24q-4 -16 -8 -26zM571 117q-10 0 -10 10t10 10q9 0 9 -10t-9 -10zM686 119h-16v45q0 26 -19 26q-16 0 -20 -16q0 -1 -1 -3t-1 -3v-49h-15
v57v23h13l2 -13q11 17 26 17q12 0 21.5 -9t9.5 -28v-47zM719 139q0 14 13 22.5t36 8.5q0 20 -18 20q-12 0 -21 -6l-4 11q16 8 27 8q30 0 30 -35v-31q0 -12 2 -18h-14v8q-10 -10 -25 -10q-26 0 -26 22zM770 160q-35 0 -35 -19q0 -14 13 -14q16 0 20 12q0 2 1 3.5t1 2.5v15z
M862 188h-20v-45q0 -16 10 -16l8 2l2 -10q-4 -2 -14 -2q-11 0 -17 6q-6 12 -6 20v45h-12v11h12v20l17 4v-24h20v-11zM965 119h-15v45q0 26 -18 26q-13 0 -21 -16v-6v-49h-16v119h16v-52q4 7 11 11q12 6 16 6q10 0 18.5 -9t8.5 -28v-47zM1032 203q31 0 31 -35v-31q0 -3 1 -9
t1 -9h-12l-2 8h-2q-7 -10 -25 -10q-10 0 -17.5 6.5t-7.5 15.5q0 14 13.5 22.5t36.5 8.5q0 20 -19 20q-11 0 -20 -6l-4 11q12 8 26 8zM1049 145v15q-33 0 -33 -19q0 -14 12 -14q17 0 21 12v6zM1108 219l12 4v-24h23v-11h-23v-45q0 -16 13 -16q2 0 4.5 1t3.5 1l2 -10
q-4 -2 -15 -2q-10 0 -16 6q-4 4 -4 20v45h-14v11h14v20zM1184 100q8 3 12 17q2 2 2 4v4l-31 74h15l20 -47q0 -9 4 -17q4 8 4 17l19 47h14l-22 -58q-13 -37 -27 -51q-13 -10 -18 -10l-5 12q10 5 13 8zM1288 84h-14v90q0 19 -2 25h14l2 -13q10 17 29 17q14 0 23.5 -12.5
t9.5 -30.5q0 -21 -10.5 -32t-26.5 -11t-25 12v-45zM1288 164v-12v-7q7 -18 23 -18q24 0 24 31q0 32 -22 32q-8 0 -15 -5.5t-8 -14.5q-2 0 -2 -6zM1452 162v-6h-57q0 -13 8.5 -21t19.5 -8t23 4l2 -10q-8 -4 -27 -4t-30 11t-11 30t10.5 32t28.5 13q33 0 33 -41zM1395 166h43
q0 24 -21 24q-17 0 -22 -24zM1503 127q0 -10 -10 -10t-10 10t10 10t10 -10zM1575 190q-13 0 -21 -9t-8 -23q0 -13 8.5 -22t20.5 -9q5 0 11 2t7 2l2 -10q-4 -4 -22 -4q-19 0 -30 11t-11 30t11.5 31t31.5 12q16 0 20 -4l-2 -11q-1 0 -7 2t-11 2zM1702 160q0 -22 -12 -32.5
t-29 -10.5q-15 0 -26 11.5t-11 29.5q0 45 41 45q17 0 27 -12t10 -31zM1638 158q0 -13 7 -22t18 -9t18 9t7 22q0 12 -7 22t-18 10t-18 -9.5t-7 -22.5zM1855 119h-14v45q0 26 -18 26q-14 0 -19 -14v-8v-49h-14v49q0 22 -16 22q-15 0 -19 -16q-2 -2 -2 -6v-49h-14v57v23h12v-13
q13 17 27 17q18 0 22 -19q6 9 10 13q12 6 19 6q10 0 18 -9t8 -28v-47z" />
    <glyph glyph-name="four" unicode="4" 
d="M59 1315h39q17 0 27 -9t10 -24t-10 -24t-27 -9h-18v-22h-21v88zM115 1282q0 16 -19 16h-16v-30h16q19 0 19 14zM244 1298h-45v-20h39v-16h-39v-19h45v-16h-66v88h66v-17zM365 1282q0 -21 -19 -27l19 -28h-21l-16 24h-19v-24h-18v88h37q17 0 27 -9t10 -24zM326 1268
q18 0 18 14q0 16 -18 16h-17v-30h17zM438 1241q17 0 17 8q0 7 -24.5 14t-24.5 25q0 27 34 27q19 0 31 -6l-6 -17q-12 6 -25 6q-16 0 -16 -8q0 -6 25.5 -13t25.5 -26q0 -26 -39 -26q-23 0 -33 10l7 14q12 -8 28 -8zM512 1270q0 20 13.5 32.5t33.5 12.5t33.5 -12.5t13.5 -32.5
t-13.5 -32.5t-33.5 -12.5t-33.5 12.5t-13.5 32.5zM586 1270q0 12 -8 20t-19 8q-12 0 -19.5 -8t-7.5 -20t7.5 -19.5t19.5 -7.5q11 0 19 7.5t8 19.5zM668 1315l43 -53v53h18v-88h-16l-43 53v-53h-19v88h17zM768 1227l39 88h18l39 -88h-20l-8 18h-41l-7 -18h-20zM829 1262
l-14 32l-12 -32h26zM903 1315h19v-72h43v-16h-62v88zM1069 1315h21v-49q0 -23 18 -23t18 23v49h21v-51q0 -39 -39 -39t-39 39v51zM1225 1241q16 0 16 8q0 7 -24.5 14t-24.5 25q0 27 35 27q18 0 30 -6l-6 -17q-12 6 -24 6q-17 0 -17 -8q0 -6 25 -13t25 -26q0 -26 -35 -26
q-22 0 -35 10l6 14q16 -8 29 -8zM1370 1298h-47v-20h41v-16h-41v-19h47v-16h-65v88h65v-17zM1475 1270q0 20 13.5 32.5t33.5 12.5t33.5 -12.5t13.5 -32.5t-13.5 -32.5t-33.5 -12.5t-33.5 12.5t-13.5 32.5zM1548 1270q0 12 -7.5 20t-18.5 8q-12 0 -19.5 -8t-7.5 -20
t7.5 -19.5t19.5 -7.5q11 0 18.5 7.5t7.5 19.5zM1630 1315l43 -53v53h19v-88h-17l-43 53v-53h-18v88h16zM1743 1315h18v-72h43v-16h-61v88zM1878 1227h-20v30l-33 58h20l25 -41l20 41h21l-33 -58v-30zM76 283v-2h-23l-4 -21h-2l8 45h29l-2 -4h-25l-2 -18h21zM88 272q0 9 5 15
t13 6q15 0 15 -12q0 -9 -5.5 -15t-13.5 -6q-14 0 -14 12zM117 281q0 10 -13 10q-14 0 -14 -19q0 -8 12 -8q15 0 15 17zM137 293h2v-6q3 6 13 6v-4q-12 0 -15 -13l-4 -16h-2zM207 301q-9 0 -15 -6.5t-6 -15.5q0 -15 15 -15q12 0 14 4l2 -2q-6 -6 -16 -6q-19 0 -19 19
q0 11 7.5 18.5t17.5 7.5q4 0 16 -6l-4 -4q-3 6 -12 6zM260 281q0 -9 -5 -15t-13 -6q-6 0 -10.5 3.5t-4.5 8.5q0 9 5.5 15t13.5 6q14 0 14 -12zM242 264q14 0 14 17q0 10 -10 10q-6 0 -10.5 -5.5t-4.5 -13.5t11 -8zM276 293h5l-2 -6q6 6 12 6q10 0 10 -6q6 6 14 6
q11 0 11 -10v-2l-4 -21h-3l5 21v2q0 8 -9 8q-11 0 -14 -12l-4 -19h-2l4 21v2q0 8 -8 8q-12 0 -15 -12l-2 -19h-4zM385 293q10 0 10 -10v-2l-4 -21h-2l4 21v2q0 8 -8 8q-11 0 -14 -12l-2 -19h-4l4 21v2q0 8 -11 8q-9 0 -12 -12l-2 -19h-4l6 33h4l-2 -6q3 6 12 6q10 0 13 -6
q3 6 12 6zM440 276h-28v-4q0 -8 12 -8q8 0 10 2l2 -2q-4 -4 -12 -4q-14 0 -14 12q0 21 16 21q14 0 14 -12v-5zM426 291q-11 0 -14 -12h24v2q0 10 -10 10zM457 293h4l-2 -6q6 6 12 6v-4q-11 0 -14 -13l-2 -16h-4zM496 291q-6 0 -10.5 -5.5t-4.5 -13.5t13 -8q8 0 10 2h2
q-6 -6 -12 -6q-15 0 -15 12q0 9 5.5 15t11.5 6q9 0 12 -6h-2q-4 4 -10 4zM530 303q0 -2 -4 -2q-2 0 -2 2t4 2q2 0 2 -2zM518 260l6 33h2l-6 -33h-2zM567 260h-2v6q-3 -6 -12 -6q-14 0 -14 12q0 21 18 21q8 0 12 -8l2 8h2zM553 264q14 0 14 17q0 10 -10 10q-14 0 -14 -19
q0 -8 10 -8zM588 260h-2l8 47h4zM604 252h-2l2 8v2q0 4 2 4l2 -2v-4zM664 274h-13l-2 -14h-4l10 45h15q14 0 14 -12q0 -19 -20 -19zM657 301l-6 -25h13q16 0 16 17q0 8 -10 8h-13zM696 260h-4l10 47h3zM743 276h-26v-4q0 -8 12 -8q8 0 10 2l2 -2q-8 -4 -12 -4q-16 0 -16 12
q0 9 5 15t13 6q14 0 14 -12q0 -5 -2 -5zM731 291q-11 0 -14 -12h24v2q0 10 -10 10zM786 293h5l-7 -33h-4l2 6q-6 -6 -12 -6q-14 0 -14 12q0 9 5 15t11 6q12 0 12 -8zM770 264q14 0 14 17q0 10 -12 10q-14 0 -14 -19q0 -8 12 -8zM809 264q12 0 12 6q0 4 -9 6t-9 7q0 10 12 10
q8 0 10 -4v-2q-4 4 -10 4q-10 0 -10 -8q0 -4 9 -6t9 -7q0 -10 -14 -10q-4 0 -12 4l4 2q2 -2 8 -2zM866 276h-28v-4q0 -8 12 -8q8 0 10 2l2 -2q-4 -4 -12 -4q-14 0 -14 12q0 21 16 21q14 0 14 -12v-5zM852 291q-8 0 -14 -12h24v2q0 10 -10 10zM913 260h-2l-12 45h4l10 -41
l25 41h2zM956 303q0 -2 -4 -2q-2 0 -2 2l2 2q4 0 4 -2zM944 260l6 33h2l-6 -33h-2zM979 291q-10 0 -10 -8q0 -4 9 -6t9 -7q0 -10 -14 -10q-8 0 -12 4l2 2q2 -2 12 -2q8 0 8 6q0 4 -9 6t-9 7q0 10 14 10q8 0 10 -4l-2 -2q-4 4 -8 4zM999 260l7 33h4l-9 -33h-2zM1012 303
l-2 -2q-4 0 -4 2t4 2q2 0 2 -2zM1028 299h2v-6h10v-4h-10l-4 -19q-2 -2 -2 -4q0 -4 6 -4l4 2l2 -2q-2 -2 -6 -2q-8 0 -8 6v4l4 19h-4v4h6v6zM1929 1174v-7h-1870v7h1870zM1929 1374v-6h-1870v6h1870zM1929 1395v-4h-1870v4h1870zM61 51v4h1870v-4h-1870zM61 74v4h1870v-4
h-1870zM1059 276h872v-4h-872v4zM1235 434q-8 0 -8 -14t8 -14q3 0 4.5 -3t-0.5 -6q-6 -6 -22 -6q-12 0 -15 4t0 17q3 18 -6 30q-14 7 -14 31q0 21 16 21q9 0 10.5 -4t-0.5 -17q-3 -17 -1.5 -20.5t10.5 -1.5q9 1 11.5 10.5t2.5 38.5q-2 42 6 42q2 0 4 -1q12 -2 12 -37
q0 -70 -18 -70zM1165 522q-7 -3 -9.5 -13.5t-2.5 -41.5q0 -53 8 -57q9 -6 5.5 -12.5t-15.5 -6.5t-14 8.5t0 55.5q2 57 -4 60q-3 1 -9 -1q-9 -3 -12.5 -1t-3.5 11q0 10 6 13.5t27 3.5q39 0 45 2q7 3 9.5 -0.5t2.5 -14.5q0 -19 -9 -19q-5 0 -7 9q-3 8 -17 4zM1317 446
q-20 -12 -22 -31q-1 -9 8 -9q3 0 4.5 -3t-0.5 -6q-3 -6 -19 -6q-7 0 -10 4.5t-4.5 20t-1.5 49.5l-2 76h26q24 0 38 -11.5t14 -31.5q0 -39 -31 -52zM1292 481q9 -39 31 -14q15 15 7 36t-30 21q-10 0 -11.5 -8.5t3.5 -34.5zM1479 580q-37 15 -47 32q-20 29 -29 2
q-4 -14 -27 -26q-20 -9 -48.5 -4t-43.5 22q-12 14 -27 8q-38 -22 -75 15q-14 15 -17.5 27t-3.5 46q0 54 -10 54q-12 0 -19.5 -23t-7.5 -59q0 -33 -6.5 -45.5t-27.5 -16.5q-16 0 -19 -24q-19 -86 -88 -64q-20 8 -40.5 30t-24.5 42q-3 11 -8.5 13t-24.5 -1q-31 -3 -49 15
l-21 16l-14 -18q-13 -21 -41 -21h-25v-41q0 -80 -55 -80q-24 0 -45 17q-21 14 -31 53q-9 29 -10 81t2 267q0 65 -6 68q-7 3 -24 -32t-25 -69q-10 -48 -13 -168l-4 -129l-30 4q-24 3 -39 13q-6 10 -13 121q-3 92 -10 123.5t-24 31.5q-31 0 -56.5 -43t-25.5 -94q0 -68 51 -76
q23 -4 22 -11q-4 -12 -48 -13l-32 2q-35 6 -59 30q-19 19 -22.5 29.5t-1.5 44.5q6 78 69 119q40 28 91.5 25.5t80.5 -31.5q27 -27 27 18q0 16 10 49q14 45 40.5 65.5t55 11t47.5 -47.5q10 -21 12 -56t1 -153q-2 -142 1.5 -180.5t16.5 -38.5q19 0 23 46t-13 75q-21 34 -13 79
t38 64q18 13 53 10q33 -4 33 2q0 7 14 9.5t33 -2.5l29 -7l2 -73q1 -76 8 -72q9 7 14 119q4 119 0 123q-24 4 -53 6q-53 3 -88 -12q-44 -19 -63 -11q-8 4 0 13q14 15 57.5 24.5t79.5 5.5q41 -3 61 -8q12 -3 16.5 4.5t10.5 40.5q8 38 16.5 45t40.5 0q12 -4 13.5 -12.5
t-1.5 -48.5l-6 -53h21q12 0 15.5 4t6.5 24q10 69 59.5 109.5t102.5 25.5q51 -15 57 -67q6 -65 -65 -101q-41 -18 -60 -18q-13 0 -16.5 -5.5t-5.5 -27.5q-4 -29 0 -55v-23l22 21q23 23 44 18q29 -6 43 -27.5t20 -68.5q7 -54 16.5 -54t12.5 54q3 35 7 46.5t21 25.5
q18 14 27.5 17.5t28.5 0.5q30 -4 43 -8q13 -6 16 10q7 26 53 8l21 -8l-6 -73q-5 -75 8 -95q17 -26 42 -17t50 50q17 31 20 76q0 37 -11.5 54.5t-39.5 25.5q-24 7 -23 12q3 8 46 10q78 5 108 -50t-14 -124q-37 -58 -109 -72q-28 -4 -39.5 -3.5t-35.5 8.5zM1128 950
q-23 -68 -14 -73q7 -4 37 12q38 20 54.5 51.5t4.5 63.5q-11 35 -38 17.5t-44 -71.5zM791 651q9 19 11 61t-7 48q-19 11 -30 -25q-11 -32 -5 -73q10 -59 31 -11zM1016 563q22 -35 23 21q0 16 -1 41q-1 16 -5 69t-5 76q-4 81 -12 84q-19 12 -23 -2t-4 -82q0 -161 27 -207z
M1376 621q11 20 13 62t-7 54q-8 11 -10.5 10t-11.5 -16q-27 -39 -17 -98q3 -22 13.5 -25.5t19.5 13.5zM1427 516q-51 22 -51 -16q0 -15 10.5 -19.5t16.5 6.5q4 6 8 6.5t7 -4.5t3 -14q0 -11 -3.5 -13t-16.5 1q-17 3 -21 0t-4 -23q0 -18 3 -22t16 -4q18 0 24 6q8 8 13 -6
q2 -9 -2 -13t-17 -4q-21 0 -41 -4q-10 -3 -12 9l-2 63v76h22q31 0 39 2q11 5 14.5 2t0.5 -15q-1 -13 -7 -14zM172 119h-14l-25 80h17l10 -41q1 -4 3 -13.5t3 -13.5q1 4 4 13.5t4 13.5l14 41h13l12 -41q1 -4 3 -13.5t3 -13.5q1 4 3 13.5t3 13.5l13 41h14l-27 -80h-12l-12 39
q-1 4 -4 12t-4 12q-1 -2 -3.5 -11t-3.5 -15zM315 119h-14l-25 80h17l10 -41q1 -4 3 -13.5t3 -13.5q5 22 8 27l13 41h12l14 -41q1 -4 3 -13.5t3 -13.5q1 4 3.5 13.5t3.5 13.5l12 41h14l-26 -80h-13l-12 39q-4 8 -8 24q-4 -16 -8 -26zM459 119h-15l-24 80h14l12 -41
q1 -4 3.5 -13.5t3.5 -13.5q1 4 3 13.5t3 13.5l14 41h12l13 -41q2 -5 8 -27q1 4 3 13.5t3 13.5l12 41h15l-27 -80h-12l-13 39q-4 8 -8 24q-4 -16 -8 -26zM571 117q-10 0 -10 10t10 10q9 0 9 -10t-9 -10zM686 119h-16v45q0 26 -19 26q-16 0 -20 -16q0 -1 -1 -3t-1 -3v-49h-15
v57v23h13l2 -13q11 17 26 17q12 0 21.5 -9t9.5 -28v-47zM719 139q0 14 13 22.5t36 8.5q0 20 -18 20q-12 0 -21 -6l-4 11q16 8 27 8q30 0 30 -35v-31q0 -12 2 -18h-14v8q-10 -10 -25 -10q-26 0 -26 22zM770 160q-35 0 -35 -19q0 -14 13 -14q16 0 20 12q0 2 1 3.5t1 2.5v15z
M862 188h-20v-45q0 -16 10 -16l8 2l2 -10q-4 -2 -14 -2q-11 0 -17 6q-6 12 -6 20v45h-12v11h12v20l17 4v-24h20v-11zM965 119h-15v45q0 26 -18 26q-13 0 -21 -16v-6v-49h-16v119h16v-52q4 7 11 11q12 6 16 6q10 0 18.5 -9t8.5 -28v-47zM1032 203q31 0 31 -35v-31q0 -3 1 -9
t1 -9h-12l-2 8h-2q-7 -10 -25 -10q-10 0 -17.5 6.5t-7.5 15.5q0 14 13.5 22.5t36.5 8.5q0 20 -19 20q-11 0 -20 -6l-4 11q12 8 26 8zM1049 145v15q-33 0 -33 -19q0 -14 12 -14q17 0 21 12v6zM1108 219l12 4v-24h23v-11h-23v-45q0 -16 13 -16q2 0 4.5 1t3.5 1l2 -10
q-4 -2 -15 -2q-10 0 -16 6q-4 4 -4 20v45h-14v11h14v20zM1184 100q8 3 12 17q2 2 2 4v4l-31 74h15l20 -47q0 -9 4 -17q4 8 4 17l19 47h14l-22 -58q-13 -37 -27 -51q-13 -10 -18 -10l-5 12q10 5 13 8zM1288 84h-14v90q0 19 -2 25h14l2 -13q10 17 29 17q14 0 23.5 -12.5
t9.5 -30.5q0 -21 -10.5 -32t-26.5 -11t-25 12v-45zM1288 164v-12v-7q7 -18 23 -18q24 0 24 31q0 32 -22 32q-8 0 -15 -5.5t-8 -14.5q-2 0 -2 -6zM1452 162v-6h-57q0 -13 8.5 -21t19.5 -8t23 4l2 -10q-8 -4 -27 -4t-30 11t-11 30t10.5 32t28.5 13q33 0 33 -41zM1395 166h43
q0 24 -21 24q-17 0 -22 -24zM1503 127q0 -10 -10 -10t-10 10t10 10t10 -10zM1575 190q-13 0 -21 -9t-8 -23q0 -13 8.5 -22t20.5 -9q5 0 11 2t7 2l2 -10q-4 -4 -22 -4q-19 0 -30 11t-11 30t11.5 31t31.5 12q16 0 20 -4l-2 -11q-1 0 -7 2t-11 2zM1702 160q0 -22 -12 -32.5
t-29 -10.5q-15 0 -26 11.5t-11 29.5q0 45 41 45q17 0 27 -12t10 -31zM1638 158q0 -13 7 -22t18 -9t18 9t7 22q0 12 -7 22t-18 10t-18 -9.5t-7 -22.5zM1855 119h-14v45q0 26 -18 26q-14 0 -19 -14v-8v-49h-14v49q0 22 -16 22q-15 0 -19 -16q-2 -2 -2 -6v-49h-14v57v23h12v-13
q13 17 27 17q18 0 22 -19q6 9 10 13q12 6 19 6q10 0 18 -9t8 -28v-47z" />
    <glyph glyph-name="five" unicode="5" 
d="M59 1315h39q17 0 27 -9t10 -24t-10 -24t-27 -9h-18v-22h-21v88zM115 1282q0 16 -19 16h-16v-30h16q19 0 19 14zM244 1298h-45v-20h39v-16h-39v-19h45v-16h-66v88h66v-17zM365 1282q0 -21 -19 -27l19 -28h-21l-16 24h-19v-24h-18v88h37q17 0 27 -9t10 -24zM326 1268
q18 0 18 14q0 16 -18 16h-17v-30h17zM438 1241q17 0 17 8q0 7 -24.5 14t-24.5 25q0 27 34 27q19 0 31 -6l-6 -17q-12 6 -25 6q-16 0 -16 -8q0 -6 25.5 -13t25.5 -26q0 -26 -39 -26q-23 0 -33 10l7 14q12 -8 28 -8zM512 1270q0 20 13.5 32.5t33.5 12.5t33.5 -12.5t13.5 -32.5
t-13.5 -32.5t-33.5 -12.5t-33.5 12.5t-13.5 32.5zM586 1270q0 12 -8 20t-19 8q-12 0 -19.5 -8t-7.5 -20t7.5 -19.5t19.5 -7.5q11 0 19 7.5t8 19.5zM668 1315l43 -53v53h18v-88h-16l-43 53v-53h-19v88h17zM768 1227l39 88h18l39 -88h-20l-8 18h-41l-7 -18h-20zM829 1262
l-14 32l-12 -32h26zM903 1315h19v-72h43v-16h-62v88zM1069 1315h21v-49q0 -23 18 -23t18 23v49h21v-51q0 -39 -39 -39t-39 39v51zM1225 1241q16 0 16 8q0 7 -24.5 14t-24.5 25q0 27 35 27q18 0 30 -6l-6 -17q-12 6 -24 6q-17 0 -17 -8q0 -6 25 -13t25 -26q0 -26 -35 -26
q-22 0 -35 10l6 14q16 -8 29 -8zM1370 1298h-47v-20h41v-16h-41v-19h47v-16h-65v88h65v-17zM1475 1270q0 20 13.5 32.5t33.5 12.5t33.5 -12.5t13.5 -32.5t-13.5 -32.5t-33.5 -12.5t-33.5 12.5t-13.5 32.5zM1548 1270q0 12 -7.5 20t-18.5 8q-12 0 -19.5 -8t-7.5 -20
t7.5 -19.5t19.5 -7.5q11 0 18.5 7.5t7.5 19.5zM1630 1315l43 -53v53h19v-88h-17l-43 53v-53h-18v88h16zM1743 1315h18v-72h43v-16h-61v88zM1878 1227h-20v30l-33 58h20l25 -41l20 41h21l-33 -58v-30zM76 283v-2h-23l-4 -21h-2l8 45h29l-2 -4h-25l-2 -18h21zM88 272q0 9 5 15
t13 6q15 0 15 -12q0 -9 -5.5 -15t-13.5 -6q-14 0 -14 12zM117 281q0 10 -13 10q-14 0 -14 -19q0 -8 12 -8q15 0 15 17zM137 293h2v-6q3 6 13 6v-4q-12 0 -15 -13l-4 -16h-2zM207 301q-9 0 -15 -6.5t-6 -15.5q0 -15 15 -15q12 0 14 4l2 -2q-6 -6 -16 -6q-19 0 -19 19
q0 11 7.5 18.5t17.5 7.5q4 0 16 -6l-4 -4q-3 6 -12 6zM260 281q0 -9 -5 -15t-13 -6q-6 0 -10.5 3.5t-4.5 8.5q0 9 5.5 15t13.5 6q14 0 14 -12zM242 264q14 0 14 17q0 10 -10 10q-6 0 -10.5 -5.5t-4.5 -13.5t11 -8zM276 293h5l-2 -6q6 6 12 6q10 0 10 -6q6 6 14 6
q11 0 11 -10v-2l-4 -21h-3l5 21v2q0 8 -9 8q-11 0 -14 -12l-4 -19h-2l4 21v2q0 8 -8 8q-12 0 -15 -12l-2 -19h-4zM385 293q10 0 10 -10v-2l-4 -21h-2l4 21v2q0 8 -8 8q-11 0 -14 -12l-2 -19h-4l4 21v2q0 8 -11 8q-9 0 -12 -12l-2 -19h-4l6 33h4l-2 -6q3 6 12 6q10 0 13 -6
q3 6 12 6zM440 276h-28v-4q0 -8 12 -8q8 0 10 2l2 -2q-4 -4 -12 -4q-14 0 -14 12q0 21 16 21q14 0 14 -12v-5zM426 291q-11 0 -14 -12h24v2q0 10 -10 10zM457 293h4l-2 -6q6 6 12 6v-4q-11 0 -14 -13l-2 -16h-4zM496 291q-6 0 -10.5 -5.5t-4.5 -13.5t13 -8q8 0 10 2h2
q-6 -6 -12 -6q-15 0 -15 12q0 9 5.5 15t11.5 6q9 0 12 -6h-2q-4 4 -10 4zM530 303q0 -2 -4 -2q-2 0 -2 2t4 2q2 0 2 -2zM518 260l6 33h2l-6 -33h-2zM567 260h-2v6q-3 -6 -12 -6q-14 0 -14 12q0 21 18 21q8 0 12 -8l2 8h2zM553 264q14 0 14 17q0 10 -10 10q-14 0 -14 -19
q0 -8 10 -8zM588 260h-2l8 47h4zM604 252h-2l2 8v2q0 4 2 4l2 -2v-4zM664 274h-13l-2 -14h-4l10 45h15q14 0 14 -12q0 -19 -20 -19zM657 301l-6 -25h13q16 0 16 17q0 8 -10 8h-13zM696 260h-4l10 47h3zM743 276h-26v-4q0 -8 12 -8q8 0 10 2l2 -2q-8 -4 -12 -4q-16 0 -16 12
q0 9 5 15t13 6q14 0 14 -12q0 -5 -2 -5zM731 291q-11 0 -14 -12h24v2q0 10 -10 10zM786 293h5l-7 -33h-4l2 6q-6 -6 -12 -6q-14 0 -14 12q0 9 5 15t11 6q12 0 12 -8zM770 264q14 0 14 17q0 10 -12 10q-14 0 -14 -19q0 -8 12 -8zM809 264q12 0 12 6q0 4 -9 6t-9 7q0 10 12 10
q8 0 10 -4v-2q-4 4 -10 4q-10 0 -10 -8q0 -4 9 -6t9 -7q0 -10 -14 -10q-4 0 -12 4l4 2q2 -2 8 -2zM866 276h-28v-4q0 -8 12 -8q8 0 10 2l2 -2q-4 -4 -12 -4q-14 0 -14 12q0 21 16 21q14 0 14 -12v-5zM852 291q-8 0 -14 -12h24v2q0 10 -10 10zM913 260h-2l-12 45h4l10 -41
l25 41h2zM956 303q0 -2 -4 -2q-2 0 -2 2l2 2q4 0 4 -2zM944 260l6 33h2l-6 -33h-2zM979 291q-10 0 -10 -8q0 -4 9 -6t9 -7q0 -10 -14 -10q-8 0 -12 4l2 2q2 -2 12 -2q8 0 8 6q0 4 -9 6t-9 7q0 10 14 10q8 0 10 -4l-2 -2q-4 4 -8 4zM999 260l7 33h4l-9 -33h-2zM1012 303
l-2 -2q-4 0 -4 2t4 2q2 0 2 -2zM1028 299h2v-6h10v-4h-10l-4 -19q-2 -2 -2 -4q0 -4 6 -4l4 2l2 -2q-2 -2 -6 -2q-8 0 -8 6v4l4 19h-4v4h6v6zM1929 1174v-7h-1870v7h1870zM1929 1374v-6h-1870v6h1870zM1929 1395v-4h-1870v4h1870zM61 51v4h1870v-4h-1870zM61 74v4h1870v-4
h-1870zM1059 276h872v-4h-872v4zM1235 434q-8 0 -8 -14t8 -14q3 0 4.5 -3t-0.5 -6q-6 -6 -22 -6q-12 0 -15 4t0 17q3 18 -6 30q-14 7 -14 31q0 21 16 21q9 0 10.5 -4t-0.5 -17q-3 -17 -1.5 -20.5t10.5 -1.5q9 1 11.5 10.5t2.5 38.5q-2 42 6 42q2 0 4 -1q12 -2 12 -37
q0 -70 -18 -70zM1165 522q-7 -3 -9.5 -13.5t-2.5 -41.5q0 -53 8 -57q9 -6 5.5 -12.5t-15.5 -6.5t-14 8.5t0 55.5q2 57 -4 60q-3 1 -9 -1q-9 -3 -12.5 -1t-3.5 11q0 10 6 13.5t27 3.5q39 0 45 2q7 3 9.5 -0.5t2.5 -14.5q0 -19 -9 -19q-5 0 -7 9q-3 8 -17 4zM1317 446
q-20 -12 -22 -31q-1 -9 8 -9q3 0 4.5 -3t-0.5 -6q-3 -6 -19 -6q-7 0 -10 4.5t-4.5 20t-1.5 49.5l-2 76h26q24 0 38 -11.5t14 -31.5q0 -39 -31 -52zM1292 481q9 -39 31 -14q15 15 7 36t-30 21q-10 0 -11.5 -8.5t3.5 -34.5zM1479 580q-37 15 -47 32q-20 29 -29 2
q-4 -14 -27 -26q-20 -9 -48.5 -4t-43.5 22q-12 14 -27 8q-38 -22 -75 15q-14 15 -17.5 27t-3.5 46q0 54 -10 54q-12 0 -19.5 -23t-7.5 -59q0 -33 -6.5 -45.5t-27.5 -16.5q-16 0 -19 -24q-19 -86 -88 -64q-20 8 -40.5 30t-24.5 42q-3 11 -8.5 13t-24.5 -1q-31 -3 -49 15
l-21 16l-14 -18q-13 -21 -41 -21h-25v-41q0 -80 -55 -80q-24 0 -45 17q-21 14 -31 53q-9 29 -10 81t2 267q0 65 -6 68q-7 3 -24 -32t-25 -69q-10 -48 -13 -168l-4 -129l-30 4q-24 3 -39 13q-6 10 -13 121q-3 92 -10 123.5t-24 31.5q-31 0 -56.5 -43t-25.5 -94q0 -68 51 -76
q23 -4 22 -11q-4 -12 -48 -13l-32 2q-35 6 -59 30q-19 19 -22.5 29.5t-1.5 44.5q6 78 69 119q40 28 91.5 25.5t80.5 -31.5q27 -27 27 18q0 16 10 49q14 45 40.5 65.5t55 11t47.5 -47.5q10 -21 12 -56t1 -153q-2 -142 1.5 -180.5t16.5 -38.5q19 0 23 46t-13 75q-21 34 -13 79
t38 64q18 13 53 10q33 -4 33 2q0 7 14 9.5t33 -2.5l29 -7l2 -73q1 -76 8 -72q9 7 14 119q4 119 0 123q-24 4 -53 6q-53 3 -88 -12q-44 -19 -63 -11q-8 4 0 13q14 15 57.5 24.5t79.5 5.5q41 -3 61 -8q12 -3 16.5 4.5t10.5 40.5q8 38 16.5 45t40.5 0q12 -4 13.5 -12.5
t-1.5 -48.5l-6 -53h21q12 0 15.5 4t6.5 24q10 69 59.5 109.5t102.5 25.5q51 -15 57 -67q6 -65 -65 -101q-41 -18 -60 -18q-13 0 -16.5 -5.5t-5.5 -27.5q-4 -29 0 -55v-23l22 21q23 23 44 18q29 -6 43 -27.5t20 -68.5q7 -54 16.5 -54t12.5 54q3 35 7 46.5t21 25.5
q18 14 27.5 17.5t28.5 0.5q30 -4 43 -8q13 -6 16 10q7 26 53 8l21 -8l-6 -73q-5 -75 8 -95q17 -26 42 -17t50 50q17 31 20 76q0 37 -11.5 54.5t-39.5 25.5q-24 7 -23 12q3 8 46 10q78 5 108 -50t-14 -124q-37 -58 -109 -72q-28 -4 -39.5 -3.5t-35.5 8.5zM1128 950
q-23 -68 -14 -73q7 -4 37 12q38 20 54.5 51.5t4.5 63.5q-11 35 -38 17.5t-44 -71.5zM791 651q9 19 11 61t-7 48q-19 11 -30 -25q-11 -32 -5 -73q10 -59 31 -11zM1016 563q22 -35 23 21q0 16 -1 41q-1 16 -5 69t-5 76q-4 81 -12 84q-19 12 -23 -2t-4 -82q0 -161 27 -207z
M1376 621q11 20 13 62t-7 54q-8 11 -10.5 10t-11.5 -16q-27 -39 -17 -98q3 -22 13.5 -25.5t19.5 13.5zM1427 516q-51 22 -51 -16q0 -15 10.5 -19.5t16.5 6.5q4 6 8 6.5t7 -4.5t3 -14q0 -11 -3.5 -13t-16.5 1q-17 3 -21 0t-4 -23q0 -18 3 -22t16 -4q18 0 24 6q8 8 13 -6
q2 -9 -2 -13t-17 -4q-21 0 -41 -4q-10 -3 -12 9l-2 63v76h22q31 0 39 2q11 5 14.5 2t0.5 -15q-1 -13 -7 -14zM172 119h-14l-25 80h17l10 -41q1 -4 3 -13.5t3 -13.5q1 4 4 13.5t4 13.5l14 41h13l12 -41q1 -4 3 -13.5t3 -13.5q1 4 3 13.5t3 13.5l13 41h14l-27 -80h-12l-12 39
q-1 4 -4 12t-4 12q-1 -2 -3.5 -11t-3.5 -15zM315 119h-14l-25 80h17l10 -41q1 -4 3 -13.5t3 -13.5q5 22 8 27l13 41h12l14 -41q1 -4 3 -13.5t3 -13.5q1 4 3.5 13.5t3.5 13.5l12 41h14l-26 -80h-13l-12 39q-4 8 -8 24q-4 -16 -8 -26zM459 119h-15l-24 80h14l12 -41
q1 -4 3.5 -13.5t3.5 -13.5q1 4 3 13.5t3 13.5l14 41h12l13 -41q2 -5 8 -27q1 4 3 13.5t3 13.5l12 41h15l-27 -80h-12l-13 39q-4 8 -8 24q-4 -16 -8 -26zM571 117q-10 0 -10 10t10 10q9 0 9 -10t-9 -10zM686 119h-16v45q0 26 -19 26q-16 0 -20 -16q0 -1 -1 -3t-1 -3v-49h-15
v57v23h13l2 -13q11 17 26 17q12 0 21.5 -9t9.5 -28v-47zM719 139q0 14 13 22.5t36 8.5q0 20 -18 20q-12 0 -21 -6l-4 11q16 8 27 8q30 0 30 -35v-31q0 -12 2 -18h-14v8q-10 -10 -25 -10q-26 0 -26 22zM770 160q-35 0 -35 -19q0 -14 13 -14q16 0 20 12q0 2 1 3.5t1 2.5v15z
M862 188h-20v-45q0 -16 10 -16l8 2l2 -10q-4 -2 -14 -2q-11 0 -17 6q-6 12 -6 20v45h-12v11h12v20l17 4v-24h20v-11zM965 119h-15v45q0 26 -18 26q-13 0 -21 -16v-6v-49h-16v119h16v-52q4 7 11 11q12 6 16 6q10 0 18.5 -9t8.5 -28v-47zM1032 203q31 0 31 -35v-31q0 -3 1 -9
t1 -9h-12l-2 8h-2q-7 -10 -25 -10q-10 0 -17.5 6.5t-7.5 15.5q0 14 13.5 22.5t36.5 8.5q0 20 -19 20q-11 0 -20 -6l-4 11q12 8 26 8zM1049 145v15q-33 0 -33 -19q0 -14 12 -14q17 0 21 12v6zM1108 219l12 4v-24h23v-11h-23v-45q0 -16 13 -16q2 0 4.5 1t3.5 1l2 -10
q-4 -2 -15 -2q-10 0 -16 6q-4 4 -4 20v45h-14v11h14v20zM1184 100q8 3 12 17q2 2 2 4v4l-31 74h15l20 -47q0 -9 4 -17q4 8 4 17l19 47h14l-22 -58q-13 -37 -27 -51q-13 -10 -18 -10l-5 12q10 5 13 8zM1288 84h-14v90q0 19 -2 25h14l2 -13q10 17 29 17q14 0 23.5 -12.5
t9.5 -30.5q0 -21 -10.5 -32t-26.5 -11t-25 12v-45zM1288 164v-12v-7q7 -18 23 -18q24 0 24 31q0 32 -22 32q-8 0 -15 -5.5t-8 -14.5q-2 0 -2 -6zM1452 162v-6h-57q0 -13 8.5 -21t19.5 -8t23 4l2 -10q-8 -4 -27 -4t-30 11t-11 30t10.5 32t28.5 13q33 0 33 -41zM1395 166h43
q0 24 -21 24q-17 0 -22 -24zM1503 127q0 -10 -10 -10t-10 10t10 10t10 -10zM1575 190q-13 0 -21 -9t-8 -23q0 -13 8.5 -22t20.5 -9q5 0 11 2t7 2l2 -10q-4 -4 -22 -4q-19 0 -30 11t-11 30t11.5 31t31.5 12q16 0 20 -4l-2 -11q-1 0 -7 2t-11 2zM1702 160q0 -22 -12 -32.5
t-29 -10.5q-15 0 -26 11.5t-11 29.5q0 45 41 45q17 0 27 -12t10 -31zM1638 158q0 -13 7 -22t18 -9t18 9t7 22q0 12 -7 22t-18 10t-18 -9.5t-7 -22.5zM1855 119h-14v45q0 26 -18 26q-14 0 -19 -14v-8v-49h-14v49q0 22 -16 22q-15 0 -19 -16q-2 -2 -2 -6v-49h-14v57v23h12v-13
q13 17 27 17q18 0 22 -19q6 9 10 13q12 6 19 6q10 0 18 -9t8 -28v-47z" />
    <glyph glyph-name="six" unicode="6" 
d="M59 1315h39q17 0 27 -9t10 -24t-10 -24t-27 -9h-18v-22h-21v88zM115 1282q0 16 -19 16h-16v-30h16q19 0 19 14zM244 1298h-45v-20h39v-16h-39v-19h45v-16h-66v88h66v-17zM365 1282q0 -21 -19 -27l19 -28h-21l-16 24h-19v-24h-18v88h37q17 0 27 -9t10 -24zM326 1268
q18 0 18 14q0 16 -18 16h-17v-30h17zM438 1241q17 0 17 8q0 7 -24.5 14t-24.5 25q0 27 34 27q19 0 31 -6l-6 -17q-12 6 -25 6q-16 0 -16 -8q0 -6 25.5 -13t25.5 -26q0 -26 -39 -26q-23 0 -33 10l7 14q12 -8 28 -8zM512 1270q0 20 13.5 32.5t33.5 12.5t33.5 -12.5t13.5 -32.5
t-13.5 -32.5t-33.5 -12.5t-33.5 12.5t-13.5 32.5zM586 1270q0 12 -8 20t-19 8q-12 0 -19.5 -8t-7.5 -20t7.5 -19.5t19.5 -7.5q11 0 19 7.5t8 19.5zM668 1315l43 -53v53h18v-88h-16l-43 53v-53h-19v88h17zM768 1227l39 88h18l39 -88h-20l-8 18h-41l-7 -18h-20zM829 1262
l-14 32l-12 -32h26zM903 1315h19v-72h43v-16h-62v88zM1069 1315h21v-49q0 -23 18 -23t18 23v49h21v-51q0 -39 -39 -39t-39 39v51zM1225 1241q16 0 16 8q0 7 -24.5 14t-24.5 25q0 27 35 27q18 0 30 -6l-6 -17q-12 6 -24 6q-17 0 -17 -8q0 -6 25 -13t25 -26q0 -26 -35 -26
q-22 0 -35 10l6 14q16 -8 29 -8zM1370 1298h-47v-20h41v-16h-41v-19h47v-16h-65v88h65v-17zM1475 1270q0 20 13.5 32.5t33.5 12.5t33.5 -12.5t13.5 -32.5t-13.5 -32.5t-33.5 -12.5t-33.5 12.5t-13.5 32.5zM1548 1270q0 12 -7.5 20t-18.5 8q-12 0 -19.5 -8t-7.5 -20
t7.5 -19.5t19.5 -7.5q11 0 18.5 7.5t7.5 19.5zM1630 1315l43 -53v53h19v-88h-17l-43 53v-53h-18v88h16zM1743 1315h18v-72h43v-16h-61v88zM1878 1227h-20v30l-33 58h20l25 -41l20 41h21l-33 -58v-30zM76 283v-2h-23l-4 -21h-2l8 45h29l-2 -4h-25l-2 -18h21zM88 272q0 9 5 15
t13 6q15 0 15 -12q0 -9 -5.5 -15t-13.5 -6q-14 0 -14 12zM117 281q0 10 -13 10q-14 0 -14 -19q0 -8 12 -8q15 0 15 17zM137 293h2v-6q3 6 13 6v-4q-12 0 -15 -13l-4 -16h-2zM207 301q-9 0 -15 -6.5t-6 -15.5q0 -15 15 -15q12 0 14 4l2 -2q-6 -6 -16 -6q-19 0 -19 19
q0 11 7.5 18.5t17.5 7.5q4 0 16 -6l-4 -4q-3 6 -12 6zM260 281q0 -9 -5 -15t-13 -6q-6 0 -10.5 3.5t-4.5 8.5q0 9 5.5 15t13.5 6q14 0 14 -12zM242 264q14 0 14 17q0 10 -10 10q-6 0 -10.5 -5.5t-4.5 -13.5t11 -8zM276 293h5l-2 -6q6 6 12 6q10 0 10 -6q6 6 14 6
q11 0 11 -10v-2l-4 -21h-3l5 21v2q0 8 -9 8q-11 0 -14 -12l-4 -19h-2l4 21v2q0 8 -8 8q-12 0 -15 -12l-2 -19h-4zM385 293q10 0 10 -10v-2l-4 -21h-2l4 21v2q0 8 -8 8q-11 0 -14 -12l-2 -19h-4l4 21v2q0 8 -11 8q-9 0 -12 -12l-2 -19h-4l6 33h4l-2 -6q3 6 12 6q10 0 13 -6
q3 6 12 6zM440 276h-28v-4q0 -8 12 -8q8 0 10 2l2 -2q-4 -4 -12 -4q-14 0 -14 12q0 21 16 21q14 0 14 -12v-5zM426 291q-11 0 -14 -12h24v2q0 10 -10 10zM457 293h4l-2 -6q6 6 12 6v-4q-11 0 -14 -13l-2 -16h-4zM496 291q-6 0 -10.5 -5.5t-4.5 -13.5t13 -8q8 0 10 2h2
q-6 -6 -12 -6q-15 0 -15 12q0 9 5.5 15t11.5 6q9 0 12 -6h-2q-4 4 -10 4zM530 303q0 -2 -4 -2q-2 0 -2 2t4 2q2 0 2 -2zM518 260l6 33h2l-6 -33h-2zM567 260h-2v6q-3 -6 -12 -6q-14 0 -14 12q0 21 18 21q8 0 12 -8l2 8h2zM553 264q14 0 14 17q0 10 -10 10q-14 0 -14 -19
q0 -8 10 -8zM588 260h-2l8 47h4zM604 252h-2l2 8v2q0 4 2 4l2 -2v-4zM664 274h-13l-2 -14h-4l10 45h15q14 0 14 -12q0 -19 -20 -19zM657 301l-6 -25h13q16 0 16 17q0 8 -10 8h-13zM696 260h-4l10 47h3zM743 276h-26v-4q0 -8 12 -8q8 0 10 2l2 -2q-8 -4 -12 -4q-16 0 -16 12
q0 9 5 15t13 6q14 0 14 -12q0 -5 -2 -5zM731 291q-11 0 -14 -12h24v2q0 10 -10 10zM786 293h5l-7 -33h-4l2 6q-6 -6 -12 -6q-14 0 -14 12q0 9 5 15t11 6q12 0 12 -8zM770 264q14 0 14 17q0 10 -12 10q-14 0 -14 -19q0 -8 12 -8zM809 264q12 0 12 6q0 4 -9 6t-9 7q0 10 12 10
q8 0 10 -4v-2q-4 4 -10 4q-10 0 -10 -8q0 -4 9 -6t9 -7q0 -10 -14 -10q-4 0 -12 4l4 2q2 -2 8 -2zM866 276h-28v-4q0 -8 12 -8q8 0 10 2l2 -2q-4 -4 -12 -4q-14 0 -14 12q0 21 16 21q14 0 14 -12v-5zM852 291q-8 0 -14 -12h24v2q0 10 -10 10zM913 260h-2l-12 45h4l10 -41
l25 41h2zM956 303q0 -2 -4 -2q-2 0 -2 2l2 2q4 0 4 -2zM944 260l6 33h2l-6 -33h-2zM979 291q-10 0 -10 -8q0 -4 9 -6t9 -7q0 -10 -14 -10q-8 0 -12 4l2 2q2 -2 12 -2q8 0 8 6q0 4 -9 6t-9 7q0 10 14 10q8 0 10 -4l-2 -2q-4 4 -8 4zM999 260l7 33h4l-9 -33h-2zM1012 303
l-2 -2q-4 0 -4 2t4 2q2 0 2 -2zM1028 299h2v-6h10v-4h-10l-4 -19q-2 -2 -2 -4q0 -4 6 -4l4 2l2 -2q-2 -2 -6 -2q-8 0 -8 6v4l4 19h-4v4h6v6zM1929 1174v-7h-1870v7h1870zM1929 1374v-6h-1870v6h1870zM1929 1395v-4h-1870v4h1870zM61 51v4h1870v-4h-1870zM61 74v4h1870v-4
h-1870zM1059 276h872v-4h-872v4zM1235 434q-8 0 -8 -14t8 -14q3 0 4.5 -3t-0.5 -6q-6 -6 -22 -6q-12 0 -15 4t0 17q3 18 -6 30q-14 7 -14 31q0 21 16 21q9 0 10.5 -4t-0.5 -17q-3 -17 -1.5 -20.5t10.5 -1.5q9 1 11.5 10.5t2.5 38.5q-2 42 6 42q2 0 4 -1q12 -2 12 -37
q0 -70 -18 -70zM1165 522q-7 -3 -9.5 -13.5t-2.5 -41.5q0 -53 8 -57q9 -6 5.5 -12.5t-15.5 -6.5t-14 8.5t0 55.5q2 57 -4 60q-3 1 -9 -1q-9 -3 -12.5 -1t-3.5 11q0 10 6 13.5t27 3.5q39 0 45 2q7 3 9.5 -0.5t2.5 -14.5q0 -19 -9 -19q-5 0 -7 9q-3 8 -17 4zM1317 446
q-20 -12 -22 -31q-1 -9 8 -9q3 0 4.5 -3t-0.5 -6q-3 -6 -19 -6q-7 0 -10 4.5t-4.5 20t-1.5 49.5l-2 76h26q24 0 38 -11.5t14 -31.5q0 -39 -31 -52zM1292 481q9 -39 31 -14q15 15 7 36t-30 21q-10 0 -11.5 -8.5t3.5 -34.5zM1479 580q-37 15 -47 32q-20 29 -29 2
q-4 -14 -27 -26q-20 -9 -48.5 -4t-43.5 22q-12 14 -27 8q-38 -22 -75 15q-14 15 -17.5 27t-3.5 46q0 54 -10 54q-12 0 -19.5 -23t-7.5 -59q0 -33 -6.5 -45.5t-27.5 -16.5q-16 0 -19 -24q-19 -86 -88 -64q-20 8 -40.5 30t-24.5 42q-3 11 -8.5 13t-24.5 -1q-31 -3 -49 15
l-21 16l-14 -18q-13 -21 -41 -21h-25v-41q0 -80 -55 -80q-24 0 -45 17q-21 14 -31 53q-9 29 -10 81t2 267q0 65 -6 68q-7 3 -24 -32t-25 -69q-10 -48 -13 -168l-4 -129l-30 4q-24 3 -39 13q-6 10 -13 121q-3 92 -10 123.5t-24 31.5q-31 0 -56.5 -43t-25.5 -94q0 -68 51 -76
q23 -4 22 -11q-4 -12 -48 -13l-32 2q-35 6 -59 30q-19 19 -22.5 29.5t-1.5 44.5q6 78 69 119q40 28 91.5 25.5t80.5 -31.5q27 -27 27 18q0 16 10 49q14 45 40.5 65.5t55 11t47.5 -47.5q10 -21 12 -56t1 -153q-2 -142 1.5 -180.5t16.5 -38.5q19 0 23 46t-13 75q-21 34 -13 79
t38 64q18 13 53 10q33 -4 33 2q0 7 14 9.5t33 -2.5l29 -7l2 -73q1 -76 8 -72q9 7 14 119q4 119 0 123q-24 4 -53 6q-53 3 -88 -12q-44 -19 -63 -11q-8 4 0 13q14 15 57.5 24.5t79.5 5.5q41 -3 61 -8q12 -3 16.5 4.5t10.5 40.5q8 38 16.5 45t40.5 0q12 -4 13.5 -12.5
t-1.5 -48.5l-6 -53h21q12 0 15.5 4t6.5 24q10 69 59.5 109.5t102.5 25.5q51 -15 57 -67q6 -65 -65 -101q-41 -18 -60 -18q-13 0 -16.5 -5.5t-5.5 -27.5q-4 -29 0 -55v-23l22 21q23 23 44 18q29 -6 43 -27.5t20 -68.5q7 -54 16.5 -54t12.5 54q3 35 7 46.5t21 25.5
q18 14 27.5 17.5t28.5 0.5q30 -4 43 -8q13 -6 16 10q7 26 53 8l21 -8l-6 -73q-5 -75 8 -95q17 -26 42 -17t50 50q17 31 20 76q0 37 -11.5 54.5t-39.5 25.5q-24 7 -23 12q3 8 46 10q78 5 108 -50t-14 -124q-37 -58 -109 -72q-28 -4 -39.5 -3.5t-35.5 8.5zM1128 950
q-23 -68 -14 -73q7 -4 37 12q38 20 54.5 51.5t4.5 63.5q-11 35 -38 17.5t-44 -71.5zM791 651q9 19 11 61t-7 48q-19 11 -30 -25q-11 -32 -5 -73q10 -59 31 -11zM1016 563q22 -35 23 21q0 16 -1 41q-1 16 -5 69t-5 76q-4 81 -12 84q-19 12 -23 -2t-4 -82q0 -161 27 -207z
M1376 621q11 20 13 62t-7 54q-8 11 -10.5 10t-11.5 -16q-27 -39 -17 -98q3 -22 13.5 -25.5t19.5 13.5zM1427 516q-51 22 -51 -16q0 -15 10.5 -19.5t16.5 6.5q4 6 8 6.5t7 -4.5t3 -14q0 -11 -3.5 -13t-16.5 1q-17 3 -21 0t-4 -23q0 -18 3 -22t16 -4q18 0 24 6q8 8 13 -6
q2 -9 -2 -13t-17 -4q-21 0 -41 -4q-10 -3 -12 9l-2 63v76h22q31 0 39 2q11 5 14.5 2t0.5 -15q-1 -13 -7 -14zM172 119h-14l-25 80h17l10 -41q1 -4 3 -13.5t3 -13.5q1 4 4 13.5t4 13.5l14 41h13l12 -41q1 -4 3 -13.5t3 -13.5q1 4 3 13.5t3 13.5l13 41h14l-27 -80h-12l-12 39
q-1 4 -4 12t-4 12q-1 -2 -3.5 -11t-3.5 -15zM315 119h-14l-25 80h17l10 -41q1 -4 3 -13.5t3 -13.5q5 22 8 27l13 41h12l14 -41q1 -4 3 -13.5t3 -13.5q1 4 3.5 13.5t3.5 13.5l12 41h14l-26 -80h-13l-12 39q-4 8 -8 24q-4 -16 -8 -26zM459 119h-15l-24 80h14l12 -41
q1 -4 3.5 -13.5t3.5 -13.5q1 4 3 13.5t3 13.5l14 41h12l13 -41q2 -5 8 -27q1 4 3 13.5t3 13.5l12 41h15l-27 -80h-12l-13 39q-4 8 -8 24q-4 -16 -8 -26zM571 117q-10 0 -10 10t10 10q9 0 9 -10t-9 -10zM686 119h-16v45q0 26 -19 26q-16 0 -20 -16q0 -1 -1 -3t-1 -3v-49h-15
v57v23h13l2 -13q11 17 26 17q12 0 21.5 -9t9.5 -28v-47zM719 139q0 14 13 22.5t36 8.5q0 20 -18 20q-12 0 -21 -6l-4 11q16 8 27 8q30 0 30 -35v-31q0 -12 2 -18h-14v8q-10 -10 -25 -10q-26 0 -26 22zM770 160q-35 0 -35 -19q0 -14 13 -14q16 0 20 12q0 2 1 3.5t1 2.5v15z
M862 188h-20v-45q0 -16 10 -16l8 2l2 -10q-4 -2 -14 -2q-11 0 -17 6q-6 12 -6 20v45h-12v11h12v20l17 4v-24h20v-11zM965 119h-15v45q0 26 -18 26q-13 0 -21 -16v-6v-49h-16v119h16v-52q4 7 11 11q12 6 16 6q10 0 18.5 -9t8.5 -28v-47zM1032 203q31 0 31 -35v-31q0 -3 1 -9
t1 -9h-12l-2 8h-2q-7 -10 -25 -10q-10 0 -17.5 6.5t-7.5 15.5q0 14 13.5 22.5t36.5 8.5q0 20 -19 20q-11 0 -20 -6l-4 11q12 8 26 8zM1049 145v15q-33 0 -33 -19q0 -14 12 -14q17 0 21 12v6zM1108 219l12 4v-24h23v-11h-23v-45q0 -16 13 -16q2 0 4.5 1t3.5 1l2 -10
q-4 -2 -15 -2q-10 0 -16 6q-4 4 -4 20v45h-14v11h14v20zM1184 100q8 3 12 17q2 2 2 4v4l-31 74h15l20 -47q0 -9 4 -17q4 8 4 17l19 47h14l-22 -58q-13 -37 -27 -51q-13 -10 -18 -10l-5 12q10 5 13 8zM1288 84h-14v90q0 19 -2 25h14l2 -13q10 17 29 17q14 0 23.5 -12.5
t9.5 -30.5q0 -21 -10.5 -32t-26.5 -11t-25 12v-45zM1288 164v-12v-7q7 -18 23 -18q24 0 24 31q0 32 -22 32q-8 0 -15 -5.5t-8 -14.5q-2 0 -2 -6zM1452 162v-6h-57q0 -13 8.5 -21t19.5 -8t23 4l2 -10q-8 -4 -27 -4t-30 11t-11 30t10.5 32t28.5 13q33 0 33 -41zM1395 166h43
q0 24 -21 24q-17 0 -22 -24zM1503 127q0 -10 -10 -10t-10 10t10 10t10 -10zM1575 190q-13 0 -21 -9t-8 -23q0 -13 8.5 -22t20.5 -9q5 0 11 2t7 2l2 -10q-4 -4 -22 -4q-19 0 -30 11t-11 30t11.5 31t31.5 12q16 0 20 -4l-2 -11q-1 0 -7 2t-11 2zM1702 160q0 -22 -12 -32.5
t-29 -10.5q-15 0 -26 11.5t-11 29.5q0 45 41 45q17 0 27 -12t10 -31zM1638 158q0 -13 7 -22t18 -9t18 9t7 22q0 12 -7 22t-18 10t-18 -9.5t-7 -22.5zM1855 119h-14v45q0 26 -18 26q-14 0 -19 -14v-8v-49h-14v49q0 22 -16 22q-15 0 -19 -16q-2 -2 -2 -6v-49h-14v57v23h12v-13
q13 17 27 17q18 0 22 -19q6 9 10 13q12 6 19 6q10 0 18 -9t8 -28v-47z" />
    <glyph glyph-name="seven" unicode="7" 
d="M59 1315h39q17 0 27 -9t10 -24t-10 -24t-27 -9h-18v-22h-21v88zM115 1282q0 16 -19 16h-16v-30h16q19 0 19 14zM244 1298h-45v-20h39v-16h-39v-19h45v-16h-66v88h66v-17zM365 1282q0 -21 -19 -27l19 -28h-21l-16 24h-19v-24h-18v88h37q17 0 27 -9t10 -24zM326 1268
q18 0 18 14q0 16 -18 16h-17v-30h17zM438 1241q17 0 17 8q0 7 -24.5 14t-24.5 25q0 27 34 27q19 0 31 -6l-6 -17q-12 6 -25 6q-16 0 -16 -8q0 -6 25.5 -13t25.5 -26q0 -26 -39 -26q-23 0 -33 10l7 14q12 -8 28 -8zM512 1270q0 20 13.5 32.5t33.5 12.5t33.5 -12.5t13.5 -32.5
t-13.5 -32.5t-33.5 -12.5t-33.5 12.5t-13.5 32.5zM586 1270q0 12 -8 20t-19 8q-12 0 -19.5 -8t-7.5 -20t7.5 -19.5t19.5 -7.5q11 0 19 7.5t8 19.5zM668 1315l43 -53v53h18v-88h-16l-43 53v-53h-19v88h17zM768 1227l39 88h18l39 -88h-20l-8 18h-41l-7 -18h-20zM829 1262
l-14 32l-12 -32h26zM903 1315h19v-72h43v-16h-62v88zM1069 1315h21v-49q0 -23 18 -23t18 23v49h21v-51q0 -39 -39 -39t-39 39v51zM1225 1241q16 0 16 8q0 7 -24.5 14t-24.5 25q0 27 35 27q18 0 30 -6l-6 -17q-12 6 -24 6q-17 0 -17 -8q0 -6 25 -13t25 -26q0 -26 -35 -26
q-22 0 -35 10l6 14q16 -8 29 -8zM1370 1298h-47v-20h41v-16h-41v-19h47v-16h-65v88h65v-17zM1475 1270q0 20 13.5 32.5t33.5 12.5t33.5 -12.5t13.5 -32.5t-13.5 -32.5t-33.5 -12.5t-33.5 12.5t-13.5 32.5zM1548 1270q0 12 -7.5 20t-18.5 8q-12 0 -19.5 -8t-7.5 -20
t7.5 -19.5t19.5 -7.5q11 0 18.5 7.5t7.5 19.5zM1630 1315l43 -53v53h19v-88h-17l-43 53v-53h-18v88h16zM1743 1315h18v-72h43v-16h-61v88zM1878 1227h-20v30l-33 58h20l25 -41l20 41h21l-33 -58v-30zM76 283v-2h-23l-4 -21h-2l8 45h29l-2 -4h-25l-2 -18h21zM88 272q0 9 5 15
t13 6q15 0 15 -12q0 -9 -5.5 -15t-13.5 -6q-14 0 -14 12zM117 281q0 10 -13 10q-14 0 -14 -19q0 -8 12 -8q15 0 15 17zM137 293h2v-6q3 6 13 6v-4q-12 0 -15 -13l-4 -16h-2zM207 301q-9 0 -15 -6.5t-6 -15.5q0 -15 15 -15q12 0 14 4l2 -2q-6 -6 -16 -6q-19 0 -19 19
q0 11 7.5 18.5t17.5 7.5q4 0 16 -6l-4 -4q-3 6 -12 6zM260 281q0 -9 -5 -15t-13 -6q-6 0 -10.5 3.5t-4.5 8.5q0 9 5.5 15t13.5 6q14 0 14 -12zM242 264q14 0 14 17q0 10 -10 10q-6 0 -10.5 -5.5t-4.5 -13.5t11 -8zM276 293h5l-2 -6q6 6 12 6q10 0 10 -6q6 6 14 6
q11 0 11 -10v-2l-4 -21h-3l5 21v2q0 8 -9 8q-11 0 -14 -12l-4 -19h-2l4 21v2q0 8 -8 8q-12 0 -15 -12l-2 -19h-4zM385 293q10 0 10 -10v-2l-4 -21h-2l4 21v2q0 8 -8 8q-11 0 -14 -12l-2 -19h-4l4 21v2q0 8 -11 8q-9 0 -12 -12l-2 -19h-4l6 33h4l-2 -6q3 6 12 6q10 0 13 -6
q3 6 12 6zM440 276h-28v-4q0 -8 12 -8q8 0 10 2l2 -2q-4 -4 -12 -4q-14 0 -14 12q0 21 16 21q14 0 14 -12v-5zM426 291q-11 0 -14 -12h24v2q0 10 -10 10zM457 293h4l-2 -6q6 6 12 6v-4q-11 0 -14 -13l-2 -16h-4zM496 291q-6 0 -10.5 -5.5t-4.5 -13.5t13 -8q8 0 10 2h2
q-6 -6 -12 -6q-15 0 -15 12q0 9 5.5 15t11.5 6q9 0 12 -6h-2q-4 4 -10 4zM530 303q0 -2 -4 -2q-2 0 -2 2t4 2q2 0 2 -2zM518 260l6 33h2l-6 -33h-2zM567 260h-2v6q-3 -6 -12 -6q-14 0 -14 12q0 21 18 21q8 0 12 -8l2 8h2zM553 264q14 0 14 17q0 10 -10 10q-14 0 -14 -19
q0 -8 10 -8zM588 260h-2l8 47h4zM604 252h-2l2 8v2q0 4 2 4l2 -2v-4zM664 274h-13l-2 -14h-4l10 45h15q14 0 14 -12q0 -19 -20 -19zM657 301l-6 -25h13q16 0 16 17q0 8 -10 8h-13zM696 260h-4l10 47h3zM743 276h-26v-4q0 -8 12 -8q8 0 10 2l2 -2q-8 -4 -12 -4q-16 0 -16 12
q0 9 5 15t13 6q14 0 14 -12q0 -5 -2 -5zM731 291q-11 0 -14 -12h24v2q0 10 -10 10zM786 293h5l-7 -33h-4l2 6q-6 -6 -12 -6q-14 0 -14 12q0 9 5 15t11 6q12 0 12 -8zM770 264q14 0 14 17q0 10 -12 10q-14 0 -14 -19q0 -8 12 -8zM809 264q12 0 12 6q0 4 -9 6t-9 7q0 10 12 10
q8 0 10 -4v-2q-4 4 -10 4q-10 0 -10 -8q0 -4 9 -6t9 -7q0 -10 -14 -10q-4 0 -12 4l4 2q2 -2 8 -2zM866 276h-28v-4q0 -8 12 -8q8 0 10 2l2 -2q-4 -4 -12 -4q-14 0 -14 12q0 21 16 21q14 0 14 -12v-5zM852 291q-8 0 -14 -12h24v2q0 10 -10 10zM913 260h-2l-12 45h4l10 -41
l25 41h2zM956 303q0 -2 -4 -2q-2 0 -2 2l2 2q4 0 4 -2zM944 260l6 33h2l-6 -33h-2zM979 291q-10 0 -10 -8q0 -4 9 -6t9 -7q0 -10 -14 -10q-8 0 -12 4l2 2q2 -2 12 -2q8 0 8 6q0 4 -9 6t-9 7q0 10 14 10q8 0 10 -4l-2 -2q-4 4 -8 4zM999 260l7 33h4l-9 -33h-2zM1012 303
l-2 -2q-4 0 -4 2t4 2q2 0 2 -2zM1028 299h2v-6h10v-4h-10l-4 -19q-2 -2 -2 -4q0 -4 6 -4l4 2l2 -2q-2 -2 -6 -2q-8 0 -8 6v4l4 19h-4v4h6v6zM1929 1174v-7h-1870v7h1870zM1929 1374v-6h-1870v6h1870zM1929 1395v-4h-1870v4h1870zM61 51v4h1870v-4h-1870zM61 74v4h1870v-4
h-1870zM1059 276h872v-4h-872v4zM1235 434q-8 0 -8 -14t8 -14q3 0 4.5 -3t-0.5 -6q-6 -6 -22 -6q-12 0 -15 4t0 17q3 18 -6 30q-14 7 -14 31q0 21 16 21q9 0 10.5 -4t-0.5 -17q-3 -17 -1.5 -20.5t10.5 -1.5q9 1 11.5 10.5t2.5 38.5q-2 42 6 42q2 0 4 -1q12 -2 12 -37
q0 -70 -18 -70zM1165 522q-7 -3 -9.5 -13.5t-2.5 -41.5q0 -53 8 -57q9 -6 5.5 -12.5t-15.5 -6.5t-14 8.5t0 55.5q2 57 -4 60q-3 1 -9 -1q-9 -3 -12.5 -1t-3.5 11q0 10 6 13.5t27 3.5q39 0 45 2q7 3 9.5 -0.5t2.5 -14.5q0 -19 -9 -19q-5 0 -7 9q-3 8 -17 4zM1317 446
q-20 -12 -22 -31q-1 -9 8 -9q3 0 4.5 -3t-0.5 -6q-3 -6 -19 -6q-7 0 -10 4.5t-4.5 20t-1.5 49.5l-2 76h26q24 0 38 -11.5t14 -31.5q0 -39 -31 -52zM1292 481q9 -39 31 -14q15 15 7 36t-30 21q-10 0 -11.5 -8.5t3.5 -34.5zM1479 580q-37 15 -47 32q-20 29 -29 2
q-4 -14 -27 -26q-20 -9 -48.5 -4t-43.5 22q-12 14 -27 8q-38 -22 -75 15q-14 15 -17.5 27t-3.5 46q0 54 -10 54q-12 0 -19.5 -23t-7.5 -59q0 -33 -6.5 -45.5t-27.5 -16.5q-16 0 -19 -24q-19 -86 -88 -64q-20 8 -40.5 30t-24.5 42q-3 11 -8.5 13t-24.5 -1q-31 -3 -49 15
l-21 16l-14 -18q-13 -21 -41 -21h-25v-41q0 -80 -55 -80q-24 0 -45 17q-21 14 -31 53q-9 29 -10 81t2 267q0 65 -6 68q-7 3 -24 -32t-25 -69q-10 -48 -13 -168l-4 -129l-30 4q-24 3 -39 13q-6 10 -13 121q-3 92 -10 123.5t-24 31.5q-31 0 -56.5 -43t-25.5 -94q0 -68 51 -76
q23 -4 22 -11q-4 -12 -48 -13l-32 2q-35 6 -59 30q-19 19 -22.5 29.5t-1.5 44.5q6 78 69 119q40 28 91.5 25.5t80.5 -31.5q27 -27 27 18q0 16 10 49q14 45 40.5 65.5t55 11t47.5 -47.5q10 -21 12 -56t1 -153q-2 -142 1.5 -180.5t16.5 -38.5q19 0 23 46t-13 75q-21 34 -13 79
t38 64q18 13 53 10q33 -4 33 2q0 7 14 9.5t33 -2.5l29 -7l2 -73q1 -76 8 -72q9 7 14 119q4 119 0 123q-24 4 -53 6q-53 3 -88 -12q-44 -19 -63 -11q-8 4 0 13q14 15 57.5 24.5t79.5 5.5q41 -3 61 -8q12 -3 16.5 4.5t10.5 40.5q8 38 16.5 45t40.5 0q12 -4 13.5 -12.5
t-1.5 -48.5l-6 -53h21q12 0 15.5 4t6.5 24q10 69 59.5 109.5t102.5 25.5q51 -15 57 -67q6 -65 -65 -101q-41 -18 -60 -18q-13 0 -16.5 -5.5t-5.5 -27.5q-4 -29 0 -55v-23l22 21q23 23 44 18q29 -6 43 -27.5t20 -68.5q7 -54 16.5 -54t12.5 54q3 35 7 46.5t21 25.5
q18 14 27.5 17.5t28.5 0.5q30 -4 43 -8q13 -6 16 10q7 26 53 8l21 -8l-6 -73q-5 -75 8 -95q17 -26 42 -17t50 50q17 31 20 76q0 37 -11.5 54.5t-39.5 25.5q-24 7 -23 12q3 8 46 10q78 5 108 -50t-14 -124q-37 -58 -109 -72q-28 -4 -39.5 -3.5t-35.5 8.5zM1128 950
q-23 -68 -14 -73q7 -4 37 12q38 20 54.5 51.5t4.5 63.5q-11 35 -38 17.5t-44 -71.5zM791 651q9 19 11 61t-7 48q-19 11 -30 -25q-11 -32 -5 -73q10 -59 31 -11zM1016 563q22 -35 23 21q0 16 -1 41q-1 16 -5 69t-5 76q-4 81 -12 84q-19 12 -23 -2t-4 -82q0 -161 27 -207z
M1376 621q11 20 13 62t-7 54q-8 11 -10.5 10t-11.5 -16q-27 -39 -17 -98q3 -22 13.5 -25.5t19.5 13.5zM1427 516q-51 22 -51 -16q0 -15 10.5 -19.5t16.5 6.5q4 6 8 6.5t7 -4.5t3 -14q0 -11 -3.5 -13t-16.5 1q-17 3 -21 0t-4 -23q0 -18 3 -22t16 -4q18 0 24 6q8 8 13 -6
q2 -9 -2 -13t-17 -4q-21 0 -41 -4q-10 -3 -12 9l-2 63v76h22q31 0 39 2q11 5 14.5 2t0.5 -15q-1 -13 -7 -14zM172 119h-14l-25 80h17l10 -41q1 -4 3 -13.5t3 -13.5q1 4 4 13.5t4 13.5l14 41h13l12 -41q1 -4 3 -13.5t3 -13.5q1 4 3 13.5t3 13.5l13 41h14l-27 -80h-12l-12 39
q-1 4 -4 12t-4 12q-1 -2 -3.5 -11t-3.5 -15zM315 119h-14l-25 80h17l10 -41q1 -4 3 -13.5t3 -13.5q5 22 8 27l13 41h12l14 -41q1 -4 3 -13.5t3 -13.5q1 4 3.5 13.5t3.5 13.5l12 41h14l-26 -80h-13l-12 39q-4 8 -8 24q-4 -16 -8 -26zM459 119h-15l-24 80h14l12 -41
q1 -4 3.5 -13.5t3.5 -13.5q1 4 3 13.5t3 13.5l14 41h12l13 -41q2 -5 8 -27q1 4 3 13.5t3 13.5l12 41h15l-27 -80h-12l-13 39q-4 8 -8 24q-4 -16 -8 -26zM571 117q-10 0 -10 10t10 10q9 0 9 -10t-9 -10zM686 119h-16v45q0 26 -19 26q-16 0 -20 -16q0 -1 -1 -3t-1 -3v-49h-15
v57v23h13l2 -13q11 17 26 17q12 0 21.5 -9t9.5 -28v-47zM719 139q0 14 13 22.5t36 8.5q0 20 -18 20q-12 0 -21 -6l-4 11q16 8 27 8q30 0 30 -35v-31q0 -12 2 -18h-14v8q-10 -10 -25 -10q-26 0 -26 22zM770 160q-35 0 -35 -19q0 -14 13 -14q16 0 20 12q0 2 1 3.5t1 2.5v15z
M862 188h-20v-45q0 -16 10 -16l8 2l2 -10q-4 -2 -14 -2q-11 0 -17 6q-6 12 -6 20v45h-12v11h12v20l17 4v-24h20v-11zM965 119h-15v45q0 26 -18 26q-13 0 -21 -16v-6v-49h-16v119h16v-52q4 7 11 11q12 6 16 6q10 0 18.5 -9t8.5 -28v-47zM1032 203q31 0 31 -35v-31q0 -3 1 -9
t1 -9h-12l-2 8h-2q-7 -10 -25 -10q-10 0 -17.5 6.5t-7.5 15.5q0 14 13.5 22.5t36.5 8.5q0 20 -19 20q-11 0 -20 -6l-4 11q12 8 26 8zM1049 145v15q-33 0 -33 -19q0 -14 12 -14q17 0 21 12v6zM1108 219l12 4v-24h23v-11h-23v-45q0 -16 13 -16q2 0 4.5 1t3.5 1l2 -10
q-4 -2 -15 -2q-10 0 -16 6q-4 4 -4 20v45h-14v11h14v20zM1184 100q8 3 12 17q2 2 2 4v4l-31 74h15l20 -47q0 -9 4 -17q4 8 4 17l19 47h14l-22 -58q-13 -37 -27 -51q-13 -10 -18 -10l-5 12q10 5 13 8zM1288 84h-14v90q0 19 -2 25h14l2 -13q10 17 29 17q14 0 23.5 -12.5
t9.5 -30.5q0 -21 -10.5 -32t-26.5 -11t-25 12v-45zM1288 164v-12v-7q7 -18 23 -18q24 0 24 31q0 32 -22 32q-8 0 -15 -5.5t-8 -14.5q-2 0 -2 -6zM1452 162v-6h-57q0 -13 8.5 -21t19.5 -8t23 4l2 -10q-8 -4 -27 -4t-30 11t-11 30t10.5 32t28.5 13q33 0 33 -41zM1395 166h43
q0 24 -21 24q-17 0 -22 -24zM1503 127q0 -10 -10 -10t-10 10t10 10t10 -10zM1575 190q-13 0 -21 -9t-8 -23q0 -13 8.5 -22t20.5 -9q5 0 11 2t7 2l2 -10q-4 -4 -22 -4q-19 0 -30 11t-11 30t11.5 31t31.5 12q16 0 20 -4l-2 -11q-1 0 -7 2t-11 2zM1702 160q0 -22 -12 -32.5
t-29 -10.5q-15 0 -26 11.5t-11 29.5q0 45 41 45q17 0 27 -12t10 -31zM1638 158q0 -13 7 -22t18 -9t18 9t7 22q0 12 -7 22t-18 10t-18 -9.5t-7 -22.5zM1855 119h-14v45q0 26 -18 26q-14 0 -19 -14v-8v-49h-14v49q0 22 -16 22q-15 0 -19 -16q-2 -2 -2 -6v-49h-14v57v23h12v-13
q13 17 27 17q18 0 22 -19q6 9 10 13q12 6 19 6q10 0 18 -9t8 -28v-47z" />
    <glyph glyph-name="eight" unicode="8" 
d="M59 1315h39q17 0 27 -9t10 -24t-10 -24t-27 -9h-18v-22h-21v88zM115 1282q0 16 -19 16h-16v-30h16q19 0 19 14zM244 1298h-45v-20h39v-16h-39v-19h45v-16h-66v88h66v-17zM365 1282q0 -21 -19 -27l19 -28h-21l-16 24h-19v-24h-18v88h37q17 0 27 -9t10 -24zM326 1268
q18 0 18 14q0 16 -18 16h-17v-30h17zM438 1241q17 0 17 8q0 7 -24.5 14t-24.5 25q0 27 34 27q19 0 31 -6l-6 -17q-12 6 -25 6q-16 0 -16 -8q0 -6 25.5 -13t25.5 -26q0 -26 -39 -26q-23 0 -33 10l7 14q12 -8 28 -8zM512 1270q0 20 13.5 32.5t33.5 12.5t33.5 -12.5t13.5 -32.5
t-13.5 -32.5t-33.5 -12.5t-33.5 12.5t-13.5 32.5zM586 1270q0 12 -8 20t-19 8q-12 0 -19.5 -8t-7.5 -20t7.5 -19.5t19.5 -7.5q11 0 19 7.5t8 19.5zM668 1315l43 -53v53h18v-88h-16l-43 53v-53h-19v88h17zM768 1227l39 88h18l39 -88h-20l-8 18h-41l-7 -18h-20zM829 1262
l-14 32l-12 -32h26zM903 1315h19v-72h43v-16h-62v88zM1069 1315h21v-49q0 -23 18 -23t18 23v49h21v-51q0 -39 -39 -39t-39 39v51zM1225 1241q16 0 16 8q0 7 -24.5 14t-24.5 25q0 27 35 27q18 0 30 -6l-6 -17q-12 6 -24 6q-17 0 -17 -8q0 -6 25 -13t25 -26q0 -26 -35 -26
q-22 0 -35 10l6 14q16 -8 29 -8zM1370 1298h-47v-20h41v-16h-41v-19h47v-16h-65v88h65v-17zM1475 1270q0 20 13.5 32.5t33.5 12.5t33.5 -12.5t13.5 -32.5t-13.5 -32.5t-33.5 -12.5t-33.5 12.5t-13.5 32.5zM1548 1270q0 12 -7.5 20t-18.5 8q-12 0 -19.5 -8t-7.5 -20
t7.5 -19.5t19.5 -7.5q11 0 18.5 7.5t7.5 19.5zM1630 1315l43 -53v53h19v-88h-17l-43 53v-53h-18v88h16zM1743 1315h18v-72h43v-16h-61v88zM1878 1227h-20v30l-33 58h20l25 -41l20 41h21l-33 -58v-30zM76 283v-2h-23l-4 -21h-2l8 45h29l-2 -4h-25l-2 -18h21zM88 272q0 9 5 15
t13 6q15 0 15 -12q0 -9 -5.5 -15t-13.5 -6q-14 0 -14 12zM117 281q0 10 -13 10q-14 0 -14 -19q0 -8 12 -8q15 0 15 17zM137 293h2v-6q3 6 13 6v-4q-12 0 -15 -13l-4 -16h-2zM207 301q-9 0 -15 -6.5t-6 -15.5q0 -15 15 -15q12 0 14 4l2 -2q-6 -6 -16 -6q-19 0 -19 19
q0 11 7.5 18.5t17.5 7.5q4 0 16 -6l-4 -4q-3 6 -12 6zM260 281q0 -9 -5 -15t-13 -6q-6 0 -10.5 3.5t-4.5 8.5q0 9 5.5 15t13.5 6q14 0 14 -12zM242 264q14 0 14 17q0 10 -10 10q-6 0 -10.5 -5.5t-4.5 -13.5t11 -8zM276 293h5l-2 -6q6 6 12 6q10 0 10 -6q6 6 14 6
q11 0 11 -10v-2l-4 -21h-3l5 21v2q0 8 -9 8q-11 0 -14 -12l-4 -19h-2l4 21v2q0 8 -8 8q-12 0 -15 -12l-2 -19h-4zM385 293q10 0 10 -10v-2l-4 -21h-2l4 21v2q0 8 -8 8q-11 0 -14 -12l-2 -19h-4l4 21v2q0 8 -11 8q-9 0 -12 -12l-2 -19h-4l6 33h4l-2 -6q3 6 12 6q10 0 13 -6
q3 6 12 6zM440 276h-28v-4q0 -8 12 -8q8 0 10 2l2 -2q-4 -4 -12 -4q-14 0 -14 12q0 21 16 21q14 0 14 -12v-5zM426 291q-11 0 -14 -12h24v2q0 10 -10 10zM457 293h4l-2 -6q6 6 12 6v-4q-11 0 -14 -13l-2 -16h-4zM496 291q-6 0 -10.5 -5.5t-4.5 -13.5t13 -8q8 0 10 2h2
q-6 -6 -12 -6q-15 0 -15 12q0 9 5.5 15t11.5 6q9 0 12 -6h-2q-4 4 -10 4zM530 303q0 -2 -4 -2q-2 0 -2 2t4 2q2 0 2 -2zM518 260l6 33h2l-6 -33h-2zM567 260h-2v6q-3 -6 -12 -6q-14 0 -14 12q0 21 18 21q8 0 12 -8l2 8h2zM553 264q14 0 14 17q0 10 -10 10q-14 0 -14 -19
q0 -8 10 -8zM588 260h-2l8 47h4zM604 252h-2l2 8v2q0 4 2 4l2 -2v-4zM664 274h-13l-2 -14h-4l10 45h15q14 0 14 -12q0 -19 -20 -19zM657 301l-6 -25h13q16 0 16 17q0 8 -10 8h-13zM696 260h-4l10 47h3zM743 276h-26v-4q0 -8 12 -8q8 0 10 2l2 -2q-8 -4 -12 -4q-16 0 -16 12
q0 9 5 15t13 6q14 0 14 -12q0 -5 -2 -5zM731 291q-11 0 -14 -12h24v2q0 10 -10 10zM786 293h5l-7 -33h-4l2 6q-6 -6 -12 -6q-14 0 -14 12q0 9 5 15t11 6q12 0 12 -8zM770 264q14 0 14 17q0 10 -12 10q-14 0 -14 -19q0 -8 12 -8zM809 264q12 0 12 6q0 4 -9 6t-9 7q0 10 12 10
q8 0 10 -4v-2q-4 4 -10 4q-10 0 -10 -8q0 -4 9 -6t9 -7q0 -10 -14 -10q-4 0 -12 4l4 2q2 -2 8 -2zM866 276h-28v-4q0 -8 12 -8q8 0 10 2l2 -2q-4 -4 -12 -4q-14 0 -14 12q0 21 16 21q14 0 14 -12v-5zM852 291q-8 0 -14 -12h24v2q0 10 -10 10zM913 260h-2l-12 45h4l10 -41
l25 41h2zM956 303q0 -2 -4 -2q-2 0 -2 2l2 2q4 0 4 -2zM944 260l6 33h2l-6 -33h-2zM979 291q-10 0 -10 -8q0 -4 9 -6t9 -7q0 -10 -14 -10q-8 0 -12 4l2 2q2 -2 12 -2q8 0 8 6q0 4 -9 6t-9 7q0 10 14 10q8 0 10 -4l-2 -2q-4 4 -8 4zM999 260l7 33h4l-9 -33h-2zM1012 303
l-2 -2q-4 0 -4 2t4 2q2 0 2 -2zM1028 299h2v-6h10v-4h-10l-4 -19q-2 -2 -2 -4q0 -4 6 -4l4 2l2 -2q-2 -2 -6 -2q-8 0 -8 6v4l4 19h-4v4h6v6zM1929 1174v-7h-1870v7h1870zM1929 1374v-6h-1870v6h1870zM1929 1395v-4h-1870v4h1870zM61 51v4h1870v-4h-1870zM61 74v4h1870v-4
h-1870zM1059 276h872v-4h-872v4zM1235 434q-8 0 -8 -14t8 -14q3 0 4.5 -3t-0.5 -6q-6 -6 -22 -6q-12 0 -15 4t0 17q3 18 -6 30q-14 7 -14 31q0 21 16 21q9 0 10.5 -4t-0.5 -17q-3 -17 -1.5 -20.5t10.5 -1.5q9 1 11.5 10.5t2.5 38.5q-2 42 6 42q2 0 4 -1q12 -2 12 -37
q0 -70 -18 -70zM1165 522q-7 -3 -9.5 -13.5t-2.5 -41.5q0 -53 8 -57q9 -6 5.5 -12.5t-15.5 -6.5t-14 8.5t0 55.5q2 57 -4 60q-3 1 -9 -1q-9 -3 -12.5 -1t-3.5 11q0 10 6 13.5t27 3.5q39 0 45 2q7 3 9.5 -0.5t2.5 -14.5q0 -19 -9 -19q-5 0 -7 9q-3 8 -17 4zM1317 446
q-20 -12 -22 -31q-1 -9 8 -9q3 0 4.5 -3t-0.5 -6q-3 -6 -19 -6q-7 0 -10 4.5t-4.5 20t-1.5 49.5l-2 76h26q24 0 38 -11.5t14 -31.5q0 -39 -31 -52zM1292 481q9 -39 31 -14q15 15 7 36t-30 21q-10 0 -11.5 -8.5t3.5 -34.5zM1479 580q-37 15 -47 32q-20 29 -29 2
q-4 -14 -27 -26q-20 -9 -48.5 -4t-43.5 22q-12 14 -27 8q-38 -22 -75 15q-14 15 -17.5 27t-3.5 46q0 54 -10 54q-12 0 -19.5 -23t-7.5 -59q0 -33 -6.5 -45.5t-27.5 -16.5q-16 0 -19 -24q-19 -86 -88 -64q-20 8 -40.5 30t-24.5 42q-3 11 -8.5 13t-24.5 -1q-31 -3 -49 15
l-21 16l-14 -18q-13 -21 -41 -21h-25v-41q0 -80 -55 -80q-24 0 -45 17q-21 14 -31 53q-9 29 -10 81t2 267q0 65 -6 68q-7 3 -24 -32t-25 -69q-10 -48 -13 -168l-4 -129l-30 4q-24 3 -39 13q-6 10 -13 121q-3 92 -10 123.5t-24 31.5q-31 0 -56.5 -43t-25.5 -94q0 -68 51 -76
q23 -4 22 -11q-4 -12 -48 -13l-32 2q-35 6 -59 30q-19 19 -22.5 29.5t-1.5 44.5q6 78 69 119q40 28 91.5 25.5t80.5 -31.5q27 -27 27 18q0 16 10 49q14 45 40.5 65.5t55 11t47.5 -47.5q10 -21 12 -56t1 -153q-2 -142 1.5 -180.5t16.5 -38.5q19 0 23 46t-13 75q-21 34 -13 79
t38 64q18 13 53 10q33 -4 33 2q0 7 14 9.5t33 -2.5l29 -7l2 -73q1 -76 8 -72q9 7 14 119q4 119 0 123q-24 4 -53 6q-53 3 -88 -12q-44 -19 -63 -11q-8 4 0 13q14 15 57.5 24.5t79.5 5.5q41 -3 61 -8q12 -3 16.5 4.5t10.5 40.5q8 38 16.5 45t40.5 0q12 -4 13.5 -12.5
t-1.5 -48.5l-6 -53h21q12 0 15.5 4t6.5 24q10 69 59.5 109.5t102.5 25.5q51 -15 57 -67q6 -65 -65 -101q-41 -18 -60 -18q-13 0 -16.5 -5.5t-5.5 -27.5q-4 -29 0 -55v-23l22 21q23 23 44 18q29 -6 43 -27.5t20 -68.5q7 -54 16.5 -54t12.5 54q3 35 7 46.5t21 25.5
q18 14 27.5 17.5t28.5 0.5q30 -4 43 -8q13 -6 16 10q7 26 53 8l21 -8l-6 -73q-5 -75 8 -95q17 -26 42 -17t50 50q17 31 20 76q0 37 -11.5 54.5t-39.5 25.5q-24 7 -23 12q3 8 46 10q78 5 108 -50t-14 -124q-37 -58 -109 -72q-28 -4 -39.5 -3.5t-35.5 8.5zM1128 950
q-23 -68 -14 -73q7 -4 37 12q38 20 54.5 51.5t4.5 63.5q-11 35 -38 17.5t-44 -71.5zM791 651q9 19 11 61t-7 48q-19 11 -30 -25q-11 -32 -5 -73q10 -59 31 -11zM1016 563q22 -35 23 21q0 16 -1 41q-1 16 -5 69t-5 76q-4 81 -12 84q-19 12 -23 -2t-4 -82q0 -161 27 -207z
M1376 621q11 20 13 62t-7 54q-8 11 -10.5 10t-11.5 -16q-27 -39 -17 -98q3 -22 13.5 -25.5t19.5 13.5zM1427 516q-51 22 -51 -16q0 -15 10.5 -19.5t16.5 6.5q4 6 8 6.5t7 -4.5t3 -14q0 -11 -3.5 -13t-16.5 1q-17 3 -21 0t-4 -23q0 -18 3 -22t16 -4q18 0 24 6q8 8 13 -6
q2 -9 -2 -13t-17 -4q-21 0 -41 -4q-10 -3 -12 9l-2 63v76h22q31 0 39 2q11 5 14.5 2t0.5 -15q-1 -13 -7 -14zM172 119h-14l-25 80h17l10 -41q1 -4 3 -13.5t3 -13.5q1 4 4 13.5t4 13.5l14 41h13l12 -41q1 -4 3 -13.5t3 -13.5q1 4 3 13.5t3 13.5l13 41h14l-27 -80h-12l-12 39
q-1 4 -4 12t-4 12q-1 -2 -3.5 -11t-3.5 -15zM315 119h-14l-25 80h17l10 -41q1 -4 3 -13.5t3 -13.5q5 22 8 27l13 41h12l14 -41q1 -4 3 -13.5t3 -13.5q1 4 3.5 13.5t3.5 13.5l12 41h14l-26 -80h-13l-12 39q-4 8 -8 24q-4 -16 -8 -26zM459 119h-15l-24 80h14l12 -41
q1 -4 3.5 -13.5t3.5 -13.5q1 4 3 13.5t3 13.5l14 41h12l13 -41q2 -5 8 -27q1 4 3 13.5t3 13.5l12 41h15l-27 -80h-12l-13 39q-4 8 -8 24q-4 -16 -8 -26zM571 117q-10 0 -10 10t10 10q9 0 9 -10t-9 -10zM686 119h-16v45q0 26 -19 26q-16 0 -20 -16q0 -1 -1 -3t-1 -3v-49h-15
v57v23h13l2 -13q11 17 26 17q12 0 21.5 -9t9.5 -28v-47zM719 139q0 14 13 22.5t36 8.5q0 20 -18 20q-12 0 -21 -6l-4 11q16 8 27 8q30 0 30 -35v-31q0 -12 2 -18h-14v8q-10 -10 -25 -10q-26 0 -26 22zM770 160q-35 0 -35 -19q0 -14 13 -14q16 0 20 12q0 2 1 3.5t1 2.5v15z
M862 188h-20v-45q0 -16 10 -16l8 2l2 -10q-4 -2 -14 -2q-11 0 -17 6q-6 12 -6 20v45h-12v11h12v20l17 4v-24h20v-11zM965 119h-15v45q0 26 -18 26q-13 0 -21 -16v-6v-49h-16v119h16v-52q4 7 11 11q12 6 16 6q10 0 18.5 -9t8.5 -28v-47zM1032 203q31 0 31 -35v-31q0 -3 1 -9
t1 -9h-12l-2 8h-2q-7 -10 -25 -10q-10 0 -17.5 6.5t-7.5 15.5q0 14 13.5 22.5t36.5 8.5q0 20 -19 20q-11 0 -20 -6l-4 11q12 8 26 8zM1049 145v15q-33 0 -33 -19q0 -14 12 -14q17 0 21 12v6zM1108 219l12 4v-24h23v-11h-23v-45q0 -16 13 -16q2 0 4.5 1t3.5 1l2 -10
q-4 -2 -15 -2q-10 0 -16 6q-4 4 -4 20v45h-14v11h14v20zM1184 100q8 3 12 17q2 2 2 4v4l-31 74h15l20 -47q0 -9 4 -17q4 8 4 17l19 47h14l-22 -58q-13 -37 -27 -51q-13 -10 -18 -10l-5 12q10 5 13 8zM1288 84h-14v90q0 19 -2 25h14l2 -13q10 17 29 17q14 0 23.5 -12.5
t9.5 -30.5q0 -21 -10.5 -32t-26.5 -11t-25 12v-45zM1288 164v-12v-7q7 -18 23 -18q24 0 24 31q0 32 -22 32q-8 0 -15 -5.5t-8 -14.5q-2 0 -2 -6zM1452 162v-6h-57q0 -13 8.5 -21t19.5 -8t23 4l2 -10q-8 -4 -27 -4t-30 11t-11 30t10.5 32t28.5 13q33 0 33 -41zM1395 166h43
q0 24 -21 24q-17 0 -22 -24zM1503 127q0 -10 -10 -10t-10 10t10 10t10 -10zM1575 190q-13 0 -21 -9t-8 -23q0 -13 8.5 -22t20.5 -9q5 0 11 2t7 2l2 -10q-4 -4 -22 -4q-19 0 -30 11t-11 30t11.5 31t31.5 12q16 0 20 -4l-2 -11q-1 0 -7 2t-11 2zM1702 160q0 -22 -12 -32.5
t-29 -10.5q-15 0 -26 11.5t-11 29.5q0 45 41 45q17 0 27 -12t10 -31zM1638 158q0 -13 7 -22t18 -9t18 9t7 22q0 12 -7 22t-18 10t-18 -9.5t-7 -22.5zM1855 119h-14v45q0 26 -18 26q-14 0 -19 -14v-8v-49h-14v49q0 22 -16 22q-15 0 -19 -16q-2 -2 -2 -6v-49h-14v57v23h12v-13
q13 17 27 17q18 0 22 -19q6 9 10 13q12 6 19 6q10 0 18 -9t8 -28v-47z" />
    <glyph glyph-name="nine" unicode="9" 
d="M59 1315h39q17 0 27 -9t10 -24t-10 -24t-27 -9h-18v-22h-21v88zM115 1282q0 16 -19 16h-16v-30h16q19 0 19 14zM244 1298h-45v-20h39v-16h-39v-19h45v-16h-66v88h66v-17zM365 1282q0 -21 -19 -27l19 -28h-21l-16 24h-19v-24h-18v88h37q17 0 27 -9t10 -24zM326 1268
q18 0 18 14q0 16 -18 16h-17v-30h17zM438 1241q17 0 17 8q0 7 -24.5 14t-24.5 25q0 27 34 27q19 0 31 -6l-6 -17q-12 6 -25 6q-16 0 -16 -8q0 -6 25.5 -13t25.5 -26q0 -26 -39 -26q-23 0 -33 10l7 14q12 -8 28 -8zM512 1270q0 20 13.5 32.5t33.5 12.5t33.5 -12.5t13.5 -32.5
t-13.5 -32.5t-33.5 -12.5t-33.5 12.5t-13.5 32.5zM586 1270q0 12 -8 20t-19 8q-12 0 -19.5 -8t-7.5 -20t7.5 -19.5t19.5 -7.5q11 0 19 7.5t8 19.5zM668 1315l43 -53v53h18v-88h-16l-43 53v-53h-19v88h17zM768 1227l39 88h18l39 -88h-20l-8 18h-41l-7 -18h-20zM829 1262
l-14 32l-12 -32h26zM903 1315h19v-72h43v-16h-62v88zM1069 1315h21v-49q0 -23 18 -23t18 23v49h21v-51q0 -39 -39 -39t-39 39v51zM1225 1241q16 0 16 8q0 7 -24.5 14t-24.5 25q0 27 35 27q18 0 30 -6l-6 -17q-12 6 -24 6q-17 0 -17 -8q0 -6 25 -13t25 -26q0 -26 -35 -26
q-22 0 -35 10l6 14q16 -8 29 -8zM1370 1298h-47v-20h41v-16h-41v-19h47v-16h-65v88h65v-17zM1475 1270q0 20 13.5 32.5t33.5 12.5t33.5 -12.5t13.5 -32.5t-13.5 -32.5t-33.5 -12.5t-33.5 12.5t-13.5 32.5zM1548 1270q0 12 -7.5 20t-18.5 8q-12 0 -19.5 -8t-7.5 -20
t7.5 -19.5t19.5 -7.5q11 0 18.5 7.5t7.5 19.5zM1630 1315l43 -53v53h19v-88h-17l-43 53v-53h-18v88h16zM1743 1315h18v-72h43v-16h-61v88zM1878 1227h-20v30l-33 58h20l25 -41l20 41h21l-33 -58v-30zM76 283v-2h-23l-4 -21h-2l8 45h29l-2 -4h-25l-2 -18h21zM88 272q0 9 5 15
t13 6q15 0 15 -12q0 -9 -5.5 -15t-13.5 -6q-14 0 -14 12zM117 281q0 10 -13 10q-14 0 -14 -19q0 -8 12 -8q15 0 15 17zM137 293h2v-6q3 6 13 6v-4q-12 0 -15 -13l-4 -16h-2zM207 301q-9 0 -15 -6.5t-6 -15.5q0 -15 15 -15q12 0 14 4l2 -2q-6 -6 -16 -6q-19 0 -19 19
q0 11 7.5 18.5t17.5 7.5q4 0 16 -6l-4 -4q-3 6 -12 6zM260 281q0 -9 -5 -15t-13 -6q-6 0 -10.5 3.5t-4.5 8.5q0 9 5.5 15t13.5 6q14 0 14 -12zM242 264q14 0 14 17q0 10 -10 10q-6 0 -10.5 -5.5t-4.5 -13.5t11 -8zM276 293h5l-2 -6q6 6 12 6q10 0 10 -6q6 6 14 6
q11 0 11 -10v-2l-4 -21h-3l5 21v2q0 8 -9 8q-11 0 -14 -12l-4 -19h-2l4 21v2q0 8 -8 8q-12 0 -15 -12l-2 -19h-4zM385 293q10 0 10 -10v-2l-4 -21h-2l4 21v2q0 8 -8 8q-11 0 -14 -12l-2 -19h-4l4 21v2q0 8 -11 8q-9 0 -12 -12l-2 -19h-4l6 33h4l-2 -6q3 6 12 6q10 0 13 -6
q3 6 12 6zM440 276h-28v-4q0 -8 12 -8q8 0 10 2l2 -2q-4 -4 -12 -4q-14 0 -14 12q0 21 16 21q14 0 14 -12v-5zM426 291q-11 0 -14 -12h24v2q0 10 -10 10zM457 293h4l-2 -6q6 6 12 6v-4q-11 0 -14 -13l-2 -16h-4zM496 291q-6 0 -10.5 -5.5t-4.5 -13.5t13 -8q8 0 10 2h2
q-6 -6 -12 -6q-15 0 -15 12q0 9 5.5 15t11.5 6q9 0 12 -6h-2q-4 4 -10 4zM530 303q0 -2 -4 -2q-2 0 -2 2t4 2q2 0 2 -2zM518 260l6 33h2l-6 -33h-2zM567 260h-2v6q-3 -6 -12 -6q-14 0 -14 12q0 21 18 21q8 0 12 -8l2 8h2zM553 264q14 0 14 17q0 10 -10 10q-14 0 -14 -19
q0 -8 10 -8zM588 260h-2l8 47h4zM604 252h-2l2 8v2q0 4 2 4l2 -2v-4zM664 274h-13l-2 -14h-4l10 45h15q14 0 14 -12q0 -19 -20 -19zM657 301l-6 -25h13q16 0 16 17q0 8 -10 8h-13zM696 260h-4l10 47h3zM743 276h-26v-4q0 -8 12 -8q8 0 10 2l2 -2q-8 -4 -12 -4q-16 0 -16 12
q0 9 5 15t13 6q14 0 14 -12q0 -5 -2 -5zM731 291q-11 0 -14 -12h24v2q0 10 -10 10zM786 293h5l-7 -33h-4l2 6q-6 -6 -12 -6q-14 0 -14 12q0 9 5 15t11 6q12 0 12 -8zM770 264q14 0 14 17q0 10 -12 10q-14 0 -14 -19q0 -8 12 -8zM809 264q12 0 12 6q0 4 -9 6t-9 7q0 10 12 10
q8 0 10 -4v-2q-4 4 -10 4q-10 0 -10 -8q0 -4 9 -6t9 -7q0 -10 -14 -10q-4 0 -12 4l4 2q2 -2 8 -2zM866 276h-28v-4q0 -8 12 -8q8 0 10 2l2 -2q-4 -4 -12 -4q-14 0 -14 12q0 21 16 21q14 0 14 -12v-5zM852 291q-8 0 -14 -12h24v2q0 10 -10 10zM913 260h-2l-12 45h4l10 -41
l25 41h2zM956 303q0 -2 -4 -2q-2 0 -2 2l2 2q4 0 4 -2zM944 260l6 33h2l-6 -33h-2zM979 291q-10 0 -10 -8q0 -4 9 -6t9 -7q0 -10 -14 -10q-8 0 -12 4l2 2q2 -2 12 -2q8 0 8 6q0 4 -9 6t-9 7q0 10 14 10q8 0 10 -4l-2 -2q-4 4 -8 4zM999 260l7 33h4l-9 -33h-2zM1012 303
l-2 -2q-4 0 -4 2t4 2q2 0 2 -2zM1028 299h2v-6h10v-4h-10l-4 -19q-2 -2 -2 -4q0 -4 6 -4l4 2l2 -2q-2 -2 -6 -2q-8 0 -8 6v4l4 19h-4v4h6v6zM1929 1174v-7h-1870v7h1870zM1929 1374v-6h-1870v6h1870zM1929 1395v-4h-1870v4h1870zM61 51v4h1870v-4h-1870zM61 74v4h1870v-4
h-1870zM1059 276h872v-4h-872v4zM1235 434q-8 0 -8 -14t8 -14q3 0 4.5 -3t-0.5 -6q-6 -6 -22 -6q-12 0 -15 4t0 17q3 18 -6 30q-14 7 -14 31q0 21 16 21q9 0 10.5 -4t-0.5 -17q-3 -17 -1.5 -20.5t10.5 -1.5q9 1 11.5 10.5t2.5 38.5q-2 42 6 42q2 0 4 -1q12 -2 12 -37
q0 -70 -18 -70zM1165 522q-7 -3 -9.5 -13.5t-2.5 -41.5q0 -53 8 -57q9 -6 5.5 -12.5t-15.5 -6.5t-14 8.5t0 55.5q2 57 -4 60q-3 1 -9 -1q-9 -3 -12.5 -1t-3.5 11q0 10 6 13.5t27 3.5q39 0 45 2q7 3 9.5 -0.5t2.5 -14.5q0 -19 -9 -19q-5 0 -7 9q-3 8 -17 4zM1317 446
q-20 -12 -22 -31q-1 -9 8 -9q3 0 4.5 -3t-0.5 -6q-3 -6 -19 -6q-7 0 -10 4.5t-4.5 20t-1.5 49.5l-2 76h26q24 0 38 -11.5t14 -31.5q0 -39 -31 -52zM1292 481q9 -39 31 -14q15 15 7 36t-30 21q-10 0 -11.5 -8.5t3.5 -34.5zM1479 580q-37 15 -47 32q-20 29 -29 2
q-4 -14 -27 -26q-20 -9 -48.5 -4t-43.5 22q-12 14 -27 8q-38 -22 -75 15q-14 15 -17.5 27t-3.5 46q0 54 -10 54q-12 0 -19.5 -23t-7.5 -59q0 -33 -6.5 -45.5t-27.5 -16.5q-16 0 -19 -24q-19 -86 -88 -64q-20 8 -40.5 30t-24.5 42q-3 11 -8.5 13t-24.5 -1q-31 -3 -49 15
l-21 16l-14 -18q-13 -21 -41 -21h-25v-41q0 -80 -55 -80q-24 0 -45 17q-21 14 -31 53q-9 29 -10 81t2 267q0 65 -6 68q-7 3 -24 -32t-25 -69q-10 -48 -13 -168l-4 -129l-30 4q-24 3 -39 13q-6 10 -13 121q-3 92 -10 123.5t-24 31.5q-31 0 -56.5 -43t-25.5 -94q0 -68 51 -76
q23 -4 22 -11q-4 -12 -48 -13l-32 2q-35 6 -59 30q-19 19 -22.5 29.5t-1.5 44.5q6 78 69 119q40 28 91.5 25.5t80.5 -31.5q27 -27 27 18q0 16 10 49q14 45 40.5 65.5t55 11t47.5 -47.5q10 -21 12 -56t1 -153q-2 -142 1.5 -180.5t16.5 -38.5q19 0 23 46t-13 75q-21 34 -13 79
t38 64q18 13 53 10q33 -4 33 2q0 7 14 9.5t33 -2.5l29 -7l2 -73q1 -76 8 -72q9 7 14 119q4 119 0 123q-24 4 -53 6q-53 3 -88 -12q-44 -19 -63 -11q-8 4 0 13q14 15 57.5 24.5t79.5 5.5q41 -3 61 -8q12 -3 16.5 4.5t10.5 40.5q8 38 16.5 45t40.5 0q12 -4 13.5 -12.5
t-1.5 -48.5l-6 -53h21q12 0 15.5 4t6.5 24q10 69 59.5 109.5t102.5 25.5q51 -15 57 -67q6 -65 -65 -101q-41 -18 -60 -18q-13 0 -16.5 -5.5t-5.5 -27.5q-4 -29 0 -55v-23l22 21q23 23 44 18q29 -6 43 -27.5t20 -68.5q7 -54 16.5 -54t12.5 54q3 35 7 46.5t21 25.5
q18 14 27.5 17.5t28.5 0.5q30 -4 43 -8q13 -6 16 10q7 26 53 8l21 -8l-6 -73q-5 -75 8 -95q17 -26 42 -17t50 50q17 31 20 76q0 37 -11.5 54.5t-39.5 25.5q-24 7 -23 12q3 8 46 10q78 5 108 -50t-14 -124q-37 -58 -109 -72q-28 -4 -39.5 -3.5t-35.5 8.5zM1128 950
q-23 -68 -14 -73q7 -4 37 12q38 20 54.5 51.5t4.5 63.5q-11 35 -38 17.5t-44 -71.5zM791 651q9 19 11 61t-7 48q-19 11 -30 -25q-11 -32 -5 -73q10 -59 31 -11zM1016 563q22 -35 23 21q0 16 -1 41q-1 16 -5 69t-5 76q-4 81 -12 84q-19 12 -23 -2t-4 -82q0 -161 27 -207z
M1376 621q11 20 13 62t-7 54q-8 11 -10.5 10t-11.5 -16q-27 -39 -17 -98q3 -22 13.5 -25.5t19.5 13.5zM1427 516q-51 22 -51 -16q0 -15 10.5 -19.5t16.5 6.5q4 6 8 6.5t7 -4.5t3 -14q0 -11 -3.5 -13t-16.5 1q-17 3 -21 0t-4 -23q0 -18 3 -22t16 -4q18 0 24 6q8 8 13 -6
q2 -9 -2 -13t-17 -4q-21 0 -41 -4q-10 -3 -12 9l-2 63v76h22q31 0 39 2q11 5 14.5 2t0.5 -15q-1 -13 -7 -14zM172 119h-14l-25 80h17l10 -41q1 -4 3 -13.5t3 -13.5q1 4 4 13.5t4 13.5l14 41h13l12 -41q1 -4 3 -13.5t3 -13.5q1 4 3 13.5t3 13.5l13 41h14l-27 -80h-12l-12 39
q-1 4 -4 12t-4 12q-1 -2 -3.5 -11t-3.5 -15zM315 119h-14l-25 80h17l10 -41q1 -4 3 -13.5t3 -13.5q5 22 8 27l13 41h12l14 -41q1 -4 3 -13.5t3 -13.5q1 4 3.5 13.5t3.5 13.5l12 41h14l-26 -80h-13l-12 39q-4 8 -8 24q-4 -16 -8 -26zM459 119h-15l-24 80h14l12 -41
q1 -4 3.5 -13.5t3.5 -13.5q1 4 3 13.5t3 13.5l14 41h12l13 -41q2 -5 8 -27q1 4 3 13.5t3 13.5l12 41h15l-27 -80h-12l-13 39q-4 8 -8 24q-4 -16 -8 -26zM571 117q-10 0 -10 10t10 10q9 0 9 -10t-9 -10zM686 119h-16v45q0 26 -19 26q-16 0 -20 -16q0 -1 -1 -3t-1 -3v-49h-15
v57v23h13l2 -13q11 17 26 17q12 0 21.5 -9t9.5 -28v-47zM719 139q0 14 13 22.5t36 8.5q0 20 -18 20q-12 0 -21 -6l-4 11q16 8 27 8q30 0 30 -35v-31q0 -12 2 -18h-14v8q-10 -10 -25 -10q-26 0 -26 22zM770 160q-35 0 -35 -19q0 -14 13 -14q16 0 20 12q0 2 1 3.5t1 2.5v15z
M862 188h-20v-45q0 -16 10 -16l8 2l2 -10q-4 -2 -14 -2q-11 0 -17 6q-6 12 -6 20v45h-12v11h12v20l17 4v-24h20v-11zM965 119h-15v45q0 26 -18 26q-13 0 -21 -16v-6v-49h-16v119h16v-52q4 7 11 11q12 6 16 6q10 0 18.5 -9t8.5 -28v-47zM1032 203q31 0 31 -35v-31q0 -3 1 -9
t1 -9h-12l-2 8h-2q-7 -10 -25 -10q-10 0 -17.5 6.5t-7.5 15.5q0 14 13.5 22.5t36.5 8.5q0 20 -19 20q-11 0 -20 -6l-4 11q12 8 26 8zM1049 145v15q-33 0 -33 -19q0 -14 12 -14q17 0 21 12v6zM1108 219l12 4v-24h23v-11h-23v-45q0 -16 13 -16q2 0 4.5 1t3.5 1l2 -10
q-4 -2 -15 -2q-10 0 -16 6q-4 4 -4 20v45h-14v11h14v20zM1184 100q8 3 12 17q2 2 2 4v4l-31 74h15l20 -47q0 -9 4 -17q4 8 4 17l19 47h14l-22 -58q-13 -37 -27 -51q-13 -10 -18 -10l-5 12q10 5 13 8zM1288 84h-14v90q0 19 -2 25h14l2 -13q10 17 29 17q14 0 23.5 -12.5
t9.5 -30.5q0 -21 -10.5 -32t-26.5 -11t-25 12v-45zM1288 164v-12v-7q7 -18 23 -18q24 0 24 31q0 32 -22 32q-8 0 -15 -5.5t-8 -14.5q-2 0 -2 -6zM1452 162v-6h-57q0 -13 8.5 -21t19.5 -8t23 4l2 -10q-8 -4 -27 -4t-30 11t-11 30t10.5 32t28.5 13q33 0 33 -41zM1395 166h43
q0 24 -21 24q-17 0 -22 -24zM1503 127q0 -10 -10 -10t-10 10t10 10t10 -10zM1575 190q-13 0 -21 -9t-8 -23q0 -13 8.5 -22t20.5 -9q5 0 11 2t7 2l2 -10q-4 -4 -22 -4q-19 0 -30 11t-11 30t11.5 31t31.5 12q16 0 20 -4l-2 -11q-1 0 -7 2t-11 2zM1702 160q0 -22 -12 -32.5
t-29 -10.5q-15 0 -26 11.5t-11 29.5q0 45 41 45q17 0 27 -12t10 -31zM1638 158q0 -13 7 -22t18 -9t18 9t7 22q0 12 -7 22t-18 10t-18 -9.5t-7 -22.5zM1855 119h-14v45q0 26 -18 26q-14 0 -19 -14v-8v-49h-14v49q0 22 -16 22q-15 0 -19 -16q-2 -2 -2 -6v-49h-14v57v23h12v-13
q13 17 27 17q18 0 22 -19q6 9 10 13q12 6 19 6q10 0 18 -9t8 -28v-47z" />
    <glyph glyph-name="colon" unicode=":" horiz-adv-x="421" 
d="M211 895q-47 0 -81 34t-34 81t34 80.5t81 33.5q46 0 79.5 -33.5t33.5 -80.5t-33.5 -81t-79.5 -34zM211 537q46 0 79.5 -34t33.5 -81t-33.5 -81t-79.5 -34q-47 0 -81 34t-34 81t34 81t81 34z" />
    <glyph glyph-name="semicolon" unicode=";" horiz-adv-x="432" 
d="M215 895q-47 0 -81 34t-34 81t34 80.5t81 33.5q46 0 79.5 -33.5t33.5 -80.5t-33.5 -81t-79.5 -34zM215 537q47 0 81 -34t34 -81q0 -26 -1 -43.5t-11.5 -53t-29 -57t-59 -37.5t-96.5 -12v49q27 -12 60 -12q36 0 62.5 19.5t33.5 58.5q-34 -27 -74 -27q-46 0 -79.5 34
t-33.5 81t33.5 81t79.5 34z" />
    <glyph glyph-name="less" unicode="&#x3c;" horiz-adv-x="530" 
d="M436 907q-6 6 -82.5 -41.5t-149.5 -97.5l-73 -51l202 -134q98 -62 103 -57l-96 -96q6 6 -58 78t-131 140l-67 69l157 167q106 115 99 122z" />
    <glyph glyph-name="equal" unicode="=" horiz-adv-x="851" 
d="M670 891q30 0 62 6.5t32 17.5v-137q0 23 -94 23h-496q-86 0 -86 -23v137q0 -20 86 -20zM670 637q30 0 62 7t32 18v-138q0 21 -94 21h-496q-86 0 -86 -21v138q0 -11 29.5 -17t56.5 -6z" />
    <glyph glyph-name="greater" unicode="&#x3e;" horiz-adv-x="530" 
d="M188 1006q-4 -5 60 -77.5t130 -142.5l66 -69l-148 -154q-116 -125 -108 -133l-96 96q5 -4 81.5 43.5t150.5 97.5l73 50l-176 119q-121 79 -129 71z" />
    <glyph glyph-name="question" unicode="?" horiz-adv-x="1372" 
d="M688 1427q141 0 243 -18.5t166.5 -51.5t102.5 -87t52 -116t14 -148q0 -102 -32 -176.5t-83.5 -116.5t-113.5 -72.5t-124 -54.5t-113.5 -53t-83.5 -78.5t-32 -120.5h-35q0 73 26 126.5t67 87t90.5 62.5t99.5 63.5t91 79.5t67 121.5t26 178.5q0 185 -98 268t-330 82
q-84 0 -153 -15.5t-114.5 -40.5t-80 -59t-53 -66.5t-30 -68.5t-14.5 -60t-3 -46q0 -144 62 -213.5t157 -69.5q17 0 49 4q-64 -18 -117 -18q-134 0 -213.5 91.5t-79.5 223.5q0 148 156 255.5t434 106.5zM664 289q54 0 92.5 -38.5t38.5 -92.5q0 -55 -38.5 -94t-92.5 -39
q-55 0 -93.5 38.5t-38.5 94.5q0 54 38.5 92.5t93.5 38.5z" />
    <glyph glyph-name="at" unicode="@" horiz-adv-x="862" 
d="M539 629l2 188h-64q-46 0 -80.5 -6.5t-65 -22.5t-47 -47.5t-16.5 -78.5q0 -83 40.5 -112.5t111.5 -29.5q119 0 119 109zM446 825h95v41q0 44 -15 62q-22 28 -80 28q-103 0 -145 -86l-33 39q64 56 197 56q93 0 126.5 -32t33.5 -89v-260q0 -17 7.5 -26t18.5 -9
q29 0 54.5 43.5t25.5 126.5q0 124 -88 211.5t-213 87.5q-123 0 -211 -87.5t-88 -211.5q0 -84 26 -147.5t70 -99.5t95.5 -53.5t107.5 -17.5q122 0 195 60l6 -6q-87 -68 -201 -68q-140 0 -235 91t-95 241q0 137 97 233.5t233 96.5q137 0 234.5 -97t97.5 -233q0 -107 -43 -159
t-101 -52t-81 41q-33 -37 -117 -37q-50 0 -87 5t-74 19.5t-57 45.5t-20 77q0 88 66.5 127t197.5 39z" />
    <glyph glyph-name="A" unicode="A" horiz-adv-x="1122" 
d="M500 1280l-238 -692h475zM1124 0h-219q9 0 11.5 15t-2 37.5t-10 43.5t-11.5 39l-148 428h-491l-145 -428q-6 -18 -11.5 -39t-10.5 -43.5t-3.5 -37.5t10.5 -15h-98q22 0 44.5 44t37.5 93q405 1168 409 1178q-52 119 -79 119h184l450 -1297q49 -137 82 -137z" />
    <glyph glyph-name="B" unicode="B" horiz-adv-x="1169" 
d="M584 8q87 0 150.5 23.5t101 61.5t59.5 97.5t29.5 120t7.5 140.5q0 111 -17 190t-46 126.5t-77 74.5t-100 36t-125 9h-282v-668q0 -38 14 -72.5t45.5 -67t93 -52t146.5 -19.5zM530 1423h-245v-528h262q62 1 107.5 15t72.5 37t43 59t21.5 72.5t5.5 84.5q0 83 -17.5 136
t-55.5 79.5t-82 35.5t-112 9zM682 895q227 -9 325.5 -110t98.5 -336q0 -99 -31 -181t-93.5 -144.5t-163 -97t-232.5 -34.5q-206 0 -301 88v-80h-185q17 0 26 46.5t9 88.5l4 1149q0 47 -11 98.5t-28 51.5h478q186 0 265 -60.5t79 -212.5q0 -227 -240 -266z" />
    <glyph glyph-name="C" unicode="C" horiz-adv-x="1290" 
d="M1182 315l57 -122q-63 -104 -193 -153.5t-305 -49.5q-113 0 -209.5 24.5t-180.5 79.5t-143.5 138t-93.5 206.5t-34 278.5t34 278.5t93.5 206t143.5 137.5t180.5 79t209.5 24q166 0 291.5 -44t184.5 -126l-37 -148q-64 151 -178.5 225t-260.5 74q-87 0 -161 -23.5
t-139 -77t-110.5 -134t-71.5 -200.5t-26 -271q0 -150 26 -270t71.5 -200.5t110.5 -134t139 -77t161 -23.5q148 0 262.5 74.5t178.5 228.5z" />
    <glyph glyph-name="D" unicode="D" horiz-adv-x="1191" 
d="M584 8q73 0 129.5 25.5t94 75.5t62.5 111.5t38.5 145.5t18.5 165.5t5 183.5q0 190 -43.5 350t-128 259t-193.5 99h-282v-1204q0 -36 14 -70t45.5 -67t93.5 -53.5t146 -20.5zM100 1434h531q97 0 178 -43t135 -114t91.5 -165.5t54 -194.5t16.5 -204q0 -359 -127 -540
t-393 -181q-206 0 -301 88v-80h-185q17 0 26 46.5t9 88.5l4 1149q0 47 -11 98.5t-28 51.5z" />
    <glyph glyph-name="E" unicode="E" horiz-adv-x="991" 
d="M283 25h219q111 0 196 17.5t129 40t72.5 52.5t35.5 47t9 31v2v-2l-24 -213h-822q17 0 26 46.5t9 88.5l4 1149q0 47 -11 98.5t-28 51.5h797l25 -215q0 10 -20 39q-73 109 -272 140q-70 11 -153 11h-192v-551h194q52 0 91.5 13.5t59 32t31.5 37.5t15 33l2 13v-272
q-1 5 -3 14t-14 31t-31 39t-59 31t-92 14h-194v-819z" />
    <glyph glyph-name="F" unicode="F" horiz-adv-x="937" 
d="M477 1409h-194v-629h194q53 0 92.5 13t59 32t31 37.5t14.5 31.5l2 13v-270q0 5 -2 13.5t-14 30.5t-31.5 39t-59 30.5t-92.5 13.5h-194v-627q0 -137 34 -137h-219q18 0 26.5 45.5t8.5 89.5l4 1149q0 48 -10.5 99t-28.5 51h797l25 -215q0 10 -20 40q-72 108 -271 139
q-70 11 -152 11z" />
    <glyph glyph-name="G" unicode="G" horiz-adv-x="1320" 
d="M1210 256q0 -59 29 -63q-63 -104 -193 -153.5t-305 -49.5q-113 0 -209.5 24.5t-180.5 79.5t-143.5 138t-93.5 206.5t-34 278.5t34 278.5t93.5 206t143.5 137.5t180.5 79t209.5 24q166 0 291.5 -44t184.5 -126l-37 -148q-64 151 -178.5 225t-260.5 74q-87 0 -161 -23.5
t-139 -77t-110.5 -134t-71.5 -200.5t-26 -271q0 -150 26 -270t71.5 -200.5t110.5 -134t139 -77t161 -23.5q193 0 320 121l-2 404q0 85 -21 125h-137q-52 0 -94 -19t-65 -46t-38.5 -54.5t-20.5 -46.5l-5 -19v195h567q-35 0 -35 -137v-279z" />
    <glyph glyph-name="H" unicode="H" horiz-adv-x="1150" 
d="M1016 137q0 -137 35 -137h-220q17 0 25 46t8 89l2 570h-583v-568q0 -137 34 -137h-219q18 0 26.5 45.5t8.5 89.5l4 1149q0 48 -10.5 99t-28.5 51h219q-34 0 -34 -150v-557h583l2 557q0 48 -10 99t-27 51h220q-35 0 -35 -150v-1147z" />
    <glyph glyph-name="I" unicode="I" horiz-adv-x="419" 
d="M283 137q0 -137 34 -137h-219q17 0 26 46.5t9 88.5l4 1149q0 47 -11 98.5t-28 51.5h219q-34 0 -34 -150v-1147z" />
    <glyph glyph-name="J" unicode="J" horiz-adv-x="927" 
d="M614 1434h220q-35 0 -35 -150v-944q0 -93 -24 -160t-59 -102.5t-91 -56t-101.5 -25t-109.5 -4.5q-186 0 -288.5 61.5t-102.5 167.5q0 62 38 108t76 46q-18 -72 -7.5 -138.5t41 -116.5t93.5 -80t150 -30q31 0 54 3t59.5 21t60 50.5t41.5 97.5t18 156l6 946q0 47 -11 98.5
t-28 51.5z" />
    <glyph glyph-name="K" unicode="K" horiz-adv-x="1046" 
d="M317 1434q-34 0 -34 -150v-1147q0 -137 34 -137h-219q18 0 26.5 45.5t8.5 89.5l4 1149q0 48 -10.5 99t-28.5 51h219zM1057 0h-219q18 0 -8 46t-58 89l-430 582l428 579q28 41 39 74t6 48.5t-18 15.5h178q-74 0 -174 -138l-371 -497l492 -662q100 -137 135 -137z" />
    <glyph glyph-name="L" unicode="L" horiz-adv-x="935" 
d="M477 25q289 0 403 125q24 26 40 65l-25 -215h-797q18 0 28.5 51t10.5 99l-4 1146q0 45 -8.5 91.5t-26.5 46.5h219q-34 0 -34 -138v-1271h194z" />
    <glyph glyph-name="M" unicode="M" horiz-adv-x="1441" 
d="M1305 137q0 -137 34 -137h-219q18 0 26.5 45.5t8.5 89.5l4 1149q0 38 -6 78q-28 -53 -35 -78l-442 -1296h-45l-434 1296q-11 34 -31 72q-2 -25 -2 -72v-1147q0 -137 35 -137h-99q17 0 26 46.5t9 88.5l4 1149q0 47 -11 98.5t-28 51.5h195l416 -1272l432 1272h196
q-34 0 -34 -150v-1147z" />
    <glyph glyph-name="N" unicode="N" horiz-adv-x="1007" 
d="M809 1434h98q-35 0 -35 -150v-1282h-30l-623 1282q-16 31 -53 88q-4 -62 -4 -88v-1147q0 -137 35 -137h-99q17 0 26 46.5t9 88.5l4 1149q0 47 -11 98.5t-28 51.5h195l551 -1151l4 1001q0 48 -10.5 99t-28.5 51z" />
    <glyph glyph-name="O" unicode="O" horiz-adv-x="1482" 
d="M741 1442q112 0 209.5 -25.5t181.5 -81.5t143.5 -139.5t93.5 -205.5t34 -273t-34 -273.5t-93.5 -206t-143 -140t-181.5 -82t-210 -25.5q-113 0 -209.5 24.5t-180.5 79.5t-143.5 138t-93.5 206.5t-34 278.5t34 278.5t93.5 206t143.5 137.5t180.5 79t209.5 24zM741 12
q86 0 161 24.5t139.5 79.5t110 136t71.5 199.5t26 265.5q0 183 -39.5 321.5t-110 221t-160.5 123t-198 40.5q-87 0 -161 -23.5t-139 -77t-110.5 -134t-71.5 -200.5t-26 -271q0 -150 26 -270t71.5 -200.5t110.5 -134t139 -77t161 -23.5z" />
    <glyph glyph-name="P" unicode="P" horiz-adv-x="1161" 
d="M586 545q87 0 150.5 23.5t101 61.5t59.5 97.5t29.5 119.5t7.5 140q0 111 -17 190t-46 126.5t-77 74.5t-100 36t-125 9h-282v-669q0 -28 8 -55.5t29.5 -56t54 -49.5t86 -34.5t121.5 -13.5zM102 1434h531q256 0 365.5 -100.5t109.5 -348.5q0 -99 -31 -180.5t-93 -144
t-163 -97.5t-233 -35q-207 0 -301 90v-481q0 -137 35 -137h-220q18 0 26.5 45.5t8.5 89.5l4 1149q0 48 -10.5 99t-28.5 51z" />
    <glyph glyph-name="Q" unicode="Q" horiz-adv-x="1501" 
d="M741 12q56 0 119 13q-206 54 -366.5 175t-243.5 296q41 -250 171.5 -367t319.5 -117zM903 37q160 54 253 223t93 457q0 183 -39.5 321.5t-110 221t-160.5 123t-198 40.5q-83 0 -154 -21.5t-134 -70t-109 -121.5t-74.5 -181.5t-33.5 -244.5q-3 -68 24 -152t84.5 -174.5
t136 -172t189 -148.5t233.5 -100zM1395 117l18 -64q-10 -7 -29 -18t-87 -29t-146 -18q-111 0 -227 22q-81 -20 -183 -20q-113 0 -209.5 24.5t-180.5 79.5t-143.5 138t-93.5 206.5t-34 278.5t34 278.5t93.5 206t143.5 137.5t180.5 79t209.5 24q112 0 209.5 -25.5t181.5 -81.5
t143.5 -139.5t93.5 -205.5t34 -273q0 -290 -116.5 -462.5t-317.5 -231.5q90 -19 182 -19q63 0 132 30.5t112 82.5z" />
    <glyph glyph-name="R" unicode="R" horiz-adv-x="1183" 
d="M582 496q87 0 150.5 23.5t101 61t59.5 97t29.5 120t7.5 140.5q0 138 -25 233.5t-74 150t-113.5 78t-152.5 23.5h-282v-718q0 -38 14 -72.5t46 -66.5t93.5 -51t145.5 -19zM1116 0h-219q9 3 9 15.5t-8 37t-16.5 44.5t-17.5 38l-170 350q-53 -6 -110 -6q-206 0 -301 88v-430
q0 -137 34 -137h-219q18 0 26.5 45.5t8.5 89.5l4 1149q0 48 -10.5 99t-28.5 51h531q249 0 362 -121.5t113 -376.5q0 -175 -96 -294.5t-287 -152.5h121l172 -352q70 -137 102 -137z" />
    <glyph glyph-name="S" unicode="S" horiz-adv-x="1273" 
d="M260 1139q0 -78 26.5 -137t72.5 -93.5t107 -60.5t129.5 -39t140.5 -28.5t140.5 -29.5t129.5 -41.5t107 -64.5t72.5 -99.5t26.5 -144.5q0 -81 -18 -142.5t-60.5 -112.5t-112 -84t-175 -50.5t-246.5 -17.5q-141 -1 -248.5 30.5t-168.5 84.5t-90.5 115.5t-29.5 131.5
l150 142q-2 -10 -4 -27.5t-1.5 -67.5t9 -95.5t34 -101t66.5 -95.5t114 -67.5t169 -27.5q237 0 349 82.5t112 259.5q0 77 -32 132.5t-86 87t-124 53t-147.5 36.5t-155 31.5t-147.5 44t-124 68t-86 110.5t-32 164q0 49 15.5 96.5t53.5 95.5t95 84t147 58.5t201 22.5
q95 0 178 -13.5t133 -33t86.5 -38.5t51.5 -33l14 -13l-45 -189q-1 6 -4 17t-16.5 42t-31.5 59t-52 62.5t-75 59.5t-103.5 42t-135.5 17q-379 0 -379 -282z" />
    <glyph glyph-name="T" unicode="T" horiz-adv-x="1001" 
d="M944 1434l27 -381q-4 15 -13 50.5t-13.5 52.5t-14.5 48.5t-17.5 48t-21.5 42t-27.5 39t-34 30.5t-43 25t-52.5 14t-64 6h-86q-13 -43 -13 -125v-1147q0 -137 35 -137h-219q18 0 26.5 45.5t8.5 89.5l4 1149q0 76 -18 125h-78q-34 0 -64 -6t-52.5 -14t-43 -25t-34 -30.5
t-27.5 -39t-21.5 -42t-17.5 -48t-14.5 -48.5t-13.5 -52.5t-13 -50.5l26 381h889z" />
    <glyph glyph-name="U" unicode="U" horiz-adv-x="1110" 
d="M915 1434h99q-35 0 -35 -150v-981q0 -62 -13.5 -111.5t-34 -81.5t-51.5 -55.5t-59.5 -35.5t-66 -19t-62 -8.5t-55.5 -1.5q-97 0 -169 7.5t-139 29t-109 57t-66.5 94.5t-24.5 139l4 967q0 47 -11 98.5t-28 51.5h219q-34 0 -34 -150v-967q0 -170 80 -236.5t276 -66.5
q84 0 145.5 21.5t93 50.5t50 72.5t22.5 75t4 69.5l4 981q0 48 -10.5 99t-28.5 51z" />
    <glyph glyph-name="V" unicode="V" horiz-adv-x="1083" 
d="M989 1434h98q-38 0 -81 -138l-449 -1296l-31 2l-448 1294q-15 49 -37.5 93.5t-44.5 44.5h219q-9 0 -10.5 -15t3 -38.5t10 -44.5t11.5 -40l367 -1103l379 1103q6 19 11.5 40t10 44.5t3 38.5t-10.5 15z" />
    <glyph glyph-name="W" unicode="W" horiz-adv-x="1996" 
d="M1901 1434h98q-33 0 -82 -138l-449 -1296h-28l-443 1276l-442 -1276h-27l-450 1296q-15 49 -37.5 93.5t-44.5 44.5h219q-9 0 -10.5 -15t3 -38.5t10 -44.5t11.5 -40l367 -1103q383 1118 387 1126q-42 115 -74 115h219q-9 0 -11 -15t2.5 -38.5t10 -44t11.5 -40.5l368 -1103
l379 1103q6 20 11.5 40.5t10 44t2.5 38.5t-11 15z" />
    <glyph glyph-name="X" unicode="X" horiz-adv-x="987" 
d="M762 0q15 10 0.5 52t-37.5 83l-279 533l-278 -533q-23 -40 -39.5 -87.5t0.5 -47.5h-98q32 0 108 137l293 557l-307 590q-30 53 -65.5 101.5t-53.5 48.5h219q-8 0 -10 -7t1.5 -20.5t8.5 -28t14 -33.5t15.5 -32t15.5 -29l273 -516l272 516q9 17 15.5 29.5t15.5 31.5
t14 33.5t8.5 28t0.5 20.5t-11 7h100q-18 0 -55 -50.5t-63 -99.5l-283 -543l317 -604q61 -109 89 -130q10 -7 18 -7h-219z" />
    <glyph glyph-name="Y" unicode="Y" horiz-adv-x="948" 
d="M862 1434h99q-18 0 -56 -51t-63 -99l-297 -567v-580q0 -137 35 -137h-220q18 0 26.5 45.5t8.5 89.5l2 582l-291 567q-29 51 -65 100.5t-53 49.5h219q-8 0 -10 -7t1.5 -20.5t8.5 -28t14 -33.5t15.5 -32t15.5 -29l276 -547l289 547q9 16 15.5 29t15.5 32t14 33.5t8.5 28
t1.5 20.5t-10 7z" />
    <glyph glyph-name="Z" unicode="Z" horiz-adv-x="966" 
d="M485 25q82 0 150.5 9.5t112.5 24t78.5 34.5t52 37.5t29.5 37t15.5 29.5t4.5 18l-25 -215h-887q17 0 49 47t52 88l569 1149q38 83 43 125h-215q-113 0 -199 -18t-130 -41t-72 -54t-34.5 -47t-8.5 -30l24 215h846q-11 0 -23.5 -11.5t-29.5 -39t-24 -40t-25 -46.5
q-2 -4 -4 -7t-3 -6l-563 -1147q-40 -88 -43 -112h260z" />
    <glyph glyph-name="bracketleft" unicode="[" horiz-adv-x="411" 
d="M217 14h78v-14h-162v1434h162v-17h-78v-1403z" />
    <glyph glyph-name="backslash" unicode="\" horiz-adv-x="757" 
d="M528 0q12 0 15 13.5t-2.5 39.5t-10 42t-12.5 42l-375 1147q-47 150 -84 150h158q-9 0 -11.5 -16.5t1 -40.5t9 -49.5t11.5 -45.5l381 -1147q12 -41 36 -88t42 -47h-158z" />
    <glyph glyph-name="bracketright" unicode="]" horiz-adv-x="411" 
d="M117 1434h162v-1434h-162v14h76v1403h-76v17z" />
    <glyph glyph-name="asciicircum" unicode="^" horiz-adv-x="722" 
d="M360 1546l173 -162q109 -99 116 -94l-98 -96q6 6 -41.5 83t-98.5 151l-51 73l-129 -196q-66 -105 -61 -111l-96 96q6 -6 77.5 58t140.5 131z" />
    <glyph glyph-name="underscore" unicode="_" horiz-adv-x="794" 
d="M641 39q30 0 62 6.5t32 17.5v-137q0 23 -94 23h-496q-86 0 -86 -23v137q0 -20 86 -20z" />
    <glyph glyph-name="grave" unicode="`" horiz-adv-x="247" 
d="M-86 1245q127 -117 276 -186l-10 -19q-158 82 -327 121z" />
    <glyph glyph-name="a" unicode="a" horiz-adv-x="1064" 
d="M541 8q126 -1 181.5 59.5t55.5 159.5l4 381h-127q-92 0 -162.5 -13.5t-132.5 -47t-95.5 -98t-33.5 -158.5q0 -70 17.5 -122t44.5 -82t69.5 -48t83.5 -24t95 -7zM991 0h-215v68q-69 -76 -235 -76q-78 0 -140 6t-128.5 24.5t-111 50t-73.5 86.5t-29 130q0 176 136 256
t397 80h190v80q0 2 0.5 17.5t0 21.5t-2 22.5t-5 25.5t-10 24t-16 23.5t-24 19t-33 16.5t-44.5 10t-56 4q-209 0 -291 -176l-65 80l27 22.5t45 27.5t73.5 31t103.5 21t144 10q98 0 164 -19t99 -55t45.5 -76.5t12.5 -95.5v-522q0 -137 41 -137z" />
    <glyph glyph-name="b" unicode="b" horiz-adv-x="1089" 
d="M528 8q78 0 134 21.5t89.5 56t52.5 91t25.5 115t6.5 138.5q0 111 -17 191t-46 129.5t-76.5 78.5t-100.5 39.5t-125 10.5h-180v-646q0 -30 6.5 -59t23.5 -59.5t43 -54t68.5 -38t95.5 -14.5zM291 895h244q253 0 364 -108t111 -359q0 -101 -25 -178.5t-80.5 -136.5t-150 -90
t-226.5 -31q-163 0 -237 71v-63h-213q19 0 29 45t10 90l6 1114q0 47 -12.5 98.5t-32.5 51.5l213 35v-539z" />
    <glyph glyph-name="c" unicode="c" horiz-adv-x="1036" 
d="M612 53q72 0 136.5 20.5t104.5 49.5t69.5 57.5t41.5 49.5l13 20q-42 -115 -155 -186.5t-257 -71.5q-245 0 -367 112t-122 345q0 230 127 343t362 113q109 0 188 -16t123.5 -44.5t67.5 -57.5t35 -66l-117 -68q0 5 -1.5 13.5t-9 33t-19 47t-35 49.5t-53 46.5t-76.5 33
t-103 13.5q-163 0 -240 -103.5t-77 -328.5q0 -202 89 -303t275 -101z" />
    <glyph glyph-name="d" unicode="d" horiz-adv-x="1089" 
d="M799 233v646h-181q-72 0 -125 -10.5t-100.5 -39.5t-77 -78.5t-46.5 -130t-17 -190.5q0 -80 6.5 -138.5t26 -115t53 -91t89.5 -56t134 -21.5q65 0 114 21.5t74.5 56.5t37.5 72t12 75zM967 1249l6 -1114q0 -45 10 -90t29 -45h-213v63q-74 -71 -238 -71q-132 0 -226.5 31
t-149.5 90t-80 136.5t-25 178.5q0 251 111 359t364 108h244v539l213 -35q-20 0 -32.5 -51.5t-12.5 -98.5z" />
    <glyph glyph-name="e" unicode="e" horiz-adv-x="1067" 
d="M565 889q-159 0 -236.5 -99.5t-80.5 -314.5h387q69 0 114.5 11.5t64 32.5t24.5 38.5t6 40.5q0 154 -61.5 222.5t-217.5 68.5zM612 53q58 0 109 11t87 28t66 38t48.5 42.5t31.5 38.5t18 28l5 11q-22 -56 -53 -99.5t-78.5 -81t-118.5 -57.5t-162 -20q-245 0 -367 112
t-122 345q0 230 126.5 343t362.5 113q426 0 426 -305q0 -45 -21.5 -75.5t-62 -45.5t-83 -20.5t-99.5 -5.5h-477q2 -200 91 -300t273 -100z" />
    <glyph glyph-name="f" unicode="f" horiz-adv-x="514" 
d="M477 1126q122 0 211 -41l-67 -98q-22 57 -56 91t-100 34q-155 0 -158 -215h191v-14h-191v-746q0 -137 41 -137h-252q19 0 29 45t10 90l4 600q0 75 17 148h-99v14h101q61 229 319 229z" />
    <glyph glyph-name="g" unicode="g" horiz-adv-x="1107" 
d="M551 893q-301 0 -301 -322q0 -165 73.5 -243t227.5 -78t228.5 79t74.5 242q0 161 -77.5 241.5t-225.5 80.5zM268 199h488q129 0 204.5 -48t75.5 -143q0 -39 -14.5 -75t-51.5 -72t-93.5 -63t-148.5 -43.5t-208 -16.5q-250 0 -356.5 56.5t-106.5 170.5q0 50 44.5 87.5
t101.5 23.5q-26 -11 -35 -62q-15 -83 42 -150q89 -106 310 -106q185 0 271 62.5t86 154.5q0 80 -58.5 112t-183.5 32q-178 -2 -338 -2q-75 0 -109 18.5t-34 61.5q0 70 82 106q-142 85 -142 268q0 167 121.5 250.5t335.5 83.5q118 0 227 -33q26 61 78 96.5t113 35.5
q30 0 71 -13l-26 -78q-21 21 -80 21q-94 0 -135 -68q209 -80 209 -295q0 -166 -117.5 -249.5t-339.5 -83.5q-190 0 -301 57q-33 -22 -33 -57q0 -39 51 -39z" />
    <glyph glyph-name="h" unicode="h" horiz-adv-x="1075" 
d="M786 135l7 570v10q1 24 0 38.5t-11 40t-28.5 40t-57.5 26.5t-94 12q-130 0 -220.5 -67t-90.5 -156v-512q0 -137 39 -137h-252q19 0 29 45t10 90l6 1114q0 47 -12.5 98.5t-32.5 51.5l213 35v-701q34 75 128 123.5t232 48.5q93 0 154 -12t95 -38t47.5 -61t13.5 -87v-570
q0 -137 38 -137h-251q19 0 28.5 45t9.5 90z" />
    <glyph glyph-name="i" unicode="i" horiz-adv-x="409" 
d="M211 1053q-45 0 -77 31t-32 75t32.5 76.5t76.5 32.5t75 -32t31 -77q0 -44 -31 -75t-75 -31zM80 0q19 0 29 45t10 90l6 578q0 47 -12.5 98t-32.5 51l213 35v-760q0 -137 39 -137h-252z" />
    <glyph glyph-name="j" unicode="j" horiz-adv-x="407" 
d="M186 1053q-44 0 -76 32t-32 76t32 75.5t76 31.5t75.5 -31.5t31.5 -75.5t-31.5 -76t-75.5 -32zM80 862l211 35v-840q0 -44 -7.5 -82.5t-30.5 -79t-59.5 -69.5t-99 -47.5t-145.5 -18.5q-86 0 -141.5 37t-55.5 105q30 -105 197 -105q35 0 63.5 12t45.5 28.5t30 44t18.5 48.5
t8.5 53t3.5 45.5t0.5 37.5l4 647q0 48 -11.5 98.5t-31.5 50.5z" />
    <glyph glyph-name="k" unicode="k" horiz-adv-x="872" 
d="M866 0h-252q19 0 -8 45.5t-63 89.5l-244 311l328 314q52 52 87.5 94.5t16.5 42.5h115q-39 0 -184 -139l-250 -238l305 -383q110 -137 149 -137zM291 137q0 -137 39 -137h-252q19 0 29 45t10 90l6 1114q0 47 -12.5 98.5t-32.5 51.5l213 35v-1297z" />
    <glyph glyph-name="l" unicode="l" horiz-adv-x="407" 
d="M78 0q19 0 29 45t10 90l6 1114q0 47 -12.5 98.5t-32.5 51.5l213 35v-1297q0 -137 39 -137h-252z" />
    <glyph glyph-name="m" unicode="m" horiz-adv-x="1630" 
d="M1554 0h-251q19 0 28.5 45t9.5 90l5 570q0 25 -0.5 38.5t-4 34.5t-10 32t-18.5 25t-30.5 20.5t-45.5 11.5t-63 5q-125 0 -198 -77.5t-73 -182.5v-475q0 -137 41 -137h-254q21 0 30 44t9 91l6 570q0 24 -0.5 38.5t-4 34.5t-10.5 31.5t-19.5 25t-30.5 20.5t-45.5 12
t-63.5 5q-124 0 -196 -76t-72 -186v-473q0 -137 39 -137h-252q19 0 29 45t10 90l6 578q0 47 -12.5 98t-32.5 51l213 35v-170q37 80 117 129t202 49q90 0 149.5 -13t89.5 -38.5t41 -55t11 -71.5q36 79 118 128.5t204 49.5q73 0 126 -9t84.5 -24t50 -39t24.5 -49t6 -59v-588
q0 -137 38 -137z" />
    <glyph glyph-name="n" unicode="n" horiz-adv-x="1075" 
d="M788 135l5 570v16.5v20.5t-2 21t-5 23t-10 21t-16.5 21t-24 17t-33 15t-44 8.5t-56.5 3.5q-129 0 -219 -64.5t-90 -150.5v-520q0 -137 39 -137h-252q19 0 29 45t10 90l6 578q0 47 -12.5 98t-32.5 51l213 35v-164q34 75 128 123.5t230 48.5q93 0 154 -12t95 -38t47.5 -61
t13.5 -87v-570q0 -137 40 -137h-253q21 0 30.5 44.5t9.5 90.5z" />
    <glyph glyph-name="o" unicode="o" horiz-adv-x="1161" 
d="M582 905q236 0 370.5 -115.5t134.5 -340.5q0 -229 -130 -343t-375 -114q-246 0 -376 113t-130 344q0 228 134 342t372 114zM582 8q336 0 336 441q0 220 -86.5 330t-249.5 110q-334 0 -334 -440q0 -226 82 -333.5t252 -107.5z" />
    <glyph glyph-name="p" unicode="p" horiz-adv-x="1114" 
d="M553 8q78 0 134 21.5t89.5 56t53 91t26 115t6.5 138.5q0 110 -17 190.5t-46.5 130t-76.5 78.5t-99.5 39.5t-124.5 10.5h-207v-672q0 -30 18 -64t49.5 -64.5t83 -50.5t111.5 -20zM291 895h268q253 0 364 -108t111 -359q0 -101 -25 -178.5t-79.5 -136.5t-149 -90
t-225.5 -31q-179 0 -264 82v-473q0 -140 39 -140h-252q19 0 29 46t10 92l6 1112q0 47 -12.5 99t-32.5 52z" />
    <glyph glyph-name="q" unicode="q" horiz-adv-x="1114" 
d="M823 207v672h-207q-72 0 -125 -10.5t-100.5 -39.5t-77 -78.5t-46.5 -130t-17 -190.5q0 -80 6.5 -138.5t26 -115t53 -91t89.5 -56t134 -21.5q117 0 190.5 63.5t73.5 135.5zM991 711l4 -1112q0 -46 10 -92t29 -46h-252q41 0 41 140v473q-85 -82 -264 -82q-132 0 -226.5 31
t-149.5 90t-80 136.5t-25 178.5q0 251 111 359t364 108h270l211 -33q-20 0 -31.5 -51.5t-11.5 -99.5z" />
    <glyph glyph-name="r" unicode="r" horiz-adv-x="813" 
d="M592 905q73 0 121.5 -15t72.5 -65l-81 -104q-7 27 -17 48t-29.5 43.5t-53 35t-79.5 12.5q-85 0 -159 -61t-74 -140v-522q0 -137 39 -137h-252q19 0 29 45t10 90l6 578q0 47 -12.5 98t-32.5 51l213 35v-166q75 174 299 174z" />
    <glyph glyph-name="s" unicode="s" horiz-adv-x="1087" 
d="M236 715q0 -66 44 -108.5t114 -63t154.5 -34t169 -28t154.5 -38t114 -72t44 -121.5q0 -86 -43.5 -140t-157.5 -85t-307 -31q-229 0 -342.5 67t-113.5 160l143 111q-2 -7 -4 -18.5t-2.5 -44.5t5.5 -63t26 -66.5t53 -63t93 -44.5t140 -18q191 0 270.5 52.5t79.5 166.5
q0 57 -42.5 93.5t-111 54.5t-151 31t-165 29t-151 41.5t-111 77t-42.5 126.5q0 39 24.5 76t74.5 70t138.5 53t203.5 20q79 0 148 -8.5t110.5 -21t72 -25t42.5 -20.5l12 -9l-39 -116q-2 7 -7 19.5t-29.5 44.5t-59 56t-101 44t-149.5 20q-158 0 -229.5 -42.5t-71.5 -131.5z
" />
    <glyph glyph-name="t" unicode="t" horiz-adv-x="647" 
d="M596 102l16 -10q-20 -48 -74.5 -74t-107.5 -26q-63 0 -108 8t-85 29t-60.5 64.5t-20.5 109.5l-6 680h-111v14h111v39q0 45 -10 90t-29 45l211 55v-229h274v-14h-274v-693q0 -75 22 -117t84 -42q127 0 168 71z" />
    <glyph glyph-name="u" unicode="u" horiz-adv-x="1050" 
d="M971 0h-213v117q-103 -125 -291 -125q-184 0 -266 48t-82 150v523q0 48 -11.5 98.5t-31.5 50.5l213 35l-2 -707q0 -2 -0.5 -17t0 -21t2 -22t5 -24.5t10 -22.5t16 -22t24 -18.5t33 -15.5t44 -9t56.5 -4q139 0 210 70.5t71 181.5v447q0 48 -11.5 98.5t-31.5 50.5l213 35
q-2 -593 -2 -747q0 -48 12 -99t33 -51z" />
    <glyph glyph-name="v" unicode="v" horiz-adv-x="868" 
d="M748 862l90 35l-330 -897h-133l-254 713q-19 48 -50 98.5t-51 50.5l201 35l283 -831l233 647q7 21 13 45.5t10 48t1 39.5t-13 16z" />
    <glyph glyph-name="w" unicode="w" horiz-adv-x="1484" 
d="M1364 862l90 35l-330 -897h-133l-237 668l-246 -668h-133l-254 713q-16 45 -48.5 97t-52.5 52l201 35l283 -831l233 647q-17 47 -48 98t-52 51l201 35l282 -831l234 647q7 21 13.5 45t10 48t0.5 40t-14 16z" />
    <glyph glyph-name="x" unicode="x" horiz-adv-x="866" 
d="M604 0q20 0 -0.5 46t-50.5 89l-176 266l-180 -266q-85 -133 -52 -137h-114q21 0 59.5 44t71.5 91l198 293l-188 287q-33 48 -79 98.5t-66 50.5l190 35l268 -403l148 215q32 47 54 99t1 52l96 33l-282 -422l223 -334q90 -137 131 -137h-252z" />
    <glyph glyph-name="y" unicode="y" horiz-adv-x="884" 
d="M764 862l88 35l-307 -840q-15 -42 -22.5 -61t-26.5 -60.5t-34 -63.5t-41 -53t-52.5 -47t-64 -28t-79.5 -12q-95 0 -156 49.5t-61 128.5q0 53 36 96t91 31q-12 -5 -20 -29t-5.5 -56.5t15.5 -63.5t48 -52.5t87 -21.5q80 0 124.5 34.5t80.5 112.5q-59 10 -111 139l-219 613
q-16 46 -47 97.5t-51 51.5l199 35l278 -815l240 631q7 20 13 45t9.5 48.5t0.5 39.5t-13 16z" />
    <glyph glyph-name="z" unicode="z" horiz-adv-x="868" 
d="M373 25q113 0 199 18t130 41.5t72 54.5t34.5 46.5t8.5 29.5l-26 -215h-762q6 0 13.5 3t15.5 10t14.5 13.5t15.5 17.5t15 18.5t15.5 21t13.5 19.5t12.5 19t9.5 15l452 733h-100q-113 0 -199.5 -18t-130 -41t-72 -53.5t-35 -46.5t-8.5 -29l27 213h698l-460 -760
q-46 -79 -52 -110h99z" />
    <glyph glyph-name="braceleft" unicode="{" horiz-adv-x="460" 
d="M268 817q0 -60 -71 -100q31 -16 51 -42.5t20 -58.5v-602h76v-14h-160v608q0 36 -20 65t-53 44q73 41 73 110v607h160v-17h-76v-600z" />
    <glyph glyph-name="bar" unicode="|" horiz-adv-x="405" 
d="M123 0q35 0 35 137v1147q0 150 -35 150h158q-17 0 -28 -52.5t-11 -99.5l6 -1147q0 -43 8 -89t25 -46h-158z" />
    <glyph glyph-name="braceright" unicode="}" horiz-adv-x="460" 
d="M276 827q0 -70 72 -110q-33 -15 -52.5 -44t-19.5 -65v-608h-161v14h75v602q0 32 20.5 58.5t53.5 42.5q-74 40 -74 100v600h-75v17h161v-607z" />
    <glyph glyph-name="asciitilde" unicode="~" horiz-adv-x="788" 
d="M567 707q25 -7 45 -7q74 0 103 62q-44 -141 -129 -141q-21 0 -33 4q-187 55 -328 92q-27 8 -57 8q-63 0 -96 -59q15 52 74.5 96.5t119.5 30.5q38 -10 301 -86z" />
    <glyph glyph-name="exclamdown" unicode="&#xa1;" horiz-adv-x="489" 
d="M229 1077h25q43 -1048 78 -1048h-168q11 0 27.5 262t26.5 524zM244 1407q54 0 92.5 -38t38.5 -93q0 -54 -38 -92.5t-93 -38.5q-54 0 -92.5 38.5t-38.5 92.5t38.5 92.5t92.5 38.5z" />
    <glyph glyph-name="cent" unicode="&#xa2;" horiz-adv-x="1112" 
d="M578 319v830q-152 -5 -225.5 -108t-73.5 -322q0 -366 299 -400zM643 315q72 0 136.5 20.5t104.5 49.5t69.5 57.5t42.5 49.5l12 20q-40 -109 -148.5 -180.5t-245.5 -75.5q1 -83 6.5 -143t13.5 -90t19 -47t18.5 -20t16.5 -3h-190q7 0 14 2.5t19.5 19.5t21.5 46t16.5 89.5
t8.5 143.5q-472 9 -472 457q0 225 122.5 337t349.5 117q0 88 -7 152t-16 95.5t-22 49t-20 20.5t-15 3h190q-74 0 -76 -320q84 -1 150 -12.5t107.5 -28.5t71.5 -42t44.5 -48t24.5 -51l-117 -68q0 5 -1.5 13t-9 31.5t-18 45t-32.5 48t-50.5 46t-72.5 34t-97 16.5v-832
q5 0 15.5 -1t15.5 -1z" />
    <glyph glyph-name="sterling" unicode="&#xa3;" horiz-adv-x="1177" 
d="M606 25q82 0 150 9.5t112.5 23.5t79 34t52.5 37.5t30.5 37t16 30t4.5 18.5l-27 -215h-887q22 0 109 124.5t133 199.5h-275v26h293q125 195 125 268q0 30 -25.5 61t-63.5 56.5t-83 61t-83 72.5t-63.5 93t-25.5 121q0 164 119.5 261.5t347.5 97.5q420 0 420 -277
q0 -106 -67.5 -170.5t-159.5 -64.5q-22 0 -58 8q144 26 144 231q0 26 -2.5 49t-18 62t-41.5 67t-80.5 49t-128.5 21q-164 0 -241.5 -81t-77.5 -244q0 -48 15.5 -92t41 -76.5t57 -64.5t63 -55t60 -48t47.5 -44.5t26 -44t-5 -46.5q-60 -122 -139 -271h303v-26h-316
q-1 -2 -96 -187q-40 -72 -45 -112h260z" />
    <glyph glyph-name="currency" unicode="&#xa4;" horiz-adv-x="1011" 
d="M506 414q115 0 171 74t56 225q0 150 -58.5 224.5t-168.5 74.5q-227 0 -227 -299q0 -153 55.5 -226t171.5 -73zM776 496q79 -64 117 -64q14 0 22 8l-86 -94q26 32 -71 131q-89 -74 -252 -74q-169 0 -252 74q-97 -99 -72 -131l-84 90l-2 4l2 -4q8 -4 17 -4q35 0 118 64
q-71 77 -71 217q0 135 74 215q-84 65 -121 65q-11 0 -17 -6l-2 -2l84 90l2 2l-2 -2q-25 -25 74 -129q91 76 252 76q162 0 250 -76q98 100 73 131l86 -92q-8 8 -20 8q-39 0 -119 -67q74 -77 74 -213q0 -137 -74 -217z" />
    <glyph glyph-name="yen" unicode="&#xa5;" horiz-adv-x="1112" 
d="M944 1434h98q-18 0 -55 -50.5t-63 -99.5l-297 -567v-164h280v-25h-280v-63h280v-25h-280v-303q0 -137 35 -137h-220q18 0 26.5 45.5t8.5 89.5v305h-268v25h268v63h-268v25h270v164l-291 567q-29 51 -65 100.5t-53 49.5h219q-8 0 -10 -7t1.5 -20.5t8.5 -28t14 -33.5
t15.5 -32t15.5 -29l276 -547l289 547q9 16 15.5 29t15.5 32t14 33.5t8.5 28t1.5 20.5t-10 7z" />
    <glyph glyph-name="brokenbar" unicode="&#xa6;" horiz-adv-x="432" 
d="M326 614q-35 0 -35 -149v-227q0 -138 35 -138h-220q18 0 26.5 46t8.5 90l4 227q0 48 -10.5 99.5t-28.5 51.5h220zM291 958q0 -137 35 -137h-220q18 0 26.5 45.5t8.5 89.5l4 228q0 48 -10.5 99.5t-28.5 51.5h220q-35 0 -35 -149v-228z" />
    <glyph glyph-name="section" unicode="&#xa7;" horiz-adv-x="1378" 
d="M309 758q0 -44 18 -78t52.5 -57.5t75.5 -40t98 -28t109 -19.5t117 -16q6 0 9 -0.5t8 -1t9 -1.5q156 15 230.5 67.5t74.5 145.5q0 36 -15.5 65t-49 49.5t-67.5 34.5t-92 25t-99 17.5t-110 15.5q-41 5 -61 8q-307 -18 -307 -186zM889 504q67 -10 116 -20.5t100.5 -29
t83.5 -43t52.5 -61.5t20.5 -84q0 -91 -52.5 -148.5t-190 -90.5t-370.5 -33q-141 0 -248.5 21t-168 56.5t-90 77t-29.5 87.5l149 94q-2 -7 -4 -18.5t-1.5 -45t9 -64t34 -67.5t66.5 -63.5t114 -45t169 -18.5q236 0 348.5 55.5t112.5 172.5q0 66 -51.5 108.5t-134 62t-182 33
t-199 29t-182 41t-134 78.5t-51.5 133q0 79 91 145.5t284 85.5q-66 10 -116 21.5t-101 31.5t-84 45t-53.5 63.5t-20.5 86.5q0 32 15.5 63t53.5 62t95 54.5t147 38t201 14.5q95 0 178 -9t133 -21.5t86.5 -25t50.5 -21.5l15 -9l-45 -121q-3 8 -9 21t-36 46.5t-71.5 59
t-121.5 46.5t-180 21q-379 0 -379 -184q0 -71 52.5 -116.5t136.5 -66.5t186 -34t203.5 -27t185.5 -37t136.5 -72t52.5 -124q0 -107 -84 -169.5t-289 -84.5z" />
    <glyph glyph-name="dieresis" unicode="&#xa8;" horiz-adv-x="591" 
d="M160 1217q35 0 60.5 -26t25.5 -61t-25 -59t-61 -24t-61 24t-25 59t25.5 61t60.5 26zM432 1217q35 0 59.5 -25.5t24.5 -61.5q0 -35 -24.5 -59t-59.5 -24q-37 0 -61.5 24t-24.5 59q0 36 25 61.5t61 25.5z" />
    <glyph glyph-name="copyright" unicode="&#xa9;" horiz-adv-x="993" 
d="M496 352q151 0 257.5 107t106.5 258t-106.5 257.5t-257.5 106.5t-258 -106.5t-107 -257.5t107 -258t258 -107zM494 422q133 0 186 129l25 -53q-52 -86 -211 -86q-61 0 -110.5 17t-88.5 52.5t-60.5 96.5t-21.5 143q0 159 77 233t204 74q148 0 202 -72l-16 -63
q-53 127 -186 127q-97 0 -156 -72t-59 -227t59 -227t156 -72zM496 1108q163 0 277 -114t114 -277t-114 -277t-277 -114q-162 0 -277 114.5t-115 276.5q0 161 115.5 276t276.5 115z" />
    <glyph glyph-name="ordfeminine" unicode="&#xaa;" horiz-adv-x="550" 
d="M158 1159q0 -65 32.5 -90t98.5 -25q49 0 70.5 25.5t21.5 63.5v155h-51q-172 0 -172 -129zM467 1040h-88v27q-31 -31 -96 -31q-40 0 -71 4.5t-61 17t-46.5 38t-16.5 63.5q0 135 217 135h76v33v7v10.5t-1 10.5t-3 11.5t-5.5 10t-9.5 10t-13.5 7.5t-18.5 5.5t-25 1.5
q-86 0 -119 -72l-26 33q47 47 159 47q76 0 104 -27t28 -73v-213q0 -56 16 -56z" />
    <glyph glyph-name="guillemetleft" unicode="&#xab;" horiz-adv-x="731" 
d="M438 907q-6 6 -82.5 -41.5t-149.5 -97.5l-73 -51l193 -128q106 -66 112 -61l-96 -98q6 6 -58 78t-131 140l-67 69l157 167q106 115 99 122zM637 907q-6 6 -82.5 -41.5t-149.5 -97.5l-73 -51l193 -128q107 -67 112 -61l-96 -98q6 6 -58 78t-131 140l-67 69l162 173
q99 109 94 116z" />
    <glyph glyph-name="logicalnot" unicode="&#xac;" horiz-adv-x="839" 
d="M662 805q30 0 62 6.5t32 17.5v-223h-140q2 1 5.5 2.5t12.5 9t16.5 18t14.5 31t9 46.5h-508q-86 0 -86 -21v137q0 -11 29.5 -16.5t56.5 -5.5z" />
    <glyph glyph-name="registered" unicode="&#xae;" horiz-adv-x="790" 
d="M395 453q114 0 194.5 80t80.5 194t-80.5 195.5t-194.5 81.5q-115 0 -195.5 -81.5t-80.5 -195.5t80.5 -194t195.5 -80zM397 662q62 0 84.5 34.5t22.5 98.5q0 80 -28 112.5t-83 32.5h-84v-215q0 -26 20 -44.5t68 -18.5zM395 1024q123 0 210 -87t87 -210t-87 -210t-210 -87
t-210 87t-87 210t87 210t210 87zM477 659l51 -104q18 -41 31 -41h-65q4 0 -0.5 14.5t-10.5 26.5l-51 104q-10 -2 -33 -2q-63 0 -90 27v-129q0 -41 10 -41h-65q4 0 7 15t3 26v344q0 13 -3 29t-7 16h158q74 0 108.5 -36.5t34.5 -112.5q0 -53 -29 -89.5t-86 -46.5h37z" />
    <glyph glyph-name="macron" unicode="&#xaf;" horiz-adv-x="823" 
d="M655 1159q30 0 62.5 7t32.5 18v-137q0 22 -95 22h-495q-86 0 -86 -22v137q0 -11 29 -16t57 -5z" />
    <glyph glyph-name="degree" unicode="&#xb0;" horiz-adv-x="442" 
d="M221 1430q57 0 97 -40.5t40 -97.5t-40 -97t-97 -40t-97 40t-40 97t40 97.5t97 40.5zM221 1186q44 0 75.5 31t31.5 75t-31.5 75.5t-75.5 31.5t-75 -31.5t-31 -75.5t31 -75t75 -31z" />
    <glyph glyph-name="plusminus" unicode="&#xb1;" horiz-adv-x="882" 
d="M188 756q-86 0 -86 -21v137q0 -11 29.5 -16.5t56.5 -5.5h207v197q0 30 -6.5 62t-17.5 32h137q-21 0 -21 -94v-199h197q30 0 62 6.5t32 17.5v-137q0 21 -94 21h-197v-205q0 -86 21 -86h-137q11 0 16.5 29.5t5.5 56.5v205h-205zM688 414q29 0 60.5 6.5t31.5 17.5v-137
q0 21 -92 21h-495q-87 0 -87 -21v137q0 -11 29 -16.5t55 -5.5z" />
    <glyph glyph-name="twosuperior" unicode="&#xb2;" horiz-adv-x="501" 
d="M236 924q44 0 80.5 16t51.5 32l15 15l-10 -82h-281q1 51 28.5 95t65.5 75.5t75.5 61.5t64 65t26.5 72q0 49 -20 75.5t-78 26.5q-36 0 -62.5 -12t-38.5 -29t-18.5 -34t-6.5 -29l-1 -12l-35 55q2 3 6 7.5t18 16.5t31 21t46 16.5t61 7.5q73 0 111 -25.5t38 -88.5
q0 -43 -26.5 -78.5t-65.5 -61t-78.5 -52t-70 -66t-35.5 -88.5h109z" />
    <glyph glyph-name="threesuperior" unicode="&#xb3;" horiz-adv-x="542" 
d="M309 1171q137 -15 137 -127q0 -143 -176 -143q-51 0 -85.5 7t-53 21t-27 28t-14.5 36l41 41q0 -125 139 -125q125 0 125 129q0 70 -41 99.5t-104 29.5v7q63 0 91 22.5t28 79.5q0 102 -99 102q-66 0 -88 -28t-22 -70l-35 33q7 23 17 36.5t42 24t86 10.5q140 0 140 -112
q0 -49 -27 -71.5t-74 -29.5z" />
    <glyph glyph-name="acute" unicode="&#xb4;" horiz-adv-x="247" 
d="M334 1245l61 -84q-179 -41 -327 -121l-11 19q145 68 277 186z" />
    <glyph glyph-name="paragraph" unicode="&#xb6;" horiz-adv-x="944" 
d="M799 342q0 -137 28 -137h-186q15 0 22 45.5t7 89.5l4 737q0 82 -17 129h-104q-10 -33 -10 -129v-735q0 -137 28 -137h-184q13 0 21 47t8 88v215q-132 8 -224 104.5t-92 231.5q0 146 91 241t262 95h374q-28 0 -28 -150v-735z" />
    <glyph glyph-name="periodcentered" unicode="&#xb7;" horiz-adv-x="348" 
d="M174 811q40 0 68 -28t28 -68t-28 -68.5t-68 -28.5t-68 28.5t-28 68.5t28 68t68 28z" />
    <glyph glyph-name="cedilla" unicode="&#xb8;" horiz-adv-x="141" 
d="M72 -86q68 0 112 -17.5t43 -58.5q0 -36 -46.5 -63t-133.5 -27q-166 0 -166 84q0 21 19.5 38t54.5 17q-17 -15 -19 -45t26 -57t87 -27q48 0 81.5 25.5t33.5 56.5q0 35 -25 50.5t-86 15.5v110h37z" />
    <glyph glyph-name="onesuperior" unicode="&#xb9;" horiz-adv-x="264" 
d="M96 905q10 0 10 45l3 348q0 33 -15 33l64 51v-432q0 -45 10 -45h-72z" />
    <glyph glyph-name="ordmasculine" unicode="&#xba;" horiz-adv-x="550" 
d="M272 1384q85 0 133 -53.5t48 -183.5q0 -132 -47 -189t-134 -57q-83 0 -128.5 60.5t-45.5 185.5q0 237 174 237zM272 909q61 0 92 54t31 186q0 129 -31.5 179t-91.5 50q-58 0 -87 -51t-29 -178q0 -131 28.5 -185.5t87.5 -54.5z" />
    <glyph glyph-name="guillemetright" unicode="&#xbb;" horiz-adv-x="731" 
d="M387 1006q-4 -5 60 -77.5t130 -142.5l66 -69l-148 -154q-116 -125 -108 -133l-96 98q4 -5 80.5 42t150.5 97l74 50l-176 119q-121 79 -129 71zM188 1006q-4 -5 60 -77.5t130 -142.5l66 -69l-148 -154q-116 -125 -108 -133l-96 98q4 -5 80.5 42t150.5 97l74 50l-176 119
q-121 79 -129 71z" />
    <glyph glyph-name="onequarter" unicode="&#xbc;" horiz-adv-x="606" 
d="M418 494v280l-195 -287h129q34 0 66 7zM123 684l2 350q0 33 -14 33l63 51v-432q0 -47 10 -47h-71q10 0 10 45zM385 1028h51q-154 -288 -278 -606h-52q165 302 279 606zM500 547l-8 -68h-25v-71q0 -46 12 -46h-73q5 0 8.5 16t3.5 30v71h-215l248 361h16v-328q28 15 33 35
v6v-2v-4z" />
    <glyph glyph-name="onehalf" unicode="&#xbd;" horiz-adv-x="749" 
d="M385 1028h51q-154 -288 -278 -606h-52q165 302 279 606zM125 1034q0 33 -14 33l63 51v-432q0 -47 10 -47h-71q10 0 10 45zM479 383q27 0 52.5 6.5t42 15.5t29.5 18.5t19 16.5l5 6l-11 -84h-278q1 51 27.5 96t64.5 76.5t75.5 61.5t64 65t26.5 72q0 50 -19.5 76.5
t-78.5 26.5q-36 0 -62.5 -12.5t-38.5 -30t-18.5 -34.5t-6.5 -29l-1 -13l-35 57q2 3 6 7.5t18 16.5t31 21.5t46 17t61 7.5q73 0 112 -26t39 -89q0 -37 -19.5 -68t-48.5 -52t-64 -45.5t-66 -47t-53.5 -57t-26.5 -76.5h108z" />
    <glyph glyph-name="threequarters" unicode="&#xbe;" horiz-adv-x="811" 
d="M625 494v280l-197 -287h129q37 0 68 7zM451 758q0 -144 -177 -144q-51 0 -85.5 7t-53 21.5t-27 28.5t-14.5 36l41 43q0 -125 139 -125q125 0 125 129q0 70 -41 99.5t-104 29.5v6q63 0 91 22t28 78q0 103 -99 103q-65 0 -87.5 -28.5t-22.5 -70.5l-35 33q7 24 17 37.5
t42 25t86 11.5q140 0 140 -113q0 -89 -101 -100q138 -15 138 -129zM596 1028h51q-167 -319 -278 -606h-50q168 308 277 606zM707 551l-11 -72h-22v-71q0 -46 12 -46h-74q11 0 11 46l2 71h-215l247 361h17v-328q25 14 33 39v2v-2z" />
    <glyph glyph-name="questiondown" unicode="&#xbf;" horiz-adv-x="1372" 
d="M862 676q64 18 117 18q134 0 213.5 -91.5t79.5 -223.5q0 -148 -155.5 -256t-434.5 -107q-141 1 -243 19.5t-166.5 51.5t-102.5 87t-52 116t-14 148q0 102 32 176.5t83.5 116.5t113.5 72.5t124 54.5t113.5 53t83.5 78.5t32 120.5h35q0 -58 -16 -103t-43 -75.5t-61.5 -56
t-73.5 -48t-77.5 -47t-73 -58.5t-61.5 -76.5t-43 -107t-16 -145.5q0 -186 97 -269t331 -83q84 0 153 16t114.5 40.5t80 59t53.5 67t30.5 69t14.5 60.5t3 46q0 143 -62 213t-156 70q-26 0 -53 -6zM707 1157q-54 0 -93 38t-39 93q0 54 39 92.5t93 38.5q55 0 93 -38.5t38 -92.5
q0 -56 -38 -93.5t-93 -37.5z" />
    <glyph glyph-name="Agrave" unicode="&#xc0;" horiz-adv-x="1122" 
d="M500 1280l-238 -692h475zM1124 0h-219q9 0 11.5 15t-2 37.5t-10 43.5t-11.5 39l-148 428h-491l-145 -428q-6 -18 -11.5 -39t-10.5 -43.5t-3.5 -37.5t10.5 -15h-98q22 0 44.5 44t37.5 93q405 1168 409 1178q-52 119 -79 119h184l450 -1297q49 -137 82 -137zM393 1698
l62 84q130 -119 276 -187l-10 -18q-157 82 -328 121z" />
    <glyph glyph-name="Aacute" unicode="&#xc1;" horiz-adv-x="1122" 
d="M500 1280l-238 -692h475zM1124 0h-219q9 0 11.5 15t-2 37.5t-10 43.5t-11.5 39l-148 428h-491l-145 -428q-6 -18 -11.5 -39t-10.5 -43.5t-3.5 -37.5t10.5 -15h-98q22 0 44.5 44t37.5 93q405 1168 409 1178q-52 119 -79 119h184l450 -1297q49 -137 82 -137zM670 1782
l61 -84q-181 -42 -328 -121l-10 18q143 67 277 187z" />
    <glyph glyph-name="Acircumflex" unicode="&#xc2;" horiz-adv-x="1122" 
d="M500 1280l-238 -692h475zM1124 0h-219q9 0 11.5 15t-2 37.5t-10 43.5t-11.5 39l-148 428h-491l-145 -428q-6 -18 -11.5 -39t-10.5 -43.5t-3.5 -37.5t10.5 -15h-98q22 0 44.5 44t37.5 93q405 1168 409 1178q-52 119 -79 119h184l450 -1297q49 -137 82 -137zM309 1567
l252 188l252 -188l-12 -2l-240 108l-239 -108z" />
    <glyph glyph-name="Atilde" unicode="&#xc3;" horiz-adv-x="1122" 
d="M500 1280l-238 -692h475zM1124 0h-219q9 0 11.5 15t-2 37.5t-10 43.5t-11.5 39l-148 428h-491l-145 -428q-6 -18 -11.5 -39t-10.5 -43.5t-3.5 -37.5t10.5 -15h-98q22 0 44.5 44t37.5 93q405 1168 409 1178q-52 119 -79 119h184l450 -1297q49 -137 82 -137zM709 1649
q26 0 40 1.5t30.5 7t26.5 18.5t17 34q2 -42 -24.5 -82.5t-91.5 -44.5q-6 0 -17 -1t-16 -1q-60 0 -137.5 30.5t-139.5 30.5q-74 0 -98 -77q0 5 0.5 13.5t7 31.5t19 40.5t41 34t67.5 19.5h21q51 0 132.5 -27.5t121.5 -27.5z" />
    <glyph glyph-name="Adieresis" unicode="&#xc4;" horiz-adv-x="1122" 
d="M500 1280l-238 -692h475zM1124 0h-219q9 0 11.5 15t-2 37.5t-10 43.5t-11.5 39l-148 428h-491l-145 -428q-6 -18 -11.5 -39t-10.5 -43.5t-3.5 -37.5t10.5 -15h-98q22 0 44.5 44t37.5 93q405 1168 409 1178q-52 119 -79 119h184l450 -1297q49 -137 82 -137zM426 1753
q35 0 60.5 -25.5t25.5 -60.5t-25.5 -59.5t-60.5 -24.5t-60.5 24.5t-25.5 59.5t25.5 60.5t60.5 25.5zM698 1753q35 0 59.5 -25.5t24.5 -60.5t-24.5 -59.5t-59.5 -24.5q-37 0 -61.5 24.5t-24.5 59.5q0 36 25 61t61 25z" />
    <glyph glyph-name="Aring" unicode="&#xc5;" horiz-adv-x="1122" 
d="M500 1280l-238 -692h475zM561 1524q50 0 85.5 29.5t35.5 72.5q0 41 -35.5 70.5t-85.5 29.5q-51 0 -86 -29.5t-35 -70.5q0 -43 35 -72.5t86 -29.5zM1124 0h-219q9 0 11.5 15t-2 37.5t-10 43.5t-11.5 39l-148 428h-491l-145 -428q-6 -18 -11.5 -39t-10.5 -43.5t-3.5 -37.5
t10.5 -15h-98q22 0 44.5 44t37.5 93q405 1168 409 1178q-52 119 -79 119h184l450 -1297q49 -137 82 -137zM561 1767q71 0 120.5 -41.5t49.5 -99.5q0 -60 -49.5 -101.5t-120.5 -41.5t-120.5 41.5t-49.5 101.5q0 58 49.5 99.5t120.5 41.5z" />
    <glyph glyph-name="AE" unicode="&#xc6;" horiz-adv-x="1355" 
d="M262 588h238v692zM649 25h217q113 0 199.5 18t130 41.5t72 54.5t35 47t8.5 29l-27 -215h-819q17 0 25 47t8 90l2 426h-246l-145 -428q-6 -18 -11.5 -39t-10.5 -43.5t-3.5 -37.5t10.5 -15h-98q22 0 44.5 44t37.5 93q405 1168 409 1178q-52 119 -79 119h852l26 -213
q-2 13 -9 29.5t-35.5 47t-72.5 53.5t-129.5 40.5t-197.5 17.5h-193v-551h195q52 0 91.5 13.5t59 32t31 37.5t14.5 33l2 13v-272q-1 5 -2.5 14t-14 31t-31.5 39t-58.5 31t-91.5 14h-195v-819z" />
    <glyph glyph-name="Ccedilla" unicode="&#xc7;" horiz-adv-x="1290" 
d="M676 -8l-14 -78q68 0 112 -17.5t43 -58.5q0 -36 -46.5 -63t-133.5 -27q-166 0 -166 84q0 21 19.5 38t54.5 17q-17 -15 -19 -45t26 -57t87 -27q48 0 81.5 25.5t33.5 56.5q0 35 -25 50.5t-86 15.5v88q-98 11 -180.5 42t-154 89t-121.5 139.5t-78.5 196.5t-28.5 256
q0 155 34 278.5t93.5 206t143.5 137.5t180.5 79t209.5 24q166 0 291.5 -44t184.5 -126l-37 -148q-64 151 -178.5 225t-260.5 74q-87 0 -161 -23.5t-139 -77t-110.5 -134t-71.5 -200.5t-26 -271q0 -138 22 -250.5t61 -191t94.5 -134.5t120.5 -85.5t141 -39.5h8q40 -4 61 -4
q148 0 262.5 74.5t178.5 228.5l57 -122q-63 -104 -193 -153.5t-305 -49.5q-45 0 -65 2z" />
    <glyph glyph-name="Egrave" unicode="&#xc8;" horiz-adv-x="991" 
d="M283 25h219q111 0 196 17.5t129 40t72.5 52.5t35.5 47t9 31v2v-2l-24 -213h-822q17 0 26 46.5t9 88.5l4 1149q0 47 -11 98.5t-28 51.5h797l25 -215q0 10 -20 39q-73 109 -272 140q-70 11 -153 11h-192v-551h194q52 0 91.5 13.5t59 32t31.5 37.5t15 33l2 13v-272
q-1 5 -3 14t-14 31t-31 39t-59 31t-92 14h-194v-819zM328 1698l61 84q129 -118 277 -187l-11 -18q-158 82 -327 121z" />
    <glyph glyph-name="Eacute" unicode="&#xc9;" horiz-adv-x="991" 
d="M283 25h219q111 0 196 17.5t129 40t72.5 52.5t35.5 47t9 31v2v-2l-24 -213h-822q17 0 26 46.5t9 88.5l4 1149q0 47 -11 98.5t-28 51.5h797l25 -215q0 10 -20 39q-73 109 -272 140q-70 11 -153 11h-192v-551h194q52 0 91.5 13.5t59 32t31.5 37.5t15 33l2 13v-272
q-1 5 -3 14t-14 31t-31 39t-59 31t-92 14h-194v-819zM604 1782l62 -84q-181 -42 -328 -121l-10 18q141 66 276 187z" />
    <glyph glyph-name="Ecircumflex" unicode="&#xca;" horiz-adv-x="991" 
d="M283 25h219q111 0 196 17.5t129 40t72.5 52.5t35.5 47t9 31v2v-2l-24 -213h-822q17 0 26 46.5t9 88.5l4 1149q0 47 -11 98.5t-28 51.5h797l25 -215q0 10 -20 39q-73 109 -272 140q-70 11 -153 11h-192v-551h194q52 0 91.5 13.5t59 32t31.5 37.5t15 33l2 13v-272
q-1 5 -3 14t-14 31t-31 39t-59 31t-92 14h-194v-819zM244 1567l252 188l252 -188l-13 -2l-239 108l-240 -108z" />
    <glyph glyph-name="Edieresis" unicode="&#xcb;" horiz-adv-x="991" 
d="M283 25h219q111 0 196 17.5t129 40t72.5 52.5t35.5 47t9 31v2v-2l-24 -213h-822q17 0 26 46.5t9 88.5l4 1149q0 47 -11 98.5t-28 51.5h797l25 -215q0 10 -20 39q-73 109 -272 140q-70 11 -153 11h-192v-551h194q52 0 91.5 13.5t59 32t31.5 37.5t15 33l2 13v-272
q-1 5 -3 14t-14 31t-31 39t-59 31t-92 14h-194v-819zM360 1753q35 0 60.5 -25.5t25.5 -60.5t-25.5 -59.5t-60.5 -24.5t-60.5 24.5t-25.5 59.5t25.5 60.5t60.5 25.5zM633 1753q35 0 59.5 -25.5t24.5 -60.5t-24.5 -59.5t-59.5 -24.5q-37 0 -61.5 24.5t-24.5 59.5q0 36 25 61
t61 25z" />
    <glyph glyph-name="Igrave" unicode="&#xcc;" horiz-adv-x="419" 
d="M283 137q0 -137 34 -137h-219q17 0 26 46.5t9 88.5l4 1149q0 47 -11 98.5t-28 51.5h219q-34 0 -34 -150v-1147zM102 1782q129 -118 277 -187l-10 -18q-157 82 -328 121z" />
    <glyph glyph-name="Iacute" unicode="&#xcd;" horiz-adv-x="419" 
d="M283 137q0 -137 34 -137h-219q17 0 26 46.5t9 88.5l4 1149q0 47 -11 98.5t-28 51.5h219q-34 0 -34 -150v-1147zM317 1782l62 -84q-181 -42 -328 -121l-10 18q141 66 276 187z" />
    <glyph glyph-name="Icircumflex" unicode="&#xce;" horiz-adv-x="419" 
d="M283 137q0 -137 34 -137h-219q17 0 26 46.5t9 88.5l4 1149q0 47 -11 98.5t-28 51.5h219q-34 0 -34 -150v-1147zM209 1755l252 -188l-12 -2l-240 108l-240 -108l-12 2z" />
    <glyph glyph-name="Idieresis" unicode="&#xcf;" horiz-adv-x="419" 
d="M283 137q0 -137 34 -137h-219q17 0 26 46.5t9 88.5l4 1149q0 47 -11 98.5t-28 51.5h219q-34 0 -34 -150v-1147zM74 1753q35 0 60.5 -25.5t25.5 -60.5t-25.5 -59.5t-60.5 -24.5t-60.5 24.5t-25.5 59.5t25.5 60.5t60.5 25.5zM346 1753q35 0 59.5 -25.5t24.5 -60.5
t-24.5 -59.5t-59.5 -24.5q-37 0 -61.5 24.5t-24.5 59.5q0 36 25 61t61 25z" />
    <glyph glyph-name="Eth" unicode="&#xd0;" horiz-adv-x="1191" 
d="M285 866l295 -2q30 0 62 7t32 18v-137q0 20 -94 20h-295v-553q0 -36 14 -70t45.5 -67t93.5 -53.5t146 -20.5q73 0 129.5 25.5t94 75.5t62.5 111.5t38.5 145.5t18.5 165.5t5 183.5q0 190 -43.5 350t-128 259t-193.5 99h-282v-557zM84 866h53l2 418q0 47 -11 98.5t-28 51.5
h531q97 0 178 -43t135 -114t91.5 -165.5t54 -194.5t16.5 -204q0 -359 -127 -540t-393 -181q-206 0 -301 88v-80h-185q17 0 26 46.5t9 88.5l2 637h-53q-86 0 -86 -20v137q0 -11 29.5 -17t56.5 -6z" />
    <glyph glyph-name="Ntilde" unicode="&#xd1;" horiz-adv-x="1007" 
d="M809 1434h98q-35 0 -35 -150v-1282h-30l-623 1282q-16 31 -53 88q-4 -62 -4 -88v-1147q0 -137 35 -137h-99q17 0 26 46.5t9 88.5l4 1149q0 47 -11 98.5t-28 51.5h195l551 -1151l4 1001q0 48 -10.5 99t-28.5 51zM651 1649q26 0 40.5 1.5t31 7t26.5 18.5t17 34
q2 -42 -25 -82.5t-92 -44.5q-6 0 -17 -1t-16 -1q-60 0 -137 30.5t-139 30.5q-74 0 -98 -77q0 5 0.5 13.5t7 31.5t19 40.5t41 34t67.5 19.5h20q51 0 132.5 -27.5t121.5 -27.5z" />
    <glyph glyph-name="Ograve" unicode="&#xd2;" horiz-adv-x="1482" 
d="M741 1442q112 0 209.5 -25.5t181.5 -81.5t143.5 -139.5t93.5 -205.5t34 -273t-34 -273.5t-93.5 -206t-143 -140t-181.5 -82t-210 -25.5q-113 0 -209.5 24.5t-180.5 79.5t-143.5 138t-93.5 206.5t-34 278.5t34 278.5t93.5 206t143.5 137.5t180.5 79t209.5 24zM741 12
q86 0 161 24.5t139.5 79.5t110 136t71.5 199.5t26 265.5q0 183 -39.5 321.5t-110 221t-160.5 123t-198 40.5q-87 0 -161 -23.5t-139 -77t-110.5 -134t-71.5 -200.5t-26 -271q0 -150 26 -270t71.5 -200.5t110.5 -134t139 -77t161 -23.5zM635 1782q130 -119 276 -187l-10 -18
q-157 82 -328 121z" />
    <glyph glyph-name="Oacute" unicode="&#xd3;" horiz-adv-x="1482" 
d="M741 1442q112 0 209.5 -25.5t181.5 -81.5t143.5 -139.5t93.5 -205.5t34 -273t-34 -273.5t-93.5 -206t-143 -140t-181.5 -82t-210 -25.5q-113 0 -209.5 24.5t-180.5 79.5t-143.5 138t-93.5 206.5t-34 278.5t34 278.5t93.5 206t143.5 137.5t180.5 79t209.5 24zM741 12
q86 0 161 24.5t139.5 79.5t110 136t71.5 199.5t26 265.5q0 183 -39.5 321.5t-110 221t-160.5 123t-198 40.5q-87 0 -161 -23.5t-139 -77t-110.5 -134t-71.5 -200.5t-26 -271q0 -150 26 -270t71.5 -200.5t110.5 -134t139 -77t161 -23.5zM850 1782l61 -84q-179 -41 -327 -121
l-11 18q143 67 277 187z" />
    <glyph glyph-name="Ocircumflex" unicode="&#xd4;" horiz-adv-x="1482" 
d="M741 12q86 0 161 24.5t139.5 79.5t110 136t71.5 199.5t26 265.5q0 183 -39.5 321.5t-110 221t-160.5 123t-198 40.5q-87 0 -161 -23.5t-139 -77t-110.5 -134t-71.5 -200.5t-26 -271q0 -150 26 -270t71.5 -200.5t110.5 -134t139 -77t161 -23.5zM741 1442
q112 0 209.5 -25.5t181.5 -81.5t143.5 -139.5t93.5 -205.5t34 -273t-34 -273.5t-93.5 -206t-143 -140t-181.5 -82t-210 -25.5q-113 0 -209.5 24.5t-180.5 79.5t-143.5 138t-93.5 206.5t-34 278.5t34 278.5t93.5 206t143.5 137.5t180.5 79t209.5 24zM489 1567l252 188
l252 -188l-12 -2l-240 108l-239 -108z" />
    <glyph glyph-name="Otilde" unicode="&#xd5;" horiz-adv-x="1482" 
d="M741 12q86 0 161 24.5t139.5 79.5t110 136t71.5 199.5t26 265.5q0 183 -39.5 321.5t-110 221t-160.5 123t-198 40.5q-87 0 -161 -23.5t-139 -77t-110.5 -134t-71.5 -200.5t-26 -271q0 -150 26 -270t71.5 -200.5t110.5 -134t139 -77t161 -23.5zM741 1442
q112 0 209.5 -25.5t181.5 -81.5t143.5 -139.5t93.5 -205.5t34 -273t-34 -273.5t-93.5 -206t-143 -140t-181.5 -82t-210 -25.5q-113 0 -209.5 24.5t-180.5 79.5t-143.5 138t-93.5 206.5t-34 278.5t34 278.5t93.5 206t143.5 137.5t180.5 79t209.5 24zM889 1649q26 0 40.5 1.5
t31 7t26.5 18.5t17 34q2 -42 -25 -82.5t-92 -44.5q-6 0 -17 -1t-16 -1q-60 0 -137 30.5t-139 30.5q-37 0 -62.5 -21t-36.5 -56q0 5 0.5 13.5t7 31.5t19 40.5t41 34t67.5 19.5h21q51 0 132.5 -27.5t121.5 -27.5z" />
    <glyph glyph-name="Odieresis" unicode="&#xd6;" horiz-adv-x="1482" 
d="M741 1442q112 0 209.5 -25.5t181.5 -81.5t143.5 -139.5t93.5 -205.5t34 -273t-34 -273.5t-93.5 -206t-143 -140t-181.5 -82t-210 -25.5q-113 0 -209.5 24.5t-180.5 79.5t-143.5 138t-93.5 206.5t-34 278.5t34 278.5t93.5 206t143.5 137.5t180.5 79t209.5 24zM741 12
q86 0 161 24.5t139.5 79.5t110 136t71.5 199.5t26 265.5q0 183 -39.5 321.5t-110 221t-160.5 123t-198 40.5q-87 0 -161 -23.5t-139 -77t-110.5 -134t-71.5 -200.5t-26 -271q0 -150 26 -270t71.5 -200.5t110.5 -134t139 -77t161 -23.5zM606 1753q35 0 60.5 -25.5t25.5 -60.5
t-25.5 -59.5t-60.5 -24.5t-60.5 24.5t-25.5 59.5t25.5 60.5t60.5 25.5zM879 1753q35 0 59.5 -25.5t24.5 -60.5t-24.5 -59.5t-59.5 -24.5q-37 0 -61.5 24.5t-24.5 59.5q0 36 25 61t61 25z" />
    <glyph glyph-name="multiply" unicode="&#xd7;" horiz-adv-x="759" 
d="M584 578q20 -21 48 -40t36 -12l-99 -96q2 2 2.5 5.5t-1 8t-3.5 9t-6 10t-7.5 10t-9 11t-8.5 10.5t-8.5 10t-7.5 8l-141 139l-143 -145q-22 -20 -39.5 -43.5t-8.5 -32.5l-96 96q13 -11 76 45l145 146l-145 145q-60 60 -76 45l96 99q-11 -13 45 -76l148 -148l139 140
q22 22 39.5 49t9.5 35l99 -99q-16 17 -82 -49l-142 -141z" />
    <glyph glyph-name="Oslash" unicode="&#xd8;" horiz-adv-x="1482" 
d="M449 106q1 2 4 9t4 12l518 1182q3 7 9 22.5t9 22.5q-109 69 -252 69q-87 0 -161 -23.5t-139 -77t-110.5 -134t-71.5 -200.5t-26 -271q0 -443 216 -611zM741 12q86 0 161 24.5t139.5 79.5t110 136t71.5 199.5t26 265.5q0 449 -227 618q-6 -14 -14 -28l-516 -1180
q-3 -7 -8.5 -20.5t-8.5 -20.5q113 -74 266 -74zM1044 1384q168 -74 263.5 -240t95.5 -427q0 -151 -34 -273.5t-93.5 -206t-143 -140t-181.5 -82t-210 -25.5q-155 0 -286 49q-42 -106 -52.5 -163.5t-2.5 -67t24 -9.5h-193q72 0 193 254q-162 74 -253 238.5t-91 425.5
q0 155 34 278.5t93.5 206t143.5 137.5t180.5 79t209.5 24q152 0 271 -45q42 105 49 163t-2 66t-23 8h191q-66 0 -183 -250z" />
    <glyph glyph-name="Ugrave" unicode="&#xd9;" horiz-adv-x="1110" 
d="M915 1434h99q-35 0 -35 -150v-981q0 -62 -13.5 -111.5t-34 -81.5t-51.5 -55.5t-59.5 -35.5t-66 -19t-62 -8.5t-55.5 -1.5q-97 0 -169 7.5t-139 29t-109 57t-66.5 94.5t-24.5 139l4 967q0 47 -11 98.5t-28 51.5h219q-34 0 -34 -150v-967q0 -170 80 -236.5t276 -66.5
q84 0 145.5 21.5t93 50.5t50 72.5t22.5 75t4 69.5l4 981q0 48 -10.5 99t-28.5 51zM449 1782q130 -119 276 -187l-10 -18q-157 82 -328 121z" />
    <glyph glyph-name="Uacute" unicode="&#xda;" horiz-adv-x="1110" 
d="M915 1434h99q-35 0 -35 -150v-981q0 -62 -13.5 -111.5t-34 -81.5t-51.5 -55.5t-59.5 -35.5t-66 -19t-62 -8.5t-55.5 -1.5q-97 0 -169 7.5t-139 29t-109 57t-66.5 94.5t-24.5 139l4 967q0 47 -11 98.5t-28 51.5h219q-34 0 -34 -150v-967q0 -170 80 -236.5t276 -66.5
q84 0 145.5 21.5t93 50.5t50 72.5t22.5 75t4 69.5l4 981q0 48 -10.5 99t-28.5 51zM664 1782l61 -84q-181 -42 -328 -121l-10 18q143 67 277 187z" />
    <glyph glyph-name="Ucircumflex" unicode="&#xdb;" horiz-adv-x="1110" 
d="M915 1434h99q-35 0 -35 -150v-981q0 -62 -13.5 -111.5t-34 -81.5t-51.5 -55.5t-59.5 -35.5t-66 -19t-62 -8.5t-55.5 -1.5q-97 0 -169 7.5t-139 29t-109 57t-66.5 94.5t-24.5 139l4 967q0 47 -11 98.5t-28 51.5h219q-34 0 -34 -150v-967q0 -170 80 -236.5t276 -66.5
q84 0 145.5 21.5t93 50.5t50 72.5t22.5 75t4 69.5l4 981q0 48 -10.5 99t-28.5 51zM555 1755l252 -188l-12 -2l-240 108l-240 -108l-12 2z" />
    <glyph glyph-name="Udieresis" unicode="&#xdc;" horiz-adv-x="1110" 
d="M915 1434h99q-35 0 -35 -150v-981q0 -62 -13.5 -111.5t-34 -81.5t-51.5 -55.5t-59.5 -35.5t-66 -19t-62 -8.5t-55.5 -1.5q-97 0 -169 7.5t-139 29t-109 57t-66.5 94.5t-24.5 139l4 967q0 47 -11 98.5t-28 51.5h219q-34 0 -34 -150v-967q0 -170 80 -236.5t276 -66.5
q84 0 145.5 21.5t93 50.5t50 72.5t22.5 75t4 69.5l4 981q0 48 -10.5 99t-28.5 51zM420 1753q35 0 60.5 -25.5t25.5 -60.5t-25.5 -59.5t-60.5 -24.5t-60.5 24.5t-25.5 59.5t25.5 60.5t60.5 25.5zM692 1753q35 0 59.5 -25.5t24.5 -60.5t-24.5 -59.5t-59.5 -24.5
q-37 0 -61.5 24.5t-24.5 59.5q0 36 25 61t61 25z" />
    <glyph glyph-name="Yacute" unicode="&#xdd;" horiz-adv-x="948" 
d="M862 1434h99q-18 0 -56 -51t-63 -99l-297 -567v-580q0 -137 35 -137h-220q18 0 26.5 45.5t8.5 89.5l2 582l-291 567q-29 51 -65 100.5t-53 49.5h219q-8 0 -10 -7t1.5 -20.5t8.5 -28t14 -33.5t15.5 -32t15.5 -29l276 -547l289 547q9 16 15.5 29t15.5 32t14 33.5t8.5 28
t1.5 20.5t-10 7zM582 1782l61 -84q-181 -42 -328 -121l-10 18q143 67 277 187z" />
    <glyph glyph-name="Thorn" unicode="&#xde;" horiz-adv-x="1155" 
d="M592 276q336 0 336 441q0 220 -86.5 330t-249.5 110q-243 0 -309 -235v-416q63 -230 309 -230zM592 1171q237 0 371.5 -114.5t134.5 -339.5q0 -229 -130 -343t-376 -114q-192 0 -309 66v-189q0 -137 34 -137h-219q17 0 26 46.5t9 88.5l4 1149q0 47 -11 98.5t-28 51.5h219
q-34 0 -34 -150v-182q120 69 309 69z" />
    <glyph glyph-name="germandbls" unicode="&#xdf;" horiz-adv-x="1161" 
d="M264 895h262q62 1 107.5 15t72.5 37t43 59t21.5 72.5t5.5 84.5q0 83 -17.5 136t-55 79.5t-81.5 35.5t-112 9q-80 0 -127.5 -10t-74.5 -38t-35.5 -67t-8.5 -108v-305zM662 895q227 -9 325 -110t98 -336q0 -99 -31 -181t-93.5 -144.5t-163 -97t-232.5 -34.5q-119 0 -198 28
v29q77 -41 196 -41q87 0 150.5 23.5t101 61.5t59.5 97.5t29.5 120t7.5 140.5q0 93 -11 163t-34 117.5t-52.5 78.5t-73 47.5t-88 23t-105.5 6.5h-283v-1051h-184q17 0 26 46.5t9 88.5l4 1213q0 40 9 73.5t22 57.5t37 43t46 31.5t57 21t61 13t67.5 7t68 3t70.5 0.5
q186 0 265 -60.5t79 -212.5q0 -227 -239 -266z" />
    <glyph glyph-name="agrave" unicode="&#xe0;" horiz-adv-x="1064" 
d="M541 8q126 -1 181.5 59.5t55.5 159.5l4 381h-127q-92 0 -162.5 -13.5t-132.5 -47t-95.5 -98t-33.5 -158.5q0 -70 17.5 -122t44.5 -82t69.5 -48t83.5 -24t95 -7zM991 0h-215v68q-69 -76 -235 -76q-78 0 -140 6t-128.5 24.5t-111 50t-73.5 86.5t-29 130q0 176 136 256
t397 80h190v80q0 2 0.5 17.5t0 21.5t-2 22.5t-5 25.5t-10 24t-16 23.5t-24 19t-33 16.5t-44.5 10t-56 4q-209 0 -291 -176l-65 80l27 22.5t45 27.5t73.5 31t103.5 21t144 10q98 0 164 -19t99 -55t45.5 -76.5t12.5 -95.5v-522q0 -137 41 -137zM365 1161l61 84
q127 -117 276 -186l-10 -19q-158 82 -327 121z" />
    <glyph glyph-name="aacute" unicode="&#xe1;" horiz-adv-x="1064" 
d="M541 8q126 -1 181.5 59.5t55.5 159.5l4 381h-127q-92 0 -162.5 -13.5t-132.5 -47t-95.5 -98t-33.5 -158.5q0 -70 17.5 -122t44.5 -82t69.5 -48t83.5 -24t95 -7zM991 0h-215v68q-69 -76 -235 -76q-78 0 -140 6t-128.5 24.5t-111 50t-73.5 86.5t-29 130q0 176 136 256
t397 80h190v80q0 2 0.5 17.5t0 21.5t-2 22.5t-5 25.5t-10 24t-16 23.5t-24 19t-33 16.5t-44.5 10t-56 4q-209 0 -291 -176l-65 80l27 22.5t45 27.5t73.5 31t103.5 21t144 10q98 0 164 -19t99 -55t45.5 -76.5t12.5 -95.5v-522q0 -137 41 -137zM641 1245l61 -84
q-179 -41 -327 -121l-10 19q143 67 276 186z" />
    <glyph glyph-name="acircumflex" unicode="&#xe2;" horiz-adv-x="1064" 
d="M541 8q126 -1 181.5 59.5t55.5 159.5l4 381h-127q-92 0 -162.5 -13.5t-132.5 -47t-95.5 -98t-33.5 -158.5q0 -70 17.5 -122t44.5 -82t69.5 -48t83.5 -24t95 -7zM991 0h-215v68q-69 -76 -235 -76q-78 0 -140 6t-128.5 24.5t-111 50t-73.5 86.5t-29 130q0 176 136 256
t397 80h190v80q0 2 0.5 17.5t0 21.5t-2 22.5t-5 25.5t-10 24t-16 23.5t-24 19t-33 16.5t-44.5 10t-56 4q-209 0 -291 -176l-65 80l27 22.5t45 27.5t73.5 31t103.5 21t144 10q98 0 164 -19t99 -55t45.5 -76.5t12.5 -95.5v-522q0 -137 41 -137zM281 1030l251 189l252 -189
l-12 -2l-240 109l-239 -109z" />
    <glyph glyph-name="atilde" unicode="&#xe3;" horiz-adv-x="1064" 
d="M541 8q126 -1 181.5 59.5t55.5 159.5l4 381h-127q-92 0 -162.5 -13.5t-132.5 -47t-95.5 -98t-33.5 -158.5q0 -70 17.5 -122t44.5 -82t69.5 -48t83.5 -24t95 -7zM991 0h-215v68q-69 -76 -235 -76q-78 0 -140 6t-128.5 24.5t-111 50t-73.5 86.5t-29 130q0 176 136 256
t397 80h190v80q0 2 0.5 17.5t0 21.5t-2 22.5t-5 25.5t-10 24t-16 23.5t-24 19t-33 16.5t-44.5 10t-56 4q-209 0 -291 -176l-65 80l27 22.5t45 27.5t73.5 31t103.5 21t144 10q98 0 164 -19t99 -55t45.5 -76.5t12.5 -95.5v-522q0 -137 41 -137zM680 1112q26 0 40.5 1.5t31 7
t26.5 19t17 34.5q2 -42 -25 -82.5t-92 -44.5q-6 0 -17 -1.5t-16 -1.5q-60 0 -137 31t-139 31q-37 0 -62.5 -21.5t-36.5 -56.5q0 5 0.5 13.5t7 31.5t19.5 40.5t41.5 34t67.5 19.5h20q51 0 132.5 -27.5t121.5 -27.5z" />
    <glyph glyph-name="adieresis" unicode="&#xe4;" horiz-adv-x="1064" 
d="M541 8q126 -1 181.5 59.5t55.5 159.5l4 381h-127q-92 0 -162.5 -13.5t-132.5 -47t-95.5 -98t-33.5 -158.5q0 -70 17.5 -122t44.5 -82t69.5 -48t83.5 -24t95 -7zM991 0h-215v68q-69 -76 -235 -76q-78 0 -140 6t-128.5 24.5t-111 50t-73.5 86.5t-29 130q0 176 136 256
t397 80h190v80q0 2 0.5 17.5t0 21.5t-2 22.5t-5 25.5t-10 24t-16 23.5t-24 19t-33 16.5t-44.5 10t-56 4q-209 0 -291 -176l-65 80l27 22.5t45 27.5t73.5 31t103.5 21t144 10q98 0 164 -19t99 -55t45.5 -76.5t12.5 -95.5v-522q0 -137 41 -137zM397 1217q35 0 60.5 -26
t25.5 -61t-25 -59t-61 -24t-61 24t-25 59t25.5 61t60.5 26zM670 1217q35 0 59.5 -25.5t24.5 -61.5q0 -35 -24.5 -59t-59.5 -24q-37 0 -61.5 24t-24.5 59q0 36 25 61.5t61 25.5z" />
    <glyph glyph-name="aring" unicode="&#xe5;" horiz-adv-x="1064" 
d="M541 8q126 -1 181.5 59.5t55.5 159.5l4 381h-127q-92 0 -162.5 -13.5t-132.5 -47t-95.5 -98t-33.5 -158.5q0 -70 17.5 -122t44.5 -82t69.5 -48t83.5 -24t95 -7zM532 987q50 0 85.5 30t35.5 73q0 41 -35.5 70.5t-85.5 29.5q-51 0 -85.5 -29t-34.5 -71q0 -43 34.5 -73
t85.5 -30zM991 0h-215v68q-69 -76 -235 -76q-78 0 -140 6t-128.5 24.5t-111 50t-73.5 86.5t-29 130q0 176 136 256t397 80h190v80q0 2 0.5 17.5t0 21.5t-2 22.5t-5 25.5t-10 24t-16 23.5t-24 19t-33 16.5t-44.5 10t-56 4q-209 0 -291 -176l-65 80l27 22.5t45 27.5t73.5 31
t103.5 21t144 10q98 0 164 -19t99 -55t45.5 -76.5t12.5 -95.5v-522q0 -137 41 -137zM532 1231q71 0 120.5 -41.5t49.5 -99.5q0 -60 -49.5 -102t-120.5 -42t-120.5 42t-49.5 102q0 58 49.5 99.5t120.5 41.5z" />
    <glyph glyph-name="ae" unicode="&#xe6;" horiz-adv-x="1775" 
d="M778 227l4 381h-127q-92 0 -162.5 -13.5t-132.5 -47t-95.5 -98t-33.5 -158.5q0 -70 17.5 -122t44.5 -82t69.5 -48t83.5 -24t95 -7q126 -1 181.5 59.5t55.5 159.5zM1274 889q-160 0 -237.5 -99.5t-80.5 -314.5h387q69 0 114.5 11.5t65 32.5t25.5 38.5t6 40.5
q0 154 -62 222.5t-218 68.5zM1321 53q80 0 147 20.5t105.5 49.5t65.5 57.5t37 49.5l10 20q-22 -56 -53 -99.5t-78.5 -81t-118.5 -57.5t-162 -20q-286 0 -404 151q-61 -87 -142.5 -119t-186.5 -32q-78 0 -140 6t-128.5 25t-111 50.5t-73.5 87t-29 130.5q0 175 136 254.5
t397 79.5h190v80q0 2 0.5 17.5t0 21.5t-2 22.5t-5 25.5t-10 24t-16 23.5t-24 19t-33 16.5t-44.5 10t-56 4q-209 0 -291 -176l-65 80l27 22.5t45 27.5t73.5 31t103.5 21t144 10q225 0 291 -106q124 106 354 106q428 0 428 -305q0 -45 -22 -75.5t-62.5 -45.5t-83.5 -20.5
t-100 -5.5h-478q2 -200 91.5 -300t273.5 -100z" />
    <glyph glyph-name="ccedilla" unicode="&#xe7;" horiz-adv-x="1036" 
d="M549 -8l-14 -78q68 0 112 -17.5t43 -58.5q0 -36 -46.5 -63t-133.5 -27q-166 0 -166 84q0 21 19.5 38t54.5 17q-17 -15 -19 -45t26 -57t87 -27q48 0 81.5 25.5t33.5 56.5q0 35 -25 50.5t-86 15.5v88q-440 18 -440 455q0 230 127 343t362 113q109 0 188 -16t123.5 -44.5
t67.5 -57.5t35 -66l-117 -68q0 5 -1.5 13.5t-9 33t-19 47t-35 49.5t-53 46.5t-76.5 33t-103 13.5q-163 0 -240 -103.5t-77 -328.5q0 -202 89 -303t275 -101q72 0 136.5 20.5t104.5 49.5t69.5 57.5t41.5 49.5l13 20q-32 -86 -101 -145.5t-152 -86t-175 -26.5z" />
    <glyph glyph-name="egrave" unicode="&#xe8;" horiz-adv-x="1067" 
d="M565 889q-159 0 -236.5 -99.5t-80.5 -314.5h387q69 0 114.5 11.5t64 32.5t24.5 38.5t6 40.5q0 154 -61.5 222.5t-217.5 68.5zM612 53q58 0 109 11t87 28t66 38t48.5 42.5t31.5 38.5t18 28l5 11q-22 -56 -53 -99.5t-78.5 -81t-118.5 -57.5t-162 -20q-245 0 -367 112
t-122 345q0 230 126.5 343t362.5 113q426 0 426 -305q0 -45 -21.5 -75.5t-62 -45.5t-83 -20.5t-99.5 -5.5h-477q2 -200 91 -300t273 -100zM365 1161l61 84q127 -117 276 -186l-10 -19q-158 82 -327 121z" />
    <glyph glyph-name="eacute" unicode="&#xe9;" horiz-adv-x="1067" 
d="M565 889q-159 0 -236.5 -99.5t-80.5 -314.5h387q69 0 114.5 11.5t64 32.5t24.5 38.5t6 40.5q0 154 -61.5 222.5t-217.5 68.5zM612 53q58 0 109 11t87 28t66 38t48.5 42.5t31.5 38.5t18 28l5 11q-22 -56 -53 -99.5t-78.5 -81t-118.5 -57.5t-162 -20q-245 0 -367 112
t-122 345q0 230 126.5 343t362.5 113q426 0 426 -305q0 -45 -21.5 -75.5t-62 -45.5t-83 -20.5t-99.5 -5.5h-477q2 -200 91 -300t273 -100zM641 1245l61 -84q-179 -41 -327 -121l-10 19q143 67 276 186z" />
    <glyph glyph-name="ecircumflex" unicode="&#xea;" horiz-adv-x="1067" 
d="M565 889q-159 0 -236.5 -99.5t-80.5 -314.5h387q69 0 114.5 11.5t64 32.5t24.5 38.5t6 40.5q0 154 -61.5 222.5t-217.5 68.5zM612 53q58 0 109 11t87 28t66 38t48.5 42.5t31.5 38.5t18 28l5 11q-22 -56 -53 -99.5t-78.5 -81t-118.5 -57.5t-162 -20q-245 0 -367 112
t-122 345q0 230 126.5 343t362.5 113q426 0 426 -305q0 -45 -21.5 -75.5t-62 -45.5t-83 -20.5t-99.5 -5.5h-477q2 -200 91 -300t273 -100zM283 1030l252 189l251 -189l-12 -2l-239 109l-240 -109z" />
    <glyph glyph-name="edieresis" unicode="&#xeb;" horiz-adv-x="1067" 
d="M565 889q-159 0 -236.5 -99.5t-80.5 -314.5h387q69 0 114.5 11.5t64 32.5t24.5 38.5t6 40.5q0 154 -61.5 222.5t-217.5 68.5zM612 53q58 0 109 11t87 28t66 38t48.5 42.5t31.5 38.5t18 28l5 11q-22 -56 -53 -99.5t-78.5 -81t-118.5 -57.5t-162 -20q-245 0 -367 112
t-122 345q0 230 126.5 343t362.5 113q426 0 426 -305q0 -45 -21.5 -75.5t-62 -45.5t-83 -20.5t-99.5 -5.5h-477q2 -200 91 -300t273 -100zM399 1217q35 0 60.5 -26t25.5 -61t-25 -59t-61 -24t-61 24t-25 59t25.5 61t60.5 26zM672 1217q35 0 59.5 -25.5t24.5 -61.5
q0 -35 -24.5 -59t-59.5 -24q-37 0 -61.5 24t-24.5 59q0 36 25 61.5t61 25.5z" />
    <glyph glyph-name="igrave" unicode="&#xec;" horiz-adv-x="409" 
d="M80 0q19 0 29 45t10 90l6 578q0 47 -12.5 98t-32.5 51l213 35v-760q0 -137 39 -137h-252zM98 1245q126 -116 277 -186l-10 -19q-157 82 -328 121z" />
    <glyph glyph-name="iacute" unicode="&#xed;" horiz-adv-x="409" 
d="M80 0q19 0 29 45t10 90l6 578q0 47 -12.5 98t-32.5 51l213 35v-760q0 -137 39 -137h-252zM311 1245l62 -84q-181 -42 -328 -121l-10 19q143 67 276 186z" />
    </font>
</defs>
</svg>
