<?xml version="1.0" standalone="no"?>
<!DOCTYPE svg PUBLIC "-//W3C//DTD SVG 1.1//EN" "http://www.w3.org/Graphics/SVG/1.1/DTD/svg11.dtd" >
<svg xmlns="http://www.w3.org/2000/svg" xmlns:xlink="http://www.w3.org/1999/xlink" version="1.1">
<metadata>
Created by FontForge 20170731 at Mon Jan 31 19:26:54 2022
 By Aleksey,,,
(c) Hishand Studio. 2022. All Rights Reserved
</metadata>
<defs>
<font id="Alokary-PersonalUse" horiz-adv-x="1907" >
  <font-face 
    font-family="Alokary"
    font-weight="400"
    font-stretch="normal"
    units-per-em="2048"
    panose-1="2 0 6 0 0 0 0 0 0 0"
    ascent="1638"
    descent="-410"
    x-height="1757"
    cap-height="2439"
    bbox="-408 -1432 3858 4108.12"
    underline-thickness="150"
    underline-position="-442"
    unicode-range="U+001D-E026"
  />
<missing-glyph horiz-adv-x="1024" 
 />
    <glyph glyph-name="A_A" unicode="AA" horiz-adv-x="2539" 
d="M2205 0v0l-215 518h-87l217 -523h-334l-215 518h-795l-214 -513h-43l213 513h-373l-216 -518h-43l843 2027l-175 422h334l217 -521l43 104l-175 422h334l1018 -2449h-334zM375 553v0h374l403 968l-187 449zM794 558v0h758l-379 911zM1886 558v0h87l-589 1417l-44 -104z
" />
    <glyph glyph-name="C_C" unicode="CC" horiz-adv-x="3048" 
d="M2793 531v0l255 -80q-41 -51 -88 -98q-176 -175 -399.5 -267.5t-469.5 -92.5q-197 0 -381 60q-184 -60 -381 -60q-246 0 -469.5 92.5t-399.5 267.5q-174 175 -267 398.5t-93 470.5q0 246 93 469.5t267 399.5q176 174 399.5 266.5t469.5 92.5q197 0 381 -59q184 59 381 59
q230 0 441.5 -81.5t382.5 -235.5q-9 -6 -49 -33q-32 -22 -67.5 -46.5t-59.5 -41.5q-197 308 -500 389v0q-73 9 -148 9q-83 0 -163 -11v0v0q-63 -16 -122 -44q191 -80 348 -222q-4 -3 -18.5 -12.5t-34.5 -23.5q-32 -22 -66.5 -45.5t-57.5 -39.5q-114 179 -270 286
q-145 -98 -254 -259.5t-170.5 -370t-61.5 -443.5q0 -236 61.5 -444t170.5 -369.5t254 -260.5q197 135 324 380l256 -80q-42 -51 -89 -98q-170 -170 -385 -262q89 -41 184 -55h1q46 -3 93 -3q39 0 78 2v0q195 27 355.5 157.5t268.5 338.5zM1408 35v0q102 14 196 58
q-213 91 -382 260q-175 175 -267.5 398.5t-92.5 470.5q0 246 92.5 469.5t267.5 399.5q172 170 389 262q-65 31 -133 48v0q-73 9 -149 9q-82 0 -162 -11v0v0q-203 -54 -362 -220t-252 -414t-93 -540q0 -309 103 -567.5t278 -423t395 -198.5v0q46 -3 93 -3q40 0 79 2v0z" />
    <glyph glyph-name="C_H" unicode="CH" horiz-adv-x="3074" 
d="M2031 531v0l255 -80q-41 -51 -88 -98q-176 -175 -399.5 -267.5t-469.5 -92.5q-247 0 -470 92.5t-399 267.5q-175 175 -267.5 398.5t-92.5 470.5q0 246 92.5 469.5t267.5 399.5q176 174 399 266.5t470 92.5q230 0 441.5 -81.5t382.5 -235.5q-5 -3 -9 -6l-26 -18
q-36 -25 -74 -51q-34 -23 -67 -46q-197 308 -500 389v0q-73 9 -148 9q-83 0 -163 -11v0v0q-203 -54 -362 -220t-252 -414t-93 -540q0 -309 103.5 -567.5t278 -423t394.5 -198.5v0q47 -3 94 -3q39 0 78 2v0q195 27 355.5 157.5t268.5 338.5zM2766 2437v0h308v-2442h-308v1201
h-1291v-861h-309v1751h309v-850h1291v1201z" />
    <glyph glyph-name="E_R" unicode="ER" horiz-adv-x="3803" 
d="M3173 1189v0l630 -1189h-349l-631 1189l-442 -3v-1178h-309v1178h-1663v-1142h423h-3h-8h565h-8h11h-3q90 2 156.5 4t112.5 4.5t75.5 5t45.5 4t22 3l6 1.5v-62h-1704v2443h1704v-62l-6 1.5t-22 3.5t-45.5 4t-75.5 4.5t-112.5 4.5t-156.5 4h-565h-412v-1181h1663v1225
h1099q174 0 317 -85.5t228.5 -228.5t85.5 -317q0 -156 -69.5 -288t-188 -220t-269.5 -114q-50 -8 -102 -9v0zM2968 1229v0q29 2 74 11q50 11 111 42t122 92v0q77 89 120.5 202t43.5 240q0 193 -97 350t-259 245h-135h-567v-1182h421h146h20z" />
    <glyph glyph-name="L_A" unicode="LA" horiz-adv-x="3009" 
d="M1991 2436v0l1018 -2448h-334l-215 518h-1213v0l-148 -357h-43l776 1866v0l-175 421h334zM1264 546v0h1179l-589 1417zM1389 31v0h-2q90 2 156 4t112.5 4.5t75.5 4.5t45 4t22 3.5l6 1.5v-22v-21v-19h-1395v0h-309v2443h309v-2403h424h-12h566h-8h10z" />
    <glyph glyph-name="O_O" unicode="OO" horiz-adv-x="3858" 
d="M3498 2081v0q175 -176 267.5 -399t92.5 -470q0 -246 -92.5 -469.5t-267.5 -399.5q-176 -174 -399.5 -267t-469.5 -93q-350 0 -650 186q-300 -186 -650 -186q-246 0 -469.5 93t-399.5 267q-175 176 -267.5 399.5t-92.5 469.5q0 247 92.5 470t267.5 399
q176 175 399.5 267.5t469.5 92.5q350 0 650 -185q300 185 650 185q246 0 469.5 -92.5t399.5 -267.5zM1976 2005v0q-102 -159 -159 -360.5t-57 -428.5t57 -429t159 -361q102 159 159 361t57 429t-57 428.5t-159 360.5zM1408 26v0v0q250 36 441 237q-46 38 -89 80
q-174 176 -267 399.5t-93 469.5q0 247 93 470t267 399q45 44 92 84q-163 173 -374 227v0q-73 9 -149 9q-82 0 -162 -11v0v0q-203 -54 -362 -220t-252 -414t-93 -540q0 -309 103 -567.5t278 -423t395 -198.5v0q46 -4 93 -4q40 0 79 3zM2708 26v0v0q222 32 398.5 195.5
t281 423.5t104.5 571q0 294 -94 543t-254.5 415t-365.5 218v0q-73 9 -149 9q-82 0 -162 -11v0v0q-205 -54 -364 -222q49 -41 95 -87q175 -176 267.5 -399t92.5 -470q0 -246 -92.5 -469.5t-267.5 -399.5q-44 -44 -92 -83q186 -194 430 -233v0q46 -4 93 -4q40 0 79 3z" />
    <glyph glyph-name="b_k" unicode="bk" horiz-adv-x="3692" 
d="M2673 1214v0l1019 -1208h-403l-827 980q-84 -100 -118 -146v-836h-309v523q-149 -143 -314 -269q-152 -114 -323.5 -178.5t-363.5 -58.5q-178 8 -337.5 81t-288.5 195v-293h-64h-105h-97.5h-41.5v384v772v797.5v489.5h308v-937q143 141 329.5 206.5t385.5 44.5
q243 -29 428 -170.5t280 -354.5t69 -456q-17 -176 -126 -314q-96 -111 -223 -185q-149 -88 -316 -140v0v0v0v0q57 37 102 87q14 17 26 36q13 20 28 38v0q80 128 116.5 275t37.5 297q6 273 -110 521q-34 72 -82.5 136t-116.5 108q-137 81 -290.5 73t-295 -79t-242.5 -181
v-1101q31 -24 60 -51q38 -36 81 -67q83 -60 177 -102q170 -73 355 -71t355 75q171 76 319 196.5t280 250.5v1865h309v-1542q247 319 564 569q98 77 209 142.5t231.5 106.5t247.5 41v0v0v0v-205q-165 20 -328 -13q-157 -28 -299 -100q-85 -45 -157 -104.5t-139 -127.5z" />
    <glyph glyph-name="g_k" unicode="gk" horiz-adv-x="3769" 
d="M2750 1198v0l1019 -1208h-404l-826 980q-84 -100 -118 -146v-836h-309v562q-128 -97 -260 -170q-246 -134 -496 -177q-124 -19 -219 -19q-111 0 -177 14q-114 6 -220 36q-9 -2 -20 -5q-9 -2 -15.5 -3.5t-8.5 -2.5q-70 -17 -139.5 -39.5t-130.5 -58.5q-115 -69 -149 -166
q-7 -22 -10 -44q-4 -70 28 -121t73 -82q105 -85 251 -110q135 -19 273.5 -4t280.5 45l28 5q131 28 266 46.5t272 8.5q153 -13 278 -76q138 -71 204 -184q83 -152 20 -336q-3 -10 -7 -21q-65 -157 -210 -263q-159 -108 -347.5 -153t-356.5 -58q-135 -15 -290 -15
q-115 0 -236 14t-240 50q-193 61 -336 181q-129 109 -187 244v0q-11 26 -19 51q-49 166 19 332q5 12 10 23q83 170 252 237q-73 83 -65 190q1 16 5 33q4 57 25 112q17 42 42 79q40 59 92.5 106.5t111.5 87.5q-64 39 -120 88q-126 112 -193 254t-67 299t67 299.5t193 253.5
q127 111 287.5 169.5t337.5 58.5q266 0 491 -130l-4 12v0v0l75 23l447 135l28 -84v0v0v0q-57 9 -156 -10t-178 -41l-181 -54q55 -36 104 -79q126 -111 193 -253.5t67 -299.5q0 -231 -144 -428q-89 -95 -186.5 -152.5t-186.5 -85.5v-1v0q-5 -2 -16.5 -5.5t-25.5 -7.5h-1v0
q-23 -7 -37 -10h-1h-1q-61 -13 -100.5 -18.5t-45.5 -5.5v0q109 45 194 148.5t133.5 249.5t48.5 317q0 193 -62 354.5t-167.5 263t-237.5 121.5h-1q-24 1 -49 1q-23 0 -47 -1v0v0q-132 -19 -237.5 -121t-168 -263.5t-62.5 -354.5q0 -174 50.5 -323t138.5 -252.5t201 -145.5
q11 -3 21 -7v0h1q14 -4 47 -10q6 -2 13 -3q58 -11 156.5 -13.5t229.5 18.5q145 22 339.5 103.5t420.5 254.5v1830h309v-1542q35 45 90 110q103 121 212 229q188 186 368 308q227 153 430 196q78 17 152 17v0v0v0v-206l-69 5t-181 -6t-246 -56t-269 -141q-86 -75 -157 -146v0
q-1 0 -1 -1zM31 -719v0v-8q0 -62 19 -124q49 -150 185 -268.5t331 -181.5q159 -47 320.5 -57t307.5 0v0q102 21 201 52t190 82q82 45 149 108.5t109 146.5q13 26 22 53q54 152 -10 300q-82 159 -249 224q-99 37 -203 37q-97 -16 -191 -36h-3l-28 -6q-145 -30 -286.5 -45.5
t-281.5 5.5q-171 28 -290 134q-92 -32 -159 -99t-102 -156q-30 -77 -31 -161z" />
    <glyph glyph-name="o_k" unicode="ok" horiz-adv-x="3664" 
d="M2645 1214v0l1019 -1208h-403l-827 980q-33 -39 -58 -70l3 -3q-33 -35 -63 -73v-836h-309v537q-129 -116 -270 -219.5t-295 -184.5q-118 -62 -248.5 -103t-265.5 -32q-275 27 -484.5 196.5t-290.5 435.5q-73 268 13 524t306 425q227 165 501 172.5t509 -143.5
q240 -165 338 -429t23 -545v0q-5 -10 -8 -22q-2 -7 -4 -13v-0.5v-0.5q-52 -113 -149.5 -196.5t-202.5 -145.5q-93 -55 -189 -100q-26 -13 -53 -26v0q-4 -2 -8 -3q118 100 183 242t87 300t11 306q-8 124 -43 254t-103.5 242t-177.5 184q-143 89 -302 37q-84 -32 -148 -95
t-109 -140q-105 -180 -133.5 -390t6.5 -413q19 -118 67.5 -243t131.5 -223t207 -137v0q4 -2 9 -3h1v0h-1h1v0q13 0 28 -5q11 -3 21 -4h1q70 -6 141 10.5t136 40.5q113 41 217 99q149 82 285.5 184.5t261.5 217.5v1852h309v-1542q247 319 564 569q98 77 209 142.5
t231.5 106.5t248.5 41v0v0v0v-205q-166 20 -329 -13q-157 -28 -299 -100q-85 -45 -157 -104.5t-139 -127.5z" />
    <glyph glyph-name="p_k" unicode="pk" horiz-adv-x="3693" 
d="M2674 1214v0l1019 -1208h-404l-826 980q-84 -100 -118 -146v-836h-309v523q-150 -143 -315 -269q-151 -114 -322.5 -178.5t-363.5 -58.5q-178 8 -337.5 81t-288.5 195v-1151h-309v660.5v1134.5v828h309v0v0v-258q143 140 329 205.5t386 45.5q243 -30 428 -171.5t280 -354
t68 -456.5q-17 -176 -126 -314q-95 -110 -222 -184q-150 -89 -316 -141v0v0v0v0q56 37 101 87q15 17 27 36q12 21 28 38v0q79 128 116 275t38 297q5 274 -110 521q-34 72 -82.5 136.5t-116.5 107.5q-137 81 -291 73t-295.5 -79t-241.5 -181v-1100q30 -25 59 -51
q39 -36 82 -68q83 -60 176 -101q170 -74 355.5 -72t355.5 75q171 77 319 197t280 251v1864h309v-1542q247 320 564 570q98 76 208.5 142t231.5 107t248 41v0v0v0v-206q-165 20 -328 -12q-157 -29 -299 -101q-85 -44 -157 -104t-139 -128z" />
    <glyph glyph-name=".notdef" horiz-adv-x="1024" 
 />
    <glyph glyph-name=".notdef" horiz-adv-x="1024" 
 />
    <glyph glyph-name=".null" horiz-adv-x="0" 
 />
    <glyph glyph-name="nonmarkingreturn" horiz-adv-x="682" 
 />
    <glyph glyph-name="space" unicode=" " horiz-adv-x="508" 
 />
    <glyph glyph-name="space" unicode="&#xa0;" horiz-adv-x="508" 
 />
    <glyph glyph-name="exclam" unicode="!" horiz-adv-x="418" 
 />
    <glyph glyph-name="quotedbl" unicode="&#x22;" horiz-adv-x="620" 
 />
    <glyph glyph-name="numbersign" unicode="#" horiz-adv-x="3083" 
 />
    <glyph glyph-name="dollar" unicode="$" horiz-adv-x="1425" 
 />
    <glyph glyph-name="percent" unicode="%" horiz-adv-x="1952" 
 />
    <glyph glyph-name="ampersand" unicode="&#x26;" horiz-adv-x="2104" 
d="M1743 338v0l361 -350h-57l-328 318q-222 -266 -563 -320q-300 -38 -556.5 104t-383.5 417q-116 276 -49.5 559t293.5 479q-13 116 -6.5 239t47 236t130.5 198q135 115 318 130.5t348 -38.5l-13 -39q-146 31 -260.5 -15t-192 -147t-112.5 -237q-50 -205 5.5 -401
t205.5 -343l88 -86q49 -47 98 -95l592 -574q83 168 67.5 353t-128.5 336h247q42 -190 3 -378.5t-154 -345.5zM1688 336v0l-904 877q-222 -152 -279 -414q-41 -220 53.5 -414.5t292.5 -298.5q211 -103 434 -29q233 76 392 262v0q6 9 11 17z" />
    <glyph glyph-name="quotesingle" unicode="'" horiz-adv-x="315" 
 />
    <glyph glyph-name="parenleft" unicode="(" horiz-adv-x="671" 
 />
    <glyph glyph-name="parenright" unicode=")" horiz-adv-x="671" 
 />
    <glyph glyph-name="asterisk" unicode="*" horiz-adv-x="668" 
 />
    <glyph glyph-name="plus" unicode="+" horiz-adv-x="1489" 
 />
    <glyph glyph-name="comma" unicode="," horiz-adv-x="435" 
d="M423 233v0q3 -9 5 -19q7 -29 3 -89v0l-9.5 -50t-46.5 -128q-21 -48 -58 -97v0h-1v0q-38 -51 -97 -97l-24 32q46 48 84 102l2 4q18 23 34.5 58.5t-1.5 61.5q-10 10 -25 13t-32 4q-19 0 -35 4q-65 23 -95 86q-27 65 0 127.5t92 87.5q64 20 122.5 -8.5t81.5 -91.5z" />
    <glyph glyph-name="hyphen" unicode="-" horiz-adv-x="1489" 
 />
    <glyph glyph-name="hyphen" unicode="&#xad;" horiz-adv-x="1489" 
 />
    <glyph glyph-name="period" unicode="." horiz-adv-x="419" 
d="M259 340v0q65 0 112.5 -47t47.5 -112t-47.5 -112t-112.5 -47q-67 0 -113 48t-45 117q4 65 49.5 109t108.5 44z" />
    <glyph glyph-name="slash" unicode="/" horiz-adv-x="1181" 
 />
    <glyph glyph-name="zero" unicode="0" horiz-adv-x="1784" 
 />
    <glyph glyph-name="one" unicode="1" horiz-adv-x="2776" 
d="M2753 2891v0l2 -20q6 -68 6 -137v-21v-154v-22v-194v-22v-267v-26v-417v-30v-802v-38v-725q0 -10 -6 -15l-1 -1v0q-5 -5 -14 -5h-2h-3q-109 -3 -219 -1h-39h-10t-10 1h-50h-464h-20h-514h-20h-1349q-8 0 -14.5 6t-6.5 15v14v75v623v31v650v23v112q-4 9 0 18v348v21v387
v21v302v37v20q-1 68 3 136q5 92 23 181l4 20q34 153 101 295v0q4 9 9 18q46 94 107 180q27 38 56 74q6 8 13 15q93 111 207 200q8 7 17 13q108 82 231 142q10 4 19 9q11 5 22 9q106 47 218 75q10 3 20 5q114 27 230 35q11 1 21 1q106 6 212 -5q10 -1 21 -2v0v0q11 -1 21 -3
q85 -11 167 -33q10 -2 20 -5v0q83 -23 163 -57q10 -4 19 -8q71 -31 139 -70q9 -5 18 -11q61 -36 117 -79q9 -6 17 -12q11 -8 22 -17q40 -32 77 -67q7 -7 15 -14q43 -43 83 -89q7 -8 13 -15q38 -45 71 -93l12 -16q32 -47 60 -96q5 -9 9 -18q28 -49 50 -101q5 -9 8 -18
q13 -30 24 -60q9 -24 17 -48q3 -9 6 -19q17 -57 30 -115l4 -20q12 -62 18 -124zM2710 2898v0q-7 59 -19 117h-397q0 -22 -4 -43q6 -1 11 -2l12 -2q24 -4 47 -8t45 -8l146 -26q79 -14 159 -28zM2294 3035v0h393q-12 54 -29 108q-47 -9 -93 -17q-3 0 -6 -1q-46 -8 -93 -16
q-61 -11 -121 -22q-10 -1 -19 -3q-18 -4 -35 -6q3 -22 3 -43zM2365 3111v0l144 26q71 12 143 25q-17 51 -38 100q-20 -7 -39 -14l-56 -20q-53 -20 -107 -39l-92 -34q-8 -3 -17 -6q-13 -6 -26 -10q6 -20 10 -41h3q16 3 31 6q22 3 44 7zM2606 3281v0q-21 48 -46 94
q-5 -2 -9 -5l-8 -4q-46 -27 -93 -54l-86 -50q-44 -25 -88 -51q-4 -2 -9 -6q-7 -5 -15 -9q10 -19 18 -38v0v0q34 12 67 25l94 34q88 32 175 64zM2718 1257v0v388q-26 45 -52 91q-169 292 -337 584l-162 280q-12 21 -25 43q-12 21 -25 43q-2 3 -5 8q-4 6 -8 13
q-19 -10 -38 -18q27 -73 53 -147q18 -47 35 -94q45 -125 91 -250q46 -126 91 -252q102 -278 203 -556q12 -34 24 -67q13 -34 25 -67q65 -1 130 1zM2251 1279v0q157 -20 315 -23q-17 49 -35 98l-36 98q-102 281 -205 563l-86 236q-44 121 -88 243q-27 73 -53 146l-8 20
q-3 10 -7 19q0 2 -1 3q-20 -6 -41 -11q6 -28 10 -56q3 -17 5 -33q23 -127 45 -253q16 -93 33 -186q15 -88 31 -176q37 -213 75 -426q12 -66 23 -131q12 -66 23 -131zM1613 1427v0q14 -5 27 -9q19 112 39 224q37 207 73 414q30 170 60 341l20 110q10 56 19 112q3 14 5 28
q3 12 5 24q-22 4 -42 11q-3 -7 -5 -14q-3 -8 -6 -15l-64 -178q-31 -84 -61 -167l-74 -204q-37 -101 -74 -203q-36 -98 -71 -195q-36 -97 -71 -194q109 -47 220 -85zM1349 1532v0q13 -6 26 -11q6 15 11 30q5 13 10 27q78 216 157 431q72 198 143 395q22 58 43 116
q31 84 61 168q-20 9 -39 19q-4 -7 -8 -13q-4 -8 -8 -15q-92 -159 -183 -318q-54 -92 -107 -184l-110 -190l-44 -76q-79 -138 -159 -277l36 -18q84 -44 171 -84zM1100 1656v0q12 -6 24 -13l29 51q33 58 67 116q81 141 163 282q65 112 130 225l80 138q75 131 151 262
q-19 11 -35 25q-6 -6 -11 -12q-5 -7 -11 -13l-236 -282l-142 -170q-68 -80 -136 -161l-148 -176l-148 -178q114 -39 223 -94zM584 1792v0q141 7 272 -35q26 31 53 63q12 15 25 30q44 52 87 103q104 125 209 249q47 57 95 114q87 104 174 207q32 38 63 75q66 79 131 157
q-15 14 -29 30q-17 -17 -37 -31q-11 -8 -20 -16q-31 -26 -63 -52q-36 -31 -73 -62q-208 -175 -416 -349q-239 -200 -477 -401l-60 -50l-62 -52q62 15 128 20zM62 1593v0q162 110 349 167q34 29 69 58l136 114q158 133 315 265q80 67 159 133l194 164q103 85 205 171
q31 26 61 51q31 26 61 52q16 13 33 27l1 1l2 2l3 3q-13 17 -24 35q-4 -2 -8 -5q-3 -1 -6 -3q-165 -95 -329 -190l-6 -4q-271 -156 -542 -313q-243 -140 -487 -280q-35 -21 -71 -41q-57 -34 -115 -67v-340zM62 2333v0v-377q112 65 225 130q173 100 345 199q82 47 163 94
l190 110q170 98 339 196q93 53 186 107q53 31 106 61q-11 19 -19 39q-1 0 -2 -1q-1 0 -2 -1q-79 -28 -157 -57q-79 -28 -157 -57l-540 -196l-236 -86q-128 -47 -256 -93l-94 -34q-45 -17 -91 -34zM62 2685v0v-330q115 41 230 83q127 47 254 93q129 47 259 94q131 48 261 95
l264 96q56 20 112 41q35 13 71 26l28 10q25 10 49 18q-6 20 -11 41q-60 -11 -120 -21q-33 -6 -66 -11q-117 -21 -233 -42q-82 -14 -163 -28q-227 -40 -453 -80q-88 -16 -175 -31q-92 -16 -185 -32zM62 2723v0v-18q76 14 153 27q94 17 189 33l190 34q229 40 457 80
q189 34 379 67q8 2 16 3l98 18l14 2q9 3 17 4q-3 21 -3 42h-1483q-27 -144 -27 -292zM1680 1532v0l-14 -80q-4 -20 -7 -41q130 -43 264 -74v1327q-21 0 -43 3q-6 -37 -13 -73q-2 -11 -3 -21q-12 -64 -23 -128t-22 -127q-31 -173 -61 -345q-2 -9 -3 -18l-36 -204
q-20 -110 -39 -219zM2231 1281v0q-16 91 -32 181l-32 182q-21 119 -42 237q-16 88 -31 177q-5 25 -9 50q-26 144 -51 288q-9 54 -19 107l-20 114q-2 12 -4 25q-3 13 -5 25v1v0q-21 -4 -43 -4v-1332q143 -32 288 -51zM2113 2735v0q17 10 32 22l16 14q14 12 26 26q8 8 14 16
q12 15 22 31q2 2 3 5l8 14q10 17 17 36q4 9 7 19q6 18 9 37q3 11 4 21q3 19 3 39q1 10 0 20q0 20 -3 39l-4 20q-3 20 -10 38q-3 10 -6 19q-7 19 -17 36q-5 9 -10 19q-10 16 -22 31q-3 3 -6 7q-4 4 -7 8q-13 15 -28 27l-16 14q-16 12 -33 23q-8 5 -17 9q-17 10 -36 17
q-9 4 -19 7q-18 6 -38 10q-10 2 -19 4q-20 3 -40 3q-10 1 -20 0q-20 0 -39 -3q-10 -1 -20 -3q-19 -4 -38 -10q-4 -2 -7 -3q-7 -2 -13 -5q-18 -7 -35 -16q-9 -5 -17 -10q-17 -11 -33 -23l-16 -14q-13 -12 -26 -26q-7 -8 -13 -16q-13 -16 -23 -33q-5 -8 -10 -17
q-9 -18 -17 -36q-3 -9 -7 -19q-6 -19 -10 -38l-4 -20q-3 -19 -3 -39q-1 -5 -1 -10t1 -10q0 -20 3 -39q2 -11 4 -21q4 -19 10 -37q4 -10 7 -19q8 -18 17 -36q5 -8 10 -17q11 -17 23 -32q6 -9 13 -16q13 -15 27 -28q8 -6 16 -13q15 -12 32 -23q8 -5 17 -10q17 -9 36 -17
q9 -3 19 -6q18 -7 38 -11v0h1q9 -2 19 -3q19 -3 39 -4h20q20 1 40 4l20 4q19 4 37 10q10 3 19 7q19 7 36 17zM2495 3482v0h-1v1q-19 -17 -38 -33t-38 -31q-82 -69 -163 -137q-7 -6 -14 -13l-24 -20q13 -16 24 -34h1l4 2q5 3 9 6l26 14q124 72 249 144l20 12q-26 45 -55 89z
M2483 3499v0q-31 45 -66 87q-3 -4 -6 -7t-5 -6q-35 -42 -71 -84q-33 -41 -67 -81l-46 -54q-12 -15 -25 -30q-3 -4 -7 -8q-8 -10 -15 -19q-1 0 -1 -1q-1 0 -1 -1q16 -14 31 -30q27 23 53 45q112 94 224 187zM2404 3601v0q-38 44 -78 84q-2 -3 -3 -5q-4 -6 -7 -12
q-57 -99 -115 -198q-14 -26 -29 -51q-14 -26 -29 -51q-5 -8 -9 -16q-5 -8 -9 -15l-2 -4v0q18 -12 35 -25l2 2q12 15 25 30l112 134q53 64 107 127zM2311 3699v0q-45 42 -93 80q-2 -5 -4 -11q-1 -5 -3 -10q-19 -51 -38 -103q-24 -67 -49 -135q-9 -24 -17 -47q-13 -35 -26 -71
q-3 -9 -7 -18l-6 -18q0 -1 -1 -3q0 -1 -1 -2q20 -8 39 -18l1 1t1 3q11 18 21 36q68 117 135 233q24 42 48 83zM2202 3792v0q-53 41 -110 76q-5 -31 -11 -61q-4 -25 -9 -49l-4 -28l-40 -226l-17 -98q-2 -7 -3 -14t-2 -13q21 -5 41 -11l1 1q0 2 1 3q4 11 8 21q4 11 7 22
q16 43 32 87zM1946 3946v0q-1 1 -3 1v-561q22 0 43 -3q2 14 5 29q2 10 4 19q4 27 9 54q5 28 10 55q8 44 15 87q22 126 45 252q-62 37 -128 67zM1923 3956v0q-75 33 -154 56l10 -56q6 -31 11 -63q39 -221 78 -443q6 -31 11 -62q1 -3 1 -5q22 3 43 3v570zM1748 4018v0
q-88 24 -179 36q9 -25 18 -49l141 -386q22 -62 45 -125l46 -126q20 7 42 12q-2 8 -3 16l-42 238l-38 216zM1547 4057v0q-101 12 -203 9l10 -18q12 -20 23 -40q55 -95 111 -191q63 -109 126 -219q27 -46 54 -93q28 -48 55 -97q17 -27 33 -55q1 -3 3 -6q1 -1 3 -4q18 11 38 19
l-16 44l-16 44q-37 102 -75 205q-36 100 -73 201q-36 100 -73 201zM1206 4054v0q-54 -8 -107 -20l26 -30q11 -14 23 -28q59 -70 118 -141q111 -132 221 -263q78 -93 157 -186q1 -2 3 -4q12 -15 24 -29q12 -15 25 -30q2 -2 4 -5q5 -5 9 -10q16 14 35 25q-4 6 -7 12l-4 6
l-20 36q-11 18 -21 36q-61 105 -122 211t-122 211q-1 2 -2 3q-62 109 -125 217q-58 -3 -115 -11zM1077 4029v0q-119 -28 -231 -78q36 -31 73 -62q229 -192 458 -385q32 -26 63 -52q74 -62 147 -123q32 -27 63 -54q2 -1 6 -4q4 -2 8 -6q13 16 29 29q-5 6 -8 11q-2 3 -4 5
q-15 18 -29 35q-15 17 -30 35q-87 104 -173 207q-91 108 -181 216q-3 2 -5 5q-93 111 -186 221zM825 3942v0q-120 -56 -227 -135q41 -23 81 -47q41 -23 82 -47q3 -1 6 -3q186 -107 371 -215q182 -104 363 -209l108 -62l6 -4q6 -3 11 -6q11 18 24 35v1q-1 0 -2 1q-6 5 -11 10
q-6 4 -11 9q-20 17 -40 33l-40 34q-76 63 -151 127q-159 133 -317 265l-132 112q-61 50 -121 101zM538 3760v0q-87 -73 -161 -158q56 -20 112 -41q3 -1 5 -2l154 -56l154 -56q91 -33 181 -66q96 -34 191 -69l148 -54q80 -29 161 -58q33 -13 67 -25q12 -4 25 -9q2 -1 5 -2
l18 -6q8 20 18 39h-1q-1 1 -2 1l-16 10q-9 5 -17 9l-124 72q-92 53 -185 107q-95 55 -191 110q-87 51 -175 101q-95 55 -189 109q-68 39 -135 78q-22 -17 -43 -34zM364 3586v0q-95 -114 -162 -246l136 -24q83 -14 166 -29q90 -16 179 -31q104 -19 207 -37t207 -36
q89 -16 179 -32l168 -30q27 -4 53 -9q27 -5 54 -9q6 -2 12 -3l16 -2q5 21 12 41l-94 34q-24 9 -49 18q-78 28 -156 57q-83 30 -167 60q-21 8 -43 16l-328 120l-292 106q-45 16 -90 33q-4 1 -8 3v0zM129 3165v0q-21 -64 -36 -130h1479q0 21 3 42q-14 1 -30 6q-9 2 -17 3
q-30 6 -60 11q-29 5 -59 10q-90 16 -181 32l-182 32q-207 37 -415 73q-133 24 -266 47q-31 6 -63 12l-60 10q-24 4 -49 9q-37 -76 -64 -157zM62 779v0v-613q60 72 141 120t171 75q5 2 9 3q1 0 3 1q13 3 27 7q108 25 219.5 29t223.5 1q45 -1 90 -1h21h22q133 0 266 20
q109 17 217 45q10 2 21 5q26 7 52 15q191 55 378 124q10 3 20 7q36 13 73 26q52 19 105 37q101 36 203 73q9 3 19 6q105 38 209 75q75 26 149 53q4 1 8 3q4 1 9 3v0v0v4v320q-58 -2 -116 -2v0q-10 1 -21 1q-162 2 -323 21q-10 2 -20 3q-68 9 -136 20q-80 14 -159 31
q-1 1 -3 1q-8 2 -17 4q-137 32 -271 76q-5 1 -10 3q-5 1 -9 3q-36 12 -71 25q-92 33 -182 72q-9 4 -17 7q-1 1 -2 1q-29 13 -59 27q-72 34 -143 71q-19 9 -37 19q-9 4 -18 9l-44 22q-103 52 -211 86q-11 3 -21 6q-140 42 -289 24q-81 -11 -158 -38q-28 -9 -56 -20
q-139 -59 -263 -144v-77v-26v-632v-31zM2718 37v0v801q-2 6 -3 11q-56 -19 -111 -39q-127 -45 -254 -91q-10 -3 -19 -6q-130 -46 -260 -93q-41 -14 -83 -29q-23 -8 -45 -16q-10 -4 -20 -7q-204 -76 -414 -134l-24 -6q-10 -3 -21 -6q-119 -30 -241 -46q-124 -15 -249 -15h-21
h-27q-36 1 -71 1q-119 4 -237.5 -1.5t-233.5 -38.5q-8 -2 -16 -5q-6 -2 -13 -4q-88 -29 -165 -82t-128 -131v-62q27 1 54 0q17 -1 34 -1h685h21h540h20h507h20h507h20h248zM2558 1963v0q24 -42 48 -83q56 -97 112 -195v389q-23 27 -46 55l-312 372q-75 89 -149 178l-22 26
q-12 13 -23 27l-4 4l-5 5q-16 -13 -34 -24q0 -1 1 -2l17 -30q29 -51 58 -101l4 -6q89 -154 177 -307zM2573 2279v0q38 -46 76 -91q35 -42 69 -83v248q-1 2 -3 3q-19 16 -37 31l-284 238q-34 29 -69 58q-35 30 -70 59q-7 6 -15 12l-28 24l-4 4q-2 1 -4 3q-15 -16 -31 -31
q5 -6 11 -12l4 -6q9 -10 18 -21q20 -23 40 -47q106 -127 213 -254q57 -68 114 -135zM2583 2493v0q68 -57 135 -114v181q-8 5 -16 9q-8 5 -17 11l-130 74q-67 39 -135 78q-65 38 -130 75q-6 4 -12 7q-14 9 -29 17l-4 2l-4 2q-11 -18 -24 -34l5 -5l4 -4q13 -10 25 -21
q13 -11 26 -21q98 -83 196 -165zM2307 2821v0l148 -86q132 -76 263 -152v44q0 22 1 43v59q-54 19 -107 38q-53 20 -106 39q-64 23 -129 47q-24 8 -47 17q-20 7 -41 15q-5 2 -9 3q-6 2 -11 4q-8 -20 -18 -39l4 -2t4 -3q24 -14 48 -27zM2410 2862v0l292 -106q8 -3 17 -6
q-1 15 -1 31q-1 49 -6 97l-94 16q-7 1 -14 3q-15 2 -30 5q-100 18 -200 35l-80 14q-4 1 -7 1v0q-4 -20 -11 -40q10 -4 21 -8l14 -6q49 -18 99 -36z" />
    <glyph glyph-name="two" unicode="2" horiz-adv-x="3288" 
d="M2272 1330v0q-168 -199 -414 -266t-492 19q-235 88 -383 291q-150 213 -152 473q0 64 10 127q43 252 216 433.5t423 236.5q259 50 501 -57q227 -105 359 -319q132 -225 113.5 -479t-181.5 -459zM1490 1089v0q243 -45 463.5 51.5t351.5 306.5q126 213 109 455t-172 436
q-155 185 -386 253q-241 66 -477 -17q-230 -88 -367 -284.5t-141 -442.5q0 -61 9 -121q43 -241 207.5 -412.5t402.5 -224.5zM1664 2791v0q0 -13 -10 -17.5t-20 0t-10 17.5v85v371v233q0 13 10 17t20 0t10 -17v-86v-371v-232zM1450 2837v0q-19 104 -37 208l-44 246
q-1 12 7.5 19t18.5 5.5t13 -14.5l2 -10q5 -28 10 -55q20 -114 40 -227q20 -114 40 -227q1 -13 -7.5 -20t-18.5 -5t-13 14l-6 34q-3 16 -5 32zM1218 2961v0q-18 49 -37 98q-59 158 -114 317q-4 12 4 19t18.5 5.5t15.5 -13.5q55 -160 115 -318l36 -98q4 -12 -4 -18.5t-18.5 -5
t-15.5 13.5zM1246 2882v0q-4 12 4 18.5t18.5 5t16.5 -12.5q16 -42 30 -84l26 -70q4 -12 -4 -18.5t-19 -5t-16 12.5q-13 35 -25 71q-15 42 -31 83zM907 3082v0q-12 15 -18 34q-2 13 6.5 19.5t18.5 5t14 -14.5q5 -15 16 -27q1 -1 1 -2q12 -15 19 -33q3 -12 -4.5 -18.5
t-18.5 -5t-16 13.5t-14 22zM1014 2899v0q-3 5 -5 10q-16 32 -36 61q-7 11 -1 19.5t16.5 9.5t18.5 -9q20 -29 36 -60q3 -7 7 -14q13 -25 29 -49q8 -14 17 -28q24 -42 48 -85l46 -80q6 -11 -0.5 -19.5t-17 -10t-17.5 9.5l-46 80q-23 43 -48 85q-8 14 -17 28q-16 25 -30 52z
M652 2999v0q-2 3 -4 5q-31 42 -67 80q-9 9 -5.5 19t13.5 13.5t20 -4.5q38 -38 69 -82q29 -37 60 -72q4 -5 8 -9q76 -88 150 -179q7 -10 3 -20t-13.5 -13.5t-18.5 5.5q-73 90 -149 178q-5 6 -10 11q-29 34 -56 68zM1052 2584v0q8 -10 4 -20t-13.5 -13.5t-18.5 5.5
q-24 26 -45 54q-27 35 -57 66q-8 10 -4 20t13.5 13.5t19.5 -4.5q30 -32 56 -67q22 -28 45 -54zM507 2776v0q-10 8 -8.5 18.5t10 16.5t18.5 -1q21 -15 40 -33t39 -33q10 -8 8.5 -19t-9.5 -16.5t-19 1.5q-20 15 -39 32q-19 18 -40 34zM936 2468v0q9 -9 5.5 -18.5t-13.5 -13.5
t-21 4q-70 59 -141 118l-114 96q-9 8 -5.5 17.5t13.5 14t21 -3.5q127 -107 255 -214zM220 2646v0q-10 8 -9 18.5t9.5 16.5t19.5 0q107 -64 215 -124q43 -24 84 -50q63 -40 129 -73q11 -6 10 -16t-10 -16.5t-21 -1.5q-66 33 -128 73q-41 25 -84 49q-108 60 -215 124z
M837 2336v0q10 -8 8.5 -19t-9.5 -16.5t-19 1.5q-34 23 -71 42q-14 7 -28 15q-11 7 -10 17.5t10 16.5t20 0q14 -7 29 -15q37 -18 70 -42zM763 2189v0q12 -5 13.5 -15.5t-5 -18.5t-19.5 -4q-15 5 -31 11t-31 11q-217 79 -433 158q-12 5 -13.5 16t5 18.5t18.5 4.5
q32 -12 63 -23q108 -40 216 -79q109 -39 217 -79zM31 2112v0q-12 2 -14 12.5t5 19t20 6.5q20 -3 40 -7l44 -8t45 -8l320 -56q115 -20 229 -41q13 -3 14.5 -13t-5 -18.5t-19.5 -6.5q-42 7 -84 15l-366 64l-114 20q-58 10 -115 21zM701 1867v0q13 0 17 -10t0 -20t-17 -10h-67
h-461q-13 0 -17 10t0 20t17 10h67h461zM280 1627v0q13 1 17 -8.5t-0.5 -19.5t-16.5 -12q-60 -8 -120 -21q-61 -14 -124 -22q-12 -1 -16.5 8t0 19.5t16.5 12.5q63 8 124 22q60 13 120 21zM352 1640v0q4 0 9 1q174 30 349 62q13 1 19.5 -7.5t5 -18.5t-14.5 -13
q-174 -31 -349 -61l-8 -2q-13 -1 -20 7.5t-5.5 18.5t14.5 13zM267 1325v0q-12 -4 -18.5 4t-5 18.5t13.5 16.5l22 8l40 14q217 79 433 158q13 4 19.5 -4t5 -19t-13.5 -16q-16 -5 -31 -11q-16 -6 -32 -11q-108 -40 -216 -79q-108 -40 -217 -79zM463 1188v0q11 6 20 -0.5
t10 -16.5t-10 -17q-93 -52 -184 -106q-29 -17 -59 -34q-11 -6 -19.5 0t-9.5 16.5t9 17.5l58 34q92 55 185 106zM559 1198v0q-11 -7 -19.5 -1t-10 17t9.5 18q68 44 140 81q71 37 138 80q11 6 19.5 0t10 -16.5t-9.5 -18.5q-67 -42 -138 -79q-72 -38 -140 -81zM793 1159v0
q10 8 20 4t13.5 -13.5t-5.5 -18.5q-113 -100 -230 -194q-30 -25 -59 -49q-11 -8 -21 -4t-13.5 13.5t5.5 18.5q30 24 60 49q117 94 230 194zM895 1193v0q-6 -6 -14 -6t-14 6t-6 14t6 14q12 10 24 21q8 6 16 13q7 5 14.5 5.5t14.5 -5.5q5 -6 5.5 -14.5t-5.5 -13.5
q-10 -9 -21 -17q-10 -9 -20 -17zM721 778v0q8 9 17.5 5.5t13.5 -13.5t-3 -20q-43 -55 -88 -106q-26 -31 -52 -61q-9 -10 -18.5 -6.5t-13.5 14t4 20.5q25 31 52 61q45 52 88 106zM1052 1111v0q-26 -33 -53 -64q-36 -42 -70 -85q-32 -39 -66 -77q-30 -34 -59 -70
q-9 -9 -18.5 -5.5t-13.5 13.5t4 20q29 36 59 70q34 38 65 78l70 84l54 64q8 9 17.5 5.5t13.5 -13.5t-3 -20zM1190 1020v0q-15 -25 -30 -51l-4 -6q-89 -156 -179 -312q-26 -44 -51 -88q-7 -10 -17.5 -9t-16.5 9.5t-1 20.5q9 14 17 28q8 15 17 29q57 100 115 200t115 199
q7 11 17.5 10t17 -9.5t0.5 -20.5zM1302 966v0q5 12 16 13.5t18.5 -5t4.5 -18.5q-15 -41 -29 -81q-64 -174 -127 -348l-40 -110q-20 -54 -40 -109q-5 -12 -16 -13.5t-18.5 5t-3.5 19.5q14 40 29 80q63 174 127 349q39 109 79 218zM1461 924v0q3 12 13 13.5t18.5 -5t7.5 -19.5
l-4 -22l-8 -44q-20 -113 -40 -227q-20 -113 -40 -227q-3 -12 -13 -13.5t-18.5 5t-7.5 19.5q3 17 6 33t6 33q20 110 39 221q21 116 41 233zM1624 712v0q1 13 10.5 17t19 0t10.5 -17q2 -249 0 -497q-1 -13 -10.5 -17.5t-19 0t-10.5 17.5q2 248 0 497zM1664 783v0
q-1 -13 -11 -17t-19.5 0t-9.5 17q2 61 0 121q0 13 9.5 17t19.5 0t11 -17q2 -60 0 -121zM1887 586v0q7 -44 15 -88q9 -47 17 -94q1 -13 -7.5 -19.5t-18.5 -5t-13 13.5l-16 94q-8 45 -16 89q-1 13 7.5 19.5t18.5 5t13 -14.5zM1875 652v0q1 -13 -8.5 -17.5t-19.5 0t-12 17.5
q-5 36 -12 72q-7 33 -11 67q-5 29 -12 57q-9 35 -12 70q0 13 9 17.5t19 0t12 -17.5q3 -28 11 -55q1 -6 3 -11q6 -27 9 -53q0 -5 1 -9q4 -32 11 -64q7 -37 12 -74zM2142 537v0l80 -218q3 -13 -4.5 -19.5t-18.5 -5t-16 13.5q-6 18 -13 36l-16 44t-16 45q-56 152 -111 304
l-62 170q-9 24 -17 49q-4 12 3.5 18.5t18.5 5t16 -13.5q7 -19 14 -39q8 -20 15 -41l64 -174q31 -88 63 -175zM2166 983v0q116 -200 231 -399q6 -12 -0.5 -20.5t-17 -9.5t-17.5 9q-11 21 -23 41q-5 8 -10 17q-115 200 -230 399q-6 12 0 20.5t16.5 9.5t17.5 -10q12 -21 25 -43
zM2558 789v0l150 -178q7 -10 3 -20.5t-13.5 -14t-18.5 6.5q-25 29 -49 59l-6 6q-59 71 -119 142q-59 71 -119 142q-75 89 -150 179q-7 10 -3 20t13.5 13.5t18.5 -5.5q27 -33 55 -66q59 -71 119 -142q59 -71 119 -142zM2785 916v0q9 -9 5.5 -18.5t-13.5 -13.5t-20 4
q-46 38 -91 76q-81 69 -162 136q-10 9 -6.5 18.5t14 13.5t20.5 -4q81 -67 162 -135q45 -39 91 -77zM2381 1255v0q35 -29 69 -58q6 -5 11 -9q10 -9 6.5 -18.5t-14 -13.5t-20.5 3q-23 19 -45 38q-18 15 -35 30q-10 9 -6.5 18.5t14 13.5t20.5 -4zM3068 1048v0q11 -7 9.5 -17.5
t-10 -16.5t-19.5 0q-144 87 -291 168q-11 6 -9.5 16.5t10 17t19.5 0.5q148 -81 291 -168zM2629 1255v0q-14 8 -27 17t-27 17q-20 11 -39 21q-44 22 -85 48q-10 8 -9 19t9.5 16.5t19.5 -0.5q41 -26 85 -48q20 -10 39 -21q14 -8 27 -17t27 -17q8 -5 16 -9q20 -10 39 -23
q10 -7 9 -18t-9.5 -17t-19.5 1q-19 12 -39 23zM3021 1325v0q-31 11 -63 23q-216 79 -433 157q-12 5 -13.5 16t5.5 19t19 4q19 -7 37 -14q13 -4 25 -9q115 -41 229 -83q103 -37 205 -74q11 -6 12.5 -16.5t-5 -18.5t-18.5 -4zM3257 1583v0q13 -2 14.5 -12t-5.5 -19t-19 -7
q-94 14 -187 33q-96 19 -192 33q-13 3 -14.5 12.5t5.5 18.5t20 8q96 -14 191 -34q93 -19 187 -33zM2807 1662v0q13 -3 14.5 -13t-5 -18.5t-19.5 -6.5q-55 10 -110 19q-60 10 -119 21q-13 3 -14.5 13t5.5 18.5t19 7.5q60 -11 119 -21zM3115 1827v0h-67h-461q-12 0 -16.5 10
t0 20t16.5 10h67h461q13 0 17 -10t0 -20t-17 -10zM2652 2045v0q60 11 119 21l246 44q58 10 115 20t115 20q12 2 19 -6.5t5.5 -19t-14.5 -12.5l-42 -8t-42 -7l-214 -38q-76 -13 -151 -27q-58 -10 -115 -20t-115 -20q-12 -2 -19 6.5t-5.5 18.5t14.5 13l42 8t42 7zM2536 2151v0
q-12 -4 -19 4t-5.5 18.5t13.5 15.5q7 3 13 5l50 18q216 79 433 158q12 3 18.5 -4.5t5 -18.5t-12.5 -16q-32 -11 -63 -23q-216 -79 -433 -157zM2451 2336v0q19 11 37 22q19 10 37 21q84 49 169 98q76 44 152 87q101 59 202 117q11 6 20 -0.5t10 -17t-10 -17.5l-74 -42
q-161 -93 -321 -186q-29 -16 -57 -33q-72 -42 -145 -83q-11 -6 -19.5 0t-10 16.5t9.5 17.5zM2601 2625v0q-10 -7 -18.5 -1.5t-10 16.5t8.5 19q62 48 120 100l56 48q10 8 20 4t13.5 -14t-5.5 -18l-56 -48q-62 -55 -128 -106zM2514 2603v0q11 7 19 1.5t9.5 -16.5t-8.5 -20
q-45 -34 -87 -72q-32 -29 -66 -56q-11 -8 -21 -4t-13.5 13.5t6.5 18.5q35 28 69 59q45 39 92 76zM2236 2584v0q28 33 55 66l120 142q59 71 119 142q75 89 149 178q9 9 18.5 5.5t13.5 -13.5t-3 -20q-13 -16 -26 -31q-15 -18 -29 -35l-148 -176q-45 -54 -91 -108
q-75 -89 -149 -178q-9 -10 -18.5 -6t-13.5 14t3 20zM2099 2674v0q8 15 16 29q9 15 17 29q57 100 115 200q58 99 115 199q7 11 17.5 10t17 -9.5t0.5 -20.5q-17 -29 -33 -58q-58 -99 -116 -199q-57 -100 -115 -200q-7 -11 -17.5 -9.5t-16.5 10t0 19.5zM2114 3080v0
q-5 -11 -16 -12.5t-18.5 5t-3.5 18.5q37 94 70 190q18 53 37 106q5 11 16 12.5t19 -5t4 -18.5l-38 -106q-33 -95 -70 -190zM1986 2728v0q-5 -11 -16 -12.5t-18.5 5t-3.5 18.5q22 59 42 119q26 78 57 154q6 11 16 10.5t16.5 -9.5t2.5 -21q-31 -73 -55 -148q-19 -58 -41 -116z
M1827 2771v0q-3 -12 -13 -14t-18.5 5t-6.5 20q3 16 5 32q3 17 6 33l80 454q3 13 13 14.5t18.5 -5.5t7.5 -19q-3 -17 -6 -33q-3 -17 -6 -33l-22 -124zM1346 1833v0q-28 0 -47.5 46.5t-19.5 112.5t19.5 112.5t47.5 46.5t47.5 -46.5t19.5 -112.5t-19.5 -112.5t-47.5 -46.5z
M1942 1833v0q-27 0 -46.5 46.5t-19.5 112.5t19.5 112.5t46.5 46.5q28 0 47.5 -46.5t19.5 -112.5t-19.5 -112.5t-47.5 -46.5zM2292 1798v0q-23 14 -49 19q-8 -204 -136 -362q-122 -145 -301 -193t-358 14q-172 66 -276 211.5t-113 328.5q-24 -5 -42 -22q-10 -8 -20 -4
t-13.5 13.5t5.5 19.5q38 35 87.5 35.5t92.5 -25.5q11 -8 9.5 -18.5t-10 -16.5t-19.5 0q-23 15 -50 19q7 -189 126 -336q116 -135 282.5 -180t334.5 13q160 61 256.5 196.5t104.5 305.5q-24 -4 -43 -22q-10 -8 -20 -4t-13.5 13.5t5.5 19.5q38 35 87.5 35.5t92.5 -25.5
q10 -8 9 -18.5t-9.5 -16.5t-19.5 0z" />
    <glyph glyph-name="three" unicode="3" horiz-adv-x="3491" 
d="M1186 2979v0q0 -4 -2.5 -7t-6.5 -3l-370 10l370 9q4 0 6.5 -2.5t2.5 -6.5v0v0zM1213 3044v0q-2 -2 -5 -2t-5 2l-91 101l101 -91q2 -2 2 -5t-2 -5v0v0zM1213 2913v0v0v0q2 -2 2 -4.5t-2 -5.5l-101 -91l91 101q2 2 5 2.5t5 -2.5zM1278 3071v0q-4 0 -6.5 3t-2.5 6l9 370
l10 -370q0 -3 -3 -6t-7 -3v0v0zM1288 2877v0l-10 -370l-9 370q0 4 2.5 6.5t6.5 2.5v0v0q4 0 7 -2.5t3 -6.5zM1445 2812v0l-101 91q-2 3 -2 5.5t2 4.5v0v0q2 3 4.5 2.5t5.5 -2.5zM1344 3044v0v0v0q-2 2 -2 5t2 5l101 91l-91 -101q-3 -2 -5.5 -2t-4.5 2zM1380 2988v0l370 -9
l-370 -10q-4 0 -6.5 3t-2.5 7v0v0q0 4 2.5 6.5t6.5 2.5zM1719 2334v0q0 -3 -2 -5t-5 -2l-272 7l272 7q3 0 5 -2t2 -5v0v0zM1739 2390v0q1 -2 1 -4t-1 -4v0q-2 -1 -4 -1t-4 2l-67 74zM1739 2286v0q1 -1 1 -3.5t-1 -3.5l-75 -67l67 74q2 2 4 2t4 -2v0v0zM1787 2402v0
q-3 0 -5 2t-2 5l7 273l7 -273q0 -3 -2 -5t-5 -2v0v0zM1794 2259v0l-7 -272l-7 272q0 3 2 5t5 2v0v0q3 0 5 -2t2 -5zM1835 2286v0q2 2 4 2t3 -2l68 -74l-75 67q-2 1 -2 3.5t2 3.5v0v0zM1835 2382v0v0q-2 2 -2 4t2 4l75 67l-68 -74q-1 -2 -3 -2t-4 1zM1862 2341v0l272 -7
l-272 -7q-3 0 -5 2t-2 5v0v0q0 3 2 5t5 2zM2050 3213v0q0 -2 -1.5 -3t-3.5 -1l-162 4l162 4q2 0 3.5 -1t1.5 -3v0v0zM2061 3242v0q0 -1 -1.5 -1t-2.5 1l-40 44l44 -40q1 -1 1 -2v-2h-1zM2062 3184v0v-2t-1 -2l-44 -40l40 44q1 1 2.5 1t1.5 -1h1zM2090 3254v0q-2 0 -3 1t-1 3
l4 163l4 -163q0 -2 -1 -3t-3 -1v0v0zM2094 3168v0l-4 -163l-4 163q0 2 1 3t3 1v0v0q2 0 3 -1t1 -3zM2164 3140v0l-45 40q-1 1 -1 2t1 2v0q1 1 2 1t2 -1zM2119 3242v0v0v0q-1 1 -1 2t1 2l45 40l-41 -44q-1 -1 -2 -1t-2 1zM2131 3213v0q0 2 1 3t3 1l163 -4l-163 -4q-2 0 -3 1
t-1 3v0v0zM3395 1690v0q57 -108 70 -231q11 -99 3 -198q-2 -31 -7 -61v-3q-1 -8 -3 -13.5t-8 -11.5q-21 -15 -43 -28l-8 -4q-70 -40 -144 -71q-285 -118 -591 -159q-95 -13 -189 -23q-105 -12 -210 -27q-80 -12 -160 -27q-61 -10 -123 -20q-108 -20 -217 -21q-110 1 -216 32
q-117 36 -227 87q-26 11 -51 22q-165 70 -333 134q-305 122 -623 207q-95 29 -193 34q-23 0 -49.5 7t-42 24t-6.5 47q19 45 68 68.5t93 31.5q89 19 177 9.5t176 -29.5q129 -26 254 -69q4 -2 8 -3q23 -8 46 -19q18 18 39 32q5 3 9 6l-24 36q-11 18 -23 37l-112 170
q-73 111 -145 222q-81 123 -161 245q-3 6 -2 13t5 11q41 33 94 36q56 4 106.5 -19.5t92.5 -58.5q72 -63 128 -142q62 -85 121 -172q75 -109 141 -223q17 -28 32 -58q23 7 47 12l-20 32l-18 26l-110 168l-110 168q-35 53 -69 106q-34 52 -69 105q-3 6 -2.5 13t5.5 11
q37 30 84 33q49 3 93 -17.5t81 -50.5q65 -56 114 -127q55 -74 106 -151q2 -2 3 -4q88 -125 156 -263q18 3 35 6q23 3 45 7q-5 8 -10 15q-7 11 -13 21q-71 109 -142 217l-142 216q-4 6 -3 13t6 12q34 27 78 29q44 3 84 -15t73 -46q51 -43 92.5 -97.5t79.5 -111.5
q12 -19 25 -37q50 -72 94 -148q1 -1 2 -3q5 -9 10 -19q20 9 39 19q88 48 186 73q83 18 167 3q46 -10 90 -28q34 -14 68 -23q150 -38 304.5 -21.5t300.5 61.5q112 34 220 81q22 9 44 20q25 13 51 24q11 4 21 0t19 -10q3 -2 5 -3q27 -17 51 -39q46 -42 77 -97zM1286 2012v0
q69 -105 138 -211q69 -105 138 -211q38 6 77 11l48 6h1h5q1 1 3 1h3t0 0q6 1 17 5q-7 14 -15 27q-44 75 -95 146q-11 17 -23 35q-35 53 -74.5 104.5t-87.5 91.5q-28 24 -63 39t-70 11q-19 -3 -32 -9zM1104 1733v0q66 -100 131 -201q81 18 162 32q-14 28 -30 55
q-58 105 -126 204q-10 16 -21 32q-40 62 -85.5 122.5t-101.5 108.5q-32 27 -72 44.5t-80 12.5q-23 -3 -38 -12q8 -13 17 -26l24 -36q17 -26 34 -53q93 -141 186 -283zM779 1661v0q5 -7 9 -14q71 -107 141 -214q59 29 121 48q29 10 58 18q-16 29 -32 57q-1 2 -2 3
q-67 113 -141 222q-56 82 -115 162q-54 77 -126 137q-36 30 -81 49t-91 14q-15 -2 -29 -7q-3 -2 -5.5 -2.5t-5 -2t-6.5 -3.5v0v0q13 -21 27 -41q11 -17 21 -33q129 -196 257 -393zM3427 1252v0q10 98 -1.5 204t-56.5 197.5t-136 145.5q-234 -117 -490 -167
q-186 -38 -373 -13q-48 7 -94 20q-28 9 -55 20l-32 12q-101 35 -206 11q-87 -21 -166 -64q-12 -6 -25 -13q-40 -24 -83 -35q-39 -7 -79 -11q-24 -3 -47 -6q-76 -10 -152 -23q-4 -2 -9 -2q-170 -27 -334 -77q-51 -15 -101.5 -35.5t-92.5 -51.5q-15 -11 -27 -26
q-1 -1 -3.5 -4.5t-4.5 -6.5q-1 -2 -2 -3l-1.5 -3l-1 -2t-1.5 -4v0q-6 -21 4 -42q56 -1 112 -3q284 -6 567 -22q139 -8 277 -24q11 -2 21 -3q79 -5 150 -33q11 -7 10 -17t-10 -16.5t-21 -1.5q-1 0 -1.5 0.5l-0.5 0.5v0v0v0v0l-1 0.5l-3 1.5q-5 2 -11 3q-13 4 -26 7
q-35 8 -70 13q-54 8 -109 13q39 -33 77 -67q39 -33 77 -67q9 -9 5.5 -18.5t-13.5 -13.5t-20 4q-22 19 -43 37q-43 38 -86 75q-8 7 -15 13q-5 4 -9 8h-1v1h-1v0l-2 2l-1 1q-4 4 -8 7l-6 6q-11 9 -22 19q-130 10 -259 15q-4 1 -8 1q-219 10 -438 15q-56 2 -111 3h-1
q-10 0 -17 2t-13 11q-17 27 -15 58q1 21 11 38q-44 20 -95 34q-133 40 -270 66q-70 14 -141.5 16.5t-141.5 -16.5q-45 -11 -83 -37q-25 -16 -31 -37h1v-0.5v-1.5v-1q0 -1 0.5 -1.5t1.5 -0.5q3 -4 6.5 -6t9.5 -4q22 -5 46 -5q10 0 20 -1q91 -9 179 -33q265 -71 522 -170
q281 -106 557 -225q94 -41 192.5 -65t201.5 -22q152 9 303 40q60 12 120 21q123 19 246 33q207 22 410 64q218 47 419 140q66 30 126 71l2 10v1v1v3l1 1q0 4 1 8q1 14 2 27z" />
    <glyph glyph-name="four" unicode="4" horiz-adv-x="1471" 
d="M909 1713v0l547 -15l-547 -15l536 -110l-541 80l508 -201l-519 172l466 -286l-481 260l409 -363l-428 340l340 -429l-364 409l261 -481l-287 466l173 -519l-201 509l80 -541l-110 536l-16 -547l-15 547l-110 -536l80 541l-201 -509l173 519l-287 -466l261 481l-364 -409
l340 429l-428 -340l409 363l-481 -260l466 286l-520 -172l509 201l-541 -80l536 110l-547 15l547 15l-536 110l541 -80l-509 201l520 -172l-466 286l481 -260l-409 363l428 -340l-340 429l364 -409l-261 481l287 -466l-173 519l201 -509l-80 542l110 -536l15 546l16 -546
l110 536l-80 -542l201 509l-173 -519l287 466l-261 -481l364 409l-340 -429l428 340l-409 -363l481 260l-466 -286l519 172l-508 -201l541 80z" />
    <glyph glyph-name="five" unicode="5" horiz-adv-x="3418" 
d="M1345 1670v0q59 -99 159 -159q99 -59 220 -59q-121 0 -220 -59q-100 -59 -159 -158q-59 -100 -59 -220q0 120 -59 220q-59 99 -158 158q-100 59 -221 59q121 0 221 59q99 60 158 159t59 220q0 -121 59 -220zM1483 1428v0q24 14 48 24q-24 11 -48 25q-108 65 -172 172
q-14 24 -25 48q-11 -24 -24 -48q-65 -107 -173 -172q-23 -14 -47 -25q24 -10 47 -24q108 -65 173 -173q13 -23 24 -47q11 24 25 47q64 108 172 173zM3025 2393v0q59 -99 158 -158q100 -59 220 -59q-120 0 -220 -59q-99 -59 -158 -159q-59 -99 -59 -220q0 121 -59 220
q-60 100 -159 159t-220 59q121 0 220 59t159 158q59 100 59 221q0 -121 59 -221zM3163 2151v0q23 14 47 25q-24 11 -47 24q-108 65 -173 173q-14 23 -24 48q-11 -25 -25 -48q-64 -108 -172 -173q-24 -13 -48 -24q24 -11 48 -25q108 -64 172 -172q14 -24 25 -48q10 24 24 48
q65 108 173 172zM2107 3089v0q71 -42 157 -42q-86 0 -157 -42t-113 -113q-43 -71 -43 -158q0 87 -42 158t-113 113t-157 42q86 0 157 42t113 113t42 158q0 -87 43 -158q42 -71 113 -113zM2087 3039v0q6 4 13 8l-14 8q-79 47 -127 127q-4 7 -7 14l-8 -14q-48 -80 -127 -127
l-14 -8l14 -8q79 -47 127 -127l8 -14q3 7 7 14q48 80 128 127zM2304 1108v0q18 -31 49 -49t68 -18q-37 0 -68 -19q-31 -18 -49 -49q-18 -30 -18 -68q0 38 -18 68q-19 31 -49 49q-31 19 -68 19q37 0 68 18q30 18 49 49q18 30 18 68q0 -38 18 -68zM2286 1017v0q11 13 24 24
q-13 10 -24 23q-11 -13 -24 -23q13 -11 24 -24zM564 2463v0q18 -31 49 -49t68 -18q-37 0 -68 -18q-31 -19 -49 -49q-18 -31 -18 -68q0 37 -19 68q-18 30 -49 49q-30 18 -68 18q38 0 68 18q31 18 49 49q19 31 19 68q0 -37 18 -68zM546 2372v0q10 13 24 24q-14 11 -24 24
q-11 -13 -24 -24q13 -11 24 -24zM169 972v0q18 -30 49 -48q30 -19 68 -19q-38 0 -68 -18q-31 -18 -49 -49q-19 -31 -19 -68q0 37 -18 68t-49 49t-68 18q37 0 68 19q31 18 49 48q18 31 18 69q0 -38 19 -69zM150 881v0q11 14 24 24q-13 11 -24 24q-10 -13 -24 -24
q14 -11 24 -24z" />
    <glyph glyph-name="six" unicode="6" horiz-adv-x="3173" 
d="M3073 2234v0q49 -47 80 -107q5 -11 0 -19.5t-17 -10.5q-78 -7 -154 6q-137 19 -248 102q-78 61 -169 95q-2 0 -4 1q-16 7 -32 12q-154 52 -310 69q-217 -72 -423 -172q-395 -193 -740 -464q-102 -80 -200 -166q41 8 83 14q145 23 293 23q16 -1 33 -1q96 107 233 148
q100 26 200 7.5t191 -65.5q98 -48 179 -121q7 -7 6 -17t-10 -15q-100 -47 -210 -64q-88 -15 -177 -8q-93 10 -179 49q-104 43 -219 46q-5 -2 -10 0q-32 1 -64 1q-207 -2 -409 -51q-148 -134 -286 -279q-180 -190 -338 -397q-62 -79 -116 -163q-8 -10 -18.5 -9t-16.5 9.5
t0 20.5l1 1l1 1q15 25 33 49q6 8 11 15q51 71 104 140q112 143 233 277q-33 80 -56 164q-36 123 -45 252q-106 64 -160 176q-44 94 -51 197t8 204q14 107 50 209q3 8 9.5 12t15.5 2q60 -18 95.5 -66t52.5 -107q36 -134 33 -274q0 -72 -5 -144q-2 -27 -4 -53q-5 -47 -6 -93
q2 -166 52 -325q16 -55 36 -109q3 -6 5 -12q53 57 107 113q111 113 229 220q2 3 5 5q165 148 342 280q306 229 649 398q3 61 8 122q8 114 28 227q-80 71 -108 174q-21 86 -9.5 174.5t41.5 171.5q32 92 81 175q6 9 15 10t17 -6q55 -49 80 -116.5t27 -140.5q2 -129 -41 -250
q-8 -22 -18 -43q-11 -26 -20 -53q-14 -42 -22 -86q0 -5 -2 -9q-1 -7 -3 -14q-27 -157 -33 -316q39 18 79 36q156 69 317 122q4 5 12 4q301 99 616 138q13 1 17 -8.5t0 -19.5t-17 -12q-61 -8 -122 -18q-205 -33 -403 -93q17 -3 33 -6q112 -20 220 -58q6 -2 12 -5
q117 35 238 22q154 -20 264 -128zM1811 3208v0q-45 -89 -71.5 -192t-13.5 -202.5t86 -178.5q7 34 18 66q8 25 19 49q9 20 17 42q40 108 41 233t-78 217zM168 2314v0q-32 -113 -38 -237t32 -235.5t139 -185.5v17q1 45 6 90q2 26 4 53q5 70 5 141q4 136 -31 267
q-13 43 -37.5 81t-65.5 57q-8 -24 -14 -48zM1489 1720v0q-98 -34 -171 -107q106 -8 202 -49q85 -38 174.5 -43.5t179.5 13.5q74 14 143 42q-15 12 -31 23q-134 101 -298 134q-101 17 -199 -13zM2763 2233v0q151 -107 340 -99l-6 10q-62 90 -162 141q-71 34 -148 39.5
t-153 -10.5q16 -7 31 -15q52 -29 98 -66z" />
    <glyph glyph-name="seven" unicode="7" horiz-adv-x="1643" 
 />
    <glyph glyph-name="eight" unicode="8" horiz-adv-x="2095" 
 />
    <glyph glyph-name="nine" unicode="9" horiz-adv-x="1857" 
 />
    <glyph glyph-name="colon" unicode=":" horiz-adv-x="442" 
 />
    <glyph glyph-name="semicolon" unicode=";" horiz-adv-x="435" 
 />
    <glyph glyph-name="less" unicode="&#x3c;" horiz-adv-x="1412" 
 />
    <glyph glyph-name="equal" unicode="=" horiz-adv-x="1489" 
 />
    <glyph glyph-name="greater" unicode="&#x3e;" horiz-adv-x="1411" 
 />
    <glyph glyph-name="question" unicode="?" horiz-adv-x="1550" 
 />
    <glyph glyph-name="at" unicode="@" horiz-adv-x="2367" 
 />
    <glyph glyph-name="A" unicode="A" horiz-adv-x="2120" 
d="M1102 2446v0l1018 -2448h-334l-215 517h-1212l-216 -517h-43l843 2027l-175 421h334zM1554 555v0l-589 1418l-590 -1418h1179z" />
    <glyph glyph-name="B" unicode="B" horiz-adv-x="1928" 
d="M1256 1346v0q185 0 337.5 -90.5t243.5 -243t91 -337.5q0 -186 -91 -338.5t-243.5 -243t-337.5 -90.5l-1156 -1v2448l915 1q158 0 287.5 -77.5t207 -207.5t77.5 -287q0 -182 -100 -324.5t-262 -208.5h31zM1051 2410v0h-105t-220.5 0.5t-221 0.5h-96.5v-1065l99 0.5
t226.5 0.5t227.5 1t112 1q35 28 67 59q90 90 141 209t51 255q0 167 -76 307t-205 231zM408 43v0h664q179 45 306 172q90 90 140.5 208t50.5 253q0 151 -63 280.5t-172 220.5t-250 129h-676v-1263z" />
    <glyph glyph-name="C" unicode="C" horiz-adv-x="2291" 
d="M2036 520v0l255 -80q-50 -63 -108 -118q-212 -200 -485.5 -284.5t-561.5 -40.5q-287 48 -520.5 217t-371.5 426q-133 258 -138.5 546t117.5 551q126 262 353 440t511 238q290 56 570.5 -20.5t500.5 -272.5q-52 -36 -103 -71l-74 -50q-196 308 -499 389v0q-156 19 -311 -2
v0v0q-40 -10 -78 -25q-169 -69 -292 -203.5t-199 -298.5q-91 -197 -121.5 -413t-4.5 -431q23 -200 98 -388t208 -341q123 -139 285 -210.5t349 -53.5q139 18 257 90.5t209.5 179t153.5 226.5z" />
    <glyph glyph-name="D" unicode="D" horiz-adv-x="2169" 
d="M1811 2074v0q174 -175 266 -397t92 -467q0 -244 -92 -466.5t-266 -396.5q-175 -174 -397 -266t-467 -92h-847v2443h131.5h300h297.5h138q492 -13 844 -358zM947 29v0q45 0 90 3q219 99 387 267q178 178 279.5 414t101.5 505q0 256 -92.5 482.5t-256.5 402t-381 282.5
q-63 7 -128 7h-538v-2363h538z" />
    <glyph glyph-name="E" unicode="E" horiz-adv-x="1804" 
d="M100 2440v0h1704v-40v-22l-6 1t-22 3t-45.5 4.5t-75.5 5t-112.5 4.5t-156.5 4h-565h-413v-1071h662q90 2 156.5 4t112.5 4.5t75 5t45 4t22 3l6 1.5v-22v0v-39v-1v-21l-5.5 1t-21.5 3t-44.5 4.5t-73.5 5t-110 4.5t-153 3h-671v-1252h984q89 1 154.5 3.5t110.5 4.5t74 4.5
t45 4.5t22 3l6 1v-21v-40h-1396v0h-308v2443z" />
    <glyph glyph-name="F" unicode="F" horiz-adv-x="1804" 
d="M100 2434v0h1704v-40v-21l-6 1t-22 3t-45 4.5t-75.5 5t-112.5 4.5t-156 3h-566h-412v-1070h661h-1v0v0v0h0.5h0.5v0q90 2 156.5 4t112.5 4.5t75.5 4.5t45.5 4t22 3.5l6 1.5v-84l-6 1.5t-22 3.5t-45.5 4t-75.5 4.5t-112.5 4.5t-156.5 4h-661v-1292h-309v2442z" />
    <glyph glyph-name="G" unicode="G" horiz-adv-x="2286" 
d="M2286 1068v0v0v-628q-41 -51 -88 -99q-102 -101 -220 -175q-300 -184 -649 -184q-246 0 -469.5 92.5t-399.5 266.5q-175 176 -267.5 399.5t-92.5 469.5q0 247 92.5 470t267.5 399q176 175 399.5 267.5t469.5 92.5q231 0 442 -81.5t382 -235.5q-1 -1 -4 -3q-14 -9 -46 -31
t-67.5 -46.5t-58.5 -40.5q-197 308 -500 389v0q-73 9 -148 9q-83 0 -163 -11v0q-203 -54 -362 -220t-252 -414t-93 -540q0 -309 103.5 -567.5t278 -423t394.5 -198.5h1q46 -3 93 -3q39 0 78 2v0q172 24 317.5 129t253.5 275v608h-324v40h632v-8z" />
    <glyph glyph-name="H" unicode="H" horiz-adv-x="2008" 
d="M1699 2439v0h309v-2442h-309v1201h-1291v-1209h-308v2443h308v-1194h1291v1201z" />
    <glyph glyph-name="I" unicode="I" horiz-adv-x="409" 
d="M100 2439v0h309v-2442h-309v2442z" />
    <glyph glyph-name="J" unicode="J" horiz-adv-x="960" 
d="M960 2450v0v-265.5v-607.5v-603.5v-279.5q-21 -277 -264 -476q-22 -17 -45 -33q-237 -164 -551 -177v109l26 -7.5t62 -16.5t69.5 -14.5t50.5 -2.5q59 14 115 35v0q96 44 145 134t65.5 186.5t17.5 158.5v1860h309z" />
    <glyph glyph-name="K" unicode="K" horiz-adv-x="2161" 
d="M1146 1306v0l1015 -1313h-390l-789 1021l-570 -1017l-2 -4l-2 1v-1h-308v2442h308v-2363l4 7l543 969l164 293l619 1104h46l-638 -1138v-1z" />
    <glyph glyph-name="L" unicode="L" horiz-adv-x="1804" 
d="M1804 59v0v-61h-1704v2442h308v-2402h970q92 1 159.5 3t114.5 4.5t77 5t46 4.5t22.5 3z" />
    <glyph glyph-name="M" unicode="M" horiz-adv-x="2366" 
d="M2295 2437v0h71v-2443h-308v2040l-990 -1394l-928 1306v-1952h-40v2443h70l1063 -1496z" />
    <glyph glyph-name="N" unicode="N" horiz-adv-x="1902" 
d="M1862 2447v0h40v-2448h-77l-1685 2000v-2000h-40l1 2448h65l1696 -2013v2013z" />
    <glyph glyph-name="O" unicode="O" horiz-adv-x="2558" 
d="M2198 2092v0q175 -176 267.5 -399.5t92.5 -469.5q0 -247 -92.5 -470t-267.5 -399q-176 -175 -399.5 -267.5t-469.5 -92.5t-469.5 92.5t-399.5 267.5q-175 176 -267.5 399t-92.5 470q0 246 92.5 469.5t267.5 399.5q176 174 399.5 267t469.5 93t469.5 -93t399.5 -267z
M1407 36v0v0q223 32 399.5 196t281 423.5t104.5 570.5q0 294 -94 543t-255 415t-366 218v0q-73 10 -148 10q-83 0 -163 -12q0 1 0 0.5v-0.5q-203 -54 -362 -220t-252 -414t-93 -540q0 -309 103.5 -567.5t278 -422.5t395.5 -199v0q46 -3 93 -3q39 0 78 2z" />
    <glyph glyph-name="P" unicode="P" horiz-adv-x="1927" 
d="M1170 2444v0q209 0 380.5 -102.5t274 -274t102.5 -380.5t-102.5 -380.5t-274 -274t-380.5 -102.5h-761v-929h-309v2443h1070zM409 970v0h713q132 65 231.5 171.5t155.5 243.5t56 293q0 163 -61.5 306t-169.5 251t-251 169h-674v-1434z" />
    <glyph glyph-name="Q" unicode="Q" horiz-adv-x="2558" 
d="M2558 1223v0q0 -247 -92.5 -470t-267.5 -399q-206 -204 -473 -295l356 -356l-28 -28l-371 370q-171 -51 -353 -51q-246 0 -469.5 92.5t-399.5 267.5q-175 176 -267.5 399t-92.5 470q0 246 92.5 469.5t267.5 399.5q176 174 399.5 267t469.5 93t469.5 -93t399.5 -267
q175 -176 267.5 -399.5t92.5 -469.5zM1407 36v0v0q114 15 217 68l-231 230l28 28l239 -238q157 92 276.5 255.5t187.5 381t68 465.5q0 294 -94 543t-255 415t-366 218v0q-73 10 -148 10q-83 0 -163 -12q0 1 0 0.5v-0.5q-203 -54 -362 -220t-252 -414t-93 -540
q0 -309 103.5 -567.5t278 -422.5t394.5 -199h1q46 -3 93 -3q39 0 78 2z" />
    <glyph glyph-name="R" unicode="R" horiz-adv-x="1831" 
d="M1200 1183v0l631 -1189h-350l-630 1189h-443v-1182h-308v2443h921h177q174 0 317 -85t228.5 -228.5t85.5 -317.5q0 -156 -69.5 -288t-188 -219.5t-269.5 -114.5q-50 -8 -102 -8v0zM408 1223v0h587q30 1 74 11q50 11 111 42t122 91v0q78 90 121.5 202.5t43.5 239.5
q0 193 -97.5 350t-259.5 245h-702v-1181z" />
    <glyph glyph-name="S" unicode="S" horiz-adv-x="1939" 
d="M1925 752v0q14 -130 -27.5 -254t-123.5 -226q-159 -188 -389 -251t-468 -24q-226 39 -430 144t-387 240l24 32v0h1q59 78 119 156q25 33 50 65q47 -50 97 -97q116 -111 245.5 -206t273.5 -164q162 -81 343 -97q87 -6 172 13q115 29 207 105q68 123 56.5 262t-82.5 257
q-75 122 -182.5 207.5t-233.5 148.5t-255 117q-94 40 -183 82q-112 52 -215.5 120.5t-187.5 160.5q-82 88 -125 201q-42 125 -22 255v0q9 78 39 153.5t82 133.5v0q64 72 153 111q46 19 93.5 27t97.5 12q2 1 4 1q154 14 306.5 -2t302.5 -53q156 -36 306 -92l-54 -114
q-38 -82 -77 -163q-230 159 -413.5 231t-317.5 85.5t-218 -2t-116 -31.5q-54 -45 -87 -106.5t-34 -133.5q2 -63 30.5 -118t72.5 -99q86 -84 196 -139t222 -95q104 -38 209 -73q145 -47 286 -104q149 -60 287 -153t234 -223t119 -300z" />
    <glyph glyph-name="T" unicode="T" horiz-adv-x="2486" 
d="M100 2443v0h2386v-40v0v-22l-6 1.5t-22 3.5t-45 4t-75 4.5t-112.5 4.5t-155.5 4h-623v-2405h-308v2405h-637q-87 -2 -150.5 -4t-108 -4.5t-73 -4.5t-44 -4t-21 -3l-5.5 -1v21v0v40z" />
    <glyph glyph-name="U" unicode="U" horiz-adv-x="1920" 
d="M1880 2441v0h40v-1546q0 -136 -40 -263q-66 -210 -227 -369q-130 -128 -295.5 -195t-347.5 -67q-334 0 -599 221q-23 19 -44 41q-237 237 -264 565q-3 34 -3 67q0 9 0.5 245.5t1 536t1 532l0.5 232.5h308v-872v-55v-806q2 -67 20 -165.5t65.5 -201t138.5 -182t239 -108.5
h2h2q98 -11 126 -10h3h3q180 0 337.5 66.5t277 183.5t187.5 272t68 332v264v1282z" />
    <glyph glyph-name="V" unicode="V" horiz-adv-x="2251" 
d="M2229 2433v0h22l-1049 -2448h-53l-1049 2448h336l886 -2068l886 2068h21v0v0z" />
    <glyph glyph-name="W" unicode="W" horiz-adv-x="3494" 
d="M3494 2433v0l-1049 -2448h-53l-595 1389l-595 -1389h-53l-1049 2448h336l886 -2068v0l454 1060l-433 1008h336l886 -2068v0l886 2068h43z" />
    <glyph glyph-name="X" unicode="X" horiz-adv-x="1875" 
d="M1120 1301v0l755 -1302h-357l-576 994l-576 -994h-23v0v0h-23l599 1034l-819 1414h356l641 -1106l641 1106h24v0v0h23z" />
    <glyph glyph-name="Y" unicode="Y" horiz-adv-x="2286" 
d="M2286 2447v0l-908 -1373l1 -2v-1071h-309v978l-970 1468h370l600 -908l284 -429l885 1337h47z" />
    <glyph glyph-name="Z" unicode="Z" horiz-adv-x="2237" 
d="M373 307v0h1864v-308h-2087h-50l1551 2139h-1286v309h1559z" />
    <glyph glyph-name="bracketleft" unicode="[" horiz-adv-x="704" 
 />
    <glyph glyph-name="backslash" unicode="\" horiz-adv-x="1181" 
 />
    <glyph glyph-name="bracketright" unicode="]" horiz-adv-x="704" 
 />
    <glyph glyph-name="asciicircum" unicode="^" horiz-adv-x="1012" 
 />
    <glyph glyph-name="underscore" unicode="_" horiz-adv-x="1489" 
 />
    <glyph glyph-name="grave" unicode="`" horiz-adv-x="764" 
 />
    <glyph glyph-name="a" unicode="a" 
d="M1599 1762v0h308v-1764h-308v258q-126 -124 -285.5 -190t-334.5 -66q-176 0 -336 66.5t-285 190.5q-125 126 -191.5 285.5t-66.5 335.5t66.5 336t191.5 285t285 191.5t336 66.5q175 0 334.5 -66t285.5 -190v261zM1348 126v0q143 71 251 189v61v1002v64q-63 68 -138 122v0
q-177 107 -314.5 130.5t-238 -6.5t-165 -82t-96.5 -95q-86 -116 -135.5 -279.5t-49.5 -353.5q0 -216 63.5 -396.5t171.5 -295.5q31 -35 111 -78.5t214 -50.5t326 69z" />
    <glyph glyph-name="b" unicode="b" 
d="M1650 1499v0q125 -125 191 -285t66 -336t-66 -335.5t-191 -285.5q-126 -124 -285.5 -190.5t-335.5 -66.5t-335 66t-285 190v-258v0h-309v1764v681h309v-681v0v-261q126 124 285 190t335 66t335.5 -66.5t285.5 -191.5zM409 315v0q107 -118 251 -189q191 -76 325 -69
t214.5 50.5t110.5 78.5q108 115 172 295.5t64 396.5q0 190 -49.5 353.5t-136.5 279.5q-31 43 -96 95t-165 82t-237.5 6.5t-314.5 -130.5q-76 -54 -138 -122v-1127z" />
    <glyph glyph-name="c" unicode="c" horiz-adv-x="1869" 
d="M1869 563v0q-84 -208 -252.5 -353t-386.5 -196v0q-329 -70 -628 85v0q-23 15 -47 30q-57 34 -109 77q-73 62 -132 137q-108 142 -155 314q-88 341 71 656q159 295 470 421q311 117 626 13q325 -119 495 -420h-163h-163q-37 103 -100.5 201t-155 162t-210.5 66
q-102 -2 -183.5 -51.5t-142.5 -127.5t-101 -165q-73 -156 -96.5 -328t-5.5 -343q14 -161 72.5 -320t185.5 -266q122 -97 278 -115q78 -8 155 6.5t150 43.5v0q107 61 159.5 140t69 155t14 127l-2.5 51h244v0h44v0v0v0v0z" />
    <glyph glyph-name="d" unicode="d" 
d="M1598 2445v0h309v-2444v0h-309v0v0v258q-125 -124 -284.5 -190t-335.5 -66q-175 0 -335 66t-286 191q-124 126 -190.5 285.5t-66.5 335.5t66.5 336t190.5 285q126 125 286 191.5t335 66.5q176 0 335.5 -66t284.5 -191v942zM1347 129v0q144 71 251 189v60v1003v64
q-62 68 -137 122v0q-178 107 -315.5 130.5t-237.5 -6.5t-164.5 -82t-96.5 -95q-86 -116 -136 -279.5t-50 -353.5q0 -216 64 -396.5t172 -295.5q30 -35 110.5 -79t214.5 -50.5t325 69.5z" />
    <glyph glyph-name="e" unicode="e" horiz-adv-x="1908" 
d="M1364 1031v0h-876q-36 -314 73 -611q45 -127 135 -225q88 -90 207 -132q112 -41 231 -27q62 7 123.5 24.5t113.5 51.5q108 75 161 195.5t36 251.5h288q-23 -59 -54 -114q-139 -238 -378 -358.5t-512 -92.5q-265 34 -468 200.5t-287 420.5q-77 251 -12.5 500t253.5 432
q185 171 426 223.5t481 -24.5q235 -82 401 -273.5t202 -441.5h-92h-452zM493 1071v0h1050q-27 220 -136 413q-44 76 -106.5 140t-143.5 101q-162 64 -316 -19q-108 -63 -180 -167t-112.5 -226.5t-55.5 -241.5z" />
    <glyph glyph-name="f" unicode="f" horiz-adv-x="1232" 
d="M681 2269v0q237 165 551 177v-109q-82 27 -167 40q-51 4 -100 -15q-63 -16 -116 -54q-84 -69 -119 -172q-54 -158 -49 -326v0v-47h499v-40h-499v-1728h-309v166v358q0 366 -0.5 738t-0.5 466h-271v40h273q12 157 96 287t212 219v0v0z" />
    <glyph glyph-name="g" unicode="g" horiz-adv-x="2021" 
d="M2211 -585v0q83 -153 20 -336q-62 -171 -217 -284q-159 -109 -347.5 -154t-356.5 -57q-135 -16 -290 -16q-115 0 -236 14.5t-240 50.5q-193 61 -336 180q-129 109 -187 245q-11 25 -19 51q-49 165 19 332q5 12 10 23q83 170 252 237q-73 82 -65 189q1 17 5 33
q8 105 67 192q40 59 92.5 106.5t111.5 87.5q-64 39 -120 88q-126 112 -193 254t-67 299t67 299t193 254q127 111 287.5 169.5t337.5 58.5q266 0 491 -130l-4 12l75 22l447 135l28 -84q-57 9 -156 -9.5t-178 -40.5l-181 -54q55 -36 104 -79q126 -112 193 -254t67 -299
t-67 -299t-193 -254q-127 -111 -287.5 -169.5t-338.5 -58.5q-139 0 -269 37q-9 -3 -20 -5q-8 -2 -15 -4t-9 -2q-70 -17 -139.5 -39.5t-130.5 -58.5q-142 -87 -159 -210q-4 -70 28 -121t73 -83q105 -84 251 -109q135 -19 273.5 -4t280.5 44l28 6q131 28 266 46.5t272 8.5
q153 -13 278 -76q138 -71 204 -184zM952 1690v0v0q-132 -19 -237.5 -121t-168 -263.5t-62.5 -354.5q0 -197 64 -360.5t172.5 -264.5t243.5 -116v0h0.5h0.5q17 -1 34 -1q19 0 37 1h1q135 15 243 116.5t172 264.5t64 360q0 193 -62 354.5t-167.5 263t-237.5 121.5h-1
q-24 1 -49 1q-23 0 -47 -1zM556 -1329v0q159 -48 320.5 -58t307.5 1v0q102 21 201 52t190 81q82 45 149 109t109 147q41 84 46 176t-34 177q-82 159 -249 224q-99 36 -203 37q-97 -16 -191 -36h-3l-28 -6q-145 -30 -286.5 -45.5t-281.5 5.5q-171 28 -290 134
q-133 -48 -211 -162t-81 -254v-8q0 -62 19 -124q49 -150 185 -269t331 -181z" />
    <glyph glyph-name="h" unicode="h" horiz-adv-x="1556" 
d="M1492 1542v0q45 -83 54.5 -174.5t7.5 -172.5q-2 -570 -4 -1141v-54h-20h-288v1322q0 135 -38 210t-96.5 106.5t-124 33t-124.5 -12t-96.5 -28.5l-37.5 -15v0q0 1 1 1q-88 -48 -166.5 -107.5t-150.5 -120.5v-1387h-309v2451h309v-1012q104 90 224.5 168.5t261.5 119.5
q180 46 353 -5q167 -53 244 -182z" />
    <glyph glyph-name="i" unicode="i" horiz-adv-x="467" 
d="M129 1761v0h309v-1760h-309v1760zM100 2142v0q0 -76 54 -129.5t130 -53.5t129.5 53.5t53.5 129.5t-53.5 129.5t-129.5 53.5t-130 -53.5t-54 -129.5z" />
    <glyph glyph-name="j" unicode="j" horiz-adv-x="540" 
d="M539 1771v0l0.5 -293t0.5 -669.5v-665t-1 -307.5q-21 -277 -264 -476q-21 -17 -44 -33q-238 -164 -551 -177v109l26 -7.5t62 -16.5t69.5 -14.5t50.5 -2.5q59 14 114 35v0q97 44 145.5 134t65.5 186.5t18 158.5v2039h308z" />
    <glyph glyph-name="k" unicode="k" horiz-adv-x="1757" 
d="M1354 2v0l-827 981q-84 -100 -118 -146v-836h-309v2442h309v-1541q35 45 90 109q104 122 213 230q187 185 368 307q227 153 429 197q79 16 153 16v0v0v-205l-69 5t-181 -6t-246.5 -56t-268.5 -142q-87 -74 -157 -145h-1v-1l1018 -1209h-403z" />
    <glyph glyph-name="l" unicode="l" horiz-adv-x="408" 
d="M100 2433v0h308v-2442h-308v2442z" />
    <glyph glyph-name="m" unicode="m" horiz-adv-x="2692" 
d="M2628 1545v0q45 -83 54.5 -174t7.5 -173q-2 -597 -4 -1195h-20h-288v1323q0 134 -37.5 209t-96 106.5t-124.5 33t-124.5 -12t-96.5 -28.5l-38 -15l1 1v0q-88 -48 -167 -107.5t-151 -121.5q12 -99 10 -188q-3 -597 -5 -1195h-20v0h-287v1323q0 134 -38 209t-96.5 106.5
t-124.5 33t-124.5 -12t-96 -28.5l-37.5 -15v1h1q-88 -48 -167 -107t-150 -121v-1395h-309v1769h309v-322q104 90 224.5 168.5t261.5 119.5q180 47 353 -4q167 -53 244 -183q30 -54 43 -114q107 92 229.5 173t267.5 123q179 47 352 -4q168 -53 244 -183z" />
    <glyph glyph-name="n" unicode="n" horiz-adv-x="1556" 
d="M1492 1541v0q45 -82 54.5 -173.5t7.5 -172.5l-4 -1196l-21 1h-287v1322q0 135 -38 210t-96.5 106t-124 33t-124.5 -11.5t-96.5 -28.5l-37.5 -15v0l1 1q-88 -48 -166.5 -107.5t-150.5 -121.5v-1391h-309v1760h309v-316q104 89 224.5 168t261.5 120q180 46 353 -5
q167 -53 244 -183z" />
    <glyph glyph-name="o" unicode="o" horiz-adv-x="1857" 
d="M1600 1504v0q125 -126 191 -286t66 -336t-66 -336t-191 -285q-126 -125 -286 -191.5t-336 -66.5t-335.5 66.5t-285.5 191.5q-125 125 -191 285t-66 336t66 336t191 286q126 125 285.5 191t335.5 66t336 -66t286 -191zM1343 1475v0q-158 245 -365 245q-206 0 -364 -245
q-151 -256 -151 -592q0 -335 151 -591q158 -245 364 -245q207 0 365 245q151 256 151 591q0 336 -151 592z" />
    <glyph glyph-name="p" unicode="p" 
d="M1650 1502v0q125 -126 191 -285.5t66 -335.5t-66 -336t-191 -285q-126 -125 -285.5 -191t-335.5 -66t-335.5 65.5t-284.5 190.5v-262v0v-859h-309v859v1764h309v0v-258q125 124 284.5 190t335.5 66t335.5 -66t285.5 -191zM409 317v0q62 -68 138 -122q177 -107 314.5 -130
t237.5 6.5t165 81.5t96 95q86 117 136 280t50 353q0 216 -64 396.5t-172 296.5q-30 34 -110.5 78t-214.5 50.5t-325 -69.5q-144 -71 -251 -189v-1127z" />
    <glyph glyph-name="q" unicode="q" horiz-adv-x="1906" 
d="M1598 1761v0h308v-1764v-859h-308v1121q-126 -125 -285 -190.5t-335 -65.5t-335.5 66t-285.5 191q-125 125 -191 285t-66 336t66 335.5t191 285.5q126 125 285.5 191t335.5 66t335 -66t285 -190v258v0zM1460 195v0q76 54 138 122v64v1003v60q-107 118 -251 189
q-191 76 -325 69.5t-214.5 -50.5t-110.5 -78q-109 -116 -172.5 -296.5t-63.5 -396.5q0 -190 49.5 -353t136.5 -280q31 -43 96 -95t165 -81.5t237.5 -6.5t314.5 130z" />
    <glyph glyph-name="r" unicode="r" horiz-adv-x="1256" 
d="M554 1468v0v0l-6 -4zM554 1468v0l1 1l1 1l-1 -1q-1 0 -1 -1zM556 1470v0l36 27q-23 -17 -44 -33q-88 -73 -139 -133v-1332h-309v1760h309v-368q46 49 113 103q104 88 283 167.5t436 97.5l15 -221l-82.5 7.5t-200.5 8t-232 -17.5t-185 -66z" />
    <glyph glyph-name="s" unicode="s" horiz-adv-x="1425" 
d="M1410 551v0q15 -171 -85 -313q-105 -144 -267.5 -199t-336.5 -33q-174 25 -326 104.5t-295 177.5q62 81 125 160q30 39 61 79q42 -43 88 -82q96 -87 203 -163.5t226 -130.5q58 -26 120 -42t125 -11q62 5 112.5 35.5t91.5 76.5q31 98 -16.5 182.5t-124.5 141.5
q-71 52 -149.5 90.5t-158.5 72.5q-174 73 -332 177q-126 78 -223 190q-104 132 -89 300v0q9 79 35 158t85 134v0q64 59 147 84q143 40 291 23q242 -26 470 -112q-15 -31 -30 -61q-34 -70 -67 -139q-137 96 -291 160q-110 50 -229 70q-60 11 -123 6.5t-113 -40.5
q-56 -43 -81 -106t-1 -132q26 -61 78 -104.5t110 -73.5q152 -75 314 -125q147 -46 287 -111q136 -66 241 -177.5t128 -266.5z" />
    <glyph glyph-name="t" unicode="t" horiz-adv-x="1224" 
d="M643 717v0v-110v-361q0 -32 3 -63.5t13 -61.5q9 -27 26 -49t44 -32q36 -10 77 -5.5t76 14.5l28 -34q-110 -32 -222.5 -12.5t-203.5 89.5q-154 124 -149 321q4 220 1 441q-1 110 -1 220v650h-235v40h235v560h308v-561l581 -1v-40l-581 1v-129v-549v-328z" />
    <glyph glyph-name="u" unicode="u" horiz-adv-x="1556" 
d="M1247 1761v0h309v-1760h-309v316q-104 -90 -224 -168.5t-262 -119.5q-82 -22 -169 -22q-96 0 -184 27q-167 52 -244 182q-45 83 -54.5 174t-6.5 173q0 150 0.5 350.5t1.5 393t1.5 322l0.5 129.5h307v-1322q0 -135 38 -210t96.5 -106.5t124.5 -33t124.5 12t96 28.5
l37.5 15v-1v0q87 48 166 107.5t150 120.5v1392z" />
    <glyph glyph-name="v" unicode="v" horiz-adv-x="1725" 
d="M1681 1761v0h44q-12 -28 -129 -289t-268 -599t-265.5 -595t-123.5 -276h-19l-820 1759h340l65 -138.5t158.5 -340t187.5 -402.5t158.5 -339.5l64.5 -138.5q17 38 108 242t205.5 459.5t200.5 448.5t93 209z" />
    <glyph glyph-name="w" unicode="w" horiz-adv-x="2751" 
d="M2708 1761v0h43q-12 -28 -128.5 -289t-267.5 -599t-266 -595t-124 -276h-19l-514 1103q-34 -77 -111 -249.5t-164 -366.5t-149.5 -334.5t-68.5 -152.5h-19l-820 1759h341l633 -1359l41 91t98 219t111.5 250t85.5 191l-284 608h341l633 -1359v0v0q17 38 108.5 242
t205.5 459.5t200.5 448.5t93.5 209z" />
    <glyph glyph-name="x" unicode="x" horiz-adv-x="1472" 
d="M887 1016v0l585 -1014h-356l-407 705v0q-13 -22 -74.5 -128.5t-137.5 -238.5q-74 -129 -131 -227t-64 -111h-48q13 22 76.5 131.5t143 247t141.5 244t71 122.5l-586 1014h357l407 -705v0v0q15 25 57 99q78 135 183.5 317t166.5 289h47q-8 -13 -68.5 -118t-140 -242.5
t-144 -248.5t-78.5 -136v0v0z" />
    <glyph glyph-name="y" unicode="y" horiz-adv-x="1747" 
d="M1704 1761v0h44q-2 -5 -24 -53q-53 -119 -171 -384t-251 -563t-230.5 -516t-109.5 -243q-51 -111 -120 -230t-155.5 -230.5t-190 -201.5t-225 -143.5t-259.5 -53.5v214l35 -12t97.5 -16t146 14.5t180.5 76t202 169.5q51 68 101 147q92 152 156 292l-807 1733h340
l634 -1359q22 50 142 318.5t252 564.5q88 197 148 331.5t65 144.5z" />
    <glyph glyph-name="z" unicode="z" horiz-adv-x="1844" 
d="M431 304v0h1413v-310l-1744 1l1306 1453h-993v309h1324l-277 -309z" />
    <glyph glyph-name="braceleft" unicode="{" horiz-adv-x="982" 
 />
    <glyph glyph-name="bar" unicode="|" horiz-adv-x="576" 
 />
    <glyph glyph-name="braceright" unicode="}" horiz-adv-x="983" 
 />
    <glyph glyph-name="asciitilde" unicode="~" horiz-adv-x="969" 
 />
    <glyph glyph-name="exclamdown" unicode="&#xa1;" horiz-adv-x="419" 
 />
    <glyph glyph-name="cent" unicode="&#xa2;" horiz-adv-x="1898" 
 />
    <glyph glyph-name="sterling" unicode="&#xa3;" horiz-adv-x="2000" 
 />
    <glyph glyph-name="currency" unicode="&#xa4;" horiz-adv-x="1514" 
 />
    <glyph glyph-name="yen" unicode="&#xa5;" horiz-adv-x="1817" 
 />
    <glyph glyph-name="brokenbar" unicode="&#xa6;" horiz-adv-x="336" 
 />
    <glyph glyph-name="section" unicode="&#xa7;" horiz-adv-x="1513" 
 />
    <glyph glyph-name="dieresis" unicode="&#xa8;" horiz-adv-x="774" 
 />
    <glyph glyph-name="copyright" unicode="&#xa9;" horiz-adv-x="2145" 
 />
    <glyph glyph-name="registered" unicode="&#xae;" horiz-adv-x="885" 
 />
    <glyph glyph-name="macron" unicode="&#xaf;" horiz-adv-x="871" 
 />
    <glyph glyph-name="degree" unicode="&#xb0;" horiz-adv-x="332" 
 />
    <glyph glyph-name="plusminus" unicode="&#xb1;" horiz-adv-x="1488" 
 />
    <glyph glyph-name="acute" unicode="&#xb4;" horiz-adv-x="765" 
 />
    <glyph glyph-name="cedilla" unicode="&#xb8;" horiz-adv-x="413" 
 />
    <glyph glyph-name="questiondown" unicode="&#xbf;" horiz-adv-x="1550" 
 />
    <glyph glyph-name="Agrave" unicode="&#xc0;" horiz-adv-x="2120" 
d="M768 2441v0h334l1018 -2448h-334l-215 517h-1213l-215 -517h-43l843 2027zM375 550v0h1179l-589 1418zM1297 2695v0l-25 -40l-640 179l53 95z" />
    <glyph glyph-name="Aacute" unicode="&#xc1;" horiz-adv-x="2121" 
d="M768 2450v0h334l1019 -2448h-335l-215 517h-1212l-215 -517h-44l843 2027zM376 559v0h1179l-590 1418zM1297 2834v0l-640 -179l-25 40l612 234z" />
    <glyph glyph-name="Acircumflex" unicode="&#xc2;" horiz-adv-x="2120" 
d="M768 2450v0h334l1018 -2448h-334l-215 517h-1213l-215 -517h-43l843 2027zM375 559v0h1179l-589 1418zM947 2796v0l-307 -141l-16 43l323 231l324 -231l-17 -43z" />
    <glyph glyph-name="Atilde" unicode="&#xc3;" horiz-adv-x="2121" 
d="M768 2450v0h334l1019 -2448h-335l-215 517h-1212l-215 -517h-44l843 2027zM375 559v0h1180l-590 1418zM666 2725v0l-36 50l-35 50q5 4 63 19.5t146 13.5t187 -50q39 -20 74 -24t61.5 1t42 12l15.5 7l96 -87q-27 -18 -75.5 -33.5t-112.5 -16.5q-87 -2 -186 46
q-59 29 -112.5 30.5t-89 -7.5t-38.5 -11z" />
    <glyph glyph-name="Adieresis" unicode="&#xc4;" horiz-adv-x="2120" 
d="M768 2450v0h334l1018 -2448h-334l-215 517h-1213l-215 -517h-43l843 2027zM375 559v0h1179l-590 1418zM736 2663v0q-52 0 -87.5 37.5t-35.5 90.5q3 50 38.5 84t84.5 34q50 0 86.5 -36.5t36.5 -86.5t-36.5 -86.5t-86.5 -36.5zM1164 2663v0q-52 0 -88 37.5t-35 90.5
q3 50 38.5 84t84.5 34q50 0 86.5 -36.5t36.5 -86.5t-36.5 -86.5t-86.5 -36.5z" />
    <glyph glyph-name="Aring" unicode="&#xc5;" horiz-adv-x="2120" 
d="M768 2450v0h334l1018 -2448h-334l-215 517h-1212l-216 -517h-43l843 2027zM375 559v0h1179l-589 1418zM927 2666v0q-59 0 -103 44q-42 44 -40 104q3 59 44.5 98.5t98.5 39.5q58 0 100.5 -42.5t42.5 -100.5t-42.5 -100.5t-100.5 -42.5zM824 2813v0q-1 -43 29 -76
q32 -31 74 -31q41 0 72 30.5t31 72.5t-31 72.5t-72 30.5q-42 0 -71.5 -28.5t-31.5 -70.5z" />
    <glyph glyph-name="AE" unicode="&#xc6;" horiz-adv-x="2821" 
d="M1117 2446v0v1h1704v-61l-6 1t-22 3t-45 4.5t-75.5 4.5t-112.5 4.5t-156 3.5h-978v-1070h662q90 1 156 3t112 4.5t75.5 5t45.5 4.5t22 3l6 1v-82l-6 1t-21.5 3t-44.5 4.5t-74 4.5t-110 4.5t-153 3.5h-670v-1252h424h-5h-7h264h308q89 1 154 3t110.5 4.5t74.5 5t45 4.5
t21.5 3l5.5 1v-61l-1704 -1v515h-759l-215 -517h-43l1017 2445v-1zM1117 559v0v1786l-742 -1786h742z" />
    <glyph glyph-name="Ccedilla" unicode="&#xc7;" horiz-adv-x="2291" 
d="M1416 39v0q139 17 257 89.5t209.5 179t153.5 226.5l255 -80q-50 -62 -108 -118q-171 -162 -385.5 -249t-447.5 -91l-13 -34v0l-33 -88q35 -12 64 -34.5t44 -57.5q28 -75 -23 -135q-9 -9 -19 -16q-51 -34 -118.5 -36.5t-124.5 8.5l18 99q38 -7 78 -7q20 0 40 3q5 0 11 1
q15 3 30 10t18 19q2 5 1 10q-2 7 -8 15l-10 10v0v0q-22 18 -52 24.5t-59 9.5h-3l-20 3l21 58l52 141q-54 4 -108 12q-287 48 -520.5 217t-371.5 426q-133 258 -138.5 546t117.5 552q126 261 353 439t511 238q290 56 570.5 -20t500.5 -273q-52 -35 -103 -71l-74 -50
q-196 308 -499 389v0q-156 19 -311 -2v0v0q-40 -10 -78 -25q-169 -69 -292 -203.5t-199 -297.5q-91 -198 -121.5 -414t-4.5 -431q23 -200 98 -388t208 -340q123 -140 285 -211.5t349 -52.5z" />
    <glyph glyph-name="Egrave" unicode="&#xc8;" horiz-adv-x="1804" 
d="M100 -4v0v2442h1704v-40v-21l-6 1t-22 3t-45 4.5t-75.5 5t-112.5 4.5t-157 3h-565h-412v-1070h662q90 1 156 3.5t112 4.5t75.5 4.5t45.5 4.5t22 3l6 1v-21v0v-40v0v-21l-6 1t-21.5 3t-44.5 4.5t-74 4.5t-110 4.5t-153 3.5h-670v-1252h984q88 1 153.5 3t111 4.5t74.5 5
t44.5 4.5t21.5 3l6 1v-21v0v-40h-1395v0h-309zM1224 2700v0l-25 -40l-640 179l53 95z" />
    <glyph glyph-name="Eacute" unicode="&#xc9;" horiz-adv-x="1804" 
d="M100 -4v0v2442h1704v-40v-21l-6 1t-22 3t-45.5 4.5t-75.5 5t-112.5 4.5t-156.5 3h-565h-413v-1070h662q90 1 156.5 3.5t112.5 4.5t75.5 4.5t45.5 4.5t22 3l6 1v-21v0v-40v0v-21l-6 1t-22 3t-44.5 4.5t-73.5 4.5t-110 4.5t-153 3.5h-671v-1252h984q89 1 154.5 3t111 4.5
t74.5 5t44.5 4.5t21.5 3l6 1v-21v0v-40h-1396v0h-308zM1351 2839v0l-640 -179l-25 40l612 234z" />
    <glyph glyph-name="Ecircumflex" unicode="&#xca;" horiz-adv-x="1804" 
d="M100 -4v0v2442h1704v-40v-21l-6 1t-22 3t-45.5 4.5t-75.5 5t-112.5 4.5t-156.5 3h-565h-413v-1070h662q90 1 156.5 3.5t112.5 4.5t75 4.5t45 4.5t22 3l6 1v-21v0v-40v0v-21l-5.5 1t-21.5 3t-44.5 4.5t-73.5 4.5t-110 4.5t-153 3.5h-671v-1252h984q89 1 154 3t110.5 4.5
t74.5 5t45 4.5t22 3l6 1v-21v0v-40h-1396v0h-308zM996 2804v0l-307 -140l-17 43l324 230l323 -230l-16 -43z" />
    <glyph glyph-name="Edieresis" unicode="&#xcb;" horiz-adv-x="1804" 
d="M100 -4v0v2442h1704v-40v-21l-6 1t-22 3t-45 4.5t-75.5 5t-112.5 4.5t-156 3h-566h-412v-1070h662q90 1 156 3.5t112 4.5t75.5 4.5t45.5 4.5t22 3l6 1v-21v0v-40v0v-21l-6 1t-21.5 3t-44.5 4.5t-74 4.5t-110 4.5t-153 3.5h-670v-1252h984q89 1 154 3t110.5 4.5t74.5 5
t45 4.5t21.5 3l5.5 1v-21v0v-40h-1395v0h-309zM807 2656v0q-52 0 -88 37.5t-35 90.5q3 51 38.5 85t84.5 34q50 0 86.5 -36.5t36.5 -87.5q0 -50 -36.5 -86.5t-86.5 -36.5zM1234 2656v0q-52 0 -87.5 37.5t-35.5 90.5q3 51 38.5 85t84.5 34q50 0 86.5 -36.5t36.5 -87.5
q0 -50 -36.5 -86.5t-86.5 -36.5z" />
    <glyph glyph-name="Igrave" unicode="&#xcc;" horiz-adv-x="440" 
d="M122 -4v0v2442h309v-2442h-309zM-56 2830v0l52 95l613 -234l-26 -40z" />
    <glyph glyph-name="Iacute" unicode="&#xcd;" horiz-adv-x="430" 
d="M102 -4v0v2442h309v-2442h-309zM-76 2691v0l612 234l53 -95l-640 -179z" />
    <glyph glyph-name="Icircumflex" unicode="&#xce;" horiz-adv-x="410" 
d="M93 -4v0v2442h309v-2442h-309zM-76 2696v0l324 231l323 -231l-16 -43l-307 141l-307 -141z" />
    <glyph glyph-name="Idieresis" unicode="&#xcf;" horiz-adv-x="420" 
d="M97 4v0v2443h309v-2443h-309zM161 2775v0q0 -51 -36.5 -87.5t-87.5 -36.5t-87 37.5t-36 90.5q4 51 39.5 85t83.5 34q51 0 87.5 -36.5t36.5 -86.5zM465 2898v0q50 0 86.5 -36.5t36.5 -86.5q0 -51 -36.5 -87.5t-86.5 -36.5q-52 0 -87.5 37.5t-35.5 90.5q3 51 38.5 85
t84.5 34z" />
    <glyph glyph-name="Eth" unicode="&#xd0;" horiz-adv-x="2605" 
d="M1403 2447v0q491 -13 844 -357q174 -175 266 -397t92 -467t-92 -467t-266 -397q-175 -174 -397 -266t-467 -92h-847v1087h-436v309h436v1047h131h300h298h138zM1860 315v0q178 178 279 413.5t101 504.5q0 257 -92.5 483.5t-256 402t-381.5 282.5q-62 7 -127 7h-538v-1008
h531v-309h-531v-1047h538q45 0 89 3q220 100 388 268z" />
    <glyph glyph-name="Ntilde" unicode="&#xd1;" horiz-adv-x="1901" 
d="M1861 2441v0h40v-2448h-76l-1685 2000v-2000h-40l1 2448h65l1695 -2013v2013zM729 2709v0l-35 50l-36 50q6 4 63.5 19.5t146 13.5t186.5 -50q39 -20 74 -24t61.5 1.5t42 12l15.5 6.5l96 -87q-26 -18 -75 -33.5t-113 -16.5q-87 -2 -185 47q-59 28 -113 29.5t-89.5 -7
t-38.5 -11.5z" />
    <glyph glyph-name="Ograve" unicode="&#xd2;" horiz-adv-x="2558" 
d="M2198 2077v0q175 -176 267.5 -399.5t92.5 -469.5t-92.5 -469.5t-267.5 -399.5q-176 -175 -399.5 -267.5t-469.5 -92.5t-469.5 92.5t-399.5 267.5q-175 176 -267.5 399.5t-92.5 469.5t92.5 469.5t267.5 399.5q176 175 399.5 267.5t469.5 92.5t469.5 -92.5t399.5 -267.5z
M1408 21v0v0q222 32 398.5 196t281 423.5t104.5 570.5q0 294 -94 543t-254.5 415t-365.5 218v0q-73 10 -149 10q-83 0 -162 -11v0v0q-204 -55 -363 -221t-251.5 -414t-92.5 -540q0 -309 103 -567.5t277.5 -422.5t395.5 -198v0q46 -4 93 -4q40 0 79 2zM1046 2928v0l-53 -95
l640 -179l25 40z" />
    <glyph glyph-name="Oacute" unicode="&#xd3;" horiz-adv-x="2557" 
d="M2197 2077v0q175 -176 267.5 -399.5t92.5 -469.5t-92.5 -469.5t-267.5 -399.5q-175 -175 -398.5 -267.5t-469.5 -92.5q-247 0 -470.5 92.5t-398.5 267.5q-175 176 -267.5 399.5t-92.5 469.5t92.5 469.5t267.5 399.5q175 175 398.5 267.5t470.5 92.5q246 0 469.5 -92.5
t398.5 -267.5zM1407 21v0v0q222 32 398.5 196t281 423.5t104.5 570.5q0 294 -94 543t-254.5 415t-365.5 218v0q-73 10 -148 10q-83 0 -163 -11v0v0q-203 -55 -362 -221t-252 -414t-93 -540q0 -309 103 -567.5t278 -422.5t395 -198v0q47 -4 94 -4q39 0 78 2zM1608 2929v0
l53 -95l-640 -179l-25 40z" />
    <glyph glyph-name="Ocircumflex" unicode="&#xd4;" horiz-adv-x="2558" 
d="M2198 2077v0q175 -176 267.5 -399.5t92.5 -469.5t-92.5 -469.5t-267.5 -399.5q-176 -175 -399.5 -267.5t-469.5 -92.5t-469.5 92.5t-399.5 267.5q-175 176 -267.5 399.5t-92.5 469.5t92.5 469.5t267.5 399.5q176 175 399.5 267.5t469.5 92.5t469.5 -92.5t399.5 -267.5z
M1407 21v0h1q222 32 398.5 196t281 423.5t104.5 570.5q0 294 -94 543t-255 415t-365 218h-1q-73 10 -148 10q-83 0 -163 -11v0v0q-203 -55 -362 -221t-251.5 -414t-92.5 -540q0 -309 103 -567.5t277.5 -422.5t395.5 -198v0q46 -4 93 -4q39 0 78 2zM1326 2927v0l323 -231
l-16 -43l-307 141v0v0l-307 -141l-17 43l324 231v0v0z" />
    <glyph glyph-name="Otilde" unicode="&#xd5;" horiz-adv-x="2558" 
d="M2198 2077v0q175 -176 267.5 -399.5t92.5 -469.5t-92.5 -469.5t-267.5 -399.5q-176 -175 -399 -267.5t-470 -92.5q-246 0 -469.5 92.5t-399.5 267.5q-174 176 -267 399.5t-93 469.5t93 469.5t267 399.5q176 175 399.5 267.5t469.5 92.5q247 0 470 -92.5t399 -267.5z
M1408 21v0v0q222 32 398.5 196t281 423.5t104.5 570.5q0 294 -94 543t-254.5 415t-365.5 218v0q-73 10 -149 10q-82 0 -162 -11v0v0q-203 -55 -362 -221t-252 -414t-93 -540q0 -309 103 -567.5t278 -422.5t395 -198v0q46 -4 93 -4q40 0 79 2zM1484 2655v0q64 1 112.5 16.5
t75.5 33.5l-96 87l-15.5 -7t-42 -12t-61.5 -1t-75 24q-98 48 -186 50t-146 -13.5t-63 -19.5l35 -50l36 -50q3 2 38.5 11t89 7.5t112.5 -30.5q99 -48 186 -46z" />
    <glyph glyph-name="Odieresis" unicode="&#xd6;" horiz-adv-x="2558" 
d="M2198 2077v0q175 -176 267.5 -399.5t92.5 -469.5t-92.5 -469.5t-267.5 -399.5q-176 -175 -399.5 -267.5t-469.5 -92.5t-469.5 92.5t-399.5 267.5q-175 176 -267.5 399.5t-92.5 469.5t92.5 469.5t267.5 399.5q176 175 399.5 267.5t469.5 92.5t469.5 -92.5t399.5 -267.5z
M1407 21v0v0q223 32 399.5 196t281 423.5t104.5 570.5q0 294 -94 543t-255 415t-366 218v0q-73 10 -148 10q-83 0 -163 -11v0v0q-203 -55 -362 -221t-252 -414t-93 -540q0 -309 103.5 -567.5t278 -422.5t394.5 -198h1q46 -4 93 -4q39 0 78 2zM1112 2667v0q-52 0 -88 37.5
t-35 90.5q3 50 38.5 84t84.5 34q50 0 86.5 -36t36.5 -87q0 -50 -36.5 -86.5t-86.5 -36.5zM1539 2667v0q-52 0 -87.5 37.5t-35.5 90.5q3 50 38.5 84t84.5 34q51 0 87 -36t36 -87q0 -50 -36.5 -86.5t-86.5 -36.5z" />
    <glyph glyph-name="multiply" unicode="&#xd7;" horiz-adv-x="1165" 
 />
    <glyph glyph-name="Oslash" unicode="&#xd8;" horiz-adv-x="2558" 
d="M2198 2077v0q174 -176 267 -399.5t93 -469.5t-93 -469.5t-267 -399.5q-176 -175 -399.5 -267.5t-469.5 -92.5q-51 0 -102 4q-38 3 -76 9q-197 28 -373 117l-77 -117h-218l138 211q-86 60 -161 136q-175 176 -267.5 399.5t-92.5 469.5t92.5 469.5t267.5 399.5
q176 175 399 267.5t470 92.5q342 0 636 -178l118 181h218l-187 -287q43 -36 84 -76zM459 1211v0q0 -252 70 -471.5t192 -384.5l1159 1774q-173 199 -403 258v0q-73 10 -148 10q-83 0 -163 -11v0v0q-203 -55 -362 -221t-252 -414t-93 -540zM1407 21v0q223 32 399.5 196
t280.5 423.5t104 570.5q0 216 -52 409.5t-145 349.5l-1147 -1755q172 -159 388 -192h1q46 -4 93 -4q39 0 78 2v0z" />
    <glyph glyph-name="Ugrave" unicode="&#xd9;" horiz-adv-x="1919" 
d="M1879 2436v0h40v-1546q0 -136 -40 -264q-65 -209 -226 -368q-130 -128 -295.5 -195t-347.5 -67q-334 0 -599 221q-23 19 -44 41q-237 237 -265 565q-2 33 -2 67q0 8 0.5 245t1 536.5t0.5 532v232.5h309v-873v-54v-806q2 -67 19.5 -165.5t65.5 -201t139 -182t238 -108.5h2
h3q98 -11 126 -10h2h4q180 0 337.5 66.5t277 183.5t187 272t67.5 332v264v1282zM730 2927v0l-53 -95l640 -179l25 40z" />
    <glyph glyph-name="Uacute" unicode="&#xda;" horiz-adv-x="1919" 
d="M1879 2428v0h40v-1546q0 -136 -40 -263q-66 -210 -227 -369q-130 -127 -295.5 -194.5t-347.5 -67.5q-334 0 -598 221q-23 19 -45 41q-237 237 -264 565q-2 34 -2 67v245.5t0.5 536t1 532l0.5 232.5h309v-872v-55v-806q1 -67 19 -165.5t66 -201t138.5 -182t238.5 -108.5h2
h3q98 -11 125 -10h3h3q180 0 338 66.5t277 184t187 272.5t68 331v264v1282zM1289 2947v0l53 -95l-640 -178l-25 39z" />
    <glyph glyph-name="Ucircumflex" unicode="&#xdb;" horiz-adv-x="1920" 
d="M1880 2420v0h40v-1546q0 -136 -40 -263q-66 -209 -227 -369q-130 -127 -295.5 -194.5t-347.5 -67.5q-334 0 -599 221q-23 20 -44 41q-237 237 -264 565q-3 34 -3 67q0 9 0.5 245.5t1 536t1 532l0.5 232.5h308v-872v-55v-806q2 -67 20 -165.5t65.5 -201t138.5 -181.5
t238 -108q1 -1 2 -1h3q98 -11 126 -10h2h4q180 0 337.5 66.5t277 184t187.5 272.5t68 331v264v1282zM1084 2931v0l323 -231l-16 -43l-307 141v0v0l-308 -141l-16 43l324 231v0v0z" />
    <glyph glyph-name="Udieresis" unicode="&#xdc;" horiz-adv-x="1919" 
d="M1879 2412v0h40v-1546q0 -136 -40 -263q-65 -209 -226 -369q-131 -127 -296 -194.5t-348 -67.5q-333 0 -598 221q-23 20 -45 41q-237 237 -264 566q-2 33 -2 66v245.5t0.5 536t1 532l0.5 232.5h309v-872v-54v-807q1 -67 19 -165.5t66 -201t138.5 -181.5t238.5 -108
q1 0 2 -1h3q98 -11 125 -10h3h3q180 0 338 66.5t277 184t187 272.5t68 331v264v1282zM875 2653v0q-52 0 -88 37.5t-35 90.5q3 51 38.5 85t84.5 34q50 0 86.5 -36.5t36.5 -86.5q0 -51 -36.5 -87.5t-86.5 -36.5zM1302 2653v0q-52 0 -87.5 37.5t-35.5 90.5q3 51 38.5 85
t84.5 34q50 0 86.5 -36.5t36.5 -86.5q0 -51 -36.5 -87.5t-86.5 -36.5z" />
    <glyph glyph-name="Yacute" unicode="&#xdd;" horiz-adv-x="2286" 
d="M2286 2440v0l-908 -1373l1 -2v-1071h-309v978l-970 1468h369l601 -908l284 -429l884 1337h48zM1621 2927v0l53 -95l-640 -179l-25 40z" />
    <glyph glyph-name="Thorn" unicode="&#xde;" horiz-adv-x="1969" 
d="M1875 1595v0q98 -194 90 -408t-121 -400q-115 -183 -299.5 -286t-400.5 -105v0h-731v-406h-309v2448h309v-397h638h34q63 1 126 -3q214 -20 389.5 -136.5t274.5 -306.5zM1022 433v0q170 42 302.5 154t209.5 275t77 353q0 191 -77 354t-209.5 274.5t-302.5 154.5h-102
h-116h-116h-272v-1565h606z" />
    <glyph glyph-name="germandbls" unicode="&#xdf;" horiz-adv-x="1884" 
d="M1799 1053v0q85 -178 72.5 -367.5t-112 -351t-273.5 -255.5q-111 -57 -250 -73t-272 16.5t-229.5 119.5t-123.5 234l39 6q19 -104 88.5 -179t165.5 -117.5t196 -49.5q201 110 304 307t103 423q-4 236 -116 431.5t-304 328.5q-26 5 -56 8q-67 3 -118 30q-44 33 -34.5 79
t53.5 72h1q21 11 42 16q29 7 54 24q36 28 59 68q50 92 47 198q-2 114 -57.5 213.5t-151.5 160.5q-265 20 -515 -74v-313v-638.5v-639.5v-246v-245.5v-245.5h-309v466v883v851l-2 3q362 263 808 240q111 -6 223.5 -37t203.5 -97.5t138 -176.5q29 -75 21.5 -154t-54.5 -145
q-55 -71 -136 -92.5t-167 -22.5l-28 -2q-39 0 -79 -5t-74 -22q-33 -18 -38 -45.5t31 -45.5q45 -16 99 -20q34 -3 63 -9q82 -19 160 -50q166 -65 306 -181.5t222 -277.5z" />
    <glyph glyph-name="agrave" unicode="&#xe0;" horiz-adv-x="1906" 
d="M1598 1499v0v262h308v-1764h-308v258q-126 -124 -285.5 -190t-334.5 -66q-176 0 -336 66t-285 191q-125 126 -191 285.5t-66 335.5t66 335.5t191 285.5q125 125 285 191t336 66q175 0 334.5 -65.5t285.5 -190.5zM1598 1377v0v64q-63 68 -138 121v0q-177 108 -314.5 131
t-238 -6.5t-165 -81.5t-96.5 -95q-86 -117 -135.5 -280t-49.5 -353q0 -216 63.5 -396.5t171.5 -296.5q31 -34 111.5 -78t214.5 -51t325 70q144 71 251 188v61v1003zM1361 2036v0l-25 -40l-639 179l52 95z" />
    <glyph glyph-name="aacute" unicode="&#xe1;" 
d="M1599 1499v0v262h308v-1764h-308v258q-126 -124 -285.5 -190t-334.5 -66q-176 0 -336 66t-285 191q-125 126 -191.5 285.5t-66.5 335.5t66.5 335.5t191.5 285.5q125 125 285 191t336 66q175 0 334.5 -65.5t285.5 -190.5zM1599 1377v0v64q-63 68 -138 121v0
q-177 108 -314.5 131t-238 -6.5t-165 -81.5t-96.5 -95q-86 -117 -135.5 -280t-49.5 -353q0 -216 63.5 -396.5t171.5 -296.5q30 -34 110.5 -78t214.5 -51t325 70q144 71 252 188v61v1003zM1362 2175v0l-639 -179l-25 40l612 234z" />
    <glyph glyph-name="acircumflex" unicode="&#xe2;" 
d="M1598 1499v0v262h309v-1764h-309v258q-125 -124 -284.5 -190t-335.5 -66q-175 0 -335 66t-285 191q-125 126 -191.5 285.5t-66.5 335.5t66.5 335.5t191.5 285.5q125 125 285 191t335 66q176 0 335.5 -65.5t284.5 -190.5zM1598 1377v0v64q-62 68 -137 121v0
q-177 108 -315 131t-238 -6.5t-164.5 -81.5t-96.5 -95q-86 -117 -136 -280t-50 -353q0 -216 64 -396.5t172 -296.5q30 -34 110.5 -78t214.5 -51t325 70q144 71 251 188v61v1003zM1056 2120v0l-308 -141l-16 43l324 231l323 -231l-16 -43z" />
    <glyph glyph-name="atilde" unicode="&#xe3;" 
d="M1598 1499v0v262h309v-1764h-309v258q-125 -124 -284.5 -190t-335.5 -66t-335.5 66t-285.5 191q-125 126 -191 285.5t-66 335.5t66 335.5t191 285.5q126 125 285.5 191t335.5 66t335.5 -65.5t284.5 -190.5zM1598 1377v0v64q-62 68 -138 121v0q-177 108 -314.5 131
t-237.5 -6.5t-165 -81.5t-96 -95q-86 -117 -136 -280t-50 -353q0 -216 64 -396.5t172 -296.5q30 -34 110.5 -78t214.5 -51t325 70q144 71 251 188v61v1003zM758 2045v0l-35 50l-36 50q6 4 63.5 19.5t146 13.5t186.5 -50q39 -20 74 -24t61.5 1t42 12l15.5 7l97 -87
q-27 -18 -76 -33.5t-113 -16.5q-86 -2 -185 46q-59 29 -113 30.5t-89 -7.5t-39 -11z" />
    <glyph glyph-name="adieresis" unicode="&#xe4;" 
d="M1598 1499v0v262h309v-1764h-309v258q-125 -124 -284.5 -190t-335.5 -66t-335.5 66t-285.5 191q-125 126 -191 285.5t-66 335.5t66 335.5t191 285.5q126 125 285.5 191t335.5 66t335.5 -65.5t284.5 -190.5zM1598 1377v0v64q-62 68 -138 121v0q-177 108 -314.5 131
t-237.5 -6.5t-165 -81.5t-96 -95q-86 -117 -136 -280t-50 -353q0 -216 64 -396.5t172 -296.5q30 -34 110.5 -78t214.5 -51t325 70q144 71 251 188v61v1003zM789 1987v0q-51 0 -87 37.5t-36 90.5q4 50 39.5 84.5t83.5 34.5q51 0 87.5 -36.5t36.5 -87.5q0 -50 -36.5 -86.5
t-87.5 -36.5zM1217 1987v0q-52 0 -87.5 37.5t-35.5 90.5q3 50 38.5 84.5t84.5 34.5q50 0 86.5 -36.5t36.5 -87.5q0 -50 -36.5 -86.5t-86.5 -36.5z" />
    <glyph glyph-name="aring" unicode="&#xe5;" 
d="M1598 1499v0v262h309v-1764h-309v258q-126 -124 -285 -190t-335 -66t-335.5 66t-285.5 191q-125 126 -191 285.5t-66 335.5t66 335.5t191 285.5q126 125 285.5 191t335.5 66t335 -65.5t285 -190.5zM1598 1377v0v64q-62 68 -138 121v0q-177 108 -314.5 131t-237.5 -6.5
t-165 -81.5t-96 -95q-87 -117 -136.5 -280t-49.5 -353q0 -216 64 -396.5t172 -296.5q30 -34 110.5 -78t214.5 -51t325 70q144 71 251 188v61v1003zM1003 1984v0q-58 0 -102 44q-42 45 -41 105q4 58 45 97.5t98 39.5q58 0 100.5 -42.5t42.5 -100.5t-42.5 -100.5t-100.5 -42.5
zM900 2131v0q-1 -43 29 -75q32 -32 74 -32t72.5 30.5t30.5 72.5t-30.5 72.5t-72.5 30.5q-41 0 -70.5 -28.5t-32.5 -70.5z" />
    <glyph glyph-name="ae" unicode="&#xe6;" horiz-adv-x="3338" 
d="M3338 1020v0h-1420q-35 -315 74 -611q44 -127 135 -225q88 -90 206 -132q113 -41 231 -27q62 7 124 24.5t114 51.5q108 75 160.5 195.5t36.5 251.5h288q-23 -59 -55 -115q-139 -237 -377.5 -357.5t-512.5 -92.5q-243 30 -436 175v-161h-308v258q-126 -124 -285.5 -190
t-334.5 -66q-176 0 -335.5 66t-285.5 191q-125 126 -191 285.5t-66 335.5t66 335.5t191 285.5q126 125 285.5 191t335.5 66q175 0 334.5 -65.5t285.5 -190.5v262h308v-160q180 132 397.5 167.5t431.5 -34.5q236 -81 402 -272.5t201 -441.5zM2272 1695v0
q-109 -63 -180.5 -167t-112 -226.5t-56.5 -241.5h1051q-28 220 -136 413q-45 76 -107 140t-144 101q-162 64 -315 -19zM1598 1179v0v262q-31 34 -66 64q-34 31 -72 57q-177 108 -314.5 131t-237.5 -6.5t-165 -81.5t-96 -95q-87 -117 -136.5 -280t-49.5 -353
q0 -216 63.5 -396.5t171.5 -296.5q31 -34 111.5 -78t214.5 -51t325 70q144 71 251 188v261v605z" />
    <glyph glyph-name="ccedilla" unicode="&#xe7;" horiz-adv-x="1869" 
d="M1869 548v0v0v0v0v0v0q-84 -209 -252.5 -353.5t-386.5 -195.5v0q-79 -18 -159 -21l-10 -27h-1l-32 -88q34 -12 63.5 -35t44.5 -57q28 -75 -24 -136q-9 -9 -19 -16q-51 -34 -118 -36.5t-124 8.5l17 99q39 -7 78 -7q21 1 41 3l10 2q16 3 30.5 10t18.5 19q1 4 0 9
q-2 7 -8 15q-4 6 -9 10q-1 0 -1 1v0q-21 17 -51.5 23.5t-59.5 9.5h-2l-21 3l22 58l48 133q-191 14 -362 104v0q-23 16 -47 31q-57 34 -109 77q-73 62 -132 137q-108 141 -155 313q-88 342 71 656q159 295 470 422q311 117 626 12q325 -118 495 -420h-326
q-37 104 -100.5 201.5t-155 162t-210.5 66.5q-102 -2 -183.5 -51.5t-142.5 -127.5t-101 -165q-73 -156 -96.5 -328t-5.5 -343q14 -162 72.5 -321t185.5 -266q122 -96 278 -114q78 -8 155 6.5t150 43.5v0q107 60 159.5 139.5t69 155.5t14 127l-2.5 51h244v0v0h44z" />
    <glyph glyph-name="egrave" unicode="&#xe8;" horiz-adv-x="1928" 
d="M1384 1020v0h-877q-35 -315 74 -611q44 -127 135 -225q88 -90 206 -132q113 -41 232 -27q61 7 123 24.5t114 51.5q108 75 161 195.5t36 251.5h288q-23 -59 -55 -115q-139 -237 -377.5 -357.5t-511.5 -92.5q-266 34 -468.5 200.5t-286.5 420.5q-77 251 -12.5 500
t253.5 432q185 170 426 223t480 -25q236 -81 402 -272.5t202 -441.5h-93h-451zM861 1695v0q-109 -63 -180.5 -167t-112 -226.5t-56.5 -241.5h1051q-27 220 -136 413q-44 76 -106.5 140t-143.5 101q-163 64 -316 -19zM1364 2018v0l-26 -39l-639 178l52 95z" />
    <glyph glyph-name="eacute" unicode="&#xe9;" horiz-adv-x="1928" 
d="M1384 1020v0h-876q-36 -315 73 -611q45 -127 135 -225q88 -90 207 -132q112 -41 231 -27q61 7 123 24.5t114 51.5q108 75 161 195.5t36 251.5h288q-23 -59 -54 -115q-139 -237 -378 -357.5t-512 -92.5q-265 34 -468 200.5t-287 420.5q-77 251 -12.5 500t253.5 432
q185 170 426 223t481 -25q235 -81 401 -272.5t202 -441.5h-92h-452zM861 1695v0q-108 -63 -180 -167t-112.5 -226.5t-55.5 -241.5h1050q-27 220 -136 413q-44 76 -106.5 140t-143.5 101q-162 64 -316 -19zM1432 2153v0l-639 -178l-25 39l612 234z" />
    <glyph glyph-name="ecircumflex" unicode="&#xea;" horiz-adv-x="1928" 
d="M1384 1020v0h-876q-36 -315 73 -611q45 -127 135 -225q88 -90 207 -132q112 -41 231 -27q62 7 123.5 24.5t113.5 51.5q108 75 161 195.5t36 251.5h288q-23 -59 -54 -115q-139 -237 -378 -357.5t-512 -92.5q-265 34 -468 200.5t-287 420.5q-77 251 -12.5 500t253.5 432
q185 170 426 223t481 -25q235 -81 401 -272.5t202 -441.5h-92h-452zM861 1695v0q-108 -63 -180 -167t-112.5 -226.5t-55.5 -241.5h1050q-27 220 -136 413q-44 76 -106.5 140t-143.5 101q-162 64 -316 -19zM1038 2115v0l-307 -140l-17 43l324 230l324 -230l-17 -43z" />
    <glyph glyph-name="edieresis" unicode="&#xeb;" horiz-adv-x="1928" 
d="M1384 1020v0h-876q-36 -315 73 -611q45 -127 135 -225q89 -90 207 -132q112 -41 231 -27q62 7 123.5 24.5t114.5 51.5q108 75 160.5 195.5t35.5 251.5h289q-24 -59 -55 -115q-139 -237 -378 -357.5t-512 -92.5q-265 34 -467.5 200.5t-287.5 420.5q-77 251 -12.5 500
t253.5 432q185 170 426 223t481 -25q235 -81 401 -272.5t202 -441.5h-92h-452zM861 1695v0q-108 -63 -179.5 -167t-112.5 -226.5t-56 -241.5h1050q-27 220 -136 413q-44 76 -106 140t-144 101q-162 64 -316 -19zM824 1979v0q-52 0 -87.5 37.5t-35.5 90.5q3 50 38.5 84
t84.5 34q50 0 86.5 -36.5t36.5 -86.5t-36.5 -86.5t-86.5 -36.5zM1252 1979v0q-52 0 -88 37.5t-35 90.5q3 50 38.5 84t84.5 34q50 0 86.5 -36.5t36.5 -86.5t-36.5 -86.5t-86.5 -36.5z" />
    <glyph glyph-name="igrave" unicode="&#xec;" horiz-adv-x="479" 
d="M112 -1v0v1760h309v-1760h-309zM-66 2159v0l52 95l613 -234l-26 -39z" />
    <glyph glyph-name="iacute" unicode="&#xed;" horiz-adv-x="479" 
d="M112 -1v0v1760h309v-1760h-309zM-66 2020v0l612 234l53 -95l-640 -178z" />
    <glyph glyph-name="icircumflex" unicode="&#xee;" horiz-adv-x="489" 
d="M113 -1v0v1760h309v-1760h-309zM-56 2024v0l324 230l323 -230l-16 -43l-307 140l-307 -140z" />
    <glyph glyph-name="idieresis" unicode="&#xef;" horiz-adv-x="497" 
d="M116 -1v0v1760h309v-1760h-309zM180 2103v0q0 -50 -36.5 -86.5t-87.5 -36.5t-87 37t-36 91q4 50 39.5 84t83.5 34q51 0 87.5 -36.5t36.5 -86.5zM484 2226v0q50 0 86.5 -36.5t36.5 -86.5t-36.5 -86.5t-86.5 -36.5q-52 0 -87.5 37t-35.5 91q3 50 38.5 84t84.5 34z" />
    <glyph glyph-name="eth" unicode="&#xf0;" horiz-adv-x="1917" 
d="M1810 1267v0q10 -21 19 -44q88 -200 68 -399q-17 -265 -173 -480q-168 -225 -433 -318q-276 -91 -554 -8q-265 84 -440 300q-176 225 -194 510v0v0v8q-3 65 3 130q31 281 213 497q185 211 455 283q92 24 186 28q134 6 264 -27q-152 229 -417 488l-325 -325h-259l449 448
q-142 126 -318 255l97.5 -59t251.5 -164l312 311h259l-420 -419q175 -128 360 -289t343 -345.5t253 -380.5zM1542 828v0q0 36 -1 72q-4 84 -17 163q-22 129 -95 311q-79 165 -195 261t-252 100v0l-42 -2v0v0v0q-146 -18 -257.5 -139t-172 -313.5t-52.5 -426.5v-1
q12 -238 92 -428t206 -299.5t277 -106.5h6q141 9 253 116t178.5 284t71.5 396h-1z" />
    <glyph glyph-name="ntilde" unicode="&#xf1;" horiz-adv-x="1555" 
d="M1247 1724v0q168 -53 244 -183q45 -82 54.5 -173.5t7.5 -172.5l-4 -1196l-20 1h-288v1322q0 135 -37.5 210t-96 106t-124.5 33t-124.5 -11.5t-96.5 -28.5l-38 -15h1v1q-87 -48 -166 -107.5t-151 -121.5v-1391h-308v1760h308v-316q105 89 225 168t262 119q179 47 352 -4z
M555 2037v0l-36 50l-35 50q5 4 63 19.5t146 13.5t186 -50q40 -20 75 -24t61.5 1t42 12l15.5 7l96 -87q-27 -18 -75.5 -33.5t-112.5 -16.5q-87 -2 -186 46q-59 29 -112.5 30.5t-89 -7.5t-38.5 -11z" />
    <glyph glyph-name="ograve" unicode="&#xf2;" horiz-adv-x="1857" 
d="M979 1757v0q176 0 335.5 -66t285.5 -191q125 -126 191 -285.5t66 -335.5t-66 -336t-191 -286q-126 -125 -285.5 -191t-335.5 -66t-336 66t-286 191q-125 126 -191 286t-66 336t66 335.5t191 285.5q126 125 286 191t336 66zM1343 288v0q151 257 151 592t-151 592
q-158 245 -364 245q-207 0 -365 -245q-151 -257 -151 -592t151 -592q158 -244 365 -244q206 0 364 244zM1311 2019v0l-25 -40l-640 179l53 95z" />
    <glyph glyph-name="oacute" unicode="&#xf3;" horiz-adv-x="1858" 
d="M979 1757v0q176 0 336 -66t286 -191q125 -126 191 -285.5t66 -335.5t-66 -336t-191 -286q-126 -125 -286 -191t-336 -66t-335.5 66t-285.5 191q-125 126 -191.5 286t-66.5 336t66.5 335.5t191.5 285.5q126 125 285.5 191t335.5 66zM1344 288v0q151 257 151 592t-151 592
q-158 245 -365 245q-206 0 -364 -245q-151 -257 -151 -592t151 -592q158 -244 364 -244q207 0 365 244zM1311 2158v0l-639 -179l-25 40l612 234z" />
    <glyph glyph-name="ocircumflex" unicode="&#xf4;" horiz-adv-x="1857" 
d="M979 1757v0q176 0 335.5 -66t285.5 -191q125 -126 191 -285.5t66 -335.5t-66 -336t-191 -286q-126 -125 -285.5 -191t-335.5 -66t-336 66t-286 191q-125 126 -191 286t-66 336t66 335.5t191 285.5q126 125 286 191t336 66zM1343 288v0q151 257 151 592t-151 592
q-158 245 -364 245q-207 0 -365 -245q-151 -257 -151 -592t151 -592q158 -244 365 -244q206 0 364 244zM979 2120v0l-308 -141l-16 43l324 231l323 -231l-16 -43z" />
    <glyph glyph-name="otilde" unicode="&#xf5;" horiz-adv-x="1858" 
d="M979 1757v0q176 0 336 -66t285 -191q125 -126 191.5 -285.5t66.5 -335.5t-66.5 -336t-191.5 -286q-125 -125 -285 -191t-336 -66t-336 66t-285 191q-125 126 -191.5 286t-66.5 336t66.5 335.5t191.5 285.5q125 125 285 191t336 66zM1343 288v0q152 257 152 592t-152 592
q-158 245 -364 245t-364 -245q-152 -257 -152 -592t152 -592q158 -244 364 -244t364 244zM707 2037v0l-35 50l-36 50q6 4 63.5 19.5t146 13.5t186.5 -50q40 -20 74.5 -24t61.5 1t42 12l15 7l97 -87q-27 -18 -76 -33.5t-113 -16.5q-86 -2 -185 46q-59 29 -113 30.5t-89 -7.5
t-39 -11z" />
    <glyph glyph-name="odieresis" unicode="&#xf6;" horiz-adv-x="1857" 
d="M978 1757v0q176 0 336 -66t286 -191q125 -126 191 -285.5t66 -335.5t-66 -336t-191 -286q-126 -125 -286 -191t-336 -66t-335.5 66t-285.5 191q-125 126 -191 286t-66 336t66 335.5t191 285.5q126 125 285.5 191t335.5 66zM1343 288v0q151 257 151 592t-151 592
q-158 245 -365 245q-206 0 -364 -245q-151 -257 -151 -592t151 -592q158 -244 364 -244q207 0 365 244zM813 1980v0q-52 0 -88 37t-35 91q3 50 38.5 84t84.5 34q50 0 86.5 -36.5t36.5 -86.5t-36.5 -86.5t-86.5 -36.5zM1240 1980v0q-52 0 -87.5 37t-35.5 91q3 50 38.5 84
t84.5 34q51 0 87 -36.5t36 -86.5t-36 -86.5t-87 -36.5z" />
    <glyph glyph-name="divide" unicode="&#xf7;" horiz-adv-x="1489" 
 />
    <glyph glyph-name="oslash" unicode="&#xf8;" horiz-adv-x="1857" 
d="M1600 1500v0q125 -126 191 -285.5t66 -335.5t-66 -336t-191 -286q-126 -125 -286 -191t-336 -66q-207 0 -391 91l-63 -97h-218l127 195q-40 32 -76 68q-125 126 -191 286t-66 336t66 335.5t191 285.5q126 125 285.5 191t335.5 66q220 0 413 -102l71 108h218l-62 -95
l-76 -115q30 -25 58 -53zM463 880v0q0 -270 99 -494l744 1139q-146 192 -328 192q-206 0 -364 -245q-151 -257 -151 -592zM1343 288v0q151 257 151 592q0 252 -87 465l-740 -1132q140 -169 311 -169q207 0 365 244z" />
    <glyph glyph-name="ugrave" unicode="&#xf9;" horiz-adv-x="1556" 
d="M1247 1754v0h309v-1761h-309v317q-104 -90 -224.5 -168.5t-261.5 -119.5q-83 -22 -170 -22q-95 0 -183 26q-167 53 -244 183q-45 83 -54.5 174t-7.5 173q1 150 1.5 350.5t1.5 393t1 322v129.5h308v-1323q0 -134 38 -209t96.5 -106.5t124 -33t124.5 12t96.5 28.5l37.5 15
v-1h-1q88 48 166.5 107t150.5 121v1392zM492 2247v0l-52 -95l639 -178l26 39z" />
    <glyph glyph-name="uacute" unicode="&#xfa;" horiz-adv-x="1556" 
d="M1247 1754v0h309v-1761h-309v317q-104 -90 -224.5 -168.5t-261.5 -119.5q-83 -22 -170 -22q-96 0 -183 26q-168 53 -244 183q-45 83 -54.5 174t-7.5 173q1 150 1.5 350.5t1 393t1 322l0.5 129.5h308v-1323q0 -134 37.5 -209t96.5 -106.5t124.5 -33t124 12t96.5 28.5
l38 15l-1 -1v0q87 48 166 107t151 121v1392zM1168 2247v0l52 -95l-639 -178l-25 39z" />
    <glyph glyph-name="ucircumflex" unicode="&#xfb;" horiz-adv-x="1555" 
d="M1247 1754v0h308v-1761h-308v317q-105 -90 -225 -168.5t-262 -119.5q-82 -22 -169 -22q-96 0 -183 26q-168 53 -244 183q-45 83 -54.5 174t-7.5 173q0 150 1 350.5t1.5 393t1 322l0.5 129.5h308v-1323q0 -134 37.5 -209t96 -106.5t124.5 -33t124.5 12t96.5 28.5l38 15
q-1 0 -1 -1v0q87 48 166 107t151 121v1392zM828 2247v0l324 -231l-16 -42l-308 140v0v0l-307 -140l-16 42l323 231v0v0z" />
    <glyph glyph-name="udieresis" unicode="&#xfc;" horiz-adv-x="1556" 
d="M1247 1754v0h309v-1761h-309v317q-104 -90 -224.5 -168.5t-261.5 -119.5q-83 -22 -169 -22q-96 0 -184 26q-167 53 -244 183q-45 83 -54.5 174t-7.5 173q1 150 1.5 350.5t1.5 393t1.5 322l0.5 129.5h307v-1323q0 -134 38 -209t96.5 -106.5t124.5 -33t124.5 12t96 28.5
l37.5 15v-1h-1q88 48 166.5 107t150.5 121v1392zM619 1987v0q-51 0 -87 37.5t-36 90.5q4 50 39 84.5t84 34.5q51 0 87.5 -36.5t36.5 -87.5q0 -50 -36.5 -86.5t-87.5 -36.5zM1047 1987v0q-52 0 -87.5 37.5t-35.5 90.5q3 50 38.5 84.5t84.5 34.5q50 0 86.5 -36.5t36.5 -87.5
q0 -50 -36.5 -86.5t-86.5 -36.5z" />
    <glyph glyph-name="yacute" unicode="&#xfd;" horiz-adv-x="1737" 
d="M1694 1754v0h44q-2 -5 -24 -53q-53 -119 -171 -383.5t-251 -563t-230.5 -516.5t-109.5 -243q-51 -111 -120 -229.5t-155.5 -230.5t-190 -202t-225 -143.5t-259.5 -53.5v214l35 -12t97.5 -16t146 14.5t180.5 76t202 169.5q51 68 101 148q92 151 156 291l-807 1733h340
l634 -1359l74 166.5t149 333t172 385.5q88 196 147.5 330t64.5 144zM1316 2247v0l53 -95l-640 -178l-25 39z" />
    <glyph glyph-name="thorn" unicode="&#xfe;" 
d="M1650 1493v0q125 -126 191 -285.5t66 -335.5t-66 -336t-191 -285q-126 -125 -285.5 -191t-335.5 -66t-335 65.5t-285 190.5v-1117h-309v2623v681h309v-681v0v-262q126 124 285 190t335 66t335.5 -66t285.5 -191zM409 308v0q107 -117 251 -189q191 -76 325 -69t214.5 50.5
t110.5 78.5q108 115 172 296t64 397q0 189 -49.5 352.5t-136.5 280.5q-31 43 -96 95t-165 81.5t-237.5 6t-314.5 -130.5q-76 -53 -138 -122v-1127z" />
    <glyph glyph-name="ydieresis" unicode="&#xff;" horiz-adv-x="1738" 
d="M1694 1754v0h44q-2 -5 -24 -53q-53 -119 -171 -383.5t-251 -563t-230.5 -516.5t-109.5 -243q-51 -111 -120 -229.5t-155.5 -230.5t-190 -202t-225 -143.5t-259.5 -53.5v214l35 -12t97.5 -16t146 14.5t180.5 76t202 169.5q51 68 101 148q92 151 156 291l-807 1733h340
l634 -1359q22 50 142 318.5t252 564.5q88 197 148 331.5t65 144.5zM833 1981v0q-52 0 -88 37.5t-35 90.5q3 50 38.5 84t84.5 34q50 0 86.5 -36.5t36.5 -86.5t-36.5 -86.5t-86.5 -36.5zM1260 1981v0q-52 0 -87.5 37.5t-35.5 90.5q3 50 38.5 84t84.5 34q51 0 87.5 -36.5
t36.5 -86.5t-36.5 -86.5t-87.5 -36.5z" />
    <glyph glyph-name="gravecomb" unicode="&#x300;" horiz-adv-x="764" 
 />
    <glyph glyph-name="acutecomb" unicode="&#x301;" horiz-adv-x="765" 
 />
    <glyph glyph-name="uni0302" unicode="&#x302;" horiz-adv-x="748" 
 />
    <glyph glyph-name="tildecomb" unicode="&#x303;" horiz-adv-x="786" 
 />
    <glyph glyph-name="uni0304" unicode="&#x304;" horiz-adv-x="871" 
 />
    <glyph glyph-name="uni0307" unicode="&#x307;" horiz-adv-x="347" 
 />
    <glyph glyph-name="uni0308" unicode="&#x308;" horiz-adv-x="774" 
 />
    <glyph glyph-name="uni030A" unicode="&#x30a;" horiz-adv-x="388" 
 />
    <glyph glyph-name="uni030C" unicode="&#x30c;" horiz-adv-x="747" 
 />
    <glyph glyph-name="uni0327" unicode="&#x327;" horiz-adv-x="413" 
 />
    <glyph glyph-name="quoteleft" unicode="&#x2018;" horiz-adv-x="436" 
 />
    <glyph glyph-name="quoteright" unicode="&#x2019;" horiz-adv-x="435" 
 />
    <glyph glyph-name="quotesinglbase" unicode="&#x201a;" horiz-adv-x="436" 
 />
    <glyph glyph-name="quotedblleft" unicode="&#x201c;" horiz-adv-x="854" 
 />
    <glyph glyph-name="quotedblright" unicode="&#x201d;" horiz-adv-x="854" 
 />
    <glyph glyph-name="quotedblbase" unicode="&#x201e;" horiz-adv-x="854" 
 />
    <glyph glyph-name="Euro" unicode="&#x20ac;" horiz-adv-x="2323" 
 />
    <glyph glyph-name="trademark" unicode="&#x2122;" horiz-adv-x="1099" 
 />
    <glyph glyph-name="A.salt" unicode="&#xe000;" horiz-adv-x="2120" 
d="M2120 -4v0h-334l-156 375q-26 17 -111.5 62.5t-211.5 94.5q-134 53 -309.5 81t-349.5 -19q-283 -84 -426 -403v0l-79 -191h-43l843 2027l-175 421h334zM1486 495v0q73 -36 118 -62l-640 1538l-482 -1161q114 47 280 8t331.5 -115t279 -142l113.5 -66v0v0zM1480 498v0
q1 -1 2 -1q2 -1 3 -2q-2 2 -5 3z" />
    <glyph glyph-name="C.salt" unicode="&#xe001;" horiz-adv-x="2286" 
d="M2245 464v0l41 -14q-41 -51 -88 -98q-176 -175 -399.5 -267.5t-469.5 -92.5t-469.5 92.5t-399.5 267.5q-175 176 -267.5 399.5t-92.5 469.5t92.5 469.5t267.5 399.5q176 175 399.5 267.5t469.5 92.5q231 0 442 -81.5t382 -235.5q-4 -4 -9 -7q-13 -8 -25 -17
q-37 -25 -75 -51q-33 -23 -67 -46q-197 308 -500 389v0q-73 9 -148 9q-83 0 -163 -11v0v0q-203 -54 -362 -220.5t-252 -414t-93 -540.5q0 -309 103.5 -567.5t278 -422.5t395.5 -198v0q46 -4 93 -4q39 0 78 3v0q195 27 355.5 157.5t268.5 338.5zM1345 1406v0q24 -55 66 -96
q41 -42 96 -65q55 -24 118 -24q-63 0 -118 -24q-55 -23 -96 -65q-42 -41 -66 -96q-23 -55 -23 -118q0 63 -24 118q-23 55 -65 96q-41 42 -96 65q-55 24 -118 24q63 0 118 24q55 23 96 65q42 41 65 96q24 55 24 118q0 -63 23 -118z" />
    <glyph glyph-name="O.salt" unicode="&#xe002;" horiz-adv-x="2571" 
d="M1305 1036v0q-24 55 -65 96q-42 42 -97 65q-55 24 -117 24q62 0 117 24q55 23 97 65q41 41 65 96t24 118q0 -63 23 -118q24 -55 65 -96q42 -42 97 -65q55 -24 118 -24q-63 0 -118 -24q-55 -23 -97 -65q-41 -41 -65 -96q-23 -55 -23 -118q0 63 -24 118zM2205 2099v0
q67 -67 123 -143q226 -318 234.5 -699t-203.5 -708q-224 -325 -582.5 -463t-743.5 -47q-377 101 -626.5 391t-293.5 678q-33 392 155 725.5t541 507.5q358 164 736 98t660 -340zM1414 44v0q148 21 272.5 99t217.5 193q204 255 265.5 581.5t-3.5 643.5q-37 183 -124.5 359
t-226.5 308t-331 182v0q-155 19 -311 -2v0v0q-155 -42 -277.5 -143t-208.5 -235q-184 -291 -215.5 -641t80.5 -674q49 -142 129.5 -270.5t195.5 -227.5q103 -89 231 -138q149 -50 306 -35z" />
    <glyph glyph-name="Q.salt" unicode="&#xe003;" horiz-adv-x="2557" 
d="M2557 1228v0q0 -246 -92.5 -469.5t-267.5 -399.5q-205 -204 -472 -295l356 -356l-29 -28l-370 370q-171 -51 -354 -51q-246 0 -469.5 92.5t-399.5 267.5q-174 176 -266.5 399.5t-92.5 469.5t92.5 469.5t266.5 399.5q176 175 399.5 267.5t469.5 92.5q247 0 470.5 -92.5
t398.5 -267.5q175 -176 267.5 -399.5t92.5 -469.5zM1407 42v0v0q113 15 216 67l-230 230l28 29l239 -239q157 92 276.5 256t187 381t67.5 465q0 294 -94 543t-254.5 415t-365.5 219v0q-73 9 -149 9q-82 0 -162 -11v0v0q-203 -54 -362 -220.5t-252 -414t-93 -540.5
q0 -309 103 -567.5t278 -422.5t395 -198v0q46 -4 93 -4q40 0 79 3zM1510 1204v0q-55 -23 -96 -65q-42 -41 -65 -96q-24 -55 -24 -118q0 63 -24 118q-23 55 -65 96q-41 42 -96 65q-55 24 -118 24q63 0 118 24q55 23 96 65q42 41 65 96q24 55 24 118q0 -63 24 -118
q23 -55 65 -96q41 -42 96 -65q55 -24 118 -24q-63 0 -118 -24z" />
    <glyph glyph-name="U.salt" unicode="&#xe004;" horiz-adv-x="1921" 
d="M1879 2447v0h40v-1546q0 -136 -40 -263q-65 -209 -226 -369q-130 -127 -295.5 -194.5t-347.5 -67.5q-334 0 -599 221q-23 20 -44 41q-237 237 -265 566q-2 33 -2 66q0 9 0.5 245.5t1 536t0.5 532v232.5h309v-872v-54v-807q2 -67 19.5 -165.5t65.5 -201t139 -181.5
t238 -108q1 0 2 -1h3q98 -11 126 -10h2h4q180 0 337.5 67t277 184t187 272t67.5 331v264v1282zM1292 1204v0q-55 -23 -96 -65q-42 -41 -65 -96q-24 -55 -24 -118q0 63 -24 118q-23 55 -65 96q-41 42 -96 65q-55 24 -118 24q63 0 118 24q55 23 96 65q42 41 65 96
q24 55 24 118q0 -63 24 -118q23 -55 65 -96q41 -42 96 -65q55 -24 118 -24q-63 0 -118 -24z" />
    <glyph glyph-name="a.salt" unicode="&#xe011;" 
d="M1598 1758v0h309v-1765h-309v259q-125 -125 -284.5 -190.5t-335.5 -65.5t-335.5 66t-285.5 191q-125 126 -191 285.5t-66 335.5t66 335.5t191 285.5q126 125 285.5 191t335.5 66t335.5 -66t284.5 -190v262zM1347 121v0q144 72 251 189v1128q-62 68 -138 121
q-177 108 -314.5 131t-237.5 -6.5t-165 -81.5t-96 -95q-86 -117 -136 -280.5t-50 -352.5q0 -216 64 -397t172 -296q30 -34 110.5 -78t214.5 -51t325 69zM1072 -747v0q-23 55 -65 97q-41 41 -96 65q-55 23 -118 23q63 0 118 24t96 65q42 42 65 97q24 55 24 117q0 -62 23 -117
q24 -55 66 -97q41 -41 96 -65t118 -24q-63 0 -118 -23q-55 -24 -96 -65q-42 -42 -66 -97q-23 -55 -23 -118q0 63 -24 118z" />
    <glyph glyph-name="e.salt" unicode="&#xe012;" horiz-adv-x="1928" 
d="M1928 1023v0h-224.5h-486.5h-481h-228q-36 -315 73 -611q45 -127 135 -225q88 -90 207 -132q112 -41 231 -27q61 7 123 24.5t114 51.5q108 75 161 195.5t36 251.5h288q-23 -60 -54 -115q-139 -237 -378 -358t-512 -92q-265 33 -468 200t-287 420q-77 252 -12.5 501
t253.5 432q185 170 426 223t481 -25q235 -81 401 -273t202 -441zM512 1063v0h1051q-27 220 -136 412q-44 77 -106.5 141t-143.5 101q-162 64 -316 -19q-108 -63 -180 -167t-112.5 -226.5t-56.5 -241.5zM1014 -737v0q-24 55 -65 97q-42 41 -97 65q-55 23 -117 23q62 0 117 24
t97 65q41 42 65 97t24 117q0 -62 23 -117q24 -55 65 -97q42 -41 97 -65t118 -24q-63 0 -118 -23q-55 -24 -97 -65q-41 -42 -65 -97q-23 -55 -23 -118q0 63 -24 118z" />
    <glyph glyph-name="k.salt" unicode="&#xe013;" horiz-adv-x="1757" 
d="M1354 -4v0l-827 980q-84 -100 -118 -146v-836h-309v2443h309v-1542q35 45 90 110q103 121 212 229q188 186 368 308q227 153 430 196q78 17 152 17v0v0v0v-206l-68.5 5t-181 -6t-246.5 -55.5t-268 -141.5q-87 -75 -158 -145v-1q-1 0 -1 -1l1019 -1208h-403zM774 -747v0
q-24 55 -65 97q-42 41 -97 65q-55 23 -117 23q62 0 117 24t97 65q41 42 65 97t24 117q0 -62 23 -117q24 -55 65 -97q42 -41 97 -65t118 -24q-63 0 -118 -23q-55 -24 -97 -65q-41 -42 -65 -97q-23 -55 -23 -118q0 63 -24 118z" />
    <glyph glyph-name="m.salt" unicode="&#xe014;" horiz-adv-x="2692" 
d="M2628 1537v0q45 -83 54.5 -174t7.5 -173q-2 -597 -4 -1195h-21h-287v1323q0 135 -37.5 209.5t-96.5 106t-124.5 33.5t-124.5 -12t-96.5 -29l-37.5 -15v1h1q-88 -48 -167 -107.5t-151 -121.5q12 -99 9 -188q-2 -597 -4 -1195h-20h-288v1323q0 135 -37.5 209.5t-96 106
t-124.5 33.5t-124.5 -12t-96.5 -29l-38 -15q1 0 1 1v0q-87 -48 -166 -107t-151 -121v-1395h-308v1769h308v-322q105 90 225 168.5t262 119.5q179 47 352 -4q168 -53 244 -183q31 -54 44 -114q106 92 229 173t267 123q180 47 353 -4q168 -53 244 -183zM1367 -745v0
q-24 55 -65 97q-42 41 -97 65q-55 23 -118 23q63 0 118 24t97 65q41 42 65 97q23 55 23 117q0 -62 24 -117t65 -97q42 -41 97 -65t117 -24q-62 0 -117 -23q-55 -24 -97 -65q-41 -42 -65 -97t-24 -118q0 63 -23 118z" />
    <glyph glyph-name="n.salt" unicode="&#xe015;" horiz-adv-x="1556" 
d="M1492 1543v0q45 -82 54.5 -173.5t7.5 -172.5q-2 -598 -4 -1195h-20v0h-288v1322q0 135 -38 210t-96.5 106.5t-124 33t-124.5 -12t-96.5 -28.5l-37.5 -15v0l1 1q-88 -48 -166.5 -107.5t-150.5 -120.5v-1392h-309v1760h309v-316q104 90 224.5 168.5t261.5 119.5
q180 46 353 -5q167 -53 244 -183zM827 -745v0q-23 55 -65 97q-41 41 -96 65q-55 23 -118 23q63 0 118 24t96 65q42 42 65 97q24 55 24 117q0 -62 24 -117q23 -55 65 -97q41 -41 96 -65t118 -24q-63 0 -118 -23q-55 -24 -96 -65q-42 -42 -65 -97q-24 -55 -24 -118
q0 63 -24 118z" />
    <glyph glyph-name="o.salt" unicode="&#xe016;" horiz-adv-x="1856" 
d="M1600 1494v0q125 -125 191 -285t66 -336t-66 -336t-191 -285q-126 -125 -286 -191.5t-336 -66.5t-335.5 66.5t-285.5 191.5q-125 125 -191 285t-66 336t66 336t191 285q126 125 285.5 191.5t335.5 66.5t336 -66.5t286 -191.5zM1343 1466v0q-158 245 -365 245
q-206 0 -364 -245q-151 -256 -151 -592q0 -335 151 -591q158 -245 364 -245q207 0 365 245q151 256 151 591q0 336 -151 592zM955 -747v0q-24 55 -65 97q-42 41 -97 65q-55 23 -118 23q63 0 118 24t97 65q41 42 65 97q23 55 23 117q0 -62 24 -117t65 -97q42 -41 97 -65
t117 -24q-62 0 -117 -23q-55 -24 -97 -65q-41 -42 -65 -97t-24 -118q0 63 -23 118z" />
    <glyph glyph-name="u.salt" unicode="&#xe017;" horiz-adv-x="1556" 
d="M1247 1752v0h309v-1761h-309v317q-104 -90 -224.5 -168.5t-261.5 -119.5q-83 -22 -170 -22q-96 0 -183 26q-168 53 -244 183q-45 83 -54.5 174t-7.5 173q1 147 1.5 346.5t1 393t1 324.5l0.5 131h308v-1323q0 -135 37.5 -209.5t96.5 -106t124.5 -33.5t124.5 11.5t96.5 29
l37.5 15.5q0 -1 -1 -1v0q87 47 166 106.5t151 121.5v1392zM805 -747v0q-23 55 -65 97q-41 41 -96 65q-55 23 -118 23q63 0 118 24t96 65q42 42 65 97q24 55 24 117q0 -62 23 -117q24 -55 66 -97q41 -41 96 -65t118 -24q-63 0 -118 -23q-55 -24 -96 -65q-42 -42 -66 -97
q-23 -55 -23 -118q0 63 -24 118z" />
    <glyph glyph-name="i.salt" unicode="&#xe018;" horiz-adv-x="489" 
d="M142 1756v0h308v-1760h-308v1760zM272 1959v0q-23 55 -65 96q-41 42 -96 65q-55 24 -118 24q63 0 118 24q55 23 96 65q42 41 65 96q24 55 24 118q0 -63 24 -118q23 -55 65 -96q41 -42 96 -65q55 -24 118 -24q-63 0 -118 -24q-55 -23 -96 -65q-42 -41 -65 -96
q-24 -55 -24 -118q0 63 -24 118z" />
    <glyph glyph-name="k.ss01" unicode="&#xe019;" horiz-adv-x="1762" 
d="M743 1204v0l1019 -1209h-403l-827 981q-26 -30 -52.5 -63.5t-45 -57t-20.5 -25.5v-83.5t0.5 -190.5t0.5 -191.5v-85.5q0 -145 -16 -289q-17 -117 -55 -230t-107 -210q-80 -110 -196 -169q-115 -58 -251 -63h-198v115q78 -41 164 -59q87 -18 173 5q26 6 44 16q17 10 34 32
q50 75 67 164q35 168 31 341q0 76 -0.5 299t-1 488t-0.5 468q-1 234 -1 246q0 164 18 327q17 117 55 230t107 209q80 110 196 169q115 59 251 64h198v-116q-22 11 -45 21q-57 24 -121 39q-63 15 -125 5h-4q-49 -5 -92 -29q-36 -28 -56 -75q-21 -46 -31 -89
q-29 -111 -35 -225t-4 -228v-139.5v-287.5v-287.5v-125.5q2 2 17 21t35.5 43.5t37.5 44.5q103 122 212 229q188 186 369 308q227 153 429 197q39 8 77 12q39 4 75 4h1v-205l-69 5t-181.5 -6t-246.5 -56t-268 -142q-87 -74 -158 -145v0q0 -1 -1 -1z" />
    <glyph glyph-name="l.salt" unicode="&#xe020;" horiz-adv-x="508" 
d="M739 2423v0h198v-116q-22 12 -45 21q-57 25 -120.5 39.5t-125.5 5.5q-2 -1 -4 -1q-49 -4 -92 -29q-36 -28 -56.5 -74.5t-30.5 -89.5q-29 -110 -35 -224t-4 -229v-59v-206v-206v-206v-667v-47q5 -177 -15 -354v0q-17 -117 -55 -230t-107 -210q-80 -110 -195.5 -168.5
t-251.5 -63.5v0v0h-198v116q78 -41 164.5 -59t172.5 4q26 7 43.5 16.5t34.5 31.5q50 75 67 164q35 169 31 341q0 278 -1 556v68v697q0 46 -1 92q-6 208 17 415v0q17 117 55 230t107 210q80 110 195.5 168.5t251.5 63.5v0z" />
    <glyph glyph-name="m.ss01" unicode="&#xe021;" horiz-adv-x="2643" 
d="M2641 188v0q4 -94 4 -190h-313v-1v0v1v0v104q2 123 -1 246q-5 300 -38 598q-16 145 -43.5 290.5t-80.5 281.5q-36 99 -106 177q-51 48 -117 45t-126 -38q-107 -63 -180 -171t-121 -233t-80 -239q73 -258 104.5 -525.5t30.5 -535.5h-312v102q1 125 -1 249q-3 282 -30 571
t-119 556q-22 67 -58 133t-92 103.5t-138 19.5q-112 -32 -192.5 -124.5t-135 -208t-87.5 -216.5v-1186h-309v1766h309v-467q41 106 112.5 225t174 196t237.5 58q137 -29 232 -138t156 -249t97 -260q34 112 84.5 231.5t125.5 221.5t182 162q111 55 209.5 27t178.5 -106
t134 -171v4q81 -138 133.5 -291t86.5 -309q79 -350 89 -709z" />
    <glyph glyph-name="n.ss01" unicode="&#xe022;" horiz-adv-x="1576" 
d="M1571 189v0q4 -93 4 -189h-313v102q2 125 -1 249q-3 282 -30 571t-118 556q-23 67 -59 133t-91.5 103.5t-137.5 19.5q-113 -31 -193.5 -124t-134.5 -208.5t-88 -216.5l-1 -1188h-308v1768h309v-467q49 125 125.5 246t193.5 193q122 67 225 37t186 -119t143 -199.5
t95 -204.5q95 -254 139.5 -523t54.5 -539z" />
    </font>
</defs>
</svg>
