<?xml version="1.0" standalone="no"?>
<!DOCTYPE svg PUBLIC "-//W3C//DTD SVG 1.1//EN" "http://www.w3.org/Graphics/SVG/1.1/DTD/svg11.dtd" >
<svg xmlns="http://www.w3.org/2000/svg" xmlns:xlink="http://www.w3.org/1999/xlink" version="1.1">
<metadata>
Created by FontForge 20201107 at Fri Dec 10 18:39:13 2021
 By 
</metadata>
<defs>
<font id="ArsenicaTrial-Light" horiz-adv-x="0" >
  <font-face 
    font-family="Arsenica Trial Light"
    font-weight="300"
    font-stretch="normal"
    units-per-em="1000"
    panose-1="0 0 4 0 0 0 0 0 0 0"
    ascent="800"
    descent="-200"
    x-height="445"
    cap-height="702"
    bbox="-646 -219 1313.85 1042"
    underline-thickness="50"
    underline-position="-100"
    unicode-range="U+0020-F8FF"
  />
<missing-glyph horiz-adv-x="457" 
d="M85 713h289v-913h-289v913zM304 622v30h-151v-30h60v-34h-61v-30h152v30h-60v34h60zM244 470v64h-92v-95h152v31h-60zM183 503h30v-33h-30v33zM304 384v30h-152v-30h61v-33h-61v-31h92v64h60zM304 268v92h-30v-61h-122v-31h152zM304 145v103h-91v-51h31v21h30v-43h-91v73
h-31v-103h152zM304 -13v103h-152v-103h152zM183 60h91v-43h-91v43zM304 -64v30h-152v-30h64l-64 -43v-30h152v30h-93l64 43h29z" />
    <glyph glyph-name=".notdef" horiz-adv-x="457" 
d="M85 713h289v-913h-289v913zM304 622v30h-151v-30h60v-34h-61v-30h152v30h-60v34h60zM244 470v64h-92v-95h152v31h-60zM183 503h30v-33h-30v33zM304 384v30h-152v-30h61v-33h-61v-31h92v64h60zM304 268v92h-30v-61h-122v-31h152zM304 145v103h-91v-51h31v21h30v-43h-91v73
h-31v-103h152zM304 -13v103h-152v-103h152zM183 60h91v-43h-91v43zM304 -64v30h-152v-30h64l-64 -43v-30h152v30h-93l64 43h29z" />
    <glyph glyph-name=".null" 
 />
    <glyph glyph-name="nonmarkingreturn" horiz-adv-x="333" 
 />
    <glyph glyph-name="space" unicode=" " horiz-adv-x="189" 
 />
    <glyph glyph-name="exclam" unicode="!" horiz-adv-x="279" 
d="M108 488q-2 24 -6 85.5t-4 89.5q0 23 8 33t26 10q16 0 24 -10t8 -33q0 -37 -11 -180q-17 -210 -19 -326q0 -4 -3 -4t-4 4q-2 120 -19 331zM95 0.5q-10 7.5 -10 18.5q0 14 16 24.5t41 10.5q16 0 26 -7t10 -18q0 -15 -16.5 -25.5t-40.5 -10.5q-16 0 -26 7.5z" />
    <glyph glyph-name="quotedbl" unicode="&#x22;" horiz-adv-x="145" 
d="M32.5 513q-2.5 0 -3.5 4q-1 67 -14 130q-5 20 -5 29q0 15 4.5 20.5t17.5 5.5q14 0 18.5 -5.5t4.5 -21.5q0 -9 -5 -29q-6 -30 -10 -57t-5 -72q0 -4 -2.5 -4zM112.5 513q-2.5 0 -3.5 4q-1 67 -14 130q-5 20 -5 29q0 15 4.5 20.5t17.5 5.5q14 0 18.5 -5.5t4.5 -21.5
q0 -9 -5 -29q-6 -30 -10 -57t-5 -72q0 -4 -2.5 -4z" />
    <glyph glyph-name="numbersign" unicode="#" horiz-adv-x="484" 
d="M472 461q7 0 7 -3q0 -1 -2.5 -2t-5.5 -1h-47q-28 -126 -45 -210h45q8 0 8 -3q0 -1 -2.5 -2t-5.5 -1h-47q-35 -172 -46 -230q-2 -10 -12 -10q-12 0 -11 13q17 90 47 227h-271l-5 -23l-44 -207q-2 -10 -12 -10q-12 0 -10 13l43 199l6 28h-50q-7 0 -7 3t7 3h51l46 210h-49
q-7 0 -7 3t7 3h50l50 232q3 11 12 11q5 0 7.5 -3.5t1.5 -10.5l-49 -229h271l52 232q3 11 13 11t8 -14l-51 -229h47zM356 245l46 210h-271l-46 -210h271z" />
    <glyph glyph-name="dollar" unicode="$" horiz-adv-x="617" 
d="M530 91.5q-29 -43.5 -82.5 -71.5t-124.5 -32v-53q0 -9 -4 -9t-4 9v52h-13q-67 0 -118 19.5t-78 50.5t-27 65q0 10 1 15l27 136q2 9 5 9q1 0 2 -3t0 -8q-4 -32 -4 -67q0 -107 49.5 -152.5t155.5 -46.5l1 348l-11 5q-99 45 -149 87t-50 102q1 36 25.5 72t72 61.5
t113.5 30.5v51q0 10 4 10t4 -10v-51q6 1 20 1q48 0 92.5 -14.5t73 -41t28.5 -60.5q0 -6 -2 -16l-28 -143q-1 -7 -4 -7q-4 0 -3 9q8 51 8 86q0 86 -43.5 127.5t-137.5 41.5h-4l-1 -281l15 -7q69 -31 114 -57.5t75.5 -67.5t30.5 -97q0 -49 -29 -92.5zM197.5 487
q38.5 -33 118.5 -70l1 277q-89 -2 -123.5 -32.5t-34.5 -90.5q0 -51 38.5 -84zM450.5 37.5q54.5 31.5 54.5 118.5q0 66 -47.5 109.5t-133.5 83.5l-1 -344q73 1 127.5 32.5z" />
    <glyph glyph-name="percent" unicode="%" horiz-adv-x="698" 
d="M67 403.5q-36 50.5 -36 129.5q0 84 39 132t99 48q65 0 101.5 -50.5t36.5 -129.5q0 -85 -39.5 -132.5t-99.5 -47.5q-65 0 -101 50.5zM254 405.5q24 37.5 24 109.5q0 50 -15.5 92t-42 66.5t-57.5 24.5q-55 0 -79.5 -38t-24.5 -109q0 -51 16 -93t42.5 -66t57.5 -24
q55 0 79 37.5zM427 37.5q-36 50.5 -36 129.5q0 84 39 132t99 48q65 0 101.5 -50.5t36.5 -129.5q0 -85 -39.5 -132.5t-99.5 -47.5q-65 0 -101 50.5zM614 39.5q24 37.5 24 109.5q0 50 -15.5 92t-42 66.5t-57.5 24.5q-55 0 -79.5 -38t-24.5 -109q0 -51 16 -93t42.5 -66
t57.5 -24q55 0 79 37.5z" />
    <glyph glyph-name="ampersand" unicode="&#x26;" horiz-adv-x="866" 
d="M856.5 456.5q1.5 -2.5 -1.5 -4.5q-45 -45 -126 -67q49 -32 82.5 -93t33.5 -143q0 -73 -38 -117.5t-102 -44.5q-53 0 -87.5 32.5t-63.5 86.5l-25 49q-32 -56 -63.5 -91.5t-78 -56t-113.5 -20.5q-68 0 -120 31t-80 85t-28 120q0 46 26.5 99.5t76.5 91t115 37.5q59 0 98 -13
q-32 47 -49.5 85t-17.5 70q0 55 50 87.5t123 32.5q52 0 91.5 -20t60 -49.5t20.5 -57.5q0 -18 -9 -30l-104 -146h1q59 -3 159 -3q62 0 102.5 14t61.5 34q4 4 5.5 1.5zM807.5 244q-27.5 58 -68 96t-76.5 38q-99 0 -148 1q-11 0 -11 5q0 4 4 9l4 6q54 79 73 113t19 55
q0 35 -20.5 64.5t-55 46.5t-73.5 17q-40 0 -62.5 -5t-37 -23.5t-14.5 -58.5q0 -34 20 -72t63 -101q60 -86 88 -143l89 -171q25 -46 55 -73t73 -27q106 0 106 108q0 57 -27.5 115zM432 55.5q46 30.5 93 106.5l-64 122q-47 90 -101 120.5t-121 30.5q-55 0 -88 -30t-46 -71.5
t-13 -78.5q0 -63 25 -115t75 -83.5t121 -31.5q73 0 119 30.5z" />
    <glyph glyph-name="quotesingle" unicode="'" horiz-adv-x="68" 
d="M33.5 513q-2.5 0 -3.5 4q-1 67 -14 130q-5 20 -5 29q0 15 4.5 20.5t17.5 5.5q14 0 18.5 -5.5t4.5 -21.5q0 -9 -5 -29q-6 -30 -10 -57t-5 -72q0 -4 -2.5 -4z" />
    <glyph glyph-name="parenleft" unicode="(" horiz-adv-x="296" 
d="M98 29.5q-67 108.5 -67 246.5q0 155 66.5 266.5t190.5 189.5q4 2 5 -0.5t-2 -4.5q-62 -44 -107.5 -114.5t-69.5 -153t-24 -161.5q0 -133 54 -258.5t147 -192.5q3 -2 2 -4.5t-5 0.5q-123 78 -190 186.5z" />
    <glyph glyph-name="parenright" unicode=")" horiz-adv-x="296" 
d="M198 545q67 -109 67 -247q0 -154 -66.5 -265.5t-190.5 -189.5q-4 -3 -5 -0.5t2 4.5q62 45 107 115.5t69 153t24 161.5q0 133 -53.5 258.5t-146.5 191.5q-3 2 -2 4.5t5 0.5q123 -78 190 -187z" />
    <glyph glyph-name="asterisk" unicode="*" horiz-adv-x="246" 
d="M223 632q0 -8 -11 -13q-4 -1 -14 -1q-19 0 -33.5 -1.5t-36.5 -7.5q20 -27 46 -44q11 -8 16 -14q4 -4 4 -9q0 -8 -10 -15q-8 -5 -13 -5q-7 0 -11 7q-3 4 -9 20q-12 33 -27 56q-18 -26 -25.5 -48.5t-10.5 -27.5q-4 -9 -11 -9q-3 0 -14 7q-10 7 -10 14q0 2 4 10
q4 4 23.5 18.5t38.5 39.5q-25 7 -60 7q-16 0 -22 2q-13 4 -13 15q0 6 1 9q6 15 15 15q7 0 16.5 -6.5t11.5 -7.5q27 -19 53 -29q-1 29 -11 62q-5 15 -5 22q0 8 4 11.5t14 3.5t14.5 -3.5t4.5 -11.5t-5 -21q-10 -35 -11 -64q29 11 49 25.5t25 16.5q3 1 7 1q10 0 14 -14
q2 -8 2 -10z" />
    <glyph glyph-name="plus" unicode="+" horiz-adv-x="406" 
d="M198 226q0 3 -1 5.5t-4 2.5h-133q-6 0 -10 2t-4 5q0 7 14 7h132q4 0 5 3t1 8v131q0 6 2 9t5 3q7 0 7 -12v-131q0 -5 1 -8t4 -3h132q5 0 8 -2t3 -5q0 -7 -11 -7h-132q-3 0 -4 -2.5t-1 -5.5v-131q0 -13 -7 -13q-3 0 -5 3.5t-2 9.5v131z" />
    <glyph glyph-name="comma" unicode="," horiz-adv-x="207" 
d="M74.5 -112q-1.5 2 2.5 5q51 39 51 86q0 9 -7.5 11.5t-23.5 3.5q-20 2 -30 6t-10 19q0 13 16 24t38 11q25 0 35.5 -12.5t10.5 -29.5q0 -33 -23.5 -68.5t-53.5 -55.5q-4 -2 -5.5 0z" />
    <glyph glyph-name="hyphen" unicode="-" horiz-adv-x="313" 
d="M40 238q-6 0 -6 3.5t6 3.5h257q7 0 7 -3.5t-7 -3.5h-257z" />
    <glyph glyph-name="period" unicode="." horiz-adv-x="207" 
d="M67 0.5q-10 7.5 -10 18.5q0 14 16 24.5t41 10.5q16 0 26 -7t10 -18q0 -15 -16.5 -25.5t-40.5 -10.5q-16 0 -26 7.5z" />
    <glyph glyph-name="slash" unicode="/" horiz-adv-x="202" 
d="M70 183q113 490 119 517q2 9 5 9t2 -11q-22 -89 -98 -429l-85 -370q-1 -8 -5 -8t-2 10q11 48 64 282z" />
    <glyph glyph-name="zero" unicode="0" horiz-adv-x="639" 
d="M464.5 28.5q66.5 39.5 105 106.5t38.5 146q0 80 -40 146t-106 104.5t-142 38.5q-81 0 -147.5 -40t-104 -107t-37.5 -144q0 -76 38.5 -143t104.5 -107t145 -40t145.5 39.5zM144 475q36 31 81.5 48.5t94.5 17.5q48 0 92.5 -18t78.5 -48h-347zM513 454q66 -79 66 -175
q0 -46 -15.5 -88.5t-43.5 -77.5h-346zM124 104q-31 36 -48 81t-17 94q2 97 58 167h346zM145 84h349q-37 -30 -81.5 -47.5t-92.5 -17.5q-95 0 -175 65z" />
    <glyph glyph-name="one" unicode="1" horiz-adv-x="639" 
d="M464.5 28.5q66.5 39.5 105 106.5t38.5 146q0 80 -40 146t-106 104.5t-142 38.5q-81 0 -147.5 -40t-104 -107t-37.5 -144q0 -76 38.5 -143t104.5 -107t145 -40t145.5 39.5zM144 475q36 31 81.5 48.5t94.5 17.5q48 0 92.5 -18t78.5 -48h-347zM513 454q66 -79 66 -175
q0 -46 -15.5 -88.5t-43.5 -77.5h-346zM124 104q-31 36 -48 81t-17 94q2 97 58 167h346zM145 84h349q-37 -30 -81.5 -47.5t-92.5 -17.5q-95 0 -175 65z" />
    <glyph glyph-name="two" unicode="2" horiz-adv-x="639" 
d="M464.5 28.5q66.5 39.5 105 106.5t38.5 146q0 80 -40 146t-106 104.5t-142 38.5q-81 0 -147.5 -40t-104 -107t-37.5 -144q0 -76 38.5 -143t104.5 -107t145 -40t145.5 39.5zM144 475q36 31 81.5 48.5t94.5 17.5q48 0 92.5 -18t78.5 -48h-347zM513 454q66 -79 66 -175
q0 -46 -15.5 -88.5t-43.5 -77.5h-346zM124 104q-31 36 -48 81t-17 94q2 97 58 167h346zM145 84h349q-37 -30 -81.5 -47.5t-92.5 -17.5q-95 0 -175 65z" />
    <glyph glyph-name="three" unicode="3" horiz-adv-x="639" 
d="M464.5 28.5q66.5 39.5 105 106.5t38.5 146q0 80 -40 146t-106 104.5t-142 38.5q-81 0 -147.5 -40t-104 -107t-37.5 -144q0 -76 38.5 -143t104.5 -107t145 -40t145.5 39.5zM144 475q36 31 81.5 48.5t94.5 17.5q48 0 92.5 -18t78.5 -48h-347zM513 454q66 -79 66 -175
q0 -46 -15.5 -88.5t-43.5 -77.5h-346zM124 104q-31 36 -48 81t-17 94q2 97 58 167h346zM145 84h349q-37 -30 -81.5 -47.5t-92.5 -17.5q-95 0 -175 65z" />
    <glyph glyph-name="four" unicode="4" horiz-adv-x="787" 
d="M464.5 28.5q66.5 39.5 105 106.5t38.5 146q0 80 -40 146t-106 104.5t-142 38.5q-81 0 -147.5 -40t-104 -107t-37.5 -144q0 -76 38.5 -143t104.5 -107t145 -40t145.5 39.5zM144 475q36 31 81.5 48.5t94.5 17.5q48 0 92.5 -18t78.5 -48h-347zM513 454q66 -79 66 -175
q0 -46 -15.5 -88.5t-43.5 -77.5h-346zM124 104q-31 36 -48 81t-17 94q2 97 58 167h346zM145 84h349q-37 -30 -81.5 -47.5t-92.5 -17.5q-95 0 -175 65z" />
    <glyph glyph-name="five" unicode="5" horiz-adv-x="639" 
d="M464.5 28.5q66.5 39.5 105 106.5t38.5 146q0 80 -40 146t-106 104.5t-142 38.5q-81 0 -147.5 -40t-104 -107t-37.5 -144q0 -76 38.5 -143t104.5 -107t145 -40t145.5 39.5zM144 475q36 31 81.5 48.5t94.5 17.5q48 0 92.5 -18t78.5 -48h-347zM513 454q66 -79 66 -175
q0 -46 -15.5 -88.5t-43.5 -77.5h-346zM124 104q-31 36 -48 81t-17 94q2 97 58 167h346zM145 84h349q-37 -30 -81.5 -47.5t-92.5 -17.5q-95 0 -175 65z" />
    <glyph glyph-name="six" unicode="6" horiz-adv-x="639" 
d="M464.5 28.5q66.5 39.5 105 106.5t38.5 146q0 80 -40 146t-106 104.5t-142 38.5q-81 0 -147.5 -40t-104 -107t-37.5 -144q0 -76 38.5 -143t104.5 -107t145 -40t145.5 39.5zM144 475q36 31 81.5 48.5t94.5 17.5q48 0 92.5 -18t78.5 -48h-347zM513 454q66 -79 66 -175
q0 -46 -15.5 -88.5t-43.5 -77.5h-346zM124 104q-31 36 -48 81t-17 94q2 97 58 167h346zM145 84h349q-37 -30 -81.5 -47.5t-92.5 -17.5q-95 0 -175 65z" />
    <glyph glyph-name="seven" unicode="7" horiz-adv-x="639" 
d="M464.5 28.5q66.5 39.5 105 106.5t38.5 146q0 80 -40 146t-106 104.5t-142 38.5q-81 0 -147.5 -40t-104 -107t-37.5 -144q0 -76 38.5 -143t104.5 -107t145 -40t145.5 39.5zM144 475q36 31 81.5 48.5t94.5 17.5q48 0 92.5 -18t78.5 -48h-347zM513 454q66 -79 66 -175
q0 -46 -15.5 -88.5t-43.5 -77.5h-346zM124 104q-31 36 -48 81t-17 94q2 97 58 167h346zM145 84h349q-37 -30 -81.5 -47.5t-92.5 -17.5q-95 0 -175 65z" />
    <glyph glyph-name="eight" unicode="8" horiz-adv-x="639" 
d="M464.5 28.5q66.5 39.5 105 106.5t38.5 146q0 80 -40 146t-106 104.5t-142 38.5q-81 0 -147.5 -40t-104 -107t-37.5 -144q0 -76 38.5 -143t104.5 -107t145 -40t145.5 39.5zM144 475q36 31 81.5 48.5t94.5 17.5q48 0 92.5 -18t78.5 -48h-347zM513 454q66 -79 66 -175
q0 -46 -15.5 -88.5t-43.5 -77.5h-346zM124 104q-31 36 -48 81t-17 94q2 97 58 167h346zM145 84h349q-37 -30 -81.5 -47.5t-92.5 -17.5q-95 0 -175 65z" />
    <glyph glyph-name="nine" unicode="9" horiz-adv-x="639" 
d="M464.5 28.5q66.5 39.5 105 106.5t38.5 146q0 80 -40 146t-106 104.5t-142 38.5q-81 0 -147.5 -40t-104 -107t-37.5 -144q0 -76 38.5 -143t104.5 -107t145 -40t145.5 39.5zM144 475q36 31 81.5 48.5t94.5 17.5q48 0 92.5 -18t78.5 -48h-347zM513 454q66 -79 66 -175
q0 -46 -15.5 -88.5t-43.5 -77.5h-346zM124 104q-31 36 -48 81t-17 94q2 97 58 167h346zM145 84h349q-37 -30 -81.5 -47.5t-92.5 -17.5q-95 0 -175 65z" />
    <glyph glyph-name="colon" unicode=":" horiz-adv-x="207" 
d="M67 379.5q-10 7.5 -10 18.5q0 14 16 24.5t41 10.5q16 0 26 -7t10 -18q0 -15 -16.5 -25.5t-40.5 -10.5q-16 0 -26 7.5zM67 0.5q-10 7.5 -10 18.5q0 14 16 24.5t41 10.5q16 0 26 -7t10 -18q0 -15 -16.5 -25.5t-40.5 -10.5q-16 0 -26 7.5z" />
    <glyph glyph-name="semicolon" unicode=";" horiz-adv-x="207" 
d="M67 379.5q-10 7.5 -10 18.5q0 14 16 24.5t41 10.5q16 0 26 -7t10 -18q0 -15 -16.5 -25.5t-40.5 -10.5q-16 0 -26 7.5zM74.5 -112q-1.5 2 2.5 5q51 39 51 86q0 9 -7.5 11.5t-23.5 3.5q-20 2 -30 6t-10 19q0 13 16 24t38 11q25 0 35.5 -12.5t10.5 -29.5q0 -33 -23.5 -68.5
t-53.5 -55.5q-4 -2 -5.5 0z" />
    <glyph glyph-name="less" unicode="&#x3c;" horiz-adv-x="356" 
d="M334 68q3 -1 3 -4q0 -5 -16 -10q-18 -3 -25 -3q-10 0 -15 4l-251 159q-4 2 -5.5 4t-1.5 7v7q0 5 2 8t10 8l290 188q6 3 9 3q9 0 0 -6l-279 -178q-2 -2 -2 -5t5 -8z" />
    <glyph glyph-name="equal" unicode="=" horiz-adv-x="389" 
d="M52 182q-6 0 -9.5 1t-4.5 2q0 3 14 3h289q5 0 7.5 -1t3.5 -2q0 -3 -11 -3h-289zM52 286q-6 0 -9.5 1t-4.5 2q0 3 14 3h289q5 0 7.5 -1t3.5 -2q0 -3 -11 -3h-289z" />
    <glyph glyph-name="greater" unicode="&#x3e;" horiz-adv-x="356" 
d="M326 278q7 -4 7 -11v-7q0 -5 -2 -8t-10 -8l-291 -188q-4 -3 -8 -3t-4.5 1.5t4.5 4.5l278 178q2 2 2 5q0 4 -4 8l-276 174q-3 2 -3 5q0 4 15 9q18 3 26 3q9 0 14 -4z" />
    <glyph glyph-name="question" unicode="?" horiz-adv-x="513" 
d="M217 180q0 42 13.5 74t32.5 54t52 52q31 28 48.5 48t30 48.5t12.5 65.5q0 49 -23 86t-63 57.5t-89 20.5q-87 0 -139 -44t-57 -135q0 -13 -8 -13q-3 0 -5.5 3t-1.5 8q4 58 37.5 105t86.5 74.5t115 27.5q59 0 107 -23.5t75 -66t27 -97.5q0 -45 -16 -76.5t-39.5 -51.5
t-63.5 -47q-42 -28 -66.5 -50t-41 -56.5t-16.5 -84.5q0 -4 -3.5 -4t-3.5 4q-1 7 -1 21zM176 0.5q-10 7.5 -10 18.5q0 14 16.5 24.5t41.5 10.5q16 0 26 -7t10 -18q0 -15 -16.5 -25.5t-41.5 -10.5q-16 0 -26 7.5z" />
    <glyph glyph-name="at" unicode="@" horiz-adv-x="890" 
d="M576 147l1 11q0 12 -4 12q-3 0 -9 -7q-116 -136 -266 -136q-52 0 -79 28.5t-28 78.5q0 82 47 155.5t128 118t175 44.5q56 0 93.5 -29.5t37.5 -87.5q0 -17 -7 -49l-43 -177q-4 -20 -4 -26q0 -32 41 -32q48 0 88.5 36.5t64.5 100.5t24 142q0 73 -37 139.5t-113 108
t-186 41.5q-126 0 -227.5 -50.5t-160 -145.5t-58.5 -225q0 -106 46.5 -181t129 -113.5t189.5 -38.5q145 0 249 75q6 4 7.5 2t-3.5 -7q-115 -94 -266 -94q-107 0 -192 41t-134 120t-49 187q0 124 67.5 228.5t178 165t231.5 60.5q111 0 190.5 -44t120 -115t40.5 -152
q0 -79 -33.5 -149t-87.5 -112.5t-111 -42.5q-30 0 -46.5 14.5t-16.5 41.5q0 16 4 31zM458.5 86q54.5 30 91 74.5t51.5 88.5l11 47q7 27 7 52q0 42 -24.5 63t-75.5 21q-88 0 -151 -41t-94.5 -105t-31.5 -134q0 -96 97 -96q65 0 119.5 30z" />
    <glyph glyph-name="A" unicode="A" horiz-adv-x="701" 
d="M696 0q0 -3 -4 -2l-39 2h-104q-21 0 -60 -3q-6 0 -6.5 3t6.5 3q39 2 59.5 11t20.5 31q0 12 -6 27l-73 171q-7 7 -15 7q-7 0 -14 -4q-142 -70 -307 -77q-11 0 -20.5 -5.5t-14.5 -13.5l-33 -78q-7 -15 -7 -27q0 -22 21.5 -31t60.5 -11q7 0 6.5 -3t-6.5 -3q-39 3 -61 3h-52
l-39 -2q-4 -1 -4 2t4 3q27 2 40 15t30 54l233 551q4 9 4 19q0 7 -2 15l-13 29q-2 4 -5 6.5t-4 3.5q-2 2 0 3t6 1h49q9 0 12 -8l263 -620q18 -41 30.5 -54t39.5 -15q4 0 4 -3zM471.5 267.5q3.5 9.5 0.5 16.5h1l-150 350l-185 -440v-2q0 -7 4.5 -12t12.5 -5q82 5 160.5 24.5
t142.5 52.5q10 6 13.5 15.5z" />
    <glyph glyph-name="B" unicode="B" horiz-adv-x="619" 
d="M43 -2q-5 0 -5.5 2.5t5.5 3.5q38 2 55 16.5t17 54.5v550q0 40 -17 54.5t-55 16.5q-6 1 -5.5 3.5t5.5 2.5l49 -2l145 1q28 1 75 1q99 0 154.5 -42t55.5 -110q0 -64 -39 -105t-101 -50q91 -9 145 -56.5t54 -130.5q0 -61 -31 -108.5t-92 -74.5t-147 -27q-51 0 -81 1l-138 1z
M297 396q68 3 103.5 20t49 47t13.5 79q0 68 -47 106.5t-124 42.5l-86 4q-23 1 -29 -8t-6 -37v-591q0 -32 7 -43t33 -11h92q104 0 159.5 51t55.5 140q0 184 -220 190l-73 1q-5 0 -5 3t5 3z" />
    <glyph glyph-name="C" unicode="C" horiz-adv-x="671" 
d="M593 389q-1 -4 -4.5 -3.5t-2.5 4.5q12 48 12 91q0 56 -20 104q-22 52 -67.5 77t-107.5 25q-143 0 -223.5 -70t-80.5 -224q0 -118 47 -201t117.5 -124.5t141.5 -41.5q60 0 129 22.5t119 81.5q5 5 7 5t1.5 -2.5t-3.5 -6.5q-60 -73 -128 -106t-161 -33q-88 0 -162 44
t-117.5 124t-43.5 183q0 108 50 193t134.5 133t184.5 48q64 0 115.5 -20.5t80.5 -52.5t29 -65q0 -9 -1 -13z" />
    <glyph glyph-name="D" unicode="D" horiz-adv-x="705" 
d="M208 -2l-116 1l-49 -2q-5 0 -5.5 3t5.5 3q38 2 55 16.5t17 54.5v551q0 40 -17 54.5t-55 16.5q-6 0 -5.5 3t5.5 2l49 -1l131 2q222 0 329.5 -91t107.5 -258q0 -103 -43 -183.5t-131 -126.5t-217 -46q-39 0 -61 1zM516.5 94.5q84.5 91.5 84.5 250.5q0 101 -41.5 180
t-130.5 125t-225 46q-20 0 -26.5 -10t-6.5 -32v-605q0 -19 5.5 -28.5t21.5 -13.5t50 -4q184 0 268.5 91.5z" />
    <glyph glyph-name="E" unicode="E" horiz-adv-x="608" 
d="M43 -2q-5 -1 -5.5 2t5.5 3q38 2 55 17t17 55v550q0 40 -17 55t-55 17q-6 0 -5.5 3t5.5 2l50 -2h271q68 0 119 7l23 2q7 0 10.5 -4t4.5 -16q2 -83 24 -228q1 -4 -1.5 -4.5t-3.5 3.5q-15 78 -24.5 116t-17 55t-19.5 30q-20 21 -80 27t-208 6q-20 0 -20 -28v-268
q2 -23 20 -23q93 0 119 3q16 2 25 8.5t18 26.5t20 62q1 6 3.5 6t1.5 -6q-7 -39 -7 -88q0 -63 12 -132q1 -5 -1.5 -5.5t-3.5 5.5q-17 63 -31.5 85.5t-36.5 25.5q-26 2 -119 2q-18 0 -20 -24v-298q0 -40 29 -40q152 1 221.5 8.5t90.5 25.5q22 20 34.5 61.5t28.5 137.5q1 7 4 7
q4 0 2 -8q-21 -127 -24 -227q0 -13 -4.5 -16.5t-12.5 -3.5t-42.5 4.5t-117.5 4.5h-287z" />
    <glyph glyph-name="F" unicode="F" horiz-adv-x="575" 
d="M62 -1q-11 -1 -19 -1q-5 0 -5.5 2.5t5.5 3.5q35 2 49.5 18t14.5 53v550q0 37 -14.5 53t-49.5 18q-6 1 -5.5 3.5t5.5 2.5q8 0 19 -1t22 -1h268q85 0 118.5 4.5t40.5 4.5q15 0 16 -20q1 -87 22 -221q2 -8 -2 -8t-5 7q-20 96 -36 142t-39 64q-15 12 -75 16t-199 5
q-31 0 -31 -42v-277q0 -9 5 -16.5t16 -7.5q19 0 61.5 1t66.5 3q18 2 27 8t17 25t19 62q1 6 4 6t2 -6q-6 -39 -6 -82q0 -59 11 -134q1 -5 -2 -5.5t-4 5.5q-12 44 -21 65.5t-19.5 30t-27.5 10.5q-24 3 -66.5 4t-61.5 1q-21 0 -21 -25v-247q0 -36 20 -51.5t69 -17.5
q7 -1 7 -3.5t-7 -2.5q-16 0 -26 1l-30 1h-111q-11 0 -22 -1z" />
    <glyph glyph-name="G" unicode="G" horiz-adv-x="689" 
d="M208 30.5q-74 43.5 -118 122.5t-44 182q0 111 51.5 196.5t136 132t180.5 46.5q65 0 117 -20t81 -51.5t29 -64.5q0 -8 -1 -12l-44 -167q-2 -4 -5 -3.5t-1 5.5q13 46 13 89q0 54 -20 96q-22 53 -68.5 78.5t-110.5 25.5q-142 0 -224 -69t-82 -226q0 -119 48.5 -205.5
t119.5 -130.5t135 -44q88 0 143 21t69 82q1 4 1 21q0 40 -9 134q-4 16 -19.5 25t-50.5 14t-102 9q-4 0 -4 3t4 3q40 -2 60 -2q66 0 151 9l10 1q10 0 10 -8q0 -4 -3.5 -12t-4.5 -28q-2 -104 -2 -158q0 -7 -2 -11t-8 -11q-52 -61 -118 -88.5t-156 -27.5q-88 0 -162 43.5z" />
    <glyph glyph-name="H" unicode="H" horiz-adv-x="755" 
d="M716.5 0.5q0.5 -2.5 -3.5 -2.5q-12 0 -21 1l-30 1h-101l-49 -2q-5 -1 -5.5 2t4.5 3q39 2 56 17t17 55v302q0 17 -10 17q-3 0 -9 -2q-93 -38 -189 -59.5t-186 -24.5q-12 -1 -15.5 -7.5t-3.5 -18.5v-207q0 -40 17 -55t55 -17q6 0 5.5 -3t-5.5 -2l-50 2h-100l-50 -2
q-5 -1 -5.5 2t5.5 3q38 2 55 17t17 55v550q0 40 -17 55t-55 17q-6 0 -5.5 3t5.5 2l50 -2h100l50 2q5 1 5.5 -2t-5.5 -3q-38 -2 -55 -17t-17 -55v-298q4 -14 18 -13q90 3 187 25t188 59q11 5 15 11t5 16v200q0 40 -17 55t-56 17q-4 0 -4.5 2.5t3.5 2.5q12 0 21 -1l30 -1h101
l49 2q5 1 5.5 -2t-4.5 -3q-39 -2 -55.5 -16.5t-16.5 -55.5v-550q0 -40 16.5 -55t55.5 -17q4 0 4.5 -2.5z" />
    <glyph glyph-name="I" unicode="I" horiz-adv-x="286" 
d="M98 680q-17 15 -55 17q-6 0 -5.5 3t5.5 2l50 -2h100l50 2q5 1 5.5 -2t-5.5 -3q-38 -2 -55 -17t-17 -55v-550q0 -40 17 -55t55 -17q6 0 5.5 -3t-5.5 -2l-50 2h-100l-50 -2q-5 -1 -5.5 2t5.5 3q38 2 55 17t17 55v550q0 40 -17 55z" />
    <glyph glyph-name="J" unicode="J" horiz-adv-x="516" 
d="M113 7q-39 20 -60.5 54.5t-21.5 77.5t28.5 73t64.5 41q4 2 5.5 -0.5t-2.5 -4.5q-25 -15 -36.5 -35.5t-11.5 -55.5q0 -39 16 -73.5t48 -56t77 -21.5q56 0 86.5 20t43.5 62.5t13 116.5q0 14 -4 94q-6 108 -6 164v162q0 40 -17 55t-55 17q-5 0 -5.5 2.5t3.5 2.5q12 0 21 -1
l30 -1h101l50 2q5 1 5 -2t-5 -3q-39 -2 -55.5 -16.5t-16.5 -55.5v-371q0 -134 -55.5 -200.5t-151.5 -66.5q-50 0 -89 20z" />
    <glyph glyph-name="K" unicode="K" horiz-adv-x="638" 
d="M680 -84q-2 -2 -6 0q-66 34 -140.5 111t-139 176.5t-103.5 197.5l-120 -136v-190q0 -40 17 -55t55 -17q6 0 5.5 -3t-5.5 -2l-50 2h-100l-50 -2q-5 -1 -5.5 2t5.5 3q38 2 55 17t17 55v550q0 40 -17 55t-55 17q-6 0 -5.5 3t5.5 2l50 -2h100l50 2q5 1 5.5 -2t-5.5 -3
q-38 -2 -55 -17t-17 -55v-351l117 135q-2 3 -4 9l13 2l185 214q15 18 15 30q0 15 -19 23t-48 10q-5 0 -5.5 2.5t3.5 2.5q13 0 23 -1l31 -1h66q24 0 63 3q6 0 6.5 -3t-6.5 -3q-43 -2 -64 -15t-52 -48l-186 -212q18 4 27 7q12 0 13 -3q28 -93 84.5 -196.5t122.5 -187.5
t122 -122q4 -2 2 -4z" />
    <glyph glyph-name="L" unicode="L" horiz-adv-x="587" 
d="M43 -2q-5 -1 -5.5 2t5.5 3q38 2 55 17t17 55v550q0 40 -17 55t-55 17q-6 0 -5.5 3t5.5 2l50 -2h104q22 0 58 3q6 0 6.5 -3t-6.5 -3q-45 -2 -64.5 -17t-19.5 -55v-581q0 -23 7.5 -30.5t22.5 -7.5q126 0 196.5 10.5t96.5 34.5q20 18 32.5 64t26.5 136q1 5 4 4.5t2 -5.5
q-23 -153 -23 -232q0 -15 -2.5 -21t-9.5 -6q-5 0 -51 4.5t-168 4.5h-212z" />
    <glyph glyph-name="M" unicode="M" horiz-adv-x="871" 
d="M854 0q0 -3 -5 -2l-50 2h-104l-54 -2q-5 -1 -5.5 2t5.5 3q43 2 61.5 17t14.5 55l-49 564q0 4 -3 4q-2 0 -4 -5l-244 -604q-3 -7 -5.5 -9.5t-7.5 -2.5q-9 0 -13 10l-232 592q-3 8 -6 8q-2 0 -2 -5l-48 -552q-3 -40 15.5 -55t61.5 -17q5 0 5.5 -2.5t-3.5 -2.5l-57 2h-53
l-50 -2q-5 -1 -5.5 2t5.5 3q38 2 54.5 16.5t20.5 55.5l50 574q-14 27 -30 36.5t-47 11.5q-5 0 -5 3t5 2l50 -2h59q8 0 9 -6l235 -598q2 -5 4 -5q3 0 5 5l244 598q2 6 7 6h63l50 2q5 1 5.5 -2t-5.5 -3q-40 -2 -57 -17t-13 -55l48 -550q3 -41 20 -55.5t55 -16.5q5 0 5 -3z" />
    <glyph glyph-name="N" unicode="N" horiz-adv-x="735" 
d="M716 700q0 -3 -5 -3q-39 -2 -55.5 -16.5t-16.5 -55.5v-623q0 -7 -5 -7q-6 0 -10 7l-489 647q-3 4 -5 4q-4 0 -4 -4v-575q0 -40 17 -54.5t55 -16.5q6 0 5.5 -3t-5.5 -3q-30 3 -49 3h-52q-17 0 -50 -3q-5 0 -5.5 3t5.5 3q38 2 55 16.5t17 54.5v596q-13 13 -27 19.5t-37 7.5
q-5 0 -5 3t5 3q33 -3 50 -3h51q12 0 19 -9l444 -596q4 -7 9 -7q4 0 4 7l-1 530q0 41 -16.5 55.5t-55.5 16.5q-4 0 -4.5 2.5t3.5 2.5q12 0 21 -1l30 -1h52l50 2q5 1 5 -2zM135 652l10 -11z" />
    <glyph glyph-name="O" unicode="O" horiz-adv-x="807" 
d="M207 32q-76 45 -118.5 124.5t-42.5 180.5q0 97 48 183.5t134.5 139t194.5 52.5q97 0 174 -45.5t120.5 -124.5t43.5 -177q0 -99 -49 -186t-136.5 -139.5t-197.5 -52.5q-95 0 -171 45zM631 93.5q77 83.5 77 231.5q0 94 -43.5 178t-118 135t-163.5 51q-88 0 -152 -37
t-98 -106t-34 -163q0 -96 42 -182t115 -138.5t162 -52.5q136 0 213 83.5z" />
    <glyph glyph-name="P" unicode="P" horiz-adv-x="595" 
d="M221 299q-3 0 -3 3t3 3l77 -2q104 -3 157 46.5t53 133.5q0 59 -25.5 105.5t-72 74t-108.5 29.5l-99 4q-19 1 -25.5 -9t-6.5 -34v-578q0 -40 22 -55t72 -17q7 0 7 -3t-7 -3q-42 3 -64 3h-108l-50 -2q-5 -1 -5.5 2t5.5 3q38 2 55 17t17 55v550q0 40 -17 54.5t-55 16.5
q-6 1 -5.5 3.5t5.5 2.5l49 -2l143 1q30 1 83 1q116 0 183 -56.5t67 -153.5q0 -62 -32 -108t-94 -69t-148 -19z" />
    <glyph glyph-name="Q" unicode="Q" horiz-adv-x="807" 
d="M969.5 -80q2.5 -2 -1.5 -6q-75 -71 -178 -71q-59 0 -133.5 34.5t-194.5 118.5q-40 -9 -84 -9q-95 0 -171 45t-118.5 124.5t-42.5 180.5q0 97 48 183.5t134.5 139t194.5 52.5q97 0 174 -45.5t120.5 -124.5t43.5 -177q0 -77 -30 -148t-85.5 -125t-129.5 -81
q110 -73 174.5 -103.5t124.5 -30.5q50 0 86 9.5t61 31.5q5 4 7.5 2zM141 201q42 -86 115 -138.5t162 -52.5q18 0 27 1q-3 7 4.5 11t19.5 4q17 0 32 -7q99 24 153 103.5t54 202.5q0 94 -43.5 178t-118 135t-163.5 51q-88 0 -152 -37t-98 -106t-34 -163q0 -96 42 -182z" />
    <glyph glyph-name="R" unicode="R" horiz-adv-x="629" 
d="M679.5 -85.5q-1.5 -2.5 -6.5 0.5q-112 58 -203.5 170.5t-152.5 269.5l-87 -1q-4 0 -4 3t4 3l54 2q96 4 148 54t52 125q0 78 -48 112.5t-161 38.5l-71 3q-17 1 -25 -7.5t-8 -27.5v-585q0 -40 17 -55t55 -17q6 0 5.5 -3t-5.5 -2l-50 2h-100l-50 -2q-5 -1 -5.5 2t5.5 3
q38 2 55 17t17 55v550q0 40 -17 54.5t-55 16.5q-6 1 -5.5 3.5t5.5 2.5l49 -2l130 1q26 1 72 1q132 0 192 -39.5t60 -122.5q0 -61 -45.5 -109.5t-121.5 -66.5q1 0 1 -2q43 -140 122 -257.5t175 -183.5q4 -4 2.5 -6.5z" />
    <glyph glyph-name="S" unicode="S" horiz-adv-x="617" 
d="M107 273q2 9 5 9q1 0 2 -3t0 -8q-4 -32 -4 -66q0 -108 50 -154t157 -46q75 0 131.5 30.5t56.5 120.5q0 70 -52 114.5t-148 87.5q-99 45 -149 87t-50 102q1 39 28.5 77t81.5 63t129 25q48 0 92.5 -14.5t73 -41t28.5 -60.5q0 -6 -2 -16l-28 -143q-1 -7 -4 -7q-4 0 -3 9
q8 51 8 86q0 86 -43.5 127.5t-137.5 41.5q-95 0 -132.5 -30.5t-37.5 -92.5q0 -38 22.5 -66t58.5 -49t99 -50q69 -31 114 -57.5t75.5 -67.5t30.5 -97q0 -52 -32 -97t-90.5 -72.5t-134.5 -27.5q-67 0 -118 19.5t-78 50.5t-27 65q0 10 1 15z" />
    <glyph glyph-name="T" unicode="T" horiz-adv-x="643" 
d="M621 462.5q-3 -0.5 -4 4.5q-21 110 -37 153t-39 57q-21 17 -168 17q-9 0 -16.5 -8t-7.5 -27v-584q0 -40 25 -55t82 -17q8 0 8 -3q0 -1 -2.5 -2t-5.5 -1q-48 3 -73 3h-124q-27 0 -72 -3q-3 0 -5.5 1t-2.5 2q0 3 8 3q57 2 81.5 17t24.5 55v584q0 19 -7 27t-16 8
q-147 0 -168 -17q-23 -14 -40 -59.5t-36 -150.5q-2 -5 -4.5 -4.5t-1.5 5.5q18 134 21 221q0 20 15 20q6 0 40 -4.5t197 -4.5h56q163 0 197.5 4.5t40.5 4.5q15 0 15 -20q2 -88 21 -221q1 -5 -2 -5.5z" />
    <glyph glyph-name="U" unicode="U" horiz-adv-x="706" 
d="M222 23.5q-61 36.5 -94.5 103t-33.5 155.5v343q0 40 -13.5 55t-45.5 17q-4 0 -4.5 2.5t3.5 2.5q6 0 18 -1t24 -1h102q20 0 59 3q6 0 6.5 -3t-6.5 -3q-46 -2 -66.5 -17t-20.5 -55v-344q0 -80 28 -139.5t80.5 -92t124.5 -32.5q71 0 124 33t82 93.5t29 139.5v342
q0 40 -20.5 55t-66.5 17q-6 0 -5.5 3t5.5 3q39 -3 60 -3h50l40 2q4 1 4 -2t-4 -3q-31 -2 -44 -16.5t-13 -55.5l1 -341q0 -90 -32 -157t-91 -103.5t-138 -36.5q-81 0 -142 36.5z" />
    <glyph glyph-name="V" unicode="V" horiz-adv-x="684" 
d="M679 700q0 -3 -4 -3q-28 -2 -41 -15t-29 -54l-231 -594q-3 -6 -1 -13l3 -6q2 -4 1 -6.5t-4 -3.5l-39 -15l-4 -1q-4 0 -6 6l-247 633q-15 40 -28 53.5t-40 15.5q-4 0 -4 3t4 2l38 -2h106q21 0 60 3q6 0 6.5 -3t-6.5 -3q-39 -2 -60 -11.5t-21 -31.5q0 -11 6 -26l226 -585
q2 -4 4 -4.5t3 4.5v-1l227 586q6 15 6 26q0 22 -20.5 31.5t-58.5 11.5q-6 0 -5.5 3t6.5 3q36 -3 58 -3h51l40 2q4 1 4 -2z" />
    <glyph glyph-name="W" unicode="W" horiz-adv-x="1010" 
d="M1005 700q0 -3 -4 -3q-28 -2 -41 -15.5t-27 -54.5l-203 -590l-1 -2q-2 -9 0 -14l3 -6q2 -4 1 -6.5t-4 -3.5l-40 -14q-2 -1 -5 -1q-4 0 -6 5l-172 506l-160 -465q-3 -8 -1 -15l3 -6q3 -8 -3 -10l-41 -14q-8 -4 -10 4l-216 632q-13 40 -26.5 54t-42.5 16q-4 0 -4 3t4 2
l40 -2h103q20 0 56 3q6 0 6.5 -3t-6.5 -3q-37 -2 -56 -11.5t-19 -32.5q0 -13 5 -26l198 -582q2 -3 3.5 -3t2.5 3l153 445q5 15 5 20q0 7 -4 18l1 -1l-34 100q-14 40 -34 54t-61 16q-6 0 -5.5 3t5.5 3q36 -3 57 -3h109l51 2q5 1 5.5 -2t-5.5 -3q-33 -2 -50.5 -11.5
t-17.5 -31.5q0 -10 5 -27l198 -580q1 -4 3 -4t4 3v1l199 580q5 17 5 25q0 23 -20.5 33t-58.5 12q-7 0 -6.5 3t6.5 3q36 -3 58 -3h52l39 2q4 1 4 -2z" />
    <glyph glyph-name="X" unicode="X" horiz-adv-x="665" 
d="M646.5 0.5q0.5 -2.5 -3.5 -2.5q-12 0 -21 1l-30 1h-111l-50 -2q-5 -1 -5.5 2t4.5 3q66 4 66 35q0 13 -12 31l-179 278l-180 -278q-11 -16 -11 -31q0 -31 66 -35q5 0 5.5 -2.5t-3.5 -2.5l-53 2h-54l-49 -2q-5 -1 -5.5 2t5.5 3q34 2 50 15t41 51l185 283l-179 279
q-24 38 -40.5 51t-50.5 15q-5 0 -5 3t5 2l50 -2h111l51 2q5 1 5.5 -2t-5.5 -3q-66 -4 -66 -35q0 -14 11 -31l166 -258l167 258q11 17 11 31q0 31 -66 35q-5 0 -5.5 2.5t3.5 2.5l53 -2h53l49 2q5 1 5 -2t-5 -3q-33 -2 -49 -14.5t-41 -51.5l-172 -263l192 -299
q25 -38 41.5 -51t50.5 -15q4 0 4.5 -2.5z" />
    <glyph glyph-name="Y" unicode="Y" horiz-adv-x="614" 
d="M208 -2q-5 -1 -5.5 2t5.5 3q38 2 55 17t17 55l-1 191q0 13 -6 25l-189 339q-23 40 -35.5 52.5t-39.5 14.5q-4 0 -3.5 3t4.5 3q24 -3 39 -3h107q20 0 59 3q6 0 6.5 -3t-6.5 -3q-78 -4 -78 -38q0 -12 9 -29l182 -329q6 -10 12 0l184 329q9 17 9 28q0 35 -79 39q-6 0 -5.5 3
t5.5 3q39 -3 60 -3h52l39 2q4 1 4 -2t-4 -3q-27 -2 -39.5 -14.5t-34.5 -52.5l-189 -338q-7 -11 -7 -26l1 -191q0 -40 16.5 -55t55.5 -17q5 0 5 -3t-5 -2l-50 2h-101z" />
    <glyph glyph-name="Z" unicode="Z" horiz-adv-x="648" 
d="M542 -4.5q-15 4.5 -43 4.5h-356q-29 0 -55 -2q-9 -1 -24 -1q-19 0 -19 12q0 8 8 19l470 659q2 4 1 6.5t-5 2.5l-348 -17q-28 -2 -43.5 -14.5t-27.5 -46.5t-26 -106q-1 -5 -4 -4.5t-2 5.5q9 58 12 92t4 84q0 19 15 19q7 0 24.5 -4.5t50.5 -4.5l296 1l51 1q18 1 50 1
q13 0 13 -9q0 -8 -10 -21l-466 -657q-3 -4 -2.5 -7.5t5.5 -3.5l378 16q38 2 62 50t44 168q0 4 3 4t2 -4q-10 -69 -15.5 -129t-5.5 -91v-5q0 -11 -2.5 -16.5t-12.5 -5.5q-7 0 -22 4.5z" />
    <glyph glyph-name="bracketleft" unicode="[" horiz-adv-x="264" 
d="M46 715q0 8 2.5 13.5t12.5 5.5h191q7 0 7.5 -3t-6.5 -3h-140q-8 0 -11 -2t-3.5 -10.5t-0.5 -22.5v-810q0 -14 0.5 -22.5t3.5 -10.5t11 -2h140q7 0 6.5 -3t-7.5 -3h-191q-10 0 -12.5 5.5t-2.5 13.5v854z" />
    <glyph glyph-name="backslash" unicode="\" horiz-adv-x="209" 
d="M205 -105q0 -7 -8 -7q-9 0 -10 9q-22 102 -86 377l-95 418l-1 4q0 4 2.5 6t5.5 2q7 0 10 -10q6 -30 143 -628l38 -167z" />
    <glyph glyph-name="bracketright" unicode="]" horiz-adv-x="264" 
d="M219 -139q0 -8 -2.5 -13.5t-12.5 -5.5h-191q-7 0 -7.5 3t6.5 3h139q8 0 11 2t3.5 10.5t0.5 22.5v810q0 14 -0.5 22.5t-3.5 10.5t-11 2h-139q-7 0 -7 3q0 1 2.5 2t5.5 1h191q10 0 12.5 -5.5t2.5 -13.5v-854z" />
    <glyph glyph-name="asciicircum" unicode="^" horiz-adv-x="384" 
d="M332 478q6 -9 6 -12q0 -4 -12 -4q-18 0 -24 2t-10 11l-108 201q-2 3 -5.5 4t-6.5 -2l-115 -210q-4 -6 -10 -6q-3 0 1 6l130 231q6 12 13 12h3q8 0 12 -7z" />
    <glyph glyph-name="underscore" unicode="_" horiz-adv-x="240" 
d="M15 -47q-6 0 -6 3.5t6 3.5h257q7 0 7 -3.5t-7 -3.5h-257z" />
    <glyph glyph-name="grave" unicode="`" horiz-adv-x="236" 
d="M119 541q-40 33 -74.5 68t-34.5 46q0 10 38 8q9 -1 14 -7t13 -22q15 -29 35 -56.5t60 -62.5q4 -3 3 -5.5t-6 -2.5q-8 1 -48 34z" />
    <glyph glyph-name="a" unicode="a" horiz-adv-x="520" 
d="M523.5 137.5q3.5 0.5 3.5 -5.5q0 -71 -23.5 -107.5t-54.5 -36.5q-26 0 -40.5 22t-24.5 68l-10 50q-21 -62 -70.5 -101t-107.5 -39q-76 0 -116 42.5t-40 101.5q0 34 26 60t68 40.5t90 14.5q63 0 127 -10l-20 95q-12 52 -40 77t-86 25q-41 0 -78 -17.5t-61.5 -53
t-25.5 -87.5q0 -6 -3.5 -6t-3.5 6q2 54 31.5 95.5t74.5 64t90 22.5q72 0 107.5 -30.5t49.5 -95.5l51 -244q7 -31 16 -47.5t23 -16.5q8 0 18 9t18 33t8 66q0 5 3.5 5.5zM362 182l-7 36q-66 12 -123 12q-76 0 -108.5 -19.5t-32.5 -72.5q0 -51 32 -84t96 -33q136 0 143 143
q1 8 0 18z" />
    <glyph glyph-name="b" unicode="b" horiz-adv-x="521" 
d="M399 429.5q43 -28.5 67 -79.5t24 -118q0 -65 -27.5 -121t-78.5 -90t-118 -34q-45 0 -74.5 15t-58.5 40q-2 2 -10 8t-13.5 9t-10.5 3q-7 0 -13 -12t-12 -28l-9 -24q-1 -6 -6 -6q-2 0 -3.5 2.5t-0.5 5.5q7 61 7 114l-1 501q0 27 -8.5 38t-23.5 11q-4 0 -14 -2q-6 -1 -6 5
q37 9 63.5 20t46.5 30q7 1 5 -5q-6 -22 -7.5 -57.5t-1.5 -117.5v-159q0 -16 2 -35t5 -23q28 60 73 99t105 39q56 0 99 -28.5zM403.5 51.5q38.5 45.5 38.5 140.5q0 101 -46.5 166t-131.5 65q-40 0 -74.5 -24.5t-54.5 -68t-20 -98.5v-46q0 -79 32 -129.5t124 -50.5
q94 0 132.5 45.5z" />
    <glyph glyph-name="c" unicode="c" horiz-adv-x="460" 
d="M392 243q-1 -4 -4 -3t-2 5q6 26 6 50q0 64 -39 103.5t-105 39.5q-80 0 -125 -43t-45 -141q0 -76 33 -128.5t82.5 -78.5t97.5 -26q37 0 77 13t67 49q3 2 5 0.5t0 -4.5q-40 -48 -85.5 -69.5t-107.5 -21.5q-59 0 -108.5 28.5t-78.5 80t-29 118.5q0 69 32.5 124.5t88 87
t121.5 31.5q45 0 81.5 -14.5t55.5 -37t14 -44.5z" />
    <glyph glyph-name="d" unicode="d" horiz-adv-x="534" 
d="M539 136q3 0 3 -5q0 -62 -17 -101t-57 -39q-29 0 -46 22t-17 65v19l-3 14q0 3 -2 3t-3 -4q-28 -59 -70.5 -91t-105.5 -32q-51 0 -94.5 28.5t-69.5 79.5t-26 116q0 64 30 121t81 91.5t109 34.5q46 0 86 -21t68 -59v237q0 27 -8.5 38t-23.5 11q-4 0 -14 -2q-7 -1 -6 5
q37 9 63.5 20t46.5 30q7 1 5 -5q-6 -23 -8 -60t-2 -115v-449q0 -61 32 -61q30 0 38 27t8 77q0 5 3 5zM369 73q36 51 36 141v35q-2 42 -17.5 85t-49 73t-83.5 30q-92 0 -134.5 -47t-42.5 -139q0 -61 23 -114t64.5 -84t94.5 -31q73 0 109 51z" />
    <glyph glyph-name="e" unicode="e" horiz-adv-x="461" 
d="M438 83.5q2 -1.5 1 -4.5q-39 -47 -86 -69t-107 -22q-58 0 -107.5 28.5t-78.5 80t-29 118.5q0 71 32 126.5t86 86t117 30.5q70 0 116 -41.5t46 -108.5q0 -29 -11 -65l-101 -2q-157 -2 -239 -5q4 -70 38 -118.5t82 -72.5t94 -24q37 0 77 13t67 49q1 2 3 0.5zM77 253v-11
q54 1 146 5q104 4 146 5q7 20 7 44q0 37 -17.5 71t-48.5 54.5t-67 20.5q-166 0 -166 -189z" />
    <glyph glyph-name="f" unicode="f" horiz-adv-x="281" 
d="M42 438q-4 0 -4 2t3 3q28 5 40.5 13.5t17 28t4.5 59.5q0 52 21 89.5t54 57t68 19.5q18 0 34 -6q4 -2 4.5 -4t-1.5 -6q-4 -8 -12 -17.5t-11 -13.5q-2 -4 -4 -4.5t-5 1.5q-29 18 -58 18q-31 0 -49 -22q-11 -14 -11 -45q0 -22 6 -64t15 -95q2 -8 13 -8h113q2 0 1 -3t-5 -3
h-98q-13 0 -18.5 -5.5t-5.5 -22.5v-342q0 -34 20 -48t59 -14q6 0 6 -3.5t-6 -3.5q-21 1 -76 1h-59q-42 0 -58 -1q-4 0 -4 3t4 3q30 0 45.5 14.5t15.5 48.5v343q0 15 -3 21t-13 6h-43z" />
    <glyph glyph-name="g" unicode="g" horiz-adv-x="459" 
d="M425 -31.5q28 -28.5 28 -66.5q0 -35 -21 -60.5t-52.5 -39t-59.5 -13.5q-90 0 -151 84q-35 -14 -67 -14q-42 0 -68.5 24.5t-26.5 61.5q0 74 101 121q-46 25 -72.5 70t-26.5 104q0 58 29 107.5t79.5 79.5t111.5 30q47 0 89 -20q1 53 35.5 79.5t80.5 26.5q10 0 15 -4.5
t2 -13.5l-13 -38q-4 -9 -12 -4q-19 13 -44 13q-29 0 -42.5 -15t-9.5 -50q44 -26 70.5 -71t26.5 -102t-29.5 -107t-80.5 -79.5t-112 -29.5q-49 0 -91 21q-38 -18 -58 -37.5t-20 -51.5q0 -27 18 -45t45 -18t50.5 9.5t55.5 28.5q41 24 72.5 36t73.5 12q46 0 74 -28.5zM73.5 170
q21.5 -49 61 -79t90.5 -30q76 0 117.5 40.5t41.5 123.5q0 54 -22.5 103t-63 79t-92.5 30q-74 0 -114 -40.5t-40 -121.5q0 -56 21.5 -105zM401 -177.5q24 16.5 24 56.5q0 29 -19 47.5t-52 18.5q-39 0 -68 -11.5t-66 -33.5q-26 -17 -45 -25q22 -28 62 -48.5t91 -20.5
q49 0 73 16.5z" />
    <glyph glyph-name="h" unicode="h" horiz-adv-x="608" 
d="M612 137.5q3 0.5 3 -5.5q0 -71 -23 -107.5t-54 -36.5q-27 0 -42.5 22t-25.5 67l-62 257q-8 34 -18.5 54t-32 30.5t-58.5 10.5q-40 0 -73.5 -21.5t-54 -64t-20.5 -103.5v-179q0 -30 15.5 -42.5t44.5 -14.5q3 0 3.5 -3t-3.5 -3q-20 1 -86 1t-86 -1q-5 0 -5 3.5t5 3.5
q31 0 45 11.5t14 45.5l-1 553q0 27 -8.5 38t-23.5 11q-4 0 -14 -2q-6 -1 -6 5q37 9 63.5 20t46.5 30q7 1 5 -5q-6 -22 -7.5 -57.5t-1.5 -117.5v-219q11 38 38 70t63 51t72 19q64 0 93 -28t44 -89l62 -254q15 -63 41 -63q8 0 18.5 9t18.5 33t8 66q0 5 3 5.5z" />
    <glyph glyph-name="i" unicode="i" horiz-adv-x="249" 
d="M167.5 22.5q16.5 -16.5 43.5 -18.5q4 0 4 -3t-4 -3q-18 1 -86 1q-67 0 -86 -1q-4 0 -4 3.5t4 3.5q59 -2 59 62v295q0 24 -8.5 35t-28.5 11q-9 0 -23 -3q-3 -1 -4 1.5t1 3.5q83 20 115 42q4 3 7 1.5t3 -3.5q-4 -27 -6.5 -50.5t-2.5 -54.5v-278q0 -28 16.5 -44.5z
M85.5 609.5q-11.5 8.5 -11.5 20.5q0 15 14.5 25.5t37.5 10.5q18 0 29.5 -8.5t11.5 -21.5q0 -14 -14.5 -24.5t-37.5 -10.5q-18 0 -29.5 8.5z" />
    <glyph glyph-name="j" unicode="j" horiz-adv-x="222" 
d="M95 362q0 24 -8.5 35t-28.5 11q-10 0 -23 -3q-3 -1 -4 1.5t1 3.5q81 20 114 42q5 3 8 1.5t3 -3.5q-4 -27 -6.5 -50.5t-2.5 -54.5v-236q0 -77 -34 -126t-78 -71t-77 -24q-7 -1 -6.5 2t6.5 4q51 6 93.5 47.5t42.5 154.5v266zM70.5 609.5q-11.5 8.5 -11.5 20.5
q0 15 14.5 25.5t37.5 10.5q18 0 29.5 -8.5t11.5 -21.5q0 -14 -14.5 -24.5t-37.5 -10.5q-18 0 -29.5 8.5z" />
    <glyph glyph-name="k" unicode="k" horiz-adv-x="532" 
d="M557.5 -37q-2.5 -3 -6.5 -1q-83 42 -150 116.5t-128 182.5l-122 -117v-83q0 -30 15.5 -42.5t44.5 -14.5q3 0 3.5 -3t-3.5 -3q-20 1 -86 1t-86 -1q-5 0 -5 3.5t5 3.5q31 0 45 11.5t14 45.5l-1 553q0 27 -8.5 38t-23.5 11q-4 0 -14 -2q-6 -1 -6 5q37 9 63.5 20t46.5 30
q7 1 5 -5q-6 -22 -7.5 -57.5t-1.5 -117.5v-386l119 115l-6 11q5 0 31 13l113 110q11 10 11 18q0 16 -42 21q-4 0 -3.5 3t4.5 3q50 -2 75 -2q22 0 60 2q4 0 3.5 -3t-5.5 -3q-47 0 -93 -40l-108 -103q5 1 8 0q58 -124 111.5 -200.5t126.5 -127.5q4 -2 1.5 -5z" />
    <glyph glyph-name="l" unicode="l" horiz-adv-x="248" 
d="M88.5 653q-8.5 11 -23.5 11q-4 0 -14 -2q-6 -1 -6 5q75 16 110 49q7 2 5 -4q-6 -22 -7.5 -57.5t-1.5 -117.5v-470q0 -28 16.5 -44.5t43.5 -18.5q3 0 3.5 -3t-3.5 -3q-18 1 -86 1q-67 0 -86 -1q-5 0 -5 3.5t5 3.5q59 -2 59 62l-1 548q0 27 -8.5 38z" />
    <glyph glyph-name="m" unicode="m" horiz-adv-x="860" 
d="M864.5 137.5q3.5 0.5 3.5 -5.5q0 -71 -23.5 -107.5t-54.5 -36.5q-26 0 -41.5 22t-26.5 67l-64 258q-14 54 -38 74.5t-65 20.5q-56 0 -85 -37t-35 -99l37 -231q5 -29 16.5 -42t24.5 -11q4 0 4.5 -2t-3.5 -3q-9 -9 -20 -13t-22 -2q-20 4 -34 19t-18 40l-42 264
q-11 64 -38 90.5t-69 26.5q-50 0 -82.5 -45t-37.5 -117v-207q0 -29 16 -42t44 -15q4 0 4 -3t-4 -3q-19 1 -85 1t-87 -1q-4 0 -4 3.5t4 3.5q31 0 45 11.5t14 45.5v300q0 24 -8.5 35t-28.5 11q-9 0 -23 -3q-3 -1 -4 1.5t1 3.5q83 20 115 42q4 3 7 1.5t3 -3.5
q-4 -27 -6.5 -50.5t-2.5 -54.5v-23q14 57 56.5 96.5t92.5 39.5q46 0 81.5 -32t48.5 -103q11 57 51.5 96t97.5 39q53 0 85 -25.5t48 -90.5l63 -255q15 -63 42 -63q8 0 18 9t18 33t8 66q0 5 3.5 5.5z" />
    <glyph glyph-name="n" unicode="n" horiz-adv-x="608" 
d="M612.5 137.5q3.5 0.5 3.5 -5.5q0 -71 -23.5 -107.5t-54.5 -36.5q-26 0 -41.5 21.5t-26.5 67.5l-62 257q-8 34 -18.5 54t-31.5 30.5t-58 10.5q-40 0 -74 -21.5t-54.5 -64t-20.5 -103.5v-179q0 -29 16 -42t44 -15q4 0 4 -3t-4 -3q-19 1 -85 1t-87 -1q-4 0 -4 3.5t4 3.5
q31 0 45 11.5t14 45.5v300q0 24 -8.5 35t-28.5 11q-9 0 -23 -3q-3 -1 -4 1.5t1 3.5q83 20 115 42q4 3 7 1.5t3 -3.5q-4 -27 -6.5 -50.5t-2.5 -54.5v-27q11 38 38 70t63 51t72 19q64 0 93.5 -28.5t43.5 -88.5l62 -254q7 -31 17 -47t25 -16q7 0 17.5 9t18.5 33t8 66
q0 5 3.5 5.5z" />
    <glyph glyph-name="o" unicode="o" horiz-adv-x="531" 
d="M140 15.5q-50 28.5 -79.5 80t-29.5 118.5q0 65 32.5 120.5t89.5 89t126 33.5q60 0 111 -28.5t80.5 -80t29.5 -116.5t-33 -121.5t-90.5 -90t-126.5 -33.5q-60 0 -110 28.5zM406 54q47 46 47 137q0 60 -26.5 116.5t-73.5 92.5t-103 36q-81 0 -126.5 -45t-45.5 -136
q0 -60 26 -117t71.5 -93.5t99.5 -36.5q84 0 131 46z" />
    <glyph glyph-name="p" unicode="p" horiz-adv-x="555" 
d="M432.5 429.5q42.5 -28.5 67.5 -80t25 -117.5q0 -64 -28.5 -120.5t-78.5 -90.5t-112 -34q-48 0 -76.5 14.5t-53.5 37.5q-13 13 -18 13q-8 0 -8 -20v-166q0 -59 54 -62q3 0 3.5 -3t-3.5 -3q-40 2 -72 2q-39 0 -87 -2q-5 0 -5 3.5t5 3.5q27 -1 39.5 13.5t12.5 48.5v495
q0 24 -8.5 35t-28.5 11q-9 0 -23 -3q-3 -1 -4 1.5t1 3.5q83 20 114 42q5 3 8 1.5t3 -3.5q-7 -40 -8 -76q0 -14 2 -31t5 -20q64 135 180 135q52 0 94.5 -28.5zM437.5 52.5q39.5 46.5 39.5 139.5q0 63 -21 115.5t-60.5 83.5t-93.5 31q-44 0 -78.5 -23.5t-54 -66t-19.5 -95.5
v-46q0 -79 41 -132t120 -53q87 0 126.5 46.5z" />
    <glyph glyph-name="q" unicode="q" horiz-adv-x="531" 
d="M59.5 332q28.5 57 78 91.5t109.5 34.5q45 0 76.5 -15t60.5 -39l12 -9t13 -8.5t10 -2.5q16 0 38 64q2 6 6 6q2 0 3.5 -2.5t0.5 -5.5q-8 -56 -8 -115v-465q0 -59 53 -62q4 0 4 -3t-4 -3q-40 2 -71 2q-39 0 -87 -2q-5 0 -5 3.5t5 3.5q27 -1 39.5 13.5t12.5 48.5v200
q0 32 -2 43q-1 9 -5 0q-27 -57 -74.5 -90t-111.5 -33q-52 0 -93.5 28t-65 79t-23.5 117q0 64 28.5 121zM99 136.5q21 -52.5 60.5 -83.5t91.5 -31q79 0 117 49.5t38 137.5v11q0 97 -38.5 157t-119.5 60q-93 0 -131.5 -46t-38.5 -140q0 -62 21 -114.5z" />
    <glyph glyph-name="r" unicode="r" horiz-adv-x="391" 
d="M339 447q26 -11 40 -29t10 -37l-30 -121q-1 -7 -4 -5.5t-1 6.5q6 30 6 53q0 53 -26.5 76.5t-74.5 23.5q-62 0 -85 -53t-23 -128v-172q0 -29 16 -42t44 -15q4 0 4 -3t-4 -3q-19 1 -85 1t-87 -1q-4 0 -4 3.5t4 3.5q31 0 45 11.5t14 45.5v300q0 24 -8.5 35t-28.5 11
q-9 0 -23 -3q-3 -1 -4 1.5t1 3.5q83 20 115 42q4 3 7 1.5t3 -3.5q-4 -27 -6.5 -50.5t-2.5 -54.5v-31q36 144 133 144q29 0 55 -11z" />
    <glyph glyph-name="s" unicode="s" horiz-adv-x="406" 
d="M50 168q1 4 3.5 3.5t2.5 -4.5q-2 -24 -2 -32q0 -70 36 -100.5t108 -30.5q60 0 93.5 18.5t33.5 65.5q-1 42 -33 69t-110 64q-69 34 -101.5 59t-32.5 61q0 28 21.5 55.5t60 44.5t85.5 17q59 0 104 -16t45 -48q0 -6 -1 -9l-22 -97q-1 -4 -3.5 -3.5t-1.5 4.5q2 24 2 34
q0 61 -30 88.5t-104 27.5q-63 0 -86.5 -18t-23.5 -49q0 -32 30 -54t100 -57q70 -32 111 -65.5t41 -78.5q0 -33 -23.5 -63t-66.5 -48.5t-98 -18.5q-74 0 -118.5 22.5t-38.5 57.5z" />
    <glyph glyph-name="t" unicode="t" horiz-adv-x="276" 
d="M101.5 13q-20.5 25 -20.5 68v331q0 14 -3.5 20t-17.5 6h-34q-4 0 -4 2.5t3 3.5q48 9 75 37.5t33 79.5q0 5 3 5t3 -5q0 -43 -4 -98v-4q0 -9 5 -12t19 -3h101q2 0 1 -3t-4 -3h-93q-18 0 -24 -5.5t-6 -21.5v-320q0 -32 15 -51.5t38 -19.5q19 0 39 13t38 39q3 5 5 4t-1 -6
q-26 -41 -55.5 -61.5t-57.5 -20.5q-33 0 -53.5 25z" />
    <glyph glyph-name="u" unicode="u" horiz-adv-x="517" 
d="M522 136q3 0 3 -5q0 -62 -17 -101t-57 -39q-29 0 -45.5 22t-16.5 65v59q-11 -67 -55.5 -108.5t-106.5 -41.5q-72 0 -115.5 49t-43.5 145v181q0 24 -8.5 35t-28.5 11q-10 0 -23 -3q-3 -1 -4 1.5t1 3.5q83 20 114 42q5 3 8 1.5t3 -3.5q-4 -27 -6.5 -50.5t-2.5 -54.5v-161
q0 -171 131 -171q62 0 99.5 47.5t37.5 140.5v161q0 24 -8.5 35t-28.5 11q-10 0 -23 -3q-3 -1 -4.5 1.5t0.5 3.5q33 8 65.5 19t49.5 23q5 3 7.5 1.5t2.5 -3.5q-5 -31 -6.5 -51.5t-1.5 -53.5v-257q0 -31 7.5 -46t24.5 -15q29 0 37 26.5t8 77.5q0 5 3 5z" />
    <glyph glyph-name="v" unicode="v" horiz-adv-x="496" 
d="M490 442q0 -3 -3 -3q-19 0 -30.5 -13t-26.5 -47l-151 -347q-2 -7 0 -11l3 -8q4 -5 -2 -9l-39 -13q-5 -3 -9 4l-166 384q-15 34 -26.5 47t-30.5 13q-4 0 -4 3t4 3q11 -1 41 -1h62q51 0 71 1q5 0 5 -3t-5 -3q-65 0 -65 -37q0 -12 5 -23l146 -336q4 -10 8 0l146 336
q6 14 6 23q0 19 -17.5 28t-46.5 9q-6 0 -6 3t6 3q19 -1 69 -1h12q30 0 41 1q3 0 3 -3z" />
    <glyph glyph-name="w" unicode="w" horiz-adv-x="736" 
d="M731 442q0 -3 -4 -3q-19 0 -30.5 -13t-26.5 -47l-150 -348q-2 -4 0 -10l4 -8q3 -6 -3 -8l-38 -14q-7 -4 -9 4l-105 259l-94 -223q-1 -6 0 -10l4 -8q3 -6 -3 -8l-38 -14q-5 -3 -9 4l-163 384q-15 34 -26.5 47t-30.5 13q-4 0 -4 3t4 3q11 -1 41 -1h61q40 0 54 1q5 0 5 -3
t-5 -3q-48 0 -48 -34q0 -11 6 -26l144 -336q3 -8 6 0l93 218l-48 118q-14 33 -29.5 46.5t-42.5 13.5q-4 0 -4 3t4 3q15 -1 55 -1h63q42 0 58 1q5 0 5 -3t-5 -3q-24 0 -38.5 -8.5t-14.5 -26.5q0 -10 6 -25l136 -335q4 -10 8 0l144 335q6 15 6 25q0 18 -15 26.5t-39 8.5
q-5 0 -5 3t5 3q16 -1 60 -1h11q30 0 41 1q4 0 4 -3z" />
    <glyph glyph-name="x" unicode="x" horiz-adv-x="476" 
d="M474 2.5q0 -3.5 -5 -3.5q-16 1 -58 1h-67q-43 0 -58 -1q-5 0 -5 3.5t5 3.5q22 0 36 7.5t14 21.5q0 11 -10 27l-113 167l-117 -167q-11 -17 -11 -27q0 -14 14.5 -21.5t36.5 -7.5q5 0 5 -3.5t-5 -3.5q-16 1 -58 1h-13q-42 0 -58 -1q-4 0 -4 3.5t4 3.5q27 0 43 12t39 44
l120 172l-100 148q-21 32 -37 44.5t-42 12.5q-4 0 -4 3t4 3q15 -1 56 -1h67q44 0 60 1q5 0 5 -3t-5 -3q-23 0 -37.5 -7.5t-14.5 -22.5q0 -11 10 -27l92 -136l94 137q10 14 10 27q0 14 -14.5 21.5t-37.5 7.5q-4 0 -4 3t4 3q17 -1 60 -1h14q42 0 58 1q5 0 5 -3t-5 -3
q-27 0 -43.5 -12t-38.5 -44l-98 -142l121 -179q21 -32 37.5 -44t43.5 -12q5 0 5 -3.5z" />
    <glyph glyph-name="y" unicode="y" horiz-adv-x="496" 
d="M490 442q0 -3 -3 -3q-19 0 -30.5 -13t-26.5 -47l-169 -389q-49 -106 -88.5 -150.5t-88.5 -44.5q-34 0 -59.5 17t-32.5 43q-1 8 5.5 23t14.5 22.5t9 -1.5q5 -29 26.5 -55.5t54.5 -26.5q38 0 67.5 31t65.5 107q2 4 2 13q0 19 -10 39l-161 372q-15 34 -26.5 47t-30.5 13
q-4 0 -4 3t4 3q11 -1 41 -1h62q51 0 70 1q5 0 5 -3t-5 -3q-65 0 -65 -37q0 -9 6 -23l145 -336q5 -9 9 0l146 336q6 14 6 23q0 37 -65 37q-6 0 -6 3t6 3q19 -1 70 -1h12q30 0 41 1q3 0 3 -3z" />
    <glyph glyph-name="z" unicode="z" horiz-adv-x="437" 
d="M376 -2.5q-12 2.5 -32 2.5h-217l-50 -1q-11 -1 -28 -1q-7 0 -9.5 2t-2.5 6q0 7 8 18l293 404q3 5 3 7q0 6 -9 4l-202 -13q-19 -1 -30.5 -8t-21 -28t-16.5 -62q-1 -4 -3 -3.5t-2 3.5q3 39 3 74q0 25 -1 37q0 11 8 11q4 0 15 -3t36 -3h206l38 1q14 1 38 1q8 0 8 -7
q0 -4 -9 -15.5t-12 -16.5q-17 -18 -27 -36l-257 -353q-3 -4 -3 -8q0 -6 9 -5l217 13q26 1 39 11t21 37.5t17 89.5q1 4 3.5 4t1.5 -4q-9 -101 -6 -151q0 -10 -8 -10q-6 0 -18 2.5z" />
    <glyph glyph-name="braceleft" unicode="{" horiz-adv-x="306" 
d="M169 -116.5q-39 35.5 -39 106.5q0 38 3 75q1 13 2 38t1 45q0 45 -6 74t-28 48t-66 19q-5 0 -5 2.5t5 2.5q45 0 66.5 15t27.5 42.5t6 76.5q0 21 -1 47.5t-2 39.5q-3 39 -3 75q0 70 39.5 107t126.5 37q7 0 7 -3t-7 -3q-60 0 -87 -34t-27 -100q0 -30 3 -68q3 -81 3 -87
q0 -112 -93 -142q-4 -1 0 -3q58 -10 75.5 -50t17.5 -94q0 -11 -3 -95q-3 -36 -3 -66q0 -60 29 -97.5t85 -37.5q7 0 7 -3t-7 -3q-88 0 -127 35.5z" />
    <glyph glyph-name="bar" unicode="|" horiz-adv-x="225" 
d="M108 712q0 10 4 10t4 -10l-2 -827q0 -9 -4 -9t-4 9z" />
    <glyph glyph-name="braceright" unicode="}" horiz-adv-x="288" 
d="M120 698.5q39 -35.5 39 -106.5q0 -17 -1 -40t-2 -35q-4 -54 -4 -83q0 -44 6 -73t28 -48t66 -19q5 0 5 -3t-5 -3q-45 0 -66.5 -15t-27.5 -42.5t-6 -76.5q0 -31 4 -87q1 -13 2 -32t1 -43q0 -70 -39.5 -107t-127.5 -37q-7 0 -6.5 3t6.5 3q60 0 87.5 34t27.5 100q0 21 -1 38
t-2 30q-4 56 -4 87q0 113 94 143q1 0 1 0.5t-1 1.5q-59 10 -76.5 50.5t-17.5 94.5q0 38 4 94q3 36 3 66q0 60 -29 97.5t-86 37.5q-7 0 -7 3t7 3q89 0 128 -35.5z" />
    <glyph glyph-name="asciitilde" unicode="~" horiz-adv-x="366" 
d="M47.5 198q-3.5 1 -1.5 5q21 61 72 61q28 0 60 -16l34 -17q22 -11 41 -11q36 0 61 46q2 5 5 4t1 -6q-23 -63 -69 -63q-26 0 -61 18l-32 16q-30 15 -49 15q-18 0 -31 -12t-25 -37q-2 -4 -5.5 -3z" />
    <glyph glyph-name="uni00A0" unicode="&#xa0;" horiz-adv-x="189" 
 />
    <glyph glyph-name="exclamdown" unicode="&#xa1;" horiz-adv-x="279" 
d="M167 497q10 -7 10 -18q0 -14 -15.5 -25t-41.5 -11q-16 0 -26 7t-10 18q0 15 16 25.5t39 10.5q18 0 28 -7zM154 8q11 -138 11 -174q0 -23 -8 -33t-26 -10q-17 0 -25 10t-8 33q0 35 11 174q17 211 19 332q0 3 3.5 3t3.5 -3q2 -118 19 -332z" />
    <glyph glyph-name="cent" unicode="&#xa2;" horiz-adv-x="460" 
d="M440 83.5q2 -1.5 0 -4.5q-38 -46 -82 -67.5t-102 -23.5v-179q0 -9 -4 -9t-4 9v179h-1q-59 0 -108.5 28.5t-78.5 80t-29 118.5q0 65 29 118.5t79 86t111 37.5v179q0 10 4 10t4 -10v-178h15q45 0 81.5 -14.5t55.5 -37t14 -44.5l-32 -119q-1 -4 -4 -3t-2 5q6 26 6 49
q0 62 -36 101.5t-98 42.5l-2 -414q18 -3 35 -3q37 0 77 13t67 49q3 2 5 0.5zM102.5 141q24.5 -48 63 -76.5t82.5 -38.5l2 412h-2q-80 0 -125 -43t-45 -141q0 -65 24.5 -113z" />
    <glyph glyph-name="sterling" unicode="&#xa3;" horiz-adv-x="605" 
d="M534 73.5q3 -2.5 -2 -6.5q-32 -36 -71 -58t-98 -22q-39 0 -65.5 6t-56.5 17q-24 9 -41 13t-38 4q-30 0 -76 -12q-17 -10 -50 -23q-9 -4 -17 -4q-11 0 -11 7q0 6 7.5 12.5t19.5 10.5q53 11 66 13q81 56 81 164q0 39 -11.5 70t-32.5 62h-126q-4 0 -4 2.5t4 2.5h122l-21 29
q-33 45 -48.5 76.5t-15.5 74.5q0 62 31.5 107t83 68.5t109.5 23.5q79 0 141.5 -32t93.5 -105q1 -1 1 -4q0 -5 -11 -13q-18 -14 -27 -14q-4 0 -6 5q-27 71 -81 107.5t-117 36.5q-49 0 -80 -8.5t-56 -30.5q-18 -15 -26.5 -41.5t-8.5 -74.5q0 -38 14.5 -67.5t43.5 -69.5
q27 -36 44 -68h216q5 0 5 -2.5t-5 -2.5h-213q23 -48 23 -103q0 -48 -27 -100.5t-82 -90.5q48 6 112 6l124 -1l76 -1q36 0 58.5 7t40.5 27q5 5 8 2.5z" />
    <glyph glyph-name="currency" unicode="&#xa4;" horiz-adv-x="368" 
d="M322 185l-15 -15l-42 40q-38 -33 -88 -33q-48 0 -81 28l-36 -36l-7 9l36 33q-36 34 -36 87q0 48 33 84l-40 36l15 15l39 -37q39 31 87 31q49 0 84 -30l37 36l7 -8l-38 -34q33 -35 33 -84q0 -46 -31 -82zM257 217q25 27 25 75q0 32 -14 60t-38 45.5t-52 17.5
q-47 0 -72 -27.5t-25 -76.5q0 -48 31 -84.5t75 -36.5q45 0 70 27z" />
    <glyph glyph-name="yen" unicode="&#xa5;" horiz-adv-x="614" 
d="M609 700q0 -3 -4 -3q-27 -2 -39.5 -14.5t-34.5 -52.5l-189 -338q-4 -5 -5 -11q88 -1 221 -1q6 0 6 -6q0 -7 -6 -7l-223 1v-2l1 -116q88 -1 222 -1q6 0 6 -6t-6 -6q-134 0 -222 1v-63q0 -40 16.5 -55t55.5 -17q5 0 5 -3t-5 -2l-50 2h-101l-49 -2q-5 -1 -5.5 2t5.5 3
q38 2 55 17t17 55v63q-75 1 -133.5 1h-88.5q-3 0 -5 2t-2 4t2 4t5 2h88.5t133.5 -1l-1 116v3l-221 1q-3 0 -5 2t-2 4t2 4t5 2h87.5t131.5 -1q-3 8 -4 10l-189 339q-23 40 -35.5 52.5t-39.5 14.5q-4 0 -3.5 3t4.5 3q24 -3 39 -3h107q20 0 59 3q6 0 6.5 -3t-6.5 -3
q-78 -4 -78 -38q0 -12 9 -29l182 -329q6 -10 12 0l184 329q9 17 9 28q0 35 -79 39q-6 0 -5.5 3t5.5 3q39 -3 60 -3h52l39 2q4 1 4 -2z" />
    <glyph glyph-name="brokenbar" unicode="&#xa6;" horiz-adv-x="226" 
d="M107 615q1 36 1 76q0 9 6 9q2 0 3.5 -2.5t1.5 -6.5q0 -191 -1 -318q0 -4 -2 -6t-4 -2t-4 2t-2 6zM117 -92q0 -8 -6 -8q-7 0 -7 8l1 321q0 8 7 8q6 0 6 -8z" />
    <glyph glyph-name="section" unicode="&#xa7;" horiz-adv-x="533" 
d="M112 -60q-7 1 -10.5 12t-5 40t-1.5 89q-1 3 2 3t3 -3q6 -43 17 -78t25 -46q20 -15 46 -15q41 0 71 25.5t30 71.5q0 42 -20 75t-80 101q-69 79 -99.5 118t-44.5 72t-14 73q0 62 42.5 115.5t115.5 85.5t161 32q29 0 71 -5q11 -2 14.5 -18.5t3.5 -66.5v-55q0 -4 -3 -4t-3 3
q-3 57 -12 84.5t-23 37.5q-13 10 -24.5 13.5t-28.5 3.5q-42 0 -72.5 -26.5t-30.5 -65.5q0 -35 32 -81.5t101 -116.5q51 -51 76 -81t38 -61.5t13 -72.5q0 -69 -49 -130t-125 -97.5t-150 -36.5q-29 0 -66 5zM414.5 45.5q59.5 53.5 59.5 132.5q0 34 -10 60.5t-36.5 59.5
t-81.5 89q-67 68 -104.5 121t-37.5 91q0 24 10.5 45t36.5 42q-81 -19 -137.5 -69t-56.5 -115q0 -40 14 -72.5t44.5 -70.5t101.5 -117q52 -58 80.5 -101.5t28.5 -88.5q0 -23 -10.5 -47t-36.5 -42q76 29 135.5 82.5z" />
    <glyph glyph-name="dieresis" unicode="&#xa8;" horiz-adv-x="298" 
d="M46 545.5q-10 8.5 -10 20.5q1 13 13 22t30 9q16 0 26 -8t10 -19q0 -13 -12 -23t-31 -10q-16 0 -26 8.5zM183 545q-10 8 -10 19q0 14 12 23.5t31 9.5q15 0 25 -8t10 -19q0 -13 -11.5 -23t-30.5 -10q-16 0 -26 8z" />
    <glyph glyph-name="copyright" unicode="&#xa9;" horiz-adv-x="785" 
d="M202.5 33q-73.5 45 -115 124.5t-41.5 179.5q0 95 46.5 181t130.5 139t190 53q93 0 167.5 -45t116.5 -124t42 -176t-47 -184t-131.5 -140t-192.5 -53q-92 0 -165.5 45zM563 53.5q75 43.5 114.5 124.5t39.5 193q0 89 -41.5 161.5t-115 114t-164.5 41.5q-101 0 -175 -43
t-113 -122t-39 -186q0 -91 40 -165.5t112 -118t163 -43.5q104 0 179 43.5zM289.5 147q-48.5 28 -77 78.5t-28.5 116.5q0 68 32 122.5t86.5 85t118.5 30.5q41 0 74.5 -12t53 -32.5t19.5 -42.5q0 -4 -2 -12l-28 -102q-1 -4 -3.5 -3.5t-1.5 4.5q4 21 4 46q0 66 -36.5 99
t-104.5 33q-80 0 -124 -42t-44 -139q0 -74 31.5 -124.5t78.5 -75t94 -24.5q101 0 148 59q2 3 4 1t0 -4q-39 -47 -84 -68.5t-105 -21.5q-57 0 -105.5 28z" />
    <glyph glyph-name="ordfeminine" unicode="&#xaa;" horiz-adv-x="302" 
d="M281 539.5q3 0.5 3 -3.5q0 -40 -13.5 -59t-29.5 -19q-15 0 -23.5 12.5t-13.5 36.5l-6 26q-10 -33 -36.5 -54t-59.5 -21q-41 0 -63 23.5t-22 55.5q0 28 28.5 45.5t71.5 17.5q35 0 69 -6l-11 51q-5 28 -21 40.5t-48 12.5q-35 0 -61 -21t-26 -62q0 -3 -3 -3t-3 3q0 46 33 72
t74 26q39 0 59 -16.5t28 -51.5l28 -132q5 -34 19 -34q9 0 17 11t7 46q0 3 3 3.5zM192 562l-4 21q-51 6 -66 6q-43 0 -59.5 -10t-16.5 -39q0 -27 17 -44.5t52 -17.5q75 0 77 77v7zM254 434q3 0 4.5 -1.5t1.5 -3.5q0 -6 -6 -6h-229q-3 0 -5 2t-2 4t2 3.5t5 1.5h229z" />
    <glyph glyph-name="guillemotleft" unicode="&#xab;" horiz-adv-x="382" 
d="M243.5 458.5q-0.5 -1.5 -3.5 -3.5l-187 -188l6 3q-7 -7 -1 -15l177 -194q4 -6 4 -7q0 -4 -14 -8q-16 -4 -25 -4q-6 0 -9 4l-160 177q-6 8 -6 11v11q0 5 12 14l197 199q4 2 6 2q4 0 3.5 -1.5zM366.5 458.5q-0.5 -1.5 -3.5 -3.5l-187 -188l6 3q-7 -7 -1 -15l177 -194
q4 -6 4 -7q0 -4 -14 -8q-16 -4 -25 -4q-6 0 -9 4l-160 177q-6 8 -6 11v11q0 5 12 14l197 199q4 2 6 2q4 0 3.5 -1.5z" />
    <glyph glyph-name="logicalnot" unicode="&#xac;" horiz-adv-x="507" 
d="M60 234q-6 0 -10 2t-4 5q0 7 14 7h391q10 0 10 -11v-142q0 -6 -2 -10t-5 -4q-7 0 -7 14v139h-387z" />
    <glyph glyph-name="uni00AD" unicode="&#xad;" horiz-adv-x="241" 
d="M39 238q-4 0 -4 3.5t4 3.5h187q5 0 5 -3.5t-5 -3.5h-187z" />
    <glyph glyph-name="registered" unicode="&#xae;" horiz-adv-x="550" 
d="M149 263.5q-48 29.5 -75.5 82t-27.5 118.5q0 62 31 119t86.5 92t124.5 35q62 0 111 -29.5t77 -81.5t28 -116t-31 -121.5t-87.5 -92.5t-127.5 -35q-61 0 -109 29.5zM428.5 314.5q57.5 62.5 57.5 171.5q0 57 -27 104.5t-75 74.5t-107 27q-98 0 -154.5 -61.5t-56.5 -166.5
q0 -59 26 -107.5t72 -76.5t105 -28q102 0 159.5 62.5zM157.5 619q0.5 2 2.5 2l22 -1l82 1q55 0 88 -22t33 -53q0 -37 -23 -56t-68 -24q28 -2 45.5 -12t23.5 -39q1 -5 4 -16t6 -27q4 -16 10.5 -21.5t21.5 -6.5q2 0 1.5 -1t-1.5 -1l-20 1h-35q-3 0 -5 3q-4 20 -16 68
q-8 30 -21 39.5t-36 9.5h-31q-2 0 -2 1.5t2 1.5q59 1 84 18.5t25 59.5q0 30 -20.5 49t-64.5 20l-24 1q-16 0 -20 -3t-4 -13v-225q0 -16 6.5 -22t21.5 -7q2 0 2 -1t-2 -1l-19 1h-51l-20 -1q-1 0 -1.5 1t1.5 1q15 1 22 7t7 22v218q0 14 -5.5 20t-18.5 6q-3 0 -2.5 2z" />
    <glyph glyph-name="macron" unicode="&#xaf;" horiz-adv-x="600" 
d="M193 587q-8 0 -8 4q0 3 8 3h243q3 0 5.5 -1t2.5 -2q0 -4 -8 -4h-243z" />
    <glyph glyph-name="degree" unicode="&#xb0;" horiz-adv-x="277" 
d="M77 577q-23 21 -23 55q0 32 25.5 57t60.5 25q33 0 57.5 -21t24.5 -54t-26 -58t-63 -25q-33 0 -56 21zM199 621q0 31 -21 56t-50 25q-23 0 -36.5 -12t-13.5 -41q0 -30 21 -55t51 -25q49 0 49 52z" />
    <glyph glyph-name="plusminus" unicode="&#xb1;" horiz-adv-x="414" 
d="M206 244q0 3 -1 5.5t-4 2.5h-133q-6 0 -10 2t-4 5q0 7 14 7h132q4 0 5 3t1 8v131q0 6 2 9t5 3q7 0 7 -12v-131q0 -5 1 -8t4 -3h132q5 0 8 -2t3 -5q0 -7 -11 -7h-132q-3 0 -4 -2.5t-1 -5.5v-131q0 -13 -7 -13q-3 0 -5 3.5t-2 9.5v131zM60 24q-6 0 -9.5 1t-4.5 2q0 3 14 3
h289q5 0 7.5 -1t3.5 -2q0 -3 -11 -3h-289z" />
    <glyph glyph-name="acute" unicode="&#xb4;" horiz-adv-x="236" 
d="M10 508q-1 3 3 6q40 35 60 62t35 56q8 16 13 22t14 7l13 1q10 0 17.5 -2.5t7.5 -6.5q0 -10 -35 -45t-74.5 -68.5t-47.5 -34.5q-5 0 -6 3z" />
    <glyph glyph-name="paragraph" unicode="&#xb6;" horiz-adv-x="540" 
d="M204.5 -156q6.5 -1 13.5 -1q65 0 84.5 44.5t19.5 117.5v319h-70q-57 0 -101.5 25t-69.5 68t-25 96q0 52 25 94.5t70 67.5t101 25h198v-606q0 -79 -18.5 -134t-75.5 -89.5t-165 -34.5q-10 0 -10 4q0 5 10 5q7 0 13.5 -1zM356 24q0 -63 -20 -111.5t-67 -64.5q67 13 98.5 42
t39.5 68t8 103v633h-59v-670z" />
    <glyph glyph-name="periodcentered" unicode="&#xb7;" horiz-adv-x="207" 
d="M67 204.5q-10 7.5 -10 18.5q0 14 16 24.5t41 10.5q16 0 26 -7t10 -18q0 -15 -16.5 -25.5t-40.5 -10.5q-16 0 -26 7.5z" />
    <glyph glyph-name="cedilla" unicode="&#xb8;" horiz-adv-x="281" 
d="M94 -179.5q-27 10.5 -29 28.5q0 5 6 13.5t11 8.5q3 0 15.5 -14t29.5 -24.5t43 -10.5q20 0 31 7t11 17q-1 16 -30.5 35.5t-78.5 30.5l42 88h10q-10 -16 -16.5 -30t-13.5 -32q50 -15 75 -35.5t25 -42.5q0 -21 -19 -35.5t-53 -14.5q-32 0 -59 10.5z" />
    <glyph glyph-name="ordmasculine" unicode="&#xba;" horiz-adv-x="287" 
d="M45.5 492q-34.5 34 -34.5 89q0 58 38 95t96 37q51 0 86.5 -34.5t35.5 -88.5q0 -59 -38.5 -95.5t-97.5 -36.5q-51 0 -85.5 34zM215.5 494.5q24.5 22.5 24.5 74.5q0 33 -14 63t-39.5 49t-56.5 19q-92 0 -92 -98q0 -32 13.5 -62t38 -49t55.5 -19q46 0 70.5 22.5zM251 434
q3 0 4.5 -1.5t1.5 -3.5q0 -6 -6 -6h-230q-3 0 -5 2t-2 4t2 3.5t5 1.5h230z" />
    <glyph glyph-name="guillemotright" unicode="&#xbb;" horiz-adv-x="375" 
d="M336 280q8 -8 8 -13v-10q0 -4 -3.5 -7.5t-8.5 -7.5l-195 -199q-2 -2 -5 -2q-4 0 -4 1.5t3 4.5l182 186l-2 -1q4 3 4 7q0 5 -3 8l-176 186q-3 2 -3 4q0 5 15 10q15 3 21 3t9 -4zM216 280q8 -8 8 -13v-10q0 -4 -3.5 -7.5t-8.5 -7.5l-195 -199q-2 -2 -5 -2q-4 0 -4 1.5
t3 4.5l182 186l-2 -1q4 3 4 7q0 5 -3 8l-176 186q-3 2 -3 4q0 5 15 10q15 3 21 3t9 -4z" />
    <glyph glyph-name="questiondown" unicode="&#xbf;" horiz-adv-x="513" 
d="M335.5 501q11.5 -7 11.5 -19q0 -13 -15 -24t-37 -11q-18 -1 -29.5 6t-11.5 19q0 13 15 24t37 11q18 1 29.5 -6zM296 321q0 -42 -13.5 -74t-32.5 -54t-52 -52q-31 -28 -48.5 -48t-30 -48.5t-12.5 -65.5q0 -49 23.5 -86.5t63.5 -58t89 -20.5q87 0 139 44.5t56 134.5
q0 14 8 14q3 0 5.5 -3.5t1.5 -8.5q-4 -57 -37 -104.5t-86 -74.5t-116 -27q-59 0 -106.5 23t-74.5 65.5t-27 97.5q0 45 16 76.5t39 51.5t63 47q42 28 66.5 50t41.5 56.5t17 83.5q0 4 3 4.5t3 -3.5q1 -7 1 -20z" />
    <glyph glyph-name="Agrave" unicode="&#xc0;" horiz-adv-x="701" 
d="M696 0q0 -3 -4 -2l-39 2h-104q-21 0 -60 -3q-6 0 -6.5 3t6.5 3q39 2 59.5 11t20.5 31q0 12 -6 27l-73 171q-7 7 -15 7q-7 0 -14 -4q-142 -70 -307 -77q-11 0 -20.5 -5.5t-14.5 -13.5l-33 -78q-7 -15 -7 -27q0 -22 21.5 -31t60.5 -11q7 0 6.5 -3t-6.5 -3q-39 3 -61 3h-52
l-39 -2q-4 -1 -4 2t4 3q27 2 40 15t30 54l233 551q4 9 4 19q0 7 -2 15l-13 29q-2 4 -5 6.5t-4 3.5q-2 2 0 3t6 1h49q9 0 12 -8l263 -620q18 -41 30.5 -54t39.5 -15q4 0 4 -3zM471.5 267.5q3.5 9.5 0.5 16.5h1l-150 350l-185 -440v-2q0 -7 4.5 -12t12.5 -5q82 5 160.5 24.5
t142.5 52.5q10 6 13.5 15.5zM337.5 763q-46.5 25 -87 51.5t-40.5 36.5q-1 6 10 9t23 3q9 0 15 -4.5t19 -18.5q45 -50 117 -93q4 -2 4 -4q0 -3 -7 -5q-7 0 -53.5 25z" />
    <glyph glyph-name="Aacute" unicode="&#xc1;" horiz-adv-x="701" 
d="M696 0q0 -3 -4 -2l-39 2h-104q-21 0 -60 -3q-6 0 -6.5 3t6.5 3q39 2 59.5 11t20.5 31q0 12 -6 27l-73 171q-7 7 -15 7q-7 0 -14 -4q-142 -70 -307 -77q-11 0 -20.5 -5.5t-14.5 -13.5l-33 -78q-7 -15 -7 -27q0 -22 21.5 -31t60.5 -11q7 0 6.5 -3t-6.5 -3q-39 3 -61 3h-52
l-39 -2q-4 -1 -4 2t4 3q27 2 40 15t30 54l233 551q4 9 4 19q0 7 -2 15l-13 29q-2 4 -5 6.5t-4 3.5q-2 2 0 3t6 1h49q9 0 12 -8l263 -620q18 -41 30.5 -54t39.5 -15q4 0 4 -3zM471.5 267.5q3.5 9.5 0.5 16.5h1l-150 350l-185 -440v-2q0 -7 4.5 -12t12.5 -5q82 5 160.5 24.5
t142.5 52.5q10 6 13.5 15.5zM266 742q-1 3 3 5q72 43 117 93q13 14 19 18.5t15 4.5q12 0 23 -3t10 -9q0 -10 -40.5 -36.5t-87 -51.5t-53.5 -25q-5 1 -6 4z" />
    <glyph glyph-name="Acircumflex" unicode="&#xc2;" horiz-adv-x="701" 
d="M696 0q0 -3 -4 -2l-39 2h-104q-21 0 -60 -3q-6 0 -6.5 3t6.5 3q39 2 59.5 11t20.5 31q0 12 -6 27l-73 171q-7 7 -15 7q-7 0 -14 -4q-142 -70 -307 -77q-11 0 -20.5 -5.5t-14.5 -13.5l-33 -78q-7 -15 -7 -27q0 -22 21.5 -31t60.5 -11q7 0 6.5 -3t-6.5 -3q-39 3 -61 3h-52
l-39 -2q-4 -1 -4 2t4 3q27 2 40 15t30 54l233 551q4 9 4 19q0 7 -2 15l-13 29q-2 4 -5 6.5t-4 3.5q-2 2 0 3t6 1h49q9 0 12 -8l263 -620q18 -41 30.5 -54t39.5 -15q4 0 4 -3zM471.5 267.5q3.5 9.5 0.5 16.5h1l-150 350l-185 -440v-2q0 -7 4.5 -12t12.5 -5q82 5 160.5 24.5
t142.5 52.5q10 6 13.5 15.5zM503 739q0 -3 -5 -3q-23 1 -73.5 33t-73.5 61q-23 -29 -74 -61t-74 -33q-4 0 -5 3t3 5q45 20 68.5 42t40.5 49q12 17 19.5 23.5t20.5 6.5t20.5 -6.5t20.5 -24.5q19 -27 41.5 -48.5t66.5 -41.5q4 -2 4 -5z" />
    <glyph glyph-name="Atilde" unicode="&#xc3;" horiz-adv-x="701" 
d="M696 0q0 -3 -4 -2l-39 2h-104q-21 0 -60 -3q-6 0 -6.5 3t6.5 3q39 2 59.5 11t20.5 31q0 12 -6 27l-73 171q-7 7 -15 7q-7 0 -14 -4q-142 -70 -307 -77q-11 0 -20.5 -5.5t-14.5 -13.5l-33 -78q-7 -15 -7 -27q0 -22 21.5 -31t60.5 -11q7 0 6.5 -3t-6.5 -3q-39 3 -61 3h-52
l-39 -2q-4 -1 -4 2t4 3q27 2 40 15t30 54l233 551q4 9 4 19q0 7 -2 15l-13 29q-2 4 -5 6.5t-4 3.5q-2 2 0 3t6 1h49q9 0 12 -8l263 -620q18 -41 30.5 -54t39.5 -15q4 0 4 -3zM471.5 267.5q3.5 9.5 0.5 16.5h1l-150 350l-185 -440v-2q0 -7 4.5 -12t12.5 -5q82 5 160.5 24.5
t142.5 52.5q10 6 13.5 15.5zM204 749q-3 1 -1 5q25 73 83 73q27 0 62 -15l37 -16q29 -13 49 -13q40 0 59 45q2 4 5 3.5t1 -5.5q-14 -38 -34 -56t-48 -18q-27 0 -61 15l-37 17q-40 17 -60 17q-19 0 -30 -11.5t-20 -36.5q-2 -5 -5 -4z" />
    <glyph glyph-name="Adieresis" unicode="&#xc4;" horiz-adv-x="701" 
d="M696 0q0 -3 -4 -2l-39 2h-104q-21 0 -60 -3q-6 0 -6.5 3t6.5 3q39 2 59.5 11t20.5 31q0 12 -6 27l-73 171q-7 7 -15 7q-7 0 -14 -4q-142 -70 -307 -77q-11 0 -20.5 -5.5t-14.5 -13.5l-33 -78q-7 -15 -7 -27q0 -22 21.5 -31t60.5 -11q7 0 6.5 -3t-6.5 -3q-39 3 -61 3h-52
l-39 -2q-4 -1 -4 2t4 3q27 2 40 15t30 54l233 551q4 9 4 19q0 7 -2 15l-13 29q-2 4 -5 6.5t-4 3.5q-2 2 0 3t6 1h49q9 0 12 -8l263 -620q18 -41 30.5 -54t39.5 -15q4 0 4 -3zM471.5 267.5q3.5 9.5 0.5 16.5h1l-150 350l-185 -440v-2q0 -7 4.5 -12t12.5 -5q82 5 160.5 24.5
t142.5 52.5q10 6 13.5 15.5zM251 766.5q-10 8.5 -10 20.5q1 13 13 22t30 9q16 0 26 -8t10 -19q0 -13 -12 -23t-31 -10q-16 0 -26 8.5zM388 766q-10 8 -10 19q0 14 12 23.5t31 9.5q15 0 25 -8t10 -19q0 -13 -11.5 -23t-30.5 -10q-16 0 -26 8z" />
    <glyph glyph-name="Aring" unicode="&#xc5;" horiz-adv-x="701" 
d="M696 0q0 -3 -4 -2l-39 2h-104q-21 0 -60 -3q-6 0 -6.5 3t6.5 3q39 2 59.5 11t20.5 31q0 12 -6 27l-73 171q-7 7 -15 7q-7 0 -14 -4q-142 -70 -307 -77q-11 0 -20.5 -5.5t-14.5 -13.5l-33 -78q-7 -15 -7 -27q0 -22 21.5 -31t60.5 -11q7 0 6.5 -3t-6.5 -3q-39 3 -61 3h-52
l-39 -2q-4 -1 -4 2t4 3q27 2 40 15t30 54l233 551q4 9 4 19q0 7 -2 15l-13 29q-2 4 -5 6.5t-4 3.5q-2 2 0 3t6 1h49q9 0 12 -8l263 -620q18 -41 30.5 -54t39.5 -15q4 0 4 -3zM471.5 267.5q3.5 9.5 0.5 16.5h1l-150 350l-185 -440v-2q0 -7 4.5 -12t12.5 -5q82 5 160.5 24.5
t142.5 52.5q10 6 13.5 15.5zM288.5 738.5q-22.5 18.5 -22.5 48.5q0 28 24 50t58 22q33 0 57.5 -18.5t24.5 -47.5t-25.5 -51t-61.5 -22q-32 0 -54.5 18.5zM408 777q0 27 -20.5 49t-49.5 22q-23 0 -36 -10t-13 -36q0 -27 20.5 -49t49.5 -22q49 0 49 46z" />
    <glyph glyph-name="AE" unicode="&#xc6;" horiz-adv-x="1007" 
d="M978 246q4 0 2 -8q-21 -127 -24 -227q0 -13 -4.5 -16.5t-12.5 -3.5t-42.5 4.5t-117.5 4.5h-287l-50 -2q-5 -1 -5.5 2t5.5 3q38 2 55 17t17 55v184q0 9 -7 9q-8 0 -23 -8q-45 -24 -99.5 -36.5t-110.5 -12.5q-27 0 -54 3q-19 2 -32 -18v1l-91 -129q-11 -15 -11 -29
q0 -32 78 -36q7 0 6 -3t-7 -3q-36 3 -59 3h-53l-41 -2q-4 -1 -5 2t4 3q20 1 31.5 7.5t20 17t29.5 40.5l404 571q8 11 8 23q0 11 -7 20q-10 8 -24 11q-2 0 -2 1l-27 3q-6 0 -5.5 3t5.5 2l50 -2h271q68 0 119 7l23 2q7 0 10.5 -4t4.5 -16q2 -83 24 -228q1 -4 -1.5 -4.5
t-3.5 3.5q-15 78 -24.5 116t-17 55t-19.5 30q-20 21 -80 27t-208 6q-20 0 -20 -28v-268q2 -23 20 -23q93 0 119 3q16 2 25 8.5t18 26.5t20 62q1 6 3.5 6t1.5 -6q-7 -39 -7 -88q0 -63 12 -132q1 -5 -1.5 -5.5t-3.5 5.5q-17 63 -31.5 85.5t-36.5 25.5q-26 2 -119 2
q-18 0 -20 -24v-298q0 -40 29 -40q152 1 221.5 8.5t90.5 25.5q22 20 34.5 61.5t28.5 137.5q1 7 4 7zM514 308v181q0 106 -7 148q-1 7 -6 2l-287 -405q-2 -6 -2 -7q0 -7 11 -8q26 -3 52 -3q55 0 108.5 12.5t98.5 36.5q32 18 32 43z" />
    <glyph glyph-name="Ccedilla" unicode="&#xc7;" horiz-adv-x="671" 
d="M660 135q2 0 1.5 -2.5t-3.5 -6.5q-60 -73 -128 -106t-161 -33h-9q-12 -18 -23 -49q50 -15 75 -35.5t25 -42.5q0 -21 -19 -35.5t-53 -14.5q-32 0 -59 10.5t-29 28.5q0 5 6 13.5t11 8.5q3 0 15.5 -14t29.5 -24.5t43 -10.5q20 0 31 7t11 17q-1 16 -30.5 35.5t-78.5 30.5
l36 75q-84 5 -153.5 50t-110.5 123t-41 178q0 108 50 193t134.5 133t184.5 48q64 0 115.5 -20.5t80.5 -52.5t29 -65q0 -9 -1 -13l-46 -172q-1 -4 -4.5 -3.5t-2.5 4.5q12 48 12 91q0 56 -20 104q-22 52 -67.5 77t-107.5 25q-143 0 -223.5 -70t-80.5 -224q0 -118 47 -201
t117.5 -124.5t141.5 -41.5q60 0 129 22.5t119 81.5q5 5 7 5z" />
    <glyph glyph-name="Egrave" unicode="&#xc8;" horiz-adv-x="608" 
d="M43 -2q-5 -1 -5.5 2t5.5 3q38 2 55 17t17 55v550q0 40 -17 55t-55 17q-6 0 -5.5 3t5.5 2l50 -2h271q68 0 119 7l23 2q7 0 10.5 -4t4.5 -16q2 -83 24 -228q1 -4 -1.5 -4.5t-3.5 3.5q-15 78 -24.5 116t-17 55t-19.5 30q-20 21 -80 27t-208 6q-20 0 -20 -28v-268
q2 -23 20 -23q93 0 119 3q16 2 25 8.5t18 26.5t20 62q1 6 3.5 6t1.5 -6q-7 -39 -7 -88q0 -63 12 -132q1 -5 -1.5 -5.5t-3.5 5.5q-17 63 -31.5 85.5t-36.5 25.5q-26 2 -119 2q-18 0 -20 -24v-298q0 -40 29 -40q152 1 221.5 8.5t90.5 25.5q22 20 34.5 61.5t28.5 137.5q1 7 4 7
q4 0 2 -8q-21 -127 -24 -227q0 -13 -4.5 -16.5t-12.5 -3.5t-42.5 4.5t-117.5 4.5h-287zM274.5 763q-46.5 25 -87 51.5t-40.5 36.5q-1 6 10 9t23 3q9 0 15 -4.5t19 -18.5q45 -50 117 -93q4 -2 4 -4q0 -3 -7 -5q-7 0 -53.5 25z" />
    <glyph glyph-name="Eacute" unicode="&#xc9;" horiz-adv-x="608" 
d="M43 -2q-5 -1 -5.5 2t5.5 3q38 2 55 17t17 55v550q0 40 -17 55t-55 17q-6 0 -5.5 3t5.5 2l50 -2h271q68 0 119 7l23 2q7 0 10.5 -4t4.5 -16q2 -83 24 -228q1 -4 -1.5 -4.5t-3.5 3.5q-15 78 -24.5 116t-17 55t-19.5 30q-20 21 -80 27t-208 6q-20 0 -20 -28v-268
q2 -23 20 -23q93 0 119 3q16 2 25 8.5t18 26.5t20 62q1 6 3.5 6t1.5 -6q-7 -39 -7 -88q0 -63 12 -132q1 -5 -1.5 -5.5t-3.5 5.5q-17 63 -31.5 85.5t-36.5 25.5q-26 2 -119 2q-18 0 -20 -24v-298q0 -40 29 -40q152 1 221.5 8.5t90.5 25.5q22 20 34.5 61.5t28.5 137.5q1 7 4 7
q4 0 2 -8q-21 -127 -24 -227q0 -13 -4.5 -16.5t-12.5 -3.5t-42.5 4.5t-117.5 4.5h-287zM204 742q-1 3 3 5q72 43 117 93q13 14 19 18.5t15 4.5q12 0 23 -3t10 -9q0 -10 -40.5 -36.5t-87 -51.5t-53.5 -25q-5 1 -6 4z" />
    <glyph glyph-name="Ecircumflex" unicode="&#xca;" horiz-adv-x="608" 
d="M43 -2q-5 -1 -5.5 2t5.5 3q38 2 55 17t17 55v550q0 40 -17 55t-55 17q-6 0 -5.5 3t5.5 2l50 -2h271q68 0 119 7l23 2q7 0 10.5 -4t4.5 -16q2 -83 24 -228q1 -4 -1.5 -4.5t-3.5 3.5q-15 78 -24.5 116t-17 55t-19.5 30q-20 21 -80 27t-208 6q-20 0 -20 -28v-268
q2 -23 20 -23q93 0 119 3q16 2 25 8.5t18 26.5t20 62q1 6 3.5 6t1.5 -6q-7 -39 -7 -88q0 -63 12 -132q1 -5 -1.5 -5.5t-3.5 5.5q-17 63 -31.5 85.5t-36.5 25.5q-26 2 -119 2q-18 0 -20 -24v-298q0 -40 29 -40q152 1 221.5 8.5t90.5 25.5q22 20 34.5 61.5t28.5 137.5q1 7 4 7
q4 0 2 -8q-21 -127 -24 -227q0 -13 -4.5 -16.5t-12.5 -3.5t-42.5 4.5t-117.5 4.5h-287zM441 739q0 -3 -5 -3q-23 1 -73.5 33t-73.5 61q-23 -29 -74 -61t-74 -33q-4 0 -5 3t3 5q45 20 68.5 42t40.5 49q12 17 19.5 23.5t20.5 6.5t20.5 -6.5t20.5 -24.5q19 -27 41.5 -48.5
t66.5 -41.5q4 -2 4 -5z" />
    <glyph glyph-name="Edieresis" unicode="&#xcb;" horiz-adv-x="608" 
d="M43 -2q-5 -1 -5.5 2t5.5 3q38 2 55 17t17 55v550q0 40 -17 55t-55 17q-6 0 -5.5 3t5.5 2l50 -2h271q68 0 119 7l23 2q7 0 10.5 -4t4.5 -16q2 -83 24 -228q1 -4 -1.5 -4.5t-3.5 3.5q-15 78 -24.5 116t-17 55t-19.5 30q-20 21 -80 27t-208 6q-20 0 -20 -28v-268
q2 -23 20 -23q93 0 119 3q16 2 25 8.5t18 26.5t20 62q1 6 3.5 6t1.5 -6q-7 -39 -7 -88q0 -63 12 -132q1 -5 -1.5 -5.5t-3.5 5.5q-17 63 -31.5 85.5t-36.5 25.5q-26 2 -119 2q-18 0 -20 -24v-298q0 -40 29 -40q152 1 221.5 8.5t90.5 25.5q22 20 34.5 61.5t28.5 137.5q1 7 4 7
q4 0 2 -8q-21 -127 -24 -227q0 -13 -4.5 -16.5t-12.5 -3.5t-42.5 4.5t-117.5 4.5h-287zM189 766.5q-10 8.5 -10 20.5q1 13 13 22t30 9q16 0 26 -8t10 -19q0 -13 -12 -23t-31 -10q-16 0 -26 8.5zM326 766q-10 8 -10 19q0 14 12 23.5t31 9.5q15 0 25 -8t10 -19
q0 -13 -11.5 -23t-30.5 -10q-16 0 -26 8z" />
    <glyph glyph-name="Igrave" unicode="&#xcc;" horiz-adv-x="286" 
d="M98 680q-17 15 -55 17q-6 0 -5.5 3t5.5 2l50 -2h100l50 2q5 1 5.5 -2t-5.5 -3q-38 -2 -55 -17t-17 -55v-550q0 -40 17 -55t55 -17q6 0 5.5 -3t-5.5 -2l-50 2h-100l-50 -2q-5 -1 -5.5 2t5.5 3q38 2 55 17t17 55v550q0 40 -17 55zM130.5 763q-46.5 25 -87 51.5t-40.5 36.5
q-1 6 10 9t23 3q9 0 15 -4.5t19 -18.5q45 -50 117 -93q4 -2 4 -4q0 -3 -7 -5q-7 0 -53.5 25z" />
    <glyph glyph-name="Iacute" unicode="&#xcd;" horiz-adv-x="286" 
d="M98 680q-17 15 -55 17q-6 0 -5.5 3t5.5 2l50 -2h100l50 2q5 1 5.5 -2t-5.5 -3q-38 -2 -55 -17t-17 -55v-550q0 -40 17 -55t55 -17q6 0 5.5 -3t-5.5 -2l-50 2h-100l-50 -2q-5 -1 -5.5 2t5.5 3q38 2 55 17t17 55v550q0 40 -17 55zM60 742q-1 3 3 5q72 43 117 93
q13 14 19 18.5t15 4.5q12 0 23 -3t10 -9q0 -10 -40.5 -36.5t-87 -51.5t-53.5 -25q-5 1 -6 4z" />
    <glyph glyph-name="Icircumflex" unicode="&#xce;" horiz-adv-x="286" 
d="M98 680q-17 15 -55 17q-6 0 -5.5 3t5.5 2l50 -2h100l50 2q5 1 5.5 -2t-5.5 -3q-38 -2 -55 -17t-17 -55v-550q0 -40 17 -55t55 -17q6 0 5.5 -3t-5.5 -2l-50 2h-100l-50 -2q-5 -1 -5.5 2t5.5 3q38 2 55 17t17 55v550q0 40 -17 55zM297 739q0 -3 -5 -3q-23 1 -73.5 33
t-73.5 61q-23 -29 -74 -61t-74 -33q-4 0 -5 3t3 5q45 20 68.5 42t40.5 49q12 17 19.5 23.5t20.5 6.5t20.5 -6.5t20.5 -24.5q19 -27 41.5 -48.5t66.5 -41.5q4 -2 4 -5z" />
    <glyph glyph-name="Idieresis" unicode="&#xcf;" horiz-adv-x="286" 
d="M98 680q-17 15 -55 17q-6 0 -5.5 3t5.5 2l50 -2h100l50 2q5 1 5.5 -2t-5.5 -3q-38 -2 -55 -17t-17 -55v-550q0 -40 17 -55t55 -17q6 0 5.5 -3t-5.5 -2l-50 2h-100l-50 -2q-5 -1 -5.5 2t5.5 3q38 2 55 17t17 55v550q0 40 -17 55zM44 766.5q-10 8.5 -10 20.5q1 13 13 22
t30 9q16 0 26 -8t10 -19q0 -13 -12 -23t-31 -10q-16 0 -26 8.5zM181 766q-10 8 -10 19q0 14 12 23.5t31 9.5q15 0 25 -8t10 -19q0 -13 -11.5 -23t-30.5 -10q-16 0 -26 8z" />
    <glyph glyph-name="Eth" unicode="&#xd0;" horiz-adv-x="705" 
d="M552.5 611q107.5 -91 107.5 -258q0 -103 -43 -183.5t-131 -126.5t-217 -46q-39 0 -61 1l-116 1l-49 -2q-5 0 -5.5 3t5.5 3q38 2 55 16.5t17 54.5v272h-76q-4 0 -4 3.5t4 3.5h76v272q0 40 -17 54.5t-55 16.5q-6 0 -5.5 3t5.5 2l49 -1l131 2q222 0 329.5 -91zM516.5 94.5
q84.5 91.5 84.5 250.5q0 101 -41.5 180t-130.5 125t-225 46q-20 0 -26.5 -10t-6.5 -32v-301h214q5 0 5 -3.5t-5 -3.5h-214v-297q0 -19 5.5 -28.5t21.5 -13.5t50 -4q184 0 268.5 91.5z" />
    <glyph glyph-name="Ntilde" unicode="&#xd1;" horiz-adv-x="735" 
d="M716 700q0 -3 -5 -3q-39 -2 -55.5 -16.5t-16.5 -55.5v-623q0 -7 -5 -7q-6 0 -10 7l-489 647q-3 4 -5 4q-4 0 -4 -4v-575q0 -40 17 -54.5t55 -16.5q6 0 5.5 -3t-5.5 -3q-30 3 -49 3h-52q-17 0 -50 -3q-5 0 -5.5 3t5.5 3q38 2 55 16.5t17 54.5v596q-13 13 -27 19.5t-37 7.5
q-5 0 -5 3t5 3q33 -3 50 -3h51q12 0 19 -9l444 -596q4 -7 9 -7q4 0 4 7l-1 530q0 41 -16.5 55.5t-55.5 16.5q-4 0 -4.5 2.5t3.5 2.5q12 0 21 -1l30 -1h52l50 2q5 1 5 -2zM135 652l10 -11zM233 749q-3 1 -1 5q25 73 83 73q27 0 62 -15l37 -16q29 -13 49 -13q40 0 59 45
q2 4 5 3.5t1 -5.5q-14 -38 -34 -56t-48 -18q-27 0 -61 15l-37 17q-40 17 -60 17q-19 0 -30 -11.5t-20 -36.5q-2 -5 -5 -4z" />
    <glyph glyph-name="Ograve" unicode="&#xd2;" horiz-adv-x="807" 
d="M207 32q-76 45 -118.5 124.5t-42.5 180.5q0 97 48 183.5t134.5 139t194.5 52.5q97 0 174 -45.5t120.5 -124.5t43.5 -177q0 -99 -49 -186t-136.5 -139.5t-197.5 -52.5q-95 0 -171 45zM631 93.5q77 83.5 77 231.5q0 94 -43.5 178t-118 135t-163.5 51q-88 0 -152 -37
t-98 -106t-34 -163q0 -96 42 -182t115 -138.5t162 -52.5q136 0 213 83.5zM390.5 763q-46.5 25 -87 51.5t-40.5 36.5q-1 6 10 9t23 3q9 0 15 -4.5t19 -18.5q45 -50 117 -93q4 -2 4 -4q0 -3 -7 -5q-7 0 -53.5 25z" />
    <glyph glyph-name="Oacute" unicode="&#xd3;" horiz-adv-x="807" 
d="M207 32q-76 45 -118.5 124.5t-42.5 180.5q0 97 48 183.5t134.5 139t194.5 52.5q97 0 174 -45.5t120.5 -124.5t43.5 -177q0 -99 -49 -186t-136.5 -139.5t-197.5 -52.5q-95 0 -171 45zM631 93.5q77 83.5 77 231.5q0 94 -43.5 178t-118 135t-163.5 51q-88 0 -152 -37
t-98 -106t-34 -163q0 -96 42 -182t115 -138.5t162 -52.5q136 0 213 83.5zM319 742q-1 3 3 5q72 43 117 93q13 14 19 18.5t15 4.5q12 0 23 -3t10 -9q0 -10 -40.5 -36.5t-87 -51.5t-53.5 -25q-5 1 -6 4z" />
    <glyph glyph-name="Ocircumflex" unicode="&#xd4;" horiz-adv-x="807" 
d="M207 32q-76 45 -118.5 124.5t-42.5 180.5q0 97 48 183.5t134.5 139t194.5 52.5q97 0 174 -45.5t120.5 -124.5t43.5 -177q0 -99 -49 -186t-136.5 -139.5t-197.5 -52.5q-95 0 -171 45zM631 93.5q77 83.5 77 231.5q0 94 -43.5 178t-118 135t-163.5 51q-88 0 -152 -37
t-98 -106t-34 -163q0 -96 42 -182t115 -138.5t162 -52.5q136 0 213 83.5zM556 739q0 -3 -5 -3q-23 1 -73.5 33t-73.5 61q-23 -29 -74 -61t-74 -33q-4 0 -5 3t3 5q45 20 68.5 42t40.5 49q12 17 19.5 23.5t20.5 6.5t20.5 -6.5t20.5 -24.5q19 -27 41.5 -48.5t66.5 -41.5
q4 -2 4 -5z" />
    <glyph glyph-name="Otilde" unicode="&#xd5;" horiz-adv-x="807" 
d="M207 32q-76 45 -118.5 124.5t-42.5 180.5q0 97 48 183.5t134.5 139t194.5 52.5q97 0 174 -45.5t120.5 -124.5t43.5 -177q0 -99 -49 -186t-136.5 -139.5t-197.5 -52.5q-95 0 -171 45zM631 93.5q77 83.5 77 231.5q0 94 -43.5 178t-118 135t-163.5 51q-88 0 -152 -37
t-98 -106t-34 -163q0 -96 42 -182t115 -138.5t162 -52.5q136 0 213 83.5zM256 749q-3 1 -1 5q25 73 83 73q27 0 62 -15l37 -16q29 -13 49 -13q40 0 59 45q2 4 5 3.5t1 -5.5q-14 -38 -34 -56t-48 -18q-27 0 -61 15l-37 17q-40 17 -60 17q-19 0 -30 -11.5t-20 -36.5
q-2 -5 -5 -4z" />
    <glyph glyph-name="Odieresis" unicode="&#xd6;" horiz-adv-x="807" 
d="M207 32q-76 45 -118.5 124.5t-42.5 180.5q0 97 48 183.5t134.5 139t194.5 52.5q97 0 174 -45.5t120.5 -124.5t43.5 -177q0 -99 -49 -186t-136.5 -139.5t-197.5 -52.5q-95 0 -171 45zM631 93.5q77 83.5 77 231.5q0 94 -43.5 178t-118 135t-163.5 51q-88 0 -152 -37
t-98 -106t-34 -163q0 -96 42 -182t115 -138.5t162 -52.5q136 0 213 83.5zM304 766.5q-10 8.5 -10 20.5q1 13 13 22t30 9q16 0 26 -8t10 -19q0 -13 -12 -23t-31 -10q-16 0 -26 8.5zM441 766q-10 8 -10 19q0 14 12 23.5t31 9.5q15 0 25 -8t10 -19q0 -13 -11.5 -23t-30.5 -10
q-16 0 -26 8z" />
    <glyph glyph-name="multiply" unicode="&#xd7;" horiz-adv-x="323" 
d="M146 235q6 6 1 9l-94 94q-6 6 -6 12q0 5 5 5t11 -7l94 -93l4 -2q3 0 8 5l92 93q4 4 9 4q6 0 6 -5q0 -4 -5 -9l-92 -93q-4 -3 -5.5 -6t1.5 -5l93 -93q5 -4 5 -9q0 -6 -6 -6q-4 0 -8 4l-95 94q-2 2 -4.5 1.5t-4.5 -3.5l-92 -93q-6 -6 -11 -6t-5 5t6 11z" />
    <glyph glyph-name="Oslash" unicode="&#xd8;" horiz-adv-x="807" 
d="M610 659q71 -46 111 -123t40 -171q0 -99 -49 -186t-136.5 -139.5t-197.5 -52.5q-99 0 -178 49l-68 -102q-2 -4 -5 -2t1 6l67 101q-70 46 -109.5 123.5t-39.5 174.5t48 183.5t134.5 139t194.5 52.5q101 0 182 -50l66 101q4 5 6.5 3t-1.5 -7zM133 218.5q34 -78.5 93 -131.5
l349 530q-40 34 -89.5 53t-102.5 19q-88 0 -152 -37t-98 -106t-34 -163q0 -86 34 -164.5zM631 93.5q77 83.5 77 231.5q0 83 -34.5 159.5t-93.5 128.5l-350 -530q84 -73 188 -73q136 0 213 83.5z" />
    <glyph glyph-name="Ugrave" unicode="&#xd9;" horiz-adv-x="706" 
d="M222 23.5q-61 36.5 -94.5 103t-33.5 155.5v343q0 40 -13.5 55t-45.5 17q-4 0 -4.5 2.5t3.5 2.5q6 0 18 -1t24 -1h102q20 0 59 3q6 0 6.5 -3t-6.5 -3q-46 -2 -66.5 -17t-20.5 -55v-344q0 -80 28 -139.5t80.5 -92t124.5 -32.5q71 0 124 33t82 93.5t29 139.5v342
q0 40 -20.5 55t-66.5 17q-6 0 -5.5 3t5.5 3q39 -3 60 -3h50l40 2q4 1 4 -2t-4 -3q-31 -2 -44 -16.5t-13 -55.5l1 -341q0 -90 -32 -157t-91 -103.5t-138 -36.5q-81 0 -142 36.5zM358.5 763q-46.5 25 -87 51.5t-40.5 36.5q-1 6 10 9t23 3q9 0 15 -4.5t19 -18.5q45 -50 117 -93
q4 -2 4 -4q0 -3 -7 -5q-7 0 -53.5 25z" />
    <glyph glyph-name="Uacute" unicode="&#xda;" horiz-adv-x="706" 
d="M222 23.5q-61 36.5 -94.5 103t-33.5 155.5v343q0 40 -13.5 55t-45.5 17q-4 0 -4.5 2.5t3.5 2.5q6 0 18 -1t24 -1h102q20 0 59 3q6 0 6.5 -3t-6.5 -3q-46 -2 -66.5 -17t-20.5 -55v-344q0 -80 28 -139.5t80.5 -92t124.5 -32.5q71 0 124 33t82 93.5t29 139.5v342
q0 40 -20.5 55t-66.5 17q-6 0 -5.5 3t5.5 3q39 -3 60 -3h50l40 2q4 1 4 -2t-4 -3q-31 -2 -44 -16.5t-13 -55.5l1 -341q0 -90 -32 -157t-91 -103.5t-138 -36.5q-81 0 -142 36.5zM288 742q-1 3 3 5q72 43 117 93q13 14 19 18.5t15 4.5q12 0 23 -3t10 -9q0 -10 -40.5 -36.5
t-87 -51.5t-53.5 -25q-5 1 -6 4z" />
    <glyph glyph-name="Ucircumflex" unicode="&#xdb;" horiz-adv-x="706" 
d="M222 23.5q-61 36.5 -94.5 103t-33.5 155.5v343q0 40 -13.5 55t-45.5 17q-4 0 -4.5 2.5t3.5 2.5q6 0 18 -1t24 -1h102q20 0 59 3q6 0 6.5 -3t-6.5 -3q-46 -2 -66.5 -17t-20.5 -55v-344q0 -80 28 -139.5t80.5 -92t124.5 -32.5q71 0 124 33t82 93.5t29 139.5v342
q0 40 -20.5 55t-66.5 17q-6 0 -5.5 3t5.5 3q39 -3 60 -3h50l40 2q4 1 4 -2t-4 -3q-31 -2 -44 -16.5t-13 -55.5l1 -341q0 -90 -32 -157t-91 -103.5t-138 -36.5q-81 0 -142 36.5zM525 739q0 -3 -5 -3q-23 1 -73.5 33t-73.5 61q-23 -29 -74 -61t-74 -33q-4 0 -5 3t3 5
q45 20 68.5 42t40.5 49q12 17 19.5 23.5t20.5 6.5t20.5 -6.5t20.5 -24.5q19 -27 41.5 -48.5t66.5 -41.5q4 -2 4 -5z" />
    <glyph glyph-name="Udieresis" unicode="&#xdc;" horiz-adv-x="706" 
d="M222 23.5q-61 36.5 -94.5 103t-33.5 155.5v343q0 40 -13.5 55t-45.5 17q-4 0 -4.5 2.5t3.5 2.5q6 0 18 -1t24 -1h102q20 0 59 3q6 0 6.5 -3t-6.5 -3q-46 -2 -66.5 -17t-20.5 -55v-344q0 -80 28 -139.5t80.5 -92t124.5 -32.5q71 0 124 33t82 93.5t29 139.5v342
q0 40 -20.5 55t-66.5 17q-6 0 -5.5 3t5.5 3q39 -3 60 -3h50l40 2q4 1 4 -2t-4 -3q-31 -2 -44 -16.5t-13 -55.5l1 -341q0 -90 -32 -157t-91 -103.5t-138 -36.5q-81 0 -142 36.5zM272 766.5q-10 8.5 -10 20.5q1 13 13 22t30 9q16 0 26 -8t10 -19q0 -13 -12 -23t-31 -10
q-16 0 -26 8.5zM409 766q-10 8 -10 19q0 14 12 23.5t31 9.5q15 0 25 -8t10 -19q0 -13 -11.5 -23t-30.5 -10q-16 0 -26 8z" />
    <glyph glyph-name="Yacute" unicode="&#xdd;" horiz-adv-x="614" 
d="M208 -2q-5 -1 -5.5 2t5.5 3q38 2 55 17t17 55l-1 191q0 13 -6 25l-189 339q-23 40 -35.5 52.5t-39.5 14.5q-4 0 -3.5 3t4.5 3q24 -3 39 -3h107q20 0 59 3q6 0 6.5 -3t-6.5 -3q-78 -4 -78 -38q0 -12 9 -29l182 -329q6 -10 12 0l184 329q9 17 9 28q0 35 -79 39q-6 0 -5.5 3
t5.5 3q39 -3 60 -3h52l39 2q4 1 4 -2t-4 -3q-27 -2 -39.5 -14.5t-34.5 -52.5l-189 -338q-7 -11 -7 -26l1 -191q0 -40 16.5 -55t55.5 -17q5 0 5 -3t-5 -2l-50 2h-101zM222 742q-1 3 3 5q72 43 117 93q13 14 19 18.5t15 4.5q12 0 23 -3t10 -9q0 -10 -40.5 -36.5t-87 -51.5
t-53.5 -25q-5 1 -6 4z" />
    <glyph glyph-name="Thorn" unicode="&#xde;" horiz-adv-x="595" 
d="M506.5 502q61.5 -57 61.5 -152q0 -64 -32.5 -109t-91.5 -67.5t-136 -19.5l-78 3q-5 0 -5 3t5 3l75 -2q55 -1 101.5 20t74 60t27.5 93q0 94 -49.5 154.5t-158.5 62.5l-99 3q-16 0 -23 -9.5t-7 -27.5v-442q0 -40 17 -55t55 -17q6 0 5.5 -3t-5.5 -2l-50 2h-100l-50 -2
q-5 -1 -5.5 2t5.5 3q38 2 55 17t17 55v550q0 40 -17 55t-55 17q-6 0 -5.5 3t5.5 2l50 -2h100l50 2q5 1 5.5 -2t-5.5 -3q-38 -2 -55 -17t-17 -55v-38q0 -14 8 -21t22 -7h117q127 0 188.5 -57z" />
    <glyph glyph-name="germandbls" unicode="&#xdf;" horiz-adv-x="569" 
d="M100 0q-43 0 -59 -1q-4 0 -4 3.5t4 3.5q30 0 45.5 14t15.5 48v437q0 59 23.5 106.5t66.5 74.5t100 27q71 0 119.5 -39.5t48.5 -104.5q0 -52 -34 -89.5t-87 -52.5q-7 -2 -6.5 -3.5t6.5 -1.5q56 -6 101.5 -37.5t71.5 -80.5t26 -107q0 -64 -28 -111.5t-71 -73t-87 -25.5
q-45 0 -78 17t-50 44.5t-17 58.5q-1 5 1.5 5t3.5 -5q1 -25 20 -48t49.5 -37t64.5 -14q68 0 102.5 38t34.5 123q0 74 -29 129t-78.5 85t-111.5 30q-12 0 -12 2q0 3 12 4q84 9 116.5 47t32.5 100q0 67 -38 98t-95 31q-68 0 -96.5 -38t-28.5 -125v-502v-30h-55z" />
    <glyph glyph-name="agrave" unicode="&#xe0;" horiz-adv-x="520" 
d="M523.5 137.5q3.5 0.5 3.5 -5.5q0 -71 -23.5 -107.5t-54.5 -36.5q-26 0 -40.5 22t-24.5 68l-10 50q-21 -62 -70.5 -101t-107.5 -39q-76 0 -116 42.5t-40 101.5q0 34 26 60t68 40.5t90 14.5q63 0 127 -10l-20 95q-12 52 -40 77t-86 25q-41 0 -78 -17.5t-61.5 -53
t-25.5 -87.5q0 -6 -3.5 -6t-3.5 6q2 54 31.5 95.5t74.5 64t90 22.5q72 0 107.5 -30.5t49.5 -95.5l51 -244q7 -31 16 -47.5t23 -16.5q8 0 18 9t18 33t8 66q0 5 3.5 5.5zM362 182l-7 36q-66 12 -123 12q-76 0 -108.5 -19.5t-32.5 -72.5q0 -51 32 -84t96 -33q136 0 143 143
q1 8 0 18zM226 541q-40 33 -74.5 68t-34.5 46q0 10 38 8q9 -1 14 -7t13 -22q15 -29 35 -56.5t60 -62.5q4 -3 3 -5.5t-6 -2.5q-8 1 -48 34z" />
    <glyph glyph-name="aacute" unicode="&#xe1;" horiz-adv-x="520" 
d="M523.5 137.5q3.5 0.5 3.5 -5.5q0 -71 -23.5 -107.5t-54.5 -36.5q-26 0 -40.5 22t-24.5 68l-10 50q-21 -62 -70.5 -101t-107.5 -39q-76 0 -116 42.5t-40 101.5q0 34 26 60t68 40.5t90 14.5q63 0 127 -10l-20 95q-12 52 -40 77t-86 25q-41 0 -78 -17.5t-61.5 -53
t-25.5 -87.5q0 -6 -3.5 -6t-3.5 6q2 54 31.5 95.5t74.5 64t90 22.5q72 0 107.5 -30.5t49.5 -95.5l51 -244q7 -31 16 -47.5t23 -16.5q8 0 18 9t18 33t8 66q0 5 3.5 5.5zM362 182l-7 36q-66 12 -123 12q-76 0 -108.5 -19.5t-32.5 -72.5q0 -51 32 -84t96 -33q136 0 143 143
q1 8 0 18zM209 508q-1 3 3 6q40 35 60 62t35 56q8 16 13 22t14 7l13 1q10 0 17.5 -2.5t7.5 -6.5q0 -10 -35 -45t-74.5 -68.5t-47.5 -34.5q-5 0 -6 3z" />
    <glyph glyph-name="acircumflex" unicode="&#xe2;" horiz-adv-x="520" 
d="M523.5 137.5q3.5 0.5 3.5 -5.5q0 -71 -23.5 -107.5t-54.5 -36.5q-26 0 -40.5 22t-24.5 68l-10 50q-21 -62 -70.5 -101t-107.5 -39q-76 0 -116 42.5t-40 101.5q0 34 26 60t68 40.5t90 14.5q63 0 127 -10l-20 95q-12 52 -40 77t-86 25q-41 0 -78 -17.5t-61.5 -53
t-25.5 -87.5q0 -6 -3.5 -6t-3.5 6q2 54 31.5 95.5t74.5 64t90 22.5q72 0 107.5 -30.5t49.5 -95.5l51 -244q7 -31 16 -47.5t23 -16.5q8 0 18 9t18 33t8 66q0 5 3.5 5.5zM362 182l-7 36q-66 12 -123 12q-76 0 -108.5 -19.5t-32.5 -72.5q0 -51 32 -84t96 -33q136 0 143 143
q1 8 0 18zM385 513.5q-1 -3.5 -5 -3.5q-21 1 -67.5 37.5t-68.5 69.5q-14 -22 -41.5 -47t-55 -42.5t-40.5 -17.5q-4 0 -5 3t3 5q41 23 61.5 47t39.5 57q10 19 17.5 27t19.5 8q13 0 20.5 -8t18.5 -28q18 -31 38.5 -55t61.5 -47q4 -2 3 -5.5z" />
    <glyph glyph-name="atilde" unicode="&#xe3;" horiz-adv-x="520" 
d="M523.5 137.5q3.5 0.5 3.5 -5.5q0 -71 -23.5 -107.5t-54.5 -36.5q-26 0 -40.5 22t-24.5 68l-10 50q-21 -62 -70.5 -101t-107.5 -39q-76 0 -116 42.5t-40 101.5q0 34 26 60t68 40.5t90 14.5q63 0 127 -10l-20 95q-12 52 -40 77t-86 25q-41 0 -78 -17.5t-61.5 -53
t-25.5 -87.5q0 -6 -3.5 -6t-3.5 6q2 54 31.5 95.5t74.5 64t90 22.5q72 0 107.5 -30.5t49.5 -95.5l51 -244q7 -31 16 -47.5t23 -16.5q8 0 18 9t18 33t8 66q0 5 3.5 5.5zM362 182l-7 36q-66 12 -123 12q-76 0 -108.5 -19.5t-32.5 -72.5q0 -51 32 -84t96 -33q136 0 143 143
q1 8 0 18zM96 548q-3 1 -1 5q25 73 83 73q27 0 62 -15l37 -16q29 -13 49 -13q40 0 59 45q2 4 5 3.5t1 -5.5q-14 -38 -34 -56t-48 -18q-27 0 -61 15l-37 17q-40 17 -60 17q-19 0 -30 -11.5t-20 -36.5q-2 -5 -5 -4z" />
    <glyph glyph-name="adieresis" unicode="&#xe4;" horiz-adv-x="520" 
d="M523.5 137.5q3.5 0.5 3.5 -5.5q0 -71 -23.5 -107.5t-54.5 -36.5q-26 0 -40.5 22t-24.5 68l-10 50q-21 -62 -70.5 -101t-107.5 -39q-76 0 -116 42.5t-40 101.5q0 34 26 60t68 40.5t90 14.5q63 0 127 -10l-20 95q-12 52 -40 77t-86 25q-41 0 -78 -17.5t-61.5 -53
t-25.5 -87.5q0 -6 -3.5 -6t-3.5 6q2 54 31.5 95.5t74.5 64t90 22.5q72 0 107.5 -30.5t49.5 -95.5l51 -244q7 -31 16 -47.5t23 -16.5q8 0 18 9t18 33t8 66q0 5 3.5 5.5zM362 182l-7 36q-66 12 -123 12q-76 0 -108.5 -19.5t-32.5 -72.5q0 -51 32 -84t96 -33q136 0 143 143
q1 8 0 18zM144 545.5q-10 8.5 -10 20.5q1 13 13 22t30 9q16 0 26 -8t10 -19q0 -13 -12 -23t-31 -10q-16 0 -26 8.5zM281 545q-10 8 -10 19q0 14 12 23.5t31 9.5q15 0 25 -8t10 -19q0 -13 -11.5 -23t-30.5 -10q-16 0 -26 8z" />
    <glyph glyph-name="aring" unicode="&#xe5;" horiz-adv-x="520" 
d="M523.5 137.5q3.5 0.5 3.5 -5.5q0 -71 -23.5 -107.5t-54.5 -36.5q-26 0 -40.5 22t-24.5 68l-10 50q-21 -62 -70.5 -101t-107.5 -39q-76 0 -116 42.5t-40 101.5q0 34 26 60t68 40.5t90 14.5q63 0 127 -10l-20 95q-12 52 -40 77t-86 25q-41 0 -78 -17.5t-61.5 -53
t-25.5 -87.5q0 -6 -3.5 -6t-3.5 6q2 54 31.5 95.5t74.5 64t90 22.5q72 0 107.5 -30.5t49.5 -95.5l51 -244q7 -31 16 -47.5t23 -16.5q8 0 18 9t18 33t8 66q0 5 3.5 5.5zM362 182l-7 36q-66 12 -123 12q-76 0 -108.5 -19.5t-32.5 -72.5q0 -51 32 -84t96 -33q136 0 143 143
q1 8 0 18zM185 515q-23 21 -23 55q0 32 25.5 57t60.5 25q33 0 57.5 -21t24.5 -54t-26 -58t-63 -25q-33 0 -56 21zM307 559q0 31 -21 56t-50 25q-23 0 -36.5 -12t-13.5 -41q0 -30 21 -55t51 -25q49 0 49 52z" />
    <glyph glyph-name="ae" unicode="&#xe6;" horiz-adv-x="777" 
d="M754 83.5q2 -1.5 1 -4.5q-39 -47 -86 -69t-107 -22q-68 0 -123 38t-78 104q-20 -63 -70 -102.5t-109 -39.5q-51 0 -86.5 20.5t-52.5 53t-16 70.5q0 34 25.5 60t67.5 40.5t90 14.5q64 0 128 -10l-21 95q-11 52 -39 77t-86 25q-41 0 -78.5 -17.5t-61.5 -53t-25 -87.5
q0 -6 -3.5 -6t-3.5 6q2 54 31.5 95.5t74.5 64t90 22.5q70 0 105.5 -34.5t46.5 -100.5v-2q28 63 86 100t128 37t116 -41.5t46 -108.5q0 -29 -11 -65l-101 -2q-157 -2 -239 -5q4 -70 38 -118.5t82 -72.5t94 -24q37 0 77 13t67 49q1 2 3 0.5zM393 253v-11q54 1 146 5
q104 4 146 5q7 20 7 44q0 37 -17.5 71t-48.5 54.5t-67 20.5q-166 0 -166 -189zM349 171q0 5 -2 23l-1 3q0 3 -2 9l1 -1l-3 13q-66 12 -123 12q-76 0 -108.5 -19.5t-32.5 -72.5q0 -51 31.5 -84t95.5 -33q135 0 144 143v7z" />
    <glyph glyph-name="ccedilla" unicode="&#xe7;" horiz-adv-x="460" 
d="M440 83.5q2 -1.5 0 -4.5q-38 -46 -82.5 -67.5t-103.5 -23.5q-12 -20 -23 -50q50 -15 75 -35.5t25 -42.5q0 -21 -19 -35.5t-53 -14.5q-32 0 -59 10.5t-29 28.5q0 5 6 13.5t11 8.5q3 0 15.5 -14t29.5 -24.5t43 -10.5q20 0 31 7t11 17q-1 16 -30.5 35.5t-78.5 30.5l36 76
q-58 1 -107 29t-78 79.5t-29 118.5q0 69 32.5 124.5t88 87t121.5 31.5q45 0 81.5 -14.5t55.5 -37t14 -44.5l-32 -119q-1 -4 -4 -3t-2 5q6 26 6 50q0 64 -39 103.5t-105 39.5q-80 0 -125 -43t-45 -141q0 -76 33 -128.5t82.5 -78.5t97.5 -26q37 0 77 13t67 49q3 2 5 0.5z" />
    <glyph glyph-name="egrave" unicode="&#xe8;" horiz-adv-x="461" 
d="M438 83.5q2 -1.5 1 -4.5q-39 -47 -86 -69t-107 -22q-58 0 -107.5 28.5t-78.5 80t-29 118.5q0 71 32 126.5t86 86t117 30.5q70 0 116 -41.5t46 -108.5q0 -29 -11 -65l-101 -2q-157 -2 -239 -5q4 -70 38 -118.5t82 -72.5t94 -24q37 0 77 13t67 49q1 2 3 0.5zM77 253v-11
q54 1 146 5q104 4 146 5q7 20 7 44q0 37 -17.5 71t-48.5 54.5t-67 20.5q-166 0 -166 -189zM225 541q-40 33 -74.5 68t-34.5 46q0 10 38 8q9 -1 14 -7t13 -22q15 -29 35 -56.5t60 -62.5q4 -3 3 -5.5t-6 -2.5q-8 1 -48 34z" />
    <glyph glyph-name="eacute" unicode="&#xe9;" horiz-adv-x="461" 
d="M438 83.5q2 -1.5 1 -4.5q-39 -47 -86 -69t-107 -22q-58 0 -107.5 28.5t-78.5 80t-29 118.5q0 71 32 126.5t86 86t117 30.5q70 0 116 -41.5t46 -108.5q0 -29 -11 -65l-101 -2q-157 -2 -239 -5q4 -70 38 -118.5t82 -72.5t94 -24q37 0 77 13t67 49q1 2 3 0.5zM77 253v-11
q54 1 146 5q104 4 146 5q7 20 7 44q0 37 -17.5 71t-48.5 54.5t-67 20.5q-166 0 -166 -189zM207 508q-1 3 3 6q40 35 60 62t35 56q8 16 13 22t14 7l13 1q10 0 17.5 -2.5t7.5 -6.5q0 -10 -35 -45t-74.5 -68.5t-47.5 -34.5q-5 0 -6 3z" />
    <glyph glyph-name="ecircumflex" unicode="&#xea;" horiz-adv-x="461" 
d="M438 83.5q2 -1.5 1 -4.5q-39 -47 -86 -69t-107 -22q-58 0 -107.5 28.5t-78.5 80t-29 118.5q0 71 32 126.5t86 86t117 30.5q70 0 116 -41.5t46 -108.5q0 -29 -11 -65l-101 -2q-157 -2 -239 -5q4 -70 38 -118.5t82 -72.5t94 -24q37 0 77 13t67 49q1 2 3 0.5zM77 253v-11
q54 1 146 5q104 4 146 5q7 20 7 44q0 37 -17.5 71t-48.5 54.5t-67 20.5q-166 0 -166 -189zM383 513.5q-1 -3.5 -5 -3.5q-21 1 -67.5 37.5t-68.5 69.5q-14 -22 -41.5 -47t-55 -42.5t-40.5 -17.5q-4 0 -5 3t3 5q41 23 61.5 47t39.5 57q10 19 17.5 27t19.5 8q13 0 20.5 -8
t18.5 -28q18 -31 38.5 -55t61.5 -47q4 -2 3 -5.5z" />
    <glyph glyph-name="edieresis" unicode="&#xeb;" horiz-adv-x="461" 
d="M438 83.5q2 -1.5 1 -4.5q-39 -47 -86 -69t-107 -22q-58 0 -107.5 28.5t-78.5 80t-29 118.5q0 71 32 126.5t86 86t117 30.5q70 0 116 -41.5t46 -108.5q0 -29 -11 -65l-101 -2q-157 -2 -239 -5q4 -70 38 -118.5t82 -72.5t94 -24q37 0 77 13t67 49q1 2 3 0.5zM77 253v-11
q54 1 146 5q104 4 146 5q7 20 7 44q0 37 -17.5 71t-48.5 54.5t-67 20.5q-166 0 -166 -189zM143 545.5q-10 8.5 -10 20.5q1 13 13 22t30 9q16 0 26 -8t10 -19q0 -13 -12 -23t-31 -10q-16 0 -26 8.5zM280 545q-10 8 -10 19q0 14 12 23.5t31 9.5q15 0 25 -8t10 -19
q0 -13 -11.5 -23t-30.5 -10q-16 0 -26 8z" />
    <glyph glyph-name="igrave" unicode="&#xec;" horiz-adv-x="249" 
d="M167.5 22.5q16.5 -16.5 43.5 -18.5q4 0 4 -3t-4 -3q-18 1 -86 1q-67 0 -86 -1q-4 0 -4 3.5t4 3.5q59 -2 59 62v295q0 24 -8.5 35t-28.5 11q-9 0 -23 -3q-3 -1 -4 1.5t1 3.5q83 20 115 42q4 3 7 1.5t3 -3.5q-4 -27 -6.5 -50.5t-2.5 -54.5v-278q0 -28 16.5 -44.5zM97 541
q-40 33 -74.5 68t-34.5 46q0 10 38 8q9 -1 14 -7t13 -22q15 -29 35 -56.5t60 -62.5q4 -3 3 -5.5t-6 -2.5q-8 1 -48 34z" />
    <glyph glyph-name="iacute" unicode="&#xed;" horiz-adv-x="249" 
d="M167.5 22.5q16.5 -16.5 43.5 -18.5q4 0 4 -3t-4 -3q-18 1 -86 1q-67 0 -86 -1q-4 0 -4 3.5t4 3.5q59 -2 59 62v295q0 24 -8.5 35t-28.5 11q-9 0 -23 -3q-3 -1 -4 1.5t1 3.5q83 20 115 42q4 3 7 1.5t3 -3.5q-4 -27 -6.5 -50.5t-2.5 -54.5v-278q0 -28 16.5 -44.5zM79 508
q-1 3 3 6q40 35 60 62t35 56q8 16 13 22t14 7l13 1q10 0 17.5 -2.5t7.5 -6.5q0 -10 -35 -45t-74.5 -68.5t-47.5 -34.5q-5 0 -6 3z" />
    <glyph glyph-name="icircumflex" unicode="&#xee;" horiz-adv-x="249" 
d="M167.5 22.5q16.5 -16.5 43.5 -18.5q4 0 4 -3t-4 -3q-18 1 -86 1q-67 0 -86 -1q-4 0 -4 3.5t4 3.5q59 -2 59 62v295q0 24 -8.5 35t-28.5 11q-9 0 -23 -3q-3 -1 -4 1.5t1 3.5q83 20 115 42q4 3 7 1.5t3 -3.5q-4 -27 -6.5 -50.5t-2.5 -54.5v-278q0 -28 16.5 -44.5z
M255 513.5q-1 -3.5 -5 -3.5q-21 1 -67.5 37.5t-68.5 69.5q-14 -22 -41.5 -47t-55 -42.5t-40.5 -17.5q-4 0 -5 3t3 5q41 23 61.5 47t39.5 57q10 19 17.5 27t19.5 8q13 0 20.5 -8t18.5 -28q18 -31 38.5 -55t61.5 -47q4 -2 3 -5.5z" />
    <glyph glyph-name="idieresis" unicode="&#xef;" horiz-adv-x="249" 
d="M167.5 22.5q16.5 -16.5 43.5 -18.5q4 0 4 -3t-4 -3q-18 1 -86 1q-67 0 -86 -1q-4 0 -4 3.5t4 3.5q59 -2 59 62v295q0 24 -8.5 35t-28.5 11q-9 0 -23 -3q-3 -1 -4 1.5t1 3.5q83 20 115 42q4 3 7 1.5t3 -3.5q-4 -27 -6.5 -50.5t-2.5 -54.5v-278q0 -28 16.5 -44.5zM15 545.5
q-10 8.5 -10 20.5q1 13 13 22t30 9q16 0 26 -8t10 -19q0 -13 -12 -23t-31 -10q-16 0 -26 8.5zM152 545q-10 8 -10 19q0 14 12 23.5t31 9.5q15 0 25 -8t10 -19q0 -13 -11.5 -23t-30.5 -10q-16 0 -26 8z" />
    <glyph glyph-name="eth" unicode="&#xf0;" horiz-adv-x="511" 
d="M371 611q52 -53 80.5 -131t28.5 -177q0 -105 -30.5 -176t-83.5 -105.5t-120 -34.5q-62 0 -111 29.5t-76.5 82t-27.5 117.5q0 63 30 119t79 89.5t103 33.5q57 0 102.5 -27.5t76.5 -77.5q-3 149 -78 244l-134 -68l-5 -2q-3 0 -2 3.5t5 4.5l132 67q-37 44 -85.5 70
t-103.5 32q-6 1 -5 4t6 2q128 -11 214 -94l73 37q6 3 8 0.5t-5 -6.5zM434 205q0 58 -30 111.5t-75 87.5t-88 34q-164 0 -164 -183q0 -65 29 -122t71.5 -91t78.5 -34q178 0 178 197z" />
    <glyph glyph-name="ntilde" unicode="&#xf1;" horiz-adv-x="608" 
d="M612.5 137.5q3.5 0.5 3.5 -5.5q0 -71 -23.5 -107.5t-54.5 -36.5q-26 0 -41.5 21.5t-26.5 67.5l-62 257q-8 34 -18.5 54t-31.5 30.5t-58 10.5q-40 0 -74 -21.5t-54.5 -64t-20.5 -103.5v-179q0 -29 16 -42t44 -15q4 0 4 -3t-4 -3q-19 1 -85 1t-87 -1q-4 0 -4 3.5t4 3.5
q31 0 45 11.5t14 45.5v300q0 24 -8.5 35t-28.5 11q-9 0 -23 -3q-3 -1 -4 1.5t1 3.5q83 20 115 42q4 3 7 1.5t3 -3.5q-4 -27 -6.5 -50.5t-2.5 -54.5v-27q11 38 38 70t63 51t72 19q64 0 93.5 -28.5t43.5 -88.5l62 -254q7 -31 17 -47t25 -16q7 0 17.5 9t18.5 33t8 66
q0 5 3.5 5.5zM130 548q-3 1 -1 5q25 73 83 73q27 0 62 -15l37 -16q29 -13 49 -13q40 0 59 45q2 4 5 3.5t1 -5.5q-14 -38 -34 -56t-48 -18q-27 0 -61 15l-37 17q-40 17 -60 17q-19 0 -30 -11.5t-20 -36.5q-2 -5 -5 -4z" />
    <glyph glyph-name="ograve" unicode="&#xf2;" horiz-adv-x="531" 
d="M140 15.5q-50 28.5 -79.5 80t-29.5 118.5q0 65 32.5 120.5t89.5 89t126 33.5q60 0 111 -28.5t80.5 -80t29.5 -116.5t-33 -121.5t-90.5 -90t-126.5 -33.5q-60 0 -110 28.5zM406 54q47 46 47 137q0 60 -26.5 116.5t-73.5 92.5t-103 36q-81 0 -126.5 -45t-45.5 -136
q0 -60 26 -117t71.5 -93.5t99.5 -36.5q84 0 131 46zM249 541q-40 33 -74.5 68t-34.5 46q0 10 38 8q9 -1 14 -7t13 -22q15 -29 35 -56.5t60 -62.5q4 -3 3 -5.5t-6 -2.5q-8 1 -48 34z" />
    <glyph glyph-name="oacute" unicode="&#xf3;" horiz-adv-x="531" 
d="M140 15.5q-50 28.5 -79.5 80t-29.5 118.5q0 65 32.5 120.5t89.5 89t126 33.5q60 0 111 -28.5t80.5 -80t29.5 -116.5t-33 -121.5t-90.5 -90t-126.5 -33.5q-60 0 -110 28.5zM406 54q47 46 47 137q0 60 -26.5 116.5t-73.5 92.5t-103 36q-81 0 -126.5 -45t-45.5 -136
q0 -60 26 -117t71.5 -93.5t99.5 -36.5q84 0 131 46zM231 508q-1 3 3 6q40 35 60 62t35 56q8 16 13 22t14 7l13 1q10 0 17.5 -2.5t7.5 -6.5q0 -10 -35 -45t-74.5 -68.5t-47.5 -34.5q-5 0 -6 3z" />
    <glyph glyph-name="ocircumflex" unicode="&#xf4;" horiz-adv-x="531" 
d="M140 15.5q-50 28.5 -79.5 80t-29.5 118.5q0 65 32.5 120.5t89.5 89t126 33.5q60 0 111 -28.5t80.5 -80t29.5 -116.5t-33 -121.5t-90.5 -90t-126.5 -33.5q-60 0 -110 28.5zM406 54q47 46 47 137q0 60 -26.5 116.5t-73.5 92.5t-103 36q-81 0 -126.5 -45t-45.5 -136
q0 -60 26 -117t71.5 -93.5t99.5 -36.5q84 0 131 46zM407 513.5q-1 -3.5 -5 -3.5q-21 1 -67.5 37.5t-68.5 69.5q-14 -22 -41.5 -47t-55 -42.5t-40.5 -17.5q-4 0 -5 3t3 5q41 23 61.5 47t39.5 57q10 19 17.5 27t19.5 8q13 0 20.5 -8t18.5 -28q18 -31 38.5 -55t61.5 -47
q4 -2 3 -5.5z" />
    <glyph glyph-name="otilde" unicode="&#xf5;" horiz-adv-x="531" 
d="M140 15.5q-50 28.5 -79.5 80t-29.5 118.5q0 65 32.5 120.5t89.5 89t126 33.5q60 0 111 -28.5t80.5 -80t29.5 -116.5t-33 -121.5t-90.5 -90t-126.5 -33.5q-60 0 -110 28.5zM406 54q47 46 47 137q0 60 -26.5 116.5t-73.5 92.5t-103 36q-81 0 -126.5 -45t-45.5 -136
q0 -60 26 -117t71.5 -93.5t99.5 -36.5q84 0 131 46zM119 548q-3 1 -1 5q25 73 83 73q27 0 62 -15l37 -16q29 -13 49 -13q40 0 59 45q2 4 5 3.5t1 -5.5q-14 -38 -34 -56t-48 -18q-27 0 -61 15l-37 17q-40 17 -60 17q-19 0 -30 -11.5t-20 -36.5q-2 -5 -5 -4z" />
    <glyph glyph-name="odieresis" unicode="&#xf6;" horiz-adv-x="531" 
d="M140 15.5q-50 28.5 -79.5 80t-29.5 118.5q0 65 32.5 120.5t89.5 89t126 33.5q60 0 111 -28.5t80.5 -80t29.5 -116.5t-33 -121.5t-90.5 -90t-126.5 -33.5q-60 0 -110 28.5zM406 54q47 46 47 137q0 60 -26.5 116.5t-73.5 92.5t-103 36q-81 0 -126.5 -45t-45.5 -136
q0 -60 26 -117t71.5 -93.5t99.5 -36.5q84 0 131 46zM167 545.5q-10 8.5 -10 20.5q1 13 13 22t30 9q16 0 26 -8t10 -19q0 -13 -12 -23t-31 -10q-16 0 -26 8.5zM304 545q-10 8 -10 19q0 14 12 23.5t31 9.5q15 0 25 -8t10 -19q0 -13 -11.5 -23t-30.5 -10q-16 0 -26 8z" />
    <glyph glyph-name="divide" unicode="&#xf7;" horiz-adv-x="389" 
d="M154 352q-10 7 -10 18q0 14 15 24.5t39 10.5q17 0 27 -7t10 -18q0 -14 -15 -24.5t-39 -10.5q-17 0 -27 7zM52 234q-6 0 -9.5 1t-4.5 2q0 3 14 3h289q5 0 7.5 -1t3.5 -2q0 -3 -11 -3h-289zM154 87q-10 7 -10 18q0 14 15 24.5t39 10.5q17 0 27 -7t10 -18q0 -14 -15 -24.5
t-39 -10.5q-17 0 -27 7z" />
    <glyph glyph-name="oslash" unicode="&#xf8;" horiz-adv-x="531" 
d="M406 418q44 -30 69 -78.5t25 -107.5q0 -65 -33 -121.5t-90.5 -90t-126.5 -33.5q-66 0 -120 34l-22 -32q-3 -4 -6 -2t1 7l22 31q-44 30 -69 79t-25 110q0 64 32 120t88.5 89.5t125.5 33.5t124 -35l22 32q4 5 6.5 3t-1.5 -7zM98 152.5q20 -50.5 55 -86.5l220 317
q-26 25 -57.5 39t-65.5 14q-81 0 -126.5 -45t-45.5 -136q0 -52 20 -102.5zM406 54q47 46 47 137q0 52 -20 101.5t-55 85.5l-220 -317q53 -53 117 -53q84 0 131 46z" />
    <glyph glyph-name="ugrave" unicode="&#xf9;" horiz-adv-x="517" 
d="M522 136q3 0 3 -5q0 -62 -17 -101t-57 -39q-29 0 -45.5 22t-16.5 65v59q-11 -67 -55.5 -108.5t-106.5 -41.5q-72 0 -115.5 49t-43.5 145v181q0 24 -8.5 35t-28.5 11q-10 0 -23 -3q-3 -1 -4 1.5t1 3.5q83 20 114 42q5 3 8 1.5t3 -3.5q-4 -27 -6.5 -50.5t-2.5 -54.5v-161
q0 -171 131 -171q62 0 99.5 47.5t37.5 140.5v161q0 24 -8.5 35t-28.5 11q-10 0 -23 -3q-3 -1 -4.5 1.5t0.5 3.5q33 8 65.5 19t49.5 23q5 3 7.5 1.5t2.5 -3.5q-5 -31 -6.5 -51.5t-1.5 -53.5v-257q0 -31 7.5 -46t24.5 -15q29 0 37 26.5t8 77.5q0 5 3 5zM248 541
q-40 33 -74.5 68t-34.5 46q0 10 38 8q9 -1 14 -7t13 -22q15 -29 35 -56.5t60 -62.5q4 -3 3 -5.5t-6 -2.5q-8 1 -48 34z" />
    <glyph glyph-name="uacute" unicode="&#xfa;" horiz-adv-x="517" 
d="M522 136q3 0 3 -5q0 -62 -17 -101t-57 -39q-29 0 -45.5 22t-16.5 65v59q-11 -67 -55.5 -108.5t-106.5 -41.5q-72 0 -115.5 49t-43.5 145v181q0 24 -8.5 35t-28.5 11q-10 0 -23 -3q-3 -1 -4 1.5t1 3.5q83 20 114 42q5 3 8 1.5t3 -3.5q-4 -27 -6.5 -50.5t-2.5 -54.5v-161
q0 -171 131 -171q62 0 99.5 47.5t37.5 140.5v161q0 24 -8.5 35t-28.5 11q-10 0 -23 -3q-3 -1 -4.5 1.5t0.5 3.5q33 8 65.5 19t49.5 23q5 3 7.5 1.5t2.5 -3.5q-5 -31 -6.5 -51.5t-1.5 -53.5v-257q0 -31 7.5 -46t24.5 -15q29 0 37 26.5t8 77.5q0 5 3 5zM230 508q-1 3 3 6
q40 35 60 62t35 56q8 16 13 22t14 7l13 1q10 0 17.5 -2.5t7.5 -6.5q0 -10 -35 -45t-74.5 -68.5t-47.5 -34.5q-5 0 -6 3z" />
    <glyph glyph-name="ucircumflex" unicode="&#xfb;" horiz-adv-x="517" 
d="M522 136q3 0 3 -5q0 -62 -17 -101t-57 -39q-29 0 -45.5 22t-16.5 65v59q-11 -67 -55.5 -108.5t-106.5 -41.5q-72 0 -115.5 49t-43.5 145v181q0 24 -8.5 35t-28.5 11q-10 0 -23 -3q-3 -1 -4 1.5t1 3.5q83 20 114 42q5 3 8 1.5t3 -3.5q-4 -27 -6.5 -50.5t-2.5 -54.5v-161
q0 -171 131 -171q62 0 99.5 47.5t37.5 140.5v161q0 24 -8.5 35t-28.5 11q-10 0 -23 -3q-3 -1 -4.5 1.5t0.5 3.5q33 8 65.5 19t49.5 23q5 3 7.5 1.5t2.5 -3.5q-5 -31 -6.5 -51.5t-1.5 -53.5v-257q0 -31 7.5 -46t24.5 -15q29 0 37 26.5t8 77.5q0 5 3 5zM406 513.5
q-1 -3.5 -5 -3.5q-21 1 -67.5 37.5t-68.5 69.5q-14 -22 -41.5 -47t-55 -42.5t-40.5 -17.5q-4 0 -5 3t3 5q41 23 61.5 47t39.5 57q10 19 17.5 27t19.5 8q13 0 20.5 -8t18.5 -28q18 -31 38.5 -55t61.5 -47q4 -2 3 -5.5z" />
    <glyph glyph-name="udieresis" unicode="&#xfc;" horiz-adv-x="517" 
d="M522 136q3 0 3 -5q0 -62 -17 -101t-57 -39q-29 0 -45.5 22t-16.5 65v59q-11 -67 -55.5 -108.5t-106.5 -41.5q-72 0 -115.5 49t-43.5 145v181q0 24 -8.5 35t-28.5 11q-10 0 -23 -3q-3 -1 -4 1.5t1 3.5q83 20 114 42q5 3 8 1.5t3 -3.5q-4 -27 -6.5 -50.5t-2.5 -54.5v-161
q0 -171 131 -171q62 0 99.5 47.5t37.5 140.5v161q0 24 -8.5 35t-28.5 11q-10 0 -23 -3q-3 -1 -4.5 1.5t0.5 3.5q33 8 65.5 19t49.5 23q5 3 7.5 1.5t2.5 -3.5q-5 -31 -6.5 -51.5t-1.5 -53.5v-257q0 -31 7.5 -46t24.5 -15q29 0 37 26.5t8 77.5q0 5 3 5zM166 545.5
q-10 8.5 -10 20.5q1 13 13 22t30 9q16 0 26 -8t10 -19q0 -13 -12 -23t-31 -10q-16 0 -26 8.5zM303 545q-10 8 -10 19q0 14 12 23.5t31 9.5q15 0 25 -8t10 -19q0 -13 -11.5 -23t-30.5 -10q-16 0 -26 8z" />
    <glyph glyph-name="yacute" unicode="&#xfd;" horiz-adv-x="496" 
d="M490 442q0 -3 -3 -3q-19 0 -30.5 -13t-26.5 -47l-169 -389q-49 -106 -88.5 -150.5t-88.5 -44.5q-34 0 -59.5 17t-32.5 43q-1 8 5.5 23t14.5 22.5t9 -1.5q5 -29 26.5 -55.5t54.5 -26.5q38 0 67.5 31t65.5 107q2 4 2 13q0 19 -10 39l-161 372q-15 34 -26.5 47t-30.5 13
q-4 0 -4 3t4 3q11 -1 41 -1h62q51 0 70 1q5 0 5 -3t-5 -3q-65 0 -65 -37q0 -9 6 -23l145 -336q5 -9 9 0l146 336q6 14 6 23q0 37 -65 37q-6 0 -6 3t6 3q19 -1 70 -1h12q30 0 41 1q3 0 3 -3zM214 508q-1 3 3 6q40 35 60 62t35 56q8 16 13 22t14 7l13 1q10 0 17.5 -2.5
t7.5 -6.5q0 -10 -35 -45t-74.5 -68.5t-47.5 -34.5q-5 0 -6 3z" />
    <glyph glyph-name="thorn" unicode="&#xfe;" horiz-adv-x="521" 
d="M395.5 429.5q43.5 -28.5 69 -80t25.5 -117.5q0 -64 -29 -120.5t-80 -90.5t-113 -34q-48 0 -77.5 15.5t-57.5 39.5q-13 13 -19 13q-8 0 -8 -20v-169q0 -59 54 -62q3 0 3.5 -3t-3.5 -3q-40 2 -72 2q-39 0 -87 -2q-5 0 -5 3.5t5 3.5q28 -1 40 13.5t12 48.5v751q0 24 -8.5 35
t-28.5 11q-9 0 -23 -3q-3 -1 -4 1.5t1 3.5q82 20 115 41q4 3 7 2t3 -3q-4 -27 -6.5 -50.5t-2.5 -54.5v-228q0 -14 2.5 -32t5.5 -21q27 60 73.5 99t112.5 39q52 0 95.5 -28.5zM400.5 52.5q41.5 46.5 41.5 139.5q0 62 -22.5 115t-63 84t-92.5 31q-44 0 -80 -24t-57 -66
t-21 -95v-46q0 -50 19 -92t55 -67.5t86 -25.5q93 0 134.5 46.5z" />
    <glyph glyph-name="ydieresis" unicode="&#xff;" horiz-adv-x="496" 
d="M490 442q0 -3 -3 -3q-19 0 -30.5 -13t-26.5 -47l-169 -389q-49 -106 -88.5 -150.5t-88.5 -44.5q-34 0 -59.5 17t-32.5 43q-1 8 5.5 23t14.5 22.5t9 -1.5q5 -29 26.5 -55.5t54.5 -26.5q38 0 67.5 31t65.5 107q2 4 2 13q0 19 -10 39l-161 372q-15 34 -26.5 47t-30.5 13
q-4 0 -4 3t4 3q11 -1 41 -1h62q51 0 70 1q5 0 5 -3t-5 -3q-65 0 -65 -37q0 -9 6 -23l145 -336q5 -9 9 0l146 336q6 14 6 23q0 37 -65 37q-6 0 -6 3t6 3q19 -1 70 -1h12q30 0 41 1q3 0 3 -3zM149 545.5q-10 8.5 -10 20.5q1 13 13 22t30 9q16 0 26 -8t10 -19q0 -13 -12 -23
t-31 -10q-16 0 -26 8.5zM286 545q-10 8 -10 19q0 14 12 23.5t31 9.5q15 0 25 -8t10 -19q0 -13 -11.5 -23t-30.5 -10q-16 0 -26 8z" />
    <glyph glyph-name="Amacron" unicode="&#x100;" horiz-adv-x="701" 
d="M696 0q0 -3 -4 -2l-39 2h-104q-21 0 -60 -3q-6 0 -6.5 3t6.5 3q39 2 59.5 11t20.5 31q0 12 -6 27l-73 171q-7 7 -15 7q-7 0 -14 -4q-142 -70 -307 -77q-11 0 -20.5 -5.5t-14.5 -13.5l-33 -78q-7 -15 -7 -27q0 -22 21.5 -31t60.5 -11q7 0 6.5 -3t-6.5 -3q-39 3 -61 3h-52
l-39 -2q-4 -1 -4 2t4 3q27 2 40 15t30 54l233 551q4 9 4 19q0 7 -2 15l-13 29q-2 4 -5 6.5t-4 3.5q-2 2 0 3t6 1h49q9 0 12 -8l263 -620q18 -41 30.5 -54t39.5 -15q4 0 4 -3zM471.5 267.5q3.5 9.5 0.5 16.5h1l-150 350l-185 -440v-2q0 -7 4.5 -12t12.5 -5q82 5 160.5 24.5
t142.5 52.5q10 6 13.5 15.5zM229 762q-8 0 -8 4q0 3 8 3h243q3 0 5.5 -1t2.5 -2q0 -4 -8 -4h-243z" />
    <glyph glyph-name="amacron" unicode="&#x101;" horiz-adv-x="520" 
d="M523.5 137.5q3.5 0.5 3.5 -5.5q0 -71 -23.5 -107.5t-54.5 -36.5q-26 0 -40.5 22t-24.5 68l-10 50q-21 -62 -70.5 -101t-107.5 -39q-76 0 -116 42.5t-40 101.5q0 34 26 60t68 40.5t90 14.5q63 0 127 -10l-20 95q-12 52 -40 77t-86 25q-41 0 -78 -17.5t-61.5 -53
t-25.5 -87.5q0 -6 -3.5 -6t-3.5 6q2 54 31.5 95.5t74.5 64t90 22.5q72 0 107.5 -30.5t49.5 -95.5l51 -244q7 -31 16 -47.5t23 -16.5q8 0 18 9t18 33t8 66q0 5 3.5 5.5zM362 182l-7 36q-66 12 -123 12q-76 0 -108.5 -19.5t-32.5 -72.5q0 -51 32 -84t96 -33q136 0 143 143
q1 8 0 18zM122 587q-8 0 -8 4q0 3 8 3h243q3 0 5.5 -1t2.5 -2q0 -4 -8 -4h-243z" />
    <glyph glyph-name="Abreve" unicode="&#x102;" horiz-adv-x="701" 
d="M696 0q0 -3 -4 -2l-39 2h-104q-21 0 -60 -3q-6 0 -6.5 3t6.5 3q39 2 59.5 11t20.5 31q0 12 -6 27l-73 171q-7 7 -15 7q-7 0 -14 -4q-142 -70 -307 -77q-11 0 -20.5 -5.5t-14.5 -13.5l-33 -78q-7 -15 -7 -27q0 -22 21.5 -31t60.5 -11q7 0 6.5 -3t-6.5 -3q-39 3 -61 3h-52
l-39 -2q-4 -1 -4 2t4 3q27 2 40 15t30 54l233 551q4 9 4 19q0 7 -2 15l-13 29q-2 4 -5 6.5t-4 3.5q-2 2 0 3t6 1h49q9 0 12 -8l263 -620q18 -41 30.5 -54t39.5 -15q4 0 4 -3zM471.5 267.5q3.5 9.5 0.5 16.5h1l-150 350l-185 -440v-2q0 -7 4.5 -12t12.5 -5q82 5 160.5 24.5
t142.5 52.5q10 6 13.5 15.5zM270 858q0 -20 9.5 -45t30.5 -43.5t54 -18.5q55 0 75 37t20 70q0 6 3 6q5 0 5 -5q0 -42 -27 -81.5t-95 -39.5q-43 0 -68.5 22t-36 49.5t-10.5 47.5q0 7 20 7t20 -6z" />
    <glyph glyph-name="abreve" unicode="&#x103;" horiz-adv-x="520" 
d="M523.5 137.5q3.5 0.5 3.5 -5.5q0 -71 -23.5 -107.5t-54.5 -36.5q-26 0 -40.5 22t-24.5 68l-10 50q-21 -62 -70.5 -101t-107.5 -39q-76 0 -116 42.5t-40 101.5q0 34 26 60t68 40.5t90 14.5q63 0 127 -10l-20 95q-12 52 -40 77t-86 25q-41 0 -78 -17.5t-61.5 -53
t-25.5 -87.5q0 -6 -3.5 -6t-3.5 6q2 54 31.5 95.5t74.5 64t90 22.5q72 0 107.5 -30.5t49.5 -95.5l51 -244q7 -31 16 -47.5t23 -16.5q8 0 18 9t18 33t8 66q0 5 3.5 5.5zM362 182l-7 36q-66 12 -123 12q-76 0 -108.5 -19.5t-32.5 -72.5q0 -51 32 -84t96 -33q136 0 143 143
q1 8 0 18zM163 636q0 -20 9.5 -45t30.5 -43.5t54 -18.5q55 0 75 37t20 70q0 6 3 6q5 0 5 -5q0 -42 -27 -81.5t-95 -39.5q-43 0 -68.5 22t-36 49.5t-10.5 47.5q0 7 20 7t20 -6z" />
    <glyph glyph-name="Aogonek" unicode="&#x104;" horiz-adv-x="701" 
d="M695.5 -85q2.5 0 2.5 -5q0 -40 -21 -62t-56 -22q-31 0 -49.5 16t-18.5 45q0 32 23 59.5t63 53.5h-90q-21 0 -60 -3q-6 0 -6.5 3t6.5 3q39 2 59.5 11t20.5 31q0 12 -6 27l-73 171q-7 7 -15 7q-7 0 -14 -4q-142 -70 -307 -77q-11 0 -20.5 -5.5t-14.5 -13.5l-33 -78
q-7 -15 -7 -27q0 -22 21.5 -31t60.5 -11q7 0 6.5 -3t-6.5 -3q-39 3 -61 3h-52l-39 -2q-4 -1 -4 2t4 3q27 2 40 15t30 54l233 551q4 9 4 19q0 7 -2 15l-13 29q-2 4 -5 6.5t-4 3.5q-2 2 0 3t6 1h49q9 0 12 -8l263 -620q18 -41 30.5 -54t39.5 -15q4 0 4 -3t-4 -2l-39 2h-4
q-32 -28 -44 -50t-12 -47q0 -23 12 -35.5t32 -12.5q26 0 41 12.5t15 42.5q0 5 2.5 5zM471.5 267.5q3.5 9.5 0.5 16.5h1l-150 350l-185 -440v-2q0 -7 4.5 -12t12.5 -5q82 5 160.5 24.5t142.5 52.5q10 6 13.5 15.5z" />
    <glyph glyph-name="aogonek" unicode="&#x105;" horiz-adv-x="520" 
d="M530.5 -82q2.5 0 2.5 -5q0 -40 -21 -62t-56 -22q-31 0 -49.5 16t-18.5 45q0 28 17 51.5t48 46.5h-4q-26 0 -40.5 22t-24.5 68l-10 50q-21 -62 -70.5 -101t-107.5 -39q-76 0 -116 42.5t-40 101.5q0 34 26 60t68 40.5t90 14.5q63 0 127 -10l-20 95q-12 52 -40 77t-86 25
q-41 0 -78 -17.5t-61.5 -53t-25.5 -87.5q0 -6 -3.5 -6t-3.5 6q2 54 31.5 95.5t74.5 64t90 22.5q72 0 107.5 -30.5t49.5 -95.5l51 -244q7 -31 16 -47.5t23 -16.5q8 0 18 9t18 33t8 66q0 5 3.5 5.5t3.5 -5.5q0 -55 -14.5 -89.5t-37.5 -47.5q-27 -25 -37 -45.5t-10 -43.5
t12 -35.5t32 -12.5q26 0 41 12.5t15 42.5q0 5 2.5 5zM362 182l-7 36q-66 12 -123 12q-76 0 -108.5 -19.5t-32.5 -72.5q0 -51 32 -84t96 -33q136 0 143 143q1 8 0 18z" />
    <glyph glyph-name="Cacute" unicode="&#x106;" horiz-adv-x="671" 
d="M593 389q-1 -4 -4.5 -3.5t-2.5 4.5q12 48 12 91q0 56 -20 104q-22 52 -67.5 77t-107.5 25q-143 0 -223.5 -70t-80.5 -224q0 -118 47 -201t117.5 -124.5t141.5 -41.5q60 0 129 22.5t119 81.5q5 5 7 5t1.5 -2.5t-3.5 -6.5q-60 -73 -128 -106t-161 -33q-88 0 -162 44
t-117.5 124t-43.5 183q0 108 50 193t134.5 133t184.5 48q64 0 115.5 -20.5t80.5 -52.5t29 -65q0 -9 -1 -13zM267 742q-1 3 3 5q72 43 117 93q13 14 19 18.5t15 4.5q12 0 23 -3t10 -9q0 -10 -40.5 -36.5t-87 -51.5t-53.5 -25q-5 1 -6 4z" />
    <glyph glyph-name="cacute" unicode="&#x107;" horiz-adv-x="460" 
d="M392 243q-1 -4 -4 -3t-2 5q6 26 6 50q0 64 -39 103.5t-105 39.5q-80 0 -125 -43t-45 -141q0 -76 33 -128.5t82.5 -78.5t97.5 -26q37 0 77 13t67 49q3 2 5 0.5t0 -4.5q-40 -48 -85.5 -69.5t-107.5 -21.5q-59 0 -108.5 28.5t-78.5 80t-29 118.5q0 69 32.5 124.5t88 87
t121.5 31.5q45 0 81.5 -14.5t55.5 -37t14 -44.5zM219 508q-1 3 3 6q40 35 60 62t35 56q8 16 13 22t14 7l13 1q10 0 17.5 -2.5t7.5 -6.5q0 -10 -35 -45t-74.5 -68.5t-47.5 -34.5q-5 0 -6 3z" />
    <glyph glyph-name="Ccircumflex" unicode="&#x108;" horiz-adv-x="671" 
d="M593 389q-1 -4 -4.5 -3.5t-2.5 4.5q12 48 12 91q0 56 -20 104q-22 52 -67.5 77t-107.5 25q-143 0 -223.5 -70t-80.5 -224q0 -118 47 -201t117.5 -124.5t141.5 -41.5q60 0 129 22.5t119 81.5q5 5 7 5t1.5 -2.5t-3.5 -6.5q-60 -73 -128 -106t-161 -33q-88 0 -162 44
t-117.5 124t-43.5 183q0 108 50 193t134.5 133t184.5 48q64 0 115.5 -20.5t80.5 -52.5t29 -65q0 -9 -1 -13zM504 739q0 -3 -5 -3q-23 1 -73.5 33t-73.5 61q-23 -29 -74 -61t-74 -33q-4 0 -5 3t3 5q45 20 68.5 42t40.5 49q12 17 19.5 23.5t20.5 6.5t20.5 -6.5t20.5 -24.5
q19 -27 41.5 -48.5t66.5 -41.5q4 -2 4 -5z" />
    <glyph glyph-name="ccircumflex" unicode="&#x109;" horiz-adv-x="460" 
d="M392 243q-1 -4 -4 -3t-2 5q6 26 6 50q0 64 -39 103.5t-105 39.5q-80 0 -125 -43t-45 -141q0 -76 33 -128.5t82.5 -78.5t97.5 -26q37 0 77 13t67 49q3 2 5 0.5t0 -4.5q-40 -48 -85.5 -69.5t-107.5 -21.5q-59 0 -108.5 28.5t-78.5 80t-29 118.5q0 69 32.5 124.5t88 87
t121.5 31.5q45 0 81.5 -14.5t55.5 -37t14 -44.5zM395 513.5q-1 -3.5 -5 -3.5q-21 1 -67.5 37.5t-68.5 69.5q-14 -22 -41.5 -47t-55 -42.5t-40.5 -17.5q-4 0 -5 3t3 5q41 23 61.5 47t39.5 57q10 19 17.5 27t19.5 8q13 0 20.5 -8t18.5 -28q18 -31 38.5 -55t61.5 -47
q4 -2 3 -5.5z" />
    <glyph glyph-name="Cdotaccent" unicode="&#x10a;" horiz-adv-x="671" 
d="M593 389q-1 -4 -4.5 -3.5t-2.5 4.5q12 48 12 91q0 56 -20 104q-22 52 -67.5 77t-107.5 25q-143 0 -223.5 -70t-80.5 -224q0 -118 47 -201t117.5 -124.5t141.5 -41.5q60 0 129 22.5t119 81.5q5 5 7 5t1.5 -2.5t-3.5 -6.5q-60 -73 -128 -106t-161 -33q-88 0 -162 44
t-117.5 124t-43.5 183q0 108 50 193t134.5 133t184.5 48q64 0 115.5 -20.5t80.5 -52.5t29 -65q0 -9 -1 -13zM319 761.5q-11 8.5 -11 20.5q0 14 14 24t36 10q18 0 29 -7.5t11 -19.5q0 -15 -14 -25.5t-36 -10.5q-18 0 -29 8.5z" />
    <glyph glyph-name="cdotaccent" unicode="&#x10b;" horiz-adv-x="460" 
d="M392 243q-1 -4 -4 -3t-2 5q6 26 6 50q0 64 -39 103.5t-105 39.5q-80 0 -125 -43t-45 -141q0 -76 33 -128.5t82.5 -78.5t97.5 -26q37 0 77 13t67 49q3 2 5 0.5t0 -4.5q-40 -48 -85.5 -69.5t-107.5 -21.5q-59 0 -108.5 28.5t-78.5 80t-29 118.5q0 69 32.5 124.5t88 87
t121.5 31.5q45 0 81.5 -14.5t55.5 -37t14 -44.5zM222.5 544q-10.5 8 -10.5 19q0 13 12 22.5t31 9.5q16 0 26 -8t10 -19q0 -13 -12 -22.5t-31 -9.5q-15 0 -25.5 8z" />
    <glyph glyph-name="Ccaron" unicode="&#x10c;" horiz-adv-x="671" 
d="M593 389q-1 -4 -4.5 -3.5t-2.5 4.5q12 48 12 91q0 56 -20 104q-22 52 -67.5 77t-107.5 25q-143 0 -223.5 -70t-80.5 -224q0 -118 47 -201t117.5 -124.5t141.5 -41.5q60 0 129 22.5t119 81.5q5 5 7 5t1.5 -2.5t-3.5 -6.5q-60 -73 -128 -106t-161 -33q-88 0 -162 44
t-117.5 124t-43.5 183q0 108 50 193t134.5 133t184.5 48q64 0 115.5 -20.5t80.5 -52.5t29 -65q0 -9 -1 -13zM493 862q1 -3 -3 -5q-41 -19 -62 -39.5t-39 -48.5q-11 -17 -18.5 -23.5t-19.5 -6.5t-19.5 7t-18.5 23q-16 25 -37.5 46.5t-62.5 41.5q-4 2 -3 5t5 3q21 -1 68 -32
t68 -60q21 29 68.5 60t68.5 32q4 0 5 -3z" />
    <glyph glyph-name="ccaron" unicode="&#x10d;" horiz-adv-x="460" 
d="M392 243q-1 -4 -4 -3t-2 5q6 26 6 50q0 64 -39 103.5t-105 39.5q-80 0 -125 -43t-45 -141q0 -76 33 -128.5t82.5 -78.5t97.5 -26q37 0 77 13t67 49q3 2 5 0.5t0 -4.5q-40 -48 -85.5 -69.5t-107.5 -21.5q-59 0 -108.5 28.5t-78.5 80t-29 118.5q0 69 32.5 124.5t88 87
t121.5 31.5q45 0 81.5 -14.5t55.5 -37t14 -44.5zM395 651.5q1 -3.5 -3 -5.5q-41 -22 -61.5 -46t-39.5 -57q-11 -20 -18.5 -28t-19.5 -8t-19.5 8t-18.5 27q-16 30 -37.5 55.5t-62.5 48.5q-4 2 -3 5.5t5 3.5q21 -1 68 -38t68 -70q14 22 41.5 47.5t54.5 43t41 17.5q4 0 5 -3.5z
" />
    <glyph glyph-name="Dcaron" unicode="&#x10e;" horiz-adv-x="705" 
d="M208 -2l-116 1l-49 -2q-5 0 -5.5 3t5.5 3q38 2 55 16.5t17 54.5v551q0 40 -17 54.5t-55 16.5q-6 0 -5.5 3t5.5 2l49 -1l131 2q222 0 329.5 -91t107.5 -258q0 -103 -43 -183.5t-131 -126.5t-217 -46q-39 0 -61 1zM516.5 94.5q84.5 91.5 84.5 250.5q0 101 -41.5 180
t-130.5 125t-225 46q-20 0 -26.5 -10t-6.5 -32v-605q0 -19 5.5 -28.5t21.5 -13.5t50 -4q184 0 268.5 91.5zM447 862q1 -3 -3 -5q-41 -19 -62 -39.5t-39 -48.5q-11 -17 -18.5 -23.5t-19.5 -6.5t-19.5 7t-18.5 23q-16 25 -37.5 46.5t-62.5 41.5q-4 2 -3 5t5 3q21 -1 68 -32
t68 -60q21 29 68.5 60t68.5 32q4 0 5 -3z" />
    <glyph glyph-name="dcaron" unicode="&#x10f;" horiz-adv-x="534" 
d="M539 136q3 0 3 -5q0 -62 -17 -101t-57 -39q-29 0 -46 22t-17 65v19l-3 14q0 3 -2 3t-3 -4q-28 -59 -70.5 -91t-105.5 -32q-51 0 -94.5 28.5t-69.5 79.5t-26 116q0 64 30 121t81 91.5t109 34.5q46 0 86 -21t68 -59v237q0 27 -8.5 38t-23.5 11q-4 0 -14 -2q-7 -1 -6 5
q37 9 63.5 20t46.5 30q7 1 5 -5q-6 -23 -8 -60t-2 -115v-449q0 -61 32 -61q30 0 38 27t8 77q0 5 3 5zM369 73q36 51 36 141v35q-2 42 -17.5 85t-49 73t-83.5 30q-92 0 -134.5 -47t-42.5 -139q0 -61 23 -114t64.5 -84t94.5 -31q73 0 109 51zM532.5 516q-2.5 0 -3.5 4
q-1 67 -14 130q-5 20 -5 29q0 15 4.5 20.5t17.5 5.5q14 0 18.5 -5.5t4.5 -21.5q0 -9 -5 -29q-6 -30 -10 -57t-5 -72q0 -4 -2.5 -4z" />
    <glyph glyph-name="Dcroat" unicode="&#x110;" horiz-adv-x="705" 
d="M552.5 611q107.5 -91 107.5 -258q0 -103 -43 -183.5t-131 -126.5t-217 -46q-39 0 -61 1l-116 1l-49 -2q-5 0 -5.5 3t5.5 3q38 2 55 16.5t17 54.5v272h-76q-4 0 -4 3.5t4 3.5h76v272q0 40 -17 54.5t-55 16.5q-6 0 -5.5 3t5.5 2l49 -1l131 2q222 0 329.5 -91zM516.5 94.5
q84.5 91.5 84.5 250.5q0 101 -41.5 180t-130.5 125t-225 46q-20 0 -26.5 -10t-6.5 -32v-301h214q5 0 5 -3.5t-5 -3.5h-214v-297q0 -19 5.5 -28.5t21.5 -13.5t50 -4q184 0 268.5 91.5z" />
    <glyph glyph-name="dcroat" unicode="&#x111;" horiz-adv-x="534" 
d="M539 136q3 0 3 -5q0 -62 -17 -101t-57 -39q-29 0 -46 22t-17 65v19l-3 14q0 3 -2 3t-3 -4q-28 -59 -70.5 -91t-105.5 -32q-51 0 -94.5 28.5t-69.5 79.5t-26 116q0 64 30 121t81 91.5t109 34.5q46 0 86 -21t68 -59v196h-123q-8 0 -8 4q0 1 2.5 2t5.5 1h123v34
q0 27 -8.5 38t-23.5 11q-4 0 -14 -2q-7 -1 -6 5q37 9 63.5 20t46.5 30q7 1 5 -5q-5 -19 -7 -47.5t-3 -83.5h75q8 0 8 -3q0 -4 -8 -4h-75v-37v-449q0 -61 32 -61q30 0 38 27t8 77q0 5 3 5zM369 73q36 51 36 141v35q-2 42 -17.5 85t-49 73t-83.5 30q-92 0 -134.5 -47
t-42.5 -139q0 -61 23 -114t64.5 -84t94.5 -31q73 0 109 51z" />
    <glyph glyph-name="Emacron" unicode="&#x112;" horiz-adv-x="608" 
d="M43 -2q-5 -1 -5.5 2t5.5 3q38 2 55 17t17 55v550q0 40 -17 55t-55 17q-6 0 -5.5 3t5.5 2l50 -2h271q68 0 119 7l23 2q7 0 10.5 -4t4.5 -16q2 -83 24 -228q1 -4 -1.5 -4.5t-3.5 3.5q-15 78 -24.5 116t-17 55t-19.5 30q-20 21 -80 27t-208 6q-20 0 -20 -28v-268
q2 -23 20 -23q93 0 119 3q16 2 25 8.5t18 26.5t20 62q1 6 3.5 6t1.5 -6q-7 -39 -7 -88q0 -63 12 -132q1 -5 -1.5 -5.5t-3.5 5.5q-17 63 -31.5 85.5t-36.5 25.5q-26 2 -119 2q-18 0 -20 -24v-298q0 -40 29 -40q152 1 221.5 8.5t90.5 25.5q22 20 34.5 61.5t28.5 137.5q1 7 4 7
q4 0 2 -8q-21 -127 -24 -227q0 -13 -4.5 -16.5t-12.5 -3.5t-42.5 4.5t-117.5 4.5h-287zM167 762q-8 0 -8 4q0 3 8 3h243q3 0 5.5 -1t2.5 -2q0 -4 -8 -4h-243z" />
    <glyph glyph-name="emacron" unicode="&#x113;" horiz-adv-x="461" 
d="M438 83.5q2 -1.5 1 -4.5q-39 -47 -86 -69t-107 -22q-58 0 -107.5 28.5t-78.5 80t-29 118.5q0 71 32 126.5t86 86t117 30.5q70 0 116 -41.5t46 -108.5q0 -29 -11 -65l-101 -2q-157 -2 -239 -5q4 -70 38 -118.5t82 -72.5t94 -24q37 0 77 13t67 49q1 2 3 0.5zM77 253v-11
q54 1 146 5q104 4 146 5q7 20 7 44q0 37 -17.5 71t-48.5 54.5t-67 20.5q-166 0 -166 -189zM120 587q-8 0 -8 4q0 3 8 3h243q3 0 5.5 -1t2.5 -2q0 -4 -8 -4h-243z" />
    <glyph glyph-name="Ebreve" unicode="&#x114;" horiz-adv-x="608" 
d="M43 -2q-5 -1 -5.5 2t5.5 3q38 2 55 17t17 55v550q0 40 -17 55t-55 17q-6 0 -5.5 3t5.5 2l50 -2h271q68 0 119 7l23 2q7 0 10.5 -4t4.5 -16q2 -83 24 -228q1 -4 -1.5 -4.5t-3.5 3.5q-15 78 -24.5 116t-17 55t-19.5 30q-20 21 -80 27t-208 6q-20 0 -20 -28v-268
q2 -23 20 -23q93 0 119 3q16 2 25 8.5t18 26.5t20 62q1 6 3.5 6t1.5 -6q-7 -39 -7 -88q0 -63 12 -132q1 -5 -1.5 -5.5t-3.5 5.5q-17 63 -31.5 85.5t-36.5 25.5q-26 2 -119 2q-18 0 -20 -24v-298q0 -40 29 -40q152 1 221.5 8.5t90.5 25.5q22 20 34.5 61.5t28.5 137.5q1 7 4 7
q4 0 2 -8q-21 -127 -24 -227q0 -13 -4.5 -16.5t-12.5 -3.5t-42.5 4.5t-117.5 4.5h-287zM208 858q0 -20 9.5 -45t30.5 -43.5t54 -18.5q55 0 75 37t20 70q0 6 3 6q5 0 5 -5q0 -42 -27 -81.5t-95 -39.5q-43 0 -68.5 22t-36 49.5t-10.5 47.5q0 7 20 7t20 -6z" />
    <glyph glyph-name="ebreve" unicode="&#x115;" horiz-adv-x="461" 
d="M438 83.5q2 -1.5 1 -4.5q-39 -47 -86 -69t-107 -22q-58 0 -107.5 28.5t-78.5 80t-29 118.5q0 71 32 126.5t86 86t117 30.5q70 0 116 -41.5t46 -108.5q0 -29 -11 -65l-101 -2q-157 -2 -239 -5q4 -70 38 -118.5t82 -72.5t94 -24q37 0 77 13t67 49q1 2 3 0.5zM77 253v-11
q54 1 146 5q104 4 146 5q7 20 7 44q0 37 -17.5 71t-48.5 54.5t-67 20.5q-166 0 -166 -189zM161 636q0 -20 9.5 -45t30.5 -43.5t54 -18.5q55 0 75 37t20 70q0 6 3 6q5 0 5 -5q0 -42 -27 -81.5t-95 -39.5q-43 0 -68.5 22t-36 49.5t-10.5 47.5q0 7 20 7t20 -6z" />
    <glyph glyph-name="Edotaccent" unicode="&#x116;" horiz-adv-x="608" 
d="M43 -2q-5 -1 -5.5 2t5.5 3q38 2 55 17t17 55v550q0 40 -17 55t-55 17q-6 0 -5.5 3t5.5 2l50 -2h271q68 0 119 7l23 2q7 0 10.5 -4t4.5 -16q2 -83 24 -228q1 -4 -1.5 -4.5t-3.5 3.5q-15 78 -24.5 116t-17 55t-19.5 30q-20 21 -80 27t-208 6q-20 0 -20 -28v-268
q2 -23 20 -23q93 0 119 3q16 2 25 8.5t18 26.5t20 62q1 6 3.5 6t1.5 -6q-7 -39 -7 -88q0 -63 12 -132q1 -5 -1.5 -5.5t-3.5 5.5q-17 63 -31.5 85.5t-36.5 25.5q-26 2 -119 2q-18 0 -20 -24v-298q0 -40 29 -40q152 1 221.5 8.5t90.5 25.5q22 20 34.5 61.5t28.5 137.5q1 7 4 7
q4 0 2 -8q-21 -127 -24 -227q0 -13 -4.5 -16.5t-12.5 -3.5t-42.5 4.5t-117.5 4.5h-287zM256 761.5q-11 8.5 -11 20.5q0 14 14 24t36 10q18 0 29 -7.5t11 -19.5q0 -15 -14 -25.5t-36 -10.5q-18 0 -29 8.5z" />
    <glyph glyph-name="edotaccent" unicode="&#x117;" horiz-adv-x="461" 
d="M438 83.5q2 -1.5 1 -4.5q-39 -47 -86 -69t-107 -22q-58 0 -107.5 28.5t-78.5 80t-29 118.5q0 71 32 126.5t86 86t117 30.5q70 0 116 -41.5t46 -108.5q0 -29 -11 -65l-101 -2q-157 -2 -239 -5q4 -70 38 -118.5t82 -72.5t94 -24q37 0 77 13t67 49q1 2 3 0.5zM77 253v-11
q54 1 146 5q104 4 146 5q7 20 7 44q0 37 -17.5 71t-48.5 54.5t-67 20.5q-166 0 -166 -189zM211.5 544q-10.5 8 -10.5 19q0 13 12 22.5t31 9.5q16 0 26 -8t10 -19q0 -13 -12 -22.5t-31 -9.5q-15 0 -25.5 8z" />
    <glyph glyph-name="Eogonek" unicode="&#x118;" horiz-adv-x="608" 
d="M462.5 -47q-8.5 -19 -8.5 -41q0 -23 12 -35.5t32 -12.5q26 0 41 12.5t15 42.5q0 5 2.5 5t2.5 -5q0 -40 -21 -62t-56 -22q-31 0 -49.5 16t-18.5 45q0 28 18.5 52.5t50.5 48.5q-69 3 -103 3h-287l-50 -2q-5 -1 -5.5 2t5.5 3q38 2 55 17t17 55v550q0 40 -17 55t-55 17
q-6 0 -5.5 3t5.5 2l50 -2h271q68 0 119 7l23 2q7 0 10.5 -4t4.5 -16q2 -83 24 -228q1 -4 -1.5 -4.5t-3.5 3.5q-15 78 -24.5 116t-17 55t-19.5 30q-20 21 -80 27t-208 6q-20 0 -20 -28v-268q2 -23 20 -23q93 0 119 3q16 2 25 8.5t18 26.5t20 62q1 6 3.5 6t1.5 -6
q-7 -39 -7 -88q0 -63 12 -132q1 -5 -1.5 -5.5t-3.5 5.5q-17 63 -31.5 85.5t-36.5 25.5q-26 2 -119 2q-18 0 -20 -24v-298q0 -40 29 -40q152 1 221.5 8.5t90.5 25.5q22 20 34.5 61.5t28.5 137.5q1 7 4 7q4 0 2 -8q-21 -127 -24 -227q0 -13 -4.5 -16.5t-14.5 -3.5q-5 0 -43 5
q-24 -24 -32.5 -43z" />
    <glyph glyph-name="eogonek" unicode="&#x119;" horiz-adv-x="461" 
d="M438 83.5q2 -1.5 1 -4.5q-38 -46 -86 -69q-33 -29 -45 -51t-12 -47q0 -23 12 -35.5t32 -12.5q26 0 41 12.5t15 42.5q0 5 2.5 5t2.5 -5q0 -40 -21 -62t-56 -22q-31 0 -49.5 16t-18.5 45q0 30 20 55t55 50q-38 -13 -85 -13q-58 0 -107.5 28.5t-78.5 80t-29 118.5
q0 71 32 126.5t86 86t117 30.5q70 0 116 -41.5t46 -108.5q0 -29 -11 -65l-101 -2q-157 -2 -239 -5q4 -70 38 -118.5t82 -72.5t94 -24q37 0 77 13t67 49q1 2 3 0.5zM77 253v-11q54 1 146 5q104 4 146 5q7 20 7 44q0 37 -17.5 71t-48.5 54.5t-67 20.5q-166 0 -166 -189z" />
    <glyph glyph-name="Ecaron" unicode="&#x11a;" horiz-adv-x="608" 
d="M43 -2q-5 -1 -5.5 2t5.5 3q38 2 55 17t17 55v550q0 40 -17 55t-55 17q-6 0 -5.5 3t5.5 2l50 -2h271q68 0 119 7l23 2q7 0 10.5 -4t4.5 -16q2 -83 24 -228q1 -4 -1.5 -4.5t-3.5 3.5q-15 78 -24.5 116t-17 55t-19.5 30q-20 21 -80 27t-208 6q-20 0 -20 -28v-268
q2 -23 20 -23q93 0 119 3q16 2 25 8.5t18 26.5t20 62q1 6 3.5 6t1.5 -6q-7 -39 -7 -88q0 -63 12 -132q1 -5 -1.5 -5.5t-3.5 5.5q-17 63 -31.5 85.5t-36.5 25.5q-26 2 -119 2q-18 0 -20 -24v-298q0 -40 29 -40q152 1 221.5 8.5t90.5 25.5q22 20 34.5 61.5t28.5 137.5q1 7 4 7
q4 0 2 -8q-21 -127 -24 -227q0 -13 -4.5 -16.5t-12.5 -3.5t-42.5 4.5t-117.5 4.5h-287zM430 862q1 -3 -3 -5q-41 -19 -62 -39.5t-39 -48.5q-11 -17 -18.5 -23.5t-19.5 -6.5t-19.5 7t-18.5 23q-16 25 -37.5 46.5t-62.5 41.5q-4 2 -3 5t5 3q21 -1 68 -32t68 -60q21 29 68.5 60
t68.5 32q4 0 5 -3z" />
    <glyph glyph-name="ecaron" unicode="&#x11b;" horiz-adv-x="461" 
d="M438 83.5q2 -1.5 1 -4.5q-39 -47 -86 -69t-107 -22q-58 0 -107.5 28.5t-78.5 80t-29 118.5q0 71 32 126.5t86 86t117 30.5q70 0 116 -41.5t46 -108.5q0 -29 -11 -65l-101 -2q-157 -2 -239 -5q4 -70 38 -118.5t82 -72.5t94 -24q37 0 77 13t67 49q1 2 3 0.5zM77 253v-11
q54 1 146 5q104 4 146 5q7 20 7 44q0 37 -17.5 71t-48.5 54.5t-67 20.5q-166 0 -166 -189zM383 651.5q1 -3.5 -3 -5.5q-41 -22 -61.5 -46t-39.5 -57q-11 -20 -18.5 -28t-19.5 -8t-19.5 8t-18.5 27q-16 30 -37.5 55.5t-62.5 48.5q-4 2 -3 5.5t5 3.5q21 -1 68 -38t68 -70
q14 22 41.5 47.5t54.5 43t41 17.5q4 0 5 -3.5z" />
    <glyph glyph-name="Gcircumflex" unicode="&#x11c;" horiz-adv-x="689" 
d="M208 30.5q-74 43.5 -118 122.5t-44 182q0 111 51.5 196.5t136 132t180.5 46.5q65 0 117 -20t81 -51.5t29 -64.5q0 -8 -1 -12l-44 -167q-2 -4 -5 -3.5t-1 5.5q13 46 13 89q0 54 -20 96q-22 53 -68.5 78.5t-110.5 25.5q-142 0 -224 -69t-82 -226q0 -119 48.5 -205.5
t119.5 -130.5t135 -44q88 0 143 21t69 82q1 4 1 21q0 40 -9 134q-4 16 -19.5 25t-50.5 14t-102 9q-4 0 -4 3t4 3q40 -2 60 -2q66 0 151 9l10 1q10 0 10 -8q0 -4 -3.5 -12t-4.5 -28q-2 -104 -2 -158q0 -7 -2 -11t-8 -11q-52 -61 -118 -88.5t-156 -27.5q-88 0 -162 43.5z
M522 739q0 -3 -5 -3q-23 1 -73.5 33t-73.5 61q-23 -29 -74 -61t-74 -33q-4 0 -5 3t3 5q45 20 68.5 42t40.5 49q12 17 19.5 23.5t20.5 6.5t20.5 -6.5t20.5 -24.5q19 -27 41.5 -48.5t66.5 -41.5q4 -2 4 -5z" />
    <glyph glyph-name="gcircumflex" unicode="&#x11d;" horiz-adv-x="459" 
d="M425 -31.5q28 -28.5 28 -66.5q0 -36 -21 -62t-52 -38.5t-60 -12.5q-90 0 -151 84q-35 -14 -67 -14q-42 0 -68.5 24.5t-26.5 61.5q0 74 101 121q-46 25 -72.5 70t-26.5 104q0 58 29 107.5t79.5 79.5t111.5 30q40 0 76 -3q84 -3 113 -2q6 0 6 -3q0 -2 -3.5 -3.5t-8.5 -1.5
h-33q-77 0 -57 -10q47 -24 76 -70t29 -106q0 -57 -29.5 -107t-80.5 -79.5t-112 -29.5q-49 0 -91 21q-38 -18 -58 -37.5t-20 -51.5q0 -27 18 -45t44 -18q28 0 51.5 9.5t55.5 28.5q41 24 72.5 36t73.5 12q46 0 74 -28.5zM73.5 170q21.5 -49 61 -79t90.5 -30q76 0 117.5 40.5
t41.5 123.5q0 54 -22.5 103t-63 79t-92.5 30q-74 0 -114 -40.5t-40 -121.5q0 -56 21.5 -105zM401.5 -179q23.5 15 23.5 58q0 29 -19 47.5t-53 18.5q-39 0 -68 -11.5t-66 -33.5q-26 -17 -45 -25q23 -28 63.5 -48.5t90.5 -20.5t73.5 15zM367 513.5q-1 -3.5 -5 -3.5
q-21 1 -67.5 37.5t-68.5 69.5q-14 -22 -41.5 -47t-55 -42.5t-40.5 -17.5q-4 0 -5 3t3 5q41 23 61.5 47t39.5 57q10 19 17.5 27t19.5 8q13 0 20.5 -8t18.5 -28q18 -31 38.5 -55t61.5 -47q4 -2 3 -5.5z" />
    <glyph glyph-name="Gbreve" unicode="&#x11e;" horiz-adv-x="689" 
d="M208 30.5q-74 43.5 -118 122.5t-44 182q0 111 51.5 196.5t136 132t180.5 46.5q65 0 117 -20t81 -51.5t29 -64.5q0 -8 -1 -12l-44 -167q-2 -4 -5 -3.5t-1 5.5q13 46 13 89q0 54 -20 96q-22 53 -68.5 78.5t-110.5 25.5q-142 0 -224 -69t-82 -226q0 -119 48.5 -205.5
t119.5 -130.5t135 -44q88 0 143 21t69 82q1 4 1 21q0 40 -9 134q-4 16 -19.5 25t-50.5 14t-102 9q-4 0 -4 3t4 3q40 -2 60 -2q66 0 151 9l10 1q10 0 10 -8q0 -4 -3.5 -12t-4.5 -28q-2 -104 -2 -158q0 -7 -2 -11t-8 -11q-52 -61 -118 -88.5t-156 -27.5q-88 0 -162 43.5z
M289 858q0 -20 9.5 -45t30.5 -43.5t54 -18.5q55 0 75 37t20 70q0 6 3 6q5 0 5 -5q0 -42 -27 -81.5t-95 -39.5q-43 0 -68.5 22t-36 49.5t-10.5 47.5q0 7 20 7t20 -6z" />
    <glyph glyph-name="gbreve" unicode="&#x11f;" horiz-adv-x="459" 
d="M425 -31.5q28 -28.5 28 -66.5q0 -36 -21 -62t-52 -38.5t-60 -12.5q-90 0 -151 84q-35 -14 -67 -14q-42 0 -68.5 24.5t-26.5 61.5q0 74 101 121q-46 25 -72.5 70t-26.5 104q0 58 29 107.5t79.5 79.5t111.5 30q40 0 76 -3q84 -3 113 -2q6 0 6 -3q0 -2 -3.5 -3.5t-8.5 -1.5
h-33q-77 0 -57 -10q47 -24 76 -70t29 -106q0 -57 -29.5 -107t-80.5 -79.5t-112 -29.5q-49 0 -91 21q-38 -18 -58 -37.5t-20 -51.5q0 -27 18 -45t44 -18q28 0 51.5 9.5t55.5 28.5q41 24 72.5 36t73.5 12q46 0 74 -28.5zM73.5 170q21.5 -49 61 -79t90.5 -30q76 0 117.5 40.5
t41.5 123.5q0 54 -22.5 103t-63 79t-92.5 30q-74 0 -114 -40.5t-40 -121.5q0 -56 21.5 -105zM401.5 -179q23.5 15 23.5 58q0 29 -19 47.5t-53 18.5q-39 0 -68 -11.5t-66 -33.5q-26 -17 -45 -25q23 -28 63.5 -48.5t90.5 -20.5t73.5 15zM145 636q0 -20 9.5 -45t30.5 -43.5
t54 -18.5q55 0 75 37t20 70q0 6 3 6q5 0 5 -5q0 -42 -27 -81.5t-95 -39.5q-43 0 -68.5 22t-36 49.5t-10.5 47.5q0 7 20 7t20 -6z" />
    <glyph glyph-name="Gdotaccent" unicode="&#x120;" horiz-adv-x="689" 
d="M208 30.5q-74 43.5 -118 122.5t-44 182q0 111 51.5 196.5t136 132t180.5 46.5q65 0 117 -20t81 -51.5t29 -64.5q0 -8 -1 -12l-44 -167q-2 -4 -5 -3.5t-1 5.5q13 46 13 89q0 54 -20 96q-22 53 -68.5 78.5t-110.5 25.5q-142 0 -224 -69t-82 -226q0 -119 48.5 -205.5
t119.5 -130.5t135 -44q88 0 143 21t69 82q1 4 1 21q0 40 -9 134q-4 16 -19.5 25t-50.5 14t-102 9q-4 0 -4 3t4 3q40 -2 60 -2q66 0 151 9l10 1q10 0 10 -8q0 -4 -3.5 -12t-4.5 -28q-2 -104 -2 -158q0 -7 -2 -11t-8 -11q-52 -61 -118 -88.5t-156 -27.5q-88 0 -162 43.5z
M337 761.5q-11 8.5 -11 20.5q0 14 14 24t36 10q18 0 29 -7.5t11 -19.5q0 -15 -14 -25.5t-36 -10.5q-18 0 -29 8.5z" />
    <glyph glyph-name="gdotaccent" unicode="&#x121;" horiz-adv-x="459" 
d="M425 -31.5q28 -28.5 28 -66.5q0 -36 -21 -62t-52 -38.5t-60 -12.5q-90 0 -151 84q-35 -14 -67 -14q-42 0 -68.5 24.5t-26.5 61.5q0 74 101 121q-46 25 -72.5 70t-26.5 104q0 58 29 107.5t79.5 79.5t111.5 30q40 0 76 -3q84 -3 113 -2q6 0 6 -3q0 -2 -3.5 -3.5t-8.5 -1.5
h-33q-77 0 -57 -10q47 -24 76 -70t29 -106q0 -57 -29.5 -107t-80.5 -79.5t-112 -29.5q-49 0 -91 21q-38 -18 -58 -37.5t-20 -51.5q0 -27 18 -45t44 -18q28 0 51.5 9.5t55.5 28.5q41 24 72.5 36t73.5 12q46 0 74 -28.5zM73.5 170q21.5 -49 61 -79t90.5 -30q76 0 117.5 40.5
t41.5 123.5q0 54 -22.5 103t-63 79t-92.5 30q-74 0 -114 -40.5t-40 -121.5q0 -56 21.5 -105zM401.5 -179q23.5 15 23.5 58q0 29 -19 47.5t-53 18.5q-39 0 -68 -11.5t-66 -33.5q-26 -17 -45 -25q23 -28 63.5 -48.5t90.5 -20.5t73.5 15zM195.5 544q-10.5 8 -10.5 19
q0 13 12 22.5t31 9.5q16 0 26 -8t10 -19q0 -13 -12 -22.5t-31 -9.5q-15 0 -25.5 8z" />
    <glyph glyph-name="uni0122" unicode="&#x122;" horiz-adv-x="689" 
d="M208 30.5q-74 43.5 -118 122.5t-44 182q0 111 51.5 196.5t136 132t180.5 46.5q65 0 117 -20t81 -51.5t29 -64.5q0 -8 -1 -12l-44 -167q-2 -4 -5 -3.5t-1 5.5q13 46 13 89q0 54 -20 96q-22 53 -68.5 78.5t-110.5 25.5q-142 0 -224 -69t-82 -226q0 -119 48.5 -205.5
t119.5 -130.5t135 -44q88 0 143 21t69 82q1 4 1 21q0 40 -9 134q-4 16 -19.5 25t-50.5 14t-102 9q-4 0 -4 3t4 3q40 -2 60 -2q66 0 151 9l10 1q10 0 10 -8q0 -4 -3.5 -12t-4.5 -28q-2 -104 -2 -158q0 -7 -2 -11t-8 -11q-52 -61 -118 -88.5t-156 -27.5q-88 0 -162 43.5z
M332 -206.5q-1 1.5 2 4.5q44 33 44 74q0 7 -6.5 9.5t-19.5 3.5q-17 1 -26 5t-9 17q0 11 12.5 20.5t29.5 9.5q24 1 34 -9.5t10 -26.5q0 -29 -20 -59t-46 -48q-4 -2 -5 -0.5z" />
    <glyph glyph-name="uni0123" unicode="&#x123;" horiz-adv-x="459" 
d="M425 -31.5q28 -28.5 28 -66.5q0 -36 -21 -62t-52 -38.5t-60 -12.5q-90 0 -151 84q-35 -14 -67 -14q-42 0 -68.5 24.5t-26.5 61.5q0 74 101 121q-46 25 -72.5 70t-26.5 104q0 58 29 107.5t79.5 79.5t111.5 30q40 0 76 -3q84 -3 113 -2q6 0 6 -3q0 -2 -3.5 -3.5t-8.5 -1.5
h-33q-77 0 -57 -10q47 -24 76 -70t29 -106q0 -57 -29.5 -107t-80.5 -79.5t-112 -29.5q-49 0 -91 21q-38 -18 -58 -37.5t-20 -51.5q0 -27 18 -45t44 -18q28 0 51.5 9.5t55.5 28.5q41 24 72.5 36t73.5 12q46 0 74 -28.5zM73.5 170q21.5 -49 61 -79t90.5 -30q76 0 117.5 40.5
t41.5 123.5q0 54 -22.5 103t-63 79t-92.5 30q-74 0 -114 -40.5t-40 -121.5q0 -56 21.5 -105zM401.5 -179q23.5 15 23.5 58q0 29 -19 47.5t-53 18.5q-39 0 -68 -11.5t-66 -33.5q-26 -17 -45 -25q23 -28 63.5 -48.5t90.5 -20.5t73.5 15zM263.5 693q1.5 -2 -2.5 -5
q-49 -37 -49 -82q0 -8 6.5 -10.5t22.5 -4.5q19 -1 29 -5.5t10 -18.5q0 -12 -14 -22.5t-33 -10.5q-26 -1 -37.5 11t-11.5 29q0 32 22.5 65t51.5 53q4 3 5.5 1z" />
    <glyph glyph-name="Hcircumflex" unicode="&#x124;" horiz-adv-x="755" 
d="M716.5 0.5q0.5 -2.5 -3.5 -2.5q-12 0 -21 1l-30 1h-101l-49 -2q-5 -1 -5.5 2t4.5 3q39 2 56 17t17 55v302q0 17 -10 17q-3 0 -9 -2q-93 -38 -189 -59.5t-186 -24.5q-12 -1 -15.5 -7.5t-3.5 -18.5v-207q0 -40 17 -55t55 -17q6 0 5.5 -3t-5.5 -2l-50 2h-100l-50 -2
q-5 -1 -5.5 2t5.5 3q38 2 55 17t17 55v550q0 40 -17 55t-55 17q-6 0 -5.5 3t5.5 2l50 -2h100l50 2q5 1 5.5 -2t-5.5 -3q-38 -2 -55 -17t-17 -55v-298q4 -14 18 -13q90 3 187 25t188 59q11 5 15 11t5 16v200q0 40 -17 55t-56 17q-4 0 -4.5 2.5t3.5 2.5q12 0 21 -1l30 -1h101
l49 2q5 1 5.5 -2t-4.5 -3q-39 -2 -55.5 -16.5t-16.5 -55.5v-550q0 -40 16.5 -55t55.5 -17q4 0 4.5 -2.5zM529 739q0 -3 -5 -3q-23 1 -73.5 33t-73.5 61q-23 -29 -74 -61t-74 -33q-4 0 -5 3t3 5q45 20 68.5 42t40.5 49q12 17 19.5 23.5t20.5 6.5t20.5 -6.5t20.5 -24.5
q19 -27 41.5 -48.5t66.5 -41.5q4 -2 4 -5z" />
    <glyph glyph-name="hcircumflex" unicode="&#x125;" horiz-adv-x="608" 
d="M612 137.5q3 0.5 3 -5.5q0 -71 -23 -107.5t-54 -36.5q-27 0 -42.5 22t-25.5 67l-62 257q-8 34 -18.5 54t-32 30.5t-58.5 10.5q-40 0 -73.5 -21.5t-54 -64t-20.5 -103.5v-179q0 -30 15.5 -42.5t44.5 -14.5q3 0 3.5 -3t-3.5 -3q-20 1 -86 1t-86 -1q-5 0 -5 3.5t5 3.5
q31 0 45 11.5t14 45.5l-1 553q0 27 -8.5 38t-23.5 11q-4 0 -14 -2q-6 -1 -6 5q37 9 63.5 20t46.5 30q7 1 5 -5q-6 -22 -7.5 -57.5t-1.5 -117.5v-219q11 38 38 70t63 51t72 19q64 0 93 -28t44 -89l62 -254q15 -63 41 -63q8 0 18.5 9t18.5 33t8 66q0 5 3 5.5zM333 739
q0 -3 -5 -3q-23 1 -73.5 33t-73.5 61q-23 -29 -74 -61t-74 -33q-4 0 -5 3t3 5q45 20 68.5 42t40.5 49q12 17 19.5 23.5t20.5 6.5t20.5 -6.5t20.5 -24.5q19 -27 41.5 -48.5t66.5 -41.5q4 -2 4 -5z" />
    <glyph glyph-name="Hbar" unicode="&#x126;" horiz-adv-x="755" 
d="M716.5 0.5q0.5 -2.5 -3.5 -2.5q-12 0 -21 1l-30 1h-101l-49 -2q-5 -1 -5.5 2t4.5 3q39 2 56 17t17 55v302q0 17 -10 17q-3 0 -9 -2q-93 -38 -189 -59.5t-186 -24.5q-12 -1 -15.5 -7.5t-3.5 -18.5v-207q0 -40 17 -55t55 -17q6 0 5.5 -3t-5.5 -2l-50 2h-100l-50 -2
q-5 -1 -5.5 2t5.5 3q38 2 55 17t17 55v439h-43q-4 0 -4 2.5t4 2.5h43v106q0 40 -17 55t-55 17q-6 0 -5.5 3t5.5 2l50 -2h100l50 2q5 1 5.5 -2t-5.5 -3q-38 -2 -55 -17t-17 -55v-106h413v106q0 40 -17 55t-56 17q-4 0 -4.5 2.5t3.5 2.5q12 0 21 -1l30 -1h101l49 2q5 1 5.5 -2
t-4.5 -3q-39 -2 -55.5 -16.5t-16.5 -55.5v-106h41q5 0 5 -2.5t-5 -2.5h-41v-439q0 -40 16.5 -55t55.5 -17q4 0 4.5 -2.5zM579 409q4 6 5 16v89h-413v-187q4 -14 18 -13q90 3 187 25t188 59q11 5 15 11z" />
    <glyph glyph-name="hbar" unicode="&#x127;" horiz-adv-x="608" 
d="M612 137.5q3 0.5 3 -5.5q0 -71 -23 -107.5t-54 -36.5q-27 0 -42.5 22t-25.5 67l-62 257q-8 34 -18.5 54t-32 30.5t-58.5 10.5q-40 0 -73.5 -21.5t-54 -64t-20.5 -103.5v-179q0 -30 15.5 -42.5t44.5 -14.5q3 0 3.5 -3t-3.5 -3q-20 1 -86 1t-86 -1q-5 0 -5 3.5t5 3.5
q31 0 45 11.5t14 45.5l-1 482h-90q-9 0 -9 4t9 4h90v63q0 27 -8.5 38t-23.5 11q-4 0 -14 -2q-6 -1 -6 5q37 9 63.5 20t46.5 30q7 1 5 -5q-6 -21 -7.5 -54t-1.5 -106h107q8 0 8 -4t-8 -4h-107v-7v-219q11 38 38 70t63 51t72 19q64 0 93 -28t44 -89l62 -254q15 -63 41 -63
q8 0 18.5 9t18.5 33t8 66q0 5 3 5.5z" />
    <glyph glyph-name="Itilde" unicode="&#x128;" horiz-adv-x="286" 
d="M98 680q-17 15 -55 17q-6 0 -5.5 3t5.5 2l50 -2h100l50 2q5 1 5.5 -2t-5.5 -3q-38 -2 -55 -17t-17 -55v-550q0 -40 17 -55t55 -17q6 0 5.5 -3t-5.5 -2l-50 2h-100l-50 -2q-5 -1 -5.5 2t5.5 3q38 2 55 17t17 55v550q0 40 -17 55zM-3 749q-3 1 -1 5q25 73 83 73
q27 0 62 -15l37 -16q29 -13 49 -13q40 0 59 45q2 4 5 3.5t1 -5.5q-14 -38 -34 -56t-48 -18q-27 0 -61 15l-37 17q-40 17 -60 17q-19 0 -30 -11.5t-20 -36.5q-2 -5 -5 -4z" />
    <glyph glyph-name="itilde" unicode="&#x129;" horiz-adv-x="249" 
d="M167.5 22.5q16.5 -16.5 43.5 -18.5q4 0 4 -3t-4 -3q-18 1 -86 1q-67 0 -86 -1q-4 0 -4 3.5t4 3.5q59 -2 59 62v295q0 24 -8.5 35t-28.5 11q-9 0 -23 -3q-3 -1 -4 1.5t1 3.5q83 20 115 42q4 3 7 1.5t3 -3.5q-4 -27 -6.5 -50.5t-2.5 -54.5v-278q0 -28 16.5 -44.5zM-33 548
q-3 1 -1 5q25 73 83 73q27 0 62 -15l37 -16q29 -13 49 -13q40 0 59 45q2 4 5 3.5t1 -5.5q-14 -38 -34 -56t-48 -18q-27 0 -61 15l-37 17q-40 17 -60 17q-19 0 -30 -11.5t-20 -36.5q-2 -5 -5 -4z" />
    <glyph glyph-name="Imacron" unicode="&#x12a;" horiz-adv-x="286" 
d="M98 680q-17 15 -55 17q-6 0 -5.5 3t5.5 2l50 -2h100l50 2q5 1 5.5 -2t-5.5 -3q-38 -2 -55 -17t-17 -55v-550q0 -40 17 -55t55 -17q6 0 5.5 -3t-5.5 -2l-50 2h-100l-50 -2q-5 -1 -5.5 2t5.5 3q38 2 55 17t17 55v550q0 40 -17 55zM22 762q-8 0 -8 4q0 3 8 3h243q3 0 5.5 -1
t2.5 -2q0 -4 -8 -4h-243z" />
    <glyph glyph-name="imacron" unicode="&#x12b;" horiz-adv-x="249" 
d="M167.5 22.5q16.5 -16.5 43.5 -18.5q4 0 4 -3t-4 -3q-18 1 -86 1q-67 0 -86 -1q-4 0 -4 3.5t4 3.5q59 -2 59 62v295q0 24 -8.5 35t-28.5 11q-9 0 -23 -3q-3 -1 -4 1.5t1 3.5q83 20 115 42q4 3 7 1.5t3 -3.5q-4 -27 -6.5 -50.5t-2.5 -54.5v-278q0 -28 16.5 -44.5zM-8 587
q-8 0 -8 4q0 3 8 3h243q3 0 5.5 -1t2.5 -2q0 -4 -8 -4h-243z" />
    <glyph glyph-name="Ibreve" unicode="&#x12c;" horiz-adv-x="286" 
d="M98 680q-17 15 -55 17q-6 0 -5.5 3t5.5 2l50 -2h100l50 2q5 1 5.5 -2t-5.5 -3q-38 -2 -55 -17t-17 -55v-550q0 -40 17 -55t55 -17q6 0 5.5 -3t-5.5 -2l-50 2h-100l-50 -2q-5 -1 -5.5 2t5.5 3q38 2 55 17t17 55v550q0 40 -17 55zM63 858q0 -20 9.5 -45t30.5 -43.5
t54 -18.5q55 0 75 37t20 70q0 6 3 6q5 0 5 -5q0 -42 -27 -81.5t-95 -39.5q-43 0 -68.5 22t-36 49.5t-10.5 47.5q0 7 20 7t20 -6z" />
    <glyph glyph-name="ibreve" unicode="&#x12d;" horiz-adv-x="249" 
d="M167.5 22.5q16.5 -16.5 43.5 -18.5q4 0 4 -3t-4 -3q-18 1 -86 1q-67 0 -86 -1q-4 0 -4 3.5t4 3.5q59 -2 59 62v295q0 24 -8.5 35t-28.5 11q-9 0 -23 -3q-3 -1 -4 1.5t1 3.5q83 20 115 42q4 3 7 1.5t3 -3.5q-4 -27 -6.5 -50.5t-2.5 -54.5v-278q0 -28 16.5 -44.5zM33 636
q0 -20 9.5 -45t30.5 -43.5t54 -18.5q55 0 75 37t20 70q0 6 3 6q5 0 5 -5q0 -42 -27 -81.5t-95 -39.5q-43 0 -68.5 22t-36 49.5t-10.5 47.5q0 7 20 7t20 -6z" />
    <glyph glyph-name="Iogonek" unicode="&#x12e;" horiz-adv-x="286" 
d="M248.5 0q-0.5 -3 -5.5 -2l-50 2h-32q-33 -29 -45 -51t-12 -47q0 -23 12 -35.5t32 -12.5q26 0 41 12.5t15 42.5q0 5 2.5 5t2.5 -5q0 -40 -21 -62t-56 -22q-31 0 -49.5 16t-18.5 45q0 33 23.5 59.5t64.5 54.5h-59l-50 -2q-5 -1 -5.5 2t5.5 3q38 2 55 17t17 55v550
q0 40 -17 55t-55 17q-6 0 -5.5 3t5.5 2l50 -2h100l50 2q5 1 5.5 -2t-5.5 -3q-38 -2 -55 -17t-17 -55v-550q0 -40 17 -55t55 -17q6 0 5.5 -3z" />
    <glyph glyph-name="iogonek" unicode="&#x12f;" horiz-adv-x="249" 
d="M85.5 609.5q-11.5 8.5 -11.5 20.5q0 15 14.5 25.5t37.5 10.5q18 0 29.5 -8.5t11.5 -21.5q0 -14 -14.5 -24.5t-37.5 -10.5q-18 0 -29.5 8.5zM238.5 -87q2.5 0 2.5 -5q0 -40 -21 -62t-56 -22q-31 0 -49.5 16t-18.5 45q0 33 23.5 59.5t64.5 54.5l-64 1q-45 0 -81 -2
q-4 0 -4 3.5t4 3.5q59 -2 59 62v295q0 24 -8.5 35t-28.5 11q-9 0 -23 -3q-3 -1 -4 1.5t1 3.5q83 20 115 42q4 3 7 1.5t3 -3.5q-4 -27 -6.5 -50.5t-2.5 -54.5v-278q0 -28 16.5 -44.5t43.5 -18.5q4 0 4 -3t-4 -3l-18 1q-33 -29 -45 -51t-12 -47q0 -23 12 -35.5t32 -12.5
q26 0 41 12.5t15 42.5q0 5 2.5 5z" />
    <glyph glyph-name="Idotaccent" unicode="&#x130;" horiz-adv-x="286" 
d="M98 680q-17 15 -55 17q-6 0 -5.5 3t5.5 2l50 -2h100l50 2q5 1 5.5 -2t-5.5 -3q-38 -2 -55 -17t-17 -55v-550q0 -40 17 -55t55 -17q6 0 5.5 -3t-5.5 -2l-50 2h-100l-50 -2q-5 -1 -5.5 2t5.5 3q38 2 55 17t17 55v550q0 40 -17 55zM111 761.5q-11 8.5 -11 20.5q0 14 14 24
t36 10q18 0 29 -7.5t11 -19.5q0 -15 -14 -25.5t-36 -10.5q-18 0 -29 8.5z" />
    <glyph glyph-name="dotlessi" unicode="&#x131;" horiz-adv-x="249" 
d="M167.5 22.5q16.5 -16.5 43.5 -18.5q4 0 4 -3t-4 -3q-18 1 -86 1q-67 0 -86 -1q-4 0 -4 3.5t4 3.5q59 -2 59 62v295q0 24 -8.5 35t-28.5 11q-9 0 -23 -3q-3 -1 -4 1.5t1 3.5q83 20 115 42q4 3 7 1.5t3 -3.5q-4 -27 -6.5 -50.5t-2.5 -54.5v-278q0 -28 16.5 -44.5z" />
    <glyph glyph-name="IJ" unicode="&#x132;" horiz-adv-x="802" 
d="M98 680q-17 15 -55 17q-6 0 -5.5 3t5.5 2l50 -2h100l50 2q5 1 5.5 -2t-5.5 -3q-38 -2 -55 -17t-17 -55v-550q0 -40 17 -55t55 -17q6 0 5.5 -3t-5.5 -2l-50 2h-100l-50 -2q-5 -1 -5.5 2t5.5 3q38 2 55 17t17 55v550q0 40 -17 55zM399 7q-39 20 -60.5 54.5t-21.5 77.5
t28.5 73t64.5 41q4 2 5.5 -0.5t-2.5 -4.5q-25 -15 -36.5 -35.5t-11.5 -55.5q0 -39 16 -73.5t48 -56t77 -21.5q56 0 86.5 20t43.5 62.5t13 116.5q0 14 -4 94q-6 108 -6 164v162q0 40 -17 55t-55 17q-5 0 -5.5 2.5t3.5 2.5q12 0 21 -1l30 -1h101l50 2q5 1 5 -2t-5 -3
q-39 -2 -55.5 -16.5t-16.5 -55.5v-371q0 -134 -55.5 -200.5t-151.5 -66.5q-50 0 -89 20z" />
    <glyph glyph-name="ij" unicode="&#x133;" horiz-adv-x="471" 
d="M167.5 22.5q16.5 -16.5 43.5 -18.5q4 0 4 -3t-4 -3q-18 1 -86 1q-67 0 -86 -1q-4 0 -4 3.5t4 3.5q59 -2 59 62v295q0 24 -8.5 35t-28.5 11q-9 0 -23 -3q-3 -1 -4 1.5t1 3.5q83 20 115 42q4 3 7 1.5t3 -3.5q-4 -27 -6.5 -50.5t-2.5 -54.5v-278q0 -28 16.5 -44.5z
M85.5 609.5q-11.5 8.5 -11.5 20.5q0 15 14.5 25.5t37.5 10.5q18 0 29.5 -8.5t11.5 -21.5q0 -14 -14.5 -24.5t-37.5 -10.5q-18 0 -29.5 8.5zM344 362q0 24 -8.5 35t-28.5 11q-10 0 -23 -3q-3 -1 -4 1.5t1 3.5q81 20 114 42q5 3 8 1.5t3 -3.5q-4 -27 -6.5 -50.5t-2.5 -54.5
v-236q0 -77 -34 -126t-78 -71t-77 -24q-7 -1 -6.5 2t6.5 4q51 6 93.5 47.5t42.5 154.5v266zM319.5 609.5q-11.5 8.5 -11.5 20.5q0 15 14.5 25.5t37.5 10.5q18 0 29.5 -8.5t11.5 -21.5q0 -14 -14.5 -24.5t-37.5 -10.5q-18 0 -29.5 8.5z" />
    <glyph glyph-name="Jcircumflex" unicode="&#x134;" horiz-adv-x="516" 
d="M113 7q-39 20 -60.5 54.5t-21.5 77.5t28.5 73t64.5 41q4 2 5.5 -0.5t-2.5 -4.5q-25 -15 -36.5 -35.5t-11.5 -55.5q0 -39 16 -73.5t48 -56t77 -21.5q56 0 86.5 20t43.5 62.5t13 116.5q0 14 -4 94q-6 108 -6 164v162q0 40 -17 55t-55 17q-5 0 -5.5 2.5t3.5 2.5q12 0 21 -1
l30 -1h101l50 2q5 1 5 -2t-5 -3q-39 -2 -55.5 -16.5t-16.5 -55.5v-371q0 -134 -55.5 -200.5t-151.5 -66.5q-50 0 -89 20zM406 739q0 -3 -5 -3q-23 1 -73.5 33t-73.5 61q-23 -29 -74 -61t-74 -33q-4 0 -5 3t3 5q45 20 68.5 42t40.5 49q12 17 19.5 23.5t20.5 6.5t20.5 -6.5
t20.5 -24.5q19 -27 41.5 -48.5t66.5 -41.5q4 -2 4 -5z" />
    <glyph glyph-name="jcircumflex" unicode="&#x135;" horiz-adv-x="222" 
d="M95 362q0 24 -8.5 35t-28.5 11q-10 0 -23 -3q-3 -1 -4 1.5t1 3.5q81 20 114 42q5 3 8 1.5t3 -3.5q-4 -27 -6.5 -50.5t-2.5 -54.5v-236q0 -77 -34 -126t-78 -71t-77 -24q-7 -1 -6.5 2t6.5 4q51 6 93.5 47.5t42.5 154.5v266zM241 513.5q-1 -3.5 -5 -3.5q-21 1 -67.5 37.5
t-68.5 69.5q-14 -22 -41.5 -47t-55 -42.5t-40.5 -17.5q-4 0 -5 3t3 5q41 23 61.5 47t39.5 57q10 19 17.5 27t19.5 8q13 0 20.5 -8t18.5 -28q18 -31 38.5 -55t61.5 -47q4 -2 3 -5.5z" />
    <glyph glyph-name="uni0136" unicode="&#x136;" horiz-adv-x="638" 
d="M680 -84q-2 -2 -6 0q-66 34 -140.5 111t-139 176.5t-103.5 197.5l-120 -136v-190q0 -40 17 -55t55 -17q6 0 5.5 -3t-5.5 -2l-50 2h-100l-50 -2q-5 -1 -5.5 2t5.5 3q38 2 55 17t17 55v550q0 40 -17 55t-55 17q-6 0 -5.5 3t5.5 2l50 -2h100l50 2q5 1 5.5 -2t-5.5 -3
q-38 -2 -55 -17t-17 -55v-351l117 135q-2 3 -4 9l13 2l185 214q15 18 15 30q0 15 -19 23t-48 10q-5 0 -5.5 2.5t3.5 2.5q13 0 23 -1l31 -1h66q24 0 63 3q6 0 6.5 -3t-6.5 -3q-43 -2 -64 -15t-52 -48l-186 -212q18 4 27 7q12 0 13 -3q28 -93 84.5 -196.5t122.5 -187.5
t122 -122q4 -2 2 -4zM326 -217q-1 2 3 5q46 34 46 78q0 7 -6 9.5t-21 4.5q-18 1 -27.5 5.5t-9.5 17.5q0 12 14.5 21.5t34.5 9.5q23 0 32.5 -11.5t9.5 -26.5q0 -31 -21.5 -62.5t-49.5 -50.5q-4 -2 -5 0z" />
    <glyph glyph-name="uni0137" unicode="&#x137;" horiz-adv-x="532" 
d="M557.5 -37q-2.5 -3 -6.5 -1q-83 42 -150 116.5t-128 182.5l-122 -117v-83q0 -30 15.5 -42.5t44.5 -14.5q3 0 3.5 -3t-3.5 -3q-20 1 -86 1t-86 -1q-5 0 -5 3.5t5 3.5q31 0 45 11.5t14 45.5l-1 553q0 27 -8.5 38t-23.5 11q-4 0 -14 -2q-6 -1 -6 5q37 9 63.5 20t46.5 30
q7 1 5 -5q-6 -22 -7.5 -57.5t-1.5 -117.5v-386l119 115l-6 11q5 0 31 13l113 110q11 10 11 18q0 16 -42 21q-4 0 -3.5 3t4.5 3q50 -2 75 -2q22 0 60 2q4 0 3.5 -3t-5.5 -3q-47 0 -93 -40l-108 -103q5 1 8 0q58 -124 111.5 -200.5t126.5 -127.5q4 -2 1.5 -5zM239 -217
q-1 2 3 5q46 34 46 78q0 7 -6 9.5t-21 4.5q-18 1 -27.5 5.5t-9.5 17.5q0 12 14.5 21.5t34.5 9.5q23 0 32.5 -11.5t9.5 -26.5q0 -31 -21.5 -62.5t-49.5 -50.5q-4 -2 -5 0z" />
    <glyph glyph-name="kgreenlandic" unicode="&#x138;" horiz-adv-x="533" 
d="M558 -36.5q-2 -2.5 -6 -1.5q-83 42 -150.5 116.5t-128.5 181.5l-122 -117v-82q0 -29 16 -42t44 -15q4 0 4 -3t-4 -3q-19 1 -85 1t-87 -1q-4 0 -4 3.5t4 3.5q31 0 45 11.5t14 45.5v300q0 24 -8.5 35t-28.5 11q-9 0 -23 -3q-3 -1 -4 1.5t1 3.5q83 20 115 42q4 3 7 1.5
t3 -3.5q-4 -27 -6.5 -50.5t-2.5 -54.5v-195l119 116l-6 11q6 0 17 5.5t14 7.5l113 110q12 11 12 18q0 16 -43 21q-4 0 -3.5 3t4.5 3q50 -2 75 -2q23 0 61 2q4 0 3.5 -3t-5.5 -3q-25 0 -47 -9.5t-46 -30.5l-108 -103q5 1 8 0q58 -124 111.5 -200.5t126.5 -127.5q3 -2 1 -4.5z
" />
    <glyph glyph-name="Lacute" unicode="&#x139;" horiz-adv-x="587" 
d="M43 -2q-5 -1 -5.5 2t5.5 3q38 2 55 17t17 55v550q0 40 -17 55t-55 17q-6 0 -5.5 3t5.5 2l50 -2h104q22 0 58 3q6 0 6.5 -3t-6.5 -3q-45 -2 -64.5 -17t-19.5 -55v-581q0 -23 7.5 -30.5t22.5 -7.5q126 0 196.5 10.5t96.5 34.5q20 18 32.5 64t26.5 136q1 5 4 4.5t2 -5.5
q-23 -153 -23 -232q0 -15 -2.5 -21t-9.5 -6q-5 0 -51 4.5t-168 4.5h-212zM205 742q-1 3 3 5q72 43 117 93q13 14 19 18.5t15 4.5q12 0 23 -3t10 -9q0 -10 -40.5 -36.5t-87 -51.5t-53.5 -25q-5 1 -6 4z" />
    <glyph glyph-name="lacute" unicode="&#x13a;" horiz-adv-x="248" 
d="M88.5 653q-8.5 11 -23.5 11q-4 0 -14 -2q-6 -1 -6 5q75 16 110 49q7 2 5 -4q-6 -22 -7.5 -57.5t-1.5 -117.5v-470q0 -28 16.5 -44.5t43.5 -18.5q3 0 3.5 -3t-3.5 -3q-18 1 -86 1q-67 0 -86 -1q-5 0 -5 3.5t5 3.5q59 -2 59 62l-1 548q0 27 -8.5 38zM42 742q-1 3 3 5
q72 43 117 93q13 14 19 18.5t15 4.5q12 0 23 -3t10 -9q0 -10 -40.5 -36.5t-87 -51.5t-53.5 -25q-5 1 -6 4z" />
    <glyph glyph-name="uni013B" unicode="&#x13b;" horiz-adv-x="587" 
d="M43 -2q-5 -1 -5.5 2t5.5 3q38 2 55 17t17 55v550q0 40 -17 55t-55 17q-6 0 -5.5 3t5.5 2l50 -2h104q22 0 58 3q6 0 6.5 -3t-6.5 -3q-45 -2 -64.5 -17t-19.5 -55v-581q0 -23 7.5 -30.5t22.5 -7.5q126 0 196.5 10.5t96.5 34.5q20 18 32.5 64t26.5 136q1 5 4 4.5t2 -5.5
q-23 -153 -23 -232q0 -15 -2.5 -21t-9.5 -6q-5 0 -51 4.5t-168 4.5h-212zM250 -217q-1 2 3 5q46 34 46 78q0 7 -6 9.5t-21 4.5q-18 1 -27.5 5.5t-9.5 17.5q0 12 14.5 21.5t34.5 9.5q23 0 32.5 -11.5t9.5 -26.5q0 -31 -21.5 -62.5t-49.5 -50.5q-4 -2 -5 0z" />
    <glyph glyph-name="uni013C" unicode="&#x13c;" horiz-adv-x="248" 
d="M88.5 653q-8.5 11 -23.5 11q-4 0 -14 -2q-6 -1 -6 5q75 16 110 49q7 2 5 -4q-6 -22 -7.5 -57.5t-1.5 -117.5v-470q0 -28 16.5 -44.5t43.5 -18.5q3 0 3.5 -3t-3.5 -3q-18 1 -86 1q-67 0 -86 -1q-5 0 -5 3.5t5 3.5q59 -2 59 62l-1 548q0 27 -8.5 38zM86 -217q-1 2 3 5
q46 34 46 78q0 7 -6 9.5t-21 4.5q-18 1 -27.5 5.5t-9.5 17.5q0 12 14.5 21.5t34.5 9.5q23 0 32.5 -11.5t9.5 -26.5q0 -31 -21.5 -62.5t-49.5 -50.5q-4 -2 -5 0z" />
    <glyph glyph-name="Lcaron" unicode="&#x13d;" horiz-adv-x="587" 
d="M43 -2q-5 -1 -5.5 2t5.5 3q38 2 55 17t17 55v550q0 40 -17 55t-55 17q-6 0 -5.5 3t5.5 2l50 -2h104q22 0 58 3q6 0 6.5 -3t-6.5 -3q-45 -2 -64.5 -17t-19.5 -55v-581q0 -23 7.5 -30.5t22.5 -7.5q126 0 196.5 10.5t96.5 34.5q20 18 32.5 64t26.5 136q1 5 4 4.5t2 -5.5
q-23 -153 -23 -232q0 -15 -2.5 -21t-9.5 -6q-5 0 -51 4.5t-168 4.5h-212zM530.5 511q-2.5 0 -3.5 4q-1 67 -14 130q-5 20 -5 29q0 15 4.5 20.5t17.5 5.5q14 0 18.5 -5.5t4.5 -21.5q0 -9 -5 -29q-6 -30 -10 -57t-5 -72q0 -4 -2.5 -4z" />
    <glyph glyph-name="lcaron" unicode="&#x13e;" horiz-adv-x="248" 
d="M88.5 653q-8.5 11 -23.5 11q-4 0 -14 -2q-6 -1 -6 5q75 16 110 49q7 2 5 -4q-6 -22 -7.5 -57.5t-1.5 -117.5v-470q0 -28 16.5 -44.5t43.5 -18.5q3 0 3.5 -3t-3.5 -3q-18 1 -86 1q-67 0 -86 -1q-5 0 -5 3.5t5 3.5q59 -2 59 62l-1 548q0 27 -8.5 38zM244.5 514
q-2.5 0 -3.5 4q-1 67 -14 130q-5 20 -5 29q0 15 4.5 20.5t17.5 5.5q14 0 18.5 -5.5t4.5 -21.5q0 -9 -5 -29q-6 -30 -10 -57t-5 -72q0 -4 -2.5 -4z" />
    <glyph glyph-name="Ldot" unicode="&#x13f;" horiz-adv-x="554" 
d="M43 -2q-5 -1 -5.5 2t5.5 3q38 2 55 17t17 55v550q0 40 -17 55t-55 17q-6 0 -5.5 3t5.5 2l50 -2h104q22 0 58 3q6 0 6.5 -3t-6.5 -3q-45 -2 -64.5 -17t-19.5 -55v-581q0 -23 7.5 -30.5t22.5 -7.5q126 0 196.5 10.5t96.5 34.5q20 18 32.5 64t26.5 136q1 5 4 4.5t2 -5.5
q-23 -153 -23 -232q0 -15 -2.5 -21t-9.5 -6q-5 0 -51 4.5t-168 4.5h-212zM411 348.5q-10 7.5 -10 18.5q0 14 16 24.5t41 10.5q16 0 26 -7t10 -18q0 -15 -16.5 -25.5t-40.5 -10.5q-16 0 -26 7.5z" />
    <glyph glyph-name="ldot" unicode="&#x140;" horiz-adv-x="216" 
d="M88.5 653q-8.5 11 -23.5 11q-4 0 -14 -2q-6 -1 -6 5q75 16 110 49q7 2 5 -4q-6 -22 -7.5 -57.5t-1.5 -117.5v-470q0 -28 16.5 -44.5t43.5 -18.5q3 0 3.5 -3t-3.5 -3q-18 1 -86 1q-67 0 -86 -1q-5 0 -5 3.5t5 3.5q59 -2 59 62l-1 548q0 27 -8.5 38zM194.5 255
q-9.5 7 -9.5 17q0 13 15 23t38 10q15 0 24 -6.5t9 -16.5q0 -13 -14.5 -23.5t-36.5 -10.5q-16 0 -25.5 7z" />
    <glyph glyph-name="Lslash" unicode="&#x141;" horiz-adv-x="587" 
d="M557 255.5q3 -0.5 2 -5.5q-23 -153 -23 -232q0 -15 -2.5 -21t-9.5 -6q-5 0 -51 4.5t-168 4.5h-212l-50 -2q-5 -1 -5.5 2t5.5 3q38 2 55 17t17 55v252l-91 -57q-6 -4 -9 0t2 6l98 61v288q0 40 -17 55t-55 17q-6 0 -5.5 3t5.5 2l50 -2h104q22 0 58 3q6 0 6.5 -3t-6.5 -3
q-45 -2 -64.5 -17t-19.5 -55v-252l90 56q2 2 6 2t4.5 -3t-4.5 -6l-96 -60v-318q0 -23 7.5 -30.5t22.5 -7.5q126 0 196.5 10.5t96.5 34.5q20 18 32.5 64t26.5 136q1 5 4 4.5z" />
    <glyph glyph-name="lslash" unicode="&#x142;" horiz-adv-x="248" 
d="M233 398q3 2 5 -1t-2 -5l-85 -49v-276q0 -28 16.5 -44.5t43.5 -18.5q3 0 3.5 -3t-3.5 -3q-18 1 -86 1q-67 0 -86 -1q-5 0 -5 3.5t5 3.5q59 -2 59 62v245l-85 -49q-3 -1 -4 2.5t2 4.5l87 50l-1 295q0 27 -8.5 38t-23.5 11q-4 0 -14 -2q-6 -1 -6 5q75 16 110 49q7 2 5 -4
q-6 -22 -7.5 -57.5t-1.5 -117.5v-186z" />
    <glyph glyph-name="Nacute" unicode="&#x143;" horiz-adv-x="735" 
d="M716 700q0 -3 -5 -3q-39 -2 -55.5 -16.5t-16.5 -55.5v-623q0 -7 -5 -7q-6 0 -10 7l-489 647q-3 4 -5 4q-4 0 -4 -4v-575q0 -40 17 -54.5t55 -16.5q6 0 5.5 -3t-5.5 -3q-30 3 -49 3h-52q-17 0 -50 -3q-5 0 -5.5 3t5.5 3q38 2 55 16.5t17 54.5v596q-13 13 -27 19.5t-37 7.5
q-5 0 -5 3t5 3q33 -3 50 -3h51q12 0 19 -9l444 -596q4 -7 9 -7q4 0 4 7l-1 530q0 41 -16.5 55.5t-55.5 16.5q-4 0 -4.5 2.5t3.5 2.5q12 0 21 -1l30 -1h52l50 2q5 1 5 -2zM135 652l10 -11zM296 742q-1 3 3 5q72 43 117 93q13 14 19 18.5t15 4.5q12 0 23 -3t10 -9
q0 -10 -40.5 -36.5t-87 -51.5t-53.5 -25q-5 1 -6 4z" />
    <glyph glyph-name="nacute" unicode="&#x144;" horiz-adv-x="608" 
d="M612.5 137.5q3.5 0.5 3.5 -5.5q0 -71 -23.5 -107.5t-54.5 -36.5q-26 0 -41.5 21.5t-26.5 67.5l-62 257q-8 34 -18.5 54t-31.5 30.5t-58 10.5q-40 0 -74 -21.5t-54.5 -64t-20.5 -103.5v-179q0 -29 16 -42t44 -15q4 0 4 -3t-4 -3q-19 1 -85 1t-87 -1q-4 0 -4 3.5t4 3.5
q31 0 45 11.5t14 45.5v300q0 24 -8.5 35t-28.5 11q-9 0 -23 -3q-3 -1 -4 1.5t1 3.5q83 20 115 42q4 3 7 1.5t3 -3.5q-4 -27 -6.5 -50.5t-2.5 -54.5v-27q11 38 38 70t63 51t72 19q64 0 93.5 -28.5t43.5 -88.5l62 -254q7 -31 17 -47t25 -16q7 0 17.5 9t18.5 33t8 66
q0 5 3.5 5.5zM242 508q-1 3 3 6q40 35 60 62t35 56q8 16 13 22t14 7l13 1q10 0 17.5 -2.5t7.5 -6.5q0 -10 -35 -45t-74.5 -68.5t-47.5 -34.5q-5 0 -6 3z" />
    <glyph glyph-name="uni0145" unicode="&#x145;" horiz-adv-x="735" 
d="M716 700q0 -3 -5 -3q-39 -2 -55.5 -16.5t-16.5 -55.5v-623q0 -7 -5 -7q-6 0 -10 7l-489 647q-3 4 -5 4q-4 0 -4 -4v-575q0 -40 17 -54.5t55 -16.5q6 0 5.5 -3t-5.5 -3q-30 3 -49 3h-52q-17 0 -50 -3q-5 0 -5.5 3t5.5 3q38 2 55 16.5t17 54.5v596q-13 13 -27 19.5t-37 7.5
q-5 0 -5 3t5 3q33 -3 50 -3h51q12 0 19 -9l444 -596q4 -7 9 -7q4 0 4 7l-1 530q0 41 -16.5 55.5t-55.5 16.5q-4 0 -4.5 2.5t3.5 2.5q12 0 21 -1l30 -1h52l50 2q5 1 5 -2zM135 652l10 -11zM334 -217q-1 2 3 5q46 34 46 78q0 7 -6 9.5t-21 4.5q-18 1 -27.5 5.5t-9.5 17.5
q0 12 14.5 21.5t34.5 9.5q23 0 32.5 -11.5t9.5 -26.5q0 -31 -21.5 -62.5t-49.5 -50.5q-4 -2 -5 0z" />
    <glyph glyph-name="uni0146" unicode="&#x146;" horiz-adv-x="608" 
d="M612.5 137.5q3.5 0.5 3.5 -5.5q0 -71 -23.5 -107.5t-54.5 -36.5q-26 0 -41.5 21.5t-26.5 67.5l-62 257q-8 34 -18.5 54t-31.5 30.5t-58 10.5q-40 0 -74 -21.5t-54.5 -64t-20.5 -103.5v-179q0 -29 16 -42t44 -15q4 0 4 -3t-4 -3q-19 1 -85 1t-87 -1q-4 0 -4 3.5t4 3.5
q31 0 45 11.5t14 45.5v300q0 24 -8.5 35t-28.5 11q-9 0 -23 -3q-3 -1 -4 1.5t1 3.5q83 20 115 42q4 3 7 1.5t3 -3.5q-4 -27 -6.5 -50.5t-2.5 -54.5v-27q11 38 38 70t63 51t72 19q64 0 93.5 -28.5t43.5 -88.5l62 -254q7 -31 17 -47t25 -16q7 0 17.5 9t18.5 33t8 66
q0 5 3.5 5.5zM271 -217q-1 2 3 5q46 34 46 78q0 7 -6 9.5t-21 4.5q-18 1 -27.5 5.5t-9.5 17.5q0 12 14.5 21.5t34.5 9.5q23 0 32.5 -11.5t9.5 -26.5q0 -31 -21.5 -62.5t-49.5 -50.5q-4 -2 -5 0z" />
    <glyph glyph-name="Ncaron" unicode="&#x147;" horiz-adv-x="735" 
d="M716 700q0 -3 -5 -3q-39 -2 -55.5 -16.5t-16.5 -55.5v-623q0 -7 -5 -7q-6 0 -10 7l-489 647q-3 4 -5 4q-4 0 -4 -4v-575q0 -40 17 -54.5t55 -16.5q6 0 5.5 -3t-5.5 -3q-30 3 -49 3h-52q-17 0 -50 -3q-5 0 -5.5 3t5.5 3q38 2 55 16.5t17 54.5v596q-13 13 -27 19.5t-37 7.5
q-5 0 -5 3t5 3q33 -3 50 -3h51q12 0 19 -9l444 -596q4 -7 9 -7q4 0 4 7l-1 530q0 41 -16.5 55.5t-55.5 16.5q-4 0 -4.5 2.5t3.5 2.5q12 0 21 -1l30 -1h52l50 2q5 1 5 -2zM135 652l10 -11zM522 862q1 -3 -3 -5q-41 -19 -62 -39.5t-39 -48.5q-11 -17 -18.5 -23.5t-19.5 -6.5
t-19.5 7t-18.5 23q-16 25 -37.5 46.5t-62.5 41.5q-4 2 -3 5t5 3q21 -1 68 -32t68 -60q21 29 68.5 60t68.5 32q4 0 5 -3z" />
    <glyph glyph-name="ncaron" unicode="&#x148;" horiz-adv-x="608" 
d="M612.5 137.5q3.5 0.5 3.5 -5.5q0 -71 -23.5 -107.5t-54.5 -36.5q-26 0 -41.5 21.5t-26.5 67.5l-62 257q-8 34 -18.5 54t-31.5 30.5t-58 10.5q-40 0 -74 -21.5t-54.5 -64t-20.5 -103.5v-179q0 -29 16 -42t44 -15q4 0 4 -3t-4 -3q-19 1 -85 1t-87 -1q-4 0 -4 3.5t4 3.5
q31 0 45 11.5t14 45.5v300q0 24 -8.5 35t-28.5 11q-9 0 -23 -3q-3 -1 -4 1.5t1 3.5q83 20 115 42q4 3 7 1.5t3 -3.5q-4 -27 -6.5 -50.5t-2.5 -54.5v-27q11 38 38 70t63 51t72 19q64 0 93.5 -28.5t43.5 -88.5l62 -254q7 -31 17 -47t25 -16q7 0 17.5 9t18.5 33t8 66
q0 5 3.5 5.5zM418 651.5q1 -3.5 -3 -5.5q-41 -22 -61.5 -46t-39.5 -57q-11 -20 -18.5 -28t-19.5 -8t-19.5 8t-18.5 27q-16 30 -37.5 55.5t-62.5 48.5q-4 2 -3 5.5t5 3.5q21 -1 68 -38t68 -70q14 22 41.5 47.5t54.5 43t41 17.5q4 0 5 -3.5z" />
    <glyph glyph-name="Eng" unicode="&#x14a;" horiz-adv-x="720" 
d="M699.5 700q0.5 -3 -5.5 -3q-38 -2 -55 -17t-17 -55v-607q0 -127 -30 -179t-96 -52q-41 0 -73 16q-5 3 0.5 13.5t15 18.5t13.5 5q28 -25 61 -25q41 0 62.5 20t30.5 63t9 120v18l-497 613q-3 4 -5 4q-4 0 -4 -4l1 -575q0 -40 16.5 -54.5t55.5 -16.5q5 0 4.5 -3t-5.5 -3
q-30 3 -49 3h-52q-17 0 -50 -3q-5 0 -5 3t5 3q39 2 55.5 16.5t16.5 54.5v596q-13 14 -27 20t-37 7q-5 0 -4.5 3t5.5 3q30 -3 49 -3h51q7 0 11.5 -2.5t7.5 -6.5l445 -559q1 -1 3 -4t5 -3q4 0 4 7v493q0 40 -17 55t-55 17q-5 0 -5.5 2.5t3.5 2.5q12 0 21 -1l30 -1h52l50 2
q5 1 5.5 -2zM133 634l-26 31z" />
    <glyph glyph-name="eng" unicode="&#x14b;" horiz-adv-x="570" 
d="M435.5 409.5q44.5 -49.5 44.5 -145.5v-155q0 -77 -34 -126t-78 -71t-76 -24q-7 -1 -7 2t6 4q32 5 60.5 19t52 57.5t23.5 125.5v166q0 86 -34.5 128t-99.5 42q-59 0 -100.5 -42.5t-41.5 -146.5v-182q0 -29 16 -42t44 -15q4 0 4 -3t-4 -3q-19 1 -85 1t-87 -1q-4 0 -4 3.5
t4 3.5q31 0 45 11.5t14 45.5v300q0 24 -8.5 35t-28.5 11q-9 0 -23 -3q-3 -1 -4 1.5t1 3.5q83 20 115 42q4 3 7 1.5t3 -3.5q-4 -27 -6.5 -50.5t-2.5 -54.5v-26q14 62 58.5 101t103.5 39q78 0 122.5 -49.5z" />
    <glyph glyph-name="Omacron" unicode="&#x14c;" horiz-adv-x="807" 
d="M207 32q-76 45 -118.5 124.5t-42.5 180.5q0 97 48 183.5t134.5 139t194.5 52.5q97 0 174 -45.5t120.5 -124.5t43.5 -177q0 -99 -49 -186t-136.5 -139.5t-197.5 -52.5q-95 0 -171 45zM631 93.5q77 83.5 77 231.5q0 94 -43.5 178t-118 135t-163.5 51q-88 0 -152 -37
t-98 -106t-34 -163q0 -96 42 -182t115 -138.5t162 -52.5q136 0 213 83.5zM282 762q-8 0 -8 4q0 3 8 3h243q3 0 5.5 -1t2.5 -2q0 -4 -8 -4h-243z" />
    <glyph glyph-name="omacron" unicode="&#x14d;" horiz-adv-x="531" 
d="M140 15.5q-50 28.5 -79.5 80t-29.5 118.5q0 65 32.5 120.5t89.5 89t126 33.5q60 0 111 -28.5t80.5 -80t29.5 -116.5t-33 -121.5t-90.5 -90t-126.5 -33.5q-60 0 -110 28.5zM406 54q47 46 47 137q0 60 -26.5 116.5t-73.5 92.5t-103 36q-81 0 -126.5 -45t-45.5 -136
q0 -60 26 -117t71.5 -93.5t99.5 -36.5q84 0 131 46zM144 587q-8 0 -8 4q0 3 8 3h243q3 0 5.5 -1t2.5 -2q0 -4 -8 -4h-243z" />
    <glyph glyph-name="Obreve" unicode="&#x14e;" horiz-adv-x="807" 
d="M207 32q-76 45 -118.5 124.5t-42.5 180.5q0 97 48 183.5t134.5 139t194.5 52.5q97 0 174 -45.5t120.5 -124.5t43.5 -177q0 -99 -49 -186t-136.5 -139.5t-197.5 -52.5q-95 0 -171 45zM631 93.5q77 83.5 77 231.5q0 94 -43.5 178t-118 135t-163.5 51q-88 0 -152 -37
t-98 -106t-34 -163q0 -96 42 -182t115 -138.5t162 -52.5q136 0 213 83.5zM323 858q0 -20 9.5 -45t30.5 -43.5t54 -18.5q55 0 75 37t20 70q0 6 3 6q5 0 5 -5q0 -42 -27 -81.5t-95 -39.5q-43 0 -68.5 22t-36 49.5t-10.5 47.5q0 7 20 7t20 -6z" />
    <glyph glyph-name="obreve" unicode="&#x14f;" horiz-adv-x="531" 
d="M140 15.5q-50 28.5 -79.5 80t-29.5 118.5q0 65 32.5 120.5t89.5 89t126 33.5q60 0 111 -28.5t80.5 -80t29.5 -116.5t-33 -121.5t-90.5 -90t-126.5 -33.5q-60 0 -110 28.5zM406 54q47 46 47 137q0 60 -26.5 116.5t-73.5 92.5t-103 36q-81 0 -126.5 -45t-45.5 -136
q0 -60 26 -117t71.5 -93.5t99.5 -36.5q84 0 131 46zM185 636q0 -20 9.5 -45t30.5 -43.5t54 -18.5q55 0 75 37t20 70q0 6 3 6q5 0 5 -5q0 -42 -27 -81.5t-95 -39.5q-43 0 -68.5 22t-36 49.5t-10.5 47.5q0 7 20 7t20 -6z" />
    <glyph glyph-name="Ohungarumlaut" unicode="&#x150;" horiz-adv-x="807" 
d="M207 32q-76 45 -118.5 124.5t-42.5 180.5q0 97 48 183.5t134.5 139t194.5 52.5q97 0 174 -45.5t120.5 -124.5t43.5 -177q0 -99 -49 -186t-136.5 -139.5t-197.5 -52.5q-95 0 -171 45zM631 93.5q77 83.5 77 231.5q0 94 -43.5 178t-118 135t-163.5 51q-88 0 -152 -37
t-98 -106t-34 -163q0 -96 42 -182t115 -138.5t162 -52.5q136 0 213 83.5zM252 735q-1 3 3 5q40 35 60 62.5t35 56.5q8 16 13 22t14 7l13 1q25 0 25 -9q0 -10 -35 -45t-74.5 -68.5t-47.5 -34.5q-5 0 -6 3zM393 735q-1 3 3 5q40 35 60 62.5t35 56.5q8 16 13 22t14 7l13 1
q25 0 25 -9q0 -10 -35 -45t-74.5 -68.5t-47.5 -34.5q-5 0 -6 3z" />
    <glyph glyph-name="ohungarumlaut" unicode="&#x151;" horiz-adv-x="531" 
d="M140 15.5q-50 28.5 -79.5 80t-29.5 118.5q0 65 32.5 120.5t89.5 89t126 33.5q60 0 111 -28.5t80.5 -80t29.5 -116.5t-33 -121.5t-90.5 -90t-126.5 -33.5q-60 0 -110 28.5zM406 54q47 46 47 137q0 60 -26.5 116.5t-73.5 92.5t-103 36q-81 0 -126.5 -45t-45.5 -136
q0 -60 26 -117t71.5 -93.5t99.5 -36.5q84 0 131 46zM164 519q-1 3 3 5q40 35 60 62.5t35 56.5q8 16 13 22t14 7l13 1q25 0 25 -9q0 -10 -35 -45t-74.5 -68.5t-47.5 -34.5q-5 0 -6 3zM305 519q-1 3 3 5q40 35 60 62.5t35 56.5q8 16 13 22t14 7l13 1q25 0 25 -9q0 -10 -35 -45
t-74.5 -68.5t-47.5 -34.5q-5 0 -6 3z" />
    <glyph glyph-name="OE" unicode="&#x152;" horiz-adv-x="1022" 
d="M993 246q4 0 2 -8q-21 -127 -24 -227q0 -13 -4.5 -16.5t-12.5 -3.5t-42.5 4.5t-117.5 4.5h-268l-22 -2q-81 -9 -138 -9q-90 0 -163 44.5t-115 124t-42 179.5q0 103 47.5 189t133 136t196.5 50q23 0 71 -6t70 -6h214q68 0 119 7l23 2q7 0 10.5 -4t4.5 -16q2 -83 24 -228
q1 -4 -1.5 -4.5t-3.5 3.5q-15 78 -24.5 116t-17 55t-19.5 30q-20 21 -80 27t-208 6q-20 0 -20 -28v-268q2 -23 20 -23q93 0 119 3q16 2 25 8.5t18 26.5t20 62q1 6 3.5 6t1.5 -6q-7 -39 -7 -88q0 -63 12 -132q1 -5 -1.5 -5.5t-3.5 5.5q-17 63 -31.5 85.5t-36.5 25.5
q-26 2 -119 2q-18 0 -20 -24v-298q0 -40 29 -40q152 1 221.5 8.5t90.5 25.5q22 20 34.5 61.5t28.5 137.5q1 7 4 7zM138 197q39 -86 106 -140t148 -54q65 0 87.5 5t32.5 22q8 13 11 35.5t4.5 83.5t1.5 197q0 159 -5 223.5t-20 87.5q-12 18 -34.5 27t-63.5 9
q-154 0 -230.5 -80.5t-76.5 -238.5q0 -91 39 -177z" />
    <glyph glyph-name="oe" unicode="&#x153;" horiz-adv-x="883" 
d="M860 83.5q2 -1.5 1 -4.5q-39 -47 -86 -69t-107 -22q-65 0 -118 35t-78 95q-32 -59 -91 -95t-131 -36q-60 0 -110 28.5t-79.5 80t-29.5 118.5q0 65 32.5 120.5t89.5 89t127 33.5q66 0 119.5 -34t79.5 -92q30 59 86 93t123 34q70 0 116 -41.5t46 -108.5q0 -29 -11 -65
l-101 -2q-159 -2 -238 -5v-4v-3q6 -67 40 -114t81 -70.5t92 -23.5q37 0 77 13t67 49q1 2 3 0.5zM499 255l1 -13q46 1 124 5q118 4 167 5q7 20 7 44q0 37 -17.5 71t-48.5 54.5t-67 20.5q-165 0 -166 -187zM406 54q47 46 47 137q0 60 -26.5 116.5t-73.5 92.5t-103 36
q-81 0 -126.5 -45t-45.5 -136q0 -60 26 -117t71.5 -93.5t99.5 -36.5q84 0 131 46z" />
    <glyph glyph-name="Racute" unicode="&#x154;" horiz-adv-x="629" 
d="M679.5 -85.5q-1.5 -2.5 -6.5 0.5q-112 58 -203.5 170.5t-152.5 269.5l-87 -1q-4 0 -4 3t4 3l54 2q96 4 148 54t52 125q0 78 -48 112.5t-161 38.5l-71 3q-17 1 -25 -7.5t-8 -27.5v-585q0 -40 17 -55t55 -17q6 0 5.5 -3t-5.5 -2l-50 2h-100l-50 -2q-5 -1 -5.5 2t5.5 3
q38 2 55 17t17 55v550q0 40 -17 54.5t-55 16.5q-6 1 -5.5 3.5t5.5 2.5l49 -2l130 1q26 1 72 1q132 0 192 -39.5t60 -122.5q0 -61 -45.5 -109.5t-121.5 -66.5q1 0 1 -2q43 -140 122 -257.5t175 -183.5q4 -4 2.5 -6.5zM221 742q-1 3 3 5q72 43 117 93q13 14 19 18.5t15 4.5
q12 0 23 -3t10 -9q0 -10 -40.5 -36.5t-87 -51.5t-53.5 -25q-5 1 -6 4z" />
    <glyph glyph-name="racute" unicode="&#x155;" horiz-adv-x="391" 
d="M339 447q26 -11 40 -29t10 -37l-30 -121q-1 -7 -4 -5.5t-1 6.5q6 30 6 53q0 53 -26.5 76.5t-74.5 23.5q-62 0 -85 -53t-23 -128v-172q0 -29 16 -42t44 -15q4 0 4 -3t-4 -3q-19 1 -85 1t-87 -1q-4 0 -4 3.5t4 3.5q31 0 45 11.5t14 45.5v300q0 24 -8.5 35t-28.5 11
q-9 0 -23 -3q-3 -1 -4 1.5t1 3.5q83 20 115 42q4 3 7 1.5t3 -3.5q-4 -27 -6.5 -50.5t-2.5 -54.5v-31q36 144 133 144q29 0 55 -11zM155 508q-1 3 3 6q40 35 60 62t35 56q8 16 13 22t14 7l13 1q10 0 17.5 -2.5t7.5 -6.5q0 -10 -35 -45t-74.5 -68.5t-47.5 -34.5q-5 0 -6 3z
" />
    <glyph glyph-name="uni0156" unicode="&#x156;" horiz-adv-x="629" 
d="M679.5 -85.5q-1.5 -2.5 -6.5 0.5q-112 58 -203.5 170.5t-152.5 269.5l-87 -1q-4 0 -4 3t4 3l54 2q96 4 148 54t52 125q0 78 -48 112.5t-161 38.5l-71 3q-17 1 -25 -7.5t-8 -27.5v-585q0 -40 17 -55t55 -17q6 0 5.5 -3t-5.5 -2l-50 2h-100l-50 -2q-5 -1 -5.5 2t5.5 3
q38 2 55 17t17 55v550q0 40 -17 54.5t-55 16.5q-6 1 -5.5 3.5t5.5 2.5l49 -2l130 1q26 1 72 1q132 0 192 -39.5t60 -122.5q0 -61 -45.5 -109.5t-121.5 -66.5q1 0 1 -2q43 -140 122 -257.5t175 -183.5q4 -4 2.5 -6.5zM266 -217q-1 2 3 5q46 34 46 78q0 7 -6 9.5t-21 4.5
q-18 1 -27.5 5.5t-9.5 17.5q0 12 14.5 21.5t34.5 9.5q23 0 32.5 -11.5t9.5 -26.5q0 -31 -21.5 -62.5t-49.5 -50.5q-4 -2 -5 0z" />
    <glyph glyph-name="uni0157" unicode="&#x157;" horiz-adv-x="391" 
d="M339 447q26 -11 40 -29t10 -37l-30 -121q-1 -7 -4 -5.5t-1 6.5q6 30 6 53q0 53 -26.5 76.5t-74.5 23.5q-62 0 -85 -53t-23 -128v-172q0 -29 16 -42t44 -15q4 0 4 -3t-4 -3q-19 1 -85 1t-87 -1q-4 0 -4 3.5t4 3.5q31 0 45 11.5t14 45.5v300q0 24 -8.5 35t-28.5 11
q-9 0 -23 -3q-3 -1 -4 1.5t1 3.5q83 20 115 42q4 3 7 1.5t3 -3.5q-4 -27 -6.5 -50.5t-2.5 -54.5v-31q36 144 133 144q29 0 55 -11zM138 -217q-1 2 3 5q46 34 46 78q0 7 -6 9.5t-21 4.5q-18 1 -27.5 5.5t-9.5 17.5q0 12 14.5 21.5t34.5 9.5q23 0 32.5 -11.5t9.5 -26.5
q0 -31 -21.5 -62.5t-49.5 -50.5q-4 -2 -5 0z" />
    <glyph glyph-name="Rcaron" unicode="&#x158;" horiz-adv-x="629" 
d="M679.5 -85.5q-1.5 -2.5 -6.5 0.5q-112 58 -203.5 170.5t-152.5 269.5l-87 -1q-4 0 -4 3t4 3l54 2q96 4 148 54t52 125q0 78 -48 112.5t-161 38.5l-71 3q-17 1 -25 -7.5t-8 -27.5v-585q0 -40 17 -55t55 -17q6 0 5.5 -3t-5.5 -2l-50 2h-100l-50 -2q-5 -1 -5.5 2t5.5 3
q38 2 55 17t17 55v550q0 40 -17 54.5t-55 16.5q-6 1 -5.5 3.5t5.5 2.5l49 -2l130 1q26 1 72 1q132 0 192 -39.5t60 -122.5q0 -61 -45.5 -109.5t-121.5 -66.5q1 0 1 -2q43 -140 122 -257.5t175 -183.5q4 -4 2.5 -6.5zM447 862q1 -3 -3 -5q-41 -19 -62 -39.5t-39 -48.5
q-11 -17 -18.5 -23.5t-19.5 -6.5t-19.5 7t-18.5 23q-16 25 -37.5 46.5t-62.5 41.5q-4 2 -3 5t5 3q21 -1 68 -32t68 -60q21 29 68.5 60t68.5 32q4 0 5 -3z" />
    <glyph glyph-name="rcaron" unicode="&#x159;" horiz-adv-x="391" 
d="M339 447q26 -11 40 -29t10 -37l-30 -121q-1 -7 -4 -5.5t-1 6.5q6 30 6 53q0 53 -26.5 76.5t-74.5 23.5q-62 0 -85 -53t-23 -128v-172q0 -29 16 -42t44 -15q4 0 4 -3t-4 -3q-19 1 -85 1t-87 -1q-4 0 -4 3.5t4 3.5q31 0 45 11.5t14 45.5v300q0 24 -8.5 35t-28.5 11
q-9 0 -23 -3q-3 -1 -4 1.5t1 3.5q83 20 115 42q4 3 7 1.5t3 -3.5q-4 -27 -6.5 -50.5t-2.5 -54.5v-31q36 144 133 144q29 0 55 -11zM331 651.5q1 -3.5 -3 -5.5q-41 -22 -61.5 -46t-39.5 -57q-11 -20 -18.5 -28t-19.5 -8t-19.5 8t-18.5 27q-16 30 -37.5 55.5t-62.5 48.5
q-4 2 -3 5.5t5 3.5q21 -1 68 -38t68 -70q14 22 41.5 47.5t54.5 43t41 17.5q4 0 5 -3.5z" />
    <glyph glyph-name="Sacute" unicode="&#x15a;" horiz-adv-x="617" 
d="M107 273q2 9 5 9q1 0 2 -3t0 -8q-4 -32 -4 -66q0 -108 50 -154t157 -46q75 0 131.5 30.5t56.5 120.5q0 70 -52 114.5t-148 87.5q-99 45 -149 87t-50 102q1 39 28.5 77t81.5 63t129 25q48 0 92.5 -14.5t73 -41t28.5 -60.5q0 -6 -2 -16l-28 -143q-1 -7 -4 -7q-4 0 -3 9
q8 51 8 86q0 86 -43.5 127.5t-137.5 41.5q-95 0 -132.5 -30.5t-37.5 -92.5q0 -38 22.5 -66t58.5 -49t99 -50q69 -31 114 -57.5t75.5 -67.5t30.5 -97q0 -52 -32 -97t-90.5 -72.5t-134.5 -27.5q-67 0 -118 19.5t-78 50.5t-27 65q0 10 1 15zM236 742q-1 3 3 5q72 43 117 93
q13 14 19 18.5t15 4.5q12 0 23 -3t10 -9q0 -10 -40.5 -36.5t-87 -51.5t-53.5 -25q-5 1 -6 4z" />
    <glyph glyph-name="sacute" unicode="&#x15b;" horiz-adv-x="406" 
d="M50 168q1 4 3.5 3.5t2.5 -4.5q-2 -24 -2 -32q0 -70 36 -100.5t108 -30.5q60 0 93.5 18.5t33.5 65.5q-1 42 -33 69t-110 64q-69 34 -101.5 59t-32.5 61q0 28 21.5 55.5t60 44.5t85.5 17q59 0 104 -16t45 -48q0 -6 -1 -9l-22 -97q-1 -4 -3.5 -3.5t-1.5 4.5q2 24 2 34
q0 61 -30 88.5t-104 27.5q-63 0 -86.5 -18t-23.5 -49q0 -32 30 -54t100 -57q70 -32 111 -65.5t41 -78.5q0 -33 -23.5 -63t-66.5 -48.5t-98 -18.5q-74 0 -118.5 22.5t-38.5 57.5zM161 508q-1 3 3 6q40 35 60 62t35 56q8 16 13 22t14 7l13 1q10 0 17.5 -2.5t7.5 -6.5
q0 -10 -35 -45t-74.5 -68.5t-47.5 -34.5q-5 0 -6 3z" />
    <glyph glyph-name="Scircumflex" unicode="&#x15c;" horiz-adv-x="617" 
d="M107 273q2 9 5 9q1 0 2 -3t0 -8q-4 -32 -4 -66q0 -108 50 -154t157 -46q75 0 131.5 30.5t56.5 120.5q0 70 -52 114.5t-148 87.5q-99 45 -149 87t-50 102q1 39 28.5 77t81.5 63t129 25q48 0 92.5 -14.5t73 -41t28.5 -60.5q0 -6 -2 -16l-28 -143q-1 -7 -4 -7q-4 0 -3 9
q8 51 8 86q0 86 -43.5 127.5t-137.5 41.5q-95 0 -132.5 -30.5t-37.5 -92.5q0 -38 22.5 -66t58.5 -49t99 -50q69 -31 114 -57.5t75.5 -67.5t30.5 -97q0 -52 -32 -97t-90.5 -72.5t-134.5 -27.5q-67 0 -118 19.5t-78 50.5t-27 65q0 10 1 15zM473 739q0 -3 -5 -3q-23 1 -73.5 33
t-73.5 61q-23 -29 -74 -61t-74 -33q-4 0 -5 3t3 5q45 20 68.5 42t40.5 49q12 17 19.5 23.5t20.5 6.5t20.5 -6.5t20.5 -24.5q19 -27 41.5 -48.5t66.5 -41.5q4 -2 4 -5z" />
    <glyph glyph-name="scircumflex" unicode="&#x15d;" horiz-adv-x="406" 
d="M50 168q1 4 3.5 3.5t2.5 -4.5q-2 -24 -2 -32q0 -70 36 -100.5t108 -30.5q60 0 93.5 18.5t33.5 65.5q-1 42 -33 69t-110 64q-69 34 -101.5 59t-32.5 61q0 28 21.5 55.5t60 44.5t85.5 17q59 0 104 -16t45 -48q0 -6 -1 -9l-22 -97q-1 -4 -3.5 -3.5t-1.5 4.5q2 24 2 34
q0 61 -30 88.5t-104 27.5q-63 0 -86.5 -18t-23.5 -49q0 -32 30 -54t100 -57q70 -32 111 -65.5t41 -78.5q0 -33 -23.5 -63t-66.5 -48.5t-98 -18.5q-74 0 -118.5 22.5t-38.5 57.5zM337 513.5q-1 -3.5 -5 -3.5q-21 1 -67.5 37.5t-68.5 69.5q-14 -22 -41.5 -47t-55 -42.5
t-40.5 -17.5q-4 0 -5 3t3 5q41 23 61.5 47t39.5 57q10 19 17.5 27t19.5 8q13 0 20.5 -8t18.5 -28q18 -31 38.5 -55t61.5 -47q4 -2 3 -5.5z" />
    <glyph glyph-name="Scedilla" unicode="&#x15e;" horiz-adv-x="617" 
d="M529.5 90q-29.5 -44 -84.5 -72t-127 -31q-14 -25 -24 -50q50 -15 75 -35.5t25 -42.5q0 -21 -19 -35t-53 -14q-32 0 -59 10.5t-29 28.5q0 4 6 13t11 9q3 0 15.5 -14t29.5 -24.5t43 -10.5q20 0 31 7t11 17q-1 16 -30 35t-79 30l37 76h-7q-67 0 -118 19.5t-78 50.5t-27 65
q0 10 1 15l27 136q2 9 5 9q1 0 2 -3t0 -8q-4 -32 -4 -66q0 -108 50 -154t157 -46q75 0 131.5 30.5t56.5 120.5q0 70 -52 114.5t-148 87.5q-99 45 -149 87t-50 102q1 39 28.5 77t81.5 63t129 25q48 0 92.5 -14.5t73 -41t28.5 -60.5q0 -6 -2 -16l-28 -143q-1 -7 -4 -7
q-4 0 -3 9q8 51 8 86q0 86 -43.5 127.5t-137.5 41.5q-95 0 -132.5 -30.5t-37.5 -92.5q0 -38 22.5 -66t58.5 -49t99 -50q69 -31 114 -57.5t75.5 -67.5t30.5 -97q0 -50 -29.5 -94z" />
    <glyph glyph-name="scedilla" unicode="&#x15f;" horiz-adv-x="406" 
d="M353 55q-23 -30 -65.5 -49t-96.5 -19q-12 -19 -23 -49q50 -15 75 -35.5t25 -42.5q0 -21 -19 -35.5t-53 -14.5q-32 0 -59 10.5t-29 28.5q0 5 6 13.5t11 8.5q3 0 15.5 -14t29.5 -24.5t43 -10.5q20 0 31 7t11 17q-1 16 -30.5 35.5t-78.5 30.5l36 75q-72 1 -114.5 23.5
t-36.5 56.5l19 101q1 4 3.5 3.5t2.5 -4.5q-2 -24 -2 -32q0 -70 36 -100.5t108 -30.5q60 0 93.5 18.5t33.5 65.5q-1 42 -33 69t-110 64q-69 34 -101.5 59t-32.5 61q0 28 21.5 55.5t60 44.5t85.5 17q59 0 104 -16t45 -48q0 -6 -1 -9l-22 -97q-1 -4 -3.5 -3.5t-1.5 4.5
q2 24 2 34q0 61 -30 88.5t-104 27.5q-63 0 -86.5 -18t-23.5 -49q0 -32 30 -54t100 -57q70 -32 111 -65.5t41 -78.5q0 -32 -23 -62z" />
    <glyph glyph-name="Scaron" unicode="&#x160;" horiz-adv-x="617" 
d="M107 273q2 9 5 9q1 0 2 -3t0 -8q-4 -32 -4 -66q0 -108 50 -154t157 -46q75 0 131.5 30.5t56.5 120.5q0 70 -52 114.5t-148 87.5q-99 45 -149 87t-50 102q1 39 28.5 77t81.5 63t129 25q48 0 92.5 -14.5t73 -41t28.5 -60.5q0 -6 -2 -16l-28 -143q-1 -7 -4 -7q-4 0 -3 9
q8 51 8 86q0 86 -43.5 127.5t-137.5 41.5q-95 0 -132.5 -30.5t-37.5 -92.5q0 -38 22.5 -66t58.5 -49t99 -50q69 -31 114 -57.5t75.5 -67.5t30.5 -97q0 -52 -32 -97t-90.5 -72.5t-134.5 -27.5q-67 0 -118 19.5t-78 50.5t-27 65q0 10 1 15zM462 862q1 -3 -3 -5
q-41 -19 -62 -39.5t-39 -48.5q-11 -17 -18.5 -23.5t-19.5 -6.5t-19.5 7t-18.5 23q-16 25 -37.5 46.5t-62.5 41.5q-4 2 -3 5t5 3q21 -1 68 -32t68 -60q21 29 68.5 60t68.5 32q4 0 5 -3z" />
    <glyph glyph-name="scaron" unicode="&#x161;" horiz-adv-x="406" 
d="M50 168q1 4 3.5 3.5t2.5 -4.5q-2 -24 -2 -32q0 -70 36 -100.5t108 -30.5q60 0 93.5 18.5t33.5 65.5q-1 42 -33 69t-110 64q-69 34 -101.5 59t-32.5 61q0 28 21.5 55.5t60 44.5t85.5 17q59 0 104 -16t45 -48q0 -6 -1 -9l-22 -97q-1 -4 -3.5 -3.5t-1.5 4.5q2 24 2 34
q0 61 -30 88.5t-104 27.5q-63 0 -86.5 -18t-23.5 -49q0 -32 30 -54t100 -57q70 -32 111 -65.5t41 -78.5q0 -33 -23.5 -63t-66.5 -48.5t-98 -18.5q-74 0 -118.5 22.5t-38.5 57.5zM337 651.5q1 -3.5 -3 -5.5q-41 -22 -61.5 -46t-39.5 -57q-11 -20 -18.5 -28t-19.5 -8t-19.5 8
t-18.5 27q-16 30 -37.5 55.5t-62.5 48.5q-4 2 -3 5.5t5 3.5q21 -1 68 -38t68 -70q14 22 41.5 47.5t54.5 43t41 17.5q4 0 5 -3.5z" />
    <glyph glyph-name="uni0162" unicode="&#x162;" horiz-adv-x="643" 
d="M621 462.5q-3 -0.5 -4 4.5q-21 110 -37 153t-39 57q-21 17 -168 17q-9 0 -16.5 -8t-7.5 -27v-584q0 -40 25 -55t82 -17q8 0 8 -3q0 -1 -2.5 -2t-5.5 -1q-48 3 -73 3h-124q-27 0 -72 -3q-3 0 -5.5 1t-2.5 2q0 3 8 3q57 2 81.5 17t24.5 55v584q0 19 -7 27t-16 8
q-147 0 -168 -17q-23 -14 -40 -59.5t-36 -150.5q-2 -5 -4.5 -4.5t-1.5 5.5q18 134 21 221q0 20 15 20q6 0 40 -4.5t197 -4.5h56q163 0 197.5 4.5t40.5 4.5q15 0 15 -20q2 -88 21 -221q1 -5 -2 -5.5zM266 -179.5q-27 10.5 -29 28.5q0 5 6 13.5t11 8.5q3 0 15.5 -14
t29.5 -24.5t43 -10.5q20 0 31 7t11 17q-1 16 -30.5 35.5t-78.5 30.5l42 88h10q-10 -16 -16.5 -30t-13.5 -32q50 -15 75 -35.5t25 -42.5q0 -21 -19 -35.5t-53 -14.5q-32 0 -59 10.5z" />
    <glyph glyph-name="uni0163" unicode="&#x163;" horiz-adv-x="276" 
d="M269 76q2 -1 -1 -6q-26 -41 -55.5 -61.5t-57.5 -20.5q-12 -20 -23 -50q50 -15 75 -35.5t25 -42.5q0 -21 -19 -35.5t-53 -14.5q-32 0 -59 10.5t-29 28.5q0 5 6 13.5t11 8.5q3 0 15.5 -14t29.5 -24.5t43 -10.5q20 0 31 7t11 17q-1 16 -30.5 35.5t-78.5 30.5l36 76
q-29 4 -47 28.5t-18 64.5v331q0 14 -3.5 20t-17.5 6h-34q-4 0 -4 2.5t3 3.5q48 9 75 37.5t33 79.5q0 5 3 5t3 -5q0 -43 -4 -98v-4q0 -9 5 -12t19 -3h101q2 0 1 -3t-4 -3h-93q-18 0 -24 -5.5t-6 -21.5v-320q0 -32 15 -51.5t38 -19.5q19 0 39 13t38 39q3 5 5 4z" />
    <glyph glyph-name="Tcaron" unicode="&#x164;" horiz-adv-x="643" 
d="M621 462.5q-3 -0.5 -4 4.5q-21 110 -37 153t-39 57q-21 17 -168 17q-9 0 -16.5 -8t-7.5 -27v-584q0 -40 25 -55t82 -17q8 0 8 -3q0 -1 -2.5 -2t-5.5 -1q-48 3 -73 3h-124q-27 0 -72 -3q-3 0 -5.5 1t-2.5 2q0 3 8 3q57 2 81.5 17t24.5 55v584q0 19 -7 27t-16 8
q-147 0 -168 -17q-23 -14 -40 -59.5t-36 -150.5q-2 -5 -4.5 -4.5t-1.5 5.5q18 134 21 221q0 20 15 20q6 0 40 -4.5t197 -4.5h56q163 0 197.5 4.5t40.5 4.5q15 0 15 -20q2 -88 21 -221q1 -5 -2 -5.5zM463 862q1 -3 -3 -5q-41 -19 -62 -39.5t-39 -48.5q-11 -17 -18.5 -23.5
t-19.5 -6.5t-19.5 7t-18.5 23q-16 25 -37.5 46.5t-62.5 41.5q-4 2 -3 5t5 3q21 -1 68 -32t68 -60q21 29 68.5 60t68.5 32q4 0 5 -3z" />
    <glyph glyph-name="tcaron" unicode="&#x165;" horiz-adv-x="276" 
d="M101.5 13q-20.5 25 -20.5 68v331q0 14 -3.5 20t-17.5 6h-34q-4 0 -4 2.5t3 3.5q48 9 75 37.5t33 79.5q0 5 3 5t3 -5q0 -43 -4 -98v-4q0 -9 5 -12t19 -3h101q2 0 1 -3t-4 -3h-93q-18 0 -24 -5.5t-6 -21.5v-320q0 -32 15 -51.5t38 -19.5q19 0 39 13t38 39q3 5 5 4t-1 -6
q-26 -41 -55.5 -61.5t-57.5 -20.5q-33 0 -53.5 25zM259.5 463q-2.5 0 -3.5 4q-1 67 -14 130q-5 20 -5 29q0 15 4.5 20.5t17.5 5.5q14 0 18.5 -5.5t4.5 -21.5q0 -9 -5 -29q-6 -30 -10 -57t-5 -72q0 -4 -2.5 -4z" />
    <glyph glyph-name="Tbar" unicode="&#x166;" horiz-adv-x="643" 
d="M621 462.5q-3 -0.5 -4 4.5q-21 110 -37 153t-39 57q-21 17 -168 17q-9 0 -16.5 -8t-7.5 -27v-306h145q5 0 5 -3.5t-5 -3.5h-145v-271q0 -40 25 -55t82 -17q8 0 8 -3q0 -1 -2.5 -2t-5.5 -1q-48 3 -73 3h-124q-27 0 -72 -3q-3 0 -5.5 1t-2.5 2q0 3 8 3q57 2 81.5 17
t24.5 55v271h-145q-4 0 -4 3.5t4 3.5h145v306q0 19 -7 27t-16 8q-147 0 -168 -17q-23 -14 -40 -59.5t-36 -150.5q-2 -5 -4.5 -4.5t-1.5 5.5q18 134 21 221q0 20 15 20q6 0 40 -4.5t197 -4.5h56q163 0 197.5 4.5t40.5 4.5q15 0 15 -20q2 -88 21 -221q1 -5 -2 -5.5z" />
    <glyph glyph-name="tbar" unicode="&#x167;" horiz-adv-x="276" 
d="M269 76q2 -1 -1 -6q-26 -41 -55.5 -61.5t-57.5 -20.5q-33 0 -53.5 25t-20.5 68v170h-76q-8 0 -8 4q0 3 8 3h76v154q0 14 -3.5 20t-17.5 6h-34q-4 0 -4 2.5t3 3.5q48 9 75 37.5t33 79.5q0 5 3 5t3 -5q0 -43 -4 -98v-4q0 -9 5 -12t19 -3h101q2 0 1 -3t-4 -3h-93
q-18 0 -24 -5.5t-6 -21.5v-153h122q8 0 8 -3q0 -4 -8 -4h-122v-160q0 -32 15 -51.5t38 -19.5q19 0 39 13t38 39q3 5 5 4z" />
    <glyph glyph-name="Utilde" unicode="&#x168;" horiz-adv-x="706" 
d="M222 23.5q-61 36.5 -94.5 103t-33.5 155.5v343q0 40 -13.5 55t-45.5 17q-4 0 -4.5 2.5t3.5 2.5q6 0 18 -1t24 -1h102q20 0 59 3q6 0 6.5 -3t-6.5 -3q-46 -2 -66.5 -17t-20.5 -55v-344q0 -80 28 -139.5t80.5 -92t124.5 -32.5q71 0 124 33t82 93.5t29 139.5v342
q0 40 -20.5 55t-66.5 17q-6 0 -5.5 3t5.5 3q39 -3 60 -3h50l40 2q4 1 4 -2t-4 -3q-31 -2 -44 -16.5t-13 -55.5l1 -341q0 -90 -32 -157t-91 -103.5t-138 -36.5q-81 0 -142 36.5zM225 749q-3 1 -1 5q25 73 83 73q27 0 62 -15l37 -16q29 -13 49 -13q40 0 59 45q2 4 5 3.5
t1 -5.5q-14 -38 -34 -56t-48 -18q-27 0 -61 15l-37 17q-40 17 -60 17q-19 0 -30 -11.5t-20 -36.5q-2 -5 -5 -4z" />
    <glyph glyph-name="utilde" unicode="&#x169;" horiz-adv-x="517" 
d="M522 136q3 0 3 -5q0 -62 -17 -101t-57 -39q-29 0 -45.5 22t-16.5 65v59q-11 -67 -55.5 -108.5t-106.5 -41.5q-72 0 -115.5 49t-43.5 145v181q0 24 -8.5 35t-28.5 11q-10 0 -23 -3q-3 -1 -4 1.5t1 3.5q83 20 114 42q5 3 8 1.5t3 -3.5q-4 -27 -6.5 -50.5t-2.5 -54.5v-161
q0 -171 131 -171q62 0 99.5 47.5t37.5 140.5v161q0 24 -8.5 35t-28.5 11q-10 0 -23 -3q-3 -1 -4.5 1.5t0.5 3.5q33 8 65.5 19t49.5 23q5 3 7.5 1.5t2.5 -3.5q-5 -31 -6.5 -51.5t-1.5 -53.5v-257q0 -31 7.5 -46t24.5 -15q29 0 37 26.5t8 77.5q0 5 3 5zM118 548q-3 1 -1 5
q25 73 83 73q27 0 62 -15l37 -16q29 -13 49 -13q40 0 59 45q2 4 5 3.5t1 -5.5q-14 -38 -34 -56t-48 -18q-27 0 -61 15l-37 17q-40 17 -60 17q-19 0 -30 -11.5t-20 -36.5q-2 -5 -5 -4z" />
    <glyph glyph-name="Umacron" unicode="&#x16a;" horiz-adv-x="706" 
d="M222 23.5q-61 36.5 -94.5 103t-33.5 155.5v343q0 40 -13.5 55t-45.5 17q-4 0 -4.5 2.5t3.5 2.5q6 0 18 -1t24 -1h102q20 0 59 3q6 0 6.5 -3t-6.5 -3q-46 -2 -66.5 -17t-20.5 -55v-344q0 -80 28 -139.5t80.5 -92t124.5 -32.5q71 0 124 33t82 93.5t29 139.5v342
q0 40 -20.5 55t-66.5 17q-6 0 -5.5 3t5.5 3q39 -3 60 -3h50l40 2q4 1 4 -2t-4 -3q-31 -2 -44 -16.5t-13 -55.5l1 -341q0 -90 -32 -157t-91 -103.5t-138 -36.5q-81 0 -142 36.5zM250 762q-8 0 -8 4q0 3 8 3h243q3 0 5.5 -1t2.5 -2q0 -4 -8 -4h-243z" />
    <glyph glyph-name="umacron" unicode="&#x16b;" horiz-adv-x="517" 
d="M522 136q3 0 3 -5q0 -62 -17 -101t-57 -39q-29 0 -45.5 22t-16.5 65v59q-11 -67 -55.5 -108.5t-106.5 -41.5q-72 0 -115.5 49t-43.5 145v181q0 24 -8.5 35t-28.5 11q-10 0 -23 -3q-3 -1 -4 1.5t1 3.5q83 20 114 42q5 3 8 1.5t3 -3.5q-4 -27 -6.5 -50.5t-2.5 -54.5v-161
q0 -171 131 -171q62 0 99.5 47.5t37.5 140.5v161q0 24 -8.5 35t-28.5 11q-10 0 -23 -3q-3 -1 -4.5 1.5t0.5 3.5q33 8 65.5 19t49.5 23q5 3 7.5 1.5t2.5 -3.5q-5 -31 -6.5 -51.5t-1.5 -53.5v-257q0 -31 7.5 -46t24.5 -15q29 0 37 26.5t8 77.5q0 5 3 5zM143 587q-8 0 -8 4
q0 3 8 3h243q3 0 5.5 -1t2.5 -2q0 -4 -8 -4h-243z" />
    <glyph glyph-name="Ubreve" unicode="&#x16c;" horiz-adv-x="706" 
d="M222 23.5q-61 36.5 -94.5 103t-33.5 155.5v343q0 40 -13.5 55t-45.5 17q-4 0 -4.5 2.5t3.5 2.5q6 0 18 -1t24 -1h102q20 0 59 3q6 0 6.5 -3t-6.5 -3q-46 -2 -66.5 -17t-20.5 -55v-344q0 -80 28 -139.5t80.5 -92t124.5 -32.5q71 0 124 33t82 93.5t29 139.5v342
q0 40 -20.5 55t-66.5 17q-6 0 -5.5 3t5.5 3q39 -3 60 -3h50l40 2q4 1 4 -2t-4 -3q-31 -2 -44 -16.5t-13 -55.5l1 -341q0 -90 -32 -157t-91 -103.5t-138 -36.5q-81 0 -142 36.5zM291 858q0 -20 9.5 -45t30.5 -43.5t54 -18.5q55 0 75 37t20 70q0 6 3 6q5 0 5 -5
q0 -42 -27 -81.5t-95 -39.5q-43 0 -68.5 22t-36 49.5t-10.5 47.5q0 7 20 7t20 -6z" />
    <glyph glyph-name="ubreve" unicode="&#x16d;" horiz-adv-x="517" 
d="M522 136q3 0 3 -5q0 -62 -17 -101t-57 -39q-29 0 -45.5 22t-16.5 65v59q-11 -67 -55.5 -108.5t-106.5 -41.5q-72 0 -115.5 49t-43.5 145v181q0 24 -8.5 35t-28.5 11q-10 0 -23 -3q-3 -1 -4 1.5t1 3.5q83 20 114 42q5 3 8 1.5t3 -3.5q-4 -27 -6.5 -50.5t-2.5 -54.5v-161
q0 -171 131 -171q62 0 99.5 47.5t37.5 140.5v161q0 24 -8.5 35t-28.5 11q-10 0 -23 -3q-3 -1 -4.5 1.5t0.5 3.5q33 8 65.5 19t49.5 23q5 3 7.5 1.5t2.5 -3.5q-5 -31 -6.5 -51.5t-1.5 -53.5v-257q0 -31 7.5 -46t24.5 -15q29 0 37 26.5t8 77.5q0 5 3 5zM184 636q0 -20 9.5 -45
t30.5 -43.5t54 -18.5q55 0 75 37t20 70q0 6 3 6q5 0 5 -5q0 -42 -27 -81.5t-95 -39.5q-43 0 -68.5 22t-36 49.5t-10.5 47.5q0 7 20 7t20 -6z" />
    <glyph glyph-name="Uring" unicode="&#x16e;" horiz-adv-x="706" 
d="M222 23.5q-61 36.5 -94.5 103t-33.5 155.5v343q0 40 -13.5 55t-45.5 17q-4 0 -4.5 2.5t3.5 2.5q6 0 18 -1t24 -1h102q20 0 59 3q6 0 6.5 -3t-6.5 -3q-46 -2 -66.5 -17t-20.5 -55v-344q0 -80 28 -139.5t80.5 -92t124.5 -32.5q71 0 124 33t82 93.5t29 139.5v342
q0 40 -20.5 55t-66.5 17q-6 0 -5.5 3t5.5 3q39 -3 60 -3h50l40 2q4 1 4 -2t-4 -3q-31 -2 -44 -16.5t-13 -55.5l1 -341q0 -90 -32 -157t-91 -103.5t-138 -36.5q-81 0 -142 36.5zM309.5 738.5q-22.5 18.5 -22.5 48.5q0 28 24 50t58 22q33 0 57.5 -18.5t24.5 -47.5t-25.5 -51
t-61.5 -22q-32 0 -54.5 18.5zM429 777q0 27 -20.5 49t-49.5 22q-23 0 -36 -10t-13 -36q0 -27 20.5 -49t49.5 -22q49 0 49 46z" />
    <glyph glyph-name="uring" unicode="&#x16f;" horiz-adv-x="517" 
d="M522 136q3 0 3 -5q0 -62 -17 -101t-57 -39q-29 0 -45.5 22t-16.5 65v59q-11 -67 -55.5 -108.5t-106.5 -41.5q-72 0 -115.5 49t-43.5 145v181q0 24 -8.5 35t-28.5 11q-10 0 -23 -3q-3 -1 -4 1.5t1 3.5q83 20 114 42q5 3 8 1.5t3 -3.5q-4 -27 -6.5 -50.5t-2.5 -54.5v-161
q0 -171 131 -171q62 0 99.5 47.5t37.5 140.5v161q0 24 -8.5 35t-28.5 11q-10 0 -23 -3q-3 -1 -4.5 1.5t0.5 3.5q33 8 65.5 19t49.5 23q5 3 7.5 1.5t2.5 -3.5q-5 -31 -6.5 -51.5t-1.5 -53.5v-257q0 -31 7.5 -46t24.5 -15q29 0 37 26.5t8 77.5q0 5 3 5zM207 515q-23 21 -23 55
q0 32 25.5 57t60.5 25q33 0 57.5 -21t24.5 -54t-26 -58t-63 -25q-33 0 -56 21zM329 559q0 31 -21 56t-50 25q-23 0 -36.5 -12t-13.5 -41q0 -30 21 -55t51 -25q49 0 49 52z" />
    <glyph glyph-name="Uhungarumlaut" unicode="&#x170;" horiz-adv-x="706" 
d="M222 23.5q-61 36.5 -94.5 103t-33.5 155.5v343q0 40 -13.5 55t-45.5 17q-4 0 -4.5 2.5t3.5 2.5q6 0 18 -1t24 -1h102q20 0 59 3q6 0 6.5 -3t-6.5 -3q-46 -2 -66.5 -17t-20.5 -55v-344q0 -80 28 -139.5t80.5 -92t124.5 -32.5q71 0 124 33t82 93.5t29 139.5v342
q0 40 -20.5 55t-66.5 17q-6 0 -5.5 3t5.5 3q39 -3 60 -3h50l40 2q4 1 4 -2t-4 -3q-31 -2 -44 -16.5t-13 -55.5l1 -341q0 -90 -32 -157t-91 -103.5t-138 -36.5q-81 0 -142 36.5zM221 735q-1 3 3 5q40 35 60 62.5t35 56.5q8 16 13 22t14 7l13 1q25 0 25 -9q0 -10 -35 -45
t-74.5 -68.5t-47.5 -34.5q-5 0 -6 3zM362 735q-1 3 3 5q40 35 60 62.5t35 56.5q8 16 13 22t14 7l13 1q25 0 25 -9q0 -10 -35 -45t-74.5 -68.5t-47.5 -34.5q-5 0 -6 3z" />
    <glyph glyph-name="uhungarumlaut" unicode="&#x171;" horiz-adv-x="517" 
d="M522 136q3 0 3 -5q0 -62 -17 -101t-57 -39q-29 0 -45.5 22t-16.5 65v59q-11 -67 -55.5 -108.5t-106.5 -41.5q-72 0 -115.5 49t-43.5 145v181q0 24 -8.5 35t-28.5 11q-10 0 -23 -3q-3 -1 -4 1.5t1 3.5q83 20 114 42q5 3 8 1.5t3 -3.5q-4 -27 -6.5 -50.5t-2.5 -54.5v-161
q0 -171 131 -171q62 0 99.5 47.5t37.5 140.5v161q0 24 -8.5 35t-28.5 11q-10 0 -23 -3q-3 -1 -4.5 1.5t0.5 3.5q33 8 65.5 19t49.5 23q5 3 7.5 1.5t2.5 -3.5q-5 -31 -6.5 -51.5t-1.5 -53.5v-257q0 -31 7.5 -46t24.5 -15q29 0 37 26.5t8 77.5q0 5 3 5zM163 519q-1 3 3 5
q40 35 60 62.5t35 56.5q8 16 13 22t14 7l13 1q25 0 25 -9q0 -10 -35 -45t-74.5 -68.5t-47.5 -34.5q-5 0 -6 3zM304 519q-1 3 3 5q40 35 60 62.5t35 56.5q8 16 13 22t14 7l13 1q25 0 25 -9q0 -10 -35 -45t-74.5 -68.5t-47.5 -34.5q-5 0 -6 3z" />
    <glyph glyph-name="Uogonek" unicode="&#x172;" horiz-adv-x="706" 
d="M685 700q0 -3 -4 -3q-31 -2 -44 -16.5t-13 -55.5l1 -341q0 -100 -39.5 -171t-109.5 -103q-28 -26 -39 -47.5t-11 -44.5t12 -35.5t32 -12.5q26 0 41 12.5t15 42.5q0 5 2.5 5t2.5 -5q0 -40 -21 -62t-56 -22q-31 0 -49.5 16t-18.5 45q0 28 17.5 51.5t48.5 46.5
q-44 -13 -88 -13q-81 0 -142 36.5t-94.5 103t-33.5 155.5v343q0 40 -13.5 55t-45.5 17q-4 0 -4.5 2.5t3.5 2.5q6 0 18 -1t24 -1h102q20 0 59 3q6 0 6.5 -3t-6.5 -3q-46 -2 -66.5 -17t-20.5 -55v-344q0 -80 28 -139.5t80.5 -92t124.5 -32.5q71 0 124 33t82 93.5t29 139.5v342
q0 40 -20.5 55t-66.5 17q-6 0 -5.5 3t5.5 3q39 -3 60 -3h50l40 2q4 1 4 -2z" />
    <glyph glyph-name="uogonek" unicode="&#x173;" horiz-adv-x="517" 
d="M539.5 -76q2.5 0 2.5 -5q0 -40 -21 -62t-56 -22q-31 0 -49.5 16t-18.5 45q0 27 16.5 50t45.5 45h-8q-29 0 -45.5 22t-16.5 65v59q-11 -67 -55.5 -108.5t-106.5 -41.5q-72 0 -115.5 49t-43.5 145v181q0 24 -8.5 35t-28.5 11q-10 0 -23 -3q-3 -1 -4 1.5t1 3.5q83 20 114 42
q5 3 8 1.5t3 -3.5q-4 -27 -6.5 -50.5t-2.5 -54.5v-161q0 -171 131 -171q62 0 99.5 47.5t37.5 140.5v161q0 24 -8.5 35t-28.5 11q-10 0 -23 -3q-3 -1 -4.5 1.5t0.5 3.5q33 8 65.5 19t49.5 23q5 3 7.5 1.5t2.5 -3.5q-5 -31 -6.5 -51.5t-1.5 -53.5v-257q0 -31 7.5 -46t24.5 -15
q29 0 37 26.5t8 77.5q0 5 3 5t3 -5q0 -106 -43 -132q-26 -24 -35.5 -44t-9.5 -43t12 -35.5t32 -12.5q26 0 41 12.5t15 42.5q0 5 2.5 5z" />
    <glyph glyph-name="Wcircumflex" unicode="&#x174;" horiz-adv-x="1010" 
d="M1005 700q0 -3 -4 -3q-28 -2 -41 -15.5t-27 -54.5l-203 -590l-1 -2q-2 -9 0 -14l3 -6q2 -4 1 -6.5t-4 -3.5l-40 -14q-2 -1 -5 -1q-4 0 -6 5l-172 506l-160 -465q-3 -8 -1 -15l3 -6q3 -8 -3 -10l-41 -14q-8 -4 -10 4l-216 632q-13 40 -26.5 54t-42.5 16q-4 0 -4 3t4 2
l40 -2h103q20 0 56 3q6 0 6.5 -3t-6.5 -3q-37 -2 -56 -11.5t-19 -32.5q0 -13 5 -26l198 -582q2 -3 3.5 -3t2.5 3l153 445q5 15 5 20q0 7 -4 18l1 -1l-34 100q-14 40 -34 54t-61 16q-6 0 -5.5 3t5.5 3q36 -3 57 -3h109l51 2q5 1 5.5 -2t-5.5 -3q-33 -2 -50.5 -11.5
t-17.5 -31.5q0 -10 5 -27l198 -580q1 -4 3 -4t4 3v1l199 580q5 17 5 25q0 23 -20.5 33t-58.5 12q-7 0 -6.5 3t6.5 3q36 -3 58 -3h52l39 2q4 1 4 -2zM658 739q0 -3 -5 -3q-23 1 -73.5 33t-73.5 61q-23 -29 -74 -61t-74 -33q-4 0 -5 3t3 5q45 20 68.5 42t40.5 49
q12 17 19.5 23.5t20.5 6.5t20.5 -6.5t20.5 -24.5q19 -27 41.5 -48.5t66.5 -41.5q4 -2 4 -5z" />
    <glyph glyph-name="wcircumflex" unicode="&#x175;" horiz-adv-x="736" 
d="M731 442q0 -3 -4 -3q-19 0 -30.5 -13t-26.5 -47l-150 -348q-2 -4 0 -10l4 -8q3 -6 -3 -8l-38 -14q-7 -4 -9 4l-105 259l-94 -223q-1 -6 0 -10l4 -8q3 -6 -3 -8l-38 -14q-5 -3 -9 4l-163 384q-15 34 -26.5 47t-30.5 13q-4 0 -4 3t4 3q11 -1 41 -1h61q40 0 54 1q5 0 5 -3
t-5 -3q-48 0 -48 -34q0 -11 6 -26l144 -336q3 -8 6 0l93 218l-48 118q-14 33 -29.5 46.5t-42.5 13.5q-4 0 -4 3t4 3q15 -1 55 -1h63q42 0 58 1q5 0 5 -3t-5 -3q-24 0 -38.5 -8.5t-14.5 -26.5q0 -10 6 -25l136 -335q4 -10 8 0l144 335q6 15 6 25q0 18 -15 26.5t-39 8.5
q-5 0 -5 3t5 3q16 -1 60 -1h11q30 0 41 1q4 0 4 -3zM493 513.5q-1 -3.5 -5 -3.5q-21 1 -67.5 37.5t-68.5 69.5q-14 -22 -41.5 -47t-55 -42.5t-40.5 -17.5q-4 0 -5 3t3 5q41 23 61.5 47t39.5 57q10 19 17.5 27t19.5 8q13 0 20.5 -8t18.5 -28q18 -31 38.5 -55t61.5 -47
q4 -2 3 -5.5z" />
    <glyph glyph-name="Ycircumflex" unicode="&#x176;" horiz-adv-x="614" 
d="M208 -2q-5 -1 -5.5 2t5.5 3q38 2 55 17t17 55l-1 191q0 13 -6 25l-189 339q-23 40 -35.5 52.5t-39.5 14.5q-4 0 -3.5 3t4.5 3q24 -3 39 -3h107q20 0 59 3q6 0 6.5 -3t-6.5 -3q-78 -4 -78 -38q0 -12 9 -29l182 -329q6 -10 12 0l184 329q9 17 9 28q0 35 -79 39q-6 0 -5.5 3
t5.5 3q39 -3 60 -3h52l39 2q4 1 4 -2t-4 -3q-27 -2 -39.5 -14.5t-34.5 -52.5l-189 -338q-7 -11 -7 -26l1 -191q0 -40 16.5 -55t55.5 -17q5 0 5 -3t-5 -2l-50 2h-101zM459 739q0 -3 -5 -3q-23 1 -73.5 33t-73.5 61q-23 -29 -74 -61t-74 -33q-4 0 -5 3t3 5q45 20 68.5 42
t40.5 49q12 17 19.5 23.5t20.5 6.5t20.5 -6.5t20.5 -24.5q19 -27 41.5 -48.5t66.5 -41.5q4 -2 4 -5z" />
    <glyph glyph-name="ycircumflex" unicode="&#x177;" horiz-adv-x="496" 
d="M490 442q0 -3 -3 -3q-19 0 -30.5 -13t-26.5 -47l-169 -389q-49 -106 -88.5 -150.5t-88.5 -44.5q-34 0 -59.5 17t-32.5 43q-1 8 5.5 23t14.5 22.5t9 -1.5q5 -29 26.5 -55.5t54.5 -26.5q38 0 67.5 31t65.5 107q2 4 2 13q0 19 -10 39l-161 372q-15 34 -26.5 47t-30.5 13
q-4 0 -4 3t4 3q11 -1 41 -1h62q51 0 70 1q5 0 5 -3t-5 -3q-65 0 -65 -37q0 -9 6 -23l145 -336q5 -9 9 0l146 336q6 14 6 23q0 37 -65 37q-6 0 -6 3t6 3q19 -1 70 -1h12q30 0 41 1q3 0 3 -3zM390 513.5q-1 -3.5 -5 -3.5q-21 1 -67.5 37.5t-68.5 69.5q-14 -22 -41.5 -47
t-55 -42.5t-40.5 -17.5q-4 0 -5 3t3 5q41 23 61.5 47t39.5 57q10 19 17.5 27t19.5 8q13 0 20.5 -8t18.5 -28q18 -31 38.5 -55t61.5 -47q4 -2 3 -5.5z" />
    <glyph glyph-name="Ydieresis" unicode="&#x178;" horiz-adv-x="614" 
d="M208 -2q-5 -1 -5.5 2t5.5 3q38 2 55 17t17 55l-1 191q0 13 -6 25l-189 339q-23 40 -35.5 52.5t-39.5 14.5q-4 0 -3.5 3t4.5 3q24 -3 39 -3h107q20 0 59 3q6 0 6.5 -3t-6.5 -3q-78 -4 -78 -38q0 -12 9 -29l182 -329q6 -10 12 0l184 329q9 17 9 28q0 35 -79 39q-6 0 -5.5 3
t5.5 3q39 -3 60 -3h52l39 2q4 1 4 -2t-4 -3q-27 -2 -39.5 -14.5t-34.5 -52.5l-189 -338q-7 -11 -7 -26l1 -191q0 -40 16.5 -55t55.5 -17q5 0 5 -3t-5 -2l-50 2h-101zM207 766.5q-10 8.5 -10 20.5q1 13 13 22t30 9q16 0 26 -8t10 -19q0 -13 -12 -23t-31 -10q-16 0 -26 8.5z
M344 766q-10 8 -10 19q0 14 12 23.5t31 9.5q15 0 25 -8t10 -19q0 -13 -11.5 -23t-30.5 -10q-16 0 -26 8z" />
    <glyph glyph-name="Zacute" unicode="&#x179;" horiz-adv-x="648" 
d="M542 -4.5q-15 4.5 -43 4.5h-356q-29 0 -55 -2q-9 -1 -24 -1q-19 0 -19 12q0 8 8 19l470 659q2 4 1 6.5t-5 2.5l-348 -17q-28 -2 -43.5 -14.5t-27.5 -46.5t-26 -106q-1 -5 -4 -4.5t-2 5.5q9 58 12 92t4 84q0 19 15 19q7 0 24.5 -4.5t50.5 -4.5l296 1l51 1q18 1 50 1
q13 0 13 -9q0 -8 -10 -21l-466 -657q-3 -4 -2.5 -7.5t5.5 -3.5l378 16q38 2 62 50t44 168q0 4 3 4t2 -4q-10 -69 -15.5 -129t-5.5 -91v-5q0 -11 -2.5 -16.5t-12.5 -5.5q-7 0 -22 4.5zM233 742q-1 3 3 5q72 43 117 93q13 14 19 18.5t15 4.5q12 0 23 -3t10 -9
q0 -10 -40.5 -36.5t-87 -51.5t-53.5 -25q-5 1 -6 4z" />
    <glyph glyph-name="zacute" unicode="&#x17a;" horiz-adv-x="437" 
d="M376 -2.5q-12 2.5 -32 2.5h-217l-50 -1q-11 -1 -28 -1q-7 0 -9.5 2t-2.5 6q0 7 8 18l293 404q3 5 3 7q0 6 -9 4l-202 -13q-19 -1 -30.5 -8t-21 -28t-16.5 -62q-1 -4 -3 -3.5t-2 3.5q3 39 3 74q0 25 -1 37q0 11 8 11q4 0 15 -3t36 -3h206l38 1q14 1 38 1q8 0 8 -7
q0 -4 -9 -15.5t-12 -16.5q-17 -18 -27 -36l-257 -353q-3 -4 -3 -8q0 -6 9 -5l217 13q26 1 39 11t21 37.5t17 89.5q1 4 3.5 4t1.5 -4q-9 -101 -6 -151q0 -10 -8 -10q-6 0 -18 2.5zM189 508q-1 3 3 6q40 35 60 62t35 56q8 16 13 22t14 7l13 1q10 0 17.5 -2.5t7.5 -6.5
q0 -10 -35 -45t-74.5 -68.5t-47.5 -34.5q-5 0 -6 3z" />
    <glyph glyph-name="Zdotaccent" unicode="&#x17b;" horiz-adv-x="648" 
d="M542 -4.5q-15 4.5 -43 4.5h-356q-29 0 -55 -2q-9 -1 -24 -1q-19 0 -19 12q0 8 8 19l470 659q2 4 1 6.5t-5 2.5l-348 -17q-28 -2 -43.5 -14.5t-27.5 -46.5t-26 -106q-1 -5 -4 -4.5t-2 5.5q9 58 12 92t4 84q0 19 15 19q7 0 24.5 -4.5t50.5 -4.5l296 1l51 1q18 1 50 1
q13 0 13 -9q0 -8 -10 -21l-466 -657q-3 -4 -2.5 -7.5t5.5 -3.5l378 16q38 2 62 50t44 168q0 4 3 4t2 -4q-10 -69 -15.5 -129t-5.5 -91v-5q0 -11 -2.5 -16.5t-12.5 -5.5q-7 0 -22 4.5zM285 761.5q-11 8.5 -11 20.5q0 14 14 24t36 10q18 0 29 -7.5t11 -19.5q0 -15 -14 -25.5
t-36 -10.5q-18 0 -29 8.5z" />
    <glyph glyph-name="zdotaccent" unicode="&#x17c;" horiz-adv-x="437" 
d="M376 -2.5q-12 2.5 -32 2.5h-217l-50 -1q-11 -1 -28 -1q-7 0 -9.5 2t-2.5 6q0 7 8 18l293 404q3 5 3 7q0 6 -9 4l-202 -13q-19 -1 -30.5 -8t-21 -28t-16.5 -62q-1 -4 -3 -3.5t-2 3.5q3 39 3 74q0 25 -1 37q0 11 8 11q4 0 15 -3t36 -3h206l38 1q14 1 38 1q8 0 8 -7
q0 -4 -9 -15.5t-12 -16.5q-17 -18 -27 -36l-257 -353q-3 -4 -3 -8q0 -6 9 -5l217 13q26 1 39 11t21 37.5t17 89.5q1 4 3.5 4t1.5 -4q-9 -101 -6 -151q0 -10 -8 -10q-6 0 -18 2.5zM192.5 544q-10.5 8 -10.5 19q0 13 12 22.5t31 9.5q16 0 26 -8t10 -19q0 -13 -12 -22.5
t-31 -9.5q-15 0 -25.5 8z" />
    <glyph glyph-name="Zcaron" unicode="&#x17d;" horiz-adv-x="648" 
d="M542 -4.5q-15 4.5 -43 4.5h-356q-29 0 -55 -2q-9 -1 -24 -1q-19 0 -19 12q0 8 8 19l470 659q2 4 1 6.5t-5 2.5l-348 -17q-28 -2 -43.5 -14.5t-27.5 -46.5t-26 -106q-1 -5 -4 -4.5t-2 5.5q9 58 12 92t4 84q0 19 15 19q7 0 24.5 -4.5t50.5 -4.5l296 1l51 1q18 1 50 1
q13 0 13 -9q0 -8 -10 -21l-466 -657q-3 -4 -2.5 -7.5t5.5 -3.5l378 16q38 2 62 50t44 168q0 4 3 4t2 -4q-10 -69 -15.5 -129t-5.5 -91v-5q0 -11 -2.5 -16.5t-12.5 -5.5q-7 0 -22 4.5zM459 862q1 -3 -3 -5q-41 -19 -62 -39.5t-39 -48.5q-11 -17 -18.5 -23.5t-19.5 -6.5
t-19.5 7t-18.5 23q-16 25 -37.5 46.5t-62.5 41.5q-4 2 -3 5t5 3q21 -1 68 -32t68 -60q21 29 68.5 60t68.5 32q4 0 5 -3z" />
    <glyph glyph-name="zcaron" unicode="&#x17e;" horiz-adv-x="437" 
d="M376 -2.5q-12 2.5 -32 2.5h-217l-50 -1q-11 -1 -28 -1q-7 0 -9.5 2t-2.5 6q0 7 8 18l293 404q3 5 3 7q0 6 -9 4l-202 -13q-19 -1 -30.5 -8t-21 -28t-16.5 -62q-1 -4 -3 -3.5t-2 3.5q3 39 3 74q0 25 -1 37q0 11 8 11q4 0 15 -3t36 -3h206l38 1q14 1 38 1q8 0 8 -7
q0 -4 -9 -15.5t-12 -16.5q-17 -18 -27 -36l-257 -353q-3 -4 -3 -8q0 -6 9 -5l217 13q26 1 39 11t21 37.5t17 89.5q1 4 3.5 4t1.5 -4q-9 -101 -6 -151q0 -10 -8 -10q-6 0 -18 2.5zM365 651.5q1 -3.5 -3 -5.5q-41 -22 -61.5 -46t-39.5 -57q-11 -20 -18.5 -28t-19.5 -8t-19.5 8
t-18.5 27q-16 30 -37.5 55.5t-62.5 48.5q-4 2 -3 5.5t5 3.5q21 -1 68 -38t68 -70q14 22 41.5 47.5t54.5 43t41 17.5q4 0 5 -3.5z" />
    <glyph glyph-name="uni018F" unicode="&#x18f;" horiz-adv-x="737" 
d="M535.5 667q72.5 -45 114 -124t41.5 -178q0 -98 -48.5 -185t-134.5 -140t-194 -53q-82 0 -142 30t-92.5 85.5t-33.5 128.5q0 59 18 120l573 -4q-5 89 -45.5 164t-107.5 118.5t-148 43.5q-82 0 -140.5 -22t-112.5 -84q-5 -5 -7 -5q-1 0 -1 1q0 3 4 8q116 141 294 141
q90 0 162.5 -45zM561 92.5q77 83.5 77 231.5v18l-517 -11q-12 -48 -12 -91q0 -71 30 -123t84.5 -80t124.5 -28q136 0 213 83.5z" />
    <glyph glyph-name="florin" unicode="&#x192;" horiz-adv-x="635" 
d="M264.5 67q9.5 33 10.5 88q6 95 13 184l1 12q0 22 -15 22h-46q-7 0 -7 4q0 3 3.5 6t7.5 4q24 3 38.5 16t25 47.5t19.5 103.5q9 55 36 92t63 55t73 18q35 0 63 -15.5t38 -42.5q1 -1 1 -4q0 -6 -7 -12t-17.5 -9t-12.5 1q-17 27 -44.5 41.5t-57.5 14.5q-23 0 -43 -9
q-26 -12 -36 -45.5t-13 -88.5l-14 -136q0 -26 22 -26h97q5 0 5 -5q0 -3 -4 -6.5t-11 -3.5h-85q-13 0 -19.5 -7.5t-7.5 -26.5l-15 -162q-3 -41 -19 -77q-24 -56 -69 -84.5t-93 -28.5q-36 0 -63 15.5t-35 42.5q-2 2 -2 5q0 7 7 11q8 7 18 10t14 -1q19 -26 48 -41t58 -15
q23 0 39 8q26 12 35.5 45z" />
    <glyph glyph-name="uni019D" unicode="&#x19d;" horiz-adv-x="720" 
d="M699.5 700q0.5 -3 -5.5 -3q-38 -2 -55 -17t-17 -55v-622v-4.5t-4 -3.5q-6 0 -11 7l-489 647q-3 4 -5 4q-4 0 -4 -4l1 -493v-138q0 -127 -30.5 -179t-95.5 -52q-41 0 -74 16q-5 3 1 13.5t15.5 18.5t13.5 5q28 -25 61 -25q40 0 61.5 20t30.5 63t9 120v652q-13 14 -27 20
t-37 7q-5 0 -4.5 3t5.5 3q30 -3 49 -3h51q12 0 19 -9l445 -596q4 -7 8 -7t4 7v530q0 40 -17 55t-55 17q-5 0 -5.5 2.5t3.5 2.5q12 0 21 -1l30 -1h52l50 2q5 1 5.5 -2zM133 634l-26 31z" />
    <glyph glyph-name="uni01CD" unicode="&#x1cd;" horiz-adv-x="701" 
d="M696 0q0 -3 -4 -2l-39 2h-104q-21 0 -60 -3q-6 0 -6.5 3t6.5 3q39 2 59.5 11t20.5 31q0 12 -6 27l-73 171q-7 7 -15 7q-7 0 -14 -4q-142 -70 -307 -77q-11 0 -20.5 -5.5t-14.5 -13.5l-33 -78q-7 -15 -7 -27q0 -22 21.5 -31t60.5 -11q7 0 6.5 -3t-6.5 -3q-39 3 -61 3h-52
l-39 -2q-4 -1 -4 2t4 3q27 2 40 15t30 54l233 551q4 9 4 19q0 7 -2 15l-13 29q-2 4 -5 6.5t-4 3.5q-2 2 0 3t6 1h49q9 0 12 -8l263 -620q18 -41 30.5 -54t39.5 -15q4 0 4 -3zM471.5 267.5q3.5 9.5 0.5 16.5h1l-150 350l-185 -440v-2q0 -7 4.5 -12t12.5 -5q82 5 160.5 24.5
t142.5 52.5q10 6 13.5 15.5zM492 862q1 -3 -3 -5q-41 -19 -62 -39.5t-39 -48.5q-11 -17 -18.5 -23.5t-19.5 -6.5t-19.5 7t-18.5 23q-16 25 -37.5 46.5t-62.5 41.5q-4 2 -3 5t5 3q21 -1 68 -32t68 -60q21 29 68.5 60t68.5 32q4 0 5 -3z" />
    <glyph glyph-name="uni01CE" unicode="&#x1ce;" horiz-adv-x="520" 
d="M523.5 137.5q3.5 0.5 3.5 -5.5q0 -71 -23.5 -107.5t-54.5 -36.5q-26 0 -40.5 22t-24.5 68l-10 50q-21 -62 -70.5 -101t-107.5 -39q-76 0 -116 42.5t-40 101.5q0 34 26 60t68 40.5t90 14.5q63 0 127 -10l-20 95q-12 52 -40 77t-86 25q-41 0 -78 -17.5t-61.5 -53
t-25.5 -87.5q0 -6 -3.5 -6t-3.5 6q2 54 31.5 95.5t74.5 64t90 22.5q72 0 107.5 -30.5t49.5 -95.5l51 -244q7 -31 16 -47.5t23 -16.5q8 0 18 9t18 33t8 66q0 5 3.5 5.5zM362 182l-7 36q-66 12 -123 12q-76 0 -108.5 -19.5t-32.5 -72.5q0 -51 32 -84t96 -33q136 0 143 143
q1 8 0 18zM385 651.5q1 -3.5 -3 -5.5q-41 -22 -61.5 -46t-39.5 -57q-11 -20 -18.5 -28t-19.5 -8t-19.5 8t-18.5 27q-16 30 -37.5 55.5t-62.5 48.5q-4 2 -3 5.5t5 3.5q21 -1 68 -38t68 -70q14 22 41.5 47.5t54.5 43t41 17.5q4 0 5 -3.5z" />
    <glyph glyph-name="uni01CF" unicode="&#x1cf;" horiz-adv-x="286" 
d="M98 680q-17 15 -55 17q-6 0 -5.5 3t5.5 2l50 -2h100l50 2q5 1 5.5 -2t-5.5 -3q-38 -2 -55 -17t-17 -55v-550q0 -40 17 -55t55 -17q6 0 5.5 -3t-5.5 -2l-50 2h-100l-50 -2q-5 -1 -5.5 2t5.5 3q38 2 55 17t17 55v550q0 40 -17 55zM285 862q1 -3 -3 -5q-41 -19 -62 -39.5
t-39 -48.5q-11 -17 -18.5 -23.5t-19.5 -6.5t-19.5 7t-18.5 23q-16 25 -37.5 46.5t-62.5 41.5q-4 2 -3 5t5 3q21 -1 68 -32t68 -60q21 29 68.5 60t68.5 32q4 0 5 -3z" />
    <glyph glyph-name="uni01D0" unicode="&#x1d0;" horiz-adv-x="249" 
d="M167.5 22.5q16.5 -16.5 43.5 -18.5q4 0 4 -3t-4 -3q-18 1 -86 1q-67 0 -86 -1q-4 0 -4 3.5t4 3.5q59 -2 59 62v295q0 24 -8.5 35t-28.5 11q-9 0 -23 -3q-3 -1 -4 1.5t1 3.5q83 20 115 42q4 3 7 1.5t3 -3.5q-4 -27 -6.5 -50.5t-2.5 -54.5v-278q0 -28 16.5 -44.5z
M255 651.5q1 -3.5 -3 -5.5q-41 -22 -61.5 -46t-39.5 -57q-11 -20 -18.5 -28t-19.5 -8t-19.5 8t-18.5 27q-16 30 -37.5 55.5t-62.5 48.5q-4 2 -3 5.5t5 3.5q21 -1 68 -38t68 -70q14 22 41.5 47.5t54.5 43t41 17.5q4 0 5 -3.5z" />
    <glyph glyph-name="uni01D1" unicode="&#x1d1;" horiz-adv-x="807" 
d="M207 32q-76 45 -118.5 124.5t-42.5 180.5q0 97 48 183.5t134.5 139t194.5 52.5q97 0 174 -45.5t120.5 -124.5t43.5 -177q0 -99 -49 -186t-136.5 -139.5t-197.5 -52.5q-95 0 -171 45zM631 93.5q77 83.5 77 231.5q0 94 -43.5 178t-118 135t-163.5 51q-88 0 -152 -37
t-98 -106t-34 -163q0 -96 42 -182t115 -138.5t162 -52.5q136 0 213 83.5zM545 862q1 -3 -3 -5q-41 -19 -62 -39.5t-39 -48.5q-11 -17 -18.5 -23.5t-19.5 -6.5t-19.5 7t-18.5 23q-16 25 -37.5 46.5t-62.5 41.5q-4 2 -3 5t5 3q21 -1 68 -32t68 -60q21 29 68.5 60t68.5 32
q4 0 5 -3z" />
    <glyph glyph-name="uni01D2" unicode="&#x1d2;" horiz-adv-x="531" 
d="M140 15.5q-50 28.5 -79.5 80t-29.5 118.5q0 65 32.5 120.5t89.5 89t126 33.5q60 0 111 -28.5t80.5 -80t29.5 -116.5t-33 -121.5t-90.5 -90t-126.5 -33.5q-60 0 -110 28.5zM406 54q47 46 47 137q0 60 -26.5 116.5t-73.5 92.5t-103 36q-81 0 -126.5 -45t-45.5 -136
q0 -60 26 -117t71.5 -93.5t99.5 -36.5q84 0 131 46zM407 651.5q1 -3.5 -3 -5.5q-41 -22 -61.5 -46t-39.5 -57q-11 -20 -18.5 -28t-19.5 -8t-19.5 8t-18.5 27q-16 30 -37.5 55.5t-62.5 48.5q-4 2 -3 5.5t5 3.5q21 -1 68 -38t68 -70q14 22 41.5 47.5t54.5 43t41 17.5
q4 0 5 -3.5z" />
    <glyph glyph-name="uni01D3" unicode="&#x1d3;" horiz-adv-x="706" 
d="M222 23.5q-61 36.5 -94.5 103t-33.5 155.5v343q0 40 -13.5 55t-45.5 17q-4 0 -4.5 2.5t3.5 2.5q6 0 18 -1t24 -1h102q20 0 59 3q6 0 6.5 -3t-6.5 -3q-46 -2 -66.5 -17t-20.5 -55v-344q0 -80 28 -139.5t80.5 -92t124.5 -32.5q71 0 124 33t82 93.5t29 139.5v342
q0 40 -20.5 55t-66.5 17q-6 0 -5.5 3t5.5 3q39 -3 60 -3h50l40 2q4 1 4 -2t-4 -3q-31 -2 -44 -16.5t-13 -55.5l1 -341q0 -90 -32 -157t-91 -103.5t-138 -36.5q-81 0 -142 36.5zM513 862q1 -3 -3 -5q-41 -19 -62 -39.5t-39 -48.5q-11 -17 -18.5 -23.5t-19.5 -6.5t-19.5 7
t-18.5 23q-16 25 -37.5 46.5t-62.5 41.5q-4 2 -3 5t5 3q21 -1 68 -32t68 -60q21 29 68.5 60t68.5 32q4 0 5 -3z" />
    <glyph glyph-name="uni01D4" unicode="&#x1d4;" horiz-adv-x="517" 
d="M522 136q3 0 3 -5q0 -62 -17 -101t-57 -39q-29 0 -45.5 22t-16.5 65v59q-11 -67 -55.5 -108.5t-106.5 -41.5q-72 0 -115.5 49t-43.5 145v181q0 24 -8.5 35t-28.5 11q-10 0 -23 -3q-3 -1 -4 1.5t1 3.5q83 20 114 42q5 3 8 1.5t3 -3.5q-4 -27 -6.5 -50.5t-2.5 -54.5v-161
q0 -171 131 -171q62 0 99.5 47.5t37.5 140.5v161q0 24 -8.5 35t-28.5 11q-10 0 -23 -3q-3 -1 -4.5 1.5t0.5 3.5q33 8 65.5 19t49.5 23q5 3 7.5 1.5t2.5 -3.5q-5 -31 -6.5 -51.5t-1.5 -53.5v-257q0 -31 7.5 -46t24.5 -15q29 0 37 26.5t8 77.5q0 5 3 5zM406 651.5
q1 -3.5 -3 -5.5q-41 -22 -61.5 -46t-39.5 -57q-11 -20 -18.5 -28t-19.5 -8t-19.5 8t-18.5 27q-16 30 -37.5 55.5t-62.5 48.5q-4 2 -3 5.5t5 3.5q21 -1 68 -38t68 -70q14 22 41.5 47.5t54.5 43t41 17.5q4 0 5 -3.5z" />
    <glyph glyph-name="uni01D5" unicode="&#x1d5;" horiz-adv-x="706" 
d="M222 23.5q-61 36.5 -94.5 103t-33.5 155.5v343q0 40 -13.5 55t-45.5 17q-4 0 -4.5 2.5t3.5 2.5q6 0 18 -1t24 -1h102q20 0 59 3q6 0 6.5 -3t-6.5 -3q-46 -2 -66.5 -17t-20.5 -55v-344q0 -80 28 -139.5t80.5 -92t124.5 -32.5q71 0 124 33t82 93.5t29 139.5v342
q0 40 -20.5 55t-66.5 17q-6 0 -5.5 3t5.5 3q39 -3 60 -3h50l40 2q4 1 4 -2t-4 -3q-31 -2 -44 -16.5t-13 -55.5l1 -341q0 -90 -32 -157t-91 -103.5t-138 -36.5q-81 0 -142 36.5zM272 766.5q-10 8.5 -10 20.5q1 13 13 22t30 9q16 0 26 -8t10 -19q0 -13 -12 -23t-31 -10
q-16 0 -26 8.5zM409 766q-10 8 -10 19q0 14 12 23.5t31 9.5q15 0 25 -8t10 -19q0 -13 -11.5 -23t-30.5 -10q-16 0 -26 8zM247 858q-8 0 -8 4q0 3 8 3h243q3 0 5.5 -1t2.5 -2q0 -4 -8 -4h-243z" />
    <glyph glyph-name="uni01D6" unicode="&#x1d6;" horiz-adv-x="517" 
d="M522 136q3 0 3 -5q0 -62 -17 -101t-57 -39q-29 0 -45.5 22t-16.5 65v59q-11 -67 -55.5 -108.5t-106.5 -41.5q-72 0 -115.5 49t-43.5 145v181q0 24 -8.5 35t-28.5 11q-10 0 -23 -3q-3 -1 -4 1.5t1 3.5q83 20 114 42q5 3 8 1.5t3 -3.5q-4 -27 -6.5 -50.5t-2.5 -54.5v-161
q0 -171 131 -171q62 0 99.5 47.5t37.5 140.5v161q0 24 -8.5 35t-28.5 11q-10 0 -23 -3q-3 -1 -4.5 1.5t0.5 3.5q33 8 65.5 19t49.5 23q5 3 7.5 1.5t2.5 -3.5q-5 -31 -6.5 -51.5t-1.5 -53.5v-257q0 -31 7.5 -46t24.5 -15q29 0 37 26.5t8 77.5q0 5 3 5zM166 545.5
q-10 8.5 -10 20.5q1 13 13 22t30 9q16 0 26 -8t10 -19q0 -13 -12 -23t-31 -10q-16 0 -26 8.5zM303 545q-10 8 -10 19q0 14 12 23.5t31 9.5q15 0 25 -8t10 -19q0 -13 -11.5 -23t-30.5 -10q-16 0 -26 8zM143 707q-8 0 -8 4q0 3 8 3h243q3 0 5.5 -1t2.5 -2q0 -4 -8 -4h-243z
" />
    <glyph glyph-name="uni01D7" unicode="&#x1d7;" horiz-adv-x="706" 
d="M222 23.5q-61 36.5 -94.5 103t-33.5 155.5v343q0 40 -13.5 55t-45.5 17q-4 0 -4.5 2.5t3.5 2.5q6 0 18 -1t24 -1h102q20 0 59 3q6 0 6.5 -3t-6.5 -3q-46 -2 -66.5 -17t-20.5 -55v-344q0 -80 28 -139.5t80.5 -92t124.5 -32.5q71 0 124 33t82 93.5t29 139.5v342
q0 40 -20.5 55t-66.5 17q-6 0 -5.5 3t5.5 3q39 -3 60 -3h50l40 2q4 1 4 -2t-4 -3q-31 -2 -44 -16.5t-13 -55.5l1 -341q0 -90 -32 -157t-91 -103.5t-138 -36.5q-81 0 -142 36.5zM272 766.5q-10 8.5 -10 20.5q1 13 13 22t30 9q16 0 26 -8t10 -19q0 -13 -12 -23t-31 -10
q-16 0 -26 8.5zM409 766q-10 8 -10 19q0 14 12 23.5t31 9.5q15 0 25 -8t10 -19q0 -13 -11.5 -23t-30.5 -10q-16 0 -26 8zM284 838q-1 3 3 5q72 43 117 93q13 14 19 18.5t15 4.5q12 0 23 -3t10 -9q0 -10 -40.5 -36.5t-87 -51.5t-53.5 -25q-5 1 -6 4z" />
    <glyph glyph-name="uni01D8" unicode="&#x1d8;" horiz-adv-x="517" 
d="M522 136q3 0 3 -5q0 -62 -17 -101t-57 -39q-29 0 -45.5 22t-16.5 65v59q-11 -67 -55.5 -108.5t-106.5 -41.5q-72 0 -115.5 49t-43.5 145v181q0 24 -8.5 35t-28.5 11q-10 0 -23 -3q-3 -1 -4 1.5t1 3.5q83 20 114 42q5 3 8 1.5t3 -3.5q-4 -27 -6.5 -50.5t-2.5 -54.5v-161
q0 -171 131 -171q62 0 99.5 47.5t37.5 140.5v161q0 24 -8.5 35t-28.5 11q-10 0 -23 -3q-3 -1 -4.5 1.5t0.5 3.5q33 8 65.5 19t49.5 23q5 3 7.5 1.5t2.5 -3.5q-5 -31 -6.5 -51.5t-1.5 -53.5v-257q0 -31 7.5 -46t24.5 -15q29 0 37 26.5t8 77.5q0 5 3 5zM166 545.5
q-10 8.5 -10 20.5q1 13 13 22t30 9q16 0 26 -8t10 -19q0 -13 -12 -23t-31 -10q-16 0 -26 8.5zM303 545q-10 8 -10 19q0 14 12 23.5t31 9.5q15 0 25 -8t10 -19q0 -13 -11.5 -23t-30.5 -10q-16 0 -26 8zM230 628q-1 3 3 6q40 35 60 62t35 56q8 16 13 22t14 7l13 1
q10 0 17.5 -2.5t7.5 -6.5q0 -10 -35 -45t-74.5 -68.5t-47.5 -34.5q-5 0 -6 3z" />
    <glyph glyph-name="uni01D9" unicode="&#x1d9;" horiz-adv-x="706" 
d="M222 23.5q-61 36.5 -94.5 103t-33.5 155.5v343q0 40 -13.5 55t-45.5 17q-4 0 -4.5 2.5t3.5 2.5q6 0 18 -1t24 -1h102q20 0 59 3q6 0 6.5 -3t-6.5 -3q-46 -2 -66.5 -17t-20.5 -55v-344q0 -80 28 -139.5t80.5 -92t124.5 -32.5q71 0 124 33t82 93.5t29 139.5v342
q0 40 -20.5 55t-66.5 17q-6 0 -5.5 3t5.5 3q39 -3 60 -3h50l40 2q4 1 4 -2t-4 -3q-31 -2 -44 -16.5t-13 -55.5l1 -341q0 -90 -32 -157t-91 -103.5t-138 -36.5q-81 0 -142 36.5zM272 766.5q-10 8.5 -10 20.5q1 13 13 22t30 9q16 0 26 -8t10 -19q0 -13 -12 -23t-31 -10
q-16 0 -26 8.5zM409 766q-10 8 -10 19q0 14 12 23.5t31 9.5q15 0 25 -8t10 -19q0 -13 -11.5 -23t-30.5 -10q-16 0 -26 8zM510 958q1 -3 -3 -5q-41 -19 -62 -39.5t-39 -48.5q-11 -17 -18.5 -23.5t-19.5 -6.5t-19.5 7t-18.5 23q-16 25 -37.5 46.5t-62.5 41.5q-4 2 -3 5t5 3
q21 -1 68 -32t68 -60q21 29 68.5 60t68.5 32q4 0 5 -3z" />
    <glyph glyph-name="uni01DA" unicode="&#x1da;" horiz-adv-x="517" 
d="M522 136q3 0 3 -5q0 -62 -17 -101t-57 -39q-29 0 -45.5 22t-16.5 65v59q-11 -67 -55.5 -108.5t-106.5 -41.5q-72 0 -115.5 49t-43.5 145v181q0 24 -8.5 35t-28.5 11q-10 0 -23 -3q-3 -1 -4 1.5t1 3.5q83 20 114 42q5 3 8 1.5t3 -3.5q-4 -27 -6.5 -50.5t-2.5 -54.5v-161
q0 -171 131 -171q62 0 99.5 47.5t37.5 140.5v161q0 24 -8.5 35t-28.5 11q-10 0 -23 -3q-3 -1 -4.5 1.5t0.5 3.5q33 8 65.5 19t49.5 23q5 3 7.5 1.5t2.5 -3.5q-5 -31 -6.5 -51.5t-1.5 -53.5v-257q0 -31 7.5 -46t24.5 -15q29 0 37 26.5t8 77.5q0 5 3 5zM166 545.5
q-10 8.5 -10 20.5q1 13 13 22t30 9q16 0 26 -8t10 -19q0 -13 -12 -23t-31 -10q-16 0 -26 8.5zM303 545q-10 8 -10 19q0 14 12 23.5t31 9.5q15 0 25 -8t10 -19q0 -13 -11.5 -23t-30.5 -10q-16 0 -26 8zM406 771.5q1 -3.5 -3 -5.5q-41 -22 -61.5 -46t-39.5 -57
q-11 -20 -18.5 -28t-19.5 -8t-19.5 8t-18.5 27q-16 30 -37.5 55.5t-62.5 48.5q-4 2 -3 5.5t5 3.5q21 -1 68 -38t68 -70q14 22 41.5 47.5t54.5 43t41 17.5q4 0 5 -3.5z" />
    <glyph glyph-name="uni01DB" unicode="&#x1db;" horiz-adv-x="706" 
d="M222 23.5q-61 36.5 -94.5 103t-33.5 155.5v343q0 40 -13.5 55t-45.5 17q-4 0 -4.5 2.5t3.5 2.5q6 0 18 -1t24 -1h102q20 0 59 3q6 0 6.5 -3t-6.5 -3q-46 -2 -66.5 -17t-20.5 -55v-344q0 -80 28 -139.5t80.5 -92t124.5 -32.5q71 0 124 33t82 93.5t29 139.5v342
q0 40 -20.5 55t-66.5 17q-6 0 -5.5 3t5.5 3q39 -3 60 -3h50l40 2q4 1 4 -2t-4 -3q-31 -2 -44 -16.5t-13 -55.5l1 -341q0 -90 -32 -157t-91 -103.5t-138 -36.5q-81 0 -142 36.5zM272 766.5q-10 8.5 -10 20.5q1 13 13 22t30 9q16 0 26 -8t10 -19q0 -13 -12 -23t-31 -10
q-16 0 -26 8.5zM409 766q-10 8 -10 19q0 14 12 23.5t31 9.5q15 0 25 -8t10 -19q0 -13 -11.5 -23t-30.5 -10q-16 0 -26 8zM355.5 859q-46.5 25 -87 51.5t-40.5 36.5q-1 6 10 9t23 3q9 0 15 -4.5t19 -18.5q45 -50 117 -93q4 -2 4 -4q0 -3 -7 -5q-7 0 -53.5 25z" />
    <glyph glyph-name="uni01DC" unicode="&#x1dc;" horiz-adv-x="517" 
d="M522 136q3 0 3 -5q0 -62 -17 -101t-57 -39q-29 0 -45.5 22t-16.5 65v59q-11 -67 -55.5 -108.5t-106.5 -41.5q-72 0 -115.5 49t-43.5 145v181q0 24 -8.5 35t-28.5 11q-10 0 -23 -3q-3 -1 -4 1.5t1 3.5q83 20 114 42q5 3 8 1.5t3 -3.5q-4 -27 -6.5 -50.5t-2.5 -54.5v-161
q0 -171 131 -171q62 0 99.5 47.5t37.5 140.5v161q0 24 -8.5 35t-28.5 11q-10 0 -23 -3q-3 -1 -4.5 1.5t0.5 3.5q33 8 65.5 19t49.5 23q5 3 7.5 1.5t2.5 -3.5q-5 -31 -6.5 -51.5t-1.5 -53.5v-257q0 -31 7.5 -46t24.5 -15q29 0 37 26.5t8 77.5q0 5 3 5zM166 545.5
q-10 8.5 -10 20.5q1 13 13 22t30 9q16 0 26 -8t10 -19q0 -13 -12 -23t-31 -10q-16 0 -26 8.5zM303 545q-10 8 -10 19q0 14 12 23.5t31 9.5q15 0 25 -8t10 -19q0 -13 -11.5 -23t-30.5 -10q-16 0 -26 8zM248 661q-40 33 -74.5 68t-34.5 46q0 10 38 8q9 -1 14 -7t13 -22
q15 -29 35 -56.5t60 -62.5q4 -3 3 -5.5t-6 -2.5q-8 1 -48 34z" />
    <glyph glyph-name="Gcaron" unicode="&#x1e6;" horiz-adv-x="689" 
d="M208 30.5q-74 43.5 -118 122.5t-44 182q0 111 51.5 196.5t136 132t180.5 46.5q65 0 117 -20t81 -51.5t29 -64.5q0 -8 -1 -12l-44 -167q-2 -4 -5 -3.5t-1 5.5q13 46 13 89q0 54 -20 96q-22 53 -68.5 78.5t-110.5 25.5q-142 0 -224 -69t-82 -226q0 -119 48.5 -205.5
t119.5 -130.5t135 -44q88 0 143 21t69 82q1 4 1 21q0 40 -9 134q-4 16 -19.5 25t-50.5 14t-102 9q-4 0 -4 3t4 3q40 -2 60 -2q66 0 151 9l10 1q10 0 10 -8q0 -4 -3.5 -12t-4.5 -28q-2 -104 -2 -158q0 -7 -2 -11t-8 -11q-52 -61 -118 -88.5t-156 -27.5q-88 0 -162 43.5z
M511 862q1 -3 -3 -5q-41 -19 -62 -39.5t-39 -48.5q-11 -17 -18.5 -23.5t-19.5 -6.5t-19.5 7t-18.5 23q-16 25 -37.5 46.5t-62.5 41.5q-4 2 -3 5t5 3q21 -1 68 -32t68 -60q21 29 68.5 60t68.5 32q4 0 5 -3z" />
    <glyph glyph-name="gcaron" unicode="&#x1e7;" horiz-adv-x="459" 
d="M425 -31.5q28 -28.5 28 -66.5q0 -36 -21 -62t-52 -38.5t-60 -12.5q-90 0 -151 84q-35 -14 -67 -14q-42 0 -68.5 24.5t-26.5 61.5q0 74 101 121q-46 25 -72.5 70t-26.5 104q0 58 29 107.5t79.5 79.5t111.5 30q40 0 76 -3q84 -3 113 -2q6 0 6 -3q0 -2 -3.5 -3.5t-8.5 -1.5
h-33q-77 0 -57 -10q47 -24 76 -70t29 -106q0 -57 -29.5 -107t-80.5 -79.5t-112 -29.5q-49 0 -91 21q-38 -18 -58 -37.5t-20 -51.5q0 -27 18 -45t44 -18q28 0 51.5 9.5t55.5 28.5q41 24 72.5 36t73.5 12q46 0 74 -28.5zM73.5 170q21.5 -49 61 -79t90.5 -30q76 0 117.5 40.5
t41.5 123.5q0 54 -22.5 103t-63 79t-92.5 30q-74 0 -114 -40.5t-40 -121.5q0 -56 21.5 -105zM401.5 -179q23.5 15 23.5 58q0 29 -19 47.5t-53 18.5q-39 0 -68 -11.5t-66 -33.5q-26 -17 -45 -25q23 -28 63.5 -48.5t90.5 -20.5t73.5 15zM367 651.5q1 -3.5 -3 -5.5
q-41 -22 -61.5 -46t-39.5 -57q-11 -20 -18.5 -28t-19.5 -8t-19.5 8t-18.5 27q-16 30 -37.5 55.5t-62.5 48.5q-4 2 -3 5.5t5 3.5q21 -1 68 -38t68 -70q14 22 41.5 47.5t54.5 43t41 17.5q4 0 5 -3.5z" />
    <glyph glyph-name="uni01EA" unicode="&#x1ea;" horiz-adv-x="807" 
d="M536 -8.5q-12 -21.5 -12 -46.5q0 -23 12 -35.5t32 -12.5q26 0 41 12.5t15 42.5q0 5 2.5 5t2.5 -5q0 -40 -21 -62t-56 -22q-31 0 -49.5 16t-18.5 45q0 48 59 93q-78 -35 -165 -35q-95 0 -171 45t-118.5 124.5t-42.5 180.5q0 97 48 183.5t134.5 139t194.5 52.5
q97 0 174 -45.5t120.5 -124.5t43.5 -177q0 -99 -48.5 -185.5t-132.5 -137.5q-32 -29 -44 -50.5zM141 201q42 -86 115 -138.5t162 -52.5q136 0 213 83.5t77 231.5q0 94 -43.5 178t-118 135t-163.5 51q-88 0 -152 -37t-98 -106t-34 -163q0 -96 42 -182z" />
    <glyph glyph-name="uni01EB" unicode="&#x1eb;" horiz-adv-x="531" 
d="M467 110.5q-33 -56.5 -89 -89.5h1q-33 -29 -45 -51t-12 -47q0 -23 12 -35.5t32 -12.5q26 0 41 12.5t15 42.5q0 5 2.5 5t2.5 -5q0 -40 -21 -62t-56 -22q-31 0 -49.5 16t-18.5 45q0 28 18 52.5t50 47.5q-46 -20 -100 -20q-60 0 -110 28.5t-79.5 80t-29.5 118.5
q0 65 32.5 120.5t89.5 89t126 33.5q60 0 111 -28.5t80.5 -80t29.5 -116.5t-33 -121.5zM406 54q47 46 47 137q0 60 -26.5 116.5t-73.5 92.5t-103 36q-81 0 -126.5 -45t-45.5 -136q0 -60 26 -117t71.5 -93.5t99.5 -36.5q84 0 131 46z" />
    <glyph glyph-name="Aringacute" unicode="&#x1fa;" horiz-adv-x="701" 
d="M252 849q-1 3 3 5q67 40 106 83q7 8 13.5 13.5t12.5 6.5l6 1q10 0 19.5 -3t8.5 -8q0 -9 -36.5 -33t-78.5 -46.5t-48 -21.5q-5 0 -6 3zM398.5 838q24.5 -18 24.5 -47q0 -30 -25.5 -52t-62.5 -22q-32 0 -54.5 18.5t-22.5 48.5q0 28 24 50t58 22t58.5 -18zM388 739
q13 10 13 36q0 27 -21 49t-50 22q-23 0 -36 -10t-13 -36q0 -27 20.5 -49t50.5 -22q23 0 36 10zM696 0q0 -3 -4 -2l-39 2h-104q-21 0 -60 -3q-6 0 -6.5 3t6.5 3q39 2 59.5 11t20.5 31q0 12 -6 27l-73 171q-7 7 -15 7q-7 0 -14 -4q-142 -70 -307 -77q-11 0 -20.5 -5.5
t-14.5 -13.5l-33 -78q-7 -15 -7 -27q0 -22 21.5 -31t60.5 -11q7 0 6.5 -3t-6.5 -3q-39 3 -61 3h-52l-39 -2q-4 -1 -4 2t4 3q27 2 40 15t30 54l233 551q4 9 4 19q0 7 -2 15l-13 29q-2 4 -5 6.5t-4 3.5q-2 2 0 3t6 1h49q9 0 12 -8l263 -620q18 -41 30.5 -54t39.5 -15q4 0 4 -3
zM471.5 267.5q3.5 9.5 0.5 16.5h1l-150 350l-185 -440v-2q0 -7 4.5 -12t12.5 -5q82 5 160.5 24.5t142.5 52.5q10 6 13.5 15.5z" />
    <glyph glyph-name="aringacute" unicode="&#x1fb;" horiz-adv-x="520" 
d="M523.5 137.5q3.5 0.5 3.5 -5.5q0 -71 -23.5 -107.5t-54.5 -36.5q-26 0 -40.5 22t-24.5 68l-10 50q-21 -62 -70.5 -101t-107.5 -39q-76 0 -116 42.5t-40 101.5q0 34 26 60t68 40.5t90 14.5q63 0 127 -10l-20 95q-12 52 -40 77t-86 25q-41 0 -78 -17.5t-61.5 -53
t-25.5 -87.5q0 -6 -3.5 -6t-3.5 6q2 54 31.5 95.5t74.5 64t90 22.5q72 0 107.5 -30.5t49.5 -95.5l51 -244q7 -31 16 -47.5t23 -16.5q8 0 18 9t18 33t8 66q0 5 3.5 5.5zM362 182l-7 36q-66 12 -123 12q-76 0 -108.5 -19.5t-32.5 -72.5q0 -51 32 -84t96 -33q136 0 143 143
q1 8 0 18zM185 515q-23 21 -23 55q0 32 25.5 57t60.5 25q33 0 57.5 -21t24.5 -54t-26 -58t-63 -25q-33 0 -56 21zM307 559q0 31 -21 56t-50 25q-23 0 -36.5 -12t-13.5 -41q0 -30 21 -55t51 -25q49 0 49 52zM210 672q-1 3 3 6q40 35 60 62t35 56q8 16 13 22t14 7l13 1
q10 0 17.5 -2.5t7.5 -6.5q0 -10 -35 -45t-74.5 -68.5t-47.5 -34.5q-5 0 -6 3z" />
    <glyph glyph-name="AEacute" unicode="&#x1fc;" horiz-adv-x="1007" 
d="M978 246q4 0 2 -8q-21 -127 -24 -227q0 -13 -4.5 -16.5t-12.5 -3.5t-42.5 4.5t-117.5 4.5h-287l-50 -2q-5 -1 -5.5 2t5.5 3q38 2 55 17t17 55v184q0 9 -7 9q-8 0 -23 -8q-45 -24 -99.5 -36.5t-110.5 -12.5q-27 0 -54 3q-19 2 -32 -18v1l-91 -129q-11 -15 -11 -29
q0 -32 78 -36q7 0 6 -3t-7 -3q-36 3 -59 3h-53l-41 -2q-4 -1 -5 2t4 3q20 1 31.5 7.5t20 17t29.5 40.5l404 571q8 11 8 23q0 11 -7 20q-10 8 -24 11q-2 0 -2 1l-27 3q-6 0 -5.5 3t5.5 2l50 -2h271q68 0 119 7l23 2q7 0 10.5 -4t4.5 -16q2 -83 24 -228q1 -4 -1.5 -4.5
t-3.5 3.5q-15 78 -24.5 116t-17 55t-19.5 30q-20 21 -80 27t-208 6q-20 0 -20 -28v-268q2 -23 20 -23q93 0 119 3q16 2 25 8.5t18 26.5t20 62q1 6 3.5 6t1.5 -6q-7 -39 -7 -88q0 -63 12 -132q1 -5 -1.5 -5.5t-3.5 5.5q-17 63 -31.5 85.5t-36.5 25.5q-26 2 -119 2
q-18 0 -20 -24v-298q0 -40 29 -40q152 1 221.5 8.5t90.5 25.5q22 20 34.5 61.5t28.5 137.5q1 7 4 7zM514 308v181q0 106 -7 148q-1 7 -6 2l-287 -405q-2 -6 -2 -7q0 -7 11 -8q26 -3 52 -3q55 0 108.5 12.5t98.5 36.5q32 18 32 43zM660 742q-1 3 3 5q72 43 117 93
q13 14 19 18.5t15 4.5q12 0 23 -3t10 -9q0 -10 -40.5 -36.5t-87 -51.5t-53.5 -25q-5 1 -6 4z" />
    <glyph glyph-name="aeacute" unicode="&#x1fd;" horiz-adv-x="777" 
d="M754 83.5q2 -1.5 1 -4.5q-39 -47 -86 -69t-107 -22q-68 0 -123 38t-78 104q-20 -63 -70 -102.5t-109 -39.5q-51 0 -86.5 20.5t-52.5 53t-16 70.5q0 34 25.5 60t67.5 40.5t90 14.5q64 0 128 -10l-21 95q-11 52 -39 77t-86 25q-41 0 -78.5 -17.5t-61.5 -53t-25 -87.5
q0 -6 -3.5 -6t-3.5 6q2 54 31.5 95.5t74.5 64t90 22.5q70 0 105.5 -34.5t46.5 -100.5v-2q28 63 86 100t128 37t116 -41.5t46 -108.5q0 -29 -11 -65l-101 -2q-157 -2 -239 -5q4 -70 38 -118.5t82 -72.5t94 -24q37 0 77 13t67 49q1 2 3 0.5zM393 253v-11q54 1 146 5
q104 4 146 5q7 20 7 44q0 37 -17.5 71t-48.5 54.5t-67 20.5q-166 0 -166 -189zM349 171q0 5 -2 23l-1 3q0 3 -2 9l1 -1l-3 13q-66 12 -123 12q-76 0 -108.5 -19.5t-32.5 -72.5q0 -51 31.5 -84t95.5 -33q135 0 144 143v7zM335 508q-1 3 3 6q40 35 60 62t35 56q8 16 13 22
t14 7l13 1q10 0 17.5 -2.5t7.5 -6.5q0 -10 -35 -45t-74.5 -68.5t-47.5 -34.5q-5 0 -6 3z" />
    <glyph glyph-name="Oslashacute" unicode="&#x1fe;" horiz-adv-x="807" 
d="M610 659q71 -46 111 -123t40 -171q0 -99 -49 -186t-136.5 -139.5t-197.5 -52.5q-99 0 -178 49l-68 -102q-2 -4 -5 -2t1 6l67 101q-70 46 -109.5 123.5t-39.5 174.5t48 183.5t134.5 139t194.5 52.5q101 0 182 -50l66 101q4 5 6.5 3t-1.5 -7zM133 218.5q34 -78.5 93 -131.5
l349 530q-40 34 -89.5 53t-102.5 19q-88 0 -152 -37t-98 -106t-34 -163q0 -86 34 -164.5zM631 93.5q77 83.5 77 231.5q0 83 -34.5 159.5t-93.5 128.5l-350 -530q84 -73 188 -73q136 0 213 83.5zM311 742q-1 3 3 5q72 43 117 93q13 14 19 18.5t15 4.5q12 0 23 -3t10 -9
q0 -10 -40.5 -36.5t-87 -51.5t-53.5 -25q-5 1 -6 4z" />
    <glyph glyph-name="oslashacute" unicode="&#x1ff;" horiz-adv-x="531" 
d="M406 418q44 -30 69 -78.5t25 -107.5q0 -65 -33 -121.5t-90.5 -90t-126.5 -33.5q-66 0 -120 34l-22 -32q-3 -4 -6 -2t1 7l22 31q-44 30 -69 79t-25 110q0 64 32 120t88.5 89.5t125.5 33.5t124 -35l22 32q4 5 6.5 3t-1.5 -7zM98 152.5q20 -50.5 55 -86.5l220 317
q-26 25 -57.5 39t-65.5 14q-81 0 -126.5 -45t-45.5 -136q0 -52 20 -102.5zM406 54q47 46 47 137q0 52 -20 101.5t-55 85.5l-220 -317q53 -53 117 -53q84 0 131 46zM217 508q-1 3 3 6q40 35 60 62t35 56q8 16 13 22t14 7l13 1q10 0 17.5 -2.5t7.5 -6.5q0 -10 -35 -45
t-74.5 -68.5t-47.5 -34.5q-5 0 -6 3z" />
    <glyph glyph-name="uni0218" unicode="&#x218;" horiz-adv-x="617" 
d="M107 273q2 9 5 9q1 0 2 -3t0 -8q-4 -32 -4 -66q0 -108 50 -154t157 -46q75 0 131.5 30.5t56.5 120.5q0 70 -52 114.5t-148 87.5q-99 45 -149 87t-50 102q1 39 28.5 77t81.5 63t129 25q48 0 92.5 -14.5t73 -41t28.5 -60.5q0 -6 -2 -16l-28 -143q-1 -7 -4 -7q-4 0 -3 9
q8 51 8 86q0 86 -43.5 127.5t-137.5 41.5q-95 0 -132.5 -30.5t-37.5 -92.5q0 -38 22.5 -66t58.5 -49t99 -50q69 -31 114 -57.5t75.5 -67.5t30.5 -97q0 -52 -32 -97t-90.5 -72.5t-134.5 -27.5q-67 0 -118 19.5t-78 50.5t-27 65q0 10 1 15zM282 -208.5q-1 1.5 2 4.5
q44 33 44 74q0 7 -6.5 9.5t-19.5 3.5q-17 1 -26 5t-9 17q0 11 12.5 20.5t29.5 9.5q24 1 34 -9.5t10 -26.5q0 -29 -20 -59t-46 -48q-4 -2 -5 -0.5z" />
    <glyph glyph-name="uni0219" unicode="&#x219;" horiz-adv-x="406" 
d="M50 168q1 4 3.5 3.5t2.5 -4.5q-2 -24 -2 -32q0 -70 36 -100.5t108 -30.5q60 0 93.5 18.5t33.5 65.5q-1 42 -33 69t-110 64q-69 34 -101.5 59t-32.5 61q0 28 21.5 55.5t60 44.5t85.5 17q59 0 104 -16t45 -48q0 -6 -1 -9l-22 -97q-1 -4 -3.5 -3.5t-1.5 4.5q2 24 2 34
q0 61 -30 88.5t-104 27.5q-63 0 -86.5 -18t-23.5 -49q0 -32 30 -54t100 -57q70 -32 111 -65.5t41 -78.5q0 -33 -23.5 -63t-66.5 -48.5t-98 -18.5q-74 0 -118.5 22.5t-38.5 57.5zM154 -217q-1 2 3 5q46 34 46 78q0 7 -6 9.5t-21 4.5q-18 1 -27.5 5.5t-9.5 17.5
q0 12 14.5 21.5t34.5 9.5q23 0 32.5 -11.5t9.5 -26.5q0 -31 -21.5 -62.5t-49.5 -50.5q-4 -2 -5 0z" />
    <glyph glyph-name="uni021A" unicode="&#x21a;" horiz-adv-x="643" 
d="M621 462.5q-3 -0.5 -4 4.5q-21 110 -37 153t-39 57q-21 17 -168 17q-9 0 -16.5 -8t-7.5 -27v-584q0 -40 25 -55t82 -17q8 0 8 -3q0 -1 -2.5 -2t-5.5 -1q-48 3 -73 3h-124q-27 0 -72 -3q-3 0 -5.5 1t-2.5 2q0 3 8 3q57 2 81.5 17t24.5 55v584q0 19 -7 27t-16 8
q-147 0 -168 -17q-23 -14 -40 -59.5t-36 -150.5q-2 -5 -4.5 -4.5t-1.5 5.5q18 134 21 221q0 20 15 20q6 0 40 -4.5t197 -4.5h56q163 0 197.5 4.5t40.5 4.5q15 0 15 -20q2 -88 21 -221q1 -5 -2 -5.5zM282 -217q-1 2 3 5q46 34 46 78q0 7 -6 9.5t-21 4.5q-18 1 -27.5 5.5
t-9.5 17.5q0 12 14.5 21.5t34.5 9.5q23 0 32.5 -11.5t9.5 -26.5q0 -31 -21.5 -62.5t-49.5 -50.5q-4 -2 -5 0z" />
    <glyph glyph-name="uni021B" unicode="&#x21b;" horiz-adv-x="276" 
d="M101.5 13q-20.5 25 -20.5 68v331q0 14 -3.5 20t-17.5 6h-34q-4 0 -4 2.5t3 3.5q48 9 75 37.5t33 79.5q0 5 3 5t3 -5q0 -43 -4 -98v-4q0 -9 5 -12t19 -3h101q2 0 1 -3t-4 -3h-93q-18 0 -24 -5.5t-6 -21.5v-320q0 -32 15 -51.5t38 -19.5q19 0 39 13t38 39q3 5 5 4t-1 -6
q-26 -41 -55.5 -61.5t-57.5 -20.5q-33 0 -53.5 25zM118 -217q-1 2 3 5q46 34 46 78q0 7 -6 9.5t-21 4.5q-18 1 -27.5 5.5t-9.5 17.5q0 12 14.5 21.5t34.5 9.5q23 0 32.5 -11.5t9.5 -26.5q0 -31 -21.5 -62.5t-49.5 -50.5q-4 -2 -5 0z" />
    <glyph glyph-name="uni0232" unicode="&#x232;" horiz-adv-x="614" 
d="M208 -2q-5 -1 -5.5 2t5.5 3q38 2 55 17t17 55l-1 191q0 13 -6 25l-189 339q-23 40 -35.5 52.5t-39.5 14.5q-4 0 -3.5 3t4.5 3q24 -3 39 -3h107q20 0 59 3q6 0 6.5 -3t-6.5 -3q-78 -4 -78 -38q0 -12 9 -29l182 -329q6 -10 12 0l184 329q9 17 9 28q0 35 -79 39q-6 0 -5.5 3
t5.5 3q39 -3 60 -3h52l39 2q4 1 4 -2t-4 -3q-27 -2 -39.5 -14.5t-34.5 -52.5l-189 -338q-7 -11 -7 -26l1 -191q0 -40 16.5 -55t55.5 -17q5 0 5 -3t-5 -2l-50 2h-101zM185 762q-8 0 -8 4q0 3 8 3h243q3 0 5.5 -1t2.5 -2q0 -4 -8 -4h-243z" />
    <glyph glyph-name="uni0233" unicode="&#x233;" horiz-adv-x="496" 
d="M490 442q0 -3 -3 -3q-19 0 -30.5 -13t-26.5 -47l-169 -389q-49 -106 -88.5 -150.5t-88.5 -44.5q-34 0 -59.5 17t-32.5 43q-1 8 5.5 23t14.5 22.5t9 -1.5q5 -29 26.5 -55.5t54.5 -26.5q38 0 67.5 31t65.5 107q2 4 2 13q0 19 -10 39l-161 372q-15 34 -26.5 47t-30.5 13
q-4 0 -4 3t4 3q11 -1 41 -1h62q51 0 70 1q5 0 5 -3t-5 -3q-65 0 -65 -37q0 -9 6 -23l145 -336q5 -9 9 0l146 336q6 14 6 23q0 37 -65 37q-6 0 -6 3t6 3q19 -1 70 -1h12q30 0 41 1q3 0 3 -3zM127 587q-8 0 -8 4q0 3 8 3h243q3 0 5.5 -1t2.5 -2q0 -4 -8 -4h-243z" />
    <glyph glyph-name="uni0237" unicode="&#x237;" horiz-adv-x="222" 
d="M95 362q0 24 -8.5 35t-28.5 11q-10 0 -23 -3q-3 -1 -4 1.5t1 3.5q81 20 114 42q5 3 8 1.5t3 -3.5q-4 -27 -6.5 -50.5t-2.5 -54.5v-236q0 -77 -34 -126t-78 -71t-77 -24q-7 -1 -6.5 2t6.5 4q51 6 93.5 47.5t42.5 154.5v266z" />
    <glyph glyph-name="uni0251" unicode="&#x251;" horiz-adv-x="596" 
d="M600 137.5q3 0.5 3 -5.5q0 -71 -23 -107.5t-54 -36.5q-27 0 -42.5 22t-25.5 67l-12 51q-8 22 -15 22q-4 0 -8 -8q-65 -155 -201 -155q-53 0 -96.5 28.5t-69 79.5t-25.5 116q0 64 31 121t82.5 91.5t111.5 34.5q75 0 129.5 -39t73.5 -117l52 -215q15 -63 41 -63q8 0 18.5 9
t18.5 33t8 66q0 5 3 5.5zM353 52.5q36 28.5 52 70.5t16 84q0 20 -3 35l-10 43q-19 76 -64.5 114t-105.5 38q-76 0 -118.5 -48t-42.5 -138q0 -62 23 -114t65 -82.5t97 -30.5t91 28.5z" />
    <glyph glyph-name="uni0259" unicode="&#x259;" horiz-adv-x="461" 
d="M322.5 427.5q49.5 -28.5 78.5 -80t29 -118.5q0 -71 -32 -126.5t-86 -86t-117 -30.5q-70 0 -116 41.5t-46 108.5q0 29 11 65l101 2q157 2 239 5q-4 70 -38 118.5t-82 72.5t-94 24q-37 0 -77 -13t-67 -49q-1 -2 -3 -0.5t-1 4.5q39 47 86 69t107 22q58 0 107.5 -28.5z
M384 191v11q-54 -1 -146 -5q-104 -4 -146 -5q-7 -20 -7 -44q0 -37 17.5 -71t48.5 -54.5t67 -20.5q166 0 166 189z" />
    </font>
</defs>
</svg>
