<svg xmlns="http://www.w3.org/2000/svg">
<defs>
<font id="HelmswaldPost" horiz-adv-x="782" >
  <font-face 
    font-family="Helmswald Post"
    font-weight="400"
    font-stretch="normal"
    units-per-em="2048"
    panose-1="2 0 5 0 0 0 0 0 0 0"
    ascent="1638"
    descent="-410"
    x-height="1635"
    cap-height="2464"
    bbox="-92 -593 2860 2959"
    underline-thickness="150"
    underline-position="-292"
    unicode-range="U+001D-FB05"
  />
<missing-glyph horiz-adv-x="2967" 
d="M1517 1284l-6 -21q4 -3 8 -8q-2 15 -2 29zM390 387l-70 58l-25 -17l81 -68zM201 370l83 -68l13 27l-70 57zM971 393q5 13 5 27t-5 27t-14 22q-10 10 -22 16q-11 6 -24 6q-14 0 -26 -6t-20 -16q-9 -9 -14 -22t-5 -27t5 -27t14 -22q8 -10 20 -15q12 -6 26 -6q13 0 24 6
q12 5 22 15q9 9 14 22zM2164 373q22 19 22 49q0 13 -6 26q-6 12 -16 21q-9 10 -22 15q-13 6 -26 6q-14 0 -26 -6q-12 -5 -21 -15q-10 -9 -15 -21q-6 -13 -6 -26q0 -29 20 -49q23 -21 48 -21q27 0 48 21zM2738 569l-73 -143l88 -149h-102l-74 127h-2v-127h-84v376h84v-214h2
l60 130h101zM487 549l-99 -63l126 -105l-184 -116v1l-94 -59l1 1l-94 -59l60 121l-139 115l423 266v-102zM1496 569l-74 -143l88 -149h-102l-74 127h-1v-127h-84v376h84v-214h1l60 130h102zM1712 744q1 2 2 8l13 33h8v-48h-6v40l-15 -40h-6l-14 41v-41h-6v48h10l12 -34
q1 -5 2 -7zM1665 737h-6v43h-16v5h39v-5h-17v-43zM2851 247h9v-49h-6v41l-14 -41h-6l-14 41v-41h-7v49h11l11 -35q2 -5 2 -7q1 2 3 7zM2768 241v6h39v-6h-16v-43h-7v43h-16zM2388 353q12 -6 29 -6q31 0 53 20v-83q-14 -8 -28 -10q-15 -3 -26 -3h-5q-32 0 -58 11
q-28 12 -48 32t-31 46q-7 16 -10 33q-2 -16 -9 -29q-12 -27 -34 -46q-21 -21 -48 -32t-57 -11q-29 0 -56 11q-28 11 -50 32q-21 20 -33 47q-12 25 -12 53v4q0 31 13 58q12 26 32 46q22 19 49 30q27 10 57 10t57 -10q27 -11 48 -30q22 -20 34 -46q8 -17 11 -36q3 17 9 32
q11 28 31 49q21 20 48 31q28 10 62 10q7 1 13 1q23 0 41 -9v-86q-27 20 -54 20q-30 0 -49 -20q-20 -18 -20 -48q0 -16 5 -31q5 -13 14 -24t22 -16zM1863 568q93 0 93 -118v-173h-77v168q0 47 -38 47q-37 0 -37 -47v-168h-77v376h77v-111q10 13 26 19q16 7 33 7zM1681 438

<glyph glyph-name="t_t" unicode="tt" horiz-adv-x="1214" 
d="M427 1640h219l319 427v-427h194l-66 -78h-128v-1319l87 -60l96 117l16 -12l-240 -288l-183 127v1435h-314v-1319l87 -60l96 117l16 -12l-240 -288l-183 127v1435h-153l377 505v-427z" />
    <glyph glyph-name="uniFB01" unicode="fi" horiz-adv-x="1179" 
d="M427 1641h503v-1398l87 -60l95 117l17 -12l-240 -288l-182 127v1436h-280v-1281l67 -58l122 142l17 -15l-301 -351l-214 149l85 92v1322h-153l67 78h86v323l366 427l3 2l411 -451l-176 -204l-380 432v-529z" />
    <glyph glyph-name="uniFB02" unicode="fl" horiz-adv-x="1176" 
d="M704 127v1739l-277 304v-529h194l-66 -78h-128v-1281l67 -58l122 142l17 -15l-301 -351l-214 149l85 92v1322h-153l67 78h86v323l366 427l3 2l354 -377v-1773l87 -60l96 117l17 -12l-240 -288z" />
    <glyph glyph-name="uniFB00" unicode="ff" horiz-adv-x="1131" 
d="M572 2393l258 -277l235 275l3 2l300 -322l-258 -300l-14 16l83 96l-256 287v-529h194l-66 -78h-128v-1281l67 -58l122 142l17 -15l-301 -351l-214 149l85 92v1322h-272v-1281l67 -58l122 142l17 -15l-301 -351l-214 149l85 92v1322h-153l67 78h86v323l366 427zM427 1641
h272v229l-4 -5l-268 305v-529z" />
    <glyph glyph-name="uniFB03" unicode="ffi" horiz-adv-x="1676" 
d="M924 1641h503v-1398l87 -60l95 117l17 -12l-240 -288l-182 127v1436h-280v-1281l67 -58l122 142l17 -15l-301 -351l-214 149l85 92v1322h-273v-1281l67 -58l122 142l17 -15l-301 -351l-214 149l85 92v1322h-153l67 78h86v323l366 427l3 2l260 -275l234 273l3 2l411 -451
l-176 -204l-380 432v-529zM427 1641h272v229l-4 -5l-268 305v-529z" />
    <glyph glyph-name="uniFB04" unicode="ffl" horiz-adv-x="1670" 
d="M572 2393l257 -275l234 273l3 2l354 -377v-1773l87 -60l96 117l17 -12l-240 -288l-182 127v1739l-275 302v-527h192l-66 -78h-126v-1283l65 -56l122 142l17 -15l-301 -351l-214 149l85 92v1322h-270v-1281l67 -58l122 142l17 -15l-301 -351l-214 149l85 92v1322h-153
l67 78h86v323l366 427zM921 2169h1l-1 1v-1zM427 1641h272v229l-4 -5l-268 305v-529z" />
    <glyph glyph-name="T_h" unicode="Th" horiz-adv-x="1843" 
d="M1525 2197q2 1 3 1t1 -3v-3q-1 -6 -1 -11q-2 -7 -3 -14q-3 -19 -9 -37q-6 -22 -15 -44q-24 -54 -62 -93q-47 -50 -116 -74l1 -628l287 344l182 -126v-1087q0 -429 -299 -661q-149 -116 -298 -146q234 166 328 494q46 164 46 295v988l-87 60l-159 -193v-977l85 -72
l-181 -210l-213 149l86 92v1660q-57 8 -99 26q-64 28 -154 80v-1769l178 126v-25l-468 -336l-308 221l-160 115v1474l222 171v-1151l84 60v1156l168 128v-1191l-168 -121l-84 -60v-414l44 -31l331 -237l139 99v1798q-39 23 -109 66l-106 66q-13 7 -34 21l-18 12l-20 12
q-50 32 -86 51q-111 60 -199 65q-9 1 -18 1q-104 0 -186 -77l3 11q2 8 4 13q3 9 5 17q8 22 16 42q11 25 24 48q34 57 78 90q55 40 126 40q110 0 242 -60q82 -38 234 -134l58 -36l57 -35q64 -38 115 -62q127 -61 230 -61q65 0 124 14q48 12 90 32q17 7 32 16q12 7 23 15l8 6z
" />
    <glyph glyph-name=".notdef" horiz-adv-x="2967" 
d="M1517 1284l-6 -21q4 -3 8 -8q-2 15 -2 29zM390 387l-70 58l-25 -17l81 -68zM201 370l83 -68l13 27l-70 57zM971 393q5 13 5 27t-5 27t-14 22q-10 10 -22 16q-11 6 -24 6q-14 0 -26 -6t-20 -16q-9 -9 -14 -22t-5 -27t5 -27t14 -22q8 -10 20 -15q12 -6 26 -6q13 0 24 6
q12 5 22 15q9 9 14 22zM2164 373q22 19 22 49q0 13 -6 26q-6 12 -16 21q-9 10 -22 15q-13 6 -26 6q-14 0 -26 -6q-12 -5 -21 -15q-10 -9 -15 -21q-6 -13 -6 -26q0 -29 20 -49q23 -21 48 -21q27 0 48 21zM2738 569l-73 -143l88 -149h-102l-74 127h-2v-127h-84v376h84v-214h2
l60 130h101zM487 549l-99 -63l126 -105l-184 -116v1l-94 -59l1 1l-94 -59l60 121l-139 115l423 266v-102zM1496 569l-74 -143l88 -149h-102l-74 127h-1v-127h-84v376h84v-214h1l60 130h102zM1712 744q1 2 2 8l13 33h8v-48h-6v40l-15 -40h-6l-14 41v-41h-6v48h10l12 -34
q1 -5 2 -7zM1665 737h-6v43h-16v5h39v-5h-17v-43zM2851 247h9v-49h-6v41l-14 -41h-6l-14 41v-41h-7v49h11l11 -35q2 -5 2 -7q1 2 3 7zM2768 241v6h39v-6h-16v-43h-7v43h-16zM2388 353q12 -6 29 -6q31 0 53 20v-83q-14 -8 -28 -10q-15 -3 -26 -3h-5q-32 0 -58 11
q-28 12 -48 32t-31 46q-7 16 -10 33q-2 -16 -9 -29q-12 -27 -34 -46q-21 -21 -48 -32t-57 -11q-29 0 -56 11q-28 11 -50 32q-21 20 -33 47q-12 25 -12 53v4q0 31 13 58q12 26 32 46q22 19 49 30q27 10 57 10t57 -10q27 -11 48 -30q22 -20 34 -46q8 -17 11 -36q3 17 9 32
q11 28 31 49q21 20 48 31q28 10 62 10q7 1 13 1q23 0 41 -9v-86q-27 20 -54 20q-30 0 -49 -20q-20 -18 -20 -48q0 -16 5 -31q5 -13 14 -24t22 -16zM1863 568q93 0 93 -118v-173h-77v168q0 47 -38 47q-37 0 -37 -47v-168h-77v376h77v-111q10 13 26 19q16 7 33 7zM1681 438
q16 -9 27 -26q10 -16 10 -42v-5q0 -23 -10 -40q-8 -18 -23 -29q-15 -12 -35 -19q-20 -6 -40 -6q-18 0 -32 2t-27 7q-12 4 -24 11q-14 8 -27 19l42 57q25 -25 61 -25q37 0 37 22q0 12 -21 17q-10 3 -22 6q-11 3 -24 6q-13 4 -24 10t-19 16q-9 10 -13 24q-5 14 -5 34
q0 22 9 39t22 28q14 12 33 17t40 5q24 0 49 -10q24 -10 43 -28l-47 -47q-19 16 -43 16q-29 0 -29 -17q0 -15 21 -20q15 -4 35 -9q19 -4 36 -13zM1184 573q10 6 24 9q14 2 32 2l-23 -88q-32 0 -44 -14q-14 -15 -14 -48v-157h-83v293h75v-47q6 19 14 32q8 12 19 18zM901 564
q10 0 35.5 -5.5t47.5 -28.5l70 40v-293h-76v39h-1q-20 -39 -76 -39h-5q-25 0 -48 10q-25 12 -43 31q-19 19 -30 45q-10 25 -10 54q0 28 10 55q9 27 28 48q19 20 44 32t54 12zM663 568q93 0 93 -118v-173h-76v168q0 47 -39 47q-37 0 -37 -47v-168h-77v376h77v-111
q11 13 27 19q16 7 32 7zM1641 1190q-8 -7 -11 -12h1q1 0 3 -1h2l10 5l-8 -5q1 0 1 -1l8 4l-7 -5q1 0 1 -1q6 3 9 8q-2 -5 -7 -8l17 2q2 -2 2 -3t-1 -1q-1 -1 -2 -1l6 -1q1 0 1 -1t-1 -3q3 0 3 -3v-2q6 0 7 -4q1 -1 1 -2q0 -2 -3 -5q-6 -6 -6 -9v-2l4 -7q3 -6 4 -9l8 -8h3
q8 0 16 -9q9 -11 12 -27q2 -6 2 -12q0 -13 -6 -22q1 -11 1 -20v-2q0 -29 -30 -87q-4 -24 -19 -39q-17 -41 -57 -85q-4 -6 -13 -13l-24 -26q-9 -14 -16 -28l-12 -30l-16 -24l-11 -11l-5 -10v-1l-1 -3q-3 -3 -5 -3h-1l-1 1q-2 -1 -3 -1q-2 0 -3 1q-1 -1 -2 -1q-3 1 -3 5v3
l3 10l8 21q8 12 8 16v2q-3 5 -3 9q0 14 27 18v7q0 13 8 29q2 10 8 21q13 27 27 33q2 11 6 18q2 4 13 19q8 11 11 19q1 5 1 18q1 11 3 17v1q0 13 20 29q3 3 5 8q-7 1 -11 21q-1 5 -3 17q-1 8 -2 12l-1 4q-9 1 -16 12v-4q0 -19 -9 -19h-1q-10 0 -24 17q0 -14 -8 -22
q-5 -6 -13 -6h-1q-21 1 -21 30q-16 -20 -23 -20q-2 0 -4 1q-3 5 -6 39q-16 -20 -25 -20q-2 0 -4 1q-6 5 -6 20q0 6 1 17q-6 -8 -16 -8h-1q-8 0 -14 6q-5 6 -5 11v3q2 8 14 13q-30 0 -38 8q6 6 16 7q12 1 17 3q3 2 7 7q-4 -3 -7 -3t-6 2q-4 3 -4 13v3q-14 -19 -18 -19
q-2 0 -2 3t2 14q3 14 3 19q-24 -26 -24 -27v5q0 9 5 25q-19 -18 -27 -18q-5 0 -5 9q0 5 3 15q-14 -24 -25 -29v4q0 8 6 20q10 19 11 24q-6 -4 -15 -17q-9 -12 -15 -15q2 5 5 39q-8 -8 -16 -8h-3q-8 1 -9 13q0 7 8 18t8 17q-17 -10 -23 -12q-5 -2 -9 -2q-7 0 -10 6q-1 3 -1 7
q0 8 8 17q6 6 6 9q0 2 -3 2q-18 0 -18 12v1q0 9 11 15l11 4l8 5q-23 10 -23 16q0 1 1 1q2 2 34 12q-3 3 -8 7q-7 6 -8 8q-7 7 -7 13q0 3 2 6h3q9 0 18 -5q11 -5 16 -5q1 0 1 1q0 4 -10 21q-5 7 -5 10q0 5 7 6h1q9 0 19 -12q14 -16 18 -19q-15 65 -20 78q20 -14 44 -70
q-10 30 -12 66q-1 6 -1 10q0 23 8 23q3 0 5 -2h-1q0 -7 20 -56q3 -8 13 -34q9 -21 12 -34q-15 68 -15 111q0 49 20 62q9 -7 9 -30q0 -6 -1 -18v-15q0 -15 5 -40q6 -29 7 -38q0 105 29 151q9 -5 9 -29q0 -13 -3 -32q-9 -65 -9 -73q2 3 8 30q8 30 14 48q18 60 35 60q2 0 3 -1
q-1 -22 -19 -64q-19 -43 -22 -65q13 38 37 71q31 41 66 49q-1 -20 -59 -69q-32 -52 -32 -94q0 -1 1 -23t7 -35q13 68 77 144q31 38 60 62h12q-41 -21 -75 -81q50 37 120 38l-3 -11q-117 -2 -141 -86q-7 -22 -7 -47q0 -38 15 -85q3 -2 5 -4q11 -9 30 -56q0 8 8 15q7 6 15 6h2
v-1z" />
    <glyph glyph-name="uni0000" horiz-adv-x="100" 
 />
    <glyph glyph-name="uni0000" horiz-adv-x="100" 
 />
    <glyph glyph-name="nonmarkingreturn" horiz-adv-x="682" 
 />
    <glyph glyph-name="space" unicode=" " horiz-adv-x="296" 
 />
    <glyph glyph-name="space" unicode="&#xa0;" horiz-adv-x="296" 
 />
    <glyph glyph-name="exclam" unicode="!" horiz-adv-x="386" 
d="M199 2179l137 -73l-119 -1504l-49 -22l-118 1453zM194 265l129 -129l-129 -128l-129 128z" />
    <glyph glyph-name="quotedbl" unicode="&#x22;" horiz-adv-x="582" 
d="M134 2447l78 -41l-57 -495l-28 -12l-77 465zM454 2447l78 -41l-57 -495l-28 -12l-77 465z" />
    <glyph glyph-name="numbersign" unicode="#" horiz-adv-x="1128" 
d="M682 1059l71 348h-304l-73 -348h306zM899 1827l-56 -302h235l-31 -118h-229l-69 -348h241l-32 -117h-235l-58 -304h-67l61 304h-310l-63 -304h-66l62 304h-232l31 117h226l71 348h-234l31 118h228l58 302h69l-59 -302h304l58 302h66z" />
    <glyph glyph-name="dollar" unicode="$" horiz-adv-x="1058" 
d="M834 613q11 18 15 28q23 59 23 109q0 12 -1 24q-13 124 -135 248q-66 69 -175 152v-455q67 -33 130 -91l34 -32q18 -19 31 -35q6 -7 14 -7q15 0 38 26q13 14 26 33zM301 1843q-35 -51 -35 -98q0 -49 39 -94q74 -85 208 -188v395q-64 45 -113 80q-4 -2 -14 -9
q-13 -9 -26 -20q-36 -32 -59 -66zM561 1825v-398l126 -96q72 -55 121 -100q200 -178 200 -342q0 -89 -59 -173q-78 -111 -298 -309q-34 30 -90 63v-243h-48v269q-111 57 -215 69q-27 3 -54 3q-105 0 -194 -51q25 80 92 148q58 61 135 83q45 14 95 14q56 0 118 -17l23 -7v472
l-77 57q-45 34 -76 58q-85 66 -142 124q-110 110 -110 205q0 70 66 148q25 28 61 62q14 12 31 27l15 13l15 12q24 20 104 79q28 22 64 47q13 10 27 20l22 16v253h48v-261q90 -69 356 -253l-139 -146q-115 81 -217 154z" />
    <glyph glyph-name="percent" unicode="%" horiz-adv-x="1233" 
d="M1077 1123q69 -44 93 -110q13 -41 13 -74v-6q0 -36 -12 -69q-34 -93 -214 -233l-30 11q-14 5 -25 9q-8 3 -13 5q-60 28 -105 73q-48 47 -66 106q-12 36 -12 70q0 9 1 18q4 40 28 85q22 41 69 85q20 17 60 45q45 30 52 32q3 1 8 1q16 0 54 -7q52 -10 99 -41zM842 1804
l78 -37l-536 -1097l-79 36l523 1068q-87 -90 -188 -98h-19q-63 0 -129 30q14 -22 21 -41q14 -41 14 -74v-6q0 -37 -12 -69q-33 -93 -214 -233l-8 3q-8 3 -22 8t-25 9q-8 3 -12 5q-64 31 -106 73q-48 47 -66 106q-12 39 -12 71q0 9 1 17q4 40 28 85q20 39 69 85q20 18 61 45
q45 31 51 32q3 1 8 1q17 0 54 -7q53 -10 100 -41q17 -11 33 -26q38 -25 78 -38q44 -15 86 -15q10 0 19 1q109 8 197 114zM979 715q59 70 66 120q3 25 3 49q0 45 -14 87q-24 75 -89 121q-7 4 -18 7q-6 1 -11 1q-18 0 -37 -10q-17 -9 -28 -29q-11 -19 -16 -45q-4 -27 -4 -51
q0 -17 2 -33q5 -37 23 -80q37 -89 123 -137zM324 1364q59 70 66 120q3 25 3 49q0 45 -14 87q-24 75 -89 121q-7 4 -18 7q-6 1 -11 1q-18 0 -37 -10q-17 -9 -28 -29q-11 -19 -16 -45q-4 -27 -4 -51q0 -17 2 -33q5 -37 23 -80q37 -89 123 -137z" />
    <glyph glyph-name="ampersand" unicode="&#x26;" horiz-adv-x="1077" 
d="M273 1892v-447l243 280zM852 1529q77 -27 121 -80q42 -50 42 -102q0 -15 -4 -31q-24 -100 -164 -203q24 -74 24 -158q0 -116 -45 -250q-104 -318 -447 -705l-8 7l-321 233v1446l354 414l-112 76l-6 3q-28 20 -35 54q-1 8 -1 16q0 25 14 47q20 28 54 34q9 2 17 2
q25 0 46 -15q28 -19 34 -53q2 -9 2 -17q0 -25 -15 -46l-17 12q11 16 11 34q0 7 -1 13q-5 26 -26 40q-16 11 -35 11q-6 0 -12 -1q-26 -5 -41 -26q-11 -16 -11 -36q0 -5 1 -11q5 -26 27 -41l4 -2l115 -79l52 -35l80 -55l-1 -1l142 -98l106 123q50 59 50 128v10q-4 59 -45 124
q-46 73 -113 124l144 152q119 -103 129 -233q1 -10 1 -21q0 -80 -41 -161q-15 -29 -33 -56q-6 -8 -12 -15q-2 -3 -4 -5l-2 -2l-597 -692v-1000l262 -179q220 294 284 543q27 101 27 190q0 75 -19 142l-31 -22l-29 -23q-101 -80 -142 -144q-25 -39 -28 -76q-1 -6 -1 -12
q0 -43 32 -79h-9q-11 1 -22 3q-37 7 -68 22q-98 51 -98 174q0 93 109 189q25 23 67 53l36 25l35 26q87 63 125 118q31 45 41 91q3 16 3 30q0 37 -21 64z" />
    <glyph glyph-name="quotesingle" unicode="'" horiz-adv-x="262" 
d="M134 2447l78 -41l-57 -495l-28 -12l-77 465z" />
    <glyph glyph-name="parenleft" unicode="(" horiz-adv-x="529" 
d="M409 2606q-196 -643 -196 -1347q0 -100 4 -202q31 -782 255 -1230q1 -1 1 -3q0 -18 -69.5 -85t-71.5 -85q-230 459 -255 1230q-3 91 -3 181q0 729 195 1367q7 23 28 46q12 15 42 42q59 54 70 86z" />
    <glyph glyph-name="parenright" unicode=")" horiz-adv-x="529" 
d="M138 -346q196 643 196 1347q0 100 -4 202q-31 782 -255 1230q-1 1 -1 3q0 18 71 84l14 14l14 13q15 15 24 25q14 16 18 34q230 -459 255 -1230q3 -91 3 -181q0 -729 -195 -1367q-7 -23 -28 -46q-12 -15 -42 -42q-59 -56 -70 -86z" />
    <glyph glyph-name="asterisk" unicode="*" horiz-adv-x="469" 
d="M55 2436l156 -107l-29 174l37 36l34 -18l-22 -197l151 115l34 -18l-10 -51l-167 -63l134 -144l-18 -34l-51 10l-83 160l-3 -1l-81 -159l-51 -10l-19 34l137 147l-169 56l-13 50z" />
    <glyph glyph-name="plus" unicode="+" horiz-adv-x="872" 
d="M501 912v-321h-130v321h-321v130h321v321h130v-321h321v-130h-321z" />
    <glyph glyph-name="comma" unicode="," horiz-adv-x="358" 
d="M179 265l129 -129q-50 -147 -192 -230l-20 19q61 52 69 95l-115 116z" />
    <glyph glyph-name="hyphen" unicode="-" horiz-adv-x="602" 
d="M552 1042l-40 -170h-462l40 170h462z" />
    <glyph glyph-name="hyphen" unicode="&#xad;" horiz-adv-x="602" 
d="M552 1042l-40 -170h-462l40 170h462z" />
    <glyph glyph-name="period" unicode="." horiz-adv-x="358" 
d="M179 265l129 -129l-129 -128l-129 128z" />
    <glyph glyph-name="slash" unicode="/" horiz-adv-x="745" 
d="M695 2429l-560 -2429h-85l560 2429h85z" />
    <glyph glyph-name="zero" unicode="0" horiz-adv-x="1051" 
d="M696 250v1008l-288 249l-135 -122v-1008l272 -253zM536 1621l160 -138l223 -169v-921l-472 -379l-18 -14l-18 14l-138 138l-223 169v921l450 379l18 14z" />
    <glyph glyph-name="one" unicode="1" horiz-adv-x="721" 
d="M558 183l96 116l17 -11l-240 -288l-184 126v1266l-84 60l-96 -117l-17 12l240 288l182 -126v-1266z" />
    <glyph glyph-name="two" unicode="2" horiz-adv-x="992" 
d="M135 117q131 67 288 102q122 26 260 33q34 1 66 1q114 0 193 -14l-123 -245q-134 71 -283 96q-88 16 -179 16q-33 0 -67 -2q-143 -11 -238 -45q2 48 26 104q72 168 338.5 534t266.5 406q0 82 -51 160q-41 63 -111 116q-83 63 -163 97l-158 -180l-107 -123l-17 14l124 142
l162 184l115 132q107 -65 211 -161q91 -85 145 -169q66 -104 66 -196q0 -118 -90 -233q-26 -34 -318 -291t-356 -478z" />
    <glyph glyph-name="three" unicode="3" horiz-adv-x="1003" 
d="M337 1636h616l-428 -499l276 -206v-922l-388 -456q-24 46 -65 87q-83 89 -176 89q-68 0 -122 -52q12 59 48 116q74 115 196 115q103 0 185 -86q42 -43 62 -86l38 43v1008l-237 173l414 480h-530l-115 -161l-18 12l188 265z" />
    <glyph glyph-name="four" unicode="4" horiz-adv-x="1219" 
d="M1057 -328l96 116l16 -12l-240 -287l-184 126v502h-695l808 1533l20 -11l-791 -1500h658v1044h225v-1044h135v-22h-135v-386z" />
    <glyph glyph-name="five" unicode="5" horiz-adv-x="1144" 
d="M121 725l5 22l162 723l13 54q46 -12 135 -12q267 0 416 141l152 -163q-206 -123 -375 -123t-322 89l-156 -702q86 21 171 22h7q268 0 451 -141l7 -6q225 -177 225 -461v-148l-259 -198l-254 -195l-218 165q-83 54 -148 54q-35 -1 -79 -32v10q0 167 131 183q16 2 32 2
q49 0 88 -19q30 -15 103 -74l211 -169l117 89l53 41v260q0 109 -16 200q-20 116 -65 201q-115 217 -384 217q-92 0 -203 -30z" />
    <glyph glyph-name="six" unicode="6" horiz-adv-x="1118" 
d="M303 1471q-29 -168 -30 -1098l321 -257l169 130v1074l-320 257zM50 317q0 1014 26 1140q15 85 40 160q78 233 304 423q228 191 481 235q26 5 42 5q20 0 40 -7q-108 -12 -240 -93q-116 -70 -206 -180q-113 -136 -179 -326l-13 -38l-15 -46q-11 -41 -21 -87l254 194
l423 -321v-987l-512 -393z" />
    <glyph glyph-name="seven" unicode="7" horiz-adv-x="1077" 
d="M167 1647h860l-6 -23l-298 -825q-95 -340 -95 -619q0 -127 13.5 -215t36.5 -150q54 -143 167 -143q20 0 43 5q-68 -73 -134 -80q-8 -1 -15 -1q-62 0 -129 56q-142 117 -177 279q-28 127 -28 272q0 268 96 596q36 127 297 825h-619l-162 -230l-18 13z" />
    <glyph glyph-name="eight" unicode="8" horiz-adv-x="1118" 
d="M763 1174l-380 300l-110 -84v-1008l321 -258l169 131v919zM273 1780l234 -182l256 197v202l-320 257l-170 -130v-344zM986 1938l-461 -354l461 -354v-832l-512 -393l-424 321v921l315 241l-315 248v245l513 393l423 -321v-115z" />
    <glyph glyph-name="nine" unicode="9" horiz-adv-x="1118" 
d="M733 273q29 168 30 1098l-321 257l-169 -130v-1074l320 -257zM986 1427q0 -1014 -26 -1140q-15 -85 -40 -160q-78 -233 -304 -423q-228 -191 -481 -235q-26 -5 -42 -5q-20 0 -40 7q108 12 240 93q116 70 206 180q113 136 179 326l13 38l15 46q11 41 21 87l-254 -194
l-423 321v987l512 393z" />
    <glyph glyph-name="colon" unicode=":" horiz-adv-x="358" 
d="M179 265l129 -129l-129 -128l-129 128zM179 1455l129 -129l-129 -128l-129 128z" />
    <glyph glyph-name="semicolon" unicode=";" horiz-adv-x="358" 
d="M179 1455l129 -129l-129 -128l-129 128zM179 265l129 -129q-50 -147 -192 -230l-20 19q61 52 69 95l-115 116z" />
    <glyph glyph-name="semicolon" unicode="&#x37e;" horiz-adv-x="358" 
d="M179 1455l129 -129l-129 -128l-129 128zM179 265l129 -129q-50 -147 -192 -230l-20 19q61 52 69 95l-115 116z" />
    <glyph glyph-name="less" unicode="&#x3c;" horiz-adv-x="737" 
d="M50 945v65l637 375v-135l-453 -262v-10l453 -273v-139z" />
    <glyph glyph-name="equal" unicode="=" horiz-adv-x="772" 
d="M722 1184v-130h-672v130h672zM722 903v-130h-672v130h672z" />
    <glyph glyph-name="greater" unicode="&#x3e;" horiz-adv-x="737" 
d="M50 566v139l453 273v10l-453 262v135l637 -375v-65z" />
    <glyph glyph-name="question" unicode="?" horiz-adv-x="957" 
d="M336 2004l115 131q134 -84 268 -206q188 -173 188 -302q0 -130 -223.5 -451t-223.5 -448t45 -189q-196 86 -196 279q0 168 225 479q157 213 157 307t-139 207q-69 58 -151 112q-26 17 -69 43l-265 -303l-17 14zM476 265l129 -129l-129 -128l-129 128z" />
    <glyph glyph-name="at" unicode="@" horiz-adv-x="1333" 
d="M736 636v455l-182 124v-456zM1052 1544q231 -166 231 -321q-1 -96 -1 -383q1 0 1 -138l-370 -285l-177 126v53l-110 -127l-235 171v423l271 316l237 -164v-539l123 -77l71 57l-2 567q0 101 -63 164q-69 69 -188 130q-109 56 -163 56h-22q-54 0 -162 -56
q-119 -61 -188 -130q-65 -64 -65 -164v-680q0 -100 65 -166q161 -159 357 -181q27 -3 52 -3q181 0 314 142q-78 -140 -258 -209q-97 -38 -183 -38q-77 0 -144 31q-154 70 -267 182q-126 128 -126 242v87q0 63 1 127q-1 116 -1 247v219q0 80 67 168q61 79 164 153
q217 152 375 152h20q158 0 376 -152z" />
    <glyph glyph-name="A" unicode="A" horiz-adv-x="1605" 
d="M735 259q156 124 327 151l-106 513h-408l-123 -604q27 3 53 3q82 0 152 -18l13 -4q50 -15 92 -41zM579 1073h346l-175 841zM1417 227l121 142l17 -15l-301 -351l-130 104l-58 283q-165 -27 -274.5 -116t-246.5 -263q-63 157 -205 157t-206.5 -77t-64.5 -154h-19v7
q0 5 1 12q4 54 22 101q7 19 16 37q31 61 86 109q42 37 94 65q64 33 133 47l336 1654q-8 39 -13 61q-32 152 -101 183q-17 8 -37 8q-48 0 -112.5 -32.5t-135.5 -32.5q-48 0 -88.5 21.5t-40.5 57.5q29 -29 79 -29q88 0 185 101.5t200 101.5h4q37 -1 66 -10q42 -13 76 -44
q90 -82 133 -291l178 -872l177 -872z" />
    <glyph glyph-name="B" unicode="B" horiz-adv-x="1356" 
d="M158 118q65 91 182 152l20 10q73 35 152 50q24 5 69 8q39 3 68 3q102 0 188 -21l17 -4q32 -9 65 -23v572h-278v-466l-22 -1q-71 -3 -107 -10q-132 -24 -223 -97q-83 -68 -131 -173zM512 1571v-1161q27 5 107 10v1226l-80 -56l-26 -18zM645 2346l-133 -94v-653l440 309z
M919 1418l-206 294l-74 -51h2v-647h278v404zM919 896v87h-278v-87h278zM289 1461v747q0 45 -33 78q-32 32 -78 32t-79 -33q21 64 76 105q56 41 125 41q73 0 130 -45q56 -43 74 -112l8 5l292 205l333 -474l-252 -177l34 -49l223 -318v-1069q78 18 164 18v-23q-87 0 -164 -18
q-105 -25 -226.5 -112.5t-172.5 -279.5q-121 192 -297 192q-138 0 -238 -75t-100 -192h-22v13q1 15 3 32q7 54 23 107q52 167 177 260v926q-4 35 -27 54q-28 23 -65 23t-69 -30.5t-32 -76.5t30 -66q-75 37 -75 129q0 71 41 121q59 73 136 73q30 0 61 -11z" />
    <glyph glyph-name="C" unicode="C" horiz-adv-x="1071" 
d="M786 222v1889q-15 -1 -31 -1q-70 0 -145 26q-42 14 -86 37v-1053l-168 -121l-83 -59v-548l44 -32l330 -237zM356 2316l219 168q118 -213 446 -258q-80 -97 -212 -113v-1875l177 127v-26l-468 -336l-307 221l-161 115v1742l223 171v-1285l83 60v1289z" />
    <glyph glyph-name="D" unicode="D" horiz-adv-x="1213" 
d="M503 2004v-1594q35 7 105 11v1602q-53 -14 -105 -19zM281 2024q-75 30 -136 93l16 15q97 -109 258 -109q115 0 211 30v-1653l-22 -1q-60 -3 -105 -11q-131 -24 -222 -97q-84 -68 -131 -173q20 29 58 63q46 40 101 73q146 87 300 87q212 0 332 -47v1665q0 102 -24 144
q-34 56 -127 56q-49 0 -117 -17l-58 -16l-59 -15q-59 -15 -109 -15q-69 0 -122 29q-149 80 -149 294q0 28 3 58q5 -20 22 -49q20 -34 49 -63q77 -76 177 -76q56 0 125 15q27 6 62 15l62 17q145 40 230 40q10 0 19 -1q42 -3 80 -14q69 -21 114 -84q44 -62 44 -136v-1767
q-313 -109 -460 -392q-96 192 -267 192q-172 0 -251.5 -77.5t-84.5 -189.5h-22q5 110 41 214.5t162 197.5v908q0 49 -28 72t-65 23t-69 -30.5t-32 -76.5t30 -66q-75 37 -75 129q0 71 41 121q59 73 136 73q30 0 62 -11v563z" />
    <glyph glyph-name="E" unicode="E" horiz-adv-x="1115" 
d="M524 1445q121 83 259 83h3v583q-15 -1 -31 -1q-70 0 -145 26q-42 14 -86 37v-728zM524 1406v-286l-168 -121l-83 -59v-548l44 -32l330 -237l139 99v1015q-23 73 -63 117q-55 58 -135 58q-37 0 -64 -6zM809 238l177 127v-26l-468 -336l-307 221l-161 115v1742l223 171
v-1285l83 60v1289l219 168q118 -213 446 -258q-80 -97 -212 -113v-587q80 -10 156 -61l83 98l17 -15l-256 -298v-1012z" />
    <glyph glyph-name="F" unicode="F" horiz-adv-x="1601" 
d="M800 -155v2355q-38 -3 -67 -3q-49 0 -98 4v-2070q0 -43 -18 -86q-17 -42 -51 -71l13 -20l13 -21q15 -24 26 -40q29 -44 54 -65q35 -30 77 -30q51 1 51 47zM414 360l-21 1q-67 0 -120 -41t-70 -104q34 11 68 11q79 0 143 -56v189zM259 38q17 -5 44 -5q45 0 78 32
q32 31 33 76q-64 64 -143 64q-38 0 -74 -15q-2 -15 -2 -28q0 -17 3 -35q3 -14 7 -29q16 -49 54 -60zM215 1610q60 73 137 73q30 0 62 -11v565q-62 15 -115 32q-31 10 -65 22q-55 20 -110 44l6 22q51 -23 106 -43q31 -11 65 -22q54 -17 113 -32q52 -13 99 -21q36 -6 67 -10
q27 -4 55 -6q50 -4 98 -4q119 1 222 29q70 19 132 50q74 37 136 91q28 27 53 54q98 -80 177 -80q53 0 98 37q-8 -50 -46 -104q-42 -60 -99 -92q-52 -29 -105 -29q-99 0 -200 105q-37 -19 -79 -34v-583h268l117 135l17 -15l-252 -301h-150v-1479q0 -55 -20 -110
q-20 -56 -60 -89q-49 -40 -125 -40h-20q-64 0 -110 21q-41 19 -70 61q-16 22 -37 55l-17 28l-18 28v1q-56 -37 -118 -37q-43 0 -88 17q-71 27 -118 87q-48 63 -48 137v17q-46 -26 -73 -71q-28 -47 -28 -102q0 -82 59 -140q58 -58 140 -58v-23q-91 0 -156 65t-65 156
q0 65 35 120q35 53 92 80q15 76 76 126q61 51 140 51l21 -1v1070q0 15 -15 35q-15 22 -38 34q-21 12 -42 12q-37 0 -66.5 -32t-32.5 -81q0 -40 15 -70q-11 9 -19 19q-41 50 -41 120q0 71 40 121z" />
    <glyph glyph-name="G" unicode="G" horiz-adv-x="1102" 
d="M607 152v1985q-40 14 -83 36v-1053l-251 -180v-548zM766 209l1 1099l285 200v-26l-64 -45v-1071l64 45v-26l-534 -382l-468 336v1742l223 171v-1285l83 60v1289l219 168q157 -234 446 -258h-1l-1 -2q-91 -115 -262 -115q-61 0 -128 21v-1994l18 -13z" />
    <glyph glyph-name="H" unicode="H" horiz-adv-x="1273" 
d="M648 1050v-87h352v87h-352zM512 1414v-1004q38 7 114 11v1125zM845 1802l-197 -230v-491h352v566zM513 1449l113 131v819h22v-793l312 364l263 -268v-1627q0 -350 -244 -399q-43 -9 -86 -9q-80 0 -159 30q93 0 156 59q50 47 79 130q31 91 31 183v863h-352v-532h-22
q-67 -3 -114 -12q-131 -24 -223 -97q-83 -68 -131 -173q181 223 460 223q162 0 292 -59q-162 -104 -199 -300q-95 192 -276 192q-291 0 -327 -267h-22q1 28 3 45q7 54 23 107q52 167 177 260v908q0 49 -28 72t-65 23t-69 -30.5t-32 -76.5t30 -66q-75 37 -75 129q0 71 41 121
q59 73 136 73q30 0 62 -11v893h-198v23h421v-790h1v-138z" />
    <glyph glyph-name="I" unicode="I" horiz-adv-x="967" 
d="M518 388q-131 -24 -222 -97q-84 -68 -131 -173q204 223 459 223q171 0 293 -59q-149 -111 -199 -300q-99 192 -265 192q-167 0 -247.5 -70t-91.5 -197h-21q19 258 203 412l-1 787v121q0 49 -28.5 72t-65.5 23t-69 -30.5t-32 -76.5t30 -66q-75 37 -75 129q0 71 41 121
q59 73 136 73q30 0 62 -11v126h1v304l151 175q-144 17 -225 150l-154 -182l-17 14l156 184l215 252q60 -201 269 -201q100 0 188 35q-180 -227 -360 -251v-1679z" />
    <glyph glyph-name="J" unicode="J" horiz-adv-x="1191" 
d="M781 382q56 21 112 30q31 5 55 7l2 -22q-22 -2 -51 -7q-59 -9 -118 -31q-118 -43 -220 -131l-3 -3q-85 -73 -156 -172q-47 -65 -86 -139q-15 -28 -28 -56q-10 -21 -18 -41l-20 10q-172 97 -191 274q-2 15 -2 29q0 68 35 136q47 87 124 109q11 4 23 5q8 1 16 1t16 -1
q45 -4 88 -33q-11 2 -22 2q-56 0 -94 -46q-31 -38 -31 -81q0 -16 4 -33q17 -70 70 -105q38 -25 90 -30q81 116 179 197l3 3v382l-1 590q0 49 -28 72t-65 23t-69 -30.5t-32 -76.5t30 -66q-75 37 -75 129q0 71 41 121q59 73 136 73q30 0 62 -11v431l151 175q-144 17 -225 150
l-154 -182l-17 14l156 184l215 252q60 -201 269 -201q100 0 188 35q-180 -227 -359 -251v-1685z" />
    <glyph glyph-name="K" unicode="K" horiz-adv-x="1474" 
d="M636 1085l475 383l-289 353l-186 -151v-585zM512 1570v-585l102 82v585zM614 1038l-102 -82v-546q37 7 102 11v617zM289 1461v620l525 403q178 -258 428 -258h17v-1q-108 -115 -265 -115q-228 0 -398 179l-84 -65v-626l102 82v390h22v-372l336 272l317 -388l-402 -325
l338 -390v-621l87 -60l96 117l16 -12l-240 -288l-182 126v622l-296 361l-70 -56v-656h-22q-56 -3 -103 -12q-131 -24 -223 -97q-83 -68 -131 -173q181 223 460 223q162 0 292 -59q-162 -104 -199 -300q-95 192 -276 192q-291 0 -327 -267h-22q1 28 3 45q7 54 23 107
q52 167 177 260l1 920q-4 40 -28 60q-28 23 -65 23t-69 -30.5t-32 -76.5t30 -66q-75 37 -75 129q0 71 41 121q59 73 136 73q30 0 62 -11z" />
    <glyph glyph-name="L" unicode="L" horiz-adv-x="1310" 
d="M289 1462v619l526 402q135 -217 445 -257h-1q-107 -116 -264 -116q-152 0 -326 122v-1892q62 16 116 16q138 0 261 -121l195 227l17 -15l-401 -466q-72 173 -243 173q-135 0 -325 -111v1203q-4 35 -27 54q-28 23 -65 23t-69 -30.5t-32 -76.5t30 -66q-75 37 -75 129
q0 71 41 121q59 73 136 73q30 0 61 -11zM512 284q71 32 134 50v1915q-29 22 -50 40l-84 -65v-1940z" />
    <glyph glyph-name="M" unicode="M" horiz-adv-x="1938" 
d="M1229 1438v835l-43 43l-133 -154v-724h176zM1053 246l86 -60l90 110v961h-176v-1011zM719 1438v835l-44 43l-163 -191v-687h207zM719 356v901h-207v-914q23 5 98 9q68 4 109 4zM1564 1257v-838l-1 -173l87 -60l96 117l17 -12l-240 -288l-182 126v2033l-89 89v-1960
l-240 -288l-182 126v2033l-89 88v-1916h-19q-49 0 -105 -3q-71 -4 -105 -10q-132 -24 -223 -97q-84 -68 -131 -172q150 222 459 222q73 0 140 -11q-85 -103 -85 -258v-11q-131 102 -273 102q-35 0 -143 -19.5t-148 -236.5h-23q6 79 27 152q51 167 177 260v989q-1 15 -15 35
q-16 21 -38 33q-21 12 -42 12q-36 0 -71 -37q-25 -27 -28 -70v-12q0 -34 15 -64q-11 9 -19 19q-41 50 -41 120q0 71 41 121q59 72 137 72q29 0 61 -10v748q0 45 -33 78q-32 32 -78 32t-79 -33q21 64 76 105q56 41 125 41q88 0 150 -62t62 -150v-60l279 325l215 -220l57 -57
l108 125l131 152l263 -268l-1 -778h191l116 135l17 -15l-252 -301h-72z" />
    <glyph glyph-name="N" unicode="N" horiz-adv-x="1437" 
d="M646 1139v-87h319v87h-319zM646 2124v-954h319v992l-155 154zM624 2098l-112 -131v-1624q38 7 114 11zM289 1228q0 46 -26 69.5t-69 23.5q-36 0 -67.5 -32t-31.5 -87q0 -34 15 -64q-11 9 -19 19q-41 50 -41 120q0 71 41 121q59 72 137 72q29 0 61 -10v748q0 45 -33 78
q-32 32 -78 32t-79 -33q21 64 76 105q56 41 125 41q88 0 150 -62t62 -150v-218l414 483l262 -267v-1971l86 -60l96 117l17 -12l-240 -288l-182 126v892h-319l2 -688h-22q-67 -3 -114 -12q-131 -24 -223 -97q-83 -68 -131 -173q181 223 460 223q162 0 292 -59
q-162 -104 -199 -300q-95 192 -276 192q-291 0 -327 -267h-22q1 28 5.5 63.5t20.5 88.5q52 167 177 260v976z" />
    <glyph glyph-name="O" unicode="O" horiz-adv-x="1036" 
d="M647 123l116 83v1904h-10q-122 0 -229 63v-1053l-251 -180v-548zM356 2317l219 167q179 -258 446 -258q-12 -15 -35 -34v-1853l-468 -336l-468 336v1742l223 171v-1285l83 60v1290z" />
    <glyph glyph-name="P" unicode="P" horiz-adv-x="1238" 
d="M965 2162l-155 154l-157 -184v-962h312v992zM512 1967v-1608q63 -1 119 -12v1759zM965 1052v87h-312v-87h312zM821 261q34 -28 48 -51q39 46 96 112v699h-312v-680q100 -24 168 -80zM512 2001l414 483l262 -289v-1648l-205 -239l-98 -113l-166 -192q-31 33 -66 63v-295
h-22v315q-62 50 -119 74v-548q0 -82 54 -138q-103 8 -129 98q-30 -73 -99 -88q21 36 21 70q0 14 -4 28q-47 -78 -125 -78q59 56 59 147v513q-83 -31 -176 -110q54 167 176 246v941q-1 15 -15 35q-16 21 -38 33q-21 12 -42 12q-36 0 -71 -37q-25 -27 -28 -70v-12
q0 -34 15 -64q-10 9 -19 19q-41 50 -41 120q0 71 41 121q59 72 137 72q29 0 61 -10v748q0 45 -33 78q-32 32 -78 32t-79 -33q21 64 76 105q56 41 125 41q88 0 150 -62t62 -150v-218z" />
    <glyph glyph-name="Q" unicode="Q" horiz-adv-x="1036" 
d="M763 207v1903h-10q-69 0 -143 26q-42 14 -86 37v-1053l-251 -180v-549l226 -161q130 -93 149 -106zM356 2316l220 168q2 -3 6 -10l4 -6l5 -7q11 -19 22 -33q34 -46 76 -82q127 -106 332 -120h-1l-1 -2l-3 -4l-4 -4q-5 -5 -11 -10q-7 -7 -15 -14v-1853l-319 -229
q9 -6 17 -12q6 -5 12 -9q9 -7 10 -7q55 -39 66 -106q3 -15 3 -30q0 -50 -31 -92q-31 -43 -81 -60q-26 -9 -52 -9q-24 0 -48 8q35 6 56 35q16 23 16 50q0 7 -1 14q-6 34 -35 55l-549 392v1742l223 171v-1285l83 60v1289z" />
    <glyph glyph-name="R" unicode="R" horiz-adv-x="1422" 
d="M599 349v710l-86 -47v-667q40 3 86 4zM513 2004v-966l86 47v933q-43 -9 -86 -14zM1259 186l96 117l17 -12l-240 -288l-182 126v785l-219 218l-110 -61v-745h-22q-65 -3 -128 -15q-105 -27 -180 -87q-83 -67 -131 -172q91 127 259 184q94 32 191 32q115 0 234 -44
q-98 -102 -117 -245q-130 132 -298 132q-44 -3 -64 -7q-56 -10 -103 -34q-138 -70 -152 -230h-22v13q1 15 3 32q7 54 23 106q52 167 176 260l-1 1190q-1 16 -15 36q-16 21 -38 33q-21 11 -41 11q-37 0 -72 -36q-25 -28 -28 -71v-11q0 -34 15 -65q-11 10 -18 19
q-42 50 -42 121q0 70 41 121q59 72 136 72q29 0 62 -11v365q-74 29 -134 92l16 16q53 -56 119 -84q64 -27 152 -27q34 1 71 5q30 3 59 9l27 6l22 5v-950l292 162l38 21v679q0 102 -25 144q-33 56 -127 56q-42 0 -100 -13l-1 -1l-22 -5l-77 -21q-53 -14 -86 -19
q-29 -4 -56 -4q-68 0 -123 29q-23 12 -44 29q-104 84 -104 264q0 28 3 59q4 -20 21 -49q21 -34 50 -63q76 -76 175 -76h3q54 0 124 15q27 6 62 15l62 17q145 40 230 40q9 0 18 -1q43 -3 81 -14q69 -21 114 -84q44 -62 44 -136v-763l-244 -136l244 -250v-746z" />
    <glyph glyph-name="S" unicode="S" horiz-adv-x="1215" 
d="M96 -27q15 -37 53 -53q19 -7 37 -7q19 0 37 7q38 15 53 53l98 233l-14 -1q-48 -4 -97 -25q-40 -17 -78 -44q-44 -30 -70 -60q-12 -12 -19 -28q-7 -18 -7 -37t7 -38zM482 1848l27 -32l2 -2l123 296q11 34 11 65q0 76 -64 139q-79 79 -166 79q-43 0 -65 -45
q-17 -36 -17 -89q0 -132 40 -233q33 -85 109 -178zM908 1434l2 -1q186 -173 227 -338q28 -113 28 -246q0 -319 -213 -645q-74 -112 -153 -193l-12 11q-187 182 -389 185l-101 -243q-14 -34 -45 -54q-30 -20 -66 -20q-24 0 -46 10q-46 19 -64 65q-9 23 -9 46t9 45q8 20 22 36
q132 146 312 201l258 618q-53 63 -122 121q-43 36 -123 107q-78 68 -126 112l-104 -246q-11 -27 -39 -39q-13 -5 -26 -5q-14 0 -28 6q-27 11 -38 38q-6 14 -6 28t6 27q11 27 39 38l8 -20q-19 -8 -27 -27q-3 -9 -3 -18t3 -19q8 -19 26 -27q10 -4 19 -4q10 0 19 4q19 8 27 26
l106 254q-193 183 -193 367v6q1 89 27 183q8 31 18 60l8 20l2 7q2 4 2 5v-32q3 -35 16 -74q41 -123 175 -266q16 -17 43 -44l17 -17q29 -28 78 -74q18 -17 44 -42l46 -43q119 -111 167 -160l16 -16l15 -17l16 -18l31 -38q120 -146 120 -347q0 -53 -8 -110q-13 -86 -44 -174
l-31 -77v19q0 94 -9 170q-27 181 -151 336l-247 -590q79 20 157 20q49 0 98 -8q122 -20 208 -87q124 272 124 468q0 36 -2 67q-19 233 -130 369q-30 38 -74 82l-17 17q-35 33 -89 80l-45 39l-45 40q-30 26 -93 89q-63 61 -97 97l-15 16q-211 229 -211 415q0 289 162 395
q52 34 116 46q21 3 41 4q7 1 13 1h7q116 0 152 -82q12 -26 15 -58v-34q0 -30 -22 -89q-9 -23 -22 -55l-11 -27l-11 -25l-119 -286l16 -18q32 -35 94 -97q64 -64 97 -94l39 -34l39 -33q51 -44 79 -69l111 264q11 27 39 38q14 6 27 6q14 0 27 -6q27 -11 38 -39q6 -13 6 -27
q0 -13 -6 -27q-11 -27 -39 -39l-8 21q19 8 27 26q4 10 4 19q0 10 -4 19q-8 19 -26 26q-10 4 -20 4q-9 0 -18 -3q-19 -8 -26 -27z" />
    <glyph glyph-name="T" unicode="T" horiz-adv-x="1251" 
d="M761 2320q122 -66 221 -79q25 -3 55 -3q36 0 70 7q27 6 51 16q10 3 19 8q7 3 13 7l5 3l3 2l3 1q0 -23 -12 -55q-17 -41 -48 -74q-88 -93 -260 -93q-13 0 -33 2v-1824l178 127v-26l-468 -336l-308 221l-160 115v1475l222 171v-1152l84 60v1156l168 129v-1191l-168 -121
l-84 -60v-414l44 -32l331 -237l139 99v1843q-73 11 -160 56q-55 28 -154 92q-68 43 -122 71q-72 37 -130 52q-38 9 -70 9q-95 0 -140 -81q0 133 103 200q69 45 155 45q37 0 76 -8q86 -17 195 -76l46 -26l45 -27q60 -35 91 -52z" />
    <glyph glyph-name="U" unicode="U" horiz-adv-x="1435" 
d="M790 318l173 202v1721l-86 60l-87 -105v-1878zM1272 186l96 117l17 -12l-240 -288l-182 126v357l-173 -201l-22 -26l-219 -256l-263 267v1145q-14 42 -59 61q-17 7 -33 7q-37 0 -71 -36q-25 -28 -28 -70v-12q0 -34 15 -64q-10 8 -19 18q-41 50 -41 121t41 121
q59 72 135 72q29 0 60 -10v618l-85 60l-96 -116l-17 11l240 288l182 -126v-2032l155 -155l103 121v1909l236 283l183 -126v-2112z" />
    <glyph glyph-name="V" unicode="V" horiz-adv-x="1547" 
d="M963 438v1806l-86 60l-124 -150v-1961zM1245 1438h-59v-794l-223 -240l-344 -401l-332 335l-1 1066q-14 42 -59 61q-17 7 -33 7q-37 0 -71 -36q-25 -28 -28 -70v-12q0 -34 15 -65q-11 10 -19 19q-41 50 -41 121t41 121q59 72 135 72q29 0 60 -10v632l-86 60l-95 -117
l-17 12l240 288l182 -126l1 -1968l220 -218v1984l273 328l182 -126v-743h178l116 135l17 -14z" />
    <glyph glyph-name="W" unicode="W" horiz-adv-x="1971" 
d="M1386 293v1951l-87 60l-124 -150l1 -1875l108 -107zM510 393l93 -92v1135h-93v-1043zM836 293v1951l-87 60l-124 -150v-1875l109 -107zM1060 393l94 -92v1135h-94v-1043zM1921 1739l-252 -301h-60v-939l-223 -240l-217 -256l-295 297l-256 -297l-333 335v1066
q-13 42 -58 61q-17 7 -33 7q-37 0 -71 -36q-25 -28 -28 -70v-12q0 -34 15 -65q-10 9 -19 19q-41 50 -41 121t41 121q59 72 135 72q28 0 59 -10v632l-85 60l-95 -117l-17 12l240 288l183 -126q-1 -344 -1 -745h93v543l273 328l184 -126v-745h94v543l273 328l182 -126v-743
h179l116 135z" />
    <glyph glyph-name="X" unicode="X" horiz-adv-x="1385" 
d="M249 2300l-96 -117l-16 12l240 288l182 -127l196 -795l148 703l46 219q93 -86 213 -86q79 0 173 30q-105 -186 -302 -186q-52 0 -109 16l-157 -746l4 -17l178 134l-16 59l20 14l45 -167l-561 -418l16 -59l-19 -14l-45 167l170 126l-223 904zM1167 183l95 116l17 -11
l-240 -288l-182 126l-206 835l-149 -710l-47 -223q-95 62 -200 62q-100 0 -205 -53q78 234 316 234q54 0 114 -15l159 754l-2 10l-150 -111l16 -59l-20 -15l-44 167l560 418l-16 59l19 15l45 -168l-198 -148l231 -935z" />
    <glyph glyph-name="Y" unicode="Y" horiz-adv-x="1309" 
d="M624 94q91 46 161 126q134 155 195 440q5 25 11 60h-367v-626zM624 2296v-1382h389q15 186 15 417v676q0 353 -176 353q-35 0 -97 -32t-131 -32zM512 63q37 0 84 19l5 2v2212l-15 1q-49 5 -103 28q29 -42 29 -106v-2156zM624 883v-132h372q8 60 15 132h-387zM969 2426
q105 0 196 -101.5t91 -317.5v-914q0 -445 -151 -711q-194 -342 -620 -342h-200q-43 0 -75 -32q-32 -33 -32 -79t32 -78q33 -32 78 -32l644 -1q87 0 149 -62t62 -149q0 -69 -41 -125q-41 -54 -105 -75q33 33 33 78q0 46 -32 79q-32 32 -77 32h-635q-97 1 -165 69
q-68 69 -68 165t68 165q68 68 165 68h3v1170q0 44 -26 66t-65 22q-40 0 -75 -37q-25 -27 -28 -70v-12q0 -34 15 -64q-11 9 -19 19q-41 50 -41 120q0 71 41 121q59 72 137 72q29 0 61 -10v748q0 56 -33.5 83t-77.5 27q-46 0 -79 -33q21 64 76 105q56 41 125 41
q80 0 153 -56.5t179 -56.5q66 0 148.5 54t188.5 54z" />
    <glyph glyph-name="Z" unicode="Z" horiz-adv-x="1071" 
d="M817 2148l-278 -743h112l313 837q-59 -56 -147 -94zM255 346l282 753h-113l-318 -850q59 57 149 97zM575 1203l37 98h-112l-37 -98h112zM54 2187l259 304q199 -219 389 -219q1 0 96.5 0.5t222.5 52.5l-345 -920h227l23 57h24l-23 -57l-41 -104h-249l-37 -98h248l-42 -104
h-245l-278 -741q110 42 221 42q43 0 86 -6q184 -27 330 -170l86 95l14 -12l-260 -304q-155 223 -346 223t-364 -58l350 931h-260l-22 -56h-24l63 160h282l36 98h-279l41 104h277l274 730q-109 -42 -219 -42q-43 0 -87 7q-183 28 -329 170l-86 -95z" />
    <glyph glyph-name="bracketleft" unicode="[" horiz-adv-x="419" 
d="M50 2530h319v-53h-179v-2774h179v-49h-319v2876z" />
    <glyph glyph-name="backslash" unicode="\" horiz-adv-x="745" 
d="M135 2429l560 -2429h-85l-560 2429h85z" />
    <glyph glyph-name="bracketright" unicode="]" horiz-adv-x="419" 
d="M50 2530h319v-2876h-319v49h179v2774h-179v53z" />
    <glyph glyph-name="asciicircum" unicode="^" horiz-adv-x="704" 
d="M564 1853l-212 460l-212 -460h-90l258 553h88l258 -553h-90z" />
    <glyph glyph-name="underscore" unicode="_" horiz-adv-x="757" 
d="M707 -72v-94h-657v94h657z" />
    <glyph glyph-name="grave" unicode="`" horiz-adv-x="458" 
d="M50 2058l87 87l271 -337l-26 -25z" />
    <glyph glyph-name="a" unicode="a" horiz-adv-x="934" 
d="M518 966v259l-297 203l-18 -17l-129 -150q0 -77 69 -146t175 -106l23 -8q79 -25 177 -35zM518 227v717q-108 11 -192 38l-53 -62v-525zM808 224l59 69l17 -14l-239 -279l-164 129l-110 -129l-321 233v461l252 296q-251 100 -251 276l336 371l354 -245v-1110z" />
    <glyph glyph-name="b" unicode="b" horiz-adv-x="838" 
d="M566 227v1016l-246 169v-1017zM320 1466l145 170l323 -225v-978l-370 -433l-320 233v1834q0 52 -59 110q11 2 21 2q66 0 115 -71q0 46 -34 91q74 -11 104 -84q41 89 125 98q-50 -58 -50 -178v-569z" />
    <glyph glyph-name="c" unicode="c" 
d="M529 220l184 215l19 -12l-361 -423l-321 233v973l368 430l274 -191l19 -13l-15 -17l-118 -138l-35 -40l-103 -120q-15 -18 -15 -41v-5q2 -26 22 -43q18 -16 41 -16h5q26 2 43 22q15 18 15 41v5q-2 27 -21 44l14 17q27 -24 30 -59v-6q0 -31 -21 -56q-23 -27 -58 -30h-6
q-32 0 -57 21q-26 23 -29 58v8q0 31 20 54l96 112l-246 169v-1017z" />
    <glyph glyph-name="d" unicode="d" horiz-adv-x="791" 
d="M518 227v1016l-245 169v-1017zM151 2016q-5 -23 -5 -45q0 -116 89.5 -183.5t505.5 -376.5v-978l-370 -433l-321 233v973l194 226l-67 45q-111 77 -154 168q-21 44 -21 93q0 53 24 110q39 92 125 168z" />
    <glyph glyph-name="e" unicode="e" 
d="M519 1243l-246 169v-456zM417 1636l294 -204l-438 -510v-527l256 -175l185 215l18 -12l-361 -423l-321 233v973z" />
    <glyph glyph-name="f" unicode="f" horiz-adv-x="635" 
d="M572 2393l300 -322l-258 -300l-14 16l83 96l-256 287v-529h194l-66 -78h-128v-1281l67 -58l122 142l17 -15l-301 -351l-214 149l85 92v1322h-153l67 78h86v323l366 427z" />
    <glyph glyph-name="g" unicode="g" horiz-adv-x="957" 
d="M421 -213q21 -11 39 -23l224 -149l104 122l-251 183zM518 227v1017l-245 168v-1017zM905 1277l-164 57v-1238l241 -166l-446 -520q-167 150 -279 187l-81 -92q-34 -39 -84 -39q-62 0 -94 45q-12 17 -18 38q-5 18 -5 32q0 105 85.5 176t201.5 71q71 0 138 -31l119 136h-1
v239l-147 -172l-17 12l-304 221v973l368 430l305 -213l182 64v-210zM159 -480l75 86q-66 23 -116 23t-70.5 -20t-20.5 -53t19.5 -50.5t52.5 -17.5t60 32z" />
    <glyph glyph-name="h" unicode="h" horiz-adv-x="878" 
d="M359 1291l287 344l182 -126v-1086q0 -430 -299 -661q-149 -116 -298 -147q234 167 328 495q46 164 46 294v989l-87 59l-159 -192v-978l85 -71l-181 -211l-213 149l86 92v1826q0 52 -59 110q11 2 21 2q66 0 115 -71q0 46 -34 91q74 -11 104 -84q41 89 125 98
q-50 -58 -50 -178z" />
    <glyph glyph-name="i" unicode="i" horiz-adv-x="674" 
d="M133 1412l-66 -81l-17 15l246 289l213 -149l-86 -92l2 -1151l87 -60l95 117l17 -12l-240 -288l-182 127l-2 1226zM233 1781l157 292h211l-290 -292h-78z" />
    <glyph glyph-name="j" unicode="j" horiz-adv-x="548" 
d="M375 1394v-1346q0 -295 -203 -443q-102 -73 -203 -88q100 87 148 261q35 130 35 270v1305l-67 59l-67 -81l-15 14l245 290l213 -149zM182 1781l157 292h211l-290 -292h-78z" />
    <glyph glyph-name="k" unicode="k" horiz-adv-x="1077" 
d="M427 225l177 207v330l-200 139l-45 -54v-565zM474 1354l-115 -135v-338l296 346zM358 1253l351 410q15 17 15 40v6q-2 26 -22 43q-18 15 -41 15h-5q-26 -2 -43 -22q-15 -18 -15 -41v-5q2 -26 22 -43l-15 -17q-27 23 -29 58v8q0 31 20 55q23 27 58 29h8q31 0 55 -20
q27 -23 29 -59v-8q0 -30 -20 -54l-70 -82l201 -139l-307 -356l277 -193v-460h1v-175l87 -60l95 117l17 -12l-240 -288l-182 127v114h-1v157l-160 -187l-180 -211l-214 149l86 92v1826q0 52 -59 110q11 2 21 2q66 0 115 -71q0 46 -34 91q74 -11 104 -84q41 89 125 98
q-50 -58 -50 -178v-782z" />
    <glyph glyph-name="l" unicode="l" horiz-adv-x="570" 
d="M320 243l87 -60l96 117l17 -12l-240 -288l-182 127v1940q0 52 -59 110q11 2 21 2q66 0 115 -71q0 46 -34 91q74 -11 104 -84q41 89 125 98q-50 -58 -50 -178v-1792z" />
    <glyph glyph-name="m" unicode="m" horiz-adv-x="1602" 
d="M1491 1635l16 -14l-98 -115v-1224l67 -58l59 70l17 -15l-239 -279l-213 149l86 92v1152l-87 59l-159 -191v-979l84 -73l-179 -209l-214 149l86 92v1152l-86 59l-159 -190v-980l84 -72l-180 -210l-213 149l86 92v1152l-87 59l-95 -116l-17 12l240 287l182 -126v-216
l286 342l182 -126v-217l287 343l165 -114z" />
    <glyph glyph-name="n" unicode="n" horiz-adv-x="1132" 
d="M1022 1635l17 -14l-100 -117v-1222l67 -58l59 70l17 -15l-239 -279l-213 149l86 92v1152l-87 59l-157 -189v-981l84 -72l-180 -210l-213 149l86 92v1152l-87 59l-95 -116l-17 12l240 287l182 -126v-215l285 341l166 -115z" />
    <glyph glyph-name="o" unicode="o" horiz-adv-x="791" 
d="M418 1636l323 -225v-978l-370 -433l-321 233v973zM273 395l245 -168v1017l-245 168v-1017z" />
    <glyph glyph-name="p" unicode="p" horiz-adv-x="991" 
d="M718 227v1166l-87 59l-159 -192l1 -864l2 -3zM250 -168h-1v428q-44 42 -90 42q-28 0 -57 -16q53 92 147 132v975l-87 59l-95 -116l-17 12l240 287l182 -126v-217l286 343l183 -126v-1076l-371 -433l-98 72v-436q0 -52 59 -110q-11 -2 -21 -2q-66 0 -115 71q0 -46 34 -91
q-74 11 -104 84q-41 -89 -125 -98q50 58 50 178v164z" />
    <glyph glyph-name="q" unicode="q" horiz-adv-x="791" 
d="M518 224v1017l-245 168v-1017zM519 -332v193h-1v309l-145 -170l-323 225v978l370 433l321 -233v-1767q0 -52 59 -110q-11 -2 -21 -2q-66 0 -115 71q0 -46 34 -91q-74 11 -104 84q-41 -89 -125 -98q50 58 50 178z" />
    <glyph glyph-name="r" unicode="r" horiz-adv-x="1032" 
d="M763 1635l219 -152l-148 -171l-200 140l-162 -190v-980h-1v-39l87 -60l96 117l16 -12l-240 -288l-181 127v1266l-87 59l-95 -116l-17 12l240 287l182 -126v-214z" />
    <glyph glyph-name="s" unicode="s" horiz-adv-x="820" 
d="M538 223l158 219l-386 314q-120 -193 -156 -355q-28 -126 -40 -230q85 169 218 169q112 0 206 -117zM108 1247l327 -267q193 280 243 463q-31 -58 -78 -91q-60 -42 -141 -42q-72 0 -112.5 22t-111.5 74zM452 966l175 -142q91 -75 117 -191q8 -37 8 -71q0 -74 -39 -134
q-5 -8 -303 -428q-76 140 -224 140q-48 0 -99 -22q10 129 45 288q38 167 161 364l-116 95q-108 89 -121 247h-1q0 110 56 179l283 346q65 -116 189 -116q64 0 94.5 25t30.5 60q0 20 -13.5 41t-41.5 21q-10 0 -20 -3l-7 21q12 4 24 4q17 0 32 -7q26 -13 40 -43q9 -18 9 -45
q0 -7 -1 -15q-1 -15 -15 -82q-43 -213 -263 -532z" />
    <glyph glyph-name="t" unicode="t" horiz-adv-x="676" 
d="M427 2067v-427h194l-66 -78h-128v-1319l87 -60l96 117l16 -12l-240 -288l-183 127v1435h-153z" />
    <glyph glyph-name="u" unicode="u" horiz-adv-x="1188" 
d="M716 375v1018l-87 59l-97 -116l-16 12l241 287l166 -115l99 115l17 -14l-100 -117v-1261l87 -60l96 117l16 -12l-240 -288l-182 127v217l-286 -344l-181 127v1266l-87 59l-95 -116l-17 12l240 287l182 -126v-1266l85 -60z" />
    <glyph glyph-name="v" unicode="v" horiz-adv-x="841" 
d="M569 227v1166l-87 59l-178 -214l2 -10l2 -9l6 -28q9 -58 9 -122v-674zM298 1262l311 373l182 -126v-1076l-370 -433l-321 233v831q0 129 -60 285q-39 102 -39 187q0 49 13 92q21 67 55 110q45 59 103 59q37 0 63 -26t26 -63t-27 -64l-16 16q21 20 21 48t-20 47
q-19 20 -47 20q-18 0 -34 -19q-19 -22 -19 -53q0 -97 69 -214q92 -165 110 -227z" />
    <glyph glyph-name="w" unicode="w" horiz-adv-x="1308" 
d="M1037 227v1166l-88 59l-158 -191v-866zM569 227v1166l-87 59l-178 -214l2 -10l2 -9l5 -28q9 -58 9 -122v-674zM791 1292l286 343l181 -126v-1076l-370 -433l-288 210l-180 -210l-320 233v831q0 129 -60 285q-39 102 -39 187q0 49 13 92q21 67 55 110q45 59 103 59
q37 0 63 -26t26 -63t-27 -64l-16 16q21 20 21 48t-20 47q-19 20 -47 20q-18 0 -34 -19q-19 -22 -19 -53q0 -97 80.5 -238t98.5 -203l311 373l182 -126v-217z" />
    <glyph glyph-name="x" unicode="x" horiz-adv-x="1085" 
d="M922 183l96 117l17 -12l-240 -288l-182 127l-132 458l-124 -388q19 -19 37 -43q12 -17 22 -34l-102 -120q-4 9 -12 21t-17 22q-27 36 -59 57q-42 29 -87 29q-49 0 -89 -38q9 42 35 84q53 84 142 84q58 0 112 -46l131 411l-51 176h-141l67 78h52l-148 515l-87 59l-95 -116
l-17 12l240 287l182 -126l132 -461l124 390q-19 19 -37 43q-12 17 -23 34l102 120q83 -128 175 -128q50 0 90 38q-9 -43 -36 -85q-23 -36 -54 -57q-39 -27 -88 -27q-56 0 -111 45l-130 -412l37 -131h197l-67 -78h-108l161 -557z" />
    <glyph glyph-name="y" unicode="y" horiz-adv-x="1237" 
d="M888 -385l105 122l-252 183l-116 -133q21 -11 39 -23zM364 -480l75 86q-66 23 -134 23q-33 0 -55 -21t-22 -51t20 -49.5t54 -19.5t62 32zM943 1394l2 -1298l242 -166l-446 -520q-186 150 -280 187l-81 -92q-34 -39 -83 -39q-54 0 -86 36t-32 79q0 104 86.5 175t179.5 71
t160 -30l118 136h-1v239l-147 -172l-17 12l-302 221v1120l-67 59l-122 -142l-17 15l301 350l214 -149l-87 -92v-999l244 -168l-2 1126l-84 73l180 209l213 -149z" />
    <glyph glyph-name="z" unicode="z" horiz-adv-x="864" 
d="M429 800l-244 -496q173 76 323 76q34 0 68 -4q190 -23 238 -173l-162 -225q-57 189 -419 189q-60 0 -146 -8l66 135l250 506h-268l67 78h239l218 443q-125 -61 -244 -61q-218 0 -365 166l173 216q136 -195 479 -195q23 0 47 1l-281 -570h239l-67 -78h-211z" />
    <glyph glyph-name="braceleft" unicode="{" horiz-adv-x="587" 
d="M50 1028l15 12q7 5 13 10q7 6 14 13q40 42 64 118q36 114 36 296q0 199 -43 479q-5 33 -5 65q0 125 73 243l6 8q16 25 34 48q80 99 124 132q66 49 156 49l-96 -175l-12 1l-14 2q-16 1 -28 2h-7q-28 0 -45 -7q-45 -18 -50 -96q-1 -13 -1 -29t1 -35l1 -15l2 -14
q1 -17 1 -25q3 -62 14 -151l9 -75l8 -75l2 -15l1 -15q2 -19 4 -32q4 -40 7 -72q8 -89 11 -160q1 -34 1 -65q0 -149 -28 -225q-23 -59 -102 -156q109 -81 109 -237q0 -30 -4 -63q-7 -61 -36 -174l-11 -42l-10 -42q-11 -46 -15 -80l-8 -53l-7 -54q-7 -62 -9 -111v-28
q0 -109 28 -189q63 -174 271 -218l-111 -178q-242 39 -300 223q-25 79 -25 194q0 105 21 241q4 32 15 87l5 24l5 25l11 52q26 134 32 222q2 31 2 60q0 220 -129 300z" />
    <glyph glyph-name="bar" unicode="|" horiz-adv-x="193" 
d="M143 2531v-2942h-93v2942h93z" />
    <glyph glyph-name="braceright" unicode="}" horiz-adv-x="587" 
d="M537 1028q-129 -80 -129 -300q0 -29 2 -60q6 -88 32 -222l11 -52l5 -25l5 -24q11 -55 15 -87q21 -136 21 -241q0 -115 -25 -194q-58 -184 -300 -223l-111 178q208 44 271 218q28 80 28 189v28q-2 49 -9 111l-7 54l-8 53q-4 34 -15 80l-10 42l-11 42q-29 113 -36 174
q-4 33 -4 63q0 156 109 237q-79 97 -102 156q-28 76 -28 225q0 31 1 65q3 71 11 160q3 32 7 72q2 13 4 32l1 15l2 15l8 75l9 75q11 89 14 151q0 8 1 25l2 14l1 15q1 19 1 35t-1 29q-5 78 -50 96q-17 7 -45 7h-7q-12 -1 -28 -2l-14 -2l-12 -1l-96 175q90 0 156 -49
q44 -33 124 -132q18 -23 34 -48l6 -8q73 -118 73 -243q0 -32 -5 -65q-43 -280 -43 -479q0 -182 36 -296q24 -76 64 -118q7 -7 14 -13q6 -5 13 -10z" />
    <glyph glyph-name="asciitilde" unicode="~" horiz-adv-x="895" 
d="M769 850q-70 -71 -158 -71q-65 0 -226 53q-80 26 -120 36q-64 16 -110 16q-60 0 -105 -25l2 4l2 3q2 4 5 9l6 10q9 14 18 27q12 17 25 31q72 85 147 85q55 0 148 -26l81 -24l41 -13l41 -12q98 -28 166 -28q73 0 113 32l-6 -10l-6 -12q-9 -14 -17 -26q-22 -34 -47 -59z
" />
    <glyph glyph-name="exclamdown" unicode="&#xa1;" horiz-adv-x="455" 
d="M232 8l-137 73l119 1504l49 22l118 -1453zM237 1922l-129 129l129 128l129 -128z" />
    <glyph glyph-name="cent" unicode="&#xa2;" 
d="M589 2122l-44 -260l166 -110l-173 -193l-37 25l-137 -876l165 -106l184 204l19 -11l-361 -402l-51 36l-31 -212l-50 8l35 235l-224 154v923l368 408l80 -53l41 238zM318 739l137 875l-182 119v-965z" />
    <glyph glyph-name="sterling" unicode="&#xa3;" horiz-adv-x="912" 
d="M343 1991l140 173l313 -264l-141 -173q-136 111 -295 249q4 -6 4 -9q0 -1 -1 -2q-28 -70 -32 -119q-2 -20 -2 -39q0 -95 37 -201q15 -42 37 -88l20 -38l21 -37q49 -91 62 -153h170l-24 -41h-139q2 -23 2 -44q0 -172 -109 -376q-34 -66 -83 -139l-18 -27l-8 -13l-8 -10
q-17 -25 -23 -35l-27 -44q-15 -26 -28 -44q-16 -21 -16 -27q0 -1 2 -1q1 0 4 1l9 5l11 6q15 9 25 11q36 10 81 10q51 0 115 -12l51 -11l50 -12q60 -14 97 -20l12 -1l14 -2l30 -4q38 -5 65 -5q78 1 100 42q1 -11 1 -21q-1 -13 -3 -25q-6 -33 -23 -59q-49 -72 -184 -72
q-45 0 -123 17l-68 16q-42 8 -73 14q-62 10 -121 10q-115 0 -217 -41q22 30 40 57q33 52 54 89l58 105l59 105q46 81 81 196q33 113 33 190v16q-3 78 -39 155h-177l25 41h131l-16 30l-17 28q-21 36 -32 59q-36 71 -50 136q-9 45 -9 89q0 81 30 160q36 92 122 199z" />
    <glyph glyph-name="currency" unicode="&#xa4;" horiz-adv-x="791" 
d="M27 1537l138 -217l253 296l281 -196l74 117l20 -31l-66 -105l14 -10v-738l-88 -103l140 -221l-20 -32l-143 226l-259 -303l-269 195l-75 -118l-20 32l67 106l-24 18v733l92 107l-135 213zM273 615l245 -168v777l-245 168v-777z" />
    <glyph glyph-name="yen" unicode="&#xa5;" horiz-adv-x="797" 
d="M551 1002v853l-77 52l-157 -189l2 -9l2 -8l5 -25q8 -51 8 -107v-419zM197 835h142v26l-202 146v557q0 114 -53 252q-34 90 -34 164q0 44 11 82q19 59 49 97q40 52 91 52q33 0 55 -23q23 -23 23 -56q0 -32 -23 -56l-15 14q19 18 19 42q0 25 -18 42q-16 18 -41 18
q-16 0 -30 -17q-17 -20 -17 -47q0 -86 61 -189l13 -21l13 -22q15 -26 26 -46q29 -56 45 -111l274 329l161 -111v-773l-210 -246v-103h132v-38h-132v-94h132v-38h-132v-103h-1v-35l77 -53l85 104l14 -11l-212 -254l-161 112v240h-142v38h142v94h-142v38z" />
    <glyph glyph-name="brokenbar" unicode="&#xa6;" horiz-adv-x="193" 
d="M143 2531v-1275h-93v1275h93zM143 864v-1275h-93v1275h93z" />
    <glyph glyph-name="section" unicode="&#xa7;" horiz-adv-x="928" 
d="M369 1392q-15 10 -29 13q-7 2 -14 2q-28 0 -50 -26q-26 -29 -26 -66q0 -29 39 -81q13 -16 35 -42l17 -20q9 -12 15 -19q45 -56 106 -128l108 -126l21 21q26 23 44 57q16 29 16 56v3q0 31 -21 56l-94 111l-95 110q-23 27 -72 79zM773 1016q-13 -17 -169 -156l22 -27
l20 -23l21 -24q27 -30 44 -52q50 -62 76 -112q32 -63 32 -119q0 -67 -46 -125q-10 -12 -77 -74q-25 -22 -67 -59l-36 -33l-37 -33q-189 -169 -189 -179l-317 390l181 166l289 -342l71 68q26 23 44 57q17 31 17 58q0 31 -22 57l-94 111l-95 110l-18 22q-16 17 -38 41l-41 42
q-52 55 -81 88q-92 106 -121 191q-7 21 -13 42q-14 55 -14 101v6q2 120 123 230l48 43q-112 123 -144 216q-27 79 -27 141v8q2 120 123 230l109 99l109 100q28 -40 72 -79q39 -35 78 -55q48 -24 95 -24q43 0 71 21q31 24 32 67q39 -60 39 -119q0 -53 -31 -105
q-29 -49 -78 -78q-52 -30 -111 -30q-74 0 -136 40q-20 13 -40 35l-17 19l-17 21q-18 21 -32 33q-21 18 -41 22q-7 2 -14 2q-28 0 -50 -26q-26 -29 -26 -66q0 -29 39 -81q13 -16 35 -43l17 -20q9 -11 15 -18q49 -61 117 -141l60 -69l59 -70l34 -40l18 -20l18 -21
q23 -26 37 -44q44 -53 70 -95q50 -81 50 -151q0 -67 -46 -124z" />
    <glyph glyph-name="dieresis" unicode="&#xa8;" horiz-adv-x="748" 
d="M179 2039l129 -129l-129 -128l-129 128zM569 2039l129 -129l-129 -128l-129 128z" />
    <glyph glyph-name="copyright" unicode="&#xa9;" horiz-adv-x="1836" 
d="M1228 957v-165q-60 -31 -120 -47q-73 -20 -162 -20q-112 0 -214 43q-99 41 -176 116q-76 75 -118 173q-43 101 -43 212q0 110 43 211q42 98 118 173q162 159 390 159q89 0 162 -20q60 -16 120 -47v-166h-1q-131 91 -281 91q-169 0 -289 -118t-120 -283q0 -166 120 -284
t289 -118q75 0 133 18q72 20 148 73zM1430 1772q-212 208 -512 208t-512 -208t-212 -501q0 -294 212 -502t512 -208t512 208t212 502q0 293 -212 501zM1531 665q-254 -250 -613 -250q-176 0 -338 67q-155 66 -276 183q-120 119 -186 273q-68 159 -68 333q0 173 68 332
q66 154 186 273q255 250 614 250q176 0 338 -67q156 -65 275 -183q121 -119 186 -273q69 -159 69 -332q0 -174 -69 -333q-65 -154 -186 -273z" />
    <glyph glyph-name="ordfeminine" unicode="&#xaa;" horiz-adv-x="650" 
d="M359 1996v156l-196 122l-12 -11l-85 -90q0 -3 1 -6q0 -4 1 -8q2 -11 7 -22q13 -30 41 -55q41 -38 111 -60l15 -5q52 -15 117 -21zM359 1553v430q-71 7 -127 23l-35 -37v-315zM550 1551l39 42l11 -9l-157 -167l-109 77l-72 -77l-212 140v276l166 178q-58 19 -97 50
q-31 24 -49 55q-19 33 -19 59v3l221 221l234 -147v-666zM489 1323v-94h-328v94h328z" />
    <glyph glyph-name="guillemotleft" unicode="&#xab;" horiz-adv-x="932" 
d="M420 835v69l462 398v-63l-288 -358v-11l288 -369v-68zM50 835v69l462 398v-63l-288 -358v-11l288 -369v-68z" />
    <glyph glyph-name="logicalnot" unicode="&#xac;" horiz-adv-x="1052" 
d="M894 1983h-844v115h952v-324h-108v209z" />
    <glyph glyph-name="registered" unicode="&#xae;" horiz-adv-x="1836" 
d="M1431 1772q-213 208 -513 208t-511 -208q-213 -208 -213 -501q0 -294 213 -502q211 -208 511 -208t513 208q211 208 211 502q0 293 -211 501zM1532 665q-255 -250 -614 -250q-176 0 -338 67q-155 66 -275 183q-120 119 -187 273q-68 159 -68 333q0 173 68 332
q67 154 187 273q254 250 613 250q176 0 338 -67q156 -65 276 -183q120 -119 186 -273q68 -159 68 -332q0 -174 -68 -333q-66 -154 -186 -273zM768 1660v-328h181q79 0 134 48q56 48 56 116t-56 116q-55 48 -134 48h-181zM1328 777h-174l-288 413h-98v-413h-142v1026h323
q137 0 235 -90q97 -90 97 -217q0 -105 -70 -188q-70 -82 -178 -108z" />
    <glyph glyph-name="macron" unicode="&#xaf;" horiz-adv-x="944" 
d="M894 1983h-844v115h844v-115z" />
    <glyph glyph-name="degree" unicode="&#xb0;" horiz-adv-x="435" 
d="M336 2467q49 -49 49 -118q0 -70 -49 -119t-118 -49q-70 0 -119 49t-49 119q0 69 49 118t119 49q69 0 118 -49zM218 2437q-37 0 -63 -26t-26 -62q0 -37 26 -63t63 -26t62.5 26t25.5 63q0 36 -25.5 62t-62.5 26z" />
    <glyph glyph-name="plusminus" unicode="&#xb1;" horiz-adv-x="872" 
d="M501 912v-321h-130v321h-321v130h321v321h130v-321h321v-130h-321zM50 291v130h772v-130h-772z" />
    <glyph glyph-name="uni00B2" unicode="&#xb2;" horiz-adv-x="519" 
d="M168 1596q-3 -1 -3 -2h2q8 0 52 9q51 12 108 14h28q47 0 114 -11l-75 -151q-73 39 -129 48q-33 6 -67 6q-13 0 -25 -1q-54 -4 -123 -29v47q3 15 14 43q239 363 239 698q0 26 -16 50q-14 22 -39 41q-30 23 -43 28l-51 -58l-60 -68l-44 38l66 77l65 73l60 68
q63 -38 106 -78q39 -36 62 -73q31 -48 31 -91q0 -254 -133.5 -455.5t-138.5 -222.5z" />
    <glyph glyph-name="uni00B3" unicode="&#xb3;" horiz-adv-x="550" 
d="M309 2428l-125 -144l-45 38l141 162l77 88l13 -14h-3l11 -5q1 -1 1 -2q4 -3 9 -5q6 -5 11 -9q33 -24 55 -50q44 -50 44 -102q0 -40 -27 -79l-110 -130q87 -4 118 -62q21 -39 21 -107v-339l-229 -176l-101 76q-26 17 -44 17q-31 0 -31 -42q0 -15 4 -34q-39 45 -39 84
q0 10 7.5 38t35 49t54.5 21t47 -11q14 -7 46 -31l79 -62l32 23v398q0 73 -6 85q-7 13 -49 13h-77l147 168q10 16 10 35q0 30 -30 66q-10 12 -47 43z" />
    <glyph glyph-name="acute" unicode="&#xb4;" horiz-adv-x="458" 
d="M321 2145l87 -87l-332 -275l-26 25z" />
    <glyph glyph-name="paragraph" unicode="&#xb6;" horiz-adv-x="656" 
d="M272 1257v616h-7q-69 0 -133 57q-78 69 -79 179v9q0 114 71 184q94 94 302 99h180v-1144h-121v929h-91v-929h-122z" />
    <glyph glyph-name="periodcentered" unicode="&#xb7;" horiz-adv-x="656" 
d="M160 1309l109 -110l-109 -109l-110 109z" />
    <glyph glyph-name="periodcentered" unicode="&#x2219;" horiz-adv-x="656" 
d="M160 1309l109 -110l-109 -109l-110 109z" />
    <glyph glyph-name="cedilla" unicode="&#xb8;" horiz-adv-x="328" 
d="M188 -109q23 0 41 -8q49 -18 49 -79q0 -94 -103 -103q-10 -1 -22 -1q-25 0 -54 5l-30 6q-13 3 -19 6l14 33q37 -13 71 -13q77 0 77 62v3q-2 49 -58 49q-15 0 -34 -8l-9 7l104 247h28l-92 -214q17 6 37 8z" />
    <glyph glyph-name="uni00B9" unicode="&#xb9;" horiz-adv-x="421" 
d="M177 2492l102 -71v-736l5 -3l39 47l48 -34l-128 -152l-104 70v735l-3 3l-38 -47l-48 34z" />
    <glyph glyph-name="ordmasculine" unicode="&#xba;" horiz-adv-x="556" 
d="M293 2399l213 -135v-587l-244 -260l-212 140v584zM197 1654l162 -101v610l-162 101v-610zM443 1323v-94h-329v94h329z" />
    <glyph glyph-name="guillemotright" unicode="&#xbb;" horiz-adv-x="932" 
d="M50 433v68l288 369v11l-288 358v63l462 -398v-69zM420 433v68l288 369v11l-288 358v63l462 -398v-69z" />
    <glyph glyph-name="onequarter" unicode="&#xbc;" horiz-adv-x="1311" 
d="M177 2114l102 -71v-736l5 -3l39 47l48 -34l-128 -152l-104 70v735l-3 3l-38 -47l-48 34zM1204 1967l-1076 -1811l-75 43l1077 1812zM1219 1093l-412 -766h222v313h140v-313h54v-59h-54v-159l5 -3l39 47l48 -34l-128 -152l-104 70v231h-321l456 850z" />
    <glyph glyph-name="onehalf" unicode="&#xbd;" horiz-adv-x="1956" 
d="M912 107q-3 -1 -3 -2h2q8 0 52 9q51 11 108 14h28q47 0 114 -11l-75 -151q-73 38 -129 47q-34 7 -69 7q-12 0 -23 -1q-54 -4 -123 -29v46q3 16 14 45q239 304 239 637q0 26 -16 50q-14 21 -39 40q-31 24 -43 29l-51 -58l-60 -68l-45 39l67 75l65 73l60 69q63 -38 106 -79
q39 -36 62 -72q31 -48 31 -92q0 -254 -133.5 -425.5t-138.5 -191.5zM177 2114l102 -71v-736l5 -3l39 47l48 -34l-128 -152l-104 70v735l-3 3l-38 -47l-48 34zM1204 1967l-1076 -1811l-75 43l1077 1812z" />
    <glyph glyph-name="threequarters" unicode="&#xbe;" horiz-adv-x="1248" 
d="M1119 1093l-412 -766h222v313h140v-313h54v-59h-54v-159l5 -3l39 47l48 -34l-128 -152l-104 70v231h-321l456 850zM1200 1967l-1076 -1811l-75 43l1077 1812zM300 1981l-125 -144l-45 38l141 162l77 88l13 -14h-3l11 -5q1 -1 1 -2q4 -3 9 -5q6 -5 11 -9q33 -24 55 -50
q44 -50 44 -102q0 -40 -27 -79l-110 -130q87 -4 118 -62q21 -39 21 -107v-339l-229 -176l-101 76q-26 17 -44 17q-31 0 -31 -42q0 -15 4 -34q-39 45 -39 84q0 10 7.5 38t35 49t54.5 21t47 -11q14 -7 46 -31l79 -62l32 23v398q0 73 -6 85q-7 13 -49 13h-77l147 168
q10 16 10 35q0 30 -30 66q-10 12 -47 43z" />
    <glyph glyph-name="questiondown" unicode="&#xbf;" horiz-adv-x="957" 
d="M621 139l-115 -131q-134 84 -268 206q-188 173 -188 365q0 67 193.5 335.5t223.5 386t30 174.5v10q-4 57 -45 119q14 -7 81 -78q70 -75 92 -109q23 -39 23 -92q0 -168 -225 -479q-157 -213 -157 -251q0 -150 139 -263q69 -58 151 -112q26 -17 50 -31q7 -5 14 -9
q2 -1 3 -2h1l1 -1l157 181l108 122l17 -14l-125 -142zM481 1878l-129 129l129 128l129 -128z" />
    <glyph glyph-name="Agrave" unicode="&#xc0;" horiz-adv-x="1605" 
d="M564 2822l87 87l271 -337l-26 -25zM735 259q156 124 327 151l-106 513h-408l-123 -604q27 3 53 3q82 0 152 -18l13 -4q50 -15 92 -41zM579 1073h346l-175 841zM1417 227l121 142l17 -15l-301 -351l-130 104l-58 283q-165 -27 -274.5 -116t-246.5 -263q-63 157 -205 157
t-206.5 -77t-64.5 -154h-19v7q0 5 1 12q4 54 22 101q7 19 16 37q31 61 86 109q42 37 94 65q64 33 133 47l336 1654q-8 39 -13 61q-32 152 -101 183q-17 8 -37 8q-48 0 -112.5 -32.5t-135.5 -32.5q-48 0 -88.5 21.5t-40.5 57.5q29 -29 79 -29q88 0 185 101.5t200 101.5h4
q37 -1 66 -10q42 -13 76 -44q90 -82 133 -291l178 -872l177 -872z" />
    <glyph glyph-name="Aacute" unicode="&#xc1;" horiz-adv-x="1605" 
d="M954 2909l87 -87l-332 -275l-26 25zM735 259q156 124 327 151l-106 513h-408l-123 -604q27 3 53 3q82 0 152 -18l13 -4q50 -15 92 -41zM579 1073h346l-175 841zM1417 227l121 142l17 -15l-301 -351l-130 104l-58 283q-165 -27 -274.5 -116t-246.5 -263q-63 157 -205 157
t-206.5 -77t-64.5 -154h-19v7q0 5 1 12q4 54 22 101q7 19 16 37q31 61 86 109q42 37 94 65q64 33 133 47l336 1654q-8 39 -13 61q-32 152 -101 183q-17 8 -37 8q-48 0 -112.5 -32.5t-135.5 -32.5q-48 0 -88.5 21.5t-40.5 57.5q29 -29 79 -29q88 0 185 101.5t200 101.5h4
q37 -1 66 -10q42 -13 76 -44q90 -82 133 -291l178 -872l177 -872z" />
    <glyph glyph-name="Acircumflex" unicode="&#xc2;" horiz-adv-x="1605" 
d="M803 2649l-223 -104l-21 18l244 243l244 -243l-21 -18zM735 259q156 124 327 151l-106 513h-408l-123 -604q27 3 53 3q82 0 152 -18l13 -4q50 -15 92 -41zM579 1073h346l-175 841zM1417 227l121 142l17 -15l-301 -351l-130 104l-58 283q-165 -27 -274.5 -116t-246.5 -263
q-63 157 -205 157t-206.5 -77t-64.5 -154h-19v7q0 5 1 12q4 54 22 101q7 19 16 37q31 61 86 109q42 37 94 65q64 33 133 47l336 1654q-8 39 -13 61q-32 152 -101 183q-17 8 -37 8q-48 0 -112.5 -32.5t-135.5 -32.5q-48 0 -88.5 21.5t-40.5 57.5q29 -29 79 -29
q88 0 185 101.5t200 101.5h4q37 -1 66 -10q42 -13 76 -44q90 -82 133 -291l178 -872l177 -872z" />
    <glyph glyph-name="Atilde" unicode="&#xc3;" horiz-adv-x="1605" 
d="M953 2659q17 -4 31 -4h9q43 5 76 31q12 11 24 25l9 12l8 11l-13 -18l-13 -20q-16 -22 -29 -39q-34 -44 -65 -70q-53 -45 -108 -45q-31 0 -62 14q-33 15 -89 49l-44 26q-25 14 -45 24l-17 8l-18 8q-21 8 -38 9h-6q-36 0 -68 -38l12 17l12 18q15 21 26 36q31 41 58 63
q24 20 55 20q5 0 11 -1q29 -4 67 -24q19 -10 44 -25l44 -27q53 -33 90 -47l19 -7zM735 259q156 124 327 151l-106 513h-408l-123 -604q27 3 53 3q82 0 152 -18l13 -4q50 -15 92 -41zM579 1073h346l-175 841zM1417 227l121 142l17 -15l-301 -351l-130 104l-58 283
q-165 -27 -274.5 -116t-246.5 -263q-63 157 -205 157t-206.5 -77t-64.5 -154h-19v7q0 5 1 12q4 54 22 101q7 19 16 37q31 61 86 109q42 37 94 65q64 33 133 47l336 1654q-8 39 -13 61q-32 152 -101 183q-17 8 -37 8q-48 0 -112.5 -32.5t-135.5 -32.5q-48 0 -88.5 21.5
t-40.5 57.5q29 -29 79 -29q88 0 185 101.5t200 101.5h4q37 -1 66 -10q42 -13 76 -44q90 -82 133 -291l178 -872l177 -872z" />
    <glyph glyph-name="Adieresis" unicode="&#xc4;" horiz-adv-x="1605" 
d="M608 2803l129 -129l-129 -128l-129 128zM998 2803l129 -129l-129 -128l-129 128zM735 259q156 124 327 151l-106 513h-408l-123 -604q27 3 53 3q82 0 152 -18l13 -4q50 -15 92 -41zM579 1073h346l-175 841zM1417 227l121 142l17 -15l-301 -351l-130 104l-58 283
q-165 -27 -274.5 -116t-246.5 -263q-63 157 -205 157t-206.5 -77t-64.5 -154h-19v7q0 5 1 12q4 54 22 101q7 19 16 37q31 61 86 109q42 37 94 65q64 33 133 47l336 1654q-8 39 -13 61q-32 152 -101 183q-17 8 -37 8q-48 0 -112.5 -32.5t-135.5 -32.5q-48 0 -88.5 21.5
t-40.5 57.5q29 -29 79 -29q88 0 185 101.5t200 101.5h4q37 -1 66 -10q42 -13 76 -44q90 -82 133 -291l178 -872l177 -872z" />
    <glyph glyph-name="Aring" unicode="&#xc5;" horiz-adv-x="1605" 
d="M843 2663q6 -1 12 -1q23 0 32 14q4 6 4 14q0 13 -12 31q-18 28 -55 50q-36 22 -69 26q-6 1 -12 1q-23 0 -31 -14q-4 -6 -4 -14q0 -13 12 -31q18 -28 54 -50t69 -26zM726 2847q24 31 45 46q35 24 72 24q30 0 61 -16q67 -34 67 -108v-8q-2 -45 -34 -91l2 2l-6 -7l-15 -19
q-7 -8 -19 -25l-20 -27q-24 -31 -45 -46q-36 -25 -72 -25q-30 0 -60 17q-64 36 -68 116q2 45 34 91l-2 -2l6 7l15 19q7 9 19 25zM735 259q156 124 327 151l-106 513h-408l-123 -604q27 3 53 3q82 0 152 -18l13 -4q50 -15 92 -41zM579 1073h346l-175 841zM1417 227l121 142
l17 -15l-301 -351l-130 104l-58 283q-165 -27 -274.5 -116t-246.5 -263q-63 157 -205 157t-206.5 -77t-64.5 -154h-19v7q0 5 1 12q4 54 22 101q7 19 16 37q31 61 86 109q42 37 94 65q64 33 133 47l336 1654q-8 39 -13 61q-32 152 -101 183q-17 8 -37 8q-48 0 -112.5 -32.5
t-135.5 -32.5q-48 0 -88.5 21.5t-40.5 57.5q29 -29 79 -29q88 0 185 101.5t200 101.5h4q37 -1 66 -10q42 -13 76 -44q90 -82 133 -291l178 -872l177 -872z" />
    <glyph glyph-name="AE" unicode="&#xc6;" horiz-adv-x="2025" 
d="M721 319q105 56 241 82v522h-373l-186 -568q39 6 80 6q136 0 238 -42zM962 2063l-324 -990h324v990zM1932 2226v-1q-113 -115 -267 -115q-119 0 -230 63v-736q38 30 78 50q51 26 103 36q32 6 63 6q101 0 197 -64l83 98l16 -15l-275 -321q-12 58 -51 109q-58 77 -150 77
q-30 0 -64 -9v-284l-168 -121l-82 -59v-633q163 72 275 72q147 0 259 -122l195 227l17 -15l-401 -466q-84 173 -244 173q-134 0 -324 -111v313q-275 -42 -476 -340q-91 111 -216 111q-111 0 -220 -101q107 254 327 302l582 1775q-16 114 -105 185q-87 70 -209 70
q-93 0 -133 -31q98 106 227 106q133 0 239 -67q103 -64 159 -173l10 -20q38 -86 38 -182v-1045l82 59v1289l219 168q33 -74 137.5 -154t308.5 -104z" />
    <glyph glyph-name="Ccedilla" unicode="&#xc7;" horiz-adv-x="1071" 
d="M786 222v1889q-15 -1 -31 -1q-70 0 -145 26q-42 14 -86 37v-1053l-168 -121l-83 -59v-548l44 -32l330 -237zM504 13l-293 211l-161 115v1742l223 171v-1285l83 60v1289l219 168q118 -213 446 -258q-80 -97 -212 -113v-1875l177 127v-26l-439 -315l-66 -153q24 8 53 11
q33 0 59 -11q70 -26 70 -113q0 -135 -148 -148q-15 -1 -30 -1q-37 0 -78 7l-43 9q-19 4 -27 8l20 48q52 -19 101 -19q110 0 110 88v5q-3 70 -83 70q-21 0 -48 -11l-13 10z" />
    <glyph glyph-name="Egrave" unicode="&#xc8;" horiz-adv-x="1115" 
d="M319 2822l87 87l271 -337l-26 -25zM524 1445q121 83 259 83h3v583q-15 -1 -31 -1q-70 0 -145 26q-42 14 -86 37v-728zM524 1406v-286l-168 -121l-83 -59v-548l44 -32l330 -237l139 99v1015q-23 73 -63 117q-55 58 -135 58q-37 0 -64 -6zM809 238l177 127v-26l-468 -336
l-307 221l-161 115v1742l223 171v-1285l83 60v1289l219 168q118 -213 446 -258q-80 -97 -212 -113v-587q80 -10 156 -61l83 98l17 -15l-256 -298v-1012z" />
    <glyph glyph-name="Eacute" unicode="&#xc9;" horiz-adv-x="1115" 
d="M709 2909l87 -87l-332 -275l-26 25zM524 1445q121 83 259 83h3v583q-15 -1 -31 -1q-70 0 -145 26q-42 14 -86 37v-728zM524 1406v-286l-168 -121l-83 -59v-548l44 -32l330 -237l139 99v1015q-23 73 -63 117q-55 58 -135 58q-37 0 -64 -6zM809 238l177 127v-26l-468 -336
l-307 221l-161 115v1742l223 171v-1285l83 60v1289l219 168q118 -213 446 -258q-80 -97 -212 -113v-587q80 -10 156 -61l83 98l17 -15l-256 -298v-1012z" />
    <glyph glyph-name="Ecircumflex" unicode="&#xca;" horiz-adv-x="1115" 
d="M558 2649l-223 -104l-21 18l244 243l244 -243l-21 -18zM524 1445q121 83 259 83h3v583q-15 -1 -31 -1q-70 0 -145 26q-42 14 -86 37v-728zM524 1406v-286l-168 -121l-83 -59v-548l44 -32l330 -237l139 99v1015q-23 73 -63 117q-55 58 -135 58q-37 0 -64 -6zM809 238
l177 127v-26l-468 -336l-307 221l-161 115v1742l223 171v-1285l83 60v1289l219 168q118 -213 446 -258q-80 -97 -212 -113v-587q80 -10 156 -61l83 98l17 -15l-256 -298v-1012z" />
    <glyph glyph-name="Edieresis" unicode="&#xcb;" horiz-adv-x="1115" 
d="M363 2803l129 -129l-129 -128l-129 128zM753 2803l129 -129l-129 -128l-129 128zM524 1445q121 83 259 83h3v583q-15 -1 -31 -1q-70 0 -145 26q-42 14 -86 37v-728zM524 1406v-286l-168 -121l-83 -59v-548l44 -32l330 -237l139 99v1015q-23 73 -63 117q-55 58 -135 58
q-37 0 -64 -6zM809 238l177 127v-26l-468 -336l-307 221l-161 115v1742l223 171v-1285l83 60v1289l219 168q118 -213 446 -258q-80 -97 -212 -113v-587q80 -10 156 -61l83 98l17 -15l-256 -298v-1012z" />
    <glyph glyph-name="Igrave" unicode="&#xcc;" horiz-adv-x="967" 
d="M245 2822l87 87l271 -337l-26 -25zM917 282q-149 -111 -199 -300q-99 192 -265 192q-167 0 -247.5 -70t-91.5 -197h-21q19 258 203 412l-1 921q0 35 -28 58t-66 23q-36 0 -68 -30.5t-32 -81.5q0 -41 16 -71q-11 9 -19 19q-41 50 -42 120q0 71 41 121q59 73 136 73
q30 0 62 -11v431l151 175q-144 17 -225 150l-154 -182l-17 14l156 184l215 252q60 -201 269 -201q100 0 188 35q-180 -227 -360 -251v-1679q-131 -24 -222 -97q-84 -68 -131 -173q204 223 459 223q171 0 293 -59z" />
    <glyph glyph-name="Iacute" unicode="&#xcd;" horiz-adv-x="967" 
d="M635 2909l87 -87l-332 -275l-26 25zM917 282q-149 -111 -199 -300q-99 192 -265 192q-167 0 -247.5 -70t-91.5 -197h-21q19 258 203 412l-1 921q0 35 -28 58t-66 23q-36 0 -68 -30.5t-32 -81.5q0 -41 16 -71q-11 9 -19 19q-41 50 -42 120q0 71 41 121q59 73 136 73
q30 0 62 -11v431l151 175q-144 17 -225 150l-154 -182l-17 14l156 184l215 252q60 -201 269 -201q100 0 188 35q-180 -227 -360 -251v-1679q-131 -24 -222 -97q-84 -68 -131 -173q204 223 459 223q171 0 293 -59z" />
    <glyph glyph-name="Icircumflex" unicode="&#xce;" horiz-adv-x="967" 
d="M484 2649l-223 -104l-21 18l244 243l244 -243l-21 -18zM917 282q-149 -111 -199 -300q-99 192 -265 192q-167 0 -247.5 -70t-91.5 -197h-21q19 258 203 412l-1 921q0 35 -28 58t-66 23q-36 0 -68 -30.5t-32 -81.5q0 -41 16 -71q-11 9 -19 19q-41 50 -42 120q0 71 41 121
q59 73 136 73q30 0 62 -11v431l151 175q-144 17 -225 150l-154 -182l-17 14l156 184l215 252q60 -201 269 -201q100 0 188 35q-180 -227 -360 -251v-1679q-131 -24 -222 -97q-84 -68 -131 -173q204 223 459 223q171 0 293 -59z" />
    <glyph glyph-name="Idieresis" unicode="&#xcf;" horiz-adv-x="967" 
d="M289 2803l129 -129l-129 -128l-129 128zM679 2803l129 -129l-129 -128l-129 128zM917 282q-149 -111 -199 -300q-99 192 -265 192q-167 0 -247.5 -70t-91.5 -197h-21q19 258 203 412l-1 921q0 35 -28 58t-66 23q-36 0 -68 -30.5t-32 -81.5q0 -41 16 -71q-11 9 -19 19
q-41 50 -42 120q0 71 41 121q59 73 136 73q30 0 62 -11v431l151 175q-144 17 -225 150l-154 -182l-17 14l156 184l215 252q60 -201 269 -201q100 0 188 35q-180 -227 -360 -251v-1679q-131 -24 -222 -97q-84 -68 -131 -173q204 223 459 223q171 0 293 -59z" />
    <glyph glyph-name="Eth" unicode="&#xd0;" horiz-adv-x="1185" 
d="M602 1245v-845l-22 -1q-60 -3 -105 -11q-131 -24 -222 -97q-84 -68 -131 -173q20 29 58 63q46 40 101 73q146 87 300 87q212 0 332 -47v1665q0 102 -24 144q-34 56 -127 56q-49 0 -117 -17l-58 -16l-59 -15q-59 -15 -109 -15q-69 0 -122 29q-149 80 -149 294q0 28 3 58
q5 -20 22 -49q20 -34 49 -63q77 -76 177 -76q56 0 125 15q27 6 62 15l62 17q145 40 230 40q10 0 19 -1q42 -3 80 -14q69 -21 114 -84q44 -62 44 -136v-1767q-313 -109 -460 -392q-96 192 -267 192q-172 0 -251.5 -77.5t-84.5 -189.5h-22q5 110 41 214.5t162 197.5v926h-176
l42 72h134v707q-75 30 -136 93l16 15q97 -109 258 -109q115 0 211 30v-736h131l-42 -72h-89zM475 1317h105v706q-53 -14 -105 -19v-687zM580 1245h-105v-835q35 7 105 11v824z" />
    <glyph glyph-name="Ntilde" unicode="&#xd1;" horiz-adv-x="1437" 
d="M873 2659q17 -4 31 -4h9q43 5 76 31q12 11 24 25l9 12l8 11l-13 -18l-13 -20q-16 -22 -29 -39q-34 -44 -65 -70q-53 -45 -108 -45q-31 0 -62 14q-33 15 -89 49l-44 26q-25 14 -45 24l-17 8l-18 8q-21 8 -38 9h-6q-36 0 -68 -38l12 17l12 18q15 21 26 36q31 41 58 63
q24 20 55 20q5 0 11 -1q29 -4 67 -24q19 -10 44 -25l44 -27q53 -33 90 -47l19 -7zM646 1139v-87h319v87h-319zM646 2124v-954h319v992l-155 154zM624 2098l-112 -131v-1624q38 7 114 11zM289 1228q0 46 -26 69.5t-69 23.5q-36 0 -67.5 -32t-31.5 -87q0 -34 15 -64
q-11 9 -19 19q-41 50 -41 120q0 71 41 121q59 72 137 72q29 0 61 -10v748q0 45 -33 78q-32 32 -78 32t-79 -33q21 64 76 105q56 41 125 41q88 0 150 -62t62 -150v-218l414 483l262 -267v-1971l86 -60l96 117l17 -12l-240 -288l-182 126v892h-319l2 -688h-22q-67 -3 -114 -12
q-131 -24 -223 -97q-83 -68 -131 -173q181 223 460 223q162 0 292 -59q-162 -104 -199 -300q-95 192 -276 192q-291 0 -327 -267h-22q1 28 5.5 63.5t20.5 88.5q52 167 177 260v976z" />
    <glyph glyph-name="Ograve" unicode="&#xd2;" horiz-adv-x="1036" 
d="M297 2822l87 87l271 -337l-26 -25zM647 123l116 83v1904h-10q-122 0 -229 63v-1053l-251 -180v-548zM356 2317l219 167q179 -258 446 -258q-12 -15 -35 -34v-1853l-468 -336l-468 336v1742l223 171v-1285l83 60v1290z" />
    <glyph glyph-name="Oacute" unicode="&#xd3;" horiz-adv-x="1036" 
d="M687 2909l87 -87l-332 -275l-26 25zM647 123l116 83v1904h-10q-122 0 -229 63v-1053l-251 -180v-548zM356 2317l219 167q179 -258 446 -258q-12 -15 -35 -34v-1853l-468 -336l-468 336v1742l223 171v-1285l83 60v1290z" />
    <glyph glyph-name="Ocircumflex" unicode="&#xd4;" horiz-adv-x="1036" 
d="M536 2649l-223 -104l-21 18l244 243l244 -243l-21 -18zM647 123l116 83v1904h-10q-122 0 -229 63v-1053l-251 -180v-548zM356 2317l219 167q179 -258 446 -258q-12 -15 -35 -34v-1853l-468 -336l-468 336v1742l223 171v-1285l83 60v1290z" />
    <glyph glyph-name="Otilde" unicode="&#xd5;" horiz-adv-x="1036" 
d="M682 2679q17 -4 31 -4h9q43 5 76 31q12 11 24 25l9 12l8 11l-13 -18l-13 -20q-16 -22 -29 -39q-34 -44 -65 -70q-53 -45 -108 -45q-31 0 -62 14q-33 15 -89 49l-44 26q-25 14 -45 24l-17 8l-18 8q-21 8 -38 9h-6q-36 0 -68 -38l12 17l12 18q15 21 26 36q31 41 58 63
q24 20 55 20q5 0 11 -1q29 -4 67 -24q19 -10 44 -25l44 -27q53 -33 90 -47l19 -7zM647 123l116 83v1904h-10q-122 0 -229 63v-1053l-251 -180v-548zM356 2317l219 167q179 -258 446 -258q-12 -15 -35 -34v-1853l-468 -336l-468 336v1742l223 171v-1285l83 60v1290z" />
    <glyph glyph-name="Odieresis" unicode="&#xd6;" horiz-adv-x="1036" 
d="M341 2803l129 -129l-129 -128l-129 128zM731 2803l129 -129l-129 -128l-129 128zM647 123l116 83v1904h-10q-122 0 -229 63v-1053l-251 -180v-548zM356 2317l219 167q179 -258 446 -258q-12 -15 -35 -34v-1853l-468 -336l-468 336v1742l223 171v-1285l83 60v1290z" />
    <glyph glyph-name="multiply" unicode="&#xd7;" horiz-adv-x="807" 
d="M407 909l-292 -292l-65 64l292 292l-292 292l65 65l292 -292l286 286l64 -64l-286 -287l286 -286l-64 -64z" />
    <glyph glyph-name="Oslash" unicode="&#xd8;" horiz-adv-x="1036" 
d="M180 248l-127 91v1742l223 171v-827l83 60v832l219 167q110 -159 253 -220l110 340l46 -15l-110 -341q70 -22 147 -22q-12 -15 -35 -34v-1853l-468 -336l-299 215l-104 -323l-47 15zM766 1904l-488 -1513l372 -268l116 83v1698zM276 545l490 1517v48h-10q-122 0 -229 63
v-595l-251 -180v-853z" />
    <glyph glyph-name="Ugrave" unicode="&#xd9;" horiz-adv-x="1435" 
d="M790 318l173 202v1721l-86 60l-87 -105v-1878zM1272 186l96 117l17 -12l-240 -288l-182 126v357l-173 -201l-22 -26l-219 -256l-263 267v1145q-14 42 -59 61q-17 7 -33 7q-37 0 -71 -36q-25 -28 -28 -70v-12q0 -34 15 -64q-10 8 -19 18q-41 50 -41 121t41 121
q59 72 135 72q29 0 60 -10v618l-85 60l-96 -116l-17 11l240 288l182 -126v-2032l155 -155l103 121v1909l236 283l182 -126l1 -2112zM479 2822l87 87l271 -337l-26 -25z" />
    <glyph glyph-name="Uacute" unicode="&#xda;" horiz-adv-x="1435" 
d="M790 318l173 202v1721l-86 60l-87 -105v-1878zM1272 186l96 117l17 -12l-240 -288l-182 126v357l-173 -201l-22 -26l-219 -256l-263 267v1145q-14 42 -59 61q-17 7 -33 7q-37 0 -71 -36q-25 -28 -28 -70v-12q0 -34 15 -64q-10 8 -19 18q-41 50 -41 121t41 121
q59 72 135 72q29 0 60 -10v618l-85 60l-96 -116l-17 11l240 288l182 -126v-2032l155 -155l103 121v1909l236 283l182 -126l1 -2112zM869 2909l87 -87l-332 -275l-26 25z" />
    <glyph glyph-name="Ucircumflex" unicode="&#xdb;" horiz-adv-x="1435" 
d="M790 318l173 202v1721l-86 60l-87 -105v-1878zM1272 186l96 117l17 -12l-240 -288l-182 126v357l-173 -201l-22 -26l-219 -256l-263 267v1145q-14 42 -59 61q-17 7 -33 7q-37 0 -71 -36q-25 -28 -28 -70v-12q0 -34 15 -64q-10 8 -19 18q-41 50 -41 121t41 121
q59 72 135 72q29 0 60 -10v618l-85 60l-96 -116l-17 11l240 288l182 -126v-2032l155 -155l103 121v1909l236 283l183 -126v-2112zM718 2649l-223 -104l-21 18l244 243l244 -243l-21 -18z" />
    <glyph glyph-name="Udieresis" unicode="&#xdc;" horiz-adv-x="1435" 
d="M790 318l173 202v1721l-86 60l-87 -105v-1878zM1272 186l96 117l17 -12l-240 -288l-182 126v357l-173 -201l-22 -26l-219 -256l-263 267v1145q-14 42 -59 61q-17 7 -33 7q-37 0 -71 -36q-25 -28 -28 -70v-12q0 -34 15 -64q-10 8 -19 18q-41 50 -41 121t41 121
q59 72 135 72q29 0 60 -10v618l-85 60l-96 -116l-17 11l240 288l182 -126v-2032l155 -155l103 121v1909l236 283l182 -126l1 -2112zM523 2803l129 -129l-129 -128l-129 128zM913 2803l129 -129l-129 -128l-129 128z" />
    <glyph glyph-name="Yacute" unicode="&#xdd;" horiz-adv-x="1309" 
d="M835 2909l87 -87l-332 -275l-26 25zM624 94q91 46 161 126q134 155 195 440q5 25 11 60h-367v-626zM624 2296v-1382h389q15 186 15 417v676q0 353 -176 353q-35 0 -97 -32t-131 -32zM512 63q37 0 84 19l5 2v2212l-15 1q-49 5 -103 28q29 -42 29 -106v-2156zM624 883v-132
h372q8 60 15 132h-387zM969 2426q105 0 196 -101.5t91 -317.5v-914q0 -445 -151 -711q-194 -342 -620 -342h-200q-43 0 -75 -32q-32 -33 -32 -79t32 -78q33 -32 78 -32l644 -1q87 0 149 -62t62 -149q0 -69 -41 -125q-41 -54 -105 -75q33 33 33 78q0 46 -32 79q-32 32 -77 32
h-635q-97 1 -165 69q-68 69 -68 165t68 165q68 68 165 68h3v1170q0 44 -26 66t-65 22q-40 0 -75 -37q-25 -27 -28 -70v-12q0 -34 15 -64q-11 9 -19 19q-41 50 -41 120q0 71 41 121q59 72 137 72q29 0 61 -10v748q0 56 -33.5 83t-77.5 27q-46 0 -79 -33q21 64 76 105
q56 41 125 41q80 0 153 -56.5t179 -56.5q66 0 148.5 54t188.5 54z" />
    <glyph glyph-name="Thorn" unicode="&#xde;" horiz-adv-x="1241" 
d="M968 899v421h-332v-351h1q212 0 331 -70zM614 374v397q-52 11 -102 12v-418l1 1q24 4 101 8zM614 1811l-102 -71v-781q46 8 102 10v842zM636 1437v-86h332v86h-332zM720 1884l-84 -58v-358h332v408l-107 105l-119 -82zM1006 2108l15 -16l170 -183v-907
q-218 -103 -304 -347q-143 80 -251 111v-412l-22 -1q-68 -3 -101 -10q-132 -23 -223 -97q-83 -67 -131 -172q91 127 259 184q94 32 191 32q115 0 234 -44q-98 -102 -118 -244l-5 6l-6 6q-3 5 -7 9q-11 11 -23 21q-15 13 -32 24q-96 66 -225 66q-4 0 -10 -1q-6 0 -14 -1
q-19 -1 -39 -5q-56 -11 -103 -34q-138 -70 -152 -230h-23v3q1 4 1 9q1 15 3 32q7 54 23 107q51 166 176 259v463q-62 -20 -152 -116q46 156 152 243v378q-1 15 -15 35q-16 21 -38 33q-21 12 -42 12q-36 0 -71 -37q-25 -27 -28 -70v-12q0 -34 15 -64q-10 8 -19 19
q-41 50 -41 120q0 71 41 121q59 72 137 72q29 0 61 -10v748q0 45 -33 78q-32 32 -78 32t-79 -33q21 64 76 105q56 41 125 41q88 0 150 -62t62 -150v-452l102 71v496h22v-481l84 58l22 15z" />
    <glyph glyph-name="germandbls" unicode="&#xdf;" horiz-adv-x="1099" 
d="M442 1424h607l-341 -397l276 -206v-772l-388 -456q-23 44 -65 88q-83 88 -176 88q-67 0 -122 -52q12 58 48 116q73 115 196 115q103 0 185 -86q42 -43 62 -86l38 44v856l-237 173l327 379h-410l1 -1019h-1l2 -2l-30 -34l-147 -173l-2 2l-2 -2l-213 149l57 61q32 34 55 59
q33 35 58 61v1417l368 427l2 2l300 -322l-258 -300l-14 16l83 96l-259 287v-529z" />
    <glyph glyph-name="agrave" unicode="&#xe0;" horiz-adv-x="934" 
d="M518 966v259l-297 203l-18 -17l-129 -150q0 -5 1 -10l2 -14q4 -18 11 -36q20 -50 62 -92q62 -63 168 -100l23 -8q79 -25 177 -35zM518 227v717q-108 11 -192 38l-53 -62v-525zM808 224l59 69l17 -14l-239 -279l-164 129l-110 -129l-321 233v461l252 296q-88 32 -147 83
q-47 41 -74 92q-30 56 -30 101v3l336 368l354 -245v-1110zM228 2058l87 87l271 -337l-26 -25z" />
    <glyph glyph-name="aacute" unicode="&#xe1;" horiz-adv-x="934" 
d="M518 966v259l-297 203l-18 -17l-129 -150q0 -5 1 -10l2 -14q4 -18 11 -36q20 -50 62 -92q62 -63 168 -100l23 -8q79 -25 177 -35zM518 227v717q-108 11 -192 38l-53 -62v-525zM808 224l59 69l17 -14l-239 -279l-164 129l-110 -129l-321 233v461l252 296q-88 32 -147 83
q-47 41 -74 92q-30 56 -30 101v3l336 368l354 -245v-1110zM619 2145l87 -87l-332 -275l-26 25z" />
    <glyph glyph-name="acircumflex" unicode="&#xe2;" horiz-adv-x="934" 
d="M518 966v259l-297 203l-18 -17l-129 -150q0 -5 1 -10l2 -14q4 -18 11 -36q20 -50 62 -92q62 -63 168 -100l23 -8q79 -25 177 -35zM518 227v717q-108 11 -192 38l-53 -62v-525zM808 224l59 69l17 -14l-239 -279l-164 129l-110 -129l-321 233v461l252 296q-88 32 -147 83
q-47 41 -74 92q-30 56 -30 101v3l336 368l354 -245v-1110zM467 1885l-223 -104l-21 18l244 243l244 -243l-21 -18z" />
    <glyph glyph-name="atilde" unicode="&#xe3;" horiz-adv-x="934" 
d="M518 966v259l-297 203l-18 -17l-129 -150q0 -5 1 -10l2 -14q4 -18 11 -36q20 -50 62 -92q62 -63 168 -100l23 -8q79 -25 177 -35zM518 227v717q-108 11 -192 38l-53 -62v-525zM808 224l59 69l17 -14l-239 -279l-164 129l-110 -129l-321 233v461l252 296q-88 32 -147 83
q-47 41 -74 92q-30 56 -30 101v3l336 368l354 -245v-1110zM618 1893q17 -4 31 -4h9q43 5 76 31q12 11 24 25l9 12l8 11l-13 -18l-13 -20q-16 -22 -29 -39q-34 -44 -65 -70q-53 -45 -108 -45q-31 0 -62 14q-33 15 -89 49l-44 26q-25 14 -45 24l-17 8l-18 8q-21 8 -38 9h-6
q-36 0 -68 -38l12 17l12 18q15 21 26 36q31 41 58 63q24 20 55 20q5 0 11 -1q29 -4 67 -24q19 -10 44 -25l44 -27q53 -33 90 -47l19 -7z" />
    <glyph glyph-name="adieresis" unicode="&#xe4;" horiz-adv-x="934" 
d="M518 966v259l-297 203l-18 -17l-129 -150q0 -5 1 -10l2 -14q4 -18 11 -36q20 -50 62 -92q62 -63 168 -100l23 -8q79 -25 177 -35zM518 227v717q-108 11 -192 38l-53 -62v-525zM808 224l59 69l17 -14l-239 -279l-164 129l-110 -129l-321 233v461l252 296q-88 32 -147 83
q-47 41 -74 92q-30 56 -30 101v3l336 368l354 -245v-1110zM272 2039l129 -129l-129 -128l-129 128zM662 2039l129 -129l-129 -128l-129 128z" />
    <glyph glyph-name="aring" unicode="&#xe5;" horiz-adv-x="934" 
d="M518 966v259l-297 203l-18 -17l-129 -150q0 -5 1 -10l2 -14q4 -18 11 -36q20 -50 62 -92q62 -63 168 -100l23 -8q79 -25 177 -35zM518 227v717q-108 11 -192 38l-53 -62v-525zM808 224l59 69l17 -14l-239 -279l-164 129l-110 -129l-321 233v461l252 296q-88 32 -147 83
q-47 41 -74 92q-30 56 -30 101v3l336 368l354 -245v-1110zM507 1899q6 -1 12 -1q23 0 32 14q4 6 4 14q0 13 -12 31q-18 28 -55 50q-36 22 -69 26q-6 1 -12 1q-23 0 -31 -14q-4 -6 -4 -14q0 -13 12 -31q18 -28 54 -50t69 -26zM390 2083q24 31 45 46q35 24 72 24q30 0 61 -16
q67 -34 67 -108v-8q-2 -45 -34 -91l2 2l-6 -7l-15 -19q-7 -8 -19 -25l-20 -27q-24 -31 -45 -46q-36 -25 -72 -25q-30 0 -60 17q-64 36 -68 116q2 45 34 91l-2 -2l6 7l15 19q7 9 19 25z" />
    <glyph glyph-name="ae" unicode="&#xe6;" horiz-adv-x="1250" 
d="M518 966v259l-297 203l-18 -17l-129 -150q0 -5 1 -10l2 -14q4 -18 11 -36q20 -50 62 -92q61 -63 168 -100l23 -8q79 -25 177 -35zM518 227v717q-108 11 -192 38l-53 -62v-525zM741 1412v-456l247 287zM997 220l184 215l19 -12l-361 -423l-298 217l-170 -217l-321 233v461
l252 296q-88 32 -147 83q-47 41 -74 92q-30 56 -30 101v3l336 368l314 -217l184 216l294 -204l-438 -510v-527z" />
    <glyph glyph-name="ccedilla" unicode="&#xe7;" 
d="M280 -150l70 165l-300 218v973l368 430l274 -191l19 -13l-15 -17l-118 -138l-35 -40l-103 -120q-15 -18 -15 -41v-5q2 -26 22 -43q18 -16 41 -16h5q26 2 43 22q15 18 15 41v5q-2 27 -21 44l14 17q27 -24 30 -59v-6q0 -31 -21 -56q-23 -27 -58 -30h-6q-32 0 -57 21
q-26 23 -29 58v8q0 31 20 54l96 112l-246 169v-1017l256 -175l184 215l19 -12l-361 -423h-1l-50 -117q17 6 37 8q23 0 41 -8q49 -18 49 -79q0 -94 -103 -103q-10 -1 -22 -1q-25 0 -54 5l-30 6q-13 3 -19 6l14 33q37 -13 71 -13q77 0 77 62v3q-2 49 -58 49q-15 0 -34 -8z" />
    <glyph glyph-name="egrave" unicode="&#xe8;" 
d="M519 1243l-246 169v-456zM417 1636l294 -204l-438 -510v-527l256 -175l185 215l18 -12l-361 -423l-321 233v973zM152 2058l87 87l271 -337l-26 -25z" />
    <glyph glyph-name="eacute" unicode="&#xe9;" 
d="M417 1636l275 -191l19 -13l-15 -17l-178 -207l-245 -286v-527l256 -175l185 215l18 -12l-361 -423l-321 233v973zM273 1412v-456l245 286v2zM573 2145l87 -87l-332 -275l-26 25z" />
    <glyph glyph-name="ecircumflex" unicode="&#xea;" 
d="M411 1885l-223 -104l-21 18l244 243l244 -243l-21 -18zM519 1243l-246 169v-456zM417 1636l294 -204l-438 -510v-527l256 -175l185 215l18 -12l-361 -423l-321 233v973z" />
    <glyph glyph-name="edieresis" unicode="&#xeb;" 
d="M196 2039l129 -129l-129 -128l-129 128zM586 2039l129 -129l-129 -128l-129 128zM519 1243l-246 169v-456zM417 1636l294 -204l-438 -510v-527l256 -175l185 215l18 -12l-361 -423l-321 233v973z" />
    <glyph glyph-name="igrave" unicode="&#xec;" horiz-adv-x="674" 
d="M133 1412l-66 -81l-17 15l246 289l213 -149l-86 -92l2 -1151l87 -60l95 117l17 -12l-240 -288l-182 127l-2 1226zM98 2058l87 87l271 -337l-26 -25z" />
    <glyph glyph-name="iacute" unicode="&#xed;" horiz-adv-x="674" 
d="M133 1412l-66 -81l-17 15l246 289l213 -149l-86 -92l2 -1151l87 -60l95 117l17 -12l-240 -288l-182 127l-2 1226zM489 2145l87 -87l-332 -275l-26 25z" />
    <glyph glyph-name="icircumflex" unicode="&#xee;" horiz-adv-x="674" 
d="M133 1412l-66 -81l-17 15l246 289l213 -149l-86 -92l2 -1151l87 -60l95 117l17 -12l-240 -288l-182 127l-2 1226zM337 1885l-223 -104l-21 18l244 243l244 -243l-21 -18z" />
    <glyph glyph-name="idieresis" unicode="&#xef;" horiz-adv-x="674" 
d="M133 1412l-66 -81l-17 15l246 289l213 -149l-86 -92l2 -1151l87 -60l95 117l17 -12l-240 -288l-182 127l-2 1226zM132 2039l129 -129l-129 -128l-129 128zM522 2039l129 -129l-129 -128l-129 128z" />
    <glyph glyph-name="eth" unicode="&#xf0;" horiz-adv-x="791" 
d="M518 227v1016l-245 169v-1017zM234 1782q20 -22 45 -43q32 -28 78 -61q130 -93 384 -267v-978l-370 -433l-321 233v973l193 226l-66 45q-67 46 -115 106l-68 -80l-17 14l72 84q-17 23 -27 44q-21 44 -21 92q0 53 25 111q39 92 124 168q-5 -22 -5 -45q0 -86 74 -172l59 69
l17 -14z" />
    <glyph glyph-name="ntilde" unicode="&#xf1;" horiz-adv-x="1132" 
d="M1022 1635l17 -14l-100 -117v-1222l67 -58l59 70l17 -15l-239 -279l-213 149l86 92v1152l-87 59l-157 -189v-981l84 -72l-180 -210l-213 149l86 92v1152l-87 59l-95 -116l-17 12l240 287l182 -126v-215l285 341l166 -115zM714 1888q17 -4 31 -4h9q43 5 76 31q12 11 24 25
l9 12l8 11l-13 -18l-13 -20q-16 -22 -29 -39q-34 -44 -65 -70q-53 -45 -108 -45q-31 0 -62 14q-33 15 -89 49l-44 26q-25 14 -45 24l-17 8l-18 8q-21 8 -38 9h-6q-36 0 -68 -38l12 17l12 18q15 21 26 36q31 41 58 63q24 20 55 20q5 0 11 -1q29 -4 67 -24q19 -10 44 -25
l44 -27q53 -33 90 -47l19 -7z" />
    <glyph glyph-name="ograve" unicode="&#xf2;" horiz-adv-x="791" 
d="M418 1636l323 -225v-978l-370 -433l-321 233v973zM273 395l245 -168v1017l-245 168v-1017zM187 2058l87 87l271 -337l-26 -25z" />
    <glyph glyph-name="oacute" unicode="&#xf3;" horiz-adv-x="791" 
d="M418 1636l323 -225v-978l-370 -433l-321 233v973zM273 395l245 -168v1017l-245 168v-1017zM577 2145l87 -87l-332 -275l-26 25z" />
    <glyph glyph-name="ocircumflex" unicode="&#xf4;" horiz-adv-x="791" 
d="M418 1636l323 -225v-978l-370 -433l-321 233v973zM273 395l245 -168v1017l-245 168v-1017zM426 1885l-223 -104l-21 18l244 243l244 -243l-21 -18z" />
    <glyph glyph-name="otilde" unicode="&#xf5;" horiz-adv-x="791" 
d="M418 1636l323 -225v-978l-370 -433l-321 233v973zM273 395l245 -168v1017l-245 168v-1017zM568 1873q17 -4 31 -4h9q43 5 76 31q12 11 24 25l9 12l8 11l-13 -18l-13 -20q-16 -22 -29 -39q-34 -44 -65 -70q-53 -45 -108 -45q-31 0 -62 14q-33 15 -89 49l-44 26
q-25 14 -45 24l-17 8l-18 8q-21 8 -38 9h-6q-36 0 -68 -38l12 17l12 18q15 21 26 36q31 41 58 63q24 20 55 20q5 0 11 -1q29 -4 67 -24q19 -10 44 -25l44 -27q53 -33 90 -47l19 -7z" />
    <glyph glyph-name="odieresis" unicode="&#xf6;" horiz-adv-x="791" 
d="M418 1636l323 -225v-978l-370 -433l-321 233v973zM273 395l245 -168v1017l-245 168v-1017zM231 2039l129 -129l-129 -128l-129 128zM621 2039l129 -129l-129 -128l-129 128z" />
    <glyph glyph-name="divide" unicode="&#xf7;" horiz-adv-x="871" 
d="M449 825l129 -129l-129 -128l-129 128zM449 1374l129 -129l-129 -128l-129 128zM821 1038v-129h-771v129h771z" />
    <glyph glyph-name="oslash" unicode="&#xf8;" horiz-adv-x="791" 
d="M518 916l-245 -442v-79l245 -168v689zM273 610l245 442v192l-245 168v-802zM888 1584l-147 -265v-886l-370 -433l-257 187l-89 -161l-65 19l100 181l-10 7v973l368 430l305 -213l100 180z" />
    <glyph glyph-name="ugrave" unicode="&#xf9;" horiz-adv-x="1188" 
d="M716 375v1018l-87 59l-97 -116l-16 12l241 287l166 -115l99 115l17 -14l-100 -117v-1261l87 -60l96 117l16 -12l-240 -288l-182 127v217l-286 -344l-181 127v1266l-87 59l-95 -116l-17 12l240 287l182 -126v-1266l85 -60zM355 2058l87 87l271 -337l-26 -25z" />
    <glyph glyph-name="uacute" unicode="&#xfa;" horiz-adv-x="1188" 
d="M716 375v1018l-87 59l-97 -116l-16 12l241 287l166 -115l99 115l17 -14l-100 -117v-1261l87 -60l96 117l16 -12l-240 -288l-182 127v217l-286 -344l-181 127v1266l-87 59l-95 -116l-17 12l240 287l182 -126v-1266l85 -60zM746 2145l87 -87l-332 -275l-26 25z" />
    <glyph glyph-name="ucircumflex" unicode="&#xfb;" horiz-adv-x="1188" 
d="M716 375v1018l-87 59l-97 -116l-16 12l241 287l166 -115l99 115l17 -14l-100 -117v-1261l87 -60l96 117l16 -12l-240 -288l-182 127v217l-286 -344l-181 127v1266l-87 59l-95 -116l-17 12l240 287l182 -126v-1266l85 -60zM594 1885l-223 -104l-21 18l244 243l244 -243
l-21 -18z" />
    <glyph glyph-name="udieresis" unicode="&#xfc;" horiz-adv-x="1188" 
d="M716 375v1018l-87 59l-97 -116l-16 12l241 287l166 -115l99 115l17 -14l-100 -117v-1261l87 -60l96 117l16 -12l-240 -288l-182 127v217l-286 -344l-181 127v1266l-87 59l-95 -116l-17 12l240 287l182 -126v-1266l85 -60zM399 2039l129 -129l-129 -128l-129 128z
M789 2039l129 -129l-129 -128l-129 128z" />
    <glyph glyph-name="yacute" unicode="&#xfd;" horiz-adv-x="1237" 
d="M770 2145l87 -87l-332 -275l-26 25zM888 -385l105 122l-252 183l-116 -133q21 -11 39 -23zM364 -480l75 86q-66 23 -134 23q-33 0 -55 -21t-22 -51t20 -49.5t54 -19.5t62 32zM943 1394l2 -1298l242 -166l-446 -520q-186 150 -280 187l-81 -92q-34 -39 -83 -39
q-54 0 -86 36t-32 79q0 104 86.5 175t179.5 71t160 -30l118 136h-1v239l-147 -172l-17 12l-302 221v1120l-67 59l-122 -142l-17 15l301 350l214 -149l-87 -92v-999l244 -168l-2 1126l-84 73l180 209l213 -149z" />
    <glyph glyph-name="thorn" unicode="&#xfe;" horiz-adv-x="840" 
d="M567 227v1016l-165 114l-80 -96v-866zM322 1293l286 342l182 -126v-1076l-370 -433l-98 72v-404q1 -22 2 -37q2 -22 7 -39q11 -44 39 -61q-10 -2 -20 -2q-27 0 -54 13q-35 18 -52 53v-3q0 -41 24 -77h-3q-61 0 -91 73q-25 -59 -75 -84q-16 -8 -33 -12q-6 -1 -11 -1l-3 -1
h-2q29 21 41 87q5 24 7 52q0 11 1 22v2384q0 22 -2 37q-2 21 -6 38q-12 44 -39 62q10 2 19 2q28 0 54 -14q35 -17 52 -52v6q0 40 -23 74h2q61 0 91 -73q26 59 76 84q16 8 33 11q5 1 11 2h3l2 1q-29 -21 -42 -88q-4 -23 -6 -51q-1 -11 -1 -22q-1 -8 -1 -17v-742z" />
    <glyph glyph-name="ydieresis" unicode="&#xff;" horiz-adv-x="1237" 
d="M424 2039l129 -129l-129 -128l-129 128zM814 2039l129 -129l-129 -128l-129 128zM888 -385l105 122l-252 183l-116 -133q21 -11 39 -23zM364 -480l75 86q-66 23 -134 23q-33 0 -55 -21t-22 -51t20 -49.5t54 -19.5t62 32zM943 1394l2 -1298l242 -166l-446 -520
q-186 150 -280 187l-81 -92q-34 -39 -83 -39q-54 0 -86 36t-32 79q0 104 86.5 175t179.5 71t160 -30l118 136h-1v239l-147 -172l-17 12l-302 221v1120l-67 59l-122 -142l-17 15l301 350l214 -149l-87 -92v-999l244 -168l-2 1126l-84 73l180 209l213 -149z" />
    <glyph glyph-name="Amacron" unicode="&#x100;" horiz-adv-x="1605" 
d="M593 2666h489l-71 -118h-488zM735 259q156 124 327 151l-106 513h-408l-123 -604q27 3 53 3q82 0 152 -18l13 -4q50 -15 92 -41zM579 1073h346l-175 841zM1417 227l121 142l17 -15l-301 -351l-130 104l-58 283q-165 -27 -274.5 -116t-246.5 -263q-63 157 -205 157
t-206.5 -77t-64.5 -154h-19v7q0 5 1 12q4 54 22 101q7 19 16 37q31 61 86 109q42 37 94 65q64 33 133 47l336 1654q-8 39 -13 61q-32 152 -101 183q-17 8 -37 8q-48 0 -112.5 -32.5t-135.5 -32.5q-48 0 -88.5 21.5t-40.5 57.5q29 -29 79 -29q88 0 185 101.5t200 101.5h4
q37 -1 66 -10q42 -13 76 -44q90 -82 133 -291l178 -872l177 -872z" />
    <glyph glyph-name="amacron" unicode="&#x101;" horiz-adv-x="934" 
d="M518 966v259l-297 203l-18 -17l-129 -150q0 -5 1 -10l2 -14q4 -18 11 -36q20 -50 62 -92q62 -63 168 -100l23 -8q79 -25 177 -35zM518 227v717q-108 11 -192 38l-53 -62v-525zM808 224l59 69l17 -14l-239 -279l-164 129l-110 -129l-321 233v461l252 296q-88 32 -147 83
q-47 41 -74 92q-30 56 -30 101v3l336 368l354 -245v-1110zM258 1902h489l-71 -118h-488z" />
    <glyph glyph-name="Abreve" unicode="&#x102;" horiz-adv-x="1605" 
d="M735 259q156 124 327 151l-106 513h-408l-123 -604q27 3 53 3q82 0 152 -18l13 -4q50 -15 92 -41zM579 1073h346l-175 841zM1417 227l121 142l17 -15l-301 -351l-130 104l-58 283q-165 -27 -274.5 -116t-246.5 -263q-63 157 -205 157t-206.5 -77t-64.5 -154h-19v7
q0 5 1 12q4 54 22 101q7 19 16 37q31 61 86 109q42 37 94 65q64 33 133 47l336 1654q-8 39 -13 61q-32 152 -101 183q-17 8 -37 8q-48 0 -112.5 -32.5t-135.5 -32.5q-48 0 -88.5 21.5t-40.5 57.5q29 -29 79 -29q88 0 185 101.5t200 101.5h4q37 -1 66 -10q42 -13 76 -44
q90 -82 133 -291l178 -872l177 -872zM1114 2809q-159 -251 -371 -251q-85 0 -155 36q-74 38 -117 111v2l124 93q89 -116 235 -116q180 0 284 125z" />
    <glyph glyph-name="abreve" unicode="&#x103;" horiz-adv-x="934" 
d="M518 966v259l-297 203l-18 -17l-129 -150q0 -5 1 -10l2 -14q4 -18 11 -36q20 -50 62 -92q62 -63 168 -100l23 -8q79 -25 177 -35zM518 227v717q-108 11 -192 38l-53 -62v-525zM808 224l59 69l17 -14l-239 -279l-164 129l-110 -129l-321 233v461l252 296q-88 32 -147 83
q-47 41 -74 92q-30 56 -30 101v3l336 368l354 -245v-1110zM779 2016q-159 -251 -371 -251q-85 0 -155 36q-74 38 -117 111v2l124 93q89 -116 235 -116q180 0 284 125z" />
    <glyph glyph-name="Aogonek" unicode="&#x104;" horiz-adv-x="1605" 
d="M735 259q156 124 327 151l-106 513h-408l-123 -604q27 3 53 3q82 0 152 -18l13 -4q50 -15 92 -41zM579 1073h346l-175 841zM1237 17l-113 90l-58 283q-165 -27 -274.5 -116t-246.5 -263q-63 157 -205 157t-206.5 -77t-64.5 -154h-19v7q0 5 1 12q4 54 22 101q7 19 16 37
q31 61 86 109q42 37 94 65q64 33 133 47l336 1654q-8 39 -13 61q-32 152 -101 183q-17 8 -37 8q-48 0 -112.5 -32.5t-135.5 -32.5q-48 0 -88.5 21.5t-40.5 57.5q29 -29 79 -29q88 0 185 101.5t200 101.5h4q37 -1 66 -10q42 -13 76 -44q90 -82 133 -291l178 -872l177 -872
l109 -93l121 142l17 -15l-300 -353l-21 -26l-21 -27q-23 -31 -38 -56q-40 -65 -40 -116q0 -105 102 -145q35 -14 72 -14q9 0 18 1q48 4 82 29l-1 -2q-3 -2 -7 -6q-6 -4 -12 -9q-7 -7 -15 -13q-21 -16 -42 -30q-27 -18 -52 -31q-65 -35 -118 -41q-10 -1 -20 -1q-54 0 -90 34
q-39 36 -39 92q0 95 127 261q49 63 97 116z" />
    <glyph glyph-name="aogonek" unicode="&#x105;" horiz-adv-x="934" 
d="M518 966v259l-297 203l-18 -17l-129 -150q0 -5 1 -10l2 -14q4 -18 11 -36q20 -50 62 -92q62 -63 168 -100l23 -8q79 -25 177 -35zM518 227v717q-108 11 -192 38l-53 -62v-525zM605 -13q11 14 22 27l-146 115l-110 -129l-321 233v461l252 296q-88 32 -147 83
q-47 41 -74 92q-30 56 -30 101v3l336 368l354 -245v-1110l67 -58l59 69l17 -14l-2 -2l2 -1l-163 -190l-1 1l-21 -26l-21 -27q-23 -31 -38 -56q-40 -65 -40 -116q0 -105 102 -145q35 -14 72 -14q9 0 18 1q48 4 82 29l-1 -2q-3 -2 -7 -6q-6 -4 -12 -9q-7 -7 -15 -13
q-21 -16 -42 -30q-27 -18 -52 -31q-65 -35 -118 -41q-10 -1 -19 -1q-54 0 -91 34q-39 36 -39 92q0 95 127 261z" />
    <glyph glyph-name="Cacute" unicode="&#x106;" horiz-adv-x="1071" 
d="M687 2909l87 -87l-332 -275l-26 25zM786 222v1889q-15 -1 -31 -1q-70 0 -145 26q-42 14 -86 37v-1053l-168 -121l-83 -59v-548l44 -32l330 -237zM356 2316l219 168q118 -213 446 -258q-80 -97 -212 -113v-1875l177 127v-26l-468 -336l-307 221l-161 115v1742l223 171
v-1285l83 60v1289z" />
    <glyph glyph-name="cacute" unicode="&#x107;" 
d="M543 2145l87 -87l-332 -275l-26 25zM529 220l184 215l19 -12l-361 -423l-321 233v973l368 430l274 -191l19 -13l-15 -17l-118 -138l-35 -40l-103 -120q-15 -18 -15 -41v-5q2 -26 22 -43q18 -16 41 -16h5q26 2 43 22q15 18 15 41v5q-2 27 -21 44l14 17q27 -24 30 -59v-6
q0 -31 -21 -56q-23 -27 -58 -30h-6q-32 0 -57 21q-26 23 -29 58v8q0 31 20 54l96 112l-246 169v-1017z" />
    <glyph glyph-name="Ccircumflex" unicode="&#x108;" horiz-adv-x="1071" 
d="M536 2649l-223 -104l-21 18l244 243l244 -243l-21 -18zM786 222v1889q-15 -1 -31 -1q-70 0 -145 26q-42 14 -86 37v-1053l-168 -121l-83 -59v-548l44 -32l330 -237zM356 2316l219 168q118 -213 446 -258q-80 -97 -212 -113v-1875l177 127v-26l-468 -336l-307 221
l-161 115v1742l223 171v-1285l83 60v1289z" />
    <glyph glyph-name="ccircumflex" unicode="&#x109;" 
d="M391 1885l-223 -104l-21 18l244 243l244 -243l-21 -18zM529 220l184 215l19 -12l-361 -423l-321 233v973l368 430l274 -191l19 -13l-15 -17l-118 -138l-35 -40l-103 -120q-15 -18 -15 -41v-5q2 -26 22 -43q18 -16 41 -16h5q26 2 43 22q15 18 15 41v5q-2 27 -21 44l14 17
q27 -24 30 -59v-6q0 -31 -21 -56q-23 -27 -58 -30h-6q-32 0 -57 21q-26 23 -29 58v8q0 31 20 54l96 112l-246 169v-1017z" />
    <glyph glyph-name="Cdotaccent" unicode="&#x10a;" horiz-adv-x="1071" 
d="M536 2803l129 -129l-129 -128l-129 128zM786 222v1889q-15 -1 -31 -1q-70 0 -145 26q-42 14 -86 37v-1053l-168 -121l-83 -59v-548l44 -32l330 -237zM356 2316l219 168q118 -213 446 -258q-80 -97 -212 -113v-1875l177 127v-26l-468 -336l-307 221l-161 115v1742l223 171
v-1285l83 60v1289z" />
    <glyph glyph-name="cdotaccent" unicode="&#x10b;" 
d="M421 2039l129 -129l-129 -128l-129 128zM529 220l184 215l19 -12l-361 -423l-321 233v973l368 430l274 -191l19 -13l-15 -17l-118 -138l-35 -40l-103 -120q-15 -18 -15 -41v-5q2 -26 22 -43q18 -16 41 -16h5q26 2 43 22q15 18 15 41v5q-2 27 -21 44l14 17q27 -24 30 -59
v-6q0 -31 -21 -56q-23 -27 -58 -30h-6q-32 0 -57 21q-26 23 -29 58v8q0 31 20 54l96 112l-246 169v-1017z" />
    <glyph glyph-name="Ccaron" unicode="&#x10c;" horiz-adv-x="1071" 
d="M536 2702l223 104l21 -18l-244 -243l-244 243l21 18zM786 222v1889q-15 -1 -31 -1q-70 0 -145 26q-42 14 -86 37v-1053l-168 -121l-83 -59v-548l44 -32l330 -237zM356 2316l219 168q118 -213 446 -258q-80 -97 -212 -113v-1875l177 127v-26l-468 -336l-307 221l-161 115
v1742l223 171v-1285l83 60v1289z" />
    <glyph glyph-name="ccaron" unicode="&#x10d;" 
d="M391 1938l223 104l21 -18l-244 -243l-244 243l21 18zM529 220l184 215l19 -12l-361 -423l-321 233v973l368 430l274 -191l19 -13l-15 -17l-118 -138l-35 -40l-103 -120q-15 -18 -15 -41v-5q2 -26 22 -43q18 -16 41 -16h5q26 2 43 22q15 18 15 41v5q-2 27 -21 44l14 17
q27 -24 30 -59v-6q0 -31 -21 -56q-23 -27 -58 -30h-6q-32 0 -57 21q-26 23 -29 58v8q0 31 20 54l96 112l-246 169v-1017z" />
    <glyph glyph-name="Dcaron" unicode="&#x10e;" horiz-adv-x="1213" 
d="M677 2702l222 104l22 -18l-244 -243l-244 243l21 18zM503 2004v-1594q35 7 105 11v1602q-53 -14 -105 -19zM925 2375q42 -3 80 -14q69 -21 114 -84q44 -62 44 -136v-1767q-313 -109 -460 -392q-96 192 -267 192q-172 0 -251.5 -77.5t-84.5 -189.5h-22q5 110 41 214.5
t162 197.5v946q-22 40 -63 52q-11 3 -23 3q-37 0 -72 -36q-25 -27 -28 -70v-12q0 -34 15 -64q-11 9 -19 19q-41 49 -41 120t41 121q59 72 136 72q26 0 54 -8v562q-75 30 -136 93l16 15q97 -109 258 -109q115 0 211 30v-1653l-22 -1q-60 -3 -105 -11q-131 -24 -222 -97
q-84 -68 -131 -173q20 29 58 63q46 40 101 73q146 87 300 87q212 0 332 -47v1665q0 102 -24 144q-34 56 -127 56q-49 0 -117 -17l-58 -16l-59 -15q-59 -15 -109 -15q-69 0 -122 29q-149 80 -149 294q0 28 3 58q5 -20 22 -49q20 -34 49 -63q77 -76 177 -76q56 0 125 15
q27 6 62 15l62 17q145 40 230 40q10 0 19 -1z" />
    <glyph glyph-name="dcaron" unicode="&#x10f;" horiz-adv-x="808" 
d="M518 227v1016l-245 169v-1017zM151 2016q-5 -23 -5 -45q0 -116 133 -232q33 -29 79 -61q132 -95 383 -267v-978l-370 -433l-321 233v973l194 226l-67 45q-111 77 -154 168q-21 44 -21 93q0 53 24 110q39 92 125 168zM586 1676l-20 19q61 52 69 94l-115 117l129 128
l129 -128q-50 -147 -192 -230z" />
    <glyph glyph-name="Dcroat" unicode="&#x110;" horiz-adv-x="1185" 
d="M602 1245v-845l-22 -1q-60 -3 -105 -11q-131 -24 -222 -97q-84 -68 -131 -173q20 29 58 63q46 40 101 73q146 87 300 87q212 0 332 -47v1665q0 102 -24 144q-34 56 -127 56q-49 0 -117 -17l-58 -16l-59 -15q-59 -15 -109 -15q-69 0 -122 29q-149 80 -149 294q0 28 3 58
q5 -20 22 -49q20 -34 49 -63q77 -76 177 -76q56 0 125 15q27 6 62 15l62 17q145 40 230 40q10 0 19 -1q42 -3 80 -14q69 -21 114 -84q44 -62 44 -136v-1767q-313 -109 -460 -392q-96 192 -267 192q-172 0 -251.5 -77.5t-84.5 -189.5h-22q5 110 41 214.5t162 197.5v926h-176
l42 72h134v707q-75 30 -136 93l16 15q97 -109 258 -109q115 0 211 30v-736h131l-42 -72h-89zM475 1317h105v706q-53 -14 -105 -19v-687zM580 1245h-105v-835q35 7 105 11v824z" />
    <glyph glyph-name="dcroat" unicode="&#x111;" horiz-adv-x="1000" 
d="M518 238v1005l-245 168v-1016l239 -164q3 4 6 7zM811 223l122 142l17 -14l-301 -351l-171 119v7l-107 -126l-321 233v972l368 430l103 -71v250h-186l67 78h119v143q-1 21 -2 36q-2 22 -7 39q-11 44 -39 61q11 2 21 2q27 0 52 -13q36 -18 53 -52v3q0 41 -24 76h3
q61 0 91 -72q25 58 75 83q16 8 33 12q6 1 11 2h5q-29 -20 -41 -87q-5 -24 -7 -52q-1 -10 -1 -21v-160h163l-67 -78h-96v-1532z" />
    <glyph glyph-name="Emacron" unicode="&#x112;" horiz-adv-x="1115" 
d="M348 2666h489l-71 -118h-488zM524 1445q121 83 259 83h3v583q-15 -1 -31 -1q-70 0 -145 26q-42 14 -86 37v-728zM524 1406v-286l-168 -121l-83 -59v-548l44 -32l330 -237l139 99v1015q-23 73 -63 117q-55 58 -135 58q-37 0 -64 -6zM809 238l177 127v-26l-468 -336
l-307 221l-161 115v1742l223 171v-1285l83 60v1289l219 168q118 -213 446 -258q-80 -97 -212 -113v-587q80 -10 156 -61l83 98l17 -15l-256 -298v-1012z" />
    <glyph glyph-name="emacron" unicode="&#x113;" 
d="M182 1902h489l-71 -118h-488zM519 1243l-246 169v-456zM417 1636l294 -204l-438 -510v-527l256 -175l185 215l18 -12l-361 -423l-321 233v973z" />
    <glyph glyph-name="Ebreve" unicode="&#x114;" horiz-adv-x="1115" 
d="M524 1445q121 83 259 83h3v583q-15 -1 -31 -1q-70 0 -145 26q-42 14 -86 37v-728zM524 1406v-286l-168 -121l-83 -59v-548l374 -269l139 99v1015q-23 73 -63 117q-55 58 -135 58q-37 0 -64 -6zM809 238l177 127v-26l-468 -336l-468 336v1742l223 171v-1285l83 60v1289
l219 168q118 -213 446 -258q-80 -97 -212 -113v-587q80 -10 156 -61l83 98l17 -15l-256 -298v-1012zM891 2809q-159 -251 -371 -251q-85 0 -155 36q-74 38 -117 111v2l124 93q89 -116 235 -116q180 0 284 125z" />
    <glyph glyph-name="ebreve" unicode="&#x115;" 
d="M715 2021q-159 -251 -371 -251q-85 0 -155 36q-74 38 -117 111v2l124 93q89 -116 235 -116q180 0 284 125zM519 1243l-246 169v-456zM417 1636l294 -204l-438 -510v-527l256 -175l185 215l18 -12l-361 -423l-321 233v973z" />
    <glyph glyph-name="Edotaccent" unicode="&#x116;" horiz-adv-x="1115" 
d="M558 2803l129 -129l-129 -128l-129 128zM524 1445q121 83 259 83h3v583q-15 -1 -31 -1q-70 0 -145 26q-42 14 -86 37v-728zM524 1406v-286l-168 -121l-83 -59v-548l374 -269l139 99v1015q-23 73 -63 117q-55 58 -135 58q-37 0 -64 -6zM809 238l177 127v-26l-468 -336
l-468 336v1742l223 171v-1285l83 60v1289l219 168q118 -213 446 -258q-80 -97 -212 -113v-587q80 -10 156 -61l83 98l17 -15l-256 -298v-1012z" />
    <glyph glyph-name="edotaccent" unicode="&#x117;" 
d="M391 2039l129 -129l-129 -128l-129 128zM519 1243l-246 169v-456zM417 1636l294 -204l-438 -510v-527l256 -175l185 215l18 -12l-361 -423l-321 233v973z" />
    <glyph glyph-name="Eogonek" unicode="&#x118;" horiz-adv-x="1115" 
d="M525 1445q121 83 259 83h3v583q-15 -1 -31 -1q-70 0 -145 26q-42 14 -86 37v-728zM525 1406v-286l-168 -121l-83 -59v-548l374 -269l139 99v1015q-23 73 -63 117q-55 58 -135 58q-37 0 -64 -6zM549 21.5q-48 -41.5 -65 -61.5q-47 -53 -55 -99q-3 -15 -3 -29
q0 -75 73 -119q37 -22 80 -26q8 -1 16 -1q34 0 63 15l-1 -2q-3 -1 -8 -4q-6 -3 -12 -7q-7 -5 -15 -9q-22 -11 -43 -21q-28 -12 -52 -20q-59 -19 -105 -19h-9q-62 5 -95 48q-23 30 -23 68q0 10 2 21q15 86 157 217q24 22 48 43l-451 323v1742l223 171v-1285l83 60v1289
l219 168q118 -213 446 -258q-80 -97 -212 -113v-587q80 -10 156 -61l83 98l17 -15l-256 -298v-1012l177 127v-26q-390 -276 -438 -317.5z" />
    <glyph glyph-name="eogonek" unicode="&#x119;" 
d="M273 1412v-456l246 287zM300 -46q25 32 50 62l-300 217v973l367 430l275 -191l19 -13l-15 -17l-423 -493v-527l256 -175l185 215l18 -12l-153 -180l-159 -186l-35 -40l-12 -16q-23 -31 -38 -56q-40 -65 -40 -116q0 -105 102 -145q35 -14 72 -14q9 0 18 1q48 4 82 29
l-1 -2q-3 -2 -7 -6q-6 -4 -12 -9q-7 -7 -15 -13q-21 -16 -42 -30q-27 -18 -52 -31q-65 -35 -118 -41q-10 -1 -19 -1q-54 0 -91 34q-39 36 -39 92q0 95 127 261z" />
    <glyph glyph-name="Ecaron" unicode="&#x11a;" horiz-adv-x="1115" 
d="M524 1445q121 83 259 83h3v583q-15 -1 -31 -1q-70 0 -145 26q-42 14 -86 37v-728zM524 1406v-286l-168 -121l-83 -59v-548l374 -269l139 99v1015q-23 73 -63 117q-55 58 -135 58q-37 0 -64 -6zM809 238l177 127v-26l-468 -336l-468 336v1742l223 171v-1285l83 60v1289
l219 168q118 -213 446 -258q-80 -97 -212 -113v-587q80 -10 156 -61l83 98l17 -15l-256 -298v-1012zM558 2702l223 104l21 -18l-244 -243l-244 243l21 18z" />
    <glyph glyph-name="ecaron" unicode="&#x11b;" 
d="M391 1938l223 104l21 -18l-244 -243l-244 243l21 18zM519 1243l-246 169v-456zM417 1636l294 -204l-438 -510v-527l256 -175l185 215l18 -12l-361 -423l-321 233v973z" />
    <glyph glyph-name="Gcircumflex" unicode="&#x11c;" horiz-adv-x="1102" 
d="M607 152v1985q-40 14 -83 36v-1053l-251 -180v-548zM766 209l1 1099l285 200v-26l-64 -45v-1071l64 45v-26l-534 -382l-468 336v1742l223 171v-1285l83 60v1289l219 168q157 -234 446 -258h-1l-1 -2q-91 -115 -262 -115q-61 0 -128 21v-1994l18 -13zM551 2649l-223 -104
l-21 18l244 243l244 -243l-21 -18z" />
    <glyph glyph-name="gcircumflex" unicode="&#x11d;" horiz-adv-x="957" 
d="M421 -213q21 -11 39 -23l224 -149l104 122l-251 183zM159 -480l75 86q-66 23 -133 23q-33 0 -55 -22q-19 -20 -22 -49v-9q0 -22 13 -39q17 -22 52 -22q43 0 70 32zM518 227v1017l-245 168v-1017zM905 1277l-164 57v-1238l241 -166l-446 -520l-1 2l-2 1l-3 3q-4 3 -7 7
l-10 8q-29 26 -61 51q-101 78 -195 115l-81 -92q-34 -39 -84 -39q-62 0 -94 45q-12 17 -18 38q-5 18 -5 32q0 159 146 219q68 28 137 28h9q66 -1 133 -31l119 136h-1v239l-147 -172l-17 12l-304 221v973l368 430l305 -213l182 64v-210zM429 1885l-223 -104l-21 18l244 243
l244 -243l-21 -18z" />
    <glyph glyph-name="Gbreve" unicode="&#x11e;" horiz-adv-x="1102" 
d="M607 152v1985q-40 14 -83 36v-1053l-251 -180v-548zM766 209l1 1099l285 200v-26l-64 -45v-1071l64 45v-26l-534 -382l-468 336v1742l223 171v-1285l83 60v1289l219 168q3 -3 7 -10l4 -6l4 -7q12 -19 23 -33q34 -46 76 -82q127 -105 332 -120h-1l-1 -2l-5 -5q-3 -4 -8 -8
q-5 -6 -11 -11q-14 -13 -31 -25q-21 -15 -44 -26q-77 -40 -163 -40q-61 0 -128 21v-1994l18 -13zM869 2803q-159 -251 -371 -251q-85 0 -155 36q-74 38 -117 111v2l124 93q89 -116 235 -116q180 0 284 125z" />
    <glyph glyph-name="gbreve" unicode="&#x11f;" horiz-adv-x="957" 
d="M421 -213q21 -11 39 -23l224 -149l104 122l-251 183zM159 -480l75 86q-66 23 -133 23q-33 0 -55 -22q-19 -20 -22 -49v-9q0 -22 13 -39q17 -22 52 -22q43 0 70 32zM518 227v1017l-245 168v-1017zM905 1277l-164 57v-1238l241 -166l-446 -520l-1 2l-2 1l-3 3q-4 3 -7 7
l-10 8q-29 26 -61 51q-101 78 -195 115l-81 -92q-34 -39 -84 -39q-62 0 -94 45q-12 17 -18 38q-5 18 -5 32q0 159 146 219q68 28 137 28h9q66 -1 133 -31l119 136h-1v239l-147 -172l-17 12l-304 221v973l368 430l305 -213l182 64v-210zM826 2037q-159 -251 -371 -251
q-85 0 -155 36q-74 38 -117 111v2l124 93q89 -116 235 -116q180 0 284 125z" />
    <glyph glyph-name="Gdotaccent" unicode="&#x120;" horiz-adv-x="1102" 
d="M607 152v1985q-40 14 -83 36v-1053l-251 -180v-548zM766 209l1 1099l285 200v-26l-64 -45v-1071l64 45v-26l-534 -382l-468 336v1742l223 171v-1285l83 60v1289l219 168q3 -3 7 -10l4 -6l4 -7q12 -19 23 -33q34 -46 76 -82q127 -105 332 -120h-1l-1 -2l-5 -5q-3 -4 -8 -8
q-5 -6 -11 -11q-14 -13 -31 -25q-21 -15 -44 -26q-77 -40 -163 -40q-61 0 -128 21v-1994l18 -13zM551 2803l129 -129l-129 -128l-129 128z" />
    <glyph glyph-name="gdotaccent" unicode="&#x121;" horiz-adv-x="957" 
d="M421 -213q21 -11 39 -23l224 -149l104 122l-251 183zM159 -480l75 86q-66 23 -133 23q-33 0 -55 -22q-19 -20 -22 -49v-9q0 -22 13 -39q17 -22 52 -22q43 0 70 32zM518 227v1017l-245 168v-1017zM905 1277l-164 57v-1238l241 -166l-446 -520l-1 2l-2 1l-3 3q-4 3 -7 7
l-10 8q-29 26 -61 51q-101 78 -195 115l-81 -92q-34 -39 -84 -39q-62 0 -94 45q-12 17 -18 38q-5 18 -5 32q0 159 146 219q68 28 137 28h9q66 -1 133 -31l119 136h-1v239l-147 -172l-17 12l-304 221v973l368 430l305 -213l182 64v-210zM479 2039l129 -129l-129 -128
l-129 128z" />
    <glyph glyph-name="uni0122" unicode="&#x122;" horiz-adv-x="1102" 
d="M607 152v1985q-40 14 -83 36v-1053l-251 -180v-548zM766 209l1 1099l285 200v-26l-64 -45v-1071l64 45v-26l-534 -382l-468 336v1742l223 171v-1285l83 60v1289l219 168q3 -3 7 -10l4 -6l4 -7q12 -19 23 -33q34 -46 76 -82q127 -105 332 -120h-1l-1 -2l-5 -5q-3 -4 -8 -8
q-5 -6 -11 -11q-14 -13 -31 -25q-21 -15 -44 -26q-77 -40 -163 -40q-61 0 -128 21v-1994l18 -13zM476 -517l-20 19q61 52 69 94l-115 117l129 128l129 -128q-50 -147 -192 -230z" />
    <glyph glyph-name="uni0123" unicode="&#x123;" horiz-adv-x="957" 
d="M421 -213q21 -11 39 -23l224 -149l104 122l-251 183zM159 -480l75 86q-66 23 -133 23q-33 0 -55 -22q-19 -20 -22 -49v-9q0 -22 13 -39q17 -22 52 -22q43 0 70 32zM518 227v1017l-245 168v-1017zM905 1277l-164 57v-1238l241 -166l-446 -520l-1 2l-2 1l-3 3q-4 3 -7 7
l-10 8q-29 26 -61 51q-101 78 -195 115l-81 -92q-34 -39 -84 -39q-62 0 -94 45q-12 17 -18 38q-5 18 -5 32q0 159 146 219q68 28 137 28h9q66 -1 133 -31l119 136h-1v239l-147 -172l-17 12l-304 221v973l368 430l305 -213l182 64v-210zM522 2135l20 -19q-61 -52 -69 -94
l115 -117l-129 -128l-129 128q50 147 192 230z" />
    <glyph glyph-name="Hcircumflex" unicode="&#x124;" horiz-adv-x="1273" 
d="M637 2649l-223 -104l-21 18l244 243l244 -243l-21 -18zM648 1050v-87h352v87h-352zM512 1414v-1004q38 7 114 11v1125zM845 1802l-197 -230v-491h352v566zM435 174q-291 0 -327 -267h-22q1 28 3 45q7 54 23 107q52 167 177 260v921q0 15 -15 35q-15 22 -37 34t-42 12
q-37 0 -72 -37q-25 -27 -28 -76q0 -40 15 -70q-11 9 -19 19q-41 50 -41 120q0 71 41 121q59 73 136 73q30 0 62 -11v894h-198v23h421v-929l114 132v819h22v-793l312 364l263 -268v-1627q0 -350 -244 -399q-43 -9 -86 -9q-80 0 -159 30q93 0 156 59q50 47 79 130
q31 91 31 183v863h-352v-532h-22q-67 -3 -114 -12q-131 -24 -223 -97q-83 -68 -131 -173q181 223 460 223q162 0 292 -59q-162 -104 -199 -300q-95 192 -276 192z" />
    <glyph glyph-name="hcircumflex" unicode="&#x125;" horiz-adv-x="878" 
d="M359 1291l287 344l182 -126v-1086q0 -430 -299 -661q-149 -116 -298 -147q234 167 328 495q46 164 46 294v989l-87 59l-159 -192v-978l85 -71l-181 -211l-213 149l86 92v1794q-1 21 -3 37q-2 21 -6 38q-11 44 -39 62q10 2 19 2q28 0 54 -14q36 -17 52 -52v6q0 40 -23 74
h2q61 0 91 -73q26 59 76 84q16 8 33 11q5 1 11 2h3l2 1q-29 -21 -42 -88q-4 -23 -6 -51q-1 -11 -1 -22q0 -9 -1 -17zM455 2499l-223 -104l-21 18l244 243l244 -243l-21 -18z" />
    <glyph glyph-name="Hbar" unicode="&#x126;" horiz-adv-x="1273" 
d="M648 1050v-87h352v87h-352zM845 1802l-197 -230v-491h352v566zM512 1414v-1004q38 7 114 11v1125zM648 2142v-536l312 364l263 -268v-1627q0 -350 -244 -399q-43 -9 -86 -9q-80 0 -159 30q93 0 156 59q50 47 79 130q31 91 31 183v863h-352v-532h-22q-67 -3 -114 -12
q-131 -24 -223 -97q-83 -68 -131 -173q181 223 460 223q162 0 292 -59q-162 -104 -199 -300q-95 192 -276 192q-291 0 -327 -267h-22q1 28 3 45q7 54 23 107q52 167 177 260v921q0 15 -15 35q-15 22 -37 34t-42 12q-37 0 -72 -37q-25 -27 -28 -76q0 -40 15 -70q-11 9 -19 19
q-41 50 -41 120q0 71 41 121q59 73 136 73q30 0 62 -11v682h-198v59h198v153h-198v23h421v-176h114v198h22v-198h231v-59h-231zM512 2142v-694l114 132v562h-114z" />
    <glyph glyph-name="hbar" unicode="&#x127;" horiz-adv-x="850" 
d="M649 1734h-319l1 -443l287 344l182 -126v-1086q0 -430 -299 -661q-149 -116 -298 -147q234 167 328 495q46 164 46 294v989l-87 59l-159 -192v-978l85 -71l-181 -211l-213 149l86 92v1493h-116v68h116v233q-1 21 -3 37q-2 21 -6 38q-11 44 -39 62q10 2 19 2q28 0 54 -14
q36 -17 52 -52v6q0 40 -23 74h2q61 0 91 -73q26 59 76 84q16 8 33 11q5 1 11 2h3l2 1q-29 -21 -42 -88q-4 -23 -6 -51q-1 -11 -1 -22q0 -9 -1 -17v-233h319v-68z" />
    <glyph glyph-name="Itilde" unicode="&#x128;" horiz-adv-x="967" 
d="M638 2659q17 -4 31 -4h9q43 5 76 31q12 11 24 25l9 12l8 11l-13 -18l-13 -20q-16 -22 -29 -39q-34 -44 -65 -70q-53 -45 -108 -45q-31 0 -62 14q-33 15 -89 49l-44 26q-25 14 -45 24l-17 8l-18 8q-21 8 -38 9h-6q-36 0 -68 -38l12 17l12 18q15 21 26 36q31 41 58 63
q24 20 55 20q5 0 11 -1q29 -4 67 -24q19 -10 44 -25l44 -27q53 -33 90 -47l19 -7zM917 282q-149 -111 -199 -300q-99 192 -265 192q-167 0 -247.5 -70t-91.5 -197h-21q19 258 203 412l-1 921q0 35 -28 58t-66 23q-36 0 -68 -30.5t-32 -81.5q0 -41 16 -71q-11 9 -19 19
q-41 50 -42 120q0 71 41 121q59 73 136 73q30 0 62 -11v431l151 175q-144 17 -225 150l-154 -182l-17 14l156 184l215 252q60 -201 269 -201q100 0 188 35q-180 -227 -360 -251v-1679q-131 -24 -222 -97q-84 -68 -131 -173q204 223 459 223q171 0 293 -59z" />
    <glyph glyph-name="itilde" unicode="&#x129;" horiz-adv-x="674" 
d="M133 1412l-66 -81l-17 15l246 289l213 -149l-86 -92l2 -1151l87 -60l95 117l17 -12l-240 -288l-182 127l-2 1226zM499 1893q17 -4 31 -4h9q43 5 76 31q12 11 24 25l9 12l8 11l-13 -18l-13 -20q-16 -22 -29 -39q-34 -44 -65 -70q-53 -45 -108 -45q-31 0 -62 14
q-33 15 -89 49l-44 26q-25 14 -45 24l-17 8l-18 8q-21 8 -38 9h-6q-36 0 -68 -38l12 17l12 18q15 21 26 36q31 41 58 63q24 20 55 20q5 0 11 -1q29 -4 67 -24q19 -10 44 -25l44 -27q53 -33 90 -47l19 -7z" />
    <glyph glyph-name="Imacron" unicode="&#x12a;" horiz-adv-x="967" 
d="M274 2666h489l-71 -118h-488zM917 282q-149 -111 -199 -300q-99 192 -265 192q-167 0 -247.5 -70t-91.5 -197h-21q19 258 203 412l-1 921q0 35 -28 58t-66 23q-36 0 -68 -30.5t-32 -81.5q0 -41 16 -71q-11 9 -19 19q-41 50 -42 120q0 71 41 121q59 73 136 73q30 0 62 -11
v431l151 175q-144 17 -225 150l-154 -182l-17 14l156 184l215 252q60 -201 269 -201q100 0 188 35q-180 -227 -360 -251v-1679q-131 -24 -222 -97q-84 -68 -131 -173q204 223 459 223q171 0 293 -59z" />
    <glyph glyph-name="imacron" unicode="&#x12b;" horiz-adv-x="674" 
d="M133 1412l-66 -81l-17 15l246 289l213 -149l-86 -92l2 -1151l87 -60l95 117l17 -12l-240 -288l-182 127l-2 1226zM128 1902h489l-71 -118h-488z" />
    <glyph glyph-name="Ibreve" unicode="&#x12c;" horiz-adv-x="967" 
d="M869 2798q-159 -251 -371 -251q-85 0 -155 36q-74 38 -117 111v2l124 93q89 -116 235 -116q180 0 284 125zM917 282q-149 -111 -199 -300q-99 192 -265 192q-167 0 -247.5 -70t-91.5 -197h-21q19 258 203 412l-1 921q0 35 -28 58t-66 23q-36 0 -68 -30.5t-32 -81.5
q0 -41 16 -71q-11 9 -19 19q-41 50 -42 120q0 71 41 121q59 73 136 73q30 0 62 -11v431l151 175q-144 17 -225 150l-154 -182l-17 14l156 184l215 252q60 -201 269 -201q100 0 188 35q-180 -227 -360 -251v-1679q-131 -24 -222 -97q-84 -68 -131 -173q204 223 459 223
q171 0 293 -59z" />
    <glyph glyph-name="ibreve" unicode="&#x12d;" horiz-adv-x="674" 
d="M133 1412l-66 -81l-17 15l246 289l213 -149l-86 -92l2 -1151l87 -60l95 117l17 -12l-240 -288l-182 127l-2 1226zM661 2032q-159 -251 -371 -251q-85 0 -155 36q-74 38 -117 111v2l124 93q89 -116 235 -116q180 0 284 125z" />
    <glyph glyph-name="Iogonek" unicode="&#x12e;" horiz-adv-x="967" 
d="M371 169l-45 -108h-1l-13 -33l-12 -34q-13 -39 -20 -69q-11 -43 -11 -80q0 -27 7 -51q30 -107 139 -116q8 -1 17 -1q37 0 73 16q45 18 70 54v-2q-2 -3 -5 -8q-5 -6 -9 -13q-5 -10 -10 -18q-16 -23 -32 -44q-21 -27 -41 -47q-52 -57 -101 -79q-31 -14 -59 -14
q-29 0 -55 14q-48 24 -65 81q-7 27 -7 61q0 93 53 245q37 105 79 190l22 52q-88 -16 -139 -61q-81 -70 -92 -197h-21q19 258 203 412l-1 921q0 35 -28 58t-66 23q-36 0 -68 -30.5t-32 -81.5q0 -41 16 -71q-11 9 -19 19q-41 50 -42 120q0 71 41 121q59 73 136 73q30 0 62 -11
v431l151 175q-144 17 -225 150l-154 -182l-17 14l156 184l215 252q60 -201 269 -201q100 0 188 35q-180 -227 -360 -251v-1679q-131 -24 -222 -97q-84 -68 -131 -173q204 223 459 223q171 0 293 -59q-149 -111 -199 -300q-99 192 -265 192q-44 0 -82 -5z" />
    <glyph glyph-name="iogonek" unicode="&#x12f;" horiz-adv-x="674" 
d="M233 1781l157 292h211l-290 -292h-78zM310 -46q25 33 50 63l-158 110l-2 1226l-67 59l-66 -81l-17 15l246 289l213 -149l-86 -92l2 -1151l87 -60l95 117l17 -12q-264 -318 -279 -343q-40 -65 -40 -116q0 -105 102 -145q35 -14 72 -14q9 0 18 1q48 4 82 29l-1 -2
q-3 -2 -7 -6q-6 -4 -12 -9q-7 -7 -15 -13q-21 -16 -42 -30q-27 -18 -52 -31q-65 -35 -118 -41q-10 -1 -19 -1q-54 0 -91 34q-39 36 -39 92q0 95 127 261z" />
    <glyph glyph-name="Idotaccent" unicode="&#x130;" horiz-adv-x="967" 
d="M484 2803l129 -129l-129 -128l-129 128zM917 282q-149 -111 -199 -300q-99 192 -265 192q-167 0 -247.5 -70t-91.5 -197h-21q19 258 203 412l-1 921q0 35 -28 58t-66 23q-36 0 -68 -30.5t-32 -81.5q0 -41 16 -71q-11 9 -19 19q-41 50 -42 120q0 71 41 121q59 73 136 73
q30 0 62 -11v431l151 175q-144 17 -225 150l-154 -182l-17 14l156 184l215 252q60 -201 269 -201q100 0 188 35q-180 -227 -360 -251v-1679q-131 -24 -222 -97q-84 -68 -131 -173q204 223 459 223q171 0 293 -59z" />
    <glyph glyph-name="dotlessi" unicode="&#x131;" horiz-adv-x="674" 
d="M133 1412l-66 -81l-17 15l246 289l213 -149l-86 -92l2 -1151l87 -60l95 117l17 -12l-240 -288l-182 127l-2 1226z" />
    <glyph glyph-name="IJ" unicode="&#x132;" horiz-adv-x="2067" 
d="M917 282q-149 -111 -199 -300q-99 192 -265 192q-167 0 -247.5 -70t-91.5 -197h-21q19 258 203 412l-1 921q0 35 -28 58t-66 23q-36 0 -68 -30.5t-32 -81.5q0 -41 16 -71q-11 9 -19 19q-41 50 -42 120q0 71 41 121q59 73 136 73q30 0 62 -11v431l151 175
q-144 17 -225 150l-154 -182l-17 14l156 184l215 252q60 -201 269 -201q100 0 188 35q-180 -227 -360 -251v-1679q-131 -24 -222 -97q-84 -68 -131 -173q204 223 459 223q171 0 293 -59zM1658 382q56 21 112 30q31 5 55 7l2 -22q-22 -2 -51 -7q-59 -9 -118 -31
q-118 -43 -220 -131l-3 -3q-85 -73 -156 -172q-47 -65 -86 -139q-15 -28 -28 -56q-10 -21 -18 -41l-20 10q-172 97 -191 274q-2 15 -2 29q0 68 35 136q47 87 124 109q11 4 23 5q8 1 16 1t16 -1q45 -4 88 -33q-11 2 -22 2q-56 0 -94 -46q-31 -38 -31 -81q0 -16 4 -33
q17 -70 70 -105q38 -25 90 -30q81 116 179 197l3 3v382l-1 604q0 35 -28 58t-66 23q-36 0 -68 -30.5t-32 -81.5q0 -41 16 -71q-11 9 -19 19q-41 50 -42 120q0 71 41 121q59 73 136 73q30 0 62 -11v431l151 175q-144 17 -225 150l-154 -182l-17 14l156 184l215 252
q60 -201 269 -201q100 0 188 35q-180 -227 -359 -251v-1685z" />
    <glyph glyph-name="ij" unicode="&#x133;" horiz-adv-x="1086" 
d="M83 1412l-66 -81l-17 15l246 289l213 -149l-86 -92l2 -1151l87 -60l95 117l17 -12l-240 -288l-182 127l-2 1226zM183 1781l157 292h211l-290 -292h-78zM950 1394v-1346q0 -295 -203 -443q-102 -73 -203 -88q100 87 148 261q35 130 35 270v1305l-67 59l-67 -81l-15 14
l245 290l213 -149zM757 1781l157 292h211l-290 -292h-78z" />
    <glyph glyph-name="Jcircumflex" unicode="&#x134;" horiz-adv-x="1191" 
d="M781 382q56 21 112 30q31 5 55 7l2 -22q-22 -2 -51 -7q-59 -9 -118 -31q-118 -43 -220 -131l-3 -3q-85 -73 -156 -172q-47 -65 -86 -139q-15 -28 -28 -56q-10 -21 -18 -41l-20 10q-172 97 -191 274q-2 15 -2 29q0 68 35 136q47 87 124 109q11 4 23 5q8 1 16 1t16 -1
q45 -4 88 -33q-11 2 -22 2q-56 0 -94 -46q-31 -38 -31 -81q0 -16 4 -33q17 -70 70 -105q38 -25 90 -30q81 116 179 197l3 3v382l-1 604q0 35 -28 58t-66 23q-36 0 -68 -30.5t-32 -81.5q0 -41 16 -71q-11 9 -19 19q-41 50 -42 120q0 71 41 121q59 73 136 73q30 0 62 -11v431
l151 175q-144 17 -225 150l-154 -182l-17 14l156 184l215 252q60 -201 269 -201q100 0 188 35q-180 -227 -359 -251v-1685zM599 2649l-223 -104l-21 18l244 243l244 -243l-21 -18z" />
    <glyph glyph-name="jcircumflex" unicode="&#x135;" horiz-adv-x="592" 
d="M456 1394v-1346q0 -295 -203 -443q-102 -73 -203 -88q100 87 148 261q35 130 35 270v1305l-67 59l-67 -81l-15 14l245 290l213 -149zM588 1799l-21 -18l-223 104l-223 -104l-21 18l244 243z" />
    <glyph glyph-name="uni0136" unicode="&#x136;" horiz-adv-x="1474" 
d="M636 1085l475 383l-289 353l-186 -151v-585zM614 421v617l-102 -82v-546q33 6 102 11zM512 1570v-585l102 82v585zM1312 186l96 117l16 -12l-240 -288l-182 126v622l-296 361l-9 -7l-22 -18l-39 -31v-656l-22 -1q-60 -3 -102 -11q-132 -24 -223 -97q-84 -68 -131 -173
q65 91 182 152l20 10q73 35 152 50q55 11 105 11q102 0 188 -21l18 -4q32 -9 64 -23h1l22 -11q-82 -62 -137 -155q-39 -67 -62 -145q-6 17 -13 30q-36 69 -89 109q-69 53 -163 53h-30q-35 -2 -70 -8q-110 -19 -171 -77q-35 -33 -52 -79l-5 -19q-6 -31 -9 -60q-1 -9 -1 -17
v-7h-23v4q1 4 1 9q1 15 3 32q7 54 23 107q52 167 177 260v921q0 22 -26 48q-28 29 -63 32q-6 0 -14 -1q-33 -4 -63 -35q-25 -27 -28 -70v-12q0 -34 15 -64q-10 9 -19 19q-41 50 -41 120q0 71 41 121q59 73 136 73q30 0 62 -11v621l386 296l22 17l117 90q3 -3 7 -10l4 -6
l4 -7q12 -19 23 -33q34 -46 76 -82q127 -105 332 -120h-1v-1l-7 -7q-3 -4 -6 -7q-8 -8 -17 -15q-11 -10 -23 -19q-32 -22 -67 -38q-44 -19 -92 -26l-22 -2q-15 -1 -31 -1q-70 0 -145 26q-67 23 -136 66l-16 11l-22 15h-1q-38 27 -78 61l-84 -65v-626l102 82v390h22v-372
l39 31l22 18l275 223l317 -388l-402 -325l338 -390v-621zM685 -517l-20 19q61 52 69 94l-115 117l129 128l129 -128q-50 -147 -192 -230z" />
    <glyph glyph-name="uni0137" unicode="&#x137;" horiz-adv-x="1077" 
d="M466 -517l-20 19q61 52 69 94l-115 117l129 128l129 -128q-50 -147 -192 -230zM427 225l177 207v330l-200 139l-45 -54v-565zM474 1354l-115 -135v-338l296 346zM358 1253l351 410q15 17 15 40v6q-2 26 -22 43q-18 15 -41 15h-5q-26 -2 -43 -22q-15 -18 -15 -41v-5
q2 -26 22 -43l-15 -17q-27 23 -29 58v8q0 31 20 55q23 27 58 29h8q31 0 55 -20q27 -23 29 -59v-8q0 -30 -20 -54l-70 -82l201 -139l-307 -356l277 -193v-460h1v-175l87 -60l95 117l17 -12l-240 -288l-182 127v114h-1v157l-160 -187l-180 -211l-214 149l86 92v1826
q0 52 -59 110q11 2 21 2q66 0 115 -71q0 46 -34 91q74 -11 104 -84q41 89 125 98q-50 -58 -50 -178v-782z" />
    <glyph glyph-name="kgreenlandic" unicode="&#x138;" horiz-adv-x="1187" 
d="M537 225l177 207v330l-200 139l-45 -54v-565zM627 1412l-158 -193v-338l339 404zM791 1636l219 -151l-350 -414l277 -193v-460h1v-175l87 -60l95 117l17 -12l-240 -288l-182 127v114h-1v157l-160 -187l-180 -211l-214 149l86 92v1154l-84 57l-96 -116l-16 12l240 287
l182 -126v-252z" />
    <glyph glyph-name="Lacute" unicode="&#x139;" horiz-adv-x="1310" 
d="M807 2909l87 -87l-332 -275l-26 25zM646 334v1915q-29 22 -50 40l-84 -65v-1940q71 32 134 50zM289 2081l526 402q135 -217 445 -257h-1q-107 -116 -264 -116q-152 0 -326 122v-1892q62 16 116 16q138 0 261 -121l195 227l17 -15l-401 -466q-72 173 -243 173
q-135 0 -325 -111v1197q0 15 -14 35q-16 22 -38 34t-42 12q-37 0 -72 -37q-25 -27 -28 -70v-12q0 -34 15 -64q-10 8 -19 19q-41 50 -41 120q0 71 41 121q59 73 136 73q30 0 62 -11v621z" />
    <glyph glyph-name="lacute" unicode="&#x13a;" horiz-adv-x="570" 
d="M377 2764l87 -87l-332 -275l-26 25zM320 243l87 -60l96 117l17 -12l-240 -288l-182 127v1940q0 52 -59 110q11 2 21 2q66 0 115 -71q0 46 -34 91q74 -11 104 -84q41 89 125 98q-50 -58 -50 -178v-1792z" />
    <glyph glyph-name="uni013B" unicode="&#x13b;" horiz-adv-x="1310" 
d="M616 -517l-20 19q61 52 69 94l-115 117l129 128l129 -128q-50 -147 -192 -230zM646 334v1915q-29 22 -50 40l-84 -65v-1940q71 32 134 50zM289 2081l526 402q135 -217 445 -257h-1q-107 -116 -264 -116q-152 0 -326 122v-1892q62 16 116 16q138 0 261 -121l195 227
l17 -15l-401 -466q-72 173 -243 173q-135 0 -325 -111v1197q0 15 -14 35q-16 22 -38 34t-42 12q-37 0 -72 -37q-25 -27 -28 -70v-12q0 -34 15 -64q-10 8 -19 19q-41 50 -41 120q0 71 41 121q59 73 136 73q30 0 62 -11v621z" />
    <glyph glyph-name="uni013C" unicode="&#x13c;" horiz-adv-x="570" 
d="M202 -517l-20 19q61 52 69 94l-115 117l129 128l129 -128q-50 -147 -192 -230zM320 243l87 -60l96 117l17 -12l-240 -288l-182 127v1940q0 52 -59 110q11 2 21 2q66 0 115 -71q0 46 -34 91q74 -11 104 -84q41 89 125 98q-50 -58 -50 -178v-1792z" />
    <glyph glyph-name="Lcaron" unicode="&#x13d;" horiz-adv-x="1660" 
d="M1418 2003l-20 19q61 52 69 94l-115 117l129 128l129 -128q-50 -147 -192 -230zM646 334v1915q-29 22 -50 40l-84 -65v-1940q71 32 134 50zM289 2081l526 402q135 -217 445 -257h-1q-107 -116 -264 -116q-152 0 -326 122v-1892q62 16 116 16q138 0 261 -121l195 227
l17 -15l-401 -466q-72 173 -243 173q-135 0 -325 -111v1197q0 15 -14 35q-16 22 -38 34t-42 12q-37 0 -72 -37q-25 -27 -28 -70v-12q0 -34 15 -64q-10 8 -19 19q-41 50 -41 120q0 71 41 121q59 73 136 73q30 0 62 -11v621z" />
    <glyph glyph-name="lcaron" unicode="&#x13e;" horiz-adv-x="819" 
d="M577 1831l-20 19q61 52 69 94l-115 117l129 128l129 -128q-50 -147 -192 -230zM320 243l87 -60l96 117l17 -12l-240 -288l-182 127v1940q0 52 -59 110q11 2 21 2q66 0 115 -71q0 46 -34 91q74 -11 104 -84q41 89 125 98q-50 -58 -50 -178v-1792z" />
    <glyph glyph-name="Ldot" unicode="&#x13f;" horiz-adv-x="1310" 
d="M1002 1342l109 -110l-109 -108l-110 108zM646 334v1915q-29 22 -50 40l-84 -65v-1940q71 32 134 50zM289 2081l526 402q135 -217 445 -257h-1q-107 -116 -264 -116q-152 0 -326 122v-1892q62 16 116 16q138 0 261 -121l195 227l17 -15l-401 -466q-72 173 -243 173
q-135 0 -325 -111v1197q0 15 -14 35q-16 22 -38 34t-42 12q-37 0 -72 -37q-25 -27 -28 -70v-12q0 -34 15 -64q-10 8 -19 19q-41 50 -41 120q0 71 41 121q59 73 136 73q30 0 62 -11v621z" />
    <glyph glyph-name="ldot" unicode="&#x140;" horiz-adv-x="699" 
d="M540 1266l109 -110l-109 -109l-110 109zM320 243l87 -60l96 117l17 -12l-240 -288l-182 127v1940q0 52 -59 110q11 2 21 2q66 0 115 -71q0 46 -34 91q74 -11 104 -84q41 89 125 98q-50 -58 -50 -178v-1792z" />
    <glyph glyph-name="Lslash" unicode="&#x141;" horiz-adv-x="1310" 
d="M289 1032v1049l526 402q135 -217 445 -257h-1q-107 -116 -264 -116q-152 0 -326 122v-946l219 146l24 -36l-243 -162v-894q62 16 116 16q138 0 261 -121l195 227l17 -15l-401 -466q-72 173 -243 173q-135 0 -325 -111v937l-167 -112l-24 36zM646 1218l-134 -89v-845
q71 32 134 50v884zM512 1181l134 89v979q-29 22 -50 40l-84 -65v-1043z" />
    <glyph glyph-name="lslash" unicode="&#x142;" horiz-adv-x="570" 
d="M320 1197l201 154l27 -34l-228 -175v-899l87 -60l96 117l17 -12l-240 -288l-182 127v844l-163 -125l-27 34l190 146v1041q0 52 -59 110q11 2 21 2q66 0 115 -71q0 46 -34 91q74 -11 104 -84q41 89 125 98q-50 -58 -50 -178v-838z" />
    <glyph glyph-name="Nacute" unicode="&#x143;" horiz-adv-x="1437" 
d="M870 2909l87 -87l-332 -275l-26 25zM646 1139v-87h319v87h-319zM646 2124v-954h319v992l-155 154zM624 2098l-112 -131v-1624q38 7 114 11zM289 1228q0 46 -26 69.5t-69 23.5q-36 0 -67.5 -32t-31.5 -87q0 -34 15 -64q-11 9 -19 19q-41 50 -41 120q0 71 41 121
q59 72 137 72q29 0 61 -10v748q0 45 -33 78q-32 32 -78 32t-79 -33q21 64 76 105q56 41 125 41q88 0 150 -62t62 -150v-218l414 483l262 -267v-1971l86 -60l96 117l17 -12l-240 -288l-182 126v892h-319l2 -688h-22q-67 -3 -114 -12q-131 -24 -223 -97q-83 -68 -131 -173
q181 223 460 223q162 0 292 -59q-162 -104 -199 -300q-95 192 -276 192q-291 0 -327 -267h-22q1 28 5.5 63.5t20.5 88.5q52 167 177 260v976z" />
    <glyph glyph-name="nacute" unicode="&#x144;" horiz-adv-x="1132" 
d="M1022 1635l17 -14l-100 -117v-1222l67 -58l59 70l17 -15l-239 -279l-213 149l86 92v1152l-87 59l-157 -189v-981l84 -72l-180 -210l-213 149l86 92v1152l-87 59l-95 -116l-17 12l240 287l182 -126v-215l285 341l166 -115zM718 2145l87 -87l-332 -275l-26 25z" />
    <glyph glyph-name="uni0145" unicode="&#x145;" horiz-adv-x="1437" 
d="M646 1139v-87h319v87h-319zM720 2211l-74 -87v-954h319v992l-155 154l-68 -79zM290 252h-1v989q-1 15 -15 35q-16 21 -38 33q-21 12 -42 12q-36 0 -71 -37q-25 -27 -28 -70v-12q0 -34 15 -64q-11 9 -19 19q-41 50 -41 120q0 71 41 121q59 72 137 72q29 0 61 -10v748
q0 45 -33 78q-32 32 -78 32t-79 -33q21 64 76 105q56 41 125 41q88 0 150 -62t62 -150v-218l112 130l22 26l280 327l262 -267v-1971l86 -60l96 117l17 -12l-240 -288l-182 126v892h-319v-689l-22 -1q-76 -3 -111 -10q-132 -24 -223 -97q-84 -67 -131 -172q91 127 259 184
q94 32 191 32q115 0 234 -44q-98 -102 -118 -244l-5 5q-3 4 -6 7q-3 4 -7 8q-11 11 -23 22q-15 12 -32 24q-96 65 -225 65h-10q-7 0 -14 -1q-20 -2 -39 -6q-56 -10 -103 -34q-138 -70 -152 -230h-23v4q1 4 1 9q1 15 3 32q7 54 23 107q52 167 177 260zM512 343h1q26 5 111 10
v1745l-112 -131v-1624zM746 -517l-20 19q61 52 69 94l-115 117l129 128l129 -128q-50 -147 -192 -230z" />
    <glyph glyph-name="uni0146" unicode="&#x146;" horiz-adv-x="1132" 
d="M1022 1635l17 -14l-100 -117v-1222l67 -58l59 70l17 -15l-239 -279l-213 149l86 92v1152l-87 59l-157 -189v-981l84 -72l-180 -210l-213 149l86 92v1152l-87 59l-95 -116l-17 12l240 287l182 -126v-215l285 341l166 -115zM537 -517l-20 19q61 52 69 94l-115 117l129 128
l129 -128q-50 -147 -192 -230z" />
    <glyph glyph-name="Ncaron" unicode="&#x147;" horiz-adv-x="1437" 
d="M646 1139v-87h319v87h-319zM646 2124v-954h319v992l-155 154zM624 2098l-112 -131v-1624q38 7 114 11zM289 1241q-1 15 -15 35q-16 21 -38 33q-21 12 -42 12q-36 0 -71 -37q-25 -27 -28 -70v-12q0 -34 15 -64q-11 9 -19 19q-41 50 -41 120q0 71 41 121q59 72 137 72
q29 0 61 -10v748q0 45 -33 78q-32 32 -78 32t-79 -33q21 64 76 105q56 41 125 41q88 0 150 -62t62 -150v-218l414 483l262 -267v-1971l86 -60l96 117l17 -12l-240 -288l-182 126v892h-319l2 -688h-22q-67 -3 -114 -12q-131 -24 -223 -97q-83 -68 -131 -173q181 223 460 223
q162 0 292 -59q-162 -104 -199 -300q-95 192 -276 192q-291 0 -327 -267h-22q1 28 3 45q7 54 23 107q52 167 177 260v989zM719 2702l223 104l21 -18l-244 -243l-244 243l21 18z" />
    <glyph glyph-name="ncaron" unicode="&#x148;" horiz-adv-x="1132" 
d="M1022 1635l17 -14l-100 -117v-1222l67 -58l59 70l17 -15l-239 -279l-213 149l86 92v1152l-87 59l-157 -189v-981l84 -72l-180 -210l-213 149l86 92v1152l-87 59l-95 -116l-17 12l240 287l182 -126v-215l285 341l166 -115zM566 1938l223 104l21 -18l-244 -243l-244 243
l21 18z" />
    <glyph glyph-name="napostrophe" unicode="&#x149;" horiz-adv-x="1390" 
d="M1280 1635l17 -14l-100 -117v-1222l67 -58l59 70l17 -15l-239 -279l-213 149l86 92v1152l-87 59l-157 -189v-981l84 -72l-180 -210l-213 149l86 92v1152l-87 59l-95 -116l-17 12l240 287l182 -126v-215l285 341l166 -115zM116 1278l-20 19q61 52 69 94l-115 117l129 128
l129 -128q-50 -147 -192 -230z" />
    <glyph glyph-name="Eng" unicode="&#x14a;" horiz-adv-x="1238" 
d="M965 2162l-155 154l-172 -202v-777h327v825zM638 1219h327v87h-327v-87zM290 252h-1v989q-1 15 -15 35q-16 21 -38 33q-21 12 -42 12q-36 0 -71 -37q-25 -27 -28 -70v-12q0 -34 15 -64q-10 9 -19 19q-41 50 -41 120q0 71 41 121q59 72 137 72q29 0 61 -10v748
q0 45 -33 78q-32 32 -78 32t-79 -33q21 64 76 105q56 41 125 41q88 0 150 -62t62 -150v-218l103 121l23 26l288 336l262 -267v-2387q0 -351 -244 -399q-43 -9 -86 -9q-79 0 -159 30q94 0 156 59q50 47 79 130q31 91 31 183v1364h-327v-856l-23 -1q-69 -4 -102 -10
q-132 -24 -223 -97q-83 -68 -131 -172q91 127 259 184q94 32 191 32q115 0 234 -44q-98 -102 -118 -245l-5 6q-3 4 -6 7q-3 4 -7 8q-11 11 -23 22q-15 12 -32 24q-96 65 -225 65h-10q-6 0 -14 -1q-19 -2 -39 -6q-56 -10 -103 -34q-138 -70 -152 -230h-23v4q1 4 1 9
q1 15 3 32q7 54 23 107q52 167 177 260zM512 343h1q23 5 102 9v1736l-103 -121v-1624z" />
    <glyph glyph-name="eng" unicode="&#x14b;" horiz-adv-x="1089" 
d="M1022 1635l17 -14l-98 -115v-1195q0 -429 -299 -661q-149 -116 -298 -146q234 166 328 494q46 164 46 295v1100l-87 59l-159 -192v-978l84 -72l-180 -210l-213 149l86 92v1152l-87 59l-95 -116l-17 12l240 287l182 -126v-217l287 343l165 -114z" />
    <glyph glyph-name="Omacron" unicode="&#x14c;" horiz-adv-x="1036" 
d="M326 2666h489l-71 -118h-488zM647 123l116 83v1904h-10q-122 0 -229 63v-1053l-251 -180v-548zM356 2317l219 167q179 -258 446 -258q-12 -15 -35 -34v-1853l-468 -336l-468 336v1742l223 171v-1285l83 60v1290z" />
    <glyph glyph-name="omacron" unicode="&#x14d;" horiz-adv-x="791" 
d="M418 1636l323 -225v-978l-370 -433l-321 233v973zM273 395l245 -168v1017l-245 168v-1017zM186 1902h489l-71 -118h-488z" />
    <glyph glyph-name="Obreve" unicode="&#x14e;" horiz-adv-x="1036" 
d="M858 2798q-159 -251 -371 -251q-85 0 -155 36q-74 38 -117 111v2l124 93q89 -116 235 -116q180 0 284 125zM647 123l116 83v1904h-10q-122 0 -229 63v-1053l-251 -180v-548zM356 2317l219 167q179 -258 446 -258q-12 -15 -35 -34v-1853l-468 -336l-468 336v1742l223 171
v-1285l83 60v1290z" />
    <glyph glyph-name="obreve" unicode="&#x14f;" horiz-adv-x="791" 
d="M418 1636l323 -225v-978l-370 -433l-321 233v973zM273 395l245 -168v1017l-245 168v-1017zM757 1995q-159 -251 -371 -251q-85 0 -155 36q-74 38 -117 111v2l124 93q89 -116 235 -116q180 0 284 125z" />
    <glyph glyph-name="Ohungarumlaut" unicode="&#x150;" horiz-adv-x="1036" 
d="M515 2959l106 -62l-249 -352l-31 18zM825 2959l106 -62l-249 -352l-31 18zM647 123l116 83v1904h-10q-122 0 -229 63v-1053l-251 -180v-548zM356 2317l219 167q179 -258 446 -258q-12 -15 -35 -34v-1853l-468 -336l-468 336v1742l223 171v-1285l83 60v1290z" />
    <glyph glyph-name="ohungarumlaut" unicode="&#x151;" horiz-adv-x="791" 
d="M418 1636l323 -225v-978l-370 -433l-321 233v973zM273 395l245 -168v1017l-245 168v-1017zM335 2195l106 -62l-249 -352l-31 18zM645 2195l106 -62l-249 -352l-31 18z" />
    <glyph glyph-name="OE" unicode="&#x152;" horiz-adv-x="1830" 
d="M1362 123l139 99v1015q-2 10 -6 21q-6 15 -13 30q-18 39 -44 66q-55 58 -135 58q-30 0 -64 -8v-284l-168 -121l-83 -59v-548l44 -32zM647 123l116 83v1904l-239 145v-1135l-251 -180v-548l44 -32zM1501 2111q-15 -1 -30 -1q-71 0 -146 26q-42 15 -86 37v-736
q54 42 111 65q65 27 130 27q11 0 21 -1v583zM1780 1548l-256 -298v-1012l177 127v-26l-468 -336l-357 257l-113 -81l-245 -176l-307 221l-161 115v1742l223 171v-1285l83 60v1290l219 167q404 -254 413 -255v-1262l83 60v1290l220 167q113 -223 445 -258q-73 -93 -212 -113
v-587q80 -10 156 -61l83 98z" />
    <glyph glyph-name="oe" unicode="&#x153;" horiz-adv-x="1253" 
d="M888 1635l293 -203l-437 -510v-527l256 -175l184 215l19 -12l-362 -423l-290 211l-180 -211l-321 233v972l368 430l295 -205zM744 1411v-455l246 286zM273 395l245 -168v1016l-245 168v-1016z" />
    <glyph glyph-name="Racute" unicode="&#x154;" horiz-adv-x="1422" 
d="M599 349v710l-86 -47v-667q40 3 86 4zM513 2004v-966l86 47v933q-43 -9 -86 -14zM1259 186l96 117l17 -12l-240 -288l-182 126v785l-219 218l-110 -61v-745h-22q-65 -3 -128 -15q-105 -27 -180 -87q-83 -67 -131 -172q91 127 259 184q94 32 191 32q115 0 234 -44
q-98 -102 -117 -245q-130 132 -298 132q-44 -3 -64 -7q-56 -10 -103 -34q-138 -70 -152 -230h-22v13q1 15 3 32q7 54 23 106q52 167 176 260l-1 1190q-1 16 -15 36q-16 21 -38 33q-21 11 -41 11q-37 0 -72 -36q-25 -28 -28 -71v-11q0 -34 15 -65q-11 10 -18 19
q-42 50 -42 121q0 70 41 121q59 72 136 72q29 0 62 -11v365q-74 29 -134 92l16 16q53 -56 119 -84q64 -27 152 -27q34 1 71 5q30 3 59 9l27 6l22 5v-950l292 162l38 21v679q0 102 -25 144q-33 56 -127 56q-42 0 -100 -13l-1 -1l-22 -5l-77 -21q-53 -14 -86 -19
q-29 -4 -56 -4q-68 0 -123 29q-23 12 -44 29q-104 84 -104 264q0 28 3 59q4 -20 21 -49q21 -34 50 -63q76 -76 175 -76h3q54 0 124 15q27 6 62 15l62 17q145 40 230 40q9 0 18 -1q43 -3 81 -14q69 -21 114 -84q44 -62 44 -136v-763l-244 -136l244 -250v-746zM863 2909
l87 -87l-332 -275l-26 25z" />
    <glyph glyph-name="racute" unicode="&#x155;" horiz-adv-x="1032" 
d="M763 1635l219 -152l-148 -171l-200 140l-162 -190v-980h-1v-39l87 -60l96 117l16 -12l-240 -288l-181 127v1266l-87 59l-95 -116l-17 12l240 287l182 -126v-214zM728 2145l87 -87l-332 -275l-26 25z" />
    <glyph glyph-name="uni0156" unicode="&#x156;" horiz-adv-x="1422" 
d="M599 349v710l-86 -47v-667q40 3 86 4zM513 2004v-966l86 47v933q-43 -9 -86 -14zM1259 186l96 117l17 -12l-240 -288l-182 126v785l-219 218l-110 -61v-745h-22q-65 -3 -128 -15q-105 -27 -180 -87q-83 -67 -131 -172q91 127 259 184q94 32 191 32q115 0 234 -44
q-98 -102 -117 -245q-130 132 -298 132q-44 -3 -64 -7q-56 -10 -103 -34q-138 -70 -152 -230h-22v13q1 15 3 32q7 54 23 106q52 167 176 260l-1 1190q-1 16 -15 36q-16 21 -38 33q-21 11 -41 11q-37 0 -72 -36q-25 -28 -28 -71v-11q0 -34 15 -65q-11 10 -18 19
q-42 50 -42 121q0 70 41 121q59 72 136 72q29 0 62 -11v365q-74 29 -134 92l16 16q53 -56 119 -84q64 -27 152 -27q34 1 71 5q30 3 59 9l27 6l22 5v-950l292 162l38 21v679q0 102 -25 144q-33 56 -127 56q-42 0 -100 -13l-1 -1l-22 -5l-77 -21q-53 -14 -86 -19
q-29 -4 -56 -4q-68 0 -123 29q-23 12 -44 29q-104 84 -104 264q0 28 3 59q4 -20 21 -49q21 -34 50 -63q76 -76 175 -76h3q54 0 124 15q27 6 62 15l62 17q145 40 230 40q9 0 18 -1q43 -3 81 -14q69 -21 114 -84q44 -62 44 -136v-763l-244 -136l244 -250v-746zM726 -517
l-20 19q61 52 69 94l-115 117l129 128l129 -128q-50 -147 -192 -230z" />
    <glyph glyph-name="uni0157" unicode="&#x157;" horiz-adv-x="1032" 
d="M763 1635l219 -152l-148 -171l-200 140l-162 -190v-980h-1v-39l87 -60l96 117l16 -12l-240 -288l-182 127v291h1v975l-87 59l-95 -116l-17 12l240 287l182 -126v-214zM376 -517l-20 19q61 52 69 94l-115 117l129 128l129 -128q-50 -147 -192 -230z" />
    <glyph glyph-name="Rcaron" unicode="&#x158;" horiz-adv-x="1422" 
d="M599 349v710l-86 -47v-667q40 3 86 4zM513 2004v-966l86 47v933q-43 -9 -86 -14zM1259 186l96 117l17 -12l-240 -288l-182 126v785l-219 218l-110 -61v-745h-22q-65 -3 -128 -15q-105 -27 -180 -87q-83 -67 -131 -172q91 127 259 184q94 32 191 32q115 0 234 -44
q-98 -102 -117 -245q-130 132 -298 132q-44 -3 -64 -7q-56 -10 -103 -34q-138 -70 -152 -230h-22v13q1 15 3 32q7 54 23 106q52 167 176 260l-1 1190q-1 16 -15 36q-16 21 -38 33q-21 11 -41 11q-37 0 -72 -36q-25 -28 -28 -71v-11q0 -34 15 -65q-11 10 -18 19
q-42 50 -42 121q0 70 41 121q59 72 136 72q29 0 62 -11v365q-74 29 -134 92l16 16q53 -56 119 -84q64 -27 152 -27q34 1 71 5q30 3 59 9l27 6l22 5v-950l292 162l38 21v679q0 102 -25 144q-33 56 -127 56q-42 0 -100 -13l-1 -1l-22 -5l-77 -21q-53 -14 -86 -19
q-29 -4 -56 -4q-68 0 -123 29q-23 12 -44 29q-104 84 -104 264q0 28 3 59q4 -20 21 -49q21 -34 50 -63q76 -76 175 -76h3q54 0 124 15q27 6 62 15l62 17q145 40 230 40q9 0 18 -1q43 -3 81 -14q69 -21 114 -84q44 -62 44 -136v-763l-244 -136l244 -250v-746zM711 2702
l223 104l21 -18l-244 -243l-244 243l21 18z" />
    <glyph glyph-name="rcaron" unicode="&#x159;" horiz-adv-x="1032" 
d="M763 1635l219 -152l-148 -171l-200 140l-162 -190v-980h-1v-39l87 -60l96 117l16 -12l-240 -288l-181 127v1266l-87 59l-95 -116l-17 12l240 287l182 -126v-214zM526 1938l223 104l21 -18l-244 -243l-244 243l21 18z" />
    <glyph glyph-name="Sacute" unicode="&#x15a;" horiz-adv-x="1215" 
d="M96 -27q15 -37 53 -53q19 -7 37 -7q19 0 37 7q38 15 53 53l98 233l-14 -1q-48 -4 -97 -25q-40 -17 -78 -44q-44 -30 -70 -60q-12 -12 -19 -28q-7 -18 -7 -37t7 -38zM482 1848l27 -32l2 -2l123 296q11 34 11 65q0 76 -64 139q-79 79 -166 79q-43 0 -65 -45
q-17 -36 -17 -89q0 -132 40 -233q33 -85 109 -178zM908 1434l2 -1q186 -173 227 -338q28 -113 28 -246q0 -319 -213 -645q-74 -112 -153 -193l-12 11q-187 182 -389 185l-101 -243q-14 -34 -45 -54q-30 -20 -66 -20q-24 0 -46 10q-46 19 -64 65q-9 23 -9 46t9 45q8 20 22 36
q132 146 312 201l258 618q-53 63 -122 121q-43 36 -123 107q-78 68 -126 112l-104 -246q-11 -27 -39 -39q-13 -5 -26 -5q-14 0 -28 6q-27 11 -38 38q-6 14 -6 28t6 27q11 27 39 38l8 -20q-19 -8 -27 -27q-3 -9 -3 -18t3 -19q8 -19 26 -27q10 -4 19 -4q10 0 19 4q19 8 27 26
l106 254q-193 183 -193 367v6q1 89 27 183q8 31 18 60l8 20l2 7q2 4 2 5v-32q3 -35 16 -74q41 -123 175 -266q16 -17 43 -44l17 -17q29 -28 78 -74q18 -17 44 -42l46 -43q119 -111 167 -160l16 -16l15 -17l16 -18l31 -38q120 -146 120 -347q0 -53 -8 -110q-13 -86 -44 -174
l-31 -77v19q0 94 -9 170q-27 181 -151 336l-247 -590q79 20 157 20q49 0 98 -8q122 -20 208 -87q124 272 124 468q0 36 -2 67q-19 233 -130 369q-30 38 -74 82l-17 17q-35 33 -89 80l-45 39l-45 40q-30 26 -93 89q-63 61 -97 97l-15 16q-211 229 -211 415q0 289 162 395
q52 34 116 46q21 3 41 4q7 1 13 1h7q116 0 152 -82q12 -26 15 -58v-34q0 -30 -22 -89q-9 -23 -22 -55l-11 -27l-11 -25l-119 -286l16 -18q32 -35 94 -97q64 -64 97 -94l39 -34l39 -33q51 -44 79 -69l111 264q11 27 39 38q14 6 27 6q14 0 27 -6q27 -11 38 -39q6 -13 6 -27
q0 -13 -6 -27q-11 -27 -39 -39l-8 21q19 8 27 26q4 10 4 19q0 10 -4 19q-8 19 -26 26q-10 4 -20 4q-9 0 -18 -3q-19 -8 -26 -27zM762 2909l87 -87l-332 -275l-26 25z" />
    <glyph glyph-name="sacute" unicode="&#x15b;" horiz-adv-x="820" 
d="M625 2145l87 -87l-332 -275l-26 25zM538 223l158 219l-386 314q-120 -193 -156 -355q-28 -126 -40 -230q85 169 218 169q112 0 206 -117zM108 1247l327 -267q193 280 243 463q-31 -58 -78 -91q-60 -42 -141 -42q-72 0 -112.5 22t-111.5 74zM452 966l175 -142
q91 -75 117 -191q8 -37 8 -71q0 -74 -39 -134q-5 -8 -303 -428q-76 140 -224 140q-48 0 -99 -22q10 129 45 288q38 167 161 364l-116 95q-108 89 -121 247h-1q0 110 56 179l283 346q65 -116 189 -116q64 0 94.5 25t30.5 60q0 20 -13.5 41t-41.5 21q-10 0 -20 -3l-7 21
q12 4 24 4q17 0 32 -7q26 -13 40 -43q9 -18 9 -45q0 -7 -1 -15q-1 -15 -15 -82q-43 -213 -263 -532z" />
    <glyph glyph-name="Scircumflex" unicode="&#x15c;" horiz-adv-x="1215" 
d="M96 -27q15 -37 53 -53q19 -7 37 -7q19 0 37 7q38 15 53 53l98 233l-14 -1q-48 -4 -97 -25q-40 -17 -78 -44q-44 -30 -70 -60q-12 -12 -19 -28q-7 -18 -7 -37t7 -38zM482 1848l27 -32l2 -2l123 296q11 34 11 65q0 76 -64 139q-79 79 -166 79q-43 0 -65 -45
q-17 -36 -17 -89q0 -132 40 -233q33 -85 109 -178zM908 1434l2 -1q186 -173 227 -338q28 -113 28 -246q0 -319 -213 -645q-74 -112 -153 -193l-12 11q-187 182 -389 185l-101 -243q-14 -34 -45 -54q-30 -20 -66 -20q-24 0 -46 10q-46 19 -64 65q-9 23 -9 46t9 45q8 20 22 36
q132 146 312 201l258 618q-53 63 -122 121q-43 36 -123 107q-78 68 -126 112l-104 -246q-11 -27 -39 -39q-13 -5 -26 -5q-14 0 -28 6q-27 11 -38 38q-6 14 -6 28t6 27q11 27 39 38l8 -20q-19 -8 -27 -27q-3 -9 -3 -18t3 -19q8 -19 26 -27q10 -4 19 -4q10 0 19 4q19 8 27 26
l106 254q-193 183 -193 367v6q1 89 27 183q8 31 18 60l8 20l2 7q2 4 2 5v-32q3 -35 16 -74q41 -123 175 -266q16 -17 43 -44l17 -17q29 -28 78 -74q18 -17 44 -42l46 -43q119 -111 167 -160l16 -16l15 -17l16 -18l31 -38q120 -146 120 -347q0 -53 -8 -110q-13 -86 -44 -174
l-31 -77v19q0 94 -9 170q-27 181 -151 336l-247 -590q79 20 157 20q49 0 98 -8q122 -20 208 -87q124 272 124 468q0 36 -2 67q-19 233 -130 369q-30 38 -74 82l-17 17q-35 33 -89 80l-45 39l-45 40q-30 26 -93 89q-63 61 -97 97l-15 16q-211 229 -211 415q0 289 162 395
q52 34 116 46q21 3 41 4q7 1 13 1h7q116 0 152 -82q12 -26 15 -58v-34q0 -30 -22 -89q-9 -23 -22 -55l-11 -27l-11 -25l-119 -286l16 -18q32 -35 94 -97q64 -64 97 -94l39 -34l39 -33q51 -44 79 -69l111 264q11 27 39 38q14 6 27 6q14 0 27 -6q27 -11 38 -39q6 -13 6 -27
q0 -13 -6 -27q-11 -27 -39 -39l-8 21q19 8 27 26q4 10 4 19q0 10 -4 19q-8 19 -26 26q-10 4 -20 4q-9 0 -18 -3q-19 -8 -26 -27zM611 2649l-223 -104l-21 18l244 243l244 -243l-21 -18z" />
    <glyph glyph-name="scircumflex" unicode="&#x15d;" horiz-adv-x="820" 
d="M442 1885l-223 -104l-21 18l244 243l244 -243l-21 -18zM538 223l158 219l-386 314q-120 -193 -156 -355q-28 -126 -40 -230q85 169 218 169q112 0 206 -117zM108 1247l327 -267q193 280 243 463q-31 -58 -78 -91q-60 -42 -141 -42q-72 0 -112.5 22t-111.5 74zM452 966
l175 -142q91 -75 117 -191q8 -37 8 -71q0 -74 -39 -134q-5 -8 -303 -428q-76 140 -224 140q-48 0 -99 -22q10 129 45 288q38 167 161 364l-116 95q-108 89 -121 247h-1q0 110 56 179l283 346q65 -116 189 -116q64 0 94.5 25t30.5 60q0 20 -13.5 41t-41.5 21q-10 0 -20 -3
l-7 21q12 4 24 4q17 0 32 -7q26 -13 40 -43q9 -18 9 -45q0 -7 -1 -15q-1 -15 -15 -82q-43 -213 -263 -532z" />
    <glyph glyph-name="Scedilla" unicode="&#x15e;" horiz-adv-x="1215" 
d="M96 -27q15 -37 53 -53q19 -7 37 -7q19 0 37 7q38 15 53 53l98 233l-14 -1q-48 -4 -97 -25q-40 -17 -78 -44q-44 -30 -70 -60q-12 -12 -19 -28q-7 -18 -7 -37t7 -38zM482 1848l27 -32l2 -2l123 296q11 34 11 65q0 76 -64 139q-79 79 -166 79q-43 0 -65 -45
q-17 -36 -17 -89q0 -132 40 -233q33 -85 109 -178zM610 -155l102 242q-152 118 -314 120l-101 -243q-14 -34 -45 -54q-30 -20 -66 -20q-24 0 -46 10q-46 19 -64 65q-9 23 -9 46t9 45q8 20 22 36q132 146 312 201l258 618q-53 63 -122 121q-43 36 -123 107q-78 68 -126 112
l-104 -246q-11 -27 -39 -39q-13 -5 -26 -5q-14 0 -28 6q-27 11 -38 38q-6 14 -6 28t6 27q11 27 39 38l8 -20q-19 -8 -27 -27q-3 -9 -3 -18t3 -19q8 -19 26 -27q10 -4 19 -4q10 0 19 4q19 8 27 26l106 254q-193 183 -193 367v6q1 89 27 183q8 31 18 60l8 20l2 7q2 4 2 5v-32
q3 -35 16 -74q41 -123 175 -266q16 -17 43 -44l17 -17q29 -28 78 -74q18 -17 44 -42l46 -43q119 -111 167 -160l16 -16l15 -17l16 -18l31 -38q120 -146 120 -347q0 -53 -8 -110q-13 -86 -44 -174l-31 -77v19q0 94 -9 170q-27 181 -151 336l-247 -590q79 20 157 20
q49 0 98 -8q122 -20 208 -87q124 272 124 468q0 36 -2 67q-19 233 -130 369q-30 38 -74 82l-17 17q-35 33 -89 80l-45 39l-45 40q-30 26 -93 89q-63 61 -97 97l-15 16q-211 229 -211 415q0 289 162 395q52 34 116 46q21 3 41 4q7 1 13 1h7q116 0 152 -82q12 -26 15 -58v-34
q0 -30 -22 -89q-9 -23 -22 -55l-11 -27l-11 -25l-119 -286l16 -18q32 -35 94 -97q64 -64 97 -94l39 -34l39 -33q51 -44 79 -69l111 264q11 27 39 38q14 6 27 6q14 0 27 -6q27 -11 38 -39q6 -13 6 -27q0 -13 -6 -27q-11 -27 -39 -39l-8 21q19 8 27 26q4 10 4 19q0 10 -4 19
q-8 19 -26 26q-10 4 -20 4q-9 0 -18 -3q-19 -8 -26 -27l-115 -271l2 -1q186 -173 227 -338q28 -113 28 -246q0 -319 -213 -645q-74 -112 -153 -193l-12 11q-27 26 -54 49l-83 -193q17 6 37 8q23 0 41 -8q49 -18 49 -79q0 -94 -103 -103q-10 -1 -22 -1q-25 0 -54 5l-30 6
q-13 3 -19 6l14 33q37 -13 71 -13q77 0 77 62v3q-2 49 -58 49q-15 0 -34 -8z" />
    <glyph glyph-name="scedilla" unicode="&#x15f;" horiz-adv-x="820" 
d="M538 223l158 219l-385 314q-121 -193 -157 -355q-28 -126 -39 -230q68 119 150 155q33 14 68 14q33 0 68 -13q81 -30 137 -104zM108 1247l327 -267q193 280 244 463q-32 -58 -79 -91q-59 -42 -140 -42q-73 0 -126 28q-28 16 -104 78zM317 -90l78 112q-27 38 -70 69
q-67 49 -139 49q-48 0 -99 -22q10 129 46 288q37 167 160 364l-116 95q-108 89 -121 234q-1 13 -1 26q0 55 21 109q8 20 19 38l262 365q56 -52 112 -86q60 -30 115 -30q17 0 33 3q40 6 69 36q22 22 22 46q0 12 -6 25q-18 37 -49 37q-10 0 -20 -3l-6 21q12 4 24 4q16 0 31 -7
q26 -13 40 -43q9 -18 9 -45q0 -7 -1 -15q-1 -15 -15 -82q-42 -213 -263 -532l175 -142q91 -75 117 -191q8 -37 8 -71q0 -74 -39 -134q-5 -8 -303 -428l-47 -66q9 1 18 1q10 0 19 -1q23 -5 39 -16q34 -22 34 -62q0 -12 -3 -26q-17 -81 -98 -81q-11 0 -24 2q-35 4 -73 20
l-28 12q-12 5 -18 10l21 29q33 -20 67 -27q16 -4 29 -4q51 0 60 51q1 6 1 12q0 38 -48 48q-6 1 -14 1q-10 0 -21 -2z" />
    <glyph glyph-name="Scaron" unicode="&#x160;" horiz-adv-x="1215" 
d="M96 -27q15 -37 53 -53q19 -7 37 -7q19 0 37 7q38 15 53 53l98 233l-14 -1q-48 -4 -97 -25q-40 -17 -78 -44q-44 -30 -70 -60q-12 -12 -19 -28q-7 -18 -7 -37t7 -38zM482 1848l27 -32l2 -2l123 296q11 34 11 65q0 76 -64 139q-79 79 -166 79q-43 0 -65 -45
q-17 -36 -17 -89q0 -132 40 -233q33 -85 109 -178zM908 1434l2 -1q186 -173 227 -338q28 -113 28 -246q0 -319 -213 -645q-74 -112 -153 -193l-12 11q-187 182 -389 185l-101 -243q-14 -34 -45 -54q-30 -20 -66 -20q-24 0 -46 10q-46 19 -64 65q-9 23 -9 46t9 45q8 20 22 36
q132 146 312 201l258 618q-53 63 -122 121q-43 36 -123 107q-78 68 -126 112l-104 -246q-11 -27 -39 -39q-13 -5 -26 -5q-14 0 -28 6q-27 11 -38 38q-6 14 -6 28t6 27q11 27 39 38l8 -20q-19 -8 -27 -27q-3 -9 -3 -18t3 -19q8 -19 26 -27q10 -4 19 -4q10 0 19 4q19 8 27 26
l106 254q-193 183 -193 367v6q1 89 27 183q8 31 18 60l8 20l2 7q2 4 2 5v-32q3 -35 16 -74q41 -123 175 -266q16 -17 43 -44l17 -17q29 -28 78 -74q18 -17 44 -42l46 -43q119 -111 167 -160l16 -16l15 -17l16 -18l31 -38q120 -146 120 -347q0 -53 -8 -110q-13 -86 -44 -174
l-31 -77v19q0 94 -9 170q-27 181 -151 336l-247 -590q79 20 157 20q49 0 98 -8q122 -20 208 -87q124 272 124 468q0 36 -2 67q-19 233 -130 369q-30 38 -74 82l-17 17q-35 33 -89 80l-45 39l-45 40q-30 26 -93 89q-63 61 -97 97l-15 16q-211 229 -211 415q0 289 162 395
q52 34 116 46q21 3 41 4q7 1 13 1h7q116 0 152 -82q12 -26 15 -58v-34q0 -30 -22 -89q-9 -23 -22 -55l-11 -27l-11 -25l-119 -286l16 -18q32 -35 94 -97q64 -64 97 -94l39 -34l39 -33q51 -44 79 -69l111 264q11 27 39 38q14 6 27 6q14 0 27 -6q27 -11 38 -39q6 -13 6 -27
q0 -13 -6 -27q-11 -27 -39 -39l-8 21q19 8 27 26q4 10 4 19q0 10 -4 19q-8 19 -26 26q-10 4 -20 4q-9 0 -18 -3q-19 -8 -26 -27zM611 2702l223 104l21 -18l-244 -243l-244 243l21 18z" />
    <glyph glyph-name="scaron" unicode="&#x161;" horiz-adv-x="820" 
d="M437 1938l223 104l21 -18l-244 -243l-244 243l21 18zM538 223l158 219l-386 314q-120 -193 -156 -355q-28 -126 -40 -230q85 169 218 169q112 0 206 -117zM108 1247l327 -267q193 280 243 463q-31 -58 -78 -91q-60 -42 -141 -42q-72 0 -112.5 22t-111.5 74zM452 966
l175 -142q91 -75 117 -191q8 -37 8 -71q0 -74 -39 -134q-5 -8 -303 -428q-76 140 -224 140q-48 0 -99 -22q10 129 45 288q38 167 161 364l-116 95q-108 89 -121 247h-1q0 110 56 179l283 346q65 -116 189 -116q64 0 94.5 25t30.5 60q0 20 -13.5 41t-41.5 21q-10 0 -20 -3
l-7 21q12 4 24 4q17 0 32 -7q26 -13 40 -43q9 -18 9 -45q0 -7 -1 -15q-1 -15 -15 -82q-43 -213 -263 -532z" />
    <glyph glyph-name="uni0162" unicode="&#x162;" horiz-adv-x="1251" 
d="M443 -220l99 235l-292 209l-160 115v1475l222 171v-1152l84 60v1156l168 129v-1191l-168 -121l-84 -60v-414l44 -32l331 -237l139 99v1843q-73 11 -160 56q-55 28 -154 92q-68 43 -122 71q-72 37 -130 52q-38 9 -70 9q-95 0 -140 -81q0 133 103 200q69 45 155 45
q37 0 76 -8q86 -17 195 -76l46 -26l45 -27q60 -35 91 -52q122 -66 221 -79q25 -3 55 -3q36 0 70 7q27 6 51 16q10 3 19 8q7 3 13 7l5 3l3 2l3 1q0 -23 -12 -55q-17 -41 -48 -74q-88 -93 -260 -93q-13 0 -33 2v-1824l178 127v-26l-458 -329l-85 -197q17 6 37 8q23 0 41 -8
q49 -18 49 -79q0 -94 -103 -103q-10 -1 -22 -1q-25 0 -54 5l-30 6q-13 3 -19 6l14 33q37 -13 71 -13q77 0 77 62v3q-2 49 -58 49q-15 0 -34 -8z" />
    <glyph glyph-name="uni0163" unicode="&#x163;" horiz-adv-x="676" 
d="M275 -110l61 145l-133 92v1435h-153l377 505v-427h194l-66 -78h-128v-1319l87 -60l96 117l16 -12l-240 -288l-29 20l-42 -97q17 6 37 8q23 0 41 -8q49 -18 49 -79q0 -94 -103 -103q-10 -1 -22 -1q-25 0 -54 5l-30 6q-13 3 -19 6l14 33q37 -13 71 -13q77 0 77 62v3
q-2 49 -58 49q-15 0 -34 -8z" />
    <glyph glyph-name="Tcaron" unicode="&#x164;" horiz-adv-x="1251" 
d="M761 2320q122 -66 221 -79q25 -3 55 -3q36 0 70 7q27 6 51 16q10 3 19 8q7 3 13 7l5 3l3 2l3 1q0 -23 -12 -55q-17 -41 -48 -74q-88 -93 -260 -93q-13 0 -33 2v-1824l178 127v-26l-468 -336l-308 221l-160 115v1475l222 171v-1152l84 60v1156l168 129v-1191l-168 -121
l-84 -60v-414l44 -32l331 -237l139 99v1843q-73 11 -160 56q-55 28 -154 92q-68 43 -122 71q-72 37 -130 52q-38 9 -70 9q-95 0 -140 -81q0 133 103 200q69 45 155 45q37 0 76 -8q86 -17 195 -76l46 -26l45 -27q60 -35 91 -52zM626 2702l223 104l21 -18l-244 -243l-244 243
l21 18z" />
    <glyph glyph-name="tcaron" unicode="&#x165;" horiz-adv-x="906" 
d="M427 2067v-427h194l-66 -78h-128v-1319l87 -60l96 117l16 -12l-240 -288l-183 127v1435h-153zM664 1732l-20 19q61 52 69 94l-115 117l129 128l129 -128q-50 -147 -192 -230z" />
    <glyph glyph-name="Tbar" unicode="&#x166;" horiz-adv-x="1389" 
d="M794 1458h163v670q-77 1 -163 20v-690zM957 1392h-163v-979q25 5 76 9q51 3 87 4v966zM1065 1392h-86v-989h-18q-99 0 -167 -13q-131 -23 -223 -97q-83 -67 -131 -172q65 91 182 152l20 10q73 35 152 50q55 10 106 10q101 0 188 -20l17 -5q31 -8 65 -22v-1h2l21 -10
q-82 -62 -137 -155q-40 -68 -62 -145q-7 16 -14 30q-35 69 -89 109q-69 52 -163 52l-2 1h-6q-10 0 -21 -1q-36 -1 -71 -7q-110 -19 -171 -78q-34 -32 -52 -78l-2 -10l-3 -9q-6 -31 -9 -60q0 -9 -1 -17v-7h-22v13q1 15 3 32q7 54 23 106q52 168 177 261v1070h-218v66h218v758
l-9 3q-168 56 -276 56q-54 0 -136 -27q-78 -26 -100 -47q31 65 91 129q53 57 111 89q73 41 152 41q74 0 162 -21q57 -13 156 -45q203 -66 291 -66q199 0 326 61v-3l-2 -3q-2 -5 -4 -11q-7 -16 -16 -32q-27 -49 -63 -89q-111 -119 -275 -123v-670h86v-66z" />
    <glyph glyph-name="tbar" unicode="&#x167;" horiz-adv-x="676" 
d="M70 1269h133v293h-153l377 505v-427h194l-66 -78h-128v-293h166v-66h-166v-960l87 -60l96 117l16 -12l-240 -288l-183 127v1076h-133v66z" />
    <glyph glyph-name="Utilde" unicode="&#x168;" horiz-adv-x="1435" 
d="M790 318l173 202v1721l-86 60l-87 -105v-1878zM1272 186l96 117l17 -12l-240 -288l-182 126v357l-173 -201l-22 -26l-219 -256l-263 267v1145q-14 42 -59 61q-17 7 -33 7q-37 0 -71 -36q-25 -28 -28 -70v-12q0 -34 15 -64q-10 8 -19 18q-41 50 -41 121t41 121
q59 72 135 72q29 0 60 -10v618l-85 60l-96 -116l-17 11l240 288l182 -126v-2032l155 -155l103 121v1909l236 283l182 -126l1 -2112zM866 2654q17 -4 31 -4h9q43 5 76 31q12 11 24 25l9 12l8 11l-13 -18l-13 -20q-16 -22 -29 -39q-34 -44 -65 -70q-53 -45 -108 -45
q-31 0 -62 14q-33 15 -89 49l-44 26q-25 14 -45 24l-17 8l-18 8q-21 8 -38 9h-6q-36 0 -68 -38l12 17l12 18q15 21 26 36q31 41 58 63q24 20 55 20q5 0 11 -1q29 -4 67 -24q19 -10 44 -25l44 -27q53 -33 90 -47l19 -7z" />
    <glyph glyph-name="utilde" unicode="&#x169;" horiz-adv-x="1188" 
d="M716 375v1018l-87 59l-97 -116l-16 12l241 287l166 -115l99 115l17 -14l-100 -117v-1261l87 -60l96 117l16 -12l-240 -288l-182 127v217l-286 -344l-181 127v1266l-87 59l-95 -116l-17 12l240 287l182 -126v-1266l85 -60zM742 1888q17 -4 31 -4h9q43 5 76 31q12 11 24 25
l9 12l8 11l-13 -18l-13 -20q-16 -22 -29 -39q-34 -44 -65 -70q-53 -45 -108 -45q-31 0 -62 14q-33 15 -89 49l-44 26q-25 14 -45 24l-17 8l-18 8q-21 8 -38 9h-6q-36 0 -68 -38l12 17l12 18q15 21 26 36q31 41 58 63q24 20 55 20q5 0 11 -1q29 -4 67 -24q19 -10 44 -25
l44 -27q53 -33 90 -47l19 -7z" />
    <glyph glyph-name="Umacron" unicode="&#x16a;" horiz-adv-x="1435" 
d="M790 318l173 202v1721l-86 60l-87 -105v-1878zM1272 186l96 117l17 -12l-240 -288l-182 126v357l-173 -201l-22 -26l-219 -256l-263 267v1145q-14 42 -59 61q-17 7 -33 7q-37 0 -71 -36q-25 -28 -28 -70v-12q0 -34 15 -64q-10 8 -19 18q-41 50 -41 121t41 121
q59 72 135 72q29 0 60 -10v618l-85 60l-96 -116l-17 11l240 288l182 -126v-2032l155 -155l103 121v1909l236 283l182 -126l1 -2112zM508 2666h489l-71 -118h-488z" />
    <glyph glyph-name="umacron" unicode="&#x16b;" horiz-adv-x="1188" 
d="M716 375v1018l-87 59l-97 -116l-16 12l241 287l166 -115l99 115l17 -14l-100 -117v-1261l87 -60l96 117l16 -12l-240 -288l-182 127v217l-286 -344l-181 127v1266l-87 59l-95 -116l-17 12l240 287l182 -126v-1266l85 -60zM385 1902h489l-71 -118h-488z" />
    <glyph glyph-name="Ubreve" unicode="&#x16c;" horiz-adv-x="1435" 
d="M790 318l173 202v1721l-86 60l-87 -105v-1878zM1272 186l96 117l17 -12l-240 -288l-182 126v357l-173 -201l-22 -26l-219 -256l-263 267v1145q-14 42 -59 61q-17 7 -33 7q-37 0 -71 -36q-25 -28 -28 -70v-12q0 -34 15 -64q-10 8 -19 18q-41 50 -41 121t41 121
q59 72 135 72q29 0 60 -10v618l-85 60l-96 -116l-17 11l240 288l182 -126v-2032l155 -155l103 121v1909l236 283l182 -126l1 -2112zM1039 2798q-159 -251 -371 -251q-85 0 -155 36q-74 38 -117 111v2l124 93q89 -116 235 -116q180 0 284 125z" />
    <glyph glyph-name="ubreve" unicode="&#x16d;" horiz-adv-x="1188" 
d="M716 375v1018l-87 59l-97 -116l-16 12l241 287l166 -115l99 115l17 -14l-100 -117v-1261l87 -60l96 117l16 -12l-240 -288l-182 127v217l-286 -344l-181 127v1266l-87 59l-95 -116l-17 12l240 287l182 -126v-1266l85 -60zM911 2037q-159 -251 -371 -251q-85 0 -155 36
q-74 38 -117 111v2l124 93q89 -116 235 -116q180 0 284 125z" />
    <glyph glyph-name="Uring" unicode="&#x16e;" horiz-adv-x="1435" 
d="M790 318l173 202v1721l-86 60l-87 -105v-1878zM1272 186l96 117l17 -12l-240 -288l-182 126v357l-173 -201l-22 -26l-219 -256l-263 267v1145q-14 42 -59 61q-17 7 -33 7q-37 0 -71 -36q-25 -28 -28 -70v-12q0 -34 15 -64q-10 8 -19 18q-41 50 -41 121t41 121
q59 72 135 72q29 0 60 -10v618l-85 60l-96 -116l-17 11l240 288l182 -126v-2032l155 -155l103 121v1909l236 283l182 -126l1 -2112zM758 2663q6 -1 12 -1q23 0 32 14q4 6 4 14q0 13 -12 31q-18 28 -55 50q-36 22 -69 26q-6 1 -12 1q-23 0 -31 -14q-4 -6 -4 -14q0 -13 12 -31
q18 -28 54 -50t69 -26zM641 2847q24 31 45 46q35 24 72 24q30 0 61 -16q67 -34 67 -108v-8q-2 -45 -34 -91l2 2l-6 -7l-15 -19q-7 -8 -19 -25l-20 -27q-24 -31 -45 -46q-36 -25 -72 -25q-30 0 -60 17q-64 36 -68 116q2 45 34 91l-2 -2l6 7l15 19q7 9 19 25z" />
    <glyph glyph-name="uring" unicode="&#x16f;" horiz-adv-x="1188" 
d="M716 375v1018l-87 59l-97 -116l-16 12l241 287l166 -115l99 115l17 -14l-100 -117v-1261l87 -60l96 117l16 -12l-240 -288l-182 127v217l-286 -344l-181 127v1266l-87 59l-95 -116l-17 12l240 287l182 -126v-1266l85 -60zM634 1899q6 -1 12 -1q23 0 32 14q4 6 4 14
q0 13 -12 31q-18 28 -55 50q-36 22 -69 26q-6 1 -12 1q-23 0 -31 -14q-4 -6 -4 -14q0 -13 12 -31q18 -28 54 -50t69 -26zM517 2083q24 31 45 46q35 24 72 24q30 0 61 -16q67 -34 67 -108v-8q-2 -45 -34 -91l2 2l-6 -7l-15 -19q-7 -8 -19 -25l-20 -27q-24 -31 -45 -46
q-36 -25 -72 -25q-30 0 -60 17q-64 36 -68 116q2 45 34 91l-2 -2l6 7l15 19q7 9 19 25z" />
    <glyph glyph-name="Uhungarumlaut" unicode="&#x170;" horiz-adv-x="1435" 
d="M790 318l173 202v1721l-86 60l-87 -105v-1878zM1272 186l96 117l17 -12l-240 -288l-182 126v357l-173 -201l-22 -26l-219 -256l-263 267v1145q-14 42 -59 61q-17 7 -33 7q-37 0 -71 -36q-25 -28 -28 -70v-12q0 -34 15 -64q-10 8 -19 18q-41 50 -41 121t41 121
q59 72 135 72q29 0 60 -10v618l-85 60l-96 -116l-17 11l240 288l182 -126v-2032l155 -155l103 121v1909l236 283l182 -126l1 -2112zM597 2959l106 -62l-249 -352l-31 18zM907 2959l106 -62l-249 -352l-31 18z" />
    <glyph glyph-name="uhungarumlaut" unicode="&#x171;" horiz-adv-x="1188" 
d="M716 375v1018l-87 59l-97 -116l-16 12l241 287l166 -115l99 115l17 -14l-100 -117v-1261l87 -60l96 117l16 -12l-240 -288l-182 127v217l-286 -344l-181 127v1266l-87 59l-95 -116l-17 12l240 287l182 -126v-1266l85 -60zM593 2195l106 -62l-249 -352l-31 18zM903 2195
l106 -62l-249 -352l-31 18z" />
    <glyph glyph-name="Uogonek" unicode="&#x172;" horiz-adv-x="1435" 
d="M790 318l173 202v1721l-86 60l-87 -105v-1878zM1112 8l10 11l-159 110v357l-173 -201l-22 -26l-219 -256l-263 267v1145q-14 42 -59 61q-17 7 -33 7q-37 0 -71 -36q-25 -28 -28 -70v-12q0 -34 15 -64q-10 8 -19 18q-41 50 -41 121t41 121q59 72 135 72q29 0 60 -10v618
l-85 60l-96 -116l-17 11l240 288l182 -126v-2032l155 -155l103 121v1909l236 283l182 -126l1 -2112l85 -60l96 117l17 -12l-240 -288l-4 3l-40 -46l-1 1l-21 -26l-21 -27q-23 -31 -38 -56q-40 -65 -40 -116q0 -105 102 -145q35 -14 72 -14q9 0 18 1q48 4 82 29l-1 -2
q-3 -2 -7 -6q-6 -4 -12 -9q-7 -7 -15 -13q-21 -16 -42 -30q-27 -18 -52 -31q-65 -35 -118 -41q-10 -1 -19 -1q-54 0 -91 34q-39 36 -39 92q0 95 127 261q64 83 127 147z" />
    <glyph glyph-name="uogonek" unicode="&#x173;" horiz-adv-x="1214" 
d="M768 -224q0 88 110 238l-162 113v217l-286 -344l-181 127v1266l-87 59l-95 -116l-17 12l240 287l182 -126v-1266l85 -60l159 192v1018l-87 59l-97 -116l-16 12l241 287l166 -115l99 115l17 -14l-100 -117v-1261l87 -60l96 117l16 -12l-170 -204q-23 -31 -38 -56
q-40 -65 -40 -116q0 -105 102 -145q35 -14 72 -14q9 0 18 1q48 4 82 29l-1 -2q-3 -2 -7 -6q-6 -4 -12 -9q-7 -7 -15 -13q-21 -16 -42 -30q-27 -18 -52 -31q-65 -35 -118 -41q-10 -1 -19 -1q-54 0 -91 34q-39 36 -39 92z" />
    <glyph glyph-name="Wcircumflex" unicode="&#x174;" horiz-adv-x="1971" 
d="M1386 293v1951l-87 60l-124 -150l1 -1875l108 -107zM510 393l93 -92v1135h-93v-1043zM836 293v1951l-87 60l-124 -150v-1875l109 -107zM1060 393l94 -92v1135h-94v-1043zM1921 1739l-252 -301h-60v-939l-223 -240l-217 -256l-295 297l-256 -297l-333 335v1066
q-13 42 -58 61q-17 7 -33 7q-37 0 -71 -36q-25 -28 -28 -70v-12q0 -34 15 -65q-10 9 -19 19q-41 50 -41 121t41 121q59 72 135 72q28 0 59 -10v632l-85 60l-95 -117l-17 12l240 288l183 -126q-1 -344 -1 -745h93v543l273 328l184 -126v-745h94v543l273 328l182 -126v-743
h179l116 135zM986 2649l-223 -104l-21 18l244 243l244 -243l-21 -18z" />
    <glyph glyph-name="wcircumflex" unicode="&#x175;" horiz-adv-x="1308" 
d="M1037 227v1166l-88 59l-158 -191v-866zM569 227v1166l-87 59l-178 -214l2 -10l2 -9l5 -28q9 -58 9 -122v-674zM791 1292l286 343l181 -126v-1076l-370 -433l-288 210l-180 -210l-320 233v831q0 129 -60 285q-39 102 -39 187q0 49 13 92q21 67 55 110q45 59 103 59
q37 0 63 -26t26 -63t-27 -64l-16 16q21 20 21 48t-20 47q-19 20 -47 20q-18 0 -34 -19q-19 -22 -19 -53q0 -97 69 -214l14 -24l15 -25q18 -30 30 -52q33 -64 51 -126l311 373l182 -126v-217zM689 1885l-223 -104l-21 18l244 243l244 -243l-21 -18z" />
    <glyph glyph-name="Ycircumflex" unicode="&#x176;" horiz-adv-x="1309" 
d="M723 2649l-223 -104l-21 18l244 243l244 -243l-21 -18zM624 94q91 46 161 126q134 155 195 440q5 25 11 60h-367v-626zM624 2296v-1382h389q15 186 15 417v676q0 353 -176 353q-35 0 -97 -32t-131 -32zM512 63q37 0 84 19l5 2v2212l-15 1q-49 5 -103 28q29 -42 29 -106
v-2156zM624 883v-132h372q8 60 15 132h-387zM969 2426q105 0 196 -101.5t91 -317.5v-914q0 -445 -151 -711q-194 -342 -620 -342h-200q-43 0 -75 -32q-32 -33 -32 -79t32 -78q33 -32 78 -32l644 -1q87 0 149 -62t62 -149q0 -69 -41 -125q-41 -54 -105 -75q33 33 33 78
q0 46 -32 79q-32 32 -77 32h-635q-97 1 -165 69q-68 69 -68 165t68 165q68 68 165 68h3v1170q0 44 -26 66t-65 22q-40 0 -75 -37q-25 -27 -28 -70v-12q0 -34 15 -64q-11 9 -19 19q-41 50 -41 120q0 71 41 121q59 72 137 72q29 0 61 -10v748q0 56 -33.5 83t-77.5 27
q-46 0 -79 -33q21 64 76 105q56 41 125 41q80 0 153 -56.5t179 -56.5q66 0 148.5 54t188.5 54z" />
    <glyph glyph-name="ycircumflex" unicode="&#x177;" horiz-adv-x="1237" 
d="M619 1885l-223 -104l-21 18l244 243l244 -243l-21 -18zM888 -385l105 122l-252 183l-116 -133q21 -11 39 -23zM364 -480l75 86q-66 23 -134 23q-33 0 -55 -21t-22 -51t20 -49.5t54 -19.5t62 32zM943 1394l2 -1298l242 -166l-446 -520q-186 150 -280 187l-81 -92
q-34 -39 -83 -39q-54 0 -86 36t-32 79q0 104 86.5 175t179.5 71t160 -30l118 136h-1v239l-147 -172l-17 12l-302 221v1120l-67 59l-122 -142l-17 15l301 350l214 -149l-87 -92v-999l244 -168l-2 1126l-84 73l180 209l213 -149z" />
    <glyph glyph-name="Ydieresis" unicode="&#x178;" horiz-adv-x="1309" 
d="M518 2803l129 -129l-129 -128l-129 128zM908 2803l129 -129l-129 -128l-129 128zM624 94q91 46 161 126q134 155 195 440q5 25 11 60h-367v-626zM624 2296v-1382h389q15 186 15 417v676q0 353 -176 353q-35 0 -97 -32t-131 -32zM512 63q37 0 84 19l5 2v2212l-15 1
q-49 5 -103 28q29 -42 29 -106v-2156zM624 883v-132h372q8 60 15 132h-387zM969 2426q105 0 196 -101.5t91 -317.5v-914q0 -445 -151 -711q-194 -342 -620 -342h-200q-43 0 -75 -32q-32 -33 -32 -79t32 -78q33 -32 78 -32l644 -1q87 0 149 -62t62 -149q0 -69 -41 -125
q-41 -54 -105 -75q33 33 33 78q0 46 -32 79q-32 32 -77 32h-635q-97 1 -165 69q-68 69 -68 165t68 165q68 68 165 68h3v1170q0 44 -26 66t-65 22q-40 0 -75 -37q-25 -27 -28 -70v-12q0 -34 15 -64q-11 9 -19 19q-41 50 -41 120q0 71 41 121q59 72 137 72q29 0 61 -10v748
q0 56 -33.5 83t-77.5 27q-46 0 -79 -33q21 64 76 105q56 41 125 41q80 0 153 -56.5t179 -56.5q66 0 148.5 54t188.5 54z" />
    <glyph glyph-name="Zacute" unicode="&#x179;" horiz-adv-x="1071" 
d="M687 2909l87 -87l-332 -275l-26 25zM817 2148l-278 -743h112l313 837q-59 -56 -147 -94zM255 346l282 753h-113l-318 -850q59 57 149 97zM575 1203l37 98h-112l-37 -98h112zM54 2187l259 304q199 -219 389 -219q1 0 96.5 0.5t222.5 52.5l-345 -920h227l23 57h24l-23 -57
l-41 -104h-249l-37 -98h248l-42 -104h-245l-278 -741q110 42 221 42q43 0 86 -6q184 -27 330 -170l86 95l14 -12l-260 -304q-155 223 -346 223t-364 -58l350 931h-260l-22 -56h-24l63 160h282l36 98h-279l41 104h277l274 730q-109 -42 -219 -42q-43 0 -87 7
q-183 28 -329 170l-86 -95z" />
    <glyph glyph-name="zacute" unicode="&#x17a;" horiz-adv-x="864" 
d="M584 2145l87 -87l-332 -275l-26 25zM429 800l-244 -496q173 76 323 76q34 0 68 -4q190 -23 238 -173l-162 -225q-57 189 -419 189q-60 0 -146 -8l66 135l250 506h-268l67 78h239l218 443q-125 -61 -244 -61q-218 0 -365 166l173 216q136 -195 479 -195q23 0 47 1
l-281 -570h239l-67 -78h-211z" />
    <glyph glyph-name="Zdotaccent" unicode="&#x17b;" horiz-adv-x="1071" 
d="M536 2803l129 -129l-129 -128l-129 128zM817 2148l-278 -743h112l313 837q-59 -56 -147 -94zM255 346l282 753h-113l-318 -850q59 57 149 97zM575 1203l37 98h-112l-37 -98h112zM54 2187l259 304q199 -219 389 -219q1 0 96.5 0.5t222.5 52.5l-345 -920h227l23 57h24
l-23 -57l-41 -104h-249l-37 -98h248l-42 -104h-245l-278 -741q110 42 221 42q43 0 86 -6q184 -27 330 -170l86 95l14 -12l-260 -304q-155 223 -346 223t-364 -58l350 931h-260l-22 -56h-24l63 160h282l36 98h-279l41 104h277l274 730q-109 -42 -219 -42q-43 0 -87 7
q-183 28 -329 170l-86 -95z" />
    <glyph glyph-name="zdotaccent" unicode="&#x17c;" horiz-adv-x="864" 
d="M432 2039l129 -129l-129 -128l-129 128zM429 800l-244 -496q173 76 323 76q34 0 68 -4q190 -23 238 -173l-162 -225q-57 189 -419 189q-60 0 -146 -8l66 135l250 506h-268l67 78h239l218 443q-125 -61 -244 -61q-218 0 -365 166l173 216q136 -195 479 -195q23 0 47 1
l-281 -570h239l-67 -78h-211z" />
    <glyph glyph-name="Zcaron" unicode="&#x17d;" horiz-adv-x="1071" 
d="M536 2702l223 104l21 -18l-244 -243l-244 243l21 18zM817 2148l-278 -743h112l313 837q-59 -56 -147 -94zM255 346l282 753h-113l-318 -850q59 57 149 97zM575 1203l37 98h-112l-37 -98h112zM54 2187l259 304q199 -219 389 -219q1 0 96.5 0.5t222.5 52.5l-345 -920h227
l23 57h24l-23 -57l-41 -104h-249l-37 -98h248l-42 -104h-245l-278 -741q110 42 221 42q43 0 86 -6q184 -27 330 -170l86 95l14 -12l-260 -304q-155 223 -346 223t-364 -58l350 931h-260l-22 -56h-24l63 160h282l36 98h-279l41 104h277l274 730q-109 -42 -219 -42
q-43 0 -87 7q-183 28 -329 170l-86 -95z" />
    <glyph glyph-name="zcaron" unicode="&#x17e;" horiz-adv-x="864" 
d="M432 1938l223 104l21 -18l-244 -243l-244 243l21 18zM429 800l-244 -496q173 76 323 76q34 0 68 -4q190 -23 238 -173l-162 -225q-57 189 -419 189q-60 0 -146 -8l66 135l250 506h-268l67 78h239l218 443q-125 -61 -244 -61q-218 0 -365 166l173 216q136 -195 479 -195
q23 0 47 1l-281 -570h239l-67 -78h-211z" />
    <glyph glyph-name="longs" unicode="&#x17f;" horiz-adv-x="567" 
d="M504 2176l300 -322l-258 -300l-14 16l83 96l-256 287v-1671l67 -58l122 142l17 -15l-301 -351l-214 149l85 92v1506l366 427z" />
    <glyph glyph-name="circumflex" unicode="&#x2c6;" horiz-adv-x="588" 
d="M294 1885l-223 -104l-21 18l244 243l244 -243l-21 -18z" />
    <glyph glyph-name="caron" unicode="&#x2c7;" horiz-adv-x="588" 
d="M294 1938l223 104l21 -18l-244 -243l-244 243l21 18z" />
    <glyph glyph-name="uni02C9" unicode="&#x2c9;" horiz-adv-x="659" 
d="M120 1902h489l-71 -118h-488z" />
    <glyph glyph-name="breve" unicode="&#x2d8;" horiz-adv-x="744" 
d="M693 2037q-159 -251 -371 -251q-85 0 -155 36q-74 38 -117 111v2l124 93q89 -116 235 -116q180 0 284 125z" />
    <glyph glyph-name="dotaccent" unicode="&#x2d9;" horiz-adv-x="358" 
d="M179 2039l129 -129l-129 -128l-129 128z" />
    <glyph glyph-name="ring" unicode="&#x2da;" horiz-adv-x="441" 
d="M259 1899q6 -1 12 -1q23 0 32 14q4 6 4 14q0 13 -12 31q-18 28 -55 50q-36 22 -69 26q-6 1 -12 1q-23 0 -31 -14q-4 -6 -4 -14q0 -13 12 -31q18 -28 54 -50t69 -26zM142 2083q24 31 45 46q35 24 72 24q30 0 61 -16q67 -34 67 -108v-8q-2 -45 -34 -91l2 2l-6 -7l-15 -19
q-7 -8 -19 -25l-20 -27q-24 -31 -45 -46q-36 -25 -72 -25q-30 0 -60 17q-64 36 -68 116q2 45 34 91l-2 -2l6 7l15 19q7 9 19 25z" />
    <glyph glyph-name="ogonek" unicode="&#x2db;" horiz-adv-x="506" 
d="M293 -80l-1 1l-21 -26l-21 -27q-23 -31 -38 -56q-40 -65 -40 -116q0 -105 102 -145q35 -14 72 -14q9 0 18 1q48 4 82 29l-1 -2q-3 -2 -7 -6q-6 -4 -12 -9q-7 -7 -15 -13q-21 -16 -42 -30q-27 -18 -52 -31q-65 -35 -118 -41q-10 -1 -19 -1q-54 0 -91 34q-39 36 -39 92
q0 95 127 261q64 83 127 147l135 156l17 -14z" />
    <glyph glyph-name="tilde" unicode="&#x2dc;" horiz-adv-x="715" 
d="M505 1888q17 -4 31 -4h9q43 5 76 31q12 11 24 25l9 12l8 11l-13 -18l-13 -20q-16 -22 -29 -39q-34 -44 -65 -70q-53 -45 -108 -45q-31 0 -62 14q-33 15 -89 49l-44 26q-25 14 -45 24l-17 8l-18 8q-21 8 -38 9h-6q-36 0 -68 -38l12 17l12 18q15 21 26 36q31 41 58 63
q24 20 55 20q5 0 11 -1q29 -4 67 -24q19 -10 44 -25l44 -27q53 -33 90 -47l19 -7z" />
    <glyph glyph-name="hungarumlaut" unicode="&#x2dd;" horiz-adv-x="690" 
d="M224 2195l106 -62l-249 -352l-31 18zM534 2195l106 -62l-249 -352l-31 18z" />
    <glyph glyph-name="uni0400" unicode="&#x400;" horiz-adv-x="1115" 
d="M647 123l139 99v1015q-3 10 -6 21q-6 15 -13 30q-18 39 -44 66q-55 58 -135 58q-30 0 -64 -8v-284l-168 -121l-83 -59v-548l44 -32zM786 2111q-15 -1 -31 -1q-70 0 -145 26q-43 15 -86 37v-736q54 42 111 65q65 27 130 27q11 0 21 -1v583zM1065 1548l-256 -298v-1012
l177 127v-26l-468 -336l-307 221l-161 115v1742l223 171v-1285l83 60v1290l219 167q3 -3 7 -10l4 -6l4 -7q12 -19 23 -33q34 -46 76 -82q127 -106 332 -120q-74 -93 -212 -113v-587q80 -10 156 -61l83 98zM319 2822l87 87l271 -337l-26 -25z" />
    <glyph glyph-name="uni0401" unicode="&#x401;" horiz-adv-x="1115" 
d="M647 123l139 99v1015q-3 10 -6 21q-6 15 -13 30q-18 39 -44 66q-55 58 -135 58q-30 0 -64 -8v-284l-168 -121l-83 -59v-548l44 -32zM786 2111q-15 -1 -31 -1q-70 0 -145 26q-43 15 -86 37v-736q54 42 111 65q65 27 130 27q11 0 21 -1v583zM1065 1548l-256 -298v-1012
l177 127v-26l-468 -336l-307 221l-161 115v1742l223 171v-1285l83 60v1290l219 167q3 -3 7 -10l4 -6l4 -7q12 -19 23 -33q34 -46 76 -82q127 -106 332 -120q-74 -93 -212 -113v-587q80 -10 156 -61l83 98zM363 2803l129 -129l-129 -128l-129 128zM753 2803l129 -129
l-129 -128l-129 128z" />
    <glyph glyph-name="uni0402" unicode="&#x402;" horiz-adv-x="1441" 
d="M762 427v890l-163 -125v-778q25 5 76 9q50 4 87 4zM599 2089v-869l163 125v773q-43 13 -80 27zM1076 1578l315 -303v-979q0 -351 -245 -399q-43 -9 -86 -9q-79 0 -158 30q169 0 234 189q31 89 31 178v936l-240 223l-143 -110v-929h-19q-99 0 -166 -13q-132 -24 -223 -97
q-84 -68 -131 -173q65 91 182 152l19 10q74 35 153 50q54 11 105 11q102 0 188 -21l17 -4q32 -9 65 -23l2 -1h1l20 -10q-82 -62 -137 -155q-40 -68 -62 -145q-6 16 -14 30q-35 69 -88 109q-69 53 -163 53h-30q-35 -2 -70 -8q-110 -19 -172 -77q-34 -33 -51 -79l-3 -10l-2 -9
q-6 -31 -9 -60q-1 -9 -1 -17v-7h-23v4q0 4 1 9q1 15 3 32q7 54 23 107q51 167 177 260v1010q0 15 -15 35q-15 22 -37 34t-43 12q-37 0 -71 -37q-25 -27 -28 -70v-12q0 -34 15 -64q-11 9 -19 19q-41 50 -41 120q0 71 41 121q59 73 136 73q30 0 62 -11v402l284 197l-45 17
l-46 17q-51 18 -90 29q-101 30 -185 30q-56 0 -141 -31q-80 -29 -103 -53q32 73 94 146q55 64 115 101q76 46 157 46q77 0 168 -23q59 -15 161 -52q210 -74 301 -74q206 0 338 68l-1 -2l-1 -4q-3 -6 -5 -12q-7 -18 -16 -37q-28 -55 -66 -100q-117 -141 -294 -141
q-98 0 -217 35v-750l287 221z" />
    <glyph glyph-name="uni0403" unicode="&#x403;" horiz-adv-x="1500" 
d="M675 430v1771l-163 -109v-1675q25 5 76 9q50 4 87 4zM251 2335q120 129 263 129q115 0 318 -66t291 -66q199 0 327 61l-3 -6q-2 -5 -4 -11q-7 -15 -16 -32q-27 -49 -63 -89q-114 -123 -285 -123q-93 0 -199 27q-41 10 -93 27l-45 14l-45 15v-1807h-19q-99 0 -166 -13
q-132 -24 -223 -97q-83 -68 -131 -173q65 91 182 152l20 10q73 35 152 50q55 11 105 11q103 0 188 -21l18 -4q33 -9 64 -23l2 -1h1l20 -10q-82 -62 -137 -155q-39 -68 -62 -145q-6 16 -13 30q-36 69 -89 109q-69 53 -163 53h-30q-35 -2 -70 -8q-110 -19 -171 -77
q-35 -34 -52 -79q-2 -7 -5 -19q-6 -31 -9 -60q-1 -9 -1 -17v-7h-23l1 4v9q1 15 3 32q7 54 23 107q52 167 177 260v1010q0 15 -14 35q-16 22 -38 34t-43 12q-37 0 -71 -37q-25 -27 -28 -70v-12q0 -34 15 -64q-11 9 -19 19q-41 50 -41 120q0 71 41 121q59 73 136 73
q30 0 62 -11v402l383 266q-169 55 -276 55q-54 0 -136 -27q-78 -25 -100 -47q31 65 91 130zM1062 2909l87 -87l-332 -275l-26 25z" />
    <glyph glyph-name="uni0404" unicode="&#x404;" horiz-adv-x="1071" 
d="M273 1396l83 60v857l219 168q3 -3 7 -10l4 -6l4 -7q12 -19 23 -33q34 -46 76 -82q127 -106 332 -120h-1l-1 -2l-2 -2l-3 -4l-8 -8q-6 -6 -12 -11q-15 -14 -33 -26q-22 -15 -45 -27q-75 -37 -158 -37q-71 0 -148 27q-43 15 -86 37v-620l-168 -121l-83 -60v-99
q12 -13 26 -25q62 -54 113 -60q4 -1 8 -1q7 0 15 2q10 2 23 8q24 9 47 25q17 11 45 34l44 36q54 40 98 46q13 2 26 2q61 0 134 -35q59 -28 148 -92q-26 18 -67 36q-46 20 -72 20h-2q-33 -1 -50 -6q-49 -16 -83 -43l-44 -36q-28 -23 -47 -36q-51 -33 -95 -33h-9
q-80 6 -161 61q-57 38 -97 87v-871l44 -32l330 -237l339 242v-26l-468 -336l-307 221l-161 115v1742l223 171v-853z" />
    <glyph glyph-name="uni0405" unicode="&#x405;" horiz-adv-x="1215" 
d="M96 -27q15 -37 53 -53q19 -7 37 -7q19 0 37 7q38 15 53 53l98 233l-14 -1q-48 -4 -97 -25q-40 -17 -78 -44q-44 -30 -70 -60q-12 -12 -19 -28q-7 -18 -7 -37t7 -38zM482 1848l27 -32l2 -2l123 296q11 34 11 65q0 76 -64 139q-79 79 -166 79q-43 0 -65 -45
q-17 -36 -17 -89q0 -132 40 -233q33 -85 109 -178zM908 1434l2 -1q186 -173 227 -338q28 -113 28 -246q0 -319 -213 -645q-74 -112 -153 -193l-12 11q-187 182 -389 185l-101 -243q-14 -34 -45 -54q-30 -20 -66 -20q-24 0 -46 10q-46 19 -64 65q-9 23 -9 46t9 45q8 20 22 36
q132 146 312 201l258 618q-53 63 -122 121q-43 36 -123 107q-78 68 -126 112l-104 -246q-11 -27 -39 -39q-13 -5 -26 -5q-14 0 -28 6q-27 11 -38 38q-6 14 -6 28t6 27q11 27 39 38l8 -20q-19 -8 -27 -27q-3 -9 -3 -18t3 -19q8 -19 26 -27q10 -4 19 -4q10 0 19 4q19 8 27 26
l106 254q-193 183 -193 367v6q1 89 27 183q8 31 18 60l8 20l2 7q2 4 2 5v-32q3 -35 16 -74q41 -123 175 -266q16 -17 43 -44l17 -17q29 -28 78 -74q18 -17 44 -42l46 -43q119 -111 167 -160l16 -16l15 -17l16 -18l31 -38q120 -146 120 -347q0 -53 -8 -110q-13 -86 -44 -174
l-31 -77v19q0 94 -9 170q-27 181 -151 336l-247 -590q79 20 157 20q49 0 98 -8q122 -20 208 -87q124 272 124 468q0 36 -2 67q-19 233 -130 369q-30 38 -74 82l-17 17q-35 33 -89 80l-45 39l-45 40q-30 26 -93 89q-63 61 -97 97l-15 16q-211 229 -211 415q0 289 162 395
q52 34 116 46q21 3 41 4q7 1 13 1h7q116 0 152 -82q12 -26 15 -58v-34q0 -30 -22 -89q-9 -23 -22 -55l-11 -27l-11 -25l-119 -286l16 -18q32 -35 94 -97q64 -64 97 -94l39 -34l39 -33q51 -44 79 -69l111 264q11 27 39 38q14 6 27 6q14 0 27 -6q27 -11 38 -39q6 -13 6 -27
q0 -13 -6 -27q-11 -27 -39 -39l-8 21q19 8 27 26q4 10 4 19q0 10 -4 19q-8 19 -26 26q-10 4 -20 4q-9 0 -18 -3q-19 -8 -26 -27z" />
    <glyph glyph-name="uni0406" unicode="&#x406;" horiz-adv-x="967" 
d="M917 282q-149 -111 -199 -300q-99 192 -265 192q-167 0 -247.5 -70t-91.5 -197h-21q19 258 203 412l-1 921q0 35 -28 58t-66 23q-36 0 -68 -30.5t-32 -81.5q0 -41 16 -71q-11 9 -19 19q-41 50 -42 120q0 71 41 121q59 73 136 73q30 0 62 -11v431l151 175
q-144 17 -225 150l-154 -182l-17 14l156 184l215 252q60 -201 269 -201q100 0 188 35q-180 -227 -360 -251v-1679q-131 -24 -222 -97q-84 -68 -131 -173q204 223 459 223q171 0 293 -59z" />
    <glyph glyph-name="uni0407" unicode="&#x407;" horiz-adv-x="967" 
d="M289 2803l129 -129l-129 -128l-129 128zM679 2803l129 -129l-129 -128l-129 128zM917 282q-149 -111 -199 -300q-99 192 -265 192q-167 0 -247.5 -70t-91.5 -197h-21q19 258 203 412l-1 921q0 35 -28 58t-66 23q-36 0 -68 -30.5t-32 -81.5q0 -41 16 -71q-11 9 -19 19
q-41 50 -42 120q0 71 41 121q59 73 136 73q30 0 62 -11v431l151 175q-144 17 -225 150l-154 -182l-17 14l156 184l215 252q60 -201 269 -201q100 0 188 35q-180 -227 -360 -251v-1679q-131 -24 -222 -97q-84 -68 -131 -173q204 223 459 223q171 0 293 -59z" />
    <glyph glyph-name="uni0408" unicode="&#x408;" horiz-adv-x="1191" 
d="M683 2484q4 -13 8 -25q33 -97 111 -140q63 -36 150 -36q101 0 189 35q-180 -227 -360 -251v-1685q56 21 112 30q31 5 55 7l2 -22q-22 -2 -51 -7q-59 -9 -118 -31q-118 -43 -220 -131l-3 -3q-85 -73 -156 -172q-47 -65 -86 -139q-15 -28 -28 -56q-10 -21 -18 -41l-20 10
q-172 97 -191 274q-2 15 -2 29q0 68 35 136q47 87 124 109q11 4 23 5q8 1 16 1t16 -1q45 -4 88 -33q-11 2 -22 2q-56 0 -94 -46q-31 -38 -31 -81q0 -16 4 -33q17 -70 70 -105q38 -25 90 -30q81 116 179 197l3 3v987q-1 16 -15 35q-16 21 -38 33q-21 12 -42 12q-36 0 -70 -37
q-26 -27 -29 -70v-11q0 -35 16 -65q-12 9 -19 19q-42 50 -42 120q0 71 41 121q59 72 137 72q29 0 61 -10v431l151 175q-144 17 -225 150l-155 -182l-16 14l156 184z" />
    <glyph glyph-name="uni0409" unicode="&#x409;" horiz-adv-x="2176" 
d="M1648 320l17 -4q32 -9 65 -23v486h-190v-442q59 -5 108 -17zM1730 1240l-190 271v-584h190v313zM1730 810v86h-190v-86h190zM1391 338q39 3 69 3q27 0 57 -2v1191l-194 -136l-1 -1064q25 5 69 8zM1953 1288v-891q67 15 173 19v-22q-107 -4 -173 -20q-105 -24 -187 -82
l-13 -10q-82 -62 -137 -155q-40 -68 -62 -145q-7 16 -14 30q-33 64 -104 109q-83 53 -179 53h-14q-18 0 -36 -2q-58 -4 -108 -20v1867h12q101 0 183 34.5t118 73.5l16 -15q-42 -46 -105 -75v-618l361 251zM674 2082h-1v-1530q0 -452 -311 -493q-36 -5 -72 -5q-120 0 -240 54
q214 0 302 104q99 117 99 418v676q0 56 -26 80t-65 24q-40 0 -70 -32t-30 -76t12 -75q-60 45 -60 139q0 71 41 121q59 73 136 73q30 0 62 -11v401l364 251q-211 71 -308 71t-251 -74q32 65 92 130q119 129 262 129q115 0 318 -66t347 -66q143 0 271 61q-106 -261 -371 -261
q-129 0 -317 62v-2026h-22v2030z" />
    <glyph glyph-name="uni040A" unicode="&#x40a;" horiz-adv-x="2034" 
d="M1506 320l17 -4q32 -9 65 -23v486h-190v-442q60 -5 108 -17zM1588 1240l-190 271v-584h190v313zM1588 810v86h-190v-86h190zM608 1317v-36h350v36h-350zM1376 339v1191l-194 -136v-254h-1v-810q24 5 68 8q40 3 69 3q27 0 58 -2zM1811 1288v-891q67 15 173 19v-22
q-107 -4 -173 -20q-105 -24 -186 -82l-14 -10q-82 -62 -137 -155q-40 -68 -62 -145q-7 16 -14 30q-32 64 -104 109q-83 53 -179 53h-14q-17 0 -35 -2q-58 -4 -108 -20v1106h-350v-859l-22 -2q-42 -3 -74 -9q-132 -24 -223 -97q-84 -68 -131 -173q65 91 182 152l20 10
q72 35 152 50q55 11 105 11q91 0 172 -18q-13 -15 -27 -35q-32 -47 -54 -97q-29 -65 -40 -131q-82 114 -222 114h-30q-35 -2 -70 -8q-110 -19 -171 -77q-35 -33 -52 -79l-5 -19q-6 -31 -9 -60q-1 -9 -1 -17v-7h-23v4q1 4 1 9q1 15 3 32q7 54 23 107q52 167 177 260v921
q0 15 -15 35q-15 22 -37 34t-42 12q-37 0 -72 -37q-25 -27 -28 -70v-12q0 -34 15 -64q-10 9 -19 19q-41 50 -41 120q0 71 41 121q59 73 136 73q30 0 62 -11v894h-198v23h421v-1967q24 5 74 9v1984h22v-949h350v813l188 175q8 -27 35 -63q45 -61 118 -97q92 -45 217 -45h21
q-36 -46 -99 -84q-55 -34 -113 -46q-29 -6 -58 -6q-43 0 -86 13v-77h1v-618l360 251z" />
    <glyph glyph-name="uni040B" unicode="&#x40b;" horiz-adv-x="1441" 
d="M762 427v890l-163 -125v-778q25 5 76 9q50 4 87 4zM599 2089v-869l163 125v773q-43 13 -80 27zM1076 1578l315 -303v-1026q0 -351 -245 -399q-43 -9 -86 -9q-79 0 -158 30q169 0 234 189q31 89 31 178v983l-240 223l-143 -110v-929h-19q-99 0 -166 -13q-132 -24 -223 -97
q-84 -68 -131 -173q65 91 182 152l19 10q74 35 153 50q54 11 105 11q102 0 188 -21l17 -4q32 -9 65 -23l2 -1h1l20 -10q-82 -62 -137 -155q-40 -68 -62 -145q-6 16 -14 30q-35 69 -88 109q-69 53 -163 53h-30q-35 -2 -70 -8q-110 -19 -172 -77q-34 -33 -51 -79l-3 -10l-2 -9
q-6 -31 -9 -60q-1 -9 -1 -17v-7h-23v4q0 4 1 9q1 15 3 32q7 54 23 107q51 167 177 260v1010q0 15 -15 35q-15 22 -37 34t-43 12q-37 0 -71 -37q-25 -27 -28 -70v-12q0 -34 15 -64q-11 9 -19 19q-41 50 -41 120q0 71 41 121q59 73 136 73q30 0 62 -11v402l284 197l-45 17
l-46 17q-51 18 -90 29q-101 30 -185 30q-56 0 -141 -31q-80 -29 -103 -53q32 73 94 146q55 64 115 101q76 46 157 46q77 0 168 -23q59 -15 161 -52q210 -74 301 -74q206 0 338 68l-1 -2l-1 -4q-3 -6 -5 -12q-7 -18 -16 -37q-28 -55 -66 -100q-117 -141 -294 -141
q-98 0 -217 35v-750l287 221z" />
    <glyph glyph-name="uni040C" unicode="&#x40c;" horiz-adv-x="1474" 
d="M919 2909l87 -87l-332 -275l-26 25zM636 1085l475 383l-289 353l-186 -151v-585zM512 1570v-585l102 82v585zM614 1038l-102 -82v-546q37 7 102 11v617zM636 400h-22q-56 -3 -103 -12q-131 -24 -223 -97q-83 -68 -131 -173q181 223 460 223q162 0 292 -59
q-162 -104 -199 -300q-95 192 -276 192q-291 0 -327 -267h-22q1 28 3 45q7 54 23 107q52 167 177 260l1 921q0 22 -26 48q-28 29 -63 32q-6 0 -14 -1q-33 -4 -63 -35q-25 -27 -26 -71v-10q0 -39 13 -65q-10 9 -19 19q-41 50 -41 120q0 71 50 132.5t127 61.5q30 0 62 -11v621
l525 403q178 -258 428 -258h17v-1q-108 -115 -265 -115q-228 0 -398 179l-84 -65v-626l102 82v390h22v-372l336 272l317 -388l-402 -325l338 -390v-621l87 -60l96 117l16 -12l-240 -288l-182 126v622l-296 361l-70 -56v-656z" />
    <glyph glyph-name="uni040D" unicode="&#x40d;" horiz-adv-x="1555" 
d="M679 415v424l-100 -165v-269q35 6 100 10zM1489 297l16 -11l-240 -288l-182 126v1385l-382 -633v-481l-22 -1q-59 -3 -102 -12q-131 -23 -223 -97q-83 -67 -130 -172q64 91 182 152l19 10q73 34 152 50q54 10 106 10q102 0 188 -20l17 -5q32 -8 65 -22q13 -6 23 -11
q-82 -62 -137 -155q-40 -68 -62 -145q-7 16 -14 30q-35 69 -89 109q-69 52 -163 52l-2 1h-6q-10 0 -21 -1q-36 -1 -71 -7q-110 -19 -171 -78q-35 -33 -52 -78q-2 -7 -5 -19q-6 -31 -8 -60q-1 -9 -2 -17v-7h-22v13q1 15 3 32q7 54 23 106q52 168 177 261v920q0 23 -25 49
q-29 29 -64 31l-6 1l-7 -1q-34 -4 -63 -35q-26 -28 -29 -70v-11q0 -35 16 -65q-12 9 -19 19q-41 49 -42 120q0 71 41 121q59 72 137 72q29 0 61 -10v665q0 83 -57 83q-5 0 -10 -1q-12 -1 -30 -6l-32 -9q-41 -12 -61 -12q-95 0 -137 56q-29 39 -29 98q0 21 4 45
q38 -65 144 -65q30 0 60 13q11 5 26 14l26 15q73 43 147 43q106 0 146 -65q28 -46 28 -141v-1266l100 165v1234h22v-1197l382 633v482l-86 59l-96 -116l-16 12l239 288l182 -127v-2114l87 -60zM513 2822l87 87l271 -337l-26 -25z" />
    <glyph glyph-name="uni040E" unicode="&#x40e;" horiz-adv-x="1236" 
d="M963 1034v1209l-86 60l-87 -105v-1366zM1186 2359v-1797l-223 -270l-242 -292q-120 153 -280 177q-31 5 -58 5q-44 0 -78 -12q117 197 269 197q42 0 87 -15q66 -22 136 -78q12 -10 25 -21q9 -8 20 -18q22 -20 27 -23l94 114v675l-173 -202l-22 -26l-219 -256l-263 267
v632q-13 43 -59 62q-17 7 -33 7q-37 0 -71 -37q-25 -27 -28 -70v-12q0 -34 15 -64q-10 8 -19 19q-41 50 -41 120q0 71 41 121q59 73 136 73q28 0 59 -10v618l-86 60l-95 -117l-17 12l240 288l182 -127v-1519l155 -155l103 121v1397l236 283zM1039 2798q-159 -251 -371 -251
q-85 0 -155 36q-74 38 -117 111v2l124 93q89 -116 235 -116q180 0 284 125z" />
    <glyph glyph-name="uni040F" unicode="&#x40f;" horiz-adv-x="1267" 
d="M619 1166v-903h376v903h-376zM995 1197v131h-376v-131h376zM91 1398q59 73 136 73q30 0 62 -11v748q0 45 -33 78q-32 32 -78 32t-79 -33q21 64 76 105q56 41 125 41q88 0 150 -62t62 -150v-1956h85v2081h22v-985h376v849q0 45 -33 78q-32 32 -78 32t-79 -33q21 64 76 105
t125 41q88 0 150 -62q61 -62 61 -150v-2041h-94q-193 0 -281 -148q-33 -50 -52 -119q-7 -27 -13 -59q-4 -22 -8 -53v-10h-32v10q-2 18 -6 37q-5 26 -13 51q-20 67 -55 121q-98 170 -285 170h-89v1062q0 15 -15 35q-15 22 -37 34t-42 12q-37 0 -72 -37q-25 -27 -28 -70v-12
q0 -34 15 -64q-10 9 -19 19q-41 50 -41 120q0 71 41 121z" />
    <glyph glyph-name="uni0410" unicode="&#x410;" horiz-adv-x="1605" 
d="M735 259q156 124 327 151l-106 513h-408l-123 -604q27 3 53 3q82 0 152 -18l13 -4q50 -15 92 -41zM579 1073h346l-175 841zM1417 227l121 142l17 -15l-301 -351l-130 104l-58 283q-165 -27 -274.5 -116t-246.5 -263q-63 157 -205 157t-206.5 -77t-64.5 -154h-19v7
q0 5 1 12q4 54 22 101q7 19 16 37q31 61 86 109q42 37 94 65q64 33 133 47l336 1654q-8 39 -13 61q-32 152 -101 183q-17 8 -37 8q-48 0 -112.5 -32.5t-135.5 -32.5q-48 0 -88.5 21.5t-40.5 57.5q29 -29 79 -29q88 0 185 101.5t200 101.5h4q37 -1 66 -10q42 -13 76 -44
q90 -82 133 -291l178 -872l177 -872z" />
    <glyph glyph-name="uni0411" unicode="&#x411;" horiz-adv-x="1358" 
d="M291 291q-84 -68 -131 -173q65 91 182 152l20 10q73 35 152 50q24 5 69 8q39 3 68 3q102 0 188 -21l17 -4q32 -9 65 -23v519h-290v-413l-22 -1q-63 -4 -95 -10q-132 -24 -223 -97zM921 843v155h-290v-155h290zM921 1418l-212 290l-78 -54v-625h290v389zM514 1571v-1161
q24 5 95 9v1219l-68 -48l-26 -18zM1144 1466v-1069q78 18 164 18v-23q-87 0 -164 -18q-105 -24 -186 -82l-14 -10q-82 -62 -137 -155q-40 -68 -62 -145q-6 16 -14 30q-32 64 -104 109q-82 53 -179 53h-30q-35 -2 -70 -8q-110 -19 -171 -77q-35 -33 -52 -79l-5 -19
q-6 -31 -9 -60q-1 -9 -1 -17v-7h-23v4q1 4 1 9q1 15 3 32q7 54 23 107q52 167 177 260v921q0 11 -8 25q-12 22 -33 37q-24 17 -50 18h-2q-39 0 -73 -36q-30 -32 -30 -75q0 -25 10 -53q3 -9 7 -18q-11 9 -19 19l-9 13q-32 47 -32 108v7q3 66 41 113q59 73 138 73h4
q27 -2 56 -11v621l525 403q3 -3 7 -10l4 -6l4 -7q12 -19 23 -33q34 -46 76 -82q127 -105 332 -120h-1v-1l-7 -7q-3 -4 -6 -7q-8 -8 -17 -15q-11 -10 -23 -19q-32 -22 -67 -38q-44 -19 -92 -26l-22 -2q-15 -1 -31 -1q-70 0 -145 26q-86 30 -175 92q-38 27 -78 61l-84 -65
v-627l361 251z" />
    <glyph glyph-name="uni0412" unicode="&#x412;" horiz-adv-x="1356" 
d="M158 118q65 91 182 152l20 10q73 35 152 50q24 5 69 8q39 3 68 3q102 0 188 -21l17 -4q32 -9 65 -23v572h-278v-466l-22 -1q-71 -3 -107 -10q-132 -24 -223 -97q-83 -68 -131 -173zM512 1571v-1161q27 5 107 10v1226l-80 -56l-26 -18zM645 2346l-133 -94v-653l440 309z
M919 1418l-206 294l-74 -51h2v-647h278v404zM919 896v87h-278v-87h278zM1142 1466v-1069q78 18 164 18v-23q-87 0 -164 -18q-105 -25 -226.5 -112.5t-172.5 -279.5q-121 192 -297 192q-138 0 -238 -75t-100 -192h-22v13q1 15 3 32q7 54 23 107q52 167 177 260v921
q0 15 -15 35q-15 22 -37 34t-42 12q-37 0 -72 -37q-25 -27 -28 -70v-12q0 -34 15 -64q-11 9 -19 19q-41 50 -41 120q0 71 41 121q59 73 136 73q30 0 62 -11v748q0 45 -33 78q-32 32 -78 32t-79 -33q21 64 76 105q56 41 125 41q73 0 130 -45q56 -43 74 -112l8 5l292 205
l333 -474l-252 -177l34 -49z" />
    <glyph glyph-name="uni0413" unicode="&#x413;" horiz-adv-x="1500" 
d="M675 430v1771l-163 -109v-1675q25 5 76 9q50 4 87 4zM251 2335q120 129 263 129q115 0 318 -66t291 -66q199 0 327 61l-3 -6q-2 -5 -4 -11q-7 -15 -16 -32q-27 -49 -63 -89q-114 -123 -285 -123q-93 0 -199 27q-41 10 -93 27l-45 14l-45 15v-1807h-19q-99 0 -166 -13
q-132 -24 -223 -97q-83 -68 -131 -173q65 91 182 152l20 10q73 35 152 50q55 11 105 11q103 0 188 -21l18 -4q33 -9 64 -23l2 -1h1l20 -10q-82 -62 -137 -155q-39 -68 -62 -145q-6 16 -13 30q-36 69 -89 109q-69 53 -163 53h-30q-35 -2 -70 -8q-110 -19 -171 -77
q-35 -34 -52 -79q-2 -7 -5 -19q-6 -31 -9 -60q-1 -9 -1 -17v-7h-23l1 4v9q1 15 3 32q7 54 23 107q52 167 177 260v1010q0 15 -14 35q-16 22 -38 34t-43 12q-37 0 -71 -37q-25 -27 -28 -70v-12q0 -34 15 -64q-11 9 -19 19q-41 50 -41 120q0 71 41 121q59 73 136 73
q30 0 62 -11v402l383 266q-169 55 -276 55q-54 0 -136 -27q-78 -25 -100 -47q31 65 91 130z" />
    <glyph glyph-name="uni0414" unicode="&#x414;" horiz-adv-x="1369" 
d="M693 698v-435h292v435h-292zM985 2126l-292 199v-1434h292v1235zM985 729v131h-292v-131h292zM1207 2238v-2033h112v-416h-30q-6 94 -54 190q-98 192 -310 199h-481q-213 -7 -310 -199q-48 -96 -55 -190h-29v416h106q160 126 160 427v1452l223 171v-1623q0 -129 -29 -232
q-22 -79 -59 -137h220v2093l170 131z" />
    <glyph glyph-name="uni0415" unicode="&#x415;" horiz-adv-x="1115" 
d="M647 123l139 99v1015q-3 10 -6 21q-6 15 -13 30q-18 39 -44 66q-55 58 -135 58q-30 0 -64 -8v-284l-168 -121l-83 -59v-548l44 -32zM786 2111q-15 -1 -31 -1q-70 0 -145 26q-43 15 -86 37v-736q54 42 111 65q65 27 130 27q11 0 21 -1v583zM1065 1548l-256 -298v-1012
l177 127v-26l-468 -336l-307 221l-161 115v1742l223 171v-1285l83 60v1290l219 167q3 -3 7 -10l4 -6l4 -7q12 -19 23 -33q34 -46 76 -82q127 -106 332 -120q-74 -93 -212 -113v-587q80 -10 156 -61l83 98z" />
    <glyph glyph-name="uni0416" unicode="&#x416;" horiz-adv-x="1931" 
d="M1170 1191l155 124l319 252l-472 576l-2 3v-955zM850 1666v106h-330v-106h330zM520 1382l330 -260v513h-330v-253zM1148 419v725l-16 -13l-60 -49l1 -672q24 5 75 9zM1148 1173v955l-76 -59v-959l60 50zM1769 186l95 117l17 -12l-240 -288l-182 126v667l-289 352v-749
l-22 -2q-44 -3 -75 -9q-132 -24 -223 -97q-84 -68 -131 -173q65 91 182 152l19 10q73 35 153 50q55 11 105 11q102 0 188 -21l17 -4q17 -5 33 -11q-21 -17 -40 -38q-27 -29 -49 -63q-58 -92 -64 -201l-2 4l-3 5q-35 69 -88 109q-69 53 -163 53h-30q-35 -2 -70 -8
q-110 -19 -172 -77q-34 -33 -51 -78l-5 -20q-6 -31 -9 -60q-1 -9 -1 -17v-5l-1 -2h-22v4q0 4 1 9q1 15 3 32q7 54 23 107q51 167 177 260v773l-82 64l-296 -360v-667l-182 -126l-240 288l17 12l95 -117l87 60v666l338 390l-291 230v442q0 46 -32 78q-33 32 -79 32t-79 -33
q21 65 76 105q56 41 125 41q88 0 150 -62q63 -62 63 -149v-183h330v425l-1 15q-2 16 -7 26q-15 25 -62 25q-19 0 -42 -9l-21 -8l-21 -10q-28 -13 -45 -19q-26 -8 -49 -8q-110 0 -173 67q-22 25 -41 62q-7 12 -15 30l-7 14l-6 14q15 -24 44 -49q26 -21 54 -33q36 -15 75 -15
q51 0 99 24q19 9 41 24l19 13l20 14q103 76 186 76q106 0 146 -65q28 -45 28 -141v-177l76 60l22 17l151 117l501 -611l-478 -379l338 -390v-666z" />
    <glyph glyph-name="uni0417" unicode="&#x417;" horiz-adv-x="1332" 
d="M265 291q-84 -68 -131 -173q65 91 182 152l20 10q73 35 152 50q24 5 69 8q39 3 68 3q102 0 188 -21l17 -4q32 -9 65 -23v578h-396v-483h-11q-132 -24 -223 -97zM895 902v107h-396v-107h396zM689 1712l-174 -122l-18 -12h2v-538h396v378zM1118 1466v-1069q78 18 164 18
v-23q-87 0 -164 -18q-105 -24 -186 -82l-14 -10q-82 -62 -137 -155q-40 -68 -62 -145q-6 16 -14 30q-32 64 -104 109q-82 53 -179 53h-30q-35 -2 -70 -8q-110 -19 -171 -77q-35 -33 -52 -79l-5 -19q-6 -31 -9 -60q-1 -9 -1 -17v-7h-23v4q1 4 1 9q1 15 3 32q7 54 23 107
q52 167 177 260q89 66 212 89v1155l-119 -84v28l130 92l440 309l-307 438l-133 -94l-223 -156l-4 -4q-101 21 -152 76q-41 45 -50 109q-2 19 -2 37q0 54 20 103q100 -155 271 -155q68 0 130 23q22 8 41 19q8 4 14 8q5 2 9 5l3 3l235 164l333 -474l-252 -177l34 -49z" />
    <glyph glyph-name="uni0418" unicode="&#x418;" horiz-adv-x="1555" 
d="M679 415v424l-100 -165v-269q35 6 100 10zM1489 297l16 -11l-240 -288l-182 126v1385l-382 -633v-481l-22 -1q-59 -3 -102 -12q-131 -23 -223 -97q-83 -67 -130 -172q64 91 182 152l19 10q73 34 152 50q54 10 106 10q102 0 188 -20l17 -5q32 -8 65 -22q13 -6 23 -11
q-82 -62 -137 -155q-40 -68 -62 -145q-7 16 -14 30q-35 69 -89 109q-69 52 -163 52l-2 1h-6q-10 0 -21 -1q-36 -1 -71 -7q-110 -19 -171 -78q-35 -33 -52 -78q-2 -7 -5 -19q-6 -31 -8 -60q-1 -9 -2 -17v-7h-22v13q1 15 3 32q7 54 23 106q52 168 177 261v920q0 23 -25 49
q-29 29 -64 31l-6 1l-7 -1q-34 -4 -63 -35q-26 -28 -29 -70v-11q0 -35 16 -65q-12 9 -19 19q-41 49 -42 120q0 71 41 121q59 72 137 72q29 0 61 -10v665q0 83 -57 83q-5 0 -10 -1q-12 -1 -30 -6l-32 -9q-41 -12 -61 -12q-95 0 -137 56q-29 39 -29 98q0 21 4 45
q38 -65 144 -65q30 0 60 13q11 5 26 14l26 15q73 43 147 43q106 0 146 -65q28 -46 28 -141v-1266l100 165v1234h22v-1197l382 633v482l-86 59l-96 -116l-16 12l239 288l182 -127v-2114l87 -60z" />
    <glyph glyph-name="uni0419" unicode="&#x419;" horiz-adv-x="1555" 
d="M679 415v424l-100 -165v-269q35 6 100 10zM1489 297l16 -11l-240 -288l-182 126v1385l-382 -633v-481l-22 -1q-59 -3 -102 -12q-131 -23 -223 -97q-83 -67 -130 -172q64 91 182 152l19 10q73 34 152 50q54 10 106 10q102 0 188 -20l17 -5q32 -8 65 -22q13 -6 23 -11
q-82 -62 -137 -155q-40 -68 -62 -145q-7 16 -14 30q-35 69 -89 109q-69 52 -163 52l-2 1h-6q-10 0 -21 -1q-36 -1 -71 -7q-110 -19 -171 -78q-35 -33 -52 -78q-2 -7 -5 -19q-6 -31 -8 -60q-1 -9 -2 -17v-7h-22v13q1 15 3 32q7 54 23 106q52 168 177 261v920q0 23 -25 49
q-29 29 -64 31l-6 1l-7 -1q-34 -4 -63 -35q-26 -28 -29 -70v-11q0 -35 16 -65q-12 9 -19 19q-41 49 -42 120q0 71 41 121q59 72 137 72q29 0 61 -10v665q0 83 -57 83q-5 0 -10 -1q-12 -1 -30 -6l-32 -9q-41 -12 -61 -12q-95 0 -137 56q-29 39 -29 98q0 21 4 45
q38 -65 144 -65q30 0 60 13q11 5 26 14l26 15q73 43 147 43q106 0 146 -65q28 -46 28 -141v-1266l100 165v1234h22v-1197l382 633v482l-86 59l-96 -116l-16 12l239 288l182 -127v-2114l87 -60zM1153 2801q-159 -251 -371 -251q-85 0 -155 36q-74 38 -117 111v2l124 93
q89 -116 235 -116q180 0 284 125z" />
    <glyph glyph-name="uni041A" unicode="&#x41a;" horiz-adv-x="1474" 
d="M636 1085l475 383l-289 353l-186 -151v-585zM512 1570v-585l102 82v585zM614 1038l-102 -82v-546q37 7 102 11v617zM636 400h-22q-56 -3 -103 -12q-131 -24 -223 -97q-83 -68 -131 -173q181 223 460 223q162 0 292 -59q-162 -104 -199 -300q-95 192 -276 192
q-291 0 -327 -267h-22q1 28 3 45q7 54 23 107q52 167 177 260l1 921q0 22 -26 48q-28 29 -63 32q-6 0 -14 -1q-33 -4 -63 -35q-25 -27 -26 -71v-10q0 -39 13 -65q-10 9 -19 19q-41 50 -41 120q0 71 50 132.5t127 61.5q30 0 62 -11v621l525 403q178 -258 428 -258h17v-1
q-108 -115 -265 -115q-228 0 -398 179l-84 -65v-626l102 82v390h22v-372l336 272l317 -388l-402 -325l338 -390v-621l87 -60l96 117l16 -12l-240 -288l-182 126v622l-296 361l-70 -56v-656z" />
    <glyph glyph-name="uni041B" unicode="&#x41b;" horiz-adv-x="1641" 
d="M1123 1317h-308v-131h308v131zM407 1950l223 154l162 112v8q-151 48 -254 48q-55 0 -137 -27q-77 -25 -99 -47q31 65 91 130q120 129 263 129q115 0 318 -66l37 -12l38 -12q42 -13 73 -21q81 -21 143 -21q199 0 326 61l-1 -2l-1 -4q-2 -5 -4 -11q-7 -15 -16 -32
q-27 -49 -64 -88q-113 -124 -284 -124q-98 0 -212 30q-42 11 -99 29l-48 17l-47 15v-868h308v671h12q48 0 92 7q67 10 119 36t89 65l16 -15q-43 -46 -105 -75v-1791l86 -60l95 117l17 -12l-240 -288l-181 126v1026h-308v-994h-23v2030l-163 -109v-1930q0 -101 -63 -180
q-62 -78 -159 -101q-34 -9 -67 -9q-120 0 -205 85t-85 205q0 62 26 120q-13 -32 -13 -66q0 -71 50 -122q51 -50 122 -50t122 50q50 51 50 122v1123q0 15 -14 35q-16 22 -38 34q-21 12 -42 12q-36 0 -71 -37q-26 -27 -29 -70v-11q0 -35 16 -65q-11 9 -19 19q-41 50 -42 120
q0 71 41 121q59 73 136 73q30 0 62 -11v401z" />
    <glyph glyph-name="uni041C" unicode="&#x41c;" horiz-adv-x="1938" 
d="M1229 1438v835l-43 43l-133 -154v-724h176zM1053 246l86 -60l90 110v961h-176v-1011zM719 1438v835l-44 43l-163 -191v-687h207zM719 356v901h-207v-914q23 5 98 9q68 4 109 4zM1564 1257v-838l-1 -173l87 -60l96 117l17 -12l-240 -288l-182 126v2033l-89 89v-1960
l-240 -288l-182 126v2033l-89 88v-1916h-19q-49 0 -105 -3q-71 -4 -105 -10q-132 -24 -223 -97q-84 -68 -131 -172q150 222 459 222q73 0 140 -11q-85 -103 -85 -258v-11q-131 102 -273 102q-35 0 -143 -19.5t-148 -236.5h-23q6 79 27 152q51 167 177 260v989q-1 15 -15 35
q-16 21 -38 33q-21 12 -42 12q-36 0 -71 -37q-25 -27 -28 -70v-12q0 -34 15 -64q-11 9 -19 19q-41 50 -41 120q0 71 41 121q59 72 137 72q29 0 61 -10v748q0 45 -33 78q-32 32 -78 32t-79 -33q21 64 76 105q56 41 125 41q88 0 150 -62t62 -150v-60l279 325l215 -220l57 -57
l108 125l131 152l263 -268l-1 -778h191l116 135l17 -15l-252 -301h-72z" />
    <glyph glyph-name="uni041D" unicode="&#x41d;" horiz-adv-x="1273" 
d="M648 1050v-87h352v87h-352zM512 1414v-1004q38 7 114 11v1125zM845 1802l-197 -230v-491h352v566zM960 1970l263 -268v-1627q0 -350 -244 -399q-43 -9 -86 -9q-80 0 -159 30q93 0 156 59q50 47 79 130q31 91 31 183v863h-352v-532h-22q-67 -3 -114 -12q-131 -24 -223 -97
q-83 -68 -131 -173q65 91 182 152l20 10q73 35 152 50q54 11 106 11q101 0 187 -21l18 -4q31 -9 64 -23h1l22 -11q-82 -62 -137 -155q-39 -68 -62 -145q-6 16 -13 30q-36 69 -89 109q-69 53 -163 53h-30q-35 -2 -70 -8q-110 -19 -171 -77q-35 -33 -52 -78q-3 -10 -5 -20
q-6 -31 -9 -60q-1 -9 -1 -17v-7h-23v4q1 4 1 9q1 15 3 32q7 54 23 107q52 167 177 260v921q0 15 -15 35q-15 22 -37 34t-42 12q-37 0 -72 -37q-25 -27 -28 -70v-12q0 -34 15 -64q-11 9 -19 19q-41 50 -41 120q0 71 41 121q59 73 136 73q30 0 62 -11v894h-198v23h421v-929
l114 132v819h22v-793l27 32l22 26z" />
    <glyph glyph-name="uni041E" unicode="&#x41e;" horiz-adv-x="1071" 
d="M647 123l116 83v1904h-10q-122 0 -229 63v-1053l-251 -180v-548zM356 2317l219 167q179 -258 446 -258q-12 -15 -35 -34v-1853l-468 -336l-468 336v1742l223 171v-1285l83 60v1290z" />
    <glyph glyph-name="uni041F" unicode="&#x41f;" horiz-adv-x="1467" 
d="M350 373q50 22 104 33q26 7 74 12v1768l-178 -136v-1677zM340 300h-12l6 1zM1305 186l96 117l16 -12l-240 -288l-181 126v1974l-303 208l-143 -107v-1807l-22 -2q-29 -3 -52 -7q-69 -13 -126 -39l-22 -11q-41 -20 -74 -47q-84 -67 -131 -173q65 91 182 152l9 5l10 5
q73 35 152 50q55 11 106 11q102 0 188 -21l17 -4q32 -9 65 -23l2 -1l21 -10q-82 -62 -137 -155q-40 -68 -62 -145l-1 1l-1 3q-1 3 -3 7q-5 11 -12 23q-20 36 -47 66q-85 92 -210 92q-23 0 -44 -2q-28 -2 -53 -7q-105 -19 -166 -76q-34 -33 -51 -78q-3 -9 -6 -20
q-6 -31 -8 -60q-1 -9 -1 -17l-1 -5v-2h-22v4q0 4 1 9q0 15 3 32q6 54 23 107q51 167 177 260l22 15q22 14 52 29v1039q0 16 -15 36q-15 21 -38 34q-21 12 -42 12q-36 0 -71 -37q-25 -28 -29 -70v-8q0 -36 16 -68q-10 8 -19 18q-41 50 -41 121t40 121q60 72 138 72
q29 0 61 -10v438l525 403l366 -249v-1969z" />
    <glyph glyph-name="uni0420" unicode="&#x420;" horiz-adv-x="1238" 
d="M965 2162l-155 154l-157 -184v-962h312v992zM512 1967v-1608q63 -1 119 -12v1759zM965 1052v87h-312v-87h312zM821 261q34 -28 48 -51q39 46 96 112v699h-312v-680q100 -24 168 -80zM512 2001l414 483l262 -289v-1648l-205 -239l-98 -113l-166 -192q-31 33 -66 63v-295
h-22v315q-62 50 -119 74v-548q0 -82 68 -131q-117 1 -149 114q-24 -96 -90 -140q18 65 12 131q-45 -82 -123 -82q59 56 59 147v513q-83 -31 -176 -110q54 167 176 246v941q-1 15 -15 35q-16 21 -38 33q-21 12 -42 12q-36 0 -71 -37q-25 -27 -28 -70v-12q0 -34 15 -64
q-10 9 -19 19q-41 50 -41 120q0 71 41 121q59 72 137 72q29 0 61 -10v748q0 45 -33 78q-32 32 -78 32t-79 -33q21 64 76 105q56 41 125 41q88 0 150 -62t62 -150v-218z" />
    <glyph glyph-name="uni0421" unicode="&#x421;" horiz-adv-x="1071" 
d="M786 222v1889q-15 -1 -31 -1q-70 0 -145 26q-42 14 -86 37v-1053l-168 -121l-83 -59v-548l44 -32l330 -237zM356 2316l219 168q118 -213 446 -258q-80 -97 -212 -113v-1875l177 127v-26l-468 -336l-307 221l-161 115v1742l223 171v-1285l83 60v1289z" />
    <glyph glyph-name="uni0422" unicode="&#x422;" horiz-adv-x="1251" 
d="M761 2320q122 -66 221 -79q25 -3 55 -3q36 0 70 7q27 6 51 16q10 3 19 8q7 3 13 7l5 3l3 2l3 1q0 -23 -12 -55q-17 -41 -48 -74q-88 -93 -260 -93q-13 0 -33 2v-1824l178 127v-26l-468 -336l-308 221l-160 115v1475l222 171v-1152l84 60v1156l168 129v-1191l-168 -121
l-84 -60v-414l44 -32l331 -237l139 99v1843q-73 11 -160 56q-55 28 -154 92q-68 43 -122 71q-72 37 -130 52q-38 9 -70 9q-95 0 -140 -81q0 133 103 200q69 45 155 45q37 0 76 -8q86 -17 195 -76l46 -26l45 -27q60 -35 91 -52z" />
    <glyph glyph-name="uni0423" unicode="&#x423;" horiz-adv-x="1236" 
d="M963 1034v1209l-86 60l-87 -105v-1366zM1186 2359v-1797l-223 -270l-242 -292q-120 153 -280 177q-31 5 -58 5q-44 0 -78 -12q117 197 269 197q42 0 87 -15q66 -22 136 -78q12 -10 25 -21q9 -8 20 -18q22 -20 27 -23l94 114v675l-173 -202l-22 -26l-219 -256l-263 267
v632q-13 43 -59 62q-17 7 -33 7q-37 0 -71 -37q-25 -27 -28 -70v-12q0 -34 15 -64q-10 8 -19 19q-41 50 -41 120q0 71 41 121q59 73 136 73q28 0 59 -10v618l-86 60l-95 -117l-17 12l240 288l182 -127v-1519l155 -155l103 121v1397l236 283z" />
    <glyph glyph-name="uni0424" unicode="&#x424;" horiz-adv-x="1797" 
d="M1524 1805l-155 154l-157 -183v-472h311zM1212 1273v-132h311v132h-311zM1189 1750l-119 -140v-783q64 -1 119 -12v935zM1070 628v-266q59 -12 119 -34v226q-60 49 -119 74zM1380 729q33 -28 47 -51q40 46 96 112v320h-311v-301q55 -13 101 -37q37 -19 67 -43zM1070 1644
l414 484l263 -290v-823l-206 -238l-97 -114l-166 -192q-32 34 -66 63v-214q90 -32 215 -109l138 166l17 -14l-303 -364q-238 202 -468 202q-248 0 -549 -190q208 297 496 356q44 9 90 12v247q-52 -23 -110 -62q45 98 110 164v273l-477 -554l-321 233v1153l368 430l276 -197
v-324l-421 297v-1197l256 -175l319 369v1196q0 91 -33 136q-29 41 -78 41q-47 0 -79 -33q21 65 75 105q56 41 126 41q87 0 149 -62t62 -149v-667z" />
    <glyph glyph-name="uni0425" unicode="&#x425;" horiz-adv-x="1385" 
d="M249 2300l-96 -117l-16 12l240 288l182 -127l196 -795l148 703l46 219q93 -86 213 -86q79 0 173 30q-105 -186 -302 -186q-52 0 -109 16l-157 -746l4 -17l178 134l-16 59l20 14l45 -167l-561 -418l16 -59l-19 -14l-45 167l170 126l-223 904zM1167 183l95 116l17 -11
l-240 -288l-182 126l-206 835l-149 -710l-47 -223q-95 62 -200 62q-100 0 -205 -53q78 234 316 234q54 0 114 -15l159 754l-2 10l-150 -111l16 -59l-20 -15l-44 167l560 418l-16 59l19 15l45 -168l-198 -148l231 -935z" />
    <glyph glyph-name="uni0426" unicode="&#x426;" horiz-adv-x="1379" 
d="M615 1166v-903h380v903h-380zM995 1197v131h-380v-131h380zM91 1398q59 73 136 73q30 0 62 -11v748q0 45 -33 78q-32 32 -78 32t-79 -33q21 64 76 105q56 41 125 41q88 0 150 -62t62 -150v-1956h80v2081h23v-985h380v849q0 45 -33 78q-32 32 -78 32t-79 -33q21 64 76 105
t125 41q88 0 150 -62t62 -150v-2014h111v-416h-29q-7 94 -55 190q-97 192 -310 199h-646v1062q0 15 -15 35q-15 22 -37 34t-42 12q-37 0 -72 -37q-25 -27 -28 -70v-12q0 -34 15 -64q-10 9 -19 19q-41 50 -41 120q0 71 41 121z" />
    <glyph glyph-name="uni0427" unicode="&#x427;" horiz-adv-x="1605" 
d="M790 1186l173 202v277h-173v-479zM963 362v992l-173 -202l-3 -3v-834q80 42 176 47zM790 1827v-131h173v131h-173zM877 2299l-87 -104v-337h173v382zM767 24v159l-15 -5l-16 -5l-32 -11q-38 -14 -63 -30q-69 -41 -69 -108q0 -40 29 -69q28 -28 69 -28q40 0 68 28
q29 29 29 69zM1538 398l17 -14l-303 -365q-182 183 -366 183q-50 0 -99 -13v-165q0 -49 -34 -83q-35 -35 -83 -35q-51 0 -85 37q-32 34 -32 82q0 80 81 170q31 34 71 65q32 26 62 44v821l-218 -254l-263 267v274q-5 17 -20 34q-17 19 -38 28q-17 7 -34 7q-37 0 -71 -36
q-25 -27 -28 -70v-12q0 -34 15 -64q-10 9 -19 19q-41 50 -41 120q0 71 41 121q59 72 135 72q29 0 60 -10v619l-85 59l-96 -116l-17 12l240 288l182 -127v-1163l155 -154l102 119v161q1 0 1 349v531l236 284l182 -127v-2025q73 -23 144 -59q24 -13 46 -26q8 -5 15 -9
q5 -3 9 -6z" />
    <glyph glyph-name="uni0428" unicode="&#x428;" horiz-adv-x="1693" 
d="M1174 1166v-903h246l1 903h-247zM849 1197v131h-234v-131h234zM615 263h234v903h-234v-903zM1174 1328v-131h247v131h-247zM289 178v1062q0 15 -14 35q-16 22 -38 34t-42 12q-37 0 -72 -37q-25 -27 -28 -70v-12q0 -34 15 -64q-10 8 -19 19q-41 50 -41 120q0 71 41 121
q59 73 136 73q30 0 62 -11v748q0 45 -32 78q-33 32 -79 32t-79 -33q21 64 76 105q56 41 125 41q88 0 150 -62t62 -150v-1956h80v2081h23v-985h234v849q0 45 -33 78q-33 32 -78 32q-46 0 -79 -33q21 64 76 105t125 41q87 0 149 -62t62 -150v-1956h81v2081h22v-985h247v849
q0 45 -33 78q-33 32 -79 32t-78 -33q21 64 75 105q56 41 126 41q87 0 149 -62t62 -150v-2041h-1354z" />
    <glyph glyph-name="uni0429" unicode="&#x429;" horiz-adv-x="1805" 
d="M1174 1166v-903h246l1 903h-247zM849 1197v131h-234v-131h234zM615 263h234v903h-234v-903zM1174 1328v-131h247v131h-247zM289 178v1062q0 15 -14 35q-16 22 -38 34t-42 12q-37 0 -72 -37q-25 -27 -28 -70v-12q0 -34 15 -64q-10 8 -19 19q-41 50 -41 120q0 71 41 121
q59 73 136 73q30 0 62 -11v748q0 45 -32 78q-33 32 -79 32t-79 -33q21 64 76 105q56 41 125 41q88 0 150 -62t62 -150v-1956h80v2081h23v-985h234v849q0 45 -33 78q-33 32 -78 32q-46 0 -79 -33q21 64 76 105t125 41q87 0 149 -62t62 -150v-1956h81v2081h22v-985h247v849
q0 45 -33 78q-33 32 -79 32t-78 -33q21 64 75 105q56 41 126 41q87 0 149 -62t62 -150v-2014h112v-416h-30q-6 94 -55 190q-97 192 -309 199h-1072z" />
    <glyph glyph-name="uni042A" unicode="&#x42a;" horiz-adv-x="1730" 
d="M663 291q-84 -68 -131 -173q65 91 182 152l20 10q73 35 152 50q24 5 68 8q40 3 69 3q102 0 188 -21l17 -4q32 -9 65 -23v486h-190v-378h-19q-48 0 -99 -3q-65 -4 -99 -10q-121 -22 -208 -86zM1293 810v86h-190v-86h190zM1293 1240l-190 271v-584h190v313zM886 1393v-983
q24 5 92 9q63 4 103 4v1107zM1516 1288v-891q78 18 164 18v-23q-87 0 -164 -18q-105 -24 -186 -82l-14 -10q-82 -62 -137 -155q-40 -68 -62 -145q-6 16 -14 30q-32 64 -104 109q-83 53 -179 53h-30q-35 -2 -70 -8q-110 -19 -171 -77q-35 -33 -52 -79l-5 -19q-6 -31 -9 -60
q-1 -9 -1 -17v-7h-23v4q1 4 1 9q1 15 3 32q7 54 23 107q52 167 177 260v921q0 15 -15 35q-15 22 -37 34t-42 12q-37 0 -72 -37q-25 -27 -28 -70v-12q0 -34 15 -64q-11 9 -19 19q-41 50 -41 120q0 71 41 121q59 72 137 72q29 0 61 -10v658q0 123 -109 125h-5q-32 0 -98 -11
l-27 -4l-26 -4q-30 -3 -52 -3q-154 0 -230 85q-46 52 -46 110q0 25 9 51q22 -33 96 -59q73 -26 139 -26q74 0 178 27q105 28 152 28q138 0 197 -84q45 -65 45 -181v-753l361 251z" />
    <glyph glyph-name="uni042B" unicode="&#x42b;" horiz-adv-x="1811" 
d="M286 291q-84 -68 -131 -173q65 91 182 152l19 10q74 35 152 50q25 5 69 8q39 3 69 3q101 0 188 -21l17 -4q32 -9 65 -23v486h-191v-378h-18q-48 0 -99 -3q-65 -4 -100 -10q-131 -24 -222 -97zM916 810v86h-191v-86h191zM916 1240l-191 271v-584h191v313zM508 1393v-983
q24 5 93 9q63 4 102 4v1107l-194 -137h-1zM1139 927h200l-1 1315l-86 60l-96 -117l-16 12l240 288l182 -127v-2114l86 -60l96 117l17 -12l-240 -288l-182 126v267q-134 -4 -200 -20q-105 -24 -187 -82l-13 -10q-82 -62 -137 -155q-40 -68 -62 -145q-7 16 -14 30
q-33 64 -104 109q-83 53 -179 53h-30q-36 -2 -70 -8q-111 -19 -172 -77q-34 -33 -51 -79l-6 -19q-6 -31 -8 -60q-1 -9 -2 -17v-7h-22v4q0 4 1 9q0 15 3 32q6 54 23 107q51 167 177 260v936q-17 42 -61 59q-16 6 -31 6q-37 0 -71 -36q-25 -27 -28 -70v-12q0 -34 15 -64
q-11 9 -18 19q-42 50 -42 120q0 71 41 121q59 73 137 73q28 0 58 -10v628h-1v155l-86 60l-96 -117l-17 12l240 288l182 -126v-942l362 251l269 -382v-361zM1339 810v86h-200v-86h200zM1339 779h-200v-382q67 15 200 19v363z" />
    <glyph glyph-name="uni042C" unicode="&#x42c;" horiz-adv-x="1362" 
d="M286 291q-84 -68 -131 -173q65 91 182 152l19 10q74 35 152 50q25 5 69 8q39 3 69 3q101 0 188 -21l17 -4q32 -9 65 -23v486h-191v-378h-18q-48 0 -99 -3q-65 -4 -100 -10q-131 -24 -222 -97zM916 810v86h-191v-86h191zM916 1240l-191 271v-584h191v313zM508 1393v-983
q24 5 93 9q63 4 102 4v1107l-194 -137h-1zM1139 1288v-891q68 15 173 19v-22q-106 -4 -173 -20q-105 -24 -187 -82l-13 -10q-82 -62 -137 -155q-40 -68 -62 -145q-7 16 -14 30q-33 64 -104 109q-83 53 -179 53h-30q-36 -2 -70 -8q-111 -19 -172 -77q-34 -33 -51 -79l-6 -19
q-6 -31 -8 -60q-1 -9 -2 -17v-7h-22v4q0 4 1 9q0 15 3 32q6 54 23 107q51 167 177 260v936q-17 42 -61 59q-16 6 -31 6q-37 0 -71 -36q-25 -27 -28 -70v-12q0 -34 15 -64q-11 9 -18 19q-42 50 -42 120q0 71 41 121q59 73 137 73q28 0 58 -10v628h-1v155l-86 60l-96 -117
l-17 12l240 288l182 -126v-942l362 251z" />
    <glyph glyph-name="uni042D" unicode="&#x42d;" horiz-adv-x="992" 
d="M636 1456l83 -60v853l223 -171v-1742l-161 -115l-307 -221l-468 336v26l339 -242l330 237l44 32v871q-40 -49 -97 -87q-81 -55 -161 -61h-9q-44 0 -95 33q-19 13 -47 36l-44 36q-34 27 -83 43q-17 5 -50 6h-2q-26 0 -72 -20q-41 -18 -67 -36q89 64 148 92q73 35 134 35
q13 0 26 -2q44 -6 98 -46l44 -36q28 -23 45 -34q23 -16 47 -25q13 -6 23 -8q8 -2 15 -2q4 0 8 1q51 6 113 60q14 12 26 25v99l-83 60l-168 121v620q-43 -22 -86 -37q-77 -27 -148 -27q-83 0 -158 37q-23 12 -45 27q-18 12 -33 26q-6 5 -12 11l-8 8l-3 4l-2 2l-1 2h-1
q205 14 332 120q42 36 76 82q11 14 23 33l4 7l4 6q4 7 7 10l219 -168v-857z" />
    <glyph glyph-name="uni042E" unicode="&#x42e;" horiz-adv-x="1830" 
d="M1441 123l116 83v1904h-10q-69 0 -143 26q-42 15 -86 37v-1053l-251 -180v-548l44 -32zM844 936h-147v-535h-19q-99 0 -166 -13q-132 -24 -223 -97q-83 -68 -131 -173q65 91 182 152l20 10q72 35 152 50q55 11 106 11q90 0 171 -18q-15 -17 -27 -35q-32 -47 -54 -97
q-29 -65 -40 -131q-82 114 -222 114h-30q-35 -2 -70 -8q-110 -19 -171 -77q-35 -33 -52 -79l-3 -10l-2 -9q-6 -31 -9 -60q-1 -9 -1 -17v-7h-23l1 4v9q1 15 3 32q7 54 23 107q52 167 177 260v921q0 15 -15 35q-15 22 -37 34t-42 12q-37 0 -72 -37q-25 -27 -28 -70v-12
q0 -34 15 -64q-10 9 -19 19q-41 50 -41 120q0 71 41 121q59 73 136 73q30 0 62 -11v894h-198v23l404 -1q9 0 17 1v-1967q25 5 76 9t87 4v1980h22v-965h147v643l223 171v-1285l83 60v1290l220 167q2 -3 6 -10l4 -6l5 -7q11 -19 22 -33q34 -46 76 -82q127 -106 332 -120
q-12 -15 -35 -34v-1853l-223 -160l-245 -176l-307 221l-161 115v597zM697 1073h147v184h-147v-184zM844 963v83h-147v-83h147z" />
    <glyph glyph-name="uni042F" unicode="&#x42f;" horiz-adv-x="1386" 
d="M513 1259l215 -120v1007q-59 13 -101 13q-94 0 -127 -56q-25 -42 -25 -144v-679zM728 328v786l-33 18l-219 -218v-527q-131 -23 -222 -97l-1 -1q-83 -67 -130 -171q49 69 130 121q25 16 52 31l19 9q73 35 152 51q54 10 106 10q77 0 146 -12zM1224 186l95 117l17 -12
l-240 -288l-183 126v1875q-45 5 -91 16q-37 8 -72 20v-1716l20 -4l17 -5q17 -4 33 -10q-21 -17 -40 -38q-28 -30 -49 -64q-58 -92 -64 -201l-3 5l-2 5q-35 69 -88 109q-69 52 -163 52h-9l-10 1l-11 -1q-36 -1 -70 -7q-111 -19 -172 -78q-34 -33 -51 -78l-6 -20
q-6 -30 -8 -59q-1 -10 -1 -18l-1 -4v-2h-22v3q0 4 1 9q0 16 3 33q6 53 23 106q51 167 176 260v674l222 228l22 22l-22 12l-222 124v763q0 74 44 136q45 63 114 84q39 11 81 14q9 1 18 1q85 0 230 -40l62 -17q35 -9 62 -15q70 -15 124 -15h3q99 0 175 76q29 29 50 63
q17 29 21 49q3 -31 3 -59q0 -180 -104 -264q-21 -17 -44 -29q-54 -30 -122 -30q-27 0 -57 5q-33 5 -81 18l-82 22v-76q3 -2 23 -8l14 -4l8 -2q32 -9 59 -14q29 -6 59 -9q36 -4 71 -5q88 0 152 27q66 28 119 84l16 -16q-60 -63 -134 -92v-1779z" />
    <glyph glyph-name="uni0430" unicode="&#x430;" horiz-adv-x="934" 
d="M518 966v259l-297 203l-18 -17l-129 -150q0 -5 1 -10l2 -14q4 -18 11 -36q20 -50 62 -92q62 -63 168 -100l23 -8q79 -25 177 -35zM518 227v717q-108 11 -192 38l-53 -62v-525zM808 224l59 69l17 -14l-239 -279l-164 129l-110 -129l-321 233v461l252 296q-88 32 -147 83
q-47 41 -74 92q-30 56 -30 101v3l336 368l354 -245v-1110z" />
    <glyph glyph-name="uni0431" unicode="&#x431;" horiz-adv-x="791" 
d="M499 1881q129 97 129 277q85 -76 124 -169q24 -57 24 -109q0 -49 -21 -93q-43 -92 -154 -168l-328 -242v-982l245 -168v1320l223 -262v-852l-370 -433l-321 233v1311z" />
    <glyph glyph-name="uni0432" unicode="&#x432;" horiz-adv-x="796" 
d="M273 2088v-382q148 59 278 199q-156 57 -216 231zM518 1243l-245 169v-1017l245 -168v1016zM573 1897q-140 -154 -300 -215v-216l145 170l323 -225v-978l-370 -433l-321 233v1712l455 351q57 -161 184 -209l36 64l21 -9q-61 -104 -91 -145q-39 -53 -82 -100z" />
    <glyph glyph-name="uni0433" unicode="&#x433;" horiz-adv-x="882" 
d="M640 1211l2 4l-284 197v-1130l85 -72l-180 -210l-213 149l85 91v966l368 430l329 -232l-2 -3l2 -1l-172 -202v2l-99 -115q-15 -18 -15 -39v-7q1 -25 22 -43q18 -16 41 -16h5q27 4 43 22t16 38q0 4 -1 8q0 25 -21 44l14 17q29 -26 30 -59v-8q0 -31 -21 -54
q-24 -27 -58 -30h-5q-31 0 -58 21q-25 21 -29 58v8q0 30 20 54z" />
    <glyph glyph-name="uni0434" unicode="&#x434;" horiz-adv-x="875" 
d="M344 1412v-1109q0 -90 -28 -179h273v1120zM812 1411v-1287h96v-327h-18q-4 63 -32 128q-57 130 -182 141h-444q-68 -6 -117 -50q-40 -34 -64 -91q-29 -65 -33 -128h-18v327h73q30 43 41 115q4 22 6 45q0 7 1 13v909l367 430z" />
    <glyph glyph-name="uni0435" unicode="&#x435;" 
d="M519 1243l-246 169v-456zM417 1636l294 -204l-438 -510v-527l256 -175l185 215l18 -12l-361 -423l-321 233v973z" />
    </font>
</defs>
</svg>
