<?xml version="1.0" standalone="no"?>
<!DOCTYPE svg PUBLIC "-//W3C//DTD SVG 1.1//EN" "http://www.w3.org/Graphics/SVG/1.1/DTD/svg11.dtd" >
<svg xmlns="http://www.w3.org/2000/svg" xmlns:xlink="http://www.w3.org/1999/xlink" version="1.1">
<metadata></metadata>
<defs>
<font id="styrene_a_webbold" horiz-adv-x="1634" >
<font-face units-per-em="2048" ascent="1638" descent="-410" />
<missing-glyph horiz-adv-x="516" />
<glyph horiz-adv-x="0" />
<glyph unicode="&#xd;" horiz-adv-x="681" />
<glyph unicode=" "  horiz-adv-x="516" />
<glyph unicode="&#x09;" horiz-adv-x="516" />
<glyph unicode="&#xa0;" horiz-adv-x="516" />
<glyph unicode="!" horiz-adv-x="710" d="M164 0v360h383v-360h-383zM190 487v967h330v-967h-330z" />
<glyph unicode="," horiz-adv-x="679" d="M150 0v401h382v-354q1 -250 -126 -457h-234q143 223 160 410h-182z" />
<glyph unicode="-" horiz-adv-x="1003" d="M156 463v307h692v-307h-692z" />
<glyph unicode="." horiz-adv-x="679" d="M150 0v401h382v-401h-382z" />
<glyph unicode="0" horiz-adv-x="1431" d="M156 516v422q0 258 152.5 400.5t406.5 142.5q260 0 409.5 -144.5t149.5 -398.5v-422q0 -258 -152.5 -400.5t-406.5 -142.5q-260 0 -409.5 144.5t-149.5 398.5zM496 526q0 -111 55 -178t163.5 -67t164 67.5t55.5 177.5v402q0 113 -55.5 179.5t-164 66.5t-163.5 -68 t-55 -178v-402z" />
<glyph unicode="1" horiz-adv-x="966" d="M80 881v317l440 262h254v-1460h-340v1079z" />
<glyph unicode="2" horiz-adv-x="1314" d="M123 0v225l541 490q53 49 82.5 81.5t57 87t27.5 111.5q0 84 -50 132.5t-136 48.5q-88 0 -137 -55.5t-49 -145.5v-78h-332v88q0 227 146.5 360.5t371.5 133.5q236 0 383.5 -123t147.5 -348q0 -156 -81 -274t-231 -247l-209 -190h594v-297h-1126z" />
<glyph unicode="3" horiz-adv-x="1341" d="M80 426h344q10 -72 83 -112t150 -40q96 0 162 39t66 127q0 158 -176 158h-289v293h266q72 0 115 35t43 104q0 80 -57.5 118t-141.5 38q-100 0 -149 -49q-47 -39 -54 -93h-338q6 137 88 239.5t216 156.5q98 39 237 39q111 0 203 -21.5t170 -68t123 -130t45 -198.5 q0 -59 -17 -109q-53 -133 -172 -180q43 -12 84 -37q152 -106 152 -315q0 -154 -88 -258.5t-212 -145.5t-274 -41q-225 0 -393 119t-186 332z" />
<glyph unicode="4" horiz-adv-x="1474" d="M72 391v223l663 840h391v-776h281v-287h-281v-391h-331v391h-723zM428 678h367v473z" />
<glyph unicode="5" horiz-adv-x="1351" d="M102 449h344q6 -49 43 -92.5t84 -61.5q41 -18 99 -19q98 0 161.5 61.5t63.5 160.5v6q0 104 -60.5 162.5t-164.5 58.5q-125 0 -176 -78q-6 -8 -21 -29h-303v836h1012v-278h-692v-281q92 109 280 109q213 0 340 -140.5t127 -353.5v-8q0 -246 -160.5 -386.5t-406.5 -140.5 q-233 0 -397 125t-173 349z" />
<glyph unicode="6" horiz-adv-x="1363" d="M106 502q0 164 59.5 285.5t182.5 279.5l303 387h377l-416 -528q88 55 199 55q209 0 327.5 -135t118.5 -342q0 -246 -164.5 -387.5t-410.5 -141.5q-250 0 -413 142.5t-163 384.5zM446 502q0 -102 66 -165t170 -63q106 0 171 63t65 167q0 106 -65 168.5t-171 62.5 q-104 0 -170 -64.5t-66 -168.5z" />
<glyph unicode="7" horiz-adv-x="1280" d="M90 1153v301h1106v-219l-643 -1235h-381l616 1153h-698z" />
<glyph unicode="8" horiz-adv-x="1378" d="M115 395q0 121 65.5 219.5t177.5 133.5q-35 12 -73 36q-68 37 -107 121t-39 170t31 155.5t81 116t118.5 76t141.5 43t151 13.5h57q141 0 253.5 -38t190.5 -132.5t78 -233.5q0 -117 -56.5 -205t-162.5 -125q88 -27 162 -106q35 -45 59 -102q23 -64 23 -142 q0 -147 -84 -245.5t-202 -136.5t-261 -38h-62q-227 0 -384.5 104.5t-157.5 315.5zM461 426q0 -86 60.5 -135t148.5 -49h39q90 0 149.5 48t59.5 136t-59.5 136t-149.5 48h-39q-88 0 -148.5 -49t-60.5 -135zM477 1042q0 -80 57.5 -126t139.5 -46h31q84 0 140 45.5t56 126.5 q0 84 -55 127t-141 43h-31q-84 0 -140.5 -44t-56.5 -126z" />
<glyph unicode="9" horiz-adv-x="1363" d="M106 950q0 246 165 387.5t411 141.5q252 0 413.5 -141.5t161.5 -385.5q0 -160 -59 -285.5t-180 -279.5l-305 -387h-377l416 528q-88 -55 -199 -55q-207 0 -327 136t-120 341zM446 950.5q0 -104.5 66 -168t170 -63.5q106 0 171 63.5t65 170t-65 167t-171 60.5 q-104 0 -170 -62.5t-66 -167z" />
<glyph unicode=":" horiz-adv-x="700" d="M160 0v401h383v-401h-383zM160 653v402h383v-402h-383z" />
<glyph unicode=";" horiz-adv-x="700" d="M160 0v401h383v-354q0 -250 -127 -457h-234q143 223 160 410h-182zM160 653v402h383v-402h-383z" />
<glyph unicode="?" horiz-adv-x="1128" d="M92 993v76q0 203 135 306.5t342 103.5q217 0 351.5 -100.5t134.5 -309.5q0 -147 -68.5 -238.5t-208.5 -168.5l-100 -62q-33 -18 -43 -38.5t-10 -59.5v-15h-330v74q0 109 37 161t135 105l139 82q115 66 115 160q0 137 -152 137q-72 0 -112.5 -43t-40.5 -116v-54h-324z M268 0v360h383v-360h-383z" />
<glyph unicode="A" horiz-adv-x="1699" d="M37 0l637 1456h356l635 -1456h-369l-108 252h-692l-109 -252h-350zM621 543h442l-221 514z" />
<glyph unicode="B" horiz-adv-x="1646" d="M176 0v1454h840q215 0 351 -95t136 -300q0 -53 -16 -103q-53 -135 -189 -188q39 -12 93 -45q149 -108 149 -304q0 -214 -144.5 -316.5t-365.5 -102.5h-854zM518 281h451q217 0 217 163q0 162 -217 162h-451v-325zM518 887h443q188 0 188 143q0 82 -50 113t-138 31h-443 v-287z" />
<glyph unicode="C" d="M106 727q0 330 211 541t535 211q203 0 374 -87t259 -257q43 -86 55 -148h-354q-10 18 -37 51q-63 70 -164 109q-59 18 -133 18q-180 0 -284.5 -128t-104.5 -310q0 -184 106.5 -311t282.5 -127q199 0 301 127q31 43 35 51h352q-23 -141 -129 -257t-248 -177 q-123 -58 -311 -58q-328 0 -537 214t-209 538z" />
<glyph unicode="D" horiz-adv-x="1681" d="M176 0v1454h602q362 0 579.5 -189.5t217.5 -537.5q0 -350 -223.5 -538.5t-573.5 -188.5h-602zM524 299h248q205 0 327 114.5t122 313.5q0 209 -121 318.5t-328 109.5h-248v-856z" />
<glyph unicode="E" horiz-adv-x="1546" d="M176 0v1454h1217v-287h-869v-262h518v-293h-518v-311h949v-301h-1297z" />
<glyph unicode="F" horiz-adv-x="1525" d="M176 0v1454h1280v-289h-932v-284h533v-289h-533v-592h-348z" />
<glyph unicode="G" horiz-adv-x="1714" d="M106 735q0 334 213 542t543 208q190 0 359.5 -71t255.5 -218q45 -76 59 -135h-367q-45 45 -82.5 66.5t-105.5 41.5q-51 12 -119 13q-184 0 -293.5 -130t-109.5 -317q0 -215 129 -339t340 -124q205 0 307 64v239h-459v285h793v-682q-115 -102 -293 -153.5t-356 -51.5 q-362 0 -588 206t-226 556z" />
<glyph unicode="H" horiz-adv-x="1759" d="M176 0v1454h348v-571h711v571h346v-1454h-346v575h-711v-575h-348z" />
<glyph unicode="I" horiz-adv-x="708" d="M180 0v1454h348v-1454h-348z" />
<glyph unicode="J" horiz-adv-x="1406" d="M139 485v389h330v-358q0 -106 52 -168.5t157 -62.5q102 0 155.5 63.5t53.5 167.5v938h348v-969q0 -250 -153.5 -382t-403.5 -132q-254 0 -396.5 134.5t-142.5 379.5z" />
<glyph unicode="K" horiz-adv-x="1667" d="M176 0v1454h348v-629l666 629h452l-739 -700l772 -754h-475l-676 653v-653h-348z" />
<glyph unicode="L" horiz-adv-x="1452" d="M176 0v1454h348v-1147h858v-307h-1206z" />
<glyph unicode="M" horiz-adv-x="2088" d="M176 0v1454h510l369 -938l368 938h488v-1454h-336v1100l-426 -1102h-234l-419 1094v-1092h-320z" />
<glyph unicode="N" horiz-adv-x="1767" d="M176 0v1454h395l689 -891v891h331v-1458h-282l-793 1005v-1001h-340z" />
<glyph unicode="O" horiz-adv-x="1755" d="M106 727q0 334 220.5 543t552.5 209q336 0 553 -211t217 -541t-221 -541t-549 -211q-332 0 -552.5 213t-220.5 539zM461 727q0 -190 117 -315t301 -125q188 0 301.5 126t113.5 314q0 190 -115.5 315t-299.5 125q-188 0 -303 -126t-115 -314z" />
<glyph unicode="P" horiz-adv-x="1642" d="M176 0v1454h850q242 0 382 -115.5t140 -353.5q0 -236 -141 -354.5t-381 -118.5h-504v-512h-346zM522 815h471q199 0 199 168t-199 168h-471v-336z" />
<glyph unicode="Q" horiz-adv-x="1755" d="M106 727q0 334 220.5 543t552.5 209q336 0 553 -211t217 -541q0 -217 -103.5 -388t-298.5 -267l361 -383h-428l-293 301h-8q-332 0 -552.5 206.5t-220.5 530.5zM461 727q0 -190 117 -315t301 -125q188 0 301.5 126t113.5 314q0 190 -115.5 315t-299.5 125 q-188 0 -303 -126t-115 -314z" />
<glyph unicode="R" horiz-adv-x="1667" d="M176 0v1454h852q238 0 378 -112.5t140 -344.5q0 -147 -69.5 -251.5t-206.5 -153.5l327 -592h-366l-307 553h-400v-553h-348zM524 846h467q199 0 199 151q0 88 -52.5 123t-146.5 35h-467v-309z" />
<glyph unicode="S" horiz-adv-x="1550" d="M72 430h366q14 -33 39 -59q25 -33 70 -58q94 -59 254 -59q47 0 90 6t90 22.5t75.5 51.5t28.5 84q0 84 -56 116.5t-155 43.5q-63 8 -116 12q-645 39 -645 461q0 96 37.5 171.5t98 123t142.5 79t164 44t168 12.5q117 0 221.5 -20.5t203.5 -65.5t168.5 -128t94.5 -198h-350 q-10 18 -37 45q-29 20 -68 43q-96 45 -233 45q-254 0 -254 -137q0 -119 197 -139l110 -11q115 -6 199 -18t178 -43t153.5 -80t99.5 -133t40 -199q0 -131 -57.5 -227t-154.5 -146.5t-203.5 -73t-229.5 -22.5q-172 0 -315.5 41t-259 147.5t-154.5 268.5z" />
<glyph unicode="T" horiz-adv-x="1591" d="M72 1151v303h1448v-303h-551v-1151h-346v1151h-551z" />
<glyph unicode="U" horiz-adv-x="1728" d="M168 637v817h348v-795q0 -170 91 -271t259 -101q166 0 258.5 102.5t92.5 269.5v795h344v-817q0 -311 -193.5 -489.5t-501.5 -178.5q-322 0 -510 178.5t-188 489.5z" />
<glyph unicode="V" horiz-adv-x="1681" d="M43 1454h397l422 -1026l416 1026h362l-608 -1456h-358z" />
<glyph unicode="W" horiz-adv-x="2349" d="M47 1454h383l291 -938l311 940h320l313 -942l293 940h344l-473 -1456h-320l-329 965l-334 -965h-311z" />
<glyph unicode="X" horiz-adv-x="1724" d="M23 0l626 735l-608 719h451l378 -457l390 457h415l-600 -700l627 -754h-432l-418 494l-422 -494h-407z" />
<glyph unicode="Y" d="M4 1454h442l396 -528l397 528h391l-616 -844v-610h-365v612z" />
<glyph unicode="Z" horiz-adv-x="1638" d="M96 0v199l830 954h-809v301h1356v-194l-838 -957h930v-303h-1469z" />
<glyph unicode="a" horiz-adv-x="1386" d="M88 530q0 231 131 391t352 160q195 0 308 -127q23 -29 28 -41v148h332v-1061h-328v156q-43 -84 -141 -131.5t-201 -47.5q-223 0 -352 163t-129 390zM424 530.5q0 -57.5 18 -106.5q23 -74 86.5 -118t141.5 -44q111 0 176 77.5t65 190.5q0 115 -64.5 192t-176.5 77 q-80 0 -142.5 -44t-85.5 -118q-18 -49 -18 -106.5z" />
<glyph unicode="b" horiz-adv-x="1396" d="M147 0v1507h330v-602q8 14 31 41q49 63 138 99t177 36q227 0 356.5 -160.5t129.5 -390.5q0 -233 -131 -393t-355 -160q-90 0 -179 35t-140 99q-23 27 -31 41v-152h-326zM473 530.5q0 -116.5 68.5 -192.5t183.5 -76t182.5 76t67.5 192.5t-67.5 192.5t-182.5 76t-183.5 -76 t-68.5 -192.5z" />
<glyph unicode="c" horiz-adv-x="1243" d="M86 530q0 246 155.5 401.5t395.5 155.5q199 0 355.5 -105.5t176.5 -291.5h-323q-2 2 -8.5 12.5t-10.5 16.5q-16 18 -36 37q-23 14 -60 30q-35 12 -84 13q-109 0 -168 -78t-59 -191q0 -111 61.5 -190.5t167.5 -79.5q57 0 121 31t80 78h319q-6 -115 -90 -212.5t-198 -142.5 q-100 -41 -240 -41q-244 0 -399.5 159t-155.5 398z" />
<glyph unicode="d" horiz-adv-x="1400" d="M88 530q0 231 132 391t355 160q205 0 318 -127q23 -29 29 -41v594h331v-1507h-327v156q-133 -178 -353 -179q-225 0 -355 162t-130 391zM424 530.5q0 -118.5 67.5 -193.5t184.5 -75q115 0 182.5 76t67.5 192.5t-67.5 192.5t-182.5 76q-117 0 -184.5 -75t-67.5 -193.5z " />
<glyph unicode="e" horiz-adv-x="1300" d="M86 530q0 254 158.5 405.5t408.5 151.5q260 0 414 -154.5t154 -408.5v-57h-807q12 -104 83.5 -169t178.5 -65q92 0 145 33q37 16 60 49h329q-14 -104 -100 -185t-199 -120q-98 -37 -235 -37q-258 0 -424 153t-166 404zM420 670h467q-48 176 -234 176q-88 0 -150.5 -46 t-82.5 -130z" />
<glyph unicode="f" horiz-adv-x="1060" d="M51 788v273h275v143q0 152 87 227.5t242 75.5h484v-250h-344q-70 0 -103 -30.5t-33 -100.5v-65h351v-273h-351v-788h-333v788h-275z" />
<glyph unicode="g" horiz-adv-x="1394" d="M88 537q0 233 131 388.5t356 155.5q199 0 312 -127q23 -29 28 -41v148h332v-1018q0 -254 -160.5 -367.5t-420.5 -113.5q-162 0 -308.5 58t-220.5 179q-35 57 -41 88h393q2 -4 17 -18q20 -16 33 -23q59 -26 122 -26h5q119 0 186.5 57t67.5 174v117q-41 -82 -142.5 -129 t-204.5 -47q-223 0 -354 159.5t-131 385.5zM424 537q0 -113 67.5 -188t180 -75t180.5 74t68 189q0 117 -67 189.5t-181 72.5q-113 0 -180.5 -74t-67.5 -188z" />
<glyph unicode="h" horiz-adv-x="1388" d="M147 0v1507h332v-610q47 86 143.5 136t198.5 50q201 0 316.5 -130t115.5 -328v-625h-333v557q0 104 -57.5 167.5t-162.5 63.5q-102 0 -161.5 -64.5t-59.5 -166.5v-557h-332z" />
<glyph unicode="i" horiz-adv-x="632" d="M141 1198v328h348v-328h-348zM150 0v1061h333v-1061h-333z" />
<glyph unicode="j" horiz-adv-x="632" d="M-217 -160h223q78 0 111 31t33 109v1081h333v-1124q0 -182 -76.5 -267.5t-256.5 -85.5h-367v256zM143 1198v328h349v-328h-349z" />
<glyph unicode="k" horiz-adv-x="1333" d="M147 0v1507h332v-862l424 416h418l-508 -490l535 -571h-430l-439 473v-473h-332z" />
<glyph unicode="l" horiz-adv-x="636" d="M152 0v1507h333v-1507h-333z" />
<glyph unicode="m" horiz-adv-x="2144" d="M147 0v1061h332v-160q55 86 145.5 134t192.5 48q266 0 375 -221q121 221 385 221q188 0 315 -127q115 -129 115 -329v-627h-334v559q0 102 -55 165.5t-158 63.5q-100 0 -158.5 -63t-58.5 -166v-559h-334v559q0 102 -55 165.5t-158 63.5q-100 0 -158.5 -63.5t-58.5 -165.5 v-559h-332z" />
<glyph unicode="n" horiz-adv-x="1388" d="M147 0v1061h332v-164q47 86 143.5 136t198.5 50q201 0 316.5 -130t115.5 -328v-625h-333v557q0 104 -57.5 167.5t-162.5 63.5q-102 0 -161.5 -64.5t-59.5 -166.5v-557h-332z" />
<glyph unicode="o" horiz-adv-x="1333" d="M86 530q0 248 168 402.5t414 154.5q252 0 416.5 -155.5t164.5 -401.5q0 -248 -168 -402.5t-413 -154.5q-250 0 -416 156t-166 401zM418 530.5q0 -112.5 69.5 -190.5t180.5 -78q82 0 142 43t89 119q16 53 16 106.5t-16 106.5q-61 162 -231 162q-113 0 -181.5 -78 t-68.5 -190.5z" />
<glyph unicode="p" horiz-adv-x="1398" d="M147 -410v1471h332v-158q43 82 143.5 130t200.5 48q229 0 358.5 -159.5t129.5 -391.5q0 -233 -131 -393t-357 -160q-88 0 -178 35t-139 99q-23 27 -31 41v-562h-328zM475 530.5q0 -118.5 67.5 -193.5t184.5 -75t182.5 76t65.5 192.5t-65.5 192.5t-182.5 76t-184.5 -75 t-67.5 -193.5z" />
<glyph unicode="q" horiz-adv-x="1400" d="M88 530q0 233 132 392t358 159q203 0 315 -127q23 -29 29 -41v148h331v-1477h-327v572q-133 -178 -351 -179q-225 0 -356 163t-131 390zM424 530.5q0 -118.5 67.5 -193.5t184.5 -75q115 0 182.5 76t67.5 192.5t-67.5 192.5t-182.5 76q-117 0 -184.5 -75t-67.5 -193.5z " />
<glyph unicode="r" horiz-adv-x="1087" d="M147 0v1061h332v-166q84 168 322 168h227v-328h-291q-127 0 -192.5 -48t-65.5 -169v-518h-332z" />
<glyph unicode="s" horiz-adv-x="1208" d="M63 301h359q16 -53 108 -78q35 -12 88 -12q172 0 173 88q0 84 -129 92l-150 12q-86 6 -157.5 27t-134 59.5t-98.5 105.5t-36 155q0 96 45 165.5t121 105.5t156.5 52.5t171.5 16.5q190 0 341.5 -73t190.5 -237h-350l-19 19q-55 55 -165 55q-154 0 -154 -84q0 -74 125 -84 l67 -6q27 -2 72 -6q207 -12 324.5 -89t117.5 -266q0 -102 -46 -173.5t-124.5 -107.5t-161.5 -51.5t-180 -15.5q-156 0 -309 59.5t-209 178.5q-31 55 -37 92z" />
<glyph unicode="t" horiz-adv-x="1110" d="M51 784v277h275v393h333v-393h361v-277h-361v-329q0 -90 35 -126t125 -36h201v-293h-332q-362 0 -362 338v446h-275z" />
<glyph unicode="u" horiz-adv-x="1361" d="M135 483v578h334v-553q0 -104 54.5 -165.5t156.5 -61.5t157.5 61t55.5 166v553h334v-578q0 -246 -148.5 -377t-392.5 -131q-250 0 -400.5 133.5t-150.5 374.5z" />
<glyph unicode="v" horiz-adv-x="1265" d="M8 1061h375l266 -668l266 668h340l-444 -1073h-338z" />
<glyph unicode="w" horiz-adv-x="1878" d="M18 1061h361l207 -647l223 655h301l223 -649l205 641h322l-373 -1069h-318l-231 684l-227 -684h-308z" />
<glyph unicode="x" horiz-adv-x="1341" d="M8 0l467 520l-467 541h426l254 -301l270 301h375l-463 -516l463 -545h-407l-269 309l-276 -309h-373z" />
<glyph unicode="y" horiz-adv-x="1261" d="M6 1061h377l266 -641l266 641h336l-614 -1477h-334l178 432z" />
<glyph unicode="z" horiz-adv-x="1302" d="M88 0v180l576 613h-560v268h1063v-178l-585 -613h661v-270h-1155z" />
<glyph unicode="&#xad;" horiz-adv-x="1003" d="M156 463v307h692v-307h-692z" />
<glyph unicode="&#xc0;" horiz-adv-x="1699" d="M37 0l637 1456h356l635 -1456h-369l-108 252h-692l-109 -252h-350zM432 1907h356l230 -332h-340zM621 543h442l-221 514z" />
<glyph unicode="&#xc1;" horiz-adv-x="1699" d="M37 0l637 1456h356l635 -1456h-369l-108 252h-692l-109 -252h-350zM621 543h442l-221 514zM680 1575l229 332h357l-246 -332h-340z" />
<glyph unicode="&#xc2;" horiz-adv-x="1699" d="M37 0l637 1456h356l635 -1456h-369l-108 252h-692l-109 -252h-350zM403 1573l287 340h316l280 -340h-303l-135 158l-135 -158h-310zM621 543h442l-221 514z" />
<glyph unicode="&#xc3;" horiz-adv-x="1699" d="M37 0l637 1456h356l635 -1456h-369l-108 252h-692l-109 -252h-350zM459 1569v178q0 92 47 145.5t137 53.5q80 0 191 -60l75 -35q41 -20 66 -20q31 0 31 41v84h231v-180q0 -90 -48 -143.5t-138 -53.5q-51 0 -95 16q-39 14 -94 41l-78 35q-6 2 -18 8.5t-18 8.5q-20 4 -27 4 q-31 0 -31 -41v-82h-231zM621 543h442l-221 514z" />
<glyph unicode="&#xc4;" horiz-adv-x="1699" d="M37 0l637 1456h356l635 -1456h-369l-108 252h-692l-109 -252h-350zM442 1575v323h326v-323h-326zM621 543h442l-221 514zM928 1575v323h325v-323h-325z" />
<glyph unicode="&#xc5;" horiz-adv-x="1699" d="M37 0l637 1456h356l635 -1456h-369l-108 252h-692l-109 -252h-350zM559 1835q0 125 83 204t206 79q127 0 209 -79t82 -204q0 -123 -84 -202t-207 -79q-131 0 -207 82q-82 76 -82 199zM621 543h442l-221 514zM733 1835q0 -51 33 -83t82 -32q51 0 83 32t32 83q0 53 -31 86 q-35 31 -84 31q-51 0 -83 -32t-32 -85z" />
<glyph unicode="&#xc6;" horiz-adv-x="2416" d="M-14 0l903 1454h1374v-287h-831v-262h479v-293h-479v-311h911v-301h-1260v305h-530l-186 -305h-381zM731 594h352v573z" />
<glyph unicode="&#xc7;" d="M106 727q0 330 211 541t535 211q203 0 374 -87t259 -257q43 -86 55 -148h-354q-10 18 -37 51q-63 70 -164 109q-59 18 -133 18q-180 0 -284.5 -128t-104.5 -310q0 -184 106.5 -311t282.5 -127q199 0 301 127q31 43 35 51h352q-23 -141 -129 -257t-248 -177 q-102 -45 -239 -56v-65h10q262 -6 262 -242q0 -127 -69.5 -192.5t-198.5 -65.5h-318v211h269q63 0 63 55q0 53 -63 54h-197v260q-268 61 -422 261t-154 474z" />
<glyph unicode="&#xc8;" horiz-adv-x="1546" d="M176 0v1454h1217v-287h-869v-262h518v-293h-518v-311h949v-301h-1297zM387 1907h356l230 -332h-340z" />
<glyph unicode="&#xc9;" horiz-adv-x="1546" d="M176 0v1454h1217v-287h-869v-262h518v-293h-518v-311h949v-301h-1297zM627 1575l229 332h356l-245 -332h-340z" />
<glyph unicode="&#xca;" horiz-adv-x="1546" d="M176 0v1454h1217v-287h-869v-262h518v-293h-518v-311h949v-301h-1297zM358 1573l287 340h316l280 -340h-303l-135 158l-135 -158h-310z" />
<glyph unicode="&#xcb;" horiz-adv-x="1546" d="M176 0v1454h1217v-287h-869v-262h518v-293h-518v-311h949v-301h-1297zM397 1575v323h326v-323h-326zM883 1575v323h325v-323h-325z" />
<glyph unicode="&#xcc;" horiz-adv-x="708" d="M-63 1907h356l229 -332h-340zM180 0v1454h348v-1454h-348z" />
<glyph unicode="&#xcd;" horiz-adv-x="708" d="M180 0v1454h348v-1454h-348zM184 1575l230 332h356l-246 -332h-340z" />
<glyph unicode="&#xce;" horiz-adv-x="708" d="M-92 1573l287 340h315l281 -340h-304l-135 158l-135 -158h-309zM180 0v1454h348v-1454h-348z" />
<glyph unicode="&#xcf;" horiz-adv-x="708" d="M-53 1575v323h325v-323h-325zM180 0v1454h348v-1454h-348zM432 1575v323h326v-323h-326z" />
<glyph unicode="&#xd1;" horiz-adv-x="1767" d="M176 0v1454h395l689 -891v891h331v-1458h-282l-793 1005v-1001h-340zM514 1569v178q0 92 47 145.5t137 53.5q80 0 191 -60l76 -35q41 -20 65 -20q31 0 31 41v84h231v-180q0 -90 -48 -143.5t-138 -53.5q-51 0 -94 16q-39 14 -94 41l-78 35q-6 2 -18.5 8.5t-18.5 8.5 q-20 4 -27 4q-31 0 -31 -41v-82h-231z" />
<glyph unicode="&#xd2;" horiz-adv-x="1755" d="M106 727q0 334 220.5 543t552.5 209q336 0 553 -211t217 -541t-221 -541t-549 -211q-332 0 -552.5 213t-220.5 539zM461 727q0 -190 117 -315t301 -125q188 0 301.5 126t113.5 314q0 190 -115.5 315t-299.5 125q-188 0 -303 -126t-115 -314zM463 1907h356l230 -332h-340z " />
<glyph unicode="&#xd3;" horiz-adv-x="1755" d="M106 727q0 334 220.5 543t552.5 209q336 0 553 -211t217 -541t-221 -541t-549 -211q-332 0 -552.5 213t-220.5 539zM461 727q0 -190 117 -315t301 -125q188 0 301.5 126t113.5 314q0 190 -115.5 315t-299.5 125q-188 0 -303 -126t-115 -314zM711 1575l229 332h356 l-245 -332h-340z" />
<glyph unicode="&#xd4;" horiz-adv-x="1755" d="M106 727q0 334 220.5 543t552.5 209q336 0 553 -211t217 -541t-221 -541t-549 -211q-332 0 -552.5 213t-220.5 539zM434 1573l287 340h315l281 -340h-303l-135 158l-136 -158h-309zM461 727q0 -190 117 -315t301 -125q188 0 301.5 126t113.5 314q0 190 -115.5 315 t-299.5 125q-188 0 -303 -126t-115 -314z" />
<glyph unicode="&#xd5;" horiz-adv-x="1755" d="M106 727q0 334 220.5 543t552.5 209q336 0 553 -211t217 -541t-221 -541t-549 -211q-332 0 -552.5 213t-220.5 539zM461 727q0 -190 117 -315t301 -125q188 0 301.5 126t113.5 314q0 190 -115.5 315t-299.5 125q-188 0 -303 -126t-115 -314zM489 1569v178 q0 92 47.5 145.5t137.5 53.5q80 0 190 -60l76 -35q41 -20 66 -20q31 0 30 41v84h232v-180q0 -90 -48.5 -143.5t-138.5 -53.5q-51 0 -94 16q-39 14 -94 41l-78 35q-6 2 -18.5 8.5t-18.5 8.5q-20 4 -26 4q-31 0 -31 -41v-82h-232z" />
<glyph unicode="&#xd6;" horiz-adv-x="1755" d="M106 727q0 334 220.5 543t552.5 209q336 0 553 -211t217 -541t-221 -541t-549 -211q-332 0 -552.5 213t-220.5 539zM461 727q0 -190 117 -315t301 -125q188 0 301.5 126t113.5 314q0 190 -115.5 315t-299.5 125q-188 0 -303 -126t-115 -314zM473 1575v323h326v-323h-326z M958 1575v323h326v-323h-326z" />
<glyph unicode="&#xd9;" horiz-adv-x="1728" d="M168 637v817h348v-795q0 -170 91 -271t259 -101q166 0 258.5 102.5t92.5 269.5v795h344v-817q0 -311 -193.5 -489.5t-501.5 -178.5q-322 0 -510 178.5t-188 489.5zM457 1907h356l229 -332h-340z" />
<glyph unicode="&#xda;" horiz-adv-x="1728" d="M168 637v817h348v-795q0 -170 91 -271t259 -101q166 0 258.5 102.5t92.5 269.5v795h344v-817q0 -311 -193.5 -489.5t-501.5 -178.5q-322 0 -510 178.5t-188 489.5zM684 1575l229 332h357l-246 -332h-340z" />
<glyph unicode="&#xdb;" horiz-adv-x="1728" d="M168 637v817h348v-795q0 -170 91 -271t259 -101q166 0 258.5 102.5t92.5 269.5v795h344v-817q0 -311 -193.5 -489.5t-501.5 -178.5q-322 0 -510 178.5t-188 489.5zM418 1573l287 340h315l280 -340h-303l-135 158l-135 -158h-309z" />
<glyph unicode="&#xdc;" horiz-adv-x="1728" d="M168 637v817h348v-795q0 -170 91 -271t259 -101q166 0 258.5 102.5t92.5 269.5v795h344v-817q0 -311 -193.5 -489.5t-501.5 -178.5q-322 0 -510 178.5t-188 489.5zM457 1575v323h325v-323h-325zM942 1575v323h326v-323h-326z" />
<glyph unicode="&#xdd;" d="M4 1454h442l396 -528l397 528h391l-616 -844v-610h-365v612zM653 1575l230 332h356l-246 -332h-340z" />
<glyph unicode="&#xdf;" horiz-adv-x="1366" d="M150 0v1053q0 240 138 359.5t384 119.5q219 0 367.5 -99.5t148.5 -308.5q0 -78 -31 -149.5t-92 -108.5q-37 -27 -68 -35q43 -10 99 -40q184 -117 184 -349q0 -217 -133 -329.5t-354 -112.5h-181v293h133q90 0 146.5 42t56.5 128q0 172 -203 172h-133v291h68q80 0 129 40 t49 117q0 80 -52 120t-134 40q-92 0 -140.5 -52t-48.5 -144v-1047h-333z" />
<glyph unicode="&#xe0;" horiz-adv-x="1386" d="M88 530q0 231 131 391t352 160q195 0 308 -127q23 -29 28 -41v148h332v-1061h-328v156q-43 -84 -141 -131.5t-201 -47.5q-223 0 -352 163t-129 390zM270 1581h334l223 -389h-319zM424 530.5q0 -57.5 18 -106.5q23 -74 86.5 -118t141.5 -44q111 0 176 77.5t65 190.5 q0 115 -64.5 192t-176.5 77q-80 0 -142.5 -44t-85.5 -118q-18 -49 -18 -106.5z" />
<glyph unicode="&#xe1;" horiz-adv-x="1386" d="M88 530q0 231 131 391t352 160q195 0 308 -127q23 -29 28 -41v148h332v-1061h-328v156q-43 -84 -141 -131.5t-201 -47.5q-223 0 -352 163t-129 390zM424 530.5q0 -57.5 18 -106.5q23 -74 86.5 -118t141.5 -44q111 0 176 77.5t65 190.5q0 115 -64.5 192t-176.5 77 q-80 0 -142.5 -44t-85.5 -118q-18 -49 -18 -106.5zM500 1192l223 389h334l-238 -389h-319z" />
<glyph unicode="&#xe2;" horiz-adv-x="1386" d="M88 530q0 231 131 391t352 160q195 0 308 -127q23 -29 28 -41v148h332v-1061h-328v156q-43 -84 -141 -131.5t-201 -47.5q-223 0 -352 163t-129 390zM252 1190l270 405h295l264 -405h-286l-125 194l-125 -194h-293zM424 530.5q0 -57.5 18 -106.5q23 -74 86.5 -118 t141.5 -44q111 0 176 77.5t65 190.5q0 115 -64.5 192t-176.5 77q-80 0 -142.5 -44t-85.5 -118q-18 -49 -18 -106.5z" />
<glyph unicode="&#xe3;" horiz-adv-x="1386" d="M88 530q0 231 131 391t352 160q195 0 308 -127q23 -29 28 -41v148h332v-1061h-328v156q-43 -84 -141 -131.5t-201 -47.5q-223 0 -352 163t-129 390zM305 1184v184q0 92 45 145.5t135 53.5q72 0 177 -62l59 -35q33 -25 57 -24q33 0 33 43v88h225v-186q0 -92 -46 -144.5 t-136 -52.5q-76 0 -176 59l-60 37q-6 4 -16 9.5t-14 7.5q-12 6 -27 6q-33 0 -33 -41v-88h-223zM424 530.5q0 -57.5 18 -106.5q23 -74 86.5 -118t141.5 -44q111 0 176 77.5t65 190.5q0 115 -64.5 192t-176.5 77q-80 0 -142.5 -44t-85.5 -118q-18 -49 -18 -106.5z" />
<glyph unicode="&#xe4;" horiz-adv-x="1386" d="M88 530q0 231 131 391t352 160q195 0 308 -127q23 -29 28 -41v148h332v-1061h-328v156q-43 -84 -141 -131.5t-201 -47.5q-223 0 -352 163t-129 390zM270 1198v324h328v-324h-328zM424 530.5q0 -57.5 18 -106.5q23 -74 86.5 -118t141.5 -44q111 0 176 77.5t65 190.5 q0 115 -64.5 192t-176.5 77q-80 0 -142.5 -44t-85.5 -118q-18 -49 -18 -106.5zM741 1198v324h328v-324h-328z" />
<glyph unicode="&#xe5;" horiz-adv-x="1386" d="M88 530q0 231 131 391t352 160q195 0 308 -127q23 -29 28 -41v148h332v-1061h-328v156q-43 -84 -141 -131.5t-201 -47.5q-223 0 -352 163t-129 390zM381 1452q0 125 82 204t207 79q127 0 209 -79t82 -204q0 -123 -84 -202t-207 -79q-131 0 -207 82q-82 76 -82 199z M424 530.5q0 -57.5 18 -106.5q23 -74 86.5 -118t141.5 -44q111 0 176 77.5t65 190.5q0 115 -64.5 192t-176.5 77q-80 0 -142.5 -44t-85.5 -118q-18 -49 -18 -106.5zM555 1452q0 -51 33 -83t82 -32q51 0 82.5 32t31.5 83t-30 86q-35 31 -84 31q-51 0 -83 -32t-32 -85z" />
<glyph unicode="&#xe6;" horiz-adv-x="2017" d="M82 334q0 174 118.5 253t301.5 79h319q0 86 -57 128t-146 42q-70 0 -126 -33q-39 -31 -48 -53h-338q6 96 89.5 176t187.5 123q92 39 229 38q270 0 394 -149q128 149 378 149q258 0 406.5 -154.5t148.5 -408.5v-59h-794q12 -102 81.5 -167t172.5 -65q90 0 143 33 q25 12 39 27q2 4 9 11t9 11h330q-14 -104 -101 -186t-196 -119q-98 -37 -233 -37q-303 0 -465 203q-127 -201 -393 -201q-186 0 -322.5 91.5t-136.5 267.5zM410 344q0 -70 57 -102.5t133 -32.5q88 0 154.5 45t66.5 127v76h-243q-168 0 -168 -113zM1151 666h455 q-46 180 -228 180q-186 0 -227 -180z" />
<glyph unicode="&#xe7;" horiz-adv-x="1243" d="M86 530q0 246 155.5 401.5t395.5 155.5q199 0 355.5 -105.5t176.5 -291.5h-323q-2 2 -8.5 12.5t-10.5 16.5q-16 18 -36 37q-23 14 -60 30q-35 12 -84 13q-109 0 -168 -78t-59 -191q0 -111 61.5 -190.5t167.5 -79.5q57 0 121 31t80 78h319q-6 -115 -90 -212.5t-198 -142.5 q-70 -27 -166 -37v-65h10q262 -6 262 -242q0 -127 -69.5 -192.5t-198.5 -65.5h-318v211h267q66 0 65 55q0 53 -65 54h-195v264q-186 63 -286.5 201.5t-100.5 332.5z" />
<glyph unicode="&#xe8;" horiz-adv-x="1300" d="M86 530q0 254 158.5 405.5t408.5 151.5q260 0 414 -154.5t154 -408.5v-57h-807q12 -104 83.5 -169t178.5 -65q92 0 145 33q37 16 60 49h329q-14 -104 -100 -185t-199 -120q-98 -37 -235 -37q-258 0 -424 153t-166 404zM254 1581h334l223 -389h-319zM420 670h467 q-48 176 -234 176q-88 0 -150.5 -46t-82.5 -130z" />
<glyph unicode="&#xe9;" horiz-adv-x="1300" d="M86 530q0 254 158.5 405.5t408.5 151.5q260 0 414 -154.5t154 -408.5v-57h-807q12 -104 83.5 -169t178.5 -65q92 0 145 33q37 16 60 49h329q-14 -104 -100 -185t-199 -120q-98 -37 -235 -37q-258 0 -424 153t-166 404zM420 670h467q-48 176 -234 176q-88 0 -150.5 -46 t-82.5 -130zM485 1192l224 389h333l-237 -389h-320z" />
<glyph unicode="&#xea;" horiz-adv-x="1300" d="M86 530q0 254 158.5 405.5t408.5 151.5q260 0 414 -154.5t154 -408.5v-57h-807q12 -104 83.5 -169t178.5 -65q92 0 145 33q37 16 60 49h329q-14 -104 -100 -185t-199 -120q-98 -37 -235 -37q-258 0 -424 153t-166 404zM236 1190l270 405h295l264 -405h-287l-125 194 l-125 -194h-292zM420 670h467q-48 176 -234 176q-88 0 -150.5 -46t-82.5 -130z" />
<glyph unicode="&#xeb;" horiz-adv-x="1300" d="M86 530q0 254 158.5 405.5t408.5 151.5q260 0 414 -154.5t154 -408.5v-57h-807q12 -104 83.5 -169t178.5 -65q92 0 145 33q37 16 60 49h329q-14 -104 -100 -185t-199 -120q-98 -37 -235 -37q-258 0 -424 153t-166 404zM254 1198v324h328v-324h-328zM420 670h467 q-48 176 -234 176q-88 0 -150.5 -46t-82.5 -130zM725 1198v324h328v-324h-328z" />
<glyph unicode="&#xec;" horiz-adv-x="632" d="M-84 1581h334l223 -389h-319zM150 0v1061h333v-1061h-333z" />
<glyph unicode="&#xed;" horiz-adv-x="632" d="M150 0v1061h333v-1061h-333zM154 1192l223 389h334l-238 -389h-319z" />
<glyph unicode="&#xee;" horiz-adv-x="632" d="M-90 1190l254 405h303l248 -405h-287l-113 196l-112 -196h-293zM150 0v1061h333v-1061h-333z" />
<glyph unicode="&#xef;" horiz-adv-x="632" d="M-70 1198v324h316v-324h-316zM150 0v1061h333v-1061h-333zM385 1198v324h315v-324h-315z" />
<glyph unicode="&#xf1;" horiz-adv-x="1388" d="M147 0v1061h332v-164q47 86 143.5 136t198.5 50q201 0 316.5 -130t115.5 -328v-625h-333v557q0 104 -57.5 167.5t-162.5 63.5q-102 0 -161.5 -64.5t-59.5 -166.5v-557h-332zM336 1184v184q0 92 45 145.5t135 53.5q72 0 176 -62l60 -35q35 -25 57 -24q33 0 33 43v88h225 v-186q0 -92 -46 -144.5t-136 -52.5q-76 0 -176 59l-60 37q-6 4 -16 9.5t-15 7.5q-12 6 -26 6q-33 0 -33 -41v-88h-223z" />
<glyph unicode="&#xf2;" horiz-adv-x="1333" d="M86 530q0 248 168 402.5t414 154.5q252 0 416.5 -155.5t164.5 -401.5q0 -248 -168 -402.5t-413 -154.5q-250 0 -416 156t-166 401zM268 1581h334l223 -389h-319zM418 530.5q0 -112.5 69.5 -190.5t180.5 -78q82 0 142 43t89 119q16 53 16 106.5t-16 106.5 q-61 162 -231 162q-113 0 -181.5 -78t-68.5 -190.5z" />
<glyph unicode="&#xf3;" horiz-adv-x="1333" d="M86 530q0 248 168 402.5t414 154.5q252 0 416.5 -155.5t164.5 -401.5q0 -248 -168 -402.5t-413 -154.5q-250 0 -416 156t-166 401zM418 530.5q0 -112.5 69.5 -190.5t180.5 -78q82 0 142 43t89 119q16 53 16 106.5t-16 106.5q-61 162 -231 162q-113 0 -181.5 -78 t-68.5 -190.5zM498 1192l223 389h334l-238 -389h-319z" />
<glyph unicode="&#xf4;" horiz-adv-x="1333" d="M86 530q0 248 168 402.5t414 154.5q252 0 416.5 -155.5t164.5 -401.5q0 -248 -168 -402.5t-413 -154.5q-250 0 -416 156t-166 401zM250 1190l270 405h295l264 -405h-286l-125 194l-125 -194h-293zM418 530.5q0 -112.5 69.5 -190.5t180.5 -78q82 0 142 43t89 119 q16 53 16 106.5t-16 106.5q-61 162 -231 162q-113 0 -181.5 -78t-68.5 -190.5z" />
<glyph unicode="&#xf5;" horiz-adv-x="1333" d="M86 530q0 248 168 402.5t414 154.5q252 0 416.5 -155.5t164.5 -401.5q0 -248 -168 -402.5t-413 -154.5q-250 0 -416 156t-166 401zM303 1184v184q0 92 45 145.5t135 53.5q72 0 176 -62l60 -35q33 -25 57 -24q33 0 33 43v88h225v-186q0 -92 -46 -144.5t-136 -52.5 q-76 0 -176 59l-60 37q-6 4 -16 9.5t-14 7.5q-12 6 -27 6q-33 0 -33 -41v-88h-223zM418 530.5q0 -112.5 69.5 -190.5t180.5 -78q82 0 142 43t89 119q16 53 16 106.5t-16 106.5q-61 162 -231 162q-113 0 -181.5 -78t-68.5 -190.5z" />
<glyph unicode="&#xf6;" horiz-adv-x="1333" d="M86 530q0 248 168 402.5t414 154.5q252 0 416.5 -155.5t164.5 -401.5q0 -248 -168 -402.5t-413 -154.5q-250 0 -416 156t-166 401zM268 1198v324h328v-324h-328zM418 530.5q0 -112.5 69.5 -190.5t180.5 -78q82 0 142 43t89 119q16 53 16 106.5t-16 106.5 q-61 162 -231 162q-113 0 -181.5 -78t-68.5 -190.5zM739 1198v324h328v-324h-328z" />
<glyph unicode="&#xf9;" horiz-adv-x="1361" d="M135 483v578h334v-553q0 -104 54.5 -165.5t156.5 -61.5t157.5 61t55.5 166v553h334v-578q0 -246 -148.5 -377t-392.5 -131q-250 0 -400.5 133.5t-150.5 374.5zM281 1581h333l224 -389h-320z" />
<glyph unicode="&#xfa;" horiz-adv-x="1361" d="M135 483v578h334v-553q0 -104 54.5 -165.5t156.5 -61.5t157.5 61t55.5 166v553h334v-578q0 -246 -148.5 -377t-392.5 -131q-250 0 -400.5 133.5t-150.5 374.5zM512 1192l223 389h334l-238 -389h-319z" />
<glyph unicode="&#xfb;" horiz-adv-x="1361" d="M135 483v578h334v-553q0 -104 54.5 -165.5t156.5 -61.5t157.5 61t55.5 166v553h334v-578q0 -246 -148.5 -377t-392.5 -131q-250 0 -400.5 133.5t-150.5 374.5zM262 1190l270 405h295l265 -405h-287l-125 194l-125 -194h-293z" />
<glyph unicode="&#xfc;" horiz-adv-x="1361" d="M135 483v578h334v-553q0 -104 54.5 -165.5t156.5 -61.5t157.5 61t55.5 166v553h334v-578q0 -246 -148.5 -377t-392.5 -131q-250 0 -400.5 133.5t-150.5 374.5zM281 1198v324h327v-324h-327zM752 1198v324h327v-324h-327z" />
<glyph unicode="&#xfd;" horiz-adv-x="1261" d="M6 1061h377l266 -641l266 641h336l-614 -1477h-334l178 432zM481 1192l224 389h333l-237 -389h-320z" />
<glyph unicode="&#xff;" horiz-adv-x="1261" d="M6 1061h377l266 -641l266 641h336l-614 -1477h-334l178 432zM250 1198v324h328v-324h-328zM721 1198v324h328v-324h-328z" />
<glyph unicode="&#x100;" horiz-adv-x="1699" d="M37 0l637 1456h356l635 -1456h-369l-108 252h-692l-109 -252h-350zM469 1616v250h758v-250h-758zM621 543h442l-221 514z" />
<glyph unicode="&#x101;" horiz-adv-x="1386" d="M88 530q0 231 131 391t352 160q195 0 308 -127q23 -29 28 -41v148h332v-1061h-328v156q-43 -84 -141 -131.5t-201 -47.5q-223 0 -352 163t-129 390zM319 1241v252h701v-252h-701zM424 530.5q0 -57.5 18 -106.5q23 -74 86.5 -118t141.5 -44q111 0 176 77.5t65 190.5 q0 115 -64.5 192t-176.5 77q-80 0 -142.5 -44t-85.5 -118q-18 -49 -18 -106.5z" />
<glyph unicode="&#x102;" horiz-adv-x="1699" d="M37 0l637 1456h356l635 -1456h-369l-108 252h-692l-109 -252h-350zM485 1894v27h256v-20q0 -49 29 -79t78 -30q53 0 82 35q25 33 24 74v20h256v-27q0 -162 -101 -247.5t-261 -85.5q-164 0 -263.5 88t-99.5 245zM621 543h442l-221 514z" />
<glyph unicode="&#x103;" horiz-adv-x="1386" d="M88 530q0 231 131 391t352 160q195 0 308 -127q23 -29 28 -41v148h332v-1061h-328v156q-43 -84 -141 -131.5t-201 -47.5q-223 0 -352 163t-129 390zM315 1513v37h256v-32q0 -107 98.5 -107t98.5 107v32h256v-37q0 -162 -97.5 -247.5t-256.5 -85.5q-164 0 -259.5 88 t-95.5 245zM424 530.5q0 -57.5 18 -106.5q23 -74 86.5 -118t141.5 -44q111 0 176 77.5t65 190.5q0 115 -64.5 192t-176.5 77q-80 0 -142.5 -44t-85.5 -118q-18 -49 -18 -106.5z" />
<glyph unicode="&#x104;" horiz-adv-x="1699" d="M37 0l637 1456h356l635 -1456h-2q-78 -53 -117 -86q-41 -35 -41 -64q0 -43 56 -43h159v-223h-331q-104 0 -176 44t-72 143q0 111 151 229h4l-108 252h-692l-109 -252h-350zM621 543h442l-221 514z" />
<glyph unicode="&#x105;" horiz-adv-x="1386" d="M88 530q0 231 131 391t352 160q195 0 308 -127q23 -29 28 -41v148h332v-1061q-80 -57 -115 -86q-43 -35 -43 -64q0 -43 56 -43h159v-223h-329q-104 0 -177 41t-73 137.5t121 184.5q18 14 73 53v156q-43 -84 -141 -131.5t-201 -47.5q-223 0 -352 163t-129 390zM424 530.5 q0 -57.5 18 -106.5q23 -74 86.5 -118t141.5 -44q111 0 176 77.5t65 190.5q0 115 -64.5 192t-176.5 77q-80 0 -142.5 -44t-85.5 -118q-18 -49 -18 -106.5z" />
<glyph unicode="&#x106;" d="M106 727q0 330 211 541t535 211q203 0 374 -87t259 -257q43 -86 55 -148h-354q-10 18 -37 51q-63 70 -164 109q-59 18 -133 18q-180 0 -284.5 -128t-104.5 -310q0 -184 106.5 -311t282.5 -127q199 0 301 127q31 43 35 51h352q-23 -141 -129 -257t-248 -177 q-123 -58 -311 -58q-328 0 -537 214t-209 538zM684 1575l229 332h357l-246 -332h-340z" />
<glyph unicode="&#x107;" horiz-adv-x="1243" d="M86 530q0 246 155.5 401.5t395.5 155.5q199 0 355.5 -105.5t176.5 -291.5h-323q-2 2 -8.5 12.5t-10.5 16.5q-16 18 -36 37q-23 14 -60 30q-35 12 -84 13q-109 0 -168 -78t-59 -191q0 -111 61.5 -190.5t167.5 -79.5q57 0 121 31t80 78h319q-6 -115 -90 -212.5t-198 -142.5 q-100 -41 -240 -41q-244 0 -399.5 159t-155.5 398zM467 1192l223 389h334l-238 -389h-319z" />
<glyph unicode="&#x108;" d="M106 727q0 330 211 541t535 211q203 0 374 -87t259 -257q43 -86 55 -148h-354q-10 18 -37 51q-63 70 -164 109q-59 18 -133 18q-180 0 -284.5 -128t-104.5 -310q0 -184 106.5 -311t282.5 -127q199 0 301 127q31 43 35 51h352q-23 -141 -129 -257t-248 -177 q-123 -58 -311 -58q-328 0 -537 214t-209 538zM408 1573l286 340h316l280 -340h-303l-135 158l-135 -158h-309z" />
<glyph unicode="&#x109;" horiz-adv-x="1243" d="M86 530q0 246 155.5 401.5t395.5 155.5q199 0 355.5 -105.5t176.5 -291.5h-323q-2 2 -8.5 12.5t-10.5 16.5q-16 18 -36 37q-23 14 -60 30q-35 12 -84 13q-109 0 -168 -78t-59 -191q0 -111 61.5 -190.5t167.5 -79.5q57 0 121 31t80 78h319q-6 -115 -90 -212.5t-198 -142.5 q-100 -41 -240 -41q-244 0 -399.5 159t-155.5 398zM219 1190l270 405h295l265 -405h-287l-125 194l-125 -194h-293z" />
<glyph unicode="&#x10a;" d="M106 727q0 330 211 541t535 211q203 0 374 -87t259 -257q43 -86 55 -148h-354q-10 18 -37 51q-63 70 -164 109q-59 18 -133 18q-180 0 -284.5 -128t-104.5 -310q0 -184 106.5 -311t282.5 -127q199 0 301 127q31 43 35 51h352q-23 -141 -129 -257t-248 -177 q-123 -58 -311 -58q-328 0 -537 214t-209 538zM678 1575v326h348v-326h-348z" />
<glyph unicode="&#x10b;" horiz-adv-x="1243" d="M86 530q0 246 155.5 401.5t395.5 155.5q199 0 355.5 -105.5t176.5 -291.5h-323q-2 2 -8.5 12.5t-10.5 16.5q-16 18 -36 37q-23 14 -60 30q-35 12 -84 13q-109 0 -168 -78t-59 -191q0 -111 61.5 -190.5t167.5 -79.5q57 0 121 31t80 78h319q-6 -115 -90 -212.5t-198 -142.5 q-100 -41 -240 -41q-244 0 -399.5 159t-155.5 398zM463 1198v328h348v-328h-348z" />
<glyph unicode="&#x10c;" d="M106 727q0 330 211 541t535 211q203 0 374 -87t259 -257q43 -86 55 -148h-354q-10 18 -37 51q-63 70 -164 109q-59 18 -133 18q-180 0 -284.5 -128t-104.5 -310q0 -184 106.5 -311t282.5 -127q199 0 301 127q31 43 35 51h352q-23 -141 -129 -257t-248 -177 q-123 -58 -311 -58q-328 0 -537 214t-209 538zM414 1913h303l135 -158l135 158h309l-286 -340h-316z" />
<glyph unicode="&#x10d;" horiz-adv-x="1243" d="M86 530q0 246 155.5 401.5t395.5 155.5q199 0 355.5 -105.5t176.5 -291.5h-323q-2 2 -8.5 12.5t-10.5 16.5q-16 18 -36 37q-23 14 -60 30q-35 12 -84 13q-109 0 -168 -78t-59 -191q0 -111 61.5 -190.5t167.5 -79.5q57 0 121 31t80 78h319q-6 -115 -90 -212.5t-198 -142.5 q-100 -41 -240 -41q-244 0 -399.5 159t-155.5 398zM219 1597h289l125 -196l123 196h293l-271 -405h-295z" />
<glyph unicode="&#x112;" horiz-adv-x="1546" d="M176 0v1454h1217v-287h-869v-262h518v-293h-518v-311h949v-301h-1297zM424 1616v250h758v-250h-758z" />
<glyph unicode="&#x113;" horiz-adv-x="1300" d="M86 530q0 254 158.5 405.5t408.5 151.5q260 0 414 -154.5t154 -408.5v-57h-807q12 -104 83.5 -169t178.5 -65q92 0 145 33q37 16 60 49h329q-14 -104 -100 -185t-199 -120q-98 -37 -235 -37q-258 0 -424 153t-166 404zM303 1241v252h701v-252h-701zM420 670h467 q-48 176 -234 176q-88 0 -150.5 -46t-82.5 -130z" />
<glyph unicode="&#x114;" horiz-adv-x="1546" d="M176 0v1454h1217v-287h-869v-262h518v-293h-518v-311h949v-301h-1297zM440 1894v27h256v-20q0 -49 29 -79t78 -30q53 0 82 35q25 33 24 74v20h256v-27q0 -162 -101 -247.5t-261 -85.5q-164 0 -263.5 88t-99.5 245z" />
<glyph unicode="&#x115;" horiz-adv-x="1300" d="M86 530q0 254 158.5 405.5t408.5 151.5q260 0 414 -154.5t154 -408.5v-57h-807q12 -104 83.5 -169t178.5 -65q92 0 145 33q37 16 60 49h329q-14 -104 -100 -185t-199 -120q-98 -37 -235 -37q-258 0 -424 153t-166 404zM299 1513v37h256v-32q0 -107 98.5 -107t98.5 107v32 h256v-37q0 -162 -97.5 -247.5t-257.5 -85.5q-164 0 -259 88t-95 245zM420 670h467q-48 176 -234 176q-88 0 -150.5 -46t-82.5 -130z" />
<glyph unicode="&#x116;" horiz-adv-x="1546" d="M176 0v1454h1217v-287h-869v-262h518v-293h-518v-311h949v-301h-1297zM629 1575v326h348v-326h-348z" />
<glyph unicode="&#x117;" horiz-adv-x="1300" d="M86 530q0 254 158.5 405.5t408.5 151.5q260 0 414 -154.5t154 -408.5v-57h-807q12 -104 83.5 -169t178.5 -65q92 0 145 33q37 16 60 49h329q-14 -104 -100 -185t-199 -120q-98 -37 -235 -37q-258 0 -424 153t-166 404zM420 670h467q-48 176 -234 176q-88 0 -150.5 -46 t-82.5 -130zM479 1198v328h348v-328h-348z" />
<glyph unicode="&#x118;" horiz-adv-x="1546" d="M176 0v1454h1217v-287h-869v-262h518v-293h-518v-311h949v-301h-199q-78 -53 -117 -86q-43 -35 -43 -64q0 -43 55 -43h162v-223h-332q-104 0 -176.5 43t-72.5 142q0 49 34.5 98t66.5 71.5t89 61.5h-764z" />
<glyph unicode="&#x119;" horiz-adv-x="1300" d="M86 530q0 254 158.5 405.5t408.5 151.5q260 0 414 -154.5t154 -408.5v-57h-807q12 -104 83.5 -169t178.5 -65q92 0 145 33q37 16 60 49h329q-16 -113 -166 -254q-90 -86 -133 -129t-43 -75q0 -49 68 -50h158v-223h-332q-252 0 -252 174q0 125 184 215h-18 q-258 0 -424 153t-166 404zM420 670h467q-48 176 -234 176q-88 0 -150.5 -46t-82.5 -130z" />
<glyph unicode="&#x11a;" horiz-adv-x="1546" d="M176 0v1454h1217v-287h-869v-262h518v-293h-518v-311h949v-301h-1297zM365 1913h303l135 -158l135 158h309l-286 -340h-316z" />
<glyph unicode="&#x11b;" horiz-adv-x="1300" d="M86 530q0 254 158.5 405.5t408.5 151.5q260 0 414 -154.5t154 -408.5v-57h-807q12 -104 83.5 -169t178.5 -65q92 0 145 33q37 16 60 49h329q-14 -104 -100 -185t-199 -120q-98 -37 -235 -37q-258 0 -424 153t-166 404zM236 1597h288l125 -196l123 196h293l-270 -405h-295 zM420 670h467q-48 176 -234 176q-88 0 -150.5 -46t-82.5 -130z" />
<glyph unicode="&#x11c;" horiz-adv-x="1714" d="M106 735q0 334 213 542t543 208q190 0 359.5 -71t255.5 -218q45 -76 59 -135h-367q-45 45 -82.5 66.5t-105.5 41.5q-51 12 -119 13q-184 0 -293.5 -130t-109.5 -317q0 -215 129 -339t340 -124q205 0 307 64v239h-459v285h793v-682q-115 -102 -293 -153.5t-356 -51.5 q-362 0 -588 206t-226 556zM418 1573l287 340h315l280 -340h-303l-135 158l-135 -158h-309z" />
<glyph unicode="&#x11d;" horiz-adv-x="1394" d="M88 537q0 233 131 388.5t356 155.5q199 0 312 -127q23 -29 28 -41v148h332v-1018q0 -254 -160.5 -367.5t-420.5 -113.5q-162 0 -308.5 58t-220.5 179q-35 57 -41 88h393q2 -4 17 -18q20 -16 33 -23q61 -27 127 -26q119 0 186.5 57t67.5 174v117q-41 -82 -142.5 -129 t-204.5 -47q-223 0 -354 159.5t-131 385.5zM252 1190l270 405h295l264 -405h-286l-125 194l-125 -194h-293zM424 537q0 -113 67.5 -188t180 -75t180.5 74t68 189q0 117 -67 189.5t-181 72.5q-113 0 -180.5 -74t-67.5 -188z" />
<glyph unicode="&#x11e;" horiz-adv-x="1714" d="M106 735q0 334 213 542t543 208q190 0 359.5 -71t255.5 -218q45 -76 59 -135h-367q-45 45 -82.5 66.5t-105.5 41.5q-51 12 -119 13q-184 0 -293.5 -130t-109.5 -317q0 -215 129 -339t340 -124q205 0 307 64v239h-459v285h793v-682q-115 -102 -293 -153.5t-356 -51.5 q-362 0 -588 206t-226 556zM500 1894v27h256v-20q0 -49 28.5 -79t77.5 -30q53 0 82 35q25 33 25 74v20h256v-27q0 -162 -101.5 -247.5t-261.5 -85.5q-164 0 -263 88t-99 245z" />
<glyph unicode="&#x11f;" horiz-adv-x="1394" d="M88 537q0 233 131 388.5t356 155.5q199 0 312 -127q23 -29 28 -41v148h332v-1018q0 -254 -160.5 -367.5t-420.5 -113.5q-162 0 -308.5 58t-220.5 179q-35 57 -41 88h393q2 -4 17 -18q20 -16 33 -23q61 -27 127 -26q119 0 186.5 57t67.5 174v117q-41 -82 -142.5 -129 t-204.5 -47q-223 0 -354 159.5t-131 385.5zM315 1513v37h256v-32q0 -107 98.5 -107t98.5 107v32h256v-37q0 -162 -97.5 -247.5t-256.5 -85.5q-164 0 -259.5 88t-95.5 245zM424 537q0 -113 67.5 -188t180 -75t180.5 74t68 189q0 117 -67 189.5t-181 72.5q-113 0 -180.5 -74 t-67.5 -188z" />
<glyph unicode="&#x120;" horiz-adv-x="1714" d="M106 735q0 334 213 542t543 208q190 0 359.5 -71t255.5 -218q45 -76 59 -135h-367q-45 45 -82.5 66.5t-105.5 41.5q-51 12 -119 13q-184 0 -293.5 -130t-109.5 -317q0 -215 129 -339t340 -124q205 0 307 64v239h-459v285h793v-682q-115 -102 -293 -153.5t-356 -51.5 q-362 0 -588 206t-226 556zM688 1575v326h348v-326h-348z" />
<glyph unicode="&#x121;" horiz-adv-x="1394" d="M88 537q0 233 131 388.5t356 155.5q199 0 312 -127q23 -29 28 -41v148h332v-1018q0 -254 -160.5 -367.5t-420.5 -113.5q-162 0 -308.5 58t-220.5 179q-35 57 -41 88h393q2 -4 17 -18q20 -16 33 -23q61 -27 127 -26q119 0 186.5 57t67.5 174v117q-41 -82 -142.5 -129 t-204.5 -47q-223 0 -354 159.5t-131 385.5zM424 537q0 -113 67.5 -188t180 -75t180.5 74t68 189q0 117 -67 189.5t-181 72.5q-113 0 -180.5 -74t-67.5 -188zM496 1198v328h348v-328h-348z" />
<glyph unicode="&#x122;" horiz-adv-x="1714" d="M106 735q0 334 213 542t543 208q190 0 359.5 -71t255.5 -218q45 -76 59 -135h-367q-45 45 -82.5 66.5t-105.5 41.5q-51 12 -119 13q-184 0 -293.5 -130t-109.5 -317q0 -215 129 -339t340 -124q205 0 307 64v239h-459v285h793v-682q-115 -102 -293 -153.5t-356 -51.5 q-362 0 -588 206t-226 556zM750 -137h358v-213q0 -135 -74 -305h-215q70 121 92 231h-161v287z" />
<glyph unicode="&#x123;" horiz-adv-x="1394" d="M88 537q0 233 131 388.5t356 155.5q199 0 312 -127q23 -29 28 -41v148h332v-1018q0 -254 -160.5 -367.5t-420.5 -113.5q-162 0 -308.5 58t-220.5 179q-35 57 -41 88h393q2 -4 17 -18q20 -16 33 -23q61 -27 127 -26q119 0 186.5 57t67.5 174v117q-41 -82 -142.5 -129 t-204.5 -47q-223 0 -354 159.5t-131 385.5zM424 537q0 -113 67.5 -188t180 -75t180.5 74t68 189q0 117 -67 189.5t-181 72.5q-113 0 -180.5 -74t-67.5 -188zM457 1196v213q-1 135 73 305h215q-70 -121 -92 -231h162v-287h-358z" />
<glyph unicode="&#x124;" horiz-adv-x="1759" d="M176 0v1454h348v-571h711v571h346v-1454h-346v575h-711v-575h-348zM434 1573l287 340h315l281 -340h-303l-135 158l-136 -158h-309z" />
<glyph unicode="&#x125;" horiz-adv-x="1388" d="M147 0v1507h332v-610q47 86 143.5 136t198.5 50q201 0 316.5 -130t115.5 -328v-625h-333v557q0 104 -57.5 167.5t-162.5 63.5q-102 0 -161.5 -64.5t-59.5 -166.5v-557h-332zM256 1626l287 340h315l281 -340h-303l-136 158l-135 -158h-309z" />
<glyph unicode="&#x128;" horiz-adv-x="708" d="M-37 1569v178q0 92 47 145.5t137 53.5q80 0 191 -60l76 -35q41 -20 65 -20q31 0 31 41v84h231v-180q0 -90 -48 -143.5t-138 -53.5q-51 0 -94 16q-39 14 -94 41l-78 35q-6 2 -18.5 8.5t-18.5 8.5q-20 4 -27 4q-31 0 -30 -41v-82h-232zM180 0v1454h348v-1454h-348z" />
<glyph unicode="&#x129;" horiz-adv-x="632" d="M-37 1184v184q0 92 44 145.5t134 53.5q47 0 86 -17q20 -10 82 -47l51 -30q18 -12 31 -19q8 -8 25 -8q14 0 24 12q6 12 6 31v88h224v-186q0 -90 -45 -143.5t-133 -53.5q-49 0 -89 16q-23 10 -81 45l-52 33q-20 12 -30 19q-12 6 -25 6q-29 0 -29 -41v-88h-223zM150 0v1061 h333v-1061h-333z" />
<glyph unicode="&#x12a;" horiz-adv-x="708" d="M-27 1616v250h758v-250h-758zM180 0v1454h348v-1454h-348z" />
<glyph unicode="&#x12b;" horiz-adv-x="632" d="M-6 1241v252h645v-252h-645zM150 0v1061h333v-1061h-333z" />
<glyph unicode="&#x12c;" horiz-adv-x="708" d="M-10 1894v27h256v-20q0 -49 28.5 -79t77.5 -30q53 0 82 35q25 33 25 74v20h256v-27q0 -162 -101.5 -247.5t-261.5 -85.5q-268 0 -340 204q-23 53 -22 129zM180 0v1454h348v-1454h-348z" />
<glyph unicode="&#x12d;" horiz-adv-x="632" d="M-33 1507v43h256v-37q0 -47 23.5 -74.5t68.5 -27.5t69 27.5t24 74.5v37h256v-43q0 -158 -96.5 -242.5t-252.5 -84.5q-160 0 -254 86t-94 241zM150 0v1061h333v-1061h-333z" />
<glyph unicode="&#x12e;" horiz-adv-x="708" d="M6 -236q0 78 51 130q49 51 123 106v1454h348v-1454q-78 -53 -116 -86q-43 -33 -43 -64q0 -43 55 -43h162v-223h-332q-104 0 -176 42t-72 138z" />
<glyph unicode="&#x12f;" horiz-adv-x="632" d="M-41 -231q0 49 35 98t66.5 71.5t89.5 61.5v1061h333v-1061q-78 -53 -116 -86q-43 -33 -43 -64q0 -43 55 -43h162v-223h-332q-104 0 -177 43t-73 142zM141 1198v328h348v-328h-348z" />
<glyph unicode="&#x130;" horiz-adv-x="708" d="M178 1575v326h348v-326h-348zM180 0v1454h348v-1454h-348z" />
<glyph unicode="&#x131;" horiz-adv-x="632" d="M150 0v1061h333v-1061h-333z" />
<glyph unicode="&#x136;" horiz-adv-x="1667" d="M176 0v1454h348v-629l666 629h452l-739 -700l772 -754h-475l-676 653v-653h-348zM666 -137h358v-213q0 -135 -74 -305h-215q70 121 92 231h-161v287z" />
<glyph unicode="&#x137;" horiz-adv-x="1333" d="M147 0v1507h332v-862l424 416h418l-508 -490l535 -571h-430l-439 473v-473h-332zM516 -137h358v-213q1 -135 -73 -305h-215q70 121 92 231h-162v287z" />
<glyph unicode="&#x139;" horiz-adv-x="1452" d="M176 0v1454h348v-1147h858v-307h-1206zM184 1575l230 332h356l-246 -332h-340z" />
<glyph unicode="&#x13a;" horiz-adv-x="636" d="M150 1628l229 332h356l-246 -332h-339zM152 0v1507h333v-1507h-333z" />
<glyph unicode="&#x13b;" horiz-adv-x="1452" d="M176 0v1454h348v-1147h858v-307h-1206zM627 -137h358v-213q0 -135 -74 -305h-215q70 121 92 231h-161v287z" />
<glyph unicode="&#x13c;" horiz-adv-x="636" d="M141 -137h359v-213q0 -135 -74 -305h-215q70 121 92 231h-162v287zM152 0v1507h333v-1507h-333z" />
<glyph unicode="&#x143;" horiz-adv-x="1767" d="M176 0v1454h395l689 -891v891h331v-1458h-282l-793 1005v-1001h-340zM731 1575l230 332h356l-246 -332h-340z" />
<glyph unicode="&#x144;" horiz-adv-x="1388" d="M147 0v1061h332v-164q47 86 143.5 136t198.5 50q201 0 316.5 -130t115.5 -328v-625h-333v557q0 104 -57.5 167.5t-162.5 63.5q-102 0 -161.5 -64.5t-59.5 -166.5v-557h-332zM530 1192l224 389h333l-237 -389h-320z" />
<glyph unicode="&#x145;" horiz-adv-x="1767" d="M176 0v1454h395l689 -891v891h331v-1458h-282l-793 1005v-1001h-340zM719 -137h358v-213q1 -135 -73 -305h-216q70 121 93 231h-162v287z" />
<glyph unicode="&#x146;" horiz-adv-x="1388" d="M147 0v1061h332v-164q47 86 143.5 136t198.5 50q201 0 316.5 -130t115.5 -328v-625h-333v557q0 104 -57.5 167.5t-162.5 63.5q-102 0 -161.5 -64.5t-59.5 -166.5v-557h-332zM524 -137h359v-213q0 -135 -74 -305h-215q70 121 92 231h-162v287z" />
<glyph unicode="&#x147;" horiz-adv-x="1767" d="M176 0v1454h395l689 -891v891h331v-1458h-282l-793 1005v-1001h-340zM467 1913h303l135 -158l135 158h310l-287 -340h-315z" />
<glyph unicode="&#x148;" horiz-adv-x="1388" d="M147 0v1061h332v-164q47 86 143.5 136t198.5 50q201 0 316.5 -130t115.5 -328v-625h-333v557q0 104 -57.5 167.5t-162.5 63.5q-102 0 -161.5 -64.5t-59.5 -166.5v-557h-332zM283 1597h288l125 -196l123 196h293l-270 -405h-295z" />
<glyph unicode="&#x14c;" horiz-adv-x="1755" d="M106 727q0 334 220.5 543t552.5 209q336 0 553 -211t217 -541t-221 -541t-549 -211q-332 0 -552.5 213t-220.5 539zM461 727q0 -190 117 -315t301 -125q188 0 301.5 126t113.5 314q0 190 -115.5 315t-299.5 125q-188 0 -303 -126t-115 -314zM500 1616v250h757v-250h-757z " />
<glyph unicode="&#x14d;" horiz-adv-x="1333" d="M86 530q0 248 168 402.5t414 154.5q252 0 416.5 -155.5t164.5 -401.5q0 -248 -168 -402.5t-413 -154.5q-250 0 -416 156t-166 401zM317 1241v252h701v-252h-701zM418 530.5q0 -112.5 69.5 -190.5t180.5 -78q82 0 142 43t89 119q16 53 16 106.5t-16 106.5 q-61 162 -231 162q-113 0 -181.5 -78t-68.5 -190.5z" />
<glyph unicode="&#x14e;" horiz-adv-x="1755" d="M106 727q0 334 220.5 543t552.5 209q336 0 553 -211t217 -541t-221 -541t-549 -211q-332 0 -552.5 213t-220.5 539zM461 727q0 -190 117 -315t301 -125q188 0 301.5 126t113.5 314q0 190 -115.5 315t-299.5 125q-188 0 -303 -126t-115 -314zM516 1894v27h256v-20 q0 -49 29 -79t78 -30q53 0 82 35q25 33 24 74v20h256v-27q0 -162 -101.5 -247.5t-260.5 -85.5q-164 0 -263.5 88t-99.5 245z" />
<glyph unicode="&#x14f;" horiz-adv-x="1333" d="M86 530q0 248 168 402.5t414 154.5q252 0 416.5 -155.5t164.5 -401.5q0 -248 -168 -402.5t-413 -154.5q-250 0 -416 156t-166 401zM313 1513v37h256v-32q0 -107 98.5 -107t98.5 107v32h256v-37q0 -162 -97.5 -247.5t-256.5 -85.5q-164 0 -259.5 88t-95.5 245zM418 530.5 q0 -112.5 69.5 -190.5t180.5 -78q82 0 142 43t89 119q16 53 16 106.5t-16 106.5q-61 162 -231 162q-113 0 -181.5 -78t-68.5 -190.5z" />
<glyph unicode="&#x150;" horiz-adv-x="1755" d="M106 727q0 334 220.5 543t552.5 209q336 0 553 -211t217 -541t-221 -541t-549 -211q-332 0 -552.5 213t-220.5 539zM461 727q0 -190 117 -315t301 -125q188 0 301.5 126t113.5 314q0 190 -115.5 315t-299.5 125q-188 0 -303 -126t-115 -314zM496 1575l157 332h320 l-172 -332h-305zM946 1575l166 332h318l-181 -332h-303z" />
<glyph unicode="&#x151;" horiz-adv-x="1333" d="M86 530q0 248 168 402.5t414 154.5q252 0 416.5 -155.5t164.5 -401.5q0 -248 -168 -402.5t-413 -154.5q-250 0 -416 156t-166 401zM330 1192l159 389h279l-170 -389h-268zM418 530.5q0 -112.5 69.5 -190.5t180.5 -78q82 0 142 43t89 119q16 53 16 106.5t-16 106.5 q-61 162 -231 162q-113 0 -181.5 -78t-68.5 -190.5zM739 1192l160 389h279l-170 -389h-269z" />
<glyph unicode="&#x154;" horiz-adv-x="1667" d="M176 0v1454h852q238 0 378 -112.5t140 -344.5q0 -147 -69.5 -251.5t-206.5 -153.5l327 -592h-366l-307 553h-400v-553h-348zM524 846h467q199 0 199 151q0 88 -52.5 123t-146.5 35h-467v-309zM645 1575l229 332h357l-246 -332h-340z" />
<glyph unicode="&#x155;" horiz-adv-x="1075" d="M147 0v1061h332v-166q84 168 322 168h227v-328h-291q-127 0 -192.5 -48t-65.5 -169v-518h-332zM449 1192l223 389h334l-238 -389h-319z" />
<glyph unicode="&#x156;" horiz-adv-x="1667" d="M176 0v1454h852q238 0 378 -112.5t140 -344.5q0 -147 -69.5 -251.5t-206.5 -153.5l327 -592h-366l-307 553h-400v-553h-348zM524 846h467q199 0 199 151q0 88 -52.5 123t-146.5 35h-467v-309zM662 -137h358v-213q0 -135 -74 -305h-215q70 121 92 231h-161v287z" />
<glyph unicode="&#x157;" horiz-adv-x="1075" d="M139 -137h359v-213q0 -135 -74 -305h-215q70 121 92 231h-162v287zM147 0v1061h332v-166q84 168 322 168h227v-328h-291q-127 0 -192.5 -48t-65.5 -169v-518h-332z" />
<glyph unicode="&#x158;" horiz-adv-x="1667" d="M176 0v1454h852q238 0 378 -112.5t140 -344.5q0 -147 -69.5 -251.5t-206.5 -153.5l327 -592h-366l-307 553h-400v-553h-348zM375 1913h303l135 -158l135 158h309l-286 -340h-316zM524 846h467q199 0 199 151q0 88 -52.5 123t-146.5 35h-467v-309z" />
<glyph unicode="&#x159;" horiz-adv-x="1075" d="M147 0v1061h332v-166q84 168 322 168h227v-328h-291q-127 0 -192.5 -48t-65.5 -169v-518h-332zM201 1597h288l125 -196l123 196h293l-270 -405h-295z" />
<glyph unicode="&#x15a;" horiz-adv-x="1550" d="M72 430h366q14 -33 39 -59q25 -33 70 -58q94 -59 254 -59q47 0 90 6t90 22.5t75.5 51.5t28.5 84q0 84 -56 116.5t-155 43.5q-63 8 -116 12q-645 39 -645 461q0 96 37.5 171.5t98 123t142.5 79t164 44t168 12.5q117 0 221.5 -20.5t203.5 -65.5t168.5 -128t94.5 -198h-350 q-10 18 -37 45q-29 20 -68 43q-96 45 -233 45q-254 0 -254 -137q0 -119 197 -139l110 -11q115 -6 199 -18t178 -43t153.5 -80t99.5 -133t40 -199q0 -131 -57.5 -227t-154.5 -146.5t-203.5 -73t-229.5 -22.5q-172 0 -315.5 41t-259 147.5t-154.5 268.5zM590 1575l229 332h357 l-246 -332h-340z" />
<glyph unicode="&#x15b;" horiz-adv-x="1208" d="M63 301h359q16 -53 108 -78q35 -12 88 -12q172 0 173 88q0 84 -129 92l-150 12q-86 6 -157.5 27t-134 59.5t-98.5 105.5t-36 155q0 96 45 165.5t121 105.5t156.5 52.5t171.5 16.5q190 0 341.5 -73t190.5 -237h-350l-19 19q-55 55 -165 55q-154 0 -154 -84q0 -74 125 -84 l67 -6q27 -2 72 -6q207 -12 324.5 -89t117.5 -266q0 -102 -46 -173.5t-124.5 -107.5t-161.5 -51.5t-180 -15.5q-156 0 -309 59.5t-209 178.5q-31 55 -37 92zM428 1192l223 389h334l-237 -389h-320z" />
<glyph unicode="&#x15c;" horiz-adv-x="1550" d="M72 430h366q14 -33 39 -59q25 -33 70 -58q94 -59 254 -59q47 0 90 6t90 22.5t75.5 51.5t28.5 84q0 84 -56 116.5t-155 43.5q-63 8 -116 12q-645 39 -645 461q0 96 37.5 171.5t98 123t142.5 79t164 44t168 12.5q117 0 221.5 -20.5t203.5 -65.5t168.5 -128t94.5 -198h-350 q-10 18 -37 45q-29 20 -68 43q-96 45 -233 45q-254 0 -254 -137q0 -119 197 -139l110 -11q115 -6 199 -18t178 -43t153.5 -80t99.5 -133t40 -199q0 -131 -57.5 -227t-154.5 -146.5t-203.5 -73t-229.5 -22.5q-172 0 -315.5 41t-259 147.5t-154.5 268.5zM313 1573l287 340h315 l281 -340h-303l-135 158l-135 -158h-310z" />
<glyph unicode="&#x15d;" horiz-adv-x="1208" d="M63 301h359q16 -53 108 -78q35 -12 88 -12q172 0 173 88q0 84 -129 92l-150 12q-86 6 -157.5 27t-134 59.5t-98.5 105.5t-36 155q0 96 45 165.5t121 105.5t156.5 52.5t171.5 16.5q190 0 341.5 -73t190.5 -237h-350l-19 19q-55 55 -165 55q-154 0 -154 -84q0 -74 125 -84 l67 -6q27 -2 72 -6q207 -12 324.5 -89t117.5 -266q0 -102 -46 -173.5t-124.5 -107.5t-161.5 -51.5t-180 -15.5q-156 0 -309 59.5t-209 178.5q-31 55 -37 92zM180 1190l271 405h294l265 -405h-287l-125 194l-125 -194h-293z" />
<glyph unicode="&#x15e;" horiz-adv-x="1550" d="M72 430h366q14 -33 39 -59q25 -33 70 -58q94 -59 254 -59q47 0 90 6t90 22.5t75.5 51.5t28.5 84q0 84 -56 116.5t-155 43.5q-63 8 -116 12q-645 39 -645 461q0 96 37.5 171.5t98 123t142.5 79t164 44t168 12.5q117 0 221.5 -20.5t203.5 -65.5t168.5 -128t94.5 -198h-350 q-10 18 -37 45q-29 20 -68 43q-96 45 -233 45q-254 0 -254 -137q0 -119 197 -139l110 -11q115 -6 199 -18t178 -43t153.5 -80t99.5 -133t40 -199q0 -125 -52.5 -218t-142.5 -145t-192.5 -78t-218.5 -28v-61h10q262 -6 262 -242q0 -127 -70.5 -192.5t-197.5 -65.5h-318v211 h269q63 0 63 55q0 53 -63 54h-197v256q-440 88 -526 442z" />
<glyph unicode="&#x15f;" horiz-adv-x="1208" d="M63 301h359q16 -53 108 -78q35 -12 88 -12q172 0 173 88q0 84 -129 92l-150 12q-86 6 -157.5 27t-134 59.5t-98.5 105.5t-36 155q0 96 45 165.5t121 105.5t156.5 52.5t171.5 16.5q190 0 341.5 -73t190.5 -237h-350l-19 19q-55 55 -165 55q-154 0 -154 -84q0 -74 125 -84 l67 -6q27 -2 72 -6q207 -12 324.5 -89t117.5 -266q0 -92 -38.5 -160.5t-106 -106.5t-142.5 -56.5t-163 -22.5v-61h10q262 -6 262 -242q0 -127 -70.5 -192.5t-197.5 -65.5h-317v211h266q66 0 65 55q0 53 -65 54h-195v256q-51 10 -80 20q-201 78 -258 201q-31 55 -37 92z" />
<glyph unicode="&#x160;" horiz-adv-x="1550" d="M72 430h366q14 -33 39 -59q25 -33 70 -58q94 -59 254 -59q47 0 90 6t90 22.5t75.5 51.5t28.5 84q0 84 -56 116.5t-155 43.5q-63 8 -116 12q-645 39 -645 461q0 96 37.5 171.5t98 123t142.5 79t164 44t168 12.5q117 0 221.5 -20.5t203.5 -65.5t168.5 -128t94.5 -198h-350 q-10 18 -37 45q-29 20 -68 43q-96 45 -233 45q-254 0 -254 -137q0 -119 197 -139l110 -11q115 -6 199 -18t178 -43t153.5 -80t99.5 -133t40 -199q0 -131 -57.5 -227t-154.5 -146.5t-203.5 -73t-229.5 -22.5q-172 0 -315.5 41t-259 147.5t-154.5 268.5zM319 1913h304 l135 -158l135 158h309l-287 -340h-315z" />
<glyph unicode="&#x161;" horiz-adv-x="1208" d="M63 301h359q16 -53 108 -78q35 -12 88 -12q172 0 173 88q0 84 -129 92l-150 12q-86 6 -157.5 27t-134 59.5t-98.5 105.5t-36 155q0 96 45 165.5t121 105.5t156.5 52.5t171.5 16.5q190 0 341.5 -73t190.5 -237h-350l-19 19q-55 55 -165 55q-154 0 -154 -84q0 -74 125 -84 l67 -6q27 -2 72 -6q207 -12 324.5 -89t117.5 -266q0 -102 -46 -173.5t-124.5 -107.5t-161.5 -51.5t-180 -15.5q-156 0 -309 59.5t-209 178.5q-31 55 -37 92zM180 1597h289l125 -196l123 196h293l-271 -405h-295z" />
<glyph unicode="&#x162;" horiz-adv-x="1591" d="M72 1151v303h1448v-303h-551v-1151h-346v1151h-551zM618 -137h359v-213q0 -135 -74 -305h-215q70 121 92 231h-162v287z" />
<glyph unicode="&#x163;" horiz-adv-x="1110" d="M51 784v277h275v393h333v-393h361v-277h-361v-329q0 -90 35 -126t125 -36h201v-293h-332q-362 0 -362 338v446h-275zM438 -137h359v-213q0 -135 -74 -305h-215q70 121 92 231h-162v287z" />
<glyph unicode="&#x168;" horiz-adv-x="1728" d="M168 637v817h348v-795q0 -170 91 -271t259 -101q166 0 258.5 102.5t92.5 269.5v795h344v-817q0 -311 -193.5 -489.5t-501.5 -178.5q-322 0 -510 178.5t-188 489.5zM473 1569v178q0 92 47 145.5t137 53.5q80 0 191 -60l76 -35q41 -20 65 -20q31 0 31 41v84h231v-180 q0 -90 -48 -143.5t-138 -53.5q-51 0 -94 16q-39 14 -94 41l-78 35q-6 2 -18.5 8.5t-18.5 8.5q-20 4 -27 4q-31 0 -30 -41v-82h-232z" />
<glyph unicode="&#x169;" horiz-adv-x="1361" d="M135 483v578h334v-553q0 -104 54.5 -165.5t156.5 -61.5t157.5 61t55.5 166v553h334v-578q0 -246 -148.5 -377t-392.5 -131q-250 0 -400.5 133.5t-150.5 374.5zM315 1184v184q0 92 45.5 145.5t135.5 53.5q72 0 176 -62l59 -35q35 -25 57 -24q33 0 33 43v88h226v-186 q0 -92 -46.5 -144.5t-136.5 -52.5q-76 0 -176 59l-59 37q-6 4 -16.5 9.5t-14.5 7.5q-12 6 -27 6q-33 0 -32 -41v-88h-224z" />
<glyph unicode="&#x16a;" horiz-adv-x="1728" d="M168 637v817h348v-795q0 -170 91 -271t259 -101q166 0 258.5 102.5t92.5 269.5v795h344v-817q0 -311 -193.5 -489.5t-501.5 -178.5q-322 0 -510 178.5t-188 489.5zM483 1616v250h758v-250h-758z" />
<glyph unicode="&#x16b;" horiz-adv-x="1361" d="M135 483v578h334v-553q0 -104 54.5 -165.5t156.5 -61.5t157.5 61t55.5 166v553h334v-578q0 -246 -148.5 -377t-392.5 -131q-250 0 -400.5 133.5t-150.5 374.5zM330 1241v252h700v-252h-700z" />
<glyph unicode="&#x16c;" horiz-adv-x="1728" d="M168 637v817h348v-795q0 -170 91 -271t259 -101q166 0 258.5 102.5t92.5 269.5v795h344v-817q0 -311 -193.5 -489.5t-501.5 -178.5q-322 0 -510 178.5t-188 489.5zM500 1894v27h256v-20q0 -49 28.5 -79t77.5 -30q53 0 82 35q25 33 25 74v20h256v-27q0 -162 -101.5 -247.5 t-261.5 -85.5q-164 0 -263 88t-99 245z" />
<glyph unicode="&#x16d;" horiz-adv-x="1361" d="M135 483v578h334v-553q0 -104 54.5 -165.5t156.5 -61.5t157.5 61t55.5 166v553h334v-578q0 -246 -148.5 -377t-392.5 -131q-250 0 -400.5 133.5t-150.5 374.5zM326 1513v37h256v-32q0 -107 98 -107t98 107v32h256v-37q0 -162 -97 -247.5t-257 -85.5q-164 0 -259 88 t-95 245z" />
<glyph unicode="&#x16e;" horiz-adv-x="1728" d="M168 637v817h348v-795q0 -170 91 -271t259 -101q166 0 258.5 102.5t92.5 269.5v795h344v-817q0 -311 -193.5 -489.5t-501.5 -178.5q-322 0 -510 178.5t-188 489.5zM573 1835q0 125 83 204t206 79q127 0 209 -79t82 -204q0 -123 -84 -202t-207 -79q-131 0 -207 82 q-82 76 -82 199zM748 1835q0 -51 32.5 -83t81.5 -32q51 0 83 32t32 83q0 53 -31 86q-33 31 -84 31t-82.5 -32t-31.5 -85z" />
<glyph unicode="&#x16f;" horiz-adv-x="1361" d="M135 483v578h334v-553q0 -104 54.5 -165.5t156.5 -61.5t157.5 61t55.5 166v553h334v-578q0 -246 -148.5 -377t-392.5 -131q-250 0 -400.5 133.5t-150.5 374.5zM391 1452q0 125 82 204t207 79q127 0 209 -79t82 -204q0 -123 -84 -202t-207 -79q-131 0 -207 82 q-82 76 -82 199zM565 1452q0 -51 33 -83t82 -32q51 0 83 32t32 83t-31 86q-35 31 -84 31q-51 0 -83 -32t-32 -85z" />
<glyph unicode="&#x170;" horiz-adv-x="1728" d="M168 637v817h348v-795q0 -170 91 -271t259 -101q166 0 258.5 102.5t92.5 269.5v795h344v-817q0 -311 -193.5 -489.5t-501.5 -178.5q-322 0 -510 178.5t-188 489.5zM481 1575l158 332h319l-172 -332h-305zM932 1575l166 332h317l-180 -332h-303z" />
<glyph unicode="&#x171;" horiz-adv-x="1361" d="M135 483v578h334v-553q0 -104 54.5 -165.5t156.5 -61.5t157.5 61t55.5 166v553h334v-578q0 -246 -148.5 -377t-392.5 -131q-250 0 -400.5 133.5t-150.5 374.5zM342 1192l160 389h278l-170 -389h-268zM752 1192l159 389h279l-170 -389h-268z" />
<glyph unicode="&#x172;" horiz-adv-x="1728" d="M168 637v817h348v-795q0 -170 91 -271t259 -101q166 0 258.5 102.5t92.5 269.5v795h344v-817q0 -113 -24 -203t-79 -171t-106.5 -135t-147.5 -142q-41 -37 -61 -62q-45 -45 -45 -74q0 -43 57 -43h160v-223h-332q-102 0 -176 40t-74 134q0 125 195 213q-14 -2 -37 -2h-25 q-322 0 -510 178.5t-188 489.5z" />
<glyph unicode="&#x173;" horiz-adv-x="1361" d="M135 483v578h334v-553q0 -104 54.5 -165.5t156.5 -61.5t157.5 61t55.5 166v553h334v-578q0 -123 -40 -216t-128 -187q-18 -20 -46 -50t-34 -36q-25 -25 -53 -57q-39 -43 -39 -82q0 -25 16 -37q16 -10 45 -11h154v-223h-330q-102 0 -173 40t-71 134q0 115 187 217h-29 q-252 0 -401.5 132.5t-149.5 375.5z" />
<glyph unicode="&#x174;" horiz-adv-x="2349" d="M47 1454h383l291 -938l311 940h320l313 -942l293 940h344l-473 -1456h-320l-329 965l-334 -965h-311zM741 1573l287 340h315l281 -340h-303l-135 158l-135 -158h-310z" />
<glyph unicode="&#x175;" horiz-adv-x="1878" d="M18 1061h361l207 -647l223 655h301l223 -649l205 641h322l-373 -1069h-318l-231 684l-227 -684h-308zM537 1190l270 405h295l264 -405h-287l-125 194l-125 -194h-292z" />
<glyph unicode="&#x176;" d="M4 1454h442l396 -528l397 528h391l-616 -844v-610h-365v612zM399 1573l287 340h315l281 -340h-303l-135 158l-135 -158h-310z" />
<glyph unicode="&#x177;" horiz-adv-x="1261" d="M6 1061h377l266 -641l266 641h336l-614 -1477h-334l178 432zM231 1190l271 405h295l264 -405h-287l-125 194l-125 -194h-293z" />
<glyph unicode="&#x178;" d="M4 1454h442l396 -528l397 528h391l-616 -844v-610h-365v612zM438 1575v323h326v-323h-326zM924 1575v323h325v-323h-325z" />
<glyph unicode="&#x179;" horiz-adv-x="1638" d="M96 0v199l830 954h-809v301h1356v-194l-838 -957h930v-303h-1469zM621 1575l229 332h356l-245 -332h-340z" />
<glyph unicode="&#x17a;" horiz-adv-x="1302" d="M88 0v180l576 613h-560v268h1063v-178l-585 -613h661v-270h-1155zM465 1192l223 389h334l-238 -389h-319z" />
<glyph unicode="&#x17b;" horiz-adv-x="1638" d="M96 0v199l830 954h-809v301h1356v-194l-838 -957h930v-303h-1469zM618 1575v326h349v-326h-349z" />
<glyph unicode="&#x17c;" horiz-adv-x="1302" d="M88 0v180l576 613h-560v268h1063v-178l-585 -613h661v-270h-1155zM461 1198v328h348v-328h-348z" />
<glyph unicode="&#x17d;" horiz-adv-x="1638" d="M96 0v199l830 954h-809v301h1356v-194l-838 -957h930v-303h-1469zM354 1913h303l136 -158l135 158h309l-287 -340h-315z" />
<glyph unicode="&#x17e;" horiz-adv-x="1302" d="M88 0v180l576 613h-560v268h1063v-178l-585 -613h661v-270h-1155zM217 1597h289l125 -196l123 196h293l-271 -405h-295z" />
<glyph unicode="&#x1fa;" horiz-adv-x="1699" d="M37 0l637 1456h356l635 -1456h-369l-108 252h-692l-109 -252h-350zM559 1835q0 125 83 204t206 79q127 0 209 -79t82 -204q0 -123 -84 -202t-207 -79q-131 0 -207 82q-82 76 -82 199zM621 543h442l-221 514zM684 2187l209 301h354l-225 -301h-338zM733 1835q0 -51 33 -83 t82 -32q51 0 83 32t32 83q0 53 -31 86q-35 31 -84 31q-51 0 -83 -32t-32 -85z" />
<glyph unicode="&#x1fb;" horiz-adv-x="1386" d="M88 530q0 231 131 391t352 160q195 0 308 -127q23 -29 28 -41v148h332v-1061h-328v156q-43 -84 -141 -131.5t-201 -47.5q-223 0 -352 163t-129 390zM375 1452q0 125 82 204t207 79q127 0 208.5 -79t81.5 -204q0 -123 -83.5 -202t-206.5 -79q-131 0 -207 82 q-82 76 -82 199zM424 530.5q0 -57.5 18 -106.5q23 -74 86.5 -118t141.5 -44q111 0 176 77.5t65 190.5q0 115 -64.5 192t-176.5 77q-80 0 -142.5 -44t-85.5 -118q-18 -49 -18 -106.5zM510 1804l192 326h334l-207 -326h-319zM549 1452q0 -51 33 -83t82 -32q51 0 82.5 32 t31.5 83t-30 86q-35 31 -84 31q-51 0 -83 -32t-32 -85z" />
<glyph unicode="&#x218;" horiz-adv-x="1550" d="M72 430h366q14 -33 39 -59q25 -33 70 -58q94 -59 254 -59q47 0 90 6t90 22.5t75.5 51.5t28.5 84q0 84 -56 116.5t-155 43.5q-63 8 -116 12q-645 39 -645 461q0 96 37.5 171.5t98 123t142.5 79t164 44t168 12.5q117 0 221.5 -20.5t203.5 -65.5t168.5 -128t94.5 -198h-350 q-10 18 -37 45q-29 20 -68 43q-96 45 -233 45q-254 0 -254 -137q0 -119 197 -139l110 -11q115 -6 199 -18t178 -43t153.5 -80t99.5 -133t40 -199q0 -131 -57.5 -227t-154.5 -146.5t-203.5 -73t-229.5 -22.5q-172 0 -315.5 41t-259 147.5t-154.5 268.5zM633 -137h358v-213 q1 -135 -73 -305h-216q70 121 93 231h-162v287z" />
<glyph unicode="&#x219;" horiz-adv-x="1208" d="M63 301h359q16 -53 108 -78q35 -12 88 -12q172 0 173 88q0 84 -129 92l-150 12q-86 6 -157.5 27t-134 59.5t-98.5 105.5t-36 155q0 96 45 165.5t121 105.5t156.5 52.5t171.5 16.5q190 0 341.5 -73t190.5 -237h-350l-19 19q-55 55 -165 55q-154 0 -154 -84q0 -74 125 -84 l67 -6q27 -2 72 -6q207 -12 324.5 -89t117.5 -266q0 -102 -46 -173.5t-124.5 -107.5t-161.5 -51.5t-180 -15.5q-156 0 -309 59.5t-209 178.5q-31 55 -37 92zM444 -137h359v-213q0 -135 -74 -305h-215q70 121 92 231h-162v287z" />
<glyph unicode="&#x401;" horiz-adv-x="1546" d="M176 0v1454h1217v-287h-869v-262h518v-293h-518v-311h949v-301h-1297zM397 1575v323h326v-323h-326zM883 1575v323h325v-323h-325z" />
<glyph unicode="&#x403;" horiz-adv-x="1501" d="M176 0v1454h1264v-303h-916v-1151h-348zM584 1575l229 332h356l-245 -332h-340z" />
<glyph unicode="&#x40e;" horiz-adv-x="1658" d="M31 1454h413l435 -657l405 657h373l-895 -1454h-375l293 475zM510 1894v27h256v-20q0 -49 28.5 -79t77.5 -30q53 0 82 35q25 33 25 74v20h256v-27q0 -162 -101.5 -247.5t-261.5 -85.5q-164 0 -263 88t-99 245z" />
<glyph unicode="&#x410;" horiz-adv-x="1699" d="M37 0l637 1456h356l635 -1456h-369l-108 252h-692l-109 -252h-350zM621 543h442l-221 514z" />
<glyph unicode="&#x411;" horiz-adv-x="1644" d="M176 0v1454h1235v-303h-887v-254h471q240 0 390.5 -105.5t150.5 -334.5q0 -236 -147.5 -346.5t-393.5 -110.5h-819zM524 303h451q205 0 205 156q0 72 -50 114q-53 41 -155 41h-451v-311z" />
<glyph unicode="&#x412;" horiz-adv-x="1646" d="M176 0v1454h840q215 0 351 -95t136 -300q0 -53 -16 -103q-53 -135 -189 -188q39 -12 93 -45q150 -109 149 -307q0 -211 -144.5 -313.5t-365.5 -102.5h-854zM518 281h451q217 0 217 163q0 162 -217 162h-451v-325zM518 887h443q188 0 188 143q0 82 -50 113t-138 31h-443 v-287z" />
<glyph unicode="&#x413;" horiz-adv-x="1501" d="M176 0v1454h1264v-303h-916v-1151h-348z" />
<glyph unicode="&#x414;" horiz-adv-x="1746" d="M14 305h150q86 152 123 459l78 690h1142v-1149h211v-637h-313v332h-1077v-332h-314v637zM504 305h655v844h-504l-45 -399q-33 -293 -106 -445z" />
<glyph unicode="&#x415;" horiz-adv-x="1546" d="M176 0v1454h1217v-287h-869v-262h518v-293h-518v-311h949v-301h-1297z" />
<glyph unicode="&#x416;" horiz-adv-x="2357" d="M-8 0l686 748l-674 706h410l590 -625v625h333v-627l590 627h404l-660 -694l692 -760h-432l-594 647v-647h-333v645l-594 -645h-418z" />
<glyph unicode="&#x417;" horiz-adv-x="1593" d="M96 459h348q12 -35 39 -64q82 -113 322 -112q326 0 325 176q0 139 -270 139h-219v281h213q240 0 240 145q0 147 -293 147q-141 0 -236 -43q-76 -39 -110 -102h-351q23 154 133.5 259.5t270.5 154.5q123 39 297 39q113 0 216 -18.5t204.5 -60.5t163 -127t61.5 -204 q0 -109 -62.5 -195t-164.5 -120q119 -35 191.5 -113t72.5 -195q0 -135 -60.5 -231t-165 -146.5t-216 -72t-238.5 -21.5q-213 0 -397.5 81t-266.5 251q-41 86 -47 152z" />
<glyph unicode="&#x418;" horiz-adv-x="1777" d="M176 0v1454h348v-979l729 979h349v-1454h-349v979l-729 -979h-348z" />
<glyph unicode="&#x419;" horiz-adv-x="1777" d="M176 0v1454h348v-979l729 979h349v-1454h-349v979l-729 -979h-348zM526 1894v27h256v-20q0 -49 29 -79t78 -30q53 0 82 35q25 33 24 74v20h256v-27q0 -162 -101 -247.5t-261 -85.5q-164 0 -263.5 88t-99.5 245z" />
<glyph unicode="&#x41a;" horiz-adv-x="1667" d="M176 0v1454h348v-629l666 629h452l-739 -700l772 -754h-475l-676 653v-653h-348z" />
<glyph unicode="&#x41b;" horiz-adv-x="1740" d="M68 -18v348h32q86 0 129 39t66 123q10 51 20 139l82 823h1168v-1454h-348v1149h-525l-53 -545q-14 -158 -41 -260t-84 -191.5t-157.5 -130t-250.5 -40.5h-38z" />
<glyph unicode="&#x41c;" horiz-adv-x="2088" d="M176 0v1454h510l369 -938l368 938h488v-1454h-336v1100l-426 -1102h-234l-419 1094v-1092h-320z" />
<glyph unicode="&#x41d;" horiz-adv-x="1759" d="M176 0v1454h348v-571h711v571h346v-1454h-346v575h-711v-575h-348z" />
<glyph unicode="&#x41e;" horiz-adv-x="1755" d="M106 727q0 334 220.5 543t552.5 209q336 0 553 -211t217 -541t-221 -541t-549 -211q-332 0 -552.5 213t-220.5 539zM461 727q0 -190 117 -315t301 -125q188 0 301.5 126t113.5 314q0 190 -115.5 315t-299.5 125q-188 0 -303 -126t-115 -314z" />
<glyph unicode="&#x41f;" horiz-adv-x="1738" d="M176 0v1454h1385v-1454h-349v1149h-688v-1149h-348z" />
<glyph unicode="&#x420;" horiz-adv-x="1642" d="M176 0v1454h850q242 0 382 -115.5t140 -353.5q0 -236 -141 -354.5t-381 -118.5h-504v-512h-346zM522 815h471q199 0 199 168t-199 168h-471v-336z" />
<glyph unicode="&#x421;" d="M106 727q0 330 211 541t535 211q203 0 374 -87t259 -257q43 -86 55 -148h-354q-10 18 -37 51q-63 70 -164 109q-59 18 -133 18q-180 0 -284.5 -128t-104.5 -310q0 -184 106.5 -311t282.5 -127q199 0 301 127q31 43 35 51h352q-23 -141 -129 -257t-248 -177 q-123 -58 -311 -58q-328 0 -537 214t-209 538z" />
<glyph unicode="&#x422;" horiz-adv-x="1591" d="M72 1151v303h1448v-303h-551v-1151h-346v1151h-551z" />
<glyph unicode="&#x423;" horiz-adv-x="1658" d="M31 1454h413l435 -657l405 657h373l-895 -1454h-375l293 475z" />
<glyph unicode="&#x424;" horiz-adv-x="2285" d="M92 743q0 256 149.5 383t411.5 127h318v222h346v-222h315q264 0 412.5 -126t148.5 -384q0 -254 -151.5 -382t-409.5 -128h-315v-253h-346v253h-316q-260 0 -411.5 128t-151.5 382zM451 743q0 -104 65.5 -155t171.5 -51h283v413h-283q-238 0 -237 -207zM1317 537h282 q109 0 172.5 51t63.5 155q0 207 -236 207h-282v-413z" />
<glyph unicode="&#x425;" horiz-adv-x="1724" d="M23 0l626 735l-608 719h451l378 -457l390 457h415l-600 -700l627 -754h-432l-418 494l-422 -494h-407z" />
<glyph unicode="&#x426;" horiz-adv-x="1800" d="M176 0v1454h348v-1149h688v1149h349v-1149h213v-637h-316v332h-1282z" />
<glyph unicode="&#x427;" horiz-adv-x="1683" d="M143 1061v393h349v-391q0 -143 68.5 -204.5t213.5 -61.5q170 0 385 34v623h348v-1454h-348v526q-217 -33 -409 -32q-307 0 -457 137t-150 430z" />
<glyph unicode="&#x428;" horiz-adv-x="2412" d="M176 0v1454h348v-1149h508v1149h348v-1149h508v1149h348v-1454h-2060z" />
<glyph unicode="&#x429;" horiz-adv-x="2473" d="M176 0v1454h348v-1149h508v1149h348v-1149h508v1149h348v-1149h211v-637h-313v332h-1958z" />
<glyph unicode="&#x42a;" horiz-adv-x="1959" d="M72 1151v303h776v-465h473q254 0 399.5 -124t145.5 -371q0 -250 -145.5 -372t-399.5 -122h-819v1151h-430zM848 303h438q223 0 223 190.5t-223 190.5h-438v-381z" />
<glyph unicode="&#x42b;" horiz-adv-x="2236" d="M176 0v1454h348v-465h471q254 0 400.5 -123t146.5 -372.5t-145.5 -371.5t-401.5 -122h-819zM524 303h437q223 0 223 190.5t-223 190.5h-437v-381zM1710 0v1454h348v-1454h-348z" />
<glyph unicode="&#x42c;" d="M176 0v1454h348v-465h471q254 0 400.5 -123t146.5 -372.5t-145.5 -371.5t-401.5 -122h-819zM524 303h437q223 0 223 190.5t-223 190.5h-437v-381z" />
<glyph unicode="&#x42d;" d="M94 467h352q12 -20 37 -49q43 -63 128 -96t171 -33q139 0 245 84t132 217h-541v278h541q-20 94 -79.5 167t-149.5 108q-68 23 -142 22q-201 0 -301 -127q-27 -29 -38 -51h-355q29 150 135.5 263.5t253.5 174.5q129 53 305 54q334 0 536 -211t202 -541q0 -328 -211 -540 t-533 -212q-203 0 -379 91.5t-258 263.5q-43 90 -51 137z" />
<glyph unicode="&#x42e;" horiz-adv-x="2301" d="M176 0v1454h348v-571h185q49 274 252.5 435t482.5 161q332 0 541.5 -213t209.5 -539q0 -328 -214 -540t-537 -212q-281 0 -484.5 165t-252.5 435h-183v-575h-348zM1049 727q0 -186 107.5 -313t287.5 -127q182 0 289.5 128t107.5 312q0 186 -108.5 313t-288.5 127 q-182 0 -288.5 -128t-106.5 -312z" />
<glyph unicode="&#x42f;" horiz-adv-x="1677" d="M98 0l338 578q-305 92 -305 409q0 236 140.5 351.5t379.5 115.5h850v-1454h-348v532h-377l-307 -532h-371zM489 989q0 -164 199 -164h465v330h-465q-199 0 -199 -166z" />
<glyph unicode="&#x430;" horiz-adv-x="1386" d="M88 530q0 231 131 391t352 160q195 0 308 -127q23 -29 28 -41v148h332v-1061h-328v156q-43 -84 -141 -131.5t-201 -47.5q-223 0 -352 163t-129 390zM424 530.5q0 -57.5 18 -106.5q23 -74 86.5 -118t141.5 -44q111 0 176 77.5t65 190.5q0 115 -64.5 192t-176.5 77 q-80 0 -142.5 -44t-85.5 -118q-18 -49 -18 -106.5z" />
<glyph unicode="&#x431;" horiz-adv-x="1343" d="M98 580q0 84 2 122q4 59 6 125q27 301 182.5 444.5t454.5 188.5l416 62v-283l-411 -61q-180 -31 -261 -95.5t-100 -224.5q115 160 373 160q233 0 365 -142.5t132 -371.5q0 -244 -166.5 -387.5t-412.5 -143.5q-279 0 -429.5 166t-150.5 441zM432 495.5q0 -112.5 66.5 -176 t179.5 -63.5t179.5 63.5t66.5 176t-66.5 176t-179.5 63.5t-179.5 -63.5t-66.5 -176z" />
<glyph unicode="&#x432;" horiz-adv-x="1310" d="M147 0v1061h670q156 0 264.5 -68.5t108.5 -214.5q0 -133 -103 -200q-23 -18 -59 -29q35 -8 72 -29q37 -23 61 -51q57 -72 58 -168q0 -156 -115 -228.5t-281 -72.5h-676zM479 231h273q133 0 133 103q0 41 -33 67q-32 25 -98 25h-275v-195zM479 643h256q125 0 125 92 q0 47 -33 72q-35 22 -92 22h-256v-186z" />
<glyph unicode="&#x433;" horiz-adv-x="1050" d="M143 0v1061h852v-277h-520v-784h-332z" />
<glyph unicode="&#x434;" horiz-adv-x="1372" d="M10 276h105q90 133 131 445l43 340h895v-785h178v-581h-297v305h-758v-305h-297v581zM438 276h414v508h-293l-10 -77q-16 -141 -45 -265q-20 -66 -29 -90q-16 -45 -37 -76z" />
<glyph unicode="&#x435;" horiz-adv-x="1300" d="M86 530q0 254 158.5 405.5t408.5 151.5q260 0 414 -154.5t154 -408.5v-57h-807q12 -104 83.5 -169t178.5 -65q92 0 145 33q37 16 60 49h329q-14 -104 -100 -185t-199 -120q-98 -37 -235 -37q-258 0 -424 153t-166 404zM420 670h467q-48 176 -234 176q-88 0 -150.5 -46 t-82.5 -130z" />
<glyph unicode="&#x436;" horiz-adv-x="1841" d="M-16 0l446 547l-430 514h406l350 -416v416h319v-416l350 416h402l-424 -506l455 -555h-420l-363 446v-446h-319v446l-363 -446h-409z" />
<glyph unicode="&#x437;" horiz-adv-x="1286" d="M72 362h321q27 -72 96.5 -105.5t153.5 -33.5q217 0 217 111q0 90 -164 90h-168v219h154q156 0 156 94q0 100 -191 101q-182 0 -237 -133h-318q25 197 185.5 289.5t373.5 92.5q88 0 169 -12t164 -44t133 -98.5t50 -160.5q0 -82 -47 -142.5t-127 -82.5q90 -23 146.5 -83.5 t56.5 -150.5q0 -80 -37 -142t-94 -99t-134 -59.5t-145.5 -31t-142.5 -8.5q-164 0 -315.5 62.5t-212.5 191.5q-37 68 -43 135z" />
<glyph unicode="&#x438;" horiz-adv-x="1406" d="M147 0v1061h328v-629l457 629h330v-1061h-330v629l-457 -629h-328z" />
<glyph unicode="&#x439;" horiz-adv-x="1406" d="M147 0v1061h328v-629l457 629h330v-1061h-330v629l-457 -629h-328zM352 1516v36h256v-32q0 -107 98.5 -107t98.5 107v32h256v-36q0 -162 -97.5 -248t-256.5 -86q-164 0 -259.5 88t-95.5 246z" />
<glyph unicode="&#x43a;" horiz-adv-x="1333" d="M145 0v1061h332v-432l426 432h418l-506 -504l535 -557h-435l-438 463v-463h-332z" />
<glyph unicode="&#x43b;" horiz-adv-x="1343" d="M55 -4v303h25q61 0 89 19.5t42 76.5q8 29 14 97l56 569h915v-1061h-332v784h-309l-31 -331q-18 -231 -99 -344t-288 -113h-82z" />
<glyph unicode="&#x43c;" horiz-adv-x="1783" d="M147 0v1061h461l291 -635l285 635h452v-1061h-323v748l-322 -748h-215l-323 741v-741h-306z" />
<glyph unicode="&#x43d;" horiz-adv-x="1386" d="M147 0v1061h332v-379h428v379h332v-1061h-332v406h-428v-406h-332z" />
<glyph unicode="&#x43e;" horiz-adv-x="1335" d="M86 530q0 248 168 402.5t414 154.5q252 0 416.5 -155.5t164.5 -401.5q0 -248 -168 -402.5t-413 -154.5q-250 0 -416 156t-166 401zM418 530.5q0 -112.5 69.5 -190.5t180.5 -78q82 0 142 43t89 119q16 53 16 106.5t-16 106.5q-61 162 -231 162q-113 0 -181.5 -78 t-68.5 -190.5z" />
<glyph unicode="&#x43f;" horiz-adv-x="1366" d="M147 0v1061h1072v-1061h-332v784h-408v-784h-332z" />
<glyph unicode="&#x440;" horiz-adv-x="1398" d="M147 -410v1471h332v-158q43 82 143.5 130t200.5 48q229 0 358.5 -159.5t129.5 -391.5q0 -233 -131 -393t-357 -160q-88 0 -178 35t-139 99q-23 27 -31 41v-562h-328zM475 530.5q0 -118.5 67.5 -193.5t184.5 -75t182.5 76t65.5 192.5t-65.5 192.5t-182.5 76t-184.5 -75 t-67.5 -193.5z" />
<glyph unicode="&#x441;" horiz-adv-x="1243" d="M86 530q0 246 155.5 401.5t395.5 155.5q199 0 355.5 -105.5t176.5 -291.5h-323q-2 2 -8.5 12.5t-10.5 16.5q-16 18 -36 37q-23 14 -60 30q-35 12 -84 13q-109 0 -168 -78t-59 -191q0 -111 61.5 -190.5t167.5 -79.5q57 0 121 31t80 78h319q-6 -115 -90 -212.5t-198 -142.5 q-100 -41 -240 -41q-244 0 -399.5 159t-155.5 398z" />
<glyph unicode="&#x442;" horiz-adv-x="1232" d="M55 784v277h1123v-277h-396v-784h-331v784h-396z" />
<glyph unicode="&#x443;" horiz-adv-x="1261" d="M6 1061h377l266 -641l266 641h336l-614 -1477h-334l178 432z" />
<glyph unicode="&#x444;" horiz-adv-x="1742" d="M84 530q0 254 181 402.5t440 154.5v420h333v-420q266 -6 443.5 -154.5t177.5 -402.5q0 -256 -180.5 -403t-440.5 -154v-383h-333v383q-260 6 -440.5 157t-180.5 400zM418 530.5q0 -124.5 78.5 -195.5t208.5 -79v549q-127 -8 -207 -79t-80 -195.5zM1038 256 q129 6 208 76.5t79 197.5t-79 198t-208 77v-549z" />
<glyph unicode="&#x445;" horiz-adv-x="1341" d="M8 0l467 520l-467 541h426l254 -301l270 301h375l-463 -516l463 -545h-407l-269 309l-276 -309h-373z" />
<glyph unicode="&#x446;" horiz-adv-x="1404" d="M147 0v1061h332v-785h408v785h332v-785h176v-581h-299v305h-949z" />
<glyph unicode="&#x447;" horiz-adv-x="1333" d="M123 774v287h332v-277q0 -100 42 -140t144 -40q88 0 213 14v443h332v-1061h-332v348q-102 -18 -246 -18q-248 0 -366.5 104.5t-118.5 339.5z" />
<glyph unicode="&#x448;" horiz-adv-x="2011" d="M147 0v1061h332v-785h361v785h331v-785h361v785h332v-1061h-1717z" />
<glyph unicode="&#x449;" horiz-adv-x="2052" d="M147 0v1061h332v-785h361v785h331v-785h361v785h332v-785h178v-581h-297v305h-1598z" />
<glyph unicode="&#x44a;" horiz-adv-x="1546" d="M55 784v277h652v-320h354q195 0 308.5 -91t113.5 -275q0 -182 -118 -278.5t-302 -96.5h-688v784h-320zM707 254h297q145 0 145 121q0 112 -145 112h-297v-233z" />
<glyph unicode="&#x44b;" horiz-adv-x="1875" d="M147 0v1061h332v-320h355q195 0 308 -91t113 -275q0 -182 -117.5 -278.5t-301.5 -96.5h-689zM479 254h297q145 0 146 121q-1 112 -146 112h-297v-233zM1395 0v1061h334v-1061h-334z" />
<glyph unicode="&#x44c;" horiz-adv-x="1316" d="M147 0v1061h332v-320h355q195 0 308 -91t113 -275q0 -182 -117.5 -278.5t-301.5 -96.5h-689zM479 254h297q145 0 146 121q-1 112 -146 112h-297v-233z" />
<glyph unicode="&#x44d;" horiz-adv-x="1257" d="M72 362h321q16 -43 60 -75q23 -18 59 -33q31 -14 82 -14q170 0 231 172h-346v247h342q-29 72 -82 117q-59 43 -139 43q-51 0 -84 -12q-70 -31 -94 -74q-14 -20 -21 -35h-325q12 121 94 211t201 140q96 39 239 38q248 0 404.5 -156.5t156.5 -400.5q0 -248 -162.5 -402.5 t-406.5 -154.5q-160 0 -297 66.5t-199 200.5q-32 69 -34 122z" />
<glyph unicode="&#x44e;" horiz-adv-x="1830" d="M145 0v1061h332v-379h144q51 193 202.5 299t352.5 106q248 0 409.5 -156.5t161.5 -400.5q0 -248 -163 -402.5t-408 -154.5q-211 0 -365 116t-197 317h-137v-406h-332zM936 530.5q0 -57.5 18 -106.5q16 -51 50 -84q66 -78 172 -78q111 0 174 78t63 190q0 115 -62.5 192 t-174.5 77q-76 0 -137.5 -45t-84.5 -117q-18 -49 -18 -106.5z" />
<glyph unicode="&#x44f;" horiz-adv-x="1341" d="M82 0l280 381q-242 66 -241 317q0 180 117.5 271.5t300.5 91.5h655v-1061h-332v332h-176l-235 -332h-369zM457 696q0 -55 36 -82.5t93 -27.5h276v221h-276q-129 0 -129 -111z" />
<glyph unicode="&#x451;" horiz-adv-x="1300" d="M86 530q0 254 158.5 405.5t408.5 151.5q260 0 414 -154.5t154 -408.5v-57h-807q12 -104 83.5 -169t178.5 -65q92 0 145 33q37 16 60 49h329q-14 -104 -100 -185t-199 -120q-98 -37 -235 -37q-258 0 -424 153t-166 404zM254 1198v324h328v-324h-328zM420 670h467 q-48 176 -234 176q-88 0 -150.5 -46t-82.5 -130zM725 1198v324h328v-324h-328z" />
<glyph unicode="&#x453;" horiz-adv-x="1050" d="M143 0v1061h852v-277h-520v-784h-332zM381 1192l223 389h334l-238 -389h-319z" />
<glyph unicode="&#x45e;" horiz-adv-x="1261" d="M6 1061h377l266 -641l266 641h336l-614 -1477h-334l178 432zM272 1526v37h256v-33q0 -107 98.5 -107t98.5 107v33h256v-37q0 -162 -97.5 -248t-256.5 -86q-164 0 -259.5 88t-95.5 246z" />
<glyph unicode="&#x490;" horiz-adv-x="1501" d="M176 0v1454h948v346h316v-649h-916v-1151h-348z" />
<glyph unicode="&#x1e80;" horiz-adv-x="2349" d="M47 1454h383l291 -938l311 940h320l313 -942l293 940h344l-473 -1456h-320l-329 965l-334 -965h-311zM770 1907h356l230 -332h-340z" />
<glyph unicode="&#x1e81;" horiz-adv-x="1878" d="M18 1061h361l207 -647l223 655h301l223 -649l205 641h322l-373 -1069h-318l-231 684l-227 -684h-308zM555 1581h334l223 -389h-319z" />
<glyph unicode="&#x1e82;" horiz-adv-x="2349" d="M47 1454h383l291 -938l311 940h320l313 -942l293 940h344l-473 -1456h-320l-329 965l-334 -965h-311zM1022 1575l229 332h357l-246 -332h-340z" />
<glyph unicode="&#x1e83;" horiz-adv-x="1878" d="M18 1061h361l207 -647l223 655h301l223 -649l205 641h322l-373 -1069h-318l-231 684l-227 -684h-308zM791 1192l223 389h334l-238 -389h-319z" />
<glyph unicode="&#x1e84;" horiz-adv-x="2349" d="M47 1454h383l291 -938l311 940h320l313 -942l293 940h344l-473 -1456h-320l-329 965l-334 -965h-311zM780 1575v323h326v-323h-326zM1266 1575v323h325v-323h-325z" />
<glyph unicode="&#x1e85;" horiz-adv-x="1878" d="M18 1061h361l207 -647l223 655h301l223 -649l205 641h322l-373 -1069h-318l-231 684l-227 -684h-308zM555 1198v324h328v-324h-328zM1026 1198v324h328v-324h-328z" />
<glyph unicode="&#x1ef2;" d="M4 1454h442l396 -528l397 528h391l-616 -844v-610h-365v612zM442 1907h357l229 -332h-340z" />
<glyph unicode="&#x1ef3;" horiz-adv-x="1261" d="M6 1061h377l266 -641l266 641h336l-614 -1477h-334l178 432zM252 1581h334l223 -389h-320z" />
<glyph unicode="&#x2000;" horiz-adv-x="1244" />
<glyph unicode="&#x2001;" horiz-adv-x="2488" />
<glyph unicode="&#x2002;" horiz-adv-x="1244" />
<glyph unicode="&#x2003;" horiz-adv-x="2488" />
<glyph unicode="&#x2004;" horiz-adv-x="829" />
<glyph unicode="&#x2005;" horiz-adv-x="622" />
<glyph unicode="&#x2006;" horiz-adv-x="414" />
<glyph unicode="&#x2007;" horiz-adv-x="414" />
<glyph unicode="&#x2008;" horiz-adv-x="311" />
<glyph unicode="&#x2009;" horiz-adv-x="497" />
<glyph unicode="&#x200a;" horiz-adv-x="138" />
<glyph unicode="&#x2010;" horiz-adv-x="1003" d="M156 463v307h692v-307h-692z" />
<glyph unicode="&#x2011;" horiz-adv-x="1003" d="M156 463v307h692v-307h-692z" />
<glyph unicode="&#x2012;" horiz-adv-x="1003" d="M156 463v307h692v-307h-692z" />
<glyph unicode="&#x2013;" horiz-adv-x="1458" d="M156 504v223h1147v-223h-1147z" />
<glyph unicode="&#x2014;" horiz-adv-x="2359" d="M156 463v307h2048v-307h-2048z" />
<glyph unicode="&#x202f;" horiz-adv-x="497" />
<glyph unicode="&#x205f;" horiz-adv-x="622" />
<glyph unicode="&#x25fc;" horiz-adv-x="1064" d="M0 0v1065h1065v-1065h-1065z" />
</font>
</defs>
</svg>
