<?xml version="1.0" standalone="no"?>
<!DOCTYPE svg PUBLIC "-//W3C//DTD SVG 1.1//EN" "http://www.w3.org/Graphics/SVG/1.1/DTD/svg11.dtd" >
<svg xmlns="http://www.w3.org/2000/svg" xmlns:xlink="http://www.w3.org/1999/xlink" version="1.1">
<metadata>
Created by FontForge 20201107 at Fri Oct 18 12:20:40 2024
 By 
(c)Denustudios 2022.  All Rights Reserved
</metadata>
<defs>
<font id="Genastaq" horiz-adv-x="954" >
  <font-face 
    font-family="Genastaq"
    font-weight="400"
    font-style="italic"
    font-stretch="normal"
    units-per-em="2048"
    panose-1="2 0 6 0 0 0 0 9 0 0"
    ascent="1638"
    descent="-410"
    x-height="848"
    cap-height="1391"
    bbox="-1542 -899 2357 1720"
    underline-thickness="102"
    underline-position="-204"
    slope="-14"
    unicode-range="U+0020-FB02"
  />
<missing-glyph horiz-adv-x="61" 
 />
    <glyph glyph-name="f_f" unicode="ff" horiz-adv-x="1034" 
d="M938 1210l-90 -362h225l-8 -31h-225l-164 -657q-16 -66 5.5 -97.5t68.5 -31.5l-9 -31h-340l9 31q101 0 133 129l164 657h-269l-164 -657q-16 -66 5.5 -97.5t68.5 -31.5l-8 -31h-340l8 31q46 0 82.5 31t52.5 98l164 657h-104l8 31h104l80 315q13 55 43 98.5t64.5 68.5
t74.5 41.5t71 22t57 5.5q66 0 122 -27q12 -6 23 -6q21 0 43 25l22 -17l-210 -250l-23 15l23 28q54 63 63 111q11 42 -7.5 66t-62.5 24q-50 0 -95.5 -40t-65.5 -118l-91 -362h269l80 315q16 68 56 117.5t88.5 73.5t89.5 34.5t75 10.5q66 0 125 -27q12 -6 22 -6q21 0 43 25
l21 -17l-211 -250l-23 15l25 28q50 59 63 111q9 42 -9 66t-62 24q-50 0 -95 -40t-65 -118z" />
    <glyph glyph-name="f_i" unicode="fi" horiz-adv-x="800" 
d="M438 817l-164 -657q-16 -67 5 -98t69 -31l-8 -31h-340l8 31q46 0 82.5 31t52.5 98l164 657h-104l8 31h104l78 315q17 68 57 117.5t88.5 73.5t90 34.5t76.5 10.5q132 0 196 -83.5t35 -197.5q-9 -35 -41.5 -60.5t-67.5 -25.5q-36 0 -55 25t-10 61q6 23 10 45.5t7 62.5
t-2.5 69t-25.5 51t-55 22q-50 0 -94.5 -40t-64.5 -118l-91 -362h228l-8 -31h-228zM840 819l-166 -659q-16 -66 5.5 -97.5t68.5 -31.5l-9 -31h-340l9 31q46 0 82.5 31t52.5 98l131 518q19 76 -31 76q-12 0 -47 -13l-4 29l217 76q4 2 10 2q11 0 17.5 -8.5t3.5 -20.5z" />
    <glyph glyph-name="f_t" unicode="ft" 
d="M911 184l23 -16q-2 -3 -20.5 -23.5t-24 -26.5t-23.5 -25t-28 -26.5t-27.5 -22t-31.5 -21t-31.5 -15t-35.5 -11.5t-36 -3h-19q-74 7 -99.5 64.5t-0.5 156.5l150 602h-269l-164 -657q-16 -66 5.5 -97.5t68.5 -31.5l-8 -31h-340l8 31q101 0 133 129l164 657h-102l8 31h102
l80 315q16 68 56 117.5t88.5 73.5t89.5 34.5t75 10.5q66 0 125 -27q12 -6 23 -6q19 0 41 25l22 -17l-211 -250l-22 15l25 28q50 59 63 111q9 42 -9.5 66t-62.5 24q-50 0 -94.5 -40t-64.5 -118l-91 -362h164q63 0 109.5 17.5t76 52.5t47 73t31.5 92l23 95h31l-82 -330h174
l-8 -31h-174l-154 -616q-15 -74 -0.5 -106.5t53.5 -37.5h11q34 0 73.5 34t89.5 93z" />
    <glyph glyph-name="g_i" unicode="gi" horiz-adv-x="1110" 
d="M1149 819l-166 -659q-16 -66 5.5 -97.5t68.5 -31.5l-8 -31h-340l8 31q46 0 82.5 31t52.5 98l131 518q19 76 -31 76q-10 0 -49 -13l-2 29l217 76q4 2 10 2q11 0 17.5 -8.5t3.5 -20.5zM455 6q119 -27 169 -87t25 -161q-19 -74 -66 -134t-105.5 -95t-118 -53.5t-111.5 -18.5
q-255 0 -318 260l131 60q3 -76 23 -139t64.5 -106.5t107.5 -43.5q88 0 160 53.5t96 120.5q2 5 8 29q21 81 -28 128t-177 77q-114 26 -160.5 54t-45.5 85q0 10 4 26q22 82 141 191q-70 42 -100 118t-7 165q34 132 156.5 226.5t263.5 94.5q28 0 68 -8q108 160 261.5 259
t283.5 99q37 0 55.5 -25.5t9.5 -62.5q-9 -36 -40.5 -61t-67.5 -25q-60 0 -96 -1.5t-97 -11.5t-103.5 -28.5t-91.5 -56.5t-85 -92q98 -31 144 -116t19 -191q-34 -134 -156 -228t-263 -94q-69 0 -127 25q-55 -58 -62 -101q-4 -16 -4 -18q0 -20 19 -37t58 -31t69 -22t81 -20
q9 -2 13 -3zM279 535q-29 -122 10 -206.5t125 -84.5q88 0 169.5 84.5t110.5 206.5q31 120 -9 205t-126 85t-167.5 -85t-112.5 -205z" />
    <glyph glyph-name="i_t" unicode="it" 
d="M911 184l23 -16q-3 -3 -21 -23.5t-24 -26.5t-23.5 -24.5t-27.5 -26.5t-27.5 -22.5t-31 -21t-31 -15t-35 -11.5t-35.5 -3h-19q-76 7 -101.5 64t-0.5 155l150 604h-105l8 31q120 0 179.5 61.5t87.5 173.5q25 98 -19 166t-139 68q-75 0 -117.5 -54t-66.5 -145
q-9 -35 -40.5 -60.5t-66.5 -25.5q-37 0 -57 25.5t-11 60.5q17 65 78 119t138.5 82.5t150.5 28.5q107 0 157.5 -77t22.5 -188l-59 -235h172l-8 -31h-172l-154 -616q-16 -74 -2 -107.5t53 -36.5h11q60 0 163 127zM440 819l-166 -659q-16 -66 5.5 -97.5t68.5 -31.5l-8 -31h-340
l8 31q46 0 82.5 31t52.5 98l131 518q19 76 -30 76q-10 0 -49 -13l-2 29l217 76q4 2 10 2q11 0 17 -8.5t3 -20.5z" />
    <glyph glyph-name="s_t" unicode="st" horiz-adv-x="1198" 
d="M1155 184l23 -16q-3 -3 -21 -23.5t-24 -26.5t-23.5 -24.5t-27.5 -26.5t-27.5 -22.5t-31 -21t-31 -15t-35 -11.5t-35.5 -3h-19q-76 7 -101.5 64t-0.5 155l149 604h-104l8 31q117 0 175.5 58.5t86.5 164.5q26 114 -35 194.5t-176 80.5t-217 -81.5t-131 -197.5
q-6 -23 -6.5 -46t5 -43t13 -38.5t20 -35.5t23.5 -30.5t26 -26.5t24.5 -21.5t22.5 -17t17.5 -11t10.5 -6.5q15 -9 30 -9q26 0 50 27l24 -14l-213 -252l-22 16l24 29q33 44 41 78q18 64 -24.5 111.5t-124.5 47.5q-74 0 -128.5 -46.5t-72.5 -116.5q-16 -61 25 -97.5t122 -64.5
q36 -12 64 -23t56.5 -23.5t48 -25t39 -28t29 -31t18.5 -35.5t7 -41t-6 -47q-27 -105 -132 -178.5t-236 -73.5q-103 0 -215 65q-15 9 -29 9q-25 0 -51 -29l-23 16l211 252l23 -16l-23 -29q-28 -36 -37 -65q-15 -67 32 -119.5t120 -52.5q76 0 136 49t79 121q16 64 -24.5 101.5
t-120.5 63.5q-69 23 -115 44t-86.5 51t-54.5 68.5t-2 86.5q27 104 126 175t228 71q38 0 65 -6q-74 94 -45 217q32 128 146 218.5t241 90.5q129 0 197.5 -90.5t36.5 -218.5l-55 -219h172l-9 -31h-172l-153 -616q-34 -133 51 -144h10q61 0 164 127z" />
    <glyph glyph-name="t_t" unicode="tt" 
d="M913 184l21 -16q-37 -43 -52 -59t-53.5 -50.5t-75 -49.5t-75.5 -15h-19q-74 7 -99.5 64t-0.5 155l150 604h-269l-153 -616q-16 -74 -2 -107.5t53 -36.5h10q61 0 164 127l23 -16q-3 -3 -21 -23.5t-24 -26.5t-23.5 -24.5t-27.5 -26.5t-27.5 -22.5t-31 -21t-31 -15
t-35 -11.5t-35.5 -3h-19q-76 7 -101.5 64t-0.5 155l149 604h-104l8 31q120 0 179 61t87 174l23 95h30l-81 -330h163q119 0 178 61.5t87 173.5l22 95h31l-82 -330h174l-8 -31h-174l-154 -616q-16 -74 -1.5 -107.5t52.5 -36.5h11q36 0 75.5 34t89.5 93z" />
    <glyph glyph-name="A_A" unicode="AA" horiz-adv-x="1906" 
d="M1786 1391l-33 -1231q-3 -129 100 -129l-8 -29h-340l8 29q35 0 62 20t37 62q6 18 6 43l16 678q-27 0 -192 -5l-305 -675q-12 -20 -15 -41q-10 -41 4 -61.5t45 -20.5l-8 -29h-211l9 29q88 0 147 129l303 669q-351 -14 -594 -92l-18 -577q0 -129 102 -129l-8 -29h-340l8 29
q33 0 60.5 21t37.5 61q7 21 7 43l12 526q-322 -148 -475 -483l-19 -45q-5 -10 -16 -43q-10 -41 5 -60.5t46 -19.5l-8 -29h-211l8 29q89 0 148 129l487 1079q4 11 14 39q8 39 -9 60.5t-73 21.5h-24l6 31h274l-16 -625q253 80 610 94l172 379q10 19 13 39q22 82 -82 82h-23
l6 31h275zM692 1278l-387 -856q142 185 375 291l14 567zM1645 1278l-189 -418q61 2 180 2l11 418z" />
    <glyph glyph-name="A_B" unicode="AB" horiz-adv-x="1906" 
d="M1688 856q167 -27 236 -144t30 -280q-46 -185 -202.5 -307.5t-371.5 -122.5h-428l9 29q46 0 82.5 31t52.5 98l168 669q-262 -11 -449 -73l-16 -596q-3 -129 102 -129l-8 -29h-340l8 29q35 0 61.5 21t36.5 63q7 21 7 41l12 544q-317 -155 -475 -501l-19 -45
q-5 -10 -16 -43q-10 -40 4.5 -60t44.5 -20l-8 -29h-209l8 29q90 0 146 129l489 1079q4 11 14 39q8 39 -9 60.5t-73 21.5h-24l6 31h274l-16 -607q203 65 457 76l92 371q16 67 -5 98t-67 31l6 31h383q146 0 223.5 -81t47.5 -198q-22 -86 -93.5 -154.5t-170.5 -101.5zM692 1278
l-385 -850q146 195 373 301l14 551zM1495 1231l-92 -369h153q98 0 167.5 70.5t97.5 179.5q26 109 -9 178.5t-133 69.5h-47q-46 0 -82.5 -31t-54.5 -98zM1821 432q25 113 14.5 202.5t-73 144.5t-169.5 55h-196l-168 -674q-18 -66 3 -97.5t68 -31.5h93q159 0 271.5 113
t156.5 288z" />
    <glyph glyph-name="A_E" unicode="AE" horiz-adv-x="1773" 
d="M1989 1112h-31l24 96q15 63 -18 107.5t-96 44.5h-236q-46 0 -82.5 -31t-52.5 -98l-92 -369h78q57 0 108 41t64 98l16 68h31l-137 -551h-31l45 176q14 59 -16.5 99.5t-87.5 40.5h-78l-168 -674q-16 -67 4.5 -98t66.5 -31h136q104 0 197.5 75t119.5 179l31 123h31
l-103 -406h-760l9 29q46 0 82.5 31t52.5 98l168 669q-263 -11 -447 -73l-16 -596q-3 -129 100 -129l-8 -29h-340l8 29q33 0 60.5 21t37.5 61q7 21 7 43l14 544q-319 -155 -475 -501l-21 -45q-5 -10 -16 -43q-10 -41 5 -60.5t46 -19.5l-8 -29h-211l8 29q89 0 148 129
l487 1079q12 27 14 41q10 37 -8.5 58.5t-73.5 21.5h-24l6 31h274l-16 -607q203 65 457 76l92 371q16 67 -5 98t-67 31l6 31h760zM692 1278l-385 -850q151 197 373 301l14 551z" />
    <glyph glyph-name="A_F" unicode="AF" horiz-adv-x="1773" 
d="M1298 1391h760l-69 -279h-31l24 96q15 64 -17.5 108t-96.5 44h-236q-46 0 -82.5 -31t-52.5 -98l-92 -369h78q57 0 108 41t64 98l16 68h31l-137 -551h-31l45 176q14 59 -16.5 99.5t-87.5 40.5h-78l-168 -674q-16 -67 4.5 -98t66.5 -31l-8 -29h-340l9 29q103 0 135 129
l168 669q-263 -11 -447 -73l-16 -596q-3 -129 100 -129l-8 -29h-340l8 29q33 0 60.5 21t37.5 61q7 21 7 43l14 544q-319 -155 -475 -501l-21 -45q-10 -18 -14 -41q-10 -41 4 -61.5t45 -20.5l-8 -29h-211l8 29q89 0 148 129l487 1079q12 27 14 41q10 37 -8.5 58.5t-73.5 21.5
h-24l6 31h274l-14 -607q200 65 455 76l92 371q16 67 -4.5 98t-67.5 31zM692 1278l-385 -850q148 194 373 301l14 551z" />
    <glyph glyph-name="A_G" unicode="AG" horiz-adv-x="1882" 
d="M2040 883h-31l10 35q23 89 7 170.5t-54 143.5t-95 99t-116 37q-161 0 -322 -167t-243 -415q88 5 207 5h614l-196 -789h-31q13 50 10.5 77t-24.5 27q-16 0 -45 -16q-85 -48 -156 -72t-158 -24q-113 0 -202.5 55t-139.5 150t-64 223t25 274q2 6 7.5 25t7.5 29
q-138 -14 -234 -39l-16 -551q-3 -129 100 -129l-8 -29h-340l8 29q35 0 61.5 20t36.5 62q7 21 7 43l12 512q-319 -129 -473 -469l-21 -45q-10 -18 -14 -41q-10 -41 4 -61.5t45 -20.5l-8 -29h-211l8 29q89 0 148 129l489 1079q8 16 12 39q22 82 -82 82h-22l6 31h275l-19 -650
q123 27 246 39q59 172 171 313.5t253.5 223.5t281.5 82q165 0 277 -121q22 -27 37 -27q21 0 37 60h30zM692 1278l-387 -858q145 188 375 276l14 584zM1726 760h-331q-137 0 -209 -4q-12 -38 -17 -60q-37 -139 -32.5 -261.5t38 -213.5t99 -143.5t151.5 -52.5q98 0 203 75.5
t135 196.5l78 309q15 63 -18.5 108.5t-96.5 45.5z" />
    <glyph glyph-name="A_H" unicode="AH" horiz-adv-x="1906" 
d="M2191 1391l-6 -31q-47 0 -84 -31.5t-53 -97.5l-268 -1071q-16 -66 5 -97.5t68 -31.5l-8 -29h-340l8 29q47 0 83.5 31.5t52.5 97.5l168 674h-422l-168 -674q-16 -66 5 -97.5t68 -31.5l-8 -29h-340l9 29q46 0 82.5 31t52.5 98l168 669q-262 -11 -449 -73l-16 -596
q-3 -129 102 -129l-8 -29h-340l8 29q35 0 61.5 21t36.5 63q7 21 7 41l12 544q-317 -155 -475 -501l-19 -45q-5 -10 -16 -43q-10 -40 4.5 -60t44.5 -20l-8 -29h-209l8 29q90 0 146 129l489 1079q4 11 14 39q8 39 -9 60.5t-73 21.5h-24l6 31h274l-16 -607q203 65 457 76
l92 371q16 67 -5 98t-67 31l6 31h340l-6 -31q-47 0 -84 -31.5t-53 -97.5l-92 -369h422l92 369q16 67 -5 98t-67 31l6 31h340zM692 1278l-385 -850q146 195 373 301l14 551z" />
    <glyph glyph-name="A_P" unicode="AP" horiz-adv-x="1906" 
d="M1298 1391h553q146 0 223.5 -81t47.5 -198q-28 -116 -145.5 -197t-264.5 -81h-317l-168 -674q-16 -66 5 -97.5t68 -31.5l-8 -29h-340l9 29q46 0 82.5 31t52.5 98l168 669q-262 -11 -449 -73l-16 -596q0 -129 102 -129l-8 -29h-340l8 29q33 0 60.5 21t37.5 61q7 21 7 43
l12 544q-317 -155 -475 -501l-19 -45q-5 -10 -16 -43q-10 -40 4.5 -60t44.5 -20l-8 -29h-209l8 29q90 0 146 129l489 1079q4 11 14 39q8 39 -9 60.5t-73 21.5h-24l6 31h274l-16 -607q203 65 457 76l92 371q16 67 -5 98t-67 31zM692 1278l-385 -850q146 195 373 301l14 551z
M1405 862h321q98 0 167.5 70.5t97.5 179.5q28 108 -7.5 178t-134.5 70h-217q-46 0 -82.5 -31t-54.5 -98z" />
    <glyph glyph-name="A_Q" unicode="AQ" horiz-adv-x="2035" 
d="M1423 -143q23 -33 90 -33q104 0 252 67l21 -122q-125 -25 -207 -25q-159 0 -203 80q-30 50 -10 133q4 23 12 39q-104 9 -185 66.5t-125.5 150t-56.5 214.5t23 259q-111 -18 -223 -51l-12 -475q-3 -129 102 -129l-8 -29h-340l8 29q33 0 59.5 20t36.5 62q7 21 7 43l14 432
q-361 -141 -467 -371l-27 -63q-5 -10 -16 -43q-10 -40 4.5 -60t44.5 -20l-8 -29h-209l8 29q90 0 146 129l489 1079q3 6 14 39q18 82 -82 82h-24l6 31h274l-18 -727q105 33 227 53q50 187 164.5 343.5t264 247.5t298.5 91q113 0 202.5 -55.5t139 -151t63.5 -223.5t-24 -273
q-48 -191 -163 -353t-266 -255.5t-302 -93.5h-4l-2 -10q-19 -79 12 -127zM666 614q6 0 10 4l18 666l-415 -917q139 148 387 247zM1761 1368q-112 0 -229 -85t-211.5 -231.5t-142.5 -320.5q95 10 159 10q244 0 299 -118q29 -59 6 -144q-4 -16 -10 -34l-10.5 -31.5t-15 -36
t-15.5 -33t-18.5 -36.5t-17.5 -33t-20.5 -37.5t-18.5 -34.5q-72 -123 -91 -178q115 0 235 89.5t216 244.5t141 337q36 139 31.5 261.5t-37.5 213.5t-98.5 144t-151.5 53zM1167 700v-4q-41 -180 -28.5 -324t80 -238t172.5 -107q30 68 96 186q104 181 125 266q19 74 -4 127
q-52 105 -277 105q-80 0 -164 -11z" />
    <glyph glyph-name="A_R" unicode="AR" horiz-adv-x="1906" 
d="M1878 545l-96 -385q-16 -67 4.5 -98t66.5 -31l-8 -29q-28 0 -52 3t-50.5 11t-44 22.5t-32 36.5t-15 53t7.5 73l86 344q13 52 19 88.5t2 77t-23 65.5t-60.5 41.5t-105.5 16.5h-180l-168 -674q-16 -67 5 -98t69 -31l-9 -29h-340l9 29q101 0 133 129l168 669
q-263 -11 -447 -73l-16 -596q-3 -129 100 -129l-8 -29h-340l8 29q33 0 60.5 21t37.5 61q7 21 7 43l14 544q-319 -155 -475 -501l-21 -45q-10 -18 -14 -41q-10 -41 4 -61.5t45 -20.5l-8 -29h-211l8 29q89 0 148 129l487 1079q12 27 14 41q10 37 -8.5 58.5t-73.5 21.5h-24
l6 31h274l-14 -607q200 65 455 76l92 371q16 67 -4 98t-66 31l6 31h551q147 0 224 -81t47 -198q-26 -105 -125.5 -183t-229.5 -93q170 -66 111 -291zM692 1278l-383 -850q144 193 371 301l14 551zM1405 862h321q98 0 167.5 70.5t97.5 179.5q28 108 -7 178t-133 70h-219
q-46 0 -82.5 -31t-52.5 -98z" />
    <glyph glyph-name="A_S" unicode="AS" horiz-adv-x="1499" 
d="M1260 821q49 -40 80 -67t67 -62t56.5 -61.5t40 -60t27 -65t7.5 -68t-10 -75.5q-56 -222 -250 -360.5t-459 -138.5q-215 0 -354 88q-148 94 -154 258q0 57 13 102q23 98 86 181q103 142 268 217l16 571l-2 -2l-510 -1124q-10 -18 -14 -41q-10 -41 4 -61.5t45 -20.5l-8 -29
h-209l8 29q90 0 146 129l489 1079q8 16 12 39q22 82 -82 82h-22l6 31h274l-32 -1231q-3 -129 100 -129l-8 -29h-340l8 29q35 0 61.5 20t36.5 62q7 21 7 43l14 522q-128 -59 -213 -160.5t-111 -210.5q-12 -47 -12 -90q6 -148 138 -235.5t347 -87.5q105 0 202 37t168 97.5
t119.5 134t67.5 148.5q27 109 -13.5 185t-147.5 163q-155 129 -224.5 237t-42.5 218q30 120 148.5 202.5t273.5 82.5q133 0 264 -76q13 -8 31 -8q28 0 53 28l23 -16l-215 -250l-21 15l23 28q25 27 35 62q17 72 -43 129t-156 57q-100 0 -175.5 -59t-96.5 -144t24 -177
t136 -167z" />
    <glyph glyph-name="L_A" unicode="LA" horiz-adv-x="1304" 
d="M1182 1391l-31 -1231q-3 -129 100 -129l-8 -29h-340l8 29q33 0 61 21t38 61q6 18 6 43l14 524h-258l-129 -285q-13 -34 -14 -41q-10 -40 4.5 -60t44.5 -20l-6 -30h-211l6 30q90 0 149 129l377 836q13 31 15 41q10 37 -8.5 58.5t-73.5 21.5h-25l6 31h275zM786 711h244
l14 573zM799 285l30 123h29l-100 -406h-758l6 29q46 0 82.5 31t54.5 98l267 1071q18 66 -3.5 97.5t-68.5 31.5l8 31h340l-8 -31q-46 0 -82.5 -31t-52.5 -98l-269 -1071q-16 -67 5 -98t67 -31h135q104 0 198 75t120 179z" />
    <glyph glyph-name="L_N" unicode="LN" horiz-adv-x="1353" 
d="M1430 1391h208l-6 -31q-40 0 -72.5 -31t-50.5 -98l-307 -1229h-28l-345 1239l-208 -838q-16 -67 0.5 -98t56.5 -31l-6 -30h-211l8 30q40 0 72.5 31.5t48.5 97.5l207 828q18 66 0 97.5t-58 31.5l9 31h190l305 -1106l236 946q18 66 0 97.5t-58 31.5zM799 285l30 123h31
l-102 -406h-758l8 29q46 0 82.5 31t52.5 98l269 1071q16 67 -5 98t-69 31l8 31h340l-8 -31q-46 0 -82.5 -31t-52.5 -98l-267 -1071q-18 -66 3.5 -97.5t68.5 -31.5h133q105 0 198.5 74.5t119.5 179.5z" />
    <glyph glyph-name="N_T" unicode="NT" horiz-adv-x="1607" 
d="M973 1169l8 29h211l-8 -29q-40 0 -72.5 -31t-50.5 -98l-258 -1038h-31l-342 1239l-270 -1081q-16 -67 0.5 -98t56.5 -31l-6 -29h-211l8 29q40 0 72.5 31.5t48.5 97.5l268 1071q16 67 -1 98t-58 31l8 31h191l307 -1106l186 755q18 67 1 98t-58 31zM819 1391h1075l-69 -279
h-31l23 96q17 63 -16.5 107.5t-96.5 44.5h-72q-46 0 -82.5 -31t-54.5 -98l-266 -1071q-18 -66 3 -97.5t68 -31.5l-8 -29h-340l9 29q46 0 82.5 31t52.5 98l268 1071q16 67 -5 98t-67 31h-297q-63 0 -119 -44.5t-71 -107.5l-25 -96h-30z" />
    <glyph glyph-name="R_A" unicode="RA" horiz-adv-x="1888" 
d="M1767 1391l-32 -1231q-3 -129 100 -129l-8 -29h-340l8 29q35 0 61.5 20t36.5 62q6 18 6 43l31 1124l-4 -4l-254 -563q131 -69 168 -238q20 -102 -8 -219q-11 -44 -35 -98q-73 -163 -209 -246q-118 -74 -262 -74q-202 0 -279 106.5t-26 311.5l72 289q13 52 19 88.5t2 77
t-23 65.5t-60.5 41.5t-105.5 16.5h-183l-168 -674q-16 -66 5.5 -97.5t68.5 -31.5l-8 -29h-340l8 29q46 0 82.5 31t52.5 98l269 1071q16 67 -5 98t-67 31l6 31h553q146 0 223 -81t47 -198q-26 -105 -126 -183t-230 -93q171 -65 111 -291l-82 -330q-38 -152 12 -249t180 -97
q38 0 76.5 5.5t90 24.5t96.5 50t91.5 86.5t79.5 128.5q21 45 33 92q31 129 -4 248t-139 178l-242 -530q-8 -18 -12 -39q-10 -41 4 -61.5t45 -20.5l-8 -29h-211l8 29q92 0 148 129l489 1079q8 16 12 39q22 82 -82 82h-22l6 31h274zM451 862h323q98 0 167 70.5t97 179.5
q26 109 -8.5 178.5t-132.5 69.5h-217q-46 0 -82.5 -31t-54.5 -98z" />
    <glyph glyph-name="R_S" unicode="RS" horiz-adv-x="1851" 
d="M1612 821q49 -40 80 -67t67 -62t56.5 -61.5t40 -60t27 -65t7.5 -68t-10 -75.5q-22 -91 -86.5 -180t-156 -160t-214.5 -115t-252 -44q-68 0 -129 10t-119 32t-99.5 57.5t-70.5 86t-32 118t16 152.5l56 226q13 52 19 88.5t2 77t-23 65.5t-60.5 41.5t-105.5 16.5h-183
l-168 -674q-16 -66 5.5 -97.5t68.5 -31.5l-8 -29h-340l8 29q46 0 82.5 31t52.5 98l269 1071q16 67 -5 98t-67 31l6 31h553q146 0 223 -81t47 -198q-26 -105 -125.5 -183t-228.5 -93q168 -65 109 -291l-66 -266q-23 -100 -8 -172.5t64 -119.5t116.5 -70t149.5 -23
q103 0 203 42.5t171 107t119.5 135.5t63.5 132q10 38 11 72t-7.5 64.5t-22 56.5t-37 53t-48.5 50.5t-60 51.5q-155 128 -224 236.5t-42 218.5q30 120 149.5 202.5t274.5 82.5q133 0 264 -76q13 -8 30 -8q29 0 54 28l20 -16l-213 -250l-22 15l24 28q23 29 33 62
q19 71 -41.5 128.5t-155.5 57.5q-100 0 -175.5 -59t-96.5 -144t24 -177t136 -167zM453 862h321q98 0 167 70.5t97 179.5q28 108 -7 178t-134 70h-217q-46 0 -82.5 -31t-54.5 -98z" />
    <glyph glyph-name="S_A" unicode="SA" horiz-adv-x="1730" 
d="M1610 1393l-31 -1231q-5 -129 98 -129l-8 -31h-340l8 31q34 0 62 20.5t39 61.5q4 24 4 43l2 84q-19 96 -84.5 213.5t-165.5 214.5l-233 -514q-13 -31 -15 -41q-10 -41 4 -61.5t45 -20.5l-8 -31h-211l8 31q88 0 150 129l237 530q-218 197 -487 197q-56 0 -115 -15
q9 -11 20 -22t28.5 -26.5t23.5 -20.5q180 -148 237.5 -251.5t26.5 -223.5q-37 -147 -167.5 -240.5t-274.5 -93.5q-125 0 -216 62t-127 168t-5 231q29 116 107.5 216t185.5 165q-104 136 -72 260q30 121 153.5 212t276.5 91q131 0 262 -76q16 -8 31 -8q27 0 53 29l21 -17
l-213 -252l-23 17l27 28q23 29 30 62q19 71 -41 128.5t-155 57.5q-98 0 -177 -67t-100 -154q-29 -119 68 -250q71 21 143 21q269 0 494 -195l235 516q6 12 15 39q8 38 -10 60t-74 22h-23l8 31h273zM604 643q-110 90 -180 172q-102 -60 -177 -154t-102 -204q-29 -117 4 -216
t118 -156.5t202 -57.5q101 0 185 79.5t108 174.5q28 109 -13.5 193t-144.5 169zM1237 678q144 -151 211 -328l25 932l-5 -2l-260 -575q19 -19 29 -27z" />
    <glyph glyph-name="S_T" unicode="ST" horiz-adv-x="1439" 
d="M702 1397h1024l-69 -279h-31l25 96q15 63 -17.5 108.5t-95.5 45.5h-72q-47 0 -84 -31.5t-53 -97.5l-268 -1071q-16 -66 5.5 -97.5t68.5 -31.5l-9 -31h-340l9 31q46 0 82.5 31t52.5 98l268 1071q16 67 -5 98t-67 31h-430q-100 0 -174.5 -56.5t-95.5 -140.5
q-23 -85 22 -177t138 -167q49 -41 79.5 -67t67 -61t57 -61.5t40.5 -60t26.5 -64.5t7 -67.5t-9.5 -76.5q-28 -115 -102 -201t-165 -127t-186 -41q-44 0 -82.5 9t-68 27t-47.5 31.5t-40 34.5t-26 25q-8 8 -22 8q-29 0 -64 -35l-22 17l288 340l23 -17l-76 -88q-34 -39 -47 -90
q-23 -89 30.5 -160t162.5 -71q103 0 186 82t115 204q27 108 -14.5 184.5t-149.5 164.5q-156 129 -225.5 236.5t-42.5 217.5q30 119 148.5 198t274.5 79z" />
    <glyph glyph-name="U_T" unicode="UT" horiz-adv-x="1607" 
d="M819 1391h1073l-69 -279h-29l23 96q17 63 -16.5 107.5t-98.5 44.5h-70q-46 0 -82.5 -31t-54.5 -98l-266 -1071q-18 -66 3 -97.5t68 -31.5l-8 -29h-340l9 29q46 0 82.5 31t52.5 98l268 1071q16 67 -5 98t-67 31h-299q-63 0 -118 -44.5t-70 -107.5l-25 -96h-30zM973 1169
l8 29h209l-6 -29q-40 0 -72.5 -31t-50.5 -98l-184 -741q-31 -123 -140 -210t-233 -87q-58 0 -105 8t-88.5 25t-69.5 47t-44 72t-15.5 101.5t19.5 133.5l209 842q18 66 -3.5 97.5t-68.5 31.5l8 31h340l-8 -31q-46 0 -82.5 -31t-52.5 -98l-221 -885q-40 -167 14 -241t176 -74
q110 0 208 79t126 189l184 741q18 66 0.5 97.5t-57.5 31.5z" />
    <glyph glyph-name="V_T" unicode="VT" horiz-adv-x="1570" 
d="M782 1391h1073l-69 -279h-31l25 96q15 63 -18.5 107.5t-96.5 44.5h-72q-46 0 -82.5 -31t-52.5 -98l-268 -1071q-16 -66 5.5 -97.5t68.5 -31.5l-9 -29h-340l9 29q46 0 82.5 31t52.5 98l266 1071q18 66 -3.5 97.5t-68.5 31.5h-297q-63 0 -119 -44.5t-71 -107.5l-23 -96h-30
zM936 1169l8 29h209l-8 -29q-90 0 -146 -129l-471 -1038h-120l32 1229q3 129 -100 129l6 31h340l-6 -31q-35 0 -62.5 -21t-37.5 -63q0 -2 -3 -17.5t-4 -23.5l-28 -1126l424 938q5 10 16 43q10 40 -4.5 59.5t-44.5 19.5z" />
    <glyph glyph-name="W_T" unicode="WT" horiz-adv-x="2072" 
d="M1282 1391h1075l-69 -279h-31l24 96q15 63 -18 107.5t-96 44.5h-72q-46 0 -82.5 -31t-52.5 -98l-268 -1071q-16 -67 4.5 -98t66.5 -31l-6 -29h-340l6 29q46 0 83 31t55 98l266 1071q18 66 -3.5 97.5t-68.5 31.5h-297q-63 0 -119 -44.5t-71 -107.5l-25 -96h-31zM1436 1169
l8 29h211l-8 -29q-90 0 -146 -129l-471 -1038h-121l23 893l-404 -893h-120l32 1229q0 129 -100 129l6 31h340l-6 -31q-35 0 -62.5 -20.5t-37.5 -61.5q-3 -8 -7 -43l-28 -1126l389 860l8 262q0 129 -100 129l6 31h340l-6 -31q-35 0 -63 -21t-38 -61q-1 -3 -6 -43l-28 -1126
l423 938q8 16 17 43q10 40 -4.5 59.5t-46.5 19.5z" />
    <glyph glyph-name="X_T" unicode="XT" horiz-adv-x="1607" 
d="M819 1391h1075l-69 -279h-31l23 96q17 63 -16.5 107.5t-96.5 44.5h-72q-46 0 -82.5 -31t-54.5 -98l-266 -1071q-18 -66 3 -97.5t68 -31.5l-8 -29h-340l9 29q46 0 82.5 31t52.5 98l268 1071q16 67 -5 98t-67 31h-297q-63 0 -119 -44.5t-71 -107.5l-25 -96h-30zM686 723
l98 -567q19 -125 117 -125l-8 -29h-340l8 29q27 0 49 15.5t29 45.5q8 34 0 68l-80 471l-346 -471q-32 -43 -39 -74q-7 -28 5.5 -41.5t37.5 -13.5l-8 -29h-209l8 29q78 0 162 119l381 518l-94 569q-22 123 -117 123l6 31h340l-6 -31q-28 0 -50.5 -15.5t-29.5 -46.5
q-6 -27 0 -67l80 -471l207 280q30 46 39 74q6 28 -7 41.5t-38 13.5l8 29h209l-8 -29q-79 0 -162 -118z" />
    <glyph glyph-name="Y_T" unicode="YT" horiz-adv-x="1507" 
d="M872 1169l9 29h209l-9 -29q-74 0 -176 -129l-170 -219l-166 -661q-16 -67 5 -98t67 -31l-8 -29h-340l8 29q46 0 82.5 31t52.5 98l158 626l-125 445q-21 68 -53 98.5t-76 30.5l6 31h340l-6 -31q-57 0 -68 -51q-9 -26 4 -74l109 -383l147 192q37 45 43 74q11 51 -43 51z
M807 1391h985l-70 -279h-30l24 96q15 63 -18 107.5t-96 44.5h-72q-46 0 -82.5 -31t-52.5 -98l-269 -1071q-16 -67 5 -98t69 -31l-8 -29h-340l8 29q46 0 82.5 31t52.5 98l267 1071q18 66 -3.5 97.5t-68.5 31.5h-209q-63 0 -118 -44.5t-72 -107.5l-23 -96h-31z" />
    <glyph glyph-name=".notdef" horiz-adv-x="61" 
 />
    <glyph glyph-name=".null" horiz-adv-x="0" 
 />
    <glyph glyph-name="nonmarkingreturn" horiz-adv-x="682" 
 />
    <glyph glyph-name="space" unicode=" " horiz-adv-x="409" 
 />
    <glyph glyph-name="space" unicode="&#xa0;" horiz-adv-x="409" 
 />
    <glyph glyph-name="exclam" unicode="!" horiz-adv-x="194" 
d="M100 133q28 0 42 -18.5t8 -46.5t-30 -47t-52 -19t-42.5 19t-7.5 47q6 27 30 46t52 19zM154 283h-31l223 1101h131z" />
    <glyph glyph-name="quotedbl" unicode="&#x22;" horiz-adv-x="356" 
d="M412 1391q28 0 42 -19t7 -47q-11 -49 -43 -81.5t-66 -45.5l-4 12q22 13 27 29q4 16 -17 25q-17 6 -25 22.5t-3 38.5q8 28 31 47t51 19zM575 1391q28 0 42.5 -19t7.5 -47q-11 -49 -43 -81.5t-66 -45.5l-4 12q22 13 27 29q4 16 -17 25q-17 6 -25 22.5t-3 38.5q8 28 31 47
t50 19z" />
    <glyph glyph-name="numbersign" unicode="#" horiz-adv-x="1941" 
d="M2093 918h-510l-360 -443h508l-25 -31h-508l-360 -442h-35l360 442h-510l-360 -442h-35l360 442h-507l24 31h508l361 443h-508l24 30h510l361 443h34l-360 -443h508l360 443h35l-360 -443h510zM1188 475l360 443h-508l-362 -443h510z" />
    <glyph glyph-name="dollar" unicode="$" horiz-adv-x="823" 
d="M735 1366l-139 -557q46 -38 77 -65t64.5 -60t53.5 -59.5t38.5 -59t25.5 -63t7 -66t-10 -74.5q-28 -115 -102 -200.5t-165 -126.5t-186 -41h-6l-28 -115h-29l31 117q-38 3 -70.5 13.5t-59 27.5t-42 29t-35.5 32l-23 23q-11 8 -24 8q-29 0 -64 -35l-22 17l288 340l23 -17
l-76 -88q-35 -44 -47 -90q-21 -81 23 -149t135 -80l162 643q-98 82 -157.5 150t-88.5 144.5t-10 149.5q30 120 149 202.5t274 82.5h13l28 114h29l-29 -116q105 -8 224 -72q17 -10 30 -10q24 0 52 28l22 -16l-213 -250l-22 15l26 30q25 32 31 60q15 63 -31 117t-127 67z
M422 1165q-20 -82 22.5 -171.5t128.5 -162.5l134 537h-13q-99 0 -174 -59t-98 -144zM401 25h7q103 0 186 82t113 204q14 42 11 83t-12 72t-32.5 64t-49.5 60t-65 59z" />
    <glyph glyph-name="percent" unicode="%" horiz-adv-x="878" 
d="M35 2h-35l1128 1387h35zM698 535q66 0 93.5 -78.5t-0.5 -188.5t-94 -188t-132 -78q-65 0 -91.5 78t1.5 188t93.5 188.5t129.5 78.5zM569 12q44 0 94 75t76 181t13.5 181t-56.5 75t-94 -75t-76 -181q-27 -106 -14.5 -181t57.5 -75zM596 1391q66 0 93 -78.5t-1 -188.5
t-93.5 -188t-131.5 -78q-65 0 -91.5 78t1.5 188t93.5 188.5t129.5 78.5zM467 868q44 0 94 75t76 181t13.5 181t-56.5 75t-94 -75t-76 -181q-27 -106 -14.5 -181t57.5 -75z" />
    <glyph glyph-name="ampersand" unicode="&#x26;" horiz-adv-x="1024" 
d="M963 2h-132q25 103 0 209q-69 -94 -180 -155.5t-239 -61.5q-112 0 -192 64.5t-106.5 168.5t1.5 236q33 130 119 240t198 171q-58 128 -26 246q30 117 153 198t279 81q159 0 237 -89t43 -233h-131q16 58 13 110.5t-19 92.5t-55.5 64t-96.5 24q-111 0 -188.5 -74
t-103.5 -174q-12 -49 -1.5 -101t44 -111t66.5 -106.5t88 -121t87 -121.5l35 141h133l-76 -301q99 -206 50 -397zM768 344l4 18q-45 84 -160 235t-155 224q-71 -60 -126.5 -154t-82.5 -204q-28 -124 -17 -221t61.5 -157t127.5 -60q102 0 208 91.5t140 227.5z" />
    <glyph glyph-name="quotesingle" unicode="'" horiz-adv-x="192" 
d="M412 1391q28 0 42 -19t7 -47q-11 -49 -43 -81.5t-66 -45.5l-4 12q22 13 27 29q4 16 -17 25q-17 6 -25 22.5t-3 38.5q8 28 31 47t51 19z" />
    <glyph glyph-name="parenleft" unicode="(" horiz-adv-x="446" 
d="M754 1481l-9 -31q-71 0 -134 -54t-116.5 -157.5t-98.5 -235.5t-89 -307q-44 -174 -64.5 -307t-18 -235.5t39 -156.5t107.5 -54l-9 -29q-384 0 -188 782q196 785 580 785z" />
    <glyph glyph-name="parenright" unicode=")" horiz-adv-x="446" 
d="M-20 -86l6 29q71 0 134 53.5t117 157t100 235.5t89 307q43 174 63.5 307t17.5 236t-39 157t-106 54l9 31q382 0 186 -785q-192 -782 -577 -782z" />
    <glyph glyph-name="asterisk" unicode="*" horiz-adv-x="546" 
d="M786 1212l-247 -90l123 -184l-76 -47l-68 219l-176 -219l-51 47l213 184l-203 90l55 70l160 -137l33 246h80l-90 -246l229 137z" />
    <glyph glyph-name="plus" unicode="+" horiz-adv-x="563" 
d="M612 440l-8 -30h-235l-60 -236h-28l57 236h-236l9 30h235l60 236h28l-57 -236h235z" />
    <glyph glyph-name="comma" unicode="," horiz-adv-x="194" 
d="M100 133q27 0 42 -19t8 -46q-11 -49 -43.5 -81.5t-67.5 -45.5l-4 12q19 11 26 29q3 15 -14 24q-19 6 -27.5 23t-3.5 39q7 28 31.5 46.5t52.5 18.5z" />
    <glyph glyph-name="hyphenminus" unicode="-" horiz-adv-x="563" 
d="M612 440l-8 -30h-502l9 30h501z" />
    <glyph glyph-name="hyphenminus" unicode="&#xad;" horiz-adv-x="563" 
d="M612 440l-8 -30h-502l9 30h501z" />
    <glyph glyph-name="period" unicode="." horiz-adv-x="194" 
d="M100 133q28 0 42.5 -18.5t7.5 -46.5q-6 -28 -30 -47t-52 -19t-42.5 19t-7.5 47q6 27 30 46t52 19z" />
    <glyph glyph-name="slash" unicode="/" horiz-adv-x="880" 
d="M35 0h-35l1133 1393h34z" />
    <glyph glyph-name="zero" unicode="0" horiz-adv-x="888" 
d="M762 1399q113 0 185.5 -96t85.5 -252t-32 -355q-48 -191 -143.5 -352.5t-214 -255.5t-231.5 -94t-185.5 96t-85.5 252t33 354q47 191 142.5 353t214 256t231.5 94zM420 25q77 0 164 89.5t163 244t121 337.5t46 337.5t-41 244.5t-119 90t-164 -90t-163.5 -245t-121.5 -337
q-34 -137 -42.5 -261t7 -214t54.5 -143t96 -53z" />
    <glyph glyph-name="one" unicode="1" horiz-adv-x="532" 
d="M647 1391l-297 -1190q-15 -69 22.5 -118.5t106.5 -49.5l-8 -31h-471l8 31q70 0 132 49.5t79 118.5l248 987q32 129 -43 129q-29 0 -88 -23l-6 29l186 68h131z" />
    <glyph glyph-name="two" unicode="2" horiz-adv-x="847" 
d="M829 297l19 74h31l-93 -369h-786q25 101 83.5 196.5t133 173t160 152.5t170.5 145.5t157.5 140t127.5 149.5t75 161q12 63 4.5 118t-52.5 92.5t-120 37.5q-113 0 -192 -83t-111 -208h-133q37 144 160 233t282 89q155 0 239 -81t54 -198q-22 -89 -75.5 -171t-125 -148
t-154.5 -128.5t-171 -124t-167 -123t-150 -137.5t-113 -155h543q68 0 127.5 48t76.5 116z" />
    <glyph glyph-name="three" unicode="3" horiz-adv-x="876" 
d="M741 913q121 -42 174.5 -166t14.5 -284q-47 -193 -203 -331t-328 -138q-72 0 -131.5 21.5t-97 57t-62.5 81t-28 94t6 96.5h133q-35 -136 25.5 -227.5t163.5 -91.5q117 0 231 128t160 310q27 124 15.5 221t-62 157t-127.5 60h-90l8 31h90q95 0 178.5 64t106.5 155
q23 89 -29.5 153t-147.5 64t-178 -63.5t-106 -153.5h-131q26 103 150 175.5t274 72.5q151 0 238 -72.5t61 -175.5q-20 -82 -105.5 -147.5t-202.5 -90.5z" />
    <glyph glyph-name="four" unicode="4" horiz-adv-x="876" 
d="M813 406l-61 -244q-18 -66 3 -97.5t68 -31.5l-8 -31h-340l8 31q46 0 82.5 31t52.5 98l62 244h-578l9 30l815 955h133l-240 -955h105l-9 -30h-102zM145 436h543l223 897z" />
    <glyph glyph-name="five" unicode="5" horiz-adv-x="874" 
d="M391 1391h694l-92 -369h-30l18 74q17 67 -19 115.5t-104 48.5h-473l-166 -592q76 120 185 192t229 72q112 0 192 -64.5t106.5 -168.5t-1.5 -236q-50 -194 -206 -331.5t-327 -137.5q-72 0 -131.5 21.5t-96.5 57t-62 81t-27.5 94t6.5 96.5h131q-34 -137 26.5 -228
t162.5 -91q117 0 232 128.5t159 309.5q28 124 17 221t-61.5 157t-127.5 60q-112 0 -236.5 -112t-177.5 -271l-64 4z" />
    <glyph glyph-name="six" unicode="6" horiz-adv-x="888" 
d="M135 541q50 200 145.5 365.5t208.5 269t231.5 159.5t225.5 56l-8 -29q-121 0 -271 -142.5t-268 -365.5q124 78 248 78q112 0 192 -64.5t106.5 -168.5t-1.5 -236q-50 -194 -205.5 -331.5t-326.5 -137.5q-115 0 -192 65t-102 186.5t17 295.5zM248 463q-28 -124 -17 -221
t61.5 -157t127.5 -60q117 0 232 128.5t159 309.5q28 124 17 221t-61.5 157t-127.5 60q-284 0 -391 -438z" />
    <glyph glyph-name="seven" unicode="7" horiz-adv-x="847" 
d="M336 2h-131q30 122 108.5 257.5t180 262.5t204 247.5t204 252.5t157.5 238h-551q-67 0 -127.5 -48t-77.5 -116l-18 -74h-31l92 369h787q-25 -100 -75.5 -203.5t-113 -195t-133.5 -184.5t-143 -188.5t-135.5 -190.5t-116 -206t-80.5 -221z" />
    <glyph glyph-name="eight" unicode="8" horiz-adv-x="888" 
d="M719 772q123 -34 181.5 -140t25.5 -241q-41 -164 -191.5 -280.5t-320.5 -116.5q-172 0 -264.5 116.5t-51.5 280.5q33 135 145 241t253 140q-102 33 -151 116.5t-23 188.5q34 134 163 228t279 94q149 0 231.5 -94.5t48.5 -227.5q-26 -105 -116.5 -188.5t-208.5 -116.5z
M453 1077q-29 -120 16.5 -204.5t140.5 -84.5t183.5 84.5t119.5 204.5q31 121 -15.5 206t-141.5 85t-183.5 -85t-119.5 -206zM420 25q117 0 227 107t148 259q22 104 7 185.5t-68 131.5t-130 50q-117 0 -227 -107.5t-148 -259.5q-37 -152 18.5 -259t172.5 -107z" />
    <glyph glyph-name="nine" unicode="9" horiz-adv-x="888" 
d="M1036 844q-40 -161 -110 -301t-154 -239t-179.5 -170t-189 -105.5t-178.5 -34.5l8 31q122 0 271.5 141.5t269.5 365.5q-123 -77 -248 -77q-84 0 -152 36.5t-107 100t-51.5 148.5t13.5 182q31 128 113.5 236t193.5 170.5t224 62.5q178 0 259 -147t17 -400zM926 922
q27 125 15.5 222.5t-62 157.5t-127.5 60q-117 0 -231.5 -128.5t-160.5 -311.5q-27 -124 -15.5 -221.5t62.5 -157.5t128 -60q80 0 145 33.5t111 96t78.5 137.5t56.5 172z" />
    <glyph glyph-name="colon" unicode=":" horiz-adv-x="194" 
d="M141 299q28 0 42 -19t7 -47q-6 -28 -29.5 -46.5t-51.5 -18.5t-42.5 18.5t-7.5 46.5q6 28 30 47t52 19zM238 682q27 0 41 -19t8 -47q-6 -27 -30 -46t-52 -19t-42 18.5t-7 46.5q6 28 30 47t52 19z" />
    <glyph glyph-name="semicolon" unicode=";" horiz-adv-x="194" 
d="M238 682q27 0 41 -19t8 -47q-6 -27 -30.5 -46t-51.5 -19q-28 0 -42 18.5t-7 46.5q6 28 30 47t52 19zM141 299q27 0 41.5 -19.5t7.5 -46.5q-12 -51 -43.5 -82.5t-66.5 -44.5l-4 13q23 11 26 28t-14 25q-19 6 -27.5 22.5t-3.5 38.5q7 28 31.5 47t52.5 19z" />
    <glyph glyph-name="less" unicode="&#x3c;" horiz-adv-x="520" 
d="M106 426l502 229l8 -26l-444 -203l342 -205l-20 -26z" />
    <glyph glyph-name="equal" unicode="=" horiz-adv-x="524" 
d="M70 276l8 31h461l-7 -31h-462zM143 573h463l-8 -30h-463z" />
    <glyph glyph-name="greater" unicode="&#x3e;" horiz-adv-x="520" 
d="M565 426l-502 -231l-8 26l445 205l-342 203l20 26z" />
    <glyph glyph-name="question" unicode="?" horiz-adv-x="786" 
d="M870 1114q14 45 9 89t-22 79.5t-57.5 57.5t-97.5 22q-112 0 -192 -83.5t-111 -207.5h-131q35 142 159 231t284 89q155 0 237.5 -80t52.5 -197q-17 -69 -52.5 -131t-79.5 -111t-95 -97t-102.5 -99t-97.5 -106t-84.5 -129t-59.5 -158h-29q25 100 60 185t73 144t79 110.5
t80 95t73 86.5t61.5 96.5t42.5 113.5zM379 133q26 0 40.5 -18.5t8.5 -46.5q-7 -28 -31.5 -47t-50.5 -19q-28 0 -42.5 19t-8.5 47q7 28 31.5 46.5t52.5 18.5z" />
    <glyph glyph-name="at" unicode="@" horiz-adv-x="931" 
d="M987 528q-2 -21 -10 -69q-25 -94 -84 -156q-6 -10 -16 -16q-41 -40 -109.5 -68.5t-130.5 -28.5h-45q-12 0 -18 8.5t-3 20.5l7 27q-57 -60 -140 -60q-27 0 -52 5t-50 16.5t-36.5 36t-2.5 59.5q25 103 227 141q22 5 28.5 6.5t23.5 5.5t24 7t17.5 8.5t15.5 12t8 14.5
q17 82 3 115.5t-60 33.5q-38 0 -75 -31t-46 -71q-6 -21 0 -43l4 -15l-16 -10l-48 139l17 11q8 -19 22 -19q7 0 19 6q75 50 127 50q74 0 111 -40.5t14 -131.5l-54 -213q-5 -20 5.5 -35t29.5 -15q9 0 13 2q88 16 151 74q65 62 86 152q9 30 12 65q-2 133 -88.5 219t-226.5 86
q-110 0 -217 -53.5t-184.5 -146t-104.5 -201.5l-4 -23q-31 -153 51.5 -262t235.5 -118h20q106 0 211 51l15 -23q-112 -59 -232 -59q-118 0 -203.5 58t-118.5 158t-4 218q29 117 111.5 216.5t197 157.5t232.5 58q151 0 245.5 -93t94.5 -235q-2 -2 0 -2zM590 301l41 162
q-27 -19 -107 -35q-131 -26 -155 -125q-10 -47 10 -73.5t63 -26.5q51 0 95 29t53 69z" />
    <glyph glyph-name="A" unicode="A" 
d="M831 1391l-30 -1231q-3 -129 100 -129l-8 -29h-340l8 29q35 0 61.5 20t36.5 62q7 21 7 43l14 524h-258l-238 -526q-10 -18 -14 -41q-10 -41 4 -61.5t45 -20.5l-8 -29h-211l8 29q89 0 148 129l489 1079q8 16 12 39q22 82 -82 82h-22l6 31h272zM436 711h244l14 573z" />
    <glyph glyph-name="B" unicode="B" 
d="M735 856q167 -27 236 -144t30 -280q-46 -185 -201.5 -307.5t-371.5 -122.5h-428l8 29q46 0 82.5 31t54.5 98l267 1071q16 67 -5 98t-67 31l8 31h381q147 0 223.5 -81t46.5 -198q-22 -86 -93 -155t-171 -101zM727 1360h-47q-46 0 -82.5 -31t-54.5 -98l-90 -369h151
q98 0 167 70.5t97 179.5q28 108 -7 178t-134 70zM868 432q23 83 19 156t-29 128t-80.5 86.5t-136.5 31.5h-197l-168 -674q-18 -66 3.5 -97.5t68.5 -31.5h92q159 0 271.5 113t156.5 288z" />
    <glyph glyph-name="C" unicode="C" horiz-adv-x="1019" 
d="M1182 1278q22 -27 37 -27q20 0 36 60h31l-108 -428h-31l10 35q23 89 7 170.5t-54 143.5t-95 99t-116 37q-115 0 -235 -90t-216 -245t-141 -337q-36 -139 -31.5 -261.5t37.5 -213.5t98.5 -143.5t151.5 -52.5q80 0 181.5 61.5t188 168t114.5 220.5l8 33h30l-106 -426h-31
q13 57 -8 57q-14 0 -49 -26q-173 -119 -336 -119q-113 0 -202.5 55t-139.5 150t-64 223t25 274q47 190 162 352t266.5 256.5t302.5 94.5q165 0 277 -121z" />
    <glyph glyph-name="D" unicode="D" horiz-adv-x="1097" 
d="M346 1391h402q136 0 235.5 -36t156 -98t82.5 -151t22 -190.5t-34 -219.5q-37 -150 -102.5 -272t-162.5 -218.5t-236 -150t-308 -53.5h-401l8 29q46 0 82.5 31t52.5 98l269 1071q16 67 -5 98t-67 31zM1079 696q28 113 35 210t-10.5 182t-60 144.5t-120 93.5t-184.5 34h-59
q-46 0 -82.5 -31t-54.5 -98l-267 -1071q-18 -66 3.5 -97.5t68.5 -31.5h60q133 0 245.5 51.5t194 144t138.5 209.5t93 260z" />
    <glyph glyph-name="E" unicode="E" horiz-adv-x="821" 
d="M348 1391h758l-70 -279h-30l24 96q15 63 -18.5 107.5t-96.5 44.5h-235q-46 0 -82.5 -31t-52.5 -98l-92 -369h77q57 0 106.5 41t63.5 98l19 68h31l-138 -551h-30l43 176q15 58 -15.5 99t-87.5 41h-78l-168 -674q-16 -67 5 -98t67 -31h135q104 0 197 75t119 179l30 123h31
l-100 -406h-758l6 29q46 0 82.5 31t54.5 98l267 1071q18 66 -3.5 97.5t-68.5 31.5z" />
    <glyph glyph-name="F" unicode="F" horiz-adv-x="819" 
d="M346 1391h758l-70 -279h-30l24 96q15 63 -18.5 107.5t-96.5 44.5h-235q-46 0 -82.5 -31t-52.5 -98l-92 -369h77q57 0 107 41t65 98l17 68h31l-138 -551h-30l45 176q13 58 -17.5 99t-87.5 41h-78l-168 -674q-16 -67 5 -98t67 -31l-6 -29h-340l6 29q103 0 137 129l267 1071
q18 66 -3.5 97.5t-68.5 31.5z" />
    <glyph glyph-name="G" unicode="G" horiz-adv-x="1019" 
d="M1180 1278q22 -27 37 -27q22 0 38 60h31l-108 -428h-31l10 35q23 89 7 170.5t-54 143.5t-95 99t-116 37q-116 0 -236.5 -90t-215.5 -244.5t-140 -337.5q-36 -139 -32 -261.5t37 -213.5t98.5 -143.5t152.5 -52.5q98 0 203 75.5t135 196.5l78 309q15 63 -18.5 108.5
t-96.5 45.5h-176l6 31h461l-197 -789h-30q25 104 -15 104q-16 0 -45 -16q-84 -48 -155.5 -72t-157.5 -24q-113 0 -202.5 55t-139.5 150t-64 223t25 274q47 190 162 352t266.5 256.5t302.5 94.5q166 0 275 -121z" />
    <glyph glyph-name="H" unicode="H" 
d="M893 1360l6 31h340l-6 -31q-46 0 -82.5 -31t-54.5 -98l-267 -1071q-18 -66 3.5 -97.5t68.5 -31.5l-8 -29h-340l8 29q46 0 82.5 31t52.5 98l168 674h-420l-168 -674q-16 -67 5 -98t67 -31l-8 -29h-340l8 29q46 0 82.5 31t54.5 98l267 1071q16 67 -5 98t-67 31l8 31h340
l-8 -31q-46 0 -82.5 -31t-54.5 -98l-90 -369h419l93 369q16 67 -5 98t-67 31z" />
    <glyph glyph-name="I" unicode="I" horiz-adv-x="401" 
d="M346 1391h340l-8 -31q-46 0 -82.5 -31t-52.5 -98l-267 -1071q-18 -66 3.5 -97.5t68.5 -31.5l-8 -29h-340l8 29q46 0 82.5 31t52.5 98l267 1071q18 66 -3.5 97.5t-68.5 31.5z" />
    <glyph glyph-name="J" unicode="J" horiz-adv-x="712" 
d="M657 1391h340l-6 -31q-46 0 -82.5 -31t-52.5 -98l-256 -1028q-24 -94 -111 -147.5t-178 -53.5q-42 0 -82.5 17t-59 32t-44.5 39q-12 12 -27 12q-26 0 -55 -32l-23 16l213 250l23 -14l-23 -29q-30 -32 -43 -80q-17 -70 22 -126t107 -56q104 0 136 129l268 1071
q16 67 -5 98t-67 31z" />
    <glyph glyph-name="K" unicode="K" horiz-adv-x="952" 
d="M623 774l157 -616q35 -127 119 -127l-8 -29h-340l8 29q27 0 48.5 14t27.5 41q8 27 -4 74l-119 471l-174 -223l-64 -248q-16 -66 5.5 -97.5t68.5 -31.5l-8 -29h-340l8 29q101 0 133 129l269 1071q16 67 -4 98t-66 31l6 31h340l-6 -31q-47 0 -84 -31.5t-53 -97.5l-189 -758
l594 758q38 50 45 80q7 25 -4 37t-33 12l7 31h211l-7 -31q-83 0 -178 -123z" />
    <glyph glyph-name="L" unicode="L" horiz-adv-x="821" 
d="M801 285l28 123h31l-100 -406h-758l6 29q46 0 82.5 31t54.5 98l267 1071q18 66 -3.5 97.5t-68.5 31.5l8 31h340l-8 -31q-46 0 -82.5 -31t-52.5 -98l-269 -1071q-16 -67 5 -98t67 -31h135q104 0 197 74.5t121 179.5z" />
    <glyph glyph-name="M" unicode="M" horiz-adv-x="1198" 
d="M1485 1391l-8 -31q-46 0 -83 -31t-55 -98l-266 -1071q-16 -67 5 -98t67 -31l-8 -29h-340l8 29q46 0 82.5 31t54.5 98l279 1120l-617 -1145l-69 -133h-62l-59 1178l-254 -1020q-16 -67 0.5 -98t56.5 -31l-8 -29h-209l8 29q40 0 72.5 31.5t48.5 97.5l268 1071q16 67 -1 98
t-58 31l8 31h195l61 -1203l645 1203h238z" />
    <glyph glyph-name="N" unicode="N" horiz-adv-x="952" 
d="M1028 1391h211l-8 -31q-40 0 -72.5 -31t-50.5 -98l-305 -1229h-31l-344 1239l-268 -1081q-18 -66 -0.5 -97.5t57.5 -31.5l-8 -29h-209l6 29q89 0 123 129l266 1071q18 66 0.5 97.5t-57.5 31.5l8 31h191l305 -1106l237 946q16 67 -1 98t-58 31z" />
    <glyph glyph-name="O" unicode="O" horiz-adv-x="1173" 
d="M905 1399q113 0 202.5 -55.5t139 -151t63.5 -223.5t-24 -273q-47 -191 -162 -353t-266.5 -255.5t-302.5 -93.5q-114 0 -204 55t-139.5 150t-63.5 223t24 274q48 191 163 352.5t266.5 256t303.5 94.5zM561 25q87 0 179 53t171 143t143.5 214t98.5 261q37 139 32.5 261.5
t-38 213.5t-99 144t-151.5 53q-116 0 -236.5 -90t-215.5 -244.5t-140 -337.5q-36 -139 -31.5 -261.5t37.5 -213.5t98.5 -143.5t151.5 -52.5z" />
    <glyph glyph-name="P" unicode="P" horiz-adv-x="952" 
d="M346 1391h551q148 0 225 -81t47 -198t-147 -197.5t-264 -80.5h-316l-168 -674q-16 -67 5 -98t67 -31l-6 -29h-340l6 29q46 0 82.5 31t54.5 98l267 1071q18 66 -3.5 97.5t-68.5 31.5zM1036 1112q28 109 -6.5 178.5t-132.5 69.5h-219q-46 0 -82.5 -31t-52.5 -98l-92 -369
h321q98 0 168 70.5t96 179.5z" />
    <glyph glyph-name="Q" unicode="Q" horiz-adv-x="1175" 
d="M563 -143q23 -33 88 -33q106 0 254 67l21 -122q-128 -25 -209 -25q-157 0 -201 80q-31 50 -12 131q12 38 14 41q-105 9 -187 67.5t-126.5 152.5t-55.5 217.5t25 262.5q47 190 162 352t266.5 256.5t302.5 94.5q113 0 203 -55.5t140 -151t64 -223.5t-24 -273
q-48 -191 -163.5 -353t-267 -255.5t-302.5 -93.5h-2l-2 -12q-20 -81 12 -125zM899 1368q-112 0 -229 -85t-211.5 -231t-143.5 -321q98 10 160 10q246 0 301 -118q26 -54 6 -144q-9 -40 -33.5 -94t-40 -82.5t-55.5 -99.5q-70 -119 -90 -178q87 0 179.5 53t172 143t144 214
t98.5 261q36 139 31.5 261.5t-37.5 213.5t-99 144t-153 53zM307 700v-4q-41 -180 -28.5 -324t79 -238t170.5 -107q19 43 99 186q3 6 10 18q96 173 115 250q19 73 -4 125q-52 105 -277 105q-80 0 -164 -11z" />
    <glyph glyph-name="R" unicode="R" horiz-adv-x="952" 
d="M924 545l-97 -385q-16 -67 5 -98t67 -31l-6 -29q-28 0 -52.5 3t-51.5 11t-44.5 22.5t-31.5 36.5t-14 53t8 73l84 344q11 43 16.5 74t7 67t-9 60.5t-30.5 45.5t-58 31.5t-92 10.5h-183l-168 -674q-16 -67 5 -98t69 -31l-8 -29h-340l8 29q101 0 135 129l267 1071
q18 66 -3.5 97.5t-68.5 31.5l8 31h551q148 0 225 -81t47 -198q-26 -105 -126 -183t-230 -93q167 -65 111 -291zM543 1231l-92 -369h321q98 0 168 70.5t96 179.5q28 109 -6.5 178.5t-132.5 69.5h-219q-46 0 -82.5 -31t-52.5 -98z" />
    <glyph glyph-name="S" unicode="S" horiz-adv-x="823" 
d="M584 821q49 -40 80 -67t67 -62t56.5 -61.5t40 -60t27 -65t7.5 -68t-10 -75.5q-28 -116 -102 -201.5t-165 -126t-186 -40.5q-37 0 -71.5 7.5t-57.5 17t-48 26t-36.5 27t-29 27.5t-21.5 20q-8 8 -22 8q-31 0 -64 -33l-22 15l288 340l23 -15l-76 -90q-34 -39 -47 -90
q-23 -89 31 -159t162 -70q103 0 186 82t113 204q10 38 11 72t-7 64.5t-21.5 57t-36.5 53t-48 50t-60 51.5q-155 128 -224 236.5t-42 218.5q30 120 149 202.5t274 82.5q134 0 265 -76q13 -8 28 -8q29 0 54 28l22 -16l-213 -250l-22 15l24 28q23 29 33 62q19 71 -41.5 128.5
t-155.5 57.5q-101 0 -176 -59t-96 -144t24 -177t136 -167z" />
    <glyph glyph-name="T" unicode="T" horiz-adv-x="911" 
d="M348 1391h848l-70 -279h-30l24 96q15 63 -18 107.5t-96 44.5h-72q-46 0 -82.5 -31t-52.5 -98l-269 -1071q-16 -67 5 -98t67 -31l-6 -29h-340l6 29q46 0 82.5 31t54.5 98l267 1071q18 66 -3.5 97.5t-68.5 31.5h-72q-63 0 -118 -44.5t-72 -107.5l-23 -96h-30z" />
    <glyph glyph-name="U" unicode="U" 
d="M1022 1360l8 31h209l-8 -31q-40 0 -72.5 -31.5t-48.5 -97.5l-231 -932q-32 -123 -141.5 -210t-233.5 -87q-58 0 -105 8t-88.5 25t-69.5 47t-44 72t-15.5 101.5t19.5 133.5l211 842q16 67 -5 98t-67 31l6 31h340l-6 -31q-46 0 -82.5 -31t-54.5 -98l-221 -885
q-40 -166 14.5 -240.5t175.5 -74.5q110 0 209 79t127 189l231 932q18 66 0.5 97.5t-57.5 31.5z" />
    <glyph glyph-name="V" unicode="V" 
d="M1022 1360l6 31h211l-6 -31q-91 0 -150 -129l-557 -1229h-120l32 1229q3 129 -98 129l6 31h340l-6 -31q-36 0 -63 -20t-37 -62q-3 -8 -7 -43l-28 -1126l512 1130q3 8 8 21.5t6 17.5q10 41 -4 61.5t-45 20.5z" />
    <glyph glyph-name="W" unicode="W" horiz-adv-x="1456" 
d="M1532 1391h209l-6 -31q-92 0 -148 -129l-557 -1229h-121l23 893l-404 -893h-120l32 1229q0 129 -100 129l6 31h340l-6 -31q-35 0 -62.5 -20.5t-37.5 -61.5q-3 -8 -7 -43l-28 -1126l389 860l8 262q0 129 -100 129l6 31h340l-6 -31q-35 0 -63 -21t-38 -63q-1 -6 -6 -41
l-28 -1126l512 1130q13 34 14 41q10 41 -3.5 60.5t-43.5 19.5z" />
    <glyph glyph-name="X" unicode="X" 
d="M1239 1391l-6 -31q-79 0 -166 -117l-381 -520l98 -567q19 -125 117 -125l-8 -29h-340l8 29q27 0 49 15.5t29 45.5q8 34 0 68l-80 471l-346 -471q-32 -43 -39 -74q-7 -28 6 -41.5t39 -13.5l-8 -29h-211l8 29q78 0 164 119l381 518l-96 569q-22 123 -117 123l6 31h340
l-6 -31q-28 0 -49.5 -15.5t-30.5 -46.5q-6 -27 0 -67l82 -471l344 471q30 40 41 74q6 28 -7 41.5t-38 13.5l6 31h211z" />
    <glyph glyph-name="Y" unicode="Y" 
d="M1022 1360l6 31h211l-6 -31q-79 0 -178 -129l-322 -410l-166 -661q-16 -66 5.5 -97.5t68.5 -31.5l-8 -29h-340l8 29q46 0 82.5 31t52.5 98l158 626l-127 445q-37 129 -127 129l6 31h340l-6 -31q-56 0 -70 -51q-7 -31 4 -74l111 -383l297 383q34 42 41 74q7 26 -5 38.5
t-36 12.5z" />
    <glyph glyph-name="Z" unicode="Z" horiz-adv-x="819" 
d="M279 1112l69 279h756l-8 -31l-942 -1329h327q104 0 198 75t120 179l30 123h29l-100 -406h-758l8 29l944 1329h-430q-63 0 -119 -44.5t-71 -107.5l-25 -96h-28z" />
    <glyph glyph-name="bracketleft" unicode="[" horiz-adv-x="352" 
d="M651 1450h-157l-377 -1507h159l-8 -29h-291l392 1567h290z" />
    <glyph glyph-name="backslash" unicode="\" horiz-adv-x="880" 
d="M784 0l-438 1393h35l440 -1393h-37z" />
    <glyph glyph-name="bracketright" unicode="]" horiz-adv-x="352" 
d="M-14 -57h157l377 1507h-160l9 31h290l-391 -1567h-291z" />
    <glyph glyph-name="asciicircum" unicode="^" horiz-adv-x="362" 
d="M592 1174h-27l-78 176l-165 -176h-29l176 217h57z" />
    <glyph glyph-name="underscore" unicode="_" horiz-adv-x="651" 
d="M598 33l-8 -31h-590l8 31h590z" />
    <glyph glyph-name="grave" unicode="`" horiz-adv-x="292" 
d="M403 1391l121 -217h-26l-152 217h57z" />
    <glyph glyph-name="a" unicode="a" horiz-adv-x="829" 
d="M799 543l-97 -383q-16 -66 5.5 -97.5t68.5 -31.5l-8 -31h-184q-21 0 -32.5 15t-6.5 36l12 51q-47 -52 -113 -80t-139 -28q-32 0 -61.5 3t-64.5 11.5t-60 23.5t-47 39t-25.5 57.5t4.5 78.5q15 59 61 105t114 75t119.5 44t117.5 28q64 13 97.5 21.5t68 28t43.5 46.5
q62 270 -103 270q-68 0 -135 -56t-84 -126q-12 -42 2 -78l8 -30l-30 -15l-86 250l30 16q13 -30 39 -30q16 0 31 12q43 26 65.5 39t74 31t94.5 18q62 0 108.5 -15t82.5 -51.5t42.5 -96.5t-12.5 -150zM313 25q91 0 171.5 52t97.5 122l73 295q-50 -38 -194 -64
q-51 -11 -91 -26.5t-79.5 -41.5t-67.5 -66t-41 -93q-21 -83 16 -130.5t115 -47.5z" />
    <glyph glyph-name="b" unicode="b" horiz-adv-x="786" 
d="M625 854h12q124 -8 181 -130.5t13 -299.5q-44 -178 -164 -304t-245 -126q-104 0 -164 92l-8 -35q-4 -20 -24 -35.5t-40 -15.5h-186l8 31q46 0 82.5 31t52.5 98l267 1061q18 75 -29 75q-13 0 -49 -12l-4 29l217 76q4 2 10 2q11 0 18.5 -8.5t4.5 -18.5l-156 -627
q96 117 203 117zM430 25q69 0 148 117t120 282q41 166 20.5 280.5t-89.5 120.5h-6q-72 0 -143.5 -69.5t-92.5 -153.5l-43 -178q-25 -108 -22.5 -196.5t32 -145.5t76.5 -57z" />
    <glyph glyph-name="c" unicode="c" horiz-adv-x="753" 
d="M371 70q37 -13 75 -13q53 0 108 19t95 53l17 -20q-134 -115 -287 -115q-104 0 -178 58.5t-97.5 154t2.5 217.5q44 179 187 305.5t301 126.5q43 0 84 -17.5t58.5 -32t43.5 -38.5q15 -12 29 -12q22 0 55 30l21 -16l-213 -250l-23 15l27 30q30 37 39 76q18 70 -21 127
t-108 57q-103 0 -205 -117.5t-143 -283.5q-33 -132 8 -226.5t125 -127.5z" />
    <glyph glyph-name="d" unicode="d" horiz-adv-x="784" 
d="M958 1364l-301 -1204q-16 -66 5.5 -97.5t68.5 -31.5l-8 -31h-184q-21 0 -32.5 15t-6.5 36l16 62q-101 -119 -205 -119h-12q-123 9 -180 131.5t-13 298.5q44 179 163 305.5t245 126.5q105 0 164 -94l115 459q18 75 -31 75q-13 0 -49 -12l-2 29l217 76q4 2 10 2
q11 0 17 -8.5t3 -18.5zM549 248l45 176q24 108 21 197t-33 146.5t-76 57.5q-70 0 -148.5 -117.5t-119.5 -283.5t-21.5 -280t90.5 -119h10q69 0 140 70.5t92 152.5z" />
    <glyph glyph-name="e" unicode="e" horiz-adv-x="743" 
d="M492 440l-265 -82q-11 -108 30.5 -183t115.5 -105q33 -13 73 -13q53 0 108 19t97 53l17 -20q-134 -115 -289 -115q-104 0 -178 58.5t-97.5 154t2.5 217.5q44 179 187 305.5t301 126.5q105 0 168 -42.5t63 -111.5l-6 -36q-10 -40 -41 -75.5t-79.5 -63t-96.5 -47.5
t-110 -40zM229 389l256 80q83 26 141.5 80t73.5 117l5 12q10 65 -17.5 106t-101.5 41q-103 0 -204 -117.5t-142 -283.5z" />
    <glyph glyph-name="f" unicode="f" horiz-adv-x="632" 
d="M537 1210l-91 -362h226l-8 -31h-226l-164 -657q-16 -66 5.5 -97.5t68.5 -31.5l-8 -31h-340l8 31q46 0 82.5 31t52.5 98l164 657h-104l8 31h104l80 315q17 68 56.5 117.5t88 73.5t89.5 34.5t76 10.5q63 0 122 -27q12 -6 23 -6q21 0 43 25l20 -17l-211 -250l-22 15l25 28
q50 59 63 111q9 42 -9.5 66t-62.5 24q-50 0 -94.5 -40t-64.5 -118z" />
    <glyph glyph-name="g" unicode="g" horiz-adv-x="770" 
d="M455 6q120 -27 169.5 -87t24.5 -161q-19 -74 -66 -134t-105.5 -95t-118 -53.5t-111.5 -18.5q-255 0 -318 260l131 60q3 -76 23 -139t64.5 -106.5t107.5 -43.5q90 0 162 53.5t96 120.5l4 12t4 15q20 83 -29 129t-178 78q-114 26 -160.5 54t-45.5 85q0 10 4 26
q22 82 141 191q-70 42 -100 118t-7 165q34 132 156.5 226.5t263.5 94.5q28 0 68 -8q42 76 103 119t132 43q34 0 78 -13l-84 -127q-58 25 -98 25q-72 0 -102 -53q98 -31 144 -116t19 -191q-34 -134 -156 -228t-263 -94q-69 0 -127 25q-55 -58 -62 -101q-4 -16 -4 -18
q2 -57 229 -110q7 -2 11 -3zM559 825q-86 0 -167.5 -85t-112.5 -205q-29 -121 11 -206t126 -85t167.5 84.5t112.5 206.5q29 120 -11 205t-126 85z" />
    <glyph glyph-name="h" unicode="h" horiz-adv-x="876" 
d="M850 557l-100 -397q-16 -66 5 -97.5t68 -31.5l-8 -31h-340l8 31q101 0 133 129l109 430q28 123 2.5 179t-100.5 56q-74 0 -147 -69t-95 -154l-111 -442q-16 -66 5.5 -97.5t68.5 -31.5l-8 -31h-340l8 31q46 0 82.5 31t52.5 98l267 1061q18 75 -31 75q-13 0 -49 -12l-2 29
l217 76q4 2 10 2q11 0 17 -8.5t3 -18.5l-155 -627q101 119 217 119q127 0 187.5 -80.5t25.5 -218.5z" />
    <glyph glyph-name="i" unicode="i" horiz-adv-x="401" 
d="M440 819l-166 -659q-16 -66 5.5 -97.5t68.5 -31.5l-8 -31h-340l8 31q46 0 82.5 31t52.5 98l131 518q19 76 -30 76q-10 0 -49 -13l-2 29l217 76q4 2 10 2q11 0 17 -8.5t3 -20.5zM428 1032q-37 0 -56 25.5t-10 60.5q9 37 40.5 62.5t68.5 25.5q36 0 55.5 -26t10.5 -62
q-9 -35 -41.5 -60.5t-67.5 -25.5z" />
    <glyph glyph-name="j" unicode="j" horiz-adv-x="401" 
d="M426 1032q-35 0 -55 25.5t-11 60.5q9 37 41.5 62.5t69.5 25.5q35 0 54.5 -25.5t11.5 -62.5q-9 -35 -41.5 -60.5t-69.5 -25.5zM193 770l217 76q4 2 8 2q11 0 18 -8.5t4 -20.5l-280 -1126q-17 -68 -57.5 -117.5t-89.5 -73.5t-90 -34.5t-75 -10.5q-65 0 -124 27q-9 6 -21 6
q-21 0 -43 -25l-22 17l210 250l25 -15l-25 -28q-49 -58 -63 -111q-11 -41 8.5 -65.5t63.5 -24.5q50 0 94 40.5t63 117.5l258 1032q19 76 -28 76q-10 0 -49 -13z" />
    <glyph glyph-name="k" unicode="k" horiz-adv-x="874" 
d="M543 489l143 -337q55 -121 135 -121l-8 -31h-340l8 31q47 0 58 41q7 36 -17 88l-94 221l-129 -125l-25 -96q-16 -66 5.5 -97.5t68.5 -31.5l-8 -31h-340l8 31q101 0 133 129l267 1061q18 75 -29 75q-13 0 -49 -12l-2 29l217 76q4 2 10 2q11 0 17 -8.5t3 -18.5l-264 -1059
l400 383q59 59 65 90q11 39 -35 39l9 31h211l-9 -31q-69 0 -196 -121z" />
    <glyph glyph-name="l" unicode="l" horiz-adv-x="401" 
d="M575 1364l-301 -1204q-16 -66 5.5 -97.5t68.5 -31.5l-8 -31h-340l8 31q101 0 133 129l267 1061q18 75 -29 75q-13 0 -49 -12l-2 29l217 76q4 2 10 2q9 0 16 -8.5t4 -18.5z" />
    <glyph glyph-name="m" unicode="m" horiz-adv-x="1196" 
d="M1192 637l-121 -477q-16 -67 5 -98t67 -31l-8 -31h-340l8 31q46 0 82.5 31t52.5 98l129 512q20 88 10 120.5t-51 32.5q-74 0 -147 -69t-95 -154l-110 -442q-16 -67 4.5 -98t66.5 -31l-8 -31h-340l9 31q46 0 82.5 31t52.5 98l129 512q20 88 10 120.5t-51 32.5
q-74 0 -147 -69t-95 -154l-111 -442q-16 -67 5 -98t67 -31l-8 -31h-340l8 31q46 0 82.5 31t52.5 98l131 518q19 76 -28 76q-10 0 -49 -13l-4 29l217 76q4 2 10 2q11 0 18 -8.5t4 -20.5l-20 -82q101 119 215 119q66 0 113.5 -34t50.5 -105q112 139 233 139q38 0 70.5 -11.5
t59 -37.5t33.5 -67.5t-5 -102.5z" />
    <glyph glyph-name="n" unicode="n" horiz-adv-x="876" 
d="M850 557l-100 -397q-16 -66 5 -97.5t68 -31.5l-8 -31h-340l8 31q46 0 82.5 31t52.5 98l109 430q28 123 1.5 179t-99.5 56q-74 0 -147 -69t-95 -154l-111 -442q-16 -67 5 -98t67 -31l-8 -31h-340l8 31q46 0 82.5 31t52.5 98l131 518q19 76 -28 76q-10 0 -49 -13l-4 29
l217 76q4 2 10 2q11 0 18 -8.5t4 -20.5l-20 -82q101 119 215 119q127 0 187.5 -80.5t25.5 -218.5z" />
    <glyph glyph-name="o" unicode="o" horiz-adv-x="823" 
d="M594 856q104 0 178 -59t98 -155t-2 -218q-44 -178 -187.5 -304t-301.5 -126q-157 0 -237 126t-36 304t187.5 305t300.5 127zM387 25q103 0 205 116.5t143 282.5q25 113 16.5 202t-52.5 144t-111 55q-104 0 -206.5 -117.5t-143.5 -283.5q-25 -113 -16 -201.5t53.5 -143
t111.5 -54.5z" />
    <glyph glyph-name="p" unicode="p" horiz-adv-x="786" 
d="M625 854h12q124 -8 181 -130.5t13 -299.5q-44 -178 -164 -304t-245 -126q-106 0 -166 92l-117 -469q-16 -66 5.5 -97.5t68.5 -31.5l-8 -31h-340l8 31q46 0 82.5 31t52.5 98l266 1061q19 76 -30 76q-10 0 -49 -13l-2 29l217 76q4 2 10 2q11 0 17 -8.5t3 -20.5l-20 -82
q100 117 205 117zM430 25q69 0 148 117t120 282q41 166 20.5 280.5t-89.5 120.5h-6q-72 0 -144.5 -69.5t-93.5 -153.5l-43 -178q-25 -108 -22 -196.5t33 -145.5t77 -57z" />
    <glyph glyph-name="q" unicode="q" horiz-adv-x="786" 
d="M825 819l-301 -1202q-16 -66 5.5 -97.5t68.5 -31.5l-8 -31h-340l8 31q101 0 133 129l125 496q-101 -119 -205 -119h-12q-123 9 -180 131.5t-13 298.5q44 179 164 305.5t244 126.5q102 0 170 -68l111 58q4 2 8 2q11 0 18 -8.5t4 -20.5zM549 248l45 176q24 108 21.5 197
t-32.5 146.5t-77 57.5q-69 0 -147 -117.5t-119 -283.5t-21.5 -280t88.5 -119h10q70 0 140.5 70.5t91.5 152.5z" />
    <glyph glyph-name="r" unicode="r" horiz-adv-x="702" 
d="M848 831l-213 -249l-21 14l23 29q51 59 63 110q11 42 -8 66t-63 24q-74 0 -148 -69t-96 -154l-111 -442q-16 -66 5.5 -97.5t68.5 -31.5l-8 -31h-340l8 31q46 0 82.5 31t52.5 98l131 518q19 76 -30 76q-10 0 -49 -13l-2 29l217 76q4 2 10 2q11 0 17 -8.5t3 -20.5l-20 -82
q104 119 217 119q28 0 48.5 -4t43 -12.5t31.5 -10.5q12 -6 24 -6q19 0 41 25z" />
    <glyph glyph-name="s" unicode="s" horiz-adv-x="698" 
d="M442 500q36 -12 64 -23t56.5 -23.5t48 -25t39 -28t29 -31t18.5 -35.5t7 -41t-6 -47q-27 -106 -131.5 -179t-234.5 -73q-103 0 -215 65q-15 9 -31 9q-24 0 -51 -27l-21 14l211 252l21 -16l-23 -29q-27 -35 -35 -65q-17 -67 30.5 -119.5t121.5 -52.5q75 0 135.5 49
t79.5 121q16 64 -25 101.5t-122 63.5q-69 23 -114.5 44t-85.5 51t-54 68.5t-2 86.5q27 104 126 175t228 71q35 0 62.5 -3.5t50.5 -12.5t35 -14.5t32 -18.5t25 -16q18 -9 30 -9q28 0 54 29l22 -16l-215 -252l-20 16l24 29q33 44 41 78q18 64 -24.5 111.5t-124.5 47.5
q-75 0 -129 -46t-72 -117q-16 -61 24 -97.5t121 -64.5z" />
    <glyph glyph-name="t" unicode="t" horiz-adv-x="552" 
d="M512 184l20 -16q-72 -83 -107 -112q-75 -62 -149 -62h-18q-74 7 -99.5 64.5t-0.5 156.5l149 602h-104l8 31q63 0 109.5 17.5t76 52.5t47 73t31.5 92l23 95h30l-82 -330h175l-9 -31h-174l-153 -616q-15 -74 -0.5 -106.5t53.5 -37.5h10q57 0 164 127z" />
    <glyph glyph-name="u" unicode="u" horiz-adv-x="876" 
d="M915 819l-165 -659q-16 -66 5 -97.5t68 -31.5l-8 -31h-237l28 113q-104 -119 -217 -119q-127 0 -187.5 79.5t-25.5 217.5l98 387q19 76 -30 76q-10 0 -49 -13l-2 29l217 76q4 2 10 2q11 0 17 -8.5t3 -20.5l-141 -561q-28 -123 -2 -178t100 -55t147.5 69t94.5 154l109 430
q19 76 -29 76q-10 0 -49 -13l-2 29l217 76q4 2 10 2q11 0 17 -8.5t3 -20.5z" />
    <glyph glyph-name="v" unicode="v" horiz-adv-x="806" 
d="M748 848h208l-8 -31q-78 0 -145 -129l-365 -688h-106l-25 688q-5 129 -104 129l8 31h340l-8 -31q-33 0 -59 -19t-35 -57q-7 -25 -7 -49l23 -581l307 581q20 39 23 51q8 37 -8 55.5t-48 18.5z" />
    <glyph glyph-name="w" unicode="w" horiz-adv-x="1214" 
d="M1153 848h211l-8 -31q-79 0 -146 -129l-364 -688h-107l-18 530l-281 -530h-106l-27 688q-5 129 -104 129l8 31h340l-8 -31q-32 0 -58 -19t-36 -57q-5 -35 -5 -49l21 -581l252 475l-2 102q-8 129 -107 129l8 31h340l-8 -31q-32 0 -58 -19t-36 -57q-4 -28 -4 -49l22 -581
l308 581q12 22 20 49q10 38 -6 57t-49 19z" />
    <glyph glyph-name="x" unicode="x" horiz-adv-x="808" 
d="M958 848l-8 -31q-78 0 -176 -121l-219 -276l74 -264q35 -125 127 -125l-8 -31h-340l8 31q53 0 67 51q7 35 -6 78l-65 235l-189 -235q-35 -46 -45 -80q-11 -49 41 -49l-8 -31h-211l8 31q78 0 176 123l219 274l-73 264q-35 125 -127 125l8 31h340l-8 -31q-54 0 -68 -51
q-7 -35 6 -78l64 -235l190 235q33 41 45 80q11 49 -41 49l9 31h210z" />
    <glyph glyph-name="y" unicode="y" horiz-adv-x="770" 
d="M913 819l-272 -1089q-18 -70 -57 -124.5t-88.5 -85.5t-100.5 -47t-100 -16q-31 0 -61.5 9t-47.5 18.5t-42 26.5t-33 22q-13 8 -29 8q-29 0 -51 -28l-23 16l211 252l23 -17l-25 -28q-30 -38 -39 -74q-17 -67 21.5 -120.5t103.5 -53.5q63 0 116.5 44t76.5 136l110 445
q-104 -119 -217 -119q-129 0 -189.5 79.5t-25.5 217.5l98 387q19 76 -28 76q-10 0 -49 -13l-2 29l217 76q4 2 8 2q11 0 18 -8.5t4 -20.5l-141 -561q-58 -233 98 -233q74 0 147.5 69t94.5 154l109 430q19 76 -31 76q-10 0 -49 -13l-2 29l217 76q4 2 10 2q11 0 17 -8.5
t3 -20.5z" />
    <glyph glyph-name="z" unicode="z" horiz-adv-x="653" 
d="M803 848l-6 -31l-639 -786h157q105 0 198.5 74.5t119.5 179.5l31 123h30l-102 -408h-592l6 31l639 786h-260q-63 0 -118 -44t-72 -107l-23 -97h-31l70 279h592z" />
    <glyph glyph-name="braceleft" unicode="{" horiz-adv-x="413" 
d="M453 1038q-18 -73 -49 -128t-62 -84.5t-60.5 -51t-50.5 -40t-26 -38.5t7.5 -39.5t31.5 -38t35 -52.5t19.5 -83t-15.5 -129q-17 -69 -27.5 -119t-16.5 -99.5t-3.5 -82.5t13.5 -59t33 -38.5t56 -12.5l-8 -29q-145 0 -186.5 109.5t14.5 326.5q22 88 26.5 149.5t-3 83.5
t-11 53.5t3.5 59.5q8 31 26 59.5t37.5 53t45.5 85t47 148.5q56 221 151.5 330t239.5 109l-8 -31q-40 0 -73.5 -19.5t-59 -51.5t-48.5 -87t-40.5 -113t-38.5 -141z" />
    <glyph glyph-name="bar" unicode="|" horiz-adv-x="90" 
d="M31 2h-31l346 1389h31z" />
    <glyph glyph-name="braceright" unicode="}" horiz-adv-x="413" 
d="M246 354q18 73 49 128t62.5 84.5t61 51t51 40t26.5 38.5t-7.5 39.5t-31.5 38t-35 52.5t-19.5 83t15.5 129q17 69 27.5 119.5t16.5 100t3 82.5t-13.5 59t-33 38.5t-56.5 12.5l7 31q146 0 187.5 -110.5t-15.5 -328.5q-18 -72 -23.5 -126t-1.5 -79t8 -51t7 -41t-5 -49
q-8 -31 -26 -59.5t-37 -53t-45.5 -85t-48.5 -148.5q-55 -219 -149.5 -327.5t-239.5 -108.5l6 29q41 0 74.5 19.5t58.5 51.5t48.5 86.5t40.5 112t38 141.5z" />
    <glyph glyph-name="asciitilde" unicode="~" horiz-adv-x="505" 
d="M442 430q28 3 117 29q-75 -68 -176 -68h-6q-34 3 -62 17q-35 14 -77 14q-44 0 -138 -21q79 58 172 58q26 0 47 -6q10 -2 34.5 -12t37.5 -11q4 0 12.5 -1t12.5 -1t13 1t13 1z" />
    <glyph glyph-name="exclamdown" unicode="&#xa1;" horiz-adv-x="192" 
d="M156 360q-28 0 -42.5 19t-7.5 47q6 27 30.5 46.5t51.5 19.5q28 0 43 -20t7 -46q-6 -28 -30 -47t-52 -19zM102 209h31l-223 -1100h-133z" />
    <glyph glyph-name="cent" unicode="&#xa2;" horiz-adv-x="1019" 
d="M1178 883h-31l10 35q27 111 -4.5 216.5t-99.5 168t-146 65.5l-336 -1343q126 5 279.5 143.5t196.5 306.5l8 35h30l-106 -428h-31q13 59 -8 59q-9 0 -51 -26q-169 -118 -326 -121l-28 -115h-31l28 115q-108 6 -192.5 63t-131.5 151.5t-59 220t25 267.5q46 186 157 345.5
t258 255t294 102.5l28 114h31l-29 -114q154 -3 267 -119q22 -27 37 -27q22 0 38 58h31zM305 696q-42 -183 -27.5 -329t85 -239.5t178.5 -102.5l333 1343q-171 -14 -336.5 -208.5t-232.5 -463.5z" />
    <glyph glyph-name="sterling" unicode="&#xa3;" horiz-adv-x="819" 
d="M829 408h31l-102 -406h-758l8 31q46 0 82.5 31t52.5 98l129 520h-102l6 31h105l118 475q15 60 48 102.5t75.5 63t81.5 29t82 8.5h330l-70 -279h-31l25 96q15 63 -18.5 108.5t-96.5 45.5h-147q-104 -4 -135 -129l-131 -520h163l-6 -31h-163l-132 -520q-16 -67 5 -98
t69 -31h133q105 0 198.5 74.5t119.5 179.5z" />
    <glyph glyph-name="currency" unicode="&#xa4;" horiz-adv-x="438" 
d="M524 592l-75 -62q25 -48 10 -104q-12 -58 -64 -107l45 -61l-26 -20l-45 59q-58 -39 -117 -39q-57 0 -96 39l-74 -59l-19 20l78 61q-27 47 -12 107q16 60 66 104l-48 62l29 20l43 -59q53 39 117 39q60 0 96 -39l76 59zM379 340q38 35 51 86q13 47 -8 84l-8 10q-2 4 -8 10
q-31 31 -78 31q-45 0 -90 -31q-4 -1 -17 -10q-2 -1 -5.5 -4.5t-6.5 -5.5q-38 -38 -51 -84q-10 -49 8 -86l8 -10q1 -1 4.5 -5.5t5.5 -5.5q31 -28 76 -28q47 0 92 28q8 4 15 11q2 2 6 5t6 5z" />
    <glyph glyph-name="yen" unicode="&#xa5;" 
d="M1028 1391h211l-6 -29q-76 0 -178 -129l-320 -412l-82 -325h133l-6 -31h-133l-22 -90h133l-8 -31h-134l-45 -182q-18 -66 3 -97.5t67 -31.5l-8 -31h-340l8 31q46 0 82.5 31t54.5 98l45 182h-133l8 31h134l22 90h-133l6 31h133l74 290l-125 447q-37 129 -129 129l6 29h340
l-6 -29q-57 0 -68 -51q-7 -31 4 -76l109 -383l299 385q35 47 41 74q6 26 -6.5 38.5t-36.5 12.5z" />
    <glyph glyph-name="brokenbar" unicode="&#xa6;" horiz-adv-x="92" 
d="M231 803h-30l147 588h31zM31 2h-29l145 588h31z" />
    <glyph glyph-name="section" unicode="&#xa7;" horiz-adv-x="700" 
d="M444 500q74 -24 122 -46t85.5 -52t49 -68.5t-0.5 -87.5q-27 -106 -131.5 -179t-234.5 -73q-93 0 -215 65q-15 9 -31 9q-24 0 -51 -27l-23 16l213 250l21 -16l-23 -29q-27 -35 -35 -65q-17 -67 30.5 -119.5t121.5 -52.5q75 0 135.5 49.5t79.5 122.5q8 34 0 60.5t-32 46
t-50 32.5t-65 26q-66 21 -112 41.5t-84.5 49t-54 64.5t-7.5 81l-2 2h2q0 8 2 12q15 65 63.5 120t118.5 87l47 19q56 18 125 18q105 0 180 -49q-12 33 -48 55t-95 43q-68 22 -114.5 43.5t-86.5 51t-54 68.5t-1 87q25 103 124.5 173.5t229.5 70.5q34 0 62.5 -4t51 -12.5
t34.5 -14.5t32 -19t25 -16q16 -8 31 -8q27 0 53 29l22 -17l-215 -250l-20 15l24 28q33 44 41 78q15 66 -26 113t-121 47q-75 0 -130 -47t-73 -117q-16 -61 24.5 -97.5t121.5 -64.5q74 -24 122 -46t85.5 -52t49 -68.5t-0.5 -87.5q-19 -72 -75 -130.5t-136 -90.5
q-5 -2 -35 -12q-58 -18 -121 -18q-78 0 -152 34q32 -39 127 -71zM500 825q-60 0 -113 -29.5t-65 -74.5q-15 -61 35 -107.5t120 -46.5q53 0 105 22.5t61 55.5q18 73 -19 126.5t-124 53.5z" />
    <glyph glyph-name="dieresis" unicode="&#xa8;" horiz-adv-x="397" 
d="M401 1348q28 0 43 -19t9 -47q-7 -28 -31.5 -46.5t-52.5 -18.5q-27 0 -41.5 19t-8.5 46q7 28 31.5 47t50.5 19zM606 1348q26 0 40.5 -19t8.5 -47q-7 -28 -31.5 -46.5t-52.5 -18.5q-26 0 -40.5 18.5t-8.5 46.5q7 28 31.5 47t52.5 19z" />
    <glyph glyph-name="copyright" unicode="&#xa9;" horiz-adv-x="927" 
d="M717 758l12 16q16 19 23 43q11 39 -10.5 71t-59.5 32q-57 0 -113.5 -65.5t-79.5 -158.5q-19 -72 4 -124.5t70 -71.5q15 -6 41 -6q69 0 113 38l8 -12q-73 -63 -158 -63q-88 0 -132 70.5t-19 168.5q25 100 103.5 170t166.5 70q11 0 21 -1.5t19 -5.5t16 -7t15.5 -9t12.5 -9
t12 -9.5t9 -7.5q6 -6 14 -6q16 0 29 16l12 -8l-117 -139zM715 1130q118 0 203 -58t118 -158t4 -218t-112 -218t-197 -158t-231 -58q-118 0 -204 58t-119 158t-3 218q29 118 111.5 218t197 158t232.5 58zM506 293q167 0 315 118.5t189 284.5q41 167 -47 285.5t-254 118.5
q-167 0 -315 -118.5t-191 -285.5q-22 -83 -7 -156.5t55 -128t107 -86.5t148 -32z" />
    <glyph glyph-name="ordfeminine" unicode="&#xaa;" horiz-adv-x="307" 
d="M535 1292l-31 -123q-8 -41 22 -41l-2 -10h-59q-16 0 -12 17l4 16q-30 -35 -80 -35q-38 0 -64.5 15t-17.5 53q5 19 19.5 33.5t37 24t37.5 14.5t37 10q23 4 32 6t20.5 8.5t15.5 15.5q20 86 -33 86q-22 0 -44 -18t-26 -41q-4 -8 0 -25l2 -10l-10 -4l-27 80l11 6
q3 -10 10 -10q4 0 12 4q47 27 74 27q42 0 64 -23t8 -76zM379 1126q29 0 54.5 16.5t31.5 39.5l22 94q-20 -14 -61 -21q-76 -16 -90 -71q-6 -27 6 -42.5t37 -15.5z" />
    <glyph glyph-name="guillemotleft" unicode="&#xab;" horiz-adv-x="901" 
d="M106 426l502 229l8 -26l-444 -203l342 -205l-20 -26zM487 426l502 229l8 -26l-444 -203l342 -205l-21 -26z" />
    <glyph glyph-name="logicalnot" unicode="&#xac;" horiz-adv-x="548" 
d="M608 483l-30 -116h-31l22 88h-456l8 28h487z" />
    <glyph glyph-name="registered" unicode="&#xae;" horiz-adv-x="929" 
d="M748 645l-33 -129q-11 -45 35 -45l-2 -10q-44 0 -71 15t-18 52l29 117q5 26 6 48t-20.5 36t-67.5 14h-80l-57 -227q-11 -45 35 -45l-2 -10h-152l4 10q48 0 56 45l90 361q11 45 -35 45l2 10h246q65 0 101.5 -27.5t25.5 -66.5q-8 -36 -50.5 -63.5t-99.5 -31.5
q75 -21 58 -98zM528 754h144q44 0 72 23.5t38 60.5q8 36 -9 60t-60 24h-97q-46 0 -57 -45zM715 1130q118 0 203.5 -58t118.5 -158t3 -218q-44 -180 -202 -307t-338 -127q-118 0 -203.5 58t-118.5 158t-4 218t112 218t197.5 158t231.5 58zM508 293q165 0 313 118.5t191 284.5
q41 167 -48 285.5t-255 118.5q-167 0 -315 -118.5t-189 -285.5q-41 -166 47.5 -284.5t255.5 -118.5z" />
    <glyph glyph-name="macron" unicode="&#xaf;" horiz-adv-x="284" 
d="M315 1268l9 28h223l-8 -28h-224z" />
    <glyph glyph-name="degree" unicode="&#xb0;" horiz-adv-x="241" 
d="M438 1395q37 0 55.5 -33.5t6.5 -79.5q-10 -46 -45 -79.5t-72 -33.5q-38 0 -56.5 33.5t-7.5 79.5q12 46 47 79.5t72 33.5zM434 1382q-25 0 -50.5 -29.5t-35.5 -70.5q-9 -41 1.5 -70.5t35.5 -29.5q26 0 51.5 29.5t34.5 70.5q11 41 0 70.5t-37 29.5z" />
    <glyph glyph-name="plusminus" unicode="&#xb1;" horiz-adv-x="563" 
d="M541 158l-9 -31h-501l8 31h502zM623 487l-9 -30h-235l-57 -236h-31l57 236h-233l6 30h235l60 236h30l-59 -236h236z" />
    <glyph glyph-name="twosuperior" unicode="&#xb2;" horiz-adv-x="215" 
d="M440 1176l4 14h7l-19 -72h-153q8 32 35.5 63.5t55.5 52t53.5 48.5t31.5 55q5 19 -2.5 33t-30.5 14q-22 0 -38 -16t-22 -41h-24q6 29 30.5 46.5t55.5 17.5q30 0 46.5 -16t10.5 -38q-7 -29 -32 -55.5t-53 -44t-58.5 -43.5t-44.5 -51h108q12 0 24 10t15 23z" />
    <glyph glyph-name="threesuperior" unicode="&#xb3;" horiz-adv-x="221" 
d="M424 1296q23 -8 33.5 -32.5t3.5 -55.5q-11 -38 -41 -65t-64 -27q-35 0 -51.5 21.5t-9.5 46.5h24q-6 -27 6 -44.5t33 -17.5q22 0 44.5 25.5t31.5 60.5t-1 60.5t-32 25.5h-18l2 6h16q19 0 36 12.5t20 30.5q5 17 -4.5 29t-28.5 12q-20 0 -36 -12t-21 -29h-25q4 20 28.5 34
t53.5 14q30 0 47 -14t12 -34q-10 -37 -59 -47z" />
    <glyph glyph-name="acute" unicode="&#xb4;" horiz-adv-x="292" 
d="M520 1391h58l-259 -217h-28z" />
    <glyph glyph-name="mu" unicode="&#xb5;" horiz-adv-x="876" 
d="M299 254q-30 -119 0 -174q27 -55 98 -55q79 0 148 69q73 70 94 154l109 430q15 64 -11 74q-6 2 -16 2q-22 0 -51 -13l-2 29l217 76q4 2 12 2t14 -6q8 -5 4 -23l-165 -659q-15 -72 6 -99q24 -30 67 -30l-8 -31h-237l28 113q-107 -119 -217 -119q-89 0 -145 39l-27 -109
q-18 -71 6 -98q22 -31 66 -31l-8 -31h-340l8 31q40 0 82 31q37 26 55 98l188 754q15 65 -10 74q-6 2 -16 2q-20 0 -53 -13l-2 29l217 76q4 2 12 2t14 -6q8 -5 4 -23z" />
    <glyph glyph-name="paragraph" unicode="&#xb6;" horiz-adv-x="768" 
d="M1053 1391l-9 -29h-143l-340 -1360h-31l340 1360h-59l-340 -1360h-31l222 883h-189q-105 0 -160.5 74.5t-29.5 179.5q26 104 118.5 178t198.5 74h453z" />
    <glyph glyph-name="periodcentered" unicode="&#xb7;" horiz-adv-x="614" 
d="M86 752q23 0 35 -16.5t6 -39.5t-26.5 -39t-43.5 -16t-35.5 16t-7.5 39q6 23 27.5 39.5t44.5 16.5z" />
    <glyph glyph-name="periodcentered" unicode="&#x2219;" horiz-adv-x="614" 
d="M86 752q23 0 35 -16.5t6 -39.5t-26.5 -39t-43.5 -16t-35.5 16t-7.5 39q6 23 27.5 39.5t44.5 16.5z" />
    <glyph glyph-name="cedilla" unicode="&#xb8;" horiz-adv-x="219" 
d="M102 -80q1 -2 3.5 -10t3 -10.5t3 -9.5t3 -10.5t1.5 -10t1.5 -10.5t0.5 -10t-1 -11.5t-2 -11.5q-6 -26 -33.5 -44t-61.5 -18q-35 0 -52 20t-9 52l2 4h35l-2 -4q-12 -57 31 -57q20 0 35 14t20 33q7 30 -4 74q-13 73 0 129v4h14v-4q-12 -46 12 -109z" />
    <glyph glyph-name="onesuperior" unicode="&#xb9;" horiz-adv-x="153" 
d="M406 1391l-58 -234q-3 -14 4.5 -23.5t20.5 -9.5l-2 -6h-92l2 6q14 0 26 10t15 23l49 195q5 24 -11 24q-4 0 -16 -4v6l35 13h27z" />
    <glyph glyph-name="ordmasculine" unicode="&#xba;" horiz-adv-x="225" 
d="M428 1391q34 0 47.5 -40.5t-0.5 -97.5q-13 -57 -47 -97t-68 -40t-47.5 40t0.5 97q13 57 47 97.5t68 40.5zM362 1122q22 0 49 39t40 92q12 55 6 93t-29 38q-24 0 -50 -38.5t-38 -92.5q-14 -54 -7.5 -92.5t29.5 -38.5z" />
    <glyph glyph-name="guillemotright" unicode="&#xbb;" horiz-adv-x="901" 
d="M946 426l-502 -231l-8 26l445 205l-342 203l20 26zM565 426l-502 -231l-8 26l445 205l-342 203l20 26z" />
    <glyph glyph-name="onequarter" unicode="&#xbc;" horiz-adv-x="878" 
d="M35 2h-35l1128 1387h35zM604 1391l-112 -451q-6 -28 7.5 -47t39.5 -19l-2 -10h-179l2 10q27 0 50.5 19.5t29.5 46.5l95 375q13 49 -17 49q-9 0 -33 -8l-2 10l70 25h51zM598 158l-23 -92q-14 -50 27 -50l-2 -12h-131l4 12q40 0 51 50l23 92h-219l4 12l309 362h51l-92 -362
h41l-4 -12h-39zM344 170h207l84 340z" />
    <glyph glyph-name="onehalf" unicode="&#xbd;" horiz-adv-x="878" 
d="M35 2h-35l1128 1387h35zM604 1391l-112 -451q-6 -28 7.5 -47t39.5 -19l-2 -10h-179l2 10q27 0 51.5 19.5t30.5 46.5l95 375q13 49 -19 49q-9 0 -33 -8l-2 10l72 25h49zM725 117l6 28h12l-34 -141h-299q13 52 50 101t81.5 87.5t88.5 75t79 78.5t45 84q10 37 -6 65.5
t-58 28.5t-73 -32t-42 -78h-51q13 54 60.5 88.5t107.5 34.5q59 0 91.5 -31.5t21.5 -75.5q-11 -46 -45 -87.5t-78.5 -74t-89.5 -63.5t-87.5 -70t-64.5 -80h207q26 0 49 18t29 44z" />
    <glyph glyph-name="threequarters" unicode="&#xbe;" horiz-adv-x="878" 
d="M35 2h-35l1128 1387h35zM598 158l-23 -92q-11 -50 27 -50l-2 -12h-129l2 12q40 0 51 50l25 92h-219l2 12l309 362h51l-90 -362h39l-2 -12h-41zM346 170h205l86 340zM549 1206q45 -15 66 -63t6 -107q-19 -74 -78 -126t-125 -52t-98.5 42t-20.5 91h51q-13 -53 10 -88
t62 -35q43 0 86.5 49.5t60.5 118.5t-2 117.5t-63 48.5h-35l4 12h35q35 0 67 24t39 58q9 35 -10.5 59.5t-54.5 24.5q-37 0 -68.5 -24.5t-40.5 -59.5h-51q10 40 57.5 67.5t104.5 27.5t90.5 -27.5t24.5 -67.5q-7 -30 -40.5 -55.5t-76.5 -34.5z" />
    <glyph glyph-name="questiondown" unicode="&#xbf;" horiz-adv-x="784" 
d="M-23 -621q-9 -37 -9.5 -72t10 -67t31 -56t55.5 -38t81 -14q112 0 192.5 83t111.5 207h131q-35 -143 -159 -232t-284 -89q-155 0 -238 80.5t-55 197.5q17 68 53 130t80.5 111t95.5 97t102.5 99.5t97.5 106.5t84 128.5t59 157.5h30q-29 -115 -72.5 -211.5t-87.5 -157
t-93 -119.5t-89 -104t-75 -107t-52 -131zM469 360q-28 0 -42 19t-7 47q6 27 30.5 46.5t51.5 19.5q28 0 42.5 -20t6.5 -46q-6 -28 -30 -47t-52 -19z" />
    <glyph glyph-name="Agrave" unicode="&#xc0;" 
d="M831 1391l-30 -1231q-3 -129 100 -129l-8 -29h-340l8 29q35 0 61.5 20t36.5 62q7 21 7 43l14 524h-258l-238 -526q-10 -18 -14 -41q-10 -41 4 -61.5t45 -20.5l-8 -29h-211l8 29q89 0 148 129l489 1079q8 16 12 39q22 82 -82 82h-22l6 31h272zM436 711h244l14 573z
M584 1702l121 -217h-27l-152 217h58z" />
    <glyph glyph-name="Aacute" unicode="&#xc1;" 
d="M831 1391l-30 -1231q-3 -129 100 -129l-8 -29h-340l8 29q35 0 61.5 20t36.5 62q7 21 7 43l14 524h-258l-238 -526q-10 -18 -14 -41q-10 -41 4 -61.5t45 -20.5l-8 -29h-211l8 29q89 0 148 129l489 1079q8 16 12 39q22 82 -82 82h-22l6 31h272zM436 711h244l14 573z
M870 1706h58l-258 -217h-29z" />
    <glyph glyph-name="Acircumflex" unicode="&#xc2;" 
d="M831 1391l-30 -1231q-3 -129 100 -129l-8 -29h-340l8 29q35 0 61.5 20t36.5 62q7 21 7 43l14 524h-258l-238 -526q-10 -18 -14 -41q-10 -41 4 -61.5t45 -20.5l-8 -29h-211l8 29q89 0 148 129l489 1079q8 16 12 39q22 82 -82 82h-22l6 31h272zM436 711h244l14 573z
M823 1491h-26l-78 176l-166 -176h-29l176 217h58z" />
    <glyph glyph-name="Atilde" unicode="&#xc3;" 
d="M831 1391l-30 -1231q-3 -129 100 -129l-8 -29h-340l8 29q35 0 61.5 20t36.5 62q7 21 7 43l14 524h-258l-238 -526q-10 -18 -14 -41q-10 -41 4 -61.5t45 -20.5l-8 -29h-211l8 29q89 0 148 129l489 1079q8 16 12 39q22 82 -82 82h-22l6 31h272zM436 711h244l14 573z
M795 1524q30 5 86 30q-62 -69 -133 -69h-5q-23 3 -45 14q-22 14 -55 14q-38 0 -102 -22q59 59 133 59q21 0 31 -4q6 -2 24 -11.5t29 -10.5q2 0 7.5 -1t8.5 -1t10 1t11 1z" />
    <glyph glyph-name="Adieresis" unicode="&#xc4;" 
d="M831 1391l-30 -1231q-3 -129 100 -129l-8 -29h-340l8 29q35 0 61.5 20t36.5 62q7 21 7 43l14 524h-258l-238 -526q-10 -18 -14 -41q-10 -41 4 -61.5t45 -20.5l-8 -29h-211l8 29q89 0 148 129l489 1079q8 16 12 39q22 82 -82 82h-22l6 31h272zM436 711h244l14 573z
M627 1610q28 0 42.5 -19t8.5 -47q-7 -28 -31.5 -46.5t-52.5 -18.5q-26 0 -40.5 18.5t-8.5 46.5q7 28 31.5 47t50.5 19zM831 1610q26 0 41 -19t9 -47q-7 -28 -31.5 -46.5t-52.5 -18.5q-26 0 -40.5 18.5t-8.5 46.5q8 28 31.5 47t51.5 19z" />
    <glyph glyph-name="Aring" unicode="&#xc5;" 
d="M831 1391l-30 -1231q-3 -129 100 -129l-8 -29h-340l8 29q35 0 61.5 20t36.5 62q7 21 7 43l14 524h-258l-238 -526q-10 -18 -14 -41q-10 -41 4 -61.5t45 -20.5l-8 -29h-211l8 29q89 0 148 129l489 1079q8 16 12 39q22 82 -82 82h-22l6 31h272zM436 711h244l14 573z
M743 1710q37 0 55.5 -33.5t6.5 -79.5q-10 -46 -45 -79t-72 -33q-38 0 -56 33t-7 79q12 46 46.5 79.5t71.5 33.5zM739 1698q-25 0 -50 -30t-36 -71q-9 -41 1.5 -70.5t35.5 -29.5q26 0 51.5 29.5t34.5 70.5q11 41 0 71t-37 30z" />
    <glyph glyph-name="AE" unicode="&#xc6;" horiz-adv-x="1335" 
d="M436 711h246l12 573zM817 795l109 436q18 72 -6 100q-26 29 -66 29l6 31h758l-70 -279h-30l24 96q14 62 -16 109q-34 43 -96 43h-236q-42 0 -82 -29q-36 -26 -55 -100l-92 -369h77q57 0 107 41q50 38 65 98l17 68h31l-138 -551h-30l45 176q12 60 -17 99q-30 41 -88 41
h-78l-168 -674q-15 -71 7 -99q24 -30 67 -30h133q109 0 199 75q92 74 119 179l30 123h31l-102 -406h-758l8 29q42 0 80 30q40 26 55 99l9 33l14 487h-258l-238 -526q-11 -22 -14 -41q-10 -37 2 -58q12 -24 47 -24l-8 -29h-211l8 29q38 0 78 30q39 26 70 99l489 1079
q9 17 12 37q6 22 2 55q-6 29 -84 29h-22l6 31h272z" />
    <glyph glyph-name="Ccedilla" unicode="&#xc7;" horiz-adv-x="1019" 
d="M524 -6q-204 15 -311 207q-112 206 -39 495q70 290 287 498q214 205 444 205q90 0 162 -35q65 -33 115 -86v-2q12 -12 24 -21q8 -4 11 -4q7 0 16 9q10 5 22 51h31l-108 -428h-31l10 35q28 126 -4 221q-35 103 -104 166t-150 63q-177 0 -350 -197q-175 -200 -242 -475
q-70 -277 4 -475q76 -196 252 -196q82 0 182 63q102 61 187 166q85 102 115 221l8 33h30l-106 -426h-31q9 46 2 53q-3 6 -10 6t-18 -8q-8 -4 -29 -18q-2 0 -2 -2q-65 -47 -158 -84q-87 -35 -178 -35h-16q0 -29 2 -43q5 -24 16 -49q3 -8 14 -45q4 -25 -2 -50q-6 -24 -34 -43
q-27 -18 -60 -18q-70 0 -61 72v4h35v-4q-6 -21 0 -39q6 -19 30 -19q20 0 37 17q14 18 19 30q8 36 -5 74q-7 29 -10 56q-3 19 4 57z" />
    <glyph glyph-name="Egrave" unicode="&#xc8;" horiz-adv-x="821" 
d="M348 1391h758l-70 -279h-30l24 96q15 63 -18.5 107.5t-96.5 44.5h-235q-46 0 -82.5 -31t-52.5 -98l-92 -369h77q57 0 106.5 41t63.5 98l19 68h31l-138 -551h-30l43 176q15 58 -15.5 99t-87.5 41h-78l-168 -674q-16 -67 5 -98t67 -31h135q104 0 197 75t119 179l30 123h31
l-100 -406h-758l6 29q46 0 82.5 31t54.5 98l267 1071q18 66 -3.5 97.5t-68.5 31.5zM594 1716l121 -217h-27l-151 217h57z" />
    <glyph glyph-name="Eacute" unicode="&#xc9;" horiz-adv-x="821" 
d="M348 1391h758l-70 -279h-30l24 96q15 63 -18.5 107.5t-96.5 44.5h-235q-46 0 -82.5 -31t-52.5 -98l-92 -369h77q57 0 106.5 41t63.5 98l19 68h31l-138 -551h-30l43 176q15 58 -15.5 99t-87.5 41h-78l-168 -674q-16 -67 5 -98t67 -31h135q104 0 197 75t119 179l30 123h31
l-100 -406h-758l6 29q46 0 82.5 31t54.5 98l267 1071q18 66 -3.5 97.5t-68.5 31.5zM897 1720h57l-258 -217h-28z" />
    <glyph glyph-name="Ecircumflex" unicode="&#xca;" horiz-adv-x="821" 
d="M348 1391h758l-70 -279h-30l24 96q15 63 -18.5 107.5t-96.5 44.5h-235q-46 0 -82.5 -31t-52.5 -98l-92 -369h77q57 0 106.5 41t63.5 98l19 68h31l-138 -551h-30l43 176q15 58 -15.5 99t-87.5 41h-78l-168 -674q-16 -67 5 -98t67 -31h135q104 0 197 75t119 179l30 123h31
l-100 -406h-758l6 29q46 0 82.5 31t54.5 98l267 1071q18 66 -3.5 97.5t-68.5 31.5zM827 1481h-26l-78 176l-166 -176h-29l177 217h57z" />
    <glyph glyph-name="Edieresis" unicode="&#xcb;" horiz-adv-x="821" 
d="M348 1391h758l-70 -279h-30l24 96q15 63 -18.5 107.5t-96.5 44.5h-235q-46 0 -82.5 -31t-52.5 -98l-92 -369h77q57 0 106.5 41t63.5 98l19 68h31l-138 -551h-30l43 176q15 58 -15.5 99t-87.5 41h-78l-168 -674q-16 -67 5 -98t67 -31h135q104 0 197 75t119 179l30 123h31
l-100 -406h-758l6 29q46 0 82.5 31t54.5 98l267 1071q18 66 -3.5 97.5t-68.5 31.5zM610 1606q28 0 43 -19t9 -47q-7 -28 -31.5 -46.5t-52.5 -18.5q-27 0 -41.5 19t-8.5 46q7 28 31.5 47t50.5 19zM815 1606q26 0 40.5 -19t8.5 -47q-7 -28 -31.5 -46.5t-52.5 -18.5
q-26 0 -40.5 18.5t-8.5 46.5q7 28 31.5 47t52.5 19z" />
    <glyph glyph-name="Igrave" unicode="&#xcc;" horiz-adv-x="401" 
d="M346 1391h340l-8 -31q-46 0 -82.5 -31t-52.5 -98l-267 -1071q-18 -66 3.5 -97.5t68.5 -31.5l-8 -29h-340l8 29q46 0 82.5 31t52.5 98l267 1071q18 66 -3.5 97.5t-68.5 31.5zM362 1710l121 -217h-26l-152 217h57z" />
    <glyph glyph-name="Iacute" unicode="&#xcd;" horiz-adv-x="401" 
d="M346 1391h340l-8 -31q-46 0 -82.5 -31t-52.5 -98l-267 -1071q-18 -66 3.5 -97.5t68.5 -31.5l-8 -29h-340l8 29q46 0 82.5 31t52.5 98l267 1071q18 66 -3.5 97.5t-68.5 31.5zM678 1704h57l-258 -217h-28z" />
    <glyph glyph-name="Icircumflex" unicode="&#xce;" horiz-adv-x="401" 
d="M346 1391h340l-8 -31q-46 0 -82.5 -31t-52.5 -98l-267 -1071q-18 -66 3.5 -97.5t68.5 -31.5l-8 -29h-340l8 29q46 0 82.5 31t52.5 98l267 1071q18 66 -3.5 97.5t-68.5 31.5zM610 1481h-26l-78 176l-166 -176h-29l176 217h58z" />
    <glyph glyph-name="Idieresis" unicode="&#xcf;" horiz-adv-x="401" 
d="M346 1391h340l-8 -31q-46 0 -82.5 -31t-52.5 -98l-267 -1071q-18 -66 3.5 -97.5t68.5 -31.5l-8 -29h-340l8 29q46 0 82.5 31t52.5 98l267 1071q18 66 -3.5 97.5t-68.5 31.5zM403 1595q28 0 43 -18.5t9 -46.5q-7 -28 -31.5 -47t-52.5 -19q-26 0 -40.5 19t-8.5 47
q7 28 31 46.5t50 18.5zM608 1595q26 0 40.5 -18.5t8.5 -46.5q-7 -28 -31.5 -47t-52.5 -19q-26 0 -40.5 19t-8.5 47q7 28 31.5 46.5t52.5 18.5z" />
    <glyph glyph-name="Eth" unicode="&#xd0;" horiz-adv-x="1097" 
d="M406 680l-132 -520q-15 -71 7 -99q24 -30 67 -30h60q180 0 317 90q130 87 221 241q88 154 133 334q46 178 33 334q-12 151 -100 242q-88 88 -273 88h-59q-42 0 -82 -29q-36 -26 -55 -100l-129 -520h217l-8 -31h-217zM283 711l129 520q18 72 -6 100q-26 29 -66 29l6 31
h399q232 0 351 -93q118 -93 139 -251q21 -161 -25 -351q-51 -201 -149 -350q-105 -161 -264 -250q-163 -94 -398 -94h-399l8 29q43 0 80 30q40 26 55 99l131 520h-153l8 31h154z" />
    <glyph glyph-name="Ntilde" unicode="&#xd1;" horiz-adv-x="952" 
d="M1028 1391h211l-8 -31q-40 0 -72.5 -31t-50.5 -98l-305 -1229h-31l-344 1239l-268 -1081q-18 -66 -0.5 -97.5t57.5 -31.5l-8 -29h-209l6 29q89 0 123 129l266 1071q18 66 0.5 97.5t-57.5 31.5l8 31h191l305 -1106l237 946q16 67 -1 98t-58 31zM848 1528q27 4 86 31
q-63 -70 -133 -70h-4q-23 3 -45 14q-24 15 -56 15q-35 0 -102 -23q59 59 133 59q21 0 31 -4q6 -2 24 -11.5t29 -10.5q2 0 7.5 -1t8.5 -1t10 1t11 1z" />
    <glyph glyph-name="Ograve" unicode="&#xd2;" horiz-adv-x="1173" 
d="M905 1399q113 0 202.5 -55.5t139 -151t63.5 -223.5t-24 -273q-47 -191 -162 -353t-266.5 -255.5t-302.5 -93.5q-114 0 -204 55t-139.5 150t-63.5 223t24 274q48 191 163 352.5t266.5 256t303.5 94.5zM561 25q87 0 179 53t171 143t143.5 214t98.5 261q37 139 32.5 261.5
t-38 213.5t-99 144t-151.5 53q-116 0 -236.5 -90t-215.5 -244.5t-140 -337.5q-36 -139 -31.5 -261.5t37.5 -213.5t98.5 -143.5t151.5 -52.5zM733 1710l121 -217h-27l-151 217h57z" />
    <glyph glyph-name="Oacute" unicode="&#xd3;" horiz-adv-x="1173" 
d="M905 1399q113 0 202.5 -55.5t139 -151t63.5 -223.5t-24 -273q-47 -191 -162 -353t-266.5 -255.5t-302.5 -93.5q-114 0 -204 55t-139.5 150t-63.5 223t24 274q48 191 163 352.5t266.5 256t303.5 94.5zM561 25q87 0 179 53t171 143t143.5 214t98.5 261q37 139 32.5 261.5
t-38 213.5t-99 144t-151.5 53q-116 0 -236.5 -90t-215.5 -244.5t-140 -337.5q-36 -139 -31.5 -261.5t37.5 -213.5t98.5 -143.5t151.5 -52.5zM1057 1696h57l-258 -217h-29z" />
    <glyph glyph-name="Ocircumflex" unicode="&#xd4;" horiz-adv-x="1173" 
d="M905 1399q113 0 202.5 -55.5t139 -151t63.5 -223.5t-24 -273q-47 -191 -162 -353t-266.5 -255.5t-302.5 -93.5q-114 0 -204 55t-139.5 150t-63.5 223t24 274q48 191 163 352.5t266.5 256t303.5 94.5zM561 25q87 0 179 53t171 143t143.5 214t98.5 261q37 139 32.5 261.5
t-38 213.5t-99 144t-151.5 53q-116 0 -236.5 -90t-215.5 -244.5t-140 -337.5q-36 -139 -31.5 -261.5t37.5 -213.5t98.5 -143.5t151.5 -52.5zM995 1468h-26l-78 177l-166 -177h-29l176 218h58z" />
    <glyph glyph-name="Otilde" unicode="&#xd5;" horiz-adv-x="1173" 
d="M905 1399q113 0 202.5 -55.5t139 -151t63.5 -223.5t-24 -273q-47 -191 -162 -353t-266.5 -255.5t-302.5 -93.5q-114 0 -204 55t-139.5 150t-63.5 223t24 274q48 191 163 352.5t266.5 256t303.5 94.5zM561 25q87 0 179 53t171 143t143.5 214t98.5 261q37 139 32.5 261.5
t-38 213.5t-99 144t-151.5 53q-116 0 -236.5 -90t-215.5 -244.5t-140 -337.5q-36 -139 -31.5 -261.5t37.5 -213.5t98.5 -143.5t151.5 -52.5zM950 1518q30 5 86 30q-62 -69 -133 -69h-4q-23 3 -45 14q-22 14 -55 14q-39 0 -103 -22q59 59 133 59q21 0 31 -4q6 -2 24 -11.5
t29 -10.5q2 0 8 -1t9 -1t9.5 1t10.5 1z" />
    <glyph glyph-name="Odieresis" unicode="&#xd6;" horiz-adv-x="1173" 
d="M905 1399q113 0 202.5 -55.5t139 -151t63.5 -223.5t-24 -273q-47 -191 -162 -353t-266.5 -255.5t-302.5 -93.5q-114 0 -204 55t-139.5 150t-63.5 223t24 274q48 191 163 352.5t266.5 256t303.5 94.5zM561 25q87 0 179 53t171 143t143.5 214t98.5 261q37 139 32.5 261.5
t-38 213.5t-99 144t-151.5 53q-116 0 -236.5 -90t-215.5 -244.5t-140 -337.5q-36 -139 -31.5 -261.5t37.5 -213.5t98.5 -143.5t151.5 -52.5zM788 1606q28 0 43 -19t9 -47q-7 -28 -31.5 -46.5t-52.5 -18.5q-26 0 -40.5 18.5t-8.5 46.5q7 28 31 47t50 19zM993 1606
q26 0 40.5 -19t8.5 -47q-7 -28 -31.5 -46.5t-52.5 -18.5q-26 0 -40.5 18.5t-8.5 46.5q7 28 31.5 47t52.5 19z" />
    <glyph glyph-name="multiply" unicode="&#xd7;" horiz-adv-x="436" 
d="M522 592l-207 -166l125 -168l-26 -20l-125 165l-209 -165l-17 20l209 168l-125 166l27 20l125 -166l207 166z" />
    <glyph glyph-name="Oslash" unicode="&#xd8;" horiz-adv-x="1173" 
d="M328 180q76 -155 233 -155q175 0 350 196q173 194 244 475q67 279 -6 475l-6 13zM1130 1210q-77 158 -233 158q-177 0 -350 -197q-175 -200 -242 -475q-70 -277 4 -475l6 -12zM254 135q-24 31 -41 66q-112 206 -39 495q70 290 287 498q211 205 442 205q179 0 283 -119
l94 113h35l-111 -136q15 -17 43 -63q110 -204 39 -498q-73 -290 -287 -495q-216 -207 -446 -207q-174 0 -281 119l-92 -113h-35z" />
    <glyph glyph-name="Ugrave" unicode="&#xd9;" 
d="M1022 1360l8 31h209l-8 -31q-40 0 -72.5 -31.5t-48.5 -97.5l-231 -932q-32 -123 -141.5 -210t-233.5 -87q-58 0 -105 8t-88.5 25t-69.5 47t-44 72t-15.5 101.5t19.5 133.5l211 842q16 67 -5 98t-67 31l6 31h340l-6 -31q-46 0 -82.5 -31t-54.5 -98l-221 -885
q-40 -166 14.5 -240.5t175.5 -74.5q110 0 209 79t127 189l231 932q18 66 0.5 97.5t-57.5 31.5zM680 1708l121 -217h-27l-151 217h57z" />
    <glyph glyph-name="Uacute" unicode="&#xda;" 
d="M1022 1360l8 31h209l-8 -31q-40 0 -72.5 -31.5t-48.5 -97.5l-231 -932q-32 -123 -141.5 -210t-233.5 -87q-58 0 -105 8t-88.5 25t-69.5 47t-44 72t-15.5 101.5t19.5 133.5l211 842q16 67 -5 98t-67 31l6 31h340l-6 -31q-46 0 -82.5 -31t-54.5 -98l-221 -885
q-40 -166 14.5 -240.5t175.5 -74.5q110 0 209 79t127 189l231 932q18 66 0.5 97.5t-57.5 31.5zM983 1698h57l-258 -217h-28z" />
    <glyph glyph-name="Ucircumflex" unicode="&#xdb;" 
d="M1022 1360l8 31h209l-8 -31q-40 0 -72.5 -31.5t-48.5 -97.5l-231 -932q-32 -123 -141.5 -210t-233.5 -87q-58 0 -105 8t-88.5 25t-69.5 47t-44 72t-15.5 101.5t19.5 133.5l211 842q16 67 -5 98t-67 31l6 31h340l-6 -31q-46 0 -82.5 -31t-54.5 -98l-221 -885
q-40 -166 14.5 -240.5t175.5 -74.5q110 0 209 79t127 189l231 932q18 66 0.5 97.5t-57.5 31.5zM928 1491h-27l-78 176l-166 -176h-28l176 217h57z" />
    <glyph glyph-name="Udieresis" unicode="&#xdc;" 
d="M1022 1360l8 31h209l-8 -31q-40 0 -72.5 -31.5t-48.5 -97.5l-231 -932q-32 -123 -141.5 -210t-233.5 -87q-58 0 -105 8t-88.5 25t-69.5 47t-44 72t-15.5 101.5t19.5 133.5l211 842q16 67 -5 98t-67 31l6 31h340l-6 -31q-46 0 -82.5 -31t-54.5 -98l-221 -885
q-40 -166 14.5 -240.5t175.5 -74.5q110 0 209 79t127 189l231 932q18 66 0.5 97.5t-57.5 31.5zM725 1608q28 0 42.5 -19t8.5 -47q-7 -28 -31.5 -46.5t-52.5 -18.5q-26 0 -40.5 18.5t-8.5 46.5q7 28 31.5 47t50.5 19zM930 1608q26 0 40.5 -19t8.5 -47q-7 -28 -31.5 -46.5
t-52.5 -18.5q-26 0 -40.5 18.5t-8.5 46.5q7 28 31.5 47t52.5 19z" />
    <glyph glyph-name="Yacute" unicode="&#xdd;" 
d="M1022 1360l6 31h211l-6 -31q-79 0 -178 -129l-322 -410l-166 -661q-16 -66 5.5 -97.5t68.5 -31.5l-8 -29h-340l8 29q46 0 82.5 31t52.5 98l158 626l-127 445q-37 129 -127 129l6 31h340l-6 -31q-56 0 -70 -51q-7 -31 4 -74l111 -383l297 383q34 42 41 74q7 26 -5 38.5
t-36 12.5zM983 1714h57l-258 -217h-28z" />
    <glyph glyph-name="Thorn" unicode="&#xde;" horiz-adv-x="952" 
d="M451 862h321q102 0 170 74q70 73 94 176q28 104 -6 176q-31 72 -133 72h-223q-38 0 -78 -29q-34 -24 -53 -100zM582 1391h315q149 0 225 -82q75 -84 45 -197q-27 -116 -143 -197q-115 -81 -266 -81h-316l-168 -674q-15 -71 7 -99q24 -30 67 -30l-8 -29h-340l8 29
q43 0 80 30q38 27 53 99l340 1351q15 66 -10 74q-4 2 -16 2q-25 0 -52 -12l-4 29l217 75q4 2 13 2q7 0 16 -6q8 -8 2 -22z" />
    <glyph glyph-name="germandbls" unicode="&#xdf;" 
d="M735 856q166 -27 235.5 -144.5t28.5 -279.5q-46 -185 -201.5 -307.5t-371.5 -122.5h-129l6 31h137q159 0 272 112t156 287q23 83 18.5 156t-29.5 128t-81 86.5t-137 31.5h-135l8 30h90q99 0 168.5 70t95.5 178q28 109 -6.5 179.5t-132.5 70.5h-49q-104 -4 -135 -129
l-307 -1231h-236l8 31q46 0 82.5 31t52.5 98l256 1026q15 60 48 102.5t75.5 63t82.5 29t83 8.5h41q146 0 223 -81t47 -198q-22 -86 -93 -155t-171 -101z" />
    <glyph glyph-name="agrave" unicode="&#xe0;" horiz-adv-x="829" 
d="M799 543l-97 -383q-16 -66 5.5 -97.5t68.5 -31.5l-8 -31h-184q-21 0 -32.5 15t-6.5 36l12 51q-47 -52 -113 -80t-139 -28q-32 0 -61.5 3t-64.5 11.5t-60 23.5t-47 39t-25.5 57.5t4.5 78.5q15 59 61 105t114 75t119.5 44t117.5 28q64 13 97.5 21.5t68 28t43.5 46.5
q62 270 -103 270q-68 0 -135 -56t-84 -126q-12 -42 2 -78l8 -30l-30 -15l-86 250l30 16q13 -30 39 -30q16 0 31 12q43 26 65.5 39t74 31t94.5 18q62 0 108.5 -15t82.5 -51.5t42.5 -96.5t-12.5 -150zM313 25q91 0 171.5 52t97.5 122l73 295q-50 -38 -194 -64
q-51 -11 -91 -26.5t-79.5 -41.5t-67.5 -66t-41 -93q-21 -83 16 -130.5t115 -47.5zM575 1176l121 -218h-26l-152 218h57z" />
    <glyph glyph-name="aacute" unicode="&#xe1;" horiz-adv-x="829" 
d="M799 543l-97 -383q-16 -66 5.5 -97.5t68.5 -31.5l-8 -31h-184q-21 0 -32.5 15t-6.5 36l12 51q-47 -52 -113 -80t-139 -28q-32 0 -61.5 3t-64.5 11.5t-60 23.5t-47 39t-25.5 57.5t4.5 78.5q15 59 61 105t114 75t119.5 44t117.5 28q64 13 97.5 21.5t68 28t43.5 46.5
q62 270 -103 270q-68 0 -135 -56t-84 -126q-12 -42 2 -78l8 -30l-30 -15l-86 250l30 16q13 -30 39 -30q16 0 31 12q43 26 65.5 39t74 31t94.5 18q62 0 108.5 -15t82.5 -51.5t42.5 -96.5t-12.5 -150zM313 25q91 0 171.5 52t97.5 122l73 295q-50 -38 -194 -64
q-51 -11 -91 -26.5t-79.5 -41.5t-67.5 -66t-41 -93q-21 -83 16 -130.5t115 -47.5zM897 1171h57l-258 -217h-28z" />
    <glyph glyph-name="acircumflex" unicode="&#xe2;" horiz-adv-x="829" 
d="M799 543l-97 -383q-16 -66 5.5 -97.5t68.5 -31.5l-8 -31h-184q-21 0 -32.5 15t-6.5 36l12 51q-47 -52 -113 -80t-139 -28q-32 0 -61.5 3t-64.5 11.5t-60 23.5t-47 39t-25.5 57.5t4.5 78.5q15 59 61 105t114 75t119.5 44t117.5 28q64 13 97.5 21.5t68 28t43.5 46.5
q62 270 -103 270q-68 0 -135 -56t-84 -126q-12 -42 2 -78l8 -30l-30 -15l-86 250l30 16q13 -30 39 -30q16 0 31 12q43 26 65.5 39t74 31t94.5 18q62 0 108.5 -15t82.5 -51.5t42.5 -96.5t-12.5 -150zM313 25q91 0 171.5 52t97.5 122l73 295q-50 -38 -194 -64
q-51 -11 -91 -26.5t-79.5 -41.5t-67.5 -66t-41 -93q-21 -83 16 -130.5t115 -47.5zM817 954h-26l-78 176l-166 -176h-29l176 217h58z" />
    <glyph glyph-name="atilde" unicode="&#xe3;" horiz-adv-x="829" 
d="M799 543l-97 -383q-16 -66 5.5 -97.5t68.5 -31.5l-8 -31h-184q-21 0 -32.5 15t-6.5 36l12 51q-47 -52 -113 -80t-139 -28q-32 0 -61.5 3t-64.5 11.5t-60 23.5t-47 39t-25.5 57.5t4.5 78.5q15 59 61 105t114 75t119.5 44t117.5 28q64 13 97.5 21.5t68 28t43.5 46.5
q62 270 -103 270q-68 0 -135 -56t-84 -126q-12 -42 2 -78l8 -30l-30 -15l-86 250l30 16q13 -30 39 -30q16 0 31 12q43 26 65.5 39t74 31t94.5 18q62 0 108.5 -15t82.5 -51.5t42.5 -96.5t-12.5 -150zM313 25q91 0 171.5 52t97.5 122l73 295q-50 -38 -194 -64
q-51 -11 -91 -26.5t-79.5 -41.5t-67.5 -66t-41 -93q-21 -83 16 -130.5t115 -47.5zM793 1004q30 5 86 30q-27 -30 -63.5 -49.5t-70.5 -19.5h-4q-23 3 -45 14q-22 14 -55 14q-38 0 -102 -22q59 59 133 59q20 0 30 -4q6 -2 24 -11.5t30 -10.5q2 0 7.5 -1.5t8.5 -1.5t10 1.5
t11 1.5z" />
    <glyph glyph-name="adieresis" unicode="&#xe4;" horiz-adv-x="829" 
d="M799 543l-97 -383q-16 -66 5.5 -97.5t68.5 -31.5l-8 -31h-184q-21 0 -32.5 15t-6.5 36l12 51q-47 -52 -113 -80t-139 -28q-32 0 -61.5 3t-64.5 11.5t-60 23.5t-47 39t-25.5 57.5t4.5 78.5q15 59 61 105t114 75t119.5 44t117.5 28q64 13 97.5 21.5t68 28t43.5 46.5
q62 270 -103 270q-68 0 -135 -56t-84 -126q-12 -42 2 -78l8 -30l-30 -15l-86 250l30 16q13 -30 39 -30q16 0 31 12q43 26 65.5 39t74 31t94.5 18q62 0 108.5 -15t82.5 -51.5t42.5 -96.5t-12.5 -150zM313 25q91 0 171.5 52t97.5 122l73 295q-50 -38 -194 -64
q-51 -11 -91 -26.5t-79.5 -41.5t-67.5 -66t-41 -93q-21 -83 16 -130.5t115 -47.5zM621 1075q28 0 42.5 -18.5t8.5 -46.5q-7 -28 -31.5 -47t-52.5 -19q-26 0 -40.5 19t-8.5 47q7 27 31 46t51 19zM825 1075q26 0 40.5 -18.5t8.5 -46.5q-8 -28 -31.5 -47t-51.5 -19
q-26 0 -41 19t-9 47q7 28 31.5 46.5t52.5 18.5z" />
    <glyph glyph-name="aring" unicode="&#xe5;" horiz-adv-x="829" 
d="M799 543l-97 -383q-16 -66 5.5 -97.5t68.5 -31.5l-8 -31h-184q-21 0 -32.5 15t-6.5 36l12 51q-47 -52 -113 -80t-139 -28q-32 0 -61.5 3t-64.5 11.5t-60 23.5t-47 39t-25.5 57.5t4.5 78.5q15 59 61 105t114 75t119.5 44t117.5 28q64 13 97.5 21.5t68 28t43.5 46.5
q62 270 -103 270q-68 0 -135 -56t-84 -126q-12 -42 2 -78l8 -30l-30 -15l-86 250l30 16q13 -30 39 -30q16 0 31 12q43 26 65.5 39t74 31t94.5 18q62 0 108.5 -15t82.5 -51.5t42.5 -96.5t-12.5 -150zM313 25q91 0 171.5 52t97.5 122l73 295q-50 -38 -194 -64
q-51 -11 -91 -26.5t-79.5 -41.5t-67.5 -66t-41 -93q-21 -83 16 -130.5t115 -47.5zM741 1161q37 0 55.5 -33t6.5 -79q-10 -46 -45 -79.5t-72 -33.5q-38 0 -56 33.5t-7 79.5q12 46 46.5 79t71.5 33zM737 1149q-25 0 -50.5 -29.5t-35.5 -70.5q-9 -42 1.5 -71.5t35.5 -29.5
q26 0 51.5 30t34.5 71q11 41 0 70.5t-37 29.5z" />
    <glyph glyph-name="ae" unicode="&#xe6;" horiz-adv-x="1282" 
d="M313 25q90 0 170 53q85 54 99 121l73 295q-78 -50 -194 -64q-55 -11 -119 -37q-58 -28 -98 -71q-45 -48 -62 -119q-21 -84 17 -131t114 -47zM770 389l254 80q182 65 217 205l2 4q9 59 -14 104q-24 43 -105 43q-101 0 -202 -116q-103 -118 -144 -285q-2 -8 -8 -35z
M809 709q4 3 12.5 10t12.5 10q142 127 299 127q105 0 167 -41q61 -43 64 -113q-4 -24 -6 -34q-18 -77 -111 -133q-89 -57 -217 -95l-264 -82q-12 -112 33 -188q44 -74 112 -100q37 -13 74 -13q33 0 84 11q58 9 121 61l16 -20q-136 -115 -288 -115q-82 0 -144 35l-6 -29h-184
q-23 0 -33 16q-9 12 -6 35l12 51q-108 -108 -252 -108q-53 0 -125 16q-67 15 -108 62q-42 45 -21 135q21 83 94 135q77 52 160 78q86 26 158 39q83 16 135 35q56 21 74 61q33 138 4 207q-26 63 -107 63q-89 0 -166 -86q-42 -48 -53 -94q-9 -42 2 -80l8 -30l-30 -15l-86 250
l30 16q9 -30 35 -30q17 0 35 12q4 0 6 2q40 27 99 57q66 29 129 29q73 0 139 -29q60 -26 88 -96q4 -12 4 -22zM696 96q3 -22 13 -35q19 -27 61 -30q-44 24 -74 65z" />
    <glyph glyph-name="ccedilla" unicode="&#xe7;" horiz-adv-x="753" 
d="M352 -4q-137 9 -209 125q-83 127 -37 303q43 176 187 305q145 127 301 127q66 0 113 -29q39 -25 71 -57l2 -2q15 -12 31 -12q26 0 53 30l21 -16l-213 -250l-23 15l27 30q29 39 41 80q10 43 -15 115q-24 65 -116 65q-104 0 -205 -116q-102 -117 -143 -285q-37 -136 8 -231
q48 -94 125 -123q37 -13 73 -13q35 0 86 11q59 10 119 61l17 -20q-136 -115 -287 -115h-12q1 -4 2 -12t2 -11q3 -26 16 -49q11 -39 12 -45q5 -17 -2 -49q-7 -26 -32 -43q-27 -18 -60 -18q-69 0 -63 71l2 4h35l-3 -4q-3 -21 3 -39q3 -18 28 -18q24 0 37 16q15 15 18 31
q10 43 -4 74q-4 17 -8 55q-4 19 2 39z" />
    <glyph glyph-name="egrave" unicode="&#xe8;" horiz-adv-x="743" 
d="M492 440l-265 -82q-11 -108 30.5 -183t115.5 -105q33 -13 73 -13q53 0 108 19t97 53l17 -20q-134 -115 -289 -115q-104 0 -178 58.5t-97.5 154t2.5 217.5q44 179 187 305.5t301 126.5q105 0 168 -42.5t63 -111.5l-6 -36q-10 -40 -41 -75.5t-79.5 -63t-96.5 -47.5
t-110 -40zM229 389l256 80q83 26 141.5 80t73.5 117l5 12q10 65 -17.5 106t-101.5 41q-103 0 -204 -117.5t-142 -283.5zM580 1196l120 -217h-26l-152 217h58z" />
    <glyph glyph-name="eacute" unicode="&#xe9;" horiz-adv-x="743" 
d="M492 440l-265 -82q-11 -108 30.5 -183t115.5 -105q33 -13 73 -13q53 0 108 19t97 53l17 -20q-134 -115 -289 -115q-104 0 -178 58.5t-97.5 154t2.5 217.5q44 179 187 305.5t301 126.5q105 0 168 -42.5t63 -111.5l-6 -36q-10 -40 -41 -75.5t-79.5 -63t-96.5 -47.5
t-110 -40zM229 389l256 80q83 26 141.5 80t73.5 117l5 12q10 65 -17.5 106t-101.5 41q-103 0 -204 -117.5t-142 -283.5zM885 1190h57l-258 -217h-29z" />
    <glyph glyph-name="ecircumflex" unicode="&#xea;" horiz-adv-x="743" 
d="M492 440l-265 -82q-11 -108 30.5 -183t115.5 -105q33 -13 73 -13q53 0 108 19t97 53l17 -20q-134 -115 -289 -115q-104 0 -178 58.5t-97.5 154t2.5 217.5q44 179 187 305.5t301 126.5q105 0 168 -42.5t63 -111.5l-6 -36q-10 -40 -41 -75.5t-79.5 -63t-96.5 -47.5
t-110 -40zM229 389l256 80q83 26 141.5 80t73.5 117l5 12q10 65 -17.5 106t-101.5 41q-103 0 -204 -117.5t-142 -283.5zM829 952h-26l-78 176l-166 -176h-29l177 217h57z" />
    <glyph glyph-name="edieresis" unicode="&#xeb;" horiz-adv-x="743" 
d="M492 440l-265 -82q-11 -108 30.5 -183t115.5 -105q33 -13 73 -13q53 0 108 19t97 53l17 -20q-134 -115 -289 -115q-104 0 -178 58.5t-97.5 154t2.5 217.5q44 179 187 305.5t301 126.5q105 0 168 -42.5t63 -111.5l-6 -36q-10 -40 -41 -75.5t-79.5 -63t-96.5 -47.5
t-110 -40zM229 389l256 80q83 26 141.5 80t73.5 117l5 12q10 65 -17.5 106t-101.5 41q-103 0 -204 -117.5t-142 -283.5zM623 1094q28 0 42.5 -19t8.5 -47q-7 -28 -31.5 -46.5t-52.5 -18.5q-26 0 -40.5 18.5t-8.5 46.5q7 28 31.5 47t50.5 19zM827 1094q26 0 41 -19t9 -47
q-7 -28 -31.5 -46.5t-52.5 -18.5q-27 0 -41.5 19t-8.5 46q7 28 31.5 47t52.5 19z" />
    <glyph glyph-name="igrave" unicode="&#xec;" horiz-adv-x="401" 
d="M440 819l-166 -659q-16 -66 5.5 -97.5t68.5 -31.5l-8 -31h-340l8 31q46 0 82.5 31t52.5 98l131 518q19 76 -30 76q-10 0 -49 -13l-2 29l217 76q4 2 10 2q11 0 17 -8.5t3 -20.5zM381 1165l121 -217h-27l-151 217h57z" />
    <glyph glyph-name="iacute" unicode="&#xed;" horiz-adv-x="401" 
d="M440 819l-166 -659q-16 -66 5.5 -97.5t68.5 -31.5l-8 -31h-340l8 31q46 0 82.5 31t52.5 98l131 518q19 76 -30 76q-10 0 -49 -13l-2 29l217 76q4 2 10 2q11 0 17 -8.5t3 -20.5zM666 1167h57l-258 -217h-29z" />
    <glyph glyph-name="icircumflex" unicode="&#xee;" horiz-adv-x="401" 
d="M440 819l-166 -659q-16 -66 5.5 -97.5t68.5 -31.5l-8 -31h-340l8 31q46 0 82.5 31t52.5 98l131 518q19 76 -30 76q-10 0 -49 -13l-2 29l217 76q4 2 10 2q11 0 17 -8.5t3 -20.5zM612 940h-26l-78 176l-166 -176h-29l176 217h58z" />
    <glyph glyph-name="idieresis" unicode="&#xef;" horiz-adv-x="401" 
d="M440 819l-166 -659q-16 -66 5.5 -97.5t68.5 -31.5l-8 -31h-340l8 31q46 0 82.5 31t52.5 98l131 518q19 76 -30 76q-10 0 -49 -13l-2 29l217 76q4 2 10 2q11 0 17 -8.5t3 -20.5zM414 1069q28 0 42.5 -18.5t8.5 -46.5q-7 -28 -31.5 -47t-52.5 -19q-26 0 -40.5 19t-8.5 47
q7 27 31 46t51 19zM618 1069q27 0 41.5 -19t8.5 -46q-7 -28 -31.5 -47t-52.5 -19q-26 0 -40.5 19t-8.5 47q7 28 31 46.5t52 18.5z" />
    <glyph glyph-name="eth" unicode="&#xf0;" horiz-adv-x="888" 
d="M811 463q31 124 31 221q0 102 -47 158q-47 59 -156 59q-116 0 -231 -127q-113 -128 -160 -311q-45 -187 6 -309q50 -129 166 -129q117 0 231 129q117 129 160 309zM899 1219q62 -91 88 -209q45 -184 -24 -469q-64 -258 -222 -404q-155 -143 -329 -143q-173 0 -258 137
q-86 138 -39 332q50 196 204 332q152 137 326 137q127 0 211 -78q-9 192 -63 317l-211 -90l-9 27l207 90q-2 4 -6 11.5t-6 11.5q-76 141 -201 141l6 29q139 0 256 -97q39 -35 52 -53l200 86l4 -29z" />
    <glyph glyph-name="ntilde" unicode="&#xf1;" horiz-adv-x="876" 
d="M850 557l-100 -397q-16 -66 5 -97.5t68 -31.5l-8 -31h-340l8 31q46 0 82.5 31t52.5 98l109 430q28 123 1.5 179t-99.5 56q-74 0 -147 -69t-95 -154l-111 -442q-16 -67 5 -98t67 -31l-8 -31h-340l8 31q46 0 82.5 31t52.5 98l131 518q19 76 -28 76q-10 0 -49 -13l-4 29
l217 76q4 2 10 2q11 0 18 -8.5t4 -20.5l-20 -82q101 119 215 119q127 0 187.5 -80.5t25.5 -218.5zM840 1001q27 4 86 31q-62 -69 -133 -69h-5q-23 3 -45 14q-22 14 -55 14q-38 0 -102 -22q59 59 133 59q21 0 31 -4q6 -2 24 -12t29 -11q2 0 7.5 -1t8.5 -1t10 1t11 1z" />
    <glyph glyph-name="ograve" unicode="&#xf2;" horiz-adv-x="823" 
d="M594 856q104 0 178 -59t98 -155t-2 -218q-44 -178 -187.5 -304t-301.5 -126q-157 0 -237 126t-36 304t187.5 305t300.5 127zM387 25q103 0 205 116.5t143 282.5q25 113 16.5 202t-52.5 144t-111 55q-104 0 -206.5 -117.5t-143.5 -283.5q-25 -113 -16 -201.5t53.5 -143
t111.5 -54.5zM573 1171l121 -217h-26l-152 217h57z" />
    <glyph glyph-name="oacute" unicode="&#xf3;" horiz-adv-x="823" 
d="M594 856q104 0 178 -59t98 -155t-2 -218q-44 -178 -187.5 -304t-301.5 -126q-157 0 -237 126t-36 304t187.5 305t300.5 127zM387 25q103 0 205 116.5t143 282.5q25 113 16.5 202t-52.5 144t-111 55q-104 0 -206.5 -117.5t-143.5 -283.5q-25 -113 -16 -201.5t53.5 -143
t111.5 -54.5zM870 1178h58l-258 -217h-29z" />
    <glyph glyph-name="ocircumflex" unicode="&#xf4;" horiz-adv-x="823" 
d="M594 856q104 0 178 -59t98 -155t-2 -218q-44 -178 -187.5 -304t-301.5 -126q-157 0 -237 126t-36 304t187.5 305t300.5 127zM387 25q103 0 205 116.5t143 282.5q25 113 16.5 202t-52.5 144t-111 55q-104 0 -206.5 -117.5t-143.5 -283.5q-25 -113 -16 -201.5t53.5 -143
t111.5 -54.5zM825 940h-26l-78 176l-166 -176h-29l176 217h58z" />
    <glyph glyph-name="otilde" unicode="&#xf5;" horiz-adv-x="823" 
d="M594 856q104 0 178 -59t98 -155t-2 -218q-44 -178 -187.5 -304t-301.5 -126q-157 0 -237 126t-36 304t187.5 305t300.5 127zM387 25q103 0 205 116.5t143 282.5q25 113 16.5 202t-52.5 144t-111 55q-104 0 -206.5 -117.5t-143.5 -283.5q-25 -113 -16 -201.5t53.5 -143
t111.5 -54.5zM791 997q27 4 86 31q-27 -31 -63.5 -50.5t-70.5 -19.5h-4q-20 2 -45 15q-22 14 -55 14q-38 0 -102 -22q59 59 133 59q20 0 30 -4q6 -2 24.5 -12t29.5 -11q2 0 7.5 -1t8.5 -1t10 1t11 1z" />
    <glyph glyph-name="odieresis" unicode="&#xf6;" horiz-adv-x="823" 
d="M594 856q104 0 178 -59t98 -155t-2 -218q-44 -178 -187.5 -304t-301.5 -126q-157 0 -237 126t-36 304t187.5 305t300.5 127zM387 25q103 0 205 116.5t143 282.5q25 113 16.5 202t-52.5 144t-111 55q-104 0 -206.5 -117.5t-143.5 -283.5q-25 -113 -16 -201.5t53.5 -143
t111.5 -54.5zM606 1077q28 0 42.5 -18.5t8.5 -46.5q-7 -28 -31.5 -47t-52.5 -19q-26 0 -40.5 19t-8.5 47q7 27 31 46t51 19zM811 1077q26 0 40.5 -18.5t8.5 -46.5q-7 -28 -31.5 -47t-52.5 -19q-26 0 -40.5 19t-8.5 47q7 28 31.5 46.5t52.5 18.5z" />
    <glyph glyph-name="divide" unicode="&#xf7;" horiz-adv-x="512" 
d="M111 440h448l-8 -30h-449zM317 369q26 0 41 -20t9 -48q-8 -26 -32 -45.5t-50 -19.5q-28 0 -43 19.5t-9 45.5q8 28 32 48t52 20zM346 481q-28 0 -42.5 20t-8.5 48q8 27 32.5 46t51.5 19q26 0 40.5 -19.5t8.5 -45.5q-8 -28 -32 -48t-50 -20z" />
    <glyph glyph-name="oslash" unicode="&#xf8;" horiz-adv-x="823" 
d="M252 115q47 -90 135 -90q104 0 205 116q100 112 145 283q41 169 -4 283zM721 735q-44 90 -135 90q-102 0 -203 -116q-102 -117 -143 -285q-42 -160 0 -281zM182 70q-22 19 -41 51q-81 128 -35 303q43 176 187 305q145 127 301 127q107 0 178 -59l262 323h35l-276 -342
q16 -16 38 -49q80 -127 37 -305q-47 -179 -188 -303q-142 -127 -301 -127q-106 0 -178 57l-262 -323h-35z" />
    <glyph glyph-name="ugrave" unicode="&#xf9;" horiz-adv-x="876" 
d="M915 819l-165 -659q-16 -66 5 -97.5t68 -31.5l-8 -31h-237l28 113q-104 -119 -217 -119q-127 0 -187.5 79.5t-25.5 217.5l98 387q19 76 -30 76q-10 0 -49 -13l-2 29l217 76q4 2 10 2q11 0 17 -8.5t3 -20.5l-141 -561q-28 -123 -2 -178t100 -55t147.5 69t94.5 154l109 430
q19 76 -29 76q-10 0 -49 -13l-2 29l217 76q4 2 10 2q11 0 17 -8.5t3 -20.5zM580 1153l120 -217h-26l-152 217h58z" />
    <glyph glyph-name="uacute" unicode="&#xfa;" horiz-adv-x="876" 
d="M915 819l-165 -659q-16 -66 5 -97.5t68 -31.5l-8 -31h-237l28 113q-104 -119 -217 -119q-127 0 -187.5 79.5t-25.5 217.5l98 387q19 76 -30 76q-10 0 -49 -13l-2 29l217 76q4 2 10 2q11 0 17 -8.5t3 -20.5l-141 -561q-28 -123 -2 -178t100 -55t147.5 69t94.5 154l109 430
q19 76 -29 76q-10 0 -49 -13l-2 29l217 76q4 2 10 2q11 0 17 -8.5t3 -20.5zM891 1153h57l-258 -217h-28z" />
    <glyph glyph-name="ucircumflex" unicode="&#xfb;" horiz-adv-x="876" 
d="M915 819l-165 -659q-16 -66 5 -97.5t68 -31.5l-8 -31h-237l28 113q-104 -119 -217 -119q-127 0 -187.5 79.5t-25.5 217.5l98 387q19 76 -30 76q-10 0 -49 -13l-2 29l217 76q4 2 10 2q11 0 17 -8.5t3 -20.5l-141 -561q-28 -123 -2 -178t100 -55t147.5 69t94.5 154l109 430
q19 76 -29 76q-10 0 -49 -13l-2 29l217 76q4 2 10 2q11 0 17 -8.5t3 -20.5zM823 946h-26l-78 176l-166 -176h-29l176 217h58z" />
    <glyph glyph-name="udieresis" unicode="&#xfc;" horiz-adv-x="876" 
d="M915 819l-165 -659q-16 -66 5 -97.5t68 -31.5l-8 -31h-237l28 113q-104 -119 -217 -119q-127 0 -187.5 79.5t-25.5 217.5l98 387q19 76 -30 76q-10 0 -49 -13l-2 29l217 76q4 2 10 2q11 0 17 -8.5t3 -20.5l-141 -561q-28 -123 -2 -178t100 -55t147.5 69t94.5 154l109 430
q19 76 -29 76q-10 0 -49 -13l-2 29l217 76q4 2 10 2q11 0 17 -8.5t3 -20.5zM633 1073q28 0 42.5 -18.5t8.5 -46.5q-7 -28 -31.5 -47t-52.5 -19q-26 0 -40.5 19t-8.5 47q7 27 31 46t51 19zM838 1073q26 0 40.5 -18.5t8.5 -46.5q-7 -28 -31.5 -47t-52.5 -19q-26 0 -40.5 19
t-8.5 47q7 28 31.5 46.5t52.5 18.5z" />
    <glyph glyph-name="yacute" unicode="&#xfd;" horiz-adv-x="770" 
d="M913 819l-272 -1089q-18 -70 -57 -124.5t-88.5 -85.5t-100.5 -47t-100 -16q-31 0 -61.5 9t-47.5 18.5t-42 26.5t-33 22q-13 8 -29 8q-29 0 -51 -28l-23 16l211 252l23 -17l-25 -28q-30 -38 -39 -74q-17 -67 21.5 -120.5t103.5 -53.5q63 0 116.5 44t76.5 136l110 445
q-104 -119 -217 -119q-129 0 -189.5 79.5t-25.5 217.5l98 387q19 76 -28 76q-10 0 -49 -13l-2 29l217 76q4 2 8 2q11 0 18 -8.5t4 -20.5l-141 -561q-58 -233 98 -233q74 0 147.5 69t94.5 154l109 430q19 76 -31 76q-10 0 -49 -13l-2 29l217 76q4 2 10 2q11 0 17 -8.5
t3 -20.5zM870 1153h58l-258 -217h-29z" />
    <glyph glyph-name="thorn" unicode="&#xfe;" horiz-adv-x="786" 
d="M625 854h12q124 -8 181 -130.5t13 -299.5q-44 -178 -164 -304t-245 -126q-106 0 -166 92l-117 -469q-16 -66 5.5 -97.5t68.5 -31.5l-8 -31h-340l8 31q46 0 82.5 31t52.5 98l322 1290q19 76 -29 76q-13 0 -49 -12l-2 28l217 76q4 2 10 2q11 0 17.5 -8t3.5 -20l-78 -312
q100 117 205 117zM430 25q69 0 148 117t120 282q41 166 20.5 280.5t-89.5 120.5h-6q-72 0 -144.5 -69.5t-93.5 -153.5l-43 -178q-25 -108 -22 -196.5t33 -145.5t77 -57z" />
    <glyph glyph-name="ydieresis" unicode="&#xff;" horiz-adv-x="770" 
d="M913 819l-272 -1089q-18 -70 -57 -124.5t-88.5 -85.5t-100.5 -47t-100 -16q-31 0 -61.5 9t-47.5 18.5t-42 26.5t-33 22q-13 8 -29 8q-29 0 -51 -28l-23 16l211 252l23 -17l-25 -28q-30 -38 -39 -74q-17 -67 21.5 -120.5t103.5 -53.5q63 0 116.5 44t76.5 136l110 445
q-104 -119 -217 -119q-129 0 -189.5 79.5t-25.5 217.5l98 387q19 76 -28 76q-10 0 -49 -13l-2 29l217 76q4 2 8 2q11 0 18 -8.5t4 -20.5l-141 -561q-58 -233 98 -233q74 0 147.5 69t94.5 154l109 430q19 76 -31 76q-10 0 -49 -13l-2 29l217 76q4 2 10 2q11 0 17 -8.5
t3 -20.5zM600 1071q28 0 42.5 -18.5t8.5 -46.5q-7 -28 -31.5 -47t-52.5 -19q-26 0 -40.5 19t-8.5 47q7 27 31 46t51 19zM805 1071q26 0 40.5 -18.5t8.5 -46.5q-7 -28 -31.5 -47t-52.5 -19q-26 0 -40.5 19t-8.5 47q7 28 31.5 46.5t52.5 18.5z" />
    <glyph glyph-name="idotless" unicode="&#x131;" horiz-adv-x="401" 
d="M440 819l-166 -659q-16 -66 5.5 -97.5t68.5 -31.5l-8 -31h-340l8 31q46 0 82.5 31t52.5 98l131 518q19 76 -30 76q-10 0 -49 -13l-2 29l217 76q4 2 10 2q11 0 17 -8.5t3 -20.5z" />
    <glyph glyph-name="OE" unicode="&#x152;" horiz-adv-x="1695" 
d="M561 25q175 0 350 196q173 194 244 475q67 279 -6 475q-77 197 -252 197q-177 0 -350 -197q-175 -200 -242 -475q-70 -277 4 -475q76 -196 252 -196zM1042 244q-21 -25 -43 -43q-216 -207 -446 -207q-228 0 -340 207q-112 206 -39 495q70 290 287 498q211 205 442 205
q230 0 344 -205q2 -5 10 -20.5t11 -24.5l20 82q18 72 -6 100q-26 29 -65 29l6 31h757l-69 -279h-31l25 96q14 61 -17 109q-34 43 -96 43h-236q-41 0 -81 -29q-37 -27 -56 -100l-92 -369h78q56 0 106 41q51 39 66 98l16 68h31l-137 -551h-31l45 176q12 61 -16 99
q-30 41 -88 41h-78l-168 -674q-15 -72 6 -99q24 -30 68 -30h133q108 0 198 75q92 74 119 179l31 123h31l-103 -406h-757l8 29q43 0 80 30q40 26 55 99z" />
    <glyph glyph-name="oe" unicode="&#x153;" horiz-adv-x="1382" 
d="M387 25q104 0 205 116q100 112 145 283q41 169 -4 285q-43 116 -147 116q-102 0 -203 -116q-102 -117 -143 -285q-43 -163 2 -283q43 -116 145 -116zM870 389l254 80q182 65 217 205l2 4q9 59 -14 104q-24 43 -104 43q-102 0 -203 -116q-102 -117 -143 -285
q-5 -15 -9 -35zM748 188q-32 -39 -66 -67q-145 -127 -303 -127t-238 127q-81 128 -35 303q43 176 187 305q145 127 301 127q157 0 240 -127q24 -47 30 -70q26 33 70 70q142 127 299 127q106 0 168 -41q60 -42 63 -113q-4 -24 -6 -34q-18 -77 -110 -133q-88 -56 -218 -95
l-264 -82q-12 -112 33 -188q43 -73 113 -100q37 -13 73 -13q33 0 84 11q58 9 121 61l17 -20q-136 -115 -289 -115q-159 0 -236 127q-21 26 -34 67z" />
    <glyph glyph-name="Scaron" unicode="&#x160;" horiz-adv-x="823" 
d="M584 821q49 -40 80 -67t67 -62t56.5 -61.5t40 -60t27 -65t7.5 -68t-10 -75.5q-28 -116 -102 -201.5t-165 -126t-186 -40.5q-37 0 -71.5 7.5t-57.5 17t-48 26t-36.5 27t-29 27.5t-21.5 20q-8 8 -22 8q-31 0 -64 -33l-22 15l288 340l23 -15l-76 -90q-34 -39 -47 -90
q-23 -89 31 -159t162 -70q103 0 186 82t113 204q10 38 11 72t-7 64.5t-21.5 57t-36.5 53t-48 50t-60 51.5q-155 128 -224 236.5t-42 218.5q30 120 149 202.5t274 82.5q134 0 265 -76q13 -8 28 -8q29 0 54 28l22 -16l-213 -250l-22 15l24 28q23 29 33 62q19 71 -41.5 128.5
t-155.5 57.5q-101 0 -176 -59t-96 -144t24 -177t136 -167zM578 1700h28l78 -176l166 176h27l-177 -217h-55z" />
    <glyph glyph-name="scaron" unicode="&#x161;" horiz-adv-x="698" 
d="M442 500q36 -12 64 -23t56.5 -23.5t48 -25t39 -28t29 -31t18.5 -35.5t7 -41t-6 -47q-27 -106 -131.5 -179t-234.5 -73q-103 0 -215 65q-15 9 -31 9q-24 0 -51 -27l-21 14l211 252l21 -16l-23 -29q-27 -35 -35 -65q-17 -67 30.5 -119.5t121.5 -52.5q75 0 135.5 49
t79.5 121q16 64 -25 101.5t-122 63.5q-69 23 -114.5 44t-85.5 51t-54 68.5t-2 86.5q27 104 126 175t228 71q35 0 62.5 -3.5t50.5 -12.5t35 -14.5t32 -18.5t25 -16q18 -9 30 -9q28 0 54 29l22 -16l-215 -252l-20 16l24 29q33 44 41 78q18 64 -24.5 111.5t-124.5 47.5
q-75 0 -129 -46t-72 -117q-16 -61 24 -97.5t121 -64.5zM514 1176h29l78 -177l165 177h27l-176 -218h-55z" />
    <glyph glyph-name="Ydieresis" unicode="&#x178;" 
d="M1022 1360l6 31h211l-6 -31q-79 0 -178 -129l-322 -410l-166 -661q-16 -66 5.5 -97.5t68.5 -31.5l-8 -29h-340l8 29q46 0 82.5 31t52.5 98l158 626l-127 445q-37 129 -127 129l6 31h340l-6 -31q-56 0 -70 -51q-7 -31 4 -74l111 -383l297 383q34 42 41 74q7 26 -5 38.5
t-36 12.5zM715 1626q28 0 42.5 -18.5t8.5 -46.5q-7 -28 -31.5 -47t-52.5 -19q-26 0 -40.5 19t-8.5 47q7 27 31 46t51 19zM920 1626q26 0 40.5 -18.5t8.5 -46.5q-7 -28 -31.5 -47t-52.5 -19q-26 0 -40.5 19t-8.5 47q7 28 31.5 46.5t52.5 18.5z" />
    <glyph glyph-name="zcaron" unicode="&#x17e;" horiz-adv-x="653" 
d="M803 848l-6 -31l-639 -786h157q105 0 198.5 74.5t119.5 179.5l31 123h30l-102 -408h-592l6 31l639 786h-260q-63 0 -118 -44t-72 -107l-23 -97h-31l70 279h592zM492 1188h28l78 -176l166 176h27l-177 -217h-55z" />
    <glyph glyph-name="gravecomb" unicode="&#x300;" horiz-adv-x="292" 
d="M403 1391l121 -217h-26l-152 217h57z" />
    <glyph glyph-name="acutecomb" unicode="&#x301;" horiz-adv-x="292" 
d="M520 1391h58l-259 -217h-28z" />
    <glyph glyph-name="circumflexcomb" unicode="&#x302;" horiz-adv-x="362" 
d="M592 1174h-27l-78 176l-165 -176h-29l176 217h57z" />
    <glyph glyph-name="tildecomb" unicode="&#x303;" horiz-adv-x="387" 
d="M567 1286q27 4 86 31q-63 -70 -133 -70h-4q-20 3 -45 15q-22 14 -55 14q-36 0 -103 -23q60 60 133 60q21 0 31 -4q6 -2 24 -12t29 -11q2 0 8 -1t9 -1t9.5 1t10.5 1z" />
    <glyph glyph-name="macroncomb" unicode="&#x304;" horiz-adv-x="284" 
d="M315 1268l9 28h223l-8 -28h-224z" />
    <glyph glyph-name="dotaccentcomb" unicode="&#x307;" horiz-adv-x="194" 
d="M403 1348q28 0 42 -19t8 -47q-7 -27 -31 -46t-51 -19q-28 0 -43 18.5t-9 46.5q7 28 31.5 47t52.5 19z" />
    <glyph glyph-name="dieresiscomb" unicode="&#x308;" horiz-adv-x="397" 
d="M401 1348q28 0 43 -19t9 -47q-7 -28 -31.5 -46.5t-52.5 -18.5q-27 0 -41.5 19t-8.5 46q7 28 31.5 47t50.5 19zM606 1348q26 0 40.5 -19t8.5 -47q-7 -28 -31.5 -46.5t-52.5 -18.5q-26 0 -40.5 18.5t-8.5 46.5q7 28 31.5 47t52.5 19z" />
    <glyph glyph-name="ringcomb" unicode="&#x30a;" horiz-adv-x="241" 
d="M438 1395q37 0 55.5 -33.5t6.5 -79.5q-10 -46 -45 -79.5t-72 -33.5q-38 0 -56.5 33.5t-7.5 79.5q12 46 47 79.5t72 33.5zM434 1382q-25 0 -50.5 -29.5t-35.5 -70.5q-9 -41 1.5 -70.5t35.5 -29.5q26 0 51.5 29.5t34.5 70.5q11 41 0 70.5t-37 29.5z" />
    <glyph glyph-name="caroncomb" unicode="&#x30c;" horiz-adv-x="360" 
d="M346 1391h29l78 -177l165 177h27l-176 -217h-55z" />
    <glyph glyph-name="cedillacomb" unicode="&#x327;" horiz-adv-x="219" 
d="M102 -80q1 -2 3.5 -10t3 -10.5t3 -9.5t3 -10.5t1.5 -10t1.5 -10.5t0.5 -10t-1 -11.5t-2 -11.5q-6 -26 -33.5 -44t-61.5 -18q-35 0 -52 20t-9 52l2 4h35l-2 -4q-12 -57 31 -57q20 0 35 14t20 33q7 30 -4 74q-13 73 0 129v4h14v-4q-12 -46 12 -109z" />
    <glyph glyph-name="endash" unicode="&#x2013;" horiz-adv-x="563" 
d="M612 440l-8 -30h-502l9 30h501z" />
    <glyph glyph-name="emdash" unicode="&#x2014;" horiz-adv-x="651" 
d="M698 440l-8 -30h-588l7 30h589z" />
    <glyph glyph-name="quoteleft" unicode="&#x2018;" horiz-adv-x="192" 
d="M365 1198q-27 0 -41.5 20t-8.5 48q12 48 44 80t65 45l4 -13q-8 -3 -16 -11t-9 -15q-4 -17 17 -25q17 -6 24.5 -22.5t1.5 -38.5q-6 -28 -29.5 -48t-51.5 -20z" />
    <glyph glyph-name="quoteright" unicode="&#x2019;" horiz-adv-x="192" 
d="M412 1391q28 0 42 -19t7 -47q-11 -49 -43 -81.5t-66 -45.5l-4 12q22 13 27 29q4 16 -17 25q-17 6 -25 22.5t-3 38.5q8 28 31 47t51 19z" />
    <glyph glyph-name="quotesinglbase" unicode="&#x201a;" horiz-adv-x="194" 
d="M100 133q27 0 42 -19t8 -46q-11 -49 -43.5 -81.5t-67.5 -45.5l-4 12q19 11 26 29q3 15 -14 24q-19 6 -27.5 23t-3.5 39q7 28 31.5 46.5t52.5 18.5z" />
    <glyph glyph-name="quotedblleft" unicode="&#x201c;" horiz-adv-x="356" 
d="M528 1198q-27 0 -41 20t-8 48q12 48 44 80t65 45l4 -13q-8 -3 -16 -11t-9 -15q-4 -17 17 -25q17 -6 24.5 -22.5t1.5 -38.5q-6 -28 -30 -48t-52 -20zM365 1198q-27 0 -41.5 20t-8.5 48q12 48 44 80t65 45l4 -13q-8 -3 -16 -11t-9 -15q-4 -17 17 -25q17 -6 24.5 -22.5
t1.5 -38.5q-6 -28 -29.5 -48t-51.5 -20z" />
    <glyph glyph-name="quotedblright" unicode="&#x201d;" horiz-adv-x="356" 
d="M412 1391q28 0 42 -19t7 -47q-11 -49 -43 -81.5t-66 -45.5l-4 12q22 13 27 29q4 16 -17 25q-17 6 -25 22.5t-3 38.5q8 28 31 47t51 19zM575 1391q28 0 42.5 -19t7.5 -47q-11 -49 -43 -81.5t-66 -45.5l-4 12q22 13 27 29q4 16 -17 25q-17 6 -25 22.5t-3 38.5q8 28 31 47
t50 19z" />
    <glyph glyph-name="quotedblbase" unicode="&#x201e;" horiz-adv-x="360" 
d="M100 133q27 0 42 -19t8 -46q-11 -49 -43.5 -81.5t-67.5 -45.5l-4 12q19 11 26 29q3 15 -14 24q-19 6 -27.5 23t-3.5 39q7 28 31.5 46.5t52.5 18.5zM266 133q27 0 41.5 -19t7.5 -46q-11 -49 -43 -81.5t-67 -45.5l-4 12q19 11 26 29q3 15 -14 24q-19 6 -27.5 23t-3.5 39
q7 28 31.5 46.5t52.5 18.5z" />
    <glyph glyph-name="dagger" unicode="&#x2020;" horiz-adv-x="1056" 
d="M825 1053l445 49l-33 -131l-420 51l-254 -1020h-131l254 1020l-444 -51l32 131l418 -49l86 338h131z" />
    <glyph glyph-name="daggerdbl" unicode="&#x2021;" horiz-adv-x="1056" 
d="M909 1391l-84 -338l445 49l-33 -131l-420 51l-162 -651l445 51l-33 -131l-420 51l-84 -340h-131l84 340l-444 -51l32 131l420 -51l162 651l-444 -51l32 131l420 -49l84 338h131z" />
    <glyph glyph-name="bullet" unicode="&#x2022;" horiz-adv-x="1024" 
d="M199 827q55 0 83.5 -38t16.5 -93q-13 -54 -61.5 -92.5t-102.5 -38.5q-55 0 -83.5 38t-16.5 93q13 54 61.5 92.5t102.5 38.5z" />
    <glyph glyph-name="ellipsis" unicode="&#x2026;" horiz-adv-x="2048" 
d="M100 133q28 0 42.5 -18.5t7.5 -46.5q-6 -28 -30 -47t-52 -19t-42.5 19t-7.5 47q6 27 30 46t52 19zM782 133q28 0 42 -18.5t7 -46.5q-6 -28 -29.5 -47t-51.5 -19t-42.5 19t-7.5 47q6 27 30 46t52 19zM1464 133q28 0 42 -18.5t7 -46.5q-6 -28 -29.5 -47t-51.5 -19t-42.5 19
t-7.5 47q6 27 30 46t52 19z" />
    <glyph glyph-name="perthousand" unicode="&#x2030;" horiz-adv-x="1193" 
d="M35 2h-35l1128 1387h35zM700 535q65 0 92 -78.5t-1 -188.5t-93.5 -188t-130.5 -78q-66 0 -92.5 78t0.5 188q28 111 93.5 189t131.5 78zM569 12q44 0 94 75t78 181q26 106 12.5 181t-57.5 75t-94 -75t-76 -181t-13.5 -181t56.5 -75zM1108 535q66 0 93 -78.5t-1 -188.5
t-93.5 -188t-131.5 -78q-65 0 -91.5 78t1.5 188t93.5 188.5t129.5 78.5zM979 12q44 0 94 75t76 181t13.5 181t-56.5 75t-94 -75t-76 -181q-27 -106 -14.5 -181t57.5 -75zM598 1391q65 0 91.5 -78.5t-1.5 -188.5t-93 -188t-130 -78q-66 0 -92 78t2 188q26 110 91.5 188.5
t131.5 78.5zM467 868q44 0 94 75t78 181q26 106 12.5 181t-57.5 75q-43 0 -93.5 -75.5t-76.5 -180.5q-26 -106 -13.5 -181t56.5 -75z" />
    <glyph glyph-name="guilsinglleft" unicode="&#x2039;" horiz-adv-x="520" 
d="M106 426l502 229l8 -26l-444 -203l342 -205l-20 -26z" />
    <glyph glyph-name="guilsinglright" unicode="&#x203a;" horiz-adv-x="520" 
d="M565 426l-502 -231l-8 26l445 205l-342 203l20 26z" />
    <glyph glyph-name="fraction" unicode="&#x2044;" horiz-adv-x="880" 
d="M35 0h-35l1133 1393h34z" />
    <glyph glyph-name="fraction" unicode="&#x2215;" horiz-adv-x="880" 
d="M35 0h-35l1133 1393h34z" />
    <glyph glyph-name="frenchfrancsign" unicode="&#x20a3;" horiz-adv-x="821" 
d="M348 1391h758l-70 -279h-30l24 96q15 63 -18.5 108.5t-96.5 45.5h-235q-46 0 -82.5 -31t-52.5 -98l-92 -369h77q57 0 107 40t63 97l19 70h31l-138 -553h-30l43 178q15 57 -15.5 97.5t-87.5 40.5h-78l-108 -433h164l-6 -30h-164l-54 -209q-16 -67 5 -98t67 -31l-8 -31
h-338l6 31q46 0 82.5 31t54.5 98l52 209h-105l8 30h105l207 832q18 66 -3.5 97.5t-68.5 31.5z" />
    <glyph glyph-name="lirasign" unicode="&#x20a4;" horiz-adv-x="819" 
d="M829 408h31l-102 -406h-758l8 31q46 0 82.5 31t52.5 98l115 459h-104l8 30h104l23 90h-105l9 31h104l102 416q15 60 48 102.5t75.5 63t82.5 29t83 8.5h330l-70 -279h-30l22 96q17 63 -16.5 108.5t-96.5 45.5h-147q-104 -4 -137 -129l-115 -461h164l-8 -31h-162l-25 -90
h164l-6 -30h-164l-115 -459q-18 -66 3.5 -97.5t68.5 -31.5h133q106 0 199 74t119 180z" />
    <glyph glyph-name="euro" unicode="&#x20ac;" horiz-adv-x="1122" 
d="M1280 883h-31l11 35q23 89 7 170.5t-54.5 143.5t-95.5 99t-116 37q-108 0 -220.5 -78.5t-205.5 -215t-145 -302.5h162l-8 -31h-164q-1 -8 -6 -24t-6 -21q-2 -7 -5.5 -22.5t-5.5 -22.5h164l-6 -30h-162q-27 -171 -5 -303.5t96 -212.5t182 -80q59 0 134.5 37.5t145 98
t126 144.5t77.5 170l8 35h31l-107 -428h-30q13 59 -9 59q-9 0 -51 -26q-171 -121 -334 -121q-141 0 -242 83t-141.5 226.5t-11.5 317.5h-106l6 30h102l23 90h-103l9 31h106q88 265 291.5 446t417.5 181q160 0 274 -119q22 -27 37 -27q23 0 39 58h31z" />
    <glyph glyph-name="numerosign" unicode="&#x2116;" horiz-adv-x="1734" 
d="M1028 1391h211l-8 -31q-40 0 -72.5 -31t-50.5 -98l-305 -1229h-31l-344 1239l-268 -1081q-18 -66 -0.5 -97.5t57.5 -31.5l-8 -29h-209l6 29q89 0 123 129l266 1071q18 66 0.5 97.5t-57.5 31.5l8 31h191l305 -1106l237 946q16 67 -1 98t-58 31zM1540 991q103 0 176.5 -59
t97.5 -155t-2 -218q-44 -178 -187 -304t-300 -126q-158 0 -238 125.5t-36 304.5q29 117 105 216.5t178 157.5t206 58zM1331 160q104 0 206.5 116.5t143.5 282.5q25 113 16 202.5t-53.5 144.5t-111.5 55q-103 0 -205 -118t-143 -284q-25 -113 -16.5 -201.5t52.5 -143
t111 -54.5zM1552 35l-8 -31h-502l9 31h501z" />
    <glyph glyph-name="trademark" unicode="&#x2122;" horiz-adv-x="462" 
d="M346 1391h166l-12 -54h-6l4 19q3 12 -4 20t-19 8h-14q-22 0 -27 -24l-51 -209q-4 -13 0 -20t12 -7v-6h-67l2 6q20 0 26 27l54 209q5 24 -15 24h-14q-12 0 -23 -8t-14 -20l-6 -19h-6zM748 1391v-7q-22 0 -27 -24l-53 -209q-6 -27 14 -27l-2 -6h-66v6q21 0 27 27l55 219
l-135 -252h-10l-12 232l-50 -199q-9 -27 11 -27l-2 -6h-41l2 6q15 0 24 27l52 209q8 24 -11 24v7h39l12 -236l127 236h46z" />
    <glyph glyph-name="minus" unicode="&#x2212;" horiz-adv-x="563" 
d="M612 440l-8 -30h-502l9 30h501z" />
    <glyph glyph-name="almostequalto" unicode="&#x2248;" horiz-adv-x="507" 
d="M367 322q4 0 11.5 -1.5t12.5 -1.5q4 0 12.5 1.5t12.5 1.5q30 3 119 28q-79 -65 -170 -65h-13q-35 0 -63 14q-32 14 -76 14q-45 0 -139 -20q78 57 170 57q25 0 49 -6q12 -3 36.5 -11.5t37.5 -10.5zM344 514q-40 16 -80 16q-34 0 -137 -22q76 59 174 59q24 0 45 -6
q12 -2 36.5 -11.5t39.5 -10.5q3 0 10.5 -1t11.5 -1t13 1t14 1q34 4 117 28q-77 -67 -170 -67h-12q-32 3 -62 14z" />
    <glyph glyph-name="lessthanorequalto" unicode="&#x2264;" horiz-adv-x="520" 
d="M500 168l-6 -31h-459l6 31h459zM121 481l502 232l6 -27l-443 -205l342 -202l-20 -27z" />
    <glyph glyph-name="greaterthanorequalto" unicode="&#x2265;" horiz-adv-x="520" 
d="M41 168h459l-6 -31h-459zM580 481l-504 -229l-6 27l442 202l-342 205l20 27z" />
    <glyph glyph-name="a.salt1" unicode="&#xe01d;" horiz-adv-x="829" 
d="M799 543l-97 -383q-16 -67 5 -98t69 -31l-8 -31h-186q-20 0 -31.5 15.5t-5.5 35.5l12 51q-47 -52 -113.5 -80t-138.5 -28q-32 0 -61.5 3t-64.5 11.5t-60 23.5t-47 39t-25.5 57.5t4.5 78.5q41 162 334 235q-51 25 -73 78t-7 119q24 95 112 156t193 61q121 0 173.5 -80.5
t15.5 -232.5zM336 639q-17 -69 14 -120t96 -62q3 0 8 1t7 1q48 10 74 16t59.5 17.5t51.5 27t24 35.5q15 65 14 111.5t-21 75.5t-61 40q-24 9 -55 9q-70 0 -132 -42t-79 -110zM582 199l71 295q-47 -37 -192 -64q-51 -11 -92 -26.5t-80 -41.5t-66.5 -66t-40.5 -93
q-21 -83 15 -130.5t114 -47.5q92 0 172 51.5t99 122.5z" />
    <glyph glyph-name="g.salt2" unicode="&#xe01e;" horiz-adv-x="770" 
d="M457 6q241 -55 192 -248q-19 -74 -66 -134t-105.5 -95t-117.5 -53.5t-110 -18.5q-89 0 -152 44.5t-129 154.5q-52 87 -105.5 126.5t-117.5 39.5q-15 0 -39 -4q-44 -7 -122 -39t-140 -66q-4 -2 -23 -13t-25 -14t-24 -12.5t-25.5 -12.5t-24.5 -11t-26.5 -11t-25.5 -8
t-28 -7t-27 -3.5t-29 -1.5q-229 0 -330 168l123 86q57 -95 108.5 -143.5t108.5 -57.5q28 -4 39 -4q34 0 71.5 12t60 23.5t67.5 36.5q210 112 342 129q37 6 73 6q163 0 224 -104q17 -28 32 -70.5t25.5 -77t25.5 -66.5t40 -50.5t61 -18.5q88 0 160 53.5t96 120.5l4 12t4 15
q20 83 -29 129t-178 78q-114 26 -160.5 54t-45.5 85q0 10 4 26q22 82 141 191q-70 42 -100 118t-7 165q34 132 157.5 226.5t262.5 94.5q30 0 70 -8q42 77 102.5 119.5t132.5 42.5q34 0 78 -13l-86 -127q-58 25 -98 25q-67 0 -102 -53q98 -31 144 -116t19 -191
q-34 -134 -156 -228t-263 -94q-69 0 -127 25q-50 -52 -62 -103q-1 -3 -2 -8.5t-2 -7.5q0 -14 9.5 -26.5t31 -23.5t39 -19t53 -17t53 -13.5t56.5 -13.5zM281 535q-31 -121 9 -206t126 -85t167.5 84.5t112.5 206.5q29 120 -10 205t-125 85t-168.5 -85t-111.5 -205z" />
    <glyph glyph-name="j.salt2" unicode="&#xe01f;" horiz-adv-x="401" 
d="M193 770l217 76q4 2 10 2q11 0 17 -8.5t3 -20.5l-280 -1124q-17 -68 -57.5 -117.5t-89 -73.5t-89.5 -34.5t-76 -10.5q-88 0 -150 44.5t-128 154.5q-53 87 -107 126.5t-116 39.5q-11 0 -39 -4q-43 -7 -120 -38.5t-142 -66.5q-53 -31 -83 -46.5t-80.5 -31.5t-96.5 -16
q-103 0 -189.5 40.5t-138.5 127.5l123 84q57 -94 108 -142.5t109 -58.5q12 -2 37 -2q49 0 93.5 17.5t106.5 52.5q214 115 342 131q23 4 72 4q164 0 225 -102q20 -33 38.5 -89t31 -95t41.5 -69t72 -30q50 0 95 40t64 118l258 1030q19 76 -30 76q-10 0 -49 -13zM426 1032
q-35 0 -55 25.5t-11 60.5q9 37 41.5 62.5t69.5 25.5q35 0 54.5 -25.5t11.5 -62.5q-9 -35 -41.5 -60.5t-69.5 -25.5z" />
    <glyph glyph-name="y.salt2" unicode="&#xe020;" horiz-adv-x="770" 
d="M666 770l217 76q4 2 10 2q11 0 17 -8.5t3 -20.5l-272 -1089q-18 -70 -57 -124.5t-88.5 -85.5t-100.5 -47t-100 -16q-88 0 -150.5 44.5t-128.5 154.5q-53 87 -107 126.5t-116 39.5q-15 0 -39 -4q-44 -7 -122 -39t-140 -66q-58 -32 -84 -45.5t-78.5 -30t-97.5 -16.5
q-228 0 -328 166l123 86q57 -95 108.5 -143.5t108.5 -57.5q28 -4 39 -4q34 0 71.5 12t60 23.5t67.5 36.5q210 112 342 129q38 6 74 6q162 0 223 -104q20 -33 38.5 -89t30.5 -95t41 -69t72 -30q63 0 116.5 44t76.5 136l110 445q-104 -119 -217 -119q-129 0 -189.5 79.5
t-25.5 217.5l98 387q19 76 -28 76q-10 0 -49 -13l-2 29l217 76q4 2 8 2q11 0 18 -8.5t4 -20.5l-141 -561q-58 -233 98 -233q74 0 147.5 69t94.5 154l109 430q19 76 -31 76q-10 0 -49 -13z" />
    <glyph glyph-name="g.salt3" unicode="&#xe021;" horiz-adv-x="770" 
d="M1667 -127l78 -86q-184 -168 -412 -168q-42 0 -82 14.5t-61 28.5t-58 42l-12 9q-46 35 -107 66.5t-102 38.5q-24 4 -39 4q-63 0 -136 -39.5t-169 -126.5q-122 -111 -206 -155t-173 -44q-51 0 -100.5 18t-91 55t-57 93.5t1.5 134.5q48 192 315 248q63 13 95.5 20.5
t82.5 22.5t78 32t39 38q2 4 6 16q12 52 -10 103q-70 -25 -139 -25q-141 0 -218 94.5t-43 227.5q34 132 156.5 226.5t263.5 94.5q28 0 68 -8q42 76 103 119t132 43q34 0 78 -13l-86 -127q-58 25 -98 25q-70 0 -100 -53q97 -31 143.5 -116t19.5 -191q-23 -89 -89.5 -165
t-155.5 -118q63 -109 45 -191q-2 -8 -11 -26q-27 -58 -88 -85.5t-188 -53.5q-144 -32 -216 -78.5t-93 -128.5q-1 -5 -2 -14t-2 -13q-10 -67 36 -120.5t134 -53.5q44 0 88 30.5t75.5 69t77.5 94.5t82 89q112 104 275 104q37 0 71 -6q69 -9 145.5 -48t131.5 -81
q35 -26 50.5 -37t47.5 -23t66 -12q13 0 41 4q63 9 139 57.5t180 143.5zM414 244q87 0 169 85t111 206q31 120 -9 205t-126 85t-167.5 -85t-112.5 -205q-29 -122 10 -206.5t125 -84.5z" />
    <glyph glyph-name="A.SALT4" unicode="&#xe022;" 
d="M901 33l-8 -31h-340l8 31q35 0 61.5 21t36.5 63q7 21 7 41l12 542q-317 -155 -475 -501l-19 -45q-7 -14 -16 -41q-10 -40 4.5 -60t44.5 -20l-8 -31h-209l8 31q89 0 148 129l487 1077q7 16 14 41q18 82 -82 82h-24l6 29h274l-30 -1229q-5 -129 100 -129zM692 1280
l-385 -852q145 193 373 303l14 549h-2z" />
    <glyph glyph-name="B.SALT4" unicode="&#xe023;" 
d="M424 743q78 100 217 138q83 23 143 77q60 51 84 154q28 104 -6 176q-30 74 -133 74h-49q-40 0 -80 -29q-37 -30 -55 -100zM403 662l-124 -500q-18 -72 4 -101q22 -28 65 -28h94q112 0 197 55q85 52 145 143q59 89 86 201q27 111 15 203q-16 92 -74 145q-60 54 -170 54
q-57 0 -111 -31q-48 -27 -86 -72q-35 -41 -41 -69zM735 856q173 -30 240 -147q66 -120 26 -277q-30 -118 -108 -215t-199 -156q-118 -59 -266 -59h-428l8 31q41 0 80 28q38 25 57 101l267 1071q18 70 -6 100q-23 29 -66 29l6 29h383q149 0 223 -80q77 -83 47 -199
q-44 -174 -264 -256z" />
    <glyph glyph-name="H.SALT4" unicode="&#xe024;" 
d="M1239 1391l-6 -29q-46 0 -82.5 -31t-54.5 -98l-267 -1071q-18 -66 3.5 -97.5t68.5 -31.5l-8 -31h-340l8 31q46 0 82.5 31t52.5 98l168 672q-41 0 -81 -11.5t-64.5 -24t-63.5 -36.5q-51 -28 -74 -40t-73 -26t-102 -14l-130 -520q-18 -66 3.5 -97.5t68.5 -31.5l-8 -31h-340
l8 31q46 0 82.5 31t52.5 98l269 1071q16 66 -5.5 97.5t-68.5 31.5l8 29h340l-6 -29q-46 0 -82.5 -31t-54.5 -98l-129 -520q47 0 91 12t70 25t68 38q48 27 70 38t67.5 24.5t91.5 13.5l93 369q16 67 -5 98t-67 31l6 29h340z" />
    <glyph glyph-name="G.SALT4" unicode="&#xe025;" horiz-adv-x="1019" 
d="M1180 885h-31l8 33q23 89 7 170.5t-55 143.5t-96 99t-116 37q-115 0 -235 -90t-216 -245t-141 -337q-40 -156 -31 -293q36 90 84 152q84 111 194.5 173.5t225.5 62.5q167 0 246.5 -102.5t38.5 -270.5l-105 -416h-30q25 104 -15 104q-15 0 -47 -16q-88 -48 -157.5 -72
t-155.5 -24q-113 0 -202 55.5t-138.5 150.5t-63 223t24.5 273q47 191 161.5 353t265.5 256t302 94q163 0 277 -119q22 -27 37 -27q22 0 38 58h31zM381 543q-70 -94 -94 -197l-4 -18q24 -139 97 -221t181 -82q98 0 203 75.5t135 196.5l41 162q15 54 10.5 107.5t-22 96.5
t-58.5 70t-98 27q-106 0 -210.5 -58t-180.5 -159z" />
    <glyph glyph-name="P.SALT4" unicode="&#xe026;" horiz-adv-x="952" 
d="M346 1391h551q147 0 223.5 -81t48.5 -198q-30 -117 -147 -197.5t-264 -80.5q-130 0 -237.5 -61.5t-129.5 -147.5l-117 -463q-16 -67 5 -98t67 -31l-6 -31h-340l6 31q46 0 82.5 31t54.5 98l267 1071q18 66 -3.5 97.5t-68.5 31.5zM1036 1112q28 109 -6.5 179.5t-132.5 70.5
h-219q-46 0 -82.5 -31t-52.5 -98l-127 -508q57 63 151 101t199 38q99 0 171.5 70.5t98.5 177.5z" />
    <glyph glyph-name="R.SALT4" unicode="&#xe027;" horiz-adv-x="952" 
d="M1169 1112q-26 -105 -126 -183t-230 -93q167 -62 111 -291l-97 -383q-16 -67 5 -98t67 -31l-6 -31q-28 0 -52.5 3t-51.5 11t-44.5 22.5t-31.5 37t-14 54t8 73.5l86 342q12 47 17.5 81.5t5.5 75t-11.5 66.5t-40 43.5t-74.5 17.5q-103 0 -191.5 -63t-107.5 -141l-115 -463
q-18 -66 3.5 -97.5t68.5 -31.5l-8 -31h-340l8 31q46 0 82.5 31t52.5 98l269 1071q16 66 -5.5 97.5t-68.5 31.5l8 29h553q146 0 223 -81t47 -198zM1036 1112q28 109 -6.5 179.5t-132.5 70.5h-219q-46 0 -82.5 -31t-52.5 -98l-127 -508q61 67 143 103t207 36q99 0 171.5 70.5
t98.5 177.5z" />
    <glyph glyph-name="fi" unicode="&#xfb01;" horiz-adv-x="1034" 
d="M537 1210l-91 -362h226l-8 -31h-226l-164 -657q-16 -66 5.5 -97.5t68.5 -31.5l-8 -31h-340l8 31q46 0 82.5 31t52.5 98l164 657h-104l8 31h104l80 315q17 68 56.5 117.5t88 73.5t89.5 34.5t76 10.5q63 0 122 -27q12 -6 23 -6q21 0 43 25l20 -17l-211 -250l-22 15l25 28
q50 59 63 111q9 42 -9.5 66t-62.5 24q-50 0 -94.5 -40t-64.5 -118zM1073 819l-166 -659q-16 -66 5.5 -97.5t68.5 -31.5l-8 -31h-340l8 31q46 0 82.5 31t52.5 98l131 518q19 76 -30 76q-11 0 -50 -13l-2 29l217 76q4 2 11 2q11 0 17 -8.5t3 -20.5zM1061 1032q-37 0 -56 25.5
t-10 60.5q9 37 40.5 62.5t68.5 25.5q35 0 54.5 -25.5t10.5 -62.5q-9 -35 -41 -60.5t-67 -25.5z" />
    <glyph glyph-name="fl" unicode="&#xfb02;" horiz-adv-x="1034" 
d="M537 1210l-91 -362h226l-8 -31h-226l-164 -657q-16 -66 5.5 -97.5t68.5 -31.5l-8 -31h-340l8 31q46 0 82.5 31t52.5 98l164 657h-104l8 31h104l80 315q17 68 56.5 117.5t88 73.5t89.5 34.5t76 10.5q63 0 122 -27q12 -6 23 -6q21 0 43 25l20 -17l-211 -250l-22 15l25 28
q50 59 63 111q9 42 -9.5 66t-62.5 24q-50 0 -94.5 -40t-64.5 -118zM1208 1364l-301 -1204q-16 -66 5.5 -97.5t68.5 -31.5l-8 -31h-340l8 31q101 0 133 129l266 1061q18 75 -28 75q-13 0 -49 -12l-2 29l217 76q4 2 10 2q9 0 16 -8.5t4 -18.5z" />
    </font>
</defs>
</svg>
