<?xml version="1.0" standalone="no"?>
<!DOCTYPE svg PUBLIC "-//W3C//DTD SVG 1.1//EN" "http://www.w3.org/Graphics/SVG/1.1/DTD/svg11.dtd" >
<svg xmlns="http://www.w3.org/2000/svg" xmlns:xlink="http://www.w3.org/1999/xlink" version="1.1">
<metadata>
Created by FontForge 20201107 at Fri Oct 18 12:20:39 2024
 By 
(c)Denustudios 2022.  All Rights Reserved
</metadata>
<defs>
<font id="Genastaq" horiz-adv-x="954" >
  <font-face 
    font-family="Genastaq"
    font-weight="400"
    font-stretch="normal"
    units-per-em="2048"
    panose-1="2 0 6 0 0 0 0 0 0 0"
    ascent="1638"
    descent="-410"
    x-height="848"
    cap-height="1391"
    bbox="-1489 -899 2011 1720"
    underline-thickness="102"
    underline-position="-204"
    unicode-range="U+0020-FB02"
  />
<missing-glyph horiz-adv-x="61" 
 />
    <glyph glyph-name="f_f" unicode="ff" horiz-adv-x="1034" 
d="M637 1210v-362h225v-31h-225v-657q0 -66 29 -97.5t75 -31.5v-31h-340v31q46 0 74.5 31t28.5 98v657h-268v-657q0 -66 29 -97.5t75 -31.5v-31h-340v31q46 0 75 31.5t29 97.5v657h-104v31h104v315q0 68 28 117.5t70.5 73.5t81 34.5t72.5 10.5q67 0 129 -27q12 -6 25 -6
q20 0 37 25l26 -17l-149 -250l-27 15l17 28q37 61 37 111q0 41 -25.5 65.5t-69.5 24.5q-50 0 -85 -40t-35 -118v-362h268v315q0 68 28 117.5t70.5 73.5t81 34.5t72.5 10.5q65 0 131 -27q12 -6 24 -6q20 0 37 25l25 -17l-150 -250l-26 15l18 28q35 57 35 111q0 42 -25 66
t-69 24q-50 0 -84.5 -40t-34.5 -118z" />
    <glyph glyph-name="f_i" unicode="fi" horiz-adv-x="800" 
d="M236 817v-657q0 -66 29 -97.5t75 -31.5v-31h-340v31q46 0 74 31t28 98v657h-102v31h102v315q0 68 28 117.5t70.5 73.5t81 34.5t72.5 10.5q134 0 218.5 -83.5t84.5 -197.5q0 -35 -25.5 -60.5t-62.5 -25.5q-35 0 -60.5 25.5t-25.5 60.5q0 23 -1 45.5t-8.5 62.5t-20 69
t-38.5 51t-61 22q-50 0 -84 -40t-34 -118v-362h225v-31h-225zM635 819v-659q0 -66 29 -97.5t75 -31.5v-31h-340v31q47 0 76 31.5t29 97.5v518q0 76 -47 76q-15 0 -45 -13l-13 29l199 76q4 2 10 2q11 0 19 -8.5t8 -20.5z" />
    <glyph glyph-name="f_t" unicode="ft" 
d="M866 184l27 -16q-2 -4 -17 -26.5l-20 -30t-20.5 -28t-25 -29t-26.5 -23t-31.5 -20.5t-34 -11.5t-40.5 -5.5h-19q-76 7 -115.5 64.5t-39.5 156.5v602h-268v-657q0 -66 29 -97.5t75 -31.5v-31h-340v31q46 0 74 31t28 98v657h-102v31h102v315q0 68 28 117.5t70.5 73.5
t81 34.5t72.5 10.5q65 0 131 -27q12 -6 25 -6q18 0 35 25l26 -17l-149 -250l-27 15l19 28q35 57 35 111q0 41 -25.5 65.5t-69.5 24.5q-50 0 -84 -40t-34 -118v-362h163q63 0 105 17.5t63 52t29 73.5t8 92v95h31v-330h174v-31h-174v-616q0 -133 88 -144h10q34 0 65 33.5
t68 93.5z" />
    <glyph glyph-name="g_i" unicode="gi" horiz-adv-x="1110" 
d="M944 819v-659q0 -66 29 -97.5t76 -31.5v-31h-340v31q46 0 75 31.5t29 97.5v518q0 76 -47 76q-12 0 -47 -13l-10 29l198 76q4 2 11 2q11 0 18.5 -8.5t7.5 -20.5zM453 6q256 -56 256 -248q0 -60 -21.5 -110.5t-55.5 -85t-77.5 -59t-87 -35.5t-84.5 -11q-253 0 -383 260
l117 60q37 -121 105.5 -205t160.5 -84q88 0 147 53.5t66 120.5q2 10 2 29q0 82 -60.5 128.5t-195.5 76.5q-121 26 -175 54t-67 85q-2 8 -2 26q0 84 92 191q-79 42 -127.5 118t-48.5 165q0 132 99.5 226.5t240.5 94.5q24 0 70 -8q68 160 196.5 259t258.5 99q37 0 62.5 -25.5
t25.5 -62.5q0 -35 -25.5 -60.5t-62.5 -25.5q-50 0 -79.5 -1t-78 -6t-82 -17.5t-71 -32.5t-66 -54t-47.5 -79q105 -31 172 -116t67 -191q0 -134 -99.5 -228t-240.5 -94q-69 0 -133 25q-37 -52 -37 -101q0 -14 2 -18q3 -14 15 -26.5t37 -24t42.5 -18.5t57.5 -17t55 -13.5
t60 -13.5zM145 535q0 -121 61.5 -206t147.5 -85t146.5 85t60.5 206q0 120 -60.5 205t-146.5 85t-147.5 -85t-61.5 -205z" />
    <glyph glyph-name="i_t" unicode="it" 
d="M866 184l27 -16q-3 -4 -17.5 -26.5t-19.5 -30t-20.5 -27.5t-25 -29t-26 -23.5t-31 -20.5t-34 -11.5t-39.5 -5.5h-18q-77 7 -117.5 64t-40.5 155v604h-105v31q63 0 105.5 17.5t64 51.5t29.5 73t8 93q0 99 -60 166.5t-155 67.5q-135 0 -135 -199q0 -35 -25.5 -60.5
t-60.5 -25.5q-37 0 -62.5 25.5t-25.5 60.5q0 65 47.5 119t118 82.5t143.5 28.5q107 0 176.5 -77t69.5 -188v-235h172v-31h-172v-616q0 -70 23.5 -105.5t62.5 -38.5h10q36 0 67 34t66 93zM236 819v-659q0 -66 29 -97.5t75 -31.5v-31h-340v31q46 0 75 31.5t29 97.5v518
q0 76 -47 76q-12 0 -47 -13l-10 29l199 76q4 2 10 2q11 0 19 -8.5t8 -20.5z" />
    <glyph glyph-name="s_t" unicode="st" horiz-adv-x="1198" 
d="M1110 184l27 -16q-3 -4 -17.5 -26.5t-19.5 -30t-20.5 -27.5t-25 -29t-26 -23.5t-31 -20.5t-34 -11.5t-39.5 -5.5h-19q-77 7 -117 64t-40 155v604h-105v31q117 0 161 58.5t46 164.5q-3 114 -84.5 194.5t-196.5 80.5t-196.5 -81.5t-81.5 -197.5q0 -55 30 -107t75 -88
t72.5 -53.5t47.5 -27.5q18 -9 33 -9q25 0 43 27l26 -14l-149 -252l-27 16l17 29q22 37 22 78q0 65 -53.5 112t-134.5 47q-74 0 -118 -46.5t-44 -116.5q0 -61 50 -97.5t138 -64.5q82 -25 134.5 -47t98 -51.5t66.5 -68t21 -87.5q0 -105 -87 -178.5t-218 -73.5q-105 0 -232 65
q-18 9 -30 9q-28 0 -45 -29l-27 16l150 252l26 -16l-16 -29q-19 -31 -19 -65q0 -67 60 -119.5t133 -52.5q76 0 124 49t48 121q0 64 -50 101.5t-137 63.5q-75 23 -126.5 44t-98.5 51t-70.5 68.5t-23.5 86.5q0 104 82 175t211 71q37 0 67 -6q-100 97 -100 217q0 127 91 218
t218 91q129 0 220.5 -90.5t91.5 -218.5v-219h172v-31h-172v-616q0 -133 86 -144h10q36 0 67 34t66 93z" />
    <glyph glyph-name="t_t" unicode="tt" 
d="M868 184l25 -16q-52 -82 -80 -111q-60 -63 -133 -63h-18q-76 7 -116 64t-40 155v604h-268v-616q0 -70 23.5 -105.5t62.5 -38.5h10q36 0 67 34t66 93l27 -16q-3 -4 -17.5 -26.5t-19.5 -30t-20.5 -27.5t-25 -29t-26 -23.5t-31 -20.5t-34 -11.5t-39.5 -5.5h-19
q-77 7 -117.5 64t-40.5 155v604h-104v31q63 0 105.5 17.5t64 51.5t29.5 73t8 93v95h31v-330h163q62 0 104 17.5t63.5 51.5t29.5 73t8 93v95h31v-330h174v-31h-174v-616q0 -69 24 -105t62 -39h10q36 0 67 33t68 94z" />
    <glyph glyph-name="A_A" unicode="AA" horiz-adv-x="1906" 
d="M1440 1391l274 -1231q27 -129 131 -129v-29h-340v29q35 0 57.5 20t22.5 62q0 19 -6 43l-152 678q-27 0 -192 -5l-137 -675q-4 -28 -4 -41q0 -41 19 -61.5t50 -20.5v-29h-211v29q90 0 117 129l135 669q-346 -14 -571 -92l127 -577q32 -129 133 -129v-29h-340v29
q35 0 57.5 20.5t22.5 61.5q0 19 -6 43l-119 526q-283 -147 -354 -483l-9 -45q-4 -16 -4 -43q0 -41 19.5 -60.5t50.5 -19.5v-29h-211v29q90 0 117 129l217 1079q4 28 4 39q0 82 -102 82h-25v31h274l140 -625q231 80 585 94l78 379q4 24 4 39q0 82 -104 82h-23v31h275z
M373 1278l-174 -856q101 186 303 291l-127 567zM1327 1278l-86 -418q61 2 180 2l-92 418z" />
    <glyph glyph-name="A_B" unicode="AB" horiz-adv-x="1906" 
d="M1475 856q174 -27 272 -144t98 -280q0 -90 -31.5 -168t-90 -136.5t-147 -92t-196.5 -33.5h-428v29q47 0 76 31.5t29 97.5v669q-258 -11 -430 -73l133 -596q27 -129 133 -129v-29h-340v29q35 0 56.5 21t21.5 63q0 27 -4 41l-123 544q-278 -154 -350 -501l-9 -45
q-4 -16 -4 -43q0 -40 19 -60t49 -20v-29h-209v29q90 0 115 129l219 1079q4 28 4 39q0 82 -102 82h-25v31h274l136 -607q184 65 436 76v371q0 66 -29 97.5t-76 31.5v31h383q146 0 243 -81t97 -198q0 -86 -54.5 -155t-145.5 -101zM373 1278l-172 -850q98 195 297 301l-123 551
zM1188 1231v-369h153q98 0 149.5 70.5t51.5 179.5t-51.5 178.5t-149.5 69.5h-49q-46 0 -75 -31.5t-29 -97.5zM1712 432q0 113 -35 202.5t-110.5 144.5t-182.5 55h-196v-674q0 -66 29 -97.5t75 -31.5h92q107 0 182.5 55t110.5 144t35 202z" />
    <glyph glyph-name="A_E" unicode="AE" horiz-adv-x="1773" 
d="M1712 1112h-31v96q0 63 -45 107.5t-108 44.5h-236q-46 0 -74 -31t-28 -98v-369h78q57 0 97 41t40 98v68h31v-551h-31v176q0 58 -40 99t-97 41h-78v-674q0 -67 28 -98t74 -31h135q104 0 179 75t75 179v123h31v-406h-760v29q47 0 76 31.5t29 97.5v669q-259 -11 -428 -73
l133 -596q27 -129 131 -129v-29h-340v29q35 0 57.5 20.5t22.5 61.5q0 19 -6 43l-121 544q-281 -154 -350 -501l-11 -45q-4 -16 -4 -43q0 -41 19.5 -60.5t50.5 -19.5v-29h-211v29q90 0 117 129l217 1079q6 21 6 41q0 80 -104 80h-25v31h274l136 -607q184 65 436 76v371
q0 66 -29 97.5t-76 31.5v31h760v-279zM373 1278l-172 -850q102 197 297 301l-123 551z" />
    <glyph glyph-name="A_F" unicode="AF" horiz-adv-x="1773" 
d="M952 1391h760v-279h-31v96q0 63 -44.5 107.5t-108.5 44.5h-236q-46 0 -74 -31t-28 -98v-369h78q57 0 97 41t40 98v68h31v-551h-31v176q0 58 -40 99t-97 41h-78v-674q0 -67 28 -98t74 -31v-29h-340v29q48 0 76.5 31t28.5 98v669q-259 -11 -428 -73l133 -596
q27 -129 131 -129v-29h-340v29q35 0 57.5 20.5t22.5 61.5q0 19 -6 43l-121 544q-281 -154 -350 -501l-11 -45q-4 -28 -4 -41q0 -41 19.5 -61.5t50.5 -20.5v-29h-211v29q90 0 117 129l217 1079q6 21 6 41q0 80 -104 80h-25v31h274l138 -607q181 65 434 76v371q0 67 -28.5 98
t-76.5 31v31zM373 1278l-172 -850q102 197 297 301l-123 551z" />
    <glyph glyph-name="A_G" unicode="AG" horiz-adv-x="1882" 
d="M1821 883h-31v35q0 86 -35.5 170t-90 144.5t-120.5 98t-125 37.5q-106 0 -197.5 -76.5t-150.5 -209.5t-72 -296q87 5 207 5h615v-789h-31q0 104 -41 104q-15 0 -41 -16q-73 -49 -137.5 -72.5t-151.5 -23.5q-113 0 -216 55.5t-178 149.5t-119 224t-44 273q0 8 1 26.5
t1 27.5q-134 -14 -225 -39l123 -551q27 -129 131 -129v-29h-340v29q35 0 57.5 20t22.5 62q0 19 -6 43l-115 512q-288 -129 -356 -469l-11 -45q-4 -28 -4 -41q0 -41 19.5 -61.5t50.5 -20.5v-29h-211v29q90 0 117 129l219 1079q4 24 4 39q0 82 -104 82h-23v31h274l144 -650
q113 27 235 39q16 172 93 313.5t198.5 223.5t261.5 82q163 0 305 -121q31 -27 43 -27q23 0 23 60h31v-428zM375 1278l-174 -858q97 186 305 276l-129 584zM1538 760h-332q-139 0 -209 -4q-2 -18 -2 -60q0 -182 57 -337t154.5 -244.5t212.5 -89.5q98 0 184.5 75.5t86.5 196.5
v309q0 63 -44.5 108.5t-107.5 45.5z" />
    <glyph glyph-name="A_H" unicode="AH" horiz-adv-x="1906" 
d="M1845 1391v-31q-46 0 -75 -31.5t-29 -97.5v-1071q0 -66 29 -97.5t75 -31.5v-29h-340v29q47 0 76 31.5t29 97.5v674h-422v-674q0 -66 29 -97.5t75 -31.5v-29h-340v29q47 0 76 31.5t29 97.5v669q-258 -11 -430 -73l133 -596q27 -129 133 -129v-29h-340v29q35 0 56.5 21
t21.5 63q0 27 -4 41l-123 544q-278 -154 -350 -501l-9 -45q-4 -16 -4 -43q0 -40 19 -60t49 -20v-29h-209v29q90 0 115 129l219 1079q4 28 4 39q0 82 -102 82h-25v31h274l136 -607q184 65 436 76v371q0 66 -29 97.5t-76 31.5v31h340v-31q-46 0 -75 -31.5t-29 -97.5v-369h422
v369q0 66 -29 97.5t-76 31.5v31h340zM373 1278l-172 -850q98 195 297 301l-123 551z" />
    <glyph glyph-name="A_P" unicode="AP" horiz-adv-x="1906" 
d="M952 1391h553q146 0 243 -81t97 -198t-97 -197.5t-243 -80.5h-317v-674q0 -66 29 -97.5t75 -31.5v-29h-340v29q47 0 76 31.5t29 97.5v669q-258 -11 -430 -73l133 -596q32 -129 133 -129v-29h-340v29q35 0 57.5 20.5t22.5 61.5q0 19 -6 43l-123 544q-278 -154 -350 -501
l-9 -45q-4 -16 -4 -43q0 -40 19 -60t49 -20v-29h-209v29q90 0 115 129l219 1079q4 28 4 39q0 82 -102 82h-25v31h274l136 -607q184 65 436 76v371q0 66 -29 97.5t-76 31.5v31zM373 1278l-172 -850q102 197 297 301l-123 551zM1188 862h323q98 0 150.5 70.5t52.5 179.5
q0 108 -52.5 178t-150.5 70h-219q-46 0 -75 -31.5t-29 -97.5v-369z" />
    <glyph glyph-name="A_Q" unicode="AQ" horiz-adv-x="2035" 
d="M1458 -143q33 -33 98 -33q106 0 236 67l51 -122q-119 -25 -201 -25q-158 0 -223 80q-43 54 -43 133q0 27 2 39q-141 12 -258.5 106.5t-186.5 249t-71 334.5q-106 -18 -209 -51l107 -475q27 -129 133 -129v-29h-340v29q34 0 56 20t22 62q0 19 -6 43l-95 432
q-324 -142 -372 -371l-13 -63q-4 -16 -4 -43q0 -40 19 -60t49 -20v-29h-209v29q90 0 115 129l219 1079q4 24 4 39q0 82 -102 82h-25v31h274l162 -727q99 33 215 53q4 187 79 343.5t202 247.5t276 91q151 0 279 -94.5t202 -256.5t74 -352q0 -143 -44 -273t-118 -224
t-177 -149.5t-216 -55.5h-4v-10q0 -78 43 -127zM514 614q4 0 8 4l-147 666l-187 -917q97 147 326 247zM1419 1368q-112 0 -207.5 -85t-153.5 -231.5t-63 -320.5q95 10 156 10q246 0 330 -118q43 -57 43 -144q0 -40 -10.5 -93.5t-19.5 -83.5t-30 -99q-39 -122 -45 -178
q115 0 212.5 89.5t154.5 244.5t57 337t-57 337t-154.5 245t-212.5 90zM993 700v-4q0 -173 52 -322t141.5 -241.5t197.5 -105.5q9 50 50 186q21 65 30 95.5t19 81.5t10 89q0 76 -37 127q-76 105 -303 105q-79 0 -160 -11z" />
    <glyph glyph-name="A_R" unicode="AR" horiz-adv-x="1906" 
d="M1743 545v-385q0 -67 28 -98t74 -31v-29q-44 0 -81 8t-74 28t-58.5 61.5t-21.5 101.5v344q0 52 -3.5 88.5t-17.5 77.5t-39 65.5t-70.5 41t-109.5 16.5h-180v-674q0 -67 28 -98t76 -31v-29h-340v29q46 0 74.5 31t28.5 98v669q-259 -11 -428 -73l133 -596q27 -129 131 -129
v-29h-340v29q35 0 57.5 20.5t22.5 61.5q0 19 -6 43l-121 544q-281 -154 -350 -501l-11 -45q-4 -28 -4 -41q0 -41 19.5 -61.5t50.5 -20.5v-29h-211v29q90 0 117 129l217 1079q6 21 6 41q0 80 -104 80h-25v31h274l138 -607q181 65 434 76v371q0 67 -28.5 98t-74.5 31v31h551
q147 0 243.5 -81t96.5 -198q0 -105 -80 -183t-206 -93q184 -65 184 -291zM373 1278l-172 -850q102 197 297 301l-123 551zM1190 862h321q98 0 150.5 70.5t52.5 179.5q0 108 -52.5 178t-150.5 70h-217q-48 0 -76 -31t-28 -98v-369z" />
    <glyph glyph-name="A_S" unicode="AS" horiz-adv-x="1499" 
d="M1055 821q83 -56 132.5 -93t103.5 -84.5t82 -87.5t46.5 -89.5t18.5 -104.5q0 -222 -159.5 -360.5t-424.5 -138.5q-216 0 -377 88q-169 93 -217 258q-14 46 -14 102q0 94 41 181q69 144 215 217l-127 571l-2 -2l-230 -1124q-4 -28 -4 -41q0 -41 19.5 -61.5t50.5 -20.5v-29
h-209v29q90 0 115 129l219 1079q4 24 4 39q0 82 -105 82h-22v31h274l275 -1231q27 -129 131 -129v-29h-340v29q35 0 57.5 20t22.5 62q0 19 -6 43l-117 522q-112 -59 -172 -161t-60 -210q0 -43 13 -90q43 -148 196.5 -235.5t368.5 -87.5q84 0 158 24.5t127.5 65.5t91.5 95
t57 113t19 119q0 57 -16.5 104.5t-51.5 90t-76 76.5t-104 77q-187 129 -284 237t-97 218q0 120 98.5 202.5t253.5 82.5q134 0 283 -76q16 -8 33 -8q28 0 45 28l26 -16l-151 -250l-25 15l16 28q19 32 19 62q0 72 -75 129t-171 57q-100 0 -160.5 -59t-60.5 -144t68 -177
t178 -167z" />
    <glyph glyph-name="L_A" unicode="LA" horiz-adv-x="1304" 
d="M836 1391l276 -1231q27 -129 131 -129v-29h-340v29q35 0 57.5 20.5t22.5 61.5q0 19 -6 43l-117 524h-258l-57 -285q-4 -16 -4 -41q0 -41 19 -60.5t50 -19.5v-30h-211v30q90 0 117 129l168 836q6 21 6 41q0 80 -104 80h-25v31h275zM608 711h244l-127 573zM727 285v123h31
v-406h-758v29q46 0 74 31t28 98v1071q0 67 -28 98t-74 31v31h340v-31q-46 0 -75 -31.5t-29 -97.5v-1071q0 -66 29 -97.5t75 -31.5h133q104 0 179 75t75 179z" />
    <glyph glyph-name="L_N" unicode="LN" horiz-adv-x="1353" 
d="M1083 1391h209v-31q-40 0 -65 -31.5t-25 -97.5v-1229h-31l-651 1239v-838q0 -66 25 -97.5t65 -31.5v-30h-211v30q90 0 90 129v828q0 129 -90 129v31h191l581 -1106v946q0 67 -24 98t-64 31v31zM727 285v123h31v-406h-758v29q46 0 75 31.5t29 97.5v1071q0 66 -29 97.5
t-75 31.5v31h340v-31q-46 0 -75 -31.5t-29 -97.5v-1071q0 -66 29 -97.5t75 -31.5h133q105 0 179.5 74.5t74.5 179.5z" />
    <glyph glyph-name="N_T" unicode="NT" horiz-adv-x="1607" 
d="M682 1169v29h211v-29q-90 0 -90 -129v-1038h-31l-651 1239v-1081q0 -67 24 -98t64 -31v-29h-209v29q40 0 65 31.5t25 97.5v1071q0 66 -25 97.5t-65 31.5v31h190l582 -1106v755q0 66 -25 97.5t-65 31.5zM473 1391h1073v-279h-30v96q0 63 -44.5 107.5t-107.5 44.5h-72
q-46 0 -75 -31.5t-29 -97.5v-1071q0 -66 29 -97.5t75 -31.5v-29h-340v29q47 0 76 31.5t29 97.5v1071q0 66 -29 97.5t-76 31.5h-297q-63 0 -107 -44.5t-44 -107.5v-96h-31v279z" />
    <glyph glyph-name="R_A" unicode="RA" horiz-adv-x="1888" 
d="M1421 1391l275 -1231q27 -129 131 -129v-29h-340v29q35 0 57.5 20t22.5 62q0 19 -6 43l-250 1124l-2 -4l-115 -563q73 -33 131.5 -95t95.5 -143q47 -106 47 -219q0 -46 -10 -98q-35 -165 -147 -246q-100 -74 -244 -74q-202 0 -306 106.5t-104 311.5v289q0 53 -3.5 88.5
t-17 77t-38.5 66t-70.5 41t-109.5 16.5h-182v-674q0 -66 29 -97.5t75 -31.5v-29h-340v29q46 0 75 31.5t29 97.5v1071q0 66 -29 97.5t-75 31.5v31h553q146 0 243 -81t97 -198q0 -105 -81 -183t-208 -93q184 -64 184 -291v-330q0 -152 74.5 -249t204.5 -97q38 0 75 5.5
t84 24.5t84 50t69.5 86.5t47.5 128.5q11 53 11 92q0 129 -65.5 248t-184.5 178l-109 -530q-4 -28 -4 -39q0 -41 19.5 -61.5t50.5 -20.5v-29h-211v29q92 0 117 129l219 1079q4 24 4 39q0 82 -105 82h-22v31h274zM236 862h323q98 0 149.5 70.5t51.5 179.5t-51.5 178.5
t-149.5 69.5h-219q-46 0 -75 -31.5t-29 -97.5v-369z" />
    <glyph glyph-name="R_S" unicode="RS" horiz-adv-x="1851" 
d="M1407 821q83 -56 132.5 -93t103.5 -84.5t82 -87.5t46.5 -89.5t18.5 -104.5q0 -91 -42 -180t-116 -160t-185.5 -115t-240.5 -44q-82 0 -158 14t-148 48t-125.5 85t-85.5 130.5t-32 178.5v226q0 53 -3.5 88.5t-17 77t-38.5 66t-70.5 41t-109.5 16.5h-182v-674
q0 -66 29 -97.5t75 -31.5v-29h-340v29q46 0 75 31.5t29 97.5v1071q0 66 -29 97.5t-75 31.5v31h553q146 0 243 -81t97 -198q0 -105 -80 -183t-207 -93q182 -64 182 -291v-266q0 -96 35 -171.5t94.5 -121t133 -69t155.5 -23.5q84 0 158.5 28t127 73t91.5 100.5t57.5 111.5
t18.5 104q0 75 -32.5 137.5t-82 107.5t-135.5 103q-187 129 -284 237t-97 218q0 119 99.5 202t254.5 83q134 0 283 -76q16 -8 33 -8q28 0 45 28l24 -16l-149 -250l-27 15l19 28q16 27 16 62q0 71 -74 128.5t-170 57.5q-100 0 -160.5 -59t-60.5 -144t68 -177t178 -167z
M236 862h323q98 0 150.5 70.5t52.5 179.5q0 108 -52.5 178t-150.5 70h-219q-46 0 -75 -31.5t-29 -97.5v-369z" />
    <glyph glyph-name="S_A" unicode="SA" horiz-adv-x="1730" 
d="M1262 1393l276 -1231q27 -129 131 -129v-31h-340v31q35 0 57.5 20.5t22.5 61.5q0 19 -6 43l-19 84q-43 96 -138 213.5t-220 214.5l-104 -514q-4 -28 -4 -41q0 -41 19 -61.5t50 -20.5v-31h-211v31q90 0 117 129l106 530q-268 197 -536 197q-59 0 -111 -15q20 -19 88 -69
q216 -147 299.5 -251t83.5 -224q0 -98 -52 -175.5t-133.5 -118t-174.5 -40.5q-125 0 -231.5 62t-169 168t-62.5 231q0 116 54 216t145 165q-138 138 -138 260q0 121 101 212t254 91q133 0 282 -76q16 -8 33 -8q28 0 45 29l25 -17l-150 -252l-26 17l18 28q16 27 16 62
q0 71 -73.5 128.5t-169.5 57.5q-98 0 -159.5 -67t-61.5 -154q0 -119 131 -250q64 21 137 21q269 0 543 -195l106 516q4 24 4 39q0 82 -104 82h-23v31h273zM442 643q-126 87 -221 172q-88 -60 -139 -154t-51 -204q0 -178 126.5 -304t305.5 -126q101 0 165 79.5t64 174.5
q0 109 -62.5 193.5t-187.5 168.5zM1067 678q181 -149 293 -328l-209 932v-2l-117 -575q3 -3 33 -27z" />
    <glyph glyph-name="S_T" unicode="ST" horiz-adv-x="1439" 
d="M354 1397h1024v-279h-30v96q0 63 -44.5 108.5t-107.5 45.5h-72q-46 0 -75 -31.5t-29 -97.5v-1071q0 -66 29 -97.5t75 -31.5v-31h-340v31q47 0 76 31.5t29 97.5v1071q0 66 -29 97.5t-76 31.5h-430q-100 0 -160.5 -56.5t-60.5 -140.5q0 -85 68 -177t178 -167
q84 -57 132.5 -92.5t103.5 -83.5t82.5 -87.5t46 -89.5t18.5 -105q0 -171 -107 -270t-254 -99q-44 0 -84.5 9t-74.5 27t-55.5 31.5t-48.5 34.5t-32 25q-11 8 -24 8q-30 0 -55 -35l-27 17l203 340l26 -17l-53 -88q-24 -44 -24 -90q0 -89 70.5 -160t178.5 -71q103 0 166.5 82
t63.5 204q0 109 -60.5 185.5t-189.5 163.5q-188 129 -284.5 236.5t-96.5 217.5q0 119 99 198t255 79z" />
    <glyph glyph-name="U_T" unicode="UT" horiz-adv-x="1607" 
d="M473 1391h1073v-279h-30v96q0 63 -44.5 107.5t-107.5 44.5h-72q-46 0 -75 -31.5t-29 -97.5v-1071q0 -66 29 -97.5t75 -31.5v-29h-340v29q47 0 76 31.5t29 97.5v1071q0 66 -29 97.5t-76 31.5h-297q-63 0 -107 -44.5t-44 -107.5v-96h-31v279zM682 1169v29h209v-29
q-40 0 -64 -31t-24 -98v-741q0 -123 -88 -210t-211 -87q-88 0 -156.5 18.5t-125.5 61t-87.5 120t-30.5 187.5v842q0 66 -29 97.5t-75 31.5v31h340v-31q-46 0 -75 -31.5t-29 -97.5v-885q0 -166 73.5 -240.5t194.5 -74.5q110 0 189 79t79 189v741q0 66 -25 97.5t-65 31.5z" />
    <glyph glyph-name="V_T" unicode="VT" horiz-adv-x="1570" 
d="M434 1391h1075v-279h-30v96q0 63 -44.5 107.5t-107.5 44.5h-72q-46 0 -75 -31.5t-29 -97.5v-1071q0 -66 29 -97.5t75 -31.5v-29h-340v29q46 0 74.5 31t28.5 98v1071q0 67 -28.5 98t-74.5 31h-297q-64 0 -108.5 -44.5t-44.5 -107.5v-96h-31v279zM645 1169v29h209v-29
q-90 0 -115 -129l-211 -1038h-120l-275 1229q-27 129 -133 129v31h340v-31q-35 0 -56.5 -21t-21.5 -63q0 -13 4 -41l252 -1126l191 938q4 16 4 43q0 40 -19 59.5t-49 19.5z" />
    <glyph glyph-name="W_T" unicode="WT" horiz-adv-x="2072" 
d="M936 1391h1075v-279h-31v96q0 63 -45 107.5t-108 44.5h-70q-48 0 -76 -31t-28 -98v-1071q0 -67 28 -98t76 -31v-29h-340v29q46 0 74.5 31t28.5 98v1071q0 67 -28.5 98t-74.5 31h-299q-63 0 -107 -44.5t-44 -107.5v-96h-31v279zM1145 1169v29h211v-29q-90 0 -115 -129
l-211 -1038h-121l-200 893l-181 -893h-120l-275 1229q-32 129 -133 129v31h340v-31q-35 0 -57.5 -20.5t-22.5 -61.5q0 -19 6 -43l252 -1126l174 860l-57 262q-32 129 -133 129v31h340v-31q-35 0 -57.5 -20.5t-22.5 -61.5q0 -19 6 -43l252 -1126l190 938q4 16 4 43
q0 79 -69 79z" />
    <glyph glyph-name="X_T" unicode="XT" horiz-adv-x="1607" 
d="M473 1391h1073v-279h-30v96q0 63 -44.5 107.5t-107.5 44.5h-72q-46 0 -75 -31.5t-29 -97.5v-1071q0 -66 29 -97.5t75 -31.5v-29h-340v29q47 0 76 31.5t29 97.5v1071q0 66 -29 97.5t-76 31.5h-297q-63 0 -107 -44.5t-44 -107.5v-96h-31v279zM506 723l239 -567
q51 -125 148 -125v-29h-340v29q27 0 45 15.5t18 45.5q0 25 -16 68l-199 471l-227 -471q-22 -43 -22 -74q0 -28 16 -41.5t41 -13.5v-29h-209v29q78 0 133 119l252 518l-238 569q-52 123 -147 123v31h340v-31q-28 0 -46 -15.5t-18 -46.5q0 -29 17 -67l196 -471l138 280
q20 44 20 74q0 28 -16 41.5t-41 13.5v29h209v-29q-78 0 -133 -118z" />
    <glyph glyph-name="Y_T" unicode="YT" horiz-adv-x="1507" 
d="M582 1169v29h209v-29q-76 0 -146 -129l-115 -219v-661q0 -67 28.5 -98t74.5 -31v-29h-340v29q46 0 75 31.5t29 97.5v626l-235 445q-70 129 -162 129v31h340v-31q-24 0 -39.5 -12.5t-15.5 -38.5q0 -27 24 -74l203 -383l100 192q25 48 25 74t-15.5 38.5t-39.5 12.5z
M461 1391h985v-279h-31v96q0 63 -44 107.5t-107 44.5h-72q-47 0 -76 -31.5t-29 -97.5v-1071q0 -66 29 -97.5t76 -31.5v-29h-340v29q46 0 74 31t28 98v1071q0 67 -28 98t-74 31h-209q-63 0 -108.5 -44.5t-45.5 -107.5v-96h-28v279z" />
    <glyph glyph-name=".notdef" horiz-adv-x="61" 
 />
    <glyph glyph-name=".null" horiz-adv-x="0" 
 />
    <glyph glyph-name="nonmarkingreturn" horiz-adv-x="682" 
 />
    <glyph glyph-name="space" unicode=" " horiz-adv-x="409" 
 />
    <glyph glyph-name="space" unicode="&#xa0;" horiz-adv-x="409" 
 />
    <glyph glyph-name="exclam" unicode="!" horiz-adv-x="194" 
d="M68 133q27 0 46 -19t19 -46q0 -28 -19.5 -47t-45.5 -19q-28 0 -48 19t-20 47q0 27 20 46t48 19zM82 283h-31l-51 1101h133z" />
    <glyph glyph-name="quotedbl" unicode="&#x22;" horiz-adv-x="356" 
d="M66 1391q28 0 46.5 -19t18.5 -47q0 -49 -24 -81.5t-54 -45.5l-6 12q19 14 19 29q0 16 -23 25q-19 6 -31 23t-12 38q0 28 19 47t47 19zM229 1391q28 0 47 -19t19 -47q0 -49 -24 -81.5t-54 -45.5l-6 12q18 14 18 29q0 17 -22 25q-19 6 -31 23t-12 38q0 28 18.5 47t46.5 19z
" />
    <glyph glyph-name="numbersign" unicode="#" horiz-adv-x="1941" 
d="M1864 918h-510l-250 -443h510l-19 -31h-508l-249 -442h-35l250 442h-510l-250 -442h-35l250 442h-508l16 31h508l252 443h-510l19 30h508l249 443h35l-250 -443h510l250 443h35l-250 -443h508zM1069 475l250 443h-508l-250 -443h508z" />
    <glyph glyph-name="dollar" unicode="$" horiz-adv-x="823" 
d="M395 1366v-557q79 -54 127 -89.5t99 -82t78.5 -85.5t45 -88t17.5 -102q0 -115 -52.5 -200.5t-133 -126.5t-175.5 -41h-6v-115h-28v117q-38 3 -73.5 13.5t-65.5 27.5t-49 29t-44 32t-29 23q-11 8 -24 8q-30 0 -55 -35l-27 17l203 340l26 -17l-53 -88q-24 -44 -24 -90
q0 -82 60 -149.5t155 -79.5v643q-180 125 -273.5 231t-93.5 213q0 119 99.5 202t254.5 83h13v114h28v-116q103 -7 242 -72q20 -10 33 -10q24 0 43 28l26 -16l-149 -250l-27 15l19 30q16 27 16 60q0 63 -59 117t-144 67zM133 1165q0 -82 64.5 -171.5t169.5 -162.5v537h-13
q-101 0 -161 -59t-60 -144zM395 25h6q103 0 166.5 82t63.5 204q0 72 -30.5 133t-78 105.5t-127.5 99.5v-624z" />
    <glyph glyph-name="percent" unicode="%" horiz-adv-x="878" 
d="M35 2h-35l782 1387h35zM565 535q66 0 112 -78t46 -189q0 -110 -46 -188t-112 -78q-65 0 -111 78t-46 188t46 188.5t111 78.5zM565 12q44 0 75.5 75t31.5 181t-31.5 181t-75.5 75t-75 -75t-31 -181t31 -181t75 -75zM250 1391q65 0 111.5 -78.5t46.5 -188.5t-46.5 -188
t-111.5 -78t-111.5 78t-46.5 188t46.5 188.5t111.5 78.5zM250 868q44 0 75 75t31 181t-31 181t-75 75t-75.5 -75t-31.5 -181t31.5 -181t75.5 -75z" />
    <glyph glyph-name="ampersand" unicode="&#x26;" horiz-adv-x="1024" 
d="M963 2h-132q0 97 -51 209q-47 -94 -143 -155.5t-223 -61.5q-113 0 -208 63t-150.5 171t-55.5 235q0 130 58.5 240t156.5 171q-90 128 -90 246q0 117 103.5 198t258.5 81q161 0 262 -89t101 -233h-131q0 80 -24.5 144t-78 105.5t-129.5 41.5q-111 0 -170 -74t-59 -174
q0 -49 23 -101t71.5 -111t93 -106t118.5 -121.5t118 -121.5v141h133v-301q148 -205 148 -397zM682 344v18q-65 83 -218 234t-212 225q-55 -60 -88 -154t-33 -204q0 -181 83 -309.5t200 -128.5q102 0 185 91.5t83 227.5z" />
    <glyph glyph-name="quotesingle" unicode="'" horiz-adv-x="192" 
d="M66 1391q28 0 46.5 -19t18.5 -47q0 -49 -24 -81.5t-54 -45.5l-6 12q19 14 19 29q0 16 -23 25q-19 6 -31 23t-12 38q0 28 19 47t47 19z" />
    <glyph glyph-name="parenleft" unicode="(" horiz-adv-x="446" 
d="M385 1481v-31q-71 0 -120.5 -54t-78 -157t-41 -235.5t-12.5 -307.5t12.5 -307t41 -235.5t78 -157t120.5 -53.5v-29q-385 0 -385 782q0 785 385 785z" />
    <glyph glyph-name="parenright" unicode=")" horiz-adv-x="446" 
d="M0 -86v29q71 0 120.5 53.5t78 157t41 235.5t12.5 307t-12.5 307.5t-41 235.5t-78 157t-120.5 54v31q385 0 385 -785q0 -782 -385 -782z" />
    <glyph glyph-name="asterisk" unicode="*" horiz-adv-x="546" 
d="M485 1212l-225 -90l168 -184l-63 -47l-123 219l-121 -219l-64 47l168 184l-225 90l37 70l194 -137l-28 246h80l-31 -246l197 137z" />
    <glyph glyph-name="plus" unicode="+" horiz-adv-x="563" 
d="M502 440v-30h-236v-236h-30v236h-236v30h236v236h30v-236h236z" />
    <glyph glyph-name="comma" unicode="," horiz-adv-x="194" 
d="M68 133q27 0 46 -19t19 -46q0 -49 -24.5 -81.5t-55.5 -45.5l-6 12q19 11 19 29q0 15 -21 24q-20 6 -32.5 23t-12.5 39q0 27 20 46t48 19z" />
    <glyph glyph-name="hyphenminus" unicode="-" horiz-adv-x="563" 
d="M502 440v-30h-502v30h502z" />
    <glyph glyph-name="hyphenminus" unicode="&#xad;" horiz-adv-x="563" 
d="M502 440v-30h-502v30h502z" />
    <glyph glyph-name="period" unicode="." horiz-adv-x="194" 
d="M68 133q28 0 46.5 -18.5t18.5 -46.5t-18.5 -47t-46.5 -19t-48 19t-20 47q0 27 20 46t48 19z" />
    <glyph glyph-name="slash" unicode="/" horiz-adv-x="880" 
d="M35 0h-35l784 1393h35z" />
    <glyph glyph-name="zero" unicode="0" horiz-adv-x="888" 
d="M414 1399q112 0 207 -94t150.5 -256t55.5 -353q0 -190 -55.5 -352t-150.5 -256t-207 -94q-113 0 -208 94t-150.5 256t-55.5 352q0 191 55.5 353t150.5 256t208 94zM414 25q77 0 141.5 90t101.5 244t37 337t-37 337.5t-101.5 244.5t-141.5 90t-142 -90t-103 -245t-38 -337
t38 -337t103 -244.5t142 -89.5z" />
    <glyph glyph-name="one" unicode="1" horiz-adv-x="532" 
d="M301 1391v-1190q2 -69 51.5 -118.5t118.5 -49.5v-31h-471v31q70 0 120 49.5t50 118.5v987q0 129 -74 129q-28 0 -84 -23l-12 29l170 68h131z" />
    <glyph glyph-name="two" unicode="2" horiz-adv-x="847" 
d="M756 297v74h30v-369h-786q0 101 34.5 196.5t90 173t122 152.5t133.5 145.5t122.5 140t90 149.5t34.5 161q0 100 -59.5 174t-170.5 74q-112 0 -170.5 -83.5t-58.5 -207.5h-133q0 144 101.5 233t260.5 89q155 0 259 -81t104 -198q0 -89 -33 -171t-88.5 -148t-122.5 -128.5
t-139.5 -124t-136.5 -123t-116 -137.5t-75 -155h543q68 0 116 48.5t48 115.5z" />
    <glyph glyph-name="three" unicode="3" horiz-adv-x="876" 
d="M514 913q132 -42 216.5 -166t84.5 -284q0 -193 -122 -331t-292 -138q-90 0 -167.5 32.5t-127.5 84t-78 113t-28 120.5h133q0 -136 83 -227.5t185 -91.5q117 0 199 128t82 310t-82 310t-199 128h-92v31h92q95 0 162.5 64t67.5 155q0 89 -67.5 153t-162.5 64t-163 -64
t-68 -153h-131q0 103 105.5 175.5t256.5 72.5q149 0 255 -72.5t106 -175.5q0 -82 -69 -147.5t-179 -90.5z" />
    <glyph glyph-name="four" unicode="4" horiz-adv-x="876" 
d="M711 406v-244q0 -66 29 -97.5t75 -31.5v-31h-340v31q47 0 76 31.5t29 97.5v244h-580v30l580 955h131v-955h104v-30h-104zM37 436h543v897z" />
    <glyph glyph-name="five" unicode="5" horiz-adv-x="874" 
d="M43 1391h696v-369h-30v74q0 68 -48.5 116t-115.5 48h-475l-19 -592q47 121 137.5 192.5t210.5 71.5q113 0 208 -63t150.5 -171t55.5 -235t-55.5 -235t-150.5 -171t-208 -63q-89 0 -166.5 32.5t-127 84t-77.5 113t-28 120.5h131q0 -136 83 -227.5t185 -91.5
q117 0 200 128.5t83 309.5t-83 309.5t-200 128.5q-110 0 -207 -112t-110 -271l-66 4z" />
    <glyph glyph-name="six" unicode="6" horiz-adv-x="888" 
d="M0 541q0 200 54 365.5t141 269t192 159.5t213 56v-29q-122 0 -237 -142.5t-177 -365.5q105 78 228 78q171 0 292 -137.5t121 -331.5t-121 -331.5t-292 -137.5q-85 0 -160.5 37.5t-132 106t-89 172.5t-32.5 231zM133 463q0 -182 82 -310t199 -128t199.5 128t82.5 310
t-82.5 310t-199.5 128q-80 0 -136.5 -33.5t-87 -96t-44 -137.5t-13.5 -171z" />
    <glyph glyph-name="seven" unicode="7" horiz-adv-x="847" 
d="M336 2h-131q0 122 44.5 257.5t113.5 262.5t141.5 247.5t141 252.5t99.5 238h-550q-67 0 -115.5 -48t-48.5 -116v-74h-31v369h786q0 -136 -46.5 -279.5t-112.5 -270.5t-132 -255.5t-112.5 -281t-46.5 -302.5z" />
    <glyph glyph-name="eight" unicode="8" horiz-adv-x="888" 
d="M526 772q132 -34 216.5 -140t84.5 -241q0 -164 -120.5 -280.5t-292.5 -116.5q-170 0 -292 116.5t-122 280.5q0 135 85.5 241t217.5 140q-110 33 -180 116.5t-70 188.5q0 133 106 227.5t255 94.5q151 0 256.5 -94t105.5 -228q0 -105 -70 -188.5t-180 -116.5zM184 1077
q0 -120 67.5 -204.5t162.5 -84.5t163 84.5t68 204.5q0 121 -67.5 206t-163.5 85q-95 0 -162.5 -85t-67.5 -206zM414 25q117 0 199.5 107t82.5 259t-82.5 259.5t-199.5 107.5t-199 -107.5t-82 -259.5t82 -259t199 -107z" />
    <glyph glyph-name="nine" unicode="9" horiz-adv-x="888" 
d="M827 844q0 -200 -54 -365.5t-141 -269t-192 -159.5t-213 -56v31q122 0 237 142t177 365q-104 -77 -227 -77q-113 0 -208 62.5t-150.5 170t-55.5 234.5q0 128 55.5 236t150.5 170.5t208 62.5q177 0 295 -147t118 -400zM694 922q0 183 -81.5 311.5t-198.5 128.5
t-200 -128.5t-83 -311.5q0 -181 83 -310t200 -129q65 0 114 23t80 61.5t51 95.5t27.5 120t7.5 139z" />
    <glyph glyph-name="colon" unicode=":" horiz-adv-x="194" 
d="M68 299q28 0 46.5 -19t18.5 -47t-18.5 -46.5t-46.5 -18.5t-48 19t-20 46q0 28 20 47t48 19zM68 682q28 0 46.5 -19t18.5 -47t-18.5 -46.5t-46.5 -18.5t-48 19t-20 46q0 28 20 47t48 19z" />
    <glyph glyph-name="semicolon" unicode=";" horiz-adv-x="194" 
d="M68 682q26 0 45.5 -19t19.5 -47q0 -27 -19 -46t-46 -19q-28 0 -48 19t-20 46q0 28 20 47t48 19zM68 299q26 0 45.5 -19.5t19.5 -46.5q0 -50 -24 -82t-56 -45l-6 13q19 11 19 28q0 16 -21 25q-20 6 -32.5 22.5t-12.5 38.5q0 28 20 47t48 19z" />
    <glyph glyph-name="less" unicode="&#x3c;" horiz-adv-x="520" 
d="M0 426l446 229l13 -26l-391 -203l391 -205l-13 -26z" />
    <glyph glyph-name="equal" unicode="=" horiz-adv-x="524" 
d="M0 276v31h463v-31h-463zM0 573h463v-30h-463v30z" />
    <glyph glyph-name="greater" unicode="&#x3e;" horiz-adv-x="520" 
d="M459 426l-445 -231l-14 26l393 205l-393 203l14 26z" />
    <glyph glyph-name="question" unicode="?" horiz-adv-x="786" 
d="M592 1114q0 63 -23.5 117.5t-77.5 92.5t-129 38q-112 0 -170.5 -83.5t-58.5 -207.5h-133q0 142 101.5 231t260.5 89q156 0 259.5 -80.5t103.5 -196.5q0 -69 -20 -131t-52.5 -111t-71 -97t-77.5 -99t-71.5 -106t-52.5 -129t-20 -158h-30q0 100 14.5 185t37.5 144t51 110.5
t56 95t51 86.5t37.5 96.5t14.5 113.5zM344 133q28 0 48 -19t20 -46q0 -28 -20 -47t-48 -19q-26 0 -45.5 19t-19.5 47q0 27 19 46t46 19z" />
    <glyph glyph-name="at" unicode="@" horiz-adv-x="931" 
d="M856 528q6 -37 6 -69q0 -94 -45 -156q-3 -10 -12 -16q-32 -40 -92.5 -68.5t-122.5 -28.5h-45q-12 0 -20.5 8.5t-8.5 20.5v27q-41 -60 -125 -60q-27 0 -53 5t-54 16.5t-45.5 36t-17.5 59.5q0 102 193 141q74 17 90 32q10 9 12 22q-1 79 -24.5 114t-69.5 35q-38 0 -67 -31
t-29 -71q0 -22 12 -43l8 -15l-14 -10l-82 139l14 11q11 -19 27 -19q7 0 16 6q64 50 115 50q74 0 121 -40.5t47 -131.5v-213q0 -20 14 -35t33 -15q8 0 12 2q83 16 133 74q49 61 49 152q0 31 -6 65q-34 133 -142.5 219t-248.5 86q-166 0 -284.5 -117.5t-118.5 -283.5v-23
q7 -153 117 -262t264 -118h22q106 0 197 51l20 -23q-95 -59 -217 -59q-180 0 -307 127t-127 307q0 179 127 305.5t307 126.5q151 0 267.5 -92.5t152.5 -235.5q0 -2 2 -2zM516 301v162q-21 -19 -98 -35q-57 -12 -90 -40t-33 -85q0 -47 26.5 -73.5t69.5 -26.5q51 0 88 29
t37 69z" />
    <glyph glyph-name="A" unicode="A" 
d="M485 1391l277 -1231q27 -129 131 -129v-29h-340v29q35 0 57.5 20t22.5 62q0 19 -6 43l-117 524h-258l-107 -526q-4 -28 -4 -41q0 -41 19.5 -61.5t50.5 -20.5v-29h-211v29q90 0 117 129l219 1079q4 24 4 39q0 82 -104 82h-23v31h272zM258 711h246l-129 573z" />
    <glyph glyph-name="B" unicode="B" 
d="M522 856q174 -27 272.5 -144t98.5 -280q0 -185 -124.5 -307.5t-340.5 -122.5h-428v29q46 0 75 31.5t29 97.5v1071q0 66 -29 97.5t-75 31.5v31h383q146 0 243 -81t97 -198q0 -86 -54.5 -154.5t-146.5 -101.5zM389 1360h-49q-46 0 -75 -31.5t-29 -97.5v-369h153
q98 0 149.5 70.5t51.5 179.5t-51.5 178.5t-149.5 69.5zM762 432q0 113 -35.5 202.5t-111.5 144.5t-183 55h-196v-674q0 -66 29 -97.5t75 -31.5h92q107 0 183 55t111.5 144t35.5 202z" />
    <glyph glyph-name="C" unicode="C" horiz-adv-x="1019" 
d="M862 1278q31 -27 43 -27q23 0 23 60h30v-428h-30v35q0 86 -35.5 170t-90 144.5t-120.5 98t-125 37.5q-115 0 -212.5 -90t-154.5 -245t-57 -337t57 -337t154.5 -244.5t212.5 -89.5q59 0 125 37.5t120.5 98t90 144.5t35.5 170v33h30v-426h-30q0 57 -23 57q-13 0 -43 -26
q-144 -119 -305 -119q-113 0 -216 55.5t-178 149.5t-119 224t-44 273q0 190 74.5 352t203 256.5t279.5 94.5q163 0 305 -121z" />
    <glyph glyph-name="D" unicode="D" horiz-adv-x="1097" 
d="M0 1391h399q137 0 245.5 -36t181 -98t120.5 -151t69 -190.5t21 -219.5q0 -150 -34.5 -272t-108 -218.5t-199 -150t-295.5 -53.5h-399v29q46 0 75 31.5t29 97.5v1071q0 66 -29 97.5t-75 31.5v31zM905 696q0 113 -17 210t-55.5 182t-96.5 144.5t-144 93.5t-193 34h-59
q-46 0 -75 -31.5t-29 -97.5v-1071q0 -66 29 -97.5t75 -31.5h59q107 0 193 34t144 94t96.5 144.5t55.5 182t17 210.5z" />
    <glyph glyph-name="E" unicode="E" horiz-adv-x="821" 
d="M0 1391h760v-279h-31v96q0 63 -45.5 107.5t-108.5 44.5h-235q-46 0 -74 -31t-28 -98v-369h75q58 0 99 41t41 98v68h30v-551h-30v176q0 58 -40.5 99t-99.5 41h-75v-674q0 -67 28 -98t74 -31h135q104 0 179 75t75 179v123h31v-406h-760v29q46 0 75 31.5t29 97.5v1071
q0 66 -29 97.5t-75 31.5v31z" />
    <glyph glyph-name="F" unicode="F" horiz-adv-x="819" 
d="M0 1391h758v-279h-31v96q0 63 -44.5 107.5t-107.5 44.5h-235q-46 0 -75 -31.5t-29 -97.5v-369h77q57 0 97.5 41t40.5 98v68h30v-551h-30v176q0 58 -40.5 99t-97.5 41h-77v-674q0 -66 29 -97.5t75 -31.5v-29h-340v29q46 0 74 31t28 98v1071q0 67 -28 98t-74 31v31z" />
    <glyph glyph-name="G" unicode="G" horiz-adv-x="1019" 
d="M860 1278q32 -27 45 -27q23 0 23 60h30v-428h-30v35q0 86 -35.5 170t-90 144.5t-120.5 98t-125 37.5q-116 0 -213.5 -90t-154 -244.5t-56.5 -337.5t56.5 -337t154 -244t213.5 -90q61 0 121.5 30.5t104.5 95t44 146.5v309q0 63 -45 108.5t-108 45.5h-176v31h460v-789h-30
q0 104 -41 104q-15 0 -41 -16q-73 -48 -138 -72t-151 -24q-113 0 -216 55.5t-178 149.5t-119 224t-44 273q0 190 74.5 352t203 256.5t279.5 94.5q164 0 303 -121z" />
    <glyph glyph-name="H" unicode="H" 
d="M553 1360v31h340v-31q-47 0 -76 -31.5t-29 -97.5v-1071q0 -66 29 -97.5t76 -31.5v-29h-340v29q46 0 75 31.5t29 97.5v674h-421v-674q0 -66 29 -97.5t75 -31.5v-29h-340v29q46 0 75 31.5t29 97.5v1071q0 66 -29 97.5t-75 31.5v31h340v-31q-46 0 -75 -31.5t-29 -97.5v-369
h421v369q0 66 -29 97.5t-75 31.5z" />
    <glyph glyph-name="I" unicode="I" horiz-adv-x="401" 
d="M0 1391h340v-31q-46 0 -75 -31.5t-29 -97.5v-1071q0 -66 29 -97.5t75 -31.5v-29h-340v29q46 0 75 31.5t29 97.5v1071q0 66 -29 97.5t-75 31.5v31z" />
    <glyph glyph-name="J" unicode="J" horiz-adv-x="712" 
d="M311 1391h340v-31q-46 0 -74 -31t-28 -98v-1028q0 -94 -73.5 -147.5t-164.5 -53.5q-94 0 -209 88q-15 12 -28 12q-28 0 -47 -32l-27 16l150 250l26 -14l-16 -29q-23 -41 -23 -80q0 -70 53 -126t121 -56q48 0 76.5 31t28.5 98v1071q0 66 -29 97.5t-76 31.5v31z" />
    <glyph glyph-name="K" unicode="K" horiz-adv-x="952" 
d="M430 774l311 -616q65 -127 150 -127v-29h-340v29q27 0 45 13.5t18 41.5q0 31 -22 74l-238 471l-118 -223v-248q0 -66 29 -97.5t75 -31.5v-29h-340v29q46 0 74 31t28 98v1071q0 67 -28 98t-74 31v31h340v-31q-46 0 -75 -31.5t-29 -97.5v-758l405 758q27 53 27 80
q0 25 -15 37t-37 12v31h211v-31q-81 0 -147 -123z" />
    <glyph glyph-name="L" unicode="L" horiz-adv-x="821" 
d="M729 285v123h31v-406h-760v29q46 0 75 31.5t29 97.5v1071q0 66 -29 97.5t-75 31.5v31h340v-31q-46 0 -74 -31t-28 -98v-1071q0 -67 28 -98t74 -31h135q104 0 179 75t75 179z" />
    <glyph glyph-name="M" unicode="M" horiz-adv-x="1198" 
d="M1137 1391v-31q-46 0 -74.5 -31t-28.5 -98v-1071q0 -67 28.5 -98t74.5 -31v-29h-340v29q46 0 75 31.5t29 97.5v1120l-330 -1145l-39 -133h-59l-352 1178v-1020q0 -67 24 -98t64 -31v-29h-209v29q40 0 65 31.5t25 97.5v1071q0 66 -25 97.5t-65 31.5v31h195l360 -1203
l346 1203h236z" />
    <glyph glyph-name="N" unicode="N" horiz-adv-x="952" 
d="M682 1391h209v-31q-40 0 -65 -31.5t-25 -97.5v-1229h-29l-653 1239v-1081q0 -66 25 -97.5t65 -31.5v-29h-209v29q40 0 64 31t24 98v1071q0 67 -24 98t-64 31v31h188l584 -1106v946q0 66 -25 97.5t-65 31.5v31z" />
    <glyph glyph-name="O" unicode="O" horiz-adv-x="1173" 
d="M555 1399q151 0 279.5 -94.5t203 -256.5t74.5 -352q0 -143 -44 -273t-119 -224t-178 -149.5t-216 -55.5t-216 55.5t-177 149.5t-118 224t-44 273q0 190 74 352t202 256.5t279 94.5zM555 25q116 0 214 89.5t155 244t57 337.5t-57 337.5t-155 244.5t-214 90
q-115 0 -212.5 -90t-154.5 -245t-57 -337t57 -337t154.5 -244.5t212.5 -89.5z" />
    <glyph glyph-name="P" unicode="P" horiz-adv-x="952" 
d="M0 1391h551q147 0 243.5 -81t96.5 -198t-96.5 -197.5t-243.5 -80.5h-315v-674q0 -66 29 -97.5t75 -31.5v-29h-340v29q46 0 74 31t28 98v1071q0 67 -28 98t-74 31v31zM760 1112q0 108 -52.5 178t-150.5 70h-217q-46 0 -75 -31.5t-29 -97.5v-369h321q98 0 150.5 70.5
t52.5 179.5z" />
    <glyph glyph-name="Q" unicode="Q" horiz-adv-x="1175" 
d="M598 -143q33 -33 98 -33q106 0 236 67l51 -122q-122 -25 -203 -25q-156 0 -221 80q-43 51 -43 131q0 27 2 41q-143 12 -261.5 108t-187.5 253t-69 339q0 190 74.5 352t203 256.5t279.5 94.5t279.5 -94.5t203 -256.5t74.5 -352q0 -143 -44 -273t-119 -224t-178 -149.5
t-216 -55.5h-2v-12q0 -79 43 -125zM557 1368q-112 0 -207.5 -85t-153 -231t-63.5 -321q95 10 158 10q246 0 330 -118q43 -57 43 -144q0 -88 -62 -276q-39 -122 -45 -178q116 0 214 89.5t155 244t57 337.5t-57 337.5t-155 244.5t-214 90zM133 700v-4q0 -173 51.5 -322
t141 -241.5t196.5 -105.5q7 42 51 186q21 68 30 97t19.5 81t10.5 90q0 74 -37 125q-76 105 -303 105q-79 0 -160 -11z" />
    <glyph glyph-name="R" unicode="R" horiz-adv-x="952" 
d="M788 545v-385q0 -67 28.5 -98t74.5 -31v-29q-34 0 -64 4.5t-62.5 17.5t-56 34t-38.5 58t-15 85v344q0 53 -3.5 88.5t-17 77t-38.5 66t-70.5 41t-109.5 16.5h-180v-674q0 -66 29 -97.5t75 -31.5v-29h-340v29q46 0 74 31t28 98v1071q0 67 -28 98t-74 31v31h551
q147 0 243.5 -81t96.5 -198q0 -105 -80 -183t-207 -93q184 -65 184 -291zM236 1231v-369h321q98 0 150.5 70.5t52.5 179.5q0 108 -52.5 178t-150.5 70h-217q-46 0 -75 -31.5t-29 -97.5z" />
    <glyph glyph-name="S" unicode="S" horiz-adv-x="823" 
d="M379 821q83 -56 132.5 -93t103.5 -84.5t82 -87.5t46.5 -89.5t18.5 -104.5q0 -116 -52.5 -201.5t-133 -126t-175.5 -40.5q-37 0 -73.5 7.5t-62 17t-54 26t-43 27t-36.5 27.5t-26 20q-11 8 -26 8q-30 0 -53 -33l-27 15l203 340l26 -15l-53 -90q-24 -44 -24 -90
q0 -89 70.5 -159t178.5 -70q103 0 165.5 82t62.5 204q0 109 -59.5 185t-188.5 163q-187 129 -284 237t-97 218q0 119 99.5 202t254.5 83q134 0 283 -76q16 -8 31 -8q28 0 45 28l26 -16l-149 -250l-27 15l19 28q16 27 16 62q0 71 -74 128.5t-170 57.5q-101 0 -161 -59
t-60 -144t68 -177t178 -167z" />
    <glyph glyph-name="T" unicode="T" horiz-adv-x="911" 
d="M0 1391h850v-279h-31v96q0 63 -45 107.5t-108 44.5h-70q-46 0 -75 -31.5t-29 -97.5v-1071q0 -66 29 -97.5t75 -31.5v-29h-340v29q46 0 74 31t28 98v1071q0 67 -28 98t-74 31h-72q-63 0 -108 -44.5t-45 -107.5v-96h-31v279z" />
    <glyph glyph-name="U" unicode="U" 
d="M682 1360v31h211v-31q-40 0 -65 -31.5t-25 -97.5v-932q0 -123 -87.5 -210t-211.5 -87q-88 0 -156.5 18.5t-125.5 61t-87.5 120t-30.5 187.5v842q0 66 -29 97.5t-75 31.5v31h340v-31q-46 0 -75 -31.5t-29 -97.5v-885q0 -166 73.5 -240.5t194.5 -74.5q112 0 190 78.5
t78 189.5v932q0 129 -90 129z" />
    <glyph glyph-name="V" unicode="V" 
d="M682 1360v31h211v-31q-90 0 -117 -129l-250 -1229h-120l-275 1229q-27 129 -131 129v31h340v-31q-35 0 -57.5 -20t-22.5 -62q0 -19 6 -43l252 -1126l230 1130q4 28 4 39q0 41 -19.5 61.5t-50.5 20.5z" />
    <glyph glyph-name="W" unicode="W" horiz-adv-x="1456" 
d="M1186 1391h209v-31q-90 0 -115 -129l-250 -1229h-121l-200 893l-181 -893h-120l-275 1229q-32 129 -133 129v31h340v-31q-35 0 -57.5 -20.5t-22.5 -61.5q0 -19 6 -43l252 -1126l174 860l-57 262q-32 129 -133 129v31h340v-31q-35 0 -56.5 -21t-21.5 -63q0 -13 4 -41
l252 -1126l229 1130q4 16 4 41q0 41 -18.5 60.5t-48.5 19.5v31z" />
    <glyph glyph-name="X" unicode="X" 
d="M893 1391v-31q-77 0 -135 -117l-252 -520l239 -567q51 -125 148 -125v-29h-340v29q27 0 45 15.5t18 45.5q0 25 -16 68l-199 471l-227 -471q-22 -43 -22 -74q0 -28 17 -41.5t42 -13.5v-29h-211v29q77 0 135 119l252 518l-240 569q-52 123 -147 123v31h340v-31
q-27 0 -45.5 -16t-18.5 -46q0 -21 17 -67l199 -471l227 471q22 43 22 74q0 28 -17 41.5t-42 13.5v31h211z" />
    <glyph glyph-name="Y" unicode="Y" 
d="M682 1360v31h211v-31q-78 0 -145 -129l-220 -410v-661q0 -66 29 -97.5t76 -31.5v-29h-340v29q46 0 75 31.5t29 97.5v626l-237 445q-67 129 -160 129v31h340v-31q-55 0 -55 -51q0 -31 22 -74l205 -383l203 383q22 43 22 74q0 51 -55 51z" />
    <glyph glyph-name="Z" unicode="Z" horiz-adv-x="819" 
d="M0 1112v279h758v-31l-613 -1329h328q104 0 179 75t75 179v123h31v-406h-758v29l612 1329h-430q-63 0 -107 -44.5t-44 -107.5v-96h-31z" />
    <glyph glyph-name="bracketleft" unicode="[" horiz-adv-x="352" 
d="M291 1450h-160v-1507h160v-29h-291v1567h291v-31z" />
    <glyph glyph-name="backslash" unicode="\" horiz-adv-x="880" 
d="M784 0l-784 1393h35l784 -1393h-35z" />
    <glyph glyph-name="bracketright" unicode="]" horiz-adv-x="352" 
d="M0 -57h158v1507h-158v31h291v-1567h-291v29z" />
    <glyph glyph-name="asciicircum" unicode="^" horiz-adv-x="362" 
d="M301 1174h-29l-120 176l-123 -176h-29l123 217h55z" />
    <glyph glyph-name="underscore" unicode="_" horiz-adv-x="651" 
d="M590 33v-31h-590v31h590z" />
    <glyph glyph-name="grave" unicode="`" horiz-adv-x="292" 
d="M57 1391l174 -217h-26l-205 217h57z" />
    <glyph glyph-name="a" unicode="a" horiz-adv-x="829" 
d="M664 543v-383q0 -66 29 -97.5t75 -31.5v-31h-184q-22 0 -37 15t-15 36v51q-73 -108 -225 -108q-39 0 -76 4.5t-80.5 18.5t-75.5 36t-53.5 62t-21.5 92q0 48 25 88t59.5 65.5t87 46.5t90.5 31.5t86 20.5q45 9 70 15.5t54.5 18t43.5 27t16 35.5q-3 270 -167 270
q-70 0 -123.5 -56t-53.5 -126q0 -37 23 -78l16 -30l-26 -15l-150 250l27 16q20 -30 45 -30q16 0 31 12q36 26 55.5 39t66 31t89.5 18q49 0 91 -9.5t81 -32t66.5 -57.5t44 -89.5t16.5 -124.5zM307 25q91 0 158 52t67 122v295q-42 -38 -178 -64q-49 -11 -86 -26.5t-69.5 -41.5
t-50 -66t-17.5 -93q0 -83 49 -130.5t127 -47.5z" />
    <glyph glyph-name="b" unicode="b" horiz-adv-x="786" 
d="M410 854h14q126 -8 213.5 -130.5t87.5 -299.5q0 -178 -88 -304t-213 -126q-104 0 -186 92v-35q0 -20 -16 -35.5t-36 -15.5h-186v31q46 0 75 31.5t29 97.5v1061q0 75 -47 75q-13 0 -45 -12l-12 29l199 76q4 2 10 2q11 0 20 -8.5t9 -18.5v-627q71 117 172 117zM424 25
q69 0 118.5 117t49.5 282t-48.5 280t-119.5 121h-8q-71 0 -124.5 -69.5t-53.5 -153.5v-178q0 -156 57 -277.5t129 -121.5z" />
    <glyph glyph-name="c" unicode="c" horiz-adv-x="753" 
d="M354 70q37 -13 78 -13q53 0 103 19t81 53l23 -20q-106 -115 -258 -115q-158 0 -269.5 125.5t-111.5 304.5t111.5 305.5t269.5 126.5q43 0 88.5 -17.5t67 -32t53.5 -38.5q15 -12 31 -12q24 0 47 30l24 -16l-149 -250l-27 15l19 30q20 36 20 76q0 70 -53 127t-121 57
q-103 0 -176.5 -117.5t-73.5 -283.5q0 -132 65 -226.5t158 -127.5z" />
    <glyph glyph-name="d" unicode="d" horiz-adv-x="784" 
d="M618 1364v-1204q0 -66 29 -97.5t76 -31.5v-31h-184q-21 0 -36.5 15t-15.5 36v62q-72 -119 -174 -119h-12q-126 9 -213.5 131.5t-87.5 298.5q0 117 40 216.5t109 157.5t152 58q105 0 186 -94v459q0 75 -47 75q-15 0 -47 -12l-10 29l199 76q4 2 10 2q10 0 18 -8t8 -19z
M487 248v176q0 102 -26.5 195.5t-70 149.5t-89.5 56q-70 0 -120 -117.5t-50 -283.5q0 -165 49 -279.5t121 -119.5h10q69 0 122.5 70.5t53.5 152.5z" />
    <glyph glyph-name="e" unicode="e" horiz-adv-x="743" 
d="M381 440l-244 -82q16 -109 77 -183.5t142 -104.5q37 -13 76 -13q53 0 103 19t83 53l23 -20q-106 -115 -260 -115q-158 0 -269.5 125.5t-111.5 304.5t111.5 305.5t269.5 126.5q105 0 178 -42.5t90 -111.5q4 -24 4 -36q0 -40 -22.5 -75.5t-64.5 -63t-85 -47.5t-100 -40z
M133 389l236 80q76 26 121 80t45 117v12q-5 65 -42.5 106t-111.5 41q-103 0 -175.5 -117.5t-72.5 -283.5v-35z" />
    <glyph glyph-name="f" unicode="f" horiz-adv-x="632" 
d="M236 1210v-362h225v-31h-225v-657q0 -66 29 -97.5t75 -31.5v-31h-340v31q46 0 75 31.5t29 97.5v657h-104v31h104v315q0 55 19 98.5t47 68.5t64 41.5t65.5 22t56.5 5.5q63 0 129 -27q12 -6 25 -6q20 0 37 25l24 -17l-149 -250l-27 15l19 28q35 57 35 111q0 41 -25.5 65.5
t-69.5 24.5q-50 0 -84 -40t-34 -118z" />
    <glyph glyph-name="g" unicode="g" horiz-adv-x="770" 
d="M453 6q126 -27 191 -87t65 -161q0 -60 -21.5 -110.5t-55.5 -85t-77.5 -59t-87 -35.5t-84.5 -11q-253 0 -383 260l117 60q37 -121 105.5 -205t160.5 -84q90 0 149 53.5t66 120.5q0 4 1 13t1 14q0 83 -60.5 129t-197.5 78q-121 26 -175 54t-67 85q-2 8 -2 26q0 84 92 191
q-79 42 -127.5 118t-48.5 165q0 132 99.5 226.5t240.5 94.5q24 0 70 -8q24 77 73.5 119.5t120.5 42.5q35 0 82 -13l-53 -127q-64 25 -104 25q-70 0 -88 -53q105 -31 172 -116t67 -191q0 -134 -99.5 -228t-240.5 -94q-69 0 -133 25q-37 -52 -37 -101q0 -14 2 -18
q4 -14 16 -26.5t36.5 -23.5t43 -18.5t57 -17.5t55 -14t59.5 -13zM354 825q-86 0 -147.5 -85t-61.5 -205q0 -121 61.5 -206t147.5 -85t147.5 85t61.5 206q0 120 -61.5 205t-147.5 85z" />
    <glyph glyph-name="h" unicode="h" horiz-adv-x="876" 
d="M711 557v-397q0 -66 29 -97.5t75 -31.5v-31h-340v31q46 0 74.5 31t28.5 98v430q0 235 -156 235q-74 0 -130 -69t-56 -154v-442q0 -66 29 -97.5t75 -31.5v-31h-340v31q46 0 75 31.5t29 97.5v1061q0 75 -47 75q-15 0 -47 -12l-10 29l199 76q4 2 10 2q11 0 19 -8.5t8 -18.5
v-627q72 119 188 119q127 0 207 -80.5t80 -218.5z" />
    <glyph glyph-name="i" unicode="i" horiz-adv-x="401" 
d="M236 819v-659q0 -66 29 -97.5t75 -31.5v-31h-340v31q46 0 75 31.5t29 97.5v518q0 76 -47 76q-12 0 -47 -13l-10 29l199 76q4 2 10 2q11 0 19 -8.5t8 -20.5zM170 1032q-37 0 -62.5 25.5t-25.5 60.5q0 37 25.5 62.5t62.5 25.5t62.5 -25.5t25.5 -62.5q0 -35 -25.5 -60.5
t-62.5 -25.5z" />
    <glyph glyph-name="j" unicode="j" horiz-adv-x="401" 
d="M170 1032q-37 0 -62.5 25.5t-25.5 60.5q0 37 25.5 62.5t62.5 25.5q35 0 60.5 -25.5t25.5 -62.5q0 -35 -25.5 -60.5t-60.5 -25.5zM0 770l199 76q2 2 8 2q11 0 20 -8.5t9 -20.5v-1126q0 -68 -28 -117.5t-70.5 -73.5t-81 -34.5t-72.5 -10.5q-65 0 -131 27q-12 6 -23 6
q-20 0 -37 -25l-26 17l149 250l27 -15l-17 -28q-37 -61 -37 -111q0 -41 25.5 -65.5t69.5 -24.5q50 0 84 40.5t34 117.5v1032q0 76 -47 76q-10 0 -45 -13z" />
    <glyph glyph-name="k" unicode="k" horiz-adv-x="874" 
d="M420 489l229 -337q83 -121 164 -121v-31h-340v31q47 0 47 41q0 35 -37 88l-149 221l-98 -125v-96q0 -66 29 -97.5t75 -31.5v-31h-340v31q46 0 74 31t28 98v1061q0 75 -47 75q-13 0 -45 -12l-10 29l199 76q4 2 10 2q11 0 19 -8.5t8 -18.5v-1059l303 383q43 53 43 90
q0 39 -43 39v31h211v-31q-70 0 -168 -121z" />
    <glyph glyph-name="l" unicode="l" horiz-adv-x="401" 
d="M236 1364v-1204q0 -66 29 -97.5t75 -31.5v-31h-340v31q46 0 74 31t28 98v1061q0 75 -47 75q-13 0 -45 -12l-10 29l199 76q2 2 8 2q11 0 20 -8.5t9 -18.5z" />
    <glyph glyph-name="m" unicode="m" horiz-adv-x="1196" 
d="M1032 637v-477q0 -67 28.5 -98t74.5 -31v-31h-340v31q46 0 75 31.5t29 97.5v512q0 85 -18.5 119t-59.5 34q-74 0 -130 -69t-56 -154v-442q0 -67 28 -98t74 -31v-31h-340v31q47 0 76 31.5t29 97.5v512q0 85 -18.5 119t-59.5 34q-74 0 -130 -69t-56 -154v-442q0 -67 28 -98
t74 -31v-31h-340v31q46 0 75 31.5t29 97.5v518q0 76 -47 76q-10 0 -45 -13l-12 29l199 76q4 2 10 2q11 0 20 -8.5t9 -20.5v-82q72 119 186 119q66 0 121.5 -34t77.5 -105q76 139 198 139q84 0 147.5 -54t63.5 -165z" />
    <glyph glyph-name="n" unicode="n" horiz-adv-x="876" 
d="M711 557v-397q0 -66 29 -97.5t75 -31.5v-31h-340v31q47 0 76 31.5t29 97.5v430q0 119 -41.5 177t-114.5 58q-74 0 -130 -69t-56 -154v-442q0 -67 28 -98t74 -31v-31h-340v31q46 0 75 31.5t29 97.5v518q0 76 -47 76q-10 0 -45 -13l-12 29l199 76q4 2 10 2q11 0 20 -8.5
t9 -20.5v-82q72 119 186 119q127 0 207 -80.5t80 -218.5z" />
    <glyph glyph-name="o" unicode="o" horiz-adv-x="823" 
d="M381 856q158 0 269.5 -126.5t111.5 -305.5t-111.5 -304.5t-269.5 -125.5t-269.5 125.5t-111.5 304.5t111.5 305.5t269.5 126.5zM381 25q103 0 176.5 117t73.5 282q0 166 -73.5 283.5t-176.5 117.5t-175.5 -117.5t-72.5 -283.5t72.5 -282.5t175.5 -116.5z" />
    <glyph glyph-name="p" unicode="p" horiz-adv-x="786" 
d="M410 854h14q126 -8 213.5 -130.5t87.5 -299.5q0 -178 -88 -304t-213 -126q-106 0 -188 92v-469q0 -66 29 -97.5t75 -31.5v-31h-340v31q46 0 75 31.5t29 97.5v1061q0 76 -47 76q-12 0 -47 -13l-10 29l199 76q4 2 10 2q11 0 19 -8.5t8 -20.5v-82q74 117 174 117zM424 25
q69 0 118.5 117t49.5 282t-48.5 280t-119.5 121h-8q-71 0 -125.5 -70t-54.5 -153v-178q0 -156 58 -277.5t130 -121.5z" />
    <glyph glyph-name="q" unicode="q" horiz-adv-x="786" 
d="M621 819v-1202q0 -66 29 -97.5t75 -31.5v-31h-340v31q46 0 74 31t28 98v496q-72 -119 -174 -119h-12q-126 9 -213.5 131.5t-87.5 298.5q0 179 88.5 305.5t212.5 126.5q101 0 186 -68l97 58q2 2 8 2q11 0 20 -8.5t9 -20.5zM487 248v176q0 156 -57 278.5t-129 122.5
q-69 0 -118.5 -117.5t-49.5 -283.5q0 -165 48.5 -279.5t119.5 -119.5h10q70 0 123 70.5t53 152.5z" />
    <glyph glyph-name="r" unicode="r" horiz-adv-x="702" 
d="M641 831l-152 -249l-24 14l16 29q37 61 37 110q0 42 -25 66t-69 24q-74 0 -131 -69t-57 -154v-442q0 -66 29 -97.5t75 -31.5v-31h-340v31q46 0 75 31.5t29 97.5v518q0 76 -47 76q-12 0 -47 -13l-10 29l199 76q4 2 10 2q11 0 19 -8.5t8 -20.5v-82q75 119 188 119
q28 0 49.5 -4t45.5 -12.5t34 -10.5q15 -6 27 -6q17 0 34 25z" />
    <glyph glyph-name="s" unicode="s" horiz-adv-x="698" 
d="M317 500q82 -25 134.5 -47t98 -51.5t66.5 -68t21 -87.5q0 -106 -86.5 -179t-216.5 -73q-105 0 -232 65q-18 9 -32 9q-27 0 -45 -27l-25 14l150 252l24 -16l-16 -29q-19 -36 -19 -65q0 -67 60.5 -119.5t134.5 -52.5q75 0 123.5 49t48.5 121q0 64 -50.5 101.5t-138.5 63.5
q-74 23 -125 44t-98 51t-70.5 68.5t-23.5 86.5q0 104 82 175t211 71q35 0 63.5 -3.5t54 -12.5t38 -14.5t36.5 -18.5t29 -16q18 -9 33 -9q28 0 45 29l26 -16l-151 -252l-25 16l17 29q22 37 22 78q0 65 -53.5 112t-134.5 47q-75 0 -118.5 -46.5t-43.5 -116.5q0 -61 49 -97.5
t137 -64.5z" />
    <glyph glyph-name="t" unicode="t" horiz-adv-x="552" 
d="M467 184l25 -16q-2 -3 -13 -21t-15 -23.5t-15.5 -22.5t-17.5 -24t-19 -21t-22 -20.5t-23 -16.5t-27 -14t-28.5 -7.5t-32.5 -3.5h-19q-76 7 -116 64.5t-40 156.5v602h-104v31q63 0 105 17.5t63 52t29 73.5t8 92v95h31v-330h174v-31h-174v-616q0 -133 88 -144h10
q34 0 65 33.5t68 93.5z" />
    <glyph glyph-name="u" unicode="u" horiz-adv-x="876" 
d="M711 819v-659q0 -66 29 -97.5t75 -31.5v-31h-237v113q-72 -119 -187 -119q-127 0 -207 79.5t-80 217.5v387q0 76 -47 76q-12 0 -47 -13l-10 29l199 76q4 2 10 2q11 0 19 -8.5t8 -20.5v-561q0 -119 41 -176t114 -57q74 0 130.5 69t56.5 154v430q0 76 -48 76q-10 0 -45 -13
l-10 29l199 76q4 2 10 2q11 0 19 -8.5t8 -20.5z" />
    <glyph glyph-name="v" unicode="v" horiz-adv-x="806" 
d="M537 848h208v-31q-77 0 -114 -129l-193 -688h-106l-197 688q-37 129 -135 129v31h340v-31q-34 0 -56 -19t-22 -57q0 -13 8 -49l168 -581l162 581q8 27 8 51q0 38 -19.5 56t-51.5 18v31z" />
    <glyph glyph-name="w" unicode="w" horiz-adv-x="1214" 
d="M942 848h211v-31q-78 0 -115 -129l-192 -688h-107l-151 530l-148 -530h-106l-199 688q-37 129 -135 129v31h340v-31q-33 0 -54.5 -19t-21.5 -57q0 -25 8 -49l166 -581l133 475l-28 102q-40 129 -137 129v31h339v-31q-33 0 -54 -19t-21 -57q0 -25 8 -49l168 -581l162 581
q8 24 8 49q0 38 -20.5 57t-53.5 19v31z" />
    <glyph glyph-name="x" unicode="x" horiz-adv-x="808" 
d="M748 848v-31q-79 0 -148 -121l-149 -276l139 -264q65 -125 158 -125v-31h-340v31q24 0 39.5 12.5t15.5 38.5t-25 78l-125 235l-129 -235q-24 -44 -24 -80q0 -49 51 -49v-31h-211v31q79 0 145 123l152 274l-139 264q-65 125 -158 125v31h340v-31q-24 0 -39.5 -12.5
t-15.5 -38.5q0 -34 24 -78l123 -235l131 235q25 46 25 80q0 49 -51 49v31h211z" />
    <glyph glyph-name="y" unicode="y" horiz-adv-x="770" 
d="M709 819v-1089q0 -70 -26 -124.5t-68 -85.5t-89 -47t-96 -16q-31 0 -64 9t-52 18.5t-48.5 26.5t-38.5 22q-16 8 -30 8q-28 0 -45 -28l-27 16l149 252l27 -17l-18 -28q-21 -38 -21 -74q0 -67 51.5 -120.5t116.5 -53.5q63 0 105.5 44t42.5 136v445q-72 -119 -187 -119
q-129 0 -209 79.5t-80 217.5v387q0 76 -47 76q-10 0 -45 -13l-10 29l199 76q2 2 8 2q11 0 20 -8.5t9 -20.5v-561q0 -233 155 -233q74 0 130.5 69t56.5 154v430q0 76 -48 76q-12 0 -47 -13l-10 29l199 76q4 2 10 2q11 0 19 -8.5t8 -20.5z" />
    <glyph glyph-name="z" unicode="z" horiz-adv-x="653" 
d="M592 848v-31l-440 -786h155q105 0 179.5 74.5t74.5 179.5v123h31v-408h-592v31l440 786h-258q-63 0 -108 -44t-45 -107v-97h-29v279h592z" />
    <glyph glyph-name="braceleft" unicode="{" horiz-adv-x="413" 
d="M195 1038q0 -73 -17 -128t-41 -84.5t-48 -51t-41 -40t-17 -38.5t17 -38.5t41 -40t48 -51t41 -84.5t17 -128q0 -105 5.5 -173t21.5 -126t48 -85t82 -27v-29q-144 0 -212 108t-68 328q0 88 -11 148.5t-25 85t-25 53t-11 59.5t11 59.5t25 53t25 85t11 148.5q0 221 68 330
t212 109v-31q-34 0 -59.5 -12.5t-42.5 -38.5t-28 -59t-17 -82.5t-8 -100t-2 -119.5z" />
    <glyph glyph-name="bar" unicode="|" horiz-adv-x="90" 
d="M29 2h-29v1389h29v-1389z" />
    <glyph glyph-name="braceright" unicode="}" horiz-adv-x="413" 
d="M158 354q0 73 17 128t41 84.5t48 51t41 40t17 38.5t-17 38.5t-41 40t-48 51t-41 84.5t-17 128q0 105 -5.5 173t-22 126.5t-48.5 85.5t-82 27v31q146 0 214.5 -109t68.5 -330q0 -88 11 -148.5t23.5 -85t23.5 -53t11 -59.5t-11 -59.5t-23.5 -53t-23.5 -85t-11 -148.5
q0 -220 -68.5 -328t-214.5 -108v29q50 0 82 27t48.5 85t22 126t5.5 173z" />
    <glyph glyph-name="asciitilde" unicode="~" horiz-adv-x="505" 
d="M336 430q29 3 108 29q-58 -68 -159 -68h-6q-34 3 -66 17q-38 14 -80 14q-43 0 -133 -21q65 58 158 58q25 0 49 -6q11 -2 37.5 -12t40.5 -11q4 0 12 -1t12 -1t13.5 1t13.5 1z" />
    <glyph glyph-name="exclamdown" unicode="&#xa1;" horiz-adv-x="192" 
d="M66 360q-28 0 -47 19t-19 47q0 27 19.5 46.5t46.5 19.5t46 -19.5t19 -46.5q0 -28 -18.5 -47t-46.5 -19zM51 209h31l49 -1100h-131z" />
    <glyph glyph-name="cent" unicode="&#xa2;" horiz-adv-x="1019" 
d="M958 883h-30v35q0 111 -58 216.5t-142 168t-163 65.5v-1343q79 3 163 65.5t142 168t58 216.5v35h30v-428h-30q0 59 -23 59q-9 0 -45 -26q-140 -118 -295 -121v-115h-30v115q-146 8 -269 103t-194.5 254t-71.5 345t71.5 345.5t194.5 255t269 102.5v114h30v-114
q151 -3 295 -119q32 -27 45 -27q23 0 23 58h30v-428zM131 696q0 -176 53.5 -327.5t146.5 -243t204 -100.5v1343q-169 -14 -286.5 -208.5t-117.5 -463.5z" />
    <glyph glyph-name="sterling" unicode="&#xa3;" horiz-adv-x="819" 
d="M727 408h31v-406h-758v31q46 0 74 31t28 98v520h-102v31h102v475q0 60 22.5 102.5t60 63t75 29t80.5 8.5h330v-279h-31v96q0 63 -44.5 108.5t-107.5 45.5h-147q-104 -4 -104 -129v-520h163v-31h-163v-520q0 -66 29 -97.5t75 -31.5h133q105 0 179.5 74.5t74.5 179.5v121z
" />
    <glyph glyph-name="currency" unicode="&#xa4;" horiz-adv-x="438" 
d="M377 592l-62 -62q39 -45 39 -104q0 -62 -39 -107l62 -61l-23 -20l-59 59q-48 -39 -107 -39q-58 0 -106 39l-59 -59l-23 20l61 61q-38 47 -38 107q0 57 38 104l-61 62l23 20l59 -59q45 39 106 39q62 0 107 -39l59 59zM295 340q29 36 29 86q0 48 -29 84l-10 10q-7 7 -13 10
q-39 31 -84 31t-84 -31q-4 -2 -12 -10l-10 -10q-29 -40 -29 -84q0 -46 29 -86l10 -10q10 -10 12 -11q39 -28 84 -28t84 28q4 2 13 11z" />
    <glyph glyph-name="yen" unicode="&#xa5;" 
d="M682 1391h211v-29q-78 0 -145 -129l-218 -412v-325h134v-31h-134v-90h134v-31h-134v-182q0 -67 28.5 -98t74.5 -31v-31h-340v31q46 0 75 31.5t29 97.5v182h-133v31h133v90h-133v31h133v290l-235 447q-70 129 -162 129v29h340v-29q-24 0 -39.5 -12.5t-15.5 -38.5
q0 -27 24 -76l203 -383l203 385q22 43 22 74q0 51 -55 51v29z" />
    <glyph glyph-name="brokenbar" unicode="&#xa6;" horiz-adv-x="92" 
d="M31 803h-31v588h31v-588zM31 2h-31v588h31v-588z" />
    <glyph glyph-name="section" unicode="&#xa7;" horiz-adv-x="700" 
d="M319 500q164 -49 242 -104.5t78 -149.5q0 -106 -86.5 -179t-216.5 -73q-94 0 -232 65q-18 9 -32 9q-27 0 -45 -27l-27 16l152 250l24 -16l-16 -29q-19 -36 -19 -65q0 -67 60.5 -119.5t134.5 -52.5q75 0 123.5 49.5t48.5 122.5q0 34 -15 60.5t-44 46t-58.5 32.5t-71.5 26
q-148 44 -229.5 97.5t-87.5 138.5l-2 2h2q-2 4 -2 12q0 65 35 120t96 87l43 19q52 18 121 18q105 0 192 -49q-35 56 -168 98q-74 22 -125.5 43.5t-98.5 51t-71 68.5t-24 87q0 103 82.5 173.5t212.5 70.5q34 0 63 -4t54 -12.5t38.5 -14.5t36.5 -19t29 -16q16 -8 33 -8
q28 0 45 29l27 -17l-152 -250l-25 15l17 28q22 42 22 78q0 66 -53 113t-135 47q-75 0 -118.5 -47t-43.5 -117q0 -61 49 -97.5t137 -64.5q164 -49 242 -104.5t78 -149.5q0 -71 -41.5 -129.5t-114.5 -91.5q-20 -8 -32 -12q-53 -18 -115 -18q-77 0 -162 34q40 -38 145 -71z
M295 825q-62 0 -108 -29.5t-46 -74.5q0 -61 62.5 -107.5t132.5 -46.5q53 0 99 22.5t46 55.5q0 73 -50.5 126.5t-135.5 53.5z" />
    <glyph glyph-name="dieresis" unicode="&#xa8;" horiz-adv-x="397" 
d="M66 1348q28 0 47.5 -19t19.5 -47t-19.5 -46.5t-47.5 -18.5q-27 0 -46.5 19t-19.5 46t19.5 46.5t46.5 19.5zM268 1348q28 0 48 -19t20 -47q0 -27 -20 -46t-48 -19q-27 0 -46 19t-19 46q0 28 19.5 47t45.5 19z" />
    <glyph glyph-name="copyright" unicode="&#xa9;" horiz-adv-x="927" 
d="M528 758l9 16q12 21 12 43q0 39 -29 71t-67 32q-57 0 -97.5 -66t-40.5 -158q0 -72 36 -124.5t87 -71.5q18 -6 43 -6q68 0 103 38l12 -12q-60 -63 -143 -63q-88 0 -149.5 70t-61.5 169q0 100 61.5 170t149.5 70q14 0 28 -3t28 -10t22 -11.5t22 -14t16 -10.5q9 -6 17 -6
q14 0 24 16l15 -8l-82 -139zM434 1130q179 0 305.5 -127t126.5 -307t-126.5 -307t-305.5 -127q-180 0 -307 127t-127 307t127 307t307 127zM434 293q166 0 285 118.5t119 284.5q0 167 -119 285.5t-285 118.5q-167 0 -285 -118.5t-118 -285.5q0 -166 118 -284.5t285 -118.5z
" />
    <glyph glyph-name="ordfeminine" unicode="&#xaa;" horiz-adv-x="307" 
d="M213 1292v-123q0 -41 33 -41v-10h-60q-7 0 -11.5 5.5t-4.5 11.5v16q-21 -35 -72 -35q-37 0 -67.5 15t-30.5 53q0 54 111 82q17 3 23 4.5t16.5 5t14.5 8.5t5 12q0 86 -53 86q-23 0 -40.5 -18t-17.5 -41q0 -7 9 -25l4 -10l-9 -4l-47 80l9 6q7 -10 14 -10q2 0 10 4
q41 27 68 27q42 0 69 -23t27 -76zM98 1126q29 0 50.5 16.5t21.5 39.5v94q-17 -14 -57 -21q-72 -16 -72 -71q0 -27 16 -42.5t41 -15.5z" />
    <glyph glyph-name="guillemotleft" unicode="&#xab;" horiz-adv-x="901" 
d="M0 426l446 229l13 -26l-391 -203l391 -205l-13 -26zM381 426l446 229l13 -26l-391 -203l391 -205l-13 -26z" />
    <glyph glyph-name="logicalnot" unicode="&#xac;" horiz-adv-x="548" 
d="M487 483v-116h-30v88h-457v28h487z" />
    <glyph glyph-name="registered" unicode="&#xae;" horiz-adv-x="929" 
d="M586 645v-129q0 -45 47 -45v-10q-107 0 -107 67v117q0 23 -3 37.5t-13 30t-32.5 23t-57.5 7.5h-80v-227q0 -45 47 -45v-10h-151v10q47 0 47 45v361q0 45 -47 45v10h245q65 0 108.5 -27.5t43.5 -66.5q0 -36 -36.5 -63.5t-92.5 -31.5q82 -21 82 -98zM340 754h143
q44 0 67 23.5t23 60.5q0 36 -23 60t-67 24h-96q-47 0 -47 -45v-123zM434 1130q180 0 307 -127t127 -307t-127 -307t-307 -127t-307 127t-127 307t127 307t307 127zM434 293q166 0 285 118.5t119 284.5q0 167 -119 285.5t-285 118.5q-167 0 -285 -118.5t-118 -285.5
q0 -166 118 -284.5t285 -118.5z" />
    <glyph glyph-name="macron" unicode="&#xaf;" horiz-adv-x="284" 
d="M0 1268v28h223v-28h-223z" />
    <glyph glyph-name="degree" unicode="&#xb0;" horiz-adv-x="241" 
d="M90 1395q37 0 63.5 -33.5t26.5 -79.5t-26.5 -79.5t-63.5 -33.5t-63.5 33.5t-26.5 79.5t26.5 79.5t63.5 33.5zM90 1382q-25 0 -43 -29.5t-18 -70.5t18 -70.5t43 -29.5q26 0 44 29t18 71t-18 71t-44 29z" />
    <glyph glyph-name="plusminus" unicode="&#xb1;" horiz-adv-x="563" 
d="M502 158v-31h-502v31h502zM502 487v-30h-236v-236h-30v236h-236v30h236v236h30v-236h236z" />
    <glyph glyph-name="twosuperior" unicode="&#xb2;" horiz-adv-x="215" 
d="M147 1176v14h7v-72h-154q0 26 12.5 51t31 45t36.5 38.5t30.5 40.5t12.5 44q0 19 -11.5 33t-33.5 14t-33.5 -16t-11.5 -41h-27q0 29 20 46.5t52 17.5q30 0 49.5 -16t19.5 -38q0 -29 -18.5 -55.5t-42 -44t-47 -43t-31.5 -51.5h107q13 0 22.5 9.5t9.5 23.5z" />
    <glyph glyph-name="threesuperior" unicode="&#xb3;" horiz-adv-x="221" 
d="M100 1296q25 -8 42.5 -33t17.5 -55q0 -38 -24 -65t-58 -27q-35 0 -56.5 21.5t-21.5 46.5h25q0 -26 16.5 -44t36.5 -18q23 0 39 25t16 61t-16 61t-39 25h-19v6h19q19 0 32 12t13 31q0 17 -13 29t-32 12t-32 -12t-13 -29h-27q0 20 21 34t51 14t51 -14t21 -34
q0 -17 -14 -29.5t-36 -17.5z" />
    <glyph glyph-name="acute" unicode="&#xb4;" horiz-adv-x="292" 
d="M174 1391h57l-204 -217h-27z" />
    <glyph glyph-name="mu" unicode="&#xb5;" horiz-adv-x="876" 
d="M236 254q0 -119 43 -174q40 -55 112 -55q77 0 131 69q56 71 56 154v430q0 64 -29 74q-6 2 -17 2q-21 0 -47 -13l-10 29l199 76q4 2 10 2q9 0 18 -6t9 -23v-659q0 -72 30 -99q30 -30 74 -30v-31h-237v113q-76 -119 -187 -119q-90 0 -155 39v-109q0 -71 30 -98
q31 -31 74 -31v-31h-340v31q43 0 74 31q30 27 30 98v754q0 65 -28 74q-6 2 -17 2q-20 0 -49 -13l-10 29l199 76q4 2 10 2q9 0 18 -6t9 -23v-565z" />
    <glyph glyph-name="paragraph" unicode="&#xb6;" horiz-adv-x="768" 
d="M707 1391v-29h-146v-1360h-31v1360h-59v-1360h-31v883h-188q-104 0 -178 74t-74 180q0 104 74 178t178 74h455z" />
    <glyph glyph-name="periodcentered" unicode="&#xb7;" horiz-adv-x="614" 
d="M57 752q23 0 39.5 -16.5t16.5 -39.5t-16.5 -39t-39.5 -16t-40 16t-17 39t17 39.5t40 16.5z" />
    <glyph glyph-name="periodcentered" unicode="&#x2219;" horiz-adv-x="614" 
d="M57 752q23 0 39.5 -16.5t16.5 -39.5t-16.5 -39t-39.5 -16t-40 16t-17 39t17 39.5t40 16.5z" />
    <glyph glyph-name="cedilla" unicode="&#xb8;" horiz-adv-x="219" 
d="M123 -80q35 -60 35 -94q0 -26 -23 -44t-55 -18q-35 0 -57.5 20t-22.5 52v4h35v-4q0 -24 11 -40.5t34 -16.5q20 0 31.5 14t11.5 33q0 26 -23 74q-32 75 -32 129v4h14v-4q0 -45 41 -109z" />
    <glyph glyph-name="onesuperior" unicode="&#xb9;" horiz-adv-x="153" 
d="M59 1391v-234q0 -13 9.5 -23t23.5 -10v-6h-92v6q14 0 23.5 10t9.5 23v195q0 24 -15 24q-4 0 -16 -4l-2 6l33 13h26z" />
    <glyph glyph-name="ordmasculine" unicode="&#xba;" horiz-adv-x="225" 
d="M82 1391q34 0 58 -40.5t24 -97.5t-24 -97t-58 -40t-58 40t-24 97t24 97.5t58 40.5zM82 1122q23 0 39 38.5t16 92.5q0 55 -16 93t-39 38t-39 -38t-16 -93q0 -54 16 -92.5t39 -38.5z" />
    <glyph glyph-name="guillemotright" unicode="&#xbb;" horiz-adv-x="901" 
d="M840 426l-445 -231l-14 26l393 205l-393 203l14 26zM459 426l-445 -231l-14 26l393 205l-393 203l14 26z" />
    <glyph glyph-name="onequarter" unicode="&#xbc;" horiz-adv-x="878" 
d="M35 2h-35l782 1387h35zM258 1391v-451q0 -28 19 -47t45 -19v-10h-179v10q26 0 45 19t19 47v375q0 49 -29 49q-11 0 -31 -8l-4 10l64 25h51zM559 158v-92q0 -50 39 -50v-12h-129v12q39 0 39 50v92h-219v12l219 362h51v-362h39v-12h-39zM301 170h207v340z" />
    <glyph glyph-name="onehalf" unicode="&#xbd;" horiz-adv-x="878" 
d="M35 2h-35l782 1387h35zM258 1391v-451q0 -28 19 -47t45 -19v-10h-179v10q27 0 46.5 19.5t19.5 46.5v375q0 49 -31 49q-11 0 -31 -8l-4 10l66 25h49zM696 117v28h11v-141h-299q0 52 24.5 101t60 87.5t70.5 75t59.5 78.5t24.5 84q0 38 -22.5 66t-65.5 28q-42 0 -64 -32
t-22 -78h-51q0 54 38.5 88.5t98.5 34.5q59 0 98 -31.5t39 -75.5q0 -46 -23.5 -87.5t-59 -74t-72.5 -63.5t-69 -70t-44 -80h205q26 0 44.5 18t18.5 44z" />
    <glyph glyph-name="threequarters" unicode="&#xbe;" horiz-adv-x="878" 
d="M35 2h-35l782 1387h35zM559 158v-92q0 -50 39 -50v-12h-129v12q41 0 41 50v92h-221v12l221 362h49v-362h39v-12h-39zM303 170h207v340zM248 1206q50 -15 82 -62.5t32 -107.5q0 -73 -46 -125.5t-111 -52.5q-66 0 -110 42.5t-44 90.5h51q0 -53 32 -88t71 -35q44 0 75 49.5
t31 118.5t-31 117.5t-75 48.5h-35v12h35q35 0 60.5 24t25.5 58q0 35 -25.5 59.5t-60.5 24.5q-37 0 -62.5 -24.5t-25.5 -59.5h-49q0 40 40 67.5t97 27.5t97 -27.5t40 -67.5q0 -31 -26.5 -56t-67.5 -34z" />
    <glyph glyph-name="questiondown" unicode="&#xbf;" horiz-adv-x="784" 
d="M131 -621q0 -100 60 -173.5t171 -73.5q112 0 171 83t59 207h131q0 -144 -101 -232.5t-260 -88.5q-156 0 -259 80.5t-103 197.5q0 68 20 130t52.5 111t71 97t77.5 99.5t71.5 106.5t52.5 128.5t20 157.5h30q0 -115 -19.5 -211.5t-49 -157t-63.5 -119.5t-63.5 -104t-49 -107
t-19.5 -131zM379 360q-27 0 -46.5 19.5t-19.5 46.5q0 26 20 46t46 20q27 0 47 -20t20 -46q0 -28 -19.5 -47t-47.5 -19z" />
    <glyph glyph-name="Agrave" unicode="&#xc0;" 
d="M485 1391l277 -1231q27 -129 131 -129v-29h-340v29q35 0 57.5 20t22.5 62q0 19 -6 43l-117 524h-258l-107 -526q-4 -28 -4 -41q0 -41 19.5 -61.5t50.5 -20.5v-29h-211v29q90 0 117 129l219 1079q4 24 4 39q0 82 -104 82h-23v31h272zM258 711h246l-129 573zM238 1702
l174 -217h-27l-205 217h58z" />
    <glyph glyph-name="Aacute" unicode="&#xc1;" 
d="M485 1391l277 -1231q27 -129 131 -129v-29h-340v29q35 0 57.5 20t22.5 62q0 19 -6 43l-117 524h-258l-107 -526q-4 -28 -4 -41q0 -41 19.5 -61.5t50.5 -20.5v-29h-211v29q90 0 117 129l219 1079q4 24 4 39q0 82 -104 82h-23v31h272zM258 711h246l-129 573zM524 1706h58
l-205 -217h-27z" />
    <glyph glyph-name="Acircumflex" unicode="&#xc2;" 
d="M485 1391l277 -1231q27 -129 131 -129v-29h-340v29q35 0 57.5 20t22.5 62q0 19 -6 43l-117 524h-258l-107 -526q-4 -28 -4 -41q0 -41 19.5 -61.5t50.5 -20.5v-29h-211v29q90 0 117 129l219 1079q4 24 4 39q0 82 -104 82h-23v31h272zM258 711h246l-129 573zM532 1491h-28
l-121 176l-123 -176h-29l123 217h56z" />
    <glyph glyph-name="Atilde" unicode="&#xc3;" 
d="M485 1391l277 -1231q27 -129 131 -129v-29h-340v29q35 0 57.5 20t22.5 62q0 19 -6 43l-117 524h-258l-107 -526q-4 -28 -4 -41q0 -41 19.5 -61.5t50.5 -20.5v-29h-211v29q90 0 117 129l219 1079q4 24 4 39q0 82 -104 82h-23v31h272zM258 711h246l-129 573zM473 1524
q27 4 80 30q-48 -69 -117 -69h-4q-23 3 -49 14q-25 14 -57 14q-38 0 -99 -22q46 59 119 59q23 0 33 -4q5 -2 25 -11.5t32 -10.5q3 0 9.5 -1t9.5 -1t9 1t9 1z" />
    <glyph glyph-name="Adieresis" unicode="&#xc4;" 
d="M485 1391l277 -1231q27 -129 131 -129v-29h-340v29q35 0 57.5 20t22.5 62q0 19 -6 43l-117 524h-258l-107 -526q-4 -28 -4 -41q0 -41 19.5 -61.5t50.5 -20.5v-29h-211v29q90 0 117 129l219 1079q4 24 4 39q0 82 -104 82h-23v31h272zM258 711h246l-129 573zM291 1610
q28 0 47.5 -19t19.5 -47t-19.5 -46.5t-47.5 -18.5q-27 0 -46.5 19t-19.5 46t19.5 46.5t46.5 19.5zM494 1610q28 0 47.5 -19t19.5 -47t-19.5 -46.5t-47.5 -18.5q-27 0 -46.5 19t-19.5 46t19.5 46.5t46.5 19.5z" />
    <glyph glyph-name="Aring" unicode="&#xc5;" 
d="M485 1391l277 -1231q27 -129 131 -129v-29h-340v29q35 0 57.5 20t22.5 62q0 19 -6 43l-117 524h-258l-107 -526q-4 -28 -4 -41q0 -41 19.5 -61.5t50.5 -20.5v-29h-211v29q90 0 117 129l219 1079q4 24 4 39q0 82 -104 82h-23v31h272zM258 711h246l-129 573zM395 1710
q37 0 63.5 -33.5t26.5 -79.5t-26.5 -79t-63.5 -33t-63.5 33t-26.5 79t26.5 79.5t63.5 33.5zM395 1698q-25 0 -43 -30t-18 -71t18 -70.5t43 -29.5q26 0 44 29t18 71t-18 71.5t-44 29.5z" />
    <glyph glyph-name="AE" unicode="&#xc6;" horiz-adv-x="1335" 
d="M258 711h246l-129 573zM618 795v436q0 73 -30 100q-32 29 -74 29v31h758v-279h-31v96q0 63 -43 109q-46 43 -108 43h-236q-42 0 -74 -29q-30 -27 -30 -100v-369h77q58 0 99 41q39 39 39 98v68h30v-551h-30v176q0 60 -39 99q-41 41 -99 41h-77v-674q0 -72 30 -99
q30 -30 74 -30h133q108 0 180 75q74 74 74 179v123h31v-406h-758v29q44 0 74 30q30 27 30 99v33l-108 487h-258l-107 -526q-4 -32 -4 -41q0 -34 17 -58q18 -24 53 -24v-29h-211v29q38 0 72 30q30 27 45 99l219 1079q4 24 4 37q0 30 -14 55q-13 29 -90 29h-23v31h272z" />
    <glyph glyph-name="Ccedilla" unicode="&#xc7;" horiz-adv-x="1019" 
d="M526 -6q-210 15 -362 207q-164 206 -164 495q0 292 164 498q163 205 393 205q92 0 170 -35q79 -36 135 -86l2 -2q18 -14 29 -21q8 -4 12 -4q9 0 15 9q8 5 8 51h30v-428h-30v35q0 116 -60 221q-57 100 -145 166q-84 63 -166 63q-176 0 -299 -197q-125 -195 -125 -475
t125 -475q123 -196 299 -196q82 0 166 63q88 63 145 166q60 105 60 221v33h30v-426h-30q0 43 -10 53q-6 6 -13 6q-8 0 -16 -8q-15 -10 -25 -18q-2 0 -2 -2q-52 -46 -135 -84q-78 -35 -170 -35h-16q3 -22 12 -43q10 -22 29 -49q12 -16 24 -45q10 -23 10 -50q0 -24 -22 -43
q-21 -18 -55 -18q-71 0 -80 72v4h35v-4q0 -19 10 -39q10 -19 35 -19q22 0 32 17q11 18 11 30q0 36 -23 74q-13 26 -22 56q-8 18 -11 57z" />
    <glyph glyph-name="Egrave" unicode="&#xc8;" horiz-adv-x="821" 
d="M0 1391h760v-279h-31v96q0 63 -45.5 107.5t-108.5 44.5h-235q-46 0 -74 -31t-28 -98v-369h75q58 0 99 41t41 98v68h30v-551h-30v176q0 58 -40.5 99t-99.5 41h-75v-674q0 -67 28 -98t74 -31h135q104 0 179 75t75 179v123h31v-406h-760v29q46 0 75 31.5t29 97.5v1071
q0 66 -29 97.5t-75 31.5v31zM248 1716l174 -217h-27l-205 217h58z" />
    <glyph glyph-name="Eacute" unicode="&#xc9;" horiz-adv-x="821" 
d="M0 1391h760v-279h-31v96q0 63 -45.5 107.5t-108.5 44.5h-235q-46 0 -74 -31t-28 -98v-369h75q58 0 99 41t41 98v68h30v-551h-30v176q0 58 -40.5 99t-99.5 41h-75v-674q0 -67 28 -98t74 -31h135q104 0 179 75t75 179v123h31v-406h-760v29q46 0 75 31.5t29 97.5v1071
q0 66 -29 97.5t-75 31.5v31zM551 1720h57l-205 -217h-26z" />
    <glyph glyph-name="Ecircumflex" unicode="&#xca;" horiz-adv-x="821" 
d="M0 1391h760v-279h-31v96q0 63 -45.5 107.5t-108.5 44.5h-235q-46 0 -74 -31t-28 -98v-369h75q58 0 99 41t41 98v68h30v-551h-30v176q0 58 -40.5 99t-99.5 41h-75v-674q0 -67 28 -98t74 -31h135q104 0 179 75t75 179v123h31v-406h-760v29q46 0 75 31.5t29 97.5v1071
q0 66 -29 97.5t-75 31.5v31zM537 1481h-29l-121 176l-123 -176h-28l122 217h56z" />
    <glyph glyph-name="Edieresis" unicode="&#xcb;" horiz-adv-x="821" 
d="M0 1391h760v-279h-31v96q0 63 -45.5 107.5t-108.5 44.5h-235q-46 0 -74 -31t-28 -98v-369h75q58 0 99 41t41 98v68h30v-551h-30v176q0 58 -40.5 99t-99.5 41h-75v-674q0 -67 28 -98t74 -31h135q104 0 179 75t75 179v123h31v-406h-760v29q46 0 75 31.5t29 97.5v1071
q0 66 -29 97.5t-75 31.5v31zM274 1606q28 0 48 -19t20 -47q0 -27 -20 -46t-48 -19q-27 0 -46 19t-19 46q0 28 19.5 47t45.5 19zM477 1606q28 0 48 -19t20 -47q0 -27 -20 -46t-48 -19q-27 0 -46 19t-19 46q0 28 19 47t46 19z" />
    <glyph glyph-name="Igrave" unicode="&#xcc;" horiz-adv-x="401" 
d="M0 1391h340v-31q-46 0 -75 -31.5t-29 -97.5v-1071q0 -66 29 -97.5t75 -31.5v-29h-340v29q46 0 75 31.5t29 97.5v1071q0 66 -29 97.5t-75 31.5v31zM16 1710l174 -217h-26l-205 217h57z" />
    <glyph glyph-name="Iacute" unicode="&#xcd;" horiz-adv-x="401" 
d="M0 1391h340v-31q-46 0 -75 -31.5t-29 -97.5v-1071q0 -66 29 -97.5t75 -31.5v-29h-340v29q46 0 75 31.5t29 97.5v1071q0 66 -29 97.5t-75 31.5v31zM332 1704h57l-205 -217h-26z" />
    <glyph glyph-name="Icircumflex" unicode="&#xce;" horiz-adv-x="401" 
d="M0 1391h340v-31q-46 0 -75 -31.5t-29 -97.5v-1071q0 -66 29 -97.5t75 -31.5v-29h-340v29q46 0 75 31.5t29 97.5v1071q0 66 -29 97.5t-75 31.5v31zM319 1481h-28l-121 176l-123 -176h-29l123 217h56z" />
    <glyph glyph-name="Idieresis" unicode="&#xcf;" horiz-adv-x="401" 
d="M0 1391h340v-31q-46 0 -75 -31.5t-29 -97.5v-1071q0 -66 29 -97.5t75 -31.5v-29h-340v29q46 0 75 31.5t29 97.5v1071q0 66 -29 97.5t-75 31.5v31zM68 1595q28 0 47.5 -18.5t19.5 -46.5t-19.5 -47t-47.5 -19q-27 0 -46.5 19.5t-19.5 46.5t19.5 46t46.5 19zM270 1595
q28 0 48 -19t20 -46q0 -28 -20 -47t-48 -19q-26 0 -45.5 19t-19.5 47q0 27 19 46t46 19z" />
    <glyph glyph-name="Eth" unicode="&#xd0;" horiz-adv-x="1097" 
d="M236 680v-520q0 -72 30 -99q30 -30 74 -30h59q182 0 295 90q108 86 162 241q49 148 49 334t-49 334q-55 157 -162 242q-110 88 -295 88h-59q-42 0 -74 -29q-30 -27 -30 -100v-520h217v-31h-217zM104 711v520q0 73 -30 100q-32 29 -74 29v31h399q232 0 375 -93
q140 -96 201 -251q61 -158 61 -351q0 -195 -61 -350q-62 -158 -201 -250q-140 -94 -375 -94h-399v29q44 0 74 30q30 27 30 99v520h-153v31h153z" />
    <glyph glyph-name="Ntilde" unicode="&#xd1;" horiz-adv-x="952" 
d="M682 1391h209v-31q-40 0 -65 -31.5t-25 -97.5v-1229h-29l-653 1239v-1081q0 -66 25 -97.5t65 -31.5v-29h-209v29q40 0 64 31t24 98v1071q0 67 -24 98t-64 31v31h188l584 -1106v946q0 66 -25 97.5t-65 31.5v31zM526 1528q24 4 80 31q-21 -31 -52 -50.5t-65 -19.5h-4
q-23 3 -49 14q-27 15 -57 15q-35 0 -98 -23q46 59 118 59q23 0 33 -4q5 -2 25 -11.5t32 -10.5q3 0 9.5 -1t9.5 -1t9 1t9 1z" />
    <glyph glyph-name="Ograve" unicode="&#xd2;" horiz-adv-x="1173" 
d="M555 1399q151 0 279.5 -94.5t203 -256.5t74.5 -352q0 -143 -44 -273t-119 -224t-178 -149.5t-216 -55.5t-216 55.5t-177 149.5t-118 224t-44 273q0 190 74 352t202 256.5t279 94.5zM555 25q116 0 214 89.5t155 244t57 337.5t-57 337.5t-155 244.5t-214 90
q-115 0 -212.5 -90t-154.5 -245t-57 -337t57 -337t154.5 -244.5t212.5 -89.5zM387 1710l174 -217h-26l-205 217h57z" />
    <glyph glyph-name="Oacute" unicode="&#xd3;" horiz-adv-x="1173" 
d="M555 1399q151 0 279.5 -94.5t203 -256.5t74.5 -352q0 -143 -44 -273t-119 -224t-178 -149.5t-216 -55.5t-216 55.5t-177 149.5t-118 224t-44 273q0 190 74 352t202 256.5t279 94.5zM555 25q116 0 214 89.5t155 244t57 337.5t-57 337.5t-155 244.5t-214 90
q-115 0 -212.5 -90t-154.5 -245t-57 -337t57 -337t154.5 -244.5t212.5 -89.5zM711 1696h57l-205 -217h-26z" />
    <glyph glyph-name="Ocircumflex" unicode="&#xd4;" horiz-adv-x="1173" 
d="M555 1399q151 0 279.5 -94.5t203 -256.5t74.5 -352q0 -143 -44 -273t-119 -224t-178 -149.5t-216 -55.5t-216 55.5t-177 149.5t-118 224t-44 273q0 190 74 352t202 256.5t279 94.5zM555 25q116 0 214 89.5t155 244t57 337.5t-57 337.5t-155 244.5t-214 90
q-115 0 -212.5 -90t-154.5 -245t-57 -337t57 -337t154.5 -244.5t212.5 -89.5zM705 1468h-29l-121 177l-123 -177h-29l123 218h56z" />
    <glyph glyph-name="Otilde" unicode="&#xd5;" horiz-adv-x="1173" 
d="M555 1399q151 0 279.5 -94.5t203 -256.5t74.5 -352q0 -143 -44 -273t-119 -224t-178 -149.5t-216 -55.5t-216 55.5t-177 149.5t-118 224t-44 273q0 190 74 352t202 256.5t279 94.5zM555 25q116 0 214 89.5t155 244t57 337.5t-57 337.5t-155 244.5t-214 90
q-115 0 -212.5 -90t-154.5 -245t-57 -337t57 -337t154.5 -244.5t212.5 -89.5zM629 1518q27 4 80 30q-48 -69 -117 -69h-4q-23 3 -49 14q-25 14 -58 14q-37 0 -98 -22q46 59 119 59q23 0 33 -4q5 -2 25 -11.5t32 -10.5q3 0 9 -1t9 -1t9.5 1t9.5 1z" />
    <glyph glyph-name="Odieresis" unicode="&#xd6;" horiz-adv-x="1173" 
d="M555 1399q151 0 279.5 -94.5t203 -256.5t74.5 -352q0 -143 -44 -273t-119 -224t-178 -149.5t-216 -55.5t-216 55.5t-177 149.5t-118 224t-44 273q0 190 74 352t202 256.5t279 94.5zM555 25q116 0 214 89.5t155 244t57 337.5t-57 337.5t-155 244.5t-214 90
q-115 0 -212.5 -90t-154.5 -245t-57 -337t57 -337t154.5 -244.5t212.5 -89.5zM453 1606q28 0 47.5 -19t19.5 -47t-19.5 -46.5t-47.5 -18.5q-27 0 -46.5 19t-19.5 46t19.5 46.5t46.5 19.5zM655 1606q28 0 48 -19t20 -47q0 -27 -20 -46t-48 -19q-27 0 -46 19t-19 46
q0 28 19 47t46 19z" />
    <glyph glyph-name="multiply" unicode="&#xd7;" horiz-adv-x="436" 
d="M375 592l-166 -166l166 -168l-21 -20l-166 165l-168 -165l-20 20l166 168l-166 166l20 20l168 -166l166 166z" />
    <glyph glyph-name="Oslash" unicode="&#xd8;" horiz-adv-x="1173" 
d="M283 180q113 -155 272 -155q175 0 301 196q125 195 125 475t-125 475l-8 13zM829 1210q-119 158 -274 158q-176 0 -299 -197q-125 -195 -125 -475t125 -475l6 -12zM221 135q-27 24 -57 66q-164 206 -164 495q0 292 164 498q163 205 391 205q176 0 313 -119l64 113h35
l-76 -136q19 -17 59 -63q162 -204 162 -498q0 -291 -162 -495q-165 -207 -395 -207q-174 0 -311 119l-64 -113h-35z" />
    <glyph glyph-name="Ugrave" unicode="&#xd9;" 
d="M682 1360v31h211v-31q-40 0 -65 -31.5t-25 -97.5v-932q0 -123 -87.5 -210t-211.5 -87q-88 0 -156.5 18.5t-125.5 61t-87.5 120t-30.5 187.5v842q0 66 -29 97.5t-75 31.5v31h340v-31q-46 0 -75 -31.5t-29 -97.5v-885q0 -166 73.5 -240.5t194.5 -74.5q112 0 190 78.5
t78 189.5v932q0 129 -90 129zM334 1708l174 -217h-27l-205 217h58z" />
    <glyph glyph-name="Uacute" unicode="&#xda;" 
d="M682 1360v31h211v-31q-40 0 -65 -31.5t-25 -97.5v-932q0 -123 -87.5 -210t-211.5 -87q-88 0 -156.5 18.5t-125.5 61t-87.5 120t-30.5 187.5v842q0 66 -29 97.5t-75 31.5v31h340v-31q-46 0 -75 -31.5t-29 -97.5v-885q0 -166 73.5 -240.5t194.5 -74.5q112 0 190 78.5
t78 189.5v932q0 129 -90 129zM637 1698h57l-205 -217h-26z" />
    <glyph glyph-name="Ucircumflex" unicode="&#xdb;" 
d="M682 1360v31h211v-31q-40 0 -65 -31.5t-25 -97.5v-932q0 -123 -87.5 -210t-211.5 -87q-88 0 -156.5 18.5t-125.5 61t-87.5 120t-30.5 187.5v842q0 66 -29 97.5t-75 31.5v31h340v-31q-46 0 -75 -31.5t-29 -97.5v-885q0 -166 73.5 -240.5t194.5 -74.5q112 0 190 78.5
t78 189.5v932q0 129 -90 129zM637 1491h-29l-121 176l-122 -176h-29l123 217h55z" />
    <glyph glyph-name="Udieresis" unicode="&#xdc;" 
d="M682 1360v31h211v-31q-40 0 -65 -31.5t-25 -97.5v-932q0 -123 -87.5 -210t-211.5 -87q-88 0 -156.5 18.5t-125.5 61t-87.5 120t-30.5 187.5v842q0 66 -29 97.5t-75 31.5v31h340v-31q-46 0 -75 -31.5t-29 -97.5v-885q0 -166 73.5 -240.5t194.5 -74.5q112 0 190 78.5
t78 189.5v932q0 129 -90 129zM389 1608q28 0 48 -19t20 -47q0 -27 -20 -46t-48 -19q-27 0 -46 19t-19 46q0 28 19 47t46 19zM592 1608q28 0 47.5 -19t19.5 -47t-19.5 -46.5t-47.5 -18.5q-27 0 -46.5 19t-19.5 46t19.5 46.5t46.5 19.5z" />
    <glyph glyph-name="Yacute" unicode="&#xdd;" 
d="M682 1360v31h211v-31q-78 0 -145 -129l-220 -410v-661q0 -66 29 -97.5t76 -31.5v-29h-340v29q46 0 75 31.5t29 97.5v626l-237 445q-67 129 -160 129v31h340v-31q-55 0 -55 -51q0 -31 22 -74l205 -383l203 383q22 43 22 74q0 51 -55 51zM637 1714h57l-205 -217h-26z" />
    <glyph glyph-name="Thorn" unicode="&#xde;" horiz-adv-x="952" 
d="M236 862h321q101 0 154 74q49 73 49 176t-49 176q-54 72 -154 72h-223q-41 0 -70 -29q-28 -28 -28 -100v-369zM236 1391h315q152 0 246 -82t94 -197q0 -118 -94 -197q-93 -81 -246 -81h-315v-674q0 -72 30 -99q30 -30 74 -30v-29h-340v29q44 0 74 30q28 28 28 99l2 1351
q0 65 -28 74q-6 2 -17 2q-22 0 -49 -12l-10 29l199 75q4 2 10 2q9 0 18 -6t9 -22v-262z" />
    <glyph glyph-name="germandbls" unicode="&#xdf;" 
d="M522 856q174 -27 272.5 -144t98.5 -280q0 -185 -125.5 -307.5t-341.5 -122.5h-129v31h135q107 0 182.5 54.5t110.5 143t35 201.5t-35 202.5t-110.5 144.5t-182.5 55h-135v30h90q98 0 150.5 70t52.5 178q0 109 -52.5 179.5t-150.5 70.5h-47q-104 -4 -104 -129v-1231h-236
v31q46 0 75 31.5t29 97.5v1026q0 60 22 102.5t59.5 63t74.5 29t80 8.5h41q147 0 243.5 -81t96.5 -198q0 -86 -54 -155t-145 -101z" />
    <glyph glyph-name="agrave" unicode="&#xe0;" horiz-adv-x="829" 
d="M664 543v-383q0 -66 29 -97.5t75 -31.5v-31h-184q-22 0 -37 15t-15 36v51q-73 -108 -225 -108q-39 0 -76 4.5t-80.5 18.5t-75.5 36t-53.5 62t-21.5 92q0 48 25 88t59.5 65.5t87 46.5t90.5 31.5t86 20.5q45 9 70 15.5t54.5 18t43.5 27t16 35.5q-3 270 -167 270
q-70 0 -123.5 -56t-53.5 -126q0 -37 23 -78l16 -30l-26 -15l-150 250l27 16q20 -30 45 -30q16 0 31 12q36 26 55.5 39t66 31t89.5 18q49 0 91 -9.5t81 -32t66.5 -57.5t44 -89.5t16.5 -124.5zM307 25q91 0 158 52t67 122v295q-42 -38 -178 -64q-49 -11 -86 -26.5t-69.5 -41.5
t-50 -66t-17.5 -93q0 -83 49 -130.5t127 -47.5zM229 1176l174 -218h-26l-205 218h57z" />
    <glyph glyph-name="aacute" unicode="&#xe1;" horiz-adv-x="829" 
d="M664 543v-383q0 -66 29 -97.5t75 -31.5v-31h-184q-22 0 -37 15t-15 36v51q-73 -108 -225 -108q-39 0 -76 4.5t-80.5 18.5t-75.5 36t-53.5 62t-21.5 92q0 48 25 88t59.5 65.5t87 46.5t90.5 31.5t86 20.5q45 9 70 15.5t54.5 18t43.5 27t16 35.5q-3 270 -167 270
q-70 0 -123.5 -56t-53.5 -126q0 -37 23 -78l16 -30l-26 -15l-150 250l27 16q20 -30 45 -30q16 0 31 12q36 26 55.5 39t66 31t89.5 18q49 0 91 -9.5t81 -32t66.5 -57.5t44 -89.5t16.5 -124.5zM307 25q91 0 158 52t67 122v295q-42 -38 -178 -64q-49 -11 -86 -26.5t-69.5 -41.5
t-50 -66t-17.5 -93q0 -83 49 -130.5t127 -47.5zM551 1171h57l-205 -217h-26z" />
    <glyph glyph-name="acircumflex" unicode="&#xe2;" horiz-adv-x="829" 
d="M664 543v-383q0 -66 29 -97.5t75 -31.5v-31h-184q-22 0 -37 15t-15 36v51q-73 -108 -225 -108q-39 0 -76 4.5t-80.5 18.5t-75.5 36t-53.5 62t-21.5 92q0 48 25 88t59.5 65.5t87 46.5t90.5 31.5t86 20.5q45 9 70 15.5t54.5 18t43.5 27t16 35.5q-3 270 -167 270
q-70 0 -123.5 -56t-53.5 -126q0 -37 23 -78l16 -30l-26 -15l-150 250l27 16q20 -30 45 -30q16 0 31 12q36 26 55.5 39t66 31t89.5 18q49 0 91 -9.5t81 -32t66.5 -57.5t44 -89.5t16.5 -124.5zM307 25q91 0 158 52t67 122v295q-42 -38 -178 -64q-49 -11 -86 -26.5t-69.5 -41.5
t-50 -66t-17.5 -93q0 -83 49 -130.5t127 -47.5zM526 954h-28l-121 176l-123 -176h-29l123 217h55z" />
    <glyph glyph-name="atilde" unicode="&#xe3;" horiz-adv-x="829" 
d="M664 543v-383q0 -66 29 -97.5t75 -31.5v-31h-184q-22 0 -37 15t-15 36v51q-73 -108 -225 -108q-39 0 -76 4.5t-80.5 18.5t-75.5 36t-53.5 62t-21.5 92q0 48 25 88t59.5 65.5t87 46.5t90.5 31.5t86 20.5q45 9 70 15.5t54.5 18t43.5 27t16 35.5q-3 270 -167 270
q-70 0 -123.5 -56t-53.5 -126q0 -37 23 -78l16 -30l-26 -15l-150 250l27 16q20 -30 45 -30q16 0 31 12q36 26 55.5 39t66 31t89.5 18q49 0 91 -9.5t81 -32t66.5 -57.5t44 -89.5t16.5 -124.5zM307 25q91 0 158 52t67 122v295q-42 -38 -178 -64q-49 -11 -86 -26.5t-69.5 -41.5
t-50 -66t-17.5 -93q0 -83 49 -130.5t127 -47.5zM471 1004q27 4 80 30q-48 -69 -117 -69h-4q-23 3 -49 14q-25 14 -57 14q-38 0 -99 -22q46 59 119 59q23 0 33 -4q5 -2 25 -11.5t32 -10.5q3 0 9.5 -1.5t9.5 -1.5t9 1.5t9 1.5z" />
    <glyph glyph-name="adieresis" unicode="&#xe4;" horiz-adv-x="829" 
d="M664 543v-383q0 -66 29 -97.5t75 -31.5v-31h-184q-22 0 -37 15t-15 36v51q-73 -108 -225 -108q-39 0 -76 4.5t-80.5 18.5t-75.5 36t-53.5 62t-21.5 92q0 48 25 88t59.5 65.5t87 46.5t90.5 31.5t86 20.5q45 9 70 15.5t54.5 18t43.5 27t16 35.5q-3 270 -167 270
q-70 0 -123.5 -56t-53.5 -126q0 -37 23 -78l16 -30l-26 -15l-150 250l27 16q20 -30 45 -30q16 0 31 12q36 26 55.5 39t66 31t89.5 18q49 0 91 -9.5t81 -32t66.5 -57.5t44 -89.5t16.5 -124.5zM307 25q91 0 158 52t67 122v295q-42 -38 -178 -64q-49 -11 -86 -26.5t-69.5 -41.5
t-50 -66t-17.5 -93q0 -83 49 -130.5t127 -47.5zM285 1075q28 0 47.5 -18.5t19.5 -46.5t-19.5 -47t-47.5 -19q-27 0 -46.5 19.5t-19.5 46.5t19.5 46t46.5 19zM487 1075q28 0 48 -19t20 -46q0 -28 -20 -47t-48 -19q-27 0 -46 19t-19 47q0 27 19 46t46 19z" />
    <glyph glyph-name="aring" unicode="&#xe5;" horiz-adv-x="829" 
d="M664 543v-383q0 -66 29 -97.5t75 -31.5v-31h-184q-22 0 -37 15t-15 36v51q-73 -108 -225 -108q-39 0 -76 4.5t-80.5 18.5t-75.5 36t-53.5 62t-21.5 92q0 48 25 88t59.5 65.5t87 46.5t90.5 31.5t86 20.5q45 9 70 15.5t54.5 18t43.5 27t16 35.5q-3 270 -167 270
q-70 0 -123.5 -56t-53.5 -126q0 -37 23 -78l16 -30l-26 -15l-150 250l27 16q20 -30 45 -30q16 0 31 12q36 26 55.5 39t66 31t89.5 18q49 0 91 -9.5t81 -32t66.5 -57.5t44 -89.5t16.5 -124.5zM307 25q91 0 158 52t67 122v295q-42 -38 -178 -64q-49 -11 -86 -26.5t-69.5 -41.5
t-50 -66t-17.5 -93q0 -83 49 -130.5t127 -47.5zM393 1161q37 0 63.5 -33t26.5 -79t-26.5 -79.5t-63.5 -33.5t-63.5 33.5t-26.5 79.5t26.5 79t63.5 33zM393 1149q-25 0 -43 -29.5t-18 -70.5t18 -71t43 -30q26 0 44 29.5t18 71.5t-18 71t-44 29z" />
    <glyph glyph-name="ae" unicode="&#xe6;" horiz-adv-x="1282" 
d="M307 25q90 0 158 53q67 52 67 121v295q-69 -50 -178 -64q-55 -11 -108 -37q-54 -28 -82 -71q-33 -44 -33 -119q0 -85 49 -131q50 -47 127 -47zM674 389l233 80q166 64 166 205v4q-3 55 -39 104q-34 43 -114 43q-105 0 -175 -116q-73 -119 -73 -285q0 -25 2 -35zM633 709
q3 3 9 10t9 10q112 127 269 127q107 0 178 -41q73 -45 90 -113q4 -24 4 -34q0 -76 -78 -133q-74 -57 -194 -95l-244 -82q18 -114 80 -188q60 -72 139 -100q41 -13 76 -13q34 0 82 11q52 9 104 61l23 -20q-109 -115 -260 -115q-80 0 -152 35v-29h-184q-21 0 -37 16
q-15 15 -15 35v51q-83 -108 -225 -108q-54 0 -129 16q-72 15 -125 62t-53 135q0 83 61 135q61 51 142 78q78 27 145 39q81 16 127 35q51 20 57 61q-3 145 -45 207q-45 63 -122 63q-90 0 -146 -86q-31 -48 -31 -94q0 -36 23 -80l16 -30l-26 -15l-150 250l27 16q18 -30 43 -30
q15 0 33 12q2 0 4 2q37 29 86 57q56 29 121 29q71 0 147 -29q66 -26 111 -96q7 -11 10 -22zM672 96q11 -26 22 -35q24 -27 68 -30q-45 23 -90 65z" />
    <glyph glyph-name="ccedilla" unicode="&#xe7;" horiz-adv-x="753" 
d="M352 -4q-135 9 -239 125q-113 125 -113 303q0 180 113 305q112 127 268 127q65 0 121 -29q41 -24 84 -57q2 -2 4 -2q18 -12 33 -12q24 0 45 30l24 -16l-149 -250l-27 15l19 30q20 39 20 80q0 47 -41 115q-44 65 -133 65q-106 0 -176 -116q-74 -121 -74 -285
q0 -139 68 -231q69 -94 155 -123q41 -13 76 -13q33 0 84 11q53 9 102 61l23 -20q-109 -115 -258 -115h-12q1 -5 4.5 -13.5t3.5 -9.5q10 -22 29 -49q12 -17 24 -45q10 -23 10 -49q0 -24 -22 -43q-21 -18 -56 -18q-70 0 -79 71v4h34v-4q0 -17 11 -39q9 -18 34 -18q23 0 33 16
q11 18 11 31q0 36 -23 74q-16 32 -23 55q-4 9 -8 39z" />
    <glyph glyph-name="egrave" unicode="&#xe8;" horiz-adv-x="743" 
d="M381 440l-244 -82q16 -109 77 -183.5t142 -104.5q37 -13 76 -13q53 0 103 19t83 53l23 -20q-106 -115 -260 -115q-158 0 -269.5 125.5t-111.5 304.5t111.5 305.5t269.5 126.5q105 0 178 -42.5t90 -111.5q4 -24 4 -36q0 -40 -22.5 -75.5t-64.5 -63t-85 -47.5t-100 -40z
M133 389l236 80q76 26 121 80t45 117v12q-5 65 -42.5 106t-111.5 41q-103 0 -175.5 -117.5t-72.5 -283.5v-35zM233 1196l175 -217h-27l-205 217h57z" />
    <glyph glyph-name="eacute" unicode="&#xe9;" horiz-adv-x="743" 
d="M381 440l-244 -82q16 -109 77 -183.5t142 -104.5q37 -13 76 -13q53 0 103 19t83 53l23 -20q-106 -115 -260 -115q-158 0 -269.5 125.5t-111.5 304.5t111.5 305.5t269.5 126.5q105 0 178 -42.5t90 -111.5q4 -24 4 -36q0 -40 -22.5 -75.5t-64.5 -63t-85 -47.5t-100 -40z
M133 389l236 80q76 26 121 80t45 117v12q-5 65 -42.5 106t-111.5 41q-103 0 -175.5 -117.5t-72.5 -283.5v-35zM539 1190h57l-205 -217h-26z" />
    <glyph glyph-name="ecircumflex" unicode="&#xea;" horiz-adv-x="743" 
d="M381 440l-244 -82q16 -109 77 -183.5t142 -104.5q37 -13 76 -13q53 0 103 19t83 53l23 -20q-106 -115 -260 -115q-158 0 -269.5 125.5t-111.5 304.5t111.5 305.5t269.5 126.5q105 0 178 -42.5t90 -111.5q4 -24 4 -36q0 -40 -22.5 -75.5t-64.5 -63t-85 -47.5t-100 -40z
M133 389l236 80q76 26 121 80t45 117v12q-5 65 -42.5 106t-111.5 41q-103 0 -175.5 -117.5t-72.5 -283.5v-35zM539 952h-29l-121 176l-123 -176h-28l122 217h56z" />
    <glyph glyph-name="edieresis" unicode="&#xeb;" horiz-adv-x="743" 
d="M381 440l-244 -82q16 -109 77 -183.5t142 -104.5q37 -13 76 -13q53 0 103 19t83 53l23 -20q-106 -115 -260 -115q-158 0 -269.5 125.5t-111.5 304.5t111.5 305.5t269.5 126.5q105 0 178 -42.5t90 -111.5q4 -24 4 -36q0 -40 -22.5 -75.5t-64.5 -63t-85 -47.5t-100 -40z
M133 389l236 80q76 26 121 80t45 117v12q-5 65 -42.5 106t-111.5 41q-103 0 -175.5 -117.5t-72.5 -283.5v-35zM287 1094q28 0 47.5 -19t19.5 -47t-19.5 -46.5t-47.5 -18.5q-27 0 -46.5 19t-19.5 46t19.5 46.5t46.5 19.5zM489 1094q28 0 48 -19t20 -47q0 -27 -20 -46t-48 -19
q-27 0 -46 19t-19 46q0 28 19 47t46 19z" />
    <glyph glyph-name="igrave" unicode="&#xec;" horiz-adv-x="401" 
d="M236 819v-659q0 -66 29 -97.5t75 -31.5v-31h-340v31q46 0 75 31.5t29 97.5v518q0 76 -47 76q-12 0 -47 -13l-10 29l199 76q4 2 10 2q11 0 19 -8.5t8 -20.5zM35 1165l174 -217h-27l-205 217h58z" />
    <glyph glyph-name="iacute" unicode="&#xed;" horiz-adv-x="401" 
d="M236 819v-659q0 -66 29 -97.5t75 -31.5v-31h-340v31q46 0 75 31.5t29 97.5v518q0 76 -47 76q-12 0 -47 -13l-10 29l199 76q4 2 10 2q11 0 19 -8.5t8 -20.5zM319 1167h58l-205 -217h-27z" />
    <glyph glyph-name="icircumflex" unicode="&#xee;" horiz-adv-x="401" 
d="M236 819v-659q0 -66 29 -97.5t75 -31.5v-31h-340v31q46 0 75 31.5t29 97.5v518q0 76 -47 76q-12 0 -47 -13l-10 29l199 76q4 2 10 2q11 0 19 -8.5t8 -20.5zM322 940h-29l-121 176l-123 -176h-29l123 217h56z" />
    <glyph glyph-name="idieresis" unicode="&#xef;" horiz-adv-x="401" 
d="M236 819v-659q0 -66 29 -97.5t75 -31.5v-31h-340v31q46 0 75 31.5t29 97.5v518q0 76 -47 76q-12 0 -47 -13l-10 29l199 76q4 2 10 2q11 0 19 -8.5t8 -20.5zM78 1069q28 0 47.5 -18.5t19.5 -46.5t-19.5 -47t-47.5 -19q-27 0 -46.5 19.5t-19.5 46.5t19.5 46t46.5 19z
M281 1069q28 0 47.5 -18.5t19.5 -46.5t-19.5 -47t-47.5 -19q-27 0 -46.5 19.5t-19.5 46.5t19.5 46t46.5 19z" />
    <glyph glyph-name="eth" unicode="&#xf0;" horiz-adv-x="888" 
d="M696 463q0 119 -24 221q-24 99 -86 158t-172 59q-116 0 -199 -127q-82 -128 -82 -311q0 -184 82 -309q83 -129 199 -129q118 0 200 129q82 125 82 309zM596 1219q79 -85 141 -209q90 -194 90 -469q0 -260 -120 -404q-119 -143 -293 -143t-293 137q-121 139 -121 332
t121 332q119 137 293 137q125 0 229 -78q-57 191 -143 317l-189 -90l-14 27l184 90q-13 18 -16 23q-114 141 -238 141v29q139 0 281 -97q33 -23 63 -53l179 86l12 -29z" />
    <glyph glyph-name="ntilde" unicode="&#xf1;" horiz-adv-x="876" 
d="M711 557v-397q0 -66 29 -97.5t75 -31.5v-31h-340v31q47 0 76 31.5t29 97.5v430q0 119 -41.5 177t-114.5 58q-74 0 -130 -69t-56 -154v-442q0 -67 28 -98t74 -31v-31h-340v31q46 0 75 31.5t29 97.5v518q0 76 -47 76q-10 0 -45 -13l-12 29l199 76q4 2 10 2q11 0 20 -8.5
t9 -20.5v-82q72 119 186 119q127 0 207 -80.5t80 -218.5zM518 1001q24 4 80 31q-48 -69 -117 -69h-4q-23 3 -49 14q-25 14 -57 14q-39 0 -99 -22q46 59 119 59q23 0 33 -4q5 -2 25 -12t32 -11q3 0 9.5 -1t9.5 -1t9 1t9 1z" />
    <glyph glyph-name="ograve" unicode="&#xf2;" horiz-adv-x="823" 
d="M381 856q158 0 269.5 -126.5t111.5 -305.5t-111.5 -304.5t-269.5 -125.5t-269.5 125.5t-111.5 304.5t111.5 305.5t269.5 126.5zM381 25q103 0 176.5 117t73.5 282q0 166 -73.5 283.5t-176.5 117.5t-175.5 -117.5t-72.5 -283.5t72.5 -282.5t175.5 -116.5zM227 1171
l174 -217h-26l-205 217h57z" />
    <glyph glyph-name="oacute" unicode="&#xf3;" horiz-adv-x="823" 
d="M381 856q158 0 269.5 -126.5t111.5 -305.5t-111.5 -304.5t-269.5 -125.5t-269.5 125.5t-111.5 304.5t111.5 305.5t269.5 126.5zM381 25q103 0 176.5 117t73.5 282q0 166 -73.5 283.5t-176.5 117.5t-175.5 -117.5t-72.5 -283.5t72.5 -282.5t175.5 -116.5zM524 1178h58
l-205 -217h-27z" />
    <glyph glyph-name="ocircumflex" unicode="&#xf4;" horiz-adv-x="823" 
d="M381 856q158 0 269.5 -126.5t111.5 -305.5t-111.5 -304.5t-269.5 -125.5t-269.5 125.5t-111.5 304.5t111.5 305.5t269.5 126.5zM381 25q103 0 176.5 117t73.5 282q0 166 -73.5 283.5t-176.5 117.5t-175.5 -117.5t-72.5 -283.5t72.5 -282.5t175.5 -116.5zM535 940h-29
l-121 176l-123 -176h-29l123 217h56z" />
    <glyph glyph-name="otilde" unicode="&#xf5;" horiz-adv-x="823" 
d="M381 856q158 0 269.5 -126.5t111.5 -305.5t-111.5 -304.5t-269.5 -125.5t-269.5 125.5t-111.5 304.5t111.5 305.5t269.5 126.5zM381 25q103 0 176.5 117t73.5 282q0 166 -73.5 283.5t-176.5 117.5t-175.5 -117.5t-72.5 -283.5t72.5 -282.5t175.5 -116.5zM469 997
q24 4 80 31q-21 -31 -52 -50.5t-65 -19.5h-4q-20 2 -49 15q-25 14 -57 14q-38 0 -99 -22q46 59 119 59q23 0 33 -4q5 -2 25 -12t32 -11q3 0 9.5 -1t9.5 -1t9 1t9 1z" />
    <glyph glyph-name="odieresis" unicode="&#xf6;" horiz-adv-x="823" 
d="M381 856q158 0 269.5 -126.5t111.5 -305.5t-111.5 -304.5t-269.5 -125.5t-269.5 125.5t-111.5 304.5t111.5 305.5t269.5 126.5zM381 25q103 0 176.5 117t73.5 282q0 166 -73.5 283.5t-176.5 117.5t-175.5 -117.5t-72.5 -283.5t72.5 -282.5t175.5 -116.5zM270 1077
q28 0 48 -19t20 -46q0 -28 -20 -47t-48 -19q-26 0 -45.5 19t-19.5 47q0 27 19 46t46 19zM473 1077q28 0 48 -19t20 -46q0 -28 -20 -47t-48 -19q-27 0 -46 19t-19 47q0 27 19 46t46 19z" />
    <glyph glyph-name="divide" unicode="&#xf7;" horiz-adv-x="512" 
d="M0 440h451v-30h-451v30zM225 369q28 0 47 -20t19 -48q0 -27 -19.5 -46t-46.5 -19t-46 19t-19 46q0 28 19 48t46 20zM225 481q-27 0 -46 20t-19 48q0 27 19 46t46 19t46.5 -19t19.5 -46q0 -28 -19 -48t-47 -20z" />
    <glyph glyph-name="oslash" unicode="&#xf8;" horiz-adv-x="823" 
d="M223 115q69 -90 158 -90q103 0 176 116q74 118 74 283t-74 283zM539 735q-69 90 -158 90q-104 0 -174 -116q-74 -121 -74 -285q0 -162 72 -281zM164 70q-27 21 -51 51q-113 125 -113 303q0 180 113 305q112 127 268 127q106 0 192 -59l183 323h35l-193 -342
q18 -14 53 -49q111 -126 111 -305q0 -177 -111 -303q-115 -127 -270 -127q-110 0 -193 57l-182 -323h-35z" />
    <glyph glyph-name="ugrave" unicode="&#xf9;" horiz-adv-x="876" 
d="M711 819v-659q0 -66 29 -97.5t75 -31.5v-31h-237v113q-72 -119 -187 -119q-127 0 -207 79.5t-80 217.5v387q0 76 -47 76q-12 0 -47 -13l-10 29l199 76q4 2 10 2q11 0 19 -8.5t8 -20.5v-561q0 -119 41 -176t114 -57q74 0 130.5 69t56.5 154v430q0 76 -48 76q-10 0 -45 -13
l-10 29l199 76q4 2 10 2q11 0 19 -8.5t8 -20.5zM233 1153l175 -217h-27l-205 217h57z" />
    <glyph glyph-name="uacute" unicode="&#xfa;" horiz-adv-x="876" 
d="M711 819v-659q0 -66 29 -97.5t75 -31.5v-31h-237v113q-72 -119 -187 -119q-127 0 -207 79.5t-80 217.5v387q0 76 -47 76q-12 0 -47 -13l-10 29l199 76q4 2 10 2q11 0 19 -8.5t8 -20.5v-561q0 -119 41 -176t114 -57q74 0 130.5 69t56.5 154v430q0 76 -48 76q-10 0 -45 -13
l-10 29l199 76q4 2 10 2q11 0 19 -8.5t8 -20.5zM545 1153h57l-205 -217h-26z" />
    <glyph glyph-name="ucircumflex" unicode="&#xfb;" horiz-adv-x="876" 
d="M711 819v-659q0 -66 29 -97.5t75 -31.5v-31h-237v113q-72 -119 -187 -119q-127 0 -207 79.5t-80 217.5v387q0 76 -47 76q-12 0 -47 -13l-10 29l199 76q4 2 10 2q11 0 19 -8.5t8 -20.5v-561q0 -119 41 -176t114 -57q74 0 130.5 69t56.5 154v430q0 76 -48 76q-10 0 -45 -13
l-10 29l199 76q4 2 10 2q11 0 19 -8.5t8 -20.5zM532 946h-28l-121 176l-123 -176h-29l123 217h56z" />
    <glyph glyph-name="udieresis" unicode="&#xfc;" horiz-adv-x="876" 
d="M711 819v-659q0 -66 29 -97.5t75 -31.5v-31h-237v113q-72 -119 -187 -119q-127 0 -207 79.5t-80 217.5v387q0 76 -47 76q-12 0 -47 -13l-10 29l199 76q4 2 10 2q11 0 19 -8.5t8 -20.5v-561q0 -119 41 -176t114 -57q74 0 130.5 69t56.5 154v430q0 76 -48 76q-10 0 -45 -13
l-10 29l199 76q4 2 10 2q11 0 19 -8.5t8 -20.5zM297 1073q28 0 48 -19t20 -46q0 -28 -20 -47t-48 -19q-27 0 -46.5 19.5t-19.5 46.5t19.5 46t46.5 19zM500 1073q28 0 47.5 -18.5t19.5 -46.5t-19.5 -47t-47.5 -19q-27 0 -46.5 19.5t-19.5 46.5t19.5 46t46.5 19z" />
    <glyph glyph-name="yacute" unicode="&#xfd;" horiz-adv-x="770" 
d="M709 819v-1089q0 -70 -26 -124.5t-68 -85.5t-89 -47t-96 -16q-31 0 -64 9t-52 18.5t-48.5 26.5t-38.5 22q-16 8 -30 8q-28 0 -45 -28l-27 16l149 252l27 -17l-18 -28q-21 -38 -21 -74q0 -67 51.5 -120.5t116.5 -53.5q63 0 105.5 44t42.5 136v445q-72 -119 -187 -119
q-129 0 -209 79.5t-80 217.5v387q0 76 -47 76q-10 0 -45 -13l-10 29l199 76q2 2 8 2q11 0 20 -8.5t9 -20.5v-561q0 -233 155 -233q74 0 130.5 69t56.5 154v430q0 76 -48 76q-12 0 -47 -13l-10 29l199 76q4 2 10 2q11 0 19 -8.5t8 -20.5zM524 1153h58l-205 -217h-27z" />
    <glyph glyph-name="thorn" unicode="&#xfe;" horiz-adv-x="786" 
d="M410 854h14q126 -8 213.5 -130.5t87.5 -299.5q0 -178 -88 -304t-213 -126q-106 0 -188 92v-469q0 -66 29 -97.5t75 -31.5v-31h-340v31q46 0 75 31.5t29 97.5v1290q0 76 -47 76q-15 0 -47 -12l-10 28l199 76q4 2 10 2q11 0 19 -8t8 -20v-312q74 117 174 117zM424 25
q69 0 118.5 117t49.5 282t-48.5 280t-119.5 121h-8q-71 0 -125.5 -70t-54.5 -153v-178q0 -156 58 -277.5t130 -121.5z" />
    <glyph glyph-name="ydieresis" unicode="&#xff;" horiz-adv-x="770" 
d="M709 819v-1089q0 -70 -26 -124.5t-68 -85.5t-89 -47t-96 -16q-31 0 -64 9t-52 18.5t-48.5 26.5t-38.5 22q-16 8 -30 8q-28 0 -45 -28l-27 16l149 252l27 -17l-18 -28q-21 -38 -21 -74q0 -67 51.5 -120.5t116.5 -53.5q63 0 105.5 44t42.5 136v445q-72 -119 -187 -119
q-129 0 -209 79.5t-80 217.5v387q0 76 -47 76q-10 0 -45 -13l-10 29l199 76q2 2 8 2q11 0 20 -8.5t9 -20.5v-561q0 -233 155 -233q74 0 130.5 69t56.5 154v430q0 76 -48 76q-12 0 -47 -13l-10 29l199 76q4 2 10 2q11 0 19 -8.5t8 -20.5zM264 1071q28 0 48 -19t20 -46
q0 -28 -20 -47t-48 -19q-26 0 -45.5 19t-19.5 47q0 27 19 46t46 19zM467 1071q28 0 48 -19t20 -46q0 -28 -20 -47t-48 -19q-27 0 -46.5 19.5t-19.5 46.5t19.5 46t46.5 19z" />
    <glyph glyph-name="idotless" unicode="&#x131;" horiz-adv-x="401" 
d="M236 819v-659q0 -66 29 -97.5t75 -31.5v-31h-340v31q46 0 75 31.5t29 97.5v518q0 76 -47 76q-12 0 -47 -13l-10 29l199 76q4 2 10 2q11 0 19 -8.5t8 -20.5z" />
    <glyph glyph-name="OE" unicode="&#x152;" horiz-adv-x="1695" 
d="M555 25q175 0 301 196q125 195 125 475t-125 475q-126 197 -301 197q-176 0 -299 -197q-125 -195 -125 -475t125 -475q123 -196 299 -196zM981 244q-15 -23 -31 -43q-165 -207 -395 -207q-226 0 -391 207q-164 206 -164 495q0 292 164 498q163 205 391 205
q232 0 395 -205q23 -32 31 -45v82q0 72 -31 100q-32 29 -73 29v31h757v-279h-30v96q0 63 -43 109q-46 43 -109 43h-235q-42 0 -74 -29q-31 -28 -31 -100v-369h78q57 0 98 41q39 39 39 98v68h31v-551h-31v176q0 60 -39 99q-41 41 -98 41h-78v-674q0 -71 31 -99q30 -30 74 -30
h133q108 0 180 75q74 74 74 179v123h30v-406h-757v29q43 0 73 30q31 28 31 99v84z" />
    <glyph glyph-name="oe" unicode="&#x153;" horiz-adv-x="1382" 
d="M381 25q103 0 176 116q74 118 74 283q0 164 -74 285q-73 116 -176 116q-104 0 -174 -116q-74 -121 -74 -285q0 -165 74 -283q70 -116 174 -116zM774 389l234 80q166 64 166 205v4q-3 55 -39 104q-34 43 -115 43q-104 0 -174 -116q-74 -121 -74 -285q0 -25 2 -35zM700 188
q-19 -33 -49 -67q-115 -127 -270 -127q-156 0 -268 127q-113 125 -113 303q0 180 113 305q112 127 268 127q155 0 270 -127q34 -44 49 -70q16 29 52 70q112 127 268 127q107 0 178 -41q73 -45 90 -113q4 -24 4 -34q0 -76 -78 -133q-74 -57 -194 -95l-244 -82
q18 -114 80 -188q60 -72 139 -100q41 -13 76 -13q34 0 82 11q52 9 104 61l23 -20q-109 -115 -260 -115q-156 0 -268 127q-33 33 -52 67z" />
    <glyph glyph-name="Scaron" unicode="&#x160;" horiz-adv-x="823" 
d="M379 821q83 -56 132.5 -93t103.5 -84.5t82 -87.5t46.5 -89.5t18.5 -104.5q0 -116 -52.5 -201.5t-133 -126t-175.5 -40.5q-37 0 -73.5 7.5t-62 17t-54 26t-43 27t-36.5 27.5t-26 20q-11 8 -26 8q-30 0 -53 -33l-27 15l203 340l26 -15l-53 -90q-24 -44 -24 -90
q0 -89 70.5 -159t178.5 -70q103 0 165.5 82t62.5 204q0 109 -59.5 185t-188.5 163q-187 129 -284 237t-97 218q0 119 99.5 202t254.5 83q134 0 283 -76q16 -8 31 -8q28 0 45 28l26 -16l-149 -250l-27 15l19 28q16 27 16 62q0 71 -74 128.5t-170 57.5q-101 0 -161 -59
t-60 -144t68 -177t178 -167zM231 1700h27l123 -176l121 176h28l-120 -217h-58z" />
    <glyph glyph-name="scaron" unicode="&#x161;" horiz-adv-x="698" 
d="M317 500q82 -25 134.5 -47t98 -51.5t66.5 -68t21 -87.5q0 -106 -86.5 -179t-216.5 -73q-105 0 -232 65q-18 9 -32 9q-27 0 -45 -27l-25 14l150 252l24 -16l-16 -29q-19 -36 -19 -65q0 -67 60.5 -119.5t134.5 -52.5q75 0 123.5 49t48.5 121q0 64 -50.5 101.5t-138.5 63.5
q-74 23 -125 44t-98 51t-70.5 68.5t-23.5 86.5q0 104 82 175t211 71q35 0 63.5 -3.5t54 -12.5t38 -14.5t36.5 -18.5t29 -16q18 -9 33 -9q28 0 45 29l26 -16l-151 -252l-25 16l17 29q22 37 22 78q0 65 -53.5 112t-134.5 47q-75 0 -118.5 -46.5t-43.5 -116.5q0 -61 49 -97.5
t137 -64.5zM168 1176h27l122 -177l121 177h29l-121 -218h-57z" />
    <glyph glyph-name="Ydieresis" unicode="&#x178;" 
d="M682 1360v31h211v-31q-78 0 -145 -129l-220 -410v-661q0 -66 29 -97.5t76 -31.5v-29h-340v29q46 0 75 31.5t29 97.5v626l-237 445q-67 129 -160 129v31h340v-31q-55 0 -55 -51q0 -31 22 -74l205 -383l203 383q22 43 22 74q0 51 -55 51zM379 1626q28 0 47.5 -18.5
t19.5 -46.5t-19.5 -47t-47.5 -19q-27 0 -46.5 19.5t-19.5 46.5t19.5 46t46.5 19zM582 1626q28 0 47.5 -18.5t19.5 -46.5t-19.5 -47t-47.5 -19q-27 0 -46.5 19.5t-19.5 46.5t19.5 46t46.5 19z" />
    <glyph glyph-name="zcaron" unicode="&#x17e;" horiz-adv-x="653" 
d="M592 848v-31l-440 -786h155q105 0 179.5 74.5t74.5 179.5v123h31v-408h-592v31l440 786h-258q-63 0 -108 -44t-45 -107v-97h-29v279h592zM145 1188h27l123 -176l121 176h28l-120 -217h-58z" />
    <glyph glyph-name="gravecomb" unicode="&#x300;" horiz-adv-x="292" 
d="M57 1391l174 -217h-26l-205 217h57z" />
    <glyph glyph-name="acutecomb" unicode="&#x301;" horiz-adv-x="292" 
d="M174 1391h57l-204 -217h-27z" />
    <glyph glyph-name="circumflexcomb" unicode="&#x302;" horiz-adv-x="362" 
d="M301 1174h-29l-120 176l-123 -176h-29l123 217h55z" />
    <glyph glyph-name="tildecomb" unicode="&#x303;" horiz-adv-x="387" 
d="M246 1286q24 4 80 31q-21 -31 -52 -50.5t-65 -19.5h-4q-20 2 -49 15q-25 14 -58 14q-35 0 -98 -23q21 27 53 43.5t66 16.5q23 0 33 -4q5 -2 25 -12t32 -11q3 0 9 -1t9 -1t9.5 1t9.5 1z" />
    <glyph glyph-name="macroncomb" unicode="&#x304;" horiz-adv-x="284" 
d="M0 1268v28h223v-28h-223z" />
    <glyph glyph-name="dotaccentcomb" unicode="&#x307;" horiz-adv-x="194" 
d="M68 1348q26 0 45.5 -19t19.5 -47q0 -27 -19 -46t-46 -19q-28 0 -48 19t-20 46q0 28 20 47t48 19z" />
    <glyph glyph-name="dieresiscomb" unicode="&#x308;" horiz-adv-x="397" 
d="M66 1348q28 0 47.5 -19t19.5 -47t-19.5 -46.5t-47.5 -18.5q-27 0 -46.5 19t-19.5 46t19.5 46.5t46.5 19.5zM268 1348q28 0 48 -19t20 -47q0 -27 -20 -46t-48 -19q-27 0 -46 19t-19 46q0 28 19.5 47t45.5 19z" />
    <glyph glyph-name="ringcomb" unicode="&#x30a;" horiz-adv-x="241" 
d="M90 1395q37 0 63.5 -33.5t26.5 -79.5t-26.5 -79.5t-63.5 -33.5t-63.5 33.5t-26.5 79.5t26.5 79.5t63.5 33.5zM90 1382q-25 0 -43 -29.5t-18 -70.5t18 -70.5t43 -29.5q26 0 44 29t18 71t-18 71t-44 29z" />
    <glyph glyph-name="caroncomb" unicode="&#x30c;" horiz-adv-x="360" 
d="M0 1391h27l123 -177l120 177h29l-121 -217h-57z" />
    <glyph glyph-name="cedillacomb" unicode="&#x327;" horiz-adv-x="219" 
d="M123 -80q35 -60 35 -94q0 -26 -23 -44t-55 -18q-35 0 -57.5 20t-22.5 52v4h35v-4q0 -24 11 -40.5t34 -16.5q20 0 31.5 14t11.5 33q0 26 -23 74q-32 75 -32 129v4h14v-4q0 -45 41 -109z" />
    <glyph glyph-name="endash" unicode="&#x2013;" horiz-adv-x="563" 
d="M502 440v-30h-502v30h502z" />
    <glyph glyph-name="emdash" unicode="&#x2014;" horiz-adv-x="651" 
d="M590 440v-30h-590v30h590z" />
    <glyph glyph-name="quoteleft" unicode="&#x2018;" horiz-adv-x="192" 
d="M66 1198q-28 0 -47 20t-19 48q0 49 23.5 80.5t54.5 44.5l6 -13q-18 -9 -18 -26t22 -25q19 -6 31 -23t12 -38q0 -28 -19 -48t-46 -20z" />
    <glyph glyph-name="quoteright" unicode="&#x2019;" horiz-adv-x="192" 
d="M66 1391q28 0 46.5 -19t18.5 -47q0 -49 -24 -81.5t-54 -45.5l-6 12q19 14 19 29q0 16 -23 25q-19 6 -31 23t-12 38q0 28 19 47t47 19z" />
    <glyph glyph-name="quotesinglbase" unicode="&#x201a;" horiz-adv-x="194" 
d="M68 133q27 0 46 -19t19 -46q0 -49 -24.5 -81.5t-55.5 -45.5l-6 12q19 11 19 29q0 15 -21 24q-20 6 -32.5 23t-12.5 39q0 27 20 46t48 19z" />
    <glyph glyph-name="quotedblleft" unicode="&#x201c;" horiz-adv-x="356" 
d="M229 1198q-27 0 -46 20t-19 48q0 49 23.5 80.5t54.5 44.5l6 -13q-19 -10 -19 -26t23 -25q19 -6 31 -23t12 -38q0 -28 -19 -48t-47 -20zM66 1198q-28 0 -47 20t-19 48q0 49 23.5 80.5t54.5 44.5l6 -13q-18 -9 -18 -26t22 -25q19 -6 31 -23t12 -38q0 -28 -19 -48t-46 -20z
" />
    <glyph glyph-name="quotedblright" unicode="&#x201d;" horiz-adv-x="356" 
d="M66 1391q28 0 46.5 -19t18.5 -47q0 -49 -24 -81.5t-54 -45.5l-6 12q19 14 19 29q0 16 -23 25q-19 6 -31 23t-12 38q0 28 19 47t47 19zM229 1391q28 0 47 -19t19 -47q0 -49 -24 -81.5t-54 -45.5l-6 12q18 14 18 29q0 17 -22 25q-19 6 -31 23t-12 38q0 28 18.5 47t46.5 19z
" />
    <glyph glyph-name="quotedblbase" unicode="&#x201e;" horiz-adv-x="360" 
d="M68 133q27 0 46 -19t19 -46q0 -49 -24.5 -81.5t-55.5 -45.5l-6 12q19 11 19 29q0 15 -21 24q-20 6 -32.5 23t-12.5 39q0 27 20 46t48 19zM233 133q27 0 46.5 -19t19.5 -46q0 -49 -24.5 -81.5t-55.5 -45.5l-6 12q18 11 18 29q0 15 -20 24q-20 6 -32.5 23t-12.5 39
q0 28 19.5 46.5t47.5 18.5z" />
    <glyph glyph-name="dagger" unicode="&#x2020;" horiz-adv-x="1056" 
d="M563 1053l432 49v-131l-432 51v-1020h-133v1020l-430 -51v131l430 -49v338h133v-338z" />
    <glyph glyph-name="daggerdbl" unicode="&#x2021;" horiz-adv-x="1056" 
d="M563 1391v-338l432 49v-131l-432 51v-651l432 51v-131l-432 51v-340h-133v340l-430 -51v131l430 -51v651l-430 -51v131l430 -49v338h133z" />
    <glyph glyph-name="bullet" unicode="&#x2022;" horiz-adv-x="1024" 
d="M133 827q55 0 93 -38.5t38 -92.5t-38 -92.5t-93 -38.5q-54 0 -92.5 38.5t-38.5 92.5t38.5 92.5t92.5 38.5z" />
    <glyph glyph-name="ellipsis" unicode="&#x2026;" horiz-adv-x="2048" 
d="M68 133q28 0 46.5 -18.5t18.5 -46.5t-18.5 -47t-46.5 -19t-48 19t-20 47q0 27 20 46t48 19zM750 133q28 0 46.5 -18.5t18.5 -46.5t-18.5 -47t-46.5 -19t-48 19t-20 47q0 27 20 46t48 19zM1432 133q28 0 46.5 -18.5t18.5 -46.5t-18.5 -47t-46.5 -19t-48 19t-20 47
q0 27 20 46t48 19z" />
    <glyph glyph-name="perthousand" unicode="&#x2030;" horiz-adv-x="1193" 
d="M35 2h-35l782 1387h35zM567 535q64 0 110 -78.5t46 -188.5t-45.5 -188t-110.5 -78q-66 0 -111.5 77.5t-45.5 188.5t45.5 189t111.5 78zM567 12q43 0 75 75.5t32 180.5t-32 180.5t-75 75.5q-44 0 -76 -75t-32 -181t32 -181t76 -75zM975 535q66 0 112 -78t46 -189
q0 -110 -46 -188t-112 -78q-65 0 -111.5 78t-46.5 188t46.5 188.5t111.5 78.5zM975 12q44 0 76 75t32 181t-32 181t-76 75t-75.5 -75t-31.5 -181t31.5 -181t75.5 -75zM250 1391q66 0 112 -78t46 -189q0 -110 -46 -188t-112 -78q-65 0 -110.5 78t-45.5 188t46 188.5t110 78.5
zM250 868q44 0 76 75t32 181t-32 181t-76 75q-43 0 -75 -75.5t-32 -180.5t32 -180.5t75 -75.5z" />
    <glyph glyph-name="guilsinglleft" unicode="&#x2039;" horiz-adv-x="520" 
d="M0 426l446 229l13 -26l-391 -203l391 -205l-13 -26z" />
    <glyph glyph-name="guilsinglright" unicode="&#x203a;" horiz-adv-x="520" 
d="M459 426l-445 -231l-14 26l393 205l-393 203l14 26z" />
    <glyph glyph-name="fraction" unicode="&#x2044;" horiz-adv-x="880" 
d="M35 0h-35l784 1393h35z" />
    <glyph glyph-name="fraction" unicode="&#x2215;" horiz-adv-x="880" 
d="M35 0h-35l784 1393h35z" />
    <glyph glyph-name="frenchfrancsign" unicode="&#x20a3;" horiz-adv-x="821" 
d="M0 1391h760v-279h-31v96q0 63 -45.5 108.5t-108.5 45.5h-235q-46 0 -74 -31t-28 -98v-369h75q57 0 98.5 40t41.5 97v70h28v-553h-28v178q0 57 -41.5 97.5t-98.5 40.5h-75v-433h161v-30h-161v-209q0 -67 28 -98t74 -31v-31h-340v31q46 0 75 31.5t29 97.5v209h-104v30h104
v832q0 66 -29 97.5t-75 31.5v29z" />
    <glyph glyph-name="lirasign" unicode="&#x20a4;" horiz-adv-x="819" 
d="M727 408h31v-406h-758v31q46 0 75 31.5t29 97.5v459h-104v30h104v90h-104v31h104v416q0 60 22 102.5t59.5 63t74.5 29t80 8.5h330v-279h-31v96q0 63 -44.5 108.5t-107.5 45.5h-147q-104 -4 -104 -129v-461h163v-31h-163v-90h163v-30h-163v-459q0 -66 29 -97.5t75 -31.5
h133q106 0 180 74t74 180v121z" />
    <glyph glyph-name="euro" unicode="&#x20ac;" horiz-adv-x="1122" 
d="M1061 883h-31v35q0 86 -35.5 170t-90 144.5t-120.5 98t-125 37.5q-163 0 -283.5 -171.5t-137.5 -424.5h161v-31h-163q0 -7 -1.5 -22t-1.5 -23q0 -7 1.5 -22.5t1.5 -22.5h163v-30h-161q17 -253 137.5 -424.5t283.5 -171.5q59 0 125 37.5t120.5 98t90 144.5t35.5 170v35h31
v-428h-31q0 59 -22 59q-9 0 -45 -26q-142 -121 -304 -121q-141 0 -263 83t-199 226.5t-91 317.5h-106v30h102v90h-102v31h106q14 174 91 317.5t199 226.5t263 83q160 0 304 -119q32 -27 45 -27q22 0 22 58h31v-428z" />
    <glyph glyph-name="numerosign" unicode="&#x2116;" horiz-adv-x="1734" 
d="M682 1391h209v-31q-40 0 -65 -31.5t-25 -97.5v-1229h-29l-653 1239v-1081q0 -66 25 -97.5t65 -31.5v-29h-209v29q40 0 64 31t24 98v1071q0 67 -24 98t-64 31v31h188l584 -1106v946q0 66 -25 97.5t-65 31.5v31zM1292 991q158 0 269.5 -126.5t111.5 -305.5t-111.5 -304.5
t-269.5 -125.5t-269.5 125.5t-111.5 304.5t111.5 305.5t269.5 126.5zM1292 160q103 0 176.5 117t73.5 282q0 166 -73.5 284t-176.5 118t-175.5 -118t-72.5 -284t72.5 -282.5t175.5 -116.5zM1542 35v-31h-500v31h500z" />
    <glyph glyph-name="trademark" unicode="&#x2122;" horiz-adv-x="462" 
d="M0 1391h166v-54h-6v19q0 12 -9.5 20t-21.5 8h-12q-21 0 -21 -24v-209q0 -27 21 -27v-6h-68v6q8 0 14.5 7t6.5 20v209q0 24 -21 24h-14q-12 0 -20.5 -8t-8.5 -20v-19h-6v54zM401 1391v-7q-20 0 -20 -24v-209q0 -27 20 -27v-6h-65v6q18 0 18 27v219l-71 -252h-11l-69 232
v-199q0 -27 16 -27v-6h-41v6q19 0 19 27v209q0 24 -19 24v7h39l70 -236l67 236h47z" />
    <glyph glyph-name="minus" unicode="&#x2212;" horiz-adv-x="563" 
d="M502 440v-30h-502v30h502z" />
    <glyph glyph-name="almostequalto" unicode="&#x2248;" horiz-adv-x="507" 
d="M287 322q4 0 12 -1.5t12 -1.5t12.5 1.5t12.5 1.5q29 3 110 28q-61 -65 -153 -65h-12q-34 0 -66 14q-38 14 -80 14q-45 0 -135 -20q64 57 158 57q25 0 49 -6q13 -3 39.5 -11.5t40.5 -10.5zM215 514q-43 16 -84 16q-36 0 -131 -22q28 27 71.5 43t88.5 16q23 0 47 -6
q12 -2 38.5 -11.5t41.5 -10.5q4 0 12 -1t12 -1t12.5 1t12.5 1q29 3 110 28q-60 -67 -153 -67h-12q-32 3 -66 14z" />
    <glyph glyph-name="lessthanorequalto" unicode="&#x2264;" horiz-adv-x="520" 
d="M459 168v-31h-459v31h459zM0 481l444 232l15 -27l-393 -205l393 -202l-15 -27z" />
    <glyph glyph-name="greaterthanorequalto" unicode="&#x2265;" horiz-adv-x="520" 
d="M0 168h459v-31h-459v31zM459 481l-445 -229l-14 27l393 202l-393 205l14 27z" />
    <glyph glyph-name="a.salt1" unicode="&#xe01d;" horiz-adv-x="829" 
d="M664 543v-383q0 -66 29 -97.5t75 -31.5v-31h-186q-20 0 -36 15.5t-16 35.5v51q-33 -52 -92.5 -80t-132.5 -28q-38 0 -74.5 4.5t-80 18.5t-75.5 36t-53.5 62t-21.5 92q0 161 274 235q-58 25 -92.5 78.5t-34.5 118.5q0 95 72.5 156t177.5 61q121 0 194 -80.5t73 -232.5z
M176 639q0 -68 44.5 -119.5t111.5 -62.5q3 0 7.5 1t6.5 1q45 9 70 15.5t55 18t44 27t15 35.5q0 98 -29 154t-93 73q-27 9 -58 9q-71 0 -122.5 -42t-51.5 -110zM530 199v295q-39 -37 -178 -64q-48 -11 -84.5 -26.5t-69 -41.5t-50 -66t-17.5 -93q0 -83 48 -130.5t126 -47.5
q92 0 158.5 51.5t66.5 122.5z" />
    <glyph glyph-name="g.salt2" unicode="&#xe01e;" horiz-adv-x="770" 
d="M455 6q125 -27 189.5 -87t64.5 -161q0 -60 -21.5 -110.5t-55.5 -85t-77 -59t-86.5 -35.5t-83.5 -11q-89 0 -162.5 44.5t-167.5 154.5q-75 87 -138 126.5t-126 39.5q-15 0 -39 -4q-42 -7 -111 -38.5t-124 -66.5q-1 -1 -22 -14.5t-24.5 -15.5t-22.5 -13.5t-26 -14
t-24.5 -11t-28.5 -11t-27 -7t-30.5 -6t-30.5 -1.5q-229 0 -371 168l101 86q156 -185 268 -201q28 -4 41 -4q33 0 67 12t54.5 23.5t58.5 36.5q179 112 310 129q34 6 71 6q162 0 250 -104q27 -33 60 -89t54.5 -94.5t58.5 -69t81 -30.5q88 0 147 53.5t66 120.5q0 4 1 13t1 14
q0 83 -60.5 129t-197.5 78q-121 26 -175 54t-67 85q-2 8 -2 26q0 84 92 191q-79 42 -127.5 118t-48.5 165q0 132 100 226.5t240 94.5q26 0 72 -8q22 76 72.5 119t122.5 43q34 0 81 -13l-55 -127q-64 25 -104 25q-70 0 -88 -53q105 -31 172 -116t67 -191q0 -134 -99.5 -228
t-240.5 -94q-69 0 -133 25q-37 -52 -37 -103q0 -3 1 -8.5t1 -7.5q4 -14 16.5 -26.5t36.5 -23.5t43.5 -19t56.5 -17l55.5 -13.5t60.5 -13.5zM147 535q0 -121 60.5 -206t146.5 -85t147.5 85t61.5 206q0 120 -61.5 205t-147.5 85t-146.5 -85t-60.5 -205z" />
    <glyph glyph-name="j.salt2" unicode="&#xe01f;" horiz-adv-x="401" 
d="M0 770l199 76q4 2 10 2q11 0 19 -8.5t8 -20.5v-1124q0 -55 -19 -98.5t-47 -68.5t-64 -41.5t-65.5 -22t-56.5 -5.5q-88 0 -161 44.5t-167 154.5q-142 166 -264 166q-15 0 -39 -4q-42 -7 -112 -39t-124 -66q-48 -32 -72.5 -46.5t-71.5 -31t-93 -16.5q-227 0 -369 168
l100 84q153 -181 269 -201q12 -2 39 -2q34 0 68 11t56 23.5t58 35.5q183 114 309 131q23 4 70 4q163 0 252 -102q31 -36 74 -116t82.5 -123.5t95.5 -43.5q50 0 85 40t35 118v1030q0 76 -47 76q-12 0 -47 -13zM170 1032q-37 0 -62.5 25.5t-25.5 60.5q0 37 25.5 62.5
t62.5 25.5q35 0 60.5 -25.5t25.5 -62.5q0 -35 -25.5 -60.5t-60.5 -25.5z" />
    <glyph glyph-name="y.salt2" unicode="&#xe020;" horiz-adv-x="770" 
d="M473 770l199 76q4 2 10 2q11 0 19 -8.5t8 -20.5v-1089q0 -70 -26 -124.5t-68 -85.5t-89 -47t-96 -16q-88 0 -161 44.5t-167 154.5q-142 166 -264 166q-15 0 -39 -4q-42 -7 -111 -38.5t-124 -66.5q-51 -32 -73.5 -45.5t-71 -30t-93.5 -16.5q-228 0 -368 166l100 86
q156 -185 268 -201q28 -4 41 -4q33 0 67 12t54.5 23.5t58.5 36.5q179 112 310 129q34 6 71 6q162 0 250 -104q31 -36 74 -116t82.5 -123.5t95.5 -43.5q63 0 105.5 44t42.5 136v445q-72 -119 -187 -119q-129 0 -209 79.5t-80 217.5v387q0 76 -47 76q-10 0 -45 -13l-10 29
l199 76q2 2 8 2q11 0 20 -8.5t9 -20.5v-561q0 -233 155 -233q74 0 130.5 69t56.5 154v430q0 76 -48 76q-12 0 -47 -13z" />
    <glyph glyph-name="g.salt3" unicode="&#xe021;" horiz-adv-x="770" 
d="M1698 -127l100 -86q-142 -168 -371 -168q-16 0 -31 1.5t-30 5.5t-26.5 7.5t-28 11t-25 11.5t-25.5 14t-22.5 13.5t-24 15.5t-22.5 14q-54 34 -124 66t-112 39q-24 4 -38 4q-64 0 -127.5 -39.5t-137.5 -126.5q-94 -110 -167 -154.5t-162 -44.5q-40 0 -83.5 11t-86.5 35.5
t-77 59t-55.5 85t-21.5 110.5q0 101 64.5 161t189.5 87q41 9 60 13.5t56 13.5t56.5 17t43 19t36 23.5t16.5 26.5q0 2 1 7.5t1 8.5q0 51 -37 103q-64 -25 -133 -25q-141 0 -240.5 94t-99.5 228q0 132 99.5 226.5t240.5 94.5q24 0 70 -8q22 76 72.5 119t121.5 43q35 0 82 -13
l-55 -127q-64 25 -104 25q-68 0 -86 -53q104 -31 171.5 -116t67.5 -191q0 -89 -48.5 -165t-127.5 -118q92 -107 92 -191q0 -18 -2 -26q-13 -57 -66.5 -85t-174.5 -54q-137 -32 -197.5 -78t-60.5 -129q0 -5 1 -14t1 -13q7 -67 66 -120.5t147 -53.5q44 0 81 30.5t58.5 69
t54.5 94.5t60 89q88 104 249 104q37 0 72 -6q130 -17 309 -129q38 -24 58.5 -36t55 -24t67.5 -12q13 0 41 4q112 16 268 201zM354 244q86 0 146.5 85t60.5 206q0 120 -60.5 205t-146.5 85t-147.5 -85t-61.5 -205q0 -121 61.5 -206t147.5 -85z" />
    <glyph glyph-name="A.SALT4" unicode="&#xe022;" 
d="M893 33v-31h-340v31q35 0 56.5 21t21.5 63q0 27 -4 41l-123 542q-278 -154 -350 -501l-9 -45q-4 -16 -4 -41q0 -40 19 -60t49 -20v-31h-209v31q90 0 115 129l219 1077q4 28 4 41q0 82 -102 82h-25v29h274l275 -1229q27 -129 133 -129zM373 1280l-172 -852q97 193 297 303
l-123 549h-2z" />
    <glyph glyph-name="B.SALT4" unicode="&#xe023;" 
d="M238 743q55 100 184 138q79 25 125 77q45 51 45 154t-49 176q-53 74 -154 74h-49q-43 0 -72 -29q-30 -30 -30 -100v-490zM238 662v-500q0 -74 30 -101q28 -28 72 -28h94q111 0 184 55q71 53 109 143q35 90 35 201q0 110 -35 203q-38 89 -109 145q-76 54 -184 54
q-57 0 -102 -31q-44 -29 -70 -72q-24 -41 -24 -69zM522 856q183 -30 277 -147q94 -116 94 -277q0 -120 -53 -215q-55 -97 -160 -156q-106 -59 -252 -59h-428v31q43 0 74 28q30 27 30 101v1071q0 70 -30 100q-32 29 -74 29v29h383q149 0 244 -80q96 -84 96 -199
q0 -173 -201 -256z" />
    <glyph glyph-name="H.SALT4" unicode="&#xe024;" 
d="M893 1391v-29q-47 0 -76 -31.5t-29 -97.5v-1071q0 -66 29 -97.5t76 -31.5v-31h-340v31q46 0 75 31.5t29 97.5v672q-41 0 -78.5 -11.5t-58 -24t-55.5 -36.5q-41 -27 -63 -39.5t-68 -26.5t-98 -14v-520q0 -66 29 -97.5t75 -31.5v-31h-340v31q46 0 75 31.5t29 97.5v1071
q0 66 -29 97.5t-75 31.5v29h340v-29q-46 0 -75 -31.5t-29 -97.5v-520q47 0 88.5 12t65 25t59.5 38q35 25 57 37.5t63.5 25.5t87.5 13v369q0 66 -29 97.5t-75 31.5v29h340z" />
    <glyph glyph-name="G.SALT4" unicode="&#xe025;" horiz-adv-x="1019" 
d="M958 885h-30v33q0 86 -36 170.5t-90.5 144.5t-121 97.5t-125.5 37.5q-115 0 -212.5 -90t-154.5 -245t-57 -337q0 -163 43 -293q11 86 45 152q56 111 152 173.5t211 62.5q167 0 271.5 -102.5t104.5 -270.5v-416h-30q0 104 -41 104q-17 0 -43 -16q-76 -48 -139.5 -72
t-149.5 -24q-113 0 -216 55.5t-177 150t-118 224t-44 272.5q0 191 74 353t202 256t279 94q161 0 305 -119q32 -27 45 -27q23 0 23 58h30v-426zM246 543q-45 -90 -45 -197v-18q58 -139 152 -221t202 -82q61 0 121.5 30.5t104.5 95t44 146.5v162q0 74 -27 141.5t-84 113.5
t-132 46q-106 0 -195.5 -58t-140.5 -159z" />
    <glyph glyph-name="P.SALT4" unicode="&#xe026;" horiz-adv-x="952" 
d="M0 1391h551q147 0 243.5 -81t96.5 -198t-96.5 -197.5t-243.5 -80.5q-132 0 -223.5 -61t-91.5 -148v-463q0 -67 28 -98t76 -31v-31h-340v31q46 0 74 31t28 98v1071q0 67 -28 98t-74 31v29zM760 1112q0 109 -52.5 179.5t-150.5 70.5h-219q-46 0 -74 -31t-28 -98v-508
q40 63 125 101t190 38q99 0 154 70t55 178z" />
    <glyph glyph-name="R.SALT4" unicode="&#xe027;" horiz-adv-x="952" 
d="M891 1112q0 -105 -80 -183t-207 -93q184 -61 184 -291v-383q0 -67 28.5 -98t74.5 -31v-31q-34 0 -64 4.5t-63 17.5t-56 34.5t-38 58.5t-15 86v342q0 47 -2.5 81.5t-12.5 75t-28 66.5t-50.5 43.5t-78.5 17.5q-102 0 -174.5 -63t-72.5 -141v-463q0 -66 29 -97.5t75 -31.5
v-31h-340v31q46 0 74 31t28 98v1071q0 67 -28 98t-74 31v29h551q147 0 243.5 -81t96.5 -198zM760 1112q0 109 -52.5 179.5t-150.5 70.5h-217q-46 0 -75 -31.5t-29 -97.5v-508q44 68 116 103.5t199 35.5q99 0 154 70t55 178z" />
    <glyph glyph-name="fi" unicode="&#xfb01;" horiz-adv-x="1034" 
d="M236 1210v-362h225v-31h-225v-657q0 -66 29 -97.5t75 -31.5v-31h-340v31q46 0 75 31.5t29 97.5v657h-104v31h104v315q0 55 19 98.5t47 68.5t64 41.5t65.5 22t56.5 5.5q63 0 129 -27q12 -6 25 -6q20 0 37 25l24 -17l-149 -250l-27 15l19 28q35 57 35 111q0 41 -25.5 65.5
t-69.5 24.5q-50 0 -84 -40t-34 -118zM868 819v-659q0 -66 29 -97.5t76 -31.5v-31h-340v31q46 0 75 31.5t29 97.5v518q0 76 -47 76q-12 0 -47 -13l-10 29l198 76q4 2 11 2q11 0 18.5 -8.5t7.5 -20.5zM803 1032q-37 0 -62.5 25.5t-25.5 60.5q0 37 25.5 62.5t62.5 25.5
t62.5 -25.5t25.5 -62.5q0 -35 -25.5 -60.5t-62.5 -25.5z" />
    <glyph glyph-name="fl" unicode="&#xfb02;" horiz-adv-x="1034" 
d="M236 1210v-362h225v-31h-225v-657q0 -66 29 -97.5t75 -31.5v-31h-340v31q46 0 75 31.5t29 97.5v657h-104v31h104v315q0 55 19 98.5t47 68.5t64 41.5t65.5 22t56.5 5.5q63 0 129 -27q12 -6 25 -6q20 0 37 25l24 -17l-149 -250l-27 15l19 28q35 57 35 111q0 41 -25.5 65.5
t-69.5 24.5q-50 0 -84 -40t-34 -118zM868 1364v-1204q0 -66 29 -97.5t76 -31.5v-31h-340v31q46 0 74 31t28 98v1061q0 75 -47 75q-13 0 -45 -12l-10 29l198 76q2 2 9 2q11 0 19.5 -8.5t8.5 -18.5z" />
    </font>
</defs>
</svg>
