<?xml version="1.0" standalone="no"?>
<!DOCTYPE svg PUBLIC "-//W3C//DTD SVG 1.1//EN" "http://www.w3.org/Graphics/SVG/1.1/DTD/svg11.dtd" >
<svg xmlns="http://www.w3.org/2000/svg" xmlns:xlink="http://www.w3.org/1999/xlink" version="1.1">
<metadata></metadata>
<defs>
<font id="berolinacapcregular" horiz-adv-x="1097" >
<font-face units-per-em="2048" ascent="1638" descent="-410" />
<missing-glyph horiz-adv-x="452" />
<glyph horiz-adv-x="0" />
<glyph horiz-adv-x="682" />
<glyph unicode=" "  horiz-adv-x="452" />
<glyph unicode="&#x09;" horiz-adv-x="452" />
<glyph unicode="&#xa0;" horiz-adv-x="452" />
<glyph unicode="!" horiz-adv-x="376" d="M102 1360q-2 27 29 33q8 2 25.5 3t46.5 -1q20 -2 38.5 -2h39.5q39 -6 34 -41l-61 -987q-2 -39 -43 -39q-55 0 -47 39zM113 115q0 49 28.5 82.5t69.5 33.5t68.5 -33.5t27.5 -82.5t-27.5 -84t-68.5 -35t-69.5 35t-28.5 84z" />
<glyph unicode="&#x22;" horiz-adv-x="579" d="M61 1348q-4 18 27 22q8 2 43 2h36.5t34 -2t23.5 -7t6 -15l-49 -547q-2 -20 -35 -21q-43 0 -36 21zM348 1348q-4 18 23 24h39h38.5t37 -2t25.5 -7t7 -15l-49 -547q-2 -20 -35 -21q-43 0 -37 21z" />
<glyph unicode="#" horiz-adv-x="978" d="M61 297l27 117h119l129 559h-119l27 117h118l66 286h125l-66 -286h183l65 286h125l-65 -286h123l-27 -117h-125l-127 -559h123l-27 -117h-125l-67 -295h-125l69 295h-184l-67 -295h-125l69 295h-119zM332 414h182l129 559h-184z" />
<glyph unicode="$" horiz-adv-x="710" d="M61 541v39q4 23 23 22q14 0 55 -41q29 -27 50.5 -46t37.5 -30q66 -41 129 -41q72 0 120 42t48 118q0 72 -106 152l-197 141q-106 92 -106 197q0 166 207 182v96h90v-106q53 -16 51 -17q6 0 24.5 11.5t26.5 11.5q20 0 49 -90q23 -78 23 -97q0 -29 -29 -28q-4 0 -74 59 q-66 61 -139 62q-106 0 -106 -86q0 -57 106 -127q162 -109 199 -144q106 -104 106 -239q0 -102 -74 -172q-70 -70 -163 -76v-160h-90v166q-25 6 -70 25q-31 16 -47 12q-6 0 -13.5 -7.5t-13.5 -15.5t-13 -14t-13 -6q-25 6 -60 104q-31 82 -31 103z" />
<glyph unicode="%" horiz-adv-x="1480" d="M61 928q0 156 54 278q70 168 217 168q143 0 215 -166q27 -59 39 -128.5t14 -147.5q2 -158 -51 -289q-74 -166 -219 -166q-143 0 -217 172q-51 123 -52 279zM184 932q0 -121 25 -209q41 -133 125 -133q86 0 123 137q24 86 24 205q0 340 -147 340q-84 0 -125 -133 q-25 -90 -25 -207zM256 2l881 1374h114l-880 -1374h-115zM881 436q0 156 53 279q70 168 217 168q143 0 215 -166q27 -59 39 -129t14 -148q2 -158 -51 -288q-74 -166 -219 -166q-143 0 -217 172q-51 123 -51 278zM1004 440q0 -121 24 -209q41 -133 125 -133q86 0 123 138 q24 85 24 204q0 340 -147 340q-84 0 -125 -133q-25 -90 -24 -207z" />
<glyph unicode="&#x26;" horiz-adv-x="1118" d="M68 449q0 123 57 229q70 131 190 156q-39 12 -69.5 37.5t-52 60.5t-31.5 77t-10 85q2 125 91 204.5t238 79.5h365q20 -2 51 -24q80 -117 80 -154q0 -14 -29 -14q-33 0 -133 86h-287q-240 0 -239 -172q0 -186 203 -213q10 -2 18 -2l2 -2q-2 0 0 2q6 0 12 2q33 4 47.5 -6.5 t14.5 -40.5q0 -55 -62 -64q8 0 13 2h-13.5t-25.5 -2q-102 2 -197 -71q-111 -90 -111 -248q0 -133 76 -234q86 -117 232 -117h305l2 670h-78q-51 0 -51 53q0 51 51 52h313q66 0 66 -54q0 -49 -45 -49q-9 0 -21 4q-94 -12 -106 -6v-645q6 -18 63 -27q57 -8 58 -43 q0 -12 -2 -18q-8 -29 -25.5 -34t-30.5 -9h-526q-176 0 -295 141q-109 133 -108 308z" />
<glyph unicode="'" horiz-adv-x="292" d="M61 1348q-4 18 27 22q8 2 43 2h36.5t34 -2t23.5 -7t6 -15l-49 -547q-2 -20 -35 -21q-43 0 -36 21z" />
<glyph unicode="(" horiz-adv-x="475" d="M61 717q0 403 240 696q29 35 74 35q37 0 37 -23q0 -4 -4 -12q-90 -158 -146 -350q-53 -197 -53 -371q0 -329 205 -737q-8 -33 -58 -33q-41 0 -49 33q-141 193 -192 342q-53 164 -54 420z" />
<glyph unicode=")" horiz-adv-x="475" d="M61 -45q205 416 205 737q0 176 -55 371q-27 98 -62.5 185t-80.5 165q-4 8 -5 14q0 23 37 23q45 0 74 -37q240 -295 240 -696q0 -256 -54 -420q-51 -150 -192 -342q-12 -33 -49 -33q-49 0 -58 33z" />
<glyph unicode="*" horiz-adv-x="714" d="M61 1188q-4 4 21 45q25 43 31 39l223 -160q-2 18 -5 52t-12 85q-4 43 -7 77t-3 58q0 8 51 9q47 0 48 -9q0 -25 -3.5 -58.5t-7.5 -76.5q-8 -51 -11 -85t-5 -50q35 29 90 68t131 90q8 2 33 -39q25 -45 16 -47q-41 -18 -102.5 -46t-142.5 -67q59 -27 121.5 -54t125.5 -58 q4 -10 -20 -50q-23 -41 -31 -37l-221 158q2 -16 5 -50t11 -85q4 -41 7.5 -75t3.5 -60q0 -8 -52 -8q-47 0 -47 8q0 27 3 60.5t7 74.5q8 51 11.5 85t5.5 50q-37 -29 -92.5 -67.5t-130.5 -90.5q-6 -4 -31 39t-19 48q41 18 103.5 45.5t144.5 66.5q-61 27 -123.5 54.5 t-126.5 60.5z" />
<glyph unicode="+" horiz-adv-x="1275" d="M51 674q0 31 21.5 52.5t50.5 21.5h452v452q0 74 64 74q61 0 61 -74v-452h453q78 0 78 -62q0 -63 -78 -63h-453v-453q0 -31 -20.5 -56.5t-50.5 -25.5q-53 0 -54 82v453h-98t-137 -2h-234q-55 0 -55 53z" />
<glyph unicode="," horiz-adv-x="317" d="M47 115q0 45 27.5 80.5t70.5 35.5t70 -36.5t27 -79.5q0 -86 -37 -168q-45 -106 -115 -107q-12 0 -12 15l39 36q31 35 41 105h-13q-43 0 -70.5 37t-27.5 82z" />
<glyph unicode="-" horiz-adv-x="571" d="M61 479v113h449v-113h-449z" />
<glyph unicode="." horiz-adv-x="317" d="M33 115q0 49 28.5 82.5t69.5 33.5t68.5 -33.5t27.5 -82.5t-28.5 -84t-67.5 -35q-41 0 -69.5 35t-28.5 84z" />
<glyph unicode="/" horiz-adv-x="706" d="M61 2l469 1374h115l-471 -1374h-113z" />
<glyph unicode="0" horiz-adv-x="952" d="M61 684q0 252 84 449q113 260 332 260t330 -256q41 -98 61.5 -209t22.5 -240q2 -260 -84 -463q-115 -258 -332 -258t-330 266q-84 203 -84 451zM199 688q0 -195 53 -364q74 -240 229 -240q156 0 230 242q49 161 49 364q0 201 -49 365q-74 238 -230 237q-156 0 -229 -239 q-53 -170 -53 -365z" />
<glyph unicode="1" horiz-adv-x="501" d="M61 1128q0 27 25 50l70 51q33 35 67.5 71.5t75.5 75.5q12 2 17.5 -15.5t9.5 -29.5v-1186q0 -41 36 -53l64 -16q14 -8 14 -25q0 -18 -22.5 -34.5t-52.5 -16.5h-181q-102 0 -102 45q0 29 55 45q55 18 66 53l-4 1002q-88 -53 -105 -53q-33 0 -33 36z" />
<glyph unicode="2" horiz-adv-x="972" d="M82 29q0 8 2 12q0 166 158 348l290 295q158 174 158 320q0 256 -231 256q-100 0 -164 -64q-16 -16 -37.5 -45t-44.5 -70q-33 -63 -59 -63q-35 0 -35 29q0 133 114 235q109 96 232 96q180 0 278 -118q90 -113 91 -287q0 -141 -129 -289l-265 -254q-164 -158 -209 -283v-20 h457q49 0 100 63t84 64q19 0 19 -41q0 -51 -98 -213h-680q-31 2 -31 29z" />
<glyph unicode="3" horiz-adv-x="1005" d="M82 350q0 51 49 49q23 -4 47 -77q33 -96 78 -142q76 -76 217 -76q309 0 309 367q0 61 -19.5 112.5t-56 89.5t-87 59.5t-111.5 21.5t-115 -21q-16 -6 -25.5 -9t-17.5 -7q-12 -4 -14 -4q-31 0 -25 43l353 485q0 14 -31 14h-207q-35 0 -92 -57q-59 -55 -80 -55q-33 0 -33 37 q0 31 47 114q49 82 86 82h490q12 -4 14 -12q0 -2 -4 -18q-2 -4 -2 -6.5t-2 -4.5l-340 -483q242 -14 338 -139q76 -94 76 -295q0 -174 -121 -307q-121 -129 -295 -129q-180 0 -295 84q-131 98 -131 284z" />
<glyph unicode="4" horiz-adv-x="1046" d="M82 416q0 43 209 391l276 455q4 29 -22 36q-35 8 -49 37q2 39 71 39h195q84 0 84 -37q0 -18 -47 -43t-47 -71v-750q4 -4 28 -4q63 0 90 27q4 6 11.5 18t15.5 33q8 27 33 26q10 0 21.5 -13t11.5 -28v-62t2 -167q-10 -47 -37 -47q-10 0 -25 27q-18 37 -35 53q-33 27 -88 26 h-26v-251q0 -18 51 -37q53 -16 53 -43q0 -31 -33 -33q8 2 -39 2h-190q-72 0 -72 27q0 31 43 47q53 18 62 26q4 59 0 260l-520 -2q-27 20 -27 58zM213 471l414 -2v684z" />
<glyph unicode="5" horiz-adv-x="1011" d="M82 344q0 16 12 30.5t27 14.5q10 0 51 -78q23 -47 48.5 -82.5t51.5 -60.5q84 -78 205 -78q315 0 316 367q0 156 -78 247t-232 91q-72 0 -151 -37q-82 -35 -70 -35q-43 0 -43 35q0 18 25 213q14 115 26.5 208t26.5 164q4 29 41 29h412l51 -207q4 -47 -23 -47q-10 0 -22 17 l-45 63q-37 45 -68 51q-16 2 -240 0l-53 -356q63 23 146 22q201 0 321 -139q113 -126 113 -319q0 -227 -124 -354.5t-345 -127.5q-154 0 -266 105q-113 106 -113 264z" />
<glyph unicode="6" horiz-adv-x="966" d="M82 547q0 244 51 379q78 207 299 366q145 102 248 103q39 0 41 -45q2 -20 -49 -45l-97 -43q-106 -59 -208 -201q-109 -152 -129 -289q96 141 282 143q178 4 281 -147q84 -127 84 -297q0 -227 -99 -352q-109 -139 -325 -139q-223 0 -320 231q-59 147 -59 336zM215 545 q0 -145 39 -256q68 -201 227 -201q145 0 226 150q59 115 59 256q0 115 -68 206q-78 111 -209 103q-82 -6 -176 -88q-98 -90 -98 -170z" />
<glyph unicode="7" horiz-adv-x="870" d="M82 1169q43 205 90 205h594q6 1 22 -22q4 -168 -100 -402l-199 -397q-106 -221 -106 -354q0 -43 8 -76q6 -25 66 -43q61 -16 61 -39q0 -41 -65 -41h-232q-80 -16 -80 31q0 33 37 45q45 14 58 49q4 29 17 95.5t36 172.5q31 123 205 424q154 270 165 420q2 20 -18 25 q-25 -10 -317 0q-78 2 -136 -56q-63 -63 -67 -63q-23 -6 -25 -4q-4 8 -7 15t-7 15z" />
<glyph unicode="8" horiz-adv-x="974" d="M82 401q0 289 280 428q-166 129 -165 293q0 135 88 211q80 72 204 74q125 2 209 -68q92 -78 93 -211q0 -96 -37 -176q-43 -90 -121 -118q160 -102 219 -220q41 -86 41 -213q0 -139 -109 -270q-125 -143 -301 -143t-295 143q-106 125 -106 270zM205 406q8 -115 88 -201 q82 -92 201 -92q117 0 194 92q68 84 80 201q10 115 -90 225q-98 113 -189 112q-88 0 -188 -110q-106 -115 -96 -227zM326 1143q-6 -66 28 -131q45 -90 142 -99q92 6 135 95q30 63 24 131q-4 31 -19 59.5t-39 50t-52.5 34.5t-55.5 13q-29 0 -56 -12t-50 -32.5t-39 -49 t-18 -59.5z" />
<glyph unicode="9" horiz-adv-x="931" d="M82 915q-4 211 108 345q109 127 269 133q199 6 307 -176q84 -144 84 -306q0 -326 -100 -569q-154 -381 -504 -381q-53 0 -53 45q0 43 79 53q96 10 211 121q100 100 148 209q14 33 24.5 75t20.5 93q-70 -70 -127 -92q-47 -18 -117 -19q-193 0 -285 185q-63 125 -65 284z M205 909q0 -129 51 -223q66 -127 193 -127q125 0 198 135q58 107 58 228q0 119 -46 217q-66 145 -190 145q-135 0 -209 -145q-55 -109 -55 -230z" />
<glyph unicode=":" horiz-adv-x="317" d="M61 115q0 49 29 82.5t70 33.5t68.5 -33.5t27.5 -82.5t-28.5 -84t-67.5 -35q-41 0 -70 35t-29 84zM61 729q0 49 29 83t70 34t68.5 -34t27.5 -83t-28.5 -84t-67.5 -35q-41 0 -70 35t-29 84z" />
<glyph unicode=";" horiz-adv-x="317" d="M61 115q0 45 28 80.5t71 35.5t69.5 -36.5t26.5 -79.5q0 -86 -37 -168q-45 -106 -117 -107q-10 0 -10 15l39 36q31 35 41 105h-12q-43 0 -71 37t-28 82zM61 729q0 49 29 83t70 34t68.5 -34t27.5 -83t-28.5 -84t-67.5 -35q-41 0 -70 35t-29 84z" />
<glyph unicode="&#x3c;" horiz-adv-x="774" d="M61 686q0 57 35 62l514 -21v533q2 27 54 26q49 0 49 -24v-1153q0 -33 -49 -33q-45 0 -54 33v534l-514 -20q-35 -4 -35 63zM127 993q0 12 11.5 25.5t19.5 9.5l381 -188l-7 -23l-397 162q-8 2 -8 14zM129 377q0 10 6 14l397 160l7 -16l-381 -193q-10 -6 -19.5 7t-9.5 28z M160 518q0 41 41 41t41 -41t-41 -41t-41 41zM160 852q0 41 41 41t41 -41t-41 -41t-41 41zM254 317q0 39 43 39q39 0 39 -39q0 -41 -41 -41t-41 41zM254 1051q0 41 41 41t41 -41q0 -37 -39 -37q-43 0 -43 37zM289 162q0 4 4 16l264 297l10 -16l-235 -324q-4 -4 -13 -4 q-31 0 -30 31zM289 1200q0 12 15 25.5t28 9.5l235 -326l-10 -20l-264 303q-4 4 -4 8zM438 180q0 43 43 43t43 -43t-43 -43t-43 43zM438 1188q0 43 43 43t43 -43t-43 -43t-43 43z" />
<glyph unicode="=" horiz-adv-x="811" d="M61 489q0 57 33 58h627q29 0 29 -66q0 -51 -29 -47h-627q-33 -12 -33 55zM61 735q0 57 33 58h627q29 0 29 -66q0 -51 -29 -47h-627q-33 -12 -33 55z" />
<glyph unicode="&#x3e;" horiz-adv-x="794" d="M61 109v1153q0 25 60 24q61 0 63 -26l2 -533l514 21q33 -2 33 -62q0 -66 -33 -63l-514 20v-534q-8 -33 -65 -33q-59 0 -60 33zM227 459l11 16l264 -297q6 -10 6 -16q0 -31 -33 -31q-4 0 -12 4zM227 909l236 326q12 4 27.5 -9.5t15.5 -25.5q0 -4 -4 -8l-262 -303zM256 840 l383 188q8 4 18.5 -9t10.5 -26q0 -12 -9 -14l-395 -162zM258 535l6 16l395 -160q6 -4 7 -14q0 -14 -9.5 -27.5t-17.5 -7.5zM270 180q0 43 43 43t43 -43t-43 -43t-43 43zM270 1188q0 43 43 43t43 -43t-43 -43t-43 43zM461 317q0 39 39 39q43 0 43 -39q0 -41 -41 -41t-41 41z M461 1051q0 41 41 41t41 -41q0 -37 -43 -37q-39 0 -39 37zM555 518q0 41 41 41t41 -41t-41 -41t-41 41zM555 852q0 41 41 41t41 -41t-41 -41t-41 41z" />
<glyph unicode="?" horiz-adv-x="827" d="M61 1047q0 135 115 243q109 106 232 109q195 6 290 -127q80 -119 66 -291q-10 -94 -84 -188q-20 -23 -59 -65t-99 -101q-104 -102 -104 -181q0 -12 3 -32.5t3 -28.5q10 -47 -53 -47q-53 0 -54 41q0 4 -5 33.5t-5 54.5q0 98 80 184q59 63 97 104.5t55 63.5q78 106 77 187 q0 274 -215 274q-100 0 -157 -68q-33 -33 -70 -122q-29 -68 -53 -68q-59 0 -60 25zM289 115q0 49 28.5 82.5t69.5 33.5t68.5 -33.5t27.5 -82.5t-28.5 -84t-67.5 -35q-41 0 -69.5 35t-28.5 84z" />
<glyph unicode="@" horiz-adv-x="1503" d="M61 596q0 350 213 567q211 217 564 221q279 2 440 -141q164 -145 164 -403q0 -180 -111 -346q-123 -186 -293 -187q-172 0 -155 172q-100 -168 -246 -168q-121 0 -184 95q-55 76 -56 202q0 178 107 328q119 162 291 162q133 0 174 -103l20 90l127 15l-80 -316 q-23 -94 -34 -175t-11 -146q0 -37 8 -51q10 -23 62 -23q129 0 217 162q80 143 80 291q0 227 -148 348q-139 111 -374 110q-322 0 -502 -192q-182 -193 -182 -504q0 -238 163 -389q162 -147 412 -147q152 0 260 30q119 35 227 119q8 4 15 4q31 0 31 -35q0 -27 -27 -41 q-225 -158 -518 -157q-285 0 -465 162q-188 170 -189 446zM545 586q0 -178 135 -178q111 0 188 206q62 167 62 306q0 106 -125 106q-121 0 -197 -168q-63 -135 -63 -272z" />
<glyph unicode="A" horiz-adv-x="1169" d="M123 111q12 0 33 -5l180 1166q-19 -2 -35 -2q-82 0 -82 51v4q2 43 68 53h-1q0 -2 74 -2h467q133 0 134 -51q0 -43 -60 -53q-12 -2 -27.5 -3t-33.5 1l184 -1164q19 3 35 3q66 0 69 -48v-6q0 -53 -63 -53h-98q-29 -2 -53.5 -2h-47.5q-72 0 -72 43q0 4 1 8q6 55 85 55h11 l-100 670h-408l-102 -670q11 1 21 1q78 0 83 -56q2 -25 -23.5 -39t-44.5 -14h-92q-43 2 -65.5 2h-26.5q-92 0 -92 45q0 65 82 66zM393 881h379l-53 393l-273 -2z" />
<glyph unicode="B" horiz-adv-x="1107" d="M61 1327q0 51 89 51h477q135 0 229 -71q100 -80 100 -213q0 -78 -47 -156q-51 -86 -127 -104q244 -86 244 -383q0 -178 -115 -312q-121 -139 -299 -139h-311h-143q-90 0 -95 53v6q0 30 37 45q22 7 45 7q11 0 23 -2v1163q-72 0 -76 2q-31 8 -31 53zM299 106h311 q127 0 217 111q86 105 86 234q0 322 -372 325h-242v-670zM299 883h190.5t49.5 -2q303 14 303 219q0 172 -269 172h-274v-389z" />
<glyph unicode="C" horiz-adv-x="1085" d="M82 717q0 268 117 450q143 227 426 228q57 0 135 -31q71 -25 71 -28q0 -1 -2 -1q16 16 37 29.5t49 13.5q46 0 89 -270q0 -45 -39 -45q-25 0 -70 55q-31 35 -56.5 60.5t-47.5 40.5q-78 53 -177 53q-236 -2 -333 -219q-63 -133 -64 -330q0 -252 53 -389q88 -227 348 -228 q98 0 181 64q23 18 49 49t57 72q45 63 60 63q33 0 32 -43q0 -133 -149 -233q-133 -90 -248 -90q-518 0 -518 729z" />
<glyph unicode="D" horiz-adv-x="1126" d="M61 41q0 66 86 66q8 0 17 -1v1166q-10 6 -29 6h-33q-34 4 -34 45q0 53 71 53h340q299 0 457 -219q129 -181 129 -442v-23q-2 -256 -119 -446q-147 -246 -428 -246h-373q-84 0 -84 41zM299 106h172q231 0 354 195q103 164 103 391q0 580 -516 580h-47q-23 2 -39.5 2h-26.5 v-1168z" />
<glyph unicode="E" horiz-adv-x="1095" d="M61 43q0 47 43 57l54 6v1131q0 18 -49 29q-48 9 -48 59v6q4 47 72 47h756q86 -172 86 -178q0 -43 -29 -43q-12 0 -72 57q-57 57 -131 58h-448v-391h356q61 0 97 30q10 8 19 22.5t19 35.5q14 31 31 30q39 0 39 -36v-289q0 -33 -39 -33q-23 0 -59 68q-34 67 -105 67h-2 h-358v-670h512q49 0 110 64q63 63 80 63q39 1 39 -32q0 -25 -51 -113q-25 -41 -40 -62.5t-19 -25.5h-785q-39 0 -58.5 16.5t-19.5 26.5z" />
<glyph unicode="F" horiz-adv-x="1036" d="M55 33q0 35 56 51q55 18 55 55v1110q0 18 -49 31q-47 15 -47 50q0 48 102 48h721q49 0 102 -194q0 -35 -28 -35q-8 0 -76 61t-109 62h-481v-391h363h15q55 0 83 26q10 8 19.5 22.5t19.5 35.5q14 33 30 32q39 0 39 -36v-277q0 -45 -39 -45q-23 0 -32 35q-16 53 -29 65 q-31 37 -104 37h-363v-641q0 -18 53 -41t54 -63q0 -31 -62 -31h-235q-57 0 -58 33z" />
<glyph unicode="G" horiz-adv-x="1198" d="M84 639q-2 34 -2 67q0 244 92 420q141 268 463 271h5q80 0 228 -60q2 0 11.5 7.5t18.5 14.5t18.5 14t13.5 7q27 0 80 -129q45 -111 45 -131q0 -33 -39 -33q-16 0 -74 52q-74 61 -135 94q-94 51 -188 51q-219 0 -330 -244q-74 -166 -74 -348q0 -209 92 -370 q119 -217 357 -218q172 0 165 2q20 -2 33 25q10 25 10 45l-2 559q0 47 -55 60q-53 12 -53 47q0 39 51 39h146.5t89.5 2q65 -6 65 -43q0 -18 -10 -29l-64 -27q-37 -14 -37 -61q0 -6 1 -12l6 -584q0 -29 51 -37q51 -6 51 -51q0 -39 -29 -39h-378q-305 0 -465 178 q-145 164 -158 461z" />
<glyph unicode="H" horiz-adv-x="1230" d="M41 41q0 37 51 55q53 18 55 45l91 1110q2 33 -41 43q-43 8 -43 39q0 47 79 47h90t68 -2q23 -2 38 -2t20 -2q18 -6 18 -31q0 -43 -43 -51q-43 -6 -45 -39l-29 -372h531l-31 372q-2 33 -45 39q-41 10 -41 51q0 25 18 31q10 2 60.5 4t154.5 2q80 0 80 -47q0 -31 -43 -39 q-43 -10 -41 -43l90 -1110q2 -27 54 -45q53 -18 53 -55t-27 -43q6 2 -53 2h-178h-64q-39 6 -39 47q0 47 52 55q53 10 57 39l-53 635h-539l-53 -635q4 -31 55 -39q53 -10 53 -55q0 -41 -41 -47h-61h-180q-57 0 -51 -2q-27 6 -27 43z" />
<glyph unicode="I" horiz-adv-x="493" d="M61 33q0 43 56 53q55 12 55 84v1028q0 72 -55 84q-53 16 -54 59q0 33 68 33h225q76 0 76 -33q0 -39 -59 -61q-59 -23 -60 -57v-1073q0 -35 60 -58q59 -18 59 -59q0 -14 -26.5 -24.5t-49.5 -10.5h-227q-68 0 -68 35z" />
<glyph unicode="J" horiz-adv-x="849" d="M41 221q0 47 45 47q16 0 53 -47q55 -63 82 -86q63 -47 131 -47q125 0 160 111q16 55 16 217l-2 784q0 72 -55 84q-53 16 -53 59q0 33 67 33h228q75 0 75 -33q0 -39 -59 -61q-59 -23 -59 -57l4 -809v-23q0 -203 -33 -282q-61 -135 -264 -136q-31 0 -50.5 1t-29.5 4 q-35 6 -86 36q-14 -33 -24.5 -41t-41.5 -4l-47 113q-57 117 -57 137z" />
<glyph unicode="K" horiz-adv-x="1191" d="M61 35q0 43 56 53q55 12 55 84q-4 319 -4 575.5t2 454.5q0 72 -55 84q-53 16 -54 60q0 32 64 32h4h227q76 0 76 -32q0 -39 -59 -62t-60 -57v-332l424 365q6 8 6 14q0 8 -34 20q-31 12 -29 45t47 39h57h195q47 -4 47 -22q0 -10 -6 -49q-12 -16 -27 -17h-28q-23 -2 -58 -37 q-43 -43 -100 -98t-129 -121l342 -897q8 -33 74 -51q57 -14 57 -55q0 -29 -90 -29h-223q-29 0 -38 6t-9 35q0 10 34 33q37 25 37 61q-72 231 -301 815q-35 -29 -97.5 -77t-150.5 -119v-604q0 -35 60 -58q59 -18 59 -59q0 -14 -26.5 -24.5t-49.5 -10.5h-227q-68 0 -68 35z " />
<glyph unicode="L" horiz-adv-x="1042" d="M61 43q0 43 33 51q57 16 58 17q33 20 32 98q-3 0 -3 222q0 111 1 278q2 258 2 383t0 120q-4 57 -59 66q-57 12 -57 51q0 45 75 45l240 2q23 0 45.5 -10t22.5 -25q0 -37 -62 -63q-61 -29 -61 -66v-1093h340q82 0 139 45q12 10 30.5 30.5t45.5 53.5q37 45 65 45 q34 -1 34 -47q0 -7 -1 -15q-33 -106 -127 -229h-719q-74 0 -74 41z" />
<glyph unicode="M" horiz-adv-x="1560" d="M49 35q0 23 43 33q45 8 58 63q51 211 111.5 488.5t129.5 627.5q-6 33 -49 39q-43 8 -43 35q0 41 18 51q10 8 54 8h198q60 -10 60 -40q0 -25 -43 -37q-41 -12 -39 -46l239 -434l228 434q2 33 -39 46q-43 13 -43 38q0 29 59 39h199q53 0 62.5 -14t9.5 -45q0 -27 -43 -35 q-43 -6 -50 -39q70 -350 130.5 -627.5t111.5 -488.5q12 -53 59 -63q41 -10 41 -33q0 -45 -45 -45q-141 2 -193 5t-36 3q-59 0 -59 37q0 23 55 45q42 15 42 42q0 4 -1 9q4 0 -84 420q-78 362 -123 553q-6 -8 -156 -283q-105 -198 -133 -198q-25 0 -131 198l-153 283 q-47 -190 -123 -553q-88 -420 -84 -420q-1 -4 -1 -9q0 -27 44 -44q53 -18 53 -43q0 -37 -59 -37q16 0 -36 -3t-194 -5q-45 0 -45 45z" />
<glyph unicode="N" horiz-adv-x="1210" d="M61 1331q0 41 68 45q-16 -2 29 -2h151q76 0 76 -49q0 -29 -51 -43q-49 -16 -47 -35q6 -86 159 -241l295 -279q168 -156 191 -235l4 755q-2 29 -49 39q-47 9 -47 48q0 36 45 42q14 -2 26.5 -2h24.5h149q8 1 15 1q47 0 47 -48q-10 -27 -55 -41q-37 -16 -37 -43l2 -1022 q0 -92 22 -121q10 -14 41 -16q29 -4 29 -38q0 -31 -45 -42q-10 -2 -23.5 -3t-27.5 -1h2h-164q-23 0 -45.5 13.5t-20.5 25.5q2 37 35 43q23 6 35 10t16 6q27 20 27 90q0 115 -113 258q-72 92 -258 267q-209 195 -286 280v-850q0 -45 45 -51q55 -6 63 -31q3 -12 3 -22 q0 -27 -21 -35q-12 -4 -49 -4h-27t-64 -2h-92q-43 0 -49 2q-27 8 -27 43q0 31 50 43q51 12 51 49v1092q-8 45 -58 61q-45 18 -45 43z" />
<glyph unicode="O" horiz-adv-x="1185" d="M98 688q0 252 92 440q132 263 408 263h6h4q276 0 414 -263q98 -190 98 -440q0 -252 -96 -444q-133 -264 -408 -264h-8h-8q-275 0 -405 264q-96 193 -97 444zM236 690q0 -266 92 -422q96 -164 272 -170q178 6 277 168q98 162 98 424q0 264 -94.5 420t-270.5 162 q-90 -4 -159.5 -46t-116.5 -117t-72.5 -181.5t-25.5 -237.5z" />
<glyph unicode="P" d="M61 49q0 51 60 62q59 10 59 43v1069q0 31 -14 39q-14 0 -21 2q-45 8 -60 19t-15 42q0 51 75 51h600q129 0 213 -98q78 -90 78 -213q0 -137 -102 -221q-90 -76 -217 -76h-410v-625q0 -20 31 -22q45 -2 55 -10q25 -15 25 -61v-7q-2 -33 -84 -43h-94h-103q-76 8 -76 49z M313 881l258 -2q127 0 195 22q121 41 121 164q0 86 -49.5 141.5t-128.5 55.5h-396v-381z" />
<glyph unicode="Q" horiz-adv-x="1185" d="M82 688q0 256 92 447q133 268 414 268q279 0 418 -268q98 -195 98 -447q0 -219 -74 -399q-100 -246 -311 -301q47 -109 88 -109q49 0 92 43q8 4 10 4q27 0 27 -76q0 -110 -125 -110h-2q-113 0 -164 70q-39 51 -61 163q-274 2 -408 271q-94 188 -94 444zM227 690 q0 -246 80 -401q84 -160 240 -189q-43 113 -105 170q-18 18 -18 43q0 57 55 64h9q105 0 184 -266q68 20 121 70t90 126t56 172t19 211q0 266 -92 424q-96 166 -270 166t-272 -164q-96 -164 -97 -426z" />
<glyph unicode="R" horiz-adv-x="1103" d="M61 43q-2 35 25 46t55 22q29 23 31 75q1 28 1 145.5t-1 323.5q-2 297 -3 447.5t-1 159.5q-10 25 -55 36q-47 16 -47 35q0 45 84 45l550 -2q148 0 236 -84q85 -80 84 -211v-12q-4 -182 -168 -256q-72 -31 -164 -37l105 -319q98 -305 96 -314q12 -45 80 -53q69 -8 73 -35 q2 -10 -9 -32.5t-21 -22.5h-164q-27 0 -45.5 18.5t-14.5 42.5q-29 104 -85 279.5t-142 431.5h-260l2 -575q0 -82 57 -95q59 -12 60 -75q-13 -29 -117 -29q-28 0 -63 2h-97q-80 6 -82 43zM301 883l272 -4q98 0 179 26q135 46 135 148q0 90 -43 149q-53 68 -152 68h-389z" />
<glyph unicode="S" horiz-adv-x="1026" d="M61 274q0 23 29 27q-10 -2 -1 -2h38q8 0 68 -53q35 -35 66.5 -59.5t60.5 -41.5q96 -53 206 -53q127 0 209 64q94 70 94 202q0 150 -188 271l-352 194q-190 119 -191 267q0 152 113 239q93 78 243 78h15q106 -4 178 -37q16 -8 29.5 -13t23.5 -9l17 -9q2 0 10 6.5 t19.5 13.5t23.5 13t23 6q35 0 57 -104q14 -66 14 -111q0 -39 -32 -39q-8 0 -60 43q-33 27 -61.5 47.5t-57.5 34.5q-88 45 -178 45q-96 0 -168 -41q-80 -49 -80 -145q0 -111 191 -211q162 -88 250 -137t104 -60q191 -145 191 -352q0 -193 -158 -291q-119 -73 -283 -73h-4 q-80 0 -262 59q-2 0 -25 -29t-30 -30q-3 -1 -6 -1q-39 0 -86 130l-45 139q-4 20 -5 22z" />
<glyph unicode="T" horiz-adv-x="1062" d="M31 1151q0 29 32 119q41 109 66 108h805q25 0 65 -108q33 -90 33 -119q0 -35 -35 -35q-18 0 -61 68q-41 72 -82 73l-246 3v-1104q0 -37 58 -58q59 -23 59 -61q0 -33 -76 -33h-225q-68 0 -68 33q0 45 56 51q57 6 57 76l-2 1096l-258 -3q-41 -6 -82 -73q-41 -68 -61 -68 q-35 0 -35 35z" />
<glyph unicode="U" horiz-adv-x="1198" d="M61 1329q0 45 76 45l238 2q23 0 45 -10t22 -25q0 -51 -61 -69q-61 -16 -62 -66v-737q-1 -21 -1 -41q0 -83 20 -143q57 -184 254 -185q199 0 266 185q27 74 27 184v737q0 49 -62 66q-61 18 -61 69q0 35 65 35l234 -2q76 0 76 -45q0 -39 -62 -47q-59 -10 -59 -68l-4 -747 q-2 -236 -106 -365q-97 -121 -275 -121q-12 0 -25 1q-15 -1 -29 -1q-177 1 -281 117q-112 126 -114 355v761q0 57 -61 68q-59 10 -60 47z" />
<glyph unicode="V" horiz-adv-x="1218" d="M61 1327q0 51 84 51h183q80 0 80 -50t-68 -52q-16 0 -27.5 -14.5t-7.5 -26.5l84 -317l193 -721q2 -18 10 -19q14 0 24 43l287 1026q2 18 -37 31q-37 13 -37 49q0 38 29 45q2 2 68 6h172q59 0 59 -45q1 -31 -24 -51q-2 -6 -54 -12q-39 -6 -49 -47l-162 -545 q-78 -266 -120.5 -403.5t-47.5 -151.5q-2 -4 -2 -12q0 -14 45 -29q45 -12 45 -49q0 -35 -88 -35h-221q-55 0 -57 2q-29 6 -29 39q0 29 45 43q47 16 47 37q0 10 -137 508q-47 168 -82 291q-18 66 -47 167t-43 146q-6 20 -12 26q-8 12 -31 17q-41 4 -47 6q-25 8 -25 47z" />
<glyph unicode="W" horiz-adv-x="1685" d="M20 1327q0 51 84 51h183q80 0 80 -50t-68 -52q-16 0 -27.5 -13.5t-7.5 -27.5l277 -1038q2 -18 12 -19q10 0 22 43l203 631l-125 371q-10 41 -37 47q-41 6 -43 12q-25 20 -24 51q0 45 57 45h471q59 0 60 -45q0 -31 -25 -51q-4 -6 -43 -12q-29 -6 -39 -47 q-2 -4 -32.5 -98.5t-92.5 -278.5l203 -625q14 -43 25 -43q8 0 12 19l276 1038q4 14 -8 27.5t-27 13.5q-67 2 -67 48v7q4 47 80 47h180q86 0 86 -51q0 -39 -25 -47q-6 -2 -47 -6q-31 -4 -43 -43q-16 -45 -58 -195.5l-114 -408.5q-137 -498 -137 -508q0 -23 45 -37 q47 -16 47 -43q0 -33 -28 -39q-4 -2 -58 -2h-221q-88 0 -88 35q0 37 45 49q45 14 45 29q0 8 -2 12l-184 539l-183 -539q-2 -4 -2 -12q0 -14 45 -29q45 -12 46 -49q0 -35 -89 -35h-221q-55 0 -57 2q-29 6 -29 39q0 29 45 43q47 16 47 37q0 10 -137 508q-72 258 -114.5 408.5 t-57.5 195.5q-6 20 -12 26q-8 12 -31 17q-41 4 -47 6q-25 8 -25 47zM764 1219l78 -218q16 53 32.5 106.5t32.5 106.5q1 4 1 9q0 23 -27 49h-80q-39 -21 -39 -43q0 -5 2 -10z" />
<glyph unicode="X" horiz-adv-x="1236" d="M47 39q0 27 27 41q29 6 58.5 14t43.5 58q14 61 68 159l92 176q23 43 117 152q86 98 86 102q0 23 -64 117l-69 107q-33 59 -72 126.5t-86 145.5q-10 18 -74 39q-55 14 -55 49q0 41 88 41h211q20 0 40.5 -19.5t20.5 -33.5q0 -29 -37 -35q-35 -4 -39 -33l234 -399l135 160 q75 110 75 216q0 15 -1 29q-10 14 -68 31q-45 12 -45 51q-2 33 33 37q6 2 231 2q92 0 93 -51q0 -33 -48 -43q-53 -12 -59 -23q-12 -23 -25 -73q-8 -35 -13 -54.5t-7 -25.5q-51 -147 -178 -297q-2 -2 -3 -4t-5 -4q-4 -4 -10.5 -9.5t-14.5 -11.5q-23 -18 -22 -28 q0 -10 106 -185q66 -106 109 -179t65 -114l45 -84q14 -27 28.5 -46t28.5 -34q6 -4 70 -18q49 -10 49 -53q0 -37 -65 -47h-78q-4 0 -23.5 1t-56.5 3q-41 2 -70.5 2t-46.5 2q-27 18 -26 43q0 27 39 39q41 12 51 28l-318 533q-6 0 -10 -2q-231 -231 -289 -533q8 -10 68 -24 q45 -12 45 -53q0 -45 -86 -45h-158q-74 0 -78 2q-57 8 -57 55z" />
<glyph unicode="Y" horiz-adv-x="1187" d="M20 1331q0 47 99 47q61 0 194 -6q29 -4 54 -14q33 -18 32 -45q0 -25 -26 -31q-41 -10 -56 -25l293 -405h11q43 61 115.5 156.5t176.5 226.5q12 14 13 33l-52 18q-37 14 -36 47q0 14 24 37q29 2 74 2h104q29 0 48.5 -1t29.5 -3q49 -10 49 -51q0 -31 -31.5 -43t-62.5 -23 q-16 -10 -38.5 -35.5t-53.5 -66.5l-145 -184q-98 -119 -158 -217q-6 -10 -6 -54q4 -49 0 -59l-6 -436v-51.5t2 -30.5q4 -20 51 -29q51 -8 53 -53q2 -25 -5 -30t-13 -9h-121q8 0 1 0t-28 -2h-151q-39 20 -39 29q0 2 6 14t8 26q2 2 64 27q43 14 43 33v493q0 14 -2.5 44 t-6.5 75q-4 6 -10 15.5t-16 19.5l-154 229q-53 78 -100 142.5t-90 111.5q-16 16 -52 23q-66 12 -76 16t-10 39z" />
<glyph unicode="Z" horiz-adv-x="995" d="M41 61q16 182 256 508l221 273q145 182 178 272q43 123 43 158l-381 -2q-66 0 -122 -80q-59 -80 -76 -80q-47 0 -47 27q0 6 2 10q12 33 24.5 65.5t22.5 67.5q37 104 70 104h4q37 -6 98 -6h475h31q27 -4 28 -30q-2 -121 -37 -211l-81 -176q-57 -127 -291 -386 q-35 -37 -78 -104l-74 -115q-63 -88 -110 -223l-4 -27h473h4q49 0 100 48q14 12 68 79q27 33 55 33q41 0 41 -53q0 -18 -27 -98q-14 -41 -21 -63.5t-12 -26.5q-6 -35 -90 -35q-31 0 -75 6q-23 2 -36.5 3t-15.5 1h-569q4 -4 -2 -4q-10 0 -28.5 21.5t-16.5 43.5z" />
<glyph unicode="[" horiz-adv-x="378" d="M61 -82v1542l256 2v-84h-137v-1376h137v-84h-256z" />
<glyph unicode="\" horiz-adv-x="706" d="M61 1376h115l469 -1374h-113z" />
<glyph unicode="]" horiz-adv-x="378" d="M61 2h140v1376h-140v84l256 -2v-1542h-256v84z" />
<glyph unicode="^" horiz-adv-x="645" d="M61 1436l185 176q37 43 78 39q43 4 75 -39q18 -20 45 -45q23 -23 58 -55.5t82 -75.5l-64 2l-201 121l-194 -121z" />
<glyph unicode="_" horiz-adv-x="1050" d="M61 -135h928v-70h-928v70z" />
<glyph unicode="`" horiz-adv-x="460" d="M61 1622q0 14 26 26.5t58 12.5q66 0 103 -49l151 -168l-65 2l-260 160q-12 6 -13 16z" />
<glyph unicode="a" horiz-adv-x="1169" d="M123 111q12 0 33 -5l180 1166q-19 -2 -35 -2q-82 0 -82 51v4q2 43 68 53h-1q0 -2 74 -2h467q133 0 134 -51q0 -43 -60 -53q-12 -2 -27.5 -3t-33.5 1l184 -1164q19 3 35 3q66 0 69 -48v-6q0 -53 -63 -53h-98q-29 -2 -53.5 -2h-47.5q-72 0 -72 43q0 4 1 8q6 55 85 55h11 l-100 670h-408l-102 -670q11 1 21 1q78 0 83 -56q2 -25 -23.5 -39t-44.5 -14h-92q-43 2 -65.5 2h-26.5q-92 0 -92 45q0 65 82 66zM393 881h379l-53 393l-273 -2z" />
<glyph unicode="b" horiz-adv-x="1107" d="M61 1327q0 51 89 51h477q135 0 229 -71q100 -80 100 -213q0 -78 -47 -156q-51 -86 -127 -104q244 -86 244 -383q0 -178 -115 -312q-121 -139 -299 -139h-311h-143q-90 0 -95 53v6q0 30 37 45q22 7 45 7q11 0 23 -2v1163q-72 0 -76 2q-31 8 -31 53zM299 106h311 q127 0 217 111q86 105 86 234q0 322 -372 325h-242v-670zM299 883h190.5t49.5 -2q303 14 303 219q0 172 -269 172h-274v-389z" />
<glyph unicode="c" horiz-adv-x="1085" d="M82 717q0 268 117 450q143 227 426 228q57 0 135 -31q71 -25 71 -28q0 -1 -2 -1q16 16 37 29.5t49 13.5q46 0 89 -270q0 -45 -39 -45q-25 0 -70 55q-31 35 -56.5 60.5t-47.5 40.5q-78 53 -177 53q-236 -2 -333 -219q-63 -133 -64 -330q0 -252 53 -389q88 -227 348 -228 q98 0 181 64q23 18 49 49t57 72q45 63 60 63q33 0 32 -43q0 -133 -149 -233q-133 -90 -248 -90q-518 0 -518 729z" />
<glyph unicode="d" horiz-adv-x="1126" d="M61 41q0 66 86 66q8 0 17 -1v1166q-10 6 -29 6h-33q-34 4 -34 45q0 53 71 53h340q299 0 457 -219q129 -181 129 -442v-23q-2 -256 -119 -446q-147 -246 -428 -246h-373q-84 0 -84 41zM299 106h172q231 0 354 195q103 164 103 391q0 580 -516 580h-47q-23 2 -39.5 2h-26.5 v-1168z" />
<glyph unicode="e" horiz-adv-x="1095" d="M61 43q0 47 43 57l54 6v1131q0 18 -49 29q-48 9 -48 59v6q4 47 72 47h756q86 -172 86 -178q0 -43 -29 -43q-12 0 -72 57q-57 57 -131 58h-448v-391h356q61 0 97 30q10 8 19 22.5t19 35.5q14 31 31 30q39 0 39 -36v-289q0 -33 -39 -33q-23 0 -59 68q-34 67 -105 67h-2 h-358v-670h512q49 0 110 64q63 63 80 63q39 1 39 -32q0 -25 -51 -113q-25 -41 -40 -62.5t-19 -25.5h-785q-39 0 -58.5 16.5t-19.5 26.5z" />
<glyph unicode="f" horiz-adv-x="1036" d="M55 33q0 35 56 51q55 18 55 55v1110q0 18 -49 31q-47 15 -47 50q0 48 102 48h721q49 0 102 -194q0 -35 -28 -35q-8 0 -76 61t-109 62h-481v-391h363h15q55 0 83 26q10 8 19.5 22.5t19.5 35.5q14 33 30 32q39 0 39 -36v-277q0 -45 -39 -45q-23 0 -32 35q-16 53 -29 65 q-31 37 -104 37h-363v-641q0 -18 53 -41t54 -63q0 -31 -62 -31h-235q-57 0 -58 33z" />
<glyph unicode="g" horiz-adv-x="1198" d="M84 639q-2 34 -2 67q0 244 92 420q141 268 463 271h5q80 0 228 -60q2 0 11.5 7.5t18.5 14.5t18.5 14t13.5 7q27 0 80 -129q45 -111 45 -131q0 -33 -39 -33q-16 0 -74 52q-74 61 -135 94q-94 51 -188 51q-219 0 -330 -244q-74 -166 -74 -348q0 -209 92 -370 q119 -217 357 -218q172 0 165 2q20 -2 33 25q10 25 10 45l-2 559q0 47 -55 60q-53 12 -53 47q0 39 51 39h146.5t89.5 2q65 -6 65 -43q0 -18 -10 -29l-64 -27q-37 -14 -37 -61q0 -6 1 -12l6 -584q0 -29 51 -37q51 -6 51 -51q0 -39 -29 -39h-378q-305 0 -465 178 q-145 164 -158 461z" />
<glyph unicode="h" horiz-adv-x="1230" d="M41 41q0 37 51 55q53 18 55 45l91 1110q2 33 -41 43q-43 8 -43 39q0 47 79 47h90t68 -2q23 -2 38 -2t20 -2q18 -6 18 -31q0 -43 -43 -51q-43 -6 -45 -39l-29 -372h531l-31 372q-2 33 -45 39q-41 10 -41 51q0 25 18 31q10 2 60.5 4t154.5 2q80 0 80 -47q0 -31 -43 -39 q-43 -10 -41 -43l90 -1110q2 -27 54 -45q53 -18 53 -55t-27 -43q6 2 -53 2h-178h-64q-39 6 -39 47q0 47 52 55q53 10 57 39l-53 635h-539l-53 -635q4 -31 55 -39q53 -10 53 -55q0 -41 -41 -47h-61h-180q-57 0 -51 -2q-27 6 -27 43z" />
<glyph unicode="i" horiz-adv-x="493" d="M61 33q0 43 56 53q55 12 55 84v1028q0 72 -55 84q-53 16 -54 59q0 33 68 33h225q76 0 76 -33q0 -39 -59 -61q-59 -23 -60 -57v-1073q0 -35 60 -58q59 -18 59 -59q0 -14 -26.5 -24.5t-49.5 -10.5h-227q-68 0 -68 35z" />
<glyph unicode="j" horiz-adv-x="849" d="M41 221q0 47 45 47q16 0 53 -47q55 -63 82 -86q63 -47 131 -47q125 0 160 111q16 55 16 217l-2 784q0 72 -55 84q-53 16 -53 59q0 33 67 33h228q75 0 75 -33q0 -39 -59 -61q-59 -23 -59 -57l4 -809v-23q0 -203 -33 -282q-61 -135 -264 -136q-31 0 -50.5 1t-29.5 4 q-35 6 -86 36q-14 -33 -24.5 -41t-41.5 -4l-47 113q-57 117 -57 137z" />
<glyph unicode="k" horiz-adv-x="1191" d="M61 35q0 43 56 53q55 12 55 84q-4 319 -4 575.5t2 454.5q0 72 -55 84q-53 16 -54 60q0 32 64 32h4h227q76 0 76 -32q0 -39 -59 -62t-60 -57v-332l424 365q6 8 6 14q0 8 -34 20q-31 12 -29 45t47 39h57h195q47 -4 47 -22q0 -10 -6 -49q-12 -16 -27 -17h-28q-23 -2 -58 -37 q-43 -43 -100 -98t-129 -121l342 -897q8 -33 74 -51q57 -14 57 -55q0 -29 -90 -29h-223q-29 0 -38 6t-9 35q0 10 34 33q37 25 37 61q-72 231 -301 815q-35 -29 -97.5 -77t-150.5 -119v-604q0 -35 60 -58q59 -18 59 -59q0 -14 -26.5 -24.5t-49.5 -10.5h-227q-68 0 -68 35z " />
<glyph unicode="l" horiz-adv-x="1042" d="M61 43q0 43 33 51q57 16 73.5 26.5t16.5 88.5q-3 0 -3 222q0 111 1 278q2 258 2 383t0 120q-4 57 -59 66q-57 12 -57 51q0 45 75 45l240 2q23 0 45.5 -10t22.5 -25q0 -37 -62 -63q-61 -29 -61 -66v-1093h340q82 0 139 45q12 10 30.5 30.5t45.5 53.5q37 45 65 45 q34 -1 34 -47q0 -7 -1 -15q-33 -106 -127 -229h-719q-74 0 -74 41z" />
<glyph unicode="m" horiz-adv-x="1560" d="M49 35q0 23 43 33q45 8 58 63q51 211 111.5 488.5t129.5 627.5q-6 33 -49 39q-43 8 -43 35q0 41 18 51q10 8 54 8h198q60 -10 60 -40q0 -25 -43 -37q-41 -12 -39 -46l239 -434l228 434q2 33 -39 46q-43 13 -43 38q0 29 59 39h199q53 0 62.5 -14t9.5 -45q0 -27 -43 -35 q-43 -6 -50 -39q70 -350 130.5 -627.5t111.5 -488.5q12 -53 59 -63q41 -10 41 -33q0 -45 -45 -45q-141 2 -193 5t-36 3q-59 0 -59 37q0 23 55 45q42 15 42 42q0 4 -1 9q4 0 -84 420q-78 362 -123 553q-6 -8 -156 -283q-105 -198 -133 -198q-25 0 -131 198l-153 283 q-47 -190 -123 -553q-88 -420 -84 -420q-1 -4 -1 -9q0 -27 44 -44q53 -18 53 -43q0 -37 -59 -37q16 0 -36 -3t-194 -5q-45 0 -45 45z" />
<glyph unicode="n" horiz-adv-x="1210" d="M61 1331q0 41 68 45q-16 -2 29 -2h151q76 0 76 -49q0 -29 -51 -43q-49 -16 -47 -35q6 -86 159 -241l295 -279q168 -156 191 -235l4 755q-2 29 -49 39q-47 9 -47 48q0 36 45 42q14 -2 26.5 -2h24.5h149q8 1 15 1q47 0 47 -48q-10 -27 -55 -41q-37 -16 -37 -43l2 -1022 q0 -92 22 -121q10 -14 41 -16q29 -4 29 -38q0 -31 -45 -42q-10 -2 -23.5 -3t-27.5 -1h2h-164q-23 0 -45.5 13.5t-20.5 25.5q2 37 35 43q23 6 35 10t16 6q27 20 27 90q0 115 -113 258q-72 92 -258 267q-209 195 -286 280v-850q0 -45 45 -51q55 -6 63 -31q3 -12 3 -22 q0 -27 -21 -35q-12 -4 -49 -4h-27t-64 -2h-92q-43 0 -49 2q-27 8 -27 43q0 31 50 43q51 12 51 49v1092q-8 45 -58 61q-45 18 -45 43z" />
<glyph unicode="o" horiz-adv-x="1185" d="M98 688q0 252 92 440q132 263 408 263h6h4q276 0 414 -263q98 -190 98 -440q0 -252 -96 -444q-133 -264 -408 -264h-8h-8q-275 0 -405 264q-96 193 -97 444zM236 690q0 -266 92 -422q96 -164 272 -170q178 6 277 168q98 162 98 424q0 264 -94.5 420t-270.5 162 q-90 -4 -159.5 -46t-116.5 -117t-72.5 -181.5t-25.5 -237.5z" />
<glyph unicode="p" d="M61 49q0 51 60 62q59 10 59 43v1069q0 31 -14 39q-14 0 -21 2q-45 8 -60 19t-15 42q0 51 75 51h600q129 0 213 -98q78 -90 78 -213q0 -137 -102 -221q-90 -76 -217 -76h-410v-625q0 -20 31 -22q45 -2 55 -10q25 -15 25 -61v-7q-2 -33 -84 -43h-94h-103q-76 8 -76 49z M313 881l258 -2q127 0 195 22q121 41 121 164q0 86 -49.5 141.5t-128.5 55.5h-396v-381z" />
<glyph unicode="q" horiz-adv-x="1185" d="M82 688q0 256 92 447q133 268 414 268q279 0 418 -268q98 -195 98 -447q0 -219 -74 -399q-100 -246 -311 -301q47 -109 88 -109q49 0 92 43q8 4 10 4q27 0 27 -76q0 -110 -125 -110h-2q-113 0 -164 70q-39 51 -61 163q-274 2 -408 271q-94 188 -94 444zM227 690 q0 -246 80 -401q84 -160 240 -189q-43 113 -105 170q-18 18 -18 43q0 57 55 64h9q105 0 184 -266q68 20 121 70t90 126t56 172t19 211q0 266 -92 424q-96 166 -270 166t-272 -164q-96 -164 -97 -426z" />
<glyph unicode="r" horiz-adv-x="1103" d="M61 43q-2 35 25 46t55 22q29 23 31 75q1 28 1 145.5t-1 323.5q-2 297 -3 447.5t-1 159.5q-10 25 -55 36q-47 16 -47 35q0 45 84 45l550 -2q148 0 236 -84q85 -80 84 -211v-12q-4 -182 -168 -256q-72 -31 -164 -37l105 -319q98 -305 96 -314q12 -45 80 -53q69 -8 73 -35 q2 -10 -9 -32.5t-21 -22.5h-164q-27 0 -45.5 18.5t-14.5 42.5q-29 104 -85 279.5t-142 431.5h-260l2 -575q0 -82 57 -95q59 -12 60 -75q-13 -29 -117 -29q-28 0 -63 2h-97q-80 6 -82 43zM301 883l272 -4q98 0 179 26q135 46 135 148q0 90 -43 149q-53 68 -152 68h-389z" />
<glyph unicode="s" horiz-adv-x="1026" d="M61 274q0 23 29 27q-10 -2 -1 -2h38q8 0 68 -53q35 -35 66.5 -59.5t60.5 -41.5q96 -53 206 -53q127 0 209 64q94 70 94 202q0 150 -188 271l-352 194q-190 119 -191 267q0 152 113 239q93 78 243 78h15q106 -4 178 -37q16 -8 29.5 -13t23.5 -9l17 -9q2 0 10 6.5 t19.5 13.5t23.5 13t23 6q35 0 57 -104q14 -66 14 -111q0 -39 -32 -39q-8 0 -60 43q-33 27 -61.5 47.5t-57.5 34.5q-88 45 -178 45q-96 0 -168 -41q-80 -49 -80 -145q0 -111 191 -211q162 -88 250 -137t104 -60q191 -145 191 -352q0 -193 -158 -291q-119 -73 -283 -73h-4 q-80 0 -262 59q-2 0 -25 -29t-30 -30q-3 -1 -6 -1q-39 0 -86 130l-45 139q-4 20 -5 22z" />
<glyph unicode="t" horiz-adv-x="1062" d="M31 1151q0 29 32 119q41 109 66 108h805q25 0 65 -108q33 -90 33 -119q0 -35 -35 -35q-18 0 -61 68q-41 72 -82 73l-246 3v-1104q0 -37 58 -58q59 -23 59 -61q0 -33 -76 -33h-225q-68 0 -68 33q0 45 56 51q57 6 57 76l-2 1096l-258 -3q-41 -6 -82 -73q-41 -68 -61 -68 q-35 0 -35 35z" />
<glyph unicode="u" horiz-adv-x="1198" d="M61 1329q0 45 76 45l238 2q23 0 45 -10t22 -25q0 -51 -61 -69q-61 -16 -62 -66v-737q-1 -21 -1 -41q0 -83 20 -143q57 -184 254 -185q199 0 266 185q27 74 27 184v737q0 49 -62 66q-61 18 -61 69q0 35 65 35l234 -2q76 0 76 -45q0 -39 -62 -47q-59 -10 -59 -68l-4 -747 q-2 -236 -106 -365q-97 -121 -275 -121q-12 0 -25 1q-15 -1 -29 -1q-177 1 -281 117q-112 126 -112 355l-2 761q0 57 -61 68q-59 10 -60 47z" />
<glyph unicode="v" horiz-adv-x="1218" d="M61 1327q0 51 84 51h183q80 0 80 -50t-68 -52q-16 0 -27.5 -14.5t-7.5 -26.5l277 -1038q2 -18 10 -19q14 0 24 43l287 1026q2 18 -37 31q-37 13 -37 49q0 38 29 45q2 2 68 6h172q59 0 59 -45q1 -31 -24 -51q-2 -6 -54 -12q-39 -6 -49 -47l-162 -545 q-78 -266 -120.5 -403.5t-47.5 -151.5q-2 -4 -2 -12q0 -14 45 -29q45 -12 45 -49q0 -35 -88 -35h-221q-55 0 -57 2q-29 6 -29 39q0 29 45 43q47 16 47 37q0 10 -137 508q-72 258 -115 408.5t-57 195.5q-6 20 -12 26q-8 12 -31 17q-41 4 -47 6q-25 8 -25 47z" />
<glyph unicode="w" horiz-adv-x="1685" d="M20 1327q0 51 84 51h183q80 0 80 -50t-68 -52q-16 0 -27.5 -13.5t-7.5 -27.5l277 -1038q2 -18 12 -19q10 0 22 43l203 631l-125 371q-10 41 -37 47q-41 6 -43 12q-25 20 -24 51q0 45 57 45h471q59 0 60 -45q0 -31 -25 -51q-4 -6 -43 -12q-29 -6 -39 -47 q-2 -4 -32.5 -98.5t-92.5 -278.5l203 -625q14 -43 25 -43q8 0 12 19l276 1038q4 14 -8 27.5t-27 13.5q-67 2 -67 48v7q4 47 80 47h180q86 0 86 -51q0 -39 -25 -47q-6 -2 -47 -6q-31 -4 -43 -43q-16 -45 -58 -195.5l-114 -408.5q-137 -498 -137 -508q0 -23 45 -37 q47 -16 47 -43q0 -33 -28 -39q-4 -2 -58 -2h-221q-88 0 -88 35q0 37 45 49q45 14 45 29q0 8 -2 12l-184 539l-183 -539q-2 -4 -2 -12q0 -14 45 -29q45 -12 46 -49q0 -35 -89 -35h-221q-55 0 -57 2q-29 6 -29 39q0 29 45 43q47 16 47 37q0 10 -137 508q-72 258 -114.5 408.5 t-57.5 195.5q-6 20 -12 26q-8 12 -31 17q-41 4 -47 6q-25 8 -25 47zM764 1219l78 -218q16 53 32.5 106.5t32.5 106.5q1 4 1 9q0 23 -27 49h-80q-39 -21 -39 -43q0 -5 2 -10z" />
<glyph unicode="x" horiz-adv-x="1236" d="M47 39q0 27 27 41q29 6 58.5 14t43.5 58q14 61 68 159l92 176q20 41 117 152q86 98 86 102q0 20 -64 117l-69 107q-33 59 -72 126.5t-86 145.5q-8 16 -74 39q-55 14 -55 49q0 41 88 41h211q20 0 40.5 -19.5t20.5 -33.5q0 -29 -37 -35q-35 -4 -39 -33l234 -399l135 160 q75 110 75 216q0 15 -1 29q-10 14 -68 31q-45 12 -45 51q-2 33 33 37q10 2 231 2q92 0 93 -51q0 -33 -48 -43q-53 -12 -59 -23q-12 -23 -25 -73q-8 -35 -13 -54.5t-7 -25.5q-49 -145 -178 -297q-2 -4 -8 -8q-4 -4 -10.5 -9.5t-14.5 -11.5q-23 -18 -22 -28q0 -8 106 -185 q66 -106 109 -179t65 -114l45 -84q14 -27 28.5 -46t28.5 -34q6 -4 70 -18q49 -10 49 -53q0 -37 -65 -47h-78q-4 0 -23.5 1t-56.5 3q-41 2 -70.5 2t-46.5 2q-27 18 -26 43q0 27 39 39q41 12 51 28l-318 533q-4 0 -10 -2q-229 -229 -289 -533q8 -10 68 -24q45 -12 45 -53 q0 -45 -86 -45h-158q-72 0 -78 2q-57 8 -57 55z" />
<glyph unicode="y" horiz-adv-x="1187" d="M20 1331q0 47 99 47q61 0 194 -6q29 -4 54 -14q33 -18 32 -45q0 -25 -26 -31q-41 -10 -56 -25l293 -405h11q43 61 115.5 156.5t176.5 226.5q12 14 13 33l-52 18q-37 14 -36 47q0 14 24 37q29 2 74 2h104q29 0 48.5 -1t29.5 -3q49 -10 49 -51q0 -31 -31.5 -43t-62.5 -23 q-16 -10 -38.5 -35.5t-53.5 -66.5l-145 -184q-98 -119 -158 -217q-6 -10 -6 -54q4 -49 0 -59l-6 -436v-51.5t2 -30.5q4 -20 51 -29q51 -8 53 -53q2 -25 -5 -30t-13 -9h-121q8 0 1 0t-28 -2h-151q-39 20 -39 29q0 2 6 14t8 26q2 2 64 27q43 14 43 33v493q0 14 -2.5 44 t-6.5 75q-4 6 -10 15.5t-16 19.5l-154 229q-53 78 -100 142.5t-90 111.5q-16 16 -52 23q-66 12 -76 16t-10 39z" />
<glyph unicode="z" horiz-adv-x="995" d="M41 61q16 182 256 508l221 273q145 182 178 272q43 123 43 158l-381 -2q-66 0 -122 -80q-59 -80 -76 -80q-47 0 -47 27q0 6 2 10q12 33 24.5 65.5t22.5 67.5q37 104 70 104h4q37 -6 98 -6h475h31q27 -4 28 -30q-2 -121 -37 -211l-81 -176q-57 -127 -291 -386 q-35 -37 -78 -104q-74 -115 -105.5 -159t-78.5 -179l-4 -27h473h4q49 0 100 48q14 12 68 79q27 33 55 33q41 0 41 -53q0 -18 -27 -98q-14 -41 -21 -63.5t-12 -26.5q-6 -35 -90 -35q-31 0 -75 6q-23 2 -36.5 3t-15.5 1h-569q4 -4 -2 -4q-10 0 -28.5 21.5t-16.5 43.5z" />
<glyph unicode="{" horiz-adv-x="1044" d="M61 692q16 23 62.5 73t120.5 132l153 170q45 47 85 83t79 58q96 57 209 58q45 0 84 -17.5t67.5 -48.5t45 -72t16.5 -86q0 -94 -55.5 -147t-149.5 -53q-72 0 -125 44t-53 113q0 61 44 99.5t108 38.5q82 0 82 -84q0 -57 -60 -58q-12 0 -26.5 7.5t-26.5 16.5t-22.5 16 t-12.5 7q-27 0 -27 -47q0 -96 125 -96q59 0 98.5 41t39.5 102q0 74 -47.5 119t-120.5 45q-123 0 -256 -125q-133 -127 -133 -245q0 -10 1 -19.5t3 -19.5q-76 12 -154 -35q-16 -12 -41 -37q-35 -31 -35 -41q0 -6 35 -41q25 -25 41 -37q78 -47 154 -35q-2 -10 -3 -19t-1 -20 q0 -119 133 -245q133 -125 256 -125q74 0 121 45t47 119q0 59 -39 101t-99 42q-125 0 -125 -98q0 -45 27 -45q2 0 12.5 7t22.5 16t26.5 16.5t26.5 7.5q59 0 60 -58q0 -84 -82 -84q-63 0 -107.5 37t-44.5 101q0 70 53.5 112.5t124.5 42.5q94 0 149.5 -52t55.5 -146 q0 -92 -63 -156q-63 -66 -152 -64q-119 4 -213 58q-74 45 -162 137q-37 43 -73.5 86t-75.5 84q-31 35 -77 89t-106 132zM461 688q0 35 23.5 58.5t56.5 23.5q35 0 58.5 -23.5t23.5 -58.5q0 -33 -24 -56.5t-58 -23.5q-33 0 -56.5 23.5t-23.5 56.5z" />
<glyph unicode="|" horiz-adv-x="247" d="M61 0v1378h125v-1378h-125z" />
<glyph unicode="}" horiz-adv-x="1044" d="M61 326q0 94 54.5 146t152.5 52q70 0 123 -43t53 -112q0 -63 -44 -100.5t-107 -37.5q-82 0 -82 84q0 57 59 58q12 0 26.5 -7.5t27 -16.5t21.5 -16t13 -7q27 0 27 45q0 98 -125 98q-59 0 -98 -42t-39 -101q0 -74 47 -119t121 -45q123 0 254 125q135 125 135 245 q0 10 -1 19.5t-3 19.5q76 -12 153 35q16 12 43 39q33 31 33 39q0 10 -31 39q-16 14 -26 24.5t-19 14.5q-78 47 -153 35q2 10 3 19t1 20q0 119 -135 245q-131 125 -254 125q-74 0 -121 -45t-47 -119q0 -61 39 -102t98 -41q125 0 125 96q0 47 -27 47q-4 0 -13 -7t-21.5 -16 t-26.5 -16.5t-27 -7.5q-59 0 -59 58q0 84 82 84q63 0 107 -38t44 -100q0 -70 -53 -113.5t-123 -43.5q-98 0 -152.5 53t-54.5 147q0 45 16.5 86t45.5 72t67.5 48.5t83.5 17.5q113 0 209 -58q39 -23 79 -58.5t85 -82.5l154 -170q35 -37 80 -88t102 -117q-59 -78 -105.5 -132 t-76.5 -89q-39 -41 -76 -84l-74 -86q-86 -92 -162 -137q-94 -53 -213 -58q-88 -2 -153 64q-61 63 -62 156zM424 688q0 35 23.5 58.5t56.5 23.5t56.5 -23.5t23.5 -58.5q0 -33 -23.5 -56.5t-56.5 -23.5t-56.5 23.5t-23.5 56.5z" />
<glyph unicode="~" horiz-adv-x="595" d="M61 1475v43q0 41 50 75q41 27 82 27q14 0 114 -33q104 -31 113 -31q41 0 63 66l52 -2v-25q0 -53 -56 -96q-47 -37 -90 -37q-4 0 -106 29q-98 31 -107 31q-76 0 -65 -54z" />
<glyph unicode="&#xa4;" horiz-adv-x="1177" d="M61 616q0 70 35 60h101q-2 10 -2 20.5v20.5q0 20 1 38.5t3 39.5h-103q-35 -10 -35 47q0 70 35 59h115q37 207 151 334q137 147 367 147q59 0 139 -24q86 -23 74 -23q4 0 13.5 5.5t20.5 12.5t19.5 12t12.5 5q29 0 71 -125q37 -114 37 -137q0 -45 -39 -45q-23 0 -67 55 q-57 70 -101 103q-78 55 -176 55q-291 0 -379 -375h428q33 8 33 -59q0 -61 -33 -47h-446q-6 -47 -6 -88q0 -20 2 -31h450q33 8 33 -60q0 -61 -33 -47h-444q51 -451 397 -450q98 0 178 61q49 37 107 113q45 61 57 61q33 0 33 -43q0 -133 -149 -233q-133 -90 -248 -90 q-459 0 -512 581h-105q-35 -10 -35 47z" />
<glyph unicode="&#xa9;" horiz-adv-x="1552" d="M61 694q0 293 213 502q215 209 510 209q293 0 500 -213t207 -510q0 -293 -213 -502t-506 -209q-299 0 -504 211q-207 213 -207 512zM139 694q0 -264 185 -454q186 -190 448 -191q264 0 455 184q190 187 190 449q0 266 -186 455q-188 190 -447 190q-266 0 -454 -186 q-190 -184 -191 -447zM350 698q0 184 125 316q125 131 285 131q88 0 166 -39q80 -39 90 -39q45 0 45 66h47v-342h-43q-20 125 -90 208q-80 96 -195 97q-59 0 -105 -30t-79 -84t-50.5 -129t-17.5 -163q0 -162 70 -264q78 -115 215 -115q145 0 277 193l38 -21 q-150 -236 -376 -235q-162 0 -283 133q-119 133 -119 317z" />
<glyph unicode="&#xab;" horiz-adv-x="663" d="M61 440v78l275 291l-4 -96l-111 -232l111 -221l4 -104zM328 440v78l274 291l-4 -96l-111 -232l111 -221l4 -104z" />
<glyph unicode="&#xac;" horiz-adv-x="1042" d="M61 43q0 43 33 51q57 16 58 17q33 20 32 98q-2 23 -2 89.5v178.5l-82 -57q-2 -2 -6 -2q-27 0 -26 35v65q0 12 32 33l82 55l2 606q-4 57 -59 66q-57 12 -57 51q0 45 75 45l240 2q23 0 45.5 -10t22.5 -25q0 -37 -62 -63q-61 -29 -61 -66v-161q-2 -133 -2 -218v-126l147 104 q2 2 8 2q25 0 25 -35v-65q0 -12 -33 -33l-147 -102v-289t2 -170h340q82 0 139 45q12 10 30.5 30.5t45.5 53.5q37 45 65 45q39 -1 33 -62q-33 -106 -127 -229h-719q-74 0 -74 41z" />
<glyph unicode="&#xad;" horiz-adv-x="571" d="M61 479v113h449v-113h-449z" />
<glyph unicode="&#xae;" horiz-adv-x="872" d="M61 1032q0 154 111 262q113 111 268 111q156 0 262 -113q109 -112 109 -268q0 -154 -111 -260q-113 -109 -266 -109q-154 0 -264 111q-109 113 -109 266zM102 1032q0 -135 97 -237q98 -100 235 -101q135 0 236 97q100 98 100 233q0 137 -98 240q-94 100 -232 100 q-139 0 -239 -98q-98 -96 -99 -234zM225 815v21q49 0 60.5 9t11.5 50v268q0 39 -11.5 48.5t-60.5 9.5v24h160q131 0 168 -10q61 -18 65 -96q4 -74 -53 -97l-94 -16q61 -18 90 -68q12 -23 23 -81q10 -41 28 -41q37 0 37 77h25q0 -111 -92 -110q-61 0 -76 55l-12 105 q-12 55 -72 55h-51v-123q0 -41 11 -50t62 -9v-21h-219zM371 1047h43q116 0 116 94q0 72 -108 71q-37 0 -44 -7t-7 -40v-118z" />
<glyph unicode="&#xb0;" horiz-adv-x="641" d="M61 1122q0 109 76 185t185 75q106 0 182 -75q76 -76 76 -185q0 -106 -76 -182t-182 -76q-109 0 -185 76t-76 182zM143 1122q0 -37 14.5 -68.5t38 -55t56.5 -38t70 -14.5t68.5 14.5t56 38t38 55t13.5 68.5q0 74 -51.5 126t-124.5 52q-74 0 -126.5 -52t-52.5 -126z" />
<glyph unicode="&#xb6;" horiz-adv-x="45" />
<glyph unicode="&#xb7;" horiz-adv-x="317" d="M61 729q0 49 29 83t70 34t68.5 -34t27.5 -83t-28.5 -84t-67.5 -35q-41 0 -70 35t-29 84z" />
<glyph unicode="&#xbb;" horiz-adv-x="663" d="M61 156l2 104l113 221l-113 232l-2 96l275 -291v-78zM328 156l2 104l112 221l-112 232l-2 96l274 -291v-78z" />
<glyph unicode="&#x401;" d="M61 33q0 33 37 49q57 20 62 24v1162q-35 14 -67 28.5t-32 42.5q0 33 74 33h756q82 -94 82 -149q0 -66 -25 -66q-12 0 -71 57q-57 57 -132 58h-434v-367h471q63 0 101 31q18 12 45 57q20 31 35 31q10 0 24 -13.5t14 -23.5v-289q0 -8 -14 -20t-24 -12q-27 0 -52 67 q-20 70 -69 70l-535 -2v-695l475 -2q51 0 123 64q78 66 92 65q39 1 39 -32q0 -27 -49 -115q-25 -45 -40 -68.5t-19 -27.5h-834q-12 0 -22.5 17.5t-10.5 25.5zM295 1552q0 33 23.5 56.5t56.5 23.5t56.5 -23.5t23.5 -56.5t-23.5 -56t-56.5 -23t-56.5 23.5t-23.5 55.5z M590 1552q0 33 23.5 56.5t56.5 23.5q35 0 58.5 -23.5t23.5 -56.5t-23.5 -56t-58.5 -23q-33 0 -56.5 23.5t-23.5 55.5z" />
<glyph unicode="&#x404;" horiz-adv-x="1032" d="M53 717q0 268 117 450q143 227 426 228q57 0 135 -31q70 -25 72 -29q16 16 36.5 29.5t47.5 13.5q45 0 88 -270q0 -45 -39 -45q-25 0 -70 55q-31 35 -56.5 60.5t-47.5 40.5q-78 53 -176 53q-236 -2 -334 -219q-35 -74 -51 -172h334q61 0 96 30q10 8 19 22.5t20 35.5 q14 31 30 30q39 0 39 -36v-289q0 -33 -39 -33q-23 0 -59 68q-35 68 -106 67h-345q-2 -14 -2 -26.5v-26.5q0 -252 54 -389q45 -115 128 -171.5t214 -56.5q100 0 166.5 50.5t128.5 134.5q45 63 59 63q33 0 33 -43q0 -63 -32 -120.5t-87 -101.5t-127 -71.5t-152 -29.5 q-260 -10 -390 177t-130 552z" />
<glyph unicode="&#x406;" horiz-adv-x="448" d="M35 33q0 43 55 53q55 12 55 84v1028q0 72 -55 84q-53 16 -53 59q0 33 67 33h207q76 0 76 -33q0 -39 -59 -61q-59 -23 -60 -57v-1073q0 -35 60 -58q59 -18 59 -59q0 -14 -26.5 -24.5t-49.5 -10.5h-209q-68 0 -67 35z" />
<glyph unicode="&#x407;" horiz-adv-x="483" d="M61 1552q0 33 24 56.5t56 23.5q33 0 56.5 -23.5t23.5 -56.5t-23.5 -56t-56.5 -23t-56.5 23.5t-23.5 55.5zM74 35q0 43 55 53q59 12 55 84v1026q0 72 -55 84q-53 16 -53 59q0 33 67 33h213q76 0 76 -33q0 -39 -59 -61q-59 -23 -60 -57q2 -1026 0 -1071q0 -35 60 -58 q59 -18 59 -59q0 -14 -25.5 -24.5t-50.5 -10.5h-215q-68 0 -67 35zM297 1552q0 33 22.5 56.5t57.5 23.5q33 0 56.5 -23.5t23.5 -56.5t-23.5 -56t-56.5 -23q-35 0 -57.5 23.5t-22.5 55.5z" />
<glyph unicode="&#x410;" horiz-adv-x="1169" d="M41 49q2 61 82 62q12 0 33 -5l180 1176q-121 -12 -117 53q2 43 68 54q-8 -2 73 -3h467q133 0 134 -51q0 -43 -60 -53q-12 -2 -27.5 -3t-33.5 1l184 -1174q100 14 104 -45t-63 -59h-98q-29 -2 -53.5 -2h-47.5q-78 0 -71 51q6 59 96 55l-100 670h-408l-102 -670 q98 8 104 -55q2 -25 -23.5 -39t-44.5 -14h-92q-43 2 -65.5 2h-26.5q-96 0 -92 49zM393 881h379l-53 403l-273 -2z" />
<glyph unicode="&#x411;" d="M63 53q-4 35 37 51q37 10 68 5v1140q-4 -8 -14.5 8.5t-34.5 22.5q-51 16 -47 53q2 45 102 45h678q49 0 102 -194q0 -35 -28 -35q-8 0 -76 61t-109 62h-442v-389h125h102t67.5 -1t18.5 -1q113 -2 193 -41t130 -102.5t71.5 -143.5t19.5 -164q2 -84 -30.5 -162t-90 -137 t-134.5 -95t-159 -36h-311h-143q-90 0 -95 53zM299 106h311q57 0 112.5 29t98.5 75t68.5 103.5t23.5 116.5q2 59 -14 118.5t-55 109t-100.5 81t-145.5 35.5l-299 2v-670z" />
<glyph unicode="&#x412;" horiz-adv-x="1107" d="M61 1327q0 51 89 51h477q135 0 229 -71q100 -80 100 -213q0 -78 -47 -156q-51 -86 -127 -104q244 -86 244 -383q0 -178 -115 -312q-121 -139 -299 -139h-311h-143q-90 0 -95 53q-4 35 37 51q33 10 68 5v1163q-72 0 -76 2q-31 8 -31 53zM299 106h311q127 0 217 111 q86 105 86 234q0 322 -372 325h-242v-670zM299 883h190.5t49.5 -2q303 14 303 219q0 172 -269 172h-274v-389z" />
<glyph unicode="&#x413;" horiz-adv-x="1036" d="M55 33q0 35 56 51q55 18 55 55v1110q0 18 -49 31q-49 16 -47 53q2 45 102 45h721q49 0 102 -194q0 -35 -28 -35q-8 0 -76 61t-109 62h-481l2 -1137q0 -18 53 -41t54 -63q0 -31 -62 -31h-235q-57 0 -58 33z" />
<glyph unicode="&#x414;" horiz-adv-x="1128" d="M-43 -106q0 29 33 118q39 106 65 107h64l237 1136l-24 -2q-66 0 -86.5 19.5t-18.5 48.5t29 44t90 15h565q125 0 129 -59q4 -66 -100 -66v-1136h84q27 0 66 -107q33 -90 32 -118q0 -35 -35 -35q-18 0 -61 67q-41 72 -82 74h-809q-41 -2 -82 -74q-43 -68 -61 -67 q-35 0 -35 35zM238 119h575v1141l-346 -3z" />
<glyph unicode="&#x415;" horiz-adv-x="1095" d="M61 43q0 47 43 57l54 6v1131q0 18 -49 29q-51 10 -48 65q4 47 72 47h756q86 -172 86 -178q0 -43 -29 -43q-12 0 -72 57q-57 57 -131 58h-448v-391h356q61 0 97 30q10 8 19 22.5t19 35.5q14 31 31 30q39 0 39 -36v-289q0 -33 -39 -33q-23 0 -59 68q-35 68 -107 67h-358 v-670h512q49 0 110 64q63 63 80 63q39 1 39 -32q0 -25 -51 -113q-25 -41 -40 -62.5t-19 -25.5h-785q-39 0 -58.5 16.5t-19.5 26.5z" />
<glyph unicode="&#x416;" horiz-adv-x="1898" d="M41 31q0 41 57 55q66 18 74 51l342 897q-72 66 -129 121t-100 98q-35 35 -58 37h-28q-14 0 -27 17q-6 39 -6 49q0 18 47 22h195h57q45 -6 47 -39t-29 -45q-35 -12 -34 -20q0 -6 6 -14l424 -365v332q0 35 -60 57q-59 23 -59 62q0 33 76 32h227q76 0 76 -32q0 -39 -60 -62 q-59 -23 -59 -57v-332l424 365q6 8 6 14q0 8 -35 20q-31 12 -29 45t48 39h57h195q47 -4 47 -22q0 -10 -7 -49q-12 -16 -26 -17h-29q-23 -2 -57 -37q-43 -43 -100.5 -98t-129.5 -121l342 -899q8 -33 74 -51q57 -14 58 -55q0 -29 -91 -29h-223q-29 0 -38 6t-9 35q0 10 35 33 q37 25 37 61q-72 231 -301 817q-35 -29 -97.5 -77t-150.5 -119v-604q0 -35 59 -58q59 -18 60 -59q0 -14 -27 -24.5t-49 -10.5h-229h2q-23 0 -49.5 10t-26.5 25q0 41 59 59q59 23 60 58v604q-88 72 -150.5 120t-97.5 76q-229 -584 -301 -815q0 -37 37 -61q35 -23 34 -33 q0 -29 -9 -35t-38 -6h-223q-90 0 -90 29z" />
<glyph unicode="&#x417;" horiz-adv-x="976" d="M41 348q0 51 49 49q23 -4 47 -78q33 -96 78 -141q49 -49 118.5 -66.5t151.5 -17.5q80 0 137.5 34t104.5 95q76 100 76 234q0 66 -23.5 124t-65.5 102t-98.5 68.5t-119.5 24.5q-10 2 -32 2h-43.5t-34.5 -1t-3 -1q-31 4 -40 19.5t-9 44.5q0 31 18.5 38t48.5 7q6 2 21.5 2 h31t29 -1t19.5 1q203 27 203 213q0 98 -80 147q-72 41 -168 41q-90 0 -178 -45q-29 -14 -57.5 -34.5t-61.5 -47.5q-53 -43 -60 -43q-33 0 -32 39q0 45 14 111q20 104 57 104q10 0 22.5 -6t24 -13t19.5 -13.5t10 -6.5l16 8q10 4 23.5 9.5t30.5 13.5q70 33 178 37 q160 4 258 -78q113 -88 113 -240q0 -88 -39 -156.5t-117 -92.5q61 -10 107 -50.5t77 -95.5t47.5 -118.5t16.5 -120.5q0 -174 -109 -308q-66 -78 -153.5 -119.5t-196.5 -41.5q-180 0 -295 83q-131 98 -131 285z" />
<glyph unicode="&#x418;" horiz-adv-x="1210" d="M53 31q0 43 51 53q49 12 50 84v1034q0 74 -50 86q-49 16 -49 60q0 33 62 32h205q70 0 69 -32q0 -39 -53 -62q-55 -23 -55 -57v-877l645 858q-2 70 -49 82q-49 16 -50 60q0 33 62 32h205q70 0 69 -32q0 -39 -53 -62q-55 -23 -55 -57v-1081q0 -35 55 -58q53 -18 53 -59 q0 -14 -24.5 -24.5t-44.5 -10.5h-207q-61 0 -62 35q0 43 52 53q49 12 49 84v840l-645 -858v-7q0 -35 55 -57q53 -18 53 -59q0 -14 -24.5 -24.5t-44.5 -10.5h-207q-61 0 -62 35z" />
<glyph unicode="&#x419;" horiz-adv-x="1210" d="M53 31q0 43 51 53q49 12 50 84v1034q0 74 -50 86q-49 16 -49 60q0 33 62 32h205q70 0 69 -32q0 -39 -53 -62q-55 -23 -55 -57v-877l645 858q-2 70 -49 82q-49 16 -50 60q0 33 62 32h205q70 0 69 -32q0 -39 -53 -62q-55 -23 -55 -57v-1081q0 -35 55 -58q53 -18 53 -59 q0 -14 -24.5 -24.5t-44.5 -10.5h-207q-61 0 -62 35q0 43 52 53q49 12 49 84v840l-645 -858v-7q0 -35 55 -57q53 -18 53 -59q0 -14 -24.5 -24.5t-44.5 -10.5h-207q-61 0 -62 35zM391 1655q2 18 17.5 26.5t34 7.5t35 -10.5t16.5 -23.5q8 -53 38.5 -76t90.5 -23q59 0 92 23 t41 76q0 18 15 26.5t33.5 7.5t33 -10.5t14.5 -23.5q0 -92 -64.5 -148.5t-158.5 -56.5q-45 0 -88 13.5t-77 40t-53.5 64.5t-19.5 87z" />
<glyph unicode="&#x41a;" horiz-adv-x="1191" d="M61 35q0 43 56 53q55 12 55 84q-4 319 -4 575.5t2 454.5q0 72 -55 84q-53 16 -54 60q0 33 68 32h227q76 0 76 -32q0 -39 -59 -62t-60 -57v-332l424 365q6 8 6 14q0 8 -34 20q-31 12 -29 45t47 39h57h195q47 -4 47 -22q0 -10 -6 -49q-12 -16 -27 -17h-28q-23 -2 -58 -37 q-43 -43 -100 -98t-129 -121l342 -899q8 -33 74 -51q57 -14 57 -55q0 -29 -90 -29h-223q-29 0 -38 6t-9 35q0 10 34 33q37 25 37 61q-72 231 -301 817q-35 -29 -97.5 -77t-150.5 -119v-604q0 -35 60 -58q59 -18 59 -59q0 -14 -26.5 -24.5t-49.5 -10.5h-227q-68 0 -68 35z " />
<glyph unicode="&#x41b;" horiz-adv-x="1128" d="M25 143q0 41 27.5 73t62.5 32q8 0 12 -6t0 -13q-6 -8 -9 -24.5t-1 -32.5t11 -26.5t28 -4.5q8 2 15 13.5t16.5 49.5t21.5 109.5t32.5 194.5t49 305t71.5 442l-30 -2q-68 0 -86.5 19.5t-18.5 48.5q0 59 119 59h582q129 0 129 -63q0 -61 -101 -62v-1103q0 -18 18.5 -32 t41 -26t41 -25.5t18.5 -33.5q0 -14 -26.5 -24.5t-49.5 -10.5h-213q-68 0 -67 35q0 25 17.5 35t38 19t37.5 25.5t17 57.5v1088h-362q-41 -274 -68.5 -473t-49 -338.5t-39 -225.5t-38 -135t-47 -68.5t-65.5 -23.5q-66 -8 -100.5 32t-34.5 115z" />
<glyph unicode="&#x41c;" horiz-adv-x="1560" d="M49 35q0 23 43 33q45 8 58 63q51 211 111.5 488.5t129.5 627.5q-6 33 -49 39q-43 8 -43 35q0 41 18 51q10 8 54 8h198q61 -10 60 -41q-4 -25 -43 -36q-41 -12 -39 -46l239 -434l228 434q2 33 -39 46q-41 12 -43 36q-2 31 59 41h199q53 0 62.5 -14t9.5 -45q0 -27 -43 -35 q-43 -6 -50 -39q70 -350 130.5 -627.5t111.5 -488.5q12 -53 59 -63q41 -10 41 -33q0 -45 -45 -45q-141 2 -193 5t-36 3q-59 0 -59 37q0 23 55 45q49 18 41 51q4 0 -84 420q-78 362 -123 553q-6 -8 -156 -283q-106 -199 -133 -198q-25 0 -131 198l-153 283 q-47 -190 -123 -553q-88 -420 -84 -420q-8 -33 43 -53q53 -18 53 -43q0 -37 -59 -37q16 0 -36 -3t-194 -5q-45 0 -45 45z" />
<glyph unicode="&#x41d;" horiz-adv-x="1230" d="M41 41q0 37 51 55q53 18 55 45l91 1110q2 33 -41 43q-43 8 -43 39q0 47 79 47h74t68 -2q23 -2 38 -2t19 -2q18 -6 19 -31q0 -43 -43 -51q-43 -6 -46 -39l-28 -372h565l-31 372q-2 33 -45 39q-41 10 -41 51q0 25 19 31q10 2 60 4t136 2q80 0 80 -47q0 -31 -43 -39 q-43 -10 -41 -43l90 -1110q2 -27 54 -45q53 -18 53 -55t-27 -43q6 2 -53 2h-160h-63q-39 6 -39 47q0 47 51 55q53 10 57 39l-53 635h-573l-54 -635q4 -31 56 -39q53 -10 53 -55q0 -41 -41 -47h-61h-164q-57 0 -51 -2q-27 6 -27 43z" />
<glyph unicode="&#x41e;" horiz-adv-x="1185" d="M98 688q0 252 92 440q133 266 414 263q279 2 418 -263q98 -190 98 -440q0 -252 -96 -444q-135 -268 -416 -264q-281 -4 -413 264q-96 193 -97 444zM236 690q0 -266 92 -422q96 -164 272 -170q178 6 277 168q98 162 98 424q0 264 -94.5 420t-270.5 162q-90 -4 -159.5 -46 t-116.5 -117t-72.5 -181.5t-25.5 -237.5z" />
<glyph unicode="&#x41f;" horiz-adv-x="1210" d="M53 31q0 45 51 53q49 12 50 84v1034q0 74 -50 86q-49 14 -49 60q0 33 62 32h979q70 0 69 -32q0 -39 -53 -62q-55 -23 -55 -57v-1077q0 -37 55 -58q53 -18 53 -59q0 -14 -24.5 -24.5t-44.5 -10.5h-207q-61 0 -62 35q0 45 52 53q49 12 49 84l-2 1104l-643 -2v-1127 q0 -37 55 -57q53 -18 53 -59q0 -14 -24.5 -24.5t-44.5 -10.5h-207q-61 0 -62 35z" />
<glyph unicode="&#x420;" d="M61 49q0 51 60 62q59 10 59 43v1069q0 31 -14 39q-14 0 -21 2q-45 8 -60 19t-15 42q0 51 75 51h600q129 0 213 -98q78 -90 78 -213q0 -137 -102 -221q-90 -76 -217 -76h-410v-625q0 -20 31 -22q45 -2 55 -10q27 -16 25 -68q-2 -33 -84 -43h-94h-103q-76 8 -76 49z M313 881l258 -2q127 0 195 22q121 41 121 164q0 86 -49.5 141.5t-128.5 55.5h-396v-381z" />
<glyph unicode="&#x421;" horiz-adv-x="1024" d="M61 840q-2 123 38 224t110 175t165 115t206 41h32q57 0 136 -31q82 -29 69 -29q16 16 36.5 29.5t49.5 13.5q45 0 88 -270q0 -45 -39 -45q-25 0 -69 55q-31 35 -56.5 60.5t-48.5 40.5q-78 53 -176 53q-16 0 -30.5 -1t-28.5 -3q-80 -6 -145.5 -38t-111.5 -87.5t-72 -131 t-26 -167.5q-2 -160 55.5 -276.5t155 -215t223.5 -189.5t261 -198q14 -18 12 -41.5t-15.5 -41t-35 -23.5t-45.5 8q-154 117 -287 213t-232.5 201.5t-158 237.5t-60.5 321z" />
<glyph unicode="&#x422;" horiz-adv-x="1062" d="M31 1151q0 27 32 119q41 109 66 108h805q25 0 65 -108q33 -92 33 -119q0 -35 -35 -35q-18 0 -61 68q-39 70 -82 73q-33 4 -246 5v-1110q0 -37 58 -58q59 -23 59 -61q0 -33 -76 -33h-225q-68 0 -68 33q0 45 56 51q57 6 57 76v1102q-231 0 -260 -5q-43 -6 -82 -73 q-41 -68 -61 -68q-35 0 -35 35z" />
<glyph unicode="&#x423;" horiz-adv-x="1081" d="M12 1319q-2 51 80 51h197q78 0 84 -47q8 -53 -62 -55q-16 0 -25.5 -14.5t-4.5 -26.5l303 -746l276 717q14 35 4 56.5t-37 27.5q-49 14 -26 59q4 16 24.5 24.5t55.5 8.5h184q31 0 42 -12t7 -28.5t-18.5 -32t-32.5 -21.5q-35 -10 -43 -25.5t-19 -31.5l-311 -815 q-51 -137 -87 -218t-65.5 -124t-58 -55.5t-63.5 -14.5q-63 -4 -104.5 44t-30.5 124q4 41 38.5 68.5t65.5 27.5q8 0 11 -6t-1 -12q-6 -8 -10 -26.5t-2 -37t10 -31t27 -6.5q6 2 13 6.5t17.5 19.5t26 46t39.5 90q-25 57 -61.5 145.5t-76.5 185.5t-82 196.5t-76 182.5t-57.5 139 t-29.5 71q-6 18 -16 26q-6 14 -27 17q-41 4 -47 6q-25 8 -31 47z" />
<glyph unicode="&#x424;" horiz-adv-x="1380" d="M47 686q0 129 44 220t122 149.5t182.5 86t225.5 32.5v24q0 72 -56 84q-53 16 -53 59q0 33 68 33h225q76 0 76 -33q0 -39 -60 -61q-59 -23 -59 -57v-52q127 4 233.5 -18.5t183 -77.5t119.5 -146t43 -227q0 -129 -45 -222t-123.5 -154.5t-184 -93t-226.5 -33.5v-47 q0 -35 59 -58q60 -18 60 -59q0 -14 -27 -24.5t-49 -10.5h-227q-68 0 -68 35q0 43 55 53q55 12 56 84v31q-127 -4 -232.5 20.5t-181.5 83t-118 151.5t-42 228zM178 684q0 -92 33 -161.5t92 -116t140 -68t178 -16.5v722q-223 -4 -333 -97t-110 -263zM762 330q223 4 341 103.5 t118 271.5q0 92 -36 159.5t-97.5 110.5t-145.5 62.5t-180 15.5v-723z" />
<glyph unicode="&#x425;" horiz-adv-x="1236" d="M47 39q0 27 27 41q29 6 58.5 14t43.5 58q14 61 68 159l92 176q20 41 117 152q86 98 86 102q0 20 -64 117l-69 107q-33 59 -72 126.5t-86 145.5q-8 16 -74 39q-55 14 -55 49q0 41 88 41h211q20 0 40.5 -19.5t20.5 -33.5q0 -29 -37 -35q-35 -4 -39 -33l234 -399l135 160 q86 125 74 245q-10 14 -68 31q-45 12 -45 51q-2 33 33 37q10 2 231 2q92 0 93 -51q0 -33 -48 -43q-53 -12 -59 -23q-12 -23 -25 -73q-8 -35 -13 -54.5t-7 -25.5q-49 -145 -178 -297q-2 -4 -8 -8q-4 -4 -10.5 -9.5t-14.5 -11.5q-23 -18 -22 -28q0 -8 106 -185 q66 -106 109 -179t65 -114l45 -84q14 -27 28.5 -46t28.5 -34q6 -4 70 -18q49 -10 49 -53q0 -37 -65 -47h-78q-4 0 -23.5 1t-56.5 3q-41 2 -70.5 2t-46.5 2q-27 18 -26 43q0 27 39 39q41 12 51 28l-318 533q-4 0 -10 -2q-229 -229 -289 -533q8 -10 68 -24q45 -12 45 -53 q0 -45 -86 -45h-158q-72 0 -78 2q-57 8 -57 55z" />
<glyph unicode="&#x426;" horiz-adv-x="1185" d="M41 1346q0 35 61 34h207q20 0 45 -10t25 -24q0 -41 -53 -60q-55 -23 -56 -57l-2 -1118l613 -2v1095q0 72 -50 84q-51 8 -51 53q0 35 62 35h207q20 0 44.5 -10t24.5 -25q0 -41 -53 -59q-55 -23 -55 -57v-1106h84q27 0 65 -107q33 -90 33 -118q0 -35 -35 -35q-18 0 -61 67 q-41 72 -82 74h-910q-61 0 -61 33q0 43 49 59q49 12 49 86v1030q0 72 -49 84q-51 8 -51 54z" />
<glyph unicode="&#x427;" horiz-adv-x="1136" d="M35 1325q0 45 76 45l237 2q23 0 45.5 -10t22.5 -25q0 -51 -62 -69q-61 -16 -61 -66v-131q0 -80 16.5 -123t52 -62.5t91 -21.5t131.5 0h262v334q0 72 -55 84q-53 16 -54 59q0 33 68 33h225q76 0 76 -33q0 -39 -59 -61q-59 -23 -60 -57v-1071q0 -35 60 -58q59 -18 59 -59 q0 -14 -26.5 -24.5t-49.5 -10.5h-227q-68 0 -68 35q0 43 56 53q55 12 55 84v563h-250q-104 -2 -185 4t-137.5 39t-87 97.5t-30.5 179.5v155q0 57 -62 68q-59 10 -59 47z" />
<glyph unicode="&#x428;" horiz-adv-x="1910" d="M43 1339q0 35 61 35h205q20 0 45 -10t25 -25q0 -41 -53 -59q-55 -23 -56 -57v-1112h613v1097q0 72 -49 84q-51 8 -52 54q0 35 62 34h205q20 0 44.5 -10t24.5 -24q0 -41 -53 -60q-55 -23 -55 -57v-1118l612 -2v1095q0 72 -49 84q-51 8 -51 53q0 35 61 35h207q20 0 45 -10 t25 -25q0 -41 -54 -59q-55 -23 -55 -57v-1047q0 -74 49 -86q49 -16 49 -59q0 -33 -61 -33h-1682q-61 0 -61 33q0 43 49 59q49 12 49 86v1024q0 72 -49 84q-51 8 -51 53z" />
<glyph unicode="&#x429;" horiz-adv-x="1927" d="M43 1339q0 35 61 35h205q20 0 45 -10t25 -25q0 -41 -53 -59q-55 -23 -56 -57v-1112h613v1097q0 72 -49 84q-51 8 -52 54q0 35 62 34h205q20 0 44.5 -10t24.5 -24q0 -41 -53 -60q-55 -23 -55 -57v-1118l612 -2v1095q0 72 -49 84q-51 8 -51 53q0 35 61 35h207q20 0 45 -10 t25 -25q0 -41 -54 -59q-55 -23 -55 -57v-1106h84q27 0 66 -107q33 -90 32 -118q0 -35 -35 -35q-18 0 -61 67q-41 72 -82 74h-1649q-61 0 -61 33q0 43 49 59q49 12 49 86v1024q0 72 -49 84q-51 8 -51 53z" />
<glyph unicode="&#x42a;" horiz-adv-x="1355" d="M18 1143q0 27 33 119q41 108 66 108l434 2q100 0 102 -45q2 -16 -12 -25.5t-31.5 -17.5t-34 -17.5t-18.5 -23.5v-360h125h102t68 -1t18 -1q113 -2 195 -41t134 -102.5t75.5 -143.5t21.5 -164q2 -84 -32.5 -162t-95 -137t-138.5 -95t-160 -36h-311h-143q-90 0 -94 53 q-4 35 36 51q37 10 68 5v1140h-229q-43 -6 -82 -73q-41 -68 -62 -68q-35 0 -35 35zM557 106h311q57 0 112.5 29t98.5 75t69 103.5t23 116.5q2 59 -14 118.5t-55 109t-100.5 81t-145.5 35.5l-299 2v-670z" />
<glyph unicode="&#x42b;" horiz-adv-x="1523" d="M59 1339q0 33 68 33h225q76 0 76 -33q0 -39 -70 -61q-59 -23 -59 -57v-2v-336h125h102t67.5 -1t18.5 -1q113 -2 195 -41t134 -102.5t75.5 -143.5t21.5 -164q2 -84 -32.5 -162t-95 -137t-138.5 -95t-160 -36h-311h-143q-90 0 -95 53q-4 35 37 51q37 10 68 5v1087 q0 72 -55 84q-53 16 -54 59zM299 106h311q57 0 112.5 29t98.5 75t68.5 103.5t23.5 116.5q2 59 -14 118.5t-55 109t-100.5 81t-145.5 35.5l-299 2v-670zM1106 35q0 43 55 53q55 12 56 84v1028q0 72 -56 84q-53 16 -53 59q0 33 68 33h206q76 0 76 -33q0 -39 -59 -61 q-59 -23 -60 -57v-1073q0 -35 60 -58q59 -18 59 -59q0 -14 -26.5 -24.5t-49.5 -10.5h-208q-68 0 -68 35z" />
<glyph unicode="&#x42c;" d="M59 1339q0 33 68 33h225q76 0 76 -33q0 -39 -70 -61q-59 -23 -59 -57v-2v-336h125h102t67.5 -1t18.5 -1q113 -2 195 -41t134 -102.5t75.5 -143.5t21.5 -164q2 -84 -32.5 -162t-95 -137t-138.5 -95t-160 -36h-311h-143q-90 0 -95 53q-4 35 37 51q37 10 68 5v1087 q0 72 -55 84q-53 16 -54 59zM299 106h311q57 0 112.5 29t98.5 75t68.5 103.5t23.5 116.5q2 59 -14 118.5t-55 109t-100.5 81t-145.5 35.5l-299 2v-670z" />
<glyph unicode="&#x42d;" horiz-adv-x="1032" d="M53 1108q43 270 88 270q27 0 47.5 -13t36.5 -30q2 4 72 29q76 31 135 31q281 0 426 -228q117 -182 117 -450q0 -365 -129 -552.5t-389 -176.5q-80 2 -152 29.5t-127 71.5t-87 101.5t-32 120.5q0 43 33 43q14 0 60 -63q61 -84 127.5 -134.5t166.5 -50.5q131 0 214 56.5 t128 171.5q51 133 52 389v26.5t-2 26.5h-344q-72 0 -107 -67q-37 -68 -59 -68q-39 0 -39 33v289q0 37 39 36q16 0 30 -30q10 -20 19.5 -34.5t19.5 -23.5q35 -31 97 -30h333q-16 98 -51 172q-98 217 -334 219q-98 0 -176 -53q-23 -14 -48 -40t-56 -61q-47 -55 -70 -55 q-39 0 -39 45z" />
<glyph unicode="&#x42e;" horiz-adv-x="1531" d="M53 31q0 43 51 53q49 12 50 84v1034q0 74 -50 86q-49 16 -49 60q0 33 62 32h205q70 0 69 -32q0 -39 -53 -62q-55 -23 -55 -57v-348h178q23 135 78 247q133 266 413 263q279 2 418 -263q98 -190 98 -440q0 -252 -96 -444q-135 -268 -416 -264q-281 -4 -413 264 q-96 193 -97 444q0 45 3 88h-166v-629q0 -35 55 -57q53 -18 53 -59q0 -14 -24.5 -24.5t-44.5 -10.5h-207q-61 0 -62 35zM584 690q0 -266 92 -422q96 -164 272 -170q178 6 277 168q98 162 98 424q0 264 -94 420t-271 162q-90 -4 -159.5 -46t-116.5 -117t-72.5 -181.5 t-25.5 -237.5z" />
<glyph unicode="&#x42f;" horiz-adv-x="1093" d="M57 70q4 27 74 34q68 8 80 54q-2 8 96 299l105 319q-92 6 -164 37q-164 74 -168 256q-4 139 84 223t235 84l545 2q84 0 84 -45q0 -18 -47 -35q-45 -12 -55 -36v-513t2 -563q2 -53 30 -75q29 -10 55.5 -21.5t24.5 -46.5q-2 -37 -82 -43h-96q-164 -10 -180 27q0 63 59 75 q57 12 58 95v575h-258q-86 -256 -142.5 -431t-85.5 -280q4 -25 -14 -43t-45 -18h-164q-10 0 -21.5 30t-9.5 40zM213 1053q0 -102 135 -148q80 -27 178 -26l271 4v387h-389q-98 0 -152 -68q-43 -59 -43 -149z" />
<glyph unicode="&#x430;" horiz-adv-x="1169" d="M41 49q2 61 82 62q12 0 33 -5l180 1176q-121 -12 -117 53q2 43 68 54q-8 -2 73 -3h467q133 0 134 -51q0 -43 -60 -53q-12 -2 -27.5 -3t-33.5 1l184 -1174q100 14 104 -45t-63 -59h-98q-29 -2 -53.5 -2h-47.5q-78 0 -71 51q6 59 96 55l-100 670h-408l-102 -670 q98 8 104 -55q2 -25 -23.5 -39t-44.5 -14h-92q-43 2 -65.5 2h-26.5q-96 0 -92 49zM393 881h379l-53 403l-273 -2z" />
<glyph unicode="&#x431;" d="M63 53q-4 35 37 51q37 10 68 5v1140q-4 -8 -14.5 8.5t-34.5 22.5q-51 16 -47 53q2 45 102 45h678q49 0 102 -194q0 -35 -28 -35q-8 0 -76 61t-109 62h-442v-389h125h102t67.5 -1t18.5 -1q113 -2 193 -41t130 -102.5t71.5 -143.5t19.5 -164q2 -84 -30.5 -162t-90 -137 t-134.5 -95t-159 -36h-311h-143q-90 0 -95 53zM299 106h311q57 0 112.5 29t98.5 75t68.5 103.5t23.5 116.5q2 59 -14 118.5t-55 109t-100.5 81t-145.5 35.5l-299 2v-670z" />
<glyph unicode="&#x432;" horiz-adv-x="1107" d="M61 1327q0 51 89 51h477q135 0 229 -71q100 -80 100 -213q0 -78 -47 -156q-51 -86 -127 -104q244 -86 244 -383q0 -178 -115 -312q-121 -139 -299 -139h-311h-143q-90 0 -95 53q-4 35 37 51q33 10 68 5v1163q-72 0 -76 2q-31 8 -31 53zM299 106h311q127 0 217 111 q86 105 86 234q0 322 -372 325h-242v-670zM299 883h190.5t49.5 -2q303 14 303 219q0 172 -269 172h-274v-389z" />
<glyph unicode="&#x433;" horiz-adv-x="1036" d="M55 33q0 35 56 51q55 18 55 55v1110q0 18 -49 31q-49 16 -47 53q2 45 102 45h721q49 0 102 -194q0 -35 -28 -35q-8 0 -76 61t-109 62h-481l2 -1137q0 -18 53 -41t54 -63q0 -31 -62 -31h-235q-57 0 -58 33z" />
<glyph unicode="&#x434;" horiz-adv-x="1128" d="M-43 -106q0 29 33 118q39 106 65 107h64l237 1136l-24 -2q-66 0 -86.5 19.5t-18.5 48.5t29 44t90 15h565q125 0 129 -59q4 -66 -100 -66v-1136h84q27 0 66 -107q33 -90 32 -118q0 -35 -35 -35q-18 0 -61 67q-41 72 -82 74h-809q-41 -2 -82 -74q-43 -68 -61 -67 q-35 0 -35 35zM238 119h575v1141l-346 -3z" />
<glyph unicode="&#x435;" horiz-adv-x="1095" d="M61 43q0 47 43 57l54 6v1131q0 18 -49 29q-51 10 -48 65q4 47 72 47h756q86 -172 86 -178q0 -43 -29 -43q-12 0 -72 57q-57 57 -131 58h-448v-391h356q61 0 97 30q10 8 19 22.5t19 35.5q14 31 31 30q39 0 39 -36v-289q0 -33 -39 -33q-23 0 -59 68q-35 68 -107 67h-358 v-670h512q49 0 110 64q63 63 80 63q39 1 39 -32q0 -25 -51 -113q-25 -41 -40 -62.5t-19 -25.5h-785q-39 0 -58.5 16.5t-19.5 26.5z" />
<glyph unicode="&#x436;" horiz-adv-x="1898" d="M41 31q0 41 57 55q66 18 74 51l342 897q-72 66 -129 121t-100 98q-35 35 -58 37h-28q-14 0 -27 17q-6 39 -6 49q0 18 47 22h195h57q45 -6 47 -39t-29 -45q-35 -12 -34 -20q0 -6 6 -14l424 -365v332q0 35 -60 57q-59 23 -59 62q0 33 76 32h227q76 0 76 -32q0 -39 -60 -62 q-59 -23 -59 -57v-332l424 365q6 8 6 14q0 8 -35 20q-31 12 -29 45t48 39h57h195q47 -4 47 -22q0 -10 -7 -49q-12 -16 -26 -17h-29q-23 -2 -57 -37q-43 -43 -100.5 -98t-129.5 -121l342 -899q8 -33 74 -51q57 -14 58 -55q0 -29 -91 -29h-223q-29 0 -38 6t-9 35q0 10 35 33 q37 25 37 61q-72 231 -301 817q-35 -29 -97.5 -77t-150.5 -119v-604q0 -35 59 -58q59 -18 60 -59q0 -14 -27 -24.5t-49 -10.5h-229h2q-23 0 -49.5 10t-26.5 25q0 41 59 59q59 23 60 58v604q-88 72 -150.5 120t-97.5 76q-229 -584 -301 -815q0 -37 37 -61q35 -23 34 -33 q0 -29 -9 -35t-38 -6h-223q-90 0 -90 29z" />
<glyph unicode="&#x437;" horiz-adv-x="976" d="M41 348q0 51 49 49q23 -4 47 -78q33 -96 78 -141q49 -49 118.5 -66.5t151.5 -17.5q80 0 137.5 34t104.5 95q76 100 76 234q0 66 -23.5 124t-65.5 102t-98.5 68.5t-119.5 24.5q-10 2 -32 2h-43.5t-34.5 -1t-3 -1q-31 4 -40 19.5t-9 44.5q0 31 18.5 38t48.5 7q6 2 21.5 2 h31t29 -1t19.5 1q203 27 203 213q0 98 -80 147q-72 41 -168 41q-90 0 -178 -45q-29 -14 -57.5 -34.5t-61.5 -47.5q-53 -43 -60 -43q-33 0 -32 39q0 45 14 111q20 104 57 104q10 0 22.5 -6t24 -13t19.5 -13.5t10 -6.5l16 8q10 4 23.5 9.5t30.5 13.5q70 33 178 37 q160 4 258 -78q113 -88 113 -240q0 -88 -39 -156.5t-117 -92.5q61 -10 107 -50.5t77 -95.5t47.5 -118.5t16.5 -120.5q0 -174 -109 -308q-66 -78 -153.5 -119.5t-196.5 -41.5q-180 0 -295 83q-131 98 -131 285z" />
<glyph unicode="&#x438;" horiz-adv-x="1210" d="M53 31q0 43 51 53q49 12 50 84v1034q0 74 -50 86q-49 16 -49 60q0 33 62 32h205q70 0 69 -32q0 -39 -53 -62q-55 -23 -55 -57v-877l645 858q-2 70 -49 82q-49 16 -50 60q0 33 62 32h205q70 0 69 -32q0 -39 -53 -62q-55 -23 -55 -57v-1081q0 -35 55 -58q53 -18 53 -59 q0 -14 -24.5 -24.5t-44.5 -10.5h-207q-61 0 -62 35q0 43 52 53q49 12 49 84v840l-645 -858v-7q0 -35 55 -57q53 -18 53 -59q0 -14 -24.5 -24.5t-44.5 -10.5h-207q-61 0 -62 35z" />
<glyph unicode="&#x439;" horiz-adv-x="1210" d="M53 31q0 43 51 53q49 12 50 84v1034q0 74 -50 86q-49 16 -49 60q0 33 62 32h205q70 0 69 -32q0 -39 -53 -62q-55 -23 -55 -57v-877l645 858q-2 70 -49 82q-49 16 -50 60q0 33 62 32h205q70 0 69 -32q0 -39 -53 -62q-55 -23 -55 -57v-1081q0 -35 55 -58q53 -18 53 -59 q0 -14 -24.5 -24.5t-44.5 -10.5h-207q-61 0 -62 35q0 43 52 53q49 12 49 84v840l-645 -858v-7q0 -35 55 -57q53 -18 53 -59q0 -14 -24.5 -24.5t-44.5 -10.5h-207q-61 0 -62 35zM391 1655q2 18 17.5 26.5t34 7.5t35 -10.5t16.5 -23.5q8 -53 38.5 -76t90.5 -23q59 0 92 23 t41 76q0 18 15 26.5t33.5 7.5t33 -10.5t14.5 -23.5q0 -92 -64.5 -148.5t-158.5 -56.5q-45 0 -88 13.5t-77 40t-53.5 64.5t-19.5 87z" />
<glyph unicode="&#x43a;" horiz-adv-x="1191" d="M61 35q0 43 56 53q55 12 55 84q-4 319 -4 575.5t2 454.5q0 72 -55 84q-53 16 -54 60q0 33 68 32h227q76 0 76 -32q0 -39 -59 -62t-60 -57v-332l424 365q6 8 6 14q0 8 -34 20q-31 12 -29 45t47 39h57h195q47 -4 47 -22q0 -10 -6 -49q-12 -16 -27 -17h-28q-23 -2 -58 -37 q-43 -43 -100 -98t-129 -121l342 -899q8 -33 74 -51q57 -14 57 -55q0 -29 -90 -29h-223q-29 0 -38 6t-9 35q0 10 34 33q37 25 37 61q-72 231 -301 817q-35 -29 -97.5 -77t-150.5 -119v-604q0 -35 60 -58q59 -18 59 -59q0 -14 -26.5 -24.5t-49.5 -10.5h-227q-68 0 -68 35z " />
<glyph unicode="&#x43b;" horiz-adv-x="1128" d="M25 143q0 41 27.5 73t62.5 32q8 0 12 -6t0 -13q-6 -8 -9 -24.5t-1 -32.5t11 -26.5t28 -4.5q8 2 15 13.5t16.5 49.5t21.5 109.5t32.5 194.5t49 305t71.5 442l-30 -2q-68 0 -86.5 19.5t-18.5 48.5q0 59 119 59h582q129 0 129 -63q0 -61 -101 -62v-1103q0 -18 18.5 -32 t41 -26t41 -25.5t18.5 -33.5q0 -14 -26.5 -24.5t-49.5 -10.5h-213q-68 0 -67 35q0 25 17.5 35t38 19t37.5 25.5t17 57.5v1088h-362q-41 -274 -68.5 -473t-49 -338.5t-39 -225.5t-38 -135t-47 -68.5t-65.5 -23.5q-66 -8 -100.5 32t-34.5 115z" />
<glyph unicode="&#x43c;" horiz-adv-x="1560" d="M49 35q0 23 43 33q45 8 58 63q51 211 111.5 488.5t129.5 627.5q-6 33 -49 39q-43 8 -43 35q0 41 18 51q10 8 54 8h198q61 -10 60 -41q-4 -25 -43 -36q-41 -12 -39 -46l239 -434l228 434q2 33 -39 46q-41 12 -43 36q-2 31 59 41h199q53 0 62.5 -14t9.5 -45q0 -27 -43 -35 q-43 -6 -50 -39q70 -350 130.5 -627.5t111.5 -488.5q12 -53 59 -63q41 -10 41 -33q0 -45 -45 -45q-141 2 -193 5t-36 3q-59 0 -59 37q0 23 55 45q49 18 41 51q4 0 -84 420q-78 362 -123 553q-6 -8 -156 -283q-106 -199 -133 -198q-25 0 -131 198l-153 283 q-47 -190 -123 -553q-88 -420 -84 -420q-8 -33 43 -53q53 -18 53 -43q0 -37 -59 -37q16 0 -36 -3t-194 -5q-45 0 -45 45z" />
<glyph unicode="&#x43d;" horiz-adv-x="1230" d="M41 41q0 37 51 55q53 18 55 45l91 1110q2 33 -41 43q-43 8 -43 39q0 47 79 47h74t68 -2q23 -2 38 -2t19 -2q18 -6 19 -31q0 -43 -43 -51q-43 -6 -46 -39l-28 -372h565l-31 372q-2 33 -45 39q-41 10 -41 51q0 25 19 31q10 2 60 4t136 2q80 0 80 -47q0 -31 -43 -39 q-43 -10 -41 -43l90 -1110q2 -27 54 -45q53 -18 53 -55t-27 -43q6 2 -53 2h-160h-63q-39 6 -39 47q0 47 51 55q53 10 57 39l-53 635h-573l-54 -635q4 -31 56 -39q53 -10 53 -55q0 -41 -41 -47h-61h-164q-57 0 -51 -2q-27 6 -27 43z" />
<glyph unicode="&#x43e;" horiz-adv-x="1185" d="M98 688q0 252 92 440q133 266 414 263q279 2 418 -263q98 -190 98 -440q0 -252 -96 -444q-135 -268 -416 -264q-281 -4 -413 264q-96 193 -97 444zM236 690q0 -266 92 -422q96 -164 272 -170q178 6 277 168q98 162 98 424q0 264 -94.5 420t-270.5 162q-90 -4 -159.5 -46 t-116.5 -117t-72.5 -181.5t-25.5 -237.5z" />
<glyph unicode="&#x43f;" horiz-adv-x="1210" d="M53 31q0 45 51 53q49 12 50 84v1034q0 74 -50 86q-49 14 -49 60q0 33 62 32h979q70 0 69 -32q0 -39 -53 -62q-55 -23 -55 -57v-1077q0 -37 55 -58q53 -18 53 -59q0 -14 -24.5 -24.5t-44.5 -10.5h-207q-61 0 -62 35q0 45 52 53q49 12 49 84l-2 1104l-643 -2v-1127 q0 -37 55 -57q53 -18 53 -59q0 -14 -24.5 -24.5t-44.5 -10.5h-207q-61 0 -62 35z" />
<glyph unicode="&#x440;" d="M61 49q0 51 60 62q59 10 59 43v1069q0 31 -14 39q-14 0 -21 2q-45 8 -60 19t-15 42q0 51 75 51h600q129 0 213 -98q78 -90 78 -213q0 -137 -102 -221q-90 -76 -217 -76h-410v-625q0 -20 31 -22q45 -2 55 -10q27 -16 25 -68q-2 -33 -84 -43h-94h-103q-76 8 -76 49z M313 881l258 -2q127 0 195 22q121 41 121 164q0 86 -49.5 141.5t-128.5 55.5h-396v-381z" />
<glyph unicode="&#x441;" horiz-adv-x="1024" d="M61 840q-2 123 38 224t110 175t165 115t206 41h32q57 0 136 -31q82 -29 69 -29q16 16 36.5 29.5t49.5 13.5q45 0 88 -270q0 -45 -39 -45q-25 0 -69 55q-31 35 -56.5 60.5t-48.5 40.5q-78 53 -176 53q-16 0 -30.5 -1t-28.5 -3q-80 -6 -145.5 -38t-111.5 -87.5t-72 -131 t-26 -167.5q-2 -160 55.5 -276.5t155 -215t223.5 -189.5t261 -198q14 -18 12 -41.5t-15.5 -41t-35 -23.5t-45.5 8q-154 117 -287 213t-232.5 201.5t-158 237.5t-60.5 321z" />
<glyph unicode="&#x442;" horiz-adv-x="1062" d="M31 1151q0 27 32 119q41 109 66 108h805q25 0 65 -108q33 -92 33 -119q0 -35 -35 -35q-18 0 -61 68q-39 70 -82 73q-33 4 -246 5v-1110q0 -37 58 -58q59 -23 59 -61q0 -33 -76 -33h-225q-68 0 -68 33q0 45 56 51q57 6 57 76v1102q-231 0 -260 -5q-43 -6 -82 -73 q-41 -68 -61 -68q-35 0 -35 35z" />
<glyph unicode="&#x443;" horiz-adv-x="1081" d="M12 1319q-2 51 80 51h197q78 0 84 -47q8 -53 -62 -55q-16 0 -25.5 -14.5t-4.5 -26.5l303 -746l276 717q14 35 4 56.5t-37 27.5q-49 14 -26 59q4 16 24.5 24.5t55.5 8.5h184q31 0 42 -12t7 -28.5t-18.5 -32t-32.5 -21.5q-35 -10 -43 -25.5t-19 -31.5l-311 -815 q-51 -137 -87 -218t-65.5 -124t-58 -55.5t-63.5 -14.5q-63 -4 -104.5 44t-30.5 124q4 41 38.5 68.5t65.5 27.5q8 0 11 -6t-1 -12q-6 -8 -10 -26.5t-2 -37t10 -31t27 -6.5q6 2 13 6.5t17.5 19.5t26 46t39.5 90q-25 57 -61.5 145.5t-76.5 185.5t-82 196.5t-76 182.5t-57.5 139 t-29.5 71q-6 18 -16 26q-6 14 -27 17q-41 4 -47 6q-25 8 -31 47z" />
<glyph unicode="&#x444;" horiz-adv-x="1380" d="M47 686q0 129 44 220t122 149.5t182.5 86t225.5 32.5v24q0 72 -56 84q-53 16 -53 59q0 33 68 33h225q76 0 76 -33q0 -39 -60 -61q-59 -23 -59 -57v-52q127 4 233.5 -18.5t183 -77.5t119.5 -146t43 -227q0 -129 -45 -222t-123.5 -154.5t-184 -93t-226.5 -33.5v-47 q0 -35 59 -58q60 -18 60 -59q0 -14 -27 -24.5t-49 -10.5h-227q-68 0 -68 35q0 43 55 53q55 12 56 84v31q-127 -4 -232.5 20.5t-181.5 83t-118 151.5t-42 228zM178 684q0 -92 33 -161.5t92 -116t140 -68t178 -16.5v722q-223 -4 -333 -97t-110 -263zM762 330q223 4 341 103.5 t118 271.5q0 92 -36 159.5t-97.5 110.5t-145.5 62.5t-180 15.5v-723z" />
<glyph unicode="&#x445;" horiz-adv-x="1236" d="M47 39q0 27 27 41q29 6 58.5 14t43.5 58q14 61 68 159l92 176q20 41 117 152q86 98 86 102q0 20 -64 117l-69 107q-33 59 -72 126.5t-86 145.5q-8 16 -74 39q-55 14 -55 49q0 41 88 41h211q20 0 40.5 -19.5t20.5 -33.5q0 -29 -37 -35q-35 -4 -39 -33l234 -399l135 160 q86 125 74 245q-10 14 -68 31q-45 12 -45 51q-2 33 33 37q10 2 231 2q92 0 93 -51q0 -33 -48 -43q-53 -12 -59 -23q-12 -23 -25 -73q-8 -35 -13 -54.5t-7 -25.5q-49 -145 -178 -297q-2 -4 -8 -8q-4 -4 -10.5 -9.5t-14.5 -11.5q-23 -18 -22 -28q0 -8 106 -185 q66 -106 109 -179t65 -114l45 -84q14 -27 28.5 -46t28.5 -34q6 -4 70 -18q49 -10 49 -53q0 -37 -65 -47h-78q-4 0 -23.5 1t-56.5 3q-41 2 -70.5 2t-46.5 2q-27 18 -26 43q0 27 39 39q41 12 51 28l-318 533q-4 0 -10 -2q-229 -229 -289 -533q8 -10 68 -24q45 -12 45 -53 q0 -45 -86 -45h-158q-72 0 -78 2q-57 8 -57 55z" />
<glyph unicode="&#x446;" horiz-adv-x="1185" d="M41 1346q0 35 61 34h207q20 0 45 -10t25 -24q0 -41 -53 -60q-55 -23 -56 -57l-2 -1118l613 -2v1095q0 72 -50 84q-51 8 -51 53q0 35 62 35h207q20 0 44.5 -10t24.5 -25q0 -41 -53 -59q-55 -23 -55 -57v-1106h84q27 0 65 -107q33 -90 33 -118q0 -35 -35 -35q-18 0 -61 67 q-41 72 -82 74h-910q-61 0 -61 33q0 43 49 59q49 12 49 86v1030q0 72 -49 84q-51 8 -51 54z" />
<glyph unicode="&#x447;" horiz-adv-x="1136" d="M35 1325q0 45 76 45l237 2q23 0 45.5 -10t22.5 -25q0 -51 -62 -69q-61 -16 -61 -66v-131q0 -80 16.5 -123t52 -62.5t91 -21.5t131.5 0h262v334q0 72 -55 84q-53 16 -54 59q0 33 68 33h225q76 0 76 -33q0 -39 -59 -61q-59 -23 -60 -57v-1071q0 -35 60 -58q59 -18 59 -59 q0 -14 -26.5 -24.5t-49.5 -10.5h-227q-68 0 -68 35q0 43 56 53q55 12 55 84v563h-250q-104 -2 -185 4t-137.5 39t-87 97.5t-30.5 179.5v155q0 57 -62 68q-59 10 -59 47z" />
<glyph unicode="&#x448;" horiz-adv-x="1910" d="M43 1339q0 35 61 35h205q20 0 45 -10t25 -25q0 -41 -53 -59q-55 -23 -56 -57v-1112h613v1097q0 72 -49 84q-51 8 -52 54q0 35 62 34h205q20 0 44.5 -10t24.5 -24q0 -41 -53 -60q-55 -23 -55 -57v-1118l612 -2v1095q0 72 -49 84q-51 8 -51 53q0 35 61 35h207q20 0 45 -10 t25 -25q0 -41 -54 -59q-55 -23 -55 -57v-1047q0 -74 49 -86q49 -16 49 -59q0 -33 -61 -33h-1682q-61 0 -61 33q0 43 49 59q49 12 49 86v1024q0 72 -49 84q-51 8 -51 53z" />
<glyph unicode="&#x449;" horiz-adv-x="1927" d="M43 1339q0 35 61 35h205q20 0 45 -10t25 -25q0 -41 -53 -59q-55 -23 -56 -57v-1112h613v1097q0 72 -49 84q-51 8 -52 54q0 35 62 34h205q20 0 44.5 -10t24.5 -24q0 -41 -53 -60q-55 -23 -55 -57v-1118l612 -2v1095q0 72 -49 84q-51 8 -51 53q0 35 61 35h207q20 0 45 -10 t25 -25q0 -41 -54 -59q-55 -23 -55 -57v-1106h84q27 0 66 -107q33 -90 32 -118q0 -35 -35 -35q-18 0 -61 67q-41 72 -82 74h-1649q-61 0 -61 33q0 43 49 59q49 12 49 86v1024q0 72 -49 84q-51 8 -51 53z" />
<glyph unicode="&#x44a;" horiz-adv-x="1355" d="M18 1143q0 27 33 119q41 108 66 108l434 2q100 0 102 -45q2 -16 -12 -25.5t-31.5 -17.5t-34 -17.5t-18.5 -23.5v-360h125h102t68 -1t18 -1q113 -2 195 -41t134 -102.5t75.5 -143.5t21.5 -164q2 -84 -32.5 -162t-95 -137t-138.5 -95t-160 -36h-311h-143q-90 0 -94 53 q-4 35 36 51q37 10 68 5v1140h-229q-43 -6 -82 -73q-41 -68 -62 -68q-35 0 -35 35zM557 106h311q57 0 112.5 29t98.5 75t69 103.5t23 116.5q2 59 -14 118.5t-55 109t-100.5 81t-145.5 35.5l-299 2v-670z" />
<glyph unicode="&#x44b;" horiz-adv-x="1523" d="M59 1339q0 33 68 33h225q76 0 76 -33q0 -39 -70 -61q-59 -23 -59 -57v-2v-336h125h102t67.5 -1t18.5 -1q113 -2 195 -41t134 -102.5t75.5 -143.5t21.5 -164q2 -84 -32.5 -162t-95 -137t-138.5 -95t-160 -36h-311h-143q-90 0 -95 53q-4 35 37 51q37 10 68 5v1087 q0 72 -55 84q-53 16 -54 59zM299 106h311q57 0 112.5 29t98.5 75t68.5 103.5t23.5 116.5q2 59 -14 118.5t-55 109t-100.5 81t-145.5 35.5l-299 2v-670zM1106 35q0 43 55 53q55 12 56 84v1028q0 72 -56 84q-53 16 -53 59q0 33 68 33h206q76 0 76 -33q0 -39 -59 -61 q-59 -23 -60 -57v-1073q0 -35 60 -58q59 -18 59 -59q0 -14 -26.5 -24.5t-49.5 -10.5h-208q-68 0 -68 35z" />
<glyph unicode="&#x44c;" d="M59 1339q0 33 68 33h225q76 0 76 -33q0 -39 -70 -61q-59 -23 -59 -57v-2v-336h125h102t67.5 -1t18.5 -1q113 -2 195 -41t134 -102.5t75.5 -143.5t21.5 -164q2 -84 -32.5 -162t-95 -137t-138.5 -95t-160 -36h-311h-143q-90 0 -95 53q-4 35 37 51q37 10 68 5v1087 q0 72 -55 84q-53 16 -54 59zM299 106h311q57 0 112.5 29t98.5 75t68.5 103.5t23.5 116.5q2 59 -14 118.5t-55 109t-100.5 81t-145.5 35.5l-299 2v-670z" />
<glyph unicode="&#x44d;" horiz-adv-x="1032" d="M53 1108q43 270 88 270q27 0 47.5 -13t36.5 -30q2 4 72 29q76 31 135 31q281 0 426 -228q117 -182 117 -450q0 -365 -129 -552.5t-389 -176.5q-80 2 -152 29.5t-127 71.5t-87 101.5t-32 120.5q0 43 33 43q14 0 60 -63q61 -84 127.5 -134.5t166.5 -50.5q131 0 214 56.5 t128 171.5q51 133 52 389v26.5t-2 26.5h-344q-72 0 -107 -67q-37 -68 -59 -68q-39 0 -39 33v289q0 37 39 36q16 0 30 -30q10 -20 19.5 -34.5t19.5 -23.5q35 -31 97 -30h333q-16 98 -51 172q-98 217 -334 219q-98 0 -176 -53q-23 -14 -48 -40t-56 -61q-47 -55 -70 -55 q-39 0 -39 45z" />
<glyph unicode="&#x44e;" horiz-adv-x="1531" d="M53 31q0 43 51 53q49 12 50 84v1034q0 74 -50 86q-49 16 -49 60q0 33 62 32h205q70 0 69 -32q0 -39 -53 -62q-55 -23 -55 -57v-348h178q23 135 78 247q133 266 413 263q279 2 418 -263q98 -190 98 -440q0 -252 -96 -444q-135 -268 -416 -264q-281 -4 -413 264 q-96 193 -97 444q0 45 3 88h-166v-629q0 -35 55 -57q53 -18 53 -59q0 -14 -24.5 -24.5t-44.5 -10.5h-207q-61 0 -62 35zM584 690q0 -266 92 -422q96 -164 272 -170q178 6 277 168q98 162 98 424q0 264 -94 420t-271 162q-90 -4 -159.5 -46t-116.5 -117t-72.5 -181.5 t-25.5 -237.5z" />
<glyph unicode="&#x44f;" horiz-adv-x="1093" d="M57 70q4 27 74 34q68 8 80 54q-2 8 96 299l105 319q-92 6 -164 37q-164 74 -168 256q-4 139 84 223t235 84l545 2q84 0 84 -45q0 -18 -47 -35q-45 -12 -55 -36v-513t2 -563q2 -53 30 -75q29 -10 55.5 -21.5t24.5 -46.5q-2 -37 -82 -43h-96q-164 -10 -180 27q0 63 59 75 q57 12 58 95v575h-258q-86 -256 -142.5 -431t-85.5 -280q4 -25 -14 -43t-45 -18h-164q-10 0 -21.5 30t-9.5 40zM213 1053q0 -102 135 -148q80 -27 178 -26l271 4v387h-389q-98 0 -152 -68q-43 -59 -43 -149z" />
<glyph unicode="&#x451;" d="M61 33q0 33 37 49q57 20 62 24v1162q-35 14 -67 28.5t-32 42.5q0 33 74 33h756q82 -94 82 -149q0 -66 -25 -66q-12 0 -71 57q-57 57 -132 58h-434v-367h471q63 0 101 31q18 12 45 57q20 31 35 31q10 0 24 -13.5t14 -23.5v-289q0 -8 -14 -20t-24 -12q-27 0 -52 67 q-20 70 -69 70l-535 -2v-695l475 -2q51 0 123 64q78 66 92 65q39 1 39 -32q0 -27 -49 -115q-25 -45 -40 -68.5t-19 -27.5h-834q-12 0 -22.5 17.5t-10.5 25.5zM295 1552q0 33 23.5 56.5t56.5 23.5t56.5 -23.5t23.5 -56.5t-23.5 -56t-56.5 -23t-56.5 23.5t-23.5 55.5z M590 1552q0 33 23.5 56.5t56.5 23.5q35 0 58.5 -23.5t23.5 -56.5t-23.5 -56t-58.5 -23q-33 0 -56.5 23.5t-23.5 55.5z" />
<glyph unicode="&#x454;" horiz-adv-x="1032" d="M53 717q0 268 117 450q143 227 426 228q57 0 135 -31q70 -25 72 -29q16 16 36.5 29.5t47.5 13.5q45 0 88 -270q0 -45 -39 -45q-25 0 -70 55q-31 35 -56.5 60.5t-47.5 40.5q-78 53 -176 53q-236 -2 -334 -219q-35 -74 -51 -172h334q61 0 96 30q10 8 19 22.5t20 35.5 q14 31 30 30q39 0 39 -36v-289q0 -33 -39 -33q-23 0 -59 68q-35 68 -106 67h-345q-2 -14 -2 -26.5v-26.5q0 -252 54 -389q45 -115 128 -171.5t214 -56.5q100 0 166.5 50.5t128.5 134.5q45 63 59 63q33 0 33 -43q0 -63 -32 -120.5t-87 -101.5t-127 -71.5t-152 -29.5 q-260 -10 -390 177t-130 552z" />
<glyph unicode="&#x456;" horiz-adv-x="448" d="M35 33q0 43 55 53q55 12 55 84v1028q0 72 -55 84q-53 16 -53 59q0 33 67 33h207q76 0 76 -33q0 -39 -59 -61q-59 -23 -60 -57v-1073q0 -35 60 -58q59 -18 59 -59q0 -14 -26.5 -24.5t-49.5 -10.5h-209q-68 0 -67 35z" />
<glyph unicode="&#x457;" horiz-adv-x="483" d="M61 1552q0 33 24 56.5t56 23.5q33 0 56.5 -23.5t23.5 -56.5t-23.5 -56t-56.5 -23t-56.5 23.5t-23.5 55.5zM74 35q0 43 55 53q59 12 55 84v1026q0 72 -55 84q-53 16 -53 59q0 33 67 33h213q76 0 76 -33q0 -39 -59 -61q-59 -23 -60 -57q2 -1026 0 -1071q0 -35 60 -58 q59 -18 59 -59q0 -14 -25.5 -24.5t-50.5 -10.5h-215q-68 0 -67 35zM297 1552q0 33 22.5 56.5t57.5 23.5q33 0 56.5 -23.5t23.5 -56.5t-23.5 -56t-56.5 -23q-35 0 -57.5 23.5t-22.5 55.5z" />
<glyph unicode="&#x462;" horiz-adv-x="1306" d="M0 983q0 14 8 32.5t25 65.5q41 109 65 109h279v6q0 72 -55 84q-53 16 -54 59q0 33 68 33h225q76 0 76 -33q0 -41 -70 -61q-59 -23 -59 -57v-31h278q25 0 66 -109q16 -47 24.5 -65.5t8.5 -32.5q0 -35 -35 -35q-18 0 -62 68q-20 35 -39.5 43t-41.5 10q-10 0 -60.5 1 t-138.5 3v-190h125h102t67.5 -1t18.5 -1q113 -2 195 -41t134 -102.5t75.5 -143.5t21.5 -164q2 -84 -32.5 -162t-95 -137t-138.5 -95t-160 -36h-454q-90 0 -95 53q-4 35 37 51q37 10 68 5v964h-170l-29 -4q-23 -4 -42 -11t-40 -42q-41 -68 -61 -68q-35 0 -35 35zM508 106h311 q57 0 112.5 29t98.5 75t68.5 103.5t23.5 116.5q2 59 -14 118.5t-55 109t-100.5 81t-145.5 35.5l-299 2v-670z" />
<glyph unicode="&#x463;" horiz-adv-x="1306" d="M0 983q0 14 8 32.5t25 65.5q41 109 65 109h279v6q0 72 -55 84q-53 16 -54 59q0 33 68 33h225q76 0 76 -33q0 -41 -70 -61q-59 -23 -59 -57v-31h278q25 0 66 -109q16 -47 24.5 -65.5t8.5 -32.5q0 -35 -35 -35q-18 0 -62 68q-20 35 -39.5 43t-41.5 10q-10 0 -60.5 1 t-138.5 3v-190h125h102t67.5 -1t18.5 -1q113 -2 195 -41t134 -102.5t75.5 -143.5t21.5 -164q2 -84 -32.5 -162t-95 -137t-138.5 -95t-160 -36h-454q-90 0 -95 53q-4 35 37 51q37 10 68 5v964h-170l-29 -4q-23 -4 -42 -11t-40 -42q-41 -68 -61 -68q-35 0 -35 35zM508 106h311 q57 0 112.5 29t98.5 75t68.5 103.5t23.5 116.5q2 59 -14 118.5t-55 109t-100.5 81t-145.5 35.5l-299 2v-670z" />
<glyph unicode="&#x472;" horiz-adv-x="1153" d="M63 688q0 162 36 292t101.5 221t161 140.5t213.5 49.5q117 0 211.5 -53.5t161 -146.5t102 -222t35.5 -281q0 -158 -35.5 -289t-102 -224t-163 -144t-217.5 -51q-119 0 -212 53t-157.5 148t-99.5 224.5t-35 282.5zM201 651q6 -256 101 -401.5t263 -151.5q86 2 153.5 44 t115 115t74 173t30.5 221h-737zM201 754h737q-10 238 -103.5 375t-259.5 143q-168 -8 -265 -144.5t-109 -373.5z" />
<glyph unicode="&#x473;" horiz-adv-x="1153" d="M63 688q0 162 36 292t101.5 221t161 140.5t213.5 49.5q117 0 211.5 -53.5t161 -146.5t102 -222t35.5 -281q0 -158 -35.5 -289t-102 -224t-163 -144t-217.5 -51q-119 0 -212 53t-157.5 148t-99.5 224.5t-35 282.5zM201 651q6 -256 101 -401.5t263 -151.5q86 2 153.5 44 t115 115t74 173t30.5 221h-737zM201 754h737q-10 238 -103.5 375t-259.5 143q-168 -8 -265 -144.5t-109 -373.5z" />
<glyph unicode="&#x490;" horiz-adv-x="907" d="M35 33q0 35 55 51q55 18 55 55v1110q0 18 -49 31q-51 16 -47 53q2 45 103 45h589q41 0 109 62q35 31 57.5 58.5t26.5 27.5q29 0 29 -35q-27 -98 -56.5 -158.5t-54.5 -60.5h-571l2 -1137q0 -18 53 -41t53 -63q0 -31 -61 -31h-236q-57 0 -57 33z" />
<glyph unicode="&#x491;" horiz-adv-x="907" d="M35 33q0 35 55 51q55 18 55 55v1110q0 18 -49 31q-51 16 -47 53q2 45 103 45h589q41 0 109 62q35 31 57.5 58.5t26.5 27.5q29 0 29 -35q-27 -98 -56.5 -158.5t-54.5 -60.5h-571l2 -1137q0 -18 53 -41t53 -63q0 -31 -61 -31h-236q-57 0 -57 33z" />
<glyph unicode="&#x2000;" horiz-adv-x="844" />
<glyph unicode="&#x2001;" horiz-adv-x="1689" />
<glyph unicode="&#x2002;" horiz-adv-x="844" />
<glyph unicode="&#x2003;" horiz-adv-x="1689" />
<glyph unicode="&#x2004;" horiz-adv-x="563" />
<glyph unicode="&#x2005;" horiz-adv-x="422" />
<glyph unicode="&#x2006;" horiz-adv-x="281" />
<glyph unicode="&#x2007;" horiz-adv-x="281" />
<glyph unicode="&#x2008;" horiz-adv-x="211" />
<glyph unicode="&#x2009;" horiz-adv-x="337" />
<glyph unicode="&#x200a;" horiz-adv-x="93" />
<glyph unicode="&#x2010;" horiz-adv-x="571" d="M61 479v113h449v-113h-449z" />
<glyph unicode="&#x2011;" horiz-adv-x="571" d="M61 479v113h449v-113h-449z" />
<glyph unicode="&#x2012;" horiz-adv-x="571" d="M61 479v113h449v-113h-449z" />
<glyph unicode="&#x2013;" horiz-adv-x="755" d="M61 520v113h633v-113h-633z" />
<glyph unicode="&#x2014;" horiz-adv-x="1574" d="M61 520v113h1452v-113h-1452z" />
<glyph unicode="&#x2018;" horiz-adv-x="317" d="M61 1126q0 82 37 168q45 104 117 105q10 0 10 -15l-39 -36q-31 -35 -41 -105l15 2q41 6 68.5 -33t27.5 -86q0 -45 -26.5 -81.5t-69.5 -36.5t-71 36.5t-28 81.5z" />
<glyph unicode="&#x2019;" horiz-adv-x="317" d="M61 1282q0 45 28 81t71 36t69.5 -37t26.5 -80q0 -86 -37 -168q-45 -106 -115 -106q-12 0 -12 14l39 37q31 35 41 104h-12q-43 0 -71 37t-28 82z" />
<glyph unicode="&#x201a;" horiz-adv-x="317" d="M61 115q0 45 28 80.5t71 35.5t69.5 -36.5t26.5 -79.5q0 -86 -37 -168q-45 -106 -115 -107q-12 0 -12 15l39 36q31 35 41 105h-12q-43 0 -71 37t-28 82z" />
<glyph unicode="&#x201c;" horiz-adv-x="604" d="M61 1126q0 82 37 168q45 104 117 105q10 0 10 -15l-39 -36q-31 -35 -41 -105l15 2q41 6 68.5 -33t27.5 -86q0 -45 -26.5 -81.5t-69.5 -36.5t-71 36.5t-28 81.5zM348 1126q0 82 37 168q45 104 117 105q10 0 10 -15l-39 -36q-31 -35 -41 -105l14 2q41 6 69 -33t28 -86 q0 -45 -27 -81.5t-70 -36.5t-70.5 36.5t-27.5 81.5z" />
<glyph unicode="&#x201d;" horiz-adv-x="604" d="M61 1282q0 45 28 81t71 36t69.5 -37t26.5 -80q0 -86 -37 -168q-45 -106 -117 -106q-10 0 -10 14l39 37q31 35 41 104h-12q-43 0 -71 37t-28 82zM348 1282q0 45 27.5 81t70.5 36t70 -37t27 -80q0 -86 -37 -168q-45 -106 -115 -106q-12 0 -12 14l39 37q31 35 41 104h-13 q-43 0 -70.5 37t-27.5 82z" />
<glyph unicode="&#x201e;" horiz-adv-x="604" d="M61 115q0 45 28 80.5t71 35.5t69.5 -36.5t26.5 -79.5q0 -86 -37 -168q-45 -106 -117 -107q-10 0 -10 15l39 36q31 35 41 105h-12q-43 0 -71 37t-28 82zM348 115q0 45 27.5 80.5t70.5 35.5t70 -36.5t27 -79.5q0 -86 -37 -168q-45 -106 -115 -107q-12 0 -12 15l39 36 q31 35 41 105h-13q-43 0 -70.5 37t-27.5 82z" />
<glyph unicode="&#x2022;" horiz-adv-x="630" d="M61 639q0 104 74 178q76 76 180 76t179 -76q75 -74 75 -178t-75 -180q-74 -74 -179 -74q-104 0 -180 74q-74 76 -74 180z" />
<glyph unicode="&#x2026;" horiz-adv-x="1177" d="M61 121q0 49 29 83t70 34t68.5 -34t27.5 -83t-28.5 -84t-67.5 -35q-41 0 -70 35t-29 84zM492 121q0 49 28.5 83t69.5 34t68.5 -34t27.5 -83t-28.5 -84t-67.5 -35q-41 0 -69.5 35t-28.5 84zM922 121q0 49 28.5 83t69.5 34t68.5 -34t27.5 -83t-28.5 -84t-67.5 -35 q-41 0 -69.5 35t-28.5 84z" />
<glyph unicode="&#x202f;" horiz-adv-x="337" />
<glyph unicode="&#x2039;" horiz-adv-x="397" d="M61 440v78l275 291l-4 -96l-111 -232l111 -221l4 -104z" />
<glyph unicode="&#x203a;" horiz-adv-x="397" d="M61 156l2 104l113 221l-113 232l-2 96l275 -291v-78z" />
<glyph unicode="&#x205f;" horiz-adv-x="422" />
<glyph unicode="&#x2122;" horiz-adv-x="940" d="M61 1296v60h322v-60h-133v-342h-55v342h-134zM459 954v402h94l113 -289l118 289h95v-402h-58v342h-2l-135 -342h-37l-131 342h-2v-342h-55z" />
<glyph unicode="&#x2202;" horiz-adv-x="104" />
<glyph unicode="&#x221a;" horiz-adv-x="473" d="M61 39q0 25 48 43q47 23 47 61v316l-56 -39q-2 -2 -6 -2q-27 0 -26 35v65q0 12 32 33l56 39v643q0 41 -47 59t-48 43q0 39 54 39h79.5t57.5 2h-2h2q23 0 32 -17.5t7 -31.5l-12 -27q-6 -12 -7 -67v-561l107 73q2 2 6 3q27 0 27 -35v-64q0 -12 -33 -33l-107 -75v-394 q0 -53 50 -67q49 -14 51 -29q4 -14 -7.5 -31.5t-33.5 -17.5h-217q-53 0 -54 37zM250 1376h2h-2z" />
<glyph unicode="&#x25fc;" horiz-adv-x="1372" d="M0 0v1372h1372v-1372h-1372z" />
</font>
</defs>
</svg>
