<?xml version="1.0" standalone="no"?>
<!DOCTYPE svg PUBLIC "-//W3C//DTD SVG 1.1//EN" "http://www.w3.org/Graphics/SVG/1.1/DTD/svg11.dtd" >
<svg xmlns="http://www.w3.org/2000/svg" xmlns:xlink="http://www.w3.org/1999/xlink" version="1.1">
<metadata>
Created by FontForge 20170731 at Wed Feb  2 07:46:49 1927
 By Aleksey,,,
Copyright (C) 1993, Teslefantic. All rights reserved.
</metadata>
<defs>
<font id="Uk_Antique" horiz-adv-x="280" >
  <font-face 
    font-family="Uk_Antique"
    font-weight="400"
    font-stretch="normal"
    units-per-em="1000"
    panose-1="0 0 0 0 0 0 0 0 0 0"
    ascent="800"
    descent="-200"
    x-height="462"
    cap-height="700"
    bbox="-14 -232 1348 882"
    underline-thickness="56"
    underline-position="-316"
    unicode-range="U+0020-2122"
  />
<missing-glyph horiz-adv-x="768" 
d="M48 0v768h672v-768h-672zM672 48v672h-576v-672h576z" />
    <glyph glyph-name=".notdef" horiz-adv-x="768" 
d="M48 0v768h672v-768h-672zM672 48v672h-576v-672h576z" />
    <glyph glyph-name=".null" horiz-adv-x="0" 
 />
    <glyph glyph-name="nonmarkingreturn" horiz-adv-x="351" 
 />
    <glyph glyph-name="space" unicode=" " horiz-adv-x="351" 
 />
    <glyph glyph-name="exclam" unicode="!" 
d="M163 182h-45q0 101 -2 141q-5 54 -10 114t-10 107t-5 71q0 40 6 61q11 38 43 38q31 0 42 -36q7 -23 7 -63q0 -32 -5.5 -83.5t-10 -103.5t-7.5 -105t-3 -103v-38zM91 35q0 24 16 36.5t33 12.5q19 0 34 -14t15 -35t-14 -35t-35 -14q-17 0 -31 11q-18 14 -18 38z" />
    <glyph glyph-name="quotedbl" unicode="&#x22;" horiz-adv-x="395" 
d="M145 714l-28 -221h-39l-28 221h95zM322 714l-29 -221h-38l-29 221h96z" />
    <glyph glyph-name="numbersign" unicode="#" horiz-adv-x="910" 
d="M772 231l-16 -63h-168l-45 -168h-63l45 168h-238l-45 -168h-63l45 168h-168l16 63h168l64 238h-168l17 63h168l45 168h63l-45 -168h238l45 168h63l-45 -168h169l-17 -63h-169l-64 -238h168zM367 469l-64 -238h238l64 238h-238z" />
    <glyph glyph-name="dollar" unicode="$" horiz-adv-x="700" 
d="M334 -98v84q-55 0 -106.5 21.5t-89.5 57.5q-18 15 -29 34.5t-11 40.5q0 26 14.5 41.5t33.5 15.5q26 0 41.5 -16.5t21.5 -51.5q7 -53 50 -80q33 -21 75 -21v301q-122 60 -162 106q-36 42 -36 93q0 63 48 116q56 61 150 70v56h42v-56q69 -7 123 -37q63 -36 63 -84t-44 -48
q-17 0 -30 10t-22.5 41t-31.5 49.5t-58 24.5v-252q77 -39 114 -64q54 -36 81 -77q31 -46 31 -104q0 -76 -68.5 -131.5t-157.5 -55.5v-84h-42zM334 436v236q-50 0 -87 -29t-37 -70q0 -40 28.5 -74t95.5 -63zM376 311v-283q60 6 101 37q48 36 48 95q0 49 -33.5 81.5
t-115.5 69.5z" />
    <glyph glyph-name="percent" unicode="%" horiz-adv-x="1044" 
d="M126 580q0 65 41 119q49 64 129 64q75 0 125 -58q47 -54 47 -125t-47 -125q-50 -58 -125 -58q-79 0 -128 64q-42 55 -42 119zM212 605v-50q0 -67 21.5 -102t64.5 -35q47 0 68 49q16 37 16 89v48q0 66 -22 102t-62 36q-41 0 -63.5 -36t-22.5 -101zM296 -141l-40 19
l487 963l40 -21zM580 137q0 72 49 127t120 55q74 0 123 -58q46 -54 46 -125q0 -70 -46 -124q-50 -59 -123 -59q-70 0 -119.5 55.5t-49.5 128.5zM666 160v-49q0 -67 20.5 -102t62.5 -35q83 0 83 137v48q0 65 -22.5 102t-60.5 37q-33 0 -54 -26q-29 -35 -29 -112z" />
    <glyph glyph-name="ampersand" unicode="&#x26;" horiz-adv-x="710" 
d="M468 389h177v-25q-49 -7 -84 -61q-2 -3 -62 -123l48 -75q24 -37 53.5 -58.5t52.5 -21.5h12v-25h-145l-68 103h-4q-53 -63 -95 -88q-49 -29 -119 -29q-85 0 -135 47t-50 120q0 65 38 120q46 66 169 139q-29 40 -41 67q-16 35 -16 71q0 70 42 117t112 47q57 0 94 -39
q34 -36 34 -86q0 -54 -43 -99q-31 -32 -96 -67l133 -206q18 36 28 63.5t10 48.5q0 14 -10 22.5t-35 12.5v25zM297 493l27 -43q45 24 74.5 65.5t29.5 82.5q0 34 -22 54t-55 20q-37 0 -64.5 -20.5t-27.5 -62.5q0 -35 38 -96zM279 381l-8 -1q-63 -42 -96 -94t-33 -104
q0 -58 41 -94t106 -36q33 0 65 20q37 23 72 73z" />
    <glyph glyph-name="quotesingle" unicode="'" horiz-adv-x="219" 
d="M146 714l-29 -221h-38l-29 221h96z" />
    <glyph glyph-name="parenleft" unicode="(" horiz-adv-x="388" 
d="M299 819l19 -18q-63 -60 -98 -155q-44 -119 -44 -296q0 -192 50 -315q33 -81 92 -136l-19 -18q-124 104 -182 239q-47 110 -47 230q0 114 42 218q58 143 187 251z" />
    <glyph glyph-name="parenright" unicode=")" horiz-adv-x="388" 
d="M71 801l19 18q129 -107 186 -250q42 -105 42 -219q0 -122 -45 -229q-57 -135 -183 -240l-20 18q58 54 91 135q51 125 51 316t-50 314q-33 81 -91 137z" />
    <glyph glyph-name="asterisk" unicode="*" horiz-adv-x="526" 
d="M225 532q-6 13 -33 23t-49 10q-27 0 -37.5 7t-10.5 22q0 16 7 29.5t18 13.5q18 0 29.5 -7t21 -22.5t31 -34t36.5 -18.5q11 0 15 14v18l-3 30q-4 22 -13.5 36t-9.5 26q0 22 18 31q8 4 17 4q14 0 26 -10t12 -25q0 -18 -13.5 -34.5t-13.5 -57.5q0 -18 2 -25.5t13 -7.5
q13 0 36 19t33 36q7 13 18.5 20t30.5 7q12 0 18.5 -14.5t6.5 -29.5q0 -18 -14 -23t-34 -5q-15 0 -21.5 -1t-24.5 -9t-25 -13q-12 -9 -12 -23q0 -13 26.5 -22.5t55.5 -9.5q25 0 36.5 -7t11.5 -23q0 -20 -2 -26q-6 -17 -23 -17q-18 0 -29.5 7t-19.5 20q-13 22 -34 38.5
t-35 16.5q-11 0 -15 -14v-18l3 -30q3 -17 13.5 -34t10.5 -28q0 -16 -11.5 -25.5t-24.5 -9.5q-12 0 -24.5 9t-12.5 26q0 11 9.5 24.5t13.5 37.5l3 30v18q-3 15 -14 15q-14 0 -35 -16.5t-34 -38.5q-7 -12 -18.5 -19.5t-30.5 -7.5q-14 0 -19.5 9.5t-5.5 33.5q0 18 13.5 23.5
t34.5 5.5t49 11t33 22q3 7 0 13z" />
    <glyph glyph-name="plus" unicode="+" horiz-adv-x="672" 
d="M371 84h-70v231h-231v70h231v231h70v-231h231v-70h-231v-231z" />
    <glyph glyph-name="comma" unicode="," 
d="M108 -143l-14 15q24 22 37.5 41.5t17.5 44.5v19q-3 13 -10 17.5t-21.5 6.5t-24 14.5t-9.5 28.5q0 22 14 38t36 16q25 0 43.5 -21t18.5 -65q0 -50 -29 -94q-23 -35 -59 -61z" />
    <glyph glyph-name="hyphen" unicode="-" 
d="M42 213v63h196v-63h-196z" />
    <glyph glyph-name="period" unicode="." 
d="M91 35q0 19 14 34t35 15q19 0 34 -14t15 -35t-14 -35t-35 -14q-19 0 -34 14t-15 35z" />
    <glyph glyph-name="slash" unicode="/" horiz-adv-x="781" 
d="M166 -141l-40 19l489 963l40 -21z" />
    <glyph glyph-name="zero" unicode="0" horiz-adv-x="526" 
d="M26 348q0 174 74 275q67 91 164 91q96 0 162 -90q74 -101 74 -274q0 -152 -58 -252q-65 -112 -178 -112q-115 0 -180 112q-58 100 -58 250zM264 672q-86 0 -121 -110q-25 -78 -25 -212q0 -188 51 -267q35 -55 94 -55q61 0 97 61q48 81 48 261q0 143 -27 221
q-35 101 -117 101z" />
    <glyph glyph-name="one" unicode="1" horiz-adv-x="526" 
d="M251 700h47v-577q0 -50 17.5 -73t60.5 -23v-27h-236v27q78 0 78 96v428q0 32 -8 43q-14 19 -64 19v25q39 5 65.5 19.5t39.5 42.5z" />
    <glyph glyph-name="two" unicode="2" horiz-adv-x="526" 
d="M414 0h-372v38q186 181 262 296q66 100 66 178q0 67 -36 112q-39 48 -105 48q-53 0 -89 -34q-32 -30 -32 -68q0 -19 10 -33q5 -7 21 -23q11 -11 18 -22q11 -17 11 -33q0 -18 -10.5 -29.5t-23.5 -11.5q-29 0 -49 25q-23 29 -23 83q0 83 58 135.5t136 52.5q88 0 147 -60
t59 -139q0 -59 -30 -112q-23 -41 -77 -97q-50 -50 -100 -99l-81 -81q-18 -19 -43 -50h201q28 0 49 10q35 17 55 63h24z" />
    <glyph glyph-name="three" unicode="3" horiz-adv-x="527" 
d="M302 388v-6q74 0 122 -58q44 -54 44 -130q0 -84 -61 -144q-65 -64 -164 -64q-82 0 -138.5 47.5t-56.5 110.5q0 34 15 52t34 18q14 0 25.5 -10.5t11.5 -27.5q0 -13 -2 -21t-12 -36q-6 -18 -6 -28q0 -30 41 -48q34 -15 76 -15q63 0 102 40q43 45 43 126q0 71 -32 112
q-36 46 -103 46h-27h-33v42h23q56 0 100 34q53 41 53 109q0 61 -33 98t-91 37q-48 0 -77 -21q-23 -17 -23 -35q0 -14 5 -25t5 -29t-8.5 -29.5t-24.5 -11.5q-19 0 -28.5 12t-9.5 30q0 53 50 100q54 51 129 51q70 0 126 -47.5t56 -120.5q0 -56 -36 -98t-95 -60z" />
    <glyph glyph-name="four" unicode="4" horiz-adv-x="528" 
d="M480 245v-42h-100v-78q0 -52 17.5 -75t62.5 -23v-27h-241v27q81 0 81 98v78h-272v20l296 477h56v-455h100zM300 245v336h-7l-201 -336h208z" />
    <glyph glyph-name="five" unicode="5" horiz-adv-x="527" 
d="M430 731l-42 -102h-240v-224q36 31 60 42t62 11q81 0 143 -65q66 -69 66 -168q0 -96 -67.5 -167.5t-169.5 -71.5q-74 0 -126 42q-57 46 -57 119q0 31 15.5 54.5t38.5 23.5q15 0 24.5 -10.5t9.5 -26.5q0 -13 -3 -21.5t-10.5 -23.5t-10.5 -24t-3 -20q0 -30 32.5 -50.5
t85.5 -20.5q82 0 120 69q29 52 29 128q0 113 -52 161q-33 30 -80 30q-37 0 -71.5 -19.5t-40.5 -54.5h-37v358h203l28 1q20 0 32 4q20 7 34 26h27z" />
    <glyph glyph-name="six" unicode="6" horiz-adv-x="527" 
d="M141 382q33 34 70 48t75 14q76 0 134 -59q62 -63 62 -153q0 -108 -60 -177t-152 -69q-114 0 -173 114q-49 94 -49 226q0 183 77 291q69 97 167 97q55 0 100 -31.5t45 -72.5q0 -24 -9 -34t-23 -10q-22 0 -36 20q-7 11 -12 28q-8 31 -23 43q-18 15 -46 15q-81 0 -117 -86
q-30 -72 -30 -204zM273 402q-48 0 -81 -31q-51 -48 -51 -160q0 -88 34.5 -135.5t94.5 -47.5q67 0 97 64q23 50 23 135q0 98 -38 141q-30 34 -79 34z" />
    <glyph glyph-name="seven" unicode="7" horiz-adv-x="527" 
d="M107 700h372v-47q-69 -86 -116.5 -174t-77.5 -187q-18 -57 -34.5 -146.5t-16.5 -145.5h-90l14 65q14 74 32 134q30 98 78 194q59 118 147 231h-216q-29 0 -53 -11q-37 -17 -63 -58h-24z" />
    <glyph glyph-name="eight" unicode="8" horiz-adv-x="526" 
d="M330 395v-6q68 -32 103 -76q40 -50 40 -120q0 -85 -56 -144q-59 -63 -151 -63q-87 0 -148 53q-65 57 -65 146q0 64 40 112q37 44 108 74v6q-54 17 -85 59.5t-31 96.5q0 73 49.5 127t129.5 54q76 0 126 -49t50 -116q0 -43 -22 -79q-28 -46 -88 -75zM303 408q43 27 64 71
q16 33 16 65q0 52 -29 88q-33 40 -90 40q-58 0 -90 -33q-27 -27 -27 -63q0 -50 47 -95q36 -34 109 -73zM228 352q-56 -30 -83.5 -79t-27.5 -101q0 -62 45 -103t105 -41q70 0 111 47q34 39 34 85q0 76 -78 130q-13 9 -106 62z" />
    <glyph glyph-name="nine" unicode="9" horiz-adv-x="527" 
d="M387 319q-26 -27 -55 -42q-41 -21 -90 -21q-78 0 -136 59q-61 62 -61 153q0 106 59 176t153 70q114 0 173 -114q49 -94 49 -226q0 -182 -78 -291q-70 -97 -166 -97q-52 0 -98.5 32t-46.5 72q0 23 9.5 33.5t23.5 10.5q16 0 28.5 -10.5t19.5 -39t24 -42.5t44 -14
q82 0 118 86q30 71 30 205zM255 298q53 0 87 38q45 50 45 153q0 89 -34.5 136t-95.5 47q-67 0 -96 -64q-23 -51 -23 -135q0 -68 19 -110q29 -65 98 -65z" />
    <glyph glyph-name="colon" unicode=":" 
d="M91 413q0 20 14.5 34.5t34.5 14.5q19 0 34 -14t15 -35t-14 -35t-35 -14q-20 0 -34.5 15.5t-14.5 33.5zM91 35q0 19 14 34t35 15q19 0 34 -14t15 -35t-14 -35t-35 -14q-19 0 -34 14t-15 35z" />
    <glyph glyph-name="semicolon" unicode=";" 
d="M98 413q0 20 14.5 34.5t34.5 14.5q19 0 34 -14t15 -35t-14 -35t-35 -14q-20 0 -34.5 15.5t-14.5 33.5zM108 -143l-14 15q24 22 37.5 41.5t17.5 44.5v19q-3 18 -21 22q-26 7 -33 14q-11 11 -11 31q0 22 14 38t36 16q25 0 43.5 -21t18.5 -65q0 -50 -29 -94q-23 -35 -59 -61
z" />
    <glyph glyph-name="less" unicode="&#x3c;" horiz-adv-x="672" 
d="M70 350l461 266l29 -54l-367 -212l367 -212l-29 -54z" />
    <glyph glyph-name="equal" unicode="=" horiz-adv-x="672" 
d="M70 413v70h532v-70h-532zM70 217v70h532v-70h-532z" />
    <glyph glyph-name="greater" unicode="&#x3e;" horiz-adv-x="672" 
d="M602 350l-461 -266l-29 54l367 212l-367 212l29 54z" />
    <glyph glyph-name="question" unicode="?" horiz-adv-x="484" 
d="M159 182v210q9 -2 57 -4t50 -2q29 0 50 35q16 27 16 63q0 66 -41 129t-86 63q-17 0 -29 -9q-6 -4 -17 -18t-17 -19q-12 -10 -26 -10q-15 0 -23.5 11t-8.5 37q0 21 30.5 33.5t63.5 12.5q78 0 147 -74q75 -80 75 -185q0 -82 -49 -123q-40 -33 -103 -33q-14 0 -22 1t-25 4
v-122h-42zM136 35q0 25 15.5 37t33.5 12q20 0 34.5 -14.5t14.5 -34.5t-15.5 -34.5t-33.5 -14.5t-32 11q-17 14 -17 38z" />
    <glyph glyph-name="at" unicode="@" horiz-adv-x="939" 
d="M736 568l-83 -275q-10 -33 -14.5 -54t-4.5 -30q0 -34 17 -51q13 -13 31 -13q66 0 126 72q68 81 68 197q0 153 -109 253q-112 103 -289 103q-182 0 -297 -136q-104 -123 -104 -282q0 -174 118 -298t286 -124q63 0 114 12q90 21 156 80l22 -28q-76 -56 -154 -80
q-63 -19 -135 -19q-212 0 -343 156q-113 134 -113 302q0 184 126 316q130 136 322 136q176 0 298 -97q137 -109 137 -294q0 -124 -66 -212q-69 -92 -173 -92q-32 0 -58 11q-37 15 -60 52q-36 -28 -68.5 -40.5t-72.5 -12.5q-71 0 -116 51t-45 138q0 107 71 188q78 89 196 89
q31 0 56 -11q35 -15 63 -54l15 47h83zM546 218l68 240q-8 45 -35.5 70.5t-61.5 25.5q-64 0 -116 -77.5t-52 -175.5q0 -72 16 -105q20 -40 69 -40q38 0 70 21q24 15 42 41z" />
    <glyph glyph-name="A" unicode="A" horiz-adv-x="691" 
d="M230 621v25q59 16 80 38q17 17 24 50h43l183 -599q17 -55 35 -75q22 -25 71 -33v-27h-236v27q38 0 52 10t14 29q0 8 -2 16l-7 28l-30 106h-250l-36 -106q-4 -10 -5 -23t-1 -26q0 -14 14 -22t38 -12v-27h-200v27q41 9 66.5 31.5t37.5 57.5l156 447q3 10 5 18t2 14
q0 13 -7.5 21t-24.5 8q-10 0 -22 -3zM441 258l-105 336l-5 1l-111 -337h221z" />
    <glyph glyph-name="B" unicode="B" horiz-adv-x="656" 
d="M45 700h301q119 0 174 -56q41 -42 41 -106t-43 -108q-39 -40 -101 -52l-2 -5q104 -15 154 -79q38 -49 38 -109q0 -74 -49 -124q-59 -61 -175 -61h-338v27q46 0 63 32q11 21 11 63v456q0 47 -17 71t-57 24v27zM199 385h124q90 0 128 51q27 36 27 95q0 80 -63 110
q-36 17 -95 17h-67q-32 0 -45 -17q-9 -12 -9 -29v-227zM199 343v-267q0 -21 24 -29q15 -5 40 -5h70q90 0 136 36t46 108q0 78 -46.5 117.5t-141.5 39.5h-128z" />
    <glyph glyph-name="C" unicode="C" horiz-adv-x="673" 
d="M590 551h-25q-20 54 -72.5 87.5t-112.5 33.5q-99 0 -163 -71q-76 -85 -76 -251q0 -134 61 -224q66 -98 178 -98q80 0 140 41t78 115h25l-6 -140q-41 -27 -98 -42.5t-123 -15.5h-16q-144 0 -241 115q-90 107 -90 247q0 141 92 246q106 121 282 121q51 0 90 -9.5t72 -26.5z
" />
    <glyph glyph-name="D" unicode="D" horiz-adv-x="733" 
d="M320 700q127 0 232 -68q138 -89 138 -251q0 -76 -30 -165q-35 -103 -113 -156q-88 -60 -230 -60h-272v27q40 0 57.5 23.5t17.5 71.5v456q0 47 -14 68q-18 27 -61 27v27h275zM200 586v-476q0 -44 16 -56t62 -12q164 0 239 74t75 226q0 191 -102 267q-66 49 -173 49h-57
q-40 0 -53 -25q-7 -14 -7 -47z" />
    <glyph glyph-name="E" unicode="E" horiz-adv-x="629" 
d="M535 700l22 -137h-25q-18 54 -73 78q-39 17 -84 17h-122q-28 0 -41 -11t-13 -40v-205h156q48 0 64 11q21 14 21 56h26v-179h-26v7q0 24 -16.5 43.5t-43.5 19.5h-181v-254q0 -44 19.5 -54t78.5 -10h76q67 0 109.5 23t72.5 77h25l-23 -142h-512v27q46 0 63 32q11 21 11 63
v456q0 44 -10 63q-17 32 -64 32v27h490z" />
    <glyph glyph-name="F" unicode="F" horiz-adv-x="573" 
d="M532 700l20 -137h-25q-15 38 -44 62q-41 33 -104 33h-126q-37 0 -50 -19q-8 -12 -8 -35v-202h145q36 0 55 15.5t19 51.5h26v-179h-26v14q0 28 -19 42t-55 14h-145v-238q0 -50 17.5 -72.5t59.5 -22.5v-27h-227v27q43 0 58 27q12 21 12 68v456q0 46 -12 67q-16 28 -58 28
v27h487z" />
    <glyph glyph-name="G" unicode="G" horiz-adv-x="752" 
d="M696 399v-27q-36 -5 -51.5 -25t-15.5 -61v-135q0 -45 14.5 -66t52.5 -25q-57 -29 -126 -49q-88 -25 -171 -25q-155 0 -252.5 100.5t-97.5 262.5q0 172 111 272q103 93 261 93q60 0 102 -9t82 -29l6 -126h-26q-20 59 -78 90.5t-121 31.5q-114 0 -177 -81q-68 -88 -68 -242
q0 -146 72 -236q68 -85 169 -85q111 0 148 45q19 23 19 66v126v16q0 17 -1.5 26.5t-8.5 27.5q-8 15 -21.5 24t-41.5 13v27h220z" />
    <glyph glyph-name="H" unicode="H" horiz-adv-x="762" 
d="M273 700v-27q-39 0 -56.5 -23.5t-17.5 -71.5v-179h365v179q0 49 -16.5 72t-57.5 23v27h227v-27q-45 0 -61 -30q-12 -22 -12 -65v-456q0 -56 20 -77q17 -18 53 -18v-27h-227v27q39 0 56.5 23.5t17.5 71.5v235h-365v-235q0 -49 16.5 -72t57.5 -23v-27h-228v27q47 0 63 30
q11 20 11 65v456q0 44 -11 64q-17 31 -63 31v27h228z" />
    <glyph glyph-name="I" unicode="I" horiz-adv-x="320" 
d="M45 700h230v-27q-48 0 -64 -31q-11 -21 -11 -64v-456q0 -44 10 -63q17 -32 65 -32v-27h-230v27q48 0 65 35q10 21 10 60v456q0 53 -18 74t-57 21v27z" />
    <glyph glyph-name="J" unicode="J" horiz-adv-x="473" 
d="M428 700v-27q-43 0 -59 -24t-16 -71v-383q0 -103 -39 -154q-42 -55 -127 -55q-55 0 -104 32q-55 36 -55 88q0 29 13.5 42.5t33.5 13.5t33 -16q17 -20 17 -62q0 -34 26 -48q15 -8 32 -8q45 0 67 25t22 76l1 40v409q0 47 -14 68q-18 27 -60 27v27h229z" />
    <glyph glyph-name="K" unicode="K" horiz-adv-x="639" 
d="M275 700v-27q-43 0 -59 -24t-16 -71v-260l241 266l17 22q7 7 12.5 17t5.5 18q0 14 -14.5 22.5t-33.5 8.5l-15 1v27h221v-27q-45 -6 -79 -30q-20 -14 -50 -47l-157 -171l188 -323l20 -30q15 -22 36.5 -33.5t46.5 -11.5v-27h-216v27h14q20 0 27 5.5t7 14.5q0 8 -8 25
q-4 8 -13 25l-159 267l-91 -100v-142q0 -47 14 -68q18 -27 61 -27v-27h-230v27q42 0 60 27q15 23 15 68v456q0 46 -14 68q-17 27 -61 27v27h230z" />
    <glyph glyph-name="L" unicode="L" horiz-adv-x="575" 
d="M54 700h219v-27q-73 0 -73 -86v-464q0 -45 10.5 -63t46.5 -18h88q67 0 110 20q50 24 80 80h26l-24 -142h-492v27q45 0 62 26q13 20 13 69v475q0 43 -24 62q-17 14 -42 14v27z" />
    <glyph glyph-name="M" unicode="M" horiz-adv-x="944" 
d="M304 700l153 -477h6l176 477h163v-27q-38 0 -52.5 -12.5t-14.5 -35.5q0 -7 0.5 -12t3.5 -20l87 -465q7 -39 18 -58q24 -43 70 -43h5v-27h-242v27q40 0 57.5 12t17.5 29q0 15 -3 32.5t-5 28.5l-87 456h-5l-191 -508h-39l-169 508h-4l-91 -459q-2 -12 -3.5 -20.5
t-1.5 -16.5q0 -29 13 -43q17 -19 59 -19v-27h-208v27q40 4 59.5 27t29.5 71l88 456q2 13 4 24.5t2 19.5q0 23 -12 34q-16 14 -52 14v27h168z" />
    <glyph glyph-name="N" unicode="N" horiz-adv-x="762" 
d="M717 700v-27q-49 -7 -65 -32q-9 -14 -9 -44v-13l-1 -15v-583h-55l-413 614h-6v-505q0 -31 23 -49.5t57 -18.5v-27h-203v27q48 0 66 28q15 23 15 71v456q0 51 -28 74q-21 17 -53 17v27h173l375 -570h7v435q0 66 -23 91q-15 16 -42 16l-15 1v27h197z" />
    <glyph glyph-name="O" unicode="O" horiz-adv-x="756" 
d="M49 361q0 179 121 277q94 76 207 76q68 0 137 -32q84 -39 133 -110q60 -87 60 -211q0 -184 -113 -288q-94 -87 -217 -87q-119 0 -213 86q-115 105 -115 289zM378 672q-88 0 -153 -66q-83 -84 -83 -247q0 -145 59 -235q63 -96 177 -96q123 0 186 111q51 90 51 220
q0 163 -83 247q-65 66 -154 66z" />
    <glyph glyph-name="P" unicode="P" horiz-adv-x="614" 
d="M198 264v-144q0 -93 80 -93v-27h-233v27q47 0 63 32q10 19 10 61v460q0 42 -10 61q-17 32 -63 32v27h295q141 0 202 -74q44 -53 44 -143q0 -126 -94 -181q-61 -36 -146 -36l-44 -2h-104zM198 579v-273h79q94 0 137 21q79 39 79 156q0 113 -76 153q-41 22 -112 22
q-75 0 -94 -15q-12 -9 -12 -42v-12z" />
    <glyph glyph-name="Q" unicode="Q" horiz-adv-x="756" 
d="M650 -72h24q-10 -44 -41 -73t-75 -29q-45 0 -84 33q-50 43 -74 127q-9 -1 -26 -1q-130 0 -224 99q-101 107 -101 277q0 179 121 277q94 76 208 76q121 0 215 -81q114 -98 114 -272q0 -121 -56 -218q-63 -109 -173 -140q12 -42 32 -71q31 -46 74 -46q17 0 36 12.5t30 29.5
zM282 151v25q8 3 18 4t19 1q55 0 85 -26.5t57 -107.5q71 30 112.5 114.5t41.5 203.5q0 155 -78 238q-65 69 -157 69q-83 0 -146 -56q-92 -82 -92 -257q0 -136 50 -223q62 -108 184 -108h12q-18 77 -35.5 100.5t-43.5 23.5z" />
    <glyph glyph-name="R" unicode="R" horiz-adv-x="642" 
d="M332 700q145 0 206 -80q39 -51 39 -123q0 -81 -53 -133q-42 -41 -105 -56l120 -206l20 -30q15 -22 36.5 -33.5t46.5 -11.5v-27h-223v27h13q23 0 34.5 4t11.5 16q0 9 -8.5 22.5t-17.5 27.5l-115 195q-7 -1 -12.5 -1h-7.5h-18t-21 1h-11q-28 0 -67 7v-177q0 -44 10 -63
q17 -32 65 -32v-27h-230v27q45 0 62 27q13 21 13 68v455q0 45 -16 66.5t-59 29.5v27h287zM200 609v-271q41 -6 75 -6q102 0 156 47.5t54 121.5q0 94 -70 133q-43 24 -106 24q-64 0 -86.5 -8.5t-22.5 -40.5z" />
    <glyph glyph-name="S" unicode="S" horiz-adv-x="620" 
d="M490 547h-25q-17 56 -71 90.5t-108 34.5q-57 0 -91.5 -27.5t-34.5 -74.5q0 -45 29 -77t146 -84.5t154 -83.5q61 -51 61 -137q0 -74 -52 -132q-63 -70 -170 -70q-67 0 -122.5 16t-128.5 53l-7 132h25q14 -64 79.5 -111.5t139.5 -47.5q71 0 115 36t44 92q0 77 -75 121
q-20 12 -89 42q-118 52 -162 93q-54 50 -54 128q0 77 57.5 125.5t152.5 48.5q41 0 84 -12t93 -41z" />
    <glyph glyph-name="T" unicode="T" horiz-adv-x="594" 
d="M182 0v27q42 0 58.5 22t16.5 71v470q0 43 -14 55.5t-46 12.5q-39 0 -73 -16q-48 -23 -82 -75h-25l30 133h500l30 -133h-25q-31 48 -71.5 69.5t-82.5 21.5q-33 0 -45 -10q-16 -14 -16 -58v-470q0 -47 17 -70t58 -23v-27h-230z" />
    <glyph glyph-name="U" unicode="U" horiz-adv-x="753" 
d="M708 700v-27q-47 0 -65 -32q-10 -18 -10 -49v-341q0 -98 -34 -158q-60 -107 -218 -107q-164 0 -225 92q-37 56 -37 161v339q0 44 -10 63q-17 32 -64 32v27h229v-27q-43 0 -59 -24t-16 -71v-348q0 -106 37 -151q42 -51 149 -51q133 0 180 94q26 52 26 145v305q0 52 -12 73
q-16 28 -62 28v27h191z" />
    <glyph glyph-name="V" unicode="V" horiz-adv-x="709" 
d="M241 700v-27l-15 -3q-20 0 -28 -9t-8 -19l5 -23l167 -503h6l169 453q3 9 8 22t5 23q0 27 -18 43t-42 16v27h202v-27q-35 0 -58.5 -20t-37.5 -57l-224 -610h-54l-208 605q-14 42 -35 60t-58 22v27h224z" />
    <glyph glyph-name="W" unicode="W" horiz-adv-x="955" 
d="M238 700v-27q-20 0 -32.5 -8.5t-12.5 -21.5q0 -14 1.5 -27t10.5 -41l141 -452h5l116 363l-28 102q-12 43 -31 62q-23 23 -62 23v27h225v-27q-34 -6 -45 -15.5t-11 -34.5q0 -5 2.5 -15.5t6.5 -24.5l130 -448h6l138 430l4 16l5 17q3 11 5 19t2 17q0 17 -12.5 28.5
t-29.5 11.5l-15 -1v27h181v-27h-6q-35 0 -60 -43q-12 -20 -28 -72l-187 -572h-43l-123 419h-5l-132 -419h-51l-180 586q-17 57 -49 82q-18 14 -45 18l-12 1v27h221z" />
    <glyph glyph-name="X" unicode="X" horiz-adv-x="700" 
d="M54 700h231v-27q-26 -2 -37 -5t-15 -11q-2 -4 0 -13q2 -8 19 -35l107 -173l114 162q16 22 19 28q9 15 9 23q0 10 -7 14t-20 6l-31 4v27h208v-27q-50 -9 -76 -23.5t-54 -54.5l-138 -197l187 -299q18 -30 36 -44q28 -22 73 -28v-27h-245v27q30 4 38 6q20 6 20 18
q0 13 -6.5 26.5t-19.5 34.5l-132 216l-139 -202q-16 -23 -23 -41q-2 -6 -4 -14q0 -19 12.5 -31.5t46.5 -12.5v-27h-206v27q28 8 53 27q35 26 66 72l167 245l-146 236q-19 29 -49 47.5t-58 18.5v27z" />
    <glyph glyph-name="Y" unicode="Y" horiz-adv-x="654" 
d="M223 0v27q38 0 56.5 18.5t18.5 66.5v184l-180 313q-20 35 -42.5 49.5t-58.5 14.5v27h229v-27q-33 0 -43.5 -5.5t-10.5 -17.5q0 -8 8 -26t14 -30l142 -241h5l125 238q4 7 13.5 31.5t9.5 30.5q0 12 -9.5 15t-33.5 5v27h171v-27l-21 -4q-26 -3 -36 -9q-17 -10 -37 -43
q-15 -25 -18.5 -32.5t-7.5 -15.5l-139 -277v-180q0 -40 10 -57q17 -28 65 -28v-27h-230z" />
    <glyph glyph-name="Z" unicode="Z" horiz-adv-x="656" 
d="M553 149h26l-47 -149h-487l421 658h-103q-82 0 -138 -19q-68 -23 -115 -78h-26l48 139h462l-419 -658h90q100 0 155 13q103 24 133 94z" />
    <glyph glyph-name="bracketleft" unicode="[" horiz-adv-x="316" 
d="M246 819v-25h-20q-51 0 -64 -9.5t-13 -54.5v-779q0 -29 16 -37t54 -8h27v-25h-176v938h176z" />
    <glyph glyph-name="backslash" unicode="\" horiz-adv-x="781" 
d="M616 -141l-490 961l40 21l489 -963z" />
    <glyph glyph-name="bracketright" unicode="]" horiz-adv-x="316" 
d="M70 819h176v-938h-176v25q68 0 82 8.5t14 36.5v798q0 32 -16 38.5t-61 6.5h-19v25z" />
    <glyph glyph-name="asciicircum" unicode="^" horiz-adv-x="398" 
d="M339 557l-14 -19q-42 23 -73 46q-32 26 -53 42q-75 -60 -125 -88l-15 18q37 23 73 63t57 81h21q19 -36 38 -60q12 -15 38 -40q14 -13 28 -25t25 -18z" />
    <glyph glyph-name="underscore" unicode="_" horiz-adv-x="532" 
d="M0 -70v70h532v-70h-532z" />
    <glyph glyph-name="grave" unicode="`" horiz-adv-x="279" 
d="M25 700h118l55 -143h-22z" />
    <glyph glyph-name="a" unicode="a" horiz-adv-x="480" 
d="M385 355v-273q0 -31 10.5 -46t37.5 -15h8v-21h-116v47h-4q-66 -38 -97.5 -48t-64.5 -10q-60 0 -89 39q-21 29 -21 69q0 73 105 128q39 20 110 48l61 25v13q0 63 -10 87q-17 39 -68 39q-60 0 -81 -42q-5 -10 -9.5 -31.5t-13.5 -32.5t-29 -11q-13 0 -22 8q-13 11 -13 32
q0 45 51 79t123 34q51 0 82 -18q50 -29 50 -100zM325 92v164q-124 -51 -163.5 -86.5t-39.5 -73.5q0 -24 17.5 -41.5t51.5 -17.5q30 0 71 19q31 14 63 36z" />
    <glyph glyph-name="b" unicode="b" horiz-adv-x="509" 
d="M155 722v-314q22 29 54.5 47t74.5 18q77 0 126.5 -66t49.5 -163t-48 -171q-55 -84 -147 -84q-31 0 -53.5 8t-63.5 44h-5l-26 -52h-22v607q0 25 -9 37t-31 12h-10v21q29 8 46 19q21 14 37 37h27zM155 345v-223q0 -47 33 -74q28 -23 75 -23q75 0 105 82q19 51 19 132
q0 93 -35 145.5t-89 52.5q-37 0 -72.5 -29.5t-35.5 -62.5z" />
    <glyph glyph-name="c" unicode="c" horiz-adv-x="468" 
d="M404 94l22 -21q-42 -41 -78 -60q-44 -24 -90 -24q-88 0 -148.5 71.5t-60.5 165.5q0 97 58.5 172t147.5 75q56 0 101 -33.5t45 -79.5q0 -24 -11.5 -34.5t-26.5 -10.5q-25 0 -36 20q-7 13 -10 39.5t-12 39.5q-17 23 -59 23q-68 0 -100 -66q-24 -50 -24 -127q0 -85 50 -146
t119 -61q32 0 61 15.5t52 41.5z" />
    <glyph glyph-name="d" unicode="d" horiz-adv-x="504" 
d="M380 722h24v-653q0 -22 12 -35t34 -13h9v-21h-115v60h-4q-15 -30 -48 -50.5t-72 -20.5q-74 0 -121 58q-50 61 -50 163t40 174q49 89 141 89q68 0 109 -44h5v171q0 26 -8.5 35.5t-30.5 9.5h-8v21q29 8 46 19q21 14 37 37zM344 143v204q0 29 -21 54q-30 36 -85 36
q-67 0 -96 -76q-20 -52 -20 -124q0 -105 38 -162q33 -50 82 -50q39 0 70.5 34.5t31.5 83.5z" />
    <glyph glyph-name="e" unicode="e" horiz-adv-x="476" 
d="M412 98l15 -21q-51 -49 -95 -70q-38 -18 -80 -18q-88 0 -145.5 72t-57.5 170q0 108 56 175t135 67q78 0 128 -67.5t50 -163.5h-297q0 -78 32 -133q41 -71 122 -71q40 0 75 17q26 13 62 43zM121 278h225q0 73 -33 116t-81 43q-46 0 -75 -34q-36 -42 -36 -125z" />
    <glyph glyph-name="f" unicode="f" horiz-adv-x="285" 
d="M45 472h70q0 15 -3 34t-5.5 35.5t-5.5 43.5t-3 45q0 38 30 65t72 27q40 0 64.5 -15t24.5 -35q0 -13 -6 -22q-9 -13 -29 -13q-14 0 -23 4t-20 11.5t-17 10.5q-16 9 -26 9q-15 0 -25.5 -10.5t-10.5 -28.5q0 -26 15 -76.5t29 -84.5h74v-24h-74v-379q0 -22 12 -35t34 -13h16
v-21h-184v21h15q21 0 34 13t13 35v379h-71v24z" />
    <glyph glyph-name="g" unicode="g" horiz-adv-x="542" 
d="M130 162q-60 52 -60 133q0 68 42 118q51 60 142 60q43 0 71 -8q45 -13 82 -47q17 28 43.5 47t53.5 19q24 0 36.5 -11.5t12.5 -27.5q0 -18 -7 -29q-10 -16 -30 -16q-14 0 -25 6q-16 9 -18 9h-9q-11 -2 -22 -15l-9 -9q12 -19 18.5 -44.5t6.5 -50.5q0 -73 -49.5 -123.5
t-131.5 -50.5q-33 0 -60.5 6t-57.5 22q-23 -8 -39.5 -25.5t-16.5 -35.5q0 -23 23.5 -33.5t102.5 -25.5l86 -16q101 -19 139.5 -42.5t38.5 -67.5q0 -69 -81 -106q-66 -30 -155 -30q-104 0 -159 34q-49 30 -49 80q0 31 24 55q19 19 57 38v6q-32 6 -53 31t-21 58q0 30 28 58
q17 17 46 34zM143 295q0 -68 38 -105q33 -32 82 -32q46 0 80 32q39 37 39 102q0 60 -30 101q-33 44 -86 44q-56 0 -89.5 -41.5t-33.5 -100.5zM185 -38q-4 1 -11 1q-27 0 -51 -22t-24 -44q0 -36 38 -62q46 -31 128 -31q52 0 99 16q64 22 69 61v10q-3 15 -30 26q-13 5 -42 12
q-48 10 -84 15.5t-92 17.5z" />
    <glyph glyph-name="h" unicode="h" horiz-adv-x="532" 
d="M161 364v-295q0 -22 13 -35t34 -13h9v-21h-172v21h9q26 0 36.5 15t10.5 46v511q0 29 -9.5 40.5t-28.5 11.5h-9v21q57 16 82 56h25v-318h5q47 31 83 47q50 22 93 22q51 0 70.5 -24.5t19.5 -80.5v-299q0 -22 12 -35t34 -13h9v-21h-170v21h8q23 0 35 13t12 35v300
q0 24 -11 37q-15 17 -48 17q-35 0 -78 -17.5t-74 -41.5z" />
    <glyph glyph-name="i" unicode="i" horiz-adv-x="260" 
d="M45 21h8q21 0 34 13t13 35v288q-1 15 -4 22q-9 23 -33 23h-10v21q24 5 48 20t35 36h24v-410q0 -22 13 -35t34 -13h8v-21h-170v21zM85 620q0 21 13 35t35 14q24 0 36 -15.5t12 -33.5t-13.5 -33.5t-34.5 -15.5q-19 0 -33.5 13.5t-14.5 35.5z" />
    <glyph glyph-name="j" unicode="j" horiz-adv-x="275" 
d="M63 404v21q23 6 42 18q26 16 41 39h24v-548q0 -78 -38 -121q-33 -37 -82 -37q-28 0 -46 15t-18 38q0 17 11.5 27.5t28.5 10.5q15 0 25 -5.5t21 -20.5q5 -7 10 -13.5t14 -6.5q18 0 23 18q2 7 2 23q0 67 -4 87t-7 33v381q0 18 -10.5 29.5t-27.5 11.5h-9zM95 620q0 21 13 35
t35 14q24 0 36 -15.5t12 -33.5t-13.5 -33.5t-34.5 -15.5q-19 0 -33.5 13.5t-14.5 35.5z" />
    <glyph glyph-name="k" unicode="k" horiz-adv-x="518" 
d="M161 722v-496h5l153 148q22 22 31.5 34.5t9.5 17.5q0 15 -26 15h-10v21h155v-21q-36 -5 -77 -36q-16 -12 -42 -38l-72 -73l125 -206q17 -28 37.5 -47.5t37.5 -19.5h8v-21h-172v21h12q24 0 28 7q4 6 0 18q-1 4 -18 33l-105 170l-80 -81v-99q0 -22 13 -35t34 -13h9v-21
h-172v21h9q26 0 36.5 15t10.5 46v504q0 30 -7.5 44.5t-30.5 14.5h-9v21q57 16 82 56h25z" />
    <glyph glyph-name="l" unicode="l" horiz-adv-x="262" 
d="M54 645v21q26 8 36 13q26 13 46 43h25v-653q0 -22 13 -35t34 -13h9v-21h-172v21h8q28 0 38 15t10 46v519q0 15 -5 25q-10 19 -33 19h-9z" />
    <glyph glyph-name="m" unicode="m" horiz-adv-x="824" 
d="M161 411h4q55 29 95 43q54 19 101 19q37 0 59 -14.5t22 -40.5v-5h4q60 31 96 43q49 17 95 17q51 0 68.5 -20.5t17.5 -70.5v-313q0 -22 13 -35t34 -13h9v-21h-172v21h9q27 0 37 15t10 46v287q0 54 -60 54q-37 0 -83 -17q-30 -11 -78 -35v-302q0 -22 13 -35t34 -13h9v-21
h-172v21h9q27 0 37 15t10 46v285q0 33 -25 47q-16 9 -35 9q-34 0 -74 -12t-87 -41v-301q0 -22 13 -35t34 -13h9v-21h-172v21h9q26 0 36.5 15t10.5 46v263q0 34 -9.5 46.5t-28.5 12.5h-9v21q24 6 42 17q26 15 40 40h25v-71z" />
    <glyph glyph-name="n" unicode="n" horiz-adv-x="541" 
d="M161 370v-301q0 -28 18 -40q12 -8 29 -8h9v-21h-172v21h9q15 0 27 8q20 13 20 40v276q0 34 -9.5 46.5t-28.5 12.5h-10v21q27 7 49.5 22.5t33.5 34.5h25v-71h4q62 30 95 42q55 20 100 20q56 0 72 -43q8 -22 8 -89v-272q0 -22 13 -35t34 -13h9v-21h-172v21h9q16 0 27 7
q19 12 19 41v298q0 31 -16 43.5t-44 12.5q-30 0 -60 -8q-49 -13 -98 -45z" />
    <glyph glyph-name="o" unicode="o" horiz-adv-x="502" 
d="M251 473q99 0 155 -84q47 -70 47 -158q0 -89 -45 -157q-56 -85 -156 -85q-102 0 -158 85q-45 68 -45 157q0 87 47 157q57 85 155 85zM251 437q-52 0 -87 -44q-42 -53 -42 -162q0 -118 49 -170q34 -36 80 -36q60 0 96 58q33 54 33 148q0 109 -42 162q-35 44 -87 44z" />
    <glyph glyph-name="p" unicode="p" horiz-adv-x="517" 
d="M135 483h27v-69h5q25 32 56 45.5t64 13.5q77 0 129 -60.5t52 -160.5q0 -102 -51 -179q-56 -84 -141 -84q-31 0 -59.5 12t-49.5 38h-5v-197q0 -29 22 -41q13 -7 26 -7h16v-21h-181v21h9q26 0 37 16t11 46v498q0 29 -12.5 40t-29.5 11h-10v21q31 10 50 22t35 35zM162 344
v-227q0 -35 34.5 -63.5t72.5 -28.5q45 0 78 35q48 51 48 159q0 91 -32 151q-36 67 -97 67q-38 0 -71 -27t-33 -66z" />
    <glyph glyph-name="q" unicode="q" horiz-adv-x="511" 
d="M287 -227v21q38 0 50.5 12.5t12.5 48.5v197h-6q-21 -30 -50.5 -46.5t-66.5 -16.5q-82 0 -130 62.5t-48 159.5q0 119 58 194q54 69 128 69q22 0 42.5 -5t42.5 -18l10 -4l17 -10h7l12 15l24 35h20v-645q0 -22 11 -33t45 -15v-21h-179zM350 140v185l-3 26q-4 40 -34.5 63
t-70.5 23q-68 0 -99 -75q-22 -53 -22 -125q0 -94 34.5 -153t93.5 -59q38 0 69.5 34.5t31.5 80.5z" />
    <glyph glyph-name="r" unicode="r" horiz-adv-x="370" 
d="M161 482v-70q27 27 62.5 44t69.5 17q60 0 60 -48q0 -18 -13 -28t-26 -10q-10 0 -23.5 5t-23 10.5t-17 8.5t-22.5 3q-38 0 -55 -27q-12 -19 -12 -44v-274q0 -22 13 -35t34 -13h16v-21h-179v21h9q21 0 34 13t13 35v291q0 15 -5 25q-10 19 -33 19h-10v21q27 7 49.5 22.5
t33.5 34.5h25z" />
    <glyph glyph-name="s" unicode="s" horiz-adv-x="434" 
d="M336 354h-21q-15 36 -41 57q-33 26 -81 26q-35 0 -61.5 -18.5t-26.5 -45.5q0 -21 8 -34q12 -20 44 -33l141 -59q50 -21 71 -61q16 -30 16 -72q0 -59 -52 -94q-46 -31 -111 -31q-45 0 -68.5 4t-54.5 15l-40 11l-10 112h21q22 -57 68 -84q38 -22 87 -22q47 0 78.5 22.5
t31.5 54.5q0 25 -17 47t-52 36l-121 47q-41 16 -63 43q-27 32 -27 80q0 54 39.5 86t105.5 32q29 0 56 -4.5t80 -21.5v-93z" />
    <glyph glyph-name="t" unicode="t" horiz-adv-x="354" 
d="M291 468v-37h-102v-309q0 -45 6 -62q10 -27 42 -27q16 0 27 8t23 24h21q-13 -36 -34.5 -56t-55.5 -20q-54 0 -75 36q-14 24 -14 70v336h-84v37q60 8 87 62q23 47 23 134h34v-196h102z" />
    <glyph glyph-name="u" unicode="u" horiz-adv-x="550" 
d="M156 482v-352q0 -56 13 -73.5t47 -17.5q41 0 89.5 19.5t80.5 44.5v256q0 22 -9.5 33.5t-27.5 11.5h-10v21q23 6 42 18q26 16 41 39h24v-413q0 -22 12 -35t34 -13h9v-21h-115v59h-4q-41 -26 -86 -44q-64 -26 -112 -26q-42 0 -65 22t-23 60v288q0 21 -10 33t-28 12h-9v21
q24 6 42 17q26 15 40 40h25z" />
    <glyph glyph-name="v" unicode="v" horiz-adv-x="507" 
d="M203 462v-21h-10q-18 0 -29.5 -7t-11.5 -18q0 -6 3 -14t4 -12l113 -304h5l102 280q2 5 5.5 21.5t3.5 24.5q0 16 -14 22.5t-25 6.5h-6v21h147v-21q-34 -5 -54 -34q-12 -16 -26 -56l-131 -362h-34l-147 378q-11 28 -25 45q-24 29 -56 29v21h186z" />
    <glyph glyph-name="w" unicode="w" horiz-adv-x="745" 
d="M17 462h181v-21q-43 -8 -43 -28q0 -27 11 -51l110 -277h4l76 230l-13 40q-13 38 -20 49q-20 32 -56 37v21h173v-21q-18 0 -30 -11t-12 -33q0 -10 4 -19t8 -17l99 -276l100 267l11 40v19q-3 15 -14.5 21.5t-30.5 8.5v21h153v-21q-36 -5 -56 -26q-16 -16 -28 -50l-134 -376
h-29l-104 280h-5l-96 -280h-29l-151 378q-14 36 -31 52.5t-48 21.5v21z" />
    <glyph glyph-name="x" unicode="x" horiz-adv-x="511" 
d="M45 462h184v-21q-19 0 -30 -6t-11 -13t7 -18l73 -113h5l74 102q8 12 8 20q0 14 -12 20t-33 8v21h154v-21q-29 -4 -49 -19q-14 -11 -33 -35l-97 -124l123 -188q17 -27 35 -39t47 -15v-21h-180v21q17 0 29 6t12 15q0 3 -4.5 11.5t-4.5 9.5l-92 143h-6l-99 -140l-9 -18
q0 -7 1 -10q7 -17 44 -17v-21h-160v21q32 6 50 17.5t37 37.5l117 160l-97 155q-27 41 -83 50v21z" />
    <glyph glyph-name="y" unicode="y" horiz-adv-x="514" 
d="M280 91h5l94 260q6 17 8 27t3 17q0 24 -14.5 35t-32.5 11v21h154v-21q-29 -6 -45.5 -23.5t-28.5 -50.5l-176 -487q-21 -58 -53 -83q-23 -18 -52 -18q-38 0 -63 16t-25 44q0 17 11.5 25.5t23.5 8.5q26 0 28 -21.5t45 -21.5q17 0 29 15.5t22 44.5l37 107l-145 377
q-15 38 -37 55q-16 12 -35 12h-5v21h169v-21q-40 0 -40 -22q0 -9 2 -14l6 -15z" />
    <glyph glyph-name="z" unicode="z" horiz-adv-x="474" 
d="M429 136l-49 -136h-335l257 426h-44q-67 0 -111.5 -19t-73.5 -68h-21l53 123h289l-254 -426h43q56 0 98 12q80 23 127 88h21z" />
    <glyph glyph-name="braceleft" unicode="{" horiz-adv-x="356" 
d="M295 818l5 -34q-34 -7 -53 -27q-24 -25 -24 -68q0 -21 2.5 -56.5t2.5 -42.5v-55q0 -69 -29.5 -111t-91.5 -74q66 -33 93.5 -77t27.5 -108v-55l-4 -49l-1 -50q0 -42 24 -67q20 -21 53 -28l-5 -34q-97 17 -130 86q-19 39 -19 114l3 73q0 63 -10 96q-21 69 -83 79v40
q48 7 70.5 50t22.5 125l-3 73q0 73 19 113q34 70 130 87z" />
    <glyph glyph-name="bar" unicode="|" horiz-adv-x="525" 
d="M231 -176v1052h63v-1052h-63z" />
    <glyph glyph-name="braceright" unicode="}" horiz-adv-x="356" 
d="M61 -118l-5 34q77 16 77 95q0 19 -2.5 55t-2.5 44v55q0 64 27.5 108.5t94.5 76.5q-63 31 -91 71q-31 45 -31 114v55l4 49l1 50q0 40 -19.5 63.5t-57.5 31.5l5 34q99 -18 131 -86q18 -38 18 -114l-2 -73q0 -68 11 -102q21 -64 81 -73v-40q-59 -8 -80 -72q-12 -37 -12 -103
l2 -73q0 -78 -17 -114q-32 -68 -132 -86z" />
    <glyph glyph-name="asciitilde" unicode="~" horiz-adv-x="472" 
d="M83 619h-21q14 21 26 34q16 18 32 30q23 17 51 17q10 0 28 -1.5t53 -10.5q18 -4 40.5 -8.5t40.5 -4.5t32 6.5t24 18.5h21l-31 -42q-14 -17 -32.5 -28t-41.5 -11q-16 0 -55 8q-26 7 -33 8q-26 6 -47.5 9.5t-27.5 3.5q-17 0 -28 -6t-31 -23z" />
    <glyph glyph-name="nonbreakingspace" unicode="&#xa0;" horiz-adv-x="500" 
 />
    <glyph glyph-name="currency" unicode="&#xa4;" horiz-adv-x="875" 
d="M70 56l118 118q-30 42 -43 87.5t-13 88.5q0 45 12.5 88.5t43.5 87.5l-118 118l70 70l117 -118q43 34 96 49q39 11 84 11q44 0 84 -11q53 -15 96 -49l118 118l70 -70l-118 -118q30 -42 43 -87.5t13 -88.5q0 -45 -11 -84q-14 -48 -45 -92l118 -118l-70 -70l-118 118
q-43 -34 -96 -49q-39 -11 -84 -11q-44 0 -84 11q-53 15 -96 49l-117 -118zM211 350q0 -99 71 -165q66 -62 155 -62q88 0 155 62q72 66 72 165q0 97 -72 164q-68 63 -155 63q-89 0 -155 -62q-71 -66 -71 -165z" />
    <glyph glyph-name="brokenbar" unicode="&#xa6;" 
d="M91 413q0 20 14.5 34.5t34.5 14.5q19 0 34 -14t15 -35t-14 -35t-35 -14q-20 0 -34.5 15.5t-14.5 33.5zM91 35q0 19 14 34t35 15q19 0 34 -14t15 -35t-14 -35t-35 -14q-19 0 -34 14t-15 35z" />
    <glyph glyph-name="section" unicode="&#xa7;" horiz-adv-x="530" 
d="M297 18l-163 165q-50 51 -71 105q-15 39 -15 86q0 33 20 67q24 41 72 76q-2 7 -5 28.5t-3 44.5q0 54 40 89t102 35t108 -38q42 -34 42 -73q0 -36 -32 -36q-22 0 -36 19q-9 12 -15 30q-10 28 -19 38q-17 18 -50 18q-34 0 -58.5 -17.5t-24.5 -42.5q0 -32 15.5 -63t42.5 -58
l149 -151q48 -49 70 -94q16 -33 16 -60q0 -46 -26 -84q-19 -28 -69 -70q5 -12 10.5 -30.5t7 -27t1.5 -16.5q-1 -15 -1 -22q-7 -64 -51 -105t-106 -41q-76 0 -121 33q-39 29 -39 67q0 24 12 37t30 13q19 0 30 -14q8 -10 16.5 -35t19.5 -37q20 -22 58 -22q54 0 76 39
q15 27 15 68q0 14 -12 34.5t-36 44.5zM199 239l135 -139l13 -15l16 -19q25 14 40 33t15 39q0 33 -22 68q-17 28 -59 73l-114 122q-11 11 -31 36.5t-33 42.5q-48 -27 -48 -75q0 -75 88 -166z" />
    <glyph glyph-name="dieresis" unicode="&#xa8;" horiz-adv-x="630" 
d="M137 819q0 28 18.5 45.5t43.5 17.5q27 0 44 -19t17 -44t-17 -44t-44 -19q-28 0 -45 19t-17 44zM367 819q0 22 14 40q18 23 48 23q29 0 47 -22q15 -19 15 -41q0 -25 -17 -44t-45 -19q-27 0 -44.5 19.5t-17.5 43.5zM535 700l22 -137h-25q-18 54 -73 78q-39 17 -84 17h-122
q-28 0 -41 -11t-13 -40v-205h156q48 0 64 11q21 14 21 56h26v-179h-26v7q0 24 -16.5 43.5t-43.5 19.5h-181v-254q0 -44 19.5 -54t78.5 -10h76q67 0 109.5 23t72.5 77h25l-23 -142h-512v27q46 0 63 32q11 21 11 63v456q0 44 -10 63q-17 32 -64 32v27h490z" />
    <glyph glyph-name="copyright" unicode="&#xa9;" horiz-adv-x="964" 
d="M615 480h-16q-15 40 -56 61q-33 17 -68 17q-51 0 -91 -37q-58 -54 -58 -168q0 -93 47 -150q44 -54 109 -54q52 0 89 26.5t49 73.5h16l-4 -88q-25 -17 -62 -27t-88 -10q-92 0 -153 73q-57 68 -57 155q0 89 58 156q65 75 173 75h24q25 0 51 -8q16 -5 34 -14zM62 350
q0 164 114 288q122 132 306 132q164 0 288 -114q132 -122 132 -306q0 -164 -114 -288q-122 -132 -306 -132t-306 132q-114 124 -114 288zM125 350q0 -139 96 -244q104 -113 261 -113q139 0 244 97q113 104 113 260t-113 260q-106 97 -244 97q-139 0 -244 -97
q-113 -104 -113 -260z" />
    <glyph glyph-name="ordfeminine" unicode="&#xaa;" horiz-adv-x="665" 
d="M584 551h-26q-19 52 -72 86.5t-115 34.5q-87 0 -149 -59q-87 -82 -87 -255q46 38 83.5 53t78.5 15q19 0 29 -3.5t44 -25.5q29 -18 38 -23q26 -13 45 -13q28 0 72 27v-36q-41 -26 -61 -37q-38 -20 -65 -20q-24 0 -55 16t-63 33q-18 9 -22 10q-13 5 -25 5q-35 0 -62 -15
q-34 -19 -34 -52q0 -82 52 -161q68 -103 183 -103q80 0 140 41t78 115h25l-6 -140q-41 -27 -98 -42.5t-123 -15.5h-16q-144 0 -241 115q-90 107 -90 247q0 133 87 239q105 128 287 128q51 0 90 -9.5t72 -26.5z" />
    <glyph glyph-name="guillemotleft" unicode="&#xab;" horiz-adv-x="468" 
d="M396 361l-83 -131l85 -133l-24 -15l-138 147l139 146zM306 423l-140 -193l135 -192l-26 -17l-205 209l215 208z" />
    <glyph glyph-name="logicalnot" unicode="&#xac;" horiz-adv-x="1050" 
d="M56 213v63h938v-174h-64v111h-874z" />
    <glyph glyph-name="registered" unicode="&#xae;" horiz-adv-x="700" 
d="M56 582q0 114 80 201q86 93 214 93q116 0 202 -79q92 -85 92 -215q0 -129 -92 -214q-86 -80 -202 -80q-128 0 -214 93q-80 87 -80 201zM105 582q0 -94 67 -167q72 -78 178 -78q107 0 179 78q66 72 66 167q0 97 -66 168q-71 77 -179 77q-107 0 -178 -76q-67 -72 -67 -169z
M367 739q31 0 56 -16q38 -24 38 -75q0 -29 -18.5 -53.5t-50.5 -30.5l53 -93l3 -4l6 -9q12 -20 36 -20v-12h-98v12h6q21 0 21 9q0 5 -2 8t-3 4q-4 4 -7 10l-52 87h-23t-20 1l-19 2v-79q0 -20 8.5 -31t18.5 -11h7v-12h-103v12h8q17 0 24 18q4 10 4 24v204q0 20 -7.5 29
t-28.5 14v12h143zM293 689v-112q14 -3 30 -3q40 0 64 15q32 20 32 61q0 28 -13 45q-20 26 -64 26h-26q-23 0 -23 -32z" />
    <glyph glyph-name="macron" unicode="&#xaf;" horiz-adv-x="320" 
d="M-8 826q0 25 16.5 40.5t39.5 15.5q22 0 39 -16t17 -40q0 -23 -17.5 -39.5t-38.5 -16.5q-22 0 -39 16t-17 40zM216 826q0 25 16.5 40.5t39.5 15.5q22 0 39 -16t17 -40q0 -23 -17.5 -39.5t-38.5 -16.5q-22 0 -39 16t-17 40zM45 700h230v-27q-48 0 -64 -31q-11 -21 -11 -64
v-456q0 -44 10 -63q17 -32 65 -32v-27h-230v27q48 0 65 35q10 21 10 60v456q0 53 -18 74t-57 21v27z" />
    <glyph glyph-name="degree" unicode="&#xb0;" horiz-adv-x="348" 
d="M104 554q0 -31 21.5 -50.5t48.5 -19.5q26 0 48 20t22 50q0 27 -19.5 48.5t-50.5 21.5q-27 0 -48.5 -19.5t-21.5 -50.5zM62 554q0 49 34.5 80.5t77.5 31.5q49 0 80.5 -34.5t31.5 -77.5q0 -44 -31 -78t-81 -34q-49 0 -80.5 34.5t-31.5 77.5z" />
    <glyph glyph-name="plusminus" unicode="&#xb1;" horiz-adv-x="822" 
d="M441 217h-70v140h-231v70h231v178h70v-178h231v-70h-231v-140zM140 98v70h532v-70h-532z" />
    <glyph glyph-name="twosuperior" unicode="&#xb2;" horiz-adv-x="320" 
d="M45 700h230v-27q-48 0 -64 -31q-11 -21 -11 -64v-456q0 -44 10 -63q17 -32 65 -32v-27h-230v27q48 0 65 35q10 21 10 60v456q0 53 -18 74t-57 21v27z" />
    <glyph glyph-name="threesuperior" unicode="&#xb3;" horiz-adv-x="260" 
d="M45 21h8q21 0 34 13t13 35v288q-1 15 -4 22q-9 23 -33 23h-10v21q24 5 48 20t35 36h24v-410q0 -22 13 -35t34 -13h8v-21h-170v21zM85 620q0 21 13 35t35 14q24 0 36 -15.5t12 -33.5t-13.5 -33.5t-34.5 -15.5q-19 0 -33.5 13.5t-14.5 35.5z" />
    <glyph glyph-name="mu" unicode="&#xb5;" horiz-adv-x="560" 
d="M166 482v-352q0 -43 33.5 -67t81.5 -24q33 0 60 16t55 48v256q0 22 -9.5 33.5t-27.5 11.5h-10v21q23 6 42 18q26 16 41 39h24v-413q0 -22 12 -35t34 -13h9v-21h-115v59h-4q-53 -70 -116 -70q-41 0 -66 10.5t-40 25.5h-4v-183q0 -29 22 -41q13 -7 26 -7h16v-21h-181v21h9
q26 0 37 16t11 46v503q0 21 -10 33t-28 12h-9v21q24 6 42 17q26 15 40 40h25z" />
    <glyph glyph-name="paragraph" unicode="&#xb6;" horiz-adv-x="482" 
d="M220 -196v546q-77 0 -126 52t-49 123q0 72 48.5 123.5t126.5 51.5h70v-896h-70zM367 -196v896h70v-896h-70z" />
    <glyph glyph-name="periodcentered" unicode="&#xb7;" horiz-adv-x="266" 
d="M84 378q0 20 14.5 34.5t34.5 14.5t34.5 -15.5t14.5 -33.5q0 -20 -14.5 -34.5t-34.5 -14.5q-19 0 -34 14t-15 35z" />
    <glyph glyph-name="periodcentered" unicode="&#x2219;" horiz-adv-x="266" 
d="M84 378q0 20 14.5 34.5t34.5 14.5t34.5 -15.5t14.5 -33.5q0 -20 -14.5 -34.5t-34.5 -14.5q-19 0 -34 14t-15 35z" />
    <glyph glyph-name="cedilla" unicode="&#xb8;" horiz-adv-x="476" 
d="M413 98l14 -21q-49 -51 -102 -73q-36 -15 -72 -15q-87 0 -145.5 72.5t-58.5 169.5q0 107 57 174.5t135 67.5q77 0 127.5 -68t50.5 -163h-297q0 -76 32 -132q41 -72 122 -72q38 0 74 17q28 13 63 43zM122 278h225q0 72 -33 115.5t-81 43.5q-43 0 -71 -28q-40 -41 -40 -131
zM115 620q0 21 13 35t35 14q24 0 36 -15.5t12 -33.5t-13.5 -33.5t-34.5 -15.5q-19 0 -33.5 13.5t-14.5 35.5zM266 620q0 18 10 31q14 18 38 18q22 0 35 -14t13 -35t-14 -35t-34 -14q-21 0 -34.5 15.5t-13.5 33.5z" />
    <glyph glyph-name="onesuperior" unicode="&#xb9;" horiz-adv-x="1052" 
d="M298 700l307 -534h6v403q0 79 35 115q29 30 78 30q51 0 82 -34q28 -31 28 -76q0 -29 -13.5 -42.5t-32.5 -13.5q-14 0 -26 11t-12 34q0 24 7 35t7 27q0 8 -10.5 13.5t-25.5 5.5q-32 0 -48 -16q-27 -26 -27 -94v-564h-48l-342 597h-6v-444q0 -82 -21 -121q-25 -46 -82 -46
q-50 0 -80 38q-24 31 -24 69t16.5 56.5t39.5 18.5q18 0 29.5 -13.5t11.5 -35.5q0 -15 -6 -27q-2 -5 -10.5 -21.5t-8.5 -23.5q0 -20 33 -20q36 0 48 31.5t12 101.5v421q0 48 -19 71t-65 23v25h167zM733 301q0 68 36 110t98 42t98.5 -42.5t36.5 -109.5q0 -68 -36 -110t-99 -42
q-62 0 -98 42t-36 110zM794 301q0 -66 18.5 -95t54.5 -29q39 0 56.5 32t17.5 92q0 57 -13 85q-18 39 -61 39q-39 0 -56 -33t-17 -91zM765 0v57h205v-57h-205z" />
    <glyph glyph-name="ordmasculine" unicode="&#xba;" horiz-adv-x="478" 
d="M114 252l1 -7q23 14 45.5 27t39.5 13q14 0 28 -5t31 -14.5t30 -15.5t20 -6q12 0 23.5 6t21.5 14l12 -22l-37 -25q-14 -9 -27 -14.5t-29 -5.5q-10 0 -22 3.5t-34 15.5q-9 5 -22 11q-21 10 -37 10t-25.5 -7.5t-14.5 -17.5q13 -86 56.5 -136.5t102.5 -50.5q35 0 70 21
q27 16 62 51l20 -21q-33 -44 -84 -67q-44 -20 -86 -20q-80 0 -144 63q-73 72 -73 186q0 102 64.5 168.5t155.5 66.5q31 0 60 -8.5t66 -26.5l3 -98h-21q-13 43 -47 70t-76 27q-64 0 -102 -59q-32 -49 -32 -108q0 -13 1 -18z" />
    <glyph glyph-name="guillemotright" unicode="&#xbb;" horiz-adv-x="468" 
d="M72 361l20 14l139 -146l-137 -147l-24 15l84 133zM162 423l21 15l215 -208l-205 -209l-26 17l134 192z" />
    <glyph glyph-name="questiondown" unicode="&#xbf;" horiz-adv-x="262" 
d="M45 21h8q21 0 34 13t13 35v288q-1 15 -4 22q-9 23 -33 23h-10v21q24 5 48 20t35 36h24v-410q0 -22 13 -35t34 -13h9v-21h-171v21zM-9 651q0 25 15.5 37t33.5 12q20 0 34.5 -14.5t14.5 -34.5t-15.5 -34.5t-33.5 -14.5t-32 11q-17 14 -17 38zM173 651q0 25 15.5 37t33.5 12
q20 0 34.5 -14.5t14.5 -34.5t-15.5 -34.5t-33.5 -14.5t-32 11q-17 14 -17 38z" />
    <glyph glyph-name="Agrave" unicode="&#xc0;" horiz-adv-x="691" 
d="M230 621v25q59 16 80 38q17 17 24 50h43l183 -599q17 -55 35 -75q22 -25 71 -33v-27h-236v27q38 0 52 10t14 29q0 8 -2 16l-7 28l-30 106h-250l-36 -106q-4 -10 -5 -23t-1 -26q0 -14 14 -22t38 -12v-27h-200v27q41 9 66.5 31.5t37.5 57.5l156 447q3 10 5 18t2 14
q0 13 -7.5 21t-24.5 8q-10 0 -22 -3zM441 258l-105 336l-5 1l-111 -337h221z" />
    <glyph glyph-name="Agrave" unicode="&#x410;" horiz-adv-x="691" 
d="M230 621v25q59 16 80 38q17 17 24 50h43l183 -599q17 -55 35 -75q22 -25 71 -33v-27h-236v27q38 0 52 10t14 29q0 8 -2 16l-7 28l-30 106h-250l-36 -106q-4 -10 -5 -23t-1 -26q0 -14 14 -22t38 -12v-27h-200v27q41 9 66.5 31.5t37.5 57.5l156 447q3 10 5 18t2 14
q0 13 -7.5 21t-24.5 8q-10 0 -22 -3zM441 258l-105 336l-5 1l-111 -337h221z" />
    <glyph glyph-name="Aacute" unicode="&#xc1;" horiz-adv-x="647" 
d="M527 559h-25q-40 55 -65 73q-36 26 -95 26h-86q-27 0 -42 -9.5t-15 -39.5v-15v-176q62 11 122 11q148 0 223 -77q58 -60 58 -141q0 -76 -51 -137q-62 -74 -167 -74h-339v27q40 0 57 23t17 72v456q0 49 -16.5 72t-57.5 23v27h454zM199 376v-276q0 -39 29 -51q17 -7 65 -7
h34q93 0 143 62q40 50 40 112q0 57 -27 98q-48 72 -166 72q-43 0 -62.5 -1.5t-55.5 -8.5z" />
    <glyph glyph-name="Aacute" unicode="&#x411;" horiz-adv-x="647" 
d="M527 559h-25q-40 55 -65 73q-36 26 -95 26h-86q-27 0 -42 -9.5t-15 -39.5v-15v-176q62 11 122 11q148 0 223 -77q58 -60 58 -141q0 -76 -51 -137q-62 -74 -167 -74h-339v27q40 0 57 23t17 72v456q0 49 -16.5 72t-57.5 23v27h454zM199 376v-276q0 -39 29 -51q17 -7 65 -7
h34q93 0 143 62q40 50 40 112q0 57 -27 98q-48 72 -166 72q-43 0 -62.5 -1.5t-55.5 -8.5z" />
    <glyph glyph-name="Acircumflex" unicode="&#xc2;" horiz-adv-x="656" 
d="M45 700h301q119 0 174 -56q41 -42 41 -106t-43 -108q-39 -40 -101 -52l-2 -5q104 -15 154 -79q38 -49 38 -109q0 -74 -49 -124q-59 -61 -175 -61h-338v27q46 0 63 32q11 21 11 63v456q0 47 -17 71t-57 24v27zM199 385h124q90 0 128 51q27 36 27 95q0 80 -63 110
q-36 17 -95 17h-67q-32 0 -45 -17q-9 -12 -9 -29v-227zM199 343v-267q0 -21 24 -29q15 -5 40 -5h70q90 0 136 36t46 108q0 78 -46.5 117.5t-141.5 39.5h-128z" />
    <glyph glyph-name="Acircumflex" unicode="&#x412;" horiz-adv-x="656" 
d="M45 700h301q119 0 174 -56q41 -42 41 -106t-43 -108q-39 -40 -101 -52l-2 -5q104 -15 154 -79q38 -49 38 -109q0 -74 -49 -124q-59 -61 -175 -61h-338v27q46 0 63 32q11 21 11 63v456q0 47 -17 71t-57 24v27zM199 385h124q90 0 128 51q27 36 27 95q0 80 -63 110
q-36 17 -95 17h-67q-32 0 -45 -17q-9 -12 -9 -29v-227zM199 343v-267q0 -21 24 -29q15 -5 40 -5h70q90 0 136 36t46 108q0 78 -46.5 117.5t-141.5 39.5h-128z" />
    <glyph glyph-name="Atilde" unicode="&#xc3;" horiz-adv-x="533" 
d="M487 700l33 -135h-25q-16 38 -55 64q-43 29 -98 29h-83q-34 0 -48 -19q-9 -12 -9 -30v-486q0 -43 12 -64q19 -32 70 -32v-27h-238v27q46 0 63 28q13 22 13 68v443q0 53 -14 77q-17 30 -63 30v27h442z" />
    <glyph glyph-name="Atilde" unicode="&#x413;" horiz-adv-x="533" 
d="M487 700l33 -135h-25q-16 38 -55 64q-43 29 -98 29h-83q-34 0 -48 -19q-9 -12 -9 -30v-486q0 -43 12 -64q19 -32 70 -32v-27h-238v27q46 0 63 28q13 22 13 68v443q0 53 -14 77q-17 30 -63 30v27h442z" />
    <glyph glyph-name="Adieresis" unicode="&#xc4;" horiz-adv-x="712" 
d="M0 -147l40 178q58 0 78.5 14t42.5 74q44 125 68 239t24 198q0 52 -21.5 84.5t-57.5 32.5v27h487v-27q-41 0 -58 -20.5t-17 -62.5v-499q0 -33 30 -48q25 -12 70 -12l26 -178h-26q-15 57 -54 93q-58 54 -161 54h-254q-63 0 -117.5 -42.5t-73.5 -104.5h-26zM185 42h249
q48 0 62 17q10 12 10 46v505q0 31 -26 42q-14 6 -35 6h-45q-50 0 -64 -10q-25 -18 -32 -88q-10 -98 -18 -149q-14 -95 -35 -175q-25 -96 -66 -194z" />
    <glyph glyph-name="Adieresis" unicode="&#x414;" horiz-adv-x="712" 
d="M0 -147l40 178q58 0 78.5 14t42.5 74q44 125 68 239t24 198q0 52 -21.5 84.5t-57.5 32.5v27h487v-27q-41 0 -58 -20.5t-17 -62.5v-499q0 -33 30 -48q25 -12 70 -12l26 -178h-26q-15 57 -54 93q-58 54 -161 54h-254q-63 0 -117.5 -42.5t-73.5 -104.5h-26zM185 42h249
q48 0 62 17q10 12 10 46v505q0 31 -26 42q-14 6 -35 6h-45q-50 0 -64 -10q-25 -18 -32 -88q-10 -98 -18 -149q-14 -95 -35 -175q-25 -96 -66 -194z" />
    <glyph glyph-name="Aring" unicode="&#xc5;" horiz-adv-x="629" 
d="M535 700l22 -137h-25q-18 54 -73 78q-39 17 -84 17h-122q-28 0 -41 -11t-13 -40v-205h156q48 0 64 11q21 14 21 56h26v-179h-26v7q0 24 -16.5 43.5t-43.5 19.5h-181v-254q0 -44 19.5 -54t78.5 -10h76q67 0 109.5 23t72.5 77h25l-23 -142h-512v27q46 0 63 32q11 21 11 63
v456q0 44 -10 63q-17 32 -64 32v27h490z" />
    <glyph glyph-name="Aring" unicode="&#x415;" horiz-adv-x="629" 
d="M535 700l22 -137h-25q-18 54 -73 78q-39 17 -84 17h-122q-28 0 -41 -11t-13 -40v-205h156q48 0 64 11q21 14 21 56h26v-179h-26v7q0 24 -16.5 43.5t-43.5 19.5h-181v-254q0 -44 19.5 -54t78.5 -10h76q67 0 109.5 23t72.5 77h25l-23 -142h-512v27q46 0 63 32q11 21 11 63
v456q0 44 -10 63q-17 32 -64 32v27h490z" />
    <glyph glyph-name="AE" unicode="&#xc6;" horiz-adv-x="957" 
d="M594 700v-27q-48 0 -65 -35q-10 -21 -10 -60v-260l240 266l6 7l5 7l12 15q8 11 10.5 16.5t2.5 11.5q0 14 -15.5 22.5t-33.5 8.5l-15 1v27h221v-27q-39 -5 -66.5 -22t-62.5 -55l-156 -171l187 -323l20 -30q13 -18 28 -28q25 -17 55 -17v-27h-216v27h14q20 0 27 5.5t7 14.5
q0 7 -4.5 18t-16.5 32l-158 266l-91 -99v-142q0 -53 18 -74t57 -21v-27h-230v27q49 0 65 34q10 21 10 61v142l-91 99l-158 -266q-13 -23 -17.5 -33t-4.5 -17q0 -9 7.5 -14.5t27.5 -5.5h13v-27h-216v27q32 0 57 18q14 10 26 27l20 30l188 323l-156 171q-35 38 -62 54.5
t-68 22.5v27h222v-27l-15 -1q-19 0 -34 -7.5t-15 -23.5q0 -10 14 -30q11 -15 21 -27l241 -266v260q0 41 -9 60q-17 35 -66 35v27h230z" />
    <glyph glyph-name="AE" unicode="&#x416;" horiz-adv-x="957" 
d="M594 700v-27q-48 0 -65 -35q-10 -21 -10 -60v-260l240 266l6 7l5 7l12 15q8 11 10.5 16.5t2.5 11.5q0 14 -15.5 22.5t-33.5 8.5l-15 1v27h221v-27q-39 -5 -66.5 -22t-62.5 -55l-156 -171l187 -323l20 -30q13 -18 28 -28q25 -17 55 -17v-27h-216v27h14q20 0 27 5.5t7 14.5
q0 7 -4.5 18t-16.5 32l-158 266l-91 -99v-142q0 -53 18 -74t57 -21v-27h-230v27q49 0 65 34q10 21 10 61v142l-91 99l-158 -266q-13 -23 -17.5 -33t-4.5 -17q0 -9 7.5 -14.5t27.5 -5.5h13v-27h-216v27q32 0 57 18q14 10 26 27l20 30l188 323l-156 171q-35 38 -62 54.5
t-68 22.5v27h222v-27l-15 -1q-19 0 -34 -7.5t-15 -23.5q0 -10 14 -30q11 -15 21 -27l241 -266v260q0 41 -9 60q-17 35 -66 35v27h230z" />
    <glyph glyph-name="Ccedilla" unicode="&#xc7;" horiz-adv-x="581" 
d="M173 398h36q81 0 126 17q84 32 84 120q0 55 -38 93q-44 44 -119 44q-61 0 -107.5 -35t-55.5 -95h-25l5 120q33 21 71 34q53 18 107 18q110 0 179 -57q62 -51 62 -120q0 -53 -35 -93q-42 -48 -123 -61v-5q91 -9 144 -67q48 -53 48 -128q0 -74 -56 -129q-69 -68 -199 -68
q-55 0 -109 13q-70 17 -113 51l-6 124h25q30 -81 90 -117q48 -29 115 -29q72 0 116 45t44 112q0 105 -83 145q-54 26 -150 26h-33v42z" />
    <glyph glyph-name="Ccedilla" unicode="&#x417;" horiz-adv-x="581" 
d="M173 398h36q81 0 126 17q84 32 84 120q0 55 -38 93q-44 44 -119 44q-61 0 -107.5 -35t-55.5 -95h-25l5 120q33 21 71 34q53 18 107 18q110 0 179 -57q62 -51 62 -120q0 -53 -35 -93q-42 -48 -123 -61v-5q91 -9 144 -67q48 -53 48 -128q0 -74 -56 -129q-69 -68 -199 -68
q-55 0 -109 13q-70 17 -113 51l-6 124h25q30 -81 90 -117q48 -29 115 -29q72 0 116 45t44 112q0 105 -83 145q-54 26 -150 26h-33v42z" />
    <glyph glyph-name="Egrave" unicode="&#xc8;" horiz-adv-x="748" 
d="M477 700h226v-27q-45 0 -62 -27q-11 -18 -11 -56v-480q0 -38 11 -56q16 -27 62 -27v-27h-226v27q41 0 57 19t16 64v417l-352 -388v-29q0 -38 11 -56q16 -27 62 -27v-27h-226v27q41 0 57 19t16 64v480q0 44 -16.5 63.5t-56.5 19.5v27h226v-27q-45 0 -62 -27
q-11 -18 -11 -56v-390l352 384v5q0 84 -73 84v27z" />
    <glyph glyph-name="Egrave" unicode="&#x418;" horiz-adv-x="748" 
d="M477 700h226v-27q-45 0 -62 -27q-11 -18 -11 -56v-480q0 -38 11 -56q16 -27 62 -27v-27h-226v27q41 0 57 19t16 64v417l-352 -388v-29q0 -38 11 -56q16 -27 62 -27v-27h-226v27q41 0 57 19t16 64v480q0 44 -16.5 63.5t-56.5 19.5v27h226v-27q-45 0 -62 -27
q-11 -18 -11 -56v-390l352 384v5q0 84 -73 84v27z" />
    <glyph glyph-name="Eacute" unicode="&#xc9;" horiz-adv-x="748" 
d="M375 736q-43 0 -77 16q-49 23 -49 71q0 31 14.5 45t37.5 14q12 0 20.5 -3t8.5 -11q3 -12 3 -20t-3.5 -14.5t-14.5 -15.5q-6 -5 -9 -10q-6 -10 -6 -20q0 -16 40 -22q20 -3 35 -3q27 0 42 3q33 6 33 22q0 15 -10 24q-17 16 -19 19q-5 8 -5 18q0 11 5 19q9 14 28 14
q29 0 42 -19q10 -15 10 -40q0 -35 -30 -58q-39 -29 -96 -29zM477 700h226v-27q-45 0 -62 -27q-11 -18 -11 -56v-480q0 -38 11 -56q16 -27 62 -27v-27h-226v27q41 0 57 19t16 64v417l-352 -388v-29q0 -38 11 -56q16 -27 62 -27v-27h-226v27q41 0 57 19t16 64v480
q0 44 -16.5 63.5t-56.5 19.5v27h226v-27q-45 0 -62 -27q-11 -18 -11 -56v-390l352 384v5q0 84 -73 84v27z" />
    <glyph glyph-name="Eacute" unicode="&#x419;" horiz-adv-x="748" 
d="M375 736q-43 0 -77 16q-49 23 -49 71q0 31 14.5 45t37.5 14q12 0 20.5 -3t8.5 -11q3 -12 3 -20t-3.5 -14.5t-14.5 -15.5q-6 -5 -9 -10q-6 -10 -6 -20q0 -16 40 -22q20 -3 35 -3q27 0 42 3q33 6 33 22q0 15 -10 24q-17 16 -19 19q-5 8 -5 18q0 11 5 19q9 14 28 14
q29 0 42 -19q10 -15 10 -40q0 -35 -30 -58q-39 -29 -96 -29zM477 700h226v-27q-45 0 -62 -27q-11 -18 -11 -56v-480q0 -38 11 -56q16 -27 62 -27v-27h-226v27q41 0 57 19t16 64v417l-352 -388v-29q0 -38 11 -56q16 -27 62 -27v-27h-226v27q41 0 57 19t16 64v480
q0 44 -16.5 63.5t-56.5 19.5v27h226v-27q-45 0 -62 -27q-11 -18 -11 -56v-390l352 384v5q0 84 -73 84v27z" />
    <glyph glyph-name="Ecircumflex" unicode="&#xca;" horiz-adv-x="639" 
d="M275 700v-27q-43 0 -59 -24t-16 -71v-260l241 266l17 22q7 7 12.5 17t5.5 18q0 14 -14.5 22.5t-33.5 8.5l-15 1v27h221v-27q-45 -6 -79 -30q-20 -14 -50 -47l-157 -171l188 -323l20 -30q15 -22 36.5 -33.5t46.5 -11.5v-27h-216v27h14q20 0 27 5.5t7 14.5q0 8 -8 25
q-4 8 -13 25l-159 267l-91 -100v-142q0 -47 14 -68q18 -27 61 -27v-27h-230v27q42 0 60 27q15 23 15 68v456q0 46 -14 68q-17 27 -61 27v27h230z" />
    <glyph glyph-name="Ecircumflex" unicode="&#x41a;" horiz-adv-x="639" 
d="M275 700v-27q-43 0 -59 -24t-16 -71v-260l241 266l17 22q7 7 12.5 17t5.5 18q0 14 -14.5 22.5t-33.5 8.5l-15 1v27h221v-27q-45 -6 -79 -30q-20 -14 -50 -47l-157 -171l188 -323l20 -30q15 -22 36.5 -33.5t46.5 -11.5v-27h-216v27h14q20 0 27 5.5t7 14.5q0 8 -8 25
q-4 8 -13 25l-159 267l-91 -100v-142q0 -47 14 -68q18 -27 61 -27v-27h-230v27q42 0 60 27q15 23 15 68v456q0 46 -14 68q-17 27 -61 27v27h230z" />
    <glyph glyph-name="Edieresis" unicode="&#xcb;" horiz-adv-x="735" 
d="M187 700h503v-27q-40 0 -57.5 -19.5t-17.5 -63.5v-480q0 -83 75 -83v-27h-229v27q74 0 74 83v479q0 42 -11.5 55.5t-49.5 13.5h-56q-51 0 -69 -19q-25 -26 -25 -103q0 -80 -16 -194.5t-37.5 -190t-48.5 -113.5q-38 -52 -97 -52q-47 0 -75.5 30.5t-28.5 86.5
q0 41 18.5 65.5t44.5 24.5q16 0 25 -11t12 -27v-25q-3 -17 -8.5 -29.5t-13 -23t-8.5 -13.5t-1 -13q0 -12 8.5 -18t20.5 -6q55 0 94 102q30 77 48 216q15 113 15 191q0 72 -12 98q-18 39 -77 39v27z" />
    <glyph glyph-name="Edieresis" unicode="&#x41b;" horiz-adv-x="735" 
d="M187 700h503v-27q-40 0 -57.5 -19.5t-17.5 -63.5v-480q0 -83 75 -83v-27h-229v27q74 0 74 83v479q0 42 -11.5 55.5t-49.5 13.5h-56q-51 0 -69 -19q-25 -26 -25 -103q0 -80 -16 -194.5t-37.5 -190t-48.5 -113.5q-38 -52 -97 -52q-47 0 -75.5 30.5t-28.5 86.5
q0 41 18.5 65.5t44.5 24.5q16 0 25 -11t12 -27v-25q-3 -17 -8.5 -29.5t-13 -23t-8.5 -13.5t-1 -13q0 -12 8.5 -18t20.5 -6q55 0 94 102q30 77 48 216q15 113 15 191q0 72 -12 98q-18 39 -77 39v27z" />
    <glyph glyph-name="Igrave" unicode="&#xcc;" horiz-adv-x="944" 
d="M304 700l153 -477h6l176 477h163v-27q-38 0 -52.5 -12.5t-14.5 -35.5q0 -7 0.5 -12t3.5 -20l87 -465q7 -39 18 -58q24 -43 70 -43h5v-27h-242v27q40 0 57.5 12t17.5 29q0 15 -3 32.5t-5 28.5l-87 456h-5l-191 -508h-39l-169 508h-4l-91 -459q-2 -12 -3.5 -20.5
t-1.5 -16.5q0 -29 13 -43q17 -19 59 -19v-27h-208v27q40 4 59.5 27t29.5 71l88 456q2 13 4 24.5t2 19.5q0 23 -12 34q-16 14 -52 14v27h168z" />
    <glyph glyph-name="Igrave" unicode="&#x41c;" horiz-adv-x="944" 
d="M304 700l153 -477h6l176 477h163v-27q-38 0 -52.5 -12.5t-14.5 -35.5q0 -7 0.5 -12t3.5 -20l87 -465q7 -39 18 -58q24 -43 70 -43h5v-27h-242v27q40 0 57.5 12t17.5 29q0 15 -3 32.5t-5 28.5l-87 456h-5l-191 -508h-39l-169 508h-4l-91 -459q-2 -12 -3.5 -20.5
t-1.5 -16.5q0 -29 13 -43q17 -19 59 -19v-27h-208v27q40 4 59.5 27t29.5 71l88 456q2 13 4 24.5t2 19.5q0 23 -12 34q-16 14 -52 14v27h168z" />
    <glyph glyph-name="Iacute" unicode="&#xcd;" horiz-adv-x="762" 
d="M273 700v-27q-39 0 -56.5 -23.5t-17.5 -71.5v-179h365v179q0 49 -16.5 72t-57.5 23v27h227v-27q-45 0 -61 -30q-12 -22 -12 -65v-456q0 -56 20 -77q17 -18 53 -18v-27h-227v27q39 0 56.5 23.5t17.5 71.5v235h-365v-235q0 -49 16.5 -72t57.5 -23v-27h-228v27q47 0 63 30
q11 20 11 65v456q0 44 -11 64q-17 31 -63 31v27h228z" />
    <glyph glyph-name="Iacute" unicode="&#x41d;" horiz-adv-x="762" 
d="M273 700v-27q-39 0 -56.5 -23.5t-17.5 -71.5v-179h365v179q0 49 -16.5 72t-57.5 23v27h227v-27q-45 0 -61 -30q-12 -22 -12 -65v-456q0 -56 20 -77q17 -18 53 -18v-27h-227v27q39 0 56.5 23.5t17.5 71.5v235h-365v-235q0 -49 16.5 -72t57.5 -23v-27h-228v27q47 0 63 30
q11 20 11 65v456q0 44 -11 64q-17 31 -63 31v27h228z" />
    <glyph glyph-name="Icircumflex" unicode="&#xce;" horiz-adv-x="756" 
d="M49 361q0 179 121 277q94 76 207 76q68 0 137 -32q84 -39 133 -110q60 -87 60 -211q0 -184 -113 -288q-94 -87 -217 -87q-119 0 -213 86q-115 105 -115 289zM378 672q-88 0 -153 -66q-83 -84 -83 -247q0 -145 59 -235q63 -96 177 -96q123 0 186 111q51 90 51 220
q0 163 -83 247q-65 66 -154 66z" />
    <glyph glyph-name="Icircumflex" unicode="&#x41e;" horiz-adv-x="756" 
d="M49 361q0 179 121 277q94 76 207 76q68 0 137 -32q84 -39 133 -110q60 -87 60 -211q0 -184 -113 -288q-94 -87 -217 -87q-119 0 -213 86q-115 105 -115 289zM378 672q-88 0 -153 -66q-83 -84 -83 -247q0 -145 59 -235q63 -96 177 -96q123 0 186 111q51 90 51 220
q0 163 -83 247q-65 66 -154 66z" />
    <glyph glyph-name="Idieresis" unicode="&#xcf;" horiz-adv-x="749" 
d="M474 0v27q48 0 64 31q11 21 11 64v463q0 43 -20 58t-71 15h-167q-50 0 -68 -12q-23 -16 -23 -61v-463q0 -47 14 -68q18 -27 62 -27v-27h-231v27q48 0 64 31q11 21 11 64v456q0 44 -10 63q-17 32 -65 32v27h659v-27q-48 0 -64 -31q-11 -21 -11 -64v-456q0 -44 10 -63
q17 -32 65 -32v-27h-230z" />
    <glyph glyph-name="Idieresis" unicode="&#x41f;" horiz-adv-x="749" 
d="M474 0v27q48 0 64 31q11 21 11 64v463q0 43 -20 58t-71 15h-167q-50 0 -68 -12q-23 -16 -23 -61v-463q0 -47 14 -68q18 -27 62 -27v-27h-231v27q48 0 64 31q11 21 11 64v456q0 44 -10 63q-17 32 -65 32v27h659v-27q-48 0 -64 -31q-11 -21 -11 -64v-456q0 -44 10 -63
q17 -32 65 -32v-27h-230z" />
    <glyph glyph-name="Eth" unicode="&#xd0;" horiz-adv-x="614" 
d="M198 264v-144q0 -93 80 -93v-27h-233v27q47 0 63 32q10 19 10 61v460q0 42 -10 61q-17 32 -63 32v27h295q141 0 202 -74q44 -53 44 -143q0 -126 -94 -181q-61 -36 -146 -36l-44 -2h-104zM198 579v-273h79q94 0 137 21q79 39 79 156q0 113 -76 153q-41 22 -112 22
q-75 0 -94 -15q-12 -9 -12 -42v-12z" />
    <glyph glyph-name="Eth" unicode="&#x420;" horiz-adv-x="614" 
d="M198 264v-144q0 -93 80 -93v-27h-233v27q47 0 63 32q10 19 10 61v460q0 42 -10 61q-17 32 -63 32v27h295q141 0 202 -74q44 -53 44 -143q0 -126 -94 -181q-61 -36 -146 -36l-44 -2h-104zM198 579v-273h79q94 0 137 21q79 39 79 156q0 113 -76 153q-41 22 -112 22
q-75 0 -94 -15q-12 -9 -12 -42v-12z" />
    <glyph glyph-name="Ntilde" unicode="&#xd1;" horiz-adv-x="673" 
d="M590 551h-25q-20 54 -72.5 87.5t-112.5 33.5q-99 0 -163 -71q-76 -85 -76 -251q0 -134 61 -224q66 -98 178 -98q80 0 140 41t78 115h25l-6 -140q-41 -27 -98 -42.5t-123 -15.5h-16q-144 0 -241 115q-90 107 -90 247q0 141 92 246q106 121 282 121q51 0 90 -9.5t72 -26.5z
" />
    <glyph glyph-name="Ntilde" unicode="&#x421;" horiz-adv-x="673" 
d="M590 551h-25q-20 54 -72.5 87.5t-112.5 33.5q-99 0 -163 -71q-76 -85 -76 -251q0 -134 61 -224q66 -98 178 -98q80 0 140 41t78 115h25l-6 -140q-41 -27 -98 -42.5t-123 -15.5h-16q-144 0 -241 115q-90 107 -90 247q0 141 92 246q106 121 282 121q51 0 90 -9.5t72 -26.5z
" />
    <glyph glyph-name="Ograve" unicode="&#xd2;" horiz-adv-x="594" 
d="M182 0v27q42 0 58.5 22t16.5 71v470q0 43 -14 55.5t-46 12.5q-39 0 -73 -16q-48 -23 -82 -75h-25l30 133h500l30 -133h-25q-31 48 -71.5 69.5t-82.5 21.5q-33 0 -45 -10q-16 -14 -16 -58v-470q0 -47 17 -70t58 -23v-27h-230z" />
    <glyph glyph-name="Ograve" unicode="&#x422;" horiz-adv-x="594" 
d="M182 0v27q42 0 58.5 22t16.5 71v470q0 43 -14 55.5t-46 12.5q-39 0 -73 -16q-48 -23 -82 -75h-25l30 133h500l30 -133h-25q-31 48 -71.5 69.5t-82.5 21.5q-33 0 -45 -10q-16 -14 -16 -58v-470q0 -47 17 -70t58 -23v-27h-230z" />
    <glyph glyph-name="Oacute" unicode="&#xd3;" horiz-adv-x="678" 
d="M28 700h212v-27h-13q-15 0 -27.5 -3.5t-12.5 -16.5q0 -9 2.5 -18t6.5 -20l167 -363h6l135 319q13 31 17 45t4 22q0 16 -13.5 25.5t-35.5 9.5h-6v27h191v-27q-29 -4 -53 -23q-34 -28 -58 -84l-196 -467q-28 -66 -71 -93q-32 -20 -78 -20q-70 0 -106 48q-29 39 -29 93
q0 25 13.5 50t42.5 25q17 0 28 -9q15 -13 15 -40q0 -17 -4 -27t-14 -24q-4 -7 -8 -14.5t-4 -14.5q0 -18 18.5 -31.5t49.5 -13.5q38 0 63 22q36 31 58 108l-204 434q-18 39 -39 57t-57 24v27z" />
    <glyph glyph-name="Oacute" unicode="&#x423;" horiz-adv-x="678" 
d="M28 700h212v-27h-13q-15 0 -27.5 -3.5t-12.5 -16.5q0 -9 2.5 -18t6.5 -20l167 -363h6l135 319q13 31 17 45t4 22q0 16 -13.5 25.5t-35.5 9.5h-6v27h191v-27q-29 -4 -53 -23q-34 -28 -58 -84l-196 -467q-28 -66 -71 -93q-32 -20 -78 -20q-70 0 -106 48q-29 39 -29 93
q0 25 13.5 50t42.5 25q17 0 28 -9q15 -13 15 -40q0 -17 -4 -27t-14 -24q-4 -7 -8 -14.5t-4 -14.5q0 -18 18.5 -31.5t49.5 -13.5q38 0 63 22q36 31 58 108l-204 434q-18 39 -39 57t-57 24v27z" />
    <glyph glyph-name="Ocircumflex" unicode="&#xd4;" horiz-adv-x="856" 
d="M312 0v27q31 0 50 13q26 18 26 55v24h-22q-115 0 -197 40q-120 59 -120 188q0 142 124 208q85 45 190 45h25v24q0 23 -15 40q-21 23 -62 23v27h234v-27q-46 0 -65 -25q-12 -16 -12 -38v-24h25q106 0 189 -44q125 -67 125 -209q0 -130 -119 -188q-82 -40 -197 -40h-23
q0 -48 17 -70t60 -22v-27h-233zM388 161v397q-99 0 -166 -48q-81 -58 -81 -168q0 -100 83 -147q60 -34 144 -34h20zM468 558v-397h19q114 0 175 58q53 50 53 123q0 95 -65.5 155.5t-162.5 60.5h-19z" />
    <glyph glyph-name="Ocircumflex" unicode="&#x424;" horiz-adv-x="856" 
d="M312 0v27q31 0 50 13q26 18 26 55v24h-22q-115 0 -197 40q-120 59 -120 188q0 142 124 208q85 45 190 45h25v24q0 23 -15 40q-21 23 -62 23v27h234v-27q-46 0 -65 -25q-12 -16 -12 -38v-24h25q106 0 189 -44q125 -67 125 -209q0 -130 -119 -188q-82 -40 -197 -40h-23
q0 -48 17 -70t60 -22v-27h-233zM388 161v397q-99 0 -166 -48q-81 -58 -81 -168q0 -100 83 -147q60 -34 144 -34h20zM468 558v-397h19q114 0 175 58q53 50 53 123q0 95 -65.5 155.5t-162.5 60.5h-19z" />
    <glyph glyph-name="Otilde" unicode="&#xd5;" horiz-adv-x="700" 
d="M54 700h231v-27q-26 -2 -37 -5t-15 -11q-2 -4 0 -13q2 -8 19 -35l107 -173l114 162q16 22 19 28q9 15 9 23q0 10 -7 14t-20 6l-31 4v27h208v-27q-50 -9 -76 -23.5t-54 -54.5l-138 -197l187 -299q18 -30 36 -44q28 -22 73 -28v-27h-245v27q30 4 38 6q20 6 20 18
q0 13 -6.5 26.5t-19.5 34.5l-132 216l-139 -202q-16 -23 -23 -41q-2 -6 -4 -14q0 -19 12.5 -31.5t46.5 -12.5v-27h-206v27q28 8 53 27q35 26 66 72l167 245l-146 236q-19 29 -49 47.5t-58 18.5v27z" />
    <glyph glyph-name="Otilde" unicode="&#x425;" horiz-adv-x="700" 
d="M54 700h231v-27q-26 -2 -37 -5t-15 -11q-2 -4 0 -13q2 -8 19 -35l107 -173l114 162q16 22 19 28q9 15 9 23q0 10 -7 14t-20 6l-31 4v27h208v-27q-50 -9 -76 -23.5t-54 -54.5l-138 -197l187 -299q18 -30 36 -44q28 -22 73 -28v-27h-245v27q30 4 38 6q20 6 20 18
q0 13 -6.5 26.5t-19.5 34.5l-132 216l-139 -202q-16 -23 -23 -41q-2 -6 -4 -14q0 -19 12.5 -31.5t46.5 -12.5v-27h-206v27q28 8 53 27q35 26 66 72l167 245l-146 236q-19 29 -49 47.5t-58 18.5v27z" />
    <glyph glyph-name="Odieresis" unicode="&#xd6;" horiz-adv-x="766" 
d="M45 700h230v-27q-43 0 -59 -24t-16 -71v-462q0 -45 19.5 -59.5t71.5 -14.5h179q53 0 72 15t19 59v462q0 47 -14 68q-18 27 -61 27v27h234v-27q-37 0 -56 -18q-23 -22 -23 -77v-467q0 -21 4 -30q17 -39 91 -39h14l23 -189h-25q-17 87 -72 123q-37 24 -93 24h-538v27
q48 0 64 31q11 21 11 64v456q0 44 -10 63q-17 32 -65 32v27z" />
    <glyph glyph-name="Odieresis" unicode="&#x426;" horiz-adv-x="766" 
d="M45 700h230v-27q-43 0 -59 -24t-16 -71v-462q0 -45 19.5 -59.5t71.5 -14.5h179q53 0 72 15t19 59v462q0 47 -14 68q-18 27 -61 27v27h234v-27q-37 0 -56 -18q-23 -22 -23 -77v-467q0 -21 4 -30q17 -39 91 -39h14l23 -189h-25q-17 87 -72 123q-37 24 -93 24h-538v27
q48 0 64 31q11 21 11 64v456q0 44 -10 63q-17 32 -65 32v27z" />
    <glyph glyph-name="multiply" unicode="&#xd7;" horiz-adv-x="684" 
d="M403 0v27q50 0 68 31q13 22 13 64v174l-60 -17q-43 -14 -69.5 -19.5t-73.5 -5.5q-125 0 -164 54q-21 29 -21 104v166q0 44 -10 63q-17 32 -65 32v27h230v-27q-43 0 -59 -24t-16 -71v-155l1 -30q0 -38 15 -56q27 -33 105 -33q38 0 88 8.5t99 25.5v240q0 45 -10 64
q-16 31 -64 31v27h229v-27q-48 0 -65 -35q-10 -21 -10 -60v-456q0 -53 18 -74t57 -21v-27h-236z" />
    <glyph glyph-name="multiply" unicode="&#x427;" horiz-adv-x="684" 
d="M403 0v27q50 0 68 31q13 22 13 64v174l-60 -17q-43 -14 -69.5 -19.5t-73.5 -5.5q-125 0 -164 54q-21 29 -21 104v166q0 44 -10 63q-17 32 -65 32v27h230v-27q-43 0 -59 -24t-16 -71v-155l1 -30q0 -38 15 -56q27 -33 105 -33q38 0 88 8.5t99 25.5v240q0 45 -10 64
q-16 31 -64 31v27h229v-27q-48 0 -65 -35q-10 -21 -10 -60v-456q0 -53 18 -74t57 -21v-27h-236z" />
    <glyph glyph-name="Oslash" unicode="&#xd8;" horiz-adv-x="1028" 
d="M983 673q-48 0 -64 -31q-11 -21 -11 -64v-456q0 -44 10 -63q17 -32 65 -32v-27h-938v27q43 0 59 24t16 71v456q0 47 -14 68q-18 27 -61 27v27h229v-27q-46 0 -63 -32q-11 -21 -11 -63v-454q0 -37 8 -54q13 -28 49 -28h160q29 0 43 19t14 63v454q0 50 -17 72.5t-60 22.5
v27h234v-27q-48 0 -66 -33q-11 -21 -11 -62v-454q0 -37 8 -54q13 -28 49 -28h159q32 0 45 20.5t13 61.5v454q0 49 -16.5 72t-58.5 23v27h230v-27z" />
    <glyph glyph-name="Oslash" unicode="&#x428;" horiz-adv-x="1028" 
d="M983 673q-48 0 -64 -31q-11 -21 -11 -64v-456q0 -44 10 -63q17 -32 65 -32v-27h-938v27q43 0 59 24t16 71v456q0 47 -14 68q-18 27 -61 27v27h229v-27q-46 0 -63 -32q-11 -21 -11 -63v-454q0 -37 8 -54q13 -28 49 -28h160q29 0 43 19t14 63v454q0 50 -17 72.5t-60 22.5
v27h234v-27q-48 0 -66 -33q-11 -21 -11 -62v-454q0 -37 8 -54q13 -28 49 -28h159q32 0 45 20.5t13 61.5v454q0 49 -16.5 72t-58.5 23v27h230v-27z" />
    <glyph glyph-name="Ugrave" unicode="&#xd9;" horiz-adv-x="1042" 
d="M983 673q-43 0 -59 -24t-16 -71v-467q0 -69 96 -69h20l25 -189h-27q-15 76 -58.5 111.5t-113.5 35.5h-805v27q48 0 64 31q11 21 11 64v456q0 44 -10 63q-17 32 -65 32v27h230v-27q-47 0 -64 -32q-11 -21 -11 -63v-454q0 -37 8 -54q13 -28 50 -28h159q36 0 49 28
q8 17 8 54v454q0 43 -10 62q-17 33 -66 33v27h234v-27q-43 0 -60.5 -23.5t-17.5 -71.5v-454q0 -37 8 -54q13 -28 49 -28h160q36 0 49 28q8 18 8 54v454q0 44 -10 63q-17 32 -64 32v27h229v-27z" />
    <glyph glyph-name="Ugrave" unicode="&#x429;" horiz-adv-x="1042" 
d="M983 673q-43 0 -59 -24t-16 -71v-467q0 -69 96 -69h20l25 -189h-27q-15 76 -58.5 111.5t-113.5 35.5h-805v27q48 0 64 31q11 21 11 64v456q0 44 -10 63q-17 32 -65 32v27h230v-27q-47 0 -64 -32q-11 -21 -11 -63v-454q0 -37 8 -54q13 -28 50 -28h159q36 0 49 28
q8 17 8 54v454q0 43 -10 62q-17 33 -66 33v27h234v-27q-43 0 -60.5 -23.5t-17.5 -71.5v-454q0 -37 8 -54q13 -28 49 -28h160q36 0 49 28q8 18 8 54v454q0 44 -10 63q-17 32 -64 32v27h229v-27z" />
    <glyph glyph-name="Uacute" unicode="&#xda;" horiz-adv-x="779" 
d="M351 577v-161q65 9 116 9q140 0 213.5 -62t73.5 -172q0 -92 -68 -145q-59 -46 -140 -46h-351v27q48 0 65 32q11 21 11 64v451q0 52 -19 70q-15 14 -55 14h-23q-47 0 -77 -24q-22 -17 -54 -70h-26l35 136h375v-27q-48 0 -65 -33q-11 -21 -11 -63zM351 374v-267
q0 -44 22 -56q16 -9 69 -9h33q104 0 153 60q34 41 34 91q0 80 -33 124q-50 66 -174 66q-35 0 -51.5 -1.5t-52.5 -7.5z" />
    <glyph glyph-name="Uacute" unicode="&#x42a;" horiz-adv-x="779" 
d="M351 577v-161q65 9 116 9q140 0 213.5 -62t73.5 -172q0 -92 -68 -145q-59 -46 -140 -46h-351v27q48 0 65 32q11 21 11 64v451q0 52 -19 70q-15 14 -55 14h-23q-47 0 -77 -24q-22 -17 -54 -70h-26l35 136h375v-27q-48 0 -65 -33q-11 -21 -11 -63zM351 374v-267
q0 -44 22 -56q16 -9 69 -9h33q104 0 153 60q34 41 34 91q0 80 -33 124q-50 66 -174 66q-35 0 -51.5 -1.5t-52.5 -7.5z" />
    <glyph glyph-name="Ucircumflex" unicode="&#xdb;" horiz-adv-x="921" 
d="M201 577v-161q66 9 117 9q140 0 213.5 -62t73.5 -172q0 -92 -68 -145q-59 -46 -140 -46h-352v27q41 0 58.5 23.5t17.5 72.5v454q0 50 -17 73t-59 23v27h232v-27q-76 0 -76 -96zM201 374v-267q0 -43 23 -56q16 -9 69 -9h32q88 0 134 34q53 39 53 117t-33 123
q-50 67 -174 67q-45 0 -104 -9zM649 700h230v-27q-48 0 -64 -31q-11 -21 -11 -64v-456q0 -44 10 -63q17 -32 65 -32v-27h-230v27q48 0 65 35q10 21 10 60v456q0 53 -18 74t-57 21v27z" />
    <glyph glyph-name="Ucircumflex" unicode="&#x42b;" horiz-adv-x="921" 
d="M201 577v-161q66 9 117 9q140 0 213.5 -62t73.5 -172q0 -92 -68 -145q-59 -46 -140 -46h-352v27q41 0 58.5 23.5t17.5 72.5v454q0 50 -17 73t-59 23v27h232v-27q-76 0 -76 -96zM201 374v-267q0 -43 23 -56q16 -9 69 -9h32q88 0 134 34q53 39 53 117t-33 123
q-50 67 -174 67q-45 0 -104 -9zM649 700h230v-27q-48 0 -64 -31q-11 -21 -11 -64v-456q0 -44 10 -63q17 -32 65 -32v-27h-230v27q48 0 65 35q10 21 10 60v456q0 53 -18 74t-57 21v27z" />
    <glyph glyph-name="Udieresis" unicode="&#xdc;" horiz-adv-x="630" 
d="M201 577v-161q66 9 117 9q140 0 213.5 -62t73.5 -172q0 -92 -68 -145q-59 -46 -140 -46h-352v27q41 0 58.5 23.5t17.5 72.5v454q0 50 -17 73t-59 23v27h232v-27q-76 0 -76 -96zM201 374v-267q0 -43 23 -56q16 -9 69 -9h32q88 0 134 34q53 39 53 117t-33 123
q-50 67 -174 67q-45 0 -104 -9z" />
    <glyph glyph-name="Udieresis" unicode="&#x42c;" horiz-adv-x="630" 
d="M201 577v-161q66 9 117 9q140 0 213.5 -62t73.5 -172q0 -92 -68 -145q-59 -46 -140 -46h-352v27q41 0 58.5 23.5t17.5 72.5v454q0 50 -17 73t-59 23v27h232v-27q-76 0 -76 -96zM201 374v-267q0 -43 23 -56q16 -9 69 -9h32q88 0 134 34q53 39 53 117t-33 123
q-50 67 -174 67q-45 0 -104 -9z" />
    <glyph glyph-name="Yacute" unicode="&#xdd;" horiz-adv-x="659" 
d="M62 521l6 134q51 28 101 43.5t97 15.5q143 0 243.5 -103.5t100.5 -248.5q0 -149 -98 -258q-106 -118 -269 -118q-72 0 -195 37l-6 150h25q16 -63 79 -104t130 -41q98 0 169 79q76 85 76 216q0 43 -3 66q-48 -49 -88 -69q-32 -16 -65 -16q-22 0 -35.5 4t-36.5 15.5
t-46.5 18.5t-47.5 7q-15 0 -32 -12q-5 -4 -23 -20l-5 34q23 26 53 46q37 24 66 24q22 0 53 -12.5t61 -24.5q11 -4 21 -6.5t25 -2.5q29 0 54 16.5t31 35.5q2 8 2 13t-2 15q-16 103 -83 162q-62 55 -144 55q-72 0 -124 -50q-42 -40 -64 -101h-26z" />
    <glyph glyph-name="Yacute" unicode="&#x42d;" horiz-adv-x="659" 
d="M62 521l6 134q51 28 101 43.5t97 15.5q143 0 243.5 -103.5t100.5 -248.5q0 -149 -98 -258q-106 -118 -269 -118q-72 0 -195 37l-6 150h25q16 -63 79 -104t130 -41q98 0 169 79q76 85 76 216q0 43 -3 66q-48 -49 -88 -69q-32 -16 -65 -16q-22 0 -35.5 4t-36.5 15.5
t-46.5 18.5t-47.5 7q-15 0 -32 -12q-5 -4 -23 -20l-5 34q23 26 53 46q37 24 66 24q22 0 53 -12.5t61 -24.5q11 -4 21 -6.5t25 -2.5q29 0 54 16.5t31 35.5q2 8 2 13t-2 15q-16 103 -83 162q-62 55 -144 55q-72 0 -124 -50q-42 -40 -64 -101h-26z" />
    <glyph glyph-name="Thorn" unicode="&#xde;" horiz-adv-x="1038" 
d="M273 700v-27q-39 0 -56.5 -23.5t-17.5 -71.5v-179h135q17 162 132 248q90 67 193 67q68 0 137 -32q84 -39 133 -110q60 -87 60 -211q0 -184 -113 -288q-94 -87 -217 -87q-121 0 -215 86q-113 104 -113 285h-132v-235q0 -49 16.5 -72t57.5 -23v-27h-228v27q47 0 63 30
q11 20 11 65v456q0 44 -11 64q-17 31 -63 31v27h228zM660 672q-88 0 -153 -66q-84 -85 -84 -247q0 -130 50 -219q63 -112 187 -112q123 0 186 111q51 90 51 220q0 163 -83 247q-65 66 -154 66z" />
    <glyph glyph-name="Thorn" unicode="&#x42e;" horiz-adv-x="1038" 
d="M273 700v-27q-39 0 -56.5 -23.5t-17.5 -71.5v-179h135q17 162 132 248q90 67 193 67q68 0 137 -32q84 -39 133 -110q60 -87 60 -211q0 -184 -113 -288q-94 -87 -217 -87q-121 0 -215 86q-113 104 -113 285h-132v-235q0 -49 16.5 -72t57.5 -23v-27h-228v27q47 0 63 30
q11 20 11 65v456q0 44 -11 64q-17 31 -63 31v27h228zM660 672q-88 0 -153 -66q-84 -85 -84 -247q0 -130 50 -219q63 -112 187 -112q123 0 186 111q51 90 51 220q0 163 -83 247q-65 66 -154 66z" />
    <glyph glyph-name="germandbls" unicode="&#xdf;" horiz-adv-x="642" 
d="M597 700v-27q-42 -8 -58.5 -30.5t-16.5 -65.5v-455q0 -47 12 -67q17 -28 63 -28v-27h-230v27q48 0 64 31q11 21 11 64v177q-37 -7 -78 -7q-13 0 -24.5 -0.5t-20.5 -0.5t-14 1l-115 -195q-12 -19 -17 -27q-9 -14 -9 -23q0 -11 13 -15.5t33 -4.5h13v-27h-223v27q32 0 57 18
q14 10 26 27l20 30l120 206q-63 15 -104 55q-54 53 -54 134q0 76 42 127q62 76 202 76h288zM442 338v251q0 45 -21 59q-15 10 -62 10h-26q-84 0 -130 -42t-46 -115q0 -89 68 -132q57 -36 150 -36q12 0 23 0.5t44 4.5z" />
    <glyph glyph-name="germandbls" unicode="&#x42f;" horiz-adv-x="642" 
d="M597 700v-27q-42 -8 -58.5 -30.5t-16.5 -65.5v-455q0 -47 12 -67q17 -28 63 -28v-27h-230v27q48 0 64 31q11 21 11 64v177q-37 -7 -78 -7q-13 0 -24.5 -0.5t-20.5 -0.5t-14 1l-115 -195q-12 -19 -17 -27q-9 -14 -9 -23q0 -11 13 -15.5t33 -4.5h13v-27h-223v27q32 0 57 18
q14 10 26 27l20 30l120 206q-63 15 -104 55q-54 53 -54 134q0 76 42 127q62 76 202 76h288zM442 338v251q0 45 -21 59q-15 10 -62 10h-26q-84 0 -130 -42t-46 -115q0 -89 68 -132q57 -36 150 -36q12 0 23 0.5t44 4.5z" />
    <glyph glyph-name="agrave" unicode="&#xe0;" horiz-adv-x="480" 
d="M385 355v-273q0 -31 10.5 -46t37.5 -15h8v-21h-116v47h-4q-66 -38 -97.5 -48t-64.5 -10q-60 0 -89 39q-21 29 -21 69q0 73 105 128q39 20 110 48l61 25v13q0 63 -10 87q-17 39 -68 39q-60 0 -81 -42q-5 -10 -9.5 -31.5t-13.5 -32.5t-29 -11q-13 0 -22 8q-13 11 -13 32
q0 45 51 79t123 34q51 0 82 -18q50 -29 50 -100zM325 92v164q-124 -51 -163.5 -86.5t-39.5 -73.5q0 -24 17.5 -41.5t51.5 -17.5q30 0 71 19q31 14 63 36z" />
    <glyph glyph-name="agrave" unicode="&#x430;" horiz-adv-x="480" 
d="M385 355v-273q0 -31 10.5 -46t37.5 -15h8v-21h-116v47h-4q-66 -38 -97.5 -48t-64.5 -10q-60 0 -89 39q-21 29 -21 69q0 73 105 128q39 20 110 48l61 25v13q0 63 -10 87q-17 39 -68 39q-60 0 -81 -42q-5 -10 -9.5 -31.5t-13.5 -32.5t-29 -11q-13 0 -22 8q-13 11 -13 32
q0 45 51 79t123 34q51 0 82 -18q50 -29 50 -100zM325 92v164q-124 -51 -163.5 -86.5t-39.5 -73.5q0 -24 17.5 -41.5t51.5 -17.5q30 0 71 19q31 14 63 36z" />
    <glyph glyph-name="aacute" unicode="&#xe1;" horiz-adv-x="523" 
d="M431 694h21q-13 -55 -58.5 -91t-130 -49.5t-127.5 -59.5t-43 -121h4q25 45 70 72.5t103 27.5q97 0 155 -84q49 -71 49 -162q0 -86 -52 -157q-59 -81 -151 -81q-80 0 -135 49q-80 71 -80 231q0 152 53 242q42 70 112 102q37 17 90.5 24t77.5 17q30 13 42 40zM129 238
q0 -79 27 -135q38 -78 115 -78q70 0 105 75q25 54 25 125q0 98 -39.5 155t-97.5 57q-49 0 -84 -36q-51 -52 -51 -163z" />
    <glyph glyph-name="aacute" unicode="&#x431;" horiz-adv-x="523" 
d="M431 694h21q-13 -55 -58.5 -91t-130 -49.5t-127.5 -59.5t-43 -121h4q25 45 70 72.5t103 27.5q97 0 155 -84q49 -71 49 -162q0 -86 -52 -157q-59 -81 -151 -81q-80 0 -135 49q-80 71 -80 231q0 152 53 242q42 70 112 102q37 17 90.5 24t77.5 17q30 13 42 40zM129 238
q0 -79 27 -135q38 -78 115 -78q70 0 105 75q25 54 25 125q0 98 -39.5 155t-97.5 57q-49 0 -84 -36q-51 -52 -51 -163z" />
    <glyph glyph-name="acircumflex" unicode="&#xe2;" horiz-adv-x="492" 
d="M45 462h220q80 0 118 -35q30 -28 30 -73q0 -37 -17 -61q-24 -34 -78 -45v-4q45 0 80 -24q45 -31 45 -88q0 -58 -38 -93q-43 -39 -124 -39h-236v21h9q21 0 34 13t13 35v324q0 22 -13 35t-34 13h-9v21zM161 259h76q45 0 70 13q43 22 43 79q0 42 -25.5 58.5t-71.5 16.5h-44
q-30 0 -39 -10t-9 -44v-113zM161 223v-137q0 -31 18 -42q13 -8 39 -8h30q59 0 87 18q35 22 35 78q0 35 -21 58q-31 33 -99 33h-89z" />
    <glyph glyph-name="acircumflex" unicode="&#x432;" horiz-adv-x="492" 
d="M45 462h220q80 0 118 -35q30 -28 30 -73q0 -37 -17 -61q-24 -34 -78 -45v-4q45 0 80 -24q45 -31 45 -88q0 -58 -38 -93q-43 -39 -124 -39h-236v21h9q21 0 34 13t13 35v324q0 22 -13 35t-34 13h-9v21zM161 259h76q45 0 70 13q43 22 43 79q0 42 -25.5 58.5t-71.5 16.5h-44
q-30 0 -39 -10t-9 -44v-113zM161 223v-137q0 -31 18 -42q13 -8 39 -8h30q59 0 87 18q35 22 35 78q0 35 -21 58q-31 33 -99 33h-89z" />
    <glyph glyph-name="atilde" unicode="&#xe3;" horiz-adv-x="401" 
d="M101 69v324q0 22 -13 35t-34 13h-9v21h315l28 -124h-21q-26 49 -63 68.5t-81 19.5q-37 0 -49.5 -12.5t-12.5 -51.5v-280q0 -30 10.5 -45.5t36.5 -15.5h9v-21h-172v21h9q21 0 34 13t13 35z" />
    <glyph glyph-name="atilde" unicode="&#x433;" horiz-adv-x="401" 
d="M101 69v324q0 22 -13 35t-34 13h-9v21h315l28 -124h-21q-26 49 -63 68.5t-81 19.5q-37 0 -49.5 -12.5t-12.5 -51.5v-280q0 -30 10.5 -45.5t36.5 -15.5h9v-21h-172v21h9q21 0 34 13t13 35z" />
    <glyph glyph-name="adieresis" unicode="&#xe4;" horiz-adv-x="486" 
d="M461 16l25 -132h-21q-14 53 -52.5 84.5t-95.5 31.5h-147q-53 0 -87 -20q-48 -28 -62 -96h-21l20 132q34 0 49.5 13.5t29.5 52.5q21 58 37.5 136.5t16.5 128.5v30q0 25 -8 40q-13 24 -45 24v21h337v-21h-10q-21 0 -34 -13t-13 -35v-318q0 -23 12 -37q19 -22 69 -22z
M320 91v279q0 37 -15 49q-9 7 -33 7h-27q-30 0 -38 -9q-11 -13 -18 -79t-23 -144q-20 -97 -44 -158h145q31 0 42 12t11 43z" />
    <glyph glyph-name="adieresis" unicode="&#x434;" horiz-adv-x="486" 
d="M461 16l25 -132h-21q-14 53 -52.5 84.5t-95.5 31.5h-147q-53 0 -87 -20q-48 -28 -62 -96h-21l20 132q34 0 49.5 13.5t29.5 52.5q21 58 37.5 136.5t16.5 128.5v30q0 25 -8 40q-13 24 -45 24v21h337v-21h-10q-21 0 -34 -13t-13 -35v-318q0 -23 12 -37q19 -22 69 -22z
M320 91v279q0 37 -15 49q-9 7 -33 7h-27q-30 0 -38 -9q-11 -13 -18 -79t-23 -144q-20 -97 -44 -158h145q31 0 42 12t11 43z" />
    <glyph glyph-name="aring" unicode="&#xe5;" horiz-adv-x="476" 
d="M412 98l15 -21q-51 -49 -95 -70q-38 -18 -80 -18q-88 0 -145.5 72t-57.5 170q0 108 56 175t135 67q78 0 128 -67.5t50 -163.5h-297q0 -78 32 -133q41 -71 122 -71q40 0 75 17q26 13 62 43zM121 278h225q0 73 -33 116t-81 43q-46 0 -75 -34q-36 -42 -36 -125z" />
    <glyph glyph-name="aring" unicode="&#x435;" horiz-adv-x="476" 
d="M412 98l15 -21q-51 -49 -95 -70q-38 -18 -80 -18q-88 0 -145.5 72t-57.5 170q0 108 56 175t135 67q78 0 128 -67.5t50 -163.5h-297q0 -78 32 -133q41 -71 122 -71q40 0 75 17q26 13 62 43zM121 278h225q0 73 -33 116t-81 43q-46 0 -75 -34q-36 -42 -36 -125z" />
    <glyph glyph-name="ae" unicode="&#xe6;" horiz-adv-x="769" 
d="M295 462h180v-21h-10q-23 0 -36.5 -13.5t-13.5 -34.5v-177l181 187q13 13 13 21q0 7 -9.5 12t-23.5 5v21h146v-21q-27 -4 -45 -15q-12 -7 -29 -24l-108 -110l130 -212q15 -24 24 -35q21 -24 51 -24v-21h-169v21h7q14 0 21 3q12 6 12 21q0 7 -3.5 13.5t-8.5 13.5l-109 175
l-80 -84v-94q0 -22 13 -35t37 -13h10v-21h-180v21h10q18 0 31 9q19 13 19 39v94l-81 84l-109 -175q-5 -8 -8.5 -14t-3.5 -13q0 -16 9 -20t24 -4h7v-21h-169v21q25 0 40.5 13.5t34.5 45.5l130 212l-108 110q-18 18 -28 24q-17 11 -46 15v21h146v-21q-33 0 -33 -17
q0 -6 4 -11.5t9 -9.5l182 -187v177q0 25 -16.5 36.5t-33.5 11.5h-10v21z" />
    <glyph glyph-name="ae" unicode="&#x436;" horiz-adv-x="769" 
d="M295 462h180v-21h-10q-23 0 -36.5 -13.5t-13.5 -34.5v-177l181 187q13 13 13 21q0 7 -9.5 12t-23.5 5v21h146v-21q-27 -4 -45 -15q-12 -7 -29 -24l-108 -110l130 -212q15 -24 24 -35q21 -24 51 -24v-21h-169v21h7q14 0 21 3q12 6 12 21q0 7 -3.5 13.5t-8.5 13.5l-109 175
l-80 -84v-94q0 -22 13 -35t37 -13h10v-21h-180v21h10q18 0 31 9q19 13 19 39v94l-81 84l-109 -175q-5 -8 -8.5 -14t-3.5 -13q0 -16 9 -20t24 -4h7v-21h-169v21q25 0 40.5 13.5t34.5 45.5l130 212l-108 110q-18 18 -28 24q-17 11 -46 15v21h146v-21q-33 0 -33 -17
q0 -6 4 -11.5t9 -9.5l182 -187v177q0 25 -16.5 36.5t-33.5 11.5h-10v21z" />
    <glyph glyph-name="ccedilla" unicode="&#xe7;" horiz-adv-x="441" 
d="M74 339l12 100q32 17 65 25.5t63 8.5q67 0 112 -31.5t45 -72.5q0 -43 -21 -74q-28 -41 -87 -48v-6q52 0 90.5 -32.5t38.5 -79.5q0 -52 -38 -90q-51 -50 -150 -50q-32 0 -61 7q-43 10 -94 37v100h20q6 -43 52 -77q42 -31 85 -31q50 0 81.5 31.5t31.5 77.5q0 41 -31 64
q-38 28 -121 28l-37 -2v37h19q73 0 111 18q48 23 48 75q0 33 -25 58t-66 25q-42 0 -77 -27t-45 -71h-21z" />
    <glyph glyph-name="ccedilla" unicode="&#x437;" horiz-adv-x="441" 
d="M74 339l12 100q32 17 65 25.5t63 8.5q67 0 112 -31.5t45 -72.5q0 -43 -21 -74q-28 -41 -87 -48v-6q52 0 90.5 -32.5t38.5 -79.5q0 -52 -38 -90q-51 -50 -150 -50q-32 0 -61 7q-43 10 -94 37v100h20q6 -43 52 -77q42 -31 85 -31q50 0 81.5 31.5t31.5 77.5q0 41 -31 64
q-38 28 -121 28l-37 -2v37h19q73 0 111 18q48 23 48 75q0 33 -25 58t-66 25q-42 0 -77 -27t-45 -71h-21z" />
    <glyph glyph-name="egrave" unicode="&#xe8;" horiz-adv-x="550" 
d="M444 380v-298q0 -31 11 -46t40 -15h10v-21h-181v21h10q23 0 36.5 13.5t13.5 34.5v239l-219 -208v-18q0 -31 10.5 -46t39.5 -15h10v-21h-180v21h9q22 0 36.5 12t14.5 36v324q0 23 -14.5 35.5t-36.5 12.5h-9v21h180v-21h-10q-27 0 -38.5 -15.5t-11.5 -45.5v-229l219 209v33
q0 22 -13 35t-37 13h-10v21h181v-21h-10q-28 0 -39.5 -15.5t-11.5 -45.5z" />
    <glyph glyph-name="egrave" unicode="&#x438;" horiz-adv-x="550" 
d="M444 380v-298q0 -31 11 -46t40 -15h10v-21h-181v21h10q23 0 36.5 13.5t13.5 34.5v239l-219 -208v-18q0 -31 10.5 -46t39.5 -15h10v-21h-180v21h9q22 0 36.5 12t14.5 36v324q0 23 -14.5 35.5t-36.5 12.5h-9v21h180v-21h-10q-27 0 -38.5 -15.5t-11.5 -45.5v-229l219 209v33
q0 22 -13 35t-37 13h-10v21h181v-21h-10q-28 0 -39.5 -15.5t-11.5 -45.5z" />
    <glyph glyph-name="eacute" unicode="&#xe9;" horiz-adv-x="549" 
d="M274 549q-59 0 -89 36q-25 30 -25 72q0 21 15.5 32t34.5 11q6 0 12 -3q17 -9 17 -31q0 -12 -6.5 -21.5t-20.5 -14.5q-5 -2 -11 -4.5t-6 -6.5q0 -16 22 -31t57 -15q41 0 63 18q17 14 17 28q0 5 -11.5 9t-13.5 5q-9 5 -14.5 13.5t-5.5 19.5q0 16 9 25t21 9q17 0 33.5 -10.5
t16.5 -32.5q0 -45 -27 -74q-31 -34 -88 -34zM444 380v-298q0 -31 11 -46t40 -15h10v-21h-181v21h10q23 0 36.5 13.5t13.5 34.5v239l-219 -208v-18q0 -31 10.5 -46t39.5 -15h10v-21h-180v21h9q22 0 36.5 12t14.5 36v324q0 23 -14.5 35.5t-36.5 12.5h-9v21h180v-21h-10
q-27 0 -38.5 -15.5t-11.5 -45.5v-229l219 209v33q0 22 -13 35t-37 13h-10v21h181v-21h-10q-28 0 -39.5 -15.5t-11.5 -45.5z" />
    <glyph glyph-name="eacute" unicode="&#x439;" horiz-adv-x="549" 
d="M274 549q-59 0 -89 36q-25 30 -25 72q0 21 15.5 32t34.5 11q6 0 12 -3q17 -9 17 -31q0 -12 -6.5 -21.5t-20.5 -14.5q-5 -2 -11 -4.5t-6 -6.5q0 -16 22 -31t57 -15q41 0 63 18q17 14 17 28q0 5 -11.5 9t-13.5 5q-9 5 -14.5 13.5t-5.5 19.5q0 16 9 25t21 9q17 0 33.5 -10.5
t16.5 -32.5q0 -45 -27 -74q-31 -34 -88 -34zM444 380v-298q0 -31 11 -46t40 -15h10v-21h-181v21h10q23 0 36.5 13.5t13.5 34.5v239l-219 -208v-18q0 -31 10.5 -46t39.5 -15h10v-21h-180v21h9q22 0 36.5 12t14.5 36v324q0 23 -14.5 35.5t-36.5 12.5h-9v21h180v-21h-10
q-27 0 -38.5 -15.5t-11.5 -45.5v-229l219 209v33q0 22 -13 35t-37 13h-10v21h181v-21h-10q-28 0 -39.5 -15.5t-11.5 -45.5z" />
    <glyph glyph-name="ecircumflex" unicode="&#xea;" horiz-adv-x="511" 
d="M106 69v324q0 22 -13 35t-37 13h-11v21h181v-21h-10q-23 0 -36.5 -13.5t-13.5 -34.5v-191l178 186q2 3 11.5 13.5t9.5 18.5q0 9 -8.5 15t-28.5 6v21h146v-21q-16 -3 -37 -17q-10 -7 -26 -21l-120 -111l143 -223q14 -22 24 -31q14 -13 39 -17v-21h-169v21q18 2 27 7t9 19
q0 13 -8 25l-109 176l-81 -85v-94q0 -22 13 -35t37 -13h10v-21h-181v21h11q23 0 36.5 13.5t13.5 34.5z" />
    <glyph glyph-name="ecircumflex" unicode="&#x43a;" horiz-adv-x="511" 
d="M106 69v324q0 22 -13 35t-37 13h-11v21h181v-21h-10q-23 0 -36.5 -13.5t-13.5 -34.5v-191l178 186q2 3 11.5 13.5t9.5 18.5q0 9 -8.5 15t-28.5 6v21h146v-21q-16 -3 -37 -17q-10 -7 -26 -21l-120 -111l143 -223q14 -22 24 -31q14 -13 39 -17v-21h-169v21q18 2 27 7t9 19
q0 13 -8 25l-109 176l-81 -85v-94q0 -22 13 -35t37 -13h10v-21h-181v21h11q23 0 36.5 13.5t13.5 34.5z" />
    <glyph glyph-name="edieresis" unicode="&#xeb;" horiz-adv-x="527" 
d="M422 380v-298q0 -31 10.5 -46t39.5 -15h10v-21h-180v21h9q51 0 51 61v288q0 56 -41 56h-44q-21 0 -31 -14q-6 -8 -8 -24l-6 -43q-7 -65 -15 -131.5t-22 -119.5t-34 -77q-24 -28 -63 -28q-26 0 -46 14q-31 22 -31 69q0 28 12.5 50t33.5 22q14 0 23 -9t9 -29l-2 -18
q-6 -20 -15 -33q-6 -12 -6 -15q0 -15 23 -15q18 0 29 10q17 16 29.5 57t27 138t14.5 145q0 33 -14.5 49.5t-38.5 16.5v21h336v-21h-10q-27 0 -38.5 -15.5t-11.5 -45.5z" />
    <glyph glyph-name="edieresis" unicode="&#x43b;" horiz-adv-x="527" 
d="M422 380v-298q0 -31 10.5 -46t39.5 -15h10v-21h-180v21h9q51 0 51 61v288q0 56 -41 56h-44q-21 0 -31 -14q-6 -8 -8 -24l-6 -43q-7 -65 -15 -131.5t-22 -119.5t-34 -77q-24 -28 -63 -28q-26 0 -46 14q-31 22 -31 69q0 28 12.5 50t33.5 22q14 0 23 -9t9 -29l-2 -18
q-6 -20 -15 -33q-6 -12 -6 -15q0 -15 23 -15q18 0 29 10q17 16 29.5 57t27 138t14.5 145q0 33 -14.5 49.5t-38.5 16.5v21h336v-21h-10q-27 0 -38.5 -15.5t-11.5 -45.5z" />
    <glyph glyph-name="igrave" unicode="&#xec;" horiz-adv-x="629" 
d="M463 428h-5l-147 -428h-17l-153 423h-4v-349q0 -19 14.5 -36t43.5 -17v-21h-150v21q27 0 40 18.5t13 49.5v288q0 64 -53 64v21h148l123 -341h6l118 341h144v-21h-14q-21 0 -34 -13t-13 -35v-324q0 -22 13 -35t37 -13h11v-21h-181v21h10q23 0 36.5 13.5t13.5 34.5v359z
" />
    <glyph glyph-name="igrave" unicode="&#x43c;" horiz-adv-x="629" 
d="M463 428h-5l-147 -428h-17l-153 423h-4v-349q0 -19 14.5 -36t43.5 -17v-21h-150v21q27 0 40 18.5t13 49.5v288q0 64 -53 64v21h148l123 -341h6l118 341h144v-21h-14q-21 0 -34 -13t-13 -35v-324q0 -22 13 -35t37 -13h11v-21h-181v21h10q23 0 36.5 13.5t13.5 34.5v359z
" />
    <glyph glyph-name="iacute" unicode="&#xed;" horiz-adv-x="549" 
d="M45 462h180v-21h-10q-17 -2 -25 -6q-25 -12 -25 -42v-137h219v124q0 31 -11 46t-40 15h-9v21h180v-21h-10q-17 -2 -25 -6q-25 -12 -25 -42v-324q0 -29 25 -41q8 -4 25 -7h10v-21h-180v21h9q28 0 39.5 15.5t11.5 45.5v137h-219v-150q0 -29 25 -41q8 -4 25 -7h10v-21h-180
v21h9q28 0 39.5 15.5t11.5 45.5v298q0 31 -11 46t-40 15h-9v21z" />
    <glyph glyph-name="iacute" unicode="&#x43d;" horiz-adv-x="549" 
d="M45 462h180v-21h-10q-17 -2 -25 -6q-25 -12 -25 -42v-137h219v124q0 31 -11 46t-40 15h-9v21h180v-21h-10q-17 -2 -25 -6q-25 -12 -25 -42v-324q0 -29 25 -41q8 -4 25 -7h10v-21h-180v21h9q28 0 39.5 15.5t11.5 45.5v137h-219v-150q0 -29 25 -41q8 -4 25 -7h10v-21h-180
v21h9q28 0 39.5 15.5t11.5 45.5v298q0 31 -11 46t-40 15h-9v21z" />
    <glyph glyph-name="icircumflex" unicode="&#xee;" horiz-adv-x="502" 
d="M251 473q99 0 155 -84q47 -70 47 -158q0 -89 -45 -157q-56 -85 -156 -85q-102 0 -158 85q-45 68 -45 157q0 87 47 157q57 85 155 85zM251 437q-52 0 -87 -44q-42 -53 -42 -162q0 -118 49 -170q34 -36 80 -36q60 0 96 58q33 54 33 148q0 109 -42 162q-35 44 -87 44z" />
    <glyph glyph-name="icircumflex" unicode="&#x43e;" horiz-adv-x="502" 
d="M251 473q99 0 155 -84q47 -70 47 -158q0 -89 -45 -157q-56 -85 -156 -85q-102 0 -158 85q-45 68 -45 157q0 87 47 157q57 85 155 85zM251 437q-52 0 -87 -44q-42 -53 -42 -162q0 -118 49 -170q34 -36 80 -36q60 0 96 58q33 54 33 148q0 109 -42 162q-35 44 -87 44z" />
    <glyph glyph-name="idieresis" unicode="&#xef;" horiz-adv-x="538" 
d="M373 82v293q0 30 -10 40t-36 10h-119q-25 0 -35.5 -9.5t-10.5 -29.5v-317q0 -29 22 -41q13 -7 26 -7h8v-21h-173v21h10q16 0 28 8q19 13 19 40v324q0 27 -15.5 37.5t-31.5 10.5h-10v21h445v-21h-9q-15 0 -26 -6q-22 -12 -22 -42v-311q0 -31 10.5 -46t39.5 -15h10v-21
h-180v21h9q51 0 51 61z" />
    <glyph glyph-name="idieresis" unicode="&#x43f;" horiz-adv-x="538" 
d="M373 82v293q0 30 -10 40t-36 10h-119q-25 0 -35.5 -9.5t-10.5 -29.5v-317q0 -29 22 -41q13 -7 26 -7h8v-21h-173v21h10q16 0 28 8q19 13 19 40v324q0 27 -15.5 37.5t-31.5 10.5h-10v21h445v-21h-9q-15 0 -26 -6q-22 -12 -22 -42v-311q0 -31 10.5 -46t39.5 -15h10v-21
h-180v21h9q51 0 51 61z" />
    <glyph glyph-name="eth" unicode="&#xf0;" horiz-adv-x="517" 
d="M135 483h27v-69h5q25 32 56 45.5t64 13.5q77 0 129 -60.5t52 -160.5q0 -102 -51 -179q-56 -84 -141 -84q-31 0 -59.5 12t-49.5 38h-5v-197q0 -29 22 -41q13 -7 26 -7h16v-21h-181v21h9q26 0 37 16t11 46v498q0 29 -12.5 40t-29.5 11h-10v21q31 10 50 22t35 35zM162 344
v-227q0 -35 34.5 -63.5t72.5 -28.5q45 0 78 35q48 51 48 159q0 91 -32 151q-36 67 -97 67q-38 0 -71 -27t-33 -66z" />
    <glyph glyph-name="eth" unicode="&#x440;" horiz-adv-x="517" 
d="M135 483h27v-69h5q25 32 56 45.5t64 13.5q77 0 129 -60.5t52 -160.5q0 -102 -51 -179q-56 -84 -141 -84q-31 0 -59.5 12t-49.5 38h-5v-197q0 -29 22 -41q13 -7 26 -7h16v-21h-181v21h9q26 0 37 16t11 46v498q0 29 -12.5 40t-29.5 11h-10v21q31 10 50 22t35 35zM162 344
v-227q0 -35 34.5 -63.5t72.5 -28.5q45 0 78 35q48 51 48 159q0 91 -32 151q-36 67 -97 67q-38 0 -71 -27t-33 -66z" />
    <glyph glyph-name="ntilde" unicode="&#xf1;" horiz-adv-x="468" 
d="M404 94l22 -21q-42 -41 -78 -60q-44 -24 -90 -24q-88 0 -148.5 71.5t-60.5 165.5q0 97 58.5 172t147.5 75q56 0 101 -33.5t45 -79.5q0 -24 -11.5 -34.5t-26.5 -10.5q-25 0 -36 20q-7 13 -10 39.5t-12 39.5q-17 23 -59 23q-68 0 -100 -66q-24 -50 -24 -127q0 -85 50 -146
t119 -61q32 0 61 15.5t52 41.5z" />
    <glyph glyph-name="ntilde" unicode="&#x441;" horiz-adv-x="468" 
d="M404 94l22 -21q-42 -41 -78 -60q-44 -24 -90 -24q-88 0 -148.5 71.5t-60.5 165.5q0 97 58.5 172t147.5 75q56 0 101 -33.5t45 -79.5q0 -24 -11.5 -34.5t-26.5 -10.5q-25 0 -36 20q-7 13 -10 39.5t-12 39.5q-17 23 -59 23q-68 0 -100 -66q-24 -50 -24 -127q0 -85 50 -146
t119 -61q32 0 61 15.5t52 41.5z" />
    <glyph glyph-name="ograve" unicode="&#xf2;" horiz-adv-x="466" 
d="M203 69v304q0 28 -4 37q-7 16 -33 16q-35 0 -67 -32q-23 -23 -40 -57h-25l30 125h339l29 -125h-25q-23 43 -50 66t-57 23q-26 0 -31.5 -12.5t-5.5 -40.5v-304q0 -22 13 -35t34 -13h9v-21h-171v21h9q16 0 27 7q19 12 19 41z" />
    <glyph glyph-name="ograve" unicode="&#x442;" horiz-adv-x="466" 
d="M203 69v304q0 28 -4 37q-7 16 -33 16q-35 0 -67 -32q-23 -23 -40 -57h-25l30 125h339l29 -125h-25q-23 43 -50 66t-57 23q-26 0 -31.5 -12.5t-5.5 -40.5v-304q0 -22 13 -35t34 -13h9v-21h-171v21h9q16 0 27 7q19 12 19 41z" />
    <glyph glyph-name="oacute" unicode="&#xf3;" horiz-adv-x="514" 
d="M280 91h5l94 260q6 17 8 27t3 17q0 24 -14.5 35t-32.5 11v21h154v-21q-29 -6 -45.5 -23.5t-28.5 -50.5l-176 -487q-21 -58 -53 -83q-23 -18 -52 -18q-38 0 -63 16t-25 44q0 17 11.5 25.5t23.5 8.5q26 0 28 -21.5t45 -21.5q17 0 29 15.5t22 44.5l37 107l-145 377
q-15 38 -37 55q-16 12 -35 12h-5v21h169v-21q-40 0 -40 -22q0 -9 2 -14l6 -15z" />
    <glyph glyph-name="oacute" unicode="&#x443;" horiz-adv-x="514" 
d="M280 91h5l94 260q6 17 8 27t3 17q0 24 -14.5 35t-32.5 11v21h154v-21q-29 -6 -45.5 -23.5t-28.5 -50.5l-176 -487q-21 -58 -53 -83q-23 -18 -52 -18q-38 0 -63 16t-25 44q0 17 11.5 25.5t23.5 8.5q26 0 28 -21.5t45 -21.5q17 0 29 15.5t22 44.5l37 107l-145 377
q-15 38 -37 55q-16 12 -35 12h-5v21h169v-21q-40 0 -40 -22q0 -9 2 -14l6 -15z" />
    <glyph glyph-name="ocircumflex" unicode="&#xf4;" horiz-adv-x="668" 
d="M257 609v21q31 9 51 23t31 33h25v-274h5q19 30 47 45.5t54 15.5q71 0 113 -84q36 -72 36 -163q0 -100 -40 -166q-43 -71 -115 -71q-34 0 -62 17q-20 13 -33 31h-5v-195q0 -22 10 -33q14 -15 53 -15v-21h-186v21q38 0 50.5 12.5t12.5 48.5v182h-6q-18 -24 -43.5 -36
t-49.5 -12q-71 0 -113.5 69.5t-42.5 167.5q0 91 36 163q42 84 112 84q31 0 60 -17t41 -44h6v141q0 34 -10.5 45t-27.5 11h-9zM304 118v188q0 71 -33 106q-24 25 -54 25q-38 0 -60 -32q-36 -52 -36 -180q0 -96 27 -148t65 -52q33 0 60 24q31 27 31 69zM364 320v-202
q0 -42 30 -69q27 -24 61 -24q39 0 65.5 51.5t26.5 146.5q0 111 -26 162.5t-70 51.5q-31 0 -57 -30q-30 -35 -30 -87z" />
    <glyph glyph-name="ocircumflex" unicode="&#x444;" horiz-adv-x="668" 
d="M257 609v21q31 9 51 23t31 33h25v-274h5q19 30 47 45.5t54 15.5q71 0 113 -84q36 -72 36 -163q0 -100 -40 -166q-43 -71 -115 -71q-34 0 -62 17q-20 13 -33 31h-5v-195q0 -22 10 -33q14 -15 53 -15v-21h-186v21q38 0 50.5 12.5t12.5 48.5v182h-6q-18 -24 -43.5 -36
t-49.5 -12q-71 0 -113.5 69.5t-42.5 167.5q0 91 36 163q42 84 112 84q31 0 60 -17t41 -44h6v141q0 34 -10.5 45t-27.5 11h-9zM304 118v188q0 71 -33 106q-24 25 -54 25q-38 0 -60 -32q-36 -52 -36 -180q0 -96 27 -148t65 -52q33 0 60 24q31 27 31 69zM364 320v-202
q0 -42 30 -69q27 -24 61 -24q39 0 65.5 51.5t26.5 146.5q0 111 -26 162.5t-70 51.5q-31 0 -57 -30q-30 -35 -30 -87z" />
    <glyph glyph-name="otilde" unicode="&#xf5;" horiz-adv-x="511" 
d="M45 462h184v-21q-19 0 -30 -6t-11 -13t7 -18l73 -113h5l74 102q8 12 8 20q0 14 -12 20t-33 8v21h154v-21q-29 -4 -49 -19q-14 -11 -33 -35l-97 -124l123 -188q17 -27 35 -39t47 -15v-21h-180v21q17 0 29 6t12 15q0 3 -4.5 11.5t-4.5 9.5l-92 143h-6l-99 -140l-9 -18
q0 -7 1 -10q7 -17 44 -17v-21h-160v21q32 6 50 17.5t37 37.5l117 160l-97 155q-27 41 -83 50v21z" />
    <glyph glyph-name="otilde" unicode="&#x445;" horiz-adv-x="511" 
d="M45 462h184v-21q-19 0 -30 -6t-11 -13t7 -18l73 -113h5l74 102q8 12 8 20q0 14 -12 20t-33 8v21h154v-21q-29 -4 -49 -19q-14 -11 -33 -35l-97 -124l123 -188q17 -27 35 -39t47 -15v-21h-180v21q17 0 29 6t12 15q0 3 -4.5 11.5t-4.5 9.5l-92 143h-6l-99 -140l-9 -18
q0 -7 1 -10q7 -17 44 -17v-21h-160v21q32 6 50 17.5t37 37.5l117 160l-97 155q-27 41 -83 50v21z" />
    <glyph glyph-name="odieresis" unicode="&#xf6;" horiz-adv-x="529" 
d="M45 462h174v-21h-9q-26 0 -37 -17t-11 -45v-301q0 -22 11 -31.5t43 -9.5h102q24 0 36 6q18 9 18 34v315q0 29 -19 41q-12 8 -28 8h-9v21h173v-21h-9q-26 0 -37 -16t-11 -46v-289l1 -17q0 -23 15.5 -34t42.5 -11h19l26 -136h-21q-20 60 -61 88q-30 20 -64 20h-345v21h9
q28 0 38 16t10 46v296q0 30 -10 46t-38 16h-9v21z" />
    <glyph glyph-name="odieresis" unicode="&#x446;" horiz-adv-x="529" 
d="M45 462h174v-21h-9q-26 0 -37 -17t-11 -45v-301q0 -22 11 -31.5t43 -9.5h102q24 0 36 6q18 9 18 34v315q0 29 -19 41q-12 8 -28 8h-9v21h173v-21h-9q-26 0 -37 -16t-11 -46v-289l1 -17q0 -23 15.5 -34t42.5 -11h19l26 -136h-21q-20 60 -61 88q-30 20 -64 20h-345v21h9
q28 0 38 16t10 46v296q0 30 -10 46t-38 16h-9v21z" />
    <glyph glyph-name="divide" unicode="&#xf7;" horiz-adv-x="509" 
d="M286 462h178v-21h-10q-28 0 -38.5 -15t-10.5 -46v-298q0 -31 10.5 -46t38.5 -15h10v-21h-185v21h16q30 0 40 14.5t10 46.5v112q-33 -8 -73.5 -12.5t-93.5 -4.5q-47 0 -66 10q-33 17 -33 69v137q0 22 -13 35t-36 13h-9v21h176v-21h-9q-23 0 -36 -13t-13 -35v-127
q0 -30 15 -41.5t60 -11.5q40 0 63 2.5t68 14.5v150q0 32 -10 46.5t-40 14.5h-9v21z" />
    <glyph glyph-name="divide" unicode="&#x447;" horiz-adv-x="509" 
d="M286 462h178v-21h-10q-28 0 -38.5 -15t-10.5 -46v-298q0 -31 10.5 -46t38.5 -15h10v-21h-185v21h16q30 0 40 14.5t10 46.5v112q-33 -8 -73.5 -12.5t-93.5 -4.5q-47 0 -66 10q-33 17 -33 69v137q0 22 -13 35t-36 13h-9v21h176v-21h-9q-23 0 -36 -13t-13 -35v-127
q0 -30 15 -41.5t60 -11.5q40 0 63 2.5t68 14.5v150q0 32 -10 46.5t-40 14.5h-9v21z" />
    <glyph glyph-name="oslash" unicode="&#xf8;" horiz-adv-x="774" 
d="M45 462h172v-21h-9q-21 0 -34 -13t-13 -35v-306q0 -32 14 -43q9 -7 30 -7h115q19 0 28 13t9 34v309q0 22 -13 35t-34 13h-9v21h172v-21h-8q-15 0 -28 -8q-20 -13 -20 -40v-309q0 -26 10.5 -36.5t38.5 -10.5h95q32 0 42 10.5t10 34.5v298q0 31 -10 46t-37 15h-9v21h172
v-21h-9q-27 0 -37 -15t-10 -46v-298q0 -31 10 -46t37 -15h9v-21h-684v21h8q26 0 37 16t11 45v311q0 28 -19 40q-12 8 -29 8h-8v21z" />
    <glyph glyph-name="oslash" unicode="&#x448;" horiz-adv-x="774" 
d="M45 462h172v-21h-9q-21 0 -34 -13t-13 -35v-306q0 -32 14 -43q9 -7 30 -7h115q19 0 28 13t9 34v309q0 22 -13 35t-34 13h-9v21h172v-21h-8q-15 0 -28 -8q-20 -13 -20 -40v-309q0 -26 10.5 -36.5t38.5 -10.5h95q32 0 42 10.5t10 34.5v298q0 31 -10 46t-37 15h-9v21h172
v-21h-9q-27 0 -37 -15t-10 -46v-298q0 -31 10 -46t37 -15h9v-21h-684v21h8q26 0 37 16t11 45v311q0 28 -19 40q-12 8 -29 8h-8v21z" />
    <glyph glyph-name="ugrave" unicode="&#xf9;" horiz-adv-x="773" 
d="M45 462h173v-21h-10q-21 0 -34 -13t-13 -35v-306q0 -33 13 -43q9 -7 31 -7h114q19 0 28.5 12.5t9.5 34.5v309q0 22 -13 35t-34 13h-9v21h172v-21h-9q-21 0 -34 -13t-13 -35v-309q0 -28 10.5 -37.5t38.5 -9.5h96q29 0 40 8.5t11 36.5v311q0 28 -18 40q-12 8 -29 8h-10v21
h173v-21h-9q-21 0 -34 -13t-13 -35v-305q0 -60 66 -60h15l26 -136h-21q-40 108 -134 108h-580v21h9q21 0 34 13t13 35v324q0 22 -13 35t-34 13h-9v21z" />
    <glyph glyph-name="ugrave" unicode="&#x449;" horiz-adv-x="773" 
d="M45 462h173v-21h-10q-21 0 -34 -13t-13 -35v-306q0 -33 13 -43q9 -7 31 -7h114q19 0 28.5 12.5t9.5 34.5v309q0 22 -13 35t-34 13h-9v21h172v-21h-9q-21 0 -34 -13t-13 -35v-309q0 -28 10.5 -37.5t38.5 -9.5h96q29 0 40 8.5t11 36.5v311q0 28 -18 40q-12 8 -29 8h-10v21
h173v-21h-9q-21 0 -34 -13t-13 -35v-305q0 -60 66 -60h15l26 -136h-21q-40 108 -134 108h-580v21h9q21 0 34 13t13 35v324q0 22 -13 35t-34 13h-9v21z" />
    <glyph glyph-name="uacute" unicode="&#xfa;" horiz-adv-x="555" 
d="M60 462h252v-21h-9q-21 0 -34 -13t-13 -35v-130q19 4 45 7t46 3q87 0 137 -46q46 -42 46 -102q0 -52 -35 -85q-43 -40 -131 -40h-225v21h9q26 0 37 16t11 45v301q0 25 -12 33.5t-29 8.5h-19q-33 0 -47 -9q-21 -14 -51 -68h-21zM256 226v-146q0 -21 14.5 -32t58.5 -11
q50 0 78 13q50 23 50 84q0 50 -33.5 76.5t-87.5 26.5q-27 0 -51.5 -5t-28.5 -6z" />
    <glyph glyph-name="uacute" unicode="&#x44a;" horiz-adv-x="555" 
d="M60 462h252v-21h-9q-21 0 -34 -13t-13 -35v-130q19 4 45 7t46 3q87 0 137 -46q46 -42 46 -102q0 -52 -35 -85q-43 -40 -131 -40h-225v21h9q26 0 37 16t11 45v301q0 25 -12 33.5t-29 8.5h-19q-33 0 -47 -9q-21 -14 -51 -68h-21zM256 226v-146q0 -21 14.5 -32t58.5 -11
q50 0 78 13q50 23 50 84q0 50 -33.5 76.5t-87.5 26.5q-27 0 -51.5 -5t-28.5 -6z" />
    <glyph glyph-name="ucircumflex" unicode="&#xfb;" horiz-adv-x="655" 
d="M554 380v-298q0 -30 10.5 -45.5t36.5 -15.5h9v-21h-172v21h8q28 0 38 15t10 46v298q0 31 -10 46t-38 15h-8v21h172v-21h-9q-26 0 -36.5 -15t-10.5 -46zM45 0v21h9q23 0 35 13t12 35v324q0 28 -18 40q-12 8 -29 8h-9v21h171v-21h-8q-23 0 -35 -13t-12 -35v-132
q24 6 52 9.5t46 3.5q83 0 129 -42q43 -39 43 -102q0 -54 -35 -89q-41 -41 -118 -41h-233zM161 227v-147q0 -22 14.5 -33t51.5 -11q65 0 98 26.5t33 79.5q0 47 -30.5 71t-81.5 24q-48 0 -85 -10z" />
    <glyph glyph-name="ucircumflex" unicode="&#x44b;" horiz-adv-x="655" 
d="M554 380v-298q0 -30 10.5 -45.5t36.5 -15.5h9v-21h-172v21h8q28 0 38 15t10 46v298q0 31 -10 46t-38 15h-8v21h172v-21h-9q-26 0 -36.5 -15t-10.5 -46zM45 0v21h9q23 0 35 13t12 35v324q0 28 -18 40q-12 8 -29 8h-9v21h171v-21h-8q-23 0 -35 -13t-12 -35v-132
q24 6 52 9.5t46 3.5q83 0 129 -42q43 -39 43 -102q0 -54 -35 -89q-41 -41 -118 -41h-233zM161 227v-147q0 -22 14.5 -33t51.5 -11q65 0 98 26.5t33 79.5q0 47 -30.5 71t-81.5 24q-48 0 -85 -10z" />
    <glyph glyph-name="udieresis" unicode="&#xfc;" horiz-adv-x="456" 
d="M45 0v21h9q23 0 35 13t12 35v324q0 28 -18 40q-12 8 -29 8h-9v21h171v-21h-8q-23 0 -35 -13t-12 -35v-132q24 6 52 9.5t46 3.5q83 0 129 -42q43 -39 43 -102q0 -54 -35 -89q-41 -41 -118 -41h-233zM161 227v-147q0 -22 14.5 -33t51.5 -11q65 0 98 26.5t33 79.5
q0 47 -30.5 71t-81.5 24q-48 0 -85 -10z" />
    <glyph glyph-name="udieresis" unicode="&#x44c;" horiz-adv-x="456" 
d="M45 0v21h9q23 0 35 13t12 35v324q0 28 -18 40q-12 8 -29 8h-9v21h171v-21h-8q-23 0 -35 -13t-12 -35v-132q24 6 52 9.5t46 3.5q83 0 129 -42q43 -39 43 -102q0 -54 -35 -89q-41 -41 -118 -41h-233zM161 227v-147q0 -22 14.5 -33t51.5 -11q65 0 98 26.5t33 79.5
q0 47 -30.5 71t-81.5 24q-48 0 -85 -10z" />
    <glyph glyph-name="yacute" unicode="&#xfd;" horiz-adv-x="478" 
d="M80 340l3 98q36 18 65 26.5t61 8.5q94 0 157 -70t63 -165q0 -113 -74 -186q-64 -63 -143 -63q-43 0 -85 19q-51 23 -85 68l20 21q26 -27 56 -46q41 -26 76 -26q65 0 114 65.5t49 161.5q-35 -28 -57 -40q-17 -9 -29 -9q-13 0 -24.5 2.5t-32.5 12.5t-26 12q-17 7 -28 7
t-21.5 -6t-22.5 -17l-13 21q36 34 42 38q24 18 47 18q17 0 41 -12q34 -17 53 -22l23 -3q41 0 41 57q0 39 -30 78q-37 48 -96 48q-43 0 -76.5 -26.5t-46.5 -70.5h-21z" />
    <glyph glyph-name="yacute" unicode="&#x44d;" horiz-adv-x="478" 
d="M80 340l3 98q36 18 65 26.5t61 8.5q94 0 157 -70t63 -165q0 -113 -74 -186q-64 -63 -143 -63q-43 0 -85 19q-51 23 -85 68l20 21q26 -27 56 -46q41 -26 76 -26q65 0 114 65.5t49 161.5q-35 -28 -57 -40q-17 -9 -29 -9q-13 0 -24.5 2.5t-32.5 12.5t-26 12q-17 7 -28 7
t-21.5 -6t-22.5 -17l-13 21q36 34 42 38q24 18 47 18q17 0 41 -12q34 -17 53 -22l23 -3q41 0 41 57q0 39 -30 78q-37 48 -96 48q-43 0 -76.5 -26.5t-46.5 -70.5h-21z" />
    <glyph glyph-name="thorn" unicode="&#xfe;" horiz-adv-x="718" 
d="M45 21h9q28 0 39.5 15.5t11.5 45.5v298q0 31 -11 46t-40 15h-9v21h180v-21h-10q-17 -2 -25 -6q-25 -12 -25 -42v-137h102q9 81 50 139q55 78 150 78q100 0 156 -84q46 -69 46 -158t-45 -157q-56 -85 -156 -85q-97 0 -154 78q-48 66 -48 152h-101v-150q0 -29 25 -41
q8 -4 25 -7h10v-21h-180v21zM467 437q-53 0 -86 -43q-42 -54 -42 -163q0 -121 51 -173q33 -33 77 -33q50 0 82 35q47 52 47 171q0 98 -36.5 152t-92.5 54z" />
    <glyph glyph-name="thorn" unicode="&#x44e;" horiz-adv-x="718" 
d="M45 21h9q28 0 39.5 15.5t11.5 45.5v298q0 31 -11 46t-40 15h-9v21h180v-21h-10q-17 -2 -25 -6q-25 -12 -25 -42v-137h102q9 81 50 139q55 78 150 78q100 0 156 -84q46 -69 46 -158t-45 -157q-56 -85 -156 -85q-97 0 -154 78q-48 66 -48 152h-101v-150q0 -29 25 -41
q8 -4 25 -7h10v-21h-180v21zM467 437q-53 0 -86 -43q-42 -54 -42 -163q0 -121 51 -173q33 -33 77 -33q50 0 82 35q47 52 47 171q0 98 -36.5 152t-92.5 54z" />
    <glyph glyph-name="ydieresis" unicode="&#xff;" horiz-adv-x="514" 
d="M49 0v21q29 5 47 22q13 12 24 35l63 131v5q-40 8 -66 30q-41 33 -41 92q0 55 32 87q40 39 126 39h235v-21h-10q-23 0 -35 -13t-12 -35v-324q0 -28 18 -40q12 -8 29 -8h10v-21h-173v21h9q23 0 35 13t12 35v140h-102l-98 -209h-103zM352 246v130q0 24 -10 34q-16 16 -61 16
q-77 0 -104.5 -19.5t-27.5 -67.5q0 -46 29.5 -69.5t78.5 -23.5h95z" />
    <glyph glyph-name="ydieresis" unicode="&#x44f;" horiz-adv-x="514" 
d="M49 0v21q29 5 47 22q13 12 24 35l63 131v5q-40 8 -66 30q-41 33 -41 92q0 55 32 87q40 39 126 39h235v-21h-10q-23 0 -35 -13t-12 -35v-324q0 -28 18 -40q12 -8 29 -8h10v-21h-173v21h9q23 0 35 13t12 35v140h-102l-98 -209h-103zM352 246v130q0 24 -10 34q-16 16 -61 16
q-77 0 -104.5 -19.5t-27.5 -67.5q0 -46 29.5 -69.5t78.5 -23.5h95z" />
    <glyph glyph-name="endash" unicode="&#x2013;" horiz-adv-x="672" 
d="M70 315v70h532v-70h-532z" />
    <glyph glyph-name="emdash" unicode="&#x2014;" horiz-adv-x="1050" 
d="M56 213v63h938v-63h-938z" />
    <glyph glyph-name="quoteleft" unicode="&#x2018;" 
d="M172 714l14 -14q-25 -23 -39 -47t-16 -40v-19q3 -13 10 -17.5t21.5 -6.5t24 -14.5t9.5 -28.5q0 -22 -14 -38t-36 -16q-25 0 -42 20q-20 23 -20 66q0 46 25 88q22 37 63 67z" />
    <glyph glyph-name="quoteright" unicode="&#x2019;" 
d="M108 473l-14 15q24 22 37.5 41.5t17.5 44.5v19q-3 13 -10 17.5t-21.5 6.5t-24 14.5t-9.5 28.5q0 22 14 38t36 16q25 0 43.5 -21t18.5 -65q0 -50 -29 -94q-23 -35 -59 -61z" />
    <glyph glyph-name="quotesinglbase" unicode="&#x201a;" 
d="M108 -143l-14 15q24 22 37.5 41.5t17.5 44.5v19q-3 13 -10 17.5t-21.5 6.5t-24 14.5t-9.5 28.5q0 22 14 38t36 16q25 0 43.5 -21t18.5 -65q0 -50 -29 -94q-23 -35 -59 -61z" />
    <glyph glyph-name="quotedblleft" unicode="&#x201c;" horiz-adv-x="476" 
d="M367 714l15 -14q-29 -25 -44 -54q-10 -19 -11 -33v-19q4 -21 27 -23q19 -3 28.5 -16t9.5 -28q0 -22 -14 -38t-36 -16q-25 0 -42 20q-20 23 -20 66q0 45 21.5 83.5t65.5 71.5zM174 714l12 -14q-22 -19 -36 -41.5t-19 -45.5v-19q2 -15 15 -20q7 -2 19 -4.5t21.5 -15
t9.5 -27.5q0 -22 -14 -38t-36 -16q-25 0 -42 20q-20 23 -20 66q0 50 26 92q22 36 64 63z" />
    <glyph glyph-name="quotedblright" unicode="&#x201d;" horiz-adv-x="476" 
d="M108 473l-14 15q24 22 37.5 41.5t17.5 44.5v19q-3 13 -10 17.5t-21.5 6.5t-24 14.5t-9.5 28.5q0 22 14 38t36 16q25 0 43.5 -21t18.5 -65q0 -50 -29 -94q-23 -35 -59 -61zM301 473l-11 15q24 22 37.5 41.5t17.5 44.5v19q-3 13 -10 17.5t-21.5 6.5t-24 14.5t-9.5 28.5
q0 22 14 38t36 16q25 0 43.5 -21t18.5 -65q0 -48 -26 -89.5t-65 -65.5z" />
    <glyph glyph-name="quotedblbase" unicode="&#x201e;" horiz-adv-x="476" 
d="M108 -143l-14 15q24 22 37.5 41.5t17.5 44.5v19q-3 13 -10 17.5t-21.5 6.5t-24 14.5t-9.5 28.5q0 22 14 38t36 16q25 0 43.5 -21t18.5 -65q0 -50 -29 -94q-23 -35 -59 -61zM301 -143l-11 15q24 22 37.5 41.5t17.5 44.5v19q-3 13 -10 17.5t-21.5 6.5t-24 14.5t-9.5 28.5
q0 22 14 38t36 16q25 0 43.5 -21t18.5 -65q0 -48 -26 -89.5t-65 -65.5z" />
    <glyph glyph-name="dagger" unicode="&#x2020;" horiz-adv-x="590" 
d="M306 -165h-23q0 186 -24 304q-15 74 -47 142q25 30 39 63q11 26 22 88v9l-6 5q-10 0 -39 -8t-40 -13.5t-29 -10.5t-34 -5q-13 0 -25 12q-15 15 -15 40q0 28 14.5 40t32.5 12q19 0 48 -10q46 -16 76 -22q10 -2 14 0l5 5q4 6 0 22q-9 40 -24.5 85.5t-15.5 63.5q0 30 16 44
t44 14q32 0 46 -16t14 -42q0 -16 -8 -41q-28 -87 -33 -108l-2 -12t2 -10l5 -5q4 -2 14 0q34 6 75 21q31 11 50 11q18 0 32.5 -13.5t14.5 -38.5q0 -23 -12.5 -37.5t-28.5 -14.5q-32 0 -64 16q-13 6 -40 13.5t-37 7.5l-7 -5v-9q10 -55 14 -68q14 -43 47 -83q-32 -69 -47 -142
q-24 -116 -24 -304z" />
    <glyph glyph-name="bullet" unicode="&#x2022;" horiz-adv-x="672" 
d="M238 350q0 43 30 70.5t68 27.5q39 0 68.5 -27t29.5 -71q0 -39 -27 -68.5t-71 -29.5q-39 0 -68.5 27t-29.5 71z" />
    <glyph glyph-name="ellipsis" unicode="&#x2026;" horiz-adv-x="798" 
d="M84 35q0 19 14 34t35 15q19 0 34 -14t15 -35q0 -20 -14.5 -34.5t-34.5 -14.5q-19 0 -34 14t-15 35zM350 35q0 19 14 34t35 15q19 0 34 -14t15 -35t-14 -35t-35 -14q-19 0 -34 14t-15 35zM616 35q0 19 14 34t35 15q20 0 34.5 -15.5t14.5 -33.5q0 -20 -14.5 -34.5
t-34.5 -14.5t-34.5 15.5t-14.5 33.5z" />
    <glyph glyph-name="perthousand" unicode="&#x2030;" horiz-adv-x="1474" 
d="M126 580q0 65 41 119q49 64 129 64q75 0 125 -58q47 -54 47 -125t-47 -125q-50 -58 -125 -58q-79 0 -128 64q-42 55 -42 119zM212 605v-50q0 -67 21.5 -102t64.5 -35q47 0 68 49q16 37 16 89v48q0 66 -22 102t-62 36q-41 0 -63.5 -36t-22.5 -101zM296 -141l-40 19
l487 963l40 -21zM580 137q0 72 49 127t120 55q74 0 123 -58q46 -54 46 -125q0 -70 -46 -124q-50 -59 -123 -59q-70 0 -119.5 55.5t-49.5 128.5zM666 160v-49q0 -67 20.5 -102t62.5 -35q83 0 83 137v48q0 65 -22.5 102t-60.5 37q-33 0 -54 -26q-29 -35 -29 -112zM1010 137
q0 72 49 127t120 55q74 0 123 -58q46 -54 46 -125q0 -69 -46 -124q-50 -59 -123 -59q-70 0 -119.5 55.5t-49.5 128.5zM1096 160v-49q0 -67 20.5 -102t62.5 -35q83 0 83 137v48q0 65 -22.5 102t-60.5 37q-33 0 -54 -26q-29 -35 -29 -112z" />
    <glyph glyph-name="guilsinglleft" unicode="&#x2039;" horiz-adv-x="350" 
d="M294 404l-141 -194l136 -193l-26 -17l-207 210l217 210z" />
    <glyph glyph-name="guilsinglright" unicode="&#x203a;" horiz-adv-x="350" 
d="M56 404l21 16l217 -210l-207 -210l-26 17l136 193z" />
    <glyph glyph-name="trademark" unicode="&#x2122;" horiz-adv-x="630" 
d="M150 467v210h-80v37h203v-37h-81v-210h-42zM416 467l-64 177v-177h-42v247h60l65 -184l65 184h60v-247h-42v177l-64 -177h-38z" />
  </font>
</defs>
</svg>
