<?xml version="1.0" standalone="no"?>
<!DOCTYPE svg PUBLIC "-//W3C//DTD SVG 1.1//EN" "http://www.w3.org/Graphics/SVG/1.1/DTD/svg11.dtd" >
<svg xmlns="http://www.w3.org/2000/svg" xmlns:xlink="http://www.w3.org/1999/xlink" version="1.1">
<metadata>
Created by FontForge 20201107 at Sat Jun  5 13:58:36 2021
 By 
Kingthings Petrock Kevin King. 2006. All Rights Reserved.
</metadata>
<defs>
<font id="KingthingsPetrock" horiz-adv-x="1114" >
  <font-face 
    font-family="Kingthings Petrock"
    font-weight="400"
    font-stretch="normal"
    units-per-em="2048"
    panose-1="2 0 0 0 0 0 0 0 0 0"
    ascent="1638"
    descent="-410"
    x-height="894"
    cap-height="1335"
    bbox="-135 -441 1769.55 1838"
    underline-thickness="48"
    underline-position="-188"
    unicode-range="U+0020-2248"
  />
<missing-glyph horiz-adv-x="500" 
d="M63 0v1280h1024v-1280h-1024zM95 32h960v1216h-960v-1216z" />
    <glyph glyph-name=".notdef" horiz-adv-x="500" 
d="M63 0v1280h1024v-1280h-1024zM95 32h960v1216h-960v-1216z" />
    <glyph glyph-name=".null" horiz-adv-x="0" 
 />
    <glyph glyph-name="nonmarkingreturn" horiz-adv-x="1045" 
 />
    <glyph glyph-name="space" unicode=" " horiz-adv-x="382" 
 />
    <glyph glyph-name="exclam" unicode="!" horiz-adv-x="486" 
d="M83 1281q25 -131 55 -973l232 151l7 795q-22 186 -101 198zM141 117l5 -257l226 126v294z" />
    <glyph glyph-name="quotedbl" unicode="&#x22;" horiz-adv-x="519" 
d="M-79 1226q-10 -19 4 -32q171 -143 64 -260q-9 -30 24 -36q416 201 120 476h-20zM261 1226q-10 -19 4 -32q171 -143 64 -260q-9 -30 24 -36q416 201 120 476h-20z" />
    <glyph glyph-name="numbersign" unicode="#" horiz-adv-x="953" 
d="M53 544l-63 -142h226l-81 -350l147 59l68 291h179l-81 -350l150 64l65 286h157l58 142h-183l45 223h165l58 143h-191l74 341l-145 -59l-62 -282l-179 -1l72 342l-151 -58l-55 -284h-188l-63 -142h219l-46 -223h-195zM606 767l-45 -223h-179l45 223h179z" />
    <glyph glyph-name="dollar" unicode="$" horiz-adv-x="1048" 
d="M431 249q-80 26 -138 93.5t-69.5 107t7.5 72.5l-17 23l-164 -147q-26 -75 51.5 -178t183.5 -154q63 -32 144 -48l-1 -360l157 -99v450q93 13 151 65q85 74 175.5 217t86.5 234t-79 179q-74 85 -335 144v262q4 -2 8 -3q135 -53 103 -110l23 -4l159 157q-49 92 -141 137
q-65 32 -152 29v385l-150 109l-2 -539q-44 -19 -96 -46q-96 -60 -149 -120t-68 -184t67 -212q66 -72 245 -105v-355zM431 900q-131 44 -146 102q-14 108 103 134q21 4 44 6zM585 557q174 -48 214 -93q51 -77 35.5 -133.5t-72 -90.5t-177.5 -26v343z" />
    <glyph glyph-name="percent" unicode="%" horiz-adv-x="1169" 
d="M86 1186q-44 -63 -62 -126.5t-6 -159t92 -184.5t128 -89t151 115q40 43 70.5 92.5t44.5 139.5t-24 200q-96 180 -244 159q-106 -84 -150 -147zM364 1090q48 -112 21 -232t-119 -79.5t-122.5 145.5t-19.5 196.5t101.5 86.5t138.5 -117zM700 555q-44 -63 -62 -126.5
t-6 -159t92 -184.5t128 -89t151 115q40 43 70.5 92.5t44.5 139.5t-24 200q-96 180 -244 159q-106 -84 -150 -147zM978 459q48 -112 21 -232t-119 -79.5t-122.5 145.5t-19.5 196.5t101.5 86.5t138.5 -117zM666 1279q-153 -635 -452 -1446l63 -13q53 111 203 244
q99 516 426 1417l-52 -14z" />
    <glyph glyph-name="ampersand" unicode="&#x26;" horiz-adv-x="1207" 
d="M282 1224q-135 -109 -145.5 -240t114.5 -275q-191 -237 -187 -366t98 -230.5t309 -115.5q152 197 172 209q106 -142 260 -213q110 -12 292 346l-28 27q-27 -61 -92 -93q-116 -9 -260 167l337 472l-9 18l-345 -1l-153 -250l22 -25q46 58 244 35q-126 -180 -149 -210
q-404 502 -431 552t-17 108.5t67.5 75.5t121 -24t71.5 -149.5t-74 -186.5l24 -32q209 117 213 251t-64 196t-162 62.5t-229 -108.5zM607 243q-133 -79 -288.5 36.5t-23.5 377.5z" />
    <glyph glyph-name="quotesingle" unicode="'" horiz-adv-x="168" 
d="M-86 1236q-10 -19 4 -32q171 -143 64 -260q-9 -30 24 -36q416 201 120 476h-20z" />
    <glyph glyph-name="parenleft" unicode="(" horiz-adv-x="455" 
d="M228 1264q-92 -197 -124.5 -473t32.5 -601.5t176 -555.5l192 94q-238 401 -250.5 919t210.5 981l-13 45q-131 -212 -223 -409z" />
    <glyph glyph-name="parenright" unicode=")" horiz-adv-x="440" 
d="M217 42q92 197 124.5 473t-32.5 601.5t-176 555.5l-166 -116q212 -379 224.5 -897t-210.5 -981l13 -45q131 212 223 409z" />
    <glyph glyph-name="asterisk" unicode="*" horiz-adv-x="318" 
d="M103 1326l5 -113l-102 115l-26 -80l83 -88h-116l-41 -81l151 12l-93 -72l23 -103l119 125l-11 -132l96 -42l-14 176l125 -131l23 99l-98 80l127 -1l43 89l-177 -19l85 83l-22 81l-105 -108l11 155z" />
    <glyph glyph-name="plus" unicode="+" horiz-adv-x="747" 
d="M258 243l-15 11q34 34 24 322q-272 5 -306 -29l-11 15l147 158l176 -4l-1 204l162 136l9 -22q-35 -29 -32 -320q301 -2 330 33l22 -9l-136 -162l-217 6v-192z" />
    <glyph glyph-name="comma" unicode="," horiz-adv-x="326" 
d="M-14 166q-10 -19 4 -32q171 -143 64 -260q-9 -30 24 -36q416 201 120 476h-20z" />
    <glyph glyph-name="hyphen" unicode="-" horiz-adv-x="708" 
d="M-46 562l10 -15q33 34 632 29l129 162l-21 9q-27 -35 -611 -27z" />
    <glyph glyph-name="hyphen" unicode="&#x2010;" horiz-adv-x="708" 
d="M-46 562l10 -15q33 34 632 29l129 162l-21 9q-27 -35 -611 -27z" />
    <glyph glyph-name="period" unicode="." horiz-adv-x="307" 
d="M-13 155q98 -81 141 -171l199 134q-52 152 -165 190z" />
    <glyph glyph-name="slash" unicode="/" horiz-adv-x="479" 
d="M296 1353q-92 -721 -321 -1655l69 -7q45 129 192 293q47 584 296 1620l-54 -21z" />
    <glyph glyph-name="zero" unicode="0" horiz-adv-x="1001" 
d="M223.5 1048.5q-75.5 -119.5 -106 -240.5t-10.5 -302t157.5 -349t220 -168.5t258.5 217.5q69 83 120.5 176t76 264t-42.5 380q-163 341 -416 301q-182 -159 -257.5 -278.5zM699.5 866q82.5 -213 36.5 -440t-204 -151t-210.5 276t-33.5 373t174 164t237.5 -222z" />
    <glyph glyph-name="one" unicode="1" horiz-adv-x="477" 
d="M9 1044l33 -32l80 64q25 -106 13.5 -554.5t98.5 -532.5q65 79 174 151q-78 122 -62 1173l-39 18z" />
    <glyph glyph-name="two" unicode="2" horiz-adv-x="937" 
d="M192 1221q-121 -123 -136.5 -268.5t73.5 -256.5l196 186q-105 123 -80.5 225.5t127 81.5t200.5 -136.5t15 -281.5l-106 -135l-458 -588l46 -50q85 27 379 6t352.5 41.5t103.5 257.5l-25 12q-60 -93 -273 -70t-317 9l474 619q86 113 18.5 283.5t-268 179t-321.5 -114.5z
" />
    <glyph glyph-name="three" unicode="3" horiz-adv-x="1037" 
d="M252 1320l-135 -202l15 -28l537 1l-261 -299l32 -36q117 33 198.5 -28t149.5 -218.5t-50.5 -259t-231 -35t-214 165.5t11.5 253l-32 25q-289 -234 -168.5 -423t282.5 -233.5t264 36.5t231 249.5t103 394.5q-28 133 -128 195q-85 85 -181 80l250 325l-22 37h-651z" />
    <glyph glyph-name="four" unicode="4" horiz-adv-x="1006" 
d="M257 1158q125 -71 -223 -895l36 -40q58 34 421 42q-22 -270 80 -349l210 126q-89 71 -83 230l208 -1l114 155l-17 32l-299 -2q35 251 -55 387l-189 -129q59 -142 27 -258l-299 5q400 581 372 728.5t-94 155.5z" />
    <glyph glyph-name="five" unicode="5" horiz-adv-x="977" 
d="M146 1088l-20 -379l34 -18q192 161 394 10q229 -175 227 -308t-103.5 -185.5t-239.5 7.5t-187 127.5t-5 170.5l-39 13l-169 -269q124 -225 288.5 -251.5t240 9t149.5 132.5t159.5 216t39 280t-207 265t-385.5 40l1 187l387 3l166 148l-21 36l-509 -3z" />
    <glyph glyph-name="six" unicode="6" horiz-adv-x="983" 
d="M301.5 1114q-132.5 -171 -173 -344.5t-28.5 -326t88.5 -248.5t167.5 -147.5t165 -55t132.5 53t110.5 129.5t129 223t11.5 289.5t-174.5 193t-268 -35t-221 -242.5q-6 259 63 374.5t122 134.5t139 16t124 -93l148 161q4 74 -95.5 114.5t-203.5 7.5t-236.5 -204zM711.5 568
q98.5 -163 48.5 -273.5t-157 -91.5t-206.5 114t-135.5 226q102 124 227 156t223.5 -131z" />
    <glyph glyph-name="seven" unicode="7" horiz-adv-x="719" 
d="M-24 1077l13 -35q119 72 571 44q-249 -571 -283.5 -778t93.5 -332l157 218q-59 107 -62.5 212.5t42.5 239.5t264 652l-19 19l-624 5z" />
    <glyph glyph-name="eight" unicode="8" horiz-adv-x="899" 
d="M303.5 1236.5q-67.5 -118.5 -126.5 -215t-31 -180.5t144 -165q-228 -190 -216.5 -338t149.5 -259t315 -89q188 224 261 328.5t44 234t-249 258.5q222 185 165.5 347.5t-222.5 179.5t-233.5 -101.5zM606.5 1024q53.5 -106 -60.5 -181q-59 28 -160 87.5t-99.5 136.5t134 70
t186 -113zM630 436q81 -89 45 -167.5t-181 -55t-209 176t41 254.5q223 -119 304 -208z" />
    <glyph glyph-name="nine" unicode="9" horiz-adv-x="928" 
d="M704 222q127 184 154.5 354.5t1 315.5t-103 241t-146 146t-127.5 53.5t-137 -48.5t-160 -147.5t-112 -233t19.5 -256t181 -178.5t249 21t165.5 224q27 -252 -23.5 -369t-103.5 -133.5t-133 6.5t-118 98l-160 -186q-4 -74 95.5 -114.5t215 -9t242.5 215.5zM252 780.5
q-83 151.5 -43 255.5t163 102.5t199.5 -110.5t100.5 -278q-47 -87 -192 -104t-228 134.5z" />
    <glyph glyph-name="colon" unicode=":" horiz-adv-x="424" 
d="M37 545q92 -77 140 -167q168 112 188.5 140t-10.5 94t-119 93zM47 145q92 -77 140 -167q168 112 188.5 140t-10.5 94t-119 93z" />
    <glyph glyph-name="semicolon" unicode=";" horiz-adv-x="429" 
d="M45 545q92 -77 140 -167q168 112 188.5 140t-10.5 94t-119 93zM62 180q-10 -19 4 -32q152 -157 45 -274q-9 -30 24 -36q416 201 120 476h-20z" />
    <glyph glyph-name="less" unicode="&#x3c;" horiz-adv-x="585" 
d="M541 400l-380 325l415 297l-33 49l-569 -387l-1 -35l452 -392z" />
    <glyph glyph-name="equal" unicode="=" horiz-adv-x="770" 
d="M-9 672l10 -15q33 34 632 29l129 162l-21 9q-27 -35 -611 -27zM-9 462l10 -15q33 34 632 29l129 162l-21 9q-27 -35 -611 -27z" />
    <glyph glyph-name="greater" unicode="&#x3e;" horiz-adv-x="613" 
d="M45 928l380 -325l-415 -297l33 -49l569 387l1 35l-452 392z" />
    <glyph glyph-name="question" unicode="?" horiz-adv-x="725" 
d="M212 1200l-150 89l-149 -201l207 -152l8 15l136 185q84 50 170 -14t90.5 -169.5t-150.5 -178.5t-160 -165l7 -298l235 161l2 255q231 112 266.5 250t-40 242.5t-187.5 119.5t-165.5 -23t-119.5 -116zM464 361l-242 -155l1 -226l236 133z" />
    <glyph glyph-name="at" unicode="@" horiz-adv-x="1341" 
d="M415.5 1041q-108.5 -85 -213.5 -226t-133.5 -282.5t21 -282t187 -255t224.5 -97t327 262.5l-46 26q-167 -167 -344.5 -27t-174.5 330.5t68.5 314t177.5 163.5t245 28.5t212 -76t110 -228.5t-35.5 -247.5t-127 -5.5t-52.5 480l-271 3q-213 -168 -241.5 -332t65 -271.5
t162.5 -76t151 124.5q35 -127 173 -122q337 172 374.5 364.5t-42 339.5t-245 201.5t-314.5 15t-257.5 -124.5zM689 760q-13 -273 17 -330q-204 -61 -220 86.5t48 243.5h155z" />
    <glyph glyph-name="A" unicode="A" horiz-adv-x="1123" 
d="M485.5 1321q-31.5 -23 -214.5 -258l42 -32q61 76 100.5 99.5t57.5 -60.5l-153 -442h-92l-204 -201l19 -32q104 23 181 16q-50 -136 -94 -215.5t-127 -152.5l15 -45l324 1l144 189l-15 18l-247 1q72 36 146 204l198 2l100 107q131 -372 191 -445.5t126 -89.5l155 182
q-118 27 -287 562.5t-201 575.5t-82.5 39.5t-82 -23.5zM635 620l-197 1l98 287z" />
    <glyph glyph-name="B" unicode="B" horiz-adv-x="992" 
d="M347 1223q-29 82 -96 107l-184 -161l12 -42q77 30 63 -418q-27 -398 -6 -503.5t175 -183.5t306 17t207.5 162.5t75 126.5t22.5 150t-55 206.5t-252 141.5q209 149 179.5 302t-140 188t-178 3t-129.5 -96zM588 1062q28 -114 -33 -226q-138 1 -192 -54l4 366
q31 71 112 49.5t109 -135.5zM485 746q87 10 165.5 -104t66 -239.5t-73 -203t-144.5 -35.5t-124.5 134.5t-15.5 338.5q39 99 126 109z" />
    <glyph glyph-name="C" unicode="C" horiz-adv-x="961" 
d="M397 1283q-102 -57 -204.5 -218.5t-130 -348.5t22 -323.5t137 -236t214 -141.5t245.5 5t250 221l-42 41q-137 -152 -345.5 -31.5t-272.5 358t1.5 397t214.5 162.5t195.5 -70t11.5 -123l31 -16l180 151q23 58 -44 140.5t-214.5 86t-249.5 -53.5z" />
    <glyph glyph-name="D" unicode="D" horiz-adv-x="1090" 
d="M34 1155l15 -34q78 23 104 -100l-2 -633q1 -172 82 -273t222.5 -117.5t218 55t147 167.5t130.5 222t56.5 350t-189.5 437q-81 93 -226 113l-202 -219q-16 144 -131 216zM661 1024q93 -95 130 -341.5t-69 -481.5q-102 -70 -211.5 -11.5t-124.5 243.5l3 598q62 76 120.5 82
t151.5 -89z" />
    <glyph glyph-name="E" unicode="E" horiz-adv-x="1028" 
d="M469.5 1325q-63.5 -17 -164 -90.5t-173 -221t105.5 -326.5q-210 -179 -161 -399q59 -229 431 -294q392 205 447 409t-131 320l-185 -235q149 -118 121.5 -206t-162.5 -78t-262 136t-42 314q57 -23 136 -31l197 208l-18 22q-228 0 -286.5 58.5t-49 152.5t105 113t183 -23
t74.5 -118l22 -15l169 183q-15 41 -75.5 87t-139.5 48.5t-142.5 -14.5z" />
    <glyph glyph-name="F" unicode="F" horiz-adv-x="778" 
d="M42 1125l16 -32q77 58 79 -62l-1 -866q11 -150 156 -175l161 157q-88 73 -84 201v328l227 4l127 169l-25 25h-221l-102 -141l1 370l301 -1l168 186l-7 35h-351l-127 -181q0 149 -108 191z" />
    <glyph glyph-name="G" unicode="G" horiz-adv-x="1067" 
d="M447 1293.5q-73 -44.5 -139.5 -117.5t-137.5 -181.5t-106.5 -259.5t-0.5 -287t101 -224t150.5 -153t186.5 -78t231 142q17 -124 109 -149l186 169l-21 32q-43 -30 -64 40l-7 466q-13 68 31 90l-26 24l-367 1l-138 -228l25 -21q29 53 258 34l2 -367q-244 19 -375 203
t-134 329.5t43.5 228.5t144.5 125t212 -6t81 -114l22 -19l215 150q-76 134 -147.5 175t-166.5 40.5t-168 -45z" />
    <glyph glyph-name="H" unicode="H" horiz-adv-x="1115" 
d="M695 1197q27 -46 32 -126l1 -231l-274 1l-78 -91l6 472q-14 79 -67 116l-211 -135q27 -47 32 -126q-11 -896 6.5 -965.5t102.5 -111.5l236 167l-16 43q-53 -15 -74 40.5t-15 437.5l345 1q-5 -513 12.5 -582.5t102.5 -112.5l236 167l-16 43q-53 -14 -74 41t-9 971
q-14 79 -67 116z" />
    <glyph glyph-name="I" unicode="I" horiz-adv-x="502" 
d="M66 1168l14 -29q52 17 57 -69q-11 -899 6.5 -968.5t102.5 -112.5l213 168l-33 31q-36 -3 -57 52.5t-9 975.5q-14 79 -67 116z" />
    <glyph glyph-name="J" unicode="J" horiz-adv-x="966" 
d="M123 1104l19 -27q82 54 484 41l-1 -747q5 -152 -12 -186q-103 10 -204 55.5t-164.5 136.5t-6.5 250l-30 5l-187 -243q48 -207 171 -296.5t312 -97.5q287 210 348 407l-4 736q-9 119 41 157l-15 29h-584z" />
    <glyph glyph-name="K" unicode="K" horiz-adv-x="1032" 
d="M575 1164q135 -209 -199 -446l-14 472q-9 89 -94 143l-210 -175l4 -25q51 -14 63 -109v-820q10 -101 64 -154t89 -54q196 129 206 132l-18 37q-90 1 -92 81l-2 378q120 15 333 -514q64 -125 176 -123l165 155l-15 37q-99 -16 -209 269t-248 329q380 319 216 560z" />
    <glyph glyph-name="L" unicode="L" horiz-adv-x="886" 
d="M60 1179l14 -28q54 2 60 -141l1 -795q1 -169 91 -220l182 130q79 56 148.5 -31t156.5 -102l197 153l-19 33q-49 0 -70 26t-77.5 91.5t-154.5 52.5l-199 -167q-19 62 -17 120l-2 803q-11 175 -112 220z" />
    <glyph glyph-name="M" unicode="M" horiz-adv-x="1579" 
d="M42 1065l24 -47q77 65 68 -133q-10 -623 3.5 -719t100.5 -169l215 216v34q-80 -18 -91 134.5t1 551.5q133 167 225 119t91 -351q-6 -432 1.5 -535t89.5 -179l208 222l-5 33q-82 -24 -62 720q125 138 217 90t91 -351q-6 -432 1.5 -535t89.5 -179l213 228l-5 33
q-54 -23 -70.5 130t-5.5 456q7 185 -22 297t-123.5 163.5t-175.5 -3t-133.5 -115t-86.5 -111.5q-50 178 -144.5 229.5t-175.5 -3t-133.5 -115t-80.5 -105.5q9 177 -71 252z" />
    <glyph glyph-name="N" unicode="N" horiz-adv-x="1107" 
d="M34 1067l25 -48q80 65 71 -132q-10 -625 4 -721t105 -169l226 213v34q-72 -21 -90 135t-10 498l374 -590q-1 -51 9.5 -136t81.5 -155l219 225l-5 34q-57 -24 -72.5 131t-4.5 458v137l2 196q0 91 -64 159l-246 -249l16 -47q72 37 63 -87l-1 -412l-373 605q19 103 -65 179z
" />
    <glyph glyph-name="O" unicode="O" horiz-adv-x="1033" 
d="M187.5 1047.5q-80.5 -119.5 -113 -240.5t-11 -301.5t168 -348.5t234.5 -168.5t276 216.5q73 83 128 176t81 264t-45 380q-174 341 -444 301q-194 -159 -274.5 -278.5zM695 865.5q88 -212.5 39 -439.5t-217.5 -151t-224.5 275.5t-35.5 373t185.5 164t253 -222z" />
    <glyph glyph-name="P" unicode="P" horiz-adv-x="979" 
d="M72 1126l10 -33q81 73 54 -401l-85 -73q31 -33 88 -79q-23 -387 28 -478.5t138 -116.5l183 192l-19 35q-100 -41 -98 270q92 -37 221 30.5t225.5 173t120.5 225.5t-52 270.5t-301 193.5l-201 -192q-2 110 -84 178zM683 943.5q77 -155.5 36 -262t-153.5 -97t-181.5 126.5
l1 347l75 58q146 -17 223 -172.5z" />
    <glyph glyph-name="Q" unicode="Q" horiz-adv-x="1211" 
d="M448.5 1282q-85.5 -57 -145 -123.5t-107 -122.5t-103 -190.5t-27.5 -362t218 -419.5t440 80l119 -199q59 -108 121 -109l258 246l-26 49q-91 -75 -159 -8l-129 216q136 295 121 452t-87.5 287t-162 186t-167.5 65.5t-163.5 -47.5zM556 1125.5q93 -52.5 180.5 -187
t120.5 -269t-13 -242.5q-182 260 -456 -73q-70 73 -122 252.5t14 362.5q34 136 108.5 172.5t167.5 -16zM585 326q53 -30 110 -131q-166 -37 -260 98q97 63 150 33z" />
    <glyph glyph-name="R" unicode="R" horiz-adv-x="1044" 
d="M361 1092q81 87 190.5 36t83 -182t-120.5 -176l-153 -86v408zM359 1174q-18 112 -103 159l-198 -168l4 -23q51 -15 63 -109v-820q10 -101 58 -154t83 -54q196 129 206 132l-18 38q-90 1 -92 80l1 358q170 46 330 -494q64 -125 176 -123l182 178l-15 36
q-122 -63 -208.5 232t-262.5 289q204 56 258 183.5t8 257.5t-214 156.5t-258 -154.5z" />
    <glyph glyph-name="S" unicode="S" horiz-adv-x="960" 
d="M322.5 1243q-71.5 -62 -121.5 -131t-52.5 -173t66.5 -184t239.5 -160.5t245 -191.5t9 -172.5t-161.5 -42t-183 73t-127.5 147t4.5 156.5l-25 19l-162 -186q-19 -78 44.5 -179t177 -168.5t250.5 -49.5t259 189.5t119.5 275.5t-74.5 193t-279 175t-231.5 181t60 119
t175.5 -25.5t64 -127.5l14 -23l157 175q-16 102 -121 157.5t-190 35t-156.5 -82.5z" />
    <glyph glyph-name="T" unicode="T" horiz-adv-x="823" 
d="M-26 1118l21 -16q53 45 420 27q-52 -56 -93 -105l4 -854q36 -153 162 -180l168 153l-15 34q-77 -2 -94 153l4 802h209l177 173l-18 21h-806z" />
    <glyph glyph-name="U" unicode="U" horiz-adv-x="1060" 
d="M1010 167l-25 48q-80 -66 -77 214q10 631 -4 728t-91 168l-220 -164v-35q72 22 84 -35q26 -284 7 -712q-139 -170 -235 -121t-95 355q6 436 -1.5 540.5t-93.5 181.5l-216 -173l5 -34q74 18 84 -41l4 -605q-8 -188 22.5 -301t122 -167t176 1.5t139 117t83.5 106.5
q-10 -179 74 -255z" />
    <glyph glyph-name="V" unicode="V" horiz-adv-x="1023" 
d="M438 1088l19 -34q116 133 212.5 -63.5t91 -399t-93.5 -322.5q-85 -14 -418 992q-23 86 -80 33l-192 -277l8 -25q57 67 115 -74l299 -822q86 -161 172.5 -65t160 221t171 357t16.5 469t-200.5 297t-280.5 -287z" />
    <glyph glyph-name="W" unicode="W" horiz-adv-x="1455" 
d="M873 1100l19 -33q116 135 212.5 -65t91 -407t-93.5 -330q-85 -14 -418 1012q-23 88 -80 34l-192 -283l8 -25q57 68 115 -76l204 -561l-67 -99q-85 -15 -418 1011q-23 90 -80 35l-192 -283l8 -26q57 69 115 -76l299 -838q86 -164 172.5 -66t183.5 264l74 -200
q86 -163 172.5 -65t160 225t171 364t16.5 478.5t-200.5 302.5t-280.5 -293z" />
    <glyph glyph-name="X" unicode="X" horiz-adv-x="1132" 
d="M21 1096l22 -24q37 36 169 26l200 -378q-285 -312 -295 -453t65 -209t134 -62l176 226l-16 26q-122 -14 -175.5 89.5t167.5 300.5q336 -650 483 -646l170 223l-19 31q-69 -55 -414 540l415 494l-15 41l-327 -2l-177 -227l22 -23q67 39 246 31l-219 -245l-242 464h-225z
" />
    <glyph glyph-name="Y" unicode="Y" horiz-adv-x="858" 
d="M560 1279q112 -82 116 -212.5t-138 -218.5l-219 344q-92 147 -135 133l-214 -180l26 -29q30 35 79 10l263 -427l4 -476q-9 -167 100 -234l212 155l-10 32q-54 -8 -63 78v515q296 258 314 433t-158 251z" />
    <glyph glyph-name="Z" unicode="Z" horiz-adv-x="973" 
d="M60 1062l23 -21q26 89 607 54l-203 -329q-219 46 -295 -32l-66 -124q130 103 288 49q-294 -405 -366 -621l48 -28q121 53 384 7t323.5 34.5t124.5 238.5l-34 23q-68 -77 -580 -3l201 305q100 -53 239 4l67 132q-164 -85 -247 -35l349 567l-21 40l-692 -3z" />
    <glyph glyph-name="bracketleft" unicode="[" horiz-adv-x="515" 
d="M72 1346l-1 -1725l387 -1l110 162l-340 1v1703l229 1l120 155h-249z" />
    <glyph glyph-name="backslash" unicode="\" horiz-adv-x="524" 
d="M239 1353q92 -721 321 -1655l-69 -7q-45 129 -192 293q-47 584 -296 1620l54 -21z" />
    <glyph glyph-name="bracketright" unicode="]" horiz-adv-x="570" 
d="M511 -219l-178 -161h-335l100 158l240 -2v1706l-329 1l100 157h402v-1859z" />
    <glyph glyph-name="asciicircum" unicode="^" horiz-adv-x="518" 
d="M400 1418q-139 6 -183 153l-150 -121l-35 39l271 239q76 -160 208 -178z" />
    <glyph glyph-name="underscore" unicode="_" horiz-adv-x="976" 
d="M-135 -388l14 -11q24 24 1137 13l88 115l-23 6q-18 -25 -1117 -12z" />
    <glyph glyph-name="grave" unicode="`" horiz-adv-x="395" 
d="M262 1442l137 154q-126 -22 -290 153l-117 -121q182 -197 270 -186z" />
    <glyph glyph-name="a" unicode="a" horiz-adv-x="1001" 
d="M231 808q-156 -103 -66 -273l223 130q-99 152 85.5 156.5t161.5 -249.5l-323 -5l-249 -280q-10 -123 87.5 -209t193.5 -82t164 46t134 119q24 -138 163 -164l177 193l-12 24q-81 -17 -103 93l1 354q-11 135 -99 186.5t-235 57.5t-303 -97zM634 409v-180
q-36 -46 -167 -40.5t-237 184.5l37 35z" />
    <glyph glyph-name="b" unicode="b" horiz-adv-x="989" 
d="M68 1284q49 -28 41 -443t5 -524t177 -238.5t283.5 -53t216.5 177.5t121.5 259.5t-33 284t-225 155t-313.5 -149.5q11 535 -18 601.5t-48 71.5zM603.5 680q71.5 -55 84 -196.5t-57.5 -314.5q-161 -61 -236.5 38t-46.5 459q30 45 107.5 57t149 -43z" />
    <glyph glyph-name="c" unicode="c" horiz-adv-x="848" 
d="M376 831.5q-49 -31.5 -101 -73.5q-359 -276 -125 -609q66 -81 134 -116.5t162.5 -36t194 91.5t164.5 188l-32 28q-25 -33 -65 -69.5t-103.5 -37t-137.5 48.5q-224 125 -176 384q27 109 152 76q107 -40 148 -166l196 154q-3 87 -65.5 136.5t-123.5 63.5t-117 -8.5
t-105 -54z" />
    <glyph glyph-name="d" unicode="d" horiz-adv-x="1006" 
d="M796 1425l-195 -134q47 -84 41 -427q-73 37 -136 32.5t-141 -57.5t-168.5 -141.5t-121.5 -249t61.5 -307.5t200.5 -151.5t321 214.5q0 -142 124 -218l174 147q-105 58 -88 667t-72 625zM514 563l132 114v-59l4 -25v-309l-12 -4q-28 -62 -132 -69.5t-188 132t-21 351.5
q156 13 217 -131z" />
    <glyph glyph-name="e" unicode="e" horiz-adv-x="837" 
d="M258 792q-136 -121 -174 -283.5t23.5 -302t228.5 -198.5q136 -45 283 64.5t193 205.5l-30 24q-202 -139 -321.5 -92t-140.5 106l217 142q211 131 190 269t-177 162t-292 -97zM296.5 716.5q54.5 53.5 143.5 -0.5t75 -143.5t-225 -202.5q-23 51 -33 99t-12.5 121t52 126.5z
" />
    <glyph glyph-name="f" unicode="f" horiz-adv-x="644" 
d="M320.5 1307.5q-76.5 -80.5 -156.5 -273.5l29 -214l-166 -225l32 -30q61 64 148 70l-5 -415q13 -70 -131 -189l18 -33h286l160 191l-10 19l-209 -4q104 76 72 426l75 2l164 208l-24 14l-217 5l-39 293q-6 109 91 80t60 -170l18 -20l197 212q-29 178 -172.5 156
t-220 -102.5z" />
    <glyph glyph-name="g" unicode="g" horiz-adv-x="1007" 
d="M609 1053q135 -67 90 -180q-154 43 -225 12.5t-160.5 -86t-160 -142.5t-80.5 -207q21 -244 315 -232q-10 -87 60 -88.5t222 -33.5t120.5 -126t-196 -93.5t-283 77.5t-86.5 130l-21 35l-208 -202q112 -203 340 -236.5t318 30.5t128.5 129t73.5 103.5t116 174.5
q9 169 -187 191t-175.5 47.5t139.5 146t-6 324.5q207 166 183 295t-111 152zM587 577q65 -181 -100 -184q-152 26 -206 167q-40 127 57 154q181 9 249 -137z" />
    <glyph glyph-name="h" unicode="h" horiz-adv-x="977" 
d="M86 1270q25 -51 29 -137q-4 -946 13.5 -1017.5t71.5 -135.5l212 198v24q-67 -15 -85 75t-7 367q147 113 235.5 79.5t87.5 -243.5q-5 -300 2 -371.5t86 -124.5l202 184l1 25q-52 -16 -69 76.5t-7 302.5q7 129 -21 206.5t-119 113.5t-169 -2t-128.5 -80t-96.5 -70l-4 542
q-13 86 -62 126z" />
    <glyph glyph-name="i" unicode="i" horiz-adv-x="465" 
d="M26 1143q93 -64 141 -154q168 112 188.5 140t-10.5 94t-119 93zM113 504q-5 -313 2 -387.5t89 -123.5l199 186l1 26q-55 -2 -67.5 75t-7 266t3 247.5t-54.5 117.5l-237 -164l16 -28q85 48 56 -215z" />
    <glyph glyph-name="j" unicode="j" horiz-adv-x="473" 
d="M29 1143q89 -64 134 -154q160 112 179.5 140t-10 94t-112.5 93zM141 514l4 -480q-2 -104 -26.5 -165.5t-166.5 -191.5l24 -35q292 172 346.5 287t41 275t-7.5 347t3.5 244.5t-58.5 116.5l-251 -162l17 -28q90 48 74 -208z" />
    <glyph glyph-name="k" unicode="k" horiz-adv-x="985" 
d="M96 1277q26 -50 30 -135q-11 -966 5.5 -1041t84.5 -121l234 175l-30 33q-53 -44 -65 36.5t-7 452.5q93 77 159.5 68t81 -65.5t-35.5 -108.5t-190 -115v-65q84 98 192.5 -125t198.5 -280l253 197l-29 25q-75 -52 -180.5 115.5t-174.5 194.5q126 65 172.5 140t5 152.5
t-114.5 87.5t-142 -21t-199 -133v554q-13 85 -63 125z" />
    <glyph glyph-name="l" unicode="l" horiz-adv-x="487" 
d="M96 1238q25 -48 29 -131q-10 -937 6 -1009.5t94 -117.5l256 184l-30 32q-67 -14 -99.5 45t-21.5 1018q-13 82 -62 121z" />
    <glyph glyph-name="m" unicode="m" horiz-adv-x="1511" 
d="M36 736l23 -33q74 45 66 -92q-10 -433 3 -499.5t97 -117.5l212 184v24q-67 -15 -85 75t-7 367q128 116 216.5 82.5t87.5 -243.5q-5 -300 2 -371.5t86 -124.5l208 186l-5 23q-71 -19 -67 448q130 116 218.5 82.5t87.5 -243.5q-5 -300 2 -371.5t86 -124.5l208 186l-5 23
q-52 -16 -69 76.5t-7 302.5q7 129 -21 206.5t-119 113.5t-169 -2t-128.5 -77t-93.5 -86q0 23 -24 76t-115 89t-169 -2t-128.5 -80t-77.5 -73q9 123 -68 175z" />
    <glyph glyph-name="n" unicode="n" horiz-adv-x="981" 
d="M36 736l23 -33q74 45 66 -92q-10 -433 3 -499.5t97 -117.5l212 184v24q-67 -15 -85 75t-7 367q128 116 216.5 82.5t87.5 -243.5q-5 -300 2 -371.5t86 -124.5l208 186l-5 23q-52 -16 -69 76.5t-7 302.5q7 129 -21 206.5t-119 113.5t-169 -2t-128.5 -80t-77.5 -73
q9 123 -68 175z" />
    <glyph glyph-name="o" unicode="o" horiz-adv-x="909" 
d="M177.5 713.5q-69.5 -81.5 -97.5 -164t-9.5 -206.5t145.5 -239t203 -115.5t239 148.5q63 57 110.5 121t70 181t-38.5 260q-151 233 -385 206q-168 -110 -237.5 -191.5zM583 565q74 -143 49.5 -287.5t-153.5 -74.5t-194 188.5t-47.5 237.5t144.5 99t201 -163z" />
    <glyph glyph-name="p" unicode="p" horiz-adv-x="978" 
d="M85 705l10 -32q81 70 54 -383l-85 -70q31 -32 88 -76q-23 -370 28 -457.5t138 -111.5l183 184l-19 33q-126 -42 -109 265q112 -31 214 28t197 179t122 207.5t-28 240t-280 193.5l-210 -181q7 103 -75 168zM679.5 510q60.5 -169 -6 -273.5t-285.5 45.5l-2 381l87 32
q146 -16 206.5 -185z" />
    <glyph glyph-name="q" unicode="q" horiz-adv-x="1010" 
d="M635 1129l5 -17q167 -1 50 -238q-77 39 -138 34t-130.5 -39.5t-141 -92t-131.5 -138.5t-84 -229.5t64 -257.5t233 -155q171 70 227 147q-20 -464 61 -527l368 294l-33 58q-150 -138 -155 -24l6 740q-16 120 -74 142q94 101 132.5 149t61 106.5t1.5 132.5t-102 97z
M593 644l1 -425q-40 -34 -92 -16q-283 149 -239.5 343t153.5 205.5t177 -107.5z" />
    <glyph glyph-name="r" unicode="r" horiz-adv-x="736" 
d="M36 736l23 -33q74 45 66 -92q-10 -433 3 -499.5t97 -117.5l212 184v24q-67 -15 -85 75t-7 367q128 116 225 -23l181 167q-114 151 -206 117t-196 -165q9 123 -68 175z" />
    <glyph glyph-name="s" unicode="s" horiz-adv-x="845" 
d="M315 842q-66 -42 -112.5 -88.5t-70.5 -130t42.5 -143.5t220.5 -92t204.5 -78t55 -86t-32 -54.5t-110.5 -3.5t-142.5 46t-117 84t-7.5 92l-23 14l-155 -134q-18 -52 40.5 -121t148.5 -107t184 -43.5t188 55.5t138 141t35 160t-61.5 141t-225 109t-200 104.5t43 67
t167.5 -37t64 -90.5l13 -15l149 142q-15 68 -88.5 105t-177.5 21t-170 -58z" />
    <glyph glyph-name="t" unicode="t" horiz-adv-x="693" 
d="M179 1169q59 6 33 -325l-65 -1l-144 -197l31 -28q47 53 172 47q-18 -432 0.5 -517.5t117.5 -154.5q137 71 329 228l-18 78q-215 -109 -227.5 -18t-2.5 384h125l131 162l-8 20l-244 3l11 336q-11 86 -59 127z" />
    <glyph glyph-name="u" unicode="u" horiz-adv-x="982" 
d="M949 166l-23 33q-66 -13 -66 92q10 433 -3 499.5t-97 117.5l-212 -184l10 -18q59 29 76 -71t6 -377q-128 -116 -216.5 -82.5t-87.5 243.5q5 300 -2 371.5t-86 124.5l-208 -186l19 -23q38 28 51 -75.5t5 -313.5q-9 -129 23 -201.5t123 -108.5t169 2t128.5 80t77.5 73
q-9 -123 68 -175z" />
    <glyph glyph-name="v" unicode="v" horiz-adv-x="1025" 
d="M454 736l19 -22q116 89 212.5 -44t91 -270.5t-93.5 -218.5q-85 -9 -418 672q-23 60 -80 24l-192 -188l8 -17q57 46 115 -51l299 -558q86 -108 172.5 -43t160 149.5t171 242.5t16.5 318t-200.5 201t-280.5 -195z" />
    <glyph glyph-name="w" unicode="w" horiz-adv-x="1461" 
d="M884 737l19 -23q116 91 212.5 -44t91 -274t-93.5 -222q-85 -9 -418 681q-23 60 -80 24l-192 -191l8 -17q57 46 115 -51l202 -377l-75 -58q-31 -56 -408 672q-23 60 -80 23l-192 -191l8 -17q57 46 115 -51l299 -564q86 -111 172.5 -45t189.5 176l68 -132
q86 -111 172.5 -45t160 151.5t171 245t16.5 322.5t-200.5 204t-280.5 -197z" />
    <glyph glyph-name="x" unicode="x" horiz-adv-x="979" 
d="M24 715l19 -17q34 24 158 19l177 -264q-264 -174 -272.5 -269t53 -147t139.5 -42l163 156l-14 18q-113 6 -151 57t128 164l267 -351q70 -61 133 -45l152 151l-17 21q-62 -37 -360 360l337 318l-32 54l-222 -1l-174 -173l19 -16q60 26 173 15l-147 -138l-212 308l-171 1z
" />
    <glyph glyph-name="y" unicode="y" horiz-adv-x="924" 
d="M540 756q46 4 40 -98l-1 -429l-49 -56q-59 -31 -119 -19.5t-78 100.5l1 493q-18 130 -88 159l-183 -135q60 -40 56 -163l-1 -366q11 -120 91.5 -190.5t197.5 -60t182 121.5q15 -205 -4 -293.5t-161 -43.5t-288 182l-158 -183q276 -204 451.5 -145t273 131t113.5 264
l-1 662q10 144 -68 222z" />
    <glyph glyph-name="z" unicode="z" horiz-adv-x="809" 
d="M53 671l12 -22q60 43 446 33q-423 -517 -483 -664l40 -19q101 36 321 4.5t270.5 23.5t124.5 242l-28 16q-65 -81 -474 -20l477 602l-17 27h-528z" />
    <glyph glyph-name="braceleft" unicode="{" horiz-adv-x="361" 
d="M83.5 1053.5q2.5 -376.5 -12.5 -423t-57 -81.5q94 -69 93 -364t10 -399.5t93 -172.5l154 140q-111 74 -89.5 431.5t-99.5 425.5q89 49 85 399t13 446t105 174l-28 32q-269 -231 -266.5 -607.5z" />
    <glyph glyph-name="bar" unicode="|" horiz-adv-x="354" 
d="M266 1610l-1 -1707q-34 -163 -249 -316l-35 33q87 68 79 176v1706q12 111 263 336l29 -34q-86 -110 -86 -194z" />
    <glyph glyph-name="braceright" unicode="}" horiz-adv-x="395" 
d="M306.5 220.5q-2.5 376.5 12.5 423t57 81.5q-94 69 -93 364t-10 399.5t-93 172.5l-154 -140q111 -74 89.5 -431.5t99.5 -425.5q-89 -49 -85 -399t-13 -446t-105 -174l28 -32q269 231 266.5 607.5z" />
    <glyph glyph-name="asciitilde" unicode="~" horiz-adv-x="1007" 
d="M236 1144l-151 -145l40 -32l85 71q124 60 292.5 -26t251.5 15l172 166l-35 32l-71 -67q-103 -55 -277 35t-307 -49z" />
    <glyph glyph-name="exclamdown" unicode="&#xa1;" horiz-adv-x="448" 
d="M367 29q-25 131 -55 973l-232 -151l-7 -795q22 -186 101 -198zM309 1193l-5 257l-226 -126v-294z" />
    <glyph glyph-name="cent" unicode="&#xa2;" horiz-adv-x="876" 
d="M308 -396l49 -26q45 123 167 254q12 80 28 167q22 -2 46 -3q94 0 193.5 92t164.5 188l-32 28q-25 -33 -65 -69.5t-103.5 -37t-137.5 48.5q-8 4 -15 9q37 179 87 383q33 -39 52 -98l196 154q-3 87 -66 136q-60 48 -119 63q64 252 144 537l-41 -9l-153 -187
q-32 -169 -71 -349q-56 -22 -105 -53q-49 -32 -101 -74q-359 -276 -125 -609q62 -76 126 -112q-56 -211 -119 -433zM504 338q-95 114 -62 292q27 108 150 76q-41 -179 -88 -368z" />
    <glyph glyph-name="sterling" unicode="&#xa3;" horiz-adv-x="969" 
d="M841.5 1279q83.5 -56 94.5 -147l-167 -199l-31 22q32 103 -82.5 150t-213.5 -16l-33 -257l201 2l-65 -134l-155 -3l-9 -84h226l-63 -139l-182 5l-30 -243q238 -36 548 30l19 -38l-162 -234q-514 29 -626 -11l-43 29q78 118 136 455l-182 -3l48 150l156 3l6 78l-191 -3
l53 149l156 6q27 242 -43 269l136 133q60 -15 82 -95q88 123 151 153t122.5 29t143 -57z" />
    <glyph glyph-name="yen" unicode="&#xa5;" horiz-adv-x="974" 
d="M262 704l-139 -158l10 -15q20 21 256 27l1 -96q-60 0 -128 1l-139 -158l10 -15q20 21 258 27l1 -95q-9 -166 100 -233l212 154l-10 32q-54 -8 -63 77v68q63 0 134 -1l129 162l-21 9q-17 -21 -242 -27v98q63 0 134 -1l129 162l-21 9q-17 -21 -242 -27v60
q296 257 314 430.5t-158 249.5l-177 -173q112 -81 116 -211t-138 -217l-219 342q-92 146 -135 132l-214 -179l26 -29q30 35 79 10l258 -416q-57 0 -121 1z" />
    <glyph glyph-name="brokenbar" unicode="&#xa6;" horiz-adv-x="334" 
d="M248 1605l-1 -744h-205v636q12 111 263 336l29 -34q-86 -110 -86 -194zM246 695l-1 -797q-34 -163 -249 -316l-35 33q87 68 79 176v902z" />
    <glyph glyph-name="dieresis" unicode="&#xa8;" horiz-adv-x="710" 
d="M382 1565q109 -19 115 -160l187 149q6 132 -120 178zM66 1569q109 -19 115 -160l187 149q6 132 -120 178z" />
    <glyph glyph-name="copyright" unicode="&#xa9;" horiz-adv-x="616" 
d="M305 1398q83 0 161.5 -42.5t122.5 -121t44 -164.5q0 -85 -43 -163.5t-121 -121.5t-164 -43q-85 0 -163 43t-121.5 121.5t-43.5 163.5q0 86 44 164.5t123 121t161 42.5zM305 1344q-69 0 -134.5 -35.5t-102.5 -101.5t-37 -137t36.5 -136t101.5 -101.5t136 -36.5t136 36.5
t101.5 101.5t36.5 136t-37 137t-102.5 101.5t-134.5 35.5zM261 1248.5q-21 -13.5 -44 -31.5q-156 -120 -54 -265q29 -35 58.5 -50.5t70.5 -15.5t84.5 40t71.5 81l-14 12q-11 -14 -34.5 -34t-65 -28t-89 37t-50.5 99.5t19 84.5t48 31.5t60 -11t51 -61.5l67 52
q-1 38 -28.5 59.5t-54 27.5t-51 -4t-45.5 -23.5z" />
    <glyph glyph-name="ordfeminine" unicode="&#xaa;" horiz-adv-x="794" 
d="M184 1417q-120 -84 -51 -222l172 106q-76 123 66 127t125 -203l-249 -4l-192 -228q-8 -100 67 -170t149 -67t126.5 37.5t103.5 96.5q18 -112 126 -133l136 157l-9 20q-63 -14 -80 75l1 288q-8 110 -76 152t-181.5 47t-233.5 -79zM495 1092v-146q-28 -38 -129 -33.5
t-183 150.5l29 28z" />
    <glyph glyph-name="guillemotleft" unicode="&#xab;" horiz-adv-x="635" 
d="M339 171l-169 376l176 372l-65 131l-281 -573l209 -473zM609 171l-169 376l176 372l-65 131l-281 -573l209 -473z" />
    <glyph glyph-name="uni00AD" unicode="&#xad;" horiz-adv-x="875" 
d="M56 565l10 -15q33 34 632 29l129 162l-21 9q-27 -35 -611 -27z" />
    <glyph glyph-name="uni00AD" unicode="&#x2212;" horiz-adv-x="875" 
d="M56 565l10 -15q33 34 632 29l129 162l-21 9q-27 -35 -611 -27z" />
    <glyph glyph-name="registered" unicode="&#xae;" horiz-adv-x="710" 
d="M355 1394q82 0 159.5 -42t121 -120t43.5 -162t-43 -161t-120 -120t-161 -43t-161 43t-120 120t-43 161t43.5 162t121.5 120t159 42zM355 1340q-68 0 -133 -35t-101 -100t-36 -135t36 -134t100 -100t134 -36t134.5 36t100 100t35.5 134t-36 135t-101 100t-133 35z
M308 1210q25 26 58.5 10.5t25 -55.5t-36.5 -54l-47 -26v125zM307 1235q-6 34 -31 49l-61 -52l1 -7q15 -5 19 -33v-251q3 -32 18 -48t26 -16q59 39 63 40l-6 12q-27 0 -28 24v110q52 14 101 -151q20 -39 54 -38l56 54l-4 12q-38 -20 -64.5 70.5t-80.5 88.5q63 17 79.5 56.5
t2.5 79t-65.5 47.5t-79.5 -47z" />
    <glyph glyph-name="macron" unicode="&#xaf;" horiz-adv-x="1326" 
d="M0 1557l10 -15q33 34 1142 22l129 162l-21 9q-27 -35 -1121 -20z" />
    <glyph glyph-name="degree" unicode="&#xb0;" horiz-adv-x="610" 
d="M157.5 1277q-80.5 -80 -95 -205.5t71.5 -226.5t151.5 -109t115 37t113.5 155t52.5 207.5t-80.5 166t-122 79.5t-89.5 -6.5t-117 -97.5zM368 1193q69 -73 80 -159.5t-21.5 -125.5t-96 -31t-116.5 105.5t-43 168t69 93t128 -50.5z" />
    <glyph glyph-name="plusminus" unicode="&#xb1;" horiz-adv-x="911" 
d="M375 1118v-171h-160l-126 -179l278 2v-344l171 172v172h165l142 180h-311l1 316zM51 242l10 -15q33 34 632 29l129 162l-21 9q-27 -35 -611 -27z" />
    <glyph glyph-name="uni00B2" unicode="&#xb2;" horiz-adv-x="489" 
d="M229.5 1371.5q-104.5 -29.5 -162.5 -92.5t-51 -130t51 -106l146 131l-11 12q-40 -18 -57.5 30t-1 78t62.5 25.5t94.5 -116.5t-7.5 -172l-260 -273l17 -18h350l85 144l-20 6l-27 -38l-256 1q196 199 244.5 297.5t-22 174.5t-175 46.5z" />
    <glyph glyph-name="uni00B3" unicode="&#xb3;" horiz-adv-x="438" 
d="M125 1381l-123 -149l14 -16q48 51 90 38l182 2l-203 -255l16 -23q78 93 162 -2.5t-4 -216.5l-145 -163l20 -14q201 198 251 271.5t46 158t-180 147.5l157 208l-9 13z" />
    <glyph glyph-name="acute" unicode="&#xb4;" horiz-adv-x="410" 
d="M33 1442l32 -48l259 159q98 83 33 233l-231 -155q105 -87 -93 -189z" />
    <glyph glyph-name="paragraph" unicode="&#xb6;" horiz-adv-x="1363" 
d="M1359 1427l-29 31l-655 -2q-202 5 -265 0.5t-152 -35.5t-159.5 -119.5t-80.5 -211t70 -221t212.5 -110t261.5 114.5q-36 -1212 88 -1288l174 147q-105 58 -45 1516l185 1l-1 -1637l63 65l8 1572l130 2z" />
    <glyph glyph-name="periodcentered" unicode="&#xb7;" horiz-adv-x="465" 
d="M81 708q109 -19 115 -160l187 149q6 132 -120 178z" />
    <glyph glyph-name="cedilla" unicode="&#xb8;" horiz-adv-x="325" 
d="M31 -157l24 -23q31 40 88.5 28t53.5 -69t-96 -161l27 -17q170 135 177 202t-32.5 106t-92 36.5t-73.5 -17.5l27 75l-47 7z" />
    <glyph glyph-name="uni00B9" unicode="&#xb9;" horiz-adv-x="372" 
d="M31 1219l15 -25l78 46v-285q9 -100 -110 -203l11 -14h211l124 83l-13 17q-98 0 -189 -2q100 42 109 111v424l-10 13z" />
    <glyph glyph-name="ordmasculine" unicode="&#xba;" horiz-adv-x="677" 
d="M125.5 1346.5q-55.5 -65.5 -78.5 -131.5t-7.5 -165.5t116.5 -192t162.5 -92.5t192.5 120q50 44 88.5 95.5t56.5 145t-31 208.5q-121 187 -309 165q-135 -87 -190.5 -152.5zM478.5 1246.5q61.5 -116.5 27 -241.5t-151 -82.5t-155.5 151.5t-25 204t128.5 90t176 -121.5z
" />
    <glyph glyph-name="guillemotright" unicode="&#xbb;" horiz-adv-x="640" 
d="M277 883l169 -376l-176 -372l65 -131l281 573l-209 473zM7 883l169 -376l-176 -372l65 -131l281 573l-209 473z" />
    <glyph glyph-name="onequarter" unicode="&#xbc;" horiz-adv-x="985" 
d="M13 1193l18 -16l43 33q13 -55 7 -290.5t53 -279.5q46 45 105 82q-42 64 -33 616l-21 9zM533 608q70 -39 -125 -492l20 -22q33 18 235 23q-12 -148 45 -192l118 70q-50 38 -47 126h117l63 84l-10 18l-167 -1q20 138 -30 213l-106 -71q33 -78 15 -142l-167 3
q224 319 208 400.5t-53 85.5zM486 1279q-153 -635 -452 -1446l63 -13q53 111 203 244q99 516 426 1417l-52 -14z" />
    <glyph glyph-name="onehalf" unicode="&#xbd;" horiz-adv-x="956" 
d="M552 645.5q-64 -65.5 -72 -143t39 -136.5l103 99q-55 65 -42 120t67 43.5t105.5 -73t8.5 -149.5l-56 -72l-242 -310l24 -27q45 14 212.5 0.5t186 19.5t42.5 137l-13 7q-32 -50 -144.5 -38t-167.5 5l251 332q45 60 9.5 151t-141.5 95.5t-170 -61zM16 1183l18 -16l43 33
q13 -55 7 -290.5t53 -279.5q46 45 105 82q-42 64 -33 616l-21 9zM489 1279q-153 -635 -452 -1446l63 -13q53 111 203 244q99 516 426 1417l-52 -14z" />
    <glyph glyph-name="threequarters" unicode="&#xbe;" horiz-adv-x="1225" 
d="M823 609q69 -38 -123 -488l20 -22q32 19 232 23q-12 -147 45 -190l115 69q-49 38 -46 125h115l63 84l-9 17l-165 -1q19 137 -31 212l-104 -71q32 -77 15 -141l-165 3q221 317 205.5 397.5t-52.5 84.5zM175 1337l-70 -106l8 -15l277 1l-135 -157l17 -20q60 19 102 -13.5
t77.5 -115t-26 -136t-119.5 -19t-110.5 87t5.5 132.5l-16 14q-149 -123 -87 -222t146 -122.5t136.5 19t119 131t53.5 207.5q-15 69 -66 102q-44 44 -94 42l129 169l-11 19zM758 1279q-153 -635 -452 -1446l63 -13q53 111 203 244q99 516 426 1417l-52 -14z" />
    <glyph glyph-name="questiondown" unicode="&#xbf;" horiz-adv-x="886" 
d="M174 7.5q-108 67.5 -128 171t21 204.5t272 213v255l237 161l3 -328q-311 -208 -321 -318.5t76.5 -179.5t198.5 1l136 185l8 15l237 -172l-151 -211l-178 119q-66 -83 -184.5 -133t-226.5 17.5zM338 1260l236 133v-246l-239 -155z" />
    <glyph glyph-name="Agrave" unicode="&#xc0;" 
d="M639 1432l137 154q-126 -22 -290 153l-117 -121q182 -197 270 -186zM485.5 1321q-31.5 -23 -214.5 -258l42 -32q61 76 100.5 99.5t57.5 -60.5l-153 -442h-92l-204 -201l19 -32q104 23 181 16q-50 -136 -94 -215.5t-127 -152.5l15 -45l324 1l144 189l-15 18l-247 1
q72 36 146 204l198 2l100 107q131 -372 191 -445.5t126 -89.5l155 182q-118 27 -287 562.5t-201 575.5t-82.5 39.5t-82 -23.5zM635 620l-197 1l98 287z" />
    <glyph glyph-name="Aacute" unicode="&#xc1;" 
d="M485.5 1321q-31.5 -23 -214.5 -258l42 -32q61 76 100.5 99.5t57.5 -60.5l-153 -442h-92l-204 -201l19 -32q104 23 181 16q-50 -136 -94 -215.5t-127 -152.5l15 -45l324 1l144 189l-15 18l-247 1q72 36 146 204l198 2l100 107q131 -372 191 -445.5t126 -89.5l155 182
q-118 27 -287 562.5t-201 575.5t-82.5 39.5t-82 -23.5zM635 620l-197 1l98 287zM371 1397l32 -48l259 159q98 83 33 233l-231 -155q105 -87 -93 -189z" />
    <glyph glyph-name="Acircumflex" unicode="&#xc2;" 
d="M697 1438q-139 6 -183 153l-150 -121l-35 39l271 239q76 -160 208 -178zM485.5 1321q-31.5 -23 -214.5 -258l42 -32q61 76 100.5 99.5t57.5 -60.5l-153 -442h-92l-204 -201l19 -32q104 23 181 16q-50 -136 -94 -215.5t-127 -152.5l15 -45l324 1l144 189l-15 18l-247 1
q72 36 146 204l198 2l100 107q131 -372 191 -445.5t126 -89.5l155 182q-118 27 -287 562.5t-201 575.5t-82.5 39.5t-82 -23.5zM635 620l-197 1l98 287z" />
    <glyph glyph-name="Atilde" unicode="&#xc3;" 
d="M377 1614l-94 -145l25 -32l53 71q77 60 182 -26t157 15l107 166l-22 32l-44 -67q-64 -55 -172.5 35t-191.5 -49zM485.5 1321q-31.5 -23 -214.5 -258l42 -32q61 76 100.5 99.5t57.5 -60.5l-153 -442h-92l-204 -201l19 -32q104 23 181 16q-50 -136 -94 -215.5t-127 -152.5
l15 -45l324 1l144 189l-15 18l-247 1q72 36 146 204l198 2l100 107q131 -372 191 -445.5t126 -89.5l155 182q-118 27 -287 562.5t-201 575.5t-82.5 39.5t-82 -23.5zM635 620l-197 1l98 287z" />
    <glyph glyph-name="Adieresis" unicode="&#xc4;" 
d="M225 1553q109 -19 115 -160l187 149q6 132 -120 178zM601 1549q109 -19 115 -160l187 149q6 132 -120 178zM485.5 1321q-31.5 -23 -214.5 -258l42 -32q61 76 100.5 99.5t57.5 -60.5l-153 -442h-92l-204 -201l19 -32q104 23 181 16q-50 -136 -94 -215.5t-127 -152.5
l15 -45l324 1l144 189l-15 18l-247 1q72 36 146 204l198 2l100 107q131 -372 191 -445.5t126 -89.5l155 182q-118 27 -287 562.5t-201 575.5t-82.5 39.5t-82 -23.5zM635 620l-197 1l98 287z" />
    <glyph glyph-name="Aring" unicode="&#xc5;" 
d="M485.5 1321q-31.5 -23 -214.5 -258l42 -32q61 76 100.5 99.5t57.5 -60.5l-153 -442h-92l-204 -201l19 -32q104 23 181 16q-50 -136 -94 -215.5t-127 -152.5l15 -45l324 1l144 189l-15 18l-247 1q72 36 146 204l198 2l100 107q131 -372 191 -445.5t126 -89.5l155 182
q-118 27 -287 562.5t-201 575.5t-82.5 39.5t-82 -23.5zM635 620l-197 1l98 287zM429.5 1677q-58.5 -42 -69 -107.5t52 -118t110.5 -57t84 19t82.5 81.5t38 108.5t-58.5 86.5t-88.5 42t-65.5 -3.5t-85.5 -51.5zM583 1633.5q50 -37.5 58 -83t-15.5 -66t-70 -16.5t-85 55
t-31 88t50.5 48.5t93 -26z" />
    <glyph glyph-name="AE" unicode="&#xc6;" horiz-adv-x="1821" 
d="M635 620l-197 1l98 287zM485.5 1321q-31.5 -23 -214.5 -258l42 -32q61 76 100.5 99.5t57.5 -60.5l-153 -442h-92l-204 -201l19 -32q104 23 181 16q-50 -136 -94 -215.5t-127 -152.5l15 -45l324 1l144 189l-15 18l-247 1q72 36 146 204l198 2l100 107
q131 -372 248.5 -453.5t234.5 -76.5l161 4q392 205 447 409t-131 320l-185 -235q149 -118 121.5 -206t-162.5 -78t-262 136t-42 314q57 -23 136 -31l197 208l-18 22q-228 0 -286.5 58.5t-49 152.5t105 113t183 -23t74.5 -118l22 -15l169 183q-15 41 -75.5 87t-139.5 48.5
t-142.5 -14.5t-164 -90.5t-173 -221t105.5 -326.5q-83 -64 -114 -139q-244 717 -276 757t-82.5 39.5t-82 -23.5z" />
    <glyph glyph-name="Ccedilla" unicode="&#xc7;" horiz-adv-x="953" 
d="M457 -157l24 -23q31 40 88.5 28t53.5 -69t-96 -161l27 -17q170 135 177 202t-32.5 106t-92 36.5t-73.5 -17.5l24 67q63 1 124 25q119 47 250 221l-42 41q-137 -152 -345.5 -31.5t-272.5 358t1.5 397t214.5 162.5t195.5 -70t11.5 -123l31 -16l180 151q23 58 -44 140.5
t-214.5 86t-249.5 -53.5t-204.5 -218.5t-130 -348.5t22 -323.5t137 -236t214.5 -141.5q37 -12 73 -17z" />
    <glyph glyph-name="Egrave" unicode="&#xc8;" horiz-adv-x="1019" 
d="M640 1442l137 154q-126 -22 -290 153l-117 -121q182 -197 270 -186zM469.5 1325q-63.5 -17 -164 -90.5t-173 -221t105.5 -326.5q-210 -179 -161 -399q59 -229 431 -294q392 205 447 409t-131 320l-185 -235q149 -118 121.5 -206t-162.5 -78t-262 136t-42 314
q57 -23 136 -31l197 208l-18 22q-228 0 -286.5 58.5t-49 152.5t105 113t183 -23t74.5 -118l22 -15l169 183q-15 41 -75.5 87t-139.5 48.5t-142.5 -14.5z" />
    <glyph glyph-name="Eacute" unicode="&#xc9;" horiz-adv-x="1019" 
d="M367 1402l32 -48l259 159q98 83 33 233l-231 -155q105 -87 -93 -189zM469.5 1325q-63.5 -17 -164 -90.5t-173 -221t105.5 -326.5q-210 -179 -161 -399q59 -229 431 -294q392 205 447 409t-131 320l-185 -235q149 -118 121.5 -206t-162.5 -78t-262 136t-42 314
q57 -23 136 -31l197 208l-18 22q-228 0 -286.5 58.5t-49 152.5t105 113t183 -23t74.5 -118l22 -15l169 183q-15 41 -75.5 87t-139.5 48.5t-142.5 -14.5z" />
    <glyph glyph-name="Ecircumflex" unicode="&#xca;" horiz-adv-x="1019" 
d="M685 1428q-139 6 -183 153l-150 -121l-35 39l271 239q76 -160 208 -178zM469.5 1325q-63.5 -17 -164 -90.5t-173 -221t105.5 -326.5q-210 -179 -161 -399q59 -229 431 -294q392 205 447 409t-131 320l-185 -235q149 -118 121.5 -206t-162.5 -78t-262 136t-42 314
q57 -23 136 -31l197 208l-18 22q-228 0 -286.5 58.5t-49 152.5t105 113t183 -23t74.5 -118l22 -15l169 183q-15 41 -75.5 87t-139.5 48.5t-142.5 -14.5z" />
    <glyph glyph-name="Edieresis" unicode="&#xcb;" horiz-adv-x="1019" 
d="M552 1565q109 -19 115 -160l187 149q6 132 -120 178zM236 1569q109 -19 115 -160l187 149q6 132 -120 178zM469.5 1325q-63.5 -17 -164 -90.5t-173 -221t105.5 -326.5q-210 -179 -161 -399q59 -229 431 -294q392 205 447 409t-131 320l-185 -235q149 -118 121.5 -206
t-162.5 -78t-262 136t-42 314q57 -23 136 -31l197 208l-18 22q-228 0 -286.5 58.5t-49 152.5t105 113t183 -23t74.5 -118l22 -15l169 183q-15 41 -75.5 87t-139.5 48.5t-142.5 -14.5z" />
    <glyph glyph-name="Igrave" unicode="&#xcc;" horiz-adv-x="500" 
d="M314 1432l137 154q-126 -22 -290 153l-117 -121q182 -197 270 -186zM46 1173l14 -29q52 17 57 -69q-11 -903 6.5 -973t102.5 -113l213 169l-33 31q-36 -3 -57 52.5t-9 979.5q-14 80 -67 117z" />
    <glyph glyph-name="Iacute" unicode="&#xcd;" horiz-adv-x="493" 
d="M44 1402l32 -48l259 159q98 83 33 233l-231 -155q105 -87 -93 -189zM51 1173l14 -29q52 17 57 -69q-11 -903 6.5 -973t102.5 -113l213 169l-33 31q-36 -3 -57 52.5t-9 979.5q-14 80 -67 117z" />
    <glyph glyph-name="Icircumflex" unicode="&#xce;" horiz-adv-x="517" 
d="M407 1428q-139 6 -183 153l-150 -121l-35 39l271 239q76 -160 208 -178zM81 1173l14 -29q52 17 57 -69q-11 -903 6.5 -973t102.5 -113l213 169l-33 31q-36 -3 -57 52.5t-9 979.5q-14 80 -67 117z" />
    <glyph glyph-name="Idieresis" unicode="&#xcf;" horiz-adv-x="509" 
d="M269 1565q109 -19 115 -160l187 149q6 132 -120 178zM-47 1569q109 -19 115 -160l187 149q6 132 -120 178zM69 1173l14 -29q52 17 57 -69q-11 -903 6.5 -973t102.5 -113l213 169l-33 31q-36 -3 -57 52.5t-9 979.5q-14 80 -67 117z" />
    <glyph glyph-name="Eth" unicode="&#xd0;" horiz-adv-x="1136" 
d="M467 433q15 -185 124.5 -243.5t211.5 11.5q106 235 69 481.5t-130 341.5t-151.5 89t-120.5 -82l-6 -343q235 -6 255 21l15 -7l-95 -143l-177 -4zM340 1339q115 -72 131 -216l202 219q145 -20 226 -113q186 -213 190 -437v-24q0 -207 -57 -326q-60 -126 -130.5 -222
t-146.5 -167q-63 -58 -168 -58q-24 0 -50 3q-142 16 -223 117t-82 273l4 166q-238 9 -263 -17l-7 11l102 140l168 -1l-2 334q-26 123 -104 100l-15 34z" />
    <glyph glyph-name="Ntilde" unicode="&#xd1;" horiz-adv-x="1103" 
d="M430 1604l-94 -145l25 -32l53 71q77 60 182 -26t157 15l107 166l-22 32l-44 -67q-64 -55 -172.5 35t-191.5 -49zM39 1048l25 -47q80 64 71 -130q-10 -614 4 -708t105 -166l226 209v34q-72 -21 -90 132t-10 489l374 -579q-1 -50 9.5 -133.5t81.5 -152.5l219 221l-5 33
q-57 -23 -72.5 129t-4.5 450v134l2 193q0 89 -64 156l-246 -245l16 -46q72 37 63 -85l-1 -405l-373 594q19 102 -65 176z" />
    <glyph glyph-name="Ograve" unicode="&#xd2;" horiz-adv-x="1017" 
d="M610 1432l137 154q-126 -22 -290 153l-117 -121q182 -197 270 -186zM180.5 1031.5q-80.5 -117.5 -113 -236.5t-11 -297t168 -343.5t234.5 -166t276 213.5q73 82 128 173.5t81 260t-45 374.5q-174 335 -444 296q-194 -157 -274.5 -274.5zM688 852.5q88 -209.5 39 -433
t-217.5 -148.5t-224.5 271.5t-35.5 367t185.5 161.5t253 -218.5z" />
    <glyph glyph-name="Oacute" unicode="&#xd3;" horiz-adv-x="1017" 
d="M311 1412l32 -48l259 159q98 83 33 233l-231 -155q105 -87 -93 -189zM180.5 1031.5q-80.5 -117.5 -113 -236.5t-11 -297t168 -343.5t234.5 -166t276 213.5q73 82 128 173.5t81 260t-45 374.5q-174 335 -444 296q-194 -157 -274.5 -274.5zM688 852.5q88 -209.5 39 -433
t-217.5 -148.5t-224.5 271.5t-35.5 367t185.5 161.5t253 -218.5z" />
    <glyph glyph-name="Ocircumflex" unicode="&#xd4;" horiz-adv-x="1017" 
d="M665 1408q-139 6 -183 153l-150 -121l-35 39l271 239q76 -160 208 -178zM180.5 1031.5q-80.5 -117.5 -113 -236.5t-11 -297t168 -343.5t234.5 -166t276 213.5q73 82 128 173.5t81 260t-45 374.5q-174 335 -444 296q-194 -157 -274.5 -274.5zM688 852.5q88 -209.5 39 -433
t-217.5 -148.5t-224.5 271.5t-35.5 367t185.5 161.5t253 -218.5z" />
    <glyph glyph-name="Otilde" unicode="&#xd5;" horiz-adv-x="1017" 
d="M341 1624l-94 -145l25 -32l53 71q77 60 182 -26t157 15l107 166l-22 32l-44 -67q-64 -55 -172.5 35t-191.5 -49zM180.5 1031.5q-80.5 -117.5 -113 -236.5t-11 -297t168 -343.5t234.5 -166t276 213.5q73 82 128 173.5t81 260t-45 374.5q-174 335 -444 296
q-194 -157 -274.5 -274.5zM688 852.5q88 -209.5 39 -433t-217.5 -148.5t-224.5 271.5t-35.5 367t185.5 161.5t253 -218.5z" />
    <glyph glyph-name="Odieresis" unicode="&#xd6;" horiz-adv-x="1017" 
d="M540 1555q109 -19 115 -160l187 149q6 132 -120 178zM164 1559q109 -19 115 -160l187 149q6 132 -120 178zM180.5 1031.5q-80.5 -117.5 -113 -236.5t-11 -297t168 -343.5t234.5 -166t276 213.5q73 82 128 173.5t81 260t-45 374.5q-174 335 -444 296
q-194 -157 -274.5 -274.5zM688 852.5q88 -209.5 39 -433t-217.5 -148.5t-224.5 271.5t-35.5 367t185.5 161.5t253 -218.5z" />
    <glyph glyph-name="multiply" unicode="&#xd7;" horiz-adv-x="779" 
d="M742 436l-251 261l256 256l-42 40l-258 -256l-242 264l-141 -124l250 -253l-257 -261l39 -42l264 252l254 -263z" />
    <glyph glyph-name="Oslash" unicode="&#xd8;" horiz-adv-x="1116" 
d="M711 907q-85 156 -227 164q-165 9 -185.5 -161.5t35.5 -367.5q18 -61 46 -110q177 246 331 475zM762 784q-172 -245 -303 -449q43 -39 99 -64q169 -75 218 149q41 187 -14 364zM224 216q-101 137 -118 282q-9 71 -9 132q0 93 20 165q32 119 112.5 236.5t274.5 274.5
q28 4 55 4q174 0 306 -168q41 64 80 126l223 136l46 -1q-147 -196 -276 -373l10 -20q52 -151 52 -281q0 -48 -7 -93q-26 -169 -81 -260.5t-128 -173.5q-188 -213 -276 -213q-74 0 -190 118q-13 -22 -86 -134q-170 -91 -258 -190l-43 32q120 159 293 401z" />
    <glyph glyph-name="Ugrave" unicode="&#xd9;" horiz-adv-x="1060" 
d="M581 1422l137 154q-126 -22 -290 153l-117 -121q182 -197 270 -186zM1011 167l-25 48q-80 -66 -77 214q10 631 -4 728t-91 168l-220 -164v-35q72 22 84 -35q26 -284 7 -712q-139 -170 -235 -121t-95 355q6 436 -1.5 540.5t-93.5 181.5l-216 -173l5 -34q74 18 84 -41
l4 -605q-8 -188 22.5 -301t122 -167t176 1.5t139 117t83.5 106.5q-10 -179 74 -255z" />
    <glyph glyph-name="Uacute" unicode="&#xda;" horiz-adv-x="1060" 
d="M382 1402l32 -48l259 159q98 83 33 233l-231 -155q105 -87 -93 -189zM1011 167l-25 48q-80 -66 -77 214q10 631 -4 728t-91 168l-220 -164v-35q72 22 84 -35q26 -284 7 -712q-139 -170 -235 -121t-95 355q6 436 -1.5 540.5t-93.5 181.5l-216 -173l5 -34q74 18 84 -41
l4 -605q-8 -188 22.5 -301t122 -167t176 1.5t139 117t83.5 106.5q-10 -179 74 -255z" />
    <glyph glyph-name="Ucircumflex" unicode="&#xdb;" horiz-adv-x="1060" 
d="M680 1428q-139 6 -183 153l-150 -121l-35 39l271 239q76 -160 208 -178zM1011 167l-25 48q-80 -66 -77 214q10 631 -4 728t-91 168l-220 -164v-35q72 22 84 -35q26 -284 7 -712q-139 -170 -235 -121t-95 355q6 436 -1.5 540.5t-93.5 181.5l-216 -173l5 -34q74 18 84 -41
l4 -605q-8 -188 22.5 -301t122 -167t176 1.5t139 117t83.5 106.5q-10 -179 74 -255z" />
    <glyph glyph-name="Udieresis" unicode="&#xdc;" horiz-adv-x="1060" 
d="M519 1560q109 -19 115 -160l187 149q6 132 -120 178zM143 1564q109 -19 115 -160l187 149q6 132 -120 178zM1011 167l-25 48q-80 -66 -77 214q10 631 -4 728t-91 168l-220 -164v-35q72 22 84 -35q26 -284 7 -712q-139 -170 -235 -121t-95 355q6 436 -1.5 540.5
t-93.5 181.5l-216 -173l5 -34q74 18 84 -41l4 -605q-8 -188 22.5 -301t122 -167t176 1.5t139 117t83.5 106.5q-10 -179 74 -255z" />
    <glyph glyph-name="Yacute" unicode="&#xdd;" horiz-adv-x="851" 
d="M274 1402l32 -48l259 159q98 83 33 233l-231 -155q105 -87 -93 -189zM561 1271q112 -81 116 -211t-138 -217l-219 342q-92 146 -135 132l-214 -179l26 -29q30 35 79 10l263 -424l4 -473q-9 -166 100 -233l212 154l-10 32q-54 -8 -63 77v512q296 257 314 430.5t-158 249.5
z" />
    <glyph glyph-name="Thorn" unicode="&#xde;" horiz-adv-x="1115" 
d="M491 1076q87 0 195.5 -99t105.5 -323.5t-74.5 -297.5t-196.5 -54.5t-153 144t-3 531.5q39 99 126 99zM353 1411q-29 83 -96 108l-184 -162l12 -42q77 30 63 -421l-9 -884q14 -179 96 -228l199 186l1 26q-83 -30 -81 116l1 146q64 -76 211.5 -58.5t271.5 102.5t177 203.5
t40 297t-139.5 283t-236 104t-173 -10.5t-137.5 -55l4 206z" />
    <glyph glyph-name="germandbls" unicode="&#xdf;" horiz-adv-x="1031" 
d="M389 1231q-29 83 -96 108l-184 -162l12 -42q58 22 63 -125v-163h-113l-42 -63h155v-626q2 -126 -140 -126l20 -33l255 1q75 -2 89 69l1 1079q31 71 112 49.5t102 -148.5t-66 -203l-117 -4l-1 -60q54 2 116 -25.5t119 -128t1 -429.5t-319 -568l24 -26q343 253 453.5 407.5
t123 352t-66.5 319t-273 148.5q201 90 207 261t-103 221t-189.5 16t-142.5 -99z" />
    <glyph glyph-name="agrave" unicode="&#xe0;" horiz-adv-x="989" 
d="M554 1032l137 154q-126 -22 -290 153l-117 -121q182 -197 270 -186zM220 808q-156 -103 -66 -273l223 130q-99 152 85.5 156.5t161.5 -249.5l-323 -5l-249 -280q-10 -123 87.5 -209t193.5 -82t164 46t134 119q24 -138 163 -164l177 193l-12 24q-81 -17 -103 93l1 354
q-11 135 -99 186.5t-235 57.5t-303 -97zM623 409v-180q-36 -46 -167 -40.5t-237 184.5l37 35z" />
    <glyph glyph-name="aacute" unicode="&#xe1;" horiz-adv-x="989" 
d="M294 1002l32 -48l259 159q98 83 33 233l-231 -155q105 -87 -93 -189zM220 808q-156 -103 -66 -273l223 130q-99 152 85.5 156.5t161.5 -249.5l-323 -5l-249 -280q-10 -123 87.5 -209t193.5 -82t164 46t134 119q24 -138 163 -164l177 193l-12 24q-81 -17 -103 93l1 354
q-11 135 -99 186.5t-235 57.5t-303 -97zM623 409v-180q-36 -46 -167 -40.5t-237 184.5l37 35z" />
    <glyph glyph-name="acircumflex" unicode="&#xe2;" horiz-adv-x="989" 
d="M652 1018q-139 6 -183 153l-150 -121l-35 39l271 239q76 -160 208 -178zM220 808q-156 -103 -66 -273l223 130q-99 152 85.5 156.5t161.5 -249.5l-323 -5l-249 -280q-10 -123 87.5 -209t193.5 -82t164 46t134 119q24 -138 163 -164l177 193l-12 24q-81 -17 -103 93l1 354
q-11 135 -99 186.5t-235 57.5t-303 -97zM623 409v-180q-36 -46 -167 -40.5t-237 184.5l37 35z" />
    <glyph glyph-name="atilde" unicode="&#xe3;" horiz-adv-x="989" 
d="M352 1154l-94 -145l25 -32l53 71q77 60 182 -26t157 15l107 166l-22 32l-44 -67q-64 -55 -172.5 35t-191.5 -49zM220 808q-156 -103 -66 -273l223 130q-99 152 85.5 156.5t161.5 -249.5l-323 -5l-249 -280q-10 -123 87.5 -209t193.5 -82t164 46t134 119q24 -138 163 -164
l177 193l-12 24q-81 -17 -103 93l1 354q-11 135 -99 186.5t-235 57.5t-303 -97zM623 409v-180q-36 -46 -167 -40.5t-237 184.5l37 35z" />
    <glyph glyph-name="adieresis" unicode="&#xe4;" horiz-adv-x="993" 
d="M496 1155q109 -19 115 -160l187 149q6 132 -120 178zM180 1159q109 -19 115 -160l187 149q6 132 -120 178zM224 808q-156 -103 -66 -273l223 130q-99 152 85.5 156.5t161.5 -249.5l-323 -5l-249 -280q-10 -123 87.5 -209t193.5 -82t164 46t134 119q24 -138 163 -164
l177 193l-12 24q-81 -17 -103 93l1 354q-11 135 -99 186.5t-235 57.5t-303 -97zM627 409v-180q-36 -46 -167 -40.5t-237 184.5l37 35z" />
    <glyph glyph-name="aring" unicode="&#xe5;" horiz-adv-x="989" 
d="M220 808q-156 -103 -66 -273l223 130q-99 152 85.5 156.5t161.5 -249.5l-323 -5l-249 -280q-10 -123 87.5 -209t193.5 -82t164 46t134 119q24 -138 163 -164l177 193l-12 24q-81 -17 -103 93l1 354q-11 135 -99 186.5t-235 57.5t-303 -97zM623 409v-180
q-36 -46 -167 -40.5t-237 184.5l37 35zM370.5 1277q-58.5 -42 -69 -107.5t52 -118t110.5 -57t84 19t82.5 81.5t38 108.5t-58.5 86.5t-88.5 42t-65.5 -3.5t-85.5 -51.5zM524 1233.5q50 -37.5 58 -83t-15.5 -66t-70 -16.5t-85 55t-31 88t50.5 48.5t93 -26z" />
    <glyph glyph-name="ae" unicode="&#xe6;" horiz-adv-x="1452" 
d="M623 409v-180q-36 -46 -167 -40.5t-237 184.5l37 35zM898.5 716.5q54.5 53.5 143.5 -0.5t75 -143.5t-255 -242.5q-23 51 -18 119t2.5 141t52 126.5zM220 808q-156 -103 -66 -273l223 130q-99 152 85.5 156.5t161.5 -249.5l-323 -5l-249 -280q-10 -123 87.5 -209
t193.5 -82t164 46t134 119q66 -138 228 -166q230 -28 379.5 79.5t195.5 203.5l-30 24q-202 -139 -336.5 -112t-155.5 86l247 182q211 131 194.5 272.5t-186 174.5t-324.5 -135q3 26 -85 77.5t-235 57.5t-303 -97z" />
    <glyph glyph-name="ccedilla" unicode="&#xe7;" horiz-adv-x="836" 
d="M336 -157l24 -23q31 40 88.5 28t53.5 -69t-96 -161l27 -17q170 135 177 202t-32.5 106t-92 36.5t-73.5 -17.5l25 69q92 1 190 91q99 92 164 188l-32 28q-25 -33 -65 -69.5t-103.5 -37t-137.5 48.5q-224 125 -176 384q27 109 152 76q107 -40 148 -166l196 154
q-3 87 -65.5 136.5t-123.5 63.5t-117 -8.5t-105 -54t-101 -73.5q-359 -276 -125 -609q66 -81 134 -117q52 -26 118 -33z" />
    <glyph glyph-name="egrave" unicode="&#xe8;" horiz-adv-x="825" 
d="M253 792q-136 -121 -174 -283.5t23.5 -302t228.5 -198.5q136 -45 283 64.5t193 205.5l-30 24q-202 -139 -321.5 -92t-140.5 106l217 142q211 131 190 269t-177 162t-292 -97zM291.5 716.5q54.5 53.5 143.5 -0.5t75 -143.5t-225 -202.5q-23 51 -33 99t-12.5 121t52 126.5z
M538 1032l137 154q-126 -22 -290 153l-117 -121q182 -197 270 -186z" />
    <glyph glyph-name="eacute" unicode="&#xe9;" horiz-adv-x="817" 
d="M245 792q-136 -121 -174 -283.5t23.5 -302t228.5 -198.5q136 -45 283 64.5t193 205.5l-30 24q-202 -139 -321.5 -92t-140.5 106l217 142q211 131 190 269t-177 162t-292 -97zM283.5 716.5q54.5 53.5 143.5 -0.5t75 -143.5t-225 -202.5q-23 51 -33 99t-12.5 121t52 126.5z
M319 1002l32 -48l259 159q98 83 33 233l-231 -155q105 -87 -93 -189z" />
    <glyph glyph-name="ecircumflex" unicode="&#xea;" horiz-adv-x="820" 
d="M611 1018q-139 6 -183 153l-150 -121l-35 39l271 239q76 -160 208 -178zM248 792q-136 -121 -174 -283.5t23.5 -302t228.5 -198.5q136 -45 283 64.5t193 205.5l-30 24q-202 -139 -321.5 -92t-140.5 106l217 142q211 131 190 269t-177 162t-292 -97zM286.5 716.5
q54.5 53.5 143.5 -0.5t75 -143.5t-225 -202.5q-23 51 -33 99t-12.5 121t52 126.5z" />
    <glyph glyph-name="edieresis" unicode="&#xeb;" horiz-adv-x="837" 
d="M451 1155q109 -19 115 -160l187 149q6 132 -120 178zM135 1159q109 -19 115 -160l187 149q6 132 -120 178zM252 792q-136 -121 -174 -283.5t23.5 -302t228.5 -198.5q136 -45 283 64.5t193 205.5l-30 24q-202 -139 -321.5 -92t-140.5 106l217 142q211 131 190 269
t-177 162t-292 -97zM290.5 716.5q54.5 53.5 143.5 -0.5t75 -143.5t-225 -202.5q-23 51 -33 99t-12.5 121t52 126.5z" />
    <glyph glyph-name="igrave" unicode="&#xec;" horiz-adv-x="480" 
d="M289 1032l137 154q-126 -22 -290 153l-117 -121q182 -197 270 -186zM131 504q-5 -313 2 -387.5t89 -123.5l199 186l1 26q-55 -2 -67.5 75t-7 266t3 247.5t-54.5 117.5l-237 -164l16 -28q85 48 56 -215z" />
    <glyph glyph-name="iacute" unicode="&#xed;" horiz-adv-x="456" 
d="M28 1002l32 -48l259 159q98 83 33 233l-231 -155q105 -87 -93 -189zM134 504q-5 -313 2 -387.5t89 -123.5l199 186l1 26q-55 -2 -67.5 75t-7 266t3 247.5t-54.5 117.5l-237 -164l16 -28q85 48 56 -215z" />
    <glyph glyph-name="icircumflex" unicode="&#xee;" horiz-adv-x="491" 
d="M385 1018q-139 6 -183 153l-150 -121l-35 39l271 239q76 -160 208 -178zM132 504q-5 -313 2 -387.5t89 -123.5l199 186l1 26q-55 -2 -67.5 75t-7 266t3 247.5t-54.5 117.5l-237 -164l16 -28q85 48 56 -215z" />
    <glyph glyph-name="idieresis" unicode="&#xef;" horiz-adv-x="524" 
d="M154 504q-5 -313 2 -387.5t89 -123.5l199 186l1 26q-55 -2 -67.5 75t-7 266t3 247.5t-54.5 117.5l-237 -164l16 -28q85 48 56 -215zM317 1229q-21 67 -116 97l-182 -167q109 -19 115 -160l152 134q78 -23 84 -138l187 149q6 132 -120 178z" />
    <glyph glyph-name="eth" unicode="&#xf0;" horiz-adv-x="1123" 
d="M270 694q-97 -90 -33 -262t194 -254t266.5 -2.5t33.5 556.5l-181 -132q-68 181 -280 94zM411 1129l207 29q-8 86 -84 163l194 167q123 -49 181 -276q245 63 326 114l27 -12l-111 -180l-202 -40q70 -262 65 -517.5t-175.5 -410t-355 -178t-304.5 86t-133 229t10 212.5
t113.5 181.5t168.5 141.5t163.5 55.5t210.5 -76.5l-52 217q-319 -36 -344 -69l-12 11z" />
    <glyph glyph-name="ntilde" unicode="&#xf1;" horiz-adv-x="957" 
d="M352 1154l-94 -145l25 -32l53 71q77 60 182 -26t157 15l107 166l-22 32l-44 -67q-64 -55 -172.5 35t-191.5 -49zM30 736l23 -33q74 45 66 -92q-10 -433 3 -499.5t97 -117.5l212 184v24q-67 -15 -85 75t-7 367q128 116 216.5 82.5t87.5 -243.5q-5 -300 2 -371.5t86 -124.5
l208 186l-5 23q-52 -16 -69 76.5t-7 302.5q7 129 -21 206.5t-119 113.5t-169 -2t-128.5 -80t-77.5 -73q9 123 -68 175z" />
    <glyph glyph-name="ograve" unicode="&#xf2;" horiz-adv-x="895" 
d="M526 1032l137 154q-126 -22 -290 153l-117 -121q182 -197 270 -186zM166.5 713.5q-69.5 -81.5 -97.5 -164t-9.5 -206.5t145.5 -239t203 -115.5t239 148.5q63 57 110.5 121t70 181t-38.5 260q-151 233 -385 206q-168 -110 -237.5 -191.5zM572 565q74 -143 49.5 -287.5
t-153.5 -74.5t-194 188.5t-47.5 237.5t144.5 99t201 -163z" />
    <glyph glyph-name="oacute" unicode="&#xf3;" horiz-adv-x="890" 
d="M161.5 713.5q-69.5 -81.5 -97.5 -164t-9.5 -206.5t145.5 -239t203 -115.5t239 148.5q63 57 110.5 121t70 181t-38.5 260q-151 233 -385 206q-168 -110 -237.5 -191.5zM567 565q74 -143 49.5 -287.5t-153.5 -74.5t-194 188.5t-47.5 237.5t144.5 99t201 -163zM270 1012
l32 -48l259 159q98 83 33 233l-231 -155q105 -87 -93 -189z" />
    <glyph glyph-name="ocircumflex" unicode="&#xf4;" horiz-adv-x="890" 
d="M597 1018q-139 6 -183 153l-150 -121l-35 39l271 239q76 -160 208 -178zM161.5 713.5q-69.5 -81.5 -97.5 -164t-9.5 -206.5t145.5 -239t203 -115.5t239 148.5q63 57 110.5 121t70 181t-38.5 260q-151 233 -385 206q-168 -110 -237.5 -191.5zM567 565q74 -143 49.5 -287.5
t-153.5 -74.5t-194 188.5t-47.5 237.5t144.5 99t201 -163z" />
    <glyph glyph-name="otilde" unicode="&#xf5;" horiz-adv-x="890" 
d="M277 1154l-94 -145l25 -32l53 71q77 60 182 -26t157 15l107 166l-22 32l-44 -67q-64 -55 -172.5 35t-191.5 -49zM161.5 713.5q-69.5 -81.5 -97.5 -164t-9.5 -206.5t145.5 -239t203 -115.5t239 148.5q63 57 110.5 121t70 181t-38.5 260q-151 233 -385 206
q-168 -110 -237.5 -191.5zM567 565q74 -143 49.5 -287.5t-153.5 -74.5t-194 188.5t-47.5 237.5t144.5 99t201 -163z" />
    <glyph glyph-name="odieresis" unicode="&#xf6;" horiz-adv-x="894" 
d="M419 1155q109 -19 115 -160l187 149q6 132 -120 178zM103 1159q109 -19 115 -160l187 149q6 132 -120 178zM165.5 713.5q-69.5 -81.5 -97.5 -164t-9.5 -206.5t145.5 -239t203 -115.5t239 148.5q63 57 110.5 121t70 181t-38.5 260q-151 233 -385 206
q-168 -110 -237.5 -191.5zM571 565q74 -143 49.5 -287.5t-153.5 -74.5t-194 188.5t-47.5 237.5t144.5 99t201 -163z" />
    <glyph glyph-name="divide" unicode="&#xf7;" horiz-adv-x="915" 
d="M42 573l10 -14q35 32 659 27l134 151l-21 9q-29 -33 -637 -26zM297 888q72 -61 110 -132q132 88 148 110.5t-8 74.5t-94 73zM288 430q72 -61 110 -132q132 88 148 110.5t-8.5 74.5t-93.5 73z" />
    <glyph glyph-name="oslash" unicode="&#xf8;" horiz-adv-x="915" 
d="M514 664q-55 52 -129 64q-127 20 -144.5 -99t47.5 -237q18 -33 40 -62q97 169 186 334zM581 575q-97 -170 -179 -319q36 -29 80 -53q129 -70 153.5 74.5t-49.5 287.5q-3 5 -5 10zM204 118q-113 109 -130 225q-8 49 -8 92q0 65 17 115q28 82 97.5 163.5t237.5 191.5
q24 3 48 3q85 0 158 -37q57 111 110 220l178 120l42 3q-128 -215 -240 -407q48 -44 89 -108q45 -104 45 -195q0 -33 -6 -65q-23 -117 -70.5 -181t-110.5 -121q-162 -148 -239 -148q-54 0 -132 57q-40 -75 -74 -143q-119 -72 -181 -154l-45 22q111 175 214 347z" />
    <glyph glyph-name="ugrave" unicode="&#xf9;" horiz-adv-x="946" 
d="M928 183l-24 30l-59 -53q-80 4 -72 164v410q-3 148 -119 168l-189 -186l20 -20l58 49q48 -15 36 -150v-375l-93 -79q-157 12 -155 222l1 367q1 146 -112 168l-190 -184l20 -26l58 54q41 -5 34 -148l-1 -300q0 -150 83.5 -226t180.5 -81l183 186q21 -160 152 -178z
M547 1032l137 154q-126 -22 -290 153l-117 -121q182 -197 270 -186z" />
    <glyph glyph-name="uacute" unicode="&#xfa;" horiz-adv-x="946" 
d="M928 183l-24 30l-59 -53q-80 4 -72 164v410q-3 148 -119 168l-189 -186l20 -20l58 49q48 -15 36 -150v-375l-93 -79q-157 12 -155 222l1 367q1 146 -112 168l-190 -184l20 -26l58 54q41 -5 34 -148l-1 -300q0 -150 83.5 -226t180.5 -81l183 186q21 -160 152 -178z
M307 993l23 -39l259 159q98 83 33 233l-231 -155q105 -87 -84 -198z" />
    <glyph glyph-name="ucircumflex" unicode="&#xfb;" horiz-adv-x="951" 
d="M928 183l-24 30l-59 -53q-80 4 -72 164v410q-3 148 -119 168l-189 -186l20 -20l58 49q48 -15 36 -150v-375l-93 -79q-157 12 -155 222l1 367q1 146 -112 168l-190 -184l20 -26l58 54q41 -5 34 -148l-1 -300q0 -150 83.5 -226t180.5 -81l183 186q21 -160 152 -178z
M612 1018q-139 6 -183 153l-150 -121l-35 39l271 239q76 -160 208 -178z" />
    <glyph glyph-name="udieresis" unicode="&#xfc;" horiz-adv-x="933" 
d="M910 183l-24 30l-59 -53q-80 4 -72 164v410q-3 148 -119 168l-189 -186l20 -20l58 49q48 -15 36 -150v-375l-93 -79q-157 12 -155 222l1 367q1 146 -112 168l-190 -184l20 -26l58 54q41 -5 34 -148l-1 -300q0 -150 83.5 -226t180.5 -81l183 186q21 -160 152 -178z
M429 1155q109 -19 115 -160l187 149q6 132 -120 178zM113 1159q109 -19 115 -160l187 149q6 132 -120 178z" />
    <glyph glyph-name="yacute" unicode="&#xfd;" horiz-adv-x="909" 
d="M540.5 -293q228.5 175 262.5 396v637q-20 146 -124 168l-217 -214l23 -32l64 61q59 5 52 -142v-317q-53 -84 -147 -75t-111 179l1 368q1 146 -117 168l-227 -224l20 -37l62 59q60 30 62 -106v-321q15 -215 231 -287q137 77 235 189v-115q15 -277 -124 -276.5t-245 130.5
l-165 -186q236 -198 464.5 -23zM294 1002l32 -48l259 159q98 83 33 233l-231 -155q105 -87 -93 -189z" />
    <glyph glyph-name="thorn" unicode="&#xfe;" horiz-adv-x="975" 
d="M357 666q-29 -360 51.5 -459t231.5 -38q70 173 57.5 314.5t-84 196.5t-149 43t-107.5 -57zM285 1425q19 -5 48 -71.5t18 -601.5q146 179 313.5 149.5t225.5 -154.5q40 -89 40 -193q0 -44 -7 -91q-25 -159 -122 -260t-206 -177q-45 -28 -95 -28q-106 0 -153 70
q1 -100 -1.5 -192t52.5 -90l-1 -26l-199 -186q-62 49 -69 123.5t-2.5 401.5t12.5 742t-41 443z" />
    <glyph glyph-name="ydieresis" unicode="&#xff;" horiz-adv-x="921" 
d="M552.5 -293q228.5 175 262.5 396v637q-20 146 -124 168l-217 -214l23 -32l64 61q59 5 52 -142v-317q-53 -84 -147 -75t-111 179l1 368q1 146 -117 168l-227 -224l20 -37l62 59q60 30 62 -106v-321q15 -215 231 -287q137 77 235 189v-115q15 -277 -124 -276.5t-245 130.5
l-165 -186q236 -198 464.5 -23zM425 1155q109 -19 115 -160l187 149q6 132 -120 178zM109 1159q109 -19 115 -160l187 149q6 132 -120 178z" />
    <glyph glyph-name="Aogonek" unicode="&#x104;" horiz-adv-x="1129" 
d="M635 620l-197 1l98 287zM485.5 1321q-31.5 -23 -214.5 -258l42 -32q61 76 100.5 99.5t57.5 -60.5l-153 -442h-92l-204 -201l19 -32q104 23 181 16q-50 -136 -94 -215.5t-127 -152.5l15 -45l324 1l144 189l-15 18l-247 1q72 36 146 204l198 2l100 107q131 -372 191 -445.5
t98 -104.5q-120 -104 -86 -188q35 -89 101 -119t112.5 -5.5t122.5 108.5l-13 10q-82 -63 -146.5 -29t-76.5 119t169 301q-118 27 -287 562.5t-201 575.5t-82.5 39.5t-82 -23.5z" />
    <glyph glyph-name="aogonek" unicode="&#x105;" horiz-adv-x="1007" 
d="M623 409v-180q-36 -46 -167 -40.5t-237 184.5l37 35zM690 -188q35 -89 101 -119t112.5 -5.5t122.5 108.5l-13 10q-82 -63 -146.5 -29t-86.5 88q-22 51 30 138l161 187l-12 24q-81 -17 -103 93l1 354q-11 135 -99 186.5t-235 57.5t-303 -97t-66 -273l223 130
q-99 152 85.5 156.5t161.5 -249.5l-323 -5l-249 -280q-10 -123 87.5 -209t193.5 -82t164 46t134 119q24 -138 145 -161q-120 -104 -86 -188z" />
    <glyph glyph-name="Cacute" unicode="&#x106;" horiz-adv-x="953" 
d="M393 1443l26 -43l208 143q79 75 27 210l-186 -140q85 -78 -75 -170zM397 1283q-102 -57 -204.5 -218.5t-130 -348.5t22 -323.5t137 -236t214 -141.5t245.5 5t250 221l-42 41q-137 -152 -345.5 -31.5t-272.5 358t1.5 397t214.5 162.5t195.5 -70t11.5 -123l31 -16l180 151
q23 58 -44 140.5t-214.5 86t-249.5 -53.5z" />
    <glyph glyph-name="cacute" unicode="&#x107;" horiz-adv-x="836" 
d="M302 972l26 -43l208 143q79 75 27 210l-186 -140q85 -78 -75 -170zM362 831.5q-49 -31.5 -101 -73.5q-359 -276 -125 -609q66 -81 134 -116.5t162.5 -36t194 91.5t164.5 188l-32 28q-25 -33 -65 -69.5t-103.5 -37t-137.5 48.5q-224 125 -176 384q27 109 152 76
q107 -40 148 -166l196 154q-3 87 -65.5 136.5t-123.5 63.5t-117 -8.5t-105 -54z" />
    <glyph glyph-name="Eogonek" unicode="&#x118;" horiz-adv-x="1019" 
d="M469.5 1325q-63.5 -17 -164 -90.5t-173 -221t105.5 -326.5q-210 -179 -161 -399q59 -229 431 -294q-125 -98 -91 -182q35 -89 101 -119t112.5 -5.5t122.5 108.5l-13 10q-82 -63 -146.5 -29t-86.5 88q-32 65 20 119q373 215 428 419t-131 320l-185 -235
q149 -118 121.5 -206t-162.5 -78t-262 136t-42 314q57 -23 136 -31l197 208l-18 22q-228 0 -286.5 58.5t-49 152.5t105 113t183 -23t74.5 -118l22 -15l169 183q-15 41 -75.5 87t-139.5 48.5t-142.5 -14.5z" />
    <glyph glyph-name="eogonek" unicode="&#x119;" horiz-adv-x="817" 
d="M283.5 716.5q54.5 53.5 143.5 -0.5t75 -143.5t-225 -202.5q-23 51 -33 99t-12.5 121t52 126.5zM258 -200q35 -89 101 -119t112.5 -5.5t122.5 108.5l-13 10q-82 -63 -146.5 -29t-86.5 88q-22 51 14 127l7 12q97 -11 240.5 89.5t189.5 196.5l-30 24q-202 -139 -321.5 -92
t-140.5 106l217 142q211 131 190 269t-177 162t-292 -97t-174 -283.5t23.5 -302t250.5 -211.5q-121 -111 -87 -195z" />
    <glyph glyph-name="dotlessi" unicode="&#x131;" horiz-adv-x="411" 
d="M102 504q-5 -313 2 -387.5t89 -123.5l199 186l1 26q-55 -2 -67.5 75t-7 266t3 247.5t-54.5 117.5l-237 -164l16 -28q85 48 56 -215z" />
    <glyph glyph-name="uni0136" unicode="&#x136;" horiz-adv-x="1009" 
d="M170 -157l24 -23q31 40 88.5 28t53.5 -69t-96 -161l27 -17q170 135 177 202t-32.5 106t-92 36.5t-73.5 -17.5l27 75l6 1q181 121 191 124l-18 37q-90 1 -92 81l-2 378q120 15 333 -514q64 -125 176 -123l165 155l-15 37q-99 -16 -209 269t-248 329q380 319 216 560
l-215 -173q135 -209 -199 -446l-14 472q-9 89 -94 143l-210 -175l4 -25q51 -14 63 -109v-820q10 -101 64 -154q28 -27 51 -41z" />
    <glyph glyph-name="uni0137" unicode="&#x137;" horiz-adv-x="987" 
d="M145 -157l24 -23q31 40 88.5 28t53.5 -69t-96 -161l27 -17q170 135 177 202t-32.5 106t-92 36.5t-73.5 -17.5l25 68l211 159l-30 33q-53 -44 -65 36.5t-7 452.5q93 77 159.5 68t81 -65.5t-35.5 -108.5t-190 -115v-65q84 98 192.5 -125t198.5 -280l253 197l-29 25
q-75 -52 -180.5 115.5t-174.5 194.5q126 65 172.5 140t5 152.5t-114.5 87.5t-142 -21t-199 -133v554q-13 85 -63 125l-186 -146q26 -50 30 -135q-11 -966 5 -1041q13 -60 60 -101z" />
    <glyph glyph-name="Lslash" unicode="&#x141;" horiz-adv-x="950" 
d="M138 1189l14 -28q54 2 60 -143v-470q-173 -173 -141 -401l24 10q16 97 117 198l1 2v-140q1 -171 91 -222l182 131q79 57 148.5 -31t156.5 -103l197 154l-19 34q-49 0 -70 26t-77.5 92t-154.5 53l-199 -168q-19 62 -17 121l-1 290l199 210q112 137 81 343l-17 -2
q-41 -141 -147 -246l-116 -118l-1 332q-11 177 -112 222z" />
    <glyph glyph-name="lslash" unicode="&#x142;" horiz-adv-x="708" 
d="M183 498q-162 -182 -126 -373l24 10q16 97 117 198l55 57v-180q14 -158 124 -216l237 192l-27 29q-90 -53 -141 43v332l174 180q112 137 81 343l-17 -2q-41 -141 -147 -246l-91 -94v446q-5 87 -69 185l-178 -141q46 -31 54 -145v-545z" />
    <glyph glyph-name="Nacute" unicode="&#x143;" horiz-adv-x="1103" 
d="M436 1397l32 -48l259 159q98 83 33 233l-231 -155q105 -87 -93 -189zM39 1064l25 -48q80 65 71 -132q-10 -623 4 -718.5t105 -168.5l226 212v35q-72 -22 -90 133.5t-10 496.5l374 -588q-1 -50 9.5 -135t81.5 -155l219 224l-5 34q-57 -23 -72.5 131t-4.5 457v136l2 196
q0 90 -64 158l-246 -249l16 -46q72 37 63 -87l-1 -411l-373 603q19 104 -65 179z" />
    <glyph glyph-name="nacute" unicode="&#x144;" horiz-adv-x="957" 
d="M337 1002l32 -48l259 159q98 83 33 233l-231 -155q105 -87 -93 -189zM30 736l23 -33q74 45 66 -92q-10 -433 3 -499.5t97 -117.5l212 184v24q-67 -15 -85 75t-7 367q128 116 216.5 82.5t87.5 -243.5q-5 -300 2 -371.5t86 -124.5l208 186l-5 23q-52 -16 -69 76.5t-7 302.5
q7 129 -21 206.5t-119 113.5t-169 -2t-128.5 -80t-77.5 -73q9 123 -68 175z" />
    <glyph glyph-name="OE" unicode="&#x152;" horiz-adv-x="1699" 
d="M688 852.5q88 -209.5 39 -433t-217.5 -148.5t-224.5 271.5t-35.5 367t185.5 161.5t253 -218.5zM1149.5 1325q-63.5 -17 -164 -90.5t-109.5 -150.5q-151 261 -421 222q-194 -157 -274.5 -274.5t-113 -236.5t-11 -297t168 -343.5t234.5 -166t303 248.5q54 -178 426 -243
q392 205 447 409t-131 320l-185 -235q149 -118 121.5 -206t-162.5 -78t-262 136t-42 314q57 -23 136 -31l197 208l-18 22q-228 0 -286.5 58.5t-49 152.5t105 113t183 -23t74.5 -118l22 -15l169 183q-15 41 -75.5 87t-139.5 48.5t-142.5 -14.5z" />
    <glyph glyph-name="oe" unicode="&#x153;" horiz-adv-x="1382" 
d="M848.5 716.5q54.5 53.5 143.5 -0.5t75 -143.5t-225 -202.5q-23 51 -33 99t-12.5 121t52 126.5zM490 672.5q106 -113.5 121 -249t-33 -194t-145.5 -47t-178.5 163.5t-65.5 261t105.5 144t196 -78.5zM712 695q-1 22 -83 104t-155.5 98t-124.5 -9t-163 -137.5t-132.5 -289
t100 -319t211 -153.5t159.5 52t139 182q58 -156 225 -215q136 -45 283 64.5t193 205.5l-30 24q-202 -139 -321.5 -92t-140.5 106l217 142q211 131 190 269t-190.5 174t-376.5 -206z" />
    <glyph glyph-name="Sacute" unicode="&#x15a;" horiz-adv-x="944" 
d="M324 1414l32 -48l259 159q98 83 33 233l-231 -155q105 -87 -93 -189zM315.5 1245q-71.5 -62 -121.5 -131t-52.5 -173t66.5 -184t239.5 -160.5t245 -191.5t9 -172.5t-161.5 -42t-183 73t-127.5 147t4.5 156.5l-25 19l-162 -186q-19 -78 44.5 -179t177 -168.5t250.5 -49.5
t259 189.5t119.5 275.5t-74.5 193t-279 175t-231.5 181t60 119t175.5 -25.5t64 -127.5l14 -23l157 175q-16 102 -121 157.5t-190 35t-156.5 -82.5z" />
    <glyph glyph-name="sacute" unicode="&#x15b;" horiz-adv-x="834" 
d="M270 979l32 -48l259 159q98 83 33 233l-231 -155q105 -87 -93 -189zM308 842q-66 -42 -112.5 -88.5t-70.5 -130t42.5 -143.5t220.5 -92t204.5 -78t55 -86t-32 -54.5t-110.5 -3.5t-142.5 46t-117 84t-7.5 92l-23 14l-155 -134q-18 -52 40.5 -121t148.5 -107t184 -43.5
t188 55.5t138 141t35 160t-61.5 141t-225 109t-200 104.5t43 67t167.5 -37t64 -90.5l13 -15l149 142q-15 68 -88.5 105t-177.5 21t-170 -58z" />
    <glyph glyph-name="Scaron" unicode="&#x160;" horiz-adv-x="927" 
d="M457 1328q23 5 47 5q66 0 143 -40q105 -56 121 -158l-157 -175l-14 23q27 78 -64 127.5t-175.5 25.5t-60 -119t231.5 -181t279 -175t75 -193v-4q0 -103 -120 -271q-122 -172 -259 -190q-29 -3 -57 -3q-104 0 -193 53q-114 67 -177 168q-49 78 -49 142q0 19 4 37l162 186
l25 -19q-45 -63 -4.5 -156.5t127.5 -147t183 -73t161.5 42t-9 172.5t-245 191.5t-239.5 160.5t-66.5 184t52.5 173t121.5 131t156.5 83zM224 1560q132 -18 208 -178l271 239l-35 39l-150 -121q-44 147 -183 153z" />
    <glyph glyph-name="scaron" unicode="&#x161;" horiz-adv-x="836" 
d="M464 900q31 5 60 5q66 0 118 -26q73 -37 88 -105l-149 -142l-13 15q33 43 -64 90.5t-167.5 37t-43 -67t200 -104.5t225 -109t61.5 -141q2 -14 2 -27q0 -67 -37 -133q-44 -80 -138 -141q-86 -55 -172 -55h-16q-94 5 -184 43t-148 107q-45 53 -45 96q0 13 4 25l155 134
l23 -14q-41 -43 7.5 -92t117 -84t142.5 -46t110.5 3.5t32 54.5t-55 86t-204.5 78t-220.5 92t-42.5 143.5t70.5 130t112.5 88.5t170 58zM212 1175q132 -18 208 -178l271 239l-35 39l-150 -121q-44 147 -183 153z" />
    <glyph glyph-name="Ydieresis" unicode="&#x178;" horiz-adv-x="851" 
d="M416 1555q109 -19 115 -160l187 149q6 132 -120 178zM100 1559q109 -19 115 -160l187 149q6 132 -120 178zM561 1271q112 -81 116 -211t-138 -217l-219 342q-92 146 -135 132l-214 -179l26 -29q30 35 79 10l263 -424l4 -473q-9 -166 100 -233l212 154l-10 32
q-54 -8 -63 77v512q296 257 314 430.5t-158 249.5z" />
    <glyph glyph-name="Zacute" unicode="&#x179;" horiz-adv-x="963" 
d="M340 1394l32 -48l259 159q98 83 33 233l-231 -155q105 -87 -93 -189zM59 1055l23 -21q26 89 607 54l-203 -327q-219 46 -295 -31l-66 -124q130 103 288 49q-294 -402 -366 -618l48 -27q121 52 384 6.5t323.5 34.5t124.5 237l-34 23q-68 -76 -580 -3l201 303
q100 -53 239 4l67 131q-164 -84 -247 -34l349 563l-21 40l-692 -3z" />
    <glyph glyph-name="zacute" unicode="&#x17a;" horiz-adv-x="799" 
d="M242 994l32 -48l259 159q98 83 33 233l-231 -155q105 -87 -93 -189zM50 675l12 -22q60 43 446 33q-423 -520 -483 -668l40 -19q101 36 321 4.5t270.5 23.5t124.5 244l-28 16q-65 -82 -474 -20l477 605l-17 27h-528z" />
    <glyph glyph-name="Zdotaccent" unicode="&#x17b;" horiz-adv-x="960" 
d="M383 1537q85 -16 90 -132l146 123q5 109 -94 147zM56 1015l23 -20q26 85 607 52l-203 -315q-219 44 -295 -30l-66 -119q130 99 288 47q-294 -387 -366 -594l48 -26q121 50 384 6t323.5 33t124.5 228l-34 22q-68 -73 -580 -3l201 292q100 -51 239 4l67 126
q-164 -81 -247 -33l349 542l-21 38l-692 -3z" />
    <glyph glyph-name="zdotaccent" unicode="&#x17c;" horiz-adv-x="799" 
d="M278 1098q85 -16 90 -132l146 123q5 109 -94 147zM50 675l12 -22q60 43 446 33q-423 -520 -483 -668l40 -19q101 36 321 4.5t270.5 23.5t124.5 244l-28 16q-65 -82 -474 -20l477 605l-17 27h-528z" />
    <glyph glyph-name="Zcaron" unicode="&#x17d;" horiz-adv-x="960" 
d="M206 1262l692 3l21 -38l-349 -542q83 -48 247 33l-67 -126q-139 -55 -239 -4l-201 -292q512 -70 580 3l34 -22q-64 -151 -124 -228q-39 -49 -159 -49q-69 0 -165 16q-263 44 -384 -6l-48 26q72 207 366 594q-158 52 -288 -47l66 119q76 74 295 30l203 315
q-581 33 -607 -52l-23 20zM275 1553q132 -18 208 -178l271 239l-35 39l-150 -121q-44 147 -183 153z" />
    <glyph glyph-name="zcaron" unicode="&#x17e;" horiz-adv-x="798" 
d="M210 899h528l17 -27l-477 -605q409 -62 474 20l28 -16q-74 -189 -124 -244q-33 -34 -133 -34q-58 0 -138 11q-220 31 -321 -5l-40 19q60 148 483 668q-386 10 -446 -33l-12 22zM174 1168q132 -18 208 -178l271 239l-35 39l-150 -121q-44 147 -183 153z" />
    <glyph glyph-name="circumflex" unicode="&#x2c6;" horiz-adv-x="518" 
d="M400 1428q-139 6 -183 153l-150 -121l-35 39l271 239q76 -160 208 -178z" />
    <glyph glyph-name="caron" unicode="&#x2c7;" horiz-adv-x="518" 
d="M24 1026q132 -18 208 -178l271 239l-35 39l-150 -121q-44 147 -183 153z" />
    <glyph glyph-name="dotaccent" unicode="&#x2d9;" horiz-adv-x="339" 
d="M23 1597q109 -19 115 -160l187 149q6 132 -120 178z" />
    <glyph glyph-name="ring" unicode="&#x2da;" horiz-adv-x="430" 
d="M114.5 1747q-58.5 -42 -69 -107.5t52 -118t110.5 -57t84 19t82.5 81.5t38 108.5t-58.5 86.5t-88.5 42t-65.5 -3.5t-85.5 -51.5zM268 1703.5q50 -37.5 58 -83t-15.5 -66t-70 -16.5t-85 55t-31 88t50.5 48.5t93 -26z" />
    <glyph glyph-name="ogonek" unicode="&#x2db;" horiz-adv-x="422" 
d="M69 -188q35 -89 101 -119t112.5 -5.5t122.5 108.5l-13 10q-82 -63 -146.5 -29t-86.5 88q-22 51 14 127l-18 8q-120 -104 -86 -188z" />
    <glyph glyph-name="tilde" unicode="&#x2dc;" horiz-adv-x="566" 
d="M124 1634l-94 -145l25 -32l53 71q77 60 182 -26t157 15l107 166l-22 32l-44 -67q-64 -55 -172.5 35t-191.5 -49z" />
    <glyph glyph-name="uni0401" unicode="&#x401;" horiz-adv-x="949" 
d="M515 1565q109 -19 115 -160l187 149q6 132 -120 178zM199 1569q109 -19 115 -160l187 149q6 132 -120 178zM432.5 1325q-63.5 -17 -164 -90.5t-173 -221t105.5 -326.5q-210 -179 -161 -399q59 -229 431 -294q392 205 447 409t-131 320l-185 -235q149 -118 121.5 -206
t-162.5 -78t-262 136t-42 314q57 -23 136 -31l197 208l-18 22q-228 0 -286.5 58.5t-49 152.5t105 113t183 -23t74.5 -118l22 -15l169 183q-15 41 -75.5 87t-139.5 48.5t-142.5 -14.5z" />
    <glyph glyph-name="uni0410" unicode="&#x410;" horiz-adv-x="1128" 
d="M507.5 1321q-31.5 -23 -214.5 -258l42 -32q61 76 100.5 99.5t57.5 -60.5l-153 -442h-92l-204 -201l19 -32q104 23 181 16q-50 -136 -94 -215.5t-127 -152.5l15 -45l324 1l144 189l-15 18l-247 1q72 36 146 204l198 2l100 107q131 -372 191 -445.5t126 -89.5l155 182
q-118 27 -287 562.5t-201 575.5t-82.5 39.5t-82 -23.5zM657 620l-197 1l98 287z" />
    <glyph glyph-name="uni0411" unicode="&#x411;" horiz-adv-x="912" 
d="M311 1223q-29 82 -96 107l-184 -161l12 -42q77 30 63 -418q-27 -398 -6 -503.5t175 -183.5t306 17t207.5 162.5t75 126.5t22.5 150t-55 206.5t-252 141.5l-60 10q-138 1 -192 -54l4 366zM338.5 298.5q-40.5 92.5 -15.5 338.5q39 99 126 109t165.5 -104t66 -239.5
t-73 -203t-144.5 -35.5t-124.5 134.5zM351 1110l301 -1l168 186l-7 35h-351l-127 -181z" />
    <glyph glyph-name="uni0412" unicode="&#x412;" horiz-adv-x="912" 
d="M311 1223q-29 82 -96 107l-184 -161l12 -42q77 30 63 -418q-27 -398 -6 -503.5t175 -183.5t306 17t207.5 162.5t75 126.5t22.5 150t-55 206.5t-252 141.5q209 149 179.5 302t-140 188t-178 3t-129.5 -96zM552 1062q28 -114 -33 -226q-138 1 -192 -54l4 366
q31 71 112 49.5t109 -135.5zM449 746q87 10 165.5 -104t66 -239.5t-73 -203t-144.5 -35.5t-124.5 134.5t-15.5 338.5q39 99 126 109z" />
    <glyph glyph-name="uni0413" unicode="&#x413;" horiz-adv-x="819" 
d="M346 733l1 370l301 -1l168 186l-7 35h-351l-127 -181q0 149 -108 191l-210 -208l16 -32q77 58 79 -62l-1 -866q11 -150 156 -175l161 157q-88 73 -84 201v328z" />
    <glyph glyph-name="uni0414" unicode="&#x414;" horiz-adv-x="1027" 
d="M23 1155l15 -34q78 23 104 -100l-2 -633q1 -172 82 -273t222.5 -117.5t218 55t147 167.5t130.5 222t56.5 350t-189.5 437q-81 93 -226 113l-202 -219q-16 144 -131 216zM650 1024q93 -95 130 -341.5t-69 -481.5q-102 -70 -211.5 -11.5t-124.5 243.5l3 598q62 76 120.5 82
t151.5 -89z" />
    <glyph glyph-name="uni0415" unicode="&#x415;" horiz-adv-x="942" 
d="M428.5 1325q-63.5 -17 -164 -90.5t-173 -221t105.5 -326.5q-210 -179 -161 -399q59 -229 431 -294q392 205 447 409t-131 320l-185 -235q149 -118 121.5 -206t-162.5 -78t-262 136t-42 314q57 -23 136 -31l197 208l-18 22q-228 0 -286.5 58.5t-49 152.5t105 113t183 -23
t74.5 -118l22 -15l169 183q-15 41 -75.5 87t-139.5 48.5t-142.5 -14.5z" />
    <glyph glyph-name="uni0416" unicode="&#x416;" horiz-adv-x="1610" 
d="M472 1164l-215 173q-164 -241 216 -560q-138 -44 -248 -329t-209 -269l-15 -37l165 -155q112 -2 176 123q207 514 326 514v-420q10 -101 64 -154t89 -54q196 129 206 132l-18 37q-90 1 -92 81l-2 378q120 15 333 -514q64 -125 176 -123l165 155l-15 37q-99 -16 -209 269
t-248 329q380 319 216 560l-215 -173q135 -209 -199 -446l-14 472q-9 89 -94 143l-210 -175l4 -25q51 -14 63 -109v-304q-330 236 -196 444z" />
    <glyph glyph-name="uni0417" unicode="&#x417;" horiz-adv-x="942" 
d="M382 1339.5q-79 -2.5 -139.5 -48.5t-75.5 -87l169 -183l22 15q-13 76 74.5 118t183 23t105 -113t-49 -152.5t-286.5 -58.5l-18 -22l197 -208q79 8 136 31q85 -188 -42 -314t-262 -136t-162.5 78t121.5 206l-185 235q-186 -116 -131 -320t447 -409q372 65 431 294
q49 220 -161 399q178 179 105.5 326.5t-173 221t-164 90.5t-142.5 14.5z" />
    <glyph glyph-name="uni0418" unicode="&#x418;" horiz-adv-x="1048" 
d="M348 549q-4 134 1 328l-1 269q19 103 -65 179l-265 -258l25 -48q80 65 71 -132q-10 -625 4 -721t105 -169l226 213v34q-66 -19 -86 109l359 440l-1 -252l2 -254q-1 -51 9.5 -136t81.5 -155l219 225l-5 34q-57 -24 -72.5 131t-4.5 458v137l2 196q0 91 -64 159l-246 -249
l16 -47q49 25 60 -24z" />
    <glyph glyph-name="uni0419" unicode="&#x419;" horiz-adv-x="1048" 
d="M348 549q-4 134 1 328l-1 269q19 103 -65 179l-265 -258l25 -48q80 65 71 -132q-10 -625 4 -721t105 -169l226 213v34q-66 -19 -86 109l359 440l-1 -252l2 -254q-1 -51 9.5 -136t81.5 -155l219 225l-5 34q-57 -24 -72.5 131t-4.5 458v137l2 196q0 91 -64 159l-246 -249
l16 -47q49 25 60 -24zM409 1604l-94 -145l25 -32l53 71q77 60 182 -26t157 15l107 166l-22 32l-44 -67q-64 -55 -172.5 35t-191.5 -49z" />
    <glyph glyph-name="uni041A" unicode="&#x41a;" horiz-adv-x="995" 
d="M528 1164q135 -209 -199 -446l-14 472q-9 89 -94 143l-210 -175l4 -25q51 -14 63 -109v-820q10 -101 64 -154t89 -54q196 129 206 132l-18 37q-90 1 -92 81l-2 378q120 15 333 -514q64 -125 176 -123l165 155l-15 37q-99 -16 -209 269t-248 329q380 319 216 560z" />
    <glyph glyph-name="uni041B" unicode="&#x41b;" horiz-adv-x="1039" 
d="M532 291l-19 34q-116 -133 -212.5 63.5t-91 399t93.5 322.5q85 14 360 -889q84 -319 180 -142l150 283l-8 25q-57 -67 -115 74l-299 822q-86 161 -172.5 65t-160 -221t-171 -357t-16.5 -469t200.5 -297t280.5 287z" />
    <glyph glyph-name="uni041C" unicode="&#x41c;" horiz-adv-x="1420" 
d="M558 1300q-86 163 -172.5 65t-160 -225t-171 -364t-16.5 -478.5t200.5 -302.5t280.5 293l-19 33q-116 -135 -212.5 65t-91 407t93.5 330q85 14 343 -872q98 -342 148 -223l44 66l155 266l-8 25q-57 -68 -115 76l-204 561l67 99q85 15 386 -988q58 -218 125 -84l179 309
l-8 26q-57 -69 -115 76l-299 838q-86 164 -172.5 66t-183.5 -264z" />
    <glyph glyph-name="uni041D" unicode="&#x41d;" horiz-adv-x="1006" 
d="M617 1197q27 -46 32 -126l1 -231l-274 1l-78 -91l6 472q-14 79 -67 116l-211 -135q27 -47 32 -126q-11 -896 6.5 -965.5t102.5 -111.5l236 167l-16 43q-53 -15 -74 40.5t-15 437.5l345 1q-5 -513 12.5 -582.5t102.5 -112.5l236 167l-16 43q-53 -14 -74 41t-9 971
q-14 79 -67 116z" />
    <glyph glyph-name="uni041E" unicode="&#x41e;" horiz-adv-x="948" 
d="M162.5 1047.5q-80.5 -119.5 -113 -240.5t-11 -301.5t168 -348.5t234.5 -168.5t276 216.5q73 83 128 176t81 264t-45 380q-174 341 -444 301q-194 -159 -274.5 -278.5zM670 865.5q88 -212.5 39 -439.5t-217.5 -151t-224.5 275.5t-35.5 373t185.5 164t253 -222z" />
    <glyph glyph-name="uni041F" unicode="&#x41f;" horiz-adv-x="1031" 
d="M45 1152l25 -48q80 66 77 -214q-10 -631 4 -728t91 -168l220 164v35q-72 -22 -84 35q-26 284 -7 712q139 170 235 121t95 -355q-6 -436 1.5 -540.5t93.5 -181.5l216 173l-5 34q-74 -18 -84 41l-4 605q8 188 -22.5 301t-122 167t-176 -1.5t-139 -117t-83.5 -106.5
q10 179 -74 255z" />
    <glyph glyph-name="uni0420" unicode="&#x420;" horiz-adv-x="940" 
d="M40 1126l10 -33q81 73 54 -401l-85 -73q31 -33 88 -79q-23 -387 28 -478.5t138 -116.5l183 192l-19 35q-100 -41 -98 270q92 -37 221 30.5t225.5 173t120.5 225.5t-52 270.5t-301 193.5l-201 -192q-2 110 -84 178zM651 943.5q77 -155.5 36 -262t-153.5 -97t-181.5 126.5
l1 347l75 58q146 -17 223 -172.5z" />
    <glyph glyph-name="uni0421" unicode="&#x421;" horiz-adv-x="928" 
d="M370 1283q-102 -57 -204.5 -218.5t-130 -348.5t22 -323.5t137 -236t214 -141.5t245.5 5t250 221l-42 41q-137 -152 -345.5 -31.5t-272.5 358t1.5 397t214.5 162.5t195.5 -70t11.5 -123l31 -16l180 151q23 58 -44 140.5t-214.5 86t-249.5 -53.5z" />
    <glyph glyph-name="uni0422" unicode="&#x422;" horiz-adv-x="917" 
d="M14 1118l21 -16q53 45 420 27q-52 -56 -93 -105l4 -854q36 -153 162 -180l168 153l-15 34q-77 -2 -94 153l4 802h209l177 173l-18 21h-806z" />
    <glyph glyph-name="uni0423" unicode="&#x423;" horiz-adv-x="892" 
d="M140 646q12 -125 96 -198q72 -63 174 -63q15 0 83.5 6t135.5 121q7 -95 7 -165q0 -89 -11 -140q-13 -61 -82 -61q-35 0 -133.5 31.5t-250.5 173.5l-164 -190q221 -164 381 -164q47 0 158.5 37.5t212.5 112t118 273.5l-1 688l1 32q0 126 -72 198l-215 -159h3q40 0 40 -80
l-1 -22l-1 -445l-51 -58q-44 -23 -89 -23q-17 0 -57 7.5t-59 99.5l1 319v37q-1 95 -4 137q-8 104 -94 181l-216 -173l5 -34q17 4 31 4q45 0 53 -45l2 -44z" />
    <glyph glyph-name="uni0424" unicode="&#x424;" horiz-adv-x="1681" 
d="M944 943q39 94 127 94t197.5 -94t106.5 -306.5t-75 -281.5t-198.5 -51.5t-154.5 136.5t-3 503zM949 1126l3 149l-20 79q-29 78 -97 102l-186 -153l12 -40q48 17 61 -141zM718 172l-2 -144q14 -170 97 -216l201 176l1 25q-84 -29 -82 109v51zM713 943q25 -384 -3.5 -503
t-154.5 -136.5t-198 51.5t-75 281.5t106.5 306.5t197 94t127.5 -94zM937 380l-5 484q-2 58 -2 107l-221 109q-75 43 -139 52.5t-174.5 10t-238.5 -98.5t-141 -268t40.5 -281t178.5 -192.5t274 -97t214 55.5zM933 173l1 88q64 -72 213 -55.5t274.5 97t179 192.5t40.5 281
t-141 268t-238.5 98.5t-174.5 -10t-139 -52.5l1 46l-227 -4q8 -96 3 -258l-7 -692z" />
    <glyph glyph-name="uni0425" unicode="&#x425;" horiz-adv-x="1125" 
d="M-2 1096l22 -24q37 36 169 26l200 -378q-285 -312 -295 -453t65 -209t134 -62l176 226l-16 26q-122 -14 -175.5 89.5t167.5 300.5q336 -650 483 -646l170 223l-19 31q-69 -55 -414 540l415 494l-15 41l-327 -2l-177 -227l22 -23q67 39 246 31l-219 -245l-242 464h-225z
" />
    <glyph glyph-name="uni0426" unicode="&#x426;" horiz-adv-x="1205" 
d="M920 33q132 52 151.5 -31t-115 -154t-267.5 -65.5t-132 58.5l-33 17l-73 -240q187 -101 388.5 -27t244 160t60.5 151t24.5 134.5t4.5 116.5q4 38 -45 93t-166 13q-29 -17 -45 -6q-13 55 -7 176q10 631 -4 728t-91 168l-220 -164v-35q72 22 84 -35q26 -284 7 -712
q-139 -170 -235 -121t-95 355q6 436 -1.5 540.5t-93.5 181.5l-216 -173l5 -34q74 18 84 -41l4 -605q-8 -188 22.5 -301t122 -167t176 1.5t139 117t83.5 106.5q-10 -179 73 -230l39 -14q55 6 127 38z" />
    <glyph glyph-name="uni0427" unicode="&#x427;" horiz-adv-x="1031" 
d="M148 884q-8 -188 22.5 -301t122 -167t176 1.5t139.5 117.5q50 57 86 104q-2 -122 -8 -258l-5 -140q-10 -179 74 -255l257 183l-25 48q-80 -66 -77 214q10 631 -4 728t-91 168l-220 -164v-35q72 22 84 -35q13 -140 15 -315q-138 -167 -233 -118q-79 41 -92 257
q0 177 -4 239q-8 104 -94 181l-216 -173l5 -34q74 18 84 -41l3 -62z" />
    <glyph glyph-name="uni0428" unicode="&#x428;" horiz-adv-x="1559" 
d="M1511 245l-24 47q-77 -65 -68 133q10 623 -3.5 719t-100.5 169l-215 -216v-34q80 18 91 -134.5t-1 -551.5q-133 -167 -225 -119t-91 351q6 432 -1.5 535t-89.5 179l-208 -222l5 -33q82 24 62 -720q-125 -138 -217 -90t-91 351q6 432 -1.5 535t-89.5 179l-213 -228l5 -33
q54 23 70.5 -130t5.5 -456q-7 -185 22 -297t123.5 -163.5t175.5 3t133.5 115t86.5 111.5q50 -178 144.5 -229.5t175.5 3t133.5 115t80.5 105.5q-9 -177 71 -252z" />
    <glyph glyph-name="uni0429" unicode="&#x429;" horiz-adv-x="1698" 
d="M1511 245l-24 47q-77 -65 -68 133q10 623 -3.5 719t-100.5 169l-215 -216v-34q80 18 91 -134.5t-1 -551.5q-133 -167 -225 -119t-91 351q6 432 -1.5 535t-89.5 179l-208 -222l5 -33q82 24 62 -720q-125 -138 -217 -90t-91 351q6 432 -1.5 535t-89.5 179l-213 -228l5 -33
q54 23 70.5 -130t5.5 -456q-7 -185 22 -297t123.5 -163.5t175.5 3t133.5 115t86.5 111.5q50 -178 144.5 -229.5t175.5 3t133.5 115t80.5 105.5q-9 -177 41 -228zM1197 80q9 -31 29 -68l22 -9l39 -3l37 11q22 13 80 42q132 52 151.5 -31t-115 -154t-267.5 -65.5t-132 58.5
l-33 17l-73 -240q187 -101 388.5 -27t244 160t60.5 151t24.5 134.5t4.5 116.5q4 38 -45 93t-166 13q-29 -17 -45 -6q-1 5 -2 12z" />
    <glyph glyph-name="uni042A" unicode="&#x42a;" horiz-adv-x="1101" 
d="M806 158q-151 -57 -222 36t-43 430q28 43 100.5 54t139.5 -40.5t79 -184t-54 -295.5zM279 1204q46 -26 38.5 -415.5t4.5 -491.5t166 -223.5t266 -50t203 166.5t114 243.5t-31 266.5t-211 145.5t-294 -140.5q10 502 -17 564t-45 67zM13 1143l301 -1l168 163l-7 31h-351
l-127 -159z" />
    <glyph glyph-name="uni042B" unicode="&#x42b;" horiz-adv-x="1237" 
d="M620 453.5q12 -132.5 -54 -295.5q-151 -57 -222 36t-43 430q28 43 100.5 54t139.5 -40.5t79 -184zM39 1204q46 -26 38.5 -415.5t4.5 -491.5t166 -223.5t266 -50t203 166.5t114 243.5t-31 266.5t-211 145.5t-294 -140.5q10 502 -17 564t-45 67zM877 1168l14 -29
q52 17 57 -69q-11 -899 6.5 -968.5t102.5 -112.5l213 168l-33 31q-36 -3 -57 52.5t-9 975.5q-14 79 -67 116z" />
    <glyph glyph-name="uni042C" unicode="&#x42c;" horiz-adv-x="870" 
d="M620 453.5q12 -132.5 -54 -295.5q-151 -57 -222 36t-43 430q28 43 100.5 54t139.5 -40.5t79 -184zM39 1204q46 -26 38.5 -415.5t4.5 -491.5t166 -223.5t266 -50t203 166.5t114 243.5t-31 266.5t-211 145.5t-294 -140.5q10 502 -17 564t-45 67z" />
    <glyph glyph-name="uni042D" unicode="&#x42d;" horiz-adv-x="928" 
d="M683 738q-64 -55 -172.5 35t-191.5 -49l-94 -145l25 -32l53 71q77 60 182 -26t157 15l66 102q-8 -48 -22 -100q-64 -238 -272.5 -358.5t-345.5 31.5l-42 -41q131 -174 250 -221t245.5 -5t214 141.5t137 236t22 323.5t-130 348.5t-204.5 218.5t-249.5 53.5t-214.5 -86
t-44 -140.5l180 -151l31 16q-35 50 11.5 123t195.5 70t215 -162q38 -95 32 -217z" />
    <glyph glyph-name="uni042E" unicode="&#x42e;" horiz-adv-x="1504" 
d="M1238 436q-49 -227 -217.5 -151t-224.5 275.5t-35.5 373t185.5 164t253 -222t39 -439.5zM494 775q-94 74 -166 -41l-13 -19q0 206 4 501q-14 79 -67 116l-227 -164l14 -29q52 17 57 -69q-11 -899 6.5 -968.5t102.5 -112.5l213 168l-33 31q-36 -3 -57 53q-13 34 -13 405
q66 50 157 -21q52 -41 89 -32q2 -37 7 -77q21 -181 167.5 -349t234.5 -168.5t276 216.5q73 83 128 176t81 264t-45 380q-174 341 -444 301q-194 -159 -274.5 -278.5t-112.5 -240.5q-11 -39 -16 -83q-31 11 -69 41z" />
    <glyph glyph-name="uni042F" unicode="&#x42f;" horiz-adv-x="1000" 
d="M716 684l-153 86q-94 45 -120.5 176t83 182t190.5 -36v-11l2 93q-90 181 -258 154.5t-214 -156.5t8 -257.5t258 -183.5q-176 6 -262.5 -289t-208.5 -232l-15 -36l182 -178q112 -2 176 123q160 540 330 494v-10zM645 1176l14 -29q52 17 57 -69q-11 -899 6.5 -968.5
t102.5 -112.5l213 168l-33 31q-36 -3 -57 52.5t-9 975.5q-14 79 -67 116z" />
    <glyph glyph-name="uni0430" unicode="&#x430;" horiz-adv-x="936" 
d="M180 808q-156 -103 -66 -273l223 130q-99 152 85.5 156.5t161.5 -249.5l-323 -5l-249 -280q-10 -123 87.5 -209t193.5 -82t164 46t134 119q24 -138 163 -164l177 193l-12 24q-81 -17 -103 93l1 354q-11 135 -99 186.5t-235 57.5t-303 -97zM583 409v-180
q-36 -46 -167 -40.5t-237 184.5l37 35z" />
    <glyph glyph-name="uni0431" unicode="&#x431;" horiz-adv-x="893" 
d="M552 172q-161 -61 -236.5 38t-46.5 459q30 45 107.5 57t149 -43t84 -196.5t-57.5 -314.5zM36 320q13 -109 177 -238.5t283.5 -53t216.5 177.5t121.5 259.5t-33 284t-225 155t-313.5 -149.5q0 4 -1 7q-7 77 -11 180q-4 108 9 192q19 90 161 44.5t288 -184.5l158 185
q-276 206 -451.5 146.5t-273 -132t-113.5 -266.5l-5 -38l-2 -29l4 -143q-1 -308 10 -397z" />
    <glyph glyph-name="uni0432" unicode="&#x432;" horiz-adv-x="912" 
d="M311 821q-29 55 -96 72l-184 -108l12 -29q77 21 63 -282q-27 -268 -6 -339.5t175 -124t306 11.5t207.5 109.5t75 85.5t22.5 101.5t-55 139.5t-252 95q209 101 179.5 204t-140 126.5t-178 2t-129.5 -64.5zM552 712q28 -77 -33 -152q-138 1 -192 -37l4 247q31 48 112 33.5
t109 -91.5zM449 499q87 7 165.5 -70t66 -161.5t-73 -137t-144.5 -24t-124.5 91t-15.5 228.5q39 66 126 73z" />
    <glyph glyph-name="uni0433" unicode="&#x433;" horiz-adv-x="844" 
d="M336 495l1 252l301 -1l168 126l-7 24h-351l-127 -123q0 101 -108 130l-210 -141l16 -22q77 39 79 -42l-1 -589q11 -102 156 -119l161 107q-88 49 -84 136v223z" />
    <glyph glyph-name="uni0434" unicode="&#x434;" horiz-adv-x="895" 
d="M574 644l1 -425q-40 -34 -92 -16q-283 149 -239.5 343t153.5 205.5t177 -107.5zM604 -230q-19 -90 -161 -44.5t-288 184.5l-158 -185q276 -206 451.5 -146.5t273 132t113.5 266.5l5 38l2 29l5 640q-16 120 -74 142l-72 48q-77 39 -138 34t-130.5 -39.5t-141 -92
t-131.5 -138.5t-84 -229.5t64 -257.5t233 -155q171 70 227 147q-2 -53 -3 -100l3 -22q22 -167 4 -251z" />
    <glyph glyph-name="uni0435" unicode="&#x435;" horiz-adv-x="770" 
d="M202 792q-136 -121 -174 -283.5t23.5 -302t228.5 -198.5q136 -45 283 64.5t193 205.5l-30 24q-202 -139 -321.5 -92t-140.5 106l217 142q211 131 190 269t-177 162t-292 -97zM240.5 716.5q54.5 53.5 143.5 -0.5t75 -143.5t-225 -202.5q-23 51 -33 99t-12.5 121t52 126.5z
" />
    <glyph glyph-name="uni0436" unicode="&#x436;" horiz-adv-x="1538" 
d="M444 782l-202 117q-154 -163 203 -378q-130 -30 -233.5 -222.5t-196.5 -181.5l-14 -25l155 -105q106 -1 166 83q195 347 307 348v-284q9 -69 60 -104.5t84 -36.5q184 87 194 89l-17 25q-85 1 -87 55l-2 255q113 10 314 -347q60 -84 166 -83l155 105l-14 25
q-93 -11 -196.5 181.5t-233.5 222.5q357 215 203 378l-202 -117q127 -141 -188 -301l-13 319q-8 60 -88 96l-198 -118l4 -17q48 -9 59 -73v-206q-311 160 -185 300z" />
    <glyph glyph-name="uni0437" unicode="&#x437;" horiz-adv-x="843" 
d="M330.5 898.5q-67.5 -1.5 -119.5 -32.5t-64 -59l144 -123l19 10q-11 52 63.5 80t156 15t89.5 -76t-42 -102.5t-244 -39.5l-16 -14l168 -140q68 5 116 21q73 -127 -35.5 -211.5t-223.5 -91.5t-138.5 52.5t103.5 138.5l-158 158q-158 -78 -111.5 -215t381.5 -275
q317 44 368 198q41 148 -138 268q152 120 90 219t-147.5 148.5t-139.5 61t-121.5 10z" />
    <glyph glyph-name="uni0438" unicode="&#x438;" horiz-adv-x="938" 
d="M931 166l-23 33q-66 -13 -66 92q10 433 -3 499.5t-97 117.5l-212 -184l10 -18q59 29 76 -71t6 -377q-128 -116 -216.5 -82.5t-87.5 243.5q5 300 -2 371.5t-86 124.5l-208 -186l19 -23q38 28 51 -75.5t5 -313.5q-9 -129 23 -201.5t123 -108.5t169 2t128.5 80t77.5 73
q-9 -123 68 -175z" />
    <glyph glyph-name="uni0439" unicode="&#x439;" horiz-adv-x="938" 
d="M931 166l-23 33q-66 -13 -66 92q10 433 -3 499.5t-97 117.5l-212 -184l10 -18q59 29 76 -71t6 -377q-128 -116 -216.5 -82.5t-87.5 243.5q5 300 -2 371.5t-86 124.5l-208 -186l19 -23q38 28 51 -75.5t5 -313.5q-9 -129 23 -201.5t123 -108.5t169 2t128.5 80t77.5 73
q-9 -123 68 -175zM302 1254l-94 -145l25 -32l53 71q77 60 182 -26t157 15l107 166l-22 32l-44 -67q-64 -55 -172.5 35t-191.5 -49z" />
    <glyph glyph-name="uni043A" unicode="&#x43a;" horiz-adv-x="1048" 
d="M525 786q134 -142 -198 -303l-14 321q-9 60 -93 97l-209 -119l4 -17q51 -10 63 -74v-557q10 -68 63.5 -104t88.5 -37q194 88 204 90l-17 25q-90 0 -92 55l-2 256q119 11 331 -349q64 -84 175 -83l164 105l-15 25q-98 -11 -207.5 182.5t-246.5 223.5q378 217 215 380z" />
    <glyph glyph-name="uni043B" unicode="&#x43b;" horiz-adv-x="1039" 
d="M532 189l-19 22q-116 -87 -212.5 41.5t-91 260.5t93.5 211q85 9 360 -581q84 -209 180 -93l150 185l-8 16q-57 -44 -115 49l-299 537q-86 105 -172.5 42.5t-160 -144.5t-171 -233.5t-16.5 -306.5t200.5 -194t280.5 188z" />
    <glyph glyph-name="uni043C" unicode="&#x43c;" horiz-adv-x="1420" 
d="M558 833q-86 105 -172.5 42t-160 -145t-171 -234.5t-16.5 -308.5t200.5 -195.5t280.5 189.5l-19 21q-116 -87 -212.5 42t-91 262.5t93.5 212.5q85 9 343 -562q98 -221 148 -144l44 42l155 172l-8 16q-57 -44 -115 49l-204 362l67 64q85 10 386 -637q58 -141 125 -54
l179 199l-8 17q-57 -45 -115 49l-299 540q-86 106 -172.5 42.5t-183.5 -170.5z" />
    <glyph glyph-name="uni043D" unicode="&#x43d;" horiz-adv-x="919" 
d="M553 804q24 -31 28 -85l1 -155h-244l-70 -61l6 318q-13 53 -60 78l-188 -91q24 -32 29 -85q-10 -603 5.5 -650t91.5 -75l210 112l-14 29q-47 -10 -66 27.5t-14 294.5l308 1q-4 -345 11.5 -392t91.5 -76l210 112l-14 29q-48 -9 -66.5 28t-7.5 654q-13 53 -60 78z" />
    <glyph glyph-name="uni043E" unicode="&#x43e;" horiz-adv-x="832" 
d="M145.5 713.5q-69.5 -81.5 -97.5 -164t-9.5 -206.5t145.5 -239t203 -115.5t239 148.5q63 57 110.5 121t70 181t-38.5 260q-151 233 -385 206q-168 -110 -237.5 -191.5zM551 565q74 -143 49.5 -287.5t-153.5 -74.5t-194 188.5t-47.5 237.5t144.5 99t201 -163z" />
    <glyph glyph-name="uni043F" unicode="&#x43f;" horiz-adv-x="937" 
d="M24 736l23 -33q74 45 66 -92q-10 -433 3 -499.5t97 -117.5l212 184v24q-67 -15 -85 75t-7 367q128 116 216.5 82.5t87.5 -243.5q-5 -300 2 -371.5t86 -124.5l208 186l-5 23q-52 -16 -69 76.5t-7 302.5q7 129 -21 206.5t-119 113.5t-169 -2t-128.5 -80t-77.5 -73
q9 123 -68 175z" />
    <glyph glyph-name="uni0440" unicode="&#x440;" horiz-adv-x="910" 
d="M45 705l10 -32q81 70 54 -383l-85 -70q31 -32 88 -76q-23 -370 28 -457.5t138 -111.5l183 184l-19 33q-126 -42 -109 265q112 -31 214 28t197 179t122 207.5t-28 240t-280 193.5l-210 -181q7 103 -75 168zM639.5 510q60.5 -169 -6 -273.5t-285.5 45.5l-2 381l87 32
q146 -16 206.5 -185z" />
    <glyph glyph-name="uni0441" unicode="&#x441;" horiz-adv-x="787" 
d="M338 831.5q-49 -31.5 -101 -73.5q-359 -276 -125 -609q66 -81 134 -116.5t162.5 -36t194 91.5t164.5 188l-32 28q-25 -33 -65 -69.5t-103.5 -37t-137.5 48.5q-224 125 -176 384q27 109 152 76q107 -40 148 -166l196 154q-3 87 -65.5 136.5t-123.5 63.5t-117 -8.5
t-105 -54z" />
    <glyph glyph-name="uni0442" unicode="&#x442;" horiz-adv-x="1475" 
d="M32 736l23 -33q74 45 66 -92q-10 -433 3 -499.5t97 -117.5l212 184v24q-67 -15 -85 75t-7 367q128 116 216.5 82.5t87.5 -243.5q-5 -300 2 -371.5t86 -124.5l208 186l-5 23q-71 -19 -67 448q130 116 218.5 82.5t87.5 -243.5q-5 -300 2 -371.5t86 -124.5l208 186l-5 23
q-52 -16 -69 76.5t-7 302.5q7 129 -21 206.5t-119 113.5t-169 -2t-128.5 -77t-93.5 -86q0 23 -24 76t-115 89t-169 -2t-128.5 -80t-77.5 -73q9 123 -68 175z" />
    <glyph glyph-name="uni0443" unicode="&#x443;" horiz-adv-x="842" 
d="M517 756q46 4 40 -98l-1 -429l-49 -56q-59 -31 -119 -19.5t-78 100.5l1 493q-18 130 -88 159l-183 -135q60 -40 56 -163l-1 -366q11 -120 91.5 -190.5t197.5 -60t182 121.5q15 -205 -4 -293.5t-161 -43.5t-288 182l-158 -183q276 -204 451.5 -145t273 131t113.5 264
l-1 662q10 144 -68 222z" />
    <glyph glyph-name="uni0444" unicode="&#x444;" horiz-adv-x="1405" 
d="M809 625q-29 -337 51.5 -429.5t231.5 -35.5q70 162 57.5 294t-84 183.5t-149 40.5t-107.5 -53zM737 1334q19 -5 48 -67t18 -562q146 167 313.5 139.5t225.5 -144.5q40 -83 40 -180q0 -41 -7 -85q-25 -149 -122 -243.5t-206 -165.5q-45 -26 -95 -26q-106 0 -153 66
q1 -94 -1.5 -180t52.5 -84l-1 -24l-199 -174q-62 46 -69 115.5t-2.5 375t12.5 693.5t-41 414zM232.5 454q-12.5 -132 57.5 -294q151 -57 231.5 35.5t51.5 429.5q-30 42 -107.5 53t-149 -40.5t-84 -183.5zM583 66q-47 -66 -153 -66q-50 0 -95 26q-109 71 -206 165.5
t-122 243.5q-7 44 -7 85q0 97 40 180q58 117 225.5 144.5t313.5 -139.5l217 -176q3 -150 6 -285z" />
    <glyph glyph-name="uni0445" unicode="&#x445;" horiz-adv-x="1005" 
d="M20 715l19 -17q34 24 158 19l177 -264q-264 -174 -272.5 -269t53 -147t139.5 -42l163 156l-14 18q-113 6 -151 57t128 164l267 -351q70 -61 133 -45l152 151l-17 21q-62 -37 -360 360l337 318l-32 54l-222 -1l-174 -173l19 -16q60 26 173 15l-147 -138l-212 308l-171 1z
" />
    <glyph glyph-name="uni0446" unicode="&#x446;" horiz-adv-x="1138" 
d="M850 21q134 40 153.5 -38.5t-115 -145t-267.5 -61.5t-132 55l-33 16l-73 -225q187 -95 388.5 -25.5t244 150t60.5 142t24.5 126.5t4.5 109q4 36 -45 88t-166 12q-21 -11 -35 -10q-17 23 -17 77q10 433 -3 499.5t-97 117.5l-212 -184l10 -18q59 29 76 -71t6 -377
q-128 -116 -216.5 -82.5t-87.5 243.5q5 300 -2 371.5t-86 124.5l-208 -186l19 -23q38 28 51 -75.5t5 -313.5q-9 -129 23 -201.5t124 -102t169 2t127.5 73.5t77.5 73q-6 -73 13.5 -110.5t53.5 -46.5t82.5 -4.5t82.5 20.5z" />
    <glyph glyph-name="uni0447" unicode="&#x447;" horiz-adv-x="949" 
d="M138 593q-8 -127 19.5 -203.5t108.5 -113t156 1t123 79.5q45 38 76 70q-1 -82 -6 -174l-5 -95q-9 -121 66 -172l228 124l-22 32q-71 -44 -68 145q8 426 -4 491.5t-81 113.5l-195 -111v-23q64 15 75 -24q11 -94 13 -213q-122 -112 -207 -80q-70 28 -82 174q0 120 -3 162
q-7 70 -83 122l-192 -117l4 -23q66 12 75 -28l3 -42z" />
    <glyph glyph-name="uni0448" unicode="&#x448;" horiz-adv-x="1559" 
d="M402 176q-89 33 -88 243q5 300 -2 371.5t-86 124.5l-208 -186l19 -23q38 28 51 -75.5t5 -313.5q-9 -129 23 -201.5t123 -108.5t169 2t129 80q48 41 75 71q1 -8 17 -44q32 -73 123 -109t169 2t128.5 80t77.5 73q-9 -123 68 -175l245 179l-23 33q-66 -13 -66 92
q10 433 -3 499.5t-97 117.5l-212 -184l10 -18q59 29 76 -71t6 -377q-128 -116 -216.5 -82.5t-87.5 243.5q5 300 -2 371.5t-86 124.5l-208 -186l19 -23q38 28 51 -75.5t5 -313.5q-3 -38 -2 -71q-119 -102 -202 -70z" />
    <glyph glyph-name="uni0449" unicode="&#x449;" horiz-adv-x="1702" 
d="M1200 51q19 -38 53 -47t82.5 -4.5t82.5 20.5q134 40 153.5 -38.5t-115 -145t-267.5 -61.5t-132 55l-33 16l-73 -225q187 -95 388.5 -25.5t244 150t60.5 142t24.5 126.5t4.5 109q4 36 -45 88t-166 12q-21 -11 -35 -10q-9 11 -10 53h1q0 12 1 26q10 420 -3.5 485
t-100.5 114l-215 -146v-22q80 12 91 -91t-1 -372q-133 -113 -225 -80.5t-91 236.5q6 292 -1.5 361.5t-89.5 120.5l-208 -150l5 -22q82 16 62 -486q-125 -93 -217 -60.5t-91 236.5q6 292 -1.5 361.5t-89.5 120.5l-213 -154l5 -22q54 15 70.5 -88t5.5 -308q-7 -124 22 -199.5
t123.5 -110.5t175.5 2t133.5 77.5t86.5 75.5q50 -120 144.5 -155t175.5 2t133.5 77.5t80.5 71.5h1q-7 -80 13 -116z" />
    <glyph glyph-name="uni044A" unicode="&#x44a;" horiz-adv-x="1101" 
d="M806 106q-151 -39 -222 24t-43 291q28 29 100.5 36.5t139.5 -27t79 -124.5t-54 -200zM475 903h-351l-127 -108l16 -23h292q17 -67 13 -239q-8 -264 4 -333t166 -151t266 -34t203 112.5t114 165t-31 180.5t-211 98.5t-294 -95.5q10 340 -17 382q-25 39 -43 44v1z" />
    <glyph glyph-name="uni044B" unicode="&#x44b;" horiz-adv-x="1237" 
d="M620 304q12 -90 -54 -200q-151 -39 -222 24t-43 292q28 29 100.5 36.5t139.5 -27.5t79 -125zM39 813q46 -17 38.5 -281.5t4.5 -333.5t166 -151.5t266 -34t203 113t114 165.5t-31 180.5t-211 98.5t-294 -95q10 340 -17 382.5t-45 45.5zM877 789l14 -20q52 12 57 -46
q-11 -611 6.5 -658t102.5 -76l213 114l-33 21q-36 -2 -57 35.5t-9 662.5q-14 53 -67 78z" />
    <glyph glyph-name="uni044C" unicode="&#x44c;" horiz-adv-x="870" 
d="M620 303q12 -89 -54 -198q-151 -38 -222 24.5t-43 288.5q28 29 100.5 36.5t139.5 -27.5t79 -124zM39 807q46 -17 38.5 -278.5t4.5 -330t166 -150t266 -33.5t203 111.5t114 163.5t-31 179t-211 97.5t-294 -94.5q10 337 -17 379t-45 45z" />
    <glyph glyph-name="uni044D" unicode="&#x44d;" horiz-adv-x="787" 
d="M405 521q-97 56 -171 -30l-84 -91l22 -20l48 44q69 38 163 -16q88 -51 133 2q-43 -100 -158 -164q-74 -49 -137.5 -48.5t-103.5 37t-65 69.5l-32 -28q65 -96 164.5 -188t194 -91.5t162.5 36t134 116.5q234 333 -125 609q-52 42 -101 73.5t-105 54t-117 8.5t-123.5 -63.5
t-65.5 -136.5l196 -154q41 126 148 166q125 33 152 -76q14 -76 5 -140q-53 -16 -134 31z" />
    <glyph glyph-name="uni044E" unicode="&#x44e;" horiz-adv-x="1453" 
d="M1183 291.5q-47 -153.5 -207.5 -102t-214 186.5t-34 252t177 111t241.5 -150t37 -297.5zM473 520q-90 51 -159 -27l-12 -13q0 139 4 339q-14 54 -64 79l-217 -111l13 -20q50 12 55 -47q-11 -608 6 -655t98 -76l203 114l-31 21q-35 -2 -55 35q-12 24 -12 275
q63 33 150 -15q49 -28 84 -21q2 -25 7 -53q20 -122 160 -235.5t224 -114t264 146.5q69 56 121.5 119t77.5 178.5t-43 257.5q-166 230 -424 203q-185 -107 -262 -188t-108 -163q-9 -26 -14 -56q-30 7 -66 27z" />
    <glyph glyph-name="uni044F" unicode="&#x44f;" horiz-adv-x="1000" 
d="M716 458l-153 58q-94 30 -120.5 118t83 122.5t190.5 -24.5v-7l2 62q-90 122 -258 104t-214 -105t8 -173t258 -123q-176 4 -262.5 -194.5t-208.5 -155.5l-15 -24l182 -120q112 -1 176 83q160 362 330 332v-7zM645 789l14 -20q52 12 57 -46q-11 -604 6.5 -650.5
t102.5 -75.5l213 113l-33 20q-36 -2 -57 35.5t-9 655.5q-14 53 -67 78z" />
    <glyph glyph-name="uni0451" unicode="&#x451;" horiz-adv-x="776" 
d="M404 1155q109 -19 115 -160l187 149q6 132 -120 178zM88 1159q109 -19 115 -160l187 149q6 132 -120 178zM205 792q-136 -121 -174 -283.5t23.5 -302t228.5 -198.5q136 -45 283 64.5t193 205.5l-30 24q-202 -139 -321.5 -92t-140.5 106l217 142q211 131 190 269t-177 162
t-292 -97zM243.5 716.5q54.5 53.5 143.5 -0.5t75 -143.5t-225 -202.5q-23 51 -33 99t-12.5 121t52 126.5z" />
    <glyph glyph-name="endash" unicode="&#x2013;" horiz-adv-x="952" 
d="M24 572l10 -15q33 34 772 24l129 162l-21 9q-27 -35 -751 -22z" />
    <glyph glyph-name="emdash" unicode="&#x2014;" horiz-adv-x="1451" 
d="M23 562l10 -15q33 34 1272 24l129 162l-21 9q-27 -35 -1251 -22z" />
    <glyph glyph-name="quoteleft" unicode="&#x2018;" horiz-adv-x="368" 
d="M527 1059q10 19 -4 32q-171 143 -64 260q9 30 -24 36q-416 -201 -120 -476h20z" />
    <glyph glyph-name="quoteright" unicode="&#x2019;" horiz-adv-x="358" 
d="M20 1236q-10 -19 4 -32q171 -143 64 -260q-9 -30 24 -36q416 201 120 476h-20z" />
    <glyph glyph-name="quotedblleft" unicode="&#x201c;" horiz-adv-x="667" 
d="M827 1056q10 19 -4 32q-171 143 -64 260q9 30 -24 36q-416 -201 -120 -476h20zM527 1056q10 19 -4 32q-171 143 -64 260q9 30 -24 36q-416 -201 -120 -476h20z" />
    <glyph glyph-name="quotedblright" unicode="&#x201d;" horiz-adv-x="656" 
d="M20 1226q-10 -19 4 -32q171 -143 64 -260q-9 -30 24 -36q416 201 120 476h-20zM320 1226q-10 -19 4 -32q171 -143 64 -260q-9 -30 24 -36q416 201 120 476h-20z" />
    <glyph glyph-name="dagger" unicode="&#x2020;" horiz-adv-x="850" 
d="M325 1278l2 -231l-178 3l-132 -234l34 -23q32 74 161 73l119 -1l-1 -454q0 -348 104 -804l18 15l63 926v328h178l140 147l-10 28h-320v20v205q-3 58 62 103l-20 20z" />
    <glyph glyph-name="daggerdbl" unicode="&#x2021;" horiz-adv-x="843" 
d="M499 551h300l10 -28l-140 -147h-158v-218l-63 -556l-18 -15q-104 216 -104 564l1 214l-119 1q-129 1 -161 -73l-34 23l132 234l178 -3l-2 300l-122 1q-129 1 -161 -73l-34 23l132 234l178 -3l-2 451l160 341l80 -20q-65 -45 -67 -288l5 -480h320l10 -28l-140 -147h-180z
" />
    <glyph glyph-name="bullet" unicode="&#x2022;" horiz-adv-x="421" 
d="M168 706l4 -113l-87 115l-22 -80l71 -88h-99l-35 -81l129 12l-80 -72l20 -103l101 125l-9 -132l82 -42l-12 176l106 -131l20 99l-84 80l108 -1l37 89l-151 -19l73 83l-19 81l-89 -108l9 155z" />
    <glyph glyph-name="ellipsis" unicode="&#x2026;" horiz-adv-x="1063" 
d="M4 131q109 -19 115 -160l187 149q6 132 -120 178zM374 131q109 -19 115 -160l187 149q6 132 -120 178zM744 131q109 -19 115 -160l187 149q6 132 -120 178z" />
    <glyph glyph-name="perthousand" unicode="&#x2030;" horiz-adv-x="1749" 
d="M164 1186q-44 -63 -62 -126.5t-6 -159t92 -184.5t128 -89t151 115q40 43 70.5 92.5t44.5 139.5t-24 200q-96 180 -244 159q-106 -84 -150 -147zM442 1090q48 -112 21 -232t-119 -79.5t-122.5 145.5t-19.5 196.5t101.5 86.5t138.5 -117zM778 555q-44 -63 -62 -126.5
t-6 -159t92 -184.5t128 -89t151 115q40 43 70.5 92.5t44.5 139.5t-24 200q-96 180 -244 159q-106 -84 -150 -147zM1056 459q48 -112 21 -232t-119 -79.5t-122.5 145.5t-19.5 196.5t101.5 86.5t138.5 -117zM744 1279q-153 -635 -452 -1446l63 -13q53 111 203 244
q99 516 426 1417l-52 -14zM1288 555q-44 -63 -62 -126.5t-6 -159t92 -184.5t128 -89t151 115q40 43 70.5 92.5t44.5 139.5t-24 200q-96 180 -244 159q-106 -84 -150 -147zM1566 459q48 -112 21 -232t-119 -79.5t-122.5 145.5t-19.5 196.5t101.5 86.5t138.5 -117z" />
    <glyph glyph-name="guilsinglleft" unicode="&#x2039;" horiz-adv-x="366" 
d="M345 171l-169 376l176 372l-65 131l-281 -573l209 -473z" />
    <glyph glyph-name="guilsinglright" unicode="&#x203a;" horiz-adv-x="422" 
d="M3 883l169 -376l-176 -372l65 -131l281 573l-209 473z" />
    <glyph glyph-name="Euro" unicode="&#x20ac;" horiz-adv-x="1074" 
d="M140 860l-139 -158l10 -15q16 17 173 24q-4 -27 -6 -52h-38l-139 -158l10 -15q16 17 168 24q8 -63 27 -118q50 -136 137.5 -235.5t214.5 -141.5q59 -19 117 -19q65 0 128 24q119 47 250 221l-42 41q-137 -152 -345 -32q-166 96 -240 265q97 1 217 0l129 162l-21 9
q-21 -27 -370 -28q-7 29 -11 58q117 1 273 0l129 162l-21 9q-21 -28 -389 -28q5 80 32 147q66 159 215 162t195.5 -70t11.5 -123l31 -16l180 151q23 58 -44 140.5t-214 86.5h-17q-137 0 -233 -54q-102 -57 -205 -219q-62 -98 -96 -205q-38 0 -78 1z" />
    <glyph glyph-name="trademark" unicode="&#x2122;" horiz-adv-x="1214" 
d="M35 1289l10 -8q27 21 194 13q-26 -27 -46 -50l1 -405q18 -72 81 -85l83 73l-8 16q-37 -1 -46 72l2 380h103l88 82l-9 10h-384zM464 1260l12 -22q38 31 34 -64q-5 -297 1.5 -343t49.5 -80l107 103v16q-40 -8 -45.5 64.5t0.5 262.5q66 80 111.5 57t44.5 -167
q-2 -207 1.5 -256t44.5 -85l103 105l-3 17q-40 -12 -30 343q62 66 107 43t45 -167q-3 -207 1 -256t45 -85l105 109l-2 16q-27 -11 -35.5 61.5t-2.5 217.5q3 88 -11 141.5t-61 78t-87 -1.5t-66 -55t-43 -53q-25 85 -72 109.5t-87 -1.5t-66 -55t-40 -50q5 85 -35 120z" />
    <glyph glyph-name="approxequal" unicode="&#x2248;" horiz-adv-x="998" 
d="M283 834l-145 -158l39 -35l82 77q119 66 281.5 -28t242.5 16l166 181l-34 35l-68 -73q-99 -60 -267 38.5t-297 -53.5zM188 556l-145 -158l39 -35l82 77q119 66 281.5 -28t242.5 16l166 182l-34 34l-68 -73q-99 -60 -267 38.5t-297 -53.5z" />
    </font>
</defs>
</svg>
