<?xml version="1.0" standalone="no"?>
<!DOCTYPE svg PUBLIC "-//W3C//DTD SVG 1.1//EN" "http://www.w3.org/Graphics/SVG/1.1/DTD/svg11.dtd" >
<svg xmlns="http://www.w3.org/2000/svg" xmlns:xlink="http://www.w3.org/1999/xlink" version="1.1">
<metadata>
Created by FontForge 20201107 at Mon May 30 13:23:25 2016
 By 
Necropolis (C) 2000
</metadata>
<defs>
<font id="AbaddonCyr" horiz-adv-x="400" >
  <font-face 
    font-family="Abaddon Cyr"
    font-weight="400"
    font-stretch="normal"
    units-per-em="1000"
    panose-1="0 0 4 0 0 0 0 0 0 0"
    ascent="800"
    descent="-200"
    x-height="618"
    cap-height="799"
    bbox="-91 -188 933 947"
    underline-thickness="20"
    underline-position="-143"
    unicode-range="U+001D-FB02"
  />
<missing-glyph horiz-adv-x="500" 
d="M63 0v831h375v-831h-375zM125 63h250v706h-250v-706z" />
    <glyph glyph-name=".notdef" horiz-adv-x="500" 
d="M63 0v831h375v-831h-375zM125 63h250v706h-250v-706z" />
    <glyph glyph-name=".null" horiz-adv-x="0" 
 />
    <glyph glyph-name=".null" horiz-adv-x="0" 
 />
    <glyph glyph-name="glyph2" horiz-adv-x="255" 
 />
    <glyph glyph-name="nonmarkingreturn" unicode=" " horiz-adv-x="255" 
 />
    <glyph glyph-name="exclam" unicode="!" horiz-adv-x="248" 
d="M220 714q0 -5 -8 -25l-4 -8l-3 -7q-4 -8 -5 -12q-30 -87 -28 -171l3 -121q0 -164 44 -246q-7 -4 -20 -4q-8 0 -14 5q-7 4 -18 4q-35 0 -88 -9q-1 18 10 33l4 6l5 7q6 8 9 17q15 37 17 84q1 16 1 42l-1 22v22q0 133 -37 247q-6 21 -25 47l-17 22l-17 20q7 3 20 3l11 -1h10
q84 0 136 52l15 -10v-19zM170 12q-14 -12 -26 -12q-17 0 -32 16q-13 14 -13 26q0 20 14 34q13 12 28 12q17 0 32 -16q13 -15 13 -28q0 -18 -16 -32z" />
    <glyph glyph-name="quotedbl" unicode="&#x22;" horiz-adv-x="256" 
d="M218 677l-29 -9l25 -35q27 -67 10 -67q-10 0 -48 58q-39 59 -39 77q0 5 2 11q3 7 8 13q12 16 36 18q31 2 42 -42zM107 680l-29 -9l25 -35q27 -67 10 -67q-10 0 -48 58q-39 59 -39 77q0 5 2 11q3 7 8 13q12 16 36 18q31 2 42 -42z" />
    <glyph glyph-name="numbersign" unicode="#" horiz-adv-x="865" 
d="M856 257q3 -71 -53 -120q-52 -45 -125 -48t-130 39q-60 46 -63 117t54 119q52 45 125 48t129 -39q60 -45 63 -116zM875 50l-3 -35h-388v35h391zM489 372q-36 -2 -45 -6q-17 -8 -17 -37v-281h-19l-281 273v-199q0 -30 16 -38q9 -4 45 -5v-31h-162v31q36 1 45 5q16 8 16 38
v198q0 47 -12 47q-7 0 -22 -8q2 9 6 26q24 21 51 21q38 0 68 -36l210 -207v166q0 29 -16 37q-9 4 -45 6v32h162v-32zM784 250q-3 136 -115 136q-52 0 -83 -42q-28 -38 -28 -92t27 -92q30 -42 82 -44q57 -2 89 39q29 37 28 95z" />
    <glyph glyph-name="dollar" unicode="$" horiz-adv-x="470" 
d="M480 167q-2 -77 -54.5 -124.5t-130.5 -53.5v-104h-39v102q-82 0 -127 33q51 -13 127 -10v242l-77 27q-108 38 -108 107q0 57 67 87q51 24 115 24q2 0 3 -1v109h39v-111q102 -9 133 -36v25h27v-109h-50q-4 87 -110 96v-169l70 -24q117 -40 115 -110zM256 312v158
q-33 -2 -67 -14q-46 -17 -46 -43q0 -28 40 -57q33 -19 65 -38zM406 133q0 65 -108 104h-3v-222q111 35 111 118z" />
    <glyph glyph-name="percent" unicode="%" horiz-adv-x="672" 
d="M700 126q0 -60 -38.5 -95t-98.5 -35q-61 0 -100 35t-39 95h-1q0 61 39 95.5t101 34.5q61 0 99 -34.5t38 -95.5zM592 556l-390 -611h-41l391 611h40zM357 365q0 -59 -38.5 -94.5t-98.5 -35.5q-61 0 -99 34q-41 36 -41 96q0 61 39 96t101 35q61 0 99 -35.5t38 -95.5z
M659 126q0 50 -22 84q-26 38 -74 38q-49 0 -75 -38q-23 -33 -23 -84q0 -50 23 -83q27 -36 75 -36t73 37q23 32 23 82zM316 365q0 49 -23 83q-26 39 -73 39q-49 0 -76 -38q-24 -33 -24 -84q0 -50 25 -83q27 -36 75 -36q47 0 73 37q23 33 23 82z" />
    <glyph glyph-name="ampersand" unicode="&#x26;" horiz-adv-x="413" 
d="M475 152l-60 7l-126 -68l18 -114l-57 13l-43 -4l-20 -3q2 5 5 16l3 10l3 11q6 16 8 29q2 6 2 9q0 11 -8 7q-63 -32 -102 -70q-26 19 -59 35q-35 15 -53 28q-15 10 -25 18q-15 12 -25 24q-27 34 -27 78q0 53 36 111q34 56 82 84q-4 9 -18 21l-12 10l-13 13q-34 32 -34 69
q0 41 54 83q49 39 81 39q10 0 54 -19q41 -17 55 -26q37 -22 37 -79q0 -69 -69 -99q41 -33 72 -119q5 -15 10 -31q4 -12 8 -25l2 -10q1 -3 2 -7l2 -7l17 -48l160 54l69 28zM126 516q-15 8 -34 12q-17 3 -31 3q-25 0 -36 -9q-3 -3 -14 -15t-13 -15q2 -17 6 -28q1 -4 3 -7l1 -3
l1 -1q2 -2 4 -8l20 -15q11 -8 20 -13q22 -13 45 -13t44 19q23 19 23 42q0 33 -39 51zM174 268q-7 6 -18 15q-13 11 -26 20q-35 25 -48 25q-27 0 -63 -52q-35 -50 -35 -81q0 -39 50 -73q45 -31 84 -31h6l9 1q12 1 16 2l63 22l1 75q-31 69 -39 77z" />
    <glyph glyph-name="quotesingle" unicode="'" horiz-adv-x="155" 
d="M141 477q0 -6 -1 -12l-29 -163h-14l-30 169q-1 3 -1 5q0 38 36 38q39 0 39 -37z" />
    <glyph glyph-name="parenleft" unicode="(" horiz-adv-x="284" 
d="M158 516q-63 -116 -69 -199q-8 -108 64 -211q13 -19 40 -46l22 -22q12 -13 21 -23l-20 -6q-82 46 -136 136t-54 183q0 73 60 171q9 14 42 58q75 78 130 92q-42 -27 -100 -133z" />
    <glyph glyph-name="parenright" unicode=")" horiz-adv-x="284" 
d="M204 145q-54 -90 -136 -136l-20 6q9 10 21 23l22 22q27 27 40 46q72 103 64 211q-6 83 -69 199q-58 106 -100 133q55 -14 130 -92q33 -44 42 -58q60 -98 60 -171q0 -93 -54 -183z" />
    <glyph glyph-name="asterisk" unicode="*" horiz-adv-x="411" 
d="M246 495l-40 -140l-41 140l-145 -5l121 81l-50 136l114 -89l115 89l-50 -136l121 -81z" />
    <glyph glyph-name="plus" unicode="+" horiz-adv-x="581" 
d="M619 214h-224v-185h-59v184h-223v56h223v190h59v-190h224v-55z" />
    <glyph glyph-name="comma" unicode="," horiz-adv-x="212" 
d="M114 -44q-38 -58 -48 -58q-16 0 10 67l25 35l-29 9l-7 24q11 44 42 42q24 -2 37 -18q5 -6 7 -13q2 -6 2 -11q0 -18 -39 -77z" />
    <glyph glyph-name="hyphen" unicode="-" horiz-adv-x="331" 
d="M305 355l-274 -14l14 34l260 32v-52z" />
    <glyph glyph-name="hyphen" unicode="&#x2010;" horiz-adv-x="331" 
d="M305 355l-274 -14l14 34l260 32v-52z" />
    <glyph glyph-name="period" unicode="." horiz-adv-x="268" 
d="M162 12q-14 -12 -26 -12q-17 0 -32 16q-14 15 -14 26q0 20 15 34q13 12 27 12q18 0 33 -16q13 -15 13 -28q0 -18 -16 -32z" />
    <glyph glyph-name="slash" unicode="/" horiz-adv-x="411" 
d="M441 605q-65 -18 -98 -41q-44 -30 -64 -84q-9 -26 -30 -190q-16 -125 -28 -172q-25 -96 -82 -150q-32 -31 -83 -31q-26 0 -43 11h-3q58 14 89 39.5t49 79.5q21 64 37 206q16 139 40 206q33 93 96 123q25 12 62 12q29 0 58 -8v-1z" />
    <glyph glyph-name="zero" unicode="0" horiz-adv-x="669" 
d="M634 693q-13 -5 -16 -12q-8 -13 -13 -84l-2 -28l-1 -26q-2 -29 -3 -39q-26 -208 -165 -401q-12 -16 -55 -58q-47 -46 -56 -46q-12 0 -67 68q-20 25 -39 51q-18 24 -23 33q-26 46 -51 113l-20 59l-20 59q-19 55 -27 143l-2 38l-2 37q-3 48 -5 71q-22 27 -52 27
q60 48 147 80q89 32 165 32h33l33 -1q38 -1 65 -7q19 -4 43 -12l21 -7l21 -8q4 -2 16 -9l12 -6l12 -7q31 -18 34 -18q5 0 20 -16l10 -12t7 -9q-9 0 -20 -5zM475 597q-6 46 -20 81q-35 88 -114 88q-80 0 -123 -59q-26 -56 -30 -141q-1 -29 0 -71l1 -34v-31q0 -154 75 -302
q2 -3 4 -8q3 -5 7 -11q8 -14 17 -26q23 -33 34 -33q9 0 35 27q24 24 32 36q87 137 87 407q0 41 -5 77z" />
    <glyph glyph-name="one" unicode="1" horiz-adv-x="250" 
d="M231 784l-6 -6l-7 -5q-16 -13 -18 -22q-10 -40 -10 -78l-4 -586q0 -19 15 -37t33 -25h-218q2 4 9 8l6 2l6 3q16 10 24 34q5 18 6 43l2 129l3 129q3 160 3 258v39q-1 8 -13 26q-9 13 -29 18l-8 2l-7 2q-8 2 -12 7l238 75q-5 -9 -13 -16z" />
    <glyph glyph-name="two" unicode="2" horiz-adv-x="573" 
d="M568 550q-33 -11 -68 -24q-48 -17 -90 -34q-113 -46 -159 -78q-63 -44 -95 -90q-41 -60 -84 -187l384 5q17 1 45 19q29 18 35 33v-13q0 -7 -27 -76l-11 -26l-5 -12l-5 -12q-11 -27 -13 -32h-468v26l-1 11v13q-1 33 1 42q1 1 13 63l4 23q3 14 4 20q4 19 4 20q22 73 44 123
q53 117 154 187q18 12 50 31l30 16l30 17q79 44 112 70q-56 55 -166 55q-61 0 -108 -22q-61 -28 -66 -81q-19 26 -45 64l-43 65q105 43 187 43q101 0 202 -67q98 -65 143 -157l3 -6l4 -6q5 -7 5 -12v-11z" />
    <glyph glyph-name="three" unicode="3" horiz-adv-x="581" 
d="M554 299q1 -136 -85 -190q-48 -31 -212 -63q-24 -4 -128 -16q-34 -3 -70 -7q-13 -1 -22 -2l-9 -1l26 29q46 6 143 24q101 20 141 31q87 25 125 113q1 2 3 7l4 10q5 14 4 17q1 91 -90 172q-74 66 -176 101q2 7 17 17l11 8q8 4 10 6q108 76 154 127q-17 34 -62 56
q-42 21 -87 21t-80 -26q-37 -29 -41 -72h-6q-25 41 -39 70q-20 42 -25 76q5 -4 17 -8l10 -3l8 -3q13 0 81 2h15l16 1l34 1q41 1 73 2q194 5 232 1l-3 -4q-25 -9 -37 -46q-11 -31 -8 -57q-1 0 5 -19q2 -9 3 -13q2 -6 1 -6q-13 0 -73 -32q-61 -33 -68 -45q119 -57 156 -165
q1 -1 6 -19q3 -12 11 -39l16 -56h-1z" />
    <glyph glyph-name="four" unicode="4" horiz-adv-x="677" 
d="M636 800l-3 -4q-24 -9 -36 -44q-4 -14 -7 -31q-2 -13 -2 -28l-10 -545v-11q0 -7 1 -14q1 -18 3 -33q7 -42 22 -49l12 -5q6 -3 10 -8h-219l1 7q14 2 20 6q24 18 30 68q2 17 3 42l1 20q1 10 1 17l1 9l2 11q3 12 2 19l-1 190q-13 -1 -119 -5q-19 0 -47 -1l-48 -2
q-61 -2 -94 -3q-11 -3 -54 -6l-17 -2l-17 -1q-18 -2 -30 -4q2 15 27 34q13 17 23 32q13 19 24 35q27 41 35 63q5 13 15 43q10 32 21 63q26 81 26 86q0 35 -47 43l-1 8h472zM476 701l-2 18q-2 19 -11 30q-113 -3 -180 -89q-50 -64 -86 -196q55 -2 146 -2h98q26 0 33 100
q2 33 2 76v63zM42 394l-1 -1l1 2v-1z" />
    <glyph glyph-name="five" unicode="5" horiz-adv-x="540" 
d="M353 -45q52 66 79 118q37 72 37 136q0 68 -49 128q-34 42 -106 92q-70 50 -314 121q13 67 29 113q12 37 25 60q5 9 11 16q3 4 8 9q7 7 7 9q0 15 -19 24q-16 8 -32 7v13h446q7 0 19 5q9 4 17 9q-5 -33 -26 -76q-13 -28 -38 -70h-7q-4 43 -41 72q-34 26 -79 26
q-82 0 -118 -53q-11 -16 -18 -40l-3 -8l-2 -8q-2 -7 -3 -10q109 -46 159 -82q80 -58 110 -87q51 -49 72 -108q1 -3 12 -50q4 -17 8 -33l3 -15q0 -194 -187 -318z" />
    <glyph glyph-name="six" unicode="6" horiz-adv-x="494" 
d="M358 624q-77 -33 -123 -74q11 -10 43 -30q16 -10 25 -16q15 -10 27 -21q68 -57 108 -170q42 -116 -29 -250q-7 -13 -24 -31l-14 -14l-13 -15q-9 -11 -34 -28q-8 -5 -21 -13l-9 -6l-9 -6q48 62 71 134q28 87 11 165q-13 58 -82 118q-22 19 -61 48l-30 22q-17 13 -28 22
q-75 -136 -75 -250q0 -64 37 -136q27 -52 79 -118q-187 124 -187 318v17q1 20 2 39q3 60 11 85q44 148 171 263q54 50 154 114l23 13q11 -1 27 -19q15 -17 30 -44q18 -34 36 -84q-44 -2 -116 -33z" />
    <glyph glyph-name="seven" unicode="7" horiz-adv-x="484" 
d="M467 800l-50 -79l-50 -79q-55 -88 -94 -157q-101 -177 -158 -334q0 -2 -8 -63q-8 -62 -9 -64h-72v11q0 5 8 29l3 9l3 9q3 10 4 14l1 1l1 1q2 2 2 3q5 12 13 38l6 19l7 19q25 67 70 164l21 45l22 45q26 50 49 87q3 4 19 30l16 24l16 26q43 68 43 74v13q-31 10 -77 10h-52
q-40 0 -70 -2q-89 -8 -114 -36q0 30 23 87q9 22 20 46q9 19 19 38q3 -3 8 -7l12 -10q15 -11 22 -11h346z" />
    <glyph glyph-name="eight" unicode="8" horiz-adv-x="610" 
d="M582 731l-4 -8l-5 -10q-14 -25 -29 -46q-46 -68 -134 -141q98 -74 127 -155q0 -2 4 -17q4 -16 8 -33q11 -47 11 -48q0 -193 -187 -318q53 68 79 118q37 73 37 136q0 68 -49 128q-35 42 -107 92q-12 9 -28 17q-16 -10 -24 -16q-72 -50 -106 -92q-49 -60 -49 -128
q0 -63 37 -136q26 -51 79 -119q-187 124 -187 318q0 2 11 49t12 49q23 68 94 130q-33 11 -87 28l-19 6l-18 6q-18 5 -29 9v11q0 5 5 12l4 6l3 6q45 92 143 157q101 67 202 67q39 0 109 -23q25 -9 57 -21q11 -4 26 -10l12 -5l11 -4q-4 -6 -9 -15zM301 740q-110 0 -166 -55
q27 -21 80 -47l45 -22q29 -14 44 -21l11 7l10 6l21 12q23 14 44 31t53 46q-84 43 -142 43z" />
    <glyph glyph-name="nine" unicode="9" horiz-adv-x="540" 
d="M526 321q-3 -10 -12 -27q-7 -16 -13 -27q-4 -8 -16 -29q-60 -99 -163 -165q-108 -70 -219 -71l7 7q139 40 232 171q90 129 90 276q0 96 -47 187q-57 110 -145 110q-53 0 -74 -16q-9 -7 -44 -57l15 -69q1 -10 18 -47q19 -42 35 -62q14 -17 46 -42q24 -18 62 -44
q79 -53 80 -58q-25 5 -56 13q-38 11 -72 24q-91 33 -128 72q-103 100 -142 213l36 51q43 52 182 65l332 5v-13q-16 1 -32 -7q-19 -9 -19 -24q0 -3 13 -26l6 -12l7 -13l15 -30q17 -39 27 -70q13 -40 13 -69q0 -125 -34 -216z" />
    <glyph glyph-name="colon" unicode=":" horiz-adv-x="167" 
d="M115 172q-14 -16 -28 -16q-45 0 -45 46q0 42 42 42q18 0 32 -12q13 -12 13 -30q0 -14 -14 -30zM112 15q-14 -15 -29 -15q-14 0 -29 14q-16 14 -16 28q0 17 12 31q13 15 30 15q15 0 30 -14t15 -30q0 -15 -13 -29z" />
    <glyph glyph-name="semicolon" unicode=";" horiz-adv-x="203" 
d="M193 301q0 -20 -15 -31t-35 -11q-21 0 -37 11t-16 31t16.5 32.5t36.5 12.5q21 0 35.5 -12.5t14.5 -32.5zM210 11q0 -85 -120 -134l-12 11q94 54 94 99q0 16 -14 16q-5 0 -14 -1.5t-14 -1.5q-47 0 -47 38q0 42 54 42q73 0 73 -69z" />
    <glyph glyph-name="less" unicode="&#x3c;" horiz-adv-x="638" 
d="M637 22l-496 170v45l496 170v-53l-409 -140l409 -138v-54z" />
    <glyph glyph-name="equal" unicode="=" horiz-adv-x="617" 
d="M641 260h-504v48h504v-48zM641 120h-505v49h505v-49z" />
    <glyph glyph-name="greater" unicode="&#x3e;" horiz-adv-x="606" 
d="M637 193l-496 -171v54l409 138l-409 139v54l496 -170v-44z" />
    <glyph glyph-name="question" unicode="?" horiz-adv-x="375" 
d="M300 375q-31 -44 -45 -74q-21 -43 -21 -78q0 -72 46 -106q-8 -7 -24 -6q-6 0 -15 1l-16 3q-42 6 -49 -9q-25 14 -24 38l1 11l2 12q3 16 3 27q0 14 21 65q8 19 17 38q8 18 12 26q34 56 80 137q11 74 -17 104q-35 36 -101 23q-45 -9 -64 -34q-19 -24 -35 -90
q-13 -51 34 -90q46 -39 102 -30q-56 -50 -80 -79q-54 42 -77 74q-33 44 -33 98q0 23 11 68q11 49 23 62l41 49q34 28 82 37q95 18 163 -79l20 -87q5 -21 -57 -111zM247 12q-14 -12 -26 -12q-17 0 -32 16q-14 15 -14 26q0 20 15 34q13 12 27 12q18 0 33 -16q13 -15 13 -28
q0 -18 -16 -32z" />
    <glyph glyph-name="at" unicode="@" horiz-adv-x="587" 
d="M484 242l3 -3q-8 -10 -14 -16l-42 -42q-62 -62 -164 -71q-109 -9 -173 55q-53 53 -69 144q-15 87 11 158q15 41 29 63l24 38q38 61 132 100q95 39 149 13q19 -9 34 -15q4 -2 10 -3l8 -3q11 -4 31 -24q4 -4 17 -20l9 -12l10 -11q57 -56 50 -137q-6 -76 -61 -131l-43 -43
q-34 -34 -76 -31l3 -3h-79l1 3h4q2 1 3 2q8 6 11 24l1 15v14q2 8 2 14l2 115h-40q-31 0 -35 -7q1 11 12 27q7 -3 26 -3h27q10 0 11 12q1 5 0 11v16l-1 6q-1 7 -4 11q-46 -1 -78 -58q-28 -49 -28 -99q0 -61 40 -121l2 -3l1 -4q-18 12 -38 40t-27 49q-2 7 -6 31q-3 23 -3 31
q0 38 9 66q1 4 8 15q4 8 13 22q17 30 17 31q0 13 -17 15v3h170l-1 -2q-9 -3 -13 -15q-2 -5 -2 -12q-1 -5 -1 -10l-4 -186l3 3q44 -8 59 -8q26 -1 46 13q40 56 41 121q1 71 -47 121q-6 6 -7 10t-5 8q-23 23 -60 40q-15 6 -34 13l-34 11q-59 18 -111 -4q-37 -16 -83 -59
q-22 -38 -42 -94q-25 -68 -7 -142q18 -72 72 -127q59 -58 159 -53q93 5 159 57z" />
    <glyph glyph-name="A" unicode="A" horiz-adv-x="587" 
d="M572 800l-3 -4q-43 -15 -45 -103l-10 -545q-2 -95 26 -107q10 -4 22 -13h-219l1 7q14 1 20 6q25 20 30 68q2 19 5 79q5 21 5 39l4 320h-13q-13 1 -24 1h-56q-102 0 -115 -21q5 30 34 75q26 -9 148 -9q31 0 31 51v22q0 5 -1 12v7q0 48 -13 64q-129 -4 -218 -160
q-78 -136 -78 -276q0 -167 112 -336q1 -3 7 -18q-52 34 -106 111q-52 73 -73 136q-7 22 -16 84t-9 88q0 109 25 182q6 18 57 104q48 81 48 85q0 36 -47 43l-1 8h472z" />
    <glyph glyph-name="B" unicode="B" horiz-adv-x="581" 
d="M572 315q0 -138 -81 -198q-57 -42 -208 -71q-92 -18 -150 -16l-120 4q50 14 50 57l1 451q0 79 -1 90q-8 68 -44 68q-4 0 -8 -2q144 113 358 113q68 0 119 -50q5 -5 29 -47.5t24 -46.5v-14q-2 2 -8 2q-14 0 -74 -32.5t-66 -44.5q118 -57 156 -165q4 -12 23 -98zM501 251
q0 91 -91 172q-74 66 -175 101q2 7 37 31q64 45 81 58q41 32 73 69q-20 38 -34 50q-20 16 -59 16q-63 0 -105 -34q-45 -37 -46 -99l-4 -474q0 -57 10 -65q75 9 89 10q51 8 88 18q86 24 124 113q12 28 12 34z" />
    <glyph glyph-name="C" unicode="C" horiz-adv-x="540" 
d="M528 815q-7 -51 -64 -146h-6q-5 44 -40.5 71t-80.5 27q-88 0 -145 -117q-47 -96 -47 -194q0 -149 90 -276q92 -131 233 -171l6 -7q-111 1 -219 71q-103 66 -163 165q-6 15 -19 44q-9 12 -22 39q-34 92 -34 216q0 49 40.5 140.5t40.5 79.5q0 15 -17.5 23.5t-33.5 7.5v13
h446q14 0 35 14z" />
    <glyph glyph-name="D" unicode="D" horiz-adv-x="676" 
d="M652 525q0 -85 -54 -210q-3 -10 -19 -44q-60 -95 -192 -169t-243 -74h-134v11l26 10q28 11 29 90l7 444l-8 88q-22 27 -53 27q62 48 149.5 80t163.5 32q237 0 327 -112q-19 -1 -26 -17q27 -96 27 -156zM525 480q1 2 1 8q0 104 -36 175q-47 92 -141 92q-90 0 -126.5 -36.5
t-36.5 -127.5v-279q0 -52 -4 -231q-1 -25 27 -25q16 0 72 28q109 55 176.5 164.5t67.5 231.5z" />
    <glyph glyph-name="E" unicode="E" horiz-adv-x="540" 
d="M528 815q-7 -51 -64 -146h-6q-5 44 -40.5 71t-80.5 27q-43 0 -84 -36q-35 -31 -57.5 -75t-22.5 -48q0 -8 6 -12h223q-19 -31 -56 -75q-7 29 -65 29q-6 0 -19 -1t-19 -1q-68 0 -75 -4q-22 -9 -22 -63q0 -163 83 -292q88 -137 239 -180l6 -7q-112 2 -219 71
q-102 65 -163 165q-6 15 -19 44q-9 12 -22 39q-34 94 -34 216q0 49 40.5 140.5t40.5 79.5q0 15 -17.5 23.5t-33.5 7.5v13h446q14 0 35 14z" />
    <glyph glyph-name="F" unicode="F" horiz-adv-x="556" 
d="M542 794q-11 -24 -35 -60q-30 -45 -38 -59l-6 1q-23 86 -121 86q-74 0 -103 -39q-24 -34 -24 -111q0 -17 13 -17l124 -2q10 0 65 4q-9 -29 -45 -82q1 7 -6.5 17.5t-14.5 10.5h-129q-9 -5 -9 -29l-4 -414q0 -27 12 -45q14 -21 40 -20v-10h-221v10q38 8 48 42q5 17 7 101
q0 53 1 106q3 101 3 139q0 43 -2 258q0 45 -22 72q-16 20 -59 44l443 -1q18 0 83 7v-9z" />
    <glyph glyph-name="G" unicode="G" horiz-adv-x="589" 
d="M576 581q-1 -1 -23 -17q-14 -10 -18 -23q-13 -43 -13 -110q0 -19 2 -67q2 -43 1 -67q0 -21 -2 -52l-1 -38q-2 -49 -2 -91q0 -41 4 -54q9 -29 38 -34v-8q-7 -5 -26 -5q-14 0 -42 4t-42 4q-167 0 -300 156q-127 150 -127 320q0 57 34 151.5t34 98.5q0 28 -55 50h479
q9 0 51 16q-15 -66 -85 -162v6q0 29 -22 59.5t-49 35.5q-12 8 -18 8h-59q-8 0 -31.5 -11t-32.5 -17q-121 -87 -121 -257q0 -118 61 -239q68 -134 170 -168h15l3 4q5 43 5 198q0 10 2.5 29t2.5 29v175q0 28 -17 54q-32 17 -38 16v13h214zM587 33z" />
    <glyph glyph-name="H" unicode="H" horiz-adv-x="593" 
d="M580 799l-1 -6h-3q-49 0 -50 -116l-4 -591q0 -31 21 -44q26 -16 27 -18h-219q9 7 28 21q24 20 24 62v439h-220v-467q0 -14 13 -29.5t27 -14.5l8 -11h-219q5 2 22 13q29 19 30 77l8 527q0 52 -13 116q-2 12 -17 23q-19 15 -23 19h222l-5 -7h-3q-23 0 -36 -47
q-10 -36 -10 -66v-81l223 2q-2 14 -3 34v0q-1 82 -3 94q-9 52 -46 71h222z" />
    <glyph glyph-name="I" unicode="I" horiz-adv-x="250" 
d="M238 800q-17 -9 -24 -14q-13 -11 -16 -21q-14 -56 -14 -92l-3 -586q0 -41 47 -62h-218q4 2 21 13q29 19 30 77l8 516q0 71 -13 127q-3 11 -17 23q-21 17 -23 19h222z" />
    <glyph glyph-name="J" unicode="J" horiz-adv-x="484" 
d="M442 141q0 -60 18 -76q-34 1 -115.5 -34.5t-123.5 -35.5q-4 0 -12.5 2t-12.5 2q-47 0 -112 42q-69 45 -69 89v2q70 53 120 87q-18 -27 -18 -70q0 -45 31.5 -78.5t75.5 -33.5q100 0 101 120l3 450q0 18 -4 53.5t-4 53.5q0 40 -12 54q-19 15 -38 31h222q-30 -16 -39 -36
q-3 -18 -7 -54z" />
    <glyph glyph-name="K" unicode="K" horiz-adv-x="598" 
d="M582 273q0 -194 -187 -318q116 149 116 254q0 87 -93 193q-96 108 -182 108q-22 0 -38.5 -13.5t-16.5 -34.5l-2 -270q-1 -112 14 -137q5 -9 20 -16.5t16 -11.5h-221v8q42 18 51 44q6 16 6 70l2 571q0 33 -12 45l-36 26l2 6h213v-11q-51 -9 -51 -102q0 1 2 -53
q1 -31 -2 -52q7 -6 12 -6q39 0 108.5 69.5t69.5 107.5q0 20 -41 38v11l210 1q-41 -22 -86 -70q-25 -28 -77 -83q-28 -20 -77 -68q28 0 70.5 -24t55.5 -26q51 -40 77 -69q38 -41 54 -89q4 -11 23 -98z" />
    <glyph glyph-name="L" unicode="L" horiz-adv-x="517" 
d="M494 189q0 -18 -89 -192h-13l7 4q-5 9 -19 21q-30 12 -198 13h-173q63 21 65 127l7 460q0 140 -30 157q-11 5 -28 21h225q-53 -33 -54 -118l-7 -479q-1 -64 14 -94q21 -41 80 -41q61 0 122 41q54 36 91 92v-12z" />
    <glyph glyph-name="M" unicode="M" horiz-adv-x="668" 
d="M652 799l-2 -8q-50 -4 -52 -119l-7 -529q-1 -39 5 -64q10 -46 35 -42l7 -7h-218q36 28 41 36q12 17 13 55l11 482q0 21 -7 54q-10 0 -88 -112q-31 -45 -92 -135l-158 247l-11 -6v-5q0 -22 -3 -62q-4 -43 -4 -63l-5 -374q0 -103 42 -104v-9h-133q12 4 33 19q17 20 18 102
l8 522q0 65 -49 65q-8 0 -27 -3q40 31 161 82l166 -254h9q66 83 144 226q4 7 11 7h26q28 -1 50 -1h76z" />
    <glyph glyph-name="N" unicode="N" horiz-adv-x="569" 
d="M553 789q-50 -9 -50 -54v-380q0 -104 -33 -200q-38 -112 -108 -169q89 139 89 290q0 120 -85 228q-79 100 -196 148q-32 13 -30 13q-15 0 -16 -79q-1 -54 -3 -217l-1 -218q0 -63 13 -90q3 -6 18 -15t16 -13h-137q1 2 19 12t21 20q9 30 10 121v128l5 350q0 21 -25 29
q-18 6 -42 4q85 119 106 119q3 -2 20 -9q193 -80 306 -234h10v141q0 31 -8 45t-35 30l2 8h129z" />
    <glyph glyph-name="O" unicode="O" horiz-adv-x="669" 
d="M651 698q-34 -1 -43 -36q-2 -6 -6 -65q-1 -31 -6 -93q-11 -96 -59 -210q-44 -105 -106 -191q-11 -16 -55 -58q-47 -46 -56 -46q-12 0 -67 68q-49 60 -62 84q-29 53 -51 114q-32 90 -43 127q-18 66 -23 133l-10 146q-22 27 -53 27q62 48 149.5 80t163.5 32q91 0 131 -8
q33 -7 85 -27q67 -40 74.5 -40t36.5 -37zM477 520q0 95 -24 157q-35 89 -115 89t-123 -59q-31 -66 -31 -179q0 -125 13 -205q18 -102 64 -195q9 -18 28 -45q23 -33 34 -33q8 0 41 33q20 20 26 30q54 84 73 196q14 80 14 211z" />
    <glyph glyph-name="P" unicode="P" horiz-adv-x="604" 
d="M596 699q-14 -17 -37 -36q-32 -27 -142 -107q-28 -4 -96 -35q-72 -34 -102 -40q2 8 57 45q36 24 69 45q10 8 42 46t33 45l23 33q-35 50 -44 57q-21 16 -73 16q-69 0 -106 -42t-38 -111l-4 -474v-78l50 -32q-10 0 -29 -1.5t-29 -1.5q-35 0 -79 2t-78 4q50 14 50 57l-1 309
q0 10 2 29.5t2 29.5v128q0 113 -47 113q-4 0 -8 -2q144 113 357 113q134 0 181 -65q16 -22 47 -47z" />
    <glyph glyph-name="Q" unicode="Q" horiz-adv-x="663" 
d="M651 698q-35 -1 -44 -37q-3 -8 -6 -65q-1 -31 -5 -92q-9 -114 -83 -268q-19 -40 -45 -79l-12 -18q0 -2 1 -2q23 0 116 49q-52 -142 -47 -237l-27 51l-12 119l-56 -16q-12 -16 -55 -58q-47 -46 -56 -46q-12 0 -67 67q-47 58 -62 85q-46 84 -102 246q-25 73 -25 274
q-22 27 -53 27q62 48 149.5 80t163.5 32q91 0 131 -8q33 -7 85 -27q67 -40 74.5 -40t36.5 -37zM477 492q0 47 -8 103q-10 70 -26 100q-12 22 -36 52q-21 14 -59 14q-105 0 -141 -107q-21 -63 -21 -196q0 -78 13 -157q16 -97 46 -147q3 -2 8 -7q57 -97 70 -97q8 0 35 27
q12 12 32 36q87 137 87 379z" />
    <glyph glyph-name="R" unicode="R" horiz-adv-x="615" 
d="M597 274q0 -194 -187 -318q116 149 116 254q0 132 -150 239q-91 65 -133 65q44 51 139 97q14 7 28 15q18 11 21 21l12 48q-36 51 -38 53q-18 15 -68 15q-102 0 -133 -69q-25 -56 -26 -97l-7 -406q-2 -119 14 -141q3 -5 37 -22l-205 -2l33 24l7 13q8 64 8 62l-1 546
q-22 27 -53 27q143 112 295 112q114 0 148 -9q73 -20 106 -97q8 -27 22 -63l-10 1q-33 3 -182 -73l-16 -15q120 -31 164 -112q21 -39 36 -70q4 -11 23 -98z" />
    <glyph glyph-name="S" unicode="S" horiz-adv-x="573" 
d="M561 766q-28 -43 -87 -129q-5 53 -66 81q-48 22 -109 22q-108 0 -166 -55q31 -24 111 -62t108 -57q77 -53 108 -83q54 -52 75 -112q4 -10 23 -98q0 -195 -187 -318q116 149 116 254q0 68 -49 128q-34 42 -106 92q-46 32 -158 70q-42 14 -157 51v11q3 4 13 24
q46 93 144.5 158.5t200.5 65.5q82 0 186 -43z" />
    <glyph glyph-name="T" unicode="T" horiz-adv-x="567" 
d="M551 610q-8 8 -18 22q-5 11 -18 32q-78 102 -160 102q-11 0 -18 -40q-6 -34 -6 -51l-3 -455q0 -116 8 -158q2 -12 47 -34h-226q54 16 55 89l6 411q0 4 3.5 12.5t3.5 13.5q0 6 -2 6q-1 0 -3 -2q-1 5 -4 70q-2 51 -9 63q-4 7 -26 29h8q20 0 88 31v12q-8 3 -22 3
q-163 0 -241 -151q15 67 34 202l8 7q4 -12 22 -19.5t33 -7.5h311q5 0 10 5q3 1 28 1q20 0 48 28q8 -50 16 -128v1l2 -6l7 -23z" />
    <glyph glyph-name="U" unicode="U" horiz-adv-x="572" 
d="M551 803q-19 -6 -32 -31.5t-13 -48.5l-5 -531q-1 -140 31 -147l14 -11h-119q-66 0 -156 45q-119 60 -189 180t-70 256q0 84 23 144l22 52q14 34 14 52q0 29 -17 30l-14 10l228 -2q-62 -29 -107 -149q-39 -103 -39 -186q0 -129 64 -236q71 -116 188 -150q11 11 11 49
l-1 612q0 33 -40 61z" />
    <glyph glyph-name="V" unicode="V" horiz-adv-x="546" 
d="M528 632q0 -119 -96 -322q-17 -37 -155 -312l-97 322q-7 39 -21 85q-2 18 -11 44q-7 20 -15 44q-11 46 -32 138q-20 84 -46 131q-5 9 -23.5 20t-19.5 16l137 4q52 0 75 -3q-38 -14 -38 -32q0 -29 67.5 -263.5t86.5 -276.5h1q4 0 5 2q32 51 71 154q43 113 43 160
q0 74 -29 134q-35 73 -98 88q13 6 65 32.5t55 26.5q10 0 29 -30q46 -71 46 -162z" />
    <glyph glyph-name="W" unicode="W" horiz-adv-x="769" 
d="M753 627q0 -110 -84 -318q-22 -54 -140 -312l-97 323q-8 -3 -10 -7q-16 -24 -44 -90l-41 -97q-19 -39 -56 -118q-33 78 -67 205l-54 210q-15 59 -46 176q-33 125 -54 163q-7 12 -23 22q-19 10 -23 15h208q-34 -20 -34 -45q0 -7 64 -231l77 -273l9 -10q12 9 42.5 79.5
t30.5 85.5q0 10 -48.5 177.5t-54.5 179.5q-6 9 -25 20t-19 16l136 4q53 0 76 -3q-39 -14 -39 -33q0 -28 68 -264q67 -231 86 -276h2q3 0 5 3q27 44 57 150.5t30 158.5q0 75 -29 134q-34 73 -98 89q10 5 62.5 31.5t57.5 26.5q10 0 29 -29q46 -70 46 -163z" />
    <glyph glyph-name="X" unicode="X" horiz-adv-x="581" 
d="M558 273q0 -62 -16 -108q-10 -29 -47 -97q-9 -16 -51 -60q-12 -12 -73 -53q116 149 116 254q0 101 -117 192q-32 25 -38 28l-28 9q-55 -53 -119 -123q-25 -4 -60.5 -67.5t-35.5 -92.5q0 -30 19.5 -53t48.5 -26v-1q0 -3 5 -3q3 0 5 2q-23 -15 -55 -35q-42 -26 -52 -26
q-20 0 -34 38q-11 30 -11 55q0 111 152 252q4 3 101 113q-129 102 -259 125v11q0 3 98 169l18 -45q25 -23 95 -79l131 -97q63 68 63 129q0 30 -19.5 53t-48.5 26v1q0 3 -5 3q-3 -1 -5 -2q18 12 55 35q41 26 53 26q19 0 33 -38q11 -30 11 -56q0 -43 -22 -88q-10 -21 -41 -67
q-22 -33 -22 -43q0 -2 45 -42t51 -51q59 -111 59 -168z" />
    <glyph glyph-name="Y" unicode="Y" horiz-adv-x="501" 
d="M329 468v-353q0 -61 30 -76q13 -7 16 -15q-9 -6 -84 -6q-52 0 -131 5l-2 9h3q51 0 51 157q0 13 -1 43q-1 27 -1 42l3 179q0 14 -62 130q-55 102 -76 136q-5 9 -27 26t-31 19q24 11 77 34q11 4 63 28q5 -28 67 -142q27 -50 83 -149q6 -11 11 -11q23 0 61 67q35 64 35 93
q0 30 -19.5 53t-48.5 26v1q0 3 -5 3q-3 -1 -5 -2q18 12 55 35q41 26 53 26q19 0 33 -38q11 -30 11 -56q0 -95 -118 -218q-41 -43 -41 -46z" />
    <glyph glyph-name="Z" unicode="Z" horiz-adv-x="484" 
d="M468 800q-141 -221 -194 -315q-101 -177 -158 -334q-1 -8 9 -8h252q17 0 45.5 18t34.5 33v-12q0 -5 -61 -158h-369v11q0 4 8.5 30.5t10.5 29.5q12 33 29 82q25 69 70.5 165.5t91.5 175.5q40 68 94 154v13q-31 10 -77 10q-80 0 -98 -2q-65 -7 -91 -36q1 48 62 171
q29 -28 42 -28h299z" />
    <glyph glyph-name="bracketleft" unicode="[" horiz-adv-x="346" 
d="M371 -155h-249v897h249v-28h-38q-68 0 -86 -11q-27 -16 -27 -76v-675q0 -56 33 -71q17 -7 86 -7h32v-29z" />
    <glyph glyph-name="backslash" unicode="\" horiz-adv-x="417" 
d="M447 -52h-3q-17 -11 -43 -11q-50 0 -83 31q-57 54 -81 146q-13 47 -25 168q-16 147 -34 198q-21 59 -69 87q-12 7 -25 15q-21 10 -67 23l-2 1q30 8 59 8q39 0 63 -12q64 -32 95 -123q22 -65 39 -207t38 -205q18 -53 51 -80q30 -25 87 -39z" />
    <glyph glyph-name="bracketright" unicode="]" horiz-adv-x="345" 
d="M318 -155h-251v29h37q69 0 87 11q29 16 29 76v672q0 58 -31 73q-18 8 -87 8h-35v28h251v-897z" />
    <glyph glyph-name="asciicircum" unicode="^" horiz-adv-x="506" 
d="M512 225h-29l-155 106l-154 -106h-30l155 142h58z" />
    <glyph glyph-name="underscore" unicode="_" horiz-adv-x="430" 
d="M461 -171h-432v51h432v-51z" />
    <glyph glyph-name="grave" unicode="`" horiz-adv-x="321" 
d="M327 428h-28l-134 70q-25 13 -25 28q0 24 30 24q16 0 39 -20z" />
    <glyph glyph-name="a" unicode="a" horiz-adv-x="452" 
d="M440 616l-2 -3q-33 -12 -34 -80l-8 -419q-1 -73 20 -82q5 -2 17 -11h-169l1 6q44 3 46 148l4 246q-55 1 -85 1q-67 -1 -76 -16q4 23 27 58q19 -7 113 -7q21 0 24 27q-1 -5 -1 44q0 36 -10 49q-99 -3 -168 -124q-60 -105 -60 -212q0 -128 86 -259q1 -1 6 -14
q-72 48 -116 142q-41 89 -41 181q0 85 19 140q5 15 44 81q37 63 37 65q0 27 -36 33l-1 6h363z" />
    <glyph glyph-name="b" unicode="b" horiz-adv-x="447" 
d="M440 242q0 -106 -62 -152q-44 -33 -160 -55q-70 -13 -115 -12l-93 3q39 11 39 44v348q0 60 -1 69q-6 52 -33 52q-4 0 -6 -1q110 87 275 87q53 0 92 -39q3 -3 22 -36.5t19 -35.5v-11l-6 1q-11 0 -57.5 -25t-51.5 -34q92 -44 121 -127zM386 193q0 71 -70 133
q-57 51 -135 77q1 4 29 24q43 30 62 45q30 24 56 53q-15 30 -28 40.5t-44 10.5q-49 0 -81 -27q-35 -28 -35 -76l-3 -364q0 -44 8 -50q47 4 136 21q35 10 70 44.5t35 68.5z" />
    <glyph glyph-name="c" unicode="c" horiz-adv-x="416" 
d="M407 628q-6 -40 -50 -113h-5q-3 34 -30 55t-62 21q-70 0 -113 -93q-35 -75 -35 -154q0 -111 71 -209t177 -128l5 -6q-86 2 -167.5 54t-126.5 129l-15 33q-6 10 -17 30q-26 70 -26 167q0 38 31 108t31 61q0 24 -39 24v10q33 0 100 -1.5t100 -1.5q149 0 171 14z" />
    <glyph glyph-name="d" unicode="d" horiz-adv-x="521" 
d="M502 404q0 -211 -204 -325q-102 -58 -187 -58h-103v9q29 14 36 28q5 11 6 49l5 342l-5 68q-18 21 -41 21q46 37 113.5 61.5t126.5 24.5q183 0 253 -86q-16 -5 -21 -13q21 -75 21 -121zM405 370q0 83 -27 139q-35 73 -109 73q-70 0 -98 -28.5t-28 -98.5v-214l-3 -178
l6 -14q5 -6 15 -6q13 0 56 22q84 43 136 127t52 178z" />
    <glyph glyph-name="e" unicode="e" horiz-adv-x="416" 
d="M407 628q-6 -40 -50 -113h-5q-3 34 -30 55t-62 21q-65 0 -109 -86q-18 -35 -18 -37q0 -7 5 -9h172q-15 -24 -44 -58q-5 22 -50 22q-9 0 -26 1t-26 1q-52 0 -52 -54q0 -125 64 -225q68 -106 184 -139l5 -6q-87 2 -169 55q-77 50 -125 128l-15 33q-6 10 -17 30
q-26 71 -26 167q0 38 31 108t31 61q0 24 -39 24v10q34 0 102 -1.5t102 -1.5q145 0 167 14z" />
    <glyph glyph-name="f" unicode="f" horiz-adv-x="428" 
d="M418 611q-20 -30 -57 -91l-4 1q-19 66 -93 66q-57 0 -79 -30q-19 -26 -19 -85q0 -14 10 -14q98 -3 145 2q-7 -23 -35 -63q1 5 -4.5 13t-10.5 8h-100q-7 -4 -7 -22l-3 -319q0 -50 40 -50v-8h-170v8q28 6 36 32q5 16 6 78q1 41 1 82q2 80 2 106l-2 199q0 35 -15 55
q-12 16 -46 35l340 -1q14 0 65 5v-7z" />
    <glyph glyph-name="g" unicode="g" horiz-adv-x="454" 
d="M443 447q-10 -6 -26 -20q-13 -20 -14 -102v-48q1 -34 1 -48q0 -23 -1.5 -69t-1.5 -69q0 -32 3 -43q6 -22 28 -26v-6l-20 -4q-33 6 -64 6q-129 0 -231 121q-98 115 -98 246q0 43 26.5 115.5t26.5 75.5q0 22 -42 39h368q9 0 40 12q-12 -50 -66 -124v7q0 29 -22 49
q-12 9 -47 28h-45q-5 0 -25 -9t-24 -13q-93 -65 -93 -198q0 -91 51 -193q59 -117 138 -120l2 3q8 63 8 197v135q0 21 -13 42q-9 5 -29 12v10h164zM452 25z" />
    <glyph glyph-name="h" unicode="h" horiz-adv-x="457" 
d="M447 615l-1 -4h-2q-38 0 -39 -90l-3 -455q0 -21 17 -34l20 -14h-168q10 8 21 16q18 17 18 49v338h-169v-360q0 -11 10.5 -23t20.5 -11l6 -9h-168q11 12 19 24q20 27 20 46l6 405q0 43 -10 90q-2 9 -13 18l-17 14h171l-4 -5h-3q-18 0 -28 -35q-7 -25 -7 -52v-62l172 1
q-2 10 -2 23v0q-2 67 -3 74q-6 41 -35 56h171z" />
    <glyph glyph-name="i" unicode="i" horiz-adv-x="193" 
d="M183 616q-40 -22 -41 -98l-3 -451q0 -32 37 -48h-169q3 1 17 10q22 14 23 59l6 398q0 53 -10 98q-2 9 -11.5 17t-18.5 15h170z" />
    <glyph glyph-name="j" unicode="j" horiz-adv-x="373" 
d="M340 108q0 -46 14 -58q-25 1 -88 -26.5t-96 -27.5q-43 0 -98 31q-61 34 -61 73v2q54 41 93 67q-14 -21 -14 -55q0 -33 24.5 -59.5t57.5 -26.5q77 0 78 93l2 346q0 14 -3 41t-3 41q0 30 -9 41q-14 13 -29 25h171q-23 -12 -31 -27q-2 -12 -4 -42z" />
    <glyph glyph-name="k" unicode="k" horiz-adv-x="460" 
d="M448 210q0 -149 -144 -245q89 115 89 196q0 67 -72.5 149.5t-138.5 82.5q-17 0 -29.5 -10.5t-12.5 -26.5l-2 -208q-1 -85 11 -105q4 -7 15.5 -13t11.5 -10h-170v7q32 14 39 34q5 11 5 53l1 441q0 26 -8 34l-28 20l2 4h163v-8q-39 -7 -39 -78q0 -20 1 -41q1 -28 -1 -40
q5 -5 9 -5q30 0 83.5 53.5t53.5 83.5q0 13 -31 29v8l161 1q-29 -15 -66 -54q-30 -32 -59 -64q-22 -15 -59 -52q33 0 93.5 -38t76.5 -68q45 -84 45 -130z" />
    <glyph glyph-name="l" unicode="l" horiz-adv-x="398" 
d="M381 146q0 -14 -69 -148h-10l5 3q-4 7 -14 16q-21 9 -151 10h-135q49 16 50 98l5 354q0 106 -27 123q-8 6 -17 14h173q-41 -25 -42 -91l-5 -369q-1 -49 11 -72q16 -32 61 -32q46 0 94 32q43 28 71 71v-9z" />
    <glyph glyph-name="m" unicode="m" horiz-adv-x="514" 
d="M502 615l-1 -6q-40 -3 -41 -92l-5 -407q0 -29 4 -50q8 -35 27 -32l5 -5h-168q26 21 32 28q9 12 10 42l8 372q0 15 -5 41q-6 0 -67 -87l-72 -103l-121 190l-8 -5v-8q0 -16 -3 -46.5t-3 -45.5l-4 -288q0 -79 32 -80v-7h-102q9 3 25 15q13 15 14 78l6 402q0 50 -37 50
q-9 0 -21 -2q31 24 124 63l128 -195h7q61 77 111 173q3 6 8 6h20q21 -1 38 -1h59z" />
    <glyph glyph-name="n" unicode="n" horiz-adv-x="438" 
d="M426 607q-39 -6 -39 -41v-293q0 -81 -25 -154q-29 -86 -83 -129q68 106 68 223q0 93 -65 175q-60 77 -151 114q-8 5 -23 10l-9 -6q-7 -94 -7 -389q0 -49 11 -70q2 -4 13.5 -11t11.5 -10h-105q14 5 31 24q7 23 8 93v99l3 269q0 17 -19 23q-12 4 -32 3q64 89 81 91
q101 -48 139 -74q61 -41 112 -113h8v109q0 9 -9 41q-4 4 -24 16l2 7h99z" />
    <glyph glyph-name="o" unicode="o" horiz-adv-x="515" 
d="M502 538q-28 -6 -34 -28l-4 -50q-1 -24 -5 -72q-18 -157 -127 -309q-8 -11 -42 -44q-37 -36 -44 -36q-9 0 -51 52q-39 48 -48 65q-52 93 -73 195q-12 58 -24 206q-18 21 -41 21q46 37 113.5 61.5t126.5 24.5q183 0 253 -86zM367 400v0q0 -21 2 -23q5 0 3 62q-2 67 -17 93
q-4 10 -21 37q-37 21 -74 21q-86 0 -110 -55q-10 -49 -10 -101q0 -17 1.5 -51.5t1.5 -51.5q0 -131 58 -232q34 -60 48 -60q7 0 26 19.5t25 28.5q67 106 67 313z" />
    <glyph glyph-name="p" unicode="p" horiz-adv-x="465" 
d="M459 538q-45 -51 -138 -110q-9 -5 -74.5 -30.5t-77.5 -27.5q34 26 77 58q75 56 77 82l18 25q-9 13 -20 34q-22 23 -70 23q-53 0 -82 -32.5t-29 -86.5l-3 -424l39 -25q-8 0 -23 -1.5t-23 -1.5q-18 0 -60 2l-60 3q39 11 39 44q0 47 1 142l1 239q0 88 -36 88q-4 0 -6 -1
q110 86 274 86q104 0 140 -50q13 -18 36 -36z" />
    <glyph glyph-name="q" unicode="q" horiz-adv-x="511" 
d="M502 538q-24 -6 -29 -13q-7 -12 -10 -66q-1 -24 -4 -71q-8 -88 -64 -206q-18 -39 -34 -61l-10 -14q0 -1 1 -1q17 0 89 37q-40 -109 -36 -182l-21 39l-9 92l-43 -13q-6 -8 -43 -44t-43 -36q-9 0 -51 52q-38 48 -48 65q-54 96 -77 194q-20 88 -20 207q-18 21 -41 21
q46 37 113.5 61.5t126.5 24.5q183 0 253 -86zM367 379q0 14 -6 71.5t-11 66.5q-8 17 -19 38q-20 31 -63 31q-81 0 -109 -83q-16 -48 -16 -151q0 -134 46 -234l6 -5q3 -12 24.5 -43t29.5 -31q7 0 26 19.5t25 28.5q67 106 67 292z" />
    <glyph glyph-name="r" unicode="r" horiz-adv-x="474" 
d="M460 211q0 -149 -144 -245q89 115 89 196q0 101 -115 184q-70 50 -103 50q10 12 80 57q64 41 65 45l9 37q-9 13 -20 34q-19 19 -62 19q-120 0 -122 -128l-5 -313q-1 -92 11 -108q3 -5 28 -17l-158 -2q9 6 26 19l5 10q0 8 3 23.5t3 23.5v421q-18 21 -41 21q109 86 226 86
q107 0 137 -15q45 -23 76 -115h-8q-29 0 -70 -21q-23 -12 -70 -35l-12 -11q115 -30 154 -140z" />
    <glyph glyph-name="s" unicode="s" horiz-adv-x="441" 
d="M432 590q-22 -34 -67 -99q-4 40 -51 62q-37 17 -83 17q-84 0 -128 -43q33 -27 113 -66.5t114 -65.5q60 -46 82 -110l18 -75q0 -150 -144 -245q89 115 89 196q0 74 -69 132q-58 49 -149 82q-48 16 -144 49v8q1 2 10 19q36 71 112 121.5t154 50.5q63 0 143 -33z" />
    <glyph glyph-name="t" unicode="t" horiz-adv-x="437" 
d="M424 470q-5 6 -14 17q-67 103 -136 103q-9 0 -15 -31q-4 -21 -4 -39l-3 -351q0 -92 6 -121q2 -8 37 -27h-174q41 13 42 69l5 316q0 4 2.5 10.5t2.5 9.5q0 5 -2 5q-1 0 -2 -1q-2 56 -3 66q-6 38 -27 59l3 -1q17 0 71 25v9q-6 2 -17 2q-125 0 -185 -116q12 51 26 155l6 5
q7 -21 42 -21h240q7 0 7 5h22q16 0 37 22q6 -35 13 -99l-1 1h1l1 -4z" />
    <glyph glyph-name="u" unicode="u" horiz-adv-x="440" 
d="M424 618q-15 -4 -25 -24t-10 -37l-3 -409q-1 -108 24 -113l11 -9h-92q-51 0 -120 35q-93 47 -147 140q-53 90 -53 196q0 64 18 111q9 20 17 39q11 26 11 40q0 23 -13 23l-11 8l175 -1q-47 -23 -82 -115q-30 -79 -30 -143q0 -100 49 -182q54 -89 145 -116q8 9 8 39v471
q0 25 -31 46q103 0 159 1z" />
    <glyph glyph-name="v" unicode="v" horiz-adv-x="420" 
d="M407 487q0 -93 -74 -248q-40 -80 -120 -241l-74 248l-45 177q-34 135 -51 164q-3 6 -18 15t-15 13l105 3q39 0 58 -3q-30 -10 -30 -25q0 -24 52 -204q51 -176 67 -211l5 2q18 39 54 119q33 76 33 122q0 56 -22 103q-27 57 -75 68q24 13 48 25q40 20 44 20q23 0 42 -62
q16 -53 16 -85z" />
    <glyph glyph-name="w" unicode="w" horiz-adv-x="592" 
d="M580 483q0 -84 -65 -245q-19 -47 -108 -240l-74 248l-8 -5l-109 -235q-29 74 -93 320q-9 33 -35 136q-25 99 -42 125q-5 8 -18 16t-17 12h160q-26 -15 -26 -34q0 -9 49 -180l59 -209l7 -7q11 8 33.5 60t22.5 67q0 9 -37 137t-42 136t-19 16.5t-15 12.5l105 4q41 0 58 -3
q-29 -10 -29 -25q0 -24 52 -204q50 -176 66 -212l5 3q67 148 67 238q0 57 -22 103q-26 56 -75 68l48 24q41 21 44 21q23 0 42 -63q16 -53 16 -85z" />
    <glyph glyph-name="x" unicode="x" horiz-adv-x="447" 
d="M430 210q0 -149 -144 -245q89 115 89 196q0 51 -45.5 108.5t-95.5 67.5q-42 -41 -91 -95q-21 -4 -47.5 -51.5t-26.5 -71.5q0 -23 15 -41t37 -19l3 -3l5 1q-70 -47 -83 -47q-16 0 -26 29q-8 22 -8 43q0 55 39 107q41 46 78 87l77 87q-99 78 -199 96v8q0 3 75 131l14 -35
q20 -18 73 -61l101 -75q49 52 49 100q0 23 -15 40.5t-38 19.5l-3 3l-4 -1q70 47 83 47q15 0 25 -30q9 -24 9 -42q0 -41 -33 -96.5t-33 -58.5q0 -2 40 -33q25 -19 34 -36q46 -86 46 -130z" />
    <glyph glyph-name="y" unicode="y" horiz-adv-x="386" 
d="M253 361v-272q0 -46 23 -58q10 -6 13 -12l-10 -4l-55 -1q-26 0 -101 4l-1 7l3 -1q38 -1 38 123q0 -6 -1 38v26l2 138q0 10 -48 100q-46 86 -59 105q-4 7 -20 19.5t-24 14.5q18 9 60 27q8 3 48 21q3 -18 57.5 -120.5t66.5 -112.5q20 3 47 52t27 72t-15 40.5t-38 19.5l-3 3
l-4 -1q70 47 83 47q15 0 25 -30q9 -24 9 -42q0 -44 -20 -79q-13 -22 -48 -58t-49 -57z" />
    <glyph glyph-name="z" unicode="z" horiz-adv-x="373" 
d="M360 616q-106 -168 -149 -243q-78 -137 -122 -256q0 -7 7 -7h194q13 0 35 14t27 26v-10q0 -3 -47 -122h-284v9q0 5 6.5 23.5t6.5 23.5l4 4q47 165 144 321q14 21 43 64q31 48 30 64q-24 8 -59 8q-56 0 -76 -2q-51 -5 -70 -27q1 37 48 131q22 -21 32 -21h230z" />
    <glyph glyph-name="braceleft" unicode="{" horiz-adv-x="770" 
 />
    <glyph glyph-name="bar" unicode="|" horiz-adv-x="770" 
 />
    <glyph glyph-name="braceright" unicode="}" horiz-adv-x="770" 
 />
    <glyph glyph-name="asciitilde" unicode="~" horiz-adv-x="770" 
 />
    <glyph glyph-name="uni00A0" unicode="&#xa0;" horiz-adv-x="770" 
 />
    <glyph glyph-name="exclamdown" unicode="&#xa1;" horiz-adv-x="770" 
 />
    <glyph glyph-name="cent" unicode="&#xa2;" horiz-adv-x="770" 
 />
    <glyph glyph-name="sterling" unicode="&#xa3;" horiz-adv-x="770" 
 />
    <glyph glyph-name="currency" unicode="&#xa4;" horiz-adv-x="770" 
 />
    <glyph glyph-name="yen" unicode="&#xa5;" horiz-adv-x="770" 
 />
    <glyph glyph-name="brokenbar" unicode="&#xa6;" 
 />
    <glyph glyph-name="section" unicode="&#xa7;" horiz-adv-x="770" 
 />
    <glyph glyph-name="dieresis" unicode="&#xa8;" horiz-adv-x="540" 
d="M528 815q-7 -51 -64 -146h-6q-5 44 -40.5 71t-80.5 27q-43 0 -84 -36q-35 -31 -57.5 -75t-22.5 -48q0 -8 6 -12h223q-19 -31 -56 -75q-7 29 -65 29q-6 0 -19 -1t-19 -1q-68 0 -75 -4q-22 -9 -22 -63q0 -163 83 -292q88 -137 239 -180l6 -7q-112 2 -219 71
q-102 65 -163 165q-6 15 -19 44q-9 12 -22 39q-34 94 -34 216q0 49 40.5 140.5t40.5 79.5q0 15 -17.5 23.5t-33.5 7.5v13h446q14 0 35 14zM217 852q0 -15 -12 -24.5t-28 -9.5q-39 0 -39 34q0 16 11.5 26t27.5 10t28 -10t12 -26zM429 856q0 -15 -11.5 -24.5t-27.5 -9.5
q-39 0 -39 34q0 16 11.5 26t27.5 10t27.5 -10t11.5 -26z" />
    <glyph glyph-name="copyright" unicode="&#xa9;" horiz-adv-x="770" 
 />
    <glyph glyph-name="ordfeminine" unicode="&#xaa;" horiz-adv-x="770" 
 />
    <glyph glyph-name="guillemotleft" unicode="&#xab;" horiz-adv-x="770" 
 />
    <glyph glyph-name="logicalnot" unicode="&#xac;" horiz-adv-x="770" 
 />
    <glyph glyph-name="uni00AD" unicode="&#xad;" 
 />
    <glyph glyph-name="registered" unicode="&#xae;" horiz-adv-x="457" 
d="M448 494h-8q-29 0 -70 -21q-23 -12 -70 -35l-12 -11l116 -4q-25 -19 -30 -54q-2 -13 -2 -66q0 -83 11 -167q14 -107 41 -160q-43 51 -87 184l-44 131q-35 105 -106 105q10 11 79 57q66 43 66 45q0 31 -57 67q-53 33 -87 33q-19 0 -57 -11q-42 -12 -47 -24q8 -1 50 -3
q31 -1 45 -16q-25 -21 -26 -84l-6 -313q-2 -91 11 -108q4 -5 29 -17l-158 -2q8 7 25 19l5 10q7 42 7 47v406q0 35 -40 40l-7 -10q11 39 107 69q78 24 133 24q63 0 108 -33q35 -26 74 -87z" />
    <glyph glyph-name="macron" unicode="&#xaf;" horiz-adv-x="770" 
 />
    <glyph glyph-name="macron" unicode="&#x2c9;" horiz-adv-x="770" 
 />
    <glyph glyph-name="degree" unicode="&#xb0;" horiz-adv-x="770" 
 />
    <glyph glyph-name="plusminus" unicode="&#xb1;" horiz-adv-x="770" 
 />
    <glyph glyph-name="uni00B2" unicode="&#xb2;" 
 />
    <glyph glyph-name="uni00B3" unicode="&#xb3;" 
 />
    <glyph glyph-name="acute" unicode="&#xb4;" horiz-adv-x="770" 
 />
    <glyph glyph-name="mu" unicode="&#xb5;" horiz-adv-x="770" 
 />
    <glyph glyph-name="mu" unicode="&#x3bc;" horiz-adv-x="770" 
 />
    <glyph glyph-name="paragraph" unicode="&#xb6;" horiz-adv-x="770" 
 />
    <glyph glyph-name="periodcentered" unicode="&#xb7;" horiz-adv-x="770" 
 />
    <glyph glyph-name="periodcentered" unicode="&#x2219;" horiz-adv-x="770" 
 />
    <glyph glyph-name="cedilla" unicode="&#xb8;" horiz-adv-x="416" 
d="M407 628q-6 -40 -50 -113h-5q-3 34 -30 55t-62 21q-65 0 -109 -86q-18 -35 -18 -37q0 -7 5 -9h172q-15 -24 -44 -58q-5 22 -50 22q-9 0 -26 1t-26 1q-52 0 -52 -54q0 -125 64 -225q68 -106 184 -139l5 -6q-87 2 -169 55q-77 50 -125 128l-15 33q-6 10 -17 30
q-26 71 -26 167q0 38 31 108t31 61q0 24 -39 24v10q34 0 102 -1.5t102 -1.5q145 0 167 14zM177 677q0 -15 -12 -25t-28 -10q-39 0 -39 35q0 15 11.5 25.5t27.5 10.5t28 -10t12 -26zM390 680q0 -15 -12 -24.5t-28 -9.5q-39 0 -39 34q0 16 11.5 26t27.5 10t28 -10t12 -26z" />
    <glyph glyph-name="uni00B9" unicode="&#xb9;" 
 />
    <glyph glyph-name="ordmasculine" unicode="&#xba;" horiz-adv-x="770" 
 />
    <glyph glyph-name="guillemotright" unicode="&#xbb;" horiz-adv-x="770" 
 />
    <glyph glyph-name="onequarter" unicode="&#xbc;" 
 />
    <glyph glyph-name="onehalf" unicode="&#xbd;" 
 />
    <glyph glyph-name="threequarters" unicode="&#xbe;" 
 />
    <glyph glyph-name="questiondown" unicode="&#xbf;" horiz-adv-x="770" 
 />
    <glyph glyph-name="Agrave" unicode="&#xc0;" horiz-adv-x="587" 
d="M572 800l-3 -4q-43 -15 -45 -103l-10 -545q-2 -95 26 -107q10 -4 22 -13h-219l1 7q14 1 20 6q25 20 30 68q2 19 5 79q5 21 5 39l4 320h-13q-13 1 -24 1h-56q-102 0 -115 -21q5 30 34 75q26 -9 148 -9q31 0 31 51v22q0 5 -1 12v7q0 48 -13 64q-129 -4 -218 -160
q-78 -136 -78 -276q0 -167 112 -336q1 -3 7 -18q-52 34 -106 111q-52 73 -73 136q-7 22 -16 84t-9 88q0 109 25 182q6 18 57 104q48 81 48 85q0 36 -47 43l-1 8h472z" />
    <glyph glyph-name="Aacute" unicode="&#xc1;" horiz-adv-x="581" 
d="M0 748q1 1 10 -7.5t10 -8.5q7 0 16 -21q12 -27 15 -30q13 -18 13 -139l-1 -451q0 -43 -50 -57l120 -4q58 -2 150 16q151 29 208 71q81 60 81 198q-19 86 -23 98q-18 52 -93 110q-71 56 -139 75q-66 -33 -134 -71q84 -29 120 -44q75 -31 107 -60q91 -81 91 -172
q0 -6 -12 -34q-38 -89 -124 -113q-47 -13 -177 -28q-10 8 -10 65l4 474q1 61 46 99q31 26 151 26q82 0 160 -102q13 -21 18 -32q8 -7 18 -22l-27 93q-8 78 -16 128q-17 -17 -40 -17q-9 0 -40.5 3t-33 2t-43 5.5t-44.5 8.5q-23 0 -61 1h-56q-70 0 -113 -10q-55 -14 -101 -50z
" />
    <glyph glyph-name="Acircumflex" unicode="&#xc2;" horiz-adv-x="581" 
d="M572 315q0 -138 -81 -198q-57 -42 -208 -71q-92 -18 -150 -16l-120 4q50 14 50 57l1 451q0 79 -1 90q-8 68 -44 68q-4 0 -8 -2q144 113 358 113q68 0 119 -50q5 -5 29 -47.5t24 -46.5v-14q-2 2 -8 2q-14 0 -74 -32.5t-66 -44.5q118 -57 156 -165q4 -12 23 -98zM501 251
q0 91 -91 172q-74 66 -175 101q2 7 37 31q64 45 81 58q41 32 73 69q-20 38 -34 50q-20 16 -59 16q-63 0 -105 -34q-45 -37 -46 -99l-4 -474q0 -57 10 -65q75 9 89 10q51 8 88 18q86 24 124 113q12 28 12 34z" />
    <glyph glyph-name="Atilde" unicode="&#xc3;" horiz-adv-x="517" 
d="M494 608q0 18 -89 192h-13l7 -4q-5 -9 -19 -21q-30 -12 -198 -13h-173q63 -21 65 -127l7 -460q0 -140 -30 -157q-11 -5 -28 -21h225q-53 33 -54 118l-7 479q-1 64 14 94q21 41 80 41q61 0 122 -41q54 -36 91 -92v12z" />
    <glyph glyph-name="Adieresis" unicode="&#xc4;" horiz-adv-x="676" 
d="M652 525q0 -85 -54 -210q-3 -10 -19 -44q-60 -95 -192 -169t-243 -74h-134v11l26 10q28 11 29 90l7 444l-8 88q-22 27 -53 27q62 48 149.5 80t163.5 32q237 0 327 -112q-19 -1 -26 -17q27 -96 27 -156zM525 480q1 2 1 8q0 104 -36 175q-47 92 -141 92q-90 0 -126.5 -36.5
t-36.5 -127.5v-279q0 -52 -4 -231q-1 -25 27 -25q16 0 72 28q109 55 176.5 164.5t67.5 231.5z" />
    <glyph glyph-name="Aring" unicode="&#xc5;" horiz-adv-x="540" 
d="M528 815q-7 -51 -64 -146h-6q-5 44 -40.5 71t-80.5 27q-43 0 -84 -36q-35 -31 -57.5 -75t-22.5 -48q0 -8 6 -12h223q-19 -31 -56 -75q-7 29 -65 29q-6 0 -19 -1t-19 -1q-68 0 -75 -4q-22 -9 -22 -63q0 -163 83 -292q88 -137 239 -180l6 -7q-112 2 -219 71
q-102 65 -163 165q-6 15 -19 44q-9 12 -22 39q-34 94 -34 216q0 49 40.5 140.5t40.5 79.5q0 15 -17.5 23.5t-33.5 7.5v13h446q14 0 35 14z" />
    <glyph glyph-name="AE" unicode="&#xc6;" horiz-adv-x="951" 
d="M418 720q0 33 -12 45l-36 26l2 6h213v-11q-51 -9 -51 -102q0 1 2 -53q1 -31 -2 -52q7 -6 12 -6q39 0 108.5 69.5t69.5 107.5q0 20 -41 38v11l210 1q-41 -22 -86 -70q-25 -28 -77 -83q-28 -20 -77 -68q28 0 70.5 -24t55.5 -26q51 -40 77 -69q38 -41 54 -89q4 -11 23 -98
q0 -194 -187 -318q116 149 116 254q0 87 -93 193q-96 108 -182 108q-22 0 -38.5 -13.5t-16.5 -34.5l-2 -270q-1 -112 14 -137q5 -9 20 -16.5t16 -11.5h-221v8q42 18 51 44q6 15 6 70l2 304q-3 13 -16 35q-17 13 -39 13q-86 0 -180.5 -107t-94.5 -194q0 -105 116 -254
q-187 124 -187 318q19 87 23 98q16 48 54 89q26 29 77 69q13 2 57 27q41 23 69 23q-49 48 -77 68q-26 28 -77 83q-45 48 -86 70l210 -1v-11q-41 -18 -41 -38q0 -38 69.5 -107.5t108.5 -69.5q5 0 12 6z" />
    <glyph glyph-name="Ccedilla" unicode="&#xc7;" horiz-adv-x="581" 
d="M13 34l120 -4q58 -2 150 16q151 29 208 71q81 60 81 198q-19 86 -23 98q-38 108 -156 165q6 12 66 44.5t74 32.5q6 0 8 -2v14q0 4 -24 46.5t-29 47.5q-51 50 -119 50q-214 0 -358 -113q4 2 8 2q9 0 62 -25.5t60 -34.5q33 27 90 62q74 46 102 46q39 0 59 -16
q14 -12 34 -50q-32 -37 -73 -69q-17 -13 -81 -58q-35 -24 -37 -31q101 -35 175 -101q91 -81 91 -172q0 -6 -12 -34q-38 -89 -124 -113q-47 -13 -177 -28l-105 53q-14 -26 -29 -53q-21 -36 -41 -42z" />
    <glyph glyph-name="Egrave" unicode="&#xc8;" horiz-adv-x="572" 
d="M551 803q-19 -6 -32 -31.5t-13 -48.5l-5 -531q-1 -140 31 -147l14 -11h-119q-66 0 -156 45q-119 60 -189 180t-70 256q0 84 23 144l22 52q14 34 14 52q0 29 -17 30l-14 10l228 -2q-62 -29 -107 -149q-39 -103 -39 -186q0 -129 64 -236q71 -116 188 -150q11 11 11 49
l-1 612q0 33 -40 61h103q34 0 70 1h34z" />
    <glyph glyph-name="Eacute" unicode="&#xc9;" horiz-adv-x="572" 
d="M551 803q-19 -6 -32 -31.5t-13 -48.5l-5 -531q-1 -140 31 -147l14 -11h-119q-66 0 -156 45q-119 60 -189 180t-70 256q0 84 23 144l22 52q14 34 14 52q0 29 -17 30l-14 10l228 -2q-62 -29 -107 -149q-39 -103 -39 -186q0 -129 64 -236q71 -116 188 -150q11 11 11 49
l-1 612q0 33 -40 61zM278 755q13 18 13 45q0 36 -22 59q-10 11 -30 15l72 73q25 -6 39.5 -30t14.5 -50q0 -31 -18 -50l-71 -70l-5 -5l-3 3z" />
    <glyph glyph-name="Ecircumflex" unicode="&#xca;" horiz-adv-x="598" 
d="M582 273q0 -194 -187 -318q116 149 116 254q0 87 -93 193q-96 108 -182 108q-22 0 -38.5 -13.5t-16.5 -34.5l-2 -270q-1 -112 14 -137q5 -9 20 -16.5t16 -11.5h-221v8q42 18 51 44q6 16 6 70l2 571q0 33 -12 45l-36 26l2 6h213v-11q-51 -9 -51 -102q0 1 2 -53
q1 -31 -2 -52q7 -6 12 -6q39 0 108.5 69.5t69.5 107.5q0 20 -41 38v11l210 1q-41 -22 -86 -70q-25 -28 -77 -83q-28 -20 -77 -68q28 0 70.5 -24t55.5 -26q51 -40 77 -69q38 -41 54 -89q4 -11 23 -98z" />
    <glyph glyph-name="Edieresis" unicode="&#xcb;" horiz-adv-x="587" 
d="M413 666q0 5 -1 12v7q0 48 -13 64q-129 -4 -218 -160q-78 -136 -78 -276q0 -167 112 -336q1 -3 7 -18q-52 34 -106 111q-52 73 -73 136q-7 22 -16 84t-9 88q0 109 25 182q6 18 57 104q48 81 48 85q0 36 -47 43l-1 8h472l-3 -4q-43 -15 -45 -103l-10 -545q-2 -95 26 -107
q10 -4 22 -13h-219l1 7q14 1 20 6q25 20 30 68q2 19 5 79q5 21 5 39l4 320q0 1 2.5 57.5t2.5 61.5z" />
    <glyph glyph-name="Igrave" unicode="&#xcc;" horiz-adv-x="668" 
d="M652 799l-2 -8q-50 -4 -52 -119l-7 -529q-1 -39 5 -64q10 -46 35 -42l7 -7h-218q36 28 41 36q12 17 13 55l11 482q0 21 -7 54q-10 0 -88 -112q-31 -45 -92 -135l-158 247l-11 -6v-5q0 -22 -3 -62q-4 -43 -4 -63l-5 -374q0 -103 42 -104v-9h-133q12 4 33 19q17 20 18 102
l8 522q0 65 -49 65q-8 0 -27 -3q40 31 161 82l166 -254h9q66 83 144 226q4 7 11 7h26q28 -1 50 -1h76z" />
    <glyph glyph-name="Iacute" unicode="&#xcd;" horiz-adv-x="593" 
d="M580 799l-1 -6h-3q-49 0 -50 -116l-4 -591q0 -31 21 -44q26 -16 27 -18h-219q9 7 28 21q24 20 24 62v439h-220v-467q0 -14 13 -29.5t27 -14.5l8 -11h-219q5 2 22 13q29 19 30 77l8 527q0 52 -13 116q-2 12 -17 23q-19 15 -23 19h222l-5 -7h-3q-23 0 -36 -47
q-10 -36 -10 -66v-81l223 2q-2 14 -3 34v0q-1 82 -3 94q-9 52 -46 71h222z" />
    <glyph glyph-name="Icircumflex" unicode="&#xce;" horiz-adv-x="669" 
d="M651 698q-34 -1 -43 -36q-2 -6 -6 -65q-1 -31 -6 -93q-11 -96 -59 -210q-44 -105 -106 -191q-11 -16 -55 -58q-47 -46 -56 -46q-12 0 -67 68q-49 60 -62 84q-29 53 -51 114q-32 90 -43 127q-18 66 -23 133l-10 146q-22 27 -53 27q62 48 149.5 80t163.5 32q91 0 131 -8
q33 -7 85 -27q67 -40 74.5 -40t36.5 -37zM477 520q0 95 -24 157q-35 89 -115 89t-123 -59q-31 -66 -31 -179q0 -125 13 -205q18 -102 64 -195q9 -18 28 -45q23 -33 34 -33q8 0 41 33q20 20 26 30q54 84 73 196q14 80 14 211z" />
    <glyph glyph-name="Idieresis" unicode="&#xcf;" horiz-adv-x="593" 
d="M233 792h3l5 7h-222q4 -4 23 -19q15 -11 17 -23q13 -64 13 -116q0 5 -8 -527q-1 -58 -30 -77q-18 -12 -22 -13h219l-8 11q-14 -1 -27 14.5t-13 29.5l-4 690l225 2l-1 -664q0 -42 -24 -62q-8 -7 -28 -21h219q-1 2 -27 18q-21 13 -21 44l4 591q1 116 50 116h3l1 6h-339z
" />
    <glyph glyph-name="Eth" unicode="&#xd0;" horiz-adv-x="604" 
d="M596 699q-14 -17 -37 -36q-32 -27 -142 -107q-28 -4 -96 -35q-72 -34 -102 -40q2 8 57 45q36 24 69 45q10 8 42 46t33 45l23 33q-35 50 -44 57q-21 16 -73 16q-69 0 -106 -42t-38 -111l-4 -474v-78l50 -32q-10 0 -29 -1.5t-29 -1.5q-35 0 -79 2t-78 4q50 14 50 57l-1 309
q0 10 2 29.5t2 29.5v128q0 113 -47 113q-4 0 -8 -2q144 113 357 113q134 0 181 -65q16 -22 47 -47z" />
    <glyph glyph-name="Ntilde" unicode="&#xd1;" horiz-adv-x="540" 
d="M528 815q-7 -51 -64 -146h-6q-5 44 -40.5 71t-80.5 27q-88 0 -145 -117q-47 -96 -47 -194q0 -149 90 -276q92 -131 233 -171l6 -7q-111 1 -219 71q-103 66 -163 165q-6 15 -19 44q-9 12 -22 39q-34 92 -34 216q0 49 40.5 140.5t40.5 79.5q0 15 -17.5 23.5t-33.5 7.5v13
h446q14 0 35 14z" />
    <glyph glyph-name="Ograve" unicode="&#xd2;" horiz-adv-x="567" 
d="M551 610q-8 8 -18 22q-5 11 -18 32q-78 102 -160 102q-11 0 -18 -40q-6 -34 -6 -51l-3 -455q0 -116 8 -158q2 -12 47 -34h-226q54 16 55 89l6 411q0 4 3.5 12.5t3.5 13.5q0 6 -2 6q-1 0 -3 -2q-1 5 -4 70q-2 51 -9 63q-4 7 -26 29h8q20 0 88 31v12q-8 3 -22 3
q-163 0 -241 -151q15 67 34 202l8 7q4 -12 22 -19.5t33 -7.5h311q5 0 10 5q3 1 28 1q20 0 48 28q8 -50 16 -128v1l2 -6l7 -23z" />
    <glyph glyph-name="Oacute" unicode="&#xd3;" horiz-adv-x="546" 
d="M385 299q2 -8 -87.5 -157.5t-88.5 -156.5l-42 -155q48 68 141 238q79 146 124 242q96 203 96 322q0 91 -46 162q-19 30 -29 30q-3 0 -56 -27l-64 -32q63 -15 98 -88q29 -60 29 -134q0 -64 -27 -117q3 4 3 5q0 2 -2 2l-29 -8.5t-52 -8.5q-74 0 -98 85q-69 241 -69 266
q0 18 38 32q-23 3 -75 3q-15 0 -137 -4q1 -5 19.5 -16t23.5 -20q26 -47 46 -131q11 -46 32 -138q0 -1 15 -44q34 -100 92 -115q50 -11 112 -13q38 -2 38 -10q0 -4 -5 -12z" />
    <glyph glyph-name="Ocircumflex" unicode="&#xd4;" horiz-adv-x="908" 
d="M14 753q47 65 181 65q96 0 126 -9q52 -24 103 -47q58 32 114 42q46 8 135 8q134 0 181 -65q16 -22 47 -47q-14 -17 -37 -36q-32 -27 -142 -107q-28 -4 -96 -35q-72 -34 -102 -40q2 8 57 45q36 24 69 45q10 8 42 46t33 45l23 33q-35 50 -44 57q-21 16 -73 16
q-69 0 -106 -42t-38 -111l-4 -474v-78l50 -32q-10 0 -29 -1.5t-29 -1.5q-35 0 -79 2t-78 4q50 14 50 57l-1 309q0 10 2 29.5t2 29.5v128q0 19 4 52q2 17 -4 24q-53 60 -59 66q-46 45 -75 45q-52 0 -73 -16q-9 -7 -44 -57l23 -33q1 -7 33 -45t42 -46q33 -21 69 -45
q55 -37 57 -45q-30 6 -102 40q-68 31 -96 35q-96 70 -163 126z" />
    <glyph glyph-name="Otilde" unicode="&#xd5;" horiz-adv-x="602" 
d="M594 60l-24 -11l-54 -23q-10 -4 -62 -28q-4 20 -13 37l-137 254q-5 8 -54 95l-65 -69q-3 0 -32 -31q-64 -69 -64 -129q0 -30 19.5 -53t48.5 -26q-1 -4 4 -4q3 0 4.5 1l1.5 1q-16 -11 -49 -31q-49 -30 -58 -30q-14 0 -28 27q-12 22 -13 29q-6 34 -2 56q-1 1 -1 5q0 6 2 20
q9 23 29 68q36 64 120 140q2 2 60 77q-4 9 -55 104q-26 48 -97 180q-3 4 -21 20l-19 17l-18 8l24 11l53 23q10 4 63 28q4 -20 13 -37l137 -254q6 -11 11 -11q4 0 33 31q63 68 63 129q0 30 -19 53t-49 26q1 3 -4 3h-4q-1 -1 -2 -1q25 16 49 31q48 30 59 30q14 0 28 -27
q10 -19 12 -29q6 -34 3 -56q1 -4 -2 -25q-13 -37 -29 -68q-32 -62 -120 -140q-7 -6 -7 -13q39 -60 110 -183q39 -75 97 -180q3 -4 21 -20l19 -17z" />
    <glyph glyph-name="Odieresis" unicode="&#xd6;" horiz-adv-x="572" 
d="M538 -29q11 -35 29 -82q2 -3 10.5 -29.5t8.5 -30.5v-11h-369q-61 153 -61 158v12q6 -15 34.5 -33t45.5 -18h252q10 0 9 8q-10 26 -12 37v0v0q-2 7 0 7q1 0 2 -2l2 -4q-6 7 -32 53l-30 -2q-58 -4 -156 45q-119 60 -189 180t-70 256q0 84 23 144l22 52q14 34 14 52
q0 29 -17 30l-14 10l228 -2q-62 -29 -107 -149q-39 -103 -39 -186q0 -129 64 -236q71 -116 188 -150q11 11 11 49l-1 612q0 33 -40 61h103q34 0 70 1h34q-19 -6 -32 -31.5t-13 -48.5l-5 -531q-1 -96 10 -159q5 -8 27 -62z" />
    <glyph glyph-name="multiply" unicode="&#xd7;" horiz-adv-x="572" 
d="M402 302q-5 1 -16 1q-23 0 -96 -9q-69 -8 -86 -7q-44 3 -106 42q-56 35 -63 55q-15 42 -23 131q-1 12 -1 24q0 63 46 172q14 33 14 52q0 29 -17 30l-14 10l228 -2q-62 -29 -107 -149q-42 -111 -39 -186q1 -34 14 -55q1 -2 32 -40q13 -16 77 -16q106 0 140 22zM374 80
q11 11 11 49l-1 612q0 33 -40 61h103q34 0 70 1h34q-19 -6 -32 -31.5t-13 -48.5l-5 -531q-1 -140 31 -147l14 -11h-119q-88 0 -92 1q5 -2 19.5 22.5t19.5 22.5z" />
    <glyph glyph-name="Oslash" unicode="&#xd8;" horiz-adv-x="905" 
d="M241 24h-222q4 5 23 19q15 11 17 23q13 64 13 116q0 -6 -8 527q-1 58 -30 77q-18 12 -22 13h219l-8 -11q-14 1 -27 -14.5t-13 -29.5l-2 -680l225 -2l-3 654q0 42 -24 62q-8 7 -28 21h219q-1 -2 -27 -18q-21 -13 -21 -44l4 -591q-1 -32 5 -84q2 -7 84 -7h95l-1 664
q0 42 -24 62q-8 7 -28 21h219q-1 -2 -27 -18q-21 -13 -21 -44l4 -591q1 -116 50 -116h3l1 -11l-219 2h-426z" />
    <glyph glyph-name="Ugrave" unicode="&#xd9;" horiz-adv-x="905" 
d="M241 24h-222q5 5 23 19q15 11 17 23q13 64 13 116q0 -6 -8 527q-1 58 -30 77q-18 12 -22 13h219l-8 -11q-14 1 -27 -14.5t-13 -29.5l-2 -680l225 -2l-3 654q0 42 -24 62q-8 7 -28 21h219q-1 -2 -27 -18q-21 -13 -21 -44l4 -591q-1 -32 5 -84q2 -7 84 -7h95l-1 664
q0 42 -24 62q-8 7 -28 21h219q-1 -2 -27 -18q-21 -13 -21 -44l4 -591q-4 -51 -2 -122q5 -8 27 -62q11 -35 29 -82q2 -3 10.5 -29.5t8.5 -30.5v-11h-735q-61 153 -61 158v12q6 -15 34.5 -33t45.5 -18h618q10 0 9 8q-10 26 -12 37v0v0q-2 7 0 7q1 0 2 -2l2 -4q-6 7 -32 53
l-30 -2zM667 24z" />
    <glyph glyph-name="Uacute" unicode="&#xda;" horiz-adv-x="744" 
d="M72 796l-72 -133q23 20 95 20q41 0 80 -6t44 -12q8 -11 8 -123l-1 -451q0 -43 -50 -57l120 -4q58 -2 150 16q151 29 208 71q81 60 81 198q-19 86 -23 98q-38 108 -156 165l-3 3l-32 -8q-37 -9 -86 -18q-18 -13 -37 -31q101 -35 175 -101q91 -81 91 -172q0 -6 -12 -34
q-38 -89 -124 -113q-47 -13 -177 -28q-10 8 -10 65l4 474q1 61 46 99q-19 14 -143 43q-88 19 -176 39z" />
    <glyph glyph-name="Ucircumflex" unicode="&#xdb;" horiz-adv-x="784" 
d="M22 788q29 -57 34 -123q8 -105 8 -123l-1 -451q0 -43 -50 -57l120 -4q58 -2 150 16q151 29 208 71q81 60 81 198q-19 86 -23 98q-38 108 -156 165l-3 3l-32 -8q-37 -9 -86 -18q-18 -13 -37 -31q101 -35 175 -101q91 -81 91 -172q0 -6 -12 -34q-38 -89 -124 -113
q-47 -13 -177 -28q-10 8 -10 65l4 474q0 44 9 93q12 64 32 80h-201zM765 800q-17 -9 -24 -14q-13 -11 -16 -21q-14 -56 -14 -92l-3 -586q0 -41 47 -62h-218q4 2 21 13q29 19 30 77l8 516q0 71 -13 127q-3 11 -17 23q-21 17 -23 19h222z" />
    <glyph glyph-name="Udieresis" unicode="&#xdc;" horiz-adv-x="581" 
d="M123 798q-25 -26 -49 -51q-50 -50 -55 -47q19 -12 37 -35q8 -11 8 -123l-1 -451q0 -43 -50 -57l120 -4q58 -2 150 16q151 29 208 71q81 60 81 198q-19 86 -23 98q-38 108 -156 165l-3 3l-32 -8q-37 -9 -86 -18q-18 -13 -37 -31q101 -35 175 -101q91 -81 91 -172
q0 -6 -12 -34q-38 -89 -124 -113q-47 -13 -177 -28q-10 8 -10 65l4 474q1 61 46 99l-52 34q-33 22 -53 50z" />
    <glyph glyph-name="Yacute" unicode="&#xdd;" horiz-adv-x="540" 
d="M17 815q7 -51 64 -146h6q5 44 40.5 71t80.5 27q43 0 84 -36q35 -31 57.5 -75t22.5 -48q0 -8 -6 -12h-223q19 -31 56 -75q7 29 65 29q6 0 19 -1t19 -1q68 0 75 -4q22 -9 22 -63q0 -163 -83 -292q-88 -137 -239 -180l-6 -7q112 2 219 71q102 65 163 165q6 15 19 44
q9 12 22 39q34 94 34 216q0 49 -40.5 140.5t-40.5 79.5q0 15 19 24q16 8 32 7v13h-446q-14 0 -35 14z" />
    <glyph glyph-name="Thorn" unicode="&#xde;" horiz-adv-x="861" 
d="M851 698q-34 -1 -43 -36q-2 -6 -6 -65q-1 -31 -6 -93q-11 -96 -59 -210q-44 -105 -106 -191q-11 -16 -55 -58q-47 -46 -56 -46q-12 0 -67 68q-49 60 -62 84q-29 53 -51 114q-32 90 -43 127q-18 66 -23 133l-10 146q-22 27 -53 27q62 48 149.5 80t163.5 32q91 0 131 -8
q33 -7 85 -27q67 -40 74.5 -40t36.5 -37zM677 520q0 95 -24 157q-35 89 -115 89t-123 -59q-31 -66 -31 -179q0 -125 14 -205q17 -102 63 -195q9 -18 28 -45q23 -33 34 -33q8 0 42 34q19 19 25 29q54 84 73 196q14 80 14 211zM238 800q-17 -9 -24 -14q-13 -11 -16 -21
q-14 -56 -14 -92l-3 -586q0 -41 47 -62h-218q4 2 21 13q29 19 30 77l8 516q0 71 -13 127q-3 11 -17 23q-21 17 -23 19h222zM176 491q139 0 156 -1l11 -71q-37 2 -105 0q-90 -2 -113 -2z" />
    <glyph glyph-name="germandbls" unicode="&#xdf;" horiz-adv-x="593" 
d="M25 641l10 1q33 3 182 -73l16 -15l-151 -4q9 -7 18.5 -15t12.5 -17q12 -38 12 -125q0 -99 -16 -216q-19 -142 -52 -208q47 55 84 154q22 57 49 157q22 81 36 98q36 136 138 136q-44 51 -139 97q-49 24 -49 36q0 17 39 56q36 37 56 45q71 29 91 29q4 0 9.5 -3t7.5 -3
q38 -6 65 -11q45 -9 54 -29q-7 -2 -64 -4q-41 -2 -60 -20q34 -29 35 -110l7 -406q2 -119 -15 -141q-4 -5 -37 -22l206 -2q-11 8 -34 24l-6 14q-8 64 -8 61v527q0 45 52 52l8 -12q-4 16 -21 29q-119 90 -291 90q-50 0 -78 -8q-46 -13 -94 -57q-51 -47 -63 -90z" />
    <glyph glyph-name="agrave" unicode="&#xe0;" horiz-adv-x="452" 
d="M440 616l-2 -3q-33 -12 -34 -80l-8 -419q-1 -73 20 -82q5 -2 17 -11h-169l1 6q44 3 46 148l4 246q-55 1 -85 1q-67 -1 -76 -16q4 23 27 58q19 -7 113 -7q21 0 24 27q-1 -5 -1 44q0 36 -10 49q-99 -3 -168 -124q-60 -105 -60 -212q0 -128 86 -259q1 -1 6 -14
q-72 48 -116 142q-41 89 -41 181q0 85 19 140q5 15 44 81q37 63 37 65q0 27 -36 33l-1 6h363z" />
    <glyph glyph-name="aacute" unicode="&#xe1;" horiz-adv-x="447" 
d="M392 519q11 -17 25 -34v119q-21 3 -43 7q-57 14 -90 14q-165 0 -275 -87q2 1 6 1q27 0 33 -52q1 -9 1 -69v-348q0 -33 -39 -44l93 -3q45 -1 115 12q116 22 160 55q62 46 62 152l-17 76q-29 83 -121 127q-20 1 -72 -19q-48 -19 -49 -23q78 -26 135 -77q70 -62 70 -133
q0 -34 -35 -68.5t-70 -44.5q-89 -17 -136 -21q-8 6 -8 50l3 364q0 48 35 76q32 27 81 27q19 0 49 -3q15 -2 26 -6q28 -8 34 -21z" />
    <glyph glyph-name="acircumflex" unicode="&#xe2;" horiz-adv-x="447" 
d="M440 242q0 -106 -62 -152q-44 -33 -160 -55q-70 -13 -115 -12l-93 3q39 11 39 44v348q0 60 -1 69q-6 52 -33 52q-4 0 -6 -1q110 87 275 87q53 0 92 -39q3 -3 22 -36.5t19 -35.5v-11l-6 1q-11 0 -57.5 -25t-51.5 -34q92 -44 121 -127zM386 193q0 71 -70 133
q-57 51 -135 77q1 4 29 24q43 30 62 45q30 24 56 53q-15 30 -28 40.5t-44 10.5q-49 0 -81 -27q-35 -28 -35 -76l-3 -364q0 -44 8 -50q47 4 136 21q35 10 70 44.5t35 68.5z" />
    <glyph glyph-name="atilde" unicode="&#xe3;" horiz-adv-x="398" 
d="M381 468q0 14 -69 148h-10l5 -3q-4 -7 -14 -16q-21 -9 -151 -10h-135q49 -16 50 -98l5 -354q0 -106 -27 -123q-8 -6 -17 -14h173q-41 25 -42 91l-5 369q-1 49 11 72q16 32 61 32q46 0 94 -32q43 -28 71 -71v9z" />
    <glyph glyph-name="adieresis" unicode="&#xe4;" horiz-adv-x="521" 
d="M502 404q0 -211 -204 -325q-102 -58 -187 -58h-103v9q29 14 36 28q5 11 6 49l5 342l-5 68q-18 21 -41 21q46 37 113.5 61.5t126.5 24.5q183 0 253 -86q-16 -5 -21 -13q21 -75 21 -121zM405 370q0 83 -27 139q-35 73 -109 73q-70 0 -98 -28.5t-28 -98.5v-214l-3 -178
l6 -14q5 -6 15 -6q13 0 56 22q84 43 136 127t52 178z" />
    <glyph glyph-name="aring" unicode="&#xe5;" horiz-adv-x="416" 
d="M407 628q-6 -40 -50 -113h-5q-3 34 -30 55t-62 21q-65 0 -109 -86q-18 -35 -18 -37q0 -7 5 -9h172q-15 -24 -44 -58q-5 22 -50 22q-9 0 -26 1t-26 1q-52 0 -52 -54q0 -125 64 -225q68 -106 184 -139l5 -6q-87 2 -169 55q-77 50 -125 128l-15 33q-6 10 -17 30
q-26 71 -26 167q0 38 31 108t31 61q0 24 -39 24v10q34 0 102 -1.5t102 -1.5q145 0 167 14z" />
    <glyph glyph-name="ae" unicode="&#xe6;" horiz-adv-x="725" 
d="M308 555q0 26 -8 34l-28 20l2 4h163v-8q-39 -7 -39 -78q0 -20 1 -41q1 -28 -1 -40q5 -5 9 -5q30 0 83.5 53.5t53.5 83.5q0 13 -31 29v8l161 1q-29 -15 -66 -54q-30 -32 -59 -64q-22 -15 -59 -52q33 0 93.5 -38t76.5 -68q45 -84 45 -130q0 -149 -144 -245q89 115 89 196
q0 67 -72.5 149.5t-138.5 82.5q-17 0 -29.5 -10.5t-12.5 -26.5l-2 -208q-1 -85 11 -105q4 -7 15.5 -13t11.5 -10h-170v7q32 14 39 34q5 11 5 53l1 246q-2 10 -12 27q-13 10 -30 10q-66 0 -138.5 -82.5t-72.5 -149.5q0 -81 89 -196q-144 96 -144 245q0 46 45 130
q16 30 76.5 68t93.5 38q-37 37 -59 52q-29 32 -59 64q-37 39 -66 54l161 -1v-8q-31 -16 -31 -29q0 -30 53.5 -83.5t83.5 -53.5q4 0 9 5z" />
    <glyph glyph-name="ccedilla" unicode="&#xe7;" horiz-adv-x="447" 
d="M92 471q-23 22 -53 54q-12 14 -24 14q-4 0 -6 -1q110 87 275 87q53 0 92 -39q3 -3 22 -36.5t19 -35.5v-11l-6 1q-11 0 -57.5 -25t-51.5 -34q92 -44 121 -127l17 -76q0 -106 -62 -152q-44 -33 -160 -55q-70 -13 -115 -12l-93 3q38 10 76 21q55 14 59 12q47 4 136 21
q35 10 70 44.5t35 68.5q0 71 -70 133q-57 51 -135 77q1 4 29 24q43 30 62 45q30 24 56 53q-15 30 -28 40.5t-44 10.5q-49 0 -82 -27z" />
    <glyph glyph-name="egrave" unicode="&#xe8;" horiz-adv-x="440" 
d="M424 618q-15 -4 -25 -24t-10 -37l-3 -409q-1 -108 24 -113l11 -9h-92q-51 0 -120 35q-93 47 -147 140q-53 90 -53 196q0 64 18 111q9 20 17 39q11 26 11 40q0 23 -13 23l-11 8l175 -1q-47 -23 -82 -115q-30 -79 -30 -143q0 -100 49 -182q54 -89 145 -116q8 9 8 39v471
q0 25 -31 46q103 0 159 1z" />
    <glyph glyph-name="eacute" unicode="&#xe9;" horiz-adv-x="440" 
d="M424 618q-15 -4 -25 -24t-10 -37l-3 -409q-1 -108 24 -113l11 -9h-92q-51 0 -120 35q-93 47 -147 140q-53 90 -53 196q0 64 18 111q9 20 17 39q11 26 11 40q0 23 -13 23l-11 8l175 -1q-47 -23 -82 -115q-30 -79 -30 -143q0 -100 49 -182q54 -89 145 -116q8 9 8 39v471
q0 25 -31 46q103 0 159 1zM221 602q14 18 14 45q0 36 -22 59q-11 11 -31 15l73 73q24 -5 38.5 -29.5t14.5 -50.5q0 -31 -18 -49l-71 -71q-2 -3 -5 -5l-3 3z" />
    <glyph glyph-name="ecircumflex" unicode="&#xea;" horiz-adv-x="460" 
d="M448 210q0 -149 -144 -245q89 115 89 196q0 67 -72.5 149.5t-138.5 82.5q-17 0 -29.5 -10.5t-12.5 -26.5l-2 -208q-1 -85 11 -105q4 -7 15.5 -13t11.5 -10h-170v7q32 14 39 34q5 11 5 53l1 441q0 26 -8 34l-28 20l2 4h163v-8q-39 -7 -39 -78q0 -20 1 -41q1 -28 -1 -40
q5 -5 9 -5q30 0 83.5 53.5t53.5 83.5q0 13 -31 29v8l161 1q-29 -15 -66 -54q-30 -32 -59 -64q-22 -15 -59 -52q33 0 93.5 -38t76.5 -68q45 -84 45 -130z" />
    <glyph glyph-name="edieresis" unicode="&#xeb;" horiz-adv-x="452" 
d="M317 528q0 36 -10 49q-99 -3 -168 -124q-60 -105 -60 -212q0 -128 86 -259q1 -1 6 -14q-72 48 -116 142q-41 89 -41 181q0 85 19 140q5 15 44 81q37 63 37 65q0 27 -36 33l-1 6h363l-2 -3q-33 -12 -34 -80l-8 -419q-1 -73 20 -82q5 -2 17 -11h-169l1 6q44 3 46 148l4 246
q2 10 2 107z" />
    <glyph glyph-name="igrave" unicode="&#xec;" horiz-adv-x="514" 
d="M502 615l-1 -6q-40 -3 -41 -92l-5 -407q0 -29 4 -50q8 -35 27 -32l5 -5h-168q26 21 32 28q9 12 10 42l8 372q0 15 -5 41q-6 0 -67 -87l-72 -103l-121 190l-8 -5v-8q0 -16 -3 -46.5t-3 -45.5l-4 -288q0 -79 32 -80v-7h-102q9 3 25 15q13 15 14 78l6 402q0 50 -37 50
q-9 0 -21 -2q31 24 124 63l128 -195h7q61 77 111 173q3 6 8 6h20q21 -1 38 -1h59z" />
    <glyph glyph-name="iacute" unicode="&#xed;" horiz-adv-x="457" 
d="M447 615l-1 -4h-2q-38 0 -39 -90l-3 -455q0 -21 17 -34l20 -14h-168q10 8 21 16q18 17 18 49v338h-169v-360q0 -11 10.5 -23t20.5 -11l6 -9h-168q11 12 19 24q20 27 20 46l6 405q0 43 -10 90q-2 9 -13 18l-17 14h171l-4 -5h-3q-18 0 -28 -35q-7 -25 -7 -52v-62l172 1
q-2 10 -2 23v0q-2 67 -3 74q-6 41 -35 56h171z" />
    <glyph glyph-name="icircumflex" unicode="&#xee;" horiz-adv-x="515" 
d="M502 538q-28 -6 -34 -28l-4 -50q-1 -24 -5 -72q-18 -157 -127 -309q-8 -11 -42 -44q-37 -36 -44 -36q-9 0 -51 52q-39 48 -48 65q-52 93 -73 195q-12 58 -24 206q-18 21 -41 21q46 37 113.5 61.5t126.5 24.5q183 0 253 -86zM367 400v0q0 -21 2 -23q5 0 3 62q-2 67 -17 93
q-4 10 -21 37q-37 21 -74 21q-86 0 -110 -55q-10 -49 -10 -101q0 -17 1.5 -51.5t1.5 -51.5q0 -130 58 -232q34 -60 48 -60q7 0 26 19.5t25 28.5q67 106 67 313z" />
    <glyph glyph-name="idieresis" unicode="&#xef;" horiz-adv-x="457" 
d="M276 615h-261l17 -14q11 -9 13 -18q10 -47 10 -90q0 -10 -6 -405q0 -29 -9 -42q-5 -10 -30 -28h168l-6 9q-11 -1 -21 11t-10 23l-1 531h173l-3 -509q0 -32 -18 -49q-11 -8 -21 -16h168l-20 14q-17 13 -17 34l3 455q1 90 39 90h2l1 4h-222h51z" />
    <glyph glyph-name="eth" unicode="&#xf0;" horiz-adv-x="465" 
d="M459 538q-45 -51 -138 -110q-9 -5 -74.5 -30.5t-77.5 -27.5q34 26 77 58q75 56 77 82l18 25q-9 13 -20 34q-22 23 -70 23q-53 0 -82 -32.5t-29 -86.5l-3 -424l39 -25q-8 0 -23 -1.5t-23 -1.5q-17 0 -60 2l-60 3q39 11 39 44q0 47 1 142l1 239q0 88 -36 88q-4 0 -6 -1
q110 86 274 86q104 0 140 -50q13 -18 36 -36z" />
    <glyph glyph-name="ntilde" unicode="&#xf1;" horiz-adv-x="416" 
d="M407 628q-6 -40 -50 -113h-5q-3 34 -30 55t-62 21q-70 0 -113 -93q-35 -75 -35 -154q0 -111 71 -209t177 -128l5 -6q-86 2 -167.5 54t-126.5 129l-15 33q-6 10 -17 30q-26 70 -26 167q0 38 31 108t31 61q0 24 -39 24v10q33 0 100 -1.5t100 -1.5q149 0 171 14z" />
    <glyph glyph-name="ograve" unicode="&#xf2;" horiz-adv-x="437" 
d="M424 470q-5 6 -14 17q-67 103 -136 103q-9 0 -15 -31q-4 -21 -4 -39l-3 -351q0 -92 6 -121q2 -8 37 -27h-174q41 13 42 69l5 316q0 4 2.5 10.5t2.5 9.5q0 5 -2 5q-1 0 -2 -1q-2 56 -3 66q-6 38 -27 59l3 -1q17 0 71 25v9q-6 2 -17 2q-125 0 -185 -116q12 51 26 155l6 5
q7 -21 42 -21h240q7 0 7 5h22q16 0 37 22q6 -35 13 -99l-1 1h1l1 -4z" />
    <glyph glyph-name="oacute" unicode="&#xf3;" horiz-adv-x="386" 
d="M0 14l25 -2l55 -1q26 0 101 4l1 7l-3 -1q-16 0 -24.5 12t-16.5 25q-3 4 20.5 49.5t23.5 52.5q0 4 31 63l65 124q15 34 48 100q46 86 59 105q4 7 20 19.5t24 14.5q-18 9 -60 27q-8 3 -48 21q-3 -18 -57.5 -120.5t-66.5 -112.5q-20 3 -47 52t-27 72t15 40.5t38 19.5l3 3
l4 -1q-70 47 -83 47q-15 0 -25 -30q-9 -24 -9 -42q0 -44 20 -79q13 -22 48 -58t49 -57l6 -9l-138 -273q-9 -19 -19 -37.5t-32 -34.5z" />
    <glyph glyph-name="ocircumflex" unicode="&#xf4;" horiz-adv-x="515" 
d="M332 207q-8 -11 -42 -44q-37 -36 -44 -36q-9 0 -51 52q-39 48 -48 65q-29 52 -73 195l-24 78q-18 21 -41 21q46 37 113.5 61.5t126.5 24.5q183 0 253 -86q-24 -5 -29 -14q-16 -144 -141 -317zM355 532q-4 10 -21 37q-37 21 -74 21q-86 0 -110 -55q1 -13 -3 -43t-4 -33
q0 -130 58 -232q34 -60 48 -60q7 0 26 19.5t25 28.5q69 109 69 290zM369 505zM343 613q-40 -22 -41 -98l-3 -451q0 -32 37 -48h-169q3 1 17 10q22 14 23 59l6 398q0 53 -10 98q-2 9 -11.5 17t-18.5 15h170z" />
    <glyph glyph-name="otilde" unicode="&#xf5;" horiz-adv-x="464" 
d="M457 46q-18 -9 -59 -26q-2 0 -49 -21q-6 32 -156 297l-50 -54q-21 -4 -47.5 -51.5t-26.5 -71.5q0 -23 15 -41t37 -19l3 -3l5 1q-70 -47 -83 -47q-16 0 -26 29q-8 22 -8 43q0 60 40 108q27 28 77 86l46 59q-78 162 -118 219q-5 8 -20.5 20t-23.5 14q18 9 60 27q8 3 48 21
q3 -18 58 -121t66 -112q20 5 47 53t27 71t-15 40.5t-38 19.5l-3 3l-4 -1q70 47 83 47q15 0 25 -30q9 -24 9 -42q0 -47 -23 -85q-14 -23 -50.5 -59.5t-49.5 -58.5q25 -39 85 -142q20 -39 75 -138q4 -8 20 -20.5t24 -14.5z" />
    <glyph glyph-name="odieresis" unicode="&#xf6;" horiz-adv-x="440" 
d="M359 -73h-194q-13 0 -35 14t-27 26v-10q0 -3 47 -122h284v9q0 5 -6.5 23.5t-6.5 23.5l-6 33q-1 11 -21 111q-10 2 -10 31l2 82l3 409q0 17 10 37t25 24q-56 -1 -159 -1q31 -21 31 -46v-471q0 -30 -8 -39q-91 27 -145 116q-49 82 -49 182q0 64 30 143q35 92 82 115l-175 1
l11 -8q13 0 13 -23q0 -14 -11 -40q-8 -19 -17 -39q-18 -47 -18 -111q0 -106 53 -196q54 -93 147 -140q28 -14 65 -22q27 -7 55 -13q14 -15 26.5 -42.5t12.5 -43.5q0 -13 -9 -13z" />
    <glyph glyph-name="divide" unicode="&#xf7;" horiz-adv-x="440" 
d="M303 266q-5 -2 -59 -25q-31 -14 -60 -14q-73 -1 -115 33q-53 42 -60 137q-4 49 18 111q6 12 17 39q4 10 8.5 20t2.5 20q-3 13 -13 23l-11 8l175 -1q-52 -47 -82 -115q-13 -27 -26 -55t-13 -50q0 -19 9 -38q22 -45 77 -61q12 -4 24 -4q21 0 51 14q39 17 55 21zM288 61
q8 9 8 39v471q0 25 -31 46q103 0 159 1q-15 -4 -25 -24t-10 -37l-3 -409q-1 -108 24 -113l11 -9h-92l-68 5q12 14 16 25q3 7 4 7q2 -1 7 -2z" />
    <glyph glyph-name="oslash" unicode="&#xf8;" horiz-adv-x="636" 
d="M632 617q-15 -4 -25 -24t-10 -37l-3 -409q-1 -108 24 -113l11 -9h-92q-51 0 -120 35q-93 47 -147 140q-53 90 -53 196q0 64 18 111q9 20 17 39q11 26 11 40q0 23 -13 23l-11 8l175 -1q-47 -23 -82 -115q-30 -79 -30 -143q0 -100 49 -182q54 -89 145 -116q8 9 8 39v471
q0 25 -31 46q103 0 159 1zM411 81l-113 -56q-9 -4 -20 -4q-22 0 -100 39q-93 47 -147 140q-53 90 -53 196q0 64 18 111q9 20 17 39q11 26 11 40q0 23 -13 23l-11 8l175 -1q-47 -23 -82 -115q-30 -79 -30 -143q0 -100 49 -182q54 -89 145 -116l123 54z" />
    <glyph glyph-name="ugrave" unicode="&#xf9;" horiz-adv-x="636" 
d="M270 200q-53 91 -53 196q0 64 18 111q9 20 17 39q11 26 11 40q0 23 -13 23l-11 8l175 -1q-47 -23 -82 -115q-30 -79 -30 -143q0 -100 49 -182q54 -89 145 -116q8 9 8 39v471q0 25 -31 46q103 0 159 1q-15 -4 -25 -24t-10 -37l-3 -409q0 -57 3 -76q4 -23 21 -37
q20 -28 27 -57q2 -6 11 -61l6 -33q0 -5 6.5 -23.5t6.5 -23.5v-9l-545 3q-47 119 -47 122v10q5 -12 27 -26t35 -14l455 -3q6 0 6 5q0 27 -69 101q-28 6 -55 13q-37 8 -65 22q-5 1 -26 14l-93 -49q-9 -5 -21 -5q-20 0 -99 40q-93 47 -147 140q-53 90 -53 196q0 64 18 111
q9 20 17 39q11 26 11 40q0 23 -13 23l-11 8l175 -1q-47 -23 -82 -115q-30 -79 -30 -143q0 -100 49 -182q54 -89 145 -116l92 42q-27 16 -45 42q-6 9 -34 56z" />
    <glyph glyph-name="uacute" unicode="&#xfa;" horiz-adv-x="574" 
d="M170 418v-348q0 -33 -39 -44l93 -3q45 -1 115 12q116 22 160 55q62 46 62 152l-17 76q-29 83 -121 127q-4 -3 -39.5 -4.5t-52.5 -13.5q-28 -20 -29 -24q78 -26 135 -77q70 -62 70 -133q0 -34 -35 -68.5t-70 -44.5q-89 -17 -136 -21q-8 6 -8 50l3 364q1 118 25 138
q-5 -2 -149 -2q-28 4 -37 4t-19 -5q-16 -8 -32 -14q-39 -19 -49 -75q-5 -7 16.5 -45t42.5 -41l-13 98q18 9 35 9q15 0 39 -8q31 -9 45 -11q5 -6 5 -103z" />
    <glyph glyph-name="ucircumflex" unicode="&#xfb;" horiz-adv-x="603" 
d="M165 611q-5 -2 -149 -2q4 0 7 -9t7 -12q5 -8 12 -66t7 -104v-348q0 -33 -39 -44l93 -3q45 -1 115 12q116 22 160 55q62 46 62 152l-17 76q-29 83 -121 127q-4 -3 -39.5 -4.5t-52.5 -13.5q-28 -20 -29 -24q78 -26 135 -77q70 -62 70 -133q0 -34 -35 -68.5t-70 -44.5
q-89 -17 -136 -21q-8 6 -8 50l3 364q1 118 25 138zM591 616q-40 -22 -41 -98l-3 -451q0 -32 37 -48h-169q3 1 17 10q22 14 23 59l6 398q0 53 -10 98q-2 9 -11.5 17t-18.5 15h170z" />
    <glyph glyph-name="udieresis" unicode="&#xfc;" horiz-adv-x="447" 
d="M165 611q-5 -2 -149 -2q4 0 7 -9t7 -12q5 -8 12 -66t7 -104v-348q0 -33 -39 -44l93 -3q45 -1 115 12q116 22 160 55q62 46 62 152l-17 76q-29 83 -121 127q-4 -3 -39.5 -4.5t-52.5 -13.5q-28 -20 -29 -24q78 -26 135 -77q70 -62 70 -133q0 -34 -35 -68.5t-70 -44.5
q-89 -17 -136 -21q-8 6 -8 50l3 364q1 118 25 138z" />
    <glyph glyph-name="yacute" unicode="&#xfd;" horiz-adv-x="416" 
d="M13 628q6 -40 50 -113h5q3 34 30 55t62 21q65 0 109 -86q18 -35 18 -37q0 -7 -5 -9h-172q15 -24 44 -58q5 22 50 22q9 0 26 1t26 1q52 0 52 -54q0 -125 -64 -225q-68 -106 -184 -139l-5 -6q87 2 169 55q77 50 125 128l15 33q6 10 17 30q26 71 26 167q0 38 -31 108t-31 61
q0 24 39 24v10q-34 0 -102 -1.5t-102 -1.5q-145 0 -167 14z" />
    <glyph glyph-name="thorn" unicode="&#xfe;" horiz-adv-x="651" 
d="M647 538q-28 -6 -34 -28l-4 -50q-1 -24 -5 -72q-18 -157 -127 -309q-8 -11 -42 -44q-37 -36 -44 -36q-9 0 -51 52q-39 48 -48 65q-52 93 -73 195q-12 58 -24 206q-18 21 -41 21q46 37 113.5 61.5t126.5 24.5q183 0 253 -86zM512 400v0q0 -21 2 -23q5 0 3 62q-2 67 -17 93
q-4 10 -21 37q-37 21 -74 21q-86 0 -110 -55q-10 -49 -10 -101q0 -17 1.5 -51.5t1.5 -51.5q0 -130 58 -232q34 -60 48 -60q7 0 26 19.5t25 28.5q67 106 67 313zM183 616q-40 -22 -41 -98l-3 -451q0 -32 37 -48h-169q3 1 17 10q22 14 23 59l6 398q0 53 -10 98q-2 9 -11.5 17
t-18.5 15h170zM125 429q30 0 59 -2t64 -2l-20 -73q-30 0 -86.5 1.5t-90.5 1.5z" />
    <glyph glyph-name="ydieresis" unicode="&#xff;" horiz-adv-x="474" 
d="M9 211q0 -149 144 -245q-89 115 -89 196q0 101 115 184q70 50 103 50q-10 12 -80 57q-64 41 -65 45l-9 37q9 13 20 34q19 19 62 19q120 0 122 -128l5 -313q1 -92 -11 -108q-3 -5 -28 -17l158 -2q-9 6 -26 19l-5 10q0 8 -3 23.5t-3 23.5v421q18 21 41 21q-109 86 -226 86
q-107 0 -137 -15q-45 -23 -76 -115h8q29 0 70 -21q23 -12 70 -35l12 -11q-115 -30 -154 -140z" />
    <glyph glyph-name="Amacron" unicode="&#x100;" horiz-adv-x="1000" 
 />
    <glyph glyph-name="amacron" unicode="&#x101;" 
 />
    <glyph glyph-name="Abreve" unicode="&#x102;" 
 />
    <glyph glyph-name="abreve" unicode="&#x103;" 
 />
    <glyph glyph-name="Aogonek" unicode="&#x104;" 
 />
    <glyph glyph-name="aogonek" unicode="&#x105;" 
 />
    <glyph glyph-name="Cacute" unicode="&#x106;" 
 />
    <glyph glyph-name="cacute" unicode="&#x107;" 
 />
    <glyph glyph-name="Ccircumflex" unicode="&#x108;" 
 />
    <glyph glyph-name="ccircumflex" unicode="&#x109;" 
 />
    <glyph glyph-name="Cdotaccent" unicode="&#x10a;" 
 />
    <glyph glyph-name="cdotaccent" unicode="&#x10b;" 
 />
    <glyph glyph-name="Ccaron" unicode="&#x10c;" 
 />
    <glyph glyph-name="ccaron" unicode="&#x10d;" 
 />
    <glyph glyph-name="Dcaron" unicode="&#x10e;" 
 />
    <glyph glyph-name="dcaron" unicode="&#x10f;" 
 />
    <glyph glyph-name="Dcroat" unicode="&#x110;" 
 />
    <glyph glyph-name="dcroat" unicode="&#x111;" 
 />
    <glyph glyph-name="Emacron" unicode="&#x112;" 
 />
    <glyph glyph-name="emacron" unicode="&#x113;" 
 />
    <glyph glyph-name="Ebreve" unicode="&#x114;" 
 />
    <glyph glyph-name="ebreve" unicode="&#x115;" 
 />
    <glyph glyph-name="Edotaccent" unicode="&#x116;" 
 />
    <glyph glyph-name="edotaccent" unicode="&#x117;" 
 />
    <glyph glyph-name="Eogonek" unicode="&#x118;" 
 />
    <glyph glyph-name="eogonek" unicode="&#x119;" 
 />
    <glyph glyph-name="Ecaron" unicode="&#x11a;" 
 />
    <glyph glyph-name="ecaron" unicode="&#x11b;" 
 />
    <glyph glyph-name="Gcircumflex" unicode="&#x11c;" 
 />
    <glyph glyph-name="gcircumflex" unicode="&#x11d;" 
 />
    <glyph glyph-name="Gbreve" unicode="&#x11e;" 
 />
    <glyph glyph-name="gbreve" unicode="&#x11f;" 
 />
    <glyph glyph-name="Gdotaccent" unicode="&#x120;" 
 />
    <glyph glyph-name="gdotaccent" unicode="&#x121;" 
 />
    <glyph glyph-name="uni0122" unicode="&#x122;" 
 />
    <glyph glyph-name="uni0123" unicode="&#x123;" 
 />
    <glyph glyph-name="Hcircumflex" unicode="&#x124;" 
 />
    <glyph glyph-name="hcircumflex" unicode="&#x125;" 
 />
    <glyph glyph-name="Hbar" unicode="&#x126;" 
 />
    <glyph glyph-name="hbar" unicode="&#x127;" 
 />
    <glyph glyph-name="Itilde" unicode="&#x128;" 
 />
    <glyph glyph-name="itilde" unicode="&#x129;" 
 />
    <glyph glyph-name="Imacron" unicode="&#x12a;" 
 />
    <glyph glyph-name="imacron" unicode="&#x12b;" 
 />
    <glyph glyph-name="Ibreve" unicode="&#x12c;" 
 />
    <glyph glyph-name="ibreve" unicode="&#x12d;" 
 />
    <glyph glyph-name="Iogonek" unicode="&#x12e;" 
 />
    <glyph glyph-name="iogonek" unicode="&#x12f;" 
 />
    <glyph glyph-name="Idotaccent" unicode="&#x130;" 
 />
    <glyph glyph-name="dotlessi" unicode="&#x131;" horiz-adv-x="561" 
d="M550 576q-36 -34 -46 -117q-19 -157 -88 -269q-86 -139 -223 -151q-7 -1 -30 -5q-19 -4 -30 -4l-120 4q50 14 50 57q0 298 4 302q-2 9 -2 30l1 159q0 3 2 4t2 3q0 16 -6 49t-13 43.5t-38 19.5q107 109 277 109q133 0 207 -78q45 -48 44 -79q-2 2 -8 2q-14 0 -74 -33
t-66 -44q2 -6 10 -6q7 0 22 2t22 2h103zM413 394q0 142 -102 142q-11 0 -76 -12q1 6 84 62t83 69t-29 45q-48 53 -99 68q-35 10 -64 10q-57 0 -121 -38l-2 -7q62 -1 71 -2q43 -5 63 -29q-38 -15 -39 -87l-4 -474q0 -58 10 -65q67 9 121.5 53t73.5 108q30 103 30 157z" />
    <glyph glyph-name="IJ" unicode="&#x132;" 
 />
    <glyph glyph-name="ij" unicode="&#x133;" 
 />
    <glyph glyph-name="Jcircumflex" unicode="&#x134;" 
 />
    <glyph glyph-name="jcircumflex" unicode="&#x135;" 
 />
    <glyph glyph-name="uni0136" unicode="&#x136;" 
 />
    <glyph glyph-name="uni0137" unicode="&#x137;" 
 />
    <glyph glyph-name="kgreenlandic" unicode="&#x138;" 
 />
    <glyph glyph-name="Lacute" unicode="&#x139;" 
 />
    <glyph glyph-name="lacute" unicode="&#x13a;" 
 />
    <glyph glyph-name="uni013B" unicode="&#x13b;" 
 />
    <glyph glyph-name="uni013C" unicode="&#x13c;" 
 />
    <glyph glyph-name="Lcaron" unicode="&#x13d;" 
 />
    <glyph glyph-name="lcaron" unicode="&#x13e;" 
 />
    <glyph glyph-name="Ldot" unicode="&#x13f;" 
 />
    <glyph glyph-name="ldot" unicode="&#x140;" 
 />
    <glyph glyph-name="Lslash" unicode="&#x141;" 
 />
    <glyph glyph-name="lslash" unicode="&#x142;" 
 />
    <glyph glyph-name="Nacute" unicode="&#x143;" 
 />
    <glyph glyph-name="nacute" unicode="&#x144;" 
 />
    <glyph glyph-name="uni0145" unicode="&#x145;" 
 />
    <glyph glyph-name="uni0146" unicode="&#x146;" 
 />
    <glyph glyph-name="Ncaron" unicode="&#x147;" 
 />
    <glyph glyph-name="ncaron" unicode="&#x148;" 
 />
    <glyph glyph-name="napostrophe" unicode="&#x149;" 
 />
    <glyph glyph-name="Eng" unicode="&#x14a;" 
 />
    <glyph glyph-name="eng" unicode="&#x14b;" 
 />
    <glyph glyph-name="Omacron" unicode="&#x14c;" 
 />
    <glyph glyph-name="omacron" unicode="&#x14d;" 
 />
    <glyph glyph-name="Obreve" unicode="&#x14e;" 
 />
    <glyph glyph-name="obreve" unicode="&#x14f;" 
 />
    <glyph glyph-name="Ohungarumlaut" unicode="&#x150;" 
 />
    <glyph glyph-name="ohungarumlaut" unicode="&#x151;" 
 />
    <glyph glyph-name="OE" unicode="&#x152;" horiz-adv-x="663" 
d="M651 698q-34 0 -43 -37q-2 -6 -6 -65q-1 -31 -6 -92q-13 -118 -83 -268q-18 -38 -47 -82l-10 -15v-2q23 0 117 49q-52 -142 -47 -237l-27 51l-12 119l-56 -16q-12 -16 -55 -58q-47 -46 -56 -46q-12 0 -67 68q-49 60 -62 84q-45 81 -102 246q-12 34 -13 82v192q0 8 -13 19
t-21 11q-3 0 -7.5 -3.5t-7.5 -3.5q-9 0 -16 4q62 49 148.5 80.5t164.5 31.5q92 0 131 -8q32 -7 85 -27q67 -40 74.5 -40t36.5 -37zM477 520q0 61 -22 151l-5 5q-13 103 -173 103q-40 0 -96 -12q-74 -16 -77 -39h80q63 -4 74 -25q-72 -81 -72 -273q0 -66 15 -142
q17 -88 44 -134q3 -2 8 -7q57 -97 70 -97q8 0 41 33q20 20 26 30q54 84 73 196q14 80 14 211z" />
    <glyph glyph-name="oe" unicode="&#x153;" horiz-adv-x="511" 
d="M502 538q-25 -6 -29 -13q-6 -12 -10 -66q-1 -24 -4 -71q-3 -30 -22 -95q-17 -59 -42 -111q-15 -32 -36 -64q-4 -5 -8 -11v-1q18 0 90 37q-40 -109 -36 -182l-21 39l-9 92l-43 -13q-6 -8 -43 -44t-43 -36q-9 0 -51 52q-38 48 -48 65q-35 62 -79 190q-9 26 -9 127v84
q0 6 -10 14t-16 8q-3 0 -6.5 -2.5t-5.5 -2.5q-7 0 -12 4q48 37 114.5 61.5t125.5 24.5q183 0 253 -86zM367 400q0 47 -17 117l-3 3q-11 80 -134 80q-31 0 -74 -9q-57 -12 -59 -30h62q47 -3 57 -20q-56 -62 -56 -210q0 -114 46 -213l6 -5q3 -12 24.5 -43t29.5 -31q7 0 27 20
q17 17 24 28q67 104 67 313z" />
    <glyph glyph-name="Racute" unicode="&#x154;" 
 />
    <glyph glyph-name="racute" unicode="&#x155;" 
 />
    <glyph glyph-name="uni0156" unicode="&#x156;" 
 />
    <glyph glyph-name="uni0157" unicode="&#x157;" 
 />
    <glyph glyph-name="Rcaron" unicode="&#x158;" 
 />
    <glyph glyph-name="rcaron" unicode="&#x159;" 
 />
    <glyph glyph-name="Sacute" unicode="&#x15a;" 
 />
    <glyph glyph-name="sacute" unicode="&#x15b;" 
 />
    <glyph glyph-name="Scircumflex" unicode="&#x15c;" 
 />
    <glyph glyph-name="scircumflex" unicode="&#x15d;" 
 />
    <glyph glyph-name="Scedilla" unicode="&#x15e;" 
 />
    <glyph glyph-name="scedilla" unicode="&#x15f;" 
 />
    <glyph glyph-name="Scaron" unicode="&#x160;" 
 />
    <glyph glyph-name="scaron" unicode="&#x161;" 
 />
    <glyph glyph-name="uni0162" unicode="&#x162;" 
 />
    <glyph glyph-name="uni0163" unicode="&#x163;" 
 />
    <glyph glyph-name="Tcaron" unicode="&#x164;" 
 />
    <glyph glyph-name="tcaron" unicode="&#x165;" 
 />
    <glyph glyph-name="Tbar" unicode="&#x166;" 
 />
    <glyph glyph-name="tbar" unicode="&#x167;" 
 />
    <glyph glyph-name="Utilde" unicode="&#x168;" 
 />
    <glyph glyph-name="utilde" unicode="&#x169;" 
 />
    <glyph glyph-name="Umacron" unicode="&#x16a;" 
 />
    <glyph glyph-name="umacron" unicode="&#x16b;" 
 />
    <glyph glyph-name="Ubreve" unicode="&#x16c;" 
 />
    <glyph glyph-name="ubreve" unicode="&#x16d;" 
 />
    <glyph glyph-name="Uring" unicode="&#x16e;" 
 />
    <glyph glyph-name="uring" unicode="&#x16f;" 
 />
    <glyph glyph-name="Uhungarumlaut" unicode="&#x170;" 
 />
    <glyph glyph-name="uhungarumlaut" unicode="&#x171;" 
 />
    <glyph glyph-name="Uogonek" unicode="&#x172;" 
 />
    <glyph glyph-name="uogonek" unicode="&#x173;" 
 />
    <glyph glyph-name="Wcircumflex" unicode="&#x174;" 
 />
    <glyph glyph-name="wcircumflex" unicode="&#x175;" 
 />
    <glyph glyph-name="Ycircumflex" unicode="&#x176;" 
 />
    <glyph glyph-name="ycircumflex" unicode="&#x177;" 
 />
    <glyph glyph-name="Ydieresis" unicode="&#x178;" horiz-adv-x="770" 
 />
    <glyph glyph-name="Zacute" unicode="&#x179;" 
 />
    <glyph glyph-name="zacute" unicode="&#x17a;" 
 />
    <glyph glyph-name="Zdotaccent" unicode="&#x17b;" 
 />
    <glyph glyph-name="zdotaccent" unicode="&#x17c;" 
 />
    <glyph glyph-name="Zcaron" unicode="&#x17d;" 
 />
    <glyph glyph-name="zcaron" unicode="&#x17e;" 
 />
    <glyph glyph-name="longs" unicode="&#x17f;" 
 />
    <glyph glyph-name="florin" unicode="&#x192;" horiz-adv-x="770" 
 />
    <glyph glyph-name="Aringacute" unicode="&#x1fa;" 
 />
    <glyph glyph-name="aringacute" unicode="&#x1fb;" 
 />
    <glyph glyph-name="AEacute" unicode="&#x1fc;" 
 />
    <glyph glyph-name="aeacute" unicode="&#x1fd;" 
 />
    <glyph glyph-name="Oslashacute" unicode="&#x1fe;" 
 />
    <glyph glyph-name="oslashacute" unicode="&#x1ff;" 
 />
    <glyph glyph-name="circumflex" unicode="&#x2c6;" horiz-adv-x="770" 
 />
    <glyph glyph-name="caron" unicode="&#x2c7;" 
 />
    <glyph glyph-name="breve" unicode="&#x2d8;" horiz-adv-x="770" 
 />
    <glyph glyph-name="dotaccent" unicode="&#x2d9;" horiz-adv-x="770" 
 />
    <glyph glyph-name="ring" unicode="&#x2da;" horiz-adv-x="431" 
d="M417 616q-29 -15 -66 -54q-30 -32 -59 -64q-22 -15 -59 -52q16 0 49 1t49 1q6 -1 39 -4q-33 -20 -33 -116q0 -169 61 -356q-53 75 -88 181q-21 65 -62 194q-7 23 -27 43.5t-42 20.5q-26 0 -34 -16q-5 -9 -5 -39l-2 -208q-1 -85 11 -105q4 -7 15.5 -13t11.5 -10h-170v7
q32 14 39 34q5 11 5 53l1 441q0 26 -8 34l-28 20l2 4h163v-8q-39 -7 -39 -78q0 -20 1 -41q1 -28 -1 -40q5 -5 9 -5q30 0 83.5 53.5t53.5 83.5q0 13 -31 29v8z" />
    <glyph glyph-name="ogonek" unicode="&#x2db;" horiz-adv-x="602" 
d="M594 60l-24 -11l-54 -23q-10 -4 -62 -28q-4 20 -13 37l-137 254q-5 8 -54 95l-65 -69q-3 0 -32 -31q-64 -69 -64 -129q0 -30 19.5 -53t48.5 -26q-1 -4 4 -4q3 0 4.5 1l1.5 1q-16 -11 -49 -31q-49 -30 -58 -30q-14 0 -28 27q-12 22 -13 29q-6 34 -2 56q-1 1 -1 5q0 6 2 20
q9 23 29 68q36 64 120 140q2 2 60 77q-4 9 -55 104q-26 48 -97 180q-3 4 -21 20l-19 17l-18 8l24 11l53 23q10 4 63 28q4 -20 13 -37l137 -254q6 -11 11 -11q4 0 33 31q63 68 63 129q0 30 -19 53t-49 26q1 3 -4 3h-4q-1 -1 -2 -1q25 16 49 31q48 30 59 30q14 0 28 -27
q10 -19 12 -29q6 -34 3 -56q1 -4 -2 -25q-13 -37 -29 -68q-32 -62 -120 -140q-7 -6 -7 -13q39 -60 110 -183q39 -75 97 -180q3 -4 21 -20l19 -17z" />
    <glyph glyph-name="tilde" unicode="&#x2dc;" horiz-adv-x="770" 
 />
    <glyph glyph-name="hungarumlaut" unicode="&#x2dd;" 
 />
    <glyph glyph-name="tonos" unicode="&#x384;" 
 />
    <glyph glyph-name="dieresistonos" unicode="&#x385;" 
 />
    <glyph glyph-name="Alphatonos" unicode="&#x386;" 
 />
    <glyph glyph-name="anoteleia" unicode="&#x387;" 
 />
    <glyph glyph-name="Epsilontonos" unicode="&#x388;" 
 />
    <glyph glyph-name="Etatonos" unicode="&#x389;" 
 />
    <glyph glyph-name="Iotatonos" unicode="&#x38a;" 
 />
    <glyph glyph-name="Omicrontonos" unicode="&#x38c;" 
 />
    <glyph glyph-name="Upsilontonos" unicode="&#x38e;" 
 />
    <glyph glyph-name="Omegatonos" unicode="&#x38f;" 
 />
    <glyph glyph-name="iotadieresistonos" unicode="&#x390;" 
 />
    <glyph glyph-name="Alpha" unicode="&#x391;" 
 />
    <glyph glyph-name="Beta" unicode="&#x392;" 
 />
    <glyph glyph-name="Gamma" unicode="&#x393;" 
 />
    <glyph glyph-name="Delta" unicode="&#x394;" horiz-adv-x="770" 
 />
    <glyph glyph-name="Delta" unicode="&#x2206;" horiz-adv-x="770" 
 />
    <glyph glyph-name="Epsilon" unicode="&#x395;" 
 />
    <glyph glyph-name="Zeta" unicode="&#x396;" 
 />
    <glyph glyph-name="Eta" unicode="&#x397;" 
 />
    <glyph glyph-name="Theta" unicode="&#x398;" 
 />
    <glyph glyph-name="Iota" unicode="&#x399;" 
 />
    <glyph glyph-name="Kappa" unicode="&#x39a;" 
 />
    <glyph glyph-name="Lambda" unicode="&#x39b;" 
 />
    <glyph glyph-name="Mu" unicode="&#x39c;" 
 />
    <glyph glyph-name="Nu" unicode="&#x39d;" 
 />
    <glyph glyph-name="Xi" unicode="&#x39e;" 
 />
    <glyph glyph-name="Omicron" unicode="&#x39f;" 
 />
    <glyph glyph-name="Pi" unicode="&#x3a0;" 
 />
    <glyph glyph-name="Rho" unicode="&#x3a1;" 
 />
    <glyph glyph-name="Sigma" unicode="&#x3a3;" 
 />
    <glyph glyph-name="Tau" unicode="&#x3a4;" 
 />
    <glyph glyph-name="Upsilon" unicode="&#x3a5;" 
 />
    <glyph glyph-name="Phi" unicode="&#x3a6;" 
 />
    <glyph glyph-name="Chi" unicode="&#x3a7;" 
 />
    <glyph glyph-name="Psi" unicode="&#x3a8;" 
 />
    <glyph glyph-name="Omega" unicode="&#x3a9;" horiz-adv-x="770" 
 />
    <glyph glyph-name="Omega" unicode="&#x2126;" horiz-adv-x="770" 
 />
    <glyph glyph-name="Iotadieresis" unicode="&#x3aa;" 
 />
    <glyph glyph-name="Upsilondieresis" unicode="&#x3ab;" 
 />
    <glyph glyph-name="alphatonos" unicode="&#x3ac;" 
 />
    <glyph glyph-name="epsilontonos" unicode="&#x3ad;" 
 />
    <glyph glyph-name="etatonos" unicode="&#x3ae;" 
 />
    <glyph glyph-name="iotatonos" unicode="&#x3af;" 
 />
    <glyph glyph-name="upsilondieresistonos" unicode="&#x3b0;" 
 />
    <glyph glyph-name="alpha" unicode="&#x3b1;" 
 />
    <glyph glyph-name="beta" unicode="&#x3b2;" 
 />
    <glyph glyph-name="gamma" unicode="&#x3b3;" 
 />
    <glyph glyph-name="delta" unicode="&#x3b4;" 
 />
    <glyph glyph-name="epsilon" unicode="&#x3b5;" 
 />
    <glyph glyph-name="zeta" unicode="&#x3b6;" 
 />
    <glyph glyph-name="eta" unicode="&#x3b7;" 
 />
    <glyph glyph-name="theta" unicode="&#x3b8;" 
 />
    <glyph glyph-name="iota" unicode="&#x3b9;" 
 />
    <glyph glyph-name="kappa" unicode="&#x3ba;" 
 />
    <glyph glyph-name="lambda" unicode="&#x3bb;" 
 />
    <glyph glyph-name="nu" unicode="&#x3bd;" 
 />
    <glyph glyph-name="xi" unicode="&#x3be;" 
 />
    <glyph glyph-name="omicron" unicode="&#x3bf;" 
 />
    <glyph glyph-name="pi" unicode="&#x3c0;" horiz-adv-x="432" 
d="M417 503l-6 1q-12 0 -56 -37l-58 -48q-78 -39 -128 -49q1 7 44 35q28 18 52 35q7 5 25.5 31.5t18.5 32.5q0 20 -53 66q-34 29 -95 29q-43 0 -92 -29l-2 -6q47 0 55 -1q33 -4 48 -23q-30 -11 -30 -67l-3 -424l39 -25q-8 0 -23 -1.5t-23 -1.5q-18 0 -60 2l-60 3
q39 11 39 44v225l3 8q-2 6 -2 24l1 121l3 6q-2 27 -15 70q-6 10 -29 16q82 84 213 84q103 0 159 -60q36 -38 35 -61z" />
    <glyph glyph-name="rho" unicode="&#x3c1;" 
 />
    <glyph glyph-name="sigma1" unicode="&#x3c2;" 
 />
    <glyph glyph-name="sigma" unicode="&#x3c3;" 
 />
    <glyph glyph-name="tau" unicode="&#x3c4;" 
 />
    <glyph glyph-name="upsilon" unicode="&#x3c5;" 
 />
    <glyph glyph-name="phi" unicode="&#x3c6;" 
 />
    <glyph glyph-name="chi" unicode="&#x3c7;" 
 />
    <glyph glyph-name="psi" unicode="&#x3c8;" 
 />
    <glyph glyph-name="omega" unicode="&#x3c9;" 
 />
    <glyph glyph-name="iotadieresis" unicode="&#x3ca;" 
 />
    <glyph glyph-name="upsilondieresis" unicode="&#x3cb;" 
 />
    <glyph glyph-name="omicrontonos" unicode="&#x3cc;" 
 />
    <glyph glyph-name="upsilontonos" unicode="&#x3cd;" 
 />
    <glyph glyph-name="omegatonos" unicode="&#x3ce;" 
 />
    <glyph glyph-name="uni0401" unicode="&#x401;" horiz-adv-x="540" 
d="M528 815q-7 -51 -64 -146h-6q-5 44 -40.5 71t-80.5 27q-43 0 -84 -36q-35 -31 -57.5 -75t-22.5 -48q0 -8 6 -12h223q-19 -31 -56 -75q-7 29 -65 29q-6 0 -19 -1t-19 -1q-68 0 -75 -4q-22 -9 -22 -63q0 -163 83 -292q88 -137 239 -180l6 -7q-112 2 -219 71
q-102 65 -163 165q-6 15 -19 44q-9 12 -22 39q-34 94 -34 216q0 49 40.5 140.5t40.5 79.5q0 15 -17.5 23.5t-33.5 7.5v13h446q14 0 35 14zM217 852q0 -15 -12 -24.5t-28 -9.5q-39 0 -39 34q0 16 11.5 26t27.5 10t28 -10t12 -26zM429 856q0 -15 -11.5 -24.5t-27.5 -9.5
q-39 0 -39 34q0 16 11.5 26t27.5 10t27.5 -10t11.5 -26z" />
    <glyph glyph-name="uni0402" unicode="&#x402;" 
 />
    <glyph glyph-name="uni0403" unicode="&#x403;" horiz-adv-x="593" 
d="M35 656q12 43 63 90q48 44 94 57q28 8 78 8q172 0 291 -90q17 -13 21 -29l-8 12q-52 -7 -52 -52v-527q0 3 8 -61l6 -14q23 -16 34 -24l-206 2q33 17 37 22q17 22 15 141l-7 406q-1 81 -35 110q19 18 60 20q57 2 64 4q-9 20 -54 29q-27 5 -65 11q-2 0 -7.5 3t-9.5 3
q-20 0 -91 -29q-20 -8 -57.5 -46t-37.5 -55q0 -12 49 -36q95 -46 139 -97q-102 0 -138 -136q-14 -17 -36 -98q-27 -100 -49 -157q-37 -99 -84 -154q33 66 52 208q16 117 16 216q0 87 -12 125q-3 9 -12.5 17t-18.5 15l151 4l-16 15q-149 76 -182 73l-10 -1z" />
    <glyph glyph-name="uni0404" unicode="&#x404;" horiz-adv-x="561" 
d="M541 653q-2 2 -8 2q-14 0 -72 -48l-75 -62q-28 -4 -84 -31.5t-83 -32.5q2 8 57 45q36 24 69 45q9 8 33 42.5t24 41.5q0 24 -70 85q-44 38 -122 38q-57 0 -121 -38l-2 -7q62 -1 71 -2q43 -5 63 -29q-38 -15 -39 -87l-4 -474v-78l50 -32q-10 0 -29.5 -1.5t-29.5 -1.5
q-34 0 -78 2t-78 4q50 14 50 57q0 298 4 302q-2 10 -2 30l1 159q0 3 2 4t2 3q0 16 -6 49t-13 43.5t-38 19.5q107 109 277 109q133 0 207 -78q45 -48 44 -79z" />
    <glyph glyph-name="uni0405" unicode="&#x405;" horiz-adv-x="561" 
d="M550 576q-36 -34 -46 -117q-19 -157 -88 -269q-86 -139 -223 -151q-7 -1 -30 -5q-19 -4 -30 -4l-120 4q50 14 50 57q0 298 4 302q-2 9 -2 30l1 159q0 3 2 4t2 3q0 16 -6 49t-13 43.5t-38 19.5q107 109 277 109q133 0 207 -78q45 -48 44 -79q-2 2 -8 2q-14 0 -74 -33
t-66 -44q2 -6 10 -6q7 0 22 2t22 2h103zM413 394q0 142 -102 142q-11 0 -76 -12q1 6 84 62t83 69t-29 45q-48 53 -99 68q-35 10 -64 10q-57 0 -121 -38l-2 -7q62 -1 71 -2q43 -5 63 -29q-38 -15 -39 -87l-4 -474q0 -58 10 -65q67 9 121.5 53t73.5 108q30 103 30 157z" />
    <glyph glyph-name="uni0406" unicode="&#x406;" horiz-adv-x="569" 
d="M23 797h129l2 -8q-27 -16 -35 -30t-8 -45v-141h10q113 154 306 234q17 7 20 9q21 0 106 -119q-24 2 -42 -4q-25 -8 -25 -29l5 -350v-128q1 -91 10 -121q3 -10 21 -20t19 -12h-137q1 4 16 13t18 15q13 27 13 90l-1 218q-2 163 -3 217q-1 79 -16 79q2 0 -30 -13
q-117 -48 -196 -148q-85 -108 -85 -228q0 -151 89 -290q-70 57 -108 169q-33 96 -33 200v380q0 45 -50 54z" />
    <glyph glyph-name="uni0407" unicode="&#x407;" horiz-adv-x="569" 
d="M23 797h129l2 -8q-27 -16 -35 -30t-8 -45v-141h10q113 154 306 234q17 7 20 9q21 0 106 -119q-24 2 -42 -4q-25 -8 -25 -29l5 -350v-128q1 -91 10 -121q3 -10 21 -20t19 -12h-137q1 4 16 13t18 15q13 27 13 90l-1 218q-2 163 -3 217q-1 79 -16 79q2 0 -30 -13
q-117 -48 -196 -148q-85 -108 -85 -228q0 -151 89 -290q-70 57 -108 169q-33 96 -33 200v380q0 45 -50 54zM278 755q13 18 13 45q0 36 -22 59q-10 11 -30 15l72 73q25 -6 39.5 -30t14.5 -50q0 -31 -18 -50l-71 -70l-5 -5l-3 3z" />
    <glyph glyph-name="uni0408" unicode="&#x408;" horiz-adv-x="602" 
d="M594 60l-24 -11l-54 -23q-10 -4 -62 -28q-4 20 -13 37l-137 254q-5 8 -54 95l-65 -69q-3 0 -32 -31q-64 -69 -64 -129q0 -30 19.5 -53t48.5 -26q-1 -4 4 -4q3 0 4.5 1l1.5 1q-16 -11 -49 -31q-49 -30 -58 -30q-14 0 -28 27q-12 22 -13 29q-6 34 -2 56q-1 1 -1 5q0 6 2 20
q9 23 29 68q36 64 120 140q2 2 60 77q-4 9 -55 104q-26 48 -97 180q-3 4 -21 20l-19 17l-18 8l24 11l53 23q10 4 63 28q4 -20 13 -37l137 -254q6 -11 11 -11q4 0 33 31q63 68 63 129q0 30 -19 53t-49 26q1 3 -4 3h-4q-1 -1 -2 -1q25 16 49 31q48 30 59 30q14 0 28 -27
q10 -19 12 -29q6 -34 3 -56q1 -4 -2 -25q-13 -37 -29 -68q-32 -62 -120 -140q-7 -6 -7 -13q39 -60 110 -183q39 -75 97 -180q3 -4 21 -20l19 -17z" />
    <glyph glyph-name="uni0409" unicode="&#x409;" 
 />
    <glyph glyph-name="uni040A" unicode="&#x40a;" 
 />
    <glyph glyph-name="uni040B" unicode="&#x40b;" 
 />
    <glyph glyph-name="uni040C" unicode="&#x40c;" 
 />
    <glyph glyph-name="uni040E" unicode="&#x40e;" 
 />
    <glyph glyph-name="uni040F" unicode="&#x40f;" 
 />
    <glyph glyph-name="uni0410" unicode="&#x410;" horiz-adv-x="587" 
d="M572 800l-3 -4q-43 -15 -45 -103l-10 -545q-2 -95 26 -107q10 -4 22 -13h-219l1 7q14 1 20 6q25 20 30 68q2 19 5 79q5 21 5 39l4 320h-13q-13 1 -24 1h-56q-102 0 -115 -21q5 30 34 75q26 -9 148 -9q31 0 31 51v22q0 5 -1 12v7q0 48 -13 64q-129 -4 -218 -160
q-78 -136 -78 -276q0 -167 112 -336q1 -3 7 -18q-52 34 -106 111q-52 73 -73 136q-7 22 -16 84t-9 88q0 109 25 182q6 18 57 104q48 81 48 85q0 36 -47 43l-1 8h472z" />
    <glyph glyph-name="uni0411" unicode="&#x411;" horiz-adv-x="581" 
d="M0 748q1 1 10 -7.5t10 -8.5q7 0 16 -21q12 -27 15 -30q13 -18 13 -139l-1 -451q0 -43 -50 -57l120 -4q58 -2 150 16q151 29 208 71q81 60 81 198q-19 86 -23 98q-18 52 -93 110q-71 56 -139 75q-66 -33 -134 -71q84 -29 120 -44q75 -31 107 -60q91 -81 91 -172
q0 -6 -12 -34q-38 -89 -124 -113q-47 -13 -177 -28q-10 8 -10 65l4 474q1 61 46 99q31 26 151 26q82 0 160 -102q13 -21 18 -32q8 -7 18 -22l-27 93q-8 78 -16 128q-17 -17 -40 -17q-9 0 -40.5 3t-33 2t-43 5.5t-44.5 8.5q-23 0 -61 1h-56q-70 0 -113 -10q-55 -14 -101 -50z
" />
    <glyph glyph-name="uni0412" unicode="&#x412;" horiz-adv-x="581" 
d="M572 315q0 -138 -81 -198q-57 -42 -208 -71q-92 -18 -150 -16l-120 4q50 14 50 57l1 451q0 79 -1 90q-8 68 -44 68q-4 0 -8 -2q144 113 358 113q68 0 119 -50q5 -5 29 -47.5t24 -46.5v-14q-2 2 -8 2q-14 0 -74 -32.5t-66 -44.5q118 -57 156 -165q4 -12 23 -98zM501 251
q0 91 -91 172q-74 66 -175 101q2 7 37 31q64 45 81 58q41 32 73 69q-20 38 -34 50q-20 16 -59 16q-63 0 -105 -34q-45 -37 -46 -99l-4 -474q0 -57 10 -65q75 9 89 10q51 8 88 18q86 24 124 113q12 28 12 34z" />
    <glyph glyph-name="uni0413" unicode="&#x413;" horiz-adv-x="517" 
d="M494 608q0 18 -89 192h-13l7 -4q-5 -9 -19 -21q-30 -12 -198 -13h-173q63 -21 65 -127l7 -460q0 -140 -30 -157q-11 -5 -28 -21h225q-53 33 -54 118l-7 479q-1 64 14 94q21 41 80 41q61 0 122 -41q54 -36 91 -92v12z" />
    <glyph glyph-name="uni0414" unicode="&#x414;" horiz-adv-x="676" 
d="M652 525q0 -85 -54 -210q-3 -10 -19 -44q-60 -95 -192 -169t-243 -74h-134v11l26 10q28 11 29 90l7 444l-8 88q-22 27 -53 27q62 48 149.5 80t163.5 32q237 0 327 -112q-19 -1 -26 -17q27 -96 27 -156zM525 480q1 2 1 8q0 104 -36 175q-47 92 -141 92q-90 0 -126.5 -36.5
t-36.5 -127.5v-279q0 -52 -4 -231q-1 -25 27 -25q16 0 72 28q109 55 176.5 164.5t67.5 231.5z" />
    <glyph glyph-name="uni0415" unicode="&#x415;" horiz-adv-x="540" 
d="M528 815q-7 -51 -64 -146h-6q-5 44 -40.5 71t-80.5 27q-43 0 -84 -36q-35 -31 -57.5 -75t-22.5 -48q0 -8 6 -12h223q-19 -31 -56 -75q-7 29 -65 29q-6 0 -19 -1t-19 -1q-68 0 -75 -4q-22 -9 -22 -63q0 -163 83 -292q88 -137 239 -180l6 -7q-112 2 -219 71
q-102 65 -163 165q-6 15 -19 44q-9 12 -22 39q-34 94 -34 216q0 49 40.5 140.5t40.5 79.5q0 15 -17.5 23.5t-33.5 7.5v13h446q14 0 35 14z" />
    <glyph glyph-name="uni0416" unicode="&#x416;" horiz-adv-x="951" 
d="M418 720q0 33 -12 45l-36 26l2 6h213v-11q-51 -9 -51 -102q0 1 2 -53q1 -31 -2 -52q7 -6 12 -6q39 0 108.5 69.5t69.5 107.5q0 20 -41 38v11l210 1q-41 -22 -86 -70q-25 -28 -77 -83q-28 -20 -77 -68q28 0 70.5 -24t55.5 -26q51 -40 77 -69q38 -41 54 -89q4 -11 23 -98
q0 -194 -187 -318q116 149 116 254q0 87 -93 193q-96 108 -182 108q-22 0 -38.5 -13.5t-16.5 -34.5l-2 -270q-1 -112 14 -137q5 -9 20 -16.5t16 -11.5h-221v8q42 18 51 44q6 15 6 70l2 304q-3 13 -16 35q-17 13 -39 13q-86 0 -180.5 -107t-94.5 -194q0 -105 116 -254
q-187 124 -187 318q19 87 23 98q16 48 54 89q26 29 77 69q13 2 57 27q41 23 69 23q-49 48 -77 68q-26 28 -77 83q-45 48 -86 70l210 -1v-11q-41 -18 -41 -38q0 -38 69.5 -107.5t108.5 -69.5q5 0 12 6z" />
    <glyph glyph-name="uni0417" unicode="&#x417;" horiz-adv-x="581" 
d="M13 34l120 -4q58 -2 150 16q151 29 208 71q81 60 81 198q-19 86 -23 98q-38 108 -156 165q6 12 66 44.5t74 32.5q6 0 8 -2v14q0 4 -24 46.5t-29 47.5q-51 50 -119 50q-214 0 -358 -113q4 2 8 2q9 0 62 -25.5t60 -34.5q33 27 90 62q74 46 102 46q39 0 59 -16
q14 -12 34 -50q-32 -37 -73 -69q-17 -13 -81 -58q-35 -24 -37 -31q101 -35 175 -101q91 -81 91 -172q0 -6 -12 -34q-38 -89 -124 -113q-47 -13 -177 -28l-105 53q-14 -26 -29 -53q-21 -36 -41 -42z" />
    <glyph glyph-name="uni0418" unicode="&#x418;" horiz-adv-x="572" 
d="M551 803q-19 -6 -32 -31.5t-13 -48.5l-5 -531q-1 -140 31 -147l14 -11h-119q-66 0 -156 45q-119 60 -189 180t-70 256q0 84 23 144l22 52q14 34 14 52q0 29 -17 30l-14 10l228 -2q-62 -29 -107 -149q-39 -103 -39 -186q0 -129 64 -236q71 -116 188 -150q11 11 11 49
l-1 612q0 33 -40 61h103q34 0 70 1h34z" />
    <glyph glyph-name="uni0419" unicode="&#x419;" horiz-adv-x="572" 
d="M551 803q-19 -6 -32 -31.5t-13 -48.5l-5 -531q-1 -140 31 -147l14 -11h-119q-66 0 -156 45q-119 60 -189 180t-70 256q0 84 23 144l22 52q14 34 14 52q0 29 -17 30l-14 10l228 -2q-62 -29 -107 -149q-39 -103 -39 -186q0 -129 64 -236q71 -116 188 -150q11 11 11 49
l-1 612q0 33 -40 61zM278 755q13 18 13 45q0 36 -22 59q-10 11 -30 15l72 73q25 -6 39.5 -30t14.5 -50q0 -31 -18 -50l-71 -70l-5 -5l-3 3z" />
    <glyph glyph-name="uni041A" unicode="&#x41a;" horiz-adv-x="598" 
d="M582 273q0 -194 -187 -318q116 149 116 254q0 87 -93 193q-96 108 -182 108q-22 0 -38.5 -13.5t-16.5 -34.5l-2 -270q-1 -112 14 -137q5 -9 20 -16.5t16 -11.5h-221v8q42 18 51 44q6 16 6 70l2 571q0 33 -12 45l-36 26l2 6h213v-11q-51 -9 -51 -102q0 1 2 -53
q1 -31 -2 -52q7 -6 12 -6q39 0 108.5 69.5t69.5 107.5q0 20 -41 38v11l210 1q-41 -22 -86 -70q-25 -28 -77 -83q-28 -20 -77 -68q28 0 70.5 -24t55.5 -26q51 -40 77 -69q38 -41 54 -89q4 -11 23 -98z" />
    <glyph glyph-name="uni041B" unicode="&#x41b;" horiz-adv-x="587" 
d="M413 666q0 5 -1 12v7q0 48 -13 64q-129 -4 -218 -160q-78 -136 -78 -276q0 -167 112 -336q1 -3 7 -18q-52 34 -106 111q-52 73 -73 136q-7 22 -16 84t-9 88q0 109 25 182q6 18 57 104q48 81 48 85q0 36 -47 43l-1 8h472l-3 -4q-43 -15 -45 -103l-10 -545q-2 -95 26 -107
q10 -4 22 -13h-219l1 7q14 1 20 6q25 20 30 68q2 19 5 79q5 21 5 39l4 320q0 1 2.5 57.5t2.5 61.5z" />
    <glyph glyph-name="uni041C" unicode="&#x41c;" horiz-adv-x="668" 
d="M652 799l-2 -8q-50 -4 -52 -119l-7 -529q-1 -39 5 -64q10 -46 35 -42l7 -7h-218q36 28 41 36q12 17 13 55l11 482q0 21 -7 54q-10 0 -88 -112q-31 -45 -92 -135l-158 247l-11 -6v-5q0 -22 -3 -62q-4 -43 -4 -63l-5 -374q0 -103 42 -104v-9h-133q12 4 33 19q17 20 18 102
l8 522q0 65 -49 65q-8 0 -27 -3q40 31 161 82l166 -254h9q66 83 144 226q4 7 11 7h26q28 -1 50 -1h76z" />
    <glyph glyph-name="uni041D" unicode="&#x41d;" horiz-adv-x="593" 
d="M580 799l-1 -6h-3q-49 0 -50 -116l-4 -591q0 -31 21 -44q26 -16 27 -18h-219q9 7 28 21q24 20 24 62v439h-220v-467q0 -14 13 -29.5t27 -14.5l8 -11h-219q5 2 22 13q29 19 30 77l8 527q0 52 -13 116q-2 12 -17 23q-19 15 -23 19h222l-5 -7h-3q-23 0 -36 -47
q-10 -36 -10 -66v-81l223 2q-2 14 -3 34v0q-1 82 -3 94q-9 52 -46 71h222z" />
    <glyph glyph-name="uni041E" unicode="&#x41e;" horiz-adv-x="669" 
d="M651 698q-34 -1 -43 -36q-2 -6 -6 -65q-1 -31 -6 -93q-11 -96 -59 -210q-44 -105 -106 -191q-11 -16 -55 -58q-47 -46 -56 -46q-12 0 -67 68q-49 60 -62 84q-29 53 -51 114q-32 90 -43 127q-18 66 -23 133l-10 146q-22 27 -53 27q62 48 149.5 80t163.5 32q91 0 131 -8
q33 -7 85 -27q67 -40 74.5 -40t36.5 -37zM477 520q0 95 -24 157q-35 89 -115 89t-123 -59q-31 -66 -31 -179q0 -125 13 -205q18 -102 64 -195q9 -18 28 -45q23 -33 34 -33q8 0 41 33q20 20 26 30q54 84 73 196q14 80 14 211z" />
    <glyph glyph-name="uni041F" unicode="&#x41f;" horiz-adv-x="593" 
d="M233 792h3l5 7h-222q4 -4 23 -19q15 -11 17 -23q13 -64 13 -116q0 5 -8 -527q-1 -58 -30 -77q-18 -12 -22 -13h219l-8 11q-14 -1 -27 14.5t-13 29.5l-4 690l225 2l-1 -664q0 -42 -24 -62q-8 -7 -28 -21h219q-1 2 -27 18q-21 13 -21 44l4 591q1 116 50 116h3l1 6h-339z
" />
    <glyph glyph-name="uni0420" unicode="&#x420;" horiz-adv-x="604" 
d="M596 699q-14 -17 -37 -36q-32 -27 -142 -107q-28 -4 -96 -35q-72 -34 -102 -40q2 8 57 45q36 24 69 45q10 8 42 46t33 45l23 33q-35 50 -44 57q-21 16 -73 16q-69 0 -106 -42t-38 -111l-4 -474v-78l50 -32q-10 0 -29 -1.5t-29 -1.5q-35 0 -79 2t-78 4q50 14 50 57l-1 309
q0 10 2 29.5t2 29.5v128q0 113 -47 113q-4 0 -8 -2q144 113 357 113q134 0 181 -65q16 -22 47 -47z" />
    <glyph glyph-name="uni0421" unicode="&#x421;" horiz-adv-x="540" 
d="M528 815q-7 -51 -64 -146h-6q-5 44 -40.5 71t-80.5 27q-88 0 -145 -117q-47 -96 -47 -194q0 -149 90 -276q92 -131 233 -171l6 -7q-111 1 -219 71q-103 66 -163 165q-6 15 -19 44q-9 12 -22 39q-34 92 -34 216q0 49 40.5 140.5t40.5 79.5q0 15 -17.5 23.5t-33.5 7.5v13
h446q14 0 35 14z" />
    <glyph glyph-name="uni0422" unicode="&#x422;" horiz-adv-x="567" 
d="M551 610q-8 8 -18 22q-5 11 -18 32q-78 102 -160 102q-11 0 -18 -40q-6 -34 -6 -51l-3 -455q0 -116 8 -158q2 -12 47 -34h-226q54 16 55 89l6 411q0 4 3.5 12.5t3.5 13.5q0 6 -2 6q-1 0 -3 -2q-1 5 -4 70q-2 51 -9 63q-4 7 -26 29h8q20 0 88 31v12q-8 3 -22 3
q-163 0 -241 -151q15 67 34 202l8 7q4 -12 22 -19.5t33 -7.5h311q5 0 10 5q3 1 28 1q20 0 48 28q8 -50 16 -128v1l2 -6l7 -23z" />
    <glyph glyph-name="uni0423" unicode="&#x423;" horiz-adv-x="546" 
d="M385 299q2 -8 -87.5 -157.5t-88.5 -156.5l-42 -155q48 68 141 238q79 146 124 242q96 203 96 322q0 91 -46 162q-19 30 -29 30q-3 0 -56 -27l-64 -32q63 -15 98 -88q29 -60 29 -134q0 -64 -27 -117q3 4 3 5q0 2 -2 2l-29 -8.5t-52 -8.5q-74 0 -98 85q-69 241 -69 266
q0 18 38 32q-23 3 -75 3q-15 0 -137 -4q1 -5 19.5 -16t23.5 -20q26 -47 46 -131q11 -46 32 -138q0 -1 15 -44q34 -100 92 -115q50 -11 112 -13q38 -2 38 -10q0 -4 -5 -12z" />
    <glyph glyph-name="uni0424" unicode="&#x424;" horiz-adv-x="908" 
d="M14 753q47 65 181 65q96 0 126 -9q52 -24 103 -47q58 32 114 42q46 8 135 8q134 0 181 -65q16 -22 47 -47q-14 -17 -37 -36q-32 -27 -142 -107q-28 -4 -96 -35q-72 -34 -102 -40q2 8 57 45q36 24 69 45q10 8 42 46t33 45l23 33q-35 50 -44 57q-21 16 -73 16
q-69 0 -106 -42t-38 -111l-4 -474v-78l50 -32q-10 0 -29 -1.5t-29 -1.5q-35 0 -79 2t-78 4q50 14 50 57l-1 309q0 10 2 29.5t2 29.5v128q0 19 4 52q2 17 -4 24q-53 60 -59 66q-46 45 -75 45q-52 0 -73 -16q-9 -7 -44 -57l23 -33q1 -7 33 -45t42 -46q33 -21 69 -45
q55 -37 57 -45q-30 6 -102 40q-68 31 -96 35q-96 70 -163 126z" />
    <glyph glyph-name="uni0425" unicode="&#x425;" horiz-adv-x="602" 
d="M594 60l-24 -11l-54 -23q-10 -4 -62 -28q-4 20 -13 37l-137 254q-5 8 -54 95l-65 -69q-3 0 -32 -31q-64 -69 -64 -129q0 -30 19.5 -53t48.5 -26q-1 -4 4 -4q3 0 4.5 1l1.5 1q-16 -11 -49 -31q-49 -30 -58 -30q-14 0 -28 27q-12 22 -13 29q-6 34 -2 56q-1 1 -1 5q0 6 2 20
q9 23 29 68q36 64 120 140q2 2 60 77q-4 9 -55 104q-26 48 -97 180q-3 4 -21 20l-19 17l-18 8l24 11l53 23q10 4 63 28q4 -20 13 -37l137 -254q6 -11 11 -11q4 0 33 31q63 68 63 129q0 30 -19 53t-49 26q1 3 -4 3h-4q-1 -1 -2 -1q25 16 49 31q48 30 59 30q14 0 28 -27
q10 -19 12 -29q6 -34 3 -56q1 -4 -2 -25q-13 -37 -29 -68q-32 -62 -120 -140q-7 -6 -7 -13q39 -60 110 -183q39 -75 97 -180q3 -4 21 -20l19 -17z" />
    <glyph glyph-name="uni0426" unicode="&#x426;" horiz-adv-x="572" 
d="M538 -29q11 -35 29 -82q2 -3 10.5 -29.5t8.5 -30.5v-11h-369q-61 153 -61 158v12q6 -15 34.5 -33t45.5 -18h252q10 0 9 8q-10 26 -12 37v0v0q-2 7 0 7q1 0 2 -2l2 -4q-6 7 -32 53l-30 -2q-58 -4 -156 45q-119 60 -189 180t-70 256q0 84 23 144l22 52q14 34 14 52
q0 29 -17 30l-14 10l228 -2q-62 -29 -107 -149q-39 -103 -39 -186q0 -129 64 -236q71 -116 188 -150q11 11 11 49l-1 612q0 33 -40 61h103q34 0 70 1h34q-19 -6 -32 -31.5t-13 -48.5l-5 -531q-1 -96 10 -159q5 -8 27 -62z" />
    <glyph glyph-name="uni0427" unicode="&#x427;" horiz-adv-x="572" 
d="M402 302q-5 1 -16 1q-23 0 -96 -9q-69 -8 -86 -7q-44 3 -106 42q-56 35 -63 55q-15 42 -23 131q-1 12 -1 24q0 63 46 172q14 33 14 52q0 29 -17 30l-14 10l228 -2q-62 -29 -107 -149q-42 -111 -39 -186q1 -34 14 -55q1 -2 32 -40q13 -16 77 -16q106 0 140 22zM374 80
q11 11 11 49l-1 612q0 33 -40 61h103q34 0 70 1h34q-19 -6 -32 -31.5t-13 -48.5l-5 -531q-1 -140 31 -147l14 -11h-119q-88 0 -92 1q5 -2 19.5 22.5t19.5 22.5z" />
    <glyph glyph-name="uni0428" unicode="&#x428;" horiz-adv-x="905" 
d="M241 24h-222q4 5 23 19q15 11 17 23q13 64 13 116q0 -6 -8 527q-1 58 -30 77q-18 12 -22 13h219l-8 -11q-14 1 -27 -14.5t-13 -29.5l-2 -680l225 -2l-3 654q0 42 -24 62q-8 7 -28 21h219q-1 -2 -27 -18q-21 -13 -21 -44l4 -591q-1 -32 5 -84q2 -7 84 -7h95l-1 664
q0 42 -24 62q-8 7 -28 21h219q-1 -2 -27 -18q-21 -13 -21 -44l4 -591q1 -116 50 -116h3l1 -11l-219 2h-426z" />
    <glyph glyph-name="uni0429" unicode="&#x429;" horiz-adv-x="905" 
d="M241 24h-222q5 5 23 19q15 11 17 23q13 64 13 116q0 -6 -8 527q-1 58 -30 77q-18 12 -22 13h219l-8 -11q-14 1 -27 -14.5t-13 -29.5l-2 -680l225 -2l-3 654q0 42 -24 62q-8 7 -28 21h219q-1 -2 -27 -18q-21 -13 -21 -44l4 -591q-1 -32 5 -84q2 -7 84 -7h95l-1 664
q0 42 -24 62q-8 7 -28 21h219q-1 -2 -27 -18q-21 -13 -21 -44l4 -591q-4 -51 -2 -122q5 -8 27 -62q11 -35 29 -82q2 -3 10.5 -29.5t8.5 -30.5v-11h-735q-61 153 -61 158v12q6 -15 34.5 -33t45.5 -18h618q10 0 9 8q-10 26 -12 37v0v0q-2 7 0 7q1 0 2 -2l2 -4q-6 7 -32 53
l-30 -2zM667 24z" />
    <glyph glyph-name="uni042A" unicode="&#x42a;" horiz-adv-x="744" 
d="M72 796l-72 -133q23 20 95 20q41 0 80 -6t44 -12q8 -11 8 -123l-1 -451q0 -43 -50 -57l120 -4q58 -2 150 16q151 29 208 71q81 60 81 198q-19 86 -23 98q-38 108 -156 165l-3 3l-32 -8q-37 -9 -86 -18q-18 -13 -37 -31q101 -35 175 -101q91 -81 91 -172q0 -6 -12 -34
q-38 -89 -124 -113q-47 -13 -177 -28q-10 8 -10 65l4 474q1 61 46 99q-19 14 -143 43q-88 19 -176 39z" />
    <glyph glyph-name="uni042B" unicode="&#x42b;" horiz-adv-x="784" 
d="M22 788q29 -57 34 -123q8 -105 8 -123l-1 -451q0 -43 -50 -57l120 -4q58 -2 150 16q151 29 208 71q81 60 81 198q-19 86 -23 98q-38 108 -156 165l-3 3l-32 -8q-37 -9 -86 -18q-18 -13 -37 -31q101 -35 175 -101q91 -81 91 -172q0 -6 -12 -34q-38 -89 -124 -113
q-47 -13 -177 -28q-10 8 -10 65l4 474q0 44 9 93q12 64 32 80h-201zM765 800q-17 -9 -24 -14q-13 -11 -16 -21q-14 -56 -14 -92l-3 -586q0 -41 47 -62h-218q4 2 21 13q29 19 30 77l8 516q0 71 -13 127q-3 11 -17 23q-21 17 -23 19h222z" />
    <glyph glyph-name="uni042C" unicode="&#x42c;" horiz-adv-x="581" 
d="M123 798q-25 -26 -49 -51q-50 -50 -55 -47q19 -12 37 -35q8 -11 8 -123l-1 -451q0 -43 -50 -57l120 -4q58 -2 150 16q151 29 208 71q81 60 81 198q-19 86 -23 98q-38 108 -156 165l-3 3l-32 -8q-37 -9 -86 -18q-18 -13 -37 -31q101 -35 175 -101q91 -81 91 -172
q0 -6 -12 -34q-38 -89 -124 -113q-47 -13 -177 -28q-10 8 -10 65l4 474q1 61 46 99l-52 34q-33 22 -53 50z" />
    <glyph glyph-name="uni042D" unicode="&#x42d;" horiz-adv-x="540" 
d="M17 815q7 -51 64 -146h6q5 44 40.5 71t80.5 27q43 0 84 -36q35 -31 57.5 -75t22.5 -48q0 -8 -6 -12h-223q19 -31 56 -75q7 29 65 29q6 0 19 -1t19 -1q68 0 75 -4q22 -9 22 -63q0 -163 -83 -292q-88 -137 -239 -180l-6 -7q112 2 219 71q102 65 163 165q6 15 19 44
q9 12 22 39q34 94 34 216q0 49 -40.5 140.5t-40.5 79.5q0 15 19 24q16 8 32 7v13h-446q-14 0 -35 14z" />
    <glyph glyph-name="uni042E" unicode="&#x42e;" horiz-adv-x="861" 
d="M851 698q-34 -1 -43 -36q-2 -6 -6 -65q-1 -31 -6 -93q-11 -96 -59 -210q-44 -105 -106 -191q-11 -16 -55 -58q-47 -46 -56 -46q-12 0 -67 68q-49 60 -62 84q-29 53 -51 114q-32 90 -43 127q-18 66 -23 133l-10 146q-22 27 -53 27q62 48 149.5 80t163.5 32q91 0 131 -8
q33 -7 85 -27q67 -40 74.5 -40t36.5 -37zM677 520q0 95 -24 157q-35 89 -115 89t-123 -59q-31 -66 -31 -179q0 -125 14 -205q17 -102 63 -195q9 -18 28 -45q23 -33 34 -33q8 0 42 34q19 19 25 29q54 84 73 196q14 80 14 211zM238 800q-17 -9 -24 -14q-13 -11 -16 -21
q-14 -56 -14 -92l-3 -586q0 -41 47 -62h-218q4 2 21 13q29 19 30 77l8 516q0 71 -13 127q-3 11 -17 23q-21 17 -23 19h222zM176 491q139 0 156 -1l11 -71q-37 2 -105 0q-90 -2 -113 -2z" />
    <glyph glyph-name="uni042F" unicode="&#x42f;" horiz-adv-x="593" 
d="M25 641l10 1q33 3 182 -73l16 -15l-151 -4q9 -7 18.5 -15t12.5 -17q12 -38 12 -125q0 -99 -16 -216q-19 -142 -52 -208q47 55 84 154q22 57 49 157q22 81 36 98q36 136 138 136q-44 51 -139 97q-49 24 -49 36q0 17 39 56q36 37 56 45q71 29 91 29q4 0 9.5 -3t7.5 -3
q38 -6 65 -11q45 -9 54 -29q-7 -2 -64 -4q-41 -2 -60 -20q34 -29 35 -110l7 -406q2 -119 -15 -141q-4 -5 -37 -22l206 -2q-11 8 -34 24l-6 14q-8 64 -8 61v527q0 45 52 52l8 -12q-4 16 -21 29q-119 90 -291 90q-50 0 -78 -8q-46 -13 -94 -57q-51 -47 -63 -90z" />
    <glyph glyph-name="uni0430" unicode="&#x430;" horiz-adv-x="452" 
d="M440 616l-2 -3q-33 -12 -34 -80l-8 -419q-1 -73 20 -82q5 -2 17 -11h-169l1 6q44 3 46 148l4 246q-55 1 -85 1q-67 -1 -76 -16q4 23 27 58q19 -7 113 -7q21 0 24 27q-1 -5 -1 44q0 36 -10 49q-99 -3 -168 -124q-60 -105 -60 -212q0 -128 86 -259q1 -1 6 -14
q-72 48 -116 142q-41 89 -41 181q0 85 19 140q5 15 44 81q37 63 37 65q0 27 -36 33l-1 6h363z" />
    <glyph glyph-name="uni0431" unicode="&#x431;" horiz-adv-x="447" 
d="M392 519q11 -17 25 -34v119q-21 3 -43 7q-57 14 -90 14q-165 0 -275 -87q2 1 6 1q27 0 33 -52q1 -9 1 -69v-348q0 -33 -39 -44l93 -3q45 -1 115 12q116 22 160 55q62 46 62 152l-17 76q-29 83 -121 127q-20 1 -72 -19q-48 -19 -49 -23q78 -26 135 -77q70 -62 70 -133
q0 -34 -35 -68.5t-70 -44.5q-89 -17 -136 -21q-8 6 -8 50l3 364q0 48 35 76q32 27 81 27q19 0 49 -3q15 -2 26 -6q28 -8 34 -21z" />
    <glyph glyph-name="uni0432" unicode="&#x432;" horiz-adv-x="447" 
d="M440 242q0 -106 -62 -152q-44 -33 -160 -55q-70 -13 -115 -12l-93 3q39 11 39 44v348q0 60 -1 69q-6 52 -33 52q-4 0 -6 -1q110 87 275 87q53 0 92 -39q3 -3 22 -36.5t19 -35.5v-11l-6 1q-11 0 -57.5 -25t-51.5 -34q92 -44 121 -127zM386 193q0 71 -70 133
q-57 51 -135 77q1 4 29 24q43 30 62 45q30 24 56 53q-15 30 -28 40.5t-44 10.5q-49 0 -81 -27q-35 -28 -35 -76l-3 -364q0 -44 8 -50q47 4 136 21q35 10 70 44.5t35 68.5z" />
    <glyph glyph-name="uni0433" unicode="&#x433;" horiz-adv-x="398" 
d="M381 468q0 14 -69 148h-10l5 -3q-4 -7 -14 -16q-21 -9 -151 -10h-135q49 -16 50 -98l5 -354q0 -106 -27 -123q-8 -6 -17 -14h173q-41 25 -42 91l-5 369q-1 49 11 72q16 32 61 32q46 0 94 -32q43 -28 71 -71v9z" />
    <glyph glyph-name="uni0434" unicode="&#x434;" horiz-adv-x="521" 
d="M502 404q0 -211 -204 -325q-102 -58 -187 -58h-103v9q29 14 36 28q5 11 6 49l5 342l-5 68q-18 21 -41 21q46 37 113.5 61.5t126.5 24.5q183 0 253 -86q-16 -5 -21 -13q21 -75 21 -121zM405 370q0 83 -27 139q-35 73 -109 73q-70 0 -98 -28.5t-28 -98.5v-214l-3 -178
l6 -14q5 -6 15 -6q13 0 56 22q84 43 136 127t52 178z" />
    <glyph glyph-name="uni0435" unicode="&#x435;" horiz-adv-x="416" 
d="M407 628q-6 -40 -50 -113h-5q-3 34 -30 55t-62 21q-65 0 -109 -86q-18 -35 -18 -37q0 -7 5 -9h172q-15 -24 -44 -58q-5 22 -50 22q-9 0 -26 1t-26 1q-52 0 -52 -54q0 -125 64 -225q68 -106 184 -139l5 -6q-87 2 -169 55q-77 50 -125 128l-15 33q-6 10 -17 30
q-26 71 -26 167q0 38 31 108t31 61q0 24 -39 24v10q34 0 102 -1.5t102 -1.5q145 0 167 14z" />
    <glyph glyph-name="uni0436" unicode="&#x436;" horiz-adv-x="725" 
d="M308 555q0 26 -8 34l-28 20l2 4h163v-8q-39 -7 -39 -78q0 -20 1 -41q1 -28 -1 -40q5 -5 9 -5q30 0 83.5 53.5t53.5 83.5q0 13 -31 29v8l161 1q-29 -15 -66 -54q-30 -32 -59 -64q-22 -15 -59 -52q33 0 93.5 -38t76.5 -68q45 -84 45 -130q0 -149 -144 -245q89 115 89 196
q0 67 -72.5 149.5t-138.5 82.5q-17 0 -29.5 -10.5t-12.5 -26.5l-2 -208q-1 -85 11 -105q4 -7 15.5 -13t11.5 -10h-170v7q32 14 39 34q5 11 5 53l1 246q-2 10 -12 27q-13 10 -30 10q-66 0 -138.5 -82.5t-72.5 -149.5q0 -81 89 -196q-144 96 -144 245q0 46 45 130
q16 30 76.5 68t93.5 38q-37 37 -59 52q-29 32 -59 64q-37 39 -66 54l161 -1v-8q-31 -16 -31 -29q0 -30 53.5 -83.5t83.5 -53.5q4 0 9 5z" />
    <glyph glyph-name="uni0437" unicode="&#x437;" horiz-adv-x="447" 
d="M92 471q-23 22 -53 54q-12 14 -24 14q-4 0 -6 -1q110 87 275 87q53 0 92 -39q3 -3 22 -36.5t19 -35.5v-11l-6 1q-11 0 -57.5 -25t-51.5 -34q92 -44 121 -127l17 -76q0 -106 -62 -152q-44 -33 -160 -55q-70 -13 -115 -12l-93 3q38 10 76 21q55 14 59 12q47 4 136 21
q35 10 70 44.5t35 68.5q0 71 -70 133q-57 51 -135 77q1 4 29 24q43 30 62 45q30 24 56 53q-15 30 -28 40.5t-44 10.5q-49 0 -82 -27z" />
    <glyph glyph-name="uni0438" unicode="&#x438;" horiz-adv-x="440" 
d="M424 618q-15 -4 -25 -24t-10 -37l-3 -409q-1 -108 24 -113l11 -9h-92q-51 0 -120 35q-93 47 -147 140q-53 90 -53 196q0 64 18 111q9 20 17 39q11 26 11 40q0 23 -13 23l-11 8l175 -1q-47 -23 -82 -115q-30 -79 -30 -143q0 -100 49 -182q54 -89 145 -116q8 9 8 39v471
q0 25 -31 46q103 0 159 1z" />
    <glyph glyph-name="uni0439" unicode="&#x439;" horiz-adv-x="440" 
d="M424 618q-15 -4 -25 -24t-10 -37l-3 -409q-1 -108 24 -113l11 -9h-92q-51 0 -120 35q-93 47 -147 140q-53 90 -53 196q0 64 18 111q9 20 17 39q11 26 11 40q0 23 -13 23l-11 8l175 -1q-47 -23 -82 -115q-30 -79 -30 -143q0 -100 49 -182q54 -89 145 -116q8 9 8 39v471
q0 25 -31 46q103 0 159 1zM221 602q14 18 14 45q0 36 -22 59q-11 11 -31 15l73 73q24 -5 38.5 -29.5t14.5 -50.5q0 -31 -18 -49l-71 -71q-2 -3 -5 -5l-3 3z" />
    <glyph glyph-name="uni043A" unicode="&#x43a;" horiz-adv-x="460" 
d="M448 210q0 -149 -144 -245q89 115 89 196q0 67 -72.5 149.5t-138.5 82.5q-17 0 -29.5 -10.5t-12.5 -26.5l-2 -208q-1 -85 11 -105q4 -7 15.5 -13t11.5 -10h-170v7q32 14 39 34q5 11 5 53l1 441q0 26 -8 34l-28 20l2 4h163v-8q-39 -7 -39 -78q0 -20 1 -41q1 -28 -1 -40
q5 -5 9 -5q30 0 83.5 53.5t53.5 83.5q0 13 -31 29v8l161 1q-29 -15 -66 -54q-30 -32 -59 -64q-22 -15 -59 -52q33 0 93.5 -38t76.5 -68q45 -84 45 -130z" />
    <glyph glyph-name="uni043B" unicode="&#x43b;" horiz-adv-x="452" 
d="M317 528q0 36 -10 49q-99 -3 -168 -124q-60 -105 -60 -212q0 -128 86 -259q1 -1 6 -14q-72 48 -116 142q-41 89 -41 181q0 85 19 140q5 15 44 81q37 63 37 65q0 27 -36 33l-1 6h363l-2 -3q-33 -12 -34 -80l-8 -419q-1 -73 20 -82q5 -2 17 -11h-169l1 6q44 3 46 148l4 246
q2 10 2 107z" />
    <glyph glyph-name="uni043C" unicode="&#x43c;" horiz-adv-x="514" 
d="M502 615l-1 -6q-40 -3 -41 -92l-5 -407q0 -29 4 -50q8 -35 27 -32l5 -5h-168q26 21 32 28q9 12 10 42l8 372q0 15 -5 41q-6 0 -67 -87l-72 -103l-121 190l-8 -5v-8q0 -16 -3 -46.5t-3 -45.5l-4 -288q0 -79 32 -80v-7h-102q9 3 25 15q13 15 14 78l6 402q0 50 -37 50
q-9 0 -21 -2q31 24 124 63l128 -195h7q61 77 111 173q3 6 8 6h20q21 -1 38 -1h59z" />
    <glyph glyph-name="uni043D" unicode="&#x43d;" horiz-adv-x="457" 
d="M447 615l-1 -4h-2q-38 0 -39 -90l-3 -455q0 -21 17 -34l20 -14h-168q10 8 21 16q18 17 18 49v338h-169v-360q0 -11 10.5 -23t20.5 -11l6 -9h-168q11 12 19 24q20 27 20 46l6 405q0 43 -10 90q-2 9 -13 18l-17 14h171l-4 -5h-3q-18 0 -28 -35q-7 -25 -7 -52v-62l172 1
q-2 10 -2 23v0q-2 67 -3 74q-6 41 -35 56h171z" />
    <glyph glyph-name="uni043E" unicode="&#x43e;" horiz-adv-x="515" 
d="M502 538q-28 -6 -34 -28l-4 -50q-1 -24 -5 -72q-18 -157 -127 -309q-8 -11 -42 -44q-37 -36 -44 -36q-9 0 -51 52q-39 48 -48 65q-52 93 -73 195q-12 58 -24 206q-18 21 -41 21q46 37 113.5 61.5t126.5 24.5q183 0 253 -86zM367 400v0q0 -21 2 -23q5 0 3 62q-2 67 -17 93
q-4 10 -21 37q-37 21 -74 21q-86 0 -110 -55q-10 -49 -10 -101q0 -17 1.5 -51.5t1.5 -51.5q0 -130 58 -232q34 -60 48 -60q7 0 26 19.5t25 28.5q67 106 67 313z" />
    <glyph glyph-name="uni043F" unicode="&#x43f;" horiz-adv-x="457" 
d="M276 615h-261l17 -14q11 -9 13 -18q10 -47 10 -90q0 -10 -6 -405q0 -29 -9 -42q-5 -10 -30 -28h168l-6 9q-11 -1 -21 11t-10 23l-1 531h173l-3 -509q0 -32 -18 -49q-11 -8 -21 -16h168l-20 14q-17 13 -17 34l3 455q1 90 39 90h2l1 4h-222h51z" />
    <glyph glyph-name="uni0440" unicode="&#x440;" horiz-adv-x="465" 
d="M459 538q-45 -51 -138 -110q-9 -5 -74.5 -30.5t-77.5 -27.5q34 26 77 58q75 56 77 82l18 25q-9 13 -20 34q-22 23 -70 23q-53 0 -82 -32.5t-29 -86.5l-3 -424l39 -25q-8 0 -23 -1.5t-23 -1.5q-17 0 -60 2l-60 3q39 11 39 44q0 47 1 142l1 239q0 88 -36 88q-4 0 -6 -1
q110 86 274 86q104 0 140 -50q13 -18 36 -36z" />
    <glyph glyph-name="uni0441" unicode="&#x441;" horiz-adv-x="416" 
d="M407 628q-6 -40 -50 -113h-5q-3 34 -30 55t-62 21q-70 0 -113 -93q-35 -75 -35 -154q0 -111 71 -209t177 -128l5 -6q-86 2 -167.5 54t-126.5 129l-15 33q-6 10 -17 30q-26 70 -26 167q0 38 31 108t31 61q0 24 -39 24v10q33 0 100 -1.5t100 -1.5q149 0 171 14z" />
    <glyph glyph-name="uni0442" unicode="&#x442;" horiz-adv-x="437" 
d="M424 470q-5 6 -14 17q-67 103 -136 103q-9 0 -15 -31q-4 -21 -4 -39l-3 -351q0 -92 6 -121q2 -8 37 -27h-174q41 13 42 69l5 316q0 4 2.5 10.5t2.5 9.5q0 5 -2 5q-1 0 -2 -1q-2 56 -3 66q-6 38 -27 59l3 -1q17 0 71 25v9q-6 2 -17 2q-125 0 -185 -116q12 51 26 155l6 5
q7 -21 42 -21h240q7 0 7 5h22q16 0 37 22q6 -35 13 -99l-1 1h1l1 -4z" />
    <glyph glyph-name="uni0443" unicode="&#x443;" horiz-adv-x="386" 
d="M0 14l25 -2l55 -1q26 0 101 4l1 7l-3 -1q-16 0 -24.5 12t-16.5 25q-3 4 20.5 49.5t23.5 52.5q0 4 31 63l65 124q15 34 48 100q46 86 59 105q4 7 20 19.5t24 14.5q-18 9 -60 27q-8 3 -48 21q-3 -18 -57.5 -120.5t-66.5 -112.5q-20 3 -47 52t-27 72t15 40.5t38 19.5l3 3
l4 -1q-70 47 -83 47q-15 0 -25 -30q-9 -24 -9 -42q0 -44 20 -79q13 -22 48 -58t49 -57l6 -9l-138 -273q-9 -19 -19 -37.5t-32 -34.5z" />
    <glyph glyph-name="uni0444" unicode="&#x444;" horiz-adv-x="515" 
d="M332 207q-8 -11 -42 -44q-37 -36 -44 -36q-9 0 -51 52q-39 48 -48 65q-29 52 -73 195l-24 78q-18 21 -41 21q46 37 113.5 61.5t126.5 24.5q183 0 253 -86q-24 -5 -29 -14q-16 -144 -141 -317zM355 532q-4 10 -21 37q-37 21 -74 21q-86 0 -110 -55q1 -13 -3 -43t-4 -33
q0 -130 58 -232q34 -60 48 -60q7 0 26 19.5t25 28.5q69 109 69 290zM369 505zM343 613q-40 -22 -41 -98l-3 -451q0 -32 37 -48h-169q3 1 17 10q22 14 23 59l6 398q0 53 -10 98q-2 9 -11.5 17t-18.5 15h170z" />
    <glyph glyph-name="uni0445" unicode="&#x445;" horiz-adv-x="464" 
d="M457 46q-18 -9 -59 -26q-2 0 -49 -21q-6 32 -156 297l-50 -54q-21 -4 -47.5 -51.5t-26.5 -71.5q0 -23 15 -41t37 -19l3 -3l5 1q-70 -47 -83 -47q-16 0 -26 29q-8 22 -8 43q0 60 40 108q27 28 77 86l46 59q-78 162 -118 219q-5 8 -20.5 20t-23.5 14q18 9 60 27q8 3 48 21
q3 -18 58 -121t66 -112q20 5 47 53t27 71t-15 40.5t-38 19.5l-3 3l-4 -1q70 47 83 47q15 0 25 -30q9 -24 9 -42q0 -47 -23 -85q-14 -23 -50.5 -59.5t-49.5 -58.5q25 -39 85 -142q20 -39 75 -138q4 -8 20 -20.5t24 -14.5z" />
    <glyph glyph-name="uni0446" unicode="&#x446;" horiz-adv-x="440" 
d="M359 -73h-194q-13 0 -35 14t-27 26v-10q0 -3 47 -122h284v9q0 5 -6.5 23.5t-6.5 23.5l-6 33q-1 11 -21 111q-10 2 -10 31l2 82l3 409q0 17 10 37t25 24q-56 -1 -159 -1q31 -21 31 -46v-471q0 -30 -8 -39q-91 27 -145 116q-49 82 -49 182q0 64 30 143q35 92 82 115l-175 1
l11 -8q13 0 13 -23q0 -14 -11 -40q-8 -19 -17 -39q-18 -47 -18 -111q0 -106 53 -196q54 -93 147 -140q28 -14 65 -22q27 -7 55 -13q14 -15 26.5 -42.5t12.5 -43.5q0 -13 -9 -13z" />
    <glyph glyph-name="uni0447" unicode="&#x447;" horiz-adv-x="440" 
d="M303 266q-5 -2 -59 -25q-31 -14 -60 -14q-73 -1 -115 33q-53 42 -60 137q-4 49 18 111q6 12 17 39q4 10 8.5 20t2.5 20q-3 13 -13 23l-11 8l175 -1q-52 -47 -82 -115q-13 -27 -26 -55t-13 -50q0 -19 9 -38q22 -45 77 -61q12 -4 24 -4q21 0 51 14q39 17 55 21zM288 61
q8 9 8 39v471q0 25 -31 46q103 0 159 1q-15 -4 -25 -24t-10 -37l-3 -409q-1 -108 24 -113l11 -9h-92l-68 5q12 14 16 25q3 7 4 7q2 -1 7 -2z" />
    <glyph glyph-name="uni0448" unicode="&#x448;" horiz-adv-x="636" 
d="M632 617q-15 -4 -25 -24t-10 -37l-3 -409q-1 -108 24 -113l11 -9h-92q-51 0 -120 35q-93 47 -147 140q-53 90 -53 196q0 64 18 111q9 20 17 39q11 26 11 40q0 23 -13 23l-11 8l175 -1q-47 -23 -82 -115q-30 -79 -30 -143q0 -100 49 -182q54 -89 145 -116q8 9 8 39v471
q0 25 -31 46q103 0 159 1zM411 81l-113 -56q-9 -4 -20 -4q-22 0 -100 39q-93 47 -147 140q-53 90 -53 196q0 64 18 111q9 20 17 39q11 26 11 40q0 23 -13 23l-11 8l175 -1q-47 -23 -82 -115q-30 -79 -30 -143q0 -100 49 -182q54 -89 145 -116l123 54z" />
    <glyph glyph-name="uni0449" unicode="&#x449;" horiz-adv-x="636" 
d="M270 200q-53 91 -53 196q0 64 18 111q9 20 17 39q11 26 11 40q0 23 -13 23l-11 8l175 -1q-47 -23 -82 -115q-30 -79 -30 -143q0 -100 49 -182q54 -89 145 -116q8 9 8 39v471q0 25 -31 46q103 0 159 1q-15 -4 -25 -24t-10 -37l-3 -409q0 -57 3 -76q4 -23 21 -37
q20 -28 27 -57q2 -6 11 -61l6 -33q0 -5 6.5 -23.5t6.5 -23.5v-9l-545 3q-47 119 -47 122v10q5 -12 27 -26t35 -14l455 -3q6 0 6 5q0 27 -69 101q-28 6 -55 13q-37 8 -65 22q-5 1 -26 14l-93 -49q-9 -5 -21 -5q-20 0 -99 40q-93 47 -147 140q-53 90 -53 196q0 64 18 111
q9 20 17 39q11 26 11 40q0 23 -13 23l-11 8l175 -1q-47 -23 -82 -115q-30 -79 -30 -143q0 -100 49 -182q54 -89 145 -116l92 42q-27 16 -45 42q-6 9 -34 56z" />
    <glyph glyph-name="uni044A" unicode="&#x44a;" horiz-adv-x="574" 
d="M170 418v-348q0 -33 -39 -44l93 -3q45 -1 115 12q116 22 160 55q62 46 62 152l-17 76q-29 83 -121 127q-4 -3 -39.5 -4.5t-52.5 -13.5q-28 -20 -29 -24q78 -26 135 -77q70 -62 70 -133q0 -34 -35 -68.5t-70 -44.5q-89 -17 -136 -21q-8 6 -8 50l3 364q1 118 25 138
q-5 -2 -149 -2q-28 4 -37 4t-19 -5q-16 -8 -32 -14q-39 -19 -49 -75q-5 -7 16.5 -45t42.5 -41l-13 98q18 9 35 9q15 0 39 -8q31 -9 45 -11q5 -6 5 -103z" />
    <glyph glyph-name="uni044B" unicode="&#x44b;" horiz-adv-x="603" 
d="M165 611q-5 -2 -149 -2q4 0 7 -9t7 -12q5 -8 12 -66t7 -104v-348q0 -33 -39 -44l93 -3q45 -1 115 12q116 22 160 55q62 46 62 152l-17 76q-29 83 -121 127q-4 -3 -39.5 -4.5t-52.5 -13.5q-28 -20 -29 -24q78 -26 135 -77q70 -62 70 -133q0 -34 -35 -68.5t-70 -44.5
q-89 -17 -136 -21q-8 6 -8 50l3 364q1 118 25 138zM591 616q-40 -22 -41 -98l-3 -451q0 -32 37 -48h-169q3 1 17 10q22 14 23 59l6 398q0 53 -10 98q-2 9 -11.5 17t-18.5 15h170z" />
    <glyph glyph-name="uni044C" unicode="&#x44c;" horiz-adv-x="447" 
d="M165 611q-5 -2 -149 -2q4 0 7 -9t7 -12q5 -8 12 -66t7 -104v-348q0 -33 -39 -44l93 -3q45 -1 115 12q116 22 160 55q62 46 62 152l-17 76q-29 83 -121 127q-4 -3 -39.5 -4.5t-52.5 -13.5q-28 -20 -29 -24q78 -26 135 -77q70 -62 70 -133q0 -34 -35 -68.5t-70 -44.5
q-89 -17 -136 -21q-8 6 -8 50l3 364q1 118 25 138z" />
    <glyph glyph-name="uni044D" unicode="&#x44d;" horiz-adv-x="416" 
d="M13 628q6 -40 50 -113h5q3 34 30 55t62 21q65 0 109 -86q18 -35 18 -37q0 -7 -5 -9h-172q15 -24 44 -58q5 22 50 22q9 0 26 1t26 1q52 0 52 -54q0 -125 -64 -225q-68 -106 -184 -139l-5 -6q87 2 169 55q77 50 125 128l15 33q6 10 17 30q26 71 26 167q0 38 -31 108t-31 61
q0 24 39 24v10q-34 0 -102 -1.5t-102 -1.5q-145 0 -167 14z" />
    <glyph glyph-name="uni044E" unicode="&#x44e;" horiz-adv-x="651" 
d="M647 538q-28 -6 -34 -28l-4 -50q-1 -24 -5 -72q-18 -157 -127 -309q-8 -11 -42 -44q-37 -36 -44 -36q-9 0 -51 52q-39 48 -48 65q-52 93 -73 195q-12 58 -24 206q-18 21 -41 21q46 37 113.5 61.5t126.5 24.5q183 0 253 -86zM512 400v0q0 -21 2 -23q5 0 3 62q-2 67 -17 93
q-4 10 -21 37q-37 21 -74 21q-86 0 -110 -55q-10 -49 -10 -101q0 -17 1.5 -51.5t1.5 -51.5q0 -130 58 -232q34 -60 48 -60q7 0 26 19.5t25 28.5q67 106 67 313zM183 616q-40 -22 -41 -98l-3 -451q0 -32 37 -48h-169q3 1 17 10q22 14 23 59l6 398q0 53 -10 98q-2 9 -11.5 17
t-18.5 15h170zM125 429q30 0 59 -2t64 -2l-20 -73q-30 0 -86.5 1.5t-90.5 1.5z" />
    <glyph glyph-name="uni044F" unicode="&#x44f;" horiz-adv-x="474" 
d="M9 211q0 -149 144 -245q-89 115 -89 196q0 101 115 184q70 50 103 50q-10 12 -80 57q-64 41 -65 45l-9 37q9 13 20 34q19 19 62 19q120 0 122 -128l5 -313q1 -92 -11 -108q-3 -5 -28 -17l158 -2q-9 6 -26 19l-5 10q0 8 -3 23.5t-3 23.5v421q18 21 41 21q-109 86 -226 86
q-107 0 -137 -15q-45 -23 -76 -115h8q29 0 70 -21q23 -12 70 -35l12 -11q-115 -30 -154 -140z" />
    <glyph glyph-name="uni0451" unicode="&#x451;" horiz-adv-x="416" 
d="M407 628q-6 -40 -50 -113h-5q-3 34 -30 55t-62 21q-65 0 -109 -86q-18 -35 -18 -37q0 -7 5 -9h172q-15 -24 -44 -58q-5 22 -50 22q-9 0 -26 1t-26 1q-52 0 -52 -54q0 -125 64 -225q68 -106 184 -139l5 -6q-87 2 -169 55q-77 50 -125 128l-15 33q-6 10 -17 30
q-26 71 -26 167q0 38 31 108t31 61q0 24 -39 24v10q34 0 102 -1.5t102 -1.5q145 0 167 14zM177 677q0 -15 -12 -25t-28 -10q-39 0 -39 35q0 15 11.5 25.5t27.5 10.5t28 -10t12 -26zM390 680q0 -15 -12 -24.5t-28 -9.5q-39 0 -39 34q0 16 11.5 26t27.5 10t28 -10t12 -26z" />
    <glyph glyph-name="uni0452" unicode="&#x452;" 
 />
    <glyph glyph-name="uni0453" unicode="&#x453;" horiz-adv-x="457" 
d="M26 505q39 61 74 87q45 33 108 33q55 0 133 -24q96 -30 107 -69l-7 10q-40 -5 -40 -40v-406q0 -5 7 -47l5 -10q17 -12 25 -19l-158 2q25 12 29 17q13 17 11 108l-6 313q-1 63 -26 84q14 15 45 16q42 2 50 3q-5 12 -47 24q-38 11 -57 11q-34 0 -87 -33q-57 -36 -57 -67
q0 -2 66 -45q69 -46 79 -57q-71 0 -106 -105l-44 -131q-44 -133 -87 -184q27 53 41 160q11 84 11 167q0 53 -2 66q-5 35 -30 54l116 4l-12 11q-47 23 -70 35q-41 21 -70 21h-8z" />
    <glyph glyph-name="uni0454" unicode="&#x454;" horiz-adv-x="432" 
d="M417 503l-6 1q-12 0 -56 -37l-58 -48q-78 -39 -128 -49q1 7 44 35q28 18 52 35q7 5 25.5 31.5t18.5 32.5q0 20 -53 66q-34 29 -95 29q-43 0 -92 -29l-2 -6q47 0 55 -1q33 -4 48 -23q-30 -11 -30 -67l-3 -424l39 -25q-8 0 -23 -1.5t-23 -1.5q-18 0 -60 2l-60 3
q39 11 39 44v225l3 8q-2 6 -2 24l1 121l3 6q-2 27 -15 70q-6 10 -29 16q82 84 213 84q103 0 159 -60q36 -38 35 -61z" />
    <glyph glyph-name="uni0455" unicode="&#x455;" horiz-adv-x="432" 
d="M424 444q-28 -26 -36 -91q-15 -121 -68 -207q-66 -107 -172 -116q-36 -7 -45 -7l-93 3q39 11 39 44v225l3 8q-2 6 -2 24l1 121l3 6q-2 27 -15 70q-6 10 -29 16q82 84 213 84q103 0 159 -60q36 -38 35 -61l-6 1q-11 0 -57.5 -25t-51.5 -34q3 -5 9 -5t16.5 2t16.5 2h80z
M318 303q0 109 -78 109q-9 0 -59 -9q2 6 65 48.5t63 52.5q0 21 -53 66q-34 29 -95 29q-43 0 -92 -29l-2 -6q47 0 55 -1q33 -4 48 -23q-30 -11 -30 -67l-3 -364q0 -45 8 -50q84 10 131 87q42 67 42 157z" />
    <glyph glyph-name="uni0456" unicode="&#x456;" horiz-adv-x="438" 
d="M18 614h99l2 -7q-20 -12 -24 -16q-9 -32 -9 -41v-109h8q51 72 112 113q38 26 139 74q17 -2 81 -91q-20 1 -32 -3q-19 -6 -19 -23l3 -269v-99q1 -70 8 -93q17 -19 31 -24h-105q0 3 11.5 10t13.5 11q11 21 11 70q0 295 -7 389l-9 6q-15 -5 -23 -10q-91 -37 -151 -114
q-65 -82 -65 -175q0 -117 68 -223q-54 43 -83 129q-25 73 -25 154v293q0 35 -39 41z" />
    <glyph glyph-name="uni0457" unicode="&#x457;" 
d="M201 615q13 18 13 45q0 36 -22 59q-10 11 -30 15l72 73q25 -6 39.5 -30t14.5 -50q0 -31 -18 -50l-71 -70l-5 -5l-3 3zM18 614h99l2 -7q-20 -12 -24 -16q-9 -32 -9 -41v-109h8q51 72 112 113q38 26 139 74q17 -2 81 -91q-20 1 -32 -3q-19 -6 -19 -23l3 -269v-99
q1 -70 8 -93q17 -19 31 -24h-105q0 3 11.5 10t13.5 11q11 21 11 70q0 295 -7 389l-9 6q-15 -5 -23 -10q-91 -37 -151 -114q-65 -82 -65 -175q0 -117 68 -223q-54 43 -83 129q-25 73 -25 154v293q0 35 -39 41z" />
    <glyph glyph-name="uni0458" unicode="&#x458;" horiz-adv-x="464" 
d="M457 46q-18 -9 -59 -26q-2 0 -49 -21q-6 32 -156 297l-50 -54q-21 -4 -47.5 -51.5t-26.5 -71.5q0 -23 15 -41t37 -19l3 -3l5 1q-70 -47 -83 -47q-16 0 -26 29q-8 22 -8 43q0 60 40 108q27 28 77 86l46 59q-78 162 -118 219q-5 8 -20.5 20t-23.5 14q18 9 60 27q8 3 48 21
q3 -18 58 -121t66 -112q20 5 47 53t27 71t-15 40.5t-38 19.5l-3 3l-4 -1q70 47 83 47q15 0 25 -30q9 -24 9 -42q0 -47 -23 -85q-14 -23 -50.5 -59.5t-49.5 -58.5q25 -39 85 -142q20 -39 75 -138q4 -8 20 -20.5t24 -14.5z" />
    <glyph glyph-name="uni0459" unicode="&#x459;" horiz-adv-x="431" 
d="M417 616q-29 -15 -66 -54q-30 -32 -59 -64q-22 -15 -59 -52q16 0 49 1t49 1q6 -1 39 -4q-33 -20 -33 -116q0 -169 61 -356q-53 75 -88 181q-21 65 -62 194q-7 23 -27 43.5t-42 20.5q-26 0 -34 -16q-5 -9 -5 -39l-2 -208q-1 -85 11 -105q4 -7 15.5 -13t11.5 -10h-170v7
q32 14 39 34q5 11 5 53l1 441q0 26 -8 34l-28 20l2 4h163v-8q-39 -7 -39 -78q0 -20 1 -41q1 -28 -1 -40q5 -5 9 -5q30 0 83.5 53.5t53.5 83.5q0 13 -31 29v8z" />
    <glyph glyph-name="uni045A" unicode="&#x45a;" horiz-adv-x="670" 
d="M270 38q3 3 4 5q12 20 11 105l-2 208q0 30 -5 39q-8 16 -34 16q-22 0 -42 -20.5t-27 -43.5q-41 -129 -62 -194q-35 -106 -88 -181q61 187 61 356q0 96 -33 116q33 3 39 4q16 0 49 -1t49 -1q-37 37 -59 52q-29 32 -59 64q-37 39 -66 54l161 -1v-8q-31 -16 -31 -29
q0 -30 53.5 -83.5t83.5 -53.5q4 0 9 5q-2 12 -1 40q1 21 1 41q0 71 -39 78v8h181v-8q-39 -7 -39 -78q0 -20 1 -41q1 -28 -1 -40q5 -5 9 -5q30 0 83.5 53.5t53.5 83.5q0 13 -31 29v8l161 1q-29 -15 -66 -54q-30 -32 -59 -64q-22 -15 -59 -52q16 0 49 1t49 1q6 -1 39 -4
q-33 -20 -33 -116q0 -169 61 -356q-53 75 -88 181q-21 65 -62 194q-7 23 -27 43.5t-42 20.5q-26 0 -34 -16q-5 -9 -5 -39l-2 -208q-1 -85 11 -105q1 -2 4 -5q8 -6 20 -11v-2q3 -3 3 -5h-173q0 2 3 5v2q12 5 20 11z" />
    <glyph glyph-name="uni045B" unicode="&#x45b;" 
 />
    <glyph glyph-name="uni045C" unicode="&#x45c;" 
 />
    <glyph glyph-name="uni045E" unicode="&#x45e;" 
 />
    <glyph glyph-name="uni045F" unicode="&#x45f;" 
 />
    <glyph glyph-name="uni0490" unicode="&#x490;" 
 />
    <glyph glyph-name="uni0491" unicode="&#x491;" 
 />
    <glyph glyph-name="Wgrave" unicode="&#x1e80;" 
 />
    <glyph glyph-name="wgrave" unicode="&#x1e81;" 
 />
    <glyph glyph-name="Wacute" unicode="&#x1e82;" 
 />
    <glyph glyph-name="wacute" unicode="&#x1e83;" 
 />
    <glyph glyph-name="Wdieresis" unicode="&#x1e84;" 
 />
    <glyph glyph-name="wdieresis" unicode="&#x1e85;" 
 />
    <glyph glyph-name="Ygrave" unicode="&#x1ef2;" 
 />
    <glyph glyph-name="ygrave" unicode="&#x1ef3;" 
 />
    <glyph glyph-name="endash" unicode="&#x2013;" horiz-adv-x="770" 
 />
    <glyph glyph-name="emdash" unicode="&#x2014;" horiz-adv-x="770" 
 />
    <glyph glyph-name="uni2015" unicode="&#x2015;" 
 />
    <glyph glyph-name="underscoredbl" unicode="&#x2017;" 
 />
    <glyph glyph-name="quoteleft" unicode="&#x2018;" horiz-adv-x="770" 
 />
    <glyph glyph-name="quoteright" unicode="&#x2019;" horiz-adv-x="770" 
 />
    <glyph glyph-name="quotesinglbase" unicode="&#x201a;" horiz-adv-x="770" 
 />
    <glyph glyph-name="quotereversed" unicode="&#x201b;" 
 />
    <glyph glyph-name="quotedblleft" unicode="&#x201c;" horiz-adv-x="770" 
 />
    <glyph glyph-name="quotedblright" unicode="&#x201d;" horiz-adv-x="770" 
 />
    <glyph glyph-name="quotedblbase" unicode="&#x201e;" horiz-adv-x="770" 
 />
    <glyph glyph-name="dagger" unicode="&#x2020;" horiz-adv-x="770" 
 />
    <glyph glyph-name="daggerdbl" unicode="&#x2021;" horiz-adv-x="770" 
 />
    <glyph glyph-name="bullet" unicode="&#x2022;" horiz-adv-x="770" 
 />
    <glyph glyph-name="ellipsis" unicode="&#x2026;" horiz-adv-x="770" 
 />
    <glyph glyph-name="perthousand" unicode="&#x2030;" horiz-adv-x="593" 
d="M582 641l-10 1q-33 3 -182 -73l-16 -15l151 -4q-9 -7 -18.5 -15t-12.5 -17q-12 -38 -12 -125q0 -99 16 -216q19 -142 52 -208q-47 55 -84 154q-22 57 -49 157q-22 81 -36 98q-36 136 -138 136q44 51 139 97q49 24 49 36q0 17 -37.5 55t-57.5 46q-71 29 -91 29
q-4 0 -9.5 -3t-7.5 -3q-38 -6 -65 -11q-45 -9 -54 -29q7 -2 64 -4q41 -2 60 -20q-34 -29 -35 -110l-7 -406q-2 -119 15 -141q4 -5 37 -22l-206 -2q11 8 34 24l6 14q8 64 8 61v527q0 45 -52 52l-8 -12q4 16 21 29q119 90 291 90q50 0 78 -8q46 -13 94 -57q51 -47 63 -90z" />
    <glyph glyph-name="minute" unicode="&#x2032;" 
 />
    <glyph glyph-name="second" unicode="&#x2033;" 
 />
    <glyph glyph-name="guilsinglleft" unicode="&#x2039;" horiz-adv-x="770" 
 />
    <glyph glyph-name="guilsinglright" unicode="&#x203a;" horiz-adv-x="770" 
 />
    <glyph glyph-name="exclamdbl" unicode="&#x203c;" 
 />
    <glyph glyph-name="uni203E" unicode="&#x203e;" 
 />
    <glyph glyph-name="fraction" unicode="&#x2044;" horiz-adv-x="770" 
 />
    <glyph glyph-name="uni207F" unicode="&#x207f;" 
 />
    <glyph glyph-name="franc" unicode="&#x20a3;" 
 />
    <glyph glyph-name="lira" unicode="&#x20a4;" 
 />
    <glyph glyph-name="peseta" unicode="&#x20a7;" 
 />
    <glyph glyph-name="Euro" unicode="&#x20ac;" 
 />
    <glyph glyph-name="uni2105" unicode="&#x2105;" 
 />
    <glyph glyph-name="uni2113" unicode="&#x2113;" 
 />
    <glyph glyph-name="uni2116" unicode="&#x2116;" 
 />
    <glyph glyph-name="trademark" unicode="&#x2122;" horiz-adv-x="770" 
 />
    <glyph glyph-name="estimated" unicode="&#x212e;" 
 />
    <glyph glyph-name="oneeighth" unicode="&#x215b;" 
 />
    <glyph glyph-name="threeeighths" unicode="&#x215c;" 
 />
    <glyph glyph-name="fiveeighths" unicode="&#x215d;" 
 />
    <glyph glyph-name="seveneighths" unicode="&#x215e;" 
 />
    <glyph glyph-name="arrowleft" unicode="&#x2190;" 
 />
    <glyph glyph-name="arrowup" unicode="&#x2191;" 
 />
    <glyph glyph-name="arrowright" unicode="&#x2192;" 
 />
    <glyph glyph-name="arrowdown" unicode="&#x2193;" 
 />
    <glyph glyph-name="arrowboth" unicode="&#x2194;" 
 />
    <glyph glyph-name="arrowupdn" unicode="&#x2195;" 
 />
    <glyph glyph-name="arrowupdnbse" unicode="&#x21a8;" 
 />
    <glyph glyph-name="partialdiff" unicode="&#x2202;" horiz-adv-x="486" 
d="M478 514q-7 -6 -15.5 -15.5t-34.5 -85.5q-19 -58 -58 -173q-36 -99 -90 -153q-65 -66 -163 -66h-109v9q29 14 36 28q5 11 6 49l5 342q0 5 1 18v17q0 53 -41 63q103 82 230 82q139 0 233 -115zM349 507q0 31 -68 65q-61 31 -97 31q-37 0 -106 -27v-7q85 0 99 -20
q-23 -11 -30 -40q-4 -16 -4 -54v-214l-3 -178l10 -12q57 11 90 52q27 32 44 92q13 54 26 107q39 152 39 205z" />
    <glyph glyph-name="product" unicode="&#x220f;" horiz-adv-x="561" 
d="M541 653q-2 2 -8 2q-14 0 -72 -48l-75 -62q-28 -4 -84 -31.5t-83 -32.5q2 8 57 45q36 24 69 45q9 8 33 42.5t24 41.5q0 24 -70 85q-44 38 -122 38q-57 0 -121 -38l-2 -7q62 -1 71 -2q43 -5 63 -29q-38 -15 -39 -87l-4 -474v-78l50 -32q-10 0 -29.5 -1.5t-29.5 -1.5
q-34 0 -78 2t-78 4q50 14 50 57q0 298 4 302q-2 10 -2 30l1 159q0 3 2 4t2 3q0 16 -6 49t-13 43.5t-38 19.5q107 109 277 109q133 0 207 -78q45 -48 44 -79z" />
    <glyph glyph-name="summation" unicode="&#x2211;" horiz-adv-x="770" 
 />
    <glyph glyph-name="minus" unicode="&#x2212;" 
 />
    <glyph glyph-name="uni2215" unicode="&#x2215;" 
 />
    <glyph glyph-name="radical" unicode="&#x221a;" horiz-adv-x="770" 
 />
    <glyph glyph-name="infinity" unicode="&#x221e;" horiz-adv-x="770" 
 />
    <glyph glyph-name="orthogonal" unicode="&#x221f;" 
 />
    <glyph glyph-name="intersection" unicode="&#x2229;" 
 />
    <glyph glyph-name="integral" unicode="&#x222b;" horiz-adv-x="432" 
d="M424 444q-28 -26 -36 -91q-15 -121 -68 -207q-66 -107 -172 -116q-36 -7 -45 -7l-93 3q39 11 39 44v225l3 8q-2 6 -2 24l1 121l3 6q-2 27 -15 70q-6 10 -29 16q82 84 213 84q103 0 159 -60q36 -38 35 -61l-6 1q-11 0 -57.5 -25t-51.5 -34q3 -5 9 -5t16.5 2t16.5 2h80z
M318 303q0 109 -78 109q-9 0 -59 -9q2 6 65 48.5t63 52.5q0 21 -53 66q-34 29 -95 29q-43 0 -92 -29l-2 -6q47 0 55 -1q33 -4 48 -23q-30 -11 -30 -67l-3 -364q0 -45 8 -50q84 10 131 87q42 67 42 157z" />
    <glyph glyph-name="approxequal" unicode="&#x2248;" horiz-adv-x="464" 
d="M457 46q-18 -9 -59 -26q-2 0 -49 -21q-6 32 -156 297l-50 -54q-21 -4 -47.5 -51.5t-26.5 -71.5q0 -23 15 -41t37 -19l3 -3l5 1q-70 -47 -83 -47q-16 0 -26 29q-8 22 -8 43q0 60 40 108q27 28 77 86l46 59q-78 162 -118 219q-5 8 -20.5 20t-23.5 14q18 9 60 27q8 3 48 21
q3 -18 58 -121t66 -112q20 5 47 53t27 71t-15 40.5t-38 19.5l-3 3l-4 -1q70 47 83 47q15 0 25 -30q9 -24 9 -42q0 -47 -23 -85q-14 -23 -50.5 -59.5t-49.5 -58.5q25 -39 85 -142q20 -39 75 -138q4 -8 20 -20.5t24 -14.5z" />
    <glyph glyph-name="approxequal" unicode="&#x22f2;" horiz-adv-x="464" 
d="M457 46q-18 -9 -59 -26q-2 0 -49 -21q-6 32 -156 297l-50 -54q-21 -4 -47.5 -51.5t-26.5 -71.5q0 -23 15 -41t37 -19l3 -3l5 1q-70 -47 -83 -47q-16 0 -26 29q-8 22 -8 43q0 60 40 108q27 28 77 86l46 59q-78 162 -118 219q-5 8 -20.5 20t-23.5 14q18 9 60 27q8 3 48 21
q3 -18 58 -121t66 -112q20 5 47 53t27 71t-15 40.5t-38 19.5l-3 3l-4 -1q70 47 83 47q15 0 25 -30q9 -24 9 -42q0 -47 -23 -85q-14 -23 -50.5 -59.5t-49.5 -58.5q25 -39 85 -142q20 -39 75 -138q4 -8 20 -20.5t24 -14.5z" />
    <glyph glyph-name="notequal" unicode="&#x2260;" horiz-adv-x="770" 
 />
    <glyph glyph-name="equivalence" unicode="&#x2261;" 
 />
    <glyph glyph-name="lessequal" unicode="&#x2264;" horiz-adv-x="770" 
 />
    <glyph glyph-name="greaterequal" unicode="&#x2265;" horiz-adv-x="770" 
 />
    <glyph glyph-name="house" unicode="&#x2302;" 
 />
    <glyph glyph-name="revlogicalnot" unicode="&#x2310;" 
 />
    <glyph glyph-name="integraltp" unicode="&#x2320;" 
 />
    <glyph glyph-name="integralbt" unicode="&#x2321;" 
 />
    <glyph glyph-name="SF100000" unicode="&#x2500;" 
 />
    <glyph glyph-name="SF110000" unicode="&#x2502;" 
 />
    <glyph glyph-name="SF010000" unicode="&#x250c;" 
 />
    <glyph glyph-name="SF030000" unicode="&#x2510;" 
 />
    <glyph glyph-name="SF020000" unicode="&#x2514;" 
 />
    <glyph glyph-name="SF040000" unicode="&#x2518;" 
 />
    <glyph glyph-name="SF080000" unicode="&#x251c;" 
 />
    <glyph glyph-name="SF090000" unicode="&#x2524;" 
 />
    <glyph glyph-name="SF060000" unicode="&#x252c;" 
 />
    <glyph glyph-name="SF070000" unicode="&#x2534;" 
 />
    <glyph glyph-name="SF050000" unicode="&#x253c;" 
 />
    <glyph glyph-name="SF430000" unicode="&#x2550;" 
 />
    <glyph glyph-name="SF240000" unicode="&#x2551;" 
 />
    <glyph glyph-name="SF510000" unicode="&#x2552;" 
 />
    <glyph glyph-name="SF520000" unicode="&#x2553;" 
 />
    <glyph glyph-name="SF390000" unicode="&#x2554;" 
 />
    <glyph glyph-name="SF220000" unicode="&#x2555;" 
 />
    <glyph glyph-name="SF210000" unicode="&#x2556;" 
 />
    <glyph glyph-name="SF250000" unicode="&#x2557;" 
 />
    <glyph glyph-name="SF500000" unicode="&#x2558;" 
 />
    <glyph glyph-name="SF490000" unicode="&#x2559;" 
 />
    <glyph glyph-name="SF380000" unicode="&#x255a;" 
 />
    <glyph glyph-name="SF280000" unicode="&#x255b;" 
 />
    <glyph glyph-name="SF270000" unicode="&#x255c;" 
 />
    <glyph glyph-name="SF260000" unicode="&#x255d;" 
 />
    <glyph glyph-name="SF360000" unicode="&#x255e;" 
 />
    <glyph glyph-name="SF370000" unicode="&#x255f;" 
 />
    <glyph glyph-name="SF420000" unicode="&#x2560;" 
 />
    <glyph glyph-name="SF190000" unicode="&#x2561;" 
 />
    <glyph glyph-name="SF200000" unicode="&#x2562;" 
 />
    <glyph glyph-name="SF230000" unicode="&#x2563;" 
 />
    <glyph glyph-name="SF470000" unicode="&#x2564;" 
 />
    <glyph glyph-name="SF480000" unicode="&#x2565;" 
 />
    <glyph glyph-name="SF410000" unicode="&#x2566;" 
 />
    <glyph glyph-name="SF450000" unicode="&#x2567;" 
 />
    <glyph glyph-name="SF460000" unicode="&#x2568;" 
 />
    <glyph glyph-name="SF400000" unicode="&#x2569;" 
 />
    <glyph glyph-name="SF540000" unicode="&#x256a;" 
 />
    <glyph glyph-name="SF530000" unicode="&#x256b;" 
 />
    <glyph glyph-name="SF440000" unicode="&#x256c;" 
 />
    <glyph glyph-name="upblock" unicode="&#x2580;" 
 />
    <glyph glyph-name="dnblock" unicode="&#x2584;" 
 />
    <glyph glyph-name="block" unicode="&#x2588;" 
 />
    <glyph glyph-name="lfblock" unicode="&#x258c;" 
 />
    <glyph glyph-name="rtblock" unicode="&#x2590;" 
 />
    <glyph glyph-name="ltshade" unicode="&#x2591;" 
 />
    <glyph glyph-name="shade" unicode="&#x2592;" 
 />
    <glyph glyph-name="dkshade" unicode="&#x2593;" 
 />
    <glyph glyph-name="filledbox" unicode="&#x25a0;" 
 />
    <glyph glyph-name="H22073" unicode="&#x25a1;" 
 />
    <glyph glyph-name="H18543" unicode="&#x25aa;" 
 />
    <glyph glyph-name="H18551" unicode="&#x25ab;" 
 />
    <glyph glyph-name="filledrect" unicode="&#x25ac;" 
 />
    <glyph glyph-name="triagup" unicode="&#x25b2;" 
 />
    <glyph glyph-name="triagrt" unicode="&#x25ba;" 
 />
    <glyph glyph-name="triagdn" unicode="&#x25bc;" 
 />
    <glyph glyph-name="triaglf" unicode="&#x25c4;" 
 />
    <glyph glyph-name="lozenge" unicode="&#x25ca;" horiz-adv-x="770" 
 />
    <glyph glyph-name="circle" unicode="&#x25cb;" 
 />
    <glyph glyph-name="H18533" unicode="&#x25cf;" 
 />
    <glyph glyph-name="invbullet" unicode="&#x25d8;" 
 />
    <glyph glyph-name="invcircle" unicode="&#x25d9;" 
 />
    <glyph glyph-name="openbullet" unicode="&#x25e6;" 
 />
    <glyph glyph-name="smileface" unicode="&#x263a;" 
 />
    <glyph glyph-name="invsmileface" unicode="&#x263b;" 
 />
    <glyph glyph-name="sun" unicode="&#x263c;" 
 />
    <glyph glyph-name="female" unicode="&#x2640;" 
 />
    <glyph glyph-name="male" unicode="&#x2642;" 
 />
    <glyph glyph-name="spade" unicode="&#x2660;" 
 />
    <glyph glyph-name="club" unicode="&#x2663;" 
 />
    <glyph glyph-name="heart" unicode="&#x2665;" 
 />
    <glyph glyph-name="diamond" unicode="&#x2666;" 
 />
    <glyph glyph-name="musicalnote" unicode="&#x266a;" 
 />
    <glyph glyph-name="musicalnotedbl" unicode="&#x266b;" 
 />
    <glyph glyph-name="apple" unicode="&#xf000;" horiz-adv-x="770" 
 />
    <glyph glyph-name="fi" unicode="&#xf001;" horiz-adv-x="770" 
 />
    <glyph glyph-name="fl" unicode="&#xf002;" horiz-adv-x="770" 
 />
    <glyph glyph-name="uniFB01" unicode="&#xfb01;" 
 />
    <glyph glyph-name="uniFB02" unicode="&#xfb02;" 
 />
    <glyph glyph-name="DEL" horiz-adv-x="770" 
 />
  </font>
</defs>
</svg>
