<?xml version="1.0" standalone="no"?>
<!DOCTYPE svg PUBLIC "-//W3C//DTD SVG 1.1//EN" "http://www.w3.org/Graphics/SVG/1.1/DTD/svg11.dtd" >
<svg xmlns="http://www.w3.org/2000/svg" xmlns:xlink="http://www.w3.org/1999/xlink" version="1.1">
<metadata>
Created by FontForge 20201107 at Mon Dec 25 16:41:15 2023
 By 
Created by gluk (gluksza@wp.pl | www.glukfonts.pl) with FontForge.
This Font is licensed unter SIL Open Font License v.1.1.
</metadata>
<defs>
<font id="FoglihtenNo06" horiz-adv-x="1642" >
  <font-face 
    font-family="FoglihtenNo06"
    font-weight="500"
    font-stretch="normal"
    units-per-em="2048"
    panose-1="0 0 6 0 0 0 0 0 0 0"
    ascent="1583"
    descent="-465"
    x-height="1473"
    cap-height="1473"
    bbox="-582 -526 8505 1913"
    underline-thickness="34"
    underline-position="-286"
    unicode-range="U+0020-FFFD"
  />
<missing-glyph horiz-adv-x="659" 
d="M121 59h360v1092h-360v-1092zM59 0v1210h484v-1210h-484z" />
    <glyph glyph-name="m_Acircumflex" unicode="m&#xc2;" horiz-adv-x="3178" 
d="M2466 1862l211 -205l-31 -37l-100 100q-105 105 -105 119h-8q0 -6 -29.5 -41t-72.5 -78l-101 -100l-30 37l208 205h58zM37 0v18h72q73 0 90.5 17.5t17.5 91.5v1167q0 28 -19 47t-49 19h-8l-121 -10l-2 12l158 33q65 13 104 51t39 98v8h17v-268q0 -148 -4 -188h18
q11 80 33 141q96 252 324 252q150 0 211 -71.5t61 -198.5v-123h8q3 44 22 107t29 83q53 100 124.5 151.5t178.5 51.5q137 0 221.5 -71t84.5 -201v-832q0 -166 108 -283.5t260 -117.5q100 0 170.5 64.5t70.5 155.5q0 83 -50.5 135t-136.5 60h-56l17 37h704l-348 854
q-16 38 -16 82h-19q0 -25 -24 -82l-490 -1120l-28 27l554 1276h158v-25q0 -72 19 -119l483 -1184q34 -81 53.5 -104t67.5 -23h16v-18h-391v18h158v5q-30 11 -64 96l-114 280h-601q59 -24 93 -75.5t34 -119.5q0 -115 -91.5 -197.5t-219.5 -82.5q-129 0 -239 75t-174 204.5
t-64 281.5v713q0 121 -45.5 188.5t-118.5 67.5q-140 0 -225.5 -130t-85.5 -343v-854q0 -73 18 -91t92 -18h54v-18h-443v18h137v5q-11 11 -14.5 20t-3.5 33v1122q0 121 -45.5 188.5t-118.5 67.5q-140 0 -225.5 -130t-85.5 -343v-854q0 -73 18 -91t92 -18h72v-18h-522z" />
    <glyph glyph-name="m_Abreve" unicode="m&#x102;" horiz-adv-x="3178" 
d="M2154 1839l37 19q123 -183 246 -183q128 0 254 183l29 -19q-47 -105 -122.5 -171t-160.5 -66q-158 0 -283 237zM37 0v18h72q73 0 90.5 17.5t17.5 91.5v1167q0 28 -19 47t-49 19h-8l-121 -10l-2 12l158 33q65 13 104 51t39 98v8h17v-268q0 -148 -4 -188h18q11 80 33 141
q96 252 324 252q150 0 211 -71.5t61 -198.5v-123h8q3 44 22 107t29 83q53 100 124.5 151.5t178.5 51.5q137 0 221.5 -71t84.5 -201v-832q0 -166 108 -283.5t260 -117.5q100 0 170.5 64.5t70.5 155.5q0 83 -50.5 135t-136.5 60h-56l17 37h704l-348 854q-16 38 -16 82h-19
q0 -25 -24 -82l-490 -1120l-28 27l554 1276h158v-25q0 -72 19 -119l483 -1184q34 -81 53.5 -104t67.5 -23h16v-18h-391v18h158v5q-30 11 -64 96l-114 280h-601q59 -24 93 -75.5t34 -119.5q0 -115 -91.5 -197.5t-219.5 -82.5q-129 0 -239 75t-174 204.5t-64 281.5v713
q0 121 -45.5 188.5t-118.5 67.5q-140 0 -225.5 -130t-85.5 -343v-854q0 -73 18 -91t92 -18h54v-18h-443v18h137v5q-11 11 -14.5 20t-3.5 33v1122q0 121 -45.5 188.5t-118.5 67.5q-140 0 -225.5 -130t-85.5 -343v-854q0 -73 18 -91t92 -18h72v-18h-522z" />
    <glyph glyph-name="K_Oacute" unicode="K&#xd3;" horiz-adv-x="2560" 
d="M1784 1554l-19 17l242 284q8 11 20 11q10 0 21 -8l25 -21l-50 -61zM1884 250q-277 0 -446.5 170.5t-169.5 449.5q0 278 169.5 448.5t446.5 170.5q275 0 444 -170.5t169 -448.5q0 -279 -169 -449.5t-444 -170.5zM1890 287q209 0 318.5 139.5t109.5 404.5q0 303 -113 462
t-329 159q-210 0 -320 -139.5t-110 -405.5q0 -302 113.5 -461t330.5 -159zM37 0v18h72q73 0 90.5 20.5t18.5 106.5v1201q-1 74 -18.5 91t-90.5 17h-71v19h469v-19h-19q-75 0 -92.5 -16.5t-17.5 -87.5v-465q59 0 89 5.5t43 22.5l324 408q37 47 37 77q0 56 -106 56h-19v19h463
v-19h-35q-80 0 -161 -33t-140 -108l-325 -412l2 -8q56 -13 109.5 -42.5t92.5 -62t87.5 -89t77 -95.5t78.5 -110q38 -54 61 -86t62.5 -82.5t69.5 -82t74.5 -74t84.5 -68.5t93 -54.5t106 -44.5t117.5 -26.5t134.5 -10.5q89 0 181 19t162 46t134.5 61t101.5 59t61 45l45 39
l11 -15l-45 -39q-57 -48 -131.5 -94.5t-168 -88.5t-205.5 -68t-220 -26q-143 0 -271.5 41.5t-215 95t-182 152t-143 161t-126.5 175.5q-42 60 -64.5 90.5t-59.5 78t-63 71.5t-60 50t-67.5 37t-69.5 11h-24v-721q0 -1 -0.5 -4t-0.5 -5q0 -79 19 -98.5t92 -19.5h72v-18h-523z
" />
    <glyph glyph-name="Rcaron_A" unicode="&#x158;A" horiz-adv-x="2535" 
d="M573 1610h-57l-209 205l31 36l100 -100q103 -103 103 -119h8q0 15 104 119l101 100l30 -36zM37 0v18h72q73 0 90.5 17.5t17.5 91.5v1219q0 74 -17.5 91t-90.5 17h-72v19h534q246 0 395.5 -125.5t149.5 -329.5q0 -184 -122.5 -304.5t-311.5 -138.5l-41 -2v-12
q48 -5 93 -28.5t88 -67t74.5 -82.5t74.5 -100q38 -54 66 -90t69.5 -79.5t78.5 -69t85 -43t98 -17.5q101 0 163 60t62 160q0 83 -51 135t-137 60h-35l16 37h705l-348 854q-17 40 -17 82h-18q0 -22 -25 -82l-489 -1120l-28 27l554 1276h158v-25q0 -74 18 -119l484 -1184
q34 -81 53.5 -104t67.5 -23h16v-18h-391v18h158v5q-30 11 -64 96l-114 280h-621q59 -24 93 -75.5t34 -119.5q0 -126 -94 -203.5t-246 -77.5q-67 0 -131.5 25t-111.5 58.5t-102.5 93.5t-87 101.5t-81.5 111.5q-46 65 -72 98t-64 74.5t-71 59.5t-66 18h-24v35h94
q172 0 277.5 115.5t105.5 304.5q0 188 -105.5 303t-277.5 115h-213v-2q35 -35 35 -107v-1200q0 -73 18 -91t92 -18h119v-18h-569z" />
    <glyph glyph-name="Rcaron_a" unicode="&#x158;a" horiz-adv-x="2301" 
d="M573 1610h-57l-209 205l31 36l100 -100q103 -103 103 -119h8q0 15 104 119l101 100l30 -36zM1968 971v213q0 131 -59.5 200.5t-171.5 69.5q-148 0 -235 -78.5t-93 -201.5l-6 -127h-37l23 483h20l-6 -109q-3 -49 -8 -65l14 -4q2 7 13 23.5t20 23.5q52 39 129 64.5
t164 25.5q194 0 295.5 -85t101.5 -247v-745q0 -64 12 -84.5t56 -20.5q6 0 19 1t22 1l34 2l1 -18q-128 -13 -226 -45v16q0 50 -19 168.5t-20 149.5h-20q-43 -174 -133.5 -253t-210.5 -79q-174 0 -280.5 86.5t-106.5 228.5q0 182 150.5 294t397.5 112h160zM1968 934h-149
q-172 0 -276.5 -101.5t-104.5 -267.5q0 -117 64 -188.5t169 -71.5q55 0 107 26t95 75.5t69 133.5t26 189v205zM37 0v18h72q73 0 90.5 17.5t17.5 91.5v1219q0 74 -17.5 91t-90.5 17h-72v19h534q246 0 395.5 -125.5t149.5 -329.5q0 -184 -122.5 -304.5t-311.5 -138.5l-41 -2
v-12q56 -6 117.5 -52t159.5 -141q50 -49 81.5 -78t88 -76.5t100.5 -76.5t108 -64.5t123.5 -55.5t134 -34t150.5 -14q247 0 515 84l56 18l5 -18l-57 -18q-410 -132 -654 -132q-89 0 -175 17.5t-153.5 43t-139 69.5t-120 80t-108.5 93.5t-91.5 91t-81.5 89.5
q-44 49 -65.5 71.5t-52.5 52t-53.5 41t-43.5 11.5h-24v35h94q172 0 277.5 115.5t105.5 304.5q0 188 -105.5 303t-277.5 115h-213v-2q35 -35 35 -107v-1200q0 -73 18 -91t92 -18h119v-18h-569z" />
    <glyph glyph-name="Rcaron_Aacute" unicode="&#x158;&#xc1;" horiz-adv-x="2535" 
d="M573 1610h-57l-209 205l31 36l100 -100q103 -103 103 -119h8q0 15 104 119l101 100l30 -36zM37 0v18h72q73 0 90.5 17.5t17.5 91.5v1219q0 74 -17.5 91t-90.5 17h-72v19h534q246 0 395.5 -125.5t149.5 -329.5q0 -184 -122.5 -304.5t-311.5 -138.5l-41 -2v-12
q48 -5 93 -28.5t88 -67t74.5 -82.5t74.5 -100q38 -54 66 -90t69.5 -79.5t78.5 -69t85 -43t98 -17.5q101 0 163 60t62 160q0 83 -51 135t-137 60h-35l16 37h705l-348 854q-17 40 -17 82h-18q0 -22 -25 -82l-489 -1120l-28 27l554 1276h158v-25q0 -74 18 -119l484 -1184
q34 -81 53.5 -104t67.5 -23h16v-18h-391v18h158v5q-30 11 -64 96l-114 280h-621q59 -24 93 -75.5t34 -119.5q0 -126 -94 -203.5t-246 -77.5q-67 0 -131.5 25t-111.5 58.5t-102.5 93.5t-87 101.5t-81.5 111.5q-46 65 -72 98t-64 74.5t-71 59.5t-66 18h-24v35h94
q172 0 277.5 115.5t105.5 304.5q0 188 -105.5 303t-277.5 115h-213v-2q35 -35 35 -107v-1200q0 -73 18 -91t92 -18h119v-18h-569zM1686 1550l-19 17l242 284q8 11 20 11q9 0 21 -9l24 -20l-49 -61z" />
    <glyph glyph-name="Rcaron_aacute" unicode="&#x158;&#xe1;" horiz-adv-x="2301" 
d="M573 1610h-57l-209 205l31 36l100 -100q103 -103 103 -119h8q0 15 104 119l101 100l30 -36zM1968 971v213q0 131 -59.5 200.5t-171.5 69.5q-148 0 -235 -78.5t-93 -201.5l-6 -127h-37l23 483h20l-6 -109q-3 -49 -8 -65l14 -4q2 7 13 23.5t20 23.5q52 39 129 64.5
t164 25.5q194 0 295.5 -85t101.5 -247v-745q0 -64 12 -84.5t56 -20.5q6 0 19 1t22 1l34 2l1 -18q-128 -13 -226 -45v16q0 50 -19 168.5t-20 149.5h-20q-43 -174 -133.5 -253t-210.5 -79q-174 0 -280.5 86.5t-106.5 228.5q0 182 150.5 294t397.5 112h160zM1968 934h-149
q-172 0 -276.5 -101.5t-104.5 -267.5q0 -117 64 -188.5t169 -71.5q55 0 107 26t95 75.5t69 133.5t26 189v205zM37 0v18h72q73 0 90.5 17.5t17.5 91.5v1219q0 74 -17.5 91t-90.5 17h-72v19h534q246 0 395.5 -125.5t149.5 -329.5q0 -184 -122.5 -304.5t-311.5 -138.5l-41 -2
v-12q56 -6 117.5 -52t159.5 -141q50 -49 81.5 -78t88 -76.5t100.5 -76.5t108 -64.5t123.5 -55.5t134 -34t150.5 -14q247 0 515 84l56 18l5 -18l-57 -18q-410 -132 -654 -132q-89 0 -175 17.5t-153.5 43t-139 69.5t-120 80t-108.5 93.5t-91.5 91t-81.5 89.5
q-44 49 -65.5 71.5t-52.5 52t-53.5 41t-43.5 11.5h-24v35h94q172 0 277.5 115.5t105.5 304.5q0 188 -105.5 303t-277.5 115h-213v-2q35 -35 35 -107v-1200q0 -73 18 -91t92 -18h119v-18h-569zM1638 1550l-18 17l242 284q8 11 20 11q9 0 21 -9l24 -20l-49 -61z" />
    <glyph glyph-name="R_Atilde" unicode="R&#xc3;" horiz-adv-x="2535" 
d="M2071 1763q-22 -82 -54.5 -112.5t-79.5 -30.5q-37 0 -84.5 23.5t-85.5 51.5t-80 51.5t-69 23.5q-46 0 -64 -68l-16 -64l-33 9l17 63q20 74 50.5 102.5t74.5 28.5q36 0 83 -23.5t85 -51t80.5 -51t70.5 -23.5q51 0 72 80l16 61l33 -8zM37 0v18h72q73 0 90.5 17.5t17.5 91.5
v1219q0 74 -17.5 91t-90.5 17h-72v19h534q246 0 395.5 -125.5t149.5 -329.5q0 -184 -122.5 -304.5t-311.5 -138.5l-41 -2v-12q48 -5 93 -28.5t88 -67t74.5 -82.5t74.5 -100q38 -54 66 -90t69.5 -79.5t78.5 -69t85 -43t98 -17.5q101 0 163 60t62 160q0 83 -51 135t-137 60
h-35l16 37h705l-348 854q-17 40 -17 82h-18q0 -22 -25 -82l-489 -1120l-28 27l554 1276h158v-25q0 -74 18 -119l484 -1184q34 -81 53.5 -104t67.5 -23h16v-18h-391v18h158v5q-30 11 -64 96l-114 280h-621q59 -24 93 -75.5t34 -119.5q0 -126 -94 -203.5t-246 -77.5
q-67 0 -131.5 25t-111.5 58.5t-102.5 93.5t-87 101.5t-81.5 111.5q-46 65 -72 98t-64 74.5t-71 59.5t-66 18h-24v35h94q172 0 277.5 115.5t105.5 304.5q0 188 -105.5 303t-277.5 115h-213v-2q35 -35 35 -107v-1200q0 -73 18 -91t92 -18h119v-18h-569z" />
    <glyph glyph-name="R_atilde" unicode="R&#xe3;" horiz-adv-x="2301" 
d="M2009 1763q-22 -82 -54 -112.5t-79 -30.5q-46 0 -109 37.5t-120.5 75t-90.5 37.5q-45 0 -63 -68l-16 -64l-33 9l16 63q20 74 50.5 102.5t74.5 28.5q36 0 83 -23.5t85 -51t80.5 -51t70.5 -23.5q51 0 72 80l17 61l32 -8zM1968 971v213q0 131 -59.5 200.5t-171.5 69.5
q-148 0 -235 -78.5t-93 -201.5l-6 -127h-37l23 483h20l-6 -109q-3 -49 -8 -65l14 -4q2 7 13 23.5t20 23.5q52 39 129 64.5t164 25.5q194 0 295.5 -85t101.5 -247v-745q0 -64 12 -84.5t56 -20.5q6 0 19 1t22 1l34 2l1 -18q-128 -13 -226 -45v16q0 50 -19 168.5t-20 149.5h-20
q-43 -174 -133.5 -253t-210.5 -79q-174 0 -280.5 86.5t-106.5 228.5q0 182 150.5 294t397.5 112h160zM1968 934h-149q-172 0 -276.5 -101.5t-104.5 -267.5q0 -117 64 -188.5t169 -71.5q55 0 107 26t95 75.5t69 133.5t26 189v205zM37 0v18h72q73 0 90.5 17.5t17.5 91.5v1219
q0 74 -17.5 91t-90.5 17h-72v19h534q246 0 395.5 -125.5t149.5 -329.5q0 -184 -122.5 -304.5t-311.5 -138.5l-41 -2v-12q56 -6 117.5 -52t159.5 -141q50 -49 81.5 -78t88 -76.5t100.5 -76.5t108 -64.5t123.5 -55.5t134 -34t150.5 -14q247 0 515 84l56 18l5 -18l-57 -18
q-410 -132 -654 -132q-89 0 -175 17.5t-153.5 43t-139 69.5t-120 80t-108.5 93.5t-91.5 91t-81.5 89.5q-44 49 -65.5 71.5t-52.5 52t-53.5 41t-43.5 11.5h-24v35h94q172 0 277.5 115.5t105.5 304.5q0 188 -105.5 303t-277.5 115h-213v-2q35 -35 35 -107v-1200q0 -73 18 -91
t92 -18h119v-18h-569z" />
    <glyph glyph-name="R_Abreve" unicode="R&#x102;" horiz-adv-x="2535" 
d="M1520 1839l36 19q123 -183 246 -183q128 0 254 183l29 -19q-47 -105 -122.5 -171t-160.5 -66q-157 0 -282 237zM37 0v18h72q73 0 90.5 17.5t17.5 91.5v1219q0 74 -17.5 91t-90.5 17h-72v19h534q246 0 395.5 -125.5t149.5 -329.5q0 -184 -122.5 -304.5t-311.5 -138.5
l-41 -2v-12q48 -5 93 -28.5t88 -67t74.5 -82.5t74.5 -100q38 -54 66 -90t69.5 -79.5t78.5 -69t85 -43t98 -17.5q101 0 163 60t62 160q0 83 -51 135t-137 60h-35l16 37h705l-348 854q-17 40 -17 82h-18q0 -22 -25 -82l-489 -1120l-28 27l554 1276h158v-25q0 -74 18 -119
l484 -1184q34 -81 53.5 -104t67.5 -23h16v-18h-391v18h158v5q-30 11 -64 96l-114 280h-621q59 -24 93 -75.5t34 -119.5q0 -126 -94 -203.5t-246 -77.5q-67 0 -131.5 25t-111.5 58.5t-102.5 93.5t-87 101.5t-81.5 111.5q-46 65 -72 98t-64 74.5t-71 59.5t-66 18h-24v35h94
q172 0 277.5 115.5t105.5 304.5q0 188 -105.5 303t-277.5 115h-213v-2q35 -35 35 -107v-1200q0 -73 18 -91t92 -18h119v-18h-569z" />
    <glyph glyph-name="R_abreve" unicode="R&#x103;" horiz-adv-x="2301" 
d="M1421 1839l37 19q123 -183 246 -183q128 0 254 183l29 -19q-47 -105 -122.5 -171t-160.5 -66q-158 0 -283 237zM1968 971v213q0 131 -59.5 200.5t-171.5 69.5q-148 0 -235 -78.5t-93 -201.5l-6 -127h-37l23 483h20l-6 -109q-3 -49 -8 -65l14 -4q2 7 13 23.5t20 23.5
q52 39 129 64.5t164 25.5q194 0 295.5 -85t101.5 -247v-745q0 -64 12 -84.5t56 -20.5q6 0 19 1t22 1l34 2l1 -18q-128 -13 -226 -45v16q0 50 -19 168.5t-20 149.5h-20q-43 -174 -133.5 -253t-210.5 -79q-174 0 -280.5 86.5t-106.5 228.5q0 182 150.5 294t397.5 112h160z
M1968 934h-149q-172 0 -276.5 -101.5t-104.5 -267.5q0 -117 64 -188.5t169 -71.5q55 0 107 26t95 75.5t69 133.5t26 189v205zM37 0v18h72q73 0 90.5 17.5t17.5 91.5v1219q0 74 -17.5 91t-90.5 17h-72v19h534q246 0 395.5 -125.5t149.5 -329.5q0 -184 -122.5 -304.5
t-311.5 -138.5l-41 -2v-12q56 -6 117.5 -52t159.5 -141q50 -49 81.5 -78t88 -76.5t100.5 -76.5t108 -64.5t123.5 -55.5t134 -34t150.5 -14q247 0 515 84l56 18l5 -18l-57 -18q-410 -132 -654 -132q-89 0 -175 17.5t-153.5 43t-139 69.5t-120 80t-108.5 93.5t-91.5 91
t-81.5 89.5q-44 49 -65.5 71.5t-52.5 52t-53.5 41t-43.5 11.5h-24v35h94q172 0 277.5 115.5t105.5 304.5q0 188 -105.5 303t-277.5 115h-213v-2q35 -35 35 -107v-1200q0 -73 18 -91t92 -18h119v-18h-569z" />
    <glyph glyph-name="L_E" unicode="LE" horiz-adv-x="1591" 
d="M37 0v18h72q71 0 89.5 23t18.5 100v1207q0 73 -17 89.5t-91 16.5h-72v19h471v-19h-21q-74 0 -92 -16.5t-18 -89.5v-1203q0 -61 -45 -106v-2h768q80 0 135.5 9.5t103 34t73.5 72t32 119.5l5 62q-18 -6 -54 -6h-867v18h72q74 0 91.5 18t17.5 91v891q0 73 -17.5 90.5
t-91.5 17.5h-20v19h766q56 0 75 -19h2l-6 95l19 1l37 -555h-37l-9 144q-9 161 -85.5 229t-229.5 68h-289v-2q45 -45 45 -107v-373h82q40 0 68 3.5t59 16.5t50 35.5t31.5 63.5t12.5 98v52h19v-617h-19v92q0 71 -17.5 117t-51 67.5t-68 28.5t-84.5 7h-82v-445q0 -61 -45 -106
v-2h346q149 0 222 64.5t84 211.5l12 164h33l-60 -909l-20 2l8 120h-2q-11 -11 -21 -14.5t-34 -3.5h-1354z" />
    <glyph glyph-name="R_U" unicode="RU" horiz-adv-x="2301" 
d="M1180 1473h522v-19h-90q-74 0 -91.5 -17.5t-17.5 -90.5v-818q0 -118 63.5 -179.5t184.5 -61.5q165 0 251.5 80.5t86.5 234.5v707q0 79 -23.5 112t-93.5 33h-76v19h379v-19h-32q-70 0 -93.5 -33t-23.5 -112v-707q0 -172 -96 -262t-279 -90q-184 0 -296 97t-112 255v744
q0 73 -18 90.5t-92 17.5h-53v19zM37 0v18h72q73 0 90.5 17.5t17.5 91.5v1219q0 74 -17.5 91t-90.5 17h-72v19h534q246 0 395.5 -125.5t149.5 -329.5q0 -184 -122.5 -304.5t-311.5 -138.5l-41 -2v-12q134 -14 221 -140q7 -9 19.5 -25.5t55 -63.5t89 -89.5t118.5 -95
t145.5 -90t168.5 -63t190 -25.5q300 0 565 226l45 39l11 -15l-45 -39q-61 -53 -129 -98.5t-153.5 -87.5t-185.5 -66t-201 -24q-432 0 -820 447l-43 51q-48 58 -74 85.5t-62.5 51.5t-70.5 24h-24v35h94q172 0 277.5 115.5t105.5 304.5q0 188 -105.5 303t-277.5 115h-213v-2
q35 -35 35 -107v-1200q0 -73 18 -91t92 -18h119v-18h-569z" />
    <glyph glyph-name="R_O" unicode="RO" horiz-adv-x="2564" 
d="M1905 250q-278 0 -447.5 170.5t-169.5 449.5q0 278 170 448.5t447 170.5q275 0 443.5 -170.5t168.5 -448.5q0 -279 -168.5 -449.5t-443.5 -170.5zM1911 287q209 0 318.5 139.5t109.5 404.5q0 302 -113.5 461.5t-329.5 159.5q-210 0 -320 -139.5t-110 -405.5
q0 -302 114 -461t331 -159zM37 0v18h72q73 0 90.5 17.5t17.5 91.5v1219q0 74 -17.5 91t-90.5 17h-72v19h534q246 0 395.5 -125.5t149.5 -329.5q0 -184 -122.5 -304.5t-311.5 -138.5l-41 -2v-12q60 -6 111 -41t110 -99q115 -127 239.5 -219t243 -142.5t225.5 -73.5t212 -23
q117 0 231 26.5t198.5 67.5t138.5 75t88 63l45 39l11 -15l-45 -39q-144 -124 -346 -200t-422 -76q-120 0 -239.5 24.5t-242 76t-242 139.5t-222.5 207l-43 51q-48 58 -74 85.5t-62.5 51.5t-70.5 24h-24v35h94q172 0 277.5 115.5t105.5 304.5q0 188 -105.5 303t-277.5 115
h-213v-2q35 -35 35 -107v-1200q0 -73 18 -91t92 -18h119v-18h-569z" />
    <glyph glyph-name="R_A" unicode="RA" horiz-adv-x="2535" 
d="M37 0v18h72q73 0 90.5 17.5t17.5 91.5v1219q0 74 -17.5 91t-90.5 17h-72v19h534q246 0 395.5 -125.5t149.5 -329.5q0 -184 -122.5 -304.5t-311.5 -138.5l-41 -2v-12q48 -5 93 -28.5t88 -67t74.5 -82.5t74.5 -100q38 -54 66 -90t69.5 -79.5t78.5 -69t85 -43t98 -17.5
q101 0 163 60t62 160q0 83 -51 135t-137 60h-35l17 37h704l-348 854q-17 40 -17 82h-18q0 -22 -25 -82l-489 -1120l-28 27l554 1276h158v-25q0 -74 18 -119l484 -1184q34 -81 53.5 -104t67.5 -23h16v-18h-391v18h158v5q-30 11 -64 96l-114 280h-621q59 -24 93 -75.5
t34 -119.5q0 -126 -94 -203.5t-246 -77.5q-67 0 -131.5 25t-111.5 58.5t-102.5 93.5t-87 101.5t-81.5 111.5q-46 65 -72 98t-64 74.5t-71 59.5t-66 18h-24v35h94q172 0 277.5 115.5t105.5 304.5q0 188 -105.5 303t-277.5 115h-213v-2q35 -35 35 -107v-1200q0 -73 18 -91
t92 -18h119v-18h-569z" />
    <glyph glyph-name="R_a" unicode="Ra" horiz-adv-x="2301" 
d="M1968 971v213q0 131 -59.5 200.5t-171.5 69.5q-148 0 -235 -78.5t-93 -201.5l-6 -127h-37l23 483h20l-6 -109q-3 -49 -8 -65l14 -4q2 7 13 23.5t20 23.5q52 39 129 64.5t164 25.5q194 0 295.5 -85t101.5 -247v-745q0 -64 12 -84.5t56 -20.5q6 0 19 1t22 1l34 2l1 -18
q-128 -13 -226 -45v16q0 50 -19 168.5t-20 149.5h-20q-43 -174 -133.5 -253t-210.5 -79q-174 0 -280.5 86.5t-106.5 228.5q0 182 150.5 294t397.5 112h160zM1968 934h-149q-172 0 -276.5 -101.5t-104.5 -267.5q0 -117 64 -188.5t169 -71.5q55 0 107 26t95 75.5t69 133.5
t26 189v205zM37 0v18h72q73 0 90.5 17.5t17.5 91.5v1219q0 74 -17.5 91t-90.5 17h-72v19h534q246 0 395.5 -125.5t149.5 -329.5q0 -184 -122.5 -304.5t-311.5 -138.5l-41 -2v-12q56 -6 117.5 -52t159.5 -141q50 -49 81.5 -78t88 -76.5t100.5 -76.5t108 -64.5t123.5 -55.5
t134 -34t150.5 -14q247 0 515 84l56 18l5 -18l-57 -18q-410 -132 -654 -132q-89 0 -175 17.5t-153.5 43t-139 69.5t-120 80t-108.5 93.5t-91.5 91t-81.5 89.5q-44 49 -65.5 71.5t-52.5 52t-53.5 41t-43.5 11.5h-24v35h94q172 0 277.5 115.5t105.5 304.5q0 188 -105.5 303
t-277.5 115h-213v-2q35 -35 35 -107v-1200q0 -73 18 -91t92 -18h119v-18h-569z" />
    <glyph glyph-name="m_u" unicode="mU" horiz-adv-x="2889" 
d="M37 0v18h72q73 0 90.5 17.5t17.5 91.5v1167q0 28 -19 47t-49 19h-8l-121 -10l-2 12l158 33q65 13 104 51t39 98v8h17v-268q0 -148 -4 -188h18q11 80 33 141q96 252 324 252q150 0 211 -71.5t61 -198.5v-123h8q3 44 22 107t29 83q53 100 124.5 151.5t178.5 51.5
q137 0 221.5 -71t84.5 -201v-689q0 -299 154.5 -456.5t447.5 -157.5q103 0 201 30t183.5 96t130.5 160l17 -12q-72 -146 -214.5 -220t-318.5 -74q-226 0 -399 78.5t-267.5 223t-94.5 332.5v670q0 121 -45.5 188.5t-118.5 67.5q-140 0 -225.5 -130t-85.5 -343v-854
q0 -73 18 -91t92 -18h54v-18h-443v18h137v5q-11 11 -14.5 20t-3.5 33v1122q0 121 -45.5 188.5t-118.5 67.5q-140 0 -225.5 -130t-85.5 -343v-854q0 -73 18 -91t92 -18h72v-18h-522zM1767 1473h523v-19h-90q-74 0 -91.5 -17.5t-17.5 -90.5v-818q0 -118 63.5 -179.5
t184.5 -61.5q165 0 251.5 80.5t86.5 234.5v707q0 79 -23.5 112t-93.5 33h-76v19h379v-19h-33q-70 0 -93 -33t-23 -112v-707q0 -172 -96 -262t-279 -90q-184 0 -296 97t-112 255v744q0 73 -18 90.5t-92 17.5h-54v19z" />
    <glyph glyph-name="R_Aogonek" unicode="R&#x104;" horiz-adv-x="2535" 
d="M2517 0h-43q-157 0 -234 -75.5t-77 -196.5q0 -68 43 -110t114 -42q46 0 118 23l11 -35q-95 -29 -147 -29q-104 0 -167.5 51t-63.5 134q0 100 68.5 173.5t174.5 111.5v24q-26 9 -52 31.5t-42 58.5l-114 280h-621q59 -24 93 -75.5t34 -119.5q0 -126 -94 -203.5t-246 -77.5
q-67 0 -131.5 25t-111.5 58.5t-102.5 93.5t-87 101.5t-81.5 111.5q-46 65 -72 98t-64 74.5t-71 59.5t-66 18h-24v35h94q172 0 277.5 115.5t105.5 304.5q0 188 -105.5 303t-277.5 115h-213v-2q35 -35 35 -107v-1200q0 -73 18 -91t92 -18h119v-18h-569v18h72q73 0 90.5 17.5
t17.5 91.5v1219q0 74 -17.5 91t-90.5 17h-72v19h534q246 0 395.5 -125.5t149.5 -329.5q0 -184 -122.5 -304.5t-311.5 -138.5l-41 -2v-12q48 -5 92.5 -28t87.5 -66t73.5 -81.5t74.5 -99.5q39 -55 66.5 -90.5t69.5 -80t79 -70t85.5 -43.5t98.5 -18q101 0 163 60t62 160
q0 83 -51 135t-137 60h-35l16 37h705l-348 854q-17 40 -17 82h-18q0 -22 -25 -82l-489 -1120l-28 27l554 1276h158v-25q0 -74 18 -119l484 -1184q33 -83 52 -105t69 -22h16v-18z" />
    <glyph glyph-name="K_O" unicode="KO" horiz-adv-x="2560" 
d="M1884 250q-277 0 -446.5 170.5t-169.5 449.5q0 278 169.5 448.5t446.5 170.5q275 0 444 -170.5t169 -448.5q0 -279 -169 -449.5t-444 -170.5zM1890 287q209 0 318.5 139.5t109.5 404.5q0 303 -113 462t-329 159q-210 0 -320 -139.5t-110 -405.5q0 -302 113.5 -461
t330.5 -159zM37 0v18h72q73 0 90.5 20.5t18.5 106.5v1201q-1 74 -18.5 91t-90.5 17h-71v19h469v-19h-19q-75 0 -92.5 -16.5t-17.5 -87.5v-465q59 0 89 5.5t43 22.5l324 408q37 47 37 77q0 56 -106 56h-19v19h463v-19h-35q-80 0 -161 -33t-140 -108l-325 -412l2 -8
q56 -13 109.5 -42.5t92.5 -62t87.5 -89t77 -95.5t78.5 -110q38 -54 61 -86t62.5 -82.5t69.5 -82t74.5 -74t84.5 -68.5t93 -54.5t106 -44.5t117.5 -26.5t134.5 -10.5q89 0 181 19t162 46t134.5 61t101.5 59t61 45l45 39l11 -15l-45 -39q-57 -48 -131.5 -94.5t-168 -88.5
t-205.5 -68t-220 -26q-143 0 -271.5 41.5t-215 95t-182 152t-143 161t-126.5 175.5q-42 60 -64.5 90.5t-59.5 78t-63 71.5t-60 50t-67.5 37t-69.5 11h-24v-721q0 -1 -0.5 -4t-0.5 -5q0 -79 19 -98.5t92 -19.5h72v-18h-523z" />
    <glyph glyph-name="K_U" unicode="KU" horiz-adv-x="2347" 
d="M1251 1473h492v-19h-90q-74 0 -91.5 -17.5t-17.5 -90.5v-818q0 -118 63.5 -179.5t184.5 -61.5q165 0 251.5 80.5t86.5 234.5v707q0 79 -23.5 112t-93.5 33h-76v19h379v-19h-32q-70 0 -93.5 -33t-23.5 -112v-707q0 -172 -96 -262t-279 -90q-184 0 -296 97t-112 255v744
q0 73 -18 90.5t-92 17.5h-23v19zM402 866h-25v-721q0 -85 18.5 -106t91.5 -21h73v-18h-523v18h72q73 0 90.5 20.5t18.5 106.5v1201q-1 74 -18.5 91t-90.5 17h-71v19h468v-19h-19q-74 0 -92 -17.5t-18 -90.5v-461q60 0 90 5.5t43 22.5l324 408q37 47 37 77q0 56 -106 56h-19
v19h443v-19h-15q-80 0 -161 -33t-140 -108l-325 -412l2 -8q68 -15 123.5 -52t102.5 -97.5t78 -114t74 -138.5q26 -51 44 -85.5t47 -83t53.5 -81.5t60.5 -73.5t71 -67.5t81.5 -54.5t95.5 -44t110.5 -26.5t128.5 -10q321 0 593 230l45 39l11 -15l-45 -39q-60 -51 -125.5 -95
t-153 -87.5t-193 -69t-213.5 -25.5q-80 0 -152 13t-130 32t-113 53.5t-94.5 65.5t-82 81t-69 86t-61 95t-52.5 93.5t-48 94.5q-27 53 -41 80t-39 71t-42.5 67t-44 52.5t-50.5 43.5t-54.5 24.5t-63.5 10.5z" />
    <glyph glyph-name="n_u" unicode="nU" horiz-adv-x="2349" 
d="M37 0v18h72q73 0 90.5 17.5t17.5 91.5v1167q0 28 -19 47t-49 19h-8l-121 -10l-2 12l158 33q66 13 109 51t43 98v8h16v-268q0 -179 -4 -215h14q6 54 33 133q44 131 146 209t229 78q163 0 253.5 -83.5t90.5 -225.5v-652q0 -299 154.5 -456.5t447.5 -157.5q103 0 201 30
t183.5 96t130.5 160l17 -12q-72 -146 -214.5 -220t-318.5 -74q-226 0 -399 78.5t-267.5 223t-94.5 332.5v617q0 155 -47.5 232t-153.5 77q-159 0 -263.5 -139t-104.5 -361v-827q0 -73 18 -91t92 -18h72v-18h-522zM1227 1473h522v-19h-90q-74 0 -91.5 -17.5t-17.5 -90.5v-818
q0 -118 63.5 -179.5t184.5 -61.5q165 0 251.5 80.5t86.5 234.5v707q0 79 -23.5 112t-93.5 33h-75v19h378v-19h-32q-70 0 -93.5 -33t-23.5 -112v-707q0 -172 -96 -262t-279 -90q-184 0 -295.5 97t-111.5 255v744q0 73 -18.5 90.5t-92.5 17.5h-53v19z" />
    <glyph glyph-name="R_Aacute" unicode="R&#xc1;" horiz-adv-x="2535" 
d="M1686 1550l-19 17l242 284q8 11 20 11q9 0 21 -9l24 -20l-49 -61zM37 0v18h72q73 0 90.5 17.5t17.5 91.5v1219q0 74 -17.5 91t-90.5 17h-72v19h534q246 0 395.5 -125.5t149.5 -329.5q0 -184 -122.5 -304.5t-311.5 -138.5l-41 -2v-12q48 -5 93 -28.5t88 -67t74.5 -82.5
t74.5 -100q38 -54 66 -90t69.5 -79.5t78.5 -69t85 -43t98 -17.5q101 0 163 60t62 160q0 83 -51 135t-137 60h-35l16 37h705l-348 854q-17 40 -17 82h-18q0 -22 -25 -82l-489 -1120l-28 27l554 1276h158v-25q0 -74 18 -119l484 -1184q34 -81 53.5 -104t67.5 -23h16v-18h-391
v18h158v5q-30 11 -64 96l-114 280h-621q59 -24 93 -75.5t34 -119.5q0 -126 -94 -203.5t-246 -77.5q-67 0 -131.5 25t-111.5 58.5t-102.5 93.5t-87 101.5t-81.5 111.5q-46 65 -72 98t-64 74.5t-71 59.5t-66 18h-24v35h94q172 0 277.5 115.5t105.5 304.5q0 188 -105.5 303
t-277.5 115h-213v-2q35 -35 35 -107v-1200q0 -73 18 -91t92 -18h119v-18h-569z" />
    <glyph glyph-name="R_aacute" unicode="R&#xe1;" horiz-adv-x="2301" 
d="M1638 1550l-18 17l242 284q8 11 20 11q9 0 21 -9l24 -20l-49 -61zM1968 971v213q0 131 -59.5 200.5t-171.5 69.5q-148 0 -235 -78.5t-93 -201.5l-6 -127h-37l23 483h20l-6 -109q-3 -49 -8 -65l14 -4q2 7 13 23.5t20 23.5q52 39 129 64.5t164 25.5q194 0 295.5 -85
t101.5 -247v-745q0 -64 12 -84.5t56 -20.5q6 0 19 1t22 1l34 2l1 -18q-128 -13 -226 -45v16q0 50 -19 168.5t-20 149.5h-20q-43 -174 -133.5 -253t-210.5 -79q-174 0 -280.5 86.5t-106.5 228.5q0 182 150.5 294t397.5 112h160zM1968 934h-149q-172 0 -276.5 -101.5
t-104.5 -267.5q0 -117 64 -188.5t169 -71.5q55 0 107 26t95 75.5t69 133.5t26 189v205zM37 0v18h72q73 0 90.5 17.5t17.5 91.5v1219q0 74 -17.5 91t-90.5 17h-72v19h534q246 0 395.5 -125.5t149.5 -329.5q0 -184 -122.5 -304.5t-311.5 -138.5l-41 -2v-12q56 -6 117.5 -52
t159.5 -141q50 -49 81.5 -78t88 -76.5t100.5 -76.5t108 -64.5t123.5 -55.5t134 -34t150.5 -14q247 0 515 84l56 18l5 -18l-57 -18q-410 -132 -654 -132q-89 0 -175 17.5t-153.5 43t-139 69.5t-120 80t-108.5 93.5t-91.5 91t-81.5 89.5q-44 49 -65.5 71.5t-52.5 52t-53.5 41
t-43.5 11.5h-24v35h94q172 0 277.5 115.5t105.5 304.5q0 188 -105.5 303t-277.5 115h-213v-2q35 -35 35 -107v-1200q0 -73 18 -91t92 -18h119v-18h-569z" />
    <glyph glyph-name="R_Adieresis" unicode="R&#xc4;" horiz-adv-x="2535" 
d="M1591 1806q41 0 66.5 -24t25.5 -66q0 -40 -25 -65t-67 -25q-40 0 -65 24t-25 66q0 40 24 65t66 25zM1993 1806q40 0 65 -24t25 -66q0 -40 -24 -65t-66 -25q-41 0 -66.5 24t-25.5 66q0 40 25 65t67 25zM37 0v18h72q73 0 90.5 17.5t17.5 91.5v1219q0 74 -17.5 91t-90.5 17
h-72v19h534q246 0 395.5 -125.5t149.5 -329.5q0 -184 -122.5 -304.5t-311.5 -138.5l-41 -2v-12q48 -5 93 -28.5t88 -67t74.5 -82.5t74.5 -100q38 -54 66 -90t69.5 -79.5t78.5 -69t85 -43t98 -17.5q101 0 163 60t62 160q0 83 -51 135t-137 60h-35l16 37h705l-348 854
q-17 40 -17 82h-18q0 -22 -25 -82l-489 -1120l-28 27l554 1276h158v-25q0 -74 18 -119l484 -1184q34 -81 53.5 -104t67.5 -23h16v-18h-391v18h158v5q-30 11 -64 96l-114 280h-621q59 -24 93 -75.5t34 -119.5q0 -126 -94 -203.5t-246 -77.5q-67 0 -131.5 25t-111.5 58.5
t-102.5 93.5t-87 101.5t-81.5 111.5q-46 65 -72 98t-64 74.5t-71 59.5t-66 18h-24v35h94q172 0 277.5 115.5t105.5 304.5q0 188 -105.5 303t-277.5 115h-213v-2q35 -35 35 -107v-1200q0 -73 18 -91t92 -18h119v-18h-569z" />
    <glyph glyph-name="R_adieresis" unicode="R&#xe4;" horiz-adv-x="2301" 
d="M1561 1806q41 0 66.5 -24t25.5 -66q0 -40 -25 -65t-67 -25q-41 0 -66 24t-25 66q0 40 24.5 65t66.5 25zM1962 1806q40 0 65 -24t25 -66q0 -40 -24 -65t-66 -25q-41 0 -66.5 24t-25.5 66q0 40 25 65t67 25zM1968 971v213q0 131 -59.5 200.5t-171.5 69.5q-148 0 -235 -78.5
t-93 -201.5l-6 -127h-37l23 483h20l-6 -109q-3 -49 -8 -65l14 -4q2 7 13 23.5t20 23.5q52 39 129 64.5t164 25.5q194 0 295.5 -85t101.5 -247v-745q0 -64 12 -84.5t56 -20.5q6 0 19 1t22 1l34 2l1 -18q-128 -13 -226 -45v16q0 50 -19 168.5t-20 149.5h-20
q-43 -174 -133.5 -253t-210.5 -79q-174 0 -280.5 86.5t-106.5 228.5q0 182 150.5 294t397.5 112h160zM1968 934h-149q-172 0 -276.5 -101.5t-104.5 -267.5q0 -117 64 -188.5t169 -71.5q55 0 107 26t95 75.5t69 133.5t26 189v205zM37 0v18h72q73 0 90.5 17.5t17.5 91.5v1219
q0 74 -17.5 91t-90.5 17h-72v19h534q246 0 395.5 -125.5t149.5 -329.5q0 -184 -122.5 -304.5t-311.5 -138.5l-41 -2v-12q56 -6 117.5 -52t159.5 -141q50 -49 81.5 -78t88 -76.5t100.5 -76.5t108 -64.5t123.5 -55.5t134 -34t150.5 -14q247 0 515 84l56 18l5 -18l-57 -18
q-410 -132 -654 -132q-89 0 -175 17.5t-153.5 43t-139 69.5t-120 80t-108.5 93.5t-91.5 91t-81.5 89.5q-44 49 -65.5 71.5t-52.5 52t-53.5 41t-43.5 11.5h-24v35h94q172 0 277.5 115.5t105.5 304.5q0 188 -105.5 303t-277.5 115h-213v-2q35 -35 35 -107v-1200q0 -73 18 -91
t92 -18h119v-18h-569z" />
    <glyph glyph-name="R_Udieresis" unicode="R&#xfc;" horiz-adv-x="2301" 
d="M1587 1806q41 0 66.5 -24t25.5 -66q0 -40 -25 -65t-67 -25q-40 0 -65 24t-25 66q0 40 24 65t66 25zM1989 1806q40 0 65 -24t25 -66q0 -40 -24 -65t-66 -25q-41 0 -67 24t-26 66q0 40 25.5 65t67.5 25zM1180 1473h522v-19h-90q-74 0 -91.5 -17.5t-17.5 -90.5v-818
q0 -118 63.5 -179.5t184.5 -61.5q165 0 251.5 80.5t86.5 234.5v707q0 79 -23.5 112t-93.5 33h-76v19h379v-19h-32q-70 0 -93.5 -33t-23.5 -112v-707q0 -172 -96 -262t-279 -90q-184 0 -296 97t-112 255v744q0 73 -18 90.5t-92 17.5h-53v19zM37 0v18h72q73 0 90.5 17.5
t17.5 91.5v1219q0 74 -17.5 91t-90.5 17h-72v19h534q246 0 395.5 -125.5t149.5 -329.5q0 -184 -122.5 -304.5t-311.5 -138.5l-41 -2v-12q134 -14 221 -140q7 -9 19.5 -25.5t55 -63.5t89 -89.5t118.5 -95t145.5 -90t168.5 -63t190 -25.5q300 0 565 226l45 39l11 -15l-45 -39
q-61 -53 -129 -98.5t-153.5 -87.5t-185.5 -66t-201 -24q-432 0 -820 447l-43 51q-48 58 -74 85.5t-62.5 51.5t-70.5 24h-24v35h94q172 0 277.5 115.5t105.5 304.5q0 188 -105.5 303t-277.5 115h-213v-2q35 -35 35 -107v-1200q0 -73 18 -91t92 -18h119v-18h-569z" />
    <glyph glyph-name="R_Odieresis" unicode="R&#xd6;" horiz-adv-x="2564" 
d="M1706 1806q41 0 66.5 -24t25.5 -66q0 -40 -25 -65t-67 -25q-40 0 -65 24t-25 66q0 40 24 65t66 25zM2107 1806q41 0 66 -24t25 -66q0 -40 -24.5 -65t-66.5 -25q-41 0 -66.5 24t-25.5 66q0 40 25 65t67 25zM1905 250q-278 0 -447.5 170.5t-169.5 449.5q0 278 170 448.5
t447 170.5q275 0 443.5 -170.5t168.5 -448.5q0 -279 -168.5 -449.5t-443.5 -170.5zM1911 287q209 0 318.5 139.5t109.5 404.5q0 302 -113.5 461.5t-329.5 159.5q-210 0 -320 -139.5t-110 -405.5q0 -302 114 -461t331 -159zM37 0v18h72q73 0 90.5 17.5t17.5 91.5v1219
q0 74 -17.5 91t-90.5 17h-72v19h534q246 0 395.5 -125.5t149.5 -329.5q0 -184 -122.5 -304.5t-311.5 -138.5l-41 -2v-12q60 -6 111 -41t110 -99q115 -127 239.5 -219t243 -142.5t225.5 -73.5t212 -23q117 0 231 26.5t198.5 67.5t138.5 75t88 63l45 39l11 -15l-45 -39
q-144 -124 -346 -200t-422 -76q-120 0 -239.5 24.5t-242 76t-242 139.5t-222.5 207l-43 51q-48 58 -74 85.5t-62.5 51.5t-70.5 24h-24v35h94q172 0 277.5 115.5t105.5 304.5q0 188 -105.5 303t-277.5 115h-213v-2q35 -35 35 -107v-1200q0 -73 18 -91t92 -18h119v-18h-569z
" />
    <glyph glyph-name="m_udieresis" unicode="m&#xdc;" horiz-adv-x="2889" 
d="M2177 1806q41 0 66.5 -24t25.5 -66q0 -40 -25 -65t-67 -25q-40 0 -65 24t-25 66q0 40 24 65t66 25zM2578 1806q41 0 66 -24t25 -66q0 -40 -24.5 -65t-66.5 -25q-41 0 -66.5 24t-25.5 66q0 40 25 65t67 25zM37 0v18h72q73 0 90.5 17.5t17.5 91.5v1167q0 28 -19 47t-49 19
h-8l-121 -10l-2 12l158 33q65 13 104 51t39 98v8h17v-268q0 -148 -4 -188h18q11 80 33 141q96 252 324 252q150 0 211 -71.5t61 -198.5v-123h8q3 44 22 107t29 83q53 100 124.5 151.5t178.5 51.5q137 0 221.5 -71t84.5 -201v-689q0 -299 154.5 -456.5t447.5 -157.5
q103 0 201 30t183.5 96t130.5 160l17 -12q-72 -146 -214.5 -220t-318.5 -74q-226 0 -399 78.5t-267.5 223t-94.5 332.5v670q0 121 -45.5 188.5t-118.5 67.5q-140 0 -225.5 -130t-85.5 -343v-854q0 -73 18 -91t92 -18h54v-18h-443v18h137v5q-11 11 -14.5 20t-3.5 33v1122
q0 121 -45.5 188.5t-118.5 67.5q-140 0 -225.5 -130t-85.5 -343v-854q0 -73 18 -91t92 -18h72v-18h-522zM1767 1473h523v-19h-90q-74 0 -91.5 -17.5t-17.5 -90.5v-818q0 -118 63.5 -179.5t184.5 -61.5q165 0 251.5 80.5t86.5 234.5v707q0 79 -23.5 112t-93.5 33h-76v19h379
v-19h-33q-70 0 -93 -33t-23 -112v-707q0 -172 -96 -262t-279 -90q-184 0 -296 97t-112 255v744q0 73 -18 90.5t-92 17.5h-54v19z" />
    <glyph glyph-name="n_udieresis" unicode="n&#xdc;" horiz-adv-x="2349" 
d="M1636 1806q41 0 67 -24t26 -66q0 -40 -25.5 -65t-67.5 -25q-40 0 -65 24t-25 66q0 40 24 65t66 25zM2038 1806q40 0 65 -24t25 -66q0 -40 -24 -65t-66 -25q-41 0 -66.5 24t-25.5 66q0 40 25 65t67 25zM37 0v18h72q73 0 90.5 17.5t17.5 91.5v1167q0 28 -19 47t-49 19h-8
l-121 -10l-2 12l158 33q66 13 109 51t43 98v8h16v-268q0 -179 -4 -215h14q6 54 33 133q44 131 146 209t229 78q163 0 253.5 -83.5t90.5 -225.5v-652q0 -299 154.5 -456.5t447.5 -157.5q103 0 201 30t183.5 96t130.5 160l17 -12q-72 -146 -214.5 -220t-318.5 -74
q-226 0 -399 78.5t-267.5 223t-94.5 332.5v617q0 155 -47.5 232t-153.5 77q-159 0 -263.5 -139t-104.5 -361v-827q0 -73 18 -91t92 -18h72v-18h-522zM1227 1473h522v-19h-90q-74 0 -91.5 -17.5t-17.5 -90.5v-818q0 -118 63.5 -179.5t184.5 -61.5q165 0 251.5 80.5
t86.5 234.5v707q0 79 -23.5 112t-93.5 33h-75v19h378v-19h-32q-70 0 -93.5 -33t-23.5 -112v-707q0 -172 -96 -262t-279 -90q-184 0 -295.5 97t-111.5 255v744q0 73 -18.5 90.5t-92.5 17.5h-53v19z" />
    <glyph glyph-name="m_odieresis" unicode="m&#xf6;" horiz-adv-x="3168" 
d="M2292 1806q41 0 66.5 -24t25.5 -66q0 -40 -25 -65t-67 -25q-40 0 -65 24t-25 66q0 40 24 65t66 25zM2693 1806q40 0 65 -24t25 -66q0 -40 -24 -65t-66 -25q-41 0 -66.5 24t-25.5 66q0 40 25 65t67 25zM37 0v18h72q73 0 90.5 17.5t17.5 91.5v1167q0 28 -19 47t-49 19h-8
l-121 -10l-2 12l158 33q65 13 104 51t39 98v8h17v-268q0 -148 -4 -188h18q11 80 33 141q96 252 324 252q150 0 211 -71.5t61 -198.5v-123h8q3 44 22 107t29 83q53 100 124.5 151.5t178.5 51.5q137 0 221.5 -71t84.5 -201v-607q0 -313 211.5 -504.5t557.5 -191.5
q196 0 362 73.5t232 208.5l17 -8q-71 -143 -247 -222t-396 -79q-266 0 -470 100t-315.5 283t-111.5 422v506q0 121 -45.5 188.5t-118.5 67.5q-140 0 -225.5 -130t-85.5 -343v-854q0 -73 18 -91t92 -18h54v-18h-443v18h137v5q-11 11 -14.5 20t-3.5 33v1122q0 121 -45.5 188.5
t-118.5 67.5q-140 0 -225.5 -130t-85.5 -343v-854q0 -73 18 -91t92 -18h72v-18h-522zM2492 250q-277 0 -446.5 170.5t-169.5 449.5q0 278 169.5 448.5t446.5 170.5q275 0 444 -170.5t169 -448.5q0 -279 -169 -449.5t-444 -170.5zM2499 287q209 0 318.5 139.5t109.5 404.5
q0 302 -113.5 461.5t-329.5 159.5q-210 0 -320 -139.5t-110 -405.5q0 -302 114 -461t331 -159z" />
    <glyph glyph-name="n_odieresis" unicode="n&#xd6;" horiz-adv-x="2627" 
d="M1749 1806q41 0 66.5 -24t25.5 -66q0 -40 -25 -65t-67 -25q-40 0 -65 24t-25 66q0 40 24 65t66 25zM2150 1806q41 0 66 -24t25 -66q0 -40 -24.5 -65t-66.5 -25q-41 0 -66.5 24t-25.5 66q0 40 25 65t67 25zM37 0v18h72q73 0 90.5 17.5t17.5 91.5v1167q0 28 -19 47t-49 19
h-8l-121 -10l-2 12l158 33q66 13 109 51t43 98v8h16v-268q0 -179 -4 -215h14q6 54 33 133q44 131 146 209t229 78q163 0 253.5 -83.5t90.5 -225.5v-570q0 -313 211.5 -504.5t557.5 -191.5q196 0 362.5 73.5t232.5 208.5l16 -8q-71 -143 -247 -222t-396 -79q-266 0 -470 100
t-315.5 282.5t-111.5 420.5v455q0 155 -47.5 232t-153.5 77q-159 0 -263.5 -139t-104.5 -361v-827q0 -73 18 -91t92 -18h72v-18h-522zM1952 250q-278 0 -447.5 170.5t-169.5 449.5q0 278 170 448.5t447 170.5q275 0 443.5 -170.5t168.5 -448.5q0 -279 -168.5 -449.5
t-443.5 -170.5zM1958 287q209 0 318.5 139.5t109.5 404.5q0 303 -113 462t-329 159q-210 0 -320.5 -139.5t-110.5 -405.5q0 -302 114 -461t331 -159z" />
    <glyph glyph-name="K_Odieresis" unicode="K&#xf6;" horiz-adv-x="2560" 
d="M1698 1806q41 0 66.5 -24t25.5 -66q0 -40 -25 -65t-67 -25q-40 0 -65 24t-25 66q0 40 24 65t66 25zM2099 1806q40 0 65 -24t25 -66q0 -40 -24 -65t-66 -25q-41 0 -66.5 24t-25.5 66q0 40 25 65t67 25zM1884 250q-277 0 -446.5 170.5t-169.5 449.5q0 278 169.5 448.5
t446.5 170.5q275 0 444 -170.5t169 -448.5q0 -279 -169 -449.5t-444 -170.5zM1890 287q209 0 318.5 139.5t109.5 404.5q0 303 -113 462t-329 159q-210 0 -320 -139.5t-110 -405.5q0 -302 113.5 -461t330.5 -159zM37 0v18h72q73 0 90.5 20.5t18.5 106.5v1201q-1 74 -18.5 91
t-90.5 17h-71v19h469v-19h-19q-75 0 -92.5 -16.5t-17.5 -87.5v-465q59 0 89 5.5t43 22.5l324 408q37 47 37 77q0 56 -106 56h-19v19h463v-19h-35q-80 0 -161 -33t-140 -108l-325 -412l2 -8q56 -13 109.5 -42.5t92.5 -62t87.5 -89t77 -95.5t78.5 -110q38 -54 61 -86
t62.5 -82.5t69.5 -82t74.5 -74t84.5 -68.5t93 -54.5t106 -44.5t117.5 -26.5t134.5 -10.5q89 0 181 19t162 46t134.5 61t101.5 59t61 45l45 39l11 -15l-45 -39q-57 -48 -131.5 -94.5t-168 -88.5t-205.5 -68t-220 -26q-143 0 -271.5 41.5t-215 95t-182 152t-143 161
t-126.5 175.5q-42 60 -64.5 90.5t-59.5 78t-63 71.5t-60 50t-67.5 37t-69.5 11h-24v-721q0 -1 -0.5 -4t-0.5 -5q0 -79 19 -98.5t92 -19.5h72v-18h-523z" />
    <glyph glyph-name="K_Udieresis" unicode="K&#xdc;" horiz-adv-x="2347" 
d="M1630 1806q41 0 66.5 -24t25.5 -66q0 -40 -25 -65t-67 -25q-40 0 -65 24t-25 66q0 40 24 65t66 25zM2032 1806q40 0 65 -24t25 -66q0 -40 -24 -65t-66 -25q-41 0 -67 24t-26 66q0 40 25.5 65t67.5 25zM1251 1473h492v-19h-90q-74 0 -91.5 -17.5t-17.5 -90.5v-818
q0 -118 63.5 -179.5t184.5 -61.5q165 0 251.5 80.5t86.5 234.5v707q0 79 -23.5 112t-93.5 33h-76v19h379v-19h-32q-70 0 -93.5 -33t-23.5 -112v-707q0 -172 -96 -262t-279 -90q-184 0 -296 97t-112 255v744q0 73 -18 90.5t-92 17.5h-23v19zM402 866h-25v-721
q0 -85 18.5 -106t91.5 -21h73v-18h-523v18h72q73 0 90.5 20.5t18.5 106.5v1201q-1 74 -18.5 91t-90.5 17h-71v19h468v-19h-19q-74 0 -92 -17.5t-18 -90.5v-461q60 0 90 5.5t43 22.5l324 408q37 47 37 77q0 56 -106 56h-19v19h443v-19h-15q-80 0 -161 -33t-140 -108
l-325 -412l2 -8q68 -15 123.5 -52t102.5 -97.5t78 -114t74 -138.5q26 -51 44 -85.5t47 -83t53.5 -81.5t60.5 -73.5t71 -67.5t81.5 -54.5t95.5 -44t110.5 -26.5t128.5 -10q321 0 593 230l45 39l11 -15l-45 -39q-60 -51 -125.5 -95t-153 -87.5t-193 -69t-213.5 -25.5
q-80 0 -152 13t-130 32t-113 53.5t-94.5 65.5t-82 81t-69 86t-61 95t-52.5 93.5t-48 94.5q-27 53 -41 80t-39 71t-42.5 67t-44 52.5t-50.5 43.5t-54.5 24.5t-63.5 10.5z" />
    <glyph glyph-name="G_Adieresis" unicode="G&#xc4;" horiz-adv-x="2875" 
d="M1935 1806q41 0 67 -24t26 -66q0 -40 -25.5 -65t-67.5 -25q-40 0 -65 24t-25 66q0 40 24 65t66 25zM2337 1806q40 0 65 -24t25 -66q0 -40 -24 -65t-66 -25q-41 0 -66.5 24t-25.5 66q0 40 25 65t67 25zM1319 0v18h53q35 0 60 32t53 95l182 420h-360v-219
q-31 -55 -80 -118.5t-80 -94.5q-68 -72 -163.5 -110.5t-201.5 -38.5q-322 0 -518 208t-196 549q0 222 87.5 392t247 263t367.5 93q222 0 375 -129q14 -12 22 -39l9 2q-7 28 -7 47l-10 200l21 1l32 -631l-34 -2l-9 135q-11 173 -133 276t-286 103q-245 0 -374.5 -173.5
t-129.5 -504.5q0 -367 139.5 -560.5t405.5 -193.5q106 2 199.5 44t154.5 124v187q0 86 -52.5 138t-138.5 52h-237v37h966l377 871h158v-25q0 -74 18 -119l484 -1184q34 -81 53.5 -104t67.5 -23h16v-18h-391v18h157v5q-29 11 -63 96l-477 1171q-17 40 -17 82h-18
q0 -22 -25 -82l-300 -688h518l14 -37h-548l-183 -420q-11 -27 -11 -46q0 -36 27 -58.5t72 -22.5h100v-18h-393z" />
    <glyph glyph-name="Adieresis_S" unicode="&#xc4;s" horiz-adv-x="2265" 
d="M616 1806q41 0 67 -24t26 -66q0 -40 -25.5 -65t-67.5 -25q-40 0 -65 24t-25 66q0 40 24 65t66 25zM1018 1806q40 0 65 -24t25 -66q0 -40 -24 -65t-66 -25q-41 0 -66.5 24t-25.5 66q0 40 25 65t67 25zM16 0v18h33q35 0 60 32t53 95l575 1328h158v-25q0 -74 18 -119
l373 -914q80 -195 183 -295t244 -100q156 0 251.5 82.5t95.5 216.5q0 52 -18 99t-44.5 83t-71 74t-83 63.5t-94.5 59.5q-50 30 -76.5 47t-71.5 48.5t-70 55.5t-57 60.5t-48 71.5t-28 80.5t-12 95.5q0 149 111 240.5t293 91.5q151 0 272 -90q9 -7 20 -23.5t13 -23.5l14 4
q-5 16 -8 65l-6 109h21l22 -483l-37 -2l-4 86q-3 63 -23 119t-56.5 102t-95.5 73t-132 27q-125 0 -192.5 -64.5t-67.5 -185.5q0 -41 10.5 -77.5t35.5 -69.5t47 -56.5t66 -54.5t69.5 -47.5t79.5 -48.5q67 -40 110.5 -69.5t99 -77.5t88 -95t55.5 -113.5t23 -140.5
q0 -166 -137 -267t-361 -101q-60 0 -118.5 9.5t-128 37.5t-129.5 72.5t-118 120.5t-99 175h-811l-111 -254q-11 -27 -11 -46q0 -36 27 -58.5t72 -22.5h100v-18h-373zM328 436h780l-348 854q-17 40 -17 82h-18q0 -22 -25 -82z" />
    <glyph glyph-name="R_Sacute" unicode="R&#x15b;" horiz-adv-x="2197" 
d="M1595 1550l-18 17l242 284q8 11 20 11q9 0 21 -9l24 -20l-49 -61zM37 0v18h72q73 0 90.5 17.5t17.5 91.5v1219q0 74 -17.5 91t-90.5 17h-72v19h534q245 0 395 -119.5t150 -315.5q0 -182 -121 -293t-313 -129l-41 -2v-12q68 -7 144.5 -62.5t191.5 -163.5
q69 -65 111.5 -102.5t115.5 -92.5t131.5 -85t135 -53t151.5 -23q181 0 276 90t95 261q0 35 -10 67.5t-23 58t-40 53.5t-48 46t-60 43.5t-62.5 39.5t-68.5 40q-38 22 -59.5 34.5t-57 35.5t-56.5 38.5t-50.5 40.5t-46.5 46.5t-37 50t-30.5 57t-17.5 63.5t-7 72
q0 149 111 240.5t292 91.5q152 0 273 -90q9 -7 20 -23.5t13 -23.5l14 4q-5 16 -8 65l-6 109h20l23 -483l-37 -2l-4 86q-3 63 -23.5 119t-57 102t-95.5 73t-132 27q-125 0 -192.5 -64.5t-67.5 -185.5q0 -33 9.5 -64t22.5 -55.5t39.5 -51t47 -44t58.5 -42t61.5 -38.5t67.5 -39
q51 -29 79 -46t74.5 -48t73 -55.5t59 -61t50 -72.5t30 -83.5t12.5 -98.5q0 -189 -152 -304t-401 -115q-96 0 -188.5 17.5t-165 42.5t-148.5 68t-128 79t-114 91t-95.5 88t-83.5 85q-74 77 -118 113t-77 36h-14v35h94q187 0 285 102t98 297q0 194 -98 296t-285 102h-213v-2
q35 -35 35 -107v-1200q0 -73 18 -91t92 -18h119v-18h-569z" />
    <glyph glyph-name="R_Cacute" unicode="R&#x107;" horiz-adv-x="2473" 
d="M1800 1550l-18 17l241 284q8 11 21 11q8 0 20 -9l25 -20l-49 -61zM2422 197q-123 -136 -319 -214.5t-422 -78.5q-120 0 -239.5 24.5t-242 76t-242 139.5t-222.5 207l-43 51q-47 56 -74.5 84.5t-64 52.5t-68.5 24h-24v35h94q172 0 277.5 115.5t105.5 304.5
q0 188 -105.5 303t-277.5 115h-213v-2q35 -35 35 -107v-1200q0 -73 18 -91t92 -18h119v-18h-569v18h72q73 0 90.5 17.5t17.5 91.5v1219q0 74 -17.5 91t-90.5 17h-72v19h534q246 0 395.5 -125.5t149.5 -329.5q0 -184 -122.5 -304.5t-311.5 -138.5l-41 -2v-12q60 -6 111 -41
t110 -99q115 -127 239.5 -219t243 -142.5t225.5 -73.5t212 -23q117 0 228 28t189.5 70.5t129.5 79.5t80 69zM2363 938l-36 -1l-7 189q-5 89 -65 165.5t-152.5 119.5t-193.5 43q-216 0 -329.5 -144t-113.5 -418q0 -295 119 -450t346 -155q149 0 276 76t179 203l35 -13
q-58 -148 -192 -225.5t-302 -77.5q-288 0 -463.5 171t-175.5 451q0 278 175.5 447.5t461.5 169.5q222 0 375 -131q14 -14 22 -41l15 4q-4 16 -6 59l-4 149l18 1z" />
    <glyph glyph-name="n_Adieresis" unicode="n&#xc4;" horiz-adv-x="2637" 
d="M1694 1806q41 0 66.5 -24t25.5 -66q0 -40 -25 -65t-67 -25q-40 0 -65 24t-25 66q0 40 24 65t66 25zM2095 1806q40 0 65 -24t25 -66q0 -40 -24 -65t-66 -25q-41 0 -66.5 24t-25.5 66q0 40 25 65t67 25zM37 0v18h72q73 0 90.5 17.5t17.5 91.5v1167q0 28 -19 47t-49 19h-8
l-121 -10l-2 12l158 33q66 13 109 51t43 98v8h16v-268q0 -179 -4 -215h14q6 54 33 133q44 131 146 209t229 78q163 0 253.5 -83.5t90.5 -225.5v-795q0 -166 108.5 -283.5t260.5 -117.5q100 0 170.5 64.5t70.5 155.5q0 83 -51 135t-137 60h-55l16 37h704l-348 854
q-16 38 -16 82h-19q0 -25 -24 -82l-490 -1120l-27 27l553 1276h158v-25q0 -72 19 -119l483 -1184q34 -81 53.5 -104t67.5 -23h16v-18h-391v18h158v5q-30 11 -64 96l-114 280h-600q59 -24 93 -75.5t34 -119.5q0 -115 -92 -197.5t-220 -82.5q-129 0 -239 75t-174 204.5
t-64 281.5v660q0 155 -47.5 232t-153.5 77q-159 0 -263.5 -139t-104.5 -361v-827q0 -73 18 -91t92 -18h72v-18h-522z" />
    <glyph glyph-name="m_Adieresis" unicode="m&#xc4;" horiz-adv-x="3178" 
d="M2243 1806q41 0 66.5 -24t25.5 -66q0 -40 -25 -65t-67 -25q-41 0 -66 24t-25 66q0 40 24.5 65t66.5 25zM2644 1806q40 0 65 -24t25 -66q0 -40 -24 -65t-66 -25q-41 0 -66.5 24t-25.5 66q0 40 25 65t67 25zM37 0v18h72q73 0 90.5 17.5t17.5 91.5v1167q0 28 -19 47t-49 19
h-8l-121 -10l-2 12l158 33q65 13 104 51t39 98v8h17v-268q0 -148 -4 -188h18q11 80 33 141q96 252 324 252q150 0 211 -71.5t61 -198.5v-123h8q3 44 22 107t29 83q53 100 124.5 151.5t178.5 51.5q137 0 221.5 -71t84.5 -201v-832q0 -166 108 -283.5t260 -117.5
q100 0 170.5 64.5t70.5 155.5q0 83 -50.5 135t-136.5 60h-56l17 37h704l-348 854q-16 38 -16 82h-19q0 -25 -24 -82l-490 -1120l-28 27l554 1276h158v-25q0 -72 19 -119l483 -1184q34 -81 53.5 -104t67.5 -23h16v-18h-391v18h158v5q-30 11 -64 96l-114 280h-601
q59 -24 93 -75.5t34 -119.5q0 -115 -91.5 -197.5t-219.5 -82.5q-129 0 -239 75t-174 204.5t-64 281.5v713q0 121 -45.5 188.5t-118.5 67.5q-140 0 -225.5 -130t-85.5 -343v-854q0 -73 18 -91t92 -18h54v-18h-443v18h137v5q-11 11 -14.5 20t-3.5 33v1122q0 121 -45.5 188.5
t-118.5 67.5q-140 0 -225.5 -130t-85.5 -343v-854q0 -73 18 -91t92 -18h72v-18h-522z" />
    <glyph glyph-name="K_Adieresis" unicode="K&#xc4;" horiz-adv-x="2473" 
d="M1538 1806q41 0 66.5 -24t25.5 -66q0 -40 -25 -65t-67 -25q-40 0 -65 24t-25 66q0 40 24 65t66 25zM1939 1806q41 0 66 -24t25 -66q0 -40 -24.5 -65t-66.5 -25q-41 0 -66.5 24t-25.5 66q0 40 25 65t67 25zM37 0v18h72q73 0 90.5 20.5t17.5 106.5v1201q0 74 -17.5 91
t-90.5 17h-71v19h469v-19h-19q-74 0 -92.5 -17.5t-18.5 -90.5v-461q60 0 90 5.5t43 22.5l324 408q37 47 37 77q0 56 -106 56h-19v19h453v-19h-25q-80 0 -161 -33t-140 -108l-325 -412l2 -8q51 -12 96 -36.5t77.5 -52.5t63 -72t50 -78.5t40.5 -90t32 -89t29 -91.5
q17 -55 28 -88t30.5 -80.5t38 -76t47 -61.5t61 -51t77 -30t97.5 -12q106 0 170.5 60t64.5 160q0 83 -51 135t-137 60h-55l16 37h704l-348 854q-16 38 -16 82h-18q0 -22 -25 -82l-490 -1120l-27 27l553 1276h159v-25q0 -74 18 -119l483 -1184q34 -81 53.5 -104t67.5 -23h17
v-18h-392v18h158v5q-29 11 -63 96l-115 280h-600q59 -24 93 -75.5t34 -119.5q0 -126 -86.5 -203.5t-226.5 -77.5q-62 0 -116.5 15.5t-96 40t-78 64t-62.5 79t-50.5 94t-41 100t-34.5 104.5q-15 49 -23.5 75.5t-24 71.5t-27.5 70.5t-31.5 61.5t-37.5 56.5t-43.5 44.5
t-53 36.5t-62.5 21t-74 8.5h-25v-721q0 -86 18.5 -106.5t92.5 -20.5h72v-18h-523z" />
    <glyph glyph-name="Z_Adieresis" unicode="Z&#xc4;" horiz-adv-x="2299" 
d="M1368 1806q41 0 66.5 -24t25.5 -66q0 -40 -25 -65t-67 -25q-40 0 -65 24t-25 66q0 40 24 65t66 25zM1769 1806q41 0 66 -24t25 -66q0 -40 -24.5 -65t-66.5 -25q-41 0 -66.5 24t-25.5 66q0 40 25 65t67 25zM0 0v18q26 0 67.5 40.5t79.5 119.5l537 1127q22 46 65 81.5
t82 45.5v6h-401q-79 0 -128.5 -9t-88 -35t-57 -73t-23.5 -123l-2 -40l-14 1l22 434l15 -2l-7 -137q11 11 21 15t33 4h796v-19q-22 0 -62.5 -40t-78.5 -120l-537 -1122q-45 -92 -98 -129v-6h801q80 0 135 9.5t102 34t73 72t34 119.5l6 56q1 8 1 23q0 73 -44 118.5t-122 52.5
h-25l12 35h612l-299 733q-16 38 -16 82h-18q0 -22 -25 -82l-438 -1001q-39 -89 -39 -146h-88q54 69 88 146l513 1184h158v-25q0 -72 19 -119l483 -1184q34 -81 53.5 -104t67.5 -23h16v-18h-391v18h158v5q-29 11 -63 96l-165 403h-534q58 -24 93.5 -84.5t35.5 -128.5
q0 -3 -0.5 -8.5t-0.5 -8.5l-32 -396l-20 2l8 120h-2q-11 -11 -21 -14.5t-34 -3.5h-1313z" />
    <glyph glyph-name="m_Aacute" unicode="m&#xc1;" horiz-adv-x="3178" 
d="M2331 1550l-19 17l242 284q8 11 20 11q9 0 21 -9l24 -20l-49 -61zM37 0v18h72q73 0 90.5 17.5t17.5 91.5v1167q0 28 -19 47t-49 19h-8l-121 -10l-2 12l158 33q65 13 104 51t39 98v8h17v-268q0 -148 -4 -188h18q11 80 33 141q96 252 324 252q150 0 211 -71.5t61 -198.5
v-123h8q3 44 22 107t29 83q53 100 124.5 151.5t178.5 51.5q137 0 221.5 -71t84.5 -201v-832q0 -166 108 -283.5t260 -117.5q100 0 170.5 64.5t70.5 155.5q0 83 -50.5 135t-136.5 60h-56l17 37h704l-348 854q-16 38 -16 82h-19q0 -25 -24 -82l-490 -1120l-28 27l554 1276h158
v-25q0 -72 19 -119l483 -1184q34 -81 53.5 -104t67.5 -23h16v-18h-391v18h158v5q-30 11 -64 96l-114 280h-601q59 -24 93 -75.5t34 -119.5q0 -115 -91.5 -197.5t-219.5 -82.5q-129 0 -239 75t-174 204.5t-64 281.5v713q0 121 -45.5 188.5t-118.5 67.5q-140 0 -225.5 -130
t-85.5 -343v-854q0 -73 18 -91t92 -18h54v-18h-443v18h137v5q-11 11 -14.5 20t-3.5 33v1122q0 121 -45.5 188.5t-118.5 67.5q-140 0 -225.5 -130t-85.5 -343v-854q0 -73 18 -91t92 -18h72v-18h-522z" />
    <glyph glyph-name="n_Aacute" unicode="n&#xc1;" horiz-adv-x="2637" 
d="M1784 1550l-19 17l242 284q8 11 20 11q9 0 21 -9l25 -20l-50 -61zM37 0v18h72q73 0 90.5 17.5t17.5 91.5v1167q0 28 -19 47t-49 19h-8l-121 -10l-2 12l158 33q66 13 109 51t43 98v8h16v-268q0 -179 -4 -215h14q6 54 33 133q44 131 146 209t229 78q163 0 253.5 -83.5
t90.5 -225.5v-795q0 -166 108.5 -283.5t260.5 -117.5q100 0 170.5 64.5t70.5 155.5q0 83 -51 135t-137 60h-55l16 37h704l-348 854q-16 38 -16 82h-19q0 -25 -24 -82l-490 -1120l-27 27l553 1276h158v-25q0 -72 19 -119l483 -1184q34 -81 53.5 -104t67.5 -23h16v-18h-391v18
h158v5q-30 11 -64 96l-114 280h-600q59 -24 93 -75.5t34 -119.5q0 -115 -92 -197.5t-220 -82.5q-129 0 -239 75t-174 204.5t-64 281.5v660q0 155 -47.5 232t-153.5 77q-159 0 -263.5 -139t-104.5 -361v-827q0 -73 18 -91t92 -18h72v-18h-522z" />
    <glyph glyph-name="K_e" unicode="Ke" horiz-adv-x="2502" 
d="M1442 932v-25q0 -303 113 -461.5t329 -158.5q181 0 316 79.5t203 222.5l31 -21q-74 -150 -217 -234t-333 -84q-278 0 -447 171.5t-169 452.5q0 277 171 446t451 169q244 0 393.5 -134.5t149.5 -353.5v-10q0 -25 -18 -42t-45 -17h-928zM1443 969l804 14q16 0 16 18
q0 203 -104.5 327t-276.5 124q-204 0 -315 -123t-124 -360zM2449 180q-57 -48 -131.5 -94.5t-168 -88.5t-205.5 -68t-220 -26q-143 0 -271.5 41.5t-215 94.5t-181.5 151.5t-143.5 161.5t-126.5 175q-41 59 -64.5 91t-60 78.5t-63 71t-60.5 50.5t-67.5 37t-69.5 11h-24v-721
q0 -86 18 -106.5t92 -20.5h73v-18h-523v18h72q73 0 90.5 20.5t18.5 106.5v1201q-1 74 -18.5 91t-90.5 17h-71v19h469v-19h-20q-74 0 -92 -17.5t-18 -90.5v-461q60 0 90 5.5t43 22.5l324 408q37 47 37 77q0 56 -106 56h-19v19h463v-19h-35q-80 0 -161 -33t-140 -108
l-325 -412l2 -8q56 -13 109.5 -42.5t92.5 -62t87.5 -89t77 -95.5t78.5 -110q38 -54 61 -86t62.5 -82.5t69.5 -82t74.5 -74t84.5 -68.5t93 -54.5t106 -44.5t117.5 -26.5t134.5 -10.5q89 0 181 19t162 46t134.5 61t101.5 59t61 45z" />
    <glyph glyph-name="R_S" unicode="Rs" horiz-adv-x="2197" 
d="M37 0v18h72q73 0 90.5 17.5t17.5 91.5v1219q0 74 -17.5 91t-90.5 17h-72v19h534q245 0 395 -119.5t150 -315.5q0 -182 -121 -293t-313 -129l-41 -2v-12q68 -7 144.5 -62.5t191.5 -163.5q69 -65 111.5 -102.5t115.5 -92.5t131.5 -85t135 -53t151.5 -23q181 0 276 90
t95 261q0 35 -10 67.5t-23 58t-40 53.5t-48 46t-60 43.5t-62.5 39.5t-68.5 40q-38 22 -59.5 34.5t-57 35.5t-56.5 38.5t-50.5 40.5t-46.5 46.5t-37 50t-30.5 57t-17.5 63.5t-7 72q0 149 111 240.5t292 91.5q152 0 273 -90q9 -7 20 -23.5t13 -23.5l14 4q-5 16 -8 65l-6 109
h20l23 -483l-37 -2l-4 86q-3 63 -23.5 119t-57 102t-95.5 73t-132 27q-125 0 -192.5 -64.5t-67.5 -185.5q0 -33 9.5 -64t22.5 -55.5t39.5 -51t47 -44t58.5 -42t61.5 -38.5t67.5 -39q51 -29 79 -46t74.5 -48t73 -55.5t59 -61t50 -72.5t30 -83.5t12.5 -98.5q0 -189 -152 -304
t-401 -115q-96 0 -188.5 17.5t-165 42.5t-148.5 68t-128 79t-114 91t-95.5 88t-83.5 85q-74 77 -118 113t-77 36h-14v35h94q187 0 285 102t98 297q0 194 -98 296t-285 102h-213v-2q35 -35 35 -107v-1200q0 -73 18 -91t92 -18h119v-18h-569z" />
    <glyph glyph-name="R_C" unicode="Rc" horiz-adv-x="2473" 
d="M2422 197q-123 -136 -319 -214.5t-422 -78.5q-120 0 -239.5 24.5t-242 76t-242 139.5t-222.5 207l-43 51q-47 56 -74.5 84.5t-64 52.5t-68.5 24h-24v35h94q172 0 277.5 115.5t105.5 304.5q0 188 -105.5 303t-277.5 115h-213v-2q35 -35 35 -107v-1200q0 -73 18 -91t92 -18
h119v-18h-569v18h72q73 0 90.5 17.5t17.5 91.5v1219q0 74 -17.5 91t-90.5 17h-72v19h534q246 0 395.5 -125.5t149.5 -329.5q0 -184 -122.5 -304.5t-311.5 -138.5l-41 -2v-12q60 -6 111 -41t110 -99q115 -127 239.5 -219t243 -142.5t225.5 -73.5t212 -23q117 0 228 28
t189.5 70.5t129.5 79.5t80 69zM2363 938l-36 -1l-7 189q-5 89 -65 165.5t-152.5 119.5t-193.5 43q-216 0 -329.5 -144t-113.5 -418q0 -295 119 -450t346 -155q149 0 276 76t179 203l35 -13q-58 -148 -192 -225.5t-302 -77.5q-288 0 -463.5 171t-175.5 451q0 278 175.5 447.5
t461.5 169.5q222 0 375 -131q14 -14 22 -41l15 4q-4 16 -6 59l-4 149l18 1z" />
    <glyph glyph-name="L_Iacute" unicode="L&#xed;" horiz-adv-x="1280" 
d="M752 1550l-19 17l242 284q8 11 20 11q9 0 21 -9l24 -20l-49 -61zM621 328v18h51q74 0 91 17t17 90v895q0 73 -17 89.5t-91 16.5h-31v19h451v-23h-41q-74 0 -92.5 -17t-18.5 -90v-890q0 -73 18.5 -90t92.5 -17h20v-18h-450zM37 0v18h72q71 0 89.5 23t18.5 100v1207
q0 73 -17 89.5t-91 16.5h-72v19h481v-19h-31q-74 0 -92 -16.5t-18 -89.5v-1203q0 -61 -45 -106v-2h502q80 0 135.5 9.5t103 34t73.5 72t32 119.5l16 205h41l-41 -581l-20 2l8 120h-2q-18 -18 -56 -18h-1087z" />
    <glyph glyph-name="n_Iacute" unicode="n&#xed;" horiz-adv-x="1898" 
d="M1485 1550l-19 17l242 284q8 11 20 11q9 0 21 -9l25 -20l-50 -61zM37 0v18h72q73 0 90.5 17.5t17.5 91.5v1167q0 28 -19 47t-49 19h-8l-121 -10l-2 12l158 33q67 14 109.5 52t42.5 97v8h16v-268q0 -179 -4 -215h14q6 54 33 133q44 131 146 209t229 78q163 0 253.5 -83.5
t90.5 -225.5v-867q0 -166 108.5 -283.5t260.5 -117.5q100 0 170.5 64.5t70.5 155.5q0 83 -51 135.5t-137 60.5h-187v18h72q74 0 91.5 17t17.5 90v895q0 73 -17.5 89.5t-91.5 16.5h-72v19h523v-19h-72q-75 0 -93 -16.5t-18 -89.5v-895q0 -73 18.5 -90t92.5 -17h72v-18h-256
q59 -24 93 -76t34 -120q0 -115 -92 -197t-220 -82q-129 0 -239 75t-174 204.5t-64 281.5v731q0 155 -47.5 232t-153.5 77q-159 0 -263.5 -139t-104.5 -361v-827q0 -73 18 -91t92 -18h72v-18h-522z" />
    <glyph glyph-name="Ccedilla_A" unicode="&#xc7;A" horiz-adv-x="2551" 
d="M1327 436h780l-348 854q-16 38 -16 82h-19q0 -25 -24 -82zM72 741q0 222 88.5 392t251 263t374.5 93q222 0 375 -131q16 -16 23 -41l14 4q-4 16 -6 59l-4 149l18 1l19 -592l-37 -1l-6 189q-5 89 -65 165.5t-153 119.5t-194 43q-252 0 -384 -174t-132 -506
q0 -367 130 -560.5t376 -193.5q153 0 281 73t187 208l508 1172h158v-25q0 -72 19 -119l483 -1184q34 -81 53.5 -104t67.5 -23h16v-18h-391v18h158v5q-30 11 -64 96l-114 280h-811l-49 -112q-63 -144 -197.5 -222.5t-294.5 -80.5l-22 -111q32 14 69 14q81 0 128.5 -45
t47.5 -110q0 -84 -93.5 -140.5t-229.5 -56.5l6 37q92 0 155.5 52t63.5 129q0 42 -22 71t-58 29q-58 0 -86 -25l-27 4l31 152q-299 10 -480 217t-181 540z" />
    <glyph glyph-name="Ccedilla_Atilde" unicode="&#xc7;&#xc3;" horiz-adv-x="2551" 
d="M2091 1763q-22 -82 -54 -112.5t-79 -30.5q-46 0 -109 37.5t-120.5 75t-90.5 37.5q-45 0 -63 -68l-16 -64l-33 9l16 63q20 74 50.5 102.5t74.5 28.5q36 0 83 -23.5t85 -51t80.5 -51t70.5 -23.5q51 0 72 80l17 61l32 -8zM1327 436h780l-348 854q-16 38 -16 82h-19
q0 -25 -24 -82zM72 741q0 222 88.5 392t251 263t374.5 93q222 0 375 -131q16 -16 23 -41l14 4q-4 16 -6 59l-4 149l18 1l19 -592l-37 -1l-6 189q-5 89 -65 165.5t-153 119.5t-194 43q-252 0 -384 -174t-132 -506q0 -367 130 -560.5t376 -193.5q153 0 281 73t187 208
l508 1172h158v-25q0 -72 19 -119l483 -1184q34 -81 53.5 -104t67.5 -23h16v-18h-391v18h158v5q-30 11 -64 96l-114 280h-811l-49 -112q-63 -144 -197.5 -222.5t-294.5 -80.5l-22 -111q32 14 69 14q81 0 128.5 -45t47.5 -110q0 -84 -93.5 -140.5t-229.5 -56.5l6 37
q92 0 155.5 52t63.5 129q0 42 -22 71t-58 29q-58 0 -86 -25l-27 4l31 152q-299 10 -480 217t-181 540z" />
    <glyph glyph-name="C_Aacute" unicode="C&#xc1;" horiz-adv-x="2551" 
d="M1784 1550l-19 17l242 284q8 11 20 11q9 0 21 -9l25 -20l-50 -61zM72 741q0 222 88.5 392t251 263t374.5 93q222 0 375 -131q16 -16 23 -41l14 4q-4 16 -6 59l-4 149l18 1l19 -592l-37 -1l-6 189q-5 89 -65 165.5t-153 119.5t-194 43q-252 0 -384 -174t-132 -506
q0 -367 130 -560.5t376 -193.5q153 0 281 73t187 208l508 1172h158v-25q0 -72 19 -119l483 -1184q34 -81 53.5 -104t67.5 -23h16v-18h-391v18h158v5q-30 11 -64 96l-114 280h-811l-49 -112q-63 -146 -201 -224.5t-301 -78.5q-310 0 -499 208t-189 549zM1327 436h780
l-348 854q-16 38 -16 82h-19q0 -25 -24 -82z" />
    <glyph glyph-name="C_Atilde" unicode="C&#xc3;" horiz-adv-x="2551" 
d="M2091 1763q-22 -82 -54 -112.5t-79 -30.5q-46 0 -109 37.5t-120.5 75t-90.5 37.5q-45 0 -63 -68l-16 -64l-33 9l16 63q20 74 50.5 102.5t74.5 28.5q36 0 83 -23.5t85 -51t80.5 -51t70.5 -23.5q51 0 72 80l17 61l32 -8zM72 741q0 222 88.5 392t251 263t374.5 93
q222 0 375 -131q16 -16 23 -41l14 4q-4 16 -6 59l-4 149l18 1l19 -592l-37 -1l-6 189q-5 89 -65 165.5t-153 119.5t-194 43q-252 0 -384 -174t-132 -506q0 -367 130 -560.5t376 -193.5q153 0 281 73t187 208l508 1172h158v-25q0 -72 19 -119l483 -1184q34 -81 53.5 -104
t67.5 -23h16v-18h-391v18h158v5q-30 11 -64 96l-114 280h-811l-49 -112q-63 -146 -201 -224.5t-301 -78.5q-310 0 -499 208t-189 549zM1327 436h780l-348 854q-16 38 -16 82h-19q0 -25 -24 -82z" />
    <glyph glyph-name="afii10053_afii10054" unicode="&#x404;&#x405;" horiz-adv-x="2129" 
d="M72 795q0 313 161 503.5t424 190.5q188 0 340 -131q16 -16 23 -41l14 4q-4 16 -6 59l-4 149l18 1l19 -592l-37 -1l-6 189q-5 130 -118.5 229t-260.5 99q-188 0 -286.5 -167t-98.5 -484v-6h215q40 0 68 3.5t59 16.5t50 35.5t31.5 63.5t12.5 98v71h19v-657h-19v113
q0 57 -12.5 98t-31.5 64t-50 36.5t-59.5 17t-67.5 3.5h-214q13 -361 235.5 -550.5t635.5 -189.5v179h21v-179q380 0 579 108.5t199 315.5q0 36 -9.5 67.5t-23.5 56.5t-39.5 49.5t-48.5 41.5t-59.5 37t-63.5 32.5t-69 31.5q-47 21 -76.5 35t-71.5 38t-69 44.5t-57 51.5
t-47 63t-28.5 74.5t-11.5 90.5q0 149 111 240.5t293 91.5q151 0 272 -90q9 -7 20 -23.5t13 -23.5l14 4q-5 16 -8 65l-6 109h20l23 -483l-37 -2l-4 86q-3 63 -23 119t-56.5 102t-95.5 73t-132 27q-125 0 -192.5 -64.5t-67.5 -185.5q0 -46 17.5 -85.5t42.5 -67.5t69.5 -56.5
t80 -46t93.5 -43.5q49 -22 80 -36.5t75.5 -40t72.5 -47.5t60 -55t50.5 -68t30.5 -81t12 -98q0 -241 -238.5 -367t-693.5 -126v-215h-21v215q-313 0 -552.5 100.5t-370.5 285t-131 425.5z" />
    <glyph glyph-name="Agrave_S" unicode="&#xc0;S" horiz-adv-x="2265" 
d="M895 1550l-240 222l-49 61l25 20q12 9 20 9q13 0 21 -11l241 -284zM16 0v18h33q35 0 60 32t53 95l575 1328h158v-25q0 -74 18 -119l373 -914q80 -195 183 -295t244 -100q156 0 251.5 82.5t95.5 216.5q0 52 -18 99t-44.5 83t-71 74t-83 63.5t-94.5 59.5q-50 30 -76.5 47
t-71.5 48.5t-70 55.5t-57 60.5t-48 71.5t-28 80.5t-12 95.5q0 149 111 240.5t293 91.5q151 0 272 -90q9 -7 20 -23.5t13 -23.5l14 4q-5 16 -8 65l-6 109h21l22 -483l-37 -2l-4 86q-3 63 -23 119t-56.5 102t-95.5 73t-132 27q-125 0 -192.5 -64.5t-67.5 -185.5
q0 -41 10.5 -77.5t35.5 -69.5t47 -56.5t66 -54.5t69.5 -47.5t79.5 -48.5q67 -40 110.5 -69.5t99 -77.5t88 -95t55.5 -113.5t23 -140.5q0 -166 -137 -267t-361 -101q-60 0 -118.5 9.5t-128 37.5t-129.5 72.5t-118 120.5t-99 175h-811l-111 -254q-11 -27 -11 -46
q0 -36 27 -58.5t72 -22.5h100v-18h-373zM328 436h780l-348 854q-17 40 -17 82h-18q0 -22 -25 -82z" />
    <glyph glyph-name="Aacute_S" unicode="&#xc1;S" horiz-adv-x="2265" 
d="M702 1550l-18 17l242 284q8 11 20 11q9 0 21 -9l24 -20l-49 -61zM16 0v18h33q35 0 60 32t53 95l575 1328h158v-25q0 -74 18 -119l373 -914q80 -195 183 -295t244 -100q156 0 251.5 82.5t95.5 216.5q0 52 -18 99t-44.5 83t-71 74t-83 63.5t-94.5 59.5q-50 30 -76.5 47
t-71.5 48.5t-70 55.5t-57 60.5t-48 71.5t-28 80.5t-12 95.5q0 149 111 240.5t293 91.5q151 0 272 -90q9 -7 20 -23.5t13 -23.5l14 4q-5 16 -8 65l-6 109h21l22 -483l-37 -2l-4 86q-3 63 -23 119t-56.5 102t-95.5 73t-132 27q-125 0 -192.5 -64.5t-67.5 -185.5
q0 -41 10.5 -77.5t35.5 -69.5t47 -56.5t66 -54.5t69.5 -47.5t79.5 -48.5q67 -40 110.5 -69.5t99 -77.5t88 -95t55.5 -113.5t23 -140.5q0 -166 -137 -267t-361 -101q-60 0 -118.5 9.5t-128 37.5t-129.5 72.5t-118 120.5t-99 175h-811l-111 -254q-11 -27 -11 -46
q0 -36 27 -58.5t72 -22.5h100v-18h-373zM328 436h780l-348 854q-17 40 -17 82h-18q0 -22 -25 -82z" />
    <glyph glyph-name="Abreve_S" unicode="&#x102;S" horiz-adv-x="2265" 
d="M516 1839l37 19q123 -183 246 -183q128 0 254 183l28 -19q-47 -105 -122 -171t-160 -66q-158 0 -283 237zM16 0v18h33q35 0 60 32t53 95l575 1328h158v-25q0 -74 18 -119l373 -914q80 -195 183 -295t244 -100q156 0 251.5 82.5t95.5 216.5q0 52 -18 99t-44.5 83t-71 74
t-83 63.5t-94.5 59.5q-50 30 -76.5 47t-71.5 48.5t-70 55.5t-57 60.5t-48 71.5t-28 80.5t-12 95.5q0 149 111 240.5t293 91.5q151 0 272 -90q9 -7 20 -23.5t13 -23.5l14 4q-5 16 -8 65l-6 109h21l22 -483l-37 -2l-4 86q-3 63 -23 119t-56.5 102t-95.5 73t-132 27
q-125 0 -192.5 -64.5t-67.5 -185.5q0 -41 10.5 -77.5t35.5 -69.5t47 -56.5t66 -54.5t69.5 -47.5t79.5 -48.5q67 -40 110.5 -69.5t99 -77.5t88 -95t55.5 -113.5t23 -140.5q0 -166 -137 -267t-361 -101q-60 0 -118.5 9.5t-128 37.5t-129.5 72.5t-118 120.5t-99 175h-811
l-111 -254q-11 -27 -11 -46q0 -36 27 -58.5t72 -22.5h100v-18h-373zM328 436h780l-348 854q-17 40 -17 82h-18q0 -22 -25 -82z" />
    <glyph glyph-name="Atilde_S" unicode="&#xc3;S" horiz-adv-x="2265" 
d="M1071 1763q-22 -82 -54 -112.5t-79 -30.5q-46 0 -109 37.5t-120.5 75t-90.5 37.5q-45 0 -63 -68l-16 -64l-33 9l16 63q20 74 50.5 102.5t74.5 28.5q36 0 83 -23.5t85 -51t80.5 -51t70.5 -23.5q51 0 72 80l17 61l32 -8zM16 0v18h33q35 0 60 32t53 95l575 1328h158v-25
q0 -74 18 -119l373 -914q80 -195 183 -295t244 -100q156 0 251.5 82.5t95.5 216.5q0 52 -18 99t-44.5 83t-71 74t-83 63.5t-94.5 59.5q-50 30 -76.5 47t-71.5 48.5t-70 55.5t-57 60.5t-48 71.5t-28 80.5t-12 95.5q0 149 111 240.5t293 91.5q151 0 272 -90q9 -7 20 -23.5
t13 -23.5l14 4q-5 16 -8 65l-6 109h21l22 -483l-37 -2l-4 86q-3 63 -23 119t-56.5 102t-95.5 73t-132 27q-125 0 -192.5 -64.5t-67.5 -185.5q0 -41 10.5 -77.5t35.5 -69.5t47 -56.5t66 -54.5t69.5 -47.5t79.5 -48.5q67 -40 110.5 -69.5t99 -77.5t88 -95t55.5 -113.5
t23 -140.5q0 -166 -137 -267t-361 -101q-60 0 -118.5 9.5t-128 37.5t-129.5 72.5t-118 120.5t-99 175h-811l-111 -254q-11 -27 -11 -46q0 -36 27 -58.5t72 -22.5h100v-18h-373zM328 436h780l-348 854q-17 40 -17 82h-18q0 -22 -25 -82z" />
    <glyph glyph-name="A_Scaron" unicode="A&#x160;" horiz-adv-x="2265" 
d="M1804 1610h-57l-209 205l31 36l100 -100q103 -103 103 -119h8q0 15 104 119l101 100l30 -36zM16 0v18h33q35 0 60 32t53 95l575 1328h158v-25q0 -74 18 -119l373 -914q80 -195 183 -295t244 -100q156 0 251.5 82.5t95.5 216.5q0 52 -18 99t-44.5 83t-71 74t-83 63.5
t-94.5 59.5q-50 30 -76.5 47t-71.5 48.5t-70 55.5t-57 60.5t-48 71.5t-28 80.5t-12 95.5q0 149 111 240.5t293 91.5q151 0 272 -90q9 -7 20 -23.5t13 -23.5l14 4q-5 16 -8 65l-6 109h21l22 -483l-37 -2l-4 86q-3 63 -23 119t-56.5 102t-95.5 73t-132 27q-125 0 -192.5 -64.5
t-67.5 -185.5q0 -41 10.5 -77.5t35.5 -69.5t47 -56.5t66 -54.5t69.5 -47.5t79.5 -48.5q67 -40 110.5 -69.5t99 -77.5t88 -95t55.5 -113.5t23 -140.5q0 -166 -137 -267t-361 -101q-60 0 -118.5 9.5t-128 37.5t-129.5 72.5t-118 120.5t-99 175h-811l-111 -254q-11 -27 -11 -46
q0 -36 27 -58.5t72 -22.5h100v-18h-373zM328 436h780l-348 854q-17 40 -17 82h-18q0 -22 -25 -82z" />
    <glyph glyph-name="L_Aacute" unicode="L&#xc1;" horiz-adv-x="2023" 
d="M1178 1550l-19 17l242 284q8 11 20 11q9 0 21 -9l24 -20l-49 -61zM1231 1290q-17 40 -17 82h-18q0 -22 -25 -82l-499 -1145h-39l575 1328h158v-25q0 -74 18 -119l484 -1184q34 -81 53.5 -104t67.5 -23h16v-18h-391v18h158v5q-30 11 -64 96l-164 403h-532
q58 -24 93.5 -84.5t35.5 -128.5q0 -3 -0.5 -8.5t-0.5 -8.5l-32 -396l-21 2l9 120h-2q-18 -18 -56 -18h-1001v18h72q71 0 89.5 23t18.5 100v1207q0 73 -17 89.5t-91 16.5h-72v19h522v-19h-72q-74 0 -92 -16.5t-18 -89.5v-1203q0 -61 -45 -106v-2h416q80 0 135 9.5t102 34
t73 72t34 119.5l5 56q2 16 2 23q0 73 -44.5 118.5t-122.5 52.5h-25l13 35h610z" />
    <glyph glyph-name="L_Adieresis" unicode="L&#xc4;" horiz-adv-x="2023" 
d="M1069 1806q41 0 66.5 -24t25.5 -66q0 -40 -25 -65t-67 -25q-40 0 -65 24t-25 66q0 40 24 65t66 25zM1470 1806q41 0 66 -24t25 -66q0 -40 -24.5 -65t-66.5 -25q-41 0 -66.5 24t-25.5 66q0 40 25 65t67 25zM1231 1290q-17 40 -17 82h-18q0 -22 -25 -82l-499 -1145h-39
l575 1328h158v-25q0 -74 18 -119l484 -1184q34 -81 53.5 -104t67.5 -23h16v-18h-391v18h158v5q-30 11 -64 96l-164 403h-532q58 -24 93.5 -84.5t35.5 -128.5q0 -3 -0.5 -8.5t-0.5 -8.5l-32 -396l-21 2l9 120h-2q-18 -18 -56 -18h-1001v18h72q71 0 89.5 23t18.5 100v1207
q0 73 -17 89.5t-91 16.5h-72v19h522v-19h-72q-74 0 -92 -16.5t-18 -89.5v-1203q0 -61 -45 -106v-2h416q80 0 135 9.5t102 34t73 72t34 119.5l5 56q2 16 2 23q0 73 -44.5 118.5t-122.5 52.5h-25l13 35h610z" />
    <glyph glyph-name="ntilde_A" unicode="&#xf1;A" horiz-adv-x="2637" 
d="M920 1763q-22 -82 -54.5 -112.5t-79.5 -30.5q-37 0 -84.5 23.5t-85.5 51.5t-80 51.5t-69 23.5q-46 0 -64 -68l-16 -64l-33 9l17 63q20 74 50.5 102.5t74.5 28.5q36 0 83 -23.5t85 -51t80.5 -51t70.5 -23.5q51 0 72 80l16 61l33 -8zM37 0v18h72q73 0 90.5 17.5t17.5 91.5
v1167q0 28 -19 47t-49 19h-8l-121 -10l-2 12l158 33q66 13 109 51t43 98v8h16v-268q0 -179 -4 -215h14q6 54 33 133q44 131 146 209t229 78q163 0 253.5 -83.5t90.5 -225.5v-795q0 -166 108.5 -283.5t260.5 -117.5q100 0 170.5 64.5t70.5 155.5q0 83 -51 135t-137 60h-55
l16 37h704l-348 854q-16 38 -16 82h-19q0 -25 -24 -82l-490 -1120l-27 27l553 1276h158v-25q0 -72 19 -119l483 -1184q34 -81 53.5 -104t67.5 -23h16v-18h-391v18h158v5q-30 11 -64 96l-114 280h-600q59 -24 93 -75.5t34 -119.5q0 -115 -92 -197.5t-220 -82.5
q-129 0 -239 75t-174 204.5t-64 281.5v660q0 155 -47.5 232t-153.5 77q-159 0 -263.5 -139t-104.5 -361v-827q0 -73 18 -91t92 -18h72v-18h-522z" />
    <glyph glyph-name="n_Atilde" unicode="n&#xc3;" horiz-adv-x="2637" 
d="M2128 1763q-22 -82 -54 -112.5t-79 -30.5q-46 0 -109 37.5t-120.5 75t-90.5 37.5q-45 0 -63 -68l-17 -64l-32 9l16 63q20 74 50.5 102.5t74.5 28.5q36 0 83 -23.5t85 -51t80.5 -51t70.5 -23.5q51 0 72 80l16 61l33 -8zM37 0v18h72q73 0 90.5 17.5t17.5 91.5v1167
q0 28 -19 47t-49 19h-8l-121 -10l-2 12l158 33q66 13 109 51t43 98v8h16v-268q0 -179 -4 -215h14q6 54 33 133q44 131 146 209t229 78q163 0 253.5 -83.5t90.5 -225.5v-795q0 -166 108.5 -283.5t260.5 -117.5q100 0 170.5 64.5t70.5 155.5q0 83 -51 135t-137 60h-55l16 37
h704l-348 854q-16 38 -16 82h-19q0 -25 -24 -82l-490 -1120l-27 27l553 1276h158v-25q0 -72 19 -119l483 -1184q34 -81 53.5 -104t67.5 -23h16v-18h-391v18h158v5q-30 11 -64 96l-114 280h-600q59 -24 93 -75.5t34 -119.5q0 -115 -92 -197.5t-220 -82.5q-129 0 -239 75
t-174 204.5t-64 281.5v660q0 155 -47.5 232t-153.5 77q-159 0 -263.5 -139t-104.5 -361v-827q0 -73 18 -91t92 -18h72v-18h-522z" />
    <glyph glyph-name="Aacute_J" unicode="&#xc1;J" horiz-adv-x="2172" 
d="M702 1550l-18 17l242 284q8 11 20 11q9 0 21 -9l24 -20l-49 -61zM1123 399h-811l-111 -254q-11 -27 -11 -46q0 -36 27 -58.5t72 -22.5h100v-18h-373v18h33q35 0 60 32t53 95l575 1328h158v-25q0 -74 18 -119l373 -914q88 -215 166.5 -305t188.5 -90q80 0 128 56.5
t48 161.5v1159q0 24 3.5 33t14.5 20v4h-385v19h688v-19h-53q-109 0 -109 -108v-1016q0 -165 -98.5 -255.5t-248.5 -90.5q-189 0 -302.5 98t-203.5 317zM328 436h780l-348 854q-17 40 -17 82h-18q0 -22 -25 -82z" />
    <glyph glyph-name="R_eacute" unicode="R&#xe9;" horiz-adv-x="2523" 
d="M1796 1554l-18 17l241 284q8 11 21 11q9 0 20 -8l25 -21l-49 -61zM37 0v18h72q73 0 90.5 17.5t17.5 91.5v1219q0 74 -17.5 91t-90.5 17h-72v19h534q246 0 395.5 -125.5t149.5 -329.5q0 -184 -122.5 -304.5t-311.5 -138.5l-41 -2v-12q60 -6 111 -41t110 -99
q115 -127 239.5 -219t243 -142.5t225.5 -73.5t212 -23q117 0 231 26.5t198.5 67.5t138.5 75t88 63l11 -15q-144 -124 -346 -200t-422 -76q-120 0 -239.5 24.5t-242 76t-242 139.5t-222.5 207l-43 51q-37 43 -56.5 65t-48 48t-53 37t-49.5 11h-24v35h94q172 0 277.5 115.5
t105.5 304.5q0 188 -105.5 303t-277.5 115h-213v-2q35 -35 35 -107v-1200q0 -73 18 -91t92 -18h119v-18h-569zM1463 932q0 -4 -0.5 -12.5t-0.5 -12.5q0 -303 113 -461.5t330 -158.5q181 0 316 79.5t203 222.5l31 -21q-74 -150 -217 -234t-333 -84q-278 0 -447.5 171.5
t-169.5 452.5q0 277 174 446t459 169q239 0 386 -134.5t147 -353.5v-10q0 -25 -18 -42t-46 -17h-927zM1464 969l803 14q17 0 17 18q0 202 -102 326.5t-269 124.5q-205 0 -320.5 -123.5t-128.5 -359.5z" />
    <glyph glyph-name="R_egrave" unicode="R&#xe8;" horiz-adv-x="2523" 
d="M2013 1554l-239 222l-50 61l25 21q11 8 21 8q12 0 20 -11l242 -284zM37 0v18h72q73 0 90.5 17.5t17.5 91.5v1219q0 74 -17.5 91t-90.5 17h-72v19h534q246 0 395.5 -125.5t149.5 -329.5q0 -184 -122.5 -304.5t-311.5 -138.5l-41 -2v-12q60 -6 111 -41t110 -99
q115 -127 239.5 -219t243 -142.5t225.5 -73.5t212 -23q117 0 231 26.5t198.5 67.5t138.5 75t88 63l11 -15q-144 -124 -346 -200t-422 -76q-120 0 -239.5 24.5t-242 76t-242 139.5t-222.5 207l-43 51q-37 43 -56.5 65t-48 48t-53 37t-49.5 11h-24v35h94q172 0 277.5 115.5
t105.5 304.5q0 188 -105.5 303t-277.5 115h-213v-2q35 -35 35 -107v-1200q0 -73 18 -91t92 -18h119v-18h-569zM1463 932q0 -4 -0.5 -12.5t-0.5 -12.5q0 -303 113 -461.5t330 -158.5q181 0 316 79.5t203 222.5l31 -21q-74 -150 -217 -234t-333 -84q-278 0 -447.5 171.5
t-169.5 452.5q0 277 174 446t459 169q239 0 386 -134.5t147 -353.5v-10q0 -25 -18 -42t-46 -17h-927zM1464 969l803 14q17 0 17 18q0 202 -102 326.5t-269 124.5q-205 0 -320.5 -123.5t-128.5 -359.5z" />
    <glyph glyph-name="R_ecircumflex" unicode="R&#xea;" horiz-adv-x="2523" 
d="M1925 1866l211 -205l-31 -37l-100 100q-104 104 -104 119h-9q0 -6 -29.5 -41t-72.5 -78l-100 -100l-31 37l209 205h57zM37 0v18h72q73 0 90.5 17.5t17.5 91.5v1219q0 74 -17.5 91t-90.5 17h-72v19h534q246 0 395.5 -125.5t149.5 -329.5q0 -184 -122.5 -304.5
t-311.5 -138.5l-41 -2v-12q60 -6 111 -41t110 -99q115 -127 239.5 -219t243 -142.5t225.5 -73.5t212 -23q117 0 231 26.5t198.5 67.5t138.5 75t88 63l11 -15q-144 -124 -346 -200t-422 -76q-120 0 -239.5 24.5t-242 76t-242 139.5t-222.5 207l-43 51q-37 43 -56.5 65t-48 48
t-53 37t-49.5 11h-24v35h94q172 0 277.5 115.5t105.5 304.5q0 188 -105.5 303t-277.5 115h-213v-2q35 -35 35 -107v-1200q0 -73 18 -91t92 -18h119v-18h-569zM1463 932q0 -4 -0.5 -12.5t-0.5 -12.5q0 -303 113 -461.5t330 -158.5q181 0 316 79.5t203 222.5l31 -21
q-74 -150 -217 -234t-333 -84q-278 0 -447.5 171.5t-169.5 452.5q0 277 174 446t459 169q239 0 386 -134.5t147 -353.5v-10q0 -25 -18 -42t-46 -17h-927zM1464 969l803 14q17 0 17 18q0 202 -102 326.5t-269 124.5q-205 0 -320.5 -123.5t-128.5 -359.5z" />
    <glyph glyph-name="R_edieresis" unicode="R&#xeb;" horiz-adv-x="2523" 
d="M1686 1810q41 0 66.5 -24t25.5 -66q0 -40 -25 -65t-67 -25q-41 0 -66 24t-25 66q0 40 24.5 65t66.5 25zM2087 1810q40 0 65 -24t25 -66q0 -40 -24 -65t-66 -25q-41 0 -66.5 24t-25.5 66q0 40 25 65t67 25zM37 0v18h72q73 0 90.5 17.5t17.5 91.5v1219q0 74 -17.5 91
t-90.5 17h-72v19h534q246 0 395.5 -125.5t149.5 -329.5q0 -184 -122.5 -304.5t-311.5 -138.5l-41 -2v-12q60 -6 111 -41t110 -99q115 -127 239.5 -219t243 -142.5t225.5 -73.5t212 -23q117 0 231 26.5t198.5 67.5t138.5 75t88 63l11 -15q-144 -124 -346 -200t-422 -76
q-120 0 -239.5 24.5t-242 76t-242 139.5t-222.5 207l-43 51q-37 43 -56.5 65t-48 48t-53 37t-49.5 11h-24v35h94q172 0 277.5 115.5t105.5 304.5q0 188 -105.5 303t-277.5 115h-213v-2q35 -35 35 -107v-1200q0 -73 18 -91t92 -18h119v-18h-569zM1463 932q0 -4 -0.5 -12.5
t-0.5 -12.5q0 -303 113 -461.5t330 -158.5q181 0 316 79.5t203 222.5l31 -21q-74 -150 -217 -234t-333 -84q-278 0 -447.5 171.5t-169.5 452.5q0 277 174 446t459 169q239 0 386 -134.5t147 -353.5v-10q0 -25 -18 -42t-46 -17h-927zM1464 969l803 14q17 0 17 18
q0 202 -102 326.5t-269 124.5q-205 0 -320.5 -123.5t-128.5 -359.5z" />
    <glyph glyph-name="Rcaron_e" unicode="&#x158;e" horiz-adv-x="2523" 
d="M573 1610h-57l-209 205l31 36l100 -100q103 -103 103 -119h8q0 15 104 119l101 100l30 -36zM37 0v18h72q73 0 90.5 17.5t17.5 91.5v1219q0 74 -17.5 91t-90.5 17h-72v19h534q246 0 395.5 -125.5t149.5 -329.5q0 -184 -122.5 -304.5t-311.5 -138.5l-41 -2v-12
q60 -6 111 -41t110 -99q115 -127 239.5 -219t243 -142.5t225.5 -73.5t212 -23q117 0 231 26.5t198.5 67.5t138.5 75t88 63l11 -15q-144 -124 -346 -200t-422 -76q-120 0 -239.5 24.5t-242 76t-242 139.5t-222.5 207l-43 51q-37 43 -56.5 65t-48 48t-53 37t-49.5 11h-24v35
h94q172 0 277.5 115.5t105.5 304.5q0 188 -105.5 303t-277.5 115h-213v-2q35 -35 35 -107v-1200q0 -73 18 -91t92 -18h119v-18h-569zM1463 932q0 -4 -0.5 -12.5t-0.5 -12.5q0 -303 113 -461.5t330 -158.5q181 0 316 79.5t203 222.5l31 -21q-74 -150 -217 -234t-333 -84
q-278 0 -447.5 171.5t-169.5 452.5q0 277 174 446t459 169q239 0 386 -134.5t147 -353.5v-10q0 -25 -18 -42t-46 -17h-927zM1464 969l803 14q17 0 17 18q0 202 -102 326.5t-269 124.5q-205 0 -320.5 -123.5t-128.5 -359.5z" />
    <glyph glyph-name="Gbreve_R" unicode="&#x11e;R" horiz-adv-x="2625" 
d="M496 1843l36 19q123 -183 246 -183q128 0 254 183l29 -19q-47 -105 -122.5 -171t-160.5 -66q-157 0 -282 237zM1581 721v625q0 74 -17.5 91t-90.5 17h-72v19h534q246 0 395.5 -125.5t149.5 -329.5q0 -184 -122.5 -304.5t-311.5 -138.5l-41 -2v-12q70 -7 131 -46.5
t96 -94.5l103 -162q37 -58 62.5 -94.5t66.5 -75.5t71 -39q32 0 59 23l45 39l11 -15l-45 -39q-91 -78 -169 -78q-37 0 -71.5 16.5t-66 50t-52.5 62.5t-51 76l-143 222q-57 87 -98 122t-105 35h-108v-436q0 -73 18 -91t92 -18h119v-18h-569v18h72q73 0 90.5 17.5t17.5 91.5
v436h-274v-401h-101q-30 0 -59 -29q-68 -72 -163.5 -110.5t-201.5 -38.5q-322 0 -518 208t-196 549q0 222 87.5 392t247 263t367.5 93q222 0 375 -129q14 -12 22 -39l9 2q-7 28 -7 47l-10 200l21 1l28 -570l-34 -2l-5 74q-10 173 -132.5 276t-286.5 103
q-245 0 -374.5 -173.5t-129.5 -504.5q0 -367 139.5 -560.5t405.5 -193.5q106 2 199.5 44t154.5 124v183q0 86 -52.5 138t-138.5 52h-237v37h1202q187 0 285 107.5t98 312.5q0 204 -98 311t-285 107h-213v-2q35 -35 35 -107v-606h-160z" />
    <glyph glyph-name="G_Rcaron" unicode="G&#x158;" horiz-adv-x="2625" 
d="M1987 1610h-58l-209 205l31 36l100 -100q103 -103 103 -119h8q0 15 104 119l101 100l31 -36zM1581 721v625q0 74 -17.5 91t-90.5 17h-72v19h534q246 0 395.5 -125.5t149.5 -329.5q0 -184 -122.5 -304.5t-311.5 -138.5l-41 -2v-12q70 -7 131 -46.5t96 -94.5l103 -162
q37 -58 62.5 -94.5t66.5 -75.5t71 -39q32 0 59 23l45 39l11 -15l-45 -39q-91 -78 -169 -78q-37 0 -71.5 16.5t-66 50t-52.5 62.5t-51 76l-143 222q-57 87 -98 122t-105 35h-108v-436q0 -73 18 -91t92 -18h119v-18h-569v18h72q73 0 90.5 17.5t17.5 91.5v436h-274v-401h-101
q-30 0 -59 -29q-68 -72 -163.5 -110.5t-201.5 -38.5q-322 0 -518 208t-196 549q0 222 87.5 392t247 263t367.5 93q222 0 375 -129q14 -12 22 -39l9 2q-7 28 -7 47l-10 200l21 1l28 -570l-34 -2l-5 74q-10 173 -132.5 276t-286.5 103q-245 0 -374.5 -173.5t-129.5 -504.5
q0 -367 139.5 -560.5t405.5 -193.5q106 2 199.5 44t154.5 124v183q0 86 -52.5 138t-138.5 52h-237v37h1202q187 0 285 107.5t98 312.5q0 204 -98 311t-285 107h-213v-2q35 -35 35 -107v-606h-160z" />
    <glyph glyph-name="G_R" unicode="GR" horiz-adv-x="2625" 
d="M1581 721v625q0 74 -17.5 91t-90.5 17h-72v19h534q246 0 395.5 -125.5t149.5 -329.5q0 -184 -122.5 -304.5t-311.5 -138.5l-41 -2v-12q70 -7 131 -46.5t96 -94.5l103 -162q37 -58 62.5 -94.5t66.5 -75.5t71 -39q32 0 59 23l45 39l11 -15l-45 -39q-91 -78 -169 -78
q-37 0 -71.5 16.5t-66 50t-52.5 62.5t-51 76l-143 222q-57 87 -98 122t-105 35h-108v-436q0 -73 18 -91t92 -18h119v-18h-569v18h72q73 0 90.5 17.5t17.5 91.5v436h-274v-401h-101q-30 0 -59 -29q-68 -72 -163.5 -110.5t-201.5 -38.5q-322 0 -518 208t-196 549
q0 222 87.5 392t247 263t367.5 93q222 0 375 -129q14 -12 22 -39l9 2q-7 28 -7 47l-10 200l21 1l28 -570l-34 -2l-5 74q-10 173 -132.5 276t-286.5 103q-245 0 -374.5 -173.5t-129.5 -504.5q0 -367 139.5 -560.5t405.5 -193.5q106 2 199.5 44t154.5 124v183q0 86 -52.5 138
t-138.5 52h-237v37h1202q187 0 285 107.5t98 312.5q0 204 -98 311t-285 107h-213v-2q35 -35 35 -107v-606h-160z" />
    <glyph glyph-name="G_R_U" unicode="GRU" horiz-adv-x="3674" 
d="M1401 0v18h72q73 0 90.5 17.5t17.5 91.5v436h-274v-401h-101q-30 0 -59 -29q-68 -72 -163.5 -110.5t-201.5 -38.5q-322 0 -518 208t-196 549q0 222 87.5 392t247 263t367.5 93q222 0 375 -129q14 -12 22 -39l9 2q-7 28 -7 47l-10 200l21 1l28 -570l-34 -2l-5 74
q-10 173 -132.5 276t-286.5 103q-245 0 -374.5 -173.5t-129.5 -504.5q0 -367 139.5 -560.5t405.5 -193.5q106 2 199.5 44t154.5 124v183q0 86 -52.5 138t-138.5 52h-237v37h1202q172 0 277.5 115.5t105.5 304.5q0 204 -98 311t-285 107h-213v-2q35 -35 35 -107v-606h-160
v625q0 74 -17.5 91t-90.5 17h-72v19h534q246 0 395.5 -125.5t149.5 -329.5q0 -184 -122.5 -304.5t-311.5 -138.5l-41 -2v-12q134 -14 221 -140q7 -9 19.5 -25.5t55 -63.5t89 -89.5t118.5 -95t145.5 -90t168.5 -63t190 -25.5q300 0 565 226l45 39l11 -15l-45 -39
q-61 -53 -129 -98.5t-153.5 -87.5t-185.5 -66t-201 -24q-432 0 -820 447l-43 51q-36 42 -56.5 65t-48.5 48.5t-52.5 36.5t-49.5 11h-108v-436q0 -73 18 -91t92 -18h119v-18h-569zM2544 1473h522v-19h-90q-74 0 -91.5 -17.5t-17.5 -90.5v-818q0 -118 63.5 -179.5t184.5 -61.5
q165 0 251.5 80.5t86.5 234.5v707q0 79 -23.5 112t-93.5 33h-76v19h379v-19h-32q-70 0 -93.5 -33t-23.5 -112v-707q0 -172 -96 -262t-279 -90q-184 0 -296 97t-112 255v744q0 73 -18 90.5t-92 17.5h-53v19z" />
    <glyph glyph-name="X_O" unicode="XO" horiz-adv-x="2396" 
d="M1720 250q-277 0 -446.5 170.5t-169.5 449.5q0 278 169.5 448.5t446.5 170.5q275 0 444 -170.5t169 -448.5q0 -279 -169 -449.5t-444 -170.5zM1726 287q209 0 318.5 139.5t109.5 404.5q0 303 -113 462t-329 159q-210 0 -320 -139.5t-110 -405.5q0 -302 113.5 -461
t330.5 -159zM539 682l-258 -504q-43 -84 -43 -116q0 -25 22 -35.5t74 -10.5h69v-16h-366v16h18q62 0 98 31.5t87 130.5l279 548l-265 568q-44 94 -79 127t-81 33h-22v19h350v-19h-111v-4q22 -8 54.5 -42t50.5 -71l226 -484l241 447q44 82 44 112q0 22 -21 32t-70 10h-72v19
h342v-19h-25q-46 0 -76 -30.5t-83 -129.5l-260 -487q97 -207 195.5 -359t190 -245.5t192.5 -149t192.5 -76t200.5 -20.5q176 0 349 68t292 170l45 39l12 -15l-45 -39q-153 -132 -338 -205t-377 -73q-668 0 -1032 780z" />
    <glyph glyph-name="R_e" unicode="Re" horiz-adv-x="2523" 
d="M37 0v18h72q73 0 90.5 17.5t17.5 91.5v1219q0 74 -17.5 91t-90.5 17h-72v19h534q246 0 395.5 -125.5t149.5 -329.5q0 -184 -122.5 -304.5t-311.5 -138.5l-41 -2v-12q60 -6 111 -41t110 -99q115 -127 239.5 -219t243 -142.5t225.5 -73.5t212 -23q117 0 231 26.5
t198.5 67.5t138.5 75t88 63l11 -15q-144 -124 -346 -200t-422 -76q-120 0 -239.5 24.5t-242 76t-242 139.5t-222.5 207l-43 51q-37 43 -56.5 65t-48 48t-53 37t-49.5 11h-24v35h94q172 0 277.5 115.5t105.5 304.5q0 188 -105.5 303t-277.5 115h-213v-2q35 -35 35 -107v-1200
q0 -73 18 -91t92 -18h119v-18h-569zM1463 932q0 -4 -0.5 -12.5t-0.5 -12.5q0 -303 113 -461.5t330 -158.5q181 0 316 79.5t203 222.5l31 -21q-74 -150 -217 -234t-333 -84q-278 0 -447.5 171.5t-169.5 452.5q0 277 174 446t459 169q239 0 386 -134.5t147 -353.5v-10
q0 -25 -18 -42t-46 -17h-927zM1464 969l803 14q17 0 17 18q0 202 -102 326.5t-269 124.5q-205 0 -320.5 -123.5t-128.5 -359.5z" />
    <glyph glyph-name="m_o" unicode="mO" horiz-adv-x="3168" 
d="M37 0v18h72q73 0 90.5 17.5t17.5 91.5v1167q0 28 -19 47t-49 19h-8l-121 -10l-2 12l158 33q65 13 104 51t39 98v8h17v-268q0 -148 -4 -188h18q11 80 33 141q96 252 324 252q150 0 211 -71.5t61 -198.5v-123h8q3 44 22 107t29 83q53 100 124.5 151.5t178.5 51.5
q137 0 221.5 -71t84.5 -201v-607q0 -313 211.5 -504.5t557.5 -191.5q196 0 362 73.5t232 208.5l17 -8q-71 -143 -247 -222t-396 -79q-266 0 -470 100t-315.5 283t-111.5 422v506q0 121 -45.5 188.5t-118.5 67.5q-140 0 -225.5 -130t-85.5 -343v-854q0 -73 18 -91t92 -18h54
v-18h-443v18h137v5q-11 11 -14.5 20t-3.5 33v1122q0 121 -45.5 188.5t-118.5 67.5q-140 0 -225.5 -130t-85.5 -343v-854q0 -73 18 -91t92 -18h72v-18h-522zM2492 250q-277 0 -446.5 170.5t-169.5 449.5q0 278 169.5 448.5t446.5 170.5q275 0 444 -170.5t169 -448.5
q0 -279 -169 -449.5t-444 -170.5zM2499 287q209 0 318.5 139.5t109.5 404.5q0 302 -113.5 461.5t-329.5 159.5q-210 0 -320 -139.5t-110 -405.5q0 -302 114 -461t331 -159z" />
    <glyph glyph-name="m_e" unicode="me" horiz-adv-x="3110" 
d="M37 0v18h72q73 0 90.5 17.5t17.5 91.5v1167q0 28 -19 47t-49 19h-8l-121 -10l-2 12l158 33q65 13 104 51t39 98v8h17v-268q0 -148 -4 -188h18q11 80 33 141q96 252 324 252q150 0 211 -71.5t61 -198.5v-123h8q3 44 22 107t29 83q53 100 124.5 151.5t178.5 51.5
q137 0 221.5 -71t84.5 -201v-607q0 -313 211.5 -504.5t557.5 -191.5q196 0 362 73.5t232 208.5l17 -8q-71 -143 -247 -222t-396 -79q-266 0 -470 100t-315.5 283t-111.5 422v506q0 121 -45.5 188.5t-118.5 67.5q-140 0 -225.5 -130t-85.5 -343v-854q0 -73 18 -91t92 -18h54
v-18h-443v18h137v5q-11 11 -14.5 20t-3.5 33v1122q0 121 -45.5 188.5t-118.5 67.5q-140 0 -225.5 -130t-85.5 -343v-854q0 -73 18 -91t92 -18h72v-18h-522zM2050 932v-25q0 -303 113 -461.5t329 -158.5q181 0 316.5 79.5t203.5 222.5l31 -21q-73 -150 -217 -234t-334 -84
q-278 0 -447 171.5t-169 452.5q0 277 171.5 446t451.5 169q244 0 393 -134.5t149 -353.5v-10q0 -25 -18 -42t-45 -17h-928zM2052 969l803 14q16 0 16 18q0 203 -104.5 327t-276.5 124q-204 0 -314.5 -123t-123.5 -360z" />
    <glyph glyph-name="m_c" unicode="mc" horiz-adv-x="3063" 
d="M37 0v18h72q73 0 90.5 17.5t17.5 91.5v1167q0 28 -19 47t-49 19h-8l-121 -10l-2 12l158 33q65 13 104 51t39 98v8h17v-268q0 -148 -4 -188h18q11 80 33 141q96 252 324 252q150 0 211 -71.5t61 -198.5v-123h8q3 44 22 107t29 83q53 100 124.5 151.5t178.5 51.5
q137 0 221.5 -71t84.5 -201v-607q0 -313 211.5 -504.5t557.5 -191.5q192 0 351.5 76t226.5 213l17 -9q-71 -145 -241 -226t-386 -81q-266 0 -470 100t-315.5 283t-111.5 422v506q0 121 -45.5 188.5t-118.5 67.5q-140 0 -225.5 -130t-85.5 -343v-854q0 -73 18 -91t92 -18h54
v-18h-443v18h137v5q-11 11 -14.5 20t-3.5 33v1122q0 121 -45.5 188.5t-118.5 67.5q-140 0 -225.5 -130t-85.5 -343v-854q0 -73 18 -91t92 -18h72v-18h-522zM2951 938l-37 -1l-6 189q-5 89 -65 165.5t-152.5 119.5t-193.5 43q-216 0 -329.5 -144t-113.5 -418q0 -295 119 -450
t346 -155q149 0 276 76t179 203l35 -13q-58 -148 -192 -225.5t-302 -77.5q-288 0 -463.5 171t-175.5 451q0 278 175.5 447.5t461.5 169.5q222 0 375 -131q14 -14 22 -41l15 4q-5 21 -7 59l-4 149l19 1z" />
    <glyph glyph-name="n_o" unicode="no" horiz-adv-x="2627" 
d="M37 0v18h72q73 0 90.5 17.5t17.5 91.5v1167q0 28 -19 47t-49 19h-8l-121 -10l-2 12l158 33q66 13 109 51t43 98v8h16v-268q0 -179 -4 -215h14q6 54 33 133q44 131 146 209t229 78q163 0 253.5 -83.5t90.5 -225.5v-570q0 -313 211.5 -504.5t557.5 -191.5q196 0 362.5 73.5
t232.5 208.5l16 -8q-71 -143 -247 -222t-396 -79q-266 0 -470 100t-315.5 282.5t-111.5 420.5v455q0 155 -47.5 232t-153.5 77q-159 0 -263.5 -139t-104.5 -361v-827q0 -73 18 -91t92 -18h72v-18h-522zM1952 250q-278 0 -447.5 170.5t-169.5 449.5q0 278 170 448.5
t447 170.5q275 0 443.5 -170.5t168.5 -448.5q0 -279 -168.5 -449.5t-443.5 -170.5zM1958 287q209 0 318.5 139.5t109.5 404.5q0 303 -113 462t-329 159q-210 0 -320.5 -139.5t-110.5 -405.5q0 -302 114 -461t331 -159z" />
    <glyph glyph-name="n_e" unicode="ne" horiz-adv-x="2570" 
d="M37 0v18h72q73 0 90.5 17.5t17.5 91.5v1167q0 28 -19 47t-49 19h-8l-121 -10l-2 12l158 33q66 13 109 51t43 98v8h16v-268q0 -179 -4 -215h14q6 54 33 133q44 131 146 209t229 78q163 0 253.5 -83.5t90.5 -225.5v-570q0 -313 211.5 -504.5t557.5 -191.5q196 0 362.5 73.5
t232.5 208.5l16 -8q-71 -143 -247 -222t-396 -79q-266 0 -470 100t-315.5 282.5t-111.5 420.5v455q0 155 -47.5 232t-153.5 77q-159 0 -263.5 -139t-104.5 -361v-827q0 -73 18 -91t92 -18h72v-18h-522zM1510 932q0 -4 -0.5 -12.5t-0.5 -12.5q0 -303 113 -461.5t330 -158.5
q181 0 316 79.5t203 222.5l31 -21q-74 -150 -217 -234t-333 -84q-278 0 -447.5 171.5t-169.5 452.5q0 277 171.5 446t451.5 169q244 0 393.5 -134.5t149.5 -353.5v-10q0 -25 -18 -42t-46 -17h-927zM1511 969l803 14q17 0 17 18q0 203 -104.5 327t-276.5 124
q-204 0 -315 -123t-124 -360z" />
    <glyph glyph-name="n_c" unicode="nc" horiz-adv-x="2523" 
d="M37 0v18h72q73 0 90.5 17.5t17.5 91.5v1167q0 28 -19 47t-49 19h-8l-121 -10l-2 12l158 33q66 13 109 51t43 98v8h16v-268q0 -179 -4 -215h14q6 54 33 133q44 131 146 209t229 78q163 0 253.5 -83.5t90.5 -225.5v-570q0 -313 211.5 -504.5t557.5 -191.5q196 0 362.5 73.5
t232.5 208.5l16 -8q-71 -143 -247 -222t-396 -79q-266 0 -470 100t-315.5 282.5t-111.5 420.5v455q0 155 -47.5 232t-153.5 77q-159 0 -263.5 -139t-104.5 -361v-827q0 -73 18 -91t92 -18h72v-18h-522zM2410 938l-36 -1l-7 189q-5 89 -65 165.5t-152.5 119.5t-193.5 43
q-216 0 -329.5 -144t-113.5 -418q0 -295 119 -450t346 -155q149 0 276.5 76t179.5 203l34 -13q-58 -148 -192 -225.5t-302 -77.5q-288 0 -463.5 171t-175.5 451q0 278 175.5 447.5t461.5 169.5q222 0 375 -131q16 -16 23 -41l14 4q-4 16 -6 59l-4 149l18 1z" />
    <glyph glyph-name="L_A" unicode="LA" horiz-adv-x="2023" 
d="M1231 1290q-17 40 -17 82h-18q0 -22 -25 -82l-499 -1145h-39l575 1328h158v-25q0 -74 18 -119l484 -1184q34 -81 53.5 -104t67.5 -23h16v-18h-391v18h158v5q-30 11 -64 96l-164 403h-532q58 -24 93.5 -84.5t35.5 -128.5q0 -3 -0.5 -8.5t-0.5 -8.5l-32 -396l-21 2l9 120
h-2q-18 -18 -56 -18h-1001v18h72q71 0 89.5 23t18.5 100v1207q0 73 -17 89.5t-91 16.5h-72v19h522v-19h-72q-74 0 -92 -16.5t-18 -89.5v-1203q0 -61 -45 -106v-2h416q80 0 135 9.5t102 34t73 72t34 119.5l5 56q2 16 2 23q0 73 -44.5 118.5t-122.5 52.5h-25l13 35h610z" />
    <glyph glyph-name="L_Aogonek" unicode="L&#x104;" horiz-adv-x="2023" 
d="M2005 0h-43q-157 0 -234 -75.5t-77 -196.5q0 -68 43 -110t114 -42q46 0 118 23l11 -35q-95 -29 -147 -29q-104 0 -167.5 51t-63.5 134q0 100 68.5 173.5t174.5 111.5v24q-26 9 -52 31.5t-42 58.5l-164 403h-532q58 -24 93.5 -84.5t35.5 -128.5q0 -3 -0.5 -8.5t-0.5 -8.5
l-32 -396l-21 2l9 120h-2q-18 -18 -56 -18h-1001v18h72q71 0 89.5 23t18.5 100v1207q0 73 -17 89.5t-91 16.5h-72v19h522v-19h-72q-74 0 -92 -16.5t-18 -89.5v-1203q0 -61 -45 -106v-2h416q80 0 135 9.5t102 34t73 72t34 119.5l5 56q2 16 2 23q0 73 -44.5 118.5t-122.5 52.5
h-25l13 35h610l-299 733q-17 40 -17 82h-18q0 -22 -25 -82l-499 -1145h-39l575 1328h158v-25q0 -74 18 -119l484 -1184q33 -83 52 -105t69 -22h16v-18z" />
    <glyph glyph-name="R_Oacute" unicode="R&#xd3;" horiz-adv-x="2564" 
d="M1792 1550l-18 17l241 284q8 11 21 11q8 0 20 -9l25 -20l-49 -61zM1905 250q-278 0 -447.5 170.5t-169.5 449.5q0 278 170 448.5t447 170.5q275 0 443.5 -170.5t168.5 -448.5q0 -279 -168.5 -449.5t-443.5 -170.5zM1911 287q209 0 318.5 139.5t109.5 404.5
q0 302 -113.5 461.5t-329.5 159.5q-210 0 -320 -139.5t-110 -405.5q0 -302 114 -461t331 -159zM37 0v18h72q73 0 90.5 17.5t17.5 91.5v1219q0 74 -17.5 91t-90.5 17h-72v19h534q246 0 395.5 -125.5t149.5 -329.5q0 -184 -122.5 -304.5t-311.5 -138.5l-41 -2v-12
q60 -6 111 -41t110 -99q115 -127 239.5 -219t243 -142.5t225.5 -73.5t212 -23q117 0 231 26.5t198.5 67.5t138.5 75t88 63l45 39l11 -15l-45 -39q-144 -124 -346 -200t-422 -76q-120 0 -239.5 24.5t-242 76t-242 139.5t-222.5 207l-43 51q-48 58 -74 85.5t-62.5 51.5
t-70.5 24h-24v35h94q172 0 277.5 115.5t105.5 304.5q0 188 -105.5 303t-277.5 115h-213v-2q35 -35 35 -107v-1200q0 -73 18 -91t92 -18h119v-18h-569z" />
    <glyph glyph-name="L_I" unicode="Li" horiz-adv-x="1280" 
d="M621 328v18h51q74 0 91 17t17 90v895q0 73 -17 89.5t-91 16.5h-31v19h451v-23h-41q-74 0 -92.5 -17t-18.5 -90v-890q0 -73 18.5 -90t92.5 -17h20v-18h-450zM37 0v18h72q71 0 89.5 23t18.5 100v1207q0 73 -17 89.5t-91 16.5h-72v19h481v-19h-31q-74 0 -92 -16.5t-18 -89.5
v-1203q0 -61 -45 -106v-2h502q80 0 135.5 9.5t103 34t73.5 72t32 119.5l16 205h41l-41 -581l-20 2l8 120h-2q-18 -18 -56 -18h-1087z" />
    <glyph glyph-name="L_I_A" unicode="LIA" horiz-adv-x="2408" 
d="M1616 1290q-17 40 -17 82h-18q0 -22 -25 -82l-499 -1145h-445v19h52q74 0 91 16.5t17 89.5v1078q0 73 -17 89.5t-91 16.5h-33v19h452v-23h-41q-74 0 -92 -17t-18 -90v-1179h94l567 1309h158v-25q0 -74 18 -119l484 -1184q34 -81 53.5 -104t67.5 -23h16v-18h-391v18h158v5
q-30 11 -64 96l-164 403h-502q58 -24 93.5 -84.5t35.5 -128.5v-17l-32 -396l-21 2l8 120h-2q-11 -11 -21 -14.5t-34 -3.5h-1417v18h72q71 0 89.5 23t18.5 100v1207q0 73 -17 89.5t-91 16.5h-72v19h522v-19h-72q-74 0 -92 -16.5t-18 -89.5v-1203q0 -61 -45 -106v-2h831
q80 0 135 9.5t102 34t73 72t34 119.5l6 56q1 8 1 23q0 73 -44 118.5t-122 52.5h-25l12 35l579 1z" />
    <glyph glyph-name="afii10024_afii10080" unicode="&#x416;&#x41e;" horiz-adv-x="3143" 
d="M631 0v18h72q73 0 90.5 20.5t18.5 106.5v721h-14q-69 0 -123.5 -17.5t-91.5 -57.5t-62 -77.5t-44.5 -104.5t-28 -108.5t-22.5 -119.5q-9 -51 -14.5 -78t-15.5 -72t-20 -70t-25 -59t-33 -53t-42 -37.5t-54.5 -26.5t-66.5 -8q-81 0 -166 76l-26 21l12 14l26 -21
q51 -40 98 -40q25 0 45.5 8.5t35 20t26 35.5t18.5 42.5t13.5 55.5t9.5 59t9 67q6 48 10 76.5t12.5 76.5t18 79t26 74.5t36.5 73t48.5 63.5t63 57.5t80.5 44.5t100 33l2 8l-326 412q-59 75 -140 108t-161 33h-25v19h453v-19h-18q-107 0 -107 -56q0 -30 37 -77l324 -408
q22 -28 122 -28v461q-1 73 -18.5 90.5t-90.5 17.5h-20v19h418v-19h-19q-74 0 -92.5 -17.5t-18.5 -90.5v-461q58 0 83.5 5.5t39.5 22.5l324 408q37 47 37 77q0 56 -107 56h-18v19h453v-19h-25q-80 0 -161 -33t-140 -108l-326 -412l2 -8q56 -13 109.5 -42.5t93.5 -62.5
t88.5 -89.5t77.5 -96t79 -110.5q37 -53 60.5 -85.5t62.5 -82.5t69.5 -82t74.5 -73.5t84 -68t93 -54.5t106 -44t117.5 -26.5t133.5 -10.5q89 0 181 19t162 46t134.5 61t101.5 59t61 45l45 39l11 -15l-45 -39q-78 -67 -182 -126t-253 -105t-291 -46q-80 0 -156 13t-138.5 33
t-125 54.5t-109.5 66.5t-99.5 82t-88 88t-81 96t-72 94.5t-67.5 95.5t-64.5 91t-60 78.5t-63.5 71.5t-60.5 51t-67 37t-68.5 11h-15v-721q0 -86 18.5 -106.5t92.5 -20.5h72v-18h-523zM2468 250q-278 0 -447.5 170.5t-169.5 449.5q0 278 170 448.5t447 170.5
q275 0 443.5 -170.5t168.5 -448.5q0 -279 -168.5 -449.5t-443.5 -170.5zM2474 287q209 0 318.5 139.5t109.5 404.5q0 303 -113 462t-329 159q-210 0 -320 -139.5t-110 -405.5q0 -302 113.5 -461t330.5 -159z" />
    <glyph glyph-name="afii10024_afii10070" unicode="&#x416;&#x435;" horiz-adv-x="3143" 
d="M631 0v18h72q73 0 90.5 20.5t18.5 106.5v721h-14q-69 0 -123.5 -17.5t-91.5 -57.5t-62 -77.5t-44.5 -104.5t-28 -108.5t-22.5 -119.5q-9 -51 -14.5 -78t-15.5 -72t-20 -70t-25 -59t-33 -53t-42 -37.5t-54.5 -26.5t-66.5 -8q-81 0 -166 76l-26 21l12 14l26 -21
q51 -40 98 -40q25 0 45.5 8.5t35 20t26 35.5t18.5 42.5t13.5 55.5t9.5 59t9 67q6 48 10 76.5t12.5 76.5t18 79t26 74.5t36.5 73t48.5 63.5t63 57.5t80.5 44.5t100 33l2 8l-326 412q-59 75 -140 108t-161 33h-25v19h453v-19h-18q-107 0 -107 -56q0 -30 37 -77l324 -408
q22 -28 122 -28v461q-1 73 -18.5 90.5t-90.5 17.5h-20v19h418v-19h-19q-74 0 -92.5 -17.5t-18.5 -90.5v-461q58 0 83.5 5.5t39.5 22.5l324 408q37 47 37 77q0 56 -107 56h-18v19h453v-19h-25q-80 0 -161 -33t-140 -108l-326 -412l2 -8q56 -13 109.5 -42.5t93.5 -62.5
t88.5 -89.5t77.5 -96t79 -110.5q37 -53 60.5 -85.5t62.5 -82.5t69.5 -82t74.5 -73.5t84 -68t93 -54.5t106 -44t117.5 -26.5t133.5 -10.5q89 0 181 19t162 46t134.5 61t101.5 59t61 45l45 39l11 -15l-45 -39q-78 -67 -182 -126t-253 -105t-291 -46q-80 0 -156 13t-138.5 33
t-125 54.5t-109.5 66.5t-99.5 82t-88 88t-81 96t-72 94.5t-67.5 95.5t-64.5 91t-60 78.5t-63.5 71.5t-60.5 51t-67 37t-68.5 11h-15v-721q0 -86 18.5 -106.5t92.5 -20.5h72v-18h-523zM2026 932q0 -4 -0.5 -12.5t-0.5 -12.5q0 -303 113 -461.5t330 -158.5q181 0 316 79.5
t203 222.5l31 -21q-74 -150 -217 -234t-333 -84q-278 0 -447.5 171.5t-169.5 452.5q0 277 171.5 446t451.5 169q244 0 393.5 -134.5t149.5 -353.5v-10q0 -25 -18 -42t-46 -17h-927zM2027 969l803 14q17 0 17 18q0 203 -104.5 327t-276.5 124q-204 0 -315 -123t-124 -360z
" />
    <glyph glyph-name="F_E" unicode="FE" horiz-adv-x="1857" 
d="M37 1473h1593q37 0 56 -19h2l-9 121l21 2l59 -909h-33l-12 163q-11 147 -83.5 212t-221.5 65h-299v-2q45 -45 45 -107v-403h82q39 0 67.5 3.5t59.5 17t50 36.5t31.5 64t12.5 98v92h19v-616h-19v51q0 57 -12.5 98t-31.5 63.5t-50 35.5t-59 16.5t-68 3.5h-82v-414
q0 -61 -45 -106v-2h336q153 0 229.5 68t85.5 229l8 143h37l-37 -555l-18 1l6 95h-2q-18 -18 -76 -18h-813v18h21q73 0 90.5 17.5t17.5 91.5v891q0 74 -17.5 91t-90.5 17h-31v19h778q36 0 54 -6l-5 61q-6 72 -32 119.5t-73.5 72.5t-103 34.5t-135.5 9.5h-1007v-2
q45 -45 45 -107v-610h61q40 0 71 3.5t67.5 16.5t60 35.5t39.5 63.5t16 98v123h19v-678h-19v84q0 106 -65 161.5t-189 55.5h-61v-555q0 -73 18 -90t92 -17h21v-18h-471v18h72q74 0 91 17t17 90v1206q0 77 -18.5 100t-89.5 23h-72v19z" />
    <glyph glyph-name="n_A" unicode="nA" horiz-adv-x="2637" 
d="M37 0v18h72q73 0 90.5 17.5t17.5 91.5v1167q0 28 -19 47t-49 19h-8l-121 -10l-2 12l158 33q66 13 109 51t43 98v8h16v-268q0 -179 -4 -215h14q6 54 33 133q44 131 146 209t229 78q163 0 253.5 -83.5t90.5 -225.5v-795q0 -166 108.5 -283.5t260.5 -117.5q100 0 170.5 64.5
t70.5 155.5q0 83 -51 135t-137 60h-55l16 37h704l-348 854q-16 38 -16 82h-19q0 -25 -24 -82l-490 -1120l-27 27l553 1276h158v-25q0 -72 19 -119l483 -1184q34 -81 53.5 -104t67.5 -23h16v-18h-391v18h158v5q-30 11 -64 96l-114 280h-600q59 -24 93 -75.5t34 -119.5
q0 -115 -92 -197.5t-220 -82.5q-129 0 -239 75t-174 204.5t-64 281.5v660q0 155 -47.5 232t-153.5 77q-159 0 -263.5 -139t-104.5 -361v-827q0 -73 18 -91t92 -18h72v-18h-522z" />
    <glyph glyph-name="m_A" unicode="mA" horiz-adv-x="3178" 
d="M37 0v18h72q73 0 90.5 17.5t17.5 91.5v1167q0 28 -19 47t-49 19h-8l-121 -10l-2 12l158 33q65 13 104 51t39 98v8h17v-268q0 -148 -4 -188h18q11 80 33 141q96 252 324 252q150 0 211 -71.5t61 -198.5v-123h8q3 44 22 107t29 83q53 100 124.5 151.5t178.5 51.5
q137 0 221.5 -71t84.5 -201v-832q0 -166 108 -283.5t260 -117.5q100 0 170.5 64.5t70.5 155.5q0 83 -50.5 135t-136.5 60h-56l17 37h704l-348 854q-16 38 -16 82h-19q0 -25 -24 -82l-490 -1120l-28 27l554 1276h158v-25q0 -72 19 -119l483 -1184q34 -81 53.5 -104t67.5 -23
h16v-18h-391v18h158v5q-30 11 -64 96l-114 280h-601q59 -24 93 -75.5t34 -119.5q0 -115 -91.5 -197.5t-219.5 -82.5q-129 0 -239 75t-174 204.5t-64 281.5v713q0 121 -45.5 188.5t-118.5 67.5q-140 0 -225.5 -130t-85.5 -343v-854q0 -73 18 -91t92 -18h54v-18h-443v18h137v5
q-11 11 -14.5 20t-3.5 33v1122q0 121 -45.5 188.5t-118.5 67.5q-140 0 -225.5 -130t-85.5 -343v-854q0 -73 18 -91t92 -18h72v-18h-522z" />
    <glyph glyph-name="m_Aogonek" unicode="m&#x104;" horiz-adv-x="3178" 
d="M37 0v18h72q73 0 90.5 17.5t17.5 91.5v1167q0 28 -19 47t-49 19h-8l-121 -10l-2 12l158 33q65 13 104 51t39 98v8h17v-268q0 -148 -4 -188h18q11 80 33 141q96 252 324 252q150 0 211 -71.5t61 -198.5v-123h8q3 44 22 107t29 83q53 100 124.5 151.5t178.5 51.5
q137 0 221.5 -71t84.5 -201v-832q0 -166 108 -283.5t260 -117.5q100 0 170.5 64.5t70.5 155.5q0 83 -50.5 135t-136.5 60h-56l17 37h704l-348 854q-16 38 -16 82h-19q0 -25 -24 -82l-490 -1120l-28 27l554 1276h158v-25q0 -72 19 -119l483 -1184q33 -83 52 -105t69 -22h16
v-18h-43q-157 0 -234 -75.5t-77 -196.5q0 -68 43 -110t114 -42q47 0 119 23l10 -35q-95 -29 -147 -29q-104 0 -167.5 51t-63.5 134q0 100 68.5 173.5t174.5 111.5v24q-26 9 -52 31.5t-42 58.5l-114 280h-601q59 -24 93 -75.5t34 -119.5q0 -115 -91.5 -197.5t-219.5 -82.5
q-129 0 -239 75t-174 204.5t-64 281.5v713q0 121 -45.5 188.5t-118.5 67.5q-140 0 -225.5 -130t-85.5 -343v-854q0 -73 18 -91t92 -18h54v-18h-443v18h137v5q-11 11 -14.5 20t-3.5 33v1122q0 121 -45.5 188.5t-118.5 67.5q-140 0 -225.5 -130t-85.5 -343v-854q0 -73 18 -91
t92 -18h72v-18h-522z" />
    <glyph glyph-name="K_A" unicode="KA" horiz-adv-x="2473" 
d="M37 0v18h72q73 0 90.5 20.5t17.5 106.5v1201q0 74 -17.5 91t-90.5 17h-71v19h469v-19h-19q-74 0 -92.5 -17.5t-18.5 -90.5v-461q60 0 90 5.5t43 22.5l324 408q37 47 37 77q0 56 -106 56h-19v19h453v-19h-25q-80 0 -161 -33t-140 -108l-325 -412l2 -8q51 -12 96 -36.5
t77.5 -52.5t63 -72t50 -78.5t40.5 -90t32 -89t29 -91.5q17 -55 28 -88t30.5 -80.5t38 -76t47 -61.5t61 -51t77 -30t97.5 -12q106 0 170.5 60t64.5 160q0 83 -51 135t-137 60h-55l16 37h704l-348 854q-16 38 -16 82h-18q0 -22 -25 -82l-490 -1120l-27 27l553 1276h159v-25
q0 -74 18 -119l483 -1184q34 -81 53.5 -104t67.5 -23h17v-18h-392v18h158v5q-29 11 -63 96l-115 280h-600q59 -24 93 -75.5t34 -119.5q0 -126 -86.5 -203.5t-226.5 -77.5q-62 0 -116.5 15.5t-96 40t-78 64t-62.5 79t-50.5 94t-41 100t-34.5 104.5q-15 49 -23.5 75.5
t-24 71.5t-27.5 70.5t-31.5 61.5t-37.5 56.5t-43.5 44.5t-53 36.5t-62.5 21t-74 8.5h-25v-721q0 -86 18.5 -106.5t92.5 -20.5h72v-18h-523z" />
    <glyph glyph-name="K_Aogonek" unicode="K&#x104;" horiz-adv-x="2473" 
d="M37 0v18h72q73 0 90.5 20.5t17.5 106.5v1201q0 74 -17.5 91t-90.5 17h-71v19h469v-19h-19q-74 0 -92.5 -17.5t-18.5 -90.5v-461q60 0 90 5.5t43 22.5l324 408q37 47 37 77q0 56 -106 56h-19v19h453v-19h-25q-80 0 -161 -33t-140 -108l-325 -412l2 -8q51 -12 96 -36.5
t77.5 -52.5t63 -72t50 -78.5t40.5 -90t32 -89t29 -91.5q17 -55 28 -88t30.5 -80.5t38 -76t47 -61.5t61 -51t77 -30t97.5 -12q106 0 170.5 60t64.5 160q0 83 -51 135t-137 60h-55l16 37h704l-348 854q-16 38 -16 82h-18q0 -22 -25 -82l-490 -1120l-27 27l553 1276h159v-25
q0 -74 18 -119l483 -1184q33 -83 52 -105t69 -22h17v-18h-43q-157 0 -234.5 -75.5t-77.5 -196.5q0 -68 43.5 -110t114.5 -42q46 0 118 23l11 -35q-95 -29 -147 -29q-104 0 -168 51t-64 134q0 100 68.5 173t175.5 112v24q-69 24 -94 90l-115 280h-600q59 -24 93 -75.5
t34 -119.5q0 -126 -86.5 -203.5t-226.5 -77.5q-62 0 -116.5 15.5t-96 40t-78 64t-62.5 79t-50.5 94t-41 100t-34.5 104.5q-15 49 -23.5 75.5t-24 71.5t-27.5 70.5t-31.5 61.5t-37.5 56.5t-43.5 44.5t-53 36.5t-62.5 21t-74 8.5h-25v-721q0 -86 18.5 -106.5t92.5 -20.5h72
v-18h-523z" />
    <glyph glyph-name="afii10024_afii10017" unicode="&#x416;&#x410;" horiz-adv-x="3057" 
d="M631 0v18h72q73 0 90.5 20.5t18.5 106.5v721h-14q-47 0 -87 -9.5t-70.5 -23.5t-57.5 -41t-45 -50t-35 -63t-26.5 -67.5t-20.5 -77t-16.5 -77t-14.5 -80.5q-10 -56 -16 -88.5t-18.5 -80.5t-25 -76t-33 -61.5t-44.5 -51.5t-58 -30t-75 -12q-81 0 -166 76l-26 21l12 14
l26 -21q51 -40 98 -40q25 0 45.5 8.5t34.5 20t26 35t18.5 42.5t13.5 54.5t10.5 58.5t8.5 67q8 65 15 108t21 103t31.5 100.5t47.5 87.5t67.5 79t91.5 59.5t121 42.5l2 8l-326 412q-59 75 -140 108t-161 33h-25v19h453v-19h-18q-107 0 -107 -56q0 -30 37 -77l324 -408
q22 -28 122 -28v461q-1 73 -18.5 90.5t-90.5 17.5h-20v19h418v-19h-19q-74 0 -92.5 -17.5t-18.5 -90.5v-461q101 0 123 28l324 408q37 47 37 77q0 56 -107 56h-18v19h453v-19h-25q-80 0 -161 -33t-140 -108l-326 -412l2 -8q51 -12 96 -36.5t78 -52.5t63.5 -72t49.5 -79
t40.5 -90t33 -89t28.5 -91q17 -56 28 -88.5t30.5 -80.5t37.5 -76t47 -61t61 -51t76.5 -30t97.5 -12q106 0 170.5 60t64.5 160q0 83 -50.5 135t-136.5 60h-56l17 37h704l-348 854q-16 38 -16 82h-19q0 -25 -24 -82l-490 -1120l-28 27l554 1276h158v-25q0 -72 19 -119
l483 -1184q34 -81 53.5 -104t67.5 -23h16v-18h-391v18h158v5q-30 11 -64 96l-114 280h-600q59 -24 92.5 -75.5t33.5 -119.5q0 -126 -86.5 -203.5t-226.5 -77.5q-62 0 -116.5 15.5t-96 40t-78 64t-62.5 79t-50.5 94t-41 100t-34.5 104.5q-15 50 -23.5 76t-24 71t-27.5 70
t-31 61.5t-37 57t-44 44.5t-53 36.5t-62 21t-74 8.5h-15v-721q0 -86 18.5 -106.5t92.5 -20.5h72v-18h-523z" />
    <glyph glyph-name="afii10017_afii10024" unicode="&#x410;&#x416;" horiz-adv-x="3002" 
d="M16 0v18h33q35 0 60 32t53 95l575 1328h158v-25q0 -74 18 -119l426 -1043q-43 -121 -109 -150l-470 1154q-17 40 -17 82h-18q0 -22 -25 -82l-372 -854h729l16 -37h-19q-86 -8 -137 -60t-51 -135q0 -99 65 -159.5t171 -60.5q53 0 97.5 12t77 30t61 51t47 61.5t38 76
t30.5 80.5t28 88q18 58 29 91.5t32 89t40.5 90t50 78.5t63 72t77.5 52.5t96 36.5l2 8l-325 412q-59 75 -140.5 108t-161.5 33h-24v19h453v-19h-19q-106 0 -106 -56q0 -31 36 -77l324 -408q22 -28 123 -28v461q0 73 -18.5 90.5t-92.5 17.5h-18v19h418v-19h-21q-73 0 -90 -17
t-18 -91v-461q100 0 122 28l324 408q36 46 36 77q0 56 -106 56h-18v19h452v-19h-24q-80 0 -161 -33t-140 -108l-326 -412l2 -8q67 -15 121 -42.5t91.5 -59.5t67.5 -79t47.5 -87.5t31.5 -100.5t21 -103t15 -108q5 -44 8.5 -67t10.5 -58.5t13.5 -54.5t18.5 -42.5t26 -35
t34.5 -20t45.5 -8.5q46 0 97 40l27 21l11 -14l-26 -21q-85 -76 -166 -76q-41 0 -75 12.5t-58 30t-44.5 51t-32.5 61t-24.5 76.5t-18.5 80.5t-16 88.5q-17 95 -28 145.5t-39 127.5t-63.5 116t-98 69.5t-145.5 30.5h-13v-721q1 -86 18 -106.5t90 -20.5h73v-18h-523v18h71
q74 0 92.5 20.5t18.5 106.5v721h-14q-39 0 -74 -8.5t-62.5 -21t-53 -36.5t-43.5 -44.5t-37.5 -56.5t-31.5 -61.5t-27.5 -70.5t-24 -71.5t-23.5 -75.5q-18 -59 -34.5 -104.5t-41 -100t-50.5 -94t-62.5 -79t-78 -64t-96 -40t-116.5 -15.5q-140 0 -226 77.5t-86 203.5
q0 68 33.5 119.5t92.5 75.5h-663l-111 -254q-11 -27 -11 -46q0 -36 27 -58.5t72 -22.5h100v-18h-373z" />
    <glyph glyph-name="Z_A" unicode="ZA" horiz-adv-x="2299" 
d="M0 0v18q26 0 67.5 40.5t79.5 119.5l537 1127q22 46 65 81.5t82 45.5v6h-401q-79 0 -128.5 -9t-88 -35t-57 -73t-23.5 -123l-2 -40l-14 1l22 434l15 -2l-7 -137q11 11 21 15t33 4h796v-19q-22 0 -62.5 -40t-78.5 -120l-537 -1122q-45 -92 -98 -129v-6h801q80 0 135 9.5
t102 34t73 72t34 119.5l6 56q1 8 1 23q0 73 -44 118.5t-122 52.5h-25l12 35h612l-299 733q-16 38 -16 82h-18q0 -22 -25 -82l-438 -1001q-39 -89 -39 -146h-88q54 69 88 146l513 1184h158v-25q0 -72 19 -119l483 -1184q34 -81 53.5 -104t67.5 -23h16v-18h-391v18h158v5
q-29 11 -63 96l-165 403h-534q58 -24 93.5 -84.5t35.5 -128.5q0 -3 -0.5 -8.5t-0.5 -8.5l-32 -396l-20 2l8 120h-2q-11 -11 -21 -14.5t-34 -3.5h-1313z" />
    <glyph glyph-name="Z_Aogonek" unicode="Z&#x104;" horiz-adv-x="2299" 
d="M0 0v18q26 0 67.5 40.5t79.5 119.5l537 1127q22 46 65 81.5t82 45.5v6h-401q-79 0 -128.5 -9t-88 -35t-57 -73t-23.5 -123l-2 -40l-14 1l22 434l15 -2l-7 -137q11 11 21 15t33 4h796v-19q-22 0 -62.5 -40t-78.5 -120l-537 -1122q-45 -92 -98 -129v-6h801q80 0 135 9.5
t102 34t73 72t34 119.5l6 56q1 8 1 23q0 73 -44 118.5t-122 52.5h-25l12 35h612l-299 733q-16 38 -16 82h-18q0 -22 -25 -82l-438 -1001q-39 -89 -39 -146h-88q54 69 88 146l513 1184h158v-25q0 -72 19 -119l483 -1184q33 -81 53 -104t68 -23h16v-18h-42
q-157 0 -234.5 -75.5t-77.5 -196.5q0 -68 43.5 -110t114.5 -42q46 0 118 23l11 -35q-95 -29 -148 -29q-104 0 -167.5 51t-63.5 134q0 100 68.5 173t175.5 112v24q-69 24 -94 90l-165 403h-534q58 -24 93.5 -84.5t35.5 -128.5q0 -3 -0.5 -8.5t-0.5 -8.5l-32 -396l-20 2l8 120
h-2q-11 -11 -21 -14.5t-34 -3.5h-1313z" />
    <glyph glyph-name="Zdotaccent_A" unicode="&#x17b;A" horiz-adv-x="2299" 
d="M0 0v18q26 0 67.5 40.5t79.5 119.5l537 1127q22 46 65 81.5t82 45.5v6h-401q-79 0 -128.5 -9t-88 -35t-57 -73t-23.5 -123l-2 -40l-14 1l22 434l15 -2l-7 -137q11 11 21 15t33 4h796v-19q-22 0 -62.5 -40t-78.5 -120l-537 -1122q-45 -92 -98 -129v-6h801q80 0 135 9.5
t102 34t73 72t34 119.5l6 56q1 8 1 23q0 73 -44 118.5t-122 52.5h-25l12 35h612l-299 733q-16 38 -16 82h-18q0 -22 -25 -82l-438 -1001q-39 -89 -39 -146h-88q54 69 88 146l513 1184h158v-25q0 -72 19 -119l483 -1184q34 -81 53.5 -104t67.5 -23h16v-18h-391v18h158v5
q-29 11 -63 96l-165 403h-534q58 -24 93.5 -84.5t35.5 -128.5q0 -3 -0.5 -8.5t-0.5 -8.5l-32 -396l-20 2l8 120h-2q-11 -11 -21 -14.5t-34 -3.5h-1313zM541 1843q40 0 65 -24t25 -66q0 -41 -24 -66.5t-66 -25.5q-40 0 -66 25t-26 67q0 40 25 65t67 25z" />
    <glyph glyph-name="Zcaron_A" unicode="&#x17d;A" horiz-adv-x="2299" 
d="M569 1610h-57l-209 205l31 36l100 -100q103 -103 103 -119h8q0 15 104 119l101 100l30 -36zM0 0v18q26 0 67.5 40.5t79.5 119.5l537 1127q22 46 65 81.5t82 45.5v6h-401q-79 0 -128.5 -9t-88 -35t-57 -73t-23.5 -123l-2 -40l-14 1l22 434l15 -2l-7 -137q11 11 21 15t33 4
h796v-19q-22 0 -62.5 -40t-78.5 -120l-537 -1122q-45 -92 -98 -129v-6h801q80 0 135 9.5t102 34t73 72t34 119.5l6 56q1 8 1 23q0 73 -44 118.5t-122 52.5h-25l12 35h612l-299 733q-16 38 -16 82h-18q0 -22 -25 -82l-438 -1001q-39 -89 -39 -146h-88q54 69 88 146l513 1184
h158v-25q0 -72 19 -119l483 -1184q34 -81 53.5 -104t67.5 -23h16v-18h-391v18h158v5q-29 11 -63 96l-165 403h-534q58 -24 93.5 -84.5t35.5 -128.5q0 -3 -0.5 -8.5t-0.5 -8.5l-32 -396l-20 2l8 120h-2q-11 -11 -21 -14.5t-34 -3.5h-1313z" />
    <glyph glyph-name="Y_D" unicode="YD" horiz-adv-x="2506" 
d="M236 0v18h176q73 0 90.5 17.5t17.5 91.5v567l-321 619q-42 81 -68.5 112t-67.5 31h-43v17h388v-17h-127v-4q18 -7 35.5 -33t48.5 -82l264 -503q21 -39 26 -66h15q2 14 26 64q47 90 89.5 162.5t96.5 149t108 134.5t121 111t138.5 87t157.5 54t180 20q253 0 447.5 -96
t300.5 -271.5t106 -404.5q0 -231 -99.5 -408t-281.5 -273.5t-420 -96.5h-596v18h91q73 0 90.5 18.5t17.5 92.5v1086q29 15 77.5 30.5t82.5 19.5v-1130q0 -61 -35 -96v-2h217q332 0 506 190t174 551q0 322 -186.5 518.5t-491.5 196.5q-125 0 -234.5 -34.5t-194.5 -92
t-164.5 -148t-139.5 -184.5t-125 -219l-47 -90v-598q0 -73 18 -91t91 -18h90v-18h-645z" />
    <glyph glyph-name="Y_B" unicode="YB" horiz-adv-x="2238" 
d="M236 0v18h176q73 0 90.5 17.5t17.5 91.5v567l-321 619q-42 81 -68.5 112t-67.5 31h-43v17h388v-17h-127v-4q18 -7 35.5 -33t48.5 -82l264 -503q21 -39 26 -66h15q4 27 26 66q52 97 80.5 148.5t84 140t99 138t112 112.5t135.5 96t156.5 57t188.5 24q223 0 359.5 -98.5
t136.5 -259.5q0 -98 -82 -197t-213 -118v-9q129 -9 234 -75.5t161 -164t56 -202.5q0 -125 -75.5 -223t-204 -150.5t-286.5 -52.5h-575v18h72q73 0 90.5 17.5t17.5 91.5v1067q81 39 160 51v-1100q0 -69 -35 -104v-4h234q190 0 306.5 107t116.5 282q0 184 -122.5 303
t-313.5 119h-108v35h82q151 0 231 78t80 227t-89.5 227t-260.5 78q-70 0 -136 -14t-121 -36.5t-107.5 -59t-94.5 -73.5t-84.5 -89t-74 -96.5t-66.5 -104.5t-59 -105t-54 -105l-45 -85v-598q0 -73 18 -91t91 -18h49v-18h-604z" />
    <glyph glyph-name="Y_P" unicode="YP" horiz-adv-x="2195" 
d="M236 0v18h176q73 0 90.5 17.5t17.5 91.5v567l-321 619q-42 81 -68.5 112t-67.5 31h-43v17h388v-17h-127v-4q18 -7 35.5 -33t48.5 -82l264 -503q21 -39 26 -66h15q2 14 26 64q43 84 76 143t78 132t85.5 123.5t92 105t106 90.5t118 66t137.5 44t157 14q266 0 429 -131.5
t163 -347.5q0 -224 -154 -361t-405 -137h-176v-446q0 -73 18 -91t92 -18h52v-18h-502v18h72q73 0 90.5 17.5t17.5 91.5v1088q29 15 77.5 30.5t82.5 19.5v-655h115q216 0 329 118t113 343q0 206 -106 314t-308 108q-90 0 -170 -18.5t-144 -48t-125 -80t-107.5 -102.5
t-96.5 -127.5t-88 -142t-86 -159.5l-47 -90v-598q0 -73 18 -91t91 -18h90v-18h-645z" />
    <glyph glyph-name="Y_R" unicode="YR" horiz-adv-x="2287" 
d="M236 0v18h176q73 0 90.5 17.5t17.5 91.5v567l-321 619q-42 81 -68.5 112t-67.5 31h-43v17h388v-17h-127v-4q18 -7 35.5 -33t48.5 -82l264 -503q21 -39 26 -66h15q2 14 26 64q43 84 76 143t78 132t85.5 123.5t92 105t106 90.5t118 66t137.5 44t157 14q268 0 432 -136
t164 -359q0 -204 -122 -333t-312 -147l-41 -2v-12q70 -7 131 -46.5t96 -94.5l103 -162q37 -58 62.5 -94.5t66.5 -75.5t71 -39q32 0 59 23l45 39l11 -15l-45 -39q-91 -78 -169 -78q-37 0 -71 16t-65.5 51t-51.5 62t-52 76l-144 222q-57 87 -98 122t-105 35h-108v-436
q0 -73 18 -91t92 -18h119v-18h-590v18h93q73 0 90.5 17.5t17.5 91.5v1088q29 15 77.5 30.5t82.5 19.5v-667h178q187 0 285 117t98 340q0 197 -115 317.5t-303 120.5q-90 0 -170 -18.5t-144 -48t-125 -80t-107.5 -102.5t-96.5 -127.5t-88 -142t-86 -159.5l-47 -90v-598
q0 -73 18 -91t91 -18h110v-18h-665z" />
    <glyph glyph-name="Y_R_A" unicode="YRA" horiz-adv-x="3559" 
d="M236 0v18h176q73 0 90.5 17.5t17.5 91.5v567l-321 619q-42 81 -68.5 112t-67.5 31h-43v17h388v-17h-127v-4q18 -7 35.5 -33t48.5 -82l264 -503q21 -39 26 -66h15q2 14 26 64q43 84 76 143t78 132t85.5 123.5t92 105t106 90.5t118 66t137.5 44t157 14q268 0 432 -136
t164 -359q0 -204 -122 -333t-312 -147l-43 -2v-12q48 -5 93 -28.5t88 -67t74.5 -82.5t74.5 -100q38 -54 66 -90t69.5 -79.5t78.5 -69t85 -43t98 -17.5q101 0 163 60t62 160q0 83 -51 135t-137 60h-35l16 37h705l-348 854q-17 40 -17 82h-18q0 -22 -25 -82l-489 -1120l-28 27
l554 1276h158v-25q0 -74 18 -119l484 -1184q34 -81 53.5 -104t67.5 -23h16v-18h-391v18h158v5q-30 11 -64 96l-114 280h-621q59 -24 93 -75.5t34 -119.5q0 -126 -94 -203.5t-246 -77.5q-67 0 -131.5 25t-111.5 58.5t-102.5 93.5t-87 101.5t-81.5 111.5q-46 64 -72.5 98
t-64 75t-70.5 59t-66 18h-106v-436q0 -73 18 -91t92 -18h119v-18h-590v18h93q73 0 90.5 17.5t17.5 91.5v1088q29 15 77.5 30.5t82.5 19.5v-667h178q187 0 285 117t98 340q0 197 -115 317.5t-303 120.5q-90 0 -170 -18.5t-144 -48t-125 -80t-107.5 -102.5t-96.5 -127.5
t-88 -142t-86 -159.5l-47 -90v-598q0 -73 18 -91t91 -18h110v-18h-665z" />
    <glyph glyph-name="S_T" unicode="ST" horiz-adv-x="1998" 
d="M893 1044l-37 1v86q-4 83 -43.5 155t-115.5 119t-173 47q-136 0 -208 -64t-72 -186q0 -35 9.5 -67t24 -57.5t41 -52.5t49.5 -45.5t61 -42.5t64.5 -38.5t71.5 -38.5q54 -28 85 -45.5t79.5 -48.5t77.5 -56t63.5 -62.5t53.5 -75t32 -86.5t13 -103q0 -194 -128 -296.5
t-370 -102.5q-92 0 -167 26.5t-157 83.5q-11 8 -29 31.5t-22 36.5l-8 -2q5 -17 8 -88l6 -128l-18 -1l-27 559l37 2l4 -84q9 -178 115 -289t255 -111q169 0 258 84.5t89 245.5q0 38 -10.5 72.5t-25 61.5t-42.5 55t-51 47.5t-63.5 44.5t-66.5 39.5t-73 39.5q-52 27 -81.5 44
t-75.5 46t-73.5 52.5t-60 59t-50 70t-30 80t-12.5 95.5q0 149 116.5 240.5t307.5 91.5q87 0 164 -25.5t129 -64.5q9 -7 20 -23.5t13 -23.5l14 4q-8 28 -8 65v172l37 -1v-119h1032l-10 117l22 1l31 -473l-37 -2l-6 84q-5 75 -20.5 120t-49.5 71.5t-81 35.5t-125 9h-140v-1309
q0 -73 17.5 -91t91.5 -18h151v-18h-684v18h156q73 0 91 18t18 91v1309h-181q-78 0 -127 -9t-84.5 -35t-50 -72t-14.5 -120v-156z" />
    <glyph glyph-name="C_A" unicode="CA" horiz-adv-x="2551" 
d="M72 741q0 222 88.5 392t251 263t374.5 93q222 0 375 -131q16 -16 23 -41l14 4q-4 16 -6 59l-4 149l18 1l19 -592l-37 -1l-6 189q-5 89 -65 165.5t-153 119.5t-194 43q-252 0 -384 -174t-132 -506q0 -367 130 -560.5t376 -193.5q153 0 281 73t187 208l508 1172h158v-25
q0 -72 19 -119l483 -1184q34 -81 53.5 -104t67.5 -23h16v-18h-391v18h158v5q-30 11 -64 96l-114 280h-811l-49 -112q-63 -146 -201 -224.5t-301 -78.5q-310 0 -499 208t-189 549zM1327 436h780l-348 854q-16 38 -16 82h-19q0 -25 -24 -82z" />
    <glyph glyph-name="L_L" unicode="LL" horiz-adv-x="1562" 
d="M580 1473h479v-19h-82q-74 0 -91.5 -17.5t-17.5 -90.5v-873q0 -61 -45 -106v-2h346q149 0 221.5 64.5t84.5 211.5l6 76h32l-53 -821l-20 2l8 120h-2q-11 -11 -21 -14.5t-34 -3.5h-1354v18h72q71 0 89.5 23t18.5 100v1207q0 73 -17 89.5t-91 16.5h-72v19h471v-19h-21
q-74 0 -92 -16.5t-18 -89.5v-1203q0 -61 -45 -106v-2h768q80 0 135.5 9.5t103 34t73.5 72t32 119.5l5 62q-18 -6 -54 -6h-867v18h72q74 0 91.5 18t17.5 91v891q0 73 -17.5 90.5t-91.5 17.5h-20v19z" />
    <glyph glyph-name="L_K" unicode="LK" horiz-adv-x="1845" 
d="M621 246v18h58q71 0 86 19.5t15 107.5v955q0 74 -17 91t-90 17h-72v19h469v-19h-19q-74 0 -92.5 -17.5t-18.5 -90.5v-461q119 0 163 9t69 40l307 387q37 44 37 77q0 56 -106 56h-19v19h453v-19h-25q-80 0 -161 -33t-140 -108l-325 -412l2 -8q53 -12 98 -32t79.5 -43
t63 -55.5t48 -62t36 -71t26.5 -74t19 -79.5t13.5 -78.5t10.5 -80.5l9 -67.5t9.5 -59.5t13.5 -55.5t19 -43t26 -36t34.5 -20t46.5 -8.5q46 0 97 40l27 21l11 -14l-26 -21q-85 -76 -166 -76q-41 0 -75 12.5t-58 30t-44.5 52t-32.5 61.5t-25 77t-19 80.5t-16 88.5
q-12 67 -19 103.5t-23 96.5t-32.5 93.5t-45 76t-62 64.5t-82.5 37.5t-109 15.5h-107v-557q0 -20 11.5 -32.5t30.5 -12.5h18v-18h-379zM37 0v18h72q71 0 89.5 23t18.5 100v1207q0 73 -17 89.5t-91 16.5h-72v19h481v-19h-31q-74 0 -92 -16.5t-18 -89.5v-1203q0 -61 -45 -106
v-2h461q80 0 135.5 9.5t103 34t73.5 72t32 119.5l16 205h41l-41 -581l-20 2l8 120h-2q-18 -18 -56 -18h-1046z" />
    <glyph glyph-name="L_K_A" unicode="LKA" horiz-adv-x="3119" 
d="M621 246v18h58q71 0 86 19.5t15 107.5v955q0 74 -17 91t-90 17h-72v19h469v-19h-19q-74 0 -92.5 -17.5t-18.5 -90.5v-461q119 0 163 9t69 40l307 387q37 44 37 77q0 56 -106 56h-19v19h453v-19h-25q-80 0 -161.5 -33t-139.5 -108l-325 -412l2 -8q51 -12 96 -36.5
t77.5 -52.5t63 -72t50 -78.5t40.5 -90t32 -89t29 -91.5q17 -55 28 -88t30.5 -80.5t38 -76t47 -61.5t61 -51t77 -30t97.5 -12q106 0 170.5 60t64.5 160q0 83 -51 135t-137 60h-55l16 37h704l-347 854q-17 40 -17 82h-18q0 -22 -25 -82l-490 -1120l-27 27l554 1276h158v-25
q0 -74 18 -119l483 -1184q34 -81 53.5 -104t67.5 -23h17v-18h-391v18h157v5q-29 11 -63 96l-115 280h-600q59 -24 93 -75.5t34 -119.5q0 -126 -86.5 -203.5t-226.5 -77.5q-62 0 -116.5 15.5t-96 40t-78 64t-62.5 79t-50.5 94t-41 100t-34.5 104.5q-13 43 -21 68t-21.5 65
t-24.5 64t-26.5 57.5t-31 54t-36 45.5t-43 39t-49 27.5t-58 19.5t-66.5 6h-107v-557q0 -20 11.5 -32.5t30.5 -12.5h18v-18h-379zM37 0v18h72q71 0 89.5 23t18.5 100v1207q0 73 -17 89.5t-91 16.5h-72v19h481v-19h-31q-74 0 -92 -16.5t-18 -89.5v-1203q0 -61 -45 -106v-2h461
q80 0 135.5 9.5t103 34t73.5 72t32 119.5l16 205h41l-41 -581l-20 2l8 120h-2q-18 -18 -56 -18h-1046z" />
    <glyph glyph-name="L_K_Aogonek" unicode="LK&#x104;" horiz-adv-x="3119" 
d="M621 246v18h58q71 0 86 19.5t15 107.5v955q0 74 -17 91t-90 17h-72v19h469v-19h-19q-74 0 -92.5 -17.5t-18.5 -90.5v-461q119 0 163 9t69 40l307 387q37 44 37 77q0 56 -106 56h-19v19h453v-19h-25q-80 0 -161.5 -33t-139.5 -108l-325 -412l2 -8q51 -12 96 -36.5
t77.5 -52.5t63 -72t50 -78.5t40.5 -90t32 -89t29 -91.5q17 -55 28 -88t30.5 -80.5t38 -76t47 -61.5t61 -51t77 -30t97.5 -12q106 0 170.5 60t64.5 160q0 83 -51 135t-137 60h-55l16 37h704l-347 854q-17 40 -17 82h-18q0 -22 -25 -82l-490 -1120l-27 27l554 1276h158v-25
q0 -74 18 -119l483 -1184q33 -83 52 -105t69 -22h17v-18h-43q-157 0 -234.5 -75.5t-77.5 -196.5q0 -68 43.5 -110t114.5 -42q46 0 118 23l11 -35q-95 -29 -147 -29q-104 0 -168 51t-64 134q0 100 68.5 173t175.5 112v24q-26 9 -52 31.5t-42 58.5l-115 280h-600
q59 -24 93 -75.5t34 -119.5q0 -126 -86.5 -203.5t-226.5 -77.5q-62 0 -116.5 15.5t-96 40t-78 64t-62.5 79t-50.5 94t-41 100t-34.5 104.5q-13 43 -21 68t-21.5 65t-24.5 64t-26.5 57.5t-31 54t-36 45.5t-43 39t-49 27.5t-58 19.5t-66.5 6h-107v-557q0 -20 11.5 -32.5
t30.5 -12.5h18v-18h-379zM37 0v18h72q71 0 89.5 23t18.5 100v1207q0 73 -17 89.5t-91 16.5h-72v19h481v-19h-31q-74 0 -92 -16.5t-18 -89.5v-1203q0 -61 -45 -106v-2h461q80 0 135.5 9.5t103 34t73.5 72t32 119.5l16 205h41l-41 -581l-20 2l8 120h-2q-18 -18 -56 -18h-1046z
" />
    <glyph glyph-name="L_N" unicode="LN" horiz-adv-x="1894" 
d="M616 246v18h54q74 0 92 18t18 91v973q0 73 -18 90.5t-92 17.5h-54v19h314l684 -1063q37 -63 37 -76h12q-2 23 -2 86v905q0 73 -28.5 101t-102.5 28h-92v19h422v-19h-33q-74 0 -102.5 -28t-28.5 -101v-1364h-17q0 15 -17 53.5t-40 73.5l-758 1184q-11 18 -21.5 37.5
t-15 30.5t-4.5 12h-10q2 -23 2 -88v-891q0 -73 18.5 -91t92.5 -18h22v-18h-332zM37 0v18h72q71 0 89.5 23t18.5 100v1207q0 73 -17 89.5t-91 16.5h-72v19h481v-19h-31q-74 0 -92 -16.5t-18 -89.5v-1203q0 -61 -45 -106v-2h430q80 0 136 9.5t103.5 34t73.5 72t31 119.5
l12 164h41l-37 -540l-20 2l8 120h-2q-11 -11 -21 -14.5t-34 -3.5h-1016z" />
    <glyph glyph-name="Lslash_A" unicode="&#x141;A" horiz-adv-x="2105" 
d="M57 0v18h72q71 0 90 23.5t19 101.5v303q0 16 3 43.5t6 46.5l3 19h-12l-191 -142l-22 29l213 158v746q0 73 -17.5 90.5t-91.5 17.5h-72v19h523v-19h-72q-74 0 -92.5 -17.5t-18.5 -90.5v-517l-10 -110h10l402 297l22 -30l-424 -312v-529q0 -61 -45 -106v-2h477
q80 0 135 9.5t102.5 34t73.5 72t34 119.5l5 56q1 8 1 23q0 73 -44 118.5t-122 52.5h-25l12 35h611l-299 733q-17 40 -17 82h-18q0 -22 -25 -82l-499 -1145h-39l575 1328h158v-25q0 -74 18 -119l484 -1184q34 -81 53.5 -104t67.5 -23h16v-18h-391v18h157v5q-29 11 -63 96
l-164 403h-532q58 -24 93.5 -84.5t35.5 -128.5q0 -3 -0.5 -8.5t-0.5 -8.5l-32 -396l-21 2l9 120h-2q-18 -18 -56 -18h-1063z" />
    <glyph glyph-name="Lslash_Aogonek" unicode="&#x141;&#x104;" horiz-adv-x="2105" 
d="M57 0v18h72q71 0 90 23.5t19 101.5v303q0 16 3 43.5t6 46.5l3 19h-12l-191 -142l-22 29l213 158v746q0 73 -17.5 90.5t-91.5 17.5h-72v19h523v-19h-72q-74 0 -92.5 -17.5t-18.5 -90.5v-517l-10 -110h10l402 297l22 -30l-424 -312v-529q0 -61 -45 -106v-2h477
q80 0 135 9.5t102.5 34t73.5 72t34 119.5l5 56q1 8 1 23q0 73 -44 118.5t-122 52.5h-25l12 35h611l-299 733q-17 40 -17 82h-18q0 -22 -25 -82l-499 -1145h-39l575 1328h158v-25q0 -74 18 -119l484 -1184q33 -83 52 -105t69 -22h16v-18h-43q-157 0 -234 -75.5t-77 -196.5
q0 -68 43 -110t114 -42q46 0 118 23l11 -35q-95 -29 -147 -29q-104 0 -168 51t-64 134q0 100 68.5 173t175.5 112v24q-26 9 -52 31.5t-42 58.5l-164 403h-532q58 -24 93.5 -84.5t35.5 -128.5q0 -3 -0.5 -8.5t-0.5 -8.5l-32 -396l-21 2l9 120h-2q-18 -18 -56 -18h-1063z" />
    <glyph glyph-name="C_Aogonek" unicode="C&#x104;" horiz-adv-x="2551" 
d="M1311 399l-49 -112q-63 -146 -201 -224.5t-301 -78.5q-310 0 -499 208t-189 549q0 222 88.5 392t251 263t374.5 93q222 0 375 -131q16 -16 23 -41l14 4q-4 16 -6 59l-4 149l18 1l19 -592l-37 -1l-6 189q-5 89 -65 165.5t-153 119.5t-194 43q-252 0 -384 -174t-132 -506
q0 -368 129.5 -561t376.5 -193q144 0 276 72.5t191 207.5l509 1173h158v-25q0 -72 19 -119l483 -1184q33 -83 52 -105t69 -22h16v-18h-42q-157 0 -234.5 -75.5t-77.5 -196.5q0 -68 43.5 -110t114.5 -42q46 0 118 23l11 -35q-95 -29 -148 -29q-104 0 -167.5 51t-63.5 134
q0 100 68.5 173t175.5 112v24q-66 23 -95 90l-114 280h-811zM1327 436h780l-348 854q-16 38 -16 82h-19q0 -25 -24 -82z" />
    <glyph glyph-name="C_S" unicode="CS" horiz-adv-x="2088" 
d="M983 937l-6 189q-5 130 -118.5 229t-260.5 99q-168 0 -256 -167t-88 -484q0 -377 212.5 -577.5t618.5 -205.5v179h21v-179q380 0 579 108.5t199 315.5q0 36 -9.5 67.5t-23.5 56.5t-39.5 49.5t-48.5 41.5t-59.5 37t-63.5 32.5t-69 31.5q-47 21 -76.5 35t-71.5 38t-69 44.5
t-57 51.5t-47 63t-28.5 74.5t-11.5 90.5q0 149 111 240.5t293 91.5q151 0 272 -90q9 -7 20 -23.5t13 -23.5l14 4q-5 16 -8 65l-6 109h20l23 -483l-37 -2l-4 86q-3 63 -23 119t-56.5 102t-95.5 73t-132 27q-125 0 -192.5 -64.5t-67.5 -185.5q0 -46 17.5 -85.5t42.5 -67.5
t69.5 -56.5t80 -46t93.5 -43.5q49 -22 80 -36.5t75.5 -40t72.5 -47.5t60 -55t50.5 -68t30.5 -81t12 -98q0 -241 -238.5 -367t-693.5 -126v-215h-21v215q-302 3 -532 105t-355.5 285t-125.5 421q0 313 149.5 503.5t394.5 190.5q188 0 340 -131q16 -16 23 -41l14 4
q-4 16 -6 59l-4 149l18 1l19 -592z" />
    <glyph glyph-name="C_D" unicode="CD" horiz-adv-x="2463" 
d="M1442 217l-160 -12v1122q0 77 -18.5 102t-89.5 25h-52v19h475q238 0 420 -91.5t281.5 -259t99.5 -385.5q0 -261 -146.5 -461t-414.5 -309.5t-618 -109.5q-255 0 -469 68t-363 189.5t-232 296.5t-83 384q0 313 149.5 503.5t394.5 190.5q188 0 340 -131q16 -16 23 -41l14 4
q-4 16 -6 59l-4 149l18 1l19 -592l-37 -1l-6 189q-5 130 -118.5 229t-260.5 99q-168 0 -256 -167t-88 -484q0 -443 247.5 -676t717.5 -233q489 0 746 216t257 627q0 341 -174.5 520t-505.5 179h-135v-2q35 -35 35 -97v-1120z" />
    <glyph glyph-name="L_H" unicode="LH" horiz-adv-x="1918" 
d="M621 246v18h51q71 0 89.5 25t18.5 102v936q0 77 -18.5 102t-89.5 25h-72v19h504v-19h-53q-71 0 -91 -25t-20 -102v-534h602v534q0 77 -19.5 102t-90.5 25h-54v19h506v-19h-74q-71 0 -89.5 -25t-18.5 -102v-1182q0 -77 18.5 -102t89.5 -25h74v-18h-506v18h56q71 0 89.5 25
t18.5 102v611h-602v-447q0 -20 11.5 -32.5t30.5 -12.5h17v-18h-378zM37 0v18h72q71 0 89.5 23t18.5 100v1207q0 73 -17 89.5t-91 16.5h-72v19h481v-19h-31q-74 0 -92 -16.5t-18 -89.5v-1203q0 -61 -45 -106v-2h461q80 0 135.5 9.5t103 34t73.5 72t32 119.5l16 205h41
l-41 -581l-20 2l8 120h-2q-18 -18 -56 -18h-1046z" />
    <glyph glyph-name="T_H" unicode="TH" horiz-adv-x="2174" 
d="M209 0v18h156q73 0 90.5 17.5t17.5 91.5v1309h-123q-153 0 -211 -46t-65 -190l-6 -84l-37 2l30 475l23 -1l-10 -119h1323l-10 117l22 1l31 -473l-37 -2l-6 84q-5 75 -20.5 120t-50 71.5t-81.5 35.5t-125 9h-487v-1309q0 -74 17.5 -91.5t90.5 -17.5h50v-18h-582zM877 0v18
h51q71 0 89.5 25t18.5 102v938q0 77 -18.5 102t-89.5 25h-51v19h378v-19h-17q-19 0 -30.5 -12.5t-11.5 -32.5v-448h602v610q0 77 -18.5 102t-89.5 25h-56v19h506v-19h-74q-71 0 -89.5 -25t-18.5 -102v-1182q0 -77 18.5 -102t89.5 -25h74v-18h-506v18h54q71 0 90.5 25
t19.5 102v535h-602v-535q0 -77 20 -102t91 -25h53v-18h-483z" />
    <glyph glyph-name="G_E" unicode="GE" horiz-adv-x="2535" 
d="M1360 0v18h113q73 0 90.5 17.5t17.5 91.5v586h-274v-551h-101q-30 0 -59 -29q-68 -72 -163.5 -110.5t-201.5 -38.5q-322 0 -518 208t-196 549q0 222 87.5 392t247 263t367.5 93q222 0 375 -129q14 -12 22 -39l9 2q-7 28 -7 47l-10 200l21 1l28 -570l-34 -2l-5 74
q-10 173 -132.5 276t-286.5 103q-245 0 -374.5 -173.5t-129.5 -504.5q0 -367 139.5 -560.5t405.5 -193.5q106 2 199.5 44t154.5 124v334q0 86 -52.5 138.5t-138.5 52.5h-237v37h1126q40 0 68 3.5t59 16.5t50 35.5t31.5 63.5t12.5 98v112h19v-698h-19v113q0 57 -12.5 98
t-31.5 64t-50 36.5t-59.5 17t-67.5 3.5h-102v-568q0 -61 -45 -106v-2h448q149 0 221.5 64.5t83.5 211.5l13 164h32l-34 -555l-19 1l6 95h-2q-18 -18 -75 -18h-1010zM1401 1473h858q57 0 76 -19h2l-6 95l18 1l37 -555h-37l-8 144q-9 161 -86 229t-230 68h-329v-2
q45 -45 45 -107v-455h-160v474q0 74 -17.5 91t-90.5 17h-72v19z" />
    <glyph glyph-name="G_F" unicode="GF" horiz-adv-x="2400" 
d="M1401 0v18h72q73 0 90.5 17.5t17.5 91.5v553h-274v-518h-101q-30 0 -59 -29q-68 -72 -163.5 -110.5t-201.5 -38.5q-322 0 -518 208t-196 549q0 222 87.5 392t247 263t367.5 93q222 0 375 -129q14 -12 22 -39l9 2q-7 28 -7 47l-10 200l21 1l28 -570l-34 -2l-5 74
q-10 173 -132.5 276t-286.5 103q-245 0 -374.5 -173.5t-129.5 -504.5q0 -367 139.5 -560.5t405.5 -193.5q106 2 199.5 44t154.5 124v301q0 86 -52.5 138.5t-138.5 52.5h-237v37h1106q124 0 189 55.5t65 161.5v123h18v-709h-18v113q0 107 -65 163t-189 56h-82v-553
q0 -73 18 -91t92 -18h134v-18h-584zM1401 1473h831q57 0 76 -19h2l-8 140l18 1l39 -600h-37l-8 144q-5 80 -35 139t-81.5 93t-114 49.5t-139.5 15.5h-248v-2q45 -45 45 -107v-455h-160v474q0 74 -17.5 91t-90.5 17h-72v19z" />
    <glyph glyph-name="G_B" unicode="GB" horiz-adv-x="2617" 
d="M1782 842h160q152 0 231.5 76t79.5 221t-87 221t-253 76h-166v-2q35 -35 35 -107v-485zM1442 0v18h71q73 0 91 18t18 91v555h160v-557q0 -33 -7 -48t-28 -36v-4h233q207 0 315.5 94.5t108.5 274.5q0 196 -111.5 297.5t-324.5 101.5h-661v-602h-101q-30 0 -59 -29
q-72 -77 -188.5 -133.5t-217.5 -56.5q-303 0 -488 208t-185 549q0 222 87.5 392t247 263t367.5 93q222 0 375 -129q14 -12 22 -39l9 2q-7 28 -7 47l-10 200l21 1l24 -496l-35 -2q-10 173 -132.5 276t-286.5 103q-245 0 -374.5 -173.5t-129.5 -504.5q0 -367 129.5 -560.5
t374.5 -193.5q101 1 216.5 62.5t178.5 146.5v385q0 86 -52.5 138.5t-138.5 52.5h-237v37h905v504q0 73 -17.5 90.5t-91.5 17.5h-71v19h500q218 0 351.5 -90.5t133.5 -239.5q0 -61 -33.5 -125t-103 -116.5t-158.5 -65.5v-9q195 -13 323 -136.5t128 -284.5q0 -182 -156 -294
t-410 -112h-575z" />
    <glyph glyph-name="G_A" unicode="GA" horiz-adv-x="2875" 
d="M1319 0v18h53q35 0 60 32t53 95l182 420h-360v-219q-31 -55 -80 -118.5t-80 -94.5q-68 -72 -163.5 -110.5t-201.5 -38.5q-322 0 -518 208t-196 549q0 222 87.5 392t247 263t367.5 93q222 0 375 -129q14 -12 22 -39l9 2q-7 28 -7 47l-10 200l21 1l32 -631l-34 -2l-9 135
q-11 173 -133 276t-286 103q-245 0 -374.5 -173.5t-129.5 -504.5q0 -367 139.5 -560.5t405.5 -193.5q106 2 199.5 44t154.5 124v187q0 86 -52.5 138t-138.5 52h-237v37h966l377 871h158v-25q0 -74 18 -119l484 -1184q34 -81 53.5 -104t67.5 -23h16v-18h-391v18h157v5
q-29 11 -63 96l-477 1171q-17 40 -17 82h-18q0 -22 -25 -82l-300 -688h518l14 -37h-548l-183 -420q-11 -27 -11 -46q0 -36 27 -58.5t72 -22.5h100v-18h-393z" />
    <glyph glyph-name="A_S" unicode="AS" horiz-adv-x="2265" 
d="M16 0v18h33q35 0 60 32t53 95l575 1328h158v-25q0 -74 18 -119l373 -914q80 -195 183 -295t244 -100q156 0 251.5 82.5t95.5 216.5q0 52 -18 99t-44.5 83t-71 74t-83 63.5t-94.5 59.5q-50 30 -76.5 47t-71.5 48.5t-70 55.5t-57 60.5t-48 71.5t-28 80.5t-12 95.5
q0 149 111 240.5t293 91.5q151 0 272 -90q9 -7 20 -23.5t13 -23.5l14 4q-5 16 -8 65l-6 109h21l22 -483l-37 -2l-4 86q-3 63 -23 119t-56.5 102t-95.5 73t-132 27q-125 0 -192.5 -64.5t-67.5 -185.5q0 -41 10.5 -77.5t35.5 -69.5t47 -56.5t66 -54.5t69.5 -47.5t79.5 -48.5
q67 -40 110.5 -69.5t99 -77.5t88 -95t55.5 -113.5t23 -140.5q0 -166 -137 -267t-361 -101q-60 0 -118.5 9.5t-128 37.5t-129.5 72.5t-118 120.5t-99 175h-811l-111 -254q-11 -27 -11 -46q0 -36 27 -58.5t72 -22.5h100v-18h-373zM328 436h780l-348 854q-17 40 -17 82h-18
q0 -22 -25 -82z" />
    <glyph glyph-name="Aogonek_S" unicode="&#x104;S" horiz-adv-x="2265" 
d="M328 436h780l-348 854q-17 40 -17 82h-18q0 -22 -25 -82zM16 0v18h33q35 0 60 32t53 95l575 1328h158v-25q0 -74 18 -119l373 -914q80 -196 182.5 -295.5t243.5 -99.5q157 0 252.5 82.5t95.5 216.5q0 52 -18 99t-44.5 83t-71 74t-83 63.5t-94.5 59.5q-50 30 -76.5 47
t-71.5 48.5t-70 55.5t-57 60.5t-48 71.5t-28 80.5t-12 95.5q0 149 111 240.5t293 91.5q151 0 272 -90q9 -7 20 -23.5t13 -23.5l14 4q-5 16 -8 65l-6 109h21l22 -483l-37 -2l-4 86q-3 63 -23 119t-56.5 102t-95.5 73t-132 27q-125 0 -192.5 -64.5t-67.5 -185.5
q0 -41 10.5 -77.5t35.5 -69.5t47 -56.5t66 -54.5t69.5 -47.5t79.5 -48.5q67 -40 110.5 -69.5t99 -77.5t88 -95t55.5 -113.5t23 -140.5q0 -166 -137 -267t-361 -101q-88 0 -161.5 -76t-73.5 -180q0 -68 43.5 -110t113.5 -42q47 0 119 23l10 -35q-95 -29 -147 -29
q-104 0 -167.5 50.5t-63.5 133.5q0 94 69 171t158 101q-69 10 -133.5 35t-132 70.5t-126.5 123t-101 179.5h-811l-111 -254q-11 -27 -11 -46q0 -36 27 -58.5t72 -22.5h100v-18h-373z" />
    <glyph glyph-name="A_Sacute" unicode="A&#x15a;" horiz-adv-x="2265" 
d="M1694 1550l-19 17l242 284q8 11 20 11q9 0 21 -9l24 -20l-49 -61zM16 0v18h33q35 0 60 32t53 95l575 1328h158v-25q0 -74 18 -119l373 -914q80 -195 183 -295t244 -100q156 0 251.5 82.5t95.5 216.5q0 52 -18 99t-44.5 83t-71 74t-83 63.5t-94.5 59.5q-50 30 -76.5 47
t-71.5 48.5t-70 55.5t-57 60.5t-48 71.5t-28 80.5t-12 95.5q0 149 111 240.5t293 91.5q151 0 272 -90q9 -7 20 -23.5t13 -23.5l14 4q-5 16 -8 65l-6 109h21l22 -483l-37 -2l-4 86q-3 63 -23 119t-56.5 102t-95.5 73t-132 27q-125 0 -192.5 -64.5t-67.5 -185.5
q0 -41 10.5 -77.5t35.5 -69.5t47 -56.5t66 -54.5t69.5 -47.5t79.5 -48.5q67 -40 110.5 -69.5t99 -77.5t88 -95t55.5 -113.5t23 -140.5q0 -166 -137 -267t-361 -101q-60 0 -118.5 9.5t-128 37.5t-129.5 72.5t-118 120.5t-99 175h-811l-111 -254q-11 -27 -11 -46
q0 -36 27 -58.5t72 -22.5h100v-18h-373zM328 436h780l-348 854q-17 40 -17 82h-18q0 -22 -25 -82z" />
    <glyph glyph-name="G_Eogonek" unicode="G&#x118;" horiz-adv-x="2535" 
d="M1360 0v18h113q73 0 90.5 17.5t17.5 91.5v586h-274v-551h-101q-30 0 -59 -29q-68 -72 -163.5 -110.5t-201.5 -38.5q-322 0 -518 208t-196 549q0 222 87.5 392t247 263t367.5 93q222 0 375 -129q14 -12 22 -39l9 2q-7 28 -7 47l-10 200l21 1l28 -570l-34 -2l-5 74
q-10 173 -132.5 276t-286.5 103q-245 0 -374.5 -173.5t-129.5 -504.5q0 -367 139.5 -560.5t405.5 -193.5q106 2 199.5 44t154.5 124v334q0 86 -52.5 138.5t-138.5 52.5h-237v37h1126q40 0 68 3.5t59 16.5t50 35.5t31.5 63.5t12.5 98v112h19v-698h-19v113q0 57 -12.5 98
t-31.5 64t-50 36.5t-59.5 17t-67.5 3.5h-102v-568q0 -61 -45 -106v-2h448q149 0 221.5 64.5t83.5 211.5l13 164h32l-28 -459q-18 -18 -76 -18q-28 0 -65.5 -14.5t-78.5 -43.5t-69.5 -85.5t-28.5 -128.5q0 -68 44 -110t115 -42q46 0 118 23l11 -35q-95 -29 -147 -29
q-104 0 -168 51t-64 134q0 95 61 167.5t158 112.5l-3 12l-129 -12h-784zM1401 1473h858q57 0 76 -19h2l-6 95l18 1l37 -555h-37l-8 144q-9 161 -86 229t-230 68h-329v-2q45 -45 45 -107v-455h-160v474q0 74 -17.5 91t-90.5 17h-72v19z" />
    <glyph glyph-name="G_Aogonek" unicode="G&#x104;" horiz-adv-x="2875" 
d="M1319 0v18h53q35 0 60 32t53 95l182 420h-360v-219q-31 -55 -80 -118.5t-80 -94.5q-68 -72 -163.5 -110.5t-201.5 -38.5q-322 0 -518 208t-196 549q0 222 87.5 392t247 263t367.5 93q222 0 375 -129q14 -12 22 -39l9 2q-7 28 -7 47l-10 200l21 1l32 -631l-34 -2l-9 135
q-11 173 -133 276t-286 103q-245 0 -374.5 -173.5t-129.5 -504.5q0 -367 139.5 -560.5t405.5 -193.5q106 2 199.5 44t154.5 124v187q0 86 -52.5 138t-138.5 52h-237v37h966l377 871h158v-25q0 -74 18 -119l484 -1184q33 -83 52 -105t69 -22h16v-18h-43q-157 0 -234 -75.5
t-77 -196.5q0 -68 43 -110t114 -42q46 0 118 23l11 -35q-95 -29 -147 -29q-104 0 -168 51t-64 134q0 100 68.5 173t175.5 112v24q-26 9 -52 31.5t-42 58.5l-477 1171q-17 40 -17 82h-18q0 -22 -25 -82l-300 -688h518l14 -37h-548l-183 -420q-11 -27 -11 -46q0 -36 27 -58.5
t72 -22.5h100v-18h-393z" />
    <glyph glyph-name="G_A_S" unicode="GAS" horiz-adv-x="3588" 
d="M1319 0v18h53q35 0 60 32t53 95l182 420h-360v-219q-31 -55 -80 -118.5t-80 -94.5q-68 -72 -163.5 -110.5t-201.5 -38.5q-322 0 -518 208t-196 549q0 222 87.5 392t247 263t367.5 93q222 0 375 -129q14 -12 22 -39l9 2q-7 28 -7 47l-10 200l21 1l32 -631l-34 -2l-9 135
q-11 173 -133 276t-286 103q-245 0 -374.5 -173.5t-129.5 -504.5q0 -367 139.5 -560.5t405.5 -193.5q106 2 199.5 44t154.5 124v187q0 86 -52.5 138t-138.5 52h-237v37h966l377 871h158v-25q0 -74 18 -119l373 -914q79 -195 182.5 -294.5t244.5 -99.5q156 0 251.5 82
t95.5 216q0 52 -18 99t-44.5 83t-71 74t-83 63.5t-94.5 59.5q-50 30 -77 47t-71.5 48.5t-69.5 55.5t-56.5 60.5t-48 71.5t-28 80.5t-11.5 95.5q0 149 111 240.5t292 91.5q151 0 272 -90q9 -7 20 -23.5t13 -23.5l14 4q-5 16 -8 65l-6 109h21l22 -483l-37 -2l-4 86
q-3 63 -23 119t-56.5 102t-95.5 73t-132 27q-125 0 -192.5 -64.5t-67.5 -185.5q0 -41 10.5 -77.5t35.5 -69.5t47 -56.5t66 -54.5t69.5 -47.5t79.5 -48.5q67 -40 110.5 -69.5t99 -77.5t88 -95t55.5 -113.5t23 -140.5q0 -166 -137 -267t-361 -101q-60 0 -118.5 9.5t-128 37.5
t-129.5 72.5t-118 120.5t-99 175l-363 891q-17 40 -17 82h-18q0 -22 -25 -82l-300 -688h518l14 -37h-548l-183 -420q-11 -27 -11 -46q0 -36 27 -58.5t72 -22.5h100v-18h-393z" />
    <glyph glyph-name="Y_O" unicode="YO" horiz-adv-x="2586" 
d="M236 0v18h176q73 0 90.5 17.5t17.5 91.5v567l-321 619q-42 81 -68.5 112t-67.5 31h-43v17h388v-17h-127v-4q18 -7 35.5 -33t48.5 -82l264 -503q21 -39 26 -66h15q2 14 26 64q96 185 220 325t256 222t264 122.5t262 40.5q245 0 432.5 -100t290 -283t102.5 -422
q0 -224 -94 -395t-266 -264.5t-396 -93.5q-323 0 -520.5 207t-197.5 546q0 33 5 70.5t24 99t50.5 118.5t91.5 121.5t140 114.5q-133 -178 -133 -487q0 -367 140.5 -560.5t406.5 -193.5q278 0 424.5 175t146.5 508q0 381 -170.5 581.5t-495.5 200.5q-119 0 -244 -38.5
t-251.5 -116t-245.5 -210t-209 -305.5l-47 -90v-598q0 -73 18 -91t91 -18h90v-18h-645z" />
    <glyph glyph-name="S_Y" unicode="SY" horiz-adv-x="2013" 
d="M1071 0v18h176q73 0 91 18t18 91v567l-131 252q-151 291 -305.5 419t-341.5 128q-163 0 -248.5 -74.5t-85.5 -216.5q0 -35 9.5 -68t22.5 -58.5t39.5 -54t47 -46.5t59.5 -45t61 -41t68 -41q55 -33 92 -57.5t85.5 -61.5t80 -74t61 -83.5t44 -102t14.5 -117.5
q0 -166 -125.5 -267t-331.5 -101q-92 0 -167 26.5t-157 83.5q-11 8 -29 31.5t-22 36.5l-8 -2q6 -28 8 -88l6 -128l-18 -1l-27 559l37 2l4 -84q9 -178 115 -289t255 -111q138 0 222 82.5t84 216.5q0 52 -18 99t-44.5 83t-71 74t-83 63.5t-94.5 59.5q-50 30 -76.5 47
t-71.5 48.5t-70 55.5t-57 60.5t-48 71.5t-28 80.5t-12 95.5q0 168 131.5 270.5t346.5 102.5q88 0 163 -10.5t162.5 -43t162.5 -86t153 -146t143 -216.5l102 -194q23 -41 27 -66h14q3 18 27 66l246 475q30 58 30 90q0 57 -88 57h-123v17h396v-17h-35q-42 0 -67.5 -29.5
t-69.5 -115.5l-303 -586v-598q0 -74 17.5 -91.5t90.5 -17.5h152v-18h-707z" />
    <glyph glyph-name="S_Y_P" unicode="SYP" horiz-adv-x="3026" 
d="M1092 0v18h155q73 0 91 18t18 91v567l-131 252q-151 291 -305.5 419t-341.5 128q-163 0 -248.5 -74.5t-85.5 -216.5q0 -35 9.5 -68t22.5 -58.5t39.5 -54t47 -46.5t59.5 -45t61 -41t68 -41q55 -33 92 -57.5t85.5 -61.5t80 -74t61 -83.5t44 -102t14.5 -117.5
q0 -166 -125.5 -267t-331.5 -101q-92 0 -167 26.5t-157 83.5q-11 8 -29 31.5t-22 36.5l-8 -2q6 -28 8 -88l6 -128l-18 -1l-27 559l37 2l4 -84q9 -178 115 -289t255 -111q138 0 222 82.5t84 216.5q0 52 -18 99t-44.5 83t-71 74t-83 63.5t-94.5 59.5q-50 30 -76.5 47
t-71.5 48.5t-70 55.5t-57 60.5t-48 71.5t-28 80.5t-12 95.5q0 168 131.5 270.5t346.5 102.5q88 0 163 -10.5t162.5 -43t162.5 -86t153 -146t143 -216.5l102 -194q23 -41 27 -66h14q2 14 26 64q50 96 87.5 163t90.5 148t100.5 135.5t112 110t131 88t151 53t178.5 20.5
q266 0 429 -131.5t163 -347.5q0 -224 -154 -361t-405 -137h-177v-446q0 -73 18.5 -91t92.5 -18h51v-18h-502v18h72q74 0 91.5 18t17.5 91v1088q30 15 78 30.5t81 19.5v-655h115q216 0 329.5 118t113.5 343q0 190 -114 306t-300 116q-79 0 -149.5 -13t-131.5 -40t-113 -60
t-101 -83t-89 -98.5t-82.5 -116.5t-76 -127.5t-75.5 -139.5l-46 -90v-598q0 -74 17.5 -91.5t90.5 -17.5h100v-18h-634z" />
    <glyph glyph-name="S_Y_R" unicode="SYR" horiz-adv-x="3123" 
d="M1092 0v18h155q73 0 91 18t18 91v567l-131 252q-151 291 -305.5 419t-341.5 128q-163 0 -248.5 -74.5t-85.5 -216.5q0 -35 9.5 -68t22.5 -58.5t39.5 -54t47 -46.5t59.5 -45t61 -41t68 -41q55 -33 92 -57.5t85.5 -61.5t80 -74t61 -83.5t44 -102t14.5 -117.5
q0 -166 -125.5 -267t-331.5 -101q-92 0 -167 26.5t-157 83.5q-11 8 -29 31.5t-22 36.5l-8 -2q6 -28 8 -88l6 -128l-18 -1l-27 559l37 2l4 -84q9 -178 115 -289t255 -111q138 0 222 82.5t84 216.5q0 52 -18 99t-44.5 83t-71 74t-83 63.5t-94.5 59.5q-50 30 -76.5 47
t-71.5 48.5t-70 55.5t-57 60.5t-48 71.5t-28 80.5t-12 95.5q0 168 131.5 270.5t346.5 102.5q88 0 163 -10.5t162.5 -43t162.5 -86t153 -146t143 -216.5l102 -194q23 -41 27 -66h14q2 14 26 64q50 96 87.5 163t90.5 148t100.5 135.5t112 110t131 88t151 53t178.5 20.5
q268 0 432 -136t164 -359q0 -204 -122 -333t-312 -147l-41 -2v-12q70 -7 131 -46.5t96 -94.5l102 -162q26 -41 46 -69t49 -64.5t56 -56t50 -19.5q31 0 58 23l46 39l11 -15l-45 -39q-91 -78 -169 -78q-37 0 -71 16t-66 50.5t-52.5 62.5t-51.5 76l-143 222q-57 87 -98 122
t-105 35h-109v-436q0 -73 18.5 -91t92.5 -18h119v-18h-590v18h92q74 0 91.5 18t17.5 91v1088q30 15 78 30.5t81 19.5v-667h179q187 0 285 117t98 340q0 197 -115 317.5t-303 120.5q-79 0 -149.5 -13t-131.5 -40t-113 -60t-101 -83t-89 -98.5t-82.5 -116.5t-76 -127.5
t-75.5 -139.5l-46 -90v-598q0 -74 17.5 -91.5t90.5 -17.5h100v-18h-634z" />
    <glyph glyph-name="A_S_Y" unicode="ASY" horiz-adv-x="3299" 
d="M16 0v18h33q35 0 60 32t53 95l575 1328h158v-25q0 -74 18 -119l373 -914q80 -195 183 -295t244 -100q156 0 251.5 82.5t95.5 216.5q0 52 -17.5 99t-44.5 83t-70.5 73.5t-83 64t-95.5 59.5q-50 30 -76.5 47t-71.5 48.5t-70 55.5t-57 60.5t-48 71.5t-28 80.5t-12 95.5
q0 168 131.5 270.5t346.5 102.5q88 0 163 -10.5t162.5 -43t162.5 -86t153 -146t143 -216.5l102 -194q23 -41 27 -66h14q3 18 27 66l246 475q30 58 30 90q0 57 -88 57h-122v17h395v-17h-35q-42 0 -67.5 -29.5t-69.5 -115.5l-303 -586v-598q0 -74 17.5 -91.5t90.5 -17.5h152
v-18h-707v18h176q73 0 91 18t18 91v567l-131 252q-151 291 -305.5 419t-341.5 128q-163 0 -248.5 -74.5t-85.5 -216.5q0 -41 10.5 -77.5t35.5 -69.5t47 -56.5t66 -54.5t69.5 -47.5t79.5 -48.5q66 -39 111 -69t99.5 -78t87.5 -95.5t55.5 -113.5t22.5 -140q0 -166 -137 -267
t-361 -101q-60 0 -118.5 9.5t-128 37.5t-129.5 72.5t-118 120.5t-99 175h-811l-111 -254q-11 -27 -11 -46q0 -36 27 -58.5t72 -22.5h100v-18h-373zM328 436h780l-348 854q-17 40 -17 82h-18q0 -22 -25 -82z" />
    <glyph glyph-name="Aogonek_S_Y" unicode="&#x104;SY" horiz-adv-x="3299" 
d="M328 436h780l-348 854q-17 40 -17 82h-18q0 -22 -25 -82zM16 0v18h33q35 0 60 32t53 95l575 1328h158v-25q0 -74 18 -119l373 -914q80 -195 183 -295t244 -100q156 0 251.5 82.5t95.5 216.5q0 64 -24 119t-72.5 102.5t-95.5 81t-119 76.5q-50 30 -76.5 47t-71.5 48.5
t-70 55.5t-57 60.5t-48 71.5t-28 80.5t-12 95.5q0 168 131.5 270.5t346.5 102.5q88 0 163 -10.5t162.5 -43t162.5 -86t153 -146t143 -216.5l102 -194q23 -41 27 -66h14q3 18 27 66l246 475q30 58 30 90q0 57 -88 57h-122v17h395v-17h-35q-42 0 -67.5 -29.5t-69.5 -115.5
l-303 -586v-598q0 -74 17.5 -91.5t90.5 -17.5h152v-18h-707v18h176q73 0 91 18t18 91v567l-131 252q-151 291 -305.5 419t-341.5 128q-163 0 -248.5 -74.5t-85.5 -216.5q0 -41 10.5 -77.5t35.5 -69.5t47 -56.5t66 -54.5t69.5 -47.5t79.5 -48.5q55 -33 92 -58t85.5 -62
t80 -74t61 -83t43.5 -101.5t14 -117.5q0 -166 -137 -267t-361 -101q-88 0 -161.5 -76t-73.5 -180q0 -68 43.5 -110t113.5 -42q47 0 119 23l10 -35q-95 -29 -147 -29q-104 0 -167.5 50.5t-63.5 133.5q0 94 69 171t158 101q-69 10 -133.5 35t-132 70.5t-126.5 123t-101 179.5
h-811l-111 -254q-11 -27 -11 -46q0 -36 27 -58.5t72 -22.5h100v-18h-373z" />
    <glyph glyph-name="U_N" unicode="UN" horiz-adv-x="1980" 
d="M37 1473h522v-19h-90q-74 0 -91.5 -17.5t-17.5 -90.5v-1063q0 -128 69.5 -195.5t199.5 -67.5q161 0 259.5 92.5t98.5 243.5v990q0 73 -18 90.5t-92 17.5h-54v19h316l561 -1033q37 -63 37 -75h12q-2 23 -2 86v874q0 73 -28.5 101t-102.5 28h-92v19h422v-19h-33
q-74 0 -102.5 -28t-28.5 -101v-1364h-17q0 24 -57 127l-635 1153q-41 74 -41 80h-10q2 -23 2 -88v-877q0 -168 -108.5 -270t-286.5 -102q-193 0 -310.5 102t-117.5 270v990q0 73 -18.5 90.5t-92.5 17.5h-53v19z" />
    <glyph glyph-name="O_O" unicode="OO" horiz-adv-x="2547" 
d="M1384 1241q93 -102 144 -231.5t51 -272.5q0 -153 -60 -292.5t-161 -240.5t-241 -160.5t-294 -59.5q-342 0 -551 207t-209 546q0 338 209 545t551 207q195 0 370 -96q-30 -24 -44 -37q-146 96 -334 96q-280 0 -426.5 -173.5t-146.5 -504.5q0 -368 150.5 -561t436.5 -193
q275 0 444 189.5t169 499.5q0 279 -120 466q31 39 62 66zM1357 80q23 18 43 37q147 -97 335 -97q278 0 424.5 173.5t146.5 504.5q0 368 -150 561t-436 193q-277 0 -445.5 -189t-168.5 -499q0 -275 120 -467q-27 -34 -61 -65q-93 102 -144.5 232t-51.5 273q0 153 60.5 292
t162 240t242.5 160.5t295 59.5q224 0 395.5 -93.5t265.5 -264.5t94 -394q0 -224 -94 -395t-265.5 -264.5t-395.5 -93.5q-199 0 -372 96z" />
    <glyph glyph-name="D_O" unicode="DO" horiz-adv-x="2404" 
d="M1170 1164q29 39 71 77q195 -198 195 -504q0 -164 -59.5 -301.5t-166.5 -233t-260 -149t-336 -53.5h-577v18h72q73 0 90.5 17.5t17.5 91.5v1200q0 77 -18.5 102t-89.5 25h-72v19h577q237 0 424 -89q-32 -27 -55 -50q-175 102 -403 102h-238v-2q35 -35 35 -97v-1202
q0 -61 -35 -96v-2h238q324 0 521 192.5t197 507.5q0 251 -128 427zM1208 83l46 36q149 -99 337 -99q278 0 425 173.5t147 504.5q0 368 -150 561t-436 193q-277 0 -445.5 -189t-168.5 -499q0 -258 103 -438q-32 -36 -69 -66q-172 209 -172 477q0 153 60.5 292t162 240
t242.5 160.5t295 59.5q340 0 548 -207t208 -545q0 -224 -94 -395t-266 -264.5t-396 -93.5q-203 0 -377 99z" />
    <glyph glyph-name="O_C" unicode="OC" horiz-adv-x="2252" 
d="M1319 1180q28 39 59 67q95 -103 148 -234t53 -276q0 -153 -60 -292.5t-161 -240.5t-241 -160.5t-294 -59.5q-342 0 -551 207t-209 546q0 338 209 545t551 207q193 0 363 -93q-16 -12 -42 -37q-144 93 -329 93q-280 0 -426.5 -173.5t-146.5 -504.5q0 -368 150.5 -561
t436.5 -193q275 0 444 189.5t169 499.5q0 278 -123 471zM1352 76q23 18 43 37q141 -93 315 -93q149 0 276 76.5t179 203.5l35 -13q-58 -148 -192 -225.5t-302 -77.5q-190 0 -354 92zM1224 295q-28 -36 -62 -65q-93 102 -143 233.5t-50 277.5q0 152 58 290.5t156.5 238.5
t234.5 159.5t286 59.5q222 0 375 -131q14 -14 22 -41l15 4q-5 21 -7 59l-4 149l19 1l18 -592l-37 -1l-6 189q-5 89 -65 165.5t-152.5 119.5t-193.5 43q-261 0 -420.5 -190t-159.5 -500q0 -284 116 -469z" />
    <glyph glyph-name="O_G" unicode="OG" horiz-adv-x="2408" 
d="M1376 1250q96 -102 149.5 -234.5t53.5 -278.5q0 -153 -60 -292.5t-161 -240.5t-241 -160.5t-294 -59.5q-342 0 -551 207t-209 546q0 338 209 545t551 207q190 0 361 -91q-23 -18 -43 -37q-145 91 -326 91q-280 0 -426.5 -173.5t-146.5 -504.5q0 -368 150.5 -561
t436.5 -193q275 0 444 189.5t169 499.5q0 286 -125 475q29 39 59 66zM1352 76q23 18 43 37q143 -93 317 -93q106 2 199.5 44t154.5 124v310q0 68 -41 108.5t-108 40.5h-135v37h620v-37h-174v-729h-18v143q-2 40 -25.5 70.5t-56.5 30.5q-31 0 -60 -29q-68 -72 -163 -110.5
t-201 -38.5q-185 0 -352 92zM1224 294q-29 -36 -62 -65q-93 102 -143 234t-50 278q0 152 57.5 290.5t154 238.5t230.5 159.5t281 59.5q221 0 374 -129q15 -13 23 -39l8 2q-6 24 -6 47l-10 200l20 1l33 -631l-35 -2l-8 135q-11 173 -133.5 276t-286.5 103q-254 0 -409.5 -189
t-155.5 -499q0 -282 118 -470z" />
    <glyph glyph-name="afii10054_afii10037" unicode="&#x405;&#x423;" horiz-adv-x="2041" 
d="M1081 147q71 -16 115 -16q107 0 161.5 41.5t89.5 124.5l17 39q10 25 10 53q0 31 -14 62l-235 495q-138 288 -297 417.5t-350 129.5q-163 0 -248.5 -74.5t-85.5 -216.5q0 -35 9.5 -68t22.5 -58.5t39.5 -54t47 -46.5t59.5 -45t61 -41t68 -41q55 -33 92 -57.5t85.5 -61.5
t80 -74t61 -83.5t44 -102t14.5 -117.5q0 -166 -125.5 -267t-331.5 -101q-92 0 -167 26.5t-157 83.5q-11 8 -29 31.5t-22 36.5l-8 -2q6 -28 8 -88l6 -128l-18 -1l-27 559l37 2l4 -84q9 -178 115 -289t255 -111q138 0 222 82.5t84 216.5q0 52 -18 99t-44.5 83t-71 74t-83 63.5
t-94.5 59.5q-50 30 -76.5 47t-71.5 48.5t-70 55.5t-57 60.5t-48 71.5t-28 80.5t-12 95.5q0 168 131.5 270.5t346.5 102.5q73 0 135.5 -7t135.5 -25.5t138 -54.5t131 -89.5t128 -136.5t116 -189l172 -340q18 -36 18 -92v-4l15 4l286 731q15 41 15 63q0 64 -101 64h-94v19h352
v-17h-12q-47 0 -68 -26t-51 -103l-432 -1094q-48 -122 -121.5 -185.5t-154.5 -63.5q-105 0 -105 163z" />
    <glyph glyph-name="C_Y" unicode="CY" horiz-adv-x="2238" 
d="M1173 131q-73 -73 -175 -110t-218 -37q-213 0 -376 94t-252 266t-89 397q0 234 92 413.5t260 277.5t388 98q88 0 163 -10.5t163 -43t163 -86t153 -146t143 -216.5l102 -194q21 -39 26 -66h15q3 21 26 66l246 475q30 58 30 90q0 57 -87 57h-123v17h395v-17h-35
q-42 0 -67.5 -29.5t-69.5 -115.5l-303 -586v-598q0 -74 17.5 -91.5t90.5 -17.5h152v-18h-625v18h95q73 0 90.5 17.5t17.5 91.5v567l-131 252q-151 291 -305.5 419t-341.5 128q-271 0 -414 -184.5t-143 -534.5q0 -368 138 -561t400 -193q101 0 196 37t164 104z" />
    <glyph glyph-name="G_Y" unicode="GY" horiz-adv-x="2320" 
d="M1395 641v-37h-113v-309l-160 -162q-68 -73 -162 -111t-200 -38q-212 0 -370.5 94t-242.5 265.5t-84 397.5q0 234 92 413.5t260 277.5t388 98q603 0 866 -502l103 -194q21 -39 26 -66h14q3 18 27 66l246 475q30 58 30 90q0 57 -87 57h-123v17h395v-17h-35
q-42 0 -67.5 -29.5t-69.5 -115.5l-303 -586v-598q0 -74 17.5 -91.5t90.5 -17.5h152v-18h-625v18h94q74 0 91.5 18t17.5 91v567l-131 252q-74 143 -164.5 250.5t-185 171t-189.5 94.5t-190 31q-271 0 -414 -184.5t-143 -534.5q0 -371 129 -562.5t389 -191.5q106 2 200.5 44
t155.5 124v226q0 86 -52 138t-138 52h-238v37h703z" />
    <glyph glyph-name="G_Adieresis_S_T" unicode="G&#xc4;ST" horiz-adv-x="4567" 
d="M1319 0v18h53q35 0 60 32t53 95l182 420h-360v-219q-31 -55 -80 -118.5t-80 -94.5q-68 -72 -163.5 -110.5t-201.5 -38.5q-322 0 -518 208t-196 549q0 222 87.5 392t247 263t367.5 93q222 0 375 -129q14 -12 22 -39l9 2q-7 28 -7 47l-10 200l21 1l32 -631l-34 -2l-9 135
q-11 173 -133 276t-286 103q-245 0 -374.5 -173.5t-129.5 -504.5q0 -367 139.5 -560.5t405.5 -193.5q106 2 199.5 44t154.5 124v187q0 86 -52.5 138t-138.5 52h-237v37h966l377 871h158v-25q0 -74 18 -119l373 -914q80 -195 182.5 -294.5t244.5 -99.5q169 0 258 84t89 245
q0 52 -18.5 98.5t-44.5 79.5t-73 68.5t-85 58t-100 55.5q-49 26 -80.5 44t-75 46t-71 52.5t-58 59t-48 69.5t-29 80.5t-11.5 95.5q0 149 116.5 240.5t307.5 91.5q87 0 164 -25.5t129 -64.5q9 -7 20 -23.5t13 -23.5l14 4q-8 28 -8 65v172l37 -1v-119h1011l-10 117l23 1
l30 -473l-36 -2l-7 84q-5 75 -20.5 120t-49.5 71.5t-81 35.5t-125 9h-119v-1309q0 -73 18 -91t91 -18h151v-18h-684v18h156q73 0 90.5 17.5t17.5 91.5v1309h-180q-78 0 -127 -9t-84.5 -35t-50 -72t-14.5 -120v-156l-37 1v86q-4 83 -43.5 155t-115.5 119t-173 47
q-137 0 -209 -64.5t-72 -185.5q0 -48 17.5 -91.5t43 -75t71 -65.5t83 -56t97.5 -54t98 -54t89.5 -57t83.5 -69.5t62.5 -79.5t45 -99.5t14.5 -117.5q0 -194 -128 -296.5t-370 -102.5q-50 0 -98.5 7t-105 23.5t-109.5 48t-104 75.5t-96.5 111t-79.5 150l-363 891
q-17 40 -17 82h-18q0 -22 -25 -82l-300 -688h518l14 -37h-548l-183 -420q-11 -27 -11 -46q0 -36 27 -58.5t72 -22.5h100v-18h-393zM1880 1765q41 0 66.5 -24t25.5 -66q0 -40 -25 -65t-67 -25q-40 0 -65 24t-25 66q0 40 24 65t66 25zM2363 1765q41 0 66 -24t25 -66
q0 -40 -24.5 -65t-66.5 -25q-41 0 -66.5 24t-25.5 66q0 40 25 65t67 25z" />
    <glyph glyph-name="G_A_S_T" unicode="GAST" horiz-adv-x="4567" 
d="M1319 0v18h53q35 0 60 32t53 95l182 420h-360v-219q-31 -55 -80 -118.5t-80 -94.5q-68 -72 -163.5 -110.5t-201.5 -38.5q-322 0 -518 208t-196 549q0 222 87.5 392t247 263t367.5 93q222 0 375 -129q14 -12 22 -39l9 2q-7 28 -7 47l-10 200l21 1l32 -631l-34 -2l-9 135
q-11 173 -133 276t-286 103q-245 0 -374.5 -173.5t-129.5 -504.5q0 -367 139.5 -560.5t405.5 -193.5q106 2 199.5 44t154.5 124v187q0 86 -52.5 138t-138.5 52h-237v37h966l377 871h158v-25q0 -74 18 -119l373 -914q80 -195 182.5 -294.5t244.5 -99.5q169 0 258 84t89 245
q0 52 -18.5 98.5t-44.5 79.5t-73 68.5t-85 58t-100 55.5q-49 26 -80.5 44t-75 46t-71 52.5t-58 59t-48 69.5t-29 80.5t-11.5 95.5q0 149 116.5 240.5t307.5 91.5q87 0 164 -25.5t129 -64.5q9 -7 20 -23.5t13 -23.5l14 4q-8 28 -8 65v172l37 -1v-119h1011l-10 117l23 1
l30 -473l-36 -2l-7 84q-5 75 -20.5 120t-49.5 71.5t-81 35.5t-125 9h-119v-1309q0 -73 18 -91t91 -18h151v-18h-684v18h156q73 0 90.5 17.5t17.5 91.5v1309h-180q-78 0 -127 -9t-84.5 -35t-50 -72t-14.5 -120v-156l-37 1v86q-4 83 -43.5 155t-115.5 119t-173 47
q-137 0 -209 -64.5t-72 -185.5q0 -48 17.5 -91.5t43 -75t71 -65.5t83 -56t97.5 -54t98 -54t89.5 -57t83.5 -69.5t62.5 -79.5t45 -99.5t14.5 -117.5q0 -194 -128 -296.5t-370 -102.5q-50 0 -98.5 7t-105 23.5t-109.5 48t-104 75.5t-96.5 111t-79.5 150l-363 891
q-17 40 -17 82h-18q0 -22 -25 -82l-300 -688h518l14 -37h-548l-183 -420q-11 -27 -11 -46q0 -36 27 -58.5t72 -22.5h100v-18h-393z" />
    <glyph glyph-name="m_A_S" unicode="mAS" horiz-adv-x="3891" 
d="M37 0v18h72q73 0 90.5 17.5t17.5 91.5v1167q0 28 -19 47t-49 19h-8l-121 -10l-2 12l158 33q65 13 104 51t39 98v8h17v-268q0 -148 -4 -188h18q11 80 33 141q96 252 324 252q150 0 211 -71.5t61 -198.5v-123h8q3 44 22 107t29 83q53 100 124.5 151.5t178.5 51.5
q137 0 221.5 -71t84.5 -201v-832q0 -166 108 -283.5t260 -117.5q100 0 170.5 64.5t70.5 155.5q0 83 -50.5 135t-136.5 60h-56l17 37h704l-348 854q-16 38 -16 82h-19q0 -25 -24 -82l-490 -1120l-28 27l554 1276h158v-25q0 -72 19 -119l372 -914q80 -195 183 -295t244 -100
q156 0 251.5 82.5t95.5 216.5q0 52 -18 99t-44.5 83t-71 74t-83 63.5t-94.5 59.5q-50 30 -77 47t-71.5 48.5t-69.5 55.5t-56.5 60.5t-48 71.5t-28 80.5t-11.5 95.5q0 149 111 240.5t292 91.5q151 0 272 -90q9 -7 20 -23.5t13 -23.5l15 4q-6 21 -9 65l-6 109h21l22 -483
l-37 -2l-4 86q-3 63 -23 119t-56.5 102t-95.5 73t-132 27q-125 0 -192.5 -64.5t-67.5 -185.5q0 -41 10.5 -77.5t35.5 -69.5t47 -56.5t66 -54.5t69.5 -47.5t79.5 -48.5q67 -40 110.5 -69.5t99 -77.5t88 -95t55.5 -113.5t23 -140.5q0 -166 -137 -267t-361 -101
q-60 0 -118.5 9.5t-128 37.5t-129.5 72.5t-118 120.5t-99 175h-601q59 -24 93 -75.5t34 -119.5q0 -115 -91.5 -197.5t-219.5 -82.5q-129 0 -239 75t-174 204.5t-64 281.5v713q0 121 -45.5 188.5t-118.5 67.5q-140 0 -225.5 -130t-85.5 -343v-854q0 -73 18 -91t92 -18h54v-18
h-443v18h137v5q-11 11 -14.5 20t-3.5 33v1122q0 121 -45.5 188.5t-118.5 67.5q-140 0 -225.5 -130t-85.5 -343v-854q0 -73 18 -91t92 -18h72v-18h-522z" />
    <glyph glyph-name="n_A_S" unicode="nAS" horiz-adv-x="3350" 
d="M37 0v18h72q73 0 90.5 17.5t17.5 91.5v1167q0 28 -19 47t-49 19h-8l-121 -10l-2 12l158 33q66 13 109 51t43 98v8h16v-268q0 -179 -4 -215h14q6 54 33 133q44 131 146 209t229 78q163 0 253.5 -83.5t90.5 -225.5v-795q0 -166 108.5 -283.5t260.5 -117.5q100 0 170.5 64.5
t70.5 155.5q0 83 -51 135t-137 60h-55l16 37h704l-348 854q-16 38 -16 82h-19q0 -25 -24 -82l-490 -1120l-27 27l553 1276h158v-25q0 -72 19 -119l373 -914q80 -195 183 -295t244 -100q156 0 251.5 82.5t95.5 216.5q0 64 -24.5 119t-73.5 102.5t-95.5 81t-118.5 76.5
q-50 30 -77 47t-71.5 48.5t-69.5 55.5t-56.5 60.5t-48 71.5t-28 80.5t-11.5 95.5q0 149 111 240.5t292 91.5q152 0 273 -90q9 -7 20 -23.5t13 -23.5l14 4q-5 16 -8 65l-6 109h20l23 -483l-37 -2l-4 86q-3 63 -23.5 119t-57 102t-95.5 73t-132 27q-125 0 -192.5 -64.5
t-67.5 -185.5q0 -41 10.5 -77.5t35.5 -69.5t47 -56.5t66 -54.5t69.5 -47.5t79.5 -48.5q67 -40 110.5 -69.5t99 -77.5t88 -95t55.5 -113.5t23 -140.5q0 -166 -136.5 -267t-360.5 -101q-49 0 -98 7t-105.5 23.5t-109.5 48t-104 75.5t-97 111t-80 150h-600q59 -24 93 -75.5
t34 -119.5q0 -115 -92 -197.5t-220 -82.5q-129 0 -239 75t-174 204.5t-64 281.5v660q0 155 -47.5 232t-153.5 77q-159 0 -263.5 -139t-104.5 -361v-827q0 -73 18 -91t92 -18h72v-18h-522z" />
    <glyph glyph-name="n_S" unicode="nS" horiz-adv-x="2197" 
d="M946 262v883q0 155 -47.5 232t-153.5 77q-159 0 -263.5 -139t-104.5 -361v-827q0 -73 18 -91t92 -18h72v-18h-522v18h72q73 0 90.5 17.5t17.5 91.5v1167q0 28 -19 47t-49 19h-8l-121 -10l-2 12l158 33q66 13 109 51t43 98v8h16v-268q0 -179 -4 -215h14q6 54 33 133
q44 131 146 209t229 78q163 0 253.5 -83.5t90.5 -225.5v-809q0 -199 111.5 -303.5t324.5 -104.5q216 0 333.5 105t117.5 282q0 60 -25 114t-72.5 100t-96.5 80.5t-118 74.5q-38 22 -59.5 34.5t-57 35.5t-56.5 38.5t-50.5 40.5t-46.5 46.5t-37 50t-30.5 57t-17.5 63.5t-7 72
q0 149 111 240.5t292 91.5q152 0 273 -90q9 -7 20 -23.5t13 -23.5l14 4q-5 16 -8 65l-6 109h20l23 -483l-37 -2l-4 86q-3 63 -23.5 119t-57 102t-95.5 73t-132 27q-125 0 -192.5 -64.5t-67.5 -185.5q0 -33 9.5 -64t22.5 -55.5t39.5 -51t47 -44t58.5 -42t61.5 -38.5t67.5 -39
q64 -37 110.5 -67t100.5 -77t87.5 -94t56.5 -111.5t23 -135.5q0 -205 -166 -331t-438 -126q-97 0 -184.5 21t-151.5 54t-117 78t-87 90t-56 93z" />
    <glyph glyph-name="m_S" unicode="mS" horiz-adv-x="2738" 
d="M37 0v18h72q73 0 90.5 17.5t17.5 91.5v1167q0 28 -19 47t-49 19h-8l-121 -10l-2 12l158 33q65 13 104 51t39 98v8h17v-268q0 -148 -4 -188h18q11 80 33 141q96 252 324 252q150 0 211 -71.5t61 -198.5v-123h8q3 44 22 107t29 83q53 100 124.5 151.5t178.5 51.5
q137 0 221.5 -71t84.5 -201v-846q0 -198 111.5 -303t324.5 -105q215 0 332.5 105t117.5 282q0 60 -24.5 114t-72.5 100t-96.5 81t-117.5 74q-38 22 -59.5 34.5t-57 35.5t-56.5 38.5t-50.5 40.5t-46.5 46.5t-37 50t-30.5 57t-17.5 63.5t-7 72q0 149 111 240.5t292 91.5
q151 0 272 -90q9 -7 20 -23.5t13 -23.5l15 4q-6 21 -9 65l-6 109h21l22 -483l-37 -2l-4 86q-3 63 -23 119t-56.5 102t-95.5 73t-132 27q-125 0 -192.5 -64.5t-67.5 -185.5q0 -33 9.5 -64t22.5 -55.5t39.5 -51t47 -44t58.5 -42t61.5 -38.5t67.5 -39q64 -37 110.5 -67
t100.5 -77t87.5 -94t56.5 -111.5t23 -135.5q0 -205 -166 -331t-438 -126q-97 0 -184.5 21t-151.5 54t-117 78t-87 90t-56 93v936q0 121 -45.5 188.5t-118.5 67.5q-140 0 -225.5 -130t-85.5 -343v-854q0 -73 18 -91t92 -18h54v-18h-443v18h137v5q-11 11 -14.5 20t-3.5 33
v1122q0 121 -45.5 188.5t-118.5 67.5q-140 0 -225.5 -130t-85.5 -343v-854q0 -73 18 -91t92 -18h72v-18h-522z" />
    <glyph glyph-name="n_i" unicode="ni" horiz-adv-x="1898" 
d="M37 0v18h72q73 0 90.5 17.5t17.5 91.5v1167q0 28 -19 47t-49 19h-8l-121 -10l-2 12l158 33q67 14 109.5 52t42.5 97v8h16v-268q0 -179 -4 -215h14q6 54 33 133q44 131 146 209t229 78q163 0 253.5 -83.5t90.5 -225.5v-867q0 -166 108.5 -283.5t260.5 -117.5
q100 0 170.5 64.5t70.5 155.5q0 83 -51 135.5t-137 60.5h-187v18h72q74 0 91.5 17t17.5 90v895q0 73 -17.5 89.5t-91.5 16.5h-72v19h523v-19h-72q-75 0 -93 -16.5t-18 -89.5v-895q0 -73 18.5 -90t92.5 -17h72v-18h-256q59 -24 93 -76t34 -120q0 -115 -92 -197t-220 -82
q-129 0 -239 75t-174 204.5t-64 281.5v731q0 155 -47.5 232t-153.5 77q-159 0 -263.5 -139t-104.5 -361v-827q0 -73 18 -91t92 -18h72v-18h-522z" />
    <glyph glyph-name="m_i" unicode="mi" horiz-adv-x="2439" 
d="M37 0v18h72q73 0 90.5 17.5t17.5 91.5v1167q0 28 -19 47t-49 19h-8l-121 -10l-2 12l158 33q65 13 104 51t39 98v8h17v-268q0 -148 -4 -188h18q11 80 33 141q96 252 324 252q150 0 211 -71.5t61 -198.5v-123h8q3 44 22 107t29 83q53 100 124.5 151.5t178.5 51.5
q137 0 221.5 -71t84.5 -201v-904q0 -166 108 -283.5t260 -117.5q100 0 170.5 64.5t70.5 155.5q0 83 -50.5 135.5t-136.5 60.5h-187v18h72q74 0 91 17t17 90v895q0 73 -17 89.5t-91 16.5h-72v19h522v-19h-71q-75 0 -93 -16.5t-18 -89.5v-895q0 -73 18.5 -90t92.5 -17h71v-18
h-256q59 -24 93 -76t34 -120q0 -115 -91.5 -197t-219.5 -82q-129 0 -239 75t-174 204.5t-64 281.5v784q0 121 -45.5 188.5t-118.5 67.5q-140 0 -225.5 -130t-85.5 -343v-854q0 -73 18 -91t92 -18h54v-18h-443v18h137v5q-11 11 -14.5 20t-3.5 33v1122q0 121 -45.5 188.5
t-118.5 67.5q-140 0 -225.5 -130t-85.5 -343v-854q0 -73 18 -91t92 -18h72v-18h-522z" />
    <glyph glyph-name="m_f" unicode="mf" horiz-adv-x="2922" 
d="M37 0v18h72q73 0 90.5 17.5t17.5 91.5v1167q0 28 -19 47t-49 19h-8l-121 -10l-2 12l158 33q65 13 104 51t39 98v8h17v-268q0 -148 -4 -188h18q11 80 33 141q96 252 324 252q150 0 211 -71.5t61 -198.5v-123h8q3 44 22 107t29 83q53 100 124.5 151.5t178.5 51.5
q137 0 221.5 -71t84.5 -201v-904q0 -181 73 -291t193 -110q109 0 175 60.5t66 159.5q0 83 -51 135.5t-137 60.5h-84v18h72q74 0 91 17t17 90v893q0 74 -17 91t-91 17h-72v19h893q23 0 33.5 -4t21.5 -15h2l-8 140l19 1l39 -600h-37l-9 144q-4 80 -34.5 139t-81.5 93
t-114 49.5t-140 15.5h-289v-2q45 -45 45 -107v-590h123q40 0 71 3.5t67.5 16.5t60 35.5t39.5 63.5t16 98v123h18v-678h-18v84q0 106 -65 161.5t-189 55.5h-123v-442q0 -73 18 -89.5t93 -16.5h71v-19h-231q0 -126 -83.5 -203t-219.5 -77q-173 0 -278 154t-105 407v784
q0 121 -45.5 188.5t-118.5 67.5q-140 0 -225.5 -130t-85.5 -343v-854q0 -73 18 -91t92 -18h54v-18h-443v18h137v5q-11 11 -14.5 20t-3.5 33v1122q0 121 -45.5 188.5t-118.5 67.5q-140 0 -225.5 -130t-85.5 -343v-854q0 -73 18 -91t92 -18h72v-18h-522z" />
    <glyph glyph-name="n_K" unicode="nK" horiz-adv-x="2504" 
d="M37 0v18h72q73 0 90.5 17.5t17.5 91.5v1167q0 28 -19 47t-49 19h-8l-121 -10l-2 12l158 33q67 14 109.5 52t42.5 97v8h16v-268q0 -179 -4 -215h14q6 54 33 133q44 131 146 209t229 78q163 0 253.5 -83.5t90.5 -225.5v-867q0 -166 108.5 -283.5t260.5 -117.5
q100 0 170.5 64.5t70.5 155.5q0 83 -51 135.5t-137 60.5h-187v18h72q74 0 91.5 17t17.5 90v895q0 73 -17.5 89.5t-91.5 16.5h-72v19h471v-19h-20q-75 0 -93 -16.5t-18 -89.5v-463q60 0 90.5 5.5t43.5 22.5l324 408q36 46 36 77q0 56 -106 56h-18v19h452v-19h-24
q-80 0 -161 -33t-140 -108l-326 -412l2 -8q53 -12 98 -32t79.5 -43t63 -55.5t48 -62t36 -71t26.5 -74t19 -79.5t13.5 -78.5t10.5 -80.5q5 -44 8.5 -67.5t10.5 -59.5t13.5 -55.5t18.5 -43.5t26.5 -35.5t35 -20t45.5 -8.5q46 0 97 40l27 21l12 -14l-26 -21q-85 -76 -167 -76
q-41 0 -75 12.5t-58 30t-44.5 52t-32.5 61.5t-25 77t-19 80.5t-16 88.5q-12 68 -19 104t-23 96.5t-32 93.5t-44.5 75.5t-62 64.5t-82.5 37.5t-109 15.5h-26v-413q0 -66 28 -172q26 -98 26 -149q0 -115 -92 -197t-220 -82q-129 0 -239 75t-174 204.5t-64 281.5v731
q0 155 -47.5 232t-153.5 77q-159 0 -263.5 -139t-104.5 -361v-827q0 -73 18 -91t92 -18h72v-18h-522z" />
    <glyph glyph-name="m_n" unicode="mn" horiz-adv-x="3168" 
d="M37 0v18h72q73 0 90.5 17.5t17.5 91.5v1167q0 28 -19 47t-49 19h-8l-121 -10l-2 12l158 33q65 13 104 51t39 98v8h17v-268q0 -148 -4 -188h18q11 80 33 141q96 252 324 252q150 0 211 -71.5t61 -198.5v-123h8q3 44 22 107t29 83q53 100 124.5 151.5t178.5 51.5
q137 0 221.5 -71t84.5 -201v-904q0 -166 108 -283.5t260 -117.5q100 0 170.5 64.5t70.5 155.5q0 83 -50.5 135.5t-136.5 60.5h-187v18h72q73 0 90.5 17.5t17.5 91.5v839q0 28 -18.5 47t-48.5 19h-8l-121 -10l-2 12l157 33q66 13 109 51t43 98v8h16v-268q0 -179 -4 -215h15
q6 58 32 133q44 131 146 209t229 78q163 0 253.5 -83.5t90.5 -225.5v-1053q0 -73 17.5 -91t91.5 -18h73v-18h-522v18h199v5q-12 12 -15.5 21t-3.5 32v1069q0 155 -47.5 232t-152.5 77q-159 0 -264 -139.5t-105 -360.5v-499q0 -73 18.5 -91t92.5 -18h71v-18h-256
q59 -24 93 -76t34 -120q0 -115 -91.5 -197t-219.5 -82q-129 0 -239 75t-174 204.5t-64 281.5v784q0 121 -45.5 188.5t-118.5 67.5q-140 0 -225.5 -130t-85.5 -343v-854q0 -73 18 -91t92 -18h54v-18h-443v18h137v5q-11 11 -14.5 20t-3.5 33v1122q0 121 -45.5 188.5
t-118.5 67.5q-140 0 -225.5 -130t-85.5 -343v-854q0 -73 18 -91t92 -18h72v-18h-522z" />
    <glyph glyph-name="m_R" unicode="mR" horiz-adv-x="3106" 
d="M37 0v18h72q73 0 90.5 17.5t17.5 91.5v1167q0 28 -19 47t-49 19h-8l-121 -10l-2 12l158 33q65 13 104 51t39 98v8h17v-268q0 -148 -4 -188h18q11 80 33 141q96 252 324 252q150 0 211 -71.5t61 -198.5v-123h8q3 44 22 107t29 83q53 100 124.5 151.5t178.5 51.5
q137 0 221.5 -71t84.5 -201v-904q0 -166 108 -283.5t260 -117.5q100 0 170.5 64.5t70.5 155.5q0 83 -50.5 135.5t-136.5 60.5h-187v18h72q74 0 91 17t17 92v891q0 74 -17 91t-91 17h-72v19h535q246 0 395 -125.5t149 -329.5q0 -184 -122.5 -304.5t-311.5 -138.5l-41 -2v-12
q70 -7 131.5 -46.5t96.5 -94.5l102 -162q37 -58 62.5 -94.5t66.5 -75.5t71 -39q32 0 59 23l45 39l11 -15l-45 -39q-91 -78 -169 -78q-37 0 -71 16.5t-65.5 50.5t-52.5 62.5t-51 75.5l-144 222q-57 88 -97.5 122.5t-104.5 34.5h-25v35h94q187 0 285 107.5t98 312.5
q0 204 -98 311t-285 107h-213v-2q35 -35 35 -107v-872q0 -68 28 -174q25 -94 25 -149q0 -115 -91.5 -197t-219.5 -82q-129 0 -239 75t-174 204.5t-64 281.5v784q0 121 -45.5 188.5t-118.5 67.5q-140 0 -225.5 -130t-85.5 -343v-854q0 -73 18 -91t92 -18h54v-18h-443v18h137
v5q-11 11 -14.5 20t-3.5 33v1122q0 121 -45.5 188.5t-118.5 67.5q-140 0 -225.5 -130t-85.5 -343v-854q0 -73 18 -91t92 -18h72v-18h-522z" />
    <glyph glyph-name="A_J" unicode="AJ" horiz-adv-x="2172" 
d="M1123 399h-811l-111 -254q-11 -27 -11 -46q0 -36 27 -58.5t72 -22.5h100v-18h-373v18h33q35 0 60 32t53 95l575 1328h158v-25q0 -74 18 -119l373 -914q88 -215 166.5 -305t188.5 -90q80 0 128 56.5t48 161.5v1159q0 24 3.5 33t14.5 20v4h-385v19h688v-19h-53
q-109 0 -109 -108v-1016q0 -165 -98.5 -255.5t-248.5 -90.5q-189 0 -302.5 98t-203.5 317zM328 436h780l-348 854q-17 40 -17 82h-18q0 -22 -25 -82z" />
    <glyph glyph-name="n_A_J" unicode="nAJ" horiz-adv-x="3258" 
d="M37 0v18h72q73 0 90.5 17.5t17.5 91.5v1167q0 28 -19 47t-49 19h-8l-121 -10l-2 12l158 33q66 13 109 51t43 98v8h16v-268q0 -179 -4 -215h14q6 54 33 133q44 131 146 209t229 78q163 0 253.5 -83.5t90.5 -225.5v-795q0 -166 108.5 -283.5t260.5 -117.5q100 0 170.5 64.5
t70.5 155.5q0 83 -51 135t-137 60h-55l16 37h704l-348 854q-16 38 -16 82h-19q0 -25 -24 -82l-490 -1120l-27 27l553 1276h158v-25q0 -72 19 -119l373 -914q88 -215 166.5 -305t188.5 -90q79 0 127 56.5t48 161.5v1159q0 24 3.5 33t14.5 20v4h-385v19h689v-19h-54
q-108 0 -108 -108v-1016q0 -165 -98.5 -255.5t-249.5 -90.5q-190 0 -304 98.5t-202 316.5h-600q59 -24 93 -75.5t34 -119.5q0 -115 -92 -197.5t-220 -82.5q-129 0 -239 75t-174 204.5t-64 281.5v660q0 155 -47.5 232t-153.5 77q-159 0 -263.5 -139t-104.5 -361v-827
q0 -73 18 -91t92 -18h72v-18h-522z" />
    <glyph glyph-name="Cacute_D" unicode="&#x106;D" horiz-adv-x="2463" 
d="M580 1554l-19 17l242 284q8 11 20 11q10 0 21 -8l24 -21l-49 -61zM1442 217l-160 -12v1122q0 77 -18.5 102t-89.5 25h-52v19h475q238 0 420 -91.5t281.5 -259t99.5 -385.5q0 -261 -146.5 -461t-414.5 -309.5t-618 -109.5q-255 0 -469 68t-363 189.5t-232 296.5t-83 384
q0 313 149.5 503.5t394.5 190.5q188 0 340 -131q16 -16 23 -41l14 4q-4 16 -6 59l-4 149l18 1l19 -592l-37 -1l-6 189q-5 130 -118.5 229t-260.5 99q-168 0 -256 -167t-88 -484q0 -443 247.5 -676t717.5 -233q489 0 746 216t257 627q0 341 -174.5 520t-505.5 179h-135v-2
q35 -35 35 -97v-1120z" />
    <glyph glyph-name="Ccaron_D" unicode="&#x10c;D" horiz-adv-x="2463" 
d="M664 1614h-58l-209 205l31 36l100 -100q103 -103 103 -119h8q0 15 104 119l101 100l30 -36zM1442 217l-160 -12v1122q0 77 -18.5 102t-89.5 25h-52v19h475q238 0 420 -91.5t281.5 -259t99.5 -385.5q0 -261 -146.5 -461t-414.5 -309.5t-618 -109.5q-255 0 -469 68
t-363 189.5t-232 296.5t-83 384q0 313 149.5 503.5t394.5 190.5q188 0 340 -131q16 -16 23 -41l14 4q-4 16 -6 59l-4 149l18 1l19 -592l-37 -1l-6 189q-5 130 -118.5 229t-260.5 99q-168 0 -256 -167t-88 -484q0 -443 247.5 -676t717.5 -233q489 0 746 216t257 627
q0 341 -174.5 520t-505.5 179h-135v-2q35 -35 35 -97v-1120z" />
    <glyph glyph-name="C_Scaron" unicode="C&#x160;" horiz-adv-x="2088" 
d="M1634 1610h-57l-209 205l31 36l100 -100q103 -103 103 -119h8q0 15 104 119l101 100l30 -36zM983 937l-6 189q-5 130 -118.5 229t-260.5 99q-168 0 -256 -167t-88 -484q0 -377 212.5 -577.5t618.5 -205.5v179h21v-179q380 0 579 108.5t199 315.5q0 36 -9.5 67.5
t-23.5 56.5t-39.5 49.5t-48.5 41.5t-59.5 37t-63.5 32.5t-69 31.5q-47 21 -76.5 35t-71.5 38t-69 44.5t-57 51.5t-47 63t-28.5 74.5t-11.5 90.5q0 149 111 240.5t293 91.5q151 0 272 -90q9 -7 20 -23.5t13 -23.5l14 4q-5 16 -8 65l-6 109h20l23 -483l-37 -2l-4 86
q-3 63 -23 119t-56.5 102t-95.5 73t-132 27q-125 0 -192.5 -64.5t-67.5 -185.5q0 -46 17.5 -85.5t42.5 -67.5t69.5 -56.5t80 -46t93.5 -43.5q49 -22 80 -36.5t75.5 -40t72.5 -47.5t60 -55t50.5 -68t30.5 -81t12 -98q0 -241 -238.5 -367t-693.5 -126v-215h-21v215
q-302 3 -532 105t-355.5 285t-125.5 421q0 313 149.5 503.5t394.5 190.5q188 0 340 -131q16 -16 23 -41l14 4q-4 16 -6 59l-4 149l18 1l19 -592z" />
    <glyph glyph-name="Ccaron_S" unicode="&#x10c;S" horiz-adv-x="2088" 
d="M664 1614h-58l-209 205l31 36l100 -100q103 -103 103 -119h8q0 15 104 119l101 100l30 -36zM983 937l-6 189q-5 130 -118.5 229t-260.5 99q-168 0 -256 -167t-88 -484q0 -377 212.5 -577.5t618.5 -205.5v179h21v-179q380 0 579 108.5t199 315.5q0 36 -9.5 67.5
t-23.5 56.5t-39.5 49.5t-48.5 41.5t-59.5 37t-63.5 32.5t-69 31.5q-47 21 -76.5 35t-71.5 38t-69 44.5t-57 51.5t-47 63t-28.5 74.5t-11.5 90.5q0 149 111 240.5t293 91.5q151 0 272 -90q9 -7 20 -23.5t13 -23.5l14 4q-5 16 -8 65l-6 109h20l23 -483l-37 -2l-4 86
q-3 63 -23 119t-56.5 102t-95.5 73t-132 27q-125 0 -192.5 -64.5t-67.5 -185.5q0 -46 17.5 -85.5t42.5 -67.5t69.5 -56.5t80 -46t93.5 -43.5q49 -22 80 -36.5t75.5 -40t72.5 -47.5t60 -55t50.5 -68t30.5 -81t12 -98q0 -241 -238.5 -367t-693.5 -126v-215h-21v215
q-302 3 -532 105t-355.5 285t-125.5 421q0 313 149.5 503.5t394.5 190.5q188 0 340 -131q16 -16 23 -41l14 4q-4 16 -6 59l-4 149l18 1l19 -592z" />
    <glyph glyph-name="Ccaron_Scaron" unicode="&#x10c;&#x160;" horiz-adv-x="2088" 
d="M1634 1610h-57l-209 205l31 36l100 -100q103 -103 103 -119h8q0 15 104 119l101 100l30 -36zM983 937l-6 189q-5 130 -118.5 229t-260.5 99q-168 0 -256 -167t-88 -484q0 -377 212.5 -577.5t618.5 -205.5v179h21v-179q380 0 579 108.5t199 315.5q0 36 -9.5 67.5
t-23.5 56.5t-39.5 49.5t-48.5 41.5t-59.5 37t-63.5 32.5t-69 31.5q-47 21 -76.5 35t-71.5 38t-69 44.5t-57 51.5t-47 63t-28.5 74.5t-11.5 90.5q0 149 111 240.5t293 91.5q151 0 272 -90q9 -7 20 -23.5t13 -23.5l14 4q-5 16 -8 65l-6 109h20l23 -483l-37 -2l-4 86
q-3 63 -23 119t-56.5 102t-95.5 73t-132 27q-125 0 -192.5 -64.5t-67.5 -185.5q0 -46 17.5 -85.5t42.5 -67.5t69.5 -56.5t80 -46t93.5 -43.5q49 -22 80 -36.5t75.5 -40t72.5 -47.5t60 -55t50.5 -68t30.5 -81t12 -98q0 -241 -238.5 -367t-693.5 -126v-215h-21v215
q-302 3 -532 105t-355.5 285t-125.5 421q0 313 149.5 503.5t394.5 190.5q188 0 340 -131q16 -16 23 -41l14 4q-4 16 -6 59l-4 149l18 1l19 -592z" />
    <glyph glyph-name="G_Eacute" unicode="G&#xc9;" horiz-adv-x="2535" 
d="M1851 1550l-18 17l242 284q8 11 20 11q9 0 21 -9l24 -20l-49 -61zM1360 0v18h113q73 0 90.5 17.5t17.5 91.5v586h-274v-551h-101q-30 0 -59 -29q-68 -72 -163.5 -110.5t-201.5 -38.5q-322 0 -518 208t-196 549q0 222 87.5 392t247 263t367.5 93q222 0 375 -129
q14 -12 22 -39l9 2q-7 28 -7 47l-10 200l21 1l28 -570l-34 -2l-5 74q-10 173 -132.5 276t-286.5 103q-245 0 -374.5 -173.5t-129.5 -504.5q0 -367 139.5 -560.5t405.5 -193.5q106 2 199.5 44t154.5 124v334q0 86 -52.5 138.5t-138.5 52.5h-237v37h1126q40 0 68 3.5t59 16.5
t50 35.5t31.5 63.5t12.5 98v112h19v-698h-19v113q0 57 -12.5 98t-31.5 64t-50 36.5t-59.5 17t-67.5 3.5h-102v-568q0 -61 -45 -106v-2h448q149 0 221.5 64.5t83.5 211.5l13 164h32l-34 -555l-19 1l6 95h-2q-18 -18 -75 -18h-1010zM1401 1473h858q57 0 76 -19h2l-6 95l18 1
l37 -555h-37l-8 144q-9 161 -86 229t-230 68h-329v-2q45 -45 45 -107v-455h-160v474q0 74 -17.5 91t-90.5 17h-72v19z" />
    <glyph glyph-name="G_Ecircumflex" unicode="G&#xca;" horiz-adv-x="2535" 
d="M2017 1862l211 -205l-30 -37l-101 100q-104 104 -104 119h-8q0 -16 -103 -119l-100 -100l-31 37l209 205h57zM1360 0v18h113q73 0 90.5 17.5t17.5 91.5v586h-274v-551h-101q-30 0 -59 -29q-68 -72 -163.5 -110.5t-201.5 -38.5q-322 0 -518 208t-196 549q0 222 87.5 392
t247 263t367.5 93q222 0 375 -129q14 -12 22 -39l9 2q-7 28 -7 47l-10 200l21 1l28 -570l-34 -2l-5 74q-10 173 -132.5 276t-286.5 103q-245 0 -374.5 -173.5t-129.5 -504.5q0 -367 139.5 -560.5t405.5 -193.5q106 2 199.5 44t154.5 124v334q0 86 -52.5 138.5t-138.5 52.5
h-237v37h1126q40 0 68 3.5t59 16.5t50 35.5t31.5 63.5t12.5 98v112h19v-698h-19v113q0 57 -12.5 98t-31.5 64t-50 36.5t-59.5 17t-67.5 3.5h-102v-568q0 -61 -45 -106v-2h448q149 0 221.5 64.5t83.5 211.5l13 164h32l-34 -555l-19 1l6 95h-2q-18 -18 -75 -18h-1010z
M1401 1473h858q57 0 76 -19h2l-6 95l18 1l37 -555h-37l-8 144q-9 161 -86 229t-230 68h-329v-2q45 -45 45 -107v-455h-160v474q0 74 -17.5 91t-90.5 17h-72v19z" />
    <glyph glyph-name="G_Egrave" unicode="G&#xc8;" horiz-adv-x="2535" 
d="M2097 1550l-239 222l-50 61l25 20q12 9 21 9q12 0 20 -11l242 -284zM1360 0v18h113q73 0 90.5 17.5t17.5 91.5v586h-274v-551h-101q-30 0 -59 -29q-68 -72 -163.5 -110.5t-201.5 -38.5q-322 0 -518 208t-196 549q0 222 87.5 392t247 263t367.5 93q222 0 375 -129
q14 -12 22 -39l9 2q-7 28 -7 47l-10 200l21 1l28 -570l-34 -2l-5 74q-10 173 -132.5 276t-286.5 103q-245 0 -374.5 -173.5t-129.5 -504.5q0 -367 139.5 -560.5t405.5 -193.5q106 2 199.5 44t154.5 124v334q0 86 -52.5 138.5t-138.5 52.5h-237v37h1126q40 0 68 3.5t59 16.5
t50 35.5t31.5 63.5t12.5 98v112h19v-698h-19v113q0 57 -12.5 98t-31.5 64t-50 36.5t-59.5 17t-67.5 3.5h-102v-568q0 -61 -45 -106v-2h448q149 0 221.5 64.5t83.5 211.5l13 164h32l-34 -555l-19 1l6 95h-2q-18 -18 -75 -18h-1010zM1401 1473h858q57 0 76 -19h2l-6 95l18 1
l37 -555h-37l-8 144q-9 161 -86 229t-230 68h-329v-2q45 -45 45 -107v-455h-160v474q0 74 -17.5 91t-90.5 17h-72v19z" />
    <glyph glyph-name="G_Edieresis" unicode="G&#xcb;" horiz-adv-x="2535" 
d="M1829 1806q41 0 66.5 -24t25.5 -66q0 -40 -25 -65t-67 -25q-40 0 -65 24t-25 66q0 40 24 65t66 25zM2230 1806q40 0 65 -24t25 -66q0 -40 -24 -65t-66 -25q-41 0 -66.5 24t-25.5 66q0 40 25 65t67 25zM1360 0v18h113q73 0 90.5 17.5t17.5 91.5v586h-274v-551h-101
q-30 0 -59 -29q-68 -72 -163.5 -110.5t-201.5 -38.5q-322 0 -518 208t-196 549q0 222 87.5 392t247 263t367.5 93q222 0 375 -129q14 -12 22 -39l9 2q-7 28 -7 47l-10 200l21 1l28 -570l-34 -2l-5 74q-10 173 -132.5 276t-286.5 103q-245 0 -374.5 -173.5t-129.5 -504.5
q0 -367 139.5 -560.5t405.5 -193.5q106 2 199.5 44t154.5 124v334q0 86 -52.5 138.5t-138.5 52.5h-237v37h1126q40 0 68 3.5t59 16.5t50 35.5t31.5 63.5t12.5 98v112h19v-698h-19v113q0 57 -12.5 98t-31.5 64t-50 36.5t-59.5 17t-67.5 3.5h-102v-568q0 -61 -45 -106v-2h448
q149 0 221.5 64.5t83.5 211.5l13 164h32l-34 -555l-19 1l6 95h-2q-18 -18 -75 -18h-1010zM1401 1473h858q57 0 76 -19h2l-6 95l18 1l37 -555h-37l-8 144q-9 161 -86 229t-230 68h-329v-2q45 -45 45 -107v-455h-160v474q0 74 -17.5 91t-90.5 17h-72v19z" />
    <glyph glyph-name="Gbreve_E" unicode="&#x11e;E" horiz-adv-x="2535" 
d="M496 1843l36 19q123 -183 246 -183q128 0 254 183l29 -19q-47 -105 -122.5 -171t-160.5 -66q-157 0 -282 237zM1360 0v18h113q73 0 90.5 17.5t17.5 91.5v586h-274v-551h-101q-30 0 -59 -29q-68 -72 -163.5 -110.5t-201.5 -38.5q-322 0 -518 208t-196 549q0 222 87.5 392
t247 263t367.5 93q222 0 375 -129q14 -12 22 -39l9 2q-7 28 -7 47l-10 200l21 1l28 -570l-34 -2l-5 74q-10 173 -132.5 276t-286.5 103q-245 0 -374.5 -173.5t-129.5 -504.5q0 -367 139.5 -560.5t405.5 -193.5q106 2 199.5 44t154.5 124v334q0 86 -52.5 138.5t-138.5 52.5
h-237v37h1126q40 0 68 3.5t59 16.5t50 35.5t31.5 63.5t12.5 98v112h19v-698h-19v113q0 57 -12.5 98t-31.5 64t-50 36.5t-59.5 17t-67.5 3.5h-102v-568q0 -61 -45 -106v-2h448q149 0 221.5 64.5t83.5 211.5l13 164h32l-34 -555l-19 1l6 95h-2q-18 -18 -75 -18h-1010z
M1401 1473h858q57 0 76 -19h2l-6 95l18 1l37 -555h-37l-8 144q-9 161 -86 229t-230 68h-329v-2q45 -45 45 -107v-455h-160v474q0 74 -17.5 91t-90.5 17h-72v19z" />
    <glyph glyph-name="Gbreve_F" unicode="&#x11e;F" horiz-adv-x="2400" 
d="M496 1843l36 19q123 -183 246 -183q128 0 254 183l29 -19q-47 -105 -122.5 -171t-160.5 -66q-157 0 -282 237zM1401 0v18h72q73 0 90.5 17.5t17.5 91.5v553h-274v-518h-101q-30 0 -59 -29q-68 -72 -163.5 -110.5t-201.5 -38.5q-322 0 -518 208t-196 549q0 222 87.5 392
t247 263t367.5 93q222 0 375 -129q14 -12 22 -39l9 2q-7 28 -7 47l-10 200l21 1l28 -570l-34 -2l-5 74q-10 173 -132.5 276t-286.5 103q-245 0 -374.5 -173.5t-129.5 -504.5q0 -367 139.5 -560.5t405.5 -193.5q106 2 199.5 44t154.5 124v301q0 86 -52.5 138.5t-138.5 52.5
h-237v37h1106q124 0 189 55.5t65 161.5v123h18v-709h-18v113q0 107 -65 163t-189 56h-82v-553q0 -73 18 -91t92 -18h134v-18h-584zM1401 1473h831q57 0 76 -19h2l-8 140l18 1l39 -600h-37l-8 144q-5 80 -35 139t-81.5 93t-114 49.5t-139.5 15.5h-248v-2q45 -45 45 -107v-455
h-160v474q0 74 -17.5 91t-90.5 17h-72v19z" />
    <glyph glyph-name="G_Aacute" unicode="G&#xc1;" horiz-adv-x="2875" 
d="M2023 1550l-18 17l242 284q8 11 20 11q9 0 21 -9l24 -20l-49 -61zM1319 0v18h53q35 0 60 32t53 95l182 420h-360v-219q-31 -55 -80 -118.5t-80 -94.5q-68 -72 -163.5 -110.5t-201.5 -38.5q-322 0 -518 208t-196 549q0 222 87.5 392t247 263t367.5 93q222 0 375 -129
q14 -12 22 -39l9 2q-7 28 -7 47l-10 200l21 1l32 -631l-34 -2l-9 135q-11 173 -133 276t-286 103q-245 0 -374.5 -173.5t-129.5 -504.5q0 -367 139.5 -560.5t405.5 -193.5q106 2 199.5 44t154.5 124v187q0 86 -52.5 138t-138.5 52h-237v37h966l377 871h158v-25
q0 -74 18 -119l484 -1184q34 -81 53.5 -104t67.5 -23h16v-18h-391v18h157v5q-29 11 -63 96l-477 1171q-17 40 -17 82h-18q0 -22 -25 -82l-300 -688h518l14 -37h-548l-183 -420q-11 -27 -11 -46q0 -36 27 -58.5t72 -22.5h100v-18h-393z" />
    <glyph glyph-name="G_Abreve" unicode="G&#x102;" horiz-adv-x="2875" 
d="M1868 1839l37 19q123 -183 245 -183q128 0 254 183l29 -19q-47 -105 -122.5 -171t-160.5 -66q-157 0 -282 237zM1319 0v18h53q35 0 60 32t53 95l182 420h-360v-219q-31 -55 -80 -118.5t-80 -94.5q-68 -72 -163.5 -110.5t-201.5 -38.5q-322 0 -518 208t-196 549
q0 222 87.5 392t247 263t367.5 93q222 0 375 -129q14 -12 22 -39l9 2q-7 28 -7 47l-10 200l21 1l32 -631l-34 -2l-9 135q-11 173 -133 276t-286 103q-245 0 -374.5 -173.5t-129.5 -504.5q0 -367 139.5 -560.5t405.5 -193.5q106 2 199.5 44t154.5 124v187q0 86 -52.5 138
t-138.5 52h-237v37h966l377 871h158v-25q0 -74 18 -119l484 -1184q34 -81 53.5 -104t67.5 -23h16v-18h-391v18h157v5q-29 11 -63 96l-477 1171q-17 40 -17 82h-18q0 -22 -25 -82l-300 -688h518l14 -37h-548l-183 -420q-11 -27 -11 -46q0 -36 27 -58.5t72 -22.5h100v-18h-393
z" />
    <glyph glyph-name="G_Acircumflex" unicode="G&#xc2;" horiz-adv-x="2875" 
d="M2169 1862l211 -205l-31 -37l-100 100q-105 105 -105 119h-8q0 -6 -29.5 -41t-72.5 -78l-101 -100l-30 37l208 205h58zM1319 0v18h53q35 0 60 32t53 95l182 420h-360v-219q-31 -55 -80 -118.5t-80 -94.5q-68 -72 -163.5 -110.5t-201.5 -38.5q-322 0 -518 208t-196 549
q0 222 87.5 392t247 263t367.5 93q222 0 375 -129q14 -12 22 -39l9 2q-7 28 -7 47l-10 200l21 1l32 -631l-34 -2l-9 135q-11 173 -133 276t-286 103q-245 0 -374.5 -173.5t-129.5 -504.5q0 -367 139.5 -560.5t405.5 -193.5q106 2 199.5 44t154.5 124v187q0 86 -52.5 138
t-138.5 52h-237v37h966l377 871h158v-25q0 -74 18 -119l484 -1184q34 -81 53.5 -104t67.5 -23h16v-18h-391v18h157v5q-29 11 -63 96l-477 1171q-17 40 -17 82h-18q0 -22 -25 -82l-300 -688h518l14 -37h-548l-183 -420q-11 -27 -11 -46q0 -36 27 -58.5t72 -22.5h100v-18h-393
z" />
    <glyph glyph-name="G_Aring" unicode="G&#xc5;" horiz-adv-x="2875" 
d="M2126 1757q-46 0 -86.5 -38.5t-40.5 -88.5q0 -47 41 -87t86 -40q46 0 86.5 38.5t40.5 88.5t-40.5 88.5t-86.5 38.5zM2126 1812q68 0 125 -55t57 -127q0 -46 -25 -86.5t-65 -66.5v-29q0 -74 18 -119l484 -1184q34 -81 53.5 -104t67.5 -23h16v-18h-391v18h157v5
q-29 11 -63 96l-477 1171q-17 40 -17 82h-18q0 -22 -25 -82l-300 -688h518l14 -37h-548l-183 -420q-11 -27 -11 -46q0 -36 27 -58.5t72 -22.5h100v-18h-393v18h53q35 0 60 32t53 95l182 420h-360v-219q-31 -55 -80 -118.5t-80 -94.5q-68 -72 -163.5 -110.5t-201.5 -38.5
q-322 0 -518 208t-196 549q0 222 87.5 392t247 263t367.5 93q222 0 375 -129q14 -12 22 -39l9 2q-7 28 -7 47l-10 200l21 1l32 -631l-34 -2l-9 135q-11 173 -133 276t-286 103q-245 0 -374.5 -173.5t-129.5 -504.5q0 -367 139.5 -560.5t405.5 -193.5q106 2 199.5 44
t154.5 124v187q0 86 -52.5 138t-138.5 52h-237v37h966l373 863q-48 23 -79 68.5t-31 96.5q0 72 56 127t124 55z" />
    <glyph glyph-name="G_Atilde" unicode="G&#xc3;" horiz-adv-x="2875" 
d="M2400 1763q-22 -82 -54 -112.5t-79 -30.5q-37 0 -84.5 23.5t-85.5 51.5t-80 51.5t-69 23.5q-46 0 -64 -68l-16 -64l-33 9l16 63q20 74 50.5 102.5t74.5 28.5q36 0 83 -23.5t85.5 -51t81 -51t70.5 -23.5q50 0 71 80l17 61l33 -8zM1319 0v18h53q35 0 60 32t53 95l182 420
h-360v-219q-31 -55 -80 -118.5t-80 -94.5q-68 -72 -163.5 -110.5t-201.5 -38.5q-322 0 -518 208t-196 549q0 222 87.5 392t247 263t367.5 93q222 0 375 -129q14 -12 22 -39l9 2q-7 28 -7 47l-10 200l21 1l32 -631l-34 -2l-9 135q-11 173 -133 276t-286 103
q-245 0 -374.5 -173.5t-129.5 -504.5q0 -367 139.5 -560.5t405.5 -193.5q106 2 199.5 44t154.5 124v187q0 86 -52.5 138t-138.5 52h-237v37h966l377 871h158v-25q0 -74 18 -119l484 -1184q34 -81 53.5 -104t67.5 -23h16v-18h-391v18h157v5q-29 11 -63 96l-477 1171
q-17 40 -17 82h-18q0 -22 -25 -82l-300 -688h518l14 -37h-548l-183 -420q-11 -27 -11 -46q0 -36 27 -58.5t72 -22.5h100v-18h-393z" />
    <glyph glyph-name="Gbreve_A" unicode="&#x11e;A" horiz-adv-x="2875" 
d="M496 1843l36 19q123 -183 246 -183q128 0 254 183l29 -19q-47 -105 -122.5 -171t-160.5 -66q-157 0 -282 237zM1319 0v18h53q35 0 60 32t53 95l182 420h-360v-219q-31 -55 -80 -118.5t-80 -94.5q-68 -72 -163.5 -110.5t-201.5 -38.5q-322 0 -518 208t-196 549
q0 222 87.5 392t247 263t367.5 93q222 0 375 -129q14 -12 22 -39l9 2q-7 28 -7 47l-10 200l21 1l32 -631l-34 -2l-9 135q-11 173 -133 276t-286 103q-245 0 -374.5 -173.5t-129.5 -504.5q0 -367 139.5 -560.5t405.5 -193.5q106 2 199.5 44t154.5 124v187q0 86 -52.5 138
t-138.5 52h-237v37h966l377 871h158v-25q0 -74 18 -119l484 -1184q34 -81 53.5 -104t67.5 -23h16v-18h-391v18h157v5q-29 11 -63 96l-477 1171q-17 40 -17 82h-18q0 -22 -25 -82l-300 -688h518l14 -37h-548l-183 -420q-11 -27 -11 -46q0 -36 27 -58.5t72 -22.5h100v-18h-393
z" />
    <glyph glyph-name="Gbreve_Y" unicode="&#x11e;Y" horiz-adv-x="2320" 
d="M496 1843l36 19q123 -183 246 -183q128 0 254 183l29 -19q-47 -105 -122.5 -171t-160.5 -66q-157 0 -282 237zM1395 641v-37h-113v-309l-160 -162q-68 -73 -162 -111t-200 -38q-212 0 -370.5 94t-242.5 265.5t-84 397.5q0 234 92 413.5t260 277.5t388 98q603 0 866 -502
l103 -194q21 -39 26 -66h14q3 18 27 66l246 475q30 58 30 90q0 57 -87 57h-123v17h395v-17h-35q-42 0 -67.5 -29.5t-69.5 -115.5l-303 -586v-598q0 -74 17.5 -91.5t90.5 -17.5h152v-18h-625v18h94q74 0 91.5 18t17.5 91v567l-131 252q-74 143 -164.5 250.5t-185 171
t-189.5 94.5t-190 31q-271 0 -414 -184.5t-143 -534.5q0 -371 129 -562.5t389 -191.5q106 2 200.5 44t155.5 124v226q0 86 -52 138t-138 52h-238v37h703z" />
    <glyph glyph-name="G_Yacute" unicode="G&#xdd;" horiz-adv-x="2320" 
d="M1634 1554l-18 17l242 284q8 11 20 11q9 0 20 -8l25 -21l-49 -61zM1395 641v-37h-113v-309l-160 -162q-68 -73 -162 -111t-200 -38q-212 0 -370.5 94t-242.5 265.5t-84 397.5q0 234 92 413.5t260 277.5t388 98q603 0 866 -502l103 -194q21 -39 26 -66h14q3 18 27 66
l246 475q30 58 30 90q0 57 -87 57h-123v17h395v-17h-35q-42 0 -67.5 -29.5t-69.5 -115.5l-303 -586v-598q0 -74 17.5 -91.5t90.5 -17.5h152v-18h-625v18h94q74 0 91.5 18t17.5 91v567l-131 252q-74 143 -164.5 250.5t-185 171t-189.5 94.5t-190 31q-271 0 -414 -184.5
t-143 -534.5q0 -371 129 -562.5t389 -191.5q106 2 200.5 44t155.5 124v226q0 86 -52 138t-138 52h-238v37h703z" />
    <glyph glyph-name="Ccaron_Y" unicode="&#x10c;Y" horiz-adv-x="2238" 
d="M827 1614h-57l-209 205l31 36l100 -100q103 -103 103 -119h8q0 15 104 119l101 100l30 -36zM1173 131q-73 -73 -175 -110t-218 -37q-213 0 -376 94t-252 266t-89 397q0 234 92 413.5t260 277.5t388 98q88 0 163 -10.5t163 -43t163 -86t153 -146t143 -216.5l102 -194
q21 -39 26 -66h15q3 21 26 66l246 475q30 58 30 90q0 57 -87 57h-123v17h395v-17h-35q-42 0 -67.5 -29.5t-69.5 -115.5l-303 -586v-598q0 -74 17.5 -91.5t90.5 -17.5h152v-18h-625v18h95q73 0 90.5 17.5t17.5 91.5v567l-131 252q-151 291 -305.5 419t-341.5 128
q-271 0 -414 -184.5t-143 -534.5q0 -368 138 -561t400 -193q101 0 196 37t164 104z" />
    <glyph glyph-name="Udieresis_N" unicode="&#xdc;N" horiz-adv-x="1980" 
d="M446 1806q41 0 67 -24t26 -66q0 -40 -25.5 -65t-67.5 -25q-40 0 -65 24t-25 66q0 40 24 65t66 25zM848 1806q40 0 65 -24t25 -66q0 -40 -24 -65t-66 -25q-41 0 -66.5 24t-25.5 66q0 40 25 65t67 25zM37 1473h522v-19h-90q-74 0 -91.5 -17.5t-17.5 -90.5v-1063
q0 -128 69.5 -195.5t199.5 -67.5q161 0 259.5 92.5t98.5 243.5v990q0 73 -18 90.5t-92 17.5h-54v19h316l561 -1033q37 -63 37 -75h12q-2 23 -2 86v874q0 73 -28.5 101t-102.5 28h-92v19h422v-19h-33q-74 0 -102.5 -28t-28.5 -101v-1364h-17q0 24 -57 127l-635 1153
q-41 74 -41 80h-10q2 -23 2 -88v-877q0 -168 -108.5 -270t-286.5 -102q-193 0 -310.5 102t-117.5 270v990q0 73 -18.5 90.5t-92.5 17.5h-53v19z" />
    <glyph glyph-name="Uacute_N" unicode="&#xda;N" horiz-adv-x="1980" 
d="M592 1550l-19 17l242 284q8 11 20 11q9 0 21 -9l25 -20l-50 -61zM37 1473h522v-19h-90q-74 0 -91.5 -17.5t-17.5 -90.5v-1063q0 -128 69.5 -195.5t199.5 -67.5q161 0 259.5 92.5t98.5 243.5v990q0 73 -18 90.5t-92 17.5h-54v19h316l561 -1033q37 -63 37 -75h12
q-2 23 -2 86v874q0 73 -28.5 101t-102.5 28h-92v19h422v-19h-33q-74 0 -102.5 -28t-28.5 -101v-1364h-17q0 24 -57 127l-635 1153q-41 74 -41 80h-10q2 -23 2 -88v-877q0 -168 -108.5 -270t-286.5 -102q-193 0 -310.5 102t-117.5 270v990q0 73 -18.5 90.5t-92.5 17.5h-53v19
z" />
    <glyph glyph-name="Uhungarumlaut_N" unicode="&#x170;N" horiz-adv-x="1980" 
d="M920 1862l45 -41l-35 -41l-191 -168l-18 18zM592 1862l45 -41l-35 -41l-190 -168l-19 18zM37 1473h522v-19h-90q-74 0 -91.5 -17.5t-17.5 -90.5v-1063q0 -128 69.5 -195.5t199.5 -67.5q161 0 259.5 92.5t98.5 243.5v990q0 73 -18 90.5t-92 17.5h-54v19h316l561 -1033
q37 -63 37 -75h12q-2 23 -2 86v874q0 73 -28.5 101t-102.5 28h-92v19h422v-19h-33q-74 0 -102.5 -28t-28.5 -101v-1364h-17q0 24 -57 127l-635 1153q-41 74 -41 80h-10q2 -23 2 -88v-877q0 -168 -108.5 -270t-286.5 -102q-193 0 -310.5 102t-117.5 270v990q0 73 -18.5 90.5
t-92.5 17.5h-53v19z" />
    <glyph glyph-name="Umacron_N" unicode="&#x16a;N" horiz-adv-x="1980" 
d="M926 1692h-559l4 53h559zM37 1473h522v-19h-90q-74 0 -91.5 -17.5t-17.5 -90.5v-1063q0 -128 69.5 -195.5t199.5 -67.5q161 0 259.5 92.5t98.5 243.5v990q0 73 -18 90.5t-92 17.5h-54v19h316l561 -1033q37 -63 37 -75h12q-2 23 -2 86v874q0 73 -28.5 101t-102.5 28h-92
v19h422v-19h-33q-74 0 -102.5 -28t-28.5 -101v-1364h-17q0 24 -57 127l-635 1153q-41 74 -41 80h-10q2 -23 2 -88v-877q0 -168 -108.5 -270t-286.5 -102q-193 0 -310.5 102t-117.5 270v990q0 73 -18.5 90.5t-92.5 17.5h-53v19z" />
    <glyph glyph-name="Uring_N" unicode="&#x16e;N" horiz-adv-x="1980" 
d="M678 1843q-46 0 -86.5 -38.5t-40.5 -88.5q0 -47 41 -87t86 -40q46 0 86.5 38.5t40.5 88.5t-40.5 88.5t-86.5 38.5zM678 1898q68 0 125 -55t57 -127t-57 -127t-125 -55t-124 56t-56 126q0 72 56 127t124 55zM37 1473h522v-19h-90q-74 0 -91.5 -17.5t-17.5 -90.5v-1063
q0 -128 69.5 -195.5t199.5 -67.5q161 0 259.5 92.5t98.5 243.5v990q0 73 -18 90.5t-92 17.5h-54v19h316l561 -1033q37 -63 37 -75h12q-2 23 -2 86v874q0 73 -28.5 101t-102.5 28h-92v19h422v-19h-33q-74 0 -102.5 -28t-28.5 -101v-1364h-17q0 24 -57 127l-635 1153
q-41 74 -41 80h-10q2 -23 2 -88v-877q0 -168 -108.5 -270t-286.5 -102q-193 0 -310.5 102t-117.5 270v990q0 73 -18.5 90.5t-92.5 17.5h-53v19z" />
    <glyph glyph-name="U_Nacute" unicode="U&#x143;" horiz-adv-x="1980" 
d="M1266 1554l-19 17l242 284q8 11 20 11q10 0 21 -8l24 -21l-49 -61zM37 1473h522v-19h-90q-74 0 -91.5 -17.5t-17.5 -90.5v-1063q0 -128 69.5 -195.5t199.5 -67.5q161 0 259.5 92.5t98.5 243.5v990q0 73 -18 90.5t-92 17.5h-54v19h316l561 -1033q37 -63 37 -75h12
q-2 23 -2 86v874q0 73 -28.5 101t-102.5 28h-92v19h422v-19h-33q-74 0 -102.5 -28t-28.5 -101v-1364h-17q0 24 -57 127l-635 1153q-41 74 -41 80h-10q2 -23 2 -88v-877q0 -168 -108.5 -270t-286.5 -102q-193 0 -310.5 102t-117.5 270v990q0 73 -18.5 90.5t-92.5 17.5h-53v19
z" />
    <glyph glyph-name="U_Ncaron" unicode="U&#x147;" horiz-adv-x="1980" 
d="M1432 1614h-58l-209 205l31 36l100 -100q103 -103 103 -119h8q0 15 104 119l101 100l30 -36zM37 1473h522v-19h-90q-74 0 -91.5 -17.5t-17.5 -90.5v-1063q0 -128 69.5 -195.5t199.5 -67.5q161 0 259.5 92.5t98.5 243.5v990q0 73 -18 90.5t-92 17.5h-54v19h316l561 -1033
q37 -63 37 -75h12q-2 23 -2 86v874q0 73 -28.5 101t-102.5 28h-92v19h422v-19h-33q-74 0 -102.5 -28t-28.5 -101v-1364h-17q0 24 -57 127l-635 1153q-41 74 -41 80h-10q2 -23 2 -88v-877q0 -168 -108.5 -270t-286.5 -102q-193 0 -310.5 102t-117.5 270v990q0 73 -18.5 90.5
t-92.5 17.5h-53v19z" />
    <glyph glyph-name="U_Ntilde" unicode="U&#xd1;" horiz-adv-x="1980" 
d="M1675 1767q-22 -82 -54 -112.5t-79 -30.5q-37 0 -84.5 23.5t-85.5 51.5t-80 51.5t-69 23.5q-46 0 -64 -68l-16 -64l-33 9l16 63q20 74 50.5 102.5t74.5 28.5q36 0 83 -23.5t85.5 -51t81 -51t70.5 -23.5q50 0 71 80l17 61l33 -8zM37 1473h522v-19h-90q-74 0 -91.5 -17.5
t-17.5 -90.5v-1063q0 -128 69.5 -195.5t199.5 -67.5q161 0 259.5 92.5t98.5 243.5v990q0 73 -18 90.5t-92 17.5h-54v19h316l561 -1033q37 -63 37 -75h12q-2 23 -2 86v874q0 73 -28.5 101t-102.5 28h-92v19h422v-19h-33q-74 0 -102.5 -28t-28.5 -101v-1364h-17q0 24 -57 127
l-635 1153q-41 74 -41 80h-10q2 -23 2 -88v-877q0 -168 -108.5 -270t-286.5 -102q-193 0 -310.5 102t-117.5 270v990q0 73 -18.5 90.5t-92.5 17.5h-53v19z" />
    <glyph glyph-name="Uacute_Ntilde" unicode="&#xda;&#xd1;" horiz-adv-x="1980" 
d="M592 1550l-19 17l242 284q8 11 20 11q9 0 21 -9l25 -20l-50 -61zM1675 1767q-22 -82 -54 -112.5t-79 -30.5q-37 0 -84.5 23.5t-85.5 51.5t-80 51.5t-69 23.5q-46 0 -64 -68l-16 -64l-33 9l16 63q20 74 50.5 102.5t74.5 28.5q36 0 83 -23.5t85.5 -51t81 -51t70.5 -23.5
q50 0 71 80l17 61l33 -8zM37 1473h522v-19h-90q-74 0 -91.5 -17.5t-17.5 -90.5v-1063q0 -128 69.5 -195.5t199.5 -67.5q161 0 259.5 92.5t98.5 243.5v990q0 73 -18 90.5t-92 17.5h-54v19h316l561 -1033q37 -63 37 -75h12q-2 23 -2 86v874q0 73 -28.5 101t-102.5 28h-92v19
h422v-19h-33q-74 0 -102.5 -28t-28.5 -101v-1364h-17q0 24 -57 127l-635 1153q-41 74 -41 80h-10q2 -23 2 -88v-877q0 -168 -108.5 -270t-286.5 -102q-193 0 -310.5 102t-117.5 270v990q0 73 -18.5 90.5t-92.5 17.5h-53v19z" />
    <glyph glyph-name="Uacute_Ncaron" unicode="&#xda;&#x147;" horiz-adv-x="1980" 
d="M1432 1614h-58l-209 205l31 36l100 -100q103 -103 103 -119h8q0 15 104 119l101 100l30 -36zM592 1550l-19 17l242 284q8 11 20 11q9 0 21 -9l25 -20l-50 -61zM37 1473h522v-19h-90q-74 0 -91.5 -17.5t-17.5 -90.5v-1063q0 -128 69.5 -195.5t199.5 -67.5
q161 0 259.5 92.5t98.5 243.5v990q0 73 -18 90.5t-92 17.5h-54v19h316l561 -1033q37 -63 37 -75h12q-2 23 -2 86v874q0 73 -28.5 101t-102.5 28h-92v19h422v-19h-33q-74 0 -102.5 -28t-28.5 -101v-1364h-17q0 24 -57 127l-635 1153q-41 74 -41 80h-10q2 -23 2 -88v-877
q0 -168 -108.5 -270t-286.5 -102q-193 0 -310.5 102t-117.5 270v990q0 73 -18.5 90.5t-92.5 17.5h-53v19z" />
    <glyph glyph-name="F_F" unicode="FF" horiz-adv-x="1794" 
d="M815 0v18h72q73 0 90.5 17.5t17.5 91.5v891q0 74 -17.5 91t-90.5 17h-31v19h756q23 0 33.5 -4t21.5 -15h1l-1 13q-5 80 -35.5 139t-81.5 93t-114 49.5t-140 15.5h-964v-2q45 -45 45 -107v-610h61q40 0 71 3.5t67.5 16.5t60 35.5t39.5 63.5t16 98v123h19v-678h-19v84
q0 106 -65 161.5t-189 55.5h-61v-553q0 -73 18 -91t92 -18h134v-18h-584v18h72q73 0 90.5 17.5t17.5 91.5v1219q0 74 -17.5 91t-90.5 17h-72v19h1569q23 0 33.5 -4t21.5 -15h2l-8 140l18 1l60 -927h-37l-8 143q-5 80 -35.5 139t-81.5 93t-114 49.5t-140 15.5h-207v-2
q45 -45 45 -107v-426h62q40 0 71 3.5t67 16.5t59.5 36t39.5 64t16 98v81h19v-596h-19v43q0 106 -65 162t-188 56h-62v-410q0 -73 18.5 -91t92.5 -18h133v-18h-584z" />
    <glyph glyph-name="F_I" unicode="FI" horiz-adv-x="1441" 
d="M897 0v18h72q74 0 91 17t17 90v768q0 73 -17 89.5t-91 16.5h-72v19h522v-23h-71q-75 0 -93 -16.5t-18 -89.5v-764q0 -73 18.5 -90t92.5 -17h71v-18h-522zM37 0v18h72q73 0 90.5 17.5t17.5 91.5v1219q0 74 -17.5 91t-90.5 17h-72v19h1091q37 0 56 -19h2l-8 140l18 1
l29 -454l-35 -2q-4 80 -34.5 139t-82 93t-114.5 49.5t-140 15.5h-487v-2q45 -45 45 -107v-610h61q40 0 71 3.5t67.5 16.5t60 35.5t39.5 63.5t16 98v123h19v-678h-19v84q0 106 -65 161.5t-189 55.5h-61v-553q0 -73 18 -91t92 -18h134v-18h-584z" />
    <glyph glyph-name=".notdef" horiz-adv-x="659" 
d="M121 59h360v1092h-360v-1092zM59 0v1210h484v-1210h-484z" />
    <glyph glyph-name=".null" horiz-adv-x="0" 
 />
    <glyph glyph-name="nonmarkingreturn" horiz-adv-x="604" 
 />
    <glyph glyph-name="space" unicode=" " horiz-adv-x="544" 
 />
    <glyph glyph-name="exclam" unicode="!" horiz-adv-x="471" 
d="M164 1499q0 19 72 19q73 0 73 -19q0 -199 -26.5 -540t-26.5 -541h-37q0 200 -27.5 541t-27.5 540zM236 164q40 0 66 -25t26 -67q0 -40 -25 -65t-67 -25q-41 0 -66 24t-25 66q0 41 24.5 66.5t66.5 25.5z" />
    <glyph glyph-name="quotedbl" unicode="&#x22;" horiz-adv-x="417" 
d="M236 1266l20 293q40 -2 56 -10.5t16 -35.5q0 -25 -13 -118l-16 -133zM72 1266l20 293q40 -2 56 -10.5t16 -35.5q0 -33 -12 -118l-17 -133z" />
    <glyph glyph-name="numbersign" unicode="#" horiz-adv-x="944" 
d="M274 113l-38 4l34 340h-215v39h219l33 305h-217v41h219l35 329l39 -4l-35 -325h270l35 329l39 -4l-35 -325h234v-41h-238l-30 -305h231v-39h-236l-34 -344l-39 4l35 340h-271zM344 801l-31 -305h271l32 305h-272z" />
    <glyph glyph-name="dollar" unicode="$" horiz-adv-x="995" 
d="M506 -72h-35v138q-91 0 -167 27t-157 83q-11 8 -29 31.5t-22 36.5l-8 -2q5 -17 8 -88l6 -129h-18l-27 559l37 1l4 -84q9 -178 116 -288.5t256 -110.5h1v605q-154 64 -212 101q-146 92 -158 239q-1 13 -1 28q0 142 101.5 232t269.5 98v139h35v-137q149 0 270 -90
q9 -7 20 -23.5t13 -23.5l14 4q-5 16 -8 65l-6 109h20l23 -483l-37 -2l-4 86q-7 132 -85 226t-220 95v-518q15 -6 46 -19q37 -15 55.5 -23t53 -23.5t53.5 -26.5t48.5 -28.5t46.5 -33.5t38.5 -37t34 -43.5t24.5 -49.5t17 -58t5 -66q0 -175 -111 -272t-311 -105v-139zM471 867
v502q-110 -8 -168.5 -72t-58.5 -177q0 -48 17 -87t50.5 -69t70 -51.5t89.5 -45.5zM506 692v-587q126 10 197 89.5t71 217.5q0 55 -20 98.5t-62 77t-82.5 55.5t-103.5 49z" />
    <glyph glyph-name="percent" unicode="%" horiz-adv-x="1325" 
d="M1142 1221l27 -25l-972 -1067l-28 25zM1118 252q0 127 -42.5 193.5t-123.5 66.5t-123.5 -59.5t-42.5 -173.5q0 -127 43 -194t125 -67q80 0 122 60t42 174zM952 549q128 0 206.5 -78t78.5 -205t-78.5 -205.5t-206.5 -78.5q-127 0 -204.5 78t-77.5 206t77.5 205.5
t204.5 77.5zM541 1085q0 127 -43 194t-125 67q-80 0 -122 -60.5t-42 -175.5q0 -127 42.5 -193.5t123.5 -66.5t123.5 60t42.5 175zM375 1382q127 0 204.5 -78t77.5 -206t-77.5 -205.5t-204.5 -77.5q-128 0 -206.5 78t-78.5 205t78.5 205.5t206.5 78.5z" />
    <glyph glyph-name="ampersand" unicode="&#x26;" horiz-adv-x="1239" 
d="M555 453v18q0 61 18 106.5t45 72t70 44t82 24t92 9.5q41 3 66.5 5t62 7.5t60 13t49.5 20.5t40.5 30t24.5 42t10 56q0 16 -1 25h28l4 -56q2 -20 2 -35q0 -58 -15.5 -99t-39.5 -64.5t-63.5 -37t-77.5 -17.5t-91 -4q-6 0 -20 0.5t-21 0.5q65 -38 103.5 -111t38.5 -156
q0 -164 -129.5 -263.5t-341.5 -99.5q-219 0 -353.5 109.5t-134.5 289.5q0 162 95.5 278t247.5 136v2q-80 15 -134 94.5t-54 175.5q0 125 91 202t240 77q93 0 158 -27q46 -18 69 -59l4 2q-2 8 -2 34v43h19v-274h-19v33q-8 109 -73 160t-156 51q-103 0 -165 -64.5t-62 -169.5
t58.5 -186.5t151.5 -81.5h33v-37h-43q-140 0 -218.5 -102t-78.5 -287q0 -158 101 -254t267 -96q175 0 282.5 88t107.5 231q0 103 -64 180.5t-167 77.5v1q-77 -7 -118.5 -40.5t-41.5 -107.5v-10h-37z" />
    <glyph glyph-name="quotesingle" unicode="'" horiz-adv-x="253" 
d="M72 1266l20 293q40 -2 56 -10.5t16 -35.5q0 -33 -12 -118l-17 -133z" />
    <glyph glyph-name="parenleft" unicode="(" horiz-adv-x="528" 
d="M500 -300l-26 -26q-196 196 -299 477.5t-103 585.5q0 309 105 590t297 473l26 -26q-134 -134 -208.5 -420t-74.5 -617t74.5 -617t208.5 -420z" />
    <glyph glyph-name="parenright" unicode=")" horiz-adv-x="528" 
d="M29 1774l26 26q196 -196 299 -477.5t103 -585.5q0 -309 -105 -590t-297 -473l-26 26q134 134 208 419.5t74 617.5t-74 617.5t-208 419.5z" />
    <glyph glyph-name="asterisk" unicode="*" horiz-adv-x="544" 
d="M303 1300q8 -4 86 -40.5t86 -40.5q2 -3 2 -7l-22 -41h-6q-8 4 -80 53.5t-80 53.5l-2 4l-4 -2l4 -4q0 -9 6 -95.5t6 -95.5q0 -4 -2 -6h-47l-4 6q0 9 6 95.5t6 95.5l4 4l-4 2l-2 -4q-8 -4 -79 -53.5t-79 -53.5h-8l-22 41l4 7q8 4 85 40.5t85 40.5h4v7l-4 -2q-8 4 -85 42
t-85 42q-4 2 -4 6l22 41h8q8 -4 79 -53.5t79 -53.5l2 -4l4 2l-4 4q0 9 -6 95.5t-6 95.5q2 4 4 6h47l2 -6q0 -9 -6 -95.5t-6 -95.5l-4 -4l4 -2l2 4q8 4 80 53.5t80 53.5h6l22 -41l-2 -6q-8 -4 -86 -42t-86 -42l-4 2v-7h4z" />
    <glyph glyph-name="plus" unicode="+" horiz-adv-x="888" 
d="M477 674h359l-5 -56h-354v-358l-55 4v354h-367l2 56h365v370l55 -2v-368z" />
    <glyph glyph-name="comma" unicode="," horiz-adv-x="399" 
d="M123 -166q40 0 74.5 34.5t42.5 78.5q1 6 2.5 16.5l2.5 17.5t3 11l-6 4q-11 -14 -41 -14q-92 0 -92 90q0 44 24 68t68 24q41 0 65.5 -25.5t24.5 -66.5q0 -115 -46.5 -185.5t-121.5 -70.5v18z" />
    <glyph glyph-name="hyphen" unicode="-" horiz-adv-x="581" 
d="M537 563h-500l8 55h502z" />
    <glyph glyph-name="period" unicode="." horiz-adv-x="399" 
d="M201 164q40 0 65 -25t25 -67q0 -40 -24 -65t-66 -25q-41 0 -66.5 24t-25.5 66q0 40 25 66t67 26z" />
    <glyph glyph-name="slash" unicode="/" horiz-adv-x="999" 
d="M37 -188l878 1855l48 -25l-877 -1855z" />
    <glyph glyph-name="zero" unicode="0" horiz-adv-x="1112" 
d="M549 1452q-162 0 -247 -164.5t-85 -478.5q0 -385 88.5 -587t257.5 -202q163 0 248.5 165t85.5 479q0 385 -89 586.5t-259 201.5zM557 1489q222 0 358 -207t136 -545q0 -339 -136 -546t-358 -207t-358 207t-136 546q0 338 136 545t358 207z" />
    <glyph glyph-name="one" unicode="1" horiz-adv-x="649" 
d="M629 0h-609v18h132q74 0 92 20.5t18 106.5v959q0 76 6 119l-8 4q-26 -39 -51 -64l-136 -156l-15 11l79 100q244 312 244 371h27v-1344q0 -86 17.5 -106.5t90.5 -20.5h113v-18z" />
    <glyph glyph-name="two" unicode="2" horiz-adv-x="948" 
d="M881 0h-809v123q19 2 75 42t99 97q103 136 178 245.5t141.5 226t100.5 219.5t34 190q0 151 -65.5 230t-190.5 79q-83 0 -145 -41t-93 -100.5t-42 -132.5v-70h-35v360h18v-88q57 51 137 80t160 29q181 0 291.5 -102t110.5 -269q0 -82 -35 -176.5t-90.5 -182.5
t-139.5 -189.5t-165.5 -185.5t-184.5 -183q-69 -66 -86 -74l7 -10q70 10 118 10h301q65 0 106 3.5t81 15t62.5 34t37.5 60t19 92.5l4 58l22 -1z" />
    <glyph glyph-name="three" unicode="3" horiz-adv-x="962" 
d="M72 133v256h37v-63q5 -55 27 -108t59 -98t95.5 -72.5t127.5 -27.5q156 0 237.5 97t81.5 282q0 188 -83.5 308t-221.5 120h-186v37h155q122 0 196.5 91.5t74.5 228.5q0 131 -64.5 199.5t-187.5 68.5q-69 0 -122 -25t-83.5 -68t-47 -90t-20.5 -100v-67h-34v366h18v-82l6 -2
q6 11 19.5 24t25.5 19q99 58 236 62q172 0 276.5 -82.5t104.5 -218.5q0 -115 -74.5 -216t-173.5 -120v-2q148 -20 244 -152.5t96 -298.5q0 -187 -130 -301t-343 -114q-86 0 -180 38.5t-166 110.5z" />
    <glyph glyph-name="four" unicode="4" horiz-adv-x="999" 
d="M94 362h561v492h146v-492h129v-71h-129v-146q0 -86 20.5 -106.5t106.5 -20.5h35v-18h-531v18h94q87 0 108 20.5t21 106.5v146h-618v45l19 37q20 37 50 95.5t69 136t81.5 169t83.5 184.5t79 192t64 182q16 51 16 77q0 43 -79 43v21q144 0 190.5 12.5t75.5 68.5l12 -4z" />
    <glyph glyph-name="five" unicode="5" horiz-adv-x="962" 
d="M147 1473h547q75 0 94.5 15t28.5 83v11l21 -1l-15 -235h-526q-35 0 -52 -0.5t-34.5 -5.5t-23.5 -9.5t-12 -21.5t-7.5 -31.5t-3.5 -48.5l-25 -350q59 38 133 60t146 22q215 0 344 -131t129 -357q0 -214 -131 -351.5t-342 -137.5q-88 2 -183 40.5t-163 110.5v254h37v-63
q2 -51 23.5 -104t59.5 -98.5t97.5 -74.5t128.5 -29q156 0 237.5 116t81.5 337t-81.5 336t-237.5 115q-76 0 -152.5 -26.5t-130.5 -68.5h-35l37 574q3 70 10 70z" />
    <glyph glyph-name="six" unicode="6" horiz-adv-x="999" 
d="M846 1343v-210h-19v28q-11 53 -29.5 99t-51.5 92t-86.5 73t-122.5 27q-99 0 -170.5 -102.5t-106.5 -272.5t-35 -385h8q46 115 130 175.5t182 60.5q172 0 277.5 -132.5t105.5 -349.5q0 -214 -117 -338t-311 -124q-127 0 -224.5 85.5t-150.5 242.5t-53 362q0 242 58 427
t163.5 286.5t243.5 101.5q33 -1 65 -6.5t59.5 -17t49.5 -22.5t45.5 -28t35.5 -26.5t31 -26t23 -19.5zM772 446q0 217 -61.5 331t-178.5 114q-53 0 -106 -32t-95.5 -87t-69.5 -137.5t-28 -175.5q17 -211 85.5 -325t181.5 -114q133 0 202.5 109t69.5 317z" />
    <glyph glyph-name="seven" unicode="7" horiz-adv-x="925" 
d="M455 0h-146v98q0 159 51 356t124 362.5t142 291t115 180.5q35 44 58 53l-2 13q-21 -8 -152 -8h-452q-77 0 -97 -15.5t-24 -83.5l-9 -114h-20l23 340h825v-103q-21 -6 -60 -50t-88 -117t-99.5 -180t-92.5 -227.5t-69 -272t-27 -302.5v-221z" />
    <glyph glyph-name="eight" unicode="8" horiz-adv-x="1052" 
d="M526 20q147 0 224 102.5t77 297.5q0 199 -77 303t-224 104q-146 0 -222.5 -104t-76.5 -303q0 -195 76.5 -297.5t222.5 -102.5zM526 864q115 0 175.5 77t60.5 222q0 141 -60.5 215t-175.5 74q-114 0 -173.5 -74t-59.5 -215q0 -146 59.5 -222.5t173.5 -76.5zM526 -16
q-205 0 -329.5 119.5t-124.5 316.5q0 164 95 287t245 143v2q-101 19 -173.5 110.5t-72.5 204.5q0 145 99 233.5t261 88.5q163 0 263 -88.5t100 -233.5q0 -113 -73.5 -204.5t-174.5 -110.5v-2q150 -20 245 -143t95 -287q0 -196 -125 -316t-330 -120z" />
    <glyph glyph-name="nine" unicode="9" horiz-adv-x="999" 
d="M154 129v211h18v-29q11 -53 30 -99.5t52 -92t86.5 -72.5t122.5 -27q99 0 170.5 102.5t106 272.5t34.5 385h-8q-46 -114 -129.5 -174.5t-181.5 -60.5q-172 0 -277.5 132.5t-105.5 348.5q0 215 117 339t311 124q127 0 224.5 -85.5t150.5 -242.5t53 -362q0 -242 -58 -427
t-163.5 -286.5t-243.5 -101.5q-33 1 -65 6.5t-60 17t-49.5 22t-45 27.5t-35.5 26t-31.5 26t-22.5 20zM227 1026q0 -217 61.5 -330.5t178.5 -113.5q53 0 106 32t95.5 87t69.5 137.5t28 175.5q-17 211 -85 324.5t-181 113.5q-133 0 -203 -109t-70 -317z" />
    <glyph glyph-name="colon" unicode=":" horiz-adv-x="399" 
d="M201 164q40 0 65 -25t25 -67q0 -40 -24 -65t-66 -25q-41 0 -66.5 24t-25.5 66q0 40 25 66t67 26zM201 883q40 0 65 -25t25 -67q0 -41 -24 -66t-66 -25q-41 0 -66.5 24.5t-25.5 66.5q0 40 25 66t67 26z" />
    <glyph glyph-name="semicolon" unicode=";" horiz-adv-x="399" 
d="M201 883q40 0 65 -25t25 -67q0 -41 -24 -66t-66 -25q-41 0 -66.5 24.5t-25.5 66.5q0 40 25 66t67 26zM291 72q0 -115 -46.5 -185.5t-121.5 -70.5v37q38 0 67.5 33t36.5 69q2 15 13 37l-7 4q-11 -14 -32 -14q-92 0 -92 90q0 44 24 68t68 24q41 0 65.5 -25.5t24.5 -66.5z
" />
    <glyph glyph-name="less" unicode="&#x3c;" horiz-adv-x="761" 
d="M627 1133l71 -74l-460 -307q-14 -9 -40 -26.5t-41 -28t-34 -22t-32.5 -18t-22.5 -8.5v-8q9 -2 21.5 -7.5t33.5 -18.5t33 -21t42.5 -28.5t39.5 -26.5l460 -308l-71 -73l-596 475v24z" />
    <glyph glyph-name="equal" unicode="=" horiz-adv-x="944" 
d="M864 762h-792l8 55h790zM864 471h-792l8 55h790z" />
    <glyph glyph-name="greater" unicode="&#x3e;" horiz-adv-x="761" 
d="M135 1133l596 -476v-24l-596 -475l-72 73l461 312q17 11 48 32.5t47 32t35 21t30 12.5v8q-11 2 -29.5 12.5t-35.5 21.5t-47 32t-48 33l-461 311z" />
    <glyph glyph-name="question" unicode="?" horiz-adv-x="825" 
d="M342 164q40 0 65 -25t25 -67q0 -40 -24 -65t-66 -25q-41 0 -66.5 24t-25.5 66q0 38 27 65t65 27zM102 1120h-36v393h20v-79q54 43 125.5 67.5t142.5 26.5q182 0 294 -90.5t112 -237.5q0 -74 -40.5 -146.5t-98 -130t-114.5 -111.5t-97.5 -109t-40.5 -103v-182h-56v182
q0 62 30 127.5t72.5 121.5t85.5 111.5t73 118t30 121.5q0 134 -63.5 203.5t-184.5 69.5q-56 0 -98.5 -15.5t-68 -39t-44 -61.5t-27 -71.5t-16.5 -81.5v-84z" />
    <glyph glyph-name="at" unicode="@" horiz-adv-x="1759" 
d="M1277 1303l-7 -71v-1l-74 -672q-6 -69 -6 -70q0 -81 27 -126.5t77 -45.5q96 0 178 73.5t129.5 200t47.5 275.5q0 133 -57 254.5t-153 209.5t-229.5 140t-279.5 52q-166 0 -318 -62t-261.5 -166.5t-174.5 -249t-65 -303.5q0 -214 97.5 -395.5t265 -287t364.5 -105.5
q126 0 252 45t198 121l26 -26q-78 -81 -210 -129t-266 -48q-155 0 -296.5 65.5t-244 175.5t-163 263t-60.5 321q0 166 68 317.5t182.5 261t273 174.5t332.5 65q205 0 379 -93t275.5 -252.5t101.5 -347.5q0 -159 -53.5 -293.5t-145 -213t-199.5 -78.5q-71 0 -125 60.5
t-80 178.5h-14q-20 -46 -47 -86t-65 -76.5t-89 -57.5t-108 -21q-137 0 -233.5 111t-96.5 306q0 100 30 192.5t88.5 168t155 121t218.5 45.5q124 0 237 -58q45 0 64 19t28 68l6 54zM1114 1145q-84 41 -182 41q-90 0 -160 -46.5t-111 -122.5t-62 -165t-21 -184
q0 -157 54.5 -253t143.5 -96q84 0 169.5 93t117.5 243z" />
    <glyph glyph-name="A" unicode="A" horiz-adv-x="1552" 
d="M16 0v18h33q35 0 60 32t53 95l575 1328h158v-25q0 -74 18 -119l484 -1184q34 -81 53.5 -104t67.5 -23h16v-18h-391v18h157v5q-29 11 -63 96l-114 280h-811l-111 -254q-11 -27 -11 -46q0 -36 27 -58.5t72 -22.5h100v-18h-373zM328 436h780l-348 854q-17 40 -17 82h-18
q0 -22 -25 -82z" />
    <glyph glyph-name="B" unicode="B" horiz-adv-x="1212" 
d="M342 37h233q190 0 307 107t117 282q0 184 -122.5 303t-313.5 119h-108v35h82q135 0 223 77.5t88 198.5q0 125 -93.5 201t-246.5 76h-166v-2q35 -35 35 -107v-1182q0 -69 -35 -104v-4zM37 0v18h72q73 0 90.5 17.5t17.5 91.5v1219q0 74 -17.5 91t-90.5 17h-72v19h500
q218 0 351.5 -85.5t133.5 -224.5q0 -95 -81 -181t-214 -105v-9q129 -9 234 -75.5t161 -164t56 -202.5q0 -125 -75.5 -223t-204 -150.5t-286.5 -52.5h-575z" />
    <glyph glyph-name="C" unicode="C" horiz-adv-x="1335" 
d="M72 741q0 222 88.5 392t251 263t374.5 93q222 0 375 -131q16 -16 23 -41l14 4q-4 16 -6 59l-4 149l18 1l19 -592l-37 -1l-6 189q-5 89 -65 165.5t-153 119.5t-194 43q-252 0 -384 -174t-132 -506q0 -367 138 -560.5t401 -193.5q149 0 276 76.5t179 203.5l34 -13
q-58 -148 -192 -225.5t-302 -77.5q-213 0 -375.5 94t-251.5 266t-89 397z" />
    <glyph glyph-name="D" unicode="D" horiz-adv-x="1480" 
d="M342 37h217q331 0 505.5 179.5t174.5 520.5t-174.5 520t-505.5 179h-217v-2q35 -35 35 -97v-1202q0 -61 -35 -96v-2zM37 0v18h72q73 0 90.5 17.5t17.5 91.5v1200q0 77 -18.5 102t-89.5 25h-72v19h577q238 0 420 -91.5t281.5 -259t99.5 -385.5q0 -331 -220.5 -534
t-580.5 -203h-577z" />
    <glyph glyph-name="E" unicode="E" horiz-adv-x="1130" 
d="M698 422h-18v113q0 57 -12.5 98t-31.5 64t-50 36.5t-59.5 17t-67.5 3.5h-82v-609q0 -61 -45 -106v-2h407q149 0 222 64.5t83 211.5l13 164h33l-35 -555l-19 1l6 95h-2q-18 -18 -75 -18h-928v18h72q73 0 90.5 17.5t17.5 91.5v1219q0 74 -17.5 91t-90.5 17h-72v19h817
q57 0 76 -19h2l-6 95l18 1l37 -555h-37l-8 144q-9 161 -85.5 229t-229.5 68h-289v-2q45 -45 45 -107v-536h82q40 0 68 3.5t59 16.5t50 35.5t31.5 63.5t12.5 98v71h18v-657z" />
    <glyph glyph-name="F" unicode="F" horiz-adv-x="1036" 
d="M37 0v18h72q73 0 90.5 17.5t17.5 91.5v1219q0 74 -17.5 91t-90.5 17h-72v19h852q23 0 33.5 -4t21.5 -15h2l-8 140l18 1l39 -600h-37l-8 144q-4 80 -34.5 139t-81.5 93t-114 49.5t-140 15.5h-248v-2q45 -45 45 -107v-610h82q40 0 71 3.5t67.5 16.5t60 35.5t39.5 63.5
t16 98v123h18v-678h-18v84q0 106 -65 161.5t-189 55.5h-82v-553q0 -73 18 -91t92 -18h134v-18h-584z" />
    <glyph glyph-name="G" unicode="G" horiz-adv-x="1486" 
d="M1307 -82h-19v143q-2 40 -25.5 70.5t-56.5 30.5q-30 0 -59 -29q-68 -72 -163.5 -110.5t-201.5 -38.5q-322 0 -518 208t-196 549q0 222 87.5 392t247 263t367.5 93q222 0 375 -129q14 -12 22 -39l9 2q-7 28 -7 47l-10 200l21 1l32 -631l-34 -2l-9 135q-11 173 -133 276
t-286 103q-245 0 -374.5 -173.5t-129.5 -504.5q0 -367 139.5 -560.5t405.5 -193.5q106 2 199.5 44t154.5 124v269q0 86 -52.5 138t-138.5 52h-237v37h764v-37h-174v-168v-561z" />
    <glyph glyph-name="H" unicode="H" horiz-adv-x="1314" 
d="M37 0v18h72q71 0 89.5 25t18.5 102v1182q0 77 -18.5 102t-89.5 25h-72v19h504v-19h-54q-71 0 -90.5 -25t-19.5 -102v-534h561v534q0 77 -20 102t-91 25h-53v19h506v-19h-74q-71 0 -89.5 -25t-18.5 -102v-1182q0 -77 18.5 -102t89.5 -25h74v-18h-506v18h55q71 0 90 25
t19 102v611h-561v-611q0 -77 19.5 -102t90.5 -25h54v-18h-504z" />
    <glyph glyph-name="I" unicode="I" horiz-adv-x="593" 
d="M37 0v18h72q74 0 91 17t17 90v1223q0 73 -17 89.5t-91 16.5h-72v19h522v-23h-72q-74 0 -92 -17t-18 -90v-1218q0 -73 18 -90t92 -17h72v-18h-522z" />
    <glyph glyph-name="J" unicode="J" horiz-adv-x="831" 
d="M68 240q0 -99 67 -159.5t176 -60.5q80 0 122 56t42 162v1159q0 23 3.5 32t15.5 21v4h-283v19h586v-19h-54q-108 0 -108 -108v-1016q0 -154 -91.5 -250t-232.5 -96q-118 0 -190 70.5t-72 185.5h19z" />
    <glyph glyph-name="K" unicode="K" horiz-adv-x="1200" 
d="M37 0v18h72q73 0 90.5 20.5t17.5 106.5v1201q0 74 -17.5 91t-90.5 17h-71v19h469v-19h-19q-74 0 -92.5 -17.5t-18.5 -90.5v-461q60 0 90 5.5t43 22.5l324 408q37 47 37 77q0 56 -106 56h-19v19h453v-19h-25q-80 0 -161 -33t-140 -108l-325 -412l2 -8q53 -12 98 -32
t79.5 -43t63 -55.5t48 -62t36 -71t26.5 -74t19 -79.5t13.5 -78.5t10.5 -80.5l9 -67.5t9.5 -59.5t13.5 -55.5t19 -43t26 -36t34.5 -20t46.5 -8.5q46 0 97 40l27 21l11 -14l-26 -21q-85 -76 -166 -76q-41 0 -75 12.5t-58 30t-44.5 52t-32.5 61.5t-25 77t-19 80.5t-16 88.5
q-12 67 -19 103.5t-23 96.5t-32.5 93.5t-45 76t-62 64.5t-82.5 37.5t-109 15.5h-25v-721q0 -86 18.5 -106.5t92.5 -20.5h72v-18h-523z" />
    <glyph glyph-name="L" unicode="L" horiz-adv-x="1054" 
d="M37 0v18h72q71 0 89.5 23t18.5 100v1207q0 73 -17 89.5t-91 16.5h-72v19h522v-19h-72q-74 0 -92 -16.5t-18 -89.5v-1203q0 -61 -45 -106v-2h276q80 0 135.5 9.5t103 34t73.5 72t32 119.5l17 205h41l-41 -581l-21 2l8 120h-2q-11 -11 -21 -14.5t-34 -3.5h-862z" />
    <glyph glyph-name="M" unicode="M" horiz-adv-x="1847" 
d="M18 0v18h33q76 0 99 28.5t28 117.5l55 1182q2 32 2 43q0 37 -19.5 51t-82.5 14h-82v19h301l531 -1174q30 -68 30 -88h11q0 26 28 88l531 1174h307v-19h-70q-70 0 -92 -20.5t-22 -69.5q0 -13 2 -55l47 -1145q3 -91 26 -118.5t105 -27.5h45v-18h-535v18h74q78 0 102 18.5
t24 60.5q0 5 -0.5 17t-0.5 19l-41 1079q-2 37 -2 91h-12q0 -5 -33 -84l-551 -1227l-6 -15h-4l-6 15l-543 1204q-23 52 -23 86h-8q0 -33 -2 -70l-51 -1075q-2 -34 -2 -46q0 -40 24.5 -56.5t104.5 -16.5h74v-18h-396z" />
    <glyph glyph-name="N" unicode="N" horiz-adv-x="1191" 
d="M37 0v18h53q74 0 92.5 18t18.5 91v1219q0 73 -18.5 90.5t-92.5 17.5h-53v19h313l561 -1033q37 -63 37 -75h13q-3 35 -3 86v874q0 73 -28.5 101t-102.5 28h-92v19h422v-19h-33q-74 0 -102.5 -28t-28.5 -101v-1364h-16q0 24 -57 127l-635 1153q-41 74 -41 80h-11
q3 -34 3 -88v-1106q0 -73 18 -91t92 -18h53v-18h-362z" />
    <glyph glyph-name="O" unicode="O" 
d="M823 -16q-342 0 -551 207t-209 546q0 338 209 545t551 207q340 0 548 -207t208 -545q0 -224 -94 -395t-266 -264.5t-396 -93.5zM829 20q278 0 425 173.5t147 504.5q0 368 -150 561t-436 193q-280 0 -426.5 -173.5t-146.5 -504.5q0 -368 150.5 -561t436.5 -193z" />
    <glyph glyph-name="P" unicode="P" horiz-adv-x="1120" 
d="M342 1434v-11q35 -46 35 -127v-686h115q194 0 295.5 105.5t101.5 306.5t-101.5 306.5t-295.5 105.5h-150zM37 0v18h72q73 0 90.5 17.5t17.5 91.5v1219q0 74 -17.5 91t-90.5 17h-72v19h516q231 0 372.5 -124t141.5 -327q0 -202 -141.5 -325.5t-372.5 -123.5h-176v-446
q0 -73 18 -91t92 -18h52v-18h-502z" />
    <glyph glyph-name="Q" unicode="Q" horiz-adv-x="1646" 
d="M2327 -168q-292 -321 -670 -321q-120 0 -256 33t-226.5 69t-211.5 93q-216 101 -301 101q-34 0 -55 -24t-21 -56q0 -28 17.5 -50t47.5 -27l-6 -37q-51 9 -77 41t-26 74q0 50 22.5 85t68.5 65q33 21 115 59q112 53 176 92q241 148 357 343.5t116 415.5q0 323 -148.5 493.5
t-431.5 170.5q-277 0 -422 -170.5t-145 -493.5q0 -153 48.5 -287t156.5 -249.5t268 -185.5l-39 -21q-294 101 -453 301t-159 442q0 315 207 508t546 193q337 0 543.5 -193t206.5 -508q0 -451 -627 -789q-79 -43 -164 -81q-102 -46 -131 -68q58 0 283 -52q159 -37 265 -59
t275.5 -45.5t301.5 -23.5q377 0 536 175z" />
    <glyph glyph-name="R" unicode="R" horiz-adv-x="1261" 
d="M37 0v18h72q73 0 90.5 17.5t17.5 91.5v1219q0 74 -17.5 91t-90.5 17h-72v19h534q246 0 395.5 -125.5t149.5 -329.5q0 -184 -122.5 -304.5t-311.5 -138.5l-41 -2v-12q70 -7 131 -46.5t96 -94.5l103 -162q37 -58 62.5 -94.5t66.5 -75.5t71 -39q32 0 59 23l45 39l11 -15
l-45 -39q-91 -78 -169 -78q-37 0 -71.5 16.5t-66 50t-52.5 62.5t-51 76l-143 222q-57 87 -98 122t-105 35h-24v35h94q187 0 285 107.5t98 312.5q0 204 -98 311t-285 107h-213v-2q35 -35 35 -107v-1200q0 -73 18 -91t92 -18h119v-18h-569z" />
    <glyph glyph-name="S" unicode="S" horiz-adv-x="978" 
d="M57 502l37 2l4 -84q9 -178 115 -289t255 -111q138 0 222 82.5t84 216.5q0 52 -18 99t-44.5 83t-71 74t-83 63.5t-94.5 59.5q-50 30 -76.5 47t-71.5 48.5t-70 55.5t-57 60.5t-48 71.5t-28 80.5t-12 95.5q0 149 111 240.5t293 91.5q151 0 272 -90q9 -7 20 -23.5t13 -23.5
l14 4q-5 16 -8 65l-6 109h20l23 -483l-37 -2l-4 86q-3 63 -23 119t-56.5 102t-95.5 73t-132 27q-125 0 -192.5 -64.5t-67.5 -185.5q0 -35 9.5 -68t22.5 -58.5t39.5 -54t47 -46.5t59.5 -45t61 -41t68 -41q55 -33 92 -57.5t85.5 -61.5t80 -74t61 -83.5t44 -102t14.5 -117.5
q0 -166 -125.5 -267t-331.5 -101q-92 0 -167 26.5t-157 83.5q-11 8 -29 31.5t-22 36.5l-8 -2q6 -28 8 -88l6 -128l-18 -1z" />
    <glyph glyph-name="T" unicode="T" horiz-adv-x="1101" 
d="M209 0v18h156q73 0 90.5 17.5t17.5 91.5v1309h-123q-153 0 -211 -46t-65 -190l-6 -84l-37 2l30 475l23 -1l-10 -119h954l-10 117l22 1l31 -473l-37 -2l-6 84q-5 75 -20.5 120t-49.5 71.5t-81 35.5t-125 9h-119v-1309q0 -74 17.5 -91.5t90.5 -17.5h152v-18h-684z" />
    <glyph glyph-name="U" unicode="U" horiz-adv-x="1187" 
d="M37 1473h522v-19h-90q-74 0 -91.5 -17.5t-17.5 -90.5v-1084q0 -118 63.5 -180t184.5 -62q165 0 251.5 81t86.5 235v973q0 79 -23.5 112t-93.5 33h-75v19h399v-19h-53q-70 0 -93.5 -33t-23.5 -112v-973q0 -172 -96 -262t-279 -90q-184 0 -295.5 97t-111.5 255v1010
q0 73 -18.5 90.5t-92.5 17.5h-53v19z" />
    <glyph glyph-name="V" unicode="V" horiz-adv-x="1523" 
d="M18 1473h406v-19h-158v-4q36 -12 64 -94l471 -1141q16 -37 16 -74h27q0 34 20 82l459 1104q14 33 14 57q0 70 -100 70h-176v19h446v-19h-24q-46 0 -67 -25.5t-52 -101.5l-541 -1337l-110 -8l-543 1345q-32 78 -52.5 102.5t-68.5 24.5h-31v19z" />
    <glyph glyph-name="W" unicode="W" horiz-adv-x="2213" 
d="M18 1473h295v-29q0 -34 15 -88l424 -1141q12 -36 12 -74h20q0 24 15 74l293 975l-41 137q-23 76 -45.5 101.5t-75.5 25.5h-47v19h458v-19h-194v-4q20 -7 37.5 -35t25.5 -59l342 -1141q13 -52 13 -74h28q0 27 19 80l403 1108q14 36 14 60q0 65 -102 65h-78v19h349v-19h-31
q-24 0 -41 -7.5t-30 -27.5t-21 -37.5t-21 -54.5l-485 -1335l-115 -10l-344 1142l-340 -1134l-115 -8l-487 1345q-25 79 -45.5 103t-73.5 24h-31v19z" />
    <glyph glyph-name="X" unicode="X" horiz-adv-x="1175" 
d="M37 0v18h18q63 0 98.5 31t86.5 129l279 548l-265 568q-44 94 -79 127t-81 33h-22v19h350v-19h-111v-4q22 -8 54.5 -42t50.5 -71l226 -484l241 447q44 82 44 112q0 22 -21 32t-70 10h-72v19h342v-19h-25q-45 0 -74.5 -30t-84.5 -130l-261 -482l295 -634q46 -98 73.5 -128
t76.5 -30h35v-20h-475v20h43q58 0 83 11.5t25 37.5q0 13 -39 101l-239 513l-258 -505q-43 -84 -43 -116q0 -25 22 -34.5t74 -9.5h69v-18h-366z" />
    <glyph glyph-name="Y" unicode="Y" horiz-adv-x="1177" 
d="M236 0v18h176q73 0 90.5 17.5t17.5 91.5v567l-321 619q-42 81 -68.5 112t-67.5 31h-43v17h388v-17h-127v-4q18 -7 35.5 -33t48.5 -82l264 -503q21 -39 26 -66h15q4 21 26 66l246 475q30 58 30 90q0 57 -87 57h-123v17h395v-17h-35q-42 0 -67.5 -29.5t-69.5 -115.5
l-303 -586v-598q0 -73 18 -91t91 -18h151v-18h-706z" />
    <glyph glyph-name="Z" unicode="Z" horiz-adv-x="1064" 
d="M0 0v18q26 0 67.5 40.5t79.5 119.5l537 1127q22 47 65 82t82 45v6h-401q-79 0 -128.5 -9t-88.5 -35t-57.5 -73t-22.5 -123l-2 -40l-14 1l22 434l15 -2l-7 -137q11 11 21 15t33 4h796v-19q-22 0 -62.5 -40t-78.5 -120l-537 -1122q-43 -91 -98 -129v-6h469q154 0 218 44
t71 179l4 75l21 -1l-25 -436l-21 1l7 117h-2q-11 -11 -18.5 -13.5t-31.5 -2.5h-913z" />
    <glyph glyph-name="bracketleft" unicode="[" horiz-adv-x="434" 
d="M418 1864v-37h-236v-2q35 -35 35 -107v-1964q0 -69 -35 -104v-4h236v-37h-355v10q9 92 9 170v2075h346z" />
    <glyph glyph-name="backslash" unicode="\" horiz-adv-x="999" 
d="M963 -188l-48 -25l-878 1855l49 25z" />
    <glyph glyph-name="bracketright" unicode="]" horiz-adv-x="434" 
d="M16 1864h346v-2075q0 -78 9 -170v-10h-355v37h236v4q-35 35 -35 104v1964q0 72 35 107v2h-236v37z" />
    <glyph glyph-name="asciicircum" unicode="^" horiz-adv-x="753" 
d="M55 1012l320 313h6l319 -313l-61 -64l-164 191q-80 86 -92 147h-10q-12 -61 -92 -147l-166 -191z" />
    <glyph glyph-name="underscore" unicode="_" horiz-adv-x="835" 
d="M836 -291h-836v55h836v-55z" />
    <glyph glyph-name="grave" unicode="`" horiz-adv-x="362" 
d="M80 1417q12 8 18 8q9 0 19 -10l200 -239l-28 -25l-219 172l-27 31q-6 9 -6 16q0 14 10 21z" />
    <glyph glyph-name="a" unicode="a" horiz-adv-x="1099" 
d="M760 745v439q0 132 -62 200t-180 68q-147 0 -229 -77t-88 -201l-6 -127h-37l22 483h21l-6 -109q-3 -44 -9 -65l15 -4q2 7 12.5 23.5t19.5 23.5q121 90 283 90q198 0 301 -85t103 -247v-1012q0 -64 11.5 -84t55.5 -20l41 2l35 2l1 -18q-122 -12 -222 -45v16q0 56 -22 184
q-16 91 -17 133h-21q-43 -174 -133.5 -252.5t-210.5 -78.5q-168 0 -277.5 92.5t-109.5 242.5q0 192 151 309t398 117h160zM760 709h-150q-172 0 -276.5 -107.5t-104.5 -282.5q0 -126 64.5 -203t169.5 -77q55 0 107 26t95 75.5t69 133.5t26 189v246z" />
    <glyph glyph-name="b" unicode="b" horiz-adv-x="1212" 
d="M342 37h233q190 0 307 107t117 282q0 184 -122.5 303t-313.5 119h-108v35h82q135 0 223 77.5t88 198.5q0 125 -93.5 201t-246.5 76h-166v-2q35 -35 35 -107v-1182q0 -69 -35 -104v-4zM37 0v18h72q73 0 90.5 17.5t17.5 91.5v1219q0 74 -17.5 91t-90.5 17h-72v19h500
q218 0 351.5 -85.5t133.5 -224.5q0 -95 -81 -181t-214 -105v-9q129 -9 234 -75.5t161 -164t56 -202.5q0 -125 -75.5 -223t-204 -150.5t-286.5 -52.5h-575z" />
    <glyph glyph-name="c" unicode="c" horiz-adv-x="1335" 
d="M72 741q0 222 88.5 392t251 263t374.5 93q222 0 375 -131q16 -16 23 -41l14 4q-4 16 -6 59l-4 149l18 1l19 -592l-37 -1l-6 189q-5 89 -65 165.5t-153 119.5t-194 43q-252 0 -384 -174t-132 -506q0 -367 138 -560.5t401 -193.5q149 0 276 76.5t179 203.5l34 -13
q-58 -148 -192 -225.5t-302 -77.5q-213 0 -375.5 94t-251.5 266t-89 397z" />
    <glyph glyph-name="d" unicode="d" horiz-adv-x="1480" 
d="M342 37h217q331 0 505.5 179.5t174.5 520.5t-174.5 520t-505.5 179h-217v-2q35 -35 35 -97v-1202q0 -61 -35 -96v-2zM37 0v18h72q73 0 90.5 17.5t17.5 91.5v1200q0 77 -18.5 102t-89.5 25h-72v19h577q238 0 420 -91.5t281.5 -259t99.5 -385.5q0 -331 -220.5 -534
t-580.5 -203h-577z" />
    <glyph glyph-name="e" unicode="e" horiz-adv-x="1542" 
d="M246 799v-25q0 -362 154 -558t421 -196q204 0 362 83.5t248 234.5l30 -23q-96 -158 -263 -244.5t-383 -86.5q-214 0 -385 93.5t-269 267t-98 396.5q0 222 94 392t266 263t396 93q178 0 327 -76.5t239 -220t90 -324.5v-10q0 -25 -19 -42t-45 -17h-1165zM247 836l1029 14
q16 0 16 18q0 263 -132 423.5t-349 160.5q-262 0 -406 -157.5t-158 -458.5z" />
    <glyph glyph-name="f" unicode="f" horiz-adv-x="1036" 
d="M37 0v18h72q73 0 90.5 17.5t17.5 91.5v1219q0 74 -17.5 91t-90.5 17h-72v19h852q23 0 33.5 -4t21.5 -15h2l-8 140l18 1l39 -600h-37l-8 144q-4 80 -34.5 139t-81.5 93t-114 49.5t-140 15.5h-248v-2q45 -45 45 -107v-610h82q40 0 71 3.5t67.5 16.5t60 35.5t39.5 63.5
t16 98v123h18v-678h-18v84q0 106 -65 161.5t-189 55.5h-82v-553q0 -73 18 -91t92 -18h134v-18h-584z" />
    <glyph glyph-name="g" unicode="g" horiz-adv-x="1486" 
d="M1307 -82h-19v143q-2 40 -25.5 70.5t-56.5 30.5q-30 0 -59 -29q-68 -72 -163.5 -110.5t-201.5 -38.5q-322 0 -518 208t-196 549q0 222 87.5 392t247 263t367.5 93q222 0 375 -129q14 -12 22 -39l9 2q-7 28 -7 47l-10 200l21 1l32 -631l-34 -2l-9 135q-11 173 -133 276
t-286 103q-245 0 -374.5 -173.5t-129.5 -504.5q0 -367 139.5 -560.5t405.5 -193.5q106 2 199.5 44t154.5 124v269q0 86 -52.5 138t-138.5 52h-237v37h764v-37h-174v-168v-561z" />
    <glyph glyph-name="h" unicode="h" horiz-adv-x="1314" 
d="M37 0v18h72q71 0 89.5 25t18.5 102v1182q0 77 -18.5 102t-89.5 25h-72v19h504v-19h-54q-71 0 -90.5 -25t-19.5 -102v-534h561v534q0 77 -20 102t-91 25h-53v19h506v-19h-74q-71 0 -89.5 -25t-18.5 -102v-1182q0 -77 18.5 -102t89.5 -25h74v-18h-506v18h55q71 0 90 25
t19 102v611h-561v-611q0 -77 19.5 -102t90.5 -25h54v-18h-504z" />
    <glyph glyph-name="i" unicode="i" horiz-adv-x="579" 
d="M37 0v18h72q74 0 91 17t17 90v1223q0 73 -17 89.5t-91 16.5h-72v19h522v-23h-72q-74 0 -92 -17t-18 -90v-1218q0 -73 18 -90t92 -17h72v-18h-522z" />
    </font>
</defs>
</svg>
