<?xml version="1.0" standalone="no"?>
<!DOCTYPE svg PUBLIC "-//W3C//DTD SVG 1.1//EN" "http://www.w3.org/Graphics/SVG/1.1/DTD/svg11.dtd" >
<svg xmlns="http://www.w3.org/2000/svg" xmlns:xlink="http://www.w3.org/1999/xlink" version="1.1">
<metadata>
Created by FontForge 20170731 at Tue Jul 18 18:28:23 2023
 By Aleksey,,,
</metadata>
<defs>
<font id="Doppelganger-Display" horiz-adv-x="1165" >
  <font-face 
    font-family="Display"
    font-weight="400"
    font-stretch="normal"
    units-per-em="2048"
    panose-1="0 0 0 0 0 0 0 0 0 0"
    ascent="1638"
    descent="-410"
    x-height="770"
    cap-height="1372"
    bbox="-266 -643 3112.71 2009"
    underline-thickness="102"
    underline-position="-358"
    unicode-range="U+000D-FB06"
  />
<missing-glyph horiz-adv-x="512" 
 />
    <glyph glyph-name="uni01C9" unicode="lj" horiz-adv-x="618" 
d="M78 1184q-19 16 -43 16v17h151v-1217l-2 -559q0 -59 80 -59h12q11 0 31 4q57 18 92 62t35 101v422l-2 691l-2 34q0 25 -17 42.5t-42 17.5v16h217v-16q-25 0 -42.5 -17.5t-17.5 -42.5v-34l-2 -637v-476q0 -65 -39 -115t-100 -65q-24 -4 -35 -4l-121 2q-61 12 -100 61
t-39 111v12l2 449v1141q0 27 -16 43zM477 936l-59 59l59 60l60 -60z" />
    <glyph glyph-name="uni01CC" unicode="nj" horiz-adv-x="1030" 
d="M31 16q21 0 40 18.5t19 39.5v622q0 24 -16 43q-20 17 -43 17v16h151q0 -19 16 -28.5t31 -0.5q60 29 117 29q91 0 162 -59t86 -148q3 -4 3.5 -91t0 -197t0.5 -216v-61l-2 -559q0 -59 80 -59h12q11 0 31 4q57 18 92 62t35 101v422l-2 691l-2 34q0 25 -17.5 42.5t-42.5 17.5
v16h217v-16q-25 0 -42 -17.5t-17 -42.5v-34l-2 -637v-476q0 -65 -39 -115t-100 -65q-24 -4 -35 -4l-121 2q-61 12 -100 61t-39 111v12l4 998v82q0 65 -48 94t-116 29q-67 0 -112.5 -30t-45.5 -93l-2 -43v-29l-2 -483v-6q3 -23 20 -38.5t40 -15.5v-16h-211v16zM829 995l60 60
l59 -60l-59 -59z" />
    <glyph glyph-name="f_f" unicode="ff" horiz-adv-x="894" 
d="M20 750v16h37q9 0 17 7.5t8 17.5v127q0 64 39 113.5t100 64.5q24 4 35 4h88q73 0 127 -51q24 -27 41 -60v37q0 64 39.5 114.5t99.5 65.5q10 2 35 2h86q77 0 130.5 -53t53.5 -131h-14v2q0 68 -50 117t-118 49h-12q-13 0 -33 -4q-55 -15 -90 -60.5t-35 -103.5v-231
q0 -11 7.5 -19t17.5 -8h233v-16h-233q-9 0 -17 -7.5t-8 -17.5v-18l2 -504v-127q0 -22 19 -41q16 -19 41 -19v-16h-215v16q25 0 42 17.5t17 42.5v35l2 616q0 9 -8 16t-17 7h-286q-11 0 -19 -7.5t-8 -17.5v-18l2 -504v-92l2 -35q0 -24 17 -41q16 -19 41 -19h2v-16h-218v16
q25 0 42.5 17.5t17.5 42.5v35l2 616q0 9 -8 16t-17 7h-37zM174 793q0 -11 8 -19t19 -8h286q9 0 17 7.5t8 17.5v135q-3 48 -37 94q-19 29 -56.5 46t-74.5 17q-68 0 -119 -50.5t-51 -119.5v-120z" />
    <glyph glyph-name="fi" unicode="fi" horiz-adv-x="655" 
d="M57 758h-37v14h37q23 0 27 25v237q0 74 50.5 128.5t123.5 54.5h88q67 0 118.5 -44t63.5 -112q3 -15 17 -29l37 -37l-60 -59l-59 59l33 31q21 25 12 53q-10 44 -45.5 76.5t-79.5 40.5q-15 4 -41 4t-41 -4q-54 -15 -89.5 -61.5t-35.5 -104.5v-231q0 -11 7.5 -19t17.5 -8
h424v-16q-24 -2 -40 -19t-16 -41v-624q0 -23 16.5 -39.5t39.5 -16.5v-16h-205v16q25 0 42 17.5t17 42.5v620q0 28 -18 43q-19 19 -41 19h-219q-10 0 -17.5 -8t-7.5 -19v-29l2 -497v-129q0 -25 19 -41q19 -19 41 -19v-16h-218v16q25 0 42.5 17.5t17.5 42.5v37l4 620
q-2 10 -9.5 17.5t-17.5 7.5z" />
    <glyph glyph-name="fl" unicode="fl" horiz-adv-x="602" 
d="M20 16q25 0 42.5 17.5t17.5 42.5v35l4 622q-2 9 -9.5 16t-17.5 7h-37v16h37q23 0 27 25v235q0 65 38.5 115t100.5 67q15 3 35 3h88q58 0 114 -41t56 -97v-1007q0 -23 16 -39.5t39 -16.5v-16h-206v16q25 0 42 17.5t17 42.5v1065q0 30 -23.5 45.5t-56.5 15.5q-27 0 -43 -8
q-54 -14 -89.5 -60t-35.5 -104v-231q0 -11 7.5 -19t17.5 -8h80v-16h-80q-11 0 -18 -7t-7 -18v-29l2 -497v-129q0 -25 19 -41q16 -19 41 -19v-16h-218v16z" />
    <glyph glyph-name="f_f_i" unicode="ffi" horiz-adv-x="1081" 
d="M20 0v16q25 0 42.5 17.5t17.5 42.5v35l2 618q0 9 -8 16t-17 7h-37v16h37q9 0 17 7.5t8 17.5v125q0 65 39 114t100 64q24 4 35 4h88q106 0 168 -111v37q0 64 39.5 114.5t99.5 65.5q20 4 35 4h86q64 0 118.5 -44.5t63.5 -106.5q3 -17 19 -37l35 -33l-60 -59l-59 59l26 25
q31 31 15 71q-10 27 -25 45l-12 13q-35 35 -82 47q-39 7 -82 -2q-54 -12 -89.5 -58.5t-35.5 -105.5v-231q0 -10 8 -17.5t17 -7.5h422v-16q-23 -1 -39.5 -19t-16.5 -41v-620q0 -25 17 -39q17 -17 39 -17v-16h-205v16q25 0 42 17.5t17 42.5v616q0 24 -16 43q-17 17 -43 17
h-217q-9 0 -17 -7.5t-8 -17.5v-29l2 -495v-127q0 -23 18.5 -41.5t41.5 -18.5v-16h-215v16q25 0 42 17.5t17 42.5v35l2 618q0 9 -8 16t-17 7h-286q-11 0 -19 -7.5t-8 -17.5v-18l2 -506v-92l2 -35q0 -23 17.5 -41.5t40.5 -18.5h2v-16h-218zM174 915v-122q0 -9 8.5 -17t18.5 -8
h286q9 0 17 7.5t8 17.5v131q-3 67 -51.5 113t-116.5 46t-119 -50.5t-51 -117.5z" />
    <glyph glyph-name="f_f_l" unicode="ffl" horiz-adv-x="1028" 
d="M20 768h37q9 0 17 7t8 16v127q0 64 39 113.5t100 64.5q24 4 35 4h88q114 0 168 -111v37q0 64 39.5 114.5t99.5 65.5q10 2 35 2h107q60 0 104.5 -49.5t44.5 -109.5v-977q0 -26 16 -39q17 -17 39 -17v-16h-204v16q25 0 42 17.5t17 42.5v1059q0 26 -18 41q-7 7 -13 10
q-12 6 -59 6q-13 0 -33 -4q-55 -15 -90 -60.5t-35 -103.5v-231q0 -10 8 -17.5t17 -7.5h80v-16h-80q-9 0 -17 -7.5t-8 -17.5v-29l2 -495v-127q0 -22 19 -41q16 -19 41 -19v-16h-215v16q25 0 42 17.5t17 42.5v35l2 616q0 10 -8 17.5t-17 7.5h-286q-11 0 -19 -7.5t-8 -17.5v-18
l2 -506v-92l2 -35q0 -24 17 -41q16 -19 41 -19h2v-16h-218v16q25 0 42.5 17.5t17.5 42.5v35l2 618q0 9 -8 16t-17 7h-37v16zM174 915v-122q0 -10 8 -17.5t19 -7.5h286q9 0 17 7t8 16v133q-3 56 -37 96q-19 29 -56.5 46t-74.5 17h-12l-31 -6q-56 -14 -91.5 -59t-35.5 -103z
" />
    <glyph glyph-name="s_t" unicode="st" horiz-adv-x="1275" 
d="M49 483q-17 56 2 119q27 79 101 123.5t161 44.5h2q58 0 101 -14q17 -4 28.5 8t6.5 27q-11 46 -11 75q0 118 87 196t206 66q89 -9 154.5 -72.5t77.5 -152.5q6 -46 -4 -98q-5 -17 6 -32t30 -15h58v-15h-58q-28 0 -46.5 -19.5t-18.5 -47.5v-62l-2 -477q0 -68 52 -112.5
t120 -44.5q66 0 113 46t47 113v2h14v-14q-6 -71 -58 -119.5t-122 -48.5h-86q-11 0 -35 4q-59 14 -97 62.5t-38 111.5v4l-2 498v18q52 34 83 90.5t31 118.5q0 111 -83 185t-195 61q-85 -9 -146.5 -69.5t-70.5 -145.5q-9 -67 13 -117.5t73 -101.5q21 -18 47 -31v-53h-19
q-20 65 -80.5 108.5t-130.5 49.5q-64 8 -125 -12t-102 -64q-36 -40 -45 -84q-8 -42 12 -90q34 -75 138 -109q15 -4 48 -16t52 -17l74 -28q41 -21 67.5 -43t46.5 -58q30 -61 15 -118q-11 -54 -58 -90.5t-106 -49.5q-28 -4 -47 -4h-6q-100 0 -162 62q-10 10 -23.5 4.5
t-13.5 -19.5v-41h-16v172h16q0 -59 47 -106q3 -3 10.5 -8t10.5 -8q53 -41 131 -41h6q75 0 131 53q35 35 41.5 79.5t-27.5 84.5q-26 33 -69 49l-48 14q-8 3 -24.5 8.5t-24.5 8.5q-92 33 -98 36q-35 12 -78 43l-22 21q-48 48 -62 102z" />
    <glyph glyph-name="A_A" unicode="AA" horiz-adv-x="2156" 
d="M174 0h-174v16q35 0 64.5 21t41.5 55l365 1041q2 6 2 16q0 21 -14 36t-35 15l61 172h203v-16h-26l423 -1231q3 -9 12.5 -9t12.5 9l354 1008q2 6 2 16q0 21 -14 36t-35 15l62 172h202v-16h-26l446 -1301q6 -18 23 -28q15 -11 33 -11v-16h-175v16q13 0 21.5 11.5t5.5 23.5
l-190 549l-23 70q-11 15 -24 12q-62 -9 -104.5 -56t-43.5 -110q-2 -69 -42 -122t-105 -68q-66 -13 -123 14.5t-86 81.5q-6 12 -18.5 11.5t-18.5 -11.5l-117 -332q-7 -26 0 -49l14 -41h-94l-145 420q-4 13 -17.5 13.5t-19.5 -11.5q-29 -54 -86 -81.5t-123 -12.5
q-64 13 -103.5 66t-41.5 122q-1 63 -43.5 110t-104.5 56q-20 3 -26 -16l-201 -576q-4 -12 -4 -18q0 -23 16 -39.5t39 -16.5v-16zM1542 1311l-280 -799v-12q5 -68 55 -115t117 -47q74 0 124 49t50 123q0 68 43 120t108 66q9 2 14.5 11t2.5 18l-201 586q-5 12 -17 12t-16 -12z
M346 727q-4 -10 0.5 -19.5t15.5 -11.5q65 -14 107.5 -66t42.5 -120q0 -74 49.5 -123t122.5 -49q69 0 119 47t55 115q0 8 -4 20l-272 791q-3 12 -15.5 12t-15.5 -12z" />
    <glyph glyph-name="A_E" unicode="AE" horiz-adv-x="1374" 
d="M0 16q35 0 64.5 21t41.5 55l365 1041q8 25 -6.5 45t-40.5 20l61 174h873v-74h-17q0 25 -16 41.5t-39 16.5h-573q-19 0 -30 -15t-5 -32l266 -772q8 -25 29 -40.5t49 -15.5h88q34 0 56 23t22 57h16v-174h-16q0 32 -23 55t-55 23h-102q-15 0 -23.5 -11.5t-3.5 -25.5
l127 -373q14 -39 55 -39h123q23 0 39 16.5t16 39.5v2h17v-74h-369v16q14 0 22.5 11.5t4.5 23.5l-127 369q-5 12 -18 13t-19 -11q-30 -54 -87 -81.5t-122 -12.5q-63 13 -103 66t-42 120q-1 64 -43.5 111.5t-104.5 56.5q-18 3 -26 -16l-201 -576q-9 -28 7 -51t44 -23v-16h-174
v16zM346 725q-4 -9 0.5 -18.5t15.5 -12.5q65 -12 107.5 -63.5t42.5 -120.5q0 -74 50 -123t124 -49q67 0 117 47t55 115q0 8 -4 20l-272 791q-4 11 -16 11t-15 -11z" />
    <glyph glyph-name="A_V" unicode="AV" horiz-adv-x="1691" 
d="M0 0v16q35 0 64.5 21t41.5 55l365 1041q9 25 -6 46t-41 21l61 172h215v-16q-14 0 -21 -11t-3 -24l63 -188l64 -181v-2l33 -94v-4l274 -791q3 -11 15.5 -11t15.5 11l428 1223q4 12 4 16q0 23 -16 39.5t-39 16.5v16h174v-16q-37 0 -67 -20.5t-40 -55.5l-420 -1198
q-9 -25 6 -45.5t41 -20.5l-6 -16h-215v16q13 0 21.5 11.5t3.5 23.5l-127 369q-4 13 -17.5 13.5t-19.5 -11.5q-30 -54 -87 -81.5t-122 -12.5q-64 13 -103.5 66t-41.5 122q-1 63 -43.5 110t-104.5 56q-20 3 -26 -16l-201 -576q-9 -28 7 -51t44 -23v-16h-174zM346 727
q-4 -10 0.5 -19.5t15.5 -11.5q65 -14 107.5 -66t42.5 -120q0 -74 49.5 -123t122.5 -49q69 0 119 47t55 115q0 8 -4 20l-272 791q-3 12 -15.5 12t-15.5 -12z" />
    <glyph glyph-name="M_B" unicode="MB" horiz-adv-x="2301" 
d="M0 0v16q28 0 50 17t30 43l293 1071q0 1 1 4.5t1 5.5q0 17 -12 29t-31 14l47 172h160v-16h-21l205 -764q5 -12 17.5 -12t15.5 12l151 555q0 1 1 4.5t1 5.5q0 17 -12 29t-31 14l49 172h639q161 0 276.5 -115t115.5 -276q0 -71 -29 -147q-8 -18 1.5 -35.5t29.5 -20.5
q134 -19 225 -116q116 -116 113 -277q-3 -160 -118.5 -272.5t-275.5 -112.5h-583v16q12 0 18.5 9t3.5 20l-336 1247q-3 14 -17 14t-17 -14l-207 -751q-6 -31 0 -62l116 -432q3 -13 15 -22t26 -9v-16h-137v16q12 0 19 9t4 20l-336 1247q-3 14 -17 14t-18 -14l-334 -1218
q-2 -4 -2 -13q0 -19 13.5 -32t33.5 -13v-16h-137zM1298 582q-13 -3 -21 -15t-5 -26l133 -494q3 -13 15 -22t26 -9h446q22 0 58 4q28 6 55 19q79 45 127.5 140.5t48.5 213.5q0 57 -17 120t-47.5 120.5t-82.5 95t-115 37.5q-35 3 -55 -23q-55 -71 -136 -112t-174 -41h-182
q-41 0 -74 -8zM1090 1356q-15 0 -24 -12t-5 -27l190 -696q3 -12 15.5 -20t25.5 -5q33 8 80 8h182q72 0 129 34t91.5 89t52.5 120.5t18 133.5q0 113 -46 206.5t-122 139.5q-29 20 -71 27q-18 2 -52 2h-464z" />
    <glyph glyph-name="M_E" unicode="ME" horiz-adv-x="1710" 
d="M0 0v16q28 0 50 17t30 43l293 1071v10q0 17 -11 29.5t-30 13.5l47 172h160v-16h-21l205 -764q5 -12 17.5 -12t15.5 12l151 555q0 1 1 4.5t1 5.5q0 17 -12 29t-31 14l49 172h779v-72h-15q0 23 -17 39.5t-40 16.5h-528q-15 0 -24.5 -12t-6.5 -27l176 -655q8 -25 28 -40.5
t46 -15.5h102q34 0 56 23t22 57h16v-174h-16q0 32 -23 55t-55 23h-108q-19 0 -29.5 -14t-5.5 -33l133 -496q3 -13 15 -22t26 -9h176q23 0 40 16.5t17 39.5v2h15v-74h-385v16q12 0 18.5 9t3.5 20l-336 1247q-5 14 -18 14t-16 -14l-207 -751q-6 -31 0 -62l116 -432
q3 -14 14.5 -22.5t26.5 -8.5v-16h-137v16q12 0 19 9t4 20l-336 1247q-3 14 -17 14t-18 -14l-334 -1218q-2 -4 -2 -13q0 -19 13.5 -32t33.5 -13v-16h-137z" />
    <glyph glyph-name="M_D" unicode="MD" horiz-adv-x="2342" 
d="M0 0v16q28 0 50 17t30 43l293 1071q5 21 -7.5 37t-33.5 16l47 172h160v-16h-21l207 -764q3 -12 15.5 -12t15.5 12l151 555q6 20 -6.5 36.5t-34.5 16.5l49 172h715q178 -8 329 -102t239 -249.5t88 -334.5t-88 -334.5t-239 -249.5t-329 -102h-319v16q10 0 16.5 9t3.5 20
l-336 1247q-3 14 -17 14t-17 -14l-207 -751q-6 -31 0 -62l116 -432q3 -13 15 -22t26 -9v-16h-137v16q12 0 19 9t4 20l-336 1247q-3 14 -17 14t-18 -14l-334 -1218q-6 -22 8 -40t37 -18v-16h-137zM1116 1356q-25 0 -39 -18.5t-8 -41.5l336 -1249q5 -14 16.5 -22.5t24.5 -8.5
h172q153 5 283 97t206 244.5t76 328.5q0 177 -76 330t-207 244.5t-286 95.5h-498z" />
    <glyph glyph-name="F_F" unicode="FF" horiz-adv-x="1433" 
d="M242 0h-207v16q25 0 42 17.5t17 42.5v1220q0 28 -18 43q-17 17 -41 17v16h1382v-72h-14q0 23 -17 39.5t-40 16.5h-447q-25 0 -42 -17.5t-17 -42.5v-612q0 -32 23 -55t55 -23h219q31 0 55.5 24.5t24.5 55.5h14v-174h-14q0 32 -24 56t-56 24h-219q-32 0 -55 -23t-23 -57
v-440q0 -23 16 -39.5t39 -16.5v-16h-205v16q25 0 42.5 17.5t17.5 42.5q0 204 -1 612t-1 612q0 16 -11 31q-1 1 -3 4t-3 4q-17 17 -41 17h-444q-26 0 -43 -17.5t-17 -42.5v-612q0 -32 23 -55t55 -23h217q32 0 56 24t24 56h17v-174h-17q0 33 -23.5 56.5t-56.5 23.5h-217
q-32 0 -55 -23t-23 -57v-440q0 -23 16.5 -39.5t39.5 -16.5v-16z" />
    <glyph glyph-name="F_I" unicode="FI" horiz-adv-x="927" 
d="M242 0h-207v16q25 0 42 17.5t17 42.5v1220q0 28 -18 43q-17 17 -41 17v16h858v-16q-23 -2 -39 -18.5t-16 -41.5v-1224q0 -26 16 -39q17 -17 39 -17v-16h-205v16q25 0 42.5 17.5t17.5 42.5v1220q0 27 -19 43q-17 17 -41 17h-442q-26 0 -43 -17.5t-17 -42.5v-612
q0 -32 23 -55t55 -23h217q32 0 56 24t24 56h17v-174h-17q0 33 -23.5 56.5t-56.5 23.5h-217q-32 0 -55 -23t-23 -57v-440q0 -23 16.5 -39.5t39.5 -16.5v-16z" />
    <glyph glyph-name="F_L" unicode="FL" horiz-adv-x="1406" 
d="M35 1372h858v-16q-25 0 -42 -17.5t-17 -42.5v-1220q0 -25 17 -42.5t42 -17.5h442q23 0 39.5 16.5t16.5 39.5v2h16v-74h-725v16q25 0 42 17.5t17 42.5v1220q0 25 -16 41q-16 19 -43 19h-438q-25 0 -42.5 -17.5t-17.5 -42.5v-612q0 -32 24 -55t56 -23h217q32 0 56 24t24 56
h14v-174h-14q0 32 -24 55t-56 23h-217q-32 0 -56 -23t-24 -55v-440q0 -23 17 -39.5t39 -16.5v-16h-205v16q25 0 42 17.5t17 42.5v1220q0 26 -18 41q-16 19 -41 19v16z" />
    <glyph glyph-name="H_E" unicode="HE" horiz-adv-x="1292" 
d="M35 16q25 0 42 17.5t17 42.5v1220q0 25 -17 42.5t-42 17.5v16h207v-16q-25 -1 -41.5 -19t-16.5 -41v-647q0 -19 13 -32t32 -13h338q17 0 30 12t13 29v651q0 17 -4 25q-12 35 -53 35h-2v16h725v-72h-14q0 23 -17.5 39.5t-40.5 16.5h-446q-23 -1 -39.5 -19t-16.5 -41v-612
q2 -32 25 -55t55 -23h213q33 0 56.5 23.5t23.5 56.5h17v-174h-17q0 33 -23.5 56.5t-56.5 23.5h-213q-32 0 -55 -23t-25 -55v-440q2 -25 18.5 -41.5t41.5 -16.5h442q24 0 41 17t17 41h14v-74h-725v16q25 0 42 17.5t17 42.5v471q0 17 -13 29t-30 12h-338q-19 0 -32 -12
t-13 -31v-473q0 -25 17 -39q17 -17 41 -17v-16h-207v16z" />
    <glyph glyph-name="L_A" unicode="LA" horiz-adv-x="1810" 
d="M35 16q25 0 42 17.5t17 42.5v1220q0 26 -18 41q-16 19 -41 19v16h209v-16q-25 0 -42.5 -17.5t-17.5 -42.5v-1220q0 -25 17.5 -42.5t42.5 -17.5h401q64 0 98 56v2q2 3 5.5 9t5.5 9l362 1041q9 25 -6 45t-41 20l61 174h205v-16h-26l446 -1301q14 -39 55 -39v-16h-174v16
q13 0 21.5 11.5t3.5 23.5l-127 369q-5 12 -18 13t-19 -11q-29 -54 -86 -81.5t-121 -12.5q-65 13 -105 66t-42 120q-1 64 -43.5 111.5t-104.5 56.5q-16 3 -24 -16l-203 -576q-9 -28 7.5 -51t45.5 -23v-16h-786v16zM991 725q-3 -9 2.5 -18.5t14.5 -12.5q65 -12 108 -64
t43 -120q0 -75 49 -123.5t123 -48.5q67 0 117 47t55 115q0 14 -4 20l-272 791q-3 11 -15 11t-16 -11z" />
    <glyph glyph-name="M_P" unicode="MP" horiz-adv-x="2009" 
d="M0 0v16q28 0 50 17t30 43l293 1071q5 21 -7.5 37t-33.5 16l47 172h160v-16h-21l207 -764q3 -12 15.5 -12t15.5 12l151 555q6 20 -6.5 36.5t-34.5 16.5l49 172h644q160 0 275 -113t118 -274q1 -164 -118.5 -281.5t-285.5 -117.5h-125q-39 0 -88 -11q-28 -6 -42.5 -30.5
t-6.5 -52.5l119 -445q5 -14 16.5 -22.5t24.5 -8.5v-16h-135v16q10 0 16.5 9t3.5 20l-336 1247q-3 14 -17 14t-17 -14l-207 -751q-6 -31 0 -62l116 -432q3 -13 15 -22t26 -9v-16h-137v16q12 0 19 9t4 20l-336 1247q-3 14 -17 14t-18 -14l-334 -1218q-6 -22 8 -40t37 -18v-16
h-137zM1106 1356q-20 0 -32 -15t-7 -34l180 -670q6 -26 29.5 -39.5t50.5 -7.5q47 12 96 12h136q44 0 92 10q89 40 143.5 140.5t54.5 226.5q0 128 -56 229t-146 138q-36 10 -88 10h-453z" />
    <glyph glyph-name="N_K" unicode="NK" horiz-adv-x="1751" 
d="M35 1374h190l400 -1253q3 -8 12 -7.5t12 9.5v1175q0 26 -18 43t-43 17v16h207v-16q-24 -2 -40 -19t-16 -41v-507q0 -40 28.5 -68.5t68.5 -28.5h186q70 0 121 51t51 121v355q0 78 54 132t132 54h86q54 0 98 -27.5t68 -72.5q17 -32 49.5 -51t69.5 -19v-16h-207v16
q41 0 56.5 37.5t-13.5 68.5q-53 50 -121 50h-10q-7 -1 -18.5 -3.5t-14.5 -3.5q-56 -15 -91.5 -60.5t-35.5 -104.5v-355q0 -76 -52.5 -130t-127.5 -56q204 -45 351 -206.5t178 -369.5q6 -38 36.5 -63t69.5 -25v-16h-207v16q38 0 64 30.5t20 68.5q-42 243 -227.5 404
t-431.5 161h-133q-40 0 -68.5 -28t-28.5 -68v-512q0 -23 16.5 -39.5t39.5 -16.5v-16h-226l-399 1253q-2 6 -8 7.5t-11.5 -1.5t-5.5 -10v-1138q0 -35 29 -68q30 -27 68 -27v-16h-207v16q39 0 67.5 28t28.5 67v1153q0 40 -28 67t-68 27v16z" />
    <glyph glyph-name="N_T" unicode="NT" horiz-adv-x="1372" 
d="M35 1356v16h190l400 -1251q3 -9 12.5 -7t9.5 11v1137q0 39 -27.5 66.5t-66.5 27.5v16h819v-74h-16q0 25 -16.5 41.5t-41.5 16.5h-184q-23 -2 -39 -18.5t-16 -41.5v-1224q0 -26 16 -39q17 -17 39 -17v-16h-207v16q25 0 42.5 17.5t17.5 42.5v1220q0 26 -17 43t-43 17h-149
q-38 0 -66 -28t-28 -66v-1151q0 -39 28 -67t68 -28v-16h-193l-397 1251q-2 6 -8 7.5t-11.5 -1.5t-5.5 -10v-1136q0 -38 28.5 -66.5t68.5 -28.5v-16h-207v16q39 0 67.5 28t28.5 67v1151q0 40 -28 67t-68 27z" />
    <glyph glyph-name="O_C" unicode="OC" horiz-adv-x="2539" 
d="M268 174q-138 139 -187 325t0 371.5t187 323.5q102 104 235 157.5t275 53.5q135 0 262.5 -49t229.5 -144q97 91 221 142.5t260 52.5h16v-125h-16q0 66 -82 66q-227 0 -389 -146l8 -8q129 -129 180 -300t17.5 -345.5t-144.5 -315.5q95 -91 215 -145t250 -63q127 -9 242 30
t201 121q17 17 20 21q169 178 152 421v7q-1 26 -20 42.5t-46 16.5v16h127v-16q0 -146 -56.5 -278t-156.5 -232q-110 -110 -260 -167t-315 -42q-240 20 -424 193q-103 -95 -230.5 -145t-261.5 -50q-142 0 -274.5 54t-235.5 157zM279 1184q-118 -118 -151.5 -285t23.5 -340
t193 -309q110 -110 247 -167.5t277 -57.5q231 0 389 143q-193 187 -217 450q-12 145 29.5 277.5t126.5 239.5q-108 103 -242 157t-268 54q-245 0 -407 -162zM1208 1124q-123 -168 -108 -393q9 -136 69 -261.5t160 -223.5q89 122 106.5 277.5t-40.5 313.5t-183 283z" />
    <glyph glyph-name="O_G" unicode="OG" horiz-adv-x="2545" 
d="M268 170q-139 139 -188 325t0.5 371.5t187.5 323.5q104 104 236.5 157.5t273.5 53.5q136 0 264.5 -50t229.5 -147q0 1 14 12.5t29 24.5t16 14q148 112 336 140q3 0 35 3t60 5t28 0v-125h-16q0 25 -16.5 42t-41.5 19l-39 4q-232 0 -393 -149l4 -4q128 -128 179 -298
t18.5 -344t-142.5 -315q97 -92 218 -148t251 -65q11 0 17 -2q134 -3 242 37q181 69 292 246.5t111 378.5q0 69 -50.5 119.5t-119.5 50.5q-47 0 -88.5 -25.5t-63.5 -66.5q-2 -2 -2 -6q-6 -11 -9 -24.5t-4.5 -23t-2.5 -26t-2 -25.5q-10 -56 -43 -92q-4 -5 -8 -9.5t-7.5 -8
t-9.5 -7.5t-8.5 -6.5t-10 -6.5t-9.5 -5.5t-10.5 -6t-10.5 -5.5q-59 -40 -59 -109h-17v207h17q0 -28 19.5 -46.5t45.5 -18.5q17 0 29 6q53 42 66 114q1 8 3 27.5t4.5 34t6.5 27.5q21 48 60.5 80t88.5 36q8 2 25 2h14q68 -7 114.5 -53.5t55.5 -114.5q5 -50 -6 -125
q-31 -197 -158 -352q-3 -3 -7.5 -8.5t-6.5 -7.5l-2 -2q-40 -44 -57 -58l-8 -8q-7 -5 -20.5 -16.5t-20.5 -16.5q-100 -75 -223 -112.5t-250 -30.5q-253 13 -439 180q-3 2 -9 7.5t-9 7.5q-101 -97 -229.5 -147t-264.5 -50q-141 0 -273.5 53.5t-236.5 157.5zM279 1180
q-118 -118 -151.5 -285.5t23.5 -340.5t193 -308q111 -111 248 -169.5t276 -58.5q235 0 394 150q-100 95 -156 223q-78 179 -53.5 375t141.5 352q4 4 6 8q-108 105 -242.5 160t-271.5 55q-246 0 -407 -161zM1212 1114q-119 -162 -104 -387q9 -134 67.5 -258t155.5 -223
q88 122 104.5 277t-41.5 311.5t-182 279.5z" />
    <glyph glyph-name="O_O" unicode="OO" horiz-adv-x="2543" 
d="M268 170q-138 139 -187.5 325t-0.5 372t188 325q104 104 236.5 157.5t273.5 53.5q135 0 263 -49.5t231 -145.5q103 96 230.5 145.5t262.5 49.5q141 0 273.5 -53.5t236.5 -157.5q139 -139 188 -325t-0.5 -372t-187.5 -325q-104 -104 -236.5 -157.5t-273.5 -53.5
q-135 0 -262.5 49.5t-230.5 145.5q-103 -96 -231 -145.5t-263 -49.5q-141 0 -273.5 53.5t-236.5 157.5zM281 1180q-119 -118 -152.5 -285.5t23 -340.5t192.5 -308q111 -111 249 -169.5t277 -58.5q232 0 390 146l-7 6q-129 129 -180.5 300.5t-18 345.5t145.5 314
q-108 104 -241.5 158.5t-268.5 54.5q-246 0 -409 -163zM2200 1116q-110 110 -248.5 168.5t-278.5 58.5q-234 0 -391 -145q4 -2 8 -6q129 -129 180.5 -300.5t18 -346t-145.5 -314.5q111 -104 244.5 -158.5t267.5 -54.5q246 0 408 162q118 119 151.5 287t-23 341t-191.5 308z
M1212 1118q-90 -121 -107.5 -276.5t41 -313.5t183.5 -282l2 -2q89 121 106.5 276t-40.5 313t-183 283z" />
    <glyph glyph-name="T_E" unicode="TE" horiz-adv-x="1388" 
d="M0 1298v74h1372v-72h-16q0 23 -16.5 39.5t-41.5 16.5h-442q-25 0 -42 -17.5t-17 -42.5v-610q0 -32 24 -56t56 -24h215q32 0 55.5 24t23.5 56h15v-174h-15q0 32 -23.5 56t-55.5 24h-215q-32 0 -56 -24t-24 -56v-436q0 -25 17 -42.5t42 -17.5h442q25 0 41.5 16.5t16.5 39.5
v2h16v-74h-725v16q25 0 42.5 17.5t17.5 42.5v1220q0 27 -19 43q-17 17 -41 17h-182q-23 -2 -39 -18.5t-16 -41.5v-1224q0 -26 16 -39q17 -17 39 -17v-16h-207v16q25 0 42 17.5t17 42.5v1220q0 26 -16.5 43t-42.5 17h-184q-25 0 -41.5 -16.5t-16.5 -41.5h-16z" />
    <glyph glyph-name="T_H_E" unicode="THE" horiz-adv-x="1906" 
d="M0 1372h854v-16q-23 -2 -39 -18.5t-16 -41.5v-647q0 -19 13 -32t32 -13h336q19 0 32 13t13 32v647q0 27 -19 43q-17 17 -41 17v16h725v-72h-16q0 23 -16 39.5t-39 16.5h-443q-24 0 -41.5 -18t-17.5 -42v-610q0 -32 23 -56t55 -24h215q33 0 56.5 23.5t23.5 56.5h16v-174
h-16q0 33 -23.5 56.5t-56.5 23.5h-215q-32 0 -55 -24t-23 -56v-436q0 -25 16.5 -42.5t42.5 -17.5h443q23 0 39 16.5t16 39.5v2h16v-74h-725v16q25 0 42.5 17.5t17.5 42.5v469q0 19 -13 31t-32 12h-336q-19 0 -32 -12t-13 -31v-473q0 -26 16 -39q17 -17 39 -17v-16h-207v16
q25 0 42.5 17.5t17.5 42.5v1220q0 26 -17 43t-43 17h-182q-23 -2 -39 -18.5t-16 -41.5v-1224q0 -26 16 -39q17 -17 39 -17v-16h-207v16q25 0 42 17.5t17 42.5v1220q0 26 -16.5 43t-42.5 17h-184q-25 0 -41.5 -16.5t-16.5 -41.5h-16v74z" />
    <glyph glyph-name="T_T" unicode="TT" horiz-adv-x="1429" 
d="M16 1298h-16v74h1430v-74h-15q0 25 -17 41.5t-42 16.5h-185q-23 -2 -39 -18.5t-16 -41.5v-1224q0 -25 17 -39q17 -17 38 -17v-16h-204v16q25 0 42 17.5t17 42.5v1220q0 25 -17 42.5t-42 17.5h-187q-23 0 -39.5 -15t-17.5 -38v-5h-16v5q-1 23 -18 38t-40 15h-184
q-23 -2 -39 -18.5t-16 -41.5v-1224q0 -26 16 -39q17 -17 39 -17v-16h-207v16q25 0 42 17.5t17 42.5v1220q0 26 -16.5 43t-42.5 17h-184q-25 0 -41.5 -16.5t-16.5 -41.5z" />
    <glyph glyph-name="T_R" unicode="TR" horiz-adv-x="2093" 
d="M0 1298v74h1272q160 0 275 -113t118 -274q1 -107 -53.5 -198.5t-147.5 -145.5q-8 -5 -6 -15t12 -10q199 -29 342 -171t177 -341q8 -38 37 -63t67 -25v-16h-207v16q40 0 65.5 30.5t18.5 70.5q-40 208 -202 347t-373 142q-5 0 -21 -4q-56 -16 -112 -16h-125
q-99 0 -183.5 -47.5t-136.5 -128.5q-18 -30 -18 -68v-270q0 -26 16 -39q14 -17 39 -17v-16h-207v16q25 0 42.5 17.5t17.5 42.5v1220q0 26 -17 43q-20 17 -43 17h-182q-23 -2 -39 -18.5t-16 -41.5v-1224q0 -23 16 -39.5t39 -16.5v-16h-207v16q25 0 42 17.5t17 42.5v1220
q0 26 -16.5 43t-42.5 17h-184q-25 0 -41.5 -16.5t-16.5 -41.5h-16zM799 1296v-788q0 -15 10.5 -25t24.5 -10q12 0 22 10q116 119 281 119h135q44 0 92 10q5 2 16 9q81 44 132 141.5t51 216.5q0 128 -56.5 229t-146.5 138q-36 10 -88 10h-418q-23 -2 -39 -18.5t-16 -41.5z
" />
    <glyph glyph-name="T_W" unicode="TW" horiz-adv-x="2103" 
d="M16 1298h-16v74h793v-16q-10 0 -17.5 -9t-5.5 -20l338 -1247q3 -14 16.5 -14t18.5 14l205 751q10 33 0 62l-115 432q-5 14 -16.5 22.5t-24.5 8.5v16h135v-16q-10 0 -16.5 -9t-3.5 -20l333 -1247q4 -14 18 -14t17 14l336 1218q0 2 1 6.5t1 6.5q0 19 -13.5 32t-33.5 13v16
h137v-16q-28 0 -50 -17t-30 -43l-335 -1228q-6 -19 6 -35.5t32 -16.5l-4 -16h-174v16q13 0 21.5 10.5t5.5 24.5l-197 729q-3 12 -15 12t-15 -12l-195 -712q-6 -19 6.5 -35.5t32.5 -16.5l-4 -16h-174v16q13 0 21 10.5t5 24.5l-344 1274q0 14 -16 22.5t-31 8.5h-184
q-23 -2 -39 -18.5t-16 -41.5v-1224q0 -23 16 -39.5t39 -16.5v-16h-207v16q25 0 42 17.5t17 42.5v1220q0 26 -16.5 43t-42.5 17h-184q-25 0 -41.5 -16.5t-16.5 -41.5z" />
    <glyph glyph-name="T_Y" unicode="TY" horiz-adv-x="1363" 
d="M0 1298v74h819v-16q-14 0 -21 -11t-3 -24q27 -78 80.5 -234.5t80.5 -234.5l50 -143q4 -12 17 -12.5t17 10.5l201 577q4 12 4 16q0 23 -16 39.5t-39 16.5v16h174v-16q-37 0 -67 -20.5t-40 -55.5l-227 -645q-8 -21 -8 -51v-512q0 -26 16 -39q17 -17 39 -17v-16h-207v16
q26 0 43 17.5t17 42.5v547q0 25 -6 49l-224 645q-6 19 -20 29q-17 10 -35 10h-180q-23 -2 -39 -18.5t-16 -41.5v-1224q0 -23 16 -39.5t39 -16.5v-16h-207v16q25 0 42 17.5t17 42.5v1220q0 26 -16.5 43t-42.5 17h-184q-25 0 -41.5 -16.5t-16.5 -41.5h-16z" />
    <glyph glyph-name="T_h" unicode="Th" horiz-adv-x="1296" 
d="M0 1372h858v-16q-20 0 -39.5 -20.5t-19.5 -39.5v-34l-2 -492q0 -17 14 -26t29 -1q56 29 116 29q102 0 177 -74t75 -176v-4l-2 -442q0 -24 17 -41q16 -19 43 -19v-16h-62l-149 2v14q23 0 41 18.5t18 41.5v35l2 442q-8 87 -53.5 145t-106.5 58q-68 0 -109 -60.5t-52 -136.5
l-2 -483q0 -25 17 -42.5t42 -17.5v-16h-211v16q21 0 40 19t19 41v35l5 516l2 669q0 26 -17 43t-43 17h-182q-23 -2 -39 -18.5t-16 -41.5v-1224q0 -26 16 -39q17 -17 39 -17v-16h-207v16q25 0 42 17.5t17 42.5v1220q0 26 -16.5 43t-42.5 17h-184q-25 0 -41.5 -16.5
t-16.5 -41.5h-16v74z" />
    <glyph glyph-name="U_B" unicode="UB" horiz-adv-x="2488" 
d="M31 1372h202v-16q-23 -1 -38 -18t-15 -40v-968q0 -138 93.5 -240t228.5 -108h22q114 0 210.5 56t153 153t56.5 212v848q0 44 -31.5 75.5t-74.5 31.5v14h907q160 0 274.5 -114t114.5 -275q0 -72 -29 -145q-8 -18 1.5 -34.5t29.5 -19.5q132 -22 223 -116q116 -119 113 -277
q-1 -103 -54.5 -191t-143 -139t-193.5 -51h-1039v17q25 0 42.5 17t17.5 42v1212q0 27 -18 41.5t-44 14.5q-32 0 -57 -21.5t-25 -58.5v-871q0 -182 -127 -310t-307 -128q-119 0 -219 59t-157.5 160t-57.5 219v895q0 24 -17.5 41t-41.5 17v16zM1192 221v-139q0 -23 16 -39
t39 -16h834q39 0 57 4q32 4 55 18q78 45 126 139.5t48 210.5q0 115 -45 209t-120 137q-36 19 -97 27q-33 3 -53 -24q-55 -71 -135 -111.5t-172 -40.5h-180q-155 0 -264 -110t-109 -265zM1192 1300v-864q0 -17 16 -21t25 11q53 85 141 134.5t191 49.5h180q57 0 105 22
t81.5 59t57 85.5t34.5 101t11 105.5q0 56 -15 115t-43.5 113.5t-75.5 93.5t-104 49q-36 4 -51 4l-498 -2q-23 0 -39 -16.5t-16 -39.5z" />
    <glyph glyph-name="U_D" unicode="UD" horiz-adv-x="2535" 
d="M31 1356v16h202v-16q-23 -1 -38 -18t-15 -40v-968q0 -138 93.5 -240t228.5 -108h22q114 0 210.5 56t153 153t56.5 212v848q0 44 -31.5 75.5t-74.5 31.5v14h993q176 -8 325 -101t235.5 -246.5t86.5 -330.5t-86.5 -330.5t-235.5 -246.5t-325 -101h-789v17q24 0 41 16.5
t17 40.5v1208q0 28 -16.5 43t-41.5 15q-32 0 -58 -22.5t-26 -59.5v-871q0 -182 -127 -310t-307 -128q-119 0 -219 59t-157.5 160t-57.5 219v895q0 24 -17.5 41t-41.5 17zM1190 1298v-1208q0 -23 17 -40t42 -17h570q152 5 281 95.5t203.5 241t74.5 324.5q0 175 -75.5 326.5
t-205 242t-282.5 95.5l-566 -2q-25 0 -42 -16.5t-17 -41.5z" />
    <glyph glyph-name="U_P" unicode="UP" horiz-adv-x="2103" 
d="M31 1356v16h202v-16q-23 -1 -38 -18t-15 -40v-968q0 -138 93.5 -240t228.5 -108h22q114 0 210.5 56t153 153t56.5 212v848q0 44 -31.5 75.5t-74.5 31.5v14h821q158 0 272 -111.5t115 -269.5q3 -162 -115 -278.5t-282 -116.5h-125q-97 0 -180.5 -47.5t-133.5 -126.5
q-20 -29 -20 -68v-268q0 -24 16 -37q16 -16 39 -16v-17h-203v17q25 0 41.5 17t16.5 42v1206q0 25 -16.5 41.5t-41.5 16.5q-32 0 -58 -24t-26 -58v-871q0 -182 -127 -310t-307 -128q-119 0 -219 59t-157.5 160t-57.5 219v895q0 24 -17.5 41t-41.5 17zM1190 518
q0 -14 10 -23.5t23 -9.5q16 0 24 11q114 114 277 114h135q42 0 92 13q87 39 142 137.5t55 222.5q0 126 -56 226t-145 137q-43 12 -88 12h-414q-23 -1 -39 -19t-16 -41v-780z" />
    <glyph glyph-name="U_L" unicode="UL" horiz-adv-x="1759" 
d="M31 1356v16h202v-16q-23 -1 -38 -18t-15 -40v-968q0 -138 93.5 -240t228.5 -108h22q114 0 210.5 56t153 153t56.5 212v848q0 44 -31.5 75.5t-74.5 31.5v14h413v-16q-25 0 -42 -17t-17 -41v-1208q0 -25 17 -41t42 -16h437q23 0 39 16t16 39h16v-72h-717v17q25 0 42.5 16.5
t17.5 40.5v1208q0 24 -17 41q-23 19 -43 19q-35 0 -59.5 -25t-24.5 -59v-871q0 -182 -127 -310t-307 -128q-119 0 -219 59t-157.5 160t-57.5 219v895q0 24 -17.5 41t-41.5 17z" />
    <glyph glyph-name="U_R" unicode="UR" horiz-adv-x="2471" 
d="M31 1356v16h202v-16q-23 -1 -38 -18t-15 -40v-968q0 -138 93.5 -240t228.5 -108h22q114 0 210.5 56t153 153t56.5 212v848q0 44 -31.5 75.5t-74.5 31.5v14h821q158 0 272 -111.5t115 -269.5q1 -107 -52.5 -197.5t-144.5 -144.5q-8 -4 -6.5 -13.5t10.5 -10.5
q196 -26 338 -166.5t176 -337.5q6 -38 35.5 -63t69.5 -25v-17h-205v17q39 0 64 30t18 68q-39 204 -199.5 343.5t-367.5 139.5q-4 0 -11 -1t-10 -1q-49 -16 -112 -16h-125q-97 0 -180.5 -47.5t-133.5 -126.5q-20 -29 -20 -68v-268q0 -23 16 -39q18 -14 39 -14v-17h-203v17
q24 0 41 16.5t17 40.5v1208q0 25 -16.5 41.5t-41.5 16.5q-32 0 -58 -24t-26 -58v-871q0 -182 -127 -310t-307 -128q-119 0 -219 59t-157.5 160t-57.5 219v895q0 24 -17.5 41t-41.5 17zM1190 1298v-780q0 -14 10 -23.5t23 -9.5q16 0 24 11q114 114 277 114h135q42 0 92 13
q82 43 139.5 143.5t57.5 216.5q0 126 -56 226t-145 137q-43 12 -88 12h-414q-23 -1 -39 -19t-16 -41z" />
    <glyph glyph-name="a_e" unicode="ae" horiz-adv-x="1607" 
d="M223 -29q-82 25 -131.5 95t-46.5 155q3 66 38 122.5t93 88.5q179 100 287 203q6 4 20 18q13 23 0 45q-47 66 -110 66q-98 0 -168 -69t-70 -167h-14q0 104 74.5 178t177.5 74q88 0 151 -51q7 -6 18.5 -5.5t18.5 7.5q29 28 103.5 101.5t111.5 109.5q71 68 160 68
q73 0 135 -45q49 -32 74 -85t20 -112q0 -298 -194 -625q-6 -9 -4.5 -21.5t10.5 -19.5q122 -90 254 -90q127 0 209 82q92 92 76 242q-1 5 -3.5 16.5t-3.5 16.5h58q0 -169 -119.5 -289.5t-288.5 -120.5q-170 0 -289 118t-122 288q0 159 104 277.5t262 135.5q15 2 25.5 14
t7.5 27q-13 75 -72.5 123.5t-134.5 48.5q-93 0 -156 -63q-36 -36 -107 -105.5t-99 -97.5q-9 -9 -10.5 -22.5t5.5 -22.5q1 -1 2.5 -3t2.5 -3q26 -37 34.5 -81.5t10.5 -107.5q1 0 1 -111l-1 -110v-190q0 -22 14 -39q17 -17 41 -17v-16h-148v55q0 12 -10 15t-16 -6
q-60 -82 -158 -101q-63 -12 -123 6zM129 379q-44 -47 -31 -127q18 -93 100.5 -167.5t174.5 -74.5q64 0 106.5 50t50.5 118v375q0 42 -8 70q-3 12 -15.5 15.5t-21.5 -5.5q-2 -2 -7 -6t-7 -6l-4 -5q-107 -99 -285 -198q-23 -13 -53 -39zM801 485q-12 -88 22 -176t99 -155
q7 -9 20 -7.5t19 11.5q123 212 167 422q16 112 17 118q0 9 -6 17.5t-13 9.5h-12q-10 2 -33 2q-111 0 -190.5 -67t-89.5 -175z" />
    <glyph glyph-name="c_k_y" unicode="cky" horiz-adv-x="2191" 
d="M51 373q-3 168 117 291q110 113 266 122q9 0 16 7t7 16q25 173 157.5 289t311.5 116h215v-16q-24 -2 -40 -18t-16 -39v-725q0 -11 8.5 -20t20.5 -9h55q37 2 64 28t27 62v197q0 43 30.5 73.5t73.5 30.5h256v-16q-14 0 -22.5 -11t-4.5 -24l226 -657q5 -10 16 -10t16 10
q24 66 71.5 202.5t70.5 202.5l75 215q5 15 5 19q0 22 -16.5 37.5t-39.5 15.5v16h174v-16q-37 0 -66.5 -20t-39.5 -54l-78 -217q-10 -37 -33 -92q-5 -15 -16 -45.5t-16 -46.5q-58 -168 -113 -336q-6 -17 -17 -49.5t-20 -58.5t-18 -48q-25 -54 -78.5 -84.5t-114.5 -32.5
q-13 0 -55.5 0.5t-63.5 -0.5t-51.5 -11.5t-50.5 -31.5q-38 -41 -41 -100q0 -63 45.5 -107t108.5 -44q49 -2 132 -1.5t132 -0.5q68 0 112 47q24 21 37 53q1 3 3 12.5t3.5 15t3 14.5t1.5 11t-1 4h17q-10 -76 -55.5 -125t-120.5 -49l-132 1q-132 2 -132 -1q-39 0 -70 8
q-115 43 -133 160q-10 80 37 145q36 49 91.5 66.5t129.5 17.5q7 0 38.5 -2t46 -2t38.5 2.5t41 8.5q53 23 75 81q5 10 12.5 31.5t10.5 28.5q1 3 3.5 10t3.5 9.5t2.5 8.5t2 8.5t1 8t-0.5 8.5l-2.5 7.5t-4 8t-5.5 8t-8 9.5t-15 8.5t-16.5 4t-7.5 -0.5l-4 17l-238 698
q-14 41 -53 41q-34 0 -66 -28.5t-32 -61.5v-197q0 -52 -41 -82q-8 -6 -6.5 -15.5t10.5 -12.5q115 -41 185.5 -141.5t70.5 -223.5h-17q0 148 -101.5 256.5t-248.5 114.5h-88q-12 0 -20.5 -8.5t-8.5 -20.5v-270q0 -23 16.5 -39.5t39.5 -16.5v-16h-205v16q25 0 42 17.5t17 42.5
v1001q0 5 0.5 20.5t0 24t-2 21.5t-6 22.5t-12.5 16.5q-21 18 -62 18q-31 0 -98 -16q-149 -35 -247.5 -162t-98.5 -281v-16h-8q-31 8 -72 8q-129 0 -211 -82q-92 -95 -74.5 -242t134.5 -261q63 -63 141.5 -96.5t155.5 -33.5q129 0 208 82q92 92 76 240q-5 30 -6 35h59
q0 -168 -118.5 -289t-286.5 -121h-4q-169 0 -289 118t-123 288z" />
    <glyph glyph-name="c_t" unicode="ct" horiz-adv-x="1441" 
d="M51 362q-3 168 117 291q86 92 213 117q22 4 34.5 20.5t10.5 38.5q-4 18 -4 54q3 122 86.5 214t204.5 107q160 18 270 -88q98 -91 104 -221v-53q0 -28 20.5 -48t49.5 -20h57v-16h-57q-29 0 -49.5 -20t-20.5 -48v-63l-2 -488q0 -55 37 -101.5t90 -60.5q20 -4 31 -4h12
q69 0 119.5 49.5t50.5 118.5v2h17v-16q-6 -71 -60 -120.5t-127 -49.5h-86q-14 0 -34 4q-61 15 -100.5 64.5t-39.5 113.5v4l-2 496v127l60 82q21 30 18 72q-19 120 -113.5 199t-218.5 73q-123 -4 -210.5 -95t-90.5 -214q-3 -47 15 -105q8 -24 8 -57v-4q-33 8 -76 8
q-125 0 -207 -82q-92 -95 -74.5 -242.5t134.5 -261.5q64 -63 143 -96t156 -33q127 0 206 82q91 94 76 242q-1 5 -3 16.5t-3 16.5h59q0 -169 -118 -288t-287 -122h-4q-169 0 -289 117.5t-123 287.5z" />
    <glyph glyph-name="e_e" unicode="ee" horiz-adv-x="1675" 
d="M49 365q-3 167 117 290q59 59 135 91t158 32l8 2v-4q5 -37 -8 -131q-24 -189 -140 -416q-2 -5 -51 -100q-3 -15 13 -27q118 -92 256 -92q120 0 198 75t84 194q1 18 -3.5 52t-4.5 50q11 172 127.5 284t290.5 115q4 -36 -4 -106v-2q-28 -214 -138 -432q-2 0 -2 -4
q-16 -34 -55 -107q0 -18 12 -27q118 -92 254 -92q128 0 207 82q92 95 76 242q-1 6 -3 17.5t-3 17.5h59q0 -169 -116 -285v-2q-123 -123 -289 -123h-6q-115 0 -209 57q-14 7 -23 7q-22 0 -35 -19q-72 -115 -178 -242q-45 -55 -110 -84.5t-136 -29.5q-76 0 -143.5 32
t-112.5 93q-86 111 -63 250q3 12 -6 24.5t-28 27.5t-21 17q-50 54 -78.5 127t-28.5 146zM225 4q-13 -99 39 -188q43 -72 113 -112t153 -40q68 0 130 28.5t104 80.5q100 119 182 245q18 32 -8 54l-4 4q-51 51 -80 110q-4 8 -13 8t-14 -8q-27 -56 -73 -102v-2
q-123 -123 -289 -123h-6q-115 0 -209 57q-8 5 -16.5 1t-8.5 -13zM922 625q-55 -67 -60 -157t29.5 -171.5t93.5 -142.5q9 -9 21 -8t18 12q64 111 125 277.5t61 269.5q-5 24 -57 24q-60 0 -117.5 -22t-97.5 -62q-3 -3 -8 -10t-8 -10zM147 606q-39 -59 -44.5 -133.5t16 -142.5
t63.5 -127q16 -24 41 -49q9 -9 21 -8t18 12q116 192 182 497q0 4 2 15t3 18t-0.5 16t-6.5 15q-14 13 -90 6q-63 -6 -116.5 -36.5t-88.5 -82.5z" />
    <glyph glyph-name="f_b" unicode="fb" horiz-adv-x="1204" 
d="M57 756h-37v16h37q10 0 17.5 7t9.5 16v239q0 74 50.5 128.5t123.5 54.5h88q13 0 25 -3q57 -6 101 -46.5t44 -96.5v-27l-2 -286q0 -15 12.5 -23t26.5 -2q85 45 186 45q169 3 291 -119q123 -120 123 -290q1 -169 -119 -290.5t-289 -123.5h-6q-101 0 -186 45q-21 12 -45 12
q-26 0 -47 -12h-103v16q25 0 42.5 17.5t17.5 42.5v35l6 1030q0 25 -16 41t-51.5 18.5t-55.5 -4.5q-54 -15 -89.5 -61.5t-35.5 -104.5v-233q0 -11 7 -18t18 -7h78v-16h-78q-10 0 -17.5 -8t-7.5 -17v-29l2 -497v-129q0 -25 19 -41q19 -19 41 -19v-14h-218v14q25 0 42.5 17.5
t17.5 42.5v37l4 618q-4 25 -27 25zM510 117q0 -24 16 -43q93 -103 217 -103h2q87 1 160 55t115 145t41 198q0 162 -94 277.5t-226 117.5h-2q-65 -2 -142.5 -43t-84.5 -98z" />
    <glyph glyph-name="f_h" unicode="fh" horiz-adv-x="1003" 
d="M20 16q25 0 42.5 17.5t17.5 42.5v35l4 620q-4 25 -27 25h-37v14h37q10 0 17.5 7.5t9.5 17.5v237q0 65 38.5 115t100.5 67q15 3 35 3h107q48 0 99.5 -44t51.5 -92v-43l-2 -268q0 -17 14 -25t29 0q59 27 117 27q105 0 178.5 -72.5t73.5 -177.5v-2l-2 -444q0 -25 17 -42.5
t42 -17.5v-16h-211v18q22 0 40.5 19t18.5 41v35l5 440q-9 88 -55 146.5t-107 58.5q-68 0 -109.5 -61.5t-52.5 -137.5l-2 -483q0 -25 17 -42.5t42 -17.5v-16h-211v18q22 0 41 18t19 40v37l6 1028q0 24 -16 43q-16 16 -64 16q-28 0 -43 -6q-54 -14 -89.5 -60t-35.5 -104v-233
q0 -11 7.5 -19t17.5 -8h78v-14h-78q-10 0 -17.5 -8t-7.5 -17v-31l2 -495v-129q0 -23 18.5 -41.5t41.5 -18.5v-16h-218v16z" />
    <glyph glyph-name="f_j" unicode="fj" horiz-adv-x="657" 
d="M88 0h-68v16q25 0 42.5 17.5t17.5 42.5v35l4 620q-4 25 -27 25h-37v16h37q10 0 17.5 7t9.5 16v237q0 73 51 129t123 56h88q67 0 119.5 -46.5t64.5 -113.5q0 -13 13 -23l37 -41l-60 -59l-59 59l39 37q16 19 10 41q-37 127 -176 127q-13 0 -33 -4q-55 -15 -90 -61t-35 -105
v-231q0 -11 7 -18t18 -7h426v-16q-25 0 -42.5 -17.5t-17.5 -42.5v-34l-2 -637v-476q0 -73 -52 -128.5t-124 -55.5h-86q-73 0 -126.5 50t-59.5 122v14h14v-2q0 -69 51.5 -118t120.5 -49h10q13 0 33 4q46 14 79.5 48.5t43.5 80.5q0 2 1 6t1 6q0 4 1 11t1 11v422l-4 691v34
q0 25 -17 42.5t-42 17.5h-209q-11 0 -18 -7t-7 -18v-29l2 -499v-127q0 -25 17.5 -42.5t42.5 -17.5v-16h-150z" />
    <glyph glyph-name="f_r" unicode="fr" horiz-adv-x="913" 
d="M57 758h-37v14h37q10 0 17.5 7.5t9.5 17.5v237q0 74 50.5 128.5t123.5 54.5h88q73 0 125.5 -49t58.5 -121v-17h-14v17q-5 47 -39 92q-2 2 -5 6t-5 6q-30 30 -78 43.5t-88 1.5q-55 -15 -90 -61t-35 -105v-231q0 -11 7.5 -19t17.5 -8h323q0 -19 16 -28t33 -1q60 31 117 31
q90 0 162 -59q43 -39 61 -80h-63q0 60 -48.5 91.5t-111.5 31.5t-112.5 -33t-49.5 -92v-74l-2 -483q0 -24 17 -41q16 -19 43 -19v-16h-211v18q20 0 39.5 19t19.5 39v622q0 26 -18 41q-19 19 -41 19h-174q-10 0 -17.5 -8t-7.5 -17v-31l2 -497v-129q0 -25 19 -41q17 -17 41 -17
v-16h-218v16q25 0 42.5 16.5t17.5 41.5v37l4 620q-4 25 -27 25z" />
    <glyph glyph-name="f_t" unicode="ft" horiz-adv-x="884" 
d="M20 16q25 0 42.5 17.5t17.5 42.5v35l4 620q-4 25 -27 25h-37v16h37q10 0 17.5 7t9.5 16v237q0 73 51 129t123 56h88q105 0 170 -111q11 -24 14 -62v-204q0 -28 20.5 -48t49.5 -20h57v-16h-57q-29 0 -49.5 -20.5t-20.5 -49.5v-63l-2 -488q0 -14 2 -22q0 -9 2 -13
q9 -45 43 -80t80 -49q20 -4 31 -4h12q71 0 120 49t52 119v2h15v-14q-6 -72 -60 -122t-127 -50h-88q-11 0 -35 4q-61 15 -100 65t-39 115v2l-2 514v76q0 12 -8 20.5t-20 8.5h-205q-11 0 -18 -7t-7 -18v-29l2 -499v-127q0 -27 19 -43q17 -17 41 -17v-16h-218v16zM301 1194
q-55 -15 -90 -61t-35 -105v-231q0 -11 7 -18t18 -7h164q74 0 120 59q31 47 31 91v122q-6 52 -39 93q-42 42 -78 53.5t-98 3.5z" />
    <glyph glyph-name="f_y" unicode="fy" horiz-adv-x="999" 
d="M57 752h-37v14h37q9 0 17 8t8 17v235q0 64 39 113t100 67q12 2 35 2h88q46 0 95 -27.5t67 -68.5q4 -8 6 -14q13 -29 16 -60v-14h-16v14q-3 54 -40.5 96.5t-90.5 53.5q-12 4 -40.5 3.5t-39.5 -5.5q-56 -14 -91.5 -59t-35.5 -105v-229q0 -11 8 -19t19 -8l229 -2v-12
q-13 0 -21 -11.5t-3 -25.5l223 -656q5 -11 16 -11t14 11l220 619q2 6 2 18q0 22 -16 39t-40 17v16h174v-16q-35 0 -64.5 -21t-41.5 -55l-76 -217q-85 -228 -162 -459q-2 -6 -5 -18.5t-5 -18.5l-41 -125q-20 -72 -74 -123q-32 -26 -67 -37q-28 -9 -59 -11.5t-82 -0.5t-60 2
q-54 -3 -92.5 -45t-38.5 -96q0 -62 43 -105q41 -47 109 -47q49 -2 132 -1.5t132 -0.5q64 0 112 45q24 28 35 52l6 16l7 31v14h16v-8l-4 -25l-10 -35q-20 -49 -64.5 -77.5t-97.5 -28.5l-132 1q-132 2 -132 -1q-37 0 -68 8q-55 21 -90.5 61.5t-42.5 96.5q-12 79 37 147
q61 82 172 82h98q9 0 27.5 -1t30 -1t27 2t28.5 8q31 11 46.5 30.5t31.5 55.5l28 74q11 29 -6.5 54.5t-48.5 25.5l-242 713q-14 39 -55 39h-55q-10 0 -18.5 -8t-8.5 -17v-29l2 -495v-92l2 -35q0 -23 17 -43q17 -17 41 -17h2v-16h-218v16q25 0 42.5 17.5t17.5 42.5v35l2 616
q0 10 -8 17.5t-17 7.5z" />
    <glyph glyph-name="f_f_b" unicode="ffb" horiz-adv-x="1626" 
d="M86 0h-66v16q25 0 42.5 17.5t17.5 42.5v35l2 616q0 9 -8 16t-17 7h-37v16h37q9 0 17 7.5t8 17.5v127q0 64 39 113.5t100 64.5q24 4 35 4h88q108 0 168 -111v37q0 64 39.5 114.5t99.5 65.5q10 2 35 2h86q64 0 117 -40t53 -103v-27l-2 -286q0 -14 13 -22t26 -1
q85 45 184 45q171 0 291.5 -118.5t120.5 -288.5q1 -169 -118 -289.5t-288 -122.5h-6q-99 0 -184 45q-17 10 -45 10q-24 0 -47 -10h-101v16q23 0 40.5 17.5t19.5 40.5v37l6 1022q0 23 -18 41q-14 18 -62 18h-10q-13 0 -33 -4q-55 -15 -90 -60.5t-35 -103.5v-231
q0 -11 7.5 -19t17.5 -8h76v-16h-76q-11 0 -18 -7t-7 -18v-29l2 -493v-127q0 -25 19 -41q16 -19 41 -19v-16h-215v16q25 0 42 17.5t17 42.5v35l2 616q-2 9 -9.5 16t-17.5 7h-284q-11 0 -19 -7.5t-8 -17.5v-18l2 -504v-92l2 -35q0 -24 17 -41q16 -19 41 -19h2v-16h-152z
M936 115q0 -22 16 -41q96 -106 215 -103h2q87 1 159.5 54.5t114.5 144t42 197.5q-2 162 -95 276.5t-225 114.5h-2q-117 0 -207 -96q-16 -16 -16 -44zM174 913v-120q0 -11 8 -19t19 -8h284q11 0 19 7.5t8 17.5v141q-6 49 -37 88q-19 29 -56.5 46t-74.5 17q-69 0 -119.5 -50
t-50.5 -120z" />
    <glyph glyph-name="f_f_h" unicode="ffh" horiz-adv-x="1427" 
d="M57 750h-37v16h37q9 0 17 7.5t8 17.5v127q0 64 39 113.5t100 64.5q24 4 35 4h88q73 0 127 -51q16 -17 24.5 -30t12.5 -21l4 -9v37q0 64 39.5 114.5t99.5 65.5q10 2 35 2h86q72 0 121 -44.5t49 -116.5v-15l-2 -266q0 -17 14.5 -26t28.5 -1q56 29 117 29q101 0 175.5 -73.5
t74.5 -174.5v-4l-2 -440q0 -25 17 -42.5t42 -17.5v-16h-209v18q0 -2 15 5t29.5 22t14.5 31v35l3 440q-9 85 -54.5 143t-105.5 58q-67 0 -109 -60.5t-51 -134.5l-4 -481q0 -23 18 -41.5t41 -18.5v-16h-209v16q22 0 41 18.5t19 41.5v35l2 405v109l4 510q0 26 -18 41
q-16 16 -51 18t-54 -6q-55 -15 -90 -60.5t-35 -103.5v-231q0 -11 7.5 -19t17.5 -8h78v-16h-78q-9 0 -17 -7.5t-8 -17.5v-29l2 -493v-127q0 -22 19 -41q16 -19 41 -19v-16h-215v16q25 0 42 17.5t17 42.5v35l2 616q0 9 -8 16t-17 7h-286q-11 0 -19 -7.5t-8 -17.5v-18l2 -504
v-92l2 -35q0 -24 17 -41q16 -19 41 -19h2v-16h-218v16q25 0 42.5 17.5t17.5 42.5v35l2 616q0 9 -8 16t-17 7zM174 793q0 -11 8 -19t19 -8h286q9 0 17 7.5t8 17.5v135q-3 66 -52.5 111.5t-115.5 45.5q-69 0 -119.5 -50t-50.5 -120v-120z" />
    <glyph glyph-name="f_f_j" unicode="ffj" horiz-adv-x="1083" 
d="M20 0v16q25 0 42.5 17.5t17.5 42.5v35l2 616q0 10 -8 17.5t-17 7.5h-37v14h37q9 0 17 8t8 17v127q0 64 39 113.5t100 64.5q12 2 35 2h88q76 0 127 -51l8 -9q27 -27 33 -51v39q0 64 39 113.5t100 64.5q24 4 35 4h86q75 0 129 -51q41 -44 55 -104q4 -17 15 -29l37 -37
l-60 -59l-59 59l31 33q23 23 14 55q-8 27 -29 55l-12 13q-36 36 -82 45q-37 11 -80 -2q-56 -14 -91.5 -60t-35.5 -104v-229q0 -11 8 -19t19 -8h422v-14q-25 0 -42.5 -17.5t-17.5 -42.5v-35l-2 -632v-474q0 -64 -39 -113.5t-100 -64.5q-20 -4 -35 -4h-86q-73 0 -126 49.5
t-58 120.5v15h14q0 -70 49.5 -119t120.5 -49h10q13 0 33 4q45 12 78.5 47.5t44.5 81.5l2 32v420l-2 686v35q0 25 -17 42.5t-42 17.5h-207q-10 0 -18.5 -8t-8.5 -17v-31l2 -493v-127q3 -26 19 -43t41 -17v-16h-215v16q25 0 42 17.5t17 42.5v35l2 616q0 10 -8 17.5t-17 7.5
h-286q-10 0 -18.5 -8t-8.5 -17v-20l2 -504v-92l2 -35q0 -25 16 -42.5t42 -17.5h2v-16h-218zM301 1077q-56 -15 -91.5 -60t-35.5 -104v-120q0 -11 8 -19t19 -8h286q9 0 17 7.5t8 17.5v127q0 55 -37 102l-12 12q-49 49 -119 49h-12q-11 0 -31 -4z" />
    <glyph glyph-name="f_f_r" unicode="ffr" horiz-adv-x="1337" 
d="M20 0v18q25 -1 42.5 16t17.5 42v35l2 618q0 9 -8 16t-17 7h-37v16h37q9 0 17 7.5t8 17.5v127q0 64 39 112.5t100 63.5q12 4 35 4h88q55 0 100.5 -30t67.5 -81v39q0 64 39 113.5t100 64.5q20 4 35 4h86q19 0 27 -2q62 -9 109.5 -57.5t47.5 -110.5v-16h-14v14q-6 53 -37 92
q-13 20 -40.5 36.5t-53.5 23.5q-42 8 -82 -2q-54 -14 -89.5 -60t-35.5 -104v-231q0 -9 7.5 -17t17.5 -8h323q0 -19 15 -28.5t32 -0.5q56 29 115 29q69 0 131.5 -37.5t91.5 -99.5h-61q-3 63 -49.5 92t-112.5 29q-65 0 -111.5 -31t-46.5 -92l-2 -43v-29l-2 -481q0 -24 17 -41
q16 -19 43 -19v-16h-211v16q25 0 42 17.5t17 42.5v616q0 26 -16.5 43t-42.5 17h-172q-9 0 -17 -7.5t-8 -17.5v-29l2 -493v-129q0 -24 18 -41t42 -17v-18h-215v18q25 -1 42 16t17 42v35l2 618q0 9 -8 16t-17 7h-286q-11 0 -19 -7.5t-8 -17.5v-18l2 -504v-94l2 -35
q0 -25 16.5 -41.5t41.5 -16.5h2v-18h-218zM174 795q0 -11 8 -19t19 -8h286q9 0 17 7.5t8 17.5v133q-3 50 -37 96l-12 12q-49 49 -119 49h-12q-16 0 -31 -6q-56 -14 -91.5 -59t-35.5 -103v-120z" />
    <glyph glyph-name="f_f_t" unicode="fft" horiz-adv-x="1308" 
d="M57 750h-37v16h37q9 0 17 7.5t8 17.5v127q0 63 39 111.5t100 66.5q12 2 35 2h88q76 0 127 -51l8 -9q21 -21 33 -51v39q0 64 39 113.5t100 64.5q20 4 35 4h86q19 0 27 -2q62 -9 109.5 -57.5t47.5 -110.5v-204q0 -28 20.5 -48t49.5 -20h57v-16h-57q-29 0 -49.5 -19.5
t-20.5 -48.5v-64l-2 -485q0 -3 1 -10t1 -10q0 -2 1 -6.5t1 -6.5q11 -46 44.5 -81.5t78.5 -47.5q20 -4 31 -4h12q69 0 119.5 49.5t50.5 118.5h15v-14q-6 -71 -59.5 -120.5t-125.5 -49.5h-88q-12 0 -32 4h-3q-59 15 -98 64.5t-39 113.5v2l-2 512v76q0 12 -7.5 19.5t-18.5 7.5
h-207q-9 0 -17 -7.5t-8 -17.5v-29l2 -493v-129q0 -24 18 -41t42 -17v-16h-215v16q25 0 42 16.5t17 41.5v35l2 618q0 9 -8 16t-17 7h-286q-11 0 -19 -7.5t-8 -17.5v-18l2 -504v-94l2 -35q0 -25 16.5 -41.5t41.5 -16.5h2v-16h-218v16q25 0 42.5 16.5t17.5 41.5v35l2 618
q0 9 -8 16t-17 7zM604 1022v-229q0 -10 8 -18.5t17 -8.5h164q76 0 118 61q31 39 31 88v123q-6 52 -37 90q-28 44 -94 60q-45 5 -82 -2q-54 -14 -89.5 -60t-35.5 -104zM174 913v-120q0 -11 8 -19t19 -8h286q9 0 17 7.5t8 17.5v131q-3 58 -37 98l-12 12q-49 49 -119 49h-12
q-16 0 -31 -6q-56 -14 -91.5 -59t-35.5 -103z" />
    <glyph glyph-name="f_f_y" unicode="ffy" horiz-adv-x="1429" 
d="M20 752v14h37q9 0 17 8t8 17v127q0 64 39 113.5t100 64.5q12 2 35 2h88q76 0 127 -51l8 -9q6 -6 8 -10q9 -9 15 -18q0 -2 4 -6q1 -3 3 -8.5t3 -8.5v39q0 64 39 113t100 67q12 2 35 2h88q76 0 127 -51l8 -8q49 -46 49 -111v-14h-16v14q-3 46 -37 92l-12 13q-36 36 -82 45
q-12 4 -40.5 3.5t-39.5 -5.5q-56 -14 -91.5 -59t-35.5 -105v-229q0 -11 8 -19t19 -8l229 2v-16q-13 0 -21 -11.5t-3 -25.5l223 -656q5 -11 16.5 -11t14.5 11l219 619q2 6 2 18q0 22 -16 39t-40 17v16h175v-16q-35 0 -65 -21t-42 -55l-76 -217q-85 -228 -162 -459
q-2 -6 -5 -18.5t-5 -18.5l-41 -125q-20 -73 -73 -123q-46 -37 -109 -47q-24 -4 -50.5 -4t-59 2t-50.5 2q-54 -3 -92.5 -45t-38.5 -96q0 -62 43 -105q41 -47 109 -47q49 -2 132 -1.5t132 -0.5q65 0 113 45q22 25 34 52l6 16l7 31h14l-2 -19l-10 -35q-20 -49 -64.5 -77.5
t-97.5 -28.5q-29 0 -83 1t-98 1t-83 -2q-37 0 -68 8q-55 21 -90.5 61.5t-42.5 96.5q-12 79 37 147q51 68 135 80h195q30 0 53 10q30 10 47 31t31 55l28 74q11 29 -6.5 54.5t-48.5 25.5l-242 713q-14 39 -55 39h-55q-10 0 -18.5 -8t-8.5 -17v-29l2 -495v-92l2 -35
q0 -23 17 -43q17 -17 41 -17h2v-16h-217v16q25 0 42 17.5t17 42.5v35l2 616q0 10 -8 17.5t-17 7.5h-286q-10 0 -18.5 -8t-8.5 -17v-20l2 -504v-92l2 -35q0 -23 17 -43q17 -17 41 -17h2v-16h-218v16q25 0 42.5 17.5t17.5 42.5v35l2 616q0 10 -8 17.5t-17 7.5h-37zM301 1077
q-56 -15 -91.5 -60t-35.5 -104v-120q0 -11 8 -19t19 -8h286q9 0 17 8t8 17v124q0 58 -37 105l-12 12q-49 49 -119 49h-12q-11 0 -31 -4z" />
    <glyph glyph-name="g_g" unicode="gg" horiz-adv-x="1847" 
d="M176 72q-80 77 -109 181.5t-2 210t105 185.5q120 123 293 123q165 0 282 -117q18 -15 29 -28q8 -11 21.5 -14t25.5 3q42 21 68 61.5t26 90.5h17q0 -52 -26 -95t-70 -67q-12 -8 -16.5 -22.5t1.5 -28.5q53 -98 48 -211.5t-68 -206.5q-11 -15 -6 -32.5t22 -24.5
q51 -20 83 -66.5t32 -103.5q-2 -29 -14 -70q-8 -25 7.5 -46t41.5 -21q109 0 230.5 -0.5t201 -1t88.5 -0.5l207 -2q45 11 77.5 50t38.5 91v14q-6 57 -47.5 92t-95.5 35q-45 0 -84 -26q-106 -68 -227 -68q-164 0 -285 115q-80 78 -109 182.5t-2 209.5t105 185q120 123 291 123
q167 0 284 -117q5 -4 29 -28q8 -11 21.5 -14t25.5 3q42 21 68 61.5t26 90.5h17q0 -52 -26 -95t-70 -67q-14 -8 -18 -22.5t3 -28.5q53 -98 47.5 -211.5t-69.5 -206.5q-9 -15 -4 -32.5t22 -24.5q51 -20 83 -66.5t32 -103.5q3 -26 -4 -57q-10 -51 -60 -101q-55 -47 -112 -47
q-12 -2 -29 -2l-135 -6q-47 -1 -534.5 -3.5t-575.5 -2.5l-109 -2h-49q-24 -3 -39 -11q-33 -13 -51 -32.5t-35 -53.5q-4 -13 -8 -43q0 -49 26.5 -89.5t71.5 -55.5q14 -6 47 -10l162 -4q4 0 37 -0.5t87 -1t108 -0.5h876q70 0 120 49.5t50 118.5h17q0 -75 -54 -129t-129 -56h-4
h-1108l-162 -6q-30 0 -57 6q-35 10 -55 22.5t-47 39.5q-44 62 -49 112q-5 27 2 66q6 28 22 61q26 45 69.5 73t94.5 32h57l109 -2h383q56 -2 100 33t53 90q2 4 2 12v14q-4 57 -45.5 92t-97.5 35q-45 0 -84 -26q-103 -68 -227 -68q-167 0 -285 115zM180 639q-93 -96 -74 -242
q11 -102 74 -192t159 -143.5t198 -53.5q125 0 204 82q91 95 76 240q-20 158 -146 273.5t-284 115.5q-127 0 -207 -80zM1075 639q-93 -96 -74 -242q17 -154 145.5 -271.5t283.5 -117.5q127 0 206 82q91 95 76 240q-13 102 -75 191.5t-157 143.5t-198 54q-127 0 -207 -80z" />
    <glyph glyph-name="g_i" unicode="gi" horiz-adv-x="1282" 
d="M176 68q-80 77 -109 181.5t-2 210t105 185.5q120 123 293 123q165 0 282 -117q18 -15 29 -28q8 -11 21.5 -14t25.5 3q42 21 68 61.5t26 90.5v328q0 52 38 87.5t91 32.5q49 -3 81 -40t32 -85v-20q0 -27 21 -51l30 -29l-59 -59l-57 59l30 29q21 24 21 51v20
q0 42 -26.5 73.5t-65.5 35.5q-47 6 -83 -25.5t-36 -78.5v-328q0 -52 -26 -95t-70 -67q-12 -8 -16.5 -22.5t1.5 -28.5q53 -98 48 -211.5t-68 -206.5q-11 -15 -6 -32.5t22 -24.5q51 -20 83 -66.5t32 -103.5q3 -27 -4 -58q-7 -33 -19 -52t-41 -48q-55 -47 -112 -47
q-201 -14 -379 -14l-109 -2h-26q-42 0 -62 -11q-42 -15 -65 -49q-41 -53 -23 -125q9 -35 34 -62.5t58 -37.5q14 -6 47 -10l162 -4q55 -2 162 -2h53q69 0 118.5 49t49.5 118h17q0 -75 -54 -128.5t-129 -55.5h-2q0 1 -108 1l-107 -1l-162 -6q-30 0 -57 6q-35 10 -55 22.5
t-47 39.5q-44 62 -49 112q-5 27 2 66q6 28 22 61q26 45 69.5 73t94.5 32h57l109 -2q71 0 215 -4l108 -7q9 0 27 -1t27 -1q63 0 109 42t52 106v14q-4 57 -45.5 92t-97.5 35q-44 0 -84 -27q-101 -67 -227 -67q-167 0 -285 115zM180 635q-93 -96 -74 -242q11 -102 74 -192
t159 -143.5t198 -53.5q125 0 204 82q91 95 76 240q-20 158 -146 273.5t-284 115.5q-127 0 -207 -80zM1049 766h202v-16q-23 -1 -38 -18t-15 -40v-620q0 -24 15 -40t38 -16v-14h-202v16q25 0 41 16.5t16 41.5v616q0 25 -16 41.5t-41 16.5v16z" />
    <glyph glyph-name="g_y" unicode="gy" horiz-adv-x="1658" 
d="M176 72q-80 77 -109 181.5t-2 210t105 185.5q120 123 293 123q165 0 282 -117q31 -25 60.5 -71.5t42.5 -85.5q30 -88 18 -185.5t-65 -175.5q-11 -15 -6 -32.5t22 -24.5q51 -20 83 -66.5t32 -103.5q3 -26 -4 -57q-7 -30 -21 -56q-8 -12 -1 -24.5t22 -12.5h139
q132 0 168 78q3 9 6 15l27 73q11 29 -6 54.5t-48 25.5l-4 17l-237 694q-6 15 -21 26q-13 9 -20 11q-3 0 -7.5 1t-6.5 1v14h174v-14q-14 0 -22.5 -12t-4.5 -25l225 -651q3 -12 14.5 -12t16.5 12l217 614q2 6 2 18q0 22 -15 39t-38 17v14h172v-14q-35 0 -65 -21t-42 -55
l-247 -711l-41 -125q-19 -66 -68.5 -116t-112.5 -50q-12 -2 -32 -2h-787h-61q-62 -8 -90 -43q-41 -41 -41 -98q0 -63 43.5 -105.5t107.5 -45.5q31 -2 293 -2h152q105 0 228.5 0.5t209.5 1t100 0.5q65 0 108 38.5t52 102.5h16q-8 -39 -12 -51q-49 -107 -164 -107h-905h-14
q-11 0 -35.5 -0.5t-35 -0.5t-30 2t-32 6.5t-29.5 13t-33 20.5q-60 47 -69 125q-3 15 -3 33v2q0 8 5 43q6 28 22 61q26 45 69.5 73t94.5 32h57l109 -2q71 0 215 -4l108 -7q9 0 27 -1t27 -1q63 0 109 42t52 106v14q-4 57 -45.5 92t-97.5 35q-45 0 -84 -26q-103 -68 -227 -68
q-167 0 -285 115zM180 639q-93 -96 -74 -242q11 -102 74 -192t159 -143.5t198 -53.5q125 0 204 82q91 95 76 240q-20 158 -146 273.5t-284 115.5q-127 0 -207 -80z" />
    <glyph glyph-name="g_g_y" unicode="ggy" horiz-adv-x="2586" 
d="M176 72q-80 77 -109 181.5t-2 210t105 185.5q120 123 293 123q165 0 282 -117q18 -15 29 -28q8 -11 21.5 -14t25.5 3q42 21 68 61.5t26 90.5h17q0 -52 -26 -95t-70 -67q-12 -8 -16.5 -22.5t1.5 -28.5q53 -98 48 -211.5t-68 -206.5q-11 -15 -6 -32.5t22 -24.5
q51 -20 83 -66.5t32 -103.5q-2 -29 -14 -70q-8 -25 7.5 -46t41.5 -21q109 0 230.5 -0.5t201 -1t88.5 -0.5q28 0 75 -1.5t80.5 -1.5t57.5 3q44 10 74 48t36 91v14q-6 57 -47.5 92t-95.5 35q-45 0 -84 -26q-106 -68 -227 -68q-164 0 -285 115q-80 78 -109 182.5t-2 209.5
t105 185q120 123 291 123q167 0 284 -117q5 -4 29 -28q8 -11 21.5 -14t25.5 3q42 21 68 61.5t26 90.5h17q0 -52 -26 -95t-70 -67q-14 -8 -18 -22.5t3 -28.5q53 -98 47.5 -211.5t-69.5 -206.5q-9 -15 -4 -32.5t22 -24.5q67 -27 96.5 -91.5t14.5 -135.5q-10 -51 -60 -101
q-20 -18 -55 -34.5t-59 -16.5q-27 -3 -90 -3t-72 -1q-47 -1 -534.5 -3.5t-575.5 -2.5l-109 -2h-49q-24 -3 -39 -11q-33 -13 -51 -32.5t-35 -53.5q-4 -13 -8 -43q0 -49 26.5 -89.5t71.5 -55.5q14 -6 47 -10l162 -4q4 0 37 -0.5t87 -1t108 -0.5h876q70 0 120 49.5t50 118.5
q0 80 56.5 141t136.5 61q5 0 66 -2.5t99.5 0.5t61.5 13q33 11 48 29t30 55l29 73q10 29 -7.5 54.5t-48.5 25.5l-4 17l-237 692q-6 18 -21 29.5t-33 11.5v14h172v-14q-13 0 -21 -11.5t-3 -25.5l223 -653q4 -10 16 -10t15 10l217 616q4 12 4 18q0 22 -16 39t-39 17v14h172v-14
q-35 0 -65 -21t-40 -55l-250 -711l-39 -125q-16 -56 -52.5 -98.5t-88.5 -60.5q-16 -6 -43 -8.5t-48 -2.5t-53 1t-42 1h-13q-53 -3 -90 -43q-41 -38 -41 -98q-3 -57 41 -104q44 -44 111 -47q38 -2 81.5 -2t97.5 1t83 1q58 0 103 35.5t55 91.5l2 14h14l-2 -19l-10 -32
q-10 -29 -39 -58q-52 -52 -123 -49q-29 0 -83 0.5t-97.5 0.5t-81.5 -1q-39 -3 -68 8q-50 14 -92 62q-13 16 -35 16q-21 0 -37 -16q-53 -63 -137 -66h-4h-1108l-162 -6q-30 0 -57 6q-35 10 -55 22.5t-47 39.5q-44 62 -49 112q-5 27 2 66q6 28 22 61q26 45 69.5 73t94.5 32h57
l109 -2h383q56 -2 100 33t53 90q2 4 2 12v14q-4 57 -45.5 92t-97.5 35q-45 0 -84 -26q-103 -68 -227 -68q-167 0 -285 115zM180 639q-93 -96 -74 -242q11 -102 74 -192t159 -143.5t198 -53.5q125 0 204 82q91 95 76 240q-20 158 -146 273.5t-284 115.5q-127 0 -207 -80z
M1075 639q-93 -96 -74 -242q17 -154 145.5 -271.5t283.5 -117.5q127 0 206 82q91 95 76 240q-13 102 -75 191.5t-157 143.5t-198 54q-127 0 -207 -80z" />
    <glyph glyph-name="i_p" unicode="ip" horiz-adv-x="1267" 
d="M137 932l-59 59l51 51q39 49 98 76.5t125 24.5q100 -6 172 -78t76 -172q3 -57 -16 -109q-8 -25 -6 -41q0 -10 8.5 -15.5t17.5 -0.5q87 52 201 55h6q169 -2 288 -123t118 -290q0 -170 -121.5 -289t-290.5 -119q-102 3 -176 41q-17 9 -32 -0.5t-15 -28.5v-92l2 -397
q0 -23 16 -40.5t39 -18.5v-15q-66 -2 -205 -2l-2 17q27 0 43 16q17 20 17 43l-3 661l-4 514v21q46 32 76 90q32 66 23 139q-11 85 -71.5 145.5t-145.5 69.5q-85 12 -158 -32q-27 -18 -31 -48.5t19 -52.5zM592 664q-14 -21 -14 -39l2 -269v-239q0 -25 16 -41q90 -99 209 -99
h2q132 0 224.5 115.5t94.5 278.5q1 163 -91 278t-224 117h-2q-125 0 -217 -102zM35 0v16q25 0 42 17.5t17 42.5v618q0 23 -18 41.5t-41 18.5v16h205v-16q-23 -1 -39.5 -19t-16.5 -41v-622q0 -23 16.5 -39.5t39.5 -16.5v-16h-205z" />
    <glyph glyph-name="i_t" unicode="it" horiz-adv-x="933" 
d="M78 991l51 51q42 54 107 81t137 18q97 -14 162.5 -88t66.5 -172q0 -15 -4 -47q-5 -22 7.5 -41.5t35.5 -22.5h68v-16h-60q-28 0 -47.5 -20t-19.5 -48v-63l-2 -488q0 -14 2 -20q0 -9 2 -13q9 -45 42.5 -81t78.5 -48q20 -4 32 -4h13q71 0 119 48.5t51 119.5v2h14v-16
q-6 -71 -59 -120.5t-125 -49.5h-88q-11 0 -35 4q-61 15 -100.5 64.5t-39.5 113.5v4l-2 512v29q49 37 76 90q25 62 25 109q0 103 -73 176t-175 73q-71 0 -129 -36q-27 -15 -31 -47t19 -54l-60 -59zM35 2v14q25 0 42 17.5t17 42.5v618q0 28 -18 43q-17 17 -41 17v16h205v-16
q-24 -2 -40 -19t-16 -41v-622q0 -23 16.5 -39.5t39.5 -16.5v-14h-205z" />
    <glyph glyph-name="k_y" unicode="ky" horiz-adv-x="1570" 
d="M35 14q25 0 42 17.5t17 42.5v1061q0 26 -18 41q-16 16 -41 16v16h205v-16q-24 -2 -40 -18t-16 -39v-723q0 -12 8.5 -20.5t20.5 -8.5h55q37 0 63.5 26.5t26.5 63.5v195q0 44 31 75t74 31h76q43 0 73.5 -31.5t30.5 -74.5h-14q0 37 -26.5 63.5t-63.5 26.5t-63.5 -26.5
t-26.5 -63.5v-195q0 -51 -41 -84q-8 -4 -6.5 -14t10.5 -13q114 -41 184 -141t70 -221v-322q3 -12 14 -12q9 0 12 6q49 65 133 78h193q32 0 55 10q50 17 78 86l29 74q10 29 -7.5 54.5t-48.5 25.5l-241 713q-6 15 -22.5 27t-33.5 12v16h174v-16q-14 0 -22 -12t-4 -25l225 -656
q4 -11 16 -11t15 11l219 619q2 6 2 18q0 23 -15.5 39.5t-39.5 16.5v16h174v-16q-35 0 -65 -21t-42 -55l-250 -713l-38 -125q-20 -72 -74 -123q-37 -30 -68 -37q-22 -5 -51.5 -7.5t-45.5 -3t-57 0t-46 0.5q-54 -3 -93 -45t-39 -96q0 -63 44.5 -107.5t107.5 -44.5
q49 -2 132 -1.5t132 -0.5q65 0 113 45q24 28 35 52l10 30h14l-4 -20l-6 -17q-19 -47 -64.5 -76.5t-97.5 -29.5l-132 1q-132 2 -132 -1q-37 0 -68 8q-119 45 -133 158q-2 10 -2 28v449q0 147 -102 255t-248 114h-88q-12 0 -20.5 -8.5t-8.5 -20.5v-270q0 -23 16.5 -39.5
t39.5 -16.5v-14h-205v14z" />
    <glyph glyph-name="o_e" unicode="oe" horiz-adv-x="1679" 
d="M203 49q-75 60 -113.5 148.5t-38.5 187.5q0 104 57.5 195t151.5 143.5t197 52.5h12q113 -3 208 -63t148 -160q5 -9 15 -9t14 9q51 103 147.5 163t212.5 62h13q8 -8 -4 -104v-2q-30 -233 -189 -533q-10 -21 6 -37q119 -90 254 -90q128 0 207 82q91 95 76 240q-1 6 -3 17.5
t-3 17.5h57q0 -167 -118 -287t-285 -123h-4q-123 0 -224 66q-9 6 -19 3t-15 -12q-91 -137 -187 -252q-53 -63 -128.5 -92.5t-158.5 -19.5q-72 9 -133.5 49t-99.5 102q-62 103 -43 220q3 16 -10 26zM270 131q-3 -15 11 -29q119 -90 254 -90q101 0 178.5 57.5t97.5 153.5
q8 20 8 64q0 31 -2 47l-6 37q-26 115 -112 208t-199 128q-12 3 -23 -4.5t-12 -20.5q-19 -143 -66.5 -270t-128.5 -281zM225 -14q-6 -89 41 -170q41 -71 111 -110.5t153 -39.5q68 0 130 28.5t104 80.5q102 119 180 243q9 14 7 29.5t-13 24.5l-4 4q-55 55 -84 117q0 8 -10 8
t-17 -21l-6 -12q-49 -91 -150.5 -150t-205.5 -59q-106 0 -197 49q-12 8 -25.5 0.5t-13.5 -22.5zM385 725q-81 0 -140 -29.5t-89 -77t-41 -108.5t0 -124t39 -124.5t71 -107.5q7 -9 20 -7.5t19 11.5q151 265 187 536v2q0 5 -1.5 9.5t-4.5 7.5t-6 5t-8 3.5t-9 2.5t-10 1h-9.5
h-9.5h-8zM862 446q-12 -132 123 -292q7 -9 20 -7.5t19 11.5q159 283 184 544q0 23 -63 23q-123 0 -203 -78t-80 -201z" />
    <glyph glyph-name="p_y" unicode="py" horiz-adv-x="1521" 
d="M-186 -469q-13 80 36 145q51 71 136 80q16 4 69 4q19 0 31 12t12 31l-4 859v34q0 25 -17 42.5t-42 17.5v14l149 2v-27q0 -10 9 -15.5t18 -0.5q89 53 201 53h6q111 -1 204 -56.5t146.5 -149t52.5 -203.5q0 -171 -121 -289q-123 -120 -288 -117q-93 0 -176 39
q-17 9 -32.5 -0.5t-15.5 -28.5v-174q0 -18 12.5 -30.5t30.5 -12.5q3 0 225 -2.5t379 -1t191 10.5q33 17 48.5 34.5t29.5 51.5l29 73q10 29 -7.5 54.5t-48.5 25.5l-4 17l-237 694q-5 16 -21 28q-18 11 -35 11v16h174v-16q-13 0 -22 -11.5t-4 -23.5l225 -653q3 -12 15.5 -12
t15.5 12l217 616q4 12 4 18q0 22 -16 38t-39 16v16h172v-16q-35 0 -65 -21t-40 -53l-250 -713l-41 -125q-21 -70 -66.5 -114t-113.5 -54q-6 0 -16.5 -1t-16.5 -1h-680q-19 0 -31 -12t-12 -31v-141q0 -23 16 -39t40 -18v-17l-205 -2v17q23 0 41 18t18 41l-2 141q0 19 -12 31
t-31 12l-61 2q-54 -3 -92.5 -45t-38.5 -96q0 -61 43 -104q41 -47 108 -47q44 -2 1055 -2q64 0 108 39t52 102h16q-9 -70 -57.5 -114t-118.5 -44q-16 0 -186.5 0.5t-342.5 1t-334 0t-192 -1.5q-36 0 -67 8q-34 12 -64 33q-60 50 -69 125zM184 627l4 -506q0 -24 17 -41
q89 -98 207 -98h2q131 2 224 116t93 275q1 162 -90.5 277.5t-222.5 117.5h-2q-125 0 -215 -104q-17 -17 -17 -37z" />
    <glyph glyph-name="s_p" unicode="sp" horiz-adv-x="1609" 
d="M49 487q-18 57 2 117q26 80 99.5 123.5t164.5 46.5q69 0 119 -20q12 -4 20 3.5t5 18.5q-19 49 -19 94q0 109 78 187t187 78q108 0 184 -71.5t80 -178.5q6 -87 -39 -154q3 -8 10.5 -11t13.5 1q89 53 199 53h6q166 -2 283.5 -120.5t116.5 -284.5q0 -167 -121 -285
q-57 -56 -131.5 -86t-153.5 -29q-91 0 -174 39q-15 8 -31 -1t-16 -27v-13l2 -78v-391q0 -23 16 -39t39 -18v-14l-201 -2v16q22 0 41 16q17 17 17 41l-6 1145v19q64 43 88 98q26 48 26 110q0 111 -83.5 186t-196.5 62q-84 -11 -145 -72t-70 -145q-15 -121 69 -205l4 -4
q26 -26 60 -43v-51h-19q-22 66 -80 107.5t-131 50.5q-64 8 -125.5 -12t-103.5 -64q-37 -40 -45 -86q-6 -47 12 -88q32 -72 138 -111q19 -5 52 -17t48 -16l74 -28q45 -22 70 -42.5t44 -58.5q32 -59 17 -118q-3 -17 -25 -56q-24 -29 -39 -41q-45 -34 -100 -43q-1 0 -47 -6h-8
q-87 0 -150 51l-12 13q-10 9 -23.5 3t-13.5 -20v-41h-16v175h16q0 -73 61.5 -119.5t137.5 -46.5h8q30 4 43 8q41 7 88 45q21 22 29 39q17 29 12.5 65t-27.5 62q-12 15 -23.5 24.5t-30.5 17.5t-27 10.5t-36 10.5q-8 3 -24.5 8.5t-24.5 8.5q-79 27 -100 36q-31 10 -53 27
q-11 6 -25 16l-22 21q-48 48 -62 104zM930 356l2 -235q0 -25 16 -41q90 -96 205 -96h2q129 1 220 114t93 271q1 161 -89.5 275t-219.5 116h-2q-120 0 -213 -103q-14 -17 -14 -39v-262z" />
    <glyph glyph-name="f_s" unicode="fs" horiz-adv-x="876" 
d="M238 -2h-218v16q25 0 42.5 17.5t17.5 42.5v35l2 618q0 11 -7 18t-18 7h-37v14h37q10 0 17.5 8t7.5 17v235q0 64 39.5 114.5t99.5 65.5q24 4 35 4h88q4 0 12.5 -1t12.5 -1q63 -8 111 -57.5t48 -112.5v-14h-14v14q-6 53 -37 92l-12 13q-32 32 -76.5 44t-87.5 1
q-55 -15 -91 -60.5t-36 -103.5v-328l2 -495l2 -92v-35q0 -26 17 -43q20 -17 43 -17v-16zM283 485q-16 64 2 121q25 80 102.5 126t165.5 46h2q140 3 227 -90q10 -10 23.5 -4t13.5 21v63h17v-170h-19q-18 57 -67 100q-25 25 -67 42t-81 22q-66 6 -128.5 -14.5t-104.5 -65.5
q-37 -40 -45 -86q-8 -44 12 -90q33 -77 139 -113q32 -9 103 -35q9 -2 51 -18l24 -10q5 -1 15 -6.5t14 -6.5q57 -31 88 -88q31 -61 16 -123q-9 -47 -65 -96q-49 -36 -103 -45q-54 -14 -118.5 3t-102.5 55q-11 10 -24 4.5t-13 -19.5v-43h-16v178h16q0 -34 20.5 -73.5
t49.5 -53.5q56 -41 133 -41h6q48 0 94.5 26t71.5 67q29 72 -14 129q-29 34 -74 49l-198 69q-49 22 -80 45l-23 21q-48 45 -63 104z" />
    <glyph glyph-name="s_s" unicode="ss" horiz-adv-x="1185" 
d="M596 -14v166h18q1 0 5 -11.5t4 -13.5q11 -21 20 -33q62 -89 182 -102q64 -8 125 12.5t105 65.5q28 30 39.5 70t1.5 79q-24 89 -154 137q-15 5 -62 19.5t-78.5 27t-58.5 29.5q-55 30 -84 86.5t-14 116.5q21 76 91.5 113.5t152.5 29.5q77 -7 127 -51q4 -4 16 -12
q12 -4 19 -2q14 8 14 28q-4 23 -2 33h16v-174h-16q3 0 -3.5 26.5t-8.5 30.5q-6 15 -21.5 34t-28.5 28l-6 6q-67 49 -159 39q-44 -7 -83 -29.5t-57 -58.5q-2 -2 -6 -10q-21 -55 12 -109q24 -39 80 -59q27 -10 84.5 -28.5t92.5 -31t77 -40.5t68 -64q47 -65 39.5 -147.5
t-68.5 -137.5q-82 -73 -203 -76q-67 -1 -126.5 22.5t-98.5 65.5q-11 11 -24 6t-13 -20v-61h-14zM82 422q-47 65 -39.5 147.5t68.5 137.5q80 72 202 75q66 1 125.5 -22.5t100.5 -65.5q9 -11 22.5 -5.5t13.5 20.5v61h15v-166h-19q-1 0 -4.5 11.5t-3.5 13.5q-11 21 -20 33
q-61 88 -183 102q-64 8 -125.5 -12.5t-103.5 -65.5q-29 -29 -40 -69t-1 -80q24 -90 154 -138q16 -6 62 -20t77.5 -26t58.5 -29q55 -31 84 -87.5t15 -115.5q-21 -76 -91.5 -114t-152.5 -30q-76 6 -127 52q-4 4 -16 12q-12 4 -19 2q-14 -8 -14 -29q4 -23 2 -32h-17v174h17
q-3 0 3.5 -27t8.5 -31q6 -15 21 -33.5t28 -27.5l6 -6q67 -49 160 -39q44 7 82.5 29.5t56.5 58.5q4 4 7 10q20 54 -13 109q-24 39 -80 59q-27 10 -84.5 28.5t-92 31t-76.5 40.5t-68 64z" />
    <glyph glyph-name="t_w" unicode="tw" horiz-adv-x="1411" 
d="M20 653v111l97 129v-53q0 -28 19.5 -48t47.5 -20h232v-16q-13 0 -21.5 -11.5t-3.5 -23.5l225 -658q3 -11 15.5 -11t15.5 11l139 396q13 33 0 65l-65 193q-5 16 -21 28q-18 11 -34 11v16h174v-16q-9 0 -11 -2q-9 -3 -13.5 -13t-0.5 -20l225 -658q3 -11 15.5 -11t15.5 11
l219 621q2 6 2 16q0 23 -16 39.5t-39 16.5v16h174v-16q-35 0 -64.5 -21t-41.5 -55l-209 -596q-4 -12 -4 -16q0 -20 14.5 -35t34.5 -15l-4 -16h-203v16h24l-135 398q-5 12 -17.5 12.5t-17.5 -12.5l-116 -332q-4 -12 -4 -16q0 -20 14.5 -35t34.5 -15l-4 -16h-203v16h25
l-238 699q-5 16 -21 28q-18 11 -34 11h-58q-28 0 -47.5 -20t-19.5 -48v-63l-2 -488q0 -53 37 -101t88 -61q20 -4 32 -4h13q79 0 131 62q37 50 37 106v2h16v-16q-6 -71 -59 -120.5t-125 -49.5h-88q-15 0 -35 4q-61 15 -100 64.5t-39 113.5v4z" />
    <glyph glyph-name="t_t" unicode="tt" horiz-adv-x="888" 
d="M23 147l-3 506v109l95 129v-53q0 -28 19.5 -48t47.5 -20h58v-14h-58q-28 0 -47.5 -20t-19.5 -48v-63l-2 -482q0 -64 46 -113.5t109 -49.5h13q69 0 118.5 47t49.5 116v4l-3 506v109l95 129v-53q0 -28 19.5 -48t47.5 -20h58v-14h-58q-28 0 -47.5 -20t-19.5 -48v-63l-2 -482
q0 -64 46 -113.5t109 -49.5h13q70 0 118.5 47.5t48.5 117.5v2h15v-16q-5 -71 -57.5 -119.5t-124.5 -48.5h-86q-11 0 -35 4q-81 18 -119 96q-3 7 -11.5 7t-11.5 -7q-24 -45 -67 -72.5t-96 -27.5h-86q-11 0 -35 4q-60 15 -98.5 64t-38.5 112v4z" />
    <glyph glyph-name="t_t_y" unicode="tty" horiz-adv-x="1372" 
d="M23 143l-3 510v111l95 129v-53q0 -29 20 -49.5t49 -20.5h58v-14h-58q-29 0 -49 -20t-20 -48v-549q0 -57 35 -101.5t90 -57.5q111 -23 174 57q37 47 37 102v4l-2 510v111l96 129v-53q0 -29 19.5 -49.5t47.5 -20.5h191v-14q-13 0 -21.5 -11.5t-3.5 -23.5l223 -655
q5 -10 17 -10t16 10l217 616q2 6 2 18q0 23 -15.5 39.5t-39.5 16.5v16h174v-16q-35 0 -64.5 -21t-41.5 -55l-248 -711l-41 -125q-16 -56 -52.5 -99t-88.5 -60q-22 -7 -47 -9t-63.5 0t-49.5 2q-71 0 -120.5 -37.5t-49.5 -105.5q0 -63 44 -107t107 -44q44 -2 263 -2
q67 0 112 45q20 18 35 51l6 14l6 31h17l-15 -51q-20 -49 -64 -78t-97 -29l-132 1q-131 2 -131 -1q-36 0 -67 8q-119 45 -133 158q-13 79 37 145q51 71 135 80q8 3 47.5 3t88.5 -1.5t56 -1.5q46 0 80.5 26t52.5 71l27 73q11 29 -5.5 54.5t-47.5 25.5l-13 35q-5 15 -21.5 17
t-25.5 -11q-55 -88 -157 -88h-86q-25 0 -35 2q-70 19 -109 80q-8 11 -22.5 11.5t-22.5 -11.5q-25 -37 -66 -59.5t-87 -22.5h-86q-25 0 -35 2q-61 15 -100 64.5t-39 113.5v4zM545 625l-2 -486q0 -68 54.5 -113.5t123.5 -45.5q66 0 113 47.5t47 113.5v2l-195 574
q-14 39 -55 39h-19q-28 0 -47.5 -20t-19.5 -48v-63z" />
    <glyph glyph-name="e_e_t" unicode="eet" horiz-adv-x="1982" 
d="M51 362q-3 167 115 285q60 62 130 89.5t165 33.5v-2q5 -27 -4 -98q-5 -49 -19 -109q-19 -145 -172 -428q-3 -17 13 -27q116 -90 249 -90q120 0 198 75.5t81 195.5q-8 33 -8 75q-3 168 114 285q101 104 240 119q37 7 47 43q17 76 78.5 125t142.5 49q63 0 116 -31.5
t83 -83.5q3 -7 10 -25t11.5 -27.5t13 -22t21 -18t28.5 -5.5h57v-14h-57q-28 0 -48 -20t-20 -48v-31q0 -73 -1 -218t-1 -216q0 -7 -0.5 -30t0 -33.5t2.5 -27.5t6 -30q12 -40 43.5 -71t71.5 -41q20 -4 33 -4h10q69 0 118.5 47.5t49.5 116.5v2h14v-15q-6 -71 -58 -119.5
t-124 -48.5q-8 0 -28.5 -0.5t-32 0t-29 1.5t-32 4t-27.5 8q-56 24 -86 77q-13 26 -15 39q-1 3 -2 17.5t-6 17.5q-5 5 -12 2q-6 -3 -11.5 -9t-11 -15t-8.5 -13q-21 -25 -41 -39q-50 -45 -119.5 -69.5t-138.5 -24.5q-120 0 -221 66q-16 13 -29 -4q-78 -126 -186 -254
q-44 -54 -107.5 -83.5t-134.5 -29.5q-84 0 -156.5 42t-115.5 114q-58 98 -39 209q3 17 -12 32l-27 23q-118 115 -121 282zM1014 131q-4 -15 10 -25q119 -90 252 -90q96 0 172 55.5t96 147.5l-2 434v86q0 22 14 43l29 39q26 37 -2 72q-63 76 -162 76q-86 0 -147 -59t-66 -144
q3 -19 -2 -84q-23 -152 -65.5 -267.5t-126.5 -283.5zM225 16q-11 -33 2 -98q20 -106 103 -174t192 -68q105 0 185 62q87 67 233 301q6 10 0 21t-21.5 23t-17.5 15q-30 34 -51 72q-8 14 -23 14t-22 -14q-54 -95 -148 -150t-204 -55q-109 0 -195 51q-5 4 -11.5 6.5t-13 1.5
t-8.5 -8zM137 584q-33 -58 -35.5 -128t19 -133.5t61.5 -119.5q18 -24 41 -47q7 -9 19 -7.5t18 11.5q9 16 24 43.5t19 34.5q0 1 1 3t1 3q109 229 137 438v8q2 9 -4.5 17t-15.5 8q-87 11 -165 -23.5t-120 -107.5zM856 514q-22 -92 11 -188.5t102 -169.5q9 -9 21 -8t18 12
q158 281 182 536q-1 6 -4 10t-8 6.5t-9 4t-11 2t-10.5 0.5h-11h-8.5q-98 0 -173 -55t-99 -150z" />
    <glyph glyph-name="e_t" unicode="et" horiz-adv-x="1236" 
d="M51 360q-3 166 115 287q109 109 258 121q9 0 16 7t9 16q14 82 77.5 137t147.5 55q64 0 117 -32t83 -85q4 -9 10 -26t10.5 -27t12.5 -21t20.5 -16.5t30.5 -5.5h58v-16h-58q-36 0 -55 -29q-12 -15 -12 -37v-176q0 -34 -1 -101.5t-1 -101.5v-127q0 -87 41 -142.5t125 -55.5
q68 0 118 49t50 117h14v-15q-6 -71 -58 -119.5t-124 -48.5h-25.5h-27t-24.5 1t-26 2.5t-23 5t-25 8t-22 12t-22 16.5q-50 43 -59 99q0 22 -10 24q-8 2 -21 -18q-45 -68 -135 -110t-176 -44h-4q-165 0 -283 116t-121 281zM270 145q-13 -23 9 -41q117 -90 251 -90q96 0 169 52
t100 153l-2 434v76q0 32 20 59q25 35 18 78t-42 66q-53 35 -119 35q-87 0 -149 -61t-62 -148q0 -145 -55 -308.5t-138 -304.5zM115 530q-30 -96 2 -198.5t106 -177.5q7 -8 19 -6.5t18 10.5q158 269 184 530q1 17 -14 24t-41 7q-97 0 -171.5 -49t-102.5 -140z" />
    <glyph glyph-name="h_j" unicode="hj" horiz-adv-x="1034" 
d="M35 18q22 0 40.5 19t18.5 41v35l2 409v13l2 96l2 512q0 24 -16 43q-16 16 -43 16v17h211v-17q-20 0 -39.5 -20t-19.5 -39v-35l-3 -336q0 -15 14 -23t29 -1q57 26 117 26q105 0 178.5 -72.5t73.5 -177.5v-2l-2 -1079q0 -25 16 -41l2 -2q12 -16 62 -16h12q11 0 31 4
q57 18 92 62t35 101v422l-2 691l-2 34q0 25 -17.5 42.5t-42.5 17.5v16h218v-16q-25 0 -42.5 -17.5t-17.5 -42.5v-34l-2 -637v-476q0 -65 -39 -115t-100 -65q-24 -4 -35 -4l-121 2q-61 12 -100 61t-39 111v13l4 1001q-9 88 -55 146.5t-107 58.5q-68 0 -109.5 -61.5
t-52.5 -137.5l-2 -483q0 -25 17.5 -42.5t42.5 -17.5v-16h-211v16zM893 938l-59 59l59 60l59 -60z" />
    <glyph glyph-name="o_t" unicode="ot" horiz-adv-x="1452" 
d="M174 70q-118 117 -122.5 282.5t106.5 288.5l10 10q123 123 291 123q55 0 94 -10q18 -3 29 10.5t4 30.5q-25 55 -25 110q0 113 79 192t191 79q47 0 99 -19q85 -31 132 -107t38 -167v-53q0 -28 19.5 -48t47.5 -20h60v-16h-60q-28 0 -47.5 -20t-19.5 -48v-63l-2 -488
q0 -64 47 -116t110 -52h13q68 0 119 50t51 118v2h14v-14q-4 -72 -58 -122t-126 -50h-88q-11 0 -35 4q-61 15 -100 65t-39 115v2l-2 514v56q0 19 12 34q51 54 63 123q6 24 6 49q0 113 -84.5 190t-199.5 64q-88 -9 -151 -73t-72 -152q-7 -68 19.5 -128t78.5 -101
q19 -11 31 -21q77 -55 121 -144t44 -185q0 -171 -119.5 -291.5t-289.5 -120.5q-169 0 -289 117zM170 631q-82 -94 -66 -234q11 -102 75 -192.5t161 -144.5t199 -54q118 0 196 72q104 104 86 252q-13 102 -76 192.5t-159 145.5t-199 55q-120 0 -197 -74q-4 -2 -10 -8z" />
    <glyph glyph-name="o_f" unicode="of" horiz-adv-x="1382" 
d="M174 82q-118 117 -122.5 282.5t106.5 288.5l20 21q120 114 285 114q40 0 88 -10q27 -8 63 -8h357q10 0 17 7.5t9 17.5v237q0 64 39.5 114.5t100.5 65.5q25 5 34 5h86q72 0 126.5 -50.5t60.5 -122.5v-14h-14v2q-3 68 -52 117q-36 36 -76.5 45.5t-87.5 -0.5
q-54 -15 -89 -60.5t-35 -103.5v-233q0 -11 7 -19t17 -8h234v-14h-234q-10 0 -17 -8t-7 -17v-20l2 -506v-127q0 -25 17 -42.5t42 -17.5v-16h-217v16q25 0 42 17.5t17 42.5v35l4 618q-4 25 -26 25h-242q-22 0 -28.5 -19.5t10.5 -31.5q75 -53 118 -143t43 -185q0 -81 -30 -157
t-86 -132l-11 -10q-119 -113 -282 -113q-169 0 -289 117zM170 643q-81 -94 -66 -233q11 -102 75 -192.5t161 -145t199 -54.5q60 0 123 24.5t92 68.5q82 92 67 231q-13 102 -76 192.5t-159 145.5t-199 55q-125 0 -217 -92z" />
    <glyph glyph-name="r_t" unicode="rt" horiz-adv-x="1062" 
d="M31 0v16q16 -1 30.5 10t20.5 27q5 9 7.5 23t3 21t0 26.5t-0.5 21.5v332q0 17 1 67t0.5 85t-5.5 67q-13 62 -57 62v14h151q9 -27 21 -33q9 -5 19 1t9 16l-6 12q-55 72 -51.5 169.5t62.5 166.5q6 8 14 14q35 38 86 59t104 21q76 0 141.5 -39.5t100.5 -107.5
q8 -15 13.5 -32.5t8 -30.5t4 -34.5t2 -31.5t0 -35t-0.5 -33q0 -29 20 -49.5t49 -20.5h58v-16h-58q-29 0 -49 -20t-20 -48v-501q0 -8 -0.5 -23t-0.5 -24t1 -22t4 -24q12 -43 45 -75.5t76 -42.5q48 -12 97 3.5t79 53.5q36 41 39 105v2h14v-15q-6 -80 -70 -131
q-32 -26 -70 -33.5t-94 -7.5q-92 0 -152.5 46t-60.5 139v2l-2 514v24q0 45 25 80q40 51 51.5 115.5t-8.5 124.5q-29 86 -107.5 134.5t-166.5 37.5q-65 -9 -120 -50.5t-81 -101.5q-25 -59 -18.5 -127t44.5 -121q13 -18 25 -20q7 -3 31 2q27 6 55 6q70 0 132.5 -37t92.5 -98
h-63q1 30 -17.5 58t-48.5 42q-49 26 -123 19q-76 -10 -103.5 -45.5t-27.5 -112.5q-1 -84 -2 -251.5t-2 -250.5q0 -31 6 -43q6 -15 21.5 -25t32.5 -10v-16h-211z" />
    <glyph glyph-name="v_e" unicode="ve" horiz-adv-x="1511" 
d="M55 715q-14 39 -55 39v16h174v-16q-14 0 -22.5 -11.5t-4.5 -23.5l226 -656q4 -12 15.5 -12t14.5 12q33 86 52 142q33 98 90 256q83 234 162 471q20 61 70 93.5t114 27.5q65 -6 108 -47t52 -105q23 -165 -15 -336q-50 -216 -172 -422q-13 -23 8 -41q118 -92 256 -92
q126 0 205 82q92 95 76 242q-1 6 -3 17.5t-3 17.5h57q0 -168 -114 -285v-2h-3q-55 -58 -131.5 -90.5t-158.5 -32.5q-168 0 -287.5 117.5t-122.5 285.5q-3 171 117 291q94 97 227 119q25 3 41 23t14 45q-5 50 -6 59q-10 64 -52.5 99t-92.5 40q-52 4 -100 -22t-68 -88
q-54 -163 -113 -330q-18 -52 -53 -147.5t-62.5 -174t-50.5 -149.5q-1 -4 -6.5 -18t-8.5 -24t-3 -19q0 -19 14 -33.5t35 -14.5l-6 -16h-203v16h27zM705 530q-28 -96 5 -198.5t107 -179.5q7 -8 19 -6t18 12q82 139 126.5 269t59.5 280q0 18 -51 18q-58 0 -76 -6
q-77 -18 -132 -66.5t-76 -122.5z" />
    <glyph glyph-name="v_e_e" unicode="vee" horiz-adv-x="2275" 
d="M33 748q-10 10 -33 10v16h174v-16q-14 0 -22.5 -11t-4.5 -24l226 -655q5 -10 16 -10t14 10q240 681 304 870q20 61 70.5 94t113.5 27q45 -4 77 -23t49.5 -44t27 -64t12 -70.5t2.5 -75.5q0 -310 -195 -632q-6 -11 -3.5 -23t11.5 -18q119 -93 256 -93q126 0 205 82
q81 84 78 211q-13 92 17.5 184t95.5 158q117 120 286 123h5q10 -17 10 -37q0 -35 -6 -69q-25 -214 -140 -435v-2q-18 -39 -55 -104v-2q0 -15 12 -27q119 -90 254 -90q128 0 207 82q91 94 76 242q-1 5 -3 16.5t-3 16.5h57q1 -91 -38.5 -175t-110.5 -143q-110 -88 -256 -88
q-125 0 -232 66q-14 11 -24 -5q-82 -132 -191 -260q-45 -55 -110 -84.5t-136 -29.5q-124 0 -217 86t-104 209q0 48 2 57q0 2 3 13.5t3 15.5t-2 14q-3 5 -12 10q-72 55 -113 140.5t-43 177.5q-3 170 117 290q96 99 227 117q25 5 40.5 24.5t14.5 45.5q-16 189 -151 196
q-51 5 -99.5 -21t-68.5 -87q-97 -292 -145 -420l-150 -426q-2 -6 -2 -16q0 -21 14 -35t35 -14l-6 -17h-203v17h27l-238 696q-7 20 -22 29zM821 -12q-6 -86 35 -164q34 -65 95 -108t134 -52q78 -10 151 18.5t124 88.5q103 123 184 247q14 29 -8 48l-6 6q-49 49 -74 98
q-7 15 -23.5 15.5t-25.5 -13.5q-25 -48 -61 -84h-3q-116 -122 -286 -125h-4q-105 0 -191 47q-14 7 -26.5 0t-14.5 -22zM1534 639q-58 -59 -71 -140t9 -155.5t68 -144.5q14 -20 41 -49q7 -9 20 -7.5t19 11.5q72 123 122 268t62 276q-3 27 -53 27q-61 0 -118.5 -22.5
t-98.5 -63.5zM770 647q-98 -101 -72 -264q2 -4 2 -10q16 -75 58 -140q8 -8 16 -24l5 -7q5 -7 15 -19t23 -25q7 -8 19 -6.5t18 10.5q84 144 127.5 270.5t58.5 280.5q-8 20 -53 20q-60 0 -120 -23t-97 -63z" />
    <glyph glyph-name="v_i" unicode="vi" horiz-adv-x="978" 
d="M0 752v16h174v-16q-14 0 -22.5 -11.5t-4.5 -23.5l226 -656q5 -11 16 -11t14 11l220 617q2 6 2 18q0 24 -16 40t-40 16v16h379v-16q-23 -1 -39 -19t-16 -41v-620q0 -25 15 -40.5t40 -15.5v-16h-205v16q25 0 42.5 17.5t17.5 42.5v616q0 25 -19 41q-16 19 -41 19
q-35 0 -64.5 -21t-41.5 -55l-209 -594q-8 -25 6.5 -45.5t40.5 -20.5l-6 -16h-203v16h27l-238 697q-14 39 -55 39zM786 987l60 60l59 -60l-59 -57z" />
    <glyph glyph-name="v_i_p" unicode="vip" horiz-adv-x="1787" 
d="M55 711q-6 15 -22 27t-33 12v16h174v-16q-14 0 -22.5 -12t-4.5 -25l226 -656q5 -11 16 -11t14 11l220 619q2 6 2 18q0 22 -16 39t-40 17v16h529v-27q0 -10 9.5 -15.5t18.5 -0.5q87 52 199 55h8q169 -3 287 -123.5t117 -289.5q0 -169 -121 -287q-122 -122 -291 -119
q-94 0 -174 41q-17 8 -33 -2t-16 -29v-12l2 -78v-397q0 -23 16 -41t39 -19v-14l-205 -2v16q26 0 43 17t17 43l-2 659l-4 514v35q0 25 -17.5 42.5t-42.5 17.5q-23 -1 -39 -19t-16 -41v-622q0 -23 16 -39.5t39 -16.5v-14h-205v14q25 0 42.5 17.5t17.5 42.5v618q0 25 -19 41
q-19 19 -41 19q-35 0 -64.5 -21t-41.5 -55l-209 -596q-8 -24 6.5 -45t40.5 -21l-6 -14h-203v14h27zM1100 621v-267l2 -241q0 -22 16 -41q92 -99 203 -99q129 0 227.5 118t98.5 276q1 161 -91 277t-223 118h-2q-126 0 -217 -105q-14 -17 -14 -36zM846 926l-60 59l60 59
l59 -59z" />
    <glyph glyph-name="w_e" unicode="we" horiz-adv-x="1935" 
d="M55 715q-14 39 -55 39v16h174v-16q-14 0 -22.5 -11.5t-4.5 -23.5l226 -656q4 -12 15.5 -12t14.5 12l140 394q12 35 0 65l-66 193q-5 16 -20 28q-18 11 -33 11v16h172v-16q-13 0 -21.5 -11.5t-3.5 -23.5l226 -656q3 -11 14 -11t16 11q10 33 27 74q44 128 115 328
q45 123 161 469q20 60 70.5 93.5t114.5 27.5q63 -4 107 -46.5t53 -105.5q19 -183 -15 -338q-50 -216 -172 -422q-6 -9 -3.5 -21t11.5 -20q119 -90 252 -90q127 0 209 82q90 90 74 240q0 17 -6 35h59q0 -169 -117 -288t-286 -122h-6q-166 0 -286.5 118t-123.5 285
q0 154 97 269.5t247 140.5q32 5 46 29.5t11 57.5t-12.5 62.5t-21.5 51.5q-18 28 -50.5 45t-68.5 20q-51 5 -99 -21.5t-69 -88.5q-50 -152 -84 -248q-27 -74 -57 -166q-72 -201 -91 -256q-10 -29 -30.5 -87t-30.5 -87q-4 -12 -4 -16q0 -20 14.5 -35t34.5 -15l-6 -16h-201v16
h25l-140 412q-3 9 -12 9t-12 -9l-123 -346q-2 -6 -2 -16q0 -21 14 -35.5t35 -14.5l-6 -16h-203v16h27zM1126 528q-27 -96 6.5 -197t106.5 -177q9 -9 21 -8t18 12q170 290 184 549q-2 7 -7.5 11t-14.5 5.5t-14 2t-16.5 0t-12.5 -0.5q-95 0 -170 -53t-101 -144z" />
    <glyph glyph-name="w_e_e" unicode="wee" horiz-adv-x="2691" 
d="M0 772h174v-16q-14 0 -22.5 -11t-4.5 -24l226 -655q5 -10 16 -10t14 10l138 385q9 31 0 63l-70 203q-6 19 -22 28q-11 11 -33 11v16h174v-16q-14 0 -22.5 -11t-4.5 -24l37 -103l188 -552q4 -10 16 -10t15 10q9 24 26.5 74t26.5 75q210 600 250 721q20 61 71 94t114 27
q45 -4 77 -23t49.5 -44t27 -64t12 -70.5t2.5 -75.5q0 -311 -195 -633q-6 -11 -3.5 -23t11.5 -18q114 -88 258 -88q112 0 191 62t88 180q1 13 1.5 93t12.5 122q37 130 143.5 212t243.5 85h4q12 -31 5 -104t-19 -107q-31 -159 -121 -330v-2q-18 -39 -55 -104v-2q0 -15 12 -27
q119 -90 254 -90q128 0 207 82q91 94 76 242q-1 5 -3 16t-3 16h57q3 -160 -115 -284v-2q-120 -120 -289 -123h-4q-66 0 -125 20q-22 7 -57.5 26.5t-48.5 25.5q-14 9 -25 -9q-75 -122 -188 -258q-45 -55 -110 -84.5t-136 -29.5q-87 0 -160 42t-116 117q-65 105 -39 228l2 2v2
q0 4 -4 8h-2l-17 14h-2q-4 3 -11 10.5t-11 10.5q-120 117 -123 289q0 153 96.5 269t247.5 138q25 5 40.5 24.5t14.5 45.5q-1 10 -3 29.5t-3 29.5q-10 65 -52.5 99.5t-92.5 37.5q-51 5 -99.5 -21t-68.5 -87q-36 -107 -146 -420l-149 -426q-2 -6 -2 -16q0 -21 14 -35.5
t35 -14.5l-6 -16h-203v16h27l-136 396q-3 10 -14 10t-14 -10l-117 -330q-2 -6 -2 -16q0 -21 14 -35.5t35 -14.5l-6 -16h-203v16h27l-238 697q-6 19 -22 28q-11 11 -33 11v16zM1237 -14q-6 -86 35 -164q34 -65 95 -108t134 -52q78 -10 151 18.5t124 88.5q103 123 184 247
q14 28 -8 47l-6 7q-49 49 -74 98q-7 15 -23.5 15.5t-25.5 -13.5q-50 -96 -145 -151.5t-205 -57.5h-5q-104 0 -190 47q-14 7 -26.5 0t-14.5 -22zM1950 637q-64 -65 -74 -159t24.5 -180.5t96.5 -150.5q8 -9 20.5 -7.5t18.5 12.5q72 123 122 268t62 276q1 14 -14 19.5t-41 5.5
q-137 0 -215 -84zM1186 645q-57 -58 -71 -138.5t7.5 -157.5t69.5 -144q11 -15 41 -49q7 -8 19 -6.5t18 10.5q84 144 127.5 270.5t58.5 280.5q-8 20 -53 20q-60 0 -119 -23t-98 -63z" />
    <glyph glyph-name="w_i" unicode="wi" horiz-adv-x="1398" 
d="M55 719q-6 18 -21.5 29.5t-33.5 11.5v16h176v-16q-14 0 -22 -12t-4 -25l227 -662q3 -11 15.5 -11t15.5 11l137 385q7 23 0 46l-78 227q-6 19 -23 29q-12 12 -32 12v16h174v-16q-2 0 -5.5 -1t-5.5 -1q-9 -5 -13.5 -15t-0.5 -20l39 -115v-2l188 -545q3 -11 14.5 -11
t16.5 11l219 625q4 12 4 19q0 22 -16 38.5t-39 16.5v16h381v-16q-23 -1 -39 -19t-16 -41v-628q0 -23 16 -39.5t39 -16.5v-16h-207v16q25 0 42.5 17.5t17.5 42.5v624q0 24 -17 41q-23 19 -43 19q-35 0 -64.5 -21t-41.5 -55l-211 -602q-4 -12 -4 -16q0 -20 15 -35t36 -15
l-6 -16h-205v16h27l-136 398q-3 8 -11 8t-11 -8l-117 -332q-2 -6 -2 -16q0 -21 14 -35.5t35 -14.5l-6 -16h-205v16h27zM1204 997l60 62l61 -62l-61 -59z" />
    <glyph glyph-name="w_i_p" unicode="wip" horiz-adv-x="2215" 
d="M0 776h176v-16q-13 0 -22 -11.5t-4 -23.5l227 -664q3 -11 15.5 -11t15.5 11l137 385q6 26 0 48l-78 227q-14 39 -55 39v16h174v-16q-7 0 -11 -2q-9 -5 -13.5 -14.5t-0.5 -18.5l39 -117v-2l188 -545q3 -11 14.5 -11t16.5 11l219 625q4 12 4 19q0 22 -16 38.5t-39 16.5v16
h533v-26q0 -11 8.5 -16t17.5 1q92 53 203 53h6q170 -2 290.5 -123.5t119.5 -291.5q0 -171 -123 -291q-122 -122 -293 -119q-96 0 -176 41q-17 8 -33 -2t-16 -29v-92l2 -401q0 -24 16 -41t39 -17v-16l-207 -2v16q25 0 42.5 17.5t17.5 42.5l-2 667l-5 519v34q0 25 -17 42.5
t-42 17.5q-23 -1 -39 -19t-16 -41v-628q0 -23 16 -39.5t39 -16.5v-16h-207v16q25 0 42.5 17.5t17.5 42.5v624q0 23 -17 43q-20 17 -43 17q-35 0 -64.5 -21t-41.5 -55l-211 -602q-4 -8 -4 -16q0 -20 15 -35t36 -15l-6 -16h-205v16h27l-136 398q-3 8 -11 8t-11 -8l-117 -332
q-2 -4 -2 -16q0 -21 14 -35.5t35 -14.5l-6 -16h-205v16h27l-240 705q-6 15 -20 29q-17 10 -35 10v16zM1520 629l4 -510q0 -24 16 -43q87 -96 209 -99h4q132 2 226 117.5t94 278.5q1 164 -91.5 280.5t-226.5 118.5h-2q-122 3 -217 -102q-12 -15 -16 -41zM1266 940l-62 59
l62 60l59 -60z" />
    <glyph glyph-name="w_j" unicode="wj" horiz-adv-x="1411" 
d="M55 721q-16 39 -55 39v16h176v-16q-13 0 -22 -11.5t-4 -23.5l227 -664q3 -11 15.5 -11t15.5 11l137 388q6 23 0 45l-78 227q-14 39 -55 39v16h174v-16q-7 0 -11 -2q-9 -5 -13.5 -14.5t-0.5 -18.5l39 -117v-2l188 -545q3 -11 14.5 -11t16.5 11l219 625q4 12 4 19
q0 22 -16 38.5t-39 16.5v16h393v-16q-25 0 -43 -17.5t-18 -42.5v-34l-2 -639v-478q0 -64 -39.5 -114.5t-99.5 -65.5q-24 -4 -37 -4h-86q-74 0 -128.5 50t-58.5 122v14h15q0 -70 50.5 -119.5t121.5 -49.5h10q13 0 33 4q55 18 91 62.5t36 100.5v424l-2 693l-2 34
q0 25 -17.5 42.5t-42.5 17.5q-35 0 -64.5 -21t-41.5 -55l-211 -602q-4 -8 -4 -16q0 -20 15 -35t36 -15l-6 -16h-205v16h27l-136 398q-3 8 -11 8t-11 -8l-117 -332q-2 -4 -2 -16q0 -21 14 -35.5t35 -14.5l-6 -16h-205v16h27zM1208 999l60 60l59 -60l-59 -59z" />
    <glyph glyph-name="CO.ss01" unicode="Co" horiz-adv-x="1558" 
d="M498 432q-117 116 -122 278.5t105 282.5q61 59 142.5 91t167.5 32q167 0 279 -113.5t112 -281.5q0 -156 -105 -270q-4 -8 -10 -11q-3 -7 -10 -10q-119 -113 -279 -113q-162 0 -280 115zM512 1004q-102 -102 -84 -248q17 -154 144 -269.5t282 -115.5q118 0 193 69l20 21
q78 91 63 227q-17 156 -143 270.5t-282 114.5q-118 0 -193 -69zM59 655q-13 165 43 315.5t166 260.5q99 99 229 155.5t273 57.5h16v-125h-16q0 65 -82 65q-244 0 -407 -163l-11 -11l-10 -10q-159 -180 -141 -432q9 -134 70 -260.5t155.5 -221t220.5 -155.5t260 -70
q127 -9 242 30.5t201 121.5l20 20q167 176 152 429q-1 26 -20 42.5t-46 16.5v16h127v-16q0 -146 -56.5 -278t-156.5 -232q-110 -110 -260 -166t-315 -43q-170 15 -314 105t-234.5 234t-105.5 314z" />
    <glyph glyph-name=".notdef" horiz-adv-x="512" 
 />
    <glyph glyph-name="uni0000" horiz-adv-x="0" 
 />
    <glyph glyph-name="uni0000" horiz-adv-x="0" 
 />
    <glyph glyph-name="uni000D" unicode="&#xd;" horiz-adv-x="681" 
 />
    <glyph glyph-name="space" unicode=" " horiz-adv-x="512" 
 />
    <glyph glyph-name="exclam" unicode="!" horiz-adv-x="200" 
d="M100 84l60 -59l-60 -60l-59 60zM109 1372v-1151h-17v1151h17z" />
    <glyph glyph-name="quotedbl" unicode="&#x22;" horiz-adv-x="360" 
d="M184 1278l135 135l11 -10l-78 -80l45 -45l-57 -57zM88 1221l-57 57l135 135l10 -10l-78 -80l47 -45z" />
    <glyph glyph-name="numbersign" unicode="#" horiz-adv-x="759" 
d="M0 6l152 430h-150v15h156l108 313h-149v14h155l154 436l14 -4l-151 -432h303l153 436l15 -4l-152 -432h133v-14h-139l-110 -313h135v-15h-140l-153 -436l-15 6l152 430h-303l-154 -436zM174 451h301l111 313h-303z" />
    <glyph glyph-name="dollar" unicode="$" horiz-adv-x="772" 
d="M10 922q-20 89 2 174t82 151q1 1 4 4.5t5.5 6t5.5 4.5q114 114 270 114v27h14v-27q23 0 35 -2q106 -10 193.5 -75.5t128.5 -163.5q24 -72 22 -74q-3 0 -8 -1t-8 -1q-25 125 -123 211t-225 90h-15v-758l111 -47q68 -30 114.5 -85t61.5 -126q17 -68 -0.5 -134.5
t-63.5 -119.5l-12 -12q-36 -42 -95 -66t-116 -24v-29h-14v21q0 6 -4 8h-10q-3 0 -10.5 1t-10.5 1q-57 8 -121 43q-109 71 -135 184q-3 9 -8 39q0 1 -1 12t-1.5 18t0.5 9h16q0 -123 86 -209q95 -82 195 -82h4v588l-146 59q-84 35 -143.5 107.5t-79.5 163.5zM104 1237
q-118 -134 -79 -313q20 -87 77 -155t138 -103l139 -58v754q-152 -3 -260 -111q-5 -7 -15 -14zM393 586v-584q116 3 199 86l12 12q93 104 62 242q-15 67 -59.5 119t-108.5 80z" />
    <glyph glyph-name="percent" unicode="%" horiz-adv-x="501" 
d="M346 61l60 60l57 -60l-57 -59zM156 1153l-60 -59l-57 59l57 59zM457 1214l14 -4l-426 -1210l-14 6z" />
    <glyph glyph-name="ampersand" unicode="&#x26;" horiz-adv-x="1277" 
d="M43 250q-13 125 51 229q30 40 37 47l234 244q9 10 8 25t-11 24l-294 297l178 184q5 5 14 15.5t14 15.5q11 11 17 15l18 14q75 53 170 47t165.5 -74t82.5 -162q13 -96 -39 -182q-14 -21 -29 -39l-174 -184q-9 -9 -8.5 -23.5t10.5 -23.5l365 -367q11 -10 24.5 -8.5
t22.5 12.5q32 47 41 97q15 72 -14 145q-28 70 -92 115q-5 3 -16.5 9t-16.5 9q-15 6 -31 6q-31 0 -54.5 -22.5t-23.5 -55.5h-16v205h16v-4q0 -36 21.5 -63.5t56.5 -38.5q55 -13 100.5 -55.5t69.5 -98.5q31 -77 16 -155q-11 -59 -51 -111q-18 -22 2 -39l219 -219
q61 -64 152 -64v-16h-205v16q26 0 36 23.5t-7 42.5l-203 203q-9 9 -22 9t-21 -9l-201 -209q-51 -55 -82 -74q-99 -67 -219 -55q-120 9 -208 95.5t-103 207.5zM154 440q-56 -85 -50 -184q9 -103 80.5 -178.5t173.5 -87.5q111 -13 197 41q34 21 80 67l80 74l127 123
q9 9 10 22.5t-8 22.5l-369 369q-11 9 -25 9t-24 -9l-233 -224q-6 -6 -39 -45zM90 1116l285 -285q9 -10 23.5 -10.5t23.5 8.5l182 172q14 14 23 29q43 62 37 135t-58 131q-57 57 -131 66q-80 9 -147 -31l-17 -10q-2 -2 -7 -6t-7 -6q-10 -8 -31 -29z" />
    <glyph glyph-name="quotesingle" unicode="'" horiz-adv-x="206" 
d="M31 1399l10 10l135 -135l-55 -57l-58 57l46 45z" />
    <glyph glyph-name="parenleft" unicode="(" horiz-adv-x="256" 
d="M152 109q-124 315 -108.5 653.5t167.5 640.5l14 -6q-152 -299 -167.5 -634.5t108.5 -647.5l59 -150l-14 -6z" />
    <glyph glyph-name="parenright" unicode=")" horiz-adv-x="256" 
d="M31 1397l14 6q152 -302 167.5 -640.5t-108.5 -653.5l-59 -150l-14 6l59 150q124 313 108 647.5t-167 634.5z" />
    <glyph glyph-name="asterisk" unicode="*" horiz-adv-x="391" 
d="M0 1100l8 14l180 -104v209h17v-209l180 104l6 -14l-180 -105l180 -104l-6 -12l-180 104v-209h-17v209l-180 -104l-8 12l180 104z" />
    <glyph glyph-name="plus" unicode="+" horiz-adv-x="673" 
d="M31 621h299v299h14v-299h299v-15h-299v-299h-14v299h-299v15z" />
    <glyph glyph-name="comma" unicode="," horiz-adv-x="206" 
d="M41 -102l-10 10l78 80l-46 45l58 57l55 -57z" />
    <glyph glyph-name="hyphen" unicode="-" horiz-adv-x="661" 
d="M637 612v-14h-612v14h612z" />
    <glyph glyph-name="period" unicode="." horiz-adv-x="178" 
d="M31 37l57 59l59 -59l-59 -57z" />
    <glyph glyph-name="slash" unicode="/" horiz-adv-x="520" 
d="M520 1397l-506 -1438l-14 6l506 1438z" />
    <glyph glyph-name="zero" unicode="0" horiz-adv-x="909" 
d="M172 78q-117 114 -121 277.5t105 283.5l20 20q117 111 279 111q167 0 285 -118t118 -285q0 -157 -104 -273l-21 -20q-117 -111 -278 -111q-162 0 -283 115zM682 584l-444 -445q64 -61 139.5 -93t150.5 -32q114 0 195 72l18 18q82 91 66 230q-15 137 -125 250zM168 629
q-81 -91 -66 -230q15 -136 125 -249l445 444q-63 61 -139.5 93t-151.5 32q-117 0 -195 -72z" />
    <glyph glyph-name="one" unicode="1" horiz-adv-x="299" 
d="M174 772h90v-772h-90v739l-139 -157v32z" />
    <glyph glyph-name="two" unicode="2" horiz-adv-x="645" 
d="M580 0h-560l390 319q88 75 88 189q0 93 -65.5 162t-158.5 69q-90 0 -149 -59v-2l-12 10q84 84 200 84q110 0 192.5 -77.5t82.5 -186.5q0 -58 -25 -111t-69 -90l-355 -291h441v-16z" />
    <glyph glyph-name="three" unicode="3" horiz-adv-x="792" 
d="M84 457h-59v8q3 126 94.5 216t218.5 91q135 3 227 -92q88 -85 94 -209v-22q-1 -92 -52.5 -168t-135.5 -115q125 -40 203 -148t78 -241q0 -170 -120 -291t-290 -121q-167 0 -287 117l64 65q64 -63 143 -96t156 -33q118 0 196 72l21 21q80 93 65 231q-17 137 -119.5 246.5
t-238.5 138.5v72q34 -10 43 -11q111 -12 172 52q63 63 51 170q0 4 -1 9.5t-1 8.5q-22 108 -110.5 194t-196.5 101q-106 13 -170.5 -55.5t-52.5 -175.5q0 -1 4 -17t4 -18z" />
    <glyph glyph-name="four" unicode="4" horiz-adv-x="669" 
d="M0 94l635 676v-115l-111 -120v-521h111v-16h-111v-117h-16v117h-475zM45 14h463v504l-463 -502v-2z" />
    <glyph glyph-name="five" unicode="5" horiz-adv-x="614" 
d="M18 53l-2 4l43 41q5 -10 23 -37q68 -86 160 -86q91 0 157 84q1 1 3.5 4.5t3.5 4.5t3 4t3 4q59 85 59 207q0 70 -23.5 138t-78 118.5t-127.5 50.5q-48 0 -95 -27q-2 -2 -8 -5.5t-8 -4.5v217h330v-16h-314v-166q43 14 97 14q132 0 225.5 -93.5t93.5 -225.5q0 -122 -84 -215
l-16 -17q-91 -88 -221 -88q-128 0 -224 90z" />
    <glyph glyph-name="six" unicode="6" horiz-adv-x="735" 
d="M145 51q-67 67 -85.5 160t14.5 180q76 178 184 304.5t270 207.5l35 19l6 -15l-34 -18q-269 -143 -398 -400q40 48 102 74.5t128 26.5q126 0 219 -88t96 -213v-25q-4 -127 -95.5 -216t-217.5 -89q-132 0 -224 92zM117 434q-25 -55 -16 -115t37 -111.5t69 -92.5
q83 -83 182 -103q105 -21 174 31q72 53 72 141q4 65 -26.5 132t-80.5 118q-98 98 -221 107q-61 5 -113.5 -24t-76.5 -83z" />
    <glyph glyph-name="seven" unicode="7" horiz-adv-x="446" 
d="M31 680v92h391l-182 -772h-93l189 756h-289v-76h-16z" />
    <glyph glyph-name="eight" unicode="8" horiz-adv-x="864" 
d="M164 -535q-71 60 -109 146t-35 178q5 108 61.5 202t151.5 146l37 19l29 10q-47 22 -92 63q-31 35 -45 58q-49 80 -47 175.5t55 172.5q43 63 113 100t145 37h4q126 0 216.5 -84t101.5 -209q6 -85 -33 -161.5t-109 -127.5q-34 -26 -43 -24q125 -39 202 -147.5t77 -241.5
q0 -169 -121 -290.5t-291 -121.5q-156 0 -268 100zM139 43q-81 -90 -65 -231q17 -157 146.5 -275.5t287.5 -118.5q127 0 209 82q1 2 4 5.5t4 5.5q82 91 66 231q-11 103 -74 194t-160 146t-201 55q-116 0 -196 -74q-7 -3 -10 -10q-2 -1 -11 -10zM166 569q-9 -61 8 -114
q26 -88 98 -160q54 -55 126.5 -86.5t142.5 -22.5q60 9 103 51t54 101q13 72 -17 146t-87 132q-56 56 -128.5 86.5t-143.5 20.5q-61 -9 -104 -51.5t-52 -102.5z" />
    <glyph glyph-name="nine" unicode="9" horiz-adv-x="702" 
d="M37 469q5 125 97 215t216 90q131 0 225 -94q67 -67 85.5 -159t-15.5 -181q-6 -16 -20 -44t-19 -40q-63 -137 -170.5 -248t-242.5 -178l-35 -18l-8 14l34 16q130 66 231.5 168.5t166.5 231.5q-43 -47 -103 -74t-123 -27q-128 0 -220.5 87t-98.5 214v27zM84 547
q-3 -65 28.5 -132t80.5 -116q100 -100 221 -109q60 -5 113 25t77 84t14.5 113.5t-37.5 111t-69 92.5q-86 86 -182 105q-106 19 -172 -31q-67 -52 -74 -143z" />
    <glyph glyph-name="colon" unicode=":" horiz-adv-x="178" 
d="M31 57l57 60l59 -60l-59 -57zM147 444l-59 -57l-57 57l57 60z" />
    <glyph glyph-name="semicolon" unicode=";" horiz-adv-x="212" 
d="M63 61l60 60l59 -60l-141 -139l-10 10l82 82zM182 449l-59 -58l-60 58l60 59z" />
    <glyph glyph-name="less" unicode="&#x3c;" horiz-adv-x="292" 
d="M262 565l-12 -12l-219 219l219 217l12 -12l-207 -205z" />
    <glyph glyph-name="equal" unicode="=" horiz-adv-x="673" 
d="M31 616h612v-14h-612v14zM643 389h-612v14h612v-14z" />
    <glyph glyph-name="greater" unicode="&#x3e;" horiz-adv-x="292" 
d="M43 553l-12 12l207 207l-207 205l12 12l219 -217z" />
    <glyph glyph-name="question" unicode="?" horiz-adv-x="788" 
d="M51 940q27 117 111.5 193t204.5 86q78 6 157 -25q67 -25 117 -78l12 -12q54 -60 73.5 -135.5t2.5 -153.5q-19 -82 -71.5 -145t-129.5 -95q-54 -22 -86 -70.5t-32 -107.5v-209h-13v209q0 63 34 114.5t91 76.5q73 31 124.5 91.5t68.5 137.5q17 75 -2 148t-70 129
q-4 6 -12 14l-4 4q-49 49 -119 74q-68 24 -143 18q-37 -3 -68 -14q-34 -9 -64 -27q-64 -32 -109.5 -94t-57.5 -133zM403 -39l-53 53l53 54l54 -54z" />
    <glyph glyph-name="at" unicode="@" horiz-adv-x="1316" 
d="M215 193q-180 193 -162 458q15 225 176.5 386.5t386.5 176.5q128 8 246 -33.5t211 -127.5q92 -86 142.5 -202.5t50.5 -242.5v-35q-8 -134 -105.5 -226.5t-232.5 -92.5l-51 -2v113q-26 -72 -92 -118t-142 -46h-12q-95 5 -164.5 73.5t-73.5 163.5q-3 72 31.5 134.5
t97.5 97.5q194 107 314 227q-33 47 -83.5 73.5t-109.5 26.5q-97 0 -166 -68t-69 -165h-15q0 103 73 176.5t177 73.5q103 0 175.5 -73.5t72.5 -176.5v-496l37 2q129 0 222 88t99 215q2 10 2 35q0 123 -49.5 236t-138.5 196q-91 85 -207 126t-240 32q-220 -15 -376.5 -172
t-171.5 -377q-8 -125 32.5 -239.5t124.5 -206.5q85 -89 198 -138t236 -49h568v-16h-568q-126 0 -242 50.5t-202 142.5zM530 655q-60 -32 -91.5 -89.5t-28.5 -125.5q3 -89 67.5 -153.5t153.5 -69.5q103 -3 172 66q74 68 74 168v313q0 61 -33 119q-129 -126 -314 -228z" />
    <glyph glyph-name="A" unicode="A" 
d="M0 0v16q35 0 64.5 21t41.5 55l365 1041q9 25 -6 46t-41 21l61 172h203v-16h-26l448 -1301q14 -39 55 -39v-16h-174v16q13 0 21.5 11.5t3.5 23.5l-127 369q-4 13 -17.5 13.5t-19.5 -11.5q-30 -54 -87 -81.5t-122 -12.5q-64 13 -103.5 66t-41.5 122q-1 63 -43.5 110
t-104.5 56q-20 3 -26 -16l-201 -576q-9 -28 7 -51t44 -23v-16h-174zM346 727q-4 -10 0.5 -19.5t15.5 -11.5q65 -14 107.5 -66t42.5 -120q0 -74 49.5 -123t122.5 -49q69 0 119 47t55 115q0 8 -4 20l-272 791q-3 12 -15.5 12t-15.5 -12z" />
    <glyph glyph-name="B" unicode="B" horiz-adv-x="1490" 
d="M1081 0h-1046v16q25 0 42 17.5t17 42.5v1220q0 25 -17 42.5t-42 17.5v16h708q161 0 276.5 -115t115.5 -276q0 -71 -29 -147q-8 -19 1.5 -36t29.5 -20q134 -19 225 -116q116 -116 113 -277q-3 -160 -118.5 -272.5t-275.5 -112.5zM561 590q-156 0 -266.5 -110.5
t-110.5 -266.5v-141q0 -23 17.5 -39.5t40.5 -16.5h839q77 0 113 23q79 45 127.5 140t48.5 212q0 115 -46 208t-122 140q-42 27 -94 27q-36 3 -55 -25q-55 -70 -136.5 -110.5t-173.5 -40.5h-182zM242 1356q-23 0 -40.5 -16.5t-17.5 -39.5v-870q0 -17 17 -21.5t26 9.5
q53 86 141.5 136t192.5 50h182q72 0 129 34t91.5 89t52.5 120.5t18 133.5q0 114 -46 207t-122 139q-29 20 -71 27q-36 4 -52 4z" />
    <glyph glyph-name="C" unicode="C" horiz-adv-x="1558" 
d="M59 618q-13 165 43 315.5t166 260.5q99 99 229 155.5t273 57.5h16v-125h-16q0 26 -17.5 45.5t-43.5 20.5h-21q-243 0 -407 -164l-21 -21q-159 -180 -141 -432q9 -134 70 -260t155.5 -220.5t220.5 -155.5t260 -70q127 -9 242 30t201 121q17 17 20 21q168 177 154 421v3
q0 26 -20.5 44.5t-47.5 18.5v16h127v-16q0 -146 -56.5 -278t-156.5 -232q-110 -110 -260 -166t-315 -43q-170 15 -314 105t-234.5 234t-105.5 314z" />
    <glyph glyph-name="D" unicode="D" horiz-adv-x="1546" 
d="M209 0h-174v16q25 0 42 17.5t17 42.5v1220q0 25 -17 42.5t-42 17.5v16h799q133 -6 254.5 -63t209 -148.5t139.5 -216t52 -258.5t-52 -258.5t-139.5 -216t-209 -148.5t-254.5 -63h-625zM184 76q0 -25 17.5 -42.5t42.5 -17.5h577q153 5 283 97t206 244.5t76 328.5
q0 177 -76.5 330t-207.5 244.5t-285 95.5h-573q-25 0 -42.5 -17.5t-17.5 -42.5v-1220z" />
    <glyph glyph-name="E" unicode="E" horiz-adv-x="776" 
d="M760 0h-725v16q25 0 42 17.5t17 42.5v1220q0 28 -18 43q-17 17 -41 17v16h725v-72h-17q0 23 -16 39.5t-39 16.5h-442q-26 0 -43 -17.5t-17 -42.5v-610q0 -32 23 -56t55 -24h215q33 0 56.5 23.5t23.5 56.5h16v-174h-16q0 33 -23.5 56.5t-56.5 23.5h-215q-32 0 -55 -24
t-23 -56v-436q0 -25 17 -42.5t43 -17.5h442q23 0 39 16.5t16 39.5v2h17v-74z" />
    <glyph glyph-name="F" unicode="F" horiz-adv-x="780" 
d="M35 1372h729v-72h-16q0 23 -16.5 39.5t-41.5 16.5h-444q-26 0 -43 -17.5t-17 -42.5v-612q0 -32 23 -55t55 -23h217q32 0 56 24t24 56h17v-174h-17q0 33 -23.5 56.5t-56.5 23.5h-217q-32 0 -55 -23t-23 -57v-440q0 -23 16.5 -39.5t39.5 -16.5v-16h-207v16q25 0 42 17.5
t17 42.5v1220q0 28 -18 43q-17 17 -41 17v16z" />
    <glyph glyph-name="G" unicode="G" horiz-adv-x="1558" 
d="M61 684q0 146 57.5 279.5t154 230t230 154t279.5 57.5h23v-125h-17q0 25 -16 43.5t-41 19.5l-10 3h-29q-246 0 -405 -162q-4 -3 -11.5 -10.5t-11.5 -10.5q-153 -173 -141 -420v-14q9 -134 70 -260t155.5 -220.5t220.5 -155.5t260 -70q53 -3 95 2q154 11 281.5 98.5
t201 223t80.5 290.5q7 83 -23 133q-25 43 -72.5 65.5t-97.5 14.5t-88.5 -43t-50.5 -84q-4 -17 -8 -48.5t-6 -43.5q-16 -66 -76 -103q-6 -4 -26 -15t-29 -19q-35 -30 -39 -95h-17v207h17q-2 -23 15 -42.5t40 -20.5q44 -6 74 37q21 33 28 82q7 48 17 83q19 54 67 88.5
t105 34.5q56 2 105 -31t69 -85q22 -54 10 -144q-17 -136 -79 -254.5t-155.5 -205t-218.5 -136t-264 -49.5q-146 0 -280 57.5t-231 154t-154.5 230t-57.5 279.5z" />
    <glyph glyph-name="H" unicode="H" horiz-adv-x="792" 
d="M94 1296q0 25 -17 42.5t-42 17.5v16h207v-16q-25 -1 -40.5 -18t-15.5 -42v-647q0 -19 12 -32t31 -13h338q19 0 32 13t13 32v647q0 25 -17 42.5t-42 17.5v16h205v-16q-24 -2 -40 -19t-16 -41v-1224q0 -25 17 -39q17 -17 39 -17v-16h-205v16q25 0 42 17.5t17 42.5v469
q0 19 -13 31t-32 12h-338q-19 0 -31 -12t-12 -31v-473q0 -25 15.5 -40.5t40.5 -15.5v-16h-207v16q25 0 42 17.5t17 42.5v1220z" />
    <glyph glyph-name="I" unicode="I" horiz-adv-x="258" 
d="M16 1356v16h207v-16q-25 -1 -40 -18t-15 -42v-1224q0 -25 15 -40.5t40 -15.5v-16h-207v16q25 0 42.5 17.5t17.5 42.5v1220q0 27 -19 43q-17 17 -41 17z" />
    <glyph glyph-name="J" unicode="J" horiz-adv-x="1050" 
d="M0 365h205v-17q-19 0 -31.5 -14.5t-11.5 -34.5q15 -119 78.5 -204t152.5 -107q18 -4 60 -4q17 0 45 4q100 23 167.5 128t67.5 242v957q0 18 -12.5 30.5t-30.5 12.5h-289q-18 0 -30.5 -12.5t-12.5 -30.5v-17h-16v74h674v-74h-17v17q0 18 -12.5 30.5t-30.5 12.5h-75
q-17 0 -29 -13t-12 -30l-2 -955q0 -147 -96.5 -258t-239.5 -131q-18 -4 -56 -4q-143 0 -251 94t-136 236q-3 22 -19.5 36.5t-39.5 14.5v17z" />
    <glyph glyph-name="K" unicode="K" horiz-adv-x="1196" 
d="M35 16q25 0 42 17.5t17 42.5v1222q0 27 -16 43q-20 17 -43 17v16h207v-16q-24 -2 -40 -19t-16 -41v-507q0 -40 27.5 -68.5t67.5 -28.5h188q70 0 120 50.5t50 121.5v355q0 78 54.5 132t131.5 54h88q53 0 97.5 -27.5t68.5 -72.5q17 -32 48.5 -51t68.5 -19v-16h-207v16
q41 0 57.5 37.5t-12.5 66.5q-52 52 -121 52h-12q-23 0 -31 -4q-56 -15 -91.5 -61.5t-35.5 -106.5v-355q0 -76 -53.5 -130t-128.5 -56q206 -46 353 -206t178 -370q6 -38 36 -63t68 -25v-16h-207v16q40 0 65.5 30.5t18.5 68.5q-42 245 -227 405t-432 160h-133q-40 0 -67.5 -28
t-27.5 -68v-512q0 -22 17 -39q14 -17 39 -17v-16h-207v16z" />
    <glyph glyph-name="L" unicode="L" horiz-adv-x="759" 
d="M760 0h-725v16q25 0 42 17.5t17 42.5v1220q0 26 -18 41q-16 19 -41 19v16h209v-16q-25 0 -42.5 -17.5t-17.5 -42.5v-1220q0 -25 17.5 -42.5t42.5 -17.5h442q24 0 40.5 16t16.5 40v2h17v-74z" />
    <glyph glyph-name="M" unicode="M" horiz-adv-x="1445" 
d="M0 16q28 0 50 17t30 43l293 1071q5 21 -7.5 37t-33.5 16l47 172h160v-16h-21l207 -764q3 -12 15.5 -12t15.5 12l151 555q6 20 -6.5 36.5t-34.5 16.5l49 172h158v-16h-20l352 -1309q5 -14 16.5 -22.5t24.5 -8.5v-16h-135v16q10 0 16.5 9t3.5 20l-336 1247q-3 14 -17 14
t-17 -14l-207 -751q-6 -31 0 -62l116 -432q3 -13 15 -22t26 -9v-16h-137v16q12 0 19 9t4 20l-336 1247q-3 14 -17 14t-18 -14l-334 -1218q-6 -22 8 -40t37 -18v-16h-137v16z" />
    <glyph glyph-name="N" unicode="N" horiz-adv-x="794" 
d="M35 16q39 0 67.5 28t28.5 67v1151q0 40 -28 67t-68 27v16h190l400 -1251q3 -9 12.5 -7t9.5 11v1137q0 39 -27.5 66.5t-66.5 27.5v16h207v-16q-40 0 -68 -27t-28 -67v-1151q0 -39 28 -67t68 -28v-16h-193l-397 1251q-2 6 -8 7.5t-11.5 -1.5t-5.5 -10v-1136
q0 -38 28.5 -66.5t68.5 -28.5v-16h-207v16z" />
    <glyph glyph-name="O" unicode="O" horiz-adv-x="1558" 
d="M268 174q-140 139 -190 325t0 372t190 325q104 104 237 158.5t275 54.5q140 0 273 -54.5t237 -158.5q139 -139 188.5 -325t0 -372t-188.5 -325q-104 -104 -237 -158.5t-273 -54.5q-142 0 -275 54.5t-237 158.5zM281 1184q-119 -119 -152.5 -286t23 -339.5t192.5 -308.5
q111 -111 248 -169t278 -58q248 0 408 163q118 118 151 285.5t-23.5 340.5t-191.5 308q-111 111 -248 169.5t-276 58.5q-245 0 -409 -164z" />
    <glyph glyph-name="P" unicode="P" horiz-adv-x="1089" 
d="M16 1372h623q161 0 276.5 -113t116.5 -274q3 -164 -116 -281.5t-285 -117.5h-127q-98 0 -182 -47.5t-136 -128.5q-18 -30 -18 -68v-270q0 -25 15 -40.5t40 -15.5v-16h-207v16q25 0 42.5 17.5t17.5 42.5v1220q0 27 -19 43q-17 17 -41 17v16zM223 1356q-25 -1 -40 -18
t-15 -42v-788q0 -14 10 -24.5t23 -10.5q11 0 24 10q116 119 279 119h135q43 0 92 12q89 40 145 139.5t56 225.5q0 128 -56.5 229t-146.5 138q-36 10 -90 10h-416z" />
    <glyph glyph-name="Q" unicode="Q" horiz-adv-x="1558" 
d="M268 174q-143 143 -190.5 336.5t10.5 385.5t211 329q100 89 224 135.5t255 46.5q246 0 439 -147q129 -98 201 -239.5t80 -289.5t-44.5 -296t-161.5 -261q-2 -4 2 -6q102 -4 153.5 -55.5t53.5 -130.5v-15h-649q-161 -15 -314 37.5t-270 169.5zM281 1186
q-119 -119 -152.5 -286.5t23 -340.5t192.5 -309q111 -111 248 -169t276 -58q200 0 349 110q12 7 11 22.5t-14 24.5q-39 25 -62.5 66.5t-23.5 89.5q0 78 55 132t132 54v-14q-70 0 -120 -50.5t-50 -121.5q0 -51 28.5 -93t73.5 -63q20 -8 31 6q112 120 144.5 288t-22 341
t-186.5 305q-110 112 -247.5 170t-278.5 58q-245 0 -407 -162zM1057 18q-14 -6 -11.5 -21t17.5 -15h395q12 0 19.5 9t5.5 21q-12 59 -59.5 99.5t-108.5 40.5q-45 0 -82 -29q-80 -66 -176 -105z" />
    <glyph glyph-name="R" unicode="R" horiz-adv-x="1480" 
d="M76 1339q-17 17 -41 17v16h622q106 0 196.5 -51.5t143.5 -140.5t54 -195q3 -107 -51.5 -198.5t-147.5 -145.5q-8 -5 -6 -15t12 -10q199 -29 341.5 -171t176.5 -341q6 -38 36 -63t69 -25v-16h-207v16q40 0 65.5 30.5t18.5 70.5q-40 208 -202.5 347t-373.5 142q-4 0 -20 -4
q-56 -16 -113 -16h-127q-98 0 -181.5 -47.5t-135.5 -128.5q-19 -32 -19 -68v-270q0 -25 15.5 -40.5t40.5 -15.5v-16h-207v16q25 0 42 17.5t17 42.5v1220q0 28 -18 43zM242 1356q-25 -1 -40.5 -18t-15.5 -42v-788q0 -14 10 -24.5t23 -10.5q12 0 25 10q116 119 278 119h135
q72 0 111 19q81 43 131.5 140.5t50.5 217.5q0 128 -56 229t-146 138q-36 10 -91 10h-415z" />
    <glyph glyph-name="S" unicode="S" horiz-adv-x="884" 
d="M49 899q-22 92 -4 180q28 134 135.5 226t243.5 96q59 3 111 -8q106 -21 184 -90q22 -19 49 -19q29 0 49.5 19.5t20.5 50.5h14v-281l-14 -2q-23 108 -97.5 187t-181.5 112q-65 18 -135 12q-131 -9 -230 -102t-108 -223q-6 -74 18 -142q25 -74 80.5 -132.5t126.5 -86.5
q24 -10 77.5 -31.5t80.5 -33.5q110 -47 141 -64q82 -45 129 -125q2 -5 7.5 -14t7.5 -14q37 -87 24 -185q-12 -89 -76 -159q-23 -27 -73 -62t-76 -35q-43 -14 -96 -14q-129 0 -221 86q-14 14 -35 14t-37.5 -15.5t-16.5 -37.5h-14v273h14q0 -118 82 -205.5t201 -96.5
q97 -3 176 48q56 33 91.5 90.5t35.5 120.5q3 82 -37 149q-22 40 -57 70q-17 15 -41 29t-41.5 21.5t-49.5 20t-44 17.5q-5 1 -27 10q-10 4 -36.5 15.5t-41.5 17.5q-14 6 -39.5 17.5t-39.5 17.5q-85 36 -146.5 111t-83.5 167z" />
    <glyph glyph-name="T" unicode="T" horiz-adv-x="722" 
d="M0 1372h723v-74h-16q0 25 -16.5 41.5t-41.5 16.5h-184q-23 -2 -39 -18.5t-16 -41.5v-1224q0 -26 16 -39q17 -17 39 -17v-16h-207v16q25 0 42 17.5t17 42.5v1220q0 26 -16.5 43t-42.5 17h-184q-25 0 -41.5 -16.5t-16.5 -41.5h-16v74z" />
    <glyph glyph-name="U" unicode="U" horiz-adv-x="1073" 
d="M31 1372h202v-14q-23 -1 -38 -18.5t-15 -41.5v-968q0 -138 93.5 -240t230.5 -108h20q114 0 210.5 56t153 153t56.5 212v848q0 44 -31 75.5t-75 31.5v14h204v-14q-34 0 -59 -24.5t-25 -59.5v-871q0 -182 -127 -310t-307 -128q-119 0 -219 59t-157.5 160t-57.5 219v895
q0 23 -18 41q-16 19 -41 19v14z" />
    <glyph glyph-name="V" unicode="V" 
d="M35 1346q-17 10 -35 10v16h174v-16q-14 0 -21 -11t-3 -24l63 -188l63 -181v-2l308 -889q3 -11 15 -11t15 11l428 1223q5 15 5 16q0 23 -16.5 39.5t-39.5 16.5v16h174v-16q-37 0 -66.5 -20.5t-39.5 -55.5l-420 -1198q-9 -25 6 -45.5t41 -20.5l-6 -16h-205v16h27l-447 1301
q-6 19 -20 29z" />
    <glyph glyph-name="W" unicode="W" horiz-adv-x="1445" 
d="M0 1356v16h137v-16q-12 0 -18.5 -9t-3.5 -20l336 -1247q5 -14 18 -14t16 14l207 751q10 33 0 62l-117 432q-7 31 -40 31v16h137v-16q-11 0 -18.5 -9.5t-4.5 -19.5l336 -1247q3 -14 17.5 -14t17.5 14l334 1218q2 4 2 13q0 19 -13 32t-32 13v16h135v-16q-28 0 -50 -17
t-30 -43l-262 -964l-31 -105l-43 -159q-5 -19 7.5 -35.5t33.5 -16.5l-4 -16h-176v16q14 0 23 11t6 24l-197 729q-3 12 -16 12t-17 -12l-194 -712q-5 -19 7.5 -35.5t33.5 -16.5l-5 -16h-176v16q14 0 22.5 11t4.5 24l-342 1274q-3 13 -15 22t-26 9z" />
    <glyph glyph-name="X" unicode="X" horiz-adv-x="722" 
d="M0 16q35 0 64.5 21t41.5 55l222 631q6 23 0 45l-189 543q-12 45 -61 45h-6v16h176v-16h-27l150 -436q3 -9 13 -9t13 9l129 370q8 25 -6.5 45.5t-40.5 20.5l6 16h177v-16h-48q-22 0 -39.5 -12.5t-23.5 -32.5l-152 -430q-6 -23 0 -45l269 -781q6 -19 22 -28q15 -11 33 -11
v-16h-174v16q13 0 21 11.5t3 23.5l-213 625q-4 10 -16 10t-16 -10l-205 -586q-4 -12 -4 -18q0 -23 16 -39.5t39 -16.5v-16h-174v16z" />
    <glyph glyph-name="Y" unicode="Y" horiz-adv-x="718" 
d="M35 1346q-17 10 -35 10v16h174v-16q-14 0 -21 -11t-3 -24l63 -188l147 -424q4 -12 17 -12.5t16 10.5l203 577q2 6 2 16q0 24 -15 40t-38 16v16h174v-16q-37 0 -67 -20.5t-40 -55.5l-227 -645q-8 -21 -8 -51v-512q0 -26 16 -39q17 -17 39 -17v-16h-207v16q25 0 42.5 17.5
t17.5 42.5v547q0 25 -9 49l-221 645q-6 19 -20 29z" />
    <glyph glyph-name="Z" unicode="Z" horiz-adv-x="784" 
d="M31 16q19 0 37 11q18 9 24 28l486 1274q4 9 -2 18t-17 9h-455q-25 0 -41 -16.5t-16 -41.5h-16v74h723v-16h-11q-49 0 -65 -45l-303 -791q-4 -8 -8 -20l-170 -449q-6 -12 3 -23.5t23 -11.5h457q25 0 41 16.5t16 41.5h17v-74h-723v16z" />
    <glyph glyph-name="bracketleft" unicode="[" horiz-adv-x="292" 
d="M31 -41v1444h231v-17h-215v-1411h215v-16h-231z" />
    <glyph glyph-name="backslash" unicode="\" horiz-adv-x="520" 
d="M506 -41l-506 1438l14 6l506 -1438z" />
    <glyph glyph-name="bracketright" unicode="]" horiz-adv-x="292" 
d="M31 1403h231v-1444h-231v16h215v1411h-215v17z" />
    <glyph glyph-name="asciicircum" unicode="^" horiz-adv-x="364" 
d="M182 1411l183 -182l-11 -10l-172 172l-172 -172l-10 10z" />
    <glyph glyph-name="underscore" unicode="_" horiz-adv-x="1488" 
d="M25 -23h1439v-18h-1439v18z" />
    <glyph glyph-name="grave" unicode="`" horiz-adv-x="206" 
d="M31 1399l10 10l135 -135l-55 -57l-58 57l46 45z" />
    <glyph glyph-name="a" unicode="a" horiz-adv-x="704" 
d="M106 45q-39 45 -53.5 102.5t-1.5 114.5q10 52 43.5 96.5t79.5 69.5q169 95 301 215q24 24 4 51q-49 66 -108 66q-98 0 -167 -69.5t-69 -166.5h-16q0 103 74 176.5t178 73.5q105 -3 174 -69q44 -44 58.5 -95.5t14.5 -124.5v-413q0 -22 17 -39q21 -17 39 -17v-14h-146v55
q0 11 -11 14.5t-17 -5.5q-67 -93 -176 -105q-60 -8 -118.5 14.5t-99.5 69.5zM129 375q-47 -44 -31 -125q18 -93 99 -167.5t174 -74.5q50 0 86 31l2 2q56 53 69 135v373q0 41 -8 69q-5 12 -16.5 16t-20.5 -5q-128 -119 -301 -213q-30 -18 -53 -41z" />
    <glyph glyph-name="b" unicode="b" horiz-adv-x="866" 
d="M123 0h-103v16q25 0 42.5 17.5t17.5 42.5v35l6 1028q0 24 -16 43q-16 16 -43 16v16h206v-16q-23 -1 -39 -18.5t-16 -40.5l-2 -381q0 -15 13 -23.5t26 -1.5q85 45 184 45q171 0 293.5 -119t122.5 -290q1 -169 -118.5 -290.5t-288.5 -123.5h-9q-99 0 -184 45q-17 10 -45 10
q-30 0 -47 -10zM174 623l-2 -506q0 -24 16 -43q93 -103 218 -103h2q87 1 159.5 55t114.5 145t41 198q0 163 -94 278t-226 115h-4q-116 0 -209 -96q-16 -19 -16 -43z" />
    <glyph glyph-name="c" unicode="c" horiz-adv-x="899" 
d="M51 365q-3 165 115 286q118 118 285 121h4v-59q-16 5 -43 8h-31q-123 0 -205 -82q-91 -92 -73.5 -237.5t133.5 -258.5q63 -62 140 -94.5t152 -32.5q126 0 205 82q89 93 74 238q-1 5 -3 16.5t-3 16.5h57q0 -167 -116.5 -284t-282.5 -120h-4q-167 0 -284 116t-120 284z" />
    <glyph glyph-name="d" unicode="d" horiz-adv-x="866" 
d="M459 -45q-169 2 -289 123.5t-119 290.5q0 170 123 290q122 122 291 119q94 0 178 -41q17 -7 32 2.5t15 28.5l-2 371q0 24 -15.5 40.5t-39.5 18.5v16l207 3v-17q-25 0 -42.5 -17t-17.5 -42l6 -1030v-35q0 -25 17.5 -42.5t42.5 -17.5v-16h-152v27q-101 -72 -229 -72h-6z
M143 369q-1 -107 41 -198t115 -145t160 -55h2q124 0 217 103q16 19 16 43l-4 506q0 27 -16 43q-89 95 -209 98h-2q-132 -2 -226 -117.5t-94 -277.5z" />
    <glyph glyph-name="e" unicode="e" horiz-adv-x="899" 
d="M51 362q-3 167 115 285q117 120 283 123h14q0 -304 -193 -625q-13 -23 9 -41q119 -90 249 -90q124 0 203 82q98 98 70 271h57q0 -167 -116 -284t-283 -120h-4q-144 0 -252 88l-6 6q-67 51 -105.5 134.5t-40.5 170.5zM176 637q-97 -100 -70 -260q39 -145 117 -223
q7 -8 19 -6.5t18 10.5q159 273 184 532q0 19 -20 27q-8 2 -16 2h-27q-123 0 -205 -82z" />
    <glyph glyph-name="f" unicode="f" horiz-adv-x="468" 
d="M20 16q25 0 42.5 17.5t17.5 42.5v35l2 620q0 9 -7.5 16t-17.5 7h-37v16h37q11 0 18 7t7 18v237q0 74 51.5 128t124.5 54h86q78 0 129 -51q22 -19 38 -54.5t19 -64.5v-14h-14q-3 62 -39 107l-12 12q-49 49 -119 49h-12q-13 0 -33 -4q-55 -15 -91 -61t-36 -105v-231
q0 -11 8 -19t19 -8h233v-16h-233q-11 0 -18 -7t-7 -18v-18l2 -506v-129q0 -25 17.5 -42.5t42.5 -17.5v-16h-218v16z" />
    <glyph glyph-name="g" unicode="g" horiz-adv-x="954" 
d="M61 -553q-54 71 -38 159.5t90 135.5q33 24 70 30.5t91 6.5q31 -1 89 -1t104.5 -1t87.5 -4q92 -6 184 -6q44 -3 82 14q36 14 62 47q52 63 24 137q-17 41 -53.5 63.5t-81.5 22.5q-46 0 -84 -24q-109 -70 -227 -70q-165 0 -285 117q-80 78 -109 182.5t-2 209.5t105 185
q57 60 133.5 91.5t157.5 31.5q167 0 284 -117q5 -4 14 -13.5t15 -14.5q25 -22 47 -11q42 21 68 61.5t26 90.5h17q0 -52 -26 -95t-70 -67q-12 -8 -16.5 -22.5t1.5 -28.5q53 -98 48 -211.5t-68 -206.5q-11 -15 -6 -33t22 -24q52 -21 81 -65.5t34 -102.5v-2q6 -74 -42 -132.5
t-120 -70.5q-42 -7 -178 -12q-294 -6 -297 -6q-97 4 -141 -25q-57 -38 -66 -100q-3 -22 0 -43q6 -37 29.5 -68.5t58.5 -46.5q23 -9 94 -14q129 -6 260 -6q113 -4 164 26q38 21 60 61t22 83h17q0 -6 -5 -31q-19 -91 -82 -125.5t-163 -34.5q-61 2 -187 2q-103 -4 -155 -2
q-86 6 -140 80zM180 641q-92 -95 -76 -242q20 -155 148 -272t283 -117q127 0 206 82q92 92 76 240q-21 156 -147.5 273.5t-282.5 117.5q-125 0 -207 -82z" />
    <glyph glyph-name="h" unicode="h" horiz-adv-x="690" 
d="M35 0v16q23 0 41 18.5t18 41.5v35l2 409v10l2 97l2 512q0 54 -59 61v14h211v-16h-4q-23 0 -39 -17.5t-16 -41.5v-35l-3 -334q0 -17 14 -26t29 -1q56 29 117 29q102 0 177 -74t75 -176v-2l-2 -444q0 -25 16 -41q16 -19 43 -19v-16h-61l-149 2v14q24 0 41.5 18t17.5 42v35
l2 442q-8 87 -53.5 145t-106.5 58q-67 0 -110 -61.5t-52 -135.5l-2 -483q0 -24 17 -41q16 -19 43 -19v-16h-211z" />
    <glyph glyph-name="i" unicode="i" horiz-adv-x="262" 
d="M35 772h207v-16q-24 -1 -40 -18.5t-16 -41.5v-624q0 -25 15.5 -40.5t40.5 -15.5v-16h-207v16q25 0 42 17.5t17 42.5v620q0 25 -17 42.5t-42 17.5v16zM137 934l-59 59l59 60l60 -60z" />
    <glyph glyph-name="j" unicode="j" horiz-adv-x="264" 
d="M-266 -463v14h14v-2q3 -71 52 -119t120 -48h12q11 0 31 4q46 14 80 49t43 80q2 4 2 12q2 8 2 22v422l-2 691l-2 34q0 26 -17 43t-42 17v16h217v-16q-25 0 -42.5 -17t-17.5 -43v-34l-2 -637v-476q0 -65 -39 -115t-100 -65q-24 -4 -35 -4h-88q-73 0 -126.5 50t-59.5 122z
M74 995l59 60l60 -60l-60 -59z" />
    <glyph glyph-name="k" unicode="k" horiz-adv-x="669" 
d="M76 1182q-18 18 -41 18v14h207v-14q-24 -1 -40 -18t-16 -41v-727q0 -11 8.5 -20t18.5 -9h57q37 2 63.5 28t26.5 64v195q0 44 31 75t74 31h76q44 0 75 -31.5t31 -74.5h-16q0 37 -26.5 63.5t-63.5 26.5t-63.5 -26.5t-26.5 -63.5v-195q0 -54 -41 -84q-8 -6 -6.5 -15.5
t10.5 -12.5q115 -41 185.5 -141.5t70.5 -223.5h-17q0 148 -101.5 256.5t-248.5 114.5h-90q-11 0 -19 -8.5t-8 -20.5v-270q0 -25 15.5 -40.5t40.5 -15.5v-16h-207v16q25 0 42 17.5t17 42.5v1065q0 26 -18 41z" />
    <glyph glyph-name="l" unicode="l" horiz-adv-x="262" 
d="M35 1200v14h151v-1142q0 -25 15.5 -40.5t40.5 -15.5v-16h-207v16q25 0 42 17.5t17 42.5v1065q0 26 -18 41q-18 18 -41 18z" />
    <glyph glyph-name="m" unicode="m" horiz-adv-x="1087" 
d="M20 0v18q22 0 41 18t19 40v620q0 23 -18.5 41.5t-41.5 18.5v16h150v-2q0 -19 16 -28t33 -1q60 31 115 31q92 0 164 -59l26 -27q6 -9 16.5 -8.5t18.5 8.5q32 39 84.5 62.5t104.5 23.5q103 0 176.5 -72.5t76.5 -175.5v-6l-4 -442q0 -23 18.5 -41.5t41.5 -18.5v-16h-60
l-151 2v16q24 0 42.5 17t18.5 41v37l2 438v78q0 63 -48 95t-113 32q-40 0 -89 -17q-32 -13 -51.5 -43t-19.5 -65v-72l-2 -483q0 -23 17.5 -41.5t39.5 -18.5v-16h-59l-150 2v16q22 0 41 18t19 40v37l2 405v111q0 63 -48 95t-114 32t-111.5 -31t-48.5 -94v-72l-2 -483
q0 -25 16 -41q16 -19 43 -19v-16h-211z" />
    <glyph glyph-name="n" unicode="n" horiz-adv-x="673" 
d="M31 756v16h149v-2q0 -19 16 -28t33 -1q60 31 115 31q103 0 177 -72t77 -176v-6l-4 -442q0 -23 18 -41.5t41 -18.5v-16h-59l-150 2v16q24 0 42 17t18 41v37l2 438v78q0 64 -48 95.5t-114 31.5q-64 0 -110.5 -31.5t-49.5 -93.5v-72l-2 -483q0 -25 17.5 -42.5t42.5 -17.5
v-16h-211v18q22 0 40.5 18t18.5 40v620q0 23 -18 41.5t-41 18.5z" />
    <glyph glyph-name="o" unicode="o" horiz-adv-x="909" 
d="M172 78q-117 114 -121 277.5t105 283.5l20 20q117 111 279 111q167 0 285 -118t118 -285q0 -157 -104 -273l-21 -20q-117 -111 -278 -111q-162 0 -283 115zM168 629q-81 -91 -66 -230q20 -155 145.5 -270t280.5 -115q117 0 195 72l18 18q82 91 66 230q-11 100 -73.5 189
t-157.5 142.5t-195 53.5q-117 0 -195 -72z" />
    <glyph glyph-name="p" unicode="p" horiz-adv-x="870" 
d="M35 754v14l149 2v-27q0 -10 9 -15.5t18 -0.5q89 53 199 53h6q111 -1 204 -56t146.5 -148t52.5 -203q0 -170 -120 -288t-289 -118q-94 0 -174 41q-18 8 -33 -1t-15 -27v-93l2 -393q0 -23 16.5 -40t39.5 -19v-15l-205 -2v17q24 0 43 16q16 16 16 41l-6 1167v35
q0 25 -17 42.5t-42 17.5zM201 664q-17 -17 -17 -39l4 -504q0 -23 15 -41q90 -96 207 -96h4q129 0 221.5 114t93.5 275t-90.5 276t-222.5 117h-2q-124 0 -213 -102z" />
    <glyph glyph-name="q" unicode="q" horiz-adv-x="854" 
d="M51 377q-1 167 117 286t285 121h6q108 0 200 -53q9 -5 18 1t9 16v26l148 -2v-14q-23 0 -40.5 -17.5t-17.5 -42.5v-34l-4 -508l-2 -658q0 -25 16 -41t41 -16v-16l-202 2v14q23 1 39 18.5t16 40.5l2 394v90q0 18 -16 28t-31 2q-84 -41 -176 -41q-164 -3 -287 117
q-121 118 -121 287zM453 770q-129 -2 -221 -117t-91 -276q1 -160 94 -273.5t222 -115.5h2q121 3 207 98q16 16 16 41l2 238v264q0 25 -14 39q-92 102 -215 102h-2z" />
    <glyph glyph-name="r" unicode="r" horiz-adv-x="559" 
d="M20 756v16h150v-2q0 -19 16 -28t33 -1q60 31 115 31q92 0 164 -59q36 -34 61 -78h-63q-2 34 -21 62t-49 40q-1 0 -2 1t-2 1q-46 17 -88 17q-40 0 -86 -17h-2q-32 -15 -52 -44.5t-20 -63.5v-72l-2 -483q0 -25 17 -42.5t42 -17.5v-16h-211v18h5q22 0 38.5 18t16.5 40v620
q0 25 -19 41q-16 19 -41 19z" />
    <glyph glyph-name="s" unicode="s" horiz-adv-x="632" 
d="M84 406q-47 65 -39.5 147t68.5 137q82 73 202 76q66 1 125.5 -22.5t100.5 -65.5q9 -11 23 -6t14 20v62h14v-166h-19q-1 0 -4.5 11t-3.5 13q-11 21 -20 33q-30 43 -79 70t-104 33q-64 8 -125.5 -12.5t-103.5 -65.5q-29 -29 -40 -69.5t-1 -80.5q24 -89 154 -137
q14 -5 61.5 -20t78 -27t58.5 -29q55 -31 84 -87.5t15 -115.5q-21 -76 -91.5 -113.5t-152.5 -29.5q-77 7 -127 51q-7 7 -16 13q-12 4 -19 2q-14 -8 -14 -29q4 -23 2 -33h-16v174h16q-3 0 3.5 -26.5t8.5 -30.5q6 -15 21 -34t28 -28l7 -6q67 -49 159 -39q44 7 83 29.5t57 58.5
q1 1 6 11q20 53 -13 108q-25 40 -79 60q-27 10 -84.5 28.5t-92.5 31t-77 40.5t-68 64z" />
    <glyph glyph-name="t" unicode="t" horiz-adv-x="462" 
d="M20 760l95 129v-53q0 -28 19.5 -48t47.5 -20h58v-16h-58q-28 0 -47.5 -19.5t-19.5 -48.5v-61l-2 -482q0 -14 2 -20q0 -8 2 -12q9 -46 42 -80.5t79 -46.5q25 -5 30 -5h13q70 0 119 48t49 118l14 2v-16q-6 -71 -58 -119.5t-124 -48.5h-86q-11 0 -35 4q-60 15 -98.5 64
t-38.5 112v2l-3 508v109z" />
    <glyph glyph-name="u" unicode="u" horiz-adv-x="673" 
d="M20 772h211v-16q-23 0 -42 -18.5t-19 -41.5v-34l-2 -476v-80q0 -63 48 -93.5t114 -30.5q42 0 88 16q32 13 51.5 43t19.5 65v72l3 90v428q0 24 -17 41q-16 19 -43 19v16h211v-16q-24 0 -41.5 -18t-17.5 -42v-620q0 -24 16 -43q20 -17 43 -17v-16h-151v25q-74 -60 -162 -60
q-102 0 -177 73t-75 175v4l2 479q0 25 -17.5 42.5t-42.5 17.5v16z" />
    <glyph glyph-name="v" unicode="v" horiz-adv-x="749" 
d="M55 717q-6 18 -21.5 29.5t-33.5 11.5v14h174v-14q-13 0 -21 -11.5t-3 -25.5l225 -660q5 -11 17 -11t16 11l219 623q2 6 2 18q0 22 -16 39t-40 17v14h177v-14q-37 0 -67 -21t-42 -55l-211 -600q-7 -25 7.5 -45.5t39.5 -20.5l-6 -16h-203v16h27z" />
    <glyph glyph-name="w" unicode="w" horiz-adv-x="1171" 
d="M0 756v16h174v-16q-13 0 -21 -11.5t-3 -23.5l225 -660q5 -11 16.5 -11t14.5 11l147 420q3 8 0 19l-74 217q-16 39 -55 39v16h176v-16q-14 0 -22.5 -11t-4.5 -24l226 -660q5 -11 16 -11t16 11l220 621q2 6 2 18q0 22 -16 39t-40 17v16h174v-16q-35 0 -64.5 -21t-41.5 -55
l-209 -598q-4 -12 -4 -16q0 -21 14 -35.5t35 -14.5l-4 -16h-205v16l25 4l-139 412q-3 9 -13.5 9t-13.5 -9l-121 -350q-2 -6 -2 -16q0 -21 14 -35.5t35 -14.5l-6 -16h-203v16h27l-240 701q-16 39 -55 39z" />
    <glyph glyph-name="x" unicode="x" horiz-adv-x="436" 
d="M0 0v16q35 0 64.5 21t41.5 55l76 215q9 21 0 43l-125 367q-16 39 -55 39v16h174v-16q-10 0 -18 -9t-8 -20l79 -233q3 -6 10 -6t9 6l67 190q2 6 2 16q0 23 -15.5 39.5t-39.5 16.5v16h174v-16q-35 0 -64.5 -21t-41.5 -55l-76 -215q-6 -21 0 -43l94 -272l31 -95
q14 -39 55 -39v-16h-174v16q12 0 20.5 9t6.5 20l-80 234q-1 6 -8.5 6t-10.5 -6l-67 -193q-6 -29 7.5 -49.5t45.5 -20.5v-16h-174z" />
    <glyph glyph-name="y" unicode="y" horiz-adv-x="745" 
d="M-174 -471q-13 79 37 145q24 34 63.5 57t79.5 23h184q36 4 56 13q31 12 47 30q16 21 18 25q2 5 6.5 14t6.5 14l28 76q11 28 -6.5 53t-48.5 25l-4 16l-238 697q-14 39 -55 39v14h174v-14q-14 0 -22.5 -12t-4.5 -25l226 -653q3 -10 15 -10t15 10l218 616q4 12 4 18
q0 22 -16.5 39t-39.5 17v14h174v-14q-36 0 -65 -21t-41 -55l-250 -713l-41 -125q-22 -79 -77 -124.5t-136 -45.5l-115 2q-31 0 -61 -12q-82 -47 -82 -129q0 -61 43 -104q41 -47 109 -47q66 -3 262 -3q67 0 114.5 45.5t47.5 112.5h14q2 -32 -12 -67q-19 -47 -65.5 -77
t-98.5 -30q-29 0 -82 1t-97 1t-83 -2q-37 0 -68 8q-55 21 -90.5 61.5t-42.5 96.5z" />
    <glyph glyph-name="z" unicode="z" horiz-adv-x="483" 
d="M20 0v16q17 0 35 11q17 17 21 28l229 672q2 11 -6 20t-20 9h-259v16h433v-16q-40 0 -56 -39l-229 -672q-2 -11 6.5 -20t20.5 -9h258v-16h-433z" />
    <glyph glyph-name="braceleft" unicode="{" horiz-adv-x="405" 
d="M45 762l-4 4l4 6q98 106 98 250v149q0 95 68.5 163.5t163.5 68.5v-17q-89 0 -152 -63t-63 -152v-149q0 -143 -99 -256q99 -110 99 -254v-322q0 -89 63 -152t152 -63v-16q-96 0 -164 67.5t-68 163.5v322q0 141 -98 250z" />
    <glyph glyph-name="bar" unicode="|" horiz-adv-x="77" 
d="M47 1403v-1444h-16v1444h16z" />
    <glyph glyph-name="braceright" unicode="}" horiz-adv-x="405" 
d="M31 -41v16q89 0 152 63t63 152v322q0 144 96 254q-96 113 -96 256v149q0 89 -63 152t-152 63v17q95 0 163 -68.5t68 -163.5v-149q0 -143 96 -250l7 -6l-7 -4q-96 -110 -96 -250v-322q0 -96 -67.5 -163.5t-163.5 -67.5z" />
    <glyph glyph-name="asciitilde" unicode="~" horiz-adv-x="452" 
d="M41 434l-10 12q41 41 100 41q62 0 100 -41q39 -36 91 -36q54 0 90 36l10 -12q-41 -41 -100 -41q-57 0 -101 41q-36 39 -90 39q-51 0 -90 -39z" />
    <glyph glyph-name="copyright" unicode="&#xa9;" horiz-adv-x="192" 
d="M0 1313q0 40 28 68t68 28t68.5 -28t28.5 -68t-28.5 -68t-68.5 -28t-68 28t-28 68zM96 1395q-34 0 -58 -24t-24 -58t24 -58t58 -24t58 24t24 58t-24 58t-58 24zM45 1313q0 22 14.5 36.5t36.5 14.5v-14q-15 0 -26 -11t-11 -26t11 -26t26 -11t26 11t11 26h14
q0 -22 -14.5 -36.5t-36.5 -14.5t-36.5 14.5t-14.5 36.5z" />
    <glyph glyph-name="registered" unicode="&#xae;" horiz-adv-x="231" 
d="M100 1372l66 -43l65 43v-158h-14v129l-51 -32l-49 32v-129h-17v158zM0 1370h86v-16h-35v-140h-16v140h-35v16z" />
    <glyph glyph-name="degree" unicode="&#xb0;" horiz-adv-x="192" 
d="M0 1311q0 40 28 68t68 28t68.5 -28t28.5 -68t-28.5 -68.5t-68.5 -28.5t-68 28.5t-28 68.5zM96 1393q-34 0 -58 -24t-24 -58t24 -58t58 -24t58 24t24 58t-24 58t-58 24z" />
    <glyph glyph-name="acute" unicode="&#xb4;" horiz-adv-x="206" 
d="M166 1409l10 -10l-78 -80l45 -45l-57 -57l-55 57z" />
    <glyph glyph-name="ordmasculine" unicode="&#xba;" horiz-adv-x="274" 
d="M41 365q0 40 28 68t68 28t68 -28t28 -68t-28 -68.5t-68 -28.5t-68 28.5t-28 68.5zM137 446q-34 0 -58 -23.5t-24 -57.5t24 -58t58 -24t58 24t24 58t-24 57.5t-58 23.5z" />
    <glyph glyph-name="Agrave" unicode="&#xc0;" 
d="M0 0v16q35 0 64.5 21t41.5 55l365 1041q0 1 1 3t1 3q3 22 -11.5 39.5t-37.5 17.5l2 4h-2l59 170h2v2h203v-18h-26l448 -1299q14 -39 55 -39v-16h-178v16q14 0 22.5 11.5t4.5 23.5l-127 369q-6 16 -23 12q-9 0 -12 -10q-36 -65 -102 -88q-54 -20 -107 -8q-65 15 -105 68
t-42 120q-1 63 -43.5 110t-104.5 56q-17 3 -24 -14l-201 -576q-9 -28 7 -51t44 -23v-16h-174zM346 727q-4 -10 0.5 -19.5t15.5 -11.5q65 -14 107.5 -66t42.5 -120q0 -74 50 -122t124 -48q68 0 116 45t54 113q0 6 -4 22l-272 789q-3 9 -13 10.5t-16 -6.5v-2zM612 1999l11 10
l135 -135l-56 -57l-57 57l45 45zM528 1493l11 12l96 -94l-12 -12z" />
    <glyph glyph-name="Acircumflex" unicode="&#xc2;" 
d="M0 0v16q35 0 64.5 21t41.5 55l363 1036q9 25 -6 46.5t-41 21.5l63 176h203v-16h-2v-4h-22l446 -1297q14 -39 55 -39v-16h-178v16q13 0 21.5 11.5t5.5 23.5l-127 369q-6 16 -23 12q-9 0 -12 -10q-28 -54 -84 -80q-62 -30 -127 -16q-64 13 -103.5 66t-41.5 122
q-1 63 -43.5 110t-104.5 56q-18 4 -24 -16l-201 -576q-2 -4 -2 -14q-2 -23 14 -40.5t39 -17.5v-16h-174zM346 727q-4 -10 0.5 -19.5t15.5 -11.5q65 -14 107.5 -66t42.5 -120q0 -73 50 -122.5t122 -49.5q67 0 118 46.5t54 113.5q0 8 -4 20l-272 789q-3 10 -13 12t-16 -6v-2z
M471 1403l-12 12l123 121l120 -121l-10 -12l-110 110z" />
    <glyph glyph-name="Atilde" unicode="&#xc3;" 
d="M0 0v16q35 0 64.5 21t41.5 55l365 1041q9 25 -6 45t-41 20l61 174h203v-16h-26l446 -1301q14 -39 57 -39v-16h-176v16q14 0 22.5 11.5t4.5 23.5l-127 369q-4 13 -17.5 13.5t-19.5 -11.5q-30 -54 -87 -81.5t-122 -12.5q-63 13 -103 66t-42 120q-1 64 -43.5 111.5
t-104.5 56.5q-18 3 -26 -16l-201 -576q-9 -28 7 -51t44 -23v-16h-174zM346 725q-4 -9 0.5 -18.5t15.5 -12.5q65 -12 107.5 -63.5t42.5 -120.5q0 -74 50 -123t124 -49q67 0 117 47t55 115q0 8 -4 20l-272 791q-4 11 -16 11t-15 -11zM485 1442q20 20 52 20q31 0 51 -20
q17 -17 41 -17q22 0 39 17l12 -12q-21 -21 -51 -21q-33 0 -51 21q-13 16 -41 16q-25 0 -41 -16z" />
    <glyph glyph-name="Adieresis" unicode="&#xc4;" 
d="M0 0v16q35 0 64.5 21t41.5 55l363 1038q9 23 -5.5 44.5t-39.5 21.5l2 4h-2l61 172h203v-16h-2v-2h-24l448 -1299q14 -39 55 -39v-16h-178v16q14 0 22.5 11.5t4.5 23.5l-127 369q-6 16 -23 12q-9 0 -12 -10q-28 -52 -78 -76q-57 -35 -131 -20q-65 15 -105 68t-42 120
q-1 63 -43.5 110t-104.5 56q-17 3 -24 -14l-201 -578q-2 -4 -2 -14q-2 -23 14 -40.5t39 -17.5v-16h-174zM346 727q-4 -10 0.5 -19.5t15.5 -11.5q65 -14 107.5 -66t42.5 -120q0 -74 50 -122t124 -48q68 0 116 45t54 113q0 8 -4 20l-272 791q-3 9 -13 10.5t-16 -6.5v-2z
M406 1466l59 60l59 -60l-59 -59zM698 1407l-59 59l59 60l58 -60z" />
    <glyph glyph-name="Aring" unicode="&#xc5;" 
d="M0 0v16q35 0 64.5 21t41.5 55l363 1036q9 25 -6 46.5t-41 21.5l63 176h203v-16h-2v-4h-22l446 -1297q14 -39 55 -39v-16h-178v16q13 0 21.5 11.5t5.5 23.5l-127 369q-6 16 -23 12q-9 0 -12 -10q-28 -54 -84 -80q-62 -30 -127 -16q-64 13 -103.5 66t-41.5 122
q-1 63 -43.5 110t-104.5 56q-18 4 -24 -16l-201 -576q-2 -4 -2 -14q-2 -23 14 -40.5t39 -17.5v-16h-174zM346 727q-4 -10 0.5 -19.5t15.5 -11.5q65 -14 107.5 -66t42.5 -120q0 -73 50 -122.5t122 -49.5q67 0 118 46.5t54 113.5q0 8 -4 20l-272 789q-3 10 -13 12t-16 -6v-2z
M496 1481q0 35 25.5 60.5t60.5 25.5t59.5 -25.5t24.5 -60.5t-24.5 -60.5t-59.5 -25.5t-60.5 25.5t-25.5 60.5zM512 1481q0 -29 20.5 -49.5t49.5 -20.5q28 0 48.5 20.5t20.5 49.5t-20.5 49t-48.5 20q-29 0 -49.5 -20t-20.5 -49z" />
    <glyph glyph-name="Ccedilla" unicode="&#xc7;" horiz-adv-x="1564" 
d="M59 616q-15 165 42 315.5t169 262.5q98 100 228 156t276 57h17v-125h-17q0 26 -17.5 45.5t-43.5 20.5h-23q-243 0 -407 -164q-6 -3 -13 -10q-1 -2 -4 -5.5t-4 -5.5q-161 -179 -143 -434q12 -180 111.5 -339.5t258 -259.5t338.5 -112q130 -8 245 31.5t202 122.5l18 18
q170 180 156 426l-2 7q-2 25 -21 42t-45 17v16h127v-16q0 -143 -54.5 -274t-147 -227.5t-220.5 -156t-270 -65.5v-90q0 -68 -48.5 -117t-117.5 -49q-67 0 -114.5 -47.5t-47.5 -114.5t47.5 -114.5t114.5 -47.5h279q61 0 105 44t44 106h17q0 -69 -49 -117.5t-117 -48.5h-279
q-73 0 -125.5 52.5t-52.5 125.5t52.5 125.5t125.5 52.5q63 0 106.5 44t43.5 106v88q-55 0 -82 4q-171 15 -316 105t-236 234.5t-106 315.5z" />
    <glyph glyph-name="Egrave" unicode="&#xc8;" horiz-adv-x="776" 
d="M35 0v16q25 0 42 17.5t17 42.5v1220q0 26 -18 41q-19 19 -41 19v14h725v-72h-17q0 24 -16.5 41t-40.5 17h-442q-25 0 -42.5 -17.5t-17.5 -42.5v-610q0 -33 23.5 -56.5t56.5 -23.5h215q33 0 56.5 23.5t23.5 56.5h14v-174h-14q0 32 -24 55t-56 23h-215q-32 0 -56 -23
t-24 -55v-436q0 -25 17.5 -42.5t42.5 -17.5h442q24 0 40.5 16t16.5 40v2h17v-74h-725zM641 1919l-78 80l10 10l136 -135l-56 -57l-57 57zM344 1495l10 12l97 -96l-13 -10z" />
    <glyph glyph-name="Eacute" unicode="&#xc9;" horiz-adv-x="776" 
d="M35 1370h725v-72h-17q0 24 -16.5 41t-40.5 17h-442q-25 0 -42.5 -17.5t-17.5 -42.5v-610q0 -33 23.5 -56.5t56.5 -23.5h215q33 0 56.5 23.5t23.5 56.5h14v-174h-14q0 32 -24 55t-56 23h-215q-32 0 -56 -23t-24 -55v-436q0 -25 17.5 -42.5t42.5 -17.5h442q24 0 40.5 16
t16.5 40v2h17v-74h-725v16q25 0 42 17.5t17 42.5v1220q0 26 -18 41q-19 19 -41 19v14zM559 1874l135 135l11 -10l-78 -80l45 -45l-58 -57zM344 1411l94 96l13 -12l-97 -94z" />
    <glyph glyph-name="Ecircumflex" unicode="&#xca;" horiz-adv-x="776" 
d="M760 0h-725v16q25 0 42 17.5t17 42.5v1220q0 26 -18 41q-16 19 -41 19v16h725v-74h-17q0 25 -16 41.5t-41 16.5h-442q-25 0 -42.5 -17.5t-17.5 -42.5v-610q0 -33 23.5 -56.5t56.5 -23.5h215q33 0 56.5 23.5t23.5 56.5h14v-174h-14q0 32 -24 55t-56 23h-215q-32 0 -56 -23
t-24 -55v-436q0 -25 17.5 -42.5t42.5 -17.5h442q24 0 40.5 16t16.5 40v2h17v-74zM287 1407l-13 10l123 123l121 -123l-10 -10l-111 111z" />
    <glyph glyph-name="Edieresis" unicode="&#xcb;" horiz-adv-x="774" 
d="M758 0h-723v16q25 0 42 17.5t17 42.5v1218q0 25 -17 42.5t-42 17.5v16h723v-72h-15q0 23 -17 39.5t-40 16.5h-442q-25 0 -42.5 -17.5t-17.5 -42.5v-610q0 -32 24 -55t56 -23h215q32 0 55 23t23 55h16v-174h-16q0 34 -23 57t-55 23h-215q-33 0 -56.5 -23.5t-23.5 -56.5
v-434q0 -25 17.5 -42.5t42.5 -17.5h442q23 0 40 16.5t17 39.5v2h15v-74zM455 1468l59 60l59 -60l-59 -59zM281 1409l-60 59l60 60l59 -60z" />
    <glyph glyph-name="Igrave" unicode="&#xcc;" horiz-adv-x="256" 
d="M16 1370h205v-16q-23 -2 -39 -18.5t-16 -39.5v-1224q0 -26 16 -39q17 -17 39 -17v-16h-205v16q25 0 42.5 17.5t17.5 42.5v1220q0 25 -19 41q-19 19 -41 19v14zM399 1919l-77 80l10 10l135 -135l-55 -57l-58 57zM66 1495l12 12l94 -96l-10 -10z" />
    <glyph glyph-name="Iacute" unicode="&#xcd;" horiz-adv-x="262" 
d="M16 1356v16h207v-16h-2v-2q-25 -3 -39 -18t-14 -40v-1224q0 -25 15 -40.5t40 -15.5v-16h-207v16q25 0 42.5 17.5t17.5 42.5v1220q0 25 -19 41q-19 19 -41 19zM291 1874l135 135l10 -10l-78 -80l2 -2l93 92l10 -10l-78 -80l45 -45l-57 -57l-13 12l-12 -12zM78 1401l-12 10
l96 96l10 -12z" />
    <glyph glyph-name="Icircumflex" unicode="&#xce;" horiz-adv-x="294" 
d="M240 0h-207v16q25 0 42 17.5t17 42.5v1220q0 25 -17 42.5t-42 17.5v14h207v-16q-23 -2 -39.5 -18.5t-16.5 -39.5v-1224q0 -25 17 -39q17 -17 39 -17v-16zM14 1417l133 123l111 -123l-10 -10l-103 111l-120 -111z" />
    <glyph glyph-name="Idieresis" unicode="&#xcf;" horiz-adv-x="325" 
d="M51 1356v14h205v-16q-23 -2 -39 -18.5t-16 -39.5v-1224q0 -26 16 -39q17 -17 39 -17v-16h-205v16q25 0 42.5 17.5t17.5 42.5v1220q0 23 -18.5 41.5t-41.5 18.5zM172 1468l59 60l60 -60l-60 -59zM16 1468l60 60l59 -60l-59 -59z" />
    <glyph glyph-name="Ntilde" unicode="&#xd1;" horiz-adv-x="794" 
d="M242 0h-207v16q39 0 67.5 28t28.5 67v1151q0 40 -28 68t-68 28v14h190l6 -14l394 -1237q3 -9 12.5 -7t9.5 11v1137q0 40 -28 68t-66 28v14h207v-14q-40 0 -68 -28t-28 -68v-1151q0 -39 28 -67t68 -28v-16h-193l-397 1251q-2 6 -8 7.5t-11.5 -1.5t-5.5 -10v-1136
q0 -38 28.5 -66.5t68.5 -28.5v-16zM299 1442q22 22 53 22q29 0 51 -22q15 -15 39 -15q26 0 41 15l11 -10q-23 -23 -52 -23q-28 0 -51 23q-13 16 -39 16q-25 0 -41 -16z" />
    <glyph glyph-name="Ograve" unicode="&#xd2;" horiz-adv-x="1550" 
d="M266 178q-138 138 -187 323.5t0 371t187 323.5q104 102 236.5 155.5t273.5 53.5t273.5 -53.5t234.5 -155.5q138 -138 187 -323.5t-0.5 -371t-186.5 -323.5q-103 -103 -235.5 -157t-272.5 -54t-273 54t-237 157zM276 1184q-118 -118 -151 -285t23.5 -339.5t191.5 -307.5
q110 -110 247 -167.5t277 -57.5q247 0 408 161q118 118 151 285t-23.5 339.5t-191.5 307.5q-110 110 -247.5 168t-276.5 58q-117 0 -222.5 -41t-185.5 -121zM817 1427l-98 99l12 12l98 -98z" />
    <glyph glyph-name="Oacute" unicode="&#xd3;" horiz-adv-x="1550" 
d="M266 180q-138 138 -187 323.5t0 371t187 323.5q104 102 236.5 155.5t273.5 53.5t273.5 -53.5t234.5 -155.5q138 -138 187 -323.5t-0.5 -371t-186.5 -323.5q-103 -103 -235.5 -157t-272.5 -54t-273 54t-237 157zM276 1186q-118 -118 -151 -285t23.5 -339.5t191.5 -307.5
q110 -110 247 -167.5t277 -57.5q247 0 408 161q118 118 151 285t-23.5 339.5t-191.5 307.5q-110 110 -247.5 168t-276.5 58q-117 0 -222.5 -41t-185.5 -121zM719 1442l98 98l12 -12l-98 -98z" />
    <glyph glyph-name="Ocircumflex" unicode="&#xd4;" horiz-adv-x="1550" 
d="M266 180q-138 138 -187 323.5t0 371t187 323.5q104 102 236.5 155.5t273.5 53.5t273.5 -53.5t234.5 -155.5q138 -138 187 -323.5t-0.5 -371t-186.5 -323.5q-103 -103 -235.5 -157t-272.5 -54t-273 54t-237 157zM276 1186q-118 -118 -151 -285t23.5 -339.5t191.5 -307.5
q110 -110 247 -167.5t277 -57.5q247 0 408 161q118 118 151 285t-23.5 339.5t-191.5 307.5q-110 110 -247.5 168t-276.5 58q-117 0 -222.5 -41t-185.5 -121zM659 1456l-12 10l127 127l127 -127l-12 -10l-115 115z" />
    <glyph glyph-name="Otilde" unicode="&#xd5;" horiz-adv-x="1550" 
d="M266 180q-138 138 -187 323.5t0 371t187 323.5q104 102 236.5 155.5t273.5 53.5t273.5 -53.5t234.5 -155.5q138 -138 187 -323.5t-0.5 -371t-186.5 -323.5q-103 -103 -235.5 -157t-272.5 -54t-273 54t-237 157zM276 1186q-118 -118 -151 -285t23.5 -339.5t191.5 -307.5
q110 -110 247 -167.5t277 -57.5q247 0 408 161q118 118 151 285t-23.5 339.5t-191.5 307.5q-110 110 -247.5 168t-276.5 58q-117 0 -222.5 -41t-185.5 -121zM686 1460l-12 10q23 23 53 23t53 -23q19 -16 43 -16q25 0 41 16l10 -10q-22 -22 -53 -22t-53 22q-14 17 -41 17
q-24 0 -41 -17z" />
    <glyph glyph-name="Odieresis" unicode="&#xd6;" horiz-adv-x="1550" 
d="M266 176q-138 138 -187 323.5t0 371t187 323.5q104 102 236.5 155.5t273.5 53.5t273.5 -53.5t234.5 -155.5q138 -138 187 -323.5t-0.5 -371t-186.5 -323.5q-103 -103 -235.5 -157t-272.5 -54t-273 54t-237 157zM276 1182q-118 -118 -151 -285t23.5 -339.5t191.5 -307.5
q110 -110 247 -167.5t277 -57.5q247 0 408 161q118 118 151 285t-23.5 339.5t-191.5 307.5q-110 110 -247 167.5t-277 57.5q-247 0 -408 -161zM834 1516l61 61l61 -61l-61 -62zM592 1516l61 61l62 -61l-62 -62z" />
    <glyph glyph-name="multiply" unicode="&#xd7;" horiz-adv-x="503" 
d="M41 393l-10 10l211 211l-211 213l10 9l211 -211l213 211l8 -9l-211 -213l211 -211l-8 -10l-213 211z" />
    <glyph glyph-name="Ugrave" unicode="&#xd9;" horiz-adv-x="1073" 
d="M90 1298q0 23 -18 40.5t-41 17.5v16h57l-27 27l11 10l37 -37h124v-16q-23 -1 -37 -16.5t-16 -39.5l27 -26l-27 -27v-917q0 -138 93.5 -240t228.5 -108h22q173 0 295.5 123t122.5 298v848q0 43 -30.5 74t-73.5 31v16h204v-16q-35 0 -59.5 -24t-24.5 -58v-871
q0 -182 -127 -310t-307 -128q-119 0 -219 59t-157.5 160t-57.5 219v895zM483 1489l13 10l92 -94l-10 -10z" />
    <glyph glyph-name="Uacute" unicode="&#xda;" horiz-adv-x="1073" 
d="M31 1356v16h125l37 37l10 -10l-27 -27h57v-16q-23 -1 -38 -18t-15 -40v-968q0 -138 93.5 -240t228.5 -108h22q173 0 295.5 123t122.5 298v848q0 43 -30.5 74t-73.5 31v16h204v-16q-35 0 -59.5 -24t-24.5 -58v-871q0 -182 -127 -310t-307 -128q-119 0 -219 59t-157.5 160
t-57.5 219v836l-33 35l33 33q-17 49 -59 49zM496 1395l-13 10l95 94l10 -10z" />
    <glyph glyph-name="Ucircumflex" unicode="&#xdb;" horiz-adv-x="1073" 
d="M31 1356v16h202v-16q-23 -1 -38 -18t-15 -40v-968q0 -138 93.5 -240t228.5 -108h22q173 0 295.5 123t122.5 298v848q0 43 -30.5 74t-73.5 31v16h204v-16q-35 0 -59.5 -24t-24.5 -58v-871q0 -182 -127 -310t-307 -128q-119 0 -219 59t-157.5 160t-57.5 219v895
q0 23 -18 40.5t-41 17.5zM426 1401l-10 10l121 121l120 -121l-12 -10l-108 108z" />
    <glyph glyph-name="Udieresis" unicode="&#xdc;" horiz-adv-x="1073" 
d="M31 1356v16h202v-16q-23 -1 -38 -18t-15 -40v-968q0 -138 93.5 -240t228.5 -108h22q173 0 295.5 123t122.5 298v848q0 43 -30.5 74t-73.5 31v16h204v-16q-35 0 -59.5 -24t-24.5 -58v-871q0 -182 -127 -310t-307 -128q-119 0 -219 59t-157.5 160t-57.5 219v895
q0 23 -18 40.5t-41 17.5zM651 1403l-59 59l59 60l60 -60zM420 1403l-58 59l58 60l59 -60z" />
    <glyph glyph-name="germandbls" unicode="&#xdf;" horiz-adv-x="1044" 
d="M35 1370h395q160 0 277.5 -112t121.5 -271q1 -92 -35.5 -172.5t-103.5 -136.5q-12 -9 -13 -23.5t9 -25.5l223 -221q113 -113 119 -269q6 -170 -115 -291q-114 -114 -276 -114q-163 0 -277 114l-55 56l10 12l58 -57q77 -77 176 -74q105 2 204 63.5t160.5 160.5t63.5 204
q3 101 -74 178l-233 234q-19 25 -20 55.5t16 56.5q63 107 63 242q0 67 -18 131.5t-52 120t-91 89.5t-128 34h-198q-24 -1 -40 -18.5t-16 -41.5v-1226q0 -22 17 -39q14 -17 39 -17v-16h-207v16q25 0 42 17.5t17 42.5v1222q0 25 -17 42.5t-42 17.5v16z" />
    <glyph glyph-name="agrave" unicode="&#xe0;" horiz-adv-x="704" 
d="M106 45q-39 45 -53.5 102.5t-1.5 114.5q10 52 43.5 96.5t79.5 69.5q169 95 301 215q24 24 4 51q-49 66 -108 66q-98 0 -167 -69.5t-69 -166.5h-16q0 103 74 176.5t178 73.5q105 -3 174 -69q44 -44 58.5 -95.5t14.5 -124.5v-413q0 -22 17 -39q21 -17 39 -17v-14h-146v55
q0 11 -11 14.5t-17 -5.5q-67 -93 -176 -105q-60 -8 -118.5 14.5t-99.5 69.5zM129 375q-47 -44 -31 -125q18 -93 99 -167.5t174 -74.5q50 0 86 31l2 2q56 53 69 135v373q0 41 -8 69q-5 12 -16.5 16t-20.5 -5q-128 -119 -301 -213q-30 -18 -53 -41zM401 918l-94 94l10 12
l95 -94z" />
    <glyph glyph-name="acircumflex" unicode="&#xe2;" horiz-adv-x="704" 
d="M106 45q-39 45 -53.5 102.5t-1.5 114.5q10 52 43.5 96.5t79.5 69.5q169 95 301 215q24 24 4 51q-49 66 -108 66q-98 0 -167 -69.5t-69 -166.5h-16q0 103 74 176.5t178 73.5q105 -3 174 -69q44 -44 58.5 -95.5t14.5 -124.5v-413q0 -22 17 -39q21 -17 39 -17v-14h-146v55
q0 11 -11 14.5t-17 -5.5q-67 -93 -176 -105q-60 -8 -118.5 14.5t-99.5 69.5zM129 375q-47 -44 -31 -125q18 -93 99 -167.5t174 -74.5q50 0 86 31l2 2q56 53 69 135v373q0 41 -8 69q-5 12 -16.5 16t-20.5 -5q-128 -119 -301 -213q-30 -18 -53 -41zM248 913l-10 11l120 120
l121 -120l-12 -11l-109 109z" />
    <glyph glyph-name="atilde" unicode="&#xe3;" horiz-adv-x="704" 
d="M106 45q-39 45 -53.5 102.5t-1.5 114.5q10 52 43.5 96.5t79.5 69.5q169 95 301 215q24 24 4 51q-49 66 -108 66q-98 0 -167 -69.5t-69 -166.5h-16q0 103 74 176.5t178 73.5q105 -3 174 -69q44 -44 58.5 -95.5t14.5 -124.5v-413q0 -22 17 -39q21 -17 39 -17v-14h-146v55
q0 11 -11 14.5t-17 -5.5q-67 -93 -176 -105q-60 -8 -118.5 14.5t-99.5 69.5zM129 375q-47 -44 -31 -125q18 -93 99 -167.5t174 -74.5q50 0 86 31l2 2q56 53 69 135v373q0 41 -8 69q-5 12 -16.5 16t-20.5 -5q-128 -119 -301 -213q-30 -18 -53 -41zM264 948q23 23 51 23
q30 0 50 -23q17 -14 41 -14t38 14l13 -10q-20 -20 -51 -20q-32 0 -52 20q-13 16 -39 16q-25 0 -41 -16z" />
    <glyph glyph-name="adieresis" unicode="&#xe4;" horiz-adv-x="704" 
d="M106 45q-39 45 -53.5 102.5t-1.5 114.5q10 52 43.5 96.5t79.5 69.5q169 95 301 215q24 24 4 51q-49 66 -108 66q-98 0 -167 -69.5t-69 -166.5h-16q0 103 74 176.5t178 73.5q105 -3 174 -69q44 -44 58.5 -95.5t14.5 -124.5v-413q0 -22 17 -39q21 -17 39 -17v-14h-146v55
q0 11 -11 14.5t-17 -5.5q-67 -93 -176 -105q-60 -8 -118.5 14.5t-99.5 69.5zM129 375q-47 -44 -31 -125q18 -93 99 -167.5t174 -74.5q50 0 86 31l2 2q56 53 69 135v373q0 41 -8 69q-5 12 -16.5 16t-20.5 -5q-128 -119 -301 -213q-30 -18 -53 -41zM475 958l-59 60l59 59
l60 -59zM184 1018l60 59l59 -59l-59 -60z" />
    <glyph glyph-name="aring" unicode="&#xe5;" horiz-adv-x="704" 
d="M106 45q-39 45 -53.5 102.5t-1.5 114.5q10 52 43.5 96.5t79.5 69.5q169 95 301 215q24 24 4 51q-49 66 -108 66q-98 0 -167 -69.5t-69 -166.5h-16q0 103 74 176.5t178 73.5q105 -3 174 -69q44 -44 58.5 -95.5t14.5 -124.5v-413q0 -22 17 -39q21 -17 39 -17v-14h-146v55
q0 11 -11 14.5t-17 -5.5q-67 -93 -176 -105q-60 -8 -118.5 14.5t-99.5 69.5zM129 375q-47 -44 -31 -125q18 -93 99 -167.5t174 -74.5q50 0 86 31l2 2q56 53 69 135v373q0 41 -8 69q-5 12 -16.5 16t-20.5 -5q-128 -119 -301 -213q-30 -18 -53 -41zM360 918q-36 0 -61 24
t-25 59t25.5 60.5t60.5 25.5t59.5 -25.5t24.5 -60.5t-24.5 -59t-59.5 -24zM291 1001q0 -29 20 -49t49 -20q28 0 49 20t21 49t-21 49.5t-49 20.5q-29 0 -49 -20.5t-20 -49.5z" />
    <glyph glyph-name="ccedilla" unicode="&#xe7;" horiz-adv-x="901" 
d="M51 358q-3 166 115 287q117 120 285 123h4v-59q-6 1 -41 6h-33q-125 0 -205 -80q-91 -94 -73.5 -239.5t133.5 -258.5q63 -62 140 -94.5t152 -32.5q126 0 205 82q93 93 74 238q0 12 -4 32h57q0 -162 -115 -280v-2h-2q-109 -112 -268 -121v-35q0 -35 -25 -60.5t-59 -25.5
q-32 0 -54 -21.5t-22 -52.5q0 -32 22 -53.5t54 -21.5h135q29 0 49.5 20t20.5 49h16q0 -35 -25.5 -60.5t-60.5 -25.5h-135q-38 0 -65 27t-27 65q0 37 27 64t65 27q28 0 49 20t21 49v35h-6q-166 0 -283.5 116.5t-120.5 282.5z" />
    <glyph glyph-name="egrave" unicode="&#xe8;" horiz-adv-x="897" 
d="M51 362q-3 167 115 285q117 120 283 123h14q0 -304 -193 -625q-13 -23 9 -41q119 -90 249 -90q124 0 203 82q98 98 70 271h57q0 -167 -116 -284t-283 -120h-4q-144 0 -252 88l-6 6q-67 51 -105.5 134.5t-40.5 170.5zM176 637q-97 -100 -70 -260q39 -145 117 -223
q7 -8 19 -6.5t18 10.5q159 273 184 532q0 19 -20 27q-8 2 -16 2h-27q-123 0 -205 -82zM494 907l-93 94l13 11l92 -92z" />
    <glyph glyph-name="eacute" unicode="&#xe9;" horiz-adv-x="897" 
d="M51 362q-3 167 115 285q117 120 283 123h14q0 -304 -193 -625q-13 -23 9 -41q119 -90 249 -90q124 0 203 82q98 98 70 271h57q0 -167 -116 -284t-283 -120h-4q-144 0 -252 88l-6 6q-67 51 -105.5 134.5t-40.5 170.5zM176 637q-97 -100 -70 -260q39 -145 117 -223
q7 -8 19 -6.5t18 10.5q159 273 184 532q0 19 -20 27q-8 2 -16 2h-27q-123 0 -205 -82zM494 1012l12 -11l-92 -94l-13 13z" />
    <glyph glyph-name="ecircumflex" unicode="&#xea;" horiz-adv-x="897" 
d="M51 362q-3 167 115 285q117 120 283 123h14q0 -304 -193 -625q-13 -23 9 -41q119 -90 249 -90q124 0 203 82q98 98 70 271h57q0 -167 -116 -284t-283 -120h-4q-144 0 -252 88l-6 6q-67 51 -105.5 134.5t-40.5 170.5zM176 637q-97 -100 -70 -260q39 -145 117 -223
q7 -8 19 -6.5t18 10.5q159 273 184 532q0 19 -20 27q-8 2 -16 2h-27q-123 0 -205 -82zM334 915l121 119l118 -119l-10 -10l-108 109l-109 -109z" />
    <glyph glyph-name="edieresis" unicode="&#xeb;" horiz-adv-x="897" 
d="M51 362q-3 167 115 285q117 120 283 123h14q0 -304 -193 -625q-13 -23 9 -41q119 -90 249 -90q124 0 203 82q98 98 70 271h57q0 -167 -116 -284t-283 -120h-4q-144 0 -252 88l-6 6q-67 51 -105.5 134.5t-40.5 170.5zM176 637q-97 -100 -70 -260q39 -145 117 -223
q7 -8 19 -6.5t18 10.5q159 273 184 532q0 19 -20 27q-8 2 -16 2h-27q-123 0 -205 -82zM567 907l-57 60l57 57l60 -57zM340 907l-59 60l59 57l57 -57z" />
    <glyph glyph-name="igrave" unicode="&#xec;" horiz-adv-x="260" 
d="M240 0h-205v16q25 0 42 17.5t17 42.5v616q0 25 -17 42.5t-42 17.5v16h205v-16q-24 -2 -40 -19t-16 -41v-620q0 -25 17 -39q17 -17 39 -17v-16zM178 930l-94 94l12 10l94 -94z" />
    <glyph glyph-name="iacute" unicode="&#xed;" horiz-adv-x="260" 
d="M240 0h-205v16q25 0 42 17.5t17 42.5v616q0 25 -17 42.5t-42 17.5v16h205v-16q-24 -2 -40 -19t-16 -41v-620q0 -25 17 -39q17 -17 39 -17v-16zM96 930l-12 10l94 94l12 -10z" />
    <glyph glyph-name="icircumflex" unicode="&#xee;" horiz-adv-x="299" 
d="M53 752v16h205v-16q-23 -2 -39 -18.5t-16 -41.5v-620q0 -26 16 -39q17 -17 39 -17v-16h-205v16q25 0 42.5 17.5t17.5 42.5v616q0 23 -17 43q-20 17 -43 17zM45 930l-10 10l121 123l123 -123l-13 -10l-110 110z" />
    <glyph glyph-name="idieresis" unicode="&#xef;" horiz-adv-x="327" 
d="M68 0v16q25 0 42 17.5t17 42.5v616q0 24 -16 43q-17 17 -43 17v16h206v-16q-25 -1 -40 -18t-15 -42v-620q0 -25 17 -39q14 -17 38 -17v-16h-206zM248 930l-60 59l60 60l59 -60zM94 930l-59 59l59 60l60 -60z" />
    <glyph glyph-name="ntilde" unicode="&#xf1;" horiz-adv-x="673" 
d="M31 0v18q22 0 40.5 18t18.5 40v620q0 23 -18 41.5t-41 18.5v16h149v-2q0 -19 16 -28t33 -1q60 31 115 31q103 0 177 -72t77 -176v-6l-4 -442q0 -23 18 -41.5t41 -18.5v-16h-59l-150 2v16q24 0 42 17t18 41v37l2 438v78q0 64 -48 95.5t-114 31.5q-64 0 -110.5 -31.5
t-49.5 -93.5v-72l-2 -483q0 -25 17.5 -42.5t42.5 -17.5v-16h-211zM256 954l-10 11q22 22 51 22t51 -22q15 -15 39 -15q26 0 41 15l10 -11q-22 -22 -51 -22t-51 22q-14 17 -39 17q-24 0 -41 -17z" />
    <glyph glyph-name="ograve" unicode="&#xf2;" horiz-adv-x="909" 
d="M172 78q-117 114 -121 277.5t105 283.5l20 20q117 111 279 111q167 0 285 -118t118 -285q0 -157 -104 -273l-21 -20q-117 -111 -278 -111q-162 0 -283 115zM168 629q-81 -91 -66 -230q20 -155 145.5 -270t280.5 -115q117 0 195 72l18 18q82 91 66 230q-11 100 -73.5 189
t-157.5 142.5t-195 53.5q-117 0 -195 -72zM496 911l-93 95l11 10l92 -92z" />
    <glyph glyph-name="oacute" unicode="&#xf3;" horiz-adv-x="909" 
d="M172 78q-117 114 -121 277.5t105 283.5l20 20q117 111 279 111q167 0 285 -118t118 -285q0 -157 -104 -273l-21 -20q-117 -111 -278 -111q-162 0 -283 115zM168 629q-81 -91 -66 -230q20 -155 145.5 -270t280.5 -115q117 0 195 72l18 18q82 91 66 230q-11 100 -73.5 189
t-157.5 142.5t-195 53.5q-117 0 -195 -72zM414 911l-11 13l93 92l10 -10z" />
    <glyph glyph-name="ocircumflex" unicode="&#xf4;" horiz-adv-x="909" 
d="M172 78q-117 114 -121 277.5t105 283.5l20 20q117 111 279 111q167 0 285 -118t118 -285q0 -157 -104 -273l-21 -20q-117 -111 -278 -111q-162 0 -283 115zM168 629q-81 -91 -66 -230q20 -155 145.5 -270t280.5 -115q117 0 195 72l18 18q82 91 66 230q-11 100 -73.5 189
t-157.5 142.5t-195 53.5q-117 0 -195 -72zM346 911l-12 13l121 118l118 -118l-10 -13l-108 109z" />
    <glyph glyph-name="otilde" unicode="&#xf5;" horiz-adv-x="909" 
d="M172 78q-117 114 -121 277.5t105 283.5l20 20q117 111 279 111q167 0 285 -118t118 -285q0 -157 -104 -273l-21 -20q-117 -111 -278 -111q-162 0 -283 115zM168 629q-81 -91 -66 -230q20 -155 145.5 -270t280.5 -115q117 0 195 72l18 18q82 91 66 230q-11 100 -73.5 189
t-157.5 142.5t-195 53.5q-117 0 -195 -72zM371 932l-13 12q21 21 52 21t49 -21q19 -16 41 -16q23 0 39 16l10 -12q-21 -21 -49 -21q-26 0 -51 21q-13 16 -39 16t-39 -16z" />
    <glyph glyph-name="odieresis" unicode="&#xf6;" horiz-adv-x="909" 
d="M172 78q-117 114 -121 277.5t105 283.5l20 20q117 111 279 111q167 0 285 -118t118 -285q0 -157 -104 -273l-21 -20q-117 -111 -278 -111q-162 0 -283 115zM168 629q-81 -91 -66 -230q20 -155 145.5 -270t280.5 -115q117 0 195 72l18 18q82 91 66 230q-11 100 -73.5 189
t-157.5 142.5t-195 53.5q-117 0 -195 -72zM569 911l-59 60l59 57l58 -57zM283 971l57 57l57 -57l-57 -60z" />
    <glyph glyph-name="ugrave" unicode="&#xf9;" horiz-adv-x="671" 
d="M20 770h60l149 -2v-14h-4v-2h-10q-2 -1 -5.5 -2t-4.5 -2l-2 -3l-8 -4l-2 -2q-1 -1 -3 -2t-2 -2l-6 -6q-12 -18 -12 -35v-35l-2 -473v-80q0 -63 47 -93.5t113 -30.5q45 0 88 16h2q32 13 50.5 42.5t18.5 65.5v41l2 31v516q3 22 -16 41q-16 19 -41 19v16h209v-18h-4
q-8 0 -12 -2q-1 0 -4.5 -1t-4.5 -1l-2 -3l-8 -4l-4 -4q-2 -2 -4 -2q-9 -9 -12 -22q-2 -2 -2 -4v-2q-2 -4 -2 -13v-618q0 -25 17 -42.5t42 -17.5v-16h-149v25q-74 -60 -164 -60q-101 0 -175 73t-77 175v4h2l2 477q0 25 -19 41q-16 19 -41 19v16zM373 928l-94 94l10 12l94 -94
z" />
    <glyph glyph-name="uacute" unicode="&#xfa;" horiz-adv-x="671" 
d="M20 770h60l149 -2v-14h-4v-2h-10q-2 -1 -5.5 -2t-4.5 -2l-2 -3l-8 -4l-2 -2q-1 -1 -3 -2t-2 -2l-6 -6q-12 -18 -12 -35v-35l-2 -473v-80q0 -63 47 -93.5t113 -30.5q45 0 88 16h2q32 13 50.5 42.5t18.5 65.5v41l2 31v516q3 22 -16 41q-16 19 -41 19v16h209v-18h-4
q-8 0 -12 -2q-1 0 -4.5 -1t-4.5 -1l-2 -3l-8 -4l-4 -4q-2 -2 -4 -2q-9 -9 -12 -22q-2 -2 -2 -4v-2q-2 -4 -2 -13v-618q0 -25 17 -42.5t42 -17.5v-16h-149v25q-74 -60 -164 -60q-101 0 -175 73t-77 175v4h2l2 477q0 25 -19 41q-16 19 -41 19v16zM279 940l94 94l10 -12
l-94 -94z" />
    <glyph glyph-name="ucircumflex" unicode="&#xfb;" horiz-adv-x="671" 
d="M20 770h60l149 -2v-14h-4v-2h-10q-2 -1 -5.5 -2t-4.5 -2l-2 -3l-8 -4l-2 -2q-1 -1 -3 -2t-2 -2l-6 -6q-12 -18 -12 -35v-35l-2 -473v-80q0 -63 47 -93.5t113 -30.5q45 0 88 16h2q32 13 50.5 42.5t18.5 65.5v41l2 31v516q3 22 -16 41q-16 19 -41 19v16h209v-18h-4
q-8 0 -12 -2q-1 0 -4.5 -1t-4.5 -1l-2 -3l-8 -4l-4 -4q-2 -2 -4 -2q-9 -9 -12 -22q-2 -2 -2 -4v-2q-2 -4 -2 -13v-618q0 -25 17 -42.5t42 -17.5v-16h-149v25q-74 -60 -164 -60q-101 0 -175 73t-77 175v4h2l2 477q0 25 -19 41q-16 19 -41 19v16zM221 928l-12 12l123 121
l121 -121l-13 -12l-108 110z" />
    <glyph glyph-name="udieresis" unicode="&#xfc;" horiz-adv-x="671" 
d="M20 754v16h60l149 -2v-14h-4v-2h-10q-2 -1 -5.5 -2t-4.5 -2l-2 -3l-8 -4l-2 -2q-1 -1 -3 -2t-2 -2l-6 -6q-12 -18 -12 -35v-35l-2 -473v-80q0 -63 47 -93.5t113 -30.5q45 0 88 16h2q32 13 50.5 42.5t18.5 65.5v41l2 31v516q3 22 -16 41q-16 19 -41 19v16h209v-18h-4
q-8 0 -12 -2q-1 0 -4.5 -1t-4.5 -1l-2 -3l-8 -4l-4 -4q-2 -2 -4 -2q-9 -9 -12 -22q-2 -2 -2 -4v-2q-2 -4 -2 -13v-618q0 -25 17 -42.5t42 -17.5v-16h-149v25q-74 -60 -164 -60q-101 0 -175 73t-77 175v4h2l2 477q0 25 -19 41q-16 19 -41 19zM446 928l-59 59l59 60l60 -60z
M156 987l59 60l59 -60l-59 -59z" />
    <glyph glyph-name="tilde" unicode="&#x2dc;" horiz-adv-x="452" 
d="M41 369l-10 12q41 41 100 41q62 0 100 -41q40 -37 91 -37q53 0 90 37l10 -12q-41 -41 -100 -41q-57 0 -101 41q-36 39 -90 39q-51 0 -90 -39z" />
    <glyph glyph-name="quotedblleft" unicode="&#x201c;" horiz-adv-x="360" 
d="M184 1272l135 135l11 -10l-78 -80l45 -45l-57 -58zM88 1214l-57 58l135 135l10 -10l-78 -80l47 -45z" />
    <glyph glyph-name="quotedblright" unicode="&#x201d;" horiz-adv-x="360" 
d="M109 1317l-78 80l10 10l135 -135l-55 -58l-58 58zM262 1317l-78 80l11 10l135 -135l-58 -58l-57 58z" />
    <glyph glyph-name="dagger" unicode="&#x2020;" horiz-adv-x="471" 
d="M31 526h196v246h17v-246h196v-16h-196v-510h-17v510h-196v16z" />
    <glyph glyph-name="daggerdbl" unicode="&#x2021;" horiz-adv-x="471" 
d="M31 510v16h196v246h17v-246h196v-16h-196v-250h196v-16h-196v-244h-17v244h-196v16h196v250h-196z" />
    <glyph glyph-name="E.ss01" horiz-adv-x="847" 
d="M143 76q-118 118 -112 284q6 153 119 263l20 22q11 10 10.5 24.5t-12.5 24.5q-66 55 -102 133.5t-35 167.5q3 157 118.5 266t274.5 109h393v-72h-16q0 23 -17.5 40.5t-40.5 17.5h-329q-56 0 -103.5 -22.5t-80.5 -59t-56 -85t-34 -99.5t-11 -103t11 -103t34 -99.5t56 -85
t80.5 -59t103.5 -22.5h157q32 0 54 22.5t22 53.5h17v-170h-17v4q0 31 -22 53.5t-54 22.5h-157q-102 0 -185 47q-20 10 -36 -6l-39 -39q-75 -72 -72 -174q2 -104 62 -201t157 -157t201 -60q97 -3 172 72l459 459q17 17 17 41t-17 41l12 10l51 -51l-510 -510
q-113 -113 -272 -113q-161 0 -271 113z" />
    <glyph glyph-name="H.ss01" horiz-adv-x="1230" 
d="M35 0v16q25 0 42 17.5t17 42.5v1222q0 27 -16 43q-20 17 -43 17v16h207v-16q-24 -2 -40 -19t-16 -41v-507q0 -40 27.5 -68.5t67.5 -28.5h188q70 0 120 50.5t50 121.5v355q0 78 54.5 132t131.5 54h88q73 0 127 -49t60 -121v-1126q0 -39 28 -67t66 -28h2v-16h-207v16
q39 0 66.5 28t27.5 67v1110q0 89 -63.5 134t-149.5 31q-56 -15 -91.5 -60.5t-35.5 -104.5v-355q0 -78 -54.5 -132t-131.5 -54h-276q-40 0 -67.5 -28t-27.5 -68v-512q0 -23 16.5 -39.5t39.5 -16.5v-16h-207z" />
    <glyph glyph-name="H.ss02" horiz-adv-x="1089" 
d="M35 16q25 0 42 17.5t17 42.5v1222q0 27 -16 43q-20 17 -43 17v16h207v-16q-24 -2 -40 -19t-16 -41v-507q0 -40 27.5 -68.5t67.5 -28.5h47q70 0 120 50.5t50 121.5v355q0 78 54.5 132t131.5 54h88q73 0 127.5 -49.5t58.5 -120.5v-1126q0 -39 28 -67t67 -28h2v-16h-207v16
q38 0 66 28t28 67v1110q0 71 -50 121.5t-120 50.5q-10 0 -26.5 -3.5t-18.5 -3.5q-55 -15 -91 -60.5t-36 -104.5v-355q0 -78 -54 -132t-132 -54h-133q-40 0 -67.5 -28t-27.5 -68v-512q0 -22 17 -39q14 -17 39 -17v-16h-207v16z" />
    <glyph glyph-name="I.ss01" horiz-adv-x="722" 
d="M723 0h-723v74h16q0 -25 16.5 -41.5t41.5 -16.5q23 0 39 16.5t16 41.5v579q0 77 55 135t131 58q71 0 120.5 50t49.5 120v282q0 25 -17 42.5t-40 17.5h-354q-25 0 -41.5 -17.5t-16.5 -42.5h-16v74h723v-74h-16q0 25 -16.5 42.5t-41.5 17.5q-23 0 -40 -17.5t-17 -42.5v-276
q0 -77 -54 -135t-130 -58q-70 0 -120 -49.5t-50 -120.5v-585q0 -24 17 -41t40 -17h354q25 0 41.5 16.5t16.5 41.5h16v-74z" />
    <glyph glyph-name="I.ss02" horiz-adv-x="1161" 
d="M1161 0h-1161v74h16q0 -25 16.5 -41.5t41.5 -16.5h217q25 0 41 16.5t16 41.5v579q0 77 55.5 135t131.5 58q71 0 120.5 50t49.5 120v282q0 25 -17.5 42.5t-40.5 17.5h-573q-25 0 -41.5 -17.5t-16.5 -42.5h-16v74h1161v-74h-16q0 25 -16.5 42.5t-41.5 17.5h-217
q-25 0 -42 -17.5t-17 -42.5v-276q0 -77 -54 -135t-130 -58q-71 0 -120.5 -49.5t-49.5 -120.5v-585q0 -24 16.5 -41t40.5 -17h573q25 0 41.5 16.5t16.5 41.5h16v-74z" />
    <glyph glyph-name="L.ss01" horiz-adv-x="311" 
d="M193 -57q-69 59 -162 59v14q31 0 52 21.5t21 52.5v1204q0 24 -16 43q-20 17 -43 17v16h203v-16q-22 -2 -37.5 -19.5t-15.5 -40.5v-1183q0 -94 61 -164l127 -146l117 -116q91 -91 217 -91q86 0 161.5 44t114.5 118q66 134 7.5 276t-191.5 206q-34 15 -66 -6t-32 -58h-17
v203h17q0 -38 21 -70t56 -45q103 -38 171.5 -125t80.5 -196q11 -109 -42.5 -203t-153.5 -135q-64 -25 -125 -25q-137 0 -230 96l-100 99z" />
    <glyph glyph-name="L.ss02" horiz-adv-x="296" 
d="M31 16q31 0 52 21.5t21 52.5v1208q0 25 -16 41q-20 17 -43 17v16h205v-16q-23 -2 -39 -18.5t-16 -39.5v-1187q0 -94 61 -164l129 -146l250 -252q92 -92 217 -92q86 0 159.5 42.5t116.5 117.5q43 86 35 176t-59.5 171t-130.5 126q-42 21 -64 19q-26 -1 -44.5 -22.5
t-16.5 -47.5h-17v205h15q0 -52 41 -90q8 -7 18.5 -13.5t18.5 -10.5t21.5 -11t19.5 -10q127 -62 180 -187q27 -56 33 -117q9 -108 -43 -202t-156 -135q-64 -25 -125 -25q-133 0 -229 96l-236 234l-196 170q-69 59 -162 59v14z" />
    <glyph glyph-name="M.ss01" horiz-adv-x="2154" 
d="M174 0h-174v16q35 0 64.5 21t41.5 55l365 1043q9 23 -5.5 44t-39.5 21h-2l61 172h203v-16h-26l344 -998q6 -19 25 -25.5t36 3.5q144 80 203 252l190 547q8 25 -6 45t-39 20l62 172h202v-16h-26l446 -1301q14 -39 55 -39v-16h-174v16q14 0 22.5 11.5t4.5 23.5l-436 1256
q-5 12 -18 12t-17 -12l-250 -723q-67 -187 -225 -271q-14 -8 -20.5 -23t-2.5 -30l72 -205q14 -39 55 -39v-16h-174v16q13 0 21.5 11.5t3.5 23.5l-62 182q-6 14 -20 22t-29 7q-54 -8 -82 -8q-178 0 -313 112.5t-164 288.5q-1 10 -11 10.5t-13 -8.5l-199 -567q-9 -28 7 -51
t44 -23v-16zM365 772q-14 -51 -9 -88q22 -169 136 -277.5t258 -130.5q72 -10 133 -2q21 1 32 19t5 39l-336 975q-5 12 -17.5 12t-17.5 -12z" />
    <glyph glyph-name="W.ss01" horiz-adv-x="2154" 
d="M0 1372h174v-16q-13 0 -21 -11.5t-3 -23.5l434 -1255q4 -12 17.5 -12t16.5 12l252 722q64 187 226 271q13 7 19 22.5t1 30.5l-69 205q-6 17 -21.5 28t-34.5 11v16h174v-16q-13 0 -22 -11.5t-4 -23.5l63 -182q5 -14 18.5 -22t28.5 -7q36 8 82 8q117 0 219.5 -50t171 -142
t86.5 -209q2 -9 12 -10t15 8l199 569q2 6 2 16q0 24 -16 40t-40 16v16h174v-16q-36 0 -65 -20.5t-41 -55.5l-420 -1198q-8 -25 6.5 -45.5t40.5 -20.5l-6 -16h-203v16h27l-344 998q-9 28 -39 28q-14 0 -23 -6q-143 -79 -202 -252l-135 -387l-109 -319q-9 -23 5.5 -42.5
t39.5 -19.5l-6 -16h-205v16h27l-447 1301q-6 19 -20 29q-17 10 -35 10v16zM1272 1098q-20 -1 -31.5 -19.5t-5.5 -38.5l338 -974q3 -12 16.5 -12t16.5 12l184 536q14 39 8 86q-11 86 -49 159.5t-92 124t-118.5 82.5t-133.5 42q-62 11 -133 2z" />
    <glyph glyph-name="Y.ss01" horiz-adv-x="1024" 
d="M6 1356h-6v16h176v-16h-26l215 -627q12 -39 55 -49q102 -25 207 -90q14 -9 29.5 -4t21.5 20l231 664q11 32 -8 59t-53 27v16h176v-16q-31 0 -55 -17t-35 -45l-244 -700q-13 -39 19 -68q8 -6 24 -22q174 -171 205 -414q5 -31 29.5 -52.5t56.5 -21.5v-16h-176v16
q34 0 56.5 26t17.5 60q-38 243 -213.5 404t-421.5 176l-217 629q-17 45 -64 45z" />
    <glyph glyph-name="Z.ss01" horiz-adv-x="1021" 
d="M0 1372h1022v-18l-401 -535q-179 -239 -48 -526q43 -89 119.5 -156t169.5 -96q54 -17 99 15t45 87h16v-143h-16q-143 5 -263 81.5t-184 205.5l-43 96q-59 127 -47.5 257.5t92.5 238.5l361 477h-848q-25 0 -41.5 -16.5t-16.5 -41.5h-16v74z" />
    <glyph glyph-name="b.ss01" horiz-adv-x="714" 
d="M31 18q25 0 42 17.5t17 42.5v1065q0 26 -18 41q-15 18 -41 18v17h207v-17q-24 -1 -40 -18t-16 -41v-406q0 -20 9.5 -39t17 -27t27.5 -28q134 -125 296 -209q56 -31 92.5 -87t39.5 -120q3 -111 -79.5 -194.5t-197.5 -71.5q-110 9 -180 102q-6 7 -15.5 4t-9.5 -12v-53h-151
v16zM215 641q-9 9 -21 4t-12 -18v-471q11 -60 54 -104t102 -44q90 0 172 76t100 168q16 81 -30 127q-22 21 -54 41q-158 86 -311 221z" />
    <glyph glyph-name="d.ss01" horiz-adv-x="714" 
d="M328 -39q-115 -12 -197.5 71.5t-79.5 194.5q3 64 39 120t92 87q164 85 297 209q19 19 27 28t17 27.5t9 38.5v406q0 24 -15.5 41t-39.5 18v17h207v-17q-26 0 -41 -18q-18 -15 -18 -41v-1065q0 -25 17 -42.5t42 -17.5v-16h-152v53q0 9 -9 12t-15 -4q-70 -93 -180 -102z
M135 379q-47 -47 -31 -127q18 -92 100.5 -168t172.5 -76q59 0 101.5 44t53.5 104v471q0 13 -11.5 18t-20.5 -4q-151 -134 -312 -221q-30 -18 -53 -41z" />
    <glyph glyph-name="o.ss01" horiz-adv-x="651" 
d="M31 483q3 119 88 203.5t203 85.5q125 0 213 -88q84 -84 84 -207.5t-84 -208.5q-86 -86 -205 -86q-127 -1 -213 86.5t-86 214.5zM293 717q-141 19 -188 -75q-40 -79 2 -193q42 -115 138 -180q59 -40 126 -48q90 -13 155 55q44 44 46 113.5t-26 132t-71 103.5
q-76 76 -182 92zM109 0v14h434v-14h-434z" />
    <glyph glyph-name="s.ss01" horiz-adv-x="634" 
d="M43 -14v166h18q1 0 5 -11.5t4 -13.5q11 -21 20 -33q62 -89 182 -102q64 -8 125 12.5t105 65.5q28 30 39.5 70t1.5 79q-24 89 -154 137q-15 5 -62 19.5t-78.5 27t-58.5 29.5q-55 30 -84 86.5t-14 116.5q21 76 91.5 113.5t152.5 29.5q77 -7 127 -51q4 -4 16 -12
q12 -4 19 -2q14 8 14 28q-4 23 -2 33h16v-174h-16q3 0 -3.5 26.5t-8.5 30.5q-6 15 -21 34t-28 28l-7 6q-67 49 -159 39q-44 -7 -83 -29.5t-57 -58.5q-2 -2 -6 -10q-20 -54 13 -109q24 -39 79 -59q27 -10 84.5 -28.5t92.5 -31t77 -40.5t68 -64q47 -65 39.5 -147.5
t-68.5 -137.5q-82 -73 -203 -76q-67 -1 -126.5 22.5t-98.5 65.5q-10 11 -23.5 6t-13.5 -20v-61h-14z" />
    <glyph glyph-name="p.ss01" horiz-adv-x="735" 
d="M31 -635v17q28 0 43 18q18 15 18 43v1251q0 26 -17.5 44t-43.5 18v16h155v-53q0 -11 10.5 -14t16.5 6q37 49 93.5 76.5t119.5 27.5q98 0 170 -64.5t86 -162.5q6 -60 -10 -111q-30 -95 -123 -149q-93 -50 -202 -127t-144 -133q-17 -23 -17 -54q-2 -44 -2 -94.5t1 -111.5
t1 -93v-272q0 -25 16.5 -42t41.5 -19v-17h-213zM186 129q0 -14 13 -19t22 5q151 135 320 227q26 16 55 41v2q48 48 33 131q-18 94 -103.5 171t-179.5 77q-58 0 -94 -33q-51 -55 -66 -117v-485z" />
    <glyph glyph-name="q.ss01" horiz-adv-x="735" 
d="M63 477q-17 51 -10 111q14 98 86 162.5t170 64.5q63 0 119.5 -27.5t93.5 -76.5q6 -9 16.5 -6t10.5 14v53h156v-16q-26 0 -44 -18t-18 -44v-1251q0 -27 19 -43q15 -18 43 -18v-17h-213v17q25 1 41 18.5t16 42.5v272q0 32 1 93t1 111.5t-2 94.5q0 31 -17 54
q-35 56 -144 133t-202 127q-93 54 -123 149zM106 516q-15 -83 33 -131v-2q27 -24 56 -41q166 -91 319 -227q9 -10 22 -5t13 19v485q-14 62 -64 115q-38 35 -96 35q-94 0 -179.5 -77t-103.5 -171z" />
    <glyph glyph-name="spook.01" horiz-adv-x="1196" 
d="M176 383q-116 116 -157.5 270t0 307.5t157.5 268.5q87 87 196 131.5t226 44.5t226 -44.5t196 -131.5q115 -115 155.5 -269t0 -308t-155.5 -269l-422 -422zM57 807q0 -109 41 -208.5t117 -174.5l383 -381l381 381q104 104 141 243t0 278t-141 243q-77 77 -175.5 118.5
t-205.5 41.5q-146 0 -270.5 -73t-197.5 -197.5t-73 -270.5zM305 653q-69 0 -118.5 49.5t-49.5 118.5t49.5 118.5t118.5 49.5t118.5 -49.5t49.5 -118.5t-49.5 -118.5t-118.5 -49.5zM891 653q-69 0 -118.5 49.5t-49.5 118.5t49.5 118.5t118.5 49.5t118.5 -49.5t49.5 -118.5
t-49.5 -118.5t-118.5 -49.5zM463 557q-15 21 -4 49l94 189q12 28 45 28t45 -28l92 -189q14 -27 -2 -49q-14 -25 -43 -25h-184q-29 0 -43 25zM891 932q-45 0 -78 -33t-33 -78q0 -46 32.5 -78t78.5 -32t78 32t32 78q0 45 -32.5 78t-77.5 33zM305 932q-45 0 -77.5 -33
t-32.5 -78q0 -46 32 -78t78 -32t78.5 32t32.5 78q0 45 -33 78t-78 33zM598 758l-82 -168h164z" />
    <glyph glyph-name="spook.02" horiz-adv-x="3112" 
d="M584 4q-5 2 -14 6.5t-27 21t-27.5 36.5t-5.5 55t29 74q26 42 71.5 96t79.5 92.5t66 100.5t45 132q28 150 57 202t84 52q21 0 31.5 -13.5t18.5 -30.5t22 -23q10 -1 15.5 -1.5t15.5 4.5t15.5 9t14.5 10.5t12 8.5q101 73 177 73q43 0 74 -21t40 -63q11 -55 -18.5 -105.5
t-81.5 -82.5q-15 -9 -28.5 -19.5t-29.5 -27.5t-17 -32.5t11 -33.5q17 -20 43 -20q24 0 47.5 15t34.5 36q32 71 41 94q12 29 30 60.5t48 68t64.5 65t81.5 47.5t96 19q76 0 118.5 -40.5t51.5 -114.5v-10.5v-13t0.5 -13t2.5 -13.5t5 -10.5t8 -7.5q8 -4 15 -4q49 -3 84 41
q13 14 35 42t41 48.5t40 36.5q82 61 172 61q57 0 100 -32.5t58 -87.5q5 -14 6.5 -29t0.5 -24.5t-3.5 -28.5t-3.5 -27q-3 -21 10 -31q12 -9 29 -2q8 4 10 6q25 14 37 45q39 103 132 291.5t134 233.5q6 9 16.5 22.5t41 32.5t57.5 12q39 -9 41 -55.5t-14 -88t-33 -69.5
q-21 -36 -113 -166q-5 -7 -17.5 -22t-19 -24.5t-14 -23.5t-10.5 -28v-4q0 -2 4 -2q7 0 14.5 3.5t12 7t12.5 11t10 9.5q80 69 166 69q43 0 74.5 -22t40.5 -62q11 -55 -19 -105.5t-82 -82.5q-21 -12 -39.5 -28t-31.5 -40.5t8 -44.5q18 -18 41 -18q29 0 69 24q50 33 76 33
q14 0 27 -10q33 -27 -27 -94q-40 -40 -114.5 -69.5t-133.5 -29.5q-79 0 -125 52q-28 37 -28 72t24.5 69t53.5 58.5t59 39.5q59 28 74 68q4 17 0 26q-8 17 -31 17q-19 0 -82 -27q-55 -30 -92 -67q-24 -24 -44.5 -58t-30.5 -55.5t-28 -70t-24 -62.5q-4 -9 -12.5 -28.5
t-12.5 -28.5q-11 -26 -38 -40t-60 -14t-58 14.5t-26 39.5v14q14 56 -4 70q-6 4 -15 1t-14 -10q-110 -120 -256 -102q-60 7 -96 45q-13 13 -25 40t-26 47t-37 26q-26 7 -56.5 -5t-50.5 -34q-99 -119 -229 -119q-44 0 -81 18t-64.5 36t-49.5 18q-14 0 -32 -9q-98 -43 -158 -43
q-75 0 -123 54q-27 37 -26.5 72t25 69t53 58.5t57.5 39.5q33 17 53 38.5t21 36t-3 24.5q-3 6 -24 6q-39 0 -95.5 -28t-107.5 -89q-43 -51 -76 -143t-65.5 -202.5t-61.5 -170.5q-21 -44 -48.5 -72.5t-52 -38t-46 -12t-34.5 0.5zM25 436q-41 77 -16.5 145.5t83.5 118.5t131 70
q37 11 62 6q27 -5 44 -32t5 -54q-3 -6 -8 -11.5t-9 -9t-12 -8t-12 -6t-13.5 -5.5t-11.5 -5q-23 -10 -45.5 -28.5t-34.5 -44.5t15 -48q9 -6 39 -16q85 -25 166 -10q37 8 72 25.5t58.5 50.5t12.5 71q-6 25 -28.5 50t-41 38t-49.5 31q-184 97 -235 205q-3 6 -8 16.5t-11.5 43
t-3.5 65.5t24.5 79.5t63.5 88.5q41 43 95 73.5t101 43.5t88.5 20.5t65.5 7.5h25q66 0 118 -28t76 -85q5 -10 9 -12q4 -4 16 -8q2 -1 7 -2t7 -2q564 -156 969 -156q188 0 340 37q11 3 118 37t165 39q52 5 89 -11.5t40 -64.5q4 -63 -77 -108.5t-224.5 -67.5t-333.5 -21
q-206 3 -426 31q-42 5 -57 8q-296 37 -531 105q-50 12 -76 8t-42 -20.5t-30.5 -43t-27.5 -38.5q-46 -43 -123 -43q-54 0 -91 25.5t-40 76.5q-2 45 24 82.5t68 50.5q3 1 14 3t18 5.5t9 9.5q7 19 -18 31t-45 12q-72 0 -142 -55q-32 -25 -48.5 -60t-8.5 -71q5 -22 20 -43
t29.5 -33.5t38.5 -29.5q17 -13 53 -38q23 -17 35 -25.5t34.5 -25.5t34 -28t30 -28t28.5 -31.5t22.5 -33t18 -36t10.5 -38.5t4 -43t-6 -46q-12 -59 -41.5 -106.5t-66.5 -76t-79 -49t-81.5 -29.5t-71.5 -13.5t-51 -4.5h-20q-92 -2 -176.5 27t-122.5 96zM2202 748
q-31 -1 -65.5 -32t-55.5 -70.5t-19.5 -81t35.5 -62.5q33 -21 74 -10q54 12 82 63q1 2 13.5 22t15 25t10 22.5t7.5 27t-2 23.5t-9 27q-12 22 -36 34.5t-50 11.5zM1638 748q-31 -1 -65.5 -32t-55.5 -70.5t-19 -81t36 -62.5q32 -20 72 -10q56 12 84 63q2 3 12 19t12.5 21
t9.5 19.5t8.5 22.5t3 20t-2 23t-9.5 22q-12 22 -36 34.5t-50 11.5zM2269 66q0 30 23 47q21 18 55 18q32 0 56 -16.5t24 -48.5q0 -30 -24 -48t-56 -18q-34 0 -55 18q-23 17 -23 48zM973 2v127h67q32 0 54 -16q18 -18 18 -47q0 -28 -18 -46q-21 -18 -54 -18h-67zM1169 129h121
v-20h-96v-35h90v-19h-90v-32h98v-21h-123v127zM1632 18q-22 19 -22 48t24 47q21 18 62 18q32 0 51 -8l-6 -21q-18 9 -45 9q-24 0 -44 -11t-20 -34q0 -20 19 -33q16 -13 45 -13q19 0 37 9v26h-41v19h65v-58q-32 -16 -61 -16q-40 0 -64 18zM1815 2v127h22l88 -96v96h23v-127
h-23l-88 96v-96h-22zM2292 66q0 -22 16.5 -34t38.5 -12q25 0 41 13q16 16 16 33q0 22 -17 33.5t-40 11.5t-39 -13q-16 -11 -16 -32zM1374 4q-21 7 -31 12l7 19q8 -4 28 -12q15 -3 31 -3q41 0 41 17q0 7 -10 10q-4 3 -33 10q-29 3 -45 15q-14 7 -14 24q0 35 63 35q21 0 31 -2
q4 -1 12 -4t12 -4l-8 -19q-26 11 -47 11q-19 0 -29 -7q-10 -2 -10 -10q0 -7 8 -12q3 -1 15 -3.5t20 -4.5q30 -6 45 -15q13 -10 13 -22q0 -19 -17 -29q-20 -10 -47 -10q-11 0 -35 4zM995 23h47q21 0 33 12q15 12 15 31q0 18 -15 30q-13 13 -33 13h-47v-86zM2089 66
q0 28 25 47q21 18 61 18q28 0 47 -8l-6 -21q-18 9 -41 9q-24 0 -44 -11t-20 -34q0 -20 19 -33q16 -13 45 -13q8 0 25.5 4.5t21.5 8.5l4 -21q-21 -12 -51 -12q-40 0 -61 18q-25 19 -25 48zM1552 2h-22v127h22v-127zM2474 14q0 7 4 9q4 4 8 4q5 0 10 -4.5t5 -8.5
q0 -14 -15 -14q-4 0 -8 4q-4 2 -4 10z" />
    </font>
</defs>
</svg>
