<?xml version="1.0" standalone="no"?>
<!DOCTYPE svg PUBLIC "-//W3C//DTD SVG 1.1//EN" "http://www.w3.org/Graphics/SVG/1.1/DTD/svg11.dtd" >
<svg xmlns="http://www.w3.org/2000/svg" xmlns:xlink="http://www.w3.org/1999/xlink" version="1.1">
<metadata>
Created by FontForge 20201107 at Fri Sep 11 02:14:17 2015
 By 
Blood Lust Regular is a font by Font Monger, designed by Chris Vile in 2015.
</metadata>
<defs>
<font id="BloodLust" horiz-adv-x="717" >
  <font-face 
    font-family="Blood Lust"
    font-weight="400"
    font-stretch="normal"
    units-per-em="1000"
    panose-1="0 0 0 0 0 0 0 0 0 0"
    ascent="497"
    descent="-503"
    x-height="447"
    cap-height="458"
    bbox="-4 -482.667 671 522.667"
    underline-thickness="50"
    underline-position="-100"
    unicode-range="U+000D-00BD"
  />
<missing-glyph horiz-adv-x="500" 
 />
    <glyph glyph-name=".notdef" horiz-adv-x="500" 
 />
    <glyph glyph-name=".null" horiz-adv-x="0" 
 />
    <glyph glyph-name="nonmarkingreturn" unicode="&#xd;" horiz-adv-x="500" 
 />
    <glyph glyph-name="NULL" horiz-adv-x="0" 
 />
    <glyph glyph-name="NULL" horiz-adv-x="0" 
 />
    <glyph glyph-name="space" unicode=" " horiz-adv-x="500" 
 />
    <glyph glyph-name="exclam" unicode="!" horiz-adv-x="166" 
d="M59 -52q0 8 0.5 16.5t-0.5 17.5l-7.5 7.5t-5.5 6.5q-2 5 -2 9.5t-2 7.5l-2 1q-4 2 -5 -1q-2 -6 -2 -8q0 -5 -2.5 -9.5t-4.5 -9.5q-3 1 -3 2q-4 4 -5 6q-1 19 -1 43t1 39q2 2 2.5 3t2.5 3l7 3.5l7 3.5h3q11 1 21 1h20q4 2 6.5 3t5.5 3v3q-8 4 -11 6q-4 0 -7 0.5t-6 0.5
q-4 3 -5.5 6.5t-3.5 8.5v46q-3 6 -5.5 11.5t-5.5 10.5q0 10 -1 15q0 4 -1 7t-3 7v31q-2 7 -4.5 12t-1.5 10q1 8 -4 17q-2 9 -1 17.5t-5 15.5v40q-1 2 -1.5 4t-1.5 4q0 1 -0.5 2t-0.5 3q2 6 3 10q2 14 1 27.5t1 27.5q3 1 7 3q7 0 19 5h44q11 4 14 4.5t11 0.5q1 -1 2 -1.5
t2 -1.5l15 -15q2 -2 2.5 -3t2.5 -3q1 -20 1 -40v-40q-2 -4 -3 -6.5t-2 -5.5v-24q-2 -4 -3 -6.5t-2 -5.5q-1 -6 -1 -12v-13q-2 -3 -2.5 -6t-2.5 -7v-29q-1 -4 -5 -12q-1 -6 -0.5 -12.5t-4.5 -12.5v-30q-2 -5 -3 -8t-3 -7v-20q-1 -7 -3.5 -12t-1.5 -11q1 -3 2 -6.5t3 -8.5v-43
q2 -4 3 -7t2 -7v-24q2 -2 2.5 -5t2.5 -6v-9.5t-0.5 -8t-3 -10.5t-6.5 -17v-14v-14q-1 -2 -2 -5t-3 -8v-109v-110q-2 -2 -2.5 -4.5t-2.5 -5.5q-2 -14 -0.5 -27.5t-0.5 -27.5l-2 -2q-3 1 -4 3t-3 5q-1 19 -1 37.5v38.5v78v76q-2 5 -3.5 10t-3.5 10q-5 5 -8 7q0 11 -0.5 22
t-0.5 22q-2 2 -2.5 3.5t-2.5 3.5l-6 6q-6 -2 -10 -3zM59 -52v-10q0 -3 -3 -3l-1 2q-2 8 4 11z" />
    <glyph glyph-name="quotedbl" unicode="&#x22;" 
d="M339 489q19 1 39 0q69 -5 118 -31t86 -63t61 -88.5t28 -120.5v-18q-4 -72 -29 -123.5t-63 -89.5t-89.5 -62.5t-122.5 -28.5h-18q-5 1 -10 1h-10q-14 2 -28 4.5t-28 6.5q-2 1 -0.5 3t3.5 3q19 22 38.5 45t38.5 45q-31 -8 -61 -16.5t-61 -16.5q2 31 5 62l6 62
q-24 -27 -49 -56t-49 -58q-39 38 -65.5 88t-32.5 120q0 11 -0.5 20.5t0.5 19.5q2 32 11 62q12 44 33 78.5t47 61.5q37 36 86.5 60.5t115.5 29.5zM600 278q-20 48 -56 83q-33 33 -82 57t-117 21q-35 -2 -65 -12t-55 -24q-24 -14 -43.5 -32.5t-35.5 -40.5t-28 -49t-18 -59
q-6 -33 -2.5 -68.5t14.5 -65.5q8 8 15.5 17t15.5 18t15.5 18.5t15.5 18.5q47 55 93.5 109.5t93.5 109.5q64 -55 127.5 -109t127.5 -108q1 0 2 -2t1 0q2 35 -3 64.5t-16 53.5zM524 -26q29 23 51 54.5t34 71.5q-15 14 -30 26.5t-30 25.5q-45 39 -90.5 77.5t-90.5 77.5h-2
q-16 -19 -32 -37.5t-32 -38.5q46 -38 91 -76.5t90 -76.5q2 -2 3.5 -3t1.5 -3q-15 -3 -29.5 -7t-29.5 -8q-41 34 -80 68.5t-80 67.5q-33 -40 -66.5 -78.5t-65.5 -77.5q2 -2 3.5 -5t3.5 -5q32 38 64 75.5t64 74.5q3 -3 6.5 -5.5t7.5 -6.5q2 -2 7.5 -6.5t6.5 -6.5q1 -3 0 -8
t-1 -10q-3 -32 -6 -65t-5 -62q53 14 105 29t105 30q-29 -38 -61.5 -74t-61.5 -73q-1 -1 -3 -2t0 -2q48 4 85.5 19.5t66.5 39.5zM66 -173h28v-8h-18v-10h17v-9h-17v-18h-10v45zM143 -195q0 -24 -22 -24q-11 0 -16.5 6.5t-5.5 16.5q0 11 6 17.5t16 6.5q11 0 16.5 -6.5
t5.5 -16.5zM110 -195q0 -16 11 -16t11 16q0 6 -3 10.5t-8 4.5t-8 -4.5t-3 -10.5zM150 -218v45h12l9 -16q2 -4 3.5 -8t3.5 -8h1q-1 5 -1 9.5v9.5v13h9v-45h-11l-9 18q-5 6 -8 16v-20v-14h-9zM205 -181h-12v8h34v-8h-12v-37h-10v37zM271 -201q0 5 -0.5 9.5t-0.5 9.5
q-1 -5 -2 -9t-3 -9l-5 -17h-8l-5 17q-2 5 -2.5 9t-1.5 9q-1 -5 -1 -9.5v-9.5l-1 -17h-9l2 45h14l5 -15q1 -4 1.5 -8t1.5 -8h1q1 4 1.5 8t2.5 8l5 15h13l3 -45h-10zM331 -195q0 -24 -22 -24q-11 0 -16.5 6.5t-5.5 16.5q0 11 6 17.5t16 6.5q11 0 16.5 -6.5t5.5 -16.5z
M298 -195q0 -16 11 -16t11 16q0 6 -3 10.5t-8 4.5t-8 -4.5t-3 -10.5zM338 -218v45h12l9 -16q2 -4 3.5 -8t3.5 -8v19v13h9v-45h-11l-9 18q-5 6 -8 16v-20v-14h-9zM422 -216q-6 -2 -15 -2q-13 0 -19 6t-6 16q0 11 7.5 17.5t18.5 6.5q8 0 12 -2l-2 -9q-2 2 -10 2q-15 0 -15 -14
q0 -15 14 -15h5v10h-7v8h17v-24zM457 -199h-17v-11h19v-8h-29v45h28v-8h-18v-9h17v-9zM466 -173q2 0 5.5 0.5t7.5 0.5q11 0 15 -4q4 -3 4 -9q0 -9 -8 -11v-1q4 -1 6 -8q2 -4 2.5 -7.5t1.5 -5.5h-11q0 2 -3 11q-1 7 -7 7h-3v-18h-10v45zM476 -193h4q8 0 8 7q0 6 -8 6h-4v-13z
M504 -212q0 6 6 6t6 -6q0 -7 -6 -7t-6 7zM556 -217q-4 -2 -11 -2q-12 0 -18 6.5t-6 16.5q0 11 7 17.5t18 6.5q7 0 11 -2l-2 -8q-4 2 -9 2q-14 0 -14 -15t14 -15q7 0 9 1zM602 -195q0 -24 -22 -24q-10 0 -15.5 6.5t-5.5 16.5q0 11 6 17.5t16 6.5q11 0 16 -6.5t5 -16.5z
M570 -195q0 -16 11 -16t11 16q0 6 -3 10.5t-8 4.5t-8 -4.5t-3 -10.5zM647 -201v19q-2 -5 -3 -9t-2 -9l-6 -17h-8l-5 17q-1 5 -2 9t-2 9v-9.5t-1 -9.5v-17h-10l3 45h14l4 -15q2 -4 2.5 -8t1.5 -8l2 8l2 8l5 15h14l2 -45h-10z" />
    <glyph glyph-name="numbersign" unicode="#" horiz-adv-x="398" 
d="M353 472q4 -14 -4 -28v-21q-2 -3 -2.5 -5.5t-2.5 -5.5v-10t-1 -10q-2 -5 -4 -10.5t1 -12.5l3 -3q4 -1 8 -1h8h6.5t6.5 -2q2 -2 2 -4q1 -3 1 -8v-79q0 -5 -1 -8l-3 -3q-10 -2 -20 -1t-20 -1q-1 -2 -2 -3.5t-1 -3.5q0 -6 -2 -10.5t-4 -9.5q-3 -2 -6.5 -4.5t-6.5 -5.5
q-2 -2 0 -7q1 0 1 -0.5t1 -0.5q4 -1 11 -1h36q5 -1 13 -1q1 -2 2 -2.5t1 -2.5q1 -3 1 -10v-30q-1 -2 -2 -5l-2 -6q-2 -10 -1 -20t-1 -20q-2 -1 -3.5 -2t-3.5 -1h-37h-32q-11 -4 -12 -12q-2 -5 -3.5 -8.5t-1.5 -8.5q-1 -5 -2 -9t-3 -9q-1 -2 -1 -8q0 -7 -1 -10q-4 -7 -4 -14
t-4 -14q-2 -2 -1.5 -4.5t0.5 -5.5q-1 -2 -1 -5t-2 -5q-3 -3 -7 -2.5t-9 -1.5q-1 -3 -6 -5q0 -2 -0.5 -3.5t-0.5 -3.5q-1 -11 -1 -21v-21v-118v-6.5t-1 -6.5q-2 -6 -7 -6q-3 1 -4.5 3t-3.5 6v43v47q0 11 0.5 22.5t-0.5 22.5q0 11 0.5 22.5t-0.5 22.5l-4 2t-4 1h-38q-8 5 -5 9
q2 7 3 13t2 13q1 5 3 11t4 11q1 2 2 5t1 5q-2 10 2 18.5t5 17.5q0 2 1 4.5t2 5.5q1 2 -1.5 4.5t-4.5 2.5q-18 1 -36 0q-4 -2 -4 -4q-2 -7 -5 -14.5t-2 -15.5q-2 -7 -3.5 -13.5t-3.5 -13.5q-3 -8 -3 -13q0 -3 0.5 -5.5t-1.5 -4.5q-4 -6 -3.5 -13t-1.5 -13l-2 -2t-4 -2
q-29 -2 -58 0q-4 5 -7 9.5t-6 9.5q0 3 -1 6t1 5q3 8 3.5 15.5t4.5 14.5q1 8 3 14.5t4 13.5q2 8 5 15t5 14q-1 2 -1.5 4t-1.5 4q-8 0 -15 0.5t-14 0.5q-1 3 -4 4q-1 23 -1 34.5t2 20.5l2 2q5 -1 9 -2t9 -1q7 -2 15 0q3 0 7 4q5 5 3 12q-4 10 -7 14q-5 5 -7 10t-6 9
q-8 8 -11 21q-1 5 -3 8.5t-4 7.5q-5 2 -11 4q-2 4 -2 7q-1 3 -1 6.5v6.5v14q-1 2 -2 5t-2 7q-3 6 1 15q4 6 5 9q6 2 8 2q6 0 12 0.5t12 0.5q4 3 7.5 6.5t7.5 6.5q2 1 3 1t3 1q6 1 12.5 0t12.5 1q4 3 5.5 6.5t3.5 7.5q0 4 0.5 7.5t0.5 8.5l2 6t3 7v18q1 2 2 5t3 7v11t1 12
l3.5 3.5l3.5 3.5q2 0 4 0.5t4 0.5h61q2 0 3.5 -1.5t3.5 -2.5q0 -9 -1 -13q-1 -3 -2.5 -6t-1.5 -7v-12q-2 -3 -2.5 -5.5t-2.5 -5.5v-10t-1 -10q-2 -6 -4 -11v-22q2 -2 2.5 -3.5t2.5 -3.5q3 -3 7 -1q2 1 4 1.5t4 1.5q5 1 9 1h8q7 3 8 8q2 6 3.5 12.5t3.5 12.5v8v4t1 4
q5 6 4.5 13t0.5 15q1 4 2 7.5t2 7.5t1 7.5t2 7.5q2 3 5 2.5t7 1.5q8 2 13 4q15 0 30.5 0.5t31.5 -0.5l2 -2q1 0 1 -0.5t1 -0.5zM188 203q9 6 13 14q-3 8 -5.5 16.5t-5.5 17.5l-2 2q-11 3 -15 -5q-2 -3 -4 -6.5t-4 -7.5q0 -7 -0.5 -14t1.5 -14q5 -5 11 -4.5t11 1.5z" />
    <glyph glyph-name="dollar" unicode="$" 
d="M339 489q19 1 39 0q69 -5 118 -31t86 -63t61 -88.5t28 -120.5v-18q-4 -72 -29 -123.5t-63 -89.5t-89.5 -62.5t-122.5 -28.5h-18q-5 1 -10 1h-10q-14 2 -28 4.5t-28 6.5q-2 1 -0.5 3t3.5 3q19 22 38.5 45t38.5 45q-31 -8 -61 -16.5t-61 -16.5q2 31 5 62l6 62
q-24 -27 -49 -56t-49 -58q-39 38 -65.5 88t-32.5 120q0 11 -0.5 20.5t0.5 19.5q2 32 11 62q12 44 33 78.5t47 61.5q37 36 86.5 60.5t115.5 29.5zM600 278q-20 48 -56 83q-33 33 -82 57t-117 21q-35 -2 -65 -12t-55 -24q-24 -14 -43.5 -32.5t-35.5 -40.5t-28 -49t-18 -59
q-6 -33 -2.5 -68.5t14.5 -65.5q8 8 15.5 17t15.5 18t15.5 18.5t15.5 18.5q47 55 93.5 109.5t93.5 109.5q64 -55 127.5 -109t127.5 -108q1 0 2 -2t1 0q2 35 -3 64.5t-16 53.5zM524 -26q29 23 51 54.5t34 71.5q-15 14 -30 26.5t-30 25.5q-45 39 -90.5 77.5t-90.5 77.5h-2
q-16 -19 -32 -37.5t-32 -38.5q46 -38 91 -76.5t90 -76.5q2 -2 3.5 -3t1.5 -3q-15 -3 -29.5 -7t-29.5 -8q-41 34 -80 68.5t-80 67.5q-33 -40 -66.5 -78.5t-65.5 -77.5q2 -2 3.5 -5t3.5 -5q32 38 64 75.5t64 74.5q3 -3 6.5 -5.5t7.5 -6.5q2 -2 7.5 -6.5t6.5 -6.5q1 -3 0 -8
t-1 -10q-3 -32 -6 -65t-5 -62q53 14 105 29t105 30q-29 -38 -61.5 -74t-61.5 -73q-1 -1 -3 -2t0 -2q48 4 85.5 19.5t66.5 39.5zM66 -173h28v-8h-18v-10h17v-9h-17v-18h-10v45zM143 -195q0 -24 -22 -24q-11 0 -16.5 6.5t-5.5 16.5q0 11 6 17.5t16 6.5q11 0 16.5 -6.5
t5.5 -16.5zM110 -195q0 -16 11 -16t11 16q0 6 -3 10.5t-8 4.5t-8 -4.5t-3 -10.5zM150 -218v45h12l9 -16q2 -4 3.5 -8t3.5 -8h1q-1 5 -1 9.5v9.5v13h9v-45h-11l-9 18q-5 6 -8 16v-20v-14h-9zM205 -181h-12v8h34v-8h-12v-37h-10v37zM271 -201q0 5 -0.5 9.5t-0.5 9.5
q-1 -5 -2 -9t-3 -9l-5 -17h-8l-5 17q-2 5 -2.5 9t-1.5 9q-1 -5 -1 -9.5v-9.5l-1 -17h-9l2 45h14l5 -15q1 -4 1.5 -8t1.5 -8h1q1 4 1.5 8t2.5 8l5 15h13l3 -45h-10zM331 -195q0 -24 -22 -24q-11 0 -16.5 6.5t-5.5 16.5q0 11 6 17.5t16 6.5q11 0 16.5 -6.5t5.5 -16.5z
M298 -195q0 -16 11 -16t11 16q0 6 -3 10.5t-8 4.5t-8 -4.5t-3 -10.5zM338 -218v45h12l9 -16q2 -4 3.5 -8t3.5 -8v19v13h9v-45h-11l-9 18q-5 6 -8 16v-20v-14h-9zM422 -216q-6 -2 -15 -2q-13 0 -19 6t-6 16q0 11 7.5 17.5t18.5 6.5q8 0 12 -2l-2 -9q-2 2 -10 2q-15 0 -15 -14
q0 -15 14 -15h5v10h-7v8h17v-24zM457 -199h-17v-11h19v-8h-29v45h28v-8h-18v-9h17v-9zM466 -173q2 0 5.5 0.5t7.5 0.5q11 0 15 -4q4 -3 4 -9q0 -9 -8 -11v-1q4 -1 6 -8q2 -4 2.5 -7.5t1.5 -5.5h-11q0 2 -3 11q-1 7 -7 7h-3v-18h-10v45zM476 -193h4q8 0 8 7q0 6 -8 6h-4v-13z
M504 -212q0 6 6 6t6 -6q0 -7 -6 -7t-6 7zM556 -217q-4 -2 -11 -2q-12 0 -18 6.5t-6 16.5q0 11 7 17.5t18 6.5q7 0 11 -2l-2 -8q-4 2 -9 2q-14 0 -14 -15t14 -15q7 0 9 1zM602 -195q0 -24 -22 -24q-10 0 -15.5 6.5t-5.5 16.5q0 11 6 17.5t16 6.5q11 0 16 -6.5t5 -16.5z
M570 -195q0 -16 11 -16t11 16q0 6 -3 10.5t-8 4.5t-8 -4.5t-3 -10.5zM647 -201v19q-2 -5 -3 -9t-2 -9l-6 -17h-8l-5 17q-1 5 -2 9t-2 9v-9.5t-1 -9.5v-17h-10l3 45h14l4 -15q2 -4 2.5 -8t1.5 -8l2 8l2 8l5 15h14l2 -45h-10z" />
    <glyph glyph-name="percent" unicode="%" horiz-adv-x="563" 
d="M279 310q5 11 9.5 20.5t9.5 19.5q3 5 5 10.5t4 11.5q1 3 1 6t1 7q3 8 6.5 15l7.5 15q1 7 4 12t5 10q5 12 11 17q1 5 1.5 8.5t1.5 7.5q4 2 5 2q2 1 7 1h79h5.5t5.5 -3q-2 -3 -3.5 -6.5t-3.5 -6.5q-12 -26 -24.5 -51t-25.5 -50q-5 -12 -11 -18q-2 -2 -3 -5.5t-3 -6.5
q-5 -9 -9.5 -18.5t-9.5 -18.5q-3 -5 -5.5 -10t-6.5 -10q-3 -4 -7 -12t-8 -16.5t-8 -16.5q-3 -6 -6.5 -12.5t-8.5 -11.5q-3 -4 -7 -14q-3 -6 -5.5 -12t-7.5 -11q-3 -3 -4.5 -6.5t-3.5 -6.5q-6 -13 -12 -25t-12 -25q-4 -7 -7.5 -14t-8.5 -13q-3 -3 -4 -7q-5 -8 -8.5 -16
t-9.5 -15q-3 -5 -5.5 -9.5t-4.5 -9.5l-14 -14q-3 -1 -6 -1q-5 -1 -10.5 -1t-10.5 -3q-3 -2 -10 -2q-10 0 -15 1q-5 3 -2 9q1 2 1.5 3.5t1.5 3.5q5 8 8 16q2 5 3 9t3 9q1 9 8 19q3 5 4 11t4 11l12 24q2 5 4.5 10.5t5.5 10.5q5 8 6.5 15.5t6.5 15.5t8 15.5t7 15.5
q4 7 7.5 13.5t6.5 14.5l7.5 15t8.5 15q4 7 5 13.5t5 13.5q3 18 19 31zM409 -21q-6 2 -11 3.5t-10 3.5q-8 5 -16.5 8.5t-17.5 8.5q-2 3 -5.5 6t-6.5 6q-5 10 -9 18.5t-9 18.5q-2 24 0 48q2 3 2.5 5.5t2.5 5.5v27q2 8 4 15l4 14q-2 5 0 8.5t3 8.5q1 4 3 8t4 9q3 2 6.5 5.5
l6.5 6.5q6 3 11.5 6t10.5 5t10 3.5t13 3.5h18h19q6 -2 10 -3.5t9 -1.5q6 0 11.5 -3t10.5 -4q11 -13 20.5 -26t15.5 -27q3 -2 7 -6q2 -2 2 -4q1 -6 1 -12t4 -11q1 -16 1 -31.5v-31.5q-5 -11 -8.5 -23.5t-9.5 -23.5q-6 -8 -13.5 -15t-17.5 -12q-8 -7 -17 -9.5t-19 -7.5h-40z
M425 162q-9 1 -11.5 0.5t-8.5 -5.5q-2 -8 -5 -15.5t-4 -16.5q-2 -5 -4.5 -10t-4.5 -10v-22q2 -3 4.5 -6t4.5 -7l4 -8t6 -8q3 -1 6.5 -3.5t8.5 -1.5q2 2 5.5 3t6.5 4q4 8 5 11q1 5 1.5 10t-1.5 9q-4 9 -4 21q0 4 -2 7.5t-3 8.5v17t-1 17q-2 4 -3 5zM212 240
q-12 -10 -24.5 -16t-26.5 -13q-26 -2 -52 0q-8 2 -14 6t-14 5q-1 0 -5 2q-5 5 -10.5 7.5t-10.5 7.5l-3.5 3.5l-3.5 3.5q-5 10 -9.5 19.5t-9.5 18.5v47q1 2 2 4.5l3 7.5v23q2 4 3.5 7.5t1.5 6.5q0 8 3.5 15t2.5 15q2 4 3.5 7.5t3.5 7.5l20 20l24 12q5 0 9 0.5t9 0.5q3 2 9 4
q6 1 12.5 1t11.5 -2t10 -2.5t10 -1.5q5 -2 9 -3.5t10 -3.5l2 -2q11 -10 19 -21.5t16 -24.5q1 -2 1 -3.5t2 -3.5q5 -4 6.5 -9.5t3.5 -11.5q2 -4 3 -7v-16v-55q-3 -7 -5 -14.5t-5 -14.5q-4 -8 -8.5 -14t-8.5 -13zM139 327v30q-1 3 -2 5.5t-2 5.5q-1 5 -1 11v11q-6 4 -8 4.5
t-10 -1.5q-1 -2 -2 -3.5t-2 -3.5q-2 -5 -4 -10.5t-4 -10.5q-2 -4 -2 -8v-6q-2 -5 -5.5 -7.5t-3.5 -7.5q-1 -5 -1.5 -10.5t1.5 -10.5q10 -17 18 -30q3 -2 5.5 -2.5t4.5 -2.5q11 -4 16 5q2 4 4 7.5t3 8.5q3 13 -5 26z" />
    <glyph glyph-name="ampersand" unicode="&#x26;" horiz-adv-x="446" 
d="M341 371v-46q-3 -10 -9 -20q-2 -5 -4.5 -10t-5.5 -10q-11 -13 -25 -25q-7 -5 -14 -9.5t-14 -9.5q1 -2 1 -5l6 -4t5 -4q3 -2 5.5 -5t5.5 -6q3 -6 5.5 -12t4.5 -12q2 0 3 0.5t2 0.5q5 5 6.5 11.5t4.5 11.5q7 9 14 5t15 -4t15 -5q8 1 16 -3t17 -3q8 -4 11 -6q5 -5 3 -13
q-1 -5 -2 -9t-3 -8q-5 -11 -9 -23t-11 -23q-2 -5 -5 -8.5t-5 -8.5q1 -2 1 -3t1 -2q2 -3 4.5 -6t6.5 -5q5 -2 8 -5t7 -6l9.5 -9.5t10.5 -7.5q5 -3 2 -13q-2 -2 -5 -5.5t-7 -7.5q-2 -5 -4.5 -9.5t-5.5 -9.5q-5 -5 -10 -10.5t-11 -10.5q-4 0 -6 1q-14 10 -29 19.5t-29 19.5
q-8 2 -12 -2q-5 -4 -9.5 -9t-10.5 -8q-10 -7 -22 -14q-2 -2 -4 -3.5t-5 -2.5q-1 0 -2 0.5t-3 0.5q-5 -2 -11 -4t-14 -4q-13 -1 -27.5 0t-29.5 -1q-1 -2 -2 -2.5t-1 -1.5q-1 -5 -1 -8.5v-7.5v-116v-25q-2 -3 -2.5 -5.5t-2.5 -5.5q-2 -14 -1 -27.5t-1 -27.5q-1 -1 -2 -1t-2 1
l-2 2q-1 1 -1 2t-2 3v70v71q0 18 0.5 35.5t-0.5 34.5q-2 5 -5 7.5t-7 5.5q-4 1 -8.5 1.5t-8.5 2.5q-5 2 -11 3t-11 5l-10 6l-10 6q-2 2 -4 3.5t-4 3.5l-24 24q-3 8 -7 14.5t-6 14.5q-3 8 -4.5 17.5t-5.5 17.5v29q4 10 5 15q1 3 0.5 6t-0.5 7q2 4 4 7t4 8l5 5t5 6q6 6 8 10
q7 13 18 19q6 3 10.5 7t9.5 9q3 4 7 6t8 5q5 4 4 9q-14 11 -20.5 25.5t-14.5 28.5q-1 6 -1 11.5t-5 10.5v25q3 10 7 19.5t4 20.5q2 2 2.5 3t2.5 3q4 5 6 10.5t7 8.5q8 5 14.5 10t14.5 9q7 3 13 6l12 6q8 1 14.5 0.5t11.5 4.5q14 1 26.5 1h26.5q3 0 6 -1t7 -2q7 -2 13.5 -3.5
t13.5 -3.5q14 -5 21 -11q4 -2 8 -4.5t7 -5.5q5 -4 9 -8l8 -8l12 -24q2 -6 2 -12t4 -11zM221 299q8 12 15 23t11 25q-2 4 -6 14q-3 6 -11 9h-7t-9 -1q-5 -4 -11.5 -4t-12.5 -2q-2 -2 -5 -4.5t-4 -6.5q1 -8 5 -17q5 -12 11 -18q2 -2 2.5 -4.5t2.5 -4.5q2 -4 2.5 -7.5t2.5 -6.5
q2 0 6 2t8 3zM187 137q-3 -5 -4.5 -8t-3 -7.5t-4.5 -12t-7 -21.5q1 -1 1.5 -2.5t2.5 -3.5q2 0 5 -0.5t5 0.5q5 2 11 3t12 6v16t-1 16q-3 9 -8 14q-5 1 -9 0zM227 110l-3 -3q-2 -2 1 -4h2q6 4 2 6q0 1 -2 1z" />
    <glyph glyph-name="quotesingle" unicode="'" horiz-adv-x="157" 
d="M22 360q-2 5 -4 8.5t-2 7.5q1 12 0.5 23.5t-0.5 22.5q4 8 7.5 15.5t5.5 15.5q2 7 5 13t5 14l7 7q5 4 9 8t9 8q9 5 17.5 10.5t18.5 8.5q2 1 4 0.5t4 -0.5q2 -2 2.5 -3.5t1.5 -3.5q8 -14 14.5 -28t14.5 -28q-5 -5 -11 -7.5t-12 -5.5q-4 -1 -7.5 -1.5t-8.5 -1.5q-3 -4 -7 -7
t-7 -7q-2 -2 -2 -7q3 -9 12 -9t13 -1q1 0 5 -4q1 -15 0.5 -30.5t-0.5 -31.5q-2 -5 -3.5 -10t-3.5 -10q-2 0 -2.5 -1t-2.5 -1q-10 0 -19.5 -0.5t-19.5 -0.5l-6 -2t-7 -2q-3 -1 -6 -0.5t-7 -0.5l-6 -2l-6 -2q-4 0 -4 3q-1 3 -1 10v33z" />
    <glyph glyph-name="parenleft" unicode="(" horiz-adv-x="218" 
d="M18 302q5 9 8.5 18.5t6.5 18.5q-1 8 2 14.5t5 13.5q2 8 5 15t5 15q4 5 4 11.5t1 14.5l24 48q2 2 2 4t2 3q5 6 8.5 13t7.5 14q5 7 12 11q7 0 18.5 0.5t24 0.5t24 -0.5t19.5 -0.5q5 -4 2 -9q-3 -8 -7 -15.5t-7 -15.5q-2 -8 -6 -14.5t-7 -14.5q-2 -7 -4.5 -13.5t-5.5 -12.5
t-4.5 -12.5t-3.5 -12.5q-3 -6 -4.5 -12.5t-4.5 -12.5q-3 -5 -5.5 -10.5t-5.5 -10.5q-2 -6 -1 -12.5t-3 -12.5q-2 -2 -2 -8q0 -5 -0.5 -9t-2.5 -9q-2 -3 -2 -10q1 -5 -1 -10.5t-4 -10.5v-76q-2 -3 -4 -9q-5 -12 3 -23v-29q5 -12 5 -17q1 -4 1 -8v-8l2 -6t3 -7v-12.5t5 -12.5
q-1 -8 2.5 -15t3.5 -15q3 -10 6 -19l6 -18q5 -14 9 -27.5t9 -27.5q1 -2 0.5 -3.5t-0.5 -3.5q-4 -2 -5 -2q-11 -2 -21 -1.5t-20 0.5q-2 2 -4 2.5t-4 2.5q-4 8 -8 15t-9 14q-3 4 -5 8t-4 9q-6 8 -11 13l-33 66q-1 5 -1.5 9t-2.5 9q-3 8 -5.5 16t-5.5 16q-1 2 -1 3.5t-1 3.5
q0 3 -0.5 5.5t-1.5 5.5q0 2 -1 3.5t-2 3.5v21q-2 2 -5 11v137z" />
    <glyph glyph-name="parenright" unicode=")" horiz-adv-x="241" 
d="M105 -78q-10 -1 -19.5 -1h-19.5q-2 2 -3.5 2.5t-3.5 2.5q-4 6 -2 10q2 6 3.5 12.5t4.5 11.5q2 3 3 6t3 6l12 24q3 5 4.5 11.5t4.5 12.5q1 6 1 12v11q2 3 5 9v10.5t1 11.5q1 2 2 4.5t2 6.5v24q2 3 2.5 5.5t2.5 5.5q0 5 0.5 10.5t0.5 10.5q1 4 5 12v72q-1 2 -2 5t-3 7v40
q-2 3 -2.5 5.5t-2.5 6.5q0 4 -0.5 9t-0.5 11q-2 5 -4 10.5t-1 11.5q-2 5 -4.5 10t-5.5 10v10t-1 11q-2 7 -4.5 14t-4.5 15q-2 7 -5.5 13t-5.5 13q-2 8 -6 14.5t-7 14.5q-2 3 -5 6l-5 5l-10 20t-6 21q4 2 8.5 1.5t9.5 0.5h19q2 1 5 2t7 3h21l8 -4t9 -4q5 -5 9.5 -10t8.5 -11
q5 -8 10 -15.5t9 -15.5q5 -12 11.5 -24t12.5 -23q3 -6 5 -12.5t4 -11.5q3 -6 5.5 -12t3.5 -13q4 -5 4 -10t2 -10t2.5 -10t1.5 -10q0 -5 5 -17v-28q3 -7 4 -12v-67q-1 -5 -4 -12v-26q-2 -7 -4 -11.5t-2 -9.5q1 -4 0.5 -7.5t-0.5 -7.5q-4 -10 -10 -20q0 -2 0.5 -5t-1.5 -5
q-6 -17 -11 -34.5t-14 -33.5q-2 -5 -3.5 -8.5t-2.5 -8.5q-3 -8 -8 -17q-7 -8 -12 -20q-4 -8 -8.5 -14.5t-9.5 -14.5q-6 -12 -18 -18z" />
    <glyph glyph-name="asterisk" unicode="*" 
d="M339 489q19 1 39 0q69 -5 118 -31t86 -63t61 -88.5t28 -120.5v-18q-4 -72 -29 -123.5t-63 -89.5t-89.5 -62.5t-122.5 -28.5h-18q-5 1 -10 1h-10q-14 2 -28 4.5t-28 6.5q-2 1 -0.5 3t3.5 3q19 22 38.5 45t38.5 45q-31 -8 -61 -16.5t-61 -16.5q2 31 5 62l6 62
q-24 -27 -49 -56t-49 -58q-39 38 -65.5 88t-32.5 120q0 11 -0.5 20.5t0.5 19.5q2 32 11 62q12 44 33 78.5t47 61.5q37 36 86.5 60.5t115.5 29.5zM600 278q-20 48 -56 83q-33 33 -82 57t-117 21q-35 -2 -65 -12t-55 -24q-24 -14 -43.5 -32.5t-35.5 -40.5t-28 -49t-18 -59
q-6 -33 -2.5 -68.5t14.5 -65.5q8 8 15.5 17t15.5 18t15.5 18.5t15.5 18.5q47 55 93.5 109.5t93.5 109.5q64 -55 127.5 -109t127.5 -108q1 0 2 -2t1 0q2 35 -3 64.5t-16 53.5zM524 -26q29 23 51 54.5t34 71.5q-15 14 -30 26.5t-30 25.5q-45 39 -90.5 77.5t-90.5 77.5h-2
q-16 -19 -32 -37.5t-32 -38.5q46 -38 91 -76.5t90 -76.5q2 -2 3.5 -3t1.5 -3q-15 -3 -29.5 -7t-29.5 -8q-41 34 -80 68.5t-80 67.5q-33 -40 -66.5 -78.5t-65.5 -77.5q2 -2 3.5 -5t3.5 -5q32 38 64 75.5t64 74.5q3 -3 6.5 -5.5t7.5 -6.5q2 -2 7.5 -6.5t6.5 -6.5q1 -3 0 -8
t-1 -10q-3 -32 -6 -65t-5 -62q53 14 105 29t105 30q-29 -38 -61.5 -74t-61.5 -73q-1 -1 -3 -2t0 -2q48 4 85.5 19.5t66.5 39.5zM66 -173h28v-8h-18v-10h17v-9h-17v-18h-10v45zM143 -195q0 -24 -22 -24q-11 0 -16.5 6.5t-5.5 16.5q0 11 6 17.5t16 6.5q11 0 16.5 -6.5
t5.5 -16.5zM110 -195q0 -16 11 -16t11 16q0 6 -3 10.5t-8 4.5t-8 -4.5t-3 -10.5zM150 -218v45h12l9 -16q2 -4 3.5 -8t3.5 -8h1q-1 5 -1 9.5v9.5v13h9v-45h-11l-9 18q-5 6 -8 16v-20v-14h-9zM205 -181h-12v8h34v-8h-12v-37h-10v37zM271 -201q0 5 -0.5 9.5t-0.5 9.5
q-1 -5 -2 -9t-3 -9l-5 -17h-8l-5 17q-2 5 -2.5 9t-1.5 9q-1 -5 -1 -9.5v-9.5l-1 -17h-9l2 45h14l5 -15q1 -4 1.5 -8t1.5 -8h1q1 4 1.5 8t2.5 8l5 15h13l3 -45h-10zM331 -195q0 -24 -22 -24q-11 0 -16.5 6.5t-5.5 16.5q0 11 6 17.5t16 6.5q11 0 16.5 -6.5t5.5 -16.5z
M298 -195q0 -16 11 -16t11 16q0 6 -3 10.5t-8 4.5t-8 -4.5t-3 -10.5zM338 -218v45h12l9 -16q2 -4 3.5 -8t3.5 -8v19v13h9v-45h-11l-9 18q-5 6 -8 16v-20v-14h-9zM422 -216q-6 -2 -15 -2q-13 0 -19 6t-6 16q0 11 7.5 17.5t18.5 6.5q8 0 12 -2l-2 -9q-2 2 -10 2q-15 0 -15 -14
q0 -15 14 -15h5v10h-7v8h17v-24zM457 -199h-17v-11h19v-8h-29v45h28v-8h-18v-9h17v-9zM466 -173q2 0 5.5 0.5t7.5 0.5q11 0 15 -4q4 -3 4 -9q0 -9 -8 -11v-1q4 -1 6 -8q2 -4 2.5 -7.5t1.5 -5.5h-11q0 2 -3 11q-1 7 -7 7h-3v-18h-10v45zM476 -193h4q8 0 8 7q0 6 -8 6h-4v-13z
M504 -212q0 6 6 6t6 -6q0 -7 -6 -7t-6 7zM556 -217q-4 -2 -11 -2q-12 0 -18 6.5t-6 16.5q0 11 7 17.5t18 6.5q7 0 11 -2l-2 -8q-4 2 -9 2q-14 0 -14 -15t14 -15q7 0 9 1zM602 -195q0 -24 -22 -24q-10 0 -15.5 6.5t-5.5 16.5q0 11 6 17.5t16 6.5q11 0 16 -6.5t5 -16.5z
M570 -195q0 -16 11 -16t11 16q0 6 -3 10.5t-8 4.5t-8 -4.5t-3 -10.5zM647 -201v19q-2 -5 -3 -9t-2 -9l-6 -17h-8l-5 17q-1 5 -2 9t-2 9v-9.5t-1 -9.5v-17h-10l3 45h14l4 -15q2 -4 2.5 -8t1.5 -8l2 8l2 8l5 15h14l2 -45h-10z" />
    <glyph glyph-name="plus" unicode="+" horiz-adv-x="372" 
d="M351 225q-4 -2 -4 -5q-1 -9 -1 -17.5v-16.5q0 -9 -1 -13q0 -1 -4 -5q-18 -1 -36 -0.5t-37 0.5q-14 7 -33 4l-4 -4q-2 -13 -1 -26t0 -27l-3 -6q0 -2 -2 -6v-35l-5 -5q-13 -1 -25.5 -0.5t-25.5 -0.5l-10 4l-10 4q-2 4 -2 5q-1 10 -1 19.5v19.5v47q0 9 -1 13q-2 1 -2.5 2
t-1.5 1q-4 1 -11 1h-60q-3 -1 -5.5 -1.5t-5.5 -1.5q-7 4 -14.5 3t-15.5 1q-1 2 -2 2.5t-1 1.5q0 4 -0.5 7t-0.5 7v47q-2 6 -4 10.5t1 9.5q2 2 4 2q4 1 13 1h63h16q12 5 16 9q1 6 1.5 11t0.5 12.5v18.5t-1 29q-1 2 -1.5 4t-2.5 5q-2 14 0 28q2 1 2.5 2t2.5 1q4 1 13 1h64
q6 3 10 4q4 -3 7.5 -6t8.5 -6q0 -2 0.5 -2.5t0.5 -2.5q1 -19 1 -38v-38v-7.5t1 -8.5q0 -1 1 -1.5t2 -2.5q13 -2 26 -1t27 -1q2 -1 5 -1.5t8 -2.5h40v-48z" />
    <glyph glyph-name="comma" unicode="," horiz-adv-x="154" 
d="M131 98q0 -1 1 -2.5t1 -3.5q1 -8 0.5 -16t-0.5 -16q4 -8 6 -13v-50q-3 -9 -5.5 -17t-5.5 -16q-2 -8 -6 -15t-6 -15q-10 -14 -23 -20q-4 -2 -7 -5.5t-6 -6.5q-5 -2 -9.5 -3t-8.5 -3q-3 -2 -6.5 -4t-7.5 -1q-5 5 -7 10.5t-5 10.5q-2 5 -4.5 9.5t-3.5 9.5q-1 4 -5 12
q-2 5 -4 8.5t-4 7.5q2 5 6 5t8 2t8 3t9 3q4 2 7.5 2.5t5.5 1.5q5 5 7 9l4 8q-1 6 -7 7q-5 1 -10.5 0.5t-10.5 1.5q-1 2 -2 3.5t-1 3.5v58q2 5 3.5 9.5t3.5 9.5q3 3 6.5 4.5t6.5 3.5q11 2 18 -2q8 -4 18 -1q12 5 22 8q5 3 14 -1z" />
    <glyph glyph-name="hyphen" unicode="-" horiz-adv-x="228" 
d="M201 181q-5 -1 -10 -1q-8 -1 -14.5 -0.5t-13.5 0.5q-4 1 -7 2t-8 3h-65q-4 2 -6.5 2.5t-6.5 2.5h-24q-4 2 -7.5 3.5t-6.5 3.5q-2 4 -2 5q0 9 -0.5 17.5t-0.5 16.5l-4 10t-1 10q1 7 -4 16v5q5 5 8 7q8 0 16 0.5t16 0.5q2 1 5 2t8 3h71q3 2 5.5 2.5t5.5 2.5h25q5 1 9 3.5
t9 1.5q6 0 9 -5q1 -2 1 -9v-69q0 -11 -4 -20q-2 -3 -2 -7t-1 -9z" />
    <glyph glyph-name="period" unicode="." horiz-adv-x="140" 
d="M75 99q6 2 10.5 4t9.5 2q4 -1 6.5 0.5t5.5 2.5q7 2 11 1q2 0 3 -1t3 -2q2 -15 1.5 -29.5t-0.5 -28.5q-1 -3 -2 -5.5t-3 -6.5v-11.5t-1 -12.5q-2 -6 -3.5 -11.5t-3.5 -11.5q-3 1 -5 1.5t-4 1.5l-6 2h-37q-6 2 -11.5 4t-12.5 2q-6 0 -9 7q-2 5 -1.5 10.5t-0.5 12.5
q-2 6 -4.5 13t-4.5 15q1 2 1.5 4t1.5 4q1 3 -3 9q-3 8 1 16q2 1 3 2t3 1q5 0 9.5 1.5t9.5 3.5h33z" />
    <glyph glyph-name="slash" unicode="/" horiz-adv-x="218" 
d="M123 156q-2 -5 -4.5 -9.5t-4.5 -9.5q2 -7 -1.5 -12.5t-3.5 -12.5q0 -6 -3 -11.5t-3 -11.5q0 -7 -3 -12.5t-2 -12.5q-2 -6 -4.5 -12t-4.5 -13q-2 -5 -2 -11t-4 -11q-1 -7 -3.5 -13t-4.5 -12q-5 -2 -7.5 -2t-10.5 4q-8 1 -16.5 1h-16.5q-4 2 -5 3q-2 2 -4 6q2 6 3.5 11.5
t0.5 11.5q0 4 1 5q2 6 4 11.5t4 10.5t1.5 10.5t3.5 10.5l2 6v33l2 6t3 7v19q2 5 3.5 9t2.5 9q0 7 3 13t2 13q3 3 2 7t1 8q2 8 2 12v3q1 4 3 7t2 8v16q1 2 2.5 4.5t1.5 4.5q0 9 3.5 17t3.5 16q1 4 2.5 7.5t2.5 7.5v16l2 6t3 7v7.5t1 8.5q2 4 4 9t5 10v5.5t2 6.5q4 9 4 23
q0 3 1.5 6.5t3.5 8.5v17t1 19q2 1 2.5 2t1.5 1q3 1 8 1q6 1 12 1h11q3 1 5.5 2t5.5 2q24 1 48 0q7 -5 4 -9q-4 -8 -4 -15.5t-4 -14.5q-1 -1 -1 -3q-1 -6 -1 -11.5t-3 -11.5q-2 -5 -2 -10t-3 -10t-2 -11.5t-4 -11.5q-1 -9 -4 -17.5t-4 -17.5q-5 -5 -4 -12t-2 -13t-4.5 -12.5
t-4.5 -12.5q-4 -8 -4 -16t-5 -16q-1 -9 -4 -17t-5 -16q-2 -5 -3 -8.5t-3 -8.5t-1.5 -9.5t-2.5 -8.5q-2 -4 -2 -8.5t-2 -9.5z" />
    <glyph glyph-name="zero" unicode="0" horiz-adv-x="332" 
d="M259 -49q-2 5 -3 8.5t-2 6.5t-1 10l-7 14l-14 14q-6 2 -7 2q-10 0 -15 -1q-6 -4 -12.5 -3.5t-13.5 -1.5q-8 -2 -8 -9q-1 -5 -3 -9t-4 -11v-96q-2 -3 -3 -5t-4 -3q-2 2 -2.5 4.5t-1.5 4.5t-1.5 5t-2.5 6v87q-2 4 -3 7t-3 6q-5 9 -15 9q-5 0 -9 -0.5t-8 -0.5q-7 -3 -9.5 -9
t-5.5 -12v-98q-1 -3 -2 -5.5t-3 -5.5q-1 -12 -0.5 -25t0.5 -26v-56v-51q-3 -7 -8 -9q-2 2 -3 2.5t-3 2.5q-2 3 -3.5 6.5t-3.5 7.5v189q2 2 2.5 5t2.5 6v25q-1 5 -3.5 8.5t-1.5 8.5v15q-6 12 -15 16q-6 0 -9 -5q-2 -3 -3.5 -6.5t-3.5 -7.5q-2 -18 -1 -35.5t0 -34.5
q-2 -4 -3.5 -8t-5.5 -6q-5 0 -5 4q-1 5 -1 15q0 5 -1.5 8t-3.5 8q-1 18 -0.5 36t-0.5 37q0 17 0.5 35t-0.5 36q-5 6 -9 11.5t-6 13.5v10q2 5 5 10.5t5 10.5q-1 3 -1 8l-2 4l-2 4v10t-1 11q-2 6 -4 9v3v92l2 6t3 7v23q1 4 5 12v20q3 8 5.5 14.5t4.5 13.5q2 5 3.5 11t3.5 11
q5 13 11 22q11 11 21 21.5t21 21.5q7 5 15 7t16 5h36q3 -1 5.5 -2t5.5 -3h36q6 -3 12 -5.5t12 -6.5q5 -2 9 -7.5t11 -7.5l16 -14t13 -16q5 -8 8 -12t5 -8.5t4 -9.5t5 -14q1 -4 2 -7.5t3 -8.5v-25q2 -3 2.5 -5.5t2.5 -5.5v-29q1 -2 2 -5t3 -7v-73q-1 -4 -5 -12v-55
q2 -5 4.5 -9.5t4.5 -9.5t3.5 -10.5t3.5 -10.5q1 -8 0 -16.5t3 -16.5q-2 -5 -6 -8t-7 -7q-5 -6 -13 -12q-2 -7 -4.5 -12.5t-4.5 -12.5v-113q-2 -3 -2.5 -6t-2.5 -6v-119q-3 -5 -5 -11t-7 -9q-5 1 -8 8q-1 20 -1 41v42v84l-2 6t-3 7v33zM201 182v81q2 4 3 7l2 6q0 9 0.5 18.5
t-0.5 18.5q-5 7 -4.5 14.5t-0.5 13.5q-2 7 -3.5 12t-3.5 10q-4 8 -9.5 14.5t-13.5 9.5q-3 1 -7 3h-17q-2 -2 -4.5 -4t-5.5 -4t-7 -4t-7 -7l-2.5 -5t-3.5 -8v-61q-2 -4 -2.5 -7t-2.5 -6v-30q2 -4 3 -7l2 -6v-50q2 -4 4 -10q2 -7 1 -13.5t3 -13.5l8.5 -8.5l9.5 -9.5q1 -1 2 -1
t2 -2q10 4 15 5q4 1 8 0.5t9 1.5l10 5q2 4 3 6.5t3 5.5q0 7 1 11l2 6t3 8z" />
    <glyph glyph-name="one" unicode="1" horiz-adv-x="332" 
d="M264 132q15 -10 15 -24q0 -5 1.5 -8.5t3.5 -8.5v-44q2 -5 3 -8l2 -6q0 -9 0.5 -18t-0.5 -17q-2 -6 -9 -6q-4 0 -7 -1q-5 -2 -11.5 -5t-14.5 -7q-2 -3 -6 -6.5t-9 -9.5q-3 -4 -4.5 -12t-5.5 -16q-1 -2 -1 -7q1 -6 -1 -11t-4 -11v-191q-3 -8 -7 -10q-5 1 -8 4.5t-6 8.5
q-1 22 0 44.5t-1 45.5q-1 3 -2 5.5t-2 6.5v124q-2 3 -3 5.5t-2 5.5q0 6 -0.5 12.5t-0.5 13.5q-2 4 -3.5 8t-3.5 7q-6 6 -11.5 12t-10.5 11q-5 10 -1 16q3 6 3.5 12.5t0.5 12.5q2 3 2.5 5.5t2.5 4.5v5v190v10q-1 2 -3.5 4.5t-4.5 1.5t-3.5 -1t-3.5 -2q-14 -6 -26.5 -12.5
t-25.5 -12.5q-4 -2 -7 -4t-7 -3q-8 -2 -14 -5t-13 -5q-2 4 -1.5 8t-0.5 8q-1 3 -2 6.5t-3 8.5v33q-2 4 -3 7l-2 6q-1 4 -0.5 8t0.5 7q1 7 9 10q3 2 6.5 3.5t7.5 2.5q11 4 25 14q7 6 14 11.5t15 10.5q9 6 16.5 13t12.5 17q8 8 12.5 19t8.5 22l2 2q1 0 1.5 0.5t1.5 0.5
q14 0 27 0.5t27 0.5q4 -2 7 -2.5t6 -2.5q6 -2 12 -1t11 -1q1 -2 1.5 -2.5t1.5 -2.5v-5v-87l-2 -6l-2 -6q0 -2 -0.5 -16.5t-0.5 -35.5v-45.5v-47t0.5 -39.5t0.5 -23z" />
    <glyph glyph-name="two" unicode="2" horiz-adv-x="332" 
d="M180 -130q-3 -5 -5 -9.5t-5 -8.5h-3q-1 0 -1 1q-2 6 -2 10v63v23q-1 7 -3.5 11.5t-1.5 9.5q0 5 -2 8.5t-4 8.5q-4 9 -13 13q-3 2 -6 1.5t-8 -0.5q-5 -3 -11.5 -6t-14.5 -7q-2 -3 -5 -6.5t-8 -8.5q-4 -5 -6 -12t-4 -15q-2 -2 -2 -5.5v-6.5q0 -8 -5 -16q-1 -16 -0.5 -32
t0.5 -33q-1 -17 -1 -33v-33v-64q-2 -3 -3 -5.5t-4 -3.5q-5 2 -7.5 5.5t-5.5 7.5q-1 22 -0.5 44t-0.5 45l-2 6t-3 7v123l-2 6t-3 7v24q-3 7 -5.5 11.5t-5 7.5t-7 6.5t-11.5 8.5q-6 12 0 25q2 6 3 10v8t2 8q2 5 3.5 11t4.5 11q5 7 8 15t4 16q3 2 5 4l4 4q5 2 8 2.5t7 2.5
q16 15 33 33l2 2q5 11 14.5 19.5t17.5 17.5q10 11 20 20.5t21 20.5l7.5 7.5t8.5 5.5t8 5t5 7q4 7 7 11t4.5 7.5t3.5 8.5t5 13q0 2 0.5 2.5t0.5 2.5v20q-2 4 -3 7t-3 7q-4 5 -8 9t-10 7q-4 1 -7.5 -0.5t-7.5 0.5q-5 2 -9 1.5t-9 -0.5q-8 -3 -14 -6.5t-11 -11.5q-1 -2 -1 -4.5
t-2 -5.5q-2 -5 -4 -9t-4 -9q-1 -4 -1 -8.5t-1 -9.5l-2 -2q-6 -2 -11.5 -1.5t-10.5 -2.5q-2 0 -3 -0.5t-2 -0.5q-11 5 -23.5 3.5t-26.5 0.5q-1 1 -3.5 1.5t-5.5 2.5q-5 0 -10.5 0.5t-10.5 0.5q-2 1 -4 3q-1 2 -1 5q-1 7 -0.5 13.5t0.5 12.5q1 5 2.5 8t1.5 8q6 29 22 52
q2 4 4.5 8t5.5 7q4 5 8 9l8 8q8 4 15.5 7.5t15.5 7.5q8 5 16 7t17 6h77q4 0 8.5 -3t9.5 -2q16 -4 27 -9q5 -2 9 -4t9 -5q8 -8 17 -16.5t18 -17.5q9 -17 18 -36q0 -4 0.5 -8t0.5 -9q1 -2 2 -5l2 -6v-30q-2 -5 -3 -10l-2 -10q-2 -22 -14 -39q-2 -4 -4.5 -8t-5.5 -8
q-6 -8 -8 -13q-2 -4 -6 -6.5t-6 -7.5q-7 -13 -18 -22t-20 -20q-17 -9 -28 -22.5t-25 -25.5q-1 -1 -4 -6q3 -4 7 -3t7 1q11 6 16 17q2 3 2.5 3.5t5.5 2.5q5 -3 9 -7t10 -9q10 -6 24 -12q11 -2 22 -1t22 -1q5 -2 7.5 -4.5t5.5 -6.5q2 -5 5 -11l6 -12q1 -4 -3 -10
q-3 -6 -6 -11.5t-6 -12.5v-55l-2 -6t-3 -7q-1 -25 0 -50t0 -50q-3 -7 -8 -8q-3 1 -4.5 3t-3.5 6v54q-2 5 -3 9l-2 8q-1 3 -0.5 6.5t0.5 6.5q-5 8 -7.5 9t-10.5 0q-2 -2 -3.5 -3t-3.5 -3q-1 -6 -1 -11t-2 -10q0 -2 -1 -4t-2 -5q-2 -38 0 -77q1 -4 2 -7l2 -6v-134
q-1 -5 -3 -10.5t-2 -11.5q0 -3 -4 -7q-2 -5 -6 -1q-2 1 -2.5 2t-1.5 2q0 1 -0.5 1.5t-0.5 1.5v58t-1 58q-2 6 -4 10q-1 17 -0.5 34.5t0.5 35.5q-1 17 -1 35v36q-2 5 -4.5 11.5t-9.5 9.5q-2 1 -7 1h-14q-10 -4 -15 -12q-2 -4 -2 -5v-58v-35z" />
    <glyph glyph-name="three" unicode="3" horiz-adv-x="332" 
d="M254 -266q-2 2 -2.5 5t-2.5 6v114q-2 3 -2.5 5.5t-2.5 5.5q-1 18 -0.5 36t0.5 37q-4 8 -5 13v40q1 2 2 4.5t2 6.5t1 7.5t-4 6.5q-1 0 -2 0.5t-3 -0.5q-3 -2 -6 -4.5t-5 -6.5q0 -2 -0.5 -2.5t-0.5 -2.5v-37v-28q-2 -3 -2.5 -5.5t-2.5 -5.5q-1 -8 -0.5 -15.5t-0.5 -15.5
v-37q0 -3 -3 -4q-5 3 -7 8.5t-5 11.5v80q0 4 -0.5 7t-0.5 7q0 2 -2 4q-3 3 -4 3q-3 0 -3 -3q-1 -3 -1 -8l-2 -6t-3 -8v-39q-2 -4 -2.5 -6.5t-2.5 -5.5v-55q-2 -5 -3 -9l-2 -8t-0.5 -7.5t-2.5 -7.5q-5 0 -8 8v56v61v57q-4 4 -6 8l-6 2h-19q-2 1 -3.5 1.5t-3.5 1.5q-9 4 -20 7
q-11 2 -19 8q-6 5 -13 8.5t-12 9.5q-6 7 -12 13t-10 14q-8 7 -10.5 16.5t-6.5 18.5q-1 3 -1 10v7.5t3 8.5q3 2 6.5 2.5t6.5 2.5t6.5 2t6.5 1t6 1.5t8 2.5q8 1 15.5 1.5t15.5 -1.5q5 -4 4.5 -8t1.5 -9t5.5 -11.5t5.5 -11.5q8 -9 16.5 -12.5t16.5 -8.5q5 0 8.5 2t6.5 4
q5 8 3 15.5t-5 15.5v29q-1 8 -3.5 12.5t-2.5 9.5q1 5 -1.5 10t-3.5 10q-2 5 -3.5 8.5t-2.5 5.5q-5 6 -9.5 7t-8.5 4q0 1 -1 2t-1 2v25l5 10v18.5t1 19.5q2 1 2.5 2t1.5 1q3 1 8 1h22q26 8 33 34q1 5 0.5 11t-0.5 14l-6 12q-5 4 -11 6.5t-13 6.5h-23q-8 -5 -16 -8
q-5 -7 -8 -14t-6 -13q-2 -6 -0.5 -11.5t-3.5 -9.5q-7 -2 -12.5 -0.5t-11.5 4.5h-62q-8 4 -11 6q-4 1 -2 5q2 2 2 5q1 5 0.5 9t1.5 9q5 11 8 22t8 22q3 5 5.5 10.5t6.5 12.5q1 1 2.5 2t3.5 3q4 3 8 5t8 5q6 7 12 12q11 7 21.5 11t21.5 8h23q4 1 12 5h11.5t11.5 -3q6 -2 10 -2
h12q14 -4 21 -7q5 -2 10 -2.5t9 -4.5q6 -5 13 -9t12 -10q6 -7 11.5 -12t10.5 -10q8 -12 12.5 -23.5t8.5 -23.5v-43q-2 -6 -4 -11.5t-4 -11.5t-6 -11t-8 -11q-3 -5 -6.5 -9t-7.5 -9q-2 -8 2 -13q3 -3 5.5 -6t5.5 -5l19 -19q4 -8 7 -13.5t6 -11.5q2 -6 2 -12t4 -11
q0 -6 0.5 -12t0.5 -12v-22q-6 -17 -13 -32.5t-17 -29.5q-2 -4 -1.5 -7.5t-0.5 -8.5q-1 -3 -2 -6.5t-3 -8.5v-13t-1 -16q0 -2 -1 -4.5t-3 -6.5q0 -5 -0.5 -10.5t-0.5 -11.5q-1 -2 -2 -4.5t-3 -6.5v-24q-1 -3 -2 -5.5t-2 -5.5q-2 -19 -1 -38.5t0 -39.5q-2 -3 -2.5 -6t-2.5 -8
v-96v-9t-1 -9q0 -2 -4 -6l-2 -2q-3 0 -3 3q-1 5 -1 8.5v7.5z" />
    <glyph glyph-name="four" unicode="4" horiz-adv-x="332" 
d="M161 -67q-2 3 -2.5 5.5t-2.5 6.5q0 6 -0.5 14t-0.5 16l-2 6t-3 7v28l-2 6t-3 7v28q-2 5 -3 9l-2 8t-0.5 8t-2.5 7l-2 2q-19 2 -37 1t-36 0q-6 -2 -8 -3q-7 -3 -13 -1l-6 3q-8 1 -15 1t-14 -3q-3 3 -3 4v32v28q-2 4 -2.5 7t-2.5 6q4 10 10 17.5t11 15.5q8 13 16.5 25.5
t16.5 24.5q8 13 16 31q1 1 2 2.5t3 2.5q15 13 28 35q5 7 9.5 14t9.5 14q4 6 7 12.5t6 12.5q0 7 4 11.5t6 9.5q3 6 7.5 11t6.5 11t5 11t6 11l19 19q6 2 11 4t12 4q17 0 35 0.5t36 -1.5q1 0 1.5 -0.5t1.5 -0.5q0 -1 0.5 -1t0.5 -1q2 -16 2.5 -59t-1.5 -94q-1 -2 -1.5 -5
t-2.5 -8v-103q0 -8 5 -10q10 -1 21 -1h22q3 -4 4 -8v-18q-2 -2 -2.5 -4.5t-2.5 -5.5q-1 -14 0 -27.5t-1 -27.5q-2 -1 -3.5 -2t-3.5 -1q-5 -1 -10 -1h-10q-8 -5 -9 -11q0 -13 -5 -19v-41q-2 -3 -2.5 -6t-2.5 -7q0 -5 -0.5 -10.5t-0.5 -11.5v-237v-23q0 -4 -3 -5q-1 0 -2 0.5
t-3 0.5q-2 2 -1.5 5.5t-1.5 6.5q-2 8 -4 13v55q-2 3 -2.5 6t-2.5 7v38q-4 10 -5 15q-2 3 -1.5 6.5t-2.5 5.5q-7 0 -7 -5v-23v-69q-4 -5 -5 -11.5t-6 -11.5q0 -1 -2 -1l-2 1q0 2 -0.5 5t-0.5 5v63q-2 3 -2.5 6.5t-2.5 7.5v70q-2 3 -2.5 6t-2.5 7q-1 18 -0.5 36.5t-0.5 36.5
q-6 7 -16 5q-5 -1 -9 -9q-2 -11 -1.5 -23t0.5 -23q5 -13 7.5 -26t8.5 -24v-46q-2 -2 -2.5 -5t-2.5 -8v-70q-2 -3 -3 -6t-3 -7v-112l-2 -7q-2 -6 -2 -8q-1 -1 -1 -5v-8q-2 -2 -2 -4q-3 2 -4.5 5t-3.5 6q-1 9 -0.5 18t0.5 18q-1 10 -0.5 19t0.5 18v38q-2 2 -3 5t-3 8v82
q-1 3 -2 5.5t-2 5.5q-1 2 -1 5.5v6.5v13q-2 3 -2.5 6t-2.5 7v10t-1 10t-4 12v24zM182 219v15q-1 7 -1 13v13q0 1 -3 4q-4 0 -5 -1q-2 -1 -4 -3q-6 -10 -12.5 -19t-11.5 -18q-6 -10 -12.5 -18.5t-14.5 -16.5q-1 0 -3 -5q2 -4 9 -7h20h21q4 -2 6.5 -3t5.5 -2q5 -2 10 5v16
t-1 16q-1 3 -2 5.5t-2 5.5z" />
    <glyph glyph-name="five" unicode="5" horiz-adv-x="332" 
d="M59 -213v189q-2 6 -4 11v28q-5 9 -6 16q-1 5 -3 9l-4 8q-8 10 -13 21t-11 22v24q0 2 1 3.5t2 3.5q5 1 9.5 1t8.5 1l4 4q1 4 1 11v40q-2 5 -4 11t-2 13q-5 6 -11.5 4.5t-11.5 1.5q2 6 2 10q1 2 0.5 5t0.5 5q0 6 2 8q2 5 2.5 9t0.5 9q0 4 1.5 7.5t3.5 8.5v24q2 3 2.5 5.5
t2.5 6.5v34q4 11 7 21t7 20q2 4 2 13q0 6 3 12q2 6 2 10q0 8 3 15t5 15q6 2 12 2h12h21h24l12 4t13 4q7 -2 14.5 -2.5t15.5 0.5q2 1 5 2t5 2h5h92q2 0 2.5 -0.5t2.5 -0.5q5 -5 3.5 -10t0.5 -10q1 -3 5 -11v-64v-8.5t-2 -7.5l-4 -2q-5 -1 -9.5 -1h-9.5h-113h-10.5t-10.5 -1
l-3 -3q-2 -5 -1.5 -9.5t1.5 -8.5q3 -3 5 -3q5 -1 15 -1h40q7 -3 14.5 -5.5t14.5 -5.5q8 -4 14.5 -8.5t14.5 -9.5q12 -7 16 -17q3 -5 7 -9.5t8 -9.5q9 -17 17 -34q0 -6 2 -12t4 -11v-67q-1 -2 -2 -5l-2 -6q-2 -4 -4 -12q-3 -14 -10.5 -26t-14.5 -23q-8 -8 -15.5 -16
t-15.5 -16q-2 -1 -2.5 -1t-2.5 -1q-5 -2 -8.5 -6t-8.5 -6q-6 -2 -12.5 -4t-12.5 -4q-4 -2 -8 -3t-9 -3h-42q-4 -1 -8 -4q0 -6 -0.5 -11.5t-0.5 -11.5q-2 -2 -2.5 -5t-2.5 -6v-55q-1 -2 -2 -5t-2 -5q-2 -8 -1 -14.5t-2 -12.5q-6 0 -7.5 1t-5.5 7q-1 16 -0.5 31.5t-0.5 31.5
q0 15 0.5 30t-0.5 30q-2 1 -2.5 2t-2.5 1q-2 2 -5 0q-2 0 -2.5 -1t-2.5 -2q0 -6 -0.5 -12.5t-0.5 -14.5q-1 -2 -2 -5t-3 -7v-39l-2 -6t-3 -7v-45q-2 -4 -2.5 -7t-2.5 -7v-45q-2 -4 -3 -6.5t-3 -5.5v-41q-4 -6 -4 -12.5t-1 -12.5q-2 -8 -9 -10q-1 3 -2.5 6t-3.5 6
q-1 11 -0.5 23t-0.5 25q2 2 2.5 5t2.5 7zM172 180q-6 -23 -13 -41q-5 -13 -5 -23q0 -4 -1.5 -7.5t-2.5 -7.5v-25q3 -5 6 -5q7 0 11 1q5 2 9.5 3.5t9.5 3.5l9.5 9.5t8.5 9.5q1 1 1 2t1 3q-2 5 -4.5 10.5t-5.5 10.5v35q-2 6 -3.5 10t-3.5 9l-2 2h-15zM92 139q2 -5 3 -8.5
t1 -7.5q1 -7 3.5 -12.5t4.5 -12.5t11 -5l1 2q2 14 1.5 27.5t-0.5 27.5q0 2 -0.5 3.5t-0.5 3.5q-6 4 -12 6q-5 -4 -5.5 -5l-1.5 -3q-1 -4 -2 -7.5t-3 -8.5z" />
    <glyph glyph-name="six" unicode="6" horiz-adv-x="332" 
d="M116 -229v41q-1 2 -2 4.5t-3 6.5v103q-2 4 -2.5 7t-2.5 7v24t-1 25q0 2 -1 3.5t-2 3.5h-8q-4 -3 -5 -6.5t-3 -7.5q-4 -13 3 -27q0 -6 0.5 -11.5t-0.5 -10.5q0 -5 -6 -8q-1 1 -2 1t-2 1q-6 4 -9 9.5t-6 12.5q-1 24 -0.5 48t-0.5 48l-18 21q-4 8 -8 15.5t-8 16.5
q-4 8 -6.5 17.5t-6.5 20.5q-1 5 0 13t-5 15v115q2 3 2.5 6t2.5 6v10t1 9q1 5 3 8.5t1 7.5q0 7 1.5 12.5t3.5 10.5q2 6 3.5 11.5t3.5 11.5q3 6 6 11.5t6 11.5l51 51q8 5 16.5 9t18.5 6l6 2t6 1q5 0 8 1.5t8 3.5h45q5 -1 11 -4t12 -1q19 -9 36 -18q6 -6 12 -12.5t13 -12.5
q5 -9 9 -19.5t8 -22.5v-17q0 -1 -0.5 -2t-0.5 -3q-2 0 -2.5 -1t-1.5 -1q-5 -1 -10.5 -1t-10.5 -1q-6 -2 -11 -4h-8t-9 -1q-4 0 -7.5 -1t-8.5 -3q-2 5 -4 9.5t-4 9.5t-4 8.5t-4 8.5q-3 2 -6 5l-5 5q-10 1 -19.5 1h-18.5q-5 -2 -8.5 -4t-8.5 -4l-18 -18q-2 -6 -4 -11.5
t-4 -11.5l-2 -10t-3 -10q1 -6 -1.5 -11.5t-3.5 -11.5q2 -2 2.5 -3t2.5 -2q1 -1 3 -1q1 0 2 1q20 11 43 18h50l15 -6q5 -2 9 -3.5t8 -3.5q8 -6 16 -11.5t14 -13.5q3 -3 6 -5.5t6 -5.5q2 -3 5 -5.5t5 -6.5q4 -7 9.5 -13.5t7.5 -16.5v-101q-3 -11 -7.5 -22t-3.5 -23
q-3 -5 -5.5 -9.5t-5.5 -8.5q-6 -8 -13 -15t-15 -13q-10 -4 -14.5 -11t-8.5 -18v-45q-2 -3 -3 -5.5t-3 -6.5v-65q-1 -4 -2 -7t-3 -8v-71q-2 -3 -2.5 -5.5t-2.5 -6.5v-124q-2 -3 -2.5 -5.5t-2.5 -5.5q-1 -12 -0.5 -24.5t0.5 -24.5q-1 -8 -1 -15.5t-4 -15.5q-2 -3 -1.5 -6
t-0.5 -6q-6 -1 -8 5q-1 2 -1 5v65q2 3 2.5 5.5t2.5 5.5v37q-2 2 -5 11v118q-2 4 -2.5 7t-2.5 8v149q-2 5 -4 8.5t-5 6.5q-4 3 -10 0q-6 -8 -10.5 -16t-9.5 -17q-8 -17 -17 -34t-18 -35v-20v-100v-10q-2 -5 -4 -6q-4 -1 -6 4q-1 5 -2 10.5t-4 10.5zM216 141v42q-2 5 -3 9
l-2 8q-4 11 -10 18.5t-17 12.5q-1 0 -5 2h-15q-11 -5 -14 -7t-10 -9q-6 -11 -12 -23l-12 -24q0 -7 -0.5 -14t1.5 -14q4 -7 7 -14l10 -10t11 -10q4 -1 10 -1q9 0 13 -2q7 -4 14 -3.5t14 0.5q4 2 7.5 3.5t7.5 3.5q6 8 9 11q2 6 0 10.5t-4 10.5z" />
    <glyph glyph-name="seven" unicode="7" horiz-adv-x="332" 
d="M111 -251q-1 1 -2 1.5t-2 1.5q-4 10 -5 15q-2 6 -2 12t3 11q2 5 2 9.5t2 9.5q8 14 13.5 29.5t11.5 33.5v18q4 7 5 14l-2 6t-3 7v15q0 6 -1 8q-5 6 -4.5 13.5t-3.5 13.5q-1 5 -1.5 10t-1.5 10q-5 11 -15 8q-1 -1 -2 -1.5t-2 -1.5l-3.5 -7t-2.5 -8l-2 -6t-3 -8v-40v-68
q0 -6 -3 -10q-5 0 -6.5 1.5t-5.5 7.5q-1 5 -1 10v10q-2 3 -2.5 6t-2.5 8v60q-2 4 -2.5 6.5t-2.5 5.5v30q-2 3 -3 5.5t-3 6.5v28.5t1 30.5q0 5 1 7q3 5 3 10t2 10q3 5 3.5 10.5t0.5 10.5q0 3 1 5q3 5 3 10t2 10t3 10l2 10t3 8.5t3 8.5q5 9 7.5 18.5t7.5 18.5q3 6 5.5 12.5
t5.5 13.5t6 13t6 13q2 3 2.5 6t2.5 7q6 8 12 14q3 10 9 18t11 17t10.5 17t10.5 16q0 3 -4 3q-9 1 -18 1h-17q-3 2 -6 2.5t-6 2.5h-81q-3 1 -5.5 2t-6.5 2q-4 2 -13 2q-1 2 -2 3.5t-1 3.5v58q0 2 1 3.5t2 3.5q11 2 21.5 1t21.5 0q2 2 5 2.5t8 2.5h65q2 2 5 2.5t6 2.5h27h45.5
h46h26.5q2 0 3 -0.5t3 -0.5q0 -2 1 -3.5t1 -3.5q1 -15 0.5 -30t-0.5 -29q-1 -5 -4 -8t-5 -6q-4 -4 -8 -7t-7 -8q-4 -8 -9 -14.5t-8 -14.5l-3.5 -7t-3.5 -6q-3 -2 -7 -6q-8 -11 -16.5 -22.5t-13.5 -25.5q-5 -12 -9.5 -23.5t-8.5 -22.5q-1 -5 2 -10q-2 -6 -3 -12t-5 -11
q0 -6 -3 -12t-3 -13q0 -6 -3 -11t-3 -11q0 -5 -5 -15v-23q-1 -3 -2 -5.5t-3 -6.5v-29q-2 -4 -2.5 -7t-2.5 -6q-1 -11 0 -21t-1 -21q-3 -5 -9 -5q-4 -1 -6 -9q3 -7 5.5 -14.5t5.5 -15.5v-24q1 -8 3 -12t2 -9t-1.5 -8.5t-3.5 -8.5v-65q-2 -4 -3 -7t-3 -8v-28q-2 -4 -2.5 -6.5
t-2.5 -6.5v-24q-2 -3 -2.5 -5.5t-2.5 -6.5v-50q-2 -4 -2.5 -7t-2.5 -8v-34q-2 -3 -3 -5.5t-2 -5.5q0 -2 -0.5 -4t-0.5 -4v-36q0 -6 -4 -10t-7 0q-1 1 -1.5 2t-2.5 3q-1 8 -0.5 16.5t0.5 16.5q1 2 2 4.5t2 5.5q2 17 1 34t0 34q2 3 2.5 6t2.5 7v39q2 3 2.5 6t2.5 6
q2 12 0.5 24.5t3.5 25.5q-4 9 -5 16q-2 0 -3 0.5t-3 0.5q-3 -5 -6.5 -8.5t-5.5 -8.5q-4 -5 -6.5 -11t-5.5 -13v-31zM111 -251q1 -1 2 -1.5t2 -1.5q1 -2 -1 -4h-2q0 1 -1 2v5z" />
    <glyph glyph-name="eight" unicode="8" horiz-adv-x="332" 
d="M71 421q11 5 22 11t23 11h88q14 -4 27 -9.5t27 -13.5l30 -30l7 -14v-26q2 -2 2.5 -5t2.5 -7v-20q-1 -2 -2 -4.5t-2 -6.5q-1 -3 -1 -7v-8q-1 -1 -1 -2t-1 -3q-4 -8 -8.5 -16t-5.5 -17q-2 -4 -4.5 -7t-4.5 -6q-2 -7 4 -9q9 -5 16 -11.5t13 -13.5q6 -11 10.5 -21.5
t7.5 -24.5v-67q-9 -35 -30 -63q-2 -6 -2 -12t-4 -11q0 -6 -0.5 -12.5t-0.5 -13.5q-2 -6 -4 -11q0 -5 -0.5 -11.5t-0.5 -14.5q-1 -2 -2 -5t-3 -8v-23q-2 -4 -2.5 -6.5t-2.5 -5.5v-12t-1 -13q-1 -4 -2 -7.5t-2 -7.5t-0.5 -8t-2.5 -7q-2 2 -2 4q-1 5 -1 10.5v10.5v103v18
q-2 2 -3 3.5t-3 2.5q-7 7 -14 0q-3 -2 -6 -5t-5 -8v-23.5t-1 -23.5q-2 -3 -3 -5t-4 -3q-4 5 -3.5 10t1.5 10q0 5 1.5 9t2.5 8q0 5 -2 8t-4 7q-4 3 -6.5 3t-7.5 -4q0 -3 -0.5 -6.5t-0.5 -6.5q-8 -14 -14 -28q-3 -5 -4.5 -10t-3.5 -10q-4 -10 -4 -17l-2 -6t-3 -8v-28l-2 -6
t-3 -7v-22v-24q-2 -2 -2.5 -4.5t-2.5 -5.5q0 -8 -0.5 -36.5t-0.5 -64.5t0.5 -72t0.5 -59q1 -2 2 -5l2 -6t-1 -8q-2 -2 -5 -1q-2 0 -2 2q-1 1 -1 4q-1 8 -1 16v16l-2 6t-3 8v149q-2 5 -2.5 8t-2.5 6v35q1 2 2 5l2 6q0 2 0.5 3t0.5 2q0 49 0.5 78.5t0 47.5t-1 27t-1.5 18
q-2 5 -6.5 7.5t-9.5 4.5q-6 -3 -7 -8q-3 -8 -6 -19q-1 -4 -1 -9v-10q-2 -2 -5 -11v-40q-1 -3 -2 -5.5t-3 -6.5v-34q-2 -4 -2.5 -7t-2.5 -7q0 -5 -0.5 -10t-0.5 -10q-2 -4 -3 -7.5t-5 -5.5q-1 1 -1 2q-1 8 -1 15.5v14.5q2 4 2.5 6.5t2.5 6.5q1 18 0.5 37t-0.5 39q-1 4 -2 7
t-3 7v27q-2 6 -3.5 12t-4.5 11q-4 7 -12 19q-2 2 -5.5 3.5t-6.5 3.5q-3 3 -3 4q-7 13 -14 28l-12 12q-2 6 -5 11.5t-6 11.5q-2 6 -1.5 11.5t-4.5 10.5q-1 14 -0.5 27t-0.5 26q2 4 4 10q2 8 2 14q7 12 12 25q6 5 12 11l12 12q11 6 17 9t9 5t5 3.5t4 3.5q-1 0 -1 2
q-4 2 -7.5 5t-7.5 5q-7 3 -11.5 7.5l-9.5 9.5q-3 6 -6 12.5t-7 12.5q0 11 -5 23v47q7 16 18 37l8.5 8.5t11.5 10.5zM175 71q5 3 10.5 6.5t10.5 7.5q5 3 8 9q1 2 1 6q1 10 1 19.5v18.5q-5 11 -8.5 21.5t-10.5 20.5q-6 3 -12 5q-8 2 -15.5 1.5t-14.5 3.5q-8 -4 -11 -5l-10 -10
t-10 -9q-4 -9 -8 -16q-2 -4 -4.5 -7.5t-5.5 -7.5q2 -5 4 -15q1 -4 1 -8t2 -9q9 -11 20 -20l14 -7h11t10 -1t8.5 -3t8.5 -1zM106 318v-15q0 -2 1 -2.5t1 -2.5q2 -3 5 -4.5t5 -3.5q4 -2 7 -4.5t6 -4.5t6 -2.5t6 -2.5h26q6 4 11.5 7.5t10.5 6.5q1 1 3 5q2 8 1.5 16.5t-0.5 16.5
q-3 7 -6 13.5t-8 11.5q-8 4 -11 6q-16 2 -27 0q-19 -7 -25 -17z" />
    <glyph glyph-name="nine" unicode="9" horiz-adv-x="332" 
d="M318 180v-24q-1 -2 -2.5 -4.5t-1.5 -5.5q0 -8 -3.5 -16t-3.5 -18q-6 -8 -8.5 -19t-8.5 -21l-22 -22t-22 -23q-2 -10 -1 -19.5t0 -18.5q2 -3 2.5 -6t2.5 -6q0 -10 0.5 -20t-1.5 -22q-4 3 -7 6l-1.5 3t-0.5 3q0 15 -6 25v30q-3 9 -10 11q-8 -3 -16.5 -6t-17.5 -6
q-1 -2 -2 -3.5t-1 -3.5v-23v-205v-25q-2 -4 -2.5 -6.5t-2.5 -5.5v-64q-2 -6 -2 -8q-1 -3 -3 -7q-1 -3 -3 -7l-2 2q-1 20 -1 39.5v39.5q2 2 2.5 5t2.5 5q0 7 0.5 24.5t0.5 38.5t-0.5 42.5t-0.5 36.5l-2 6t-3 7v65l-2 6l-2 6q-2 7 -1 14t-2 15l-6 3h-31q-10 3 -19.5 6t-18.5 6
q-2 2 -5 4t-5 4q-9 2 -12 -5q-1 -5 -1 -10v-10q0 -3 -3 -3q-1 0 -4 3q-1 1 -3 5v13q0 5 -4 15q-1 4 -1.5 7.5t-1.5 8.5l-10 22t-9 24q-1 10 0 22q2 2 4 3.5t4 3.5q3 6 1 12l-4 12v24q-2 3 -3 5.5t-2 5.5q-1 17 -0.5 22t4.5 16q-2 5 -5.5 7.5t-5.5 6.5q-3 5 -5 8.5t-4 8.5v36
q-2 3 -2.5 5.5t-2.5 5.5v26q2 6 4 11v5.5t1 8.5q0 2 -0.5 3.5t0.5 3.5q4 6 4 13t3 12q2 5 2.5 9t1.5 9q2 4 3.5 8t4.5 9q5 4 10 9.5t11 10.5q3 3 6 6.5t7 5.5q8 5 14.5 10t16.5 8q9 0 18 3.5t19 7.5h46q5 -2 9 -3.5t9 -2.5q12 -1 27 -8q5 -2 9 -4.5t9 -4.5q12 -12 23 -23.5
t23 -22.5l8 -16l8 -16q3 -8 5.5 -17t6.5 -20q0 -5 0.5 -11t0.5 -13l2 -6t2 -7v-103q-1 -2 -2 -5t-3 -8zM120 358q-1 -2 -2 -4.5t-2 -4.5q-4 -5 -1 -13l4 -8v-44q2 -5 3 -9l2 -8q3 -8 7 -15t13 -12h7.5t7.5 2l15 12q12 1 21 3q5 3 6 6q2 2 3.5 5t2.5 6q1 8 4.5 13t6.5 10v27
l-3.5 7l-2.5 5q-9 10 -16.5 17.5t-14.5 15.5q-5 2 -9 3t-9 2q-6 -4 -12.5 -3t-12.5 -1zM109 102q2 -5 4.5 -8.5t4.5 -8.5l8 -4t7 -4h8.5t7.5 3v5q-5 9 -9 17.5t-9 17.5q0 1 -0.5 2t-0.5 3q-1 5 -1 15q-2 4 -3.5 7.5t-5.5 5.5q-1 -1 -2.5 -1.5t-2.5 -2.5q-4 -4 -6 -8v-39z
M79 170q-5 1 -9 -4l-9 -15v-24q0 -2 1 -3t2 -3q4 -2 5 -2h16q8 0 12 10v22q-2 3 -3 6.5t-3 6.5q-8 3 -12 6zM201 170q-2 -1 -3 -2t-3 -2q-2 -6 -4 -11.5t-4 -11.5v-33q0 -5 1 -8t6 -3q3 2 4 5t3 6q4 7 7 14v13q1 4 2 7.5t2 6.5q-2 5 -2.5 8.5t-2.5 7.5q-2 3 -6 3z" />
    <glyph glyph-name="colon" unicode=":" horiz-adv-x="146" 
d="M78 184q7 2 11 4t9 2q5 -1 8 1.5t7 2.5q4 1 7.5 1t7.5 -5q1 -15 0.5 -30.5t-0.5 -30.5q-1 -4 -2 -7t-3 -7v-33q0 -3 -3 -6q-5 -3 -9.5 -1t-10.5 4h-36q-7 2 -12.5 4t-11.5 2q-7 0 -10 8q-2 7 -1.5 14t-0.5 15l-2 4t-2 5q-1 5 -1 10v11q-2 4 -3 7q-4 9 0 17q2 3 5.5 2.5
t6.5 0.5q3 2 6 2.5t8 2.5h32zM127 423q2 -12 2 -26.5t-1 -39.5q-2 -2 -5 -11v-19v-9.5t-2 -8.5q-5 -1 -8.5 0.5t-8.5 1.5q-5 -1 -9.5 -0.5t-9.5 0.5h-19q-12 5 -24 5q-9 0 -13 10q0 5 -0.5 11.5t-0.5 14.5q-1 2 -2 5t-2 7q-1 5 -1 10v10q-3 5 -4.5 10.5t0.5 12.5q2 1 4 3
t4.5 3t6.5 3h33h11t11 4q7 1 13 2.5t13 3.5q6 1 12 -3z" />
    <glyph glyph-name="semicolon" unicode=";" horiz-adv-x="158" 
d="M34 95q2 6 3.5 9.5t1.5 8.5q0 3 0.5 6t0.5 6q5 4 11 5.5t11 3.5q5 0 7 -2q11 -4 23 0q7 2 14 3t14 4h5q2 -2 3 -2.5t3 -2.5q3 -3 1 -7q0 -2 -1 -3.5t-2 -3.5q2 -5 3.5 -10t1.5 -11q-1 -17 -0.5 -33.5t0.5 -33.5q-4 -11 -8 -21.5t-9 -20.5q-2 -4 -3.5 -8t-3.5 -9
q-4 -5 -9 -10.5t-12 -8.5q-4 -6 -10 -9.5t-13 -5.5q-5 -1 -9.5 -3.5t-9.5 -4.5q-2 2 -3 2t-2 2q-8 14 -15 28.5t-14 29.5q0 2 0.5 3t0.5 2q2 4 3 4q8 2 16 5l16 6q7 4 14 12q4 6 -2 14q-6 1 -11.5 1t-11.5 1q-1 2 -2 2.5t-1 1.5q-1 4 -1 11v39zM58 277q-3 3 -5 4.5t-4 3.5
q-6 6 -3 15q1 2 2 4.5t0 5.5q-2 4 -8 12q-2 12 -0.5 24t-3.5 23q8 4 12 7q11 1 23 0.5t26 0.5q2 1 4.5 1.5t6.5 2.5q6 1 12.5 1t12.5 4q1 1 3 0.5t4 -0.5q1 -2 4 -5q1 -19 0.5 -38.5t-0.5 -38.5q-1 -3 -2 -5.5t-2 -4.5q-2 -7 -1 -13.5t-2 -12.5q-14 5 -28 3.5t-28 0.5
q-10 5 -23 5z" />
    <glyph glyph-name="less" unicode="&#x3c;" 
d="M339 489q19 1 39 0q69 -5 118 -31t86 -63t61 -88.5t28 -120.5v-18q-4 -72 -29 -123.5t-63 -89.5t-89.5 -62.5t-122.5 -28.5h-18q-5 1 -10 1h-10q-14 2 -28 4.5t-28 6.5q-2 1 -0.5 3t3.5 3q19 22 38.5 45t38.5 45q-31 -8 -61 -16.5t-61 -16.5q2 31 5 62l6 62
q-24 -27 -49 -56t-49 -58q-39 38 -65.5 88t-32.5 120q0 11 -0.5 20.5t0.5 19.5q2 32 11 62q12 44 33 78.5t47 61.5q37 36 86.5 60.5t115.5 29.5zM600 278q-20 48 -56 83q-33 33 -82 57t-117 21q-35 -2 -65 -12t-55 -24q-24 -14 -43.5 -32.5t-35.5 -40.5t-28 -49t-18 -59
q-6 -33 -2.5 -68.5t14.5 -65.5q8 8 15.5 17t15.5 18t15.5 18.5t15.5 18.5q47 55 93.5 109.5t93.5 109.5q64 -55 127.5 -109t127.5 -108q1 0 2 -2t1 0q2 35 -3 64.5t-16 53.5zM524 -26q29 23 51 54.5t34 71.5q-15 14 -30 26.5t-30 25.5q-45 39 -90.5 77.5t-90.5 77.5h-2
q-16 -19 -32 -37.5t-32 -38.5q46 -38 91 -76.5t90 -76.5q2 -2 3.5 -3t1.5 -3q-15 -3 -29.5 -7t-29.5 -8q-41 34 -80 68.5t-80 67.5q-33 -40 -66.5 -78.5t-65.5 -77.5q2 -2 3.5 -5t3.5 -5q32 38 64 75.5t64 74.5q3 -3 6.5 -5.5t7.5 -6.5q2 -2 7.5 -6.5t6.5 -6.5q1 -3 0 -8
t-1 -10q-3 -32 -6 -65t-5 -62q53 14 105 29t105 30q-29 -38 -61.5 -74t-61.5 -73q-1 -1 -3 -2t0 -2q48 4 85.5 19.5t66.5 39.5zM66 -173h28v-8h-18v-10h17v-9h-17v-18h-10v45zM143 -195q0 -24 -22 -24q-11 0 -16.5 6.5t-5.5 16.5q0 11 6 17.5t16 6.5q11 0 16.5 -6.5
t5.5 -16.5zM110 -195q0 -16 11 -16t11 16q0 6 -3 10.5t-8 4.5t-8 -4.5t-3 -10.5zM150 -218v45h12l9 -16q2 -4 3.5 -8t3.5 -8h1q-1 5 -1 9.5v9.5v13h9v-45h-11l-9 18q-5 6 -8 16v-20v-14h-9zM205 -181h-12v8h34v-8h-12v-37h-10v37zM271 -201q0 5 -0.5 9.5t-0.5 9.5
q-1 -5 -2 -9t-3 -9l-5 -17h-8l-5 17q-2 5 -2.5 9t-1.5 9q-1 -5 -1 -9.5v-9.5l-1 -17h-9l2 45h14l5 -15q1 -4 1.5 -8t1.5 -8h1q1 4 1.5 8t2.5 8l5 15h13l3 -45h-10zM331 -195q0 -24 -22 -24q-11 0 -16.5 6.5t-5.5 16.5q0 11 6 17.5t16 6.5q11 0 16.5 -6.5t5.5 -16.5z
M298 -195q0 -16 11 -16t11 16q0 6 -3 10.5t-8 4.5t-8 -4.5t-3 -10.5zM338 -218v45h12l9 -16q2 -4 3.5 -8t3.5 -8v19v13h9v-45h-11l-9 18q-5 6 -8 16v-20v-14h-9zM422 -216q-6 -2 -15 -2q-13 0 -19 6t-6 16q0 11 7.5 17.5t18.5 6.5q8 0 12 -2l-2 -9q-2 2 -10 2q-15 0 -15 -14
q0 -15 14 -15h5v10h-7v8h17v-24zM457 -199h-17v-11h19v-8h-29v45h28v-8h-18v-9h17v-9zM466 -173q2 0 5.5 0.5t7.5 0.5q11 0 15 -4q4 -3 4 -9q0 -9 -8 -11v-1q4 -1 6 -8q2 -4 2.5 -7.5t1.5 -5.5h-11q0 2 -3 11q-1 7 -7 7h-3v-18h-10v45zM476 -193h4q8 0 8 7q0 6 -8 6h-4v-13z
M504 -212q0 6 6 6t6 -6q0 -7 -6 -7t-6 7zM556 -217q-4 -2 -11 -2q-12 0 -18 6.5t-6 16.5q0 11 7 17.5t18 6.5q7 0 11 -2l-2 -8q-4 2 -9 2q-14 0 -14 -15t14 -15q7 0 9 1zM602 -195q0 -24 -22 -24q-10 0 -15.5 6.5t-5.5 16.5q0 11 6 17.5t16 6.5q11 0 16 -6.5t5 -16.5z
M570 -195q0 -16 11 -16t11 16q0 6 -3 10.5t-8 4.5t-8 -4.5t-3 -10.5zM647 -201v19q-2 -5 -3 -9t-2 -9l-6 -17h-8l-5 17q-1 5 -2 9t-2 9v-9.5t-1 -9.5v-17h-10l3 45h14l4 -15q2 -4 2.5 -8t1.5 -8l2 8l2 8l5 15h14l2 -45h-10z" />
    <glyph glyph-name="equal" unicode="=" horiz-adv-x="389" 
d="M311 129q-4 1 -6.5 2t-5.5 3h-66q-4 2 -7 2.5t-8 2.5h-113q-3 2 -6 2.5t-6 2.5h-41l-7 3.5t-6 3.5l-1.5 3t-0.5 3q-1 14 -1 27.5v27.5q0 3 -2.5 6t-1.5 6q2 1 2.5 2t1.5 1q4 1 8 1h8t7.5 1.5t8.5 3.5h121q8 2 12 4t9 2t8 -1.5t8 -3.5h35l13.5 4.5t15.5 5.5h57q6 0 9 -4
q0 -8 0.5 -23t0.5 -31.5t-0.5 -31.5t-0.5 -22l-4 -2q-3 -1 -8 -1h-33zM193 365q21 11 37 0h31q6 2 13 4.5t16 5.5q14 1 30 0.5t32 0.5q2 -2 2.5 -3l1.5 -3q1 -1 1 -5v-94q0 -6 -5 -10q-10 -2 -20 -1.5t-21 0.5q-3 2 -6 2.5t-7 2.5h-59q-2 1 -4 1.5t-4 1.5l-6 2h-108
q-4 2 -7 3t-7 3h-50q-5 2 -8.5 3.5t-7.5 5.5q-2 7 -1 13.5t0 14.5v33q0 1 -2.5 4t-0.5 8q6 3 12.5 2t13.5 1q2 1 4.5 1.5t5.5 2.5h124z" />
    <glyph glyph-name="greater" unicode="&#x3e;" 
d="M339 489q19 1 39 0q69 -5 118 -31t86 -63t61 -88.5t28 -120.5v-18q-4 -72 -29 -123.5t-63 -89.5t-89.5 -62.5t-122.5 -28.5h-18q-5 1 -10 1h-10q-14 2 -28 4.5t-28 6.5q-2 1 -0.5 3t3.5 3q19 22 38.5 45t38.5 45q-31 -8 -61 -16.5t-61 -16.5q2 31 5 62l6 62
q-24 -27 -49 -56t-49 -58q-39 38 -65.5 88t-32.5 120q0 11 -0.5 20.5t0.5 19.5q2 32 11 62q12 44 33 78.5t47 61.5q37 36 86.5 60.5t115.5 29.5zM600 278q-20 48 -56 83q-33 33 -82 57t-117 21q-35 -2 -65 -12t-55 -24q-24 -14 -43.5 -32.5t-35.5 -40.5t-28 -49t-18 -59
q-6 -33 -2.5 -68.5t14.5 -65.5q8 8 15.5 17t15.5 18t15.5 18.5t15.5 18.5q47 55 93.5 109.5t93.5 109.5q64 -55 127.5 -109t127.5 -108q1 0 2 -2t1 0q2 35 -3 64.5t-16 53.5zM524 -26q29 23 51 54.5t34 71.5q-15 14 -30 26.5t-30 25.5q-45 39 -90.5 77.5t-90.5 77.5h-2
q-16 -19 -32 -37.5t-32 -38.5q46 -38 91 -76.5t90 -76.5q2 -2 3.5 -3t1.5 -3q-15 -3 -29.5 -7t-29.5 -8q-41 34 -80 68.5t-80 67.5q-33 -40 -66.5 -78.5t-65.5 -77.5q2 -2 3.5 -5t3.5 -5q32 38 64 75.5t64 74.5q3 -3 6.5 -5.5t7.5 -6.5q2 -2 7.5 -6.5t6.5 -6.5q1 -3 0 -8
t-1 -10q-3 -32 -6 -65t-5 -62q53 14 105 29t105 30q-29 -38 -61.5 -74t-61.5 -73q-1 -1 -3 -2t0 -2q48 4 85.5 19.5t66.5 39.5zM66 -173h28v-8h-18v-10h17v-9h-17v-18h-10v45zM143 -195q0 -24 -22 -24q-11 0 -16.5 6.5t-5.5 16.5q0 11 6 17.5t16 6.5q11 0 16.5 -6.5
t5.5 -16.5zM110 -195q0 -16 11 -16t11 16q0 6 -3 10.5t-8 4.5t-8 -4.5t-3 -10.5zM150 -218v45h12l9 -16q2 -4 3.5 -8t3.5 -8h1q-1 5 -1 9.5v9.5v13h9v-45h-11l-9 18q-5 6 -8 16v-20v-14h-9zM205 -181h-12v8h34v-8h-12v-37h-10v37zM271 -201q0 5 -0.5 9.5t-0.5 9.5
q-1 -5 -2 -9t-3 -9l-5 -17h-8l-5 17q-2 5 -2.5 9t-1.5 9q-1 -5 -1 -9.5v-9.5l-1 -17h-9l2 45h14l5 -15q1 -4 1.5 -8t1.5 -8h1q1 4 1.5 8t2.5 8l5 15h13l3 -45h-10zM331 -195q0 -24 -22 -24q-11 0 -16.5 6.5t-5.5 16.5q0 11 6 17.5t16 6.5q11 0 16.5 -6.5t5.5 -16.5z
M298 -195q0 -16 11 -16t11 16q0 6 -3 10.5t-8 4.5t-8 -4.5t-3 -10.5zM338 -218v45h12l9 -16q2 -4 3.5 -8t3.5 -8v19v13h9v-45h-11l-9 18q-5 6 -8 16v-20v-14h-9zM422 -216q-6 -2 -15 -2q-13 0 -19 6t-6 16q0 11 7.5 17.5t18.5 6.5q8 0 12 -2l-2 -9q-2 2 -10 2q-15 0 -15 -14
q0 -15 14 -15h5v10h-7v8h17v-24zM457 -199h-17v-11h19v-8h-29v45h28v-8h-18v-9h17v-9zM466 -173q2 0 5.5 0.5t7.5 0.5q11 0 15 -4q4 -3 4 -9q0 -9 -8 -11v-1q4 -1 6 -8q2 -4 2.5 -7.5t1.5 -5.5h-11q0 2 -3 11q-1 7 -7 7h-3v-18h-10v45zM476 -193h4q8 0 8 7q0 6 -8 6h-4v-13z
M504 -212q0 6 6 6t6 -6q0 -7 -6 -7t-6 7zM556 -217q-4 -2 -11 -2q-12 0 -18 6.5t-6 16.5q0 11 7 17.5t18 6.5q7 0 11 -2l-2 -8q-4 2 -9 2q-14 0 -14 -15t14 -15q7 0 9 1zM602 -195q0 -24 -22 -24q-10 0 -15.5 6.5t-5.5 16.5q0 11 6 17.5t16 6.5q11 0 16 -6.5t5 -16.5z
M570 -195q0 -16 11 -16t11 16q0 6 -3 10.5t-8 4.5t-8 -4.5t-3 -10.5zM647 -201v19q-2 -5 -3 -9t-2 -9l-6 -17h-8l-5 17q-1 5 -2 9t-2 9v-9.5t-1 -9.5v-17h-10l3 45h14l4 -15q2 -4 2.5 -8t1.5 -8l2 8l2 8l5 15h14l2 -45h-10z" />
    <glyph glyph-name="question" unicode="?" horiz-adv-x="392" 
d="M94 282q-1 5 -0.5 9t-1.5 9q-5 4 -15 8q-11 1 -23.5 0.5t-24.5 0.5q-1 2 -2 3t-1 2q-1 8 -1 15t4 14q1 2 1 7q1 4 0.5 7t1.5 6q2 5 3.5 11t4.5 11q4 7 7 14t6 13q5 6 10 9t10 7q4 3 7.5 6.5l8.5 8.5q11 5 22.5 11t22.5 11q6 1 11 1.5t10 4.5q17 1 34 0.5t33 -0.5
q5 -2 8.5 -3t7.5 -2q14 0 23 -4q3 -2 6.5 -2h6.5q8 -5 16.5 -8.5t15.5 -9.5q23 -14 36 -37q9 -9 13.5 -20.5t11.5 -22.5v-47q-4 -8 -6 -15t-5 -15q-4 -8 -8.5 -14.5t-9.5 -14.5q-5 -6 -11 -11.5t-11 -10.5q-2 -1 -2.5 -2t-2.5 -1q-5 -2 -8.5 -5.5l-7.5 -7.5q-5 -5 -9.5 -9
t-10.5 -7q-5 -2 -8 -5.5t-6 -7.5q-3 -3 -6.5 -6t-6.5 -7q-2 -3 -3.5 -6.5t-3.5 -7.5q0 -8 -2.5 -15t-5.5 -15q-2 0 -2.5 -1t-2.5 -1q-16 -1 -31.5 -1t-31.5 2q-1 2 -2 3.5t-1 3.5v47q6 23 18 44l18 18q0 6 1 9q21 3 31 20v52q-4 8 -5.5 16.5t-8.5 14.5q-6 2 -6 -3
q-1 -7 -1 -13v-13q-2 -3 -2.5 -6t-2.5 -7v-40q-2 -3 -3 -5.5t-2 -5.5v-10q-7 1 -10 10q-2 14 -1 29t0 29q-3 7 -8 14q-5 3 -11 -1q-7 -10 -9.5 -22t-8.5 -23v-29l-2 -6t-3 -8v-141q6 -4 8.5 -4.5t13.5 0.5q2 1 4.5 2t5.5 3h33q7 1 11 3t9 2t8 2t7 2q4 1 8 1t7 -4
q1 -16 0.5 -31.5t0.5 -30.5q-2 -4 -2.5 -7t-2.5 -7v-16.5t-1 -16.5q0 -2 -1 -3t-2 -3q-4 -2 -7 0.5t-6 2.5h-44q-6 2 -11.5 4t-11.5 2q-7 1 -11 10v12.5t-1 14.5q-2 6 -4 10v7q-1 6 -0.5 12t-0.5 12q0 3 -4 7q0 1 -4 1q-1 -1 -1 -2q-1 -6 -1 -12v-12v-38q-3 -5 -4 -11
q-2 -14 -1 -27.5t-1 -27.5l-2 -1q-2 0 -3 1t-1 2q-1 1 -1.5 2t-2.5 3v229q-2 6 -3.5 11t-3.5 10q-3 2 -8 7q0 11 -0.5 22t-0.5 23q-2 3 -5 5.5t-6 5.5zM94 282q-1 -3 -1 -10q0 -5 -3 -2q-1 1 -1 2q-2 7 5 10z" />
    <glyph glyph-name="at" unicode="@" horiz-adv-x="633" 
d="M33 247q1 3 2 5.5t2 5.5q-1 2 -1 4t-1 4q0 2 2 6q1 5 0.5 9.5t1.5 9.5q3 8 5.5 17t5.5 17q4 12 7 19.5t6.5 14t8 13.5t11.5 18q3 4 5.5 8t4.5 7q8 9 17 17q12 14 26 26q4 4 7.5 8t8.5 6q6 4 11.5 8.5t12.5 6.5q5 2 8.5 4t7.5 4q12 8 24.5 11t24.5 8q5 2 9 2h9q2 2 5 2.5
t6 2.5h24q4 1 12 5h30h31q4 -2 7 -2.5t7 -2.5h23q8 -4 12 -5q21 -5 34.5 -9.5t29.5 -12.5q9 -5 17.5 -9t16.5 -11q5 -1 8 -4l6 -6l21 -21q3 -3 6.5 -6t5.5 -7q5 -8 10 -14.5t7 -15.5q2 -14 7 -26.5t10 -27.5v-19q2 -3 2.5 -6t2.5 -6v-50q-4 -10 -5 -15q-1 -6 -1 -11.5
t-3 -11.5q-2 -3 -2 -13q-5 -10 -10 -19.5t-10 -20.5q-4 -8 -8.5 -14.5t-8.5 -14.5q-2 -3 -7 -8l-8 -8t-8 -9q-6 -6 -10 -9.5t-7.5 -6.5t-8.5 -6t-13 -8q-7 -5 -13 -9t-14 -8q-5 -2 -13 -8q-4 -1 -7.5 -1.5t-8.5 -1.5l-3.5 -3.5l-3.5 -3.5v-11.5t-1 -10.5q0 -4 -7 -5
q-4 5 -5.5 10.5t-3.5 11.5q-2 5 -7 7q-6 2 -11 -2q-3 -8 -6 -17l-6 -18q0 -8 5 -8q6 -1 12 -1h12l6 2t7 3q7 -1 13.5 1t13.5 4q10 4 20 7t19 8q5 2 8.5 5.5t8.5 6.5q9 5 17.5 10.5t15.5 13.5q14 2 22.5 2t26.5 -1q1 -2 2 -2.5t3 -2.5q4 -5 2 -7q-7 -8 -12 -16.5t-13 -14.5
l-3.5 -3.5l-3.5 -3.5q-6 -7 -13 -13q-3 -3 -6.5 -5t-6.5 -4q-5 -3 -10 -6.5t-10 -6.5q-4 -2 -7.5 -4.5t-8.5 -3.5q-7 -2 -12.5 -5t-13.5 -6q-7 1 -13.5 -2t-14.5 -5q-5 -2 -9 -3t-9 -1q-5 1 -9.5 -1t-10.5 -4h-43q-8 -3 -11 -9q-2 -8 -1 -15t-1 -14q0 -1 -0.5 -1t-0.5 -1
q-2 1 -6 1q-1 -1 -2 -1t-2 -2q-1 -1 -3 -5q-1 -18 -0.5 -36t-0.5 -37v-73v-71q0 -19 0.5 -37t-0.5 -36q-2 -4 -3.5 -8t-5.5 -6q-5 0 -5 4q-1 8 -1 16t-1 16q-2 6 -4 11q-1 23 -1 46v47v94v92q-1 6 -3 9.5t-4 7.5q-1 1 -2 1q-5 1 -10.5 1.5t-12.5 1.5q-2 0 -9 3q-5 1 -10.5 1
t-11.5 1q-6 2 -10 4q-5 0 -11 0.5t-13 -1.5q-1 -3 -5 -9q-2 -2 -2.5 -4.5t-2.5 -4.5q-4 0 -5 -1q-7 4 -12 11q-2 4 -1.5 7.5t-1.5 8.5q-1 4 -4 6.5t-5 4.5q-4 2 -5 3q-11 1 -22 9q-4 2 -7.5 4.5t-7.5 5.5q-3 2 -6 4.5t-7 4.5t-10 8l-22 22l-6 6t-5 6q-4 5 -7 10.5t-7 11.5
l-6 12q-6 12 -11.5 24t-8.5 26q-1 4 -4 8v11t-1 12q-1 2 -2 5t-2 5v83zM276 437q-5 -2 -9 -4t-9 -1q-3 0 -5.5 -1t-4.5 -2q-10 -2 -19 -6.5t-18 -8.5q-7 -3 -12 -7.5t-12 -8.5q-4 -2 -7 -5t-6 -7l-15 -15q-4 -4 -8 -7t-6 -8q-5 -8 -9.5 -14.5t-8.5 -14.5q-2 -5 -3.5 -8.5
t-2.5 -8.5q-2 -5 -4.5 -9.5t-4.5 -9.5q-2 -7 -4 -12.5t-2 -12.5q0 -4 -1.5 -7.5t-3.5 -8.5v-33q-3 -4 -4 -8q-3 -6 1 -12q1 -2 1.5 -4t1.5 -4v-28q4 -11 6.5 -20t5.5 -17q4 -9 8 -17l8 -16q4 -3 7 -7t8 -3q4 3 5.5 7t3.5 8v6q-3 5 -7 9.5t-6 10.5t-4.5 12t-2.5 12t-2.5 10.5
t-3.5 8.5v51q2 3 2.5 5.5t2.5 5.5q0 5 0.5 10.5t0.5 10.5q2 5 4 11q7 27 21 51q5 8 10.5 16t12.5 15q11 11 20.5 21t19.5 19q6 3 10.5 5.5t9.5 4.5q7 3 13.5 5.5t13.5 3.5q5 1 9 2.5t9 2.5h44q11 -3 20 -6q5 -2 9.5 -4.5t10.5 -3.5l15 9h34q10 0 19.5 0.5t19.5 0.5l2 1
q1 3 -1 5q-4 3 -8.5 5t-8.5 7q-1 1 -2 1t-2 1q-11 2 -21.5 6t-21.5 6q-3 0 -6 1.5l-5 2.5h-108zM280 309q-13 -14 -22 -22q-10 -15 -14.5 -29.5t-10.5 -28.5q-1 -3 -1 -6.5v-6.5l-5.5 -11t-4.5 -10v-37q4 -9 12 -10q8 0 16 -3q3 -2 10 -2q5 -1 15 -1q14 -7 25 -2q4 2 8 3
t9 3q7 5 12 12q3 5 5 9.5t4 8.5q5 8 7.5 15.5t5.5 15.5q4 9 0 18q0 4 -1 5q1 2 1.5 4t1.5 4v15q-4 8 -5 11v14.5t-1 13.5q-11 13 -24 24q-8 0 -14.5 0.5t-14.5 -0.5q-3 -2 -6 -3.5t-8 -3.5zM485 360q-1 -8 -1 -14.5t-4 -12.5q-1 -2 -0.5 -4t-0.5 -4q0 -2 0.5 -5t-1.5 -5
q-4 -7 -3.5 -14t-4.5 -14q-1 -2 -1 -7t-0.5 -9t-2.5 -9q-3 -5 -3 -10t-2 -10q-3 -6 -3 -12.5t-4 -12.5q0 -7 -2.5 -13t-3.5 -12q0 -5 -1.5 -9t-3.5 -9q-1 -5 -1 -9t-1 -9q0 -1 -1 -2q0 -8 6 -6q5 2 8.5 3.5t7.5 3.5q24 20 35.5 41.5t18.5 37.5q-2 5 1 10t4 11v65
q-2 5 -3.5 10t-3.5 10t-4.5 9.5t-4.5 9.5q-5 9 -12 13q-3 -2 -4.5 -5.5t-3.5 -6.5zM276 36q-2 -4 -3 -6.5t-3 -5.5q-2 -7 0 -13q1 -5 9 -10h17q5 7 4 9q-2 6 -3.5 11t-3.5 10q-5 8 -17 5zM218 26q4 -6 6 -7.5t8 -1.5q11 0 11 8q0 5 -0.5 9t-0.5 9q0 1 -3 4q-7 1 -13 0
q1 0 -3 -2q0 -3 -2 -9q-4 -8 -3 -10zM204 -112q0 -2 1 -2.5t1 -2.5q0 -6 0.5 -12.5t-1.5 -12.5l-2 -2q-2 8 -2.5 11t0.5 17q0 1 1 1.5t2 2.5z" />
    <glyph glyph-name="A" unicode="A" horiz-adv-x="425" 
d="M383 134q2 -5 2 -9.5t2 -9.5q4 -8 6 -17t7 -17q4 -8 5.5 -16t6.5 -15q1 -2 1.5 -2.5t1.5 -2.5q2 -6 3 -11.5t3 -11.5q2 -5 4.5 -9t3.5 -10q-2 0 -3 -1t-2 -1h-47q-9 0 -16 3q-1 0 -8 -2q-3 1 -11 3q-5 0 -7 -3.5t-7 -2.5q-2 5 -2.5 10t-2.5 10t-3.5 9.5t-3.5 9.5l-18 57
q-6 6 -12 6q-8 -2 -14.5 -6t-13.5 -7q-3 -4 -7 -12q-1 -1 -2 -1.5t-2 -1.5t-2 -1q-3 4 -4 8t-3 9q-6 12 -18 18q-2 1 -4.5 2t-4.5 2h-26q-10 -4 -17 -16q-2 -5 -3 -9t-3 -9q-4 -7 -4 -17q0 -4 -2 -10q-1 -2 -1.5 -4t-1.5 -4v-39q-2 -3 -2.5 -6t-2.5 -7v-56q2 -6 4 -11t0 -10
q0 -4 -7 -10q-5 1 -8 8v37q2 2 2.5 5.5t2.5 6.5v72q-2 3 -2.5 6t-1.5 5q-2 10 -1 19.5t-1 19.5q-6 7 -8 7.5t-9 -1.5q-2 0 -2 -2q-1 -6 -2 -11.5t-4 -10.5q-1 -2 -1 -4t-1 -4q-5 -8 -7 -17t-7 -17q-3 -6 -7 -12q-4 -4 -7 -2t-7 3q-2 -1 -5 -2t-7 -3h-32t-32 1l-2 6
q2 7 5 13.5t5 13.5q0 4 2 8q5 8 7 16t6 16v17q-3 4 -5.5 7t-4.5 6q-1 11 -0.5 20.5t0.5 18.5q2 2 3 3.5t2 3.5q4 2 7.5 3.5t6.5 3.5q4 1 7 1t6 1q7 2 8 6q5 9 10.5 17t9.5 17q2 6 3 11.5t5 10.5t5 11t3 11q3 8 5.5 15t7.5 14v10.5t1 10.5q3 10 6.5 19t7.5 18q3 8 5.5 17
t5.5 17q1 2 1 4t1 4q7 11 10.5 23.5t8.5 24.5q1 3 1.5 6.5t2.5 6.5q2 5 4 9.5t6 8.5q13 2 36.5 2t55.5 -1q5 -1 10 -8q1 -3 2 -5.5t2 -4.5q2 -8 6 -15.5t6 -16.5q2 -8 6 -15.5t6 -15.5q8 -15 12.5 -31.5t11.5 -32.5q1 -8 4.5 -13.5t5.5 -12.5q2 -8 4 -14.5t5 -13.5
q6 -11 9.5 -23.5t8.5 -25.5q1 -2 1 -3.5t1 -3.5q4 -7 6.5 -13.5t4.5 -13.5q3 -7 6 -13t5 -13q2 -5 3.5 -8.5t3.5 -7.5zM195 286q-3 -7 -4.5 -12t-3.5 -10t-2 -9t-2 -9t-3 -10l-2 -10q-3 -8 -8 -16q-4 -9 7 -9q2 0 5 0.5t5 0.5q2 1 4.5 2t5.5 2h31q2 0 3.5 1t3.5 2
q4 11 -1 23q-2 6 -4.5 12t-2.5 13t-2 13l-4 12q-1 4 -2.5 7.5t-2.5 7.5q0 8 -3 14t-5 13q-1 1 -2 1t-2 1q-3 -3 -5 -6.5t-4 -7.5v-26zM334 -65q2 -2 2 -4q1 -8 1.5 -15.5t-1.5 -15.5q-1 -1 -2 -1q-2 8 -2.5 11.5t0.5 20.5q0 2 1 2.5t1 1.5zM27 -112q0 -8 -1 -13q0 -5 -3 -2
l-1 2v26q0 5 3 2q0 -1 0.5 -1t0.5 -1q0 -3 0.5 -6.5t0.5 -6.5zM350 -211q0 1 -1 1.5t-1 1.5q-2 6 2 6q1 0 1 -1q1 -2 1 -7q-1 -1 -2 -1z" />
    <glyph glyph-name="B" unicode="B" horiz-adv-x="407" 
d="M242 -83q-2 -5 -3.5 -8.5t-1.5 -7.5v-42q0 -2 -0.5 -3.5t-0.5 -3.5q-6 -1 -8 5q-1 4 -1 8v8l2 6t3 8v38q4 11 4.5 15t-0.5 15q-3 5 -4 6l-3.5 3.5l-3.5 3.5h-6q-8 -5 -11.5 -11t-6.5 -14q-2 -4 -3 -8t-3 -11v-61v-43q0 -6 -3 -6q-4 1 -6 5q-4 8 -6 13v16q1 2 2 5t2 7
q1 5 1 10v10q2 2 2.5 5t2.5 6v88q-1 6 -7 14q-4 2 -5 2q-11 1 -21 0q-3 -3 -4.5 -6.5t-4.5 -7.5v-32q-2 -2 -2.5 -5t-2.5 -7v-25q2 -3 2.5 -5.5t2.5 -5.5v-46q-2 -3 -2.5 -6t-2.5 -8v-92q-2 -3 -3 -5.5t-3 -6.5v-98q-4 -10 -6 -14q-7 -2 -9 0q-1 2 -5 6v28q1 2 1.5 5t2.5 6
q2 8 1 15.5t4 14.5q1 5 1 10.5v10.5q2 3 2.5 6t2.5 7v67q-2 3 -2.5 5.5t-2.5 6.5v34q-2 3 -2.5 6t-2.5 6v34q-2 5 -3 8.5t-2 7.5q-1 5 -1 13q-3 10 -11 9q-4 -2 -5.5 -5.5t-3.5 -7.5q0 -8 -1 -13q-1 -2 -2 -4.5t-3 -5.5v-44v-95q0 -7 -2 -10q-1 -1 -4 -1q-6 0 -8 6
q-1 3 -1 8q-1 11 -1 21v20q2 3 2.5 5.5t2.5 6.5v39q2 5 3 8t3 7v49q1 4 5 12q1 7 0.5 13.5t4.5 11.5q2 26 0 50q-1 2 -1.5 2.5t-1.5 2.5q-6 6 -14 3q-3 -1 -6 -2.5l-5 -2.5q-3 -4 -3 -11v-71v-25q-2 -6 -4 -11l-4 -10q-1 0 -2 -0.5t-3 -0.5q-2 1 -6 5q-2 6 -2 12.5t-5 12.5
v26q1 2 2 5l2 6q1 6 1 12v13q4 8 4 12q1 4 1 8v8q0 3 -2 7q-2 2 -4.5 2.5t-5.5 2.5t-3 5t-2 6q-3 2 -8 7v13l3.5 3.5l3.5 3.5t2 5v23v300v26q2 2 2.5 5t2.5 5q2 12 0.5 24.5t0.5 24.5q3 3 5 4q2 0 4 0.5t4 0.5h81t81 -1h4q2 -1 4.5 -1.5t5.5 -2.5h29q8 -3 15.5 -6t15.5 -5
q5 -2 10.5 -4t10.5 -6q5 -5 9.5 -7t9.5 -7q9 -9 15.5 -18.5t14.5 -24.5q2 -7 1 -14.5t4 -15.5q-1 -2 -2 -5t-1 -5q-1 -6 -1 -12t-4 -11q-1 -5 -1 -9t-1 -9q-2 -4 -3.5 -7.5t-3.5 -7.5q-5 -6 -11.5 -12t-12.5 -11q-3 -3 -7 -4.5t-6 -4.5q-1 -4 0 -7q5 -5 11 -6.5t12 -4.5
q6 -2 11 -5t12 -6q3 -4 13 -14l4.5 -9t4.5 -10q2 -6 4 -11.5t4 -11.5v-18q-1 -4 -2.5 -7.5t-1.5 -7.5q-1 -6 -1.5 -11.5t-3.5 -11.5q-2 -2 -1.5 -5.5t-0.5 -6.5q-3 -5 -5.5 -9t-5.5 -9q-3 -4 -6 -7l-7 -7q-4 -3 -7.5 -6.5l-6.5 -6.5q-2 -5 -2.5 -9t-2.5 -7q-2 -4 -3.5 -7.5
t-3.5 -6.5q7 -15 -1 -29v-45q-2 -5 -3 -8t-3 -7v-50q-2 -4 -2.5 -6.5t-2.5 -4.5v-46q2 -5 4 -9.5t1 -9.5t1 -10l4 -10v-57q-2 -4 -4 -10q0 -2 -0.5 -4t-0.5 -4v-24q0 -3 -4 -3l-2 2q-4 3 -4 9v38q1 2 2 5t3 7v40q-2 5 -3.5 10.5t-3.5 10.5q-3 4 -6.5 7.5t-9.5 3.5
q-3 -3 -4.5 -6.5t-4.5 -6.5v-104q-1 -5 -2 -8l-2 -6q-2 -3 -1.5 -6.5t-1.5 -6.5q-5 2 -7.5 4.5t-5.5 7.5q-2 6 -1 13t0 13q2 4 3 7t2 7v44q-1 5 -5 15q2 3 2.5 6t2.5 8v51q3 5 5.5 10.5t5.5 12.5v40q2 3 2.5 5.5t2.5 5.5q1 16 0.5 32t-0.5 33v5q-4 5 -4.5 11t-2.5 11
q-4 3 -7.5 3t-7.5 -1q-2 -1 -3.5 -2t-3.5 -2q-2 -6 -4 -11.5t-4 -12.5v-76zM130 208q-3 -6 -3.5 -15.5t1.5 -34.5q1 -3 2 -5l2 -4q1 -12 0 -23.5t1 -22.5q2 -2 4 -3.5t4 -3.5q16 -2 28 0q4 2 7 3t5 2q13 -4 17 -4.5t15 0.5q11 5 22.5 10.5t22.5 11.5l10.5 10.5t10.5 12.5
q1 15 0 28q-2 4 -3 5q-3 4 -6 7l-5 5q-11 4 -19.5 7t-18.5 2q-3 0 -6 1.5l-7 3.5h-54q-5 2 -8.5 3t-6.5 2q-10 2 -15 2zM201 274h27q4 0 7 0.5t7 2.5q6 5 12.5 11.5l12.5 12.5q2 5 3.5 8.5t3.5 6.5v21q-2 2 -2.5 5t-1.5 5q-2 3 -2 6.5t-4 6.5q-5 3 -10 6.5t-11 7.5h-10h-12
q-3 -2 -5.5 -2.5t-5.5 -2.5h-31h-23q-8 0 -13 -10q-1 -13 0 -26.5t-1 -26.5q-2 -6 -3 -8q-2 -5 1 -7q4 -4 6 -5q6 -2 12 -1.5t11 -2.5t11.5 -2.5t11.5 -1.5q2 0 4 -1t5 -3zM314 -443l-2 2q-3 7 -6 18v83q0 3 2 7q0 1 2 1q4 2 4 -2q2 -2 2 -4v-103z" />
    <glyph glyph-name="C" unicode="C" horiz-adv-x="405" 
d="M352 372h-12t-11 3t-10 2.5t-10 2.5t-10.5 2.5t-11.5 1.5l-9 3h-35q-5 -2 -11 -3.5t-12 -3.5q-15 -4 -27 -11t-24 -15q-5 -3 -6 -6l-15 -21q-2 -3 -3.5 -6t-1.5 -6q-2 -6 -4.5 -11t-2.5 -12q1 -4 -1 -7.5t-4 -8.5v-43v-42q2 -7 5 -12.5t1 -11.5l9.5 -19t10.5 -17
q9 -14 23 -23q8 -5 17 -10t18 -9q5 -2 10 -1.5t9 -4.5q19 -1 37.5 -0.5t36.5 0.5q3 1 6 2.5t7 1.5q6 1 11.5 2.5t10.5 3.5l10 4l10 4q4 2 7 2q6 2 8 -5v-5v-30q-2 -5 -4 -11q-2 -9 -1 -17.5t-1 -16.5q-7 -7 -17 -9q-5 -1 -8.5 -3t-7.5 -4q-5 -5 -6.5 -12.5t-3.5 -15.5
q-2 3 -5 6q-2 2 -4 2t-3 -2q-2 -10 -7.5 -17t-10.5 -15q-1 -2 -2 -3t-2 -3q-1 -5 -1 -9.5v-9.5v-13l-2 -6l-2 -6q4 -10 7 -14q2 -3 3.5 -5.5t3.5 -4.5q0 -2 0.5 -3t-0.5 -3q-2 -5 -4 -11t-1 -12q1 -4 -1 -7.5t-4 -8.5v-29q1 -3 5 -11q0 -8 0.5 -30t0.5 -46.5t-0.5 -45.5
t-0.5 -25l-1 -2l-2 -2q-6 -2 -6 3q-1 5 -1 15v132v25q-4 10 -4.5 14t-1.5 20q-1 2 -2 5t-2 5q0 2 -0.5 4t-0.5 4v110v5t-2 5q-1 2 -4 2q-5 -1 -8 -6q-2 -5 -3.5 -10.5t-3.5 -11.5v-105q-1 -4 -2 -7t-3 -7v-25q1 -2 2 -4.5t3 -6.5q2 -29 0 -58q-5 -9 -10 -9q-2 -1 -4 -0.5
t-4 0.5q3 12 3 21q-1 19 -0.5 37t0.5 37q0 2 -0.5 5t-0.5 5l-3.5 3.5l-3.5 3.5q2 2 5 4t5 4l2 4t1 4v99q0 2 -2 6q-2 5 -6 8t-7 7q-4 2 -7.5 4t-7.5 4q-5 0 -9.5 0.5t-9.5 0.5q-8 5 -17 8l-18 6q-2 2 -5 1.5t-6 0.5q-9 4 -17.5 8t-16.5 11q-5 2 -8.5 5t-7.5 7l-18 18t-18 17
l-14 28l-14 28q-2 5 -1.5 9.5t-2.5 9.5q-3 4 -3 12q2 11 -5 19v61l1 3q1 6 4 11v9.5t1 9.5q2 5 3.5 9.5t1.5 9.5q0 4 3 10q2 5 3.5 10.5t3.5 11.5q2 5 3.5 9.5t5.5 9.5q5 5 7.5 11.5t7.5 14.5q11 11 22 22.5t23 22.5q5 5 10.5 8.5t10.5 7.5q19 12 49 18q5 1 8.5 2.5t8.5 2.5
q11 2 17 5h89q2 -1 5 -2t7 -3h20q8 -4 16 -5.5t15 -9.5q2 -11 1.5 -21.5t-0.5 -21.5q-3 -5 -5 -10q-3 -8 -11 -11q-4 -2 -5 -5zM295 -457q-1 20 -0.5 24t2.5 8q3 -2 2.5 -5.5t0.5 -6.5t2.5 -6t1.5 -6q1 -9 5 -20q2 -5 0 -11q0 -4 -3 -2l-2 1q-3 2 -4 7q-2 4 -2.5 8t-2.5 9z
M296 -382q5 -5 4 -10t-1 -10q-2 -1 -3.5 -1.5t-3.5 -1.5q0 1 -2 3q-3 9 0 18q2 4 6 2zM329 -130q6 -9 -1 -16q-5 10 1 16zM352 372q3 0 3 -3q-2 0 -2 1q-1 0 -1 2z" />
    <glyph glyph-name="D" unicode="D" horiz-adv-x="440" 
d="M269 -79q-8 1 -13 -8v-26q-2 -3 -2.5 -6t-2.5 -7v-34q-2 -2 -2.5 -5t-2.5 -7q-1 -8 -1 -15.5v-15.5q0 -3 -3 -3q-2 0 -3 1q-4 3 -5 7.5t-4 7.5v17v15q-4 8 -5 13v30q1 2 1.5 5t2.5 7v45v3l-2 4l-2 4q0 5 -0.5 11t-0.5 13l-3.5 3.5l-3.5 3.5q-12 3 -25 1q-4 -3 -5.5 -6.5
t-3.5 -8.5v-36q1 -5 3.5 -9.5t0.5 -10.5q0 -2 -2 -4q0 -1 -2 -1q-4 -2 -4 1q-2 9 -4.5 16.5t-4.5 15.5q-4 5 -7.5 9t-8.5 6q-3 0 -6 -1.5t-6 -3.5q0 -2 -1 -3.5t-1 -3.5v-58q2 -3 3 -6t3 -8q-1 -7 -1 -14.5v-15.5l-2 -2q-5 0 -8 8v59v57q-1 7 -3.5 11.5t-1.5 9.5
q0 5 -2.5 9.5t-5.5 9.5q-8 2 -10.5 2t-10.5 -2q-2 -4 -3 -7q0 -5 -1 -8q-2 -6 -4 -10v-52q2 -2 2.5 -4.5t2.5 -6.5v-46q2 -5 5 -10.5t6 -12.5v-50q1 -3 2 -5.5t2 -6.5v-26q-4 -8 -4.5 -17.5t4.5 -19.5q2 -21 0 -44q-2 -2 -2.5 -3t-2.5 -3q-3 -3 -7 -1q-3 3 -3 10v8
q-2 3 -2.5 6t-2.5 8v97q-2 5 -3.5 8.5t-5.5 5.5q-8 -5 -12 -13q-4 -6 -5 -13t-5 -13v-26q1 -2 1.5 -4.5t2.5 -6.5q0 -4 0.5 -7.5t0.5 -7.5q-1 -30 -1 -60.5v-60.5q0 -3 -3 -3q-1 1 -1 2q0 3 -0.5 5.5t-0.5 5.5v36v20q-1 2 -2 5t-3 8v39q-2 4 -2.5 7t-2.5 6v39q1 5 3.5 10
t1.5 11q0 11 5 17q1 19 0.5 37t-0.5 36q-1 4 -2 7t-3 7v50q-2 4 -2.5 6.5t-2.5 5.5v28q-3 10 -7 21q-2 1 -3.5 2.5l-3.5 3.5q-2 6 -1.5 12t-1.5 12t-4 10v25q2 3 2.5 6t2.5 7v45q-1 2 -2 5t-3 7v39l-2 6t-3 7v20v202q-1 8 -0.5 14.5t-3.5 13.5q7 3 13.5 2.5t16.5 2.5
q-2 -1 0 0t5 2h36l6 -2t7 -2h92l9 3q8 3 15 0q5 -2 9 -3t9 -1q7 0 13 -3q5 -2 10 -2t10 -2q7 -3 13.5 -5.5t12.5 -5.5q11 -2 18.5 -8t15.5 -11l12 -8t11 -9q3 -4 6.5 -7t6.5 -6q2 -3 4 -6.5t4 -7.5q7 -9 13 -18t10 -20l6 -14t3 -15q1 -2 0.5 -3t0.5 -2q5 -7 4.5 -14.5
t0.5 -15.5q1 -2 2 -5l2 -6q1 -8 1 -15.5t-5 -15.5v-18q-1 -7 0 -16q0 -4 -2.5 -7t-2.5 -7q-1 -12 -5.5 -22t-6.5 -21q-1 -6 -7 -14q-4 -4 -6 -8.5t-6 -8.5q-3 -4 -5 -8t-5 -8q-4 -5 -8 -8.5t-8 -8.5q-2 -2 -4.5 -3.5t-3.5 -3.5q-5 -9 -8 -16q-1 -4 1.5 -6.5l4.5 -4.5
q3 -1 9 -5t4 -9q0 -2 -1 -3.5t-1 -2.5q-4 -1 -6.5 0t-4.5 2q-10 3 -16 -6l-1 -1v-2v-26q1 -2 1.5 -5t2.5 -7v-24q2 -2 2.5 -5t2.5 -7q0 -9 0.5 -19.5t-0.5 -22.5q0 -3 -2.5 -7t-2.5 -10q-2 -5 -7 -7q-6 1 -7 7q-2 5 -3.5 9t-3.5 11q0 20 0.5 42t-0.5 44q0 11 -1 16q0 2 -3 5
h-18q-3 -2 -7 -6q-1 -2 -1.5 -4.5t-1 -7t0 -12.5t0.5 -22q2 -5 4 -9.5t1 -9.5t1 -9.5t4 -9.5v-44q2 -3 3 -6t3 -7v-34q2 -5 2.5 -8t2.5 -7q0 -17 0.5 -33.5t-1.5 -34.5q-4 -2 -7 -3l-3.5 3.5t-2.5 3.5q-1 1 -1 2v1q0 1 -0.5 1.5t-0.5 1.5v5v136q-2 6 -4 11.5t-2 12.5
q0 5 -7 9zM119 274v-129q-2 -4 -2.5 -7.5t-2.5 -6.5q0 -11 -0.5 -21t1.5 -20q1 -3 5 -7q5 -2 10.5 -3.5t10.5 -3.5h20q4 1 6.5 2t5.5 2h41q4 3 7 5.5t6 4.5q10 4 14 7l16 10t15 13q9 10 18 18q7 12 10 24.5t8 23.5v62q-2 4 -4 12q-1 7 -1 13.5v12.5q-5 10 -10.5 18t-10.5 16
q-4 1 -7.5 2t-7.5 2q-9 9 -13 12q-3 2 -6 2t-5 1q-3 2 -6.5 4.5t-6.5 4.5h-6.5t-6.5 1l-8 2t-9 3h-33q-5 2 -8.5 3.5t-8.5 1.5h-13q-8 -1 -12 -10q-1 -16 -0.5 -32t-0.5 -32q-2 -3 -2.5 -5.5t-2.5 -5.5zM248 -386q-6 3 -8 8.5t-5 10.5q0 18 -0.5 36.5t-0.5 34.5t0.5 28.5
t1.5 17.5q0 1 2 1q2 -3 1.5 -7t0.5 -8l2 -6t3 -8v-11t1 -13q1 -5 3.5 -10t1.5 -10t0.5 -9t3.5 -9q2 -18 0 -38q-2 -4 -3 -5t-2 -1.5t-2 -1.5zM192 -185l-7 -7q-2 1 -6 1q-1 4 -1.5 7.5t-1 8.5t0 14t0.5 25q4 7 7 19l2 -1q2 -5 1.5 -10.5t0.5 -11.5q1 -2 2 -5t3 -7v-16.5
t-1 -16.5zM59 -453l-2 2q-2 9 -1.5 18.5t1.5 19.5q1 3 7 3q2 -4 2 -7q1 -5 0.5 -11t-0.5 -11q-1 -8 -7 -14z" />
    <glyph glyph-name="E" unicode="E" horiz-adv-x="412" 
d="M224 274q10 -5 18 -5h58q8 0 13 -1q1 0 1.5 -1t2.5 -2q1 -14 1 -37.5t-1 -38.5q-2 -1 -2.5 -2t-1.5 -1q-5 0 -8.5 -0.5t-7.5 -0.5h-134h-8t-8 -2q-2 -4 -2 -7q-1 -9 -1 -18v-17q-2 -5 -3 -8.5t-2 -7.5q-2 -13 10 -18q17 -1 33.5 -0.5t34.5 -0.5q2 -1 5 -2t7 -3h23
q2 -1 5 -1.5t5 -1.5t5 -1.5t5 -1.5l9 -12q4 -2 7 -2.5t6 -0.5q5 0 9.5 -1.5t9.5 -3.5h32q7 -1 10.5 -3t7.5 -2t7 -0.5t7 -0.5q2 -2 3.5 -3t3.5 -2q4 -9 1 -49q-2 -3 -4.5 -6t-4.5 -7v-15q-1 -2 -0.5 -4t-0.5 -4q-5 -6 -4.5 -12.5t-0.5 -13.5q-2 0 -2 -2q-3 3 -2.5 6t-0.5 6
q-1 1 -0.5 1.5t-0.5 1.5q-3 7 -6 13.5t-7 11.5q-4 6 -9 4q-4 -2 -10 -6q-2 -1 -4 -5q-5 -6 -6 -12.5t-3 -12.5t-5 -12t-2 -13q0 -3 -3 -3q-2 4 -1.5 8.5t-0.5 9.5q-2 4 -3.5 8t-1.5 9q-1 5 -2.5 9t-2.5 9q-2 5 -4 8t-3 7q-9 4 -17 1q-6 -4 -13 -14v-30q-2 -4 -2.5 -7
t-2.5 -6v-78q2 -3 2.5 -5.5t2.5 -5.5v-30q-4 -11 -8 -15q-3 1 -4 3t-3 4q-3 16 4 27v52q-1 2 -2 5t-3 7v43q-1 6 -3 10t-2 8v13q-4 8 -7.5 14.5t-11.5 9.5q-4 1 -7 -1t-6 -3h-40q-5 -2 -6 -4l-2 -4l-6 -15q-4 2 -5 5.5t-4 5.5q-4 2 -6.5 5t-4.5 5q-14 2 -24.5 2.5
t-28.5 -1.5q-9 -3 -9 -12q0 -4 -2 -10q-1 -2 -2 -3t-2 -3q-5 1 -9 1.5t-9 -2.5q-1 -1 -2 0t-3 1q-3 3 -2.5 7t-1.5 8q-1 6 -5 11q-2 3 -4 5.5t-4 4.5q4 14 8.5 26t6.5 26q2 5 4.5 9.5t4.5 9.5q-1 2 -1.5 5.5t-2.5 6.5q1 2 2 4.5t2 5.5v57q-1 2 -1.5 5t-1.5 5q-1 4 1 7t2 8
v180q-1 2 -1.5 5t-2.5 6q-1 25 -1 44t2 32q2 1 3.5 2t3.5 1h15h263h9.5t9.5 -1l3 -3q1 -8 1 -20.5v-26v-26t-1 -19.5q-2 -2 -4 -3h-18q-40 -1 -79 -1h-79q-4 0 -7.5 0.5t-6.5 -1.5q-4 -3 -4 -10q0 -9 -5 -21v-39q0 -2 1 -3.5t2 -3.5q18 -2 36 -0.5t35 -0.5zM63 -191
q-2 8 -2.5 12.5t0.5 20.5q0 2 2 4q2 -8 2.5 -11.5t-0.5 -20.5q0 -2 -1 -2.5t-1 -2.5zM376 -200q-1 -5 -0.5 -8.5t-1.5 -7.5h-2q-1 1 -1 2v25q0 3 3 3l1 -2q0 -3 0.5 -6.5t0.5 -5.5zM48 -305h-2q-3 3 -1 6l1 2q3 3 3 -2q0 -4 -1 -6zM317 -142q-2 -2 -2 -1q-3 0 -1 4l1 1
q2 -1 2 -4zM375 -247l-2 -2q-2 1 -2 4l2 2q2 -1 2 -4z" />
    <glyph glyph-name="F" unicode="F" horiz-adv-x="345" 
d="M75 -101q2 3 2.5 5.5t2.5 6.5v30q-2 5 -4 9t-1 9q0 10 -4 17q-4 6 3 15q1 2 2 3t2 3l-2 2q-9 1 -17.5 1t-16.5 1q-1 2 -2 2.5t-1 1.5q-1 5 -1 13v79q-2 7 -4.5 12.5t-1.5 12.5l-4 6t-4 5q-2 3 -1.5 6.5t-0.5 6.5l-2 6t-2 7l3.5 3.5l3.5 3.5t2 4q1 2 0.5 4t0.5 4
q1 3 2.5 6t1.5 6q1 5 1 9.5v9.5v110q-2 3 -3 6t-2 8v93q0 7 4 9q10 2 20.5 1t21.5 1l6 2l6 2h46q2 -1 5 -1.5t6 -2.5h84q6 2 10 4q6 0 12.5 0.5t13.5 0.5l6 2l6 2q11 0 22 0.5t22 -0.5q2 0 3.5 -1t3.5 -2q0 -8 0.5 -20.5t0.5 -26t-0.5 -26t-0.5 -19.5q-3 -3 -4 -3
q-4 -1 -8 -1h-8h-144h-10.5t-10.5 -1q-2 -2 -4 -3.5t-4 -3.5q-2 -32 0 -60q3 -7 10 -10q11 -2 23.5 -1.5t25.5 0.5h50q12 0 24.5 0.5t24.5 -1.5q2 -1 2.5 -2t1.5 -2v-5v-74q0 -7 -3 -9q-5 -2 -9 0t-9 4q-32 -1 -65 0t-66 -1q1 0 -3 -2q-1 -3 -5 -11q-4 8 -5 12q-7 -1 -7 -5
q-1 -3 -0.5 -5.5t0.5 -4.5q2 -4 5.5 -4t6.5 -2q2 -3 7 -8q3 -2 7 -1.5t8 -1.5q-2 -2 -3.5 -3t-3.5 -3q0 -2 -0.5 -2.5t-0.5 -2.5q-2 -13 3 -20q2 -3 0 -11q-7 -5 -13 -10t-11 -13q0 -8 -0.5 -22.5t-0.5 -30.5t0.5 -31t0.5 -23q2 -5 7 -8q2 -2 6 -4q-2 -2 -3.5 -3t-3.5 -3
q0 -2 -0.5 -3.5t-0.5 -3.5v-79q-1 -8 2 -18q0 -3 -3 -3q-8 -1 -13 7q-2 4 -2 5v56q1 2 2 4.5t2 5.5q2 6 1.5 13t-0.5 14q-2 3 -2.5 5.5t-2.5 4.5v8v13.5t-1 12.5q0 2 -1 3.5t-1 3.5q-8 1 -10 0t-7 -7q-2 -7 -1 -14t-1 -15q-1 -2 -1.5 -4t-2.5 -6q0 -5 -0.5 -10.5t-0.5 -10.5
q-3 -5 -4 -11q0 -2 -0.5 -4t-0.5 -4v-155v-6t-2 -6q-1 -2 -4 -2l-2 2q-1 0 -1 2q-1 3 -1 10v136zM77 -312q2 -7 2.5 -11t0.5 -23q-2 -5 -4 -11t-4 -11q-2 -2 -4 -2q-3 -2 -3 3q-2 3 0 7q2 7 3.5 14t3.5 14q3 4 2.5 9.5t2.5 10.5zM79 -269q4 -2 5 -3q1 -5 1.5 -9.5t-1.5 -9.5
q-1 -2 -5 -2q-1 0 -1 0.5t-1 0.5l-1 2q-3 9 0 16q0 2 3 5zM46 -19q2 -6 2 -8t-2 -7q-3 6 -3 8t3 7z" />
    <glyph glyph-name="G" unicode="G" horiz-adv-x="433" 
d="M188 -353q2 -4 2.5 -6.5t2.5 -5.5v-15.5t-1 -15.5q0 -2 -3 -3.5t-5 0.5q-1 0 -1 0.5t-1 0.5q-1 1 -1.5 2t-2.5 3q-2 12 -1 24t-1 26q-1 2 -1.5 4t-2.5 6q-1 12 -0.5 25t0.5 26v52q2 4 2.5 7t2.5 7v23l2 6t3 7v30q2 3 2.5 5.5t2.5 4.5q0 9 0.5 22.5t0.5 27.5t-0.5 27
t-0.5 20q-6 7 -17 3q-8 -9 -9 -19q0 -9 -5 -16q-1 -29 0 -56.5t-1 -55.5q-1 -1 -2 -1q-2 2 -3 5t-3 6q-1 1 -1 2v3v101q1 2 2 5l2 6q1 6 1 13t4 12v13q-2 4 -5.5 4t-5.5 2l-2 2q-1 1 -1 2q-1 2 -1 4t-1 4q-7 12 -11 25t-13 25q-9 5 -17 13l-16 16q-2 2 -3 4q-2 6 -6.5 10.5
t-8.5 9.5q-18 32 -26 61q-5 17 -13 31q-1 17 -0.5 34.5t0.5 34.5q2 6 4 11q1 5 1 10.5v11.5q3 5 4 10.5t2 11.5q3 7 6.5 13t6.5 13q2 5 4.5 9.5t3.5 9.5q0 3 2 5q5 6 8.5 13t9.5 12q7 6 13 12l12 12q3 4 6 7.5t7 5.5q7 4 13 8.5t14 7.5q7 3 13 6.5t13 6.5q7 4 14 5q5 2 9 4
t9 1q4 0 5 1q5 4 11 4h12q2 0 3.5 0.5t3.5 0.5q3 1 5.5 2t5.5 2h77q2 -1 5 -1.5t7 -2.5q2 0 5.5 -0.5t6.5 -0.5h6.5t6.5 -2q6 -3 12 -3q5 0 10 -3q3 -1 6.5 -1.5t6.5 -2.5q6 -1 11 -5l1.5 -3t0.5 -3v-34q-1 -2 -2 -4.5t-2 -6.5q-1 -10 -1 -20.5v-21.5q-5 -6 -10 -5
q-4 2 -7.5 2.5t-7.5 2.5q-14 6 -27 5q-3 2 -5.5 2.5t-4.5 2.5q-8 2 -16 1t-15 4q-12 1 -23.5 0.5t-22.5 0.5q-5 -2 -8.5 -3.5t-7.5 -1.5q-11 0 -20.5 -3.5t-19.5 -7.5q-4 -2 -7 -4t-8 -4l-27 -27q-5 -5 -8 -10.5t-8 -10.5t-7 -11t-4 -13q-2 -5 -3.5 -10t-0.5 -10
q0 -7 -5 -15v-32q1 -2 2 -4.5t2 -5.5q1 -5 1 -10v-10q4 -11 8 -22.5t12 -22.5l28 -28l12 -6t11 -6h3q9 4 21 9h19q3 0 5 -1l8 -4t8 -5q4 -4 8.5 -6t9.5 -4q7 -1 12 0.5t8 9.5v21q-2 4 -6 14q-3 4 -6.5 7.5l-6.5 6.5q-1 7 0 12q2 6 6 11t7 11q2 4 -2 4q-4 2 -7 2h-42
q-3 0 -5.5 0.5t-5.5 0.5q-1 1 -2 1.5t-2 2.5q-2 24 0 49q3 3 4 3q3 1 8 1h23q3 2 5.5 2.5t6.5 2.5h102q4 2 7 3t7 2q3 1 8 -4q1 -7 1.5 -35t0.5 -62.5t-0.5 -67.5t-0.5 -50q0 -5 -1 -8q-8 -5 -17.5 -7.5t-18.5 -6.5h-6q-9 0 -17 -4q-4 -2 -7.5 -2t-7.5 -1q-9 -4 -13 -13
q0 -2 -0.5 -4t-0.5 -4v-17q3 -10 8 -18t8 -17q-1 -2 -1 -3.5t-1 -3.5t-1.5 -4t-1.5 -5v-82q-1 -4 -0.5 -7t-1.5 -6q-2 -4 -5 -2q-1 1 -2 1l-1 2q0 3 -0.5 5.5t-0.5 5.5v55q0 10 -1 14q-3 8 -7 9q-12 5 -18 16v7q5 6 9 12t6 14v26q-2 3 -3 6.5t-3 5.5q-8 5 -16 2
q-1 -1 -2 -1.5t-2 -2.5l-3.5 -7t-1.5 -7q-1 -6 -9 -11q-11 -2 -22 -1t-22 -1q-5 -3 -6 -7t-4 -6v-23q-2 -2 -2.5 -4.5t-2.5 -5.5v-10t-1 -10q0 -3 -1 -5q-4 -8 -4 -12q1 -9 -3 -18q-2 -3 -2 -10q0 -9 -3 -16q-2 -6 -2 -10q0 -10 -4 -17q-1 -2 -1 -5t-1 -6t-1.5 -6t-2.5 -8
v-35q2 -6 4 -11q1 -12 0.5 -24.5t0.5 -26.5v-48z" />
    <glyph glyph-name="H" unicode="H" horiz-adv-x="432" 
d="M58 -146q-2 3 -2.5 5.5t-2.5 6.5v45q-2 3 -2.5 5.5t-2.5 5.5q-1 10 -0.5 20.5t0.5 21.5q2 5 4 11.5t0 13.5q0 2 -1 3.5t-2 3.5q-6 0 -12 0.5t-11 0.5q-6 7 -4.5 13t4.5 13q1 17 0.5 35.5t0.5 36.5v74v73l2 6t3 8v25v147q0 10 1 15q0 1 3 4q7 1 18.5 1h24.5h24.5t18.5 -1
q3 -3 3 -4q1 -1 1 -5v-46q-1 -3 -2 -5.5t-3 -6.5v-86q-2 -5 -3 -9l-2 -8q-2 -13 10 -17h26l6 2l6 2h67q2 -1 5 -1.5t7 -2.5q33 -2 70 0l3.5 3.5t2.5 3.5q2 4 0 7t-3 8v108q-2 3 -2.5 5.5t-2.5 5.5q-2 21 0 43q3 3 5 4h5q34 1 68 0q5 0 7 -1q1 -2 2 -2.5t1 -2.5q1 -5 1 -9v-9
v-79l2 -6t3 -8v-186q2 -3 2.5 -6t2.5 -5q1 -8 0.5 -16.5t-5.5 -15.5q-1 -23 0 -45.5t-1 -44.5q0 -2 -2 -2q-3 -3 -6.5 -2.5t-7.5 -0.5q-5 -1 -8.5 -2t-8.5 -3q-14 0 -29.5 -0.5t-31.5 0.5q-1 2 -2 2.5t-2 2.5q-1 5 -1 10v11q-1 2 -2 4.5t-2 5.5q-1 2 -1 7v110v10.5t-1 10.5
q-1 1 -2 1.5t-2 2.5q-10 2 -18 -1q-1 -2 -3 -4v-17t-1 -16q2 -7 4.5 -12.5t1.5 -11.5q-1 -5 1 -8.5t4 -8.5v-44q2 -5 2.5 -8t2.5 -7v-34q2 -4 3 -6.5t2 -4.5v-3v-65q0 -6 -8 -6q-5 2 -7 5q-1 19 -0.5 37.5t0.5 38.5v75q-3 6 -4 12t-2 11q-2 10 -12 9q-8 -3 -8 -12
q0 -6 -0.5 -12t-0.5 -11q-1 -3 -2 -5.5t-3 -6.5v-34q-2 -5 -4 -13q-1 -8 -1 -16t-1 -16q0 -1 -4 -3h-1q-1 0 -2 1q-2 5 -4 9.5t-4 10.5v29q-1 4 -5 12v31q2 2 2.5 5t2.5 7v41q-2 4 -4 10q-1 8 -1 14.5t-1 13.5q-2 4 -3 5t-2 1.5t-3 2.5h-18q-8 -4 -13 -12q-2 -4 -2 -5v-34
l4 -10t1 -10q-1 -3 -1.5 -4t-5.5 -2q-3 3 -3 7t-1 9l-12 24q-8 9 -20 4q-3 -3 -3 -4q-1 -2 -1 -8v-53q1 -2 2 -5t3 -8v-25q0 -5 -1 -7q-2 -4 -4.5 -7t-4.5 -6q0 -5 -0.5 -9.5t-0.5 -8.5q-3 -3 -5 -4q-4 0 -7.5 -0.5t-7.5 -0.5q-2 -1 -4 -3q-2 -5 0 -9.5t3 -9.5v-24
q-1 -2 -1.5 -5t-2.5 -6q-1 -8 -1 -15.5t5 -15.5q1 -9 0.5 -19t0.5 -19q-5 -6 -6.5 -7t-6.5 -2q-4 6 -3.5 13t-4.5 12v71v14t-1 15q0 5 -1 7q-6 5 -15 3q-1 -2 -2 -2t-2 -2q-2 -3 -3.5 -6.5t-2.5 -7.5l-2 -6t-3 -8v-25q2 -4 4 -10q1 -8 1.5 -30t0.5 -48.5t-0.5 -54
t-0.5 -45.5q-2 -5 -3.5 -10t-3.5 -10q-2 2 -2.5 3.5t-1 5.5t0 12t0.5 23q1 2 2 5t3 7v67zM242 -113q3 -9 5 -11v-10t1 -10l2 -6l2 -6v-31q0 -3 -4 -7q-2 -5 -7 0l-9 15v19v99q1 0 1 1t1 1q2 0 2 -3q1 -5 1 -10.5v-10.5q2 -2 2.5 -5t2.5 -6v-19zM189 7q-2 -6 -7 -9
q-2 -1 -4.5 0t-2.5 3q0 1 -0.5 2t-0.5 3v49l6 12h2q2 -2 2 -5v-5t0.5 -4t0.5 -4q1 -2 1.5 -5t2.5 -5v-5q0 -7 0.5 -14t-0.5 -13z" />
    <glyph glyph-name="I" unicode="I" horiz-adv-x="205" 
d="M28 403q-5 5 -8 7v5q2 2 4 3.5t4 3.5q0 5 0.5 9t0.5 9q2 2 4 3.5t4 3.5q1 3 2 5.5t2 5.5l8 -8q11 -1 23 -0.5t23 -0.5h47q11 -4 22.5 -7.5t20.5 -11.5q-1 -4 -2 -7.5t-2 -7.5t-0.5 -8.5t-2.5 -10.5q-1 -2 -4 -3.5l-7 -3.5q-2 -2 -3 -5t-3 -5q0 -2 -0.5 -3t-0.5 -3v-45
q0 -3 -2 -7q0 -1 -2 -1q-3 -1 -5 1q-2 5 -1.5 9t-0.5 9q0 2 -2 8q-1 1 -2 1q-2 1 -4 -2q-2 -4 -2 -7v-46q-1 -2 -2 -5t-3 -7v-92q-2 -5 -3 -8t-3 -6v-150q-1 -2 -2 -5t-2 -7q-2 -6 -1.5 -12.5t-4.5 -12.5q-1 -16 -0.5 -31.5t0.5 -31.5v-60q1 -7 3.5 -11t1.5 -9q0 -5 2 -9
t3 -9t1.5 -9t1.5 -8q-3 -8 -11 -5q-2 4 -3 8t-3 9q-1 4 -1 7.5t-1 7.5q-1 3 -1.5 6t-2.5 8q0 3 -0.5 7.5t-0.5 9.5v107v18q-2 1 -3 2t-2 1q-3 1 -8 1h-24q-8 2 -13 4.5t-10 2.5q-3 6 -3.5 11.5t-2.5 10.5q-6 11 1 25q1 2 1 2.5t1 2.5v31q-2 3 -2.5 5.5t-2.5 5.5v30
q-2 3 -2.5 5.5t-2.5 6.5v171q-2 3 -2.5 6.5t-2.5 7.5v27q-4 10 -5 14q-1 5 0.5 8l3.5 7v22zM150 215v12q0 2 1 2.5t1 1.5l2 -2v-31q0 -1 -2 -3l-2 2q0 5 -0.5 9t-0.5 9h1z" />
    <glyph glyph-name="J" unicode="J" horiz-adv-x="268" 
d="M106 -51q-2 5 -4.5 9.5t-4.5 9.5q-1 8 -8 20q-5 2 -10.5 2.5t-11.5 2.5q-1 -1 -2 -1t-2 -1q-5 -5 -8 -10.5t-6 -12.5q0 -3 -2 -7h-5q-1 0 -3 4v9.5t-1 9.5q-2 5 -3 9.5t-3 9.5q-3 2 -8 7q-3 10 -1.5 20.5t-3.5 19.5q2 3 2 5t2 5v28q0 6 -0.5 12.5t1.5 13.5q2 -1 4 -1
t4 -1q5 -2 9.5 -4t9.5 -4t9 -2.5t9 -1.5q4 -1 7.5 -2.5t7.5 -1.5q10 -2 15 -4q3 -2 6.5 -2h5.5q5 2 8.5 3.5t6.5 3.5q5 4 9 8t8 10q2 8 1 17.5t0 20.5q1 2 2 4.5t3 6.5v172q2 3 2.5 5.5t2.5 5.5q1 18 0.5 36t-0.5 37q2 5 3.5 9.5t3.5 9.5q2 1 2.5 2t2.5 1h50h12q4 -4 4 -5
q1 -2 1 -7q4 -10 5 -15q1 -6 0.5 -12t-0.5 -12v-20q2 -4 3 -7l2 -6q0 -2 0.5 -4t0.5 -4v-37q-2 -3 -2.5 -6t-2.5 -7q1 -2 2 -4.5t3 -6.5q0 -32 -0.5 -66t0.5 -68q1 -5 5 -13v-29q-2 -5 -3.5 -10.5t-2.5 -11.5q-1 -5 -3 -10l-4 -10t-4.5 -10.5t-5.5 -11.5q-5 -5 -9 -9.5
t-9 -9.5q-2 -13 -6 -25t-10 -25q-1 -5 -1 -10v-10q-2 -3 -2.5 -6t-2.5 -7v-29q-2 -2 -2.5 -5t-2.5 -7v-57q3 -9 3.5 -12t0.5 -11q-2 -6 -7 -7q-5 1 -8 8q-1 19 -0.5 38.5t0.5 39.5v75l-3.5 7t-3.5 6q-4 2 -7 2q-5 1 -9 0.5t-8 -0.5q-7 -2 -14 -11q-2 -4 -3 -8t-3 -8
q-2 -5 -2 -10t-2 -10t-2.5 -9t-2.5 -9q-2 3 -2.5 5.5t-1.5 13.5zM40 -245q-1 11 -1.5 30t-0.5 38.5t0.5 35.5t1.5 22l1 1q2 0 2 -2q0 -6 0.5 -24t0.5 -38t-0.5 -37.5t-0.5 -22.5z" />
    <glyph glyph-name="K" unicode="K" horiz-adv-x="453" 
d="M135 291q3 -7 8 -8q5 1 6.5 5.5t6.5 10.5l36 36l10 10t9 12q1 3 3.5 5.5l4.5 4.5q3 4 6 7t5 8q1 1 1.5 2t1.5 2q13 12 23 28q9 8 15 18t14 20q5 2 9.5 3.5t9.5 3.5q28 1 61.5 0.5t49.5 -1.5l3 -6q-4 -6 -9.5 -11t-7.5 -12q-1 -2 -3 -4l-4 -4l-12 -12t-12 -11
q-3 -6 -6 -11.5t-6 -11.5q-4 -4 -7.5 -8t-7.5 -8q-4 -8 -10 -14l-12 -12q-4 -4 -5 -6q-4 -8 -10 -14l-12 -12q-4 -5 -8 -9.5t-6 -9.5q-1 -2 -7 -8l-7.5 -7.5t-6.5 -7.5q-5 -7 -1 -12q5 -5 11 -3.5t11 -2.5q-2 -5 -4 -9.5t-4 -9.5v-15q3 -10 12 -10q3 2 6 4.5t7 4.5q3 1 4 -3
q-5 -5 -11 -13q-4 -7 -2 -16q1 -1 1.5 -2t1.5 -2q5 -6 10.5 -11.5t9.5 -13.5q1 -2 3.5 -4.5l4.5 -4.5q3 -4 6 -7t5 -8q2 -4 8 -10l9.5 -9.5l9.5 -9.5q6 -12 16.5 -21t19.5 -20l6 -6t5 -8q1 -2 2.5 -4t3.5 -4l9 -9t8 -9q3 -5 6 -12q-6 -2 -7 -2h-69l-6 2l-6 2q-12 1 -23.5 1
h-23.5q-1 0 -1.5 0.5t-1.5 0.5q-1 1 -2 1.5t-2 1.5q-8 13 -17 23q-5 4 -9 8l-8 8t-7.5 8t-5.5 9q-1 4 -7 8q-2 3 -4.5 6t-4.5 7q-1 3 -7 7t-7 7q-5 7 -10.5 12.5t-11.5 10.5q-3 3 -12 1q-1 -2 -2 -3.5t-1 -3.5v-37q-2 -3 -2.5 -6t-2.5 -7v-77q1 -2 2 -5t3 -7v-14q0 -4 2 -10
q3 -6 3 -12v-11q-4 -6 -5.5 -7t-6.5 -2q-3 3 -5 6.5t-4 8.5v45v37q0 5 -0.5 10.5t-3.5 10.5q-1 2 -1 7q0 7 -3 12l-6 10q-1 1 -2 1.5t-2 1.5q-2 1 -4.5 0t-2.5 -3q0 -4 -0.5 -7.5t-0.5 -8.5v-39l-4 -2t-4 -1q-6 -1 -11.5 -1t-11.5 -1q-2 0 -2.5 -1t-2.5 -2q2 -7 4 -17
q1 -4 0.5 -8t-0.5 -7q2 -3 3 -5.5t3 -6.5v-24q1 -3 2 -5.5t2 -5.5q1 -2 1 -7q0 -6 -3 -10q-2 -6 -2 -8q-1 -2 -1 -5t-1 -5q-1 -4 -3 -10q-1 -2 -1.5 -3.5t-1.5 -3.5q-1 -4 -5 -10q-3 -2 -11 -6q-5 2 -8 9v31q2 3 2.5 6t2.5 7v29q4 8 5 11q0 2 0.5 2.5t0.5 2.5q-1 6 -0.5 12
t-1.5 12q-8 6 -11 8q-4 6 -3 11.5t-1 10.5q-2 4 -6.5 4.5t-7.5 2.5q-2 10 -1 19t0 18q-1 5 -3.5 9t-1.5 9q0 7 -5 15v12.5t-1 13.5q-1 5 -3 9.5t-2 10.5q0 5 -3 8.5t-2 8.5t-2 10t-3 10l10 30t11 31v51q-2 2 -2.5 4.5t-2.5 5.5q-1 15 -0.5 30t0.5 30q-1 15 -0.5 29.5
t0.5 28.5q1 6 3 10.5t2 9.5q-1 5 2 9.5t5 9.5q3 0 5 0.5t4 0.5q28 1 57 0q7 0 10 -4q2 -13 1.5 -25.5t-0.5 -26.5v-50v-51zM137 173q2 -7 7 -6q2 1 2.5 2t2.5 3q-6 6 -12 1zM20 96q1 3 2 3q1 1 5 1q3 -4 5.5 -8.5t2.5 -10.5l-3 -3q-2 0 -3 1q-2 2 -3 4q-4 8 -6 13z" />
    <glyph glyph-name="L" unicode="L" horiz-adv-x="353" 
d="M255 -277q-1 3 -2 5.5t-3 6.5v61q-2 6 -3 8q-1 1 -2 7v49q-2 4 -2.5 6.5t-2.5 5.5v35q-2 3 -2.5 5.5t-2.5 6.5v28q-2 7 -4 12t-4 11l-9.5 9.5l-9.5 9.5q-5 2 -9 3.5t-8 3.5q-10 4 -14 6q-5 0 -9.5 0.5t-9.5 -0.5q-3 0 -6 -3q-2 -4 -2 -6v-78q2 -4 3 -7t3 -7v-34
q2 -5 4 -11q0 -2 0.5 -3t0.5 -2v-34q0 -3 -2 -5q-5 -2 -7 1.5t-5 5.5q-2 5 -3.5 10.5t-3.5 12.5v23q-2 3 -2.5 5.5t-2.5 6.5v34q-2 4 -3 7l-2 6q0 2 -0.5 4t-0.5 4v60q0 6 -4 10q-12 2 -24.5 1t-23.5 0q-6 -6 -5 -10q1 -6 4 -11q1 -12 0.5 -24t0.5 -23q-6 -11 -14 -10
l-3.5 3.5l-3.5 3.5q-1 17 0 33t-1 32q-1 2 -2 2.5t-2 2.5q-7 1 -14 1t-15 1q-1 2 -2 3.5t-1 3.5v75q1 2 2 5t3 7v145q2 3 2.5 5.5t2.5 6.5q1 16 0.5 33t-0.5 34v65v68l4 4q3 0 5 0.5t4 0.5h34q2 -2 5 -2.5t6 -2.5h10.5t11.5 -1q1 -2 4 -5q1 -10 0.5 -20t-0.5 -21
q1 -11 0.5 -21t-0.5 -21v-42q2 -2 2.5 -5t2.5 -6q1 -19 0.5 -38t0.5 -39q2 -4 2.5 -7.5t2.5 -8.5q-1 -4 -5 -12q0 -8 -0.5 -15.5t4.5 -15.5q2 -17 1 -35t0 -36q4 -3 6 -7q2 0 3.5 -0.5t2.5 -0.5h72q6 2 10 4h26q2 -1 5 -2t8 -3h19q6 0 12 0.5t12 -0.5q5 0 10.5 0.5
t10.5 -2.5q2 -5 4 -9.5t4 -10.5v-20q2 -2 2.5 -4.5t2.5 -4.5v-3v-24q0 -2 -0.5 -3.5t-0.5 -3.5q-3 -5 -8 -4t-9 -2q-2 -4 -2 -5q-1 -5 -1 -15v-81q2 -4 3 -7t2 -7v-107q2 -3 3 -6t3 -8v-34q1 -3 2 -5.5t2 -5.5q0 -8 0.5 -24t0.5 -34t-0.5 -34.5t-0.5 -25.5l-4 -6t-7 -2
q-4 4 -4 10v53v24q-2 4 -2.5 6.5t-2.5 6.5v77q-2 3 -2.5 5.5t-2.5 5.5q-1 20 -0.5 41t0.5 42q-4 8 -5 13v81q-2 3 -2.5 6t-2.5 6q-2 6 -1 12t-1 11l-2 2q-8 4 -11 6q-5 1 -11 -1q-4 -2 -7 -3t-8 -3q0 -2 -1 -3.5t-1 -3.5v-62q4 -11 4.5 -14.5t1.5 -17.5q1 -5 3.5 -9.5
t1.5 -10.5q-1 -5 1 -9.5t4 -9.5v-113q2 -4 2.5 -7t2.5 -7v-55q2 -4 3 -6.5t2 -5.5q0 -8 0.5 -16t-0.5 -16q-4 -8 -12 -13q-5 0 -7 6q-1 3 -1 10q-1 14 -1 27.5v27.5v31z" />
    <glyph glyph-name="M" unicode="M" horiz-adv-x="511" 
d="M482 118q1 -3 2 -5.5t2 -5.5q2 -23 1.5 -50.5t-1.5 -41.5q-2 -1 -3.5 -2t-3.5 -1h-32q-8 0 -15 -3q-2 0 -8 2q-6 -2 -10 -4q-5 2 -9.5 3.5t-9.5 3.5q-2 2 -2 4q0 6 -0.5 12t-0.5 12v99q-1 4 -2 7t-3 7v56q1 2 2 4.5t3 6.5q0 9 0.5 18t-0.5 18q-2 4 -3 4q-1 1 -2.5 0.5
t-2.5 -0.5q-4 -9 -7 -20q-2 -4 -4 -12q-1 -2 -1 -2.5t-1 -2.5q-4 -32 -16 -57q-5 -11 -8 -21t-7 -21l-16 -48q-2 -7 -0.5 -16.5t-0.5 -19.5q-1 -1 -2 -1q-2 2 -2.5 3t-2.5 2l-4 -2q-6 -9 -9 -19q-2 -6 -4 -11.5t-4 -10.5q-6 -2 -12 -1.5t-12 -0.5q-4 -2 -10 -4q-7 -2 -14 -1
t-15 -1q-2 -6 -2 -7q-1 -15 -0.5 -29.5t0.5 -30.5q1 -2 2 -4.5l3 -7.5v-9t-1 -10v-8l-6 -6q-3 -3 -8 0l-6 12q-2 26 0 54l10 10v26q-5 14 -10 29l-10 30q-2 2 -2 5t-2 5q-5 10 -8 20t-7 21q-4 4 -6 5q-2 0 -2.5 -0.5t-2.5 -0.5q-3 -5 -2.5 -11t-4.5 -11q0 -6 -0.5 -12
t-1.5 -13q-2 0 -6 -2q-6 11 -8 22l-4 10t-3 10q0 5 -7 7q-3 -5 -2.5 -9t0.5 -9q-1 -4 -0.5 -7.5t0.5 -7.5q-2 -4 -3 -7l-2 -6q-1 -12 0 -23.5t-1 -23.5l-4 -4q-5 0 -10.5 -0.5t-10.5 -0.5q-19 1 -37 1h-37q-1 1 -2 1q-1 1 -1.5 2t-1.5 2q0 2 -0.5 4t-0.5 4v206q2 2 2.5 5
t2.5 7q1 55 1 109.5v110.5v1q1 1 1 2q4 2 7 2q11 1 22 0.5t21 -0.5q4 -1 6.5 -2t5.5 -2q14 -2 29 -0.5t30 -0.5q6 -7 9 -17q2 -8 5 -16t5 -16q1 -2 1 -3t1 -2q8 -16 13.5 -32.5t10.5 -33.5q10 -30 20 -59.5t19 -59.5q2 -5 4 -15q1 -4 2.5 -7.5t2.5 -7.5q0 -5 1 -9t3 -9
q2 -4 1.5 -8.5t0.5 -9.5q3 -7 7 -14q2 2 4 3t2 3q3 11 7.5 22t5.5 23q5 7 5 14t3 14l4 12t4 13t6 14t5 15q6 9 9 19t8 19q1 2 1.5 5t1.5 5q3 8 6 17t7 17q4 9 7 18t6 19q1 5 3.5 10t1.5 10q0 5 2 9l4 8q3 13 7 23q6 2 8 2h36h53q8 0 12 -1l4 -4q0 -5 0.5 -10.5t0.5 -10.5
v-245v-59zM114 -119q2 -5 3 -8l2 -6l-2 -6t-3 -7v-7q0 -10 -0.5 -19.5t-0.5 -20.5q0 -4 -3 -2q0 1 -0.5 1t-0.5 1v33t-1 33q0 6 0.5 12t0.5 11q0 2 2 2q2 -2 2 -3q1 -4 1 -14zM419 -81q0 -11 -0.5 -22t-0.5 -22l-2 -2q-2 2 -2 3v89q1 0 1 1t1 1q2 0 2 -4v-44h1zM445 -249
q0 -5 -1 -7l-1 -2l-3 3v20l2 2q2 -2 2 -3q1 -3 0.5 -6.5t-0.5 -6.5h1zM161 -52v4q0 2 2 4q3 0 3 -3v-10q-1 -1 -2 -1q0 -1 -2 1q0 2 -0.5 3t-0.5 2z" />
    <glyph glyph-name="N" unicode="N" horiz-adv-x="478" 
d="M361 5v-215q-2 -6 -4 -11q-1 -5 -1 -21q-1 -2 -2 -4.5t-2 -6.5q-1 -5 -1 -9t-1 -9l-3.5 -3.5l-3.5 -3.5q-9 0 -12 9l4 12l4 12t2 12t5 12v171q1 7 5 14v23q-4 9 -7 20l-2 2q-4 1 -7.5 1.5t-8.5 1.5q-5 5 -10 9.5t-8 11.5q-4 6 -7 8q-4 4 -7 8t-8 7q-8 8 -14.5 16.5
t-13.5 18.5q-2 4 -5 8t-7 8l-6 9q-6 8 -11.5 16.5t-13.5 16.5q-5 5 -8.5 11.5t-7.5 12.5q-2 2 -2.5 3t-2.5 3l-4 2l-1 -2q-1 -7 -1 -13.5v-13.5q1 -4 4 -6.5t5 -6.5q3 -5 6 -12q-1 -5 -3.5 -10.5t-1.5 -11.5q1 -5 -1 -8.5t-4 -8.5v-82v-26q0 -4 -3 -4q-1 0 -4 3l-2 2
q-2 3 -1.5 6t0.5 7v92q0 10 -2 15q-2 3 -5.5 3.5t-8.5 3.5l-8 8q-4 7 -2 17q2 3 4.5 6t4.5 6q4 8 6 13v25q-2 5 -6 13q-3 6 -10 11q-4 4 -7 2q-4 0 -8 -3v-13q-1 -3 -1 -11q-2 -3 -4.5 -6t-4.5 -7q-1 -20 -1 -40.5v-40.5v-78l-4 -4q-20 -2 -38.5 -1t-36.5 -1q-10 -4 -10 -12
q0 -5 -1.5 -9.5t-3.5 -9.5v-41q2 -6 4 -11q1 -12 1 -25v-26v-53l2 -6t3 -7v-18q2 -6 4 -11t-3 -13l2 2l-2 -2q-6 -7 -13 0l-1.5 3l-1.5 3q-1 7 -1 15v16q-1 2 -2 5t-3 8v65q-1 3 -5 11q0 11 0.5 15t4.5 15v43q2 3 2.5 6t2.5 7v26l-9 9q-1 8 -1.5 43t-0.5 79t0.5 87.5
t0.5 69.5q1 3 5 13v30v121q0 6 5 9q12 4 27 -4h61q7 -3 10 -7q15 -23 30 -45.5t31 -45.5q11 -17 21.5 -33t21.5 -32q8 -10 13 -26q7 -15 16 -28.5t18 -27.5q4 -6 9 -10.5t11 -9.5h2q2 0 2 2q1 41 0.5 81t0.5 82q-4 6 -7 12.5t-6 13.5q-3 2 -6 4.5t-7 4.5q0 2 -0.5 4t-0.5 4
q0 9 -3 18q-7 12 7 17q4 2 14 6q2 1 5 1.5t5 2.5q3 1 6.5 1.5t5.5 2.5q3 1 6 3t5 4q16 1 41 1t41 -1q2 -2 3 -2q2 -8 1 -14.5t2 -12.5q7 0 7 3q2 3 2 6.5v6.5q2 3 3.5 6t3.5 5q2 -2 3 -4q0 -4 -0.5 -7.5t-2.5 -7.5q-3 -7 -2 -13q2 -4 4 -6q5 -1 9 -1t9 -1q2 -2 4 -3t3 -4
q-12 -8 -13 -13.5t4 -20.5q1 -2 1 -5.5v-6.5q0 -2 -0.5 -5t-0.5 -6q-7 -5 -13 -9.5t-11 -11.5q-2 -3 -3.5 -6.5t-3.5 -8.5v-14v-94q2 -3 2.5 -5.5t2.5 -5.5q0 -5 0.5 -11t0.5 -11q3 -4 10 -6q2 0 2.5 -1.5t-1.5 -3.5t-3 -2.5t-3 -2.5q-1 -1 -2 -1.5t-2 -1.5q-1 -5 2 -10
t2 -10q-1 -2 -1 -5t-1 -5q0 -2 -1 -4l-2 -4q-1 -18 -0.5 -36.5t-0.5 -36.5q8 -14 5 -28q-3 -6 -9 -4l-12 4q-8 1 -17.5 0.5t-18.5 -0.5q-2 -2 -3.5 -2.5t-3.5 -2.5q-1 -1 -1.5 -2t-2.5 -3zM309 319v-119q2 -4 2.5 -7t2.5 -5v-13.5t1 -12.5q6 -14 12 -24q1 -2 2.5 -3t2.5 -2
q11 4 7 15q0 4 -4 10v61q-2 5 -3 8l-2 6v86l-4 10l-4 10h-5q-2 -5 -4 -9.5t-4 -10.5z" />
    <glyph glyph-name="O" unicode="O" horiz-adv-x="485" 
d="M458 194q-1 -4 -3 -10q2 -4 2.5 -7t2.5 -6q-2 -8 -6.5 -15.5t-7.5 -15.5q-1 -8 -0.5 -10.5t4.5 -10.5v-22q-3 -6 -10 -12l-27 -18q-2 -3 -4.5 -6.5t-5.5 -7.5q-5 -6 -11 -11q-5 -5 -8 -7q-8 -4 -11 -7t-5.5 -6t-4.5 -5q-2 -6 -2 -12v-12q2 -6 4 -11.5t4 -10.5
q5 -12 11 -17q-2 -7 -4 -13.5t-4 -13.5q-2 -32 -1 -64.5t-1 -65.5q0 -1 -0.5 -1t-0.5 -1q-4 1 -8 7q-1 15 -0.5 30t0.5 30v28.5t-1 28.5q-3 7 -9 10q-11 5 -16 15v12q2 7 6 12.5t9 12.5v22q-2 4 -3 5q-4 5 -8.5 5t-8.5 -2q-6 -5 -12.5 -9t-13.5 -9q-5 -1 -11 -1h-12h-21
q-2 -2 -3.5 -2.5t-3.5 -2.5q-2 -5 -3.5 -10t-3.5 -12q-1 -3 -1 -8v-10q-1 -2 -1 -3t-1 -2q-3 -8 -3 -16q0 -5 -1.5 -9t-3.5 -9v-12q0 -10 -4 -15q-2 -4 -2 -8v-8t-1.5 -7.5t-2.5 -7.5t-1 -7.5t-2 -7.5q-4 -6 -3 -13q1 -5 -1 -10l-4 -10v-57q2 -3 2.5 -5.5t2.5 -5.5v-103
q2 -3 2.5 -6t2.5 -6q0 -8 0.5 -16.5t-1.5 -16.5q0 -2 -2.5 -3t-4.5 1q-3 2 -5 5t-4 6.5t-4 7.5v73q-2 3 -2.5 5.5t-2.5 5.5q-1 15 -0.5 30.5t0.5 31.5q2 3 2.5 6t2.5 8v34q2 3 2.5 6t2.5 6v24q2 3 2.5 6t2.5 6v34q2 5 3 8t3 6v77q-3 8 -10 11h-12l-2 -2q-2 -6 -5 -12t-3 -13
q2 -11 -5 -19v-114q-5 2 -6.5 6t-3.5 8v108q1 5 3 8.5t2 7.5q0 5 0.5 10.5t3.5 10.5q2 4 1.5 8.5t-1.5 9.5q-2 4 -6 4q-1 1 -2 1q-5 2 -8.5 3.5t-8.5 3.5t-8.5 3.5t-8.5 3.5q-2 1 -4.5 2t-6.5 3q-8 8 -16 16.5t-16 16.5q-9 8 -15.5 17t-13.5 19q-5 6 -8 12.5t-8 11.5
q-5 6 -9 16q-2 5 -4 11t-3 11q0 6 -2.5 11t-2.5 10t-1.5 8.5t-3.5 8.5q0 3 1.5 5.5t2.5 4.5q2 8 -1 15q-1 2 -1.5 4t-1.5 4v36q1 2 1.5 4.5t2.5 6.5q0 5 0.5 10t0.5 11l2 4t2 5q2 9 5.5 18t6.5 19q2 8 6 15.5t9 14.5q11 18 25 30l9.5 9.5t9.5 8.5q15 10 32 19q11 5 22 10.5
t25 9.5h19q2 2 5 2.5t6 2.5h62q2 -1 4.5 -2t6.5 -3h13t15 -1q5 -4 10 -7t12 -4q11 -5 22 -10.5l23 -11.5q11 -11 22 -22.5t22 -22.5q5 -7 8 -14.5t8 -12.5q2 -1 2 -5q2 -7 5 -12.5t6 -11.5q0 -14 5 -23v-67q-2 -5 -3 -8.5t-1.5 -6.5t0 -8t2.5 -13zM351 141q3 5 7 9.5t6 10.5
q2 5 3.5 10.5t3.5 12.5v45q3 6 6 11.5t5 10.5v13q-1 3 -1 6t-1 5q-3 5 -3 9.5t-2 9.5q-2 4 -4.5 7t-4.5 7t-5 7t-5 8q-8 15 -20 20q-9 6 -16 13q-6 6 -9 8q-4 1 -7.5 1t-6.5 1l-6 2t-5 2h-60q-12 -3 -21 -6q-6 -5 -11.5 -9t-10.5 -10q-2 0 -3 -0.5t-2 -0.5h-2
q-9 -5 -12.5 -12t-8.5 -12t-5.5 -11.5t-4.5 -12.5v-30q-2 -3 -2.5 -6t-2.5 -5v-19q1 -5 3 -7.5t1 -6.5q-5 -10 -4 -19.5t0 -17.5q5 -17 11 -30.5t13 -25.5q5 -6 10 -11t13 -7q3 -5 8.5 -7.5t8.5 -7.5q3 -4 7 -5.5t9 -3.5q8 -2 13 -3q6 3 15 3h6.5t6.5 2q2 2 5.5 2t6.5 1
q9 2 17.5 5t16.5 8q15 12 32 15q3 4 5.5 7t4.5 5q1 3 1.5 5t0.5 4z" />
    <glyph glyph-name="P" unicode="P" horiz-adv-x="402" 
d="M56 346q-2 2 -2 3t-1 2q-2 2 -4 2q-1 1 -2 0t-1 -3q0 -5 -1 -8q-2 -8 -4 -13q-1 -12 -1 -25v-26q0 -2 -2 -2q-2 -2 -2 2q-1 5 -1 13v63v17q-3 7 -7 15q-2 3 -5.5 6.5t-6.5 7.5q-2 6 -2 12t-4 11q-1 2 -0.5 4t0.5 4l12 12q4 0 6 -1q5 2 11 4t14 5h86q3 1 5.5 2t4.5 2
q4 1 7 -1t8 -3h80q8 -1 13.5 -4t10.5 -2q2 1 3 0.5t2 -0.5q5 -5 11.5 -4.5t11.5 -1.5q4 -2 12 -4q4 -2 5 -2q5 -3 10.5 -5.5t10.5 -5.5l41 -41l4.5 -9t4.5 -10t4 -11l4 -12v-55q-2 -7 -4.5 -14t-4.5 -15q-2 -3 -3 -6t-3 -6q-11 -18 -25 -30l-12 -12q-13 -7 -25.5 -13
t-25.5 -12q-1 -3 -1.5 -5.5t-1.5 -6.5q-2 -3 -8 -11q-2 -11 -1.5 -21t0.5 -21q2 -3 2.5 -6t2.5 -6v-3v-137l2 -6t3 -8v-44q2 -4 3 -7t3 -8v-60q2 -5 4 -11q0 -3 0.5 -10.5t0.5 -16.5t-0.5 -18t-0.5 -15q-5 -9 -11 -11q-5 0 -6.5 3.5t-2.5 8.5q1 3 5 11v15.5t-5 15.5
q-1 20 -0.5 41t0.5 43q-2 3 -2.5 6t-2.5 7v44q-2 3 -2.5 6t-2.5 7v134q-2 4 -3 7t-3 8v29q-3 6 -5 11.5t-9 8.5q-5 2 -10 1.5t-10 -0.5q-4 0 -6 -1.5t-7 -7.5q-1 -9 -0.5 -18t0.5 -18q2 -4 2.5 -7t2.5 -7v-34q1 -2 2 -5t3 -7v-10t1 -11q2 -6 4 -10q1 -12 0.5 -25t0.5 -27
l2 -6t3 -7v-107l2 -6t3 -7v-54q0 -7 -6 -8q-4 -1 -9 4q0 6 -0.5 12.5t-0.5 13.5l-2 6t-3 7v92q-2 4 -2.5 6.5t-2.5 6.5v55q-2 3 -2.5 6t-2.5 6v45q-2 4 -3 7t-3 7v34l-2 6l-2 6q-1 5 -1 15q-1 2 -1 3t-1 2q-3 5 -6 9.5t-7 9.5q-5 3 -11.5 6t-12.5 6q-2 1 -5 1q-2 1 -5 -1
t-3 -4v-17.5t-1 -16.5q2 -4 3 -7t3 -7v-65q2 -6 4 -10.5t-1 -9.5q-3 -3 -6 -3q-5 -1 -9 -1h-9q-1 0 -4 -3q-2 -5 0 -9.5t4 -10.5q0 -4 -0.5 -9t-0.5 -10q0 -3 -4 -3q-3 0 -4 1q-2 1 -6 5q-4 8 -6 13v8.5t-1 9.5q-2 2 -2.5 3t-2.5 3q-4 2 -7 2q-6 1 -8 -5v-19v-111
q-2 -2 -3 -5t-3 -8v-11q1 -5 0 -8.5t-3 -7.5q-2 -3 -2 -7t-1 -8q-5 -7 -13 -1q-2 5 -1 6l10 30v44q1 3 2 5.5t3 6.5v26q-1 3 -5 11v26q8 14 4 28q-2 3 -4.5 6t-4.5 7v41q-2 4 -3 7t-2 7v106q-2 5 -3 8.5t-3 7.5l2 6t3 7q1 6 1 33t-1 66l-2 6t-3 7v41zM286 279q1 3 1 5.5
t1 4.5q4 6 4.5 12.5t-0.5 13.5l-6 12q-2 2 -4 2.5t-4 2.5q-9 9 -19 10q-3 0 -9 4h-30l-7.5 3t-4.5 2h-38q-2 0 -3.5 -1t-3.5 -2q-2 -11 -1.5 -20.5t-0.5 -19.5q-4 -8 -5 -11v-40q-5 -9 -9 -21q13 -1 25.5 -1h24.5q10 6 23 6q5 4 11 4t11 2l12 6t13 6q4 5 8.5 9.5zM45 199
q-5 6 -4 11t-1 9l3 3q2 -2 2 -4v-19z" />
    <glyph glyph-name="Q" unicode="Q" horiz-adv-x="496" 
d="M54 76q-3 3 -6.5 6t-5.5 5q-3 8 -3 13.5v10.5q2 2 4 5l4 6q-1 1 -1 4q-2 8 -4.5 15t-7.5 14q0 4 -0.5 7t-0.5 7l-9 12q0 7 -0.5 18t-0.5 24v26t1 24q1 6 4 11v24q4 11 6.5 17.5t6 13.5l8.5 17l14 28l34 34q8 8 12 11q5 4 11 7t11 6q8 5 17.5 8.5t18.5 6.5q4 1 14 5h25
q3 2 6 2.5t6 2.5h36q3 -2 5.5 -2.5t5.5 -2.5h34q5 -1 15 -5q14 -4 31 -11q9 -4 16 -9.5t15 -10.5q9 -5 18 -12q6 -5 12 -11.5t12 -12.5q4 -8 9.5 -14t6.5 -15q0 -1 2 -5q7 -12 11.5 -24.5t8.5 -26.5q4 -8 3 -12q-1 -6 1 -11l4 -10v-71q-1 -3 -2.5 -6.5t-1.5 -7.5
q-2 -11 -5.5 -19.5t-5.5 -18.5q-2 -5 -4.5 -9.5t-4.5 -9.5q-2 -6 -6.5 -11t-6.5 -11q-2 -4 -5.5 -7t-6.5 -7q-4 -3 -7 -6.5t-6 -6.5q-5 -5 -15 -10q6 -4 10.5 -3.5t9.5 0.5q2 2 4.5 2.5t5.5 2.5q12 0 24.5 0.5t24.5 -1.5q3 -5 3 -7q1 -9 1 -17.5v-16.5q0 -5 0.5 -9.5
t2.5 -8.5l-2 -2q-2 -1 -6 -1h-51q-4 -2 -7 -2.5t-7 -2.5h-50q-3 2 -6.5 2.5t-6.5 2.5q-8 0 -11 -4t-5 -9q-3 0 -5.5 0.5t-4.5 0.5q-3 -3 -3 -4q-1 -2 -1 -8q1 -5 3.5 -9.5t1.5 -10.5q-1 -8 4 -17q1 -3 1 -8q0 -4 0.5 -8t0.5 -7q1 -3 2 -5.5t2 -5.5v-41q-1 -2 -2 -4.5
l-3 -7.5v-32q-1 -6 -3 -10t-4 -7q-3 3 -3 4v23v94q-2 5 -3.5 8.5t-1.5 7.5q0 6 -2.5 11.5t-5.5 10.5q-4 6 -15 5q-4 -4 -4 -10q0 -7 -1 -10q0 -3 -1 -5.5t-3 -5.5v-35q1 -2 5 -12v-51q2 -2 2.5 -5t2.5 -6q0 -6 0.5 -13t0.5 -14q2 -3 2.5 -5.5t2.5 -5.5v-25q2 -3 2.5 -5.5
t2.5 -6.5v-48v-49q-2 -4 -2.5 -7t-2.5 -7v-56q-2 -5 -4 -8.5t-4 -6.5q-3 -5 -6 -4q-2 1 -5 4q-1 8 -1.5 12.5t-0.5 7.5t1 6.5t3 8.5q2 13 1.5 25.5t-0.5 26.5v49q1 7 3.5 11.5t1.5 9.5q0 10 4 18q4 7 0 20q-4 6 -3.5 12.5t-0.5 13.5v4q-3 5 -4 11l-2 12q-5 6 -4 13t-1 13
q-5 6 -4.5 12.5t-0.5 12.5q-2 4 -4 10q-1 5 -1 10v10q-2 5 -4 9.5t-1 9.5q0 5 -1 7q-1 5 -3 9t-1 9q0 4 -0.5 7.5t-0.5 7.5q-2 4 -3.5 7.5t-5.5 7.5q-9 2 -18.5 1t-20.5 0q-4 2 -7.5 4t-7.5 4q-2 4 -4.5 7t-4.5 8q-4 2 -7.5 4t-8.5 4q-2 0 -4 -0.5t-4 -0.5q-1 -2 -2 -3.5
t-1 -3.5q0 -12 -5 -24q1 -9 5.5 -15.5t9.5 -13.5v-13q0 -11 -9 -14q-4 -2 -6.5 -4.5t-4.5 -7.5q-1 -27 -0.5 -55t-0.5 -55q-3 -8 -8 -8q-2 4 -1.5 7.5t-0.5 7.5q-1 3 -2 6.5t-3 8.5q-1 11 -0.5 23t0.5 24q-1 13 -0.5 25.5t0.5 24.5q-2 6 -4.5 11.5t0.5 13.5q3 6 6.5 13.5
t7.5 15.5v38q-5 5 -10 7t-13 7l-5 5t-6 7q-3 5 -5.5 9.5t-4.5 9.5q-8 4 -15 7t-15 8zM263 84q6 2 10.5 3t9.5 3q4 2 7 5t8 5t8.5 6t8.5 6q9 4 13 13q1 4 8 6q2 1 3.5 1t3.5 1l2 2q7 10 11 21l8 22q1 3 0.5 6.5t1.5 6.5q3 5 3.5 10t1.5 10q2 5 5 11t5 16q1 2 -1.5 6t-4.5 9
v26q-5 5 -5 11t-2 13q-4 5 -9 10t-8 12q0 2 -1.5 3t-3.5 3l-29 29l-4 2l-4 2q-8 3 -16.5 6.5t-18.5 2.5q-5 -1 -8 1.5t-7 2.5l-6 -2t-7 -2h-27q-9 -5 -18 -7t-16 -8q-2 -3 -4 -5.5t-4 -4.5q-4 -2 -8 -2.5t-7 -4.5q-2 -2 -6 -8q-7 -8 -11 -17q-2 -5 -3 -10t-3 -10
q1 -3 1.5 -5.5t1.5 -5.5q-5 -8 -3.5 -16.5t-0.5 -16.5q0 -2 -1 -2q-2 -5 -3 -10t2 -10q5 -7 1 -18q-2 -5 -4 -15q-1 -6 1.5 -10.5t3.5 -9.5q1 -4 1 -7.5v-4.5q4 -14 10.5 -23.5t11.5 -19.5q5 -6 11 -11q6 -2 9 -5q10 -9 18 -10q6 -2 11.5 -4.5t11.5 -2.5q5 0 9 -2t9 -3h23z
" />
    <glyph glyph-name="R" unicode="R" horiz-adv-x="417" 
d="M244 -158q-5 -6 -5 -12.5t-2 -11.5q-5 -3 -9 0l-9 9q0 2 -0.5 4t-0.5 4q-1 5 1 9.5t4 11.5v90q2 4 2.5 6.5t2.5 5.5v51q3 6 5.5 11.5t4.5 10.5v42q-2 5 -5 9t-6 9l-8 10t-10 8q-3 0 -5 -2q-2 -4 -2 -8v-44v-38q-1 -3 -5 -11q-1 -2 -1 -4.5t-3 -4.5q-1 3 -5 9q-3 6 0 12
q1 2 1.5 4t1.5 4v45q2 3 2.5 6t2.5 6q2 14 0 27q-4 10 -13 14h-6q-2 -2 -4.5 -4t-4.5 -5q-3 -6 -6 -12.5t-7 -12.5q0 -11 -1 -16l-2 -6l-2 -6v-26q1 -3 2 -5.5t2 -4.5v-3v-55q0 -2 -3 -3.5t-5 0.5l-2 1q-1 1 -1.5 2t-1.5 2q-2 5 -1.5 10.5t-1.5 10.5q-1 1 -1.5 2t-1.5 2
t-5 3q-5 2 -10 1.5t-10 -0.5q-8 0 -13 -10q-1 -11 -0.5 -23.5t0.5 -24.5v-50q-2 -3 -2.5 -6.5t-2.5 -7.5v-103q-4 -5 -5.5 -11t-7.5 -9q-5 3 -8 8q-1 11 -0.5 21t0.5 19q1 6 3 10t2 9v15q2 3 2.5 5.5t2.5 5.5v21q2 2 2.5 4.5t2.5 5.5q1 15 0.5 30.5t-0.5 31.5l-2 6t-3 8v28
q-2 5 -4 8.5t-4 6.5q-10 2 -13 2.5t-12 -1.5q-1 -2 -2 -2.5t-1 -2.5q0 -4 -0.5 -7.5t-0.5 -7.5v-66v-18q-2 -4 -4.5 -7t-7.5 -2q-4 4 -8 14v42l2 6l2 6v41q-3 5 -4 11v325q1 2 1.5 5t2.5 6q1 14 0.5 29t0.5 30q0 14 -0.5 29t0.5 29q2 1 3.5 2t3.5 1q6 1 12 1h12q2 -2 11 -5
h134q4 -2 7 -2.5t7 -2.5h22q6 -2 11.5 -4.5t11.5 -1.5q5 -2 10 -3.5t10 -3.5q6 -2 11 -5t11 -5q8 -9 17 -18.5t20 -20.5l10 -20q1 -4 1 -7.5t2 -7.5q8 -17 -1 -35q0 -5 -0.5 -10.5t-0.5 -10.5q-1 -2 -2 -5t-2 -5q-1 -5 -1 -17q-3 -5 -6 -11.5t-6 -12.5q-5 -6 -10 -11t-12 -8
q-12 -9 -24 -16t-25 -14q-2 -1 -4 -3l-1 -2q4 -10 6 -14q4 -5 8 -9t8 -9q3 -8 9 -13t11 -11q2 -3 4 -6.5t4 -6.5q4 -5 7.5 -8.5l7.5 -7.5l9 -18q3 -5 8 -9t7 -10q0 -2 2 -4q3 -4 6.5 -7t6.5 -7q3 -3 5 -7t5 -8q6 -5 10 -12t9 -13q0 -1 -1 -2q-2 -2 -4.5 -2h-5.5h-84
q-8 0 -13 -1q-1 0 -1.5 -1t-2.5 -2q-2 -12 -1.5 -23t0.5 -22q2 -7 4 -12t1 -10t1 -9t4 -9v-26q-2 -3 -2.5 -6t-2.5 -7v-33l-2 -6t-3 -7v-125q8 -15 4 -28q0 -2 -2 -2l-2 1q-4 4 -5 7q0 5 -2 9t-3 9v60q2 8 4 12v51q-1 2 -1.5 5t-2.5 7v30l2 6t2 7v55q-2 10 -7.5 16.5
t-9.5 14.5h-6q-2 -5 -4 -9.5t-4 -10.5v-109zM197 247q8 4 14.5 7t13.5 7q4 2 7.5 3.5t7.5 2.5q8 2 12.5 6.5t8.5 11.5q3 6 4.5 12t3.5 12q4 7 0 13q-4 5 -3.5 11t-2.5 11q-7 8 -9 9.5t-9 5.5q-1 1 -4 1q-6 -2 -8 -2q-6 1 -11 4h-80q-2 0 -3.5 -1t-3.5 -2q-2 -9 -1 -17.5
t-1 -16.5q-2 -3 -2.5 -6t-2.5 -6q0 -13 0.5 -25.5t0.5 -24.5q0 -1 0.5 -1.5t0.5 -1.5q6 -6 14.5 -7.5t16.5 -5.5h36zM149 137q-2 4 -3.5 6.5t-3.5 5.5q-1 3 -5 1l-1 -1q-2 -4 -2 -5v-64q1 -5 3 -8.5t2 -7.5q0 -5 -1 -8t-3 -7q-3 -7 0 -13q0 -3 3 -3q2 -2 3.5 0t1.5 4
q1 1 1 5v44q0 2 0.5 4t0.5 4q1 2 1.5 5t2.5 6v32z" />
    <glyph glyph-name="S" unicode="S" horiz-adv-x="369" 
d="M230 -52q-2 12 -1 23t-1 22q-2 1 -3.5 2t-3.5 1h-33q-3 -1 -11 -5h-46q-2 1 -3 1t-3 1q-6 2 -8 2t-7 -6q-1 -2 -1 -5v-45q4 -8 4.5 -16.5t-0.5 -17.5q-2 -2 -6 -8q-4 -2 -7 -4q-2 3 -1.5 6.5t-1.5 6.5l-2 6l-2 6q-1 20 -0.5 39.5t-0.5 39.5q-3 2 -7 4t-7 3t-7 2
q-6 1 -9 -5q-2 -8 -1.5 -17.5t0.5 -18.5q2 -2 2.5 -4.5t2.5 -5.5q1 -11 0.5 -21.5t-0.5 -21.5q-3 -7 -8 -8q-3 4 -2.5 8.5t0.5 8.5q-1 5 -0.5 8.5t0.5 7.5q-4 8 -5 13q-1 14 -0.5 28t-0.5 28q-3 5 -7 7l-8 4q-10 4 -15 14q-1 17 -1 39.5t1 37.5q3 4 9 1q4 -2 7 -3t7 -3
q8 -4 12 3q0 1 0.5 2t0.5 3v41q-2 4 -3 7t-2 7v38q-1 5 -3.5 9t-2.5 9q0 4 1.5 7.5t3.5 8.5q-2 5 -5 11t-5 12q-2 7 -5 12.5t-5 12.5q-1 6 -0.5 12.5t-4.5 11.5q0 5 -0.5 10.5t0.5 10.5q0 4 1.5 7t2.5 6q1 2 0.5 5t0.5 5q1 4 5 12q1 4 3 10q3 6 5.5 12t3.5 12l15 15l15 15
l24 12q5 2 9.5 4t9.5 4q5 1 9 2t9 2l6 2t7 2h73q6 -2 10 -4q6 0 12.5 -0.5t14.5 -0.5l4 -2l4 -2q5 -1 9.5 -0.5t9.5 -1.5q4 -1 7 -2.5t8 -1.5t9.5 -2.5t9.5 -5.5l1.5 -7.5t0.5 -7t-0.5 -11.5t-0.5 -19q-1 -2 -1.5 -4t-2.5 -5q0 -7 -0.5 -14t-1.5 -14l-1 -2q-14 4 -28 8.5
t-30 9.5h-21q-15 6 -22 6t-18 -5h-23q-11 -5 -22.5 -8.5t-20.5 -14.5q-1 -5 -2.5 -10t-3.5 -11q4 -5 7 -10.5t8 -11.5q3 -2 7 -4t8 -3q6 -2 11.5 -4.5t11.5 -2.5q5 1 8 -1t7 -3q3 -1 6.5 -0.5t6.5 -1.5q6 -4 13.5 -3.5t13.5 -4.5q5 -1 9 -1t9 -1l24 -12l16 -8l16 -8
q8 -7 14.5 -14t11.5 -16q8 -8 10 -17.5t7 -18.5v-67q-3 -8 -5.5 -15t-4.5 -15q-5 -14 -11 -21l-6 -9q-8 -14 -22 -21q-2 -1 -3.5 -2t-3.5 -3q0 -2 -1 -5t-1 -5v-53q0 -2 -0.5 -3.5t-0.5 -3.5q-5 2 -7 3t-7 9q0 9 -0.5 18.5t-0.5 19.5q-4 6 -9 4t-10 -3t-10 -3q-8 -4 -11 -7
q-2 -6 -1.5 -12t0.5 -11q1 -3 2 -5.5t3 -5.5v-25q1 -3 2 -5.5t3 -5.5v-21l5 -10v-10.5t1 -11.5q2 -3 2.5 -6t1.5 -5v-4q-2 -5 -3.5 -10t-3.5 -10h-5q-1 2 -2 2.5t-1 2.5q-4 6 -6 10v82l-2 6t-2 5zM130 118q-1 21 -1 42.5v43.5q0 2 -1 3v1q-1 1 -1 2q-5 2 -10 3.5t-10 3.5
q-10 -1 -14 -10q-2 -35 0 -69q2 -3 2.5 -5.5t2.5 -5.5q0 -5 -0.5 -9t0.5 -9q0 -5 -0.5 -10.5t2.5 -10.5q5 -2 10 -3.5t10 -3.5q6 0 9 2t5 6q1 12 0.5 15.5t-4.5 13.5zM182 104q3 -11 6 -19q3 -5 7 -3t8 3t9 3q8 5 12 14q0 18 0.5 37t-1.5 36q-3 8 -8.5 10t-10.5 5
q-3 0 -5.5 0.5t-4.5 0.5q-3 1 -5.5 1.5t-6.5 1.5v-90zM174 82q1 6 1.5 10.5t1 10t0 13.5t-0.5 22q-1 2 -1.5 3.5t-1.5 3.5t-1 4t-1 4q-3 8 -7 15t-12 11q-6 2 -11 -2q-2 -2 -3 -5.5t-3 -6.5v-21q2 -4 2.5 -7t2.5 -6v-40q3 -9 10 -10q6 -1 11.5 -1t12.5 2zM66 -207
q-2 -5 -3 -9.5t-3 -9.5q-2 0 -2 -1l-2 2v82q0 1 2 5q2 2 4 1l2 -1q2 -6 2 -8v-61z" />
    <glyph glyph-name="T" unicode="T" horiz-adv-x="425" 
d="M309 335q-1 5 -3 8.5t-3 5.5q-5 3 -9.5 3h-9.5q-4 -1 -9 -6q-3 -5 -2 -10.5t-1 -11.5q-1 -2 -1.5 -4t-2.5 -5v-123q-4 -10 -5 -15q-1 -4 -5 -12q0 -5 -1 -8q0 -1 1 -2q0 -2 0.5 -2.5t0.5 -2.5q5 -3 11 -4t11 -6l-3 -12v-13q-4 -7 -9.5 -11.5t-9.5 -11.5q-2 -2 -2 -5.5
v-6.5v-58v-6.5t-1 -6.5q-2 -1 -3.5 -2t-3.5 -1q-6 -1 -12 -1h-12q-1 0 -7 -2q-4 -8 -7 -17t0 -20q1 -5 6 -8t8 -9q-1 -4 -2 -7t-2 -7q-1 -5 -1 -14q-1 -2 -2 -4.5t-2 -5.5q-1 -10 -1 -20v-21q2 -3 2.5 -6t2.5 -7v-244q3 -7 5 -13.5t5 -13.5q1 -2 0.5 -5t-0.5 -5q0 -5 -7 -5
q-2 2 -3.5 5l-3.5 7q-1 5 -1 11v12q-2 3 -4 9q0 1 -0.5 1.5t-0.5 1.5v202q-2 3 -2.5 6t-2.5 7v80q-6 14 -10 30q-2 14 -1 28.5t-1 29.5q-4 3 -5.5 3.5t-6.5 -1.5q-3 -2 -3 -9q1 -6 -1 -11l-4 -10v-55q-2 -6 -4 -9q-3 -9 0 -16q3 -5 3.5 -11t0.5 -12q0 -5 1 -7q2 -6 4 -10v-5
q0 -8 0.5 -15t-1.5 -14q-5 -8 -17 -17q-2 -2 -4 0q-3 0 -3 4q1 2 1 2.5t1 2.5q0 2 0.5 3l1.5 3v72q0 4 -1 7t-2 7q1 3 2.5 6.5t-0.5 7.5q-3 2 -6 5t-6 5l-3.5 7t-3.5 8v31q2 6 4 11q0 5 0.5 10.5t0.5 10.5q2 5 4 11q1 5 1 10v11q8 13 4 28l-12 9q-6 11 0 20q4 7 2 18
q-2 3 -4 5.5t-4 5.5q8 4 11 6q1 4 1.5 7t1 7t0 11t-0.5 20q-1 2 -1.5 4t-2.5 6q0 7 -0.5 14.5t-0.5 15.5l-2 6t-2 7q-1 5 -1 11v12q0 9 -9 12q-7 0 -11 -9q-1 -3 -1 -6.5t-1 -6.5q-2 -6 -7 -6l-2 2v26q2 5 4 9t1 9t1 10.5t4 10.5v30q-3 9 -8 14q-4 2 -7.5 2h-8.5
q-8 -2 -12 -10q-1 -15 -0.5 -30.5t-0.5 -31.5q0 -15 0.5 -30t-0.5 -30q-3 -7 -7 -8q-1 -1 -5 -1q-2 2 -3 2.5t-3 2.5q-2 5 -3.5 10t-3.5 11v41q2 6 4 11v11.5t1 13.5l2 6t2 7q1 7 1.5 14.5t-1.5 15.5q-1 2 -4 5q-8 0 -16.5 0.5t-16.5 0.5q-1 2 -2 2.5t-1 2.5q-1 1 -1 5v63
q0 2 0.5 4t0.5 4q6 4 13 3t14 1q2 1 4 1.5t5 2.5h66q5 2 11 4q5 -1 10 -3t11 -1q9 0 17 5h16h192h9t9 -1q2 0 2.5 -1t2.5 -2q1 -12 0.5 -23.5t-0.5 -23.5l-2 -6t-3 -7v-36q-2 -1 -2.5 -2t-2.5 -2q-7 -1 -13.5 -1t-13.5 -1q-4 -3 -5.5 -6.5t-3.5 -7.5q-1 -6 -1 -12.5v-13.5
q-2 -3 -2.5 -6t-2.5 -7v-55q-2 -2 -2.5 -5t-2.5 -8v-12v-69q2 -6 4 -11t1 -11q-1 -5 1 -9t4 -9v-46q-1 -2 -2 -4.5l-3 -7.5v-39q-2 -3 -2.5 -6t-2.5 -6v-17q-1 -17 -0.5 -34t-0.5 -34q0 -2 -2 -8q-2 4 -2 3q0 28 -0.5 55t-0.5 55q-1 3 -3 7q-3 7 0 13q1 2 3 8v33q4 10 5 15
q0 6 -3 11.5t-2 11.5q-2 6 -4 11.5t-4 11.5q-3 2 -9 8q-2 2 -5 0.5t-3 -3.5q-1 -5 -2 -10.5t-4 -10.5v-104q-3 -5 -3 -8q-1 -2 -1.5 -5t-1.5 -5q0 -3 -2 -7q-2 -1 -6 -1l-6 6q-1 4 -1 9v35q2 4 2.5 6.5t2.5 5.5v31q-2 2 -2.5 4.5t-2.5 5.5v21q1 3 5 13v50q2 5 4.5 10.5
t5.5 10.5q1 10 0.5 20.5t0.5 21.5q1 2 2 5t2 7v82zM109 65q-2 -2 -3.5 -3t-3.5 -3q-2 0 -3 0.5t-2 0.5l-2 2q-2 24 -1 47.5t0 46.5q2 4 3 7t3 7v41q0 5 2 7q1 1 2 1q4 2 4 -2q2 -4 2 -7v-136q0 -2 -0.5 -4t-0.5 -5zM351 -115q1 -13 0 -28l-2 -2q-7 9 -7 16l-3 15q-1 1 0.5 2
t2.5 1q4 1 9 -4z" />
    <glyph glyph-name="U" unicode="U" horiz-adv-x="429" 
d="M238 -71q-2 -1 -8 -1l-15 -15q-2 -4 -4 -7.5t-4 -8.5v-103l-2 -6t-3 -7v-20l9 -24q2 -7 -6 -7q-2 -1 -4.5 -0.5t-4.5 0.5q-10 3 -10 12v23q2 4 4 10q0 8 0.5 25.5t0.5 37t-0.5 36.5t-0.5 25q-3 6 -8 9.5t-10 7.5q-2 6 1.5 8.5t5.5 7.5v5q-5 7 -9 13t-9 13q4 8 8 18
q1 10 -6 14q-2 1 -2.5 1.5t-2.5 1.5q-4 2 -8 3t-9 3q-4 2 -7 5t-8 5q-12 5 -20 12q-3 3 -6.5 4t-6.5 3q-10 2 -21 -3q-22 -2 -28.5 -1.5t-12.5 2.5q3 4 7 3t8 1q10 4 15 5q4 1 7 3l6 4v3q-2 5 -5.5 9t-5.5 9q-2 4 -5 7l-7 7q-1 3 -2.5 6t-2.5 6q-2 3 -3 5.5t-3 6.5
q-2 5 -1.5 10.5t-4.5 10.5q0 6 -0.5 11.5t-0.5 10.5q-1 2 -2 5t-2 5q-1 7 -1.5 34.5t0.5 70.5q1 5 3.5 8.5t1.5 8.5q0 5 -1.5 8.5t-3.5 8.5v103q-1 2 -2 5t-2 5q-2 7 -1.5 14t0.5 14l5 5h81q2 0 3 -0.5l3 -1.5q0 -2 1 -3t1 -3q1 -11 1 -20.5v-18.5q1 -3 2 -5.5t2 -5.5v-63
q-2 -6 -4 -10q-1 -13 -0.5 -25.5t0.5 -26.5q-1 -13 -1 -26v-26q4 -8 6 -13v-27q2 -11 6.5 -21t4.5 -21q2 -3 3.5 -6.5t3.5 -8.5q5 -4 9.5 -8.5l9.5 -9.5q5 -2 10.5 -4t10.5 -3q6 -1 11.5 -2.5t12.5 -3.5q2 2 5 2.5t7 2.5q5 0 10 0.5t10 0.5q4 2 7.5 2.5t7.5 2.5q8 2 15 6
t12 11q2 5 5 11l6 12q1 5 1 9t1 9q1 2 1.5 5t2.5 6v182q2 3 2.5 5.5t2.5 5.5q2 23 0.5 45.5t0.5 45.5q2 1 2.5 2t2.5 1q1 1 5 1h84q2 0 3.5 -0.5t3.5 -0.5q1 -2 1.5 -2.5t1.5 -2.5q0 -2 0.5 -4t0.5 -4v-115q0 -2 -0.5 -4t-0.5 -4q-1 -2 -2 -4.5t-3 -6.5v-165q-2 -6 -3.5 -10
t-1.5 -9t-2 -9t-3 -9q-2 -5 -3.5 -9.5t-3.5 -9.5t-5.5 -9t-5.5 -9q-2 -4 -5 -7.5t-5 -7.5t-5 -6.5t-6 -4.5q-7 -2 -11 -7t-9 -9q-18 -8 -31 -16q-2 -2 -3.5 -5t-3.5 -6t-5 -4.5t-8 0.5q-4 2 -5 2q-8 2 -12 -3q-1 -1 -1.5 -2t-2.5 -3q0 -4 -0.5 -8.5t-0.5 -9.5q-2 -1 -3 -2
l-3 -3q-14 -8 -18 -24q1 -2 1.5 -3.5t1.5 -3.5zM238 -71q4 -2 3 -3h-2q0 2 -1 3z" />
    <glyph glyph-name="V" unicode="V" horiz-adv-x="483" 
d="M315 64v-74q2 -3 2.5 -5.5t2.5 -5.5v-47q-2 -2 -2.5 -4.5t-2.5 -5.5v-27q8 -13 4 -27q-1 -1 -2.5 -1.5t-2.5 -1.5q-7 2 -9 8t-5 11q-1 8 -1 16t5 16v18l2 6q8 15 -1 28q0 7 -0.5 14t-0.5 14q-7 7 -17 2q-5 -4 -4.5 -9t-1.5 -10l-4 -10t-4 -12v-19v-118q0 -10 -1 -15
q-2 -3 -5 -3t-3 3q-1 2 -1 8q-1 27 -1 53.5v53.5q4 8 5 13t0.5 9.5t-0.5 10.5q-1 2 -1.5 4.5t-2.5 6.5q0 3 -0.5 7t-0.5 8q-2 5 -3.5 9.5t-3.5 9.5q-6 2 -8 2t-7 -1q-5 -4 -4 -8.5t-2 -8.5q-4 3 -3.5 7t-1.5 8q-2 1 -3 2t-3 1q-3 1 -5.5 0.5t-5.5 -0.5q-3 1 -10 1l-6 6
l-3.5 7t-2.5 7q-2 4 -3 7.5t-3 7.5q-2 5 -3.5 9.5t-3.5 9.5q-3 7 -4.5 14t-6.5 13q-3 5 -3.5 11t-4.5 11q-3 5 -4.5 11t-3.5 11t-5 10.5t-4 11.5q-8 14 -12 29t-11 29q-5 8 -7 17.5t-6 19.5q-3 8 -5.5 16t-4.5 16q-2 2 -2 5t-2 5q-5 9 -8 19t-8 19q-4 9 -6.5 18.5t-5.5 18.5
q-1 2 -1 3t-1 2q-5 11 -8.5 22t-7.5 22q-2 7 -4.5 14t-6.5 13q-2 4 -2 7q-1 5 -3 8t-2 7l1 2q4 1 7.5 2t10.5 1.5t18 0t30 -0.5q2 -2 5 -2.5t7 -2.5h12.5t12.5 -1q7 -4 9 -13q4 -11 7.5 -21t7.5 -20q5 -10 7 -20t7 -20l8 -22l8 -22t7.5 -22t7.5 -22q0 -2 0.5 -3t0.5 -2
q6 -11 9.5 -22t7.5 -22q2 -8 3.5 -15t4.5 -15q0 -2 1 -3q4 -11 14 -6q1 0 5 2q6 0 12 0.5t11 0.5q3 2 7 6q3 12 9 24q3 5 4 11t5 11q3 4 4 9t3 10t4 15q1 4 2.5 7.5t1.5 7.5q0 7 3 12.5t4 12.5q8 22 14.5 43.5t14.5 43.5q2 5 3.5 9.5t3.5 9.5q5 8 6 15q1 5 7 13q4 2 5 2h79
q2 0 3.5 -1t3.5 -2q-2 -10 -5.5 -19t-6.5 -18q-2 -8 -4.5 -15t-6.5 -14q-2 -10 -7 -18.5t-7 -18.5q-8 -14 -12.5 -30t-9.5 -31q-2 -5 -2.5 -9t-1.5 -9l-10 -20l-10 -20q-5 -9 -8.5 -18.5t-7.5 -19.5q0 -6 -2 -8q-7 -12 -10.5 -25t-8.5 -26q1 -3 1.5 -5.5t1.5 -5.5
q-1 -1 -1 -2t-1 -2q-2 -2 -3.5 -4.5t-2.5 -6.5q-3 -10 -6.5 -20t-9.5 -20zM262 -304v65q0 6 0.5 12t0.5 12q0 2 2 2t2 -3q1 -4 1 -11v-97q-3 -6 -4 -12t-3 -13q-2 -2 -5 -1q-1 0 -1 0.5t-1 0.5q0 1 -0.5 1t-0.5 1q0 3 -0.5 6t0.5 5q2 5 3 10.5t2 11.5q1 3 2 5.5t2 4.5z" />
    <glyph glyph-name="W" unicode="W" horiz-adv-x="613" 
d="M460 -5q-8 -2 -17 -1.5t-19 0.5h-32q-8 -3 -11 -11q0 -5 -0.5 -10.5t-0.5 -11.5v-84q0 -7 -1 -10q0 -2 -2 -2h-1q-1 0 -1 1q-4 3 -5.5 7.5t-4.5 9.5v17v81q0 5 -0.5 9.5t-0.5 7.5q-2 5 -9 7q-1 0 -1.5 1t-2.5 2q2 5 4 11t4 13q1 6 1 13.5t-5 15.5q-1 1 -1 5q-1 8 -4 16
t-2 17q-3 6 -3.5 12.5t-3.5 12.5q-2 5 -2 10t-2 10q-3 5 -3.5 10.5t-0.5 10.5q0 3 -1 5q-5 6 -4.5 13.5t-3.5 13.5q-2 2 -1.5 5t0.5 5q-1 3 -1 6t-1 5q-3 5 -3 10t-1 10q0 3 -1.5 6.5t-3.5 8.5v19q-2 2 -2.5 5t-2.5 6v16t-1 16q0 5 -6 3q-2 0 -2 -1q-4 -8 -6 -11
q-2 -5 -1 -10.5t-2 -10.5t-3 -10t-2 -10q-4 -9 -4 -21q1 -5 -3 -15q-2 -7 -3 -14t-4 -14q1 -8 -3 -14t-3 -14q-2 -7 -4.5 -13.5t-5.5 -14.5v-86q-1 -4 -5 -12v-15q0 -6 -1 -8q-5 -7 -4 -14t-1 -15q-1 -5 -3.5 -9.5t-1.5 -9.5q1 -6 -2 -13q-3 -6 -3 -13q0 -4 -0.5 -7.5
t-2.5 -7.5q-2 -6 -2 -10q0 -10 -4 -18q-1 -2 -1 -5t-1 -5q-1 -3 -1.5 -6t-2.5 -8q0 -4 -0.5 -9t-0.5 -10l-2 -6t-3 -7v-25q2 -3 3 -5.5t2 -6.5v-24q2 -3 2.5 -5.5t2.5 -6.5v-98q3 -5 5 -10q1 -3 1 -6.5v-6.5v-9q-3 -8 -7 -9q-5 1 -8 4.5t-6 8.5v42q-2 3 -2.5 5.5t-2.5 5.5
v142q1 2 2 4.5t2 5.5q1 6 1 12.5v13.5q2 3 2.5 6t2.5 7v29q2 3 2.5 6t2.5 6q0 8 0.5 17t-0.5 19q0 5 0.5 11t-1.5 12q-4 2 -5 2q-6 2 -12.5 1.5t-13.5 -0.5l-4 -4q-1 -8 -0.5 -16t0.5 -16q2 -6 4 -10q0 -2 0.5 -3.5t0.5 -3.5v-46q-3 -8 -8 -9q-3 2 -4 6t-4 7v74v7.5t-1 8.5
q0 1 -1 1.5t-2 2.5q-5 1 -9 1t-9 1q-8 4 -9 9q-2 7 -4 13.5t-4 13.5q-5 15 -10 25q-2 2 -2.5 5.5t-1.5 6.5q-3 10 -7 19.5t-7 19.5q-2 7 -5 13.5t-2 14.5v3q-2 5 -4 10.5t-4 11.5q-2 5 -2.5 10t-2.5 10q-3 5 -4.5 11t-3.5 11q0 4 -1 5q-8 16 -13 32.5t-11 33.5q-2 6 -4 12.5
t-4 12.5q-1 2 -1.5 3.5t-1.5 3.5q-5 20 -8 29.5t-11 27.5q-1 2 -1 5t-2 5q-4 11 -7 21t-7 21q-1 2 -0.5 3.5t0.5 3.5q4 7 12 14q2 0 3 0.5t2 0.5h66q2 0 3 -0.5t2 -0.5q3 0 6.5 -3t3.5 -5q0 -8 2.5 -15.5t5.5 -14.5q8 -22 14.5 -43.5t14.5 -43.5q0 -5 2 -8.5t4 -8.5
q2 -4 3 -8t3 -9q3 -7 5 -18l2 -6l2 -6q0 -5 0.5 -10.5t0.5 -10.5l3.5 -7l3.5 -7q4 -5 8 -9t9 -7q2 1 3 1t2 1q2 2 3.5 5l3.5 7v35q2 4 3 7l2 6l2 10t3 10t2 10t3 10q0 9 3.5 17t3.5 16q4 7 4.5 15t3.5 15q3 5 3 11.5t4 11.5v8t1 9q3 7 9 18q0 4 0.5 7.5t1.5 8.5l3.5 3.5
l3.5 3.5h17.5t16.5 1q3 1 5.5 2t4.5 2q6 1 24.5 0.5t30.5 -1.5q7 -3 8 -10q0 -8 5 -20q2 -5 2 -9t2 -9q2 -6 2.5 -12.5t4.5 -12.5q-1 -6 1 -11.5t4 -10.5q2 -6 4 -11.5t2 -11.5q0 -5 2.5 -10t2.5 -10q1 -7 3.5 -12.5t2.5 -12.5q5 -8 8.5 -16t9.5 -16q8 -10 8 -22q0 -1 2 -5
q5 0 7 6q2 8 4.5 15t5.5 15l6 18t6 19q2 5 3.5 10.5t2.5 12.5q1 5 3 10.5t4 11.5q2 8 5 15t4 15q0 3 1.5 6t2.5 6q4 14 8.5 27.5t9.5 27.5l1 1q12 2 40.5 2.5t62.5 -0.5q3 0 7 -2q0 -2 1 -3t0 -2q-7 -20 -13.5 -39.5t-12.5 -39.5q-4 -5 -4 -11t-2 -12q-2 -7 -4.5 -14
t-5.5 -15q-4 -12 -7.5 -24t-7.5 -23q-3 -8 -5.5 -15t-5.5 -14q-5 -9 -7.5 -18.5t-5.5 -18.5q-5 -14 -9.5 -28.5t-9.5 -28.5q-2 -5 -4 -15q-1 -5 -5 -15q-3 -11 -8 -25q-3 -11 -8 -25l-4 -12l-4 -12q-2 -7 -4 -13l-4 -12q-2 -8 -9 -14z" />
    <glyph glyph-name="X" unicode="X" horiz-adv-x="481" 
d="M251 46v-17q-1 -4 -2 -7t-3 -7v-57q0 -4 -1 -5q-1 -2 -1.5 -5t-2.5 -6v-204q1 -2 2 -4.5t2 -4.5q2 -23 1.5 -31t-3.5 -15q-2 2 -2 4.5t-1 4.5q-2 4 -4 10v28q-2 4 -3 7t-3 7v55q-1 2 -2 5t-3 8v22v231v12t-1 12q0 2 -2 4q-1 1 -5 1q-1 -1 -2 -1.5t-2 -1.5l-4 -4
q-3 -5 -6.5 -9.5t-6.5 -9.5q-4 -6 -6.5 -12t-6.5 -13v-37q-2 -3 -2.5 -5.5t-2.5 -5.5v-40q-2 -2 -2.5 -5t-2.5 -6q-1 -2 -1 -4.5t-3 -4.5l-1 2v53q7 15 3 28q0 1 -2.5 2t-3.5 0q-2 -2 -3.5 -2.5t-2.5 -2.5q-6 -13 -20 -23q-4 -2 -6 -2h-50q-2 2 -4.5 2.5t-5.5 2.5
q-14 1 -28 0t-28 1q2 5 3 9t4 7q7 7 11.5 14.5t10.5 14.5q2 2 2.5 4.5t2.5 4.5q5 5 8 9.5t6 9.5q5 6 9 13t10 12q4 3 5 7.5t5 7.5q8 7 11 15q1 1 1.5 2t1.5 2q5 5 8.5 10.5t7.5 10.5t8 9t6 10q8 8 14 17l12 18q1 2 2.5 4t3.5 4q3 3 7 9q2 2 2.5 5t2.5 6q-2 5 -3.5 10t-5.5 9
q-7 7 -11.5 14.5t-10.5 14.5q-5 8 -9.5 15.5t-11.5 14.5q-5 5 -8 10.5t-7 11.5q-5 9 -11 17t-11 18q-1 1 -1.5 2t-2.5 2q-10 10 -16.5 21.5t-14.5 22.5q-6 8 -10.5 15.5t-9.5 15.5q1 0 1 0.5t1 0.5q6 1 20.5 1h31h31t20.5 -1q8 -11 15.5 -22t13.5 -24q4 -7 8.5 -13t7.5 -13
q4 -8 7.5 -14.5t7.5 -14.5q3 -5 6 -11t7 -11l4.5 -4.5l4.5 -4.5q7 -7 14 -19q4 -5 10 -4q3 2 9 8q3 5 6 9.5t8 9.5l6 8t6 9q4 6 7.5 12.5t7.5 11.5q11 14 17 29q3 8 7.5 13.5t8.5 11.5l15 24q0 1 3 4q7 0 18 0.5t23.5 0.5h24.5t21 -1q6 -2 7 -7q-2 -5 -7 -9t-7 -9t-6 -9
t-8 -9q-5 -13 -14 -24.5t-17 -25.5q-8 -8 -14 -18t-13 -20t-13 -19.5t-13 -19.5q-4 -5 -6.5 -9.5t-6.5 -9.5q-8 -11 -15 -18v-9q4 -5 8 -9t7 -9q2 -5 5.5 -8.5t7.5 -8.5q3 -3 4.5 -7.5t5.5 -7.5t6.5 -6.5t4.5 -7.5q1 -4 7 -8q4 -4 7 -7.5t5 -5.5q4 -6 5 -7q6 -15 15.5 -28.5
t17.5 -27.5q2 -3 5 -5.5t5 -6.5q5 -9 12 -16.5t12 -17.5q4 -3 6 -7l4 -8q3 -3 5.5 -6t5.5 -6q-2 -1 -2.5 -2t-1.5 -1h-25.5t-25.5 -1q-2 -1 -5 -2t-8 -3h-25q-5 0 -11 0.5t-12 -2.5q-4 -5 -5 -11q-3 2 -4.5 5l-3.5 7q0 5 -0.5 11t-0.5 12q-1 2 -2 3t-2 3q-5 7 -9.5 14.5
t-11.5 12.5q-5 8 -10 15t-10 15q-2 3 -3 6t-4 6q-2 2 -5.5 2t-5.5 -2t-2.5 -3.5t-2.5 -3.5q-8 -14 -16 -39z" />
    <glyph glyph-name="Y" unicode="Y" horiz-adv-x="423" 
d="M8 459q7 1 20 1.5t27 0.5t27.5 -0.5t22.5 -0.5q4 -2 5 -3q5 -7 9.5 -14t8.5 -15q4 -7 7 -14t9 -13q5 -12 12.5 -22.5t12.5 -22.5q5 -9 10 -16q3 -3 5 -7t4 -9q7 -14 13.5 -28t14.5 -28q5 1 7.5 4t4.5 6q5 8 10 19l8 16t10 15q2 5 6 8.5t7 8.5q5 6 8 13.5t8 13.5
q3 2 4.5 6t3.5 7q7 14 13 27t13 27q2 4 4 7t4 7q6 2 8 2h44q4 0 8 1t10 2q2 -1 10 -3q7 0 10 -2q0 -2 1 -3t0 -2q-6 -13 -13 -26q-3 -7 -7.5 -13t-8.5 -13q-1 -2 -2 -2.5t-2 -1.5q-3 -7 -6.5 -13t-6.5 -13t-8 -12t-7 -12q0 -8 -0.5 -15t-0.5 -14q-2 -4 -3.5 -7.5t-3.5 -7.5
q-3 -2 -5.5 -5t-5.5 -6l-9.5 -9.5t-8.5 -9.5q-5 -5 -8 -10.5t-7 -11.5q-1 -4 -1 -8t-1 -9q-1 -2 -2 -5l-2 -6v-40q-2 -3 -2.5 -5.5t-2.5 -5.5q-1 -10 -1 -19.5v-19.5v-39q2 -3 2.5 -6t2.5 -8v-22q4 -8 5 -12q1 -7 0 -13q-3 -6 -8 -6q-2 3 -6 11q-1 5 -1 9t-1 9q-1 2 -1.5 5
t-2.5 5v13t-1 13q0 3 -4 7q-1 1 -2 1q-3 0 -3 -3q-1 -2 -1 -8v-62q0 -1 3 -3.5t1 -6.5l-2 -2q-5 -2 -10 -3.5t-10 -3.5q-4 2 -7.5 2.5t-7.5 2.5l-2 -4t-1 -4q-1 -8 -0.5 -16t0.5 -16q-3 -5 -6 -13v-155q-2 -4 -2.5 -7t-2.5 -7v-59q-2 -5 -3.5 -10t-3.5 -10h-2q-2 4 -6 10
q-2 5 0 9l4 8v7v76v22q2 4 3 6.5t2 5.5v57q-2 6 -4 11q-2 20 -0.5 40t-0.5 41q-2 1 -3.5 2t-3.5 1h-32q-3 0 -6.5 0.5t-6.5 0.5q-1 0 -5 4v20v142q0 5 -0.5 10.5t-0.5 10.5q0 4 -7 5q-3 -2 -4 -6t-6 -6q-4 5 -4.5 9.5t-4.5 9.5v36q-2 5 -4 8.5t-4 8.5q-5 3 -7 9t-7 9
q-6 0 -8 -4t-5 -6q-2 -18 -2 -47t1 -87q1 -2 2 -5t3 -7v-28q0 -1 -2 -5q-2 -6 -7 -5q-2 3 -1.5 7t-0.5 8l-2 6t-3 8v25q-2 3 -2.5 6t-2.5 7v23q-2 4 -3 6.5t-2 6.5v24q-2 3 -3 5.5t-2 5.5q-1 6 -1 12.5v13.5q-2 3 -2.5 6t-2.5 7v23l-2 6t-3 7v25q2 5 4.5 10.5t5.5 11.5
q0 5 -1 7q-10 13 -15 25q-2 5 -5.5 8.5t-5.5 8.5q-5 6 -9 13t-7 14q-5 8 -9 16t-10 16q-3 3 3 11zM267 135v-20q0 -5 1 -8q1 -2 4 -2q4 0 4 2q2 8 1.5 16.5t-0.5 16.5q-2 3 -2.5 5.5t-2.5 5.5v12v8q-2 3 -4 3q-1 -1 -2 -1q-1 -2 -1.5 -2.5t-1.5 -2.5q-2 -8 -1.5 -16.5
t5.5 -16.5z" />
    <glyph glyph-name="Z" unicode="Z" horiz-adv-x="413" 
d="M296 291q-1 -1 -3 -1q-2 -2 -3 -4q-7 -14 -15.5 -26t-16.5 -25l-12 -18t-11 -20q-2 -3 -4.5 -6t-4.5 -6q-2 -7 -7.5 -11t-8.5 -10q-2 -6 -6 -10l-9 -9q-3 -6 -6 -12.5t-6 -12.5v-24q0 -3 4 -7q17 -2 33 -1.5t32 0.5h66q17 0 33 0.5t32 -1.5q3 -1 4 -4q1 -2 1 -8v-23
q7 -13 4 -27q-1 -4 -2.5 -8.5t-3.5 -9.5q-4 -2 -5 -2q-6 -1 -12 -1h-11h-119h-22q-5 -2 -8.5 -3t-7.5 -2q-3 -1 -6.5 -0.5t-6.5 0.5q-3 -1 -5 -1.5t-4 -3.5q-1 -8 -1.5 -28t-0.5 -45t0.5 -51.5t0.5 -48.5l2 -6t3 -7q0 -8 0.5 -17t-1.5 -19q-2 -4 -7 -3q-2 5 -4 9.5t-4 10.5
v87q-1 4 -5 12q-1 13 -0.5 26.5t0.5 27.5v26t-1 26l-4 4q-11 1 -21 1h-21q-2 -2 -3.5 -2t-3.5 -2q-7 -3 -13 0q-2 1 -3.5 1.5t-3.5 1.5h-20q-6 -2 -11 -4q-18 -2 -34 1q-1 2 -2 3.5t-1 3.5v54q4 11 10 18.5t11 15.5q5 5 7.5 9.5t6.5 9.5q5 6 8.5 13t9.5 12q5 4 7.5 9.5
t6.5 10.5q3 4 5.5 8.5t5.5 9.5q0 2 0.5 3.5t0.5 3.5v60q-2 3 -2.5 6t-2.5 7v34q-6 12 -6 24q-11 12 -15 19q-2 2 -3 3.5t-3 2.5q-13 8 -23 24q-1 3 -3.5 5.5t-4.5 5.5v13v58q0 6 4 9q8 0 39 0.5t69.5 0.5h77t61.5 -1q8 -2 13 -4h62q2 -2 3.5 -3t2.5 -2q1 0 3 -5
q2 -8 1.5 -16t-0.5 -16q-4 -10 -10 -19t-13 -18q-9 -9 -14 -25l-2 -6t-3 -8v-23q-2 -3 -2.5 -6t-2.5 -6v-11.5t-1 -13.5q-2 -8 -4 -13v-23q-2 -3 -3 -6t-3 -8v-24q-1 -3 -2 -5.5t-3 -5.5v-25q-4 -9 -7 -20q-1 2 -2 2.5t-1 1.5v23q-1 29 -0.5 58t-0.5 58v5t-2 5zM120 240v-20
q0 -4 1 -5q0 -4 3 -4q1 -2 4 1q5 7 9.5 14t10.5 13q8 9 14 23v58q-4 4 -4.5 9t-1.5 10q0 7 -8 10q-1 -1 -2.5 -2t-2.5 -3q-2 -6 -4.5 -12t-2.5 -13q-1 -4 -2.5 -7.5t-2.5 -7.5q-1 -5 -1 -9t-1 -9q0 -2 -4 -10v-24q-2 -4 -2.5 -6.5t-2.5 -5.5z" />
    <glyph glyph-name="bracketleft" unicode="[" 
d="M339 489q19 1 39 0q69 -5 118 -31t86 -63t61 -88.5t28 -120.5v-18q-4 -72 -29 -123.5t-63 -89.5t-89.5 -62.5t-122.5 -28.5h-18q-5 1 -10 1h-10q-14 2 -28 4.5t-28 6.5q-2 1 -0.5 3t3.5 3q19 22 38.5 45t38.5 45q-31 -8 -61 -16.5t-61 -16.5q2 31 5 62l6 62
q-24 -27 -49 -56t-49 -58q-39 38 -65.5 88t-32.5 120q0 11 -0.5 20.5t0.5 19.5q2 32 11 62q12 44 33 78.5t47 61.5q37 36 86.5 60.5t115.5 29.5zM600 278q-20 48 -56 83q-33 33 -82 57t-117 21q-35 -2 -65 -12t-55 -24q-24 -14 -43.5 -32.5t-35.5 -40.5t-28 -49t-18 -59
q-6 -33 -2.5 -68.5t14.5 -65.5q8 8 15.5 17t15.5 18t15.5 18.5t15.5 18.5q47 55 93.5 109.5t93.5 109.5q64 -55 127.5 -109t127.5 -108q1 0 2 -2t1 0q2 35 -3 64.5t-16 53.5zM524 -26q29 23 51 54.5t34 71.5q-15 14 -30 26.5t-30 25.5q-45 39 -90.5 77.5t-90.5 77.5h-2
q-16 -19 -32 -37.5t-32 -38.5q46 -38 91 -76.5t90 -76.5q2 -2 3.5 -3t1.5 -3q-15 -3 -29.5 -7t-29.5 -8q-41 34 -80 68.5t-80 67.5q-33 -40 -66.5 -78.5t-65.5 -77.5q2 -2 3.5 -5t3.5 -5q32 38 64 75.5t64 74.5q3 -3 6.5 -5.5t7.5 -6.5q2 -2 7.5 -6.5t6.5 -6.5q1 -3 0 -8
t-1 -10q-3 -32 -6 -65t-5 -62q53 14 105 29t105 30q-29 -38 -61.5 -74t-61.5 -73q-1 -1 -3 -2t0 -2q48 4 85.5 19.5t66.5 39.5zM66 -173h28v-8h-18v-10h17v-9h-17v-18h-10v45zM143 -195q0 -24 -22 -24q-11 0 -16.5 6.5t-5.5 16.5q0 11 6 17.5t16 6.5q11 0 16.5 -6.5
t5.5 -16.5zM110 -195q0 -16 11 -16t11 16q0 6 -3 10.5t-8 4.5t-8 -4.5t-3 -10.5zM150 -218v45h12l9 -16q2 -4 3.5 -8t3.5 -8h1q-1 5 -1 9.5v9.5v13h9v-45h-11l-9 18q-5 6 -8 16v-20v-14h-9zM205 -181h-12v8h34v-8h-12v-37h-10v37zM271 -201q0 5 -0.5 9.5t-0.5 9.5
q-1 -5 -2 -9t-3 -9l-5 -17h-8l-5 17q-2 5 -2.5 9t-1.5 9q-1 -5 -1 -9.5v-9.5l-1 -17h-9l2 45h14l5 -15q1 -4 1.5 -8t1.5 -8h1q1 4 1.5 8t2.5 8l5 15h13l3 -45h-10zM331 -195q0 -24 -22 -24q-11 0 -16.5 6.5t-5.5 16.5q0 11 6 17.5t16 6.5q11 0 16.5 -6.5t5.5 -16.5z
M298 -195q0 -16 11 -16t11 16q0 6 -3 10.5t-8 4.5t-8 -4.5t-3 -10.5zM338 -218v45h12l9 -16q2 -4 3.5 -8t3.5 -8v19v13h9v-45h-11l-9 18q-5 6 -8 16v-20v-14h-9zM422 -216q-6 -2 -15 -2q-13 0 -19 6t-6 16q0 11 7.5 17.5t18.5 6.5q8 0 12 -2l-2 -9q-2 2 -10 2q-15 0 -15 -14
q0 -15 14 -15h5v10h-7v8h17v-24zM457 -199h-17v-11h19v-8h-29v45h28v-8h-18v-9h17v-9zM466 -173q2 0 5.5 0.5t7.5 0.5q11 0 15 -4q4 -3 4 -9q0 -9 -8 -11v-1q4 -1 6 -8q2 -4 2.5 -7.5t1.5 -5.5h-11q0 2 -3 11q-1 7 -7 7h-3v-18h-10v45zM476 -193h4q8 0 8 7q0 6 -8 6h-4v-13z
M504 -212q0 6 6 6t6 -6q0 -7 -6 -7t-6 7zM556 -217q-4 -2 -11 -2q-12 0 -18 6.5t-6 16.5q0 11 7 17.5t18 6.5q7 0 11 -2l-2 -8q-4 2 -9 2q-14 0 -14 -15t14 -15q7 0 9 1zM602 -195q0 -24 -22 -24q-10 0 -15.5 6.5t-5.5 16.5q0 11 6 17.5t16 6.5q11 0 16 -6.5t5 -16.5z
M570 -195q0 -16 11 -16t11 16q0 6 -3 10.5t-8 4.5t-8 -4.5t-3 -10.5zM647 -201v19q-2 -5 -3 -9t-2 -9l-6 -17h-8l-5 17q-1 5 -2 9t-2 9v-9.5t-1 -9.5v-17h-10l3 45h14l4 -15q2 -4 2.5 -8t1.5 -8l2 8l2 8l5 15h14l2 -45h-10z" />
    <glyph glyph-name="backslash" unicode="\" 
d="M339 489q19 1 39 0q69 -5 118 -31t86 -63t61 -88.5t28 -120.5v-18q-4 -72 -29 -123.5t-63 -89.5t-89.5 -62.5t-122.5 -28.5h-18q-5 1 -10 1h-10q-14 2 -28 4.5t-28 6.5q-2 1 -0.5 3t3.5 3q19 22 38.5 45t38.5 45q-31 -8 -61 -16.5t-61 -16.5q2 31 5 62l6 62
q-24 -27 -49 -56t-49 -58q-39 38 -65.5 88t-32.5 120q0 11 -0.5 20.5t0.5 19.5q2 32 11 62q12 44 33 78.5t47 61.5q37 36 86.5 60.5t115.5 29.5zM600 278q-20 48 -56 83q-33 33 -82 57t-117 21q-35 -2 -65 -12t-55 -24q-24 -14 -43.5 -32.5t-35.5 -40.5t-28 -49t-18 -59
q-6 -33 -2.5 -68.5t14.5 -65.5q8 8 15.5 17t15.5 18t15.5 18.5t15.5 18.5q47 55 93.5 109.5t93.5 109.5q64 -55 127.5 -109t127.5 -108q1 0 2 -2t1 0q2 35 -3 64.5t-16 53.5zM524 -26q29 23 51 54.5t34 71.5q-15 14 -30 26.5t-30 25.5q-45 39 -90.5 77.5t-90.5 77.5h-2
q-16 -19 -32 -37.5t-32 -38.5q46 -38 91 -76.5t90 -76.5q2 -2 3.5 -3t1.5 -3q-15 -3 -29.5 -7t-29.5 -8q-41 34 -80 68.5t-80 67.5q-33 -40 -66.5 -78.5t-65.5 -77.5q2 -2 3.5 -5t3.5 -5q32 38 64 75.5t64 74.5q3 -3 6.5 -5.5t7.5 -6.5q2 -2 7.5 -6.5t6.5 -6.5q1 -3 0 -8
t-1 -10q-3 -32 -6 -65t-5 -62q53 14 105 29t105 30q-29 -38 -61.5 -74t-61.5 -73q-1 -1 -3 -2t0 -2q48 4 85.5 19.5t66.5 39.5zM66 -173h28v-8h-18v-10h17v-9h-17v-18h-10v45zM143 -195q0 -24 -22 -24q-11 0 -16.5 6.5t-5.5 16.5q0 11 6 17.5t16 6.5q11 0 16.5 -6.5
t5.5 -16.5zM110 -195q0 -16 11 -16t11 16q0 6 -3 10.5t-8 4.5t-8 -4.5t-3 -10.5zM150 -218v45h12l9 -16q2 -4 3.5 -8t3.5 -8h1q-1 5 -1 9.5v9.5v13h9v-45h-11l-9 18q-5 6 -8 16v-20v-14h-9zM205 -181h-12v8h34v-8h-12v-37h-10v37zM271 -201q0 5 -0.5 9.5t-0.5 9.5
q-1 -5 -2 -9t-3 -9l-5 -17h-8l-5 17q-2 5 -2.5 9t-1.5 9q-1 -5 -1 -9.5v-9.5l-1 -17h-9l2 45h14l5 -15q1 -4 1.5 -8t1.5 -8h1q1 4 1.5 8t2.5 8l5 15h13l3 -45h-10zM331 -195q0 -24 -22 -24q-11 0 -16.5 6.5t-5.5 16.5q0 11 6 17.5t16 6.5q11 0 16.5 -6.5t5.5 -16.5z
M298 -195q0 -16 11 -16t11 16q0 6 -3 10.5t-8 4.5t-8 -4.5t-3 -10.5zM338 -218v45h12l9 -16q2 -4 3.5 -8t3.5 -8v19v13h9v-45h-11l-9 18q-5 6 -8 16v-20v-14h-9zM422 -216q-6 -2 -15 -2q-13 0 -19 6t-6 16q0 11 7.5 17.5t18.5 6.5q8 0 12 -2l-2 -9q-2 2 -10 2q-15 0 -15 -14
q0 -15 14 -15h5v10h-7v8h17v-24zM457 -199h-17v-11h19v-8h-29v45h28v-8h-18v-9h17v-9zM466 -173q2 0 5.5 0.5t7.5 0.5q11 0 15 -4q4 -3 4 -9q0 -9 -8 -11v-1q4 -1 6 -8q2 -4 2.5 -7.5t1.5 -5.5h-11q0 2 -3 11q-1 7 -7 7h-3v-18h-10v45zM476 -193h4q8 0 8 7q0 6 -8 6h-4v-13z
M504 -212q0 6 6 6t6 -6q0 -7 -6 -7t-6 7zM556 -217q-4 -2 -11 -2q-12 0 -18 6.5t-6 16.5q0 11 7 17.5t18 6.5q7 0 11 -2l-2 -8q-4 2 -9 2q-14 0 -14 -15t14 -15q7 0 9 1zM602 -195q0 -24 -22 -24q-10 0 -15.5 6.5t-5.5 16.5q0 11 6 17.5t16 6.5q11 0 16 -6.5t5 -16.5z
M570 -195q0 -16 11 -16t11 16q0 6 -3 10.5t-8 4.5t-8 -4.5t-3 -10.5zM647 -201v19q-2 -5 -3 -9t-2 -9l-6 -17h-8l-5 17q-1 5 -2 9t-2 9v-9.5t-1 -9.5v-17h-10l3 45h14l4 -15q2 -4 2.5 -8t1.5 -8l2 8l2 8l5 15h14l2 -45h-10z" />
    <glyph glyph-name="bracketright" unicode="]" 
d="M339 489q19 1 39 0q69 -5 118 -31t86 -63t61 -88.5t28 -120.5v-18q-4 -72 -29 -123.5t-63 -89.5t-89.5 -62.5t-122.5 -28.5h-18q-5 1 -10 1h-10q-14 2 -28 4.5t-28 6.5q-2 1 -0.5 3t3.5 3q19 22 38.5 45t38.5 45q-31 -8 -61 -16.5t-61 -16.5q2 31 5 62l6 62
q-24 -27 -49 -56t-49 -58q-39 38 -65.5 88t-32.5 120q0 11 -0.5 20.5t0.5 19.5q2 32 11 62q12 44 33 78.5t47 61.5q37 36 86.5 60.5t115.5 29.5zM600 278q-20 48 -56 83q-33 33 -82 57t-117 21q-35 -2 -65 -12t-55 -24q-24 -14 -43.5 -32.5t-35.5 -40.5t-28 -49t-18 -59
q-6 -33 -2.5 -68.5t14.5 -65.5q8 8 15.5 17t15.5 18t15.5 18.5t15.5 18.5q47 55 93.5 109.5t93.5 109.5q64 -55 127.5 -109t127.5 -108q1 0 2 -2t1 0q2 35 -3 64.5t-16 53.5zM524 -26q29 23 51 54.5t34 71.5q-15 14 -30 26.5t-30 25.5q-45 39 -90.5 77.5t-90.5 77.5h-2
q-16 -19 -32 -37.5t-32 -38.5q46 -38 91 -76.5t90 -76.5q2 -2 3.5 -3t1.5 -3q-15 -3 -29.5 -7t-29.5 -8q-41 34 -80 68.5t-80 67.5q-33 -40 -66.5 -78.5t-65.5 -77.5q2 -2 3.5 -5t3.5 -5q32 38 64 75.5t64 74.5q3 -3 6.5 -5.5t7.5 -6.5q2 -2 7.5 -6.5t6.5 -6.5q1 -3 0 -8
t-1 -10q-3 -32 -6 -65t-5 -62q53 14 105 29t105 30q-29 -38 -61.5 -74t-61.5 -73q-1 -1 -3 -2t0 -2q48 4 85.5 19.5t66.5 39.5zM66 -173h28v-8h-18v-10h17v-9h-17v-18h-10v45zM143 -195q0 -24 -22 -24q-11 0 -16.5 6.5t-5.5 16.5q0 11 6 17.5t16 6.5q11 0 16.5 -6.5
t5.5 -16.5zM110 -195q0 -16 11 -16t11 16q0 6 -3 10.5t-8 4.5t-8 -4.5t-3 -10.5zM150 -218v45h12l9 -16q2 -4 3.5 -8t3.5 -8h1q-1 5 -1 9.5v9.5v13h9v-45h-11l-9 18q-5 6 -8 16v-20v-14h-9zM205 -181h-12v8h34v-8h-12v-37h-10v37zM271 -201q0 5 -0.5 9.5t-0.5 9.5
q-1 -5 -2 -9t-3 -9l-5 -17h-8l-5 17q-2 5 -2.5 9t-1.5 9q-1 -5 -1 -9.5v-9.5l-1 -17h-9l2 45h14l5 -15q1 -4 1.5 -8t1.5 -8h1q1 4 1.5 8t2.5 8l5 15h13l3 -45h-10zM331 -195q0 -24 -22 -24q-11 0 -16.5 6.5t-5.5 16.5q0 11 6 17.5t16 6.5q11 0 16.5 -6.5t5.5 -16.5z
M298 -195q0 -16 11 -16t11 16q0 6 -3 10.5t-8 4.5t-8 -4.5t-3 -10.5zM338 -218v45h12l9 -16q2 -4 3.5 -8t3.5 -8v19v13h9v-45h-11l-9 18q-5 6 -8 16v-20v-14h-9zM422 -216q-6 -2 -15 -2q-13 0 -19 6t-6 16q0 11 7.5 17.5t18.5 6.5q8 0 12 -2l-2 -9q-2 2 -10 2q-15 0 -15 -14
q0 -15 14 -15h5v10h-7v8h17v-24zM457 -199h-17v-11h19v-8h-29v45h28v-8h-18v-9h17v-9zM466 -173q2 0 5.5 0.5t7.5 0.5q11 0 15 -4q4 -3 4 -9q0 -9 -8 -11v-1q4 -1 6 -8q2 -4 2.5 -7.5t1.5 -5.5h-11q0 2 -3 11q-1 7 -7 7h-3v-18h-10v45zM476 -193h4q8 0 8 7q0 6 -8 6h-4v-13z
M504 -212q0 6 6 6t6 -6q0 -7 -6 -7t-6 7zM556 -217q-4 -2 -11 -2q-12 0 -18 6.5t-6 16.5q0 11 7 17.5t18 6.5q7 0 11 -2l-2 -8q-4 2 -9 2q-14 0 -14 -15t14 -15q7 0 9 1zM602 -195q0 -24 -22 -24q-10 0 -15.5 6.5t-5.5 16.5q0 11 6 17.5t16 6.5q11 0 16 -6.5t5 -16.5z
M570 -195q0 -16 11 -16t11 16q0 6 -3 10.5t-8 4.5t-8 -4.5t-3 -10.5zM647 -201v19q-2 -5 -3 -9t-2 -9l-6 -17h-8l-5 17q-1 5 -2 9t-2 9v-9.5t-1 -9.5v-17h-10l3 45h14l4 -15q2 -4 2.5 -8t1.5 -8l2 8l2 8l5 15h14l2 -45h-10z" />
    <glyph glyph-name="asciicircum" unicode="^" 
d="M339 489q19 1 39 0q69 -5 118 -31t86 -63t61 -88.5t28 -120.5v-18q-4 -72 -29 -123.5t-63 -89.5t-89.5 -62.5t-122.5 -28.5h-18q-5 1 -10 1h-10q-14 2 -28 4.5t-28 6.5q-2 1 -0.5 3t3.5 3q19 22 38.5 45t38.5 45q-31 -8 -61 -16.5t-61 -16.5q2 31 5 62l6 62
q-24 -27 -49 -56t-49 -58q-39 38 -65.5 88t-32.5 120q0 11 -0.5 20.5t0.5 19.5q2 32 11 62q12 44 33 78.5t47 61.5q37 36 86.5 60.5t115.5 29.5zM600 278q-20 48 -56 83q-33 33 -82 57t-117 21q-35 -2 -65 -12t-55 -24q-24 -14 -43.5 -32.5t-35.5 -40.5t-28 -49t-18 -59
q-6 -33 -2.5 -68.5t14.5 -65.5q8 8 15.5 17t15.5 18t15.5 18.5t15.5 18.5q47 55 93.5 109.5t93.5 109.5q64 -55 127.5 -109t127.5 -108q1 0 2 -2t1 0q2 35 -3 64.5t-16 53.5zM524 -26q29 23 51 54.5t34 71.5q-15 14 -30 26.5t-30 25.5q-45 39 -90.5 77.5t-90.5 77.5h-2
q-16 -19 -32 -37.5t-32 -38.5q46 -38 91 -76.5t90 -76.5q2 -2 3.5 -3t1.5 -3q-15 -3 -29.5 -7t-29.5 -8q-41 34 -80 68.5t-80 67.5q-33 -40 -66.5 -78.5t-65.5 -77.5q2 -2 3.5 -5t3.5 -5q32 38 64 75.5t64 74.5q3 -3 6.5 -5.5t7.5 -6.5q2 -2 7.5 -6.5t6.5 -6.5q1 -3 0 -8
t-1 -10q-3 -32 -6 -65t-5 -62q53 14 105 29t105 30q-29 -38 -61.5 -74t-61.5 -73q-1 -1 -3 -2t0 -2q48 4 85.5 19.5t66.5 39.5zM66 -173h28v-8h-18v-10h17v-9h-17v-18h-10v45zM143 -195q0 -24 -22 -24q-11 0 -16.5 6.5t-5.5 16.5q0 11 6 17.5t16 6.5q11 0 16.5 -6.5
t5.5 -16.5zM110 -195q0 -16 11 -16t11 16q0 6 -3 10.5t-8 4.5t-8 -4.5t-3 -10.5zM150 -218v45h12l9 -16q2 -4 3.5 -8t3.5 -8h1q-1 5 -1 9.5v9.5v13h9v-45h-11l-9 18q-5 6 -8 16v-20v-14h-9zM205 -181h-12v8h34v-8h-12v-37h-10v37zM271 -201q0 5 -0.5 9.5t-0.5 9.5
q-1 -5 -2 -9t-3 -9l-5 -17h-8l-5 17q-2 5 -2.5 9t-1.5 9q-1 -5 -1 -9.5v-9.5l-1 -17h-9l2 45h14l5 -15q1 -4 1.5 -8t1.5 -8h1q1 4 1.5 8t2.5 8l5 15h13l3 -45h-10zM331 -195q0 -24 -22 -24q-11 0 -16.5 6.5t-5.5 16.5q0 11 6 17.5t16 6.5q11 0 16.5 -6.5t5.5 -16.5z
M298 -195q0 -16 11 -16t11 16q0 6 -3 10.5t-8 4.5t-8 -4.5t-3 -10.5zM338 -218v45h12l9 -16q2 -4 3.5 -8t3.5 -8v19v13h9v-45h-11l-9 18q-5 6 -8 16v-20v-14h-9zM422 -216q-6 -2 -15 -2q-13 0 -19 6t-6 16q0 11 7.5 17.5t18.5 6.5q8 0 12 -2l-2 -9q-2 2 -10 2q-15 0 -15 -14
q0 -15 14 -15h5v10h-7v8h17v-24zM457 -199h-17v-11h19v-8h-29v45h28v-8h-18v-9h17v-9zM466 -173q2 0 5.5 0.5t7.5 0.5q11 0 15 -4q4 -3 4 -9q0 -9 -8 -11v-1q4 -1 6 -8q2 -4 2.5 -7.5t1.5 -5.5h-11q0 2 -3 11q-1 7 -7 7h-3v-18h-10v45zM476 -193h4q8 0 8 7q0 6 -8 6h-4v-13z
M504 -212q0 6 6 6t6 -6q0 -7 -6 -7t-6 7zM556 -217q-4 -2 -11 -2q-12 0 -18 6.5t-6 16.5q0 11 7 17.5t18 6.5q7 0 11 -2l-2 -8q-4 2 -9 2q-14 0 -14 -15t14 -15q7 0 9 1zM602 -195q0 -24 -22 -24q-10 0 -15.5 6.5t-5.5 16.5q0 11 6 17.5t16 6.5q11 0 16 -6.5t5 -16.5z
M570 -195q0 -16 11 -16t11 16q0 6 -3 10.5t-8 4.5t-8 -4.5t-3 -10.5zM647 -201v19q-2 -5 -3 -9t-2 -9l-6 -17h-8l-5 17q-1 5 -2 9t-2 9v-9.5t-1 -9.5v-17h-10l3 45h14l4 -15q2 -4 2.5 -8t1.5 -8l2 8l2 8l5 15h14l2 -45h-10z" />
    <glyph glyph-name="underscore" unicode="_" 
d="M339 489q19 1 39 0q69 -5 118 -31t86 -63t61 -88.5t28 -120.5v-18q-4 -72 -29 -123.5t-63 -89.5t-89.5 -62.5t-122.5 -28.5h-18q-5 1 -10 1h-10q-14 2 -28 4.5t-28 6.5q-2 1 -0.5 3t3.5 3q19 22 38.5 45t38.5 45q-31 -8 -61 -16.5t-61 -16.5q2 31 5 62l6 62
q-24 -27 -49 -56t-49 -58q-39 38 -65.5 88t-32.5 120q0 11 -0.5 20.5t0.5 19.5q2 32 11 62q12 44 33 78.5t47 61.5q37 36 86.5 60.5t115.5 29.5zM600 278q-20 48 -56 83q-33 33 -82 57t-117 21q-35 -2 -65 -12t-55 -24q-24 -14 -43.5 -32.5t-35.5 -40.5t-28 -49t-18 -59
q-6 -33 -2.5 -68.5t14.5 -65.5q8 8 15.5 17t15.5 18t15.5 18.5t15.5 18.5q47 55 93.5 109.5t93.5 109.5q64 -55 127.5 -109t127.5 -108q1 0 2 -2t1 0q2 35 -3 64.5t-16 53.5zM524 -26q29 23 51 54.5t34 71.5q-15 14 -30 26.5t-30 25.5q-45 39 -90.5 77.5t-90.5 77.5h-2
q-16 -19 -32 -37.5t-32 -38.5q46 -38 91 -76.5t90 -76.5q2 -2 3.5 -3t1.5 -3q-15 -3 -29.5 -7t-29.5 -8q-41 34 -80 68.5t-80 67.5q-33 -40 -66.5 -78.5t-65.5 -77.5q2 -2 3.5 -5t3.5 -5q32 38 64 75.5t64 74.5q3 -3 6.5 -5.5t7.5 -6.5q2 -2 7.5 -6.5t6.5 -6.5q1 -3 0 -8
t-1 -10q-3 -32 -6 -65t-5 -62q53 14 105 29t105 30q-29 -38 -61.5 -74t-61.5 -73q-1 -1 -3 -2t0 -2q48 4 85.5 19.5t66.5 39.5zM66 -173h28v-8h-18v-10h17v-9h-17v-18h-10v45zM143 -195q0 -24 -22 -24q-11 0 -16.5 6.5t-5.5 16.5q0 11 6 17.5t16 6.5q11 0 16.5 -6.5
t5.5 -16.5zM110 -195q0 -16 11 -16t11 16q0 6 -3 10.5t-8 4.5t-8 -4.5t-3 -10.5zM150 -218v45h12l9 -16q2 -4 3.5 -8t3.5 -8h1q-1 5 -1 9.5v9.5v13h9v-45h-11l-9 18q-5 6 -8 16v-20v-14h-9zM205 -181h-12v8h34v-8h-12v-37h-10v37zM271 -201q0 5 -0.5 9.5t-0.5 9.5
q-1 -5 -2 -9t-3 -9l-5 -17h-8l-5 17q-2 5 -2.5 9t-1.5 9q-1 -5 -1 -9.5v-9.5l-1 -17h-9l2 45h14l5 -15q1 -4 1.5 -8t1.5 -8h1q1 4 1.5 8t2.5 8l5 15h13l3 -45h-10zM331 -195q0 -24 -22 -24q-11 0 -16.5 6.5t-5.5 16.5q0 11 6 17.5t16 6.5q11 0 16.5 -6.5t5.5 -16.5z
M298 -195q0 -16 11 -16t11 16q0 6 -3 10.5t-8 4.5t-8 -4.5t-3 -10.5zM338 -218v45h12l9 -16q2 -4 3.5 -8t3.5 -8v19v13h9v-45h-11l-9 18q-5 6 -8 16v-20v-14h-9zM422 -216q-6 -2 -15 -2q-13 0 -19 6t-6 16q0 11 7.5 17.5t18.5 6.5q8 0 12 -2l-2 -9q-2 2 -10 2q-15 0 -15 -14
q0 -15 14 -15h5v10h-7v8h17v-24zM457 -199h-17v-11h19v-8h-29v45h28v-8h-18v-9h17v-9zM466 -173q2 0 5.5 0.5t7.5 0.5q11 0 15 -4q4 -3 4 -9q0 -9 -8 -11v-1q4 -1 6 -8q2 -4 2.5 -7.5t1.5 -5.5h-11q0 2 -3 11q-1 7 -7 7h-3v-18h-10v45zM476 -193h4q8 0 8 7q0 6 -8 6h-4v-13z
M504 -212q0 6 6 6t6 -6q0 -7 -6 -7t-6 7zM556 -217q-4 -2 -11 -2q-12 0 -18 6.5t-6 16.5q0 11 7 17.5t18 6.5q7 0 11 -2l-2 -8q-4 2 -9 2q-14 0 -14 -15t14 -15q7 0 9 1zM602 -195q0 -24 -22 -24q-10 0 -15.5 6.5t-5.5 16.5q0 11 6 17.5t16 6.5q11 0 16 -6.5t5 -16.5z
M570 -195q0 -16 11 -16t11 16q0 6 -3 10.5t-8 4.5t-8 -4.5t-3 -10.5zM647 -201v19q-2 -5 -3 -9t-2 -9l-6 -17h-8l-5 17q-1 5 -2 9t-2 9v-9.5t-1 -9.5v-17h-10l3 45h14l4 -15q2 -4 2.5 -8t1.5 -8l2 8l2 8l5 15h14l2 -45h-10z" />
    <glyph glyph-name="grave" unicode="`" 
d="M339 489q19 1 39 0q69 -5 118 -31t86 -63t61 -88.5t28 -120.5v-18q-4 -72 -29 -123.5t-63 -89.5t-89.5 -62.5t-122.5 -28.5h-18q-5 1 -10 1h-10q-14 2 -28 4.5t-28 6.5q-2 1 -0.5 3t3.5 3q19 22 38.5 45t38.5 45q-31 -8 -61 -16.5t-61 -16.5q2 31 5 62l6 62
q-24 -27 -49 -56t-49 -58q-39 38 -65.5 88t-32.5 120q0 11 -0.5 20.5t0.5 19.5q2 32 11 62q12 44 33 78.5t47 61.5q37 36 86.5 60.5t115.5 29.5zM600 278q-20 48 -56 83q-33 33 -82 57t-117 21q-35 -2 -65 -12t-55 -24q-24 -14 -43.5 -32.5t-35.5 -40.5t-28 -49t-18 -59
q-6 -33 -2.5 -68.5t14.5 -65.5q8 8 15.5 17t15.5 18t15.5 18.5t15.5 18.5q47 55 93.5 109.5t93.5 109.5q64 -55 127.5 -109t127.5 -108q1 0 2 -2t1 0q2 35 -3 64.5t-16 53.5zM524 -26q29 23 51 54.5t34 71.5q-15 14 -30 26.5t-30 25.5q-45 39 -90.5 77.5t-90.5 77.5h-2
q-16 -19 -32 -37.5t-32 -38.5q46 -38 91 -76.5t90 -76.5q2 -2 3.5 -3t1.5 -3q-15 -3 -29.5 -7t-29.5 -8q-41 34 -80 68.5t-80 67.5q-33 -40 -66.5 -78.5t-65.5 -77.5q2 -2 3.5 -5t3.5 -5q32 38 64 75.5t64 74.5q3 -3 6.5 -5.5t7.5 -6.5q2 -2 7.5 -6.5t6.5 -6.5q1 -3 0 -8
t-1 -10q-3 -32 -6 -65t-5 -62q53 14 105 29t105 30q-29 -38 -61.5 -74t-61.5 -73q-1 -1 -3 -2t0 -2q48 4 85.5 19.5t66.5 39.5zM66 -173h28v-8h-18v-10h17v-9h-17v-18h-10v45zM143 -195q0 -24 -22 -24q-11 0 -16.5 6.5t-5.5 16.5q0 11 6 17.5t16 6.5q11 0 16.5 -6.5
t5.5 -16.5zM110 -195q0 -16 11 -16t11 16q0 6 -3 10.5t-8 4.5t-8 -4.5t-3 -10.5zM150 -218v45h12l9 -16q2 -4 3.5 -8t3.5 -8h1q-1 5 -1 9.5v9.5v13h9v-45h-11l-9 18q-5 6 -8 16v-20v-14h-9zM205 -181h-12v8h34v-8h-12v-37h-10v37zM271 -201q0 5 -0.5 9.5t-0.5 9.5
q-1 -5 -2 -9t-3 -9l-5 -17h-8l-5 17q-2 5 -2.5 9t-1.5 9q-1 -5 -1 -9.5v-9.5l-1 -17h-9l2 45h14l5 -15q1 -4 1.5 -8t1.5 -8h1q1 4 1.5 8t2.5 8l5 15h13l3 -45h-10zM331 -195q0 -24 -22 -24q-11 0 -16.5 6.5t-5.5 16.5q0 11 6 17.5t16 6.5q11 0 16.5 -6.5t5.5 -16.5z
M298 -195q0 -16 11 -16t11 16q0 6 -3 10.5t-8 4.5t-8 -4.5t-3 -10.5zM338 -218v45h12l9 -16q2 -4 3.5 -8t3.5 -8v19v13h9v-45h-11l-9 18q-5 6 -8 16v-20v-14h-9zM422 -216q-6 -2 -15 -2q-13 0 -19 6t-6 16q0 11 7.5 17.5t18.5 6.5q8 0 12 -2l-2 -9q-2 2 -10 2q-15 0 -15 -14
q0 -15 14 -15h5v10h-7v8h17v-24zM457 -199h-17v-11h19v-8h-29v45h28v-8h-18v-9h17v-9zM466 -173q2 0 5.5 0.5t7.5 0.5q11 0 15 -4q4 -3 4 -9q0 -9 -8 -11v-1q4 -1 6 -8q2 -4 2.5 -7.5t1.5 -5.5h-11q0 2 -3 11q-1 7 -7 7h-3v-18h-10v45zM476 -193h4q8 0 8 7q0 6 -8 6h-4v-13z
M504 -212q0 6 6 6t6 -6q0 -7 -6 -7t-6 7zM556 -217q-4 -2 -11 -2q-12 0 -18 6.5t-6 16.5q0 11 7 17.5t18 6.5q7 0 11 -2l-2 -8q-4 2 -9 2q-14 0 -14 -15t14 -15q7 0 9 1zM602 -195q0 -24 -22 -24q-10 0 -15.5 6.5t-5.5 16.5q0 11 6 17.5t16 6.5q11 0 16 -6.5t5 -16.5z
M570 -195q0 -16 11 -16t11 16q0 6 -3 10.5t-8 4.5t-8 -4.5t-3 -10.5zM647 -201v19q-2 -5 -3 -9t-2 -9l-6 -17h-8l-5 17q-1 5 -2 9t-2 9v-9.5t-1 -9.5v-17h-10l3 45h14l4 -15q2 -4 2.5 -8t1.5 -8l2 8l2 8l5 15h14l2 -45h-10z" />
    <glyph glyph-name="a" unicode="a" horiz-adv-x="425" 
d="M383 134q2 -5 2 -9.5t2 -9.5q4 -8 6 -17t7 -17q4 -8 5.5 -16t6.5 -15q1 -2 1.5 -2.5t1.5 -2.5q2 -6 3 -11.5t3 -11.5q2 -5 4.5 -9t3.5 -10q-2 0 -3 -1t-2 -1h-47q-9 0 -16 3q-1 0 -8 -2q-3 1 -11 3q-5 0 -7 -3.5t-7 -2.5q-2 5 -2.5 10t-2.5 10t-3.5 9.5t-3.5 9.5l-18 57
q-6 6 -12 6q-8 -2 -14.5 -6t-13.5 -7q-3 -4 -7 -12q-1 -1 -2 -1.5t-2 -1.5t-2 -1q-3 4 -4 8t-3 9q-6 12 -18 18q-2 1 -4.5 2t-4.5 2h-26q-10 -4 -17 -16q-2 -5 -3 -9t-3 -9q-4 -7 -4 -17q0 -4 -2 -10q-1 -2 -1.5 -4t-1.5 -4v-39q-2 -3 -2.5 -6t-2.5 -7v-56q2 -6 4 -11t0 -10
q0 -4 -7 -10q-5 1 -8 8v37q2 2 2.5 5.5t2.5 6.5v72q-2 3 -2.5 6t-1.5 5q-2 10 -1 19.5t-1 19.5q-6 7 -8 7.5t-9 -1.5q-2 0 -2 -2q-1 -6 -2 -11.5t-4 -10.5q-1 -2 -1 -4t-1 -4q-5 -8 -7 -17t-7 -17q-3 -6 -7 -12q-4 -4 -7 -2t-7 3q-2 -1 -5 -2t-7 -3h-32t-32 1l-2 6
q2 7 5 13.5t5 13.5q0 4 2 8q5 8 7 16t6 16v17q-3 4 -5.5 7t-4.5 6q-1 11 -0.5 20.5t0.5 18.5q2 2 3 3.5t2 3.5q4 2 7.5 3.5t6.5 3.5q4 1 7 1t6 1q7 2 8 6q5 9 10.5 17t9.5 17q2 6 3 11.5t5 10.5t5 11t3 11q3 8 5.5 15t7.5 14v10.5t1 10.5q3 10 6.5 19t7.5 18q3 8 5.5 17
t5.5 17q1 2 1 4t1 4q7 11 10.5 23.5t8.5 24.5q1 3 1.5 6.5t2.5 6.5q2 5 4 9.5t6 8.5q13 2 36.5 2t55.5 -1q5 -1 10 -8q1 -3 2 -5.5t2 -4.5q2 -8 6 -15.5t6 -16.5q2 -8 6 -15.5t6 -15.5q8 -15 12.5 -31.5t11.5 -32.5q1 -8 4.5 -13.5t5.5 -12.5q2 -8 4 -14.5t5 -13.5
q6 -11 9.5 -23.5t8.5 -25.5q1 -2 1 -3.5t1 -3.5q4 -7 6.5 -13.5t4.5 -13.5q3 -7 6 -13t5 -13q2 -5 3.5 -8.5t3.5 -7.5zM195 286q-3 -7 -4.5 -12t-3.5 -10t-2 -9t-2 -9t-3 -10l-2 -10q-3 -8 -8 -16q-4 -9 7 -9q2 0 5 0.5t5 0.5q2 1 4.5 2t5.5 2h31q2 0 3.5 1t3.5 2
q4 11 -1 23q-2 6 -4.5 12t-2.5 13t-2 13l-4 12q-1 4 -2.5 7.5t-2.5 7.5q0 8 -3 14t-5 13q-1 1 -2 1t-2 1q-3 -3 -5 -6.5t-4 -7.5v-26zM334 -65q2 -2 2 -4q1 -8 1.5 -15.5t-1.5 -15.5q-1 -1 -2 -1q-2 8 -2.5 11.5t0.5 20.5q0 2 1 2.5t1 1.5zM27 -112q0 -8 -1 -13q0 -5 -3 -2
l-1 2v26q0 5 3 2q0 -1 0.5 -1t0.5 -1q0 -3 0.5 -6.5t0.5 -6.5zM350 -211q0 1 -1 1.5t-1 1.5q-2 6 2 6q1 0 1 -1q1 -2 1 -7q-1 -1 -2 -1z" />
    <glyph glyph-name="b" unicode="b" horiz-adv-x="407" 
d="M242 -83q-2 -5 -3.5 -8.5t-1.5 -7.5v-42q0 -2 -0.5 -3.5t-0.5 -3.5q-6 -1 -8 5q-1 4 -1 8v8l2 6t3 8v38q4 11 4.5 15t-0.5 15q-3 5 -4 6l-3.5 3.5l-3.5 3.5h-6q-8 -5 -11.5 -11t-6.5 -14q-2 -4 -3 -8t-3 -11v-61v-43q0 -6 -3 -6q-4 1 -6 5q-4 8 -6 13v16q1 2 2 5t2 7
q1 5 1 10v10q2 2 2.5 5t2.5 6v88q-1 6 -7 14q-4 2 -5 2q-11 1 -21 0q-3 -3 -4.5 -6.5t-4.5 -7.5v-32q-2 -2 -2.5 -5t-2.5 -7v-25q2 -3 2.5 -5.5t2.5 -5.5v-46q-2 -3 -2.5 -6t-2.5 -8v-92q-2 -3 -3 -5.5t-3 -6.5v-98q-4 -10 -6 -14q-7 -2 -9 0q-1 2 -5 6v28q1 2 1.5 5t2.5 6
q2 8 1 15.5t4 14.5q1 5 1 10.5v10.5q2 3 2.5 6t2.5 7v67q-2 3 -2.5 5.5t-2.5 6.5v34q-2 3 -2.5 6t-2.5 6v34q-2 5 -3 8.5t-2 7.5q-1 5 -1 13q-3 10 -11 9q-4 -2 -5.5 -5.5t-3.5 -7.5q0 -8 -1 -13q-1 -2 -2 -4.5t-3 -5.5v-44v-95q0 -7 -2 -10q-1 -1 -4 -1q-6 0 -8 6
q-1 3 -1 8q-1 11 -1 21v20q2 3 2.5 5.5t2.5 6.5v39q2 5 3 8t3 7v49q1 4 5 12q1 7 0.5 13.5t4.5 11.5q2 26 0 50q-1 2 -1.5 2.5t-1.5 2.5q-6 6 -14 3q-3 -1 -6 -2.5l-5 -2.5q-3 -4 -3 -11v-71v-25q-2 -6 -4 -11l-4 -10q-1 0 -2 -0.5t-3 -0.5q-2 1 -6 5q-2 6 -2 12.5t-5 12.5
v26q1 2 2 5l2 6q1 6 1 12v13q4 8 4 12q1 4 1 8v8q0 3 -2 7q-2 2 -4.5 2.5t-5.5 2.5t-3 5t-2 6q-3 2 -8 7v13l3.5 3.5l3.5 3.5t2 5v23v300v26q2 2 2.5 5t2.5 5q2 12 0.5 24.5t0.5 24.5q3 3 5 4q2 0 4 0.5t4 0.5h81t81 -1h4q2 -1 4.5 -1.5t5.5 -2.5h29q8 -3 15.5 -6t15.5 -5
q5 -2 10.5 -4t10.5 -6q5 -5 9.5 -7t9.5 -7q9 -9 15.5 -18.5t14.5 -24.5q2 -7 1 -14.5t4 -15.5q-1 -2 -2 -5t-1 -5q-1 -6 -1 -12t-4 -11q-1 -5 -1 -9t-1 -9q-2 -4 -3.5 -7.5t-3.5 -7.5q-5 -6 -11.5 -12t-12.5 -11q-3 -3 -7 -4.5t-6 -4.5q-1 -4 0 -7q5 -5 11 -6.5t12 -4.5
q6 -2 11 -5t12 -6q3 -4 13 -14l4.5 -9t4.5 -10q2 -6 4 -11.5t4 -11.5v-18q-1 -4 -2.5 -7.5t-1.5 -7.5q-1 -6 -1.5 -11.5t-3.5 -11.5q-2 -2 -1.5 -5.5t-0.5 -6.5q-3 -5 -5.5 -9t-5.5 -9q-3 -4 -6 -7l-7 -7q-4 -3 -7.5 -6.5l-6.5 -6.5q-2 -5 -2.5 -9t-2.5 -7q-2 -4 -3.5 -7.5
t-3.5 -6.5q7 -15 -1 -29v-45q-2 -5 -3 -8t-3 -7v-50q-2 -4 -2.5 -6.5t-2.5 -4.5v-46q2 -5 4 -9.5t1 -9.5t1 -10l4 -10v-57q-2 -4 -4 -10q0 -2 -0.5 -4t-0.5 -4v-24q0 -3 -4 -3l-2 2q-4 3 -4 9v38q1 2 2 5t3 7v40q-2 5 -3.5 10.5t-3.5 10.5q-3 4 -6.5 7.5t-9.5 3.5
q-3 -3 -4.5 -6.5t-4.5 -6.5v-104q-1 -5 -2 -8l-2 -6q-2 -3 -1.5 -6.5t-1.5 -6.5q-5 2 -7.5 4.5t-5.5 7.5q-2 6 -1 13t0 13q2 4 3 7t2 7v44q-1 5 -5 15q2 3 2.5 6t2.5 8v51q3 5 5.5 10.5t5.5 12.5v40q2 3 2.5 5.5t2.5 5.5q1 16 0.5 32t-0.5 33v5q-4 5 -4.5 11t-2.5 11
q-4 3 -7.5 3t-7.5 -1q-2 -1 -3.5 -2t-3.5 -2q-2 -6 -4 -11.5t-4 -12.5v-76zM130 208q-3 -6 -3.5 -15.5t1.5 -34.5q1 -3 2 -5l2 -4q1 -12 0 -23.5t1 -22.5q2 -2 4 -3.5t4 -3.5q16 -2 28 0q4 2 7 3t5 2q13 -4 17 -4.5t15 0.5q11 5 22.5 10.5t22.5 11.5l10.5 10.5t10.5 12.5
q1 15 0 28q-2 4 -3 5q-3 4 -6 7l-5 5q-11 4 -19.5 7t-18.5 2q-3 0 -6 1.5l-7 3.5h-54q-5 2 -8.5 3t-6.5 2q-10 2 -15 2zM201 274h27q4 0 7 0.5t7 2.5q6 5 12.5 11.5l12.5 12.5q2 5 3.5 8.5t3.5 6.5v21q-2 2 -2.5 5t-1.5 5q-2 3 -2 6.5t-4 6.5q-5 3 -10 6.5t-11 7.5h-10h-12
q-3 -2 -5.5 -2.5t-5.5 -2.5h-31h-23q-8 0 -13 -10q-1 -13 0 -26.5t-1 -26.5q-2 -6 -3 -8q-2 -5 1 -7q4 -4 6 -5q6 -2 12 -1.5t11 -2.5t11.5 -2.5t11.5 -1.5q2 0 4 -1t5 -3zM314 -443l-2 2q-3 7 -6 18v83q0 3 2 7q0 1 2 1q4 2 4 -2q2 -2 2 -4v-103z" />
    <glyph glyph-name="c" unicode="c" horiz-adv-x="405" 
d="M352 372h-12t-11 3t-10 2.5t-10 2.5t-10.5 2.5t-11.5 1.5l-9 3h-35q-5 -2 -11 -3.5t-12 -3.5q-15 -4 -27 -11t-24 -15q-5 -3 -6 -6l-15 -21q-2 -3 -3.5 -6t-1.5 -6q-2 -6 -4.5 -11t-2.5 -12q1 -4 -1 -7.5t-4 -8.5v-43v-42q2 -7 5 -12.5t1 -11.5l9.5 -19t10.5 -17
q9 -14 23 -23q8 -5 17 -10t18 -9q5 -2 10 -1.5t9 -4.5q19 -1 37.5 -0.5t36.5 0.5q3 1 6 2.5t7 1.5q6 1 11.5 2.5t10.5 3.5l10 4l10 4q4 2 7 2q6 2 8 -5v-5v-30q-2 -5 -4 -11q-2 -9 -1 -17.5t-1 -16.5q-7 -7 -17 -9q-5 -1 -8.5 -3t-7.5 -4q-5 -5 -6.5 -12.5t-3.5 -15.5
q-2 3 -5 6q-2 2 -4 2t-3 -2q-2 -10 -7.5 -17t-10.5 -15q-1 -2 -2 -3t-2 -3q-1 -5 -1 -9.5v-9.5v-13l-2 -6l-2 -6q4 -10 7 -14q2 -3 3.5 -5.5t3.5 -4.5q0 -2 0.5 -3t-0.5 -3q-2 -5 -4 -11t-1 -12q1 -4 -1 -7.5t-4 -8.5v-29q1 -3 5 -11q0 -8 0.5 -30t0.5 -46.5t-0.5 -45.5
t-0.5 -25l-1 -2l-2 -2q-6 -2 -6 3q-1 5 -1 15v132v25q-4 10 -4.5 14t-1.5 20q-1 2 -2 5t-2 5q0 2 -0.5 4t-0.5 4v110v5t-2 5q-1 2 -4 2q-5 -1 -8 -6q-2 -5 -3.5 -10.5t-3.5 -11.5v-105q-1 -4 -2 -7t-3 -7v-25q1 -2 2 -4.5t3 -6.5q2 -29 0 -58q-5 -9 -10 -9q-2 -1 -4 -0.5
t-4 0.5q3 12 3 21q-1 19 -0.5 37t0.5 37q0 2 -0.5 5t-0.5 5l-3.5 3.5l-3.5 3.5q2 2 5 4t5 4l2 4t1 4v99q0 2 -2 6q-2 5 -6 8t-7 7q-4 2 -7.5 4t-7.5 4q-5 0 -9.5 0.5t-9.5 0.5q-8 5 -17 8l-18 6q-2 2 -5 1.5t-6 0.5q-9 4 -17.5 8t-16.5 11q-5 2 -8.5 5t-7.5 7l-18 18t-18 17
l-14 28l-14 28q-2 5 -1.5 9.5t-2.5 9.5q-3 4 -3 12q2 11 -5 19v61l1 3q1 6 4 11v9.5t1 9.5q2 5 3.5 9.5t1.5 9.5q0 4 3 10q2 5 3.5 10.5t3.5 11.5q2 5 3.5 9.5t5.5 9.5q5 5 7.5 11.5t7.5 14.5q11 11 22 22.5t23 22.5q5 5 10.5 8.5t10.5 7.5q19 12 49 18q5 1 8.5 2.5t8.5 2.5
q11 2 17 5h89q2 -1 5 -2t7 -3h20q8 -4 16 -5.5t15 -9.5q2 -11 1.5 -21.5t-0.5 -21.5q-3 -5 -5 -10q-3 -8 -11 -11q-4 -2 -5 -5zM295 -457q-1 20 -0.5 24t2.5 8q3 -2 2.5 -5.5t0.5 -6.5t2.5 -6t1.5 -6q1 -9 5 -20q2 -5 0 -11q0 -4 -3 -2l-2 1q-3 2 -4 7q-2 4 -2.5 8t-2.5 9z
M296 -382q5 -5 4 -10t-1 -10q-2 -1 -3.5 -1.5t-3.5 -1.5q0 1 -2 3q-3 9 0 18q2 4 6 2zM329 -130q6 -9 -1 -16q-5 10 1 16zM352 372q3 0 3 -3q-2 0 -2 1q-1 0 -1 2z" />
    <glyph glyph-name="d" unicode="d" horiz-adv-x="440" 
d="M269 -79q-8 1 -13 -8v-26q-2 -3 -2.5 -6t-2.5 -7v-34q-2 -2 -2.5 -5t-2.5 -7q-1 -8 -1 -15.5v-15.5q0 -3 -3 -3q-2 0 -3 1q-4 3 -5 7.5t-4 7.5v17v15q-4 8 -5 13v30q1 2 1.5 5t2.5 7v45v3l-2 4l-2 4q0 5 -0.5 11t-0.5 13l-3.5 3.5l-3.5 3.5q-12 3 -25 1q-4 -3 -5.5 -6.5
t-3.5 -8.5v-36q1 -5 3.5 -9.5t0.5 -10.5q0 -2 -2 -4q0 -1 -2 -1q-4 -2 -4 1q-2 9 -4.5 16.5t-4.5 15.5q-4 5 -7.5 9t-8.5 6q-3 0 -6 -1.5t-6 -3.5q0 -2 -1 -3.5t-1 -3.5v-58q2 -3 3 -6t3 -8q-1 -7 -1 -14.5v-15.5l-2 -2q-5 0 -8 8v59v57q-1 7 -3.5 11.5t-1.5 9.5
q0 5 -2.5 9.5t-5.5 9.5q-8 2 -10.5 2t-10.5 -2q-2 -4 -3 -7q0 -5 -1 -8q-2 -6 -4 -10v-52q2 -2 2.5 -4.5t2.5 -6.5v-46q2 -5 5 -10.5t6 -12.5v-50q1 -3 2 -5.5t2 -6.5v-26q-4 -8 -4.5 -17.5t4.5 -19.5q2 -21 0 -44q-2 -2 -2.5 -3t-2.5 -3q-3 -3 -7 -1q-3 3 -3 10v8
q-2 3 -2.5 6t-2.5 8v97q-2 5 -3.5 8.5t-5.5 5.5q-8 -5 -12 -13q-4 -6 -5 -13t-5 -13v-26q1 -2 1.5 -4.5t2.5 -6.5q0 -4 0.5 -7.5t0.5 -7.5q-1 -30 -1 -60.5v-60.5q0 -3 -3 -3q-1 1 -1 2q0 3 -0.5 5.5t-0.5 5.5v36v20q-1 2 -2 5t-3 8v39q-2 4 -2.5 7t-2.5 6v39q1 5 3.5 10
t1.5 11q0 11 5 17q1 19 0.5 37t-0.5 36q-1 4 -2 7t-3 7v50q-2 4 -2.5 6.5t-2.5 5.5v28q-3 10 -7 21q-2 1 -3.5 2.5l-3.5 3.5q-2 6 -1.5 12t-1.5 12t-4 10v25q2 3 2.5 6t2.5 7v45q-1 2 -2 5t-3 7v39l-2 6t-3 7v20v202q-1 8 -0.5 14.5t-3.5 13.5q7 3 13.5 2.5t16.5 2.5
q-2 -1 0 0t5 2h36l6 -2t7 -2h92l9 3q8 3 15 0q5 -2 9 -3t9 -1q7 0 13 -3q5 -2 10 -2t10 -2q7 -3 13.5 -5.5t12.5 -5.5q11 -2 18.5 -8t15.5 -11l12 -8t11 -9q3 -4 6.5 -7t6.5 -6q2 -3 4 -6.5t4 -7.5q7 -9 13 -18t10 -20l6 -14t3 -15q1 -2 0.5 -3t0.5 -2q5 -7 4.5 -14.5
t0.5 -15.5q1 -2 2 -5l2 -6q1 -8 1 -15.5t-5 -15.5v-18q-1 -7 0 -16q0 -4 -2.5 -7t-2.5 -7q-1 -12 -5.5 -22t-6.5 -21q-1 -6 -7 -14q-4 -4 -6 -8.5t-6 -8.5q-3 -4 -5 -8t-5 -8q-4 -5 -8 -8.5t-8 -8.5q-2 -2 -4.5 -3.5t-3.5 -3.5q-5 -9 -8 -16q-1 -4 1.5 -6.5l4.5 -4.5
q3 -1 9 -5t4 -9q0 -2 -1 -3.5t-1 -2.5q-4 -1 -6.5 0t-4.5 2q-10 3 -16 -6l-1 -1v-2v-26q1 -2 1.5 -5t2.5 -7v-24q2 -2 2.5 -5t2.5 -7q0 -9 0.5 -19.5t-0.5 -22.5q0 -3 -2.5 -7t-2.5 -10q-2 -5 -7 -7q-6 1 -7 7q-2 5 -3.5 9t-3.5 11q0 20 0.5 42t-0.5 44q0 11 -1 16q0 2 -3 5
h-18q-3 -2 -7 -6q-1 -2 -1.5 -4.5t-1 -7t0 -12.5t0.5 -22q2 -5 4 -9.5t1 -9.5t1 -9.5t4 -9.5v-44q2 -3 3 -6t3 -7v-34q2 -5 2.5 -8t2.5 -7q0 -17 0.5 -33.5t-1.5 -34.5q-4 -2 -7 -3l-3.5 3.5t-2.5 3.5q-1 1 -1 2v1q0 1 -0.5 1.5t-0.5 1.5v5v136q-2 6 -4 11.5t-2 12.5
q0 5 -7 9zM119 274v-129q-2 -4 -2.5 -7.5t-2.5 -6.5q0 -11 -0.5 -21t1.5 -20q1 -3 5 -7q5 -2 10.5 -3.5t10.5 -3.5h20q4 1 6.5 2t5.5 2h41q4 3 7 5.5t6 4.5q10 4 14 7l16 10t15 13q9 10 18 18q7 12 10 24.5t8 23.5v62q-2 4 -4 12q-1 7 -1 13.5v12.5q-5 10 -10.5 18t-10.5 16
q-4 1 -7.5 2t-7.5 2q-9 9 -13 12q-3 2 -6 2t-5 1q-3 2 -6.5 4.5t-6.5 4.5h-6.5t-6.5 1l-8 2t-9 3h-33q-5 2 -8.5 3.5t-8.5 1.5h-13q-8 -1 -12 -10q-1 -16 -0.5 -32t-0.5 -32q-2 -3 -2.5 -5.5t-2.5 -5.5zM248 -386q-6 3 -8 8.5t-5 10.5q0 18 -0.5 36.5t-0.5 34.5t0.5 28.5
t1.5 17.5q0 1 2 1q2 -3 1.5 -7t0.5 -8l2 -6t3 -8v-11t1 -13q1 -5 3.5 -10t1.5 -10t0.5 -9t3.5 -9q2 -18 0 -38q-2 -4 -3 -5t-2 -1.5t-2 -1.5zM192 -185l-7 -7q-2 1 -6 1q-1 4 -1.5 7.5t-1 8.5t0 14t0.5 25q4 7 7 19l2 -1q2 -5 1.5 -10.5t0.5 -11.5q1 -2 2 -5t3 -7v-16.5
t-1 -16.5zM59 -453l-2 2q-2 9 -1.5 18.5t1.5 19.5q1 3 7 3q2 -4 2 -7q1 -5 0.5 -11t-0.5 -11q-1 -8 -7 -14z" />
    <glyph glyph-name="e" unicode="e" horiz-adv-x="412" 
d="M224 274q10 -5 18 -5h58q8 0 13 -1q1 0 1.5 -1t2.5 -2q1 -14 1 -37.5t-1 -38.5q-2 -1 -2.5 -2t-1.5 -1q-5 0 -8.5 -0.5t-7.5 -0.5h-134h-8t-8 -2q-2 -4 -2 -7q-1 -9 -1 -18v-17q-2 -5 -3 -8.5t-2 -7.5q-2 -13 10 -18q17 -1 33.5 -0.5t34.5 -0.5q2 -1 5 -2t7 -3h23
q2 -1 5 -1.5t5 -1.5t5 -1.5t5 -1.5l9 -12q4 -2 7 -2.5t6 -0.5q5 0 9.5 -1.5t9.5 -3.5h32q7 -1 10.5 -3t7.5 -2t7 -0.5t7 -0.5q2 -2 3.5 -3t3.5 -2q4 -9 1 -49q-2 -3 -4.5 -6t-4.5 -7v-15q-1 -2 -0.5 -4t-0.5 -4q-5 -6 -4.5 -12.5t-0.5 -13.5q-2 0 -2 -2q-3 3 -2.5 6t-0.5 6
q-1 1 -0.5 1.5t-0.5 1.5q-3 7 -6 13.5t-7 11.5q-4 6 -9 4q-4 -2 -10 -6q-2 -1 -4 -5q-5 -6 -6 -12.5t-3 -12.5t-5 -12t-2 -13q0 -3 -3 -3q-2 4 -1.5 8.5t-0.5 9.5q-2 4 -3.5 8t-1.5 9q-1 5 -2.5 9t-2.5 9q-2 5 -4 8t-3 7q-9 4 -17 1q-6 -4 -13 -14v-30q-2 -4 -2.5 -7
t-2.5 -6v-78q2 -3 2.5 -5.5t2.5 -5.5v-30q-4 -11 -8 -15q-3 1 -4 3t-3 4q-3 16 4 27v52q-1 2 -2 5t-3 7v43q-1 6 -3 10t-2 8v13q-4 8 -7.5 14.5t-11.5 9.5q-4 1 -7 -1t-6 -3h-40q-5 -2 -6 -4l-2 -4l-6 -15q-4 2 -5 5.5t-4 5.5q-4 2 -6.5 5t-4.5 5q-14 2 -24.5 2.5
t-28.5 -1.5q-9 -3 -9 -12q0 -4 -2 -10q-1 -2 -2 -3t-2 -3q-5 1 -9 1.5t-9 -2.5q-1 -1 -2 0t-3 1q-3 3 -2.5 7t-1.5 8q-1 6 -5 11q-2 3 -4 5.5t-4 4.5q4 14 8.5 26t6.5 26q2 5 4.5 9.5t4.5 9.5q-1 2 -1.5 5.5t-2.5 6.5q1 2 2 4.5t2 5.5v57q-1 2 -1.5 5t-1.5 5q-1 4 1 7t2 8
v180q-1 2 -1.5 5t-2.5 6q-1 25 -1 44t2 32q2 1 3.5 2t3.5 1h15h263h9.5t9.5 -1l3 -3q1 -8 1 -20.5v-26v-26t-1 -19.5q-2 -2 -4 -3h-18q-40 -1 -79 -1h-79q-4 0 -7.5 0.5t-6.5 -1.5q-4 -3 -4 -10q0 -9 -5 -21v-39q0 -2 1 -3.5t2 -3.5q18 -2 36 -0.5t35 -0.5zM63 -191
q-2 8 -2.5 12.5t0.5 20.5q0 2 2 4q2 -8 2.5 -11.5t-0.5 -20.5q0 -2 -1 -2.5t-1 -2.5zM376 -200q-1 -5 -0.5 -8.5t-1.5 -7.5h-2q-1 1 -1 2v25q0 3 3 3l1 -2q0 -3 0.5 -6.5t0.5 -5.5zM48 -305h-2q-3 3 -1 6l1 2q3 3 3 -2q0 -4 -1 -6zM317 -142q-2 -2 -2 -1q-3 0 -1 4l1 1
q2 -1 2 -4zM375 -247l-2 -2q-2 1 -2 4l2 2q2 -1 2 -4z" />
    <glyph glyph-name="f" unicode="f" horiz-adv-x="345" 
d="M75 -101q2 3 2.5 5.5t2.5 6.5v30q-2 5 -4 9t-1 9q0 10 -4 17q-4 6 3 15q1 2 2 3t2 3l-2 2q-9 1 -17.5 1t-16.5 1q-1 2 -2 2.5t-1 1.5q-1 5 -1 13v79q-2 7 -4.5 12.5t-1.5 12.5l-4 6t-4 5q-2 3 -1.5 6.5t-0.5 6.5l-2 6t-2 7l3.5 3.5l3.5 3.5t2 4q1 2 0.5 4t0.5 4
q1 3 2.5 6t1.5 6q1 5 1 9.5v9.5v110q-2 3 -3 6t-2 8v93q0 7 4 9q10 2 20.5 1t21.5 1l6 2l6 2h46q2 -1 5 -1.5t6 -2.5h84q6 2 10 4q6 0 12.5 0.5t13.5 0.5l6 2l6 2q11 0 22 0.5t22 -0.5q2 0 3.5 -1t3.5 -2q0 -8 0.5 -20.5t0.5 -26t-0.5 -26t-0.5 -19.5q-3 -3 -4 -3
q-4 -1 -8 -1h-8h-144h-10.5t-10.5 -1q-2 -2 -4 -3.5t-4 -3.5q-2 -32 0 -60q3 -7 10 -10q11 -2 23.5 -1.5t25.5 0.5h50q12 0 24.5 0.5t24.5 -1.5q2 -1 2.5 -2t1.5 -2v-5v-74q0 -7 -3 -9q-5 -2 -9 0t-9 4q-32 -1 -65 0t-66 -1q1 0 -3 -2q-1 -3 -5 -11q-4 8 -5 12q-7 -1 -7 -5
q-1 -3 -0.5 -5.5t0.5 -4.5q2 -4 5.5 -4t6.5 -2q2 -3 7 -8q3 -2 7 -1.5t8 -1.5q-2 -2 -3.5 -3t-3.5 -3q0 -2 -0.5 -2.5t-0.5 -2.5q-2 -13 3 -20q2 -3 0 -11q-7 -5 -13 -10t-11 -13q0 -8 -0.5 -22.5t-0.5 -30.5t0.5 -31t0.5 -23q2 -5 7 -8q2 -2 6 -4q-2 -2 -3.5 -3t-3.5 -3
q0 -2 -0.5 -3.5t-0.5 -3.5v-79q-1 -8 2 -18q0 -3 -3 -3q-8 -1 -13 7q-2 4 -2 5v56q1 2 2 4.5t2 5.5q2 6 1.5 13t-0.5 14q-2 3 -2.5 5.5t-2.5 4.5v8v13.5t-1 12.5q0 2 -1 3.5t-1 3.5q-8 1 -10 0t-7 -7q-2 -7 -1 -14t-1 -15q-1 -2 -1.5 -4t-2.5 -6q0 -5 -0.5 -10.5t-0.5 -10.5
q-3 -5 -4 -11q0 -2 -0.5 -4t-0.5 -4v-155v-6t-2 -6q-1 -2 -4 -2l-2 2q-1 0 -1 2q-1 3 -1 10v136zM77 -312q2 -7 2.5 -11t0.5 -23q-2 -5 -4 -11t-4 -11q-2 -2 -4 -2q-3 -2 -3 3q-2 3 0 7q2 7 3.5 14t3.5 14q3 4 2.5 9.5t2.5 10.5zM79 -269q4 -2 5 -3q1 -5 1.5 -9.5t-1.5 -9.5
q-1 -2 -5 -2q-1 0 -1 0.5t-1 0.5l-1 2q-3 9 0 16q0 2 3 5zM46 -19q2 -6 2 -8t-2 -7q-3 6 -3 8t3 7z" />
    <glyph glyph-name="g" unicode="g" horiz-adv-x="433" 
d="M188 -353q2 -4 2.5 -6.5t2.5 -5.5v-15.5t-1 -15.5q0 -2 -3 -3.5t-5 0.5q-1 0 -1 0.5t-1 0.5q-1 1 -1.5 2t-2.5 3q-2 12 -1 24t-1 26q-1 2 -1.5 4t-2.5 6q-1 12 -0.5 25t0.5 26v52q2 4 2.5 7t2.5 7v23l2 6t3 7v30q2 3 2.5 5.5t2.5 4.5q0 9 0.5 22.5t0.5 27.5t-0.5 27
t-0.5 20q-6 7 -17 3q-8 -9 -9 -19q0 -9 -5 -16q-1 -29 0 -56.5t-1 -55.5q-1 -1 -2 -1q-2 2 -3 5t-3 6q-1 1 -1 2v3v101q1 2 2 5l2 6q1 6 1 13t4 12v13q-2 4 -5.5 4t-5.5 2l-2 2q-1 1 -1 2q-1 2 -1 4t-1 4q-7 12 -11 25t-13 25q-9 5 -17 13l-16 16q-2 2 -3 4q-2 6 -6.5 10.5
t-8.5 9.5q-18 32 -26 61q-5 17 -13 31q-1 17 -0.5 34.5t0.5 34.5q2 6 4 11q1 5 1 10.5v11.5q3 5 4 10.5t2 11.5q3 7 6.5 13t6.5 13q2 5 4.5 9.5t3.5 9.5q0 3 2 5q5 6 8.5 13t9.5 12q7 6 13 12l12 12q3 4 6 7.5t7 5.5q7 4 13 8.5t14 7.5q7 3 13 6.5t13 6.5q7 4 14 5q5 2 9 4
t9 1q4 0 5 1q5 4 11 4h12q2 0 3.5 0.5t3.5 0.5q3 1 5.5 2t5.5 2h77q2 -1 5 -1.5t7 -2.5q2 0 5.5 -0.5t6.5 -0.5h6.5t6.5 -2q6 -3 12 -3q5 0 10 -3q3 -1 6.5 -1.5t6.5 -2.5q6 -1 11 -5l1.5 -3t0.5 -3v-34q-1 -2 -2 -4.5t-2 -6.5q-1 -10 -1 -20.5v-21.5q-5 -6 -10 -5
q-4 2 -7.5 2.5t-7.5 2.5q-14 6 -27 5q-3 2 -5.5 2.5t-4.5 2.5q-8 2 -16 1t-15 4q-12 1 -23.5 0.5t-22.5 0.5q-5 -2 -8.5 -3.5t-7.5 -1.5q-11 0 -20.5 -3.5t-19.5 -7.5q-4 -2 -7 -4t-8 -4l-27 -27q-5 -5 -8 -10.5t-8 -10.5t-7 -11t-4 -13q-2 -5 -3.5 -10t-0.5 -10
q0 -7 -5 -15v-32q1 -2 2 -4.5t2 -5.5q1 -5 1 -10v-10q4 -11 8 -22.5t12 -22.5l28 -28l12 -6t11 -6h3q9 4 21 9h19q3 0 5 -1l8 -4t8 -5q4 -4 8.5 -6t9.5 -4q7 -1 12 0.5t8 9.5v21q-2 4 -6 14q-3 4 -6.5 7.5l-6.5 6.5q-1 7 0 12q2 6 6 11t7 11q2 4 -2 4q-4 2 -7 2h-42
q-3 0 -5.5 0.5t-5.5 0.5q-1 1 -2 1.5t-2 2.5q-2 24 0 49q3 3 4 3q3 1 8 1h23q3 2 5.5 2.5t6.5 2.5h102q4 2 7 3t7 2q3 1 8 -4q1 -7 1.5 -35t0.5 -62.5t-0.5 -67.5t-0.5 -50q0 -5 -1 -8q-8 -5 -17.5 -7.5t-18.5 -6.5h-6q-9 0 -17 -4q-4 -2 -7.5 -2t-7.5 -1q-9 -4 -13 -13
q0 -2 -0.5 -4t-0.5 -4v-17q3 -10 8 -18t8 -17q-1 -2 -1 -3.5t-1 -3.5t-1.5 -4t-1.5 -5v-82q-1 -4 -0.5 -7t-1.5 -6q-2 -4 -5 -2q-1 1 -2 1l-1 2q0 3 -0.5 5.5t-0.5 5.5v55q0 10 -1 14q-3 8 -7 9q-12 5 -18 16v7q5 6 9 12t6 14v26q-2 3 -3 6.5t-3 5.5q-8 5 -16 2
q-1 -1 -2 -1.5t-2 -2.5l-3.5 -7t-1.5 -7q-1 -6 -9 -11q-11 -2 -22 -1t-22 -1q-5 -3 -6 -7t-4 -6v-23q-2 -2 -2.5 -4.5t-2.5 -5.5v-10t-1 -10q0 -3 -1 -5q-4 -8 -4 -12q1 -9 -3 -18q-2 -3 -2 -10q0 -9 -3 -16q-2 -6 -2 -10q0 -10 -4 -17q-1 -2 -1 -5t-1 -6t-1.5 -6t-2.5 -8
v-35q2 -6 4 -11q1 -12 0.5 -24.5t0.5 -26.5v-48z" />
    <glyph glyph-name="h" unicode="h" horiz-adv-x="432" 
d="M58 -146q-2 3 -2.5 5.5t-2.5 6.5v45q-2 3 -2.5 5.5t-2.5 5.5q-1 10 -0.5 20.5t0.5 21.5q2 5 4 11.5t0 13.5q0 2 -1 3.5t-2 3.5q-6 0 -12 0.5t-11 0.5q-6 7 -4.5 13t4.5 13q1 17 0.5 35.5t0.5 36.5v74v73l2 6t3 8v25v147q0 10 1 15q0 1 3 4q7 1 18.5 1h24.5h24.5t18.5 -1
q3 -3 3 -4q1 -1 1 -5v-46q-1 -3 -2 -5.5t-3 -6.5v-86q-2 -5 -3 -9l-2 -8q-2 -13 10 -17h26l6 2l6 2h67q2 -1 5 -1.5t7 -2.5q33 -2 70 0l3.5 3.5t2.5 3.5q2 4 0 7t-3 8v108q-2 3 -2.5 5.5t-2.5 5.5q-2 21 0 43q3 3 5 4h5q34 1 68 0q5 0 7 -1q1 -2 2 -2.5t1 -2.5q1 -5 1 -9v-9
v-79l2 -6t3 -8v-186q2 -3 2.5 -6t2.5 -5q1 -8 0.5 -16.5t-5.5 -15.5q-1 -23 0 -45.5t-1 -44.5q0 -2 -2 -2q-3 -3 -6.5 -2.5t-7.5 -0.5q-5 -1 -8.5 -2t-8.5 -3q-14 0 -29.5 -0.5t-31.5 0.5q-1 2 -2 2.5t-2 2.5q-1 5 -1 10v11q-1 2 -2 4.5t-2 5.5q-1 2 -1 7v110v10.5t-1 10.5
q-1 1 -2 1.5t-2 2.5q-10 2 -18 -1q-1 -2 -3 -4v-17t-1 -16q2 -7 4.5 -12.5t1.5 -11.5q-1 -5 1 -8.5t4 -8.5v-44q2 -5 2.5 -8t2.5 -7v-34q2 -4 3 -6.5t2 -4.5v-3v-65q0 -6 -8 -6q-5 2 -7 5q-1 19 -0.5 37.5t0.5 38.5v75q-3 6 -4 12t-2 11q-2 10 -12 9q-8 -3 -8 -12
q0 -6 -0.5 -12t-0.5 -11q-1 -3 -2 -5.5t-3 -6.5v-34q-2 -5 -4 -13q-1 -8 -1 -16t-1 -16q0 -1 -4 -3h-1q-1 0 -2 1q-2 5 -4 9.5t-4 10.5v29q-1 4 -5 12v31q2 2 2.5 5t2.5 7v41q-2 4 -4 10q-1 8 -1 14.5t-1 13.5q-2 4 -3 5t-2 1.5t-3 2.5h-18q-8 -4 -13 -12q-2 -4 -2 -5v-34
l4 -10t1 -10q-1 -3 -1.5 -4t-5.5 -2q-3 3 -3 7t-1 9l-12 24q-8 9 -20 4q-3 -3 -3 -4q-1 -2 -1 -8v-53q1 -2 2 -5t3 -8v-25q0 -5 -1 -7q-2 -4 -4.5 -7t-4.5 -6q0 -5 -0.5 -9.5t-0.5 -8.5q-3 -3 -5 -4q-4 0 -7.5 -0.5t-7.5 -0.5q-2 -1 -4 -3q-2 -5 0 -9.5t3 -9.5v-24
q-1 -2 -1.5 -5t-2.5 -6q-1 -8 -1 -15.5t5 -15.5q1 -9 0.5 -19t0.5 -19q-5 -6 -6.5 -7t-6.5 -2q-4 6 -3.5 13t-4.5 12v71v14t-1 15q0 5 -1 7q-6 5 -15 3q-1 -2 -2 -2t-2 -2q-2 -3 -3.5 -6.5t-2.5 -7.5l-2 -6t-3 -8v-25q2 -4 4 -10q1 -8 1.5 -30t0.5 -48.5t-0.5 -54
t-0.5 -45.5q-2 -5 -3.5 -10t-3.5 -10q-2 2 -2.5 3.5t-1 5.5t0 12t0.5 23q1 2 2 5t3 7v67zM242 -113q3 -9 5 -11v-10t1 -10l2 -6l2 -6v-31q0 -3 -4 -7q-2 -5 -7 0l-9 15v19v99q1 0 1 1t1 1q2 0 2 -3q1 -5 1 -10.5v-10.5q2 -2 2.5 -5t2.5 -6v-19zM189 7q-2 -6 -7 -9
q-2 -1 -4.5 0t-2.5 3q0 1 -0.5 2t-0.5 3v49l6 12h2q2 -2 2 -5v-5t0.5 -4t0.5 -4q1 -2 1.5 -5t2.5 -5v-5q0 -7 0.5 -14t-0.5 -13z" />
    <glyph glyph-name="i" unicode="i" horiz-adv-x="205" 
d="M28 403q-5 5 -8 7v5q2 2 4 3.5t4 3.5q0 5 0.5 9t0.5 9q2 2 4 3.5t4 3.5q1 3 2 5.5t2 5.5l8 -8q11 -1 23 -0.5t23 -0.5h47q11 -4 22.5 -7.5t20.5 -11.5q-1 -4 -2 -7.5t-2 -7.5t-0.5 -8.5t-2.5 -10.5q-1 -2 -4 -3.5l-7 -3.5q-2 -2 -3 -5t-3 -5q0 -2 -0.5 -3t-0.5 -3v-45
q0 -3 -2 -7q0 -1 -2 -1q-3 -1 -5 1q-2 5 -1.5 9t-0.5 9q0 2 -2 8q-1 1 -2 1q-2 1 -4 -2q-2 -4 -2 -7v-46q-1 -2 -2 -5t-3 -7v-92q-2 -5 -3 -8t-3 -6v-150q-1 -2 -2 -5t-2 -7q-2 -6 -1.5 -12.5t-4.5 -12.5q-1 -16 -0.5 -31.5t0.5 -31.5v-60q1 -7 3.5 -11t1.5 -9q0 -5 2 -9
t3 -9t1.5 -9t1.5 -8q-3 -8 -11 -5q-2 4 -3 8t-3 9q-1 4 -1 7.5t-1 7.5q-1 3 -1.5 6t-2.5 8q0 3 -0.5 7.5t-0.5 9.5v107v18q-2 1 -3 2t-2 1q-3 1 -8 1h-24q-8 2 -13 4.5t-10 2.5q-3 6 -3.5 11.5t-2.5 10.5q-6 11 1 25q1 2 1 2.5t1 2.5v31q-2 3 -2.5 5.5t-2.5 5.5v30
q-2 3 -2.5 5.5t-2.5 6.5v171q-2 3 -2.5 6.5t-2.5 7.5v27q-4 10 -5 14q-1 5 0.5 8l3.5 7v22zM150 215v12q0 2 1 2.5t1 1.5l2 -2v-31q0 -1 -2 -3l-2 2q0 5 -0.5 9t-0.5 9h1z" />
    <glyph glyph-name="j" unicode="j" horiz-adv-x="268" 
d="M106 -51q-2 5 -4.5 9.5t-4.5 9.5q-1 8 -8 20q-5 2 -10.5 2.5t-11.5 2.5q-1 -1 -2 -1t-2 -1q-5 -5 -8 -10.5t-6 -12.5q0 -3 -2 -7h-5q-1 0 -3 4v9.5t-1 9.5q-2 5 -3 9.5t-3 9.5q-3 2 -8 7q-3 10 -1.5 20.5t-3.5 19.5q2 3 2 5t2 5v28q0 6 -0.5 12.5t1.5 13.5q2 -1 4 -1
t4 -1q5 -2 9.5 -4t9.5 -4t9 -2.5t9 -1.5q4 -1 7.5 -2.5t7.5 -1.5q10 -2 15 -4q3 -2 6.5 -2h5.5q5 2 8.5 3.5t6.5 3.5q5 4 9 8t8 10q2 8 1 17.5t0 20.5q1 2 2 4.5t3 6.5v172q2 3 2.5 5.5t2.5 5.5q1 18 0.5 36t-0.5 37q2 5 3.5 9.5t3.5 9.5q2 1 2.5 2t2.5 1h50h12q4 -4 4 -5
q1 -2 1 -7q4 -10 5 -15q1 -6 0.5 -12t-0.5 -12v-20q2 -4 3 -7l2 -6q0 -2 0.5 -4t0.5 -4v-37q-2 -3 -2.5 -6t-2.5 -7q1 -2 2 -4.5t3 -6.5q0 -32 -0.5 -66t0.5 -68q1 -5 5 -13v-29q-2 -5 -3.5 -10.5t-2.5 -11.5q-1 -5 -3 -10l-4 -10t-4.5 -10.5t-5.5 -11.5q-5 -5 -9 -9.5
t-9 -9.5q-2 -13 -6 -25t-10 -25q-1 -5 -1 -10v-10q-2 -3 -2.5 -6t-2.5 -7v-29q-2 -2 -2.5 -5t-2.5 -7v-57q3 -9 3.5 -12t0.5 -11q-2 -6 -7 -7q-5 1 -8 8q-1 19 -0.5 38.5t0.5 39.5v75l-3.5 7t-3.5 6q-4 2 -7 2q-5 1 -9 0.5t-8 -0.5q-7 -2 -14 -11q-2 -4 -3 -8t-3 -8
q-2 -5 -2 -10t-2 -10t-2.5 -9t-2.5 -9q-2 3 -2.5 5.5t-1.5 13.5zM40 -245q-1 11 -1.5 30t-0.5 38.5t0.5 35.5t1.5 22l1 1q2 0 2 -2q0 -6 0.5 -24t0.5 -38t-0.5 -37.5t-0.5 -22.5z" />
    <glyph glyph-name="k" unicode="k" horiz-adv-x="453" 
d="M135 291q3 -7 8 -8q5 1 6.5 5.5t6.5 10.5l36 36l10 10t9 12q1 3 3.5 5.5l4.5 4.5q3 4 6 7t5 8q1 1 1.5 2t1.5 2q13 12 23 28q9 8 15 18t14 20q5 2 9.5 3.5t9.5 3.5q28 1 61.5 0.5t49.5 -1.5l3 -6q-4 -6 -9.5 -11t-7.5 -12q-1 -2 -3 -4l-4 -4l-12 -12t-12 -11
q-3 -6 -6 -11.5t-6 -11.5q-4 -4 -7.5 -8t-7.5 -8q-4 -8 -10 -14l-12 -12q-4 -4 -5 -6q-4 -8 -10 -14l-12 -12q-4 -5 -8 -9.5t-6 -9.5q-1 -2 -7 -8l-7.5 -7.5t-6.5 -7.5q-5 -7 -1 -12q5 -5 11 -3.5t11 -2.5q-2 -5 -4 -9.5t-4 -9.5v-15q3 -10 12 -10q3 2 6 4.5t7 4.5q3 1 4 -3
q-5 -5 -11 -13q-4 -7 -2 -16q1 -1 1.5 -2t1.5 -2q5 -6 10.5 -11.5t9.5 -13.5q1 -2 3.5 -4.5l4.5 -4.5q3 -4 6 -7t5 -8q2 -4 8 -10l9.5 -9.5l9.5 -9.5q6 -12 16.5 -21t19.5 -20l6 -6t5 -8q1 -2 2.5 -4t3.5 -4l9 -9t8 -9q3 -5 6 -12q-6 -2 -7 -2h-69l-6 2l-6 2q-12 1 -23.5 1
h-23.5q-1 0 -1.5 0.5t-1.5 0.5q-1 1 -2 1.5t-2 1.5q-8 13 -17 23q-5 4 -9 8l-8 8t-7.5 8t-5.5 9q-1 4 -7 8q-2 3 -4.5 6t-4.5 7q-1 3 -7 7t-7 7q-5 7 -10.5 12.5t-11.5 10.5q-3 3 -12 1q-1 -2 -2 -3.5t-1 -3.5v-37q-2 -3 -2.5 -6t-2.5 -7v-77q1 -2 2 -5t3 -7v-14q0 -4 2 -10
q3 -6 3 -12v-11q-4 -6 -5.5 -7t-6.5 -2q-3 3 -5 6.5t-4 8.5v45v37q0 5 -0.5 10.5t-3.5 10.5q-1 2 -1 7q0 7 -3 12l-6 10q-1 1 -2 1.5t-2 1.5q-2 1 -4.5 0t-2.5 -3q0 -4 -0.5 -7.5t-0.5 -8.5v-39l-4 -2t-4 -1q-6 -1 -11.5 -1t-11.5 -1q-2 0 -2.5 -1t-2.5 -2q2 -7 4 -17
q1 -4 0.5 -8t-0.5 -7q2 -3 3 -5.5t3 -6.5v-24q1 -3 2 -5.5t2 -5.5q1 -2 1 -7q0 -6 -3 -10q-2 -6 -2 -8q-1 -2 -1 -5t-1 -5q-1 -4 -3 -10q-1 -2 -1.5 -3.5t-1.5 -3.5q-1 -4 -5 -10q-3 -2 -11 -6q-5 2 -8 9v31q2 3 2.5 6t2.5 7v29q4 8 5 11q0 2 0.5 2.5t0.5 2.5q-1 6 -0.5 12
t-1.5 12q-8 6 -11 8q-4 6 -3 11.5t-1 10.5q-2 4 -6.5 4.5t-7.5 2.5q-2 10 -1 19t0 18q-1 5 -3.5 9t-1.5 9q0 7 -5 15v12.5t-1 13.5q-1 5 -3 9.5t-2 10.5q0 5 -3 8.5t-2 8.5t-2 10t-3 10l10 30t11 31v51q-2 2 -2.5 4.5t-2.5 5.5q-1 15 -0.5 30t0.5 30q-1 15 -0.5 29.5
t0.5 28.5q1 6 3 10.5t2 9.5q-1 5 2 9.5t5 9.5q3 0 5 0.5t4 0.5q28 1 57 0q7 0 10 -4q2 -13 1.5 -25.5t-0.5 -26.5v-50v-51zM137 173q2 -7 7 -6q2 1 2.5 2t2.5 3q-6 6 -12 1zM20 96q1 3 2 3q1 1 5 1q3 -4 5.5 -8.5t2.5 -10.5l-3 -3q-2 0 -3 1q-2 2 -3 4q-4 8 -6 13z" />
    <glyph glyph-name="l" unicode="l" horiz-adv-x="353" 
d="M255 -277q-1 3 -2 5.5t-3 6.5v61q-2 6 -3 8q-1 1 -2 7v49q-2 4 -2.5 6.5t-2.5 5.5v35q-2 3 -2.5 5.5t-2.5 6.5v28q-2 7 -4 12t-4 11l-9.5 9.5l-9.5 9.5q-5 2 -9 3.5t-8 3.5q-10 4 -14 6q-5 0 -9.5 0.5t-9.5 -0.5q-3 0 -6 -3q-2 -4 -2 -6v-78q2 -4 3 -7t3 -7v-34
q2 -5 4 -11q0 -2 0.5 -3t0.5 -2v-34q0 -3 -2 -5q-5 -2 -7 1.5t-5 5.5q-2 5 -3.5 10.5t-3.5 12.5v23q-2 3 -2.5 5.5t-2.5 6.5v34q-2 4 -3 7l-2 6q0 2 -0.5 4t-0.5 4v60q0 6 -4 10q-12 2 -24.5 1t-23.5 0q-6 -6 -5 -10q1 -6 4 -11q1 -12 0.5 -24t0.5 -23q-6 -11 -14 -10
l-3.5 3.5l-3.5 3.5q-1 17 0 33t-1 32q-1 2 -2 2.5t-2 2.5q-7 1 -14 1t-15 1q-1 2 -2 3.5t-1 3.5v75q1 2 2 5t3 7v145q2 3 2.5 5.5t2.5 6.5q1 16 0.5 33t-0.5 34v65v68l4 4q3 0 5 0.5t4 0.5h34q2 -2 5 -2.5t6 -2.5h10.5t11.5 -1q1 -2 4 -5q1 -10 0.5 -20t-0.5 -21
q1 -11 0.5 -21t-0.5 -21v-42q2 -2 2.5 -5t2.5 -6q1 -19 0.5 -38t0.5 -39q2 -4 2.5 -7.5t2.5 -8.5q-1 -4 -5 -12q0 -8 -0.5 -15.5t4.5 -15.5q2 -17 1 -35t0 -36q4 -3 6 -7q2 0 3.5 -0.5t2.5 -0.5h72q6 2 10 4h26q2 -1 5 -2t8 -3h19q6 0 12 0.5t12 -0.5q5 0 10.5 0.5
t10.5 -2.5q2 -5 4 -9.5t4 -10.5v-20q2 -2 2.5 -4.5t2.5 -4.5v-3v-24q0 -2 -0.5 -3.5t-0.5 -3.5q-3 -5 -8 -4t-9 -2q-2 -4 -2 -5q-1 -5 -1 -15v-81q2 -4 3 -7t2 -7v-107q2 -3 3 -6t3 -8v-34q1 -3 2 -5.5t2 -5.5q0 -8 0.5 -24t0.5 -34t-0.5 -34.5t-0.5 -25.5l-4 -6t-7 -2
q-4 4 -4 10v53v24q-2 4 -2.5 6.5t-2.5 6.5v77q-2 3 -2.5 5.5t-2.5 5.5q-1 20 -0.5 41t0.5 42q-4 8 -5 13v81q-2 3 -2.5 6t-2.5 6q-2 6 -1 12t-1 11l-2 2q-8 4 -11 6q-5 1 -11 -1q-4 -2 -7 -3t-8 -3q0 -2 -1 -3.5t-1 -3.5v-62q4 -11 4.5 -14.5t1.5 -17.5q1 -5 3.5 -9.5
t1.5 -10.5q-1 -5 1 -9.5t4 -9.5v-113q2 -4 2.5 -7t2.5 -7v-55q2 -4 3 -6.5t2 -5.5q0 -8 0.5 -16t-0.5 -16q-4 -8 -12 -13q-5 0 -7 6q-1 3 -1 10q-1 14 -1 27.5v27.5v31z" />
    <glyph glyph-name="m" unicode="m" horiz-adv-x="511" 
d="M482 118q1 -3 2 -5.5t2 -5.5q2 -23 1.5 -50.5t-1.5 -41.5q-2 -1 -3.5 -2t-3.5 -1h-32q-8 0 -15 -3q-2 0 -8 2q-6 -2 -10 -4q-5 2 -9.5 3.5t-9.5 3.5q-2 2 -2 4q0 6 -0.5 12t-0.5 12v99q-1 4 -2 7t-3 7v56q1 2 2 4.5t3 6.5q0 9 0.5 18t-0.5 18q-2 4 -3 4q-1 1 -2.5 0.5
t-2.5 -0.5q-4 -9 -7 -20q-2 -4 -4 -12q-1 -2 -1 -2.5t-1 -2.5q-4 -32 -16 -57q-5 -11 -8 -21t-7 -21l-16 -48q-2 -7 -0.5 -16.5t-0.5 -19.5q-1 -1 -2 -1q-2 2 -2.5 3t-2.5 2l-4 -2q-6 -9 -9 -19q-2 -6 -4 -11.5t-4 -10.5q-6 -2 -12 -1.5t-12 -0.5q-4 -2 -10 -4q-7 -2 -14 -1
t-15 -1q-2 -6 -2 -7q-1 -15 -0.5 -29.5t0.5 -30.5q1 -2 2 -4.5l3 -7.5v-9t-1 -10v-8l-6 -6q-3 -3 -8 0l-6 12q-2 26 0 54l10 10v26q-5 14 -10 29l-10 30q-2 2 -2 5t-2 5q-5 10 -8 20t-7 21q-4 4 -6 5q-2 0 -2.5 -0.5t-2.5 -0.5q-3 -5 -2.5 -11t-4.5 -11q0 -6 -0.5 -12
t-1.5 -13q-2 0 -6 -2q-6 11 -8 22l-4 10t-3 10q0 5 -7 7q-3 -5 -2.5 -9t0.5 -9q-1 -4 -0.5 -7.5t0.5 -7.5q-2 -4 -3 -7l-2 -6q-1 -12 0 -23.5t-1 -23.5l-4 -4q-5 0 -10.5 -0.5t-10.5 -0.5q-19 1 -37 1h-37q-1 1 -2 1q-1 1 -1.5 2t-1.5 2q0 2 -0.5 4t-0.5 4v206q2 2 2.5 5
t2.5 7q1 55 1 109.5v110.5v1q1 1 1 2q4 2 7 2q11 1 22 0.5t21 -0.5q4 -1 6.5 -2t5.5 -2q14 -2 29 -0.5t30 -0.5q6 -7 9 -17q2 -8 5 -16t5 -16q1 -2 1 -3t1 -2q8 -16 13.5 -32.5t10.5 -33.5q10 -30 20 -59.5t19 -59.5q2 -5 4 -15q1 -4 2.5 -7.5t2.5 -7.5q0 -5 1 -9t3 -9
q2 -4 1.5 -8.5t0.5 -9.5q3 -7 7 -14q2 2 4 3t2 3q3 11 7.5 22t5.5 23q5 7 5 14t3 14l4 12t4 13t6 14t5 15q6 9 9 19t8 19q1 2 1.5 5t1.5 5q3 8 6 17t7 17q4 9 7 18t6 19q1 5 3.5 10t1.5 10q0 5 2 9l4 8q3 13 7 23q6 2 8 2h36h53q8 0 12 -1l4 -4q0 -5 0.5 -10.5t0.5 -10.5
v-245v-59zM114 -119q2 -5 3 -8l2 -6l-2 -6t-3 -7v-7q0 -10 -0.5 -19.5t-0.5 -20.5q0 -4 -3 -2q0 1 -0.5 1t-0.5 1v33t-1 33q0 6 0.5 12t0.5 11q0 2 2 2q2 -2 2 -3q1 -4 1 -14zM419 -81q0 -11 -0.5 -22t-0.5 -22l-2 -2q-2 2 -2 3v89q1 0 1 1t1 1q2 0 2 -4v-44h1zM445 -249
q0 -5 -1 -7l-1 -2l-3 3v20l2 2q2 -2 2 -3q1 -3 0.5 -6.5t-0.5 -6.5h1zM161 -52v4q0 2 2 4q3 0 3 -3v-10q-1 -1 -2 -1q0 -1 -2 1q0 2 -0.5 3t-0.5 2z" />
    <glyph glyph-name="n" unicode="n" horiz-adv-x="478" 
d="M361 5v-215q-2 -6 -4 -11q-1 -5 -1 -21q-1 -2 -2 -4.5t-2 -6.5q-1 -5 -1 -9t-1 -9l-3.5 -3.5l-3.5 -3.5q-9 0 -12 9l4 12l4 12t2 12t5 12v171q1 7 5 14v23q-4 9 -7 20l-2 2q-4 1 -7.5 1.5t-8.5 1.5q-5 5 -10 9.5t-8 11.5q-4 6 -7 8q-4 4 -7 8t-8 7q-8 8 -14.5 16.5
t-13.5 18.5q-2 4 -5 8t-7 8l-6 9q-6 8 -11.5 16.5t-13.5 16.5q-5 5 -8.5 11.5t-7.5 12.5q-2 2 -2.5 3t-2.5 3l-4 2l-1 -2q-1 -7 -1 -13.5v-13.5q1 -4 4 -6.5t5 -6.5q3 -5 6 -12q-1 -5 -3.5 -10.5t-1.5 -11.5q1 -5 -1 -8.5t-4 -8.5v-82v-26q0 -4 -3 -4q-1 0 -4 3l-2 2
q-2 3 -1.5 6t0.5 7v92q0 10 -2 15q-2 3 -5.5 3.5t-8.5 3.5l-8 8q-4 7 -2 17q2 3 4.5 6t4.5 6q4 8 6 13v25q-2 5 -6 13q-3 6 -10 11q-4 4 -7 2q-4 0 -8 -3v-13q-1 -3 -1 -11q-2 -3 -4.5 -6t-4.5 -7q-1 -20 -1 -40.5v-40.5v-78l-4 -4q-20 -2 -38.5 -1t-36.5 -1q-10 -4 -10 -12
q0 -5 -1.5 -9.5t-3.5 -9.5v-41q2 -6 4 -11q1 -12 1 -25v-26v-53l2 -6t3 -7v-18q2 -6 4 -11t-3 -13l2 2l-2 -2q-6 -7 -13 0l-1.5 3l-1.5 3q-1 7 -1 15v16q-1 2 -2 5t-3 8v65q-1 3 -5 11q0 11 0.5 15t4.5 15v43q2 3 2.5 6t2.5 7v26l-9 9q-1 8 -1.5 43t-0.5 79t0.5 87.5
t0.5 69.5q1 3 5 13v30v121q0 6 5 9q12 4 27 -4h61q7 -3 10 -7q15 -23 30 -45.5t31 -45.5q11 -17 21.5 -33t21.5 -32q8 -10 13 -26q7 -15 16 -28.5t18 -27.5q4 -6 9 -10.5t11 -9.5h2q2 0 2 2q1 41 0.5 81t0.5 82q-4 6 -7 12.5t-6 13.5q-3 2 -6 4.5t-7 4.5q0 2 -0.5 4t-0.5 4
q0 9 -3 18q-7 12 7 17q4 2 14 6q2 1 5 1.5t5 2.5q3 1 6.5 1.5t5.5 2.5q3 1 6 3t5 4q16 1 41 1t41 -1q2 -2 3 -2q2 -8 1 -14.5t2 -12.5q7 0 7 3q2 3 2 6.5v6.5q2 3 3.5 6t3.5 5q2 -2 3 -4q0 -4 -0.5 -7.5t-2.5 -7.5q-3 -7 -2 -13q2 -4 4 -6q5 -1 9 -1t9 -1q2 -2 4 -3t3 -4
q-12 -8 -13 -13.5t4 -20.5q1 -2 1 -5.5v-6.5q0 -2 -0.5 -5t-0.5 -6q-7 -5 -13 -9.5t-11 -11.5q-2 -3 -3.5 -6.5t-3.5 -8.5v-14v-94q2 -3 2.5 -5.5t2.5 -5.5q0 -5 0.5 -11t0.5 -11q3 -4 10 -6q2 0 2.5 -1.5t-1.5 -3.5t-3 -2.5t-3 -2.5q-1 -1 -2 -1.5t-2 -1.5q-1 -5 2 -10
t2 -10q-1 -2 -1 -5t-1 -5q0 -2 -1 -4l-2 -4q-1 -18 -0.5 -36.5t-0.5 -36.5q8 -14 5 -28q-3 -6 -9 -4l-12 4q-8 1 -17.5 0.5t-18.5 -0.5q-2 -2 -3.5 -2.5t-3.5 -2.5q-1 -1 -1.5 -2t-2.5 -3zM309 319v-119q2 -4 2.5 -7t2.5 -5v-13.5t1 -12.5q6 -14 12 -24q1 -2 2.5 -3t2.5 -2
q11 4 7 15q0 4 -4 10v61q-2 5 -3 8l-2 6v86l-4 10l-4 10h-5q-2 -5 -4 -9.5t-4 -10.5z" />
    <glyph glyph-name="o" unicode="o" horiz-adv-x="485" 
d="M458 194q-1 -4 -3 -10q2 -4 2.5 -7t2.5 -6q-2 -8 -6.5 -15.5t-7.5 -15.5q-1 -8 -0.5 -10.5t4.5 -10.5v-22q-3 -6 -10 -12l-27 -18q-2 -3 -4.5 -6.5t-5.5 -7.5q-5 -6 -11 -11q-5 -5 -8 -7q-8 -4 -11 -7t-5.5 -6t-4.5 -5q-2 -6 -2 -12v-12q2 -6 4 -11.5t4 -10.5
q5 -12 11 -17q-2 -7 -4 -13.5t-4 -13.5q-2 -32 -1 -64.5t-1 -65.5q0 -1 -0.5 -1t-0.5 -1q-4 1 -8 7q-1 15 -0.5 30t0.5 30v28.5t-1 28.5q-3 7 -9 10q-11 5 -16 15v12q2 7 6 12.5t9 12.5v22q-2 4 -3 5q-4 5 -8.5 5t-8.5 -2q-6 -5 -12.5 -9t-13.5 -9q-5 -1 -11 -1h-12h-21
q-2 -2 -3.5 -2.5t-3.5 -2.5q-2 -5 -3.5 -10t-3.5 -12q-1 -3 -1 -8v-10q-1 -2 -1 -3t-1 -2q-3 -8 -3 -16q0 -5 -1.5 -9t-3.5 -9v-12q0 -10 -4 -15q-2 -4 -2 -8v-8t-1.5 -7.5t-2.5 -7.5t-1 -7.5t-2 -7.5q-4 -6 -3 -13q1 -5 -1 -10l-4 -10v-57q2 -3 2.5 -5.5t2.5 -5.5v-103
q2 -3 2.5 -6t2.5 -6q0 -8 0.5 -16.5t-1.5 -16.5q0 -2 -2.5 -3t-4.5 1q-3 2 -5 5t-4 6.5t-4 7.5v73q-2 3 -2.5 5.5t-2.5 5.5q-1 15 -0.5 30.5t0.5 31.5q2 3 2.5 6t2.5 8v34q2 3 2.5 6t2.5 6v24q2 3 2.5 6t2.5 6v34q2 5 3 8t3 6v77q-3 8 -10 11h-12l-2 -2q-2 -6 -5 -12t-3 -13
q2 -11 -5 -19v-114q-5 2 -6.5 6t-3.5 8v108q1 5 3 8.5t2 7.5q0 5 0.5 10.5t3.5 10.5q2 4 1.5 8.5t-1.5 9.5q-2 4 -6 4q-1 1 -2 1q-5 2 -8.5 3.5t-8.5 3.5t-8.5 3.5t-8.5 3.5q-2 1 -4.5 2t-6.5 3q-8 8 -16 16.5t-16 16.5q-9 8 -15.5 17t-13.5 19q-5 6 -8 12.5t-8 11.5
q-5 6 -9 16q-2 5 -4 11t-3 11q0 6 -2.5 11t-2.5 10t-1.5 8.5t-3.5 8.5q0 3 1.5 5.5t2.5 4.5q2 8 -1 15q-1 2 -1.5 4t-1.5 4v36q1 2 1.5 4.5t2.5 6.5q0 5 0.5 10t0.5 11l2 4t2 5q2 9 5.5 18t6.5 19q2 8 6 15.5t9 14.5q11 18 25 30l9.5 9.5t9.5 8.5q15 10 32 19q11 5 22 10.5
t25 9.5h19q2 2 5 2.5t6 2.5h62q2 -1 4.5 -2t6.5 -3h13t15 -1q5 -4 10 -7t12 -4q11 -5 22 -10.5l23 -11.5q11 -11 22 -22.5t22 -22.5q5 -7 8 -14.5t8 -12.5q2 -1 2 -5q2 -7 5 -12.5t6 -11.5q0 -14 5 -23v-67q-2 -5 -3 -8.5t-1.5 -6.5t0 -8t2.5 -13zM351 141q3 5 7 9.5t6 10.5
q2 5 3.5 10.5t3.5 12.5v45q3 6 6 11.5t5 10.5v13q-1 3 -1 6t-1 5q-3 5 -3 9.5t-2 9.5q-2 4 -4.5 7t-4.5 7t-5 7t-5 8q-8 15 -20 20q-9 6 -16 13q-6 6 -9 8q-4 1 -7.5 1t-6.5 1l-6 2t-5 2h-60q-12 -3 -21 -6q-6 -5 -11.5 -9t-10.5 -10q-2 0 -3 -0.5t-2 -0.5h-2
q-9 -5 -12.5 -12t-8.5 -12t-5.5 -11.5t-4.5 -12.5v-30q-2 -3 -2.5 -6t-2.5 -5v-19q1 -5 3 -7.5t1 -6.5q-5 -10 -4 -19.5t0 -17.5q5 -17 11 -30.5t13 -25.5q5 -6 10 -11t13 -7q3 -5 8.5 -7.5t8.5 -7.5q3 -4 7 -5.5t9 -3.5q8 -2 13 -3q6 3 15 3h6.5t6.5 2q2 2 5.5 2t6.5 1
q9 2 17.5 5t16.5 8q15 12 32 15q3 4 5.5 7t4.5 5q1 3 1.5 5t0.5 4z" />
    <glyph glyph-name="p" unicode="p" horiz-adv-x="402" 
d="M56 346q-2 2 -2 3t-1 2q-2 2 -4 2q-1 1 -2 0t-1 -3q0 -5 -1 -8q-2 -8 -4 -13q-1 -12 -1 -25v-26q0 -2 -2 -2q-2 -2 -2 2q-1 5 -1 13v63v17q-3 7 -7 15q-2 3 -5.5 6.5t-6.5 7.5q-2 6 -2 12t-4 11q-1 2 -0.5 4t0.5 4l12 12q4 0 6 -1q5 2 11 4t14 5h86q3 1 5.5 2t4.5 2
q4 1 7 -1t8 -3h80q8 -1 13.5 -4t10.5 -2q2 1 3 0.5t2 -0.5q5 -5 11.5 -4.5t11.5 -1.5q4 -2 12 -4q4 -2 5 -2q5 -3 10.5 -5.5t10.5 -5.5l41 -41l4.5 -9t4.5 -10t4 -11l4 -12v-55q-2 -7 -4.5 -14t-4.5 -15q-2 -3 -3 -6t-3 -6q-11 -18 -25 -30l-12 -12q-13 -7 -25.5 -13
t-25.5 -12q-1 -3 -1.5 -5.5t-1.5 -6.5q-2 -3 -8 -11q-2 -11 -1.5 -21t0.5 -21q2 -3 2.5 -6t2.5 -6v-3v-137l2 -6t3 -8v-44q2 -4 3 -7t3 -8v-60q2 -5 4 -11q0 -3 0.5 -10.5t0.5 -16.5t-0.5 -18t-0.5 -15q-5 -9 -11 -11q-5 0 -6.5 3.5t-2.5 8.5q1 3 5 11v15.5t-5 15.5
q-1 20 -0.5 41t0.5 43q-2 3 -2.5 6t-2.5 7v44q-2 3 -2.5 6t-2.5 7v134q-2 4 -3 7t-3 8v29q-3 6 -5 11.5t-9 8.5q-5 2 -10 1.5t-10 -0.5q-4 0 -6 -1.5t-7 -7.5q-1 -9 -0.5 -18t0.5 -18q2 -4 2.5 -7t2.5 -7v-34q1 -2 2 -5t3 -7v-10t1 -11q2 -6 4 -10q1 -12 0.5 -25t0.5 -27
l2 -6t3 -7v-107l2 -6t3 -7v-54q0 -7 -6 -8q-4 -1 -9 4q0 6 -0.5 12.5t-0.5 13.5l-2 6t-3 7v92q-2 4 -2.5 6.5t-2.5 6.5v55q-2 3 -2.5 6t-2.5 6v45q-2 4 -3 7t-3 7v34l-2 6l-2 6q-1 5 -1 15q-1 2 -1 3t-1 2q-3 5 -6 9.5t-7 9.5q-5 3 -11.5 6t-12.5 6q-2 1 -5 1q-2 1 -5 -1
t-3 -4v-17.5t-1 -16.5q2 -4 3 -7t3 -7v-65q2 -6 4 -10.5t-1 -9.5q-3 -3 -6 -3q-5 -1 -9 -1h-9q-1 0 -4 -3q-2 -5 0 -9.5t4 -10.5q0 -4 -0.5 -9t-0.5 -10q0 -3 -4 -3q-3 0 -4 1q-2 1 -6 5q-4 8 -6 13v8.5t-1 9.5q-2 2 -2.5 3t-2.5 3q-4 2 -7 2q-6 1 -8 -5v-19v-111
q-2 -2 -3 -5t-3 -8v-11q1 -5 0 -8.5t-3 -7.5q-2 -3 -2 -7t-1 -8q-5 -7 -13 -1q-2 5 -1 6l10 30v44q1 3 2 5.5t3 6.5v26q-1 3 -5 11v26q8 14 4 28q-2 3 -4.5 6t-4.5 7v41q-2 4 -3 7t-2 7v106q-2 5 -3 8.5t-3 7.5l2 6t3 7q1 6 1 33t-1 66l-2 6t-3 7v41zM286 279q1 3 1 5.5
t1 4.5q4 6 4.5 12.5t-0.5 13.5l-6 12q-2 2 -4 2.5t-4 2.5q-9 9 -19 10q-3 0 -9 4h-30l-7.5 3t-4.5 2h-38q-2 0 -3.5 -1t-3.5 -2q-2 -11 -1.5 -20.5t-0.5 -19.5q-4 -8 -5 -11v-40q-5 -9 -9 -21q13 -1 25.5 -1h24.5q10 6 23 6q5 4 11 4t11 2l12 6t13 6q4 5 8.5 9.5zM45 199
q-5 6 -4 11t-1 9l3 3q2 -2 2 -4v-19z" />
    <glyph glyph-name="q" unicode="q" horiz-adv-x="496" 
d="M54 76q-3 3 -6.5 6t-5.5 5q-3 8 -3 13.5v10.5q2 2 4 5l4 6q-1 1 -1 4q-2 8 -4.5 15t-7.5 14q0 4 -0.5 7t-0.5 7l-9 12q0 7 -0.5 18t-0.5 24v26t1 24q1 6 4 11v24q4 11 6.5 17.5t6 13.5l8.5 17l14 28l34 34q8 8 12 11q5 4 11 7t11 6q8 5 17.5 8.5t18.5 6.5q4 1 14 5h25
q3 2 6 2.5t6 2.5h36q3 -2 5.5 -2.5t5.5 -2.5h34q5 -1 15 -5q14 -4 31 -11q9 -4 16 -9.5t15 -10.5q9 -5 18 -12q6 -5 12 -11.5t12 -12.5q4 -8 9.5 -14t6.5 -15q0 -1 2 -5q7 -12 11.5 -24.5t8.5 -26.5q4 -8 3 -12q-1 -6 1 -11l4 -10v-71q-1 -3 -2.5 -6.5t-1.5 -7.5
q-2 -11 -5.5 -19.5t-5.5 -18.5q-2 -5 -4.5 -9.5t-4.5 -9.5q-2 -6 -6.5 -11t-6.5 -11q-2 -4 -5.5 -7t-6.5 -7q-4 -3 -7 -6.5t-6 -6.5q-5 -5 -15 -10q6 -4 10.5 -3.5t9.5 0.5q2 2 4.5 2.5t5.5 2.5q12 0 24.5 0.5t24.5 -1.5q3 -5 3 -7q1 -9 1 -17.5v-16.5q0 -5 0.5 -9.5
t2.5 -8.5l-2 -2q-2 -1 -6 -1h-51q-4 -2 -7 -2.5t-7 -2.5h-50q-3 2 -6.5 2.5t-6.5 2.5q-8 0 -11 -4t-5 -9q-3 0 -5.5 0.5t-4.5 0.5q-3 -3 -3 -4q-1 -2 -1 -8q1 -5 3.5 -9.5t1.5 -10.5q-1 -8 4 -17q1 -3 1 -8q0 -4 0.5 -8t0.5 -7q1 -3 2 -5.5t2 -5.5v-41q-1 -2 -2 -4.5
l-3 -7.5v-32q-1 -6 -3 -10t-4 -7q-3 3 -3 4v23v94q-2 5 -3.5 8.5t-1.5 7.5q0 6 -2.5 11.5t-5.5 10.5q-4 6 -15 5q-4 -4 -4 -10q0 -7 -1 -10q0 -3 -1 -5.5t-3 -5.5v-35q1 -2 5 -12v-51q2 -2 2.5 -5t2.5 -6q0 -6 0.5 -13t0.5 -14q2 -3 2.5 -5.5t2.5 -5.5v-25q2 -3 2.5 -5.5
t2.5 -6.5v-48v-49q-2 -4 -2.5 -7t-2.5 -7v-56q-2 -5 -4 -8.5t-4 -6.5q-3 -5 -6 -4q-2 1 -5 4q-1 8 -1.5 12.5t-0.5 7.5t1 6.5t3 8.5q2 13 1.5 25.5t-0.5 26.5v49q1 7 3.5 11.5t1.5 9.5q0 10 4 18q4 7 0 20q-4 6 -3.5 12.5t-0.5 13.5v4q-3 5 -4 11l-2 12q-5 6 -4 13t-1 13
q-5 6 -4.5 12.5t-0.5 12.5q-2 4 -4 10q-1 5 -1 10v10q-2 5 -4 9.5t-1 9.5q0 5 -1 7q-1 5 -3 9t-1 9q0 4 -0.5 7.5t-0.5 7.5q-2 4 -3.5 7.5t-5.5 7.5q-9 2 -18.5 1t-20.5 0q-4 2 -7.5 4t-7.5 4q-2 4 -4.5 7t-4.5 8q-4 2 -7.5 4t-8.5 4q-2 0 -4 -0.5t-4 -0.5q-1 -2 -2 -3.5
t-1 -3.5q0 -12 -5 -24q1 -9 5.5 -15.5t9.5 -13.5v-13q0 -11 -9 -14q-4 -2 -6.5 -4.5t-4.5 -7.5q-1 -27 -0.5 -55t-0.5 -55q-3 -8 -8 -8q-2 4 -1.5 7.5t-0.5 7.5q-1 3 -2 6.5t-3 8.5q-1 11 -0.5 23t0.5 24q-1 13 -0.5 25.5t0.5 24.5q-2 6 -4.5 11.5t0.5 13.5q3 6 6.5 13.5
t7.5 15.5v38q-5 5 -10 7t-13 7l-5 5t-6 7q-3 5 -5.5 9.5t-4.5 9.5q-8 4 -15 7t-15 8zM263 84q6 2 10.5 3t9.5 3q4 2 7 5t8 5t8.5 6t8.5 6q9 4 13 13q1 4 8 6q2 1 3.5 1t3.5 1l2 2q7 10 11 21l8 22q1 3 0.5 6.5t1.5 6.5q3 5 3.5 10t1.5 10q2 5 5 11t5 16q1 2 -1.5 6t-4.5 9
v26q-5 5 -5 11t-2 13q-4 5 -9 10t-8 12q0 2 -1.5 3t-3.5 3l-29 29l-4 2l-4 2q-8 3 -16.5 6.5t-18.5 2.5q-5 -1 -8 1.5t-7 2.5l-6 -2t-7 -2h-27q-9 -5 -18 -7t-16 -8q-2 -3 -4 -5.5t-4 -4.5q-4 -2 -8 -2.5t-7 -4.5q-2 -2 -6 -8q-7 -8 -11 -17q-2 -5 -3 -10t-3 -10
q1 -3 1.5 -5.5t1.5 -5.5q-5 -8 -3.5 -16.5t-0.5 -16.5q0 -2 -1 -2q-2 -5 -3 -10t2 -10q5 -7 1 -18q-2 -5 -4 -15q-1 -6 1.5 -10.5t3.5 -9.5q1 -4 1 -7.5v-4.5q4 -14 10.5 -23.5t11.5 -19.5q5 -6 11 -11q6 -2 9 -5q10 -9 18 -10q6 -2 11.5 -4.5t11.5 -2.5q5 0 9 -2t9 -3h23z
" />
    <glyph glyph-name="r" unicode="r" horiz-adv-x="417" 
d="M244 -158q-5 -6 -5 -12.5t-2 -11.5q-5 -3 -9 0l-9 9q0 2 -0.5 4t-0.5 4q-1 5 1 9.5t4 11.5v90q2 4 2.5 6.5t2.5 5.5v51q3 6 5.5 11.5t4.5 10.5v42q-2 5 -5 9t-6 9l-8 10t-10 8q-3 0 -5 -2q-2 -4 -2 -8v-44v-38q-1 -3 -5 -11q-1 -2 -1 -4.5t-3 -4.5q-1 3 -5 9q-3 6 0 12
q1 2 1.5 4t1.5 4v45q2 3 2.5 6t2.5 6q2 14 0 27q-4 10 -13 14h-6q-2 -2 -4.5 -4t-4.5 -5q-3 -6 -6 -12.5t-7 -12.5q0 -11 -1 -16l-2 -6l-2 -6v-26q1 -3 2 -5.5t2 -4.5v-3v-55q0 -2 -3 -3.5t-5 0.5l-2 1q-1 1 -1.5 2t-1.5 2q-2 5 -1.5 10.5t-1.5 10.5q-1 1 -1.5 2t-1.5 2
t-5 3q-5 2 -10 1.5t-10 -0.5q-8 0 -13 -10q-1 -11 -0.5 -23.5t0.5 -24.5v-50q-2 -3 -2.5 -6.5t-2.5 -7.5v-103q-4 -5 -5.5 -11t-7.5 -9q-5 3 -8 8q-1 11 -0.5 21t0.5 19q1 6 3 10t2 9v15q2 3 2.5 5.5t2.5 5.5v21q2 2 2.5 4.5t2.5 5.5q1 15 0.5 30.5t-0.5 31.5l-2 6t-3 8v28
q-2 5 -4 8.5t-4 6.5q-10 2 -13 2.5t-12 -1.5q-1 -2 -2 -2.5t-1 -2.5q0 -4 -0.5 -7.5t-0.5 -7.5v-66v-18q-2 -4 -4.5 -7t-7.5 -2q-4 4 -8 14v42l2 6l2 6v41q-3 5 -4 11v325q1 2 1.5 5t2.5 6q1 14 0.5 29t0.5 30q0 14 -0.5 29t0.5 29q2 1 3.5 2t3.5 1q6 1 12 1h12q2 -2 11 -5
h134q4 -2 7 -2.5t7 -2.5h22q6 -2 11.5 -4.5t11.5 -1.5q5 -2 10 -3.5t10 -3.5q6 -2 11 -5t11 -5q8 -9 17 -18.5t20 -20.5l10 -20q1 -4 1 -7.5t2 -7.5q8 -17 -1 -35q0 -5 -0.5 -10.5t-0.5 -10.5q-1 -2 -2 -5t-2 -5q-1 -5 -1 -17q-3 -5 -6 -11.5t-6 -12.5q-5 -6 -10 -11t-12 -8
q-12 -9 -24 -16t-25 -14q-2 -1 -4 -3l-1 -2q4 -10 6 -14q4 -5 8 -9t8 -9q3 -8 9 -13t11 -11q2 -3 4 -6.5t4 -6.5q4 -5 7.5 -8.5l7.5 -7.5l9 -18q3 -5 8 -9t7 -10q0 -2 2 -4q3 -4 6.5 -7t6.5 -7q3 -3 5 -7t5 -8q6 -5 10 -12t9 -13q0 -1 -1 -2q-2 -2 -4.5 -2h-5.5h-84
q-8 0 -13 -1q-1 0 -1.5 -1t-2.5 -2q-2 -12 -1.5 -23t0.5 -22q2 -7 4 -12t1 -10t1 -9t4 -9v-26q-2 -3 -2.5 -6t-2.5 -7v-33l-2 -6t-3 -7v-125q8 -15 4 -28q0 -2 -2 -2l-2 1q-4 4 -5 7q0 5 -2 9t-3 9v60q2 8 4 12v51q-1 2 -1.5 5t-2.5 7v30l2 6t2 7v55q-2 10 -7.5 16.5
t-9.5 14.5h-6q-2 -5 -4 -9.5t-4 -10.5v-109zM197 247q8 4 14.5 7t13.5 7q4 2 7.5 3.5t7.5 2.5q8 2 12.5 6.5t8.5 11.5q3 6 4.5 12t3.5 12q4 7 0 13q-4 5 -3.5 11t-2.5 11q-7 8 -9 9.5t-9 5.5q-1 1 -4 1q-6 -2 -8 -2q-6 1 -11 4h-80q-2 0 -3.5 -1t-3.5 -2q-2 -9 -1 -17.5
t-1 -16.5q-2 -3 -2.5 -6t-2.5 -6q0 -13 0.5 -25.5t0.5 -24.5q0 -1 0.5 -1.5t0.5 -1.5q6 -6 14.5 -7.5t16.5 -5.5h36zM149 137q-2 4 -3.5 6.5t-3.5 5.5q-1 3 -5 1l-1 -1q-2 -4 -2 -5v-64q1 -5 3 -8.5t2 -7.5q0 -5 -1 -8t-3 -7q-3 -7 0 -13q0 -3 3 -3q2 -2 3.5 0t1.5 4
q1 1 1 5v44q0 2 0.5 4t0.5 4q1 2 1.5 5t2.5 6v32z" />
    <glyph glyph-name="s" unicode="s" horiz-adv-x="369" 
d="M230 -52q-2 12 -1 23t-1 22q-2 1 -3.5 2t-3.5 1h-33q-3 -1 -11 -5h-46q-2 1 -3 1t-3 1q-6 2 -8 2t-7 -6q-1 -2 -1 -5v-45q4 -8 4.5 -16.5t-0.5 -17.5q-2 -2 -6 -8q-4 -2 -7 -4q-2 3 -1.5 6.5t-1.5 6.5l-2 6l-2 6q-1 20 -0.5 39.5t-0.5 39.5q-3 2 -7 4t-7 3t-7 2
q-6 1 -9 -5q-2 -8 -1.5 -17.5t0.5 -18.5q2 -2 2.5 -4.5t2.5 -5.5q1 -11 0.5 -21.5t-0.5 -21.5q-3 -7 -8 -8q-3 4 -2.5 8.5t0.5 8.5q-1 5 -0.5 8.5t0.5 7.5q-4 8 -5 13q-1 14 -0.5 28t-0.5 28q-3 5 -7 7l-8 4q-10 4 -15 14q-1 17 -1 39.5t1 37.5q3 4 9 1q4 -2 7 -3t7 -3
q8 -4 12 3q0 1 0.5 2t0.5 3v41q-2 4 -3 7t-2 7v38q-1 5 -3.5 9t-2.5 9q0 4 1.5 7.5t3.5 8.5q-2 5 -5 11t-5 12q-2 7 -5 12.5t-5 12.5q-1 6 -0.5 12.5t-4.5 11.5q0 5 -0.5 10.5t0.5 10.5q0 4 1.5 7t2.5 6q1 2 0.5 5t0.5 5q1 4 5 12q1 4 3 10q3 6 5.5 12t3.5 12l15 15l15 15
l24 12q5 2 9.5 4t9.5 4q5 1 9 2t9 2l6 2t7 2h73q6 -2 10 -4q6 0 12.5 -0.5t14.5 -0.5l4 -2l4 -2q5 -1 9.5 -0.5t9.5 -1.5q4 -1 7 -2.5t8 -1.5t9.5 -2.5t9.5 -5.5l1.5 -7.5t0.5 -7t-0.5 -11.5t-0.5 -19q-1 -2 -1.5 -4t-2.5 -5q0 -7 -0.5 -14t-1.5 -14l-1 -2q-14 4 -28 8.5
t-30 9.5h-21q-15 6 -22 6t-18 -5h-23q-11 -5 -22.5 -8.5t-20.5 -14.5q-1 -5 -2.5 -10t-3.5 -11q4 -5 7 -10.5t8 -11.5q3 -2 7 -4t8 -3q6 -2 11.5 -4.5t11.5 -2.5q5 1 8 -1t7 -3q3 -1 6.5 -0.5t6.5 -1.5q6 -4 13.5 -3.5t13.5 -4.5q5 -1 9 -1t9 -1l24 -12l16 -8l16 -8
q8 -7 14.5 -14t11.5 -16q8 -8 10 -17.5t7 -18.5v-67q-3 -8 -5.5 -15t-4.5 -15q-5 -14 -11 -21l-6 -9q-8 -14 -22 -21q-2 -1 -3.5 -2t-3.5 -3q0 -2 -1 -5t-1 -5v-53q0 -2 -0.5 -3.5t-0.5 -3.5q-5 2 -7 3t-7 9q0 9 -0.5 18.5t-0.5 19.5q-4 6 -9 4t-10 -3t-10 -3q-8 -4 -11 -7
q-2 -6 -1.5 -12t0.5 -11q1 -3 2 -5.5t3 -5.5v-25q1 -3 2 -5.5t3 -5.5v-21l5 -10v-10.5t1 -11.5q2 -3 2.5 -6t1.5 -5v-4q-2 -5 -3.5 -10t-3.5 -10h-5q-1 2 -2 2.5t-1 2.5q-4 6 -6 10v82l-2 6t-2 5zM130 118q-1 21 -1 42.5v43.5q0 2 -1 3v1q-1 1 -1 2q-5 2 -10 3.5t-10 3.5
q-10 -1 -14 -10q-2 -35 0 -69q2 -3 2.5 -5.5t2.5 -5.5q0 -5 -0.5 -9t0.5 -9q0 -5 -0.5 -10.5t2.5 -10.5q5 -2 10 -3.5t10 -3.5q6 0 9 2t5 6q1 12 0.5 15.5t-4.5 13.5zM182 104q3 -11 6 -19q3 -5 7 -3t8 3t9 3q8 5 12 14q0 18 0.5 37t-1.5 36q-3 8 -8.5 10t-10.5 5
q-3 0 -5.5 0.5t-4.5 0.5q-3 1 -5.5 1.5t-6.5 1.5v-90zM174 82q1 6 1.5 10.5t1 10t0 13.5t-0.5 22q-1 2 -1.5 3.5t-1.5 3.5t-1 4t-1 4q-3 8 -7 15t-12 11q-6 2 -11 -2q-2 -2 -3 -5.5t-3 -6.5v-21q2 -4 2.5 -7t2.5 -6v-40q3 -9 10 -10q6 -1 11.5 -1t12.5 2zM66 -207
q-2 -5 -3 -9.5t-3 -9.5q-2 0 -2 -1l-2 2v82q0 1 2 5q2 2 4 1l2 -1q2 -6 2 -8v-61z" />
    <glyph glyph-name="t" unicode="t" horiz-adv-x="425" 
d="M309 335q-1 5 -3 8.5t-3 5.5q-5 3 -9.5 3h-9.5q-4 -1 -9 -6q-3 -5 -2 -10.5t-1 -11.5q-1 -2 -1.5 -4t-2.5 -5v-123q-4 -10 -5 -15q-1 -4 -5 -12q0 -5 -1 -8q0 -1 1 -2q0 -2 0.5 -2.5t0.5 -2.5q5 -3 11 -4t11 -6l-3 -12v-13q-4 -7 -9.5 -11.5t-9.5 -11.5q-2 -2 -2 -5.5
v-6.5v-58v-6.5t-1 -6.5q-2 -1 -3.5 -2t-3.5 -1q-6 -1 -12 -1h-12q-1 0 -7 -2q-4 -8 -7 -17t0 -20q1 -5 6 -8t8 -9q-1 -4 -2 -7t-2 -7q-1 -5 -1 -14q-1 -2 -2 -4.5t-2 -5.5q-1 -10 -1 -20v-21q2 -3 2.5 -6t2.5 -7v-244q3 -7 5 -13.5t5 -13.5q1 -2 0.5 -5t-0.5 -5q0 -5 -7 -5
q-2 2 -3.5 5l-3.5 7q-1 5 -1 11v12q-2 3 -4 9q0 1 -0.5 1.5t-0.5 1.5v202q-2 3 -2.5 6t-2.5 7v80q-6 14 -10 30q-2 14 -1 28.5t-1 29.5q-4 3 -5.5 3.5t-6.5 -1.5q-3 -2 -3 -9q1 -6 -1 -11l-4 -10v-55q-2 -6 -4 -9q-3 -9 0 -16q3 -5 3.5 -11t0.5 -12q0 -5 1 -7q2 -6 4 -10v-5
q0 -8 0.5 -15t-1.5 -14q-5 -8 -17 -17q-2 -2 -4 0q-3 0 -3 4q1 2 1 2.5t1 2.5q0 2 0.5 3l1.5 3v72q0 4 -1 7t-2 7q1 3 2.5 6.5t-0.5 7.5q-3 2 -6 5t-6 5l-3.5 7t-3.5 8v31q2 6 4 11q0 5 0.5 10.5t0.5 10.5q2 5 4 11q1 5 1 10v11q8 13 4 28l-12 9q-6 11 0 20q4 7 2 18
q-2 3 -4 5.5t-4 5.5q8 4 11 6q1 4 1.5 7t1 7t0 11t-0.5 20q-1 2 -1.5 4t-2.5 6q0 7 -0.5 14.5t-0.5 15.5l-2 6t-2 7q-1 5 -1 11v12q0 9 -9 12q-7 0 -11 -9q-1 -3 -1 -6.5t-1 -6.5q-2 -6 -7 -6l-2 2v26q2 5 4 9t1 9t1 10.5t4 10.5v30q-3 9 -8 14q-4 2 -7.5 2h-8.5
q-8 -2 -12 -10q-1 -15 -0.5 -30.5t-0.5 -31.5q0 -15 0.5 -30t-0.5 -30q-3 -7 -7 -8q-1 -1 -5 -1q-2 2 -3 2.5t-3 2.5q-2 5 -3.5 10t-3.5 11v41q2 6 4 11v11.5t1 13.5l2 6t2 7q1 7 1.5 14.5t-1.5 15.5q-1 2 -4 5q-8 0 -16.5 0.5t-16.5 0.5q-1 2 -2 2.5t-1 2.5q-1 1 -1 5v63
q0 2 0.5 4t0.5 4q6 4 13 3t14 1q2 1 4 1.5t5 2.5h66q5 2 11 4q5 -1 10 -3t11 -1q9 0 17 5h16h192h9t9 -1q2 0 2.5 -1t2.5 -2q1 -12 0.5 -23.5t-0.5 -23.5l-2 -6t-3 -7v-36q-2 -1 -2.5 -2t-2.5 -2q-7 -1 -13.5 -1t-13.5 -1q-4 -3 -5.5 -6.5t-3.5 -7.5q-1 -6 -1 -12.5v-13.5
q-2 -3 -2.5 -6t-2.5 -7v-55q-2 -2 -2.5 -5t-2.5 -8v-12v-69q2 -6 4 -11t1 -11q-1 -5 1 -9t4 -9v-46q-1 -2 -2 -4.5l-3 -7.5v-39q-2 -3 -2.5 -6t-2.5 -6v-17q-1 -17 -0.5 -34t-0.5 -34q0 -2 -2 -8q-2 4 -2 3q0 28 -0.5 55t-0.5 55q-1 3 -3 7q-3 7 0 13q1 2 3 8v33q4 10 5 15
q0 6 -3 11.5t-2 11.5q-2 6 -4 11.5t-4 11.5q-3 2 -9 8q-2 2 -5 0.5t-3 -3.5q-1 -5 -2 -10.5t-4 -10.5v-104q-3 -5 -3 -8q-1 -2 -1.5 -5t-1.5 -5q0 -3 -2 -7q-2 -1 -6 -1l-6 6q-1 4 -1 9v35q2 4 2.5 6.5t2.5 5.5v31q-2 2 -2.5 4.5t-2.5 5.5v21q1 3 5 13v50q2 5 4.5 10.5
t5.5 10.5q1 10 0.5 20.5t0.5 21.5q1 2 2 5t2 7v82zM109 65q-2 -2 -3.5 -3t-3.5 -3q-2 0 -3 0.5t-2 0.5l-2 2q-2 24 -1 47.5t0 46.5q2 4 3 7t3 7v41q0 5 2 7q1 1 2 1q4 2 4 -2q2 -4 2 -7v-136q0 -2 -0.5 -4t-0.5 -5zM351 -115q1 -13 0 -28l-2 -2q-7 9 -7 16l-3 15q-1 1 0.5 2
t2.5 1q4 1 9 -4z" />
    <glyph glyph-name="u" unicode="u" horiz-adv-x="429" 
d="M238 -71q-2 -1 -8 -1l-15 -15q-2 -4 -4 -7.5t-4 -8.5v-103l-2 -6t-3 -7v-20l9 -24q2 -7 -6 -7q-2 -1 -4.5 -0.5t-4.5 0.5q-10 3 -10 12v23q2 4 4 10q0 8 0.5 25.5t0.5 37t-0.5 36.5t-0.5 25q-3 6 -8 9.5t-10 7.5q-2 6 1.5 8.5t5.5 7.5v5q-5 7 -9 13t-9 13q4 8 8 18
q1 10 -6 14q-2 1 -2.5 1.5t-2.5 1.5q-4 2 -8 3t-9 3q-4 2 -7 5t-8 5q-12 5 -20 12q-3 3 -6.5 4t-6.5 3q-10 2 -21 -3q-22 -2 -28.5 -1.5t-12.5 2.5q3 4 7 3t8 1q10 4 15 5q4 1 7 3l6 4v3q-2 5 -5.5 9t-5.5 9q-2 4 -5 7l-7 7q-1 3 -2.5 6t-2.5 6q-2 3 -3 5.5t-3 6.5
q-2 5 -1.5 10.5t-4.5 10.5q0 6 -0.5 11.5t-0.5 10.5q-1 2 -2 5t-2 5q-1 7 -1.5 34.5t0.5 70.5q1 5 3.5 8.5t1.5 8.5q0 5 -1.5 8.5t-3.5 8.5v103q-1 2 -2 5t-2 5q-2 7 -1.5 14t0.5 14l5 5h81q2 0 3 -0.5l3 -1.5q0 -2 1 -3t1 -3q1 -11 1 -20.5v-18.5q1 -3 2 -5.5t2 -5.5v-63
q-2 -6 -4 -10q-1 -13 -0.5 -25.5t0.5 -26.5q-1 -13 -1 -26v-26q4 -8 6 -13v-27q2 -11 6.5 -21t4.5 -21q2 -3 3.5 -6.5t3.5 -8.5q5 -4 9.5 -8.5l9.5 -9.5q5 -2 10.5 -4t10.5 -3q6 -1 11.5 -2.5t12.5 -3.5q2 2 5 2.5t7 2.5q5 0 10 0.5t10 0.5q4 2 7.5 2.5t7.5 2.5q8 2 15 6
t12 11q2 5 5 11l6 12q1 5 1 9t1 9q1 2 1.5 5t2.5 6v182q2 3 2.5 5.5t2.5 5.5q2 23 0.5 45.5t0.5 45.5q2 1 2.5 2t2.5 1q1 1 5 1h84q2 0 3.5 -0.5t3.5 -0.5q1 -2 1.5 -2.5t1.5 -2.5q0 -2 0.5 -4t0.5 -4v-115q0 -2 -0.5 -4t-0.5 -4q-1 -2 -2 -4.5t-3 -6.5v-165q-2 -6 -3.5 -10
t-1.5 -9t-2 -9t-3 -9q-2 -5 -3.5 -9.5t-3.5 -9.5t-5.5 -9t-5.5 -9q-2 -4 -5 -7.5t-5 -7.5t-5 -6.5t-6 -4.5q-7 -2 -11 -7t-9 -9q-18 -8 -31 -16q-2 -2 -3.5 -5t-3.5 -6t-5 -4.5t-8 0.5q-4 2 -5 2q-8 2 -12 -3q-1 -1 -1.5 -2t-2.5 -3q0 -4 -0.5 -8.5t-0.5 -9.5q-2 -1 -3 -2
l-3 -3q-14 -8 -18 -24q1 -2 1.5 -3.5t1.5 -3.5zM238 -71q4 -2 3 -3h-2q0 2 -1 3z" />
    <glyph glyph-name="v" unicode="v" horiz-adv-x="483" 
d="M315 64v-74q2 -3 2.5 -5.5t2.5 -5.5v-47q-2 -2 -2.5 -4.5t-2.5 -5.5v-27q8 -13 4 -27q-1 -1 -2.5 -1.5t-2.5 -1.5q-7 2 -9 8t-5 11q-1 8 -1 16t5 16v18l2 6q8 15 -1 28q0 7 -0.5 14t-0.5 14q-7 7 -17 2q-5 -4 -4.5 -9t-1.5 -10l-4 -10t-4 -12v-19v-118q0 -10 -1 -15
q-2 -3 -5 -3t-3 3q-1 2 -1 8q-1 27 -1 53.5v53.5q4 8 5 13t0.5 9.5t-0.5 10.5q-1 2 -1.5 4.5t-2.5 6.5q0 3 -0.5 7t-0.5 8q-2 5 -3.5 9.5t-3.5 9.5q-6 2 -8 2t-7 -1q-5 -4 -4 -8.5t-2 -8.5q-4 3 -3.5 7t-1.5 8q-2 1 -3 2t-3 1q-3 1 -5.5 0.5t-5.5 -0.5q-3 1 -10 1l-6 6
l-3.5 7t-2.5 7q-2 4 -3 7.5t-3 7.5q-2 5 -3.5 9.5t-3.5 9.5q-3 7 -4.5 14t-6.5 13q-3 5 -3.5 11t-4.5 11q-3 5 -4.5 11t-3.5 11t-5 10.5t-4 11.5q-8 14 -12 29t-11 29q-5 8 -7 17.5t-6 19.5q-3 8 -5.5 16t-4.5 16q-2 2 -2 5t-2 5q-5 9 -8 19t-8 19q-4 9 -6.5 18.5t-5.5 18.5
q-1 2 -1 3t-1 2q-5 11 -8.5 22t-7.5 22q-2 7 -4.5 14t-6.5 13q-2 4 -2 7q-1 5 -3 8t-2 7l1 2q4 1 7.5 2t10.5 1.5t18 0t30 -0.5q2 -2 5 -2.5t7 -2.5h12.5t12.5 -1q7 -4 9 -13q4 -11 7.5 -21t7.5 -20q5 -10 7 -20t7 -20l8 -22l8 -22t7.5 -22t7.5 -22q0 -2 0.5 -3t0.5 -2
q6 -11 9.5 -22t7.5 -22q2 -8 3.5 -15t4.5 -15q0 -2 1 -3q4 -11 14 -6q1 0 5 2q6 0 12 0.5t11 0.5q3 2 7 6q3 12 9 24q3 5 4 11t5 11q3 4 4 9t3 10t4 15q1 4 2.5 7.5t1.5 7.5q0 7 3 12.5t4 12.5q8 22 14.5 43.5t14.5 43.5q2 5 3.5 9.5t3.5 9.5q5 8 6 15q1 5 7 13q4 2 5 2h79
q2 0 3.5 -1t3.5 -2q-2 -10 -5.5 -19t-6.5 -18q-2 -8 -4.5 -15t-6.5 -14q-2 -10 -7 -18.5t-7 -18.5q-8 -14 -12.5 -30t-9.5 -31q-2 -5 -2.5 -9t-1.5 -9l-10 -20l-10 -20q-5 -9 -8.5 -18.5t-7.5 -19.5q0 -6 -2 -8q-7 -12 -10.5 -25t-8.5 -26q1 -3 1.5 -5.5t1.5 -5.5
q-1 -1 -1 -2t-1 -2q-2 -2 -3.5 -4.5t-2.5 -6.5q-3 -10 -6.5 -20t-9.5 -20zM262 -304v65q0 6 0.5 12t0.5 12q0 2 2 2t2 -3q1 -4 1 -11v-97q-3 -6 -4 -12t-3 -13q-2 -2 -5 -1q-1 0 -1 0.5t-1 0.5q0 1 -0.5 1t-0.5 1q0 3 -0.5 6t0.5 5q2 5 3 10.5t2 11.5q1 3 2 5.5t2 4.5z" />
    <glyph glyph-name="w" unicode="w" horiz-adv-x="613" 
d="M460 -5q-8 -2 -17 -1.5t-19 0.5h-32q-8 -3 -11 -11q0 -5 -0.5 -10.5t-0.5 -11.5v-84q0 -7 -1 -10q0 -2 -2 -2h-1q-1 0 -1 1q-4 3 -5.5 7.5t-4.5 9.5v17v81q0 5 -0.5 9.5t-0.5 7.5q-2 5 -9 7q-1 0 -1.5 1t-2.5 2q2 5 4 11t4 13q1 6 1 13.5t-5 15.5q-1 1 -1 5q-1 8 -4 16
t-2 17q-3 6 -3.5 12.5t-3.5 12.5q-2 5 -2 10t-2 10q-3 5 -3.5 10.5t-0.5 10.5q0 3 -1 5q-5 6 -4.5 13.5t-3.5 13.5q-2 2 -1.5 5t0.5 5q-1 3 -1 6t-1 5q-3 5 -3 10t-1 10q0 3 -1.5 6.5t-3.5 8.5v19q-2 2 -2.5 5t-2.5 6v16t-1 16q0 5 -6 3q-2 0 -2 -1q-4 -8 -6 -11
q-2 -5 -1 -10.5t-2 -10.5t-3 -10t-2 -10q-4 -9 -4 -21q1 -5 -3 -15q-2 -7 -3 -14t-4 -14q1 -8 -3 -14t-3 -14q-2 -7 -4.5 -13.5t-5.5 -14.5v-86q-1 -4 -5 -12v-15q0 -6 -1 -8q-5 -7 -4 -14t-1 -15q-1 -5 -3.5 -9.5t-1.5 -9.5q1 -6 -2 -13q-3 -6 -3 -13q0 -4 -0.5 -7.5
t-2.5 -7.5q-2 -6 -2 -10q0 -10 -4 -18q-1 -2 -1 -5t-1 -5q-1 -3 -1.5 -6t-2.5 -8q0 -4 -0.5 -9t-0.5 -10l-2 -6t-3 -7v-25q2 -3 3 -5.5t2 -6.5v-24q2 -3 2.5 -5.5t2.5 -6.5v-98q3 -5 5 -10q1 -3 1 -6.5v-6.5v-9q-3 -8 -7 -9q-5 1 -8 4.5t-6 8.5v42q-2 3 -2.5 5.5t-2.5 5.5
v142q1 2 2 4.5t2 5.5q1 6 1 12.5v13.5q2 3 2.5 6t2.5 7v29q2 3 2.5 6t2.5 6q0 8 0.5 17t-0.5 19q0 5 0.5 11t-1.5 12q-4 2 -5 2q-6 2 -12.5 1.5t-13.5 -0.5l-4 -4q-1 -8 -0.5 -16t0.5 -16q2 -6 4 -10q0 -2 0.5 -3.5t0.5 -3.5v-46q-3 -8 -8 -9q-3 2 -4 6t-4 7v74v7.5t-1 8.5
q0 1 -1 1.5t-2 2.5q-5 1 -9 1t-9 1q-8 4 -9 9q-2 7 -4 13.5t-4 13.5q-5 15 -10 25q-2 2 -2.5 5.5t-1.5 6.5q-3 10 -7 19.5t-7 19.5q-2 7 -5 13.5t-2 14.5v3q-2 5 -4 10.5t-4 11.5q-2 5 -2.5 10t-2.5 10q-3 5 -4.5 11t-3.5 11q0 4 -1 5q-8 16 -13 32.5t-11 33.5q-2 6 -4 12.5
t-4 12.5q-1 2 -1.5 3.5t-1.5 3.5q-5 20 -8 29.5t-11 27.5q-1 2 -1 5t-2 5q-4 11 -7 21t-7 21q-1 2 -0.5 3.5t0.5 3.5q4 7 12 14q2 0 3 0.5t2 0.5h66q2 0 3 -0.5t2 -0.5q3 0 6.5 -3t3.5 -5q0 -8 2.5 -15.5t5.5 -14.5q8 -22 14.5 -43.5t14.5 -43.5q0 -5 2 -8.5t4 -8.5
q2 -4 3 -8t3 -9q3 -7 5 -18l2 -6l2 -6q0 -5 0.5 -10.5t0.5 -10.5l3.5 -7l3.5 -7q4 -5 8 -9t9 -7q2 1 3 1t2 1q2 2 3.5 5l3.5 7v35q2 4 3 7l2 6l2 10t3 10t2 10t3 10q0 9 3.5 17t3.5 16q4 7 4.5 15t3.5 15q3 5 3 11.5t4 11.5v8t1 9q3 7 9 18q0 4 0.5 7.5t1.5 8.5l3.5 3.5
l3.5 3.5h17.5t16.5 1q3 1 5.5 2t4.5 2q6 1 24.5 0.5t30.5 -1.5q7 -3 8 -10q0 -8 5 -20q2 -5 2 -9t2 -9q2 -6 2.5 -12.5t4.5 -12.5q-1 -6 1 -11.5t4 -10.5q2 -6 4 -11.5t2 -11.5q0 -5 2.5 -10t2.5 -10q1 -7 3.5 -12.5t2.5 -12.5q5 -8 8.5 -16t9.5 -16q8 -10 8 -22q0 -1 2 -5
q5 0 7 6q2 8 4.5 15t5.5 15l6 18t6 19q2 5 3.5 10.5t2.5 12.5q1 5 3 10.5t4 11.5q2 8 5 15t4 15q0 3 1.5 6t2.5 6q4 14 8.5 27.5t9.5 27.5l1 1q12 2 40.5 2.5t62.5 -0.5q3 0 7 -2q0 -2 1 -3t0 -2q-7 -20 -13.5 -39.5t-12.5 -39.5q-4 -5 -4 -11t-2 -12q-2 -7 -4.5 -14
t-5.5 -15q-4 -12 -7.5 -24t-7.5 -23q-3 -8 -5.5 -15t-5.5 -14q-5 -9 -7.5 -18.5t-5.5 -18.5q-5 -14 -9.5 -28.5t-9.5 -28.5q-2 -5 -4 -15q-1 -5 -5 -15q-3 -11 -8 -25q-3 -11 -8 -25l-4 -12l-4 -12q-2 -7 -4 -13l-4 -12q-2 -8 -9 -14z" />
    <glyph glyph-name="x" unicode="x" horiz-adv-x="481" 
d="M251 46v-17q-1 -4 -2 -7t-3 -7v-57q0 -4 -1 -5q-1 -2 -1.5 -5t-2.5 -6v-204q1 -2 2 -4.5t2 -4.5q2 -23 1.5 -31t-3.5 -15q-2 2 -2 4.5t-1 4.5q-2 4 -4 10v28q-2 4 -3 7t-3 7v55q-1 2 -2 5t-3 8v22v231v12t-1 12q0 2 -2 4q-1 1 -5 1q-1 -1 -2 -1.5t-2 -1.5l-4 -4
q-3 -5 -6.5 -9.5t-6.5 -9.5q-4 -6 -6.5 -12t-6.5 -13v-37q-2 -3 -2.5 -5.5t-2.5 -5.5v-40q-2 -2 -2.5 -5t-2.5 -6q-1 -2 -1 -4.5t-3 -4.5l-1 2v53q7 15 3 28q0 1 -2.5 2t-3.5 0q-2 -2 -3.5 -2.5t-2.5 -2.5q-6 -13 -20 -23q-4 -2 -6 -2h-50q-2 2 -4.5 2.5t-5.5 2.5
q-14 1 -28 0t-28 1q2 5 3 9t4 7q7 7 11.5 14.5t10.5 14.5q2 2 2.5 4.5t2.5 4.5q5 5 8 9.5t6 9.5q5 6 9 13t10 12q4 3 5 7.5t5 7.5q8 7 11 15q1 1 1.5 2t1.5 2q5 5 8.5 10.5t7.5 10.5t8 9t6 10q8 8 14 17l12 18q1 2 2.5 4t3.5 4q3 3 7 9q2 2 2.5 5t2.5 6q-2 5 -3.5 10t-5.5 9
q-7 7 -11.5 14.5t-10.5 14.5q-5 8 -9.5 15.5t-11.5 14.5q-5 5 -8 10.5t-7 11.5q-5 9 -11 17t-11 18q-1 1 -1.5 2t-2.5 2q-10 10 -16.5 21.5t-14.5 22.5q-6 8 -10.5 15.5t-9.5 15.5q1 0 1 0.5t1 0.5q6 1 20.5 1h31h31t20.5 -1q8 -11 15.5 -22t13.5 -24q4 -7 8.5 -13t7.5 -13
q4 -8 7.5 -14.5t7.5 -14.5q3 -5 6 -11t7 -11l4.5 -4.5l4.5 -4.5q7 -7 14 -19q4 -5 10 -4q3 2 9 8q3 5 6 9.5t8 9.5l6 8t6 9q4 6 7.5 12.5t7.5 11.5q11 14 17 29q3 8 7.5 13.5t8.5 11.5l15 24q0 1 3 4q7 0 18 0.5t23.5 0.5h24.5t21 -1q6 -2 7 -7q-2 -5 -7 -9t-7 -9t-6 -9
t-8 -9q-5 -13 -14 -24.5t-17 -25.5q-8 -8 -14 -18t-13 -20t-13 -19.5t-13 -19.5q-4 -5 -6.5 -9.5t-6.5 -9.5q-8 -11 -15 -18v-9q4 -5 8 -9t7 -9q2 -5 5.5 -8.5t7.5 -8.5q3 -3 4.5 -7.5t5.5 -7.5t6.5 -6.5t4.5 -7.5q1 -4 7 -8q4 -4 7 -7.5t5 -5.5q4 -6 5 -7q6 -15 15.5 -28.5
t17.5 -27.5q2 -3 5 -5.5t5 -6.5q5 -9 12 -16.5t12 -17.5q4 -3 6 -7l4 -8q3 -3 5.5 -6t5.5 -6q-2 -1 -2.5 -2t-1.5 -1h-25.5t-25.5 -1q-2 -1 -5 -2t-8 -3h-25q-5 0 -11 0.5t-12 -2.5q-4 -5 -5 -11q-3 2 -4.5 5l-3.5 7q0 5 -0.5 11t-0.5 12q-1 2 -2 3t-2 3q-5 7 -9.5 14.5
t-11.5 12.5q-5 8 -10 15t-10 15q-2 3 -3 6t-4 6q-2 2 -5.5 2t-5.5 -2t-2.5 -3.5t-2.5 -3.5q-8 -14 -16 -39z" />
    <glyph glyph-name="y" unicode="y" horiz-adv-x="423" 
d="M8 459q7 1 20 1.5t27 0.5t27.5 -0.5t22.5 -0.5q4 -2 5 -3q5 -7 9.5 -14t8.5 -15q4 -7 7 -14t9 -13q5 -12 12.5 -22.5t12.5 -22.5q5 -9 10 -16q3 -3 5 -7t4 -9q7 -14 13.5 -28t14.5 -28q5 1 7.5 4t4.5 6q5 8 10 19l8 16t10 15q2 5 6 8.5t7 8.5q5 6 8 13.5t8 13.5
q3 2 4.5 6t3.5 7q7 14 13 27t13 27q2 4 4 7t4 7q6 2 8 2h44q4 0 8 1t10 2q2 -1 10 -3q7 0 10 -2q0 -2 1 -3t0 -2q-6 -13 -13 -26q-3 -7 -7.5 -13t-8.5 -13q-1 -2 -2 -2.5t-2 -1.5q-3 -7 -6.5 -13t-6.5 -13t-8 -12t-7 -12q0 -8 -0.5 -15t-0.5 -14q-2 -4 -3.5 -7.5t-3.5 -7.5
q-3 -2 -5.5 -5t-5.5 -6l-9.5 -9.5t-8.5 -9.5q-5 -5 -8 -10.5t-7 -11.5q-1 -4 -1 -8t-1 -9q-1 -2 -2 -5l-2 -6v-40q-2 -3 -2.5 -5.5t-2.5 -5.5q-1 -10 -1 -19.5v-19.5v-39q2 -3 2.5 -6t2.5 -8v-22q4 -8 5 -12q1 -7 0 -13q-3 -6 -8 -6q-2 3 -6 11q-1 5 -1 9t-1 9q-1 2 -1.5 5
t-2.5 5v13t-1 13q0 3 -4 7q-1 1 -2 1q-3 0 -3 -3q-1 -2 -1 -8v-62q0 -1 3 -3.5t1 -6.5l-2 -2q-5 -2 -10 -3.5t-10 -3.5q-4 2 -7.5 2.5t-7.5 2.5l-2 -4t-1 -4q-1 -8 -0.5 -16t0.5 -16q-3 -5 -6 -13v-155q-2 -4 -2.5 -7t-2.5 -7v-59q-2 -5 -3.5 -10t-3.5 -10h-2q-2 4 -6 10
q-2 5 0 9l4 8v7v76v22q2 4 3 6.5t2 5.5v57q-2 6 -4 11q-2 20 -0.5 40t-0.5 41q-2 1 -3.5 2t-3.5 1h-32q-3 0 -6.5 0.5t-6.5 0.5q-1 0 -5 4v20v142q0 5 -0.5 10.5t-0.5 10.5q0 4 -7 5q-3 -2 -4 -6t-6 -6q-4 5 -4.5 9.5t-4.5 9.5v36q-2 5 -4 8.5t-4 8.5q-5 3 -7 9t-7 9
q-6 0 -8 -4t-5 -6q-2 -18 -2 -47t1 -87q1 -2 2 -5t3 -7v-28q0 -1 -2 -5q-2 -6 -7 -5q-2 3 -1.5 7t-0.5 8l-2 6t-3 8v25q-2 3 -2.5 6t-2.5 7v23q-2 4 -3 6.5t-2 6.5v24q-2 3 -3 5.5t-2 5.5q-1 6 -1 12.5v13.5q-2 3 -2.5 6t-2.5 7v23l-2 6t-3 7v25q2 5 4.5 10.5t5.5 11.5
q0 5 -1 7q-10 13 -15 25q-2 5 -5.5 8.5t-5.5 8.5q-5 6 -9 13t-7 14q-5 8 -9 16t-10 16q-3 3 3 11zM267 135v-20q0 -5 1 -8q1 -2 4 -2q4 0 4 2q2 8 1.5 16.5t-0.5 16.5q-2 3 -2.5 5.5t-2.5 5.5v12v8q-2 3 -4 3q-1 -1 -2 -1q-1 -2 -1.5 -2.5t-1.5 -2.5q-2 -8 -1.5 -16.5
t5.5 -16.5z" />
    <glyph glyph-name="z" unicode="z" horiz-adv-x="413" 
d="M296 291q-1 -1 -3 -1q-2 -2 -3 -4q-7 -14 -15.5 -26t-16.5 -25l-12 -18t-11 -20q-2 -3 -4.5 -6t-4.5 -6q-2 -7 -7.5 -11t-8.5 -10q-2 -6 -6 -10l-9 -9q-3 -6 -6 -12.5t-6 -12.5v-24q0 -3 4 -7q17 -2 33 -1.5t32 0.5h66q17 0 33 0.5t32 -1.5q3 -1 4 -4q1 -2 1 -8v-23
q7 -13 4 -27q-1 -4 -2.5 -8.5t-3.5 -9.5q-4 -2 -5 -2q-6 -1 -12 -1h-11h-119h-22q-5 -2 -8.5 -3t-7.5 -2q-3 -1 -6.5 -0.5t-6.5 0.5q-3 -1 -5 -1.5t-4 -3.5q-1 -8 -1.5 -28t-0.5 -45t0.5 -51.5t0.5 -48.5l2 -6t3 -7q0 -8 0.5 -17t-1.5 -19q-2 -4 -7 -3q-2 5 -4 9.5t-4 10.5
v87q-1 4 -5 12q-1 13 -0.5 26.5t0.5 27.5v26t-1 26l-4 4q-11 1 -21 1h-21q-2 -2 -3.5 -2t-3.5 -2q-7 -3 -13 0q-2 1 -3.5 1.5t-3.5 1.5h-20q-6 -2 -11 -4q-18 -2 -34 1q-1 2 -2 3.5t-1 3.5v54q4 11 10 18.5t11 15.5q5 5 7.5 9.5t6.5 9.5q5 6 8.5 13t9.5 12q5 4 7.5 9.5
t6.5 10.5q3 4 5.5 8.5t5.5 9.5q0 2 0.5 3.5t0.5 3.5v60q-2 3 -2.5 6t-2.5 7v34q-6 12 -6 24q-11 12 -15 19q-2 2 -3 3.5t-3 2.5q-13 8 -23 24q-1 3 -3.5 5.5t-4.5 5.5v13v58q0 6 4 9q8 0 39 0.5t69.5 0.5h77t61.5 -1q8 -2 13 -4h62q2 -2 3.5 -3t2.5 -2q1 0 3 -5
q2 -8 1.5 -16t-0.5 -16q-4 -10 -10 -19t-13 -18q-9 -9 -14 -25l-2 -6t-3 -8v-23q-2 -3 -2.5 -6t-2.5 -6v-11.5t-1 -13.5q-2 -8 -4 -13v-23q-2 -3 -3 -6t-3 -8v-24q-1 -3 -2 -5.5t-3 -5.5v-25q-4 -9 -7 -20q-1 2 -2 2.5t-1 1.5v23q-1 29 -0.5 58t-0.5 58v5t-2 5zM120 240v-20
q0 -4 1 -5q0 -4 3 -4q1 -2 4 1q5 7 9.5 14t10.5 13q8 9 14 23v58q-4 4 -4.5 9t-1.5 10q0 7 -8 10q-1 -1 -2.5 -2t-2.5 -3q-2 -6 -4.5 -12t-2.5 -13q-1 -4 -2.5 -7.5t-2.5 -7.5q-1 -5 -1 -9t-1 -9q0 -2 -4 -10v-24q-2 -4 -2.5 -6.5t-2.5 -5.5z" />
    <glyph glyph-name="braceleft" unicode="{" 
d="M339 489q19 1 39 0q69 -5 118 -31t86 -63t61 -88.5t28 -120.5v-18q-4 -72 -29 -123.5t-63 -89.5t-89.5 -62.5t-122.5 -28.5h-18q-5 1 -10 1h-10q-14 2 -28 4.5t-28 6.5q-2 1 -0.5 3t3.5 3q19 22 38.5 45t38.5 45q-31 -8 -61 -16.5t-61 -16.5q2 31 5 62l6 62
q-24 -27 -49 -56t-49 -58q-39 38 -65.5 88t-32.5 120q0 11 -0.5 20.5t0.5 19.5q2 32 11 62q12 44 33 78.5t47 61.5q37 36 86.5 60.5t115.5 29.5zM600 278q-20 48 -56 83q-33 33 -82 57t-117 21q-35 -2 -65 -12t-55 -24q-24 -14 -43.5 -32.5t-35.5 -40.5t-28 -49t-18 -59
q-6 -33 -2.5 -68.5t14.5 -65.5q8 8 15.5 17t15.5 18t15.5 18.5t15.5 18.5q47 55 93.5 109.5t93.5 109.5q64 -55 127.5 -109t127.5 -108q1 0 2 -2t1 0q2 35 -3 64.5t-16 53.5zM524 -26q29 23 51 54.5t34 71.5q-15 14 -30 26.5t-30 25.5q-45 39 -90.5 77.5t-90.5 77.5h-2
q-16 -19 -32 -37.5t-32 -38.5q46 -38 91 -76.5t90 -76.5q2 -2 3.5 -3t1.5 -3q-15 -3 -29.5 -7t-29.5 -8q-41 34 -80 68.5t-80 67.5q-33 -40 -66.5 -78.5t-65.5 -77.5q2 -2 3.5 -5t3.5 -5q32 38 64 75.5t64 74.5q3 -3 6.5 -5.5t7.5 -6.5q2 -2 7.5 -6.5t6.5 -6.5q1 -3 0 -8
t-1 -10q-3 -32 -6 -65t-5 -62q53 14 105 29t105 30q-29 -38 -61.5 -74t-61.5 -73q-1 -1 -3 -2t0 -2q48 4 85.5 19.5t66.5 39.5zM66 -173h28v-8h-18v-10h17v-9h-17v-18h-10v45zM143 -195q0 -24 -22 -24q-11 0 -16.5 6.5t-5.5 16.5q0 11 6 17.5t16 6.5q11 0 16.5 -6.5
t5.5 -16.5zM110 -195q0 -16 11 -16t11 16q0 6 -3 10.5t-8 4.5t-8 -4.5t-3 -10.5zM150 -218v45h12l9 -16q2 -4 3.5 -8t3.5 -8h1q-1 5 -1 9.5v9.5v13h9v-45h-11l-9 18q-5 6 -8 16v-20v-14h-9zM205 -181h-12v8h34v-8h-12v-37h-10v37zM271 -201q0 5 -0.5 9.5t-0.5 9.5
q-1 -5 -2 -9t-3 -9l-5 -17h-8l-5 17q-2 5 -2.5 9t-1.5 9q-1 -5 -1 -9.5v-9.5l-1 -17h-9l2 45h14l5 -15q1 -4 1.5 -8t1.5 -8h1q1 4 1.5 8t2.5 8l5 15h13l3 -45h-10zM331 -195q0 -24 -22 -24q-11 0 -16.5 6.5t-5.5 16.5q0 11 6 17.5t16 6.5q11 0 16.5 -6.5t5.5 -16.5z
M298 -195q0 -16 11 -16t11 16q0 6 -3 10.5t-8 4.5t-8 -4.5t-3 -10.5zM338 -218v45h12l9 -16q2 -4 3.5 -8t3.5 -8v19v13h9v-45h-11l-9 18q-5 6 -8 16v-20v-14h-9zM422 -216q-6 -2 -15 -2q-13 0 -19 6t-6 16q0 11 7.5 17.5t18.5 6.5q8 0 12 -2l-2 -9q-2 2 -10 2q-15 0 -15 -14
q0 -15 14 -15h5v10h-7v8h17v-24zM457 -199h-17v-11h19v-8h-29v45h28v-8h-18v-9h17v-9zM466 -173q2 0 5.5 0.5t7.5 0.5q11 0 15 -4q4 -3 4 -9q0 -9 -8 -11v-1q4 -1 6 -8q2 -4 2.5 -7.5t1.5 -5.5h-11q0 2 -3 11q-1 7 -7 7h-3v-18h-10v45zM476 -193h4q8 0 8 7q0 6 -8 6h-4v-13z
M504 -212q0 6 6 6t6 -6q0 -7 -6 -7t-6 7zM556 -217q-4 -2 -11 -2q-12 0 -18 6.5t-6 16.5q0 11 7 17.5t18 6.5q7 0 11 -2l-2 -8q-4 2 -9 2q-14 0 -14 -15t14 -15q7 0 9 1zM602 -195q0 -24 -22 -24q-10 0 -15.5 6.5t-5.5 16.5q0 11 6 17.5t16 6.5q11 0 16 -6.5t5 -16.5z
M570 -195q0 -16 11 -16t11 16q0 6 -3 10.5t-8 4.5t-8 -4.5t-3 -10.5zM647 -201v19q-2 -5 -3 -9t-2 -9l-6 -17h-8l-5 17q-1 5 -2 9t-2 9v-9.5t-1 -9.5v-17h-10l3 45h14l4 -15q2 -4 2.5 -8t1.5 -8l2 8l2 8l5 15h14l2 -45h-10z" />
    <glyph glyph-name="bar" unicode="|" 
d="M339 489q19 1 39 0q69 -5 118 -31t86 -63t61 -88.5t28 -120.5v-18q-4 -72 -29 -123.5t-63 -89.5t-89.5 -62.5t-122.5 -28.5h-18q-5 1 -10 1h-10q-14 2 -28 4.5t-28 6.5q-2 1 -0.5 3t3.5 3q19 22 38.5 45t38.5 45q-31 -8 -61 -16.5t-61 -16.5q2 31 5 62l6 62
q-24 -27 -49 -56t-49 -58q-39 38 -65.5 88t-32.5 120q0 11 -0.5 20.5t0.5 19.5q2 32 11 62q12 44 33 78.5t47 61.5q37 36 86.5 60.5t115.5 29.5zM600 278q-20 48 -56 83q-33 33 -82 57t-117 21q-35 -2 -65 -12t-55 -24q-24 -14 -43.5 -32.5t-35.5 -40.5t-28 -49t-18 -59
q-6 -33 -2.5 -68.5t14.5 -65.5q8 8 15.5 17t15.5 18t15.5 18.5t15.5 18.5q47 55 93.5 109.5t93.5 109.5q64 -55 127.5 -109t127.5 -108q1 0 2 -2t1 0q2 35 -3 64.5t-16 53.5zM524 -26q29 23 51 54.5t34 71.5q-15 14 -30 26.5t-30 25.5q-45 39 -90.5 77.5t-90.5 77.5h-2
q-16 -19 -32 -37.5t-32 -38.5q46 -38 91 -76.5t90 -76.5q2 -2 3.5 -3t1.5 -3q-15 -3 -29.5 -7t-29.5 -8q-41 34 -80 68.5t-80 67.5q-33 -40 -66.5 -78.5t-65.5 -77.5q2 -2 3.5 -5t3.5 -5q32 38 64 75.5t64 74.5q3 -3 6.5 -5.5t7.5 -6.5q2 -2 7.5 -6.5t6.5 -6.5q1 -3 0 -8
t-1 -10q-3 -32 -6 -65t-5 -62q53 14 105 29t105 30q-29 -38 -61.5 -74t-61.5 -73q-1 -1 -3 -2t0 -2q48 4 85.5 19.5t66.5 39.5zM66 -173h28v-8h-18v-10h17v-9h-17v-18h-10v45zM143 -195q0 -24 -22 -24q-11 0 -16.5 6.5t-5.5 16.5q0 11 6 17.5t16 6.5q11 0 16.5 -6.5
t5.5 -16.5zM110 -195q0 -16 11 -16t11 16q0 6 -3 10.5t-8 4.5t-8 -4.5t-3 -10.5zM150 -218v45h12l9 -16q2 -4 3.5 -8t3.5 -8h1q-1 5 -1 9.5v9.5v13h9v-45h-11l-9 18q-5 6 -8 16v-20v-14h-9zM205 -181h-12v8h34v-8h-12v-37h-10v37zM271 -201q0 5 -0.5 9.5t-0.5 9.5
q-1 -5 -2 -9t-3 -9l-5 -17h-8l-5 17q-2 5 -2.5 9t-1.5 9q-1 -5 -1 -9.5v-9.5l-1 -17h-9l2 45h14l5 -15q1 -4 1.5 -8t1.5 -8h1q1 4 1.5 8t2.5 8l5 15h13l3 -45h-10zM331 -195q0 -24 -22 -24q-11 0 -16.5 6.5t-5.5 16.5q0 11 6 17.5t16 6.5q11 0 16.5 -6.5t5.5 -16.5z
M298 -195q0 -16 11 -16t11 16q0 6 -3 10.5t-8 4.5t-8 -4.5t-3 -10.5zM338 -218v45h12l9 -16q2 -4 3.5 -8t3.5 -8v19v13h9v-45h-11l-9 18q-5 6 -8 16v-20v-14h-9zM422 -216q-6 -2 -15 -2q-13 0 -19 6t-6 16q0 11 7.5 17.5t18.5 6.5q8 0 12 -2l-2 -9q-2 2 -10 2q-15 0 -15 -14
q0 -15 14 -15h5v10h-7v8h17v-24zM457 -199h-17v-11h19v-8h-29v45h28v-8h-18v-9h17v-9zM466 -173q2 0 5.5 0.5t7.5 0.5q11 0 15 -4q4 -3 4 -9q0 -9 -8 -11v-1q4 -1 6 -8q2 -4 2.5 -7.5t1.5 -5.5h-11q0 2 -3 11q-1 7 -7 7h-3v-18h-10v45zM476 -193h4q8 0 8 7q0 6 -8 6h-4v-13z
M504 -212q0 6 6 6t6 -6q0 -7 -6 -7t-6 7zM556 -217q-4 -2 -11 -2q-12 0 -18 6.5t-6 16.5q0 11 7 17.5t18 6.5q7 0 11 -2l-2 -8q-4 2 -9 2q-14 0 -14 -15t14 -15q7 0 9 1zM602 -195q0 -24 -22 -24q-10 0 -15.5 6.5t-5.5 16.5q0 11 6 17.5t16 6.5q11 0 16 -6.5t5 -16.5z
M570 -195q0 -16 11 -16t11 16q0 6 -3 10.5t-8 4.5t-8 -4.5t-3 -10.5zM647 -201v19q-2 -5 -3 -9t-2 -9l-6 -17h-8l-5 17q-1 5 -2 9t-2 9v-9.5t-1 -9.5v-17h-10l3 45h14l4 -15q2 -4 2.5 -8t1.5 -8l2 8l2 8l5 15h14l2 -45h-10z" />
    <glyph glyph-name="braceright" unicode="}" 
d="M339 489q19 1 39 0q69 -5 118 -31t86 -63t61 -88.5t28 -120.5v-18q-4 -72 -29 -123.5t-63 -89.5t-89.5 -62.5t-122.5 -28.5h-18q-5 1 -10 1h-10q-14 2 -28 4.5t-28 6.5q-2 1 -0.5 3t3.5 3q19 22 38.5 45t38.5 45q-31 -8 -61 -16.5t-61 -16.5q2 31 5 62l6 62
q-24 -27 -49 -56t-49 -58q-39 38 -65.5 88t-32.5 120q0 11 -0.5 20.5t0.5 19.5q2 32 11 62q12 44 33 78.5t47 61.5q37 36 86.5 60.5t115.5 29.5zM600 278q-20 48 -56 83q-33 33 -82 57t-117 21q-35 -2 -65 -12t-55 -24q-24 -14 -43.5 -32.5t-35.5 -40.5t-28 -49t-18 -59
q-6 -33 -2.5 -68.5t14.5 -65.5q8 8 15.5 17t15.5 18t15.5 18.5t15.5 18.5q47 55 93.5 109.5t93.5 109.5q64 -55 127.5 -109t127.5 -108q1 0 2 -2t1 0q2 35 -3 64.5t-16 53.5zM524 -26q29 23 51 54.5t34 71.5q-15 14 -30 26.5t-30 25.5q-45 39 -90.5 77.5t-90.5 77.5h-2
q-16 -19 -32 -37.5t-32 -38.5q46 -38 91 -76.5t90 -76.5q2 -2 3.5 -3t1.5 -3q-15 -3 -29.5 -7t-29.5 -8q-41 34 -80 68.5t-80 67.5q-33 -40 -66.5 -78.5t-65.5 -77.5q2 -2 3.5 -5t3.5 -5q32 38 64 75.5t64 74.5q3 -3 6.5 -5.5t7.5 -6.5q2 -2 7.5 -6.5t6.5 -6.5q1 -3 0 -8
t-1 -10q-3 -32 -6 -65t-5 -62q53 14 105 29t105 30q-29 -38 -61.5 -74t-61.5 -73q-1 -1 -3 -2t0 -2q48 4 85.5 19.5t66.5 39.5zM66 -173h28v-8h-18v-10h17v-9h-17v-18h-10v45zM143 -195q0 -24 -22 -24q-11 0 -16.5 6.5t-5.5 16.5q0 11 6 17.5t16 6.5q11 0 16.5 -6.5
t5.5 -16.5zM110 -195q0 -16 11 -16t11 16q0 6 -3 10.5t-8 4.5t-8 -4.5t-3 -10.5zM150 -218v45h12l9 -16q2 -4 3.5 -8t3.5 -8h1q-1 5 -1 9.5v9.5v13h9v-45h-11l-9 18q-5 6 -8 16v-20v-14h-9zM205 -181h-12v8h34v-8h-12v-37h-10v37zM271 -201q0 5 -0.5 9.5t-0.5 9.5
q-1 -5 -2 -9t-3 -9l-5 -17h-8l-5 17q-2 5 -2.5 9t-1.5 9q-1 -5 -1 -9.5v-9.5l-1 -17h-9l2 45h14l5 -15q1 -4 1.5 -8t1.5 -8h1q1 4 1.5 8t2.5 8l5 15h13l3 -45h-10zM331 -195q0 -24 -22 -24q-11 0 -16.5 6.5t-5.5 16.5q0 11 6 17.5t16 6.5q11 0 16.5 -6.5t5.5 -16.5z
M298 -195q0 -16 11 -16t11 16q0 6 -3 10.5t-8 4.5t-8 -4.5t-3 -10.5zM338 -218v45h12l9 -16q2 -4 3.5 -8t3.5 -8v19v13h9v-45h-11l-9 18q-5 6 -8 16v-20v-14h-9zM422 -216q-6 -2 -15 -2q-13 0 -19 6t-6 16q0 11 7.5 17.5t18.5 6.5q8 0 12 -2l-2 -9q-2 2 -10 2q-15 0 -15 -14
q0 -15 14 -15h5v10h-7v8h17v-24zM457 -199h-17v-11h19v-8h-29v45h28v-8h-18v-9h17v-9zM466 -173q2 0 5.5 0.5t7.5 0.5q11 0 15 -4q4 -3 4 -9q0 -9 -8 -11v-1q4 -1 6 -8q2 -4 2.5 -7.5t1.5 -5.5h-11q0 2 -3 11q-1 7 -7 7h-3v-18h-10v45zM476 -193h4q8 0 8 7q0 6 -8 6h-4v-13z
M504 -212q0 6 6 6t6 -6q0 -7 -6 -7t-6 7zM556 -217q-4 -2 -11 -2q-12 0 -18 6.5t-6 16.5q0 11 7 17.5t18 6.5q7 0 11 -2l-2 -8q-4 2 -9 2q-14 0 -14 -15t14 -15q7 0 9 1zM602 -195q0 -24 -22 -24q-10 0 -15.5 6.5t-5.5 16.5q0 11 6 17.5t16 6.5q11 0 16 -6.5t5 -16.5z
M570 -195q0 -16 11 -16t11 16q0 6 -3 10.5t-8 4.5t-8 -4.5t-3 -10.5zM647 -201v19q-2 -5 -3 -9t-2 -9l-6 -17h-8l-5 17q-1 5 -2 9t-2 9v-9.5t-1 -9.5v-17h-10l3 45h14l4 -15q2 -4 2.5 -8t1.5 -8l2 8l2 8l5 15h14l2 -45h-10z" />
    <glyph glyph-name="asciitilde" unicode="~" 
d="M339 489q19 1 39 0q69 -5 118 -31t86 -63t61 -88.5t28 -120.5v-18q-4 -72 -29 -123.5t-63 -89.5t-89.5 -62.5t-122.5 -28.5h-18q-5 1 -10 1h-10q-14 2 -28 4.5t-28 6.5q-2 1 -0.5 3t3.5 3q19 22 38.5 45t38.5 45q-31 -8 -61 -16.5t-61 -16.5q2 31 5 62l6 62
q-24 -27 -49 -56t-49 -58q-39 38 -65.5 88t-32.5 120q0 11 -0.5 20.5t0.5 19.5q2 32 11 62q12 44 33 78.5t47 61.5q37 36 86.5 60.5t115.5 29.5zM600 278q-20 48 -56 83q-33 33 -82 57t-117 21q-35 -2 -65 -12t-55 -24q-24 -14 -43.5 -32.5t-35.5 -40.5t-28 -49t-18 -59
q-6 -33 -2.5 -68.5t14.5 -65.5q8 8 15.5 17t15.5 18t15.5 18.5t15.5 18.5q47 55 93.5 109.5t93.5 109.5q64 -55 127.5 -109t127.5 -108q1 0 2 -2t1 0q2 35 -3 64.5t-16 53.5zM524 -26q29 23 51 54.5t34 71.5q-15 14 -30 26.5t-30 25.5q-45 39 -90.5 77.5t-90.5 77.5h-2
q-16 -19 -32 -37.5t-32 -38.5q46 -38 91 -76.5t90 -76.5q2 -2 3.5 -3t1.5 -3q-15 -3 -29.5 -7t-29.5 -8q-41 34 -80 68.5t-80 67.5q-33 -40 -66.5 -78.5t-65.5 -77.5q2 -2 3.5 -5t3.5 -5q32 38 64 75.5t64 74.5q3 -3 6.5 -5.5t7.5 -6.5q2 -2 7.5 -6.5t6.5 -6.5q1 -3 0 -8
t-1 -10q-3 -32 -6 -65t-5 -62q53 14 105 29t105 30q-29 -38 -61.5 -74t-61.5 -73q-1 -1 -3 -2t0 -2q48 4 85.5 19.5t66.5 39.5zM66 -173h28v-8h-18v-10h17v-9h-17v-18h-10v45zM143 -195q0 -24 -22 -24q-11 0 -16.5 6.5t-5.5 16.5q0 11 6 17.5t16 6.5q11 0 16.5 -6.5
t5.5 -16.5zM110 -195q0 -16 11 -16t11 16q0 6 -3 10.5t-8 4.5t-8 -4.5t-3 -10.5zM150 -218v45h12l9 -16q2 -4 3.5 -8t3.5 -8h1q-1 5 -1 9.5v9.5v13h9v-45h-11l-9 18q-5 6 -8 16v-20v-14h-9zM205 -181h-12v8h34v-8h-12v-37h-10v37zM271 -201q0 5 -0.5 9.5t-0.5 9.5
q-1 -5 -2 -9t-3 -9l-5 -17h-8l-5 17q-2 5 -2.5 9t-1.5 9q-1 -5 -1 -9.5v-9.5l-1 -17h-9l2 45h14l5 -15q1 -4 1.5 -8t1.5 -8h1q1 4 1.5 8t2.5 8l5 15h13l3 -45h-10zM331 -195q0 -24 -22 -24q-11 0 -16.5 6.5t-5.5 16.5q0 11 6 17.5t16 6.5q11 0 16.5 -6.5t5.5 -16.5z
M298 -195q0 -16 11 -16t11 16q0 6 -3 10.5t-8 4.5t-8 -4.5t-3 -10.5zM338 -218v45h12l9 -16q2 -4 3.5 -8t3.5 -8v19v13h9v-45h-11l-9 18q-5 6 -8 16v-20v-14h-9zM422 -216q-6 -2 -15 -2q-13 0 -19 6t-6 16q0 11 7.5 17.5t18.5 6.5q8 0 12 -2l-2 -9q-2 2 -10 2q-15 0 -15 -14
q0 -15 14 -15h5v10h-7v8h17v-24zM457 -199h-17v-11h19v-8h-29v45h28v-8h-18v-9h17v-9zM466 -173q2 0 5.5 0.5t7.5 0.5q11 0 15 -4q4 -3 4 -9q0 -9 -8 -11v-1q4 -1 6 -8q2 -4 2.5 -7.5t1.5 -5.5h-11q0 2 -3 11q-1 7 -7 7h-3v-18h-10v45zM476 -193h4q8 0 8 7q0 6 -8 6h-4v-13z
M504 -212q0 6 6 6t6 -6q0 -7 -6 -7t-6 7zM556 -217q-4 -2 -11 -2q-12 0 -18 6.5t-6 16.5q0 11 7 17.5t18 6.5q7 0 11 -2l-2 -8q-4 2 -9 2q-14 0 -14 -15t14 -15q7 0 9 1zM602 -195q0 -24 -22 -24q-10 0 -15.5 6.5t-5.5 16.5q0 11 6 17.5t16 6.5q11 0 16 -6.5t5 -16.5z
M570 -195q0 -16 11 -16t11 16q0 6 -3 10.5t-8 4.5t-8 -4.5t-3 -10.5zM647 -201v19q-2 -5 -3 -9t-2 -9l-6 -17h-8l-5 17q-1 5 -2 9t-2 9v-9.5t-1 -9.5v-17h-10l3 45h14l4 -15q2 -4 2.5 -8t1.5 -8l2 8l2 8l5 15h14l2 -45h-10z" />
    <glyph glyph-name="onehalf" unicode="&#xbd;" horiz-adv-x="239" 
 />
    <glyph glyph-name="dollar.001" horiz-adv-x="239" 
 />
  </font>
</defs>
</svg>
