<?xml version="1.0" standalone="no"?>
<!DOCTYPE svg PUBLIC "-//W3C//DTD SVG 1.1//EN" "http://www.w3.org/Graphics/SVG/1.1/DTD/svg11.dtd" >
<svg xmlns="http://www.w3.org/2000/svg" xmlns:xlink="http://www.w3.org/1999/xlink" version="1.1">
<metadata>
Created by FontForge 20201107 at Fri Mar  1 20:31:33 2024
 By 
Copyright (c) 2014 by Fontfabric. All rights reserved.
</metadata>
<defs>
<font id="MullerNarrow-Light" horiz-adv-x="1050" >
  <font-face 
    font-family="Muller Narrow Light"
    font-weight="300"
    font-stretch="normal"
    units-per-em="2048"
    panose-1="0 0 4 0 0 0 0 0 0 0"
    ascent="1638"
    descent="-410"
    x-height="983"
    cap-height="1434"
    bbox="-892.126 -506 1991 1937"
    underline-thickness="102"
    underline-position="-204"
    unicode-range="U+0020-25CA"
  />
<missing-glyph horiz-adv-x="1024" 
d="M840 1597v-2048h-650v2048h650zM682 1460h-338v-67h133v-76h-135v-68h340v68h-135v76h135v67zM547 1196h-205v-213h340v70h-135v143zM477 1126v-73h-67v73h67zM682 928h-340v-68h135v-76h-135v-67h205v143h135v68zM682 805h-68v-135h-272v-70h340v205zM682 555h-205v-115
h70v47h67v-96h-204v164h-68v-231h340v231zM682 201h-340v-232h340v232zM614 133v-96h-204v96h204zM682 -78h-340v-67h143l-143 -97v-67h340v67h-209l143 97h66v67z" />
    <glyph glyph-name="f_f" unicode="ff" horiz-adv-x="1087" 
d="M993 1350q-84 0 -131 -45t-47 -134v-188h254v-104h-254v-879h-117v879h-409v-879h-117v879h-143v104h143v158q0 139 73 216t204 77q77 0 151 -33v-103q-63 29 -133 29q-82 0 -130 -45t-48 -133v-166h409v182q0 138 73 214.5t202 76.5q79 0 153 -33v-102q-63 29 -133 29z
" />
    <glyph glyph-name="f_f_i" unicode="ffi" horiz-adv-x="1470" 
d="M1339 983v-983h-114v879h-410v-879h-117v879h-409v-879h-117v879h-143v104h143v158q0 139 73 216t204 77q77 0 151 -33v-103q-63 29 -133 29q-82 0 -130 -45t-48 -133v-166h409v158q0 151 87.5 233t232.5 82q136 0 250 -63v-111q-108 68 -232 68q-107 0 -164 -56
t-57 -168v-143h524z" />
    <glyph glyph-name="f_f_l" unicode="ffl" horiz-adv-x="1470" 
d="M172 0v879h-143v104h143v158q0 139 73 216t204 77q77 0 151 -33v-103q-63 29 -133 29q-82 0 -130 -45t-48 -133v-166h409v182q0 136 86 213.5t228 77.5q120 0 221 -45l18 23l88 22v-1456h-114v1303q-96 47 -201 47q-98 0 -153.5 -48.5t-55.5 -144.5v-174h246v-104h-246
v-879h-117v879h-409v-879h-117z" />
    <glyph glyph-name=".notdef" horiz-adv-x="1024" 
d="M840 1597v-2048h-650v2048h650zM682 1460h-338v-67h133v-76h-135v-68h340v68h-135v76h135v67zM547 1196h-205v-213h340v70h-135v143zM477 1126v-73h-67v73h67zM682 928h-340v-68h135v-76h-135v-67h205v143h135v68zM682 805h-68v-135h-272v-70h340v205zM682 555h-205v-115
h70v47h67v-96h-204v164h-68v-231h340v231zM682 201h-340v-232h340v232zM614 133v-96h-204v96h204zM682 -78h-340v-67h143l-143 -97v-67h340v67h-209l143 97h66v67z" />
    <glyph glyph-name=".null" horiz-adv-x="0" 
 />
    <glyph glyph-name="nonmarkingreturn" horiz-adv-x="682" 
 />
    <glyph glyph-name="space" unicode=" " horiz-adv-x="407" 
 />
    <glyph glyph-name="exclam" unicode="!" horiz-adv-x="411" 
d="M154 387l-9 1047h121l-10 -1047h-102zM205 -16q-34 0 -57 22t-23 60t23 59.5t57 21.5t58 -21.5t24 -59.5t-24 -60t-58 -22z" />
    <glyph glyph-name="quotedbl" unicode="&#x22;" horiz-adv-x="559" 
d="M113 989v445h116l-28 -445h-88zM346 989v445h117l-31 -445h-86z" />
    <glyph glyph-name="numbersign" unicode="#" horiz-adv-x="1144" 
d="M154 0l69 367h-168v102h187l90 457h-174v102h192l72 367h113l-70 -367h342l70 367h114l-71 -367h170v-102h-189l-88 -457h174v-102h-192l-72 -367h-115l72 367h-342l-72 -367h-112zM356 469h342l90 457h-342z" />
    <glyph glyph-name="dollar" unicode="$" horiz-adv-x="915" 
d="M862 342q0 -161 -98.5 -255t-255.5 -107v-228h-102v225q-170 9 -314 91v116q86 -51 169.5 -71.5t184.5 -20.5q133 0 213 64t80 178q0 76 -37 134.5t-95.5 96t-129.5 70.5t-142.5 69t-130 80t-95.5 115t-37 164q0 149 93.5 240.5t240.5 107.5v229h102v-225q135 -9 272 -86
v-117q-142 88 -303 88q-125 0 -203.5 -59.5t-78.5 -173.5q0 -63 28.5 -114.5t75.5 -85t107 -66.5t122.5 -59.5t122.5 -64t107 -80t75.5 -108.5t28.5 -147z" />
    <glyph glyph-name="percent" unicode="%" horiz-adv-x="1329" 
d="M340 838q-123 0 -205 83.5t-82 225.5t82 225.5t205 83.5q121 0 202 -83.5t81 -225.5t-81 -225.5t-202 -83.5zM195 0l831 1434h109l-830 -1434h-110zM340 940q82 0 127 58t45 149t-45 149t-127 58q-85 0 -130.5 -57.5t-45.5 -149.5t45.5 -149.5t130.5 -57.5zM991 -23
q-122 0 -203 84t-81 226t81 225.5t203 83.5t203.5 -83.5t81.5 -225.5t-81.5 -226t-203.5 -84zM991 80q83 0 128.5 58t45.5 149t-45.5 149t-128.5 58q-82 0 -128 -58t-46 -149t46 -149t128 -58z" />
    <glyph glyph-name="ampersand" unicode="&#x26;" horiz-adv-x="1175" 
d="M1169 0h-147l-137 158q-153 -181 -404 -181q-199 0 -306 101t-107 250q0 78 24.5 145.5t70.5 121t88.5 89t102.5 76.5q-40 46 -62 75t-52.5 77.5t-45 101t-14.5 110.5q0 63 24.5 122t68.5 106t112 75.5t150 28.5q139 0 226 -85t87 -214q0 -57 -18.5 -109t-46.5 -92
t-74 -81t-87 -69.5t-100 -64.5l350 -397q67 140 64 313h121q0 -228 -105 -407zM532 1346q-59 0 -105 -20t-73 -53t-41 -71t-14 -78q0 -47 12.5 -90t40.5 -85t46.5 -64.5t54.5 -63.5q61 36 105 68.5t85.5 74t63.5 88t22 97.5q0 86 -53 141.5t-144 55.5zM481 88q206 0 330 154
l-383 434q-42 -29 -70.5 -50.5t-63.5 -55.5t-56 -66.5t-35.5 -76.5t-14.5 -93q0 -108 74.5 -177t218.5 -69z" />
    <glyph glyph-name="quotesingle" unicode="'" horiz-adv-x="327" 
d="M113 989v445h116l-28 -445h-88z" />
    <glyph glyph-name="parenleft" unicode="(" horiz-adv-x="507" 
d="M483 1554q-127 -191 -198.5 -442.5t-71.5 -497.5t71.5 -497.5t198.5 -442.5h-114q-133 198 -210 447t-77 493t77 493t210 447h114z" />
    <glyph glyph-name="parenright" unicode=")" horiz-adv-x="507" 
d="M23 1554h114q133 -197 210 -446t77 -494t-77 -494t-210 -446h-114q128 192 200 443.5t72 496.5t-72 496.5t-200 443.5z" />
    <glyph glyph-name="asterisk" unicode="*" horiz-adv-x="706" 
d="M227 897l-88 61l144 177l-211 63l37 102l202 -86l-10 220h105l-9 -220l201 86l39 -102l-213 -63l145 -177l-90 -61l-125 190z" />
    <glyph glyph-name="plus" unicode="+" horiz-adv-x="870" 
d="M797 770v-106h-308v-310h-110v310h-305v106h305v309h110v-309h308z" />
    <glyph glyph-name="comma" unicode="," horiz-adv-x="331" 
d="M80 -301l33 459h123l-62 -459h-94z" />
    <glyph glyph-name="hyphen" unicode="-" horiz-adv-x="774" 
d="M666 559v-110h-557v110h557z" />
    <glyph glyph-name="period" unicode="." horiz-adv-x="337" 
d="M170 -16q-34 0 -58 22t-24 60t24 59.5t58 21.5t57 -21.5t23 -59.5t-23 -60t-57 -22z" />
    <glyph glyph-name="slash" unicode="/" horiz-adv-x="673" 
d="M131 -119h-82l492 1671h84z" />
    <glyph glyph-name="zero" unicode="0" horiz-adv-x="1099" 
d="M551 -23q-120 0 -209.5 53.5t-143.5 152t-80 226.5t-26 287t26 287t80 226.5t143.5 152t209.5 53.5q96 0 172.5 -35.5t129.5 -99t88 -154t51 -197.5t16 -233t-16 -233t-51 -197.5t-88 -154t-129.5 -99t-172.5 -35.5zM551 92q334 0 334 604t-334 604q-336 0 -336 -604
t336 -604z" />
    <glyph glyph-name="one" unicode="1" horiz-adv-x="724" 
d="M74 0v117h264v1145l-256 -111v115l289 127h88v-1276h241v-117h-626z" />
    <glyph glyph-name="two" unicode="2" horiz-adv-x="911" 
d="M444 1415q168 0 272.5 -95t104.5 -255q0 -49 -10.5 -95t-24 -81.5t-41.5 -75.5t-48.5 -65t-61.5 -63t-62.5 -56.5t-68.5 -57.5q-43 -35 -57 -47t-52.5 -45.5t-54 -51t-44.5 -50.5t-42 -58.5t-29 -59.5t-22.5 -69.5t-7.5 -74.5l636 2v-117h-761v76q0 59 11.5 113.5
t27.5 97.5t46 88.5t54.5 76t67 71t68.5 63t73 61.5q47 40 73 62.5t64.5 59.5t59.5 66.5t43.5 67.5t32 78t9.5 84q0 107 -75 172.5t-189 65.5q-169 0 -330 -109v123q159 98 338 98z" />
    <glyph glyph-name="three" unicode="3" horiz-adv-x="919" 
d="M395 -23q-179 0 -317 66v115q143 -69 313 -66q139 0 233.5 75.5t94.5 211.5q0 94 -42.5 159.5t-108.5 94.5t-148 29h-154v114h154q108 0 179 76t71 184q0 121 -80 194t-228 73q-132 0 -270 -66v115q135 63 287 63q186 0 296.5 -105.5t110.5 -271.5q0 -106 -56.5 -193.5
t-149.5 -119.5q104 -26 180 -118t76 -234q0 -123 -62.5 -214.5t-161 -136.5t-217.5 -45z" />
    <glyph glyph-name="four" unicode="4" horiz-adv-x="1026" 
d="M680 0v326h-649v90l645 977h123v-955h182v-112h-182v-326h-119zM176 438h504v754z" />
    <glyph glyph-name="five" unicode="5" horiz-adv-x="917" 
d="M406 -23q-186 0 -316 70v117q138 -74 299 -74q151 0 243.5 84.5t92.5 235.5q0 146 -89.5 224.5t-238.5 78.5q-139 0 -278 -56l37 736h624v-117h-514l-24 -481q86 26 184 26q191 0 306.5 -110t115.5 -301q0 -196 -123 -314.5t-319 -118.5z" />
    <glyph glyph-name="six" unicode="6" horiz-adv-x="1017" 
d="M549 856q84 0 156.5 -27t128 -78.5t87 -135t31.5 -189.5q0 -202 -108.5 -325.5t-298.5 -123.5q-149 0 -253 85t-152 228.5t-48 334.5q0 398 135 594t379 196q133 0 252 -67v-115q-109 70 -248 70q-374 0 -393 -588q144 141 332 141zM543 92q142 0 214 89.5t72 238.5
q0 158 -77 240.5t-207 82.5q-183 0 -330 -159q8 -230 90.5 -361t237.5 -131z" />
    <glyph glyph-name="seven" unicode="7" horiz-adv-x="847" 
d="M807 1393v-109l-436 -1284h-123l434 1276h-647v117h772z" />
    <glyph glyph-name="eight" unicode="8" horiz-adv-x="1054" 
d="M528 -23q-108 0 -194 30.5t-140 83t-82 119t-28 140.5q0 126 66.5 231.5t177.5 180.5q-92 56 -142.5 130.5t-50.5 182.5q0 64 24.5 123.5t71.5 108.5t124 78.5t173 29.5q181 0 287.5 -102.5t106.5 -249.5q0 -100 -54 -194.5t-149 -170.5q57 -29 98.5 -59t79 -72t57 -98
t19.5 -125q0 -68 -26 -131t-77.5 -117t-140 -86.5t-201.5 -32.5zM621 748q79 61 129.5 142.5t50.5 172.5q0 105 -73.5 172.5t-199.5 67.5q-128 0 -200 -68t-72 -168q0 -30 6 -57t20.5 -50t28 -41t40 -37t44 -30.5t53.5 -28.5t54.5 -25t60 -25.5t58.5 -24.5zM528 92
q156 0 239 72t83 182q0 51 -19.5 94t-46 72t-76 59t-86.5 47.5t-101 45.5t-99 45q-215 -149 -215 -351q0 -120 85 -193t236 -73z" />
    <glyph glyph-name="nine" unicode="9" horiz-adv-x="1015" 
d="M424 -23q-131 0 -252 68v115q109 -70 248 -70q359 0 381 588q-148 -141 -332 -141q-85 0 -157.5 27t-128.5 78.5t-88 135t-32 189.5q0 201 109.5 324.5t298.5 123.5q113 0 200 -48t142 -135t83 -204.5t28 -259.5q0 -396 -133 -593.5t-367 -197.5zM473 649q96 0 175 39.5
t155 120.5q-8 230 -91 360.5t-239 130.5q-141 0 -214 -89t-73 -238q0 -158 77.5 -241t209.5 -83z" />
    <glyph glyph-name="colon" unicode=":" horiz-adv-x="391" 
d="M197 729q-34 0 -58 22t-24 60t24 60t58 22t56.5 -22t22.5 -60t-22.5 -60t-56.5 -22zM197 -16q-34 0 -58 22t-24 60t24 59.5t58 21.5t56.5 -21.5t22.5 -59.5t-22.5 -60t-56.5 -22z" />
    <glyph glyph-name="semicolon" unicode=";" horiz-adv-x="372" 
d="M188 809q-34 0 -58 22t-24 60t24 60t58 22t58 -22t24 -60t-24 -60t-58 -22zM96 -301l33 459h123l-62 -459h-94z" />
    <glyph glyph-name="less" unicode="&#x3c;" horiz-adv-x="811" 
d="M686 338l-623 321v115l623 322v-119l-510 -260l510 -260v-119z" />
    <glyph glyph-name="equal" unicode="=" horiz-adv-x="882" 
d="M117 848v110h649v-110h-649zM117 475v111h649v-111h-649z" />
    <glyph glyph-name="greater" unicode="&#x3e;" horiz-adv-x="811" 
d="M125 338v119l510 260l-510 260v119l623 -322v-115z" />
    <glyph glyph-name="question" unicode="?" horiz-adv-x="800" 
d="M319 426q0 63 16.5 123t43.5 107.5t59 93.5t64 89.5t59 87t43.5 95t16.5 104.5q0 98 -64.5 156.5t-183.5 58.5q-167 0 -320 -118v123q148 110 334 110q163 0 259.5 -90.5t96.5 -226.5q0 -63 -17 -122t-44 -106.5t-59.5 -93.5t-65.5 -91t-60 -90t-44 -99t-17 -111h-117z
M375 -16q-34 0 -57 22t-23 60t23 59.5t57 21.5t58 -21.5t24 -59.5t-24 -60t-58 -22z" />
    <glyph glyph-name="at" unicode="@" horiz-adv-x="1771" 
d="M954 -473q-197 0 -358 63t-276.5 183.5t-178.5 304t-63 414.5q0 151 32.5 291t101 262.5t165.5 214t234.5 144t299.5 52.5q157 0 288 -54.5t219 -143.5t149 -205t88.5 -238t27.5 -244q0 -271 -82 -412t-245 -141q-198 0 -246 197q-97 -152 -258 -152q-149 0 -235.5 115
t-86.5 307q0 194 86.5 310t235.5 116q76 0 139 -36.5t101 -104.5v123h114v-557q0 -107 35 -161t121 -54q60 0 101 32t62 96t29.5 140t8.5 182q0 109 -23.5 215.5t-75 207.5t-126 177.5t-185 123t-242.5 46.5q-140 0 -257.5 -46t-200.5 -125.5t-141 -187.5t-85.5 -232
t-27.5 -258q0 -406 200 -628t557 -222q206 0 414 73v-114q-202 -74 -416 -74zM872 170q137 0 220 152v331q-83 152 -220 152q-103 0 -164 -85t-61 -233t60.5 -232.5t164.5 -84.5z" />
    <glyph glyph-name="A" unicode="A" horiz-adv-x="1118" 
d="M10 0l484 1434h131l483 -1434h-129l-125 383h-590l-125 -383h-129zM301 496h516l-209 630q-32 102 -49 168q-17 -66 -49 -168z" />
    <glyph glyph-name="B" unicode="B" horiz-adv-x="1114" 
d="M569 1434q199 0 307.5 -90t108.5 -271q0 -135 -61.5 -214.5t-147.5 -106.5q34 -8 67.5 -23.5t70 -44.5t64 -67.5t45.5 -97.5t19 -130q0 -80 -22 -144t-60 -105t-83.5 -70t-101 -43.5t-104 -20.5t-100.5 -6h-417v1434h415zM559 1317h-283v-514h316q121 0 195.5 63.5
t74.5 190.5q0 141 -74.5 200.5t-228.5 59.5zM586 688h-310v-571h273q42 0 74.5 2t73 8.5t70 18t60 33t49.5 50.5t31.5 73t12.5 99q-2 287 -334 287z" />
    <glyph glyph-name="C" unicode="C" horiz-adv-x="980" 
d="M627 -23q-115 0 -213 45.5t-173.5 134t-118.5 230t-42 320.5q1 175 44 317t119 236t179 145t225 51q150 0 268 -72v-110q-116 67 -262 67q-205 0 -327 -165.5t-123 -468.5q-1 -290 116 -452.5t324 -162.5q148 0 283 72v-117q-137 -70 -299 -70z" />
    <glyph glyph-name="D" unicode="D" horiz-adv-x="1165" 
d="M489 1434q594 0 594 -717t-594 -717h-335v1434h335zM489 1317h-213v-1200h213q250 0 361 150.5t111 449.5t-111 449.5t-361 150.5z" />
    <glyph glyph-name="E" unicode="E" horiz-adv-x="970" 
d="M154 0v1434h737v-117h-615v-537h553v-116h-553v-547h629v-117h-751z" />
    <glyph glyph-name="F" unicode="F" horiz-adv-x="942" 
d="M899 1434v-117h-623v-559h564v-117h-564v-641h-122v1434h745z" />
    <glyph glyph-name="G" unicode="G" horiz-adv-x="1101" 
d="M635 -23q-91 0 -170.5 24.5t-151 80t-122.5 138.5t-81 208.5t-30 282.5q0 175 45.5 317.5t125 235t186 142.5t229.5 50q184 0 303 -76v-116q-126 77 -289 77q-212 0 -344.5 -168t-132.5 -462q0 -161 34.5 -282.5t96.5 -193.5t140.5 -107.5t172.5 -35.5q142 0 240 64v600
h121v-670q-148 -109 -373 -109z" />
    <glyph glyph-name="H" unicode="H" horiz-adv-x="1216" 
d="M1063 1434v-1434h-123v662h-664v-662h-122v1434h122v-656h664v656h123z" />
    <glyph glyph-name="I" unicode="I" horiz-adv-x="430" 
d="M276 1434v-1434h-122v1434h122z" />
    <glyph glyph-name="J" unicode="J" horiz-adv-x="829" 
d="M309 -23q-149 0 -270 58v117q120 -60 256 -60q124 0 196 68t72 198v959h-336v117h457v-1080q0 -186 -103 -281.5t-272 -95.5z" />
    <glyph glyph-name="K" unicode="K" horiz-adv-x="1071" 
d="M154 0v1434h122v-643h197l436 643h140l-476 -699l496 -735h-139l-453 676h-201v-676h-122z" />
    <glyph glyph-name="L" unicode="L" horiz-adv-x="923" 
d="M276 1434v-1317h623v-117h-745v1434h122z" />
    <glyph glyph-name="M" unicode="M" horiz-adv-x="1431" 
d="M154 0v1434h127l434 -865l434 865h127v-1434h-121v877q0 199 10 340l-420 -838h-61l-420 838q12 -170 12 -340v-877h-122z" />
    <glyph glyph-name="N" unicode="N" horiz-adv-x="1216" 
d="M154 0v1434h127l669 -1215q-10 167 -10 328v887h123v-1434h-127l-670 1214q10 -163 10 -325v-889h-122z" />
    <glyph glyph-name="O" unicode="O" horiz-adv-x="1202" 
d="M602 -23q-254 0 -387 197t-133 543t133 542.5t387 196.5q253 0 385.5 -196.5t132.5 -542.5t-132.5 -543t-385.5 -197zM602 92q196 0 295.5 163.5t99.5 461.5t-99.5 461t-295.5 163t-296.5 -163.5t-100.5 -460.5t100.5 -461t296.5 -164z" />
    <glyph glyph-name="P" unicode="P" horiz-adv-x="1062" 
d="M526 1434q226 0 354 -115t128 -340t-128 -341t-354 -116h-250v-522h-122v1434h372zM532 1317h-256v-678h256q169 0 261 87t92 253q0 167 -91 252.5t-262 85.5z" />
    <glyph glyph-name="Q" unicode="Q" horiz-adv-x="1202" 
d="M999 -100l-118 163q-115 -86 -279 -86q-254 0 -387 197t-133 543t133 542.5t387 196.5q253 0 385.5 -196.5t132.5 -542.5q0 -381 -159 -578l129 -176zM602 92q119 0 209 68l-190 262l90 65l176 -241q110 155 110 471q0 298 -99.5 461t-295.5 163t-296.5 -163.5
t-100.5 -460.5t100.5 -461t296.5 -164z" />
    <glyph glyph-name="R" unicode="R" horiz-adv-x="1122" 
d="M154 0v1434h426q128 0 227.5 -46.5t160 -145t60.5 -236.5q0 -159 -80 -266t-229 -144l371 -596h-144l-356 580h-314v-580h-122zM276 694h306q146 0 234.5 81.5t88.5 230.5q0 150 -87 230.5t-232 80.5h-310v-623z" />
    <glyph glyph-name="S" unicode="S" horiz-adv-x="968" 
d="M481 -23q-118 0 -210.5 23t-178.5 78v117q91 -55 181 -79t200 -24q148 0 235 69t87 193q0 60 -25 108.5t-67 83t-96.5 63.5t-114.5 55t-120.5 52.5t-115 61t-96.5 75.5t-67 101t-25 133q0 116 58 201t152.5 126.5t213.5 41.5q184 0 339 -94v-117q-154 96 -331 96
q-139 0 -224.5 -64.5t-85.5 -184.5q0 -63 31.5 -114.5t82.5 -85.5t116.5 -67.5t133.5 -60.5t133.5 -65t116.5 -81t82.5 -109t31.5 -147q0 -186 -122 -285.5t-315 -99.5z" />
    <glyph glyph-name="T" unicode="T" horiz-adv-x="958" 
d="M418 0v1317h-395v117h913v-117h-395v-1317h-123z" />
    <glyph glyph-name="U" unicode="U" horiz-adv-x="1193" 
d="M596 -23q-97 0 -176 24.5t-142.5 76t-99 141.5t-35.5 211v1004h121v-998q0 -344 332 -344q334 0 334 344v998h121v-1004q0 -98 -23.5 -175.5t-65 -128.5t-99.5 -85t-124 -49t-143 -15z" />
    <glyph glyph-name="V" unicode="V" horiz-adv-x="1089" 
d="M479 0l-465 1434h127l361 -1127q28 -89 43 -168q15 79 43 168l360 1127h127l-465 -1434h-131z" />
    <glyph glyph-name="W" unicode="W" horiz-adv-x="1619" 
d="M362 0l-333 1434h125l276 -1239l336 1212h86l336 -1212l278 1239h125l-334 -1434h-127l-321 1151l-320 -1151h-127z" />
    <glyph glyph-name="X" unicode="X" horiz-adv-x="1054" 
d="M2 0l459 741l-428 693h135l360 -586l361 586h133l-426 -693l457 -741h-138l-387 633l-389 -633h-137z" />
    <glyph glyph-name="Y" unicode="Y" horiz-adv-x="1073" 
d="M475 0v610l-461 824h133l390 -707l389 707h133l-461 -824v-610h-123z" />
    <glyph glyph-name="Z" unicode="Z" horiz-adv-x="931" 
d="M39 0v106l694 1211h-665v117h804v-107l-694 -1210h713v-117h-852z" />
    <glyph glyph-name="bracketleft" unicode="[" horiz-adv-x="540" 
d="M147 -328v1884h342v-116h-219v-1651h219v-117h-342z" />
    <glyph glyph-name="backslash" unicode="\" horiz-adv-x="673" 
d="M541 -119l-492 1671h84l492 -1671h-84z" />
    <glyph glyph-name="bracketright" unicode="]" horiz-adv-x="540" 
d="M391 -328h-340v117h219v1651h-219v116h340v-1884z" />
    <glyph glyph-name="asciicircum" unicode="^" horiz-adv-x="886" 
d="M66 784l327 650h103l325 -650h-125l-252 510l-254 -510h-124z" />
    <glyph glyph-name="underscore" unicode="_" horiz-adv-x="772" 
d="M0 -287v111h772v-111h-772z" />
    <glyph glyph-name="grave" unicode="`" horiz-adv-x="444" 
d="M262 1583l-201 277h140l182 -277h-121z" />
    <glyph glyph-name="a" unicode="a" horiz-adv-x="892" 
d="M840 92q21 0 39 6v-96q-38 -10 -70 -10q-127 0 -154 121q-101 -136 -290 -136q-85 0 -154 29.5t-114.5 98t-45.5 167.5q0 155 106.5 236.5t280.5 81.5q88 0 201 -29v103q0 109 -55.5 172t-190.5 63q-137 0 -282 -61v112q149 56 295 56q348 0 348 -357v-463q0 -94 86 -94z
M381 80q178 0 258 151v230q-91 26 -182 26q-132 0 -209.5 -51.5t-77.5 -156.5q0 -94 58 -146.5t153 -52.5z" />
    <glyph glyph-name="b" unicode="b" horiz-adv-x="974" 
d="M522 -23q-103 0 -177 50.5t-114 130.5v-158h-106v1434h117v-594q40 72 110 119t170 47q123 0 209.5 -69t127 -183t40.5 -262t-40.5 -262t-127 -183.5t-209.5 -69.5zM504 84q139 0 207.5 109.5t68.5 298.5t-68.5 298t-207.5 109q-92 0 -158 -54.5t-104 -154.5v-397
q38 -100 104 -154.5t158 -54.5z" />
    <glyph glyph-name="c" unicode="c" horiz-adv-x="782" 
d="M502 -23q-208 0 -317 138t-109 377q0 234 115 374t311 140q117 0 213 -54v-108q-94 55 -199 55q-153 0 -237 -109.5t-84 -297.5q0 -193 77 -299.5t230 -106.5q119 0 223 51v-106q-96 -54 -223 -54z" />
    <glyph glyph-name="d" unicode="d" horiz-adv-x="974" 
d="M76 492q0 148 40.5 262t127 183t209.5 69q100 0 170 -47t110 -119v594h117v-1434h-107v158q-40 -80 -114 -130.5t-176 -50.5q-123 0 -209.5 69.5t-127 183.5t-40.5 262zM733 293v397q-38 100 -104 154.5t-158 54.5q-139 0 -207.5 -109t-68.5 -298t68.5 -298.5
t207.5 -109.5q92 0 158 54.5t104 154.5z" />
    <glyph glyph-name="e" unicode="e" horiz-adv-x="905" 
d="M535 -23q-224 0 -341.5 137.5t-117.5 377.5q0 233 106 373.5t293 140.5q134 0 222.5 -75.5t122 -202.5t16.5 -294h-639q23 -348 344 -348q131 0 237 53v-108q-108 -54 -243 -54zM195 537h532q6 169 -57.5 263.5t-194.5 94.5q-129 0 -200.5 -95.5t-79.5 -262.5z" />
    <glyph glyph-name="f" unicode="f" horiz-adv-x="561" 
d="M172 0v879h-143v104h143v182q0 138 73 214.5t204 76.5q77 0 151 -33v-102q-63 29 -133 29q-82 0 -130 -45.5t-48 -133.5v-188h254v-104h-254v-879h-117z" />
    <glyph glyph-name="g" unicode="g" horiz-adv-x="974" 
d="M420 -473q-150 0 -256 53v109q105 -54 250 -54q158 0 238.5 82.5t80.5 235.5v192q-40 -73 -109.5 -120.5t-170.5 -47.5q-123 0 -209.5 69.5t-127 183.5t-40.5 262t40.5 262t127 183t209.5 69q199 0 290 -187v164h107v-1030q0 -71 -16 -133.5t-49.5 -116.5t-83.5 -93
t-122 -61t-159 -22zM471 84q92 0 158 54.5t104 154.5v397q-77 209 -262 209q-139 0 -207.5 -109t-68.5 -298t68.5 -298.5t207.5 -109.5z" />
    <glyph glyph-name="h" unicode="h" horiz-adv-x="948" 
d="M125 0v1434h117v-580q41 71 112.5 111.5t167.5 40.5q139 0 223 -90t84 -248v-668h-116v662q0 118 -57.5 177.5t-157.5 59.5q-92 0 -159.5 -56.5t-96.5 -144.5v-698h-117z" />
    <glyph glyph-name="i" unicode="i" horiz-adv-x="376" 
d="M188 1204q-34 0 -56.5 20t-22.5 58q0 36 23 57t56 21q34 0 57 -21t23 -57q0 -38 -23 -58t-57 -20zM131 0v983h115v-983h-115z" />
    <glyph glyph-name="j" unicode="j" horiz-adv-x="389" 
d="M201 1204q-34 0 -57 20t-23 58q0 36 23 57t57 21t57 -21t23 -57q0 -38 -23 -58t-57 -20zM39 -473q-73 0 -121 18v103q43 -15 88 -15q71 0 104 38.5t33 127.5v1184h115v-1204q0 -124 -59.5 -189t-159.5 -63z" />
    <glyph glyph-name="k" unicode="k" horiz-adv-x="851" 
d="M125 0v1434h117v-877h159l293 426h135l-335 -483l354 -500h-137l-314 449h-155v-449h-117z" />
    <glyph glyph-name="l" unicode="l" horiz-adv-x="376" 
d="M246 1495v-1495h-115v1495h115z" />
    <glyph glyph-name="m" unicode="m" horiz-adv-x="1439" 
d="M1024 1006q143 0 220 -91t77 -241v-674h-117v668q0 113 -48.5 172t-143.5 59q-141 0 -232 -172v-727h-114v668q0 112 -49.5 171.5t-141.5 59.5q-151 0 -233 -184v-715h-117v983h106v-133q95 156 261 156q179 0 249 -160q107 160 283 160z" />
    <glyph glyph-name="n" unicode="n" horiz-adv-x="948" 
d="M125 0v983h106v-141q40 75 115 119.5t176 44.5q139 0 223 -90t84 -248v-668h-116v662q0 118 -57.5 177.5t-157.5 59.5q-92 0 -159.5 -56.5t-96.5 -144.5v-698h-117z" />
    <glyph glyph-name="o" unicode="o" horiz-adv-x="952" 
d="M475 1006q193 0 296 -134t103 -380q0 -244 -103.5 -379.5t-295.5 -135.5q-191 0 -295 136t-104 379t104 378.5t295 135.5zM475 899q-138 0 -209 -107t-71 -300t71 -299.5t209 -106.5q140 0 210.5 106.5t70.5 299.5t-70.5 300t-210.5 107z" />
    <glyph glyph-name="p" unicode="p" horiz-adv-x="974" 
d="M899 492q0 -148 -40.5 -262t-127 -183.5t-209.5 -69.5q-100 0 -170 47t-110 119v-594h-117v1434h106v-158q40 80 114 130.5t177 50.5q123 0 209.5 -69t127 -183t40.5 -262zM242 690v-397q38 -100 104 -154.5t158 -54.5q139 0 207.5 109.5t68.5 298.5t-68.5 298
t-207.5 109q-92 0 -158 -54.5t-104 -154.5z" />
    <glyph glyph-name="q" unicode="q" horiz-adv-x="974" 
d="M453 1006q102 0 176 -50.5t114 -130.5v158h107v-1434h-117v594q-40 -72 -110 -119t-170 -47q-123 0 -209.5 69.5t-127 183.5t-40.5 262t40.5 262t127 183t209.5 69zM471 899q-139 0 -207.5 -109t-68.5 -298t68.5 -298.5t207.5 -109.5q92 0 158 54.5t104 154.5v397
q-38 100 -104 154.5t-158 54.5z" />
    <glyph glyph-name="r" unicode="r" horiz-adv-x="606" 
d="M125 0v983h106v-197q92 228 353 218v-117q-130 9 -219 -54.5t-123 -207.5v-625h-117z" />
    <glyph glyph-name="s" unicode="s" horiz-adv-x="774" 
d="M397 1006q135 0 265 -68v-111q-124 74 -256 74q-95 0 -154 -43.5t-59 -118.5q0 -50 29 -87t75.5 -59.5t102.5 -42.5t112 -44t102.5 -55t75.5 -83t29 -122q0 -130 -94.5 -199.5t-239.5 -69.5q-188 0 -307 76v115q128 -84 301 -84q103 0 163 41t60 119q0 45 -22.5 79
t-60 54.5t-84.5 40.5t-97 35.5t-97 40.5t-84.5 54.5t-60 78t-22.5 110.5q0 122 89 195.5t234 73.5z" />
    <glyph glyph-name="t" unicode="t" horiz-adv-x="602" 
d="M420 -23q-113 -2 -179.5 66.5t-66.5 198.5v637h-149v104h149v264l115 27v-291h272v-104h-272v-619q0 -90 35.5 -133t107.5 -43q70 3 133 31v-109q-66 -29 -145 -29z" />
    <glyph glyph-name="u" unicode="u" horiz-adv-x="948" 
d="M823 983v-983h-106v141q-40 -75 -115 -119.5t-176 -44.5q-139 0 -223 90t-84 248v668h117v-661q0 -118 57.5 -178t157.5 -60q92 0 159.5 56.5t96.5 144.5v698h116z" />
    <glyph glyph-name="v" unicode="v" horiz-adv-x="868" 
d="M373 0l-344 983h127l243 -721q25 -84 35 -139q10 55 35 139l244 721h127l-344 -983h-123z" />
    <glyph glyph-name="w" unicode="w" horiz-adv-x="1312" 
d="M305 0l-272 983h123l213 -819l235 805h105l235 -805l213 819h121l-272 -983h-119l-232 788l-231 -788h-119z" />
    <glyph glyph-name="x" unicode="x" horiz-adv-x="837" 
d="M16 0l338 508l-317 475h133l221 -336l29 -49q5 9 29 49l221 336h131l-314 -475l334 -508h-131l-225 338q-25 39 -45 86q-20 -47 -45 -86l-225 -338h-134z" />
    <glyph glyph-name="y" unicode="y" horiz-adv-x="886" 
d="M121 -451v105q86 -12 139 27q64 48 113 196l39 119l-394 987h121l326 -838l268 838h125l-377 -1135q-33 -97 -69 -159t-86 -95q-81 -62 -205 -45z" />
    <glyph glyph-name="z" unicode="z" horiz-adv-x="759" 
d="M690 983v-100l-504 -779h525v-104h-664v100l504 779h-479v104h618z" />
    <glyph glyph-name="braceleft" unicode="{" horiz-adv-x="534" 
d="M475 -328q-137 -27 -205.5 31t-68.5 184v508q0 43 -9.5 73.5t-24.5 47.5t-38.5 26.5t-44.5 12t-51 2.5v115q30 0 51 2.5t45 11.5t38.5 26t24 48t9.5 74v507q0 126 68.5 184.5t205.5 30.5v-116q-87 13 -120 -21t-33 -125v-454q0 -104 -34 -159t-83 -67q49 -12 83 -66.5
t34 -158.5v-455q0 -91 33 -124.5t120 -20.5v-117z" />
    <glyph glyph-name="bar" unicode="|" horiz-adv-x="417" 
d="M147 -205v1864h123v-1864h-123z" />
    <glyph glyph-name="braceright" unicode="}" horiz-adv-x="534" 
d="M59 -328v117q87 -13 120.5 21t33.5 124v455q0 104 34 158.5t83 66.5q-49 12 -83 67t-34 159v454q0 91 -33.5 125t-120.5 21v116q137 28 206 -30.5t69 -184.5v-507q0 -43 9.5 -74t24 -48t38.5 -26t45 -11.5t51 -2.5v-115q-30 0 -51 -2.5t-44.5 -12t-38.5 -26.5
t-24.5 -47.5t-9.5 -73.5v-508q0 -126 -69 -184t-206 -31z" />
    <glyph glyph-name="asciitilde" unicode="~" horiz-adv-x="905" 
d="M635 602q-49 0 -114.5 30t-125 59.5t-92.5 29.5q-42 0 -61.5 -26.5t-22.5 -82.5h-96q-4 103 37 160t119 57q52 0 117 -29.5t122.5 -59t93.5 -29.5q40 0 59.5 25t24.5 81h97q5 -100 -35.5 -157.5t-122.5 -57.5z" />
    <glyph glyph-name="exclamdown" unicode="&#xa1;" horiz-adv-x="382" 
d="M272 918q0 -38 -24 -60t-58 -22t-56.5 22t-22.5 60t22.5 59.5t56.5 21.5t58 -21.5t24 -59.5zM139 596h103l10 -1047h-121z" />
    <glyph glyph-name="cent" unicode="&#xa2;" horiz-adv-x="819" 
d="M438 -225v207q-175 23 -266.5 157.5t-91.5 352.5q0 212 95.5 348t262.5 161v207h103v-202q90 -5 180 -54v-108q-94 55 -199 55q-153 0 -238 -110t-85 -297q0 -192 78 -299t231 -107q119 0 223 51v-106q-76 -45 -190 -54v-202h-103z" />
    <glyph glyph-name="sterling" unicode="&#xa3;" horiz-adv-x="1001" 
d="M285 117h651v-117h-875v117h39q66 0 101 48t35 134v319h-144v115h144v273q0 204 105.5 306.5t279.5 102.5q143 0 253 -74v-114q-110 76 -239 76q-137 0 -207 -77.5t-70 -221.5v-271h449v-115h-449v-319q0 -138 -73 -182z" />
    <glyph glyph-name="currency" unicode="&#xa4;" horiz-adv-x="1005" 
d="M180 274l-76 66l119 135q-63 97 -63 242q0 139 63 241l-119 136l76 65l111 -125q86 74 211 74t213 -76l110 127l76 -65l-121 -138q64 -95 64 -239q0 -145 -64 -240l121 -137l-76 -66l-110 127q-87 -75 -213 -75q-124 0 -211 75zM502 434q107 0 166 76t59 207t-59 206.5
t-166 75.5t-166.5 -75.5t-59.5 -206.5t59.5 -207t166.5 -76z" />
    <glyph glyph-name="yen" unicode="&#xa5;" horiz-adv-x="1071" 
d="M1024 1393l-410 -744h271v-102h-289v-152h289v-102h-289v-293h-121v293h-287v102h287v152h-287v102h269l-410 744h137l353 -670l352 670h135z" />
    <glyph glyph-name="brokenbar" unicode="&#xa6;" horiz-adv-x="413" 
d="M145 940v719h123v-719h-123zM145 -205v719h123v-719h-123z" />
    <glyph glyph-name="section" unicode="&#xa7;" horiz-adv-x="897" 
d="M436 -70q-181 0 -319 82v109q140 -88 315 -88q105 0 172.5 41t67.5 123q0 34 -13 61.5t-30.5 45.5t-54.5 36.5t-65.5 29.5t-82.5 30q-15 5 -23 8q-73 25 -125 50t-99.5 61t-72 84.5t-24.5 109.5q0 154 172 260q-137 80 -137 221q0 125 95.5 193.5t240.5 68.5
q147 0 282 -72v-108q-134 78 -276 78q-100 0 -163 -43t-63 -119q0 -25 6.5 -46t15 -36.5t27.5 -31t33.5 -24.5t44.5 -22t48 -19.5t57 -20.5t59 -21q53 -20 89 -36t80.5 -43t71.5 -56t45.5 -72t18.5 -94q0 -150 -178 -256q65 -37 100 -87.5t35 -127.5q0 -89 -50 -151.5
t-127 -90t-173 -27.5zM557 465q160 78 160 201q0 74 -56.5 118.5t-173.5 83.5q-98 36 -139 52q-64 -30 -108.5 -80.5t-44.5 -116.5q0 -42 18 -75t39 -54t77.5 -46.5t93 -38t125.5 -41.5z" />
    <glyph glyph-name="dieresis" unicode="&#xa8;" horiz-adv-x="630" 
d="M147 1628q-35 0 -60.5 25t-25.5 59t25.5 60t60.5 26t59.5 -26t24.5 -60t-24.5 -59t-59.5 -25zM483 1628q-34 0 -59 25t-25 59t25 60t59 26q35 0 60.5 -26t25.5 -60t-25.5 -59t-60.5 -25z" />
    <glyph glyph-name="copyright" unicode="&#xa9;" horiz-adv-x="1415" 
d="M707 -23q-132 0 -245 50t-197 142t-131.5 233.5t-47.5 314.5t47.5 314t131.5 233.5t197 142t245 49.5t245.5 -49.5t197.5 -142t131.5 -233.5t47.5 -314t-47.5 -314.5t-131.5 -233.5t-197.5 -142t-245.5 -50zM707 25q259 0 416 185.5t157 506.5t-157 506.5t-416 185.5
q-257 0 -414.5 -185.5t-157.5 -506.5t157.5 -506.5t414.5 -185.5zM743 303q-167 0 -255.5 110.5t-88.5 303.5q0 189 93 301t251 112q94 0 166 -38v-88q-63 36 -153 36q-122 0 -190 -86.5t-68 -236.5q0 -155 61.5 -238.5t183.5 -83.5q101 0 175 33v-88q-80 -37 -175 -37z" />
    <glyph glyph-name="guillemotleft" unicode="&#xab;" horiz-adv-x="800" 
d="M276 129l-206 350v25l206 350h125l-217 -362l217 -363h-125zM588 129l-209 350v25l209 350h123l-215 -362l215 -363h-123z" />
    <glyph glyph-name="logicalnot" unicode="&#xac;" horiz-adv-x="956" 
d="M721 516v291h-621v111h738v-402h-117z" />
    <glyph glyph-name="registered" unicode="&#xae;" horiz-adv-x="1415" 
d="M707 -23q-132 0 -245 50t-197 142t-131.5 233.5t-47.5 314.5t47.5 314t131.5 233.5t197 142t245 49.5t245.5 -49.5t197.5 -142t131.5 -233.5t47.5 -314t-47.5 -314.5t-131.5 -233.5t-197.5 -142t-245.5 -50zM707 25q259 0 416 185.5t157 506.5t-157 506.5t-416 185.5
q-257 0 -414.5 -185.5t-157.5 -506.5t157.5 -506.5t414.5 -185.5zM500 315v805h252q109 0 178 -60.5t69 -182.5q0 -92 -42 -153t-119 -83l196 -326h-96l-186 312h-164v-312h-88zM588 713h168q67 0 111 39t44 125q0 159 -155 159h-168v-323z" />
    <glyph glyph-name="macron" unicode="&#xaf;" horiz-adv-x="628" 
d="M567 1735v-107h-506v107h506z" />
    <glyph glyph-name="degree" unicode="&#xb0;" horiz-adv-x="698" 
d="M350 905q-117 0 -195.5 76t-78.5 201q0 122 78.5 198t195.5 76q116 0 194.5 -76t78.5 -198q0 -125 -78 -201t-195 -76zM350 993q84 0 134.5 52.5t50.5 136.5t-50.5 136t-134.5 52t-135 -52t-51 -136t51 -136.5t135 -52.5z" />
    <glyph glyph-name="plusminus" unicode="&#xb1;" horiz-adv-x="983" 
d="M436 485v308h-307v108h307v307h111v-307h307v-108h-307v-308h-111zM129 229v109h725v-109h-725z" />
    <glyph glyph-name="acute" unicode="&#xb4;" horiz-adv-x="444" 
d="M61 1583l185 277h137l-201 -277h-121z" />
    <glyph glyph-name="paragraph" unicode="&#xb6;" horiz-adv-x="1091" 
d="M410 -451v1039q-161 0 -261 113t-100 309t100 310t261 114h508v-1885h-121v1768h-267v-1768h-120z" />
    <glyph glyph-name="periodcentered" unicode="&#xb7;" horiz-adv-x="378" 
d="M188 410q-34 0 -56.5 22t-22.5 60q0 37 22.5 58t56.5 21t58 -21t24 -58q0 -38 -24 -60t-58 -22z" />
    <glyph glyph-name="cedilla" unicode="&#xb8;" horiz-adv-x="499" 
d="M297 0l-33 -143q72 2 122.5 -34.5t51.5 -113.5q1 -86 -66.5 -134t-160.5 -48q-89 0 -150 27v94q63 -27 144 -27q63 0 98 24.5t35 67.5q0 55 -59 71.5t-129 -5.5l45 221h102z" />
    <glyph glyph-name="guillemotright" unicode="&#xbb;" horiz-adv-x="800" 
d="M213 129h-123l215 363l-215 362h123l209 -350v-25zM524 129h-125l217 363l-217 362h125l207 -350v-25z" />
    <glyph glyph-name="onequarter" unicode="&#xbc;" horiz-adv-x="1542" 
d="M395 -25l731 1481h56l-731 -1481h-56zM78 557v96h176v629l-156 -72v99l187 84h71v-740h158v-96h-436zM1274 0v166h-406v86l396 584h108v-576h117v-94h-117v-166h-98zM979 260h295v426z" />
    <glyph glyph-name="onehalf" unicode="&#xbd;" horiz-adv-x="1533" 
d="M389 -25l733 1481h56l-734 -1481h-55zM72 557v96h178v629l-158 -72v99l189 84h69v-740h158v-96h-436zM1223 850q110 0 175.5 -61t65.5 -164q0 -48 -15 -89.5t-47.5 -78.5t-58.5 -60t-73 -59q-49 -38 -70 -55t-54.5 -50.5t-48.5 -66t-18 -70.5h391v-96h-495v59q0 34 7 66
t14.5 55.5t27 50.5t30.5 42t39.5 40.5t39 34t44 34.5t40.5 32q71 52 108 99t37 112q0 59 -40.5 95t-111.5 36q-108 0 -219 -68v100q107 62 232 62z" />
    <glyph glyph-name="threequarters" unicode="&#xbe;" horiz-adv-x="1548" 
d="M416 -25l733 1481h55l-733 -1481h-55zM305 551q-127 0 -225 45v94q98 -45 217 -45q88 0 143.5 40t55.5 116q0 75 -53 111t-138 36h-82v96h82q76 0 117 38t41 100q0 67 -47.5 103t-132.5 36q-95 0 -191 -49v98q92 45 205 45q120 0 192 -61t72 -164q0 -64 -35.5 -115.5
t-91.5 -70.5q64 -21 112 -75t48 -141q0 -112 -83.5 -174.5t-205.5 -62.5zM1282 0v166h-405v86l395 584h108v-576h117v-94h-117v-166h-98zM987 260h295v426z" />
    <glyph glyph-name="questiondown" unicode="&#xbf;" horiz-adv-x="817" 
d="M446 1004q34 0 58 -22t24 -60t-24 -60t-58 -22t-56.5 22t-22.5 60t22.5 60t56.5 22zM504 561q0 -73 -22.5 -142t-56 -120t-73 -107t-73 -103t-56 -107t-22.5 -121q0 -97 65 -156t183 -59q165 0 321 118v-122q-149 -111 -334 -111q-164 0 -261 90.5t-97 226.5q0 86 32 165
t77.5 141t90.5 122.5t77 134t32 150.5h117z" />
    <glyph glyph-name="Agrave" unicode="&#xc0;" horiz-adv-x="1118" 
d="M537 1583l-201 277h139l182 -277h-120zM10 0l484 1434h131l483 -1434h-129l-125 383h-590l-125 -383h-129zM301 496h516l-209 630q-32 102 -49 168q-17 -66 -49 -168z" />
    <glyph glyph-name="Aacute" unicode="&#xc1;" horiz-adv-x="1118" 
d="M453 1583l184 277h139l-203 -277h-120zM10 0l484 1434h131l483 -1434h-129l-125 383h-590l-125 -383h-129zM301 496h516l-209 630q-32 102 -49 168q-17 -66 -49 -168z" />
    <glyph glyph-name="Acircumflex" unicode="&#xc2;" horiz-adv-x="1118" 
d="M610 1849l213 -264h-129l-135 164l-137 -164h-129l213 264h104zM10 0l484 1434h131l483 -1434h-129l-125 383h-590l-125 -383h-129zM301 496h516l-209 630q-32 102 -49 168q-17 -66 -49 -168z" />
    <glyph glyph-name="Atilde" unicode="&#xc3;" horiz-adv-x="1118" 
d="M676 1585q-37 0 -73.5 14.5t-60 32.5t-50 32.5t-46.5 14.5q-54 0 -61 -84h-88q-7 89 29.5 138t103.5 49q50 0 95 -23t78.5 -46t53.5 -23q33 0 47 20.5t17 63.5h88q7 -91 -28.5 -140t-104.5 -49zM10 0l484 1434h131l483 -1434h-129l-125 383h-590l-125 -383h-129zM301 496
h516l-209 630q-32 102 -49 168q-17 -66 -49 -168z" />
    <glyph glyph-name="Adieresis" unicode="&#xc4;" horiz-adv-x="1118" 
d="M389 1628q-35 0 -60.5 25t-25.5 59t25.5 60t60.5 26t59.5 -26t24.5 -60t-24.5 -59t-59.5 -25zM725 1628q-34 0 -59 25t-25 59t25 60t59 26q35 0 60.5 -26t25.5 -60t-25.5 -59t-60.5 -25zM10 0l484 1434h131l483 -1434h-129l-125 383h-590l-125 -383h-129zM301 496h516
l-209 630q-32 102 -49 168q-17 -66 -49 -168z" />
    <glyph glyph-name="Aring" unicode="&#xc5;" horiz-adv-x="1118" 
d="M557 1536q-87 0 -144 55t-57 146q0 90 57 145t144 55t144 -55t57 -145q0 -91 -57 -146t-144 -55zM557 1618q50 0 80.5 32t30.5 87t-30.5 86.5t-80.5 31.5t-80.5 -31.5t-30.5 -86.5t30.5 -87t80.5 -32zM10 0l484 1434h131l483 -1434h-129l-125 383h-590l-125 -383h-129z
M301 496h516l-209 630q-32 102 -49 168q-17 -66 -49 -168z" />
    <glyph glyph-name="AE" unicode="&#xc6;" horiz-adv-x="1492" 
d="M866 117h561v-117h-684v389h-428l-196 -389h-133l725 1434h704v-117h-549v-537h488v-116h-488v-547zM369 500h374v743z" />
    <glyph glyph-name="Ccedilla" unicode="&#xc7;" horiz-adv-x="980" 
d="M926 47q-125 -67 -277 -70l-26 -120q72 2 122.5 -34.5t51.5 -113.5q1 -86 -67 -134t-161 -48q-87 0 -149 27v94q63 -27 143 -27q63 0 98 24.5t35 67.5q0 55 -59 71.5t-129 -5.5l41 203q-209 31 -339.5 217t-129.5 508q1 175 44 317t119 236t179 145t225 51q150 0 268 -72
v-110q-116 67 -262 67q-205 0 -327 -165.5t-123 -468.5q-1 -290 116 -452.5t324 -162.5q148 0 283 72v-117z" />
    <glyph glyph-name="Egrave" unicode="&#xc8;" horiz-adv-x="970" 
d="M502 1583l-201 277h139l183 -277h-121zM154 0v1434h737v-117h-615v-537h553v-116h-553v-547h629v-117h-751z" />
    <glyph glyph-name="Eacute" unicode="&#xc9;" horiz-adv-x="970" 
d="M418 1583l184 277h139l-202 -277h-121zM154 0v1434h737v-117h-615v-537h553v-116h-553v-547h629v-117h-751z" />
    <glyph glyph-name="Ecircumflex" unicode="&#xca;" horiz-adv-x="970" 
d="M573 1849l213 -264h-129l-135 164l-137 -164h-129l213 264h104zM154 0v1434h737v-117h-615v-537h553v-116h-553v-547h629v-117h-751z" />
    <glyph glyph-name="Edieresis" unicode="&#xcb;" horiz-adv-x="970" 
d="M352 1628q-35 0 -60.5 25t-25.5 59t25.5 60t60.5 26t59.5 -26t24.5 -60t-24.5 -59t-59.5 -25zM688 1628q-34 0 -59 25t-25 59t25 60t59 26q35 0 60.5 -26t25.5 -60t-25.5 -59t-60.5 -25zM154 0v1434h737v-117h-615v-537h553v-116h-553v-547h629v-117h-751z" />
    <glyph glyph-name="Igrave" unicode="&#xcc;" horiz-adv-x="430" 
d="M195 1583l-201 277h139l182 -277h-120zM276 1434v-1434h-122v1434h122z" />
    <glyph glyph-name="Iacute" unicode="&#xcd;" horiz-adv-x="430" 
d="M113 1583l184 277h139l-203 -277h-120zM276 1434v-1434h-122v1434h122z" />
    <glyph glyph-name="Icircumflex" unicode="&#xce;" horiz-adv-x="430" 
d="M268 1849l213 -264h-129l-135 164l-137 -164h-129l213 264h104zM276 1434v-1434h-122v1434h122z" />
    <glyph glyph-name="Idieresis" unicode="&#xcf;" horiz-adv-x="430" 
d="M47 1628q-35 0 -60.5 25t-25.5 59t25.5 60t60.5 26t59.5 -26t24.5 -60t-24.5 -59t-59.5 -25zM383 1628q-34 0 -59 25t-25 59t25 60t59 26q35 0 60.5 -26t25.5 -60t-25.5 -59t-60.5 -25zM276 1434v-1434h-122v1434h122z" />
    <glyph glyph-name="Eth" unicode="&#xd0;" horiz-adv-x="1175" 
d="M500 1434q594 0 594 -717t-594 -717h-334v659h-143v111h143v664h334zM500 117q250 0 360.5 150.5t110.5 449.5t-110.5 449.5t-360.5 150.5h-213v-547h270v-111h-270v-542h213z" />
    <glyph glyph-name="Ntilde" unicode="&#xd1;" horiz-adv-x="1216" 
d="M725 1585q-47 0 -91 23.5t-79 47t-59 23.5q-55 0 -62 -84h-88q-7 89 29.5 138t103.5 49q39 0 76.5 -14.5t61 -31.5t48.5 -31.5t42 -14.5q33 0 46.5 20.5t16.5 63.5h88q7 -91 -28.5 -140t-104.5 -49zM154 0v1434h127l669 -1215q-10 167 -10 328v887h123v-1434h-127
l-670 1214q10 -163 10 -325v-889h-122z" />
    <glyph glyph-name="Ograve" unicode="&#xd2;" horiz-adv-x="1202" 
d="M580 1585l-201 277h139l182 -277h-120zM602 -23q-254 0 -387 197t-133 543t133 542.5t387 196.5q253 0 385.5 -196.5t132.5 -542.5t-132.5 -543t-385.5 -197zM602 92q196 0 295.5 163.5t99.5 461.5t-99.5 461t-295.5 163t-296.5 -163.5t-100.5 -460.5t100.5 -461
t296.5 -164z" />
    <glyph glyph-name="Oacute" unicode="&#xd3;" horiz-adv-x="1202" 
d="M498 1585l184 277h139l-203 -277h-120zM602 -23q-254 0 -387 197t-133 543t133 542.5t387 196.5q253 0 385.5 -196.5t132.5 -542.5t-132.5 -543t-385.5 -197zM602 92q196 0 295.5 163.5t99.5 461.5t-99.5 461t-295.5 163t-296.5 -163.5t-100.5 -460.5t100.5 -461
t296.5 -164z" />
    <glyph glyph-name="Ocircumflex" unicode="&#xd4;" horiz-adv-x="1202" 
d="M653 1851l213 -264h-129l-135 164l-137 -164h-129l213 264h104zM602 -23q-254 0 -387 197t-133 543t133 542.5t387 196.5q253 0 385.5 -196.5t132.5 -542.5t-132.5 -543t-385.5 -197zM602 92q196 0 295.5 163.5t99.5 461.5t-99.5 461t-295.5 163t-296.5 -163.5
t-100.5 -460.5t100.5 -461t296.5 -164z" />
    <glyph glyph-name="Otilde" unicode="&#xd5;" horiz-adv-x="1202" 
d="M719 1587q-37 0 -73.5 14.5t-60 32.5t-50 32.5t-46.5 14.5q-54 0 -61 -84h-88q-7 89 29.5 138t103.5 49q50 0 95 -23t78.5 -46t53.5 -23q33 0 47 20.5t17 63.5h88q7 -91 -28.5 -140t-104.5 -49zM602 -23q-254 0 -387 197t-133 543t133 542.5t387 196.5
q253 0 385.5 -196.5t132.5 -542.5t-132.5 -543t-385.5 -197zM602 92q196 0 295.5 163.5t99.5 461.5t-99.5 461t-295.5 163t-296.5 -163.5t-100.5 -460.5t100.5 -461t296.5 -164z" />
    <glyph glyph-name="Odieresis" unicode="&#xd6;" horiz-adv-x="1202" 
d="M432 1630q-35 0 -60.5 25t-25.5 59t25.5 60t60.5 26t59.5 -26t24.5 -60t-24.5 -59t-59.5 -25zM768 1630q-34 0 -59 25t-25 59t25 60t59 26q35 0 60.5 -26t25.5 -60t-25.5 -59t-60.5 -25zM602 -23q-254 0 -387 197t-133 543t133 542.5t387 196.5q253 0 385.5 -196.5
t132.5 -542.5t-132.5 -543t-385.5 -197zM602 92q196 0 295.5 163.5t99.5 461.5t-99.5 461t-295.5 163t-296.5 -163.5t-100.5 -460.5t100.5 -461t296.5 -164z" />
    <glyph glyph-name="multiply" unicode="&#xd7;" horiz-adv-x="876" 
d="M170 377l-74 76l269 266l-269 266l74 76l268 -266l267 266l75 -76l-266 -266l266 -266l-75 -76l-267 268z" />
    <glyph glyph-name="Oslash" unicode="&#xd8;" horiz-adv-x="1202" 
d="M940 1319q180 -192 180 -602q0 -346 -132.5 -543t-385.5 -197q-141 0 -252 68l-67 -141h-103l92 200q-190 187 -190 613q0 346 133 542.5t387 196.5q150 0 262 -76l72 150h102zM205 717q0 -330 125 -492l485 1045q-86 71 -213 71q-196 0 -296.5 -163.5t-100.5 -460.5z
M602 92q196 0 295.5 163.5t99.5 461.5q0 319 -114 475l-484 -1038q87 -62 203 -62z" />
    <glyph glyph-name="Ugrave" unicode="&#xd9;" horiz-adv-x="1193" 
d="M573 1583l-200 277h139l182 -277h-121zM596 -23q-97 0 -176 24.5t-142.5 76t-99 141.5t-35.5 211v1004h121v-998q0 -344 332 -344q334 0 334 344v998h121v-1004q0 -98 -23.5 -175.5t-65 -128.5t-99.5 -85t-124 -49t-143 -15z" />
    <glyph glyph-name="Uacute" unicode="&#xda;" horiz-adv-x="1193" 
d="M489 1583l185 277h139l-203 -277h-121zM596 -23q-97 0 -176 24.5t-142.5 76t-99 141.5t-35.5 211v1004h121v-998q0 -344 332 -344q334 0 334 344v998h121v-1004q0 -98 -23.5 -175.5t-65 -128.5t-99.5 -85t-124 -49t-143 -15z" />
    <glyph glyph-name="Ucircumflex" unicode="&#xdb;" horiz-adv-x="1193" 
d="M647 1849l213 -264h-129l-135 164l-137 -164h-129l213 264h104zM596 -23q-97 0 -176 24.5t-142.5 76t-99 141.5t-35.5 211v1004h121v-998q0 -344 332 -344q334 0 334 344v998h121v-1004q0 -98 -23.5 -175.5t-65 -128.5t-99.5 -85t-124 -49t-143 -15z" />
    <glyph glyph-name="Udieresis" unicode="&#xdc;" horiz-adv-x="1193" 
d="M426 1628q-35 0 -60.5 25t-25.5 59t25.5 60t60.5 26t59.5 -26t24.5 -60t-24.5 -59t-59.5 -25zM762 1628q-34 0 -59 25t-25 59t25 60t59 26q35 0 60.5 -26t25.5 -60t-25.5 -59t-60.5 -25zM596 -23q-97 0 -176 24.5t-142.5 76t-99 141.5t-35.5 211v1004h121v-998
q0 -344 332 -344q334 0 334 344v998h121v-1004q0 -98 -23.5 -175.5t-65 -128.5t-99.5 -85t-124 -49t-143 -15z" />
    <glyph glyph-name="Yacute" unicode="&#xdd;" horiz-adv-x="1073" 
d="M434 1583l184 277h140l-203 -277h-121zM475 0v610l-461 824h133l390 -707l389 707h133l-461 -824v-610h-123z" />
    <glyph glyph-name="Thorn" unicode="&#xde;" horiz-adv-x="1060" 
d="M154 0v1434h122v-263h250q226 0 354 -114.5t128 -339.5q0 -224 -128.5 -339.5t-353.5 -115.5h-250v-262h-122zM276 377h256q169 0 261 87t92 253q0 167 -91.5 253.5t-261.5 86.5h-256v-680z" />
    <glyph glyph-name="germandbls" unicode="&#xdf;" horiz-adv-x="946" 
d="M614 -23q-99 0 -174 33v107q73 -33 158 -33t134.5 47.5t49.5 138.5q0 58 -28 119t-68.5 112t-81 98.5t-68.5 94.5t-28 84t17.5 75t43 71.5t51 68.5t43 79.5t17.5 90.5q0 83 -55 135t-144 52q-119 -1 -179 -74.5t-60 -206.5v-1069h-117v1065q0 178 90 284t266 107
q147 1 230.5 -83.5t83.5 -196.5q0 -56 -17.5 -107.5t-43 -88.5t-51 -69t-43 -63t-17.5 -57q0 -33 28.5 -76t69 -90.5t81 -100.5t69 -122t28.5 -140q0 -134 -82 -209.5t-203 -75.5z" />
    <glyph glyph-name="agrave" unicode="&#xe0;" horiz-adv-x="892" 
d="M385 1133l-201 276h140l182 -276h-121zM840 92q21 0 39 6v-96q-38 -10 -70 -10q-127 0 -154 121q-101 -136 -290 -136q-85 0 -154 29.5t-114.5 98t-45.5 167.5q0 155 106.5 236.5t280.5 81.5q88 0 201 -29v103q0 109 -55.5 172t-190.5 63q-137 0 -282 -61v112
q149 56 295 56q348 0 348 -357v-463q0 -94 86 -94zM381 80q178 0 258 151v230q-91 26 -182 26q-132 0 -209.5 -51.5t-77.5 -156.5q0 -94 58 -146.5t153 -52.5z" />
    <glyph glyph-name="aacute" unicode="&#xe1;" horiz-adv-x="892" 
d="M301 1133l184 276h140l-203 -276h-121zM840 92q21 0 39 6v-96q-38 -10 -70 -10q-127 0 -154 121q-101 -136 -290 -136q-85 0 -154 29.5t-114.5 98t-45.5 167.5q0 155 106.5 236.5t280.5 81.5q88 0 201 -29v103q0 109 -55.5 172t-190.5 63q-137 0 -282 -61v112
q149 56 295 56q348 0 348 -357v-463q0 -94 86 -94zM381 80q178 0 258 151v230q-91 26 -182 26q-132 0 -209.5 -51.5t-77.5 -156.5q0 -94 58 -146.5t153 -52.5z" />
    <glyph glyph-name="acircumflex" unicode="&#xe2;" horiz-adv-x="892" 
d="M459 1399l213 -264h-129l-135 163l-138 -163h-129l213 264h105zM840 92q21 0 39 6v-96q-38 -10 -70 -10q-127 0 -154 121q-101 -136 -290 -136q-85 0 -154 29.5t-114.5 98t-45.5 167.5q0 155 106.5 236.5t280.5 81.5q88 0 201 -29v103q0 109 -55.5 172t-190.5 63
q-137 0 -282 -61v112q149 56 295 56q348 0 348 -357v-463q0 -94 86 -94zM381 80q178 0 258 151v230q-91 26 -182 26q-132 0 -209.5 -51.5t-77.5 -156.5q0 -94 58 -146.5t153 -52.5z" />
    <glyph glyph-name="atilde" unicode="&#xe3;" horiz-adv-x="892" 
d="M524 1135q-47 0 -91 23.5t-79 47t-59 23.5q-55 0 -62 -84h-88q-7 89 29.5 137.5t104.5 48.5q50 0 95 -23t78.5 -46t53.5 -23q33 0 46.5 20.5t16.5 63.5h88q7 -91 -28.5 -139.5t-104.5 -48.5zM840 92q21 0 39 6v-96q-38 -10 -70 -10q-127 0 -154 121q-101 -136 -290 -136
q-85 0 -154 29.5t-114.5 98t-45.5 167.5q0 155 106.5 236.5t280.5 81.5q88 0 201 -29v103q0 109 -55.5 172t-190.5 63q-137 0 -282 -61v112q149 56 295 56q348 0 348 -357v-463q0 -94 86 -94zM381 80q178 0 258 151v230q-91 26 -182 26q-132 0 -209.5 -51.5t-77.5 -156.5
q0 -94 58 -146.5t153 -52.5z" />
    <glyph glyph-name="adieresis" unicode="&#xe4;" horiz-adv-x="892" 
d="M238 1178q-35 0 -60.5 25t-25.5 59t25.5 60t60.5 26t59.5 -26t24.5 -60t-24.5 -59t-59.5 -25zM573 1178q-34 0 -59 25t-25 59t25 60t59 26q35 0 60.5 -26t25.5 -60t-25.5 -59t-60.5 -25zM840 92q21 0 39 6v-96q-38 -10 -70 -10q-127 0 -154 121q-101 -136 -290 -136
q-85 0 -154 29.5t-114.5 98t-45.5 167.5q0 155 106.5 236.5t280.5 81.5q88 0 201 -29v103q0 109 -55.5 172t-190.5 63q-137 0 -282 -61v112q149 56 295 56q348 0 348 -357v-463q0 -94 86 -94zM381 80q178 0 258 151v230q-91 26 -182 26q-132 0 -209.5 -51.5t-77.5 -156.5
q0 -94 58 -146.5t153 -52.5z" />
    <glyph glyph-name="aring" unicode="&#xe5;" horiz-adv-x="892" 
d="M406 1085q-87 0 -144 55t-57 146t57 146t144 55q86 0 143 -55t57 -146t-57 -146t-143 -55zM406 1167q50 0 80 32t30 87t-30 87t-80 32t-80.5 -32t-30.5 -87t30.5 -87t80.5 -32zM840 92q21 0 39 6v-96q-38 -10 -70 -10q-127 0 -154 121q-101 -136 -290 -136
q-85 0 -154 29.5t-114.5 98t-45.5 167.5q0 155 106.5 236.5t280.5 81.5q88 0 201 -29v103q0 109 -55.5 172t-190.5 63q-137 0 -282 -61v112q149 56 295 56q348 0 348 -357v-463q0 -94 86 -94zM381 80q178 0 258 151v230q-91 26 -182 26q-132 0 -209.5 -51.5t-77.5 -156.5
q0 -94 58 -146.5t153 -52.5z" />
    <glyph glyph-name="ae" unicode="&#xe6;" horiz-adv-x="1423" 
d="M375 -23q-63 0 -119.5 17.5t-103 52t-74 92.5t-27.5 133q0 154 105 236t272 82q88 0 201 -29v117q0 103 -54.5 162t-187.5 59q-131 0 -276 -61v112q153 56 280 56q137 0 213 -55t101 -163q40 103 120 160.5t189 57.5q120 0 204 -76t118.5 -205.5t17.5 -290.5h-617
q9 -175 87 -261.5t237 -86.5q132 0 235 53v-108q-108 -54 -241 -54q-235 0 -342 160q-109 -160 -338 -160zM737 537h506q5 165 -57.5 261.5t-179.5 96.5q-120 0 -190 -95t-79 -263zM391 80q90 0 161.5 38.5t109.5 117.5q-32 101 -35 225q-91 26 -181 26q-125 0 -200.5 -52
t-75.5 -156q0 -95 59.5 -147t161.5 -52z" />
    <glyph glyph-name="ccedilla" unicode="&#xe7;" horiz-adv-x="782" 
d="M725 31q-81 -48 -199 -54l-26 -120q72 2 122.5 -34.5t51.5 -113.5q1 -86 -67 -134t-161 -48q-87 0 -149 27v94q63 -27 143 -27q63 0 98 24.5t35 67.5q0 55 -58.5 71.5t-129.5 -5.5l41 203q-171 26 -260.5 160t-89.5 350q0 234 115 374t311 140q117 0 213 -54v-108
q-94 55 -199 55q-153 0 -237 -109.5t-84 -297.5q0 -193 77 -299.5t230 -106.5q119 0 223 51v-106z" />
    <glyph glyph-name="egrave" unicode="&#xe8;" horiz-adv-x="905" 
d="M451 1133l-201 276h139l182 -276h-120zM535 -23q-224 0 -341.5 137.5t-117.5 377.5q0 233 106 373.5t293 140.5q134 0 222.5 -75.5t122 -202.5t16.5 -294h-639q23 -348 344 -348q131 0 237 53v-108q-108 -54 -243 -54zM195 537h532q6 169 -57.5 263.5t-194.5 94.5
q-129 0 -200.5 -95.5t-79.5 -262.5z" />
    <glyph glyph-name="eacute" unicode="&#xe9;" horiz-adv-x="905" 
d="M367 1133l184 276h139l-203 -276h-120zM535 -23q-224 0 -341.5 137.5t-117.5 377.5q0 233 106 373.5t293 140.5q134 0 222.5 -75.5t122 -202.5t16.5 -294h-639q23 -348 344 -348q131 0 237 53v-108q-108 -54 -243 -54zM195 537h532q6 169 -57.5 263.5t-194.5 94.5
q-129 0 -200.5 -95.5t-79.5 -262.5z" />
    <glyph glyph-name="ecircumflex" unicode="&#xea;" horiz-adv-x="905" 
d="M522 1399l213 -264h-129l-135 163l-137 -163h-129l213 264h104zM535 -23q-224 0 -341.5 137.5t-117.5 377.5q0 233 106 373.5t293 140.5q134 0 222.5 -75.5t122 -202.5t16.5 -294h-639q23 -348 344 -348q131 0 237 53v-108q-108 -54 -243 -54zM195 537h532
q6 169 -57.5 263.5t-194.5 94.5q-129 0 -200.5 -95.5t-79.5 -262.5z" />
    <glyph glyph-name="edieresis" unicode="&#xeb;" horiz-adv-x="905" 
d="M301 1178q-35 0 -60.5 25t-25.5 59t25.5 60t60.5 26t59.5 -26t24.5 -60t-24.5 -59t-59.5 -25zM637 1178q-34 0 -59 25t-25 59t25 60t59 26q35 0 60.5 -26t25.5 -60t-25.5 -59t-60.5 -25zM535 -23q-224 0 -341.5 137.5t-117.5 377.5q0 233 106 373.5t293 140.5
q134 0 222.5 -75.5t122 -202.5t16.5 -294h-639q23 -348 344 -348q131 0 237 53v-108q-108 -54 -243 -54zM195 537h532q6 169 -57.5 263.5t-194.5 94.5q-129 0 -200.5 -95.5t-79.5 -262.5z" />
    <glyph glyph-name="igrave" unicode="&#xec;" horiz-adv-x="376" 
d="M190 1133l-174 290h131l156 -290h-113zM131 0v983h115v-983h-115z" />
    <glyph glyph-name="iacute" unicode="&#xed;" horiz-adv-x="376" 
d="M72 1133l155 290h131l-174 -290h-112zM131 0v983h115v-983h-115z" />
    <glyph glyph-name="icircumflex" unicode="&#xee;" horiz-adv-x="376" 
d="M-41 1135l178 260h103l178 -260h-127l-103 159l-102 -159h-127zM131 0v983h115v-983h-115z" />
    <glyph glyph-name="idieresis" unicode="&#xef;" horiz-adv-x="376" 
d="M51 1184q-32 0 -56 23.5t-24 54.5t24 55t56 24t55 -24t23 -55t-23 -54.5t-55 -23.5zM326 1184q-31 0 -54.5 23.5t-23.5 54.5t23.5 55t54.5 24q32 0 56 -24t24 -55t-24 -54.5t-56 -23.5zM131 0v983h115v-983h-115z" />
    <glyph glyph-name="eth" unicode="&#xf0;" horiz-adv-x="952" 
d="M606 1282q123 -113 187.5 -306.5t64.5 -453.5q0 -252 -98 -398.5t-291 -146.5q-177 0 -285 130t-108 346q0 200 105 328t276 128q180 0 268 -149q-38 310 -195 446l-170 -172l-67 68l158 160q-107 64 -254 67v105q189 0 331 -95l146 150l69 -68zM469 88q154 0 217 131.5
t55 378.5q-78 203 -270 203q-136 0 -207 -94t-71 -254q0 -168 71 -266.5t205 -98.5z" />
    <glyph glyph-name="ntilde" unicode="&#xf1;" horiz-adv-x="948" 
d="M596 1135q-47 0 -91 23.5t-79 47t-59 23.5q-55 0 -62 -84h-88q-7 89 29 137.5t104 48.5q39 0 76.5 -14.5t61 -31.5t48.5 -31.5t42 -14.5q33 0 46.5 20.5t16.5 63.5h88q7 -91 -28.5 -139.5t-104.5 -48.5zM125 0v983h106v-141q40 75 115 119.5t176 44.5q139 0 223 -90
t84 -248v-668h-116v662q0 118 -57.5 177.5t-157.5 59.5q-92 0 -159.5 -56.5t-96.5 -144.5v-698h-117z" />
    <glyph glyph-name="ograve" unicode="&#xf2;" horiz-adv-x="952" 
d="M455 1133l-201 276h139l182 -276h-120zM475 1006q193 0 296 -134t103 -380q0 -244 -103.5 -379.5t-295.5 -135.5q-191 0 -295 136t-104 379t104 378.5t295 135.5zM475 899q-138 0 -209 -107t-71 -300t71 -299.5t209 -106.5q140 0 210.5 106.5t70.5 299.5t-70.5 300
t-210.5 107z" />
    <glyph glyph-name="oacute" unicode="&#xf3;" horiz-adv-x="952" 
d="M371 1133l184 276h139l-202 -276h-121zM475 1006q193 0 296 -134t103 -380q0 -244 -103.5 -379.5t-295.5 -135.5q-191 0 -295 136t-104 379t104 378.5t295 135.5zM475 899q-138 0 -209 -107t-71 -300t71 -299.5t209 -106.5q140 0 210.5 106.5t70.5 299.5t-70.5 300
t-210.5 107z" />
    <glyph glyph-name="ocircumflex" unicode="&#xf4;" horiz-adv-x="952" 
d="M528 1399l213 -264h-129l-135 163l-137 -163h-129l213 264h104zM475 1006q193 0 296 -134t103 -380q0 -244 -103.5 -379.5t-295.5 -135.5q-191 0 -295 136t-104 379t104 378.5t295 135.5zM475 899q-138 0 -209 -107t-71 -300t71 -299.5t209 -106.5q140 0 210.5 106.5
t70.5 299.5t-70.5 300t-210.5 107z" />
    <glyph glyph-name="otilde" unicode="&#xf5;" horiz-adv-x="952" 
d="M594 1135q-47 0 -91 23.5t-79 47t-59 23.5q-55 0 -62 -84h-88q-7 89 29 137.5t104 48.5q50 0 95 -23t78.5 -46t53.5 -23q33 0 47 20.5t17 63.5h88q7 -91 -28.5 -139.5t-104.5 -48.5zM475 1006q193 0 296 -134t103 -380q0 -244 -103.5 -379.5t-295.5 -135.5
q-191 0 -295 136t-104 379t104 378.5t295 135.5zM475 899q-138 0 -209 -107t-71 -300t71 -299.5t209 -106.5q140 0 210.5 106.5t70.5 299.5t-70.5 300t-210.5 107z" />
    <glyph glyph-name="odieresis" unicode="&#xf6;" horiz-adv-x="952" 
d="M307 1178q-35 0 -60.5 25t-25.5 59t25.5 60t60.5 26t59.5 -26t24.5 -60t-24.5 -59t-59.5 -25zM643 1178q-34 0 -59 25t-25 59t25 60t59 26q35 0 60.5 -26t25.5 -60t-25.5 -59t-60.5 -25zM475 1006q193 0 296 -134t103 -380q0 -244 -103.5 -379.5t-295.5 -135.5
q-191 0 -295 136t-104 379t104 378.5t295 135.5zM475 899q-138 0 -209 -107t-71 -300t71 -299.5t209 -106.5q140 0 210.5 106.5t70.5 299.5t-70.5 300t-210.5 107z" />
    <glyph glyph-name="divide" unicode="&#xf7;" horiz-adv-x="929" 
d="M465 956q-34 0 -58 22t-24 60q0 37 24 58.5t58 21.5t58 -21.5t24 -58.5q0 -38 -24 -60t-58 -22zM96 662v110h738v-110h-738zM465 309q-34 0 -58 22.5t-24 59.5t24 59.5t58 22.5t58 -22.5t24 -59.5t-24 -59.5t-58 -22.5z" />
    <glyph glyph-name="oslash" unicode="&#xf8;" horiz-adv-x="952" 
d="M735 911q139 -133 139 -419q0 -244 -103.5 -379.5t-295.5 -135.5q-112 0 -192 50l-72 -142h-94l98 191q-139 133 -139 416q0 243 104 378.5t295 135.5q108 0 193 -48l73 146h95zM195 492q0 -198 77 -304l344 670q-59 41 -141 41q-138 0 -209 -107t-71 -300zM475 86
q140 0 210.5 106.5t70.5 299.5q0 201 -78 305l-344 -670q59 -41 141 -41z" />
    <glyph glyph-name="ugrave" unicode="&#xf9;" horiz-adv-x="948" 
d="M449 1133l-201 276h139l182 -276h-120zM823 983v-983h-106v141q-40 -75 -115 -119.5t-176 -44.5q-139 0 -223 90t-84 248v668h117v-661q0 -118 57.5 -178t157.5 -60q92 0 159.5 56.5t96.5 144.5v698h116z" />
    <glyph glyph-name="uacute" unicode="&#xfa;" horiz-adv-x="948" 
d="M365 1133l184 276h139l-203 -276h-120zM823 983v-983h-106v141q-40 -75 -115 -119.5t-176 -44.5q-139 0 -223 90t-84 248v668h117v-661q0 -118 57.5 -178t157.5 -60q92 0 159.5 56.5t96.5 144.5v698h116z" />
    <glyph glyph-name="ucircumflex" unicode="&#xfb;" horiz-adv-x="948" 
d="M522 1399l213 -264h-129l-135 163l-137 -163h-129l213 264h104zM823 983v-983h-106v141q-40 -75 -115 -119.5t-176 -44.5q-139 0 -223 90t-84 248v668h117v-661q0 -118 57.5 -178t157.5 -60q92 0 159.5 56.5t96.5 144.5v698h116z" />
    <glyph glyph-name="udieresis" unicode="&#xfc;" horiz-adv-x="948" 
d="M301 1178q-35 0 -60.5 25t-25.5 59t25.5 60t60.5 26t59.5 -26t24.5 -60t-24.5 -59t-59.5 -25zM637 1178q-34 0 -59 25t-25 59t25 60t59 26q35 0 60.5 -26t25.5 -60t-25.5 -59t-60.5 -25zM823 983v-983h-106v141q-40 -75 -115 -119.5t-176 -44.5q-139 0 -223 90t-84 248
v668h117v-661q0 -118 57.5 -178t157.5 -60q92 0 159.5 56.5t96.5 144.5v698h116z" />
    <glyph glyph-name="yacute" unicode="&#xfd;" horiz-adv-x="886" 
d="M319 1133l185 276h139l-203 -276h-121zM121 -451v105q86 -12 139 27q64 48 113 196l39 119l-394 987h121l326 -838l268 838h125l-377 -1135q-33 -97 -69 -159t-86 -95q-81 -62 -205 -45z" />
    <glyph glyph-name="thorn" unicode="&#xfe;" horiz-adv-x="974" 
d="M125 -451v1885h117v-596q40 73 109.5 120.5t170.5 47.5q123 0 209.5 -69t127 -183t40.5 -262t-40.5 -262t-127 -183.5t-209.5 -69.5q-101 0 -170.5 47.5t-109.5 120.5v-596h-117zM504 84q139 0 207.5 109.5t68.5 298.5t-68.5 298t-207.5 109q-92 0 -158 -54.5
t-104 -154.5v-397q38 -100 104 -154.5t158 -54.5z" />
    <glyph glyph-name="ydieresis" unicode="&#xff;" horiz-adv-x="886" 
d="M254 1178q-35 0 -60.5 25t-25.5 59t25.5 60t60.5 26t59.5 -26t24.5 -60t-24.5 -59t-59.5 -25zM590 1178q-34 0 -59 25t-25 59t25 60t59 26q35 0 60.5 -26t25.5 -60t-25.5 -59t-60.5 -25zM121 -451v105q86 -12 139 27q64 48 113 196l39 119l-394 987h121l326 -838l268 838
h125l-377 -1135q-33 -97 -69 -159t-86 -95q-81 -62 -205 -45z" />
    <glyph glyph-name="Amacron" unicode="&#x100;" horiz-adv-x="1118" 
d="M811 1735v-107h-506v107h506zM10 0l484 1434h131l483 -1434h-129l-125 383h-590l-125 -383h-129zM301 496h516l-209 630q-32 102 -49 168q-17 -66 -49 -168z" />
    <glyph glyph-name="amacron" unicode="&#x101;" horiz-adv-x="892" 
d="M659 1284v-106h-505v106h505zM840 92q21 0 39 6v-96q-38 -10 -70 -10q-127 0 -154 121q-101 -136 -290 -136q-85 0 -154 29.5t-114.5 98t-45.5 167.5q0 155 106.5 236.5t280.5 81.5q88 0 201 -29v103q0 109 -55.5 172t-190.5 63q-137 0 -282 -61v112q149 56 295 56
q348 0 348 -357v-463q0 -94 86 -94zM381 80q178 0 258 151v230q-91 26 -182 26q-132 0 -209.5 -51.5t-77.5 -156.5q0 -94 58 -146.5t153 -52.5z" />
    <glyph glyph-name="Abreve" unicode="&#x102;" horiz-adv-x="1118" 
d="M557 1585q-137 0 -240 68v108q107 -65 240 -65t240 65v-108q-103 -68 -240 -68zM10 0l484 1434h131l483 -1434h-129l-125 383h-590l-125 -383h-129zM301 496h516l-209 630q-32 102 -49 168q-17 -66 -49 -168z" />
    <glyph glyph-name="abreve" unicode="&#x103;" horiz-adv-x="892" 
d="M406 1135q-139 0 -240 67v109q109 -66 240 -66q130 0 239 66v-109q-101 -67 -239 -67zM840 92q21 0 39 6v-96q-38 -10 -70 -10q-127 0 -154 121q-101 -136 -290 -136q-85 0 -154 29.5t-114.5 98t-45.5 167.5q0 155 106.5 236.5t280.5 81.5q88 0 201 -29v103
q0 109 -55.5 172t-190.5 63q-137 0 -282 -61v112q149 56 295 56q348 0 348 -357v-463q0 -94 86 -94zM381 80q178 0 258 151v230q-91 26 -182 26q-132 0 -209.5 -51.5t-77.5 -156.5q0 -94 58 -146.5t153 -52.5z" />
    <glyph glyph-name="Aogonek" unicode="&#x104;" horiz-adv-x="1118" 
d="M1040 -379q49 0 88 19v-91q-52 -22 -106 -22q-88 0 -136 44t-48 120q0 68 38.5 150.5t106.5 158.5h-4l-125 383h-590l-125 -383h-129l484 1434h131l483 -1434q-76 -73 -119 -149t-43 -136q0 -49 26 -71.5t68 -22.5zM301 496h516l-209 630q-32 102 -49 168
q-17 -66 -49 -168z" />
    <glyph glyph-name="aogonek" unicode="&#x105;" horiz-adv-x="892" 
d="M774 -469q-88 0 -136 44.5t-48 119.5q0 67 40.5 146.5t121.5 160.5q-42 8 -66 34t-31 77q-101 -136 -290 -136q-85 0 -154 29.5t-114.5 98t-45.5 167.5q0 155 106.5 236.5t280.5 81.5q88 0 201 -29v103q0 109 -55.5 172t-190.5 63q-137 0 -282 -61v112q149 56 295 56
q348 0 348 -357v-463q0 -94 86 -94q21 0 39 6v-96q-84 -71 -132.5 -146.5t-48.5 -136.5q0 -48 26.5 -71t68.5 -23q45 0 86 21v-90q-48 -25 -105 -25zM381 80q178 0 258 151v230q-91 26 -182 26q-132 0 -209.5 -51.5t-77.5 -156.5q0 -94 58 -146.5t153 -52.5z" />
    <glyph glyph-name="Cacute" unicode="&#x106;" horiz-adv-x="980" 
d="M518 1583l184 277h140l-203 -277h-121zM627 -23q-115 0 -213 45.5t-173.5 134t-118.5 230t-42 320.5q1 175 44 317t119 236t179 145t225 51q150 0 268 -72v-110q-116 67 -262 67q-205 0 -327 -165.5t-123 -468.5q-1 -290 116 -452.5t324 -162.5q148 0 283 72v-117
q-137 -70 -299 -70z" />
    <glyph glyph-name="cacute" unicode="&#x107;" horiz-adv-x="782" 
d="M354 1133l185 276h139l-203 -276h-121zM502 -23q-208 0 -317 138t-109 377q0 234 115 374t311 140q117 0 213 -54v-108q-94 55 -199 55q-153 0 -237 -109.5t-84 -297.5q0 -193 77 -299.5t230 -106.5q119 0 223 51v-106q-96 -54 -223 -54z" />
    <glyph glyph-name="Cdotaccent" unicode="&#x10a;" horiz-adv-x="980" 
d="M623 1595q-39 0 -63.5 24.5t-24.5 66.5t24.5 66t63.5 24q40 0 65 -24t25 -66t-25 -66.5t-65 -24.5zM627 -23q-115 0 -213 45.5t-173.5 134t-118.5 230t-42 320.5q1 175 44 317t119 236t179 145t225 51q150 0 268 -72v-110q-116 67 -262 67q-205 0 -327 -165.5
t-123 -468.5q-1 -290 116 -452.5t324 -162.5q148 0 283 72v-117q-137 -70 -299 -70z" />
    <glyph glyph-name="cdotaccent" unicode="&#x10b;" horiz-adv-x="782" 
d="M457 1145q-39 0 -63.5 24t-24.5 66t24.5 66t63.5 24q40 0 65 -24t25 -66t-25 -66t-65 -24zM502 -23q-208 0 -317 138t-109 377q0 234 115 374t311 140q117 0 213 -54v-108q-94 55 -199 55q-153 0 -237 -109.5t-84 -297.5q0 -193 77 -299.5t230 -106.5q119 0 223 51v-106
q-96 -54 -223 -54z" />
    <glyph glyph-name="Ccaron" unicode="&#x10c;" horiz-adv-x="980" 
d="M676 1585h-105l-213 264h129l136 -163l137 163h129zM627 -23q-115 0 -213 45.5t-173.5 134t-118.5 230t-42 320.5q1 175 44 317t119 236t179 145t225 51q150 0 268 -72v-110q-116 67 -262 67q-205 0 -327 -165.5t-123 -468.5q-1 -290 116 -452.5t324 -162.5q148 0 283 72
v-117q-137 -70 -299 -70z" />
    <glyph glyph-name="ccaron" unicode="&#x10d;" horiz-adv-x="782" 
d="M510 1135h-104l-213 264h129l135 -164l137 164h129zM502 -23q-208 0 -317 138t-109 377q0 234 115 374t311 140q117 0 213 -54v-108q-94 55 -199 55q-153 0 -237 -109.5t-84 -297.5q0 -193 77 -299.5t230 -106.5q119 0 223 51v-106q-96 -54 -223 -54z" />
    <glyph glyph-name="Dcaron" unicode="&#x10e;" horiz-adv-x="1165" 
d="M588 1585h-105l-213 264h129l136 -163l137 163h129zM489 1434q594 0 594 -717t-594 -717h-335v1434h335zM489 1317h-213v-1200h213q250 0 361 150.5t111 449.5t-111 449.5t-361 150.5z" />
    <glyph glyph-name="dcaron" unicode="&#x10f;" horiz-adv-x="1036" 
d="M76 492q0 148 40.5 262t127 183t209.5 69q100 0 170 -47t110 -119v594h117v-1434h-107v158q-40 -80 -114 -130.5t-176 -50.5q-123 0 -209.5 69.5t-127 183.5t-40.5 262zM1135 1434l-43 -353h-103l31 353h115zM733 293v397q-38 100 -104 154.5t-158 54.5
q-139 0 -207.5 -109t-68.5 -298t68.5 -298.5t207.5 -109.5q92 0 158 54.5t104 154.5z" />
    <glyph glyph-name="Dcroat" unicode="&#x110;" horiz-adv-x="1175" 
d="M500 1434q594 0 594 -717t-594 -717h-334v659h-143v111h143v664h334zM500 117q250 0 360.5 150.5t110.5 449.5t-110.5 449.5t-360.5 150.5h-213v-547h270v-111h-270v-542h213z" />
    <glyph glyph-name="dcroat" unicode="&#x111;" horiz-adv-x="974" 
d="M973 1264v-90h-123v-1174h-107v164q-91 -187 -290 -187q-123 0 -209.5 69.5t-127 183.5t-40.5 262t40.5 262t127 183t209.5 69q101 0 170.5 -47.5t109.5 -120.5v336h-358v90h358v170h117v-170h123zM733 293v397q-38 100 -104 154.5t-158 54.5q-139 0 -207.5 -109
t-68.5 -298t68.5 -298.5t207.5 -109.5q185 0 262 209z" />
    <glyph glyph-name="Emacron" unicode="&#x112;" horiz-adv-x="970" 
d="M776 1735v-107h-506v107h506zM154 0v1434h737v-117h-615v-537h553v-116h-553v-547h629v-117h-751z" />
    <glyph glyph-name="emacron" unicode="&#x113;" horiz-adv-x="905" 
d="M725 1284v-106h-506v106h506zM535 -23q-224 0 -341.5 137.5t-117.5 377.5q0 233 106 373.5t293 140.5q134 0 222.5 -75.5t122 -202.5t16.5 -294h-639q23 -348 344 -348q131 0 237 53v-108q-108 -54 -243 -54zM195 537h532q6 169 -57.5 263.5t-194.5 94.5
q-129 0 -200.5 -95.5t-79.5 -262.5z" />
    <glyph glyph-name="Edotaccent" unicode="&#x116;" horiz-adv-x="970" 
d="M522 1595q-39 0 -63.5 24.5t-24.5 66.5t24.5 66t63.5 24q40 0 65 -24t25 -66t-25 -66.5t-65 -24.5zM154 0v1434h737v-117h-615v-537h553v-116h-553v-547h629v-117h-751z" />
    <glyph glyph-name="edotaccent" unicode="&#x117;" horiz-adv-x="905" 
d="M471 1145q-39 0 -63.5 24t-24.5 66t24.5 66t63.5 24q40 0 65 -24t25 -66t-25 -66t-65 -24zM535 -23q-224 0 -341.5 137.5t-117.5 377.5q0 233 106 373.5t293 140.5q134 0 222.5 -75.5t122 -202.5t16.5 -294h-639q23 -348 344 -348q131 0 237 53v-108q-108 -54 -243 -54z
M195 537h532q6 169 -57.5 263.5t-194.5 94.5q-129 0 -200.5 -95.5t-79.5 -262.5z" />
    <glyph glyph-name="Eogonek" unicode="&#x118;" horiz-adv-x="970" 
d="M838 -379q49 0 88 19v-91q-52 -22 -107 -22q-88 0 -136 44t-48 120q0 68 39 150.5t108 158.5h-628v1434h737v-117h-615v-537h553v-116h-553v-547h629v-117q-76 -73 -119 -149t-43 -136q0 -49 26.5 -71.5t68.5 -22.5z" />
    <glyph glyph-name="eogonek" unicode="&#x119;" horiz-adv-x="905" 
d="M643 -469q-88 0 -136 44.5t-48 119.5q0 129 159 293q-37 -11 -83 -11q-224 0 -341.5 137.5t-117.5 377.5q0 233 106 373.5t293 140.5q134 0 222.5 -75.5t122 -202.5t16.5 -294h-639q23 -348 344 -348q131 0 237 53v-108q-211 -179 -211 -312q0 -48 26.5 -71t68.5 -23
q44 0 88 21v-90q-52 -25 -107 -25zM195 537h532q6 169 -57.5 263.5t-194.5 94.5q-129 0 -200.5 -95.5t-79.5 -262.5z" />
    <glyph glyph-name="Ecaron" unicode="&#x11a;" horiz-adv-x="970" 
d="M575 1585h-104l-213 264h129l135 -163l137 163h129zM154 0v1434h737v-117h-615v-537h553v-116h-553v-547h629v-117h-751z" />
    <glyph glyph-name="ecaron" unicode="&#x11b;" horiz-adv-x="905" 
d="M524 1135h-104l-213 264h129l135 -164l137 164h129zM535 -23q-224 0 -341.5 137.5t-117.5 377.5q0 233 106 373.5t293 140.5q134 0 222.5 -75.5t122 -202.5t16.5 -294h-639q23 -348 344 -348q131 0 237 53v-108q-108 -54 -243 -54zM195 537h532q6 169 -57.5 263.5
t-194.5 94.5q-129 0 -200.5 -95.5t-79.5 -262.5z" />
    <glyph glyph-name="Gbreve" unicode="&#x11e;" horiz-adv-x="1101" 
d="M627 1585q-137 0 -240 68v108q107 -65 240 -65q132 0 239 65v-108q-103 -68 -239 -68zM635 -23q-91 0 -170.5 24.5t-151 80t-122.5 138.5t-81 208.5t-30 282.5q0 175 45.5 317.5t125 235t186 142.5t229.5 50q184 0 303 -76v-116q-126 77 -289 77q-212 0 -344.5 -168
t-132.5 -462q0 -161 34.5 -282.5t96.5 -193.5t140.5 -107.5t172.5 -35.5q142 0 240 64v600h121v-670q-148 -109 -373 -109z" />
    <glyph glyph-name="gbreve" unicode="&#x11f;" horiz-adv-x="974" 
d="M475 1135q-138 0 -239 67v109q109 -66 239 -66q131 0 240 66v-109q-101 -67 -240 -67zM420 -473q-150 0 -256 53v109q105 -54 250 -54q158 0 238.5 82.5t80.5 235.5v192q-40 -73 -109.5 -120.5t-170.5 -47.5q-123 0 -209.5 69.5t-127 183.5t-40.5 262t40.5 262t127 183
t209.5 69q199 0 290 -187v164h107v-1030q0 -71 -16 -133.5t-49.5 -116.5t-83.5 -93t-122 -61t-159 -22zM471 84q92 0 158 54.5t104 154.5v397q-77 209 -262 209q-139 0 -207.5 -109t-68.5 -298t68.5 -298.5t207.5 -109.5z" />
    <glyph glyph-name="Gdotaccent" unicode="&#x120;" horiz-adv-x="1101" 
d="M627 1595q-39 0 -63.5 24.5t-24.5 66.5t24.5 66t63.5 24q40 0 65 -24t25 -66t-25 -66.5t-65 -24.5zM635 -23q-91 0 -170.5 24.5t-151 80t-122.5 138.5t-81 208.5t-30 282.5q0 175 45.5 317.5t125 235t186 142.5t229.5 50q184 0 303 -76v-116q-126 77 -289 77
q-212 0 -344.5 -168t-132.5 -462q0 -161 34.5 -282.5t96.5 -193.5t140.5 -107.5t172.5 -35.5q142 0 240 64v600h121v-670q-148 -109 -373 -109z" />
    <glyph glyph-name="gdotaccent" unicode="&#x121;" horiz-adv-x="974" 
d="M475 1145q-39 0 -63.5 24t-24.5 66t24.5 66t63.5 24q40 0 65 -24t25 -66t-25 -66t-65 -24zM420 -473q-150 0 -256 53v109q105 -54 250 -54q158 0 238.5 82.5t80.5 235.5v192q-40 -73 -109.5 -120.5t-170.5 -47.5q-123 0 -209.5 69.5t-127 183.5t-40.5 262t40.5 262
t127 183t209.5 69q199 0 290 -187v164h107v-1030q0 -71 -16 -133.5t-49.5 -116.5t-83.5 -93t-122 -61t-159 -22zM471 84q92 0 158 54.5t104 154.5v397q-77 209 -262 209q-139 0 -207.5 -109t-68.5 -298t68.5 -298.5t207.5 -109.5z" />
    <glyph glyph-name="Gcommaaccent" unicode="&#x122;" horiz-adv-x="1101" 
d="M635 -23q-91 0 -170.5 24.5t-151 80t-122.5 138.5t-81 208.5t-30 282.5q0 175 45.5 317.5t125 235t186 142.5t229.5 50q184 0 303 -76v-116q-126 77 -289 77q-212 0 -344.5 -168t-132.5 -462q0 -161 34.5 -282.5t96.5 -193.5t140.5 -107.5t172.5 -35.5q142 0 240 64v600
h121v-670q-148 -109 -373 -109zM545 -506l47 369h115l-60 -369h-102z" />
    <glyph glyph-name="gcommaaccent" unicode="&#x123;" horiz-adv-x="974" 
d="M563 1479l-43 -346h-117l58 346h102zM420 -473q-150 0 -256 53v109q105 -54 250 -54q158 0 238.5 82.5t80.5 235.5v192q-40 -73 -109.5 -120.5t-170.5 -47.5q-123 0 -209.5 69.5t-127 183.5t-40.5 262t40.5 262t127 183t209.5 69q199 0 290 -187v164h107v-1030
q0 -71 -16 -133.5t-49.5 -116.5t-83.5 -93t-122 -61t-159 -22zM471 84q92 0 158 54.5t104 154.5v397q-77 209 -262 209q-139 0 -207.5 -109t-68.5 -298t68.5 -298.5t207.5 -109.5z" />
    <glyph glyph-name="Hbar" unicode="&#x126;" horiz-adv-x="1239" 
d="M1217 1147v-103h-144v-1044h-121v662h-665v-662h-121v1044h-143v103h143v287h121v-287h665v287h121v-287h144zM952 778v266h-665v-266h665z" />
    <glyph glyph-name="hbar" unicode="&#x127;" horiz-adv-x="948" 
d="M522 1006q139 0 223 -90t84 -248v-668h-116v662q0 118 -57.5 177.5t-157.5 59.5q-92 0 -159.5 -56.5t-96.5 -144.5v-698h-117v1174h-123v90h123v170h117v-170h358v-90h-358v-320q41 71 112.5 111.5t167.5 40.5z" />
    <glyph glyph-name="Imacron" unicode="&#x12a;" horiz-adv-x="430" 
d="M469 1735v-107h-506v107h506zM276 1434v-1434h-122v1434h122z" />
    <glyph glyph-name="imacron" unicode="&#x12b;" horiz-adv-x="376" 
d="M-10 1192v108h397v-108h-397zM131 0v983h115v-983h-115z" />
    <glyph glyph-name="Iogonek" unicode="&#x12e;" horiz-adv-x="430" 
d="M233 -473q-77 0 -122 43.5t-45 120.5q0 135 104 311l-16 2v1430h122v-1434q-104 -185 -104 -285q0 -49 26 -71.5t68 -22.5q47 0 86 19v-91q-52 -22 -119 -22z" />
    <glyph glyph-name="iogonek" unicode="&#x12f;" horiz-adv-x="376" 
d="M188 1204q-34 0 -56.5 20t-22.5 58q0 36 23 57t56 21q34 0 57 -21t23 -57q0 -38 -23 -58t-57 -20zM211 -473q-86 0 -132 44.5t-46 119.5q0 133 98 311v981h115v-983q-105 -173 -105 -285q0 -48 24.5 -71t63.5 -23q41 0 76 17v-91q-41 -20 -94 -20z" />
    <glyph glyph-name="Idotaccent" unicode="&#x130;" horiz-adv-x="430" 
d="M215 1595q-39 0 -63.5 24.5t-24.5 66.5t24.5 66t63.5 24q40 0 65 -24t25 -66t-25 -66.5t-65 -24.5zM276 1434v-1434h-122v1434h122z" />
    <glyph glyph-name="dotlessi" unicode="&#x131;" horiz-adv-x="376" 
d="M131 0v983h115v-983h-115z" />
    <glyph glyph-name="IJ" unicode="&#x132;" horiz-adv-x="1259" 
d="M276 1434v-1434h-122v1434h122zM739 -23q-149 0 -270 58v117q120 -60 256 -60q124 0 196 68t72 198v959h-336v117h457v-1080q0 -186 -103 -281.5t-272 -95.5z" />
    <glyph glyph-name="ij" unicode="&#x133;" horiz-adv-x="765" 
d="M578 1204q-34 0 -57 20t-23 58q0 36 23 57t57 21q33 0 56 -21t23 -57q0 -38 -22.5 -58t-56.5 -20zM188 1204q-34 0 -56.5 20t-22.5 58q0 36 23 57t56 21q34 0 57 -21t23 -57q0 -38 -23 -58t-57 -20zM131 0v983h115v-983h-115zM416 -473q-73 0 -121 18v103q43 -15 88 -15
q71 0 104 38.5t33 127.5v1184h115v-1204q0 -124 -59.5 -189t-159.5 -63z" />
    <glyph glyph-name="Kcommaaccent" unicode="&#x136;" horiz-adv-x="1071" 
d="M154 0v1434h122v-643h197l436 643h140l-476 -699l496 -735h-139l-453 676h-201v-676h-122zM489 -485l48 368h114l-59 -368h-103z" />
    <glyph glyph-name="kcommaaccent" unicode="&#x137;" horiz-adv-x="851" 
d="M125 0v1434h117v-877h159l293 426h135l-335 -483l354 -500h-137l-314 449h-155v-449h-117zM369 -485l47 368h114l-59 -368h-102z" />
    <glyph glyph-name="Lacute" unicode="&#x139;" horiz-adv-x="923" 
d="M135 1583l184 277h140l-203 -277h-121zM276 1434v-1317h623v-117h-745v1434h122z" />
    <glyph glyph-name="lacute" unicode="&#x13a;" horiz-adv-x="376" 
d="M84 1618l184 276h140l-203 -276h-121zM246 1495v-1495h-115v1495h115z" />
    <glyph glyph-name="Lcommaaccent" unicode="&#x13b;" horiz-adv-x="923" 
d="M276 1434v-1317h623v-117h-745v1434h122zM442 -485l47 368h115l-59 -368h-103z" />
    <glyph glyph-name="lcommaaccent" unicode="&#x13c;" horiz-adv-x="376" 
d="M246 1495v-1495h-115v1495h115zM88 -485l47 368h115l-60 -368h-102z" />
    <glyph glyph-name="Lcaron" unicode="&#x13d;" horiz-adv-x="925" 
d="M276 1434v-1317h623v-117h-745v1434h122zM637 1434l-31 -353h-102l16 353h117z" />
    <glyph glyph-name="lcaron" unicode="&#x13e;" horiz-adv-x="434" 
d="M246 1495v-1495h-115v1495h115zM530 1495l-47 -352h-102l35 352h114z" />
    <glyph glyph-name="Ldot" unicode="&#x13f;" horiz-adv-x="923" 
d="M154 0v1434h122v-1317h623v-117h-745zM586 635q-34 0 -58 22t-24 60q0 37 24 58.5t58 21.5t57 -21.5t23 -58.5q0 -38 -23 -60t-57 -22z" />
    <glyph glyph-name="ldot" unicode="&#x140;" horiz-adv-x="538" 
d="M246 1495v-1495h-115v1495h115zM457 647q-34 0 -58 22t-24 60q0 37 24 58.5t58 21.5t58 -21.5t24 -58.5q0 -38 -24 -60t-58 -22z" />
    <glyph glyph-name="Lslash" unicode="&#x141;" horiz-adv-x="946" 
d="M297 117h623v-117h-744v565l-162 -80v119l162 80v750h121v-691l324 156v-119l-324 -155v-508z" />
    <glyph glyph-name="lslash" unicode="&#x142;" horiz-adv-x="487" 
d="M444 899v-111l-141 -65v-723h-117v666l-141 -68v111l141 67v719h117v-661z" />
    <glyph glyph-name="Nacute" unicode="&#x143;" horiz-adv-x="1216" 
d="M504 1583l184 277h139l-202 -277h-121zM154 0v1434h127l669 -1215q-10 167 -10 328v887h123v-1434h-127l-670 1214q10 -163 10 -325v-889h-122z" />
    <glyph glyph-name="nacute" unicode="&#x144;" horiz-adv-x="948" 
d="M375 1133l184 276h139l-202 -276h-121zM125 0v983h106v-141q40 75 115 119.5t176 44.5q139 0 223 -90t84 -248v-668h-116v662q0 118 -57.5 177.5t-157.5 59.5q-92 0 -159.5 -56.5t-96.5 -144.5v-698h-117z" />
    <glyph glyph-name="Ncommaaccent" unicode="&#x145;" horiz-adv-x="1216" 
d="M154 0v1434h127l669 -1215q-10 167 -10 328v887h123v-1434h-127l-670 1214q10 -163 10 -325v-889h-122zM520 -485l47 368h115l-59 -368h-103z" />
    <glyph glyph-name="ncommaaccent" unicode="&#x146;" horiz-adv-x="948" 
d="M125 0v983h106v-141q40 75 115 119.5t176 44.5q139 0 223 -90t84 -248v-668h-116v662q0 118 -57.5 177.5t-157.5 59.5q-92 0 -159.5 -56.5t-96.5 -144.5v-698h-117zM403 -485l48 368h114l-59 -368h-103z" />
    <glyph glyph-name="Ncaron" unicode="&#x147;" horiz-adv-x="1216" 
d="M662 1585h-105l-213 264h129l135 -163l137 163h129zM154 0v1434h127l669 -1215q-10 167 -10 328v887h123v-1434h-127l-670 1214q10 -163 10 -325v-889h-122z" />
    <glyph glyph-name="ncaron" unicode="&#x148;" horiz-adv-x="948" 
d="M532 1135h-104l-213 264h129l135 -164l137 164h129zM125 0v983h106v-141q40 75 115 119.5t176 44.5q139 0 223 -90t84 -248v-668h-116v662q0 118 -57.5 177.5t-157.5 59.5q-92 0 -159.5 -56.5t-96.5 -144.5v-698h-117z" />
    <glyph glyph-name="Eng" unicode="&#x14a;" horiz-adv-x="1216" 
d="M836 -473q-72 0 -121 16v103q47 -13 88 -13q71 0 107 43.5t36 137.5v166l-680 1234q10 -163 10 -325v-889h-122v1434h127l669 -1215q-10 167 -10 328v887h123v-1643q0 -127 -63.5 -196.5t-163.5 -67.5z" />
    <glyph glyph-name="eng" unicode="&#x14b;" horiz-adv-x="948" 
d="M610 -473q-72 0 -121 16v105q43 -15 89 -15q69 0 102 39t33 127v863q0 118 -57.5 177.5t-157.5 59.5q-92 0 -159.5 -56.5t-96.5 -144.5v-698h-117v983h106v-141q40 75 115 119.5t176 44.5q139 0 223 -90t84 -248v-889q0 -121 -61 -187.5t-158 -64.5z" />
    <glyph glyph-name="Omacron" unicode="&#x14c;" horiz-adv-x="1202" 
d="M854 1737v-107h-506v107h506zM602 -23q-254 0 -387 197t-133 543t133 542.5t387 196.5q253 0 385.5 -196.5t132.5 -542.5t-132.5 -543t-385.5 -197zM602 92q196 0 295.5 163.5t99.5 461.5t-99.5 461t-295.5 163t-296.5 -163.5t-100.5 -460.5t100.5 -461t296.5 -164z" />
    <glyph glyph-name="omacron" unicode="&#x14d;" horiz-adv-x="952" 
d="M729 1284v-106h-506v106h506zM475 1006q193 0 296 -134t103 -380q0 -244 -103.5 -379.5t-295.5 -135.5q-191 0 -295 136t-104 379t104 378.5t295 135.5zM475 899q-138 0 -209 -107t-71 -300t71 -299.5t209 -106.5q140 0 210.5 106.5t70.5 299.5t-70.5 300t-210.5 107z
" />
    <glyph glyph-name="Ohungarumlaut" unicode="&#x150;" horiz-adv-x="1202" 
d="M377 1597l139 283h129l-147 -283h-121zM662 1597l147 283h127l-154 -283h-120zM602 -23q-254 0 -387 197t-133 543t133 542.5t387 196.5q253 0 385.5 -196.5t132.5 -542.5t-132.5 -543t-385.5 -197zM602 92q196 0 295.5 163.5t99.5 461.5t-99.5 461t-295.5 163
t-296.5 -163.5t-100.5 -460.5t100.5 -461t296.5 -164z" />
    <glyph glyph-name="ohungarumlaut" unicode="&#x151;" horiz-adv-x="952" 
d="M250 1145l139 282h129l-147 -282h-121zM535 1145l147 282h127l-154 -282h-120zM475 1006q193 0 296 -134t103 -380q0 -244 -103.5 -379.5t-295.5 -135.5q-191 0 -295 136t-104 379t104 378.5t295 135.5zM475 899q-138 0 -209 -107t-71 -300t71 -299.5t209 -106.5
q140 0 210.5 106.5t70.5 299.5t-70.5 300t-210.5 107z" />
    <glyph glyph-name="OE" unicode="&#x152;" horiz-adv-x="1525" 
d="M614 -23q-172 0 -292.5 92t-180 257t-59.5 391q0 346 137 542.5t395 196.5q97 0 162 -22h672v-117h-549v-537h487v-116h-487v-547h561v-117h-684q-68 -23 -162 -23zM614 92q84 0 162 31v1188q-75 30 -162 30q-200 0 -304.5 -163.5t-104.5 -460.5t104.5 -461t304.5 -164z
" />
    <glyph glyph-name="oe" unicode="&#x153;" horiz-adv-x="1529" 
d="M461 -25q-185 0 -284 138.5t-99 378.5t99 378t284 138q124 0 205.5 -69t117.5 -196q40 126 123 194.5t203 68.5q124 0 210 -76t121.5 -205t18.5 -291h-622q10 -180 91 -264t236 -84q135 0 238 53v-108q-108 -54 -242 -54q-295 0 -379 261q-36 -126 -117.5 -194.5
t-203.5 -68.5zM461 84q134 0 200 106.5t66 301.5t-65.5 301t-200.5 106q-132 0 -198 -106.5t-66 -300.5t66 -301t198 -107zM840 537h510q5 164 -59 261t-181 97q-120 0 -191 -95t-79 -263z" />
    <glyph glyph-name="Racute" unicode="&#x154;" horiz-adv-x="1122" 
d="M432 1583l184 277h140l-203 -277h-121zM154 0v1434h426q128 0 227.5 -46.5t160 -145t60.5 -236.5q0 -159 -80 -266t-229 -144l371 -596h-144l-356 580h-314v-580h-122zM276 694h306q146 0 234.5 81.5t88.5 230.5q0 150 -87 230.5t-232 80.5h-310v-623z" />
    <glyph glyph-name="racute" unicode="&#x155;" horiz-adv-x="606" 
d="M240 1133l184 276h139l-203 -276h-120zM125 0v983h106v-197q92 228 353 218v-117q-130 9 -219 -54.5t-123 -207.5v-625h-117z" />
    <glyph glyph-name="Rcommaaccent" unicode="&#x156;" horiz-adv-x="1122" 
d="M154 0v1434h426q128 0 227.5 -46.5t160 -145t60.5 -236.5q0 -159 -80 -266t-229 -144l371 -596h-144l-356 580h-314v-580h-122zM276 694h306q146 0 234.5 81.5t88.5 230.5q0 150 -87 230.5t-232 80.5h-310v-623zM512 -485l47 368h115l-60 -368h-102z" />
    <glyph glyph-name="rcommaaccent" unicode="&#x157;" horiz-adv-x="606" 
d="M125 0v983h106v-197q92 228 353 218v-117q-130 9 -219 -54.5t-123 -207.5v-625h-117zM80 -485l47 368h115l-60 -368h-102z" />
    <glyph glyph-name="Rcaron" unicode="&#x158;" horiz-adv-x="1122" 
d="M590 1585h-105l-213 264h129l136 -163l137 163h129zM154 0v1434h426q128 0 227.5 -46.5t160 -145t60.5 -236.5q0 -159 -80 -266t-229 -144l371 -596h-144l-356 580h-314v-580h-122zM276 694h306q146 0 234.5 81.5t88.5 230.5q0 150 -87 230.5t-232 80.5h-310v-623z" />
    <glyph glyph-name="rcaron" unicode="&#x159;" horiz-adv-x="606" 
d="M397 1135h-104l-213 264h129l135 -164l137 164h129zM125 0v983h106v-197q92 228 353 218v-117q-130 9 -219 -54.5t-123 -207.5v-625h-117z" />
    <glyph glyph-name="Sacute" unicode="&#x15a;" horiz-adv-x="968" 
d="M356 1583l185 277h139l-203 -277h-121zM481 -23q-118 0 -210.5 23t-178.5 78v117q91 -55 181 -79t200 -24q148 0 235 69t87 193q0 60 -25 108.5t-67 83t-96.5 63.5t-114.5 55t-120.5 52.5t-115 61t-96.5 75.5t-67 101t-25 133q0 116 58 201t152.5 126.5t213.5 41.5
q184 0 339 -94v-117q-154 96 -331 96q-139 0 -224.5 -64.5t-85.5 -184.5q0 -63 31.5 -114.5t82.5 -85.5t116.5 -67.5t133.5 -60.5t133.5 -65t116.5 -81t82.5 -109t31.5 -147q0 -186 -122 -285.5t-315 -99.5z" />
    <glyph glyph-name="sacute" unicode="&#x15b;" horiz-adv-x="774" 
d="M276 1133l185 276h139l-203 -276h-121zM397 1006q135 0 265 -68v-111q-124 74 -256 74q-95 0 -154 -43.5t-59 -118.5q0 -50 29 -87t75.5 -59.5t102.5 -42.5t112 -44t102.5 -55t75.5 -83t29 -122q0 -130 -94.5 -199.5t-239.5 -69.5q-188 0 -307 76v115q128 -84 301 -84
q103 0 163 41t60 119q0 45 -22.5 79t-60 54.5t-84.5 40.5t-97 35.5t-97 40.5t-84.5 54.5t-60 78t-22.5 110.5q0 122 89 195.5t234 73.5z" />
    <glyph glyph-name="Scedilla" unicode="&#x15e;" horiz-adv-x="968" 
d="M918 362q0 -168 -101.5 -266t-267.5 -116l-29 -123q72 2 122.5 -34.5t51.5 -113.5q1 -86 -66.5 -134t-160.5 -48q-89 0 -150 27v94q63 -27 144 -27q63 0 98 24.5t35 67.5q0 55 -59 71.5t-129 -5.5l40 198q-206 6 -354 101v117q91 -55 181 -79t200 -24q148 0 235 69
t87 193q0 60 -25 108.5t-67 83t-96.5 63.5t-114.5 55t-120.5 52.5t-115 61t-96.5 75.5t-67 101t-25 133q0 116 58 201t152.5 126.5t213.5 41.5q184 0 339 -94v-117q-154 96 -331 96q-139 0 -224.5 -64.5t-85.5 -184.5q0 -63 31.5 -114.5t82.5 -85.5t116.5 -67.5t133.5 -60.5
t133.5 -65t116.5 -81t82.5 -109t31.5 -147z" />
    <glyph glyph-name="scedilla" unicode="&#x15f;" horiz-adv-x="774" 
d="M719 246q0 -113 -70.5 -179.5t-187.5 -84.5l-29 -125q72 2 122.5 -34.5t51.5 -113.5q1 -86 -66.5 -134t-160.5 -48q-89 0 -150 27v94q63 -27 144 -27q63 0 98 24.5t35 67.5q0 55 -59 71.5t-130 -5.5l41 198q-170 6 -280 76v115q128 -84 301 -84q103 0 163 41t60 119
q0 45 -22.5 79t-60 54.5t-84.5 40.5t-97 35.5t-97 40.5t-84.5 54.5t-60 78t-22.5 110.5q0 122 89 195.5t234 73.5q135 0 265 -68v-111q-124 74 -256 74q-95 0 -154 -43.5t-59 -118.5q0 -50 29 -87t75.5 -59.5t102.5 -42.5t112 -44t102.5 -55t75.5 -83t29 -122z" />
    <glyph glyph-name="Scaron" unicode="&#x160;" horiz-adv-x="968" 
d="M514 1585h-104l-213 264h129l135 -163l137 163h129zM481 -23q-118 0 -210.5 23t-178.5 78v117q91 -55 181 -79t200 -24q148 0 235 69t87 193q0 60 -25 108.5t-67 83t-96.5 63.5t-114.5 55t-120.5 52.5t-115 61t-96.5 75.5t-67 101t-25 133q0 116 58 201t152.5 126.5
t213.5 41.5q184 0 339 -94v-117q-154 96 -331 96q-139 0 -224.5 -64.5t-85.5 -184.5q0 -63 31.5 -114.5t82.5 -85.5t116.5 -67.5t133.5 -60.5t133.5 -65t116.5 -81t82.5 -109t31.5 -147q0 -186 -122 -285.5t-315 -99.5z" />
    <glyph glyph-name="scaron" unicode="&#x161;" horiz-adv-x="774" 
d="M434 1135h-104l-213 264h129l135 -164l137 164h129zM397 1006q135 0 265 -68v-111q-124 74 -256 74q-95 0 -154 -43.5t-59 -118.5q0 -50 29 -87t75.5 -59.5t102.5 -42.5t112 -44t102.5 -55t75.5 -83t29 -122q0 -130 -94.5 -199.5t-239.5 -69.5q-188 0 -307 76v115
q128 -84 301 -84q103 0 163 41t60 119q0 45 -22.5 79t-60 54.5t-84.5 40.5t-97 35.5t-97 40.5t-84.5 54.5t-60 78t-22.5 110.5q0 122 89 195.5t234 73.5z" />
    <glyph glyph-name="uni0162" unicode="&#x162;" horiz-adv-x="958" 
d="M418 0v1317h-395v117h913v-117h-395v-1317h-123zM379 -485l47 368h115l-60 -368h-102z" />
    <glyph glyph-name="uni0163" unicode="&#x163;" horiz-adv-x="602" 
d="M420 -23q-113 -2 -179.5 66.5t-66.5 198.5v637h-149v104h149v264l115 27v-291h272v-104h-272v-619q0 -90 35.5 -133t107.5 -43q70 3 133 31v-109q-66 -29 -145 -29zM274 -485l48 368h114l-59 -368h-103z" />
    <glyph glyph-name="Tcaron" unicode="&#x164;" horiz-adv-x="958" 
d="M537 1585h-105l-213 264h129l135 -163l138 163h129zM418 0v1317h-395v117h913v-117h-395v-1317h-123z" />
    <glyph glyph-name="tcaron" unicode="&#x165;" horiz-adv-x="602" 
d="M582 1495l-52 -340h-102l37 340h117zM420 -23q-113 -2 -179.5 66.5t-66.5 198.5v637h-149v104h149v264l115 27v-291h272v-104h-272v-619q0 -90 35.5 -133t107.5 -43q70 3 133 31v-109q-66 -29 -145 -29z" />
    <glyph glyph-name="Tbar" unicode="&#x166;" horiz-adv-x="976" 
d="M946 1317h-397v-529h221v-102h-221v-686h-121v686h-221v102h221v529h-397v117h915v-117z" />
    <glyph glyph-name="tbar" unicode="&#x167;" horiz-adv-x="604" 
d="M424 -23q-115 -2 -181.5 66t-66.5 199v217h-110v102h110v318h-149v104h149v264l117 27v-291h270v-104h-270v-318h223v-102h-223v-199q0 -91 34.5 -133.5t108.5 -42.5q60 3 131 31v-109q-74 -29 -143 -29z" />
    <glyph glyph-name="Umacron" unicode="&#x16a;" horiz-adv-x="1193" 
d="M848 1735v-107h-506v107h506zM596 -23q-97 0 -176 24.5t-142.5 76t-99 141.5t-35.5 211v1004h121v-998q0 -344 332 -344q334 0 334 344v998h121v-1004q0 -98 -23.5 -175.5t-65 -128.5t-99.5 -85t-124 -49t-143 -15z" />
    <glyph glyph-name="umacron" unicode="&#x16b;" horiz-adv-x="948" 
d="M723 1284v-106h-506v106h506zM823 983v-983h-106v141q-40 -75 -115 -119.5t-176 -44.5q-139 0 -223 90t-84 248v668h117v-661q0 -118 57.5 -178t157.5 -60q92 0 159.5 56.5t96.5 144.5v698h116z" />
    <glyph glyph-name="Uring" unicode="&#x16e;" horiz-adv-x="1193" 
d="M594 1536q-87 0 -144 55t-57 146q0 90 57 145t144 55t144 -55t57 -145q0 -91 -57 -146t-144 -55zM594 1618q50 0 80.5 32t30.5 87t-30.5 86.5t-80.5 31.5t-80.5 -31.5t-30.5 -86.5t30.5 -87t80.5 -32zM596 -23q-97 0 -176 24.5t-142.5 76t-99 141.5t-35.5 211v1004h121
v-998q0 -344 332 -344q334 0 334 344v998h121v-1004q0 -98 -23.5 -175.5t-65 -128.5t-99.5 -85t-124 -49t-143 -15z" />
    <glyph glyph-name="uring" unicode="&#x16f;" horiz-adv-x="948" 
d="M469 1085q-87 0 -144 55t-57 146t57 146t144 55t144 -55t57 -146t-57 -146t-144 -55zM469 1167q50 0 80.5 32t30.5 87t-30.5 87t-80.5 32t-80.5 -32t-30.5 -87t30.5 -87t80.5 -32zM823 983v-983h-106v141q-40 -75 -115 -119.5t-176 -44.5q-139 0 -223 90t-84 248v668h117
v-661q0 -118 57.5 -178t157.5 -60q92 0 159.5 56.5t96.5 144.5v698h116z" />
    <glyph glyph-name="Uhungarumlaut" unicode="&#x170;" horiz-adv-x="1193" 
d="M369 1595l139 283h129l-148 -283h-120zM653 1595l148 283h127l-154 -283h-121zM596 -23q-97 0 -176 24.5t-142.5 76t-99 141.5t-35.5 211v1004h121v-998q0 -344 332 -344q334 0 334 344v998h121v-1004q0 -98 -23.5 -175.5t-65 -128.5t-99.5 -85t-124 -49t-143 -15z" />
    <glyph glyph-name="uhungarumlaut" unicode="&#x171;" horiz-adv-x="948" 
d="M244 1145l139 282h129l-147 -282h-121zM528 1145l148 282h127l-154 -282h-121zM823 983v-983h-106v141q-40 -75 -115 -119.5t-176 -44.5q-139 0 -223 90t-84 248v668h117v-661q0 -118 57.5 -178t157.5 -60q92 0 159.5 56.5t96.5 144.5v698h116z" />
    <glyph glyph-name="Uogonek" unicode="&#x172;" horiz-adv-x="1193" 
d="M786 -473q-88 0 -136 44t-48 120q0 125 148 311q-65 -25 -154 -25q-97 0 -176 24.5t-142.5 76t-99 141.5t-35.5 211v1004h121v-998q0 -344 332 -344q334 0 334 344v998h121v-1004q0 -225 -123 -342q-215 -218 -215 -373q0 -49 26 -71.5t68 -22.5q47 0 86 19v-91
q-52 -22 -107 -22z" />
    <glyph glyph-name="uogonek" unicode="&#x173;" horiz-adv-x="946" 
d="M715 -469q-88 0 -136.5 44t-48.5 118q0 140 187 321v127q-42 -75 -116.5 -119.5t-176.5 -44.5q-137 0 -221 90.5t-84 247.5v668h114v-661q0 -118 58 -178t158 -60q92 0 159.5 56.5t96.5 144.5v698h116v-983q-86 -72 -133 -146t-47 -137q0 -47 26.5 -69.5t67.5 -22.5
q43 0 86 21v-90q-52 -25 -106 -25z" />
    <glyph glyph-name="Wcircumflex" unicode="&#x174;" horiz-adv-x="1619" 
d="M862 1849l213 -264h-129l-135 164l-137 -164h-129l213 264h104zM362 0l-333 1434h125l276 -1239l336 1212h86l336 -1212l278 1239h125l-334 -1434h-127l-321 1151l-320 -1151h-127z" />
    <glyph glyph-name="wcircumflex" unicode="&#x175;" horiz-adv-x="1312" 
d="M709 1399l213 -264h-129l-136 163l-137 -163h-129l213 264h105zM305 0l-272 983h123l213 -819l235 805h105l235 -805l213 819h121l-272 -983h-119l-232 788l-231 -788h-119z" />
    <glyph glyph-name="Ycircumflex" unicode="&#x176;" horiz-adv-x="1073" 
d="M590 1849l213 -264h-129l-135 164l-138 -164h-129l213 264h105zM475 0v610l-461 824h133l390 -707l389 707h133l-461 -824v-610h-123z" />
    <glyph glyph-name="ycircumflex" unicode="&#x177;" horiz-adv-x="886" 
d="M475 1399l213 -264h-129l-135 163l-137 -163h-129l213 264h104zM121 -451v105q86 -12 139 27q64 48 113 196l39 119l-394 987h121l326 -838l268 838h125l-377 -1135q-33 -97 -69 -159t-86 -95q-81 -62 -205 -45z" />
    <glyph glyph-name="Ydieresis" unicode="&#x178;" horiz-adv-x="1073" 
d="M369 1628q-35 0 -60.5 25t-25.5 59t25.5 60t60.5 26t59.5 -26t24.5 -60t-24.5 -59t-59.5 -25zM705 1628q-34 0 -59 25t-25 59t25 60t59 26q35 0 60.5 -26t25.5 -60t-25.5 -59t-60.5 -25zM475 0v610l-461 824h133l390 -707l389 707h133l-461 -824v-610h-123z" />
    <glyph glyph-name="Zacute" unicode="&#x179;" horiz-adv-x="931" 
d="M377 1583l184 277h139l-202 -277h-121zM39 0v106l694 1211h-665v117h804v-107l-694 -1210h713v-117h-852z" />
    <glyph glyph-name="zacute" unicode="&#x17a;" horiz-adv-x="759" 
d="M279 1133l184 276h139l-203 -276h-120zM690 983v-100l-504 -779h525v-104h-664v100l504 779h-479v104h618z" />
    <glyph glyph-name="Zdotaccent" unicode="&#x17b;" horiz-adv-x="931" 
d="M481 1595q-39 0 -63.5 24.5t-24.5 66.5t24.5 66t63.5 24q40 0 65 -24t25 -66t-25 -66.5t-65 -24.5zM39 0v106l694 1211h-665v117h804v-107l-694 -1210h713v-117h-852z" />
    <glyph glyph-name="zdotaccent" unicode="&#x17c;" horiz-adv-x="759" 
d="M383 1145q-39 0 -63.5 24t-24.5 66t24.5 66t63.5 24q40 0 65 -24t25 -66t-25 -66t-65 -24zM690 983v-100l-504 -779h525v-104h-664v100l504 779h-479v104h618z" />
    <glyph glyph-name="Zcaron" unicode="&#x17d;" horiz-adv-x="931" 
d="M535 1585h-105l-213 264h129l135 -163l137 163h130zM39 0v106l694 1211h-665v117h804v-107l-694 -1210h713v-117h-852z" />
    <glyph glyph-name="zcaron" unicode="&#x17e;" horiz-adv-x="759" 
d="M436 1135h-104l-213 264h129l135 -164l137 164h129zM690 983v-100l-504 -779h525v-104h-664v100l504 779h-479v104h618z" />
    <glyph glyph-name="Scommaaccent" unicode="&#x218;" horiz-adv-x="968" 
d="M481 -23q-118 0 -210.5 23t-178.5 78v117q91 -55 181 -79t200 -24q148 0 235 69t87 193q0 60 -25 108.5t-67 83t-96.5 63.5t-114.5 55t-120.5 52.5t-115 61t-96.5 75.5t-67 101t-25 133q0 116 58 201t152.5 126.5t213.5 41.5q184 0 339 -94v-117q-154 96 -331 96
q-139 0 -224.5 -64.5t-85.5 -184.5q0 -63 31.5 -114.5t82.5 -85.5t116.5 -67.5t133.5 -60.5t133.5 -65t116.5 -81t82.5 -109t31.5 -147q0 -186 -122 -285.5t-315 -99.5zM410 -485l47 368h114l-59 -368h-102z" />
    <glyph glyph-name="scommaaccent" unicode="&#x219;" horiz-adv-x="774" 
d="M397 1006q135 0 265 -68v-111q-124 74 -256 74q-95 0 -154 -43.5t-59 -118.5q0 -50 29 -87t75.5 -59.5t102.5 -42.5t112 -44t102.5 -55t75.5 -83t29 -122q0 -130 -94.5 -199.5t-239.5 -69.5q-188 0 -307 76v115q128 -84 301 -84q103 0 163 41t60 119q0 45 -22.5 79
t-60 54.5t-84.5 40.5t-97 35.5t-97 40.5t-84.5 54.5t-60 78t-22.5 110.5q0 122 89 195.5t234 73.5zM324 -485l47 368h114l-59 -368h-102z" />
    <glyph glyph-name="uni021A" unicode="&#x21a;" horiz-adv-x="958" 
d="M418 0v1317h-395v117h913v-117h-395v-1317h-123zM379 -485l47 368h115l-60 -368h-102z" />
    <glyph glyph-name="uni021B" unicode="&#x21b;" horiz-adv-x="602" 
d="M420 -23q-113 -2 -179.5 66.5t-66.5 198.5v637h-149v104h149v264l115 27v-291h272v-104h-272v-619q0 -90 35.5 -133t107.5 -43q70 3 133 31v-109q-66 -29 -145 -29zM274 -485l48 368h114l-59 -368h-103z" />
    <glyph glyph-name="circumflex" unicode="&#x2c6;" horiz-adv-x="653" 
d="M379 1849l213 -264h-129l-135 164l-138 -164h-129l213 264h105z" />
    <glyph glyph-name="caron" unicode="&#x2c7;" horiz-adv-x="653" 
d="M379 1585h-105l-213 264h129l138 -163l135 163h129z" />
    <glyph glyph-name="breve" unicode="&#x2d8;" horiz-adv-x="600" 
d="M301 1585q-137 0 -240 68v108q107 -65 240 -65q134 0 238 65v-108q-100 -68 -238 -68z" />
    <glyph glyph-name="dotaccent" unicode="&#x2d9;" horiz-adv-x="301" 
d="M150 1595q-39 0 -64 24.5t-25 66.5t25 66t64 24q40 0 65 -24t25 -66t-25 -66.5t-65 -24.5z" />
    <glyph glyph-name="ring" unicode="&#x2da;" horiz-adv-x="522" 
d="M262 1536q-88 0 -144.5 55t-56.5 146t56.5 145.5t144.5 54.5q86 0 142.5 -54.5t56.5 -145.5t-56.5 -146t-142.5 -55zM262 1618q50 0 79.5 32t29.5 87t-29.5 86.5t-79.5 31.5t-80 -31.5t-30 -86.5t30 -87t80 -32z" />
    <glyph glyph-name="ogonek" unicode="&#x2db;" horiz-adv-x="413" 
d="M246 -473q-88 0 -136.5 44t-48.5 120q0 68 39.5 150.5t108.5 158.5h123q-76 -73 -119 -149t-43 -136q0 -49 26 -71.5t68 -22.5q49 0 88 19v-91q-52 -22 -106 -22z" />
    <glyph glyph-name="tilde" unicode="&#x2dc;" horiz-adv-x="638" 
d="M442 1585q-47 0 -91 23.5t-79 47t-59 23.5q-54 0 -61 -84h-89q-7 89 29.5 138t104.5 49q50 0 95 -23t78.5 -46t53.5 -23q33 0 46.5 20.5t16.5 63.5h88q7 -91 -28.5 -140t-104.5 -49z" />
    <glyph glyph-name="hungarumlaut" unicode="&#x2dd;" horiz-adv-x="681" 
d="M61 1595l140 283h129l-148 -283h-121zM346 1595l148 283h127l-154 -283h-121z" />
    <glyph glyph-name="gravecomb" unicode="&#x300;" horiz-adv-x="0" 
d="M-631 1583l-200 277h139l182 -277h-121z" />
    <glyph glyph-name="acutecomb" unicode="&#x301;" horiz-adv-x="0" 
d="M-741 1583l184 277h139l-203 -277h-120z" />
    <glyph glyph-name="uni0302" unicode="&#x302;" horiz-adv-x="0" 
d="M-569 1849l213 -264h-129l-136 164l-137 -164h-129l213 264h105z" />
    <glyph glyph-name="tildecomb" unicode="&#x303;" horiz-adv-x="0" 
d="M-512 1585q-47 0 -91 23.5t-79 47t-59 23.5q-55 0 -62 -84h-88q-7 89 29.5 138t103.5 49q39 0 76.5 -14.5t61 -31.5t48.5 -31.5t42 -14.5q33 0 46.5 20.5t16.5 63.5h88q7 -91 -28.5 -140t-104.5 -49z" />
    <glyph glyph-name="uni0304" unicode="&#x304;" horiz-adv-x="0" 
d="M-379 1735v-107h-506v107h506z" />
    <glyph glyph-name="uni0306" unicode="&#x306;" horiz-adv-x="0" 
d="M-618 1585q-137 0 -240 68v108q107 -65 240 -65q132 0 239 65v-108q-103 -68 -239 -68z" />
    <glyph glyph-name="uni0307" unicode="&#x307;" horiz-adv-x="0" 
d="M-627 1595q-39 0 -63.5 24.5t-24.5 66.5t24.5 66t63.5 24q40 0 65 -24t25 -66t-25 -66.5t-65 -24.5z" />
    <glyph glyph-name="uni0308" unicode="&#x308;" horiz-adv-x="0" 
d="M-795 1628q-35 0 -60.5 25t-25.5 59t25.5 60t60.5 26t59.5 -26t24.5 -60t-24.5 -59t-59.5 -25zM-459 1628q-34 0 -59 25t-25 59t25 60t59 26q35 0 60.5 -26t25.5 -60t-25.5 -59t-60.5 -25z" />
    <glyph glyph-name="uni030A" unicode="&#x30a;" horiz-adv-x="0" 
d="M-618 1536q-87 0 -144 55t-57 146q0 90 57 145t144 55t143.5 -54.5t56.5 -145.5t-57 -146t-143 -55zM-618 1618q50 0 80 32t30 87t-30 86.5t-80 31.5t-80.5 -31.5t-30.5 -86.5t30.5 -87t80.5 -32z" />
    <glyph glyph-name="uni030B" unicode="&#x30b;" horiz-adv-x="0" 
d="M-852 1595l139 283h129l-147 -283h-121zM-567 1595l147 283h127l-153 -283h-121z" />
    <glyph glyph-name="uni030C" unicode="&#x30c;" horiz-adv-x="0" 
d="M-571 1585h-105l-213 264h129l135 -163l138 163h129z" />
    <glyph glyph-name="uni0312" unicode="&#x312;" horiz-adv-x="0" 
d="M-541 1929l-43 -346h-116l57 346h102z" />
    <glyph glyph-name="uni0326" unicode="&#x326;" horiz-adv-x="0" 
d="M-719 -485l47 368h115l-59 -368h-103z" />
    <glyph glyph-name="uni0327" unicode="&#x327;" horiz-adv-x="0" 
d="M-571 0l-33 -143q72 2 122.5 -34.5t51.5 -113.5q1 -86 -66.5 -134t-160.5 -48q-89 0 -150 27v94q63 -27 143 -27q63 0 98.5 24.5t35.5 67.5q0 55 -59 71.5t-130 -5.5l45 221h103z" />
    <glyph glyph-name="uni0328" unicode="&#x328;" horiz-adv-x="0" 
d="M-516 -473q-88 0 -136 44t-48 120q0 68 39 150.5t108 158.5h123q-76 -73 -119 -149t-43 -136q0 -49 26 -71.5t68 -22.5q49 0 88 19v-91q-52 -22 -106 -22z" />
    <glyph glyph-name="uni0401" unicode="&#x401;" horiz-adv-x="970" 
d="M352 1628q-35 0 -60.5 25t-25.5 59t25.5 60t60.5 26t59.5 -26t24.5 -60t-24.5 -59t-59.5 -25zM688 1628q-34 0 -59 25t-25 59t25 60t59 26q35 0 60.5 -26t25.5 -60t-25.5 -59t-60.5 -25zM154 0v1434h737v-117h-615v-537h553v-116h-553v-547h629v-117h-751z" />
    <glyph glyph-name="uni0402" unicode="&#x402;" horiz-adv-x="1177" 
d="M788 1006q142 0 226 -89t84 -243v-445q0 -121 -61 -187.5t-158 -64.5q-69 0 -121 17v108q44 -12 88 -12q68 0 98.5 38t30.5 122v409q0 116 -54 174t-157 58q-149 0 -256 -121v-770h-123v1317h-362v117h915v-117h-430v-414q114 103 280 103z" />
    <glyph glyph-name="uni0403" unicode="&#x403;" horiz-adv-x="919" 
d="M395 1583l185 277h139l-203 -277h-121zM154 0v1434h745v-117h-623v-1317h-122z" />
    <glyph glyph-name="uni0404" unicode="&#x404;" horiz-adv-x="978" 
d="M80 707q1 182 43 325.5t117.5 235.5t178 140t226.5 48q153 0 273 -72v-110q-119 67 -267 67q-197 0 -314.5 -144.5t-129.5 -422.5h477v-115h-479q6 -282 119.5 -424.5t316.5 -142.5q152 0 287 72v-117q-137 -70 -303 -70q-120 0 -218 43t-172.5 129.5t-115 228.5
t-39.5 329z" />
    <glyph glyph-name="uni0405" unicode="&#x405;" horiz-adv-x="968" 
d="M481 -23q-118 0 -210.5 23t-178.5 78v117q91 -55 181 -79t200 -24q148 0 235 69t87 193q0 60 -25 108.5t-67 83t-96.5 63.5t-114.5 55t-120.5 52.5t-115 61t-96.5 75.5t-67 101t-25 133q0 116 58 201t152.5 126.5t213.5 41.5q184 0 339 -94v-117q-154 96 -331 96
q-139 0 -224.5 -64.5t-85.5 -184.5q0 -63 31.5 -114.5t82.5 -85.5t116.5 -67.5t133.5 -60.5t133.5 -65t116.5 -81t82.5 -109t31.5 -147q0 -186 -122 -285.5t-315 -99.5z" />
    <glyph glyph-name="uni0406" unicode="&#x406;" horiz-adv-x="430" 
d="M276 1434v-1434h-122v1434h122z" />
    <glyph glyph-name="uni0407" unicode="&#x407;" horiz-adv-x="430" 
d="M47 1628q-35 0 -60.5 25t-25.5 59t25.5 60t60.5 26t59.5 -26t24.5 -60t-24.5 -59t-59.5 -25zM383 1628q-34 0 -59 25t-25 59t25 60t59 26q35 0 60.5 -26t25.5 -60t-25.5 -59t-60.5 -25zM276 1434v-1434h-122v1434h122z" />
    <glyph glyph-name="uni0408" unicode="&#x408;" horiz-adv-x="829" 
d="M309 -23q-149 0 -270 58v117q120 -60 256 -60q124 0 196 68t72 198v959h-336v117h457v-1080q0 -186 -103 -281.5t-272 -95.5z" />
    <glyph glyph-name="uni0409" unicode="&#x409;" horiz-adv-x="1830" 
d="M1331 815q208 0 327.5 -104t119.5 -303t-119.5 -302.5t-327.5 -103.5l-385 -2v1317h-469q-7 -166 -11.5 -250.5t-13.5 -223t-17 -214t-22.5 -176.5t-31.5 -161.5t-41.5 -118.5t-54.5 -93q-49 -59 -122 -80.5t-167 0.5v104q64 -19 116.5 -3t88.5 63q40 53 66.5 147.5
t44.5 296t26 334.5t23 475q1 11 1 17h705v-619h264zM1337 117q154 0 236 74.5t82 216.5q0 140 -82.5 215t-235.5 75h-270v-581h270z" />
    <glyph glyph-name="uni040A" unicode="&#x40a;" horiz-adv-x="1783" 
d="M1284 815q209 0 328 -103.5t119 -303.5t-119 -303t-328 -103l-385 -2v698h-623v-698h-122v1434h122v-619h623v619h123v-619h262zM1290 117q154 0 236 74.5t82 216.5q0 140 -82.5 215t-235.5 75h-268v-581h268z" />
    <glyph glyph-name="uni040B" unicode="&#x40b;" horiz-adv-x="1181" 
d="M788 1006q142 0 226 -89t84 -243v-674h-123v659q0 116 -54 174t-157 58q-149 0 -256 -121v-770h-123v1317h-362v117h915v-117h-430v-414q114 103 280 103z" />
    <glyph glyph-name="uni040C" unicode="&#x40c;" horiz-adv-x="1071" 
d="M451 1583l184 277h139l-203 -277h-120zM154 0v1434h122v-643h197l436 643h140l-476 -699l496 -735h-139l-453 676h-201v-676h-122z" />
    <glyph glyph-name="uni040E" unicode="&#x40e;" horiz-adv-x="1017" 
d="M508 1585q-137 0 -240 68v108q107 -65 240 -65t240 65v-108q-103 -68 -240 -68zM889 1434h127l-412 -1141q-58 -161 -126 -230t-163 -77q-79 -10 -168 14v115q89 -27 152 -15q69 10 110.5 63t86.5 171l-492 1100h123l424 -955z" />
    <glyph glyph-name="uni040F" unicode="&#x40f;" horiz-adv-x="1196" 
d="M1042 1434v-1434h-387v-348h-114v348h-387v1434h122v-1317h644v1317h122z" />
    <glyph glyph-name="uni0410" unicode="&#x410;" horiz-adv-x="1118" 
d="M10 0l484 1434h131l483 -1434h-129l-125 383h-590l-125 -383h-129zM301 496h516l-209 630q-32 102 -49 168q-17 -66 -49 -168z" />
    <glyph glyph-name="uni0411" unicode="&#x411;" horiz-adv-x="1095" 
d="M154 0v1434h807v-117h-685v-481h310q212 0 334 -109t122 -309q0 -201 -121.5 -309.5t-334.5 -108.5h-432zM276 117h316q162 0 245 78t83 223q0 144 -83.5 222.5t-244.5 78.5h-316v-602z" />
    <glyph glyph-name="uni0412" unicode="&#x412;" horiz-adv-x="1114" 
d="M569 1434q199 0 307.5 -90t108.5 -271q0 -135 -61.5 -214.5t-147.5 -106.5q34 -8 67.5 -23.5t70 -44.5t64 -67.5t45.5 -97.5t19 -130q0 -80 -22 -144t-60 -105t-83.5 -70t-101 -43.5t-104 -20.5t-100.5 -6h-417v1434h415zM559 1317h-283v-514h316q121 0 195.5 63.5
t74.5 190.5q0 141 -74.5 200.5t-228.5 59.5zM586 688h-310v-571h273q42 0 74.5 2t73 8.5t70 18t60 33t49.5 50.5t31.5 73t12.5 99q-2 287 -334 287z" />
    <glyph glyph-name="uni0413" unicode="&#x413;" horiz-adv-x="919" 
d="M154 0v1434h745v-117h-623v-1317h-122z" />
    <glyph glyph-name="uni0414" unicode="&#x414;" horiz-adv-x="1269" 
d="M16 -348v465h146q78 215 110.5 542t32.5 775h768v-1317h154v-465h-115v348h-979v-348h-117zM293 117h659v1200h-526q3 -747 -133 -1200z" />
    <glyph glyph-name="uni0415" unicode="&#x415;" horiz-adv-x="970" 
d="M154 0v1434h737v-117h-615v-537h553v-116h-553v-547h629v-117h-751z" />
    <glyph glyph-name="uni0416" unicode="&#x416;" horiz-adv-x="1554" 
d="M4 0l449 735l-422 699h139l381 -643h166v643h121v-643h166l380 643h140l-420 -699l446 -735h-139l-403 676h-170v-676h-121v676h-168l-406 -676h-139z" />
    <glyph glyph-name="uni0417" unicode="&#x417;" horiz-adv-x="978" 
d="M438 -23q-216 0 -391 80v119q164 -84 383 -84q50 0 97 8.5t94 30t82 54t57 85t22 119.5t-21.5 120.5t-54.5 86t-76.5 54t-84 30t-80.5 8.5h-199v115h187q117 0 194.5 71.5t77.5 194.5q0 140 -87.5 206t-238.5 66q-161 0 -327 -81v116q151 80 338 80q196 0 317 -95.5
t121 -277.5q0 -126 -70 -214t-166 -119q37 -8 74.5 -24.5t78 -47.5t71.5 -71t51 -99.5t20 -128.5q0 -87 -29 -157t-75.5 -115t-108.5 -75t-126 -42.5t-130 -12.5z" />
    <glyph glyph-name="uni0418" unicode="&#x418;" horiz-adv-x="1216" 
d="M1063 0h-123v889q0 162 10 325l-669 -1214h-127v1434h122v-887q0 -161 -10 -328l670 1215h127v-1434z" />
    <glyph glyph-name="uni0419" unicode="&#x419;" horiz-adv-x="1216" 
d="M608 1571q-146 0 -246 71v103q111 -70 246 -70t246 70v-103q-100 -71 -246 -71zM1063 0h-123v889q0 162 10 325l-669 -1214h-127v1434h122v-887q0 -161 -10 -328l670 1215h127v-1434z" />
    <glyph glyph-name="uni041A" unicode="&#x41a;" horiz-adv-x="1071" 
d="M154 0v1434h122v-643h197l436 643h140l-476 -699l496 -735h-139l-453 676h-201v-676h-122z" />
    <glyph glyph-name="uni041B" unicode="&#x41b;" horiz-adv-x="1255" 
d="M-4 0v104q64 -19 116.5 -3t88.5 63q40 53 66.5 147.5t44.5 296t26 334.5t23 475q1 11 1 17h740v-1434h-121v1317h-504q-7 -166 -11.5 -250.5t-13.5 -223t-17 -214t-22.5 -176.5t-31.5 -161.5t-41.5 -118.5t-54.5 -93q-49 -59 -122 -80.5t-167 0.5z" />
    <glyph glyph-name="uni041C" unicode="&#x41c;" horiz-adv-x="1431" 
d="M154 0v1434h127l434 -865l434 865h127v-1434h-121v877q0 199 10 340l-420 -838h-61l-420 838q12 -170 12 -340v-877h-122z" />
    <glyph glyph-name="uni041D" unicode="&#x41d;" horiz-adv-x="1216" 
d="M1063 1434v-1434h-123v662h-664v-662h-122v1434h122v-656h664v656h123z" />
    <glyph glyph-name="uni041E" unicode="&#x41e;" horiz-adv-x="1202" 
d="M602 -23q-254 0 -387 197t-133 543t133 542.5t387 196.5q253 0 385.5 -196.5t132.5 -542.5t-132.5 -543t-385.5 -197zM602 92q196 0 295.5 163.5t99.5 461.5t-99.5 461t-295.5 163t-296.5 -163.5t-100.5 -460.5t100.5 -461t296.5 -164z" />
    <glyph glyph-name="uni041F" unicode="&#x41f;" horiz-adv-x="1216" 
d="M154 0v1434h909v-1434h-123v1317h-664v-1317h-122z" />
    <glyph glyph-name="uni0420" unicode="&#x420;" horiz-adv-x="1062" 
d="M526 1434q226 0 354 -115t128 -340t-128 -341t-354 -116h-250v-522h-122v1434h372zM532 1317h-256v-678h256q169 0 261 87t92 253q0 167 -91 252.5t-262 85.5z" />
    <glyph glyph-name="uni0421" unicode="&#x421;" horiz-adv-x="980" 
d="M627 -23q-115 0 -213 45.5t-173.5 134t-118.5 230t-42 320.5q1 175 44 317t119 236t179 145t225 51q150 0 268 -72v-110q-116 67 -262 67q-205 0 -327 -165.5t-123 -468.5q-1 -290 116 -452.5t324 -162.5q148 0 283 72v-117q-137 -70 -299 -70z" />
    <glyph glyph-name="uni0422" unicode="&#x422;" horiz-adv-x="958" 
d="M418 0v1317h-395v117h913v-117h-395v-1317h-123z" />
    <glyph glyph-name="uni0423" unicode="&#x423;" horiz-adv-x="1017" 
d="M889 1434h127l-412 -1141q-58 -161 -126 -230t-163 -77q-79 -10 -168 14v115q89 -27 152 -15q69 10 110.5 63t86.5 171l-492 1100h123l424 -955z" />
    <glyph glyph-name="uni0424" unicode="&#x424;" horiz-adv-x="1386" 
d="M633 -74v183q-275 20 -432.5 184t-157.5 424t157.5 424t432.5 184v182h121v-182q274 -20 430.5 -184t156.5 -424t-156.5 -424t-430.5 -184v-183h-121zM633 225v983q-228 -13 -347.5 -147t-119.5 -344q0 -207 123.5 -343t343.5 -149zM754 225q228 13 346.5 147.5
t118.5 344.5t-118.5 344t-346.5 147v-983z" />
    <glyph glyph-name="uni0425" unicode="&#x425;" horiz-adv-x="1054" 
d="M2 0l459 741l-428 693h135l360 -586l361 586h133l-426 -693l457 -741h-138l-387 633l-389 -633h-137z" />
    <glyph glyph-name="uni0426" unicode="&#x426;" horiz-adv-x="1241" 
d="M1081 -348l2 348h-929v1434h122v-1317h644v1317h122v-1317h156v-465h-117z" />
    <glyph glyph-name="uni0427" unicode="&#x427;" horiz-adv-x="1130" 
d="M854 0v596q-175 -86 -362 -86q-192 3 -298 105.5t-106 291.5v527h123v-533q0 -137 78.5 -204.5t222.5 -69.5q180 -3 342 92v715h123v-1434h-123z" />
    <glyph glyph-name="uni0428" unicode="&#x428;" horiz-adv-x="1771" 
d="M154 0v1434h122v-1317h549v1317h121v-1317h549v1317h121v-1434h-1462z" />
    <glyph glyph-name="uni0429" unicode="&#x429;" horiz-adv-x="1775" 
d="M1616 -348l2 348h-1464v1434h122v-1317h529v1317h121v-1317h528v1317h121v-1317h158v-465h-117z" />
    <glyph glyph-name="uni042A" unicode="&#x42a;" horiz-adv-x="1251" 
d="M342 0v1317h-319v117h440v-551h252q145 0 251.5 -47t168 -147.5t61.5 -246.5q0 -218 -130 -330t-351 -112h-373zM463 117h258q167 0 259.5 82.5t92.5 242.5q0 159 -93 242.5t-259 83.5h-258v-651z" />
    <glyph glyph-name="uni042B" unicode="&#x42b;" horiz-adv-x="1492" 
d="M154 0v1434h122v-551h252q222 0 352 -112t130 -329q0 -110 -35 -195t-99.5 -138.5t-152 -81t-195.5 -27.5h-374zM1339 1434v-1434h-122v1434h122zM276 117h259q167 0 259.5 82.5t92.5 242.5q0 159 -93 242.5t-259 83.5h-259v-651z" />
    <glyph glyph-name="uni042C" unicode="&#x42c;" horiz-adv-x="1062" 
d="M154 0v1434h122v-551h252q222 0 352 -112t130 -329q0 -110 -35 -195t-99.5 -138.5t-152 -81t-195.5 -27.5h-374zM276 117h259q167 0 259.5 82.5t92.5 242.5q0 159 -93 242.5t-259 83.5h-259v-651z" />
    <glyph glyph-name="uni042D" unicode="&#x42d;" horiz-adv-x="978" 
d="M354 -23q-166 0 -303 70v117q135 -72 287 -72q203 0 316.5 142.5t119.5 424.5h-479v115h477q-12 278 -129.5 422.5t-314.5 144.5q-148 0 -267 -67v110q120 72 273 72q124 0 226.5 -48t178 -140t117.5 -235.5t43 -325.5q1 -187 -39.5 -329t-115 -228.5t-172.5 -129.5
t-218 -43z" />
    <glyph glyph-name="uni042E" unicode="&#x42e;" horiz-adv-x="1622" 
d="M1022 -25q-242 0 -371.5 181t-140.5 503h-234v-659h-122v1434h122v-660h234q11 322 140.5 503t371.5 181q253 0 385.5 -197.5t132.5 -543.5q0 -228 -57 -393t-174.5 -257t-286.5 -92zM1022 92q196 0 295.5 163.5t99.5 461.5t-99.5 461t-295.5 163t-296.5 -163.5
t-100.5 -460.5t100.5 -461t296.5 -164z" />
    <glyph glyph-name="uni042F" unicode="&#x42f;" horiz-adv-x="1126" 
d="M539 1434h432v-1434h-121v580h-299q-29 0 -41 2l-330 -582h-137l344 598q-143 38 -220 144t-77 264q0 106 35 189t97 134.5t142 78t175 26.5zM850 694v623h-318q-146 0 -232.5 -78.5t-86.5 -232.5q0 -152 88 -232t236 -80h313z" />
    <glyph glyph-name="uni0430" unicode="&#x430;" horiz-adv-x="892" 
d="M840 92q21 0 39 6v-96q-38 -10 -70 -10q-127 0 -154 121q-101 -136 -290 -136q-85 0 -154 29.5t-114.5 98t-45.5 167.5q0 155 106.5 236.5t280.5 81.5q88 0 201 -29v103q0 109 -55.5 172t-190.5 63q-137 0 -282 -61v112q149 56 295 56q348 0 348 -357v-463q0 -94 86 -94z
M381 80q178 0 258 151v230q-91 26 -182 26q-132 0 -209.5 -51.5t-77.5 -156.5q0 -94 58 -146.5t153 -52.5z" />
    <glyph glyph-name="uni0431" unicode="&#x431;" horiz-adv-x="972" 
d="M502 -23q-198 0 -307 144t-109 424q0 253 64 404.5t186 238.5q56 40 149.5 83t180 88t143.5 97v-129q-64 -52 -211.5 -123.5t-202.5 -111.5q-155 -115 -182 -344q43 90 121.5 142t187.5 52q170 0 271.5 -131t101.5 -350q0 -228 -101 -356t-292 -128zM494 88
q147 0 216.5 100t69.5 271t-67 271.5t-207 100.5q-130 0 -207.5 -95t-93.5 -251q0 -181 73.5 -289t215.5 -108z" />
    <glyph glyph-name="uni0432" unicode="&#x432;" horiz-adv-x="903" 
d="M125 0v983h375q137 0 219 -68.5t82 -191.5q0 -81 -40 -139t-108 -82q78 -21 130.5 -81t52.5 -155q0 -126 -83.5 -196t-232.5 -70h-395zM242 549h250q92 0 142 40.5t50 123.5q0 85 -54 126.5t-141 41.5h-247v-332zM242 102h264q213 0 213 170q0 174 -207 174h-270v-344z
" />
    <glyph glyph-name="uni0433" unicode="&#x433;" horiz-adv-x="733" 
d="M125 0v983h582v-109h-465v-874h-117z" />
    <glyph glyph-name="uni0434" unicode="&#x434;" horiz-adv-x="1042" 
d="M14 -272v376h121q63 168 91.5 378.5t25.5 500.5h616v-879h136v-376h-113v272h-764v-272h-113zM262 104h492v775h-389q-8 -460 -103 -775z" />
    <glyph glyph-name="uni0435" unicode="&#x435;" horiz-adv-x="905" 
d="M535 -23q-224 0 -341.5 137.5t-117.5 377.5q0 233 106 373.5t293 140.5q134 0 222.5 -75.5t122 -202.5t16.5 -294h-639q23 -348 344 -348q131 0 237 53v-108q-108 -54 -243 -54zM195 537h532q6 169 -57.5 263.5t-194.5 94.5q-129 0 -200.5 -95.5t-79.5 -262.5z" />
    <glyph glyph-name="uni0436" unicode="&#x436;" horiz-adv-x="1239" 
d="M897 500l324 -500h-138l-282 449h-123v-449h-117v449h-123l-282 -449h-138l324 500l-303 483h135l260 -426h127v426h117v-426h127l260 426h135z" />
    <glyph glyph-name="uni0437" unicode="&#x437;" horiz-adv-x="788" 
d="M350 -23q-173 0 -293 60v110q118 -63 279 -63q49 0 93 9.5t83.5 29.5t62.5 58t23 89q0 48 -21 84t-55 55t-70 28t-73 9h-148v109h148q80 0 135 43.5t55 122.5q0 89 -63 133.5t-168 44.5q-136 0 -264 -61v108q132 62 276 62q154 0 245 -74.5t91 -202.5q0 -88 -46.5 -149
t-121.5 -80q79 -21 137 -85.5t58 -158.5q0 -136 -101.5 -208.5t-261.5 -72.5z" />
    <glyph glyph-name="uni0438" unicode="&#x438;" horiz-adv-x="968" 
d="M125 0v983h117v-561q0 -127 -11 -229l500 790h111v-983h-115v561q0 131 8 230l-497 -791h-113z" />
    <glyph glyph-name="uni0439" unicode="&#x439;" horiz-adv-x="968" 
d="M483 1130q-130 0 -231 62v111q111 -66 231 -66q123 0 234 66v-111q-101 -62 -234 -62zM125 0v983h117v-561q0 -127 -11 -229l500 790h111v-983h-115v561q0 131 8 230l-497 -791h-113z" />
    <glyph glyph-name="uni043A" unicode="&#x43a;" horiz-adv-x="856" 
d="M125 0v983h117v-426h180l274 426h133l-315 -483l336 -500h-135l-297 449h-176v-449h-117z" />
    <glyph glyph-name="uni043B" unicode="&#x43b;" horiz-adv-x="970" 
d="M12 0v98q95 -22 148 31q58 60 79 250t35 604h572v-983h-117v874h-342q-7 -159 -11.5 -241.5t-15 -195t-24 -174.5t-37.5 -121t-57 -93q-85 -85 -230 -49z" />
    <glyph glyph-name="uni043C" unicode="&#x43c;" horiz-adv-x="1153" 
d="M125 0v983h127l323 -588l326 588h125v-983h-111v621q0 97 15 196l-309 -559h-89l-309 559q13 -107 13 -196v-621h-111z" />
    <glyph glyph-name="uni043D" unicode="&#x43d;" horiz-adv-x="954" 
d="M125 0v983h117v-438h471v438h116v-983h-116v438h-471v-438h-117z" />
    <glyph glyph-name="uni043E" unicode="&#x43e;" horiz-adv-x="952" 
d="M475 1006q193 0 296 -134t103 -380q0 -244 -103.5 -379.5t-295.5 -135.5q-191 0 -295 136t-104 379t104 378.5t295 135.5zM475 899q-138 0 -209 -107t-71 -300t71 -299.5t209 -106.5q140 0 210.5 106.5t70.5 299.5t-70.5 300t-210.5 107z" />
    <glyph glyph-name="uni043F" unicode="&#x43f;" horiz-adv-x="954" 
d="M125 0v983h704v-983h-116v879h-471v-879h-117z" />
    <glyph glyph-name="uni0440" unicode="&#x440;" horiz-adv-x="974" 
d="M899 492q0 -148 -40.5 -262t-127 -183.5t-209.5 -69.5q-100 0 -170 47t-110 119v-594h-117v1434h106v-158q40 80 114 130.5t177 50.5q123 0 209.5 -69t127 -183t40.5 -262zM242 690v-397q38 -100 104 -154.5t158 -54.5q139 0 207.5 109.5t68.5 298.5t-68.5 298
t-207.5 109q-92 0 -158 -54.5t-104 -154.5z" />
    <glyph glyph-name="uni0441" unicode="&#x441;" horiz-adv-x="782" 
d="M502 -23q-208 0 -317 138t-109 377q0 234 115 374t311 140q117 0 213 -54v-108q-94 55 -199 55q-153 0 -237 -109.5t-84 -297.5q0 -193 77 -299.5t230 -106.5q119 0 223 51v-106q-96 -54 -223 -54z" />
    <glyph glyph-name="uni0442" unicode="&#x442;" horiz-adv-x="751" 
d="M317 0v879h-288v104h696v-104h-291v-879h-117z" />
    <glyph glyph-name="uni0443" unicode="&#x443;" horiz-adv-x="886" 
d="M121 -451v105q86 -12 139 27q64 48 113 196l39 119l-394 987h121l326 -838l268 838h125l-377 -1135q-33 -97 -69 -159t-86 -95q-81 -62 -205 -45z" />
    <glyph glyph-name="uni0444" unicode="&#x444;" horiz-adv-x="1202" 
d="M543 -451v431q-211 18 -341 153.5t-130 358.5t130 358.5t341 153.5v430h116v-430q212 -18 341.5 -153t129.5 -359t-129.5 -359t-341.5 -153v-431h-116zM543 84v815q-168 -14 -261.5 -120t-93.5 -287t93.5 -287.5t261.5 -120.5zM659 84q168 14 261.5 120.5t93.5 287.5
t-93.5 287t-261.5 120v-815z" />
    <glyph glyph-name="uni0445" unicode="&#x445;" horiz-adv-x="837" 
d="M16 0l338 508l-317 475h133l221 -336l29 -49q5 9 29 49l221 336h131l-314 -475l334 -508h-131l-225 338q-25 39 -45 86q-20 -47 -45 -86l-225 -338h-134z" />
    <glyph glyph-name="uni0446" unicode="&#x446;" horiz-adv-x="983" 
d="M831 -272v272h-706v983h117v-874h450v874h117v-874h135v-381h-113z" />
    <glyph glyph-name="uni0447" unicode="&#x447;" horiz-adv-x="890" 
d="M649 0v383q-106 -53 -250 -53q-147 0 -235 78t-88 231v344h114v-336q0 -106 62 -158.5t166 -52.5q125 0 231 53v494h115v-983h-115z" />
    <glyph glyph-name="uni0448" unicode="&#x448;" horiz-adv-x="1349" 
d="M125 0v983h117v-874h374v874h117v-874h375v874h117v-983h-1100z" />
    <glyph glyph-name="uni0449" unicode="&#x449;" horiz-adv-x="1363" 
d="M1212 -272v272h-1087v983h117v-874h358v874h117v-874h358v874h115v-874h135v-381h-113z" />
    <glyph glyph-name="uni044A" unicode="&#x44a;" horiz-adv-x="1042" 
d="M289 0v881h-260v102h377v-358h243q85 0 151.5 -25.5t105.5 -70t59 -99t20 -117.5t-20 -117.5t-59 -99t-105.5 -70.5t-151.5 -26h-360zM406 104h229q116 0 174.5 56.5t58.5 152.5q0 95 -58.5 151t-174.5 56h-229v-416z" />
    <glyph glyph-name="uni044B" unicode="&#x44b;" horiz-adv-x="1251" 
d="M125 0v983h117v-358h243q85 0 151.5 -25.5t105.5 -70t59 -99t20 -117.5t-20 -117.5t-59 -99t-105.5 -70.5t-151.5 -26h-360zM1010 0v983h116v-983h-116zM242 104h229q117 0 175.5 56.5t58.5 152.5q0 95 -58.5 151t-175.5 56h-229v-416z" />
    <glyph glyph-name="uni044C" unicode="&#x44c;" horiz-adv-x="880" 
d="M125 0v983h117v-358h243q85 0 151.5 -25.5t105.5 -70t59 -99t20 -117.5t-20 -117.5t-59 -99t-105.5 -70.5t-151.5 -26h-360zM242 104h229q117 0 175.5 56.5t58.5 152.5q0 95 -58.5 151t-175.5 56h-229v-416z" />
    <glyph glyph-name="uni044D" unicode="&#x44d;" horiz-adv-x="802" 
d="M289 1006q203 0 321.5 -136t118.5 -378q0 -246 -115.5 -380.5t-332.5 -134.5q-128 0 -224 54v106q107 -51 224 -51q150 0 233 90t94 262h-387v107h387q-12 169 -99 261.5t-235 92.5q-112 0 -206 -55v108q99 54 221 54z" />
    <glyph glyph-name="uni044E" unicode="&#x44e;" horiz-adv-x="1300" 
d="M825 1006q193 0 296.5 -134t103.5 -380q0 -243 -104 -379t-296 -136q-178 0 -278.5 121t-112.5 340h-192v-438h-117v983h117v-438h192q12 219 112.5 340t278.5 121zM825 86q139 0 210 106.5t71 299.5t-71.5 300t-209.5 107t-209 -107t-71 -300t71 -299.5t209 -106.5z" />
    <glyph glyph-name="uni044F" unicode="&#x44f;" horiz-adv-x="892" 
d="M37 0l278 375q-111 26 -171 106.5t-60 192.5q0 135 86 222t240 87h358v-983h-117v365h-180q-21 0 -31 2l-270 -367h-133zM418 469h233v410h-233q-104 0 -161.5 -55t-57.5 -150t57.5 -150t161.5 -55z" />
    <glyph glyph-name="uni0451" unicode="&#x451;" horiz-adv-x="905" 
d="M301 1178q-35 0 -60.5 25t-25.5 59t25.5 60t60.5 26t59.5 -26t24.5 -60t-24.5 -59t-59.5 -25zM637 1178q-34 0 -59 25t-25 59t25 60t59 26q35 0 60.5 -26t25.5 -60t-25.5 -59t-60.5 -25zM535 -23q-224 0 -341.5 137.5t-117.5 377.5q0 233 106 373.5t293 140.5
q134 0 222.5 -75.5t122 -202.5t16.5 -294h-639q23 -348 344 -348q131 0 237 53v-108q-108 -54 -243 -54zM195 537h532q6 169 -57.5 263.5t-194.5 94.5q-129 0 -200.5 -95.5t-79.5 -262.5z" />
    <glyph glyph-name="uni0452" unicode="&#x452;" horiz-adv-x="948" 
d="M522 1006q139 0 223 -90t84 -248v-889q0 -121 -61 -187.5t-158 -64.5q-72 0 -121 16v105q43 -15 89 -15q69 0 102 39t33 127v863q0 118 -57.5 177.5t-157.5 59.5q-92 0 -159.5 -56.5t-96.5 -144.5v-698h-117v1174h-123v90h123v170h117v-170h358v-90h-358v-320
q41 71 112.5 111.5t167.5 40.5z" />
    <glyph glyph-name="uni0453" unicode="&#x453;" horiz-adv-x="733" 
d="M281 1133l184 276h139l-203 -276h-120zM125 0v983h582v-109h-465v-874h-117z" />
    <glyph glyph-name="uni0454" unicode="&#x454;" horiz-adv-x="804" 
d="M735 952v-108q-94 55 -207 55q-148 0 -234 -92.5t-97 -261.5h385v-107h-385q9 -172 92 -262t233 -90q119 0 223 51v-106q-96 -54 -223 -54q-216 0 -332 134.5t-116 380.5q0 242 119 378t323 136q120 0 219 -54z" />
    <glyph glyph-name="uni0455" unicode="&#x455;" horiz-adv-x="774" 
d="M397 1006q135 0 265 -68v-111q-124 74 -256 74q-95 0 -154 -43.5t-59 -118.5q0 -50 29 -87t75.5 -59.5t102.5 -42.5t112 -44t102.5 -55t75.5 -83t29 -122q0 -130 -94.5 -199.5t-239.5 -69.5q-188 0 -307 76v115q128 -84 301 -84q103 0 163 41t60 119q0 45 -22.5 79
t-60 54.5t-84.5 40.5t-97 35.5t-97 40.5t-84.5 54.5t-60 78t-22.5 110.5q0 122 89 195.5t234 73.5z" />
    <glyph glyph-name="uni0456" unicode="&#x456;" horiz-adv-x="376" 
d="M188 1204q-34 0 -56.5 20t-22.5 58q0 36 23 57t56 21q34 0 57 -21t23 -57q0 -38 -23 -58t-57 -20zM131 0v983h115v-983h-115z" />
    <glyph glyph-name="uni0457" unicode="&#x457;" horiz-adv-x="376" 
d="M18 1178q-35 0 -60.5 25t-25.5 59t25.5 60t60.5 26t59.5 -26t24.5 -60t-24.5 -59t-59.5 -25zM354 1178q-34 0 -59 25t-25 59t25 60t59 26q35 0 60.5 -26t25.5 -60t-25.5 -59t-60.5 -25zM131 0v983h115v-983h-115z" />
    <glyph glyph-name="uni0458" unicode="&#x458;" horiz-adv-x="389" 
d="M201 1204q-34 0 -57 20t-23 58q0 36 23 57t57 21t57 -21t23 -57q0 -38 -23 -58t-57 -20zM39 -473q-73 0 -121 18v103q43 -15 88 -15q71 0 104 38.5t33 127.5v1184h115v-1204q0 -124 -59.5 -189t-159.5 -63z" />
    <glyph glyph-name="uni0459" unicode="&#x459;" horiz-adv-x="1437" 
d="M1065 584q156 0 236.5 -81t80.5 -210t-80.5 -211t-236.5 -82h-356v874h-322q-7 -159 -11.5 -241.5t-15 -195t-24 -174.5t-37.5 -121t-57 -93q-85 -85 -230 -49v98q95 -22 148 31q58 60 79 250t35 604h551v-399h240zM1053 104q104 0 157.5 48t53.5 141q0 91 -53.5 138.5
t-157.5 47.5h-228v-375h228z" />
    <glyph glyph-name="uni045A" unicode="&#x45a;" horiz-adv-x="1421" 
d="M1049 584q154 0 234.5 -81.5t80.5 -209.5q0 -129 -80.5 -211t-234.5 -82h-357v479h-450v-479h-117v983h117v-399h450v399h117v-399h240zM1034 104q105 0 159 48t54 141q0 91 -54 138.5t-159 47.5h-225v-375h225z" />
    <glyph glyph-name="uni045B" unicode="&#x45b;" horiz-adv-x="948" 
d="M522 1006q139 0 223 -90t84 -248v-668h-116v662q0 118 -57.5 177.5t-157.5 59.5q-92 0 -159.5 -56.5t-96.5 -144.5v-698h-117v1174h-123v90h123v170h117v-170h358v-90h-358v-320q41 71 112.5 111.5t167.5 40.5z" />
    <glyph glyph-name="uni045C" unicode="&#x45c;" horiz-adv-x="856" 
d="M328 1133l184 276h139l-202 -276h-121zM125 0v983h117v-426h180l274 426h133l-315 -483l336 -500h-135l-297 449h-176v-449h-117z" />
    <glyph glyph-name="uni045E" unicode="&#x45e;" horiz-adv-x="886" 
d="M438 1135q-138 0 -239 67v109q109 -66 239 -66q131 0 240 66v-109q-101 -67 -240 -67zM121 -451v105q86 -12 139 27q64 48 113 196l39 119l-394 987h121l326 -838l268 838h125l-377 -1135q-33 -97 -69 -159t-86 -95q-81 -62 -205 -45z" />
    <glyph glyph-name="uni045F" unicode="&#x45f;" horiz-adv-x="933" 
d="M809 983v-983h-285v-272h-114v272h-285v983h117v-874h450v874h117z" />
    <glyph glyph-name="uni0490" unicode="&#x490;" horiz-adv-x="919" 
d="M784 1720h115v-403h-623v-1317h-122v1434h628z" />
    <glyph glyph-name="uni0491" unicode="&#x491;" horiz-adv-x="733" 
d="M592 1229h115v-355h-465v-874h-117v983h467v246z" />
    <glyph glyph-name="Wgrave" unicode="&#x1e80;" horiz-adv-x="1619" 
d="M788 1583l-200 277h139l182 -277h-121zM362 0l-333 1434h125l276 -1239l336 1212h86l336 -1212l278 1239h125l-334 -1434h-127l-321 1151l-320 -1151h-127z" />
    <glyph glyph-name="wgrave" unicode="&#x1e81;" horiz-adv-x="1312" 
d="M635 1133l-201 276h139l183 -276h-121zM305 0l-272 983h123l213 -819l235 805h105l235 -805l213 819h121l-272 -983h-119l-232 788l-231 -788h-119z" />
    <glyph glyph-name="Wacute" unicode="&#x1e82;" horiz-adv-x="1619" 
d="M705 1583l184 277h139l-203 -277h-120zM362 0l-333 1434h125l276 -1239l336 1212h86l336 -1212l278 1239h125l-334 -1434h-127l-321 1151l-320 -1151h-127z" />
    <glyph glyph-name="wacute" unicode="&#x1e83;" horiz-adv-x="1312" 
d="M551 1133l184 276h139l-202 -276h-121zM305 0l-272 983h123l213 -819l235 805h105l235 -805l213 819h121l-272 -983h-119l-232 788l-231 -788h-119z" />
    <glyph glyph-name="Wdieresis" unicode="&#x1e84;" horiz-adv-x="1619" 
d="M641 1628q-35 0 -60.5 25t-25.5 59t25.5 60t60.5 26t59.5 -26t24.5 -60t-24.5 -59t-59.5 -25zM977 1628q-34 0 -59 25t-25 59t25 60t59 26q35 0 60.5 -26t25.5 -60t-25.5 -59t-60.5 -25zM362 0l-333 1434h125l276 -1239l336 1212h86l336 -1212l278 1239h125l-334 -1434
h-127l-321 1151l-320 -1151h-127z" />
    <glyph glyph-name="wdieresis" unicode="&#x1e85;" horiz-adv-x="1312" 
d="M487 1178q-35 0 -60.5 25t-25.5 59t25.5 60t60.5 26t59.5 -26t24.5 -60t-24.5 -59t-59.5 -25zM823 1178q-34 0 -59 25t-25 59t25 60t59 26q35 0 60.5 -26t25.5 -60t-25.5 -59t-60.5 -25zM305 0l-272 983h123l213 -819l235 805h105l235 -805l213 819h121l-272 -983h-119
l-232 788l-231 -788h-119z" />
    <glyph glyph-name="Ygrave" unicode="&#x1ef2;" horiz-adv-x="1073" 
d="M518 1583l-201 277h140l182 -277h-121zM475 0v610l-461 824h133l390 -707l389 707h133l-461 -824v-610h-123z" />
    <glyph glyph-name="ygrave" unicode="&#x1ef3;" horiz-adv-x="886" 
d="M401 1133l-200 276h139l182 -276h-121zM121 -451v105q86 -12 139 27q64 48 113 196l39 119l-394 987h121l326 -838l268 838h125l-377 -1135q-33 -97 -69 -159t-86 -95q-81 -62 -205 -45z" />
    <glyph glyph-name="endash" unicode="&#x2013;" horiz-adv-x="956" 
d="M109 449v110h739v-110h-739z" />
    <glyph glyph-name="emdash" unicode="&#x2014;" horiz-adv-x="1316" 
d="M109 449v110h1097v-110h-1097z" />
    <glyph glyph-name="quoteleft" unicode="&#x2018;" horiz-adv-x="346" 
d="M92 977l62 457h96l-35 -457h-123z" />
    <glyph glyph-name="quoteright" unicode="&#x2019;" horiz-adv-x="339" 
d="M100 977l35 457h123l-61 -457h-97z" />
    <glyph glyph-name="quotesinglbase" unicode="&#x201a;" horiz-adv-x="331" 
d="M80 -301l33 459h123l-62 -459h-94z" />
    <glyph glyph-name="quotedblleft" unicode="&#x201c;" horiz-adv-x="612" 
d="M92 977l62 457h96l-35 -457h-123zM358 977l62 457h96l-35 -457h-123z" />
    <glyph glyph-name="quotedblright" unicode="&#x201d;" horiz-adv-x="606" 
d="M100 977l35 457h123l-61 -457h-97zM367 977l34 457h123l-61 -457h-96z" />
    <glyph glyph-name="quotedblbase" unicode="&#x201e;" horiz-adv-x="598" 
d="M80 -301l33 459h123l-62 -459h-94zM346 -301l33 459h123l-62 -459h-94z" />
    <glyph glyph-name="dagger" unicode="&#x2020;" horiz-adv-x="866" 
d="M373 -451v1317h-287v117h287v451h121v-451h286v-117h-286v-1317h-121z" />
    <glyph glyph-name="daggerdbl" unicode="&#x2021;" horiz-adv-x="866" 
d="M373 -451v641h-287v115h287v561h-287v117h287v451h121v-451h286v-117h-286v-561h286v-115h-286v-641h-121z" />
    <glyph glyph-name="bullet" unicode="&#x2022;" horiz-adv-x="559" 
d="M279 588q-55 0 -93.5 34.5t-38.5 94.5t38.5 94.5t93.5 34.5q57 0 95 -34t38 -95t-38 -95t-95 -34z" />
    <glyph glyph-name="ellipsis" unicode="&#x2026;" horiz-adv-x="966" 
d="M483 -16q-34 0 -58 22t-24 60t24 59.5t58 21.5t58 -21.5t24 -59.5t-24 -60t-58 -22zM797 -16q-34 0 -57 22t-23 60t23 59.5t57 21.5t58 -21.5t24 -59.5t-24 -60t-58 -22zM170 -16q-34 0 -58 22t-24 60t24 59.5t58 21.5t57 -21.5t23 -59.5t-23 -60t-57 -22z" />
    <glyph glyph-name="perthousand" unicode="&#x2030;" horiz-adv-x="1939" 
d="M346 838q-123 0 -205 83.5t-82 225.5t82 225.5t205 83.5q121 0 202 -83.5t81 -225.5t-81 -225.5t-202 -83.5zM147 0l885 1434h111l-887 -1434h-109zM346 940q82 0 127 58t45 149t-45 149t-127 58q-84 0 -130 -58t-46 -149t46 -149t130 -58zM942 -23q-121 0 -202 84
t-81 226t81 225.5t202 83.5q123 0 205 -83.5t82 -225.5t-82 -226t-205 -84zM1606 -23q-122 0 -203.5 84t-81.5 226t81.5 225.5t203.5 83.5t203 -83.5t81 -225.5t-81 -226t-203 -84zM942 80q85 0 130.5 57.5t45.5 149.5t-45.5 149.5t-130.5 57.5q-82 0 -127 -58t-45 -149
t45 -149t127 -58zM1606 80q83 0 128.5 58t45.5 149t-45.5 149t-128.5 58q-82 0 -128 -58t-46 -149t46 -149t128 -58z" />
    <glyph glyph-name="guilsinglleft" unicode="&#x2039;" horiz-adv-x="491" 
d="M276 129l-206 350v25l206 350h125l-217 -362l217 -363h-125z" />
    <glyph glyph-name="guilsinglright" unicode="&#x203a;" horiz-adv-x="491" 
d="M213 129h-123l215 363l-215 362h123l209 -350v-25z" />
    <glyph glyph-name="fraction" unicode="&#x2044;" horiz-adv-x="239" 
d="M-274 -25l733 1481h55l-733 -1481h-55z" />
    <glyph glyph-name="Euro" unicode="&#x20ac;" horiz-adv-x="1058" 
d="M729 92q134 0 252 68v-117q-115 -66 -252 -66q-131 0 -239 57t-184.5 177.5t-102.5 292.5h-140v102h130q-5 68 -5 80q0 42 7 100h-132v103h144q43 247 186.5 386.5t339.5 139.5q133 0 238 -57v-111q-100 53 -230 53q-161 0 -268 -108.5t-143 -302.5h430v-103h-443
q-6 -50 -6 -100q0 -30 4 -80h445v-102h-434q31 -196 136 -304t267 -108z" />
    <glyph glyph-name="trademark" unicode="&#x2122;" horiz-adv-x="1097" 
d="M203 915v451h-144v68h361v-68h-144v-451h-73zM504 915v519h67l168 -287l168 287h68v-519h-72v388l-147 -250h-33l-148 250v-388h-71z" />
    <glyph glyph-name="oneeighth" unicode="&#x215b;" horiz-adv-x="1572" 
d="M389 -25l733 1481h56l-734 -1481h-55zM72 557v96h178v629l-158 -72v99l189 84h69v-740h158v-96h-436zM1239 -14q-135 0 -211 64.5t-76 166.5q0 137 133 242q-104 72 -104 180q0 90 70 150.5t184 60.5q121 0 186.5 -63.5t65.5 -155.5q0 -110 -111 -213q65 -35 102.5 -83.5
t37.5 -121.5q0 -93 -71.5 -160t-205.5 -67zM1294 457q92 82 92 174q0 56 -39.5 91.5t-111.5 35.5q-71 0 -112.5 -33.5t-41.5 -85.5q0 -15 3.5 -29t8 -25t15 -22t17.5 -19t23 -17.5t25 -15t29 -15t29 -13t32 -13t31 -13.5zM1239 80q84 0 131 37t47 96q0 31 -13.5 56t-44 46
t-54.5 34t-72 33.5t-70 31.5q-56 -42 -84 -87t-28 -104q0 -63 50.5 -103t137.5 -40z" />
    <glyph glyph-name="threeeighths" unicode="&#x215c;" horiz-adv-x="1595" 
d="M412 -25l733 1481h55l-733 -1481h-55zM301 551q-127 0 -225 45v94q98 -45 217 -45q87 0 143 40t56 116q0 75 -53 111t-138 36h-84v96h84q76 0 116 38t40 100q0 67 -47 103t-131 36q-95 0 -191 -49v98q92 45 203 45q120 0 192 -61t72 -164q0 -65 -35 -116t-92 -70
q66 -20 114 -74.5t48 -141.5q0 -112 -83.5 -174.5t-205.5 -62.5zM1262 -14q-135 0 -211 64.5t-76 166.5q0 137 133 242q-104 72 -104 180q0 90 69.5 150.5t183.5 60.5q121 0 186.5 -63.5t65.5 -155.5q0 -111 -110 -213q139 -75 139 -205q0 -93 -71 -160t-205 -67zM1317 457
q92 82 92 174q0 56 -39.5 91.5t-112.5 35.5q-71 0 -112 -33.5t-41 -85.5q0 -15 3.5 -29t8 -25t15 -22t17.5 -19t23 -17.5t25 -15t29 -15t29 -13t32 -13t31 -13.5zM1262 80q84 0 131 37t47 96q0 31 -13.5 56t-44 46t-54.5 34t-72 33.5t-70 31.5q-56 -43 -84.5 -88t-28.5 -103
q0 -63 51 -103t138 -40z" />
    <glyph glyph-name="fiveeighths" unicode="&#x215d;" horiz-adv-x="1574" 
d="M391 -25l733 1481h56l-734 -1481h-55zM283 543q-125 0 -209 47v94q92 -47 200 -47q84 0 140.5 44t56.5 128q0 87 -56 130.5t-147 43.5q-88 0 -170 -33l25 443h409v-97h-315l-14 -239q42 12 102 12q114 0 191 -66t77 -194q0 -124 -85 -195t-205 -71zM1241 -14
q-135 0 -211 64.5t-76 166.5q0 137 133 242q-104 72 -104 180q0 90 70 150.5t184 60.5q121 0 186.5 -63.5t65.5 -155.5q0 -110 -111 -213q66 -35 104 -83t38 -122q0 -93 -72.5 -160t-206.5 -67zM1296 457q95 85 95 174q0 56 -40 91.5t-114 35.5q-71 0 -112.5 -33.5
t-41.5 -85.5q0 -19 5.5 -36t12 -29t23 -26t26 -21t34.5 -19.5l34 -17t39.5 -17.5t38.5 -16zM1241 80q84 0 131 37t47 96q0 26 -11.5 49t-27.5 38.5t-44.5 32.5t-51.5 27.5t-59.5 26.5t-57.5 27q-112 -82 -112 -191q0 -63 49.5 -103t136.5 -40z" />
    <glyph glyph-name="seveneighths" unicode="&#x215e;" horiz-adv-x="1435" 
d="M248 -25l733 1481h55l-733 -1481h-55zM164 557l289 739h-402v97h506v-93l-289 -743h-104zM1098 -14q-135 0 -211 64.5t-76 166.5q0 137 133 242q-104 72 -104 180q0 90 70 150.5t184 60.5q121 0 186.5 -63.5t65.5 -155.5q0 -110 -111 -213q141 -74 141 -205
q0 -93 -72 -160t-206 -67zM1153 457q94 84 94 174q0 56 -39.5 91.5t-113.5 35.5q-71 0 -112.5 -33.5t-41.5 -85.5q0 -19 5.5 -36t12 -29t23 -26t26 -21t34.5 -19.5l34 -17t39.5 -17.5t38.5 -16zM1098 80q84 0 131 37t47 96q0 26 -11.5 49t-27.5 38.5t-44.5 32.5t-51.5 27.5
t-59.5 26.5t-57.5 27q-57 -42 -85 -87t-28 -104q0 -63 50 -103t137 -40z" />
    <glyph glyph-name="partialdiff" unicode="&#x2202;" horiz-adv-x="1005" 
d="M492 -23q-194 0 -305 129t-111 349q0 207 102.5 332.5t286.5 125.5q122 0 216.5 -67.5t123.5 -183.5q-12 125 -37 223t-72.5 181.5t-115.5 138t-167.5 83.5t-226.5 25v110q127 3 234.5 -24.5t199.5 -93t156 -165.5t100.5 -250t36.5 -339q0 -276 -110.5 -425t-310.5 -149z
M492 88q136 0 209.5 91t84.5 253q-6 172 -89.5 272.5t-221.5 100.5q-142 0 -212 -93.5t-70 -256.5q0 -173 74.5 -270t224.5 -97z" />
    <glyph glyph-name="emptyset" unicode="&#x2205;" horiz-adv-x="1263" 
d="M1026 1221q145 -195 145 -525q0 -155 -35 -286t-101 -228t-169 -152t-233 -55q-217 0 -352 148l-84 -123h-76l117 170q-146 199 -146 526q0 208 60 369t184 256.5t297 95.5q215 0 352 -147l84 123h76zM158 696q0 -299 118 -469l672 990q-121 137 -315 137
q-153 0 -261.5 -85.5t-161 -232t-52.5 -340.5zM633 39q153 0 261 85t160 231.5t52 340.5q0 294 -117 467l-672 -987q124 -137 316 -137z" />
    <glyph glyph-name="product" unicode="&#x220f;" horiz-adv-x="1308" 
d="M248 -451v1768h-201v117h1215v-117h-201v-1768h-123v1768h-569v-1768h-121z" />
    <glyph glyph-name="summation" unicode="&#x2211;" horiz-adv-x="942" 
d="M57 0v70l426 647l-426 647v70h809v-117h-645l387 -588v-24l-387 -588h649v-117h-813z" />
    <glyph glyph-name="minus" unicode="&#x2212;" horiz-adv-x="921" 
d="M117 655v109h688v-109h-688z" />
    <glyph glyph-name="radical" unicode="&#x221a;" horiz-adv-x="1271" 
d="M537 0l-308 866h-198v117h276l287 -825l543 1439h127l-619 -1597h-108z" />
    <glyph glyph-name="infinity" unicode="&#x221e;" horiz-adv-x="1495" 
d="M397 373q-130 0 -217.5 97.5t-87.5 262.5t87.5 263t217.5 98q62 0 114.5 -21t96 -62t74 -81t66.5 -99q29 46 52 79t57 70.5t67.5 60t78.5 38t95 15.5q130 0 217.5 -98t87.5 -263t-87.5 -262.5t-217.5 -97.5q-50 0 -95 15.5t-78 37.5t-67.5 60t-57 70t-52.5 79
q-30 -47 -53 -79t-57 -69.5t-67.5 -60t-78.5 -38t-95 -15.5zM408 483q38 0 73 14t62 34.5t56 56t49 66.5t48 77q-29 49 -48.5 78.5t-49 66.5t-56 57.5t-61.5 35t-73 14.5q-87 0 -144 -65t-57 -185t57 -185t144 -65zM1087 483q87 0 144 65t57 185t-57 185t-144 65
q-38 0 -73 -14.5t-61.5 -35t-56 -57.5t-49 -66.5t-48.5 -78.5q28 -46 48 -77t49 -66.5t56 -56t62 -34.5t73 -14z" />
    <glyph glyph-name="integral" unicode="&#x222b;" horiz-adv-x="688" 
d="M147 -473q-77 0 -143 29v104q58 -22 133 -22q150 0 150 157v1561q0 71 21.5 124t59 82.5t81 43.5t92.5 14q77 0 143 -29v-104q-58 22 -133 22q-150 0 -150 -157v-1561q0 -71 -21.5 -124t-59 -82.5t-81 -43.5t-92.5 -14z" />
    <glyph glyph-name="approxequal" unicode="&#x2248;" horiz-adv-x="903" 
d="M633 741q-48 0 -113.5 29.5t-125.5 59.5t-93 30q-40 0 -59.5 -26t-22.5 -80h-96q-6 101 35.5 158t120.5 57q41 0 90.5 -18.5t87.5 -41t81.5 -41t73.5 -18.5q40 0 59.5 26t22.5 82h97q6 -102 -34.5 -159.5t-123.5 -57.5zM633 463q-48 0 -113.5 29.5t-125.5 59.5t-93 30
q-76 0 -82 -107h-96q-6 101 35.5 158t120.5 57q51 0 115.5 -30t122.5 -59.5t95 -29.5q76 0 82 109h97q6 -102 -34.5 -159.5t-123.5 -57.5z" />
    <glyph glyph-name="notequal" unicode="&#x2260;" horiz-adv-x="882" 
d="M766 848h-219l-129 -262h348v-111h-397l-101 -207h-82l99 207h-168v111h219l127 262h-346v110h397l100 207h82l-100 -207h170v-110z" />
    <glyph glyph-name="lessequal" unicode="&#x2264;" horiz-adv-x="886" 
d="M745 467l-622 319v117l622 322v-121l-516 -258l516 -260v-119zM745 219h-622v111h622v-111z" />
    <glyph glyph-name="greaterequal" unicode="&#x2265;" horiz-adv-x="886" 
d="M143 467v119l516 260l-516 258v121l623 -322v-117zM143 219v111h623v-111h-623z" />
    <glyph glyph-name="lozenge" unicode="&#x25ca;" horiz-adv-x="964" 
d="M418 0l-371 717l371 717h129l368 -717l-368 -717h-129zM481 135l303 582l-303 581l-303 -581z" />
    <glyph glyph-name="i.loclTRK" horiz-adv-x="376" 
d="M188 1145q-39 0 -63.5 24t-24.5 66t24.5 66t63.5 24q41 0 66 -24t25 -66t-25 -66t-66 -24zM131 0v983h115v-983h-115z" />
    <glyph glyph-name="a.ss01" horiz-adv-x="974" 
d="M453 -23q-123 0 -209.5 69.5t-127 183.5t-40.5 262t40.5 262t127 183t209.5 69q199 0 290 -187v164h107v-983h-107v164q-91 -187 -290 -187zM471 84q185 0 262 209v397q-77 209 -262 209q-139 0 -207.5 -109t-68.5 -298t68.5 -298.5t207.5 -109.5z" />
    <glyph glyph-name="aacute.ss01" horiz-adv-x="974" 
d="M375 1133l184 276h139l-202 -276h-121zM453 -23q-123 0 -209.5 69.5t-127 183.5t-40.5 262t40.5 262t127 183t209.5 69q199 0 290 -187v164h107v-983h-107v164q-91 -187 -290 -187zM471 84q185 0 262 209v397q-77 209 -262 209q-139 0 -207.5 -109t-68.5 -298
t68.5 -298.5t207.5 -109.5z" />
    <glyph glyph-name="abreve.ss01" horiz-adv-x="974" 
d="M479 1135q-138 0 -239 67v109q109 -66 239 -66q131 0 240 66v-109q-101 -67 -240 -67zM453 -23q-123 0 -209.5 69.5t-127 183.5t-40.5 262t40.5 262t127 183t209.5 69q199 0 290 -187v164h107v-983h-107v164q-91 -187 -290 -187zM471 84q185 0 262 209v397
q-77 209 -262 209q-139 0 -207.5 -109t-68.5 -298t68.5 -298.5t207.5 -109.5z" />
    <glyph glyph-name="acircumflex.ss01" horiz-adv-x="974" 
d="M530 1399l213 -264h-129l-135 163l-137 -163h-129l213 264h104zM453 -23q-123 0 -209.5 69.5t-127 183.5t-40.5 262t40.5 262t127 183t209.5 69q199 0 290 -187v164h107v-983h-107v164q-91 -187 -290 -187zM471 84q185 0 262 209v397q-77 209 -262 209
q-139 0 -207.5 -109t-68.5 -298t68.5 -298.5t207.5 -109.5z" />
    <glyph glyph-name="adieresis.ss01" horiz-adv-x="974" 
d="M309 1178q-35 0 -60.5 25t-25.5 59t25.5 60t60.5 26t59.5 -26t24.5 -60t-24.5 -59t-59.5 -25zM645 1178q-34 0 -59 25t-25 59t25 60t59 26q35 0 60.5 -26t25.5 -60t-25.5 -59t-60.5 -25zM453 -23q-123 0 -209.5 69.5t-127 183.5t-40.5 262t40.5 262t127 183t209.5 69
q199 0 290 -187v164h107v-983h-107v164q-91 -187 -290 -187zM471 84q185 0 262 209v397q-77 209 -262 209q-139 0 -207.5 -109t-68.5 -298t68.5 -298.5t207.5 -109.5z" />
    <glyph glyph-name="agrave.ss01" horiz-adv-x="974" 
d="M457 1133l-201 276h139l183 -276h-121zM453 -23q-123 0 -209.5 69.5t-127 183.5t-40.5 262t40.5 262t127 183t209.5 69q199 0 290 -187v164h107v-983h-107v164q-91 -187 -290 -187zM471 84q185 0 262 209v397q-77 209 -262 209q-139 0 -207.5 -109t-68.5 -298
t68.5 -298.5t207.5 -109.5z" />
    <glyph glyph-name="amacron.ss01" horiz-adv-x="974" 
d="M731 1284v-106h-506v106h506zM453 -23q-123 0 -209.5 69.5t-127 183.5t-40.5 262t40.5 262t127 183t209.5 69q199 0 290 -187v164h107v-983h-107v164q-91 -187 -290 -187zM471 84q185 0 262 209v397q-77 209 -262 209q-139 0 -207.5 -109t-68.5 -298t68.5 -298.5
t207.5 -109.5z" />
    <glyph glyph-name="aogonek.ss01" horiz-adv-x="974" 
d="M743 -469q-87 0 -135.5 44t-48.5 118q0 140 184 321v150q-91 -187 -290 -187q-123 0 -209.5 69.5t-127 183.5t-40.5 262t40.5 262t127 183t209.5 69q199 0 290 -187v164h107v-983q-87 -72 -134.5 -146t-47.5 -137q0 -47 26.5 -69.5t67.5 -22.5q44 0 88 21v-90
q-52 -25 -107 -25zM471 84q185 0 262 209v397q-77 209 -262 209q-139 0 -207.5 -109t-68.5 -298t68.5 -298.5t207.5 -109.5z" />
    <glyph glyph-name="aring.ss01" horiz-adv-x="974" 
d="M479 1085q-86 0 -143 55t-57 146t57 146t143 55q87 0 144 -55t57 -146t-57 -146t-144 -55zM479 1167q50 0 80.5 32t30.5 87t-30.5 87t-80.5 32t-80 -32t-30 -87t30 -87t80 -32zM453 -23q-123 0 -209.5 69.5t-127 183.5t-40.5 262t40.5 262t127 183t209.5 69
q199 0 290 -187v164h107v-983h-107v164q-91 -187 -290 -187zM471 84q185 0 262 209v397q-77 209 -262 209q-139 0 -207.5 -109t-68.5 -298t68.5 -298.5t207.5 -109.5z" />
    <glyph glyph-name="atilde.ss01" horiz-adv-x="974" 
d="M596 1135q-47 0 -91 23.5t-79 47t-59 23.5q-55 0 -62 -84h-88q-7 89 29 137.5t104 48.5q39 0 76.5 -14.5t61 -31.5t48.5 -31.5t42 -14.5q33 0 46.5 20.5t16.5 63.5h88q7 -91 -28.5 -139.5t-104.5 -48.5zM453 -23q-123 0 -209.5 69.5t-127 183.5t-40.5 262t40.5 262
t127 183t209.5 69q199 0 290 -187v164h107v-983h-107v164q-91 -187 -290 -187zM471 84q185 0 262 209v397q-77 209 -262 209q-139 0 -207.5 -109t-68.5 -298t68.5 -298.5t207.5 -109.5z" />
    <glyph glyph-name="ae.ss01" horiz-adv-x="1529" 
d="M444 -23q-90 0 -160.5 39.5t-115 110t-67.5 163t-23 202.5q0 148 39.5 262t123.5 183t203 69q103 0 175.5 -53.5t111.5 -145.5v176h92v-192q40 102 116 158.5t179 56.5q121 0 205.5 -76t119 -205.5t17.5 -290.5h-620q23 -348 340 -348q120 0 223 53v-108
q-108 -54 -229 -54q-127 0 -215.5 58t-135.5 164v-199h-92v176q-39 -92 -111.5 -145.5t-175.5 -53.5zM457 86q188 0 264 213v385q-76 213 -264 213q-131 0 -195.5 -110.5t-64.5 -294.5q0 -120 26.5 -209t86 -143t147.5 -54zM840 537h510q5 164 -59 261t-181 97
q-120 0 -191 -95t-79 -263z" />
    <glyph glyph-name="y.ss01" horiz-adv-x="946" 
d="M412 -473q-156 0 -262 53v109q105 -54 256 -54q148 0 223.5 79t75.5 227v188q-41 -71 -113 -111.5t-168 -40.5q-137 0 -221 90.5t-84 247.5v668h114v-661q0 -118 58 -178t158 -60q92 0 159.5 56.5t96.5 144.5v698h116v-1042q0 -86 -24.5 -159.5t-72.5 -131.5t-128 -90.5
t-184 -32.5z" />
    <glyph glyph-name="yacute.ss01" horiz-adv-x="946" 
d="M365 1133l184 276h139l-203 -276h-120zM412 -473q-156 0 -262 53v109q105 -54 256 -54q148 0 223.5 79t75.5 227v188q-41 -71 -113 -111.5t-168 -40.5q-137 0 -221 90.5t-84 247.5v668h114v-661q0 -118 58 -178t158 -60q92 0 159.5 56.5t96.5 144.5v698h116v-1042
q0 -86 -24.5 -159.5t-72.5 -131.5t-128 -90.5t-184 -32.5z" />
    <glyph glyph-name="ycircumflex.ss01" horiz-adv-x="946" 
d="M520 1399l213 -264h-129l-135 163l-137 -163h-129l213 264h104zM412 -473q-156 0 -262 53v109q105 -54 256 -54q148 0 223.5 79t75.5 227v188q-41 -71 -113 -111.5t-168 -40.5q-137 0 -221 90.5t-84 247.5v668h114v-661q0 -118 58 -178t158 -60q92 0 159.5 56.5
t96.5 144.5v698h116v-1042q0 -86 -24.5 -159.5t-72.5 -131.5t-128 -90.5t-184 -32.5z" />
    <glyph glyph-name="ydieresis.ss01" horiz-adv-x="946" 
d="M299 1178q-35 0 -60.5 25t-25.5 59t25.5 60t60.5 26t59.5 -26t24.5 -60t-24.5 -59t-59.5 -25zM635 1178q-34 0 -59 25t-25 59t25 60t59 26q35 0 60.5 -26t25.5 -60t-25.5 -59t-60.5 -25zM412 -473q-156 0 -262 53v109q105 -54 256 -54q148 0 223.5 79t75.5 227v188
q-41 -71 -113 -111.5t-168 -40.5q-137 0 -221 90.5t-84 247.5v668h114v-661q0 -118 58 -178t158 -60q92 0 159.5 56.5t96.5 144.5v698h116v-1042q0 -86 -24.5 -159.5t-72.5 -131.5t-128 -90.5t-184 -32.5z" />
    <glyph glyph-name="ygrave.ss01" horiz-adv-x="946" 
d="M449 1133l-201 276h139l182 -276h-120zM412 -473q-156 0 -262 53v109q105 -54 256 -54q148 0 223.5 79t75.5 227v188q-41 -71 -113 -111.5t-168 -40.5q-137 0 -221 90.5t-84 247.5v668h114v-661q0 -118 58 -178t158 -60q92 0 159.5 56.5t96.5 144.5v698h116v-1042
q0 -86 -24.5 -159.5t-72.5 -131.5t-128 -90.5t-184 -32.5z" />
    <glyph glyph-name="f_b" horiz-adv-x="1552" 
d="M1100 1006q123 0 209 -69t126 -183t40 -262t-40 -262t-126 -183.5t-209 -69.5q-199 0 -293 187v-164h-105v1303q-96 47 -198 47q-95 0 -150 -48.5t-55 -144.5v-174h242v-104h-242v-879h-115v879h-157v104h157v182q0 135 84.5 213t220.5 78q120 0 224 -45l12 23l94 22
v-618q38 73 108.5 120.5t172.5 47.5zM1081 84q139 0 207 109.5t68 298.5t-68 298t-207 109q-92 0 -158 -54.5t-104 -154.5v-397q77 -209 262 -209z" />
    <glyph glyph-name="f_f_b" horiz-adv-x="2066" 
d="M1614 1006q123 0 209.5 -69t127 -183t40.5 -262t-40.5 -262t-127 -183.5t-209.5 -69.5q-200 0 -291 187v-164h-106v1303q-96 47 -199 47q-94 0 -148.5 -49t-54.5 -144v-174h240v-104h-240v-879h-117v879h-409v-879h-117v879h-143v104h143v158q0 139 73 216t204 77
q77 0 151 -33v-103q-63 29 -133 29q-82 0 -130 -45t-48 -133v-166h409v182q0 135 85 213t221 78q122 0 223 -45l18 23l88 22v-618q40 73 110 120.5t171 47.5zM1595 84q139 0 208 110t69 298t-69 297.5t-208 109.5q-92 0 -158 -54.5t-104 -154.5v-397q77 -209 262 -209z" />
    <glyph glyph-name="f_f_h" horiz-adv-x="2039" 
d="M1614 1006q139 0 223 -90t84 -248v-668h-117v662q0 118 -57.5 177.5t-157.5 59.5q-92 0 -159.5 -56.5t-96.5 -144.5v-698h-116v1303q-96 47 -199 47q-94 0 -148.5 -49t-54.5 -144v-174h240v-104h-240v-879h-117v879h-409v-879h-117v879h-143v104h143v158q0 139 73 216
t204 77q77 0 151 -33v-103q-63 29 -133 29q-82 0 -130 -45t-48 -133v-166h409v182q0 135 85 213t221 78q122 0 223 -45l18 23l88 22v-602q41 71 113 111.5t168 40.5z" />
    <glyph glyph-name="f_f_j" horiz-adv-x="1470" 
d="M1339 983v-1204q0 -124 -59.5 -189t-159.5 -63q-73 0 -121 18v103q43 -15 88 -15q71 0 104.5 38.5t33.5 127.5v1080h-410v-879h-117v879h-409v-879h-117v879h-143v104h143v158q0 139 73 216t204 77q77 0 151 -33v-103q-63 29 -133 29q-82 0 -130 -45t-48 -133v-166h409
v158q0 151 87.5 233t232.5 82q136 0 250 -63v-111q-108 68 -232 68q-107 0 -164 -56t-57 -168v-143h524z" />
    <glyph glyph-name="f_f_k" horiz-adv-x="1945" 
d="M1606 500l336 -500h-136l-297 449h-176v-449h-116v1303q-96 47 -199 47q-94 0 -148.5 -49t-54.5 -144v-174h240v-104h-240v-879h-117v879h-409v-879h-117v879h-143v104h143v158q0 139 73 216t204 77q77 0 151 -33v-103q-63 29 -133 29q-82 0 -130 -45t-48 -133v-166h409
v182q0 135 85 213t221 78q122 0 223 -45l18 23l88 22v-899h180l275 426h133z" />
    <glyph glyph-name="f_h" horiz-adv-x="1523" 
d="M1100 1006q137 0 221 -90.5t84 -247.5v-668h-115v662q0 118 -57.5 177.5t-157.5 59.5q-92 0 -159.5 -56.5t-96.5 -144.5v-698h-117v1303q-96 47 -198 47q-95 0 -150 -48.5t-55 -144.5v-174h242v-104h-242v-879h-115v879h-157v104h157v182q0 135 84.5 213t220.5 78
q120 0 224 -45l20 23l86 22v-602q41 71 113 111.5t168 40.5z" />
    <glyph glyph-name="f_i" horiz-adv-x="944" 
d="M815 983v-983h-117v879h-409v-879h-117v879h-143v104h143v158q0 151 87.5 233t232.5 82q138 0 249 -63v-111q-108 68 -231 68q-107 0 -164 -56t-57 -168v-143h526z" />
    <glyph glyph-name="f_j" horiz-adv-x="944" 
d="M815 983v-1204q0 -124 -60 -189t-159 -63q-73 0 -121 18v103q43 -15 88 -15q70 0 102.5 38.5t32.5 127.5v1080h-409v-879h-117v879h-143v104h143v158q0 151 87.5 233t232.5 82q138 0 249 -63v-111q-108 68 -231 68q-107 0 -164 -56t-57 -168v-143h526z" />
    <glyph glyph-name="f_k" horiz-adv-x="1431" 
d="M1090 500l337 -500h-135l-299 449h-174v-449h-117v1303q-96 47 -198 47q-95 0 -150 -48.5t-55 -144.5v-174h242v-104h-242v-879h-115v879h-157v104h157v182q0 135 84.5 213t220.5 78q120 0 224 -45l14 23l92 22v-899h180l273 426h135z" />
    <glyph glyph-name="f_l" horiz-adv-x="948" 
d="M184 0v879h-157v104h157v182q0 135 84.5 213t220.5 78q120 0 224 -45l16 23l90 22v-1456h-117v1303q-96 47 -198 47q-95 0 -150 -48.5t-55 -144.5v-174h242v-104h-242v-879h-115z" />
    <glyph glyph-name="uni0414.loclBGR" horiz-adv-x="1300" 
d="M25 -348v465h127l430 1317h135l430 -1317h127v-465h-115v348h-1018v-348h-116zM276 117h746l-373 1171z" />
    <glyph glyph-name="uni041B.loclBGR" horiz-adv-x="1089" 
d="M479 1434h131l465 -1434h-127l-360 1126q-28 89 -43 168q-15 -79 -43 -168l-361 -1126h-127z" />
    <glyph glyph-name="uni0424.loclBGR" horiz-adv-x="1525" 
d="M702 -211v191q-151 11 -271.5 72.5t-197.5 161t-117 228t-40 275.5t40 275t117 227t197 160.5t272 72.5v193h121v-193q151 -11 271.5 -72.5t197 -160.5t116.5 -227t40 -275t-40 -275.5t-116.5 -228t-197 -161t-271.5 -72.5v-191h-121zM702 96v1241q-129 -11 -227.5 -64.5
t-157.5 -139t-88.5 -190.5t-29.5 -226q0 -96 18 -182.5t57.5 -163.5t97.5 -134.5t142 -95t188 -45.5zM823 96q104 8 188 45.5t142 95t97 134.5t57 163.5t18 182.5q0 121 -29.5 226t-88.5 190t-157 138t-227 64v-1239z" />
    <glyph glyph-name="uni0432.loclBGR" horiz-adv-x="970" 
d="M608 803q138 -7 214.5 -116t76.5 -273q0 -122 -42 -219t-131 -157.5t-214 -60.5q-199 0 -298 120t-99 341v600q0 192 96.5 305t265.5 113q147 0 235.5 -92t88.5 -227q0 -218 -193 -334zM229 1038l2 -280l166 51q289 79 289 328q0 93 -55 153t-154 60q-116 0 -182.5 -83
t-65.5 -229zM512 84q136 0 204 88.5t68 241.5q0 178 -98 261.5t-283 26.5l-172 -55v-209q3 -354 281 -354z" />
    <glyph glyph-name="uni0433.loclBGR" horiz-adv-x="770" 
d="M401 -23q-94 0 -169.5 28.5t-124 90.5t-48.5 150q0 61 18 107t48 75t68.5 50t82 34.5t86.5 26t81.5 28t68.5 36t48 54.5t18 80q0 75 -57 119.5t-154 44.5q-128 0 -261 -76v111q131 70 281 70q140 0 224.5 -73t84.5 -200q0 -68 -22.5 -118t-59 -78t-83 -50t-95.5 -34
t-95.5 -29t-83 -36.5t-59 -56t-22.5 -87.5q0 -77 64.5 -118.5t165.5 -41.5q155 0 286 86v-115q-119 -78 -291 -78z" />
    <glyph glyph-name="uni0434.loclBGR" horiz-adv-x="974" 
d="M420 -473q-150 0 -256 53v109q105 -54 250 -54q158 0 238.5 82.5t80.5 235.5v192q-40 -73 -109.5 -120.5t-170.5 -47.5q-123 0 -209.5 69.5t-127 183.5t-40.5 262t40.5 262t127 183t209.5 69q199 0 290 -187v164h107v-1030q0 -71 -16 -133.5t-49.5 -116.5t-83.5 -93
t-122 -61t-159 -22zM471 84q92 0 158 54.5t104 154.5v397q-77 209 -262 209q-139 0 -207.5 -109t-68.5 -298t68.5 -298.5t207.5 -109.5z" />
    <glyph glyph-name="uni0436.loclBGR" horiz-adv-x="1239" 
d="M18 0l324 500l-303 483h135l260 -426h127v877h117v-877h127l260 426h135l-303 -483l324 -500h-138l-282 449h-123v-449h-117v449h-123l-282 -449h-138z" />
    <glyph glyph-name="uni0438.loclBGR" horiz-adv-x="948" 
d="M823 983v-983h-106v141q-40 -75 -115 -119.5t-176 -44.5q-139 0 -223 90t-84 248v668h117v-661q0 -118 57.5 -178t157.5 -60q92 0 159.5 56.5t96.5 144.5v698h116z" />
    <glyph glyph-name="uni0439.loclBGR" horiz-adv-x="946" 
d="M469 1130q-130 0 -231 62v111q111 -66 231 -66q122 0 233 66v-111q-101 -62 -233 -62zM823 983v-983h-106v141q-40 -75 -115 -119.5t-176 -44.5q-139 0 -223 90t-84 248v668h117v-661q0 -118 57.5 -178t157.5 -60q92 0 159.5 56.5t96.5 144.5v698h116z" />
    <glyph glyph-name="uni043A.loclBGR" horiz-adv-x="851" 
d="M125 0v1434h117v-877h159l293 426h135l-335 -483l354 -500h-137l-314 449h-155v-449h-117z" />
    <glyph glyph-name="uni043B.loclBGR" horiz-adv-x="868" 
d="M373 983h123l344 -983h-127l-244 721q-25 84 -35 139q-10 -55 -35 -139l-243 -721h-127z" />
    <glyph glyph-name="uni043F.loclBGR" horiz-adv-x="948" 
d="M125 0v983h106v-141q40 75 115 119.5t176 44.5q139 0 223 -90t84 -248v-668h-116v662q0 118 -57.5 177.5t-157.5 59.5q-92 0 -159.5 -56.5t-96.5 -144.5v-698h-117z" />
    <glyph glyph-name="uni0442.loclBGR" horiz-adv-x="1439" 
d="M1024 1006q143 0 220 -91t77 -241v-674h-117v668q0 113 -48.5 172t-143.5 59q-141 0 -232 -172v-727h-114v668q0 112 -49.5 171.5t-141.5 59.5q-151 0 -233 -184v-715h-117v983h106v-133q95 156 261 156q179 0 249 -160q107 160 283 160z" />
    <glyph glyph-name="uni0446.loclBGR" horiz-adv-x="993" 
d="M856 -272v266q-70 9 -98.5 40.5t-36.5 102.5q-43 -73 -119.5 -116.5t-177.5 -43.5q-137 0 -221 90.5t-84 247.5v668h114v-661q0 -118 58 -178t158 -60q92 0 159.5 56.5t96.5 144.5v698h116v-801q0 -48 23 -69t71 -21h50v-364h-109z" />
    <glyph glyph-name="uni0448.loclBGR" horiz-adv-x="1439" 
d="M416 -23q-143 0 -220 91t-77 241v674h117v-668q0 -113 48.5 -172t143.5 -59q140 0 231 172v727h115v-668q0 -112 49.5 -171.5t141.5 -59.5q151 0 233 184v715h117v-983h-107v133q-94 -156 -260 -156q-90 0 -153.5 42t-96.5 118q-107 -160 -282 -160z" />
    <glyph glyph-name="uni0449.loclBGR" horiz-adv-x="1484" 
d="M1348 -272v266q-119 6 -140 135q-96 -152 -260 -152q-91 0 -155 42t-97 118q-104 -160 -282 -160q-142 0 -218.5 91t-76.5 241v674h114v-668q0 -112 49.5 -171.5t143.5 -59.5q148 0 233 176q-2 16 -2 49v674h117v-668q0 -113 48.5 -172t140.5 -59q79 0 138 49.5t95 134.5
v715h117v-790q0 -101 94 -101h49v-364h-108z" />
    <glyph glyph-name="uni044E.loclBGR" horiz-adv-x="1300" 
d="M825 1006q193 0 296.5 -134t103.5 -380q0 -243 -104 -379t-296 -136q-178 0 -278.5 121t-112.5 340h-192v-438h-117v1434h117v-889h192q12 219 112.5 340t278.5 121zM825 86q139 0 210 106.5t71 299.5t-71.5 300t-209.5 107t-209 -107t-71 -300t71 -299.5t209 -106.5z
" />
    <glyph glyph-name="uni0430.ss01" horiz-adv-x="974" 
d="M453 -23q-123 0 -209.5 69.5t-127 183.5t-40.5 262t40.5 262t127 183t209.5 69q199 0 290 -187v164h107v-983h-107v164q-91 -187 -290 -187zM471 84q185 0 262 209v397q-77 209 -262 209q-139 0 -207.5 -109t-68.5 -298t68.5 -298.5t207.5 -109.5z" />
    <glyph glyph-name="uni0437.ss01" horiz-adv-x="727" 
d="M258 -473q-133 0 -225 43v111q102 -48 217 -48q138 0 226.5 89t88.5 241q0 166 -77.5 255t-217.5 58l-96 -22v108l109 25q100 23 154.5 94t54.5 172q0 112 -67 179t-175 67q-105 0 -203 -53v110q104 53 221 50q143 2 240.5 -91.5t97.5 -248.5q0 -220 -188 -312
q118 -15 191 -121.5t73 -269.5q0 -189 -116 -312.5t-308 -123.5z" />
    <glyph glyph-name="uni0443.ss01" horiz-adv-x="946" 
d="M412 -473q-156 0 -262 53v109q105 -54 256 -54q148 0 223.5 79t75.5 227v188q-41 -71 -113 -111.5t-168 -40.5q-137 0 -221 90.5t-84 247.5v668h114v-661q0 -118 58 -178t158 -60q92 0 159.5 56.5t96.5 144.5v698h116v-1042q0 -86 -24.5 -159.5t-72.5 -131.5t-128 -90.5
t-184 -32.5z" />
    <glyph glyph-name="zero.osf" horiz-adv-x="1058" 
d="M530 -23q-144 0 -247 74t-152 197.5t-49 283.5t49 283.5t152 197.5t247 74q108 0 194 -42t140.5 -117.5t83.5 -176t29 -219.5t-29 -219.5t-83.5 -176t-140.5 -117.5t-194 -42zM530 92q159 0 241.5 119t82.5 321t-82.5 321.5t-241.5 119.5q-161 0 -243 -119t-82 -322
q0 -202 82 -321t243 -119z" />
    <glyph glyph-name="one.osf" horiz-adv-x="724" 
d="M86 0v117h250v817l-256 -111v115l291 127h88v-948h231v-117h-604z" />
    <glyph glyph-name="two.osf" horiz-adv-x="872" 
d="M72 0v76q0 33 6.5 64.5t14.5 57t27 53t31.5 46t41 44t42.5 38t49.5 37t48.5 33.5t52 34t49 31q53 34 88 59.5t70 60.5t52.5 74.5t17.5 84.5q0 83 -62.5 132.5t-169.5 49.5q-162 0 -328 -109v123q162 98 338 98q152 0 247 -79.5t95 -216.5q0 -51 -17.5 -98.5t-43 -83
t-68 -73.5t-77.5 -63t-87 -59q-13 -8 -41.5 -26.5t-42.5 -27.5t-39.5 -26t-39 -27.5t-34 -27.5t-31.5 -30t-25 -30.5t-21 -33t-12 -33.5t-6 -37l596 2v-117h-721z" />
    <glyph glyph-name="three.osf" horiz-adv-x="897" 
d="M383 -350q-175 0 -317 74v114q140 -74 317 -74q146 0 234 78t88 215q0 73 -26 128.5t-68.5 86.5t-90.5 46.5t-98 15.5h-160v117l148 -2q106 -1 171.5 75.5t65.5 182.5q0 127 -77.5 197.5t-217.5 70.5q-136 0 -272 -74v119q131 67 293 67q180 0 285.5 -103t105.5 -267
q0 -109 -55 -201t-144 -121q48 -14 90.5 -39.5t82 -65.5t62.5 -102t23 -137q0 -182 -124 -291.5t-316 -109.5z" />
    <glyph glyph-name="four.osf" horiz-adv-x="1026" 
d="M684 -328v326h-647v90l645 977h121v-954h182v-113h-182v-326h-119zM182 111h502v753z" />
    <glyph glyph-name="five.osf" horiz-adv-x="892" 
d="M393 -350q-187 0 -315 69v117q135 -74 299 -74q151 0 243.5 84.5t92.5 235.5q0 146 -89.5 224.5t-238.5 78.5q-142 0 -279 -55l37 735h623v-117h-512l-27 -481q92 27 187 27q190 0 306 -110.5t116 -301.5q0 -195 -124 -313.5t-319 -118.5z" />
    <glyph glyph-name="six.osf" horiz-adv-x="1013" 
d="M547 856q84 0 156.5 -27t128 -78.5t87 -135t31.5 -189.5q0 -202 -108.5 -325.5t-298.5 -123.5q-149 0 -253 85t-152 228.5t-48 334.5q0 398 135 594t379 196q133 0 252 -67v-115q-109 70 -248 70q-374 0 -393 -588q144 141 332 141zM541 92q142 0 214 89.5t72 238.5
q0 158 -77 240.5t-207 82.5q-183 0 -330 -159q8 -230 90.5 -361t237.5 -131z" />
    <glyph glyph-name="seven.osf" horiz-adv-x="829" 
d="M797 1065v-109l-451 -1284h-123l447 1276h-645v117h772z" />
    <glyph glyph-name="eight.osf" 
d="M526 -23q-109 0 -195 30.5t-139.5 83t-81.5 118.5t-28 141q0 126 66 231.5t176 180.5q-91 57 -142 131t-51 182q0 64 25 123.5t72 108.5t124.5 78.5t173.5 29.5q181 0 287.5 -102.5t106.5 -249.5q0 -100 -54.5 -194.5t-148.5 -170.5q57 -29 98.5 -59t78.5 -72t56 -98
t19 -125q0 -68 -25.5 -131t-77 -117t-139.5 -86.5t-201 -32.5zM608 752q84 60 137.5 140t53.5 171q0 105 -73.5 172.5t-199.5 67.5q-129 0 -200.5 -67.5t-71.5 -168.5q0 -27 6 -51.5t13.5 -44.5t24.5 -39.5t30 -33t38.5 -30.5t41 -26t48 -24t48.5 -22t52.5 -22.5t51.5 -21.5
zM526 92q155 0 238.5 72t83.5 182q0 50 -19 93t-45 71.5t-74.5 58.5t-84 47t-100 45t-97.5 44q-225 -153 -225 -347q0 -119 86 -192.5t237 -73.5z" />
    <glyph glyph-name="nine.osf" horiz-adv-x="999" 
d="M414 -350q-131 0 -250 67v115q109 -70 246 -70q362 0 381 588q-144 -141 -332 -141q-84 0 -156.5 27t-128 78.5t-87.5 135t-32 189.5q0 202 109 325t299 123q149 0 252.5 -84.5t151.5 -227.5t48 -335q0 -397 -133 -593.5t-368 -196.5zM463 322q183 0 330 159
q-8 230 -90.5 361t-237.5 131q-142 0 -214.5 -89.5t-72.5 -238.5q0 -158 77.5 -240.5t207.5 -82.5z" />
    <glyph glyph-name="zero.sinf" horiz-adv-x="751" 
d="M375 -262q-157 0 -235.5 117t-78.5 317q0 204 78 320t236 116q159 0 237 -116t78 -320q0 -201 -78.5 -317.5t-236.5 -116.5zM375 -166q104 0 158.5 85.5t54.5 252.5q0 340 -213 340q-211 0 -211 -340q0 -167 54.5 -252.5t156.5 -85.5z" />
    <glyph glyph-name="one.sinf" horiz-adv-x="509" 
d="M47 -240v97h176v618l-155 -72v97l186 86h72v-729h157v-97h-436z" />
    <glyph glyph-name="two.sinf" horiz-adv-x="604" 
d="M299 608q112 0 178 -61.5t66 -163.5q0 -48 -15 -89t-48.5 -78t-59.5 -59.5t-74 -58.5q-41 -31 -56 -43t-46.5 -40.5t-45 -48t-27 -49t-15.5 -60.5h391v-97h-496v60q0 34 6.5 65.5t15.5 56t27 50t32 42.5t38.5 39.5t39.5 34.5t43 34t40 32q73 53 110 98.5t37 110.5
q0 59 -40 94t-113 35q-112 0 -217 -66v99q101 63 229 63z" />
    <glyph glyph-name="three.sinf" horiz-adv-x="620" 
d="M276 -262q-127 0 -225 45v94q98 -45 217 -45q88 0 143.5 40t55.5 116q0 75 -53 111t-138 36h-81v96h81q76 0 117 38t41 100q0 70 -47 106.5t-133 36.5q-99 0 -191 -47v96q89 47 205 47q121 0 192.5 -62t71.5 -169q0 -64 -35 -116t-91 -71q64 -21 111.5 -74.5t47.5 -140.5
q0 -112 -83.5 -174.5t-205.5 -62.5z" />
    <glyph glyph-name="four.sinf" horiz-adv-x="690" 
d="M436 -240v166h-405v86l395 574h111v-566h116v-94h-116v-166h-101zM143 20h293v416z" />
    <glyph glyph-name="five.sinf" horiz-adv-x="606" 
d="M266 -262q-125 0 -209 47v94q92 -47 201 -47q85 0 141 45t56 133q0 87 -55.5 129.5t-147.5 42.5q-84 0 -170 -30l24 434h410v-99h-315l-15 -231q49 14 103 14q114 -2 191 -68t77 -192q0 -128 -85.5 -200t-205.5 -72z" />
    <glyph glyph-name="six.sinf" horiz-adv-x="681" 
d="M371 272q121 0 192.5 -69.5t71.5 -188.5q0 -116 -75.5 -196t-199.5 -80q-149 0 -225 102t-76 295q0 236 95 354.5t260 118.5q98 0 168 -43v-94q-68 41 -162 41q-117 0 -181 -80.5t-73 -230.5q85 71 205 71zM358 -166q79 0 126.5 49t47.5 129q0 84 -43.5 125t-121.5 41
q-118 0 -203 -82q3 -262 194 -262z" />
    <glyph glyph-name="seven.sinf" horiz-adv-x="567" 
d="M139 -240l291 727h-401v99h506v-94l-291 -732h-105z" />
    <glyph glyph-name="eight.sinf" horiz-adv-x="679" 
d="M344 -262q-136 0 -211.5 65.5t-75.5 171.5q0 137 133 242q-104 72 -104 180q0 89 70 150t184 61q121 0 186.5 -63.5t65.5 -157.5q0 -111 -111 -211q67 -37 104.5 -84.5t37.5 -120.5q0 -97 -72 -165t-207 -68zM399 215q95 85 95 172q0 57 -40 93t-114 36q-71 0 -112.5 -34
t-41.5 -87q0 -33 14.5 -59t47 -47.5t57 -33.5t72.5 -31q15 -6 22 -9zM344 -168q84 0 131 38t47 101q0 31 -13.5 56t-44 46t-54 33.5t-72 33t-68.5 30.5q-112 -79 -112 -188q0 -67 49 -108.5t137 -41.5z" />
    <glyph glyph-name="nine.sinf" horiz-adv-x="681" 
d="M266 -262q-96 0 -166 43v94q72 -43 162 -43q117 0 180 82.5t72 237.5q-86 -74 -203 -74q-123 0 -194.5 70t-71.5 190q0 115 72.5 192.5t199.5 77.5q149 0 226.5 -108t77.5 -285q0 -239 -94.5 -358t-260.5 -119zM315 172q114 0 201 84q-7 126 -58.5 191t-140.5 65
q-81 0 -125.5 -46.5t-44.5 -127.5q0 -83 44.5 -124.5t123.5 -41.5z" />
    <glyph glyph-name="zero.tf" 
d="M526 -23q-96 0 -173 35.5t-130 99t-88 154t-51 197.5t-16 233t16 233t51 197.5t88 154t130 99t173 35.5t172.5 -35.5t129.5 -99t88 -154t51 -197.5t16 -233t-16 -233t-51 -197.5t-88 -154t-129.5 -99t-172.5 -35.5zM526 92q334 0 334 604t-334 604q-336 0 -336 -604
t336 -604z" />
    <glyph glyph-name="one.tf" 
d="M90 0v117h414v1145l-332 -142v115l367 158h88v-1276h364v-117h-901z" />
    <glyph glyph-name="two.tf" 
d="M506 1415q200 0 310 -100t110 -262q0 -65 -23.5 -127.5t-47 -102.5t-87.5 -101t-89 -81.5t-108 -84.5q-11 -9 -16 -13q-46 -35 -69 -53.5t-63.5 -52.5t-62 -57t-50 -57.5t-43 -64.5t-26 -66.5t-12.5 -74.5h707v-117h-832v76q0 43 8 85t18.5 76t34 72t40 63.5t51 61
t53 54.5t61 54t59.5 48.5t63 48.5q48 38 68.5 54t62 51.5t61 56.5t47.5 55.5t41 62.5t23 64t10 72q0 107 -80.5 177.5t-226.5 70.5q-189 0 -357 -129v126q161 115 365 115z" />
    <glyph glyph-name="three.tf" 
d="M473 -23q-209 0 -360 89v114q84 -46 167 -67t189 -21q160 0 256 74t96 213q0 76 -24 132t-69 88.5t-103 47.5t-131 15h-187v114h182q141 0 209 72t68 184q0 124 -84.5 197.5t-228.5 73.5q-94 0 -171 -23.5t-161 -69.5v115q77 44 157 67t189 23q189 0 302.5 -103
t113.5 -270q0 -111 -54.5 -201t-148.5 -118q50 -14 93.5 -39.5t82 -66.5t60.5 -103.5t22 -140.5q0 -185 -130.5 -290.5t-334.5 -105.5z" />
    <glyph glyph-name="four.tf" 
d="M698 0v326h-661v90l670 977h110v-955h182v-112h-182v-326h-119zM182 438h516v746z" />
    <glyph glyph-name="five.tf" 
d="M459 -23q-192 0 -322 70v117q135 -74 305 -74q174 0 272.5 83.5t98.5 236.5q0 148 -95 225.5t-267 77.5q-146 0 -285 -56l37 736h663v-117h-553l-26 -481q88 26 192 26q214 0 335.5 -109t121.5 -302q0 -198 -129.5 -315.5t-347.5 -117.5z" />
    <glyph glyph-name="six.tf" 
d="M567 856q171 0 283.5 -111t112.5 -319q0 -201 -108.5 -325t-293.5 -124q-113 0 -199.5 50t-139.5 139.5t-80 205t-27 253.5q0 400 129.5 595t371.5 195q125 0 244 -67v-115q-109 70 -239 70q-190 0 -281.5 -150t-99.5 -440q146 143 327 143zM559 92q137 0 209 90t72 238
q0 158 -75.5 240.5t-201.5 82.5q-175 0 -325 -159q5 -148 39 -255.5t106 -172t176 -64.5z" />
    <glyph glyph-name="seven.tf" 
d="M965 1393v-109l-512 -1284h-123l508 1276h-754v117h881z" />
    <glyph glyph-name="eight.tf" 
d="M526 -23q-109 0 -195 30.5t-139.5 83t-81.5 118.5t-28 141q0 126 66 231.5t176 180.5q-91 57 -142 131t-51 182q0 64 25 123.5t72 108.5t124.5 78.5t173.5 29.5q181 0 287.5 -102.5t106.5 -249.5q0 -100 -54.5 -194.5t-148.5 -170.5q57 -29 98.5 -59t78.5 -72t56 -98
t19 -125q0 -68 -25.5 -131t-77 -117t-139.5 -86.5t-201 -32.5zM608 752q84 60 137.5 140t53.5 171q0 105 -73.5 172.5t-199.5 67.5q-129 0 -200.5 -67.5t-71.5 -168.5q0 -27 6 -51.5t13.5 -44.5t24.5 -39.5t30 -33t38.5 -30.5t41 -26t48 -24t48.5 -22t52.5 -22.5t51.5 -21.5
zM526 92q155 0 238.5 72t83.5 182q0 50 -19 93t-45 71.5t-74.5 58.5t-84 47t-100 45t-97.5 44q-225 -153 -225 -347q0 -119 86 -192.5t237 -73.5z" />
    <glyph glyph-name="nine.tf" 
d="M434 -23q-123 0 -244 68v115q109 -70 240 -70q190 0 281.5 150t99.5 440q-146 -143 -328 -143q-82 0 -152.5 27t-124.5 78.5t-85 135t-31 189.5q0 200 110 324t294 124q112 0 198 -50t138.5 -139t79 -204.5t26.5 -253.5q0 -400 -130 -595.5t-372 -195.5zM487 649
q175 0 326 160q-6 226 -85.5 358.5t-231.5 132.5q-136 0 -209.5 -90t-73.5 -237q0 -158 74 -241t200 -83z" />
    <glyph glyph-name="zero.tosf" 
d="M526 -23q-149 0 -254 74t-154.5 197t-49.5 284t49.5 284t154.5 197t254 74q148 0 253 -74t154.5 -197t49.5 -284t-49.5 -284t-154.5 -197t-253 -74zM526 92q166 0 250 118.5t84 321.5t-84 322t-250 119q-167 0 -251.5 -119t-84.5 -322t84.5 -321.5t251.5 -118.5z" />
    <glyph glyph-name="one.tosf" 
d="M88 0v117h414v817l-332 -141v114l365 158h88v-948h366v-117h-901z" />
    <glyph glyph-name="two.tosf" 
d="M104 0v76q0 52 12 98t30 80.5t50 67.5t59 55t72.5 47t74.5 39.5t79 36.5q18 8 60.5 27t61 27.5t53 26.5t50.5 30.5t39 32.5t33.5 39t18.5 44.5t8 54.5q0 86 -75 139.5t-200 53.5q-117 0 -207 -28.5t-182 -88.5v123q172 106 389 106q176 0 287 -84t111 -221
q0 -43 -11.5 -81t-28 -67t-47 -57.5t-56.5 -48t-69 -43t-71.5 -37.5t-77.5 -36q-16 -7 -24 -11q-146 -69 -195 -102q-114 -79 -117 -184l707 2v-117h-834z" />
    <glyph glyph-name="three.tosf" 
d="M471 -350q-208 0 -360 88v115q85 -46 168 -67.5t190 -21.5q159 0 254.5 74t95.5 213q0 149 -87.5 216t-237.5 67h-189v115h182q141 0 209 72t68 184q0 123 -84.5 196.5t-228.5 73.5q-94 0 -170.5 -23t-161.5 -69v114q156 90 346 90t303 -102.5t113 -269.5
q0 -111 -54.5 -201.5t-148.5 -118.5q50 -14 93.5 -39.5t82 -66.5t60.5 -103.5t22 -140.5q0 -185 -130.5 -290t-334.5 -105z" />
    <glyph glyph-name="four.tosf" 
d="M702 -328v326h-661v90l672 977h108v-954h183v-113h-183v-326h-119zM186 111h516v745z" />
    <glyph glyph-name="five.tosf" 
d="M457 -350q-194 0 -322 69v117q138 -74 305 -74q174 0 272.5 83.5t98.5 236.5q0 148 -94.5 225.5t-265.5 77.5q-150 0 -287 -55l37 735h665v-117h-555l-24 -481q89 27 192 27q214 0 334.5 -109t120.5 -303q0 -198 -129 -315t-348 -117z" />
    <glyph glyph-name="six.tosf" 
d="M567 856q171 0 283.5 -111t112.5 -319q0 -200 -109 -324.5t-293 -124.5q-113 0 -199.5 50t-139.5 139.5t-80 205t-27 253.5q0 400 129.5 595t371.5 195q125 0 244 -67v-115q-109 70 -239 70q-190 0 -281.5 -150t-99.5 -440q146 143 327 143zM559 92q135 0 208 90t73 238
q0 158 -75.5 240.5t-201.5 82.5q-175 0 -325 -159q5 -148 39 -255.5t106 -172t176 -64.5z" />
    <glyph glyph-name="seven.tosf" 
d="M963 1065v-109l-512 -1284h-123l508 1276h-754v117h881z" />
    <glyph glyph-name="eight.tosf" 
d="M526 -23q-109 0 -195 30.5t-139.5 83t-81.5 118.5t-28 141q0 126 66 231.5t176 180.5q-91 57 -142 131t-51 182q0 64 25 123.5t72 108.5t124.5 78.5t173.5 29.5q181 0 287.5 -102.5t106.5 -249.5q0 -100 -54.5 -194.5t-148.5 -170.5q57 -29 98.5 -59t78.5 -72t56 -98
t19 -125q0 -68 -25.5 -131t-77 -117t-139.5 -86.5t-201 -32.5zM608 752q84 60 137.5 140t53.5 171q0 105 -73.5 172.5t-199.5 67.5q-129 0 -200.5 -67.5t-71.5 -168.5q0 -27 6 -51.5t13.5 -44.5t24.5 -39.5t30 -33t38.5 -30.5t41 -26t48 -24t48.5 -22t52.5 -22.5t51.5 -21.5
zM526 92q155 0 238.5 72t83.5 182q0 50 -19 93t-45 71.5t-74.5 58.5t-84 47t-100 45t-97.5 44q-225 -153 -225 -347q0 -119 86 -192.5t237 -73.5z" />
    <glyph glyph-name="nine.tosf" 
d="M434 -350q-125 0 -244 67v115q109 -70 240 -70q190 0 281.5 150t99.5 440q-146 -143 -328 -143q-82 0 -152.5 27t-124.5 78.5t-85 135t-31 189.5q0 200 110 324t294 124q112 0 198 -50t138.5 -139t79 -204.5t26.5 -253.5q0 -400 -130 -595t-372 -195zM487 322
q176 0 326 159q-6 226 -85.5 359t-231.5 133q-136 0 -209.5 -90.5t-73.5 -237.5q0 -158 74 -240.5t200 -82.5z" />
    <glyph glyph-name="zero.dnom" horiz-adv-x="751" 
d="M375 -23q-157 0 -235.5 117t-78.5 318q0 204 78 320t236 116q159 0 237 -116t78 -320q0 -201 -78.5 -318t-236.5 -117zM375 74q104 0 158.5 85.5t54.5 252.5q0 340 -213 340q-211 0 -211 -340q0 -167 54.5 -252.5t156.5 -85.5z" />
    <glyph glyph-name="one.dnom" horiz-adv-x="509" 
d="M47 0v96h176v619l-155 -72v96l186 86h72v-729h157v-96h-436z" />
    <glyph glyph-name="two.dnom" horiz-adv-x="604" 
d="M299 848q112 0 178 -61.5t66 -163.5q0 -48 -15 -89t-48.5 -78t-59.5 -59.5t-74 -58.5q-48 -37 -69.5 -54.5t-54.5 -51t-48 -66t-18 -70.5h391v-96h-496v59q0 34 6.5 65.5t15.5 56t27 50.5t31.5 42.5t39 39.5t39.5 35t42.5 34.5t40.5 31.5q73 53 110 98.5t37 110.5
q0 59 -40 94t-113 35q-112 0 -217 -66v98q102 64 229 64z" />
    <glyph glyph-name="three.dnom" horiz-adv-x="620" 
d="M276 -23q-125 0 -225 46v94q98 -45 217 -45q88 0 143.5 39.5t55.5 115.5q0 75 -53.5 111.5t-137.5 36.5h-81v96h81q76 0 117 37.5t41 99.5q0 70 -47 107t-133 37q-99 0 -191 -47v96q89 47 205 47q120 0 192 -62.5t72 -169.5q0 -64 -35 -115.5t-91 -70.5
q64 -21 111.5 -74.5t47.5 -140.5q0 -112 -83.5 -175t-205.5 -63z" />
    <glyph glyph-name="four.dnom" horiz-adv-x="690" 
d="M436 0v166h-405v86l395 573h111v-565h116v-94h-116v-166h-101zM143 260h293v416z" />
    <glyph glyph-name="five.dnom" horiz-adv-x="606" 
d="M266 -23q-123 0 -209 48v94q92 -47 201 -47q85 0 141 45t56 133q0 87 -55.5 129.5t-147.5 42.5q-82 0 -170 -31l24 434h410v-98h-315l-15 -231q49 14 103 14q114 -2 191 -68t77 -192q0 -128 -85.5 -200.5t-205.5 -72.5z" />
    <glyph glyph-name="six.dnom" horiz-adv-x="681" 
d="M371 512q121 0 192.5 -69.5t71.5 -188.5q0 -116 -75.5 -196.5t-199.5 -80.5q-149 0 -225 102.5t-76 295.5q0 236 95 354.5t260 118.5q98 0 168 -43v-94q-68 41 -162 41q-117 0 -181 -81t-73 -231q87 72 205 72zM358 74q79 0 126.5 49t47.5 129q0 84 -43.5 125t-121.5 41
q-118 0 -203 -82q3 -262 194 -262z" />
    <glyph glyph-name="seven.dnom" horiz-adv-x="567" 
d="M139 0l291 727h-401v98h506v-94l-291 -731h-105z" />
    <glyph glyph-name="eight.dnom" horiz-adv-x="679" 
d="M344 -23q-136 0 -211.5 66t-75.5 172q0 137 133 242q-104 72 -104 180q0 89 70 150t184 61q121 0 186.5 -63.5t65.5 -157.5q0 -111 -111 -211q67 -37 104.5 -84.5t37.5 -120.5q0 -97 -72.5 -165.5t-206.5 -68.5zM399 455q95 85 95 172q0 57 -40 93t-114 36
q-71 0 -112.5 -34t-41.5 -87q0 -33 14.5 -59t47 -47.5t57 -33.5t72.5 -31q15 -6 22 -9zM344 72q84 0 131 38t47 101q0 31 -13.5 56t-44 46t-54 33.5t-72 33t-68.5 30.5q-112 -79 -112 -189q0 -67 49 -108t137 -41z" />
    <glyph glyph-name="nine.dnom" horiz-adv-x="681" 
d="M266 -23q-96 0 -166 43v95q72 -43 162 -43q117 0 180 82t72 237q-86 -74 -203 -74q-123 0 -194.5 70.5t-71.5 190.5q0 115 72.5 192.5t199.5 77.5q149 0 226.5 -108t77.5 -285q0 -239 -94.5 -358.5t-260.5 -119.5zM315 412q114 0 201 84q-7 126 -58.5 191t-140.5 65
q-81 0 -125.5 -46.5t-44.5 -127.5q0 -83 44.5 -124.5t123.5 -41.5z" />
    <glyph glyph-name="zero.numr" horiz-adv-x="751" 
d="M375 586q-157 0 -235.5 117.5t-78.5 318.5q0 203 78 318.5t236 115.5q159 0 237 -115.5t78 -318.5q0 -201 -78.5 -318.5t-236.5 -117.5zM375 682q103 0 158 86t55 254q0 338 -213 338q-211 0 -211 -338q0 -167 54.5 -253.5t156.5 -86.5z" />
    <glyph glyph-name="one.numr" horiz-adv-x="509" 
d="M47 608v99h176v616l-155 -72v99l186 84h72v-727h157v-99h-436z" />
    <glyph glyph-name="two.numr" horiz-adv-x="604" 
d="M299 1456q112 0 178 -61t66 -164q0 -39 -12.5 -75t-27.5 -61t-46.5 -55.5t-51 -46t-59.5 -45.5q-97 -76 -128 -110q-57 -63 -62 -131h391v-99h-496v62q0 34 6.5 65.5t15.5 55.5t27 50.5t31.5 42.5t39 39t39 34t43 34t40.5 31q73 53 110 98.5t37 110.5q0 60 -40.5 95.5
t-112.5 35.5q-109 0 -217 -68v101q102 61 229 61z" />
    <glyph glyph-name="three.numr" horiz-adv-x="620" 
d="M276 586q-127 0 -225 45v94q93 -43 217 -43q88 0 143.5 39t55.5 115q0 77 -53 112t-138 35h-81v96h81q75 0 116.5 38.5t41.5 99.5q0 71 -47 108t-133 37q-95 0 -191 -49v98q92 45 205 45q121 0 192.5 -62t71.5 -169q0 -64 -35 -116t-91 -71q65 -21 112 -73.5t47 -139.5
q0 -113 -83.5 -176t-205.5 -63z" />
    <glyph glyph-name="four.numr" horiz-adv-x="690" 
d="M436 608v166h-405v88l395 572h111v-566h116v-94h-116v-166h-101zM143 868h293v416z" />
    <glyph glyph-name="five.numr" horiz-adv-x="606" 
d="M266 586q-126 0 -209 49v94q87 -47 201 -47q84 0 140.5 44.5t56.5 131.5t-56 130.5t-147 43.5q-88 0 -170 -33l24 435h410v-97h-315l-15 -231q42 12 103 12q114 0 191 -66t77 -194q0 -127 -85.5 -199.5t-205.5 -72.5z" />
    <glyph glyph-name="six.numr" horiz-adv-x="681" 
d="M371 1122q122 0 193 -70t71 -190q0 -115 -76 -195.5t-199 -80.5q-149 0 -225 102.5t-76 296.5q0 234 95 352.5t260 118.5q98 0 168 -43v-94q-72 43 -162 43q-117 0 -181 -81.5t-73 -231.5q88 73 205 73zM358 682q79 0 126.5 50t47.5 130q0 83 -44 124.5t-121 41.5
q-116 0 -203 -84q3 -262 194 -262z" />
    <glyph glyph-name="seven.numr" horiz-adv-x="567" 
d="M139 608l291 729h-401v97h506v-93l-291 -733h-105z" />
    <glyph glyph-name="eight.numr" horiz-adv-x="679" 
d="M344 586q-136 0 -211.5 65.5t-75.5 171.5q0 137 133 242q-104 72 -104 180q0 90 70 150.5t184 60.5q121 0 186.5 -63.5t65.5 -155.5q0 -110 -111 -213q66 -35 104 -83t38 -122q0 -97 -72 -165t-207 -68zM399 1063q95 85 95 174q0 56 -40 91.5t-114 35.5
q-71 0 -112.5 -33.5t-41.5 -85.5q0 -19 5.5 -36t12 -29t23 -26t26 -21t34.5 -19.5l34 -17t39.5 -17.5t38.5 -16zM344 682q85 0 131.5 37t46.5 100q0 26 -11.5 49t-27.5 38.5t-44.5 32.5t-51.5 27.5t-59.5 26.5t-57.5 27q-112 -82 -112 -191q0 -67 49 -107t137 -40z" />
    <glyph glyph-name="nine.numr" horiz-adv-x="681" 
d="M266 586q-96 0 -166 43v94q68 -41 162 -41q233 0 252 317q-85 -73 -203 -73q-123 0 -194.5 70t-71.5 190q0 115 72.5 192.5t199.5 77.5q149 0 226.5 -108t77.5 -285q0 -239 -94.5 -358t-260.5 -119zM315 1020q114 0 201 84q-7 126 -58.5 191t-140.5 65
q-81 0 -125.5 -46.5t-44.5 -127.5q0 -83 44.5 -124.5t123.5 -41.5z" />
    <glyph glyph-name="zero.sups" horiz-adv-x="751" 
d="M375 801q-157 0 -235.5 117.5t-78.5 318.5q0 204 78 320t236 116q159 0 237 -116t78 -320q0 -201 -78.5 -318.5t-236.5 -117.5zM375 899q104 0 158.5 85.5t54.5 252.5q0 338 -213 338q-211 0 -211 -338q0 -167 54.5 -252.5t156.5 -85.5z" />
    <glyph glyph-name="one.sups" horiz-adv-x="509" 
d="M47 825v97h176v616l-155 -70v97l186 84h72v-727h157v-97h-436z" />
    <glyph glyph-name="two.sups" horiz-adv-x="604" 
d="M299 1673q112 0 178 -61.5t66 -163.5q0 -40 -12.5 -76t-27.5 -61t-46.5 -56t-51 -46.5t-59.5 -45.5q-41 -31 -56 -43t-46.5 -40.5t-45 -48t-27 -49t-15.5 -60.5h391v-97h-496v60q0 34 6.5 65.5t15.5 55.5t27 50.5t31.5 42.5t39 39t39 34t43 34t40.5 31q36 27 57 45.5
t44.5 45t34.5 56.5t11 64q0 59 -40 94t-113 35q-113 0 -217 -68v101q105 63 229 63z" />
    <glyph glyph-name="three.sups" horiz-adv-x="620" 
d="M276 801q-127 0 -225 45v94q93 -43 217 -43q88 0 143.5 39.5t55.5 114.5q0 77 -53 112t-138 35h-81v98h81q76 0 117 38t41 100q0 70 -47 106.5t-133 36.5q-99 0 -191 -47v96q96 47 205 47q121 0 192.5 -62t71.5 -169q0 -65 -35 -117t-91 -72q65 -21 112 -73.5t47 -139.5
q0 -112 -83.5 -175.5t-205.5 -63.5z" />
    <glyph glyph-name="four.sups" horiz-adv-x="690" 
d="M436 825v164h-405v88l395 572h111v-564h116v-96h-116v-164h-101zM143 1085h293v416z" />
    <glyph glyph-name="five.sups" horiz-adv-x="606" 
d="M266 801q-121 0 -209 49v94q87 -47 201 -47q85 0 141 45t56 133q0 87 -55.5 129.5t-147.5 42.5q-88 0 -170 -33l24 435h410v-97h-315l-15 -231q49 14 103 14q114 -2 191 -68t77 -192q0 -128 -85.5 -201t-205.5 -73z" />
    <glyph glyph-name="six.sups" horiz-adv-x="681" 
d="M371 1337q122 0 193 -70t71 -190q0 -115 -76 -195.5t-199 -80.5q-149 0 -225 103t-76 296q0 236 95 354.5t260 118.5q95 0 168 -45v-94q-67 43 -162 43q-117 0 -181 -81.5t-73 -231.5q88 73 205 73zM358 899q79 0 126.5 49t47.5 129q0 83 -44 124.5t-121 41.5
q-116 0 -203 -84q3 -260 194 -260z" />
    <glyph glyph-name="seven.sups" horiz-adv-x="567" 
d="M139 825l291 727h-401v97h506v-93l-291 -731h-105z" />
    <glyph glyph-name="eight.sups" horiz-adv-x="679" 
d="M344 801q-136 0 -211.5 65.5t-75.5 171.5q0 141 133 242q-104 76 -104 182q0 89 70 150t184 61q121 0 186.5 -64t65.5 -157q0 -111 -111 -211q68 -37 105 -84.5t37 -122.5q0 -96 -72.5 -164.5t-206.5 -68.5zM399 1280q95 81 95 172q0 56 -40 91.5t-114 35.5
q-71 0 -112.5 -33t-41.5 -86q0 -17 3 -31.5t12.5 -27.5t16 -23t24 -21.5t25 -17t31.5 -16.5t31.5 -14.5t35.5 -15t34 -13.5zM344 897q84 0 131 37.5t47 99.5q0 26 -11.5 49t-27.5 38.5t-44.5 32.5t-51.5 27.5t-59.5 26.5t-57.5 27q-57 -42 -84.5 -86t-27.5 -102
q0 -69 49 -109.5t137 -40.5z" />
    <glyph glyph-name="nine.sups" horiz-adv-x="681" 
d="M266 801q-93 0 -166 45v94q67 -43 162 -43q117 0 180 82t72 235q-83 -71 -203 -71q-123 0 -194.5 69.5t-71.5 188.5q0 117 72 194.5t200 77.5q149 0 226.5 -108t77.5 -285q0 -240 -94.5 -359.5t-260.5 -119.5zM315 1237q116 0 201 82q-7 127 -58.5 191.5t-140.5 64.5
q-81 0 -125.5 -46t-44.5 -126q0 -84 44.5 -125t123.5 -41z" />
    <glyph glyph-name="braceleft.case" horiz-adv-x="542" 
d="M483 -225q-137 -27 -205.5 31t-68.5 184v508q0 43 -9.5 73.5t-24 47t-38.5 26t-45 12t-51 2.5v115q30 0 51 2.5t45 11.5t38.5 26t24 48t9.5 74v508q0 126 68.5 184.5t205.5 30.5v-117q-87 13 -120 -20.5t-33 -124.5v-455q0 -104 -34 -158.5t-83 -66.5q49 -12 83 -66.5
t34 -158.5v-455q0 -91 33 -125t120 -21v-116z" />
    <glyph glyph-name="braceright.case" horiz-adv-x="542" 
d="M59 -225v116q88 -13 121 21t33 125v455q0 104 34 158.5t85 66.5q-51 12 -85 66.5t-34 158.5v455q0 91 -33 124.5t-121 20.5v117q137 28 207 -30.5t70 -184.5v-508q0 -54 13 -88.5t39 -49.5t51 -19.5t63 -4.5v-115q-38 0 -63 -5t-51 -20t-39 -49t-13 -87v-508
q0 -125 -70 -183.5t-207 -31.5z" />
    <glyph glyph-name="bracketleft.case" horiz-adv-x="557" 
d="M164 -225v1884h342v-117h-219v-1651h219v-116h-342z" />
    <glyph glyph-name="bracketright.case" horiz-adv-x="557" 
d="M391 -225h-340v116h219v1651h-219v117h340v-1884z" />
    <glyph glyph-name="parenleft.case" horiz-adv-x="507" 
d="M485 1657q-128 -194 -200 -444.5t-72 -495.5t72 -495.5t200 -444.5h-114q-133 197 -210 446t-77 494t77 494t210 446h114z" />
    <glyph glyph-name="parenright.case" horiz-adv-x="507" 
d="M25 1657h114q133 -198 210 -447t77 -493t-77 -493t-210 -447h-114q127 191 198.5 442.5t71.5 497.5t-71.5 497.5t-198.5 442.5z" />
    <glyph glyph-name="emdash.case" horiz-adv-x="1329" 
d="M117 662v110h1097v-110h-1097z" />
    <glyph glyph-name="endash.case" horiz-adv-x="970" 
d="M117 662v110h737v-110h-737z" />
    <glyph glyph-name="hyphen.case" horiz-adv-x="788" 
d="M672 772v-110h-555v110h555z" />
    <glyph glyph-name="guillemotleft.case" horiz-adv-x="813" 
d="M285 354l-209 351v24l209 350h123l-215 -362l215 -363h-123zM594 354l-209 351v24l209 350h125l-215 -362l215 -363h-125z" />
    <glyph glyph-name="guillemotright.case" horiz-adv-x="813" 
d="M219 354h-125l215 363l-215 362h125l209 -350v-24zM528 354h-122l215 363l-215 362h122l209 -350v-24z" />
    <glyph glyph-name="guilsinglleft.case" horiz-adv-x="503" 
d="M285 354l-209 351v24l209 350h123l-215 -362l215 -363h-123z" />
    <glyph glyph-name="guilsinglright.case" horiz-adv-x="503" 
d="M219 354h-125l217 363l-217 362h125l209 -350v-24z" />
    <glyph glyph-name="cent.tf" 
d="M555 -240v222q-193 22 -305.5 157t-112.5 353q0 212 116.5 348.5t301.5 160.5v222h102v-217q118 -6 222 -68v-107q-116 68 -240 68q-167 0 -275 -111.5t-108 -295.5q0 -190 100.5 -298t268.5 -108q145 0 264 61v-106q-94 -58 -232 -64v-217h-102z" />
    <glyph glyph-name="currency.tf" 
d="M182 274l-76 66l121 127q-77 104 -77 250q0 149 77 248l-121 129l76 65l117 -123q90 72 227 72q136 0 226 -72l116 123l76 -65l-121 -129q78 -100 78 -248q0 -145 -78 -250l121 -127l-76 -66l-116 123q-89 -71 -226 -71q-138 0 -227 71zM526 434q118 0 188 76t70 207
t-70 206.5t-188 75.5q-119 0 -189.5 -75.5t-70.5 -206.5t70.5 -207t189.5 -76z" />
    <glyph glyph-name="dollar.tf" 
d="M965 342q0 -161 -103.5 -253.5t-277.5 -106.5v-230h-103v225q-207 6 -356 99v117q90 -54 180 -77.5t203 -23.5q157 0 245.5 63.5t88.5 178.5q0 67 -31.5 120.5t-83.5 88t-118.5 67.5t-135.5 58.5t-135.5 62.5t-118.5 78.5t-83.5 106.5t-31.5 147q0 153 106.5 245
t270.5 105v227h103v-225q158 -8 299 -94v-117q-148 96 -344 96q-136 0 -224 -60t-88 -173q0 -57 25 -103.5t68 -79.5t98.5 -62t116.5 -54.5t122 -52.5t116.5 -62t98.5 -76.5t68 -101.5t25 -133z" />
    <glyph glyph-name="Euro.tf" 
d="M709 92q142 0 278 74v-117q-125 -72 -289 -72q-207 0 -345.5 136.5t-176.5 390.5h-125v102h115q-2 27 -2 80q0 34 4 100h-117v103h129q43 247 181.5 386.5t338.5 139.5q156 0 277 -69v-111q-113 65 -252 65q-165 0 -274.5 -105t-145.5 -306h430v-103h-444q-4 -66 -4 -100
q0 -55 4 -80h444v-102h-434q31 -199 136 -305.5t272 -106.5z" />
    <glyph glyph-name="sterling.tf" 
d="M289 117h686v-117h-907v117h36q68 0 103 48t35 134v319h-144v115h144v246q0 214 108 325t303 111q86 0 149.5 -21.5t125.5 -64.5v-117q-61 45 -121 68t-139 23q-306 0 -306 -326v-244h498v-115h-498v-319q0 -138 -73 -182z" />
    <glyph glyph-name="yen.tf" 
d="M1028 1393l-422 -744h268v-102h-288v-152h288v-102h-288v-293h-121v293h-287v102h287v152h-287v102h266l-419 744h133l368 -674l369 674h133z" />
    </font>
</defs>
</svg>
