<?xml version="1.0" standalone="no"?>
<!DOCTYPE svg PUBLIC "-//W3C//DTD SVG 1.1//EN" "http://www.w3.org/Graphics/SVG/1.1/DTD/svg11.dtd" >
<svg xmlns="http://www.w3.org/2000/svg" xmlns:xlink="http://www.w3.org/1999/xlink" version="1.1">
<metadata>
Created by FontForge 20201107 at Fri Mar  1 20:31:34 2024
 By 
Copyright (c) 2014 by Fontfabric. All rights reserved.
</metadata>
<defs>
<font id="MullerNarrow-LightItalic" horiz-adv-x="1050" >
  <font-face 
    font-family="Muller Narrow Light Italic"
    font-weight="300"
    font-style="italic"
    font-stretch="normal"
    units-per-em="2048"
    panose-1="0 0 4 0 0 0 0 0 0 0"
    ascent="1638"
    descent="-410"
    x-height="983"
    cap-height="1434"
    bbox="-961 -504 1999 1937"
    underline-thickness="102"
    underline-position="-204"
    slope="-9"
    unicode-range="U+0020-25CA"
  />
<missing-glyph horiz-adv-x="1024" 
d="M840 1597v-2048h-650v2048h650zM682 1460h-338v-67h133v-76h-135v-68h340v68h-135v76h135v67zM547 1196h-205v-213h340v70h-135v143zM477 1126v-73h-67v73h67zM682 928h-340v-68h135v-76h-135v-67h205v143h135v68zM682 805h-68v-135h-272v-70h340v205zM682 555h-205v-115
h70v47h67v-96h-204v164h-68v-231h340v231zM682 201h-340v-232h340v232zM614 133v-96h-204v96h204zM682 -78h-340v-67h143l-143 -97v-67h340v67h-209l143 97h66v67z" />
    <glyph glyph-name="f_f" unicode="ff" horiz-adv-x="1081" 
d="M1126 1350q-82 0 -137.5 -47t-68.5 -136l-31 -184h254l-15 -104h-254l-141 -879h-115l140 879h-410l-139 -879h-117l139 879h-143l16 104h144l24 162q22 141 105.5 215t202.5 74q92 0 161 -37l-16 -103q-61 33 -129 33q-83 0 -138.5 -46.5t-68.5 -135.5l-24 -162h409
l29 186q23 143 102.5 215t206.5 72q89 0 158 -37l-17 -102q-54 33 -127 33z" />
    <glyph glyph-name="f_f_i" unicode="ffi" horiz-adv-x="1468" 
d="M92 0l139 879h-143l16 104h144l24 162q22 141 105.5 215t202.5 74q92 0 161 -37l-16 -103q-61 33 -129 33q-83 0 -138.5 -46.5t-68.5 -135.5l-24 -162h409l25 162q24 152 121 231.5t243 79.5q137 0 244 -63l-16 -109q-98 66 -215 66q-110 0 -178 -57.5t-87 -170.5
l-22 -139h526l-155 -983h-117l139 879h-408l-141 -879h-115l140 879h-410l-139 -879h-117z" />
    <glyph glyph-name="f_f_l" unicode="ffl" horiz-adv-x="1460" 
d="M92 0l139 879h-143l16 104h144l24 162q22 141 105.5 215t202.5 74q92 0 161 -37l-16 -103q-61 33 -129 33q-83 0 -138.5 -46.5t-68.5 -135.5l-24 -162h409l29 186q23 137 115 212t231 75q117 0 219 -45l21 21l96 24l-232 -1456h-116l206 1305q-83 45 -186 45
q-96 0 -160 -50.5t-79 -146.5l-29 -170h241l-16 -104h-240l-141 -879h-115l140 879h-410l-139 -879h-117z" />
    <glyph glyph-name=".notdef" horiz-adv-x="1024" 
d="M840 1597v-2048h-650v2048h650zM682 1460h-338v-67h133v-76h-135v-68h340v68h-135v76h135v67zM547 1196h-205v-213h340v70h-135v143zM477 1126v-73h-67v73h67zM682 928h-340v-68h135v-76h-135v-67h205v143h135v68zM682 805h-68v-135h-272v-70h340v205zM682 555h-205v-115
h70v47h67v-96h-204v164h-68v-231h340v231zM682 201h-340v-232h340v232zM614 133v-96h-204v96h204zM682 -78h-340v-67h143l-143 -97v-67h340v67h-209l143 97h66v67z" />
    <glyph glyph-name=".null" horiz-adv-x="0" 
 />
    <glyph glyph-name="nonmarkingreturn" horiz-adv-x="682" 
 />
    <glyph glyph-name="space" unicode=" " horiz-adv-x="411" 
 />
    <glyph glyph-name="exclam" unicode="!" horiz-adv-x="411" 
d="M137 387l158 1047h121l-176 -1047h-103zM131 -16q-36 0 -57.5 24.5t-14.5 65.5q4 35 28.5 54t57.5 19q36 0 58 -24.5t16 -65.5q-6 -35 -30.5 -54t-57.5 -19z" />
    <glyph glyph-name="quotedbl" unicode="&#x22;" horiz-adv-x="557" 
d="M188 989l70 445h117l-99 -445h-88zM422 989l70 445h116l-100 -445h-86z" />
    <glyph glyph-name="numbersign" unicode="#" horiz-adv-x="1146" 
d="M1159 926h-190l-158 -457h172l-16 -102h-193l-129 -367h-115l129 367h-342l-129 -367h-112l127 367h-168l16 102h189l159 457h-172l15 102h194l129 367h113l-127 -367h342l127 367h115l-129 -367h170zM696 469l160 457h-342l-160 -457h342z" />
    <glyph glyph-name="dollar" unicode="$" horiz-adv-x="917" 
d="M291 -248l37 225q-181 13 -301 93l18 112q140 -90 334 -90q137 0 228.5 62t109.5 178q9 60 -6 109t-48 84.5t-78 66.5t-96.5 58.5t-102.5 56t-95.5 64t-76.5 77t-45.5 101t-2.5 130.5q23 149 128.5 235t258.5 97l37 229h102l-37 -225q137 -12 260 -88l-18 -115
q-133 88 -285 88q-127 0 -217 -58.5t-108 -172.5q-9 -56 6.5 -103.5t49 -82t79 -65t96.5 -58.5t102 -57t95 -65t76 -78.5t45.5 -102.5t1.5 -131q-25 -161 -134.5 -249.5t-273.5 -99.5l-37 -225h-102z" />
    <glyph glyph-name="percent" unicode="%" horiz-adv-x="1329" 
d="M401 838q-128 0 -196.5 88.5t-46.5 228.5q24 135 111.5 218t213.5 83q128 0 196.5 -88.5t45.5 -228.5q-22 -135 -109.5 -218t-214.5 -83zM115 0l1054 1434h117l-1055 -1434h-116zM406 940q80 0 136.5 55.5t73.5 155.5q15 92 -23 147.5t-116 55.5q-81 0 -137.5 -55.5
t-73.5 -155.5q-15 -92 23.5 -147.5t116.5 -55.5zM920 -23q-128 0 -197 89t-47 229q22 135 110.5 218t214.5 83q127 0 196 -88.5t46 -228.5q-22 -136 -109 -219t-214 -83zM924 80q81 0 137.5 55.5t73.5 155.5q14 93 -24 148t-116 55q-83 0 -139.5 -55.5t-71.5 -155.5
q-15 -92 23.5 -147.5t116.5 -55.5z" />
    <glyph glyph-name="ampersand" unicode="&#x26;" horiz-adv-x="1167" 
d="M1092 0h-129l-119 162q-182 -185 -436 -185q-100 0 -176.5 30.5t-120.5 82t-62 117t-6 137.5q12 74 47.5 139t89 117.5t103.5 89.5t116 76q-17 23 -28.5 40t-28 43.5t-25.5 47.5t-20.5 52t-14 57t-5 62t5.5 67q22 132 125.5 226.5t265.5 94.5q139 0 219 -88t61 -219
q-12 -72 -47.5 -133.5t-97.5 -114.5t-112 -86t-134 -82l283 -393q95 147 117 317h120q-32 -225 -168 -413zM399 1122q-4 -23 -4 -46t3.5 -44t8.5 -40t13.5 -38.5t16.5 -35.5t19.5 -34.5t20.5 -31t21 -29.5q146 86 198 127q123 95 140 201q12 84 -33.5 139.5t-134.5 55.5
q-112 0 -184 -68t-85 -156zM412 88q215 0 366 164l-311 424q-60 -35 -103 -65.5t-88.5 -72.5t-73.5 -93t-38 -109q-16 -105 48 -176.5t200 -71.5z" />
    <glyph glyph-name="quotesingle" unicode="'" horiz-adv-x="323" 
d="M188 989l70 445h117l-99 -445h-88z" />
    <glyph glyph-name="parenleft" unicode="(" horiz-adv-x="503" 
d="M651 1554q-166 -211 -274 -450.5t-146 -482.5q-40 -250 -8.5 -496.5t129.5 -450.5h-110q-104 216 -140.5 460t0.5 489q41 255 153.5 496.5t279.5 434.5h116z" />
    <glyph glyph-name="parenright" unicode=")" horiz-adv-x="503" 
d="M-109 -326q165 212 273.5 452.5t144.5 481.5q41 250 10 496t-131 450h111q104 -214 141 -459.5t0 -488.5q-41 -256 -154 -498t-280 -434h-115z" />
    <glyph glyph-name="asterisk" unicode="*" horiz-adv-x="704" 
d="M291 897l-82 61l170 177l-201 63l51 102l189 -86l26 220h105l-45 -220l217 86l22 -102l-223 -65l119 -177l-96 -59l-94 190z" />
    <glyph glyph-name="plus" unicode="+" horiz-adv-x="864" 
d="M838 770l-17 -106h-305l-49 -310h-111l50 310h-308l17 106h305l49 309h111l-50 -309h308z" />
    <glyph glyph-name="comma" unicode="," horiz-adv-x="327" 
d="M-37 -301l107 459h123l-136 -459h-94z" />
    <glyph glyph-name="hyphen" unicode="-" horiz-adv-x="770" 
d="M674 559l-19 -110h-555l17 110h557z" />
    <glyph glyph-name="period" unicode="." horiz-adv-x="331" 
d="M104 -16q-37 0 -58 24.5t-15 65.5q6 35 30.5 54t55.5 19q37 0 58.5 -24.5t14.5 -65.5q-6 -35 -30.5 -54t-55.5 -19z" />
    <glyph glyph-name="slash" unicode="/" horiz-adv-x="696" 
d="M49 -119h-86l754 1671h86z" />
    <glyph glyph-name="zero" unicode="0" horiz-adv-x="1097" 
d="M471 -23q-113 0 -193.5 55t-120.5 152t-50.5 230t16.5 288q20 126 52 232t80.5 196t110 152.5t143.5 97.5t179 35q93 0 164 -35.5t114.5 -100.5t67 -155.5t22 -200t-19.5 -235.5q-115 -711 -565 -711zM477 92q169 0 280.5 151.5t157.5 448.5q46 301 -13 454.5t-220 153.5
q-169 0 -280.5 -152.5t-157.5 -449.5q-46 -299 13 -452.5t220 -153.5z" />
    <glyph glyph-name="one" unicode="1" horiz-adv-x="716" 
d="M-2 0l18 117h265l180 1136l-277 -110l21 123l311 127h88l-203 -1276h240l-18 -117h-625z" />
    <glyph glyph-name="two" unicode="2" horiz-adv-x="905" 
d="M586 1415q171 0 260 -97.5t63 -260.5q-7 -48 -24 -93t-36 -80t-52.5 -74t-58.5 -64.5t-70.5 -62.5t-72.5 -56.5t-79 -57.5q-153 -114 -212 -170q-139 -133 -169 -282h637l-18 -117h-762l12 80q13 81 45.5 155t71 129t96.5 111.5t106 93.5t115 84q81 57 127.5 93.5
t101.5 90.5t84.5 110t39.5 120q17 108 -42 172t-180 64q-171 0 -352 -111l21 127q172 96 348 96z" />
    <glyph glyph-name="three" unicode="3" horiz-adv-x="917" 
d="M311 -23q-178 0 -305 68l17 111q133 -67 290 -64q153 0 258 71.5t129 211.5q22 136 -53 211.5t-201 75.5h-155l18 114h152q114 0 195.5 76.5t99.5 187.5q18 117 -51 190t-209 73q-135 0 -287 -68l18 117q129 63 289 63q181 0 281.5 -109t72.5 -274q-15 -103 -83 -191
t-160 -122q89 -25 149 -121.5t39 -239.5q-30 -182 -168 -281.5t-336 -99.5z" />
    <glyph glyph-name="four" unicode="4" horiz-adv-x="1024" 
d="M602 0l51 326h-647l14 90l797 977h125l-154 -955h183l-17 -112h-182l-51 -326h-119zM172 438h498l121 748z" />
    <glyph glyph-name="five" unicode="5" horiz-adv-x="915" 
d="M328 -23q-183 0 -310 74l19 113q125 -74 289 -74q151 0 256 80.5t129 232.5q23 146 -51.5 228t-223.5 82q-135 0 -289 -56l150 736h625l-21 -117h-504l-100 -481q88 26 174 26q184 0 287 -116.5t73 -309.5q-31 -194 -166.5 -306t-336.5 -112z" />
    <glyph glyph-name="six" unicode="6" horiz-adv-x="1015" 
d="M475 -23q-146 0 -239.5 87t-123.5 233.5t-1 333.5q63 396 227 590t405 194q139 0 248 -69l-18 -111q-106 68 -232 68q-73 0 -136.5 -22.5t-112 -64t-88 -94.5t-69 -120.5t-50 -135t-35.5 -143.5q162 133 348 133q76 0 142.5 -26.5t118 -78t74 -138t5.5 -195.5
q-32 -201 -152 -321t-311 -120zM477 92q141 0 229.5 90.5t112.5 241.5q24 156 -41 237.5t-190 81.5q-188 0 -363 -161q-18 -149 2.5 -257.5t84 -170.5t165.5 -62z" />
    <glyph glyph-name="seven" unicode="7" horiz-adv-x="843" 
d="M942 1393l-16 -109l-639 -1284h-125l635 1276h-645l20 117h770z" />
    <glyph glyph-name="eight" unicode="8" 
d="M1010 1055q-14 -98 -85 -192.5t-180 -172.5q53 -30 90 -60t68 -72.5t41.5 -98t-0.5 -123.5q-11 -67 -43.5 -128t-89 -114.5t-147.5 -85t-205 -31.5q-107 0 -190.5 31.5t-131.5 85.5t-67.5 124t-6.5 147q39 237 306 403q-83 57 -122 131.5t-20 181.5q10 63 41.5 121.5
t83.5 106.5t131.5 77t173.5 29q179 0 278 -106t75 -254zM649 741q211 142 242 324q15 103 -48.5 170.5t-185.5 67.5q-127 0 -212 -67t-101 -165q-10 -62 5 -110t66.5 -88t84 -58.5t114.5 -56.5q23 -11 35 -17zM825 348q8 51 -5 94.5t-31 70.5t-67 59.5t-75 46t-92 44.5
q-63 30 -94 46q-246 -150 -279 -353q-18 -118 54.5 -191t220.5 -73q159 0 254.5 71.5t113.5 184.5z" />
    <glyph glyph-name="nine" unicode="9" horiz-adv-x="1015" 
d="M606 1415q150 0 243 -87.5t121 -232.5t-1 -333q-61 -395 -226.5 -590t-406.5 -195q-139 0 -246 70l16 111q106 -68 232 -68q361 0 477 520q3 9 8 29.5t8 30.5q-165 -133 -350 -133q-75 0 -141 26.5t-117.5 78t-74.5 138t-7 195.5q31 200 154 320t311 120zM260 969
q-24 -155 42 -237.5t192 -82.5q183 0 362 162q26 227 -37.5 358t-214.5 131q-142 0 -231 -90t-113 -241z" />
    <glyph glyph-name="colon" unicode=":" horiz-adv-x="389" 
d="M240 729q-37 0 -58.5 24.5t-15.5 65.5q6 35 30.5 54.5t55.5 19.5q37 0 59 -24.5t15 -65.5q-6 -35 -30.5 -54.5t-55.5 -19.5zM121 -16q-36 0 -57.5 24.5t-14.5 65.5q4 35 28.5 54t57.5 19q36 0 58 -24.5t16 -65.5q-6 -35 -30.5 -54t-57.5 -19z" />
    <glyph glyph-name="semicolon" unicode=";" horiz-adv-x="372" 
d="M246 809q-37 0 -59 24.5t-15 65.5q6 35 30.5 54.5t55.5 19.5q37 0 58.5 -24.5t15.5 -65.5q-6 -35 -30.5 -54.5t-55.5 -19.5zM-31 -301l107 459h123l-136 -459h-94z" />
    <glyph glyph-name="less" unicode="&#x3c;" horiz-adv-x="806" 
d="M659 338l-573 321l18 115l674 322l-20 -125l-551 -258l469 -260z" />
    <glyph glyph-name="equal" unicode="=" horiz-adv-x="884" 
d="M172 848l18 110h648l-17 -110h-649zM113 475l18 111h647l-16 -111h-649z" />
    <glyph glyph-name="greater" unicode="&#x3e;" horiz-adv-x="802" 
d="M96 338l21 129l551 258l-469 258l16 113l573 -322l-18 -115z" />
    <glyph glyph-name="question" unicode="?" horiz-adv-x="806" 
d="M311 426q14 87 57.5 167.5t97.5 142t108 121t96 129.5t53 142q15 94 -41 153.5t-168 59.5q-185 0 -346 -120l20 129q156 106 347 106q156 0 244.5 -94.5t66.5 -231.5q-10 -62 -36.5 -121t-61 -106.5t-74.5 -93.5t-80 -90.5t-74.5 -89t-59.5 -97t-34 -106.5h-115zM301 -16
q-36 0 -57.5 24.5t-14.5 65.5q4 35 28.5 54t57.5 19q36 0 58 -24.5t16 -65.5q-6 -35 -30.5 -54t-57.5 -19z" />
    <glyph glyph-name="at" unicode="@" horiz-adv-x="1771" 
d="M807 -473q-188 0 -338.5 64t-250.5 185t-138 307t-2 417q24 150 78 288.5t140.5 260.5t196.5 212.5t254.5 142.5t305.5 52q178 0 315.5 -72.5t217 -195.5t109 -285t1.5 -342q-44 -274 -140.5 -408.5t-267.5 -134.5q-105 0 -159 52t-60 143q-113 -150 -272 -150
q-149 0 -222.5 118.5t-44.5 312.5q31 192 132.5 304.5t250.5 112.5q76 0 135 -39t87 -108l20 129h115l-90 -561q-16 -107 8.5 -159t107.5 -52q216 0 283 450q18 106 12 204.5t-28.5 184t-69 155.5t-109.5 120.5t-151 78t-193 27.5q-136 0 -259.5 -45.5t-219 -124.5
t-171 -186t-123.5 -230.5t-70 -256.5q-64 -403 104 -629.5t516 -226.5q209 0 430 75l-18 -118q-200 -72 -422 -72zM815 170q147 0 250 156l53 327q-52 152 -188 152q-106 0 -183.5 -85t-101.5 -235q-23 -145 23.5 -230t146.5 -85z" />
    <glyph glyph-name="A" unicode="A" horiz-adv-x="1118" 
d="M-63 0l708 1434h133l254 -1434h-121l-65 383h-592l-191 -383h-126zM307 496h520l-110 632q-4 24 -8 51.5t-8 61t-7 53.5q-40 -93 -76 -170z" />
    <glyph glyph-name="B" unicode="B" horiz-adv-x="1114" 
d="M702 1434q192 0 297.5 -96.5t77.5 -274.5q-20 -127 -94.5 -209t-167.5 -109q34 -7 65.5 -23t64.5 -44.5t53.5 -69t30.5 -97t-3 -128.5q-62 -383 -543 -383h-405l227 1434h397zM694 1317h-286l-80 -514h313q120 0 206 64.5t107 189.5q24 135 -47.5 197.5t-212.5 62.5z
M623 688h-314l-90 -571h256q51 0 90.5 3t88.5 12.5t86.5 29.5t72.5 50t58.5 79t33.5 112q11 72 -2.5 125.5t-41.5 83t-71.5 47.5t-82.5 23.5t-84 5.5z" />
    <glyph glyph-name="C" unicode="C" horiz-adv-x="972" 
d="M569 -23q-122 0 -218.5 48t-160.5 141.5t-85 232.5t8 322q29 173 94 313t154.5 232t200 141t231.5 49q153 0 262 -74l-19 -106q-95 65 -231 65q-211 0 -365 -162.5t-204 -465.5q-49 -294 45.5 -457.5t296.5 -163.5q150 0 294 72l-20 -119q-133 -68 -283 -68z" />
    <glyph glyph-name="D" unicode="D" horiz-adv-x="1165" 
d="M637 1434q122 0 216 -35.5t152.5 -99.5t92.5 -154t36 -200t-16 -236q-20 -129 -52.5 -232t-88 -194t-131.5 -152t-185 -96t-245 -35h-338l227 1434h332zM623 1317h-215l-189 -1200h209q252 0 386 149.5t181 450.5q47 297 -40 448.5t-332 151.5z" />
    <glyph glyph-name="E" unicode="E" horiz-adv-x="970" 
d="M78 0l227 1434h735l-18 -117h-612l-86 -537h553l-19 -116h-553l-86 -547h629l-19 -117h-751z" />
    <glyph glyph-name="F" unicode="F" horiz-adv-x="950" 
d="M1049 1434l-19 -117h-622l-89 -559h564l-19 -117h-563l-102 -641h-121l227 1434h744z" />
    <glyph glyph-name="G" unicode="G" horiz-adv-x="1101" 
d="M565 -23q-92 0 -169 26t-141.5 81.5t-102.5 143.5t-50 211.5t15 285.5q27 174 93.5 314t159 230.5t206 138.5t237.5 48q190 0 295 -76l-18 -114q-112 75 -271 75q-214 0 -373.5 -164t-205.5 -460q-24 -170 -10.5 -289t65 -193.5t122 -108.5t161.5 -34q77 0 135.5 15
t120.5 51l94 598h121l-107 -670q-153 -109 -377 -109z" />
    <glyph glyph-name="H" unicode="H" horiz-adv-x="1220" 
d="M1212 1434l-227 -1434h-121l105 662h-666l-104 -662h-121l227 1434h121l-102 -656h663l105 656h120z" />
    <glyph glyph-name="I" unicode="I" horiz-adv-x="434" 
d="M426 1434l-227 -1434h-121l227 1434h121z" />
    <glyph glyph-name="J" unicode="J" horiz-adv-x="831" 
d="M236 -23q-148 0 -267 58l19 115q111 -58 248 -58q122 0 205.5 71t103.5 199l151 955h-336l19 117h457l-170 -1084q-30 -186 -145.5 -279.5t-284.5 -93.5z" />
    <glyph glyph-name="K" unicode="K" horiz-adv-x="1071" 
d="M78 0l227 1434h121l-100 -643h184l541 643h149l-590 -705l383 -729h-133l-354 676h-201l-106 -676h-121z" />
    <glyph glyph-name="L" unicode="L" horiz-adv-x="919" 
d="M426 1434l-207 -1317h623l-21 -117h-743l227 1434h121z" />
    <glyph glyph-name="M" unicode="M" horiz-adv-x="1433" 
d="M78 0l227 1434h119l299 -865l565 865h139l-227 -1434h-121l140 883q34 216 63 336l-551 -840h-59l-291 840q-12 -140 -43 -345l-139 -874h-121z" />
    <glyph glyph-name="N" unicode="N" horiz-adv-x="1220" 
d="M78 0l227 1434h111l493 -1213q11 132 43 330l140 883h120l-227 -1434h-111l-493 1212q-9 -114 -41 -327l-141 -885h-121z" />
    <glyph glyph-name="O" unicode="O" horiz-adv-x="1198" 
d="M530 -23q-246 0 -357 198.5t-56 549.5q56 349 217.5 540t413.5 191q243 0 351.5 -198t53.5 -549q-57 -353 -212.5 -542.5t-410.5 -189.5zM530 92q195 0 324 160.5t176 464.5t-27.5 464t-263.5 160q-195 0 -322 -159.5t-177 -464.5q-47 -304 27.5 -464.5t262.5 -160.5z
" />
    <glyph glyph-name="P" unicode="P" horiz-adv-x="1067" 
d="M676 1434q95 0 175.5 -29.5t140 -85t85.5 -145.5t8 -203q-35 -224 -176.5 -336.5t-371.5 -112.5h-254l-84 -522h-121l227 1434h371zM668 1317h-260l-107 -678h254q166 0 273.5 87t134.5 253q26 162 -55.5 250t-239.5 88z" />
    <glyph glyph-name="Q" unicode="Q" horiz-adv-x="1198" 
d="M907 -100l-90 157q-129 -80 -287 -80q-246 0 -357 198.5t-56 549.5q56 349 217.5 540t413.5 191q243 0 351.5 -198t53.5 -549q-64 -395 -244 -578l97 -168zM530 92q125 0 228 70l-150 260l99 63l137 -239q136 157 186 471q47 304 -27.5 464t-263.5 160
q-195 0 -322 -159.5t-177 -464.5q-47 -304 27.5 -464.5t262.5 -160.5z" />
    <glyph glyph-name="R" unicode="R" horiz-adv-x="1122" 
d="M78 0l227 1434h424q89 0 164.5 -28t130 -81t78.5 -137.5t8 -188.5q-25 -158 -122 -263t-253 -140l277 -596h-131l-267 580h-34h-289l-92 -580h-121zM311 694h295q148 0 253 82t128 232q24 148 -49 228.5t-217 80.5h-313z" />
    <glyph glyph-name="S" unicode="S" horiz-adv-x="964" 
d="M406 -23q-118 0 -209 23.5t-172 77.5l20 117q82 -55 166.5 -79t191.5 -24q150 0 248.5 66t118.5 184q12 77 -18.5 137t-88 100.5t-129.5 76.5t-143 76t-127.5 88t-84.5 123t-13 171q18 114 89.5 193.5t169 114t214.5 34.5q186 0 332 -94l-19 -115q-140 94 -311 94
q-146 0 -241 -59.5t-113 -173.5q-9 -58 8 -107t54 -84.5t86.5 -67.5t105 -61t111.5 -59.5t104.5 -69t83.5 -83.5t50 -108t3 -138q-19 -118 -88.5 -198.5t-170.5 -117.5t-228 -37z" />
    <glyph glyph-name="T" unicode="T" horiz-adv-x="960" 
d="M340 0l209 1317h-397l18 117h915l-18 -117h-397l-209 -1317h-121z" />
    <glyph glyph-name="U" unicode="U" horiz-adv-x="1193" 
d="M522 -23q-97 0 -173.5 26t-132.5 79.5t-78 143t-3 208.5l158 1000h121l-158 -1002q-55 -340 272 -340q163 0 265 85.5t129 262.5l157 994h121l-160 -1008q-19 -122 -66 -210.5t-117.5 -139.5t-153 -75t-181.5 -24z" />
    <glyph glyph-name="V" unicode="V" horiz-adv-x="1091" 
d="M397 0l-237 1434h119l180 -1125q16 -106 22 -172q50 133 68 172l541 1125h135l-693 -1434h-135z" />
    <glyph glyph-name="W" unicode="W" horiz-adv-x="1613" 
d="M281 0l-109 1434h121l82 -1248l532 1221h78l143 -1221l480 1248h129l-563 -1434h-125l-138 1151l-503 -1151h-127z" />
    <glyph glyph-name="X" unicode="X" 
d="M-78 0l582 748l-322 686h119l277 -588l458 588h138l-543 -701l342 -733h-121l-297 635l-494 -635h-139z" />
    <glyph glyph-name="Y" unicode="Y" horiz-adv-x="1069" 
d="M391 0l98 610l-331 824h118l285 -711l500 711h141l-592 -824l-98 -610h-121z" />
    <glyph glyph-name="Z" unicode="Z" horiz-adv-x="927" 
d="M-41 0l16 106l881 1211h-661l20 117h805l-14 -107l-883 -1210h706l-18 -117h-852z" />
    <glyph glyph-name="bracketleft" unicode="[" horiz-adv-x="536" 
d="M18 -328l299 1884h340l-20 -116h-217l-264 -1651h219l-17 -117h-340z" />
    <glyph glyph-name="backslash" unicode="\" horiz-adv-x="671" 
d="M446 -119l-231 1671h82l229 -1671h-80z" />
    <glyph glyph-name="bracketright" unicode="]" horiz-adv-x="536" 
d="M557 1556l-299 -1884h-340l21 117h217l264 1651h-219l16 116h340z" />
    <glyph glyph-name="asciicircum" unicode="^" horiz-adv-x="884" 
d="M115 784l430 650h102l225 -650h-118l-172 510l-336 -510h-131z" />
    <glyph glyph-name="underscore" unicode="_" horiz-adv-x="772" 
d="M-123 -287l17 111h772l-19 -111h-770z" />
    <glyph glyph-name="grave" unicode="`" horiz-adv-x="444" 
d="M442 1583l-163 277h131l147 -277h-115z" />
    <glyph glyph-name="a" unicode="a" horiz-adv-x="972" 
d="M379 -23q-121 0 -198.5 70.5t-102.5 187t-2 265.5q17 109 53.5 199.5t91.5 160t132 108t169 38.5q105 0 173.5 -51t99.5 -136l24 164h107l-156 -983h-106l26 156q-122 -179 -311 -179zM397 84q189 0 303 211l64 397q-22 98 -81.5 152.5t-143.5 54.5q-141 0 -228 -109
t-118 -298q-29 -186 21.5 -297t182.5 -111z" />
    <glyph glyph-name="b" unicode="b" horiz-adv-x="972" 
d="M446 -23q-105 0 -171 52t-97 135l-24 -164h-107l227 1434h117l-94 -588q50 70 126 115t175 45q120 0 196.5 -70t101.5 -187.5t1 -265.5q-23 -147 -78 -258t-151 -179.5t-222 -68.5zM436 84q141 0 227 109.5t117 300.5q29 186 -20.5 295.5t-184.5 109.5q-184 0 -303 -213
l-63 -395q51 -207 227 -207z" />
    <glyph glyph-name="c" unicode="c" horiz-adv-x="778" 
d="M430 -23q-201 0 -297 142.5t-59 380.5q37 233 170 369.5t331 136.5q122 0 211 -56l-16 -104q-76 53 -186 53q-155 0 -257.5 -109t-133.5 -298q-28 -190 34.5 -298t212.5 -108q124 0 228 55l-17 -112q-102 -52 -221 -52z" />
    <glyph glyph-name="d" unicode="d" horiz-adv-x="972" 
d="M381 -23q-123 0 -201 70.5t-102.5 187t-1.5 265.5q17 109 53.5 199.5t91 160t131.5 108t168 38.5q104 0 171 -48.5t95 -121.5l95 598h116l-227 -1434h-106l24 156q-113 -179 -307 -179zM397 84q185 0 303 211l64 397q-22 97 -82.5 152t-149.5 55q-135 0 -222 -108.5
t-117 -298.5q-16 -87 -10.5 -162t28 -129.5t70 -85.5t116.5 -31z" />
    <glyph glyph-name="e" unicode="e" horiz-adv-x="897" 
d="M459 -23q-220 0 -321 141t-64 382q37 233 165.5 369.5t309.5 136.5q128 0 206.5 -76t93 -203t-25.5 -293h-639q-13 -176 61 -262t224 -86q134 0 250 55l-19 -112q-112 -52 -241 -52zM201 537h528q31 166 -15.5 262t-168.5 96q-63 0 -117.5 -25.5t-91 -63t-65.5 -88
t-44.5 -94t-25.5 -87.5z" />
    <glyph glyph-name="f" unicode="f" horiz-adv-x="557" 
d="M92 0l139 879h-143l16 104h144l28 184q24 143 106.5 216t201.5 73q93 0 159 -37l-16 -102q-58 33 -127 33q-82 0 -138 -46.5t-69 -136.5l-28 -184h253l-16 -104h-254l-139 -879h-117z" />
    <glyph glyph-name="g" unicode="g" horiz-adv-x="970" 
d="M270 -473q-152 0 -254 55l19 107q99 -54 235 -54q159 0 255.5 84.5t121.5 237.5l29 184q-110 -164 -297 -164q-121 0 -198 70t-102.5 187.5t-2.5 265.5q36 225 152.5 365.5t297.5 140.5q198 0 269 -189l24 166h107l-164 -1034q-33 -196 -154 -309t-338 -113zM397 84
q183 0 303 209l64 399q-20 98 -79 152.5t-146 54.5q-136 0 -225 -110.5t-119 -299.5q-17 -120 -4.5 -210t65.5 -142.5t141 -52.5z" />
    <glyph glyph-name="h" unicode="h" horiz-adv-x="946" 
d="M47 0l227 1434h117l-92 -576q112 148 301 148q133 0 206.5 -94.5t49.5 -247.5l-104 -664h-117l104 666q19 117 -28.5 175t-143.5 58q-91 0 -170.5 -62t-124.5 -151l-108 -686h-117z" />
    <glyph glyph-name="i" unicode="i" horiz-adv-x="376" 
d="M307 1204q-36 0 -56.5 22t-14.5 62q6 34 29 53t54 19q35 0 56.5 -23.5t17.5 -62.5q-6 -35 -30 -52.5t-56 -17.5zM53 0l156 983h115l-156 -983h-115z" />
    <glyph glyph-name="j" unicode="j" horiz-adv-x="387" 
d="M317 1204q-36 0 -57 22.5t-14 61.5q4 34 28.5 53t55.5 19q36 0 57.5 -23.5t15.5 -62.5q-6 -35 -30 -52.5t-56 -17.5zM-109 -473q-75 0 -122 18l16 105q43 -17 90 -17q132 0 158 174l186 1176h117l-193 -1208q-41 -248 -252 -248z" />
    <glyph glyph-name="k" unicode="k" horiz-adv-x="849" 
d="M47 0l227 1434h117l-139 -877h149l365 426h143l-413 -487l274 -496h-133l-244 449h-157l-72 -449h-117z" />
    <glyph glyph-name="l" unicode="l" horiz-adv-x="376" 
d="M406 1495l-238 -1495h-115l238 1495h115z" />
    <glyph glyph-name="m" unicode="m" horiz-adv-x="1437" 
d="M47 0l156 983h106l-20 -127q116 150 280 150q86 0 143 -41.5t79 -114.5q132 156 307 156q140 0 208 -94t44 -242l-107 -670h-117l107 672q19 112 -21 169.5t-133 57.5q-148 0 -264 -180q0 -22 -6 -49l-107 -670h-114l106 672q17 112 -20.5 169.5t-126.5 57.5
q-82 0 -151 -50t-120 -134l-112 -715h-117z" />
    <glyph glyph-name="n" unicode="n" horiz-adv-x="946" 
d="M47 0l156 983h106l-22 -137q53 74 133.5 117t179.5 43q134 0 207 -94.5t49 -247.5l-104 -664h-117l104 666q19 116 -29 174.5t-141 58.5t-172.5 -62t-124.5 -151l-108 -686h-117z" />
    <glyph glyph-name="o" unicode="o" horiz-adv-x="948" 
d="M545 1006q189 0 277 -138t50 -385q-39 -242 -157.5 -374t-311.5 -132q-190 0 -277.5 138.5t-49.5 384.5q39 239 161 372.5t308 133.5zM545 899q-138 0 -229 -107.5t-123 -308.5q-31 -192 23.5 -294.5t186.5 -102.5q140 0 231 106.5t122 307.5q31 192 -25 295.5
t-186 103.5z" />
    <glyph glyph-name="p" unicode="p" horiz-adv-x="972" 
d="M592 1006q123 0 201 -70.5t102.5 -187t1.5 -265.5q-17 -109 -53.5 -199.5t-91 -160t-131.5 -108t-168 -38.5q-104 0 -171.5 48.5t-95.5 121.5l-94 -598h-117l228 1434h106l-24 -156q113 179 307 179zM575 899q-185 0 -303 -211l-63 -397q22 -98 82 -152.5t149 -54.5
q135 0 222.5 109t117.5 299q29 184 -20.5 295.5t-184.5 111.5z" />
    <glyph glyph-name="q" unicode="q" horiz-adv-x="972" 
d="M526 1006q105 0 171.5 -52t97.5 -135l24 164h107l-228 -1434h-116l94 588q-50 -70 -126 -115t-175 -45q-120 0 -196.5 70t-101.5 187.5t-1 265.5q17 109 53 199.5t91 160t133 108t173 38.5zM537 899q-141 0 -227 -109.5t-117 -300.5q-29 -186 20 -295.5t184 -109.5
q184 0 303 213l64 395q-51 207 -227 207z" />
    <glyph glyph-name="r" unicode="r" horiz-adv-x="606" 
d="M47 0l156 983h106l-30 -186q118 217 387 207l-21 -117q-125 9 -225 -63t-160 -228l-96 -596h-117z" />
    <glyph glyph-name="s" unicode="s" horiz-adv-x="772" 
d="M465 1006q152 0 266 -68l-18 -109q-106 72 -242 72q-96 0 -162.5 -39.5t-79.5 -113.5q-8 -49 15.5 -87.5t66 -64.5t95.5 -50t105 -51.5t93.5 -61.5t62 -88.5t9.5 -123.5q-14 -85 -69 -141.5t-129.5 -79.5t-168.5 -23q-193 0 -303 78l19 111q113 -82 282 -82q107 0 175 38
t81 116q8 49 -15 87.5t-65.5 65t-95 51t-105 52.5t-93.5 62t-62 88t-10 122q18 115 114.5 177.5t233.5 62.5z" />
    <glyph glyph-name="t" unicode="t" horiz-adv-x="591" 
d="M340 -23q-115 -2 -174 66t-37 203l100 633h-147l14 104h150l43 264l121 27l-48 -291h271l-15 -104h-272l-100 -623q-13 -90 15 -131t97 -41q66 2 142 33l-17 -111q-73 -29 -143 -29z" />
    <glyph glyph-name="u" unicode="u" horiz-adv-x="946" 
d="M899 983l-156 -983h-106l22 137q-53 -74 -133.5 -117t-179.5 -43q-134 0 -207 94.5t-49 247.5l105 664h116l-104 -666q-19 -116 29 -174.5t141 -58.5t172.5 62t124.5 151l108 686h117z" />
    <glyph glyph-name="v" unicode="v" horiz-adv-x="860" 
d="M291 0l-189 983h119l129 -721q15 -99 17 -139q25 76 57 139l356 721h133l-499 -983h-123z" />
    <glyph glyph-name="w" unicode="w" horiz-adv-x="1306" 
d="M225 0l-119 983h115l84 -823l367 809h100l111 -805l340 819h131l-428 -983h-119l-107 788l-356 -788h-119z" />
    <glyph glyph-name="x" unicode="x" horiz-adv-x="833" 
d="M-66 0l422 510l-241 473h116l181 -352q9 -16 16 -33q3 5 23 33l282 352h146l-396 -479l258 -504h-123l-186 373q-7 13 -20 49q-12 -21 -33 -45l-307 -377h-138z" />
    <glyph glyph-name="y" unicode="y" horiz-adv-x="882" 
d="M801 983h133l-557 -1139q-91 -190 -195 -256q-90 -56 -213 -39l17 105q79 -11 143 31q44 30 81 88t120 223l-236 987h119l190 -840z" />
    <glyph glyph-name="z" unicode="z" horiz-adv-x="753" 
d="M-33 0l17 100l626 779h-479l16 104h619l-16 -100l-627 -779h524l-16 -104h-664z" />
    <glyph glyph-name="braceleft" unicode="{" horiz-adv-x="530" 
d="M346 -330q-139 -23 -200 36.5t-42 184.5l80 508q8 51 0.5 84t-30.5 48.5t-48 20.5t-61 5l18 115q29 0 50.5 2.5t46 12.5t42 27.5t31.5 49t21 74.5l82 508q40 263 307 208l-16 -114q-85 17 -126 -19.5t-55 -130.5l-69 -454q-32 -194 -156 -224q114 -43 84 -227l-76 -471
q-12 -83 16 -111.5t117 -15.5z" />
    <glyph glyph-name="bar" unicode="|" horiz-adv-x="417" 
d="M39 -205l295 1864h121l-295 -1864h-121z" />
    <glyph glyph-name="braceright" unicode="}" horiz-adv-x="530" 
d="M223 1559q139 23 200 -37t42 -185l-80 -508q-8 -51 -0.5 -84t30.5 -48t47.5 -20t61.5 -5l-18 -115q-29 0 -50.5 -2.5t-46 -12.5t-42 -27.5t-31.5 -49t-21 -74.5l-82 -508q-40 -264 -307 -209l17 115q85 -17 125.5 19.5t54.5 130.5l70 454q32 193 155 223q-114 43 -84 228
l76 471q12 83 -16 111.5t-117 15.5z" />
    <glyph glyph-name="asciitilde" unicode="~" horiz-adv-x="905" 
d="M655 602q-50 0 -111.5 30t-118 59.5t-93.5 29.5q-41 0 -66 -28.5t-33 -80.5h-94q7 104 57 160.5t128 56.5q53 0 113.5 -29.5t115.5 -59t94 -29.5q83 0 98 106h95q-6 -101 -55.5 -158t-129.5 -57z" />
    <glyph glyph-name="exclamdown" unicode="&#xa1;" horiz-adv-x="380" 
d="M264 999q36 0 57.5 -24.5t14.5 -65.5q-4 -35 -28.5 -54t-57.5 -19q-36 0 -58 24.5t-16 65.5q6 35 30.5 54t57.5 19zM258 596l-158 -1047h-120l176 1047h102z" />
    <glyph glyph-name="cent" unicode="&#xa2;" horiz-adv-x="811" 
d="M324 -225l32 211q-164 28 -237 164.5t-39 349.5q34 214 149 346.5t289 154.5l33 207h102l-32 -204q101 -6 172 -54l-17 -104q-79 53 -186 53q-155 0 -257.5 -109t-133.5 -298q-30 -190 33 -298t214 -108q124 0 228 55l-19 -112q-88 -46 -198 -52l-31 -202h-102z" />
    <glyph glyph-name="sterling" unicode="&#xa3;" horiz-adv-x="999" 
d="M-12 0l18 117h37q66 0 109 49.5t57 136.5q23 132 51 315h-143l18 115h141l46 277q16 105 57 184t99.5 126.5t128.5 71t151 23.5q152 0 256 -78l-21 -110q-49 40 -100.5 58t-124.5 18q-135 0 -218.5 -80t-107.5 -224l-43 -266h451l-19 -115h-450l-51 -323
q-20 -135 -101 -178h652l-19 -117h-874z" />
    <glyph glyph-name="currency" unicode="&#xa4;" horiz-adv-x="1009" 
d="M150 274l-72 68l147 141q-47 95 -26 242q25 144 102 240l-98 135l86 53l86 -119q99 74 221 74q124 0 199 -78l135 129l74 -67l-150 -142q48 -97 27 -241q-24 -140 -101 -236l101 -139l-86 -53l-88 120q-96 -75 -224 -75q-124 0 -198 77zM489 434q107 0 181 77.5t96 213.5
q20 129 -26 201.5t-150 72.5q-108 0 -181.5 -77t-95.5 -213q-20 -129 26.5 -202t149.5 -73z" />
    <glyph glyph-name="yen" unicode="&#xa5;" horiz-adv-x="1077" 
d="M1167 1393l-526 -744h268l-14 -102h-289l-24 -152h288l-16 -102h-289l-47 -293h-121l47 293h-286l16 102h287l22 152h-284l14 102h268l-288 744h126l248 -670l457 670h143z" />
    <glyph glyph-name="brokenbar" unicode="&#xa6;" horiz-adv-x="413" 
d="M217 940l113 719h123l-113 -719h-123zM35 -205l115 719h122l-114 -719h-123z" />
    <glyph glyph-name="section" unicode="&#xa7;" horiz-adv-x="897" 
d="M354 -70q-183 0 -313 84l16 105q133 -86 295 -86q110 0 186 41t87 125q7 42 -2.5 72t-51.5 57t-66 38t-101 40q-6 3 -9 4q-308 106 -274 319q21 145 209 252q-122 82 -103 225q21 122 125.5 186t247.5 64q146 0 277 -72l-17 -106q-118 76 -258 76q-104 0 -175 -42.5
t-83 -121.5q-6 -42 3.5 -72.5t44 -55t62 -37t89.5 -36.5q33 -13 51 -20q49 -19 85.5 -36.5t75.5 -45.5t62.5 -59t35 -74.5t3.5 -94.5q-11 -84 -67 -144t-150 -109q124 -81 100 -220q-14 -87 -73 -146.5t-138 -84.5t-174 -25zM549 461q83 39 133.5 86t62.5 123q10 72 -38 117
t-154 85q-11 4 -135 52q-168 -74 -185 -199q-6 -45 7 -80t46.5 -61t65.5 -42.5t82 -35.5q17 -6 115 -45z" />
    <glyph glyph-name="dieresis" unicode="&#xa8;" horiz-adv-x="630" 
d="M332 1628q-37 0 -59.5 27.5t-16.5 64.5q5 31 31.5 54.5t58.5 23.5q38 0 61 -28t17 -64q-6 -33 -32.5 -55.5t-59.5 -22.5zM670 1628q-37 0 -60.5 27.5t-17.5 64.5q6 31 33 54.5t59 23.5q38 0 61 -28t17 -64q-6 -32 -33 -55t-59 -23z" />
    <glyph glyph-name="copyright" unicode="&#xa9;" horiz-adv-x="1411" 
d="M629 -23q-281 0 -422 204t-86 544q34 220 139 386.5t258.5 255.5t333.5 89q281 0 423 -203.5t87 -543.5q-52 -333 -253.5 -532.5t-479.5 -199.5zM629 25q260 0 447.5 189.5t234.5 502.5q51 316 -74 504t-385 188q-258 0 -445.5 -189.5t-236.5 -502.5q-51 -316 74 -504
t385 -188zM739 303q-164 0 -239.5 114t-44.5 308q29 186 136.5 295.5t262.5 109.5q103 0 168 -40l-14 -84q-58 34 -146 34q-120 0 -203 -86.5t-108 -238.5q-25 -151 26 -235.5t171 -84.5q96 0 178 37l-15 -90q-70 -39 -172 -39z" />
    <glyph glyph-name="guillemotleft" unicode="&#xab;" horiz-adv-x="800" 
d="M221 129l-151 350v25l264 350h131l-281 -369l156 -356h-119zM532 129l-153 350v25l264 350h131l-278 -369l153 -356h-117z" />
    <glyph glyph-name="logicalnot" unicode="&#xac;" horiz-adv-x="952" 
d="M719 516l45 291h-621l19 111h737l-63 -402h-117z" />
    <glyph glyph-name="registered" unicode="&#xae;" horiz-adv-x="1411" 
d="M852 1456q281 0 423 -203.5t87 -543.5q-52 -333 -253.5 -532.5t-479.5 -199.5q-281 0 -422 204t-86 544q34 220 139 386.5t258.5 255.5t333.5 89zM1311 717q51 316 -74 504t-385 188q-258 0 -445.5 -189.5t-236.5 -502.5q-51 -316 74 -504t385 -188t447.5 189.5
t234.5 502.5zM848 1120q108 0 168 -71t41 -179q-12 -89 -63.5 -149t-135.5 -82l148 -324h-93l-139 312h-166l-49 -312h-88l127 805h250zM973 881q10 73 -26.5 114t-110.5 41h-164l-51 -323h165q74 0 124 44.5t63 123.5z" />
    <glyph glyph-name="macron" unicode="&#xaf;" horiz-adv-x="628" 
d="M764 1735l-16 -107h-506l16 107h506z" />
    <glyph glyph-name="degree" unicode="&#xb0;" horiz-adv-x="694" 
d="M418 905q-122 0 -189 81t-47 204q19 117 105.5 191.5t206.5 74.5t186 -79t47 -201q-19 -118 -105 -194.5t-204 -76.5zM422 993q88 0 146.5 52.5t72.5 142.5q12 79 -30.5 130.5t-121.5 51.5q-88 0 -147.5 -52.5t-73.5 -139.5q-12 -80 30.5 -132.5t123.5 -52.5z" />
    <glyph glyph-name="plusminus" unicode="&#xb1;" horiz-adv-x="976" 
d="M432 485l49 308h-307l16 108h308l47 307h110l-47 -307h307l-18 -108h-305l-49 -308h-111zM84 229l16 109h725l-18 -109h-723z" />
    <glyph glyph-name="acute" unicode="&#xb4;" horiz-adv-x="448" 
d="M236 1583l219 277h149l-248 -277h-120z" />
    <glyph glyph-name="paragraph" unicode="&#xb6;" horiz-adv-x="1091" 
d="M260 -451l168 1039q-159 0 -243 116t-52 314q30 195 145 305.5t279 110.5h510l-299 -1885h-121l279 1768h-264l-281 -1768h-121z" />
    <glyph glyph-name="periodcentered" unicode="&#xb7;" horiz-adv-x="372" 
d="M180 410q-37 0 -59 24t-15 64q6 35 31 54t56 19q36 0 57.5 -24t15.5 -64q-6 -35 -30.5 -54t-55.5 -19z" />
    <glyph glyph-name="cedilla" unicode="&#xb8;" horiz-adv-x="499" 
d="M219 0l-51 -143q43 1 77.5 -13.5t55.5 -50.5t14 -90q-13 -85 -81.5 -130.5t-163.5 -45.5q-89 0 -158 27l16 94q64 -27 135 -27q65 0 105 24.5t47 69.5q7 51 -48.5 67.5t-129.5 -3.5l82 221h100z" />
    <glyph glyph-name="guillemotright" unicode="&#xbb;" horiz-adv-x="800" 
d="M268 854l154 -350v-25l-264 -350h-131l278 369l-153 356h116zM580 854l151 -350v-25l-264 -350h-131l280 369l-155 356h119z" />
    <glyph glyph-name="onequarter" unicode="&#xbc;" horiz-adv-x="1363" 
d="M145 -25l961 1481h61l-958 -1481h-64zM59 608l17 97h176l98 618l-168 -72l15 97l200 86h72l-117 -729h158l-16 -97h-435zM1036 0l27 166h-406l15 88l483 571h113l-90 -565h116l-14 -94h-117l-26 -166h-101zM788 260h289l66 410z" />
    <glyph glyph-name="onehalf" unicode="&#xbd;" horiz-adv-x="1339" 
d="M145 -25l961 1481h61l-958 -1481h-64zM59 608l17 97h176l98 618l-168 -72l15 97l200 86h72l-117 -729h158l-16 -97h-435zM1090 848q107 0 168.5 -65.5t44.5 -168.5q-6 -38 -23.5 -73.5t-36 -59.5t-55 -55t-57 -46t-64.5 -46q-5 -4 -42 -29.5t-45.5 -32.5t-37.5 -29
t-38.5 -34t-27 -32.5t-25 -40t-11.5 -40.5h385l-17 -96h-493l10 66q6 39 20.5 74.5t28.5 62t41.5 56t44 45.5t53 42.5t51 36t54.5 35.5q83 51 128 97.5t56 113.5q9 57 -25.5 90t-103.5 33q-112 0 -231 -68l16 102q107 62 232 62z" />
    <glyph glyph-name="threequarters" unicode="&#xbe;" horiz-adv-x="1478" 
d="M301 586q-133 0 -225 45l14 92q87 -43 205 -43q90 0 154 42t75 124q11 73 -36 107t-128 34h-86l15 98h80q77 0 125 39t57 103q10 63 -32 98t-120 35q-100 0 -204 -49l16 100q91 45 207 45t182 -64.5t49 -168.5q-11 -64 -52.5 -115.5t-102.5 -71.5q61 -17 98.5 -71
t25.5 -144q-17 -114 -104 -174.5t-213 -60.5zM262 -25l961 1481h61l-958 -1481h-64zM1153 0l27 166h-406l14 88l484 571h112l-90 -565h117l-14 -94h-117l-27 -166h-100zM905 260h289l66 410z" />
    <glyph glyph-name="questiondown" unicode="&#xbf;" horiz-adv-x="819" 
d="M524 1004q37 0 58.5 -25t15.5 -66q-6 -35 -30.5 -54t-55.5 -19q-37 0 -59 24.5t-15 65.5q6 35 30.5 54.5t55.5 19.5zM516 561q-14 -87 -57.5 -167.5t-97.5 -142t-108 -121t-96.5 -129.5t-54.5 -142q-14 -94 41.5 -153.5t167.5 -59.5q187 0 346 121l-20 -129
q-157 -107 -346 -107q-156 0 -244.5 94.5t-66.5 231.5q11 72 45 140t76 119t91 107.5t91 104.5t75 109.5t43 123.5h115z" />
    <glyph glyph-name="Agrave" unicode="&#xc0;" horiz-adv-x="1118" 
d="M707 1583l-164 277h131l147 -277h-114zM-63 0l708 1434h133l254 -1434h-121l-65 383h-592l-191 -383h-126zM307 496h520l-110 632q-4 24 -8 51.5t-8 61t-7 53.5q-40 -93 -76 -170z" />
    <glyph glyph-name="Aacute" unicode="&#xc1;" horiz-adv-x="1118" 
d="M629 1583l221 277h147l-245 -277h-123zM-63 0l708 1434h133l254 -1434h-121l-65 383h-592l-191 -383h-126zM307 496h520l-110 632q-4 24 -8 51.5t-8 61t-7 53.5q-40 -93 -76 -170z" />
    <glyph glyph-name="Acircumflex" unicode="&#xc2;" horiz-adv-x="1118" 
d="M827 1849l172 -264h-122l-111 164l-164 -164h-133l256 264h102zM-63 0l708 1434h133l254 -1434h-121l-65 383h-592l-191 -383h-126zM307 496h520l-110 632q-4 24 -8 51.5t-8 61t-7 53.5q-40 -93 -76 -170z" />
    <glyph glyph-name="Atilde" unicode="&#xc3;" horiz-adv-x="1118" 
d="M862 1585q-45 0 -89.5 23.5t-81 47t-60.5 23.5q-58 0 -68 -84h-88q4 89 47.5 138t108.5 49q47 0 92.5 -23t81 -46t57.5 -23q56 0 66 84h86q-4 -91 -46 -140t-106 -49zM-63 0l708 1434h133l254 -1434h-121l-65 383h-592l-191 -383h-126zM307 496h520l-110 632
q-4 24 -8 51.5t-8 61t-7 53.5q-40 -93 -76 -170z" />
    <glyph glyph-name="Adieresis" unicode="&#xc4;" horiz-adv-x="1118" 
d="M578 1628q-37 0 -59.5 27.5t-16.5 64.5q5 31 31.5 54.5t58.5 23.5q38 0 61 -28t17 -64q-6 -33 -32.5 -55.5t-59.5 -22.5zM915 1628q-37 0 -60 27.5t-17 64.5q6 31 33 54.5t59 23.5q38 0 61 -28t17 -64q-6 -32 -33.5 -55t-59.5 -23zM-63 0l708 1434h133l254 -1434h-121
l-65 383h-592l-191 -383h-126zM307 496h520l-110 632q-4 24 -8 51.5t-8 61t-7 53.5q-40 -93 -76 -170z" />
    <glyph glyph-name="Aring" unicode="&#xc5;" horiz-adv-x="1118" 
d="M733 1534q-89 0 -139 57.5t-35 151.5q15 89 76.5 141.5t148.5 52.5q89 0 138 -57t34 -151q-13 -87 -75.5 -141t-147.5 -54zM737 1616q51 0 86.5 34t44.5 91q9 51 -16.5 82.5t-71.5 31.5q-53 0 -88.5 -33t-44.5 -91q-7 -52 18.5 -83.5t71.5 -31.5zM-63 0l708 1434h133
l254 -1434h-121l-65 383h-592l-191 -383h-126zM307 496h520l-110 632q-4 24 -8 51.5t-8 61t-7 53.5q-40 -93 -76 -170z" />
    <glyph glyph-name="AE" unicode="&#xc6;" horiz-adv-x="1495" 
d="M-90 0l950 1434h707l-19 -117h-549l-86 -537h488l-17 -116h-487l-88 -547h561l-18 -117h-682l61 389h-428l-258 -389h-135zM375 500h375l116 737z" />
    <glyph glyph-name="Ccedilla" unicode="&#xc7;" horiz-adv-x="972" 
d="M805 1341q-211 0 -365 -162.5t-204 -465.5q-49 -294 45.5 -457.5t296.5 -163.5q150 0 294 72l-20 -119q-133 -68 -283 -68l-43 -120q69 2 113.5 -36.5t34.5 -117.5q-11 -85 -81 -130.5t-165 -45.5q-87 0 -156 27l15 94q65 -27 137 -27q64 0 103.5 24.5t45.5 69.5
q7 51 -47.5 67.5t-128.5 -3.5l76 207q-208 37 -310 227.5t-50 507.5q29 173 94 313t154.5 232t200 141t231.5 49q153 0 262 -74l-19 -106q-95 65 -231 65z" />
    <glyph glyph-name="Egrave" unicode="&#xc8;" horiz-adv-x="970" 
d="M670 1583l-164 277h131l147 -277h-114zM78 0l227 1434h735l-18 -117h-612l-86 -537h553l-19 -116h-553l-86 -547h629l-19 -117h-751z" />
    <glyph glyph-name="Eacute" unicode="&#xc9;" horiz-adv-x="970" 
d="M592 1583l221 277h148l-246 -277h-123zM78 0l227 1434h735l-18 -117h-612l-86 -537h553l-19 -116h-553l-86 -547h629l-19 -117h-751z" />
    <glyph glyph-name="Ecircumflex" unicode="&#xca;" horiz-adv-x="970" 
d="M788 1849l173 -264h-123l-111 164l-164 -164h-133l256 264h102zM78 0l227 1434h735l-18 -117h-612l-86 -537h553l-19 -116h-553l-86 -547h629l-19 -117h-751z" />
    <glyph glyph-name="Edieresis" unicode="&#xcb;" horiz-adv-x="970" 
d="M539 1628q-37 0 -59.5 27.5t-16.5 64.5q5 31 31.5 54.5t58.5 23.5q38 0 61 -28t17 -64q-6 -33 -32.5 -55.5t-59.5 -22.5zM877 1628q-37 0 -60.5 27.5t-17.5 64.5q6 31 33 54.5t59 23.5q38 0 61 -28t17 -64q-6 -32 -33 -55t-59 -23zM78 0l227 1434h735l-18 -117h-612
l-86 -537h553l-19 -116h-553l-86 -547h629l-19 -117h-751z" />
    <glyph glyph-name="Igrave" unicode="&#xcc;" horiz-adv-x="434" 
d="M365 1583l-164 277h131l147 -277h-114zM426 1434l-227 -1434h-121l227 1434h121z" />
    <glyph glyph-name="Iacute" unicode="&#xcd;" horiz-adv-x="434" 
d="M285 1583l221 277h147l-245 -277h-123zM426 1434l-227 -1434h-121l227 1434h121z" />
    <glyph glyph-name="Icircumflex" unicode="&#xce;" horiz-adv-x="434" 
d="M483 1849l172 -264h-123l-110 164l-164 -164h-133l256 264h102zM426 1434l-227 -1434h-121l227 1434h121z" />
    <glyph glyph-name="Idieresis" unicode="&#xcf;" horiz-adv-x="434" 
d="M233 1628q-37 0 -59 27.5t-16 64.5q5 31 31.5 54.5t58.5 23.5q38 0 61 -28t17 -64q-6 -33 -33 -55.5t-60 -22.5zM571 1628q-37 0 -60 27.5t-17 64.5q6 31 33 54.5t59 23.5q38 0 61 -28t17 -64q-6 -32 -33.5 -55t-59.5 -23zM426 1434l-227 -1434h-121l227 1434h121z" />
    <glyph glyph-name="Eth" unicode="&#xd0;" horiz-adv-x="1173" 
d="M647 1434q122 0 215.5 -35.5t151.5 -99.5t92 -154t37 -200t-15 -236q-21 -129 -53.5 -232t-88.5 -194.5t-131.5 -152t-184.5 -95.5t-246 -35h-336l105 659h-144l17 111h143l106 664h332zM1006 717q47 296 -41 448t-332 152h-215l-88 -547h270l-16 -111h-271l-86 -542h211
q251 0 386 150t182 450z" />
    <glyph glyph-name="Ntilde" unicode="&#xd1;" horiz-adv-x="1220" 
d="M922 1585q-35 0 -71.5 14.5t-61 32.5t-52 32.5t-47.5 14.5q-57 0 -67 -84h-88q4 90 47 138.5t108 48.5q47 0 92.5 -23t81.5 -46t58 -23q55 0 65 84h86q-4 -91 -45.5 -140t-105.5 -49zM78 0l227 1434h111l493 -1213q11 132 43 330l140 883h120l-227 -1434h-111l-493 1212
q-9 -114 -41 -327l-141 -885h-121z" />
    <glyph glyph-name="Ograve" unicode="&#xd2;" horiz-adv-x="1198" 
d="M745 1585l-163 277h131l147 -277h-115zM530 -23q-246 0 -357 198.5t-56 549.5q56 349 217.5 540t413.5 191q243 0 351.5 -198t53.5 -549q-57 -353 -212.5 -542.5t-410.5 -189.5zM530 92q195 0 324 160.5t176 464.5t-27.5 464t-263.5 160q-195 0 -322 -159.5t-177 -464.5
q-47 -304 27.5 -464.5t262.5 -160.5z" />
    <glyph glyph-name="Oacute" unicode="&#xd3;" horiz-adv-x="1198" 
d="M668 1585l221 277h147l-245 -277h-123zM530 -23q-246 0 -357 198.5t-56 549.5q56 349 217.5 540t413.5 191q243 0 351.5 -198t53.5 -549q-57 -353 -212.5 -542.5t-410.5 -189.5zM530 92q195 0 324 160.5t176 464.5t-27.5 464t-263.5 160q-195 0 -322 -159.5t-177 -464.5
q-47 -304 27.5 -464.5t262.5 -160.5z" />
    <glyph glyph-name="Ocircumflex" unicode="&#xd4;" horiz-adv-x="1198" 
d="M864 1851l172 -264h-123l-110 164l-164 -164h-133l256 264h102zM530 -23q-246 0 -357 198.5t-56 549.5q56 349 217.5 540t413.5 191q243 0 351.5 -198t53.5 -549q-57 -353 -212.5 -542.5t-410.5 -189.5zM530 92q195 0 324 160.5t176 464.5t-27.5 464t-263.5 160
q-195 0 -322 -159.5t-177 -464.5q-47 -304 27.5 -464.5t262.5 -160.5z" />
    <glyph glyph-name="Otilde" unicode="&#xd5;" horiz-adv-x="1198" 
d="M901 1587q-45 0 -89.5 23.5t-81 47t-60.5 23.5q-58 0 -68 -84h-88q4 89 47.5 138t108.5 49q47 0 92.5 -23t81 -46t57.5 -23q56 0 66 84h86q-4 -91 -46 -140t-106 -49zM530 -23q-246 0 -357 198.5t-56 549.5q56 349 217.5 540t413.5 191q243 0 351.5 -198t53.5 -549
q-57 -353 -212.5 -542.5t-410.5 -189.5zM530 92q195 0 324 160.5t176 464.5t-27.5 464t-263.5 160q-195 0 -322 -159.5t-177 -464.5q-47 -304 27.5 -464.5t262.5 -160.5z" />
    <glyph glyph-name="Odieresis" unicode="&#xd6;" horiz-adv-x="1198" 
d="M614 1630q-37 0 -59 27.5t-16 64.5q5 31 31.5 54.5t58.5 23.5q38 0 61 -28t17 -64q-6 -33 -33 -55.5t-60 -22.5zM952 1630q-37 0 -60.5 27.5t-17.5 64.5q6 31 33.5 54.5t59.5 23.5q38 0 60.5 -28t16.5 -64q-6 -32 -33 -55t-59 -23zM530 -23q-246 0 -357 198.5t-56 549.5
q56 349 217.5 540t413.5 191q243 0 351.5 -198t53.5 -549q-57 -353 -212.5 -542.5t-410.5 -189.5zM530 92q195 0 324 160.5t176 464.5t-27.5 464t-263.5 160q-195 0 -322 -159.5t-177 -464.5q-47 -304 27.5 -464.5t262.5 -160.5z" />
    <glyph glyph-name="multiply" unicode="&#xd7;" horiz-adv-x="870" 
d="M156 377l-70 78l309 270l-225 264l78 72l227 -266l307 266l70 -78l-309 -270l225 -264l-78 -72l-227 266z" />
    <glyph glyph-name="Oslash" unicode="&#xd8;" horiz-adv-x="1198" 
d="M78 -96l133 215q-158 198 -94 606q56 349 217.5 540t413.5 191q143 0 245 -76l94 150h107l-133 -213q76 -96 99.5 -249.5t-7.5 -358.5q-57 -353 -212.5 -542.5t-410.5 -189.5q-150 0 -251 78l-95 -151h-106zM283 233l649 1045q-75 63 -193 63q-195 0 -322 -159.5
t-177 -464.5q-50 -326 43 -484zM530 92q195 0 324 160.5t176 464.5q49 324 -41 483l-649 -1044q76 -64 190 -64z" />
    <glyph glyph-name="Ugrave" unicode="&#xd9;" horiz-adv-x="1193" 
d="M735 1583l-164 277h131l148 -277h-115zM522 -23q-97 0 -173.5 26t-132.5 79.5t-78 143t-3 208.5l158 1000h121l-158 -1002q-55 -340 272 -340q163 0 265 85.5t129 262.5l157 994h121l-160 -1008q-19 -122 -66 -210.5t-117.5 -139.5t-153 -75t-181.5 -24z" />
    <glyph glyph-name="Uacute" unicode="&#xda;" horiz-adv-x="1193" 
d="M655 1583l222 277h147l-246 -277h-123zM522 -23q-97 0 -173.5 26t-132.5 79.5t-78 143t-3 208.5l158 1000h121l-158 -1002q-55 -340 272 -340q163 0 265 85.5t129 262.5l157 994h121l-160 -1008q-19 -122 -66 -210.5t-117.5 -139.5t-153 -75t-181.5 -24z" />
    <glyph glyph-name="Ucircumflex" unicode="&#xdb;" horiz-adv-x="1193" 
d="M854 1849l172 -264h-123l-110 164l-164 -164h-133l256 264h102zM522 -23q-97 0 -173.5 26t-132.5 79.5t-78 143t-3 208.5l158 1000h121l-158 -1002q-55 -340 272 -340q163 0 265 85.5t129 262.5l157 994h121l-160 -1008q-19 -122 -66 -210.5t-117.5 -139.5t-153 -75
t-181.5 -24z" />
    <glyph glyph-name="Udieresis" unicode="&#xdc;" horiz-adv-x="1193" 
d="M604 1628q-37 0 -59.5 27.5t-16.5 64.5q5 31 31.5 54.5t58.5 23.5q38 0 61 -28t17 -64q-6 -33 -32.5 -55.5t-59.5 -22.5zM942 1628q-37 0 -60.5 27.5t-17.5 64.5q6 31 33 54.5t59 23.5q38 0 61 -28t17 -64q-6 -32 -33 -55t-59 -23zM522 -23q-97 0 -173.5 26t-132.5 79.5
t-78 143t-3 208.5l158 1000h121l-158 -1002q-55 -340 272 -340q163 0 265 85.5t129 262.5l157 994h121l-160 -1008q-19 -122 -66 -210.5t-117.5 -139.5t-153 -75t-181.5 -24z" />
    <glyph glyph-name="Yacute" unicode="&#xdd;" horiz-adv-x="1069" 
d="M594 1583l221 277h148l-246 -277h-123zM391 0l98 610l-331 824h118l285 -711l500 711h141l-592 -824l-98 -610h-121z" />
    <glyph glyph-name="Thorn" unicode="&#xde;" horiz-adv-x="1058" 
d="M78 0l227 1434h121l-41 -263h248q103 0 185.5 -29t139.5 -85t80 -145t4 -203q-35 -222 -176.5 -334.5t-371.5 -112.5h-252l-43 -262h-121zM258 377h254q170 0 275 86.5t133 253.5q26 166 -51.5 253t-243.5 87h-258z" />
    <glyph glyph-name="germandbls" unicode="&#xdf;" horiz-adv-x="944" 
d="M539 -23q-100 0 -174 35l18 103q66 -31 145 -31q86 0 145.5 49.5t74.5 142.5q9 57 -9.5 117.5t-51 111t-65 98.5t-53 95.5t-14.5 85.5q5 36 29 73t55 70t62 68t56.5 81t33.5 95q13 79 -33.5 129t-134.5 50q-121 -1 -195 -76.5t-96 -208.5l-168 -1065h-117l170 1069
q29 179 132 282.5t280 104.5q148 1 221 -87t53 -202q-10 -59 -36.5 -111.5t-57.5 -88t-61 -66.5t-52 -61t-26 -56q-4 -33 17.5 -76t54.5 -90t64.5 -100t48 -122.5t5.5 -141.5q-21 -132 -111.5 -204.5t-209.5 -72.5z" />
    <glyph glyph-name="agrave" unicode="&#xe0;" horiz-adv-x="972" 
d="M551 1133l-164 276h131l148 -276h-115zM379 -23q-121 0 -198.5 70.5t-102.5 187t-2 265.5q17 109 53.5 199.5t91.5 160t132 108t169 38.5q105 0 173.5 -51t99.5 -136l24 164h107l-156 -983h-106l26 156q-122 -179 -311 -179zM397 84q189 0 303 211l64 397
q-22 98 -81.5 152.5t-143.5 54.5q-141 0 -228 -109t-118 -298q-29 -186 21.5 -297t182.5 -111z" />
    <glyph glyph-name="aacute" unicode="&#xe1;" horiz-adv-x="972" 
d="M473 1133l221 276h148l-246 -276h-123zM379 -23q-121 0 -198.5 70.5t-102.5 187t-2 265.5q17 109 53.5 199.5t91.5 160t132 108t169 38.5q105 0 173.5 -51t99.5 -136l24 164h107l-156 -983h-106l26 156q-122 -179 -311 -179zM397 84q189 0 303 211l64 397
q-22 98 -81.5 152.5t-143.5 54.5q-141 0 -228 -109t-118 -298q-29 -186 21.5 -297t182.5 -111z" />
    <glyph glyph-name="acircumflex" unicode="&#xe2;" horiz-adv-x="972" 
d="M670 1399l172 -264h-123l-111 163l-164 -163h-133l256 264h103zM379 -23q-121 0 -198.5 70.5t-102.5 187t-2 265.5q17 109 53.5 199.5t91.5 160t132 108t169 38.5q105 0 173.5 -51t99.5 -136l24 164h107l-156 -983h-106l26 156q-122 -179 -311 -179zM397 84
q189 0 303 211l64 397q-22 98 -81.5 152.5t-143.5 54.5q-141 0 -228 -109t-118 -298q-29 -186 21.5 -297t182.5 -111z" />
    <glyph glyph-name="atilde" unicode="&#xe3;" horiz-adv-x="972" 
d="M707 1135q-35 0 -71.5 14.5t-61 32.5t-52 32.5t-47.5 14.5q-57 0 -67 -84h-89q4 89 47.5 137.5t108.5 48.5q47 0 92.5 -23t81.5 -46t58 -23q55 0 65 84h86q-4 -91 -45.5 -139.5t-105.5 -48.5zM379 -23q-121 0 -198.5 70.5t-102.5 187t-2 265.5q17 109 53.5 199.5
t91.5 160t132 108t169 38.5q105 0 173.5 -51t99.5 -136l24 164h107l-156 -983h-106l26 156q-122 -179 -311 -179zM397 84q189 0 303 211l64 397q-22 98 -81.5 152.5t-143.5 54.5q-141 0 -228 -109t-118 -298q-29 -186 21.5 -297t182.5 -111z" />
    <glyph glyph-name="adieresis" unicode="&#xe4;" horiz-adv-x="972" 
d="M420 1178q-37 0 -59.5 27.5t-16.5 64.5q5 31 31.5 54.5t58.5 23.5q38 0 61 -28.5t17 -64.5q-6 -33 -32.5 -55t-59.5 -22zM758 1178q-37 0 -60.5 27.5t-17.5 64.5q6 31 33 54.5t59 23.5q38 0 61 -28.5t17 -64.5q-6 -32 -33 -54.5t-59 -22.5zM379 -23q-121 0 -198.5 70.5
t-102.5 187t-2 265.5q17 109 53.5 199.5t91.5 160t132 108t169 38.5q105 0 173.5 -51t99.5 -136l24 164h107l-156 -983h-106l26 156q-122 -179 -311 -179zM397 84q189 0 303 211l64 397q-22 98 -81.5 152.5t-143.5 54.5q-141 0 -228 -109t-118 -298q-29 -186 21.5 -297
t182.5 -111z" />
    <glyph glyph-name="aring" unicode="&#xe5;" horiz-adv-x="972" 
d="M578 1083q-89 0 -139.5 57.5t-35.5 151.5q15 89 77 142t149 53q89 0 138 -57.5t34 -151.5q-13 -87 -75.5 -141t-147.5 -54zM582 1165q51 0 86.5 34t44.5 91q9 51 -17 83t-71 32q-53 0 -88.5 -33.5t-44.5 -91.5q-7 -52 18.5 -83.5t71.5 -31.5zM379 -23q-121 0 -198.5 70.5
t-102.5 187t-2 265.5q17 109 53.5 199.5t91.5 160t132 108t169 38.5q105 0 173.5 -51t99.5 -136l24 164h107l-156 -983h-106l26 156q-122 -179 -311 -179zM397 84q189 0 303 211l64 397q-22 98 -81.5 152.5t-143.5 54.5q-141 0 -228 -109t-118 -298q-29 -186 21.5 -297
t182.5 -111z" />
    <glyph glyph-name="ae" unicode="&#xe6;" horiz-adv-x="1523" 
d="M373 -23q-121 0 -197 70.5t-99 187t1 265.5q17 109 52.5 199.5t89 160t129.5 108t167 38.5q197 0 266 -187l25 164h92l-29 -182q111 205 322 205q92 0 158 -45t96 -122.5t33 -181.5t-31 -223h-619q-33 -348 279 -348q121 0 238 53l-19 -110q-118 -52 -229 -52
q-256 0 -324 226l-31 -203h-92l27 156q-60 -87 -132.5 -133t-172.5 -46zM393 84q181 0 295 211l64 397q-22 99 -78.5 153t-141.5 54q-139 0 -222.5 -108t-114.5 -299q-29 -188 18.5 -298t179.5 -110zM846 537h512q33 167 -14 262.5t-166 95.5q-62 0 -114.5 -25.5
t-86.5 -62.5t-62 -89t-42.5 -93t-26.5 -88z" />
    <glyph glyph-name="ccedilla" unicode="&#xe7;" horiz-adv-x="778" 
d="M584 899q-155 0 -257.5 -109t-133.5 -298q-28 -190 34.5 -298t212.5 -108q124 0 228 55l-17 -112q-97 -49 -205 -52l-43 -120q69 2 113.5 -36.5t34.5 -117.5q-11 -85 -81 -130.5t-165 -45.5q-86 0 -155 27l14 94q65 -27 137 -27q64 0 104 24.5t46 69.5q7 51 -48 67.5
t-129 -3.5l76 205q-163 28 -236.5 166t-39.5 350q37 233 170 369.5t331 136.5q122 0 211 -56l-16 -104q-76 53 -186 53z" />
    <glyph glyph-name="egrave" unicode="&#xe8;" horiz-adv-x="897" 
d="M539 1133l-164 276h131l147 -276h-114zM459 -23q-220 0 -321 141t-64 382q37 233 165.5 369.5t309.5 136.5q128 0 206.5 -76t93 -203t-25.5 -293h-639q-13 -176 61 -262t224 -86q134 0 250 55l-19 -112q-112 -52 -241 -52zM201 537h528q31 166 -15.5 262t-168.5 96
q-63 0 -117.5 -25.5t-91 -63t-65.5 -88t-44.5 -94t-25.5 -87.5z" />
    <glyph glyph-name="eacute" unicode="&#xe9;" horiz-adv-x="897" 
d="M461 1133l221 276h147l-245 -276h-123zM459 -23q-220 0 -321 141t-64 382q37 233 165.5 369.5t309.5 136.5q128 0 206.5 -76t93 -203t-25.5 -293h-639q-13 -176 61 -262t224 -86q134 0 250 55l-19 -112q-112 -52 -241 -52zM201 537h528q31 166 -15.5 262t-168.5 96
q-63 0 -117.5 -25.5t-91 -63t-65.5 -88t-44.5 -94t-25.5 -87.5z" />
    <glyph glyph-name="ecircumflex" unicode="&#xea;" horiz-adv-x="897" 
d="M659 1399l172 -264h-122l-111 163l-164 -163h-133l256 264h102zM459 -23q-220 0 -321 141t-64 382q37 233 165.5 369.5t309.5 136.5q128 0 206.5 -76t93 -203t-25.5 -293h-639q-13 -176 61 -262t224 -86q134 0 250 55l-19 -112q-112 -52 -241 -52zM201 537h528
q31 166 -15.5 262t-168.5 96q-63 0 -117.5 -25.5t-91 -63t-65.5 -88t-44.5 -94t-25.5 -87.5z" />
    <glyph glyph-name="edieresis" unicode="&#xeb;" horiz-adv-x="897" 
d="M410 1178q-37 0 -59.5 27.5t-16.5 64.5q5 31 31.5 54.5t58.5 23.5q38 0 61 -28.5t17 -64.5q-6 -33 -32.5 -55t-59.5 -22zM748 1178q-37 0 -60.5 27.5t-17.5 64.5q6 31 33 54.5t59 23.5q38 0 61 -28.5t17 -64.5q-6 -32 -33 -54.5t-59 -22.5zM459 -23q-220 0 -321 141
t-64 382q37 233 165.5 369.5t309.5 136.5q128 0 206.5 -76t93 -203t-25.5 -293h-639q-13 -176 61 -262t224 -86q134 0 250 55l-19 -112q-112 -52 -241 -52zM201 537h528q31 166 -15.5 262t-168.5 96q-63 0 -117.5 -25.5t-91 -63t-65.5 -88t-44.5 -94t-25.5 -87.5z" />
    <glyph glyph-name="igrave" unicode="&#xec;" horiz-adv-x="376" 
d="M295 1133l-129 290h127l110 -290h-108zM53 0l156 983h115l-156 -983h-115z" />
    <glyph glyph-name="iacute" unicode="&#xed;" horiz-adv-x="376" 
d="M174 1133l203 290h133l-221 -290h-115zM53 0l156 983h115l-156 -983h-115z" />
    <glyph glyph-name="icircumflex" unicode="&#xee;" horiz-adv-x="376" 
d="M61 1135l218 260h104l135 -260h-119l-80 159l-126 -159h-132zM53 0l156 983h115l-156 -983h-115z" />
    <glyph glyph-name="idieresis" unicode="&#xef;" horiz-adv-x="376" 
d="M166 1184q-34 0 -55 26t-15 60q3 28 29 49.5t55 21.5q33 0 54 -26.5t16 -59.5q-5 -29 -29 -50t-55 -21zM442 1184q-34 0 -54.5 26t-14.5 60q3 28 28 49.5t54 21.5q34 0 55 -26.5t16 -59.5q-4 -29 -29.5 -50t-54.5 -21zM53 0l156 983h115l-156 -983h-115z" />
    <glyph glyph-name="eth" unicode="&#xf0;" horiz-adv-x="948" 
d="M393 -23q-179 0 -268.5 132.5t-54.5 351.5q32 200 149.5 324t290.5 124q182 0 254 -147q12 301 -119 444l-205 -178l-59 68l192 170q-95 65 -245 65l16 103q188 0 315 -95l164 144l58 -68l-154 -135q105 -115 139 -308t-6 -458q-19 -119 -57 -216t-95.5 -169.5
t-137.5 -112t-177 -39.5zM395 88q282 0 350 436q4 21 13 92q-26 88 -87.5 136.5t-150.5 48.5q-136 0 -223.5 -93.5t-112.5 -254.5q-27 -166 28 -265.5t183 -99.5z" />
    <glyph glyph-name="ntilde" unicode="&#xf1;" horiz-adv-x="946" 
d="M709 1135q-35 0 -71.5 14.5t-61 32.5t-52 32.5t-47.5 14.5q-57 0 -67 -84h-88q4 89 47 137.5t108 48.5q47 0 92.5 -23t81.5 -46t58 -23q55 0 65 84h86q-4 -91 -45.5 -139.5t-105.5 -48.5zM47 0l156 983h106l-22 -137q53 74 133.5 117t179.5 43q134 0 207 -94.5t49 -247.5
l-104 -664h-117l104 666q19 116 -29 174.5t-141 58.5t-172.5 -62t-124.5 -151l-108 -686h-117z" />
    <glyph glyph-name="ograve" unicode="&#xf2;" horiz-adv-x="948" 
d="M549 1133l-164 276h131l148 -276h-115zM545 1006q189 0 277 -138t50 -385q-39 -242 -157.5 -374t-311.5 -132q-190 0 -277.5 138.5t-49.5 384.5q39 239 161 372.5t308 133.5zM545 899q-138 0 -229 -107.5t-123 -308.5q-31 -192 23.5 -294.5t186.5 -102.5q140 0 231 106.5
t122 307.5q31 192 -25 295.5t-186 103.5z" />
    <glyph glyph-name="oacute" unicode="&#xf3;" horiz-adv-x="948" 
d="M469 1133l221 276h148l-246 -276h-123zM545 1006q189 0 277 -138t50 -385q-39 -242 -157.5 -374t-311.5 -132q-190 0 -277.5 138.5t-49.5 384.5q39 239 161 372.5t308 133.5zM545 899q-138 0 -229 -107.5t-123 -308.5q-31 -192 23.5 -294.5t186.5 -102.5q140 0 231 106.5
t122 307.5q31 192 -25 295.5t-186 103.5z" />
    <glyph glyph-name="ocircumflex" unicode="&#xf4;" horiz-adv-x="948" 
d="M668 1399l172 -264h-123l-111 163l-164 -163h-133l256 264h103zM545 1006q189 0 277 -138t50 -385q-39 -242 -157.5 -374t-311.5 -132q-190 0 -277.5 138.5t-49.5 384.5q39 239 161 372.5t308 133.5zM545 899q-138 0 -229 -107.5t-123 -308.5q-31 -192 23.5 -294.5
t186.5 -102.5q140 0 231 106.5t122 307.5q31 192 -25 295.5t-186 103.5z" />
    <glyph glyph-name="otilde" unicode="&#xf5;" horiz-adv-x="948" 
d="M702 1135q-45 0 -89.5 23.5t-81 47t-60.5 23.5q-58 0 -68 -84h-88q4 89 47.5 137.5t108.5 48.5q47 0 92.5 -23t81 -46t57.5 -23q56 0 66 84h86q-4 -91 -46 -139.5t-106 -48.5zM545 1006q189 0 277 -138t50 -385q-39 -242 -157.5 -374t-311.5 -132q-190 0 -277.5 138.5
t-49.5 384.5q39 239 161 372.5t308 133.5zM545 899q-138 0 -229 -107.5t-123 -308.5q-31 -192 23.5 -294.5t186.5 -102.5q140 0 231 106.5t122 307.5q31 192 -25 295.5t-186 103.5z" />
    <glyph glyph-name="odieresis" unicode="&#xf6;" horiz-adv-x="948" 
d="M418 1178q-37 0 -59.5 27.5t-16.5 64.5q5 31 31.5 54.5t58.5 23.5q38 0 61 -28.5t17 -64.5q-6 -33 -32.5 -55t-59.5 -22zM756 1178q-37 0 -60.5 27.5t-17.5 64.5q6 31 33 54.5t59 23.5q38 0 61 -28.5t17 -64.5q-6 -32 -33 -54.5t-59 -22.5zM545 1006q189 0 277 -138
t50 -385q-39 -242 -157.5 -374t-311.5 -132q-190 0 -277.5 138.5t-49.5 384.5q39 239 161 372.5t308 133.5zM545 899q-138 0 -229 -107.5t-123 -308.5q-31 -192 23.5 -294.5t186.5 -102.5q140 0 231 106.5t122 307.5q31 192 -25 295.5t-186 103.5z" />
    <glyph glyph-name="divide" unicode="&#xf7;" horiz-adv-x="929" 
d="M543 956q-35 0 -57.5 24t-16.5 64q6 35 30.5 54.5t55.5 19.5q37 0 58.5 -24t15.5 -64q-6 -35 -30.5 -54.5t-55.5 -19.5zM121 662l18 110h738l-19 -110h-737zM440 309q-35 0 -57 25t-16 65q6 34 30.5 54t55.5 20q37 0 58.5 -25t14.5 -65q-6 -34 -30.5 -54t-55.5 -20z" />
    <glyph glyph-name="oslash" unicode="&#xf8;" horiz-adv-x="946" 
d="M18 -115l129 195q-116 134 -71 420q39 239 161 372.5t308 133.5q111 0 188 -50l98 148h101l-133 -199q117 -138 73 -422q-39 -240 -160 -373t-309 -133q-108 0 -190 50l-94 -142h-101zM221 188l451 674q-49 37 -127 37q-138 0 -229 -107.5t-123 -308.5q-30 -194 28 -295z
M403 86q140 0 231 106.5t122 307.5t-29 297l-451 -674q49 -37 127 -37z" />
    <glyph glyph-name="ugrave" unicode="&#xf9;" horiz-adv-x="946" 
d="M539 1133l-164 276h131l147 -276h-114zM899 983l-156 -983h-106l22 137q-53 -74 -133.5 -117t-179.5 -43q-134 0 -207 94.5t-49 247.5l105 664h116l-104 -666q-19 -116 29 -174.5t141 -58.5t172.5 62t124.5 151l108 686h117z" />
    <glyph glyph-name="uacute" unicode="&#xfa;" horiz-adv-x="946" 
d="M461 1133l221 276h147l-245 -276h-123zM899 983l-156 -983h-106l22 137q-53 -74 -133.5 -117t-179.5 -43q-134 0 -207 94.5t-49 247.5l105 664h116l-104 -666q-19 -116 29 -174.5t141 -58.5t172.5 62t124.5 151l108 686h117z" />
    <glyph glyph-name="ucircumflex" unicode="&#xfb;" horiz-adv-x="946" 
d="M657 1399l172 -264h-122l-111 163l-164 -163h-133l256 264h102zM899 983l-156 -983h-106l22 137q-53 -74 -133.5 -117t-179.5 -43q-134 0 -207 94.5t-49 247.5l105 664h116l-104 -666q-19 -116 29 -174.5t141 -58.5t172.5 62t124.5 151l108 686h117z" />
    <glyph glyph-name="udieresis" unicode="&#xfc;" horiz-adv-x="946" 
d="M408 1178q-37 0 -59.5 27.5t-16.5 64.5q5 31 31.5 54.5t58.5 23.5q38 0 61 -28.5t17 -64.5q-6 -33 -32.5 -55t-59.5 -22zM745 1178q-37 0 -60 27.5t-17 64.5q6 31 33 54.5t59 23.5q38 0 61 -28.5t17 -64.5q-6 -32 -33.5 -54.5t-59.5 -22.5zM899 983l-156 -983h-106
l22 137q-53 -74 -133.5 -117t-179.5 -43q-134 0 -207 94.5t-49 247.5l105 664h116l-104 -666q-19 -116 29 -174.5t141 -58.5t172.5 62t124.5 151l108 686h117z" />
    <glyph glyph-name="yacute" unicode="&#xfd;" horiz-adv-x="882" 
d="M418 1133l221 276h147l-245 -276h-123zM801 983h133l-557 -1139q-91 -190 -195 -256q-90 -56 -213 -39l17 105q79 -11 143 31q44 30 81 88t120 223l-236 987h119l190 -840z" />
    <glyph glyph-name="thorn" unicode="&#xfe;" horiz-adv-x="972" 
d="M-25 -451l299 1885h117l-94 -588q46 69 123.5 114.5t177.5 45.5q120 0 196.5 -70t101.5 -187.5t1 -265.5q-23 -147 -78 -258t-151 -179.5t-222 -68.5q-103 0 -167 48.5t-93 121.5l-94 -598h-117zM436 84q141 0 227 109t117 299q18 121 6 211.5t-66 143t-145 52.5
q-183 0 -303 -211l-63 -397q23 -97 80 -152t147 -55z" />
    <glyph glyph-name="ydieresis" unicode="&#xff;" horiz-adv-x="882" 
d="M365 1178q-37 0 -59.5 27.5t-16.5 64.5q5 31 31.5 54.5t58.5 23.5q38 0 61 -28.5t17 -64.5q-6 -33 -32.5 -55t-59.5 -22zM702 1178q-37 0 -60 27.5t-17 64.5q6 31 33 54.5t59 23.5q38 0 61 -28.5t17 -64.5q-6 -32 -33.5 -54.5t-59.5 -22.5zM801 983h133l-557 -1139
q-91 -190 -195 -256q-90 -56 -213 -39l17 105q79 -11 143 31q44 30 81 88t120 223l-236 987h119l190 -840z" />
    <glyph glyph-name="Amacron" unicode="&#x100;" horiz-adv-x="1118" 
d="M1012 1735l-17 -107h-506l17 107h506zM-63 0l708 1434h133l254 -1434h-121l-65 383h-592l-191 -383h-126zM307 496h520l-110 632q-4 24 -8 51.5t-8 61t-7 53.5q-40 -93 -76 -170z" />
    <glyph glyph-name="amacron" unicode="&#x101;" horiz-adv-x="972" 
d="M854 1284l-16 -106h-506l16 106h506zM379 -23q-121 0 -198.5 70.5t-102.5 187t-2 265.5q17 109 53.5 199.5t91.5 160t132 108t169 38.5q105 0 173.5 -51t99.5 -136l24 164h107l-156 -983h-106l26 156q-122 -179 -311 -179zM397 84q189 0 303 211l64 397
q-22 98 -81.5 152.5t-143.5 54.5q-141 0 -228 -109t-118 -298q-29 -186 21.5 -297t182.5 -111z" />
    <glyph glyph-name="Abreve" unicode="&#x102;" horiz-adv-x="1118" 
d="M741 1585q-140 0 -235 70l16 102q101 -61 223 -61q131 0 256 67l-18 -112q-109 -66 -242 -66zM-63 0l708 1434h133l254 -1434h-121l-65 383h-592l-191 -383h-126zM307 496h520l-110 632q-4 24 -8 51.5t-8 61t-7 53.5q-40 -93 -76 -170z" />
    <glyph glyph-name="abreve" unicode="&#x103;" horiz-adv-x="972" 
d="M586 1135q-142 0 -236 69l17 103q103 -62 223 -62q129 0 256 68l-19 -113q-107 -65 -241 -65zM379 -23q-121 0 -198.5 70.5t-102.5 187t-2 265.5q17 109 53.5 199.5t91.5 160t132 108t169 38.5q105 0 173.5 -51t99.5 -136l24 164h107l-156 -983h-106l26 156
q-122 -179 -311 -179zM397 84q189 0 303 211l64 397q-22 98 -81.5 152.5t-143.5 54.5q-141 0 -228 -109t-118 -298q-29 -186 21.5 -297t182.5 -111z" />
    <glyph glyph-name="Aogonek" unicode="&#x104;" horiz-adv-x="1118" 
d="M874 -473q-84 0 -126.5 49t-30.5 127q22 136 194 299l-2 8l-63 373h-592l-191 -383h-126l708 1434h133l254 -1434q-181 -169 -205 -287q-8 -45 14 -68.5t60 -23.5q47 0 96 21l-14 -93q-52 -22 -109 -22zM307 496h520l-110 632q-4 24 -8 51.5t-8 61t-7 53.5
q-63 -143 -76 -170z" />
    <glyph glyph-name="aogonek" unicode="&#x105;" horiz-adv-x="972" 
d="M584 -469q-84 0 -125 47t-29 123q23 145 238 322l2 8l20 125q-122 -179 -311 -179q-121 0 -198.5 70.5t-102.5 187t-2 265.5q17 109 53.5 199.5t91.5 160t132 108t169 38.5q105 0 173.5 -51t99.5 -136l24 164h107l-156 -983q-96 -73 -158 -150t-71 -141q-7 -43 14 -63.5
t59 -20.5q51 0 99 23l-15 -92q-59 -25 -114 -25zM397 84q189 0 303 211l64 397q-22 98 -81.5 152.5t-143.5 54.5q-141 0 -228 -109t-118 -298q-29 -186 21.5 -297t182.5 -111z" />
    <glyph glyph-name="Cacute" unicode="&#x106;" horiz-adv-x="972" 
d="M647 1583l221 277h148l-246 -277h-123zM569 -23q-122 0 -218.5 48t-160.5 141.5t-85 232.5t8 322q29 173 94 313t154.5 232t200 141t231.5 49q153 0 262 -74l-19 -106q-95 65 -231 65q-211 0 -365 -162.5t-204 -465.5q-49 -294 45.5 -457.5t296.5 -163.5q150 0 294 72
l-20 -119q-133 -68 -283 -68z" />
    <glyph glyph-name="cacute" unicode="&#x107;" horiz-adv-x="778" 
d="M440 1133l222 276h147l-246 -276h-123zM430 -23q-201 0 -297 142.5t-59 380.5q37 233 170 369.5t331 136.5q122 0 211 -56l-16 -104q-76 53 -186 53q-155 0 -257.5 -109t-133.5 -298q-28 -190 34.5 -298t212.5 -108q124 0 228 55l-17 -112q-102 -52 -221 -52z" />
    <glyph glyph-name="Cdotaccent" unicode="&#x10a;" horiz-adv-x="972" 
d="M760 1595q-42 0 -64.5 27t-15.5 72q6 39 32.5 60.5t63.5 21.5q42 0 64.5 -27t15.5 -72q-6 -39 -32 -60.5t-64 -21.5zM569 -23q-122 0 -218.5 48t-160.5 141.5t-85 232.5t8 322q29 173 94 313t154.5 232t200 141t231.5 49q153 0 262 -74l-19 -106q-95 65 -231 65
q-211 0 -365 -162.5t-204 -465.5q-49 -294 45.5 -457.5t296.5 -163.5q150 0 294 72l-20 -119q-133 -68 -283 -68z" />
    <glyph glyph-name="cdotaccent" unicode="&#x10b;" horiz-adv-x="778" 
d="M555 1145q-42 0 -64.5 26.5t-15.5 71.5q6 39 32.5 60.5t63.5 21.5q42 0 64.5 -26.5t15.5 -71.5q-6 -39 -32 -60.5t-64 -21.5zM430 -23q-201 0 -297 142.5t-59 380.5q37 233 170 369.5t331 136.5q122 0 211 -56l-16 -104q-76 53 -186 53q-155 0 -257.5 -109t-133.5 -298
q-28 -190 34.5 -298t212.5 -108q124 0 228 55l-17 -112q-102 -52 -221 -52z" />
    <glyph glyph-name="Ccaron" unicode="&#x10c;" horiz-adv-x="972" 
d="M805 1585h-103l-172 264h119l111 -163l162 163h139zM569 -23q-122 0 -218.5 48t-160.5 141.5t-85 232.5t8 322q29 173 94 313t154.5 232t200 141t231.5 49q153 0 262 -74l-19 -106q-95 65 -231 65q-211 0 -365 -162.5t-204 -465.5q-49 -294 45.5 -457.5t296.5 -163.5
q150 0 294 72l-20 -119q-133 -68 -283 -68z" />
    <glyph glyph-name="ccaron" unicode="&#x10d;" horiz-adv-x="778" 
d="M600 1135h-102l-172 264h118l111 -164l162 164h139zM430 -23q-201 0 -297 142.5t-59 380.5q37 233 170 369.5t331 136.5q122 0 211 -56l-16 -104q-76 53 -186 53q-155 0 -257.5 -109t-133.5 -298q-28 -190 34.5 -298t212.5 -108q124 0 228 55l-17 -112q-102 -52 -221 -52
z" />
    <glyph glyph-name="Dcaron" unicode="&#x10e;" horiz-adv-x="1165" 
d="M762 1585h-103l-172 264h119l111 -163l162 163h139zM637 1434q122 0 216 -35.5t152.5 -99.5t92.5 -154t36 -200t-16 -236q-20 -129 -52.5 -232t-88 -194t-131.5 -152t-185 -96t-245 -35h-338l227 1434h332zM623 1317h-215l-189 -1200h209q252 0 386 149.5t181 450.5
q47 297 -40 448.5t-332 151.5z" />
    <glyph glyph-name="dcaron" unicode="&#x10f;" horiz-adv-x="1034" 
d="M381 -23q-123 0 -201 70.5t-102.5 187t-1.5 265.5q17 109 53.5 199.5t91 160t131.5 108t168 38.5q104 0 171 -48.5t95 -121.5l95 598h116l-227 -1434h-106l24 156q-113 -179 -307 -179zM1282 1434l-100 -353h-101l86 353h115zM397 84q185 0 303 211l64 397
q-22 97 -82.5 152t-149.5 55q-135 0 -222 -108.5t-117 -298.5q-16 -87 -10.5 -162t28 -129.5t70 -85.5t116.5 -31z" />
    <glyph glyph-name="Dcroat" unicode="&#x110;" horiz-adv-x="1173" 
d="M647 1434q122 0 215.5 -35.5t151.5 -99.5t92 -154t37 -200t-15 -236q-21 -129 -53.5 -232t-88.5 -194.5t-131.5 -152t-184.5 -95.5t-246 -35h-336l105 659h-144l17 111h143l106 664h332zM1006 717q47 296 -41 448t-332 152h-215l-88 -547h270l-16 -111h-271l-86 -542h211
q251 0 386 150t182 450z" />
    <glyph glyph-name="dcroat" unicode="&#x111;" horiz-adv-x="972" 
d="M1094 1264l-15 -90h-123l-186 -1174h-106l24 156q-113 -179 -307 -179q-123 0 -201 70.5t-102.5 187t-1.5 265.5q17 109 53.5 199.5t91 160t131.5 108t168 38.5q104 0 171 -48.5t95 -121.5l54 338h-359l15 90h358l27 170h116l-28 -170h125zM700 295l64 397
q-22 97 -82.5 152t-149.5 55q-135 0 -222 -108.5t-117 -298.5q-16 -87 -10.5 -162t28 -129.5t70 -85.5t116.5 -31q185 0 303 211z" />
    <glyph glyph-name="Emacron" unicode="&#x112;" horiz-adv-x="970" 
d="M973 1735l-17 -107h-505l16 107h506zM78 0l227 1434h735l-18 -117h-612l-86 -537h553l-19 -116h-553l-86 -547h629l-19 -117h-751z" />
    <glyph glyph-name="emacron" unicode="&#x113;" horiz-adv-x="897" 
d="M844 1284l-17 -106h-505l16 106h506zM459 -23q-220 0 -321 141t-64 382q37 233 165.5 369.5t309.5 136.5q128 0 206.5 -76t93 -203t-25.5 -293h-639q-13 -176 61 -262t224 -86q134 0 250 55l-19 -112q-112 -52 -241 -52zM201 537h528q31 166 -15.5 262t-168.5 96
q-63 0 -117.5 -25.5t-91 -63t-65.5 -88t-44.5 -94t-25.5 -87.5z" />
    <glyph glyph-name="Edotaccent" unicode="&#x116;" horiz-adv-x="970" 
d="M705 1595q-42 0 -64.5 27t-15.5 72q6 39 32.5 60.5t63.5 21.5q42 0 64.5 -27t15.5 -72q-6 -39 -32 -60.5t-64 -21.5zM78 0l227 1434h735l-18 -117h-612l-86 -537h553l-19 -116h-553l-86 -547h629l-19 -117h-751z" />
    <glyph glyph-name="edotaccent" unicode="&#x117;" horiz-adv-x="897" 
d="M573 1145q-42 0 -64 26.5t-15 71.5q6 39 32.5 60.5t63.5 21.5q42 0 64.5 -26.5t15.5 -71.5q-6 -39 -32.5 -60.5t-64.5 -21.5zM459 -23q-220 0 -321 141t-64 382q37 233 165.5 369.5t309.5 136.5q128 0 206.5 -76t93 -203t-25.5 -293h-639q-13 -176 61 -262t224 -86
q134 0 250 55l-19 -112q-112 -52 -241 -52zM201 537h528q31 166 -15.5 262t-168.5 96q-63 0 -117.5 -25.5t-91 -63t-65.5 -88t-44.5 -94t-25.5 -87.5z" />
    <glyph glyph-name="Eogonek" unicode="&#x118;" horiz-adv-x="970" 
d="M1022 1317h-612l-86 -537h553l-19 -116h-553l-86 -547h629l-19 -117h-2q-181 -166 -206 -287q-9 -45 13 -68.5t60 -23.5q47 0 99 21l-17 -93q-52 -22 -108 -22q-83 0 -126 49t-32 127q22 135 192 297h-624l227 1434h735z" />
    <glyph glyph-name="eogonek" unicode="&#x119;" horiz-adv-x="897" 
d="M494 -469q-90 0 -132.5 46.5t-31.5 125.5q11 61 61.5 135.5t138.5 149.5q-32 -11 -71 -11q-220 0 -321 141t-64 382q37 233 165.5 369.5t309.5 136.5q128 0 206.5 -76t93 -203t-25.5 -293h-639q-13 -176 61 -262t224 -86q134 0 250 55l-19 -112q-237 -179 -260 -316
q-6 -46 15.5 -67t60.5 -21q46 0 96 21l-14 -92q-53 -23 -104 -23zM201 537h528q31 166 -15.5 262t-168.5 96q-63 0 -117.5 -25.5t-91 -63t-65.5 -88t-44.5 -94t-25.5 -87.5z" />
    <glyph glyph-name="Ecaron" unicode="&#x11a;" horiz-adv-x="970" 
d="M750 1585h-103l-172 264h119l111 -163l161 163h140zM78 0l227 1434h735l-18 -117h-612l-86 -537h553l-19 -116h-553l-86 -547h629l-19 -117h-751z" />
    <glyph glyph-name="ecaron" unicode="&#x11b;" horiz-adv-x="897" 
d="M618 1135h-102l-172 264h119l110 -164l162 164h139zM459 -23q-220 0 -321 141t-64 382q37 233 165.5 369.5t309.5 136.5q128 0 206.5 -76t93 -203t-25.5 -293h-639q-13 -176 61 -262t224 -86q134 0 250 55l-19 -112q-112 -52 -241 -52zM201 537h528q31 166 -15.5 262
t-168.5 96q-63 0 -117.5 -25.5t-91 -63t-65.5 -88t-44.5 -94t-25.5 -87.5z" />
    <glyph glyph-name="Gbreve" unicode="&#x11e;" horiz-adv-x="1101" 
d="M782 1585q-140 0 -235 70l16 102q101 -61 223 -61q131 0 256 67l-18 -112q-109 -66 -242 -66zM565 -23q-92 0 -169 26t-141.5 81.5t-102.5 143.5t-50 211.5t15 285.5q27 174 93.5 314t159 230.5t206 138.5t237.5 48q190 0 295 -76l-18 -114q-112 75 -271 75
q-214 0 -373.5 -164t-205.5 -460q-24 -170 -10.5 -289t65 -193.5t122 -108.5t161.5 -34q77 0 135.5 15t120.5 51l94 598h121l-107 -670q-153 -109 -377 -109z" />
    <glyph glyph-name="gbreve" unicode="&#x11f;" horiz-adv-x="970" 
d="M582 1135q-142 0 -236 69l16 103q103 -62 224 -62q129 0 256 68l-19 -113q-107 -65 -241 -65zM270 -473q-152 0 -254 55l19 107q99 -54 235 -54q159 0 255.5 84.5t121.5 237.5l29 184q-110 -164 -297 -164q-121 0 -198 70t-102.5 187.5t-2.5 265.5q36 225 152.5 365.5
t297.5 140.5q198 0 269 -189l24 166h107l-164 -1034q-33 -196 -154 -309t-338 -113zM397 84q183 0 303 209l64 399q-20 98 -79 152.5t-146 54.5q-136 0 -225 -110.5t-119 -299.5q-17 -120 -4.5 -210t65.5 -142.5t141 -52.5z" />
    <glyph glyph-name="Gdotaccent" unicode="&#x120;" horiz-adv-x="1101" 
d="M782 1595q-42 0 -64.5 27t-15.5 72q6 38 33 60t64 22q42 0 64.5 -27t15.5 -72q-6 -39 -32.5 -60.5t-64.5 -21.5zM565 -23q-92 0 -169 26t-141.5 81.5t-102.5 143.5t-50 211.5t15 285.5q27 174 93.5 314t159 230.5t206 138.5t237.5 48q190 0 295 -76l-18 -114
q-112 75 -271 75q-214 0 -373.5 -164t-205.5 -460q-24 -170 -10.5 -289t65 -193.5t122 -108.5t161.5 -34q77 0 135.5 15t120.5 51l94 598h121l-107 -670q-153 -109 -377 -109z" />
    <glyph glyph-name="gdotaccent" unicode="&#x121;" horiz-adv-x="970" 
d="M582 1145q-42 0 -64.5 26.5t-15.5 71.5q6 39 32.5 60.5t63.5 21.5q42 0 64.5 -26.5t15.5 -71.5q-6 -39 -32 -60.5t-64 -21.5zM270 -473q-152 0 -254 55l19 107q99 -54 235 -54q159 0 255.5 84.5t121.5 237.5l29 184q-110 -164 -297 -164q-121 0 -198 70t-102.5 187.5
t-2.5 265.5q36 225 152.5 365.5t297.5 140.5q198 0 269 -189l24 166h107l-164 -1034q-33 -196 -154 -309t-338 -113zM397 84q183 0 303 209l64 399q-20 98 -79 152.5t-146 54.5q-136 0 -225 -110.5t-119 -299.5q-17 -120 -4.5 -210t65.5 -142.5t141 -52.5z" />
    <glyph glyph-name="Gcommaaccent" unicode="&#x122;" horiz-adv-x="1101" 
d="M565 -23q-92 0 -169 26t-141.5 81.5t-102.5 143.5t-50 211.5t15 285.5q27 174 93.5 314t159 230.5t206 138.5t237.5 48q190 0 295 -76l-18 -114q-112 75 -271 75q-214 0 -373.5 -164t-205.5 -460q-24 -170 -10.5 -289t65 -193.5t122 -108.5t161.5 -34q77 0 135.5 15
t120.5 51l94 598h121l-107 -670q-153 -109 -377 -109zM387 -504l105 369h116l-119 -369h-102z" />
    <glyph glyph-name="gcommaaccent" unicode="&#x123;" horiz-adv-x="970" 
d="M690 1479l-96 -346h-117l111 346h102zM270 -473q-152 0 -254 55l19 107q99 -54 235 -54q159 0 255.5 84.5t121.5 237.5l29 184q-110 -164 -297 -164q-121 0 -198 70t-102.5 187.5t-2.5 265.5q36 225 152.5 365.5t297.5 140.5q198 0 269 -189l24 166h107l-164 -1034
q-33 -196 -154 -309t-338 -113zM397 84q183 0 303 209l64 399q-20 98 -79 152.5t-146 54.5q-136 0 -225 -110.5t-119 -299.5q-17 -120 -4.5 -210t65.5 -142.5t141 -52.5z" />
    <glyph glyph-name="Hbar" unicode="&#x126;" horiz-adv-x="1239" 
d="M1323 1147l-16 -103h-146l-166 -1044h-121l105 662h-666l-104 -662h-121l166 1044h-143l16 103h143l45 287h121l-45 -287h666l45 287h121l-45 -287h145zM997 778l43 266h-665l-43 -266h665z" />
    <glyph glyph-name="hbar" unicode="&#x127;" horiz-adv-x="946" 
d="M600 1006q133 0 206.5 -94.5t49.5 -247.5l-104 -664h-117l104 666q19 117 -28.5 175t-143.5 58q-91 0 -170.5 -62t-124.5 -151l-108 -686h-117l186 1174h-122l12 90h125l26 170h117l-26 -170h356l-12 -90h-361l-49 -316q112 148 301 148z" />
    <glyph glyph-name="Imacron" unicode="&#x12a;" horiz-adv-x="434" 
d="M668 1735l-17 -107h-506l17 107h506zM426 1434l-227 -1434h-121l227 1434h121z" />
    <glyph glyph-name="imacron" unicode="&#x12b;" horiz-adv-x="376" 
d="M102 1192l17 108h395l-16 -108h-396zM53 0l156 983h115l-156 -983h-115z" />
    <glyph glyph-name="Iogonek" unicode="&#x12e;" horiz-adv-x="434" 
d="M94 -473q-79 0 -121 46t-30 126q18 125 147 303l-10 4l225 1428h123l-227 -1434q-138 -183 -152 -293q-6 -41 13.5 -63.5t60.5 -22.5q47 0 96 19l-14 -91q-55 -22 -111 -22z" />
    <glyph glyph-name="iogonek" unicode="&#x12f;" horiz-adv-x="378" 
d="M309 1204q-37 0 -57.5 22t-13.5 62q4 34 28.5 53t55.5 19q35 0 56 -23.5t15 -62.5q-4 -35 -28 -52.5t-56 -17.5zM70 -473q-88 0 -127 49t-27 129q22 134 137 299l2 14l154 965h117l-156 -983q-124 -157 -145 -291q-7 -44 14 -66t57 -22q45 0 80 17l-14 -95
q-39 -16 -92 -16z" />
    <glyph glyph-name="Idotaccent" unicode="&#x130;" horiz-adv-x="434" 
d="M399 1595q-42 0 -64.5 27t-15.5 72q6 38 33 60t64 22q42 0 64.5 -27t15.5 -72q-6 -39 -32.5 -60.5t-64.5 -21.5zM426 1434l-227 -1434h-121l227 1434h121z" />
    <glyph glyph-name="dotlessi" unicode="&#x131;" horiz-adv-x="376" 
d="M53 0l156 983h115l-156 -983h-115z" />
    <glyph glyph-name="IJ" unicode="&#x132;" horiz-adv-x="1265" 
d="M426 1434l-227 -1434h-121l227 1434h121zM670 -23q-148 0 -267 58l19 115q111 -58 248 -58q122 0 205.5 71t103.5 199l151 955h-335l18 117h457l-170 -1084q-30 -186 -145.5 -279.5t-284.5 -93.5z" />
    <glyph glyph-name="ij" unicode="&#x133;" horiz-adv-x="763" 
d="M694 1204q-36 0 -57 22.5t-14 61.5q4 34 28.5 53t55.5 19q36 0 57.5 -23.5t15.5 -62.5q-6 -35 -30 -52.5t-56 -17.5zM307 1204q-36 0 -56.5 22t-14.5 62q6 34 29 53t54 19q35 0 56.5 -23.5t17.5 -62.5q-6 -35 -30 -52.5t-56 -17.5zM53 0l156 983h115l-156 -983h-115z
M268 -473q-76 0 -123 18l17 105q43 -17 90 -17q132 0 158 174l186 1176h117l-193 -1208q-41 -248 -252 -248z" />
    <glyph glyph-name="Kcommaaccent" unicode="&#x136;" horiz-adv-x="1071" 
d="M78 0l227 1434h121l-100 -643h184l541 643h149l-590 -705l383 -729h-133l-354 676h-201l-106 -676h-121zM352 -485l105 368h116l-118 -368h-103z" />
    <glyph glyph-name="kcommaaccent" unicode="&#x137;" horiz-adv-x="849" 
d="M47 0l227 1434h117l-139 -877h149l365 426h143l-413 -487l274 -496h-133l-244 449h-157l-72 -449h-117zM231 -485l105 368h117l-119 -368h-103z" />
    <glyph glyph-name="Lacute" unicode="&#x139;" horiz-adv-x="919" 
d="M315 1583l222 277h147l-246 -277h-123zM426 1434l-207 -1317h623l-21 -117h-743l227 1434h121z" />
    <glyph glyph-name="lacute" unicode="&#x13a;" horiz-adv-x="376" 
d="M262 1618l221 276h148l-246 -276h-123zM406 1495l-238 -1495h-115l238 1495h115z" />
    <glyph glyph-name="Lcommaaccent" unicode="&#x13b;" horiz-adv-x="919" 
d="M426 1434l-207 -1317h623l-21 -117h-743l227 1434h121zM289 -485l104 368h117l-119 -368h-102z" />
    <glyph glyph-name="lcommaaccent" unicode="&#x13c;" horiz-adv-x="376" 
d="M406 1495l-238 -1495h-115l238 1495h115zM-68 -485l105 368h117l-119 -368h-103z" />
    <glyph glyph-name="Lcaron" unicode="&#x13d;" horiz-adv-x="921" 
d="M426 1434l-207 -1317h623l-21 -117h-743l227 1434h121zM786 1434l-86 -353h-100l72 353h114z" />
    <glyph glyph-name="lcaron" unicode="&#x13e;" horiz-adv-x="434" 
d="M406 1495l-238 -1495h-115l238 1495h115zM690 1495l-104 -352h-101l88 352h117z" />
    <glyph glyph-name="Ldot" unicode="&#x13f;" horiz-adv-x="919" 
d="M426 1434l-207 -1317h623l-21 -117h-743l227 1434h121zM582 627q-37 0 -58.5 24t-15.5 64q6 35 30.5 54t55.5 19q37 0 59 -24t15 -64q-6 -35 -30.5 -54t-55.5 -19z" />
    <glyph glyph-name="ldot" unicode="&#x140;" horiz-adv-x="520" 
d="M406 1495l-238 -1495h-115l238 1495h115zM467 627q-36 0 -57.5 24t-14.5 64q4 35 28.5 54t57.5 19q35 0 57.5 -24t16.5 -64q-6 -35 -30.5 -54t-57.5 -19z" />
    <glyph glyph-name="Lslash" unicode="&#x141;" horiz-adv-x="940" 
d="M240 117h622l-20 -117h-744l88 559l-163 -74l20 119l164 74l119 756h120l-108 -697l356 162l-18 -119l-357 -162z" />
    <glyph glyph-name="lslash" unicode="&#x142;" horiz-adv-x="485" 
d="M508 899l-19 -111l-151 -65l-115 -723h-117l107 666l-152 -68l17 111l153 67l113 719h117l-105 -661z" />
    <glyph glyph-name="Nacute" unicode="&#x143;" horiz-adv-x="1220" 
d="M688 1583l221 277h148l-246 -277h-123zM78 0l227 1434h111l493 -1213q11 132 43 330l140 883h120l-227 -1434h-111l-493 1212q-9 -114 -41 -327l-141 -885h-121z" />
    <glyph glyph-name="nacute" unicode="&#x144;" horiz-adv-x="946" 
d="M475 1133l221 276h148l-246 -276h-123zM47 0l156 983h106l-22 -137q53 74 133.5 117t179.5 43q134 0 207 -94.5t49 -247.5l-104 -664h-117l104 666q19 116 -29 174.5t-141 58.5t-172.5 -62t-124.5 -151l-108 -686h-117z" />
    <glyph glyph-name="Ncommaaccent" unicode="&#x145;" horiz-adv-x="1220" 
d="M78 0l227 1434h111l493 -1213q11 132 43 330l140 883h120l-227 -1434h-111l-493 1212q-9 -114 -41 -327l-141 -885h-121zM381 -485l104 368h117l-119 -368h-102z" />
    <glyph glyph-name="ncommaaccent" unicode="&#x146;" horiz-adv-x="946" 
d="M47 0l156 983h106l-22 -137q53 74 133.5 117t179.5 43q134 0 207 -94.5t49 -247.5l-104 -664h-117l104 666q19 116 -29 174.5t-141 58.5t-172.5 -62t-124.5 -151l-108 -686h-117zM252 -485l104 368h117l-119 -368h-102z" />
    <glyph glyph-name="Ncaron" unicode="&#x147;" horiz-adv-x="1220" 
d="M846 1585h-103l-172 264h119l111 -163l162 163h139zM78 0l227 1434h111l493 -1213q11 132 43 330l140 883h120l-227 -1434h-111l-493 1212q-9 -114 -41 -327l-141 -885h-121z" />
    <glyph glyph-name="ncaron" unicode="&#x148;" horiz-adv-x="946" 
d="M633 1135h-103l-172 264h119l111 -164l162 164h139zM47 0l156 983h106l-22 -137q53 74 133.5 117t179.5 43q134 0 207 -94.5t49 -247.5l-104 -664h-117l104 666q19 116 -29 174.5t-141 58.5t-172.5 -62t-124.5 -151l-108 -686h-117z" />
    <glyph glyph-name="Eng" unicode="&#x14a;" horiz-adv-x="1220" 
d="M690 -473q-70 0 -123 18l17 103q47 -15 90 -15q64 0 109 46t59 139l30 190l-491 1204q-9 -114 -41 -327l-141 -885h-121l227 1434h111l493 -1213q11 132 43 330l140 883h120l-260 -1645q-21 -131 -91 -196.5t-171 -65.5z" />
    <glyph glyph-name="eng" unicode="&#x14b;" horiz-adv-x="946" 
d="M463 -473q-77 0 -123 18l16 103q47 -15 90 -15q63 0 104 43.5t54 130.5l135 859q19 116 -29 174.5t-141 58.5t-172 -58.5t-123 -146.5l-110 -694h-117l156 983h106l-22 -137q53 74 133.5 117t179.5 43q134 0 207 -94.5t49 -247.5l-141 -889q-20 -123 -86 -185.5
t-166 -62.5z" />
    <glyph glyph-name="Omacron" unicode="&#x14c;" horiz-adv-x="1198" 
d="M1049 1737l-17 -107h-506l17 107h506zM530 -23q-246 0 -357 198.5t-56 549.5q56 349 217.5 540t413.5 191q243 0 351.5 -198t53.5 -549q-57 -353 -212.5 -542.5t-410.5 -189.5zM530 92q195 0 324 160.5t176 464.5t-27.5 464t-263.5 160q-195 0 -322 -159.5t-177 -464.5
q-47 -304 27.5 -464.5t262.5 -160.5z" />
    <glyph glyph-name="omacron" unicode="&#x14d;" horiz-adv-x="948" 
d="M852 1284l-16 -106h-506l16 106h506zM545 1006q189 0 277 -138t50 -385q-39 -242 -157.5 -374t-311.5 -132q-190 0 -277.5 138.5t-49.5 384.5q39 239 161 372.5t308 133.5zM545 899q-138 0 -229 -107.5t-123 -308.5q-31 -192 23.5 -294.5t186.5 -102.5q140 0 231 106.5
t122 307.5q31 192 -25 295.5t-186 103.5z" />
    <glyph glyph-name="Ohungarumlaut" unicode="&#x150;" horiz-adv-x="1198" 
d="M547 1597l184 283h131l-190 -283h-125zM831 1597l193 283h131l-199 -283h-125zM530 -23q-246 0 -357 198.5t-56 549.5q56 349 217.5 540t413.5 191q243 0 351.5 -198t53.5 -549q-57 -353 -212.5 -542.5t-410.5 -189.5zM530 92q195 0 324 160.5t176 464.5t-27.5 464
t-263.5 160q-195 0 -322 -159.5t-177 -464.5q-47 -304 27.5 -464.5t262.5 -160.5z" />
    <glyph glyph-name="ohungarumlaut" unicode="&#x151;" horiz-adv-x="948" 
d="M350 1145l185 282h131l-191 -282h-125zM635 1145l192 282h131l-198 -282h-125zM545 1006q189 0 277 -138t50 -385q-39 -242 -157.5 -374t-311.5 -132q-190 0 -277.5 138.5t-49.5 384.5q39 239 161 372.5t308 133.5zM545 899q-138 0 -229 -107.5t-123 -308.5
q-31 -192 23.5 -294.5t186.5 -102.5q140 0 231 106.5t122 307.5q31 192 -25 295.5t-186 103.5z" />
    <glyph glyph-name="OE" unicode="&#x152;" horiz-adv-x="1523" 
d="M539 -23q-256 0 -366.5 202t-55.5 546q55 345 219 538t424 193q100 0 162 -22h673l-20 -117h-549l-84 -537h488l-19 -116h-487l-86 -547h561l-19 -117h-680q-73 -23 -161 -23zM545 92q94 0 172 33l188 1188q-67 28 -151 28q-203 0 -335.5 -163t-180.5 -461
q-46 -293 33 -459t274 -166z" />
    <glyph glyph-name="oe" unicode="&#x153;" horiz-adv-x="1521" 
d="M383 -25q-184 0 -265 142t-42 383q38 238 153.5 373t298.5 135q246 0 289 -265q58 126 151 194.5t214 68.5q92 0 159.5 -45t99.5 -123t36.5 -182t-29.5 -222h-621q-36 -348 269 -348q124 0 247 53l-16 -110q-118 -52 -242 -52q-145 0 -229 69t-108 196
q-116 -267 -365 -267zM387 84q138 0 222 104t114 299q32 194 -16 303t-179 109q-132 0 -217 -107.5t-118 -302.5q-28 -190 20.5 -297.5t173.5 -107.5zM844 537h512q31 167 -15.5 262.5t-162.5 95.5q-61 0 -113 -26t-86.5 -62.5t-63 -89t-43.5 -93.5t-28 -87z" />
    <glyph glyph-name="Racute" unicode="&#x154;" horiz-adv-x="1122" 
d="M608 1583l221 277h148l-246 -277h-123zM78 0l227 1434h424q89 0 164.5 -28t130 -81t78.5 -137.5t8 -188.5q-25 -158 -122 -263t-253 -140l277 -596h-131l-267 580h-34h-289l-92 -580h-121zM311 694h295q148 0 253 82t128 232q24 148 -49 228.5t-217 80.5h-313z" />
    <glyph glyph-name="racute" unicode="&#x155;" horiz-adv-x="606" 
d="M385 1133l221 276h148l-246 -276h-123zM47 0l156 983h106l-30 -186q118 217 387 207l-21 -117q-125 9 -225 -63t-160 -228l-96 -596h-117z" />
    <glyph glyph-name="Rcommaaccent" unicode="&#x156;" horiz-adv-x="1122" 
d="M78 0l227 1434h424q89 0 164.5 -28t130 -81t78.5 -137.5t8 -188.5q-25 -158 -122 -263t-253 -140l277 -596h-131l-267 580h-34h-289l-92 -580h-121zM311 694h295q148 0 253 82t128 232q24 148 -49 228.5t-217 80.5h-313zM373 -485l104 368h117l-119 -368h-102z" />
    <glyph glyph-name="rcommaaccent" unicode="&#x157;" horiz-adv-x="606" 
d="M47 0l156 983h106l-30 -186q118 217 387 207l-21 -117q-125 9 -225 -63t-160 -228l-96 -596h-117zM-74 -485l105 368h116l-118 -368h-103z" />
    <glyph glyph-name="Rcaron" unicode="&#x158;" horiz-adv-x="1122" 
d="M766 1585h-102l-172 264h118l111 -163l162 163h139zM78 0l227 1434h424q89 0 164.5 -28t130 -81t78.5 -137.5t8 -188.5q-25 -158 -122 -263t-253 -140l277 -596h-131l-267 580h-34h-289l-92 -580h-121zM311 694h295q148 0 253 82t128 232q24 148 -49 228.5t-217 80.5
h-313z" />
    <glyph glyph-name="rcaron" unicode="&#x159;" horiz-adv-x="606" 
d="M545 1135h-103l-172 264h119l111 -164l162 164h139zM47 0l156 983h106l-30 -186q118 217 387 207l-21 -117q-125 9 -225 -63t-160 -228l-96 -596h-117z" />
    <glyph glyph-name="Sacute" unicode="&#x15a;" horiz-adv-x="964" 
d="M532 1583l222 277h147l-246 -277h-123zM406 -23q-118 0 -209 23.5t-172 77.5l20 117q82 -55 166.5 -79t191.5 -24q150 0 248.5 66t118.5 184q12 77 -18.5 137t-88 100.5t-129.5 76.5t-143 76t-127.5 88t-84.5 123t-13 171q18 114 89.5 193.5t169 114t214.5 34.5
q186 0 332 -94l-19 -115q-140 94 -311 94q-146 0 -241 -59.5t-113 -173.5q-9 -58 8 -107t54 -84.5t86.5 -67.5t105 -61t111.5 -59.5t104.5 -69t83.5 -83.5t50 -108t3 -138q-19 -118 -88.5 -198.5t-170.5 -117.5t-228 -37z" />
    <glyph glyph-name="sacute" unicode="&#x15b;" horiz-adv-x="772" 
d="M352 1133l221 276h148l-246 -276h-123zM465 1006q152 0 266 -68l-18 -109q-106 72 -242 72q-96 0 -162.5 -39.5t-79.5 -113.5q-8 -49 15.5 -87.5t66 -64.5t95.5 -50t105 -51.5t93.5 -61.5t62 -88.5t9.5 -123.5q-14 -85 -69 -141.5t-129.5 -79.5t-168.5 -23
q-193 0 -303 78l19 111q113 -82 282 -82q107 0 175 38t81 116q8 49 -15 87.5t-65.5 65t-95 51t-105 52.5t-93.5 62t-62 88t-10 122q18 115 114.5 177.5t233.5 62.5z" />
    <glyph glyph-name="Scedilla" unicode="&#x15e;" horiz-adv-x="964" 
d="M641 1341q-146 0 -241 -59.5t-113 -173.5q-9 -58 8 -107t54 -84.5t86.5 -67.5t105 -61t111.5 -59.5t104.5 -69t83.5 -83.5t50 -108t3 -138q-27 -157 -138.5 -245.5t-279.5 -104.5l-43 -123q69 2 113.5 -36.5t34.5 -117.5q-11 -85 -81 -130.5t-165 -45.5q-87 0 -156 27
l15 94q64 -27 137 -27q64 0 103.5 24.5t45.5 69.5q7 51 -47.5 67.5t-128.5 -3.5l74 198q-214 6 -352 101l20 117q82 -55 166.5 -79t191.5 -24q150 0 248.5 66t118.5 184q12 77 -18.5 137t-88 100.5t-129.5 76.5t-143 76t-127.5 88t-84.5 123t-13 171q18 114 89.5 193.5
t169 114t214.5 34.5q186 0 332 -94l-19 -115q-140 94 -311 94z" />
    <glyph glyph-name="scedilla" unicode="&#x15f;" horiz-adv-x="772" 
d="M471 901q-96 0 -162.5 -39.5t-79.5 -113.5q-8 -49 15.5 -87.5t66 -64.5t95.5 -50t105 -51.5t93.5 -61.5t62 -88.5t9.5 -123.5q-18 -111 -98 -169.5t-201 -71.5l-45 -123q69 2 113 -36.5t34 -117.5q-11 -85 -81 -130.5t-165 -45.5q-86 0 -155 27l14 94q64 -27 137 -27
q64 0 104 24.5t46 69.5q7 51 -47.5 67.5t-128.5 -3.5l73 198q-169 6 -270 78l19 111q113 -82 282 -82q107 0 175 38t81 116q8 49 -15 87.5t-65.5 65t-95 51t-105 52.5t-93.5 62t-62 88t-10 122q18 115 114.5 177.5t233.5 62.5q152 0 266 -68l-18 -109q-106 72 -242 72z" />
    <glyph glyph-name="Scaron" unicode="&#x160;" horiz-adv-x="964" 
d="M692 1585h-102l-172 264h119l110 -163l162 163h139zM406 -23q-118 0 -209 23.5t-172 77.5l20 117q82 -55 166.5 -79t191.5 -24q150 0 248.5 66t118.5 184q12 77 -18.5 137t-88 100.5t-129.5 76.5t-143 76t-127.5 88t-84.5 123t-13 171q18 114 89.5 193.5t169 114
t214.5 34.5q186 0 332 -94l-19 -115q-140 94 -311 94q-146 0 -241 -59.5t-113 -173.5q-9 -58 8 -107t54 -84.5t86.5 -67.5t105 -61t111.5 -59.5t104.5 -69t83.5 -83.5t50 -108t3 -138q-19 -118 -88.5 -198.5t-170.5 -117.5t-228 -37z" />
    <glyph glyph-name="scaron" unicode="&#x161;" horiz-adv-x="772" 
d="M512 1135h-102l-172 264h118l111 -164l162 164h139zM465 1006q152 0 266 -68l-18 -109q-106 72 -242 72q-96 0 -162.5 -39.5t-79.5 -113.5q-8 -49 15.5 -87.5t66 -64.5t95.5 -50t105 -51.5t93.5 -61.5t62 -88.5t9.5 -123.5q-14 -85 -69 -141.5t-129.5 -79.5t-168.5 -23
q-193 0 -303 78l19 111q113 -82 282 -82q107 0 175 38t81 116q8 49 -15 87.5t-65.5 65t-95 51t-105 52.5t-93.5 62t-62 88t-10 122q18 115 114.5 177.5t233.5 62.5z" />
    <glyph glyph-name="uni0162" unicode="&#x162;" horiz-adv-x="960" 
d="M340 0l209 1317h-397l18 117h915l-18 -117h-397l-209 -1317h-121zM221 -485l105 368h116l-118 -368h-103z" />
    <glyph glyph-name="uni0163" unicode="&#x163;" horiz-adv-x="591" 
d="M340 -23q-115 -2 -174 66t-37 203l100 633h-147l14 104h150l43 264l121 27l-48 -291h271l-15 -104h-272l-100 -623q-13 -90 15 -131t97 -41q66 2 142 33l-17 -111q-73 -29 -143 -29zM137 -485l105 368h116l-118 -368h-103z" />
    <glyph glyph-name="Tcaron" unicode="&#x164;" horiz-adv-x="960" 
d="M709 1585h-103l-172 264h119l111 -163l161 163h140zM340 0l209 1317h-397l18 117h915l-18 -117h-397l-209 -1317h-121z" />
    <glyph glyph-name="tcaron" unicode="&#x165;" horiz-adv-x="591" 
d="M735 1495l-106 -340h-101l93 340h114zM340 -23q-115 -2 -174 66t-37 203l100 633h-147l14 104h150l43 264l121 27l-48 -291h271l-15 -104h-272l-100 -623q-13 -90 15 -131t97 -41q66 2 142 33l-17 -111q-73 -29 -143 -29z" />
    <glyph glyph-name="Tbar" unicode="&#x166;" horiz-adv-x="978" 
d="M1075 1317h-397l-84 -529h223l-16 -102h-221l-109 -686h-123l109 686h-219l16 102h219l84 529h-397l20 117h914z" />
    <glyph glyph-name="tbar" unicode="&#x167;" horiz-adv-x="593" 
d="M618 879h-270l-51 -318h223l-16 -102h-223l-33 -203q-13 -91 14.5 -131.5t97.5 -40.5q66 3 142 33l-19 -111q-69 -29 -141 -29q-116 -2 -174.5 66t-36.5 203l33 213h-109l17 102h108l51 318h-149l16 104h150l43 264l119 27l-48 -291h273z" />
    <glyph glyph-name="Umacron" unicode="&#x16a;" horiz-adv-x="1193" 
d="M1038 1735l-16 -107h-506l16 107h506zM522 -23q-97 0 -173.5 26t-132.5 79.5t-78 143t-3 208.5l158 1000h121l-158 -1002q-55 -340 272 -340q163 0 265 85.5t129 262.5l157 994h121l-160 -1008q-19 -122 -66 -210.5t-117.5 -139.5t-153 -75t-181.5 -24z" />
    <glyph glyph-name="umacron" unicode="&#x16b;" horiz-adv-x="946" 
d="M842 1284l-17 -106h-506l17 106h506zM899 983l-156 -983h-106l22 137q-53 -74 -133.5 -117t-179.5 -43q-134 0 -207 94.5t-49 247.5l105 664h116l-104 -666q-19 -116 29 -174.5t141 -58.5t172.5 62t124.5 151l108 686h117z" />
    <glyph glyph-name="Uring" unicode="&#x16e;" horiz-adv-x="1193" 
d="M760 1534q-89 0 -139 57.5t-35 151.5q15 89 76.5 141.5t148.5 52.5q89 0 138 -57t34 -151q-13 -87 -75.5 -141t-147.5 -54zM764 1616q51 0 86.5 34t44.5 91q9 51 -16.5 82.5t-71.5 31.5q-53 0 -88.5 -33t-44.5 -91q-7 -52 18.5 -83.5t71.5 -31.5zM522 -23
q-97 0 -173.5 26t-132.5 79.5t-78 143t-3 208.5l158 1000h121l-158 -1002q-55 -340 272 -340q163 0 265 85.5t129 262.5l157 994h121l-160 -1008q-19 -122 -66 -210.5t-117.5 -139.5t-153 -75t-181.5 -24z" />
    <glyph glyph-name="uring" unicode="&#x16f;" horiz-adv-x="946" 
d="M565 1083q-89 0 -139 57.5t-35 151.5q15 89 76.5 142t148.5 53q89 0 138 -57.5t34 -151.5q-13 -87 -75.5 -141t-147.5 -54zM569 1165q51 0 86.5 34t44.5 91q9 51 -17 83t-71 32q-53 0 -88.5 -33.5t-44.5 -91.5q-7 -52 18.5 -83.5t71.5 -31.5zM899 983l-156 -983h-106
l22 137q-53 -74 -133.5 -117t-179.5 -43q-134 0 -207 94.5t-49 247.5l105 664h116l-104 -666q-19 -116 29 -174.5t141 -58.5t172.5 62t124.5 151l108 686h117z" />
    <glyph glyph-name="Uhungarumlaut" unicode="&#x170;" horiz-adv-x="1193" 
d="M537 1595l184 283h131l-190 -283h-125zM821 1595l193 283h131l-199 -283h-125zM522 -23q-97 0 -173.5 26t-132.5 79.5t-78 143t-3 208.5l158 1000h121l-158 -1002q-55 -340 272 -340q163 0 265 85.5t129 262.5l157 994h121l-160 -1008q-19 -122 -66 -210.5t-117.5 -139.5
t-153 -75t-181.5 -24z" />
    <glyph glyph-name="uhungarumlaut" unicode="&#x171;" horiz-adv-x="946" 
d="M340 1145l184 282h131l-190 -282h-125zM625 1145l192 282h131l-198 -282h-125zM899 983l-156 -983h-106l22 137q-53 -74 -133.5 -117t-179.5 -43q-134 0 -207 94.5t-49 247.5l105 664h116l-104 -666q-19 -116 29 -174.5t141 -58.5t172.5 62t124.5 151l108 686h117z" />
    <glyph glyph-name="Uogonek" unicode="&#x172;" horiz-adv-x="1193" 
d="M633 -473q-86 0 -126.5 46t-29.5 126q22 134 187 299q-64 -21 -142 -21q-97 0 -173.5 26t-132.5 79.5t-78 143t-3 208.5l158 1000h121l-158 -1002q-55 -340 272 -340q163 0 265 85.5t129 262.5l157 994h121l-160 -1008q-39 -241 -184 -348q-244 -228 -268 -367
q-7 -46 15 -68t61 -22q45 0 96 23l-17 -95q-49 -22 -110 -22z" />
    <glyph glyph-name="uogonek" unicode="&#x173;" horiz-adv-x="946" 
d="M557 -469q-85 0 -126 46.5t-30 123.5q26 145 240 324l2 10l16 102q-119 -160 -313 -160q-136 0 -209 94.5t-47 247.5l105 664h116l-106 -666q-19 -116 29 -174.5t143 -58.5q93 0 172.5 62t124.5 151l108 686h115l-156 -983q-95 -74 -157 -150.5t-72 -140.5
q-6 -43 16 -63.5t60 -20.5q47 0 98 23l-14 -92q-63 -25 -115 -25z" />
    <glyph glyph-name="Wcircumflex" unicode="&#x174;" horiz-adv-x="1613" 
d="M1071 1849l172 -264h-123l-110 164l-164 -164h-133l256 264h102zM281 0l-109 1434h121l82 -1248l532 1221h78l143 -1221l480 1248h129l-563 -1434h-125l-138 1151l-503 -1151h-127z" />
    <glyph glyph-name="wcircumflex" unicode="&#x175;" horiz-adv-x="1306" 
d="M840 1399l172 -264h-123l-111 163l-164 -163h-133l256 264h103zM225 0l-119 983h115l84 -823l367 809h100l111 -805l340 819h131l-428 -983h-119l-107 788l-356 -788h-119z" />
    <glyph glyph-name="Ycircumflex" unicode="&#x176;" horiz-adv-x="1069" 
d="M793 1849l172 -264h-123l-111 164l-164 -164h-133l256 264h103zM391 0l98 610l-331 824h118l285 -711l500 711h141l-592 -824l-98 -610h-121z" />
    <glyph glyph-name="ycircumflex" unicode="&#x177;" horiz-adv-x="882" 
d="M614 1399l172 -264h-122l-111 163l-164 -163h-133l256 264h102zM801 983h133l-557 -1139q-91 -190 -195 -256q-90 -56 -213 -39l17 105q79 -11 143 31q44 30 81 88t120 223l-236 987h119l190 -840z" />
    <glyph glyph-name="Ydieresis" unicode="&#x178;" horiz-adv-x="1069" 
d="M543 1628q-37 0 -59.5 27.5t-16.5 64.5q5 31 31.5 54.5t58.5 23.5q38 0 61 -28t17 -64q-6 -33 -32.5 -55.5t-59.5 -22.5zM881 1628q-37 0 -60.5 27.5t-17.5 64.5q6 31 33 54.5t59 23.5q38 0 61 -28t17 -64q-6 -32 -33 -55t-59 -23zM391 0l98 610l-331 824h118l285 -711
l500 711h141l-592 -824l-98 -610h-121z" />
    <glyph glyph-name="Zacute" unicode="&#x179;" horiz-adv-x="927" 
d="M547 1583l221 277h147l-245 -277h-123zM-41 0l16 106l881 1211h-661l20 117h805l-14 -107l-883 -1210h706l-18 -117h-852z" />
    <glyph glyph-name="zacute" unicode="&#x17a;" horiz-adv-x="753" 
d="M377 1133l221 276h147l-245 -276h-123zM-33 0l17 100l626 779h-479l16 104h619l-16 -100l-627 -779h524l-16 -104h-664z" />
    <glyph glyph-name="Zdotaccent" unicode="&#x17b;" horiz-adv-x="927" 
d="M659 1595q-42 0 -64 27t-15 72q6 39 32.5 60.5t63.5 21.5q42 0 64.5 -27t15.5 -72q-6 -39 -32.5 -60.5t-64.5 -21.5zM-41 0l16 106l881 1211h-661l20 117h805l-14 -107l-883 -1210h706l-18 -117h-852z" />
    <glyph glyph-name="zdotaccent" unicode="&#x17c;" horiz-adv-x="753" 
d="M489 1145q-42 0 -64 26.5t-15 71.5q6 39 32.5 60.5t63.5 21.5q42 0 64.5 -26.5t15.5 -71.5q-6 -39 -32.5 -60.5t-64.5 -21.5zM-33 0l17 100l626 779h-479l16 104h619l-16 -100l-627 -779h524l-16 -104h-664z" />
    <glyph glyph-name="Zcaron" unicode="&#x17d;" horiz-adv-x="927" 
d="M705 1585h-103l-172 264h119l110 -163l162 163h140zM-41 0l16 106l881 1211h-661l20 117h805l-14 -107l-883 -1210h706l-18 -117h-852z" />
    <glyph glyph-name="zcaron" unicode="&#x17e;" horiz-adv-x="753" 
d="M535 1135h-103l-172 264h119l110 -164l162 164h140zM-33 0l17 100l626 779h-479l16 104h619l-16 -100l-627 -779h524l-16 -104h-664z" />
    <glyph glyph-name="Scommaaccent" unicode="&#x218;" horiz-adv-x="964" 
d="M406 -23q-118 0 -209 23.5t-172 77.5l20 117q82 -55 166.5 -79t191.5 -24q150 0 248.5 66t118.5 184q12 77 -18.5 137t-88 100.5t-129.5 76.5t-143 76t-127.5 88t-84.5 123t-13 171q18 114 89.5 193.5t169 114t214.5 34.5q186 0 332 -94l-19 -115q-140 94 -311 94
q-146 0 -241 -59.5t-113 -173.5q-9 -58 8 -107t54 -84.5t86.5 -67.5t105 -61t111.5 -59.5t104.5 -69t83.5 -83.5t50 -108t3 -138q-19 -118 -88.5 -198.5t-170.5 -117.5t-228 -37zM262 -485l105 368h116l-118 -368h-103z" />
    <glyph glyph-name="scommaaccent" unicode="&#x219;" horiz-adv-x="772" 
d="M465 1006q152 0 266 -68l-18 -109q-106 72 -242 72q-96 0 -162.5 -39.5t-79.5 -113.5q-8 -49 15.5 -87.5t66 -64.5t95.5 -50t105 -51.5t93.5 -61.5t62 -88.5t9.5 -123.5q-14 -85 -69 -141.5t-129.5 -79.5t-168.5 -23q-193 0 -303 78l19 111q113 -82 282 -82q107 0 175 38
t81 116q8 49 -15 87.5t-65.5 65t-95 51t-105 52.5t-93.5 62t-62 88t-10 122q18 115 114.5 177.5t233.5 62.5zM162 -485l104 368h117l-119 -368h-102z" />
    <glyph glyph-name="uni021A" unicode="&#x21a;" horiz-adv-x="960" 
d="M340 0l209 1317h-397l18 117h915l-18 -117h-397l-209 -1317h-121zM221 -485l105 368h116l-118 -368h-103z" />
    <glyph glyph-name="uni021B" unicode="&#x21b;" horiz-adv-x="591" 
d="M340 -23q-115 -2 -174 66t-37 203l100 633h-147l14 104h150l43 264l121 27l-48 -291h271l-15 -104h-272l-100 -623q-13 -90 15 -131t97 -41q66 2 142 33l-17 -111q-73 -29 -143 -29zM137 -485l105 368h116l-118 -368h-103z" />
    <glyph glyph-name="circumflex" unicode="&#x2c6;" horiz-adv-x="653" 
d="M594 1849l172 -264h-123l-111 164l-163 -164h-133l256 264h102z" />
    <glyph glyph-name="caron" unicode="&#x2c7;" horiz-adv-x="653" 
d="M551 1585h-102l-173 264h119l111 -163l164 163h139z" />
    <glyph glyph-name="breve" unicode="&#x2d8;" horiz-adv-x="600" 
d="M479 1585q-138 0 -233 70l16 102q101 -61 223 -61q132 0 254 67l-16 -112q-111 -66 -244 -66z" />
    <glyph glyph-name="dotaccent" unicode="&#x2d9;" horiz-adv-x="303" 
d="M332 1595q-41 0 -64 27t-16 72q6 39 32.5 60.5t63.5 21.5q43 0 65.5 -27t16.5 -72q-6 -39 -33 -60.5t-65 -21.5z" />
    <glyph glyph-name="ring" unicode="&#x2da;" horiz-adv-x="524" 
d="M432 1534q-89 0 -138 57.5t-34 151.5q13 88 75 141t148 53q89 0 139 -57t35 -151q-15 -88 -77 -141.5t-148 -53.5zM436 1616q52 0 88 34t45 91q7 52 -18 83t-72 31q-53 0 -88.5 -33t-42.5 -91q-9 -51 17 -83t71 -32z" />
    <glyph glyph-name="ogonek" unicode="&#x2db;" horiz-adv-x="413" 
d="M94 -473q-83 0 -125.5 49t-31.5 127q22 135 192 297h125q-182 -167 -207 -287q-8 -45 14 -68.5t60 -23.5q45 0 98 21l-16 -93q-52 -22 -109 -22z" />
    <glyph glyph-name="tilde" unicode="&#x2dc;" horiz-adv-x="638" 
d="M625 1585q-35 0 -71.5 14.5t-61 32.5t-52 32.5t-47.5 14.5q-57 0 -67 -84h-86q4 90 46.5 138.5t108.5 48.5q46 0 91 -23t81 -46t58 -23q58 0 65 84h88q-4 -91 -46 -140t-107 -49z" />
    <glyph glyph-name="hungarumlaut" unicode="&#x2dd;" horiz-adv-x="686" 
d="M238 1595l184 283h131l-193 -283h-122zM522 1595l191 283h131l-199 -283h-123z" />
    <glyph glyph-name="gravecomb" unicode="&#x300;" horiz-adv-x="0" 
d="M-444 1583l-164 277h131l147 -277h-114z" />
    <glyph glyph-name="acutecomb" unicode="&#x301;" horiz-adv-x="0" 
d="M-547 1583l221 277h148l-246 -277h-123z" />
    <glyph glyph-name="uni0302" unicode="&#x302;" horiz-adv-x="0" 
d="M-367 1849l172 -264h-122l-111 164l-164 -164h-133l256 264h102z" />
    <glyph glyph-name="tildecomb" unicode="&#x303;" horiz-adv-x="0" 
d="M-283 1585q-45 0 -89.5 23.5t-81 47t-60.5 23.5q-58 0 -68 -84h-88q4 89 47.5 138t108.5 49q47 0 92.5 -23t81 -46t57.5 -23q56 0 66 84h86q-4 -91 -46 -140t-106 -49z" />
    <glyph glyph-name="uni0304" unicode="&#x304;" horiz-adv-x="0" 
d="M-160 1735l-16 -107h-506l16 107h506z" />
    <glyph glyph-name="uni0306" unicode="&#x306;" horiz-adv-x="0" 
d="M-416 1585q-140 0 -235 70l16 102q101 -61 223 -61q131 0 256 67l-18 -112q-109 -66 -242 -66z" />
    <glyph glyph-name="uni0307" unicode="&#x307;" horiz-adv-x="0" 
d="M-418 1595q-42 0 -64.5 27t-15.5 72q6 38 33 60t64 22q42 0 64 -27t15 -72q-6 -39 -32 -60.5t-64 -21.5z" />
    <glyph glyph-name="uni0308" unicode="&#x308;" horiz-adv-x="0" 
d="M-565 1628q-37 0 -59.5 27.5t-16.5 64.5q5 31 31.5 54.5t58.5 23.5q38 0 61 -28t17 -64q-6 -33 -32.5 -55.5t-59.5 -22.5zM-227 1628q-37 0 -60.5 27.5t-17.5 64.5q6 31 33 54.5t59 23.5q38 0 61 -28t17 -64q-6 -32 -33 -55t-59 -23z" />
    <glyph glyph-name="uni030A" unicode="&#x30a;" horiz-adv-x="0" 
d="M-424 1534q-89 0 -139 57.5t-35 151.5q15 89 76.5 141.5t148.5 52.5q89 0 138 -57t34 -151q-13 -87 -75.5 -141t-147.5 -54zM-420 1616q51 0 86.5 34t44.5 91q9 51 -16.5 82.5t-71.5 31.5q-53 0 -88.5 -33t-44.5 -91q-7 -52 18.5 -83.5t71.5 -31.5z" />
    <glyph glyph-name="uni030B" unicode="&#x30b;" horiz-adv-x="0" 
d="M-688 1595l184 283h131l-190 -283h-125zM-403 1595l192 283h131l-199 -283h-124z" />
    <glyph glyph-name="uni030C" unicode="&#x30c;" horiz-adv-x="0" 
d="M-410 1585h-102l-172 264h119l110 -163l162 163h139z" />
    <glyph glyph-name="uni0312" unicode="&#x312;" horiz-adv-x="0" 
d="M-489 1929l-97 -346h-116l110 346h103z" />
    <glyph glyph-name="uni0326" unicode="&#x326;" horiz-adv-x="0" 
d="M-874 -485l104 368h117l-119 -368h-102z" />
    <glyph glyph-name="uni0327" unicode="&#x327;" horiz-adv-x="0" 
d="M-655 0l-52 -143q69 2 113.5 -36.5t34.5 -117.5q-11 -85 -81 -130.5t-165 -45.5q-87 0 -156 27l15 94q64 -27 137 -27q64 0 104 24.5t46 69.5q7 51 -48 67.5t-129 -3.5l82 221h99z" />
    <glyph glyph-name="uni0328" unicode="&#x328;" horiz-adv-x="0" 
d="M-692 -473q-83 0 -126 49t-32 127q21 134 193 297h125q-182 -167 -207 -287q-9 -45 13 -68.5t60 -23.5q46 0 99 21l-17 -93q-52 -22 -108 -22z" />
    <glyph glyph-name="uni0401" unicode="&#x401;" horiz-adv-x="970" 
d="M539 1628q-37 0 -59.5 27.5t-16.5 64.5q5 31 31.5 54.5t58.5 23.5q38 0 61 -28t17 -64q-6 -33 -32.5 -55.5t-59.5 -22.5zM877 1628q-37 0 -60.5 27.5t-17.5 64.5q6 31 33 54.5t59 23.5q38 0 61 -28t17 -64q-6 -32 -33 -55t-59 -23zM78 0l227 1434h735l-18 -117h-612
l-86 -537h553l-19 -116h-553l-86 -547h629l-19 -117h-751z" />
    <glyph glyph-name="uni0402" unicode="&#x402;" horiz-adv-x="1169" 
d="M858 1006q138 0 212 -92t50 -244l-71 -445q-18 -123 -84.5 -185.5t-167.5 -62.5q-62 0 -123 21l18 108q41 -16 90 -16q125 0 152 164l63 410q19 113 -25 170t-145 57q-142 0 -282 -133l-121 -758h-121l207 1317h-363l21 117h913l-18 -117h-430l-66 -412q138 101 291 101z
" />
    <glyph glyph-name="uni0403" unicode="&#x403;" horiz-adv-x="923" 
d="M569 1583l222 277h147l-246 -277h-123zM78 0l227 1434h744l-19 -117h-622l-209 -1317h-121z" />
    <glyph glyph-name="uni0404" unicode="&#x404;" horiz-adv-x="972" 
d="M803 1341q-205 0 -350 -146t-203 -421h479l-18 -115h-482q-35 -276 53.5 -421.5t286.5 -145.5q161 0 305 72l-18 -119q-133 -68 -295 -68q-122 0 -217 45.5t-157.5 137.5t-81.5 230.5t10 324.5q56 348 239.5 544.5t436.5 196.5q153 0 266 -74l-17 -106q-103 65 -237 65z
" />
    <glyph glyph-name="uni0405" unicode="&#x405;" horiz-adv-x="964" 
d="M406 -23q-118 0 -209 23.5t-172 77.5l20 117q82 -55 166.5 -79t191.5 -24q150 0 248.5 66t118.5 184q12 77 -18.5 137t-88 100.5t-129.5 76.5t-143 76t-127.5 88t-84.5 123t-13 171q18 114 89.5 193.5t169 114t214.5 34.5q186 0 332 -94l-19 -115q-140 94 -311 94
q-146 0 -241 -59.5t-113 -173.5q-9 -58 8 -107t54 -84.5t86.5 -67.5t105 -61t111.5 -59.5t104.5 -69t83.5 -83.5t50 -108t3 -138q-19 -118 -88.5 -198.5t-170.5 -117.5t-228 -37z" />
    <glyph glyph-name="uni0406" unicode="&#x406;" horiz-adv-x="434" 
d="M426 1434l-227 -1434h-121l227 1434h121z" />
    <glyph glyph-name="uni0407" unicode="&#x407;" horiz-adv-x="434" 
d="M233 1628q-37 0 -59 27.5t-16 64.5q5 31 31.5 54.5t58.5 23.5q38 0 61 -28t17 -64q-6 -33 -33 -55.5t-60 -22.5zM571 1628q-37 0 -60 27.5t-17 64.5q6 31 33 54.5t59 23.5q38 0 61 -28t17 -64q-6 -32 -33.5 -55t-59.5 -23zM426 1434l-227 -1434h-121l227 1434h121z" />
    <glyph glyph-name="uni0408" unicode="&#x408;" horiz-adv-x="831" 
d="M236 -23q-148 0 -267 58l19 115q111 -58 248 -58q122 0 205.5 71t103.5 199l151 955h-336l19 117h457l-170 -1084q-30 -186 -145.5 -279.5t-284.5 -93.5z" />
    <glyph glyph-name="uni0409" unicode="&#x409;" horiz-adv-x="1824" 
d="M1380 815q91 0 167 -26.5t130.5 -77.5t78 -131.5t7.5 -180.5q-64 -397 -508 -397l-387 -2l209 1317h-469q-108 -535 -152 -711q-97 -379 -211 -511q-11 -12 -22 -23q-120 -117 -305 -70l16 102q60 -17 117.5 1t100.5 67q47 50 87 139t89 285t75.5 317t94.5 454
q9 44 14 67h705l-97 -619h260zM1642 410q23 137 -48.5 212.5t-221.5 75.5h-272l-90 -581h266q152 0 247.5 75t118.5 218z" />
    <glyph glyph-name="uni040A" unicode="&#x40a;" horiz-adv-x="1779" 
d="M1335 815q91 0 167 -26.5t130.5 -77.5t78 -131.5t7.5 -180.5q-64 -397 -508 -397l-387 -2l111 698h-625l-110 -698h-121l227 1434h121l-96 -619h622l99 619h120l-96 -619h260zM1597 410q23 137 -48.5 212.5t-221.5 75.5h-272l-90 -581h266q152 0 247.5 75t118.5 218z" />
    <glyph glyph-name="uni040B" unicode="&#x40b;" horiz-adv-x="1173" 
d="M858 1006q138 0 212 -92t50 -244l-106 -670h-121l104 664q19 113 -25 170t-145 57q-142 0 -282 -133l-121 -758h-121l207 1317h-363l21 117h913l-18 -117h-430l-66 -412q138 101 291 101z" />
    <glyph glyph-name="uni040C" unicode="&#x40c;" horiz-adv-x="1071" 
d="M623 1583l221 277h147l-246 -277h-122zM78 0l227 1434h121l-100 -643h184l541 643h149l-590 -705l383 -729h-133l-354 676h-201l-106 -676h-121z" />
    <glyph glyph-name="uni040E" unicode="&#x40e;" horiz-adv-x="1015" 
d="M670 1585q-141 0 -236 70l17 102q101 -61 223 -61q131 0 256 67l-19 -112q-109 -66 -241 -66zM1022 1434h137l-596 -1147q-84 -160 -160.5 -226.5t-169.5 -74.5q-95 -11 -172 16l19 111q80 -26 143 -13q71 10 121.5 65.5t116.5 174.5l-314 1094h119l269 -959z" />
    <glyph glyph-name="uni040F" unicode="&#x40f;" horiz-adv-x="1200" 
d="M1192 1434l-227 -1434h-385l-56 -348h-114l55 348h-387l227 1434h121l-207 -1317h643l209 1317h121z" />
    <glyph glyph-name="uni0410" unicode="&#x410;" horiz-adv-x="1118" 
d="M-63 0l708 1434h133l254 -1434h-121l-65 383h-592l-191 -383h-126zM307 496h520l-110 632q-4 24 -8 51.5t-8 61t-7 53.5q-40 -93 -76 -170z" />
    <glyph glyph-name="uni0411" unicode="&#x411;" horiz-adv-x="1097" 
d="M78 0l227 1434h807l-20 -117h-684l-76 -481h307q202 0 312 -113t79 -313q-32 -200 -166.5 -305t-351.5 -105h-434zM219 117h311q163 0 259.5 77t119.5 224q24 143 -46 222t-230 79h-320z" />
    <glyph glyph-name="uni0412" unicode="&#x412;" horiz-adv-x="1114" 
d="M702 1434q192 0 297.5 -96.5t77.5 -274.5q-20 -127 -94.5 -209t-167.5 -109q34 -7 65.5 -23t64.5 -44.5t53.5 -69t30.5 -97t-3 -128.5q-62 -383 -543 -383h-405l227 1434h397zM694 1317h-286l-80 -514h313q120 0 206 64.5t107 189.5q24 135 -47.5 197.5t-212.5 62.5z
M623 688h-314l-90 -571h256q51 0 90.5 3t88.5 12.5t86.5 29.5t72.5 50t58.5 79t33.5 112q11 72 -2.5 125.5t-41.5 83t-71.5 47.5t-82.5 23.5t-84 5.5z" />
    <glyph glyph-name="uni0413" unicode="&#x413;" horiz-adv-x="923" 
d="M78 0l227 1434h744l-19 -117h-622l-209 -1317h-121z" />
    <glyph glyph-name="uni0414" unicode="&#x414;" horiz-adv-x="1271" 
d="M-117 -348l74 465h145q208 405 353 1317h768l-209 -1317h153l-73 -465h-115l53 348h-979l-53 -348h-117zM236 117h657l188 1200h-524q-123 -775 -321 -1200z" />
    <glyph glyph-name="uni0415" unicode="&#x415;" horiz-adv-x="970" 
d="M78 0l227 1434h735l-18 -117h-612l-86 -537h553l-19 -116h-553l-86 -547h629l-19 -117h-751z" />
    <glyph glyph-name="uni0416" unicode="&#x416;" horiz-adv-x="1552" 
d="M-76 0l565 739l-309 695h127l281 -643h176l102 643h121l-102 -643h157l484 643h149l-534 -703l329 -731h-133l-299 676h-172l-106 -676h-121l106 676h-165l-512 -676h-144z" />
    <glyph glyph-name="uni0417" unicode="&#x417;" horiz-adv-x="976" 
d="M360 -23q-220 0 -385 80l19 117q160 -82 350 -82q55 0 106.5 8t105 29.5t95 54t73 86t42.5 121.5q13 82 -8 143t-65.5 93t-94 46.5t-102.5 14.5h-203l20 115h185q118 0 207.5 73t109.5 197q11 71 -6 124t-56.5 83.5t-92.5 45.5t-121 15q-164 0 -349 -84l19 121
q169 78 346 78q90 0 165.5 -24t130 -70t78.5 -120t9 -167q-19 -124 -93.5 -212.5t-160.5 -117.5q27 -9 54.5 -25t61 -46.5t54 -72t33 -100t-1.5 -130.5q-13 -86 -51.5 -154.5t-90.5 -112.5t-118.5 -73.5t-131.5 -41.5t-133 -12z" />
    <glyph glyph-name="uni0418" unicode="&#x418;" horiz-adv-x="1220" 
d="M985 0h-121l142 893q35 215 61 326l-854 -1219h-135l227 1434h121l-141 -891q-24 -165 -62 -328l854 1219h135z" />
    <glyph glyph-name="uni0419" unicode="&#x419;" horiz-adv-x="1220" 
d="M784 1571q-150 0 -241 74l16 98q100 -68 229 -68q140 0 263 72l-17 -107q-104 -69 -250 -69zM985 0h-121l142 893q35 215 61 326l-854 -1219h-135l227 1434h121l-141 -891q-24 -165 -62 -328l854 1219h135z" />
    <glyph glyph-name="uni041A" unicode="&#x41a;" horiz-adv-x="1071" 
d="M78 0l227 1434h121l-100 -643h184l541 643h149l-590 -705l383 -729h-133l-354 676h-201l-106 -676h-121z" />
    <glyph glyph-name="uni041B" unicode="&#x41b;" horiz-adv-x="1257" 
d="M-82 2l16 102q60 -17 117.5 1t100.5 67q47 50 87 139t89 285t75.5 317t94.5 454q9 44 14 67h739l-227 -1434h-121l207 1317h-502q-8 -37 -22 -110q-36 -180 -54.5 -268t-50 -229t-55 -217.5t-56.5 -168.5t-68 -149.5t-75 -96.5q-58 -57 -137.5 -77.5t-171.5 1.5z" />
    <glyph glyph-name="uni041C" unicode="&#x41c;" horiz-adv-x="1433" 
d="M78 0l227 1434h119l299 -865l565 865h139l-227 -1434h-121l140 883q34 216 63 336l-551 -840h-59l-291 840q-12 -140 -43 -345l-139 -874h-121z" />
    <glyph glyph-name="uni041D" unicode="&#x41d;" horiz-adv-x="1220" 
d="M1212 1434l-227 -1434h-121l105 662h-666l-104 -662h-121l227 1434h121l-102 -656h663l105 656h120z" />
    <glyph glyph-name="uni041E" unicode="&#x41e;" horiz-adv-x="1198" 
d="M530 -23q-246 0 -357 198.5t-56 549.5q56 349 217.5 540t413.5 191q243 0 351.5 -198t53.5 -549q-57 -353 -212.5 -542.5t-410.5 -189.5zM530 92q195 0 324 160.5t176 464.5t-27.5 464t-263.5 160q-195 0 -322 -159.5t-177 -464.5q-47 -304 27.5 -464.5t262.5 -160.5z
" />
    <glyph glyph-name="uni041F" unicode="&#x41f;" horiz-adv-x="1220" 
d="M78 0l227 1434h907l-227 -1434h-121l209 1317h-665l-209 -1317h-121z" />
    <glyph glyph-name="uni0420" unicode="&#x420;" horiz-adv-x="1067" 
d="M676 1434q95 0 175.5 -29.5t140 -85t85.5 -145.5t8 -203q-35 -224 -176.5 -336.5t-371.5 -112.5h-254l-84 -522h-121l227 1434h371zM668 1317h-260l-107 -678h254q166 0 273.5 87t134.5 253q26 162 -55.5 250t-239.5 88z" />
    <glyph glyph-name="uni0421" unicode="&#x421;" horiz-adv-x="972" 
d="M569 -23q-122 0 -218.5 48t-160.5 141.5t-85 232.5t8 322q29 173 94 313t154.5 232t200 141t231.5 49q153 0 262 -74l-19 -106q-95 65 -231 65q-211 0 -365 -162.5t-204 -465.5q-49 -294 45.5 -457.5t296.5 -163.5q150 0 294 72l-20 -119q-133 -68 -283 -68z" />
    <glyph glyph-name="uni0422" unicode="&#x422;" horiz-adv-x="960" 
d="M340 0l209 1317h-397l18 117h915l-18 -117h-397l-209 -1317h-121z" />
    <glyph glyph-name="uni0423" unicode="&#x423;" horiz-adv-x="1015" 
d="M1022 1434h137l-596 -1147q-84 -160 -160.5 -226.5t-169.5 -74.5q-95 -11 -172 16l19 111q80 -26 143 -13q71 10 121.5 65.5t116.5 174.5l-314 1094h119l269 -959z" />
    <glyph glyph-name="uni0424" unicode="&#x424;" horiz-adv-x="1382" 
d="M541 -74l28 183q-258 24 -394 191t-97 425q42 259 222.5 421t461.5 179l31 182h120l-30 -182q258 -22 395 -190t96 -426q-40 -259 -218.5 -419.5t-463.5 -180.5l-30 -183h-121zM588 223l155 985q-222 -13 -365.5 -147.5t-176.5 -343.5q-32 -205 69 -343t318 -151z
M709 223q229 13 370 147.5t174 346.5q19 99 1.5 185.5t-62.5 152t-129 106t-199 47.5z" />
    <glyph glyph-name="uni0425" unicode="&#x425;" 
d="M-78 0l582 748l-322 686h119l277 -588l458 588h138l-543 -701l342 -733h-121l-297 635l-494 -635h-139z" />
    <glyph glyph-name="uni0426" unicode="&#x426;" horiz-adv-x="1243" 
d="M950 -348l58 348h-930l227 1434h121l-207 -1317h643l209 1317h121l-207 -1317h156l-74 -465h-117z" />
    <glyph glyph-name="uni0427" unicode="&#x427;" horiz-adv-x="1128" 
d="M772 0l94 592q-164 -82 -362 -82q-189 3 -285.5 109t-66.5 292l81 523h121l-84 -537q-21 -133 46.5 -200.5t207.5 -69.5q191 -3 363 94l112 713h121l-227 -1434h-121z" />
    <glyph glyph-name="uni0428" unicode="&#x428;" horiz-adv-x="1773" 
d="M78 0l227 1434h121l-207 -1317h549l207 1317h123l-209 -1317h549l209 1317h120l-227 -1434h-1462z" />
    <glyph glyph-name="uni0429" unicode="&#x429;" horiz-adv-x="1777" 
d="M1485 -348l55 348h-1462l227 1434h121l-207 -1317h529l206 1317h123l-209 -1317h529l209 1317h120l-208 -1317h157l-73 -465h-117z" />
    <glyph glyph-name="uni042A" unicode="&#x42a;" horiz-adv-x="1234" 
d="M254 0l209 1317h-320l21 117h438l-86 -551h250q101 0 182.5 -28t139.5 -82.5t82.5 -141.5t7.5 -197q-35 -217 -176 -325.5t-371 -108.5h-377zM395 117h254q165 0 273.5 82t132.5 243q26 159 -51.5 242.5t-245.5 83.5h-260z" />
    <glyph glyph-name="uni042B" unicode="&#x42b;" horiz-adv-x="1492" 
d="M78 0l227 1434h121l-86 -551h250q101 0 182.5 -28t139.5 -82.5t82 -141.5t7 -197q-35 -217 -175.5 -325.5t-370.5 -108.5h-377zM1485 1434l-228 -1434h-120l227 1434h121zM219 117h254q165 0 273.5 82t132.5 243q26 159 -51.5 242.5t-245.5 83.5h-260z" />
    <glyph glyph-name="uni042C" unicode="&#x42c;" horiz-adv-x="1058" 
d="M78 0l227 1434h121l-86 -551h250q101 0 182.5 -28t139.5 -82.5t82 -141.5t7 -197q-35 -217 -175.5 -325.5t-370.5 -108.5h-377zM219 117h254q165 0 273.5 82t132.5 243q26 159 -51.5 242.5t-245.5 83.5h-260z" />
    <glyph glyph-name="uni042D" unicode="&#x42d;" horiz-adv-x="976" 
d="M477 1456q119 0 213.5 -48t158.5 -143.5t86 -237t-5 -329.5q-58 -368 -228.5 -544.5t-425.5 -176.5q-182 0 -296 70l16 117q129 -72 278 -72q197 0 334 143t191 424h-482l19 115h479q30 278 -65.5 422.5t-284.5 144.5q-145 0 -283 -69l19 114q126 70 276 70z" />
    <glyph glyph-name="uni042E" unicode="&#x42e;" horiz-adv-x="1607" 
d="M1157 1456q243 0 352 -198t54 -549q-57 -353 -212.5 -542.5t-410.5 -189.5q-233 0 -343.5 180.5t-72.5 501.5h-221l-104 -659h-121l227 1434h121l-104 -660h219q62 326 219.5 504t396.5 178zM1440 717q47 304 -27.5 464t-263.5 160q-195 0 -322.5 -159.5t-177.5 -464.5
q-47 -304 28 -464.5t263 -160.5q195 0 324 160.5t176 464.5z" />
    <glyph glyph-name="uni042F" unicode="&#x42f;" horiz-adv-x="1126" 
d="M-37 0l443 604q-131 41 -194.5 148t-39.5 262q34 209 170.5 314.5t341.5 105.5h436l-227 -1434h-123l92 580h-272q-42 0 -60 2l-421 -582h-146zM567 694h316l96 623h-313q-142 0 -245 -78.5t-128 -232.5q-24 -149 55 -230.5t219 -81.5z" />
    <glyph glyph-name="uni0430" unicode="&#x430;" horiz-adv-x="972" 
d="M379 -23q-121 0 -198.5 70.5t-102.5 187t-2 265.5q17 109 53.5 199.5t91.5 160t132 108t169 38.5q105 0 173.5 -51t99.5 -136l24 164h107l-156 -983h-106l26 156q-122 -179 -311 -179zM397 84q189 0 303 211l64 397q-22 98 -81.5 152.5t-143.5 54.5q-141 0 -228 -109
t-118 -298q-29 -186 21.5 -297t182.5 -111z" />
    <glyph glyph-name="uni0431" unicode="&#x431;" horiz-adv-x="972" 
d="M436 -23q-194 0 -288 148.5t-50 427.5q38 253 124 404.5t224 234.5q59 36 245 117.5t272 148.5l-23 -137q-71 -53 -227 -122t-217 -107q-82 -51 -146 -142.5t-96 -204.5q124 197 336 197q168 0 252 -134t49 -353q-34 -227 -150 -352.5t-305 -125.5zM436 88
q145 0 229.5 99t110.5 272q28 167 -25 269.5t-188 102.5q-132 0 -223 -94.5t-133 -251.5q-29 -179 29.5 -288t199.5 -109z" />
    <glyph glyph-name="uni0432" unicode="&#x432;" horiz-adv-x="903" 
d="M47 0l156 983h372q128 0 205.5 -72.5t57.5 -195.5q-12 -78 -59.5 -135t-121.5 -82q73 -19 115.5 -81t26.5 -159q-21 -125 -109.5 -191.5t-243.5 -66.5h-399zM252 549h248q91 0 149.5 41.5t71.5 124.5q12 84 -34 125t-134 41h-250zM180 102h260q219 0 246 174
q14 92 -37.5 131t-140.5 39h-272z" />
    <glyph glyph-name="uni0433" unicode="&#x433;" horiz-adv-x="733" 
d="M47 0l156 983h581l-18 -109h-463l-139 -874h-117z" />
    <glyph glyph-name="uni0434" unicode="&#x434;" horiz-adv-x="1032" 
d="M-106 -272l59 376h121q89 170 150.5 380.5t105.5 498.5h608l-137 -879h135l-59 -376h-115l43 272h-756l-43 -272h-112zM201 104h483l123 775h-381q-82 -472 -225 -775z" />
    <glyph glyph-name="uni0435" unicode="&#x435;" horiz-adv-x="897" 
d="M459 -23q-220 0 -321 141t-64 382q37 233 165.5 369.5t309.5 136.5q128 0 206.5 -76t93 -203t-25.5 -293h-639q-13 -176 61 -262t224 -86q134 0 250 55l-19 -112q-112 -52 -241 -52zM201 537h528q31 166 -15.5 262t-168.5 96q-63 0 -117.5 -25.5t-91 -63t-65.5 -88
t-44.5 -94t-25.5 -87.5z" />
    <glyph glyph-name="uni0436" unicode="&#x436;" horiz-adv-x="1234" 
d="M-61 0l403 500l-225 483h125l192 -426h137l68 426h115l-68 -426h125l324 426h143l-379 -489l242 -494h-127l-211 449h-133l-72 -449h-115l72 449h-117l-356 -449h-143z" />
    <glyph glyph-name="uni0437" unicode="&#x437;" horiz-adv-x="782" 
d="M272 -23q-175 0 -288 62l16 108q113 -63 276 -63q48 0 92.5 10t85.5 31t70 59.5t37 89.5q7 48 -7 83t-43.5 53.5t-63.5 27t-74 8.5h-150l17 109h145q86 0 146.5 44t72.5 126q14 86 -42.5 130t-155.5 44q-144 0 -281 -63l18 112q139 60 285 60q144 0 228 -78t63 -207
q-12 -84 -59.5 -144t-112.5 -81q58 -20 99.5 -88t27.5 -160q-21 -133 -130.5 -203t-271.5 -70z" />
    <glyph glyph-name="uni0438" unicode="&#x438;" horiz-adv-x="968" 
d="M47 0l156 983h116l-90 -565q-19 -124 -43 -225l617 790h117l-156 -983h-115l90 565q22 143 45 226l-618 -791h-119z" />
    <glyph glyph-name="uni0439" unicode="&#x439;" horiz-adv-x="968" 
d="M592 1130q-142 0 -230 62l19 108q95 -63 215 -63q123 0 250 68l-19 -115q-106 -60 -235 -60zM47 0l156 983h116l-90 -565q-19 -124 -43 -225l617 790h117l-156 -983h-115l90 565q22 143 45 226l-618 -791h-119z" />
    <glyph glyph-name="uni043A" unicode="&#x43a;" horiz-adv-x="849" 
d="M47 0l156 983h116l-67 -426h149l365 426h143l-413 -487l274 -496h-133l-244 449h-157l-72 -449h-117z" />
    <glyph glyph-name="uni043B" unicode="&#x43b;" horiz-adv-x="970" 
d="M-66 2l17 98q95 -17 153 33q67 60 117.5 246t132.5 604h570l-156 -983h-117l140 874h-345q-81 -402 -120 -537q-63 -214 -148 -294q-103 -81 -244 -41z" />
    <glyph glyph-name="uni043C" unicode="&#x43c;" horiz-adv-x="1153" 
d="M47 0l156 983h114l236 -588l418 588h133l-156 -983h-110l100 625q16 106 45 194l-399 -561h-86l-224 555q-3 -90 -18 -197l-98 -616h-111z" />
    <glyph glyph-name="uni043D" unicode="&#x43d;" horiz-adv-x="954" 
d="M47 0l156 983h116l-69 -438h471l70 438h116l-155 -983h-117l70 438h-472l-69 -438h-117z" />
    <glyph glyph-name="uni043E" unicode="&#x43e;" horiz-adv-x="948" 
d="M545 1006q189 0 277 -138t50 -385q-39 -242 -157.5 -374t-311.5 -132q-190 0 -277.5 138.5t-49.5 384.5q39 239 161 372.5t308 133.5zM545 899q-138 0 -229 -107.5t-123 -308.5q-31 -192 23.5 -294.5t186.5 -102.5q140 0 231 106.5t122 307.5q31 192 -25 295.5
t-186 103.5z" />
    <glyph glyph-name="uni043F" unicode="&#x43f;" horiz-adv-x="954" 
d="M47 0l156 983h704l-155 -983h-117l139 879h-471l-139 -879h-117z" />
    <glyph glyph-name="uni0440" unicode="&#x440;" horiz-adv-x="972" 
d="M592 1006q123 0 201 -70.5t102.5 -187t1.5 -265.5q-17 -109 -53.5 -199.5t-91 -160t-131.5 -108t-168 -38.5q-104 0 -171.5 48.5t-95.5 121.5l-94 -598h-117l228 1434h106l-24 -156q113 179 307 179zM575 899q-185 0 -303 -211l-63 -397q22 -98 82 -152.5t149 -54.5
q135 0 222.5 109t117.5 299q29 184 -20.5 295.5t-184.5 111.5z" />
    <glyph glyph-name="uni0441" unicode="&#x441;" horiz-adv-x="778" 
d="M430 -23q-201 0 -297 142.5t-59 380.5q37 233 170 369.5t331 136.5q122 0 211 -56l-16 -104q-76 53 -186 53q-155 0 -257.5 -109t-133.5 -298q-28 -190 34.5 -298t212.5 -108q124 0 228 55l-17 -112q-102 -52 -221 -52z" />
    <glyph glyph-name="uni0442" unicode="&#x442;" horiz-adv-x="745" 
d="M238 0l139 879h-291l16 104h697l-17 -104h-288l-142 -879h-114z" />
    <glyph glyph-name="uni0443" unicode="&#x443;" horiz-adv-x="882" 
d="M801 983h133l-557 -1139q-91 -190 -195 -256q-90 -56 -213 -39l17 105q79 -11 143 31q44 30 81 88t120 223l-236 987h119l190 -840z" />
    <glyph glyph-name="uni0444" unicode="&#x444;" horiz-adv-x="1198" 
d="M391 -451l70 433q-131 15 -226.5 80.5t-140 181t-20.5 262.5q35 222 182 354t367 146l67 428h117l-70 -433q202 -22 312.5 -162.5t76.5 -361.5q-37 -223 -183.5 -354.5t-367.5 -145.5l-67 -428h-117zM594 84q170 15 280.5 120.5t139.5 287.5q29 181 -48 288t-243 121z
M475 82l131 817q-171 -15 -281.5 -120t-140.5 -287q-27 -179 53 -287.5t238 -122.5z" />
    <glyph glyph-name="uni0445" unicode="&#x445;" horiz-adv-x="833" 
d="M-66 0l422 510l-241 473h116l181 -352q9 -16 16 -33q3 5 23 33l282 352h146l-396 -479l258 -504h-123l-186 373q-7 13 -20 49q-12 -21 -33 -45l-307 -377h-138z" />
    <glyph glyph-name="uni0446" unicode="&#x446;" horiz-adv-x="980" 
d="M711 -272l43 272h-707l156 983h116l-137 -874h451l137 874h117l-139 -874h137l-60 -381h-114z" />
    <glyph glyph-name="uni0447" unicode="&#x447;" horiz-adv-x="884" 
d="M565 0l60 379q-113 -49 -246 -49q-68 0 -124.5 19t-97.5 56.5t-58.5 98.5t-4.5 139l53 340h117l-53 -340q-18 -106 34 -156.5t156 -50.5q124 0 242 53l78 494h117l-156 -983h-117z" />
    <glyph glyph-name="uni0448" unicode="&#x448;" horiz-adv-x="1349" 
d="M47 0l156 983h116l-137 -874h375l137 874h117l-137 -874h375l137 874h117l-156 -983h-1100z" />
    <glyph glyph-name="uni0449" unicode="&#x449;" horiz-adv-x="1361" 
d="M1092 -272l43 272h-1088l156 983h116l-137 -874h359l137 874h117l-140 -874h359l139 874h115l-138 -874h136l-60 -381h-114z" />
    <glyph glyph-name="uni044A" unicode="&#x44a;" horiz-adv-x="1032" 
d="M205 0l139 881h-260l14 102h377l-55 -358h242q106 0 177 -46t97 -117.5t12 -156.5q-10 -62 -35.5 -114.5t-70 -96.5t-115 -69t-160.5 -25h-362zM338 104h227q117 0 186 56.5t83 154.5q16 94 -33 149.5t-166 55.5h-232z" />
    <glyph glyph-name="uni044B" unicode="&#x44b;" horiz-adv-x="1251" 
d="M47 0l156 983h116l-55 -358h240q159 0 235 -93.5t54 -226.5q-10 -62 -35.5 -114.5t-70 -96.5t-115.5 -69t-162 -25h-363zM932 0l155 983h117l-155 -983h-117zM182 104h228q116 0 184.5 56.5t83.5 154.5q14 94 -35 149.5t-164 55.5h-233z" />
    <glyph glyph-name="uni044C" unicode="&#x44c;" horiz-adv-x="876" 
d="M47 0l156 983h116l-55 -358h240q159 0 235 -93.5t54 -226.5q-10 -62 -35.5 -114.5t-70 -96.5t-115.5 -69t-162 -25h-363zM182 104h228q116 0 184.5 56.5t83.5 154.5q14 94 -35 149.5t-164 55.5h-233z" />
    <glyph glyph-name="uni044D" unicode="&#x44d;" horiz-adv-x="798" 
d="M369 1006q192 0 292.5 -140.5t63.5 -382.5q-38 -241 -171 -373.5t-337 -132.5q-146 0 -235 54l18 108q91 -53 209 -53q149 0 249 91t138 261h-387l18 107h387q17 170 -54 262t-218 92q-107 0 -221 -57l18 112q101 52 230 52z" />
    <glyph glyph-name="uni044E" unicode="&#x44e;" horiz-adv-x="1298" 
d="M895 1006q190 0 278.5 -138.5t49.5 -384.5q-37 -242 -156 -374t-311 -132q-176 0 -264 121.5t-66 339.5h-193l-69 -438h-117l156 983h116l-69 -438h192q43 220 160 340.5t293 120.5zM1108 500q30 192 -26.5 295.5t-186.5 103.5q-138 0 -228 -107t-124 -309
q-29 -192 26 -294.5t187 -102.5q139 0 230 107t122 307z" />
    <glyph glyph-name="uni044F" unicode="&#x44f;" horiz-adv-x="890" 
d="M-43 0l342 377q-101 28 -153 112t-33 193q21 133 117 217t253 84h361l-156 -983h-117l60 365h-162q-27 0 -39 2l-328 -367h-145zM412 469h235l66 410h-232q-103 0 -172 -55t-82 -150q-15 -93 34.5 -149t150.5 -56z" />
    <glyph glyph-name="uni0451" unicode="&#x451;" horiz-adv-x="897" 
d="M410 1178q-37 0 -59.5 27.5t-16.5 64.5q5 31 31.5 54.5t58.5 23.5q38 0 61 -28.5t17 -64.5q-6 -33 -32.5 -55t-59.5 -22zM748 1178q-37 0 -60.5 27.5t-17.5 64.5q6 31 33 54.5t59 23.5q38 0 61 -28.5t17 -64.5q-6 -32 -33 -54.5t-59 -22.5zM459 -23q-220 0 -321 141
t-64 382q37 233 165.5 369.5t309.5 136.5q128 0 206.5 -76t93 -203t-25.5 -293h-639q-13 -176 61 -262t224 -86q134 0 250 55l-19 -112q-112 -52 -241 -52zM201 537h528q31 166 -15.5 262t-168.5 96q-63 0 -117.5 -25.5t-91 -63t-65.5 -88t-44.5 -94t-25.5 -87.5z" />
    <glyph glyph-name="uni0452" unicode="&#x452;" horiz-adv-x="944" 
d="M600 1006q133 0 206.5 -95t47.5 -247l-141 -889q-18 -122 -84.5 -185t-167.5 -63q-77 0 -123 18l16 103q51 -15 90 -15q65 0 105.5 43.5t52.5 130.5l137 859q19 116 -29 174.5t-143 58.5q-93 0 -172.5 -62t-124.5 -151l-108 -686h-115l186 1174h-124l14 90h123l28 170
h115l-27 -170h359l-14 -90h-359l-51 -316q115 148 303 148z" />
    <glyph glyph-name="uni0453" unicode="&#x453;" horiz-adv-x="733" 
d="M381 1133l221 276h148l-246 -276h-123zM47 0l156 983h581l-18 -109h-463l-139 -874h-117z" />
    <glyph glyph-name="uni0454" unicode="&#x454;" horiz-adv-x="798" 
d="M598 899q-148 0 -251 -94.5t-142 -259.5h385l-19 -107h-385q-14 -167 54.5 -259.5t214.5 -92.5q129 0 233 55l-18 -112q-99 -52 -226 -52q-209 0 -308.5 142.5t-61.5 380.5q37 232 174.5 369t341.5 137q125 0 217 -56l-16 -104q-82 53 -193 53z" />
    <glyph glyph-name="uni0455" unicode="&#x455;" horiz-adv-x="772" 
d="M465 1006q152 0 266 -68l-18 -109q-106 72 -242 72q-96 0 -162.5 -39.5t-79.5 -113.5q-8 -49 15.5 -87.5t66 -64.5t95.5 -50t105 -51.5t93.5 -61.5t62 -88.5t9.5 -123.5q-14 -85 -69 -141.5t-129.5 -79.5t-168.5 -23q-193 0 -303 78l19 111q113 -82 282 -82q107 0 175 38
t81 116q8 49 -15 87.5t-65.5 65t-95 51t-105 52.5t-93.5 62t-62 88t-10 122q18 115 114.5 177.5t233.5 62.5z" />
    <glyph glyph-name="uni0456" unicode="&#x456;" horiz-adv-x="376" 
d="M307 1204q-36 0 -56.5 22t-14.5 62q6 34 29 53t54 19q35 0 56.5 -23.5t17.5 -62.5q-6 -35 -30 -52.5t-56 -17.5zM53 0l156 983h115l-156 -983h-115z" />
    <glyph glyph-name="uni0457" unicode="&#x457;" horiz-adv-x="376" 
d="M133 1178q-37 0 -59.5 27.5t-16.5 64.5q5 31 31.5 54.5t58.5 23.5q38 0 61 -28.5t17 -64.5q-6 -33 -32.5 -55t-59.5 -22zM471 1178q-37 0 -60.5 27.5t-17.5 64.5q6 31 33 54.5t59 23.5q38 0 61 -28.5t17 -64.5q-6 -32 -33 -54.5t-59 -22.5zM53 0l156 983h115l-156 -983
h-115z" />
    <glyph glyph-name="uni0458" unicode="&#x458;" horiz-adv-x="387" 
d="M317 1204q-36 0 -57 22.5t-14 61.5q4 34 28.5 53t55.5 19q36 0 57.5 -23.5t15.5 -62.5q-6 -35 -30 -52.5t-56 -17.5zM-109 -473q-75 0 -122 18l16 105q43 -17 90 -17q132 0 158 174l186 1176h117l-193 -1208q-41 -248 -252 -248z" />
    <glyph glyph-name="uni0459" unicode="&#x459;" horiz-adv-x="1433" 
d="M1077 584q148 0 220 -85t51 -214q-20 -127 -110 -206t-249 -79h-358l139 874h-324q-81 -402 -120 -537q-63 -214 -148 -294q-103 -81 -244 -41l17 98q95 -17 153 33q67 60 117.5 246t132.5 604h549l-63 -399h237zM1233 293q14 90 -31.5 138t-148.5 48h-230l-59 -375h225
q100 0 164.5 48.5t79.5 140.5z" />
    <glyph glyph-name="uni045A" unicode="&#x45a;" horiz-adv-x="1417" 
d="M1061 584q148 0 219.5 -85t50.5 -214q-20 -127 -109.5 -206t-248.5 -79h-359l76 479h-450l-76 -479h-117l156 983h116l-63 -399h451l63 399h117l-64 -399h238zM1217 293q14 90 -32 138t-149 48h-229l-59 -375h225q100 0 164.5 48.5t79.5 140.5z" />
    <glyph glyph-name="uni045B" unicode="&#x45b;" horiz-adv-x="946" 
d="M600 1006q133 0 206.5 -94.5t49.5 -247.5l-104 -664h-117l104 666q19 117 -28.5 175t-143.5 58q-91 0 -170.5 -62t-124.5 -151l-108 -686h-117l186 1174h-122l12 90h125l26 170h117l-26 -170h356l-12 -90h-361l-49 -316q112 148 301 148z" />
    <glyph glyph-name="uni045C" unicode="&#x45c;" horiz-adv-x="849" 
d="M428 1133l221 276h148l-246 -276h-123zM47 0l156 983h116l-67 -426h149l365 426h143l-413 -487l274 -496h-133l-244 449h-157l-72 -449h-117z" />
    <glyph glyph-name="uni045E" unicode="&#x45e;" horiz-adv-x="882" 
d="M535 1135q-142 0 -236 69l16 103q103 -62 224 -62q129 0 256 68l-19 -113q-107 -65 -241 -65zM801 983h133l-557 -1139q-91 -190 -195 -256q-90 -56 -213 -39l17 105q79 -11 143 31q44 30 81 88t120 223l-236 987h119l190 -840z" />
    <glyph glyph-name="uni045F" unicode="&#x45f;" horiz-adv-x="933" 
d="M887 983l-156 -983h-285l-43 -272h-112l41 272h-285l156 983h116l-137 -874h451l137 874h117z" />
    <glyph glyph-name="uni0490" unicode="&#x490;" horiz-adv-x="923" 
d="M979 1720h115l-64 -403h-622l-209 -1317h-121l227 1434h629z" />
    <glyph glyph-name="uni0491" unicode="&#x491;" horiz-adv-x="733" 
d="M709 1229h114l-57 -355h-463l-139 -874h-117l156 983h469z" />
    <glyph glyph-name="Wgrave" unicode="&#x1e80;" horiz-adv-x="1613" 
d="M952 1583l-164 277h132l147 -277h-115zM281 0l-109 1434h121l82 -1248l532 1221h78l143 -1221l480 1248h129l-563 -1434h-125l-138 1151l-503 -1151h-127z" />
    <glyph glyph-name="wgrave" unicode="&#x1e81;" horiz-adv-x="1306" 
d="M721 1133l-164 276h131l148 -276h-115zM225 0l-119 983h115l84 -823l367 809h100l111 -805l340 819h131l-428 -983h-119l-107 788l-356 -788h-119z" />
    <glyph glyph-name="Wacute" unicode="&#x1e82;" horiz-adv-x="1613" 
d="M874 1583l222 277h147l-246 -277h-123zM281 0l-109 1434h121l82 -1248l532 1221h78l143 -1221l480 1248h129l-563 -1434h-125l-138 1151l-503 -1151h-127z" />
    <glyph glyph-name="wacute" unicode="&#x1e83;" horiz-adv-x="1306" 
d="M643 1133l221 276h148l-246 -276h-123zM225 0l-119 983h115l84 -823l367 809h100l111 -805l340 819h131l-428 -983h-119l-107 788l-356 -788h-119z" />
    <glyph glyph-name="Wdieresis" unicode="&#x1e84;" horiz-adv-x="1613" 
d="M821 1628q-37 0 -59.5 27.5t-16.5 64.5q5 31 32 54.5t59 23.5q38 0 60.5 -28t16.5 -64q-6 -33 -32.5 -55.5t-59.5 -22.5zM1159 1628q-37 0 -60.5 27.5t-17.5 64.5q6 31 33.5 54.5t59.5 23.5q38 0 60.5 -28t16.5 -64q-6 -32 -33 -55t-59 -23zM281 0l-109 1434h121
l82 -1248l532 1221h78l143 -1221l480 1248h129l-563 -1434h-125l-138 1151l-503 -1151h-127z" />
    <glyph glyph-name="wdieresis" unicode="&#x1e85;" horiz-adv-x="1306" 
d="M590 1178q-37 0 -59.5 27.5t-16.5 64.5q5 31 31.5 54.5t58.5 23.5q38 0 61 -28.5t17 -64.5q-6 -33 -32.5 -55t-59.5 -22zM928 1178q-37 0 -60.5 27.5t-17.5 64.5q6 31 33 54.5t59 23.5q38 0 61 -28.5t17 -64.5q-6 -32 -33 -54.5t-59 -22.5zM225 0l-119 983h115l84 -823
l367 809h100l111 -805l340 819h131l-428 -983h-119l-107 788l-356 -788h-119z" />
    <glyph glyph-name="Ygrave" unicode="&#x1ef2;" horiz-adv-x="1069" 
d="M672 1583l-164 277h131l147 -277h-114zM391 0l98 610l-331 824h118l285 -711l500 711h141l-592 -824l-98 -610h-121z" />
    <glyph glyph-name="ygrave" unicode="&#x1ef3;" horiz-adv-x="882" 
d="M496 1133l-164 276h131l147 -276h-114zM801 983h133l-557 -1139q-91 -190 -195 -256q-90 -56 -213 -39l17 105q79 -11 143 31q44 30 81 88t120 223l-236 987h119l190 -840z" />
    <glyph glyph-name="endash" unicode="&#x2013;" horiz-adv-x="952" 
d="M100 449l17 110h739l-16 -110h-740z" />
    <glyph glyph-name="emdash" unicode="&#x2014;" horiz-adv-x="1310" 
d="M100 449l17 110h1097l-16 -110h-1098z" />
    <glyph glyph-name="quoteleft" unicode="&#x2018;" horiz-adv-x="344" 
d="M168 977l133 457h96l-106 -457h-123z" />
    <glyph glyph-name="quoteright" unicode="&#x2019;" horiz-adv-x="339" 
d="M176 977l107 457h123l-134 -457h-96z" />
    <glyph glyph-name="quotesinglbase" unicode="&#x201a;" horiz-adv-x="327" 
d="M-37 -301l107 459h123l-136 -459h-94z" />
    <glyph glyph-name="quotedblleft" unicode="&#x201c;" horiz-adv-x="610" 
d="M168 977l133 457h96l-106 -457h-123zM434 977l133 457h97l-107 -457h-123z" />
    <glyph glyph-name="quotedblright" unicode="&#x201d;" horiz-adv-x="606" 
d="M176 977l107 457h123l-134 -457h-96zM442 977l107 457h123l-133 -457h-97z" />
    <glyph glyph-name="quotedblbase" unicode="&#x201e;" horiz-adv-x="593" 
d="M-37 -301l107 459h123l-136 -459h-94zM229 -301l107 459h123l-135 -459h-95z" />
    <glyph glyph-name="dagger" unicode="&#x2020;" horiz-adv-x="843" 
d="M211 -451l209 1317h-287l19 117h286l72 451h121l-72 -451h287l-19 -117h-286l-209 -1317h-121z" />
    <glyph glyph-name="daggerdbl" unicode="&#x2021;" horiz-adv-x="843" 
d="M203 -451l102 641h-287l19 115h287l88 561h-287l18 117h287l72 451h121l-72 -451h287l-19 -117h-287l-88 -561h287l-18 -115h-287l-102 -641h-121z" />
    <glyph glyph-name="bullet" unicode="&#x2022;" horiz-adv-x="557" 
d="M297 588q-58 0 -92 36.5t-25 100.5q9 57 50 89t94 32q59 0 93 -36.5t25 -100.5q-9 -57 -50 -89t-95 -32z" />
    <glyph glyph-name="ellipsis" unicode="&#x2026;" horiz-adv-x="960" 
d="M418 -16q-36 0 -57.5 24.5t-14.5 65.5q4 35 28.5 54t57.5 19q36 0 58 -24.5t16 -65.5q-6 -35 -30.5 -54t-57.5 -19zM733 -16q-37 0 -59 24.5t-15 65.5q6 35 30.5 54t55.5 19q37 0 58.5 -24.5t15.5 -65.5q-6 -35 -30.5 -54t-55.5 -19zM104 -16q-37 0 -58 24.5t-15 65.5
q6 35 30.5 54t55.5 19q37 0 58.5 -24.5t14.5 -65.5q-6 -35 -30.5 -54t-55.5 -19z" />
    <glyph glyph-name="perthousand" unicode="&#x2030;" horiz-adv-x="1941" 
d="M410 838q-128 0 -197 88.5t-47 228.5q24 135 112 218t214 83q128 0 196 -88.5t45 -228.5q-22 -135 -109 -218t-214 -83zM68 0l1110 1434h116l-1110 -1434h-116zM414 940q81 0 137.5 55.5t73.5 155.5q15 92 -23.5 147.5t-116.5 55.5q-81 0 -137.5 -55.5t-73.5 -155.5
q-15 -92 23.5 -147.5t116.5 -55.5zM872 -23q-128 0 -196.5 89t-46.5 229q24 135 111.5 218t213.5 83q128 0 196.5 -88.5t45.5 -228.5q-22 -136 -109.5 -219t-214.5 -83zM1534 -23q-127 0 -196 89t-46 229q22 135 110.5 218t213.5 83q128 0 196.5 -88.5t45.5 -228.5
q-20 -135 -108 -218.5t-216 -83.5zM877 80q80 0 136.5 55.5t73.5 155.5q15 92 -23 147.5t-116 55.5q-81 0 -137.5 -55.5t-73.5 -155.5q-15 -92 23.5 -147.5t116.5 -55.5zM1540 80q81 0 137.5 55.5t73.5 155.5q13 92 -24.5 147.5t-114.5 55.5q-83 0 -139.5 -55.5
t-73.5 -155.5q-14 -93 24 -148t117 -55z" />
    <glyph glyph-name="guilsinglleft" unicode="&#x2039;" horiz-adv-x="491" 
d="M221 129l-151 350v25l264 350h131l-281 -369l156 -356h-119z" />
    <glyph glyph-name="guilsinglright" unicode="&#x203a;" horiz-adv-x="489" 
d="M268 854l154 -350v-25l-264 -350h-131l278 369l-153 356h116z" />
    <glyph glyph-name="fraction" unicode="&#x2044;" horiz-adv-x="239" 
d="M-356 -25l960 1481h62l-959 -1481h-63z" />
    <glyph glyph-name="Euro" unicode="&#x20ac;" 
d="M649 -23q-196 0 -321 136.5t-125 390.5h-142l17 102h129q4 56 10 88q10 53 21 92h-132l17 103h141q81 250 242 388t364 138q139 0 234 -59l-17 -109q-90 53 -215 53q-166 0 -291.5 -108t-193.5 -303h432l-16 -103h-445q-10 -38 -20 -94q-9 -66 -10 -86h446l-16 -102h-434
q2 -195 88 -303.5t247 -108.5q143 0 265 70l-19 -121q-117 -64 -256 -64z" />
    <glyph glyph-name="trademark" unicode="&#x2122;" horiz-adv-x="1095" 
d="M266 915l72 451h-145l10 68h362l-10 -68h-145l-72 -451h-72zM567 915l82 519h64l123 -287l213 287h71l-82 -519h-73l63 388l-186 -250h-33l-109 250l-61 -388h-72z" />
    <glyph glyph-name="oneeighth" unicode="&#x215b;" horiz-adv-x="1413" 
d="M145 -25l961 1481h61l-958 -1481h-64zM59 608l17 97h176l98 618l-168 -72l15 97l200 86h72l-117 -729h158l-16 -97h-435zM1008 -23q-134 0 -202 68.5t-50 175.5q11 77 56 134t116 108q-94 73 -76 182q14 87 89 145t189 58q119 0 178.5 -66.5t45.5 -160.5
q-19 -109 -146 -211q60 -37 89.5 -85.5t17.5 -121.5q-15 -95 -92.5 -160.5t-214.5 -65.5zM1126 453q113 82 129 176q8 55 -26.5 91t-106.5 36q-71 0 -118 -33.5t-56 -89.5q-4 -26 4 -49t19 -37.5t38 -32.5t42.5 -25.5t51.5 -24.5q15 -7 23 -11zM1016 72q86 0 139 37.5
t64 103.5q4 25 -4 47t-21 37.5t-38.5 33t-45.5 27.5t-53.5 27t-52.5 27q-67 -44 -104.5 -88t-45.5 -105q-11 -66 32.5 -106.5t129.5 -40.5z" />
    <glyph glyph-name="threeeighths" unicode="&#x215c;" horiz-adv-x="1529" 
d="M301 586q-133 0 -225 45l14 92q87 -43 205 -43q90 0 154 42t75 124q11 73 -36 107t-128 34h-86l15 98h80q77 0 125 39t57 103q10 63 -32 98t-120 35q-100 0 -204 -49l16 100q91 45 207 45t182 -64.5t49 -168.5q-11 -64 -52.5 -115.5t-102.5 -71.5q61 -17 98.5 -71
t25.5 -144q-17 -114 -104 -174.5t-213 -60.5zM262 -25l961 1481h61l-958 -1481h-64zM1122 -23q-134 0 -202 68.5t-50 175.5q11 77 56 134t116 108q-93 72 -75 182q14 87 89 145t189 58q119 0 178 -66.5t45 -160.5q-19 -110 -145 -211q60 -37 89.5 -85.5t17.5 -121.5
q-15 -95 -93 -160.5t-215 -65.5zM1241 453q113 82 129 176q8 55 -26.5 91t-106.5 36q-71 0 -118 -33.5t-56 -89.5q-4 -26 4 -49t19 -37.5t38 -32.5t42.5 -25.5t51.5 -24.5q15 -7 23 -11zM1130 72q86 0 139 37.5t64 103.5q4 25 -4 47t-21 37.5t-38.5 33t-45.5 27.5t-53.5 27
t-52.5 27q-67 -43 -104 -87.5t-45 -105.5q-11 -66 32 -106.5t129 -40.5z" />
    <glyph glyph-name="fiveeighths" unicode="&#x215d;" horiz-adv-x="1511" 
d="M244 -25l960 1481h62l-959 -1481h-63zM301 586q-126 0 -209 47l14 94q89 -47 191 -47q87 0 150.5 42.5t76.5 129.5q13 84 -35.5 129t-134.5 45q-94 0 -178 -35l96 443h408l-16 -99h-314l-53 -237q49 14 102 14q104 0 175.5 -71.5t52.5 -198.5q-21 -123 -110.5 -189.5
t-215.5 -66.5zM1106 -23q-134 0 -202 68.5t-50 175.5q11 77 56 134t116 108q-94 73 -76 182q14 87 89.5 145t189.5 58q119 0 178 -66.5t45 -160.5q-19 -110 -145 -211q60 -37 89 -85.5t17 -121.5q-15 -95 -92.5 -160.5t-214.5 -65.5zM1225 453q113 82 129 176q8 55 -26.5 91
t-106.5 36q-71 0 -118 -33.5t-56 -89.5q-4 -26 4 -49t19 -37.5t38 -32.5t42.5 -25.5t51.5 -24.5q15 -7 23 -11zM1114 72q86 0 139 37.5t64 103.5q4 25 -4 47t-21 37.5t-38.5 33t-45.5 27.5t-53.5 27t-52.5 27q-67 -44 -104.5 -88t-45.5 -105q-11 -66 32.5 -106.5
t129.5 -40.5z" />
    <glyph glyph-name="seveneighths" unicode="&#x215e;" horiz-adv-x="1425" 
d="M158 -25l960 1481h62l-959 -1481h-63zM156 608l399 727h-395l16 99h504l-14 -95l-400 -731h-110zM1020 -23q-134 0 -202 68.5t-50 175.5q11 77 56 134t116 108q-94 73 -76 182q14 87 89.5 145t189.5 58q119 0 178 -66.5t45 -160.5q-19 -110 -145 -211q60 -37 89 -85.5
t17 -121.5q-15 -95 -92.5 -160.5t-214.5 -65.5zM1139 453q113 82 129 176q8 55 -26.5 91t-106.5 36q-71 0 -118 -33.5t-56 -89.5q-4 -26 4 -49t19 -37.5t38 -32.5t42.5 -25.5t51.5 -24.5q15 -7 23 -11zM1028 72q86 0 139 37.5t64 103.5q4 25 -4 47t-21 37.5t-38.5 33
t-45.5 27.5t-53.5 27t-52.5 27q-67 -44 -104.5 -88t-45.5 -105q-11 -66 32.5 -106.5t129.5 -40.5z" />
    <glyph glyph-name="partialdiff" unicode="&#x2202;" horiz-adv-x="1001" 
d="M420 -23q-187 0 -286 133.5t-64 352.5q32 205 150.5 327.5t303.5 122.5q123 0 206.5 -68t96.5 -183q9 126 0 225t-42 183.5t-92.5 138.5t-155 82t-224.5 22l17 110q106 1 195 -19t165 -64t128 -113t85 -167t35.5 -226.5t-20.5 -290.5q-43 -272 -173 -419t-325 -147z
M422 88q136 0 226 91t126 253q22 171 -46 272t-206 101q-139 0 -226 -93.5t-114 -256.5q-27 -166 37 -266.5t203 -100.5z" />
    <glyph glyph-name="emptyset" unicode="&#x2205;" horiz-adv-x="1261" 
d="M1288 1393l-149 -179q114 -197 63 -526q-25 -154 -79 -282.5t-134 -225t-191 -150t-243 -53.5q-211 0 -328 146l-104 -123h-82l147 178q-115 195 -63 527q25 154 79 282.5t134 225t191 150.5t243 54q213 0 330 -149l104 125h82zM190 694q-45 -292 41 -465l830 990
q-99 135 -287 135q-155 0 -278.5 -85.5t-199.5 -232.5t-106 -342zM1137 698q46 293 -41 465l-828 -991q95 -131 285 -131q232 0 385 180t199 477z" />
    <glyph glyph-name="product" unicode="&#x220f;" horiz-adv-x="1310" 
d="M96 -451l281 1768h-201l19 117h1214l-18 -117h-201l-281 -1768h-121l279 1768h-569l-279 -1768h-123z" />
    <glyph glyph-name="summation" unicode="&#x2211;" horiz-adv-x="940" 
d="M-18 0l12 88l522 643l-317 637l10 66h807l-19 -117h-655l297 -588l-2 -24l-479 -588h655l-20 -117h-811z" />
    <glyph glyph-name="minus" unicode="&#x2212;" horiz-adv-x="921" 
d="M139 655l17 109h690l-19 -109h-688z" />
    <glyph glyph-name="radical" unicode="&#x221a;" horiz-adv-x="1271" 
d="M455 0l-170 866h-201l18 117h271l155 -825l772 1439h136l-873 -1597h-108z" />
    <glyph glyph-name="infinity" unicode="&#x221e;" horiz-adv-x="1490" 
d="M383 373q-130 0 -206.5 100.5t-49.5 267.5q27 163 127.5 258t230.5 95q50 0 93 -16t72.5 -38.5t58.5 -61.5t46 -69t40 -78q42 57 81 99t88 82t104.5 61t115.5 21q130 0 205.5 -101t48.5 -268q-26 -163 -126 -257.5t-231 -94.5q-49 0 -91.5 16t-72 38.5t-58.5 60.5
t-46.5 69.5t-40.5 77.5q-46 -60 -82 -99.5t-85.5 -80.5t-104.5 -61.5t-117 -20.5zM397 483q49 0 94 19.5t88.5 58.5t76.5 78t77 98q-21 47 -35.5 76t-38 65t-46.5 56.5t-56 34.5t-72 14q-86 0 -155 -64.5t-88 -185.5q-19 -119 26.5 -184.5t128.5 -65.5zM1081 483
q88 0 155.5 64t88.5 186q18 119 -27.5 184.5t-128.5 65.5q-48 0 -93 -19.5t-89 -61t-74.5 -78t-78.5 -99.5q24 -56 44.5 -93.5t50 -74.5t67.5 -55.5t85 -18.5z" />
    <glyph glyph-name="integral" unicode="&#x222b;" horiz-adv-x="690" 
d="M2 -473q-79 0 -143 31l14 102q51 -22 123 -22q68 0 118 37t64 124l246 1561q10 60 31.5 106.5t50 75t64.5 46.5t71 25t74 7q74 0 145 -31l-16 -102q-48 22 -123 22q-67 0 -117.5 -37.5t-64.5 -123.5l-246 -1561q-12 -74 -41.5 -127t-71 -81t-85 -40t-93.5 -12z" />
    <glyph glyph-name="approxequal" unicode="&#x2248;" horiz-adv-x="905" 
d="M676 741q-50 0 -111.5 29.5t-118 59.5t-92.5 30q-82 0 -98 -106h-94q7 103 56.5 159t127.5 56q41 0 89 -18.5t83.5 -41t77.5 -41t74 -18.5q40 0 65 28t31 80h96q-6 -103 -55 -160t-131 -57zM633 463q-50 0 -111.5 29.5t-118 59.5t-92.5 30q-40 0 -65 -28t-33 -79h-94
q7 103 55.5 159t126.5 56q42 0 90 -18.5t84 -41t78 -41t74 -18.5q80 0 96 109h96q-8 -103 -56.5 -160t-129.5 -57z" />
    <glyph glyph-name="notequal" unicode="&#x2260;" horiz-adv-x="884" 
d="M821 848h-217l-170 -262h344l-16 -111h-393l-133 -207h-89l134 207h-168l18 111h215l170 262h-344l18 110h392l133 207h88l-131 -207h166z" />
    <glyph glyph-name="lessequal" unicode="&#x2264;" horiz-adv-x="886" 
d="M741 467l-571 319l18 117l674 322l-20 -125l-557 -260l475 -258zM80 219l18 111h623l-19 -111h-622z" />
    <glyph glyph-name="greaterequal" unicode="&#x2265;" horiz-adv-x="880" 
d="M137 467l21 127l557 258l-475 260l18 113l571 -322l-18 -117zM98 219l19 111h622l-18 -111h-623z" />
    <glyph glyph-name="lozenge" unicode="&#x25ca;" horiz-adv-x="968" 
d="M344 0l-258 717l481 717h129l258 -717l-483 -717h-127zM418 137l407 596l-204 563l-406 -596z" />
    <glyph glyph-name="i.loclTRK" horiz-adv-x="376" 
d="M297 1145q-42 0 -64.5 26.5t-15.5 71.5q6 39 32.5 60.5t63.5 21.5q42 0 64.5 -26.5t15.5 -71.5q-6 -39 -32 -60.5t-64 -21.5zM53 0l156 983h115l-156 -983h-115z" />
    <glyph glyph-name="a.ss01" horiz-adv-x="882" 
d="M764 92q30 0 51 8l-16 -98q-42 -10 -66 -10q-54 0 -92 24t-51 70q-104 -109 -273 -109q-94 0 -166.5 35.5t-110.5 110t-22 176.5q13 79 51.5 137t96 90.5t123 48t141.5 15.5q107 0 217 -29l17 103q15 104 -36 169.5t-177 65.5q-129 0 -289 -63l18 116q148 54 287 54
q174 0 253.5 -102t53.5 -261l-74 -465q-13 -86 64 -86zM330 80q166 0 264 145l37 238q-91 24 -187 24q-273 0 -307 -198q-15 -92 39 -150.5t154 -58.5z" />
    <glyph glyph-name="aacute.ss01" horiz-adv-x="882" 
d="M764 1409l-246 -276h-123l221 276h148zM764 92q30 0 51 8l-16 -98q-42 -10 -66 -10q-54 0 -92 24t-51 70q-104 -109 -273 -109q-94 0 -166.5 35.5t-110.5 110t-22 176.5q13 79 51.5 137t96 90.5t123 48t141.5 15.5q107 0 217 -29l17 103q15 104 -36 169.5t-177 65.5
q-129 0 -289 -63l18 116q148 54 287 54q174 0 253.5 -102t53.5 -261l-74 -465q-13 -86 64 -86zM330 80q166 0 264 145l37 238q-91 24 -187 24q-273 0 -307 -198q-15 -92 39 -150.5t154 -58.5z" />
    <glyph glyph-name="abreve.ss01" horiz-adv-x="882" 
d="M750 1200q-107 -65 -242 -65q-142 0 -236 69l17 103q103 -62 223 -62q129 0 256 68zM764 92q30 0 51 8l-16 -98q-42 -10 -66 -10q-54 0 -92 24t-51 70q-104 -109 -273 -109q-94 0 -166.5 35.5t-110.5 110t-22 176.5q13 79 51.5 137t96 90.5t123 48t141.5 15.5
q107 0 217 -29l17 103q15 104 -36 169.5t-177 65.5q-129 0 -289 -63l18 116q148 54 287 54q174 0 253.5 -102t53.5 -261l-74 -465q-13 -86 64 -86zM330 80q166 0 264 145l37 238q-91 24 -187 24q-273 0 -307 -198q-15 -92 39 -150.5t154 -58.5z" />
    <glyph glyph-name="acircumflex.ss01" horiz-adv-x="882" 
d="M530 1298l-163 -163h-134l256 264h103l172 -264h-123zM764 92q30 0 51 8l-16 -98q-42 -10 -66 -10q-54 0 -92 24t-51 70q-104 -109 -273 -109q-94 0 -166.5 35.5t-110.5 110t-22 176.5q13 79 51.5 137t96 90.5t123 48t141.5 15.5q107 0 217 -29l17 103q15 104 -36 169.5
t-177 65.5q-129 0 -289 -63l18 116q148 54 287 54q174 0 253.5 -102t53.5 -261l-74 -465q-13 -86 64 -86zM330 80q166 0 264 145l37 238q-91 24 -187 24q-273 0 -307 -198q-15 -92 39 -150.5t154 -58.5z" />
    <glyph glyph-name="adieresis.ss01" horiz-adv-x="882" 
d="M342 1178q-37 0 -59.5 27.5t-16.5 64.5q5 31 31.5 54.5t58.5 23.5q38 0 61 -28.5t17 -64.5q-6 -33 -32.5 -55t-59.5 -22zM680 1178q-37 0 -60.5 27.5t-17.5 64.5q6 31 33 54.5t59 23.5q38 0 61 -28.5t17 -64.5q-6 -32 -33 -54.5t-59 -22.5zM764 92q30 0 51 8l-16 -98
q-42 -10 -66 -10q-54 0 -92 24t-51 70q-104 -109 -273 -109q-94 0 -166.5 35.5t-110.5 110t-22 176.5q13 79 51.5 137t96 90.5t123 48t141.5 15.5q107 0 217 -29l17 103q15 104 -36 169.5t-177 65.5q-129 0 -289 -63l18 116q148 54 287 54q174 0 253.5 -102t53.5 -261
l-74 -465q-13 -86 64 -86zM330 80q166 0 264 145l37 238q-91 24 -187 24q-273 0 -307 -198q-15 -92 39 -150.5t154 -58.5z" />
    <glyph glyph-name="agrave.ss01" horiz-adv-x="882" 
d="M588 1133h-115l-164 276h131zM764 92q30 0 51 8l-16 -98q-42 -10 -66 -10q-54 0 -92 24t-51 70q-104 -109 -273 -109q-94 0 -166.5 35.5t-110.5 110t-22 176.5q13 79 51.5 137t96 90.5t123 48t141.5 15.5q107 0 217 -29l17 103q15 104 -36 169.5t-177 65.5
q-129 0 -289 -63l18 116q148 54 287 54q174 0 253.5 -102t53.5 -261l-74 -465q-13 -86 64 -86zM330 80q166 0 264 145l37 238q-91 24 -187 24q-273 0 -307 -198q-15 -92 39 -150.5t154 -58.5z" />
    <glyph glyph-name="amacron.ss01" horiz-adv-x="882" 
d="M776 1284l-16 -106h-506l16 106h506zM764 92q30 0 51 8l-16 -98q-42 -10 -66 -10q-54 0 -92 24t-51 70q-104 -109 -273 -109q-94 0 -166.5 35.5t-110.5 110t-22 176.5q13 79 51.5 137t96 90.5t123 48t141.5 15.5q107 0 217 -29l17 103q15 104 -36 169.5t-177 65.5
q-129 0 -289 -63l18 116q148 54 287 54q174 0 253.5 -102t53.5 -261l-74 -465q-13 -86 64 -86zM330 80q166 0 264 145l37 238q-91 24 -187 24q-273 0 -307 -198q-15 -92 39 -150.5t154 -58.5z" />
    <glyph glyph-name="aogonek.ss01" horiz-adv-x="882" 
d="M799 2q-96 -71 -159 -149t-73 -140q-6 -46 15.5 -67t60.5 -21q47 0 98 23l-14 -92q-59 -25 -115 -25q-85 0 -125.5 47t-29.5 125q11 65 65 144.5t148 160.5q-37 6 -52.5 28t-15.5 68q-108 -127 -285 -127q-94 0 -166.5 35.5t-110.5 110t-22 176.5q13 79 51.5 137t96 90.5
t123 48t141.5 15.5q107 0 217 -29l17 103q15 104 -36 169.5t-177 65.5q-129 0 -289 -63l18 116q148 54 287 54q174 0 253.5 -102t53.5 -261l-74 -465q-13 -86 64 -86q30 0 51 8zM330 80q174 0 264 151l37 232q-91 24 -187 24q-273 0 -307 -198q-15 -92 39 -150.5t154 -58.5z
" />
    <glyph glyph-name="aring.ss01" horiz-adv-x="882" 
d="M500 1083q-89 0 -139 57.5t-35 151.5q15 89 76.5 142t148.5 53q89 0 138 -57.5t34 -151.5q-13 -87 -75.5 -141t-147.5 -54zM414 1280q-7 -52 18.5 -83.5t71.5 -31.5q51 0 86.5 34t44.5 91q9 51 -17 83t-71 32q-53 0 -88.5 -33.5t-44.5 -91.5zM764 92q30 0 51 8l-16 -98
q-42 -10 -66 -10q-54 0 -92 24t-51 70q-104 -109 -273 -109q-94 0 -166.5 35.5t-110.5 110t-22 176.5q13 79 51.5 137t96 90.5t123 48t141.5 15.5q107 0 217 -29l17 103q15 104 -36 169.5t-177 65.5q-129 0 -289 -63l18 116q148 54 287 54q174 0 253.5 -102t53.5 -261
l-74 -465q-13 -86 64 -86zM330 80q166 0 264 145l37 238q-91 24 -187 24q-273 0 -307 -198q-15 -92 39 -150.5t154 -58.5z" />
    <glyph glyph-name="atilde.ss01" horiz-adv-x="882" 
d="M397 1229q-57 0 -67 -84h-88q4 89 47 137.5t108 48.5q47 0 92.5 -23t81.5 -46t58 -23q55 0 65 84h86q-4 -91 -45.5 -139.5t-105.5 -48.5q-35 0 -71.5 14.5t-61 32.5t-52 32.5t-47.5 14.5zM764 92q30 0 51 8l-16 -98q-42 -10 -66 -10q-54 0 -92 24t-51 70
q-104 -109 -273 -109q-94 0 -166.5 35.5t-110.5 110t-22 176.5q13 79 51.5 137t96 90.5t123 48t141.5 15.5q107 0 217 -29l17 103q15 104 -36 169.5t-177 65.5q-129 0 -289 -63l18 116q148 54 287 54q174 0 253.5 -102t53.5 -261l-74 -465q-13 -86 64 -86zM330 80
q166 0 264 145l37 238q-91 24 -187 24q-273 0 -307 -198q-15 -92 39 -150.5t154 -58.5z" />
    <glyph glyph-name="ae.ss01" horiz-adv-x="1415" 
d="M315 -23q-95 0 -167 35.5t-109 110t-21 176.5q13 78 52 136.5t96 91t121 48t137 15.5q102 0 215 -29l16 109q9 46 3 87.5t-25 73t-64 50t-114 18.5q-133 0 -293 -63l20 116q148 54 289 54q131 0 199 -56.5t73 -161.5q57 105 145.5 161.5t198.5 56.5q120 0 194 -78
t86.5 -205t-26.5 -289h-614q-20 -182 44.5 -265t223.5 -83q128 0 244 55l-18 -110q-117 -54 -242 -54q-237 0 -320 160q-127 -160 -344 -160zM743 537h506q32 167 -13.5 262.5t-160.5 95.5q-61 0 -113 -25t-86 -61t-62 -87.5t-43.5 -94t-27.5 -90.5zM336 80q186 0 287 156
q-18 93 -2 227q-89 24 -181 24q-269 0 -303 -198q-15 -93 40 -151t159 -58z" />
    <glyph glyph-name="y.ss01" horiz-adv-x="944" 
d="M264 -473q-155 0 -260 57l19 109q101 -58 239 -58q150 0 240 81t114 229l31 182q-51 -70 -128 -110t-171 -40q-134 0 -209 93t-49 249l105 664h116l-106 -666q-18 -116 30 -174.5t142 -58.5t172.5 58.5t122.5 146.5l110 694h115l-166 -1046q-30 -186 -146.5 -298
t-320.5 -112z" />
    <glyph glyph-name="yacute.ss01" horiz-adv-x="944" 
d="M463 1133l221 276h147l-245 -276h-123zM264 -473q-155 0 -260 57l19 109q101 -58 239 -58q150 0 240 81t114 229l31 182q-51 -70 -128 -110t-171 -40q-134 0 -209 93t-49 249l105 664h116l-106 -666q-18 -116 30 -174.5t142 -58.5t172.5 58.5t122.5 146.5l110 694h115
l-166 -1046q-30 -186 -146.5 -298t-320.5 -112z" />
    <glyph glyph-name="ycircumflex.ss01" horiz-adv-x="944" 
d="M662 1399l172 -264h-123l-111 163l-164 -163h-133l256 264h103zM264 -473q-155 0 -260 57l19 109q101 -58 239 -58q150 0 240 81t114 229l31 182q-51 -70 -128 -110t-171 -40q-134 0 -209 93t-49 249l105 664h116l-106 -666q-18 -116 30 -174.5t142 -58.5t172.5 58.5
t122.5 146.5l110 694h115l-166 -1046q-30 -186 -146.5 -298t-320.5 -112z" />
    <glyph glyph-name="ydieresis.ss01" horiz-adv-x="944" 
d="M412 1178q-37 0 -59.5 27.5t-16.5 64.5q5 31 31.5 54.5t58.5 23.5q38 0 61 -28.5t17 -64.5q-6 -33 -32.5 -55t-59.5 -22zM750 1178q-37 0 -60.5 27.5t-17.5 64.5q6 31 33 54.5t59 23.5q38 0 61 -28.5t17 -64.5q-6 -32 -33 -54.5t-59 -22.5zM264 -473q-155 0 -260 57
l19 109q101 -58 239 -58q150 0 240 81t114 229l31 182q-51 -70 -128 -110t-171 -40q-134 0 -209 93t-49 249l105 664h116l-106 -666q-18 -116 30 -174.5t142 -58.5t172.5 58.5t122.5 146.5l110 694h115l-166 -1046q-30 -186 -146.5 -298t-320.5 -112z" />
    <glyph glyph-name="ygrave.ss01" horiz-adv-x="944" 
d="M543 1133l-164 276h131l147 -276h-114zM264 -473q-155 0 -260 57l19 109q101 -58 239 -58q150 0 240 81t114 229l31 182q-51 -70 -128 -110t-171 -40q-134 0 -209 93t-49 249l105 664h116l-106 -666q-18 -116 30 -174.5t142 -58.5t172.5 58.5t122.5 146.5l110 694h115
l-166 -1046q-30 -186 -146.5 -298t-320.5 -112z" />
    <glyph glyph-name="f_b" horiz-adv-x="1546" 
d="M1171 1006q119 0 195 -70t101.5 -187.5t2.5 -265.5q-17 -109 -53.5 -199.5t-91.5 -160t-133 -108t-172 -38.5q-105 0 -172 52t-96 135l-27 -164h-104l206 1305q-83 45 -186 45q-96 0 -160.5 -50.5t-79.5 -146.5l-28 -170h241l-16 -104h-240l-141 -879h-115l140 879h-158
l16 104h158l29 186q23 137 115 212t231 75q117 0 219 -45l16 19l101 26l-99 -610q48 69 124.5 114.5t176.5 45.5zM1352 494q18 120 6.5 210t-65.5 142.5t-146 52.5q-93 0 -170 -56.5t-131 -156.5l-64 -395q51 -207 228 -207q140 0 225.5 109.5t116.5 300.5z" />
    <glyph glyph-name="f_f_b" horiz-adv-x="2062" 
d="M1688 1006q119 0 195 -70t101.5 -187.5t2.5 -265.5q-17 -109 -53.5 -199.5t-91.5 -160t-133.5 -108t-172.5 -38.5q-105 0 -172 52t-96 135l-27 -164h-104l206 1305q-83 45 -186 45q-96 0 -160 -50.5t-79 -146.5l-29 -170h241l-16 -104h-240l-141 -879h-115l140 879h-410
l-139 -879h-117l139 879h-143l16 104h144l24 162q22 141 105.5 215t202.5 74q92 0 161 -37l-16 -103q-61 33 -129 33q-83 0 -138.5 -46.5t-68.5 -135.5l-24 -162h409l29 186q23 137 115 212t231 75q117 0 219 -45l21 21l96 24l-99 -610q48 69 125 114.5t177 45.5zM1868 494
q18 120 6.5 210t-65.5 142.5t-146 52.5q-93 0 -170 -56.5t-131 -156.5l-64 -395q51 -207 228 -207q140 0 225.5 109.5t116.5 300.5z" />
    <glyph glyph-name="f_f_h" horiz-adv-x="2033" 
d="M1690 1006q133 0 206.5 -94.5t49.5 -247.5l-107 -664h-115l105 666q19 116 -29 174.5t-143 58.5q-92 0 -171.5 -61.5t-123.5 -151.5l-109 -686h-116l206 1305q-83 45 -186 45q-96 0 -160 -50.5t-79 -146.5l-29 -170h241l-16 -104h-240l-141 -879h-115l140 879h-410
l-139 -879h-117l139 879h-143l16 104h144l24 162q22 141 105.5 215t202.5 74q92 0 161 -37l-16 -103q-61 33 -129 33q-83 0 -138.5 -46.5t-68.5 -135.5l-24 -162h409l29 186q23 137 115 212t231 75q117 0 219 -45l16 21l101 24l-96 -598q112 148 301 148z" />
    <glyph glyph-name="f_f_j" horiz-adv-x="1468" 
d="M971 -473q-77 0 -123 18l16 103q47 -15 90 -15q133 0 158 174l170 1072h-408l-141 -879h-115l140 879h-410l-139 -879h-117l139 879h-143l16 104h144l24 162q22 141 105.5 215t202.5 74q92 0 161 -37l-16 -103q-61 33 -129 33q-83 0 -138.5 -46.5t-68.5 -135.5l-24 -162
h409l25 162q24 152 121 231.5t243 79.5q137 0 244 -63l-16 -109q-98 66 -215 66q-110 0 -178 -57.5t-87 -170.5l-22 -139h526l-192 -1208q-20 -124 -85.5 -186t-166.5 -62z" />
    <glyph glyph-name="f_f_k" horiz-adv-x="1939" 
d="M1999 983l-414 -487l273 -496h-134l-241 449h-158l-72 -449h-116l206 1305q-83 45 -186 45q-96 0 -160 -50.5t-79 -146.5l-29 -170h241l-16 -104h-240l-141 -879h-115l140 879h-410l-139 -879h-117l139 879h-143l16 104h144l24 162q22 141 105.5 215t202.5 74
q92 0 161 -37l-16 -103q-61 33 -129 33q-83 0 -138.5 -46.5t-68.5 -135.5l-24 -162h409l29 186q23 137 115 212t231 75q117 0 219 -45l21 21l96 24l-144 -899h148l364 426h146z" />
    <glyph glyph-name="f_h" horiz-adv-x="1517" 
d="M1174 1006q133 0 206.5 -94.5t49.5 -247.5l-107 -664h-115l105 666q19 116 -29 174.5t-143 58.5q-92 0 -171.5 -61.5t-123.5 -151.5l-109 -686h-116l206 1305q-83 45 -186 45q-96 0 -160.5 -50.5t-79.5 -146.5l-28 -170h241l-16 -104h-240l-141 -879h-115l140 879h-158
l16 104h158l29 186q23 137 115 212t231 75q117 0 219 -45l25 23l92 22l-97 -598q52 69 130 108.5t172 39.5z" />
    <glyph glyph-name="f_i" horiz-adv-x="942" 
d="M92 0l139 879h-143l16 104h144l26 162q24 152 120.5 231.5t242.5 79.5q136 0 246 -63l-19 -109q-98 66 -215 66q-109 0 -177 -57.5t-87 -170.5l-20 -139h524l-156 -983h-115l140 879h-410l-139 -879h-117z" />
    <glyph glyph-name="f_j" horiz-adv-x="942" 
d="M446 -473q-78 0 -124 18l16 103q51 -15 90 -15q135 0 160 174l170 1072h-410l-139 -879h-117l139 879h-143l16 104h144l26 162q24 152 120.5 231.5t242.5 79.5q136 0 246 -63l-19 -109q-98 66 -215 66q-109 0 -177 -57.5t-87 -170.5l-20 -139h524l-191 -1208
q-20 -124 -86 -186t-166 -62z" />
    <glyph glyph-name="f_k" horiz-adv-x="1423" 
d="M102 0l140 879h-158l16 104h158l29 186q23 137 115 212t231 75q117 0 219 -45l25 23l92 22l-144 -899h148l364 426h146l-414 -487l272 -496h-133l-241 449h-158l-72 -449h-116l206 1305q-83 45 -186 45q-96 0 -160.5 -50.5t-79.5 -146.5l-28 -170h241l-16 -104h-240
l-141 -879h-115z" />
    <glyph glyph-name="f_l" horiz-adv-x="944" 
d="M102 0l140 879h-158l16 104h158l29 186q23 137 115 212t231 75q117 0 219 -45l20 21l97 24l-232 -1456h-116l206 1305q-83 45 -186 45q-96 0 -160.5 -50.5t-79.5 -146.5l-28 -170h241l-16 -104h-240l-141 -879h-115z" />
    <glyph glyph-name="uni0414.loclBGR" horiz-adv-x="1296" 
d="M1083 117h131l-73 -465h-117l55 348h-1018l-55 -348h-115l74 465h123l639 1317h135zM217 117h746l-185 1171z" />
    <glyph glyph-name="uni041B.loclBGR" horiz-adv-x="1085" 
d="M758 1434l237 -1434h-121l-182 1126q-15 132 -16 168q-40 -109 -70 -170l-538 -1124h-134l691 1434h133z" />
    <glyph glyph-name="uni0424.loclBGR" horiz-adv-x="1521" 
d="M588 -211l30 188q-189 17 -315.5 121.5t-174.5 266.5t-17 360q24 147 82 272.5t148.5 224.5t221.5 159.5t289 70.5l31 193h121l-31 -193q114 -10 207.5 -53t156.5 -110.5t103.5 -158t49 -196.5t-8.5 -225q-19 -117 -58.5 -221.5t-103.5 -195.5t-147 -158.5t-194 -108.5
t-239 -48l-28 -188h-123zM637 96l197 1241q-128 -11 -234 -63.5t-179.5 -137t-120.5 -189.5t-67 -226q-12 -95 -11 -182.5t29.5 -164.5t75.5 -135.5t126.5 -96.5t183.5 -46zM758 96q128 11 235 64t180.5 137t120.5 189.5t66 226.5q15 78 12.5 152.5t-16 141t-46.5 124
t-80.5 100t-117 70t-156.5 34.5z" />
    <glyph glyph-name="uni0432.loclBGR" horiz-adv-x="968" 
d="M436 -23q-194 0 -280 123.5t-52 341.5l95 600q31 197 138.5 305.5t283.5 108.5q147 0 224 -95t56 -231q-34 -217 -239 -329q132 -13 189.5 -122t33.5 -273q-15 -90 -49 -165.5t-88 -135.5t-134 -94t-178 -34zM270 758l174 51q304 79 342 328q14 91 -30 152t-140 61
q-121 0 -201 -84.5t-102 -231.5zM442 84q132 0 218 88.5t110 239.5q18 115 -10.5 192t-108 107.5t-215.5 -11.5l-182 -55l-33 -211q-54 -350 221 -350z" />
    <glyph glyph-name="uni0433.loclBGR" horiz-adv-x="765" 
d="M332 -23q-97 0 -172.5 34.5t-113.5 103t-23 157.5q12 76 49 127.5t86.5 76.5t107.5 41.5t115.5 29.5t106.5 32t84 57.5t44 98.5q12 77 -36.5 121.5t-143.5 44.5q-128 0 -278 -80l16 119q141 66 287 66q135 0 212.5 -77t57.5 -206q-12 -76 -49 -129t-87.5 -79.5t-109 -44
t-117 -31t-107.5 -32t-84 -55.5t-44 -94q-12 -82 47.5 -128t159.5 -46q161 0 301 82l-18 -117q-124 -72 -291 -72z" />
    <glyph glyph-name="uni0434.loclBGR" horiz-adv-x="970" 
d="M270 -473q-152 0 -254 55l19 107q99 -54 235 -54q159 0 255.5 84.5t121.5 237.5l29 184q-110 -164 -297 -164q-121 0 -198 70t-102.5 187.5t-2.5 265.5q36 225 152.5 365.5t297.5 140.5q198 0 269 -189l24 166h107l-164 -1034q-33 -196 -154 -309t-338 -113zM397 84
q183 0 303 209l64 399q-20 98 -79 152.5t-146 54.5q-136 0 -225 -110.5t-119 -299.5q-17 -120 -4.5 -210t65.5 -142.5t141 -52.5z" />
    <glyph glyph-name="uni0436.loclBGR" horiz-adv-x="1234" 
d="M-61 0l403 500l-225 483h119l192 -426h143l138 877h116l-139 -877h119l325 426h148l-379 -489l242 -494h-131l-213 449h-127l-72 -449h-115l66 449h-117l-354 -449h-139z" />
    <glyph glyph-name="uni0438.loclBGR" horiz-adv-x="946" 
d="M899 983l-156 -983h-106l22 137q-53 -74 -133.5 -117t-179.5 -43q-134 0 -207 94.5t-49 247.5l105 664h116l-104 -666q-19 -116 29 -174.5t141 -58.5t172.5 62t124.5 151l108 686h117z" />
    <glyph glyph-name="uni0439.loclBGR" horiz-adv-x="946" 
d="M575 1130q-138 0 -229 62l19 108q98 -63 215 -63q125 0 249 68l-16 -115q-109 -60 -238 -60zM899 983l-156 -983h-106l22 137q-53 -74 -133.5 -117t-179.5 -43q-134 0 -207 94.5t-49 247.5l105 664h116l-104 -666q-19 -116 29 -174.5t141 -58.5t172.5 62t124.5 151
l108 686h117z" />
    <glyph glyph-name="uni043A.loclBGR" horiz-adv-x="849" 
d="M47 0l227 1434h117l-139 -877h149l365 426h143l-413 -487l274 -496h-133l-244 449h-157l-72 -449h-117z" />
    <glyph glyph-name="uni043B.loclBGR" horiz-adv-x="860" 
d="M569 983l191 -983h-125l-127 721q-8 61 -14 139q-17 -47 -58 -139l-360 -721h-129l499 983h123z" />
    <glyph glyph-name="uni043F.loclBGR" horiz-adv-x="946" 
d="M47 0l156 983h106l-22 -137q53 74 133.5 117t179.5 43q134 0 207 -94.5t49 -247.5l-104 -664h-117l104 666q19 116 -29 174.5t-141 58.5t-172.5 -62t-124.5 -151l-108 -686h-117z" />
    <glyph glyph-name="uni0442.loclBGR" horiz-adv-x="1437" 
d="M47 0l156 983h106l-20 -127q116 150 280 150q86 0 143 -41.5t79 -114.5q132 156 307 156q140 0 208 -94t44 -242l-107 -670h-117l107 672q19 112 -21 169.5t-133 57.5q-148 0 -264 -180q0 -22 -6 -49l-107 -670h-114l106 672q17 112 -20.5 169.5t-126.5 57.5
q-82 0 -151 -50t-120 -134l-112 -715h-117z" />
    <glyph glyph-name="uni0446.loclBGR" horiz-adv-x="989" 
d="M735 -272l43 266q-61 8 -88.5 40t-27.5 101q-48 -73 -131.5 -115.5t-182.5 -42.5q-134 0 -209 93t-49 249l105 664h116l-106 -666q-18 -117 29.5 -175t142.5 -58q93 0 171.5 59.5t123.5 145.5l110 694h115l-125 -801q-7 -50 12.5 -70t65.5 -20h51l-57 -364h-109z" />
    <glyph glyph-name="uni0448.loclBGR" horiz-adv-x="1437" 
d="M1391 983l-156 -983h-107l21 127q-116 -150 -281 -150q-85 0 -142 41.5t-79 114.5q-132 -156 -307 -156q-140 0 -208 94t-44 242l107 670h116l-106 -672q-19 -112 20.5 -169.5t132.5 -57.5q149 0 265 180q0 22 6 49l106 670h115l-107 -672q-17 -112 20.5 -169.5
t127.5 -57.5q82 0 150.5 50t119.5 134l113 715h117z" />
    <glyph glyph-name="uni0449.loclBGR" horiz-adv-x="1480" 
d="M1227 -272l43 266q-59 8 -87.5 39.5t-29.5 95.5q-119 -152 -283 -152q-86 0 -142.5 41.5t-80.5 114.5q-132 -156 -309 -156q-138 0 -205 94t-45 242l107 670h116l-106 -672q-19 -111 20.5 -169t128.5 -58q153 0 269 180q0 25 6 49l106 670h115l-107 -672
q-17 -112 20.5 -169.5t127.5 -57.5q153 0 270 184l113 715h117l-129 -805q-4 -48 15 -67t64 -19h52l-58 -364h-108z" />
    <glyph glyph-name="uni044E.loclBGR" horiz-adv-x="1298" 
d="M895 1006q190 0 278.5 -138.5t49.5 -384.5q-37 -242 -156 -374t-311 -132q-176 0 -264 121.5t-66 339.5h-193l-69 -438h-117l227 1434h117l-141 -889h192q43 220 160 340.5t293 120.5zM1108 500q30 192 -26.5 295.5t-186.5 103.5q-138 0 -228 -107t-124 -309
q-29 -192 26 -294.5t187 -102.5q139 0 230 107t122 307z" />
    <glyph glyph-name="uni0430.ss01" horiz-adv-x="882" 
d="M764 92q30 0 51 8l-16 -98q-42 -10 -66 -10q-54 0 -92 24t-51 70q-104 -109 -273 -109q-94 0 -166.5 35.5t-110.5 110t-22 176.5q13 79 51.5 137t96 90.5t123 48t141.5 15.5q107 0 217 -29l17 103q15 104 -36 169.5t-177 65.5q-129 0 -289 -63l18 116q148 54 287 54
q174 0 253.5 -102t53.5 -261l-74 -465q-13 -86 64 -86zM330 80q166 0 264 145l37 238q-91 24 -187 24q-273 0 -307 -198q-15 -92 39 -150.5t154 -58.5z" />
    <glyph glyph-name="uni0437.ss01" horiz-adv-x="720" 
d="M117 -473q-136 0 -234 45l19 109q92 -48 202 -48q140 0 245 88.5t130 243.5q17 106 -3 183t-82 112.5t-158 13.5l-103 -20l17 108l110 27q103 23 170 93.5t84 172.5q17 111 -38 177.5t-165 66.5q-105 0 -211 -53l17 112q103 48 217 48q145 2 232.5 -94.5t62.5 -252.5
q-32 -214 -230 -309q107 -15 163.5 -123.5t29.5 -269.5q-30 -190 -157 -310t-318 -120z" />
    <glyph glyph-name="uni0443.ss01" horiz-adv-x="944" 
d="M264 -473q-155 0 -260 57l19 109q101 -58 239 -58q150 0 240 81t114 229l31 182q-51 -70 -128 -110t-171 -40q-134 0 -209 93t-49 249l105 664h116l-106 -666q-18 -116 30 -174.5t142 -58.5t172.5 58.5t122.5 146.5l110 694h115l-166 -1046q-30 -186 -146.5 -298
t-320.5 -112z" />
    <glyph glyph-name="zero.osf" horiz-adv-x="1054" 
d="M453 -23q-139 0 -231.5 74.5t-126 202t-7.5 287.5q25 158 92 279.5t180 194t256 72.5q144 0 235.5 -75t122.5 -200.5t5 -287.5q-25 -160 -89 -280.5t-176 -193.5t-261 -73zM459 92q156 0 260.5 115t138.5 325q34 211 -31 326t-217 115q-156 0 -262.5 -116t-138.5 -325
q-34 -210 31.5 -325t218.5 -115z" />
    <glyph glyph-name="one.osf" horiz-adv-x="716" 
d="M8 0l19 117h249l127 809l-272 -113l19 125l309 127h88l-150 -948h234l-21 -117h-602z" />
    <glyph glyph-name="two.osf" horiz-adv-x="866" 
d="M-6 0l12 84q6 38 19 73.5t27.5 63.5t40.5 58.5t44.5 51t54 47t56 41t62 39.5t60 35.5t62.5 34.5q52 28 82 45.5t69.5 45t61.5 52t40 57.5t24 71q13 81 -42 128.5t-157 47.5q-164 0 -348 -111l18 127q178 96 340 96q152 0 241 -82.5t68 -220.5q-8 -50 -33 -96t-54 -79
t-79 -70t-86 -59t-98 -58q-58 -33 -93 -54t-82.5 -54.5t-75.5 -61t-52 -63.5t-31 -72h588l-18 -117h-721z" />
    <glyph glyph-name="three.osf" horiz-adv-x="892" 
d="M244 -350q-180 0 -305 67l16 111q133 -67 291 -64q153 0 259 71.5t128 211.5q22 136 -52.5 211.5t-201.5 75.5h-156l21 115h151q112 0 193.5 76.5t99.5 187.5q19 116 -50.5 189t-209.5 73q-135 0 -287 -68l19 117q132 63 291 63q181 0 280.5 -108.5t71.5 -273.5
q-15 -104 -82.5 -192t-159.5 -122q40 -11 77 -40t67 -72.5t42.5 -108.5t0.5 -139q-30 -183 -167.5 -282t-336.5 -99z" />
    <glyph glyph-name="four.osf" horiz-adv-x="1021" 
d="M555 -328l53 326h-649l14 90l799 977h123l-152 -954h183l-17 -113h-182l-53 -326h-119zM127 111h498l120 747z" />
    <glyph glyph-name="five.osf" horiz-adv-x="888" 
d="M262 -350q-182 0 -309 74l18 112q125 -74 289 -74q150 0 255.5 81t129.5 233q23 146 -51 227.5t-223 81.5q-138 0 -289 -55l149 735h625l-20 -117h-504l-101 -481q88 27 175 27q184 0 287 -116.5t73 -309.5q-31 -194 -167 -306t-337 -112z" />
    <glyph glyph-name="six.osf" horiz-adv-x="1011" 
d="M473 -23q-146 0 -239 87.5t-122.5 233.5t-0.5 333q61 395 226 589.5t406 194.5q140 0 246 -69l-16 -111q-106 68 -232 68q-369 0 -485 -545q-4 -26 -8 -35q165 133 350 133q75 0 141 -26.5t117.5 -78t74.5 -138t7 -195.5q-32 -201 -152 -321t-313 -120zM475 92
q142 0 231 90.5t113 241.5q24 155 -41.5 237t-191.5 82q-185 0 -363 -161q-26 -227 37.5 -358.5t214.5 -131.5z" />
    <glyph glyph-name="seven.osf" horiz-adv-x="821" 
d="M877 1065l-17 -109l-637 -1284h-125l633 1276h-641l19 117h768z" />
    <glyph glyph-name="eight.osf" horiz-adv-x="1046" 
d="M455 -23q-86 0 -157 20.5t-119.5 57t-79 85.5t-40.5 106t0 119q39 235 308 403q-82 57 -121.5 131.5t-22.5 181.5q10 64 42 122t84 106t131.5 77t174.5 29q179 0 277.5 -106t73.5 -254q-13 -98 -83.5 -192t-179.5 -173q53 -30 89.5 -60t67.5 -72.5t41.5 -98t0.5 -123.5
q-11 -67 -43.5 -128t-89.5 -114.5t-148.5 -85t-205.5 -31.5zM647 741q214 144 240 324q15 104 -47.5 171t-184.5 67q-128 0 -213.5 -67t-99.5 -165q-10 -62 5 -110t66.5 -88t84 -58.5t114.5 -56.5q23 -11 35 -17zM455 92q158 0 253 71.5t115 184.5q7 44 0.5 81t-27.5 67
t-45 52.5t-63.5 45.5t-71 38.5t-80 38.5t-77.5 38q-245 -147 -279 -353q-18 -118 54.5 -191t220.5 -73z" />
    <glyph glyph-name="nine.osf" horiz-adv-x="995" 
d="M274 -350q-138 0 -247 69l18 111q106 -68 231 -68q178 0 299 130t179 391q6 17 14 59q-162 -133 -348 -133q-76 0 -142.5 26.5t-118 78t-74 138t-5.5 195.5q31 199 153.5 319.5t309.5 120.5q113 0 195 -50.5t123.5 -138.5t54.5 -208t-11 -258q-61 -395 -225 -588.5
t-406 -193.5zM430 322q188 0 363 161q18 149 -2.5 257.5t-84 170.5t-165.5 62q-141 0 -229.5 -90.5t-112.5 -241.5q-24 -156 41 -237.5t190 -81.5z" />
    <glyph glyph-name="zero.sinf" horiz-adv-x="745" 
d="M252 -262q-159 0 -220.5 119t-29.5 325q32 197 128.5 311.5t248.5 114.5q159 0 221 -119t29 -321q-32 -202 -126 -316t-251 -114zM256 -166q105 0 175 87.5t97 260.5q52 330 -151 330q-106 0 -175.5 -86.5t-97.5 -257.5q-54 -334 152 -334z" />
    <glyph glyph-name="one.sinf" horiz-adv-x="501" 
d="M-78 -240l17 97h176l98 618l-168 -72l14 97l201 86h72l-117 -729h158l-17 -97h-434z" />
    <glyph glyph-name="two.sinf" horiz-adv-x="598" 
d="M307 608q107 0 168.5 -65t44.5 -168q-7 -47 -28 -87t-59.5 -77t-66.5 -58.5t-81 -58.5q-10 -7 -43 -29.5t-45 -31.5t-38 -29.5t-38 -34t-28 -33t-24 -39t-12 -40.5h385l-16 -97h-494l11 66q6 39 20.5 74.5t28.5 62t41.5 56t44 45.5t53 42.5t51 36t54.5 35.5
q83 51 128 97.5t56 113.5q9 57 -25.5 90t-103.5 33q-113 0 -232 -68l17 103q106 61 231 61z" />
    <glyph glyph-name="three.sinf" horiz-adv-x="618" 
d="M172 -262q-133 0 -225 45l14 92q87 -43 205 -43q90 0 154 42t75 124q11 73 -36 107t-128 34h-86l15 99h80q77 0 125 39t57 102q10 63 -32 98t-120 35q-100 0 -204 -49l16 100q91 45 207 45t182 -64.5t49 -168.5q-11 -64 -52.5 -115.5t-102.5 -71.5q61 -17 98.5 -71
t25.5 -144q-17 -114 -104 -174.5t-213 -60.5z" />
    <glyph glyph-name="four.sinf" horiz-adv-x="684" 
d="M319 -240l27 166h-405l14 88l483 572h113l-90 -566h117l-15 -94h-117l-26 -166h-101zM72 20h288l66 410z" />
    <glyph glyph-name="five.sinf" horiz-adv-x="600" 
d="M158 -262q-126 0 -209 47l14 94q89 -47 191 -47q87 0 150.5 42.5t76.5 129.5q13 84 -35.5 129t-134.5 45q-94 0 -178 -35l96 443h408l-17 -99h-313l-53 -237q49 14 102 14q104 0 175 -71.5t52 -198.5q-21 -124 -110 -190t-215 -66z" />
    <glyph glyph-name="six.sinf" horiz-adv-x="675" 
d="M250 -262q-146 0 -212 113.5t-38 291.5q37 231 150 348t272 117q99 0 166 -45l-15 -92q-58 41 -149 41q-108 0 -187 -73t-114 -208l-6 -26q90 67 207 67t182 -73t47 -193q-20 -118 -99 -193t-204 -75zM252 -166q82 0 133 46t66 134q12 80 -24 122t-110 42
q-117 0 -223 -86q-23 -258 158 -258z" />
    <glyph glyph-name="seven.sinf" horiz-adv-x="559" 
d="M20 -240l400 727h-395l16 99h504l-15 -94l-399 -732h-111z" />
    <glyph glyph-name="eight.sinf" horiz-adv-x="673" 
d="M227 -262q-134 0 -202 68.5t-50 175.5q11 77 56 133.5t116 107.5q-93 72 -75 183q14 87 89 144.5t189 57.5q119 0 178 -66.5t45 -160.5q-19 -110 -145 -211q60 -37 89.5 -85.5t17.5 -121.5q-15 -95 -93 -160t-215 -65zM346 213q113 82 129 176q8 55 -26.5 91t-106.5 36
q-71 0 -118 -33.5t-56 -89.5q-4 -26 4 -49t19 -37.5t38 -32.5t42.5 -25.5t51.5 -24.5q15 -7 23 -11zM236 -168q86 0 138.5 37.5t63.5 103.5q4 25 -4 47t-21 37.5t-38.5 33t-45.5 27.5t-53.5 27t-52.5 27q-67 -44 -104 -87.5t-45 -104.5q-11 -66 32.5 -107t129.5 -41z" />
    <glyph glyph-name="nine.sinf" horiz-adv-x="677" 
d="M162 -262q-98 0 -168 45l14 90q65 -41 150 -41q107 0 185.5 74.5t113.5 210.5q2 4 5 14t5 14q-94 -67 -209 -67q-123 0 -186 72.5t-43 193.5q18 114 100.5 189t206.5 75q147 0 212 -111.5t36 -289.5q-38 -235 -147 -352t-275 -117zM274 172q110 0 213 86q24 254 -161 254
q-78 0 -131.5 -47t-65.5 -129q-13 -80 27.5 -122t117.5 -42z" />
    <glyph glyph-name="zero.tf" 
d="M451 -23q-114 0 -195 55t-121 152t-50 230t17 288q24 158 69 285t113 224.5t165 150.5t217 53q95 0 166.5 -36t115 -100t65.5 -155.5t21.5 -200t-20.5 -235.5q-110 -711 -563 -711zM457 92q342 0 434 600q47 299 -12 453.5t-220 154.5q-337 0 -434 -602
q-46 -299 13 -452.5t219 -153.5z" />
    <glyph glyph-name="one.tf" 
d="M16 0l19 117h414l182 1138l-357 -143l19 123l391 158h88l-201 -1276h365l-18 -117h-902z" />
    <glyph glyph-name="two.tf" 
d="M649 1415q193 0 292.5 -103.5t74.5 -264.5q-10 -66 -42 -128t-69 -108t-101.5 -100.5t-109.5 -87t-123 -84.5q-85 -57 -137 -96t-111.5 -93.5t-94.5 -112t-48 -120.5h701l-19 -117h-833l14 84q9 55 29.5 108t43.5 93t64.5 86t71 74t85.5 71t85 63.5t92 63.5q44 30 55 38
t50.5 36t52 39t45.5 37t46 40.5t37.5 40t35.5 44.5t26 44t23 50t12 51q16 103 -53 171.5t-209 68.5q-190 0 -383 -134l20 134q178 112 377 112z" />
    <glyph glyph-name="three.tf" 
d="M399 -23q-215 0 -354 86l18 115q145 -86 338 -86q163 0 271 73.5t131 215.5q23 145 -51 213t-215 68h-203l18 114h193q132 0 210.5 74t94.5 184q20 121 -50.5 195t-213.5 74q-95 0 -176.5 -24t-176.5 -71l21 119q82 44 164.5 66t189.5 22q184 0 285.5 -106.5t75.5 -274.5
q-18 -107 -82 -196.5t-152 -120.5q41 -13 76.5 -38t65.5 -65.5t42.5 -104.5t0.5 -142q-30 -185 -171.5 -287.5t-349.5 -102.5z" />
    <glyph glyph-name="four.tf" 
d="M621 0l53 326h-662l15 90l817 977h117l-152 -955h182l-16 -112h-182l-54 -326h-118zM178 438h512l121 748z" />
    <glyph glyph-name="five.tf" 
d="M387 -23q-194 0 -321 74l18 113q125 -74 301 -74q164 0 277 82.5t137 233.5q25 147 -53 227t-242 80q-155 0 -309 -56l149 736h666l-21 -117h-545l-100 -481q79 26 195 26q191 0 301 -115.5t80 -308.5q-31 -194 -174.5 -307t-358.5 -113z" />
    <glyph glyph-name="six.tf" 
d="M492 -23q-147 0 -239 91t-119 236.5t1 326.5q32 200 91 351t140 245t178.5 141t211.5 47q139 0 245 -69l-18 -113q-101 70 -229 70q-172 0 -291.5 -133.5t-177.5 -399.5q-10 -39 -11 -49q161 135 338 135q76 0 142 -26.5t116.5 -78t72.5 -138t5 -195.5
q-30 -202 -147 -321.5t-309 -119.5zM494 92q141 0 226.5 90t108.5 242q25 156 -38.5 237.5t-188.5 81.5q-178 0 -352 -163q-17 -145 1 -252t79.5 -171.5t163.5 -64.5z" />
    <glyph glyph-name="seven.tf" 
d="M1100 1393l-17 -109l-708 -1284h-129l704 1276h-749l20 117h879z" />
    <glyph glyph-name="eight.tf" 
d="M457 -23q-86 0 -157 20.5t-119.5 57t-79 85.5t-40.5 106t0 119q39 235 308 403q-82 57 -121.5 131.5t-22.5 181.5q10 64 42 122t84 106t131.5 77t174.5 29q179 0 277.5 -106t73.5 -254q-13 -98 -83.5 -192t-179.5 -173q53 -30 89.5 -60t67.5 -72.5t41.5 -98t0.5 -123.5
q-11 -67 -43.5 -128t-89.5 -114.5t-148.5 -85t-205.5 -31.5zM649 741q214 144 240 324q15 104 -47.5 171t-184.5 67q-128 0 -213.5 -67t-99.5 -165q-10 -62 5 -110t66.5 -88t84 -58.5t114.5 -56.5q23 -11 35 -17zM457 92q158 0 253 71.5t115 184.5q7 44 0.5 81t-27.5 67
t-45 52.5t-63.5 45.5t-71 38.5t-80 38.5t-77.5 38q-245 -147 -279 -353q-18 -118 54.5 -191t220.5 -73z" />
    <glyph glyph-name="nine.tf" 
d="M360 -23q-137 0 -247 70l18 113q104 -70 231 -70q172 0 292.5 136.5t176.5 404.5q2 7 5.5 21.5t5.5 19.5q-164 -135 -340 -135q-59 0 -113.5 16.5t-102 50.5t-78.5 86t-44 123t2 162q32 200 151.5 320t305.5 120q92 0 162.5 -34t113.5 -94t68.5 -142t25.5 -179t-14 -204
q-61 -394 -224 -589.5t-395 -195.5zM514 649q174 0 352 164q17 145 -1 251.5t-80 171t-164 64.5q-140 0 -226 -89.5t-110 -241.5q-24 -156 40 -238t189 -82z" />
    <glyph glyph-name="zero.tosf" 
d="M451 -23q-145 0 -239.5 75t-128 201.5t-7.5 287.5q25 159 93 280t183 193.5t262 72.5q148 0 242.5 -75t125.5 -200.5t5 -287.5q-19 -119 -61.5 -217t-108 -172.5t-159 -116t-207.5 -41.5zM457 92q163 0 268 115t139 330q34 206 -33 321t-223 115q-163 0 -269 -115
t-140 -330q-34 -206 34 -321t224 -115z" />
    <glyph glyph-name="one.tosf" 
d="M14 0l19 117h413l127 803l-356 -146l23 133l389 158h88l-148 -948h365l-19 -117h-901z" />
    <glyph glyph-name="two.tosf" 
d="M29 0l14 80q11 72 43.5 133.5t70.5 102t99.5 80t106.5 61.5t116 53q25 11 67 28t66 26.5t59 26t56 29.5t46 32t39.5 38.5t26.5 45.5t17 55q12 81 -55.5 132.5t-184.5 51.5q-120 0 -216.5 -28.5t-196.5 -88.5l20 125q187 104 398 104q169 0 272 -87.5t82 -225.5
q-9 -57 -36 -104t-63.5 -81t-87.5 -64.5t-101 -53.5t-111 -49q-26 -10 -39 -16q-52 -23 -83.5 -38t-76 -38t-72 -44t-56 -47.5t-44.5 -57t-23 -64.5h699l-19 -117h-833z" />
    <glyph glyph-name="three.tosf" 
d="M346 -350q-214 0 -356 86l18 114q148 -86 338 -86q163 0 271 73.5t131 215.5q23 146 -50.5 213.5t-214.5 67.5h-204l20 115h193q130 0 208 74t97 184q19 122 -51.5 195t-213.5 73q-97 0 -178.5 -24t-173.5 -70l19 118q82 44 164.5 66t189.5 22q184 0 286 -106t76 -274
q-18 -108 -81.5 -198.5t-151.5 -121.5q40 -13 75 -37.5t65 -65t42 -104t0 -141.5q-30 -185 -170.5 -287t-347.5 -102z" />
    <glyph glyph-name="four.tosf" 
d="M578 -328l51 326h-662l15 90l819 977h117l-154 -954h182l-16 -113h-182l-52 -326h-118zM135 111h510l121 747z" />
    <glyph glyph-name="five.tosf" 
d="M336 -350q-195 0 -322 74l19 112q125 -74 301 -74q164 0 277 82.5t137 233.5q25 147 -53 227t-242 80q-159 0 -310 -55l150 735h665l-20 -117h-545l-100 -481q82 27 194 27q191 0 301 -115.5t80 -308.5q-31 -194 -174 -307t-358 -113z" />
    <glyph glyph-name="six.tosf" 
d="M494 -23q-89 0 -159.5 34t-114.5 94t-70 142.5t-27 179.5t14 204q61 394 223.5 589t395.5 195q139 0 245 -69l-16 -113q-104 70 -231 70q-174 0 -294.5 -136.5t-176.5 -408.5q-2 -6 -4.5 -18.5t-4.5 -18.5q161 135 340 135q75 0 140.5 -26.5t116.5 -78t73 -138t6 -195.5
q-32 -202 -149 -321.5t-307 -119.5zM496 92q140 0 225.5 90t109.5 242q24 156 -40 237.5t-189 81.5q-178 0 -352 -163q-17 -145 1.5 -252t80.5 -171.5t164 -64.5z" />
    <glyph glyph-name="seven.tosf" 
d="M1047 1065l-17 -109l-706 -1284h-129l702 1276h-747l20 117h877z" />
    <glyph glyph-name="eight.tosf" 
d="M457 -23q-86 0 -157 20.5t-119.5 57t-79 85.5t-40.5 106t0 119q39 235 308 403q-82 57 -121.5 131.5t-22.5 181.5q10 64 42 122t84 106t131.5 77t174.5 29q179 0 277.5 -106t73.5 -254q-13 -98 -83.5 -192t-179.5 -173q53 -30 89.5 -60t67.5 -72.5t41.5 -98t0.5 -123.5
q-11 -67 -43.5 -128t-89.5 -114.5t-148.5 -85t-205.5 -31.5zM649 741q214 144 240 324q15 104 -47.5 171t-184.5 67q-128 0 -213.5 -67t-99.5 -165q-10 -62 5 -110t66.5 -88t84 -58.5t114.5 -56.5q23 -11 35 -17zM457 92q158 0 253 71.5t115 184.5q7 44 0.5 81t-27.5 67
t-45 52.5t-63.5 45.5t-71 38.5t-80 38.5t-77.5 38q-245 -147 -279 -353q-18 -118 54.5 -191t220.5 -73z" />
    <glyph glyph-name="nine.tosf" 
d="M309 -350q-139 0 -248 69l19 113q104 -70 231 -70q172 0 292.5 136t176.5 403q2 7 11 43q-164 -135 -340 -135q-59 0 -113.5 16.5t-102 50.5t-78.5 86t-44 123t2 162q32 200 151 320t305 120q92 0 163 -34t114 -94t68.5 -142t25.5 -179t-14 -204q-61 -394 -224 -589
t-395 -195zM463 322q175 0 352 163q17 145 -1.5 252t-80.5 171.5t-164 64.5q-140 0 -226 -90t-110 -242q-24 -156 40.5 -237.5t189.5 -81.5z" />
    <glyph glyph-name="zero.dnom" horiz-adv-x="745" 
d="M297 -23q-159 0 -220.5 119.5t-29.5 325.5q32 197 128.5 311.5t248.5 114.5q159 0 221 -119t29 -321q-32 -202 -126 -316.5t-251 -114.5zM301 74q105 0 175 87.5t97 260.5q52 330 -151 330q-216 0 -272 -344q-54 -334 151 -334z" />
    <glyph glyph-name="one.dnom" horiz-adv-x="501" 
d="M-33 0l17 96h176l98 619l-168 -72l14 96l201 86h72l-117 -729h158l-17 -96h-434z" />
    <glyph glyph-name="two.dnom" horiz-adv-x="598" 
d="M348 848q107 0 168.5 -65.5t44.5 -168.5q-6 -38 -23.5 -73.5t-36 -59.5t-54 -55t-56.5 -46.5t-65 -45.5q-8 -5 -43 -29.5t-45 -32.5t-37.5 -29t-38.5 -34t-27.5 -33t-24.5 -39.5t-12 -40.5h385l-16 -96h-494l11 66q6 39 20.5 74.5t28.5 62t41 55.5t44 45.5t53 42.5t51 36
l54 36q83 51 128.5 97.5t56.5 113.5q9 57 -25.5 90t-103.5 33q-113 0 -232 -68l17 102q107 62 231 62z" />
    <glyph glyph-name="three.dnom" horiz-adv-x="618" 
d="M203 -23q-132 0 -226 46l15 92q87 -43 205 -43q90 0 154 42t75 124q11 73 -36 107t-128 34h-86l14 98h80q77 0 125.5 39t57.5 102q10 63 -32 98.5t-120 35.5q-99 0 -205 -50l17 101q91 45 206 45q116 0 182.5 -65t49.5 -169q-11 -64 -53 -115t-103 -71q61 -17 99 -71
t26 -144q-17 -114 -104.5 -175t-212.5 -61z" />
    <glyph glyph-name="four.dnom" horiz-adv-x="684" 
d="M356 0l27 166h-406l15 88l483 571h113l-90 -565h116l-14 -94h-117l-26 -166h-101zM109 260h288l66 410z" />
    <glyph glyph-name="five.dnom" horiz-adv-x="600" 
d="M190 -23q-123 0 -208 48l14 94q89 -47 190 -47q87 0 151 42.5t77 129.5q13 84 -35.5 129t-134.5 45q-94 0 -178 -35l96 442h407l-16 -98h-313l-54 -238q52 15 103 15q104 0 175 -72t52 -199q-21 -123 -110.5 -189.5t-215.5 -66.5z" />
    <glyph glyph-name="six.dnom" horiz-adv-x="675" 
d="M291 -23q-146 0 -212 114t-38 292q37 231 150 348t272 117q99 0 166 -45l-15 -92q-58 41 -149 41q-108 0 -187 -73t-114 -208l-6 -27q91 68 207 68q117 0 182 -73t47 -193q-20 -118 -99 -193.5t-204 -75.5zM293 74q82 0 133 46t66 134q12 80 -24 122t-110 42
q-117 0 -223 -86q-23 -258 158 -258z" />
    <glyph glyph-name="seven.dnom" horiz-adv-x="559" 
d="M55 0l400 727h-396l17 98h504l-15 -94l-399 -731h-111z" />
    <glyph glyph-name="eight.dnom" horiz-adv-x="673" 
d="M266 -23q-134 0 -202 68.5t-50 175.5q11 77 56 134t116 108q-93 72 -75 182q14 87 89 145t189 58q119 0 178 -66.5t45 -160.5q-19 -110 -145 -211q60 -37 89 -85.5t17 -121.5q-15 -95 -92.5 -160.5t-214.5 -65.5zM385 453q113 82 129 176q8 55 -26.5 91t-106.5 36
q-71 0 -118 -33.5t-56 -89.5q-4 -26 4 -49t19 -37.5t38 -32.5t42.5 -25.5t51.5 -24.5q15 -7 23 -11zM274 72q86 0 139 37.5t64 103.5q4 25 -4 47t-21 37.5t-38.5 33t-45.5 27.5t-53.5 27t-52.5 27q-67 -43 -104 -87.5t-45 -105.5q-11 -66 32 -106.5t129 -40.5z" />
    <glyph glyph-name="nine.dnom" horiz-adv-x="677" 
d="M193 -23q-97 0 -168 46l14 90q65 -41 149 -41q108 0 186 74t113 210q2 5 6 15.5t5 13.5q-95 -68 -209 -68q-123 0 -186.5 73t-43.5 194q18 113 100.5 188.5t207.5 75.5q147 0 211.5 -111.5t35.5 -290.5q-38 -235 -146.5 -352t-274.5 -117zM305 412q110 0 213 86
q24 254 -162 254q-77 0 -130.5 -47.5t-65.5 -129.5q-13 -80 27.5 -121.5t117.5 -41.5z" />
    <glyph glyph-name="zero.numr" horiz-adv-x="745" 
d="M391 586q-159 0 -220.5 119.5t-29.5 326.5q32 196 128.5 310t248.5 114q159 0 221 -119t29 -321q-32 -202 -126 -316t-251 -114zM395 682q106 0 176 87.5t97 260.5q52 330 -152 330q-216 0 -272 -344q-54 -334 151 -334z" />
    <glyph glyph-name="one.numr" horiz-adv-x="501" 
d="M59 608l17 99h176l98 616l-168 -72l15 99l202 84h70l-115 -727h156l-16 -99h-435z" />
    <glyph glyph-name="two.numr" horiz-adv-x="598" 
d="M438 1456q108 0 169 -64t44 -167q-6 -38 -23.5 -74t-35.5 -60t-54.5 -55t-56.5 -46t-65 -46q-11 -8 -49.5 -35.5t-52 -37.5t-42.5 -34.5t-41 -41t-25.5 -40.5t-17.5 -48h385l-16 -99h-494l11 66q9 54 32 101.5t47.5 79.5t67.5 68t69.5 53.5t76.5 49.5q83 51 128 97.5
t56 113.5q9 57 -25.5 91t-103.5 34q-114 0 -232 -70l17 105q107 59 231 59z" />
    <glyph glyph-name="three.numr" horiz-adv-x="618" 
d="M301 586q-129 0 -225 47l16 90q81 -41 203 -41q91 0 154.5 41t74.5 123q11 73 -36 108t-128 35h-86l17 96h80q76 0 123.5 39t58.5 103q10 63 -32 99t-120 36q-99 0 -206 -49l16 100q93 43 207 43q116 0 182 -64.5t49 -168.5q-9 -62 -51.5 -113.5t-103.5 -71.5
q62 -20 100 -73.5t24 -141.5q-17 -115 -104 -176t-213 -61z" />
    <glyph glyph-name="four.numr" horiz-adv-x="684" 
d="M453 608l26 166h-405l14 88l485 572h111l-90 -566h117l-15 -94h-116l-27 -166h-100zM205 868h289l65 410z" />
    <glyph glyph-name="five.numr" horiz-adv-x="600" 
d="M301 586q-127 0 -209 49l14 94q89 -47 191 -47q87 0 150.5 42.5t76.5 127.5t-35 129.5t-135 44.5t-178 -33l96 441h408l-16 -97h-314l-53 -237q49 14 102 14q48 -1 92 -18t78.5 -49t51 -85t6.5 -118q-21 -125 -110.5 -191.5t-215.5 -66.5z" />
    <glyph glyph-name="six.numr" horiz-adv-x="675" 
d="M385 586q-147 0 -214 113.5t-38 291.5q37 231 150 348t272 117q99 0 166 -45l-14 -90q-62 41 -150 41q-108 0 -186 -73.5t-113 -209.5q-4 -8 -8 -24q94 67 209 67q118 0 182.5 -73.5t44.5 -194.5q-18 -118 -96.5 -193t-204.5 -75zM387 682q82 0 132.5 47t64.5 133
q13 82 -22.5 124t-110.5 42q-117 0 -224 -88q-12 -129 29.5 -193.5t130.5 -64.5z" />
    <glyph glyph-name="seven.numr" horiz-adv-x="559" 
d="M156 608l399 729h-395l16 97h504l-14 -93l-400 -733h-110z" />
    <glyph glyph-name="eight.numr" horiz-adv-x="673" 
d="M360 586q-134 0 -203 68.5t-51 176.5q22 135 175 240q-96 72 -78 182q14 88 89.5 145.5t190.5 57.5q119 0 178.5 -66.5t43.5 -160.5q-16 -107 -146 -209q62 -39 91.5 -87.5t17.5 -121.5q-15 -95 -93 -160t-215 -65zM479 1063q113 78 127 176q9 54 -25 89.5t-106 35.5
t-119 -33.5t-55 -87.5q-4 -26 4 -49t19 -37.5t38 -32.5t42.5 -25.5t51.5 -24.5q15 -7 23 -11zM369 682q86 0 138.5 37.5t63.5 101.5q4 26 -4 48.5t-21 38t-38.5 33t-45.5 27.5t-55 27t-53 27q-65 -43 -102 -88.5t-47 -106.5q-9 -65 34 -105t130 -40z" />
    <glyph glyph-name="nine.numr" horiz-adv-x="677" 
d="M295 586q-98 0 -168 45l14 92q61 -41 150 -41q108 0 186 73.5t113 209.5q2 4 5 14t5 14q-98 -67 -209 -67q-124 0 -186.5 73t-42.5 195q18 112 100.5 187t206.5 75q147 0 212 -111t36 -288q-38 -235 -147 -353t-275 -118zM408 1020q110 0 213 86q24 254 -162 254
q-78 0 -131.5 -47t-65.5 -129q-13 -79 28 -121.5t118 -42.5z" />
    <glyph glyph-name="zero.sups" horiz-adv-x="745" 
d="M430 801q-160 0 -222 120t-28 326q30 196 126.5 311t248.5 115q160 0 222 -119t30 -321q-34 -202 -128 -317t-249 -115zM432 899q106 0 176 87t97 261q27 164 -12 246t-140 82q-105 0 -174.5 -86.5t-97.5 -255.5q-54 -334 151 -334z" />
    <glyph glyph-name="one.sups" horiz-adv-x="501" 
d="M92 825l17 97h176l98 616l-168 -70l14 97l201 84h72l-117 -727h158l-17 -97h-434z" />
    <glyph glyph-name="two.sups" horiz-adv-x="598" 
d="M475 1673q107 0 168.5 -65t46.5 -168q-9 -60 -48.5 -114.5t-71.5 -81t-103 -76.5l-12 -9q-6 -4 -43 -29.5t-46 -32.5t-38 -28.5t-39 -34t-27.5 -32.5t-25 -39.5t-11.5 -40.5h387l-16 -97h-496l11 66q6 39 20.5 74.5t29 62t42 55.5t44.5 45.5t53 42t51.5 35.5t54.5 35
q41 27 65.5 45.5t52.5 45.5t43.5 57t20.5 65q10 57 -24.5 90t-102.5 33q-115 0 -234 -68l17 103q113 61 231 61z" />
    <glyph glyph-name="three.sups" horiz-adv-x="618" 
d="M338 801q-129 0 -225 47l14 92q87 -43 205 -43q91 0 154.5 41t74.5 123q11 73 -36 108t-128 35h-86l15 96h80q77 0 125 39.5t57 104.5q10 63 -32 98t-120 35q-101 0 -205 -49l17 100q98 45 207 45q116 0 182 -64.5t49 -168.5q-11 -64 -53 -115.5t-103 -71.5
q61 -17 99 -71t26 -144q-17 -114 -104.5 -175.5t-212.5 -61.5z" />
    <glyph glyph-name="four.sups" horiz-adv-x="684" 
d="M494 825l26 164h-405l14 90l483 570h111l-90 -564h117l-15 -96h-117l-26 -164h-98zM246 1085h289l63 410z" />
    <glyph glyph-name="five.sups" horiz-adv-x="600" 
d="M336 817q-127 0 -209 49l14 95q91 -48 191 -48q87 0 150.5 42.5t76.5 129.5q13 84 -35.5 128t-134.5 44q-101 0 -178 -32l96 440h408l-17 -96h-313l-53 -238q53 15 102 15q48 -1 92 -18t78.5 -49.5t51 -85.5t6.5 -118q-21 -124 -110.5 -191t-215.5 -67z" />
    <glyph glyph-name="six.sups" horiz-adv-x="675" 
d="M414 801q-146 0 -212 114t-38 293q37 231 150 348t272 117q99 0 166 -45l-15 -92q-62 41 -149 41q-108 0 -187 -73t-114 -210l-6 -24q90 67 206 67q117 0 182.5 -73t47.5 -193q-20 -120 -98.5 -195t-204.5 -75zM416 899q82 0 132.5 46t65.5 132q12 82 -23.5 124
t-109.5 42q-117 0 -223 -86q-23 -258 158 -258z" />
    <glyph glyph-name="seven.sups" horiz-adv-x="559" 
d="M193 825l397 727h-393l16 97h504l-17 -93l-399 -731h-108z" />
    <glyph glyph-name="eight.sups" horiz-adv-x="673" 
d="M395 801q-134 0 -202 69t-50 177q19 134 172 239q-93 75 -75 182q14 88 88.5 146.5t189.5 58.5q119 0 178 -67t45 -162q-19 -108 -145 -209q128 -79 106 -207q-15 -96 -92.5 -161.5t-214.5 -65.5zM514 1278q113 82 129 176q8 54 -26.5 89.5t-106.5 35.5q-71 0 -118 -33
t-56 -88q-4 -26 4 -49t19 -37.5t38 -32.5t42.5 -25.5t51.5 -24.5q15 -7 23 -11zM403 897q86 0 139 37.5t64 101.5q5 30 -4.5 55t-36 46t-47.5 34t-65 34.5t-62 31.5q-66 -43 -103 -88t-46 -105q-11 -66 32 -106.5t129 -40.5z" />
    <glyph glyph-name="nine.sups" horiz-adv-x="677" 
d="M324 801q-98 0 -168 45l14 92q65 -41 149 -41q107 0 185.5 74t113.5 209q2 5 5.5 15t5.5 15q-94 -67 -209 -67q-124 0 -187 72.5t-43 193.5q18 113 100.5 188.5t207.5 75.5q147 0 211.5 -111.5t35.5 -289.5q-38 -235 -146.5 -353t-274.5 -118zM436 1237q109 0 213 84
q24 254 -162 254q-77 0 -130.5 -46.5t-65.5 -127.5q-13 -80 27.5 -122t117.5 -42z" />
    <glyph glyph-name="braceleft.case" horiz-adv-x="544" 
d="M373 -227q-139 -23 -200.5 36.5t-43.5 184.5l82 508q8 51 0.5 84t-31 48t-48.5 20t-62 5l18 115q30 0 51.5 2.5t46.5 12.5t42.5 27.5t31.5 49t21 74.5l79 508q43 264 310 209l-19 -115q-85 17 -124.5 -19t-53.5 -130l-72 -455q-16 -104 -57.5 -156.5t-95.5 -66.5
q112 -42 82 -228l-74 -471q-14 -83 15 -111.5t118 -15.5z" />
    <glyph glyph-name="braceright.case" horiz-adv-x="546" 
d="M246 1661q138 23 199 -36.5t42 -184.5l-79 -508q-3 -35 -3.5 -60.5t10 -43t22 -28.5t31 -16.5t37.5 -7.5t42 -2l-19 -115q-38 0 -64 -5t-54 -21t-46.5 -50.5t-27.5 -88.5l-80 -508q-43 -264 -309 -209l18 114q85 -17 124.5 19.5t53.5 130.5l72 455q32 193 156 223
q-114 43 -84 227l75 471q12 83 -16 111.5t-119 15.5z" />
    <glyph glyph-name="bracketleft.case" horiz-adv-x="555" 
d="M51 -225l299 1884h340l-18 -117h-219l-263 -1651h220l-19 -116h-340z" />
    <glyph glyph-name="bracketright.case" horiz-adv-x="555" 
d="M573 1659l-299 -1884h-340l21 116h217l264 1651h-219l16 117h340z" />
    <glyph glyph-name="parenleft.case" horiz-adv-x="503" 
d="M668 1657q-165 -212 -273.5 -452.5t-144.5 -481.5q-41 -250 -10 -496t131 -450h-111q-104 214 -141 459.5t0 488.5q41 256 154 498t280 434h115z" />
    <glyph glyph-name="parenright.case" horiz-adv-x="505" 
d="M-90 -223q165 212 273.5 452.5t144.5 481.5q41 250 10 496t-131 450h110q105 -214 142 -460t0 -488q-41 -256 -154 -498t-280 -434h-115z" />
    <glyph glyph-name="emdash.case" horiz-adv-x="1331" 
d="M139 662l19 110h1097l-18 -110h-1098z" />
    <glyph glyph-name="endash.case" horiz-adv-x="970" 
d="M139 662l19 110h737l-16 -110h-740z" />
    <glyph glyph-name="hyphen.case" horiz-adv-x="788" 
d="M713 772l-17 -110h-557l19 110h555z" />
    <glyph glyph-name="guillemotleft.case" horiz-adv-x="817" 
d="M266 354l-153 351l2 24l264 350h131l-281 -368l154 -357h-117zM575 354l-151 351v24l264 350h131l-280 -368l155 -357h-119z" />
    <glyph glyph-name="guillemotright.case" horiz-adv-x="817" 
d="M311 1079l154 -350v-24l-264 -351h-131l278 369l-153 356h116zM623 1079l151 -350v-24l-264 -351h-131l280 369l-155 356h119z" />
    <glyph glyph-name="guilsinglleft.case" horiz-adv-x="507" 
d="M266 354l-153 351l2 24l264 350h131l-281 -368l154 -357h-117z" />
    <glyph glyph-name="guilsinglright.case" horiz-adv-x="505" 
d="M311 1079l154 -350v-24l-264 -351h-131l278 369l-153 356h116z" />
    <glyph glyph-name="cent.tf" 
d="M707 899q-169 0 -294 -110t-155 -297q-29 -189 53 -297.5t246 -108.5q153 0 281 64l-17 -111q-106 -56 -243 -62l-33 -217h-103l35 222q-185 25 -277 163t-59 355q35 215 169 349.5t329 154.5l35 219h102l-35 -217q123 -9 211 -68l-16 -104q-104 65 -229 65z" />
    <glyph glyph-name="currency.tf" 
d="M152 272l-74 70l145 133q-60 107 -37 250q25 147 117 246l-98 127l84 55l92 -117q104 72 237 72t216 -74l139 127l71 -69l-145 -136q60 -102 37 -247q-25 -147 -115 -244l101 -129l-84 -57l-95 120q-106 -73 -237 -73q-132 0 -217 73zM510 434q121 0 205 78.5t106 212.5
q22 126 -35 200t-174 74q-121 0 -205 -78t-106 -212q-20 -126 36 -200.5t173 -74.5z" />
    <glyph glyph-name="dollar.tf" 
d="M365 -248l36 225q-210 6 -342 99l21 114q148 -98 358 -98q159 0 259.5 63.5t119.5 178.5q10 60 -7.5 109t-54.5 83.5t-87.5 64t-107 56t-113 54t-106.5 62t-86 76.5t-52 102.5t-4 133.5q24 152 143 240.5t285 97.5l37 227h102l-37 -225q165 -11 285 -94l-17 -115
q-73 49 -148.5 71.5t-178.5 22.5q-135 0 -234 -59t-117 -172q-9 -57 9 -104t55.5 -80.5t88 -63.5t107.5 -57t113.5 -55t106 -64t85.5 -79t52 -104t4 -134q-27 -160 -142.5 -248t-293.5 -100l-37 -228h-102z" />
    <glyph glyph-name="Euro.tf" 
d="M623 -23q-214 0 -327.5 141t-113.5 386h-129l17 102h116q4 53 11 92q13 67 18 88h-117l17 103h127q77 240 234 383t364 143q157 0 272 -72l-18 -108q-101 65 -240 65q-167 0 -293 -107t-194 -304h432l-17 -103h-444q-14 -50 -19 -90q-9 -46 -12 -90h447l-17 -102h-434
q3 -192 87 -302t249 -110q145 0 297 76l-18 -121q-135 -70 -295 -70z" />
    <glyph glyph-name="sterling.tf" 
d="M-8 0l18 117h37q67 0 110.5 50t55.5 136q23 132 51 315h-143l18 115h142l41 250q34 216 157.5 324t311.5 108q155 0 272 -88l-19 -113q-102 89 -247 89q-153 0 -242 -88t-113 -242q-17 -98 -39 -240h498l-18 -115h-498l-51 -323q-20 -135 -101 -178h687l-21 -117h-907z
" />
    <glyph glyph-name="yen.tf" 
d="M1167 1393l-538 -744h268l-16 -102h-289l-25 -152h289l-16 -102h-289l-47 -293h-121l47 293h-287l17 102h286l25 152h-287l17 102h266l-303 744h123l266 -674l471 674h143z" />
    </font>
</defs>
</svg>
