<?xml version="1.0" standalone="no"?>
<!DOCTYPE svg PUBLIC "-//W3C//DTD SVG 1.1//EN" "http://www.w3.org/Graphics/SVG/1.1/DTD/svg11.dtd" >
<svg xmlns="http://www.w3.org/2000/svg" xmlns:xlink="http://www.w3.org/1999/xlink" version="1.1">
<metadata>
Created by FontForge 20170731 at Wed Nov  2 01:26:02 2016
 By Aleksey,,,
Cyrillic adaptation by He Rez AD. Copyright: Column Simple
</metadata>
<defs>
<font id="ColumnSimplecyr-lat" horiz-adv-x="956" >
  <font-face 
    font-family="Column Simple cyr-lat"
    font-weight="400"
    font-stretch="normal"
    units-per-em="2048"
    panose-1="2 0 5 0 0 0 0 0 0 0"
    ascent="1638"
    descent="-410"
    x-height="1434"
    cap-height="1434"
    bbox="-69 -501.848 1906.78 2123"
    underline-thickness="150"
    underline-position="-442"
    unicode-range="U+0020-FFFC"
  />
<missing-glyph horiz-adv-x="0" 
 />
    <glyph glyph-name=".notdef" horiz-adv-x="0" 
 />
    <glyph glyph-name=".null" horiz-adv-x="0" 
 />
    <glyph glyph-name="nonmarkingreturn" horiz-adv-x="508" 
 />
    <glyph glyph-name="space" unicode=" " horiz-adv-x="508" 
 />
    <glyph glyph-name="space" unicode="&#xa0;" horiz-adv-x="508" 
 />
    <glyph glyph-name="exclam" unicode="!" horiz-adv-x="473" 
d="M196 186q40 40 96 40q57 0 97 -40t40 -97t-40 -96q-40 -40 -97 -40q-56 0 -96 40q-40 39 -40 96t40 97zM132 376q48 50 48 119v106q0 67 -45 117q45 48 45 116v443q0 70 -48 121v36h321v-36q-48 -50 -48 -121v-443q0 -68 44 -116q-44 -50 -44 -117v-106q0 -69 48 -119
v-37h-321v37z" />
    <glyph glyph-name="quotedbl" unicode="&#x22;" horiz-adv-x="700" 
d="M455 1433h225v-37q-48 -50 -48 -120v-174q0 -56 -40 -96q-37 -37 -88 -40v310q0 70 -49 120v37zM132 1434h224v-37q-48 -50 -48 -120v-174q0 -56 -40 -96q-37 -37 -88 -40v310q0 70 -48 120v37z" />
    <glyph glyph-name="numbersign" unicode="#" horiz-adv-x="1356" 
d="M895 846h-259l-69 -259h259zM630 36q62 49 80 119l82 305h-259l-81 -301q-18 -69 16 -120l-10 -39h-224l9 36q62 50 81 119l82 305h-113q-69 0 -132 -49h-35l61 225h38q37 -49 107 -49h108l2 11q18 68 -14 118q59 48 77 116l3 14h-111q-70 0 -133 -49h-34l60 225h38
q38 -47 108 -47h107l80 299q20 71 -16 121l10 39h225l-10 -35q-61 -50 -79 -120l-82 -304h259l81 299q18 71 -17 121l11 39h224l-9 -35q-62 -50 -81 -120l-82 -304h112q70 0 133 47h34l-60 -225h-38q-38 49 -108 49h-107l-2 -10q-18 -68 14 -117q-59 -49 -77 -117l-4 -15
h111q71 0 133 49h34l-60 -225h-38q-38 49 -107 49h-108l-80 -301q-19 -69 16 -120l-11 -39h-223z" />
    <glyph glyph-name="dollar" unicode="$" 
d="M272 -391q13 5 26 5q14 0 29 -6q31 -13 53 4q34 24 39 57q1 5 1 30q1 36 2 117v184h-290v37q3 3 10 9l15 16q20 20 33 38q39 57 39 133v41h33q25 -71 53 -103q39 -42 107 -42h242v104q0 118 -111 241v0q-49 46 -116 48q-4 66 -53 113q-100 91 -143 151q-61 86 -61 173
v318q0 70 -48 120v37h290v184q0 13 12 33q16 27 51 62q44 44 176 154q76 64 127 49q41 -12 36 -53q-3 -27 -29 -38q-25 -11 -54 1q-30 13 -52 -4q-35 -24 -39 -57q-1 -6 -2 -31q-1 -36 -1 -116v-184h289v-38q-3 -3 -9 -8l-8 -8l-8 -8q-20 -20 -33 -39q-38 -56 -38 -133v-40
h-34q-24 71 -53 103q-39 42 -106 42h-242v-346q0 -92 106 -201q49 -45 114 -45v0q6 -66 55 -113q98 -91 145 -165q64 -98 64 -202v-76q0 -70 47 -120v-37h-289v-184q0 -14 -12 -34q-16 -26 -51 -62q-44 -43 -176 -154q-76 -64 -128 -49q-41 12 -36 54q3 27 28 38z" />
    <glyph glyph-name="percent" unicode="%" horiz-adv-x="1198" 
d="M297 1130q38 -37 92 -37q53 0 91 37q38 38 38 91q0 54 -38 92t-91 38q-54 0 -92 -38q-38 -37 -38 -92q0 -53 38 -91zM207 1404q75 75 182 75q106 0 181 -75q76 -76 76 -183q0 -106 -76 -182q-75 -75 -181 -75q-107 0 -182 75q-75 76 -75 182q0 107 75 183zM829 115
q38 -38 91 -38q54 0 92 38t38 92q0 53 -38 91t-92 38q-53 0 -91 -38t-38 -91q0 -54 38 -92zM738 389q75 76 182 76t182 -76q76 -75 76 -182t-76 -182q-75 -76 -182 -76t-182 76q-75 75 -75 182t75 182zM153 32q74 49 111 118l238 443q36 68 17 118q72 48 108 116l238 443
q37 70 16 121l21 40h270l-18 -34q-75 -49 -112 -119l-237 -443q-36 -68 -18 -117q-71 -49 -108 -117l-238 -443q-36 -69 -16 -120l-21 -40h-270z" />
    <glyph glyph-name="ampersand" unicode="&#x26;" horiz-adv-x="1475" 
d="M420 515q-15 -46 -15 -88v-297l9 1q43 5 65 26q21 21 37 68h42q2 -72 38 -124q13 -20 33 -40q6 -6 15 -14l10 -10v-37h-522v37q48 51 48 120v270q0 112 67 219q46 74 148 177l80 80q44 45 70 79q70 89 70 170v153h-161v-104q0 -93 20 -198q-41 -50 -95 -104
q-48 -47 -83 -86q-67 201 -67 388v75q0 71 -49 121v37h709v-37q-49 -50 -49 -121v-124q0 -107 -89 -221q-33 -40 -89 -98l-48 -47l-52 -53l3 -5q113 -251 288 -419q183 -177 349 -177q77 0 115 21q26 14 46 49q25 40 -5 73q-21 23 -18 51q2 28 26 40q38 17 60 -17
q29 -43 -3 -138q-31 -89 -87 -141q-75 -70 -194 -70q-185 0 -380 146q-187 141 -327 371l-10 16z" />
    <glyph glyph-name="quotesingle" unicode="'" horiz-adv-x="376" 
d="M132 1434h224v-37q-48 -51 -48 -120v-174q0 -56 -40 -96q-37 -37 -88 -40v310q0 70 -48 120v37z" />
    <glyph glyph-name="parenleft" unicode="(" horiz-adv-x="772" 
d="M177 598q0 67 -46 116q46 49 46 117v29q0 451 167 651q56 67 132 106q29 13 60 24q10 4 23 9l11 3l11 3q96 32 139 3q33 -23 15 -60q-11 -24 -38 -26q-28 -2 -52 18q-33 29 -72 6h-2q-1 -2 -8 -5l-4 -3l-7 -3v0q-16 -9 -31 -21q-42 -35 -74 -98q-94 -188 -94 -607v-29
q0 -68 45 -117q-45 -49 -45 -116v-29q0 -419 94 -608q32 -63 74 -98q15 -12 31 -21l7 -3l4 -3q7 -3 10 -4q40 -24 72 5q24 21 52 18q27 -2 38 -25q18 -38 -15 -61q-43 -29 -139 3l-10 3l-11 4l-1 1q-12 3 -24 7q-32 11 -58 24q-77 39 -133 106q-167 200 -167 652v29z" />
    <glyph glyph-name="parenright" unicode=")" horiz-adv-x="761" 
d="M183 -145q24 0 46 -18q33 -29 72 -5l8 4l6 3l6 3q17 10 30 21q42 34 74 98q95 189 95 608v29q0 67 -45 116q45 49 45 117v29q0 419 -95 607q-32 63 -74 98q-13 11 -31 21l-5 3l-5 3h-1q-3 2 -5 3v1h-1l-1 1q-40 23 -73 -6q-24 -20 -52 -18q-27 2 -39 27q-18 36 16 59
q43 29 139 -3l9 -3l11 -3q15 -5 25 -9q31 -11 58 -24q77 -39 134 -106q167 -200 167 -651v-29q0 -68 44 -117q-44 -49 -44 -116v-29q0 -452 -167 -652q-57 -67 -134 -106q-26 -13 -58 -24q-9 -3 -25 -7l-11 -5l-9 -3q-96 -32 -139 -3q-34 23 -16 60q12 24 39 26h6z" />
    <glyph glyph-name="asterisk" unicode="*" horiz-adv-x="762" 
d="M349 858q38 40 38 98v91l-79 -46q-48 -28 -64 -82l-23 -14l-89 154l24 13q54 -13 103 15l79 46l-79 45q-49 28 -103 15l-24 13l89 154l23 -14q16 -54 64 -82l79 -46v92q0 56 -38 96v28h176v-28q-38 -40 -38 -96v-92l79 46q49 28 65 82l23 14l88 -154l-23 -13
q-55 13 -104 -15l-79 -45l79 -46q50 -28 104 -15l23 -13l-88 -154l-23 14q-16 53 -65 82l-79 46v-91q0 -58 38 -98v-27h-176v27z" />
    <glyph glyph-name="plus" unicode="+" horiz-adv-x="908" 
d="M398 379q48 50 48 120v158h-158q-69 0 -120 -49h-36v225h36q51 -48 120 -48h158v157q0 70 -48 121v36h224v-36q-48 -51 -48 -121v-157h157q70 0 121 48h36v-225h-36q-51 49 -121 49h-157v-158q0 -70 48 -120v-37h-224v37z" />
    <glyph glyph-name="comma" unicode="," horiz-adv-x="447" 
d="M161 -149q12 5 25 5q14 0 30 -6q29 -13 53 4q43 33 13 105l-2 4l-4 1q-52 6 -87 44q-36 39 -36 91q0 57 41 97q40 40 96 40q57 0 97 -40t40 -97q0 -23 -5 -53q-6 -39 -19 -77q-35 -101 -107 -160q-77 -64 -128 -49q-41 12 -36 54q3 26 29 37z" />
    <glyph glyph-name="hyphen" unicode="-" horiz-adv-x="819" 
d="M768 601q-44 48 -107 48h-93q-59 0 -103 -45q-43 45 -103 45h-93q-62 0 -107 -48h-30v224h30q44 -48 107 -48h93q60 0 103 45q44 -45 103 -45h93q63 0 107 48h31v-224h-31z" />
    <glyph glyph-name="hyphen" unicode="&#xad;" horiz-adv-x="819" 
d="M768 601q-44 48 -107 48h-93q-59 0 -103 -45q-43 45 -103 45h-93q-62 0 -107 -48h-30v224h30q44 -48 107 -48h93q60 0 103 45q44 -45 103 -45h93q63 0 107 48h31v-224h-31z" />
    <glyph glyph-name="period" unicode="." horiz-adv-x="425" 
d="M405 103q0 -57 -40 -97t-97 -40t-96 40q-41 40 -41 97t41 97q39 40 96 40t97 -40t40 -97z" />
    <glyph glyph-name="slash" unicode="/" horiz-adv-x="755" 
d="M136 36q61 49 79 119l120 443q18 68 -14 118q58 48 77 115l118 443q18 71 -16 121l10 39h225l-10 -35q-61 -50 -80 -120l-119 -443q-18 -67 14 -117q-59 -49 -77 -117l-118 -443q-19 -69 16 -120l-10 -39h-225z" />
    <glyph glyph-name="zero" unicode="0" 
d="M663 600q0 68 -45 117q45 49 45 117v471h-258v-471q0 -68 44 -117q-44 -49 -44 -117v-472h258v472zM132 37q48 50 48 120v443q0 68 -45 117q45 49 45 117v443q0 70 -48 120v37h804v-37q-48 -50 -48 -120v-443q0 -68 45 -117q-45 -49 -45 -117v-443q0 -69 48 -120v-37
h-804v37z" />
    <glyph glyph-name="one" unicode="1" horiz-adv-x="765" 
d="M423 37q49 50 49 120v443q0 68 -46 117q46 48 46 117v162l-12 -5q-89 -40 -203 -13q-98 23 -120 70q-16 37 18 60q23 14 47 1q25 -12 35 -43q13 -41 58 -43q42 -1 67 15q37 20 78 85q50 82 34 169q-6 34 -23 64q-12 24 -28 41v37h322v-37q-49 -50 -49 -120v-443
q0 -68 46 -117q-46 -49 -46 -117v-443q0 -70 49 -120v-37h-322v37z" />
    <glyph glyph-name="two" unicode="2" horiz-adv-x="958" 
d="M133 37q48 50 48 120v77q0 104 64 202q46 74 145 165l13 14q37 42 42 99v0q65 0 114 45q106 109 106 200v346h-187l2 -10q28 -118 23 -240q-6 -120 -74 -209q-58 -77 -136 -104q-96 -33 -139 -4q-34 23 -16 60q12 25 39 27q28 2 52 -19q33 -28 73 -5q33 20 51 87
q20 75 8 173q-14 113 -90 219q-70 100 -138 120v34h805v-37q-48 -50 -48 -120v-318q0 -86 -61 -172q-43 -62 -143 -152q-49 -47 -54 -113q-66 -1 -115 -47v-1q-111 -123 -111 -240v-106h242q68 0 107 44q28 31 52 102h34v-40q0 -78 38 -133q13 -20 33 -40l7 -7l9 -7l10 -10
v-37h-805v37z" />
    <glyph glyph-name="three" unicode="3" horiz-adv-x="958" 
d="M181 37l4 4l7 5v1q9 9 15 14v0q20 20 32 40q39 55 39 133v40h34q25 -71 53 -102q39 -44 105 -44h195v148q0 130 -53 214q-45 44 -85 50q-15 3 -28 -2q-12 -4 -18 -11q-16 -22 -3 -53q12 -29 2 -54q-12 -26 -38 -29q-42 -5 -54 36q-15 52 49 128q35 42 85 98
q53 59 71.5 87t46.5 97q25 60 25 150v318h-187q30 -98 25 -220q-6 -121 -74 -209q-58 -77 -136 -104q-96 -33 -139 -4q-34 23 -16 60q12 25 40 27q27 2 51 -19q33 -28 73 -5q33 20 51 87q20 75 8 173q-14 112 -80 198q-80 91 -148 111v34h805v-37q-48 -50 -48 -120v-290
q0 -112 -54 -204q-51 -89 -146 -145l-13 -7l13 -7q95 -55 146 -144q54 -92 54 -204v-119q0 -70 48 -120v-37h-757v37z" />
    <glyph glyph-name="four" unicode="4" horiz-adv-x="1089" 
d="M663 600q0 68 -45 117q45 49 45 117v442q0 71 -48 121v37h321v-37q-48 -50 -48 -121v-442q0 -68 45 -117q-45 -49 -45 -117v-71q-101 54 -225 56v15zM615 37q48 51 48 120v240h-8q-210 0 -343 117q-132 117 -132 299v463q0 71 -49 121v37h322v-37q-48 -50 -48 -121v-463
q0 -125 82 -213q76 -80 168 -80q135 0 231 -63q103 -68 150 -201q33 -94 5 -137q-24 -34 -62 -16q-24 11 -26 38q-2 28 19 52q28 33 5 72q-25 44 -76 77l-13 8v-193q0 -70 48 -120v-37h-321v37z" />
    <glyph glyph-name="five" unicode="5" horiz-adv-x="1086" 
d="M262 37q47 51 47 120v207q-1 135 -2 147v0q-6 33 -39 58q-23 16 -52 4q-30 -13 -55 -2q-26 11 -29 38q-5 42 36 54q51 15 128 -49q132 -111 175 -154q35 -36 51 -62q12 -20 12 -34v-236h259v250q0 118 -111 241v0q-49 47 -115 48q-5 67 -54 113q-99 90 -143 151
q-61 86 -61 173v173q0 70 -47 120v37h804v-37l-10 -10q-11 -10 -16 -15q-19 -19 -32 -38q-39 -57 -39 -133v-41h-33q-25 72 -54 103q-39 42 -105 42h-243v-201q0 -92 106 -200v-1q50 -45 115 -45v0q5 -65 52 -109v-1l3 -3q98 -91 145 -164q63 -99 63 -203v-221
q0 -70 48 -120v-37h-804v37z" />
    <glyph glyph-name="six" unicode="6" horiz-adv-x="1086" 
d="M781 362q0 126 -84 213q-75 81 -166 81h-9v-499q0 -5 1 -12l5 -17h253v234zM1006 157q0 -69 47 -120v-37h-804v37q48 51 48 120v452l-13 -8q-50 -33 -76 -77q-23 -39 6 -72q20 -24 18 -52q-2 -27 -27 -39q-37 -18 -60 16q-29 44 4 138q47 133 151 200q95 64 231 64
q210 0 343 -119q132 -115 132 -298v-205zM297 1276q0 71 -48 121v37h804v-34q-67 -20 -137 -119q-76 -108 -90 -220q-13 -97 8 -173q17 -67 51 -87q40 -23 73 5q24 21 51 19q28 -2 40 -26q17 -37 -16 -61q-44 -29 -139 4q-79 27 -137 104q-67 88 -74 209q-4 122 24 240l2 10
h-187v-461q-124 -2 -225 -56v488z" />
    <glyph glyph-name="seven" unicode="7" horiz-adv-x="958" 
d="M326 37q49 50 49 120v174q0 143 77 288l7 13q27 51 17 109q63 17 99 73q90 139 90 241v250h-187l2 -10q28 -118 23 -240q-6 -120 -74 -209q-58 -77 -136 -104q-96 -33 -139 -4q-34 23 -16 60q12 25 40 27q27 2 51 -19q33 -28 73 -5q33 20 51 87q20 75 8 173
q-14 112 -90 219q-70 100 -138 120v34h805v-37q-48 -50 -48 -120v-222q0 -94 -44 -190q-27 -58 -98 -164l-1 -1q-32 -58 -18 -122q-60 -18 -94 -74l-1 -1q-35 -87 -35 -172v-174q0 -70 49 -120v-37h-322v37z" />
    <glyph glyph-name="eight" unicode="8" 
d="M664 330q0 122 -124 254l-6 7l-6 -7q-123 -130 -123 -254v-202h259v202zM132 37q48 50 48 120v173q0 113 73 220q52 73 166 176l88 80q49 45 79 79q78 90 78 170v250h-259v-250q0 -81 84 -176l-6 -5l-6 -6l-15 -15q-21 -19 -42 -39q-12 -11 -41 -39l-9 -7l-8 -7l-5 -5
q-84 79 -123 137q-54 81 -54 162v222q0 70 -48 120v37h804v-37q-48 -50 -48 -120v-222q0 -89 -66 -179q-45 -60 -152 -157l-7 -6l7 -6q103 -95 152 -169q66 -101 66 -208v-173q0 -69 48 -120v-37h-804v37z" />
    <glyph glyph-name="nine" unicode="9" horiz-adv-x="1090" 
d="M132 37l3 4l7 5v1q9 8 15 14v0q20 20 33 40q39 55 39 133v40h33q25 -71 53 -102q39 -44 106 -44h243l-2 259h-8q-210 0 -342 118q-132 116 -132 299v473q0 70 -48 120v37l804 -1v-37q-48 -49 -48 -119v-641q-64 -59 -224 -61v25q0 68 -46 117q46 50 46 117v471h-259v-501
q0 -126 82 -214q77 -80 167 -80q124 0 195 26q83 31 128 105q23 40 -5 73q-21 24 -19 51q2 28 26 40q38 18 62 -17q29 -44 -5 -138q-45 -128 -144 -196l-4 -2v-295q0 -69 48 -120v-36h-804v36z" />
    <glyph glyph-name="colon" unicode=":" horiz-adv-x="425" 
d="M172 916q40 40 96 40q57 0 97 -40t40 -96t-40 -97q-40 -39 -97 -39q-56 0 -96 39q-40 41 -40 97t40 96zM405 95q0 -57 -40 -97t-97 -40q-56 0 -96 40t-40 97t40 97t96 40q57 0 97 -40t40 -97z" />
    <glyph glyph-name="semicolon" unicode=";" horiz-adv-x="447" 
d="M194 917q40 39 96 39q57 0 97 -39q40 -40 40 -97q0 -56 -40 -96t-97 -40q-56 0 -96 40t-40 96q0 57 40 97zM216 -154q29 -13 53 4q43 33 13 105l-2 4l-4 1q-52 5 -87 44t-35 91q0 57 40 97t96 40q57 0 97 -40t40 -97q0 -23 -5 -53q-6 -41 -19 -77q-34 -101 -107 -160
q-77 -64 -128 -49q-41 11 -36 54q3 26 29 37q12 5 25 5q14 0 30 -6z" />
    <glyph glyph-name="semicolon" unicode="&#x37e;" horiz-adv-x="447" 
d="M194 917q40 39 96 39q57 0 97 -39q40 -40 40 -97q0 -56 -40 -96t-97 -40q-56 0 -96 40t-40 96q0 57 40 97zM216 -154q29 -13 53 4q43 33 13 105l-2 4l-4 1q-52 5 -87 44t-35 91q0 57 40 97t96 40q57 0 97 -40t40 -97q0 -23 -5 -53q-6 -41 -19 -77q-34 -101 -107 -160
q-77 -64 -128 -49q-41 11 -36 54q3 26 29 37q12 5 25 5q14 0 30 -6z" />
    <glyph glyph-name="less" unicode="&#x3c;" horiz-adv-x="944" 
d="M407 512l274 -68q95 -22 161 -80q59 -51 65 -102l-498 123q-112 28 -195 0l-63 15v224l63 15q83 -28 195 0l498 123q-6 -51 -65 -102q-66 -58 -161 -80z" />
    <glyph glyph-name="equal" unicode="=" horiz-adv-x="908" 
d="M852 489q-51 49 -121 49h-104q-68 0 -117 -45q-49 45 -117 45h-105q-69 0 -120 -49h-36v177h756v-177h-36zM132 956h36q51 -48 120 -48h105q67 0 116 45q50 -45 118 -45h104q70 0 121 48h36v-176h-756v176z" />
    <glyph glyph-name="greater" unicode="&#x3e;" horiz-adv-x="944" 
d="M844 385q-83 28 -195 0l-498 -123q6 51 65 102q66 58 161 80l274 68l-274 68q-95 22 -161 80q-59 51 -65 102l498 -123q112 -28 195 0l63 -15v-224z" />
    <glyph glyph-name="question" unicode="?" horiz-adv-x="958" 
d="M439 186q40 40 96 40q57 0 97 -40t40 -97t-40 -97t-97 -40q-56 0 -96 40t-40 97t40 97zM375 376q48 50 48 119v77q0 78 36 147q23 42 82 115l24 27l21 29q25 33 40 61q39 72 39 153v202h-186l2 -11q27 -112 22 -239q-5 -121 -74 -211q-58 -76 -136 -103q-96 -32 -139 -3
q-34 22 -16 60q12 24 40 26q27 2 51 -18q33 -30 73 -5q33 20 51 87q20 75 8 172v0q-14 112 -90 220q-70 100 -138 120v33h805v-36q-48 -51 -48 -121v-173q0 -95 -37 -169q-24 -47 -82 -112l-23 -25l-21 -25q-25 -29 -40 -55q-39 -66 -39 -146v-77q0 -69 49 -119v-37h-322v37
z" />
    <glyph glyph-name="at" unicode="@" horiz-adv-x="1476" 
d="M1050 128h-259v234q0 125 83 213q76 80 167 80h9v-527zM518 0h805v37q-48 50 -48 120v452l13 -8q50 -33 76 -77q23 -40 -6 -73q-21 -23 -18 -51q2 -28 26 -40q38 -17 61 17q29 44 -4 138q-47 133 -150 200q-96 63 -232 63q-210 0 -343 -117q-132 -117 -132 -299v-205
q0 -70 -48 -120v-37zM180 1277q0 70 -48 120v37h1191v-37q-48 -50 -48 -120v-489q-101 54 -225 55v462h-645v-472q0 -67 44 -116q-44 -49 -44 -116v-783q1 -80 2 -117v-22q1 -6 1 -8q5 -33 39 -57q22 -17 53 -4q29 12 54 1q26 -11 28 -38v0q5 -42 -35 -54q-52 -15 -128 49
q-131 110 -176 155q-35 35 -51 61q-12 20 -12 34v783q0 67 -45 116q45 49 45 116v444z" />
    <glyph glyph-name="A" unicode="A" horiz-adv-x="1089" 
d="M615 37q49 50 49 120v288l-7 1q-79 19 -146 67q-51 35 -91 87l-15 19v-462q0 -70 48 -120v-37h-321v37q48 50 48 120v443q0 68 -45 117q45 49 45 117v443q0 70 -48 120v37h804v-37q-48 -50 -48 -120v-636q-24 -8 -72 -8q-90 0 -152 88v584h-259v-608l108 108h38
q21 -81 80 -148q78 -90 185 -90q76 0 114 21q25 14 47 49q23 40 -5 73q-21 23 -19 51t26 40q38 17 61 -17q29 -43 -4 -138q-43 -128 -143 -179l-5 -3v-307q0 -70 48 -120v-37h-321v37z" />
    <glyph glyph-name="B" unicode="B" horiz-adv-x="1073" 
d="M781 362q0 126 -84 213q-75 81 -166 81h-9v-528h259v234zM249 37q48 51 48 120v452l-13 -8q-50 -32 -76 -77q-22 -38 7 -74q20 -24 17 -51t-27 -38q-37 -18 -60 16q-29 44 4 138q47 133 150 200q96 64 232 64q91 0 166 80q84 88 84 213v233h-259v-461q-124 -2 -225 -56
v488q0 71 -48 121v37h804v-37q-47 -50 -47 -121v-204q0 -112 -54 -203q-52 -90 -147 -145l-12 -7l12 -7q94 -55 147 -145q54 -91 54 -203v-205q0 -69 47 -120v-37h-804v37z" />
    <glyph glyph-name="C" unicode="C" horiz-adv-x="969" 
d="M132 37q48 51 48 120v443q0 68 -45 117q45 49 45 117v443q0 70 -48 120v37h804v-34q-67 -20 -137 -120q-76 -106 -90 -219q-13 -98 8 -173q17 -67 51 -87q40 -23 73 5q23 21 51 19t40 -26q17 -38 -17 -61q-43 -29 -138 4q-79 27 -137 104q-68 89 -74 209q-6 122 23 240
l3 10h-187v-471q0 -68 45 -117q-45 -49 -45 -117v-472h242q67 0 106 44q29 31 53 102h34v-40q0 -78 38 -133q13 -20 33 -40l14 -14l8 -6l3 -4v-37h-804v37z" />
    <glyph glyph-name="D" unicode="D" horiz-adv-x="1070" 
d="M249 36q48 50 48 120v443q0 68 -45 117q45 49 45 116v400q64 59 225 60v-460q0 -67 45 -116q-45 -49 -45 -117v-472h9q91 0 166 78q84 85 84 211v183q0 68 -46 117q46 49 46 116v232q0 126 -84 213q-75 81 -166 81q-123 0 -194 -26q-84 -30 -129 -105q-23 -39 6 -73
q20 -24 18 -52q-2 -27 -27 -38v0q-37 -19 -60 16q-29 43 4 138q47 132 150 200q96 63 232 63q210 0 343 -118q132 -117 132 -299v-232q0 -67 44 -116q-44 -49 -44 -117v-183q0 -183 -132 -299q-133 -118 -343 -118h-282v37z" />
    <glyph glyph-name="E" unicode="E" horiz-adv-x="969" 
d="M132 37q48 50 48 120v443q0 68 -45 117q45 49 45 117v443q0 70 -48 120v37h804v-34q-67 -20 -137 -120q-76 -107 -90 -219q-13 -98 8 -173q17 -67 51 -87q40 -23 73 5q23 21 51 19t40 -26q17 -38 -17 -61q-43 -29 -138 4q-79 27 -137 104q-68 89 -74 209q-6 122 23 240
l3 10h-187v-548h57q13 0 33 -12q27 -16 62 -52q43 -43 153 -174q64 -77 50 -128q-12 -42 -54 -37q-27 4 -37 29q-11 26 1 55q13 31 -4 53q-25 33 -58 38q-5 1 -30 2q-36 1 -116 1h-57v-404h194q67 0 106 44q28 31 52 102h34v-40q0 -78 38 -133q14 -20 34 -40l15 -15l7 -5
l3 -4v-37h-756v37z" />
    <glyph glyph-name="F" unicode="F" horiz-adv-x="969" 
d="M132 37q48 50 48 120v443q0 68 -45 117q45 48 45 117v443q0 70 -48 120v37h804v-34q-67 -20 -137 -120q-76 -107 -90 -219q-13 -98 8 -173q17 -67 51 -87q40 -23 73 5q23 21 51 19t40 -26q17 -38 -17 -61q-43 -29 -138 4q-79 27 -137 104q-68 89 -74 209q-5 121 23 240
l3 10h-187v-548h57q13 0 33 -12q27 -16 62 -52q43 -43 153 -174q65 -77 50 -128q-12 -42 -54 -37q-27 4 -37 29q-11 26 1 55q13 31 -4 53q-25 33 -58 38q-5 1 -30 2q-36 1 -116 1h-57v-375q0 -70 49 -120v-37h-322v37z" />
    <glyph glyph-name="G" unicode="G" horiz-adv-x="969" 
d="M132 37q48 51 48 120v443q0 68 -45 117q45 49 45 116v444q0 70 -48 120v37h804v-34q-67 -20 -137 -120q-76 -107 -90 -219q-13 -98 8 -173q17 -67 51 -87q40 -23 73 5q23 21 51 19t40 -26q17 -38 -17 -61q-43 -29 -138 4q-79 27 -137 104q-68 89 -74 209q-6 122 23 240
l3 10h-187v-472q0 -67 45 -116q-45 -49 -45 -117v-472h259v236q-1 81 -2 117q-1 25 -2 30q-5 33 -38 58q-22 16 -53 4q-29 -13 -55 -2q-25 11 -29 38q-5 41 37 54q51 15 128 -49q131 -110 174 -155q36 -35 52 -61q12 -20 12 -34v-207q0 -69 48 -120v-37h-804v37z" />
    <glyph glyph-name="H" unicode="H" horiz-adv-x="1089" 
d="M615 37q49 50 49 120v288l-7 1q-79 19 -146 67q-50 35 -91 87l-15 19v-462q0 -70 49 -120v-37h-322v37q48 50 48 120v443q0 68 -45 117q45 48 45 117v443q0 70 -48 120v37h322v-37q-49 -50 -49 -120v-580l108 108h38q21 -81 80 -148q78 -90 185 -90q77 0 114 21
q25 14 47 49q23 40 -5 73q-21 23 -19 51t26 40q38 17 61 -17q29 -43 -4 -138q-43 -128 -143 -179l-4 -3v-307q0 -70 47 -120v-37h-321v37zM664 1277q0 70 -49 120v37h321v-37q-48 -50 -48 -120v-636q-24 -8 -72 -8q-90 0 -152 89v555z" />
    <glyph glyph-name="I" unicode="I" horiz-adv-x="473" 
d="M132 37q48 50 48 120v443q0 68 -45 117q45 48 45 117v443q0 70 -48 120v37h321v-37q-48 -50 -48 -120v-443q0 -68 45 -117q-45 -49 -45 -117v-443q0 -70 48 -120v-37h-321v37z" />
    <glyph glyph-name="J" unicode="J" 
d="M132 37q48 50 48 120v207q0 14 12 34q16 26 51 61q44 44 176 155q76 64 128 49q40 -13 36 -54q-3 -27 -29 -38q-25 -11 -55 2q-30 12 -52 -4q-34 -25 -39 -58q0 -2 -1 -8v-22q-1 -37 -2 -117v-236h259v472q0 68 -46 117q46 49 46 117v443q0 70 -49 120v37h321v-37
q-47 -50 -47 -120v-443q0 -69 44 -117q-44 -49 -44 -117v-443q0 -69 47 -120v-37h-804v37z" />
    <glyph glyph-name="K" unicode="K" horiz-adv-x="1073" 
d="M732 37q49 50 49 120v205q0 126 -84 213q-75 81 -166 81h-9v-499q0 -70 49 -120v-37h-322v37q48 50 48 120v452l-13 -8q-50 -33 -76 -77q-22 -38 7 -74q20 -24 17 -51t-27 -38q-37 -17 -60 16q-29 44 4 138q47 133 150 200q96 64 232 64q91 0 166 80q84 87 84 213v205
q0 70 -49 120v37h321v-37q-47 -50 -47 -120v-205q0 -112 -54 -203q-52 -90 -147 -145l-12 -7l12 -7q95 -56 147 -145q54 -91 54 -203v-205q0 -70 47 -120v-37h-321v37zM249 1434h322v-37q-49 -50 -49 -121v-432q-124 -2 -225 -56v488q0 71 -48 121v37z" />
    <glyph glyph-name="L" unicode="L" horiz-adv-x="969" 
d="M132 37q48 50 48 120v443q0 68 -45 117q45 49 45 116v444q0 70 -48 120v37h322v-37q-49 -50 -49 -120v-444q0 -67 45 -116q-45 -49 -45 -117v-472h187l-3 11q-29 118 -23 239t74 211q58 77 137 103q95 32 139 3q33 -22 16 -59q-12 -25 -40 -27t-51 18q-33 30 -73 6
q-34 -20 -51 -87q-21 -75 -8 -173q14 -112 90 -220q70 -100 137 -119v-34h-804v37z" />
    <glyph glyph-name="M" unicode="M" horiz-adv-x="1295" 
d="M954 37q48 50 48 120v443q0 68 -45 117q45 49 45 116v380l-11 -5q-127 -47 -208 -156q-88 -119 -108 -296q-4 -42 -5 -86q1 -78 -16 -141q-9 -38 -24 -67q-69 135 -63 301q13 360 265 537q188 132 443 134v-37q-48 -50 -48 -120v-444q0 -67 45 -116q-45 -49 -45 -117
v-443q0 -70 48 -120v-37h-321v37zM132 37q48 50 48 120v448q-2 65 -44 112q42 46 44 111v449q0 70 -48 120v37q139 -1 269 -47q159 -55 263 -164q-50 -61 -82 -128q-77 80 -166 113l-11 5v-380q0 -67 45 -116q-45 -49 -45 -117v-443q0 -71 48 -120v-37h-321v37zM777 308
q-11 3 -24 10q18 19 36 43q31 -9 53 10q23 21 51 19t39 -26q18 -38 -17 -61q-43 -29 -138 5zM519 390q25 0 47 -19q33 -28 72 -5q35 21 63 95q36 93 35 217q0 39 4 72v0q13 120 67 216q28 -97 33 -203q6 -171 -68 -310q-64 -119 -143 -146q-95 -33 -138 -4q-34 23 -16 61
q12 24 39 26h5z" />
    <glyph glyph-name="N" unicode="N" horiz-adv-x="1073" 
d="M732 36q49 50 49 120v443q0 68 -46 117q46 48 46 116v232q0 126 -84 213q-75 81 -166 81q-123 0 -194 -26q-84 -31 -129 -105q-23 -39 6 -73q20 -24 18 -52q-2 -27 -26 -38h-1q-37 -19 -60 16q-29 43 4 138q47 132 150 200q96 63 232 63q210 0 343 -118
q132 -117 132 -299v-232q0 -67 44 -116q-44 -49 -44 -117v-443q0 -70 47 -120v-37h-321v37zM249 36q48 50 48 120v443q0 68 -45 117q45 49 45 116v400q64 59 225 60v-460q0 -67 45 -116q-45 -49 -45 -117v-443q0 -70 49 -120v-37h-322v37z" />
    <glyph glyph-name="O" unicode="O" 
d="M663 600q0 68 -45 117q45 48 45 117v471h-258v-471q0 -69 45 -117q-45 -49 -45 -117v-472h258v472zM132 37q48 50 48 120v443q0 68 -45 117q45 49 45 117v443q0 70 -48 120v37h804v-37q-48 -50 -48 -120v-443q0 -68 45 -117q-45 -49 -45 -117v-443q0 -69 48 -120v-37
h-804v37z" />
    <glyph glyph-name="P" unicode="P" horiz-adv-x="1074" 
d="M249 37q48 50 48 120v247l-4 3q-99 67 -144 195q-33 95 -4 138q23 34 60 16q25 -11 27 -38q2 -28 -18 -52q-29 -34 -6 -73q45 -75 129 -105q71 -26 194 -26q91 0 166 80q84 88 84 214v549h-259v-472q0 -67 45 -116q-45 -49 -45 -117v-74q-161 2 -225 61v690q0 70 -48 119
v37l805 1v-37q-48 -50 -48 -120v-521q0 -183 -132 -300q-133 -118 -343 -118h-9v-181q0 -70 49 -120v-37h-322v37z" />
    <glyph glyph-name="Q" unicode="Q" horiz-adv-x="1089" 
d="M663 156l-6 1q-79 18 -146 65q-51 37 -91 88l-15 19v-201h258v28zM132 37q48 51 48 120v443q0 68 -45 117q45 50 45 117v442q0 71 -48 121v37h804v-37q-48 -50 -48 -121v-442q0 -67 45 -117q-45 -49 -45 -117v-249q-24 -9 -72 -9q-90 0 -153 90v168q0 68 -45 117
q45 50 45 117v471h-258v-471q0 -68 45 -117q-45 -49 -45 -117v-193l108 109h38q21 -83 80 -149q78 -89 185 -89q76 0 114 19q25 15 47 50q23 39 -5 72q-21 25 -19 52t26 39q38 19 61 -16q29 -43 -4 -138q-43 -127 -143 -179l-5 -3v-17q0 -69 48 -120v-36h-804v36z" />
    <glyph glyph-name="R" unicode="R" horiz-adv-x="1073" 
d="M732 37q49 51 49 120v205q0 126 -84 213q-75 81 -166 81h-9v-499q0 -70 49 -120v-37h-322v37q48 50 48 120v453l-13 -9q-50 -34 -76 -77q-24 -39 6 -72q20 -25 18 -52t-27 -39q-37 -17 -60 16q-29 44 4 138q47 133 150 200q96 64 232 64q91 0 166 80q84 87 84 213v233
h-259v-461q-124 -2 -225 -56v489q0 70 -48 120v37h804v-37q-47 -50 -47 -120v-205q0 -112 -54 -203q-52 -90 -147 -145l-12 -7l12 -7q95 -56 147 -145q54 -91 54 -203v-205q0 -71 47 -120v-37h-321v37z" />
    <glyph glyph-name="S" unicode="S" horiz-adv-x="1099" 
d="M262 37q47 51 47 120v207q-1 135 -2 147v0q-6 33 -39 58q-23 16 -52 4q-31 -12 -55 -2q-26 11 -29 38q-5 42 36 54q51 15 127 -49q133 -111 176 -155q35 -35 51 -61q12 -20 12 -34v-236h259v106q0 117 -111 240v0q-48 47 -115 48q-5 66 -54 113q-99 90 -143 152
q-61 86 -61 172v318q0 70 -47 120v37h804v-34q-67 -20 -138 -120q-76 -107 -89 -219q-13 -98 7 -173q18 -67 51 -87q40 -23 74 5q24 21 51 19q28 -2 39 -26q18 -38 -16 -61q-44 -29 -139 4q-78 27 -136 104q-69 89 -73 209q-6 122 23 240l2 10h-188v-346q0 -91 106 -200v0
q50 -45 115 -45v0q5 -67 55 -113q98 -91 145 -165q63 -98 63 -202v-77q0 -70 48 -120v-37h-804v37z" />
    <glyph glyph-name="T" unicode="T" horiz-adv-x="1162" 
d="M422 37q48 50 48 120v444q-1 67 -45 116q44 48 45 116v472h-48q-68 0 -107 -42q-28 -31 -53 -103h-33v41q0 76 -39 133q-13 19 -33 38q-7 8 -15 15l-10 10v37h998v-34q-67 -20 -138 -120q-76 -107 -90 -219q-12 -98 8 -173q18 -67 51 -87q40 -23 73 5q24 21 51 19
q28 -2 40 -26q17 -38 -16 -61q-43 -29 -139 4q-78 27 -136 104q-68 89 -74 209q-5 122 23 240l2 10h-91l1 -472q0 -68 45 -116q-45 -49 -45 -117l-1 -443q0 -70 49 -120v-37h-321v37z" />
    <glyph glyph-name="U" unicode="U" 
d="M132 37q48 51 48 120v443q0 68 -45 117q45 49 45 117v443q0 70 -48 120v37h321v-37q-48 -50 -48 -120v-443q0 -68 45 -117q-45 -49 -45 -117v-472h259v472q0 68 -46 117q46 49 46 117v443q0 70 -49 120v37h321v-37q-47 -50 -47 -120v-443q0 -68 44 -117q-44 -49 -44 -117
v-443q0 -69 47 -120v-37h-804v37z" />
    <glyph glyph-name="V" unicode="V" 
d="M373 37q25 27 23 65q-2 39 -30 66q-90 82 -131 143q-55 82 -55 164v125q0 68 -45 117q45 49 45 116v444q0 70 -48 120v37h321v-37q-48 -50 -48 -120v-444q0 -67 45 -116q-45 -49 -45 -117v-125q0 -97 123 -218l6 -6l6 6q124 121 124 218v125q0 68 -46 117q46 49 46 116
v444q0 70 -49 120v37h321v-37q-47 -50 -47 -120v-444q0 -67 44 -116q-44 -49 -44 -117v-125q0 -82 -56 -164q-42 -61 -131 -143q-29 -27 -30 -66q-2 -37 22 -65v-37h-321v37z" />
    <glyph glyph-name="W" unicode="W" horiz-adv-x="1439" 
d="M857 37q25 28 23 65q-2 40 -31 66q-39 38 -67 67l-6 6l-6 -6q-29 -30 -68 -67q-29 -26 -31 -66q-2 -37 23 -65v-37h-321l1 37q25 27 23 65q-3 40 -30 66q-91 82 -132 143q-55 82 -55 165v124q0 68 -45 117q45 49 45 117v443q0 70 -48 120v37h321v-37q-48 -50 -48 -120
v-443q0 -68 44 -117q-44 -49 -44 -117v-124q0 -98 123 -219l6 -6l6 6q124 121 124 219v124q0 68 -46 117q46 49 46 117v202q0 13 12 33q15 27 51 62q43 45 175 154q77 64 128 49q41 -12 36 -54q-3 -26 -29 -37t-55 2q-30 12 -53 -4q-33 -26 -38 -58v-1q-2 -13 -2 -146v-202
q0 -68 44 -117q-44 -49 -44 -117v-124q0 -98 122 -219l6 -6l6 6q123 121 123 219v124q0 68 -44 117q44 49 44 117v443q0 70 -48 120v37h321v-37q-48 -50 -48 -120v-443q0 -68 45 -117q-45 -49 -45 -117v-124q0 -83 -55 -165q-41 -61 -130 -143q-29 -26 -32 -65
q-2 -38 24 -66v-37h-321v37z" />
    <glyph glyph-name="X" unicode="X" 
d="M615 37q49 50 49 120v173q0 122 -124 254l-6 7l-6 -7q-123 -130 -123 -254v-173q0 -70 48 -120v-37h-321v37q48 50 48 120v173q0 113 73 220q52 73 166 176l88 80q49 45 79 79q78 90 78 170v222q0 70 -49 120v37h321v-37q-48 -50 -48 -120v-222q0 -89 -66 -179
q-45 -60 -152 -157l-7 -6l7 -6q103 -96 152 -169q66 -101 66 -208v-173q0 -71 48 -120v-37h-321v37zM132 1434h321v-37q-48 -50 -48 -121v-221q0 -82 84 -177q-31 -30 -80 -74l-52 -48q-84 79 -123 137q-54 82 -54 162v221q0 71 -48 121v37z" />
    <glyph glyph-name="Y" unicode="Y" 
d="M373 37q49 50 49 120v348l-48 42l-44 42q-47 44 -77 84q-73 96 -73 189v415q0 70 -48 120v37h322v-37q-49 -50 -49 -120v-415q0 -98 123 -219l6 -5l6 5q124 121 124 219v415q0 70 -49 120v37h321v-37q-47 -50 -47 -120v-415q0 -94 -75 -189q-29 -39 -77 -84l-43 -42
l-47 -42v-348q0 -70 47 -120v-37h-321v37z" />
    <glyph glyph-name="Z" unicode="Z" horiz-adv-x="1092" 
d="M133 37q48 51 48 120v77q0 104 64 202q46 74 145 165l13 14q37 42 42 99q65 0 114 45q106 109 106 200v346h-187l2 -10q28 -118 23 -240q-5 -120 -74 -209q-58 -77 -136 -104q-95 -33 -139 -4q-34 23 -16 61q12 24 39 26q28 2 52 -19q33 -28 73 -5q33 20 51 87
q20 76 8 173q-14 113 -90 219q-70 100 -138 120v34h805v-37q-48 -50 -48 -120v-318q0 -86 -61 -172q-43 -62 -143 -152q-49 -47 -54 -113q-66 -1 -115 -47v-1q-111 -123 -111 -240v-106h259v236q0 14 12 34q16 26 51 61q44 45 175 155q77 64 128 49q41 -13 37 -54
q-4 -27 -30 -38q-24 -10 -54 2q-31 12 -52 -4q-35 -25 -39 -58q-1 -5 -2 -30q-1 -36 -1 -117v-207q0 -69 48 -120v-37h-805v37z" />
    <glyph glyph-name="bracketleft" unicode="[" horiz-adv-x="625" 
d="M448 1672q71 0 120 48h37v-224h-37q-51 48 -120 48h-138q-2 -14 -2 -28v-685q0 -68 45 -116q-45 -49 -45 -117v-685q0 -15 2 -29h138q71 0 120 48h37v-224h-37q-51 48 -120 48h-316v37q48 51 48 120v685q0 68 -45 117q45 49 45 116v685q0 70 -48 121v35h316z" />
    <glyph glyph-name="backslash" unicode="\" horiz-adv-x="761" 
d="M506 39q35 51 17 120l-119 443q-18 68 -76 117q32 50 14 117l-119 443q-19 70 -80 120l-10 35h224l11 -39q-35 -50 -16 -121l118 -443q18 -67 77 -115q-32 -50 -14 -118l119 -443q19 -70 80 -119l9 -36h-224z" />
    <glyph glyph-name="bracketright" unicode="]" horiz-adv-x="625" 
d="M605 1672v-35q-48 -51 -48 -121v-685q0 -67 45 -116q-45 -49 -45 -117v-685q0 -69 48 -120v-37h-316q-69 0 -120 -48h-37v224h37q49 -48 120 -48h138q2 14 2 29v685q0 68 -45 117q45 48 45 116v685q0 14 -2 28h-138q-69 0 -120 -48h-37v224h37q49 -48 120 -48h316z" />
    <glyph glyph-name="asciicircum" unicode="^" horiz-adv-x="654" 
d="M272 1434h224l15 -39q-28 -51 0 -120l123 -307q-51 4 -102 40q-58 41 -80 99l-68 169l-68 -169q-22 -58 -80 -99q-51 -36 -102 -40l123 307q28 69 0 120z" />
    <glyph glyph-name="underscore" unicode="_" horiz-adv-x="1102" 
d="M1045 -171q-50 49 -120 49h-202q-67 0 -116 -45q-50 45 -117 45h-202q-69 0 -120 -49h-36v225h36q51 -48 120 -48h202q67 0 117 45q49 -45 116 -45h202q70 0 120 48h37v-225h-37z" />
    <glyph glyph-name="grave" unicode="`" horiz-adv-x="516" 
d="M134 1434h224l15 -39q-28 -51 0 -120l123 -307q-51 4 -102 40q-58 41 -80 99l-70 174q-28 69 -96 118z" />
    <glyph glyph-name="a" unicode="a" horiz-adv-x="1089" 
d="M615 37q49 50 49 120v288l-7 1q-79 19 -146 67q-51 35 -91 87l-15 19v-462q0 -70 48 -120v-37h-321v37q48 50 48 120v443q0 68 -45 117q45 49 45 117v443q0 70 -48 120v37h804v-37q-48 -50 -48 -120v-636q-24 -8 -72 -8q-90 0 -152 88v584h-259v-608l108 108h38
q21 -81 80 -148q78 -90 185 -90q76 0 114 21q25 14 47 49q23 40 -5 73q-21 23 -19 51t26 40q38 17 61 -17q29 -43 -4 -138q-43 -128 -143 -179l-5 -3v-307q0 -70 48 -120v-37h-321v37z" />
    <glyph glyph-name="b" unicode="b" horiz-adv-x="1073" 
d="M781 362q0 126 -84 213q-75 81 -166 81h-9v-528h259v234zM249 37q48 51 48 120v452l-13 -8q-50 -32 -76 -77q-22 -38 7 -74q20 -24 17 -51t-27 -38q-37 -18 -60 16q-29 44 4 138q47 133 150 200q96 64 232 64q91 0 166 80q84 88 84 213v233h-259v-461q-124 -2 -225 -56
v488q0 71 -48 121v37h804v-37q-47 -50 -47 -121v-204q0 -112 -54 -203q-52 -90 -147 -145l-12 -7l12 -7q94 -55 147 -145q54 -91 54 -203v-205q0 -69 47 -120v-37h-804v37z" />
    <glyph glyph-name="c" unicode="c" horiz-adv-x="969" 
d="M132 37q48 51 48 120v443q0 68 -45 117q45 49 45 117v443q0 70 -48 120v37h804v-34q-67 -20 -137 -120q-76 -106 -90 -219q-13 -98 8 -173q17 -67 51 -87q40 -23 73 5q23 21 51 19t40 -26q17 -38 -17 -61q-43 -29 -138 4q-79 27 -137 104q-68 89 -74 209q-6 122 23 240
l3 10h-187v-471q0 -68 45 -117q-45 -49 -45 -117v-472h242q67 0 106 44q29 31 53 102h34v-40q0 -78 38 -133q13 -20 33 -40l14 -14l8 -6l3 -4v-37h-804v37z" />
    <glyph glyph-name="d" unicode="d" horiz-adv-x="1070" 
d="M249 36q48 50 48 120v443q0 68 -45 117q45 49 45 116v400q64 59 225 60v-460q0 -67 45 -116q-45 -49 -45 -117v-472h9q91 0 166 78q84 85 84 211v183q0 68 -46 117q46 49 46 116v232q0 126 -84 213q-75 81 -166 81q-123 0 -194 -26q-84 -30 -129 -105q-23 -39 6 -73
q20 -24 18 -52q-2 -27 -27 -38v0q-37 -19 -60 16q-29 43 4 138q47 132 150 200q96 63 232 63q210 0 343 -118q132 -117 132 -299v-232q0 -67 44 -116q-44 -49 -44 -117v-183q0 -183 -132 -299q-133 -118 -343 -118h-282v37z" />
    <glyph glyph-name="e" unicode="e" horiz-adv-x="969" 
d="M132 37q48 50 48 120v443q0 68 -45 117q45 49 45 117v443q0 70 -48 120v37h804v-34q-67 -20 -137 -120q-76 -107 -90 -219q-13 -98 8 -173q17 -67 51 -87q40 -23 73 5q23 21 51 19t40 -26q17 -38 -17 -61q-43 -29 -138 4q-79 27 -137 104q-68 89 -74 209q-6 122 23 240
l3 10h-187v-548h57q13 0 33 -12q27 -16 62 -52q43 -43 153 -174q64 -77 50 -128q-12 -42 -54 -37q-27 4 -37 29q-11 26 1 55q13 31 -4 53q-25 33 -58 38q-5 1 -30 2q-36 1 -116 1h-57v-404h194q67 0 106 44q28 31 52 102h34v-40q0 -78 38 -133q14 -20 34 -40l15 -15l7 -5
l3 -4v-37h-756v37z" />
    <glyph glyph-name="f" unicode="f" horiz-adv-x="969" 
d="M132 37q48 50 48 120v443q0 68 -45 117q45 48 45 117v443q0 70 -48 120v37h804v-34q-67 -20 -137 -120q-76 -107 -90 -219q-13 -98 8 -173q17 -67 51 -87q40 -23 73 5q23 21 51 19t40 -26q17 -38 -17 -61q-43 -29 -138 4q-79 27 -137 104q-68 89 -74 209q-5 121 23 240
l3 10h-187v-548h57q13 0 33 -12q27 -16 62 -52q43 -43 153 -174q65 -77 50 -128q-12 -42 -54 -37q-27 4 -37 29q-11 26 1 55q13 31 -4 53q-25 33 -58 38q-5 1 -30 2q-36 1 -116 1h-57v-375q0 -70 49 -120v-37h-322v37z" />
    <glyph glyph-name="g" unicode="g" horiz-adv-x="969" 
d="M132 37q48 51 48 120v443q0 68 -45 117q45 49 45 116v444q0 70 -48 120v37h804v-34q-67 -20 -137 -120q-76 -107 -90 -219q-13 -98 8 -173q17 -67 51 -87q40 -23 73 5q23 21 51 19t40 -26q17 -38 -17 -61q-43 -29 -138 4q-79 27 -137 104q-68 89 -74 209q-6 122 23 240
l3 10h-187v-472q0 -67 45 -116q-45 -49 -45 -117v-472h259v236q-1 81 -2 117q-1 25 -2 30q-5 33 -38 58q-22 16 -53 4q-29 -13 -55 -2q-25 11 -29 38q-5 41 37 54q51 15 128 -49q131 -110 174 -155q36 -35 52 -61q12 -20 12 -34v-207q0 -69 48 -120v-37h-804v37z" />
    <glyph glyph-name="h" unicode="h" horiz-adv-x="1089" 
d="M615 37q49 50 49 120v288l-7 1q-79 19 -146 67q-50 35 -91 87l-15 19v-462q0 -70 49 -120v-37h-322v37q48 50 48 120v443q0 68 -45 117q45 48 45 117v443q0 70 -48 120v37h322v-37q-49 -50 -49 -120v-580l108 108h38q21 -81 80 -148q78 -90 185 -90q77 0 114 21
q25 14 47 49q23 40 -5 73q-21 23 -19 51t26 40q38 17 61 -17q29 -43 -4 -138q-43 -128 -143 -179l-4 -3v-307q0 -70 47 -120v-37h-321v37zM664 1277q0 70 -49 120v37h321v-37q-48 -50 -48 -120v-636q-24 -8 -72 -8q-90 0 -152 89v555z" />
    <glyph glyph-name="i" unicode="i" horiz-adv-x="473" 
d="M132 37q48 50 48 120v443q0 68 -45 117q45 48 45 117v443q0 70 -48 120v37h321v-37q-48 -50 -48 -120v-443q0 -68 45 -117q-45 -49 -45 -117v-443q0 -70 48 -120v-37h-321v37z" />
    <glyph glyph-name="j" unicode="j" 
d="M132 37q48 50 48 120v207q0 14 12 34q16 26 51 61q44 44 176 155q76 64 128 49q40 -13 36 -54q-3 -27 -29 -38q-25 -11 -55 2q-30 12 -52 -4q-34 -25 -39 -58q0 -2 -1 -8v-22q-1 -37 -2 -117v-236h259v472q0 68 -46 117q46 49 46 117v443q0 70 -49 120v37h321v-37
q-47 -50 -47 -120v-443q0 -69 44 -117q-44 -49 -44 -117v-443q0 -69 47 -120v-37h-804v37z" />
    <glyph glyph-name="k" unicode="k" horiz-adv-x="1073" 
d="M732 37q49 50 49 120v205q0 126 -84 213q-75 81 -166 81h-9v-499q0 -70 49 -120v-37h-322v37q48 50 48 120v452l-13 -8q-50 -33 -76 -77q-22 -38 7 -74q20 -24 17 -51t-27 -38q-37 -17 -60 16q-29 44 4 138q47 133 150 200q96 64 232 64q91 0 166 80q84 87 84 213v205
q0 70 -49 120v37h321v-37q-47 -50 -47 -120v-205q0 -112 -54 -203q-52 -90 -147 -145l-12 -7l12 -7q95 -56 147 -145q54 -91 54 -203v-205q0 -70 47 -120v-37h-321v37zM249 1434h322v-37q-49 -50 -49 -121v-432q-124 -2 -225 -56v488q0 71 -48 121v37z" />
    <glyph glyph-name="l" unicode="l" horiz-adv-x="969" 
d="M132 37q48 50 48 120v443q0 68 -45 117q45 49 45 116v444q0 70 -48 120v37h322v-37q-49 -50 -49 -120v-444q0 -67 45 -116q-45 -49 -45 -117v-472h187l-3 11q-29 118 -23 239t74 211q58 77 137 103q95 32 139 3q33 -22 16 -59q-12 -25 -40 -27t-51 18q-33 30 -73 6
q-34 -20 -51 -87q-21 -75 -8 -173q14 -112 90 -220q70 -100 137 -119v-34h-804v37z" />
    <glyph glyph-name="m" unicode="m" horiz-adv-x="1295" 
d="M954 37q48 50 48 120v443q0 68 -45 117q45 49 45 116v380l-11 -5q-127 -47 -208 -156q-88 -119 -108 -296q-4 -42 -5 -86q1 -78 -16 -141q-9 -38 -24 -67q-69 135 -63 301q13 360 265 537q188 132 443 134v-37q-48 -50 -48 -120v-444q0 -67 45 -116q-45 -49 -45 -117
v-443q0 -70 48 -120v-37h-321v37zM132 37q48 50 48 120v448q-2 65 -44 112q42 46 44 111v449q0 70 -48 120v37q139 -1 269 -47q159 -55 263 -164q-50 -61 -82 -128q-77 80 -166 113l-11 5v-380q0 -67 45 -116q-45 -49 -45 -117v-443q0 -71 48 -120v-37h-321v37zM777 308
q-11 3 -24 10q18 19 36 43q31 -9 53 10q23 21 51 19t39 -26q18 -38 -17 -61q-43 -29 -138 5zM519 390q25 0 47 -19q33 -28 72 -5q35 21 63 95q36 93 35 217q0 39 4 72v0q13 120 67 216q28 -97 33 -203q6 -171 -68 -310q-64 -119 -143 -146q-95 -33 -138 -4q-34 23 -16 61
q12 24 39 26h5z" />
    <glyph glyph-name="n" unicode="n" horiz-adv-x="1073" 
d="M732 36q49 50 49 120v443q0 68 -46 117q46 48 46 116v232q0 126 -84 213q-75 81 -166 81q-123 0 -194 -26q-84 -31 -129 -105q-23 -39 6 -73q20 -24 18 -52q-2 -27 -26 -38h-1q-37 -19 -60 16q-29 43 4 138q47 132 150 200q96 63 232 63q210 0 343 -118
q132 -117 132 -299v-232q0 -67 44 -116q-44 -49 -44 -117v-443q0 -70 47 -120v-37h-321v37zM249 36q48 50 48 120v443q0 68 -45 117q45 49 45 116v400q64 59 225 60v-460q0 -67 45 -116q-45 -49 -45 -117v-443q0 -70 49 -120v-37h-322v37z" />
    <glyph glyph-name="o" unicode="o" 
d="M663 600q0 68 -45 117q45 48 45 117v471h-258v-471q0 -69 45 -117q-45 -49 -45 -117v-472h258v472zM132 37q48 50 48 120v443q0 68 -45 117q45 49 45 117v443q0 70 -48 120v37h804v-37q-48 -50 -48 -120v-443q0 -68 45 -117q-45 -49 -45 -117v-443q0 -69 48 -120v-37
h-804v37z" />
    <glyph glyph-name="p" unicode="p" horiz-adv-x="1074" 
d="M249 37q48 50 48 120v247l-4 3q-99 67 -144 195q-33 95 -4 138q23 34 60 16q25 -11 27 -38q2 -28 -18 -52q-29 -34 -6 -73q45 -75 129 -105q71 -26 194 -26q91 0 166 80q84 88 84 214v549h-259v-472q0 -67 45 -116q-45 -49 -45 -117v-74q-161 2 -225 61v690q0 70 -48 119
v37l805 1v-37q-48 -50 -48 -120v-521q0 -183 -132 -300q-133 -118 -343 -118h-9v-181q0 -70 49 -120v-37h-322v37z" />
    <glyph glyph-name="q" unicode="q" horiz-adv-x="1089" 
d="M663 156l-6 1q-79 18 -146 65q-51 37 -91 88l-15 19v-201h258v28zM132 37q48 51 48 120v443q0 68 -45 117q45 50 45 117v442q0 71 -48 121v37h804v-37q-48 -50 -48 -121v-442q0 -67 45 -117q-45 -49 -45 -117v-249q-24 -9 -72 -9q-90 0 -153 90v168q0 68 -45 117
q45 50 45 117v471h-258v-471q0 -68 45 -117q-45 -49 -45 -117v-193l108 109h38q21 -83 80 -149q78 -89 185 -89q76 0 114 19q25 15 47 50q23 39 -5 72q-21 25 -19 52t26 39q38 19 61 -16q29 -43 -4 -138q-43 -127 -143 -179l-5 -3v-17q0 -69 48 -120v-36h-804v36z" />
    <glyph glyph-name="r" unicode="r" horiz-adv-x="1073" 
d="M732 37q49 51 49 120v205q0 126 -84 213q-75 81 -166 81h-9v-499q0 -70 49 -120v-37h-322v37q48 50 48 120v453l-13 -9q-50 -34 -76 -77q-24 -39 6 -72q20 -25 18 -52t-27 -39q-37 -17 -60 16q-29 44 4 138q47 133 150 200q96 64 232 64q91 0 166 80q84 87 84 213v233
h-259v-461q-124 -2 -225 -56v489q0 70 -48 120v37h804v-37q-47 -50 -47 -120v-205q0 -112 -54 -203q-52 -90 -147 -145l-12 -7l12 -7q95 -56 147 -145q54 -91 54 -203v-205q0 -71 47 -120v-37h-321v37z" />
    <glyph glyph-name="s" unicode="s" horiz-adv-x="1099" 
d="M262 37q47 51 47 120v207q-1 135 -2 147v0q-6 33 -39 58q-23 16 -52 4q-31 -12 -55 -2q-26 11 -29 38q-5 42 36 54q51 15 127 -49q133 -111 176 -155q35 -35 51 -61q12 -20 12 -34v-236h259v106q0 117 -111 240v0q-48 47 -115 48q-5 66 -54 113q-99 90 -143 152
q-61 86 -61 172v318q0 70 -47 120v37h804v-34q-67 -20 -138 -120q-76 -107 -89 -219q-13 -98 7 -173q18 -67 51 -87q40 -23 74 5q24 21 51 19q28 -2 39 -26q18 -38 -16 -61q-44 -29 -139 4q-78 27 -136 104q-69 89 -73 209q-6 122 23 240l2 10h-188v-346q0 -91 106 -200v0
q50 -45 115 -45v0q5 -67 55 -113q98 -91 145 -165q63 -98 63 -202v-77q0 -70 48 -120v-37h-804v37z" />
    <glyph glyph-name="t" unicode="t" horiz-adv-x="1162" 
d="M422 37q48 50 48 120v444q-1 67 -45 116q44 48 45 116v472h-48q-68 0 -107 -42q-28 -31 -53 -103h-33v41q0 76 -39 133q-13 19 -33 38q-7 8 -15 15l-10 10v37h998v-34q-67 -20 -138 -120q-76 -107 -90 -219q-12 -98 8 -173q18 -67 51 -87q40 -23 73 5q24 21 51 19
q28 -2 40 -26q17 -38 -16 -61q-43 -29 -139 4q-78 27 -136 104q-68 89 -74 209q-5 122 23 240l2 10h-91l1 -472q0 -68 45 -116q-45 -49 -45 -117l-1 -443q0 -70 49 -120v-37h-321v37z" />
    <glyph glyph-name="u" unicode="u" 
d="M132 37q48 51 48 120v443q0 68 -45 117q45 49 45 117v443q0 70 -48 120v37h321v-37q-48 -50 -48 -120v-443q0 -68 45 -117q-45 -49 -45 -117v-472h259v472q0 68 -46 117q46 49 46 117v443q0 70 -49 120v37h321v-37q-47 -50 -47 -120v-443q0 -68 44 -117q-44 -49 -44 -117
v-443q0 -69 47 -120v-37h-804v37z" />
    <glyph glyph-name="v" unicode="v" 
d="M373 37q25 27 23 65q-2 39 -30 66q-90 82 -131 143q-55 82 -55 164v125q0 68 -45 117q45 49 45 116v444q0 70 -48 120v37h321v-37q-48 -50 -48 -120v-444q0 -67 45 -116q-45 -49 -45 -117v-125q0 -97 123 -218l6 -6l6 6q124 121 124 218v125q0 68 -46 117q46 49 46 116
v444q0 70 -49 120v37h321v-37q-47 -50 -47 -120v-444q0 -67 44 -116q-44 -49 -44 -117v-125q0 -82 -56 -164q-42 -61 -131 -143q-29 -27 -30 -66q-2 -37 22 -65v-37h-321v37z" />
    <glyph glyph-name="w" unicode="w" horiz-adv-x="1439" 
d="M857 37q25 28 23 65q-2 40 -31 66q-39 38 -67 67l-6 6l-6 -6q-29 -30 -68 -67q-29 -26 -31 -66q-2 -37 23 -65v-37h-321l1 37q25 27 23 65q-3 40 -30 66q-91 82 -132 143q-55 82 -55 165v124q0 68 -45 117q45 49 45 117v443q0 70 -48 120v37h321v-37q-48 -50 -48 -120
v-443q0 -68 44 -117q-44 -49 -44 -117v-124q0 -98 123 -219l6 -6l6 6q124 121 124 219v124q0 68 -46 117q46 49 46 117v202q0 13 12 33q15 27 51 62q43 45 175 154q77 64 128 49q41 -12 36 -54q-3 -26 -29 -37t-55 2q-30 12 -53 -4q-33 -26 -38 -58v-1q-2 -13 -2 -146v-202
q0 -68 44 -117q-44 -49 -44 -117v-124q0 -98 122 -219l6 -6l6 6q123 121 123 219v124q0 68 -44 117q44 49 44 117v443q0 70 -48 120v37h321v-37q-48 -50 -48 -120v-443q0 -68 45 -117q-45 -49 -45 -117v-124q0 -83 -55 -165q-41 -61 -130 -143q-29 -26 -32 -65
q-2 -38 24 -66v-37h-321v37z" />
    <glyph glyph-name="x" unicode="x" 
d="M615 37q49 50 49 120v173q0 122 -124 254l-6 7l-6 -7q-123 -130 -123 -254v-173q0 -70 48 -120v-37h-321v37q48 50 48 120v173q0 113 73 220q52 73 166 176l88 80q49 45 79 79q78 90 78 170v222q0 70 -49 120v37h321v-37q-48 -50 -48 -120v-222q0 -89 -66 -179
q-45 -60 -152 -157l-7 -6l7 -6q103 -96 152 -169q66 -101 66 -208v-173q0 -71 48 -120v-37h-321v37zM132 1434h321v-37q-48 -50 -48 -121v-221q0 -82 84 -177q-31 -30 -80 -74l-52 -48q-84 79 -123 137q-54 82 -54 162v221q0 71 -48 121v37z" />
    <glyph glyph-name="y" unicode="y" 
d="M373 37q49 50 49 120v348l-48 42l-44 42q-47 44 -77 84q-73 96 -73 189v415q0 70 -48 120v37h322v-37q-49 -50 -49 -120v-415q0 -98 123 -219l6 -5l6 5q124 121 124 219v415q0 70 -49 120v37h321v-37q-47 -50 -47 -120v-415q0 -94 -75 -189q-29 -39 -77 -84l-43 -42
l-47 -42v-348q0 -70 47 -120v-37h-321v37z" />
    <glyph glyph-name="z" unicode="z" horiz-adv-x="1092" 
d="M133 37q48 51 48 120v77q0 104 64 202q46 74 145 165l13 14q37 42 42 99q65 0 114 45q106 109 106 200v346h-187l2 -10q28 -118 23 -240q-5 -120 -74 -209q-58 -77 -136 -104q-95 -33 -139 -4q-34 23 -16 61q12 24 39 26q28 2 52 -19q33 -28 73 -5q33 20 51 87
q20 76 8 173q-14 113 -90 219q-70 100 -138 120v34h805v-37q-48 -50 -48 -120v-318q0 -86 -61 -172q-43 -62 -143 -152q-49 -47 -54 -113q-66 -1 -115 -47v-1q-111 -123 -111 -240v-106h259v236q0 14 12 34q16 26 51 61q44 45 175 155q77 64 128 49q41 -13 37 -54
q-4 -27 -30 -38q-24 -10 -54 2q-31 12 -52 -4q-35 -25 -39 -58q-1 -5 -2 -30q-1 -36 -1 -117v-207q0 -69 48 -120v-37h-805v37z" />
    <glyph glyph-name="braceleft" unicode="{" horiz-adv-x="915" 
d="M738 1672q71 0 120 48h37v-224h-37q-51 48 -120 48h-138q-2 -14 -2 -28v-551q-4 -51 -40 -102q-41 -58 -99 -80l-169 -68l169 -68q58 -22 99 -80q36 -51 40 -102v-552q0 -15 2 -29h138q71 0 120 48h37v-224h-37q-51 48 -120 48h-316v37q48 51 48 120v603l-179 72
q-69 28 -120 0l-39 15v224l39 15q51 -28 120 0l179 71v603q0 70 -48 121v35h316z" />
    <glyph glyph-name="bar" unicode="|" horiz-adv-x="376" 
d="M132 -207q48 49 48 120v685q0 68 -45 117q45 48 45 116v685q0 70 -48 121v35h224v-35q-48 -51 -48 -121v-685q0 -67 45 -116q-45 -49 -45 -117v-685q0 -69 48 -120v-37h-224v37z" />
    <glyph glyph-name="braceright" unicode="}" horiz-adv-x="915" 
d="M895 827v-224l-39 -15q-51 28 -120 0l-179 -72v-603q0 -69 48 -120v-37h-316q-69 0 -120 -48h-37v224h37q49 -48 120 -48h138q2 14 2 29v552q4 51 40 102q41 58 99 80l169 68l-169 68q-58 22 -99 80q-36 51 -40 102v551q0 14 -2 28h-138q-69 0 -120 -48h-37v224h37
q49 -48 120 -48h316v-35q-48 -51 -48 -121v-603l179 -71q69 -28 120 0z" />
    <glyph glyph-name="asciitilde" unicode="~" horiz-adv-x="1176" 
d="M409 730q-60 26 -95 26q-18 0 -30 -7q-45 -27 -35 -78q8 -38 -10 -66q-19 -28 -51 -27q-51 3 -56 53q-6 63 83 145q70 64 201 70q145 7 277 -65q234 -128 305 -86q45 28 35 78q-9 38 10 66q18 29 51 27q51 -3 56 -53q6 -63 -83 -145q-76 -70 -190 -88q-136 -23 -262 46
q-146 79 -206 104z" />
    <glyph glyph-name="exclamdown" unicode="&#xa1;" horiz-adv-x="473" 
d="M292 790q-56 0 -96 40t-40 97t40 96q40 40 96 40q57 0 97 -40q40 -39 40 -96t-40 -97t-97 -40zM132 677h321v-37q-48 -50 -48 -119v-106q0 -67 44 -117q-44 -48 -44 -116v-443q0 -71 48 -121v-36h-321v36q48 51 48 121v443q0 68 -45 116q45 50 45 117v106q0 69 -48 119
v37z" />
    <glyph glyph-name="cent" unicode="&#xa2;" horiz-adv-x="969" 
d="M132 37q48 51 48 120v443q0 68 -45 117q45 49 45 117v443q0 70 -48 120v37h503q24 96 -22 165l14 53h307l-14 -48q-83 -68 -109 -164l-2 -6h127v-34q-67 -20 -137 -120q-37 -52 -60 -105l-30 -113v-1q-13 -98 8 -173q17 -67 51 -87q40 -23 73 5q23 21 51 19t40 -26
q17 -38 -17 -61q-43 -29 -138 4q-74 25 -129 93q-24 -91 20 -160q-81 -67 -106 -160l-103 -387h188q67 0 106 44q29 31 53 102h34v-40q0 -78 38 -133q13 -20 33 -40l14 -14l8 -6l3 -4v-37h-511l-24 -90q-26 -94 22 -164l-14 -53h-307l14 49q83 67 108 163l26 95h-118v37z
M405 834q0 -53 27 -94q28 40 42 88l96 360q6 54 19 107l3 10h-187v-471z" />
    <glyph glyph-name="sterling" unicode="&#xa3;" horiz-adv-x="1155" 
d="M365 1277q0 70 -48 120v37h805v-34q-68 -20 -138 -120q-76 -106 -90 -219q-12 -98 8 -173q18 -67 51 -87q40 -23 73 5q24 21 52 19q27 -2 39 -27q18 -37 -16 -60q-43 -29 -139 4q-78 27 -136 104q-68 89 -74 209q-5 122 23 240l2 10h-187v-346q0 -57 -36 -178h65
q63 0 107 48h31v-224h-31q-44 48 -107 48h-93q-7 0 -13 -1q-7 -21 -15 -43q-92 -258 -92 -375v-106h242q68 0 107 44q28 31 52 102h34v-40q0 -78 38 -133q13 -20 33 -40l7 -7l9 -7l10 -10v-37h-805v37q48 50 48 120v77q0 104 92 369q9 26 17 50h-63q-62 0 -107 -48h-30v224
h30q44 -48 107 -48h103q35 122 35 178v318v0z" />
    <glyph glyph-name="currency" unicode="&#xa4;" horiz-adv-x="846" 
d="M314 689q0 -66 50 -116t116 -50q65 0 115 50t50 116q0 65 -50 115t-115 50q-66 0 -116 -50t-50 -113v-2zM641 367q-1 48 -23 86q-62 -37 -139 -37t-138 37q-23 -38 -24 -85l-27 -26l-158 158l26 26q47 1 85 24q-37 62 -37 139q0 76 37 138q-38 23 -86 24l-25 25l159 159
l26 -25q1 -47 24 -85q61 36 138 36t138 -36q24 38 25 85l25 25l159 -158l-26 -26q-47 -1 -84 -24q37 -61 37 -138t-37 -139q37 -23 84 -24l26 -25l-159 -159z" />
    <glyph glyph-name="yen" unicode="&#xa5;" 
d="M334 585l-4 4q-47 44 -77 84q-73 96 -73 189v415q0 70 -48 120v37h322v-37q-49 -50 -49 -120v-415q0 -98 123 -219l6 -5l6 5q124 121 124 219v415q0 70 -49 120v37h321v-37q-47 -50 -47 -120v-415q0 -94 -75 -189q-29 -39 -77 -84l-4 -4h23q70 0 121 48h36v-176h-266
v-114h266v-177h-36q-51 49 -121 49h-109v-58q0 -70 47 -120v-37h-321v37q49 50 49 120v58h-109q-69 0 -120 -49h-36v177h265v114h-265v176h36q51 -48 120 -48h21z" />
    <glyph glyph-name="brokenbar" unicode="&#xa6;" horiz-adv-x="376" 
d="M132 -211q48 43 48 107v93q0 59 -45 103q45 43 45 103v93q0 62 -48 107v30h224v-30q-48 -44 -48 -107v-93q0 -60 45 -103q-45 -44 -45 -103v-93q0 -64 48 -107v-31h-224v31zM131 1036q48 43 48 107v93q0 59 -45 103q45 43 45 103v93q0 62 -48 107v30h224v-30
q-48 -44 -48 -107v-93q0 -60 45 -103q-45 -44 -45 -103v-93q0 -64 48 -107v-31h-224v31z" />
    <glyph glyph-name="section" unicode="&#xa7;" 
d="M628 689q12 -51 52 -89q98 -91 145 -165q64 -98 64 -202v-76q0 -70 47 -120v-37h-804v37q3 3 10 9l15 16q20 20 33 38q39 57 39 133v41h33q25 -71 53 -103q39 -42 107 -42h242v104q0 118 -111 241q-49 46 -116 48q-4 66 -53 113q-100 91 -143 151q-61 86 -61 173v318
q0 70 -48 120v37h141q-19 22 -32 41q-61 86 -61 173v318q0 70 -48 120v37h804v-38q-3 -3 -9 -8l-16 -16q-20 -20 -33 -39q-38 -56 -38 -133v-40h-34q-24 71 -53 103q-39 42 -106 42h-242v-346q0 -92 106 -201q49 -45 114 -45q6 -66 55 -113q98 -91 145 -165q64 -98 64 -202
v-76q0 -70 47 -120v-37h-308zM405 959q0 -66 54 -141h205v104q0 118 -111 241q-49 46 -116 48q-3 50 -32 89v-341z" />
    <glyph glyph-name="dieresis" unicode="&#xa8;" horiz-adv-x="969" 
d="M365 1457q-57 0 -97 40t-40 97q0 56 40 96t97 40t97 -40t40 -96q0 -57 -40 -97t-97 -40zM844 1594q0 -57 -40 -97t-96 -40q-57 0 -97 40q-39 40 -39 97q0 55 39 96q40 40 97 40q56 0 96 -40t40 -96z" />
    <glyph glyph-name="copyright" unicode="&#xa9;" 
d="M132 37q48 50 48 120v128q0 68 -45 117q45 49 45 117v128q0 70 -48 120v37h804v-37q-48 -50 -48 -120v-128q0 -68 45 -117q-45 -49 -45 -117v-128q0 -69 48 -120v-37h-804v37zM445 252q11 11 11 27v97q0 13 -8 24q-43 -49 -43 -115v-157h258v157q0 68 -45 117
q45 48 45 117v156h-258v-156q0 -68 43 -115q8 10 8 24v98q0 15 -11 26v8h177v-7q-14 -4 -30 -27q-17 -23 -20 -48q-3 -21 2 -38q4 -15 11 -19q9 -5 16 1q6 5 12 4q6 0 9 -6q3 -8 -4 -13q-10 -7 -31 1q-17 6 -30 23q-15 19 -16 46q-2 27 5 53l1 2h-42v-104q0 -15 10 -26
q-10 -11 -10 -26v-104h54q14 0 23 10q6 7 12 22h7v-8q0 -18 9 -30q3 -4 7 -9l3 -3l2 -1v-9h-177v8z" />
    <glyph glyph-name="ordfeminine" unicode="&#xaa;" horiz-adv-x="358" 
d="M238 1126q11 11 11 27v63h-1q-18 4 -33 15q-11 8 -20 19l-3 4v-101q0 -16 11 -27v-8h-71v8q11 11 11 27v97q0 15 -10 26q10 11 10 26v97q0 16 -11 27v8h177v-8q-11 -11 -11 -27v-140q-5 -2 -15 -2q-20 0 -34 20v128h-57v-134l24 24h8q5 -18 18 -32q17 -20 41 -20
q16 0 25 4q5 4 10 11q5 9 -1 16q-5 5 -4 12q0 6 5 8q9 4 14 -3q6 -10 -1 -31q-9 -28 -31 -39l-2 -1v-67q0 -16 11 -27v-8h-71v8z" />
    <glyph glyph-name="guillemotleft" unicode="&#xab;" horiz-adv-x="700" 
d="M455 1433h225v-37q-48 -50 -48 -120v-174q0 -56 -40 -96q-37 -37 -88 -40v310q0 70 -49 120v37zM132 1434h224v-37q-48 -50 -48 -120v-174q0 -56 -40 -96q-37 -37 -88 -40v310q0 70 -48 120v37z" />
    <glyph glyph-name="logicalnot" unicode="&#xac;" horiz-adv-x="1014" 
d="M133 800v321h29q40 -48 94 -48h615q55 0 95 48h28v-805h-26q-15 68 -94 138q-85 76 -173 90v0q-76 12 -135 -8q-53 -18 -69 -51q-19 -40 4 -73q16 -24 15 -51q-2 -28 -21 -40q-30 -18 -47 16q-23 43 2 139q21 78 81 136q71 69 166 74q100 5 188 -22l9 -2v186h-638
q-54 0 -94 -48h-29z" />
    <glyph glyph-name="registered" unicode="&#xae;" 
d="M663 285q0 68 -45 117q45 48 45 117v156h-258v-156q0 -69 45 -117q-45 -49 -45 -117v-157h258v157zM132 37q48 50 48 120v128q0 68 -45 117q45 49 45 117v128q0 70 -48 120v37h804v-37q-48 -50 -48 -120v-128q0 -68 45 -117q-45 -49 -45 -117v-128q0 -69 48 -120v-37
h-804v37zM565 244h70v8q-10 11 -10 27v45q0 24 -12 44q-11 20 -32 32l-3 2l3 1q21 13 32 32q12 20 12 45v45q0 16 10 27v8h-177v-8q11 -11 11 -27v-108q22 12 49 13v101h57v-51q0 -28 -18 -47q-17 -17 -37 -17q-30 0 -51 -15q-22 -14 -33 -44q-7 -20 -1 -30q5 -7 14 -4
q5 3 6 9q0 6 -4 12q-7 7 -2 15q6 10 17 17l3 2v-99q0 -16 -11 -27v-8h71v8q-11 11 -11 27v109h2q20 0 37 -17q18 -20 18 -47v-45q0 -16 -10 -27v-8z" />
    <glyph glyph-name="macron" unicode="&#xaf;" horiz-adv-x="1586" 
d="M169 1435q50 -48 120 -48h443q68 0 117 45q48 -45 117 -45h443q70 0 120 48h37v-321h-37q-50 48 -120 48h-443q-68 0 -117 -45q-49 45 -117 45h-443q-70 0 -120 -48h-37v321h37z" />
    <glyph glyph-name="degree" unicode="&#xb0;" horiz-adv-x="437" 
d="M183 1203q42 39 97 39q58 0 98 -39q39 -40 39 -98q0 -55 -39 -97q-40 -40 -98 -40q-56 0 -97 40q-40 41 -40 97q0 58 40 98zM214 1105q0 -26 20 -46t46 -20t46 20t20 46t-20 46t-46 20t-46 -20t-20 -45v-1z" />
    <glyph glyph-name="plusminus" unicode="&#xb1;" horiz-adv-x="908" 
d="M398 538q48 50 48 120v158h-158q-69 0 -120 -49h-36v225h36q51 -48 120 -48h158v157q0 70 -48 121v36h224v-36q-48 -51 -48 -121v-157h157q70 0 121 48h36v-225h-36q-51 49 -121 49h-157v-158q0 -70 48 -120v-37h-224v37zM857 166q-44 48 -107 48h-137q-59 0 -103 -45
q-43 45 -103 45h-138q-62 0 -107 -48h-30v224h30q44 -48 107 -48h138q60 0 103 45q44 -45 103 -45h137q63 0 107 48h31v-224h-31z" />
    <glyph glyph-name="uni00B2" unicode="&#xb2;" horiz-adv-x="329" 
d="M132 1126q10 11 10 27v17q0 23 15 44q10 17 32 37l2 3q9 9 10 22q14 0 25 9q23 24 23 45v76h-41v-2q7 -26 5 -53q-1 -27 -16 -46q-13 -17 -30 -23q-21 -8 -30 -1q-8 5 -4 13q3 6 9 6t11 -4q7 -6 16 -1q7 4 11 19q5 16 2 38q-3 25 -20 48q-15 22 -30 27v7h177v-8
q-10 -11 -10 -26v-70q0 -19 -14 -38q-9 -14 -31 -34q-11 -10 -12 -25q-15 0 -25 -10v0q-25 -28 -25 -53v-24h53q15 0 24 10q6 7 12 22h7v-8q0 -18 8 -30q3 -4 8 -9l1 -1l2 -2l2 -2v-8h-177v8z" />
    <glyph glyph-name="uni00B3" unicode="&#xb3;" horiz-adv-x="329" 
d="M142 1126l1 1l2 1v0l3 3q5 5 7 9q9 12 9 30v8h7q6 -15 12 -22q9 -10 23 -10h43v33q0 29 -18 47q-10 10 -19 11q-3 1 -6 0t-4 -3q-4 -5 -1 -11q3 -7 1 -12q-3 -6 -9 -7q-9 -1 -11 8q-4 12 10 28q8 10 19 22q12 13 19 21q10 10 14 20q5 13 5 33v70h-41v-2q7 -26 5 -53
q-1 -27 -16 -46q-13 -17 -30 -23q-21 -8 -30 -1q-8 5 -4 13q3 6 9 6t11 -4q7 -6 16 -1q7 4 11 19q5 16 2 38q-3 25 -20 48q-15 22 -30 27v7h177v-8q-10 -11 -10 -26v-64q0 -25 -12 -45q-11 -20 -32 -32l-3 -2l3 -1q21 -12 32 -32q12 -20 12 -45v-26q0 -16 10 -27v-8h-167v8z
" />
    <glyph glyph-name="acute" unicode="&#xb4;" horiz-adv-x="516" 
d="M482 1399q-68 -49 -96 -118l-70 -174q-22 -58 -80 -99q-51 -36 -102 -40l123 307q28 69 0 120l15 39h224z" />
    <glyph glyph-name="mu" unicode="&#xb5;" 
d="M614 0v37l1 1l7 7q-136 -2 -242 70q-95 55 -147 145q-54 91 -54 203v137q0 68 -46 117q46 49 46 117v443q0 70 -47 120v37h321v-37q-49 -50 -49 -120v-443q0 -68 44 -117q-44 -49 -44 -117v-137q0 -126 84 -213q75 -80 166 -80h9v430q0 68 -45 117q45 48 45 117v442
q0 71 -49 121v37h322v-37q-48 -50 -48 -121v-442q0 -68 45 -117q-45 -49 -45 -117v-450q2 -66 47 -113v-37h-321zM132 -249h322v37q-49 50 -49 121v141q-124 2 -225 56v-197q0 -71 -48 -121v-37z" />
    <glyph glyph-name="paragraph" unicode="&#xb6;" horiz-adv-x="1441" 
d="M936 0h-322v37q49 50 49 120v181h-9q-210 0 -343 118q-132 117 -132 300v521q0 70 -48 120v37h1290v-37q-47 -51 -47 -120v-443q0 -68 44 -117q-44 -49 -44 -117v-443q0 -70 47 -120v-37h-321v37q49 50 49 120v443q0 68 -46 117q46 49 46 117v472h-259q-2 -14 -2 -29
v-771q55 31 89 87q23 39 -6 73q-20 24 -18 52q2 27 27 38q37 18 60 -16q29 -43 -4 -138q-45 -128 -144 -195l-4 -3v-247q0 -70 48 -120v-37z" />
    <glyph glyph-name="periodcentered" unicode="&#xb7;" horiz-adv-x="425" 
d="M405 717q0 -57 -40 -97t-97 -40t-96 40q-41 40 -41 97t41 97q39 40 96 40t97 -40t40 -97z" />
    <glyph glyph-name="cedilla" unicode="&#xb8;" horiz-adv-x="1086" 
d="M546 -124q-2 13 -11 22q-22 20 -32 33q-13 19 -13 38v38q0 2 -1 5h50v-43q0 -20 23 -44q10 -8 21 -10h5q1 -14 11 -24l1 -1q22 -20 32 -36q14 -22 14 -45v-48q0 -16 10 -27v-8h-177v8q11 11 11 27v45q-1 30 -1 33q-1 7 -8 12q-6 4 -12 1q-7 -3 -12 0q-6 2 -6 8q-2 9 8 12
q11 3 28 -11q29 -24 38 -34q8 -8 12 -13q2 -5 2 -8v-52h57v55q0 26 -24 53q-11 11 -26 11v3z" />
    <glyph glyph-name="uni00B9" unicode="&#xb9;" horiz-adv-x="287" 
d="M196 1126q11 11 11 27v97q0 15 -10 26q10 10 10 26v35l-2 -1q-20 -9 -45 -3q-22 5 -26 16q-4 8 3 13q6 3 11 0t8 -9q2 -9 12 -10q10 0 15 3q8 5 17 19q11 18 8 37q-2 8 -5 14t-7 10v8h71v-8q-10 -12 -10 -27v-97q0 -15 10 -26q-10 -11 -10 -26v-97q0 -16 10 -27v-8h-71v8
z" />
    <glyph glyph-name="ordmasculine" unicode="&#xba;" horiz-adv-x="329" 
d="M132 1126q11 11 11 27v97q0 15 -10 26q10 11 10 26v98q0 15 -11 26v8h177v-8q-10 -11 -10 -26v-98q0 -15 10 -26q-10 -11 -10 -26v-97q0 -16 10 -27v-8h-177v8zM249 1250q0 15 -10 26q10 11 10 26v104h-57v-104q0 -15 10 -26q-10 -11 -10 -26v-104h57v104z" />
    <glyph glyph-name="guillemotright" unicode="&#xbb;" horiz-adv-x="700" 
d="M455 1433h225v-37q-48 -50 -48 -120v-174q0 -56 -40 -96q-37 -37 -88 -40v310q0 70 -49 120v37zM132 1434h224v-37q-48 -50 -48 -120v-174q0 -56 -40 -96q-37 -37 -88 -40v310q0 70 -48 120v37z" />
    <glyph glyph-name="onequarter" unicode="&#xbc;" horiz-adv-x="1198" 
d="M153 32q74 49 111 118l238 443q36 68 17 118q72 48 108 116l238 443q37 70 16 121l21 40h270l-18 -34q-75 -49 -112 -119l-237 -443q-36 -68 -18 -117q-71 -49 -108 -117l-238 -443q-36 -69 -16 -120l-21 -40h-270zM240 754q19 18 19 46v166q0 25 -17 44q17 17 17 44v60
l-4 -1q-34 -16 -77 -6q-37 9 -44 28q-7 13 5 22q10 5 19 0t14 -15q3 -16 20 -18q17 0 26 6q13 8 29 32q19 31 13 63q-3 14 -8 24t-12 17v14h121v-14q-17 -20 -17 -46v-166q0 -25 17 -44q-17 -19 -17 -44v-166q0 -28 17 -46v-14h-121v14zM845 -37q18 19 18 45v91h-3
q-79 0 -129 44t-50 112v175q0 26 -18 45v14h121v-14q-18 -19 -18 -45v-175q0 -47 31 -80q29 -30 63 -30q51 0 87 -24q39 -25 57 -76q12 -35 2 -51q-9 -13 -24 -6q-9 4 -9 14q-1 11 7 20q10 12 2 27q-10 16 -29 29l-5 3v-73q0 -26 18 -45v-14h-121v14zM863 175q0 26 -17 44
q17 19 17 44v167q0 26 -18 45v14h121v-14q-18 -19 -18 -45v-167q0 -25 17 -44q-17 -18 -17 -44v-27q-38 21 -85 21v6z" />
    <glyph glyph-name="onehalf" unicode="&#xbd;" horiz-adv-x="1198" 
d="M153 32q74 49 111 118l238 443q36 68 17 118q72 48 108 116l238 443q37 70 16 121l21 40h270l-18 -34q-75 -49 -112 -119l-237 -443q-36 -68 -18 -117q-71 -49 -108 -117l-238 -443q-36 -69 -16 -120l-21 -40h-270zM663 -37q18 19 18 47v30q0 40 26 76q17 30 55 64l4 6
q16 15 17 38q25 0 44 16q40 41 40 78v132h-71v-3q12 -45 8 -92q-2 -47 -28 -81q-22 -29 -52 -40q-36 -13 -52 -1q-14 8 -7 22q5 11 16 11q10 0 19 -7q12 -11 28 -2q12 7 19 33q8 28 3 66q-5 44 -35 84q-26 38 -52 47v12h308v-14q-17 -19 -17 -45v-122q0 -33 -24 -66
q-16 -25 -54 -59q-20 -18 -21 -44q-26 0 -44 -17v0q-43 -49 -43 -92v-42h92q26 0 42 17q10 12 21 38h12v-13q0 -32 14 -53q5 -7 14 -15l1 -2l4 -4l3 -3v-14h-308v14zM240 754q19 18 19 46v166q0 25 -17 44q17 17 17 44v60l-4 -1q-34 -16 -77 -6q-37 9 -44 28q-7 13 5 22
q10 5 19 0t14 -15q3 -16 20 -18q17 0 26 6q13 8 29 32q19 31 13 63q-3 14 -8 24t-12 17v14h121v-14q-17 -20 -17 -46v-166q0 -25 17 -44q-17 -19 -17 -44v-166q0 -28 17 -46v-14h-121v14z" />
    <glyph glyph-name="threequarters" unicode="&#xbe;" horiz-adv-x="1198" 
d="M153 32q74 49 111 118l238 443q36 68 17 118q72 48 108 116l238 443q37 70 16 121l21 40h270l-18 -34q-75 -49 -112 -119l-237 -443q-36 -68 -18 -117q-71 -49 -108 -117l-238 -443q-36 -69 -16 -120l-21 -40h-270zM845 -37q18 19 18 45v91h-3q-79 0 -129 44t-50 112v175
q0 26 -18 45v14h121v-14q-18 -19 -18 -45v-175q0 -47 31 -80q29 -30 63 -30q51 0 87 -24q39 -25 57 -76q12 -35 2 -51q-9 -13 -24 -6q-9 4 -9 14q-1 11 7 20q10 12 2 27q-10 16 -29 29l-5 3v-73q0 -26 18 -45v-14h-121v14zM863 175q0 26 -17 44q17 19 17 44v167q0 26 -18 45
v14h121v-14q-18 -19 -18 -45v-167q0 -25 17 -44q-17 -18 -17 -44v-27q-38 21 -85 21v6zM149 754l2 1l3 2l6 5q8 9 12 16q15 20 15 51v14h12q10 -26 20 -38q16 -17 40 -17h73v56q0 50 -31 81q-17 17 -32 18q-5 2 -10 0q-5 -1 -7 -5q-7 -8 -2 -19q5 -12 2 -20q-5 -10 -16 -12
q-15 -2 -18 14q-7 20 17 47q13 17 32 38l33 36q17 17 24 34q8 22 8 57v119h-70v-3q12 -45 9 -91q-2 -46 -28 -78q-22 -29 -51 -40q-36 -13 -51 -1q-14 8 -7 22q5 10 15 10q11 0 19 -7q12 -10 27 -2q12 7 19 33q9 27 4 65q-5 43 -34 82q-26 38 -52 46v12h303v-14
q-17 -18 -17 -44v-109q0 -43 -21 -77q-19 -35 -55 -55l-5 -3l5 -2q36 -21 55 -55q21 -34 21 -77v-44q0 -28 17 -46v-14h-286v14z" />
    <glyph glyph-name="questiondown" unicode="&#xbf;" horiz-adv-x="958" 
d="M631 830q-40 -40 -96 -40q-57 0 -97 40t-40 97t40 97t97 40q56 0 96 -40t40 -97t-40 -97zM695 640q-48 -50 -48 -119v-77q0 -78 -36 -147q-23 -42 -82 -115l-24 -27l-21 -29q-25 -33 -40 -61q-39 -72 -39 -153v-202h186l-2 11q-27 112 -22 239q5 121 74 211
q58 76 136 103q96 32 139 3q34 -22 16 -60q-12 -24 -40 -26q-27 -2 -51 18q-33 30 -73 5q-33 -20 -51 -87q-20 -75 -8 -172v0q14 -112 90 -220q70 -100 138 -120v-33h-805v36q48 51 48 121v173q0 95 37 169q24 47 82 112l23 25l21 25q25 29 40 55q39 66 39 146v77
q0 69 -49 119v37h322v-37z" />
    <glyph glyph-name="Agrave" unicode="&#xc0;" horiz-adv-x="1089" 
d="M615 37q49 50 49 120v288l-7 1q-79 19 -146 67q-51 35 -91 87l-15 19v-462q0 -70 48 -120v-37h-321v37q48 50 48 120v443q0 68 -45 117q45 49 45 117v443q0 70 -48 120v37h804v-37q-48 -50 -48 -120v-636q-24 -8 -72 -8q-90 0 -152 88v584h-259v-608l108 108h38
q21 -81 80 -148q78 -90 185 -90q76 0 114 21q25 14 47 49q23 40 -5 73q-21 23 -19 51t26 40q38 17 61 -17q29 -43 -4 -138q-43 -128 -143 -179l-5 -3v-307q0 -70 48 -120v-37h-321v37zM173 1923h224l15 -39q-28 -51 0 -120l123 -307q-51 4 -102 40q-58 41 -80 99l-70 174
q-28 69 -96 118z" />
    <glyph glyph-name="Aacute" unicode="&#xc1;" horiz-adv-x="1089" 
d="M615 37q49 50 49 120v288l-7 1q-79 19 -146 67q-51 35 -91 87l-15 19v-462q0 -70 48 -120v-37h-321v37q48 50 48 120v443q0 68 -45 117q45 49 45 117v443q0 70 -48 120v37h804v-37q-48 -50 -48 -120v-636q-24 -8 -72 -8q-90 0 -152 88v584h-259v-608l108 108h38
q21 -81 80 -148q78 -90 185 -90q76 0 114 21q25 14 47 49q23 40 -5 73q-21 23 -19 51t26 40q38 17 61 -17q29 -43 -4 -138q-43 -128 -143 -179l-5 -3v-307q0 -70 48 -120v-37h-321v37zM883 1888q-68 -49 -96 -118l-70 -174q-22 -58 -80 -99q-51 -36 -102 -40l123 307
q28 69 0 120l15 39h224z" />
    <glyph glyph-name="Acircumflex" unicode="&#xc2;" horiz-adv-x="1089" 
d="M615 37q49 50 49 120v288l-7 1q-79 19 -146 67q-51 35 -91 87l-15 19v-462q0 -70 48 -120v-37h-321v37q48 50 48 120v443q0 68 -45 117q45 49 45 117v443q0 70 -48 120v37h804v-37q-48 -50 -48 -120v-636q-24 -8 -72 -8q-90 0 -152 88v584h-259v-608l108 108h38
q21 -81 80 -148q78 -90 185 -90q76 0 114 21q25 14 47 49q23 40 -5 73q-21 23 -19 51t26 40q38 17 61 -17q29 -43 -4 -138q-43 -128 -143 -179l-5 -3v-307q0 -70 48 -120v-37h-321v37zM443 1923h224l15 -39q-28 -51 0 -120l123 -307q-51 4 -102 40q-58 41 -80 99l-68 169
l-68 -169q-22 -58 -80 -99q-51 -36 -102 -40l123 307q28 69 0 120z" />
    <glyph glyph-name="Atilde" unicode="&#xc3;" horiz-adv-x="1089" 
d="M615 37q49 50 49 120v288l-7 1q-79 19 -146 67q-51 35 -91 87l-15 19v-462q0 -70 48 -120v-37h-321v37q48 50 48 120v443q0 68 -45 117q45 49 45 117v443q0 70 -48 120v37h804v-37q-48 -50 -48 -120v-636q-24 -8 -72 -8q-90 0 -152 88v584h-259v-608l108 108h38
q21 -81 80 -148q78 -90 185 -90q76 0 114 21q25 14 47 49q23 40 -5 73q-21 23 -19 51t26 40q38 17 61 -17q29 -43 -4 -138q-43 -128 -143 -179l-5 -3v-307q0 -70 48 -120v-37h-321v37zM341 1588q-50 21 -80 21q-15 0 -24 -6q-40 -24 -30 -66q6 -31 -9 -54t-42 -22
q-41 2 -45 42q-5 53 69 121q57 52 168 58q120 5 230 -55q196 -106 255 -71q41 23 31 67q-7 30 8 54q15 23 42 21q41 -2 45 -43q5 -51 -69 -119q-63 -58 -158 -74q-113 -19 -218 39q-122 65 -173 87z" />
    <glyph glyph-name="Adieresis" unicode="&#xc4;" horiz-adv-x="1089" 
d="M615 37q49 50 49 120v288l-7 1q-79 19 -146 67q-51 35 -91 87l-15 19v-462q0 -70 48 -120v-37h-321v37q48 50 48 120v443q0 68 -45 117q45 49 45 117v443q0 70 -48 120v37h804v-37q-48 -50 -48 -120v-636q-24 -8 -72 -8q-90 0 -152 88v584h-259v-608l108 108h38
q21 -81 80 -148q78 -90 185 -90q76 0 114 21q25 14 47 49q23 40 -5 73q-21 23 -19 51t26 40q38 17 61 -17q29 -43 -4 -138q-43 -128 -143 -179l-5 -3v-307q0 -70 48 -120v-37h-321v37zM364 1457q-57 0 -97 40t-40 97q0 56 40 96t97 40t97 -40t40 -96q0 -57 -40 -97t-97 -40z
M843 1594q0 -57 -40 -97t-96 -40q-57 0 -97 40q-39 40 -39 97q0 55 39 96q40 40 97 40q56 0 96 -40t40 -96z" />
    <glyph glyph-name="Aring" unicode="&#xc5;" horiz-adv-x="1089" 
d="M615 37q49 50 49 120v288l-7 1q-79 19 -146 67q-51 35 -91 87l-15 19v-462q0 -70 48 -120v-37h-321v37q48 50 48 120v443q0 68 -45 117q45 49 45 117v443q0 70 -48 120v37h804v-37q-48 -50 -48 -120v-636q-24 -8 -72 -8q-90 0 -152 88v584h-259v-608l108 108h38
q21 -81 80 -148q78 -90 185 -90q76 0 114 21q25 14 47 49q23 40 -5 73q-21 23 -19 51t26 40q38 17 61 -17q29 -43 -4 -138q-43 -128 -143 -179l-5 -3v-307q0 -70 48 -120v-37h-321v37zM438 1692q42 39 97 39q58 0 98 -39q39 -40 39 -98q0 -55 -39 -97q-40 -40 -98 -40
q-56 0 -97 40q-40 41 -40 97q0 58 40 98zM469 1594q0 -26 20 -46t46 -20t46 20t20 46t-20 46t-46 20t-46 -20t-20 -45v-1z" />
    <glyph glyph-name="AE" unicode="&#xc6;" horiz-adv-x="1455" 
d="M615 37q49 50 49 120v288l-7 1q-79 19 -146 67q-51 35 -91 87l-15 19v-462q0 -70 48 -120v-37h-321v37q48 50 48 120v443q0 68 -45 117q45 49 45 117v443q0 70 -48 120v37h1290v-34q-67 -20 -137 -120q-76 -107 -90 -219q-13 -98 8 -173q17 -67 51 -87q40 -23 73 5
q23 21 51 19t40 -26q17 -38 -17 -61q-43 -29 -138 4q-79 27 -137 104q-68 89 -74 209q-6 122 23 240l3 10h-190v-664q-24 -8 -72 -8q-90 0 -152 88v584h-259v-608l108 108h38q21 -81 80 -148q78 -90 185 -90q76 0 114 21q25 14 47 49q23 40 -5 73q-21 23 -19 51t26 40
q38 17 61 -17q29 -43 -4 -138q-43 -128 -143 -179l-5 -3v-336h245q67 0 106 44q28 31 52 102h34v-40q0 -78 38 -133q14 -20 34 -40l15 -15l7 -5l3 -4v-37h-807v37z" />
    <glyph glyph-name="Ccedilla" unicode="&#xc7;" horiz-adv-x="969" 
d="M472 0h-340v37q48 51 48 120v443q0 68 -45 117q45 49 45 117v443q0 70 -48 120v37h804v-34q-67 -20 -137 -120q-76 -106 -90 -219q-13 -98 8 -173q17 -67 51 -87q40 -23 73 5q23 21 51 19t40 -26q17 -38 -17 -61q-43 -29 -138 4q-79 27 -137 104q-68 89 -74 209
q-6 122 23 240l3 10h-187v-471q0 -68 45 -117q-45 -49 -45 -117v-472h242q67 0 106 44q29 31 53 102h34v-40q0 -78 38 -133q13 -20 33 -40l14 -14l8 -6l3 -4v-37h-415v-31q0 -20 23 -44q10 -8 21 -10h5q1 -14 11 -24l1 -1q22 -20 32 -36q14 -22 14 -45v-48q0 -16 10 -27v-8
h-177v8q11 11 11 27v45q-1 30 -1 33q-1 7 -8 12q-6 4 -12 1q-7 -3 -12 0q-6 2 -6 8q-2 9 8 12q11 3 28 -11q29 -24 38 -34q8 -8 12 -13q2 -5 2 -8v-52h57v55q0 26 -24 53q-11 11 -26 11v3q-2 13 -11 22q-22 20 -32 33q-13 19 -13 38v31z" />
    <glyph glyph-name="Egrave" unicode="&#xc8;" horiz-adv-x="969" 
d="M132 37q48 50 48 120v443q0 68 -45 117q45 49 45 117v443q0 70 -48 120v37h804v-34q-67 -20 -137 -120q-76 -107 -90 -219q-13 -98 8 -173q17 -67 51 -87q40 -23 73 5q23 21 51 19t40 -26q17 -38 -17 -61q-43 -29 -138 4q-79 27 -137 104q-68 89 -74 209q-6 122 23 240
l3 10h-187v-548h57q13 0 33 -12q27 -16 62 -52q43 -43 153 -174q64 -77 50 -128q-12 -42 -54 -37q-27 4 -37 29q-11 26 1 55q13 31 -4 53q-25 33 -58 38q-5 1 -30 2q-36 1 -116 1h-57v-404h194q67 0 106 44q28 31 52 102h34v-40q0 -78 38 -133q14 -20 34 -40l15 -15l7 -5
l3 -4v-37h-756v37zM173 1923h224l15 -39q-28 -51 0 -120l123 -307q-51 4 -102 40q-58 41 -80 99l-70 174q-28 69 -96 118z" />
    <glyph glyph-name="Eacute" unicode="&#xc9;" horiz-adv-x="969" 
d="M132 37q48 50 48 120v443q0 68 -45 117q45 49 45 117v443q0 70 -48 120v37h804v-34q-67 -20 -137 -120q-76 -107 -90 -219q-13 -98 8 -173q17 -67 51 -87q40 -23 73 5q23 21 51 19t40 -26q17 -38 -17 -61q-43 -29 -138 4q-79 27 -137 104q-68 89 -74 209q-6 122 23 240
l3 10h-187v-548h57q13 0 33 -12q27 -16 62 -52q43 -43 153 -174q64 -77 50 -128q-12 -42 -54 -37q-27 4 -37 29q-11 26 1 55q13 31 -4 53q-25 33 -58 38q-5 1 -30 2q-36 1 -116 1h-57v-404h194q67 0 106 44q28 31 52 102h34v-40q0 -78 38 -133q14 -20 34 -40l15 -15l7 -5
l3 -4v-37h-756v37zM883 1888q-68 -49 -96 -118l-70 -174q-22 -58 -80 -99q-51 -36 -102 -40l123 307q28 69 0 120l15 39h224z" />
    <glyph glyph-name="Ecircumflex" unicode="&#xca;" horiz-adv-x="969" 
d="M132 37q48 50 48 120v443q0 68 -45 117q45 49 45 117v443q0 70 -48 120v37h804v-34q-67 -20 -137 -120q-76 -107 -90 -219q-13 -98 8 -173q17 -67 51 -87q40 -23 73 5q23 21 51 19t40 -26q17 -38 -17 -61q-43 -29 -138 4q-79 27 -137 104q-68 89 -74 209q-6 122 23 240
l3 10h-187v-548h57q13 0 33 -12q27 -16 62 -52q43 -43 153 -174q64 -77 50 -128q-12 -42 -54 -37q-27 4 -37 29q-11 26 1 55q13 31 -4 53q-25 33 -58 38q-5 1 -30 2q-36 1 -116 1h-57v-404h194q67 0 106 44q28 31 52 102h34v-40q0 -78 38 -133q14 -20 34 -40l15 -15l7 -5
l3 -4v-37h-756v37zM443 1923h224l15 -39q-28 -51 0 -120l123 -307q-51 4 -102 40q-58 41 -80 99l-68 169l-68 -169q-22 -58 -80 -99q-51 -36 -102 -40l123 307q28 69 0 120z" />
    <glyph glyph-name="Edieresis" unicode="&#xcb;" horiz-adv-x="969" 
d="M132 0h756v37l-3 4l-7 5l-15 15q-20 20 -34 40q-38 55 -38 133v40h-34q-24 -71 -52 -102q-39 -44 -106 -44h-194v404h57q80 0 116 -1q25 -1 30 -2q33 -5 58 -38q17 -22 4 -53q-12 -29 -1 -55q10 -25 37 -29q42 -5 54 37q14 51 -50 128q-110 131 -153 174q-35 36 -62 52
q-20 12 -33 12h-57v548h187l-3 -10q-29 -118 -23 -240q6 -120 74 -209q58 -77 137 -104q95 -33 138 -4q34 23 17 61q-12 24 -40 26t-51 -19q-33 -28 -73 -5q-34 20 -51 87q-21 75 -8 173q14 112 90 219q70 100 137 120v34h-804v-37q48 -50 48 -120v-443q0 -68 -45 -117
q45 -49 45 -117v-443q0 -70 -48 -120v-37zM365 1457q-57 0 -97 40t-40 97q0 56 40 96t97 40t97 -40t40 -96q0 -57 -40 -97t-97 -40zM844 1594q0 -57 -40 -97t-96 -40q-57 0 -97 40q-39 40 -39 97q0 55 39 96q40 40 97 40q56 0 96 -40t40 -96z" />
    <glyph glyph-name="Igrave" unicode="&#xcc;" horiz-adv-x="473" 
d="M132 37q48 50 48 120v443q0 68 -45 117q45 48 45 117v443q0 70 -48 120v37h321v-37q-48 -50 -48 -120v-443q0 -68 45 -117q-45 -49 -45 -117v-443q0 -70 48 -120v-37h-321v37zM-69 1923h224l15 -39q-28 -51 0 -120l123 -307q-51 4 -102 40q-58 41 -80 99l-70 174
q-28 69 -96 118z" />
    <glyph glyph-name="Iacute" unicode="&#xcd;" horiz-adv-x="473" 
d="M132 37q48 50 48 120v443q0 68 -45 117q45 48 45 117v443q0 70 -48 120v37h321v-37q-48 -50 -48 -120v-443q0 -68 45 -117q-45 -49 -45 -117v-443q0 -70 48 -120v-37h-321v37zM641 1941q-68 -49 -96 -118l-70 -174q-22 -58 -80 -99q-51 -36 -102 -40l123 307q28 69 0 120
l15 39h224z" />
    <glyph glyph-name="Icircumflex" unicode="&#xce;" horiz-adv-x="473" 
d="M132 37q48 50 48 120v443q0 68 -45 117q45 48 45 117v443q0 70 -48 120v37h321v-37q-48 -50 -48 -120v-443q0 -68 45 -117q-45 -49 -45 -117v-443q0 -70 48 -120v-37h-321v37zM181 1923h224l15 -39q-28 -51 0 -120l123 -307q-51 4 -102 40q-58 41 -80 99l-68 169
l-68 -169q-22 -58 -80 -99q-51 -36 -102 -40l123 307q28 69 0 120z" />
    <glyph glyph-name="Idieresis" unicode="&#xcf;" horiz-adv-x="473" 
d="M132 0h321v37q-48 50 -48 120v443q0 68 45 117q-45 49 -45 117v443q0 70 48 120v37h-321v-37q48 -50 48 -120v-443q0 -69 -45 -117q45 -49 45 -117v-443q0 -70 -48 -120v-37zM122 1457q-57 0 -97 40t-40 97q0 56 40 96t97 40t97 -40t40 -96q0 -57 -40 -97t-97 -40z
M601 1594q0 -57 -40 -97t-96 -40q-57 0 -97 40q-39 40 -39 97q0 55 39 96q40 40 97 40q56 0 96 -40t40 -96z" />
    <glyph glyph-name="Eth" unicode="&#xd0;" horiz-adv-x="1070" 
d="M744 726q37 46 37 106v232q0 126 -84 213q-75 81 -166 81q-123 0 -194 -26q-84 -30 -129 -105q-23 -39 6 -73q20 -24 18 -52q-2 -27 -27 -38q-37 -19 -60 16q-29 43 4 138q47 132 150 200q96 63 232 63q210 0 343 -118q132 -117 132 -299v-232q0 -67 44 -116
q-44 -49 -44 -117v-183q0 -183 -132 -299q-133 -118 -343 -118h-282v37q48 50 48 120v443q0 28 -8 53h-75q-62 0 -107 -48h-30v224h30q44 -48 107 -48h75q8 24 8 52v400q64 59 225 60v-460q0 -28 8 -52h76q63 0 107 48h31v-102zM530 652q-8 -25 -8 -53v-472h9q91 0 166 78
q84 85 84 211v183q0 61 -37 107v-102h-31q-44 48 -107 48h-76z" />
    <glyph glyph-name="Ntilde" unicode="&#xd1;" horiz-adv-x="1073" 
d="M732 36q49 50 49 120v443q0 68 -46 117q46 48 46 116v232q0 126 -84 213q-75 81 -166 81q-123 0 -194 -26q-84 -31 -129 -105q-23 -39 6 -73q20 -24 18 -52q-2 -27 -26 -38h-1q-37 -19 -60 16q-29 43 4 138q47 132 150 200q96 63 232 63q210 0 343 -118
q132 -117 132 -299v-232q0 -67 44 -116q-44 -49 -44 -117v-443q0 -70 47 -120v-37h-321v37zM249 36q48 50 48 120v443q0 68 -45 117q45 49 45 116v400q64 59 225 60v-460q0 -67 45 -116q-45 -49 -45 -117v-443q0 -70 49 -120v-37h-322v37zM457 1588q-50 21 -80 21
q-15 0 -24 -6q-40 -24 -30 -66q6 -31 -9 -54t-42 -22q-41 2 -45 42q-5 53 69 121q57 52 168 58q120 5 230 -55q196 -106 255 -71q41 23 31 67q-7 30 8 54q15 23 42 21q41 -2 45 -43q5 -51 -69 -119q-63 -58 -158 -74q-113 -19 -218 39q-122 65 -173 87z" />
    <glyph glyph-name="Ograve" unicode="&#xd2;" 
d="M663 600q0 68 -45 117q45 48 45 117v471h-258v-471q0 -69 45 -117q-45 -49 -45 -117v-472h258v472zM132 37q48 50 48 120v443q0 68 -45 117q45 49 45 117v443q0 70 -48 120v37h804v-37q-48 -50 -48 -120v-443q0 -68 45 -117q-45 -49 -45 -117v-443q0 -69 48 -120v-37
h-804v37zM172 1923h224l15 -39q-28 -51 0 -120l123 -307q-51 4 -102 40q-58 41 -80 99l-70 174q-28 69 -96 118z" />
    <glyph glyph-name="Oacute" unicode="&#xd3;" 
d="M663 600q0 68 -45 117q45 48 45 117v471h-258v-471q0 -69 45 -117q-45 -49 -45 -117v-472h258v472zM132 37q48 50 48 120v443q0 68 -45 117q45 49 45 117v443q0 70 -48 120v37h804v-37q-48 -50 -48 -120v-443q0 -68 45 -117q-45 -49 -45 -117v-443q0 -69 48 -120v-37
h-804v37zM882 1888q-68 -49 -96 -118l-70 -174q-22 -58 -80 -99q-51 -36 -102 -40l123 307q28 69 0 120l15 39h224z" />
    <glyph glyph-name="Ocircumflex" unicode="&#xd4;" 
d="M663 600q0 68 -45 117q45 48 45 117v471h-258v-471q0 -69 45 -117q-45 -49 -45 -117v-472h258v472zM132 37q48 50 48 120v443q0 68 -45 117q45 49 45 117v443q0 70 -48 120v37h804v-37q-48 -50 -48 -120v-443q0 -68 45 -117q-45 -49 -45 -117v-443q0 -69 48 -120v-37
h-804v37zM442 1923h224l15 -39q-28 -51 0 -120l123 -307q-51 4 -102 40q-58 41 -80 99l-68 169l-68 -169q-22 -58 -80 -99q-51 -36 -102 -40l123 307q28 69 0 120z" />
    <glyph glyph-name="Otilde" unicode="&#xd5;" 
d="M663 600q0 68 -45 117q45 48 45 117v471h-258v-471q0 -69 45 -117q-45 -49 -45 -117v-472h258v472zM132 37q48 50 48 120v443q0 68 -45 117q45 49 45 117v443q0 70 -48 120v37h804v-37q-48 -50 -48 -120v-443q0 -68 45 -117q-45 -49 -45 -117v-443q0 -69 48 -120v-37
h-804v37zM340 1588q-50 21 -80 21q-15 0 -24 -6q-40 -24 -30 -66q6 -31 -9 -54t-42 -22q-41 2 -45 42q-5 53 69 121q57 52 168 58q120 5 230 -55q196 -106 255 -71q41 23 31 67q-7 30 8 54q15 23 42 21q41 -2 45 -43q5 -51 -69 -119q-63 -58 -158 -74q-113 -19 -218 39
q-122 65 -173 87z" />
    <glyph glyph-name="Odieresis" unicode="&#xd6;" 
d="M663 600q0 68 -45 117q45 48 45 117v471h-258v-471q0 -69 45 -117q-45 -49 -45 -117v-472h258v472zM132 37q48 50 48 120v443q0 68 -45 117q45 49 45 117v443q0 70 -48 120v37h804v-37q-48 -50 -48 -120v-443q0 -68 45 -117q-45 -49 -45 -117v-443q0 -69 48 -120v-37
h-804v37zM363 1457q-57 0 -97 40t-40 97q0 56 40 96t97 40t97 -40t40 -96q0 -57 -40 -97t-97 -40zM842 1594q0 -57 -40 -97t-96 -40q-57 0 -97 40q-39 40 -39 97q0 55 39 96q40 40 97 40q56 0 96 -40t40 -96z" />
    <glyph glyph-name="multiply" unicode="&#xd7;" horiz-adv-x="846" 
d="M158 526q69 1 119 51l112 112l-112 111q-49 49 -120 51l-25 25l159 159l26 -25q2 -70 50 -119l112 -112l111 111q50 50 52 120l25 25l159 -158l-26 -26q-70 -2 -119 -51l-111 -111l111 -111q49 -50 119 -52l26 -25l-159 -159l-26 25q-1 71 -51 120l-111 111l-112 -112
q-49 -49 -50 -118l-27 -26l-158 158z" />
    <glyph glyph-name="Oslash" unicode="&#xd8;" 
d="M132 37q48 50 48 120v443q0 68 -45 117q45 49 45 117v443q0 70 -48 120v37h804v-37q-48 -50 -48 -120v-443q0 -68 45 -117q-45 -49 -45 -117v-443q0 -69 48 -120v-37h-804v37zM405 834q0 -61 34 -105q46 43 63 102l118 443q4 16 5 31h-220v-471zM663 600q0 59 -35 105
q-46 -45 -61 -103l-118 -443q-5 -16 -6 -31h220v472zM405 600v-128l34 126q15 56 -5 99q-29 -42 -29 -97zM663 834v125l-33 -123q-15 -55 4 -99q29 41 29 97z" />
    <glyph glyph-name="Ugrave" unicode="&#xd9;" 
d="M132 37q48 51 48 120v443q0 68 -45 117q45 49 45 117v443q0 70 -48 120v37h321v-37q-48 -50 -48 -120v-443q0 -68 45 -117q-45 -49 -45 -117v-472h259v472q0 68 -46 117q46 49 46 117v443q0 70 -49 120v37h321v-37q-47 -50 -47 -120v-443q0 -68 44 -117q-44 -49 -44 -117
v-443q0 -69 47 -120v-37h-804v37zM172 1923h224l15 -39q-28 -51 0 -120l123 -307q-51 4 -102 40q-58 41 -80 99l-70 174q-28 69 -96 118z" />
    <glyph glyph-name="Uacute" unicode="&#xda;" 
d="M132 37q48 51 48 120v443q0 68 -45 117q45 49 45 117v443q0 70 -48 120v37h321v-37q-48 -50 -48 -120v-443q0 -68 45 -117q-45 -49 -45 -117v-472h259v472q0 68 -46 117q46 49 46 117v443q0 70 -49 120v37h321v-37q-47 -50 -47 -120v-443q0 -68 44 -117q-44 -49 -44 -117
v-443q0 -69 47 -120v-37h-804v37zM882 1888q-68 -49 -96 -118l-70 -174q-22 -58 -80 -99q-51 -36 -102 -40l123 307q28 69 0 120l15 39h224z" />
    <glyph glyph-name="Ucircumflex" unicode="&#xdb;" 
d="M132 37q48 51 48 120v443q0 68 -45 117q45 49 45 117v443q0 70 -48 120v37h321v-37q-48 -50 -48 -120v-443q0 -68 45 -117q-45 -49 -45 -117v-472h259v472q0 68 -46 117q46 49 46 117v443q0 70 -49 120v37h321v-37q-47 -50 -47 -120v-443q0 -68 44 -117q-44 -49 -44 -117
v-443q0 -69 47 -120v-37h-804v37zM442 1923h224l15 -39q-28 -51 0 -120l123 -307q-51 4 -102 40q-58 41 -80 99l-68 169l-68 -169q-22 -58 -80 -99q-51 -36 -102 -40l123 307q28 69 0 120z" />
    <glyph glyph-name="Udieresis" unicode="&#xdc;" 
d="M132 37q48 51 48 120v443q0 68 -45 117q45 49 45 117v443q0 70 -48 120v37h321v-37q-48 -50 -48 -120v-443q0 -68 45 -117q-45 -49 -45 -117v-472h259v472q0 68 -46 117q46 49 46 117v443q0 70 -49 120v37h321v-37q-47 -50 -47 -120v-443q0 -68 44 -117q-44 -49 -44 -117
v-443q0 -69 47 -120v-37h-804v37zM363 1457q-57 0 -97 40t-40 97q0 56 40 96t97 40t97 -40t40 -96q0 -57 -40 -97t-97 -40zM842 1594q0 -57 -40 -97t-96 -40q-57 0 -97 40q-39 40 -39 97q0 55 39 96q40 40 97 40q56 0 96 -40t40 -96z" />
    <glyph glyph-name="Yacute" unicode="&#xdd;" 
d="M373 37q49 50 49 120v348l-48 42l-44 42q-47 44 -77 84q-73 96 -73 189v415q0 70 -48 120v37h322v-37q-49 -50 -49 -120v-415q0 -98 123 -219l6 -5l6 5q124 121 124 219v415q0 70 -49 120v37h321v-37q-47 -50 -47 -120v-415q0 -94 -75 -189q-29 -39 -77 -84l-43 -42
l-47 -42v-348q0 -70 47 -120v-37h-321v37zM882 1888q-68 -49 -96 -118l-70 -174q-22 -58 -80 -99q-51 -36 -102 -40l123 307q28 69 0 120l15 39h224z" />
    <glyph glyph-name="Thorn" unicode="&#xde;" horiz-adv-x="1074" 
d="M249 1434h322v-37q-49 -50 -49 -120v-13l532 1v-37q-48 -50 -48 -120v-521q0 -183 -132 -300q-133 -118 -343 -118h-9v-12q0 -70 49 -120v-37h-322v37q48 50 48 120v78l-4 3q-99 67 -144 195q-33 95 -4 138q23 34 60 16q25 -11 27 -38q2 -28 -18 -52q-29 -34 -6 -73
q45 -75 129 -105q71 -26 194 -26q91 0 166 80q84 88 84 214v549h-259v-472q0 -67 45 -116q-45 -49 -45 -117v-74q-161 2 -225 61v859q0 70 -48 120v37z" />
    <glyph glyph-name="germandbls" unicode="&#xdf;" horiz-adv-x="1441" 
d="M405 1108v-274q0 -68 45 -117q-45 -49 -45 -117v-443q0 -70 48 -120v-37h-321v37q48 50 48 120v443q0 68 -45 117q45 48 45 117v443q0 70 -48 120v37h321v-37q-8 -8 -15 -17l215 -192q83 -74 116 -176q32 -97 11 -205l-4 -15l14 5q104 35 205 13q104 -21 188 -95l89 -79
q52 -47 121 -45l28 -24l-504 -565l-28 25v5l1 9l-1 1q-1 12 -1 20q-1 28 -8 51q-15 65 -73 117l-30 27l22 25q70 -28 112 -28q59 0 103 49l129 145l-110 99q-97 87 -215 81q-63 -5 -94 -30q-12 -10 -17 -23q-5 -11 -4 -20q6 -27 38 -38q29 -10 41 -34q12 -27 -3 -48
q-24 -35 -63 -16q-49 23 -63 121q-8 55 -16 129q-9 79 -12 127q-5 61 -27 106q-28 59 -95 119z" />
    <glyph glyph-name="agrave" unicode="&#xe0;" horiz-adv-x="1089" 
d="M615 37q49 50 49 120v288l-7 1q-79 19 -146 67q-51 35 -91 87l-15 19v-462q0 -70 48 -120v-37h-321v37q48 50 48 120v443q0 68 -45 117q45 49 45 117v443q0 70 -48 120v37h804v-37q-48 -50 -48 -120v-636q-24 -8 -72 -8q-90 0 -152 88v584h-259v-608l108 108h38
q21 -81 80 -148q78 -90 185 -90q76 0 114 21q25 14 47 49q23 40 -5 73q-21 23 -19 51t26 40q38 17 61 -17q29 -43 -4 -138q-43 -128 -143 -179l-5 -3v-307q0 -70 48 -120v-37h-321v37zM173 1923h224l15 -39q-28 -51 0 -120l123 -307q-51 4 -102 40q-58 41 -80 99l-70 174
q-28 69 -96 118z" />
    <glyph glyph-name="aacute" unicode="&#xe1;" horiz-adv-x="1089" 
d="M615 37q49 50 49 120v288l-7 1q-79 19 -146 67q-51 35 -91 87l-15 19v-462q0 -70 48 -120v-37h-321v37q48 50 48 120v443q0 68 -45 117q45 49 45 117v443q0 70 -48 120v37h804v-37q-48 -50 -48 -120v-636q-24 -8 -72 -8q-90 0 -152 88v584h-259v-608l108 108h38
q21 -81 80 -148q78 -90 185 -90q76 0 114 21q25 14 47 49q23 40 -5 73q-21 23 -19 51t26 40q38 17 61 -17q29 -43 -4 -138q-43 -128 -143 -179l-5 -3v-307q0 -70 48 -120v-37h-321v37zM883 1888q-68 -49 -96 -118l-70 -174q-22 -58 -80 -99q-51 -36 -102 -40l123 307
q28 69 0 120l15 39h224z" />
    <glyph glyph-name="acircumflex" unicode="&#xe2;" horiz-adv-x="1089" 
d="M615 37q49 50 49 120v288l-7 1q-79 19 -146 67q-51 35 -91 87l-15 19v-462q0 -70 48 -120v-37h-321v37q48 50 48 120v443q0 68 -45 117q45 49 45 117v443q0 70 -48 120v37h804v-37q-48 -50 -48 -120v-636q-24 -8 -72 -8q-90 0 -152 88v584h-259v-608l108 108h38
q21 -81 80 -148q78 -90 185 -90q76 0 114 21q25 14 47 49q23 40 -5 73q-21 23 -19 51t26 40q38 17 61 -17q29 -43 -4 -138q-43 -128 -143 -179l-5 -3v-307q0 -70 48 -120v-37h-321v37zM443 1923h224l15 -39q-28 -51 0 -120l123 -307q-51 4 -102 40q-58 41 -80 99l-68 169
l-68 -169q-22 -58 -80 -99q-51 -36 -102 -40l123 307q28 69 0 120z" />
    <glyph glyph-name="atilde" unicode="&#xe3;" horiz-adv-x="1089" 
d="M615 37q49 50 49 120v288l-7 1q-79 19 -146 67q-51 35 -91 87l-15 19v-462q0 -70 48 -120v-37h-321v37q48 50 48 120v443q0 68 -45 117q45 49 45 117v443q0 70 -48 120v37h804v-37q-48 -50 -48 -120v-636q-24 -8 -72 -8q-90 0 -152 88v584h-259v-608l108 108h38
q21 -81 80 -148q78 -90 185 -90q76 0 114 21q25 14 47 49q23 40 -5 73q-21 23 -19 51t26 40q38 17 61 -17q29 -43 -4 -138q-43 -128 -143 -179l-5 -3v-307q0 -70 48 -120v-37h-321v37zM341 1588q-50 21 -80 21q-15 0 -24 -6q-40 -24 -30 -66q6 -31 -9 -54t-42 -22
q-41 2 -45 42q-5 53 69 121q57 52 168 58q120 5 230 -55q196 -106 255 -71q41 23 31 67q-7 30 8 54q15 23 42 21q41 -2 45 -43q5 -51 -69 -119q-63 -58 -158 -74q-113 -19 -218 39q-122 65 -173 87z" />
    <glyph glyph-name="adieresis" unicode="&#xe4;" horiz-adv-x="1089" 
d="M615 37q49 50 49 120v288l-7 1q-79 19 -146 67q-51 35 -91 87l-15 19v-462q0 -70 48 -120v-37h-321v37q48 50 48 120v443q0 68 -45 117q45 49 45 117v443q0 70 -48 120v37h804v-37q-48 -50 -48 -120v-636q-24 -8 -72 -8q-90 0 -152 88v584h-259v-608l108 108h38
q21 -81 80 -148q78 -90 185 -90q76 0 114 21q25 14 47 49q23 40 -5 73q-21 23 -19 51t26 40q38 17 61 -17q29 -43 -4 -138q-43 -128 -143 -179l-5 -3v-307q0 -70 48 -120v-37h-321v37zM364 1457q-57 0 -97 40t-40 97q0 56 40 96t97 40t97 -40t40 -96q0 -57 -40 -97t-97 -40z
M843 1594q0 -57 -40 -97t-96 -40q-57 0 -97 40q-39 40 -39 97q0 55 39 96q40 40 97 40q56 0 96 -40t40 -96z" />
    <glyph glyph-name="aring" unicode="&#xe5;" horiz-adv-x="1089" 
d="M615 37q49 50 49 120v288l-7 1q-79 19 -146 67q-51 35 -91 87l-15 19v-462q0 -70 48 -120v-37h-321v37q48 50 48 120v443q0 68 -45 117q45 49 45 117v443q0 70 -48 120v37h804v-37q-48 -50 -48 -120v-636q-24 -8 -72 -8q-90 0 -152 88v584h-259v-608l108 108h38
q21 -81 80 -148q78 -90 185 -90q76 0 114 21q25 14 47 49q23 40 -5 73q-21 23 -19 51t26 40q38 17 61 -17q29 -43 -4 -138q-43 -128 -143 -179l-5 -3v-307q0 -70 48 -120v-37h-321v37zM438 1692q42 39 97 39q58 0 98 -39q39 -40 39 -98q0 -55 -39 -97q-40 -40 -98 -40
q-56 0 -97 40q-40 41 -40 97q0 58 40 98zM469 1594q0 -26 20 -46t46 -20t46 20t20 46t-20 46t-46 20t-46 -20t-20 -45v-1z" />
    <glyph glyph-name="ae" unicode="&#xe6;" horiz-adv-x="1455" 
d="M615 37q49 50 49 120v288l-7 1q-79 19 -146 67q-51 35 -91 87l-15 19v-462q0 -70 48 -120v-37h-321v37q48 50 48 120v443q0 68 -45 117q45 49 45 117v443q0 70 -48 120v37h1290v-34q-67 -20 -137 -120q-76 -107 -90 -219q-13 -98 8 -173q17 -67 51 -87q40 -23 73 5
q23 21 51 19t40 -26q17 -38 -17 -61q-43 -29 -138 4q-79 27 -137 104q-68 89 -74 209q-6 122 23 240l3 10h-190v-664q-24 -8 -72 -8q-90 0 -152 88v584h-259v-608l108 108h38q21 -81 80 -148q78 -90 185 -90q76 0 114 21q25 14 47 49q23 40 -5 73q-21 23 -19 51t26 40
q38 17 61 -17q29 -43 -4 -138q-43 -128 -143 -179l-5 -3v-336h245q67 0 106 44q28 31 52 102h34v-40q0 -78 38 -133q14 -20 34 -40l15 -15l7 -5l3 -4v-37h-807v37z" />
    <glyph glyph-name="ccedilla" unicode="&#xe7;" horiz-adv-x="969" 
d="M472 0h-340v37q48 51 48 120v443q0 68 -45 117q45 49 45 117v443q0 70 -48 120v37h804v-34q-67 -20 -137 -120q-76 -106 -90 -219q-13 -98 8 -173q17 -67 51 -87q40 -23 73 5q23 21 51 19t40 -26q17 -38 -17 -61q-43 -29 -138 4q-79 27 -137 104q-68 89 -74 209
q-6 122 23 240l3 10h-187v-471q0 -68 45 -117q-45 -49 -45 -117v-472h242q67 0 106 44q29 31 53 102h34v-40q0 -78 38 -133q13 -20 33 -40l14 -14l8 -6l3 -4v-37h-415v-31q0 -20 23 -44q10 -8 21 -10h5q1 -14 11 -24l1 -1q22 -20 32 -36q14 -22 14 -45v-48q0 -16 10 -27v-8
h-177v8q11 11 11 27v45q-1 30 -1 33q-1 7 -8 12q-6 4 -12 1q-7 -3 -12 0q-6 2 -6 8q-2 9 8 12q11 3 28 -11q29 -24 38 -34q8 -8 12 -13q2 -5 2 -8v-52h57v55q0 26 -24 53q-11 11 -26 11v3q-2 13 -11 22q-22 20 -32 33q-13 19 -13 38v31z" />
    <glyph glyph-name="egrave" unicode="&#xe8;" horiz-adv-x="969" 
d="M132 37q48 50 48 120v443q0 68 -45 117q45 49 45 117v443q0 70 -48 120v37h804v-34q-67 -20 -137 -120q-76 -107 -90 -219q-13 -98 8 -173q17 -67 51 -87q40 -23 73 5q23 21 51 19t40 -26q17 -38 -17 -61q-43 -29 -138 4q-79 27 -137 104q-68 89 -74 209q-6 122 23 240
l3 10h-187v-548h57q13 0 33 -12q27 -16 62 -52q43 -43 153 -174q64 -77 50 -128q-12 -42 -54 -37q-27 4 -37 29q-11 26 1 55q13 31 -4 53q-25 33 -58 38q-5 1 -30 2q-36 1 -116 1h-57v-404h194q67 0 106 44q28 31 52 102h34v-40q0 -78 38 -133q14 -20 34 -40l15 -15l7 -5
l3 -4v-37h-756v37zM173 1923h224l15 -39q-28 -51 0 -120l123 -307q-51 4 -102 40q-58 41 -80 99l-70 174q-28 69 -96 118z" />
    <glyph glyph-name="eacute" unicode="&#xe9;" horiz-adv-x="969" 
d="M132 37q48 50 48 120v443q0 68 -45 117q45 49 45 117v443q0 70 -48 120v37h804v-34q-67 -20 -137 -120q-76 -107 -90 -219q-13 -98 8 -173q17 -67 51 -87q40 -23 73 5q23 21 51 19t40 -26q17 -38 -17 -61q-43 -29 -138 4q-79 27 -137 104q-68 89 -74 209q-6 122 23 240
l3 10h-187v-548h57q13 0 33 -12q27 -16 62 -52q43 -43 153 -174q64 -77 50 -128q-12 -42 -54 -37q-27 4 -37 29q-11 26 1 55q13 31 -4 53q-25 33 -58 38q-5 1 -30 2q-36 1 -116 1h-57v-404h194q67 0 106 44q28 31 52 102h34v-40q0 -78 38 -133q14 -20 34 -40l15 -15l7 -5
l3 -4v-37h-756v37zM883 1888q-68 -49 -96 -118l-70 -174q-22 -58 -80 -99q-51 -36 -102 -40l123 307q28 69 0 120l15 39h224z" />
    <glyph glyph-name="ecircumflex" unicode="&#xea;" horiz-adv-x="969" 
d="M132 37q48 50 48 120v443q0 68 -45 117q45 49 45 117v443q0 70 -48 120v37h804v-34q-67 -20 -137 -120q-76 -107 -90 -219q-13 -98 8 -173q17 -67 51 -87q40 -23 73 5q23 21 51 19t40 -26q17 -38 -17 -61q-43 -29 -138 4q-79 27 -137 104q-68 89 -74 209q-6 122 23 240
l3 10h-187v-548h57q13 0 33 -12q27 -16 62 -52q43 -43 153 -174q64 -77 50 -128q-12 -42 -54 -37q-27 4 -37 29q-11 26 1 55q13 31 -4 53q-25 33 -58 38q-5 1 -30 2q-36 1 -116 1h-57v-404h194q67 0 106 44q28 31 52 102h34v-40q0 -78 38 -133q14 -20 34 -40l15 -15l7 -5
l3 -4v-37h-756v37zM443 1923h224l15 -39q-28 -51 0 -120l123 -307q-51 4 -102 40q-58 41 -80 99l-68 169l-68 -169q-22 -58 -80 -99q-51 -36 -102 -40l123 307q28 69 0 120z" />
    <glyph glyph-name="edieresis" unicode="&#xeb;" horiz-adv-x="969" 
d="M132 0h756v37l-3 4l-7 5l-15 15q-20 20 -34 40q-38 55 -38 133v40h-34q-24 -71 -52 -102q-39 -44 -106 -44h-194v404h57q80 0 116 -1q25 -1 30 -2q33 -5 58 -38q17 -22 4 -53q-12 -29 -1 -55q10 -25 37 -29q42 -5 54 37q14 51 -50 128q-110 131 -153 174q-35 36 -62 52
q-20 12 -33 12h-57v548h187l-3 -10q-29 -118 -23 -240q6 -120 74 -209q58 -77 137 -104q95 -33 138 -4q34 23 17 61q-12 24 -40 26t-51 -19q-33 -28 -73 -5q-34 20 -51 87q-21 75 -8 173q14 112 90 219q70 100 137 120v34h-804v-37q48 -50 48 -120v-443q0 -68 -45 -117
q45 -49 45 -117v-443q0 -70 -48 -120v-37zM365 1457q-57 0 -97 40t-40 97q0 56 40 96t97 40t97 -40t40 -96q0 -57 -40 -97t-97 -40zM844 1594q0 -57 -40 -97t-96 -40q-57 0 -97 40q-39 40 -39 97q0 55 39 96q40 40 97 40q56 0 96 -40t40 -96z" />
    <glyph glyph-name="igrave" unicode="&#xec;" horiz-adv-x="473" 
d="M132 37q48 50 48 120v443q0 68 -45 117q45 48 45 117v443q0 70 -48 120v37h321v-37q-48 -50 -48 -120v-443q0 -68 45 -117q-45 -49 -45 -117v-443q0 -70 48 -120v-37h-321v37zM-69 1923h224l15 -39q-28 -51 0 -120l123 -307q-51 4 -102 40q-58 41 -80 99l-70 174
q-28 69 -96 118z" />
    <glyph glyph-name="iacute" unicode="&#xed;" horiz-adv-x="473" 
d="M132 37q48 50 48 120v443q0 68 -45 117q45 48 45 117v443q0 70 -48 120v37h321v-37q-48 -50 -48 -120v-443q0 -68 45 -117q-45 -49 -45 -117v-443q0 -70 48 -120v-37h-321v37zM641 1888q-68 -49 -96 -118l-70 -174q-22 -58 -80 -99q-51 -36 -102 -40l123 307q28 69 0 120
l15 39h224z" />
    <glyph glyph-name="icircumflex" unicode="&#xee;" horiz-adv-x="473" 
d="M132 37q48 50 48 120v443q0 68 -45 117q45 48 45 117v443q0 70 -48 120v37h321v-37q-48 -50 -48 -120v-443q0 -68 45 -117q-45 -49 -45 -117v-443q0 -70 48 -120v-37h-321v37zM181 1923h224l15 -39q-28 -51 0 -120l123 -307q-51 4 -102 40q-58 41 -80 99l-68 169
l-68 -169q-22 -58 -80 -99q-51 -36 -102 -40l123 307q28 69 0 120z" />
    <glyph glyph-name="idieresis" unicode="&#xef;" horiz-adv-x="473" 
d="M132 0h321v37q-48 50 -48 120v443q0 68 45 117q-45 49 -45 117v443q0 70 48 120v37h-321v-37q48 -50 48 -120v-443q0 -69 -45 -117q45 -49 45 -117v-443q0 -70 -48 -120v-37zM122 1457q-57 0 -97 40t-40 97q0 56 40 96t97 40t97 -40t40 -96q0 -57 -40 -97t-97 -40z
M601 1594q0 -57 -40 -97t-96 -40q-57 0 -97 40q-39 40 -39 97q0 55 39 96q40 40 97 40q56 0 96 -40t40 -96z" />
    <glyph glyph-name="eth" unicode="&#xf0;" horiz-adv-x="1070" 
d="M744 726q37 46 37 106v232q0 126 -84 213q-75 81 -166 81q-123 0 -194 -26q-84 -30 -129 -105q-23 -39 6 -73q20 -24 18 -52q-2 -27 -27 -38q-37 -19 -60 16q-29 43 4 138q47 132 150 200q96 63 232 63q210 0 343 -118q132 -117 132 -299v-232q0 -67 44 -116
q-44 -49 -44 -117v-183q0 -183 -132 -299q-133 -118 -343 -118h-282v37q48 50 48 120v443q0 28 -8 53h-75q-62 0 -107 -48h-30v224h30q44 -48 107 -48h75q8 24 8 52v400q64 59 225 60v-460q0 -28 8 -52h76q63 0 107 48h31v-102zM530 652q-8 -25 -8 -53v-472h9q91 0 166 78
q84 85 84 211v183q0 61 -37 107v-102h-31q-44 48 -107 48h-76z" />
    <glyph glyph-name="ntilde" unicode="&#xf1;" horiz-adv-x="1073" 
d="M732 36q49 50 49 120v443q0 68 -46 117q46 48 46 116v232q0 126 -84 213q-75 81 -166 81q-123 0 -194 -26q-84 -31 -129 -105q-23 -39 6 -73q20 -24 18 -52q-2 -27 -26 -38h-1q-37 -19 -60 16q-29 43 4 138q47 132 150 200q96 63 232 63q210 0 343 -118
q132 -117 132 -299v-232q0 -67 44 -116q-44 -49 -44 -117v-443q0 -70 47 -120v-37h-321v37zM249 36q48 50 48 120v443q0 68 -45 117q45 49 45 116v400q64 59 225 60v-460q0 -67 45 -116q-45 -49 -45 -117v-443q0 -70 49 -120v-37h-322v37zM457 1588q-50 21 -80 21
q-15 0 -24 -6q-40 -24 -30 -66q6 -31 -9 -54t-42 -22q-41 2 -45 42q-5 53 69 121q57 52 168 58q120 5 230 -55q196 -106 255 -71q41 23 31 67q-7 30 8 54q15 23 42 21q41 -2 45 -43q5 -51 -69 -119q-63 -58 -158 -74q-113 -19 -218 39q-122 65 -173 87z" />
    <glyph glyph-name="ograve" unicode="&#xf2;" 
d="M663 600q0 68 -45 117q45 48 45 117v471h-258v-471q0 -69 45 -117q-45 -49 -45 -117v-472h258v472zM132 37q48 50 48 120v443q0 68 -45 117q45 49 45 117v443q0 70 -48 120v37h804v-37q-48 -50 -48 -120v-443q0 -68 45 -117q-45 -49 -45 -117v-443q0 -69 48 -120v-37
h-804v37zM172 1923h224l15 -39q-28 -51 0 -120l123 -307q-51 4 -102 40q-58 41 -80 99l-70 174q-28 69 -96 118z" />
    <glyph glyph-name="oacute" unicode="&#xf3;" 
d="M663 600q0 68 -45 117q45 48 45 117v471h-258v-471q0 -69 45 -117q-45 -49 -45 -117v-472h258v472zM132 37q48 50 48 120v443q0 68 -45 117q45 49 45 117v443q0 70 -48 120v37h804v-37q-48 -50 -48 -120v-443q0 -68 45 -117q-45 -49 -45 -117v-443q0 -69 48 -120v-37
h-804v37zM882 1888q-68 -49 -96 -118l-70 -174q-22 -58 -80 -99q-51 -36 -102 -40l123 307q28 69 0 120l15 39h224z" />
    <glyph glyph-name="ocircumflex" unicode="&#xf4;" 
d="M663 600q0 68 -45 117q45 48 45 117v471h-258v-471q0 -69 45 -117q-45 -49 -45 -117v-472h258v472zM132 37q48 50 48 120v443q0 68 -45 117q45 49 45 117v443q0 70 -48 120v37h804v-37q-48 -50 -48 -120v-443q0 -68 45 -117q-45 -49 -45 -117v-443q0 -69 48 -120v-37
h-804v37zM442 1923h224l15 -39q-28 -51 0 -120l123 -307q-51 4 -102 40q-58 41 -80 99l-68 169l-68 -169q-22 -58 -80 -99q-51 -36 -102 -40l123 307q28 69 0 120z" />
    <glyph glyph-name="otilde" unicode="&#xf5;" 
d="M663 600q0 68 -45 117q45 48 45 117v471h-258v-471q0 -69 45 -117q-45 -49 -45 -117v-472h258v472zM132 37q48 50 48 120v443q0 68 -45 117q45 49 45 117v443q0 70 -48 120v37h804v-37q-48 -50 -48 -120v-443q0 -68 45 -117q-45 -49 -45 -117v-443q0 -69 48 -120v-37
h-804v37zM340 1588q-50 21 -80 21q-15 0 -24 -6q-40 -24 -30 -66q6 -31 -9 -54t-42 -22q-41 2 -45 42q-5 53 69 121q57 52 168 58q120 5 230 -55q196 -106 255 -71q41 23 31 67q-7 30 8 54q15 23 42 21q41 -2 45 -43q5 -51 -69 -119q-63 -58 -158 -74q-113 -19 -218 39
q-122 65 -173 87z" />
    <glyph glyph-name="odieresis" unicode="&#xf6;" 
d="M663 600q0 68 -45 117q45 48 45 117v471h-258v-471q0 -69 45 -117q-45 -49 -45 -117v-472h258v472zM132 37q48 50 48 120v443q0 68 -45 117q45 49 45 117v443q0 70 -48 120v37h804v-37q-48 -50 -48 -120v-443q0 -68 45 -117q-45 -49 -45 -117v-443q0 -69 48 -120v-37
h-804v37zM363 1457q-57 0 -97 40t-40 97q0 56 40 96t97 40t97 -40t40 -96q0 -57 -40 -97t-97 -40zM842 1594q0 -57 -40 -97t-96 -40q-57 0 -97 40q-39 40 -39 97q0 55 39 96q40 40 97 40q56 0 96 -40t40 -96z" />
    <glyph glyph-name="divide" unicode="&#xf7;" horiz-adv-x="908" 
d="M857 600q-44 48 -107 48h-137q-59 0 -103 -45q-43 45 -103 45h-138q-62 0 -107 -48h-30v224h30q44 -48 107 -48h138q60 0 103 45q44 -45 103 -45h137q63 0 107 48h31v-224h-31zM414 1171q40 40 96 40q57 0 97 -40t40 -96t-40 -97q-40 -39 -97 -39q-56 0 -96 39
q-40 41 -40 97t40 96zM647 350q0 -57 -40 -97t-97 -40q-56 0 -96 40t-40 97t40 97t96 40q57 0 97 -40t40 -97z" />
    <glyph glyph-name="oslash" unicode="&#xf8;" 
d="M132 37q48 50 48 120v443q0 68 -45 117q45 49 45 117v443q0 70 -48 120v37h804v-37q-48 -50 -48 -120v-443q0 -68 45 -117q-45 -49 -45 -117v-443q0 -69 48 -120v-37h-804v37zM405 834q0 -61 34 -105q46 43 63 102l118 443q4 16 5 31h-220v-471zM663 600q0 59 -35 105
q-46 -45 -61 -103l-118 -443q-5 -16 -6 -31h220v472zM405 600v-128l34 126q15 56 -5 99q-29 -42 -29 -97zM663 834v125l-33 -123q-15 -55 4 -99q29 41 29 97z" />
    <glyph glyph-name="ugrave" unicode="&#xf9;" 
d="M132 37q48 51 48 120v443q0 68 -45 117q45 49 45 117v443q0 70 -48 120v37h321v-37q-48 -50 -48 -120v-443q0 -68 45 -117q-45 -49 -45 -117v-472h259v472q0 68 -46 117q46 49 46 117v443q0 70 -49 120v37h321v-37q-47 -50 -47 -120v-443q0 -68 44 -117q-44 -49 -44 -117
v-443q0 -69 47 -120v-37h-804v37zM172 1923h224l15 -39q-28 -51 0 -120l123 -307q-51 4 -102 40q-58 41 -80 99l-70 174q-28 69 -96 118z" />
    <glyph glyph-name="uacute" unicode="&#xfa;" 
d="M132 37q48 51 48 120v443q0 68 -45 117q45 49 45 117v443q0 70 -48 120v37h321v-37q-48 -50 -48 -120v-443q0 -68 45 -117q-45 -49 -45 -117v-472h259v472q0 68 -46 117q46 49 46 117v443q0 70 -49 120v37h321v-37q-47 -50 -47 -120v-443q0 -68 44 -117q-44 -49 -44 -117
v-443q0 -69 47 -120v-37h-804v37zM882 1888q-68 -49 -96 -118l-70 -174q-22 -58 -80 -99q-51 -36 -102 -40l123 307q28 69 0 120l15 39h224z" />
    <glyph glyph-name="ucircumflex" unicode="&#xfb;" 
d="M132 37q48 51 48 120v443q0 68 -45 117q45 49 45 117v443q0 70 -48 120v37h321v-37q-48 -50 -48 -120v-443q0 -68 45 -117q-45 -49 -45 -117v-472h259v472q0 68 -46 117q46 49 46 117v443q0 70 -49 120v37h321v-37q-47 -50 -47 -120v-443q0 -68 44 -117q-44 -49 -44 -117
v-443q0 -69 47 -120v-37h-804v37zM442 1923h224l15 -39q-28 -51 0 -120l123 -307q-51 4 -102 40q-58 41 -80 99l-68 169l-68 -169q-22 -58 -80 -99q-51 -36 -102 -40l123 307q28 69 0 120z" />
    <glyph glyph-name="udieresis" unicode="&#xfc;" 
d="M132 37q48 51 48 120v443q0 68 -45 117q45 49 45 117v443q0 70 -48 120v37h321v-37q-48 -50 -48 -120v-443q0 -68 45 -117q-45 -49 -45 -117v-472h259v472q0 68 -46 117q46 49 46 117v443q0 70 -49 120v37h321v-37q-47 -50 -47 -120v-443q0 -68 44 -117q-44 -49 -44 -117
v-443q0 -69 47 -120v-37h-804v37zM363 1457q-57 0 -97 40t-40 97q0 56 40 96t97 40t97 -40t40 -96q0 -57 -40 -97t-97 -40zM842 1594q0 -57 -40 -97t-96 -40q-57 0 -97 40q-39 40 -39 97q0 55 39 96q40 40 97 40q56 0 96 -40t40 -96z" />
    <glyph glyph-name="yacute" unicode="&#xfd;" 
d="M373 37q49 50 49 120v348l-48 42l-44 42q-47 44 -77 84q-73 96 -73 189v415q0 70 -48 120v37h322v-37q-49 -50 -49 -120v-415q0 -98 123 -219l6 -5l6 5q124 121 124 219v415q0 70 -49 120v37h321v-37q-47 -50 -47 -120v-415q0 -94 -75 -189q-29 -39 -77 -84l-43 -42
l-47 -42v-348q0 -70 47 -120v-37h-321v37zM882 1888q-68 -49 -96 -118l-70 -174q-22 -58 -80 -99q-51 -36 -102 -40l123 307q28 69 0 120l15 39h224z" />
    <glyph glyph-name="thorn" unicode="&#xfe;" horiz-adv-x="1074" 
d="M249 1434h322v-37q-49 -50 -49 -120v-13l532 1v-37q-48 -50 -48 -120v-521q0 -183 -132 -300q-133 -118 -343 -118h-9v-12q0 -70 49 -120v-37h-322v37q48 50 48 120v78l-4 3q-99 67 -144 195q-33 95 -4 138q23 34 60 16q25 -11 27 -38q2 -28 -18 -52q-29 -34 -6 -73
q45 -75 129 -105q71 -26 194 -26q91 0 166 80q84 88 84 214v549h-259v-472q0 -67 45 -116q-45 -49 -45 -117v-74q-161 2 -225 61v859q0 70 -48 120v37z" />
    <glyph glyph-name="ydieresis" unicode="&#xff;" 
d="M373 37q49 50 49 120v348l-48 42l-44 42q-47 44 -77 84q-73 96 -73 189v415q0 70 -48 120v37h322v-37q-49 -50 -49 -120v-415q0 -98 123 -219l6 -5l6 5q124 121 124 219v415q0 70 -49 120v37h321v-37q-47 -50 -47 -120v-415q0 -94 -75 -189q-29 -39 -77 -84l-43 -42
l-47 -42v-348q0 -70 47 -120v-37h-321v37zM363 1457q-57 0 -97 40t-40 97q0 56 40 96t97 40t97 -40t40 -96q0 -57 -40 -97t-97 -40zM842 1594q0 -57 -40 -97t-96 -40q-57 0 -97 40q-39 40 -39 97q0 55 39 96q40 40 97 40q56 0 96 -40t40 -96z" />
    <glyph glyph-name="Abreve" unicode="&#x102;" horiz-adv-x="1089" 
d="M615 37q49 50 49 120v288l-7 1q-79 19 -146 67q-51 35 -91 87l-15 19v-462q0 -70 48 -120v-37h-321v37q48 50 48 120v443q0 68 -45 117q45 49 45 117v443q0 70 -48 120v37h804v-37q-48 -50 -48 -120v-636q-24 -8 -72 -8q-90 0 -152 88v584h-259v-608l108 108h38
q21 -81 80 -148q78 -90 185 -90q76 0 114 21q25 14 47 49q23 40 -5 73q-21 23 -19 51t26 40q38 17 61 -17q29 -43 -4 -138q-43 -128 -143 -179l-5 -3v-307q0 -70 48 -120v-37h-321v37zM535 1457q-193 7 -246 170q-22 62 -3 89q15 22 39 11q16 -8 17 -25q2 -18 -11 -33
q-19 -22 -4 -47q29 -49 83 -68q46 -17 125 -17t124 17q55 19 84 68q14 25 -4 47q-13 15 -12 33q1 17 17 25q24 11 39 -11q19 -27 -2 -89q-54 -163 -246 -170z" />
    <glyph glyph-name="abreve" unicode="&#x103;" horiz-adv-x="1089" 
d="M615 37q49 50 49 120v288l-7 1q-79 19 -146 67q-51 35 -91 87l-15 19v-462q0 -70 48 -120v-37h-321v37q48 50 48 120v443q0 68 -45 117q45 49 45 117v443q0 70 -48 120v37h804v-37q-48 -50 -48 -120v-636q-24 -8 -72 -8q-90 0 -152 88v584h-259v-608l108 108h38
q21 -81 80 -148q78 -90 185 -90q76 0 114 21q25 14 47 49q23 40 -5 73q-21 23 -19 51t26 40q38 17 61 -17q29 -43 -4 -138q-43 -128 -143 -179l-5 -3v-307q0 -70 48 -120v-37h-321v37zM535 1457q-193 7 -246 170q-22 62 -3 89q15 22 39 11q16 -8 17 -25q2 -18 -11 -33
q-19 -22 -4 -47q29 -49 83 -68q46 -17 125 -17t124 17q55 19 84 68q14 25 -4 47q-13 15 -12 33q1 17 17 25q24 11 39 -11q19 -27 -2 -89q-54 -163 -246 -170z" />
    <glyph glyph-name="Aogonek" unicode="&#x104;" horiz-adv-x="1089" 
d="M714 0h-99v37q49 50 49 120v288l-7 1q-79 19 -146 67q-51 35 -91 87l-15 19v-462q0 -70 48 -120v-37h-321v37q48 50 48 120v443q0 68 -45 117q45 49 45 117v443q0 70 -48 120v37h804v-37q-48 -50 -48 -120v-636q-24 -8 -72 -8q-90 0 -152 88v584h-259v-608l108 108h38
q21 -81 80 -148q78 -90 185 -90q76 0 114 21q25 14 47 49q23 40 -5 73q-21 23 -19 51t26 40q38 17 61 -17q29 -43 -4 -138q-43 -128 -143 -179l-5 -3v-307q0 -70 48 -120v-37h-88q-2 -17 -2 -33q0 -77 21 -115q14 -26 49 -46q40 -25 73 5q23 21 51 18q28 -2 40 -26
q17 -38 -17 -60q-43 -29 -138 3q-89 31 -141 87q-63 67 -70 167z" />
    <glyph glyph-name="aogonek" unicode="&#x105;" horiz-adv-x="1089" 
d="M714 0h-99v37q49 50 49 120v288l-7 1q-79 19 -146 67q-51 35 -91 87l-15 19v-462q0 -70 48 -120v-37h-321v37q48 50 48 120v443q0 68 -45 117q45 49 45 117v443q0 70 -48 120v37h804v-37q-48 -50 -48 -120v-636q-24 -8 -72 -8q-90 0 -152 88v584h-259v-608l108 108h38
q21 -81 80 -148q78 -90 185 -90q76 0 114 21q25 14 47 49q23 40 -5 73q-21 23 -19 51t26 40q38 17 61 -17q29 -43 -4 -138q-43 -128 -143 -179l-5 -3v-307q0 -70 48 -120v-37h-88q-2 -17 -2 -33q0 -77 21 -115q14 -26 49 -46q40 -25 73 5q23 21 51 18q28 -2 40 -26
q17 -38 -17 -60q-43 -29 -138 3q-89 31 -141 87q-63 67 -70 167z" />
    <glyph glyph-name="Cacute" unicode="&#x106;" horiz-adv-x="969" 
d="M132 37q48 51 48 120v443q0 68 -45 117q45 49 45 117v443q0 70 -48 120v37h804v-34q-67 -20 -137 -120q-76 -106 -90 -219q-13 -98 8 -173q17 -67 51 -87q40 -23 73 5q23 21 51 19t40 -26q17 -38 -17 -61q-43 -29 -138 4q-79 27 -137 104q-68 89 -74 209q-6 122 23 240
l3 10h-187v-471q0 -68 45 -117q-45 -49 -45 -117v-472h242q67 0 106 44q29 31 53 102h34v-40q0 -78 38 -133q13 -20 33 -40l14 -14l8 -6l3 -4v-37h-804v37zM883 1888q-68 -49 -96 -118l-70 -174q-22 -58 -80 -99q-51 -36 -102 -40l123 307q28 69 0 120l15 39h224z" />
    <glyph glyph-name="cacute" unicode="&#x107;" horiz-adv-x="969" 
d="M132 37q48 51 48 120v443q0 68 -45 117q45 49 45 117v443q0 70 -48 120v37h804v-34q-67 -20 -137 -120q-76 -106 -90 -219q-13 -98 8 -173q17 -67 51 -87q40 -23 73 5q23 21 51 19t40 -26q17 -38 -17 -61q-43 -29 -138 4q-79 27 -137 104q-68 89 -74 209q-6 122 23 240
l3 10h-187v-471q0 -68 45 -117q-45 -49 -45 -117v-472h242q67 0 106 44q29 31 53 102h34v-40q0 -78 38 -133q13 -20 33 -40l14 -14l8 -6l3 -4v-37h-804v37zM883 1888q-68 -49 -96 -118l-70 -174q-22 -58 -80 -99q-51 -36 -102 -40l123 307q28 69 0 120l15 39h224z" />
    <glyph glyph-name="Ccaron" unicode="&#x10c;" horiz-adv-x="969" 
d="M132 37q48 51 48 120v443q0 68 -45 117q45 49 45 117v443q0 70 -48 120v37h804v-34q-67 -20 -137 -120q-76 -106 -90 -219q-13 -98 8 -173q17 -67 51 -87q40 -23 73 5q23 21 51 19t40 -26q17 -38 -17 -61q-43 -29 -138 4q-79 27 -137 104q-68 89 -74 209q-6 122 23 240
l3 10h-187v-471q0 -68 45 -117q-45 -49 -45 -117v-472h242q67 0 106 44q29 31 53 102h34v-40q0 -78 38 -133q13 -20 33 -40l14 -14l8 -6l3 -4v-37h-804v37zM408 1496q28 51 0 120l-123 307q51 -4 102 -40q58 -41 80 -99l68 -169l68 169q22 58 80 99q51 36 102 40l-123 -307
q-28 -69 0 -120l-15 -39h-224z" />
    <glyph glyph-name="ccaron" unicode="&#x10d;" horiz-adv-x="969" 
d="M132 37q48 51 48 120v443q0 68 -45 117q45 49 45 117v443q0 70 -48 120v37h804v-34q-67 -20 -137 -120q-76 -106 -90 -219q-13 -98 8 -173q17 -67 51 -87q40 -23 73 5q23 21 51 19t40 -26q17 -38 -17 -61q-43 -29 -138 4q-79 27 -137 104q-68 89 -74 209q-6 122 23 240
l3 10h-187v-471q0 -68 45 -117q-45 -49 -45 -117v-472h242q67 0 106 44q29 31 53 102h34v-40q0 -78 38 -133q13 -20 33 -40l14 -14l8 -6l3 -4v-37h-804v37zM408 1496q28 51 0 120l-123 307q51 -4 102 -40q58 -41 80 -99l68 -169l68 169q22 58 80 99q51 36 102 40l-123 -307
q-28 -69 0 -120l-15 -39h-224z" />
    <glyph glyph-name="Dcaron" unicode="&#x10e;" horiz-adv-x="1070" 
d="M249 36q48 50 48 120v443q0 68 -45 117q45 49 45 116v400q64 59 225 60v-460q0 -67 45 -116q-45 -49 -45 -117v-472h9q91 0 166 78q84 85 84 211v183q0 68 -46 117q46 49 46 116v232q0 126 -84 213q-75 81 -166 81q-123 0 -194 -26q-84 -30 -129 -105q-23 -39 6 -73
q20 -24 18 -52q-2 -27 -27 -38v0q-37 -19 -60 16q-29 43 4 138q47 132 150 200q96 63 232 63q210 0 343 -118q132 -117 132 -299v-232q0 -67 44 -116q-44 -49 -44 -117v-183q0 -183 -132 -299q-133 -118 -343 -118h-282v37zM514 1549q28 51 0 120l-123 307q51 -4 102 -40
q58 -41 80 -99l68 -169l68 169q22 58 80 99q51 36 102 40l-123 -307q-28 -69 0 -120l-15 -39h-224z" />
    <glyph glyph-name="dcaron" unicode="&#x10f;" horiz-adv-x="1070" 
d="M249 36q48 50 48 120v443q0 68 -45 117q45 49 45 116v400q64 59 225 60v-460q0 -67 45 -116q-45 -49 -45 -117v-472h9q91 0 166 78q84 85 84 211v183q0 68 -46 117q46 49 46 116v232q0 126 -84 213q-75 81 -166 81q-123 0 -194 -26q-84 -30 -129 -105q-23 -39 6 -73
q20 -24 18 -52q-2 -27 -27 -38v0q-37 -19 -60 16q-29 43 4 138q47 132 150 200q96 63 232 63q210 0 343 -118q132 -117 132 -299v-232q0 -67 44 -116q-44 -49 -44 -117v-183q0 -183 -132 -299q-133 -118 -343 -118h-282v37zM514 1549q28 51 0 120l-123 307q51 -4 102 -40
q58 -41 80 -99l68 -169l68 169q22 58 80 99q51 36 102 40l-123 -307q-28 -69 0 -120l-15 -39h-224z" />
    <glyph glyph-name="Ecaron" unicode="&#x11a;" horiz-adv-x="969" 
d="M132 37q48 50 48 120v443q0 68 -45 117q45 49 45 117v443q0 70 -48 120v37h804v-34q-67 -20 -137 -120q-76 -107 -90 -219q-13 -98 8 -173q17 -67 51 -87q40 -23 73 5q23 21 51 19t40 -26q17 -38 -17 -61q-43 -29 -138 4q-79 27 -137 104q-68 89 -74 209q-6 122 23 240
l3 10h-187v-548h57q13 0 33 -12q27 -16 62 -52q43 -43 153 -174q64 -77 50 -128q-12 -42 -54 -37q-27 4 -37 29q-11 26 1 55q13 31 -4 53q-25 33 -58 38q-5 1 -30 2q-36 1 -116 1h-57v-404h194q67 0 106 44q28 31 52 102h34v-40q0 -78 38 -133q14 -20 34 -40l15 -15l7 -5
l3 -4v-37h-756v37zM408 1496q28 51 0 120l-123 307q51 -4 102 -40q58 -41 80 -99l68 -169l68 169q22 58 80 99q51 36 102 40l-123 -307q-28 -69 0 -120l-15 -39h-224z" />
    <glyph glyph-name="ecaron" unicode="&#x11b;" horiz-adv-x="969" 
d="M132 37q48 50 48 120v443q0 68 -45 117q45 49 45 117v443q0 70 -48 120v37h804v-34q-67 -20 -137 -120q-76 -107 -90 -219q-13 -98 8 -173q17 -67 51 -87q40 -23 73 5q23 21 51 19t40 -26q17 -38 -17 -61q-43 -29 -138 4q-79 27 -137 104q-68 89 -74 209q-6 122 23 240
l3 10h-187v-548h57q13 0 33 -12q27 -16 62 -52q43 -43 153 -174q64 -77 50 -128q-12 -42 -54 -37q-27 4 -37 29q-11 26 1 55q13 31 -4 53q-25 33 -58 38q-5 1 -30 2q-36 1 -116 1h-57v-404h194q67 0 106 44q28 31 52 102h34v-40q0 -78 38 -133q14 -20 34 -40l15 -15l7 -5
l3 -4v-37h-756v37zM408 1496q28 51 0 120l-123 307q51 -4 102 -40q58 -41 80 -99l68 -169l68 169q22 58 80 99q51 36 102 40l-123 -307q-28 -69 0 -120l-15 -39h-224z" />
    <glyph glyph-name="dotlessi" unicode="&#x131;" horiz-adv-x="473" 
d="M132 37q48 50 48 120v443q0 68 -45 117q45 48 45 117v443q0 70 -48 120v37h321v-37q-48 -50 -48 -120v-443q0 -68 45 -117q-45 -49 -45 -117v-443q0 -70 48 -120v-37h-321v37z" />
    <glyph glyph-name="Lslash" unicode="&#x141;" horiz-adv-x="1210" 
d="M647 621q-1 -10 -1 -21v-472h187l-3 11q-29 118 -23 239t74 211q58 77 137 103q95 32 139 3q33 -22 16 -59q-12 -25 -40 -27t-51 18q-33 30 -73 6q-34 -20 -51 -87q-21 -75 -8 -173q14 -112 90 -220q70 -100 137 -119v-34h-804v37q48 50 48 120v72l-39 -73
q-35 -63 -12 -121l-19 -35l-219 51l18 33q71 34 104 98l167 307v111q0 68 -45 117q45 49 45 116v444q0 70 -48 120v37h322v-37q-49 -50 -49 -120v-372l159 296q34 65 12 122l19 35l219 -51l-18 -32q-71 -35 -105 -98l-218 -404q-33 -61 -14 -117q-30 -15 -53 -35z" />
    <glyph glyph-name="lslash" unicode="&#x142;" horiz-adv-x="1210" 
d="M647 621q-1 -10 -1 -21v-472h187l-3 11q-29 118 -23 239t74 211q58 77 137 103q95 32 139 3q33 -22 16 -59q-12 -25 -40 -27t-51 18q-33 30 -73 6q-34 -20 -51 -87q-21 -75 -8 -173q14 -112 90 -220q70 -100 137 -119v-34h-804v37q48 50 48 120v72l-39 -73
q-35 -63 -12 -121l-19 -35l-219 51l18 33q71 34 104 98l167 307v111q0 68 -45 117q45 49 45 116v444q0 70 -48 120v37h322v-37q-49 -50 -49 -120v-372l159 296q34 65 12 122l19 35l219 -51l-18 -32q-71 -35 -105 -98l-218 -404q-33 -61 -14 -117q-30 -15 -53 -35z" />
    <glyph glyph-name="Nacute" unicode="&#x143;" horiz-adv-x="1073" 
d="M732 36q49 50 49 120v443q0 68 -46 117q46 48 46 116v232q0 126 -84 213q-75 81 -166 81q-123 0 -194 -26q-84 -31 -129 -105q-23 -39 6 -73q20 -24 18 -52q-2 -27 -26 -38h-1q-37 -19 -60 16q-29 43 4 138q47 132 150 200q96 63 232 63q210 0 343 -118
q132 -117 132 -299v-232q0 -67 44 -116q-44 -49 -44 -117v-443q0 -70 47 -120v-37h-321v37zM249 36q48 50 48 120v443q0 68 -45 117q45 49 45 116v400q64 59 225 60v-460q0 -67 45 -116q-45 -49 -45 -117v-443q0 -70 49 -120v-37h-322v37zM999 1941q-68 -49 -96 -118
l-70 -174q-22 -58 -80 -99q-51 -36 -102 -40l123 307q28 69 0 120l15 39h224z" />
    <glyph glyph-name="nacute" unicode="&#x144;" horiz-adv-x="1073" 
d="M732 36q49 50 49 120v443q0 68 -46 117q46 48 46 116v232q0 126 -84 213q-75 81 -166 81q-123 0 -194 -26q-84 -31 -129 -105q-23 -39 6 -73q20 -24 18 -52q-2 -27 -26 -38h-1q-37 -19 -60 16q-29 43 4 138q47 132 150 200q96 63 232 63q210 0 343 -118
q132 -117 132 -299v-232q0 -67 44 -116q-44 -49 -44 -117v-443q0 -70 47 -120v-37h-321v37zM249 36q48 50 48 120v443q0 68 -45 117q45 49 45 116v400q64 59 225 60v-460q0 -67 45 -116q-45 -49 -45 -117v-443q0 -70 49 -120v-37h-322v37zM999 1941q-68 -49 -96 -118
l-70 -174q-22 -58 -80 -99q-51 -36 -102 -40l123 307q28 69 0 120l15 39h224z" />
    <glyph glyph-name="Ncaron" unicode="&#x147;" horiz-adv-x="1073" 
d="M732 36q49 50 49 120v443q0 68 -46 117q46 48 46 116v232q0 126 -84 213q-75 81 -166 81q-123 0 -194 -26q-84 -31 -129 -105q-23 -39 6 -73q20 -24 18 -52q-2 -27 -26 -38h-1q-37 -19 -60 16q-29 43 4 138q47 132 150 200q96 63 232 63q210 0 343 -118
q132 -117 132 -299v-232q0 -67 44 -116q-44 -49 -44 -117v-443q0 -70 47 -120v-37h-321v37zM249 36q48 50 48 120v443q0 68 -45 117q45 49 45 116v400q64 59 225 60v-460q0 -67 45 -116q-45 -49 -45 -117v-443q0 -70 49 -120v-37h-322v37zM514 1549q28 51 0 120l-123 307
q51 -4 102 -40q58 -41 80 -99l68 -169l68 169q22 58 80 99q51 36 102 40l-123 -307q-28 -69 0 -120l-15 -39h-224z" />
    <glyph glyph-name="ncaron" unicode="&#x148;" horiz-adv-x="1073" 
d="M732 36q49 50 49 120v443q0 68 -46 117q46 48 46 116v232q0 126 -84 213q-75 81 -166 81q-123 0 -194 -26q-84 -31 -129 -105q-23 -39 6 -73q20 -24 18 -52q-2 -27 -26 -38h-1q-37 -19 -60 16q-29 43 4 138q47 132 150 200q96 63 232 63q210 0 343 -118
q132 -117 132 -299v-232q0 -67 44 -116q-44 -49 -44 -117v-443q0 -70 47 -120v-37h-321v37zM249 36q48 50 48 120v443q0 68 -45 117q45 49 45 116v400q64 59 225 60v-460q0 -67 45 -116q-45 -49 -45 -117v-443q0 -70 49 -120v-37h-322v37zM514 1549q28 51 0 120l-123 307
q51 -4 102 -40q58 -41 80 -99l68 -169l68 169q22 58 80 99q51 36 102 40l-123 -307q-28 -69 0 -120l-15 -39h-224z" />
    <glyph glyph-name="OE" unicode="&#x152;" horiz-adv-x="1453" 
d="M1420 1434v-34q-67 -20 -137 -120q-76 -107 -90 -219q-13 -98 8 -173q17 -67 51 -87q40 -23 73 5q23 21 51 19t40 -26q17 -38 -17 -61q-43 -29 -138 4q-79 27 -137 104q-68 89 -74 209q-6 122 23 240l3 10h-187v-548h57q13 0 33 -12q27 -16 62 -52q43 -43 153 -174
q64 -77 50 -128q-12 -42 -54 -37q-27 4 -37 29q-11 26 1 55q13 31 -4 53q-25 33 -58 38q-5 1 -30 2q-36 1 -116 1h-57v-404h194q67 0 106 44q28 31 52 102h34v-40q0 -78 38 -133q14 -20 34 -40l15 -15l7 -5l3 -4v-37h-1240v37q48 50 48 120v443q0 68 -45 117q45 49 45 117
v443q0 70 -48 120v37h1288zM663 600q0 68 -45 117q45 48 45 117v471h-258v-471q0 -69 45 -117q-45 -49 -45 -117v-472h258v472z" />
    <glyph glyph-name="oe" unicode="&#x153;" horiz-adv-x="1453" 
d="M1420 1434v-34q-67 -20 -137 -120q-76 -107 -90 -219q-13 -98 8 -173q17 -67 51 -87q40 -23 73 5q23 21 51 19t40 -26q17 -38 -17 -61q-43 -29 -138 4q-79 27 -137 104q-68 89 -74 209q-6 122 23 240l3 10h-187v-548h57q13 0 33 -12q27 -16 62 -52q43 -43 153 -174
q64 -77 50 -128q-12 -42 -54 -37q-27 4 -37 29q-11 26 1 55q13 31 -4 53q-25 33 -58 38q-5 1 -30 2q-36 1 -116 1h-57v-404h194q67 0 106 44q28 31 52 102h34v-40q0 -78 38 -133q14 -20 34 -40l15 -15l7 -5l3 -4v-37h-1240v37q48 50 48 120v443q0 68 -45 117q45 49 45 117
v443q0 70 -48 120v37h1288zM663 600q0 68 -45 117q45 48 45 117v471h-258v-471q0 -69 45 -117q-45 -49 -45 -117v-472h258v472z" />
    <glyph glyph-name="Sacute" unicode="&#x15a;" horiz-adv-x="1099" 
d="M262 37q47 51 47 120v207q-1 135 -2 147v0q-6 33 -39 58q-23 16 -52 4q-31 -12 -55 -2q-26 11 -29 38q-5 42 36 54q51 15 127 -49q133 -111 176 -155q35 -35 51 -61q12 -20 12 -34v-236h259v106q0 117 -111 240v0q-48 47 -115 48q-5 66 -54 113q-99 90 -143 152
q-61 86 -61 172v318q0 70 -47 120v37h804v-34q-67 -20 -138 -120q-76 -107 -89 -219q-13 -98 7 -173q18 -67 51 -87q40 -23 74 5q24 21 51 19q28 -2 39 -26q18 -38 -16 -61q-44 -29 -139 4q-78 27 -136 104q-69 89 -73 209q-6 122 23 240l2 10h-188v-346q0 -91 106 -200v0
q50 -45 115 -45v0q5 -67 55 -113q98 -91 145 -165q63 -98 63 -202v-77q0 -70 48 -120v-37h-804v37zM948 1888q-68 -49 -96 -118l-70 -174q-22 -58 -80 -99q-51 -36 -102 -40l123 307q28 69 0 120l15 39h224z" />
    <glyph glyph-name="sacute" unicode="&#x15b;" horiz-adv-x="1099" 
d="M262 37q47 51 47 120v207q-1 135 -2 147v0q-6 33 -39 58q-23 16 -52 4q-31 -12 -55 -2q-26 11 -29 38q-5 42 36 54q51 15 127 -49q133 -111 176 -155q35 -35 51 -61q12 -20 12 -34v-236h259v106q0 117 -111 240v0q-48 47 -115 48q-5 66 -54 113q-99 90 -143 152
q-61 86 -61 172v318q0 70 -47 120v37h804v-34q-67 -20 -138 -120q-76 -107 -89 -219q-13 -98 7 -173q18 -67 51 -87q40 -23 74 5q24 21 51 19q28 -2 39 -26q18 -38 -16 -61q-44 -29 -139 4q-78 27 -136 104q-69 89 -73 209q-6 122 23 240l2 10h-188v-346q0 -91 106 -200v0
q50 -45 115 -45v0q5 -67 55 -113q98 -91 145 -165q63 -98 63 -202v-77q0 -70 48 -120v-37h-804v37zM948 1888q-68 -49 -96 -118l-70 -174q-22 -58 -80 -99q-51 -36 -102 -40l123 307q28 69 0 120l15 39h224z" />
    <glyph glyph-name="Scedilla" unicode="&#x15e;" horiz-adv-x="1099" 
d="M537 0h-275v37q47 51 47 120v207q-1 135 -2 147q-6 33 -39 58q-23 16 -52 4q-31 -12 -55 -2q-26 11 -29 38q-5 42 36 54q51 15 127 -49q133 -111 176 -155q35 -35 51 -61q12 -20 12 -34v-236h259v106q0 117 -111 240q-48 47 -115 48q-5 66 -54 113q-99 90 -143 152
q-61 86 -61 172v318q0 70 -47 120v37h804v-34q-67 -20 -138 -120q-76 -107 -89 -219q-13 -98 7 -173q18 -67 51 -87q40 -23 74 5q24 21 51 19q28 -2 39 -26q18 -38 -16 -61q-44 -29 -139 4q-78 27 -136 104q-69 89 -73 209q-6 122 23 240l2 10h-188v-346q0 -91 106 -200
q50 -45 115 -45q5 -67 55 -113q98 -91 145 -165q63 -98 63 -202v-77q0 -70 48 -120v-37h-480v-31q0 -20 23 -44q10 -8 21 -10h5q1 -14 11 -24l1 -1q22 -20 32 -36q14 -22 14 -45v-48q0 -16 10 -27v-8h-177v8q11 11 11 27v45q-1 30 -1 33q-1 7 -8 12q-6 4 -12 1q-7 -3 -12 0
q-6 2 -6 8q-2 9 8 12q11 3 28 -11q29 -24 38 -34q8 -8 12 -13q2 -5 2 -8v-52h57v55q0 26 -24 53q-11 11 -26 11v3q-2 13 -11 22q-22 20 -32 33q-13 19 -13 38v31z" />
    <glyph glyph-name="scedilla" unicode="&#x15f;" horiz-adv-x="1099" 
d="M537 0h-275v37q47 51 47 120v207q-1 135 -2 147q-6 33 -39 58q-23 16 -52 4q-31 -12 -55 -2q-26 11 -29 38q-5 42 36 54q51 15 127 -49q133 -111 176 -155q35 -35 51 -61q12 -20 12 -34v-236h259v106q0 117 -111 240q-48 47 -115 48q-5 66 -54 113q-99 90 -143 152
q-61 86 -61 172v318q0 70 -47 120v37h804v-34q-67 -20 -138 -120q-76 -107 -89 -219q-13 -98 7 -173q18 -67 51 -87q40 -23 74 5q24 21 51 19q28 -2 39 -26q18 -38 -16 -61q-44 -29 -139 4q-78 27 -136 104q-69 89 -73 209q-6 122 23 240l2 10h-188v-346q0 -91 106 -200
q50 -45 115 -45q5 -67 55 -113q98 -91 145 -165q63 -98 63 -202v-77q0 -70 48 -120v-37h-480v-31q0 -20 23 -44q10 -8 21 -10h5q1 -14 11 -24l1 -1q22 -20 32 -36q14 -22 14 -45v-48q0 -16 10 -27v-8h-177v8q11 11 11 27v45q-1 30 -1 33q-1 7 -8 12q-6 4 -12 1q-7 -3 -12 0
q-6 2 -6 8q-2 9 8 12q11 3 28 -11q29 -24 38 -34q8 -8 12 -13q2 -5 2 -8v-52h57v55q0 26 -24 53q-11 11 -26 11v3q-2 13 -11 22q-22 20 -32 33q-13 19 -13 38v31z" />
    <glyph glyph-name="Scaron" unicode="&#x160;" horiz-adv-x="1099" 
d="M262 37q47 51 47 120v207q-1 135 -2 147v0q-6 33 -39 58q-23 16 -52 4q-31 -12 -55 -2q-26 11 -29 38q-5 42 36 54q51 15 127 -49q133 -111 176 -155q35 -35 51 -61q12 -20 12 -34v-236h259v106q0 117 -111 240v0q-48 47 -115 48q-5 66 -54 113q-99 90 -143 152
q-61 86 -61 172v318q0 70 -47 120v37h804v-34q-67 -20 -138 -120q-76 -107 -89 -219q-13 -98 7 -173q18 -67 51 -87q40 -23 74 5q24 21 51 19q28 -2 39 -26q18 -38 -16 -61q-44 -29 -139 4q-78 27 -136 104q-69 89 -73 209q-6 122 23 240l2 10h-188v-346q0 -91 106 -200v0
q50 -45 115 -45v0q5 -67 55 -113q98 -91 145 -165q63 -98 63 -202v-77q0 -70 48 -120v-37h-804v37zM473 1496q28 51 0 120l-123 307q51 -4 102 -40q58 -41 80 -99l68 -169l68 169q22 58 80 99q51 36 102 40l-123 -307q-28 -69 0 -120l-15 -39h-224z" />
    <glyph glyph-name="scaron" unicode="&#x161;" horiz-adv-x="1099" 
d="M262 37q47 51 47 120v207q-1 135 -2 147v0q-6 33 -39 58q-23 16 -52 4q-31 -12 -55 -2q-26 11 -29 38q-5 42 36 54q51 15 127 -49q133 -111 176 -155q35 -35 51 -61q12 -20 12 -34v-236h259v106q0 117 -111 240v0q-48 47 -115 48q-5 66 -54 113q-99 90 -143 152
q-61 86 -61 172v318q0 70 -47 120v37h804v-34q-67 -20 -138 -120q-76 -107 -89 -219q-13 -98 7 -173q18 -67 51 -87q40 -23 74 5q24 21 51 19q28 -2 39 -26q18 -38 -16 -61q-44 -29 -139 4q-78 27 -136 104q-69 89 -73 209q-6 122 23 240l2 10h-188v-346q0 -91 106 -200v0
q50 -45 115 -45v0q5 -67 55 -113q98 -91 145 -165q63 -98 63 -202v-77q0 -70 48 -120v-37h-804v37zM473 1496q28 51 0 120l-123 307q51 -4 102 -40q58 -41 80 -99l68 -169l68 169q22 58 80 99q51 36 102 40l-123 -307q-28 -69 0 -120l-15 -39h-224z" />
    <glyph glyph-name="uni0162" unicode="&#x162;" horiz-adv-x="1162" 
d="M519 0h-97v37q48 50 48 120v444q-1 67 -45 116q44 48 45 116v472h-48q-68 0 -107 -42q-28 -31 -53 -103h-33v41q0 76 -39 133q-13 19 -33 38q-7 8 -15 15l-10 10v37h998v-34q-67 -20 -138 -120q-76 -107 -90 -219q-12 -98 8 -173q18 -67 51 -87q40 -23 73 5q24 21 51 19
q28 -2 40 -26q17 -38 -16 -61q-43 -29 -139 4q-78 27 -136 104q-68 89 -74 209q-5 122 23 240l2 10h-91l1 -472q0 -68 45 -116q-45 -49 -45 -117l-1 -443q0 -70 49 -120v-37h-175v-31q0 -20 23 -44q10 -8 21 -10h5q1 -14 11 -24l1 -1q22 -20 32 -36q14 -22 14 -45v-48
q0 -16 10 -27v-8h-177v8q11 11 11 27v45q-1 30 -1 33q-1 7 -8 12q-6 4 -12 1q-7 -3 -12 0q-6 2 -6 8q-2 9 8 12q11 3 28 -11q29 -24 38 -34q8 -8 12 -13q2 -5 2 -8v-52h57v55q0 26 -24 53q-11 11 -26 11v3q-2 13 -11 22q-22 20 -32 33q-13 19 -13 38v31z" />
    <glyph glyph-name="uni0163" unicode="&#x163;" horiz-adv-x="1162" 
d="M519 0h-97v37q48 50 48 120v444q-1 67 -45 116q44 48 45 116v472h-48q-68 0 -107 -42q-28 -31 -53 -103h-33v41q0 76 -39 133q-13 19 -33 38q-7 8 -15 15l-10 10v37h998v-34q-67 -20 -138 -120q-76 -107 -90 -219q-12 -98 8 -173q18 -67 51 -87q40 -23 73 5q24 21 51 19
q28 -2 40 -26q17 -38 -16 -61q-43 -29 -139 4q-78 27 -136 104q-68 89 -74 209q-5 122 23 240l2 10h-91l1 -472q0 -68 45 -116q-45 -49 -45 -117l-1 -443q0 -70 49 -120v-37h-175v-31q0 -20 23 -44q10 -8 21 -10h5q1 -14 11 -24l1 -1q22 -20 32 -36q14 -22 14 -45v-48
q0 -16 10 -27v-8h-177v8q11 11 11 27v45q-1 30 -1 33q-1 7 -8 12q-6 4 -12 1q-7 -3 -12 0q-6 2 -6 8q-2 9 8 12q11 3 28 -11q29 -24 38 -34q8 -8 12 -13q2 -5 2 -8v-52h57v55q0 26 -24 53q-11 11 -26 11v3q-2 13 -11 22q-22 20 -32 33q-13 19 -13 38v31z" />
    <glyph glyph-name="Tcaron" unicode="&#x164;" horiz-adv-x="1162" 
d="M422 37q48 50 48 120v444q-1 67 -45 116q44 48 45 116v472h-48q-68 0 -107 -42q-28 -31 -53 -103h-33v41q0 76 -39 133q-13 19 -33 38q-7 8 -15 15l-10 10v37h998v-34q-67 -20 -138 -120q-76 -107 -90 -219q-12 -98 8 -173q18 -67 51 -87q40 -23 73 5q24 21 51 19
q28 -2 40 -26q17 -38 -16 -61q-43 -29 -139 4q-78 27 -136 104q-68 89 -74 209q-5 122 23 240l2 10h-91l1 -472q0 -68 45 -116q-45 -49 -45 -117l-1 -443q0 -70 49 -120v-37h-321v37zM455 1496q28 51 0 120l-123 307q51 -4 102 -40q58 -41 80 -99l68 -169l68 169
q22 58 80 99q51 36 102 40l-123 -307q-28 -69 0 -120l-15 -39h-224z" />
    <glyph glyph-name="tcaron" unicode="&#x165;" horiz-adv-x="1162" 
d="M422 37q48 50 48 120v444q-1 67 -45 116q44 48 45 116v472h-48q-68 0 -107 -42q-28 -31 -53 -103h-33v41q0 76 -39 133q-13 19 -33 38q-7 8 -15 15l-10 10v37h998v-34q-67 -20 -138 -120q-76 -107 -90 -219q-12 -98 8 -173q18 -67 51 -87q40 -23 73 5q24 21 51 19
q28 -2 40 -26q17 -38 -16 -61q-43 -29 -139 4q-78 27 -136 104q-68 89 -74 209q-5 122 23 240l2 10h-91l1 -472q0 -68 45 -116q-45 -49 -45 -117l-1 -443q0 -70 49 -120v-37h-321v37zM455 1496q28 51 0 120l-123 307q51 -4 102 -40q58 -41 80 -99l68 -169l68 169
q22 58 80 99q51 36 102 40l-123 -307q-28 -69 0 -120l-15 -39h-224z" />
    <glyph glyph-name="Uring" unicode="&#x16e;" 
d="M132 37q48 51 48 120v443q0 68 -45 117q45 49 45 117v443q0 70 -48 120v37h321v-37q-48 -50 -48 -120v-443q0 -68 45 -117q-45 -49 -45 -117v-472h259v472q0 68 -46 117q46 49 46 117v443q0 70 -49 120v37h321v-37q-47 -50 -47 -120v-443q0 -68 44 -117q-44 -49 -44 -117
v-443q0 -69 47 -120v-37h-804v37zM437 1692q42 39 97 39q58 0 98 -39q39 -40 39 -98q0 -55 -39 -97q-40 -40 -98 -40q-56 0 -97 40q-40 41 -40 97q0 58 40 98zM468 1594q0 -26 20 -46t46 -20t46 20t20 46t-20 46t-46 20t-46 -20t-20 -45v-1z" />
    <glyph glyph-name="uring" unicode="&#x16f;" 
d="M132 37q48 51 48 120v443q0 68 -45 117q45 49 45 117v443q0 70 -48 120v37h321v-37q-48 -50 -48 -120v-443q0 -68 45 -117q-45 -49 -45 -117v-472h259v472q0 68 -46 117q46 49 46 117v443q0 70 -49 120v37h321v-37q-47 -50 -47 -120v-443q0 -68 44 -117q-44 -49 -44 -117
v-443q0 -69 47 -120v-37h-804v37zM437 1692q42 39 97 39q58 0 98 -39q39 -40 39 -98q0 -55 -39 -97q-40 -40 -98 -40q-56 0 -97 40q-40 41 -40 97q0 58 40 98zM468 1594q0 -26 20 -46t46 -20t46 20t20 46t-20 46t-46 20t-46 -20t-20 -45v-1z" />
    <glyph glyph-name="Ydieresis" unicode="&#x178;" 
d="M373 37q49 50 49 120v348l-48 42l-44 42q-47 44 -77 84q-73 96 -73 189v415q0 70 -48 120v37h322v-37q-49 -50 -49 -120v-415q0 -98 123 -219l6 -5l6 5q124 121 124 219v415q0 70 -49 120v37h321v-37q-47 -50 -47 -120v-415q0 -94 -75 -189q-29 -39 -77 -84l-43 -42
l-47 -42v-348q0 -70 47 -120v-37h-321v37zM363 1457q-57 0 -97 40t-40 97q0 56 40 96t97 40t97 -40t40 -96q0 -57 -40 -97t-97 -40zM842 1594q0 -57 -40 -97t-96 -40q-57 0 -97 40q-39 40 -39 97q0 55 39 96q40 40 97 40q56 0 96 -40t40 -96z" />
    <glyph glyph-name="Zacute" unicode="&#x179;" horiz-adv-x="1092" 
d="M133 37q48 51 48 120v77q0 104 64 202q46 74 145 165l13 14q37 42 42 99q65 0 114 45q106 109 106 200v346h-187l2 -10q28 -118 23 -240q-5 -120 -74 -209q-58 -77 -136 -104q-95 -33 -139 -4q-34 23 -16 61q12 24 39 26q28 2 52 -19q33 -28 73 -5q33 20 51 87
q20 76 8 173q-14 113 -90 219q-70 100 -138 120v34h805v-37q-48 -50 -48 -120v-318q0 -86 -61 -172q-43 -62 -143 -152q-49 -47 -54 -113q-66 -1 -115 -47v-1q-111 -123 -111 -240v-106h259v236q0 14 12 34q16 26 51 61q44 45 175 155q77 64 128 49q41 -13 37 -54
q-4 -27 -30 -38q-24 -10 -54 2q-31 12 -52 -4q-35 -25 -39 -58q-1 -5 -2 -30q-1 -36 -1 -117v-207q0 -69 48 -120v-37h-805v37zM948 1888q-68 -49 -96 -118l-70 -174q-22 -58 -80 -99q-51 -36 -102 -40l123 307q28 69 0 120l15 39h224z" />
    <glyph glyph-name="zacute" unicode="&#x17a;" horiz-adv-x="1092" 
d="M133 37q48 51 48 120v77q0 104 64 202q46 74 145 165l13 14q37 42 42 99q65 0 114 45q106 109 106 200v346h-187l2 -10q28 -118 23 -240q-5 -120 -74 -209q-58 -77 -136 -104q-95 -33 -139 -4q-34 23 -16 61q12 24 39 26q28 2 52 -19q33 -28 73 -5q33 20 51 87
q20 76 8 173q-14 113 -90 219q-70 100 -138 120v34h805v-37q-48 -50 -48 -120v-318q0 -86 -61 -172q-43 -62 -143 -152q-49 -47 -54 -113q-66 -1 -115 -47v-1q-111 -123 -111 -240v-106h259v236q0 14 12 34q16 26 51 61q44 45 175 155q77 64 128 49q41 -13 37 -54
q-4 -27 -30 -38q-24 -10 -54 2q-31 12 -52 -4q-35 -25 -39 -58q-1 -5 -2 -30q-1 -36 -1 -117v-207q0 -69 48 -120v-37h-805v37zM948 1888q-68 -49 -96 -118l-70 -174q-22 -58 -80 -99q-51 -36 -102 -40l123 307q28 69 0 120l15 39h224z" />
    <glyph glyph-name="Zdotaccent" unicode="&#x17b;" horiz-adv-x="1092" 
d="M133 37q48 51 48 120v77q0 104 64 202q46 74 145 165l13 14q37 42 42 99q65 0 114 45q106 109 106 200v346h-187l2 -10q28 -118 23 -240q-5 -120 -74 -209q-58 -77 -136 -104q-95 -33 -139 -4q-34 23 -16 61q12 24 39 26q28 2 52 -19q33 -28 73 -5q33 20 51 87
q20 76 8 173q-14 113 -90 219q-70 100 -138 120v34h805v-37q-48 -50 -48 -120v-318q0 -86 -61 -172q-43 -62 -143 -152q-49 -47 -54 -113q-66 -1 -115 -47v-1q-111 -123 -111 -240v-106h259v236q0 14 12 34q16 26 51 61q44 45 175 155q77 64 128 49q41 -13 37 -54
q-4 -27 -30 -38q-24 -10 -54 2q-31 12 -52 -4q-35 -25 -39 -58q-1 -5 -2 -30q-1 -36 -1 -117v-207q0 -69 48 -120v-37h-805v37zM600 1457q-57 0 -97 40t-40 97q0 56 40 96t97 40t97 -40t40 -96q0 -57 -40 -97t-97 -40z" />
    <glyph glyph-name="zdotaccent" unicode="&#x17c;" horiz-adv-x="1092" 
d="M133 37q48 51 48 120v77q0 104 64 202q46 74 145 165l13 14q37 42 42 99q65 0 114 45q106 109 106 200v346h-187l2 -10q28 -118 23 -240q-5 -120 -74 -209q-58 -77 -136 -104q-95 -33 -139 -4q-34 23 -16 61q12 24 39 26q28 2 52 -19q33 -28 73 -5q33 20 51 87
q20 76 8 173q-14 113 -90 219q-70 100 -138 120v34h805v-37q-48 -50 -48 -120v-318q0 -86 -61 -172q-43 -62 -143 -152q-49 -47 -54 -113q-66 -1 -115 -47v-1q-111 -123 -111 -240v-106h259v236q0 14 12 34q16 26 51 61q44 45 175 155q77 64 128 49q41 -13 37 -54
q-4 -27 -30 -38q-24 -10 -54 2q-31 12 -52 -4q-35 -25 -39 -58q-1 -5 -2 -30q-1 -36 -1 -117v-207q0 -69 48 -120v-37h-805v37zM600 1457q-57 0 -97 40t-40 97q0 56 40 96t97 40t97 -40t40 -96q0 -57 -40 -97t-97 -40z" />
    <glyph glyph-name="uni0218" unicode="&#x218;" horiz-adv-x="1099" 
d="M262 37q47 51 47 120v207q-1 135 -2 147v0q-6 33 -39 58q-23 16 -52 4q-31 -12 -55 -2q-26 11 -29 38q-5 42 36 54q51 15 127 -49q133 -111 176 -155q35 -35 51 -61q12 -20 12 -34v-236h259v106q0 117 -111 240v0q-48 47 -115 48q-5 66 -54 113q-99 90 -143 152
q-61 86 -61 172v318q0 70 -47 120v37h804v-34q-67 -20 -138 -120q-76 -107 -89 -219q-13 -98 7 -173q18 -67 51 -87q40 -23 74 5q24 21 51 19q28 -2 39 -26q18 -38 -16 -61q-44 -29 -139 4q-78 27 -136 104q-69 89 -73 209q-6 122 23 240l2 10h-188v-346q0 -91 106 -200v0
q50 -45 115 -45v0q5 -67 55 -113q98 -91 145 -165q63 -98 63 -202v-77q0 -70 48 -120v-37h-804v37zM482 -408q12 5 25 5q14 0 30 -6q29 -13 53 4q43 33 13 105l-2 4l-4 1q-52 6 -87 44q-36 39 -36 91q0 57 41 97q40 40 96 40q57 0 97 -40t40 -97q0 -23 -5 -53
q-6 -39 -19 -77q-35 -101 -107 -160q-77 -64 -128 -49q-41 12 -36 54q3 26 29 37z" />
    <glyph glyph-name="uni0219" unicode="&#x219;" horiz-adv-x="1099" 
d="M262 37q47 51 47 120v207q-1 135 -2 147v0q-6 33 -39 58q-23 16 -52 4q-31 -12 -55 -2q-26 11 -29 38q-5 42 36 54q51 15 127 -49q133 -111 176 -155q35 -35 51 -61q12 -20 12 -34v-236h259v106q0 117 -111 240v0q-48 47 -115 48q-5 66 -54 113q-99 90 -143 152
q-61 86 -61 172v318q0 70 -47 120v37h804v-34q-67 -20 -138 -120q-76 -107 -89 -219q-13 -98 7 -173q18 -67 51 -87q40 -23 74 5q24 21 51 19q28 -2 39 -26q18 -38 -16 -61q-44 -29 -139 4q-78 27 -136 104q-69 89 -73 209q-6 122 23 240l2 10h-188v-346q0 -91 106 -200v0
q50 -45 115 -45v0q5 -67 55 -113q98 -91 145 -165q63 -98 63 -202v-77q0 -70 48 -120v-37h-804v37zM482 -408q12 5 25 5q14 0 30 -6q29 -13 53 4q43 33 13 105l-2 4l-4 1q-52 6 -87 44q-36 39 -36 91q0 57 41 97q40 40 96 40q57 0 97 -40t40 -97q0 -23 -5 -53
q-6 -39 -19 -77q-35 -101 -107 -160q-77 -64 -128 -49q-41 12 -36 54q3 26 29 37z" />
    <glyph glyph-name="uni021A" unicode="&#x21a;" horiz-adv-x="1162" 
d="M422 37q48 50 48 120v444q-1 67 -45 116q44 48 45 116v472h-48q-68 0 -107 -42q-28 -31 -53 -103h-33v41q0 76 -39 133q-13 19 -33 38q-7 8 -15 15l-10 10v37h998v-34q-67 -20 -138 -120q-76 -107 -90 -219q-12 -98 8 -173q18 -67 51 -87q40 -23 73 5q24 21 51 19
q28 -2 40 -26q17 -38 -16 -61q-43 -29 -139 4q-78 27 -136 104q-68 89 -74 209q-5 122 23 240l2 10h-91l1 -472q0 -68 45 -116q-45 -49 -45 -117l-1 -443q0 -70 49 -120v-37h-321v37zM465 -408q12 5 25 5q14 0 30 -6q29 -13 53 4q43 33 13 105l-2 4l-4 1q-52 6 -87 44
q-36 39 -36 91q0 57 41 97q40 40 96 40q57 0 97 -40t40 -97q0 -23 -5 -53q-6 -39 -19 -77q-35 -101 -107 -160q-77 -64 -128 -49q-41 12 -36 54q3 26 29 37z" />
    <glyph glyph-name="uni021B" unicode="&#x21b;" horiz-adv-x="1162" 
d="M422 37q48 50 48 120v444q-1 67 -45 116q44 48 45 116v472h-48q-68 0 -107 -42q-28 -31 -53 -103h-33v41q0 76 -39 133q-13 19 -33 38q-7 8 -15 15l-10 10v37h998v-34q-67 -20 -138 -120q-76 -107 -90 -219q-12 -98 8 -173q18 -67 51 -87q40 -23 73 5q24 21 51 19
q28 -2 40 -26q17 -38 -16 -61q-43 -29 -139 4q-78 27 -136 104q-68 89 -74 209q-5 122 23 240l2 10h-91l1 -472q0 -68 45 -116q-45 -49 -45 -117l-1 -443q0 -70 49 -120v-37h-321v37zM465 -408q12 5 25 5q14 0 30 -6q29 -13 53 4q43 33 13 105l-2 4l-4 1q-52 6 -87 44
q-36 39 -36 91q0 57 41 97q40 40 96 40q57 0 97 -40t40 -97q0 -23 -5 -53q-6 -39 -19 -77q-35 -101 -107 -160q-77 -64 -128 -49q-41 12 -36 54q3 26 29 37z" />
    <glyph glyph-name="circumflex" unicode="&#x2c6;" horiz-adv-x="654" 
d="M272 1434h224l15 -39q-28 -51 0 -120l123 -307q-51 4 -102 40q-58 41 -80 99l-68 169l-68 -169q-22 -58 -80 -99q-51 -36 -102 -40l123 307q28 69 0 120z" />
    <glyph glyph-name="caron" unicode="&#x2c7;" horiz-adv-x="654" 
d="M257 1007q28 51 0 120l-123 307q51 -4 102 -40q58 -41 80 -99l68 -169l68 169q22 58 80 99q51 36 102 40l-123 -307q-28 -69 0 -120l-15 -39h-224z" />
    <glyph glyph-name="uni02CA" unicode="&#x2ca;" horiz-adv-x="516" 
d="M482 1399q-68 -49 -96 -118l-70 -174q-22 -58 -80 -99q-51 -36 -102 -40l123 307q28 69 0 120l15 39h224z" />
    <glyph glyph-name="uni02CB" unicode="&#x2cb;" horiz-adv-x="516" 
d="M134 1434h224l15 -39q-28 -51 0 -120l123 -307q-51 4 -102 40q-58 41 -80 99l-70 174q-28 69 -96 118z" />
    <glyph glyph-name="breve" unicode="&#x2d8;" horiz-adv-x="1073" 
d="M533 1457q-193 7 -246 170q-22 62 -3 89q15 22 39 11q16 -8 17 -25q2 -18 -11 -33q-19 -22 -4 -47q29 -49 83 -68q46 -17 125 -17t124 17q55 19 84 68q14 25 -4 47q-13 15 -12 33q1 17 17 25q24 11 39 -11q19 -27 -2 -89q-54 -163 -246 -170z" />
    <glyph glyph-name="dotaccent" unicode="&#x2d9;" horiz-adv-x="1073" 
d="M694 1594q0 -57 -40 -97t-97 -40t-96 40q-41 40 -41 97t41 97q39 40 96 40t97 -40t40 -97z" />
    <glyph glyph-name="ring" unicode="&#x2da;" horiz-adv-x="1073" 
d="M460 1692q42 39 97 39q58 0 98 -39q39 -40 39 -98q0 -55 -39 -97q-40 -40 -98 -40q-56 0 -97 40q-40 41 -40 97q0 58 40 98zM491 1594q0 -26 20 -46t46 -20t46 20t20 46t-20 46t-46 20t-46 -20t-20 -45v-1z" />
    <glyph glyph-name="ogonek" unicode="&#x2db;" horiz-adv-x="1073" 
d="M764 -167q-64 68 -70 169h134q-2 -18 -2 -35q0 -77 21 -115q14 -26 49 -46q40 -25 73 5q23 21 51 18q28 -2 40 -26q17 -38 -17 -60q-43 -29 -138 3q-89 31 -141 87z" />
    <glyph glyph-name="tilde" unicode="&#x2dc;" horiz-adv-x="1005" 
d="M362 1335q-50 21 -80 21q-15 0 -24 -6q-40 -24 -30 -66q6 -31 -9 -54t-42 -22q-41 2 -45 42q-5 53 69 121q57 52 168 58q120 5 230 -55q196 -106 255 -71q41 23 31 67q-7 30 8 54q15 23 42 21q41 -2 45 -43q5 -51 -69 -119q-63 -58 -158 -74q-113 -19 -218 39
q-122 65 -173 87z" />
    <glyph glyph-name="hungarumlaut" unicode="&#x2dd;" horiz-adv-x="824" 
d="M482 1399q-68 -49 -96 -118l-70 -174q-22 -58 -80 -99q-51 -36 -102 -40l123 307q27 69 -1 120l16 39h224zM790 1399q-68 -49 -96 -118l-70 -174q-22 -58 -80 -99q-51 -36 -102 -40l123 307q28 69 0 120l15 39h224z" />
    <glyph glyph-name="uni0401" unicode="&#x401;" horiz-adv-x="969" 
d="M132 0h756v37l-3 4l-7 5l-15 15q-20 20 -34 40q-38 55 -38 133v40h-34q-24 -71 -52 -102q-39 -44 -106 -44h-194v404h57q80 0 116 -1q25 -1 30 -2q33 -5 58 -38q17 -22 4 -53q-12 -29 -1 -55q10 -25 37 -29q42 -5 54 37q14 51 -50 128q-110 131 -153 174q-35 36 -62 52
q-20 12 -33 12h-57v548h187l-3 -10q-29 -118 -23 -240q6 -120 74 -209q58 -77 137 -104q95 -33 138 -4q34 23 17 61q-12 24 -40 26t-51 -19q-33 -28 -73 -5q-34 20 -51 87q-21 75 -8 173q14 112 90 219q70 100 137 120v34h-804v-37q48 -50 48 -120v-443q0 -68 -45 -117
q45 -49 45 -117v-443q0 -70 -48 -120v-37zM365 1457q-57 0 -97 40t-40 97q0 56 40 96t97 40t97 -40t40 -96q0 -57 -40 -97t-97 -40zM844 1594q0 -57 -40 -97t-96 -40q-57 0 -97 40q-39 40 -39 97q0 55 39 96q40 40 97 40q56 0 96 -40t40 -96z" />
    <glyph glyph-name="uni0404" unicode="&#x404;" horiz-adv-x="958" 
d="M491 746q21 -21 50 -53q15 -7 30 -9q15 -3 28 2q12 4 18 11q16 22 3 53q-12 29 -2 54q12 26 38 29q42 5 54 -36q15 -52 -49 -128q-35 -42 -85 -98q-20 -22 -37 -41q-134 -124 -134 -254v-148h195q66 0 105 44q28 31 53 102h34v-40q0 -78 39 -133q12 -20 32 -40
q6 -5 15 -14v-1l7 -5l4 -4v-37h-757v37q48 50 48 120v449q-3 64 -45 111q45 49 45 117v443q0 70 -48 120v37h805v-34q-68 -20 -138 -120q-76 -7 -90 -119q-12 -98 8 -173q18 -67 51 -87q40 -23 73 5q24 21 51 19q28 -2 40 -27q18 -37 -16 -60q-43 -29 -139 4
q-78 27 -136 104q-68 88 -74 209q-5 122 23 140l2 10h-187v-318q0 -90 25 -150q19 -46 61 -91z" />
    <glyph glyph-name="uni0406" unicode="&#x406;" horiz-adv-x="473" 
d="M132 37q48 50 48 120v443q0 68 -45 117q45 48 45 117v443q0 70 -48 120v37h321v-37q-48 -50 -48 -120v-443q0 -68 45 -117q-45 -49 -45 -117v-443q0 -70 48 -120v-37h-321v37z" />
    <glyph glyph-name="uni0407" unicode="&#x407;" horiz-adv-x="473" 
d="M132 0h321v37q-48 50 -48 120v443q0 68 45 117q-45 49 -45 117v443q0 70 48 120v37h-321v-37q48 -50 48 -120v-443q0 -69 -45 -117q45 -49 45 -117v-443q0 -70 -48 -120v-37zM122 1457q-57 0 -97 40t-40 97q0 56 40 96t97 40t97 -40t40 -96q0 -57 -40 -97t-97 -40z
M601 1594q0 -57 -40 -97t-96 -40q-57 0 -97 40q-39 40 -39 97q0 55 39 96q40 40 97 40q56 0 96 -40t40 -96z" />
    <glyph glyph-name="uni040E" unicode="&#x40e;" horiz-adv-x="1074" 
d="M888 157q0 -69 47 -120v-37h-804v37q48 50 48 91v57q0 14 12 34q16 26 51 61q44 44 176 155q76 64 128 49q40 -13 36 -54q-3 -27 -29 -38q-25 -11 -55 2q-30 12 -52 -4q-34 -25 -39 -58l-1 -8v-22l-2 -117v-57h259v528h-9q-155 -13 -274 68q-95 55 -147 145
q-54 91 -54 203v205q0 70 -47 120v37h321v-37q-49 -50 -49 -120v-205q0 -126 84 -213q75 -80 166 -80q136 0 232 -64q103 -67 150 -200q33 -94 4 -138q-23 -33 -60 -16q-24 11 -27 38t17 51q29 36 7 74q-26 44 -76 77l-13 8v-452zM936 1397q-48 -50 -48 -121v-488
q-101 54 -225 56v432q0 71 -49 121v37h322v-37zM534 1457q-193 7 -246 170q-22 62 -3 89q15 22 39 11q16 -8 17 -25q2 -18 -11 -33q-19 -22 -4 -47q29 -49 83 -68q46 -17 125 -17t124 17q55 19 84 68q14 25 -4 47q-13 15 -12 33q1 17 17 25q24 11 39 -11q19 -27 -2 -89
q-54 -163 -246 -170z" />
    <glyph glyph-name="uni0410" unicode="&#x410;" horiz-adv-x="1089" 
d="M615 37q49 50 49 120v288l-7 1q-79 19 -146 67q-51 35 -91 87l-15 19v-462q0 -70 48 -120v-37h-321v37q48 50 48 120v443q0 68 -45 117q45 49 45 117v443q0 70 -48 120v37h804v-37q-48 -50 -48 -120v-636q-24 -8 -72 -8q-90 0 -152 88v584h-259v-608l108 108h38
q21 -81 80 -148q78 -90 185 -90q76 0 114 21q25 14 47 49q23 40 -5 73q-21 23 -19 51t26 40q38 17 61 -17q29 -43 -4 -138q-43 -128 -143 -179l-5 -3v-307q0 -70 48 -120v-37h-321v37z" />
    <glyph glyph-name="uni0411" unicode="&#x411;" horiz-adv-x="1090" 
d="M1054 1397l-3 -4l-7 -5v-1q-9 -8 -15 -14q-20 -20 -33 -40q-39 -55 -39 -133v-40h-33q-25 71 -53 102q-39 44 -106 44h-243v-259h10q210 0 342 -118q132 -116 132 -299v-473q0 -70 48 -120v-37l-804 1v37q48 49 48 119v641q64 59 224 61v-26q0 -68 46 -117
q-46 -50 -46 -117v-470h259v501q0 126 -82 214q-77 80 -167 80q-124 0 -195 -26q-83 -31 -128 -105q-23 -40 5 -73q21 -24 19 -51q-2 -28 -26 -40q-38 -18 -62 17q-29 44 5 138q45 128 144 196l4 2v295q0 69 -48 120v36h804v-36z" />
    <glyph glyph-name="uni0412" unicode="&#x412;" horiz-adv-x="1073" 
d="M781 362q0 126 -84 213q-75 81 -166 81h-9v-528h259v234zM249 37q48 51 48 120v452l-13 -8q-50 -32 -76 -77q-22 -38 7 -74q20 -24 17 -51t-27 -38q-37 -18 -60 16q-29 44 4 138q47 133 150 200q96 64 232 64q91 0 166 80q84 88 84 213v233h-259v-461q-124 -2 -225 -56
v488q0 71 -48 121v37h804v-37q-47 -50 -47 -121v-204q0 -112 -54 -203q-52 -90 -147 -145l-12 -7l12 -7q94 -55 147 -145q54 -91 54 -203v-205q0 -69 47 -120v-37h-804v37z" />
    <glyph glyph-name="uni0413" unicode="&#x413;" horiz-adv-x="969" 
d="M132 1434h804v-34q-67 -19 -137 -119q-76 -108 -90 -220q-13 -98 8 -173q17 -67 51 -87q40 -24 73 6q23 20 51 18t40 -27q17 -37 -16 -59q-44 -29 -139 3q-79 26 -137 103q-68 90 -74 211t23 239l3 11h-187v-472q0 -68 45 -117q-45 -49 -45 -116v-444q0 -70 49 -120v-37
h-322v37q48 50 48 120v444q0 67 -45 116q45 49 45 117v443q0 70 -48 120v37z" />
    <glyph glyph-name="uni0414" unicode="&#x414;" horiz-adv-x="1073" 
d="M1000 5q0 -70 49 -120v-37h-322v37q46 48 48 115h-485q1 -67 49 -115v-37h-322v37q48 50 48 120v148h114v447q0 68 -45 117q45 49 45 116v400q64 59 225 60v-460q0 -67 45 -116q-45 -49 -45 -117v-447h259v447q0 68 -46 117q46 48 46 116v232q0 126 -84 213
q-75 81 -166 81q-123 0 -194 -26q-84 -31 -129 -105q-23 -39 6 -73q20 -24 18 -52q-2 -27 -26 -38h-1q-37 -19 -60 16q-29 43 4 138q47 132 150 200q96 63 232 63q210 0 343 -118q132 -117 132 -299v-232q0 -67 44 -116q-44 -49 -44 -117v-447h112v-148z" />
    <glyph glyph-name="uni0415" unicode="&#x415;" horiz-adv-x="969" 
d="M132 37q48 50 48 120v443q0 68 -45 117q45 49 45 117v443q0 70 -48 120v37h804v-34q-67 -20 -137 -120q-76 -107 -90 -219q-13 -98 8 -173q17 -67 51 -87q40 -23 73 5q23 21 51 19t40 -26q17 -38 -17 -61q-43 -29 -138 4q-79 27 -137 104q-68 89 -74 209q-6 122 23 240
l3 10h-187v-548h57q13 0 33 -12q27 -16 62 -52q43 -43 153 -174q64 -77 50 -128q-12 -42 -54 -37q-27 4 -37 29q-11 26 1 55q13 31 -4 53q-25 33 -58 38q-5 1 -30 2q-36 1 -116 1h-57v-404h194q67 0 106 44q28 31 52 102h34v-40q0 -78 38 -133q14 -20 34 -40l15 -15l7 -5
l3 -4v-37h-756v37z" />
    <glyph glyph-name="uni0416" unicode="&#x416;" horiz-adv-x="1439" 
d="M1063 859q84 87 84 213v205q0 70 -49 120v37h321v-37q-47 -50 -47 -120v-205q0 -112 -54 -203q-52 -90 -147 -145l-12 -7l12 -7q95 -56 147 -145q54 -91 54 -203v-205q0 -70 47 -120v-37h-321v37q49 50 49 120v205q0 126 -84 213q-66 71 -110 84q-45 13 -164 15
q-62 2 -144 -8q-82 -11 -157 -91q-84 -87 -84 -213v-205q0 -70 49 -120v-37h-321v37q47 50 47 120v205q0 112 54 203q52 90 147 145l12 7l-12 7q-95 56 -147 145q-54 91 -54 203v205q0 70 -47 120v37h321v-37q-49 -50 -49 -120v-205q0 -126 84 -213q66 -71 111 -84
q44 -13 163 -15q62 -2 144 9q82 10 157 90zM936 0h-322v37q49 50 49 121v488q113 -54 225 0v-488q0 -71 48 -121v-37zM615 1434h322v-37q-49 -50 -49 -121v-488q-112 54 -225 0v488q0 71 -48 121v37z" />
    <glyph glyph-name="uni0417" unicode="&#x417;" horiz-adv-x="958" 
d="M181 37l4 4l7 5v1q9 9 15 14q20 20 32 40q39 55 39 133v40h34q25 -71 53 -102q39 -44 105 -44h195v148q0 130 -83 214q-45 44 -85 50q-15 3 -28 -2q-12 -4 -18 -11q-16 -22 -3 -53q12 -29 2 -54q-12 -26 -38 -29q-42 -5 -54 36q-15 52 49 128q35 42 85 98q53 59 87 93
q42 45 61 91q25 60 25 150v318h-187l2 -10q28 -118 23 -240q-6 -121 -74 -209q-58 -77 -136 -104q-96 -33 -139 -4q-34 23 -16 60q12 25 40 27q27 2 51 -19q33 -28 73 -5q33 20 51 87q20 75 8 173q-14 112 -90 219q-70 100 -138 120v34h805v-37q-48 -50 -48 -120v-290
q0 -112 -54 -204q-51 -89 -146 -145l-13 -7l13 -7q95 -55 146 -144q54 -92 54 -204v-119q0 -70 48 -120v-37h-757v37z" />
    <glyph glyph-name="uni0418" unicode="&#x418;" horiz-adv-x="1304" 
d="M963 37q48 50 48 120v443q0 68 -45 117q45 49 45 116v380l-11 -5q-127 -47 -208 -156q-88 -119 -108 -296q-4 -42 -5 -86q1 -78 -16 -141q-9 -38 -24 -67q-69 135 -63 301q13 360 265 537q188 132 443 134v-37q-48 -50 -48 -120v-444q0 -67 45 -116q-45 -49 -45 -117
v-443q0 -70 48 -120v-37h-321v37zM786 308q-11 3 -24 10q18 19 36 43q31 -9 53 10q23 21 51 19t39 -26q18 -38 -17 -61q-43 -29 -138 5zM654 1116q-18 -19 -36 -43q-31 9 -53 -10q-23 -21 -51 -19t-39 26q-18 38 17 61q43 29 138 -5q11 -3 24 -10zM453 1397
q-48 -50 -48 -120v-443q0 -68 45 -117q-45 -49 -45 -116v-380l11 5q127 47 208 156q88 119 108 296q4 42 5 86q-1 78 16 141q9 38 24 67q69 -135 63 -301q-13 -360 -265 -537q-188 -132 -443 -134v37q48 50 48 120v444q0 67 -45 116q45 49 45 117v443q0 70 -48 120v37h321
v-37z" />
    <glyph glyph-name="uni0419" unicode="&#x419;" horiz-adv-x="1304" 
d="M709 1457q-193 7 -246 170q-22 62 -3 89q15 22 39 11q16 -8 17 -25q2 -18 -11 -33q-19 -22 -4 -47q29 -49 83 -68q46 -17 125 -17t124 17q55 19 84 68q14 25 -4 47q-13 15 -12 33q1 17 17 25q24 11 39 -11q19 -27 -2 -89q-54 -163 -246 -170zM453 1397q-48 -50 -48 -120
v-443q0 -68 45 -117q-45 -49 -45 -116v-380l11 5q127 47 208 156q88 119 108 296q4 42 5 86q-1 78 16 141q9 38 24 67q69 -135 63 -301q-13 -360 -265 -537q-188 -132 -443 -134v37q48 50 48 120v444q0 67 -45 116q45 49 45 117v443q0 70 -48 120v37h321v-37zM654 1116
q-18 -19 -36 -43q-31 9 -53 -10q-23 -21 -51 -19t-39 26q-18 38 17 61q43 29 138 -5q11 -3 24 -10zM762 318q18 19 36 43q31 -9 53 10q23 21 51 19t39 -26q18 -38 -17 -61q-43 -29 -138 5q-11 3 -24 10zM963 37q48 50 48 120v443q0 68 -45 117q45 49 45 116v380l-11 -5
q-127 -47 -208 -156q-88 -119 -108 -296q-4 -42 -5 -86q1 -78 -16 -141q-9 -38 -24 -67q-69 135 -63 301q13 360 265 537q188 132 443 134v-37q-48 -50 -48 -120v-444q0 -67 45 -116q-45 -49 -45 -117v-443q0 -70 48 -120v-37h-321v37z" />
    <glyph glyph-name="uni041A" unicode="&#x41a;" horiz-adv-x="1073" 
d="M732 37q49 50 49 120v205q0 126 -84 213q-75 81 -166 81h-9v-499q0 -70 49 -120v-37h-322v37q48 50 48 120v452l-13 -8q-50 -33 -76 -77q-22 -38 7 -74q20 -24 17 -51t-27 -38q-37 -17 -60 16q-29 44 4 138q47 133 150 200q96 64 232 64q91 0 166 80q84 87 84 213v205
q0 70 -49 120v37h321v-37q-47 -50 -47 -120v-205q0 -112 -54 -203q-52 -90 -147 -145l-12 -7l12 -7q95 -56 147 -145q54 -91 54 -203v-205q0 -70 47 -120v-37h-321v37zM249 1434h322v-37q-49 -50 -49 -121v-432q-124 -2 -225 -56v488q0 71 -48 121v37z" />
    <glyph glyph-name="uni041B" unicode="&#x41b;" 
d="M373 1434h321v-37q-24 -28 -22 -65q1 -39 30 -66q89 -82 131 -143q56 -82 56 -164v-125q0 -68 44 -117q-44 -49 -44 -116v-444q0 -70 47 -120v-37h-321v37q49 50 49 120v444q0 67 -46 116q46 49 46 117v125q0 97 -124 218l-6 6l-6 -6q-123 -121 -123 -218v-125
q0 -68 45 -117q-45 -49 -45 -116v-444q0 -70 48 -120v-37h-321v37q48 50 48 120v444q0 67 -45 116q45 49 45 117v125q0 82 55 164q41 61 131 143q28 27 30 66q2 38 -23 65v37z" />
    <glyph glyph-name="uni041C" unicode="&#x41c;" horiz-adv-x="1295" 
d="M954 37q48 50 48 120v443q0 68 -45 117q45 49 45 116v380l-11 -5q-127 -47 -208 -156q-88 -119 -108 -296q-4 -42 -5 -86q1 -78 -16 -141q-9 -38 -24 -67q-69 135 -63 301q13 360 265 537q188 132 443 134v-37q-48 -50 -48 -120v-444q0 -67 45 -116q-45 -49 -45 -117
v-443q0 -70 48 -120v-37h-321v37zM132 37q48 50 48 120v448q-2 65 -44 112q42 46 44 111v449q0 70 -48 120v37q139 -1 269 -47q159 -55 263 -164q-50 -61 -82 -128q-77 80 -166 113l-11 5v-380q0 -67 45 -116q-45 -49 -45 -117v-443q0 -71 48 -120v-37h-321v37zM519 390
q25 0 47 -19q33 -28 72 -5q35 21 63 95q36 93 35 217q0 39 4 72q13 120 67 216q28 -97 33 -203q6 -171 -68 -310q-64 -119 -143 -146q-95 -33 -138 -4q-34 23 -16 61q12 24 39 26h5zM777 308q-11 3 -24 10q18 19 36 43q31 -9 53 10q23 21 51 19t39 -26q18 -38 -17 -61
q-43 -29 -138 5z" />
    <glyph glyph-name="uni041D" unicode="&#x41d;" horiz-adv-x="1089" 
d="M615 37q49 50 49 120v288l-7 1q-79 19 -146 67q-50 35 -91 87l-15 19v-462q0 -70 49 -120v-37h-322v37q48 50 48 120v443q0 68 -45 117q45 48 45 117v443q0 70 -48 120v37h322v-37q-49 -50 -49 -120v-580l108 108h38q21 -81 80 -148q78 -90 185 -90q77 0 114 21
q25 14 47 49q23 40 -5 73q-21 23 -19 51t26 40q38 17 61 -17q29 -43 -4 -138q-43 -128 -143 -179l-4 -3v-307q0 -70 47 -120v-37h-321v37zM664 1277q0 70 -49 120v37h321v-37q-48 -50 -48 -120v-636q-24 -8 -72 -8q-90 0 -152 89v555z" />
    <glyph glyph-name="uni041E" unicode="&#x41e;" 
d="M663 600q0 68 -45 117q45 48 45 117v471h-258v-471q0 -69 45 -117q-45 -49 -45 -117v-472h258v472zM132 37q48 50 48 120v443q0 68 -45 117q45 49 45 117v443q0 70 -48 120v37h804v-37q-48 -50 -48 -120v-443q0 -68 45 -117q-45 -49 -45 -117v-443q0 -69 48 -120v-37
h-804v37z" />
    <glyph glyph-name="uni041F" unicode="&#x41f;" 
d="M132 1434h804v-37q-47 -51 -47 -120v-443q0 -68 44 -117q-44 -49 -44 -117v-443q0 -70 47 -120v-37h-321v37q49 50 49 120v443q0 68 -46 117q46 49 46 117v472h-259v-472q0 -68 45 -117q-45 -49 -45 -117v-443q0 -70 48 -120v-37h-321v37q48 50 48 120v443q0 68 -45 117
q45 49 45 117v443q0 69 -48 120v37z" />
    <glyph glyph-name="uni0420" unicode="&#x420;" horiz-adv-x="1074" 
d="M249 37q48 50 48 120v247l-4 3q-99 67 -144 195q-33 95 -4 138q23 34 60 16q25 -11 27 -38q2 -28 -18 -52q-29 -34 -6 -73q45 -75 129 -105q71 -26 194 -26q91 0 166 80q84 88 84 214v549h-259v-472q0 -67 45 -116q-45 -49 -45 -117v-74q-161 2 -225 61v690q0 70 -48 119
v37l805 1v-37q-48 -50 -48 -120v-521q0 -183 -132 -300q-133 -118 -343 -118h-9v-181q0 -70 49 -120v-37h-322v37z" />
    <glyph glyph-name="uni0421" unicode="&#x421;" horiz-adv-x="969" 
d="M132 37q48 51 48 120v443q0 68 -45 117q45 49 45 117v443q0 70 -48 120v37h804v-34q-67 -20 -137 -120q-76 -106 -90 -219q-13 -98 8 -173q17 -67 51 -87q40 -23 73 5q23 21 51 19t40 -26q17 -38 -17 -61q-43 -29 -138 4q-79 27 -137 104q-68 89 -74 209q-6 122 23 240
l3 10h-187v-471q0 -68 45 -117q-45 -49 -45 -117v-472h242q67 0 106 44q29 31 53 102h34v-40q0 -78 38 -133q13 -20 33 -40l14 -14l8 -6l3 -4v-37h-804v37z" />
    <glyph glyph-name="uni0422" unicode="&#x422;" horiz-adv-x="1162" 
d="M422 37q48 50 48 120v444q-1 67 -45 116q44 48 45 116v472h-48q-68 0 -107 -42q-28 -31 -53 -103h-33v41q0 76 -39 133q-13 19 -33 38q-7 8 -15 15l-10 10v37h998v-34q-67 -20 -138 -120q-76 -107 -90 -219q-12 -98 8 -173q18 -67 51 -87q40 -23 73 5q24 21 51 19
q28 -2 40 -26q17 -38 -16 -61q-43 -29 -139 4q-78 27 -136 104q-68 89 -74 209q-5 122 23 240l2 10h-91l1 -472q0 -68 45 -116q-45 -49 -45 -117l-1 -443q0 -70 49 -120v-37h-321v37z" />
    <glyph glyph-name="uni0423" unicode="&#x423;" horiz-adv-x="1073" 
d="M887 157q0 -69 47 -120v-37h-804v37q48 50 48 91v57q0 14 12 34q16 26 51 61q44 44 176 155q76 64 128 49q40 -13 36 -54q-3 -27 -29 -38q-25 -11 -55 2q-30 12 -52 -4q-34 -25 -39 -58l-1 -8v-22l-2 -117v-57h259v528h-9q-155 -13 -274 68q-95 55 -147 145
q-54 91 -54 203v205q0 70 -47 120v37h321v-37q-49 -50 -49 -120v-205q0 -126 84 -213q75 -80 166 -80q136 0 232 -64q103 -67 150 -200q33 -94 4 -138q-23 -33 -60 -16q-24 11 -27 38t17 51q29 36 7 74q-26 44 -76 77l-13 8v-452zM935 1397q-48 -50 -48 -121v-488
q-101 54 -225 56v432q0 71 -49 121v37h322v-37z" />
    <glyph glyph-name="uni0424" unicode="&#x424;" horiz-adv-x="1344" 
d="M1324 608q0 -183 -132 -300q-133 -118 -343 -118h-8v-33q0 -70 48 -120v-37h-322v37l2 2q46 49 46 118v33h-8q-210 0 -343 118q-132 117 -132 300v219q0 183 132 300q133 118 343 118h8v32q0 70 -48 120v37h322v-37q-48 -50 -48 -120v-32h8q210 0 343 -118
q132 -117 132 -300v-219zM616 1077q-56 -31 -90 -87q-23 -39 6 -73q20 -24 18 -52q-2 -27 -27 -38q-37 -18 -60 16q-29 43 4 138q26 73 69 127q-50 -19 -95 -67q-84 -88 -84 -214v-219q0 -126 84 -214q45 -48 96 -68q-44 54 -70 128q-33 95 -4 138q23 34 60 16
q25 -11 27 -38q2 -28 -18 -52q-29 -34 -6 -73q34 -57 90 -88v249q-3 64 -45 111q42 46 45 109v251zM841 833q0 -67 45 -116q-43 -47 -45 -111v-248q55 31 89 87q23 39 -6 73q-20 24 -18 52q2 27 27 38q37 18 60 -16q29 -43 -4 -138q-26 -74 -70 -127q51 19 96 67
q80 83 84 201v244q-4 118 -84 202q-45 48 -96 67q44 -54 70 -127q33 -95 4 -138q-23 -34 -60 -16q-25 11 -27 38q-2 28 18 52q29 34 6 73q-34 56 -89 87v-244z" />
    <glyph glyph-name="uni0425" unicode="&#x425;" 
d="M615 37q49 50 49 120v173q0 122 -124 254l-6 7l-6 -7q-123 -130 -123 -254v-173q0 -70 48 -120v-37h-321v37q48 50 48 120v173q0 113 73 220q52 73 166 176l88 80q49 45 79 79q78 90 78 170v222q0 70 -49 120v37h321v-37q-48 -50 -48 -120v-222q0 -89 -66 -179
q-45 -60 -152 -157l-7 -6l7 -6q103 -96 152 -169q66 -101 66 -208v-173q0 -71 48 -120v-37h-321v37zM132 1434h321v-37q-48 -50 -48 -121v-221q0 -82 84 -177q-31 -30 -80 -74l-52 -48q-84 79 -123 137q-54 82 -54 162v221q0 71 -48 121v37z" />
    <glyph glyph-name="uni0426" unicode="&#x426;" horiz-adv-x="1074" 
d="M179 600q0 68 -45 117q45 49 45 117v443q0 70 -47 120v37h321v-37q-49 -50 -49 -120v-443q0 -69 45 -117q-43 -47 -45 -111v-143q0 -126 84 -213q75 -80 166 -80q136 0 232 -64q103 -67 150 -200q33 -94 4 -138q-23 -33 -60 -16q-24 11 -27 38t17 51q29 36 7 74
q-26 44 -76 77l-13 8h-274v37l8 8q-136 -3 -242 70q-95 55 -147 145q-54 91 -54 203v137zM936 1397q-48 -50 -48 -121v-442q0 -68 45 -117q-43 -47 -45 -111v-427q-101 54 -225 56v365q0 68 -45 117q45 48 45 117v442q0 71 -49 121v37h322v-37z" />
    <glyph glyph-name="uni0427" unicode="&#x427;" horiz-adv-x="1074" 
d="M654 656q-155 -13 -274 68q-95 55 -147 145q-54 91 -54 203v205q0 70 -47 120v37h321v-37q-49 -50 -49 -120v-205q0 -126 84 -213q75 -80 166 -80q136 0 232 -64q103 -67 150 -200q33 -94 4 -138q-23 -33 -60 -16q-24 11 -27 38t17 51q29 36 7 74q-26 44 -76 77l-13 8
v-452q0 -70 48 -120v-37h-322v37q49 50 49 120v499h-9zM936 1397q-48 -50 -48 -121v-488q-101 54 -225 56v432q0 71 -49 121v37h322v-37z" />
    <glyph glyph-name="uni0428" unicode="&#x428;" horiz-adv-x="1440" 
d="M1419 0h-321v37q4 4 7 8q-84 -2 -209 57q11 -36 40 -65v-37h-322v37q4 4 7 8q-135 -3 -241 70q-95 55 -147 145q-54 91 -54 203v137q0 68 -45 117q45 49 45 117v443q0 70 -47 120v37h321v-37q-49 -50 -49 -120v-443q0 -69 45 -117q-43 -47 -45 -111v-143q0 -126 84 -213
q75 -80 166 -80q99 0 176 -34q-71 50 -113 124q-51 85 -54 190v150q0 68 -46 117q46 49 46 117v202q0 13 12 33q15 27 51 62q43 45 175 154q77 64 128 49q41 -12 36 -54q-3 -26 -29 -37t-55 2q-30 12 -53 -4q-33 -26 -38 -58v-1q-2 -13 -2 -146v-202q0 -68 44 -117
q-44 -49 -44 -117v-150q4 -118 84 -200q75 -80 166 -80h9v430q0 68 -45 117q45 48 45 117v442q0 71 -49 121v37h322v-37q-48 -50 -48 -121v-442q0 -68 45 -117q-45 -49 -45 -117v-450q2 -66 47 -113v-37z" />
    <glyph glyph-name="uni0429" unicode="&#x429;" horiz-adv-x="1558" 
d="M888 450q4 -118 84 -200q75 -80 166 -80q136 0 232 -64q103 -67 150 -200q33 -94 4 -138q-23 -33 -60 -16q-24 11 -27 38t17 51q29 36 7 74q-26 44 -76 77l-13 8h-274v37l8 8q-84 -2 -210 57q11 -36 40 -65v-37h-322v37l1 1q3 3 6 7q-135 -3 -241 70q-95 55 -147 145
q-54 91 -54 203v137q0 68 -45 117q45 49 45 117v443q0 70 -47 120v37h321v-37q-49 -50 -49 -120v-443q0 -69 45 -117q-43 -47 -45 -111v-143q0 -126 84 -213q75 -80 166 -80q99 0 176 -34q-71 50 -113 124q-51 85 -54 190v150q0 68 -46 117q46 49 46 117v202q0 13 12 33
q15 27 51 62q43 45 175 154q77 64 128 49q41 -12 36 -54q-3 -26 -29 -37t-55 2q-30 12 -53 -4q-33 -26 -38 -58v-1q-2 -13 -2 -146v-202q0 -68 44 -117q-44 -49 -44 -117v-150zM1420 1397q-48 -50 -48 -121v-442q0 -68 45 -117q-45 -49 -45 -117v-421q-101 54 -225 56v365
q0 68 -45 117q45 48 45 117v442q0 71 -49 121v37h322v-37z" />
    <glyph glyph-name="uni042A" unicode="&#x42a;" horiz-adv-x="1267" 
d="M764 1434v-37q-49 -50 -49 -120v-181h9q210 0 343 -118q132 -117 132 -300v-521q0 -70 48 -120v-37l-805 1v37q48 49 48 119v690q64 59 225 61v-74q0 -68 45 -117q-45 -49 -45 -116v-472h259v549q0 126 -84 214q-75 80 -166 80q-123 0 -194 -26q-84 -30 -129 -105
q-23 -39 6 -73q20 -24 18 -52q-2 -27 -27 -38q-37 -18 -60 16q-29 43 4 138q45 128 144 195l4 3v247q0 14 -2 28h-67q-66 0 -105 -42q-29 -31 -54 -103h-33v41q0 76 -39 133q-13 19 -32 38l-16 15l-10 10v37h632z" />
    <glyph glyph-name="uni042B" unicode="&#x42b;" horiz-adv-x="1416" 
d="M250 1434h322v-37q-49 -50 -49 -120v-181h9q210 0 343 -118q132 -117 132 -300v-521q0 -70 48 -120v-37l-805 1v37q48 49 48 119v690q64 59 225 61v-74q0 -68 45 -117q-45 -49 -45 -116v-472h259v549q0 126 -84 214q-75 80 -166 80q-123 0 -194 -26q-84 -30 -129 -105
q-23 -39 6 -73q20 -24 18 -52q-2 -27 -27 -38q-37 -18 -60 16q-29 43 4 138q45 128 144 195l4 3v247q0 70 -48 120v37zM1075 37q48 50 48 120v443q0 68 -45 117q45 48 45 117v443q0 70 -48 120v37h321v-37q-48 -50 -48 -120v-443q0 -68 45 -117q-45 -49 -45 -117v-443
q0 -70 48 -120v-37h-321v37z" />
    <glyph glyph-name="uni042C" unicode="&#x42c;" horiz-adv-x="1075" 
d="M250 1434h322v-37q-49 -50 -49 -120v-181h9q210 0 343 -118q132 -117 132 -300v-521q0 -70 48 -120v-37l-805 1v37q48 49 48 119v690q64 59 225 61v-74q0 -68 45 -117q-45 -49 -45 -116v-472h259v549q0 126 -84 214q-75 80 -166 80q-123 0 -194 -26q-84 -30 -129 -105
q-23 -39 6 -73q20 -24 18 -52q-2 -27 -27 -38q-37 -18 -60 16q-29 43 4 138q45 128 144 195l4 3v247q0 70 -48 120v37z" />
    <glyph glyph-name="uni042D" unicode="&#x42d;" horiz-adv-x="958" 
d="M181 37l4 4l7 5v1q9 9 15 14q20 20 32 40q39 55 39 133v40h34q25 -71 53 -102q39 -44 105 -44h195v148q0 130 -83 214q-45 44 -85 50q-15 3 -28 -2q-12 -4 -18 -11q-16 -22 -3 -53q12 -29 2 -54q-12 -26 -38 -29q-42 -5 -54 36q-15 52 49 128q35 42 85 98q53 59 87 93
q42 45 61 91q25 60 25 150v318h-187l2 -10q28 -118 23 -240q-6 -121 -74 -209q-58 -77 -136 -104q-96 -33 -139 -4q-34 23 -16 60q12 25 40 27q27 2 51 -19q33 -28 73 -5q33 20 51 87q20 75 8 173q-14 112 -90 219q-70 100 -138 120v34h805v-37q-48 -50 -48 -120v-443
q0 -68 45 -117q-45 -49 -45 -117v-443q0 -70 48 -120v-37h-757v37z" />
    <glyph glyph-name="uni042E" unicode="&#x42e;" horiz-adv-x="1443" 
d="M664 1277q0 70 -49 120v37h808v-37q-16 -17 -27 -35q-4 -5 -6 -11l-8 -18q0 -2 -1 -4q-1 -4 -2 -9l-2 -6q0 -4 -1 -7q0 -3 -1 -6v-4q-1 -3 -1 -6v-457q0 -68 45 -117q-45 -49 -45 -117v-443q0 -36 12 -66q1 -1 1 -3q4 -9 10 -18q11 -18 26 -33v-37h-808v37q49 50 49 120
v288l-7 1q-177 16 -252 52v-341q0 -70 49 -120v-37h-322v37q48 50 48 120v443q0 68 -45 117q45 48 45 117v443q0 70 -48 120v37h322v-37q-49 -50 -49 -120v-472h16q21 -81 80 -148q78 -90 185 -90q207 0 244 21q25 14 47 49q23 40 -5 73q-21 23 -19 51t26 40q38 17 61 -17
q29 -43 -4 -138q-43 -128 -143 -179l-4 -3v-307q0 -15 2 -29h256q2 14 2 29v443q0 68 -45 117q45 48 45 117v443q0 14 -2 28h-256v5q-3 -16 -3 -33v-636q-24 -8 -72 -8q-90 0 -152 89v555z" />
    <glyph glyph-name="uni042F" unicode="&#x42f;" horiz-adv-x="1074" 
d="M453 0h-321v37q47 49 47 120v205q0 112 54 203q52 89 147 145l12 7l-12 7q-95 55 -147 145q-54 91 -54 203v205q0 70 -47 120v37h804v-37q-48 -50 -48 -120v-489q-101 54 -225 56v461h-259v-233q0 -126 84 -213q75 -80 166 -80q136 0 232 -64q103 -67 150 -200
q33 -94 4 -138q-23 -33 -60 -16q-25 12 -27 39t18 52q30 33 6 72q-26 43 -76 77l-13 9v-453q0 -70 48 -120v-37h-322v37q49 50 49 120v499h-9q-91 0 -166 -81q-84 -87 -84 -213v-205q0 -69 49 -120v-37z" />
    <glyph glyph-name="uni0430" unicode="&#x430;" horiz-adv-x="1089" 
d="M615 37q49 50 49 120v288l-7 1q-79 19 -146 67q-51 35 -91 87l-15 19v-462q0 -70 48 -120v-37h-321v37q48 50 48 120v443q0 68 -45 117q45 49 45 117v443q0 70 -48 120v37h804v-37q-48 -50 -48 -120v-636q-24 -8 -72 -8q-90 0 -152 88v584h-259v-608l108 108h38
q21 -81 80 -148q78 -90 185 -90q76 0 114 21q25 14 47 49q23 40 -5 73q-21 23 -19 51t26 40q38 17 61 -17q29 -43 -4 -138q-43 -128 -143 -179l-5 -3v-307q0 -70 48 -120v-37h-321v37z" />
    <glyph glyph-name="uni0431" unicode="&#x431;" horiz-adv-x="1090" 
d="M1054 1397l-3 -4l-7 -5v-1q-9 -8 -15 -14q-20 -20 -33 -40q-39 -55 -39 -133v-40h-33q-25 71 -53 102q-39 44 -106 44h-243v-259h10q210 0 342 -118q132 -116 132 -299v-473q0 -70 48 -120v-37l-804 1v37q48 49 48 119v641q64 59 224 61v-26q0 -68 46 -117
q-46 -50 -46 -117v-470h259v501q0 126 -82 214q-77 80 -167 80q-124 0 -195 -26q-83 -31 -128 -105q-23 -40 5 -73q21 -24 19 -51q-2 -28 -26 -40q-38 -18 -62 17q-29 44 5 138q45 128 144 196l4 2v295q0 69 -48 120v36h804v-36z" />
    <glyph glyph-name="uni0432" unicode="&#x432;" horiz-adv-x="1073" 
d="M781 362q0 126 -84 213q-75 81 -166 81h-9v-528h259v234zM249 37q48 51 48 120v452l-13 -8q-50 -32 -76 -77q-22 -38 7 -74q20 -24 17 -51t-27 -38q-37 -18 -60 16q-29 44 4 138q47 133 150 200q96 64 232 64q91 0 166 80q84 88 84 213v233h-259v-461q-124 -2 -225 -56
v488q0 71 -48 121v37h804v-37q-47 -50 -47 -121v-204q0 -112 -54 -203q-52 -90 -147 -145l-12 -7l12 -7q94 -55 147 -145q54 -91 54 -203v-205q0 -69 47 -120v-37h-804v37z" />
    <glyph glyph-name="uni0433" unicode="&#x433;" horiz-adv-x="969" 
d="M132 1434h804v-34q-67 -19 -137 -119q-76 -108 -90 -220q-13 -98 8 -173q17 -67 51 -87q40 -24 73 6q23 20 51 18t40 -27q17 -37 -16 -59q-44 -29 -139 3q-79 26 -137 103q-68 90 -74 211t23 239l3 11h-187v-472q0 -68 45 -117q-45 -49 -45 -116v-444q0 -70 49 -120v-37
h-322v37q48 50 48 120v444q0 67 -45 116q45 49 45 117v443q0 70 -48 120v37z" />
    <glyph glyph-name="uni0434" unicode="&#x434;" horiz-adv-x="1073" 
d="M1000 5q0 -70 49 -120v-37h-322v37q46 48 48 115h-485q1 -67 49 -115v-37h-322v37q48 50 48 120v148h114v447q0 68 -45 117q45 49 45 116v400q64 59 225 60v-460q0 -67 45 -116q-45 -49 -45 -117v-447h259v447q0 68 -46 117q46 48 46 116v232q0 126 -84 213
q-75 81 -166 81q-123 0 -194 -26q-84 -31 -129 -105q-23 -39 6 -73q20 -24 18 -52q-2 -27 -26 -38h-1q-37 -19 -60 16q-29 43 4 138q47 132 150 200q96 63 232 63q210 0 343 -118q132 -117 132 -299v-232q0 -67 44 -116q-44 -49 -44 -117v-447h112v-148z" />
    <glyph glyph-name="uni0435" unicode="&#x435;" horiz-adv-x="969" 
d="M132 37q48 50 48 120v443q0 68 -45 117q45 49 45 117v443q0 70 -48 120v37h804v-34q-67 -20 -137 -120q-76 -107 -90 -219q-13 -98 8 -173q17 -67 51 -87q40 -23 73 5q23 21 51 19t40 -26q17 -38 -17 -61q-43 -29 -138 4q-79 27 -137 104q-68 89 -74 209q-6 122 23 240
l3 10h-187v-548h57q13 0 33 -12q27 -16 62 -52q43 -43 153 -174q64 -77 50 -128q-12 -42 -54 -37q-27 4 -37 29q-11 26 1 55q13 31 -4 53q-25 33 -58 38q-5 1 -30 2q-36 1 -116 1h-57v-404h194q67 0 106 44q28 31 52 102h34v-40q0 -78 38 -133q14 -20 34 -40l15 -15l7 -5
l3 -4v-37h-756v37z" />
    <glyph glyph-name="uni0436" unicode="&#x436;" horiz-adv-x="1439" 
d="M1063 859q84 87 84 213v205q0 70 -49 120v37h321v-37q-47 -50 -47 -120v-205q0 -112 -54 -203q-52 -90 -147 -145l-12 -7l12 -7q95 -56 147 -145q54 -91 54 -203v-205q0 -70 47 -120v-37h-321v37q49 50 49 120v205q0 126 -84 213q-66 71 -110 84q-45 13 -164 15
q-62 2 -144 -8q-82 -11 -157 -91q-84 -87 -84 -213v-205q0 -70 49 -120v-37h-321v37q47 50 47 120v205q0 112 54 203q52 90 147 145l12 7l-12 7q-95 56 -147 145q-54 91 -54 203v205q0 70 -47 120v37h321v-37q-49 -50 -49 -120v-205q0 -126 84 -213q66 -71 111 -84
q44 -13 163 -15q62 -2 144 9q82 10 157 90zM936 0h-322v37q49 50 49 121v488q113 -54 225 0v-488q0 -71 48 -121v-37zM615 1434h322v-37q-49 -50 -49 -121v-488q-112 54 -225 0v488q0 71 -48 121v37z" />
    <glyph glyph-name="uni0437" unicode="&#x437;" horiz-adv-x="958" 
d="M181 37l4 4l7 5v1q9 9 15 14q20 20 32 40q39 55 39 133v40h34q25 -71 53 -102q39 -44 105 -44h195v148q0 130 -83 214q-45 44 -85 50q-15 3 -28 -2q-12 -4 -18 -11q-16 -22 -3 -53q12 -29 2 -54q-12 -26 -38 -29q-42 -5 -54 36q-15 52 49 128q35 42 85 98q53 59 87 93
q42 45 61 91q25 60 25 150v318h-187l2 -10q28 -118 23 -240q-6 -121 -74 -209q-58 -77 -136 -104q-96 -33 -139 -4q-34 23 -16 60q12 25 40 27q27 2 51 -19q33 -28 73 -5q33 20 51 87q20 75 8 173q-14 112 -90 219q-70 100 -138 120v34h805v-37q-48 -50 -48 -120v-290
q0 -112 -54 -204q-51 -89 -146 -145l-13 -7l13 -7q95 -55 146 -144q54 -92 54 -204v-119q0 -70 48 -120v-37h-757v37z" />
    <glyph glyph-name="uni0438" unicode="&#x438;" horiz-adv-x="1304" 
d="M963 37q48 50 48 120v443q0 68 -45 117q45 49 45 116v380l-11 -5q-127 -47 -208 -156q-88 -119 -108 -296q-4 -42 -5 -86q1 -78 -16 -141q-9 -38 -24 -67q-69 135 -63 301q13 360 265 537q188 132 443 134v-37q-48 -50 -48 -120v-444q0 -67 45 -116q-45 -49 -45 -117
v-443q0 -70 48 -120v-37h-321v37zM786 308q-11 3 -24 10q18 19 36 43q31 -9 53 10q23 21 51 19t39 -26q18 -38 -17 -61q-43 -29 -138 5zM654 1116q-18 -19 -36 -43q-31 9 -53 -10q-23 -21 -51 -19t-39 26q-18 38 17 61q43 29 138 -5q11 -3 24 -10zM453 1397
q-48 -50 -48 -120v-443q0 -68 45 -117q-45 -49 -45 -116v-380l11 5q127 47 208 156q88 119 108 296q4 42 5 86q-1 78 16 141q9 38 24 67q69 -135 63 -301q-13 -360 -265 -537q-188 -132 -443 -134v37q48 50 48 120v444q0 67 -45 116q45 49 45 117v443q0 70 -48 120v37h321
v-37z" />
    <glyph glyph-name="uni0439" unicode="&#x439;" horiz-adv-x="1304" 
d="M709 1457q-193 7 -246 170q-22 62 -3 89q15 22 39 11q16 -8 17 -25q2 -18 -11 -33q-19 -22 -4 -47q29 -49 83 -68q46 -17 125 -17t124 17q55 19 84 68q14 25 -4 47q-13 15 -12 33q1 17 17 25q24 11 39 -11q19 -27 -2 -89q-54 -163 -246 -170zM453 1397q-48 -50 -48 -120
v-443q0 -68 45 -117q-45 -49 -45 -116v-380l11 5q127 47 208 156q88 119 108 296q4 42 5 86q-1 78 16 141q9 38 24 67q69 -135 63 -301q-13 -360 -265 -537q-188 -132 -443 -134v37q48 50 48 120v444q0 67 -45 116q45 49 45 117v443q0 70 -48 120v37h321v-37zM654 1116
q-18 -19 -36 -43q-31 9 -53 -10q-23 -21 -51 -19t-39 26q-18 38 17 61q43 29 138 -5q11 -3 24 -10zM762 318q18 19 36 43q31 -9 53 10q23 21 51 19t39 -26q18 -38 -17 -61q-43 -29 -138 5q-11 3 -24 10zM963 37q48 50 48 120v443q0 68 -45 117q45 49 45 116v380l-11 -5
q-127 -47 -208 -156q-88 -119 -108 -296q-4 -42 -5 -86q1 -78 -16 -141q-9 -38 -24 -67q-69 135 -63 301q13 360 265 537q188 132 443 134v-37q-48 -50 -48 -120v-444q0 -67 45 -116q-45 -49 -45 -117v-443q0 -70 48 -120v-37h-321v37z" />
    <glyph glyph-name="uni043A" unicode="&#x43a;" horiz-adv-x="1073" 
d="M732 37q49 50 49 120v205q0 126 -84 213q-75 81 -166 81h-9v-499q0 -70 49 -120v-37h-322v37q48 50 48 120v452l-13 -8q-50 -33 -76 -77q-22 -38 7 -74q20 -24 17 -51t-27 -38q-37 -17 -60 16q-29 44 4 138q47 133 150 200q96 64 232 64q91 0 166 80q84 87 84 213v205
q0 70 -49 120v37h321v-37q-47 -50 -47 -120v-205q0 -112 -54 -203q-52 -90 -147 -145l-12 -7l12 -7q95 -56 147 -145q54 -91 54 -203v-205q0 -70 47 -120v-37h-321v37zM249 1434h322v-37q-49 -50 -49 -121v-432q-124 -2 -225 -56v488q0 71 -48 121v37z" />
    <glyph glyph-name="uni043B" unicode="&#x43b;" 
d="M373 1434h321v-37q-24 -28 -22 -65q1 -39 30 -66q89 -82 131 -143q56 -82 56 -164v-125q0 -68 44 -117q-44 -49 -44 -116v-444q0 -70 47 -120v-37h-321v37q49 50 49 120v444q0 67 -46 116q46 49 46 117v125q0 97 -124 218l-6 6l-6 -6q-123 -121 -123 -218v-125
q0 -68 45 -117q-45 -49 -45 -116v-444q0 -70 48 -120v-37h-321v37q48 50 48 120v444q0 67 -45 116q45 49 45 117v125q0 82 55 164q41 61 131 143q28 27 30 66q2 38 -23 65v37z" />
    <glyph glyph-name="uni043C" unicode="&#x43c;" horiz-adv-x="1295" 
d="M954 37q48 50 48 120v443q0 68 -45 117q45 49 45 116v380l-11 -5q-127 -47 -208 -156q-88 -119 -108 -296q-4 -42 -5 -86q1 -78 -16 -141q-9 -38 -24 -67q-69 135 -63 301q13 360 265 537q188 132 443 134v-37q-48 -50 -48 -120v-444q0 -67 45 -116q-45 -49 -45 -117
v-443q0 -70 48 -120v-37h-321v37zM132 37q48 50 48 120v448q-2 65 -44 112q42 46 44 111v449q0 70 -48 120v37q139 -1 269 -47q159 -55 263 -164q-50 -61 -82 -128q-77 80 -166 113l-11 5v-380q0 -67 45 -116q-45 -49 -45 -117v-443q0 -71 48 -120v-37h-321v37zM519 390
q25 0 47 -19q33 -28 72 -5q35 21 63 95q36 93 35 217q0 39 4 72q13 120 67 216q28 -97 33 -203q6 -171 -68 -310q-64 -119 -143 -146q-95 -33 -138 -4q-34 23 -16 61q12 24 39 26h5zM777 308q-11 3 -24 10q18 19 36 43q31 -9 53 10q23 21 51 19t39 -26q18 -38 -17 -61
q-43 -29 -138 5z" />
    <glyph glyph-name="uni043D" unicode="&#x43d;" horiz-adv-x="1089" 
d="M615 37q49 50 49 120v288l-7 1q-79 19 -146 67q-50 35 -91 87l-15 19v-462q0 -70 49 -120v-37h-322v37q48 50 48 120v443q0 68 -45 117q45 48 45 117v443q0 70 -48 120v37h322v-37q-49 -50 -49 -120v-580l108 108h38q21 -81 80 -148q78 -90 185 -90q77 0 114 21
q25 14 47 49q23 40 -5 73q-21 23 -19 51t26 40q38 17 61 -17q29 -43 -4 -138q-43 -128 -143 -179l-4 -3v-307q0 -70 47 -120v-37h-321v37zM664 1277q0 70 -49 120v37h321v-37q-48 -50 -48 -120v-636q-24 -8 -72 -8q-90 0 -152 89v555z" />
    <glyph glyph-name="uni043E" unicode="&#x43e;" 
d="M663 600q0 68 -45 117q45 48 45 117v471h-258v-471q0 -69 45 -117q-45 -49 -45 -117v-472h258v472zM132 37q48 50 48 120v443q0 68 -45 117q45 49 45 117v443q0 70 -48 120v37h804v-37q-48 -50 -48 -120v-443q0 -68 45 -117q-45 -49 -45 -117v-443q0 -69 48 -120v-37
h-804v37z" />
    <glyph glyph-name="uni043F" unicode="&#x43f;" 
d="M132 1434h804v-37q-47 -51 -47 -120v-443q0 -68 44 -117q-44 -49 -44 -117v-443q0 -70 47 -120v-37h-321v37q49 50 49 120v443q0 68 -46 117q46 49 46 117v472h-259v-472q0 -68 45 -117q-45 -49 -45 -117v-443q0 -70 48 -120v-37h-321v37q48 50 48 120v443q0 68 -45 117
q45 49 45 117v443q0 69 -48 120v37z" />
    <glyph glyph-name="uni0440" unicode="&#x440;" horiz-adv-x="1074" 
d="M249 37q48 50 48 120v247l-4 3q-99 67 -144 195q-33 95 -4 138q23 34 60 16q25 -11 27 -38q2 -28 -18 -52q-29 -34 -6 -73q45 -75 129 -105q71 -26 194 -26q91 0 166 80q84 88 84 214v549h-259v-472q0 -67 45 -116q-45 -49 -45 -117v-74q-161 2 -225 61v690q0 70 -48 119
v37l805 1v-37q-48 -50 -48 -120v-521q0 -183 -132 -300q-133 -118 -343 -118h-9v-181q0 -70 49 -120v-37h-322v37z" />
    <glyph glyph-name="uni0441" unicode="&#x441;" horiz-adv-x="969" 
d="M132 37q48 51 48 120v443q0 68 -45 117q45 49 45 117v443q0 70 -48 120v37h804v-34q-67 -20 -137 -120q-76 -106 -90 -219q-13 -98 8 -173q17 -67 51 -87q40 -23 73 5q23 21 51 19t40 -26q17 -38 -17 -61q-43 -29 -138 4q-79 27 -137 104q-68 89 -74 209q-6 122 23 240
l3 10h-187v-471q0 -68 45 -117q-45 -49 -45 -117v-472h242q67 0 106 44q29 31 53 102h34v-40q0 -78 38 -133q13 -20 33 -40l14 -14l8 -6l3 -4v-37h-804v37z" />
    <glyph glyph-name="uni0442" unicode="&#x442;" horiz-adv-x="1162" 
d="M422 37q48 50 48 120v444q-1 67 -45 116q44 48 45 116v472h-48q-68 0 -107 -42q-28 -31 -53 -103h-33v41q0 76 -39 133q-13 19 -33 38q-7 8 -15 15l-10 10v37h998v-34q-67 -20 -138 -120q-76 -107 -90 -219q-12 -98 8 -173q18 -67 51 -87q40 -23 73 5q24 21 51 19
q28 -2 40 -26q17 -38 -16 -61q-43 -29 -139 4q-78 27 -136 104q-68 89 -74 209q-5 122 23 240l2 10h-91l1 -472q0 -68 45 -116q-45 -49 -45 -117l-1 -443q0 -70 49 -120v-37h-321v37z" />
    <glyph glyph-name="uni0443" unicode="&#x443;" horiz-adv-x="1073" 
d="M887 157q0 -69 47 -120v-37h-804v37q48 50 48 91v57q0 14 12 34q16 26 51 61q44 44 176 155q76 64 128 49q40 -13 36 -54q-3 -27 -29 -38q-25 -11 -55 2q-30 12 -52 -4q-34 -25 -39 -58l-1 -8v-22l-2 -117v-57h259v528h-9q-155 -13 -274 68q-95 55 -147 145
q-54 91 -54 203v205q0 70 -47 120v37h321v-37q-49 -50 -49 -120v-205q0 -126 84 -213q75 -80 166 -80q136 0 232 -64q103 -67 150 -200q33 -94 4 -138q-23 -33 -60 -16q-24 11 -27 38t17 51q29 36 7 74q-26 44 -76 77l-13 8v-452zM935 1397q-48 -50 -48 -121v-488
q-101 54 -225 56v432q0 71 -49 121v37h322v-37z" />
    <glyph glyph-name="uni0444" unicode="&#x444;" horiz-adv-x="1344" 
d="M1324 608q0 -183 -132 -300q-133 -118 -343 -118h-8v-33q0 -70 48 -120v-37h-322v37l2 2q46 49 46 118v33h-8q-210 0 -343 118q-132 117 -132 300v219q0 183 132 300q133 118 343 118h8v32q0 70 -48 120v37h322v-37q-48 -50 -48 -120v-32h8q210 0 343 -118
q132 -117 132 -300v-219zM616 1077q-56 -31 -90 -87q-23 -39 6 -73q20 -24 18 -52q-2 -27 -27 -38q-37 -18 -60 16q-29 43 4 138q26 73 69 127q-50 -19 -95 -67q-84 -88 -84 -214v-219q0 -126 84 -214q45 -48 96 -68q-44 54 -70 128q-33 95 -4 138q23 34 60 16
q25 -11 27 -38q2 -28 -18 -52q-29 -34 -6 -73q34 -57 90 -88v249q-3 64 -45 111q42 46 45 109v251zM841 833q0 -67 45 -116q-43 -47 -45 -111v-248q55 31 89 87q23 39 -6 73q-20 24 -18 52q2 27 27 38q37 18 60 -16q29 -43 -4 -138q-26 -74 -70 -127q51 19 96 67
q80 83 84 201v244q-4 118 -84 202q-45 48 -96 67q44 -54 70 -127q33 -95 4 -138q-23 -34 -60 -16q-25 11 -27 38q-2 28 18 52q29 34 6 73q-34 56 -89 87v-244z" />
    <glyph glyph-name="uni0445" unicode="&#x445;" 
d="M615 37q49 50 49 120v173q0 122 -124 254l-6 7l-6 -7q-123 -130 -123 -254v-173q0 -70 48 -120v-37h-321v37q48 50 48 120v173q0 113 73 220q52 73 166 176l88 80q49 45 79 79q78 90 78 170v222q0 70 -49 120v37h321v-37q-48 -50 -48 -120v-222q0 -89 -66 -179
q-45 -60 -152 -157l-7 -6l7 -6q103 -96 152 -169q66 -101 66 -208v-173q0 -71 48 -120v-37h-321v37zM132 1434h321v-37q-48 -50 -48 -121v-221q0 -82 84 -177q-31 -30 -80 -74l-52 -48q-84 79 -123 137q-54 82 -54 162v221q0 71 -48 121v37z" />
    <glyph glyph-name="uni0446" unicode="&#x446;" horiz-adv-x="1074" 
d="M179 600q0 68 -45 117q45 49 45 117v443q0 70 -47 120v37h321v-37q-49 -50 -49 -120v-443q0 -69 45 -117q-43 -47 -45 -111v-143q0 -126 84 -213q75 -80 166 -80q136 0 232 -64q103 -67 150 -200q33 -94 4 -138q-23 -33 -60 -16q-24 11 -27 38t17 51q29 36 7 74
q-26 44 -76 77l-13 8h-274v37l8 8q-136 -3 -242 70q-95 55 -147 145q-54 91 -54 203v137zM936 1397q-48 -50 -48 -121v-442q0 -68 45 -117q-43 -47 -45 -111v-427q-101 54 -225 56v365q0 68 -45 117q45 48 45 117v442q0 71 -49 121v37h322v-37z" />
    <glyph glyph-name="uni0447" unicode="&#x447;" horiz-adv-x="1073" 
d="M653 656q-155 -13 -274 68q-95 55 -147 145q-54 91 -54 203v205q0 70 -47 120v37h321v-37q-49 -50 -49 -120v-205q0 -126 84 -213q75 -80 166 -80q136 0 232 -64q103 -67 150 -200q33 -94 4 -138q-23 -33 -60 -16q-24 11 -27 38t17 51q29 36 7 74q-26 44 -76 77l-13 8
v-452q0 -70 48 -120v-37h-322v37q49 50 49 120v499h-9zM935 1397q-48 -50 -48 -121v-488q-101 54 -225 56v432q0 71 -49 121v37h322v-37z" />
    <glyph glyph-name="uni0448" unicode="&#x448;" horiz-adv-x="1440" 
d="M1419 0h-321v37q4 4 7 8q-84 -2 -209 57q11 -36 40 -65v-37h-322v37q4 4 7 8q-135 -3 -241 70q-95 55 -147 145q-54 91 -54 203v137q0 68 -45 117q45 49 45 117v443q0 70 -47 120v37h321v-37q-49 -50 -49 -120v-443q0 -69 45 -117q-43 -47 -45 -111v-143q0 -126 84 -213
q75 -80 166 -80q99 0 176 -34q-71 50 -113 124q-51 85 -54 190v150q0 68 -46 117q46 49 46 117v202q0 13 12 33q15 27 51 62q43 45 175 154q77 64 128 49q41 -12 36 -54q-3 -26 -29 -37t-55 2q-30 12 -53 -4q-33 -26 -38 -58v-1q-2 -13 -2 -146v-202q0 -68 44 -117
q-44 -49 -44 -117v-150q4 -118 84 -200q75 -80 166 -80h9v430q0 68 -45 117q45 48 45 117v442q0 71 -49 121v37h322v-37q-48 -50 -48 -121v-442q0 -68 45 -117q-45 -49 -45 -117v-450q2 -66 47 -113v-37z" />
    <glyph glyph-name="uni0449" unicode="&#x449;" horiz-adv-x="1558" 
d="M888 450q4 -118 84 -200q75 -80 166 -80q136 0 232 -64q103 -67 150 -200q33 -94 4 -138q-23 -33 -60 -16q-24 11 -27 38t17 51q29 36 7 74q-26 44 -76 77l-13 8h-274v37l8 8q-84 -2 -210 57q11 -36 40 -65v-37h-322v37l1 1q3 3 6 7q-135 -3 -241 70q-95 55 -147 145
q-54 91 -54 203v137q0 68 -45 117q45 49 45 117v443q0 70 -47 120v37h321v-37q-49 -50 -49 -120v-443q0 -69 45 -117q-43 -47 -45 -111v-143q0 -126 84 -213q75 -80 166 -80q99 0 176 -34q-71 50 -113 124q-51 85 -54 190v150q0 68 -46 117q46 49 46 117v202q0 13 12 33
q15 27 51 62q43 45 175 154q77 64 128 49q41 -12 36 -54q-3 -26 -29 -37t-55 2q-30 12 -53 -4q-33 -26 -38 -58v-1q-2 -13 -2 -146v-202q0 -68 44 -117q-44 -49 -44 -117v-150zM1420 1397q-48 -50 -48 -121v-442q0 -68 45 -117q-45 -49 -45 -117v-421q-101 54 -225 56v365
q0 68 -45 117q45 48 45 117v442q0 71 -49 121v37h322v-37z" />
    <glyph glyph-name="uni044A" unicode="&#x44a;" horiz-adv-x="1266" 
d="M763 1434v-37q-49 -50 -49 -120v-181h9q210 0 343 -118q132 -117 132 -300v-521q0 -70 48 -120v-37l-805 1v37q48 49 48 119v690q64 59 225 61v-74q0 -68 45 -117q-45 -49 -45 -116v-472h259v549q0 126 -84 214q-75 80 -166 80q-123 0 -194 -26q-84 -30 -129 -105
q-23 -39 6 -73q20 -24 18 -52q-2 -27 -27 -38q-37 -18 -60 16q-29 43 4 138q45 128 144 195l4 3v247q0 14 -2 28h-67q-66 0 -105 -42q-29 -31 -54 -103h-33v41q0 76 -39 133q-13 19 -32 38l-16 15l-10 10v37h632z" />
    <glyph glyph-name="uni044B" unicode="&#x44b;" horiz-adv-x="1416" 
d="M250 1434h322v-37q-49 -50 -49 -120v-181h9q210 0 343 -118q132 -117 132 -300v-521q0 -70 48 -120v-37l-805 1v37q48 49 48 119v690q64 59 225 61v-74q0 -68 45 -117q-45 -49 -45 -116v-472h259v549q0 126 -84 214q-75 80 -166 80q-123 0 -194 -26q-84 -30 -129 -105
q-23 -39 6 -73q20 -24 18 -52q-2 -27 -27 -38q-37 -18 -60 16q-29 43 4 138q45 128 144 195l4 3v247q0 70 -48 120v37zM1075 37q48 50 48 120v443q0 68 -45 117q45 48 45 117v443q0 70 -48 120v37h321v-37q-48 -50 -48 -120v-443q0 -68 45 -117q-45 -49 -45 -117v-443
q0 -70 48 -120v-37h-321v37z" />
    <glyph glyph-name="uni044C" unicode="&#x44c;" horiz-adv-x="1075" 
d="M250 1434h322v-37q-49 -50 -49 -120v-181h9q210 0 343 -118q132 -117 132 -300v-521q0 -70 48 -120v-37l-805 1v37q48 49 48 119v690q64 59 225 61v-74q0 -68 45 -117q-45 -49 -45 -116v-472h259v549q0 126 -84 214q-75 80 -166 80q-123 0 -194 -26q-84 -30 -129 -105
q-23 -39 6 -73q20 -24 18 -52q-2 -27 -27 -38q-37 -18 -60 16q-29 43 4 138q45 128 144 195l4 3v247q0 70 -48 120v37z" />
    <glyph glyph-name="uni044D" unicode="&#x44d;" horiz-adv-x="958" 
d="M181 37l4 4l7 5v1q9 9 15 14q20 20 32 40q39 55 39 133v40h34q25 -71 53 -102q39 -44 105 -44h195v148q0 130 -83 214q-45 44 -85 50q-15 3 -28 -2q-12 -4 -18 -11q-16 -22 -3 -53q12 -29 2 -54q-12 -26 -38 -29q-42 -5 -54 36q-15 52 49 128q35 42 85 98q53 59 87 93
q42 45 61 91q25 60 25 150v318h-187l2 -10q28 -118 23 -240q-6 -121 -74 -209q-58 -77 -136 -104q-96 -33 -139 -4q-34 23 -16 60q12 25 40 27q27 2 51 -19q33 -28 73 -5q33 20 51 87q20 75 8 173q-14 112 -90 219q-70 100 -138 120v34h805v-37q-48 -50 -48 -120v-443
q0 -68 45 -117q-45 -49 -45 -117v-443q0 -70 48 -120v-37h-757v37z" />
    <glyph glyph-name="uni044E" unicode="&#x44e;" horiz-adv-x="1443" 
d="M664 1277q0 70 -49 120v37h808v-37q-16 -17 -27 -35q-4 -5 -6 -11l-8 -18q0 -2 -1 -4q-1 -4 -2 -9l-2 -6q0 -4 -1 -7q0 -3 -1 -6v-4q-1 -3 -1 -6v-457q0 -68 45 -117q-45 -49 -45 -117v-443q0 -36 12 -66q1 -1 1 -3q4 -9 10 -18q11 -18 26 -33v-37h-808v37q49 50 49 120
v288l-7 1q-177 16 -252 52v-341q0 -70 49 -120v-37h-322v37q48 50 48 120v443q0 68 -45 117q45 48 45 117v443q0 70 -48 120v37h322v-37q-49 -50 -49 -120v-472h16q21 -81 80 -148q78 -90 185 -90q207 0 244 21q25 14 47 49q23 40 -5 73q-21 23 -19 51t26 40q38 17 61 -17
q29 -43 -4 -138q-43 -128 -143 -179l-4 -3v-307q0 -15 2 -29h256q2 14 2 29v443q0 68 -45 117q45 48 45 117v443q0 14 -2 28h-256v5q-3 -16 -3 -33v-636q-24 -8 -72 -8q-90 0 -152 89v555z" />
    <glyph glyph-name="uni044F" unicode="&#x44f;" horiz-adv-x="1074" 
d="M453 0h-321v37q47 49 47 120v205q0 112 54 203q52 89 147 145l12 7l-12 7q-95 55 -147 145q-54 91 -54 203v205q0 70 -47 120v37h804v-37q-48 -50 -48 -120v-489q-101 54 -225 56v461h-259v-233q0 -126 84 -213q75 -80 166 -80q136 0 232 -64q103 -67 150 -200
q33 -94 4 -138q-23 -33 -60 -16q-25 12 -27 39t18 52q30 33 6 72q-26 43 -76 77l-13 9v-453q0 -70 48 -120v-37h-322v37q49 50 49 120v499h-9q-91 0 -166 -81q-84 -87 -84 -213v-205q0 -69 49 -120v-37z" />
    <glyph glyph-name="uni0451" unicode="&#x451;" horiz-adv-x="969" 
d="M132 0h756v37l-3 4l-7 5l-15 15q-20 20 -34 40q-38 55 -38 133v40h-34q-24 -71 -52 -102q-39 -44 -106 -44h-194v404h57q80 0 116 -1q25 -1 30 -2q33 -5 58 -38q17 -22 4 -53q-12 -29 -1 -55q10 -25 37 -29q42 -5 54 37q14 51 -50 128q-110 131 -153 174q-35 36 -62 52
q-20 12 -33 12h-57v548h187l-3 -10q-29 -118 -23 -240q6 -120 74 -209q58 -77 137 -104q95 -33 138 -4q34 23 17 61q-12 24 -40 26t-51 -19q-33 -28 -73 -5q-34 20 -51 87q-21 75 -8 173q14 112 90 219q70 100 137 120v34h-804v-37q48 -50 48 -120v-443q0 -68 -45 -117
q45 -49 45 -117v-443q0 -70 -48 -120v-37zM365 1457q-57 0 -97 40t-40 97q0 56 40 96t97 40t97 -40t40 -96q0 -57 -40 -97t-97 -40zM844 1594q0 -57 -40 -97t-96 -40q-57 0 -97 40q-39 40 -39 97q0 55 39 96q40 40 97 40q56 0 96 -40t40 -96z" />
    <glyph glyph-name="uni0454" unicode="&#x454;" horiz-adv-x="958" 
d="M491 746q21 -21 50 -53q15 -7 30 -9q15 -3 28 2q12 4 18 11q16 22 3 53q-12 29 -2 54q12 26 38 29q42 5 54 -36q15 -52 -49 -128q-35 -42 -85 -98q-20 -22 -37 -41q-134 -124 -134 -254v-148h195q66 0 105 44q28 31 53 102h34v-40q0 -78 39 -133q12 -20 32 -40
q6 -5 15 -14v-1l7 -5l4 -4v-37h-757v37q48 50 48 120v449q-3 64 -45 111q45 49 45 117v443q0 70 -48 120v37h805v-34q-68 -20 -138 -120q-76 -7 -90 -119q-12 -98 8 -173q18 -67 51 -87q40 -23 73 5q24 21 51 19q28 -2 40 -27q18 -37 -16 -60q-43 -29 -139 4
q-78 27 -136 104q-68 88 -74 209q-5 122 23 140l2 10h-187v-318q0 -90 25 -150q19 -46 61 -91z" />
    <glyph glyph-name="uni0456" unicode="&#x456;" horiz-adv-x="473" 
d="M132 37q48 50 48 120v443q0 68 -45 117q45 48 45 117v443q0 70 -48 120v37h321v-37q-48 -50 -48 -120v-443q0 -68 45 -117q-45 -49 -45 -117v-443q0 -70 48 -120v-37h-321v37z" />
    <glyph glyph-name="uni0457" unicode="&#x457;" horiz-adv-x="473" 
d="M132 0h321v37q-48 50 -48 120v443q0 68 45 117q-45 49 -45 117v443q0 70 48 120v37h-321v-37q48 -50 48 -120v-443q0 -69 -45 -117q45 -49 45 -117v-443q0 -70 -48 -120v-37zM122 1457q-57 0 -97 40t-40 97q0 56 40 96t97 40t97 -40t40 -96q0 -57 -40 -97t-97 -40z
M601 1594q0 -57 -40 -97t-96 -40q-57 0 -97 40q-39 40 -39 97q0 55 39 96q40 40 97 40q56 0 96 -40t40 -96z" />
    <glyph glyph-name="uni045E" unicode="&#x45e;" horiz-adv-x="1074" 
d="M888 157q0 -69 47 -120v-37h-804v37q48 50 48 91v57q0 14 12 34q16 26 51 61q44 44 176 155q76 64 128 49q40 -13 36 -54q-3 -27 -29 -38q-25 -11 -55 2q-30 12 -52 -4q-34 -25 -39 -58l-1 -8v-22l-2 -117v-57h259v528h-9q-155 -13 -274 68q-95 55 -147 145
q-54 91 -54 203v205q0 70 -47 120v37h321v-37q-49 -50 -49 -120v-205q0 -126 84 -213q75 -80 166 -80q136 0 232 -64q103 -67 150 -200q33 -94 4 -138q-23 -33 -60 -16q-24 11 -27 38t17 51q29 36 7 74q-26 44 -76 77l-13 8v-452zM936 1397q-48 -50 -48 -121v-488
q-101 54 -225 56v432q0 71 -49 121v37h322v-37zM534 1457q-193 7 -246 170q-22 62 -3 89q15 22 39 11q16 -8 17 -25q2 -18 -11 -33q-19 -22 -4 -47q29 -49 83 -68q46 -17 125 -17t124 17q55 19 84 68q14 25 -4 47q-13 15 -12 33q1 17 17 25q24 11 39 -11q19 -27 -2 -89
q-54 -163 -246 -170z" />
    <glyph glyph-name="uni0490" unicode="&#x490;" horiz-adv-x="993" 
d="M924 1349q5 -4 7 -8q3 -1 5 -1v-34h-531v-472q0 -68 45 -117q-45 -49 -45 -116v-444q0 -70 49 -120v-37h-322v37q48 50 48 120v444q0 67 -45 116q45 49 45 117v443q0 70 -48 120v37h594l-3 21q-12 95 26 169q45 89 97 99q39 8 53 -31q9 -26 -10 -47q-18 -21 -49 -23
q-44 -1 -56 -46q-10 -38 24 -98q38 -69 116 -129z" />
    <glyph glyph-name="uni0491" unicode="&#x491;" horiz-adv-x="993" 
d="M924 1349q5 -4 7 -8q3 -1 5 -1v-34h-531v-472q0 -68 45 -117q-45 -49 -45 -116v-444q0 -70 49 -120v-37h-322v37q48 50 48 120v444q0 67 -45 116q45 49 45 117v443q0 70 -48 120v37h594l-3 21q-12 95 26 169q45 89 97 99q39 8 53 -31q9 -26 -10 -47q-18 -21 -49 -23
q-44 -1 -56 -46q-10 -38 24 -98q38 -69 116 -129z" />
    <glyph glyph-name="uni04C1" unicode="&#x4c1;" horiz-adv-x="1439" 
d="M1063 859q84 87 84 213v205q0 70 -49 120v37h321v-37q-47 -50 -47 -120v-205q0 -112 -54 -203q-52 -90 -147 -145l-12 -7l12 -7q95 -56 147 -145q54 -91 54 -203v-205q0 -70 47 -120v-37h-321v37q49 50 49 120v205q0 126 -84 213q-66 71 -110 84q-45 13 -164 15
q-62 2 -144 -8q-82 -11 -157 -91q-84 -87 -84 -213v-205q0 -70 49 -120v-37h-321v37q47 50 47 120v205q0 112 54 203q52 90 147 145l12 7l-12 7q-95 56 -147 145q-54 91 -54 203v205q0 70 -47 120v37h321v-37q-49 -50 -49 -120v-205q0 -126 84 -213q66 -71 111 -84
q44 -13 163 -15q62 -2 144 9q82 10 157 90zM936 0h-322v37q49 50 49 121v488q113 -54 225 0v-488q0 -71 48 -121v-37zM615 1434h322v-37q-49 -50 -49 -121v-488q-112 54 -225 0v488q0 71 -48 121v37zM776 1457q-193 7 -246 170q-22 62 -3 89q15 22 39 11q16 -8 17 -25
q2 -18 -11 -33q-19 -22 -4 -47q29 -49 83 -68q46 -17 125 -17t124 17q55 19 84 68q14 25 -4 47q-13 15 -12 33q1 17 17 25q24 11 39 -11q19 -27 -2 -89q-54 -163 -246 -170z" />
    <glyph glyph-name="uni04C2" unicode="&#x4c2;" horiz-adv-x="1439" 
d="M1063 859q84 87 84 213v205q0 70 -49 120v37h321v-37q-47 -50 -47 -120v-205q0 -112 -54 -203q-52 -90 -147 -145l-12 -7l12 -7q95 -56 147 -145q54 -91 54 -203v-205q0 -70 47 -120v-37h-321v37q49 50 49 120v205q0 126 -84 213q-66 71 -110 84q-45 13 -164 15
q-62 2 -144 -8q-82 -11 -157 -91q-84 -87 -84 -213v-205q0 -70 49 -120v-37h-321v37q47 50 47 120v205q0 112 54 203q52 90 147 145l12 7l-12 7q-95 56 -147 145q-54 91 -54 203v205q0 70 -47 120v37h321v-37q-49 -50 -49 -120v-205q0 -126 84 -213q66 -71 111 -84
q44 -13 163 -15q62 -2 144 9q82 10 157 90zM936 0h-322v37q49 50 49 121v488q113 -54 225 0v-488q0 -71 48 -121v-37zM615 1434h322v-37q-49 -50 -49 -121v-488q-112 54 -225 0v488q0 71 -48 121v37zM776 1457q-193 7 -246 170q-22 62 -3 89q15 22 39 11q16 -8 17 -25
q2 -18 -11 -33q-19 -22 -4 -47q29 -49 83 -68q46 -17 125 -17t124 17q55 19 84 68q14 25 -4 47q-13 15 -12 33q1 17 17 25q24 11 39 -11q19 -27 -2 -89q-54 -163 -246 -170z" />
    <glyph glyph-name="endash" unicode="&#x2013;" horiz-adv-x="1225" 
d="M1162 614q-56 49 -135 49h-227q-76 0 -132 -46q-55 46 -131 46h-228q-78 0 -134 -49h-43v225h43q56 -48 134 -48h228q76 0 131 46q56 -46 132 -46h227q79 0 135 48h43v-225h-43z" />
    <glyph glyph-name="quoteleft" unicode="&#x2018;" horiz-adv-x="376" 
d="M132 1007q48 50 48 120v174q0 56 40 96q37 37 88 40v-310q0 -69 48 -120v-37h-224v37z" />
    <glyph glyph-name="quoteright" unicode="&#x2019;" horiz-adv-x="376" 
d="M132 1434h224v-37q-48 -51 -48 -120v-174q0 -56 -40 -96q-37 -37 -88 -40v310q0 70 -48 120v37z" />
    <glyph glyph-name="quotesinglbase" unicode="&#x201a;" horiz-adv-x="377" 
d="M132 223h225v-37q-49 -51 -49 -120v-174q0 -56 -40 -96q-37 -37 -88 -40v310q0 69 -48 120v37z" />
    <glyph glyph-name="quotereversed" unicode="&#x201b;" horiz-adv-x="376" 
d="M356 1397q-48 -50 -48 -120v-310q-51 3 -88 40q-40 40 -40 96v174q0 69 -48 120v37h224v-37z" />
    <glyph glyph-name="quotedblleft" unicode="&#x201c;" horiz-adv-x="789" 
d="M601 1431q62 51 108 51q10 0 20 -2q40 -12 35 -54q-2 -27 -28 -38q-25 -11 -55 2q-30 12 -53 -4q-44 -33 -14 -105l2 -4l5 -1q51 -6 87 -44q35 -39 35 -92q0 -56 -40 -96t-96 -40q-58 0 -98 40t-40 96q0 24 5 54q6 39 19 77q35 100 108 160zM262 1431q63 51 109 51
q11 0 20 -2q41 -12 35 -54q-3 -27 -28 -38q-26 -11 -55 2q-31 12 -53 -4q-44 -33 -14 -105l2 -4l5 -1q52 -6 87 -44q35 -39 35 -92q0 -56 -40 -96t-97 -40q-56 0 -97 40q-40 40 -40 96q0 24 5 54q6 39 19 77q34 101 107 160z" />
    <glyph glyph-name="quotedblright" unicode="&#x201d;" horiz-adv-x="785" 
d="M161 1099q12 5 25 5q14 0 30 -6q29 -13 52 4q44 33 14 105l-2 4l-5 1q-51 6 -86 44q-36 39 -36 91q0 57 40 97q41 40 97 40q57 0 97 -40t40 -97q0 -23 -5 -53q-6 -40 -19 -77q-34 -100 -108 -160q-76 -64 -127 -49q-41 12 -36 54q3 27 29 37zM498 1099q13 5 26 5
q14 0 29 -6q31 -13 53 4q44 33 14 105l-2 4l-5 1q-51 6 -86 44q-36 39 -36 91q0 57 40 97t97 40t97 -40t40 -97q0 -24 -5 -53q-6 -39 -19 -77q-34 -100 -107 -160q-77 -64 -129 -49q-40 12 -35 54q3 26 28 37z" />
    <glyph glyph-name="quotedblbase" unicode="&#x201e;" horiz-adv-x="785" 
d="M161 -147q12 5 25 5q14 0 30 -6q29 -13 52 4q44 33 14 105l-2 4l-5 1q-51 6 -86 44q-36 39 -36 91q0 57 40 97q41 40 97 40q57 0 97 -40t40 -97q0 -23 -5 -53q-6 -40 -19 -77q-34 -100 -108 -160q-76 -64 -127 -49q-41 12 -36 54q3 26 29 37zM498 -147q13 5 26 5
q14 0 29 -6q31 -13 53 4q44 33 14 105l-2 4l-5 1q-51 6 -86 44q-36 39 -36 91q0 57 40 97t97 40t97 -40t40 -97q0 -24 -5 -53q-6 -39 -19 -77q-34 -101 -107 -160q-77 -64 -129 -49q-40 12 -35 54q3 26 28 37z" />
    <glyph glyph-name="uni201F" unicode="&#x201f;" horiz-adv-x="785" 
d="M710 1104q13 0 25 -5q26 -10 29 -37q5 -42 -36 -54q-51 -15 -127 49q-74 60 -108 160q-13 37 -19 77q-5 30 -5 53q0 57 40 97t97 40q56 0 97 -40q40 -40 40 -97q0 -52 -36 -91q-35 -38 -86 -44l-5 -1l-2 -4q-30 -72 14 -105q23 -17 52 -4q16 6 30 6zM372 1104q13 0 26 -5
q25 -11 28 -37q5 -42 -35 -54q-52 -15 -129 49q-73 60 -107 160q-13 38 -19 77q-5 29 -5 53q0 57 40 97t97 40t97 -40t40 -97q0 -52 -36 -91q-35 -38 -86 -44l-5 -1l-2 -4q-30 -72 14 -105q22 -17 53 -4q15 6 29 6z" />
    <glyph glyph-name="bullet" unicode="&#x2022;" horiz-adv-x="425" 
d="M405 717q0 -57 -40 -97t-97 -40t-96 40q-41 40 -41 97t41 97q39 40 96 40t97 -40t40 -97z" />
    <glyph glyph-name="ellipsis" unicode="&#x2026;" horiz-adv-x="1101" 
d="M405 103q0 -57 -40 -97t-97 -40t-96 40q-41 40 -41 97t41 97q39 40 96 40t97 -40t40 -97zM743 103q0 -57 -40 -97t-97 -40t-96 40q-41 40 -41 97t41 97q39 40 96 40t97 -40t40 -97zM1081 103q0 -57 -40 -97t-97 -40t-96 40q-41 40 -41 97t41 97q39 40 96 40t97 -40
t40 -97z" />
    <glyph glyph-name="perthousand" unicode="&#x2030;" horiz-adv-x="1774" 
d="M297 1130q38 -37 92 -37q53 0 91 37q38 38 38 91q0 54 -38 92t-91 38q-54 0 -92 -38q-38 -37 -38 -92q0 -53 38 -91zM207 1404q75 75 182 75q106 0 181 -75q76 -76 76 -183q0 -106 -76 -182q-75 -75 -181 -75q-107 0 -182 75q-75 76 -75 182q0 107 75 183zM829 115
q38 -38 91 -38q54 0 92 38t38 92q0 53 -38 91t-92 38q-53 0 -91 -38t-38 -91q0 -54 38 -92zM738 389q75 76 182 76t182 -76q76 -75 76 -182t-76 -182q-75 -76 -182 -76t-182 76q-75 75 -75 182t75 182zM153 32q74 49 111 118l238 443q36 68 17 118q72 48 108 116l238 443
q37 70 16 121l21 40h270l-18 -34q-75 -49 -112 -119l-237 -443q-36 -68 -18 -117q-71 -49 -108 -117l-238 -443q-36 -69 -16 -120l-21 -40h-270zM1405 115q38 -38 91 -38q54 0 92 38t38 92q0 53 -38 91t-92 38q-53 0 -91 -38t-38 -91q0 -54 38 -92zM1314 389q75 76 182 76
t182 -76q76 -75 76 -182t-76 -182q-75 -76 -182 -76t-182 76q-75 75 -75 182t75 182z" />
    <glyph glyph-name="minute" unicode="&#x2032;" horiz-adv-x="396" 
d="M256 1443l120 -42l-12 -35l-39 -114l-58 -164l-92 -69q-13 -35 -29 112l58 164l39 113z" />
    <glyph glyph-name="second" unicode="&#x2033;" horiz-adv-x="690" 
d="M256 1443l120 -42l-12 -35l-39 -114l-58 -164l-92 -69q-13 -35 -29 112l58 164l39 113zM550 1443l120 -42l-12 -35l-39 -114l-58 -164l-92 -69q-13 -35 -29 112l58 164l39 113z" />
    <glyph glyph-name="uni2034" unicode="&#x2034;" horiz-adv-x="984" 
d="M256 1443l120 -42l-12 -35l-39 -114l-58 -164l-92 -69q-13 -35 -29 112l58 164l39 113zM550 1443l120 -42l-12 -35l-39 -114l-58 -164l-92 -69q-13 -35 -29 112l58 164l39 113zM844 1443l120 -42l-12 -35l-39 -114l-58 -164l-92 -69q-13 -35 -29 112l58 164l39 113z" />
    <glyph glyph-name="guilsinglleft" unicode="&#x2039;" horiz-adv-x="700" 
d="M455 1433h225v-37q-48 -50 -48 -120v-174q0 -56 -40 -96q-37 -37 -88 -40v310q0 70 -49 120v37zM132 1434h224v-37q-48 -50 -48 -120v-174q0 -56 -40 -96q-37 -37 -88 -40v310q0 70 -48 120v37z" />
    <glyph glyph-name="guilsinglright" unicode="&#x203a;" horiz-adv-x="700" 
d="M455 1433h225v-37q-48 -50 -48 -120v-174q0 -56 -40 -96q-37 -37 -88 -40v310q0 70 -49 120v37zM132 1434h224v-37q-48 -50 -48 -120v-174q0 -56 -40 -96q-37 -37 -88 -40v310q0 70 -48 120v37z" />
    <glyph glyph-name="exclamdbl" unicode="&#x203c;" horiz-adv-x="946" 
d="M196 186q40 40 96 40q57 0 97 -40t40 -97t-40 -96q-40 -40 -97 -40q-56 0 -96 40q-40 39 -40 96t40 97zM132 376q48 50 48 119v106q0 67 -45 117q45 48 45 116v443q0 70 -48 121v36h321v-36q-48 -50 -48 -121v-443q0 -68 44 -116q-44 -50 -44 -117v-106q0 -69 48 -119
v-37h-321v37zM669 186q40 40 96 40q57 0 97 -40t40 -97t-40 -96q-40 -40 -97 -40q-56 0 -96 40q-40 39 -40 96t40 97zM605 376q48 50 48 119v106q0 67 -45 117q45 48 45 116v443q0 70 -48 121v36h321v-36q-48 -50 -48 -121v-443q0 -68 44 -116q-44 -50 -44 -117v-106
q0 -69 48 -119v-37h-321v37z" />
    <glyph glyph-name="fraction" unicode="&#x2044;" horiz-adv-x="755" 
d="M136 36q61 49 79 119l120 443q18 68 -14 118q58 48 77 115l118 443q18 71 -16 121l10 39h225l-10 -35q-61 -50 -80 -120l-119 -443q-18 -67 14 -117q-59 -49 -77 -117l-118 -443q-19 -69 16 -120l-10 -39h-225z" />
    <glyph glyph-name="uni2116" unicode="&#x2116;" horiz-adv-x="1607" 
d="M732 36q49 50 49 120v443q0 68 -46 117q46 48 46 116v232q0 126 -84 213q-75 81 -166 81q-123 0 -194 -26q-84 -31 -129 -105q-23 -39 6 -73q20 -24 18 -52q-2 -27 -26 -38h-1q-37 -19 -60 16q-29 43 4 138q47 132 150 200q96 63 232 63q210 0 343 -118
q132 -117 132 -299v-232q0 -67 44 -116q-44 -49 -44 -117v-443q0 -70 47 -120v-37h-321v37zM249 36q48 50 48 120v443q0 68 -45 117q45 49 45 116v400q64 59 225 60v-460q0 -67 45 -116q-45 -49 -45 -117v-443q0 -70 49 -120v-37h-322v37zM1238 1130q38 -37 92 -37
q53 0 91 37q38 38 38 91q0 54 -38 92t-91 38q-54 0 -92 -38q-38 -37 -38 -92q0 -53 38 -91zM1148 1404q75 75 182 75q106 0 181 -75q76 -76 76 -183q0 -106 -76 -182q-75 -75 -181 -75q-107 0 -182 75q-75 76 -75 182q0 107 75 183zM1563 629q-34 48 -82 48h-72
q-45 0 -79 -45q-34 45 -80 45h-71q-48 0 -83 -48h-23v224h23q34 -48 83 -48h71q46 0 80 45q34 -45 79 -45h72q48 0 82 48h24v-224h-24z" />
    <glyph glyph-name="trademark" unicode="&#x2122;" horiz-adv-x="665" 
d="M196 1126q10 11 10 27v97q0 15 -9 26q9 11 9 26v104h-10q-15 0 -24 -10q-6 -7 -11 -22h-8v9q0 16 -8 29q-3 4 -7 8l-4 4l-2 2v8h220v-7q-15 -5 -30 -27q-17 -24 -20 -48q-3 -22 1 -38q4 -15 12 -19q8 -6 16 1q5 4 11 4q6 -1 9 -6q4 -8 -4 -13q-9 -7 -30 1q-18 5 -30 22
q-15 20 -17 46q-1 27 5 53l1 3h-20v-104q0 -15 10 -26q-10 -11 -10 -26v-97q0 -16 11 -27v-8h-71v8zM467 1204q5 0 10 -4q7 -6 16 -1q7 4 14 21q8 20 7 47q0 9 1 16q3 27 15 48q6 -22 7 -45q2 -38 -15 -68q-14 -26 -31 -32q-21 -8 -31 -1q-7 5 -3 13q2 6 8 6h2zM518 1188
q4 4 8 10q7 -2 12 2t11 4t9 -6q3 -8 -4 -13q-10 -7 -31 1q-2 1 -5 2zM381 1126q11 11 11 27v98q-1 15 -10 25q9 10 10 24v99q0 16 -11 27v8q31 0 60 -10q35 -12 57 -36q-11 -14 -18 -29q-17 18 -36 25l-3 1v-83q0 -15 10 -26q-10 -11 -10 -26v-97q0 -16 11 -27v-8h-71v8z
M562 1126q11 11 11 27v97q0 15 -10 26q10 11 10 26v83l-2 -1q-28 -10 -46 -34q-20 -26 -24 -65q-1 -10 -1 -19q0 -18 -4 -31q-2 -9 -5 -15q-15 30 -14 66q3 79 58 118q42 30 98 30v-8q-10 -11 -10 -27v-97q0 -15 9 -26q-9 -11 -9 -26v-97q0 -16 10 -27v-8h-71v8z" />
    <glyph glyph-name="minus" unicode="&#x2212;" horiz-adv-x="1105" 
d="M1048 615q-50 48 -121 48h-202q-68 0 -117 -45q-50 45 -117 45h-202q-70 0 -121 -48h-36v224h36q51 -48 121 -48h202q67 0 117 45q49 -45 117 -45h202q71 0 121 48h37v-224h-37z" />
    <glyph glyph-name="uni2215" unicode="&#x2215;" horiz-adv-x="755" 
d="M136 36q61 49 79 119l120 443q18 68 -14 118q58 48 77 115l118 443q18 71 -16 121l10 39h225l-10 -35q-61 -50 -80 -120l-119 -443q-18 -67 14 -117q-59 -49 -77 -117l-118 -443q-19 -69 16 -120l-10 -39h-225z" />
    <glyph glyph-name="uni2219" unicode="&#x2219;" horiz-adv-x="581" 
d="M194 609q40 39 96 39q57 0 97 -39q40 -40 40 -97q0 -56 -40 -96t-97 -40q-56 0 -96 40t-40 96q0 57 40 97z" />
    <glyph glyph-name="infinity" unicode="&#x221e;" horiz-adv-x="1586" 
d="M1236 847q-122 0 -254 -124l-7 -6l7 -6q130 -123 254 -123h202v259h-202zM1529 315q-50 48 -120 48h-173q-113 0 -220 73q-73 52 -176 166l-80 88q-45 49 -79 79q-90 78 -170 78h-250v-259h250q81 0 176 84l5 -6l6 -6l15 -15q19 -21 39 -42q11 -12 39 -41l7 -9l7 -8l5 -5
q-79 -84 -137 -123q-81 -54 -162 -54h-222q-70 0 -120 -48h-37v804h37q50 -48 120 -48h222q89 0 179 -66q60 -45 157 -152l6 -7l6 7q95 103 169 152q101 66 208 66h173q69 0 120 48h37v-804h-37z" />
    <glyph glyph-name="approxequal" unicode="&#x2248;" horiz-adv-x="1176" 
d="M409 925q-60 26 -95 26q-18 0 -30 -7q-45 -27 -35 -78q8 -38 -10 -66q-19 -28 -51 -27q-51 3 -56 53q-6 63 83 145q70 64 201 70q145 7 277 -65q234 -128 305 -86q45 28 35 78q-9 38 10 66q18 29 51 27q51 -3 56 -53q6 -63 -83 -145q-76 -70 -190 -88q-136 -23 -262 46
q-146 79 -206 104zM409 519q-60 26 -95 26q-18 0 -30 -7q-45 -27 -35 -78q8 -38 -10 -66q-19 -28 -51 -27q-51 3 -56 53q-6 63 83 145q70 64 201 70q145 7 277 -65q234 -128 305 -86q45 28 35 78q-9 38 10 66q18 29 51 27q51 -3 56 -53q6 -63 -83 -145q-76 -70 -190 -88
q-136 -23 -262 46q-146 79 -206 104z" />
    <glyph glyph-name="notequal" unicode="&#x2260;" horiz-adv-x="908" 
d="M615 684q-13 -8 -24 -18h297v-177h-36q-51 49 -121 49h-104q-62 0 -108 -37l-30 -113q-19 -69 15 -129l-10 -36l-216 58l9 36q60 35 78 104l31 117h-108q-69 0 -120 -49h-36v177h292q-1 39 -20 75q26 16 44 39h-316v176h36q51 -48 120 -48h105q66 0 114 43l23 86
q18 68 -15 130l9 34l217 -58l-10 -34q-59 -37 -77 -105l-26 -96h103q70 0 121 48h36v-176h-292q-5 -49 19 -96z" />
    <glyph glyph-name="lessequal" unicode="&#x2264;" horiz-adv-x="944" 
d="M214 961q83 -28 195 0l498 123q-6 -51 -65 -102q-66 -58 -161 -80l-274 -68l274 -68q95 -22 161 -80q59 -51 65 -102l-498 123q-112 28 -195 0l-63 15v224zM878 340q-40 48 -96 48h-161q-54 0 -92 -45q-40 45 -93 45h-160q-56 0 -96 -48h-29v224h29q40 -48 96 -48h160
q53 0 93 45q38 -45 92 -45h161q56 0 96 48h29v-224h-29z" />
    <glyph glyph-name="greaterequal" unicode="&#x2265;" horiz-adv-x="944" 
d="M907 946v-224l-63 -15q-83 28 -195 0l-498 -123q6 51 65 102q66 58 161 80l274 68l-274 68q-95 22 -161 80q-59 51 -65 102l498 -123q112 -28 195 0zM151 340v224h29q40 -48 96 -48h161q54 0 92 45q40 -45 93 -45h160q56 0 96 48h29v-224h-29q-40 48 -96 48h-160
q-53 0 -93 -45q-38 45 -92 45h-161q-56 0 -96 -48h-29z" />
    <glyph glyph-name="uniFB01" unicode="&#xfb01;" horiz-adv-x="1442" 
d="M132 37q48 50 48 120v443q0 68 -45 117q45 48 45 117v443q0 70 -48 120v37h804v-34q-67 -20 -137 -120q-76 -107 -90 -219q-13 -98 8 -173q17 -67 51 -87q40 -23 73 5q23 21 51 19t40 -26q17 -38 -17 -61q-43 -29 -138 4q-79 27 -137 104q-68 89 -74 209q-5 121 23 240
l3 10h-187v-548h57q13 0 33 -12q27 -16 62 -52q43 -43 153 -174q65 -77 50 -128q-12 -42 -54 -37q-27 4 -37 29q-11 26 1 55q13 31 -4 53q-25 33 -58 38q-5 1 -30 2q-36 1 -116 1h-57v-375q0 -70 49 -120v-37h-322v37zM1101 37q48 50 48 120v443q0 68 -45 117q45 48 45 117
v443q0 70 -48 120v37h321v-37q-48 -50 -48 -120v-443q0 -68 45 -117q-45 -49 -45 -117v-443q0 -70 48 -120v-37h-321v37z" />
    <glyph glyph-name="uniFB02" unicode="&#xfb02;" horiz-adv-x="1938" 
d="M132 37q48 50 48 120v443q0 68 -45 117q45 48 45 117v443q0 70 -48 120v37h804v-34q-67 -20 -137 -120q-76 -107 -90 -219q-13 -98 8 -173q17 -67 51 -87q40 -23 73 5q23 21 51 19t40 -26q17 -38 -17 -61q-43 -29 -138 4q-79 27 -137 104q-68 89 -74 209q-5 121 23 240
l3 10h-187v-548h57q13 0 33 -12q27 -16 62 -52q43 -43 153 -174q65 -77 50 -128q-12 -42 -54 -37q-27 4 -37 29q-11 26 1 55q13 31 -4 53q-25 33 -58 38q-5 1 -30 2q-36 1 -116 1h-57v-375q0 -70 49 -120v-37h-322v37zM1101 37q48 50 48 120v443q0 68 -45 117q45 49 45 116
v444q0 70 -48 120v37h322v-37q-49 -50 -49 -120v-444q0 -67 45 -116q-45 -49 -45 -117v-472h187l-3 11q-29 118 -23 239t74 211q58 77 137 103q95 32 139 3q33 -22 16 -59q-12 -25 -40 -27t-51 18q-33 30 -73 6q-34 -20 -51 -87q-21 -75 -8 -173q14 -112 90 -220
q70 -100 137 -119v-34h-804v37z" />
    <glyph glyph-name="uniFFFC" unicode="&#xfffc;" horiz-adv-x="819" 
d="M386 702h6q18 0 21 -32v-20q0 -1 1 -9q-1 -4 -1 -7v-39q0 -4 2 -8q0 -2 -1 -2h-14q-1 0 -1 2q3 6 3 13v30q0 6 -2 12q2 6 2 11v11q-2 28 -11 28h-6q-11 -3 -11 -14q2 -1 2 -7l-2 -3h-2q-1 0 -2 6q4 28 16 28zM124 699h36q1 -1 1 -3q-11 -13 -11 -33q0 -14 6 -15q0 3 4 3
l1 -3v-3q0 -2 -3 -3q-15 5 -15 30q0 3 1 16h-8v-36q0 -6 2 -10q-2 -4 -2 -8v-39h10q6 0 9 11q0 1 1 1q1 -2 3 -16q1 0 2 -4q0 -2 -1 -2h-36q-1 0 -1 2v1q2 5 2 11v33q0 3 -2 11q2 1 2 9v33q0 6 -2 10v1q0 3 1 3zM169 699h36q2 -1 2 -3q-3 -6 -3 -10v-33q0 -5 2 -11
q-2 -6 -2 -12v-32q0 -5 3 -11q0 -2 -2 -2h-36q-1 0 -1 2q2 6 2 10v37q0 4 -2 8q2 4 2 8v37q0 2 -2 10zM217 699h13q1 -1 1 -3q-2 -6 -2 -12v-31q0 -5 2 -11q-2 -6 -2 -15v-32h8l-1 14v7q0 22 16 26l2 -5v-1q0 -2 -2 -4l-5 4q-4 -3 -4 -14v-2q0 -20 11 -34l-1 -1h-36
q-2 0 -2 2q2 4 2 8v39q0 1 -1 9q1 4 1 7v38q0 4 -2 8q0 3 2 3zM261 699h14q1 -1 1 -3q-2 -5 -2 -9v-37q0 -4 2 -8q-2 -4 -2 -8v-39h12v36q0 6 -2 11q2 4 2 10v33q0 6 -2 10v1q0 3 1 3h13q1 -1 1 -3v-1q-2 -4 -2 -8v-35q0 -6 2 -10q-2 -5 -2 -11v-34q0 -4 2 -9v-1q0 -2 -1 -2
h-37q-1 0 -1 2q3 6 3 13v30q0 6 -2 12q2 6 2 11v31q0 6 -3 12q0 3 1 3zM310 699q14 0 24 -17v-1q-3 -6 -3 -8h-2q-5 7 -7 7v-30q0 -4 2 -8q-2 -4 -2 -8v-37q0 -3 2 -11l-2 -1h-12q-2 0 -2 2v1q3 5 3 11v33q0 4 -3 10q3 6 3 9v34q0 6 -3 10v1q1 3 2 3zM362 699q1 -1 1 -3v-1
q-2 -4 -2 -10v-34q0 -3 2 -9q-2 -6 -2 -10v-33q0 -6 2 -11v-1q0 -2 -1 -2h-13q-1 0 -1 2q2 6 2 10v37q0 4 -2 8q2 4 2 8v30h-1q-15 -9 -15 -54q-1 0 -1 -3h-1q-2 0 -3 20q0 42 25 54q5 2 8 2zM454 699h36q1 -1 1 -3q-11 -11 -11 -32v-3q0 -9 4 -13q4 3 6 3l1 -3v-2
q-1 -4 -3 -4q-13 0 -15 29v2q0 10 2 15h-10v-21q3 -26 12 -26q0 -5 10 -24q2 -21 4 -29v-1q0 -2 -1 -2h-36q-2 0 -2 2q2 4 2 8v32q0 1 -2 3h-1l-3 -1l-2 5v1q0 2 3 3q4 0 16 -22v-21h12v12q-3 20 -10 20q0 4 -11 24q-2 9 -2 20v17q0 4 -2 8q0 3 2 3zM500 699h13q1 -1 1 -3
q-2 -4 -2 -8v-38q0 -1 2 -9q-2 -4 -2 -7v-39q0 -4 2 -8q0 -2 -1 -2h-13q-2 0 -2 2q3 6 3 13v27q0 9 -2 15q2 6 2 11v31q0 6 -3 12q1 3 2 3zM524 699h1q14 0 24 -17v-1l-4 -9q-6 8 -8 8v-30q0 -4 2 -8q-2 -4 -2 -8v-37q0 -3 2 -11l-1 -1h-14q-1 0 -1 2q3 6 3 11v32q0 6 -2 12
q2 6 2 11v33q0 4 -3 10q0 3 1 3zM577 699q1 -1 1 -3v-1q-2 -4 -2 -8v-35q0 -6 2 -10q-2 -5 -2 -11v-34q0 -4 2 -9v-1q0 -2 -1 -2h-13q-1 0 -1 2v1q2 5 2 9v34q0 6 -2 11q2 4 2 10v28h-1q-15 -10 -15 -51l-1 -6h-1q-2 0 -3 21q0 39 23 52q5 3 10 3zM591 699h36q2 -1 2 -3
q-3 -6 -3 -12v-43q0 -24 -20 -29h-3v-13q0 -6 2 -11v-1q0 -2 -1 -2h-13q-2 0 -2 2v1q3 5 3 9v19q-8 11 -8 22v4q0 1 2 3h1q2 0 2 -2v-4l-2 -3q0 -14 14 -14h3q8 0 11 21v45h-12v-37q0 -2 2 -10q-2 0 -3 -14h-1q-9 0 -9 5v55q0 4 -3 8v1q1 3 2 3zM636 699h14q1 -1 1 -3
q-3 -3 -3 -30v-9q0 -10 2 -14v-2l-1 -4v-42h8q-1 6 -1 15v3q2 29 16 29q2 -2 2 -4v-2q0 -4 -2 -4q-4 4 -5 4q-4 -6 -4 -14v-2q0 -19 11 -34l-1 -1h-37q-1 0 -1 2q3 5 3 19v18q0 12 -2 18q2 5 2 17v19q0 13 -3 18q0 3 1 3zM682 699h36q1 -1 1 -3q-11 -12 -11 -33q1 -15 6 -15
q0 3 4 3l1 -3v-3q0 -2 -3 -3q-15 4 -15 30q0 4 1 16h-8v-43q8 0 17 -26v-4q0 -2 -2 -2h-1q-2 0 -2 4l1 6l-3 4h-10v-32h9q4 0 8 12q2 -13 6 -20q0 -2 -1 -2h-34q-1 0 -1 2v1q2 5 2 11v33q0 4 -2 10q2 6 2 9v34q0 6 -2 10v1q0 3 1 3zM181 688v-35q0 -5 2 -11q-2 -6 -2 -12
v-35h12v39q0 4 -2 8q2 4 2 8v38h-12zM388 688l1 -2v-29q0 -10 2 -15q-2 -6 -2 -15v-27q0 -7 3 -13q0 -2 -2 -2h-13q-1 0 -1 2q2 4 2 8v39q0 1 -2 9q2 4 2 7v31q0 5 10 7zM340 660h1q2 -14 2 -17q-3 -35 -13 -35h-4q-1 0 -1 2v3q0 1 2 3h1l2 -2h2q4 0 7 42q1 0 1 4zM556 660
h1q0 -2 1 -17q-3 -35 -13 -35h-4q-1 0 -1 2v3q0 3 3 3q2 -2 4 -2v0q4 0 7 42q1 4 2 4zM346 616q1 0 1 -2v-4q0 -2 -1 -2h-4l-3 1v1q0 4 7 6zM559 616h1q1 0 2 -3v-3q0 -2 -1 -2h-4l-3 1v3q0 1 5 4zM412 507h7q19 -6 19 -31v-19q0 -6 2 -10q-2 -6 -2 -9v-18q0 -25 -21 -30
h-14q-1 0 -1 2v1q2 5 2 11v34q0 3 -2 9q2 6 2 9v31q0 4 7 5h3q1 0 1 -2v-35q0 -4 2 -8q-2 -4 -2 -8v-39h1q11 6 11 21v15q0 6 -2 11q2 4 2 8v21q-3 21 -11 21h-5q-7 0 -11 -11v-3l1 -4v-2q0 -2 -2 -4h-1q-1 0 -2 4v3q4 27 16 27zM789 507h8q10 0 17 -18q2 -6 2 -16v-18
q0 -4 2 -8q-2 -4 -2 -8v-37q0 -3 2 -11l-1 -1h-14q-1 0 -1 2q3 5 3 12v34q0 3 -2 9q2 6 2 9v15q0 22 -11 26h-4q-10 0 -13 -12q2 -6 2 -9l-2 -3h-2q-1 0 -2 6q4 28 16 28zM1 504h37q1 -1 1 -3q-11 -12 -11 -29v-3q1 -16 4 -16l4 3h1q1 0 2 -3v-2q-1 -4 -4 -4q-11 0 -14 25v7
l1 14h-9v-35q0 -5 2 -11q-2 -6 -2 -12v-35h12q4 0 9 12q0 -10 5 -20q0 -2 -1 -2h-37q-1 0 -1 2q2 6 2 10v37q0 1 -1 9q1 4 1 7v36q0 6 -2 10q0 3 1 3zM46 504h13q1 -1 1 -3v-1q-2 -4 -2 -10v-30q0 -11 6 -19q6 11 6 16v35q0 4 -2 8v1q0 3 1 3h13q1 -1 1 -3v-1q-2 -4 -2 -10
v-33q0 -10 -11 -28v-29q0 -4 2 -8q0 -2 -1 -2h-14q-1 0 -1 2q3 6 3 13v23q-12 19 -12 30v34q0 2 -2 11zM93 504h36q1 -1 1 -3q-2 -5 -2 -9v-14q0 -23 -10 -30v-2q10 -8 10 -31v-13q0 -3 2 -11l-1 -1h-13q-2 0 -2 2q3 6 3 11v12q0 22 -12 27v-42q0 -4 2 -8q0 -2 -1 -2h-13
q-2 0 -2 2q3 6 3 17v29q-5 -4 -5 -11q1 0 1 -2v-5q0 -2 -1 -2h-1q-2 1 -2 7q2 28 22 28q9 6 9 25v15h-12v-35q0 -2 -10 -4v-1l-1 2v30q0 11 -3 16q0 3 2 3zM140 504h14q1 -1 1 -3q-2 -5 -2 -9v-37q0 -4 2 -8q-2 -4 -2 -8v-37q0 -3 2 -11l-1 -1h-14q-1 0 -1 2q3 6 3 13v30
q0 6 -3 12q3 6 3 11v31q0 6 -3 12q0 3 1 3zM165 504h13q1 -1 1 -3v-1q-2 -4 -2 -8v-37q0 -4 2 -8q-2 -4 -2 -8v-39h9q-2 11 -2 19q3 28 16 28q3 -2 3 -4v-2q0 -3 -3 -3l-4 3q-3 0 -5 -15q0 -19 12 -35l-2 -1h-36q-1 0 -1 2v1q2 5 2 11v34q0 3 -2 9q2 6 2 9v34q0 6 -2 10v1
q0 3 1 3zM210 504h14q1 -1 1 -3q-3 -4 -3 -11v-34q0 -3 2 -9q-2 -6 -2 -9v-38h9l-1 12v10q0 20 15 25q3 -2 3 -5q0 -2 -3 -4l-4 3q-4 -2 -4 -13v-4q0 -17 10 -33l-1 -1h-36q-1 0 -1 2q2 6 2 10v37q0 4 -2 8q2 4 2 8v37q0 2 -2 11zM255 504h13q2 -1 2 -3q-2 -4 -2 -8v-39
q0 -3 1 -7q-1 -4 -1 -7v-40q0 -4 2 -8q0 -2 -2 -2h-13q-1 0 -1 2q3 5 3 19v18q0 12 -3 18q3 5 3 17v19q0 13 -3 18q0 3 1 3zM280 504h36q2 -1 2 -3q-12 -12 -12 -33q0 -11 5 -15q3 3 5 3l2 -3v-3q-1 -3 -5 -3q-11 0 -14 28v2q0 10 2 16h-9v-38q2 -8 2 -9q-2 -4 -2 -7v-39h12
q4 0 8 12q1 -13 6 -20q0 -2 -2 -2h-36q-2 0 -2 2q3 6 3 13v30q0 6 -2 12q2 6 2 11v31q0 6 -3 12q0 3 2 3zM350 504h37q1 -1 1 -3q-2 -5 -2 -9v-50q0 -2 -1 -2h-3q-4 0 -7 7v46h-12v-46l5 7h1l5 -13q4 -6 9 -6h1q4 0 6 7v2l-1 4v3q0 3 1 3h2q1 0 2 -4v-2q0 -12 -8 -22v-24
q0 -3 2 -11l-1 -1h-13q-1 0 -1 2v1q2 5 2 11v21q-4 0 -12 11v-36q0 -4 2 -8q0 -2 -1 -2h-14q-1 0 -1 2q3 6 3 13v27q0 9 -2 15q2 5 2 15v27q0 6 -3 12q0 3 1 3zM449 504h37q1 -1 1 -3q-3 -6 -3 -12v-47q0 -2 -1 -2h-1q-6 0 -9 8v45h-12v-46l5 7h2q5 -19 12 -19h2q7 1 7 9
q-2 2 -2 7l2 3h2q1 0 2 -6q0 -10 -9 -23v-20q0 -7 3 -13q0 -2 -1 -2h-14q-1 0 -1 2q2 4 2 8v24q-7 6 -12 14v-34q0 -6 2 -11v-1q0 -2 -1 -2h-13q-1 0 -1 2q2 6 2 10v37q0 4 -2 8q2 4 2 8v37q0 2 -2 11zM505 504h37q1 -1 1 -3v-1q-2 -4 -2 -8v-42q0 -21 -12 -30q-3 -3 -9 -3
h-2v-15q0 -3 2 -11l-1 -1h-14q-1 0 -1 2q3 6 3 13v15q-9 14 -9 26q1 4 2 4h2q2 0 2 -4q-1 -6 -2 -6q3 -13 14 -13h3q8 0 11 22v44h-12v-38q0 -1 1 -9l-2 -14h-3q-7 1 -7 6v51q0 6 -3 12q0 3 1 3zM552 504h45q2 -1 2 -3q-12 -12 -12 -29v-7q1 -12 5 -12l3 3h2q1 0 2 -6
q-3 -3 -5 -3q-10 0 -14 25v7l1 14h-3v-38q0 -4 2 -8q-2 -4 -2 -8v-37q0 -4 2 -9v-1q0 -2 -2 -2h-12q-2 0 -2 2v1q2 5 2 11v34q0 3 -2 9q2 6 2 9v37h-1q-8 -2 -8 -11h-1q-1 1 -4 16q-1 0 -2 3q0 3 2 3zM606 504h36q1 -1 1 -3q-2 -6 -2 -12v-47q0 -2 -2 -2h-1q-6 0 -9 8v45
h-11v-46l4 7h2q6 -19 12 -19h2q5 0 7 6v1q-2 8 -2 9l3 3h1q1 0 2 -6q-3 -21 -8 -21v-22q0 -7 2 -13q0 -2 -1 -2h-13q-2 0 -2 2q2 6 2 10v22q-7 6 -11 14v-34q0 -6 2 -11v-1q0 -2 -2 -2h-12q-2 0 -2 2v1q2 5 2 9v37q0 4 -2 8q2 4 2 8v37q0 4 -2 8v1q0 3 2 3zM650 504h46
q1 -1 1 -3q-11 -12 -11 -29v-3q1 -16 4 -16q4 3 6 3q1 -4 1 -6q-2 -3 -4 -3q-10 0 -14 25v7l1 14h-4v-36q0 -6 3 -10q-3 -5 -3 -11v-34q0 -4 3 -9v-1q0 -2 -2 -2h-13q-1 0 -1 2v1q2 5 2 11v34q0 3 -2 9q2 6 2 9v37h-1q-6 0 -9 -10v-1q-1 1 -4 16q-1 0 -2 3q0 3 1 3zM704 504
h13q1 -1 1 -3v-1q-2 -4 -2 -10v-34q0 -3 2 -9q-2 -6 -2 -9v-34q0 -6 2 -11v-1q0 -2 -1 -2h-13q-1 0 -1 2q2 6 2 10v37q0 4 -2 8q2 4 2 8v37q0 2 -2 11zM729 504h36q2 -1 2 -3q-3 -6 -3 -10v-33q0 -5 2 -11q-2 -6 -2 -12v-32q0 -5 3 -11q0 -2 -2 -2h-36q-1 0 -1 2q2 6 2 10
v37q0 4 -2 8q2 4 2 8v37q0 2 -2 11zM741 493v-35q0 -5 2 -11q-2 -6 -2 -12v-35h12v39q0 4 -2 8q2 4 2 8v38h-12zM792 493l1 -2v-36q1 -8 1 -9q-1 -4 -1 -7v-39q0 -4 2 -8q0 -2 -2 -2h-13q-1 0 -1 2q3 6 3 13v27q0 9 -3 15q3 5 3 15v25q0 4 10 6zM383 309h36q2 -1 2 -3
q-3 -5 -3 -9v-16q0 -20 -9 -28v-2q9 -8 9 -28v-16q0 -2 3 -11l-2 -1h-36q-2 0 -2 2q3 6 3 13v33q-2 0 -5 -9q2 -5 2 -9l-2 -2h-1q-2 0 -2 6q3 29 21 29q10 6 10 22v18h-12v-35q0 -2 -9 -4q0 -1 -1 -1l-1 2v34q0 6 -3 12q1 3 2 3zM429 309h13q1 -1 1 -3v-1q-2 -4 -2 -8v-32
q0 -11 6 -19q6 10 6 19v32q0 4 -2 8v1q0 3 1 3h13q1 -1 1 -3v-1q-2 -4 -2 -8v-34q0 -11 -12 -30v-17q0 -14 3 -19q0 -2 -1 -2h-14q-1 0 -1 2q2 5 2 8v29q-11 18 -11 29v34q0 4 -2 8v1q0 3 1 3zM395 247v-42h12v19q-3 23 -12 23zM586 117h8q19 -6 19 -31v-21q0 -4 2 -8
q-2 -5 -2 -11v-12q0 -25 -16 -33q-1 -1 -5 -1h-15q-2 0 -2 2q3 6 3 13v30q0 6 -2 12q2 6 2 11v29q0 4 7 5h3q1 0 1 -2v-35q0 -1 2 -9q-2 -4 -2 -7v-39h1q9 0 11 22v16q0 2 -2 10q2 1 2 9v18q-2 22 -10 22h-4q-10 0 -13 -11v-3l1 -4v-2q0 -2 -2 -3v0q-1 0 -2 3v6q0 17 15 24z
M229 114h13q1 -1 1 -3v-1q-2 -4 -2 -10v-43l5 7h1q6 -19 13 -19h1q6 0 8 7q-2 6 -2 10l2 2h2q1 0 2 -6q0 -10 -9 -23v-20q0 -7 3 -13q0 -2 -1 -2h-14q-1 0 -1 2q2 5 2 8v24q-7 6 -12 14v-34q0 -6 2 -11v-1q0 -2 -1 -2h-13q-1 0 -1 2q2 6 2 10v37q0 4 -2 8q2 4 2 8v37
q0 2 -2 11zM252 114h14q1 -1 1 -3q-3 -6 -3 -12v-47q0 -2 -1 -2h-3q-4 0 -7 8v45q0 4 -2 8q0 3 1 3zM280 114h35q2 -1 2 -3q-11 -13 -11 -32q0 -15 5 -16q1 3 4 3l2 -3v-3q0 -2 -4 -3q-14 5 -14 30q0 3 1 16h-8v-43q7 0 16 -24v-6q0 -2 -1 -2h-1q-2 0 -2 4v6l-3 4h-9v-32h9
q4 0 8 12q2 -13 6 -20q0 -2 -2 -2h-33q-2 0 -2 2v1q2 5 2 11v34q0 3 -2 9q2 6 2 9v34q0 6 -2 10v1q0 3 2 3zM356 114h36q1 -1 1 -3v-1q-2 -4 -2 -10v-18q0 -13 -9 -25q9 -12 9 -26v-17q0 -6 2 -11v-1q0 -2 -1 -2h-13q-1 0 -1 2v1q2 5 2 9v18q-3 22 -12 22v-40q0 -4 2 -9v-1
q0 -2 -1 -2h-13q-1 0 -1 2v1q2 5 2 11v34q-1 0 -5 -9l2 -5v-3q0 -1 -2 -3h-1q-1 0 -3 4q0 28 25 32q7 8 7 20v19h-12v-35q0 -1 -11 -5v2v35q0 6 -2 10v1q0 3 1 3zM404 114h35q2 -1 2 -3q-11 -14 -11 -32q1 -15 5 -16l3 3h1q1 0 2 -3v-3q0 -2 -4 -3q-14 5 -14 30l1 16h-8v-43
h3q8 -10 13 -24v-6q0 -2 -1 -2h-1q-2 0 -2 4v6l-3 4h-9v-32h9q4 0 8 12q2 -13 6 -20q0 -2 -2 -2h-33q-2 0 -2 2v1q2 5 2 9v34q0 6 -2 11q2 4 2 10v35q0 4 -2 8v1q1 3 2 3zM449 114h36q1 -1 1 -3q-2 -6 -2 -12v-25q0 -9 -12 -30q0 -2 -7 -8q-4 -12 -4 -22v-4h11v17q0 9 17 26
h1q1 0 3 -4q0 -3 -8 -5q-1 -4 -1 -9v-20q0 -7 2 -13q0 -2 -1 -2h-36q-2 0 -2 2q2 5 4 28l11 23q0 2 7 10q3 6 3 11v29h-8q1 -5 1 -18q-2 -28 -15 -28q-3 2 -3 3v3q0 3 3 3q4 -2 4 -3q4 0 4 17t-11 33zM525 114h36q2 -1 2 -3q-2 -5 -2 -9v-50q0 -2 -2 -2h-2q-5 0 -7 7v46h-13
v-46h1l5 7v0q7 -19 14 -19q8 2 8 8q-1 4 -1 7v2q0 2 1 2h1q1 0 2 -4v-2q0 -12 -7 -22v-24q0 -2 2 -11l-2 -1h-13q-1 0 -1 2q3 6 3 13v20q-5 0 -13 13v-29q0 -11 3 -17q0 -2 -2 -2h-13q-1 0 -1 2q2 5 2 8v42l-2 4v2l2 4v41q0 4 -2 8q0 3 1 3z" />
    <glyph glyph-name="uni0444.001" horiz-adv-x="1344" 
d="M841 833q0 -67 45 -116q-45 -49 -45 -117v-222q-161 2 -225 209v571h225v-325zM1233 1009l91 -401q0 -183 -132 -300q-133 -118 -343 -118h-9v-33q0 -70 49 -120v-37h-322v37q48 50 48 120v99l-4 3q-99 67 -144 195q-33 95 -4 138q23 34 60 16q25 -11 27 -38
q2 -28 -18 -52q-29 -34 -6 -73q45 -75 129 -105q71 -26 194 -26q91 0 166 80q84 88 84 214v550zM616 939l225 -352q-64 -207 -225 -209v222q0 68 -45 117q45 49 45 116v325v0v-219zM357 608q0 -126 84 -214q75 -80 166 -80q123 0 194 26q84 30 129 105q23 39 -6 73
q-20 24 -18 52q2 27 27 38q37 18 60 -16q29 -43 -4 -138q-45 -128 -144 -195l-4 -3v-99q0 -70 48 -120v-37h-322v37q49 50 49 120v33h-9q-210 0 -343 118q-132 117 -132 300l44 284l181 266v-550zM357 277l-225 331v219q0 183 132 300q133 118 343 118h9v32q0 70 -49 120v37
h322v-37q-48 -50 -48 -120v-98l4 -3q99 -67 144 -195q33 -95 4 -138q-23 -34 -60 -16q-25 11 -27 38q-2 28 18 52q29 34 6 73q-45 75 -129 105q-71 26 -194 26q-91 0 -166 -80q-84 -88 -84 -214v-550zM616 799v91.5v92.5v74q161 -2 225 -61l-225 -352v155zM1099 277v550
q0 126 -84 214q-75 80 -166 80q-123 0 -194 -26q-84 -30 -129 -105q-23 -39 6 -73q20 -24 18 -52q-2 -27 -27 -38q-37 -18 -60 16q-29 43 4 138q45 128 144 195l4 3v98q0 70 -48 120v37h322v-37q-49 -50 -49 -120v-32h9q210 0 343 -118q132 -117 132 -300v-219zM841 277
h-225v719q64 59 225 61v-74v-117t0 32v-621z" />
    <glyph glyph-name="NULL" horiz-adv-x="0" 
 />
    </font>
</defs>
</svg>
