<?xml version="1.0" standalone="no"?>
<!DOCTYPE svg PUBLIC "-//W3C//DTD SVG 1.1//EN" "http://www.w3.org/Graphics/SVG/1.1/DTD/svg11.dtd" >
<svg xmlns="http://www.w3.org/2000/svg" xmlns:xlink="http://www.w3.org/1999/xlink" version="1.1">
<metadata>
Created by FontForge 20201107 at Thu Aug 12 09:35:24 2021
 By 
Copyright (c) 2021 by I MADE DWI PUTRA YOGA. All rights reserved.
</metadata>
<defs>
<font id="Blackmild-Regular" horiz-adv-x="389" >
  <font-face 
    font-family="Black mild"
    font-weight="400"
    font-stretch="normal"
    units-per-em="1000"
    panose-1="0 0 5 0 0 0 0 0 0 0"
    ascent="800"
    descent="-200"
    x-height="500"
    cap-height="717"
    bbox="-146 -458.018 1153 882"
    underline-thickness="50"
    underline-position="-100"
    unicode-range="U+0020-2265"
  />
<missing-glyph horiz-adv-x="500" 
d="M410 -200h-317v1000h317v-1000zM168 733v-33h65v-37h-66v-33h166v33h-66v37h66v33h-165zM167 604v-104h166v34h-66v70h-100zM233 534h-33v36h33v-36zM167 473v-33h66v-37h-66v-33h100v70h66v33h-166zM300 413v-66h-133v-34h166v100h-33zM233 291v-56h34v23h33v-47h-100
v80h-33v-113h166v113h-100zM167 118v-113h166v113h-166zM300 38h-100v47h100v-47zM167 -18v-33h70l-70 -47v-33h166v33h-102l70 47h32v33h-166z" />
    <glyph glyph-name=".notdef" horiz-adv-x="500" 
d="M410 -200h-317v1000h317v-1000zM168 733v-33h65v-37h-66v-33h166v33h-66v37h66v33h-165zM167 604v-104h166v34h-66v70h-100zM233 534h-33v36h33v-36zM167 473v-33h66v-37h-66v-33h100v70h66v33h-166zM300 413v-66h-133v-34h166v100h-33zM233 291v-56h34v23h33v-47h-100
v80h-33v-113h166v113h-100zM167 118v-113h166v113h-166zM300 38h-100v47h100v-47zM167 -18v-33h70l-70 -47v-33h166v33h-102l70 47h32v33h-166z" />
    <glyph glyph-name=".null" horiz-adv-x="0" 
 />
    <glyph glyph-name="nonmarkingreturn" horiz-adv-x="333" 
 />
    <glyph glyph-name="space" unicode=" " horiz-adv-x="300" 
 />
    <glyph glyph-name="exclam" unicode="!" horiz-adv-x="600" 
d="M198 700h104v-533h-104v533zM212.5 15.5q-15.5 15.5 -15.5 37.5t15.5 37.5t37.5 15.5q21 0 36.5 -15.5t15.5 -37.5t-15.5 -37.5t-36.5 -15.5q-22 0 -37.5 15.5z" />
    <glyph glyph-name="quotedbl" unicode="&#x22;" horiz-adv-x="275" 
d="M30 708h85l-18 -206h-58zM160 708h85l-18 -206h-58z" />
    <glyph glyph-name="numbersign" unicode="#" horiz-adv-x="685" 
d="M625 409h-106l-29 -100h118l-30 -90h-114l-64 -219h-94l64 219h-126l-64 -219h-94l64 219h-120l29 90h117l29 100h-128l29 90h125l58 201h94l-58 -201h126l58 201h94l-58 -201h110zM396 309l29 100h-126l-29 -100h126z" />
    <glyph glyph-name="dollar" unicode="$" horiz-adv-x="574" 
d="M354 409q70 -27 108.5 -49t62 -64t18.5 -112q-4 -47 -32.5 -89t-78 -69t-113.5 -30v-75h-79v81l-16 3q-60 13 -104 47t-67 80t-23 93q0 44 20.5 81.5t61.5 60.5l29 1q-34 -15 -53 -50t-19 -79q0 -65 40 -119.5t118 -74.5l13 -3v316l-81 33q-53 22 -79 60t-26 82
q0 47 25.5 89.5t65.5 60.5q50 23 95 23v64l78 -1v-70q10 -1 17.5 -3t12.5 -3q41 -11 78 -11q18 0 28 4t19 11q12 10 23 10q9 0 24 -6q-29 -27 -48.5 -84.5t-24.5 -111.5l-35 3q6 38 6 57q0 32 -16.5 57.5t-55.5 33.5q-18 4 -28 5v-238zM240 458v206q-46 -5 -75 -31.5
t-29 -60.5q0 -39 39 -71q29 -23 65 -43zM417 80.5q34 39.5 34 93.5q0 8 -2 26q-7 43 -34 69t-96 57v-290q64 5 98 44.5z" />
    <glyph glyph-name="percent" unicode="%" horiz-adv-x="916" 
d="M111.5 359.5q-39.5 26.5 -60.5 68t-21 89.5q0 83 47 131.5t127 51.5h5h4q80 -3 127 -51.5t47 -131.5q0 -48 -21 -89.5t-60.5 -68t-92.5 -30.5h-4h-5q-53 4 -92.5 30.5zM621 700h94l-420 -700h-94zM143.5 398.5q21.5 -47.5 65.5 -51.5q43 4 64.5 51.5t23.5 118.5
q-4 163 -88 165q-85 -2 -89 -165q2 -71 23.5 -118.5zM865 98.5q-21 -41.5 -60.5 -68t-92.5 -30.5h-4h-5q-53 4 -92.5 30.5t-60.5 68t-21 89.5q0 83 47 131.5t127 51.5h5h4q80 -3 127 -51.5t47 -131.5q0 -48 -21 -89.5zM772.5 69.5q21.5 47.5 23.5 118.5q-4 163 -88 165
q-85 -2 -89 -165q2 -71 23.5 -118.5t65.5 -51.5q43 4 64.5 51.5z" />
    <glyph glyph-name="ampersand" unicode="&#x26;" horiz-adv-x="672" 
d="M610.5 -18.5q-12.5 -17.5 -12.5 -39.5q0 -8 1 -13q-22 28 -60 49t-84 29q7 3 12.5 11t5.5 16q0 9 -5 14l-49 54q-53 -96 -74 -202q-6 13 -45 32.5t-94 39.5q-48 16 -88.5 22t-87.5 6q11 3 19.5 14t8.5 24v216q0 15 -8 25t-18 14q34 0 169 53l-45 50q-19 20 -32.5 29
t-38.5 19q11 4 18.5 15.5t7.5 23.5v166q0 12 -7.5 23.5t-18.5 15.5q54 22 78 78q14 -30 29 -45q15 -12 40.5 -18t55.5 -6q31 0 57.5 6t38.5 17q18 20 30 46q24 -56 78 -78q-11 -4 -18.5 -15.5t-7.5 -23.5v-166v-1q0 -11 7.5 -22.5t18.5 -15.5q-18 -7 -43 -24l-17 -12
q-30 -19 -131 -58l129 -144q97 92 192 108q-88 -49 -159 -144l111 -124q11 -14 30.5 -26.5t37.5 -12.5q-19 -8 -31.5 -25.5zM339 666q-23 6 -54 6q-27 0 -48 -5.5t-22 -15.5v-2v-166q0 -11 9 -22.5t20 -16.5q-12 -4 -12 -11q0 -4 11 -18l33 -37q40 18 61 40q9 9 9 15
q0 7 -13 11q11 5 20 16.5t9 22.5v166q0 11 -23 17zM326.5 80.5q20.5 33.5 50.5 68.5l-151 169q-29 -16 -42.5 -33t-17 -32.5t-4.5 -40.5v-138l138 -50q6 23 26.5 56.5z" />
    <glyph glyph-name="quotesingle" unicode="'" horiz-adv-x="145" 
d="M30 708h85l-18 -206h-58z" />
    <glyph glyph-name="parenleft" unicode="(" horiz-adv-x="353" 
d="M179.5 -80.5q-67.5 71.5 -108.5 182.5t-41 224q0 114 38 206.5t102 145t139 52.5v-38q-57 0 -96.5 -52t-59 -136.5t-19.5 -184.5q0 -108 22.5 -207.5t65.5 -162t101 -64.5v-38q-76 1 -143.5 72.5z" />
    <glyph glyph-name="parenright" unicode=")" horiz-adv-x="353" 
d="M131 -50.5q43 62.5 65.5 162t22.5 207.5q0 100 -19.5 184.5t-59 136.5t-96.5 52v38q75 0 139 -52.5t102 -145t38 -206.5q0 -113 -41 -224t-108.5 -182.5t-143.5 -72.5v38q58 2 101 64.5z" />
    <glyph glyph-name="asterisk" unicode="*" horiz-adv-x="373" 
d="M223 515l32 22l88 -62l-44 -64l-76 53v-92h-78v89l42 29l-42 29v37l-27 -19l-88 62l45 65l70 -49v85h78v-89l-36 -26l36 -25v-45zM255 537l-32 23v51l75 53l45 -65zM118 537l27 -18v-58l-71 -50l-44 64z" />
    <glyph glyph-name="plus" unicode="+" 
d="M359 290v-79h-126v-125l-77 -1v126h-126l1 78h125v125h78v-124h125z" />
    <glyph glyph-name="comma" unicode="," horiz-adv-x="174" 
d="M73 -43q19 0 19 24q0 6 -4.5 9.5t-15.5 8.5q-20 9 -31 20.5t-11 35.5q0 16 13 33.5t40 17.5q32 0 48 -28t13 -76q-1 -29 -19 -45.5t-44 -16.5q-13 0 -25 4l9 14q3 -1 8 -1z" />
    <glyph glyph-name="hyphen" unicode="-" 
d="M31 289l328 1v-79h-329z" />
    <glyph glyph-name="period" unicode="." horiz-adv-x="165" 
d="M45.5 15.5q-15.5 15.5 -15.5 37.5t15.5 37.5t37.5 15.5q21 0 36.5 -15.5t15.5 -37.5t-15.5 -37.5t-36.5 -15.5q-22 0 -37.5 15.5z" />
    <glyph glyph-name="slash" unicode="/" horiz-adv-x="845" 
d="M451 700h94l-421 -854h-94z" />
    <glyph glyph-name="zero" unicode="0" horiz-adv-x="585" 
d="M427.5 655.5q59.5 -44.5 93.5 -124t34 -179.5q0 -93 -33.5 -173.5t-93 -129.5t-135.5 -50v3l-1 -3q-76 1 -135.5 50t-93 129.5t-33.5 173.5q0 100 34 179.5t93.5 124t134.5 44.5l1 -3v3q75 0 134.5 -44.5zM377.5 88q35.5 47 54 120t18.5 153q0 78 -17.5 146t-53 110.5
t-86.5 44.5q-51 -2 -87 -44.5t-53.5 -110.5t-17.5 -146q0 -80 18.5 -153t54.5 -120t85 -51q49 4 84.5 51z" />
    <glyph glyph-name="one" unicode="1" horiz-adv-x="378" 
d="M348 0h-318l7 37q52 0 76 15t24 52v499q-9 -9 -28.5 -14t-42.5 -5q-9 0 -25 2v19q56 0 96 36q20 18 32.5 38t14.5 23h57v-598q0 -38 24 -53t76 -14z" />
    <glyph glyph-name="two" unicode="2" horiz-adv-x="563" 
d="M519 246l-3 -160l-1 -86h-482q-3 30 -3 55q0 92 32 148t81 87.5t136 69.5q50 20 82 37q32 15 48 45.5t16 67.5q0 38 -16.5 72.5t-48 57t-73.5 22.5q-40 2 -75 -3q-63 -8 -78 -67q-3 -18 -3 -37q0 -12 2 -38h-35q0 55 -14.5 114t-40.5 88q12 4 21 4q14 0 24 -12
q11 -9 19.5 -13.5t25.5 -5.5q42 -2 80 4q34 5 81 5q104 0 162 -33q33 -19 55 -59.5t22 -86.5q0 -63 -45.5 -116t-143.5 -79q-127 -34 -197 -91.5t-79 -131.5h337q46 0 63.5 28.5t17.5 76.5q0 13 -2 37h35z" />
    <glyph glyph-name="three" unicode="3" horiz-adv-x="550" 
d="M480 425q-40 -41 -122 -59q84 -29 122.5 -79t38.5 -109q0 -45 -22 -85.5t-54 -59.5q-41 -24 -85.5 -28.5t-95.5 -4.5q-27 0 -62 5q-38 6 -80 4q-17 -1 -25.5 -5.5t-19.5 -13.5q-10 -12 -24 -12q-9 0 -21 4q26 29 40.5 88t14.5 114h35q-2 -24 -2 -38q0 -19 3 -37
q15 -59 78 -67q35 -5 75 -3q42 0 72.5 21t46 53.5t15.5 69.5t-15 69t-45 52q-23 15 -75.5 29t-102.5 15h-7l2 55q98 0 151.5 13t74.5 38.5t21 66.5q0 35 -17.5 67.5t-49 53t-71.5 20.5q-40 2 -75 -3q-63 -8 -78 -67q-3 -18 -3 -37q0 -12 2 -38h-35q0 55 -14.5 114t-40.5 88
q12 4 21 4q14 0 24 -12q11 -9 19.5 -13.5t25.5 -5.5q42 -2 80 4q34 5 81 5q104 0 162 -33q32 -18 54.5 -55.5t22.5 -79.5q0 -67 -40 -108z" />
    <glyph glyph-name="four" unicode="4" horiz-adv-x="615" 
d="M585 0h-318l7 37q52 0 76 15t24 52v119h-344v58l391 421h57v-375h48q26 0 36 27l-1 -162q-6 16 -17 23.5t-21 7.5h-45v-119q0 -38 24 -53t76 -14zM116 327h258v276z" />
    <glyph glyph-name="five" unicode="5" horiz-adv-x="604" 
d="M467 459q53 -36 80 -91t27 -116q0 -78 -42.5 -144t-120.5 -95q-65 -25 -124 -25q-65 0 -116 29t-81 84t-33 130q-2 37 -27 48q18 4 32 24t20 49q0 -64 34 -77q-14 -3 -20.5 -19t-6.5 -40q0 -30 9 -62q23 -64 69.5 -100.5t104.5 -36.5q59 0 117 38q38 26 58 74.5t20 106.5
q0 81 -36 146.5t-99 79.5q-38 8 -66 8q-55 0 -95 -25t-62 -71h-39v326h33h6q44 -2 118 -18q40 -8 65.5 -12t53.5 -4q71 0 146 34q-42 -61 -105.5 -91t-156.5 -30q-57 0 -121 10v-172q33 41 84.5 62.5t116.5 21.5q19 0 29 -1q75 -5 128 -41z" />
    <glyph glyph-name="six" unicode="6" horiz-adv-x="613" 
d="M211 488q45 21 99 21q66 0 129.5 -30t103.5 -85.5t40 -128.5t-27.5 -135.5t-89 -102t-158.5 -39.5q-87 0 -150 49t-95.5 130t-32.5 175q0 100 36.5 182t98.5 129t137 47q34 1 74 -5q39 -6 82 -4q16 2 24.5 6.5t17.5 12.5q6 6 11.5 9t13.5 3q9 0 21 -4q-26 -30 -40.5 -89
t-14.5 -114h-35q2 26 2 38q0 20 -3 38q-15 59 -78 67q-28 4 -70 4q-69 -1 -111.5 -67.5t-55.5 -169.5q26 42 71 63zM441 89.5q43 71.5 43 171.5q0 66 -26.5 115t-69 74.5t-91.5 25.5q-48 0 -90.5 -25.5t-70.5 -74.5q-1 -13 -1 -41q0 -130 41.5 -223.5t131.5 -93.5t133 71.5z
" />
    <glyph glyph-name="seven" unicode="7" horiz-adv-x="614" 
d="M584 663q-22 -1 -32.5 -6.5t-17 -15t-27.5 -46.5l-125 -241l-147 -285l-16 -32q-36 -70 -54 -112.5t-18 -74.5q0 -55 63 -59q8 -1 11 4t3 15l-1 25q0 14 5.5 22t20.5 8q18 0 29.5 -14.5t11.5 -35.5q0 -25 -20.5 -40.5t-50.5 -15.5q-38 0 -71.5 25t-46.5 73q-8 30 -8 58
q0 81 61 199l249 481q7 15 7 28q0 34 -60 39l-177 1q-40 -3 -55.5 -31.5t-15.5 -73.5q0 -13 2 -37h-35q0 90 -30 159l-9 20h554v-37z" />
    <glyph glyph-name="eight" unicode="8" horiz-adv-x="572" 
d="M503.5 321q38.5 -51 38.5 -108q0 -54 -32.5 -103.5t-86.5 -80.5t-114 -31q-8 -1 -23 -1q-80 1 -138 32t-88 81t-30 106q0 59 33 110t96 81q-44 23 -64 61.5t-18 81.5q4 78 59.5 118.5t137.5 40.5q25 0 38 -2q81 -9 124.5 -49t43.5 -95q0 -40 -24.5 -81t-71.5 -73
q81 -37 119.5 -88zM172.5 513.5q27.5 -26.5 66.5 -45t98 -40.5l20 -8l14 -6q36 25 54.5 58t18.5 67q0 53 -42 89.5t-120 37.5q-61 0 -99 -26t-38 -67q0 -33 27.5 -59.5zM391.5 63.5q42.5 22.5 70 58t27.5 70.5q0 12 -3 22q-10 35 -37.5 59.5t-66.5 42.5t-113 47
q-53 20 -94 37q-52 -21 -79.5 -64.5t-27.5 -95.5q0 -50 25 -95.5t74 -74.5t116 -30q16 0 24 1q42 0 84.5 22.5z" />
    <glyph glyph-name="nine" unicode="9" horiz-adv-x="613" 
d="M455 673q63 -49 95.5 -130t32.5 -175q0 -100 -36.5 -182t-98.5 -129t-137 -47q-34 -1 -74 5q-39 6 -82 4q-16 -2 -24.5 -6.5t-17.5 -12.5q-6 -6 -11.5 -9t-13.5 -3q-9 0 -21 4q26 30 40.5 89t14.5 114h35q-2 -24 -2 -38q0 -20 3 -38q15 -59 78 -67q28 -4 70 -4
q69 1 111.5 67.5t55.5 169.5q-26 -42 -71 -63t-99 -21q-66 0 -129.5 30t-103.5 85.5t-40 128.5t27 135.5t89 102t159 39.5q87 0 150 -49zM478 375q0 130 -41.5 223.5t-131.5 93.5t-133 -71.5t-43 -171.5q0 -66 26.5 -115t69 -74.5t91.5 -25.5q48 0 90.5 25.5t70.5 74.5
q1 13 1 41z" />
    <glyph glyph-name="colon" unicode=":" horiz-adv-x="166" 
d="M45.5 409.5q-15.5 15.5 -15.5 37.5t15.5 37.5t37.5 15.5q21 0 36.5 -15.5t15.5 -37.5t-15.5 -37.5t-36.5 -15.5q-22 0 -37.5 15.5zM46.5 15.5q-15.5 15.5 -15.5 37.5t15.5 37.5t37.5 15.5q21 0 36.5 -15.5t15.5 -37.5t-15.5 -37.5t-36.5 -15.5q-22 0 -37.5 15.5z" />
    <glyph glyph-name="semicolon" unicode=";" horiz-adv-x="175" 
d="M45.5 409.5q-15.5 15.5 -15.5 37.5t15.5 37.5t37.5 15.5q21 0 36.5 -15.5t15.5 -37.5t-15.5 -37.5t-36.5 -15.5q-22 0 -37.5 15.5zM74 -43q19 0 19 24q0 6 -4.5 9.5t-15.5 8.5q-20 9 -31 20.5t-11 35.5q0 16 13 33.5t40 17.5q32 0 48 -28t13 -76q-1 -29 -19 -45.5
t-44 -16.5q-13 0 -25 4l9 14q3 -1 8 -1z" />
    <glyph glyph-name="less" unicode="&#x3c;" horiz-adv-x="468" 
d="M438 500v-99l-311 -156l311 -144v-101l-408 196v93z" />
    <glyph glyph-name="equal" unicode="=" 
d="M31 359l328 1v-79h-329zM31 219l328 1v-79h-329z" />
    <glyph glyph-name="greater" unicode="&#x3e;" horiz-adv-x="468" 
d="M30 500l408 -211v-93l-408 -196v101l311 144l-311 156v99z" />
    <glyph glyph-name="question" unicode="?" horiz-adv-x="556" 
d="M200 200q0 65 16.5 102t40.5 53t66 33q30 11 40 17q31 15 46.5 44.5t15.5 65.5q0 38 -17 73t-49 57.5t-74 22.5q-67 2 -113 -24t-46 -72q0 -26 18 -59q18 -30 18 -58q0 -26 -16.5 -41.5t-39.5 -15.5q-15 0 -27.5 7t-19.5 19q-29 51 -29 99q0 52 32 92.5t88 63t125 22.5
q78 0 135 -26t86.5 -69t29.5 -93q0 -61 -45 -114.5t-130 -81.5q-27 -9 -39 -31.5t-14 -46.5t-2 -72h-95q-1 12 -1 33zM212.5 15.5q-15.5 15.5 -15.5 37.5t15.5 37.5t37.5 15.5q21 0 36.5 -15.5t15.5 -37.5t-15.5 -37.5t-36.5 -15.5q-22 0 -37.5 15.5z" />
    <glyph glyph-name="at" unicode="@" horiz-adv-x="872" 
d="M819 258q-23 -65 -61.5 -105t-81.5 -40q-34 0 -66 26q-44 36 -67.5 89.5t-26.5 113.5q-30 -90 -79 -135.5t-98 -45.5q-41 0 -67 31t-22 82q7 80 34.5 135.5t67.5 83t85 27.5q39 0 62.5 -15.5t32.5 -41.5q9 25 23 44h70q-22 -30 -36 -83t-14 -109q0 -58 16 -105.5
t49 -70.5q21 -15 42 -15q38 0 70.5 42.5t49.5 108.5t13 133q-3 52 -39 117t-103.5 116t-160.5 63q-13 2 -41 2q-72 0 -142 -29.5t-124 -89.5t-77 -149q-12 -46 -12 -92q0 -86 38 -160t104.5 -120t148.5 -50l5 -13q-122 -1 -208.5 48.5t-130 130.5t-43.5 174q0 42 9 84
q23 100 88 174.5t155 114.5t185 40q23 0 47 -3q127 -15 200.5 -77t100.5 -140t27 -154q0 -72 -23 -137zM329 257q0 -33 11 -50t30 -17q25 0 55 28t56 79.5t39 119.5l1 5l1 7v0q0 31 -16 50.5t-35 20.5q-33 2 -63 -22.5t-51 -75.5t-27 -128q-1 -6 -1 -17z" />
    <glyph glyph-name="A" unicode="A" horiz-adv-x="778" 
d="M529.5 45.5q18.5 8.5 18.5 30.5q0 15 -5 29l-67 213h-202l-84 -214q-7 -28 -7 -37q0 -19 17 -25t63 -5l10 -37h-243l10 37q42 0 60.5 5t27 16.5t23.5 45.5l188 478q8 19 8 40q0 20 -9.5 36t-29.5 24t-42 9h-4q-40 0 -60.5 -21.5t-20.5 -51.5q0 -26 13.5 -44.5t34.5 -18.5
q11 0 14.5 8t4.5 24q3 21 9 31.5t24 10.5q15 0 24 -11t9 -29q0 -29 -25.5 -47.5t-59.5 -18.5q-39 0 -68 25t-29 73q0 24 15 46t45 36.5t73 14.5h7v0q43 -1 98 -8q98 -10 163 -10q28 0 43 1v-38q-43 0 -66 -10t-23 -33q0 -9 5 -24l155 -491q10 -30 19 -43.5t25 -19t47 -5.5
l10 -37h-289l10 37q42 0 60.5 8.5zM463 357l-76 243l-1 2l-97 -245h174z" />
    <glyph glyph-name="B" unicode="B" horiz-adv-x="1072" 
d="M944 318q48 -37 75 -92.5t22 -124.5q-9 -114 -80.5 -191t-181 -114t-232.5 -37q-45 0 -80 4q-124 13 -230.5 61t-171.5 126.5t-65 176.5q0 32 7 63q13 62 53.5 112t98.5 78.5t124 28.5q61 0 103 -23t62 -58.5t20 -73.5q0 -24 -7 -42q-16 -46 -54 -70t-82 -24
q-52 0 -89 30.5t-37 83.5q0 36 21.5 56.5t49.5 20.5q25 0 39 -17q10 -13 10 -26q0 -11 -8 -31q-7 -14 -7 -23q0 -12 18 -19q8 -2 11 -2q25 0 45 31t20 69q0 41 -27.5 67.5t-88.5 26.5q-72 0 -125.5 -51.5t-68.5 -143.5q-5 -33 -5 -58q0 -97 54 -171.5t143 -118.5t192 -52
q28 -2 43 -2q103 0 197.5 36t158.5 110.5t75 183.5q1 8 1 24q0 82 -50.5 138.5t-132.5 64.5q-39 -16 -72 -38t-62 -58v-145q0 -38 24 -53t76 -14l7 -37h-318l7 37q52 0 76 15t24 52v491q0 43 -23.5 68t-68.5 27h-8q-40 0 -60.5 -21.5t-20.5 -51.5q0 -26 13.5 -44.5
t34.5 -18.5q11 0 14.5 8t4.5 24q3 21 9 31.5t24 10.5q15 0 24 -11t9 -29q0 -29 -25.5 -47.5t-59.5 -18.5q-39 0 -68 25t-29 73q0 24 15 46t45 36.5t73 14.5h7q37 0 109 -8q86 -10 149 -10q14 1 42 1h1v0q93 -2 154 -41.5t61 -114.5q0 -55 -14 -88.5t-38.5 -51.5t-61.5 -32
q58 -17 106 -54zM679.5 338q27.5 22 66.5 46h1q7 4 47.5 28.5t59.5 54.5t19 68q0 52 -40.5 88.5t-119.5 38.5q-43 -2 -63 -17.5t-20 -49.5v-309q22 30 49.5 52z" />
    <glyph glyph-name="C" unicode="C" horiz-adv-x="629" 
d="M574 254q4 -76 -19 -134t-94 -102q-42 -26 -115 -26q-34 0 -67.5 6t-58.5 15q-57 21 -100 71.5t-66.5 120t-23.5 147.5q0 99 33.5 173t92.5 118.5t136 56.5q31 5 75 5q27 0 62 -5q38 -6 80 -4q17 1 25.5 5.5t19.5 13.5q10 12 24 12q9 0 21 -4q-26 -29 -40.5 -88
t-14.5 -114h-35q2 26 2 38q0 19 -3 37q-15 59 -78 67q-35 5 -76 3q-36 -2 -55 -4q-54 -6 -91 -51t-55 -113t-18 -145q0 -98 28 -180.5t79 -117.5q19 -12 47 -19t59 -7q29 0 56.5 7t47.5 20q42 29 63.5 59t28.5 62t7 76z" />
    <glyph glyph-name="D" unicode="D" horiz-adv-x="763" 
d="M605.5 655.5q59.5 -44.5 93.5 -124t34 -179.5q0 -93 -33.5 -173.5t-93 -129.5t-135.5 -50v1h-318l7 37q52 0 76 15t24 52v491q0 43 -23.5 68t-68.5 27h-8q-40 0 -60.5 -21.5t-20.5 -51.5q0 -26 13.5 -44.5t34.5 -18.5q11 0 14.5 8t4.5 24q3 21 9 31.5t24 10.5
q15 0 24 -11t9 -29q0 -29 -25.5 -47.5t-59.5 -18.5q-39 0 -68 25t-29 73q0 24 15 46t45 36.5t73 14.5h7q38 0 110 -8q86 -10 149 -10q27 0 42 1q75 0 134.5 -44.5zM549.5 83q38.5 46 58.5 120.5t20 157.5q0 79 -18.5 148t-55.5 111t-90 42q-52 0 -76 -15t-24 -52v-491
q0 -37 22.5 -52t71.5 -15q53 0 91.5 46z" />
    <glyph glyph-name="E" unicode="E" horiz-adv-x="723" 
d="M568.5 69q26.5 32 37.5 72t20 93h40q-2 -18 -4 -28q-8 -62 -12.5 -107t-4.5 -99h-492l7 37q52 0 76 15t24 52v491q0 43 -23.5 68t-68.5 27h-8q-40 0 -60.5 -21.5t-20.5 -51.5q0 -26 13.5 -44.5t34.5 -18.5q11 0 14.5 8t4.5 24q3 21 9 31.5t24 10.5q15 0 24 -11t9 -29
q0 -29 -25.5 -47.5t-59.5 -18.5q-39 0 -68 25t-29 73q0 24 15 46t45 36.5t73 14.5h7q38 0 110 -8q86 -10 149 -10q27 0 42 1h222l-9 -20q-30 -69 -30 -159h-35q2 24 2 37q0 44 -15 72t-54 32h-88q-52 0 -76 -15t-24 -52v-238h70q28 0 40.5 15t15.5 46h22q-5 -42 -5 -80
q0 -39 5 -81h-22q-3 31 -15.5 46t-40.5 15h-70v-214q0 -37 23.5 -52.5t73.5 -14.5h36q45 0 71.5 32z" />
    <glyph glyph-name="F" unicode="F" horiz-adv-x="723" 
d="M684 680q-30 -69 -30 -159h-35q2 24 2 37q0 44 -15 72t-54 32h-88q-52 0 -76 -15t-24 -52v-238h70q28 0 40.5 15t15.5 46h22q-5 -42 -5 -80q0 -39 5 -81h-22q-3 31 -15.5 46t-40.5 15h-70v-214q0 -38 24 -53t76 -14l7 -37h-318l7 37q52 0 76 15t24 52v491q0 43 -23.5 68
t-68.5 27h-8q-40 0 -60.5 -21.5t-20.5 -51.5q0 -26 13.5 -44.5t34.5 -18.5q11 0 14.5 8t4.5 24q3 21 9 31.5t24 10.5q15 0 24 -11t9 -29q0 -29 -25.5 -47.5t-59.5 -18.5q-39 0 -68 25t-29 73q0 24 15 46t45 36.5t73 14.5h7q38 0 110 -8q86 -10 149 -10q27 0 42 1h222z" />
    <glyph glyph-name="G" unicode="G" horiz-adv-x="629" 
d="M533.5 370.5q39.5 -43.5 40.5 -116.5q0 -83 -28 -143t-79 -91.5t-118 -31.5q-61 0 -129 25q-57 21 -100 71.5t-66.5 120t-23.5 147.5q0 99 33.5 173t92.5 118.5t136 56.5q31 5 75 5q27 0 62 -5q38 -6 80 -4q17 1 25.5 5.5t19.5 13.5q10 12 24 12q9 0 21 -4
q-26 -29 -40.5 -88t-14.5 -114h-35q2 26 2 38q0 19 -3 37q-15 59 -78 67q-35 5 -76 3q-36 -2 -55 -4q-54 -6 -91 -51t-55 -113t-18 -145q0 -98 28 -180.5t79 -117.5q54 -35 114 -35q52 0 96.5 28t71.5 79t27 118q0 62 -30.5 94t-78.5 32q-18 0 -34 -4q-35 -9 -52.5 -37
t-17.5 -65q0 -34 14 -65t37 -45q-37 -2 -69.5 21t-47.5 60q-8 21 -8 44q0 33 15.5 64t48.5 50.5t83 19.5q83 0 122.5 -43.5z" />
    <glyph glyph-name="H" unicode="H" horiz-adv-x="889" 
d="M776 51q24 -15 76 -14l7 -37h-318l7 37q52 0 76 15t24 52v214h-284v-214q0 -38 24 -53t76 -14l7 -37h-318l7 37q52 0 76 15t24 52v491q0 43 -23.5 68t-68.5 27h-8q-40 0 -60.5 -21.5t-20.5 -51.5q0 -26 13.5 -44.5t34.5 -18.5q11 0 14.5 8t4.5 24q3 21 9 31.5t24 10.5
q15 0 24 -11t9 -29q0 -29 -25.5 -47.5t-59.5 -18.5q-39 0 -68 25t-29 73q0 24 15 46t45 36.5t73 14.5h7q38 0 110 -8q86 -10 149 -10q27 0 42 1l-7 -38q-52 0 -76 -15t-24 -52v-238h284v238q0 37 -24 52t-76 15l-7 37h318l-7 -37q-52 1 -76 -14t-24 -53v-491q0 -38 24 -53z
" />
    <glyph glyph-name="I" unicode="I" horiz-adv-x="501" 
d="M388 51q24 -15 76 -14l7 -37h-318l7 37q52 0 76 15t24 52v491q0 43 -23.5 68t-68.5 27h-8q-40 0 -60.5 -21.5t-20.5 -51.5q0 -26 13.5 -44.5t34.5 -18.5q11 0 14.5 8t4.5 24q3 21 9 31.5t24 10.5q15 0 24 -11t9 -29q0 -29 -25.5 -47.5t-59.5 -18.5q-39 0 -68 25t-29 73
q0 24 15 46t45 36.5t73 14.5h7q38 0 110 -8q86 -10 149 -10q27 0 42 1l-7 -38q-52 0 -76 -15t-24 -52v-491q0 -38 24 -53z" />
    <glyph glyph-name="J" unicode="J" horiz-adv-x="638" 
d="M417 710q86 -10 149 -10q27 0 42 1l-7 -38q-52 0 -76 -15t-24 -52v-416q2 -124 -21.5 -194t-79.5 -101.5t-157 -34.5q-56 -2 -105 25t-78.5 77.5t-29.5 115.5q0 25 4 48q12 70 60.5 115.5t117.5 45.5t101.5 -36.5t32.5 -87.5q0 -28 -10 -55q-15 -37 -47.5 -60t-69.5 -21
q25 16 41.5 51t16.5 72q0 33 -15 57.5t-47 32.5q-16 4 -34 4q-47 0 -81 -30t-43 -90q-3 -18 -3 -36q0 -56 27 -101t70 -70t89 -25q70 0 103.5 26.5t43 74t10.5 133.5v480q0 43 -23.5 68t-68.5 27h-8q-40 0 -60.5 -21.5t-20.5 -51.5q0 -26 13.5 -44.5t34.5 -18.5q11 0 14.5 8
t4.5 24q3 21 9 31.5t24 10.5q15 0 24 -11t9 -29q0 -29 -25.5 -47.5t-59.5 -18.5q-39 0 -68 25t-29 73q0 24 15 46t45 36.5t73 14.5h7q38 0 110 -8z" />
    <glyph glyph-name="K" unicode="K" horiz-adv-x="835" 
d="M750.5 657.5q-20.5 -5.5 -37 -19t-43.5 -42.5l-167 -179q92 -3 155 -36.5t94 -87t31 -117.5q0 -40 -17.5 -71t-50.5 -70q-26 -32 -37.5 -51t-11.5 -40q0 -28 23 -56v-38q-55 53 -55 107q0 28 16 56q33 57 33 134q0 61 -23 114.5t-71.5 86.5t-120.5 31l-104 -112v-163
q0 -38 24 -53t76 -14l7 -37h-318l7 37q52 0 76 15t24 52v491q0 43 -23.5 68t-68.5 27h-8q-40 0 -60.5 -21.5t-20.5 -51.5q0 -26 13.5 -44.5t34.5 -18.5q11 0 14.5 8t4.5 24q3 21 9 31.5t24 10.5q15 0 24 -11t9 -29q0 -29 -25.5 -47.5t-59.5 -18.5q-39 0 -68 25t-29 73
q0 24 15 46t45 36.5t73 14.5h7q38 0 110 -8q86 -10 149 -10q27 0 42 1l-7 -38q-52 0 -76 -15t-24 -52v-286l267 287q28 32 28 48q0 12 -18 16t-57 3v37h221v-37q-34 0 -54.5 -5.5z" />
    <glyph glyph-name="L" unicode="L" horiz-adv-x="696" 
d="M666 234q-2 -18 -4 -28q-8 -62 -12.5 -107t-4.5 -99h-492l7 37q52 0 76 15t24 52v491q0 43 -23.5 68t-68.5 27h-8q-40 0 -60.5 -21.5t-20.5 -51.5q0 -26 13.5 -44.5t34.5 -18.5q11 0 14.5 8t4.5 24q3 21 9 31.5t24 10.5q15 0 24 -11t9 -29q0 -29 -25.5 -47.5t-59.5 -18.5
q-39 0 -68 25t-29 73q0 24 15 46t45 36.5t73 14.5h7q38 0 110 -8q86 -10 149 -10q27 0 42 1l-7 -38q-52 0 -76 -15t-24 -52v-491q0 -37 23.5 -52.5t73.5 -14.5h36q45 0 71.5 32t37.5 72t20 93h40z" />
    <glyph glyph-name="M" unicode="M" horiz-adv-x="906" 
d="M1052 -134q0 -37 -18 -72.5t-53.5 -58.5t-85.5 -23q-54 0 -101.5 31t-76.5 89t-29 135q0 22 1 33q3 37 11.5 69.5t26.5 84.5q21 63 31 106.5t11 97.5q1 80 -17.5 149t-55.5 112t-91 43q-52 1 -76 -14t-24 -53v-491q0 -38 24 -53t76 -14l7 -37h-318l7 37q52 0 76 15t24 52
v491q0 37 -24 52t-76 15q-54 0 -91 -43t-55.5 -112t-17.5 -149q1 -54 11 -97.5t31 -106.5q18 -52 26.5 -84.5t11.5 -69.5q1 -11 1 -31q0 -77 -29 -135.5t-76.5 -90t-101.5 -31.5q-50 0 -85.5 23t-53.5 58.5t-18 72.5q0 29 11 53q23 49 71 49q22 0 46 -10.5t44 -27.5
q-15 5 -27 5q-24 0 -41 -14t-23 -39q-2 -12 -2 -18q0 -32 22.5 -57.5t67.5 -25.5q42 0 80.5 23t61 72.5t17.5 123.5q-3 37 -18.5 66.5t-47.5 72.5q-41 54 -62.5 100t-21.5 112q0 100 34 179.5t93.5 124t134.5 44.5h318q75 0 134.5 -44.5t93.5 -124t34 -179.5
q0 -66 -21.5 -112t-62.5 -100q-32 -43 -47.5 -72.5t-18.5 -66.5q-1 -9 -1 -25q0 -66 23.5 -109.5t60.5 -64t76 -20.5q45 0 67.5 25.5t22.5 57.5q0 33 -19 52t-46 19q-13 0 -28 -5q20 17 44 27.5t46 10.5q48 0 71 -49q11 -24 11 -53z" />
    <glyph glyph-name="N" unicode="N" horiz-adv-x="763" 
d="M605 654q60 -46 94 -125.5t34 -176.5q0 -170 -63.5 -287.5t-155.5 -186.5q114 145 114 481q0 80 -18.5 149t-55.5 111.5t-90 42.5q-52 0 -76 -15t-24 -52v-491q0 -38 24 -53t76 -14l7 -37h-318l7 37q52 0 76 15t24 52v491q0 43 -23.5 68t-68.5 27h-8q-40 0 -60.5 -21.5
t-20.5 -51.5q0 -26 13.5 -44.5t34.5 -18.5q11 0 14.5 8t4.5 24q3 21 9 31.5t24 10.5q15 0 24 -11t9 -29q0 -29 -25.5 -47.5t-59.5 -18.5q-39 0 -68 25t-29 73q0 24 15 46t45 36.5t73 14.5h7q38 0 110 -8q86 -10 149 -10q27 0 42 1q74 0 134 -46z" />
    <glyph glyph-name="O" unicode="O" horiz-adv-x="648" 
d="M585 178.5q-33 -80.5 -93 -129t-135 -50.5h-66q-75 2 -135 50.5t-93 129t-33 173.5q0 100 34 179t93.5 124t133.5 45h69q74 -1 132.5 -46t92 -124t33.5 -178q0 -93 -33 -173.5zM438.5 86.5q36.5 46.5 55.5 120t19 154.5q0 79 -18 147t-54 110.5t-88 43.5l-69 -1
q-72 -9 -110.5 -96t-38.5 -204q0 -79 18 -150.5t52.5 -118.5t82.5 -54l63 -1q51 3 87.5 49.5z" />
    <glyph glyph-name="P" unicode="P" horiz-adv-x="733" 
d="M685 446.5q-18 -34.5 -46 -51t-79 -33.5q-45 -16 -74 -30t-61.5 -39.5t-60.5 -66.5v-122q0 -38 24 -53t76 -14l7 -37h-318l7 37q52 0 76 15t24 52v491q0 43 -23.5 68t-68.5 27h-8q-40 0 -60.5 -21.5t-20.5 -51.5q0 -26 13.5 -44.5t34.5 -18.5q11 0 14.5 8t4.5 24
q3 21 9 31.5t24 10.5q15 0 24 -11t9 -29q0 -29 -25.5 -47.5t-59.5 -18.5q-39 0 -68 25t-29 73q0 24 15 46t45 36.5t73 14.5h7q38 0 110 -8q87 -11 167 -10q10 1 29 1q97 0 162 -39t65 -117q0 -63 -18 -97.5zM386 646q-22 -16 -22 -51v-336q25 46 59.5 74t87.5 59
q41 25 62.5 41.5t36 41.5t14.5 61q0 54 -43 90t-126 36q-47 0 -69 -16z" />
    <glyph glyph-name="Q" unicode="Q" horiz-adv-x="679" 
d="M693 -67.5q26 -31.5 26 -74.5q0 -45 -29 -78.5t-81 -33.5q-40 0 -66 16t-41.5 40t-33.5 64q-21 44 -38 69.5t-48 43.5t-78 18q-38 0 -68 -18.5t-49.5 -41.5t-52.5 -68l-16 13q63 94 126 123q-63 16 -112 66.5t-75.5 124t-26.5 156.5q0 100 34 179t93.5 124t133.5 45h69
q74 -1 132.5 -46t92 -124t33.5 -178q0 -84 -27.5 -158.5t-77 -125t-114.5 -64.5q38 -17 61.5 -47t47.5 -77q19 -37 34 -57t37 -26q10 -2 16 -2q28 0 52 19.5t24 51.5q0 28 -14 48t-32 20q-14 0 -18 -7t-4 -22q-1 -18 -6.5 -29t-24.5 -16q-13 -4 -24 10.5t-11 33.5
q0 25 20 42.5t65 17.5t71 -31.5zM173.5 565q-38.5 -87 -38.5 -204q0 -79 18 -150.5t52.5 -118.5t82.5 -54l63 -1q51 3 87.5 49.5t55.5 120t19 154.5q0 79 -18 147t-54 110.5t-88 43.5l-69 -1q-72 -9 -110.5 -96z" />
    <glyph glyph-name="R" unicode="R" horiz-adv-x="783" 
d="M735.5 105q-17.5 -31 -50.5 -70q-26 -31 -38 -50.5t-12 -40.5q0 -28 23 -56l1 -38q-55 53 -55 107q0 28 16 56q30 51 30 112q0 50 -20.5 94.5t-61 73t-96.5 32.5q-66 -36 -108 -99v-122q0 -38 24 -53t76 -14l7 -37h-318l7 37q52 0 76 15t24 52v491q0 43 -23.5 68
t-68.5 27h-8q-40 0 -60.5 -21.5t-20.5 -51.5q0 -26 13.5 -44.5t34.5 -18.5q11 0 14.5 8t4.5 24q3 21 9 31.5t24 10.5q15 0 24 -11t9 -29q0 -29 -25.5 -47.5t-59.5 -18.5q-39 0 -68 25t-29 73q0 24 15 46t45 36.5t73 14.5h7q38 0 110 -8q87 -11 167 -10q10 1 29 1
q97 0 162 -39t65 -117q0 -66 -20 -101.5t-47.5 -49.5t-90.5 -37q89 -16 148.5 -61.5t59.5 -118.5q0 -40 -17.5 -71zM464 363q13 9 25 16t22 14q39 23 61.5 40t37 42t14.5 61q0 54 -43 90t-126 36q-47 0 -69 -16t-22 -51v-336q33 59 100 104z" />
    <glyph glyph-name="S" unicode="S" horiz-adv-x="564" 
d="M241.5 452q40.5 -19 102.5 -43q66 -25 103.5 -45t62 -56.5t24.5 -95.5q0 -18 -1 -28q-5 -59 -42 -101t-92.5 -63t-118.5 -21q-67 0 -126 23.5t-93.5 70t-30.5 110.5q2 38 25 70t68 50q31 12 60 12q28 0 49.5 -10.5t30.5 -32.5q6 -15 6 -28q0 -26 -18.5 -45t-38.5 -22
q10 11 10 28q0 23 -19 45q-15 17 -47 17q-17 0 -33.5 -6t-28.5 -18q-24 -26 -29 -58q-1 -6 -1 -19q0 -46 28 -79.5t73 -50.5t95 -17q75 0 128 36t53 101q0 8 -2 24q-6 39 -28.5 63t-66.5 45t-151 65l-44 18q-53 22 -79 60t-26 82q0 47 25.5 89.5t65.5 60.5q51 23 96 23
q12 0 34 -2q43 -4 73 -11q41 -11 78 -11q18 0 28 4t19 11q12 10 23 10q9 0 24 -6q-29 -27 -48.5 -84.5t-24.5 -111.5l-35 3q6 38 6 57q0 32 -16.5 57.5t-55.5 33.5q-23 5 -75 9q-38 2 -69 -10.5t-48.5 -34.5t-17.5 -48q0 -39 39 -71q36 -30 76.5 -49z" />
    <glyph glyph-name="T" unicode="T" horiz-adv-x="744" 
d="M654 702.5q30 -14.5 45 -36.5t15 -46q0 -48 -29 -73t-68 -25q-34 0 -59.5 18.5t-25.5 47.5q0 18 9 29t24 11q18 0 24 -10.5t9 -31.5q1 -16 4.5 -24t14.5 -8q21 0 34.5 18.5t13.5 44.5q0 30 -20.5 51.5t-60.5 21.5h-8q-85 0 -118.5 -24.5t-33.5 -70.5v-491q0 -38 24 -53
t76 -14l7 -37h-318l7 37q52 0 76 15t24 52v491q0 46 -33.5 70.5t-118.5 24.5h-8q-40 0 -60.5 -21.5t-20.5 -51.5q0 -26 13.5 -44.5t34.5 -18.5q11 0 14.5 8t4.5 24q3 21 9 31.5t24 10.5q15 0 24 -11t9 -29q0 -29 -25.5 -47.5t-59.5 -18.5q-39 0 -68 25t-29 73q0 24 15 46
t45 36.5t73 14.5h7h404h7q43 0 73 -14.5z" />
    <glyph glyph-name="U" unicode="U" horiz-adv-x="843" 
d="M730 52q24 -15 76 -15l7 -37h-318h-6v0h-6q-73 0 -130 48.5t-88.5 127.5t-31.5 167q0 32 4 64t11 80q2 12 6.5 46.5t4.5 58.5q0 22 -4 37q-8 27 -30 43.5t-57 17.5h-8q-40 0 -60.5 -21.5t-20.5 -51.5q0 -26 13.5 -44.5t34.5 -18.5q11 0 14.5 8t4.5 24q3 21 9 31.5
t24 10.5q15 0 24 -11t9 -29q0 -29 -25.5 -47.5t-59.5 -18.5q-39 0 -68 25t-29 73q0 24 15 46t45 36.5t73 14.5h7q38 0 110 -8q86 -10 149 -10q27 0 42 1l-7 -38q-52 0 -76 -15t-24 -52q-1 -27 -5 -53.5t-5 -34.5q-7 -42 -11 -78t-5 -93q0 -76 16 -143.5t49 -110t80 -42.5h6
q20 1 45.5 3t42.5 7q25 16 25 54v492q0 38 -24 53t-76 14l-7 37h318l-7 -37q-52 0 -76 -15t-24 -52v-492q0 -37 24 -52z" />
    <glyph glyph-name="V" unicode="V" horiz-adv-x="941" 
d="M911 700l-10 -37q-42 0 -60.5 -5t-27 -16.5t-23.5 -45.5l-204 -596h-104l-188 595q-14 42 -45.5 67t-76.5 28h-4q-40 0 -60.5 -21.5t-20.5 -51.5q0 -26 13.5 -44.5t34.5 -18.5q11 0 14.5 8t4.5 24q3 21 9 31.5t24 10.5q15 0 24 -11t9 -29q0 -29 -25.5 -47.5t-59.5 -18.5
q-39 0 -68 25t-29 73q0 24 15 46t45 36.5t73 14.5h7v0q43 -1 98 -8q98 -10 163 -10q28 0 43 1v-38q-43 0 -66 -10t-23 -33q0 -9 5 -24l169 -536l184 537q7 28 7 37q0 19 -17 25t-63 5l-10 37h243z" />
    <glyph glyph-name="W" unicode="W" horiz-adv-x="1183" 
d="M1079 653q-23 -10 -30 -34q-2 -16 -2 -26q0 -33 11 -105q7 -48 11 -80t4 -65q0 -100 -34 -179.5t-93.5 -124t-134.5 -44.5q-57 -2 -106 9t-52 50q-3 -39 -52 -50t-106 -9q-75 0 -134.5 44.5t-93.5 124t-34 179.5q0 32 4 64t11 80q2 12 6.5 46.5t4.5 58.5q0 22 -4 37
q-8 27 -30 43.5t-57 17.5h-8q-40 0 -60.5 -21.5t-20.5 -51.5q0 -26 13.5 -44.5t34.5 -18.5q11 0 14.5 8t4.5 24q3 21 9 31.5t24 10.5q15 0 24 -11t9 -29q0 -29 -25.5 -47.5t-59.5 -18.5q-39 0 -68 25t-29 73q0 24 15 46t45 36.5t73 14.5h7q38 0 110 -8q86 -10 149 -10
q27 0 42 1l-7 -38q-52 0 -76 -15t-24 -52q-1 -27 -5 -53.5t-5 -34.5q-7 -42 -11 -78t-5 -93q0 -80 18.5 -149t55.5 -111.5t90 -42.5q56 2 78 66t22 147v350q0 38 -24 53t-76 14l-7 37h318l-7 -37q-52 0 -76 -15t-24 -52v-400q5 -68 28 -115t70 -48q54 0 91 42.5t55.5 112
t17.5 148.5q-1 91 -15 171q-10 56 -11 89q0 38 -24 53t-76 14l-7 37h318l-7 -37q-44 0 -67 -10z" />
    <glyph glyph-name="X" unicode="X" horiz-adv-x="975" 
d="M884 657.5q-18 -5.5 -31 -17t-43 -44.5l-225 -242l172 -249q25 -34 36 -45.5t27 -17t46 -5.5l10 -37h-299l10 37q36 0 53 7t17 23t-14 38l-151 219l-202 -220q-17 -20 -24.5 -31.5t-7.5 -19.5q0 -10 16 -13.5t53 -2.5l10 -37h-221l10 37q33 0 51 5.5t31 17t43 44.5
l224 244l-4 6l-167 241q-26 42 -64 67t-83 28q-39 -1 -59 -22.5t-20 -50.5q0 -25 13.5 -44t35.5 -19q11 0 14.5 8t4.5 24q3 21 9 31.5t24 10.5q15 0 24 -11t9 -29q0 -29 -25.5 -47.5t-59.5 -18.5q-39 0 -68 25t-29 73q0 24 15 46t45 36.5t73 14.5h7v0q28 -2 92 -8
q100 -10 168 -10q29 0 44 1l-10 -38q-33 0 -48 -6t-15 -19q0 -14 17 -42l150 -217l203 218q17 20 24.5 31.5t7.5 19.5q0 10 -16 13.5t-53 2.5l-10 37h221l-10 -37q-33 0 -51 -5.5z" />
    <glyph glyph-name="Y" unicode="Y" horiz-adv-x="933" 
d="M903 700l-10 -37q-42 0 -60.5 -5t-27 -16.5t-23.5 -45.5l-204 -596h-1q14 -46 24 -96.5t10 -86.5q0 -10 -2 -26q-8 -50 -52 -83.5t-101 -33.5q-53 0 -100 31q-29 19 -45.5 51.5t-16.5 68.5q0 27 10 52.5t29 44.5q21 21 55 21q17 0 32.5 -6t24.5 -16q17 -18 17 -43
q0 -16 -6.5 -28t-17.5 -17q-9 -4 -19 -4q-13 0 -27 10q-14 9 -23 8q-8 -1 -17.5 -16t-9.5 -36q0 -30 20 -59q33 -48 86 -48q25 0 43.5 11t23.5 28q5 20 5 43q0 85 -48 236l-186 589q-14 42 -45.5 67t-76.5 28h-4q-40 0 -60.5 -21.5t-20.5 -51.5q0 -26 13.5 -44.5t34.5 -18.5
q11 0 14.5 8t4.5 24q3 21 9 31.5t24 10.5q15 0 24 -11t9 -29q0 -29 -25.5 -47.5t-59.5 -18.5q-39 0 -68 25t-29 73q0 24 15 46t45 36.5t73 14.5h7v0q43 -1 98 -8q98 -10 163 -10q28 0 43 1v-38q-43 0 -66 -10t-23 -33q0 -9 5 -24l169 -536l184 537q7 28 7 37q0 19 -17 25
t-63 5l-10 37h243z" />
    <glyph glyph-name="Z" unicode="Z" horiz-adv-x="695" 
d="M214 61q0 -24 60 -24h177q45 0 71.5 32t37.5 72t20 93h40q-2 -18 -4 -28q-8 -62 -12.5 -107t-4.5 -99h-325q-69 0 -95.5 -5t-43.5 -24q-21 -29 -33.5 -58.5t-12.5 -63.5q0 -25 9.5 -41.5t29.5 -16.5q11 0 14.5 8t4.5 24q3 21 9 31.5t24 10.5q15 0 24 -11t9 -29
q0 -30 -24 -48t-56 -18q-42 0 -72.5 30.5t-30.5 88.5q0 41 21 97t78 139l333 481q12 21 12 34q0 30 -57 33l-189 1q-40 -3 -55.5 -31.5t-15.5 -73.5q0 -13 2 -37h-35q0 90 -30 159l-9 20h580v-37q-29 -1 -41 -10t-27 -29.5t-21 -28.5l-348 -502q-14 -22 -14 -32z" />
    <glyph glyph-name="bracketleft" unicode="[" horiz-adv-x="600" 
d="M540 626h-176v-682h176v-104h-280v890h280v-104z" />
    <glyph glyph-name="backslash" unicode="\" horiz-adv-x="575" 
d="M30 700h94l421 -854h-94z" />
    <glyph glyph-name="bracketright" unicode="]" horiz-adv-x="340" 
d="M310 730v-890h-280v104h176v682h-176v104h280z" />
    <glyph glyph-name="asciicircum" unicode="^" horiz-adv-x="600" 
d="M443 479h-99l-50 115l-51 -115h-99l103 221h93z" />
    <glyph glyph-name="underscore" unicode="_" horiz-adv-x="479" 
d="M31 -39l418 1v-79h-419z" />
    <glyph glyph-name="a" unicode="a" horiz-adv-x="467" 
d="M418.5 93.5q7.5 -11.5 18.5 -15.5q-54 -22 -78 -78q-12 26 -30 46q-11 10 -38 16t-59 6t-57.5 -6t-36.5 -17q-15 -15 -29 -45q-24 56 -78 78q11 4 18.5 15.5t7.5 23.5v109q0 26 -27 36q57 -5 91 -5q14 0 44 2q52 5 83 19.5t32 43.5v-10q1 -32 -31 -47t-88 -20v-128
q1 -12 19 -18t44 -6q31 0 57 7t26 17v266q0 12 -26.5 20t-60.5 8q-28 0 -51.5 -6t-34.5 -19l-1 -2v0q-13 -16 -25 -41q-25 57 -78 79q54 22 78 78q13 -28 29 -45q15 -12 40.5 -18t55.5 -6q31 0 57.5 6t38.5 17q18 20 30 46q24 -56 78 -78q-11 -4 -18.5 -15.5t-7.5 -23.5
v-266q0 -12 7.5 -23.5zM280 326v-4v4z" />
    <glyph glyph-name="b" unicode="b" horiz-adv-x="474" 
d="M426 92q8 -10 18 -14q-21 0 -67.5 -12.5t-86 -30.5t-46.5 -35q-8 18 -45 38t-80 32q-25 7 -55 7q-16 0 -25 -1q13 5 19 20.5t6 29.5v257q0 12 -7.5 23.5t-18.5 15.5v0q11 4 18.5 15.5t7.5 23.5v185q-1 19 -17.5 48t-39 55t-37.5 35q39 -9 84.5 -40t60.5 -53
q16 22 42.5 44t52.5 31q-20 -26 -30.5 -57t-11.5 -63v-199q29 12 49.5 26t26.5 27q7 -17 46.5 -35t86 -30.5t67.5 -12.5q-10 -4 -18 -14t-8 -25v-266q0 -15 8 -25zM314 80v340l-41 19q-21 -19 -49.5 -33.5t-55.5 -20.5v-270q27 -6 55.5 -20.5t49.5 -33.5z" />
    <glyph glyph-name="c" unicode="c" horiz-adv-x="386" 
d="M241 99q33 0 66 -7t49 -13q-69 1 -116.5 -23t-61.5 -56q-8 20 -38 34.5t-82 33.5l-28 10q10 4 18 14t8 25v266q0 15 -8 25t-18 14l28 10q52 19 82 33.5t38 34.5q14 -32 61.5 -56t116.5 -23q-16 -6 -49 -13t-66 -7q-52 0 -81 20v-341h-1l1 -1q29 20 81 20z" />
    <glyph glyph-name="d" unicode="d" horiz-adv-x="467" 
d="M418.5 93.5q7.5 -11.5 18.5 -15.5q-54 -22 -78 -78q-22 51 -68 73q-44 -8 -73.5 -29t-39.5 -44q-8 20 -38 34.5t-82 33.5l-28 10q10 4 18 14t8 25v266q0 15 -8 25t-18 14l28 10q52 19 82 33.5t38 34.5q11 -25 45 -47t84 -29l-126 261q-35 70 -80 99q28 0 60 -12t54 -27
q8 26 40 71t65 66q-14 -17 -28 -65.5t-14 -88.5q0 -28 8 -43l107 -206q6 -12 19.5 -27.5t24.5 -19.5q-11 -4 -18.5 -15.5t-7.5 -23.5v-276q0 -12 7.5 -23.5zM242 99q21 0 42 -3l8 -1q6 0 10 3q5 10 5 19v291q-35 -7 -67 -7q-51 0 -80 20v-341h-1l1 -1q29 20 82 20z" />
    <glyph glyph-name="e" unicode="e" horiz-adv-x="386" 
d="M241 99q33 0 66 -7t49 -13q-69 1 -116.5 -23t-61.5 -56q-8 20 -38 34.5t-82 33.5l-28 10q10 4 18 14t8 25v266q0 15 -8 25t-18 14l28 10q52 19 82 33.5t38 34.5q12 -26 47.5 -48.5t88.5 -28.5q13 -2 42 -2l-196 -213v-128h-1l1 -1q29 20 81 20zM241 401q-52 0 -81 20
v-157l138 142q-30 -5 -57 -5z" />
    <glyph glyph-name="f" unicode="f" horiz-adv-x="286" 
d="M175 401q-15 -10 -15 -18v-266q0 -12 7.5 -23.5t18.5 -15.5q-54 -22 -78 -78q-24 56 -78 78q11 4 18.5 15.5t7.5 23.5v266q0 12 -7.5 23.5t-18.5 15.5v0q11 4 18.5 15.5t7.5 23.5v169q0 15 -8 25t-18 14l28 10q52 19 82 33.5t38 34.5q14 -32 61.5 -56t116.5 -23
q-16 -6 -49 -13t-66 -7q-52 0 -81 20v-207q0 -7 11.5 -15t28.5 -14q19 -6 46 -10q-15 0 -35 -5q-21 -6 -36 -16z" />
    <glyph glyph-name="g" unicode="g" horiz-adv-x="474" 
d="M444 -272q0 -77 -50 -132t-161 -54q-86 1 -129.5 30t-43.5 80q0 45 35 102.5t100 118.5q19 17 28.5 33t9.5 28q0 11 -7.5 17.5t-21.5 6.5q-20 0 -46 -13q32 28 64 28q18 0 29 -9.5t11 -24.5q0 -24 -29 -52q-72 -68 -111.5 -129t-39.5 -107q0 -43 36.5 -66.5t111.5 -24.5
q142 -1 142 93q0 26 -8.5 52.5t-25.5 71.5l-11 28q-12 33 -16 64.5t-4 74.5v60v35q0 35 -26 32q-40 -10 -66.5 -29.5t-36.5 -41.5q-8 20 -38 34.5t-82 33.5l-28 10q10 4 18 14t8 25v266q0 15 -8 25t-18 14l28 10q52 19 82 33.5t38 34.5q10 -22 36.5 -41.5t66.5 -29.5
q16 -4 41 19.5t37 51.5q24 -56 78 -78q-11 -4 -18.5 -15.5t-7.5 -23.5v-266q0 -12 7.5 -23.5t18.5 -15.5v0q-11 -4 -18.5 -15.5t-7.5 -23.5v-35v-58q0 -43 4 -75t16 -66q13 -36 13 -77zM242 99q21 0 42 -3l9 -1q7 0 10.5 4.5t3.5 17.5v266q0 9 -5 15.5t-16 5.5
q-21 -3 -45 -3q-52 0 -81 20v-341h-1l1 -1q29 20 82 20z" />
    <glyph glyph-name="h" unicode="h" horiz-adv-x="475" 
d="M426.5 93.5q7.5 -11.5 18.5 -15.5q-54 -22 -78 -78q-24 56 -78 78q11 4 18.5 15.5t7.5 23.5v266q0 11 -23 17t-54 6q-28 0 -48.5 -5.5t-21.5 -15.5v-2v-266q0 -12 7.5 -23.5t18.5 -15.5q-54 -22 -78 -78q-24 56 -78 78q11 4 18.5 15.5t7.5 23.5v266q0 12 -7.5 23.5
t-18.5 15.5v0q11 4 18.5 15.5t7.5 23.5v185q-1 19 -17.5 48t-39 55t-37.5 35q39 -9 84.5 -40t60.5 -53q16 22 42.5 44t52.5 31q-20 -26 -30.5 -57t-11.5 -63v-185v-4q4 -11 27.5 -17t54.5 -6q27 0 51.5 5.5t35.5 14.5q18 20 30 46q24 -56 78 -78q-11 -4 -18.5 -15.5
t-7.5 -23.5v-266q0 -12 7.5 -23.5z" />
    <glyph glyph-name="i" unicode="i" horiz-adv-x="216" 
d="M30 622q54 22 78 78q24 -56 78 -78q-53 -22 -78 -79q-25 57 -78 79zM167.5 406.5q-7.5 -11.5 -7.5 -23.5v-266q0 -12 7.5 -23.5t18.5 -15.5q-54 -22 -78 -78q-24 56 -78 78q11 4 18.5 15.5t7.5 23.5v266q0 12 -7.5 23.5t-18.5 15.5q54 22 78 78q24 -56 78 -78
q-11 -4 -18.5 -15.5z" />
    <glyph glyph-name="j" unicode="j" horiz-adv-x="240" 
d="M38 622q54 22 78 78q24 -56 78 -78q-53 -22 -78 -79q-25 57 -78 79zM179.5 -279q10.5 -31 30.5 -57q-26 9 -52.5 31t-42.5 44q-15 -22 -60.5 -53t-84.5 -40q15 9 37.5 35t39 55t17.5 48v255q0 12 -7.5 23.5t-18.5 15.5v0q11 4 18.5 15.5t7.5 23.5v266q0 12 -7.5 23.5
t-18.5 15.5q54 22 78 78q24 -56 78 -78q-11 -4 -18.5 -15.5t-7.5 -23.5v-266q0 -12 7.5 -23.5t18.5 -15.5v0q-11 -4 -18.5 -15.5t-7.5 -23.5v-255q1 -32 11.5 -63z" />
    <glyph glyph-name="k" unicode="k" horiz-adv-x="510" 
d="M448 21q0 -5 2 -21q-31 29 -69 50t-72 25q7 4 13.5 13.5t6.5 18.5q0 6 -2 9l-86 142l-73 -87v-54q0 -12 7.5 -23.5t18.5 -15.5q-54 -22 -78 -78q-24 56 -78 78q11 4 18.5 15.5t7.5 23.5v266q0 12 -7.5 23.5t-18.5 15.5v0q11 4 18.5 15.5t7.5 23.5v185q-1 19 -17.5 48
t-39 55t-37.5 35q39 -9 84.5 -40t60.5 -53q16 22 42.5 44t52.5 31q-20 -26 -30.5 -57t-11.5 -63v-185q0 -12 7.5 -23.5t18.5 -15.5v0q-11 -4 -18.5 -15.5t-7.5 -23.5v-155l126 151q12 17 12 27q0 12 -15 16q34 14 49.5 28.5t42.5 49.5q-4 -30 -4 -39q0 -27 21 -39
q-23 -6 -50 -33l-50 -60l132 -215q8 -11 21.5 -21.5t26.5 -14.5q-32 -18 -32 -57z" />
    <glyph glyph-name="l" unicode="l" horiz-adv-x="240" 
d="M175.5 406.5q-7.5 -11.5 -7.5 -23.5v-266q0 -12 7.5 -23.5t18.5 -15.5q-54 -22 -78 -78q-24 56 -78 78q11 4 18.5 15.5t7.5 23.5v266q0 12 -7.5 23.5t-18.5 15.5v0q11 4 18.5 15.5t7.5 23.5v185q-1 19 -17.5 48t-39 55t-37.5 35q39 -9 84.5 -40t60.5 -53q16 22 42.5 44
t52.5 31q-20 -26 -30.5 -57t-11.5 -63v-185q0 -12 7.5 -23.5t18.5 -15.5v0q-11 -4 -18.5 -15.5z" />
    <glyph glyph-name="m" unicode="m" horiz-adv-x="718" 
d="M669.5 93.5q7.5 -11.5 18.5 -15.5q-54 -22 -78 -78q-24 56 -78 78q11 4 18.5 15.5t7.5 23.5v266q0 11 -23 17t-54 6q-28 0 -48.5 -5.5t-21.5 -15.5v-2v-266q0 -12 7.5 -23.5t18.5 -15.5q-54 -22 -78 -78q-24 56 -78 78q11 4 18.5 15.5t7.5 23.5v266q0 11 -23 17t-54 6
q-27 0 -48 -5.5t-22 -15.5v-2v-266q0 -12 7.5 -23.5t18.5 -15.5q-54 -22 -78 -78q-24 56 -78 78q11 4 18.5 15.5t7.5 23.5v266q0 12 -7.5 23.5t-18.5 15.5q54 22 78 78q14 -30 29 -45q15 -12 40.5 -18t55.5 -6q31 0 57.5 6t38.5 17q18 20 30 46q14 -30 29 -45
q15 -12 40.5 -18t55.5 -6q31 0 57.5 6t38.5 17q18 20 30 46q24 -56 78 -78q-11 -4 -18.5 -15.5t-7.5 -23.5v-266q0 -12 7.5 -23.5z" />
    <glyph glyph-name="n" unicode="n" horiz-adv-x="467" 
d="M418.5 93.5q7.5 -11.5 18.5 -15.5q-54 -22 -78 -78q-24 56 -78 78q11 4 18.5 15.5t7.5 23.5v266q0 11 -23 17t-54 6q-27 0 -48 -5.5t-22 -15.5v-2v-266q0 -12 7.5 -23.5t18.5 -15.5q-54 -22 -78 -78q-24 56 -78 78q11 4 18.5 15.5t7.5 23.5v266q0 12 -7.5 23.5
t-18.5 15.5q54 22 78 78q14 -30 29 -45q15 -12 40.5 -18t55.5 -6q31 0 57.5 6t38.5 17q18 20 30 46q24 -56 78 -78q-11 -4 -18.5 -15.5t-7.5 -23.5v-266q0 -12 7.5 -23.5z" />
    <glyph glyph-name="o" unicode="o" horiz-adv-x="466" 
d="M418 92q8 -10 18 -14q-21 0 -67.5 -12.5t-86 -30.5t-46.5 -35q-8 18 -45 38t-80 32q-25 7 -55 7q-16 0 -25 -1q13 5 19 20.5t6 29.5v257q0 15 -8 25t-18 14q21 0 67.5 12.5t86 30.5t46.5 35q8 -18 45 -38t80 -32q25 -7 55 -7q16 0 25 1q-13 -5 -19 -20.5t-6 -29.5v-257
q0 -15 8 -25zM306 80v305q-27 6 -55.5 20.5t-49.5 33.5l-41 -19v-305q27 -6 55.5 -20.5t49.5 -33.5z" />
    <glyph glyph-name="p" unicode="p" horiz-adv-x="475" 
d="M427 92q8 -10 18 -14l-28 -10q-52 -19 -82 -33.5t-38 -34.5q-10 22 -36.5 41.5t-66.5 29.5q-26 3 -26 -32v-255q1 -32 11.5 -63t30.5 -57q-26 9 -52.5 31t-42.5 44q-15 -22 -60.5 -53t-84.5 -40q15 9 37.5 35t39 55t17.5 48v255q0 12 -7.5 23.5t-18.5 15.5v0
q11 4 18.5 15.5t7.5 23.5v266q0 12 -7.5 23.5t-18.5 15.5q54 22 78 78q12 -28 37 -51.5t41 -19.5q40 10 66.5 29.5t36.5 41.5q8 -20 38 -34.5t82 -33.5l28 -10q-10 -4 -18 -14t-8 -25v-266q0 -15 8 -25zM233 99q53 0 82 -20l1 1h-1v341q-29 -20 -81 -20q-24 0 -45 3h-2
q-10 0 -14.5 -6t-4.5 -15v-266q0 -16 4.5 -19t18.5 -2q21 3 42 3z" />
    <glyph glyph-name="q" unicode="q" horiz-adv-x="475" 
d="M428.5 -264q16.5 -29 39 -55t37.5 -35q-39 9 -84.5 40t-60.5 53q-16 -22 -42.5 -44t-52.5 -31q20 26 30.5 57t11.5 63v255q0 35 -26 32q-40 -10 -66.5 -29.5t-36.5 -41.5q-8 20 -38 34.5t-82 33.5l-28 10q10 4 18 14t8 25v266q0 15 -8 25t-18 14l28 10q52 19 82 33.5
t38 34.5q10 -22 36.5 -41.5t66.5 -29.5q16 -4 41 19.5t37 51.5q24 -56 78 -78q-11 -4 -18.5 -15.5t-7.5 -23.5v-266q0 -12 7.5 -23.5t18.5 -15.5v0q-11 -4 -18.5 -15.5t-7.5 -23.5v-255q1 -19 17.5 -48zM242 99q21 0 42 -3l9 -1q7 0 10.5 4.5t3.5 17.5v266q0 9 -5 15.5
t-16 5.5q-21 -3 -45 -3q-52 0 -81 20v-341h-1l1 -1q29 20 82 20z" />
    <glyph glyph-name="r" unicode="r" horiz-adv-x="321" 
d="M238.5 452.5q24.5 -25.5 52.5 -30.5q-16 -9 -28 -14t-26 -5q-23 0 -47 16l-30 -36v-266q0 -12 7.5 -23.5t18.5 -15.5q-54 -22 -78 -78q-24 56 -78 78q11 4 18.5 15.5t7.5 23.5v266q0 12 -7.5 23.5t-18.5 15.5q54 22 78 78q16 -35 40 -55l57 55q9 -22 33.5 -47.5z" />
    <glyph glyph-name="s" unicode="s" horiz-adv-x="444" 
d="M388 92q8 -10 18 -14q-22 0 -67.5 -12.5t-84.5 -30.5t-46 -35q-14 32 -61.5 56t-116.5 23q24 6 29 7l104 128l-132 23q30 7 33 32v114q0 15 -8 25t-18 14q22 3 62 15t74.5 29t41.5 34q14 -32 61.5 -56t116.5 -23q-34 -8 -27 -7l-89 -114l136 -23q-30 -7 -33 -31l-1 -5
v-124q0 -15 8 -25zM259 401q-62 0 -91 20v-102l70 -12l79 98q-36 -4 -58 -4zM180 99q67 0 96 -20l1 1h-1v114l-71 13l-89 -112q40 4 64 4z" />
    <glyph glyph-name="t" unicode="t" horiz-adv-x="336" 
d="M227.5 93.5q7.5 -11.5 18.5 -15.5q-54 -22 -78 -78q-24 56 -78 78q11 4 18.5 15.5t7.5 23.5v266q0 7 -15 17t-35 16q-18 5 -36 6q14 2 23 4q25 6 44 16t19 19v189q32 12 60.5 36.5t43.5 53.5v-279q0 -7 16.5 -16t37.5 -16q22 -6 32 -7q-16 -2 -36 -8t-35 -15t-15 -16
v-266q0 -12 7.5 -23.5z" />
    <glyph glyph-name="u" unicode="u" horiz-adv-x="467" 
d="M418.5 93.5q7.5 -11.5 18.5 -15.5q-54 -22 -78 -78q-12 26 -30 46q-12 11 -38.5 17t-57.5 6q-30 0 -55.5 -6t-40.5 -18q-15 -15 -29 -45q-24 56 -78 78q11 4 18.5 15.5t7.5 23.5v266q0 12 -7.5 23.5t-18.5 15.5q54 22 78 78q24 -56 78 -78q-11 -4 -18.5 -15.5t-7.5 -23.5
v-266v-2q1 -10 22 -15.5t48 -5.5q31 0 54 6t23 17v266q0 12 -7.5 23.5t-18.5 15.5q54 22 78 78q24 -56 78 -78q-11 -4 -18.5 -15.5t-7.5 -23.5v-266q0 -12 7.5 -23.5z" />
    <glyph glyph-name="v" unicode="v" horiz-adv-x="466" 
d="M418 96q8 -10 18 -14q-21 0 -67 -13.5t-86 -32.5t-47 -36q-8 18 -45 38t-80 32q-25 7 -55 7q-16 0 -25 -1q13 5 19 20.5t6 29.5v257q0 12 -7.5 23.5t-18.5 15.5q54 22 78 78q24 -56 78 -78q-11 -4 -18.5 -15.5t-7.5 -23.5v-268q27 -6 55.5 -20.5t49.5 -33.5l41 23v299
q0 12 -7.5 23.5t-18.5 15.5q54 22 78 78q24 -56 78 -78q-11 -4 -18.5 -15.5t-7.5 -23.5v-262q0 -15 8 -25z" />
    <glyph glyph-name="w" unicode="w" horiz-adv-x="716" 
d="M668 92q8 -10 18 -14q-21 0 -67.5 -12.5t-86 -30.5t-46.5 -35q-8 17 -40.5 35.5t-72.5 31.5q-48 -13 -88.5 -31.5t-48.5 -35.5q-8 18 -45 38t-80 32q-25 7 -55 7q-16 0 -25 -1q13 5 19 20.5t6 29.5v257q0 12 -7.5 23.5t-18.5 15.5q54 22 78 78q24 -56 78 -78
q-11 -4 -18.5 -15.5t-7.5 -23.5v-268q27 -6 55.5 -20.5t49.5 -33.5l41 19v303q0 12 -7.5 23.5t-18.5 15.5q54 22 78 78q24 -56 78 -78q-11 -4 -18.5 -15.5t-7.5 -23.5v-266v-2q27 -6 55.5 -20.5t49.5 -33.5l41 19v303q0 12 -7.5 23.5t-18.5 15.5q54 22 78 78q24 -56 78 -78
q-11 -4 -18.5 -15.5t-7.5 -23.5v-266q0 -15 8 -25z" />
    <glyph glyph-name="x" unicode="x" horiz-adv-x="443" 
d="M384.5 92.5q13.5 -10.5 25.5 -14.5q-32 -18 -32 -57q0 -5 2 -21q-31 29 -69 50t-72 25q8 4 14 13t6 18q0 7 -3 11l-48 80l-58 -81q-6 -9 -6 -18q0 -15 18 -20q-56 -6 -132 -78q6 11 13 19q21 31 21 43q0 11 -11 16q22 7 46 33l86 122l-95 156q-11 13 -27 23t-32 10
q19 8 31.5 25.5t12.5 39.5q0 8 -1 13q22 -28 60 -49t84 -29q-8 -4 -15.5 -13t-7.5 -17q0 -5 3 -10l43 -71l52 73q6 9 6 18q0 16 -18 20q56 6 132 78q-6 -11 -13 -19q-21 -31 -21 -43q0 -10 11 -16q-22 -7 -46 -33l-81 -114l99 -161q9 -11 22.5 -21.5z" />
    <glyph glyph-name="y" unicode="y" horiz-adv-x="474" 
d="M444 -272q0 -77 -50 -132t-161 -54q-86 1 -129.5 30t-43.5 80q0 45 35 102.5t100 118.5q19 17 28.5 33t9.5 28q0 11 -7.5 17.5t-21.5 6.5q-20 0 -46 -13q32 28 64 28q18 0 29 -9.5t11 -24.5q0 -24 -29 -52q-72 -68 -111.5 -129t-39.5 -107q0 -43 36.5 -66.5t111.5 -24.5
q142 -1 142 93q0 26 -8.5 52.5t-25.5 71.5l-11 28q-12 33 -16 64.5t-4 74.5v60v35q0 35 -26 32q-40 -10 -66.5 -29.5t-36.5 -41.5q-8 20 -38 34.5t-82 33.5l-28 10q10 4 18 14t8 25v266q0 12 -7.5 23.5t-18.5 15.5q54 22 78 78q24 -56 78 -78q-11 -4 -18.5 -15.5t-7.5 -23.5
v-303h-1l1 -1q29 20 82 20q21 0 42 -3l9 -1q7 0 10.5 4.5t3.5 17.5v266q0 12 -7.5 23.5t-18.5 15.5q54 22 78 78q24 -56 78 -78q-11 -4 -18.5 -15.5t-7.5 -23.5v-266q0 -12 7.5 -23.5t18.5 -15.5v0q-11 -4 -18.5 -15.5t-7.5 -23.5v-35v-58q0 -43 4 -75t16 -66q13 -36 13 -77
z" />
    <glyph glyph-name="z" unicode="z" horiz-adv-x="505" 
d="M475 78q-54 -22 -78 -78q-13 28 -29 45q-15 12 -46.5 18t-70.5 6q-61 0 -100 -13q-16 -8 -19 -10v0q-33 -20 -55 -46q1 5 1 13q0 22 -12.5 39.5t-31.5 25.5q16 0 32 10.5t27 23.5l3 4l1 1v0l204 268v2q-4 10 -29 16.5t-57 6.5q-44 0 -68 -12q-26 -23 -39 -55
q-25 57 -78 79q54 22 78 78q14 -33 37 -53q35 -16 104 -16q61 0 100 13q16 8 19 10v0q33 20 55 46q-1 -5 -1 -13q0 -22 12.5 -39.5t31.5 -25.5q-15 0 -30 -9t-27 -22l-210 -277v-1q4 -10 29.5 -17t56.5 -7q28 0 51.5 6t34.5 19l1 2v0q13 16 25 41q25 -57 78 -79z" />
    <glyph glyph-name="braceleft" unicode="{" horiz-adv-x="369" 
d="M200.5 -58.5q-52.5 93.5 -70.5 238.5q-6 45 -30 87t-70 58q46 18 69.5 56.5t28.5 77.5q30 271 197 271v-38q-45 1 -73.5 -62.5t-39.5 -167.5q-4 -38 -27.5 -76.5t-69.5 -54.5q47 -16 70.5 -57.5t28.5 -86.5q13 -128 45.5 -213.5t79.5 -88.5v-38q-86 1 -138.5 94.5z" />
    <glyph glyph-name="bar" unicode="|" horiz-adv-x="144" 
d="M30 700h84v-850h-84v850z" />
    <glyph glyph-name="braceright" unicode="}" horiz-adv-x="369" 
d="M109.5 -26.5q32.5 85.5 45.5 213.5q5 45 28.5 86.5t70.5 57.5q-46 16 -69.5 54.5t-27.5 76.5q-11 104 -39.5 167.5t-73.5 62.5v38q167 0 197 -271q5 -39 28.5 -77.5t69.5 -56.5q-46 -16 -70 -58t-30 -87q-18 -145 -70.5 -238.5t-138.5 -94.5v38q47 3 79.5 88.5z" />
    <glyph glyph-name="asciitilde" unicode="~" horiz-adv-x="538" 
d="M299 226q-24 17 -53 50q-20 23 -34 34.5t-31 14.5q-5 1 -13 1q-33 0 -52 -27.5t-20 -71.5h-66q3 86 42.5 123.5t90.5 37.5q38 0 65 -18.5t59 -52.5q23 -25 39 -37t34 -12q40 0 58.5 34t21.5 84l68 -1q-2 -36 -16 -76.5t-46.5 -70.5t-85.5 -30q-37 1 -61 18z" />
    <glyph glyph-name="uni00A0" unicode="&#xa0;" horiz-adv-x="300" 
 />
    <glyph glyph-name="exclamdown" unicode="&#xa1;" horiz-adv-x="165" 
d="M45.5 462.5q-15.5 15.5 -15.5 37.5t15.5 37.5t37.5 15.5q21 0 36.5 -15.5t15.5 -37.5t-15.5 -37.5t-36.5 -15.5q-22 0 -37.5 15.5zM31 386h104v-533h-104v533z" />
    <glyph glyph-name="cent" unicode="&#xa2;" horiz-adv-x="560" 
d="M458 124q-48 -36 -113 -44v-129h-79v129q-76 8 -129.5 44t-80 89.5t-26.5 113.5q0 61 27 116.5t80.5 94t128.5 49.5v113l78 -1v-109q51 -5 92 -29t69 -62l-29 -1q-44 54 -132 60l1 -446q49 8 88.5 35t63.5 73l33 1q-24 -61 -72 -97zM177 467.5q-32 -62.5 -32 -137.5
t32 -136t89 -79v435q-57 -20 -89 -82.5z" />
    <glyph glyph-name="currency" unicode="&#xa4;" horiz-adv-x="531" 
d="M447 94l-55 54q-57 -42 -124 -42t-124 42l-60 -63l-54 56l62 65q-29 50 -29 105q0 66 39 119l-56 54l55 56l58 -56q52 31 109 31q49 0 95 -24l53 56l56 -56l-47 -50q22 -27 34.5 -60.5t12.5 -69.5q0 -55 -29 -105l58 -57zM356.5 222q36.5 37 36.5 89t-36.5 88.5
t-88.5 36.5t-89 -36.5t-37 -88.5t37 -89t89 -37t88.5 37z" />
    <glyph glyph-name="brokenbar" unicode="&#xa6;" horiz-adv-x="144" 
d="M30 700h84v-335h-84v335zM30 226l84 1v-377h-84v376z" />
    <glyph glyph-name="guillemotleft" unicode="&#xab;" horiz-adv-x="698" 
d="M438 478l-273 -189l273 -189h-140l-268 189l268 189h140zM668 478l-273 -189l273 -189h-140l-268 189l268 189h140z" />
    <glyph glyph-name="logicalnot" unicode="&#xac;" horiz-adv-x="610" 
d="M580 428v-280h-84v196h-466v84h550z" />
    <glyph glyph-name="uni00AD" unicode="&#xad;" 
d="M31 289l328 1v-79h-329z" />
    <glyph glyph-name="plusminus" unicode="&#xb1;" horiz-adv-x="479" 
d="M201 85v126h-126l1 78h125v125h78v-124h125v-79h-126v-125zM448 -39l1 -78h-419v79z" />
    <glyph glyph-name="uni00B5" unicode="&#xb5;" horiz-adv-x="505" 
d="M419 102q8 -14 20.5 -17t35.5 -3v-82q-110 0 -148 47q-12 10 -38.5 16t-56.5 6q-37 0 -66 -9q-6 -10 -6 -21v-156h-104v156q0 12 -7.5 23.5t-18.5 15.5v0q11 4 18.5 15.5t7.5 23.5v266q0 12 -7.5 23.5t-18.5 15.5q54 22 78 78q24 -56 78 -78q-11 -4 -18.5 -15.5
t-7.5 -23.5v-266v-2q1 -10 22 -15.5t48 -5.5q31 0 54 6t23 17v266q0 12 -7.5 23.5t-18.5 15.5q54 22 78 78q24 -56 78 -78q-11 -4 -18.5 -15.5t-7.5 -23.5v-236q0 -31 8 -45z" />
    <glyph glyph-name="periodcentered" unicode="&#xb7;" horiz-adv-x="165" 
d="M45.5 245.5q-15.5 15.5 -15.5 37.5t15.5 37.5t37.5 15.5q21 0 36.5 -15.5t15.5 -37.5t-15.5 -37.5t-36.5 -15.5q-22 0 -37.5 15.5z" />
    <glyph glyph-name="guillemotright" unicode="&#xbb;" horiz-adv-x="698" 
d="M170 478l268 -189l-268 -189h-140l273 189l-273 189h140zM400 478l268 -189l-268 -189h-140l273 189l-273 189h140z" />
    <glyph glyph-name="questiondown" unicode="&#xbf;" horiz-adv-x="556" 
d="M269.5 462.5q-15.5 15.5 -15.5 37.5t15.5 37.5t36.5 15.5q22 0 37.5 -15.5t15.5 -37.5t-15.5 -37.5t-37.5 -15.5q-21 0 -36.5 15.5zM146 -122q-57 26 -86.5 69t-29.5 92q0 60 45 114t130 83q27 9 39 31.5t14 46.5t2 72h95q1 -12 1 -33q0 -65 -16.5 -102t-40.5 -53
t-66 -33q-29 -11 -40 -17q-31 -15 -46.5 -44t-15.5 -65q0 -37 17 -72t48.5 -58t74.5 -24q67 -2 113 24t46 72q0 26 -18 59q-18 30 -18 58q0 26 16.5 41.5t39.5 15.5q15 0 27.5 -7t19.5 -19q29 -51 29 -99q0 -52 -32 -92.5t-88 -63t-125 -22.5q-78 0 -135 26z" />
    <glyph glyph-name="multiply" unicode="&#xd7;" horiz-adv-x="347" 
d="M317 314l-89 -88l88 -89l-54 -55l-89 89l-89 -89l-54 56l88 88l-88 88l55 56l88 -89l88 89z" />
    <glyph glyph-name="divide" unicode="&#xf7;" 
d="M165.5 379.5q-15.5 15.5 -15.5 37.5t15.5 37.5t37.5 15.5q21 0 36.5 -15.5t15.5 -37.5t-15.5 -37.5t-36.5 -15.5q-22 0 -37.5 15.5zM31 289l328 1v-79h-329zM166.5 45.5q-15.5 15.5 -15.5 37.5t15.5 37.5t37.5 15.5q21 0 36.5 -15.5t15.5 -37.5t-15.5 -37.5t-36.5 -15.5
q-22 0 -37.5 15.5z" />
    <glyph glyph-name="endash" unicode="&#x2013;" horiz-adv-x="479" 
d="M31 289l418 1v-79h-419z" />
    <glyph glyph-name="emdash" unicode="&#x2014;" horiz-adv-x="599" 
d="M31 289l538 1v-79h-539z" />
    <glyph glyph-name="quoteleft" unicode="&#x2018;" horiz-adv-x="177" 
d="M89 708h58l-32 -206h-85z" />
    <glyph glyph-name="quoteright" unicode="&#x2019;" horiz-adv-x="177" 
d="M62 708h85l-59 -206h-58z" />
    <glyph glyph-name="quotesinglbase" unicode="&#x201a;" horiz-adv-x="174" 
d="M73 -43q19 0 19 24q0 6 -4.5 9.5t-15.5 8.5q-20 9 -31 20.5t-11 35.5q0 16 13 33.5t40 17.5q32 0 48 -28t13 -76q-1 -29 -19 -45.5t-44 -16.5q-13 0 -25 4l9 14q3 -1 8 -1z" />
    <glyph glyph-name="quotedblleft" unicode="&#x201c;" horiz-adv-x="600" 
d="M203 708h58l-32 -206h-85zM323 708h58l-32 -206h-85z" />
    <glyph glyph-name="quotedblright" unicode="&#x201d;" horiz-adv-x="297" 
d="M62 708h85l-59 -206h-58zM182 708h85l-59 -206h-58z" />
    <glyph glyph-name="quotedblbase" unicode="&#x201e;" horiz-adv-x="174" 
d="M131 78q16 -28 13 -76q-1 -29 -19 -45.5t-44 -16.5q-13 0 -25 4l9 14q3 -1 8 -1q19 0 19 24q0 6 -4.5 9.5t-15.5 8.5q-20 9 -31 20.5t-11 35.5q0 16 13 33.5t40 17.5q32 0 48 -28z" />
    <glyph glyph-name="dagger" unicode="&#x2020;" 
d="M359 576v-79h-125l-1 -265l-77 -1v266h-126l1 78h125v125h78v-124h125z" />
    <glyph glyph-name="daggerdbl" unicode="&#x2021;" 
d="M359 497h-125l-1 -51h126v-79h-126v-135l-77 -1v136h-126l1 78h125v52h-126l1 78h125v125h78v-124h125v-79z" />
    <glyph glyph-name="bullet" unicode="&#x2022;" horiz-adv-x="223" 
d="M54 225q-24 24 -24 58t24 58t58 24q33 0 57 -24t24 -58t-24 -58t-57 -24q-34 0 -58 24z" />
    <glyph glyph-name="ellipsis" unicode="&#x2026;" horiz-adv-x="165" 
d="M119.5 90.5q15.5 -15.5 15.5 -37.5t-15.5 -37.5t-36.5 -15.5q-22 0 -37.5 15.5t-15.5 37.5t15.5 37.5t37.5 15.5q21 0 36.5 -15.5z" />
    <glyph glyph-name="guilsinglleft" unicode="&#x2039;" horiz-adv-x="468" 
d="M438 478l-273 -189l273 -189h-140l-268 189l268 189h140z" />
    <glyph glyph-name="guilsinglright" unicode="&#x203a;" horiz-adv-x="468" 
d="M170 478l268 -189l-268 -189h-140l273 189l-273 189h140z" />
    <glyph glyph-name="partialdiff" unicode="&#x2202;" horiz-adv-x="613" 
d="M146.5 27.5q-61.5 39.5 -89 102t-27.5 135.5t40 128.5t103.5 85.5t129.5 30q54 0 99 -21t71 -63q-8 65 -45.5 122t-99 92t-138.5 35v38q108 0 198 -50t142.5 -135t52.5 -185q0 -94 -32.5 -175t-95.5 -130t-150 -49q-97 0 -158.5 39.5zM436.5 111.5q41.5 93.5 41.5 223.5
q0 28 -1 41q-28 49 -70.5 74.5t-90.5 25.5q-49 0 -91.5 -25.5t-69 -74.5t-26.5 -115q0 -100 43 -171.5t133 -71.5t131.5 93.5z" />
    <glyph glyph-name="emptyset" unicode="&#x2205;" horiz-adv-x="640" 
d="M575.5 427.5q34.5 -63.5 34.5 -137.5q0 -79 -39 -145.5t-105.5 -105.5t-145.5 -39q-49 0 -93 15l-83 -169h-94l102 207q-57 41 -89.5 103t-32.5 134q0 79 39 145.5t105.5 105.5t145.5 39q46 0 86 -13l65 133h94l-83 -169q59 -40 93.5 -103.5zM116.5 189.5
q23.5 -46.5 64.5 -78.5l196 399q-31 7 -57 7q-61 0 -113.5 -30.5t-83 -83t-30.5 -113.5q0 -54 23.5 -100.5zM433.5 93.5q52.5 30.5 83 83t30.5 113.5q0 55 -25 103.5t-69 80.5l-197 -402q30 -9 64 -9q61 0 113.5 30.5z" />
    <glyph glyph-name="product" unicode="&#x220f;" horiz-adv-x="610" 
d="M580 700v-84h-130v-616h-84v616h-106v-616h-84v616h-146v84h550z" />
    <glyph glyph-name="summation" unicode="&#x2211;" horiz-adv-x="479" 
d="M449 700v-79h-325l181 -258l-180 -285l324 1v-79h-419l1 78l180 285l-181 258v79h419z" />
    <glyph glyph-name="minus" unicode="&#x2212;" 
d="M31 289l328 1v-79h-329z" />
    <glyph glyph-name="radical" unicode="&#x221a;" horiz-adv-x="884" 
d="M859 700v-79h-343l-237 -737h-93l-156 422h99l100 -283l211 677h419z" />
    <glyph glyph-name="infinity" unicode="&#x221e;" horiz-adv-x="1100" 
d="M848 512q112 0 167 -41.5t55 -111.5q0 -80 -54.5 -129t-204.5 -48q-87 1 -152 31.5t-117 75.5q-80 -50 -145 -77.5t-124 -27.5q-72 0 -127.5 21t-85.5 59t-30 87q0 79 53.5 121t177.5 42q104 0 168 -33.5t117 -87.5q85 55 146 85t119 33q13 1 37 1zM945.5 287
q43.5 29 43.5 68q0 34 -36 56.5t-98 22.5q-11 0 -35 -2q-40 -4 -88.5 -29t-118.5 -70q44 -35 91 -55t108 -20q90 0 133.5 29zM363.5 288.5q49.5 20.5 110.5 58.5q-46 36 -102.5 62t-109.5 26q-64 0 -101 -17.5t-37 -53.5q0 -25 18.5 -47t51.5 -35.5t76 -13.5q44 0 93.5 20.5
z" />
    <glyph glyph-name="integral" unicode="&#x222b;" horiz-adv-x="610" 
d="M580 882l-1 -82h-50t-68.5 -10.5t-29.5 -31.5l-158 -841q-16 -69 -57.5 -96.5t-127.5 -27.5h-58l1 82h50t68.5 10.5t29.5 31.5l158 841q16 69 57.5 96.5t127.5 27.5h58z" />
    <glyph glyph-name="approxequal" unicode="&#x2248;" horiz-adv-x="538" 
d="M299 296q-24 17 -53 50q-20 23 -34 34.5t-31 14.5q-5 1 -13 1q-33 0 -52 -27.5t-20 -71.5h-66q3 86 42.5 123.5t90.5 37.5q38 0 65 -18.5t59 -52.5q23 -25 39 -37t34 -12q40 0 58.5 34t21.5 84l68 -1q-2 -36 -16 -76.5t-46.5 -70.5t-85.5 -30q-37 1 -61 18zM299 106
q-24 17 -53 50q-20 23 -34 34.5t-31 14.5q-5 1 -13 1q-33 0 -52 -27.5t-20 -71.5h-66q3 86 42.5 123.5t90.5 37.5q38 0 65 -18.5t59 -52.5q23 -25 39 -37t34 -12q40 0 58.5 34t21.5 84l68 -1q-2 -36 -16 -76.5t-46.5 -70.5t-85.5 -30q-37 1 -61 18z" />
    <glyph glyph-name="notequal" unicode="&#x2260;" horiz-adv-x="575" 
d="M545 701l-168 -341h53v-79h-92l-30 -61h122v-79h-161l-145 -294h-94l145 294h-74l1 78h112l30 62h-143l1 78l181 1l168 341h94z" />
    <glyph glyph-name="lessequal" unicode="&#x2264;" horiz-adv-x="479" 
d="M449 500v-99l-311 -156l311 -144v-101l-408 196v93zM30 -38l418 -1l1 -78h-419v79z" />
    <glyph glyph-name="greaterequal" unicode="&#x2265;" horiz-adv-x="479" 
d="M438 289v-93l-408 -196v101l311 144l-311 156v99zM31 -39l418 1v-79h-419z" />
    </font>
</defs>
</svg>
