<?xml version="1.0" standalone="no"?>
<!DOCTYPE svg PUBLIC "-//W3C//DTD SVG 1.1//EN" "http://www.w3.org/Graphics/SVG/1.1/DTD/svg11.dtd" >
<svg xmlns="http://www.w3.org/2000/svg" xmlns:xlink="http://www.w3.org/1999/xlink" version="1.1">
<metadata>
Created by FontForge 20201107 at Fri Feb 14 20:52:10 1997
 By 
Copyright (c) 1993 Ares Software Corp. All rights reserved.
</metadata>
<defs>
<font id="DorisPFC-Bold" horiz-adv-x="637" >
  <font-face 
    font-family="Doris PP"
    font-weight="400"
    font-stretch="normal"
    units-per-em="1000"
    panose-1="2 11 5 0 0 0 0 0 0 0"
    ascent="800"
    descent="-200"
    x-height="495"
    cap-height="697"
    bbox="-166 -222 1002 944"
    underline-thickness="50"
    underline-position="-125"
    unicode-range="U+0020-F002"
  />
<missing-glyph horiz-adv-x="500" 
d="M74 0v697h369v-697h-369zM110 661v-625h297v625h-297z" />
    <glyph glyph-name=".notdef" horiz-adv-x="500" 
d="M74 0v697h369v-697h-369zM110 661v-625h297v625h-297z" />
    <glyph glyph-name=".null" horiz-adv-x="0" 
 />
    <glyph glyph-name="nonmarkingreturn" horiz-adv-x="291" 
 />
    <glyph glyph-name="space" unicode=" " horiz-adv-x="291" 
 />
    <glyph glyph-name="exclam" unicode="!" horiz-adv-x="410" 
d="M204 152q77 0 78 -1t1 -75q0 -75 -1 -76t-77 -1q-77 0 -78 1t-1 75q0 75 1 76t77 1zM289 696l-6 -146l-18 -329h-121l-18 325l-5 150h168z" />
    <glyph glyph-name="quotedbl" unicode="&#x22;" horiz-adv-x="544" 
d="M431 699v-114l-1 -147h-126l-1 148v113h128zM240 699v-114l-1 -147h-126l-1 148v113h128z" />
    <glyph glyph-name="numbersign" unicode="#" horiz-adv-x="585" 
d="M43 289h100l17 119h-89v95h102l28 194h98l-28 -194h97l28 194h98l-28 -194h74v-95h-87l-17 -119h76v-95h-90l-28 -195h-98l28 195h-97l-28 -195h-98l28 195h-86v95zM241 289h97l17 119h-97z" />
    <glyph glyph-name="dollar" unicode="$" horiz-adv-x="583" 
d="M320 784v-75q49 -1 91 -8q48 -8 85 -23l-13 -123q-39 19 -86 27q-39 8 -77 9v-170l27 -9q107 -35 150.5 -82t43.5 -131q0 -101 -73 -157q-54 -41 -148 -52v-85h-54v82q-50 0 -105 8q-58 9 -95 21l5 1h-5l12 134q20 -11 69.5 -27t112.5 -16h6v179l-12 4q-104 32 -155 77
t-51 131q0 101 69 155q54 43 149 53v77h54zM266 441v146q-24 -7 -38 -17q-27 -20 -27 -60q0 -29 25 -49q9 -6 40 -20zM320 266v-151q20 6 33 14q36 22 36 59q0 30 -28 54q-11 9 -41 24z" />
    <glyph glyph-name="percent" unicode="%" horiz-adv-x="986" 
d="M652 718h87l-411 -739h-86zM245 709q83 0 127 -49.5t44 -141.5q0 -95 -43 -145.5t-128 -50.5q-84 0 -127 50t-43 143q0 92 44 143t126 51zM243 623q-30 0 -42.5 -28t-12.5 -80q0 -53 12 -80t45 -27q32 0 44.5 28t12.5 81t-13 79.5t-46 26.5zM744 375q83 0 127 -49.5
t44 -140.5q0 -96 -43.5 -146.5t-127.5 -50.5t-127.5 50t-43.5 144q0 91 44.5 142t126.5 51zM742 289q-30 0 -43 -28t-13 -79q0 -54 12.5 -81t45.5 -27q32 0 44.5 28t12.5 82q0 52 -13 78.5t-46 26.5z" />
    <glyph glyph-name="ampersand" unicode="&#x26;" horiz-adv-x="751" 
d="M718 377q-6 -72 -32 -128.5t-65 -103.5q-3 -4 -6 -7q64 -68 129 -138h-185l-45 47q-24 -16 -47 -26q-75 -33 -162 -33q-122 0 -188 62.5t-66 141.5q0 77 43 125q35 39 99 66q-32 29 -56 59q-32 42 -32 102q0 75 63 120t155 45q95 0 160 -40t66 -122q0 -79 -70 -135
q-34 -27 -76 -47q63 -65 123 -131q26 39 36 68q13 35 15 75h141zM318 438q19 10 44 28q45 34 45 71q0 30 -22.5 47.5t-55.5 17.5q-30 0 -53.5 -17.5t-23.5 -48.5q0 -34 42 -75q11 -11 24 -23zM276 300q-36 -19 -52 -40q-20 -27 -20 -62q0 -42 34.5 -70t80.5 -28q53 0 103 32
q4 3 7 5z" />
    <glyph glyph-name="quotesingle" unicode="'" horiz-adv-x="303" 
d="M215 699v-114l-1 -147h-126l-1 148v113h128z" />
    <glyph glyph-name="parenleft" unicode="(" horiz-adv-x="363" 
d="M207 304q0 -131 44.5 -252.5t98.5 -195.5h-134q-57 67 -110 190.5t-53 257.5t53 257.5t110 190.5h134q-54 -74 -98.5 -195.5t-44.5 -252.5z" />
    <glyph glyph-name="parenright" unicode=")" horiz-adv-x="363" 
d="M156 304q0 131 -45 252.5t-98 195.5h134q56 -67 109.5 -190.5t53.5 -257.5t-53.5 -257.5t-109.5 -190.5h-134q53 74 98 195.5t45 252.5z" />
    <glyph glyph-name="asterisk" unicode="*" horiz-adv-x="578" 
d="M289 431l-71 -133l-95 70l105 107l-149 26l37 112l135 -66l-21 149h118l-21 -149l135 66l37 -112l-149 -26l105 -107l-95 -70z" />
    <glyph glyph-name="plus" unicode="+" horiz-adv-x="599" 
d="M243 319v193h116v-193h195v-116h-195v-196h-116v196h-196v116h196z" />
    <glyph glyph-name="comma" unicode="," horiz-adv-x="291" 
d="M80 151q145 0 149.5 -1.5t4.5 -4.5q-3 -14 -48.5 -134.5t-49.5 -122.5l-122 2l3 5l61 248l-2 4z" />
    <glyph glyph-name="hyphen" unicode="-" horiz-adv-x="333" 
d="M33 326h266v-121h-266v121z" />
    <glyph glyph-name="period" unicode="." horiz-adv-x="291" 
d="M145 153q76 0 77 -1t1 -76t-1 -76t-77 -1t-77 1t-1 76t1 76t77 1z" />
    <glyph glyph-name="slash" unicode="/" horiz-adv-x="329" 
d="M0 -12l216 721h115l-216 -721h-115z" />
    <glyph glyph-name="zero" unicode="0" horiz-adv-x="583" 
d="M546 348q0 -174 -62 -267t-194 -93q-131 0 -193 93t-62 267q0 175 62 268t194 93q131 0 193 -93t62 -268zM386 348q0 119 -19.5 182t-76.5 63q-56 0 -75.5 -63t-19.5 -182q0 -118 19.5 -181t76.5 -63q56 0 75.5 63t19.5 181z" />
    <glyph glyph-name="one" unicode="1" horiz-adv-x="583" 
d="M434 0h-164v533l-119 -91l-73 104l216 151h139z" />
    <glyph glyph-name="two" unicode="2" horiz-adv-x="583" 
d="M41 0v121q49 42 95 85t91 91q45 47 80.5 98.5t35.5 99.5q0 42 -28.5 66t-74.5 24q-57 0 -108 -21t-66 -33l-9 130q24 15 84 31.5t127 16.5q112 0 175 -53.5t63 -150.5q0 -74 -47 -147.5t-86 -112.5q-29 -33 -60 -63t-65 -60h277l-1 -122h-483z" />
    <glyph glyph-name="three" unicode="3" horiz-adv-x="583" 
d="M74 552l-8 125q21 10 73.5 21t122.5 11q118 0 185.5 -47.5t67.5 -137.5q0 -59 -35 -101t-96 -60q69 -12 104 -54t35 -107q0 -102 -77 -158t-207 -56q-68 0 -117 7.5t-77 17.5l8 132q16 -10 61.5 -21.5t103.5 -11.5q62 0 102.5 26t40.5 68q0 50 -39 71.5t-105 21.5l-67 -1
v118l51 -1q71 0 111 21.5t40 65.5q0 41 -31.5 62t-90.5 21q-53 0 -94.5 -11.5t-61.5 -21.5z" />
    <glyph glyph-name="four" unicode="4" horiz-adv-x="583" 
d="M288 697h185v-442h93v-115h-93v-140h-148v140h-312v130zM325 550l-183 -295h183v295z" />
    <glyph glyph-name="five" unicode="5" horiz-adv-x="583" 
d="M511 697v-116h-279l-2 -132l60 6q114 0 178.5 -59.5t64.5 -165.5q0 -114 -78 -178t-210 -64q-65 0 -115 10t-61 13l4 139q11 -9 54.5 -23.5t101.5 -14.5q66 0 105.5 30.5t39.5 84.5q0 55 -42.5 83.5t-118.5 28.5q-38 0 -73 -5t-60 -12l6 375h425z" />
    <glyph glyph-name="six" unicode="6" horiz-adv-x="583" 
d="M539 227q0 -105 -68 -172t-175 -67q-119 0 -186.5 80t-67.5 258q0 171 76.5 275t216.5 108q52 0 94 -9t66 -20l-16 -115h4q-27 12 -59 20.5t-65 8.5q-97 -11 -137 -81q-29 -52 -32 -138q21 32 53 49q41 23 88 23q98 0 153 -58.5t55 -161.5zM198 215q8 -47 17 -66
q23 -48 77 -48q40 0 65 32.5t25 82.5q0 52 -24.5 83.5t-66.5 31.5q-43 0 -69 -36q-17 -23 -24 -80z" />
    <glyph glyph-name="seven" unicode="7" horiz-adv-x="583" 
d="M528 697v-126l-251 -571h-17l-140 3h-18l258 572h-309v122h477z" />
    <glyph glyph-name="eight" unicode="8" horiz-adv-x="583" 
d="M281 306q-45 -23 -65.5 -48t-20.5 -67q0 -36 29.5 -62t70.5 -26q40 0 67 25.5t27 63.5q0 42 -26.5 69.5t-81.5 44.5zM289 597q-37 0 -62.5 -24t-25.5 -59q0 -32 24.5 -58.5t72.5 -40.5q25 9 52.5 36t27.5 65q0 37 -24.5 59t-64.5 22zM168 360q-66 29 -92 72t-26 85
q0 92 64 142t176 50q110 0 174.5 -46t64.5 -130q0 -51 -33 -98t-85 -63q74 -29 106 -71.5t32 -112.5q0 -93 -70 -146.5t-187 -53.5q-118 0 -187.5 52t-69.5 145q0 65 33.5 107.5t99.5 67.5z" />
    <glyph glyph-name="nine" unicode="9" horiz-adv-x="583" 
d="M43 470q0 106 68 172.5t175 66.5q120 0 187 -80t67 -258q0 -171 -76 -275t-216 -108q-52 0 -93 9t-64 20l15 115h-9q27 -13 61 -21t66 -8q97 12 135 80q28 50 32 136q-20 -30 -51 -47q-41 -22 -88 -22q-97 0 -153 59t-56 161zM383 483q-8 45 -16 63q-22 50 -77 50
q-41 0 -65.5 -31.5t-24.5 -83.5t25 -84t66 -32q44 0 69 36q17 24 23 82z" />
    <glyph glyph-name="colon" unicode=":" horiz-adv-x="291" 
d="M145 516q76 0 77 -1t1 -76t-1 -76t-77 -1t-77 1t-1 76t1 76t77 1zM145 153q76 0 77 -1t1 -76t-1 -76t-77 -1t-77 1t-1 76t1 76t77 1z" />
    <glyph glyph-name="semicolon" unicode=";" horiz-adv-x="291" 
d="M145 516q76 0 77 -1t1 -76t-1 -76t-77 -1t-77 1t-1 76t1 76t77 1zM80 151q145 0 149.5 -1.5t4.5 -4.5q-3 -14 -48.5 -134.5t-49.5 -122.5l-122 2l3 5l61 248l-2 4z" />
    <glyph glyph-name="less" unicode="&#x3c;" horiz-adv-x="599" 
d="M188 259l365 -154l1 -112l-507 213v106l507 213l-1 -112z" />
    <glyph glyph-name="equal" unicode="=" horiz-adv-x="599" 
d="M46 314v116h507v-116h-507zM46 88v116h507v-116h-507z" />
    <glyph glyph-name="greater" unicode="&#x3e;" horiz-adv-x="599" 
d="M48 105l365 154l-365 154l-1 112l507 -213v-106l-507 -213z" />
    <glyph glyph-name="question" unicode="?" horiz-adv-x="521" 
d="M256 709q116 0 174.5 -49.5t58.5 -121.5q0 -52 -29 -96t-57 -69q-44 -47 -60 -78.5t-18 -59.5l-1 -14h-132l-1 21q2 39 21 79t56 83q21 19 40 49.5t19 62.5q0 34 -31.5 54.5t-84.5 20.5q-40 0 -82 -13t-66 -24l-5 125q30 9 82 19.5t116 10.5zM258 152q77 0 78 -1t1 -75
q0 -75 -1 -76t-77 -1q-77 0 -78 1t-1 75q0 75 1 76t77 1z" />
    <glyph glyph-name="at" unicode="@" horiz-adv-x="809" 
d="M423 710q153 0 252 -90t99 -210q0 -113 -83.5 -196.5t-176.5 -83.5q-16 0 -31.5 10.5t-22.5 39.5q-14 -16 -42.5 -32t-63.5 -16q-54 0 -103.5 49t-49.5 130q0 86 54.5 157.5t150.5 71.5q31 0 66 -17t49 -52l10 49h90l-55 -265q0 -14 9 -19.5t10 -5.5q33 0 69 55t36 130
q0 80 -77 140t-191 60q-113 0 -194.5 -79t-81.5 -194q0 -117 84 -193t188 -76q73 0 132 18t83 40h95q-28 -52 -111.5 -102.5t-185.5 -50.5q-174 0 -284 110.5t-110 258.5q0 143 112 253t274 110zM410 447q-42 0 -72 -42.5t-30 -88.5q0 -45 22.5 -66t47.5 -21q50 0 82 34.5
t32 86.5q0 43 -21.5 70t-60.5 27z" />
    <glyph glyph-name="A" unicode="A" horiz-adv-x="753" 
d="M468 274l-94 283l-98 -283h192zM746 0h-180l-56 153h-277l-57 -153h-168l270 697h193z" />
    <glyph glyph-name="B" unicode="B" horiz-adv-x="643" 
d="M235 304v-184h63q68 0 104.5 22t36.5 70q0 49 -35.5 70.5t-103.5 21.5h-65zM341 0h-270v697h274q111 0 173.5 -44.5t62.5 -130.5q0 -63 -34.5 -105t-100.5 -56q82 -14 119.5 -58.5t37.5 -98.5q0 -100 -68.5 -152t-193.5 -52zM235 418h59q59 0 91 20.5t32 61.5t-29 59
t-86 18h-67v-159z" />
    <glyph glyph-name="C" unicode="C" horiz-adv-x="647" 
d="M213 347q0 -106 64 -170t171 -64q48 0 93.5 11t74.5 24l9 -132q-39 -11 -88 -19.5t-104 -8.5q-181 0 -285 94.5t-104 261.5q0 168 105 266.5t282 98.5q62 0 112 -11.5t80 -22.5l-13 -136q-35 22 -79 33.5t-90 11.5q-102 0 -165 -66t-63 -171z" />
    <glyph glyph-name="D" unicode="D" horiz-adv-x="754" 
d="M537 351q0 100 -61 161t-159 61h-79v-449h75q103 0 163.5 61t60.5 166zM73 697h238q200 0 297.5 -89t97.5 -260q0 -172 -102 -260t-300 -88h-231v697z" />
    <glyph glyph-name="E" unicode="E" horiz-adv-x="587" 
d="M533 0h-462v697h456v-120h-292v-159h271v-120h-271v-177h298v-121z" />
    <glyph glyph-name="F" unicode="F" horiz-adv-x="533" 
d="M235 0h-164v697h431v-120h-267v-164h254l1 -120h-255v-293z" />
    <glyph glyph-name="G" unicode="G" horiz-adv-x="754" 
d="M212 347q0 -106 65 -170t171 -64q29 0 48.5 4t33.5 9v154h-126v121h284v-376q-38 -12 -105.5 -24.5t-137.5 -12.5q-189 0 -295.5 94.5t-106.5 265.5q0 172 109.5 266.5t302.5 94.5q69 0 122.5 -8.5t91.5 -23.5v-7l-11 -128q-39 21 -86 31.5t-96 10.5q-122 0 -193 -63.5
t-71 -173.5z" />
    <glyph glyph-name="H" unicode="H" horiz-adv-x="728" 
d="M73 697h164v-275l253 1v274h164v-697h-164v299h-253v-299h-164v697z" />
    <glyph glyph-name="I" unicode="I" horiz-adv-x="308" 
d="M237 0h-164v697h164v-697z" />
    <glyph glyph-name="J" unicode="J" horiz-adv-x="413" 
d="M182 697h164v-494q0 -112 -57 -169t-166 -57q-36 0 -65.5 5t-41.5 10v138q7 -3 26.5 -8.5t46.5 -5.5q45 0 69 31.5t24 109.5v440z" />
    <glyph glyph-name="K" unicode="K" horiz-adv-x="696" 
d="M238 0h-165v697h165v-294l230 294h198l-269 -327l290 -370h-211l-237 321h-1v-321z" />
    <glyph glyph-name="L" unicode="L" horiz-adv-x="533" 
d="M237 697v-573h282v-123l-446 -1v697h164z" />
    <glyph glyph-name="M" unicode="M" horiz-adv-x="969" 
d="M653 697h247v-697h-158l2 553l-187 -542h-146l-183 543l2 -554h-159v697h254l162 -486z" />
    <glyph glyph-name="N" unicode="N" horiz-adv-x="756" 
d="M531 200v497h154v-697h-199l-6 11l-254 482v-493h-154v697h204z" />
    <glyph glyph-name="O" unicode="O" horiz-adv-x="783" 
d="M569 348q0 109 -47 172.5t-131 63.5q-85 0 -132 -63.5t-47 -172.5q0 -108 47 -171.5t132 -63.5q84 0 131 63.5t47 171.5zM738 348q0 -168 -92 -264t-255 -96q-164 0 -256 96t-92 264q0 172 90.5 266.5t257.5 94.5q166 0 256.5 -94.5t90.5 -266.5z" />
    <glyph glyph-name="P" unicode="P" horiz-adv-x="588" 
d="M227 377l56 -2q55 0 86.5 27t31.5 76q0 47 -32 73t-86 26h-56v-200zM227 255v-255h-164v697h214q141 0 215 -53.5t74 -163.5q0 -108 -70 -166.5t-195 -58.5h-74z" />
    <glyph glyph-name="Q" unicode="Q" horiz-adv-x="783" 
d="M569 348q0 109 -47 172.5t-131 63.5q-85 0 -132 -63.5t-47 -172.5q0 -108 47 -171.5t132 -63.5q84 0 131 63.5t47 171.5zM722 -127l-178 -1l-6 -5l-115 117l-11 4h-21q-167 0 -257.5 94.5t-90.5 265.5q0 172 90.5 266.5t257.5 94.5q166 0 256.5 -94.5t90.5 -266.5
q0 -171 -91 -266q-29 -30 -82 -59z" />
    <glyph glyph-name="R" unicode="R" horiz-adv-x="642" 
d="M228 283v-283h-164v697h267q123 0 188 -45.5t65 -140.5q0 -57 -34 -104t-107 -62q44 -12 64.5 -56t35.5 -85l4 -9l75 -195h-176l-70 193q-13 39 -35 64.5t-63 25.5h-50zM228 403h69q56 0 88 21.5t32 65.5q0 46 -31.5 66.5t-93.5 20.5h-64v-174z" />
    <glyph glyph-name="S" unicode="S" horiz-adv-x="585" 
d="M539 201q0 -101 -75.5 -157t-203.5 -56q-59 0 -113 10.5t-88 20.5l13 140q17 -12 71 -29.5t108 -17.5q53 0 86.5 21t33.5 57q0 28 -25 51.5t-100 48.5q-99 32 -147.5 77t-48.5 131q0 101 74.5 156t204.5 55q49 0 94.5 -8t76.5 -19l-12 -130q-35 16 -72.5 24.5t-81.5 8.5
q-53 0 -84 -19.5t-31 -58.5q0 -27 23.5 -46t114.5 -50q101 -33 141.5 -80t40.5 -130z" />
    <glyph glyph-name="T" unicode="T" horiz-adv-x="564" 
d="M364 0h-164v573h-188v124h540v-124h-188v-573z" />
    <glyph glyph-name="U" unicode="U" horiz-adv-x="727" 
d="M498 295v402h164v-424q0 -143 -74.5 -214t-222.5 -71q-145 0 -222 68.5t-77 201.5v439h164v-408q0 -86 33 -131t101 -45q69 0 101.5 46.5t32.5 135.5z" />
    <glyph glyph-name="V" unicode="V" horiz-adv-x="696" 
d="M522 697h166l-242 -697h-195l-242 697h175l169 -543z" />
    <glyph glyph-name="W" unicode="W" horiz-adv-x="1008" 
d="M840 697h159l-175 -697h-203l-118 547l-114 -547h-204l-177 697h170l114 -542l110 542h209l114 -541z" />
    <glyph glyph-name="X" unicode="X" horiz-adv-x="701" 
d="M494 697h179l-211 -332l231 -365h-195l-151 263l-150 -263h-188l232 365l-209 332h191l135 -237z" />
    <glyph glyph-name="Y" unicode="Y" horiz-adv-x="696" 
d="M503 697h182l-254 -425v-272h-164v271l-257 426h191l150 -283z" />
    <glyph glyph-name="Z" unicode="Z" horiz-adv-x="590" 
d="M553 124v-124h-524v124l333 449h-321v124h507v-125l-339 -448h344z" />
    <glyph glyph-name="bracketleft" unicode="[" horiz-adv-x="366" 
d="M220 647v-686l53 1h58v-106h-105l-145 1v894l145 1h105v-106h-58z" />
    <glyph glyph-name="backslash" unicode="\" horiz-adv-x="329" 
d="M215 -12l-216 721h114l216 -721h-114z" />
    <glyph glyph-name="bracketright" unicode="]" horiz-adv-x="366" 
d="M146 647l-52 -1h-56v106h104l143 -1v-894l-143 -1h-104v106h56l52 -1v686z" />
    <glyph glyph-name="asciicircum" unicode="^" horiz-adv-x="599" 
d="M181 321h-113l178 376h104l179 -376h-113l-118 252z" />
    <glyph glyph-name="underscore" unicode="_" horiz-adv-x="500" 
d="M503 -125h-503v50h503v-50z" />
    <glyph glyph-name="grave" unicode="`" horiz-adv-x="307" 
d="M246 582h-102l-135 145h163z" />
    <glyph glyph-name="a" unicode="a" horiz-adv-x="581" 
d="M374 215v12q-7 -3 -25 -3t-44 -1q-63 -1 -93.5 -18.5t-30.5 -51.5q0 -26 20 -41.5t58 -15.5q52 0 83.5 38t31.5 81zM381 83q-29 -49 -71.5 -72t-92.5 -23q-86 0 -135 42.5t-49 109.5q0 82 64.5 125.5t187.5 44.5l89 -1q0 50 -31.5 70t-86.5 20q-43 0 -86.5 -14t-74.5 -37
l-3 120q30 16 84.5 27.5t107.5 11.5q121 0 178.5 -51.5t57.5 -163.5v-144q0 -60 3.5 -102t6.5 -42l2 -2l-142 -2q-4 0 -6 24t-3 59z" />
    <glyph glyph-name="b" unicode="b" 
d="M216 427q37 48 79 64t89 16q100 0 160 -69.5t60 -182.5q0 -122 -60.5 -194.5t-167.5 -72.5q-52 0 -96.5 22.5t-73.5 67.5v-78h-147v747h157v-320zM216 255v-10q0 -62 33 -99.5t82 -37.5q52 0 81.5 39.5t29.5 104.5q0 61 -30.5 98t-81.5 37q-53 0 -83 -41t-31 -91z" />
    <glyph glyph-name="c" unicode="c" horiz-adv-x="474" 
d="M448 123l5 -119q-14 -3 -50 -9.5t-83 -6.5q-132 0 -209.5 70.5t-77.5 192.5q0 114 77.5 185t202.5 71q40 0 75.5 -6.5t59.5 -17.5l-12 -118q-11 8 -39 16t-60 8q-64 0 -102.5 -38t-38.5 -101q0 -66 39.5 -105t106.5 -39q38 0 67.5 7.5t38.5 9.5z" />
    <glyph glyph-name="d" unicode="d" 
d="M429 76q-31 -47 -75 -67.5t-93 -20.5q-106 0 -167 71.5t-61 190.5q0 112 57 184.5t162 72.5q45 0 88 -15t79 -61v316h156v-747h-146v76zM419 240v11q-1 62 -33 99t-80 37q-49 0 -79.5 -38t-30.5 -99q0 -63 30 -102.5t81 -39.5q48 0 79.5 39t32.5 93z" />
    <glyph glyph-name="e" unicode="e" horiz-adv-x="582" 
d="M502 16q-37 -13 -81 -20.5t-99 -7.5q-135 0 -212.5 69t-77.5 191q0 118 70.5 188.5t187.5 70.5q130 0 191 -78t61 -215l1 -12h-358q12 -46 34 -68q39 -38 119 -38q51 0 98.5 13.5t65.5 23.5v-117zM184 297h204l11 -1q-1 53 -28 79.5t-77 26.5q-54 0 -84 -41
q-18 -23 -26 -64z" />
    <glyph glyph-name="f" unicode="f" horiz-adv-x="411" 
d="M273 0h-155v384h-101v111h103v64q0 101 47.5 150.5t143.5 49.5q32 0 56 -3.5t37 -6.5l-9 -118q-10 5 -21.5 9t-34.5 4q-36 0 -50.5 -22.5t-15.5 -60.5v-66h122v-111h-122v-384z" />
    <glyph glyph-name="g" unicode="g" 
d="M571 54q0 -143 -70 -209.5t-215 -66.5q-69 0 -122.5 13.5t-68.5 21.5l9 128q18 -14 67.5 -29.5t93.5 -15.5q77 0 116.5 38t39.5 118v33q-30 -45 -73.5 -65.5t-89.5 -20.5q-105 0 -165 67t-60 181q0 120 60.5 190t167.5 70q44 0 84.5 -19t68.5 -59v66h157v-441zM417 247
v10q-1 60 -30.5 94.5t-81.5 34.5q-50 0 -79.5 -36.5t-29.5 -97.5q0 -58 30.5 -95t79.5 -37t80 36t31 91z" />
    <glyph glyph-name="h" unicode="h" 
d="M575 0h-156v275q0 49 -22 77.5t-64 28.5q-55 0 -84.5 -39.5t-30.5 -114.5v-227h-156v747h156v-327q29 40 70 63.5t102 23.5q90 0 137.5 -52.5t47.5 -148.5v-306z" />
    <glyph glyph-name="i" unicode="i" horiz-adv-x="305" 
d="M73 649q0 64 1 65t78 1t78 -1t1 -65t-1 -65t-78 -1t-78 1t-1 65zM230 0h-156v495h156v-495z" />
    <glyph glyph-name="j" unicode="j" horiz-adv-x="305" 
d="M73 649q0 64 1 65t78 1t78 -1t1 -65t-1 -65t-78 -1t-78 1t-1 65zM75 495h155v-521q0 -95 -42 -145.5t-123 -50.5q-35 0 -55 3t-28 6l2 106l37 1q31 3 42.5 25.5t11.5 72.5v503z" />
    <glyph glyph-name="k" unicode="k" horiz-adv-x="582" 
d="M63 747h156v-459l159 207h178l-187 -225l206 -270h-194l-162 246v1v-247h-156v747z" />
    <glyph glyph-name="l" unicode="l" horiz-adv-x="305" 
d="M74 747h156v-747h-156v747z" />
    <glyph glyph-name="m" unicode="m" horiz-adv-x="947" 
d="M887 0h-156v276q0 52 -19.5 78.5t-61.5 26.5q-49 0 -72 -39t-24 -115v-227h-158v276q0 52 -17 78.5t-56 26.5q-52 0 -77.5 -39.5t-27.5 -113.5v-228h-156v495h146v-85q28 47 70 72t104 25q58 0 99.5 -27.5t56.5 -71.5q22 42 65 70.5t111 28.5q90 0 131.5 -50t41.5 -151
v-306z" />
    <glyph glyph-name="n" unicode="n" 
d="M575 0h-156v275q0 49 -22 77.5t-64 28.5q-55 0 -84.5 -39.5t-30.5 -114.5v-227h-156v495h146v-85q29 47 73.5 72t108.5 25q90 0 137.5 -52.5t47.5 -148.5v-306z" />
    <glyph glyph-name="o" unicode="o" horiz-adv-x="638" 
d="M604 247q0 -117 -78.5 -188t-206.5 -71t-206.5 71t-78.5 188q0 118 78.5 189t206.5 71t206.5 -71t78.5 -189zM441 247q0 69 -31.5 107.5t-90.5 38.5t-90.5 -38.5t-31.5 -107.5q0 -67 32 -106t90 -39t90 39t32 106z" />
    <glyph glyph-name="p" unicode="p" 
d="M215 68v-279h-156v706h147v-85q34 56 78.5 76.5t96.5 20.5q103 0 163 -71t60 -189q0 -117 -63.5 -188t-167.5 -71q-44 0 -87.5 18t-70.5 62zM215 245q1 -57 32.5 -97t82.5 -40q50 0 81 39.5t31 101.5q0 63 -30 100t-82 37q-49 0 -81 -37t-34 -93v-11z" />
    <glyph glyph-name="q" unicode="q" 
d="M422 68q-33 -46 -73 -63t-84 -17q-107 0 -169.5 72t-62.5 191q0 115 60.5 185.5t161.5 70.5q57 0 102 -22t75 -71v81h98l48 2v-708h-157zM422 245v11q-1 55 -33 92.5t-82 37.5q-51 0 -81 -38t-30 -100q0 -63 30.5 -101.5t81.5 -38.5t82.5 41t31.5 96z" />
    <glyph glyph-name="r" unicode="r" horiz-adv-x="419" 
d="M219 0h-155v495h141v-111q23 66 63 94.5t86 28.5q19 0 31 -2.5t22 -4.5l-7 -141q-9 2 -23 5.5t-35 3.5q-60 0 -91 -44.5t-32 -121.5v-202z" />
    <glyph glyph-name="s" unicode="s" horiz-adv-x="471" 
d="M436 151q0 -78 -61 -120.5t-168 -42.5q-49 0 -95 7t-75 18l10 119q12 -5 56.5 -20t94.5 -15q37 0 58.5 10.5t21.5 36.5q0 22 -22.5 35t-79.5 27q-60 12 -101.5 44.5t-41.5 99.5q0 75 62 116t156 41q42 0 85 -7.5t72 -16.5l-10 -113q-23 13 -59.5 21t-71.5 8
q-41 0 -61 -10.5t-20 -31.5q0 -17 22 -28t90 -28q72 -18 105 -54.5t33 -95.5z" />
    <glyph glyph-name="t" unicode="t" horiz-adv-x="416" 
d="M267 182q0 -41 17.5 -61.5t51.5 -20.5q21 0 36.5 4t23.5 8l4 -112q-12 -4 -42.5 -8t-64.5 -4q-90 0 -135.5 44t-45.5 131v221h-100v107l102 4l6 111l146 47l1 -158h126v-111h-126v-202z" />
    <glyph glyph-name="u" unicode="u" 
d="M574 495v-495h-144v88q-22 -41 -68.5 -70.5t-108.5 -29.5q-93 0 -142.5 52.5t-49.5 150.5v304h156v-257q0 -63 21 -93.5t69 -30.5q51 0 80.5 39.5t31.5 114.5v227h155z" />
    <glyph glyph-name="v" unicode="v" horiz-adv-x="580" 
d="M570 495l-193 -495h-174l-192 495h168l117 -348l117 348h157z" />
    <glyph glyph-name="w" unicode="w" horiz-adv-x="910" 
d="M554 495l102 -355l95 355h152l-161 -495h-179l-101 361l-107 -361h-176l-169 495h165l99 -356l99 359l57 -3h124z" />
    <glyph glyph-name="x" unicode="x" horiz-adv-x="582" 
d="M559 495l-159 -238l175 -257h-189l-102 165l-100 -165h-175l177 256l-162 239h185l90 -150l90 150h170z" />
    <glyph glyph-name="y" unicode="y" horiz-adv-x="580" 
d="M413 495h159l-217 -536q-31 -93 -78.5 -137t-122.5 -44q-45 0 -73 5t-36 7l10 113l65 -10q35 0 57.5 19.5t28.5 55.5l6 13l-202 514h170l119 -339z" />
    <glyph glyph-name="z" unicode="z" horiz-adv-x="501" 
d="M38 495h425v-121l-247 -257h253v-117h-440v123l249 255h-240v117z" />
    <glyph glyph-name="braceleft" unicode="{" horiz-adv-x="363" 
d="M27 261v86q50 7 66.5 28t16.5 77v167q0 48 36.5 90.5t117.5 42.5h78v-87h-45q-25 0 -40 -13.5t-15 -51.5v-162q0 -65 -28 -96.5t-86 -37.5q58 -6 86 -37.5t28 -96.5v-162q0 -38 14.5 -51.5t40.5 -13.5h45v-87h-78q-81 0 -117.5 42.5t-36.5 90.5v167q0 56 -16.5 77
t-66.5 28z" />
    <glyph glyph-name="bar" unicode="|" horiz-adv-x="225" 
d="M55 -24v774h114v-774h-114z" />
    <glyph glyph-name="braceright" unicode="}" horiz-adv-x="363" 
d="M339 347v-86q-51 -7 -68 -28t-17 -77v-167q0 -48 -36.5 -90.5t-119.5 -42.5h-78v87h46q25 0 40.5 13.5t15.5 51.5v162q0 65 28.5 96.5t87.5 37.5q-59 6 -87.5 37.5t-28.5 96.5v162q0 38 -15 51.5t-41 13.5h-46v87h78q83 0 119.5 -42.5t36.5 -90.5v-167q0 -56 17 -77
t68 -28z" />
    <glyph glyph-name="asciitilde" unicode="~" horiz-adv-x="599" 
d="M194 230q-30 0 -56 -24t-37 -46l-35 100q17 32 49 59t76 27q50 0 115.5 -34t99.5 -34q31 0 55.5 24t37.5 46l35 -100q-17 -32 -48.5 -59t-76.5 -27q-50 0 -115.5 34t-99.5 34z" />
    <glyph glyph-name="nonbreakingspace" unicode="&#xa0;" horiz-adv-x="583" 
 />
    <glyph glyph-name="exclamdown" unicode="&#xa1;" horiz-adv-x="410" 
d="M205 363q-77 0 -78 1t-1 75q0 75 1 76t77 1q77 0 78 -1t1 -75q0 -75 -1 -76t-77 -1zM120 -181l6 146l18 329h121l18 -325l5 -150h-168z" />
    <glyph glyph-name="cent" unicode="&#xa2;" horiz-adv-x="581" 
d="M263 -120h-60l40 127q-56 22 -89 51q-77 71 -77 193q0 114 77.5 185t202.5 71q22 0 42 -2l32 103h60l-35 -113q21 -5 36 -12l-12 -118q-11 8 -39 16q-9 3 -20 4l-85 -272q19 -7 50 -7q38 0 67.5 7.5t38.5 9.5l5 -119q-14 -3 -50 -9.5t-83 -6.5q-41 0 -66 5zM284 140
l78 248q-52 -6 -84 -37q-38 -38 -38 -101q0 -66 39 -105z" />
    <glyph glyph-name="sterling" unicode="&#xa3;" horiz-adv-x="582" 
d="M52 0v112l2 7h85l2 121v80h-79v87h81l1 64q1 105 67.5 171.5t191.5 66.5q42 0 75 -5.5t54 -11.5l-2 -29l-3 -93q-18 7 -40 11t-46 4q-65 0 -100 -31t-36 -105l-1 -42h146v-87h-148l-1 -110v-91h223h4v-118h-266h-76z" />
    <glyph glyph-name="currency" unicode="&#xa4;" horiz-adv-x="583" 
d="M292 479q-54 0 -92 -38t-38 -92t38 -92t92 -38t92 38t38 92t-38 92t-92 38zM539 349q0 -39 -11 -73.5t-33 -64.5l56 -59l-62 -62l-59 56q-30 -22 -64.5 -33t-73.5 -11q-40 0 -74 10.5t-64 33.5l-59 -56l-62 62l56 59q-22 30 -33 64.5t-11 73.5t10.5 73.5t33.5 64.5
l-56 59l62 62l59 -56q30 22 64 33t74 11q39 0 73.5 -10.5t64.5 -33.5l59 56l62 -62l-56 -59q22 -30 33 -64.5t11 -73.5z" />
    <glyph glyph-name="yen" unicode="&#xa5;" horiz-adv-x="583" 
d="M64 224h149v48l-7 14h-142v83h99l-168 330h163l135 -295l135 295h159l-168 -330h100v-83h-142l-6 -12v-50h148v-83h-148v-141h-158v141h-149v83z" />
    <glyph glyph-name="brokenbar" unicode="&#xa6;" horiz-adv-x="225" 
d="M55 -24v287h114v-287h-114zM55 463v287h114v-287h-114z" />
    <glyph glyph-name="section" unicode="&#xa7;" horiz-adv-x="581" 
d="M224 382q-15 -13 -25.5 -33t-10.5 -37q0 -29 15 -47.5t55 -35.5l98 -43q14 13 24.5 33t10.5 37q0 28 -15 46.5t-55 36.5zM435 144q30 -18 49 -48.5t19 -68.5q0 -83 -69.5 -126t-178.5 -43q-42 0 -95 9t-79 18l8 110q34 -9 78.5 -17.5t84.5 -8.5q41 0 71.5 12t30.5 44
q0 25 -24.5 41.5t-62.5 29.5l-78 32q-63 23 -95.5 62t-32.5 90q0 40 18 75t65 68q-29 18 -48.5 48.5t-19.5 68.5q0 83 65 126t167 43q38 0 88 -9t74 -18l-9 -110q0 -4 -3 -5q-3 0 -4 3q-26 11 -66 19.5t-74 8.5q-36 0 -62.5 -12t-26.5 -44q0 -25 24.5 -41.5t63.5 -29.5
l78 -32q62 -23 94.5 -62t32.5 -90q0 -40 -17.5 -75t-65.5 -68z" />
    <glyph glyph-name="dieresis" unicode="&#xa8;" horiz-adv-x="307" 
d="M45 727q65 0 66 -1t1 -68t-1 -68t-65 -1q-65 0 -65.5 1t-0.5 68t0.5 68t64.5 1zM261 727q65 0 66 -1t1 -68t-1 -68t-65 -1q-65 0 -65.5 1t-0.5 68t0.5 68t64.5 1z" />
    <glyph glyph-name="copyright" unicode="&#xa9;" horiz-adv-x="797" 
d="M397 710q150 0 255.5 -106t105.5 -255t-105.5 -255t-254.5 -106q-150 0 -255.5 106t-105.5 255t105.5 255t254.5 106zM398 623q-105 0 -179 -80.5t-74 -193.5q0 -114 74 -194.5t178 -80.5q105 0 179 80.5t74 193.5q0 114 -74 194.5t-178 80.5zM578 410l-88 -1
q-7 30 -28 46.5t-53 16.5q-47 0 -70.5 -34t-23.5 -87q0 -52 24 -88t69 -36q31 0 53.5 15.5t28.5 48.5l56 -1h33q-10 -78 -58.5 -114t-112.5 -36q-85 0 -141.5 58t-56.5 151t53.5 151.5t147.5 58.5q65 0 110.5 -36.5t56.5 -112.5z" />
    <glyph glyph-name="ordfeminine" unicode="&#xaa;" horiz-adv-x="581" 
d="M252 520v7l-47 -2q-42 -1 -62.5 -11.5t-20.5 -30.5q0 -16 13.5 -25t39.5 -9q34 0 55.5 22.5t21.5 48.5zM256 441q-19 -30 -47.5 -43.5t-62.5 -13.5q-57 0 -90 25.5t-33 65.5q0 49 43.5 75t125.5 27l60 -1q0 30 -21.5 42t-57.5 12q-29 0 -58.5 -8t-49.5 -22l-2 72
q20 9 56.5 16t71.5 7q81 0 119.5 -31t38.5 -98v-86q0 -36 2.5 -61.5t4.5 -25.5l-94 -2z" />
    <glyph glyph-name="guillemotleft" unicode="&#xab;" horiz-adv-x="585" 
d="M424 267l110 -206h-141l-115 206l125 206h141zM190 267l110 -206h-141l-115 206l125 206h141z" />
    <glyph glyph-name="logicalnot" unicode="&#xac;" horiz-adv-x="599" 
d="M438 108v201h-391v116h507v-317h-116z" />
    <glyph glyph-name="sfthyphen" unicode="&#xad;" horiz-adv-x="333" 
d="M33 326h266v-121h-266v121z" />
    <glyph glyph-name="registered" unicode="&#xae;" horiz-adv-x="797" 
d="M343 388h67q36 0 50 13.5t14 34.5t-18 31t-48 10h-65v-89zM397 710q150 0 255.5 -106t105.5 -255t-105.5 -255t-254.5 -106q-150 0 -255.5 106t-105.5 255t105.5 255t254.5 106zM398 623q-105 0 -179 -80.5t-74 -193.5q0 -114 74 -194.5t178 -80.5q105 0 179 80.5
t74 193.5q0 114 -74 194.5t-178 80.5zM343 152h-90v396h163q82 0 115 -30.5t33 -78.5q0 -50 -24 -80.5t-85 -33.5l101 -169l-91 -4q-24 43 -46 85t-47 82h-29v-167z" />
    <glyph glyph-name="macron" unicode="&#xaf;" horiz-adv-x="307" 
d="M-13 700h335v-83h-335v83z" />
    <glyph glyph-name="degree" unicode="&#xb0;" horiz-adv-x="400" 
d="M200 711q64 0 109 -45t45 -109t-45 -109t-109 -45t-109 45t-45 109t45 109t109 45zM200 637q-33 0 -56.5 -23.5t-23.5 -56.5t23.5 -56.5t56.5 -23.5t56.5 23.5t23.5 56.5t-23.5 56.5t-56.5 23.5z" />
    <glyph glyph-name="plusminus" unicode="&#xb1;" horiz-adv-x="599" 
d="M242 390v125h117v-125h195v-117h-195v-124h-117v124h-195v117h195zM47 0v117h507v-117h-507z" />
    <glyph glyph-name="twosuperior" unicode="&#xb2;" horiz-adv-x="378" 
d="M25 285v73q33 25 64 50.5t61 54.5q30 28 54 59t24 60q0 25 -19 39.5t-50 14.5q-38 0 -72.5 -12.5t-44.5 -19.5l-6 78q16 9 56.5 18.5t85.5 9.5q75 0 117 -32t42 -90q0 -44 -31.5 -88.5t-57.5 -67.5l-84 -74h186l-1 -73h-324z" />
    <glyph glyph-name="threesuperior" unicode="&#xb3;" horiz-adv-x="378" 
d="M47 616l-6 75q14 6 49.5 12.5t82.5 6.5q79 0 124 -28.5t45 -82.5q0 -35 -23.5 -60t-64.5 -36q47 -7 70 -32.5t23 -64.5q0 -61 -51.5 -94.5t-138.5 -33.5q-45 0 -78 4.5t-52 10.5l6 79q10 -6 40.5 -13t69.5 -7q42 0 69 15.5t27 41.5q0 30 -26 42.5t-71 12.5h-44v71l34 -1
q47 0 74 13t27 39q0 25 -21 37.5t-61 12.5q-35 0 -63 -7t-41 -13z" />
    <glyph glyph-name="acute" unicode="&#xb4;" horiz-adv-x="307" 
d="M67 582l74 145h163l-134 -145h-103z" />
    <glyph glyph-name="mu" unicode="&#xb5;" horiz-adv-x="639" 
d="M576 495v-495h-144v88q-17 -41 -57.5 -69.5t-95.5 -30.5q-19 0 -34.5 5.5t-23.5 14.5v-216h-158v703h155v-257q0 -63 21 -93.5t69 -30.5q52 0 81.5 39.5t31.5 114.5v227h155z" />
    <glyph glyph-name="paragraph" unicode="&#xb6;" horiz-adv-x="617" 
d="M554 -123v-6h-112v741h-100v-741h-112v473q-116 4 -168 49t-52 125q0 91 56.5 136t163.5 45h327v-6z" />
    <glyph glyph-name="middot" unicode="&#xb7;" horiz-adv-x="291" 
d="M145 360q76 0 77 -1t1 -76t-1 -76t-77 -1t-77 1t-1 76t1 76t77 1z" />
    <glyph glyph-name="cedilla" unicode="&#xb8;" horiz-adv-x="307" 
d="M67 -199l17 51q4 -3 25.5 -10.5t49.5 -7.5q26 0 39.5 8t13.5 25q0 16 -10.5 25.5t-28.5 9.5l-35 -7l-25 24l49 81h65l-38 -60l46 7q35 0 56 -21t21 -57q0 -43 -35 -66t-95 -23q-38 0 -67.5 7t-47.5 14z" />
    <glyph glyph-name="onesuperior" unicode="&#xb9;" horiz-adv-x="378" 
d="M266 285h-110v320l-80 -55l-49 63l145 90h93z" />
    <glyph glyph-name="ordmasculine" unicode="&#xba;" horiz-adv-x="638" 
d="M399 539q0 -70 -53 -112.5t-138 -42.5q-86 0 -138.5 42.5t-52.5 112.5q0 71 52.5 113.5t138.5 42.5q85 0 138 -42.5t53 -113.5zM289 539q0 42 -21 65t-60 23q-40 0 -61 -23t-21 -65q0 -40 21.5 -63.5t60.5 -23.5t60 23.5t21 63.5z" />
    <glyph glyph-name="guillemotright" unicode="&#xbb;" horiz-adv-x="585" 
d="M393 267l-120 206h141l125 -206l-3 -5l-112 -201h-141zM159 267l-120 206h141l125 -206l-3 -5l-112 -201h-141z" />
    <glyph glyph-name="onequarter" unicode="&#xbc;" horiz-adv-x="877" 
d="M269 285h-110v320l-80 -55l-49 63l145 90h93zM182 -22l406 741h95l-405 -741h-96zM790 0h-99v84h-209v78l184 256l25 -88l-123 -177h123v177l-25 88h124v-265h62v-69h-62v-84z" />
    <glyph glyph-name="onehalf" unicode="&#xbd;" horiz-adv-x="877" 
d="M261 285h-110v320l-80 -55l-49 63l145 90h93zM163 -22l406 741h95l-405 -741h-96zM524 0v73q33 25 64 50.5t61 54.5q30 28 54 59t24 60q0 25 -19 39.5t-50 14.5q-38 0 -72.5 -12.5t-44.5 -19.5l-6 78q16 9 56.5 18.5t85.5 9.5q75 0 117 -32t42 -90q0 -44 -31.5 -88.5
t-57.5 -67.5l-84 -74h186l-1 -73h-324z" />
    <glyph glyph-name="threequarters" unicode="&#xbe;" horiz-adv-x="877" 
d="M45 616l-6 75q14 6 49.5 12.5t82.5 6.5q79 0 124 -28.5t45 -82.5q0 -35 -23.5 -60t-64.5 -36q47 -7 70 -32.5t23 -64.5q0 -61 -51.5 -94.5t-138.5 -33.5q-45 0 -78 4.5t-52 10.5l6 79q10 -6 40.5 -13t69.5 -7q42 0 69 15.5t27 41.5q0 30 -26 42.5t-71 12.5h-44v71l34 -1
q47 0 74 13t27 39q0 25 -21 37.5t-61 12.5q-35 0 -63 -7t-41 -13zM188 -22l406 741h95l-405 -741h-96zM795 0h-99v84h-209v78l184 256l25 -88l-123 -177h123v177l-25 88h124v-265h62v-69h-62v-84z" />
    <glyph glyph-name="questiondown" unicode="&#xbf;" horiz-adv-x="521" 
d="M266 -193q-116 0 -174.5 49.5t-58.5 121.5q0 52 29 96t57 69q44 47 60 78.5t18 59.5l1 14h132l1 -21q-2 -39 -21 -79t-57 -83q-21 -19 -39.5 -49.5t-18.5 -62.5q0 -34 31 -54.5t85 -20.5q40 0 82 13t66 24l5 -125q-30 -9 -82 -19.5t-116 -10.5zM264 364q-77 0 -78 1
t-1 75q0 75 1 76t77 1q77 0 78 -1t1 -75q0 -75 -1 -76t-77 -1z" />
    <glyph glyph-name="Agrave" unicode="&#xc0;" horiz-adv-x="753" 
d="M468 274l-94 283l-98 -283h192zM746 0h-180l-56 153h-277l-57 -153h-168l270 697h193zM454 739h-102l-135 145h163z" />
    <glyph glyph-name="Aacute" unicode="&#xc1;" horiz-adv-x="753" 
d="M468 274l-94 283l-98 -283h192zM746 0h-180l-56 153h-277l-57 -153h-168l270 697h193zM296 739l74 145h163l-134 -145h-103z" />
    <glyph glyph-name="Acircumflex" unicode="&#xc2;" horiz-adv-x="753" 
d="M468 274l-94 283l-98 -283h192zM746 0h-180l-56 153h-277l-57 -153h-168l270 697h193zM201 738l110 147h130l111 -147h-105l-71 81l-70 -81h-105z" />
    <glyph glyph-name="Atilde" unicode="&#xc3;" horiz-adv-x="753" 
d="M468 274l-94 283l-98 -283h192zM746 0h-180l-56 153h-277l-57 -153h-168l270 697h193zM564 884q-4 -52 -34.5 -92t-80.5 -40q-34 0 -79 18.5t-72 18.5q-19 0 -31.5 -12t-13.5 -30h-64q4 52 34.5 92t80.5 40q34 0 79 -18.5t72 -18.5q19 0 31.5 12t13.5 30h64z" />
    <glyph glyph-name="Adieresis" unicode="&#xc4;" horiz-adv-x="753" 
d="M468 274l-94 283l-98 -283h192zM746 0h-180l-56 153h-277l-57 -153h-168l270 697h193zM268 884q65 0 66 -1t1 -68t-1 -68t-65 -1q-65 0 -65.5 1t-0.5 68t0.5 68t64.5 1zM484 884q65 0 66 -1t1 -68t-1 -68t-65 -1q-65 0 -65.5 1t-0.5 68t0.5 68t64.5 1z" />
    <glyph glyph-name="Aring" unicode="&#xc5;" horiz-adv-x="753" 
d="M468 274l-94 283l-98 -283h192zM746 0h-180l-56 153h-277l-57 -153h-168l270 697h193zM377 944q45 0 77 -32t32 -77t-32 -77t-77 -32t-77 32t-32 77t32 77t77 32zM377 886q-21 0 -36 -15t-15 -36t15 -36t36 -15t36 15t15 36t-15 36t-36 15z" />
    <glyph glyph-name="AE" unicode="&#xc6;" horiz-adv-x="978" 
d="M476 580l-153 -298h168l-11 298h-4zM495 160h-237l-82 -160h-177l5 3l373 695l548 -1v-120h-282l8 -159h253v-120h-248l8 -178h269v-120h-431z" />
    <glyph glyph-name="Ccedilla" unicode="&#xc7;" horiz-adv-x="647" 
d="M213 347q0 -106 64 -170t171 -64q48 0 93.5 11t74.5 24l9 -132q-39 -11 -88 -19.5t-104 -8.5q-181 0 -285 94.5t-104 261.5q0 168 105 266.5t282 98.5q62 0 112 -11.5t80 -22.5l-13 -136q-35 22 -79 33.5t-90 11.5q-102 0 -165 -66t-63 -171zM271 -199l17 51
q4 -3 25.5 -10.5t49.5 -7.5q26 0 39.5 8t13.5 25q0 16 -10.5 25.5t-28.5 9.5l-35 -7l-25 24l49 81h65l-38 -60l46 7q35 0 56 -21t21 -57q0 -43 -35 -66t-95 -23q-38 0 -67.5 7t-47.5 14z" />
    <glyph glyph-name="Egrave" unicode="&#xc8;" horiz-adv-x="587" 
d="M533 0h-462v697h456v-120h-292v-159h271v-120h-271v-177h298v-121zM371 739h-102l-135 145h163z" />
    <glyph glyph-name="Eacute" unicode="&#xc9;" horiz-adv-x="587" 
d="M533 0h-462v697h456v-120h-292v-159h271v-120h-271v-177h298v-121zM213 739l74 145h163l-134 -145h-103z" />
    <glyph glyph-name="Ecircumflex" unicode="&#xca;" horiz-adv-x="587" 
d="M533 0h-462v697h456v-120h-292v-159h271v-120h-271v-177h298v-121zM118 738l110 147h130l111 -147h-105l-71 81l-70 -81h-105z" />
    <glyph glyph-name="Edieresis" unicode="&#xcb;" horiz-adv-x="587" 
d="M533 0h-462v697h456v-120h-292v-159h271v-120h-271v-177h298v-121zM185 884q65 0 66 -1t1 -68t-1 -68t-65 -1q-65 0 -65.5 1t-0.5 68t0.5 68t64.5 1zM401 884q65 0 66 -1t1 -68t-1 -68t-65 -1q-65 0 -65.5 1t-0.5 68t0.5 68t64.5 1z" />
    <glyph glyph-name="Igrave" unicode="&#xcc;" horiz-adv-x="308" 
d="M237 0h-164v697h164v-697zM231 739h-102l-135 145h163z" />
    <glyph glyph-name="Iacute" unicode="&#xcd;" horiz-adv-x="308" 
d="M237 0h-164v697h164v-697zM73 739l74 145h163l-134 -145h-103z" />
    <glyph glyph-name="Icircumflex" unicode="&#xce;" horiz-adv-x="308" 
d="M237 0h-164v697h164v-697zM-22 738l110 147h130l111 -147h-105l-71 81l-70 -81h-105z" />
    <glyph glyph-name="Idieresis" unicode="&#xcf;" horiz-adv-x="308" 
d="M237 0h-164v697h164v-697zM45 884q65 0 66 -1t1 -68t-1 -68t-65 -1q-65 0 -65.5 1t-0.5 68t0.5 68t64.5 1zM261 884q65 0 66 -1t1 -68t-1 -68t-65 -1q-65 0 -65.5 1t-0.5 68t0.5 68t64.5 1z" />
    <glyph glyph-name="Eth" unicode="&#xd0;" horiz-adv-x="754" 
d="M237 417h156v-94h-156v-199h75q104 0 164.5 61t60.5 166q0 100 -61 161t-160 61h-79v-156zM5 417h68v283l238 -3q200 0 297.5 -89t97.5 -260q0 -172 -102 -260t-300 -88h-231v323h-68v94z" />
    <glyph glyph-name="Ntilde" unicode="&#xd1;" horiz-adv-x="756" 
d="M531 200v497h154v-697h-199l-6 11l-254 482v-493h-154v697h204zM566 884q-4 -52 -34.5 -92t-80.5 -40q-34 0 -79 18.5t-72 18.5q-19 0 -31.5 -12t-13.5 -30h-64q4 52 34.5 92t80.5 40q34 0 79 -18.5t72 -18.5q19 0 31.5 12t13.5 30h64z" />
    <glyph glyph-name="Ograve" unicode="&#xd2;" horiz-adv-x="783" 
d="M569 348q0 109 -47 172.5t-131 63.5q-85 0 -132 -63.5t-47 -172.5q0 -108 47 -171.5t132 -63.5q84 0 131 63.5t47 171.5zM738 348q0 -168 -92 -264t-255 -96q-164 0 -256 96t-92 264q0 172 90.5 266.5t257.5 94.5q166 0 256.5 -94.5t90.5 -266.5zM469 739h-102l-135 145
h163z" />
    <glyph glyph-name="Oacute" unicode="&#xd3;" horiz-adv-x="783" 
d="M569 348q0 109 -47 172.5t-131 63.5q-85 0 -132 -63.5t-47 -172.5q0 -108 47 -171.5t132 -63.5q84 0 131 63.5t47 171.5zM738 348q0 -168 -92 -264t-255 -96q-164 0 -256 96t-92 264q0 172 90.5 266.5t257.5 94.5q166 0 256.5 -94.5t90.5 -266.5zM311 739l74 145h163
l-134 -145h-103z" />
    <glyph glyph-name="Ocircumflex" unicode="&#xd4;" horiz-adv-x="783" 
d="M569 348q0 109 -47 172.5t-131 63.5q-85 0 -132 -63.5t-47 -172.5q0 -108 47 -171.5t132 -63.5q84 0 131 63.5t47 171.5zM738 348q0 -168 -92 -264t-255 -96q-164 0 -256 96t-92 264q0 172 90.5 266.5t257.5 94.5q166 0 256.5 -94.5t90.5 -266.5zM216 738l110 147h130
l111 -147h-105l-71 81l-70 -81h-105z" />
    <glyph glyph-name="Otilde" unicode="&#xd5;" horiz-adv-x="783" 
d="M569 348q0 109 -47 172.5t-131 63.5q-85 0 -132 -63.5t-47 -172.5q0 -108 47 -171.5t132 -63.5q84 0 131 63.5t47 171.5zM738 348q0 -168 -92 -264t-255 -96q-164 0 -256 96t-92 264q0 172 90.5 266.5t257.5 94.5q166 0 256.5 -94.5t90.5 -266.5zM579 884
q-4 -52 -34.5 -92t-80.5 -40q-34 0 -79 18.5t-72 18.5q-19 0 -31.5 -12t-13.5 -30h-64q4 52 34.5 92t80.5 40q34 0 79 -18.5t72 -18.5q19 0 31.5 12t13.5 30h64z" />
    <glyph glyph-name="Odieresis" unicode="&#xd6;" horiz-adv-x="783" 
d="M569 348q0 109 -47 172.5t-131 63.5q-85 0 -132 -63.5t-47 -172.5q0 -108 47 -171.5t132 -63.5q84 0 131 63.5t47 171.5zM738 348q0 -168 -92 -264t-255 -96q-164 0 -256 96t-92 264q0 172 90.5 266.5t257.5 94.5q166 0 256.5 -94.5t90.5 -266.5zM283 884q65 0 66 -1
t1 -68t-1 -68t-65 -1q-65 0 -65.5 1t-0.5 68t0.5 68t64.5 1zM499 884q65 0 66 -1t1 -68t-1 -68t-65 -1q-65 0 -65.5 1t-0.5 68t0.5 68t64.5 1z" />
    <glyph glyph-name="multiply" unicode="&#xd7;" horiz-adv-x="599" 
d="M221 259l-157 157l79 79l157 -157l157 157l79 -79l-157 -157l157 -157l-79 -79l-157 157l-157 -157l-79 79z" />
    <glyph glyph-name="Oslash" unicode="&#xd8;" horiz-adv-x="783" 
d="M552 479l-278 -319q43 -47 120 -47q86 0 134 63.5t48 171.5q0 83 -24 131zM231 226l277 317q-41 41 -114 41q-86 0 -134.5 -63.5t-48.5 -172.5q0 -76 20 -122zM673 732l56 -51l-67 -77q83 -90 83 -256q0 -171 -91.5 -265.5t-259.5 -94.5q-141 0 -219 59l-73 -84
q-8 10 -29 27.5t-27 23.5l74 84q-78 89 -78 250q0 172 92 266.5t260 94.5q137 0 211 -55z" />
    <glyph glyph-name="Ugrave" unicode="&#xd9;" horiz-adv-x="727" 
d="M498 295v402h164v-424q0 -143 -74.5 -214t-222.5 -71q-145 0 -222 68.5t-77 201.5v439h164v-408q0 -86 33 -131t101 -45q69 0 101.5 46.5t32.5 135.5zM441 739h-102l-135 145h163z" />
    <glyph glyph-name="Uacute" unicode="&#xda;" horiz-adv-x="727" 
d="M498 295v402h164v-424q0 -143 -74.5 -214t-222.5 -71q-145 0 -222 68.5t-77 201.5v439h164v-408q0 -86 33 -131t101 -45q69 0 101.5 46.5t32.5 135.5zM283 739l74 145h163l-134 -145h-103z" />
    <glyph glyph-name="Ucircumflex" unicode="&#xdb;" horiz-adv-x="727" 
d="M498 295v402h164v-424q0 -143 -74.5 -214t-222.5 -71q-145 0 -222 68.5t-77 201.5v439h164v-408q0 -86 33 -131t101 -45q69 0 101.5 46.5t32.5 135.5zM188 738l110 147h130l111 -147h-105l-71 81l-70 -81h-105z" />
    <glyph glyph-name="Udieresis" unicode="&#xdc;" horiz-adv-x="727" 
d="M498 295v402h164v-424q0 -143 -74.5 -214t-222.5 -71q-145 0 -222 68.5t-77 201.5v439h164v-408q0 -86 33 -131t101 -45q69 0 101.5 46.5t32.5 135.5zM255 884q65 0 66 -1t1 -68t-1 -68t-65 -1q-65 0 -65.5 1t-0.5 68t0.5 68t64.5 1zM471 884q65 0 66 -1t1 -68t-1 -68
t-65 -1q-65 0 -65.5 1t-0.5 68t0.5 68t64.5 1z" />
    <glyph glyph-name="Yacute" unicode="&#xdd;" horiz-adv-x="696" 
d="M503 697h182l-254 -425v-272h-164v271l-257 426h191l150 -283zM271 739l74 145h163l-134 -145h-103z" />
    <glyph glyph-name="Thorn" unicode="&#xde;" horiz-adv-x="588" 
d="M63 697h164v-102h77q129 0 195.5 -54t66.5 -163t-70 -167.5t-195 -58.5h-74v122l56 -2q55 0 86.5 27t31.5 77q0 46 -32 72t-86 26h-56v-474h-164v697z" />
    <glyph glyph-name="germandbls" unicode="&#xdf;" horiz-adv-x="638" 
d="M221 0h-157v482q0 147 69.5 212t188.5 65q117 0 183.5 -52.5t66.5 -145.5q0 -57 -30 -102t-103 -67q81 -11 122.5 -59t41.5 -124q0 -94 -62.5 -154.5t-181.5 -60.5q-29 0 -53 3t-34 5l4 115q11 -1 29 -3.5t37 -2.5q53 0 77.5 32t24.5 86q0 48 -31.5 77t-88.5 29h-27v113
h19q34 0 65.5 24.5t31.5 76.5q0 53 -25.5 76t-63.5 23q-43 0 -73 -32.5t-30 -112.5v-503z" />
    <glyph glyph-name="agrave" unicode="&#xe0;" horiz-adv-x="581" 
d="M374 215v12q-7 -3 -25 -3t-44 -1q-63 -1 -93.5 -18.5t-30.5 -51.5q0 -26 20 -41.5t58 -15.5q52 0 83.5 38t31.5 81zM381 83q-29 -49 -71.5 -72t-92.5 -23q-86 0 -135 42.5t-49 109.5q0 82 64.5 125.5t187.5 44.5l89 -1q0 50 -31.5 70t-86.5 20q-43 0 -86.5 -14t-74.5 -37
l-3 120q30 16 84.5 27.5t107.5 11.5q121 0 178.5 -51.5t57.5 -163.5v-144q0 -60 3.5 -102t6.5 -42l2 -2l-142 -2q-4 0 -6 24t-3 59zM366 582h-102l-135 145h163z" />
    <glyph glyph-name="aacute" unicode="&#xe1;" horiz-adv-x="581" 
d="M374 215v12q-7 -3 -25 -3t-44 -1q-63 -1 -93.5 -18.5t-30.5 -51.5q0 -26 20 -41.5t58 -15.5q52 0 83.5 38t31.5 81zM381 83q-29 -49 -71.5 -72t-92.5 -23q-86 0 -135 42.5t-49 109.5q0 82 64.5 125.5t187.5 44.5l89 -1q0 50 -31.5 70t-86.5 20q-43 0 -86.5 -14t-74.5 -37
l-3 120q30 16 84.5 27.5t107.5 11.5q121 0 178.5 -51.5t57.5 -163.5v-144q0 -60 3.5 -102t6.5 -42l2 -2l-142 -2q-4 0 -6 24t-3 59zM208 582l74 145h163l-134 -145h-103z" />
    <glyph glyph-name="acircumflex" unicode="&#xe2;" horiz-adv-x="581" 
d="M374 215v12q-7 -3 -25 -3t-44 -1q-63 -1 -93.5 -18.5t-30.5 -51.5q0 -26 20 -41.5t58 -15.5q52 0 83.5 38t31.5 81zM381 83q-29 -49 -71.5 -72t-92.5 -23q-86 0 -135 42.5t-49 109.5q0 82 64.5 125.5t187.5 44.5l89 -1q0 50 -31.5 70t-86.5 20q-43 0 -86.5 -14t-74.5 -37
l-3 120q30 16 84.5 27.5t107.5 11.5q121 0 178.5 -51.5t57.5 -163.5v-144q0 -60 3.5 -102t6.5 -42l2 -2l-142 -2q-4 0 -6 24t-3 59zM113 581l110 147h130l111 -147h-105l-71 81l-70 -81h-105z" />
    <glyph glyph-name="atilde" unicode="&#xe3;" horiz-adv-x="581" 
d="M374 215v12q-7 -3 -25 -3t-44 -1q-63 -1 -93.5 -18.5t-30.5 -51.5q0 -26 20 -41.5t58 -15.5q52 0 83.5 38t31.5 81zM381 83q-29 -49 -71.5 -72t-92.5 -23q-86 0 -135 42.5t-49 109.5q0 82 64.5 125.5t187.5 44.5l89 -1q0 50 -31.5 70t-86.5 20q-43 0 -86.5 -14t-74.5 -37
l-3 120q30 16 84.5 27.5t107.5 11.5q121 0 178.5 -51.5t57.5 -163.5v-144q0 -60 3.5 -102t6.5 -42l2 -2l-142 -2q-4 0 -6 24t-3 59zM476 727q-4 -52 -34.5 -92t-80.5 -40q-34 0 -79 18.5t-72 18.5q-19 0 -31.5 -12t-13.5 -30h-64q4 52 34.5 92t80.5 40q34 0 79 -18.5
t72 -18.5q19 0 31.5 12t13.5 30h64z" />
    <glyph glyph-name="adieresis" unicode="&#xe4;" horiz-adv-x="581" 
d="M374 215v12q-7 -3 -25 -3t-44 -1q-63 -1 -93.5 -18.5t-30.5 -51.5q0 -26 20 -41.5t58 -15.5q52 0 83.5 38t31.5 81zM381 83q-29 -49 -71.5 -72t-92.5 -23q-86 0 -135 42.5t-49 109.5q0 82 64.5 125.5t187.5 44.5l89 -1q0 50 -31.5 70t-86.5 20q-43 0 -86.5 -14t-74.5 -37
l-3 120q30 16 84.5 27.5t107.5 11.5q121 0 178.5 -51.5t57.5 -163.5v-144q0 -60 3.5 -102t6.5 -42l2 -2l-142 -2q-4 0 -6 24t-3 59zM180 727q65 0 66 -1t1 -68t-1 -68t-65 -1q-65 0 -65.5 1t-0.5 68t0.5 68t64.5 1zM396 727q65 0 66 -1t1 -68t-1 -68t-65 -1q-65 0 -65.5 1
t-0.5 68t0.5 68t64.5 1z" />
    <glyph glyph-name="aring" unicode="&#xe5;" horiz-adv-x="581" 
d="M374 215v12q-7 -3 -25 -3t-44 -1q-63 -1 -93.5 -18.5t-30.5 -51.5q0 -26 20 -41.5t58 -15.5q52 0 83.5 38t31.5 81zM381 83q-29 -49 -71.5 -72t-92.5 -23q-86 0 -135 42.5t-49 109.5q0 82 64.5 125.5t187.5 44.5l89 -1q0 50 -31.5 70t-86.5 20q-43 0 -86.5 -14t-74.5 -37
l-3 120q30 16 84.5 27.5t107.5 11.5q121 0 178.5 -51.5t57.5 -163.5v-144q0 -60 3.5 -102t6.5 -42l2 -2l-142 -2q-4 0 -6 24t-3 59zM289 786q45 0 77 -32t32 -77t-32 -77t-77 -32t-77 32t-32 77t32 77t77 32zM289 728q-21 0 -36 -15t-15 -36t15 -36t36 -15t36 15t15 36
t-15 36t-36 15z" />
    <glyph glyph-name="ae" unicode="&#xe6;" horiz-adv-x="910" 
d="M371 215v12q-7 -3 -24.5 -3t-45.5 -1q-63 -1 -93.5 -18.5t-30.5 -51.5q0 -26 20 -41.5t59 -15.5q52 0 83.5 38t31.5 81zM455 442q28 31 77 48t99 17q128 0 187.5 -73.5t59.5 -219.5l-2 -12h-353q11 -46 33 -68q39 -38 118 -38q52 0 99 13.5t65 23.5v-117
q-38 -13 -84 -20.5t-104 -7.5q-73 0 -131 24.5t-89 81.5q-25 -45 -75.5 -75.5t-127.5 -30.5q-92 0 -145 42.5t-53 109.5q0 82 64.5 125.5t187.5 44.5l90 -1q0 50 -31.5 70t-87.5 20q-43 0 -86.5 -14t-74.5 -37l-3 120q30 16 83.5 27.5t104.5 11.5q71 0 115.5 -18.5
t63.5 -46.5zM522 297h201l12 -1q-1 53 -28 79.5t-76 26.5q-54 0 -84 -41q-17 -23 -25 -64z" />
    <glyph glyph-name="ccedilla" unicode="&#xe7;" horiz-adv-x="474" 
d="M448 123l5 -119q-14 -3 -50 -9.5t-83 -6.5q-132 0 -209.5 70.5t-77.5 192.5q0 114 77.5 185t202.5 71q40 0 75.5 -6.5t59.5 -17.5l-12 -118q-11 8 -39 16t-60 8q-64 0 -102.5 -38t-38.5 -101q0 -66 39.5 -105t106.5 -39q38 0 67.5 7.5t38.5 9.5zM163 -199l17 51
q4 -3 25.5 -10.5t49.5 -7.5q26 0 39.5 8t13.5 25q0 16 -10.5 25.5t-28.5 9.5l-35 -7l-25 24l49 81h65l-38 -60l46 7q35 0 56 -21t21 -57q0 -43 -35 -66t-95 -23q-38 0 -67.5 7t-47.5 14z" />
    <glyph glyph-name="egrave" unicode="&#xe8;" horiz-adv-x="582" 
d="M502 16q-37 -13 -81 -20.5t-99 -7.5q-135 0 -212.5 69t-77.5 191q0 118 70.5 188.5t187.5 70.5q130 0 191 -78t61 -215l1 -12h-358q12 -46 34 -68q39 -38 119 -38q51 0 98.5 13.5t65.5 23.5v-117zM184 297h204l11 -1q-1 53 -28 79.5t-77 26.5q-54 0 -84 -41
q-18 -23 -26 -64zM369 582h-102l-135 145h163z" />
    <glyph glyph-name="eacute" unicode="&#xe9;" horiz-adv-x="582" 
d="M502 16q-37 -13 -81 -20.5t-99 -7.5q-135 0 -212.5 69t-77.5 191q0 118 70.5 188.5t187.5 70.5q130 0 191 -78t61 -215l1 -12h-358q12 -46 34 -68q39 -38 119 -38q51 0 98.5 13.5t65.5 23.5v-117zM184 297h204l11 -1q-1 53 -28 79.5t-77 26.5q-54 0 -84 -41
q-18 -23 -26 -64zM211 582l74 145h163l-134 -145h-103z" />
    <glyph glyph-name="ecircumflex" unicode="&#xea;" horiz-adv-x="582" 
d="M502 16q-37 -13 -81 -20.5t-99 -7.5q-135 0 -212.5 69t-77.5 191q0 118 70.5 188.5t187.5 70.5q130 0 191 -78t61 -215l1 -12h-358q12 -46 34 -68q39 -38 119 -38q51 0 98.5 13.5t65.5 23.5v-117zM184 297h204l11 -1q-1 53 -28 79.5t-77 26.5q-54 0 -84 -41
q-18 -23 -26 -64zM116 581l110 147h130l111 -147h-105l-71 81l-70 -81h-105z" />
    <glyph glyph-name="edieresis" unicode="&#xeb;" horiz-adv-x="582" 
d="M502 16q-37 -13 -81 -20.5t-99 -7.5q-135 0 -212.5 69t-77.5 191q0 118 70.5 188.5t187.5 70.5q130 0 191 -78t61 -215l1 -12h-358q12 -46 34 -68q39 -38 119 -38q51 0 98.5 13.5t65.5 23.5v-117zM184 297h204l11 -1q-1 53 -28 79.5t-77 26.5q-54 0 -84 -41
q-18 -23 -26 -64zM184 727q65 0 66 -1t1 -68t-1 -68t-65 -1q-65 0 -65.5 1t-0.5 68t0.5 68t64.5 1zM400 727q65 0 66 -1t1 -68t-1 -68t-65 -1q-65 0 -65.5 1t-0.5 68t0.5 68t64.5 1z" />
    <glyph glyph-name="igrave" unicode="&#xec;" horiz-adv-x="305" 
d="M230 0h-156v495h156v-495zM231 582h-102l-135 145h163z" />
    <glyph glyph-name="iacute" unicode="&#xed;" horiz-adv-x="305" 
d="M230 0h-156v495h156v-495zM73 582l74 145h163l-134 -145h-103z" />
    <glyph glyph-name="icircumflex" unicode="&#xee;" horiz-adv-x="305" 
d="M230 0h-156v495h156v-495zM-22 581l110 147h130l111 -147h-105l-71 81l-70 -81h-105z" />
    <glyph glyph-name="idieresis" unicode="&#xef;" horiz-adv-x="305" 
d="M230 0h-156v495h156v-495zM45 727q65 0 66 -1t1 -68t-1 -68t-65 -1q-65 0 -65.5 1t-0.5 68t0.5 68t64.5 1zM261 727q65 0 66 -1t1 -68t-1 -68t-65 -1q-65 0 -65.5 1t-0.5 68t0.5 68t64.5 1z" />
    <glyph glyph-name="eth" unicode="&#xf0;" horiz-adv-x="639" 
d="M603 280q0 -138 -75.5 -215.5t-211.5 -77.5q-129 0 -205.5 66.5t-76.5 181.5q0 112 67 183t176 71q39 0 76.5 -12.5t62.5 -43.5q-27 74 -106 140q-11 10 -27 22l-115 -60l-54 57l95 49q-38 21 -92 42l84 88q89 -30 139 -62l121 63l53 -57l-102 -53q54 -44 84 -80
q107 -124 107 -302zM318 375q-56 0 -88.5 -38.5t-32.5 -99.5q0 -62 33 -98.5t87 -36.5q56 0 89.5 37.5t33.5 99.5t-32.5 99t-89.5 37z" />
    <glyph glyph-name="ntilde" unicode="&#xf1;" 
d="M575 0h-156v275q0 49 -22 77.5t-64 28.5q-55 0 -84.5 -39.5t-30.5 -114.5v-227h-156v495h146v-85q29 47 73.5 72t108.5 25q90 0 137.5 -52.5t47.5 -148.5v-306zM508 727q-4 -52 -34.5 -92t-80.5 -40q-34 0 -79 18.5t-72 18.5q-19 0 -31.5 -12t-13.5 -30h-64q4 52 34.5 92
t80.5 40q34 0 79 -18.5t72 -18.5q19 0 31.5 12t13.5 30h64z" />
    <glyph glyph-name="ograve" unicode="&#xf2;" horiz-adv-x="638" 
d="M604 247q0 -117 -78.5 -188t-206.5 -71t-206.5 71t-78.5 188q0 118 78.5 189t206.5 71t206.5 -71t78.5 -189zM441 247q0 69 -31.5 107.5t-90.5 38.5t-90.5 -38.5t-31.5 -107.5q0 -67 32 -106t90 -39t90 39t32 106zM396 582h-102l-135 145h163z" />
    <glyph glyph-name="oacute" unicode="&#xf3;" horiz-adv-x="638" 
d="M604 247q0 -117 -78.5 -188t-206.5 -71t-206.5 71t-78.5 188q0 118 78.5 189t206.5 71t206.5 -71t78.5 -189zM441 247q0 69 -31.5 107.5t-90.5 38.5t-90.5 -38.5t-31.5 -107.5q0 -67 32 -106t90 -39t90 39t32 106zM238 582l74 145h163l-134 -145h-103z" />
    <glyph glyph-name="ocircumflex" unicode="&#xf4;" horiz-adv-x="638" 
d="M604 247q0 -117 -78.5 -188t-206.5 -71t-206.5 71t-78.5 188q0 118 78.5 189t206.5 71t206.5 -71t78.5 -189zM441 247q0 69 -31.5 107.5t-90.5 38.5t-90.5 -38.5t-31.5 -107.5q0 -67 32 -106t90 -39t90 39t32 106zM143 581l110 147h130l111 -147h-105l-71 81l-70 -81
h-105z" />
    <glyph glyph-name="otilde" unicode="&#xf5;" horiz-adv-x="638" 
d="M604 247q0 -117 -78.5 -188t-206.5 -71t-206.5 71t-78.5 188q0 118 78.5 189t206.5 71t206.5 -71t78.5 -189zM441 247q0 69 -31.5 107.5t-90.5 38.5t-90.5 -38.5t-31.5 -107.5q0 -67 32 -106t90 -39t90 39t32 106zM506 727q-4 -52 -34.5 -92t-80.5 -40q-34 0 -79 18.5
t-72 18.5q-19 0 -31.5 -12t-13.5 -30h-64q4 52 34.5 92t80.5 40q34 0 79 -18.5t72 -18.5q19 0 31.5 12t13.5 30h64z" />
    <glyph glyph-name="odieresis" unicode="&#xf6;" horiz-adv-x="638" 
d="M604 247q0 -117 -78.5 -188t-206.5 -71t-206.5 71t-78.5 188q0 118 78.5 189t206.5 71t206.5 -71t78.5 -189zM441 247q0 69 -31.5 107.5t-90.5 38.5t-90.5 -38.5t-31.5 -107.5q0 -67 32 -106t90 -39t90 39t32 106zM210 727q65 0 66 -1t1 -68t-1 -68t-65 -1q-65 0 -65.5 1
t-0.5 68t0.5 68t64.5 1zM426 727q65 0 66 -1t1 -68t-1 -68t-65 -1q-65 0 -65.5 1t-0.5 68t0.5 68t64.5 1z" />
    <glyph glyph-name="divide" unicode="&#xf7;" horiz-adv-x="599" 
d="M301 532q71 0 71.5 -1t0.5 -70t-0.5 -70t-70.5 -1q-71 0 -72 1t-1 70t1 70t71 1zM46 201v116h507v-116h-507zM301 125q71 0 71.5 -1t0.5 -70t-0.5 -70t-70.5 -1q-71 0 -72 1t-1 70t1 70t71 1z" />
    <glyph glyph-name="oslash" unicode="&#xf8;" horiz-adv-x="638" 
d="M544 539l50 -46l-61 -65q71 -68 71 -181q0 -117 -78.5 -188t-206.5 -71q-99 0 -161 38l-65 -70l-50 45l61 66q-70 68 -70 180q0 118 78.5 189t206.5 71q99 0 160 -38zM430 317l-182 -195q25 -20 71 -20q59 0 90.5 38.5t31.5 106.5q0 45 -11 70zM208 178l181 195
q-24 20 -70 20q-59 0 -90.5 -38.5t-31.5 -107.5q0 -44 11 -69z" />
    <glyph glyph-name="ugrave" unicode="&#xf9;" 
d="M574 495v-495h-144v88q-22 -41 -68.5 -70.5t-108.5 -29.5q-93 0 -142.5 52.5t-49.5 150.5v304h156v-257q0 -63 21 -93.5t69 -30.5q51 0 80.5 39.5t31.5 114.5v227h155zM398 582h-102l-135 145h163z" />
    <glyph glyph-name="uacute" unicode="&#xfa;" 
d="M574 495v-495h-144v88q-22 -41 -68.5 -70.5t-108.5 -29.5q-93 0 -142.5 52.5t-49.5 150.5v304h156v-257q0 -63 21 -93.5t69 -30.5q51 0 80.5 39.5t31.5 114.5v227h155zM240 582l74 145h163l-134 -145h-103z" />
    <glyph glyph-name="ucircumflex" unicode="&#xfb;" 
d="M574 495v-495h-144v88q-22 -41 -68.5 -70.5t-108.5 -29.5q-93 0 -142.5 52.5t-49.5 150.5v304h156v-257q0 -63 21 -93.5t69 -30.5q51 0 80.5 39.5t31.5 114.5v227h155zM145 581l110 147h130l111 -147h-105l-71 81l-70 -81h-105z" />
    <glyph glyph-name="udieresis" unicode="&#xfc;" 
d="M574 495v-495h-144v88q-22 -41 -68.5 -70.5t-108.5 -29.5q-93 0 -142.5 52.5t-49.5 150.5v304h156v-257q0 -63 21 -93.5t69 -30.5q51 0 80.5 39.5t31.5 114.5v227h155zM212 727q65 0 66 -1t1 -68t-1 -68t-65 -1q-65 0 -65.5 1t-0.5 68t0.5 68t64.5 1zM428 727q65 0 66 -1
t1 -68t-1 -68t-65 -1q-65 0 -65.5 1t-0.5 68t0.5 68t64.5 1z" />
    <glyph glyph-name="yacute" unicode="&#xfd;" horiz-adv-x="580" 
d="M413 495h159l-217 -536q-31 -93 -78.5 -137t-122.5 -44q-45 0 -73 5t-36 7l10 113l65 -10q35 0 57.5 19.5t28.5 55.5l6 13l-202 514h170l119 -339zM210 582l74 145h163l-134 -145h-103z" />
    <glyph glyph-name="thorn" unicode="&#xfe;" 
d="M214 68v-279h-155v958h155v-337q32 56 74.5 76.5t92.5 20.5q102 0 162.5 -71t60.5 -189q0 -117 -63.5 -188t-167.5 -71q-45 0 -88 18t-71 62zM214 245q1 -57 32.5 -97t82.5 -40t82 39.5t31 101.5q0 63 -30 100t-83 37q-49 0 -81 -37t-34 -93v-11z" />
    <glyph glyph-name="ydieresis" unicode="&#xff;" horiz-adv-x="580" 
d="M413 495h159l-217 -536q-31 -93 -78.5 -137t-122.5 -44q-45 0 -73 5t-36 7l10 113l65 -10q35 0 57.5 19.5t28.5 55.5l6 13l-202 514h170l119 -339zM182 727q65 0 66 -1t1 -68t-1 -68t-65 -1q-65 0 -65.5 1t-0.5 68t0.5 68t64.5 1zM398 727q65 0 66 -1t1 -68t-1 -68
t-65 -1q-65 0 -65.5 1t-0.5 68t0.5 68t64.5 1z" />
    <glyph glyph-name="Amacron" unicode="&#x100;" horiz-adv-x="753" 
d="M468 274l-94 283l-98 -283h192zM746 0h-180l-56 153h-277l-57 -153h-168l270 697h193zM207 857h335v-83h-335v83z" />
    <glyph glyph-name="amacron" unicode="&#x101;" horiz-adv-x="581" 
d="M374 215v12q-7 -3 -25 -3t-44 -1q-63 -1 -93.5 -18.5t-30.5 -51.5q0 -26 20 -41.5t58 -15.5q52 0 83.5 38t31.5 81zM381 83q-29 -49 -71.5 -72t-92.5 -23q-86 0 -135 42.5t-49 109.5q0 82 64.5 125.5t187.5 44.5l89 -1q0 50 -31.5 70t-86.5 20q-43 0 -86.5 -14t-74.5 -37
l-3 120q30 16 84.5 27.5t107.5 11.5q121 0 178.5 -51.5t57.5 -163.5v-144q0 -60 3.5 -102t6.5 -42l2 -2l-142 -2q-4 0 -6 24t-3 59zM119 700h335v-83h-335v83z" />
    <glyph glyph-name="Abreve" unicode="&#x102;" horiz-adv-x="753" 
d="M468 274l-94 283l-98 -283h192zM746 0h-180l-56 153h-277l-57 -153h-168l270 697h193zM372 730q-67 0 -117.5 36.5t-59.5 119.5h70q12 -41 41.5 -58t65.5 -17q37 0 66 17t41 58h70q-9 -83 -59 -119.5t-118 -36.5z" />
    <glyph glyph-name="abreve" unicode="&#x103;" horiz-adv-x="581" 
d="M374 215v12q-7 -3 -25 -3t-44 -1q-63 -1 -93.5 -18.5t-30.5 -51.5q0 -26 20 -41.5t58 -15.5q52 0 83.5 38t31.5 81zM381 83q-29 -49 -71.5 -72t-92.5 -23q-86 0 -135 42.5t-49 109.5q0 82 64.5 125.5t187.5 44.5l89 -1q0 50 -31.5 70t-86.5 20q-43 0 -86.5 -14t-74.5 -37
l-3 120q30 16 84.5 27.5t107.5 11.5q121 0 178.5 -51.5t57.5 -163.5v-144q0 -60 3.5 -102t6.5 -42l2 -2l-142 -2q-4 0 -6 24t-3 59zM284 573q-67 0 -117.5 36.5t-59.5 119.5h70q12 -41 41.5 -58t65.5 -17q37 0 66 17t41 58h70q-9 -83 -59 -119.5t-118 -36.5z" />
    <glyph glyph-name="Aogonek" unicode="&#x104;" horiz-adv-x="753" 
d="M468 274l-94 283l-98 -283h192zM746 0h-180l-56 153h-277l-57 -153h-168l270 697h193zM634 0h60q-30 -20 -56 -52.5t-26 -62.5q0 -22 13 -33t30 -11q13 0 27 6.5t31 23.5l37 -16q-25 -44 -56 -59.5t-76 -15.5q-46 0 -73 22t-27 67q0 42 38.5 77t77.5 54z" />
    <glyph glyph-name="aogonek" unicode="&#x105;" horiz-adv-x="581" 
d="M374 215v12q-7 -3 -25 -3t-44 -1q-63 -1 -93.5 -18.5t-30.5 -51.5q0 -26 20 -41.5t58 -15.5q52 0 83.5 38t31.5 81zM381 83q-29 -49 -71.5 -72t-92.5 -23q-86 0 -135 42.5t-49 109.5q0 82 64.5 125.5t187.5 44.5l89 -1q0 50 -31.5 70t-86.5 20q-43 0 -86.5 -14t-74.5 -37
l-3 120q30 16 84.5 27.5t107.5 11.5q121 0 178.5 -51.5t57.5 -163.5v-144q0 -60 3.5 -102t6.5 -42l2 -2l-142 -2q-4 0 -6 24t-3 59zM443 0h60q-30 -20 -56 -52.5t-26 -62.5q0 -22 13 -33t30 -11q13 0 27 6.5t31 23.5l37 -16q-25 -44 -56 -59.5t-76 -15.5q-46 0 -73 22
t-27 67q0 42 38.5 77t77.5 54z" />
    <glyph glyph-name="Cacute" unicode="&#x106;" horiz-adv-x="647" 
d="M213 347q0 -106 64 -170t171 -64q48 0 93.5 11t74.5 24l9 -132q-39 -11 -88 -19.5t-104 -8.5q-181 0 -285 94.5t-104 261.5q0 168 105 266.5t282 98.5q62 0 112 -11.5t80 -22.5l-13 -136q-35 22 -79 33.5t-90 11.5q-102 0 -165 -66t-63 -171zM342 739l74 145h163
l-134 -145h-103z" />
    <glyph glyph-name="cacute" unicode="&#x107;" horiz-adv-x="474" 
d="M448 123l5 -119q-14 -3 -50 -9.5t-83 -6.5q-132 0 -209.5 70.5t-77.5 192.5q0 114 77.5 185t202.5 71q40 0 75.5 -6.5t59.5 -17.5l-12 -118q-11 8 -39 16t-60 8q-64 0 -102.5 -38t-38.5 -101q0 -66 39.5 -105t106.5 -39q38 0 67.5 7.5t38.5 9.5zM210 582l74 145h163
l-134 -145h-103z" />
    <glyph glyph-name="Ccaron" unicode="&#x10c;" horiz-adv-x="647" 
d="M213 347q0 -106 64 -170t171 -64q48 0 93.5 11t74.5 24l9 -132q-39 -11 -88 -19.5t-104 -8.5q-181 0 -285 94.5t-104 261.5q0 168 105 266.5t282 98.5q62 0 112 -11.5t80 -22.5l-13 -136q-35 22 -79 33.5t-90 11.5q-102 0 -165 -66t-63 -171zM244 884h105l71 -81l71 81
h105l-111 -147h-130z" />
    <glyph glyph-name="ccaron" unicode="&#x10d;" horiz-adv-x="474" 
d="M448 123l5 -119q-14 -3 -50 -9.5t-83 -6.5q-132 0 -209.5 70.5t-77.5 192.5q0 114 77.5 185t202.5 71q40 0 75.5 -6.5t59.5 -17.5l-12 -118q-11 8 -39 16t-60 8q-64 0 -102.5 -38t-38.5 -101q0 -66 39.5 -105t106.5 -39q38 0 67.5 7.5t38.5 9.5zM112 727h105l71 -81
l71 81h105l-111 -147h-130z" />
    <glyph glyph-name="Dhacek" unicode="&#x10e;" horiz-adv-x="754" 
d="M537 351q0 100 -61 161t-159 61h-79v-449h75q103 0 163.5 61t60.5 166zM73 697h238q200 0 297.5 -89t97.5 -260q0 -172 -102 -260t-300 -88h-231v697zM147 884h105l71 -81l71 81h105l-111 -147h-130z" />
    <glyph glyph-name="dhacek" unicode="&#x10f;" horiz-adv-x="826" 
d="M429 76q-31 -47 -75 -67.5t-93 -20.5q-106 0 -167 71.5t-61 190.5q0 112 57 184.5t162 72.5q45 0 88 -15t79 -61v316h156v-747h-146v76zM419 240v11q-1 62 -33 99t-80 37q-49 0 -79.5 -38t-30.5 -99q0 -63 30 -102.5t81 -39.5q48 0 79.5 39t32.5 93zM696 746
q120 0 137 -2t17 -4l-100 -258l-121 2l2 6l63 248l-3 4z" />
    <glyph glyph-name="Dbar" unicode="&#x110;" horiz-adv-x="758" 
d="M237 417h156v-94h-156v-199h75q104 0 164.5 61t60.5 166q0 100 -61 161t-160 61h-79v-156zM5 417h68v283l238 -3q200 0 297.5 -89t97.5 -260q0 -172 -102 -260t-300 -88h-231v323h-68v94z" />
    <glyph glyph-name="dcroat" unicode="&#x111;" horiz-adv-x="638" 
d="M308 668h112v79h155v-79h57v-85h-57v-583h-145v76q-32 -47 -75.5 -67.5t-93.5 -20.5q-105 0 -166.5 71.5t-61.5 190.5q0 112 57 184.5t162 72.5q45 0 88.5 -15t79.5 -61v152h-112v85zM420 240v11q-1 62 -33 99t-81 37t-79.5 -38t-30.5 -99q0 -63 30 -102.5t81 -39.5
q49 0 80.5 39t32.5 93z" />
    <glyph glyph-name="Emacron" unicode="&#x112;" horiz-adv-x="587" 
d="M533 0h-462v697h456v-120h-292v-159h271v-120h-271v-177h298v-121zM124 857h335v-83h-335v83z" />
    <glyph glyph-name="emacron" unicode="&#x113;" horiz-adv-x="582" 
d="M502 16q-37 -13 -81 -20.5t-99 -7.5q-135 0 -212.5 69t-77.5 191q0 118 70.5 188.5t187.5 70.5q130 0 191 -78t61 -215l1 -12h-358q12 -46 34 -68q39 -38 119 -38q51 0 98.5 13.5t65.5 23.5v-117zM184 297h204l11 -1q-1 53 -28 79.5t-77 26.5q-54 0 -84 -41
q-18 -23 -26 -64zM122 700h335v-83h-335v83z" />
    <glyph glyph-name="Edot" unicode="&#x116;" horiz-adv-x="587" 
d="M533 0h-462v697h456v-120h-292v-159h271v-120h-271v-177h298v-121zM295 878q65 0 66 -1t1 -68t-1 -68t-65 -1q-65 0 -65.5 1t-0.5 68t0.5 68t64.5 1z" />
    <glyph glyph-name="edot" unicode="&#x117;" horiz-adv-x="582" 
d="M502 16q-37 -13 -81 -20.5t-99 -7.5q-135 0 -212.5 69t-77.5 191q0 118 70.5 188.5t187.5 70.5q130 0 191 -78t61 -215l1 -12h-358q12 -46 34 -68q39 -38 119 -38q51 0 98.5 13.5t65.5 23.5v-117zM184 297h204l11 -1q-1 53 -28 79.5t-77 26.5q-54 0 -84 -41
q-18 -23 -26 -64zM293 721q65 0 66 -1t1 -68t-1 -68t-65 -1q-65 0 -65.5 1t-0.5 68t0.5 68t64.5 1z" />
    <glyph glyph-name="Eogonek" unicode="&#x118;" horiz-adv-x="587" 
d="M533 0h-462v697h456v-120h-292v-159h271v-120h-271v-177h298v-121zM356 0h60q-30 -20 -56 -52.5t-26 -62.5q0 -22 13 -33t30 -11q13 0 27 6.5t31 23.5l37 -16q-25 -44 -56 -59.5t-76 -15.5q-46 0 -73 22t-27 67q0 42 38.5 77t77.5 54z" />
    <glyph glyph-name="eogonek" unicode="&#x119;" horiz-adv-x="582" 
d="M502 16q-37 -13 -81 -20.5t-99 -7.5q-135 0 -212.5 69t-77.5 191q0 118 70.5 188.5t187.5 70.5q130 0 191 -78t61 -215l1 -12h-358q12 -46 34 -68q39 -38 119 -38q51 0 98.5 13.5t65.5 23.5v-117zM184 297h204l11 -1q-1 53 -28 79.5t-77 26.5q-54 0 -84 -41
q-18 -23 -26 -64zM302 0h60q-30 -20 -56 -52.5t-26 -62.5q0 -22 13 -33t30 -11q13 0 27 6.5t31 23.5l37 -16q-25 -44 -56 -59.5t-76 -15.5q-46 0 -73 22t-27 67q0 42 38.5 77t77.5 54z" />
    <glyph glyph-name="Ehacek" unicode="&#x11a;" horiz-adv-x="587" 
d="M533 0h-462v697h456v-120h-292v-159h271v-120h-271v-177h298v-121zM115 884h105l71 -81l71 81h105l-111 -147h-130z" />
    <glyph glyph-name="ehacek" unicode="&#x11b;" horiz-adv-x="582" 
d="M502 16q-37 -13 -81 -20.5t-99 -7.5q-135 0 -212.5 69t-77.5 191q0 118 70.5 188.5t187.5 70.5q130 0 191 -78t61 -215l1 -12h-358q12 -46 34 -68q39 -38 119 -38q51 0 98.5 13.5t65.5 23.5v-117zM184 297h204l11 -1q-1 53 -28 79.5t-77 26.5q-54 0 -84 -41
q-18 -23 -26 -64zM113 727h105l71 -81l71 81h105l-111 -147h-130z" />
    <glyph glyph-name="Gbreve" unicode="&#x11e;" horiz-adv-x="754" 
d="M212 347q0 -106 65 -170t171 -64q29 0 48.5 4t33.5 9v154h-126v121h284v-376q-38 -12 -105.5 -24.5t-137.5 -12.5q-189 0 -295.5 94.5t-106.5 265.5q0 172 109.5 266.5t302.5 94.5q69 0 122.5 -8.5t91.5 -23.5v-7l-11 -128q-39 21 -86 31.5t-96 10.5q-122 0 -193 -63.5
t-71 -173.5zM449 730q-67 0 -117.5 36.5t-59.5 119.5h70q12 -41 41.5 -58t65.5 -17q37 0 66 17t41 58h70q-9 -83 -59 -119.5t-118 -36.5z" />
    <glyph glyph-name="gbreve" unicode="&#x11f;" 
d="M571 54q0 -143 -70 -209.5t-215 -66.5q-69 0 -122.5 13.5t-68.5 21.5l9 128q18 -14 67.5 -29.5t93.5 -15.5q77 0 116.5 38t39.5 118v33q-30 -45 -73.5 -65.5t-89.5 -20.5q-105 0 -165 67t-60 181q0 120 60.5 190t167.5 70q44 0 84.5 -19t68.5 -59v66h157v-441zM417 247
v10q-1 60 -30.5 94.5t-81.5 34.5q-50 0 -79.5 -36.5t-29.5 -97.5q0 -58 30.5 -95t79.5 -37t80 36t31 91zM301 573q-67 0 -117.5 36.5t-59.5 119.5h70q12 -41 41.5 -58t65.5 -17q37 0 66 17t41 58h70q-9 -83 -59 -119.5t-118 -36.5z" />
    <glyph glyph-name="Gcedilla" unicode="&#x122;" horiz-adv-x="754" 
d="M212 347q0 -106 65 -170t171 -64q29 0 48.5 4t33.5 9v154h-126v121h284v-376q-38 -12 -105.5 -24.5t-137.5 -12.5q-189 0 -295.5 94.5t-106.5 265.5q0 172 109.5 266.5t302.5 94.5q69 0 122.5 -8.5t91.5 -23.5v-7l-11 -128q-39 21 -86 31.5t-96 10.5q-122 0 -193 -63.5
t-71 -173.5zM310 -199l17 51q4 -3 25.5 -10.5t49.5 -7.5q26 0 39.5 8t13.5 25q0 16 -10.5 25.5t-28.5 9.5l-35 -7l-25 24l49 81h65l-38 -60l46 7q35 0 56 -21t21 -57q0 -43 -35 -66t-95 -23q-38 0 -67.5 7t-47.5 14z" />
    <glyph glyph-name="gcedilla" unicode="&#x123;" 
d="M571 54q0 -143 -70 -209.5t-215 -66.5q-69 0 -122.5 13.5t-68.5 21.5l9 128q18 -14 67.5 -29.5t93.5 -15.5q77 0 116.5 38t39.5 118v33q-30 -45 -73.5 -65.5t-89.5 -20.5q-105 0 -165 67t-60 181q0 120 60.5 190t167.5 70q44 0 84.5 -19t68.5 -59v66h157v-441zM417 247
v10q-1 60 -30.5 94.5t-81.5 34.5q-50 0 -79.5 -36.5t-29.5 -97.5q0 -58 30.5 -95t79.5 -37t80 36t31 91zM225 582l74 145h163l-134 -145h-103z" />
    <glyph glyph-name="Imacron" unicode="&#x12a;" horiz-adv-x="308" 
d="M237 0h-164v697h164v-697zM-16 857h335v-83h-335v83z" />
    <glyph glyph-name="imacron" unicode="&#x12b;" horiz-adv-x="305" 
d="M230 0h-156v495h156v-495zM-16 700h335v-83h-335v83z" />
    <glyph glyph-name="Iogonek" unicode="&#x12e;" horiz-adv-x="308" 
d="M237 0h-164v697h164v-697zM152 0h60q-30 -20 -56 -52.5t-26 -62.5q0 -22 13 -33t30 -11q13 0 27 6.5t31 23.5l37 -16q-25 -44 -56 -59.5t-76 -15.5q-46 0 -73 22t-27 67q0 42 38.5 77t77.5 54z" />
    <glyph glyph-name="iogonek" unicode="&#x12f;" horiz-adv-x="305" 
d="M73 649q0 64 1 65t78 1t78 -1t1 -65t-1 -65t-78 -1t-78 1t-1 65zM230 0h-156v495h156v-495zM141 0h60q-30 -20 -56 -52.5t-26 -62.5q0 -22 13 -33t30 -11q13 0 27 6.5t31 23.5l37 -16q-25 -44 -56 -59.5t-76 -15.5q-46 0 -73 22t-27 67q0 42 38.5 77t77.5 54z" />
    <glyph glyph-name="Idotaccent" unicode="&#x130;" horiz-adv-x="308" 
d="M237 0h-164v697h164v-697zM155 878q65 0 66 -1t1 -68t-1 -68t-65 -1q-65 0 -65.5 1t-0.5 68t0.5 68t64.5 1z" />
    <glyph glyph-name="dotlessi" unicode="&#x131;" horiz-adv-x="305" 
d="M230 0h-156v495h156v-495z" />
    <glyph glyph-name="Kcedilla" unicode="&#x136;" horiz-adv-x="696" 
d="M238 0h-165v697h165v-294l230 294h198l-269 -327l290 -370h-211l-237 321h-1v-321zM25 -199l17 51q4 -3 25.5 -10.5t49.5 -7.5q26 0 39.5 8t13.5 25q0 16 -10.5 25.5t-28.5 9.5l-35 -7l-25 24l49 81h65l-38 -60l46 7q35 0 56 -21t21 -57q0 -43 -35 -66t-95 -23
q-38 0 -67.5 7t-47.5 14z" />
    <glyph glyph-name="kcedilla" unicode="&#x137;" horiz-adv-x="582" 
d="M63 747h156v-459l159 207h178l-187 -225l206 -270h-194l-162 246v1v-247h-156v747zM7 -199l17 51q4 -3 25.5 -10.5t49.5 -7.5q26 0 39.5 8t13.5 25q0 16 -10.5 25.5t-28.5 9.5l-35 -7l-25 24l49 81h65l-38 -60l46 7q35 0 56 -21t21 -57q0 -43 -35 -66t-95 -23
q-38 0 -67.5 7t-47.5 14z" />
    <glyph glyph-name="Lacute" unicode="&#x139;" horiz-adv-x="533" 
d="M237 697v-573h282v-123l-446 -1v697h164zM98 739l74 145h163l-134 -145h-103z" />
    <glyph glyph-name="lacute" unicode="&#x13a;" horiz-adv-x="305" 
d="M74 747h156v-747h-156v747zM91 799l74 145h163l-134 -145h-103z" />
    <glyph glyph-name="Lcedilla" unicode="&#x13b;" horiz-adv-x="533" 
d="M237 697v-573h282v-123l-446 -1v697h164zM183 -199l17 51q4 -3 25.5 -10.5t49.5 -7.5q26 0 39.5 8t13.5 25q0 16 -10.5 25.5t-28.5 9.5l-35 -7l-25 24l49 81h65l-38 -60l46 7q35 0 56 -21t21 -57q0 -43 -35 -66t-95 -23q-38 0 -67.5 7t-47.5 14z" />
    <glyph glyph-name="lcedilla" unicode="&#x13c;" horiz-adv-x="305" 
d="M74 747h156v-747h-156v747zM30 -199l17 51q4 -3 25.5 -10.5t49.5 -7.5q26 0 39.5 8t13.5 25q0 16 -10.5 25.5t-28.5 9.5l-35 -7l-25 24l49 81h65l-38 -60l46 7q35 0 56 -21t21 -57q0 -43 -35 -66t-95 -23q-38 0 -67.5 7t-47.5 14z" />
    <glyph glyph-name="Lhacek" unicode="&#x13d;" horiz-adv-x="533" 
d="M237 697v-573h282v-123l-446 -1v697h164zM371 698q120 0 137 -2t17 -4l-100 -258l-121 2l2 6l63 248l-3 4z" />
    <glyph glyph-name="lhacek" unicode="&#x13e;" horiz-adv-x="513" 
d="M74 747h156v-747h-156v747zM354 746q120 0 137 -2t17 -4l-100 -258l-121 2l2 6l63 248l-3 4z" />
    <glyph glyph-name="Lmiddledot" unicode="&#x13f;" horiz-adv-x="533" 
d="M237 697v-573h282v-123l-446 -1v697h164zM413 464q65 0 66 -1t1 -68t-1 -68t-65 -1q-65 0 -65.5 1t-0.5 68t0.5 68t64.5 1z" />
    <glyph glyph-name="lmiddledot" unicode="&#x140;" horiz-adv-x="449" 
d="M74 747h156v-747h-156v747zM376 464q65 0 66 -1t1 -68t-1 -68t-65 -1q-65 0 -65.5 1t-0.5 68t0.5 68t64.5 1z" />
    <glyph glyph-name="Lslash" unicode="&#x141;" horiz-adv-x="533" 
d="M411 531v-103l-174 -105v-199h282v-123l-446 -1v224l-70 -42v103l70 42v370h164v-271z" />
    <glyph glyph-name="lslash" unicode="&#x142;" horiz-adv-x="305" 
d="M-1 334l75 45v368h156v-274l75 45v-97l-75 -45v-376h-156v282l-75 -45v97z" />
    <glyph glyph-name="Nacute" unicode="&#x143;" horiz-adv-x="756" 
d="M531 200v497h154v-697h-199l-6 11l-254 482v-493h-154v697h204zM298 739l74 145h163l-134 -145h-103z" />
    <glyph glyph-name="nacute" unicode="&#x144;" 
d="M575 0h-156v275q0 49 -22 77.5t-64 28.5q-55 0 -84.5 -39.5t-30.5 -114.5v-227h-156v495h146v-85q29 47 73.5 72t108.5 25q90 0 137.5 -52.5t47.5 -148.5v-306zM240 582l74 145h163l-134 -145h-103z" />
    <glyph glyph-name="Ncedilla" unicode="&#x145;" horiz-adv-x="756" 
d="M531 200v497h154v-697h-199l-6 11l-254 482v-493h-154v697h204zM27 -199l17 51q4 -3 25.5 -10.5t49.5 -7.5q26 0 39.5 8t13.5 25q0 16 -10.5 25.5t-28.5 9.5l-35 -7l-25 24l49 81h65l-38 -60l46 7q35 0 56 -21t21 -57q0 -43 -35 -66t-95 -23q-38 0 -67.5 7t-47.5 14z" />
    <glyph glyph-name="ncedilla" unicode="&#x146;" 
d="M575 0h-156v275q0 49 -22 77.5t-64 28.5q-55 0 -84.5 -39.5t-30.5 -114.5v-227h-156v495h146v-85q29 47 73.5 72t108.5 25q90 0 137.5 -52.5t47.5 -148.5v-306zM16 -199l17 51q4 -3 25.5 -10.5t49.5 -7.5q26 0 39.5 8t13.5 25q0 16 -10.5 25.5t-28.5 9.5l-35 -7l-25 24
l49 81h65l-38 -60l46 7q35 0 56 -21t21 -57q0 -43 -35 -66t-95 -23q-38 0 -67.5 7t-47.5 14z" />
    <glyph glyph-name="Nhacek" unicode="&#x147;" horiz-adv-x="756" 
d="M531 200v497h154v-697h-199l-6 11l-254 482v-493h-154v697h204zM200 884h105l71 -81l71 81h105l-111 -147h-130z" />
    <glyph glyph-name="nhacek" unicode="&#x148;" 
d="M575 0h-156v275q0 49 -22 77.5t-64 28.5q-55 0 -84.5 -39.5t-30.5 -114.5v-227h-156v495h146v-85q29 47 73.5 72t108.5 25q90 0 137.5 -52.5t47.5 -148.5v-306zM142 727h105l71 -81l71 81h105l-111 -147h-130z" />
    <glyph glyph-name="Omacron" unicode="&#x14c;" horiz-adv-x="783" 
d="M569 348q0 109 -47 172.5t-131 63.5q-85 0 -132 -63.5t-47 -172.5q0 -108 47 -171.5t132 -63.5q84 0 131 63.5t47 171.5zM738 348q0 -168 -92 -264t-255 -96q-164 0 -256 96t-92 264q0 172 90.5 266.5t257.5 94.5q166 0 256.5 -94.5t90.5 -266.5zM222 857h335v-83h-335
v83z" />
    <glyph glyph-name="omacron" unicode="&#x14d;" horiz-adv-x="638" 
d="M604 247q0 -117 -78.5 -188t-206.5 -71t-206.5 71t-78.5 188q0 118 78.5 189t206.5 71t206.5 -71t78.5 -189zM441 247q0 69 -31.5 107.5t-90.5 38.5t-90.5 -38.5t-31.5 -107.5q0 -67 32 -106t90 -39t90 39t32 106zM149 700h335v-83h-335v83z" />
    <glyph glyph-name="Odoubleacute" unicode="&#x150;" horiz-adv-x="783" 
d="M569 348q0 109 -47 172.5t-131 63.5q-85 0 -132 -63.5t-47 -172.5q0 -108 47 -171.5t132 -63.5q84 0 131 63.5t47 171.5zM738 348q0 -168 -92 -264t-255 -96q-164 0 -256 96t-92 264q0 172 90.5 266.5t257.5 94.5q166 0 256.5 -94.5t90.5 -266.5zM220 739l74 144h162
l-133 -144h-103zM443 739l73 144h163l-133 -144h-103z" />
    <glyph glyph-name="odoubleacute" unicode="&#x151;" horiz-adv-x="638" 
d="M604 247q0 -117 -78.5 -188t-206.5 -71t-206.5 71t-78.5 188q0 118 78.5 189t206.5 71t206.5 -71t78.5 -189zM441 247q0 69 -31.5 107.5t-90.5 38.5t-90.5 -38.5t-31.5 -107.5q0 -67 32 -106t90 -39t90 39t32 106zM147 582l74 144h162l-133 -144h-103zM370 582l73 144
h163l-133 -144h-103z" />
    <glyph glyph-name="OE" unicode="&#x152;" horiz-adv-x="979" 
d="M402 579q-98 0 -149.5 -60t-51.5 -172q0 -106 55.5 -167.5t152.5 -61.5q34 0 59.5 2.5t25.5 4.5v447q0 3 -27 5t-65 2zM601 0l-201 -6q-181 0 -274.5 89t-93.5 265q0 172 97.5 263.5t275.5 91.5l199 -6h332v-120h-277v-159h257v-120h-257v-178h283v-120h-341z" />
    <glyph glyph-name="oe" unicode="&#x153;" horiz-adv-x="968" 
d="M434 247q0 69 -31 107.5t-89 38.5q-59 0 -89.5 -38.5t-30.5 -107.5q0 -67 31 -106t89 -39q57 0 88.5 39t31.5 106zM509 72q-30 -41 -82.5 -62.5t-125.5 -21.5q-123 0 -196.5 71t-73.5 188q0 118 74 189t198 71q76 0 124 -21.5t77 -62.5q26 35 72 59.5t114 24.5
q128 0 187 -73.5t59 -219.5l-2 -12h-346q11 -46 32 -68q37 -38 116 -38q50 0 96.5 13.5t63.5 23.5v-117q-37 -13 -81.5 -20.5t-101.5 -7.5q-66 0 -121 20t-83 64zM587 297h192l14 -1q-1 53 -27 79.5t-73 26.5q-53 0 -82 -41q-16 -23 -24 -64z" />
    <glyph glyph-name="Racute" unicode="&#x154;" horiz-adv-x="642" 
d="M228 283v-283h-164v697h267q123 0 188 -45.5t65 -140.5q0 -57 -34 -104t-107 -62q44 -12 64.5 -56t35.5 -85l4 -9l75 -195h-176l-70 193q-13 39 -35 64.5t-63 25.5h-50zM228 403h69q56 0 88 21.5t32 65.5q0 46 -31.5 66.5t-93.5 20.5h-64v-174zM223 739l74 145h163
l-134 -145h-103z" />
    <glyph glyph-name="racute" unicode="&#x155;" horiz-adv-x="419" 
d="M219 0h-155v495h141v-111q23 66 63 94.5t86 28.5q19 0 31 -2.5t22 -4.5l-7 -141q-9 2 -23 5.5t-35 3.5q-60 0 -91 -44.5t-32 -121.5v-202zM162 582l74 145h163l-134 -145h-103z" />
    <glyph glyph-name="Rcedilla" unicode="&#x156;" horiz-adv-x="642" 
d="M228 283v-283h-164v697h267q123 0 188 -45.5t65 -140.5q0 -57 -34 -104t-107 -62q44 -12 64.5 -56t35.5 -85l4 -9l75 -195h-176l-70 193q-13 39 -35 64.5t-63 25.5h-50zM228 403h69q56 0 88 21.5t32 65.5q0 46 -31.5 66.5t-93.5 20.5h-64v-174zM15 -199l17 51
q4 -3 25.5 -10.5t49.5 -7.5q26 0 39.5 8t13.5 25q0 16 -10.5 25.5t-28.5 9.5l-35 -7l-25 24l49 81h65l-38 -60l46 7q35 0 56 -21t21 -57q0 -43 -35 -66t-95 -23q-38 0 -67.5 7t-47.5 14z" />
    <glyph glyph-name="rcedilla" unicode="&#x157;" horiz-adv-x="419" 
d="M219 0h-155v495h141v-111q23 66 63 94.5t86 28.5q19 0 31 -2.5t22 -4.5l-7 -141q-9 2 -23 5.5t-35 3.5q-60 0 -91 -44.5t-32 -121.5v-202zM17 -199l17 51q4 -3 25.5 -10.5t49.5 -7.5q26 0 39.5 8t13.5 25q0 16 -10.5 25.5t-28.5 9.5l-35 -7l-25 24l49 81h65l-38 -60l46 7
q35 0 56 -21t21 -57q0 -43 -35 -66t-95 -23q-38 0 -67.5 7t-47.5 14z" />
    <glyph glyph-name="Rhacek" unicode="&#x158;" horiz-adv-x="642" 
d="M228 283v-283h-164v697h267q123 0 188 -45.5t65 -140.5q0 -57 -34 -104t-107 -62q44 -12 64.5 -56t35.5 -85l4 -9l75 -195h-176l-70 193q-13 39 -35 64.5t-63 25.5h-50zM228 403h69q56 0 88 21.5t32 65.5q0 46 -31.5 66.5t-93.5 20.5h-64v-174zM125 884h105l71 -81l71 81
h105l-111 -147h-130z" />
    <glyph glyph-name="rhacek" unicode="&#x159;" horiz-adv-x="419" 
d="M219 0h-155v495h141v-111q23 66 63 94.5t86 28.5q19 0 31 -2.5t22 -4.5l-7 -141q-9 2 -23 5.5t-35 3.5q-60 0 -91 -44.5t-32 -121.5v-202zM64 727h105l71 -81l71 81h105l-111 -147h-130z" />
    <glyph glyph-name="Sacute" unicode="&#x15a;" horiz-adv-x="585" 
d="M539 201q0 -101 -75.5 -157t-203.5 -56q-59 0 -113 10.5t-88 20.5l13 140q17 -12 71 -29.5t108 -17.5q53 0 86.5 21t33.5 57q0 28 -25 51.5t-100 48.5q-99 32 -147.5 77t-48.5 131q0 101 74.5 156t204.5 55q49 0 94.5 -8t76.5 -19l-12 -130q-35 16 -72.5 24.5t-81.5 8.5
q-53 0 -84 -19.5t-31 -58.5q0 -27 23.5 -46t114.5 -50q101 -33 141.5 -80t40.5 -130zM213 739l74 145h163l-134 -145h-103z" />
    <glyph glyph-name="sacute" unicode="&#x15b;" horiz-adv-x="471" 
d="M436 151q0 -78 -61 -120.5t-168 -42.5q-49 0 -95 7t-75 18l10 119q12 -5 56.5 -20t94.5 -15q37 0 58.5 10.5t21.5 36.5q0 22 -22.5 35t-79.5 27q-60 12 -101.5 44.5t-41.5 99.5q0 75 62 116t156 41q42 0 85 -7.5t72 -16.5l-10 -113q-23 13 -59.5 21t-71.5 8
q-41 0 -61 -10.5t-20 -31.5q0 -17 22 -28t90 -28q72 -18 105 -54.5t33 -95.5zM158 582l74 145h163l-134 -145h-103z" />
    <glyph glyph-name="Scedilla" unicode="&#x15e;" horiz-adv-x="585" 
d="M539 201q0 -101 -75.5 -157t-203.5 -56q-59 0 -113 10.5t-88 20.5l13 140q17 -12 71 -29.5t108 -17.5q53 0 86.5 21t33.5 57q0 28 -25 51.5t-100 48.5q-99 32 -147.5 77t-48.5 131q0 101 74.5 156t204.5 55q49 0 94.5 -8t76.5 -19l-12 -130q-35 16 -72.5 24.5t-81.5 8.5
q-53 0 -84 -19.5t-31 -58.5q0 -27 23.5 -46t114.5 -50q101 -33 141.5 -80t40.5 -130zM130 -199l17 51q4 -3 25.5 -10.5t49.5 -7.5q26 0 39.5 8t13.5 25q0 16 -10.5 25.5t-28.5 9.5l-35 -7l-25 24l49 81h65l-38 -60l46 7q35 0 56 -21t21 -57q0 -43 -35 -66t-95 -23
q-38 0 -67.5 7t-47.5 14z" />
    <glyph glyph-name="scedilla" unicode="&#x15f;" horiz-adv-x="471" 
d="M436 151q0 -78 -61 -120.5t-168 -42.5q-49 0 -95 7t-75 18l10 119q12 -5 56.5 -20t94.5 -15q37 0 58.5 10.5t21.5 36.5q0 22 -22.5 35t-79.5 27q-60 12 -101.5 44.5t-41.5 99.5q0 75 62 116t156 41q42 0 85 -7.5t72 -16.5l-10 -113q-23 13 -59.5 21t-71.5 8
q-41 0 -61 -10.5t-20 -31.5q0 -17 22 -28t90 -28q72 -18 105 -54.5t33 -95.5zM80 -199l17 51q4 -3 25.5 -10.5t49.5 -7.5q26 0 39.5 8t13.5 25q0 16 -10.5 25.5t-28.5 9.5l-35 -7l-25 24l49 81h65l-38 -60l46 7q35 0 56 -21t21 -57q0 -43 -35 -66t-95 -23q-38 0 -67.5 7
t-47.5 14z" />
    <glyph glyph-name="Scaron" unicode="&#x160;" horiz-adv-x="585" 
d="M539 201q0 -101 -75.5 -157t-203.5 -56q-59 0 -113 10.5t-88 20.5l13 140q17 -12 71 -29.5t108 -17.5q53 0 86.5 21t33.5 57q0 28 -25 51.5t-100 48.5q-99 32 -147.5 77t-48.5 131q0 101 74.5 156t204.5 55q49 0 94.5 -8t76.5 -19l-12 -130q-35 16 -72.5 24.5t-81.5 8.5
q-53 0 -84 -19.5t-31 -58.5q0 -27 23.5 -46t114.5 -50q101 -33 141.5 -80t40.5 -130zM115 884h105l71 -81l71 81h105l-111 -147h-130z" />
    <glyph glyph-name="scaron" unicode="&#x161;" horiz-adv-x="471" 
d="M436 151q0 -78 -61 -120.5t-168 -42.5q-49 0 -95 7t-75 18l10 119q12 -5 56.5 -20t94.5 -15q37 0 58.5 10.5t21.5 36.5q0 22 -22.5 35t-79.5 27q-60 12 -101.5 44.5t-41.5 99.5q0 75 62 116t156 41q42 0 85 -7.5t72 -16.5l-10 -113q-23 13 -59.5 21t-71.5 8
q-41 0 -61 -10.5t-20 -31.5q0 -17 22 -28t90 -28q72 -18 105 -54.5t33 -95.5zM60 727h105l71 -81l71 81h105l-111 -147h-130z" />
    <glyph glyph-name="Tcedilla" unicode="&#x162;" horiz-adv-x="564" 
d="M364 0h-164v573h-188v124h540v-124h-188v-573zM159 -199l17 51q4 -3 25.5 -10.5t49.5 -7.5q26 0 39.5 8t13.5 25q0 16 -10.5 25.5t-28.5 9.5l-35 -7l-25 24l49 81h65l-38 -60l46 7q35 0 56 -21t21 -57q0 -43 -35 -66t-95 -23q-38 0 -67.5 7t-47.5 14z" />
    <glyph glyph-name="tcedilla" unicode="&#x163;" horiz-adv-x="416" 
d="M267 182q0 -41 17.5 -61.5t51.5 -20.5q21 0 36.5 4t23.5 8l4 -112q-12 -4 -42.5 -8t-64.5 -4q-90 0 -135.5 44t-45.5 131v221h-100v107l102 4l6 111l146 47l1 -158h126v-111h-126v-202zM158 -199l17 51q4 -3 25.5 -10.5t49.5 -7.5q26 0 39.5 8t13.5 25q0 16 -10.5 25.5
t-28.5 9.5l-35 -7l-25 24l49 81h65l-38 -60l46 7q35 0 56 -21t21 -57q0 -43 -35 -66t-95 -23q-38 0 -67.5 7t-47.5 14z" />
    <glyph glyph-name="Thacek" unicode="&#x164;" horiz-adv-x="564" 
d="M364 0h-164v573h-188v124h540v-124h-188v-573zM109 884h105l71 -81l71 81h105l-111 -147h-130z" />
    <glyph glyph-name="thacek" unicode="&#x165;" horiz-adv-x="650" 
d="M267 182q0 -41 17.5 -61.5t51.5 -20.5q21 0 36.5 4t23.5 8l4 -112q-12 -4 -42.5 -8t-64.5 -4q-90 0 -135.5 44t-45.5 131v221h-100v107l102 4l6 111l146 47l1 -158h126v-111h-126v-202zM507 698q120 0 137 -2t17 -4l-100 -258l-121 2l2 6l63 248l-3 4z" />
    <glyph glyph-name="Umacron" unicode="&#x16a;" horiz-adv-x="727" 
d="M498 295v402h164v-424q0 -143 -74.5 -214t-222.5 -71q-145 0 -222 68.5t-77 201.5v439h164v-408q0 -86 33 -131t101 -45q69 0 101.5 46.5t32.5 135.5zM194 857h335v-83h-335v83z" />
    <glyph glyph-name="umacron" unicode="&#x16b;" 
d="M574 495v-495h-144v88q-22 -41 -68.5 -70.5t-108.5 -29.5q-93 0 -142.5 52.5t-49.5 150.5v304h156v-257q0 -63 21 -93.5t69 -30.5q51 0 80.5 39.5t31.5 114.5v227h155zM151 700h335v-83h-335v83z" />
    <glyph glyph-name="Uring" unicode="&#x16e;" horiz-adv-x="727" 
d="M498 295v402h164v-424q0 -143 -74.5 -214t-222.5 -71q-145 0 -222 68.5t-77 201.5v439h164v-408q0 -86 33 -131t101 -45q69 0 101.5 46.5t32.5 135.5zM364 943q45 0 77 -32t32 -77t-32 -77t-77 -32t-77 32t-32 77t32 77t77 32zM364 885q-21 0 -36 -15t-15 -36t15 -36
t36 -15t36 15t15 36t-15 36t-36 15z" />
    <glyph glyph-name="uring" unicode="&#x16f;" 
d="M574 495v-495h-144v88q-22 -41 -68.5 -70.5t-108.5 -29.5q-93 0 -142.5 52.5t-49.5 150.5v304h156v-257q0 -63 21 -93.5t69 -30.5q51 0 80.5 39.5t31.5 114.5v227h155zM321 786q45 0 77 -32t32 -77t-32 -77t-77 -32t-77 32t-32 77t32 77t77 32zM321 728q-21 0 -36 -15
t-15 -36t15 -36t36 -15t36 15t15 36t-15 36t-36 15z" />
    <glyph glyph-name="Udoubleacute" unicode="&#x170;" horiz-adv-x="727" 
d="M498 295v402h164v-424q0 -143 -74.5 -214t-222.5 -71q-145 0 -222 68.5t-77 201.5v439h164v-408q0 -86 33 -131t101 -45q69 0 101.5 46.5t32.5 135.5zM192 739l74 144h162l-133 -144h-103zM415 739l73 144h163l-133 -144h-103z" />
    <glyph glyph-name="udoubleacute" unicode="&#x171;" 
d="M574 495v-495h-144v88q-22 -41 -68.5 -70.5t-108.5 -29.5q-93 0 -142.5 52.5t-49.5 150.5v304h156v-257q0 -63 21 -93.5t69 -30.5q51 0 80.5 39.5t31.5 114.5v227h155zM149 582l74 144h162l-133 -144h-103zM372 582l73 144h163l-133 -144h-103z" />
    <glyph glyph-name="Uogonek" unicode="&#x172;" horiz-adv-x="727" 
d="M498 295v402h164v-424q0 -143 -74.5 -214t-222.5 -71q-145 0 -222 68.5t-77 201.5v439h164v-408q0 -86 33 -131t101 -45q69 0 101.5 46.5t32.5 135.5zM360 0h60q-30 -20 -56 -52.5t-26 -62.5q0 -22 13 -33t30 -11q13 0 27 6.5t31 23.5l37 -16q-25 -44 -56 -59.5
t-76 -15.5q-46 0 -73 22t-27 67q0 42 38.5 77t77.5 54z" />
    <glyph glyph-name="uogonek" unicode="&#x173;" 
d="M574 495v-495h-144v88q-22 -41 -68.5 -70.5t-108.5 -29.5q-93 0 -142.5 52.5t-49.5 150.5v304h156v-257q0 -63 21 -93.5t69 -30.5q51 0 80.5 39.5t31.5 114.5v227h155zM477 0h60q-30 -20 -56 -52.5t-26 -62.5q0 -22 13 -33t30 -11q13 0 27 6.5t31 23.5l37 -16
q-25 -44 -56 -59.5t-76 -15.5q-46 0 -73 22t-27 67q0 42 38.5 77t77.5 54z" />
    <glyph glyph-name="Ydieresis" unicode="&#x178;" horiz-adv-x="696" 
d="M503 697h182l-254 -425v-272h-164v271l-257 426h191l150 -283zM243 884q65 0 66 -1t1 -68t-1 -68t-65 -1q-65 0 -65.5 1t-0.5 68t0.5 68t64.5 1zM459 884q65 0 66 -1t1 -68t-1 -68t-65 -1q-65 0 -65.5 1t-0.5 68t0.5 68t64.5 1z" />
    <glyph glyph-name="Zacute" unicode="&#x179;" horiz-adv-x="590" 
d="M553 124v-124h-524v124l333 449h-321v124h507v-125l-339 -448h344zM218 739l74 145h163l-134 -145h-103z" />
    <glyph glyph-name="zacute" unicode="&#x17a;" horiz-adv-x="501" 
d="M38 495h425v-121l-247 -257h253v-117h-440v123l249 255h-240v117zM174 582l74 145h163l-134 -145h-103z" />
    <glyph glyph-name="Zdot" unicode="&#x17b;" horiz-adv-x="590" 
d="M553 124v-124h-524v124l333 449h-321v124h507v-125l-339 -448h344zM300 878q65 0 66 -1t1 -68t-1 -68t-65 -1q-65 0 -65.5 1t-0.5 68t0.5 68t64.5 1z" />
    <glyph glyph-name="zdot" unicode="&#x17c;" horiz-adv-x="501" 
d="M38 495h425v-121l-247 -257h253v-117h-440v123l249 255h-240v117zM256 721q65 0 66 -1t1 -68t-1 -68t-65 -1q-65 0 -65.5 1t-0.5 68t0.5 68t64.5 1z" />
    <glyph glyph-name="Zcaron" unicode="&#x17d;" horiz-adv-x="590" 
d="M553 124v-124h-524v124l333 449h-321v124h507v-125l-339 -448h344zM120 884h105l71 -81l71 81h105l-111 -147h-130z" />
    <glyph glyph-name="zcaron" unicode="&#x17e;" horiz-adv-x="501" 
d="M38 495h425v-121l-247 -257h253v-117h-440v123l249 255h-240v117zM76 727h105l71 -81l71 81h105l-111 -147h-130z" />
    <glyph glyph-name="florin" unicode="&#x192;" horiz-adv-x="583" 
d="M452 711q35 0 65 -6.5t42 -11.5l-20 -116q-10 8 -26 13.5t-33 5.5q-27 0 -42 -19.5t-27 -84.5l-17 -73h111l-8 -94h-123l-62 -312q-27 -146 -76.5 -190t-124.5 -44q-34 0 -65 6t-42 12l20 111q6 -5 21.5 -9.5t31.5 -4.5q33 1 47.5 24t24.5 81l66 326h-108l9 94h119
l25 118q22 95 66.5 134.5t125.5 39.5z" />
    <glyph glyph-name="circumflex" unicode="&#x2c6;" horiz-adv-x="307" 
d="M-22 581l110 147h130l111 -147h-105l-71 81l-70 -81h-105z" />
    <glyph glyph-name="caron" unicode="&#x2c7;" horiz-adv-x="307" 
d="M-21 727h105l71 -81l71 81h105l-111 -147h-130z" />
    <glyph glyph-name="breve" unicode="&#x2d8;" horiz-adv-x="307" 
d="M154 573q-67 0 -117.5 36.5t-59.5 119.5h70q12 -41 41.5 -58t65.5 -17q37 0 66 17t41 58h70q-9 -83 -59 -119.5t-118 -36.5z" />
    <glyph glyph-name="dotaccent" unicode="&#x2d9;" horiz-adv-x="307" 
d="M153 721q65 0 66 -1t1 -68t-1 -68t-65 -1q-65 0 -65.5 1t-0.5 68t0.5 68t64.5 1z" />
    <glyph glyph-name="ring" unicode="&#x2da;" horiz-adv-x="307" 
d="M154 786q45 0 77 -32t32 -77t-32 -77t-77 -32t-77 32t-32 77t32 77t77 32zM154 728q-21 0 -36 -15t-15 -36t15 -36t36 -15t36 15t15 36t-15 36t-36 15z" />
    <glyph glyph-name="ogonek" unicode="&#x2db;" horiz-adv-x="307" 
d="M171 0h60q-30 -20 -56 -52.5t-26 -62.5q0 -22 13 -33t30 -11q13 0 27 6.5t31 23.5l37 -16q-25 -44 -56 -59.5t-76 -15.5q-46 0 -73 22t-27 67q0 42 38.5 77t77.5 54z" />
    <glyph glyph-name="tilde" unicode="&#x2dc;" horiz-adv-x="307" 
d="M342 727q-4 -52 -34.5 -92t-80.5 -40q-34 0 -79 18.5t-72 18.5q-19 0 -31.5 -12t-13.5 -30h-64q4 52 34.5 92t80.5 40q34 0 79 -18.5t72 -18.5q19 0 31.5 12t13.5 30h64z" />
    <glyph glyph-name="hungarumlaut" unicode="&#x2dd;" horiz-adv-x="307" 
d="M-33 582l74 144h162l-133 -144h-103zM190 582l73 144h163l-133 -144h-103z" />
    <glyph glyph-name="pi" unicode="&#x3c0;" horiz-adv-x="549" 
d="M335 401h-113l-46 -351q-6 -27 -21 -48t-44 -21q-22 0 -38 16.5t-16 37.5q0 15 7.5 27.5t17.5 23.5q22 22 34.5 43t15.5 43l29 229h-47q-25 0 -46 -13.5t-41 -49.5h-17q19 61 51 105t88 44h373v-86h-126q-6 -50 -9 -123.5t-3 -111.5q0 -48 22 -69t43 -21q24 0 41.5 20
t17.5 55h22q-2 -77 -37 -122t-82 -45q-40 0 -68 43.5t-28 124.5q0 48 5 103.5t15 145.5z" />
    <glyph glyph-name="endash" unicode="&#x2013;" horiz-adv-x="500" 
d="M0 321h502v-110h-502v110z" />
    <glyph glyph-name="emdash" unicode="&#x2014;" horiz-adv-x="1000" 
d="M0 321h1002v-110h-1002v110z" />
    <glyph glyph-name="quoteleft" unicode="&#x2018;" horiz-adv-x="304" 
d="M192 435q-117 0 -134 1t-17 4l90 248l130 10l-64 -256l2 -4q0 -1 -7 -3z" />
    <glyph glyph-name="quoteright" unicode="&#x2019;" horiz-adv-x="304" 
d="M109 698q120 0 137 -2t17 -4l-100 -258l-121 2l2 6l63 248l-3 4z" />
    <glyph glyph-name="quotesinglbase" unicode="&#x201a;" horiz-adv-x="304" 
d="M110 151q120 0 137 -2t17 -4l-100 -258l-121 2l2 6l63 248l-3 4z" />
    <glyph glyph-name="quotedblleft" unicode="&#x201c;" horiz-adv-x="548" 
d="M423 435q-117 0 -134 1t-17 4l90 248l130 10l-64 -256l2 -4q0 -1 -7 -3zM204 435q-117 0 -134 1t-17 4l90 248l130 10l-64 -256l2 -4q0 -1 -7 -3z" />
    <glyph glyph-name="quotedblright" unicode="&#x201d;" horiz-adv-x="548" 
d="M340 698q120 0 137 -2t17 -4l-100 -258l-121 2l2 6l63 248l-3 4zM121 698q120 0 137 -2t17 -4l-100 -258l-121 2l2 6l63 248l-3 4z" />
    <glyph glyph-name="quotedblbase" unicode="&#x201e;" horiz-adv-x="548" 
d="M353 151q120 0 137 -2t17 -4l-100 -258l-121 2l2 6l63 248l-3 4zM134 151q120 0 137 -2t17 -4l-100 -258l-121 2l2 6l63 248l-3 4z" />
    <glyph glyph-name="dagger" unicode="&#x2020;" horiz-adv-x="580" 
d="M363 696l-2 -174l165 2v-111l-165 2l3 -425h-148l3 425l-164 -2v111l164 -2l-2 174h146z" />
    <glyph glyph-name="daggerdbl" unicode="&#x2021;" horiz-adv-x="580" 
d="M363 696l-2 -141l165 2v-111l-165 2l2 -114l-2 -94l165 2v-111l-165 2l2 -143h-146l2 143l-164 -2v111l164 -2l-2 94l2 114l-164 -2v111l164 -2l-2 141h146z" />
    <glyph glyph-name="bullet" unicode="&#x2022;" horiz-adv-x="493" 
d="M246 521q72 0 122.5 -50.5t50.5 -122.5t-50.5 -122.5t-122.5 -50.5t-122.5 50.5t-50.5 122.5t50.5 122.5t122.5 50.5z" />
    <glyph glyph-name="ellipsis" unicode="&#x2026;" horiz-adv-x="1000" 
d="M500 153q76 0 77 -1t1 -76t-1 -76t-77 -1t-77 1t-1 76t1 76t77 1zM833 153q76 0 77 -1t1 -76t-1 -76t-77 -1t-77 1t-1 76t1 76t77 1zM167 153q76 0 77 -1t1 -76t-1 -76t-77 -1t-77 1t-1 76t1 76t77 1z" />
    <glyph glyph-name="perthousand" unicode="&#x2030;" horiz-adv-x="1004" 
d="M497 719h87l-412 -740h-86zM155 709q74 0 111.5 -46.5t37.5 -133.5q0 -91 -37 -138.5t-113 -47.5q-75 0 -112 46.5t-37 136.5q0 88 38 135.5t112 47.5zM153 627q-26 0 -35.5 -26t-9.5 -75q0 -51 9 -76t38 -25q28 0 37.5 26t9.5 77q0 49 -10.5 74t-38.5 25zM510 354
q74 0 111.5 -46.5t37.5 -133.5q0 -91 -37 -138.5t-112 -47.5q-76 0 -112.5 46.5t-36.5 136.5q0 88 38 135.5t111 47.5zM508 272q-26 0 -35.5 -26t-9.5 -75q0 -51 9.5 -76t37.5 -25t37.5 26t9.5 77q0 49 -10 74t-39 25zM849 354q74 0 111.5 -46.5t37.5 -133.5
q0 -91 -37 -138.5t-112 -47.5q-76 0 -112.5 46.5t-36.5 136.5q0 88 38 135.5t111 47.5zM847 272q-26 0 -35.5 -26t-9.5 -75q0 -51 9.5 -76t37.5 -25t37.5 26t9.5 77q0 49 -10 74t-39 25z" />
    <glyph glyph-name="guilsinglleft" unicode="&#x2039;" horiz-adv-x="333" 
d="M181 267l110 -206h-141l-115 206l125 206h141z" />
    <glyph glyph-name="guilsinglright" unicode="&#x203a;" horiz-adv-x="333" 
d="M150 267l-120 206h141l125 -206l-3 -5l-112 -201h-141z" />
    <glyph glyph-name="fraction" unicode="&#x2044;" horiz-adv-x="170" 
d="M-166 -22l406 741h95l-405 -741h-96z" />
    <glyph glyph-name="franc" unicode="&#x20a3;" horiz-adv-x="533" 
d="M9 235h62v462h431v-120h-267v-164h254l1 -120h-255v-58h62v-121h-62v-114h-164v114h-62v121z" />
    <glyph glyph-name="trademark" unicode="&#x2122;" horiz-adv-x="1000" 
d="M384 615h-15l-29 -1h-73v-330h-104v330h-72l-30 1h-15v82h338v-82zM953 697v-413h-104v285l-96 -285h-83l-96 285v-285h-103v413h150l91 -250l91 250h150z" />
    <glyph glyph-name="Omega" unicode="&#x2126;" horiz-adv-x="768" 
d="M313 152l16 -152h-295v162h15q9 -37 20.5 -49t45.5 -12h158l-2 28q-99 23 -158 94.5t-59 175.5q0 135 98 212t233 77q134 0 232.5 -76t98.5 -213q0 -91 -56.5 -168.5t-160.5 -101.5l-2 -28h158q35 0 46 12.5t20 48.5h15v-162h-295l16 152q56 18 99 78.5t43 171.5
q0 124 -58 189t-156 65q-97 0 -155.5 -63.5t-58.5 -190.5q0 -111 41 -172t101 -78z" />
    <glyph glyph-name="partialdiff" unicode="&#x2202;" horiz-adv-x="494" 
d="M104 667l-39 50q24 11 56.5 21.5t74.5 10.5q110 0 188 -99t78 -257q0 -149 -62 -281t-185 -133q-67 0 -128 50.5t-61 146.5q0 93 58.5 159.5t139.5 66.5q42 0 74.5 -15.5t75.5 -52.5q6 30 8.5 58.5t2.5 52.5q0 113 -43.5 184t-123.5 71q-35 0 -61.5 -10t-52.5 -23z
M366 299q-17 25 -42.5 44.5t-65.5 19.5q-54 0 -100 -58.5t-46 -156.5q0 -57 21 -98t69 -41q66 0 106 71t58 219z" />
    <glyph glyph-name="Delta" unicode="&#x2206;" horiz-adv-x="612" 
d="M326 688l282 -688h-602zM290 517l-218 -468h412z" />
    <glyph glyph-name="product" unicode="&#x220f;" horiz-adv-x="823" 
d="M706 629v-626q0 -42 19 -61.5t78 -19.5v-23h-306v23q58 0 77 19.5t19 61.5v693h-358v-693q0 -42 19 -60.5t78 -20.5v-23h-307v23q60 0 78.5 19.5t18.5 61.5v626q0 52 -24.5 75.5t-70.5 23.5v23h773v-23q-46 0 -70 -23.5t-24 -75.5z" />
    <glyph glyph-name="summation" unicode="&#x2211;" horiz-adv-x="713" 
d="M617 745l6 -159h-20q-14 55 -39.5 84.5t-113.5 29.5h-263l273 -358l-294 -339h371q56 0 81.5 21t53.5 92h23q-16 -65 -26 -115.5t-17 -108.5q-18 3 -38.5 7t-38.5 4h-503l-58 -3l349 398l-347 454l104 -7h497z" />
    <glyph glyph-name="minus" unicode="&#x2212;" horiz-adv-x="599" 
d="M46 201v116h507v-116h-507z" />
    <glyph glyph-name="periodcentered" unicode="&#x2219;" horiz-adv-x="291" 
d="M145 360q76 0 77 -1t1 -76t-1 -76t-77 -1t-77 1t-1 76t1 76t77 1z" />
    <glyph glyph-name="radical" unicode="&#x221a;" horiz-adv-x="549" 
d="M26 417l-16 33l146 72l197 -403l127 798l35 -5l-150 -950l-243 502z" />
    <glyph glyph-name="infinity" unicode="&#x221e;" horiz-adv-x="713" 
d="M76 264q0 -41 24.5 -65t66.5 -24q44 0 81.5 26.5t70.5 62.5q-33 36 -70.5 62.5t-81.5 26.5q-42 0 -66.5 -28.5t-24.5 -60.5zM357 229q-73 -69 -115 -87t-75 -18q-53 0 -97.5 39.5t-44.5 100.5t44.5 100.5t97.5 39.5q42 0 80.5 -19t109.5 -86q71 67 109.5 86t80.5 19
q53 0 97.5 -39.5t44.5 -100.5t-44.5 -100.5t-97.5 -39.5q-33 0 -75 18t-115 87zM638 264q0 32 -24.5 60.5t-66.5 28.5q-44 0 -81.5 -26.5t-70.5 -62.5q33 -36 70.5 -62.5t81.5 -26.5q42 0 66.5 24t24.5 65z" />
    <glyph glyph-name="integral" unicode="&#x222b;" horiz-adv-x="274" 
d="M192 399q0 -264 -25.5 -385t-104.5 -121q-19 0 -39.5 16.5t-20.5 43.5q0 18 14 31t30 13q18 0 31 -16.5t23 -16.5q11 0 18.5 25t7.5 85q0 33 -3 95t-3 314q0 213 18 323t87 110q23 0 44.5 -14t21.5 -42q0 -15 -13.5 -29.5t-37.5 -14.5q-17 0 -28 12t-23 12q-10 0 -14 -7
t-4 -15q0 -35 10.5 -157t10.5 -262z" />
    <glyph glyph-name="approxequal" unicode="&#x2248;" horiz-adv-x="599" 
d="M494 456l62 -85q-21 -38 -60.5 -58.5t-77.5 -20.5q-30 0 -116.5 27.5t-110.5 27.5q-23 0 -40 -13t-37 -47l-63 88q32 43 67.5 61t75.5 18q33 0 117 -26t104 -26q23 0 44 14t35 40zM494 230l62 -85q-21 -38 -60.5 -58.5t-77.5 -20.5q-30 0 -116.5 27.5t-110.5 27.5
q-23 0 -40 -13t-37 -47l-63 88q32 43 67.5 61t75.5 18q33 0 117 -26t104 -26q23 0 44 14t35 40z" />
    <glyph glyph-name="notequal" unicode="&#x2260;" horiz-adv-x="599" 
d="M46 88v116h174l43 110h-217v116h262l33 86h116l-33 -86h129v-116h-174l-43 -110h217v-116h-262l-33 -86h-116l33 86h-129z" />
    <glyph glyph-name="lessequal" unicode="&#x2264;" horiz-adv-x="599" 
d="M47 107h506v-107h-506v107zM188 371l365 -154l1 -112l-507 213v106l507 213l-1 -112z" />
    <glyph glyph-name="greaterequal" unicode="&#x2265;" horiz-adv-x="599" 
d="M554 107v-107h-506v107h506zM48 217l365 154l-365 154l-1 112l507 -213v-106l-507 -213z" />
    <glyph glyph-name="lozenge" unicode="&#x25ca;" horiz-adv-x="494" 
d="M272 0h-60l-194 377l194 368h60l194 -368zM406 377l-164 314l-164 -314l164 -323z" />
    <glyph glyph-name="apple" unicode="&#xf000;" horiz-adv-x="750" 
d="M387 645l80 161q98 -19 164.5 -96.5t66.5 -198.5l-2 -41l-58 -169zM61 478l80 161q29 58 88.5 106.5t136.5 60.5l-80 -163l-251 -343l-3 44q0 37 7.5 71t21.5 63zM443 267h-213l106 146zM548 126q-52 -52 -106.5 -69t-105.5 -17q-57 0 -110 19t-100 66l78 108h264z
M631 267q-10 -33 -23 -61t-41 -61l-231 311l-228 -312q-25 28 -41.5 58.5t-25.5 63.5l281 382l80 161h29l-80 -161zM677 479q0 134 -57.5 207t-137.5 92l-69 -139q81 -21 153 -89.5t72 -191.5z" />
    <glyph glyph-name="fi" unicode="&#xf001;" horiz-adv-x="718" 
d="M271 0h-155v384h-101v111h103v63q0 102 46 151.5t140 49.5q24 0 53 -3.5t46 -7.5l-11 -116q-13 5 -25 8.5t-31 3.5q-35 0 -49.5 -23t-15.5 -61v-65h121v-111h-121v-384zM486 649q0 64 1 65t78 1t78 -1t1 -65t-1 -65t-78 -1t-78 1t-1 65zM643 0h-156v495h156v-495z" />
    <glyph glyph-name="fl" unicode="&#xf002;" horiz-adv-x="718" 
d="M273 0h-155v384h-102v111h104v63q0 102 47.5 151.5t145.5 49.5q31 0 54.5 -3.5t36.5 -6.5l-9 -118q-14 6 -24 9.5t-31 3.5q-36 0 -51 -22.5t-16 -60.5v-66h121v-111h-121v-384zM488 747h155v-747h-155v747z" />
  </font>
</defs>
</svg>
