<?xml version="1.0" standalone="no"?>
<!DOCTYPE svg PUBLIC "-//W3C//DTD SVG 1.1//EN" "http://www.w3.org/Graphics/SVG/1.1/DTD/svg11.dtd" >
<svg xmlns="http://www.w3.org/2000/svg" xmlns:xlink="http://www.w3.org/1999/xlink" version="1.1">
<metadata>
Created by FontForge 20201107 at Tue Dec 19 14:34:31 2023
 By 
Dimkin Typeface (c) Blue Curve Designstudio. 2023. All Rights Reserved
</metadata>
<defs>
<font id="Dimkin-Semibold" horiz-adv-x="813" >
  <font-face 
    font-family="Dimkin Semibold"
    font-weight="600"
    font-stretch="normal"
    units-per-em="2048"
    panose-1="2 0 5 0 0 0 0 0 0 0"
    ascent="1638"
    descent="-410"
    x-height="1045"
    cap-height="1432"
    bbox="-288 -390 1302 1921"
    underline-thickness="150"
    underline-position="-292"
    unicode-range="U+0020-2212"
  />
<missing-glyph horiz-adv-x="235" 
 />
    <glyph glyph-name=".notdef" horiz-adv-x="235" 
 />
    <glyph glyph-name=".null" horiz-adv-x="0" 
 />
    <glyph glyph-name="nonmarkingreturn" horiz-adv-x="682" 
 />
    <glyph glyph-name="space" unicode=" " horiz-adv-x="543" 
 />
    <glyph glyph-name="space" unicode="&#xa0;" horiz-adv-x="543" 
 />
    <glyph glyph-name="exclam" unicode="!" horiz-adv-x="392" 
d="M102 374q-42 0 -72 30t-30 72v854q0 42 30 72t72 30q41 0 71.5 -30.5t30.5 -71.5v-854q0 -42 -30 -72t-72 -30zM102 0q-42 0 -72 30t-30 72v87q0 42 30 72t72 30t72 -30t30 -72v-87q0 -42 -30 -72t-72 -30z" />
    <glyph glyph-name="quotedbl" unicode="&#x22;" horiz-adv-x="814" 
d="M46 987q-22 0 -42 9q-38 18 -53 57q-7 19 -7 37q0 21 9 41l52 112v100q0 42 29.5 72t72.5 30q42 0 72 -30t30 -72v-107l-1 -20q-2 -21 -8 -37l-61 -133q-33 -59 -93 -59zM429 987q-22 0 -42 9q-38 18 -53 57q-7 19 -7 37q0 21 9 41l52 112v100q0 42 29.5 72t72.5 30
q42 0 72 -30t30 -72v-107l-1 -20q-2 -21 -8 -37l-61 -133q-33 -59 -93 -59z" />
    <glyph glyph-name="numbersign" unicode="#" horiz-adv-x="1376" 
d="M596 0q-16 0 -32 5q-40 14 -59 51q-11 23 -11 46q0 16 5 32l91 282h-216l-112 -345q-10 -32 -36.5 -51.5t-60.5 -19.5q-16 0 -31 5q-40 14 -60 51q-11 23 -11 46q0 16 5 32l92 282h-58q-42 0 -72 29.5t-30 72.5q0 42 30 72t72 30h124l55 170h-64q-42 0 -72 30t-30 73
q0 42 30 72t72 30h131l119 367q11 32 37.5 51.5t59.5 19.5q16 0 32 -5q40 -14 59 -51q11 -23 11 -46q0 -16 -5 -32l-98 -304h215l120 367q11 32 37.5 51.5t59.5 19.5q16 0 31 -5q41 -15 60 -51q11 -22 11 -45q0 -16 -5 -33l-99 -304h57q43 0 72.5 -30t29.5 -72
q0 -43 -29.5 -73t-72.5 -30h-123l-56 -170h64q43 0 72.5 -30t29.5 -72q0 -43 -29.5 -72.5t-72.5 -29.5h-130l-112 -345q-11 -32 -37.5 -51.5t-59.5 -19.5zM657 620l55 170h-216l-55 -170h216z" />
    <glyph glyph-name="dollar" unicode="$" horiz-adv-x="851" 
d="M323 -130q-42 0 -72 34t-30 83v16h-63q-43 1 -72.5 30.5t-29.5 71.5q0 60 57 92q21 10 45 10h165q33 0 62 18q57 39 57 102v331q0 63 -57 102q-29 17 -62 17q-42 0 -82 11q-75 19 -133 72q-108 103 -108 240q0 96 41 171q62 109 180 148v33q0 22 7 43q26 68 91 74h4
q42 0 74 -36q28 -35 28 -81v-17h20q51 0 81 -30.5t30 -71.5q0 -54 -51 -88q-25 -14 -52 -14h-130q-33 0 -62 -17q-57 -39 -57 -102v-12q0 -62 57 -101q29 -18 62 -18q42 0 83 -10q75 -20 133 -72q107 -103 107 -241v-331q0 -84 -41 -159q-62 -109 -180 -148v-33
q0 -49 -30 -83t-72 -34z" />
    <glyph glyph-name="percent" unicode="%" horiz-adv-x="1284" 
d="M221 0q-26 0 -51 13q-50 32 -50 89q0 26 13 51l708 1227q33 51 88 51q27 0 51 -14q52 -30 52 -88q0 -26 -14 -51l-708 -1227q-34 -51 -89 -51zM298 845h-24q-115 0 -197 85q-77 88 -77 208q0 119 76 206q82 87 198 87h24q117 0 195.5 -84t78.5 -209q0 -118 -75 -206
l-2 -2q-82 -85 -197 -85zM298 1049q32 0 51 24.5t19 64.5q0 32 -16 60.5t-54 28.5h-24q-32 0 -51 -24.5t-19 -64.5q0 -32 16 -60.5t54 -28.5h24zM882 0h-23q-116 0 -198 85q-77 88 -77 208q0 119 76 206q82 87 199 87h23q117 0 195.5 -84t78.5 -209q0 -118 -75 -206l-2 -2
q-82 -85 -197 -85zM882 204q33 0 51.5 24.5t18.5 64.5q0 32 -15.5 60.5t-54.5 28.5h-23q-33 0 -51.5 -24.5t-18.5 -64.5q0 -32 15.5 -60.5t54.5 -28.5h23z" />
    <glyph glyph-name="ampersand" unicode="&#x26;" horiz-adv-x="936" 
d="M589 0q-60 0 -95 66q-80 -64 -183 -64q-65 0 -129 29q-84 39 -133 113t-49 161v277q0 147 114 255l11 9q-38 88 -53.5 125.5t-19.5 46.5q-24 58 -24 122q0 56 18 106l-2 1q83 187 267 187q113 0 190 -74q93 -91 93 -247q0 -170 -118 -260l-22 -17q-25 -23 -73 -58
l179 -378q33 25 68 25q47 0 80 -39q21 -33 21 -64q0 -40 -35 -77l-42 -38l29 -62q9 -18 9 -41q0 -71 -69 -99q-16 -5 -32 -5zM303 205q26 0 51 14q19 13 50 37l-185 390q-14 -28 -14 -60v-281q0 -35 22.5 -62.5t56.5 -35.5q10 -2 19 -2zM295 964l29 20q63 46 63 124v32
q0 12 -8.5 42t-40.5 43q-15 5 -30 5q-36 0 -57 -25q-18 -25 -18 -65q0 -27 9 -49z" />
    <glyph glyph-name="quotesingle" unicode="'" horiz-adv-x="395" 
d="M46 987q-22 0 -42 9q-38 18 -53 57q-7 19 -7 37q0 21 9 41l52 112v100q0 42 29.5 72t72.5 30q42 0 72 -30t30 -72v-107l-1 -20q-2 -21 -8 -37l-61 -133q-33 -59 -93 -59z" />
    <glyph glyph-name="parenleft" unicode="(" horiz-adv-x="543" 
d="M249 -180q-16 0 -32 5q-95 38 -156 154.5t-61 225.5v637q0 106 58.5 221.5t153.5 156.5q17 6 36 6q42 0 72 -30t30 -72q0 -33 -19 -55.5t-41 -36.5q-38 -28 -56.5 -64.5t-24 -71.5t-5.5 -54v-637q0 -21 5.5 -57.5t23.5 -72.5t55 -59q62 -37 62 -93q0 -42 -31 -73
q-31 -30 -70 -30z" />
    <glyph glyph-name="parenright" unicode=")" horiz-adv-x="543" 
d="M101 -180q-39 0 -71 30q-30 31 -30 73q0 56 62 93q37 23 55 59t23 72.5t5 57.5v637q0 19 -5 54t-23.5 71.5t-56.5 64.5q-22 14 -41 36.5t-19 55.5q0 42 30 72t72 30q18 0 36 -6q95 -41 153.5 -156.5t58.5 -221.5v-637q0 -109 -61.5 -225.5t-156.5 -154.5q-15 -5 -31 -5z
" />
    <glyph glyph-name="asterisk" unicode="*" horiz-adv-x="831" 
d="M445 1000q-43 0 -76 34l-56 75l-48 -67q-31 -42 -83 -42q-32 0 -60 20q-41 31 -41 85q0 25 12 47l55 77l-78 26l-6 1l-5 3q-59 32 -59 91q0 63 55 93q22 11 46 11q11 0 20 -2t90 -29v83l1 11q5 40 33.5 65.5t67.5 25.5q41 0 73 -30q25 -26 29 -61l1 -11v-83l78 26
q15 5 31 5q34 0 60.5 -19.5t36.5 -51.5q5 -18 5 -34q0 -61 -65 -93l-83 -27l48 -67q20 -24 20 -63q0 -44 -42 -79q-28 -20 -60 -20z" />
    <glyph glyph-name="plus" unicode="+" horiz-adv-x="855" 
d="M325 360q-42 0 -72 30t-30 72v121h-121q-42 0 -72 30t-30 72q0 41 30.5 71.5t71.5 30.5h121v121q0 42 30 72t72 30q41 0 71.5 -30.5t30.5 -71.5v-121h121q42 0 72 -30t30 -72t-30 -72t-72 -30h-121v-121q0 -42 -30 -72t-72 -30z" />
    <glyph glyph-name="comma" unicode="," horiz-adv-x="454" 
d="M102 -230q-22 0 -42 9q-38 18 -53 57q-7 19 -7 37q0 21 9 41l52 112v100q0 42 29.5 72t72.5 30q42 0 72 -30t30 -72v-107l-1 -20q-2 -21 -8 -37l-61 -133q-33 -59 -93 -59z" />
    <glyph glyph-name="hyphen" unicode="-" horiz-adv-x="855" 
d="M548 440h-446q-42 0 -72 30t-30 72q0 41 30.5 71.5t71.5 30.5h446q42 0 72 -30t30 -72t-30 -72t-72 -30z" />
    <glyph glyph-name="hyphen" unicode="&#xad;" horiz-adv-x="855" 
d="M548 440h-446q-42 0 -72 30t-30 72q0 41 30.5 71.5t71.5 30.5h446q42 0 72 -30t30 -72t-30 -72t-72 -30z" />
    <glyph glyph-name="period" unicode="." horiz-adv-x="392" 
d="M102 0q-42 0 -72 30t-30 72v107q0 42 30 72t72 30t72 -30t30 -72v-107q0 -42 -30 -72t-72 -30z" />
    <glyph glyph-name="slash" unicode="/" horiz-adv-x="731" 
d="M107 0q-61 0 -90 53q-15 26 -15 53q0 14 322 1264q11 43 48 65q23 14 48 14q60 0 90 -54q14 -26 14 -53q0 -13 -320 -1263q-11 -43 -48 -65q-24 -14 -49 -14z" />
    <glyph glyph-name="zero" unicode="0" horiz-adv-x="851" 
d="M323 0q-133 0 -228 95t-95 228v786q0 134 95 228.5t228 94.5q134 0 228.5 -94.5t94.5 -228.5v-786q0 -133 -94.5 -228t-228.5 -95zM204 650l226 512q-38 66 -107 66q-49 0 -84 -35t-35 -84v-459zM323 204q49 0 84 35t35 84v450l-225 -503q38 -66 106 -66z" />
    <glyph glyph-name="one" unicode="1" horiz-adv-x="530" 
d="M235 0q-43 0 -72.5 30t-29.5 72v1126h-31q-42 0 -72 30t-30 72q0 41 30.5 71.5t71.5 30.5h133q41 0 71.5 -30.5t30.5 -71.5v-1228q0 -42 -30 -72t-72 -30z" />
    <glyph glyph-name="two" unicode="2" horiz-adv-x="816" 
d="M510 0h-405q-42 0 -72 30t-30 73v643q0 58 21 111q24 62 71 107q85 82 204 87h7q46 0 76 26q26 27 26 63t-26 62.5t-63 26.5h-217q-29 0 -55 16q-47 33 -47 86q0 41 30.5 71.5t71.5 30.5h217q81 0 149 -40.5t108 -111.5q37 -67 37 -141q0 -71 -33.5 -133.5t-92.5 -105.5
q-70 -49 -163 -55h-4q-44 0 -77 -23q-35 -33 -35 -77v-541h302q28 0 53 -15q50 -33 50 -87q0 -41 -30 -73q-32 -30 -73 -30z" />
    <glyph glyph-name="three" unicode="3" 
d="M305 0h-203q-42 0 -72 30t-30 72q0 41 30 71.5t72 30.5h203q41 0 70.5 29.5t29.5 71.5v441q0 40 -29 71q-31 29 -71 29h-175q-28 0 -53 15q-49 34 -49 87q0 41 30 71.5t72 30.5h186q36 0 62.5 27t26.5 62q0 37 -26 63t-63 26h-214q-31 0 -58 18q-44 33 -44 84
q0 41 30.5 71.5t71.5 30.5h214q80 0 148.5 -40.5t108.5 -111.5q36 -67 36 -141q0 -111 -74 -194q74 -86 74 -199v-441q0 -81 -48 -165q-43 -65 -110.5 -102.5t-145.5 -37.5z" />
    <glyph glyph-name="four" unicode="4" horiz-adv-x="939" 
d="M507 0q-42 0 -72 30t-30 72v243h-303q-42 0 -72 29.5t-30 72.5q0 22 5 31l408 891q29 63 94 63q41 0 71.5 -30.5t30.5 -71.5v-781h20q43 0 72.5 -30t29.5 -72q0 -43 -29.5 -72.5t-72.5 -29.5h-20v-243q0 -42 -30 -72t-72 -30zM405 549v345l-151 -345h151z" />
    <glyph glyph-name="five" unicode="5" horiz-adv-x="812" 
d="M305 0h-203q-42 0 -72 30t-30 72t30.5 72t71.5 30h203q41 0 70.5 29.5t29.5 71.5v441q0 40 -30 70t-70 30h-203q-28 0 -53 15q-49 33 -49 87v382q0 42 30 72t72 30h331q42 0 72 -30t30 -72l-1 -8q-4 -40 -33 -67t-68 -27h-229v-178h101q80 0 151.5 -41t112.5 -112
q40 -72 40 -151v-441q0 -80 -41 -151.5t-111.5 -112.5t-151.5 -41z" />
    <glyph glyph-name="six" unicode="6" horiz-adv-x="812" 
d="M305 0q-80 0 -151.5 41t-112.5 112.5t-41 151.5v834q0 79 41 148.5t111 108.5q67 36 141 36h140q42 0 72 -30t30 -72l-1 -8q-4 -40 -33 -67t-68 -27h-140q-36 0 -62.5 -26.5t-26.5 -62.5v-106q49 17 101 17q81 0 151.5 -41t112.5 -112q40 -72 40 -151v-441
q0 -80 -41 -151.5t-111.5 -112.5t-151.5 -41zM305 204q41 0 70.5 29.5t29.5 71.5v441q0 40 -30 70t-70 30q-42 0 -71.5 -29.5t-29.5 -70.5v-441q0 -42 29.5 -71.5t71.5 -29.5z" />
    <glyph glyph-name="seven" unicode="7" horiz-adv-x="811" 
d="M108 0q-16 0 -32 5q-41 14 -59 51q-11 21 -11 45q0 16 5 33l355 1094h-264q-42 0 -72 30t-30 72q0 43 30 72.5t72 29.5h409q51 -3 80 -43q16 -28 16 -57q0 -8 -3.5 -30t-15.5 -53l-383 -1178q-11 -33 -37.5 -52t-59.5 -19z" />
    <glyph glyph-name="eight" unicode="8" horiz-adv-x="812" 
d="M305 0q-126 0 -215.5 89.5t-89.5 215.5v441q0 114 79 205q-60 82 -60 188q0 119 75 206q83 87 199 87h23q118 0 196.5 -83.5t78.5 -209.5q0 -106 -61 -188q79 -90 79 -205v-441q0 -126 -89 -215.5t-215 -89.5zM305 204q41 0 70.5 29.5t29.5 71.5v441q0 40 -30 70t-70 30
q-42 0 -71.5 -29.5t-29.5 -70.5v-441q0 -42 29.5 -71.5t71.5 -29.5zM316 1050q33 0 51.5 25t18.5 64q0 32 -15.5 60.5t-54.5 28.5h-23q-33 0 -51.5 -24.5t-18.5 -64.5q0 -32 15.5 -60.5t54.5 -28.5h23z" />
    <glyph glyph-name="nine" unicode="9" horiz-adv-x="812" 
d="M316 0h-139q-49 0 -74.5 32t-25.5 69q0 40 25 70q30 33 75 33h139q36 0 62.5 26.5t26.5 62.5v106q-49 -17 -100 -17q-81 0 -151.5 41t-112.5 113q-41 72 -41 150v442q0 79 41 150.5t111.5 112.5t152.5 41q79 0 151 -40.5t112.5 -112.5t40.5 -151v-835q0 -79 -41 -148
t-111 -109q-67 -36 -141 -36zM305 586q41 0 70.5 29.5t29.5 70.5v442q0 41 -29.5 70.5t-70.5 29.5q-42 0 -71.5 -29.5t-29.5 -70.5v-442q0 -40 30.5 -70t70.5 -30z" />
    <glyph glyph-name="colon" unicode=":" horiz-adv-x="442" 
d="M152 0q-42 0 -72 30t-30 72v107q0 42 30 72t72 30t72 -30t30 -72v-107q0 -42 -30 -72t-72 -30zM152 750q-42 0 -72 30t-30 72v107q0 42 30 72t72 30t72 -30t30 -72v-107q0 -42 -30 -72t-72 -30z" />
    <glyph glyph-name="semicolon" unicode=";" horiz-adv-x="454" 
d="M163 750q-42 0 -72 30t-30 72v107q0 42 30 72t72 30t72 -30t30 -72v-107q0 -42 -30 -72t-72 -30zM102 -230q-22 0 -42 9q-38 18 -53 57q-7 19 -7 37q0 21 9 41l52 112v100q0 42 29.5 72t72.5 30q42 0 72 -30t30 -72v-107l-1 -20q-2 -21 -8 -37l-61 -133q-33 -59 -93 -59z
" />
    <glyph glyph-name="less" unicode="&#x3c;" horiz-adv-x="748" 
d="M445 370q-31 0 -57 17l-353 241q-34 24 -35 67q1 43 35 67l352 241q27 18 58 18q51 0 84 -45q18 -27 18 -56q0 -10 -4.5 -35t-39.5 -50l-204 -140l204 -139q44 -31 44 -86q0 -30 -18 -56q-33 -44 -84 -44z" />
    <glyph glyph-name="equal" unicode="=" horiz-adv-x="855" 
d="M548 785h-446q-42 0 -72 29.5t-30 72.5q0 41 30.5 71.5t71.5 30.5h446q42 0 72 -30t30 -72q0 -43 -30 -72.5t-72 -29.5zM548 450h-446q-42 0 -72 30t-30 72q0 41 30.5 71.5t71.5 30.5h446q42 0 72 -30t30 -72t-30 -72t-72 -30z" />
    <glyph glyph-name="greater" unicode="&#x3e;" horiz-adv-x="748" 
d="M102 370q-51 0 -84 44q-18 26 -18 56q0 55 44 86l204 139l-204 140q-35 25 -39.5 50t-4.5 35q0 29 18 56q33 45 84 45q31 0 58 -18l352 -241q34 -24 35 -67q-1 -43 -35 -67l-353 -241q-26 -17 -57 -17z" />
    <glyph glyph-name="question" unicode="?" horiz-adv-x="725" 
d="M221 0q-42 0 -72 30t-30 72v107q0 42 30 72t72 30q43 0 72.5 -30t29.5 -72v-107q0 -42 -29.5 -72t-72.5 -30zM221 354q-42 0 -72 30t-30 72v436q4 58 53 99.5t95 66.5q20 12 28 18q26 28 26 63q0 37 -26 63t-63 26h-130q-31 0 -58 18q-44 34 -44 84q0 41 30.5 71.5
t71.5 30.5h130q81 0 149 -40.5t108 -111.5q36 -67 36 -141q0 -117 -85 -207q-32 -31 -76 -55h-1q-15 -7 -27 -18.5t-13 -29.5v-373q0 -42 -29.5 -72t-72.5 -30z" />
    <glyph glyph-name="at" unicode="@" horiz-adv-x="1433" 
d="M594 0q-75 0 -147 20q-131 37 -230.5 122.5t-158 208.5t-58.5 261v126q0 168 81.5 307t217 221t303.5 84q244 0 429 -177q176 -184 176 -426v-144q0 -112 -40 -217l-1 -2q-35 -70 -95 -108t-135 -38q-35 0 -69 9q-97 27 -136 100q-29 -22 -63.5 -32t-63.5 -10
q-126 0 -215.5 89t-89.5 215v131q0 126 89 215.5t215 89.5h1q112 -3 175 -47t90.5 -102t33.5 -103.5t6 -46.5v-281q0 -19 8 -34q5 -7 11.5 -9t10.5 -2q36 0 53 79q13 50 13 106v140q0 161 -117 284q-121 117 -284 117q-109 0 -200 -56t-146 -149t-55 -204v-125
q0 -89 37 -170q51 -112 152 -177q97 -61 196 -61q21 0 40 4.5t44 4.5q55 0 84 -41q18 -28 18 -60l-1 -17q-11 -44 -45 -66q-50 -29 -134 -29zM617 483q26 3 49 16l14 9q7 5 14 12l14 16q6 9 8 14q5 8 5 10q5 12 7 22.5t3 20.5v137l-1 16l-3 14q-2 11 -6 20l-9 17l-10 14
q-38 46 -98 46h-11l-22 -4l-16 -6q-10 -4 -19 -9q-13 -9 -23 -19l-14 -17l-9 -16v-1q-6 -10 -6 -13l-3 -13q-3 -8 -3 -18l-1 -11q0 -141 1 -146l2 -11q2 -12 7 -23l5 -10q2 -5 8 -14l2 -2q12 -16 29 -28l2 -2q16 -10 33.5 -15.5t37.5 -5.5h13z" />
    <glyph glyph-name="A" unicode="A" horiz-adv-x="939" 
d="M42 0q-13 0 -26 4q-40 11 -62 47q-14 24 -14 50q0 14 326 1252q16 59 74 76q13 4 26 4q49 0 83 -43l6 -12q7 -12 11 -24q326 -1237 326 -1251q0 -27 -14 -52q-29 -50 -88 -50q-35 0 -62 21t-37 55l-61 233h-327l-62 -233q-10 -35 -37 -56t-62 -21zM476 515l-110 415
l-110 -415h220z" />
    <glyph glyph-name="B" unicode="B" horiz-adv-x="865" 
d="M328 0h-221q-43 0 -72.5 29.5t-29.5 72.5v1129q-75 25 -75 102v4q4 41 34 68t71 27h218q84 0 160 -43t122 -122q30 -57 30 -131q0 -4 -1.5 -45.5t-28.5 -96.5q-6 -13 -15 -26q131 -101 131 -260v-385q0 -84 -43 -160t-118 -119.5t-162 -43.5zM267 1033q39 6 57 35t18 62
t-18 62t-57 35h-58v-194h58zM328 204q49 0 84 35t35 84v385q0 49 -35 84t-84 35h-119v-623h119z" />
    <glyph glyph-name="C" unicode="C" horiz-adv-x="745" 
d="M442 0h-119q-80 0 -151 38t-116 103q-56 90 -56 182v786q0 83 41 158q47 83 131 128q67 35 143 37h127q52 0 83 -43q19 -27 19 -59q0 -58 -57 -92q-22 -10 -45 -10h-123q-49 -2 -82 -36t-33 -83v-786q0 -49 35 -84t84 -35h119q42 0 72 -30.5t30 -71.5q0 -11 -5 -28
q-10 -35 -37 -54.5t-60 -19.5z" />
    <glyph glyph-name="D" unicode="D" horiz-adv-x="843" 
d="M339 0h-266q-69 1 -69 82v1147q-37 7 -65.5 34t-28.5 67q0 41 30.5 71.5t71.5 30.5h336q188 -15 273 -165q41 -75 41 -158v-786q0 -92 -56 -182q-44 -65 -113.5 -103t-153.5 -38zM339 204q49 0 84 35t35 84v786q0 49 -33 83t-83 36h-134v-1024h131z" />
    <glyph glyph-name="E" unicode="E" horiz-adv-x="706" 
d="M405 0h-313q-40 5 -66 33.5t-26 68.5v1228q0 40 26 68.5t66 33.5h313q42 0 72 -30t30 -72t-30 -72t-72 -30h-201v-178h154q42 0 72 -29.5t30 -72.5q0 -42 -30 -72t-72 -30h-154v-642h201q42 0 72 -30t30 -72t-30 -72t-72 -30z" />
    <glyph glyph-name="F" unicode="F" horiz-adv-x="675" 
d="M102 0q-42 0 -72 30t-30 72v1228q0 40 26 68.5t66 33.5h313q42 0 72 -30t30 -72t-30 -72t-72 -30h-201v-178h154q42 0 72 -29.5t30 -72.5q0 -42 -30 -72t-72 -30h-154v-744q0 -24 -10 -45q-33 -57 -92 -57z" />
    <glyph glyph-name="G" unicode="G" horiz-adv-x="851" 
d="M554 0h-236q-79 2 -148 38q-76 42 -122 116q-48 79 -48 169v786q0 83 41 158q47 83 131 128q67 35 143 37h183q41 0 72 -30q30 -32 30 -72q0 -58 -57 -92q-22 -10 -45 -10h-179q-49 -3 -82 -36.5t-33 -82.5v-786q0 -49 35 -84t84 -35h119v396h-15q-42 0 -72 30t-30 72
q0 41 31 71.5t71 30.5h117q43 0 72.5 -30t29.5 -72v-600q0 -40 -26 -68.5t-66 -33.5z" />
    <glyph glyph-name="H" unicode="H" horiz-adv-x="851" 
d="M544 0q-42 0 -72 30t-30 72v708h-238v-708q0 -42 -30 -72t-72 -30t-72 30t-30 72v1228q0 42 30 72t72 30t72 -30t30 -72v-316h238v316q0 42 30 72t72 30q41 0 71.5 -30.5t30.5 -71.5v-1228q0 -42 -30 -72t-72 -30z" />
    <glyph glyph-name="I" unicode="I" horiz-adv-x="392" 
d="M102 0q-42 0 -72 30t-30 72v1228q0 42 30 72t72 30q41 0 71.5 -30.5t30.5 -71.5v-1228q0 -42 -30 -72t-72 -30z" />
    <glyph glyph-name="J" unicode="J" horiz-adv-x="662" 
d="M149 0h-137q-45 0 -78 37q-24 29 -24 65l1 17q7 37 35.5 61.5t65.5 24.5h137q49 0 84 34.5t35 84.5v1006q0 24 10 45q33 58 92 58q41 0 72 -30q30 -32 30 -73v-1012q-6 -133 -100 -225.5t-223 -92.5z" />
    <glyph glyph-name="K" unicode="K" horiz-adv-x="899" 
d="M591 0q-35 0 -62 21t-37 55l-177 659h-111v-632q0 -42 -30 -72t-72 -30t-72 30t-30 72v1228q0 42 30 72t72 30t72 -30t30 -72v-392h111l112 418q10 34 37 55t62 21h63q41 0 71.5 -30.5t30.5 -71.5q0 -38 -24.5 -66.5t-62.5 -34.5l-105 -392q194 -722 194 -736
q0 -35 -21 -62t-54 -36q-14 -4 -27 -4z" />
    <glyph glyph-name="L" unicode="L" horiz-adv-x="707" 
d="M405 0h-313q-40 5 -66 33.5t-26 68.5v1228q0 42 30 72t72 30q59 0 92 -57q10 -21 10 -45v-1126h201q42 0 72 -30t30 -72t-30 -72t-72 -30z" />
    <glyph glyph-name="M" unicode="M" horiz-adv-x="1068" 
d="M753 0q-42 0 -72 30t-30 72v642l-115 -317q-10 -32 -31 -63t-67 -37l-10 -1q-69 0 -102 85l-122 332v-641q0 -42 -30 -72t-72 -30t-72 30t-30 72v1228q0 42 30 72t72 30q41 0 72 -30q18 -22 27 -46l227 -628l230 637q11 31 37 49t58 18q41 0 72 -30.5t31 -71.5v-1228
q0 -42 -30 -72t-73 -30z" />
    <glyph glyph-name="N" unicode="N" horiz-adv-x="955" 
d="M600 0q-30 0 -55 16q-37 30 -44 59l-297 691v-664q0 -42 -30 -72t-72 -30t-72 30t-30 72v1228q1 54 48 86q24 17 52 17q77 0 102 -82l296 -689v668q0 42 30 72t72 30t72 -30t30 -72v-1235q-4 -41 -34 -68t-68 -27z" />
    <glyph glyph-name="O" unicode="O" horiz-adv-x="851" 
d="M323 0q-134 0 -228.5 95t-94.5 228v786q0 134 94.5 228.5t228.5 94.5t228.5 -94.5t94.5 -228.5v-786q0 -133 -94.5 -228t-228.5 -95zM323 204q49 0 84 35t35 84v786q0 49 -35 84t-84 35t-84 -35t-35 -84v-786q0 -49 35 -84t84 -35z" />
    <glyph glyph-name="P" unicode="P" horiz-adv-x="827" 
d="M112 0q-42 0 -72 30t-30 72v1128q-35 9 -57.5 36.5t-22.5 63.5q0 41 30.5 71.5t71.5 30.5h307q58 -1 112 -22q107 -42 164 -143q41 -75 41 -158v-404q0 -83 -42.5 -159t-118 -120t-162.5 -44h-119v-280q0 -41 -30.5 -71.5t-71.5 -30.5zM333 586q49 0 84 35t35 84v404
q0 49 -33 82.5t-83 36.5h-122v-642h119z" />
    <glyph glyph-name="Q" unicode="Q" horiz-adv-x="975" 
d="M572 -104q-55 0 -89 51l-42 72q-40 -10 -80 -10q-93 0 -175.5 47.5t-134 123.5t-51.5 162v767q0 85 51.5 161t134 123.5t175.5 47.5q92 0 174.5 -47.5t134 -123.5t51.5 -161v-767q0 -60 -31.5 -119t-74.5 -97l45 -77q14 -25 14 -51q0 -13 -7 -39.5t-44 -49.5
q-24 -13 -51 -13zM323 219l-43 74q-14 26 -14 52q0 12 7 38.5t44 48.5q24 14 51 14q55 0 88 -51l54 -90q7 20 7 37v767q0 48 -53 88t-103 40t-103 -40t-53 -88v-767q0 -40 36 -74.5t82 -48.5z" />
    <glyph glyph-name="R" unicode="R" horiz-adv-x="836" 
d="M552 0q-63 0 -95 64l-131 319h-123v-280q0 -41 -29 -72q-32 -30 -73 -30q-42 0 -72 30t-30 72v1128q-8 2 -16 6q-63 32 -63 94q0 41 29 72q32 30 73 30h306q59 -1 113 -22q107 -42 163 -143q42 -75 42 -158v-404q0 -83 -42 -158q-32 -58 -85 -98l127 -309q8 -20 8 -39
q0 -20 -12 -48t-52 -46q-19 -8 -38 -8zM323 587q48 0 85 36q34 36 34 83v404q0 49 -33.5 83t-82.5 36h-123v-642h120z" />
    <glyph glyph-name="S" unicode="S" horiz-adv-x="851" 
d="M323 0h-165q-43 1 -72.5 30.5t-29.5 71.5q0 59 57 92q21 10 45 10h165q49 0 84 35t35 84v332q0 49 -35 84t-84 35q-124 0 -215 82q-108 103 -108 241q0 95 41 170q45 79 124 124q75 41 158 41q132 0 149 -1q32 -6 54 -29q30 -31 30 -72q0 -54 -51 -88q-15 -9 -32 -11.5
t-150 -2.5q-49 0 -84 -35t-35 -84v-12q0 -49 35 -84t84 -35q124 0 216 -83q107 -102 107 -240v-332q0 -83 -41 -158q-45 -79 -123 -124q-75 -41 -159 -41z" />
    <glyph glyph-name="T" unicode="T" horiz-adv-x="776" 
d="M283 0q-42 0 -72 30t-30 72v1126h-119q-42 0 -72 30t-30 72t30 72t72 30h442q42 0 72 -30t30 -72t-30 -72t-72 -30h-119v-1126q0 -42 -30 -72t-72 -30z" />
    <glyph glyph-name="U" unicode="U" horiz-adv-x="851" 
d="M323 0q-88 0 -166 46q-74 45 -115.5 119t-41.5 158v1007q0 42 30 72t72 30q41 0 71.5 -30t30.5 -72v-1007q0 -49 35 -84t84 -35t84 35t35 84v1007q0 24 11 45q32 57 91 57q41 0 71.5 -30.5t30.5 -71.5v-1015q-9 -174 -156 -269q-78 -46 -167 -46z" />
    <glyph glyph-name="V" unicode="V" horiz-adv-x="987" 
d="M399 0q-40 0 -65 14q-36 23 -44 62l-325 1218q-5 20 -5 38q0 63 61 93q19 7 39 7q52 0 86 -47q7 -11 12 -28l230 -858l223 857q5 22 17 37q34 39 81 39q20 0 39 -7q61 -30 61 -93q0 -18 -5 -38q-222 -860 -314 -1207q-7 -35 -29 -61q-25 -23 -62 -26z" />
    <glyph glyph-name="W" unicode="W" horiz-adv-x="1219" 
d="M690 0q-52 0 -82 43q-9 11 -13 24l-105 616l-95 -588q-22 -95 -102 -95q-32 0 -59 19q-37 32 -42 75q-252 1215 -252 1234q0 70 60 98q19 7 39 7q29 0 55 -15q34 -23 44 -67l152 -764l96 598q11 50 40.5 73t61.5 23q33 0 60 -20t37 -52l1 -1l105 -621l146 763
q12 54 59 76q19 7 40 7q20 0 39 -7q58 -27 58 -102l-1 -27l-240 -1201q-5 -31 -17.5 -52.5t-42.5 -34.5q-20 -9 -42 -9z" />
    <glyph glyph-name="X" unicode="X" horiz-adv-x="916" 
d="M608 0q-62 0 -94 63l-159 385l-158 -385q-32 -63 -95 -63q-20 0 -38 8q-39 16 -56 55q-8 20 -8 39q0 20 8 39l237 576l-237 575q-8 21 -8 40q0 20 12 48t52 46q18 7 38 7q63 0 95 -63l158 -385l159 385q32 63 94 63q20 0 39 -7q39 -17 56 -56q7 -19 7 -39q0 -19 -7 -39
l-237 -575l237 -576q7 -19 7 -39q0 -19 -7 -39q-17 -39 -56 -55q-19 -8 -39 -8z" />
    <glyph glyph-name="Y" unicode="Y" horiz-adv-x="918" 
d="M355 0q-42 0 -72 30t-30 72v594l-245 596q-8 18 -8 39q0 62 63 94q19 8 39 8q62 0 94 -63l159 -386l159 386q32 63 94 63q20 0 39 -8q63 -32 63 -94q0 -21 -8 -39l-245 -596v-594q0 -42 -30 -72t-72 -30z" />
    <glyph glyph-name="Z" unicode="Z" horiz-adv-x="853" 
d="M546 0h-444q-50 0 -81 41q-19 29 -19 62q0 20 7 41l392 1084h-299q-42 0 -72 30t-30 72q0 41 30.5 71.5t71.5 30.5h445q43 -1 72 -31t29 -74q0 -11 -3 -22q-15 -44 -397 -1101h298q42 0 72 -30t30 -72t-30 -72t-72 -30z" />
    <glyph glyph-name="bracketleft" unicode="[" horiz-adv-x="530" 
d="M102 -120q-42 0 -72 30t-30 72v1470q0 41 30.5 71.5t71.5 30.5h133q41 0 71.5 -30.5t30.5 -71.5q0 -42 -30 -72t-72 -30h-31v-1266h31q42 0 72 -30t30 -72q0 -41 -30.5 -71.5t-71.5 -30.5h-133z" />
    <glyph glyph-name="backslash" unicode="\" horiz-adv-x="731" 
d="M420 0q-25 0 -49 14q-37 22 -48 65q-321 1250 -321 1263q0 27 15 53q29 54 89 54q25 0 49 -14q37 -22 48 -65q321 -1250 321 -1264q0 -27 -14 -53q-30 -53 -90 -53z" />
    <glyph glyph-name="bracketright" unicode="]" horiz-adv-x="530" 
d="M235 -120h-133q-41 0 -71.5 30.5t-30.5 71.5q0 42 30 72t72 30h31v1266h-31q-42 0 -72 30t-30 72q0 41 30.5 71.5t71.5 30.5h133q41 0 71.5 -30.5t30.5 -71.5v-1470q0 -42 -30 -72t-72 -30z" />
    <glyph glyph-name="asciicircum" unicode="^" horiz-adv-x="856" 
d="M-6 1005q0 31 17 57l241 353q24 34 67 35q43 -1 67 -35l241 -352q18 -27 18 -58q0 -51 -45 -84q-27 -18 -56 -18q-10 0 -35 4.5t-50 39.5l-140 204l-139 -204q-31 -44 -86 -44q-30 0 -56 18q-44 33 -44 84z" />
    <glyph glyph-name="underscore" unicode="_" horiz-adv-x="1225" 
d="M988 -240h-886q-42 0 -72 30t-30 72q0 41 30.5 71.5t71.5 30.5h886q42 0 72 -30t30 -72t-30 -72t-72 -30z" />
    <glyph glyph-name="grave" unicode="`" horiz-adv-x="454" 
d="M157 984q-60 0 -93 59l-61 133q-6 16 -7 37l-2 20v107q0 42 30 72t72 30q43 0 72.5 -30t29.5 -72v-100l52 -112q9 -20 9 -41q0 -18 -7 -37q-15 -39 -53 -57q-20 -9 -42 -9z" />
    <glyph glyph-name="a" unicode="a" 
d="M508 0q-51 0 -83 44q-54 -44 -127 -44q-69 0 -138 37q-74 41 -117 113t-43 155v122q0 86 44 158t122 113q66 33 139 33q47 0 100 -22v37q0 40 -30 70t-70 30h-98q-42 0 -72 30t-30 73q0 40 30 72q32 30 72 30h98q79 0 151 -41t112.5 -112.5t40.5 -151.5v-644
q0 -41 -29 -70.5t-72 -31.5zM305 204q41 0 70.5 29.5t29.5 71.5v122q0 40 -29 71q-31 29 -71 29q-42 0 -71.5 -29.5t-29.5 -70.5v-122q0 -42 29.5 -71.5t71.5 -29.5z" />
    <glyph glyph-name="b" unicode="b" horiz-adv-x="812" 
d="M305 0q-61 0 -118 42l-7 -9q-17 -17 -39 -25t-39 -8q-42 0 -72 30t-30 72v1228q0 42 30 72t72 30q41 0 71.5 -30.5t30.5 -71.5v-306q25 14 51.5 20t49.5 6q122 0 215 -89q89 -93 89 -215v-441q0 -126 -89 -215.5t-215 -89.5zM305 204q41 0 70.5 29.5t29.5 71.5v441
q0 40 -30 70t-70 30q-42 0 -71.5 -29.5t-29.5 -70.5v-441q0 -42 29.5 -71.5t71.5 -29.5z" />
    <glyph glyph-name="c" unicode="c" horiz-adv-x="713" 
d="M433 0h-128q-81 0 -151.5 41t-112.5 112q-41 72 -41 151v441q0 124 90.5 214.5t214.5 90.5h128q49 0 74 -32t25 -70t-25 -70t-74 -32h-128q-42 0 -71.5 -29.5t-29.5 -71.5v-441q0 -41 29.5 -70.5t71.5 -29.5h128q33 0 60.5 -21t37.5 -55q3 -14 3 -27q0 -40 -29 -72
q-31 -29 -72 -29z" />
    <glyph glyph-name="d" unicode="d" horiz-adv-x="812" 
d="M507 0q-17 0 -39 8t-39 25l-7 9q-57 -42 -117 -42q-126 0 -215.5 89.5t-89.5 215.5v441q0 122 89 215q93 89 216 89q22 0 48.5 -6t51.5 -20v301q0 41 30.5 71.5t71.5 30.5q42 0 72 -30t30 -72v-1223q0 -42 -30 -72t-72 -30zM305 204q41 0 70.5 29.5t29.5 71.5v441
q0 41 -29.5 70.5t-70.5 29.5t-71 -30t-30 -70v-441q0 -42 29.5 -71.5t71.5 -29.5z" />
    <glyph glyph-name="e" unicode="e" horiz-adv-x="802" 
d="M477 0h-172q-83 0 -153.5 41t-112.5 114l-1 2q-38 67 -38 148v435q0 128 89.5 219t215.5 91h6q122 -4 209 -89q89 -93 89 -215v-163q0 -107 -75.5 -182.5t-182.5 -75.5h-147v-20q0 -42 29.5 -71.5t71.5 -29.5h172q30 0 55 -16q47 -31 47 -86q0 -41 -30.5 -71.5
t-71.5 -30.5zM333 529q30 0 51 21t21 51v145q0 40 -30 70t-71 30q-42 -1 -71 -31t-29 -73v-213h129z" />
    <glyph glyph-name="f" unicode="f" horiz-adv-x="646" 
d="M102 0q-41 0 -71.5 30.5t-30.5 71.5v1012q2 89 48 164q44 71 118.5 112.5t156.5 41.5h138q56 0 89 -53q13 -23 13 -49q0 -41 -30.5 -71.5t-71.5 -30.5h-138q-49 0 -84 -35t-35 -84v-53h162q43 0 73 -30t30 -72t-30 -72t-73 -30h-162v-750q0 -23 -10 -45q-33 -57 -92 -57z
" />
    <glyph glyph-name="g" unicode="g" 
d="M294 -387h-127q-50 0 -80 40l-13 20q-9 20 -9 42q0 58 57 92q22 10 45 10h123q49 3 82 36.5t33 82.5v82q-42 -23 -100 -23q-122 0 -216 89q-89 93 -89 215v442q0 126 89.5 215t215.5 89q61 0 117 -42l9 11q32 31 76 31q42 0 72 -30t30 -72v-1007q0 -83 -41 -158
q-47 -83 -131 -128q-67 -35 -143 -37zM305 199q41 0 70.5 29.5t29.5 70.5v442q0 41 -29.5 70.5t-70.5 29.5q-42 0 -71.5 -29.5t-29.5 -70.5v-442q0 -40 30 -71q31 -29 71 -29z" />
    <glyph glyph-name="h" unicode="h" horiz-adv-x="812" 
d="M507 0q-53 0 -87 49q-15 25 -15 53v644q0 40 -29 71q-31 29 -71 29q-42 0 -71.5 -29.5t-29.5 -70.5v-644q0 -28 -14 -53q-34 -49 -88 -49q-42 0 -72 30t-30 72v1228q0 42 30 72t72 30q41 0 71.5 -30.5t30.5 -71.5v-305q53 25 101 25q79 0 150 -40q36 -20 65 -49
q89 -93 89 -215v-644q0 -42 -30 -72t-72 -30z" />
    <glyph glyph-name="i" unicode="i" horiz-adv-x="392" 
d="M102 0q-42 0 -72 30t-30 72v846q0 43 30 72.5t72 29.5t72 -29.5t30 -72.5v-846q0 -42 -30 -72t-72 -30zM102 1121q-42 0 -72 30t-30 72v107q0 42 30 72t72 30t72 -30t30 -72v-107q0 -42 -30 -72t-72 -30z" />
    <glyph glyph-name="j" unicode="j" horiz-adv-x="595" 
d="M69 -389h-137q-46 0 -79 38q-23 29 -23 64q0 10 2 21q8 36 36 58.5t64 22.5h137q49 0 84 35t35 84v905h-41q-42 0 -72 29.5t-30 72.5q0 42 30 72t72 30h143q42 0 72 -30.5t30 -71.5v-1012q-2 -90 -47 -165q-46 -72 -122 -112.5t-154 -40.5z" />
    <glyph glyph-name="k" unicode="k" horiz-adv-x="809" 
d="M541 0q-31 0 -57.5 18t-37.5 49l-174 469h-68v-434q0 -42 -29.5 -72t-72.5 -30q-42 0 -72 30t-30 72v1228q0 42 30 72t72 30q41 0 71.5 -30.5t30.5 -71.5v-590h68l90 244q12 30 38 48t58 18q18 0 35 -6q30 -12 48.5 -38t18.5 -58q0 -18 -7 -35l-102 -275l186 -500
q6 -18 6 -36q0 -22 -9 -43q-28 -59 -93 -59z" />
    <glyph glyph-name="l" unicode="l" horiz-adv-x="401" 
d="M105 0q-42 0 -72 30t-30 72v1126h-41q-42 0 -72 30t-30 72t30 72t72 30h143q43 0 73 -30t30 -72v-1228q0 -42 -30 -72t-73 -30z" />
    <glyph glyph-name="m" unicode="m" horiz-adv-x="1078" 
d="M789 0q-38 0 -68 26q-34 32 -34 76v707q0 24 -15 34.5t-31 13t-19 2.5q-25 0 -47.5 -12.5t-27.5 -39.5v-705q0 -44 -34 -76q-30 -26 -68 -26q-37 0 -68 26q-34 32 -34 76v706q-4 34 -26.5 43t-36.5 9q-27 0 -51.5 -14t-24.5 -37v-707q0 -44 -34 -76q-31 -26 -68 -26
q-42 0 -72 30t-30 72v846q0 44 26 73t67 29q17 0 36.5 -9t33.5 -27q59 39 120 41q106 0 181 -57q72 55 168 55h6q103 0 182 -73q71 -74 71 -171v-707q0 -42 -30 -72t-72 -30z" />
    <glyph glyph-name="n" unicode="n" horiz-adv-x="812" 
d="M507 0q-41 0 -72 30q-11 11 -19 25v1q-11 22 -11 46v644q0 41 -29.5 70.5t-70.5 29.5q-42 0 -71.5 -29.5t-29.5 -70.5v-644q0 -28 -14 -53q-34 -49 -88 -49q-41 0 -71.5 30.5t-30.5 71.5v846q0 43 30 72.5t72 29.5q20 0 43.5 -11.5t40.5 -31.5q56 43 119 43q81 0 164 -47
v-1q66 -42 103 -110t37 -146v-644q0 -42 -30 -72t-72 -30z" />
    <glyph glyph-name="o" unicode="o" 
d="M305 0q-126 0 -215.5 89.5t-89.5 215.5v441q0 126 89.5 215t215.5 89q122 0 215 -89q89 -93 89 -215v-441q0 -126 -89 -215.5t-215 -89.5zM305 204q41 0 70.5 29.5t29.5 71.5v441q0 40 -30 70t-70 30q-42 0 -71.5 -29.5t-29.5 -70.5v-441q0 -42 29.5 -71.5t71.5 -29.5z
" />
    <glyph glyph-name="p" unicode="p" 
d="M102 -387q-41 0 -71.5 30.5t-30.5 71.5v1228q0 41 30.5 71.5t71.5 30.5q21 0 45 -10.5t40 -31.5q52 42 118 42q81 0 151.5 -41t112.5 -113q40 -71 40 -150v-442q0 -126 -89 -215t-215 -89q-48 0 -101 27v-307q0 -42 -30 -72t-72 -30zM305 199q41 0 70.5 29.5t29.5 70.5
v442q0 41 -29.5 70.5t-70.5 29.5q-42 0 -71.5 -29.5t-29.5 -70.5v-442q0 -40 30 -70t71 -30z" />
    <glyph glyph-name="q" unicode="q" horiz-adv-x="829" 
d="M595 -387h-88q-42 0 -72 30t-30 72v307q-53 -27 -100 -27q-126 0 -215.5 89t-89.5 215v442q0 79 41 150.5t111.5 112.5t152.5 41q65 0 118 -42q16 21 39.5 31.5t44.5 10.5q41 0 71.5 -30.5t30.5 -71.5v-1127q38 -6 63 -34t25 -67q0 -41 -30.5 -71.5t-71.5 -30.5zM305 199
q40 0 70 30t30 70v442q0 41 -29.5 70.5t-70.5 29.5q-42 0 -71.5 -29.5t-29.5 -70.5v-442q0 -41 29.5 -70.5t71.5 -29.5z" />
    <glyph glyph-name="r" unicode="r" horiz-adv-x="662" 
d="M102 0q-42 0 -72 30t-30 72v846q0 44 27.5 73.5t68.5 29.5q52 0 82 -41q36 28 96 34t155 6h4q49 -1 74 -31.5t25 -69.5q0 -40 -25 -71.5t-74 -31.5h-128q-42 0 -71.5 -29.5t-29.5 -70.5v-644q0 -28 -15 -53q-34 -49 -87 -49z" />
    <glyph glyph-name="s" unicode="s" horiz-adv-x="790" 
d="M305 0h-203q-41 0 -71.5 30.5t-30.5 71.5q0 54 49 87q25 15 53 15h203q41 0 70.5 29.5t29.5 71.5v112q0 42 -29.5 71t-70.5 29h-48q-101 0 -179 84t-78 192q0 59 26 113q33 66 95.5 105.5t135.5 39.5h149q42 0 72 -30t30 -73q0 -42 -30 -72t-72 -30h-149
q-22 0 -37.5 -15.5t-15.5 -37.5q0 -30 16 -56q16 -15 37 -15h48q127 0 223 -99q81 -91 81 -206v-112q0 -80 -41 -151.5t-111 -112.5t-152 -41z" />
    <glyph glyph-name="t" unicode="t" horiz-adv-x="692" 
d="M460 0h-137q-114 0 -207 75q-21 18 -39 39l-19 28h-3l-7 12q-46 75 -48 164v1012q0 41 30 73q31 29 72 29q59 0 92 -57q10 -21 10 -45v-284h162q43 0 72.5 -30t29.5 -72t-29.5 -72t-72.5 -30h-162v-519q0 -49 35 -84t84 -35h137q23 0 45 -10q57 -29 57 -91q0 -30 -18 -58
q-34 -45 -84 -45z" />
    <glyph glyph-name="u" unicode="u" 
d="M507 0q-20 0 -43.5 11.5t-40.5 32.5q-55 -44 -118 -44q-81 0 -165 48q-65 43 -102.5 111t-37.5 146v643q0 43 30 72.5t72 29.5q41 0 72 -29q11 -12 19 -26v-1q11 -22 11 -46v-643q0 -42 29.5 -71.5t71.5 -29.5q41 0 70.5 29.5t29.5 71.5v643q0 28 15 53q33 49 87 49
q41 0 71.5 -30.5t30.5 -71.5v-846q0 -42 -30 -72t-72 -30z" />
    <glyph glyph-name="v" unicode="v" horiz-adv-x="797" 
d="M318 0q-70 3 -96 66l-3 8q-2 9 -13.5 48.5t-38 130t-73.5 252.5t-120 416l-1 1q-3 12 -3 24q0 28 15 53q30 50 87 50q36 0 63 -21.5t37 -56.5l146 -566l146 566q9 35 36.5 56.5t63.5 21.5q56 0 87 -50q14 -25 14 -53q0 -12 -2 -24l-1 -1l-248 -855q-30 -66 -96 -66z" />
    <glyph glyph-name="w" unicode="w" horiz-adv-x="1055" 
d="M625 0q-33 0 -59.5 18.5t-37.5 49.5l-81 326q-29 -120 -45.5 -187.5t-24 -96.5t-8.5 -35l-2 -7q-20 -52 -72 -66q-12 -2 -23 -2q-32 0 -58 18t-39 48l-212 857q-3 12 -3 24q0 36 21.5 63.5t56.5 36.5q12 3 24 3q36 0 63.5 -21.5t36.5 -57.5l107 -501l78 402q7 37 35.5 61
t65.5 24q38 0 66 -25t34 -63l77 -399l108 501q9 35 36.5 57t63.5 22q12 0 24 -3q42 -12 63 -47q14 -24 14 -51q0 -12 -3 -26q-62 -254 -102 -416t-62.5 -253t-32.5 -130.5t-12 -48.5l-2 -7q-10 -29 -35.5 -48.5t-59.5 -19.5z" />
    <glyph glyph-name="x" unicode="x" horiz-adv-x="824" 
d="M519 0q-59 0 -92 57l-117 237l-117 -237q-33 -57 -91 -57q-24 0 -45 10q-38 19 -52 59q-5 17 -5 33q0 23 10 45l187 377l-187 377q-10 22 -10 45q0 16 5 33q14 40 52 59q21 11 45 11q58 0 91 -57l117 -237l117 237q33 57 92 57q24 0 45 -11q58 -29 58 -91q0 -23 -11 -46
l-187 -377l187 -377q11 -22 11 -45q0 -16 -6 -33q-14 -40 -52 -59q-21 -10 -45 -10z" />
    <glyph glyph-name="y" unicode="y" 
d="M295 -387h-128q-35 0 -61.5 21.5t-35.5 57.5q-2 13 -2 26q0 58 55 89q21 10 44 10h123q49 2 82 36t33 83v90q-51 -31 -100 -31q-124 0 -216 89q-89 93 -89 215v644q0 42 30 72t72 30q41 0 71.5 -30t30.5 -72v-644q0 -40 30 -71q31 -29 71 -29q41 0 70.5 29.5t29.5 70.5
v644q0 28 15 53q33 49 87 49q41 0 71.5 -30.5t30.5 -71.5v-1007q0 -83 -41 -158q-47 -83 -131 -128q-67 -35 -142 -37z" />
    <glyph glyph-name="z" unicode="z" 
d="M507 0h-405q-42 0 -72 30t-30 72q0 23 10 45l335 700h-243q-42 0 -72 29.5t-30 72.5q0 41 30.5 71.5t71.5 30.5h405q42 0 72 -30t30 -72q0 -19 -7 -37q0 -1 -3 -7.5t-19 -39.5t-51.5 -108t-100 -209t-164.5 -343h243q42 0 72 -30t30 -73q0 -41 -30.5 -71.5t-71.5 -30.5z
" />
    <glyph glyph-name="bar" unicode="|" horiz-adv-x="392" 
d="M102 -240q-42 0 -72 30t-30 72v1628q0 42 30 72t72 30q41 0 71.5 -30.5t30.5 -71.5v-1628q0 -42 -30 -72t-72 -30z" />
    <glyph glyph-name="asciitilde" unicode="~" horiz-adv-x="881" 
d="M448 1176q-30 0 -61 8l-101 31q-69 23 -91 23q-31 0 -74 -22q-19 -9 -40 -9q-46 0 -76 40q-2 2 -4 6q-12 22 -12 45q0 12 6.5 36t38.5 44l63 36q49 24 101 24q34 0 67 -10l44 -13q44 -13 88 -28q29 -12 58 -12q16 0 32 6t31 14q12 7 25.5 12t29.5 5q42 0 71 -34
q21 -26 21 -58q0 -49 -47 -80l-21 -12q-74 -52 -149 -52z" />
    <glyph glyph-name="exclamdown" unicode="&#xa1;" horiz-adv-x="392" 
d="M102 678q42 0 72 -30t30 -72v-854q0 -41 -30.5 -71.5t-71.5 -30.5q-42 0 -72 30t-30 72v854q0 42 30 72t72 30zM102 1052q42 0 72 -30t30 -72v-87q0 -42 -30 -72t-72 -30t-72 30t-30 72v87q0 42 30 72t72 30z" />
    <glyph glyph-name="copyright" unicode="&#xa9;" horiz-adv-x="1149" 
d="M457 -10q-129 0 -235 63t-169 169t-63 235v122q0 129 63 235t169 169t235 63q97 0 182 -36.5t149 -100.5t100 -149t36 -181v-122q0 -129 -63 -235t-169 -169t-235 -63zM457 167q120 0 205 85t85 205v122q0 120 -85 205t-205 85t-205 -85t-85 -205v-122q0 -120 85 -205
t205 -85zM528 225h-67q-48 0 -91 25q-87 60 -87 153v229q0 73 53 126t125 53h67q36 0 53.5 -22.5t17.5 -51.5q0 -28 -17.5 -50.5t-53.5 -22.5h-67q-13 0 -22 -9.5t-9 -22.5v-229q0 -13 9 -22t22 -9h67q20 0 38 -11q34 -22 34 -59q0 -28 -18.5 -52.5t-53.5 -24.5z" />
    <glyph glyph-name="guillemotleft" unicode="&#xab;" horiz-adv-x="937" 
d="M618 63q-57 0 -86 57l-177 422l177 422q29 57 86 57q18 0 35 -7q57 -25 57 -85q0 -18 -7 -36l-146 -351l146 -350q7 -16 7 -34q0 -62 -57 -88q-17 -7 -35 -7zM296 0q-62 0 -94 63l-195 467l-7 10l201 482q33 62 95 62q20 0 39 -7q57 -26 63 -88v-5q0 -21 -8 -41
l-167 -401l167 -400q8 -21 8 -41v-5q-6 -62 -63 -88q-19 -8 -39 -8z" />
    <glyph glyph-name="registered" unicode="&#xae;" horiz-adv-x="1149" 
d="M563 211q-38 0 -60 39l-46 112h-8v-86q0 -27 -19.5 -46t-45.5 -19q-27 0 -45.5 18.5t-18.5 46.5v430q-31 17 -31 55q0 26 18.5 45t45.5 19h122q55 -2 98 -39q50 -46 50 -112v-160q0 -69 -45 -109l43 -106q4 -14 4 -26q0 -37 -38 -58q-13 -4 -24 -4zM471 490q10 0 17 7
t7 17v159q0 19 -24 24h-23v-207h23zM457 -10q-129 0 -235 63t-169 169t-63 235v122q0 129 63 235t169 169t235 63q97 0 182 -36.5t149 -100.5t100 -149t36 -181v-122q0 -129 -63 -235t-169 -169t-235 -63zM457 167q120 0 205 85t85 205v122q0 120 -85 205t-205 85t-205 -85
t-85 -205v-122q0 -120 85 -205t205 -85z" />
    <glyph glyph-name="macron" unicode="&#xaf;" horiz-adv-x="1090" 
d="M918 1352h-816q-42 0 -72 30t-30 72q0 41 30.5 71.5t71.5 30.5h816q42 0 72 -30t30 -72t-30 -72t-72 -30z" />
    <glyph glyph-name="guillemotright" unicode="&#xbb;" horiz-adv-x="942" 
d="M92 63q-18 0 -35 7q-57 26 -57 88q0 18 7 34l146 350l-146 351q-7 18 -7 36q0 60 57 85q17 7 35 7q57 0 86 -57l177 -422l-177 -422q-29 -57 -86 -57zM414 0q-20 0 -39 8q-57 26 -63 88v5q0 20 8 41l167 400l-167 401q-8 20 -8 41v5q6 62 63 88q19 7 39 7q62 0 95 -62
l201 -482l-7 -10l-195 -467q-32 -63 -94 -63z" />
    <glyph glyph-name="questiondown" unicode="&#xbf;" horiz-adv-x="725" 
d="M221 731q-42 0 -72 30t-30 72v107q0 42 30 72t72 30q43 0 72.5 -30t29.5 -72v-107q0 -42 -29.5 -72t-72.5 -30zM102 -390q-41 0 -71.5 30.5t-30.5 71.5q0 51 44 84q27 18 58 18h130q37 0 63 26t26 63q0 36 -26 63q-8 6 -28 18q-46 25 -95 66.5t-53 99.5v436q0 42 30 72
t72 30q43 0 72.5 -30t29.5 -72v-373q1 -18 13 -29.5t27 -18.5q45 -23 77 -55q85 -90 85 -207q0 -74 -36 -141q-40 -71 -108 -111.5t-149 -40.5h-130z" />
    <glyph glyph-name="Agrave" unicode="&#xc0;" horiz-adv-x="939" 
d="M42 0q-13 0 -26 4q-40 11 -62 47q-14 24 -14 50q0 14 326 1252q16 59 74 76q13 4 26 4q49 0 83 -43l6 -12q7 -12 11 -24q326 -1237 326 -1251q0 -27 -14 -52q-29 -50 -88 -50q-35 0 -62 21t-37 55l-61 233h-327l-62 -233q-10 -35 -37 -56t-62 -21zM476 515l-110 415
l-110 -415h220zM375 1528q-26 0 -56.5 18t-41.5 59q-50 184 -50 198q0 26 17.5 56t58.5 41q14 4 28 4q25 0 55.5 -17.5t41.5 -58.5q50 -185 50 -198q0 -26 -18 -56.5t-58 -41.5q-14 -4 -27 -4z" />
    <glyph glyph-name="Aacute" unicode="&#xc1;" horiz-adv-x="939" 
d="M42 0q-13 0 -26 4q-40 11 -62 47q-14 24 -14 50q0 14 326 1252q16 59 74 76q13 4 26 4q49 0 83 -43l6 -12q7 -12 11 -24q326 -1237 326 -1251q0 -27 -14 -52q-29 -50 -88 -50q-35 0 -62 21t-37 55l-61 233h-327l-62 -233q-10 -35 -37 -56t-62 -21zM476 515l-110 415
l-110 -415h220zM370 1528q-13 0 -27 4q-40 11 -58 41.5t-18 56.5q0 13 50 198q11 41 41.5 58.5t55.5 17.5q14 0 28 -4q41 -11 58.5 -41t17.5 -56q0 -14 -50 -198q-11 -41 -41.5 -59t-56.5 -18z" />
    <glyph glyph-name="Acircumflex" unicode="&#xc2;" horiz-adv-x="939" 
d="M42 0q-13 0 -26 4q-40 11 -62 47q-14 24 -14 50q0 14 326 1252q16 59 74 76q13 4 26 4q49 0 83 -43l6 -12q7 -12 11 -24q326 -1237 326 -1251q0 -27 -14 -52q-29 -50 -88 -50q-35 0 -62 21t-37 55l-61 233h-327l-62 -233q-10 -35 -37 -56t-62 -21zM476 515l-110 415
l-110 -415h220zM651 1536h-5q-21 0 -41 8l-241 137l-240 -137q-21 -8 -41 -8q-65 1 -93 63q-8 19 -8 39q0 62 63 94l317 162l322 -161q62 -33 62 -95q0 -20 -7 -39q-26 -57 -88 -63z" />
    <glyph glyph-name="Atilde" unicode="&#xc3;" horiz-adv-x="939" 
d="M42 0q-13 0 -26 4q-40 11 -62 47q-14 24 -14 50q0 14 326 1252q16 59 74 76q13 4 26 4q49 0 83 -43l6 -12q7 -12 11 -24q326 -1237 326 -1251q0 -27 -14 -52q-29 -50 -88 -50q-35 0 -62 21t-37 55l-61 233h-327l-62 -233q-10 -35 -37 -56t-62 -21zM476 515l-110 415
l-110 -415h220zM470 1597q-30 0 -61 8l-101 31q-69 23 -91 23q-31 0 -74 -22q-19 -9 -40 -9q-46 0 -76 40q-2 2 -4 6q-12 22 -12 45q0 12 6.5 36t38.5 44l63 36q49 24 101 24q34 0 67 -10l44 -13q44 -13 88 -28q29 -12 58 -12q16 0 32 6t31 14q12 7 25.5 12t29.5 5
q42 0 71 -34q21 -26 21 -58q0 -49 -47 -80l-21 -12q-74 -52 -149 -52z" />
    <glyph glyph-name="Adieresis" unicode="&#xc4;" horiz-adv-x="939" 
d="M42 0q-13 0 -26 4q-40 11 -62 47q-14 24 -14 50q0 14 326 1252q16 59 74 76q13 4 26 4q49 0 83 -43l6 -12q7 -12 11 -24q326 -1237 326 -1251q0 -27 -14 -52q-29 -50 -88 -50q-35 0 -62 21t-37 55l-61 233h-327l-62 -233q-10 -35 -37 -56t-62 -21zM476 515l-110 415
l-110 -415h220zM202 1610q-42 0 -72 30t-30 72v107q0 42 30 72t72 30t72 -30t30 -72v-107q0 -42 -30 -72t-72 -30zM505 1610q-43 0 -72.5 30t-29.5 72v107q0 42 29.5 72t72.5 30q42 0 72 -30t30 -72v-107q0 -42 -30 -72t-72 -30z" />
    <glyph glyph-name="Aring" unicode="&#xc5;" horiz-adv-x="939" 
d="M379 1449q32 0 51 24.5t19 64.5q0 32 -16 60.5t-54 28.5h-24q-32 0 -51 -24.5t-19 -64.5q0 -32 16 -60.5t54 -28.5h24zM476 515l-110 415l-110 -415h220zM244 1268q-47 21 -86 62q-77 88 -77 208q0 119 76 206q82 87 198 87h24q117 0 195.5 -84t78.5 -209
q0 -118 -75 -206l-2 -2q-40 -41 -87 -62q303 -1151 303 -1165q0 -27 -14 -52q-29 -50 -88 -50q-35 0 -62 21t-37 55l-61 233h-327l-62 -233q-10 -35 -37 -56t-62 -21q-13 0 -26 4q-40 11 -62 47q-14 24 -14 50q0 14 304 1167z" />
    <glyph glyph-name="Ccedilla" unicode="&#xc7;" horiz-adv-x="745" 
d="M410 0q-21 -82 -44 -170q-11 -43 -48 -65q-24 -14 -49 -14q-61 0 -90 53q-15 26 -15 53q0 5 40 166q-16 6 -32 15q-71 38 -116 103q-56 90 -56 182v786q0 83 41 158q47 83 131 128q67 35 143 37h127q52 0 83 -43q19 -27 19 -59q0 -58 -57 -92q-22 -10 -45 -10h-123
q-49 -2 -82 -36t-33 -83v-786q0 -49 35 -84t84 -35h119q42 0 72 -30.5t30 -71.5q0 -11 -5 -28q-10 -35 -37 -54.5t-60 -19.5h-32z" />
    <glyph glyph-name="Egrave" unicode="&#xc8;" horiz-adv-x="756" 
d="M265 1528q-26 0 -56.5 18t-41.5 59q-50 184 -50 198q0 26 17.5 56t58.5 41q14 4 28 4q25 0 55.5 -17.5t41.5 -58.5q50 -185 50 -198q0 -26 -18 -56.5t-58 -41.5q-14 -4 -27 -4zM405 0h-313q-40 5 -66 33.5t-26 68.5v1228q0 40 26 68.5t66 33.5h313q42 0 72 -30t30 -72
t-30 -72t-72 -30h-201v-178h154q42 0 72 -29.5t30 -72.5q0 -42 -30 -72t-72 -30h-154v-642h201q42 0 72 -30t30 -72t-30 -72t-72 -30z" />
    <glyph glyph-name="Eacute" unicode="&#xc9;" horiz-adv-x="745" 
d="M260 1528q-13 0 -27 4q-40 11 -58 41.5t-18 56.5q0 13 50 198q11 41 41.5 58.5t55.5 17.5q14 0 28 -4q41 -11 58.5 -41t17.5 -56q0 -14 -50 -198q-11 -41 -41.5 -59t-56.5 -18zM405 0h-313q-40 5 -66 33.5t-26 68.5v1228q0 40 26 68.5t66 33.5h313q42 0 72 -30t30 -72
t-30 -72t-72 -30h-201v-178h154q42 0 72 -29.5t30 -72.5q0 -42 -30 -72t-72 -30h-154v-642h201q42 0 72 -30t30 -72t-30 -72t-72 -30z" />
    <glyph glyph-name="Ecircumflex" unicode="&#xca;" horiz-adv-x="729" 
d="M531 1536h-5q-21 0 -41 8l-241 137l-240 -137q-21 -8 -41 -8q-65 1 -93 63q-8 19 -8 39q0 62 63 94l317 162l322 -161q62 -33 62 -95q0 -20 -7 -39q-26 -57 -88 -63zM405 0h-313q-40 5 -66 33.5t-26 68.5v1228q0 40 26 68.5t66 33.5h313q42 0 72 -30t30 -72t-30 -72
t-72 -30h-201v-178h154q42 0 72 -29.5t30 -72.5q0 -42 -30 -72t-72 -30h-154v-642h201q42 0 72 -30t30 -72t-30 -72t-72 -30z" />
    <glyph glyph-name="Edieresis" unicode="&#xcb;" horiz-adv-x="718" 
d="M92 1610q-42 0 -72 30t-30 72v107q0 42 30 72t72 30t72 -30t30 -72v-107q0 -42 -30 -72t-72 -30zM395 1610q-43 0 -72.5 30t-29.5 72v107q0 42 29.5 72t72.5 30q42 0 72 -30t30 -72v-107q0 -42 -30 -72t-72 -30zM405 0h-313q-40 5 -66 33.5t-26 68.5v1228q0 40 26 68.5
t66 33.5h313q42 0 72 -30t30 -72t-30 -72t-72 -30h-201v-178h154q42 0 72 -29.5t30 -72.5q0 -42 -30 -72t-72 -30h-154v-642h201q42 0 72 -30t30 -72t-30 -72t-72 -30z" />
    <glyph glyph-name="Igrave" unicode="&#xcc;" horiz-adv-x="392" 
d="M102 0q-42 0 -72 30t-30 72v1228q0 42 30 72t72 30q41 0 71.5 -30.5t30.5 -71.5v-1228q0 -42 -30 -72t-72 -30zM95 1528q-27 0 -57 18t-41 59q-50 184 -50 198q0 26 17.5 56t58.5 41q14 4 27 4q26 0 56.5 -17.5t41.5 -58.5q50 -185 50 -198q0 -26 -18 -56.5t-58 -41.5
q-14 -4 -27 -4z" />
    <glyph glyph-name="Iacute" unicode="&#xcd;" horiz-adv-x="392" 
d="M102 0q-42 0 -72 30t-30 72v1228q0 42 30 72t72 30q41 0 71.5 -30.5t30.5 -71.5v-1228q0 -42 -30 -72t-72 -30zM100 1528q-14 0 -27 4q-40 11 -58 41.5t-18 56.5q0 13 50 198q11 41 41 58.5t56 17.5q14 0 28 -4q41 -11 58.5 -41t17.5 -56q0 -14 -50 -198
q-11 -41 -41.5 -59t-56.5 -18z" />
    <glyph glyph-name="Icircumflex" unicode="&#xce;" horiz-adv-x="392" 
d="M102 0q-42 0 -72 30t-30 72v1228q0 42 30 72t72 30q41 0 71.5 -30.5t30.5 -71.5v-1228q0 -42 -30 -72t-72 -30zM381 1536h-5q-21 0 -41 8l-241 137l-240 -137q-21 -8 -41 -8q-65 1 -93 63q-8 19 -8 39q0 62 63 94l317 162l322 -161q62 -33 62 -95q0 -20 -7 -39
q-26 -57 -88 -63z" />
    <glyph glyph-name="Idieresis" unicode="&#xcf;" horiz-adv-x="392" 
d="M102 0q-42 0 -72 30t-30 72v1228q0 42 30 72t72 30q41 0 71.5 -30.5t30.5 -71.5v-1228q0 -42 -30 -72t-72 -30zM-58 1610q-42 0 -72 30t-30 72v107q0 42 30 72t72 30t72 -30t30 -72v-107q0 -42 -30 -72t-72 -30zM245 1610q-43 0 -72.5 30t-29.5 72v107q0 42 29.5 72
t72.5 30q42 0 72 -30t30 -72v-107q0 -42 -30 -72t-72 -30z" />
    <glyph glyph-name="Ntilde" unicode="&#xd1;" horiz-adv-x="955" 
d="M600 0q-30 0 -55 16q-37 30 -44 59l-297 691v-664q0 -42 -30 -72t-72 -30t-72 30t-30 72v1228q1 54 48 86q24 17 52 17q77 0 102 -82l296 -689v668q0 42 30 72t72 30t72 -30t30 -72v-1235q-4 -41 -34 -68t-68 -27zM470 1597q-30 0 -61 8l-101 31q-69 23 -91 23
q-31 0 -74 -22q-19 -9 -40 -9q-46 0 -76 40q-2 2 -4 6q-12 22 -12 45q0 12 6.5 36t38.5 44l63 36q49 24 101 24q34 0 67 -10l44 -13q44 -13 88 -28q29 -12 58 -12q16 0 32 6t31 14q12 7 25.5 12t29.5 5q42 0 71 -34q21 -26 21 -58q0 -49 -47 -80l-21 -12q-74 -52 -149 -52z
" />
    <glyph glyph-name="Ograve" unicode="&#xd2;" horiz-adv-x="851" 
d="M323 0q-134 0 -228.5 95t-94.5 228v786q0 134 94.5 228.5t228.5 94.5t228.5 -94.5t94.5 -228.5v-786q0 -133 -94.5 -228t-228.5 -95zM323 204q49 0 84 35t35 84v786q0 49 -35 84t-84 35t-84 -35t-35 -84v-786q0 -49 35 -84t84 -35zM335 1528q-26 0 -56.5 18t-41.5 59
q-50 184 -50 198q0 26 17.5 56t58.5 41q14 4 28 4q25 0 55.5 -17.5t41.5 -58.5q50 -185 50 -198q0 -26 -18 -56.5t-58 -41.5q-14 -4 -27 -4z" />
    <glyph glyph-name="Oacute" unicode="&#xd3;" horiz-adv-x="851" 
d="M323 0q-134 0 -228.5 95t-94.5 228v786q0 134 94.5 228.5t228.5 94.5t228.5 -94.5t94.5 -228.5v-786q0 -133 -94.5 -228t-228.5 -95zM323 204q49 0 84 35t35 84v786q0 49 -35 84t-84 35t-84 -35t-35 -84v-786q0 -49 35 -84t84 -35zM330 1528q-13 0 -27 4q-40 11 -58 41.5
t-18 56.5q0 13 50 198q11 41 41.5 58.5t55.5 17.5q14 0 28 -4q41 -11 58.5 -41t17.5 -56q0 -14 -50 -198q-11 -41 -41.5 -59t-56.5 -18z" />
    <glyph glyph-name="Ocircumflex" unicode="&#xd4;" horiz-adv-x="851" 
d="M323 0q-134 0 -228.5 95t-94.5 228v786q0 134 94.5 228.5t228.5 94.5t228.5 -94.5t94.5 -228.5v-786q0 -133 -94.5 -228t-228.5 -95zM323 204q49 0 84 35t35 84v786q0 49 -35 84t-84 35t-84 -35t-35 -84v-786q0 -49 35 -84t84 -35zM601 1536h-5q-21 0 -41 8l-241 137
l-240 -137q-21 -8 -41 -8q-65 1 -93 63q-8 19 -8 39q0 62 63 94l317 162l322 -161q62 -33 62 -95q0 -20 -7 -39q-26 -57 -88 -63z" />
    <glyph glyph-name="Otilde" unicode="&#xd5;" horiz-adv-x="851" 
d="M323 0q-134 0 -228.5 95t-94.5 228v786q0 134 94.5 228.5t228.5 94.5t228.5 -94.5t94.5 -228.5v-786q0 -133 -94.5 -228t-228.5 -95zM323 204q49 0 84 35t35 84v786q0 49 -35 84t-84 35t-84 -35t-35 -84v-786q0 -49 35 -84t84 -35zM450 1597q-30 0 -61 8l-101 31
q-69 23 -91 23q-31 0 -74 -22q-19 -9 -40 -9q-46 0 -76 40q-2 2 -4 6q-12 22 -12 45q0 12 6.5 36t38.5 44l63 36q49 24 101 24q34 0 67 -10l44 -13q44 -13 88 -28q29 -12 58 -12q16 0 32 6t31 14q12 7 25.5 12t29.5 5q42 0 71 -34q21 -26 21 -58q0 -49 -47 -80l-21 -12
q-74 -52 -149 -52z" />
    <glyph glyph-name="Odieresis" unicode="&#xd6;" horiz-adv-x="851" 
d="M323 0q-134 0 -228.5 95t-94.5 228v786q0 134 94.5 228.5t228.5 94.5t228.5 -94.5t94.5 -228.5v-786q0 -133 -94.5 -228t-228.5 -95zM323 204q49 0 84 35t35 84v786q0 49 -35 84t-84 35t-84 -35t-35 -84v-786q0 -49 35 -84t84 -35zM172 1610q-42 0 -72 30t-30 72v107
q0 42 30 72t72 30t72 -30t30 -72v-107q0 -42 -30 -72t-72 -30zM475 1610q-43 0 -72.5 30t-29.5 72v107q0 42 29.5 72t72.5 30q42 0 72 -30t30 -72v-107q0 -42 -30 -72t-72 -30z" />
    <glyph glyph-name="Oslash" unicode="&#xd8;" horiz-adv-x="866" 
d="M252 228q30 -24 71 -24q49 0 84 35t35 84v436q-80 -223 -190 -531zM204 694q78 217 185 514q-29 20 -66 20q-49 0 -84 -35t-35 -84v-415zM175 35q-10 -12 -25 -21q-24 -14 -49 -14q-61 0 -90 53q-15 26 -15 54q0 3 30 88q-26 59 -26 128v786q0 134 94.5 228.5t228.5 94.5
q76 0 139 -30q12 20 34 33q23 14 48 14q60 0 90 -54q14 -26 14 -53q0 -3 -32 -95q30 -62 30 -138v-786q0 -133 -94.5 -228t-228.5 -95q-81 0 -148 35z" />
    <glyph glyph-name="Ugrave" unicode="&#xd9;" horiz-adv-x="851" 
d="M323 0q-88 0 -166 46q-74 45 -115.5 119t-41.5 158v1007q0 42 30 72t72 30q41 0 71.5 -30t30.5 -72v-1007q0 -49 35 -84t84 -35t84 35t35 84v1007q0 24 11 45q32 57 91 57q41 0 71.5 -30.5t30.5 -71.5v-1015q-9 -174 -156 -269q-78 -46 -167 -46zM335 1528
q-26 0 -56.5 18t-41.5 59q-50 184 -50 198q0 26 17.5 56t58.5 41q14 4 28 4q25 0 55.5 -17.5t41.5 -58.5q50 -185 50 -198q0 -26 -18 -56.5t-58 -41.5q-14 -4 -27 -4z" />
    <glyph glyph-name="Uacute" unicode="&#xda;" horiz-adv-x="851" 
d="M323 0q-88 0 -166 46q-74 45 -115.5 119t-41.5 158v1007q0 42 30 72t72 30q41 0 71.5 -30t30.5 -72v-1007q0 -49 35 -84t84 -35t84 35t35 84v1007q0 24 11 45q32 57 91 57q41 0 71.5 -30.5t30.5 -71.5v-1015q-9 -174 -156 -269q-78 -46 -167 -46zM330 1528q-13 0 -27 4
q-40 11 -58 41.5t-18 56.5q0 13 50 198q11 41 41.5 58.5t55.5 17.5q14 0 28 -4q41 -11 58.5 -41t17.5 -56q0 -14 -50 -198q-11 -41 -41.5 -59t-56.5 -18z" />
    <glyph glyph-name="Ucircumflex" unicode="&#xdb;" horiz-adv-x="901" 
d="M323 0q-88 0 -166 46q-74 45 -115.5 119t-41.5 158v1007q0 42 30 72t72 30q41 0 71.5 -30t30.5 -72v-1007q0 -49 35 -84t84 -35t84 35t35 84v1007q0 24 11 45q32 57 91 57q41 0 71.5 -30.5t30.5 -71.5v-1015q-9 -174 -156 -269q-78 -46 -167 -46zM601 1536h-5
q-21 0 -41 8l-241 137l-240 -137q-21 -8 -41 -8q-65 1 -93 63q-8 19 -8 39q0 62 63 94l317 162l322 -161q62 -33 62 -95q0 -20 -7 -39q-26 -57 -88 -63z" />
    <glyph glyph-name="Udieresis" unicode="&#xdc;" horiz-adv-x="851" 
d="M323 0q-88 0 -166 46q-74 45 -115.5 119t-41.5 158v1007q0 42 30 72t72 30q41 0 71.5 -30t30.5 -72v-1007q0 -49 35 -84t84 -35t84 35t35 84v1007q0 24 11 45q32 57 91 57q41 0 71.5 -30.5t30.5 -71.5v-1015q-9 -174 -156 -269q-78 -46 -167 -46zM172 1610q-42 0 -72 30
t-30 72v107q0 42 30 72t72 30t72 -30t30 -72v-107q0 -42 -30 -72t-72 -30zM475 1610q-43 0 -72.5 30t-29.5 72v107q0 42 29.5 72t72.5 30q42 0 72 -30t30 -72v-107q0 -42 -30 -72t-72 -30z" />
    <glyph glyph-name="Yacute" unicode="&#xdd;" horiz-adv-x="918" 
d="M355 0q-42 0 -72 30t-30 72v594l-245 596q-8 18 -8 39q0 62 63 94q19 8 39 8q62 0 94 -63l159 -386l159 386q32 63 94 63q20 0 39 -8q63 -32 63 -94q0 -21 -8 -39l-245 -596v-594q0 -42 -30 -72t-72 -30zM350 1528q-13 0 -27 4q-40 11 -58 41.5t-18 56.5q0 13 50 198
q11 41 41.5 58.5t55.5 17.5q14 0 28 -4q41 -11 58.5 -41t17.5 -56q0 -14 -50 -198q-11 -41 -41.5 -59t-56.5 -18z" />
    <glyph glyph-name="agrave" unicode="&#xe0;" 
d="M508 0q-51 0 -83 44q-54 -44 -127 -44q-69 0 -138 37q-74 41 -117 113t-43 155v122q0 86 44 158t122 113q66 33 139 33q47 0 100 -22v37q0 40 -30 70t-70 30h-98q-42 0 -72 30t-30 73q0 40 30 72q32 30 72 30h98q79 0 151 -41t112.5 -112.5t40.5 -151.5v-644
q0 -41 -29 -70.5t-72 -31.5zM305 204q41 0 70.5 29.5t29.5 71.5v122q0 40 -29 71q-31 29 -71 29q-42 0 -71.5 -29.5t-29.5 -70.5v-122q0 -42 29.5 -71.5t71.5 -29.5zM335 1138q-26 0 -56.5 18t-41.5 59q-50 184 -50 198q0 26 17.5 56t58.5 41q14 4 28 4q25 0 55.5 -17.5
t41.5 -58.5q50 -185 50 -198q0 -26 -18 -56.5t-58 -41.5q-14 -4 -27 -4z" />
    <glyph glyph-name="aacute" unicode="&#xe1;" 
d="M508 0q-51 0 -83 44q-54 -44 -127 -44q-69 0 -138 37q-74 41 -117 113t-43 155v122q0 86 44 158t122 113q66 33 139 33q47 0 100 -22v37q0 40 -30 70t-70 30h-98q-42 0 -72 30t-30 73q0 40 30 72q32 30 72 30h98q79 0 151 -41t112.5 -112.5t40.5 -151.5v-644
q0 -41 -29 -70.5t-72 -31.5zM305 204q41 0 70.5 29.5t29.5 71.5v122q0 40 -29 71q-31 29 -71 29q-42 0 -71.5 -29.5t-29.5 -70.5v-122q0 -42 29.5 -71.5t71.5 -29.5zM330 1138q-14 0 -27 4q-40 11 -58 41.5t-18 56.5q0 13 50 198q11 41 41 58t56 17q14 0 28 -3
q41 -11 58.5 -41.5t17.5 -56.5q0 -13 -50 -197q-11 -41 -41.5 -59t-56.5 -18z" />
    <glyph glyph-name="acircumflex" unicode="&#xe2;" 
d="M508 0q-51 0 -83 44q-54 -44 -127 -44q-69 0 -138 37q-74 41 -117 113t-43 155v122q0 86 44 158t122 113q66 33 139 33q47 0 100 -22v37q0 40 -30 70t-70 30h-98q-42 0 -72 30t-30 73q0 40 30 72q32 30 72 30h98q79 0 151 -41t112.5 -112.5t40.5 -151.5v-644
q0 -41 -29 -70.5t-72 -31.5zM305 204q41 0 70.5 29.5t29.5 71.5v122q0 40 -29 71q-31 29 -71 29q-42 0 -71.5 -29.5t-29.5 -70.5v-122q0 -42 29.5 -71.5t71.5 -29.5zM601 1138h-5q-21 0 -41 8l-241 137l-240 -137q-21 -8 -41 -8q-65 1 -93 63q-8 19 -8 39q0 62 63 94
l317 162l322 -161q62 -33 62 -95q0 -20 -7 -39q-26 -57 -88 -63z" />
    <glyph glyph-name="atilde" unicode="&#xe3;" 
d="M508 0q-51 0 -83 44q-54 -44 -127 -44q-69 0 -138 37q-74 41 -117 113t-43 155v122q0 86 44 158t122 113q66 33 139 33q47 0 100 -22v37q0 40 -30 70t-70 30h-98q-42 0 -72 30t-30 73q0 40 30 72q32 30 72 30h98q79 0 151 -41t112.5 -112.5t40.5 -151.5v-644
q0 -41 -29 -70.5t-72 -31.5zM305 204q41 0 70.5 29.5t29.5 71.5v122q0 40 -29 71q-31 29 -71 29q-42 0 -71.5 -29.5t-29.5 -70.5v-122q0 -42 29.5 -71.5t71.5 -29.5zM450 1138q-30 0 -61 8l-101 31q-69 23 -91 23q-31 0 -74 -22q-19 -9 -40 -9q-46 0 -76 40q-2 2 -4 6
q-12 22 -12 45q0 12 6.5 36t38.5 44l63 36q49 24 101 24q34 0 67 -10l44 -13q44 -13 88 -28q29 -12 58 -12q16 0 32 6t31 14q12 7 25.5 12t29.5 5q42 0 71 -34q21 -26 21 -58q0 -49 -47 -80l-21 -12q-74 -52 -149 -52z" />
    <glyph glyph-name="adieresis" unicode="&#xe4;" 
d="M508 0q-51 0 -83 44q-54 -44 -127 -44q-69 0 -138 37q-74 41 -117 113t-43 155v122q0 86 44 158t122 113q66 33 139 33q47 0 100 -22v37q0 40 -30 70t-70 30h-98q-42 0 -72 30t-30 73q0 40 30 72q32 30 72 30h98q79 0 151 -41t112.5 -112.5t40.5 -151.5v-644
q0 -41 -29 -70.5t-72 -31.5zM305 204q41 0 70.5 29.5t29.5 71.5v122q0 40 -29 71q-31 29 -71 29q-42 0 -71.5 -29.5t-29.5 -70.5v-122q0 -42 29.5 -71.5t71.5 -29.5zM172 1138q-42 0 -72 30t-30 72v107q0 42 30 72t72 30t72 -30t30 -72v-107q0 -42 -30 -72t-72 -30z
M475 1138q-43 0 -72.5 30t-29.5 72v107q0 42 29.5 72t72.5 30q42 0 72 -30t30 -72v-107q0 -42 -30 -72t-72 -30z" />
    <glyph glyph-name="aring" unicode="&#xe5;" 
d="M508 0q-51 0 -83 44q-54 -44 -127 -44q-69 0 -138 37q-74 41 -117 113t-43 155v122q0 86 44 158t122 113q66 33 139 33q47 0 100 -22v37q0 40 -30 70t-70 30h-98q-42 0 -72 30t-30 73q0 40 30 72q32 30 72 30h98q79 0 151 -41t112.5 -112.5t40.5 -151.5v-644
q0 -41 -29 -70.5t-72 -31.5zM305 204q41 0 70.5 29.5t29.5 71.5v122q0 40 -29 71q-31 29 -71 29q-42 0 -71.5 -29.5t-29.5 -70.5v-122q0 -42 29.5 -71.5t71.5 -29.5zM325 1110h-17q-82 0 -140 61q-55 62 -55 148q0 84 54 147q58 61 141 61h17q84 0 139.5 -59.5t55.5 -148.5
q0 -85 -53 -147l-2 -2q-58 -60 -140 -60zM325 1255q23 0 36.5 17.5t13.5 46.5q0 23 -11 43t-39 20h-17q-23 0 -36.5 -17.5t-13.5 -45.5q0 -23 11.5 -43.5t38.5 -20.5h17z" />
    <glyph glyph-name="ccedilla" unicode="&#xe7;" horiz-adv-x="713" 
d="M390 0q-17 -67 -35 -137q-11 -43 -48 -65q-24 -14 -49 -14q-61 0 -90 53q-15 26 -15 53q0 5 33 135q-17 7 -32 16q-71 41 -113 112q-41 72 -41 151v441q0 124 90.5 214.5t214.5 90.5h128q49 0 74 -32t25 -70t-25 -70t-74 -32h-128q-42 0 -71.5 -29.5t-29.5 -71.5v-441
q0 -41 29.5 -70.5t71.5 -29.5h128q33 0 60.5 -21t37.5 -55q3 -14 3 -27q0 -40 -29 -72q-31 -29 -72 -29h-43z" />
    <glyph glyph-name="egrave" unicode="&#xe8;" horiz-adv-x="802" 
d="M477 0h-172q-83 0 -153.5 41t-112.5 114l-1 2q-38 67 -38 148v435q0 128 89.5 219t215.5 91h6q122 -4 209 -89q89 -93 89 -215v-163q0 -107 -75.5 -182.5t-182.5 -75.5h-147v-20q0 -42 29.5 -71.5t71.5 -29.5h172q30 0 55 -16q47 -31 47 -86q0 -41 -30.5 -71.5
t-71.5 -30.5zM333 529q30 0 51 21t21 51v145q0 40 -30 70t-71 30q-42 -1 -71 -31t-29 -73v-213h129zM335 1138q-26 0 -56.5 18t-41.5 59q-50 184 -50 198q0 26 17.5 56t58.5 41q14 4 28 4q25 0 55.5 -17.5t41.5 -58.5q50 -185 50 -198q0 -26 -18 -56.5t-58 -41.5
q-14 -4 -27 -4z" />
    <glyph glyph-name="eacute" unicode="&#xe9;" horiz-adv-x="802" 
d="M477 0h-172q-83 0 -153.5 41t-112.5 114l-1 2q-38 67 -38 148v435q0 128 89.5 219t215.5 91h6q122 -4 209 -89q89 -93 89 -215v-163q0 -107 -75.5 -182.5t-182.5 -75.5h-147v-20q0 -42 29.5 -71.5t71.5 -29.5h172q30 0 55 -16q47 -31 47 -86q0 -41 -30.5 -71.5
t-71.5 -30.5zM333 529q30 0 51 21t21 51v145q0 40 -30 70t-71 30q-42 -1 -71 -31t-29 -73v-213h129zM330 1138q-14 0 -27 4q-40 11 -58 41.5t-18 56.5q0 13 50 198q11 41 41 58t56 17q14 0 28 -3q41 -11 58.5 -41.5t17.5 -56.5q0 -13 -50 -197q-11 -41 -41.5 -59t-56.5 -18z
" />
    <glyph glyph-name="ecircumflex" unicode="&#xea;" horiz-adv-x="802" 
d="M477 0h-172q-83 0 -153.5 41t-112.5 114l-1 2q-38 67 -38 148v435q0 128 89.5 219t215.5 91h6q122 -4 209 -89q89 -93 89 -215v-163q0 -107 -75.5 -182.5t-182.5 -75.5h-147v-20q0 -42 29.5 -71.5t71.5 -29.5h172q30 0 55 -16q47 -31 47 -86q0 -41 -30.5 -71.5
t-71.5 -30.5zM333 529q30 0 51 21t21 51v145q0 40 -30 70t-71 30q-42 -1 -71 -31t-29 -73v-213h129zM601 1138h-5q-21 0 -41 8l-241 137l-240 -137q-21 -8 -41 -8q-65 1 -93 63q-8 19 -8 39q0 62 63 94l317 162l322 -161q62 -33 62 -95q0 -20 -7 -39q-26 -57 -88 -63z" />
    <glyph glyph-name="edieresis" unicode="&#xeb;" 
d="M477 0h-172q-83 0 -153.5 41t-112.5 114l-1 2q-38 67 -38 148v435q0 128 89.5 219t215.5 91h6q122 -4 209 -89q89 -93 89 -215v-163q0 -107 -75.5 -182.5t-182.5 -75.5h-147v-20q0 -42 29.5 -71.5t71.5 -29.5h172q30 0 55 -16q47 -31 47 -86q0 -41 -30.5 -71.5
t-71.5 -30.5zM333 529q30 0 51 21t21 51v145q0 40 -30 70t-71 30q-42 -1 -71 -31t-29 -73v-213h129zM145 1171q-42 0 -72 30t-30 72v107q0 42 30 72t72 30t72 -30t30 -72v-107q0 -42 -30 -72t-72 -30zM448 1171q-43 0 -72.5 30t-29.5 72v107q0 42 29.5 72t72.5 30
q42 0 72 -30t30 -72v-107q0 -42 -30 -72t-72 -30z" />
    <glyph glyph-name="igrave" unicode="&#xec;" horiz-adv-x="392" 
d="M102 0q-42 0 -72 30t-30 72v846q0 43 30 72.5t72 29.5t72 -29.5t30 -72.5v-846q0 -42 -30 -72t-72 -30zM85 1138q-27 0 -57 18t-41 59q-50 184 -50 198q0 26 17.5 56t58.5 41q14 4 27 4q26 0 56.5 -17.5t41.5 -58.5q50 -185 50 -198q0 -26 -18 -56.5t-58 -41.5
q-14 -4 -27 -4z" />
    <glyph glyph-name="iacute" unicode="&#xed;" horiz-adv-x="466" 
d="M102 0q-42 0 -72 30t-30 72v846q0 43 30 72.5t72 29.5t72 -29.5t30 -72.5v-846q0 -42 -30 -72t-72 -30zM100 1138q-14 0 -27 4q-40 11 -58 41.5t-18 56.5q0 13 50 198q11 41 41 58t56 17q14 0 28 -3q41 -11 58.5 -41.5t17.5 -56.5q0 -13 -50 -197q-11 -41 -41.5 -59
t-56.5 -18z" />
    <glyph glyph-name="icircumflex" unicode="&#xee;" horiz-adv-x="678" 
d="M102 0q-42 0 -72 30t-30 72v846q0 43 30 72.5t72 29.5t72 -29.5t30 -72.5v-846q0 -42 -30 -72t-72 -30zM391 1138h-5q-21 0 -41 8l-241 137l-240 -137q-21 -8 -41 -8q-65 1 -93 63q-8 19 -8 39q0 62 63 94l317 162l322 -161q62 -33 62 -95q0 -20 -7 -39q-26 -57 -88 -63z
" />
    <glyph glyph-name="idieresis" unicode="&#xef;" horiz-adv-x="511" 
d="M102 0q-42 0 -72 30t-30 72v846q0 43 30 72.5t72 29.5t72 -29.5t30 -72.5v-846q0 -42 -30 -72t-72 -30zM-65 1171q-42 0 -72 30t-30 72v107q0 42 30 72t72 30t72 -30t30 -72v-107q0 -42 -30 -72t-72 -30zM238 1171q-43 0 -72.5 30t-29.5 72v107q0 42 29.5 72t72.5 30
q42 0 72 -30t30 -72v-107q0 -42 -30 -72t-72 -30z" />
    <glyph glyph-name="ntilde" unicode="&#xf1;" 
d="M507 0q-41 0 -72 30q-11 11 -19 25v1q-11 22 -11 46v644q0 41 -29.5 70.5t-70.5 29.5q-42 0 -71.5 -29.5t-29.5 -70.5v-644q0 -28 -14 -53q-34 -49 -88 -49q-41 0 -71.5 30.5t-30.5 71.5v846q0 43 30 72.5t72 29.5q20 0 43.5 -11.5t40.5 -31.5q56 43 119 43q81 0 164 -47
v-1q66 -42 103 -110t37 -146v-644q0 -42 -30 -72t-72 -30zM410 1168q-30 0 -61 8l-101 31q-69 23 -91 23q-31 0 -74 -22q-19 -9 -40 -9q-46 0 -76 40q-2 2 -4 6q-12 22 -12 45q0 12 6.5 36t38.5 44l63 36q49 24 101 24q34 0 67 -10l44 -13q44 -13 88 -28q29 -12 58 -12
q16 0 32 6t31 14q12 7 25.5 12t29.5 5q42 0 71 -34q21 -26 21 -58q0 -49 -47 -80l-21 -12q-74 -52 -149 -52z" />
    <glyph glyph-name="ograve" unicode="&#xf2;" 
d="M305 0q-126 0 -215.5 89.5t-89.5 215.5v441q0 126 89.5 215t215.5 89q122 0 215 -89q89 -93 89 -215v-441q0 -126 -89 -215.5t-215 -89.5zM305 204q41 0 70.5 29.5t29.5 71.5v441q0 40 -30 70t-70 30q-42 0 -71.5 -29.5t-29.5 -70.5v-441q0 -42 29.5 -71.5t71.5 -29.5z
M315 1138q-26 0 -56.5 18t-41.5 59q-50 184 -50 198q0 26 17.5 56t58.5 41q14 4 28 4q25 0 55.5 -17.5t41.5 -58.5q50 -185 50 -198q0 -26 -18 -56.5t-58 -41.5q-14 -4 -27 -4z" />
    <glyph glyph-name="oacute" unicode="&#xf3;" 
d="M305 0q-126 0 -215.5 89.5t-89.5 215.5v441q0 126 89.5 215t215.5 89q122 0 215 -89q89 -93 89 -215v-441q0 -126 -89 -215.5t-215 -89.5zM305 204q41 0 70.5 29.5t29.5 71.5v441q0 40 -30 70t-70 30q-42 0 -71.5 -29.5t-29.5 -70.5v-441q0 -42 29.5 -71.5t71.5 -29.5z
M310 1138q-14 0 -27 4q-40 11 -58 41.5t-18 56.5q0 13 50 198q11 41 41 58t56 17q14 0 28 -3q41 -11 58.5 -41.5t17.5 -56.5q0 -13 -50 -197q-11 -41 -41.5 -59t-56.5 -18z" />
    <glyph glyph-name="ocircumflex" unicode="&#xf4;" 
d="M305 0q-126 0 -215.5 89.5t-89.5 215.5v441q0 126 89.5 215t215.5 89q122 0 215 -89q89 -93 89 -215v-441q0 -126 -89 -215.5t-215 -89.5zM305 204q41 0 70.5 29.5t29.5 71.5v441q0 40 -30 70t-70 30q-42 0 -71.5 -29.5t-29.5 -70.5v-441q0 -42 29.5 -71.5t71.5 -29.5z
M581 1138h-5q-21 0 -41 8l-241 137l-240 -137q-21 -8 -41 -8q-65 1 -93 63q-8 19 -8 39q0 62 63 94l317 162l322 -161q62 -33 62 -95q0 -20 -7 -39q-26 -57 -88 -63z" />
    <glyph glyph-name="otilde" unicode="&#xf5;" 
d="M305 0q-126 0 -215.5 89.5t-89.5 215.5v441q0 126 89.5 215t215.5 89q122 0 215 -89q89 -93 89 -215v-441q0 -126 -89 -215.5t-215 -89.5zM305 204q41 0 70.5 29.5t29.5 71.5v441q0 40 -30 70t-70 30q-42 0 -71.5 -29.5t-29.5 -70.5v-441q0 -42 29.5 -71.5t71.5 -29.5z
M430 1168q-30 0 -61 8l-101 31q-69 23 -91 23q-31 0 -74 -22q-19 -9 -40 -9q-46 0 -76 40q-2 2 -4 6q-12 22 -12 45q0 12 6.5 36t38.5 44l63 36q49 24 101 24q34 0 67 -10l44 -13q44 -13 88 -28q29 -12 58 -12q16 0 32 6t31 14q12 7 25.5 12t29.5 5q42 0 71 -34
q21 -26 21 -58q0 -49 -47 -80l-21 -12q-74 -52 -149 -52z" />
    <glyph glyph-name="odieresis" unicode="&#xf6;" 
d="M305 0q-126 0 -215.5 89.5t-89.5 215.5v441q0 126 89.5 215t215.5 89q122 0 215 -89q89 -93 89 -215v-441q0 -126 -89 -215.5t-215 -89.5zM305 204q41 0 70.5 29.5t29.5 71.5v441q0 40 -30 70t-70 30q-42 0 -71.5 -29.5t-29.5 -70.5v-441q0 -42 29.5 -71.5t71.5 -29.5z
M155 1171q-42 0 -72 30t-30 72v107q0 42 30 72t72 30t72 -30t30 -72v-107q0 -42 -30 -72t-72 -30zM458 1171q-43 0 -72.5 30t-29.5 72v107q0 42 29.5 72t72.5 30q42 0 72 -30t30 -72v-107q0 -42 -30 -72t-72 -30z" />
    <glyph glyph-name="oslash" unicode="&#xf8;" 
d="M240 228q27 -24 65 -24q41 0 70.5 29.5t29.5 71.5v233zM204 544l153 287q-24 15 -52 15q-42 0 -71.5 -29.5t-29.5 -70.5v-202zM152 40q-4 -5 -9 -10q-30 -30 -72 -30t-72 30t-30 72l50 94q-19 51 -19 109v441q0 126 89.5 215t215.5 89q75 0 140 -34q2 2 4 5q30 29 72 29
t72 -29.5t30 -72.5l-41 -77q27 -58 27 -125v-441q0 -126 -89 -215.5t-215 -89.5q-85 0 -153 40z" />
    <glyph glyph-name="ugrave" unicode="&#xf9;" 
d="M507 0q-20 0 -43.5 11.5t-40.5 32.5q-55 -44 -118 -44q-81 0 -165 48q-65 43 -102.5 111t-37.5 146v643q0 43 30 72.5t72 29.5q41 0 72 -29q11 -12 19 -26v-1q11 -22 11 -46v-643q0 -42 29.5 -71.5t71.5 -29.5q41 0 70.5 29.5t29.5 71.5v643q0 28 15 53q33 49 87 49
q41 0 71.5 -30.5t30.5 -71.5v-846q0 -42 -30 -72t-72 -30zM315 1138q-26 0 -56.5 18t-41.5 59q-50 184 -50 198q0 26 17.5 56t58.5 41q14 4 28 4q25 0 55.5 -17.5t41.5 -58.5q50 -185 50 -198q0 -26 -18 -56.5t-58 -41.5q-14 -4 -27 -4z" />
    <glyph glyph-name="uacute" unicode="&#xfa;" 
d="M507 0q-20 0 -43.5 11.5t-40.5 32.5q-55 -44 -118 -44q-81 0 -165 48q-65 43 -102.5 111t-37.5 146v643q0 43 30 72.5t72 29.5q41 0 72 -29q11 -12 19 -26v-1q11 -22 11 -46v-643q0 -42 29.5 -71.5t71.5 -29.5q41 0 70.5 29.5t29.5 71.5v643q0 28 15 53q33 49 87 49
q41 0 71.5 -30.5t30.5 -71.5v-846q0 -42 -30 -72t-72 -30zM310 1138q-14 0 -27 4q-40 11 -58 41.5t-18 56.5q0 13 50 198q11 41 41 58t56 17q14 0 28 -3q41 -11 58.5 -41.5t17.5 -56.5q0 -13 -50 -197q-11 -41 -41.5 -59t-56.5 -18z" />
    <glyph glyph-name="ucircumflex" unicode="&#xfb;" 
d="M507 0q-20 0 -43.5 11.5t-40.5 32.5q-55 -44 -118 -44q-81 0 -165 48q-65 43 -102.5 111t-37.5 146v643q0 43 30 72.5t72 29.5q41 0 72 -29q11 -12 19 -26v-1q11 -22 11 -46v-643q0 -42 29.5 -71.5t71.5 -29.5q41 0 70.5 29.5t29.5 71.5v643q0 28 15 53q33 49 87 49
q41 0 71.5 -30.5t30.5 -71.5v-846q0 -42 -30 -72t-72 -30zM581 1138h-5q-21 0 -41 8l-241 137l-240 -137q-21 -8 -41 -8q-65 1 -93 63q-8 19 -8 39q0 62 63 94l317 162l322 -161q62 -33 62 -95q0 -20 -7 -39q-26 -57 -88 -63z" />
    <glyph glyph-name="udieresis" unicode="&#xfc;" 
d="M507 0q-20 0 -43.5 11.5t-40.5 32.5q-55 -44 -118 -44q-81 0 -165 48q-65 43 -102.5 111t-37.5 146v643q0 43 30 72.5t72 29.5q41 0 72 -29q11 -12 19 -26v-1q11 -22 11 -46v-643q0 -42 29.5 -71.5t71.5 -29.5q41 0 70.5 29.5t29.5 71.5v643q0 28 15 53q33 49 87 49
q41 0 71.5 -30.5t30.5 -71.5v-846q0 -42 -30 -72t-72 -30zM155 1171q-42 0 -72 30t-30 72v107q0 42 30 72t72 30t72 -30t30 -72v-107q0 -42 -30 -72t-72 -30zM458 1171q-43 0 -72.5 30t-29.5 72v107q0 42 29.5 72t72.5 30q42 0 72 -30t30 -72v-107q0 -42 -30 -72t-72 -30z
" />
    <glyph glyph-name="yacute" unicode="&#xfd;" 
d="M295 -387h-128q-35 0 -61.5 21.5t-35.5 57.5q-2 13 -2 26q0 58 55 89q21 10 44 10h123q49 2 82 36t33 83v90q-51 -31 -100 -31q-124 0 -216 89q-89 93 -89 215v644q0 42 30 72t72 30q41 0 71.5 -30t30.5 -72v-644q0 -40 30 -71q31 -29 71 -29q41 0 70.5 29.5t29.5 70.5
v644q0 28 15 53q33 49 87 49q41 0 71.5 -30.5t30.5 -71.5v-1007q0 -83 -41 -158q-47 -83 -131 -128q-67 -35 -142 -37zM310 1138q-14 0 -27 4q-40 11 -58 41.5t-18 56.5q0 13 50 198q11 41 41 58t56 17q14 0 28 -3q41 -11 58.5 -41.5t17.5 -56.5q0 -13 -50 -197
q-11 -41 -41.5 -59t-56.5 -18z" />
    <glyph glyph-name="ydieresis" unicode="&#xff;" 
d="M295 -387h-128q-35 0 -61.5 21.5t-35.5 57.5q-2 13 -2 26q0 58 55 89q21 10 44 10h123q49 2 82 36t33 83v90q-51 -31 -100 -31q-124 0 -216 89q-89 93 -89 215v644q0 42 30 72t72 30q41 0 71.5 -30t30.5 -72v-644q0 -40 30 -71q31 -29 71 -29q41 0 70.5 29.5t29.5 70.5
v644q0 28 15 53q33 49 87 49q41 0 71.5 -30.5t30.5 -71.5v-1007q0 -83 -41 -158q-47 -83 -131 -128q-67 -35 -142 -37zM155 1171q-42 0 -72 30t-30 72v107q0 42 30 72t72 30t72 -30t30 -72v-107q0 -42 -30 -72t-72 -30zM458 1171q-43 0 -72.5 30t-29.5 72v107q0 42 29.5 72
t72.5 30q42 0 72 -30t30 -72v-107q0 -42 -30 -72t-72 -30z" />
    <glyph glyph-name="gravecomb" unicode="&#x300;" horiz-adv-x="454" 
d="M162 1313q-60 0 -93 59l-61 133q-6 16 -7 37l-2 20v107q0 42 30 72t72 30q43 0 72.5 -30t29.5 -72v-100l52 -112q9 -20 9 -41q0 -18 -7 -37q-15 -39 -53 -57q-20 -9 -42 -9z" />
    <glyph glyph-name="acutecomb" unicode="&#x301;" horiz-adv-x="394" 
d="M41 1313q-22 0 -42 9q-38 18 -53 57q-7 19 -7 37q0 21 9 41l52 112v100q0 42 29.5 72t72.5 30q42 0 72 -30t30 -72v-107l-1 -20q-2 -21 -8 -37l-61 -133q-33 -59 -93 -59z" />
    <glyph glyph-name="u0401" unicode="&#x401;" horiz-adv-x="707" 
d="M405 0h-313q-40 5 -66 33.5t-26 68.5v1228q0 40 26 68.5t66 33.5h313q42 0 72 -30t30 -72t-30 -72t-72 -30h-201v-178h154q42 0 72 -29.5t30 -72.5q0 -42 -30 -72t-72 -30h-154v-642h201q42 0 72 -30t30 -72t-30 -72t-72 -30zM102 1610q-42 0 -72 30t-30 72v107
q0 42 30 72t72 30t72 -30t30 -72v-107q0 -42 -30 -72t-72 -30zM405 1610q-43 0 -72.5 30t-29.5 72v107q0 42 29.5 72t72.5 30q42 0 72 -30t30 -72v-107q0 -42 -30 -72t-72 -30z" />
    <glyph glyph-name="u0410" unicode="&#x410;" horiz-adv-x="933" 
d="M42 0q-13 0 -26 4q-40 11 -62 47q-14 24 -14 50q0 14 326 1252q16 59 74 76q13 4 26 4q49 0 83 -43l6 -12q7 -12 11 -24q326 -1237 326 -1251q0 -27 -14 -52q-29 -50 -88 -50q-35 0 -62 21t-37 55l-61 233h-327l-62 -233q-10 -35 -37 -56t-62 -21zM476 515l-110 415
l-110 -415h220z" />
    <glyph glyph-name="u0411" unicode="&#x411;" horiz-adv-x="851" 
d="M323 0h-221q-42 0 -72 30t-30 72v1228q0 40 26 68.5t66 33.5h313q42 0 72 -30t30 -72t-30 -72t-72 -30h-201v-178h119q88 0 163 -43.5t119 -120.5q41 -75 41 -159v-404q0 -83 -42.5 -159t-117.5 -120t-163 -44zM323 204q49 0 84 35t35 84v404q0 49 -35 84t-84 35h-119
v-642h119z" />
    <glyph glyph-name="u0412" unicode="&#x412;" horiz-adv-x="865" 
d="M328 0h-221q-43 0 -72.5 29.5t-29.5 72.5v1129q-75 25 -75 102v4q4 41 34 68t71 27h218q84 0 160 -43t122 -122q30 -57 30 -131q0 -4 -1.5 -45.5t-28.5 -96.5q-6 -13 -15 -26q131 -101 131 -260v-385q0 -84 -43 -160t-118 -119.5t-162 -43.5zM267 1033q39 6 57 35t18 62
t-18 62t-57 35h-58v-194h58zM328 204q49 0 84 35t35 84v385q0 49 -35 84t-84 35h-119v-623h119z" />
    <glyph glyph-name="u0413" unicode="&#x413;" horiz-adv-x="648" 
d="M102 0q-42 0 -72 30t-30 72v1228q0 40 26 68.5t66 33.5h313q42 0 72 -30t30 -72t-30 -72t-72 -30h-201v-1126q0 -23 -10 -45q-33 -57 -92 -57z" />
    <glyph glyph-name="u0414" unicode="&#x414;" horiz-adv-x="1056" 
d="M789 -247q-42 0 -72 30t-30 72v147h-483v-147q0 -42 -30 -72t-72 -30t-72 30t-30 72v250q0 42 30 72t72 30h46v894q0 138 97.5 236t235.5 98h220q42 0 72 -30t30 -73q0 -69 -73 -97v-1028h59q42 0 72 -30t30 -72v-250q0 -42 -30 -72t-72 -30zM526 207v1023h-23
q-62 0 -106.5 -44t-44.5 -107v-872h174z" />
    <glyph glyph-name="u0415" unicode="&#x415;" horiz-adv-x="707" 
d="M405 0h-313q-40 5 -66 33.5t-26 68.5v1228q0 40 26 68.5t66 33.5h313q42 0 72 -30t30 -72t-30 -72t-72 -30h-201v-178h154q42 0 72 -29.5t30 -72.5q0 -42 -30 -72t-72 -30h-154v-642h201q42 0 72 -30t30 -72t-30 -72t-72 -30z" />
    <glyph glyph-name="u0416" unicode="&#x416;" horiz-adv-x="1187" 
d="M973 0q-34 0 -61.5 21t-36.5 55l-178 659h-55v-632q0 -42 -30 -72t-72 -30t-72 30t-30 72v632h-60l-177 -659q-10 -34 -37 -55t-62 -21q-13 0 -27 4q-33 9 -54 36t-21 62q0 14 194 736q-129 479 -129 493q0 34 21 61.5t55 36.5q13 4 26 4q35 0 62 -21t37 -55l112 -418h60
v392q0 42 30 72t72 30t72 -30t30 -72v-392h55l112 418q10 34 37 55t62 21q13 0 27 -4q33 -9 54 -36.5t21 -61.5q0 -14 -129 -493q194 -722 194 -736q0 -35 -20.5 -62t-54.5 -36q-13 -4 -27 -4z" />
    <glyph glyph-name="u0417" unicode="&#x417;" horiz-adv-x="831" 
d="M323 0h-221q-42 0 -72 29.5t-30 72.5q0 59 57 91q21 11 45 11h221q49 0 84 35t35 84v404q0 49 -35 84t-84 35h-118q-25 0 -45 10q-58 34 -58 92q0 42 30 72t73 30q48 0 56 1h2q39 6 57 32t18 56q0 31 -18 56.5t-57 31.5q-8 1 -162 1q-23 0 -44 10q-55 31 -55 90
q0 11 2 24q9 36 35.5 58t62.5 22h147q83 0 159 -43t122 -122q30 -56 30 -120q0 -6 -1.5 -44.5t-27.5 -89.5q-7 -14 -15 -27q55 -41 89 -101q41 -75 41 -158v-404q0 -84 -42.5 -160t-117.5 -119.5t-163 -43.5z" />
    <glyph glyph-name="u0418" unicode="&#x418;" horiz-adv-x="851" 
d="M100 0q-17 0 -33 6q-2 0 -18.5 9t-32.5 30t-16 58v1228q0 42 30 72t72 30t72 -30t30 -72v-664l301 699q19 47 66 62q14 4 29 4q34 0 62 -21q40 -30 40 -85v-1223q0 -43 -30 -73t-72 -30t-72 30t-30 73v667l-297 -690q-16 -58 -72 -76q-14 -4 -29 -4z" />
    <glyph glyph-name="u0419" unicode="&#x419;" horiz-adv-x="851" 
d="M100 0q-17 0 -33 6q-2 0 -18.5 9t-32.5 30t-16 58v1228q0 42 30 72t72 30t72 -30t30 -72v-664l301 699q19 47 66 62q14 4 29 4q34 0 62 -21q40 -30 40 -85v-1223q0 -43 -30 -73t-72 -30t-72 30t-30 73v667l-297 -690q-16 -58 -72 -76q-14 -4 -29 -4zM435 1509h-167
q-43 0 -73 30t-30 72q0 41 31 71.5t72 30.5h167q42 0 72 -30t30 -72t-30 -72t-72 -30z" />
    <glyph glyph-name="u041A" unicode="&#x41a;" horiz-adv-x="899" 
d="M591 0q-35 0 -62 21t-37 55l-177 659h-111v-632q0 -42 -30 -72t-72 -30t-72 30t-30 72v1228q0 42 30 72t72 30t72 -30t30 -72v-392h111l112 418q10 34 37 55t62 21h63q41 0 71.5 -30.5t30.5 -71.5q0 -38 -24.5 -66.5t-62.5 -34.5l-105 -392q194 -722 194 -736
q0 -35 -21 -62t-54 -36q-14 -4 -27 -4z" />
    <glyph glyph-name="u041B" unicode="&#x41b;" horiz-adv-x="974" 
d="M571 0q-42 0 -72 30t-30 72v1126h-33l-306 -1152q-9 -34 -36.5 -55t-61.5 -21q-57 0 -89 51q-13 25 -13 51q0 13 3 27q330 1242 336 1253q34 50 88 50h297q41 0 72 -29q30 -32 30 -73q0 -37 -23.5 -64.5t-58.5 -35.5v-1128q0 -42 -30 -72t-73 -30z" />
    <glyph glyph-name="u041C" unicode="&#x41c;" horiz-adv-x="1068" 
d="M753 0q-42 0 -72 30t-30 72v642l-115 -317q-10 -32 -31 -63t-67 -37l-10 -1q-69 0 -102 85l-122 332v-641q0 -42 -30 -72t-72 -30t-72 30t-30 72v1228q0 42 30 72t72 30q41 0 72 -30q18 -22 27 -46l227 -628l230 637q11 31 37 49t58 18q41 0 72 -30.5t31 -71.5v-1228
q0 -42 -30 -72t-73 -30z" />
    <glyph glyph-name="u041D" unicode="&#x41d;" horiz-adv-x="851" 
d="M544 0q-42 0 -72 30t-30 72v708h-238v-708q0 -42 -30 -72t-72 -30t-72 30t-30 72v1228q0 42 30 72t72 30t72 -30t30 -72v-316h238v316q0 42 30 72t72 30q41 0 71.5 -30.5t30.5 -71.5v-1228q0 -42 -30 -72t-72 -30z" />
    <glyph glyph-name="u041E" unicode="&#x41e;" horiz-adv-x="851" 
d="M323 0q-134 0 -228.5 95t-94.5 228v786q0 134 94.5 228.5t228.5 94.5t228.5 -94.5t94.5 -228.5v-786q0 -133 -94.5 -228t-228.5 -95zM323 204q49 0 84 35t35 84v786q0 49 -35 84t-84 35t-84 -35t-35 -84v-786q0 -49 35 -84t84 -35z" />
    <glyph glyph-name="u041F" unicode="&#x41f;" horiz-adv-x="851" 
d="M544 0q-42 0 -72 30t-30 72v1126h-238v-1126q0 -42 -30 -72t-72 -30t-72 30t-30 72v1228q0 42 30 72t72 30h442q41 0 71.5 -30.5t30.5 -71.5v-1228q0 -42 -30 -72t-72 -30z" />
    <glyph glyph-name="u0420" unicode="&#x420;" horiz-adv-x="827" 
d="M112 0q-42 0 -72 30t-30 72v1128q-35 9 -57.5 36.5t-22.5 63.5q0 41 30.5 71.5t71.5 30.5h307q58 -1 112 -22q107 -42 164 -143q41 -75 41 -158v-404q0 -83 -42.5 -159t-118 -120t-162.5 -44h-119v-280q0 -41 -30.5 -71.5t-71.5 -30.5zM333 586q49 0 84 35t35 84v404
q0 49 -33 82.5t-83 36.5h-122v-642h119z" />
    <glyph glyph-name="u0421" unicode="&#x421;" horiz-adv-x="745" 
d="M442 0h-119q-80 0 -151 38t-116 103q-56 90 -56 182v786q0 83 41 158q47 83 131 128q67 35 143 37h127q52 0 83 -43q19 -27 19 -59q0 -58 -57 -92q-22 -10 -45 -10h-123q-49 -2 -82 -36t-33 -83v-786q0 -49 35 -84t84 -35h119q42 0 72 -30.5t30 -71.5q0 -11 -5 -28
q-10 -35 -37 -54.5t-60 -19.5z" />
    <glyph glyph-name="u0422" unicode="&#x422;" horiz-adv-x="776" 
d="M283 0q-42 0 -72 30t-30 72v1126h-119q-42 0 -72 30t-30 72t30 72t72 30h442q42 0 72 -30t30 -72t-30 -72t-72 -30h-119v-1126q0 -42 -30 -72t-72 -30z" />
    <glyph glyph-name="u0423" unicode="&#x423;" horiz-adv-x="851" 
d="M323 0h-221q-42 0 -72 30t-30 72q0 59 57 92q22 10 45 10h221q49 0 84 35t35 84v201q-57 -23 -119 -23q-83 0 -159 43t-120 118t-44 163v505q0 42 30 72t72 30q41 0 71.5 -30t30.5 -72v-505q0 -50 35 -84.5t84 -34.5t84 34.5t35 84.5v505q0 24 11 45q32 57 91 57
q41 0 71.5 -30.5t30.5 -71.5v-1015q-2 -86 -46 -158q-41 -69 -110 -111q-77 -46 -167 -46z" />
    <glyph glyph-name="u0424" unicode="&#x424;" horiz-adv-x="1156" 
d="M470 0q-42 0 -72 30t-30 72v168h-45q-87 0 -162 44t-120 121q-41 75 -41 158v404q0 84 42 159q22 40 56 73q95 92 243 92h27v9q0 57 55 91q22 11 46 11q58 0 93 -57q10 -21 10 -55h11q66 0 118 -11q131 -36 197 -153q42 -75 42 -159v-404q0 -83 -43 -159t-118 -120
t-163 -44h-44v-168q0 -41 -30.5 -71.5t-71.5 -30.5zM616 474q50 0 85 35t35 84v404q0 49 -33 83t-83 36h-48v-642h44zM368 474v642h-48q-50 -2 -83 -36t-33 -83v-404q0 -49 35 -84t84 -35h45z" />
    <glyph glyph-name="u0425" unicode="&#x425;" horiz-adv-x="916" 
d="M608 0q-62 0 -94 63l-159 385l-158 -385q-32 -63 -95 -63q-20 0 -38 8q-39 16 -56 55q-8 20 -8 39q0 20 8 39l237 576l-237 575q-8 21 -8 40q0 20 12 48t52 46q18 7 38 7q63 0 95 -63l158 -385l159 385q32 63 94 63q20 0 39 -7q39 -17 56 -56q7 -19 7 -39q0 -19 -7 -39
l-237 -575l237 -576q7 -19 7 -39q0 -19 -7 -39q-17 -39 -56 -55q-19 -8 -39 -8z" />
    <glyph glyph-name="u0426" unicode="&#x426;" horiz-adv-x="931" 
d="M689 -247q-42 0 -72 30t-30 72v147l-495 1q-40 5 -66 33.5t-26 67.5v1228q0 43 30 73t72 30q41 0 71.5 -31t30.5 -72v-1125h222v1125q0 43 30 73t72 30t72 -30t30 -73v-1125h59q43 0 72.5 -30t29.5 -72v-250q0 -42 -29.5 -72t-72.5 -30z" />
    <glyph glyph-name="u0427" unicode="&#x427;" horiz-adv-x="851" 
d="M544 0q-41 0 -71.5 30.5t-30.5 71.5v280h-119q-83 0 -158 41q-79 45 -124 124q-39 71 -41 153v630q0 42 30.5 72t71.5 30q10 0 19 -2q49 -10 73 -55q10 -21 10 -45v-625q0 -49 35 -84t84 -35h119v744q0 24 11 45q15 31 46 47q22 10 45 10q51 0 82 -41q20 -28 20 -61
v-1228q0 -42 -30 -72t-72 -30z" />
    <glyph glyph-name="u0428" unicode="&#x428;" horiz-adv-x="1108" 
d="M829 0h-727q-42 0 -72 30t-30 72v1228q0 42 30 72t72 30t72 -30t30 -72v-1126h160v1126q0 42 30 72t72 30t72 -30t30 -72v-1126h159v1126q0 42 30 72t72 30q43 0 72.5 -30t29.5 -72v-1228q0 -41 -30.5 -71.5t-71.5 -30.5z" />
    <glyph glyph-name="u0429" unicode="&#x429;" horiz-adv-x="1217" 
d="M991 -247q-42 0 -72 30t-30 72v147h-787q-42 0 -72 30t-30 72v1229q0 42 30 72t72 30t72 -30t30 -72v-1126h160v1126q0 42 30 72t72 30t72 -30t30 -72v-1126h160v1125q0 43 30 73t72 30t72 -30t30 -73v-1125h59q43 0 72.5 -30t29.5 -73v-249q0 -42 -29.5 -72t-72.5 -30z
" />
    <glyph glyph-name="u042A" unicode="&#x42a;" horiz-adv-x="953" 
d="M404 0h-232q-42 3 -69.5 32t-27.5 70v1126h-43q-41 0 -71.5 30.5t-30.5 71.5q0 42 30 72t72 30h145q41 0 72 -30q30 -31 30 -72v-280h119q87 0 162.5 -44t119.5 -121q41 -74 41 -158v-404q0 -83 -41 -158q-26 -47 -66 -82q-90 -80 -210 -83zM402 204q49 3 82 36.5
t33 82.5v404q0 49 -34 83.5t-85 35.5h-119v-642h123z" />
    <glyph glyph-name="u042B" unicode="&#x42b;" horiz-adv-x="1174" 
d="M329 0h-233q-41 3 -68.5 32t-27.5 70v1228q0 42 30 72t72 30q41 0 72 -30q30 -31 30 -72v-280h119q88 0 163 -43.5t119 -120.5q41 -75 41 -159v-404q0 -83 -41 -158q-26 -47 -66 -82q-90 -80 -210 -83zM327 204q49 3 82 36.5t33 82.5v404q0 49 -34 83.5t-85 35.5h-119
v-642h123zM876 0l-11 1q-38 4 -64.5 33.5t-26.5 67.5v1228q0 42 30 72t72 30q41 0 71.5 -30.5t30.5 -71.5v-1228q0 -46 -35 -77q-30 -25 -67 -25z" />
    <glyph glyph-name="u042C" unicode="&#x42c;" horiz-adv-x="851" 
d="M329 0h-233q-41 3 -68.5 32t-27.5 70v1228q0 42 30 72t72 30q41 0 72 -30q30 -31 30 -72v-280h119q88 0 163 -44t119 -121q41 -74 41 -158v-404q0 -83 -41 -158q-26 -47 -66 -82q-90 -80 -210 -83zM327 204q49 3 82 36.5t33 82.5v404q0 49 -34 83.5t-85 35.5h-119v-642
h123z" />
    <glyph glyph-name="u042D" unicode="&#x42d;" horiz-adv-x="745" 
d="M229 0q-140 0 -147 2q-36 8 -59 36t-23 64q0 58 57 92q22 10 45 10h122q50 2 83 36t33 83v486h-167q-42 0 -72 30t-30 72q0 41 30.5 71.5t71.5 30.5h167v96q0 49 -35 84t-84 35h-119q-43 0 -72.5 29.5t-29.5 70.5q0 22 10 45q32 59 92 59h119q80 0 154.5 -40t120.5 -114
q48 -79 48 -169v-786q0 -84 -42 -159q-47 -82 -130 -127q-67 -35 -143 -37z" />
    <glyph glyph-name="u042E" unicode="&#x42e;" horiz-adv-x="1203" 
d="M662 0q-134 0 -228.5 95t-94.5 228v487h-135v-708q0 -42 -30 -72t-72 -30t-72 30t-30 72v1228q0 42 30 72t72 30q41 0 72 -30q30 -31 30 -72v-316h135v95q0 134 94.5 228.5t228.5 94.5t228.5 -94.5t94.5 -228.5v-786q0 -133 -94.5 -228t-228.5 -95zM662 204q49 0 84 35
t35 84v786q0 49 -35 84t-84 35t-84 -35t-35 -84v-786q0 -49 35 -84t84 -35z" />
    <glyph glyph-name="u042F" unicode="&#x42f;" horiz-adv-x="941" 
d="M102 0q-20 0 -39 8q-38 16 -55 55q-8 20 -8 39q0 20 8 39l127 308q-53 40 -86 98q-41 75 -41 159v403q0 142 107 241q90 79 210 83h307q41 0 72 -30q30 -32 30 -72q0 -63 -63 -95l-17 -5v-1128q0 -43 -30 -72.5t-72 -29.5q-41 0 -72 29q-30 32 -30 73v279h-122l-131 -319
q-33 -63 -95 -63zM450 587v642h-122q-50 -3 -83 -37t-33 -83v-403q0 -47 34 -84q37 -35 85 -35h119z" />
    <glyph glyph-name="u0430" unicode="&#x430;" 
d="M508 0q-51 0 -83 44q-54 -44 -127 -44q-69 0 -138 37q-74 41 -117 113t-43 155v122q0 86 44 158t122 113q66 33 139 33q47 0 100 -22v37q0 40 -30 70t-70 30h-98q-42 0 -72 30t-30 73q0 40 30 72q32 30 72 30h98q79 0 151 -41t112.5 -112.5t40.5 -151.5v-644
q0 -41 -29 -70.5t-72 -31.5zM305 204q41 0 70.5 29.5t29.5 71.5v122q0 40 -29 71q-31 29 -71 29q-42 0 -71.5 -29.5t-29.5 -70.5v-122q0 -42 29.5 -71.5t71.5 -29.5z" />
    <glyph glyph-name="u0431" unicode="&#x431;" horiz-adv-x="812" 
d="M305 0q-126 0 -215.5 89.5t-89.5 215.5v804q0 83 41 158q47 83 131 128q67 35 143 37h127q40 0 71 -29.5t31 -72.5q0 -58 -57 -92q-22 -10 -45 -10h-122q-50 -2 -83 -36t-33 -83v-82q42 23 101 23q122 0 215 -89q89 -93 89 -215v-441q0 -126 -89 -215.5t-215 -89.5z
M305 204q41 0 70.5 29.5t29.5 71.5v441q0 40 -30 70t-70 30q-42 0 -71.5 -29.5t-29.5 -70.5v-441q0 -42 29.5 -71.5t71.5 -29.5z" />
    <glyph glyph-name="u0432" unicode="&#x432;" horiz-adv-x="812" 
d="M305 0q-126 0 -215.5 89.5t-89.5 215.5v898q0 79 40 129.5t101 75t125 24.5q50 0 100 -18.5t81 -48.5q67 -70 67 -162v-109q0 -30 -10.5 -51.5t-25.5 -36.5q56 -32 84.5 -78.5t37.5 -95.5t9 -86v-441q0 -126 -89 -215.5t-215 -89.5zM305 204q41 0 70.5 29.5t29.5 71.5
v441q0 40 -30 70t-70 30q-42 0 -71.5 -29.5t-29.5 -70.5v-441q0 -42 29.5 -71.5t71.5 -29.5zM204 1018q19 8 57 17q30 8 39 16.5t9 22.5v129q0 18 -15.5 27.5t-29.5 9.5q-6 0 -12 -2q-21 -6 -34.5 -23.5t-13.5 -39.5v-157z" />
    <glyph glyph-name="u0433" unicode="&#x433;" horiz-adv-x="812" 
d="M507 0h-202q-82 0 -152.5 41t-112.5 113q-40 71 -40 151v131q0 115 81 206q96 98 224 98h47q21 0 37 16t16 37q0 22 -15.5 37.5t-37.5 15.5h-149q-42 0 -72 30t-30 72q0 33 20 61q30 42 82 42h149q73 0 135.5 -39.5t95.5 -105.5q26 -54 26 -113q0 -103 -74.5 -180
t-182.5 -77h-47q-42 0 -71.5 -29.5t-29.5 -70.5v-131q0 -42 29.5 -71.5t71.5 -29.5h202q28 0 53 -14q49 -34 49 -88q0 -41 -30.5 -71.5t-71.5 -30.5z" />
    <glyph glyph-name="u0434" unicode="&#x434;" horiz-adv-x="812" 
d="M294 -387h-127q-50 0 -80 40l-13 20q-9 20 -9 42q0 58 57 92q22 10 45 10h123q49 3 82 36.5t33 82.5v82q-42 -23 -100 -23q-122 0 -216 89q-89 93 -89 215v442q0 126 89.5 215t215.5 89q61 0 117 -42l9 11q32 31 76 31q42 0 72 -30t30 -72v-1007q0 -83 -41 -158
q-47 -83 -131 -128q-67 -35 -143 -37zM305 199q41 0 70.5 29.5t29.5 70.5v442q0 41 -29.5 70.5t-70.5 29.5q-42 0 -71.5 -29.5t-29.5 -70.5v-442q0 -40 30 -71q31 -29 71 -29z" />
    <glyph glyph-name="u0435" unicode="&#x435;" horiz-adv-x="801" 
d="M477 0h-172q-83 0 -153.5 41t-112.5 114l-1 2q-38 67 -38 148v435q0 128 89.5 219t215.5 91h6q122 -4 209 -89q89 -93 89 -215v-163q0 -107 -75.5 -182.5t-182.5 -75.5h-147v-20q0 -42 29.5 -71.5t71.5 -29.5h172q30 0 55 -16q47 -31 47 -86q0 -41 -30.5 -71.5
t-71.5 -30.5zM333 529q30 0 51 21t21 51v145q0 40 -30 70t-71 30q-42 -1 -71 -31t-29 -73v-213h129z" />
    <glyph glyph-name="u0436" unicode="&#x436;" horiz-adv-x="1088" 
d="M875 0q-32 0 -58 18t-38 48l-174 470h-39v-434q0 -42 -30 -72t-73 -30q-42 0 -72 30t-30 72v434h-39l-174 -470q-12 -30 -38 -48t-58 -18q-18 0 -35 6q-40 15 -58 53q-9 21 -9 43q0 17 6 35l186 501l-102 275q-6 17 -6 35q0 32 18 58t48 38q18 6 36 6q32 0 58 -18t38 -48
l90 -244h39v208q0 42 30 72t72 30q43 0 73 -30t30 -72v-208h39l90 244q12 30 38 48t58 18q18 0 35 -6q31 -12 49 -38t18 -58q0 -18 -6 -35l-102 -275l186 -501q7 -18 7 -35q0 -22 -10 -43q-18 -38 -58 -53q-17 -6 -35 -6z" />
    <glyph glyph-name="u0437" unicode="&#x437;" 
d="M305 0h-203q-42 0 -72 30t-30 72q0 41 30 71.5t72 30.5h203q41 0 70.5 29.5t29.5 70.5v113q0 40 -29 71q-31 29 -71 29h-165q-49 0 -74 32.5t-25 70.5t25 69.5t74 31.5h147q21 0 37 16q16 26 16 56q0 22 -15.5 37.5t-37.5 15.5h-185q-40 0 -71 30q-30 32 -30 72
q0 41 29 72q31 30 72 30h195q129 -9 205 -127q41 -75 41 -148q0 -57 -24 -113l-10 -19q101 -97 101 -226v-113q0 -79 -41 -150.5t-111.5 -112.5t-152.5 -41z" />
    <glyph glyph-name="u0438" unicode="&#x438;" horiz-adv-x="812" 
d="M507 0q-20 0 -43.5 11.5t-40.5 32.5q-55 -44 -118 -44q-81 0 -165 48q-65 43 -102.5 111t-37.5 146v643q0 43 30 72.5t72 29.5q41 0 72 -29q11 -12 19 -26v-1q11 -22 11 -46v-643q0 -42 29.5 -71.5t71.5 -29.5q41 0 70.5 29.5t29.5 71.5v643q0 28 15 53q33 49 87 49
q41 0 71.5 -30.5t30.5 -71.5v-846q0 -42 -30 -72t-72 -30z" />
    <glyph glyph-name="u0439" unicode="&#x439;" horiz-adv-x="812" 
d="M507 0q-20 0 -43.5 11.5t-40.5 32.5q-55 -44 -118 -44q-81 0 -165 48q-65 43 -102.5 111t-37.5 146v643q0 43 30 72.5t72 29.5q41 0 72 -29q11 -12 19 -26v-1q11 -22 11 -46v-643q0 -42 29.5 -71.5t71.5 -29.5q41 0 70.5 29.5t29.5 71.5v643q0 28 15 53q33 49 87 49
q41 0 71.5 -30.5t30.5 -71.5v-846q0 -42 -30 -72t-72 -30zM381 1244h-167q-43 0 -73 30t-30 72q0 41 31 71.5t72 30.5h167q42 0 72 -30t30 -72t-30 -72t-72 -30z" />
    <glyph glyph-name="u043A" unicode="&#x43a;" horiz-adv-x="787" 
d="M541 0q-32 0 -58 18.5t-37 48.5l-175 469h-67v-434q0 -42 -30 -72t-72 -30t-72 30t-30 72v847q0 42 30 72t72 30q41 0 71.5 -30.5t30.5 -71.5v-208h67l91 243q12 30 38 48.5t58 18.5q18 0 35 -7q30 -11 48.5 -37.5t18.5 -57.5q0 -18 -7 -36l-102 -275l186 -500
q6 -18 6 -36q0 -21 -9 -42q-18 -38 -57 -53q-17 -7 -36 -7z" />
    <glyph glyph-name="u043B" unicode="&#x43b;" horiz-adv-x="825" 
d="M518 0q-51 0 -85 46q-17 24 -17 56v676l-259 -710q-32 -68 -97 -68q-17 0 -34 7q-66 30 -66 93q0 23 306 860q46 92 133 92h119q44 0 74 -30.5t30 -71.5v-848q0 -41 -30 -71.5t-74 -30.5z" />
    <glyph glyph-name="u043C" unicode="&#x43c;" horiz-adv-x="971" 
d="M659 0q-42 0 -72 30t-30 72v416l-102 -203q-10 -18 -25.5 -34t-48.5 -16t-49 16t-25 34l-103 203v-416q0 -42 -30 -72t-72 -30t-72 30t-30 72v849q1 29 16 53q31 46 87 46q60 0 90 -55l188 -406l186 404q31 57 92 57q23 0 44 -10q52 -25 58 -83v-855q0 -42 -29.5 -72
t-72.5 -30z" />
    <glyph glyph-name="u043D" unicode="&#x43d;" horiz-adv-x="812" 
d="M507 0q-42 0 -72 30t-30 72v434h-201v-434q0 -42 -30 -72t-72 -30t-72 30t-30 72v846q0 43 30 72.5t72 29.5t72 -29.5t30 -72.5v-208h201v208q0 43 30 72.5t72 29.5t72 -29.5t30 -72.5v-846q0 -42 -30 -72t-72 -30z" />
    <glyph glyph-name="u043E" unicode="&#x43e;" horiz-adv-x="812" 
d="M305 0q-126 0 -215.5 89.5t-89.5 215.5v441q0 126 89.5 215t215.5 89q122 0 215 -89q89 -93 89 -215v-441q0 -126 -89 -215.5t-215 -89.5zM305 204q41 0 70.5 29.5t29.5 71.5v441q0 40 -30 70t-70 30q-42 0 -71.5 -29.5t-29.5 -70.5v-441q0 -42 29.5 -71.5t71.5 -29.5z
" />
    <glyph glyph-name="u043F" unicode="&#x43f;" horiz-adv-x="812" 
d="M507 0q-42 0 -72 30t-30 72v744h-201v-744q0 -42 -30 -72t-72 -30t-72 30t-30 72v846q0 43 30 72.5t72 29.5h405q42 0 72 -29.5t30 -72.5v-846q0 -42 -30 -72t-72 -30z" />
    <glyph glyph-name="u0440" unicode="&#x440;" horiz-adv-x="812" 
d="M102 -387q-41 0 -71.5 30.5t-30.5 71.5v1228q0 41 30.5 71.5t71.5 30.5q21 0 45 -10.5t40 -31.5q52 42 118 42q81 0 151.5 -41t112.5 -113q40 -71 40 -150v-442q0 -126 -89 -215t-215 -89q-48 0 -101 27v-307q0 -42 -30 -72t-72 -30zM305 199q41 0 70.5 29.5t29.5 70.5
v442q0 41 -29.5 70.5t-70.5 29.5q-42 0 -71.5 -29.5t-29.5 -70.5v-442q0 -40 30 -70t71 -30z" />
    <glyph glyph-name="u0441" unicode="&#x441;" horiz-adv-x="712" 
d="M433 0h-128q-81 0 -151.5 41t-112.5 112q-41 72 -41 151v441q0 124 90.5 214.5t214.5 90.5h128q49 0 74 -32t25 -70t-25 -70t-74 -32h-128q-42 0 -71.5 -29.5t-29.5 -71.5v-441q0 -41 29.5 -70.5t71.5 -29.5h128q33 0 60.5 -21t37.5 -55q3 -14 3 -27q0 -40 -29 -72
q-31 -29 -72 -29z" />
    <glyph glyph-name="u0442" unicode="&#x442;" horiz-adv-x="742" 
d="M265 0q-43 0 -73 30t-30 72v744h-100q-42 0 -72 30t-30 72q0 43 30 72.5t72 29.5h405q42 0 72 -29.5t30 -72.5q0 -42 -30 -72t-72 -30h-100v-744q0 -42 -30 -72t-72 -30z" />
    <glyph glyph-name="u0443" unicode="&#x443;" 
d="M295 -387h-128q-35 0 -61.5 21.5t-35.5 57.5q-2 13 -2 26q0 58 55 89q21 10 44 10h123q49 2 82 36t33 83v90q-51 -31 -100 -31q-124 0 -216 89q-89 93 -89 215v644q0 42 30 72t72 30q41 0 71.5 -30t30.5 -72v-644q0 -40 30 -71q31 -29 71 -29q41 0 70.5 29.5t29.5 70.5
v644q0 28 15 53q33 49 87 49q41 0 71.5 -30.5t30.5 -71.5v-1007q0 -83 -41 -158q-47 -83 -131 -128q-67 -35 -142 -37z" />
    <glyph glyph-name="u0444" unicode="&#x444;" horiz-adv-x="1062" 
d="M427 -387q-42 0 -72 30t-30 72v281q-85 9 -158.5 56t-120 118t-46.5 148v403q0 77 46.5 148t120 118t158.5 56v50q0 42 30 72t72 30t72 -30t30 -72v-50q85 -9 158.5 -56t120 -118t46.5 -148v-403q0 -77 -46.5 -148t-120 -118t-158.5 -56v-281q0 -42 -30 -72t-72 -30z
M331 173v686q-35 0 -65.5 -22t-59 -55.5t-28.5 -68.5v-395q0 -35 28.5 -68.5t59 -55t65.5 -21.5zM523 173q35 0 65 21.5t59 55t29 68.5v395q0 35 -29 68.5t-59 55.5t-65 22v-686z" />
    <glyph glyph-name="u0445" unicode="&#x445;" horiz-adv-x="825" 
d="M519 0q-59 0 -92 57l-117 237l-117 -237q-33 -57 -91 -57q-24 0 -45 10q-38 19 -52 59q-5 17 -5 33q0 23 10 45l187 377l-187 377q-10 22 -10 45q0 16 5 33q14 40 52 59q21 11 45 11q58 0 91 -57l117 -237l117 237q33 57 92 57q24 0 45 -11q58 -29 58 -91q0 -23 -11 -46
l-187 -377l187 -377q11 -22 11 -45q0 -16 -6 -33q-14 -40 -52 -59q-21 -10 -45 -10z" />
    <glyph glyph-name="u0446" unicode="&#x446;" horiz-adv-x="831" 
d="M608 -247q-42 0 -72 30t-30 72v148h-404q-42 0 -72 30t-30 72v847q0 42 30 72t72 30t72 -30t30 -72v-745h145v745q0 42 30 72t72 30t72 -30t30 -72v-745h55q42 0 72 -29.5t30 -72.5v-250q0 -42 -30 -72t-72 -30z" />
    <glyph glyph-name="u0447" unicode="&#x447;" horiz-adv-x="812" 
d="M507 0q-42 0 -72 30t-30 72v238q-47 -30 -100 -30q-73 0 -139 34q-78 40 -122 112.5t-44 158.5v333q0 43 30 72.5t72 29.5q41 0 71.5 -30.5t30.5 -71.5v-333q0 -42 29.5 -71.5t71.5 -29.5q41 0 70.5 29.5t29.5 71.5v333q0 43 30 72.5t72 29.5q41 0 71.5 -30.5t30.5 -71.5
v-846q0 -42 -30 -72t-72 -30z" />
    <glyph glyph-name="u0448" unicode="&#x448;" horiz-adv-x="1046" 
d="M752 0h-650q-42 0 -72 30t-30 72v846q0 43 30 72.5t72 29.5t72 -29.5t30 -72.5v-744h121v744q0 43 30 72.5t72 29.5t72 -29.5t30 -72.5v-744h121v744q0 43 29.5 72.5t72.5 29.5q42 0 72 -29.5t30 -72.5l1 -846q0 -42 -30 -72t-73 -30z" />
    <glyph glyph-name="u0449" unicode="&#x449;" horiz-adv-x="1145" 
d="M910 -247q-42 0 -72 30t-30 72v148h-706q-42 0 -72 30t-30 72v847q0 42 30 72t72 30t72 -30t30 -72v-745h121v745q0 42 30 72t72 30t72 -30t30 -72v-745h121v745q0 42 29.5 72t72.5 30q42 0 72 -30t30 -72v-745h56q43 0 72.5 -29.5t29.5 -72.5v-250q0 -42 -29.5 -72
t-72.5 -30z" />
    <glyph glyph-name="u044A" unicode="&#x44a;" horiz-adv-x="876" 
d="M395 0h-203q-42 0 -72 30t-30 72v744h-58q-42 0 -72 30t-30 72q0 43 30 72.5t72 29.5h160q51 0 85 -45q17 -26 17 -57v-232q42 24 101 24q122 0 215 -89q89 -93 89 -215v-131q0 -87 -44 -159t-122 -113q-66 -33 -138 -33zM395 204q41 0 70.5 29.5t29.5 71.5v131
q0 40 -30 70t-70 30q-42 0 -71.5 -29.5t-29.5 -70.5v-232h101z" />
    <glyph glyph-name="u044B" unicode="&#x44b;" horiz-adv-x="1111" 
d="M812 0q-43 0 -72.5 30t-29.5 72v846q0 43 29.5 72.5t72.5 29.5q42 0 72 -29.5t30 -72.5v-846q0 -42 -30 -72t-72 -30zM305 0h-203q-42 0 -72 30t-30 72v846q0 43 30 72.5t72 29.5t72 -29.5t30 -72.5v-232q42 24 101 24q122 0 215 -89q89 -93 89 -215v-131q0 -87 -44 -159
t-122 -113q-66 -33 -138 -33zM305 204q41 0 70.5 29.5t29.5 71.5v131q0 40 -30 70t-70 30q-42 0 -71.5 -29.5t-29.5 -70.5v-232h101z" />
    <glyph glyph-name="u044C" unicode="&#x44c;" horiz-adv-x="812" 
d="M305 0h-203q-42 0 -72 30t-30 72v846q0 43 30 72.5t72 29.5t72 -29.5t30 -72.5v-233q42 25 101 25q122 0 215 -89q89 -93 89 -215v-131q0 -87 -44 -159t-122 -113q-66 -33 -138 -33zM305 204q41 0 70.5 29.5t29.5 71.5v131q0 40 -30 70t-70 30q-42 0 -71.5 -29.5
t-29.5 -70.5v-232h101z" />
    <glyph glyph-name="u044D" unicode="&#x44d;" horiz-adv-x="735" 
d="M230 0h-128q-35 0 -61 20.5t-36 54.5q-3 16 -3 31q0 52 47 84q25 15 53 15h128q41 0 70.5 29.5t29.5 70.5v222h-162q-42 0 -72 30t-30 72t30 72t72 30h162v15q0 42 -29.5 71.5t-70.5 29.5h-128q-39 0 -68 26t-34 66v8q0 39 27 70q32 34 75 34h128q124 0 214.5 -90.5
t90.5 -214.5v-441q0 -78 -42 -150q-44 -72 -114 -113.5t-149 -41.5z" />
    <glyph glyph-name="u044E" unicode="&#x44e;" horiz-adv-x="1105" 
d="M623 0q-126 0 -215 89.5t-89 215.5v212h-115v-415q0 -42 -30 -72t-72 -30t-72 30t-30 72v846q0 43 30 72.5t72 29.5t72 -29.5t30 -72.5v-226h115v24q0 126 89 215t215 89q122 0 216 -89q89 -93 89 -215v-441q0 -126 -89.5 -215.5t-215.5 -89.5zM623 204q42 0 71.5 29.5
t29.5 71.5v441q0 40 -30 71q-31 29 -71 29q-41 0 -70.5 -29.5t-29.5 -70.5v-441q0 -42 29.5 -71.5t70.5 -29.5z" />
    <glyph glyph-name="u044F" unicode="&#x44f;" 
d="M508 0q-43 0 -73 30t-30 73v208h-86l-125 -254q-33 -57 -91 -57q-24 0 -46 11q-38 20 -51 59q-5 16 -5 32q0 23 10 46l111 224q-122 98 -122 243v131q0 73 34 139q74 137 228 163q21 3 246 3q40 0 72 -30q30 -31 30 -72v-846q0 -43 -30 -73t-72 -30zM405 515v332h-100
q-41 0 -70.5 -29.5t-29.5 -71.5v-131q0 -43 34 -75q28 -25 66 -25h100z" />
    <glyph glyph-name="u0451" unicode="&#x451;" horiz-adv-x="812" 
d="M477 0h-172q-83 0 -153.5 41t-112.5 114l-1 2q-38 67 -38 148v435q0 128 89.5 219t215.5 91h6q122 -4 209 -89q89 -93 89 -215v-163q0 -107 -75.5 -182.5t-182.5 -75.5h-147v-20q0 -42 29.5 -71.5t71.5 -29.5h172q30 0 55 -16q47 -31 47 -86q0 -41 -30.5 -71.5
t-71.5 -30.5zM333 529q30 0 51 21t21 51v145q0 40 -30 70t-71 30q-42 -1 -71 -31t-29 -73v-213h129zM145 1171q-42 0 -72 30t-30 72v107q0 42 30 72t72 30t72 -30t30 -72v-107q0 -42 -30 -72t-72 -30zM448 1171q-43 0 -72.5 30t-29.5 72v107q0 42 29.5 72t72.5 30
q42 0 72 -30t30 -72v-107q0 -42 -30 -72t-72 -30z" />
    <glyph glyph-name="endash" unicode="&#x2013;" horiz-adv-x="965" 
d="M708 440h-606q-42 0 -72 30t-30 72q0 41 30.5 71.5t71.5 30.5h606q42 0 72 -30t30 -72t-30 -72t-72 -30z" />
    <glyph glyph-name="emdash" unicode="&#x2014;" horiz-adv-x="1115" 
d="M868 440h-766q-42 0 -72 30t-30 72q0 41 30.5 71.5t71.5 30.5h766q42 0 72 -30t30 -72t-30 -72t-72 -30z" />
    <glyph glyph-name="quoteleft" unicode="&#x2018;" horiz-adv-x="455" 
d="M162 1571q22 0 42 -9q38 -18 53 -57q7 -19 7 -37q0 -21 -9 -41l-52 -112v-100q0 -42 -29.5 -72t-72.5 -30q-42 0 -72 30t-30 72v107l2 21q1 20 7 36l61 133q33 59 93 59z" />
    <glyph glyph-name="quoteright" unicode="&#x2019;" horiz-adv-x="395" 
d="M41 983q-22 0 -42 9q-38 18 -53 57q-7 19 -7 37q0 21 9 41l52 112v100q0 42 29.5 72t72.5 30q42 0 72 -30t30 -72v-107l-1 -20q-2 -21 -8 -37l-61 -133q-33 -59 -93 -59z" />
    <glyph glyph-name="quotesinglbase" unicode="&#x201a;" horiz-adv-x="454" 
d="M52 -258q-22 0 -42 9q-38 18 -53 57q-7 19 -7 37q0 21 9 41l52 112v100q0 42 29.5 72t72.5 30q42 0 72 -30t30 -72v-107l-1 -20q-2 -21 -8 -37l-61 -133q-33 -59 -93 -59z" />
    <glyph glyph-name="quotedblleft" unicode="&#x201c;" horiz-adv-x="871" 
d="M162 1571q22 0 42 -9q38 -18 53 -57q7 -19 7 -37q0 -21 -9 -41l-52 -112v-100q0 -42 -29.5 -72t-72.5 -30q-42 0 -72 30t-30 72v107l2 21q1 20 7 36l61 133q33 59 93 59zM553 1571q22 0 42 -9q38 -18 53 -57q7 -19 7 -37q0 -21 -9 -41l-52 -112v-100q0 -42 -29.5 -72
t-72.5 -30q-42 0 -72 30t-30 72v107l2 21q1 20 7 36l61 133q33 59 93 59z" />
    <glyph glyph-name="quotedblright" unicode="&#x201d;" horiz-adv-x="786" 
d="M422 983q-22 0 -42 9q-38 18 -53 57q-7 19 -7 37q0 21 9 41l52 112v100q0 42 29.5 72t72.5 30q42 0 72 -30t30 -72v-107l-1 -20q-2 -21 -8 -37l-61 -133q-33 -59 -93 -59zM31 983q-22 0 -42 9q-38 18 -53 57q-7 19 -7 37q0 21 9 41l52 112v100q0 42 29.5 72t72.5 30
q42 0 72 -30t30 -72v-107l-1 -20q-2 -21 -8 -37l-61 -133q-33 -59 -93 -59z" />
    <glyph glyph-name="quotedblbase" unicode="&#x201e;" horiz-adv-x="769" 
d="M433 -253q-22 0 -42 9q-38 18 -53 57q-7 19 -7 37q0 21 9 41l52 112v100q0 42 29.5 72t72.5 30q42 0 72 -30t30 -72v-107l-1 -20q-2 -21 -8 -37l-61 -133q-33 -59 -93 -59zM42 -253q-22 0 -42 9q-38 18 -53 57q-7 19 -7 37q0 21 9 41l52 112v100q0 42 29.5 72t72.5 30
q42 0 72 -30t30 -72v-107l-1 -20q-2 -21 -8 -37l-61 -133q-33 -59 -93 -59z" />
    <glyph glyph-name="ellipsis" unicode="&#x2026;" horiz-adv-x="1320" 
d="M102 0q-42 0 -72 30t-30 72v107q0 42 30 72t72 30t72 -30t30 -72v-107q0 -42 -30 -72t-72 -30zM955 0q-42 0 -72 30t-30 72v107q0 42 30 72t72 30t72 -30t30 -72v-107q0 -42 -30 -72t-72 -30zM529 0q-43 0 -72.5 30t-29.5 72v107q0 42 29.5 72t72.5 30q42 0 72 -30
t30 -72v-107q0 -42 -30 -72t-72 -30z" />
    <glyph glyph-name="guilsinglleft" unicode="&#x2039;" horiz-adv-x="613" 
d="M268 42q-57 0 -86 57l-177 422l177 422q29 57 86 57q18 0 35 -7q57 -25 57 -85q0 -18 -7 -36l-146 -351l146 -350q7 -16 7 -34q0 -62 -57 -88q-17 -7 -35 -7z" />
    <glyph glyph-name="guilsinglright" unicode="&#x203a;" horiz-adv-x="565" 
d="M97 42q-18 0 -35 7q-57 26 -57 88q0 18 7 34l146 350l-146 351q-7 18 -7 36q0 60 57 85q17 7 35 7q57 0 86 -57l177 -422l-177 -422q-29 -57 -86 -57z" />
    <glyph glyph-name="u2116" unicode="&#x2116;" horiz-adv-x="1459" 
d="M79 0q-33 0 -56 23t-23 56v1275q3 44 38 67q19 12 40 12q10 0 21 -3q44 -14 57 -63l304 -839v826q0 33 22.5 56t55.5 23t56 -23t23 -56v-1281q-3 -31 -26.5 -51.5t-52.5 -20.5q-24 0 -42 12q-26 18 -35 48l-303 840v-822q0 -33 -23 -56t-56 -23zM1010 855h-24
q-115 0 -197 85q-77 88 -77 208q0 119 76 206q82 87 198 87h24q117 0 195.5 -84t78.5 -209q0 -118 -75 -206l-2 -2q-82 -85 -197 -85zM1010 1059q32 0 51 24.5t19 64.5q0 32 -16 60.5t-54 28.5h-24q-32 0 -51 -24.5t-19 -64.5q0 -32 16 -60.5t54 -28.5h24zM1200 559h-386
q-42 0 -72 30t-30 72q0 41 30.5 71.5t71.5 30.5h386q42 0 72 -30t30 -72t-30 -72t-72 -30z" />
    <glyph glyph-name="minus" unicode="&#x2212;" horiz-adv-x="855" 
d="M548 590h-446q-42 0 -72 30t-30 72q0 41 30.5 71.5t71.5 30.5h446q42 0 72 -30t30 -72t-30 -72t-72 -30z" />
  </font>
</defs>
</svg>
