<?xml version="1.0" standalone="no"?>
<!DOCTYPE svg PUBLIC "-//W3C//DTD SVG 1.1//EN" "http://www.w3.org/Graphics/SVG/1.1/DTD/svg11.dtd" >
<svg xmlns="http://www.w3.org/2000/svg" xmlns:xlink="http://www.w3.org/1999/xlink" version="1.1">
<metadata>
Created by FontForge 20201107 at Tue Dec 19 14:29:15 2023
 By 
Dimkin Typeface (c) Blue Curve Designstudio. 2023. All Rights Reserved
</metadata>
<defs>
<font id="Dimkin-Thin" horiz-adv-x="719" >
  <font-face 
    font-family="Dimkin Thin"
    font-weight="100"
    font-stretch="normal"
    units-per-em="2048"
    panose-1="2 0 5 0 0 0 0 0 0 0"
    ascent="1638"
    descent="-410"
    x-height="1002"
    cap-height="1433"
    bbox="-290 -417 1196 1934"
    underline-thickness="150"
    underline-position="-292"
    unicode-range="U+0020-2212"
  />
<missing-glyph horiz-adv-x="142" 
 />
    <glyph glyph-name=".notdef" horiz-adv-x="142" 
 />
    <glyph glyph-name=".null" horiz-adv-x="0" 
 />
    <glyph glyph-name="nonmarkingreturn" horiz-adv-x="682" 
 />
    <glyph glyph-name="space" unicode=" " horiz-adv-x="450" 
 />
    <glyph glyph-name="space" unicode="&#xa0;" horiz-adv-x="450" 
 />
    <glyph glyph-name="exclam" unicode="!" horiz-adv-x="300" 
d="M26 398q21 0 26 26v983q0 14 -8 19q-4 7 -18 7q-22 0 -26 -26v-983q0 -21 26 -26zM26 0q21 0 26 26v120q0 21 -26 26q-22 0 -26 -26v-120q0 -22 26 -26z" />
    <glyph glyph-name="quotedbl" unicode="&#x22;" horiz-adv-x="630" 
d="M14 1098q15 0 24 15l67 148q3 20 3 149q0 22 -26 26q-21 0 -26 -26v-131q-67 -149 -67 -155q0 -14 15 -23q5 -3 10 -3zM249 1098q15 0 24 15l67 148q3 20 3 149q0 22 -26 26q-21 0 -26 -26v-131q-67 -149 -67 -155q0 -14 15 -23q5 -3 10 -3z" />
    <glyph glyph-name="numbersign" unicode="#" horiz-adv-x="1283" 
d="M581 0q7 0 14.5 4.5t10.5 13.5l146 449h211q22 0 26 26q0 21 -26 26h-194l120 370h204q21 0 26 26q0 21 -26 26h-187l149 459l1 8q0 17 -18 24q-4 2 -8 2q-7 0 -14 -4.5t-10 -13.5l-155 -475h-430l150 459l1 8q0 17 -18 24q-4 2 -8 2q-7 0 -14 -4.5t-10 -13.5l-155 -475
h-211q-22 0 -26 -26q0 -21 26 -26h194l-120 -370h-204q-21 0 -26 -26q0 -21 26 -26h187q-141 -437 -141 -444q0 -14 17 -21q4 -2 8 -2q7 0 14 4.5t11 13.5l146 449h430q-142 -437 -142 -444q0 -14 17 -21q4 -2 8 -2zM714 519h-430l121 370h430z" />
    <glyph glyph-name="dollar" unicode="$" horiz-adv-x="758" 
d="M275 -140q8 0 16.5 7t8.5 25v105l45 12q111 29 169 131q35 63 35 134v373q0 117 -91 205q-23 20 -49 34q-63 36 -134 36q-62 0 -117 32q-50 32 -78 82t-28 109v13q0 59 28 109t78 81q55 33 117 33h145q28 0 28 26t-37 26h-111v107q0 19 -9.5 25.5t-15.5 6.5h-1
q-7 0 -16 -7.5t-9 -24.5v-105l-44 -11q-112 -30 -170 -131q-35 -64 -35 -148q0 -117 92 -205q22 -20 48 -35q62 -35 135 -35q61 0 116 -33q50 -31 78.5 -81t28.5 -109v-373q0 -59 -28.5 -109t-78.5 -81q-55 -33 -116 -33h-186q-26 0 -26 -26q0 -21 26 -26h160v-107
q0 -18 8.5 -25t17.5 -7z" />
    <glyph glyph-name="percent" unicode="%" horiz-adv-x="1191" 
d="M107 0q15 0 23 13q800 1387 800 1395q0 11 -13 20q-6 4 -13 4q-14 0 -23 -13l-796 -1380q-3 -8 -3 -14l1 -6q0 -7 12 -16q6 -3 12 -3zM246 951q93 0 156 67.5t63 172.5t-62 173t-157 68h-26q-94 0 -158 -69q-62 -72 -62 -172q0 -101 63 -173q63 -67 157 -67h26zM246 1002
h-26q-75 0 -121.5 53t-46.5 136q0 75 40 128q49 61 128 61h26q74 0 121 -52.5t47 -136.5q0 -75 -40 -128q-50 -61 -128 -61zM798 0q94 0 157 68t63 173q0 104 -62 172t-158 68h-26q-94 0 -157 -68q-62 -72 -62 -172q0 -102 63 -174q63 -67 156 -67h26zM798 52h-26
q-74 0 -121 52.5t-47 136.5q0 75 40 128q50 61 128 61h26q75 0 122 -53t47 -136q0 -75 -40 -129q-50 -60 -129 -60z" />
    <glyph glyph-name="ampersand" unicode="&#x26;" horiz-adv-x="843" 
d="M573 0q-11 0 -18 9.5t-9 15.5l-51 107q-59 -55 -77 -70q-70 -60 -158 -60q-55 0 -108 24q-70 34 -111 95t-41 133v312q0 143 119 238l42 28l-110 258q-20 48 -20 103q0 61 29 125q62 116 200 116q92 0 152 -57q77 -76 77 -214q0 -147 -97 -222l-166 -124l285 -603l57 52
l33 29q9 5 15 5q4 0 9.5 -2t10.5 -8q5 -8 5 -16q0 -10 -10 -21l-97 -87q65 -136 65 -139q0 -18 -18 -25q-5 -2 -8 -2zM202 859l124 86q108 80 109 214l-1 34q0 66 -31 114.5t-85 66.5q-30 9 -61 9q-82 0 -134 -62q-40 -52 -40 -128q0 -50 18 -91zM251 52q53 0 102 29
q23 15 48 34l72 64l-290 612l-34 -24q-33 -23 -65 -72t-33 -125v-316q0 -71 45 -126t115 -71q20 -5 40 -5z" />
    <glyph glyph-name="quotesingle" unicode="'" horiz-adv-x="302" 
d="M25 1098q15 0 24 15l67 148q3 20 3 149q0 22 -26 26q-21 0 -26 -26v-131q-67 -149 -67 -155q0 -14 15 -23q5 -3 10 -3z" />
    <glyph glyph-name="parenleft" unicode="(" horiz-adv-x="450" 
d="M191 -210q8 0 16 7q8 5 8 20q0 9 -9 16.5t-15 10.5q-67 39 -103 114.5t-36 175.5v717q0 29 8 80.5t37 106.5t89 99q29 21 29 31q0 24 -26 26q-4 0 -9 -2q-76 -34 -128 -141t-52 -200v-717q0 -95 53.5 -203.5t130.5 -139.5z" />
    <glyph glyph-name="parenright" unicode=")" horiz-adv-x="450" 
d="M25 -210l6 1q77 31 130.5 139.5t53.5 203.5v717q0 93 -51.5 200t-128.5 141q-5 2 -9 2q-26 -2 -26 -26q0 -10 29 -31q60 -44 89 -99t37.5 -106.5t8.5 -80.5v-717q0 -100 -36.5 -175.5t-103.5 -114.5q-6 -3 -15 -10.5t-9 -16.5q0 -15 8 -20q8 -7 17 -7z" />
    <glyph glyph-name="asterisk" unicode="*" horiz-adv-x="738" 
d="M412 1117q5 0 15 5q10 9 10 20q0 7 -3 14q-1 2 -2 2l-126 175l206 67q16 5 16 23l-1 9q-3 9 -10 13t-14 4h-5l-208 -67v215q0 13 -8 18q-4 8 -18 8q-20 0 -25 -23l-1 -3v-215l-207 67q-31 0 -31 -26q0 -13 13 -22l209 -68l-127 -175q-4 -9 -4 -16q0 -11 11 -20l15 -5
q10 0 20 10l127 175l128 -175q10 -10 20 -10z" />
    <glyph glyph-name="plus" unicode="+" horiz-adv-x="762" 
d="M277 430q21 0 25 26v225h225q22 0 26 26q0 21 -26 25h-225v225q0 14 -7 19q-4 7 -18 7q-22 0 -26 -26v-225h-225q-14 0 -18 -7q-8 -4 -8 -18q0 -22 26 -26h225v-225q0 -22 26 -26z" />
    <glyph glyph-name="comma" unicode="," horiz-adv-x="361" 
d="M25 -170q15 0 24 15l67 148q3 20 3 149q0 22 -26 26q-21 0 -26 -26v-131q-67 -149 -67 -155q0 -14 15 -23q5 -3 10 -3z" />
    <glyph glyph-name="hyphen" unicode="-" horiz-adv-x="762" 
d="M527 510q22 0 26 26q0 21 -26 26h-501q-14 0 -18 -8q-8 -4 -8 -18q0 -22 26 -26h501z" />
    <glyph glyph-name="hyphen" unicode="&#xad;" horiz-adv-x="762" 
d="M527 510q22 0 26 26q0 21 -26 26h-501q-14 0 -18 -8q-8 -4 -8 -18q0 -22 26 -26h501z" />
    <glyph glyph-name="period" unicode="." horiz-adv-x="300" 
d="M26 0q21 0 26 26v120q0 21 -26 26q-22 0 -26 -26v-120q0 -22 26 -26z" />
    <glyph glyph-name="slash" unicode="/" horiz-adv-x="640" 
d="M32 -8q15 0 24 20q360 1389 360 1393q0 7 -5 11q-3 13 -22 13q-16 0 -25 -20l-357 -1384l-1 -8q0 -15 19 -24z" />
    <glyph glyph-name="zero" unicode="0" horiz-adv-x="758" 
d="M275 0q113 0 193.5 80.5t80.5 194.5v884q0 113 -80.5 193.5t-193.5 80.5q-114 0 -194.5 -80.5t-80.5 -193.5v-884q0 -114 80.5 -194.5t194.5 -80.5zM275 52q-70 0 -126 38t-82 104l-10 24l441 889v-832q0 -93 -65.5 -158t-157.5 -65zM52 326v833q0 92 65 157.5t158 65.5
q69 0 125 -38.5t82 -104.5l10 -24z" />
    <glyph glyph-name="one" unicode="1" horiz-adv-x="437" 
d="M175 0q21 0 26 26v1381q0 14 -8 19q-4 7 -18 7h-149q-14 0 -18 -7q-8 -5 -8 -19q0 -21 26 -25h123v-1356q0 -22 26 -26z" />
    <glyph glyph-name="two" unicode="2" horiz-adv-x="724" 
d="M485 0q14 0 18 8q8 4 8 18q0 13 -12 22q-7 4 -444 4v698q0 90 72 155q36 28 73 36.5t69 9.5q81 6 138 46q48 35 76 87t28 109q0 61 -30 115q-33 59 -89 92t-122 33h-244q-14 0 -18 -7q-8 -5 -8 -19q0 -13 12 -21q6 -4 14 -4h244q78 0 133.5 -55.5t55.5 -133.5
q0 -76 -55 -134q-37 -35 -76.5 -44.5t-74.5 -10.5q-103 -5 -173 -73q-76 -74 -76 -181v-724q0 -22 25 -26h456z" />
    <glyph glyph-name="three" unicode="3" 
d="M254 0q68 0 126.5 34t93.5 94q33 58 33 126v496q0 105 -74 179l-51 46l55 48q70 70 70 170q0 60 -29 115q-33 59 -89.5 92t-121.5 33h-241q-14 0 -18 -7q-8 -5 -8 -19q0 -13 11 -21q7 -4 15 -4h241q78 0 133.5 -55.5t55.5 -133.5q0 -76 -56 -134q-58 -55 -133 -55h-210
q-8 0 -14 -5q-12 -8 -12 -21q0 -16 13 -22q4 -4 210 -4q81 0 143 -59q59 -62 59 -143v-496q0 -84 -59.5 -143t-142.5 -59q-235 0 -242 -4q-12 -8 -12 -22q0 -22 26 -26h228z" />
    <glyph glyph-name="four" unicode="4" horiz-adv-x="847" 
d="M479 0q28 3 28 26v403h112q23 0 26 29q-7 23 -28 23h-110v926q0 14 -7 19q-4 5 -17 7q-19 0 -26 -18l-455 -952q-2 -4 -2 -9v-2q7 -23 27 -23h429v-402q0 -20 23 -27zM456 481h-399l399 829v-829z" />
    <glyph glyph-name="five" unicode="5" 
d="M254 0q68 0 126.5 34t93.5 94q33 59 33 126v496q0 66 -34 125.5t-93 94t-126 34.5h-202v378h346q19 0 25 23v2q0 22 -25 26h-372q-22 0 -26 -26v-430q1 -14 12 -21q7 -4 242 -4q81 0 142 -59q60 -62 60 -143v-496q0 -84 -59.5 -143t-142.5 -59h-228q-20 0 -26 -26
q0 -22 26 -26h228z" />
    <glyph glyph-name="six" unicode="6" 
d="M254 0q68 0 126.5 34.5t93.5 94.5q33 59 33 125v496q0 67 -34 126t-91 93.5t-121 34.5h-7q-76 -5 -120 -30t-63 -49l-19 -25v293q0 76 55 134q58 55 134 55h157q19 0 26 23q0 24 -26 29h-157q-61 0 -117.5 -31t-90 -88t-33.5 -122v-939q0 -66 34 -126t94 -94t126 -34z
M254 52q-84 0 -143 59t-59 143v496q0 84 59 143t143 59q81 0 143 -59q59 -61 59 -143v-496q0 -84 -59.5 -143t-142.5 -59z" />
    <glyph glyph-name="seven" unicode="7" horiz-adv-x="717" 
d="M33 0q7 0 14 4.5t10 13.5l426 1311l6 16q16 48 16 65q0 21 -20 23l-459 1q-21 0 -26 -26q0 -22 26 -26h420l-438 -1348l-1 -8q0 -17 18 -25z" />
    <glyph glyph-name="eight" unicode="8" 
d="M254 0q104 0 178.5 74.5t74.5 179.5v496q0 102 -74 179l-52 48l43 43q62 73 62 173q0 104 -62 172t-157 68h-26q-95 0 -158 -68q-62 -72 -62 -172q0 -101 63 -174l40 -43l-43 -40q-81 -79 -81 -186v-496q0 -105 74.5 -179.5t179.5 -74.5zM254 52q-84 0 -143 59t-59 143
v496q0 84 59 143t143 59q81 0 143 -59q59 -62 59 -143v-496q0 -84 -59.5 -143t-142.5 -59zM267 1004h-26q-75 0 -121.5 52.5t-46.5 136.5q0 75 39 128q50 61 129 61h26q74 0 121 -53t47 -136q0 -75 -40 -128q-50 -61 -128 -61z" />
    <glyph glyph-name="nine" unicode="9" 
d="M267 0q60 0 116.5 31t90 88t33.5 122v939q0 66 -34 125.5t-93.5 93.5t-125.5 34q-69 0 -127.5 -34t-93.5 -94q-33 -59 -33 -125v-497q0 -65 35 -125t93.5 -94t125.5 -34q53 0 91 15.5t62.5 36t36.5 36.5l12 15v-292q0 -76 -56 -134q-58 -55 -133 -55h-157q-15 0 -19 -10
t-4 -17q0 -19 9 -22t14 -3h157zM254 481q-81 0 -143 59q-59 62 -59 143v497q0 83 59 142.5t143 59.5q83 0 142.5 -59.5t59.5 -142.5v-497q0 -83 -59.5 -142.5t-142.5 -59.5z" />
    <glyph glyph-name="colon" unicode=":" horiz-adv-x="350" 
d="M26 0q21 0 26 26v120q0 21 -26 26q-22 0 -26 -26v-120q0 -22 26 -26zM26 868q21 0 26 26v120q0 21 -26 26q-22 0 -26 -26v-120q0 -22 26 -26z" />
    <glyph glyph-name="semicolon" unicode=";" horiz-adv-x="361" 
d="M93 868q22 0 26 26v120q0 21 -26 26q-21 0 -25 -26v-120q0 -22 25 -26zM25 -170q15 0 24 15l67 148q3 20 3 149q0 22 -26 26q-21 0 -26 -26v-131q-67 -149 -67 -155q0 -14 15 -23q5 -3 10 -3z" />
    <glyph glyph-name="less" unicode="&#x3c;" horiz-adv-x="656" 
d="M412 408q13 0 22 12q5 9 5 15q0 10 -12 20l-337 230l337 231q12 10 12 20q0 6 -5 15q-9 12 -22 12q-7 0 -411 -276q-1 0 -1 -2t1 -2q404 -275 411 -275z" />
    <glyph glyph-name="equal" unicode="=" horiz-adv-x="762" 
d="M522 910q22 0 26 26q0 21 -26 25h-501q-14 0 -18 -7q-8 -4 -8 -18q0 -22 26 -26h501zM522 533q22 0 26 26q0 22 -26 26h-501q-14 0 -18 -8q-8 -4 -8 -18q0 -21 26 -26h501z" />
    <glyph glyph-name="greater" unicode="&#x3e;" horiz-adv-x="656" 
d="M27 408q6 0 411 275q1 0 1 2t-1 2q-405 276 -411 276q-13 0 -22 -12q-5 -9 -5 -15q0 -10 12 -20l337 -231l-337 -230q-12 -10 -12 -20q0 -6 5 -15q9 -12 22 -12z" />
    <glyph glyph-name="question" unicode="?" horiz-adv-x="633" 
d="M160 0q21 0 26 26v120q0 21 -26 26q-22 0 -26 -26v-120q0 -22 26 -26zM160 399q21 0 26 25l-1 423q0 29 18.5 64t74.5 66l11 10h8q25 15 45 36q71 74 71 170q0 61 -30 116q-33 58 -89 91.5t-122 33.5h-146q-14 0 -19 -8q-7 -4 -7 -18q0 -13 11 -21q7 -5 15 -5h146
q78 0 133.5 -55.5t55.5 -133.5q0 -108 -104 -167q-30 -17 -74.5 -49.5t-49.5 -61.5l1 -491q0 -21 26 -25z" />
    <glyph glyph-name="at" unicode="@" horiz-adv-x="1340" 
d="M590 0q83 0 163 23q43 11 65 22t22 27q0 14 -8 18q-6 6 -13 6q-17 0 -41 -11q-89 -33 -188 -33h-6q-149 3 -269.5 76.5t-192.5 198t-72 273.5v141q0 152 73 276.5t195.5 198.5t271.5 74q221 -1 382 -158q158 -166 158 -382v-158q0 -75 -17 -142q-11 -55 -47 -108
q-37 -46 -99 -47q-65 0 -102 56q-21 38 -21 84v538q0 13 -8 18q-4 7 -18 7q-10 0 -12 -1.5t-9 -155.5l-9 24q-8 24 -30.5 55t-64 54.5t-106.5 23.5q-107 -4 -179 -78t-72 -178v-143q0 -104 71 -177.5t178 -77.5q71 0 114.5 20t66.5 46.5t30 47.5l8 21v-68q0 -64 43 -108.5
t117 -44.5q22 0 54.5 10.5t65 37t58.5 75.5q38 101 38 209v152q0 121 -45 233t-132 198q-180 169 -413 169h-2q-164 -3 -296.5 -83t-212 -216t-79.5 -301v-142q0 -165 79.5 -301t212 -216.5t296.5 -82.5h2zM590 395q-84 0 -143 59.5t-59 142.5v148q0 83 59 142.5t143 59.5
q81 0 143 -59q59 -62 59 -143v-148q0 -83 -59.5 -142.5t-142.5 -59.5z" />
    <glyph glyph-name="A" unicode="A" horiz-adv-x="839" 
d="M694 0l7 1q18 7 18 24v7q-364 1379 -369 1392q-9 9 -20 9l-7 -1q-18 -7 -18 -21q-365 -1382 -365 -1387q0 -16 19 -23l7 -1q17 0 24 19l87 329h506l87 -329q7 -19 24 -19zM569 400h-478l239 906z" />
    <glyph glyph-name="B" unicode="B" horiz-adv-x="772" 
d="M288 0q74 0 138 37t102 103q35 64 35 134v455q0 71 -35 134q-29 51 -76 86q-23 17 -48.5 30t-67.5 20q52 26 83 91q25 53 25 114q0 13 -3 56.5t-59.5 101.5t-177.5 71h-245q-23 0 -29 -24q1 -19 14 -25l11 -3h59v-1355q0 -22 25 -26h249zM288 51h-223v901h223
q92 0 157.5 -65.5t65.5 -157.5v-455q0 -92 -65.5 -157.5t-157.5 -65.5zM204 1005h-139v377q128 -1 165 -2q74 -10 118.5 -61t45.5 -126q-1 -75 -45.5 -126t-118.5 -61z" />
    <glyph glyph-name="C" unicode="C" horiz-adv-x="652" 
d="M408 0q25 0 25 24q0 15 -7 19q-3 4 -7 5q-3 3 -145 3q-92 0 -157.5 65.5t-65.5 157.5v884q0 92 62 155.5t155 67.5h140q25 0 25 26q0 2 -4 13.5t-21 12.5h-141q-64 -2 -121 -32q-71 -38 -111 -108q-35 -64 -35 -135v-884q0 -83 40 -143q39 -63 104 -99q62 -32 130 -32
h134z" />
    <glyph glyph-name="D" unicode="D" horiz-adv-x="750" 
d="M304 0q63 0 121 28q70 34 111.5 101.5t41.5 145.5v884q0 70 -35 134q-72 127 -233 140h-374q-14 0 -18 -7q-8 -5 -8 -19q0 -8 11.5 -16.5t24.5 -8.5h70v-1356q0 -20 23 -26h265zM304 52h-237v1330h242q94 -5 156 -68.5t62 -154.5v-884q0 -93 -65.5 -158t-157.5 -65z" />
    <glyph glyph-name="E" unicode="E" horiz-adv-x="614" 
d="M366 0q22 0 26 26q0 21 -26 26h-315v900h263q21 0 26 26q0 21 -26 26h-263v378h315q22 0 26 25q0 22 -26 26h-345q-21 -7 -21 -26v-1381q0 -19 21 -26h345z" />
    <glyph glyph-name="F" unicode="F" horiz-adv-x="582" 
d="M26 0q18 0 23 15q2 5 2 937h263q21 0 26 26q0 21 -26 26h-263v378h315q22 0 26 25q0 22 -26 26h-345q-21 -7 -21 -26v-1381q0 -22 26 -26z" />
    <glyph glyph-name="G" unicode="G" horiz-adv-x="758" 
d="M280 0h248q21 7 21 26v675q0 21 -26 26h-131q-14 0 -18 -8q-8 -4 -8 -18q0 -21 26 -26h106v-624h-223q-93 0 -158 65.5t-65 158.5v884q0 91 61.5 154.5t155.5 67.5h202q26 0 26 26q0 10 -6.5 18t-19.5 8h-204q-64 -2 -121 -32q-71 -38 -111 -108q-35 -64 -35 -134v-884
q0 -77 41 -144q38 -63 103 -98q62 -33 136 -33z" />
    <glyph glyph-name="H" unicode="H" horiz-adv-x="758" 
d="M523 0q22 0 26 26v1381q0 14 -8 19q-4 7 -18 7q-21 0 -25 -26v-445h-446v445q0 22 -26 26q-22 0 -26 -26v-1381q0 -22 26 -26q21 0 26 26v885h446v-885q0 -22 25 -26z" />
    <glyph glyph-name="I" unicode="I" horiz-adv-x="299" 
d="M26 0q21 0 25 26v1381q0 14 -7 19q-4 7 -18 7q-22 0 -26 -26v-1381q0 -22 26 -26z" />
    <glyph glyph-name="J" unicode="J" horiz-adv-x="570" 
d="M90 0q109 0 189 78t85 190v1139q0 14 -8 18q-4 8 -18 8q-18 0 -23 -14q-3 -6 -3 -1145q0 -92 -65 -157.5t-157 -65.5h-155q-18 0 -25 -21v-4q0 -12 6 -17q1 -2 6 -5.5t13 -3.5h155z" />
    <glyph glyph-name="K" unicode="K" horiz-adv-x="806" 
d="M576 0l7 1q19 7 19 25l-1 6l-217 805l-4 15l142 530h51q22 0 26 26q0 14 -7 18q-5 8 -19 8h-71q-17 0 -24 -19l-145 -537h-281v530q0 22 -26 26q-22 0 -26 -26v-1381q0 -22 26 -26q21 0 26 26v800h282l217 -808q7 -19 25 -19z" />
    <glyph glyph-name="L" unicode="L" horiz-adv-x="614" 
d="M366 0q22 0 26 26q0 21 -26 26h-315v1355q0 26 -25 26q-22 0 -26 -26v-1381q0 -19 21 -26h345z" />
    <glyph glyph-name="M" unicode="M" horiz-adv-x="975" 
d="M759 0q21 0 25 26v1381q0 14 -7 19q-4 7 -18 7q-17 0 -25 -17l-342 -948l-339 938q-8 17 -12 22t-15 5q-22 0 -26 -26v-1381q0 -22 26 -26q21 0 26 26v1213l309 -835q5 -14 12.5 -25.5t18.5 -11.5h3q9 0 16 10.5t19 43.5l303 830v-1225q0 -22 26 -26z" />
    <glyph glyph-name="N" unicode="N" horiz-adv-x="759" 
d="M523 0q23 0 26 23v1384q0 22 -26 26q-21 0 -25 -26v-1220l-445 1218q-6 17 -12 22t-9 5l-8 2q-4 0 -14 -4t-10 -23v-1381q0 -22 26 -26q21 0 26 26v1215l444 -1215q8 -20 14 -23t13 -3z" />
    <glyph glyph-name="O" unicode="O" horiz-adv-x="759" 
d="M275 0q113 0 193.5 80.5t80.5 194.5v884q0 113 -80.5 193.5t-193.5 80.5q-114 0 -194.5 -80.5t-80.5 -193.5v-884q0 -114 80.5 -194.5t194.5 -80.5zM275 52q-93 0 -158 65t-65 158v884q0 92 65 157.5t158 65.5q92 0 157.5 -65.5t65.5 -157.5v-884q0 -93 -65.5 -158
t-157.5 -65z" />
    <glyph glyph-name="P" unicode="P" horiz-adv-x="735" 
d="M45 0q14 0 19 8q7 4 7 18v404h223q75 0 138.5 37t101.5 103q35 63 35 134v455q0 70 -35 134q-23 40 -56 70q-77 67 -179 70h-343q-14 0 -18 -7q-8 -5 -8 -19q0 -21 26 -25h64v-1356q0 -22 25 -26zM294 481h-223v901h229q93 -5 155 -68.5t62 -154.5v-455
q0 -92 -65.5 -157.5t-157.5 -65.5z" />
    <glyph glyph-name="Q" unicode="Q" horiz-adv-x="758" 
d="M515 -134q12 0 21 11q4 4 4 12q0 16 -77 141l-11 20q34 25 55 64t31 81q14 70 14 142l-1 27q1 127 2 714q0 50 -6.5 108t-38.5 114q-22 39 -58 68q-78 59 -171 59q-28 0 -57 -5q-120 -26 -182 -132q-28 -57 -35 -121q-5 -55 -5 -110l2 -730q0 -40 4 -84.5t22 -89.5
q49 -106 161 -145q46 -14 91 -14q64 0 127 28l79 -134q10 -19 28 -24h1zM277 47q-93 0 -158 65.5t-65 157.5v884q0 92 65 157.5t158 65.5q92 0 157.5 -65.5t65.5 -157.5v-884q0 -57 -19 -96t-37 -59l-19 -20l-118 201q-8 13 -22 13q-7 0 -13 -3q-13 -9 -13 -22
q0 -8 122 -215l-25 -11q-25 -11 -79 -11z" />
    <glyph glyph-name="R" unicode="R" horiz-adv-x="742" 
d="M542 0q5 0 10 2q16 8 16 23q0 6 -172 424l40 27q55 37 88 94q35 64 35 135v454q0 71 -35 135q-22 39 -56 69q-77 68 -179 71h-343q-14 0 -18 -8q-8 -4 -8 -18q0 -16 16 -24q5 -2 74 -2v-1356q0 -21 26 -26q13 0 18 8q7 4 7 18v404h223l62 4l172 -418q8 -16 24 -16z
M284 482h-223v900h229q94 -4 156 -67.5t62 -155.5v-454q0 -88 -64 -156q-69 -67 -160 -67z" />
    <glyph glyph-name="S" unicode="S" horiz-adv-x="758" 
d="M279 0q70 0 134 35q67 38 105 105q35 64 35 135v373q0 117 -92 204q-77 70 -182 70q-93 0 -158 65.5t-65 157.5v14q0 92 65 157.5t158 65.5q143 0 153 1q20 5 20 25q0 19 -19 24q-10 1 -154 1q-71 0 -135 -35q-67 -38 -105 -105q-35 -63 -35 -148q0 -117 92 -205
q77 -69 183 -69q92 0 157.5 -65.5t65.5 -157.5v-373q0 -93 -65.5 -158t-157.5 -65h-186q-26 0 -26 -26q0 -21 26 -26h186z" />
    <glyph glyph-name="T" unicode="T" horiz-adv-x="683" 
d="M234 0q22 0 26 26v1356h223q22 0 26 25q0 22 -26 26h-497q-22 0 -26 -26q0 -21 26 -25h223v-1356q0 -22 25 -26z" />
    <glyph glyph-name="U" unicode="U" horiz-adv-x="758" 
d="M275 0q75 0 141 39q125 80 133 229v1139q0 14 -8 19q-4 7 -18 7q-17 0 -23 -14q-2 -6 -2 -1144q0 -93 -65.5 -158t-157.5 -65q-93 0 -158 65t-65 158q0 1138 -3 1144q-7 14 -23 14q-22 0 -26 -26v-1132q0 -73 35 -135t98 -101q66 -39 142 -39z" />
    <glyph glyph-name="V" unicode="V" horiz-adv-x="868" 
d="M358 0q11 2 16 10.5t6 14.5l355 1367q3 12 3 19q0 8 -4.5 14t-9.5 7q-5 2 -10 2q-12 0 -21 -10l-339 -1301l-348 1299q-9 12 -22 12q-5 0 -10 -2q-14 -8 -14 -22q0 -13 2 -17l367 -1374q2 -7 7.5 -13t18.5 -6h3z" />
    <glyph glyph-name="W" unicode="W" horiz-adv-x="1126" 
d="M694 0q6 0 11.5 2.5t8.5 8t7 26.5q270 1350 270 1365q0 5 -0.5 15.5t-10.5 15.5q-5 2 -10 2q-18 0 -24 -22l-251 -1259l-202 1075q0 11 -3 18q-6 17 -24 17q-19 0 -26 -33l-195 -1074l-260 1257q-5 21 -24 21q-21 0 -21 -34q0 -7 281 -1365q4 -19 7 -24.5t5 -6.5
q5 -5 14 -5q6 0 11 3h1q2 0 6.5 6t8.5 27l197 1060l198 -1074l1 -2q0 -5 3 -8q7 -12 21 -12z" />
    <glyph glyph-name="X" unicode="X" horiz-adv-x="824" 
d="M595 0q5 0 10 2q16 8 16 23q0 6 -283 692q283 686 283 692q0 15 -16 23q-5 2 -10 2q-16 0 -24 -16l-261 -633l-260 633q-9 16 -24 16q-5 0 -10 -2q-16 -8 -16 -23q0 -6 282 -692q-282 -686 -282 -692q0 -15 16 -23l10 -2q15 0 24 16l260 633l261 -633q8 -16 24 -16z" />
    <glyph glyph-name="Y" unicode="Y" horiz-adv-x="826" 
d="M310 0q22 0 26 26v685l12 28q273 664 273 669q0 16 -16 24q-5 2 -10 2q-16 0 -24 -16l-261 -634l-261 634q-8 16 -23 16q-5 0 -10 -2q-16 -8 -16 -24q0 -5 2 -10l283 -687v-685q0 -22 25 -26z" />
    <glyph glyph-name="Z" unicode="Z" horiz-adv-x="761" 
d="M525 0q21 0 26 25q0 22 -26 26h-462l487 1350l1 7q-2 23 -26 25h-500q-14 0 -18 -8q-7 -4 -7 -18q0 -21 25 -26h463l-483 -1339q-3 -9 -3 -16q0 -10 5 -18q2 -3 6 -5.5t12 -2.5h500z" />
    <glyph glyph-name="bracketleft" unicode="[" horiz-adv-x="437" 
d="M26 -150h149q14 0 18 8q8 4 8 18q-5 26 -26 26h-123v1602h123q26 5 26 26q0 14 -8 18q-4 8 -18 8h-149q-14 0 -18 -8q-8 -4 -8 -18q0 -1660 2 -1665q7 -15 24 -15z" />
    <glyph glyph-name="backslash" unicode="\" horiz-adv-x="640" 
d="M390 -8l6 1q20 9 20 24l-2 8l-357 1384q-9 20 -25 20q-18 0 -22 -13q-4 -4 -4 -11q0 -4 359 -1393q10 -20 25 -20z" />
    <glyph glyph-name="bracketright" unicode="]" horiz-adv-x="437" 
d="M175 -150q16 0 23 15q3 5 3 1665q0 14 -8 18q-4 8 -18 8h-149q-14 0 -18 -8q-8 -4 -8 -18q0 -21 26 -26h123v-1602h-123q-22 0 -26 -26q0 -14 8 -18q4 -8 18 -8h149z" />
    <glyph glyph-name="asciicircum" unicode="^" horiz-adv-x="763" 
d="M-5 1038q0 -13 12 -22q9 -4 15 -4q10 0 20 11l230 337l231 -337q10 -11 20 -11q6 0 15 4q12 9 12 22q0 7 -276 411q0 1 -2 1t-2 -1q-275 -404 -275 -411z" />
    <glyph glyph-name="underscore" unicode="_" horiz-adv-x="1132" 
d="M962 -116q22 0 26 26q0 21 -26 26h-931q-14 0 -18 -8q-8 -4 -8 -18q0 -22 26 -26h931z" />
    <glyph glyph-name="grave" unicode="`" horiz-adv-x="362" 
d="M94 1104q5 0 10 3q15 9 15 23q0 6 -67 155v131q-5 26 -26 26q-26 -4 -26 -26q0 -129 3 -149l67 -148q9 -15 24 -15z" />
    <glyph glyph-name="a" unicode="a" horiz-adv-x="720" 
d="M482 0q25 6 25 26v724q0 105 -74 179.5t-179 74.5h-110q-12 0 -17 -6q-9 -9 -9 -20q0 -21 26 -26h110q81 0 143 -59q59 -62 59 -143v-216l-8 18q-8 19 -29 42.5t-61 42t-104 18.5q-62 0 -116 -28q-64 -34 -101 -94t-37 -132v-147q0 -69 36 -129t97 -94q57 -30 113 -31
q67 0 112 20.5t69 44.5t29 38l1 -77q6 -26 25 -26zM254 52q-84 0 -143 59t-59 143v147q0 84 59 143t143 59q81 0 142 -59q60 -62 60 -143v-147q0 -84 -59.5 -143t-142.5 -59z" />
    <glyph glyph-name="b" unicode="b" 
d="M272 1l-18 -1q-62 0 -114.5 29t-87.5 92v-98q0 -6 -6 -14.5t-20 -8.5t-18 8q-8 4 -8 18v1381q0 14 8 19q4 7 18 7q21 0 26 -26v-525q73 120 201 122h1q104 0 178.5 -74.5t74.5 -179.5v-496l-2 -32v-1q-10 -83 -73 -146t-145 -73zM254 52l21 1q72 9 121 58t58 121h1
q1 7 1 518q0 84 -59.5 143t-142.5 59q-77 0 -134 -51t-67 -129l-1 -22q0 -507 1 -517q9 -78 65.5 -129.5t135.5 -51.5z" />
    <glyph glyph-name="c" unicode="c" horiz-adv-x="619" 
d="M397 0q14 0 18 8q8 8 8 18l-1 6q-8 20 -25 20h-144q-83 0 -142.5 59t-59.5 143v496q0 84 59.5 143t142.5 59h144q14 0 20 8.5t6 18.5q0 12 -8 18.5t-18 6.5h-144q-101 0 -177 -76.5t-76 -177.5v-496q0 -66 33 -125q36 -60 94.5 -94.5t125.5 -34.5h144z" />
    <glyph glyph-name="d" unicode="d" 
d="M481 0q-14 0 -19.5 8.5t-5.5 14.5l-1 98q-35 -63 -87.5 -92t-113.5 -29q-17 0 -34 2q-82 10 -145 73t-73 146l-1 15l-1 514q0 105 74.5 179.5t179.5 74.5q130 -4 202 -122v525q0 22 25 26q14 0 19 -7q7 -5 7 -19v-1381q0 -14 -7 -18q-5 -8 -19 -8zM254 52
q78 0 134.5 51.5t66.5 129.5l1 21q0 507 -2 518q-10 78 -67 129t-133 51q-84 0 -143 -59t-59 -143q0 -510 1 -518q9 -72 58 -121t121 -58z" />
    <glyph glyph-name="e" unicode="e" horiz-adv-x="708" 
d="M448 0q14 0 18 8q8 4 8 18q-1 14 -13 22q-6 4 -207 4q-84 0 -143 59t-59 143v90h253q84 0 143 59.5t59 142.5v204q0 102 -74 179q-76 75 -179 75t-178.5 -77.5t-75.5 -183.5v-489q0 -68 34 -126.5t92.5 -93t127.5 -34.5h194zM285 396h-233v350q0 85 57.5 144.5
t143.5 61.5q82 0 143 -59q60 -62 60 -143v-184q0 -70 -50 -120t-121 -50z" />
    <glyph glyph-name="f" unicode="f" horiz-adv-x="552" 
d="M26 0q18 0 23 14q3 6 3 944h271q22 0 26 26q0 21 -26 26h-271v149q0 92 65 157.5t158 65.5h154q7 0 12 3q14 6 14 22q0 26 -26 26h-154q-70 0 -133.5 -35t-100.5 -96q-39 -64 -41 -137v-1139q0 -14 8 -18q4 -8 18 -8z" />
    <glyph glyph-name="g" unicode="g" horiz-adv-x="720" 
d="M240 -417h-141q-9 0 -16 5h-1q-9 8 -9 21q0 21 25 25h141q93 5 155 68.5t62 154.5v256q-34 -47 -91 -75q-52 -25 -113 -25q-21 0 -43 3q-79 15 -133.5 71t-65.5 122q-10 57 -10 120v433l1 13q7 103 79 172t174 69q63 0 106.5 -24t67 -50t28.5 -35l2 85q2 17 13 21l11 3
q21 0 25 -26v-1133q0 -71 -35 -134q-39 -70 -111 -108q-56 -31 -121 -32zM250 65q30 0 75.5 14t88 66t42.5 121l1 457q0 37 -6 78t-37 84q-67 79 -160 79q-84 0 -143 -59t-59 -143v-496l1 -22q18 -118 126 -166q36 -13 71 -13z" />
    <glyph glyph-name="h" unicode="h" 
d="M483 0q-8 0 -17.5 6.5t-9.5 19.5v724q0 34 -4 41q-27 104 -112 139q-43 17 -86 17q-60 -2 -110.5 -36.5t-87.5 -118.5q-4 -10 -4 -42v-724q0 -15 -14 -22q-6 -4 -12 -4q-24 0 -26 26v1382q0 21 26 25q14 0 18 -7q8 -4 8 -18v-533q21 51 77.5 90t126.5 39h4
q102 -6 172 -76q76 -76 76 -178v-724q0 -7 -4 -13q-10 -13 -21 -13z" />
    <glyph glyph-name="i" unicode="i" horiz-adv-x="300" 
d="M26 0q21 0 26 26v952q0 21 -26 26q-22 0 -26 -26v-952q0 -22 26 -26zM26 1262q21 0 26 25v120q0 22 -26 26q-22 0 -26 -26v-120q0 -21 26 -25z" />
    <glyph glyph-name="j" unicode="j" horiz-adv-x="502" 
d="M9 -417q66 0 131 35t103.5 97.5t40.5 136.5v1138q0 20 -26 26h-161q-22 0 -26 -26q0 -21 26 -25h135v-1107q0 -93 -65.5 -158t-157.5 -65h-154q-18 0 -25 -21v-4q0 -13 3.5 -16.5t8.5 -7t13 -3.5h154z" />
    <glyph glyph-name="k" unicode="k" horiz-adv-x="716" 
d="M520 0l9 1q16 9 16 24l-1 10l-221 594q128 344 128 349q0 6 -4 13t-13 11q-4 1 -9 1q-6 0 -13 -4t-11 -12l-123 -333h-227v753q0 14 -7 18q-4 8 -18 8q-22 0 -26 -26v-1381q0 -22 26 -26q21 0 25 26v577h227l217 -586q4 -9 11 -13t14 -4z" />
    <glyph glyph-name="l" unicode="l" horiz-adv-x="309" 
d="M47 0q21 0 26 26v1381q0 22 -26 26h-161q-22 0 -26 -26q0 -21 26 -25h135v-1356q0 -22 26 -26z" />
    <glyph glyph-name="m" unicode="m" horiz-adv-x="877" 
d="M652 0q-12 0 -17 7q-9 4 -9 19v795q0 53 -39 92t-92 39q-54 0 -92 -38.5t-38 -92.5v-795q0 -15 -9 -20q-5 -6 -17 -6t-17 6q-9 5 -9 20v795q0 53 -38 93q-40 38 -93 38q-37 0 -66.5 -23.5t-46.5 -54.5t-17 -53v-795q0 -15 -9 -20q-8 -6 -17 -6q-22 0 -26 26v954
q4 24 26 24q21 0 26 -26v-59l6 13q6 13 22.5 29.5t47 29.5t79.5 13q37 0 64 -16.5t45 -37t26 -37.5l9 -16l10 16q9 17 28 37.5t46.5 37t64.5 16.5q69 0 124 -54q54 -56 54 -129v-795q0 -22 -26 -26z" />
    <glyph glyph-name="n" unicode="n" 
d="M481 0q22 0 26 26v724q0 68 -34 127t-94 93q-58 34 -125 34t-107 -22t-61 -49.5t-28 -49.5l-7 -22l-1 117q-1 15 -8.5 20.5t-15.5 5.5q-22 0 -26 -26v-952q0 -14 8 -18q4 -8 18 -8q13 0 22 12q4 7 4 738q0 84 59 143t143 59q83 0 142.5 -59t59.5 -143v-724q0 -8 4 -15
q8 -11 21 -11z" />
    <glyph glyph-name="o" unicode="o" 
d="M254 0q104 0 178.5 74.5t74.5 179.5v496q0 102 -74 179q-78 75 -179 75q-105 0 -179.5 -74.5t-74.5 -179.5v-496q0 -105 74.5 -179.5t179.5 -74.5zM254 52q-84 0 -143 59t-59 143v496q0 84 59 143t143 59q81 0 143 -59q59 -62 59 -143v-496q0 -84 -59.5 -143t-142.5 -59z
" />
    <glyph glyph-name="p" unicode="p" 
d="M26 -417q-14 0 -18 8q-8 4 -8 18v1381q0 14 8 19q4 7 18 7t20 -8.5t6 -18.5v-93q35 62 87.5 91t114.5 29q17 0 33 -2q82 -9 145 -72t73 -147l2 -32v-497q0 -105 -74.5 -179t-178.5 -74q-130 4 -202 121v-525q0 -22 -26 -26zM254 64q83 0 142.5 59.5t59.5 142.5
q0 512 -2 518q-9 72 -58 121t-121 58l-21 2q-79 0 -135.5 -52t-65.5 -130l-1 -20q0 -507 1 -519q10 -78 67 -129t134 -51z" />
    <glyph glyph-name="q" unicode="q" horiz-adv-x="736" 
d="M580 -417q14 0 18 8q8 4 8 18q-5 26 -26 26h-73v1355q0 26 -26 26q-11 0 -17.5 -5t-7 -10t-1.5 -80l-1 -25q-67 120 -196 120h-4q-32 0 -61 -7q-56 -16 -94 -46h-1q-37 -28 -65 -76l-17 -37q-6 -14 -14 -54q-1 -16 -2 -530q0 -46 15 -87q37 -96 128 -141q48 -25 111 -25
q127 0 202 121v-525q4 -26 25 -26h99zM254 64h-16q-124 17 -172 133q-16 56 -16 114l2 426q0 36 6 71q7 39 33 72q50 66 131 82q16 3 33 3q13 0 26 -2q116 -22 160 -131q16 -55 16 -112v-384q0 -109 -29 -167q-58 -100 -174 -105z" />
    <glyph glyph-name="r" unicode="r" horiz-adv-x="569" 
d="M26 0q-22 0 -26 25v955q0 5 2 9q6 17 24 17q21 0 26 -26v-104l10 23q10 22 44 49.5t103 45.5q47 12 116 12q32 0 69 -3h4q4 0 18.5 -3t14.5 -22q0 -17 -9.5 -21.5t-23.5 -4.5h-144q-47 0 -84 -23t-63 -56.5t-40.5 -67t-14.5 -55.5v-725q0 -7 -4 -13q-8 -12 -22 -12z" />
    <glyph glyph-name="s" unicode="s" horiz-adv-x="697" 
d="M254 0q68 0 126.5 34t93.5 94q33 59 33 126v147q0 96 -67 172q-80 82 -186 82h-54q-59 0 -105 43q-43 46 -43 105q0 62 43.5 105.5t104.5 43.5h168q21 0 26 26q0 21 -26 26h-168q-57 0 -105.5 -30.5t-74.5 -82.5q-20 -42 -20 -88q0 -80 60 -140t140 -60h54
q83 0 142.5 -59t59.5 -143v-147q0 -84 -59.5 -143t-142.5 -59q-235 0 -241 -4q-13 -9 -13 -22q0 -14 8 -18q4 -8 18 -8h228z" />
    <glyph glyph-name="t" unicode="t" horiz-adv-x="600" 
d="M429 0q8 0 13.5 4.5t6.5 7.5q5 4 5 14q0 17 -14 23q-6 3 -166 3q-92 0 -157.5 65.5t-65.5 157.5v673h272q21 0 26 25q0 22 -26 26h-272q0 415 -3 420q-5 15 -23 15q-14 0 -18 -8q-7 -4 -7 -18v-1138q1 -71 37 -133q25 -32 25 -35q3 -4 4 -7q89 -95 208 -95h155z" />
    <glyph glyph-name="u" unicode="u" 
d="M482 0q25 5 25 26v952q0 14 -7 18q-5 8 -19 8q-13 0 -22 -13q-3 -6 -3 -737q0 -84 -59.5 -143t-142.5 -59q-84 0 -143 59t-59 143v724q-1 8 -5 15q-8 11 -21 11q-22 0 -26 -26v-724q0 -103 73.5 -177t180.5 -77q63 1 103 21t62 45.5t30 45.5l8 20v-107q1 -15 9.5 -20
t15.5 -5z" />
    <glyph glyph-name="v" unicode="v" horiz-adv-x="704" 
d="M251 0q-15 0 -20.5 10t-5.5 14q-255 940 -255 951q0 19 19 26l6 1q18 0 25 -19l231 -861l230 860q7 20 25 20l6 -1q20 -8 20 -24l-1 -7q-222 -833 -254 -946q-1 -6 -6 -15t-20 -9z" />
    <glyph glyph-name="w" unicode="w" horiz-adv-x="925" 
d="M210 0q-7 0 -14.5 4.5t-11.5 18.5l-213 947l-1 8q0 18 20 25l6 1q17 0 25 -20l189 -842l135 700l7 35v2q7 20 25 20q19 0 24 -22l141 -739l191 846q7 20 25 20l6 -1q19 -7 19 -25l-1 -8l-215 -955q-7 -14 -22 -14q-6 0 -14 3t-11 14l-143 749l-145 -753q-2 -8 -16 -13z
" />
    <glyph glyph-name="x" unicode="x" horiz-adv-x="731" 
d="M495 0q6 0 12 2q14 10 14 21q0 8 -232 478q232 470 232 478q0 10 -14 20q-6 3 -12 3t-12.5 -3.5t-10.5 -11.5l-212 -428l-211 428q-4 8 -10.5 11.5t-12.5 3.5t-12 -3q-14 -8 -14 -21q0 -7 232 -477q-232 -470 -232 -478l1 -6q5 -17 25 -17q6 0 12.5 3t10.5 11l211 428
l212 -428q4 -8 10.5 -11t12.5 -3z" />
    <glyph glyph-name="y" unicode="y" horiz-adv-x="720" 
d="M239 -417q65 2 122 32q71 38 111 108q35 64 35 134v1133q0 14 -8 19q-4 7 -18 7t-22 -12q-4 -7 -4 -14v-724q0 -83 -59 -142.5t-143 -59.5q-81 0 -143 59q-59 62 -59 143v724q0 8 -4 14q-6 12 -22 12q-21 0 -25 -26v-724q0 -101 74 -179q74 -74 179 -74q55 0 93.5 18.5
t62.5 42t35 42.5l11 18v-277q0 -91 -62 -154.5t-155 -67.5q-145 0 -151 -3q-12 -7 -12 -21q0 -5 1 -9.5t6 -11.5t17 -7h140z" />
    <glyph glyph-name="z" unicode="z" 
d="M481 0q14 0 19 8q7 4 7 18q0 21 -26 26h-414q440 920 440 926q0 21 -26 26h-455q-14 0 -18 -8q-8 -4 -8 -18q0 -21 26 -26h414q-440 -920 -440 -926q0 -22 26 -26h455z" />
    <glyph glyph-name="bar" unicode="|" horiz-adv-x="299" 
d="M26 -360q21 0 25 26v1971q0 14 -7 19q-4 7 -18 7q-22 0 -26 -26v-1971q0 -22 26 -26z" />
    <glyph glyph-name="asciitilde" unicode="~" horiz-adv-x="789" 
d="M428 1312q53 0 122 45l25 15q7 6 7 13l-1 7l-2 1q-3 5 -10 6q-7 0 -21 -9q-23 -12 -51 -22.5t-61 -10.5q-49 0 -96 19q-45 16 -94 30q-72 23 -99 23q-38 0 -73 -17l-67 -39q-7 -5 -7 -12q0 -4 2 -8v-1q5 -6 12 -6q4 0 7 2q66 33 122 33q24 0 45.5 -5t42.5 -12l42 -13
q119 -39 155 -39z" />
    <glyph glyph-name="exclamdown" unicode="&#xa1;" horiz-adv-x="299" 
d="M26 635q-26 -4 -26 -26v-983q4 -26 26 -26q14 0 18 8q8 4 8 18v983q-5 26 -26 26zM26 1033q-26 -4 -26 -26v-120q4 -25 26 -25q26 4 26 25v120q-5 26 -26 26z" />
    <glyph glyph-name="copyright" unicode="&#xa9;" horiz-adv-x="1057" 
d="M436 0q120 0 219 59t158 158t59 219v132q0 174 -128 308q-133 128 -308 128q-120 0 -219 -59t-158 -158t-59 -219v-132q0 -120 59 -219t158 -158t219 -59zM436 52q-106 0 -193.5 52t-139 139t-51.5 193v132q0 106 51.5 193t139 139t193.5 52q154 0 272 -113
q113 -117 113 -271v-132q0 -106 -52 -193t-139.5 -139t-193.5 -52zM512 245h-72q-36 0 -68 18q-65 46 -65 115v248q0 55 39.5 94.5t93.5 39.5h72q12 0 12 -4q6 -6 6 -17q-1 -11 -6 -15t-84 -4q-39 0 -66.5 -27.5t-27.5 -66.5v-248q0 -39 27.5 -66.5t66.5 -27.5q77 0 82 -3
q9 -6 9 -15l-1 -6q-5 -15 -18 -15z" />
    <glyph glyph-name="guillemotleft" unicode="&#xab;" horiz-adv-x="843" 
d="M504 71q26 3 26 12q0 6 -180 438l179 428l1 7q0 4 -4.5 9.5t-21.5 5.5q-12 0 -19 -6t-9 -12l-181 -432l181 -432q6 -13 15.5 -15.5t12.5 -2.5zM235 0q5 0 9 2q16 9 16 25q0 4 -204 494q204 490 204 493q0 17 -16 26q-4 2 -9 2q-16 0 -24 -16l-211 -505l211 -505
q8 -16 24 -16z" />
    <glyph glyph-name="registered" unicode="&#xae;" horiz-adv-x="1057" 
d="M445 9q120 0 219 59t158 158t59 219v132q0 174 -128 308q-133 128 -308 128q-120 0 -219 -59t-158 -158t-59 -219v-132q0 -120 59 -219t158 -158t219 -59zM445 61q-106 0 -193.5 52t-139 139t-51.5 193v132q0 106 51.5 193t139 139t193.5 52q154 0 272 -113
q113 -117 113 -271v-132q0 -106 -52 -193t-139.5 -139t-193.5 -52zM563 246q-12 0 -19 12l-58 142q-7 -1 -84 -1v-133q0 -20 -19 -20q-17 0 -20 20v471q-32 0 -32 20q0 19 20 19h122q40 -1 70 -27q36 -34 36 -81v-161q0 -56 -55 -95q58 -143 58 -147q0 -3 -2.5 -8.5t-8 -8
t-8.5 -2.5zM471 438q28 0 48.5 21t20.5 48v161q0 28 -19 47.5t-48 21.5h-71v-299h69z" />
    <glyph glyph-name="macron" unicode="&#xaf;" horiz-adv-x="997" 
d="M906 1519q22 0 26 26q0 21 -26 26h-891q-14 0 -18 -8q-8 -4 -8 -18q0 -22 26 -26h891z" />
    <glyph glyph-name="guillemotright" unicode="&#xbb;" horiz-adv-x="843" 
d="M26 71q3 0 12.5 2.5t15.5 15.5l181 432l-181 432q-2 6 -9 12t-19 6q-17 0 -21.5 -5.5t-4.5 -9.5l1 -7l179 -428q-180 -432 -180 -438q0 -9 26 -12zM295 0q16 0 24 16l211 505l-211 505q-8 16 -24 16q-5 0 -9 -2q-16 -9 -16 -26q0 -3 204 -493q-204 -490 -204 -494
q0 -16 16 -25q4 -2 9 -2z" />
    <glyph glyph-name="questiondown" unicode="&#xbf;" horiz-adv-x="633" 
d="M253 1034q-21 0 -26 -26v-120q0 -22 26 -26q22 0 26 26v120q0 21 -26 26zM253 635q-21 0 -26 -25l1 -423q0 -30 -18.5 -64.5t-74.5 -65.5l-11 -10h-8q-25 -15 -45 -36q-71 -74 -71 -170q0 -61 30 -116q33 -58 89 -91.5t122 -33.5h146q14 0 19 8q7 4 7 18q0 13 -11 21
q-7 5 -15 5h-146q-78 0 -133.5 55.5t-55.5 133.5q0 107 104 167q30 17 74.5 49.5t49.5 61.5l-1 491q0 21 -26 25z" />
    <glyph glyph-name="Agrave" unicode="&#xc0;" horiz-adv-x="839" 
d="M694 0l7 1q18 7 18 24v7q-364 1379 -369 1392q-9 9 -20 9l-7 -1q-18 -7 -18 -21q-365 -1382 -365 -1387q0 -16 19 -23l7 -1q17 0 24 19l87 329h506l87 -329q7 -19 24 -19zM569 400h-478l239 906zM322 1685q18 4 18 25v6l-39 145q-4 18 -25 18q-25 0 -25 -27v-4l39 -145
q5 -18 26 -18h6z" />
    <glyph glyph-name="Aacute" unicode="&#xc1;" horiz-adv-x="839" 
d="M694 0l7 1q18 7 18 24v7q-364 1379 -369 1392q-9 9 -20 9l-7 -1q-18 -7 -18 -21q-365 -1382 -365 -1387q0 -16 19 -23l7 -1q17 0 24 19l87 329h506l87 -329q7 -19 24 -19zM569 400h-478l239 906zM329 1685h6q21 0 26 18l39 145v4q0 27 -25 27q-20 0 -25 -18l-39 -145v-6
q0 -21 18 -25z" />
    <glyph glyph-name="Acircumflex" unicode="&#xc2;" horiz-adv-x="839" 
d="M694 0l7 1q18 7 18 24v7q-364 1379 -369 1392q-9 9 -20 9l-7 -1q-18 -7 -18 -21q-365 -1382 -365 -1387q0 -16 19 -23l7 -1q17 0 24 19l87 329h506l87 -329q7 -19 24 -19zM569 400h-478l239 906zM10 1701q0 -5 2 -9q9 -16 25 -16q4 0 294 134q290 -134 293 -134
q17 0 26 16q2 4 2 9q0 16 -16 24l-305 141l-305 -141q-16 -8 -16 -24z" />
    <glyph glyph-name="Atilde" unicode="&#xc3;" horiz-adv-x="839" 
d="M694 0l7 1q18 7 18 24v7q-364 1379 -369 1392q-9 9 -20 9l-7 -1q-18 -7 -18 -21q-365 -1382 -365 -1387q0 -16 19 -23l7 -1q17 0 24 19l87 329h506l87 -329q7 -19 24 -19zM569 400h-478l239 906zM450 1754q53 0 122 45l25 15q7 6 7 13l-1 7l-2 1q-3 5 -10 6q-7 0 -21 -9
q-23 -12 -51 -22.5t-61 -10.5q-49 0 -96 19q-45 16 -94 30q-72 23 -99 23q-38 0 -73 -17l-67 -39q-7 -5 -7 -12q0 -4 2 -8v-1q5 -6 12 -6q4 0 7 2q66 33 122 33q24 0 45.5 -5t42.5 -12l42 -13q119 -39 155 -39z" />
    <glyph glyph-name="Adieresis" unicode="&#xc4;" horiz-adv-x="839" 
d="M694 0l7 1q18 7 18 24v7q-364 1379 -369 1392q-9 9 -20 9l-7 -1q-18 -7 -18 -21q-365 -1382 -365 -1387q0 -16 19 -23l7 -1q17 0 24 19l87 329h506l87 -329q7 -19 24 -19zM569 400h-478l239 906zM215 1724q24 0 28 28v124q0 23 -28 28q-23 0 -27 -28v-124q0 -23 27 -28z
M438 1724q23 0 28 28v124q0 23 -28 28q-23 0 -28 -28v-124q0 -23 28 -28z" />
    <glyph glyph-name="Aring" unicode="&#xc5;" horiz-adv-x="839" 
d="M349 1438h-26q-75 0 -121.5 53t-46.5 136q0 75 40 128q49 61 128 61h26q74 0 121 -52.5t47 -136.5q0 -75 -40 -128q-50 -61 -128 -61zM569 400h-478l239 906zM-60 24q0 -16 19 -23l7 -1q17 0 24 19l87 329h506l87 -329q7 -19 24 -19l7 1q18 7 18 24v7
q-308 1166 -359 1355q86 4 145 68q63 67 63 172t-62 173t-157 68h-26q-94 0 -158 -69q-62 -72 -62 -172q0 -101 63 -173q55 -58 133 -66q-359 -1359 -359 -1364z" />
    <glyph glyph-name="Ccedilla" unicode="&#xc7;" horiz-adv-x="652" 
d="M408 0q25 0 25 24q0 15 -7 19q-3 4 -7 5q-3 3 -145 3q-92 0 -157.5 65.5t-65.5 157.5v884q0 92 62 155.5t155 67.5h140q25 0 25 26q0 2 -4 13.5t-21 12.5h-141q-64 -2 -121 -32q-71 -38 -111 -108q-35 -64 -35 -135v-884q0 -83 40 -143q39 -63 104 -99q48 -25 99 -30
l-34 -126v-6q0 -21 18 -25h6q21 0 26 18l37 137h112z" />
    <glyph glyph-name="Egrave" unicode="&#xc8;" horiz-adv-x="614" 
d="M366 0q22 0 26 26q0 21 -26 26h-315v900h263q21 0 26 26q0 21 -26 26h-263v378h315q22 0 26 25q0 22 -26 26h-345q-21 -7 -21 -26v-1381q0 -19 21 -26h345zM202 1685q18 4 18 25v6l-39 145q-4 18 -25 18q-25 0 -25 -27v-4l39 -145q5 -18 26 -18h6z" />
    <glyph glyph-name="Eacute" unicode="&#xc9;" horiz-adv-x="614" 
d="M366 0q22 0 26 26q0 21 -26 26h-315v900h263q21 0 26 26q0 21 -26 26h-263v378h315q22 0 26 25q0 22 -26 26h-345q-21 -7 -21 -26v-1381q0 -19 21 -26h345zM169 1685h6q21 0 26 18l39 145v4q0 27 -25 27q-20 0 -25 -18l-39 -145v-6q0 -21 18 -25z" />
    <glyph glyph-name="Ecircumflex" unicode="&#xca;" horiz-adv-x="614" 
d="M366 0q22 0 26 26q0 21 -26 26h-315v900h263q21 0 26 26q0 21 -26 26h-263v378h315q22 0 26 25q0 22 -26 26h-345q-21 -7 -21 -26v-1381q0 -19 21 -26h345zM-140 1701q0 -5 2 -9q9 -16 25 -16q4 0 294 134q290 -134 293 -134q17 0 26 16q2 4 2 9q0 16 -16 24l-305 141
l-305 -141q-16 -8 -16 -24z" />
    <glyph glyph-name="Edieresis" unicode="&#xcb;" horiz-adv-x="613" 
d="M376 5q21 0 26 25q0 21 -26 26h-313v895h261q21 0 26 26q0 21 -26 25h-261v376h313q21 0 26 26q0 21 -26 25h-343q-21 -6 -21 -25v-1374q0 -19 21 -25h343zM85 1754q24 0 28 28v124q0 23 -28 28q-23 0 -27 -28v-124q0 -23 27 -28zM308 1754q23 0 28 28v124q0 23 -28 28
q-23 0 -28 -28v-124q0 -23 28 -28z" />
    <glyph glyph-name="Igrave" unicode="&#xcc;" horiz-adv-x="300" 
d="M26 0q21 0 26 26v1381q0 14 -8 19q-4 7 -18 7q-21 0 -26 -26v-1381q0 -22 26 -26zM32 1685q19 4 19 25l-1 6l-39 145q-4 18 -25 18q-25 0 -25 -27v-4l39 -145q5 -18 26 -18h6z" />
    <glyph glyph-name="Iacute" unicode="&#xcd;" horiz-adv-x="383" 
d="M26 0q21 0 25 26v1381q0 14 -7 19q-4 7 -18 7q-22 0 -26 -26v-1381q0 -22 26 -26zM29 1685h6q21 0 26 18l39 145v4q0 27 -25 27q-20 0 -25 -18l-39 -145v-6q0 -21 18 -25z" />
    <glyph glyph-name="Icircumflex" unicode="&#xce;" horiz-adv-x="588" 
d="M26 0q21 0 25 26v1381q0 14 -7 19q-4 7 -18 7q-22 0 -26 -26v-1381q0 -22 26 -26zM-290 1701q0 -5 2 -9q9 -16 25 -16q4 0 294 134q290 -134 293 -134q17 0 26 16q2 4 2 9q0 16 -16 24l-305 141l-305 -141q-16 -8 -16 -24z" />
    <glyph glyph-name="Idieresis" unicode="&#xcf;" horiz-adv-x="434" 
d="M26 0q21 0 26 26v1381q0 14 -8 19q-4 7 -18 7q-21 0 -26 -26v-1381q0 -22 26 -26zM-84 1754q23 0 28 28v124q0 23 -28 28q-23 0 -28 -28v-124q0 -23 28 -28zM139 1754q23 0 27 28v124q0 23 -27 28q-23 0 -28 -28v-124q0 -23 28 -28z" />
    <glyph glyph-name="Ntilde" unicode="&#xd1;" horiz-adv-x="759" 
d="M523 0q23 0 26 23v1384q0 22 -26 26q-21 0 -25 -26v-1220l-445 1218q-6 17 -12 22t-9 5l-8 2q-4 0 -14 -4t-10 -23v-1381q0 -22 26 -26q21 0 26 26v1215l444 -1215q8 -20 14 -23t13 -3zM400 1754q53 0 122 45l25 15q7 6 7 13l-1 7l-2 1q-3 5 -10 6q-7 0 -21 -9
q-23 -12 -51 -22.5t-61 -10.5q-49 0 -96 19q-45 16 -94 30q-72 23 -99 23q-38 0 -73 -17l-67 -39q-7 -5 -7 -12q0 -4 2 -8v-1q5 -6 12 -6q4 0 7 2q66 33 122 33q24 0 45.5 -5t42.5 -12l42 -13q119 -39 155 -39z" />
    <glyph glyph-name="Ograve" unicode="&#xd2;" horiz-adv-x="759" 
d="M275 0q113 0 193.5 80.5t80.5 194.5v884q0 113 -80.5 193.5t-193.5 80.5q-114 0 -194.5 -80.5t-80.5 -193.5v-884q0 -114 80.5 -194.5t194.5 -80.5zM275 52q-93 0 -158 65t-65 158v884q0 92 65 157.5t158 65.5q92 0 157.5 -65.5t65.5 -157.5v-884q0 -93 -65.5 -158
t-157.5 -65zM272 1685q18 4 18 25v6l-39 145q-4 18 -25 18q-25 0 -25 -27v-4l39 -145q5 -18 26 -18h6z" />
    <glyph glyph-name="Oacute" unicode="&#xd3;" horiz-adv-x="759" 
d="M275 0q113 0 193.5 80.5t80.5 194.5v884q0 113 -80.5 193.5t-193.5 80.5q-114 0 -194.5 -80.5t-80.5 -193.5v-884q0 -114 80.5 -194.5t194.5 -80.5zM275 52q-93 0 -158 65t-65 158v884q0 92 65 157.5t158 65.5q92 0 157.5 -65.5t65.5 -157.5v-884q0 -93 -65.5 -158
t-157.5 -65zM229 1685h6q21 0 26 18l39 145v4q0 27 -25 27q-20 0 -25 -18l-39 -145v-6q0 -21 18 -25z" />
    <glyph glyph-name="Ocircumflex" unicode="&#xd4;" horiz-adv-x="759" 
d="M275 0q113 0 193.5 80.5t80.5 194.5v884q0 113 -80.5 193.5t-193.5 80.5q-114 0 -194.5 -80.5t-80.5 -193.5v-884q0 -114 80.5 -194.5t194.5 -80.5zM275 52q-93 0 -158 65t-65 158v884q0 92 65 157.5t158 65.5q92 0 157.5 -65.5t65.5 -157.5v-884q0 -93 -65.5 -158
t-157.5 -65zM-60 1701q0 -5 2 -9q9 -16 25 -16q4 0 294 134q290 -134 293 -134q17 0 26 16q2 4 2 9q0 16 -16 24l-305 141l-305 -141q-16 -8 -16 -24z" />
    <glyph glyph-name="Otilde" unicode="&#xd5;" horiz-adv-x="759" 
d="M275 0q113 0 193.5 80.5t80.5 194.5v884q0 113 -80.5 193.5t-193.5 80.5q-114 0 -194.5 -80.5t-80.5 -193.5v-884q0 -114 80.5 -194.5t194.5 -80.5zM275 52q-93 0 -158 65t-65 158v884q0 92 65 157.5t158 65.5q92 0 157.5 -65.5t65.5 -157.5v-884q0 -93 -65.5 -158
t-157.5 -65zM400 1754q53 0 122 45l25 15q7 6 7 13l-1 7l-2 1q-3 5 -10 6q-7 0 -21 -9q-23 -12 -51 -22.5t-61 -10.5q-49 0 -96 19q-45 16 -94 30q-72 23 -99 23q-38 0 -73 -17l-67 -39q-7 -5 -7 -12q0 -4 2 -8v-1q5 -6 12 -6q4 0 7 2q66 33 122 33q24 0 45.5 -5t42.5 -12
l42 -13q119 -39 155 -39z" />
    <glyph glyph-name="Odieresis" unicode="&#xd6;" horiz-adv-x="759" 
d="M275 0q113 0 193.5 80.5t80.5 194.5v884q0 113 -80.5 193.5t-193.5 80.5q-114 0 -194.5 -80.5t-80.5 -193.5v-884q0 -114 80.5 -194.5t194.5 -80.5zM275 52q-93 0 -158 65t-65 158v884q0 92 65 157.5t158 65.5q92 0 157.5 -65.5t65.5 -157.5v-884q0 -93 -65.5 -158
t-157.5 -65zM155 1754q24 0 28 28v124q0 23 -28 28q-23 0 -27 -28v-124q0 -23 27 -28zM378 1754q23 0 28 28v124q0 23 -28 28q-23 0 -28 -28v-124q0 -23 28 -28z" />
    <glyph glyph-name="Oslash" unicode="&#xd8;" horiz-adv-x="759" 
d="M92 146q11 -15 25 -29q65 -65 158 -65q92 0 157.5 65t65.5 158v884q0 42 -14 79q-107 -300 -392 -1092zM61 209l390 1086q-8 11 -18 22q-66 65 -158 65q-93 0 -158 -65.5t-65 -157.5v-884q0 -35 9 -66zM72 89q-11 -30 -22 -61q-9 -20 -24 -20l-7 1q-19 9 -19 24l1 8
l35 97q-36 61 -36 137v884q0 113 80.5 193.5t194.5 80.5q113 0 194 -80q1 -2 2 -3l27 75q9 20 25 20q19 0 22 -13q4 -4 4 -11q0 -1 -41 -117q41 -64 41 -145v-884q0 -114 -80.5 -194.5t-193.5 -80.5q-114 0 -194 81q-5 4 -9 8z" />
    <glyph glyph-name="Ugrave" unicode="&#xd9;" horiz-adv-x="758" 
d="M275 0q75 0 141 39q125 80 133 229v1139q0 14 -8 19q-4 7 -18 7q-17 0 -23 -14q-2 -6 -2 -1144q0 -93 -65.5 -158t-157.5 -65q-93 0 -158 65t-65 158q0 1138 -3 1144q-7 14 -23 14q-22 0 -26 -26v-1132q0 -73 35 -135t98 -101q66 -39 142 -39zM292 1685q18 4 18 25v6
l-39 145q-4 18 -25 18q-25 0 -25 -27v-4l39 -145q5 -18 26 -18h6z" />
    <glyph glyph-name="Uacute" unicode="&#xda;" horiz-adv-x="758" 
d="M275 0q75 0 141 39q125 80 133 229v1139q0 14 -8 19q-4 7 -18 7q-17 0 -23 -14q-2 -6 -2 -1144q0 -93 -65.5 -158t-157.5 -65q-93 0 -158 65t-65 158q0 1138 -3 1144q-7 14 -23 14q-22 0 -26 -26v-1132q0 -73 35 -135t98 -101q66 -39 142 -39zM249 1685h6q21 0 26 18
l39 145v4q0 27 -25 27q-20 0 -25 -18l-39 -145v-6q0 -21 18 -25z" />
    <glyph glyph-name="Ucircumflex" unicode="&#xdb;" horiz-adv-x="758" 
d="M275 0q75 0 141 39q125 80 133 229v1139q0 14 -8 19q-4 7 -18 7q-17 0 -23 -14q-2 -6 -2 -1144q0 -93 -65.5 -158t-157.5 -65q-93 0 -158 65t-65 158q0 1138 -3 1144q-7 14 -23 14q-22 0 -26 -26v-1132q0 -73 35 -135t98 -101q66 -39 142 -39zM-50 1701q0 -5 2 -9
q9 -16 25 -16q4 0 294 134q290 -134 293 -134q17 0 26 16q2 4 2 9q0 16 -16 24l-305 141l-305 -141q-16 -8 -16 -24z" />
    <glyph glyph-name="Udieresis" unicode="&#xdc;" horiz-adv-x="758" 
d="M275 0q75 0 141 39q125 80 133 229v1139q0 14 -8 19q-4 7 -18 7q-17 0 -23 -14q-2 -6 -2 -1144q0 -93 -65.5 -158t-157.5 -65q-93 0 -158 65t-65 158q0 1138 -3 1144q-7 14 -23 14q-22 0 -26 -26v-1132q0 -73 35 -135t98 -101q66 -39 142 -39zM155 1754q24 0 28 28v124
q0 23 -28 28q-23 0 -27 -28v-124q0 -23 27 -28zM378 1754q23 0 28 28v124q0 23 -28 28q-23 0 -28 -28v-124q0 -23 28 -28z" />
    <glyph glyph-name="Yacute" unicode="&#xdd;" horiz-adv-x="825" 
d="M310 0q22 0 26 26v685l12 28q273 664 273 669q0 16 -16 24q-5 2 -10 2q-16 0 -24 -16l-261 -634l-261 634q-8 16 -23 16q-5 0 -10 -2q-16 -8 -16 -24q0 -5 2 -10l283 -687v-685q0 -22 25 -26zM309 1685h6q21 0 26 18l39 145v4q0 27 -25 27q-20 0 -25 -18l-39 -145v-6
q0 -21 18 -25z" />
    <glyph glyph-name="agrave" unicode="&#xe0;" horiz-adv-x="720" 
d="M482 0q25 6 25 26v724q0 105 -74 179.5t-179 74.5h-110q-12 0 -17 -6q-9 -9 -9 -20q0 -21 26 -26h110q81 0 143 -59q59 -62 59 -143v-216l-8 18q-8 19 -29 42.5t-61 42t-104 18.5q-62 0 -116 -28q-64 -34 -101 -94t-37 -132v-147q0 -69 36 -129t97 -94q57 -30 113 -31
q67 0 112 20.5t69 44.5t29 38l1 -77q6 -26 25 -26zM254 52q-84 0 -143 59t-59 143v147q0 84 59 143t143 59q81 0 142 -59q60 -62 60 -143v-147q0 -84 -59.5 -143t-142.5 -59zM292 1248q18 4 18 25v6l-39 145q-4 18 -25 18q-25 0 -25 -27v-4l39 -145q5 -18 26 -18h6z" />
    <glyph glyph-name="aacute" unicode="&#xe1;" horiz-adv-x="720" 
d="M482 0q25 6 25 26v724q0 105 -74 179.5t-179 74.5h-110q-12 0 -17 -6q-9 -9 -9 -20q0 -21 26 -26h110q81 0 143 -59q59 -62 59 -143v-216l-8 18q-8 19 -29 42.5t-61 42t-104 18.5q-62 0 -116 -28q-64 -34 -101 -94t-37 -132v-147q0 -69 36 -129t97 -94q57 -30 113 -31
q67 0 112 20.5t69 44.5t29 38l1 -77q6 -26 25 -26zM254 52q-84 0 -143 59t-59 143v147q0 84 59 143t143 59q81 0 142 -59q60 -62 60 -143v-147q0 -84 -59.5 -143t-142.5 -59zM239 1237h6q21 0 26 18l39 145v4q0 27 -25 27q-20 0 -25 -18l-39 -145v-6q0 -21 18 -25z" />
    <glyph glyph-name="acircumflex" unicode="&#xe2;" horiz-adv-x="720" 
d="M482 0q25 6 25 26v724q0 105 -74 179.5t-179 74.5h-110q-12 0 -17 -6q-9 -9 -9 -20q0 -21 26 -26h110q81 0 143 -59q59 -62 59 -143v-216l-8 18q-8 19 -29 42.5t-61 42t-104 18.5q-62 0 -116 -28q-64 -34 -101 -94t-37 -132v-147q0 -69 36 -129t97 -94q57 -30 113 -31
q67 0 112 20.5t69 44.5t29 38l1 -77q6 -26 25 -26zM254 52q-84 0 -143 59t-59 143v147q0 84 59 143t143 59q81 0 142 -59q60 -62 60 -143v-147q0 -84 -59.5 -143t-142.5 -59zM-56 1264q0 -5 2 -9q9 -16 25 -16q4 0 294 134q290 -134 293 -134q17 0 26 16q2 4 2 9
q0 16 -16 24l-305 141l-305 -141q-16 -8 -16 -24z" />
    <glyph glyph-name="atilde" unicode="&#xe3;" horiz-adv-x="720" 
d="M482 0q25 6 25 26v724q0 105 -74 179.5t-179 74.5h-110q-12 0 -17 -6q-9 -9 -9 -20q0 -21 26 -26h110q81 0 143 -59q59 -62 59 -143v-216l-8 18q-8 19 -29 42.5t-61 42t-104 18.5q-62 0 -116 -28q-64 -34 -101 -94t-37 -132v-147q0 -69 36 -129t97 -94q57 -30 113 -31
q67 0 112 20.5t69 44.5t29 38l1 -77q6 -26 25 -26zM254 52q-84 0 -143 59t-59 143v147q0 84 59 143t143 59q81 0 142 -59q60 -62 60 -143v-147q0 -84 -59.5 -143t-142.5 -59zM400 1312q53 0 122 45l25 15q7 6 7 13l-1 7l-2 1q-3 5 -10 6q-7 0 -21 -9q-23 -12 -51 -22.5
t-61 -10.5q-49 0 -96 19q-45 16 -94 30q-72 23 -99 23q-38 0 -73 -17l-67 -39q-7 -5 -7 -12q0 -4 2 -8v-1q5 -6 12 -6q4 0 7 2q66 33 122 33q24 0 45.5 -5t42.5 -12l42 -13q119 -39 155 -39z" />
    <glyph glyph-name="adieresis" unicode="&#xe4;" horiz-adv-x="720" 
d="M482 0q25 6 25 26v724q0 105 -74 179.5t-179 74.5h-110q-12 0 -17 -6q-9 -9 -9 -20q0 -21 26 -26h110q81 0 143 -59q59 -62 59 -143v-216l-8 18q-8 19 -29 42.5t-61 42t-104 18.5q-62 0 -116 -28q-64 -34 -101 -94t-37 -132v-147q0 -69 36 -129t97 -94q57 -30 113 -31
q67 0 112 20.5t69 44.5t29 38l1 -77q6 -26 25 -26zM254 52q-84 0 -143 59t-59 143v147q0 84 59 143t143 59q81 0 142 -59q60 -62 60 -143v-147q0 -84 -59.5 -143t-142.5 -59zM160 1257q24 0 28 28v124q0 23 -28 28q-23 0 -27 -28v-124q0 -23 27 -28zM383 1257q23 0 28 28
v124q0 23 -28 28q-23 0 -28 -28v-124q0 -23 28 -28z" />
    <glyph glyph-name="aring" unicode="&#xe5;" horiz-adv-x="720" 
d="M482 0q25 6 25 26v724q0 105 -74 179.5t-179 74.5h-110q-12 0 -17 -6q-9 -9 -9 -20q0 -21 26 -26h110q81 0 143 -59q59 -62 59 -143v-216l-8 18q-8 19 -29 42.5t-61 42t-104 18.5q-62 0 -116 -28q-64 -34 -101 -94t-37 -132v-147q0 -69 36 -129t97 -94q57 -30 113 -31
q67 0 112 20.5t69 44.5t29 38l1 -77q6 -26 25 -26zM254 52q-84 0 -143 59t-59 143v147q0 84 59 143t143 59q81 0 142 -59q60 -62 60 -143v-147q0 -84 -59.5 -143t-142.5 -59zM302 1117q64 0 107.5 46.5t43.5 118.5t-42.5 119t-108.5 47h-18q-64 0 -108 -47q-43 -50 -43 -119
t44 -119q43 -46 107 -46h18zM302 1152h-18q-51 0 -83 36.5t-32 93.5q0 52 27 88q35 42 88 42h18q51 0 83.5 -36t32.5 -94q0 -51 -28 -88q-34 -42 -88 -42z" />
    <glyph glyph-name="ccedilla" unicode="&#xe7;" horiz-adv-x="619" 
d="M397 0q14 0 18 8q8 8 8 18l-1 6q-8 20 -25 20h-144q-83 0 -142.5 59t-59.5 143v496q0 84 59.5 143t142.5 59h144q14 0 20 8.5t6 18.5q0 12 -8 18.5t-18 6.5h-144q-101 0 -177 -76.5t-76 -177.5v-496q0 -66 33 -125q36 -60 95 -94q52 -31 110 -35l-33 -124v-6
q0 -21 18 -25h6q21 0 26 18l37 137h105z" />
    <glyph glyph-name="egrave" unicode="&#xe8;" horiz-adv-x="708" 
d="M448 0q14 0 18 8q8 4 8 18q-1 14 -13 22q-6 4 -207 4q-84 0 -143 59t-59 143v90h253q84 0 143 59.5t59 142.5v204q0 102 -74 179q-76 75 -179 75t-178.5 -77.5t-75.5 -183.5v-489q0 -68 34 -126.5t92.5 -93t127.5 -34.5h194zM285 396h-233v350q0 85 57.5 144.5
t143.5 61.5q82 0 143 -59q60 -62 60 -143v-184q0 -70 -50 -120t-121 -50zM272 1248q18 4 18 25v6l-39 145q-4 18 -25 18q-25 0 -25 -27v-4l39 -145q5 -18 26 -18h6z" />
    <glyph glyph-name="eacute" unicode="&#xe9;" horiz-adv-x="708" 
d="M448 0q14 0 18 8q8 4 8 18q-1 14 -13 22q-6 4 -207 4q-84 0 -143 59t-59 143v90h253q84 0 143 59.5t59 142.5v204q0 102 -74 179q-76 75 -179 75t-178.5 -77.5t-75.5 -183.5v-489q0 -68 34 -126.5t92.5 -93t127.5 -34.5h194zM285 396h-233v350q0 85 57.5 144.5
t143.5 61.5q82 0 143 -59q60 -62 60 -143v-184q0 -70 -50 -120t-121 -50zM239 1237h6q21 0 26 18l39 145v4q0 27 -25 27q-20 0 -25 -18l-39 -145v-6q0 -21 18 -25z" />
    <glyph glyph-name="ecircumflex" unicode="&#xea;" horiz-adv-x="708" 
d="M448 0q14 0 18 8q8 4 8 18q-1 14 -13 22q-6 4 -207 4q-84 0 -143 59t-59 143v90h253q84 0 143 59.5t59 142.5v204q0 102 -74 179q-76 75 -179 75t-178.5 -77.5t-75.5 -183.5v-489q0 -68 34 -126.5t92.5 -93t127.5 -34.5h194zM285 396h-233v350q0 85 57.5 144.5
t143.5 61.5q82 0 143 -59q60 -62 60 -143v-184q0 -70 -50 -120t-121 -50zM-66 1264q0 -5 2 -9q9 -16 25 -16q4 0 294 134q290 -134 293 -134q17 0 26 16q2 4 2 9q0 16 -16 24l-305 141l-305 -141q-16 -8 -16 -24z" />
    <glyph glyph-name="edieresis" unicode="&#xeb;" horiz-adv-x="709" 
d="M448 0q14 0 18 8q8 4 8 18q-1 14 -13 22q-6 4 -207 4q-84 0 -143 59t-59 143v90h253q84 0 143 59.5t59 142.5v204q0 102 -74 179q-76 75 -179 75t-178.5 -77.5t-75.5 -183.5v-489q0 -68 34 -126.5t92.5 -93t127.5 -34.5h194zM285 396h-233v350q0 85 57.5 144.5
t143.5 61.5q82 0 143 -59q60 -62 60 -143v-184q0 -70 -50 -120t-121 -50zM143 1258q23 0 28 28v124q0 23 -28 28q-23 0 -28 -28v-124q0 -23 28 -28zM366 1258q23 0 28 28v124q0 23 -28 28q-23 0 -28 -28v-124q0 -23 28 -28z" />
    <glyph glyph-name="igrave" unicode="&#xec;" horiz-adv-x="300" 
d="M26 0q21 0 26 26v952q0 21 -26 26q-21 0 -26 -26v-952q0 -22 26 -26zM42 1248q19 4 19 25l-1 6l-39 145q-4 18 -25 18q-25 0 -25 -27v-4l39 -145q5 -18 26 -18h6z" />
    <glyph glyph-name="iacute" unicode="&#xed;" horiz-adv-x="299" 
d="M26 0q21 0 26 26v952q0 21 -26 26q-22 0 -26 -26v-952q0 -22 26 -26zM19 1237h6q21 0 26 18l39 145v4q0 27 -25 27q-20 0 -25 -18l-39 -145v-6q0 -21 18 -25z" />
    <glyph glyph-name="icircumflex" unicode="&#xee;" horiz-adv-x="299" 
d="M26 0q21 0 26 26v952q0 21 -26 26q-22 0 -26 -26v-952q0 -22 26 -26zM-286 1264q0 -5 2 -9q9 -16 25 -16q4 0 294 134q290 -134 293 -134q17 0 26 16q2 4 2 9q0 16 -16 24l-305 141l-305 -141q-16 -8 -16 -24z" />
    <glyph glyph-name="idieresis" unicode="&#xef;" horiz-adv-x="298" 
d="M26 0q21 0 25 26v952q0 21 -25 26q-22 0 -26 -26v-952q0 -22 26 -26zM-97 1258q23 0 28 28v124q0 23 -28 28q-23 0 -28 -28v-124q0 -23 28 -28zM126 1258q23 0 27 28v124q0 23 -27 28q-23 0 -28 -28v-124q0 -23 28 -28z" />
    <glyph glyph-name="ntilde" unicode="&#xf1;" 
d="M481 0q22 0 26 26v724q0 68 -34 127t-94 93q-58 34 -125 34t-107 -22t-61 -49.5t-28 -49.5l-7 -22l-1 117q-1 15 -8.5 20.5t-15.5 5.5q-22 0 -26 -26v-952q0 -14 8 -18q4 -8 18 -8q13 0 22 12q4 7 4 738q0 84 59 143t143 59q83 0 142.5 -59t59.5 -143v-724q0 -8 4 -15
q8 -11 21 -11zM380 1312q53 0 122 45l25 15q7 6 7 13l-1 7l-2 1q-3 5 -10 6q-7 0 -21 -9q-23 -12 -51 -22.5t-61 -10.5q-49 0 -96 19q-45 16 -94 30q-72 23 -99 23q-38 0 -73 -17l-67 -39q-7 -5 -7 -12q0 -4 2 -8v-1q5 -6 12 -6q4 0 7 2q66 33 122 33q24 0 45.5 -5t42.5 -12
l42 -13q119 -39 155 -39z" />
    <glyph glyph-name="ograve" unicode="&#xf2;" 
d="M254 0q104 0 178.5 74.5t74.5 179.5v496q0 102 -74 179q-78 75 -179 75q-105 0 -179.5 -74.5t-74.5 -179.5v-496q0 -105 74.5 -179.5t179.5 -74.5zM254 52q-84 0 -143 59t-59 143v496q0 84 59 143t143 59q81 0 143 -59q59 -62 59 -143v-496q0 -84 -59.5 -143t-142.5 -59z
M272 1248q18 4 18 25v6l-39 145q-4 18 -25 18q-25 0 -25 -27v-4l39 -145q5 -18 26 -18h6z" />
    <glyph glyph-name="oacute" unicode="&#xf3;" 
d="M254 0q104 0 178.5 74.5t74.5 179.5v496q0 102 -74 179q-78 75 -179 75q-105 0 -179.5 -74.5t-74.5 -179.5v-496q0 -105 74.5 -179.5t179.5 -74.5zM254 52q-84 0 -143 59t-59 143v496q0 84 59 143t143 59q81 0 143 -59q59 -62 59 -143v-496q0 -84 -59.5 -143t-142.5 -59z
M219 1237h6q21 0 26 18l39 145v4q0 27 -25 27q-20 0 -25 -18l-39 -145v-6q0 -21 18 -25z" />
    <glyph glyph-name="ocircumflex" unicode="&#xf4;" 
d="M254 0q104 0 178.5 74.5t74.5 179.5v496q0 102 -74 179q-78 75 -179 75q-105 0 -179.5 -74.5t-74.5 -179.5v-496q0 -105 74.5 -179.5t179.5 -74.5zM254 52q-84 0 -143 59t-59 143v496q0 84 59 143t143 59q81 0 143 -59q59 -62 59 -143v-496q0 -84 -59.5 -143t-142.5 -59z
M-76 1264q0 -5 2 -9q9 -16 25 -16q4 0 294 134q290 -134 293 -134q17 0 26 16q2 4 2 9q0 16 -16 24l-305 141l-305 -141q-16 -8 -16 -24z" />
    <glyph glyph-name="otilde" unicode="&#xf5;" 
d="M254 0q104 0 178.5 74.5t74.5 179.5v496q0 102 -74 179q-78 75 -179 75q-105 0 -179.5 -74.5t-74.5 -179.5v-496q0 -105 74.5 -179.5t179.5 -74.5zM254 52q-84 0 -143 59t-59 143v496q0 84 59 143t143 59q81 0 143 -59q59 -62 59 -143v-496q0 -84 -59.5 -143t-142.5 -59z
M380 1312q53 0 122 45l25 15q7 6 7 13l-1 7l-2 1q-3 5 -10 6q-7 0 -21 -9q-23 -12 -51 -22.5t-61 -10.5q-49 0 -96 19q-45 16 -94 30q-72 23 -99 23q-38 0 -73 -17l-67 -39q-7 -5 -7 -12q0 -4 2 -8v-1q5 -6 12 -6q4 0 7 2q66 33 122 33q24 0 45.5 -5t42.5 -12l42 -13
q119 -39 155 -39z" />
    <glyph glyph-name="odieresis" unicode="&#xf6;" 
d="M254 0q104 0 178.5 74.5t74.5 179.5v496q0 102 -74 179q-78 75 -179 75q-105 0 -179.5 -74.5t-74.5 -179.5v-496q0 -105 74.5 -179.5t179.5 -74.5zM254 52q-84 0 -143 59t-59 143v496q0 84 59 143t143 59q81 0 143 -59q59 -62 59 -143v-496q0 -84 -59.5 -143t-142.5 -59z
M133 1258q23 0 28 28v124q0 23 -28 28q-23 0 -28 -28v-124q0 -23 28 -28zM356 1258q23 0 28 28v124q0 23 -28 28q-23 0 -28 -28v-124q0 -23 28 -28z" />
    <glyph glyph-name="oslash" unicode="&#xf8;" 
d="M112 110q59 -58 142 -58t142.5 59t59.5 143v496q0 45 -18 84q-97 -217 -326 -724zM77 156q91 204 328 728q-4 5 -8 9q-62 59 -143 59q-84 0 -143 -59t-59 -143v-496q0 -54 25 -98zM90 60q-10 -23 -21 -46q-11 -16 -23 -16q-5 0 -11 3q-16 10 -16 24q0 1 33 75
q-52 66 -52 154v496q0 105 74.5 179.5t179.5 74.5q97 0 173 -70q16 34 32 70q10 16 23 16q5 0 11 -3q16 -10 16 -23q0 -2 -45 -103q43 -63 43 -141v-496q0 -105 -74.5 -179.5t-178.5 -74.5q-94 0 -164 60z" />
    <glyph glyph-name="ugrave" unicode="&#xf9;" 
d="M482 0q25 5 25 26v952q0 14 -7 18q-5 8 -19 8q-13 0 -22 -13q-3 -6 -3 -737q0 -84 -59.5 -143t-142.5 -59q-84 0 -143 59t-59 143v724q-1 8 -5 15q-8 11 -21 11q-22 0 -26 -26v-724q0 -103 73.5 -177t180.5 -77q63 1 103 21t62 45.5t30 45.5l8 20v-107q1 -15 9.5 -20
t15.5 -5zM272 1248q18 4 18 25v6l-39 145q-4 18 -25 18q-25 0 -25 -27v-4l39 -145q5 -18 26 -18h6z" />
    <glyph glyph-name="uacute" unicode="&#xfa;" 
d="M482 0q25 5 25 26v952q0 14 -7 18q-5 8 -19 8q-13 0 -22 -13q-3 -6 -3 -737q0 -84 -59.5 -143t-142.5 -59q-84 0 -143 59t-59 143v724q-1 8 -5 15q-8 11 -21 11q-22 0 -26 -26v-724q0 -103 73.5 -177t180.5 -77q63 1 103 21t62 45.5t30 45.5l8 20v-107q1 -15 9.5 -20
t15.5 -5zM219 1237h6q21 0 26 18l39 145v4q0 27 -25 27q-20 0 -25 -18l-39 -145v-6q0 -21 18 -25z" />
    <glyph glyph-name="ucircumflex" unicode="&#xfb;" 
d="M482 0q25 5 25 26v952q0 14 -7 18q-5 8 -19 8q-13 0 -22 -13q-3 -6 -3 -737q0 -84 -59.5 -143t-142.5 -59q-84 0 -143 59t-59 143v724q-1 8 -5 15q-8 11 -21 11q-22 0 -26 -26v-724q0 -103 73.5 -177t180.5 -77q63 1 103 21t62 45.5t30 45.5l8 20v-107q1 -15 9.5 -20
t15.5 -5zM-76 1264q0 -5 2 -9q9 -16 25 -16q4 0 294 134q290 -134 293 -134q17 0 26 16q2 4 2 9q0 16 -16 24l-305 141l-305 -141q-16 -8 -16 -24z" />
    <glyph glyph-name="udieresis" unicode="&#xfc;" 
d="M482 0q25 5 25 26v952q0 14 -7 18q-5 8 -19 8q-13 0 -22 -13q-3 -6 -3 -737q0 -84 -59.5 -143t-142.5 -59q-84 0 -143 59t-59 143v724q-1 8 -5 15q-8 11 -21 11q-22 0 -26 -26v-724q0 -103 73.5 -177t180.5 -77q63 1 103 21t62 45.5t30 45.5l8 20v-107q1 -15 9.5 -20
t15.5 -5zM133 1258q23 0 28 28v124q0 23 -28 28q-23 0 -28 -28v-124q0 -23 28 -28zM356 1258q23 0 28 28v124q0 23 -28 28q-23 0 -28 -28v-124q0 -23 28 -28z" />
    <glyph glyph-name="yacute" unicode="&#xfd;" horiz-adv-x="720" 
d="M239 -417q65 2 122 32q71 38 111 108q35 64 35 134v1133q0 14 -8 19q-4 7 -18 7t-22 -12q-4 -7 -4 -14v-724q0 -83 -59 -142.5t-143 -59.5q-81 0 -143 59q-59 62 -59 143v724q0 8 -4 14q-6 12 -22 12q-21 0 -25 -26v-724q0 -101 74 -179q74 -74 179 -74q55 0 93.5 18.5
t62.5 42t35 42.5l11 18v-277q0 -91 -62 -154.5t-155 -67.5q-145 0 -151 -3q-12 -7 -12 -21q0 -5 1 -9.5t6 -11.5t17 -7h140zM219 1237h6q21 0 26 18l39 145v4q0 27 -25 27q-20 0 -25 -18l-39 -145v-6q0 -21 18 -25z" />
    <glyph glyph-name="ydieresis" unicode="&#xff;" horiz-adv-x="720" 
d="M239 -417q65 2 122 32q71 38 111 108q35 64 35 134v1133q0 14 -8 19q-4 7 -18 7t-22 -12q-4 -7 -4 -14v-724q0 -83 -59 -142.5t-143 -59.5q-81 0 -143 59q-59 62 -59 143v724q0 8 -4 14q-6 12 -22 12q-21 0 -25 -26v-724q0 -101 74 -179q74 -74 179 -74q55 0 93.5 18.5
t62.5 42t35 42.5l11 18v-277q0 -91 -62 -154.5t-155 -67.5q-145 0 -151 -3q-12 -7 -12 -21q0 -5 1 -9.5t6 -11.5t17 -7h140zM153 1258q23 0 28 28v124q0 23 -28 28q-23 0 -28 -28v-124q0 -23 28 -28zM376 1258q23 0 28 28v124q0 23 -28 28q-23 0 -28 -28v-124q0 -23 28 -28z
" />
    <glyph glyph-name="gravecomb" unicode="&#x300;" horiz-adv-x="362" 
d="M94 1314q5 0 10 3q15 9 15 23q0 6 -67 155v131q-5 26 -26 26q-26 -4 -26 -26q0 -129 3 -149l67 -148q9 -15 24 -15z" />
    <glyph glyph-name="acutecomb" unicode="&#x301;" horiz-adv-x="302" 
d="M-45 1314q15 0 24 15l67 148q3 20 3 149q0 22 -26 26q-21 0 -26 -26v-131q-67 -149 -67 -155q0 -14 15 -23q5 -3 10 -3z" />
    <glyph glyph-name="u0401" unicode="&#x401;" horiz-adv-x="613" 
d="M376 5q21 0 26 25q0 21 -26 26h-313v895h261q21 0 26 26q0 21 -26 25h-261v376h313q21 0 26 26q0 21 -26 25h-343q-21 -6 -21 -25v-1374q0 -19 21 -25h343zM85 1754q24 0 28 28v124q0 23 -28 28q-23 0 -27 -28v-124q0 -23 27 -28zM308 1754q23 0 28 28v124q0 23 -28 28
q-23 0 -28 -28v-124q0 -23 28 -28z" />
    <glyph glyph-name="u0410" unicode="&#x410;" horiz-adv-x="839" 
d="M694 0l7 1q18 7 18 24v7q-364 1379 -369 1392q-9 9 -20 9l-7 -1q-18 -7 -18 -21q-365 -1382 -365 -1387q0 -16 19 -23l7 -1q17 0 24 19l87 329h506l87 -329q7 -19 24 -19zM569 400h-478l239 906z" />
    <glyph glyph-name="u0411" unicode="&#x411;" horiz-adv-x="758" 
d="M275 0q74 0 137.5 37.5t101.5 102.5q35 64 35 135v454q0 71 -36.5 135.5t-100 102t-137.5 37.5h-224v378h315q22 0 26 25q0 22 -26 26h-345q-21 -7 -21 -26v-1381q0 -22 26 -26h249zM275 52h-224v900h224q92 0 157.5 -65.5t65.5 -157.5v-454q0 -93 -65.5 -158t-157.5 -65
z" />
    <glyph glyph-name="u0412" unicode="&#x412;" horiz-adv-x="772" 
d="M288 0q74 0 138 37t102 103q35 64 35 134v455q0 71 -35 134q-29 51 -76 86q-23 17 -48.5 30t-67.5 20q52 26 83 91q25 53 25 114q0 13 -3 56.5t-59.5 101.5t-177.5 71h-245q-23 0 -29 -24q1 -19 14 -25l11 -3h59v-1355q0 -22 25 -26h249zM288 51h-223v901h223
q92 0 157.5 -65.5t65.5 -157.5v-455q0 -92 -65.5 -157.5t-157.5 -65.5zM204 1005h-139v377q128 -1 165 -2q74 -10 118.5 -61t45.5 -126q-1 -75 -45.5 -126t-118.5 -61z" />
    <glyph glyph-name="u0413" unicode="&#x413;" horiz-adv-x="555" 
d="M26 0q18 0 23 15q2 5 2 1367h315q22 0 26 25q0 22 -26 26h-345q-21 -7 -21 -26v-1381q0 -22 26 -26z" />
    <glyph glyph-name="u0414" unicode="&#x414;" horiz-adv-x="964" 
d="M806 -277q21 0 26 26v280q0 21 -25 26h-157v1330h58q25 5 25 26t-26 26h-248q-118 0 -202 -84t-84 -202v-1096h-141q-25 -5 -25 -26v-280q0 -22 26 -26q21 0 26 26v255h721v-255q0 -22 26 -26zM599 55h-375v1071q0 107 76.5 183t183.5 76h115v-1330z" />
    <glyph glyph-name="u0415" unicode="&#x415;" horiz-adv-x="614" 
d="M366 0q22 0 26 26q0 21 -26 26h-315v900h263q21 0 26 26q0 21 -26 26h-263v378h315q22 0 26 25q0 22 -26 26h-345q-21 -7 -21 -26v-1381q0 -19 21 -26h345z" />
    <glyph glyph-name="u0416" unicode="&#x416;" horiz-adv-x="1095" 
d="M922 0l7 1q19 7 19 25l-222 827l147 548l1 7q0 18 -19 25l-6 1q-18 0 -25 -19l-145 -537h-177v530q0 22 -25 26q-22 0 -26 -26v-530h-183l-144 537q-7 19 -25 19l-7 -1q-19 -7 -19 -25l1 -6l148 -549l-221 -820l-1 -7q0 -18 19 -25l7 -1q17 0 25 19l217 808h183v-800
q0 -22 26 -26q21 0 25 26v800h178l217 -808q7 -19 25 -19z" />
    <glyph glyph-name="u0417" unicode="&#x417;" horiz-adv-x="738" 
d="M274 0q74 0 138 37t102 103q35 64 35 134v455q0 71 -35.5 134t-95.5 100l-58 35l42 53q50 60 50 148q0 52 -22 93q-39 68 -104 104.5t-136 36.5h-165q-12 0 -18 -9.5t-6 -16.5v-2q0 -19 23 -24h166l27 -1q73 -10 117.5 -61t45.5 -126q0 -75 -45 -126.5t-118 -61.5h-2
q-11 -2 -74 -2q-22 0 -26 -25q0 -21 21 -26h138q92 0 157.5 -65.5t65.5 -157.5v-455q0 -92 -65.5 -157.5t-157.5 -65.5h-249q-25 0 -25 -25q0 -22 25 -26h249z" />
    <glyph glyph-name="u0418" unicode="&#x418;" horiz-adv-x="758" 
d="M24 0l8 1q5 1 9.5 6t12.5 26l444 1213v-1220q0 -21 25 -26q22 0 26 26v1376q0 19 -6 22q-7 10 -20 10q-17 0 -24 -18l-447 -1245v1237q0 21 -26 26q-22 0 -26 -26v-1382q0 -11 5 -17t11 -8z" />
    <glyph glyph-name="u0419" unicode="&#x419;" horiz-adv-x="758" 
d="M24 0l8 1q5 1 9.5 6t12.5 26l444 1213v-1220q0 -21 25 -26q22 0 26 26v1376q0 19 -6 22q-7 10 -20 10q-17 0 -24 -18l-447 -1245v1237q0 21 -26 26q-22 0 -26 -26v-1382q0 -11 5 -17t11 -8zM368 1698q22 0 26 25q0 22 -26 26h-187q-14 0 -19 -7q-7 -5 -7 -19
q0 -21 26 -25h187z" />
    <glyph glyph-name="u041A" unicode="&#x41a;" horiz-adv-x="806" 
d="M576 0l7 1q19 7 19 25l-1 6l-217 805l-4 15l142 530h51q22 0 26 26q0 14 -7 18q-5 8 -19 8h-71q-17 0 -24 -19l-145 -537h-281v530q0 22 -26 26q-22 0 -26 -26v-1381q0 -22 26 -26q21 0 26 26v800h282l217 -808q7 -19 25 -19z" />
    <glyph glyph-name="u041B" unicode="&#x41b;" horiz-adv-x="847" 
d="M563 0q22 0 26 26v1356h67q22 0 26 25q0 14 -8 19q-5 7 -18 7h-334q-20 0 -24 -19q-368 -1384 -368 -1389q0 -21 26 -25q18 0 25 19l361 1363h196v-1356q0 -22 25 -26z" />
    <glyph glyph-name="u041C" unicode="&#x41c;" horiz-adv-x="975" 
d="M759 0q21 0 25 26v1381q0 14 -7 19q-4 7 -18 7q-17 0 -25 -17l-342 -948l-339 938q-8 17 -12 22t-15 5q-22 0 -26 -26v-1381q0 -22 26 -26q21 0 26 26v1213l309 -835q5 -14 12.5 -25.5t18.5 -11.5h3q9 0 16 10.5t19 43.5l303 830v-1225q0 -22 26 -26z" />
    <glyph glyph-name="u041D" unicode="&#x41d;" horiz-adv-x="758" 
d="M523 0q22 0 26 26v1381q0 14 -8 19q-4 7 -18 7q-21 0 -25 -26v-445h-446v445q0 22 -26 26q-22 0 -26 -26v-1381q0 -22 26 -26q21 0 26 26v885h446v-885q0 -22 25 -26z" />
    <glyph glyph-name="u041E" unicode="&#x41e;" horiz-adv-x="758" 
d="M275 0q113 0 193.5 80.5t80.5 194.5v884q0 113 -80.5 193.5t-193.5 80.5q-114 0 -194.5 -80.5t-80.5 -193.5v-884q0 -114 80.5 -194.5t194.5 -80.5zM275 52q-93 0 -158 65t-65 158v884q0 92 65 157.5t158 65.5q92 0 157.5 -65.5t65.5 -157.5v-884q0 -93 -65.5 -158
t-157.5 -65z" />
    <glyph glyph-name="u041F" unicode="&#x41f;" horiz-adv-x="758" 
d="M523 0q22 0 26 26v1381q0 14 -8 19q-4 7 -18 7h-497q-22 0 -26 -26v-1381q0 -22 26 -26q21 0 26 26v1356h446v-1356q0 -22 25 -26z" />
    <glyph glyph-name="u0420" unicode="&#x420;" horiz-adv-x="735" 
d="M45 0q14 0 19 8q7 4 7 18v404h223q75 0 138.5 37t101.5 103q35 63 35 134v455q0 70 -35 134q-23 40 -56 70q-77 67 -179 70h-343q-14 0 -18 -7q-8 -5 -8 -19q0 -21 26 -25h64v-1356q0 -22 25 -26zM294 481h-223v901h229q93 -5 155 -68.5t62 -154.5v-455
q0 -92 -65.5 -157.5t-157.5 -65.5z" />
    <glyph glyph-name="u0421" unicode="&#x421;" horiz-adv-x="652" 
d="M408 0q25 0 25 24q0 15 -7 19q-3 4 -7 5q-3 3 -145 3q-92 0 -157.5 65.5t-65.5 157.5v884q0 92 62 155.5t155 67.5h140q25 0 25 26q0 2 -4 13.5t-21 12.5h-141q-64 -2 -121 -32q-71 -38 -111 -108q-35 -64 -35 -135v-884q0 -83 40 -143q39 -63 104 -99q62 -32 130 -32
h134z" />
    <glyph glyph-name="u0422" unicode="&#x422;" horiz-adv-x="683" 
d="M234 0q22 0 26 26v1356h223q22 0 26 25q0 22 -26 26h-497q-22 0 -26 -26q0 -21 26 -25h223v-1356q0 -22 25 -26z" />
    <glyph glyph-name="u0423" unicode="&#x423;" horiz-adv-x="758" 
d="M275 0q53 0 102 20q85 34 133 113q36 61 39 134v1140q0 14 -8 19q-4 7 -18 7q-18 0 -23 -14q-2 -6 -2 -580q0 -93 -65.5 -158t-157.5 -65q-93 0 -158 65t-65 158q0 574 -3 580q-7 14 -23 14q-22 0 -26 -26v-568q0 -75 37.5 -138.5t102.5 -101.5q64 -35 135 -35
q54 0 96 18t70 40.5t42 40.5l15 18v-406q0 -93 -65.5 -158t-157.5 -65h-249q-26 0 -26 -26q0 -22 26 -26h249z" />
    <glyph glyph-name="u0424" unicode="&#x424;" horiz-adv-x="1063" 
d="M440 0q10 0 17.5 7.5t7.5 18.5v278h140q74 0 138 37.5t101 102.5q35 63 35 134v455q0 71 -35 134q-22 40 -56 70q-50 44 -112 61q-41 9 -133 9h-78q0 106 -2 111q-9 15 -25 15q-5 0 -10 -3q-14 -9 -14 -23v-100l-119 1q-26 0 -62 -4q-73 -11 -131 -57q-102 -92 -102 -214
v-455q0 -70 36.5 -135t100 -102t138.5 -37h139v-278q0 -22 26 -26zM605 355h-140v901h145q94 -5 156 -68.5t62 -154.5v-455q0 -92 -65.5 -157.5t-157.5 -65.5zM414 355h-139q-93 0 -158 65.5t-65 157.5v455q0 91 61.5 154.5t155.5 68.5h145v-901z" />
    <glyph glyph-name="u0425" unicode="&#x425;" horiz-adv-x="823" 
d="M595 0q5 0 10 2q16 8 16 23q0 6 -283 692q283 686 283 692q0 15 -16 23q-5 2 -10 2q-16 0 -24 -16l-261 -633l-260 633q-9 16 -24 16q-5 0 -10 -2q-16 -8 -16 -23q0 -6 282 -692q-282 -686 -282 -692q0 -15 16 -23l10 -2q15 0 24 16l260 633l261 -633q8 -16 24 -16z" />
    <glyph glyph-name="u0426" unicode="&#x426;" horiz-adv-x="839" 
d="M686 -277q22 0 26 26v280q0 21 -25 26h-156v1356q0 21 -26 26q-21 0 -26 -26v-1356h-427v1356q0 14 -8 18q-4 8 -18 8q-21 0 -26 -26v-1383q3 -24 26 -24h635v-255q0 -22 25 -26z" />
    <glyph glyph-name="u0427" unicode="&#x427;" horiz-adv-x="758" 
d="M523 0q22 0 26 26v1381q0 9 -5 15.5t-13 9.5l-8 1q-16 0 -23 -14q-2 -6 -2 -938h-223q-93 0 -158.5 65.5t-65.5 157.5q0 709 -2 715q-8 14 -23 14q-10 0 -18 -7.5t-8 -18.5v-708q1 -69 35 -129q38 -67 105 -105q64 -35 135 -35h223v-404q0 -14 7 -18q5 -8 18 -8z" />
    <glyph glyph-name="u0428" unicode="&#x428;" horiz-adv-x="1015" 
d="M802 0q14 0 18 8q8 4 8 18v1381q0 22 -26 26q-21 0 -26 -26v-1355h-336v1355q0 22 -26 26q-21 0 -26 -26v-1355h-336v1355q0 22 -26 26q-22 0 -26 -26v-1381q0 -22 26 -26h776z" />
    <glyph glyph-name="u0429" unicode="&#x429;" horiz-adv-x="1125" 
d="M984 -277q22 0 26 26v280q0 22 -26 26h-155v1356q0 21 -26 26q-21 0 -26 -26v-1356h-337v1356q0 21 -26 26q-21 0 -26 -26v-1356h-336v1356q0 21 -26 26q-22 0 -26 -26v-1382q0 -21 26 -25h933v-255q0 -22 25 -26z" />
    <glyph glyph-name="u042A" unicode="&#x42a;" horiz-adv-x="845" 
d="M372 0q102 3 179 70q34 30 56 70q35 64 35 135v454q0 71 -36.5 135.5t-100 102t-138.5 37.5h-223v403q0 14 -7 19q-5 7 -18 7h-163q-22 0 -26 -26q0 -14 8 -18q4 -7 18 -7h137v-1356q0 -20 23 -26h256zM373 52h-229v900h224q94 -2 158.5 -66.5t64.5 -156.5v-454
q0 -92 -62 -155.5t-156 -67.5z" />
    <glyph glyph-name="u042B" unicode="&#x42b;" horiz-adv-x="1082" 
d="M279 0q102 3 179 70q34 30 56 70q35 64 35 135v454q0 71 -36.5 135.5t-100 102t-138.5 37.5h-223v403q0 14 -7 19q-5 7 -18 7q-22 0 -26 -26v-1381q0 -20 24 -26h255zM280 52h-229v900h224q94 -2 158.5 -66.5t64.5 -156.5v-454q0 -92 -62 -155.5t-156 -67.5zM793 0
q16 0 23 15q3 5 3 1392q0 14 -8 19q-5 7 -18 7q-21 0 -26 -26v-1381q0 -10 7.5 -18t18.5 -8z" />
    <glyph glyph-name="u042C" unicode="&#x42c;" horiz-adv-x="758" 
d="M279 0q102 3 179 70q34 30 56 70q35 64 35 135v454q0 71 -36.5 135.5t-100 102t-138.5 37.5h-223v403q0 14 -7 19q-5 7 -18 7q-22 0 -26 -26v-1381q0 -20 24 -26h255zM280 52h-229v900h224q94 -2 158.5 -66.5t64.5 -156.5v-454q0 -92 -62 -155.5t-156 -67.5z" />
    <glyph glyph-name="u042D" unicode="&#x42d;" horiz-adv-x="651" 
d="M167 0q64 1 121 31q71 38 111 109q35 63 35 134v884q0 77 -41 144q-39 63 -102 97t-132 34h-133q-14 0 -22 -13q-4 -11 -4 -15v-1q4 -13 8 -15.5l8 -5t144 -2.5q94 -2 158 -66.5t64 -156.5v-196h-276q-14 0 -18 -8q-8 -4 -8 -18q0 -21 26 -26h276v-636
q0 -91 -61.5 -154.5t-155.5 -68.5h-139q-26 0 -26 -26q0 -17 21 -25h146z" />
    <glyph glyph-name="u042E" unicode="&#x42e;" horiz-adv-x="1110" 
d="M656 0q113 0 193.5 80.5t80.5 194.5v884q0 113 -80.5 193.5t-193.5 80.5q-114 0 -194.5 -80.5t-80.5 -193.5v-197h-330v445q0 11 -7.5 18.5t-17.5 7.5q-22 0 -26 -26v-1381q0 -22 26 -26q21 0 25 26v885h330v-636q0 -114 80.5 -194.5t194.5 -80.5zM656 52
q-92 0 -157.5 65t-65.5 158v884q0 92 65.5 157.5t157.5 65.5t157.5 -65.5t65.5 -157.5v-884q0 -93 -65.5 -158t-157.5 -65z" />
    <glyph glyph-name="u042F" unicode="&#x42f;" horiz-adv-x="848" 
d="M532 0q22 0 26 26v1356q69 0 74 2q16 8 16 24q0 14 -8 18q-4 8 -18 8h-343q-102 -3 -179 -71q-34 -30 -56 -69q-35 -64 -35 -135v-454q0 -71 35 -135q33 -57 88 -94l40 -27q-172 -419 -172 -425q0 -13 16 -22q5 -2 10 -2q16 0 24 16l172 418l62 -4h223v-404q0 -14 7 -18
q5 -8 18 -8zM507 482h-223q-91 0 -160 67q-63 68 -63 156v454q0 92 61.5 155.5t155.5 67.5h229v-900z" />
    <glyph glyph-name="u0430" unicode="&#x430;" horiz-adv-x="720" 
d="M482 0q25 6 25 26v724q0 105 -74 179.5t-179 74.5h-110q-12 0 -17 -6q-9 -9 -9 -20q0 -21 26 -26h110q81 0 143 -59q59 -62 59 -143v-216l-8 18q-8 19 -29 42.5t-61 42t-104 18.5q-62 0 -116 -28q-64 -34 -101 -94t-37 -132v-147q0 -69 36 -129t97 -94q57 -30 113 -31
q67 0 112 20.5t69 44.5t29 38l1 -77q6 -26 25 -26zM254 52q-84 0 -143 59t-59 143v147q0 84 59 143t143 59q81 0 142 -59q60 -62 60 -143v-147q0 -84 -59.5 -143t-142.5 -59z" />
    <glyph glyph-name="u0431" unicode="&#x431;" 
d="M254 0q-105 0 -179.5 74.5t-74.5 179.5v905q0 70 35 134q40 70 111 108q57 30 121 32h144q21 0 26 -26q0 -21 -26 -25h-142q-94 -5 -155.5 -68.5t-61.5 -154.5v-260l9 16q9 16 31.5 36.5t61.5 36.5t100 16q101 0 179 -75q74 -77 74 -179v-496q0 -105 -74.5 -179.5
t-178.5 -74.5zM254 52q83 0 142.5 59t59.5 143v496q0 81 -60 143q-62 59 -142 59q-84 0 -143 -59t-59 -143v-496q0 -84 59 -143t143 -59z" />
    <glyph glyph-name="u0432" unicode="&#x432;" 
d="M254 0q-105 0 -179.5 74.5t-74.5 179.5v1011q0 69 49.5 118.5t118.5 49.5q68 0 119 -49q50 -52 50 -119v-147q0 -67 -50 -119l-1 -2q68 -10 103.5 -34t42.5 -33l1 -1q74 -77 74 -179v-496q0 -105 -74 -179.5t-179 -74.5zM52 913l15 16q45 49 103 63q6 0 32.5 11t48.5 33
q27 27 32 61l2 21v155q-3 44 -34 74q-35 35 -83 35t-82 -34.5t-34 -82.5v-352zM254 52q83 0 142.5 59t59.5 143v496q0 81 -60 143q-61 59 -142 59q-84 0 -143 -59t-59 -143v-496q0 -84 59 -143t143 -59z" />
    <glyph glyph-name="u0433" unicode="&#x433;" 
d="M481 0q14 0 19 8q7 4 7 18q0 13 -12 22q-6 4 -241 4q-84 0 -143 59t-59 143v147q0 84 59 143t143 59h53q76 0 136 54l6 5q58 61 58 141q0 46 -20 88q-26 52 -74.5 82.5t-105.5 30.5h-168q-14 0 -18 -8q-7 -7 -7 -18q0 -21 25 -26h168q61 0 105 -43.5t44 -105.5
q0 -59 -44 -105q-45 -43 -105 -43h-53q-106 0 -187 -82q-67 -76 -67 -172v-147q0 -67 34 -126.5t92.5 -93.5t127.5 -34h227z" />
    <glyph glyph-name="u0434" unicode="&#x434;" horiz-adv-x="720" 
d="M240 -417h-141q-9 0 -16 5h-1q-9 8 -9 21q0 21 25 25h141q93 5 155 68.5t62 154.5v256q-34 -47 -91 -75q-52 -25 -113 -25q-21 0 -43 3q-79 15 -133.5 71t-65.5 122q-10 57 -10 120v433l1 13q7 103 79 172t174 69q63 0 106.5 -24t67 -50t28.5 -35l2 85q2 17 13 21l11 3
q21 0 25 -26v-1133q0 -71 -35 -134q-39 -70 -111 -108q-56 -31 -121 -32zM250 65q30 0 75.5 14t88 66t42.5 121l1 457q0 37 -6 78t-37 84q-67 79 -160 79q-84 0 -143 -59t-59 -143v-496l1 -22q18 -118 126 -166q36 -13 71 -13z" />
    <glyph glyph-name="u0435" unicode="&#x435;" horiz-adv-x="708" 
d="M448 0q14 0 18 8q8 4 8 18q-1 14 -13 22q-6 4 -207 4q-84 0 -143 59t-59 143v90h253q84 0 143 59.5t59 142.5v204q0 102 -74 179q-76 75 -179 75t-178.5 -77.5t-75.5 -183.5v-489q0 -68 34 -126.5t92.5 -93t127.5 -34.5h194zM285 396h-233v350q0 85 57.5 144.5
t143.5 61.5q82 0 143 -59q60 -62 60 -143v-184q0 -70 -50 -120t-121 -50z" />
    <glyph glyph-name="u0436" unicode="&#x436;" horiz-adv-x="974" 
d="M817 0q4 0 9 2q17 8 17 22q0 8 -222 605l126 340l1 9q0 7 -4 14t-13 10q-4 2 -8 2q-7 0 -14 -4t-11 -13l-123 -332h-153v323q0 21 -26 26q-21 0 -26 -26v-323h-153l-123 332q-4 9 -11 13t-14 4q-4 0 -8 -2q-9 -3 -13 -10t-4 -14l1 -9l126 -340l-220 -594l-1 -10
q0 -15 16 -23l9 -2q7 0 14 4t10 13l218 586h153v-577q0 -21 26 -26q21 0 26 26v577h153l218 -586q3 -9 10 -13t14 -4z" />
    <glyph glyph-name="u0437" unicode="&#x437;" horiz-adv-x="720" 
d="M253 0q68 0 127 34.5t94 94.5q33 59 33 125v147q0 59 -26.5 113t-73.5 89l-47 35q47 65 53 78q19 43 19 86q0 52 -29 104q-58 91 -162 98h-216q-14 0 -19.5 -9t-5.5 -18t8 -17t17 -8h208q62 0 105.5 -43.5t43.5 -104.5q0 -60 -44.5 -104.5t-104.5 -44.5h-166q-4 0 -13 -3
t-9 -22q0 -9 4 -18t18 -9h186q81 0 143 -59q59 -61 59 -143v-147q0 -84 -59 -143t-143 -59h-228q-13 0 -18 -8q-7 -4 -7 -18q0 -21 25 -26h228z" />
    <glyph glyph-name="u0438" unicode="&#x438;" 
d="M482 0q25 5 25 26v952q0 14 -7 18q-5 8 -19 8q-13 0 -22 -13q-3 -6 -3 -737q0 -84 -59.5 -143t-142.5 -59q-84 0 -143 59t-59 143v724q-1 8 -5 15q-8 11 -21 11q-22 0 -26 -26v-724q0 -103 73.5 -177t180.5 -77q63 1 103 21t62 45.5t30 45.5l8 20v-107q1 -15 9.5 -20
t15.5 -5z" />
    <glyph glyph-name="u0439" unicode="&#x439;" horiz-adv-x="720" 
d="M482 0q25 5 25 26v952q0 14 -7 18q-5 8 -19 8q-13 0 -22 -13q-3 -6 -3 -737q0 -84 -59.5 -143t-142.5 -59q-84 0 -143 59t-59 143v724q-1 8 -5 15q-8 11 -21 11q-22 0 -26 -26v-724q0 -103 73.5 -177t180.5 -77q63 1 103 21t62 45.5t30 45.5l8 20v-107q1 -15 9.5 -20
t15.5 -5zM348 1304q21 0 25 25q0 22 -25 26h-188q-14 0 -19 -7q-7 -5 -7 -19q0 -21 26 -25h188z" />
    <glyph glyph-name="u043A" unicode="&#x43a;" horiz-adv-x="661" 
d="M520 0q4 0 9 2q16 8 16 22q0 8 -222 605l127 340l1 9q0 7 -4 14t-13 10q-4 2 -9 2q-6 0 -13 -4t-11 -13l-123 -332h-227v323q0 14 -7 18q-4 8 -18 8q-22 0 -26 -26v-952q0 -21 26 -26q21 0 25 26v577h227l218 -586q3 -9 10 -13t14 -4z" />
    <glyph glyph-name="u043B" unicode="&#x43b;" horiz-adv-x="724" 
d="M503 0l-13 3q-14 2 -14 23v926h-120l-347 -936q-10 -16 -23 -16q-26 0 -26 23l341 937q21 45 65 45h139q24 -5 24 -26v-953q0 -21 -26 -26z" />
    <glyph glyph-name="u043C" unicode="&#x43c;" horiz-adv-x="877" 
d="M653 0q21 0 25 26v951q0 12 -7.5 19t-17.5 8q-15 0 -24 -17l-290 -626l-290 627q-7 15 -23 16q-7 0 -14 -5q-10 -6 -12 -19v-954q0 -21 26 -26q21 0 26 26v840l268 -577q6 -12 19 -12t20 12l268 584v-847q0 -21 26 -26z" />
    <glyph glyph-name="u043D" unicode="&#x43d;" 
d="M481 0q22 0 26 26v952q0 21 -26 26q-21 0 -25 -26v-323h-404v323q0 21 -26 26q-22 0 -26 -26v-952q0 -22 26 -26q21 0 26 26v577h404v-577q0 -22 25 -26z" />
    <glyph glyph-name="u043E" unicode="&#x43e;" 
d="M254 0q104 0 178.5 74.5t74.5 179.5v496q0 102 -74 179q-78 75 -179 75q-105 0 -179.5 -74.5t-74.5 -179.5v-496q0 -105 74.5 -179.5t179.5 -74.5zM254 52q-84 0 -143 59t-59 143v496q0 84 59 143t143 59q81 0 143 -59q59 -62 59 -143v-496q0 -84 -59.5 -143t-142.5 -59z
" />
    <glyph glyph-name="u043F" unicode="&#x43f;" 
d="M481 0q22 0 26 26v952q0 21 -26 26h-455q-22 0 -26 -26v-952q0 -22 26 -26q21 0 26 26v926h404v-926q0 -22 25 -26z" />
    <glyph glyph-name="u0440" unicode="&#x440;" 
d="M26 -417q-14 0 -18 8q-8 4 -8 18v1381q0 14 8 19q4 7 18 7t20 -8.5t6 -18.5v-93q35 62 87.5 91t114.5 29q17 0 33 -2q82 -9 145 -72t73 -147l2 -32v-497q0 -105 -74.5 -179t-178.5 -74q-130 4 -202 121v-525q0 -22 -26 -26zM254 64q83 0 142.5 59.5t59.5 142.5
q0 512 -2 518q-9 72 -58 121t-121 58l-21 2q-79 0 -135.5 -52t-65.5 -130l-1 -20q0 -507 1 -519q10 -78 67 -129t134 -51z" />
    <glyph glyph-name="u0441" unicode="&#x441;" horiz-adv-x="619" 
d="M397 0q14 0 18 8q8 8 8 18l-1 6q-8 20 -25 20h-144q-83 0 -142.5 59t-59.5 143v496q0 84 59.5 143t142.5 59h144q14 0 20 8.5t6 18.5q0 12 -8 18.5t-18 6.5h-144q-101 0 -177 -76.5t-76 -177.5v-496q0 -66 33 -125q36 -60 94.5 -94.5t125.5 -34.5h144z" />
    <glyph glyph-name="u0442" unicode="&#x442;" horiz-adv-x="649" 
d="M214 0q21 0 25 26v926h202q22 0 26 26q0 21 -26 26h-455q-22 0 -26 -26q0 -21 26 -26h202v-926q0 -22 26 -26z" />
    <glyph glyph-name="u0443" unicode="&#x443;" horiz-adv-x="720" 
d="M239 -417q65 2 122 32q71 38 111 108q35 64 35 134v1133q0 14 -8 19q-4 7 -18 7t-22 -12q-4 -7 -4 -14v-724q0 -83 -59 -142.5t-143 -59.5q-81 0 -143 59q-59 62 -59 143v724q0 8 -4 14q-6 12 -22 12q-21 0 -25 -26v-724q0 -101 74 -179q74 -74 179 -74q55 0 93.5 18.5
t62.5 42t35 42.5l11 18v-277q0 -91 -62 -154.5t-155 -67.5q-145 0 -151 -3q-12 -7 -12 -21q0 -5 1 -9.5t6 -11.5t17 -7h140z" />
    <glyph glyph-name="u0444" unicode="&#x444;" horiz-adv-x="877" 
d="M339 -417q21 0 26 26v404h59q108 2 181 75t73 178v496q0 102 -75 180q-74 73 -179 74h-59v144q0 22 -26 26q-22 0 -26 -26v-144h-59q-105 0 -179.5 -74.5t-74.5 -179.5v-496q0 -105 74.5 -179t179.5 -74h59v-404q0 -22 26 -26zM424 64h-59v892h59q83 -1 143 -59
q59 -62 59 -143v-488q0 -83 -58 -141.5t-144 -60.5zM313 64h-59q-84 0 -143 59.5t-59 142.5v488q0 84 59 143t143 59h59v-892z" />
    <glyph glyph-name="u0445" unicode="&#x445;" horiz-adv-x="732" 
d="M495 0q6 0 11 3q15 8 15 22q0 8 -232 476q232 469 232 476q0 14 -15 23q-5 3 -11 3t-12.5 -3.5t-10.5 -11.5l-212 -428l-211 428q-4 8 -11 11.5t-12 3.5q-6 0 -12 -3q-14 -9 -14 -21q0 -8 232 -478q-232 -469 -232 -476q0 -14 14 -22l12 -3q5 0 12 3.5t11 11.5l211 428
l212 -428q4 -8 10.5 -11.5t12.5 -3.5z" />
    <glyph glyph-name="u0446" unicode="&#x446;" horiz-adv-x="738" 
d="M595 -277q21 0 26 26v281q0 22 -26 26h-151v926q0 22 -25 26q-22 0 -26 -26v-926h-341v926q0 22 -26 26q-22 0 -26 -26v-952q0 -21 26 -25h543v-256q0 -22 26 -26z" />
    <glyph glyph-name="u0447" unicode="&#x447;" 
d="M481 0q22 0 26 26v952q0 14 -7 18q-5 8 -19 8q-21 0 -25 -26v-375q0 -84 -59.5 -143t-142.5 -59q-84 0 -143 59t-59 143v375q0 14 -8 18q-4 8 -18 8q-22 0 -26 -26v-375q0 -72 37 -132t101 -94q54 -28 116 -28q56 0 94.5 19.5t62 44t34.5 44.5l11 19v-450q0 -22 25 -26z
" />
    <glyph glyph-name="u0448" unicode="&#x448;" horiz-adv-x="877" 
d="M653 0q21 0 25 26v952q0 21 -26 26q-22 0 -26 -26v-926h-261v926q0 21 -26 26q-22 0 -26 -26v-926h-261v926q0 21 -26 26q-22 0 -26 -26v-952q0 -22 26 -26h627z" />
    <glyph glyph-name="u0449" unicode="&#x449;" horiz-adv-x="955" 
d="M830 -277q22 0 26 26v281q0 22 -26 26h-152v926q0 22 -26 26q-22 0 -26 -26v-926h-261v926q0 22 -26 26q-22 0 -26 -26v-926h-261v926q0 22 -26 26q-22 0 -26 -26v-952q0 -21 26 -25h779v-256q0 -22 25 -26z" />
    <glyph glyph-name="u044A" unicode="&#x44a;" horiz-adv-x="811" 
d="M363 0h-227q-22 0 -26 26v926h-154q-22 0 -26 26q0 21 26 26h181q10 -1 17 -8q7 -11 7 -17v-435l7 12q7 11 21.5 27.5t38.5 32.5t57.5 27.5t77.5 11.5q102 0 180 -75q74 -77 74 -179v-147q0 -72 -37 -132t-101 -94q-54 -28 -116 -28zM363 52q84 0 143 59t59 143v147
q0 83 -59 143q-62 59 -143 59q-31 0 -60 -9l-16 -6q-37 -17 -60 -40t-34 -41l-11 -18h-1q-20 -41 -20 -88v-349h202z" />
    <glyph glyph-name="u044B" unicode="&#x44b;" horiz-adv-x="987" 
d="M700 0q22 0 26 26v952q0 21 -26 26q-21 0 -25 -26v-952q0 -22 25 -26zM254 0h-228q-22 0 -26 26v952q0 21 26 26q21 0 26 -26v-434l10 17q11 17 34.5 38.5t62.5 38.5t95 17q101 0 179 -75q74 -77 74 -179v-147q0 -72 -36.5 -132t-101.5 -94q-54 -28 -115 -28zM254 52
q83 0 142.5 59t59.5 143v147q0 81 -60 143q-61 59 -142 59q-48 0 -82.5 -17.5t-56.5 -39.5t-33 -40l-10 -17q-20 -41 -20 -88v-349h202z" />
    <glyph glyph-name="u044C" unicode="&#x44c;" 
d="M254 0h-228q-22 0 -26 26v952q0 21 26 26q21 0 26 -26v-434l10 17q11 17 34.5 38.5t62.5 38.5t95 17q101 0 179 -75q74 -77 74 -179v-147q0 -72 -36.5 -132t-101.5 -94q-54 -28 -115 -28zM254 52q83 0 142.5 59t59.5 143v147q0 81 -60 143q-61 59 -142 59
q-48 0 -82.5 -17.5t-56.5 -39.5t-33 -40l-10 -17q-20 -41 -20 -88v-349h202z" />
    <glyph glyph-name="u044D" unicode="&#x44d;" horiz-adv-x="642" 
d="M171 0h-145q-22 0 -26 26q0 21 26 26h145q83 0 142.5 59t59.5 143v349h-272q-21 0 -26 26q0 21 26 26h272v95q0 84 -59.5 143t-142.5 59h-145q-18 0 -25 23q0 15 7 20q8 9 18 9h145q103 0 178 -75.5t75 -178.5v-496q0 -64 -35.5 -124t-94.5 -95t-123 -35z" />
    <glyph glyph-name="u044E" unicode="&#x44e;" horiz-adv-x="1013" 
d="M570 0q105 0 179.5 74.5t74.5 179.5v496q0 102 -75 179q-77 75 -179 75q-105 0 -179.5 -74.5t-74.5 -179.5v-95h-264v323q0 21 -26 26q-22 0 -26 -26v-952q0 -22 26 -26q21 0 26 26v577h264v-349q0 -105 74.5 -179.5t179.5 -74.5zM570 52q-84 0 -143 59t-59 143v496
q0 84 59 143t143 59q81 0 143 -59q59 -62 59 -143v-496q0 -84 -59 -143t-143 -59z" />
    <glyph glyph-name="u044F" unicode="&#x44f;" horiz-adv-x="720" 
d="M482 0q21 0 26 26v952q0 14 -8 18q-4 8 -18 8q-246 0 -264 -3q-128 -22 -190 -136q-28 -54 -28 -115v-148q0 -73 24 -121.5t55 -77t55 -40.5l24 -12q-157 -319 -157 -326q0 -13 14 -22q5 -3 11 -3t12.5 3t10.5 11l166 335h241v-323q0 -22 26 -26zM456 400h-236
q-15 0 -42.5 11.5t-56.5 35.5t-49 62.5t-20 92.5v148q0 83 59 142.5t143 59.5h202v-552z" />
    <glyph glyph-name="u0451" unicode="&#x451;" horiz-adv-x="709" 
d="M448 0q14 0 18 8q8 4 8 18q-1 14 -13 22q-6 4 -207 4q-84 0 -143 59t-59 143v90h253q84 0 143 59.5t59 142.5v204q0 102 -74 179q-76 75 -179 75t-178.5 -77.5t-75.5 -183.5v-489q0 -68 34 -126.5t92.5 -93t127.5 -34.5h194zM285 396h-233v350q0 85 57.5 144.5
t143.5 61.5q82 0 143 -59q60 -62 60 -143v-184q0 -70 -50 -120t-121 -50zM143 1258q23 0 28 28v124q0 23 -28 28q-23 0 -28 -28v-124q0 -23 28 -28zM366 1258q23 0 28 28v124q0 23 -28 28q-23 0 -28 -28v-124q0 -23 28 -28z" />
    <glyph glyph-name="endash" unicode="&#x2013;" horiz-adv-x="872" 
d="M707 510q22 0 26 26q0 21 -26 26h-681q-14 0 -18 -8q-8 -4 -8 -18q0 -22 26 -26h681z" />
    <glyph glyph-name="emdash" unicode="&#x2014;" horiz-adv-x="1022" 
d="M857 510q22 0 26 26q0 21 -26 26h-831q-14 0 -18 -8q-8 -4 -8 -18q0 -22 26 -26h831z" />
    <glyph glyph-name="quoteleft" unicode="&#x2018;" horiz-adv-x="363" 
d="M94 1562q-15 0 -24 -15l-67 -148q-3 -19 -3 -149q0 -22 26 -26q21 0 26 26v131q67 149 67 155q0 14 -15 23q-5 3 -10 3z" />
    <glyph glyph-name="quoteright" unicode="&#x2019;" horiz-adv-x="303" 
d="M-35 1134q15 0 24 15l67 148q3 20 3 149q0 22 -26 26q-21 0 -26 -26v-131q-67 -149 -67 -155q0 -14 15 -23q5 -3 10 -3z" />
    <glyph glyph-name="quotesinglbase" unicode="&#x201a;" horiz-adv-x="361" 
d="M-45 -170q15 0 24 15l67 148q3 20 3 149q0 22 -26 26q-21 0 -26 -26v-131q-67 -149 -67 -155q0 -14 15 -23q5 -3 10 -3z" />
    <glyph glyph-name="quotedblleft" unicode="&#x201c;" horiz-adv-x="693" 
d="M94 1568q-15 0 -24 -15l-67 -148q-3 -19 -3 -149q0 -22 26 -26q21 0 26 26v131q67 149 67 155q0 14 -15 23q-5 3 -10 3zM364 1568q-15 0 -24 -15l-67 -148q-3 -19 -3 -149q0 -22 26 -26q21 0 26 26v131q67 149 67 155q0 14 -15 23q-5 3 -10 3z" />
    <glyph glyph-name="quotedblright" unicode="&#x201d;" horiz-adv-x="623" 
d="M295 1110q15 0 24 15l67 148q3 20 3 149q0 22 -26 26q-21 0 -26 -26v-131q-67 -149 -67 -155q0 -14 15 -23q5 -3 10 -3zM25 1110q15 0 24 15l67 148q3 20 3 149q0 22 -26 26q-21 0 -26 -26v-131q-67 -149 -67 -155q0 -14 15 -23q5 -3 10 -3z" />
    <glyph glyph-name="quotedblbase" unicode="&#x201e;" horiz-adv-x="623" 
d="M289 -153q15 0 24 15l67 148q3 20 3 149q0 22 -26 26q-21 0 -26 -26v-131q-67 -149 -67 -155q0 -14 15 -23q5 -3 10 -3zM19 -153q15 0 24 15l67 148q3 20 3 149q0 22 -26 26q-21 0 -26 -26v-131q-67 -149 -67 -155q0 -14 15 -23q5 -3 10 -3z" />
    <glyph glyph-name="ellipsis" unicode="&#x2026;" horiz-adv-x="1142" 
d="M26 0q21 0 26 26v120q0 21 -26 26q-22 0 -26 -26v-120q0 -22 26 -26zM635 0q21 0 26 26v120q0 21 -26 26q-22 0 -26 -26v-120q0 -22 26 -26zM330 0q22 0 26 26v120q0 21 -26 26q-21 0 -25 -26v-120q0 -22 25 -26z" />
    <glyph glyph-name="guilsinglleft" unicode="&#x2039;" horiz-adv-x="656" 
d="M412 258q13 0 22 12q5 9 5 15q0 10 -12 20l-337 230l337 231q12 10 12 20q0 6 -5 15q-9 12 -22 12q-7 0 -411 -276q-1 0 -1 -2t1 -2q404 -275 411 -275z" />
    <glyph glyph-name="guilsinglright" unicode="&#x203a;" horiz-adv-x="656" 
d="M27 258q6 0 411 275q1 0 1 2t-1 2q-405 276 -411 276q-13 0 -22 -12q-5 -9 -5 -15q0 -10 12 -20l337 -231l-337 -230q-12 -10 -12 -20q0 -6 5 -15q9 -12 22 -12z" />
    <glyph glyph-name="u2116" unicode="&#x2116;" horiz-adv-x="1366" 
d="M523 0q23 0 26 23v1384q0 22 -26 26q-21 0 -25 -26v-1220l-445 1218q-6 17 -12 22t-9 5l-8 2q-4 0 -14 -4t-10 -23v-1381q0 -22 26 -26q21 0 26 26v1215l444 -1215q8 -20 14 -23t13 -3zM963 957q93 0 156 67.5t63 172.5t-62 173t-157 68h-26q-94 0 -158 -69
q-62 -72 -62 -172q0 -101 63 -173q63 -67 157 -67h26zM963 1008h-26q-75 0 -121.5 53t-46.5 136q0 75 40 128q49 61 128 61h26q74 0 121 -52.5t47 -136.5q0 -75 -40 -128q-50 -61 -128 -61zM1170 793q22 0 26 26q0 21 -26 26h-421q-14 0 -18 -8q-8 -4 -8 -18q0 -22 26 -26
h421z" />
    <glyph glyph-name="minus" unicode="&#x2212;" horiz-adv-x="762" 
d="M527 680q22 0 26 26q0 21 -26 26h-501q-14 0 -18 -8q-8 -4 -8 -18q0 -22 26 -26h501z" />
  </font>
</defs>
</svg>
