<?xml version="1.0" standalone="no"?>
<!DOCTYPE svg PUBLIC "-//W3C//DTD SVG 1.1//EN" "http://www.w3.org/Graphics/SVG/1.1/DTD/svg11.dtd" >
<svg xmlns="http://www.w3.org/2000/svg" xmlns:xlink="http://www.w3.org/1999/xlink" version="1.1">
<metadata>
Created by FontForge 20201107 at Tue Dec 19 14:42:42 2023
 By 
Dimkin Typeface (c) Blue Curve Designstudio. 2023. All Rights Reserved
</metadata>
<defs>
<font id="Dimkin-Light" horiz-adv-x="753" >
  <font-face 
    font-family="Dimkin Light"
    font-weight="300"
    font-stretch="normal"
    units-per-em="2048"
    panose-1="2 0 5 0 0 0 0 0 0 0"
    ascent="1638"
    descent="-410"
    x-height="1019"
    cap-height="1434"
    bbox="-306 -410 1230 1962"
    underline-thickness="150"
    underline-position="-292"
    unicode-range="U+0020-2212"
  />
<missing-glyph horiz-adv-x="175" 
 />
    <glyph glyph-name=".notdef" horiz-adv-x="175" 
 />
    <glyph glyph-name=".null" horiz-adv-x="0" 
 />
    <glyph glyph-name="nonmarkingreturn" horiz-adv-x="682" 
 />
    <glyph glyph-name="space" unicode=" " horiz-adv-x="483" 
 />
    <glyph glyph-name="space" unicode="&#xa0;" horiz-adv-x="483" 
 />
    <glyph glyph-name="exclam" unicode="!" horiz-adv-x="333" 
d="M53 382q44 0 54 54v944q0 22 -16 38t-38 16q-44 0 -53 -54v-944q0 -44 53 -54zM53 382q44 0 54 54v944q0 22 -16 38t-38 16q-44 0 -53 -54v-944q0 -44 53 -54zM53 0q44 0 54 53v116q0 44 -54 53q-44 0 -53 -53v-116q0 -44 53 -53zM53 0q44 0 54 53v116q0 44 -54 53
q-44 0 -53 -53v-116q0 -44 53 -53z" />
    <glyph glyph-name="quotedbl" unicode="&#x22;" horiz-adv-x="663" 
d="M66 1058q32 0 49 31l65 143q5 34 5 155q0 44 -54 53q-45 0 -53 -53v-121q-65 -144 -65 -157q0 -29 31 -46q10 -5 22 -5zM66 1058q32 0 49 31l65 143q5 34 5 155q0 44 -54 53q-45 0 -53 -53v-121q-65 -144 -65 -157q0 -29 31 -46q10 -5 22 -5zM358 1058q32 0 49 31l65 143
q5 34 5 155q0 44 -54 53q-45 0 -53 -53v-121q-65 -144 -65 -157q0 -29 31 -46q10 -5 22 -5zM358 1058q32 0 49 31l65 143q5 34 5 155q0 44 -54 53q-45 0 -53 -53v-121q-65 -144 -65 -157q0 -29 31 -46q10 -5 22 -5z" />
    <glyph glyph-name="numbersign" unicode="#" horiz-adv-x="1316" 
d="M588 0l-17 2q-37 13 -37 50l3 18l124 378h-354l-135 -412q-15 -36 -51 -36l-15 2q-37 13 -37 50l4 18l121 378h-141q-43 0 -53 53q0 46 53 53h177l97 300h-148q-46 0 -53 53q0 44 53 54h182l142 435q15 37 51 37l15 -3q38 -16 38 -50l-2 -15l-133 -404h353l143 435
q17 37 51 37l17 -3q36 -14 36 -51l-2 -14l-131 -404h140q44 0 54 -54q0 -43 -54 -53h-176l-97 -300h147q44 0 54 -53q0 -44 -54 -53h-181l-133 -412q-17 -36 -51 -36zM694 555l97 299h-353l-97 -299h353zM588 0l-17 2q-37 13 -37 50l3 18l124 378h-354l-135 -412
q-15 -36 -51 -36l-15 2q-37 13 -37 50l4 18l121 378h-141q-43 0 -53 53q0 46 53 53h177l97 300h-148q-46 0 -53 53q0 44 53 54h182l142 435q15 37 51 37l15 -3q38 -16 38 -50l-2 -15l-133 -404h353l143 435q17 37 51 37l17 -3q36 -14 36 -51l-2 -14l-131 -404h140
q44 0 54 -54q0 -43 -54 -53h-176l-97 -300h147q44 0 54 -53q0 -44 -54 -53h-181l-133 -412q-17 -36 -51 -36zM694 555l97 299h-353l-97 -299h353z" />
    <glyph glyph-name="dollar" unicode="$" horiz-adv-x="791" 
d="M292 -140q44 0 53 69v79l22 6q118 31 180 139q37 68 37 143v359q0 124 -97 217q-82 74 -195 75q-51 0 -96 27q-89 61 -89 159q0 110 89 171q45 27 96 27q155 0 168 7q27 18 27 46q0 22 -16 38l-4 4q-20 12 -43 12h-79v75q0 28 -16 48t-37 21q-33 -2 -49 -42
q-4 -13 -4 -106l-21 -6q-119 -31 -181 -140q-37 -67 -37 -143q0 -137 98 -230q82 -75 194 -75q52 0 97 -27q89 -61 89 -158v-359q0 -98 -89 -158q-45 -27 -97 -27q-191 0 -202 -6q-30 -17 -30 -48q0 -44 54 -53h125v-75q0 -57 53 -69zM292 -140q44 0 53 69v79l22 6
q118 31 180 139q37 68 37 143v359q0 124 -97 217q-82 74 -195 75q-51 0 -96 27q-89 61 -89 159q0 110 89 171q45 27 96 27q155 0 168 7q27 18 27 46q0 22 -16 38l-4 4q-20 12 -43 12h-79v75q0 28 -16 48t-37 21q-33 -2 -49 -42q-4 -13 -4 -106l-21 -6q-119 -31 -181 -140
q-37 -67 -37 -143q0 -137 98 -230q82 -75 194 -75q52 0 97 -27q89 -61 89 -158v-359q0 -98 -89 -158q-45 -27 -97 -27q-191 0 -202 -6q-30 -17 -30 -48q0 -44 54 -53h125v-75q0 -57 53 -69z" />
    <glyph glyph-name="percent" unicode="%" horiz-adv-x="1224" 
d="M133 1q27 0 46 27q771 1334 771 1350l-1 14q-13 39 -51 39q-29 0 -46 -26q-774 -1335 -774 -1351l2 -14q13 -39 53 -39zM133 1q27 0 46 27q771 1334 771 1350l-1 14q-13 39 -51 39q-29 0 -46 -26q-774 -1335 -774 -1351l2 -14q13 -39 53 -39zM265 913q-127 0 -196 76
t-69 184q0 106 68.5 182.5t196.5 76.5q104 0 171.5 -73.5t67.5 -185.5q0 -107 -68 -183.5t-171 -76.5zM265 1020q62 0 97 45t35 108q0 68 -36.5 110.5t-95.5 42.5h-25q-63 0 -98 -45.5t-35 -107.5q0 -69 36.5 -111t96.5 -42h25zM265 913q-127 0 -196 76t-69 184
q0 106 68.5 182.5t196.5 76.5q104 0 171.5 -73.5t67.5 -185.5q0 -107 -68 -183.5t-171 -76.5zM265 1020q62 0 97 45t35 108q0 68 -36.5 110.5t-95.5 42.5h-25q-63 0 -98 -45.5t-35 -107.5q0 -69 36.5 -111t96.5 -42h25zM796 0q-127 0 -196 76t-69 184q0 106 68.5 182.5
t170.5 76.5h26q104 0 171.5 -73.5t67.5 -185.5q0 -107 -68 -183.5t-171 -76.5zM796 107q62 0 97 45t35 108q0 68 -36.5 110.5t-95.5 42.5h-26q-62 0 -97 -45.5t-35 -107.5q0 -69 36.5 -111t95.5 -42h26zM796 0q-127 0 -196 76t-69 184q0 106 68.5 182.5t170.5 76.5h26
q104 0 171.5 -73.5t67.5 -185.5q0 -107 -68 -183.5t-171 -76.5zM796 107q62 0 97 45t35 108q0 68 -36.5 110.5t-95.5 42.5h-26q-62 0 -97 -45.5t-35 -107.5q0 -69 36.5 -111t95.5 -42h26z" />
    <glyph glyph-name="ampersand" unicode="&#x26;" horiz-adv-x="876" 
d="M578 0q-21 0 -33.5 14.5t-16.5 26.5l-34 68l-46 -44q-76 -63 -170 -63q-67 0 -116 27q-162 90 -162 244v298q0 136 102 235h2l22 19l22 12l-10 22q-65 150 -87 203.5t-22 113.5q0 52 31 131q65 128 218 128q98 0 165 -63q84 -80 84 -228q0 -154 -106 -234l-140 -107
l247 -522l55 51l5 2q15 12 32 12q24 0 38 -19.5t14 -35.5q0 -21 -19 -42l-77 -68q56 -116 56 -125q0 -38 -37 -54zM235 897l90 63q92 67 92 181l-1 34q0 109 -92 146q-24 8 -49 8q-66 0 -107 -49q-32 -42 -32 -105q0 -41 15 -76zM269 106q43 0 84 25l44 31l53 41l-34 68
l-5 15q-16 27 -222 467l-22 -17q-22 -17 -41 -56q-20 -35 -20 -91v-316q0 -58 36.5 -104t94.5 -58q17 -5 32 -5z" />
    <glyph glyph-name="quotesingle" unicode="'" horiz-adv-x="335" 
d="M66 1058q32 0 49 31l65 143q5 34 5 155q0 44 -54 53q-45 0 -53 -53v-121q-65 -144 -65 -157q0 -29 31 -46q10 -5 22 -5zM66 1058q32 0 49 31l65 143q5 34 5 155q0 44 -54 53q-45 0 -53 -53v-121q-65 -144 -65 -157q0 -29 31 -46q10 -5 22 -5z" />
    <glyph glyph-name="parenleft" unicode="(" horiz-adv-x="483" 
d="M212 -210q19 0 35.5 16t16.5 38q0 19 -12 31.5t-26 20.5q-76 48 -97.5 124.5t-21.5 128.5v688q0 39 20 116t97 136q40 27 40 53q0 44 -54 54l-18 -4q-83 -36 -137.5 -146t-54.5 -209v-688q0 -101 55.5 -212t140.5 -144q8 -3 16 -3zM212 -210q19 0 35.5 16t16.5 38
q0 19 -12 31.5t-26 20.5q-76 48 -97.5 124.5t-21.5 128.5v688q0 39 20 116t97 136q40 27 40 53q0 44 -54 54l-18 -4q-83 -36 -137.5 -146t-54.5 -209v-688q0 -101 55.5 -212t140.5 -144q8 -3 16 -3z" />
    <glyph glyph-name="parenright" unicode=")" horiz-adv-x="483" 
d="M52 -210q8 0 16 3q84 33 140 144t56 212v688q0 99 -54.5 209t-137.5 146l-19 4q-53 -10 -53 -54q0 -26 40 -53q77 -59 97 -136t20 -116v-688q0 -52 -22 -128.5t-97 -124.5q-14 -8 -26 -20.5t-12 -31.5q0 -22 16 -38t36 -16zM52 -210q8 0 16 3q84 33 140 144t56 212v688
q0 99 -54.5 209t-137.5 146l-19 4q-53 -10 -53 -54q0 -26 40 -53q77 -59 97 -136t20 -116v-688q0 -52 -22 -128.5t-97 -124.5q-14 -8 -26 -20.5t-12 -31.5q0 -22 16 -38t36 -16z" />
    <glyph glyph-name="asterisk" unicode="*" horiz-adv-x="771" 
d="M415 741q17 0 35 14.5t18 37.5q0 13 -7 28l-102 141l165 55h5q26 17 26 46l-2 17q-14 39 -51 39l-14 -3l-160 -53v174q-7 46 -53 46q-41 0 -53 -46v-174l-160 53l-17 3q-12 0 -28 -8.5t-23 -30.5l-2 -16q0 -30 29 -47l167 -55l-102 -138v-3q-8 -11 -8 -26q0 -26 18.5 -40
t35.5 -14q22 0 41 20l102 138l101 -141q17 -17 39 -17zM415 741q17 0 35 14.5t18 37.5q0 13 -7 28l-102 141l165 55h5q26 17 26 46l-2 17q-14 39 -51 39l-14 -3l-160 -53v174q-7 46 -53 46q-41 0 -53 -46v-174l-160 53l-17 3q-12 0 -28 -8.5t-23 -30.5l-2 -16q0 -30 29 -47
l167 -55l-102 -138v-3q-8 -11 -8 -26q0 -26 18.5 -40t35.5 -14q22 0 41 20l102 138l101 -141q17 -17 39 -17z" />
    <glyph glyph-name="plus" unicode="+" horiz-adv-x="795" 
d="M294 384q44 0 53 53v188h188q44 0 53 53q0 44 -53 53h-188v188q0 21 -16 37t-37 16q-44 0 -53 -53v-188h-188q-21 0 -37 -16t-16 -37q0 -44 53 -53h188v-188q0 -44 53 -53zM294 384q44 0 53 53v188h188q44 0 53 53q0 44 -53 53h-188v188q0 21 -16 37t-37 16
q-44 0 -53 -53v-188h-188q-21 0 -37 -16t-16 -37q0 -44 53 -53h188v-188q0 -44 53 -53z" />
    <glyph glyph-name="comma" unicode="," horiz-adv-x="394" 
d="M50 -189q32 0 49 31l65 143q5 34 5 155q0 44 -54 53q-45 0 -53 -53v-121q-65 -144 -65 -157q0 -29 31 -46q10 -5 22 -5zM50 -189q32 0 49 31l65 143q5 34 5 155q0 44 -54 53q-45 0 -53 -53v-121q-65 -144 -65 -157q0 -29 31 -46q10 -5 22 -5z" />
    <glyph glyph-name="hyphen" unicode="-" horiz-adv-x="795" 
d="M535 497q44 0 53 53q0 44 -53 54h-482q-21 0 -37 -16t-16 -38q0 -44 53 -53h482zM535 497q44 0 53 53q0 44 -53 54h-482q-21 0 -37 -16t-16 -38q0 -44 53 -53h482z" />
    <glyph glyph-name="hyphen" unicode="&#xad;" horiz-adv-x="795" 
d="M535 497q44 0 53 53q0 44 -53 54h-482q-21 0 -37 -16t-16 -38q0 -44 53 -53h482zM535 497q44 0 53 53q0 44 -53 54h-482q-21 0 -37 -16t-16 -38q0 -44 53 -53h482z" />
    <glyph glyph-name="period" unicode="." horiz-adv-x="333" 
d="M53 0q44 0 54 53v116q0 44 -54 53q-44 0 -53 -53v-116q0 -44 53 -53zM53 0q44 0 54 53v116q0 44 -54 53q-44 0 -53 -53v-116q0 -44 53 -53z" />
    <glyph glyph-name="slash" unicode="/" horiz-adv-x="672" 
d="M66 -16q33 0 51 40q365 1359 365 1365q0 14 -9.5 30t-30.5 22q-7 2 -14 2q-32 0 -51 -40q-365 -1360 -365 -1367q0 -32 39 -50q8 -2 15 -2zM66 -16q33 0 51 40q365 1359 365 1365q0 14 -9.5 30t-30.5 22q-7 2 -14 2q-32 0 -51 -40q-365 -1360 -365 -1367q0 -32 39 -50
q8 -2 15 -2z" />
    <glyph glyph-name="zero" unicode="0" horiz-adv-x="791" 
d="M292 0q-121 0 -206.5 85.5t-85.5 206.5v849q0 121 85.5 207t206.5 86t206.5 -86t85.5 -207v-849q0 -121 -85.5 -206.5t-206.5 -85.5zM107 463l363 734q-51 130 -178 130q-77 0 -131 -54.5t-54 -131.5v-678zM292 107q77 0 131.5 54t54.5 131v679l-363 -734
q50 -130 177 -130z" />
    <glyph glyph-name="one" unicode="1" horiz-adv-x="470" 
d="M197 0q44 0 53 53v1327q0 22 -16 38t-37 16h-144q-21 0 -37 -16t-16 -38q0 -44 53 -53h90v-1274q0 -44 54 -53zM197 0q44 0 53 53v1327q0 22 -16 38t-37 16h-144q-21 0 -37 -16t-16 -38q0 -44 53 -53h90v-1274q0 -44 54 -53z" />
    <glyph glyph-name="two" unicode="2" horiz-adv-x="756" 
d="M496 0q19 0 36 15.5t17 37.5q0 27 -26 44q-12 9 -27 9h-385v642q0 72 58 128q57 36 114 36l39 3q60 9 114 46q113 89 113 213q0 65 -34 123q-84 136 -227 136h-235q-22 0 -37.5 -16t-15.5 -38q0 -26 24 -46q15 -7 264 -7q63 0 109 -44.5t46 -107.5t-46 -109
q-57 -44 -115 -44h-11l-5 -2q-101 0 -181 -76.5t-80 -194.5v-695q0 -46 53 -53h438zM496 0q19 0 36 15.5t17 37.5q0 27 -26 44q-12 9 -27 9h-385v642q0 72 58 128q57 36 114 36l39 3q60 9 114 46q113 89 113 213q0 65 -34 123q-84 136 -227 136h-235q-22 0 -37.5 -16
t-15.5 -38q0 -26 24 -46q15 -7 264 -7q63 0 109 -44.5t46 -107.5t-46 -109q-57 -44 -115 -44h-11l-5 -2q-101 0 -181 -76.5t-80 -194.5v-695q0 -46 53 -53h438z" />
    <glyph glyph-name="three" unicode="3" horiz-adv-x="752" 
d="M272 0q146 0 236 137q36 62 36 135v477q0 126 -105 216l29 26q76 75 76 183q0 66 -32 125q-85 135 -227 135h-232q-21 0 -37 -16t-16 -38q0 -26 23 -44q14 -9 262 -9q63 0 108 -45t45 -108q0 -61 -46 -107t-107 -46q-218 0 -232 -9q-23 -17 -23 -44q0 -28 26 -46
q13 -8 216 -8q67 0 116.5 -49.5t49.5 -115.5v-477q0 -68 -48.5 -116.5t-117.5 -48.5q-233 0 -246 -8q-26 -15 -26 -46q0 -44 53 -53h219zM272 0q146 0 236 137q36 62 36 135v477q0 126 -105 216l29 26q76 75 76 183q0 66 -32 125q-85 135 -227 135h-232q-21 0 -37 -16
t-16 -38q0 -26 23 -44q14 -9 262 -9q63 0 108 -45t45 -108q0 -61 -46 -107t-107 -46q-218 0 -232 -9q-23 -17 -23 -44q0 -28 26 -46q13 -8 216 -8q67 0 116.5 -49.5t49.5 -115.5v-477q0 -68 -48.5 -116.5t-117.5 -48.5q-233 0 -246 -8q-26 -15 -26 -46q0 -44 53 -53h219z
" />
    <glyph glyph-name="four" unicode="4" horiz-adv-x="879" 
d="M491 0q-44 0 -53 53v360h-385q-44 0 -53 53l2 13q362 767 440 921q14 32 49 34q22 -1 37.5 -16.5t15.5 -37.5v-861h79q44 0 53 -53q0 -44 -53 -53h-79v-360q0 -44 -53 -53zM438 519v647l-55 -109l-254 -538h309z" />
    <glyph glyph-name="five" unicode="5" horiz-adv-x="752" 
d="M272 0q146 0 237 137q35 64 35 135v477q0 71 -35 135q-93 137 -237 137h-165v306h303q41 0 54 50v3q0 44 -54 54h-357q-44 0 -53 -54v-413q1 -29 26 -45q13 -8 246 -8q66 0 116 -49.5t50 -115.5v-477q0 -68 -48.5 -116.5t-117.5 -48.5h-219q-43 0 -53 -54q0 -44 53 -53
h219zM272 0q146 0 237 137q35 64 35 135v477q0 71 -35 135q-93 137 -237 137h-165v306h303q41 0 54 50v3q0 44 -54 54h-357q-44 0 -53 -54v-413q1 -29 26 -45q13 -8 246 -8q66 0 116 -49.5t50 -115.5v-477q0 -68 -48.5 -116.5t-117.5 -48.5h-219q-43 0 -53 -54q0 -44 53 -53
h219z" />
    <glyph glyph-name="six" unicode="6" horiz-adv-x="752" 
d="M272 0q-71 0 -135 36.5t-100.5 100.5t-36.5 135v902q0 140 135 228q59 32 125 32h150q45 0 54 -54v-5q-13 -48 -54 -48h-150q-62 0 -107.5 -46t-45.5 -107v-204l41 21q58 30 124 30q143 0 236 -138q36 -63 36 -134v-477q0 -71 -35 -134q-91 -138 -237 -138zM272 107
q69 0 117.5 48.5t48.5 116.5v477q0 66 -50 115.5t-116 49.5q-68 0 -116.5 -48.5t-48.5 -116.5v-477q0 -68 48.5 -116.5t116.5 -48.5zM272 0q-71 0 -135 36.5t-100.5 100.5t-36.5 135v902q0 140 135 228q59 32 125 32h150q45 0 54 -54v-5q-13 -48 -54 -48h-150
q-62 0 -107.5 -46t-45.5 -107v-204l41 21q58 30 124 30q143 0 236 -138q36 -63 36 -134v-477q0 -71 -35 -134q-91 -138 -237 -138zM272 107q69 0 117.5 48.5t48.5 116.5v477q0 66 -50 115.5t-116 49.5q-68 0 -116.5 -48.5t-48.5 -116.5v-477q0 -68 48.5 -116.5t116.5 -48.5z
" />
    <glyph glyph-name="seven" unicode="7" horiz-adv-x="750" 
d="M60 0q34 0 51 36l409 1259q21 63 21 81q0 52 -47 57h-441q-43 0 -53 -54q0 -43 53 -53h366l-409 -1256l-3 -19q0 -33 37 -49zM60 0q34 0 51 36l409 1259q21 63 21 81q0 52 -47 57h-441q-43 0 -53 -54q0 -43 53 -53h366l-409 -1256l-3 -19q0 -33 37 -49z" />
    <glyph glyph-name="eight" unicode="8" horiz-adv-x="752" 
d="M272 0q-112 0 -192 80t-80 192v477q0 119 107 218q-87 96 -87 207q0 107 68.5 183.5t171.5 76.5h25q104 0 171.5 -73.5t67.5 -186.5q0 -107 -67 -185l-21 -21l22 -20q86 -80 86 -199v-477q0 -112 -79.5 -192t-192.5 -80zM285 1021q62 0 97.5 45.5t35.5 107.5
q0 69 -37 111t-96 42h-25q-63 0 -98 -45t-35 -108q0 -69 36.5 -111t96.5 -42h25zM272 107q69 0 117.5 48.5t48.5 116.5v477q0 66 -49.5 115.5t-116.5 49.5q-68 0 -116.5 -48.5t-48.5 -116.5v-477q0 -68 48.5 -116.5t116.5 -48.5zM272 0q-112 0 -192 80t-80 192v477
q0 119 107 218q-87 96 -87 207q0 107 68.5 183.5t171.5 76.5h25q104 0 171.5 -73.5t67.5 -186.5q0 -107 -67 -185l-21 -21l22 -20q86 -80 86 -199v-477q0 -112 -79.5 -192t-192.5 -80zM285 1021q62 0 97.5 45.5t35.5 107.5q0 69 -37 111t-96 42h-25q-63 0 -98 -45t-35 -108
q0 -69 36.5 -111t96.5 -42h25zM272 107q69 0 117.5 48.5t48.5 116.5v477q0 66 -49.5 115.5t-116.5 49.5q-68 0 -116.5 -48.5t-48.5 -116.5v-477q0 -68 48.5 -116.5t116.5 -48.5z" />
    <glyph glyph-name="nine" unicode="9" horiz-adv-x="752" 
d="M285 0h-151q-28 0 -39.5 17t-11.5 35q0 16 10.5 35.5t40.5 19.5h151q61 0 107 45.5t46 107.5v204l-42 -22q-58 -29 -124 -29q-144 0 -236 138q-36 64 -36 134v477q0 71 36 134q90 138 236 138q71 0 135 -36.5t100.5 -100.5t36.5 -135v-902q0 -140 -134 -228
q-60 -32 -125 -32zM272 519q69 0 117.5 48.5t48.5 117.5v477q0 68 -48.5 116.5t-117.5 48.5q-68 0 -117 -48.5t-49 -116.5v-477q0 -67 50 -116.5t116 -49.5zM285 0h-151q-28 0 -39.5 17t-11.5 35q0 16 10.5 35.5t40.5 19.5h151q61 0 107 45.5t46 107.5v204l-42 -22
q-58 -29 -124 -29q-144 0 -236 138q-36 64 -36 134v477q0 71 36 134q90 138 236 138q71 0 135 -36.5t100.5 -100.5t36.5 -135v-902q0 -140 -134 -228q-60 -32 -125 -32zM272 519q69 0 117.5 48.5t48.5 117.5v477q0 68 -48.5 116.5t-117.5 48.5q-68 0 -117 -48.5t-49 -116.5
v-477q0 -67 50 -116.5t116 -49.5z" />
    <glyph glyph-name="colon" unicode=":" horiz-adv-x="383" 
d="M53 0q44 0 54 53v116q0 44 -54 53q-44 0 -53 -53v-116q0 -44 53 -53zM53 0q44 0 54 53v116q0 44 -54 53q-44 0 -53 -53v-116q0 -44 53 -53zM53 811q44 0 54 53v116q0 44 -54 53q-44 0 -53 -53v-116q0 -44 53 -53zM53 811q44 0 54 53v116q0 44 -54 53q-44 0 -53 -53v-116
q0 -44 53 -53z" />
    <glyph glyph-name="semicolon" unicode=";" horiz-adv-x="394" 
d="M115 811q44 0 54 53v116q0 44 -54 53q-44 0 -53 -53v-116q0 -44 53 -53zM115 811q44 0 54 53v116q0 44 -54 53q-44 0 -53 -53v-116q0 -44 53 -53zM50 -189q32 0 49 31l65 143q5 34 5 155q0 44 -54 53q-45 0 -53 -53v-121q-65 -144 -65 -157q0 -29 31 -46q10 -5 22 -5z
M50 -189q32 0 49 31l65 143q5 34 5 155q0 44 -54 53q-45 0 -53 -53v-121q-65 -144 -65 -157q0 -29 31 -46q10 -5 22 -5z" />
    <glyph glyph-name="less" unicode="&#x3c;" horiz-adv-x="689" 
d="M423 427q27 0 44 22q9 14 9 29q0 31 -23 46l-288 198l288 196q23 15 23 46q0 15 -9 29q-17 24 -44 24q-16 0 -31 -9l-380 -262q-12 -9 -12 -24q0 -17 12 -26l380 -259q15 -10 31 -10zM423 427q27 0 44 22q9 14 9 29q0 31 -23 46l-288 198l288 196q23 15 23 46q0 15 -9 29
q-17 24 -44 24q-16 0 -31 -9l-380 -262q-12 -9 -12 -24q0 -17 12 -26l380 -259q15 -10 31 -10z" />
    <glyph glyph-name="equal" unicode="=" horiz-adv-x="795" 
d="M535 824q44 0 53 54q0 44 -53 53h-482q-21 0 -37 -16t-16 -37q0 -44 53 -54h482zM535 824q44 0 53 54q0 44 -53 53h-482q-21 0 -37 -16t-16 -37q0 -44 53 -54h482zM535 463q44 0 53 53q0 44 -53 54h-482q-21 0 -37 -16t-16 -38q0 -44 53 -53h482zM535 463q44 0 53 53
q0 44 -53 54h-482q-21 0 -37 -16t-16 -38q0 -44 53 -53h482z" />
    <glyph glyph-name="greater" unicode="&#x3e;" horiz-adv-x="689" 
d="M52 427q17 0 32 10l380 259q12 9 12 26q0 15 -12 24l-380 262q-15 9 -32 9q-26 0 -43 -24q-9 -14 -9 -29q0 -31 23 -46l288 -196l-288 -198q-23 -15 -23 -46q0 -15 9 -29q17 -22 43 -22zM52 427q17 0 32 10l380 259q12 9 12 26q0 15 -12 24l-380 262q-15 9 -32 9
q-26 0 -43 -24q-9 -14 -9 -29q0 -31 23 -46l288 -196l-288 -198q-23 -15 -23 -46q0 -15 9 -29q17 -22 43 -22z" />
    <glyph glyph-name="question" unicode="?" horiz-adv-x="666" 
d="M182 0q44 0 53 53v116q0 44 -53 53q-44 0 -53 -53v-116q0 -44 53 -53zM182 0q44 0 53 53v116q0 44 -53 53q-44 0 -53 -53v-116q0 -44 53 -53zM182 382q44 0 53 54v403q0 66 77 104l5 5h4q31 17 57 43q76 79 76 183q0 66 -32 125q-86 135 -228 135h-141q-21 0 -37 -16
t-16 -38q0 -26 23 -44q14 -9 171 -9q63 0 108 -45t45 -108q0 -86 -86 -136q-39 -22 -84 -57t-49 -74l1 -471q0 -44 53 -54zM182 382q44 0 53 54v403q0 66 77 104l5 5h4q31 17 57 43q76 79 76 183q0 66 -32 125q-86 135 -228 135h-141q-21 0 -37 -16t-16 -38q0 -26 23 -44
q14 -9 171 -9q63 0 108 -45t45 -108q0 -86 -86 -136q-39 -22 -84 -57t-49 -74l1 -471q0 -44 53 -54z" />
    <glyph glyph-name="at" unicode="@" horiz-adv-x="1373" 
d="M595 0h-1q-252 7 -423 181t-171 424v136q0 249 170.5 423t422.5 182q238 0 419 -171q178 -190 178 -434v-146q0 -110 -39 -212q-68 -125 -197 -125q-31 0 -61 8q-88 25 -111 80q-10 23 -10 89l-13 -26q-14 -27 -52.5 -52t-111.5 -27q-115 3 -193.5 81.5t-78.5 190.5v142
q0 112 80 192t192 80q74 0 111 -26.5t50 -52.5l13 -26l1 62q3 22 19 32.5t25 10.5q24 0 38.5 -18t14.5 -37v-515q0 -36 17 -66q27 -40 73 -40q44 0 73 35q56 81 56 222v152q0 196 -144 346q-147 144 -347 144q-199 0 -344.5 -148t-145.5 -351v-135q0 -204 139.5 -347.5
t345.5 -150.5q95 0 176 30q25 12 49 12q20 0 33.5 -14t14.5 -33q-4 -62 -104 -79q-80 -23 -164 -23zM595 437q69 0 117.5 48.5t48.5 116.5v142q0 66 -50 115.5t-116 49.5q-68 0 -116.5 -48.5t-48.5 -116.5v-142q0 -68 48.5 -116.5t116.5 -48.5z" />
    <glyph glyph-name="A" unicode="A" horiz-adv-x="873" 
d="M694 0q-37 0 -51 39l-80 295h-441l-77 -295q-14 -39 -51 -39l-14 2q-40 15 -40 53q0 9 352 1336q7 32 39 42q38 0 55 -20q9 -13 10 -22q349 -1327 349 -1336q0 -38 -39 -53zM536 441l-193 730l-192 -730h385zM694 0q-37 0 -51 39l-80 295h-441l-77 -295q-14 -39 -51 -39
l-14 2q-40 15 -40 53q0 9 352 1336q7 32 39 42q38 0 55 -20q9 -13 10 -22q349 -1327 349 -1336q0 -38 -39 -53zM536 441l-193 730l-192 -730h385z" />
    <glyph glyph-name="B" unicode="B" horiz-adv-x="805" 
d="M303 0h-240q-43 0 -53 53v1273q-80 0 -80 53v5q12 49 56 49h235q164 0 256 -148q24 -57 24 -110q0 -57 -26 -110q-9 -22 -49 -70l29 -17q138 -91 138 -250v-435q0 -75 -36 -143q-97 -150 -254 -150zM116 1022l127 2q68 10 100 56t32 95t-32 94.5t-100 56.5l-127 1v-305z
M302 106q77 0 131.5 54.5t54.5 131.5v437q0 77 -54.5 131t-131.5 54h-186v-808h186zM303 0h-240q-43 0 -53 53v1273q-80 0 -80 53v5q12 49 56 49h235q164 0 256 -148q24 -57 24 -110q0 -57 -26 -110q-9 -22 -49 -70l29 -17q138 -91 138 -250v-435q0 -75 -36 -143
q-97 -150 -254 -150zM116 1022l127 2q68 10 100 56t32 95t-32 94.5t-100 56.5l-127 1v-305zM302 106q77 0 131.5 54.5t54.5 131.5v437q0 77 -54.5 131t-131.5 54h-186v-808h186z" />
    <glyph glyph-name="C" unicode="C" horiz-adv-x="685" 
d="M421 0q17 0 30.5 10t17.5 27l5 16q0 34 -31 48q-10 6 -151 6q-77 0 -131 54.5t-54 130.5v849q0 77 51.5 129.5t129.5 56.5q145 0 156 5q30 17 30 48q-1 22 -14.5 38t-38.5 16h-136q-69 -2 -129 -34q-76 -41 -116 -112t-40 -147v-849q0 -81 43 -153q87 -139 249 -139h129z
M421 0q17 0 30.5 10t17.5 27l5 16q0 34 -31 48q-10 6 -151 6q-77 0 -131 54.5t-54 130.5v849q0 77 51.5 129.5t129.5 56.5q145 0 156 5q30 17 30 48q-1 22 -14.5 38t-38.5 16h-136q-69 -2 -129 -34q-76 -41 -116 -112t-40 -147v-849q0 -81 43 -153q87 -139 249 -139h129z
" />
    <glyph glyph-name="D" unicode="D" horiz-adv-x="783" 
d="M317 0h-254q-51 6 -51 53v1274h-39q-48 0 -63 53q0 22 16 38t37 16h361q171 -14 247 -150q38 -67 38 -143v-849q0 -84 -42.5 -152t-108 -104t-141.5 -36zM317 107q76 0 130.5 54t54.5 131v849q0 77 -51.5 129.5t-129.5 56.5h-203v-1220h199zM317 0h-254q-51 6 -51 53
v1274h-39q-48 0 -63 53q0 22 16 38t37 16h361q171 -14 247 -150q38 -67 38 -143v-849q0 -84 -42.5 -152t-108 -104t-141.5 -36zM317 107q76 0 130.5 54t54.5 131v849q0 77 -51.5 129.5t-129.5 56.5h-203v-1220h199z" />
    <glyph glyph-name="E" unicode="E" horiz-adv-x="646" 
d="M380 0q44 0 54 53q0 44 -54 54h-274v807h224q44 0 53 54q0 44 -53 53h-224v306h274q44 0 54 53q0 44 -54 54h-333q-47 -13 -47 -54v-1327q0 -40 47 -53h333zM380 0q44 0 54 53q0 44 -54 54h-274v807h224q44 0 53 54q0 44 -53 53h-224v306h274q44 0 54 53q0 44 -54 54
h-333q-47 -13 -47 -54v-1327q0 -40 47 -53h333z" />
    <glyph glyph-name="F" unicode="F" horiz-adv-x="615" 
d="M53 0q31 0 48 30q5 11 5 884h224q44 0 53 54q0 44 -53 53h-224v306h274q44 0 54 53q0 44 -54 54h-333q-47 -13 -47 -54v-1327q0 -44 53 -53zM53 0q31 0 48 30q5 11 5 884h224q44 0 53 54q0 44 -53 53h-224v306h274q44 0 54 53q0 44 -54 54h-333q-47 -13 -47 -54v-1327
q0 -44 53 -53z" />
    <glyph glyph-name="G" unicode="G" horiz-adv-x="791" 
d="M537 0q47 13 47 53v649q0 44 -53 53h-126q-21 0 -37 -16t-16 -37q0 -44 53 -53h73v-542h-186q-77 0 -131 54t-54 131v849q0 77 51.5 129.5t129.5 56.5q205 0 216 5q30 17 30 48q0 21 -16 37.5t-37 16.5h-196q-69 -2 -129 -34q-76 -41 -116 -112t-40 -147v-849
q0 -81 42.5 -150.5t108.5 -105.5l3 -1q67 -35 143 -35h240zM537 0q47 13 47 53v649q0 44 -53 53h-126q-21 0 -37 -16t-16 -37q0 -44 53 -53h73v-542h-186q-77 0 -131 54t-54 131v849q0 77 51.5 129.5t129.5 56.5q205 0 216 5q30 17 30 48q0 21 -16 37.5t-37 16.5h-196
q-69 -2 -129 -34q-76 -41 -116 -112t-40 -147v-849q0 -81 42.5 -150.5t108.5 -105.5l3 -1q67 -35 143 -35h240z" />
    <glyph glyph-name="H" unicode="H" horiz-adv-x="791" 
d="M531 0q44 0 53 53v1327q0 22 -16 38t-37 16q-44 0 -53 -54v-399h-371v399q0 44 -54 54q-44 0 -53 -54v-1327q0 -44 53 -53q44 0 54 53v822h371v-822q0 -44 53 -53zM531 0q44 0 53 53v1327q0 22 -16 38t-37 16q-44 0 -53 -54v-399h-371v399q0 44 -54 54q-44 0 -53 -54
v-1327q0 -44 53 -53q44 0 54 53v822h371v-822q0 -44 53 -53z" />
    <glyph glyph-name="I" unicode="I" horiz-adv-x="332" 
d="M53 0q44 0 53 53v1327q0 22 -15.5 38t-37.5 16q-44 0 -53 -54v-1327q0 -44 53 -53zM53 0q44 0 53 53v1327q0 22 -15.5 38t-37.5 16q-44 0 -53 -54v-1327q0 -44 53 -53z" />
    <glyph glyph-name="J" unicode="J" horiz-adv-x="603" 
d="M111 0q119 0 203.5 83.5t89.5 204.5v1094q0 19 -15.5 36t-37.5 17q-32 0 -49 -31q-4 -10 -4 -1111q0 -78 -54.5 -132.5t-132.5 -54.5h-147q-39 0 -54 -43v-7q0 -20 16 -38t38 -18h147zM111 0q119 0 203.5 83.5t89.5 204.5v1094q0 19 -15.5 36t-37.5 17q-32 0 -49 -31
q-4 -10 -4 -1111q0 -78 -54.5 -132.5t-132.5 -54.5h-147q-39 0 -54 -43v-7q0 -20 16 -38t38 -18h147z" />
    <glyph glyph-name="K" unicode="K" horiz-adv-x="839" 
d="M581 0l14 2q40 15 40 51l-2 14l-210 781l129 480h27q44 0 53 53q0 22 -15.5 37.5t-37.5 15.5h-68q-36 0 -51 -39l-133 -495h-220v481q0 44 -54 53q-44 0 -53 -53v-1327q0 -44 53 -53q44 0 54 53v740h220l203 -754q16 -40 51 -40zM581 0l14 2q40 15 40 51l-2 14l-210 781
l129 480h27q44 0 53 53q0 22 -15.5 37.5t-37.5 15.5h-68q-36 0 -51 -39l-133 -495h-220v481q0 44 -54 53q-44 0 -53 -53v-1327q0 -44 53 -53q44 0 54 53v740h220l203 -754q16 -40 51 -40z" />
    <glyph glyph-name="L" unicode="L" horiz-adv-x="647" 
d="M380 0q44 0 54 53q0 44 -54 53h-274q0 1287 -5 1298q-17 30 -48 30q-44 0 -53 -54v-1327q0 -40 47 -53h333zM380 0q44 0 54 53q0 44 -54 53h-274q0 1287 -5 1298q-17 30 -48 30q-44 0 -53 -54v-1327q0 -40 47 -53h333z" />
    <glyph glyph-name="M" unicode="M" horiz-adv-x="1008" 
d="M757 0q44 0 53 53v1327q0 22 -16 38t-37 16q-33 0 -50 -35l-302 -837l-300 831q-18 40 -52 41q-44 0 -53 -54v-1327q0 -44 53 -53q44 0 54 53v1025l55 -161l186 -511q20 -54 57 -54q43 0 63 71q180 494 236 656v-1026q0 -44 53 -53z" />
    <glyph glyph-name="N" unicode="N" horiz-adv-x="792" 
d="M530 0q47 0 53 48v1331q0 46 -53 54q-44 0 -53 -54v-1021l-54 153l-317 876q-20 46 -37 46h-18q-36 0 -46 -34q-5 -10 -5 -1346q0 -43 53 -53q44 0 53 53v1017l371 -1026q16 -44 53 -44z" />
    <glyph glyph-name="O" unicode="O" horiz-adv-x="791" 
d="M292 0q-121 0 -206.5 85.5t-85.5 206.5v849q0 121 85.5 207t206.5 86t207 -86t86 -207v-849q0 -121 -86 -206.5t-207 -85.5zM292 107q77 0 131.5 54.5t54.5 130.5v849q0 77 -54.5 131.5t-131.5 54.5t-131 -54.5t-54 -131.5v-849q0 -76 54 -130.5t131 -54.5zM292 0
q-121 0 -206.5 85.5t-85.5 206.5v849q0 121 85.5 207t206.5 86t207 -86t86 -207v-849q0 -121 -86 -206.5t-207 -85.5zM292 107q77 0 131.5 54.5t54.5 130.5v849q0 77 -54.5 131.5t-131.5 54.5t-131 -54.5t-54 -131.5v-849q0 -76 54 -130.5t131 -54.5z" />
    <glyph glyph-name="P" unicode="P" horiz-adv-x="767" 
d="M69 0q-44 0 -53 53v1274h-33q-44 0 -53 53q0 22 16 38t37 16h331q108 -4 190 -75q97 -87 97 -218v-436q0 -76 -38 -143q-97 -149 -255 -149h-185v-360q0 -21 -16 -37t-38 -16zM308 519q77 0 131.5 54.5t54.5 131.5v436q0 76 -51.5 129t-129.5 57h-190v-808h185zM69 0
q-44 0 -53 53v1274h-33q-44 0 -53 53q0 22 16 38t37 16h331q108 -4 190 -75q97 -87 97 -218v-436q0 -76 -38 -143q-97 -149 -255 -149h-185v-360q0 -21 -16 -37t-38 -16zM308 519q77 0 131.5 54.5t54.5 131.5v436q0 76 -51.5 129t-129.5 57h-190v-808h185z" />
    <glyph glyph-name="Q" unicode="Q" horiz-adv-x="791" 
d="M520 -124q-26 0 -46 27l-67 118q-66 -22 -114 -22q-121 0 -207 86t-86 207v850q0 121 86 205.5t207 84.5t207 -84.5t86 -205.5v-850q0 -123 -90 -213q79 -134 79 -150q0 -26 -28 -46q-12 -7 -27 -7zM293 106l60 5q-105 178 -105 194q0 26 25 45q15 8 27 8q29 0 46 -27
l97 -162q36 89 36 123v850q0 75 -54.5 129.5t-131.5 54.5q-78 0 -132.5 -54.5t-54.5 -129.5v-850q0 -77 54.5 -131.5t132.5 -54.5zM520 -124q-26 0 -46 27l-67 118q-66 -22 -114 -22q-121 0 -207 86t-86 207v850q0 121 86 205.5t207 84.5t207 -84.5t86 -205.5v-850
q0 -123 -90 -213q79 -134 79 -150q0 -26 -28 -46q-12 -7 -27 -7zM293 106l60 5q-105 178 -105 194q0 26 25 45q15 8 27 8q29 0 46 -27l97 -162q36 89 36 123v850q0 75 -54.5 129.5t-131.5 54.5q-78 0 -132.5 -54.5t-54.5 -129.5v-850q0 -77 54.5 -131.5t132.5 -54.5z" />
    <glyph glyph-name="R" unicode="R" horiz-adv-x="775" 
d="M544 0q-31 0 -48 34l-157 382q-22 -2 -228 -2v-361q0 -19 -15.5 -36t-37.5 -17q-44 0 -53 53v1276h-32q-53 0 -53 53q0 22 15.5 37.5t37.5 15.5h329q109 -2 192 -75q36 -31 58 -75q38 -68 38 -143v-435q0 -78 -37 -144t-113 -113l155 -375l3 -21q0 -32 -32 -49
q-10 -5 -22 -5zM298 520q75 0 130 56.5t55 129.5v436q0 76 -51.5 129t-129.5 57h-190v-808h186zM544 0q-31 0 -48 34l-157 382q-22 -2 -228 -2v-361q0 -19 -15.5 -36t-37.5 -17q-44 0 -53 53v1276h-32q-53 0 -53 53q0 22 15.5 37.5t37.5 15.5h329q109 -2 192 -75
q36 -31 58 -75q38 -68 38 -143v-435q0 -78 -37 -144t-113 -113l155 -375l3 -21q0 -32 -32 -49q-10 -5 -22 -5zM298 520q75 0 130 56.5t55 129.5v436q0 76 -51.5 129t-129.5 57h-190v-808h186z" />
    <glyph glyph-name="S" unicode="S" horiz-adv-x="791" 
d="M292 0q76 0 145.5 39t108 108.5t38.5 144.5v359q0 124 -97 217q-83 75 -195 75q-77 0 -131 54.5t-54 130.5v13q0 77 54 131.5t131 54.5l153 1q42 10 42 52q0 43 -42 52q-13 2 -153 2q-75 0 -144.5 -39t-108.5 -108.5t-39 -145.5q0 -137 98 -230q82 -75 194 -75
q77 0 131.5 -54.5t54.5 -130.5v-359q0 -77 -54.5 -131t-131.5 -54q-191 0 -202 -6q-30 -17 -30 -48q0 -44 54 -53h178zM292 0q76 0 145.5 39t108 108.5t38.5 144.5v359q0 124 -97 217q-83 75 -195 75q-77 0 -131 54.5t-54 130.5v13q0 77 54 131.5t131 54.5l153 1
q42 10 42 52q0 43 -42 52q-13 2 -153 2q-75 0 -144.5 -39t-108.5 -108.5t-39 -145.5q0 -137 98 -230q82 -75 194 -75q77 0 131.5 -54.5t54.5 -130.5v-359q0 -77 -54.5 -131t-131.5 -54q-191 0 -202 -6q-30 -17 -30 -48q0 -44 54 -53h178z" />
    <glyph glyph-name="T" unicode="T" horiz-adv-x="716" 
d="M252 0q44 0 53 53v1274h186q44 0 53 53q0 44 -53 54h-478q-44 0 -53 -54q0 -44 53 -53h186v-1274q0 -44 53 -53zM252 0q44 0 53 53v1274h186q44 0 53 53q0 44 -53 54h-478q-44 0 -53 -54q0 -44 53 -53h186v-1274q0 -44 53 -53z" />
    <glyph glyph-name="U" unicode="U" horiz-adv-x="791" 
d="M292 0q80 0 151 42q141 90 141 250v1088q0 22 -16 38t-37 16q-31 0 -48 -30q-5 -11 -5 -1112q0 -76 -54.5 -130.5t-131.5 -54.5t-131 54.5t-54 130.5q0 1101 -6 1112q-14 30 -48 30q-44 0 -53 -54v-1088q0 -155 142 -250q70 -42 150 -42zM292 0q80 0 151 42
q141 90 141 250v1088q0 22 -16 38t-37 16q-31 0 -48 -30q-5 -11 -5 -1112q0 -76 -54.5 -130.5t-131.5 -54.5t-131 54.5t-54 130.5q0 1101 -6 1112q-14 30 -48 30q-44 0 -53 -54v-1088q0 -155 142 -250q70 -42 150 -42z" />
    <glyph glyph-name="V" unicode="V" horiz-adv-x="901" 
d="M373 0q22 2 34 15q2 2 14 38q342 1310 342 1327q0 7 -1.5 22.5t-28.5 27.5q-9 5 -21 5q-25 0 -42 -22q-7 -11 -304 -1154l-303 1137q-10 39 -51 39q-12 0 -22 -5q-30 -19 -30 -50l4 -22l351 -1319q15 -39 58 -39zM373 0q22 2 34 15q2 2 14 38q342 1310 342 1327
q0 7 -1.5 22.5t-28.5 27.5q-9 5 -21 5q-25 0 -42 -22q-7 -11 -304 -1154l-303 1137q-10 39 -51 39q-12 0 -22 -5q-30 -19 -30 -50l4 -22l351 -1319q15 -39 58 -39z" />
    <glyph glyph-name="W" unicode="W" horiz-adv-x="1159" 
d="M694 0q42 0 53 58q260 1304 260 1317q0 60 -49 60q-40 0 -51 -44l-218 -1134l-162 965q-10 48 -53 48q-15 0 -30.5 -13t-23.5 -42l-155 -963l-225 1139q-8 44 -50 44q-50 0 -50 -63q0 -11 270 -1316q10 -51 34 -51q9 -5 19 -5q12 0 24 5h1q14 0 31 53l157 968l165 -970
v-12l2 -10q17 -34 51 -34zM694 0q42 0 53 58q260 1304 260 1317q0 60 -49 60q-40 0 -51 -44l-218 -1134l-162 965q-10 48 -53 48q-15 0 -30.5 -13t-23.5 -42l-155 -963l-225 1139q-8 44 -50 44q-50 0 -50 -63q0 -11 270 -1316q10 -51 34 -51q9 -5 19 -5q12 0 24 5h1
q14 0 31 53l157 968l165 -970v-12l2 -10q17 -34 51 -34z" />
    <glyph glyph-name="X" unicode="X" horiz-adv-x="856" 
d="M600 0q10 0 20 5q33 16 33 46q0 13 -268 665q268 653 268 667q0 31 -33 47q-10 5 -20 5q-33 0 -50 -34l-223 -544l-225 544q-17 34 -48 34q-13 0 -22 -5q-32 -17 -32 -49l3 -21l266 -644l-266 -643l-3 -20q0 -31 32 -48q9 -5 22 -5q31 0 48 31l225 545l223 -545
q17 -31 50 -31zM600 0q10 0 20 5q33 16 33 46q0 13 -268 665q268 653 268 667q0 31 -33 47q-10 5 -20 5q-33 0 -50 -34l-223 -544l-225 544q-17 34 -48 34q-13 0 -22 -5q-32 -17 -32 -49l3 -21l266 -644l-266 -643l-3 -20q0 -31 32 -48q9 -5 22 -5q31 0 48 31l225 545
l223 -545q17 -31 50 -31z" />
    <glyph glyph-name="Y" unicode="Y" horiz-adv-x="858" 
d="M326 0q45 0 54 53v653q273 664 273 675q0 33 -33 49q-10 4 -20 4q-33 0 -49 -33l-224 -544l-225 544q-16 33 -49 33l-20 -4q-33 -16 -33 -49q0 -10 273 -675v-653q0 -44 53 -53zM326 0q45 0 54 53v653q273 664 273 675q0 33 -33 49q-10 4 -20 4q-33 0 -49 -33l-224 -544
l-225 544q-16 33 -49 33l-20 -4q-33 -16 -33 -49q0 -10 273 -675v-653q0 -44 53 -53z" />
    <glyph glyph-name="Z" unicode="Z" horiz-adv-x="794" 
d="M532 0q44 0 54 53q0 44 -54 53h-404l455 1256l3 20q0 19 -16 35t-35 16h-482q-53 0 -53 -54q0 -43 53 -53h404l-452 -1249l-4 -22q0 -55 52 -55h479zM532 0q44 0 54 53q0 44 -54 53h-404l455 1256l3 20q0 19 -16 35t-35 16h-482q-53 0 -53 -54q0 -43 53 -53h404
l-452 -1249l-4 -22q0 -55 52 -55h479z" />
    <glyph glyph-name="bracketleft" unicode="[" horiz-adv-x="470" 
d="M53 -140h144q21 0 37 16t16 37q-9 54 -53 54h-90v1482h90q53 9 53 53q0 21 -16 37t-37 16h-144q-21 0 -37 -16t-16 -37q0 -1600 5 -1611q14 -31 48 -31zM53 -140h144q21 0 37 16t16 37q-9 54 -53 54h-90v1482h90q53 9 53 53q0 21 -16 37t-37 16h-144q-21 0 -37 -16
t-16 -37q0 -1600 5 -1611q14 -31 48 -31z" />
    <glyph glyph-name="backslash" unicode="\" horiz-adv-x="672" 
d="M428 -16q7 0 15 2q39 18 39 50q0 7 -365 1367q-19 40 -50 40q-7 0 -15 -2q-21 -6 -30.5 -22t-9.5 -30q0 -6 365 -1365q19 -40 51 -40zM428 -16q7 0 15 2q39 18 39 50q0 7 -365 1367q-19 40 -50 40q-7 0 -15 -2q-21 -6 -30.5 -22t-9.5 -30q0 -6 365 -1365q19 -40 51 -40z
" />
    <glyph glyph-name="bracketright" unicode="]" horiz-adv-x="470" 
d="M196 -140q34 0 49 31q5 11 5 1611q0 21 -16 37t-38 16h-143q-21 0 -37 -16t-16 -37q0 -44 53 -53h90v-1482h-90q-44 0 -53 -54q0 -21 16 -37t37 -16h143zM196 -140q34 0 49 31q5 11 5 1611q0 21 -16 37t-38 16h-143q-21 0 -37 -16t-16 -37q0 -44 53 -53h90v-1482h-90
q-44 0 -53 -54q0 -21 16 -37t37 -16h143z" />
    <glyph glyph-name="asciicircum" unicode="^" horiz-adv-x="796" 
d="M5 1008q0 -27 22 -44q14 -9 29 -9q31 0 46 23l198 288l196 -288q15 -23 46 -23q15 0 29 9q24 17 24 44q0 16 -9 31l-262 380q-9 12 -24 12q-17 0 -26 -12l-259 -380q-10 -15 -10 -31zM5 1008q0 -27 22 -44q14 -9 29 -9q31 0 46 23l198 288l196 -288q15 -23 46 -23
q15 0 29 9q24 17 24 44q0 16 -9 31l-262 380q-9 12 -24 12q-17 0 -26 -12l-259 -380q-10 -15 -10 -31z" />
    <glyph glyph-name="underscore" unicode="_" horiz-adv-x="1165" 
d="M984 -150q44 0 53 53q0 44 -53 54h-942q-21 0 -37 -16t-16 -38q0 -44 53 -53h942zM984 -150q44 0 53 53q0 44 -53 54h-942q-21 0 -37 -16t-16 -38q0 -44 53 -53h942z" />
    <glyph glyph-name="grave" unicode="`" horiz-adv-x="395" 
d="M119 1058q12 0 21 5q32 17 32 46q0 14 -66 157v121q-7 53 -53 53q-53 -9 -53 -53q0 -121 5 -155l65 -143q17 -31 49 -31zM119 1058q12 0 21 5q32 17 32 46q0 14 -66 157v121q-7 53 -53 53q-53 -9 -53 -53q0 -121 5 -155l65 -143q17 -31 49 -31z" />
    <glyph glyph-name="a" unicode="a" 
d="M491 0q-41 0 -51 53l-2 53q-10 -31 -47.5 -68.5t-124.5 -37.5q-60 0 -123 34q-143 89 -143 237v143q0 155 148 242q54 29 116 29h9q66 -3 102 -29.5t50 -52.5l13 -27v172q0 68 -49.5 117.5t-115.5 49.5h-106q-44 0 -53 53q0 22 14 39h5q15 14 34 14h106
q112 0 191.5 -79.5t79.5 -193.5v-695q0 -43 -53 -53zM273 107q68 0 116.5 48.5t48.5 116.5v142q0 66 -49.5 115.5t-115.5 49.5q-69 0 -117.5 -48.5t-48.5 -116.5v-142q0 -68 48.5 -116.5t117.5 -48.5z" />
    <glyph glyph-name="b" unicode="b" horiz-adv-x="752" 
d="M272 0q-67 0 -102.5 27.5t-48.5 54.5l-14 28v-61q-9 -49 -54 -49q-21 0 -37 16t-16 37v1327q0 22 16 38t37 16q44 0 54 -54v-451l15 23q16 23 52 46t98 23q113 0 192.5 -79.5t79.5 -192.5v-477q0 -71 -35 -135q-91 -137 -237 -137zM272 107q69 0 117.5 48.5t48.5 116.5
v477q0 68 -48.5 116.5t-117.5 48.5q-66 0 -115.5 -49.5t-49.5 -115.5v-477q0 -68 48.5 -116.5t116.5 -48.5z" />
    <glyph glyph-name="c" unicode="c" horiz-adv-x="653" 
d="M409 0q22 0 38.5 16.5t16.5 37.5l-2 14q-17 38 -53 38h-138q-68 0 -116.5 48.5t-48.5 116.5v477q0 70 48.5 118.5t116.5 48.5h138q31 0 41 19t10 34q0 19 -11 36t-40 17h-138q-109 0 -190 -82t-81 -191v-477q0 -68 36 -133q92 -138 235 -138h138zM409 0q22 0 38.5 16.5
t16.5 37.5l-2 14q-17 38 -53 38h-138q-68 0 -116.5 48.5t-48.5 116.5v477q0 70 48.5 118.5t116.5 48.5h138q31 0 41 19t10 34q0 19 -11 36t-40 17h-138q-109 0 -190 -82t-81 -191v-477q0 -68 36 -133q92 -138 235 -138h138z" />
    <glyph glyph-name="d" unicode="d" horiz-adv-x="752" 
d="M491 0q-45 0 -53 49l-1 61l-13 -28q-14 -27 -49.5 -54.5t-102.5 -27.5q-146 0 -236 137q-36 64 -36 135v477q0 113 80 192.5t192 79.5q62 0 98 -23t52 -46l16 -23v451q0 44 53 54q21 0 37 -16t16 -38v-1327q0 -21 -16 -37t-37 -16zM272 107q69 0 117.5 48.5t48.5 116.5
v477q0 66 -49.5 115.5t-116.5 49.5q-68 0 -116.5 -48.5t-48.5 -116.5v-477q0 -68 48.5 -116.5t116.5 -48.5z" />
    <glyph glyph-name="e" unicode="e" horiz-adv-x="742" 
d="M459 0h-187q-147 0 -237 138q-35 60 -35 134v470q0 116 80 197.5t192 81.5q112 -1 192 -82t80 -190v-196q0 -92 -65 -157t-157 -65h-215v-59q0 -68 48.5 -116.5t116.5 -48.5q202 0 215 -9q25 -16 25 -45q0 -21 -16 -37t-37 -16zM302 437q56 0 96 40t40 95v177
q0 66 -49.5 115.5t-114.5 49.5h-3q-70 -2 -117 -50.5t-47 -118.5v-308h195zM459 0h-187q-147 0 -237 138q-35 60 -35 134v470q0 116 80 197.5t192 81.5q112 -1 192 -82t80 -190v-196q0 -92 -65 -157t-157 -65h-215v-59q0 -68 48.5 -116.5t116.5 -48.5q202 0 215 -9
q25 -16 25 -45q0 -21 -16 -37t-37 -16zM302 437q56 0 96 40t40 95v177q0 66 -49.5 115.5t-114.5 49.5h-3q-70 -2 -117 -50.5t-47 -118.5v-308h195z" />
    <glyph glyph-name="f" unicode="f" horiz-adv-x="585" 
d="M53 0q31 0 48 30q6 11 6 890h232q44 0 53 54q0 44 -53 53h-232v114q0 77 54 131.5t131 54.5q161 0 172 6q30 14 30 47q0 14 -6 26q-18 28 -47 28h-149q-149 0 -249 -140q-41 -68 -43 -147v-1094q0 -21 16 -37t37 -16zM53 0q31 0 48 30q6 11 6 890h232q44 0 53 54
q0 44 -53 53h-232v114q0 77 54 131.5t131 54.5q161 0 172 6q30 14 30 47q0 14 -6 26q-18 28 -47 28h-149q-149 0 -249 -140q-41 -68 -43 -147v-1094q0 -21 16 -37t37 -16z" />
    <glyph glyph-name="g" unicode="g" 
d="M259 -407h-136q-29 0 -43 24q-11 14 -11 30q0 33 30 48q12 4 155 4q80 5 131 57t51 130v213l-49 -49q-41 -43 -116 -43q-109 0 -194 80q-77 82 -77 191v477q0 113 78.5 193t192.5 80q73 0 108 -28t48 -55l13 -28l-2 55q0 17 12 36.5t39 19.5q53 0 53 -49v-1093
q0 -75 -36 -143q-84 -144 -247 -150zM271 113q68 0 116.5 48.5t48.5 116.5v477q0 68 -48.5 117t-116.5 49t-117 -49t-49 -117v-477q0 -66 50 -115.5t116 -49.5z" />
    <glyph glyph-name="h" unicode="h" horiz-adv-x="752" 
d="M491 0q44 0 53 53v696q0 109 -79.5 190.5t-192.5 81.5q-60 0 -96.5 -23.5t-52.5 -47.5l-16 -24v454q0 22 -16 38t-38 16q-44 0 -53 -54v-1327q0 -44 53 -53q28 0 46 26q8 13 8 723q0 68 48.5 116.5t116.5 48.5q66 0 116 -49.5t50 -115.5q0 -710 7 -723q18 -26 46 -26z
" />
    <glyph glyph-name="i" unicode="i" horiz-adv-x="333" 
d="M53 0q44 0 54 53v915q0 44 -54 53q-44 0 -53 -53v-915q0 -44 53 -53zM53 0q44 0 54 53v915q0 44 -54 53q-44 0 -53 -53v-915q0 -44 53 -53zM53 1212q44 0 54 53v115q0 44 -54 54q-44 0 -53 -54v-115q0 -44 53 -53zM53 1212q44 0 54 53v115q0 44 -54 54q-44 0 -53 -54
v-115q0 -44 53 -53z" />
    <glyph glyph-name="j" unicode="j" horiz-adv-x="535" 
d="M32 -407q70 0 139 36.5t110 104t44 145.5v1093q0 44 -53 54h-155q-46 0 -54 -54q0 -43 54 -53h101v-1033q0 -78 -54.5 -132.5t-131.5 -54.5h-150q-36 0 -51 -43l-1 -10q0 -17 15 -35t37 -18h150zM32 -407q70 0 139 36.5t110 104t44 145.5v1093q0 44 -53 54h-155
q-46 0 -54 -54q0 -43 54 -53h101v-1033q0 -78 -54.5 -132.5t-131.5 -54.5h-150q-36 0 -51 -43l-1 -10q0 -17 15 -35t37 -18h150z" />
    <glyph glyph-name="k" unicode="k" horiz-adv-x="749" 
d="M528 0l19 2q34 18 34 52l-3 19l-208 559q121 330 121 336q0 34 -36 48q-7 5 -17 5q-34 0 -51 -36l-111 -300h-170v694q0 22 -15.5 38t-37.5 16q-43 0 -53 -54v-1326q0 -43 53 -53q44 0 53 53v525h170l201 -544q17 -34 51 -34zM528 0l19 2q34 18 34 52l-3 19l-208 559
q121 330 121 336q0 34 -36 48q-7 5 -17 5q-34 0 -51 -36l-111 -300h-170v694q0 22 -15.5 38t-37.5 16q-43 0 -53 -54v-1326q0 -43 53 -53q44 0 53 53v525h170l201 -544q17 -34 51 -34z" />
    <glyph glyph-name="l" unicode="l" horiz-adv-x="341" 
d="M68 0q44 0 53 53v1327q0 44 -53 54h-155q-44 0 -53 -54q0 -44 53 -53h102v-1274q0 -44 53 -53zM68 0q44 0 53 53v1327q0 44 -53 54h-155q-44 0 -53 -54q0 -44 53 -53h102v-1274q0 -44 53 -53z" />
    <glyph glyph-name="m" unicode="m" horiz-adv-x="910" 
d="M655 0q44 0 53 53v764q0 82 -61 143t-139 61q-67 0 -111 -54l-22 -30l-23 29q-30 35 -66 45t-59 10q-34 0 -44 -6q-63 -28 -82 -61l-20 -33l1 55q-1 41 -39 45q-43 -6 -43 -43v-925q0 -44 53 -53q20 0 37 15t17 38v764q0 40 28 68.5t69 28.5q39 0 68 -29t29 -68v-764
q0 -23 16.5 -38t36.5 -15q19 0 36 15t17 38v764q0 40 28.5 68.5t68.5 28.5q39 0 68 -29t29 -68v-764q0 -23 17 -38t37 -15z" />
    <glyph glyph-name="n" unicode="n" horiz-adv-x="752" 
d="M491 0q44 0 53 53v696q0 146 -137 236q-62 36 -135 36q-61 -2 -98 -26.5t-53 -50.5l-16 -26l1 49q0 18 -11 36t-42 18q-44 0 -53 -53v-915q0 -21 16 -37t37 -16q28 0 46 26q8 13 8 723q0 68 48.5 117t116.5 49q69 0 117.5 -49t48.5 -117v-696q0 -15 9 -29q16 -24 44 -24z
" />
    <glyph glyph-name="o" unicode="o" 
d="M272 0q-112 0 -192 80t-80 192v477q0 113 80 192.5t192 79.5q109 0 193 -80q79 -83 79 -192v-477q0 -112 -79.5 -192t-192.5 -80zM272 107q69 0 117.5 48.5t48.5 116.5v477q0 66 -50 115.5t-116 49.5q-68 0 -116.5 -48.5t-48.5 -116.5v-477q0 -68 48.5 -116.5
t116.5 -48.5zM272 0q-112 0 -192 80t-80 192v477q0 113 80 192.5t192 79.5q109 0 193 -80q79 -83 79 -192v-477q0 -112 -79.5 -192t-192.5 -80zM272 107q69 0 117.5 48.5t48.5 116.5v477q0 66 -50 115.5t-116 49.5q-68 0 -116.5 -48.5t-48.5 -116.5v-477q0 -68 48.5 -116.5
t116.5 -48.5z" />
    <glyph glyph-name="p" unicode="p" 
d="M53 -407q-21 0 -37 16t-16 37v1327q0 22 16 38t37 16q45 0 54 -49v-61l14 27q13 28 48.5 55.5t102.5 27.5q146 0 237 -138q35 -63 35 -135v-476q0 -113 -79.5 -192.5t-192.5 -79.5q-62 0 -98 23t-52 46l-15 23v-452q0 -44 -54 -53zM272 112q69 0 117.5 48.5t48.5 117.5
v476q0 69 -48.5 117.5t-117.5 48.5q-68 0 -116.5 -48.5t-48.5 -117.5v-476q0 -67 49.5 -116.5t115.5 -49.5z" />
    <glyph glyph-name="q" unicode="q" horiz-adv-x="769" 
d="M585 -407h-94q-44 0 -53 53v462l-11 -26q-11 -25 -46.5 -49.5t-108.5 -26.5q-115 2 -193.5 80.5t-78.5 191.5v477q0 70 36 134q90 138 236 138q69 0 104.5 -27.5t48.5 -55.5l12 -27l1 62q7 48 53 48q21 0 37 -16t16 -38v-1273h41q45 0 54 -54q0 -21 -16 -37t-38 -16z
M272 112q66 0 116 49.5t50 116.5v477q0 68 -48.5 116.5t-117.5 48.5q-68 0 -116.5 -48.5t-48.5 -116.5v-477q0 -69 48.5 -117.5t116.5 -48.5z" />
    <glyph glyph-name="r" unicode="r" horiz-adv-x="602" 
d="M53 0q29 0 46 24q7 15 7 724q0 70 48.5 118.5t118.5 48.5h138q29 0 40 19t11 34q0 19 -12 36t-39 17l-44 1q-123 0 -184.5 -27t-74.5 -61l-14 -34l1 75q0 9 -7.5 27.5t-39.5 18.5q-24 0 -36 -17t-12 -36v-915q0 -43 53 -53z" />
    <glyph glyph-name="s" unicode="s" horiz-adv-x="730" 
d="M272 0q146 0 236 137q36 64 36 135v142q0 103 -72 184q-86 88 -200 88h-51q-46 0 -80 34.5t-34 79.5q0 47 33.5 80.5t80.5 33.5h161q44 0 53 54q0 43 -53 53h-161q-126 0 -199 -124q-22 -46 -22 -97q0 -88 66.5 -154.5t154.5 -66.5h51q69 0 117.5 -48.5t48.5 -116.5v-142
q0 -68 -48.5 -116.5t-117.5 -48.5q-233 0 -246 -8q-26 -18 -26 -46q0 -21 16 -37t37 -16h219zM272 0q146 0 236 137q36 64 36 135v142q0 103 -72 184q-86 88 -200 88h-51q-46 0 -80 34.5t-34 79.5q0 47 33.5 80.5t80.5 33.5h161q44 0 53 54q0 43 -53 53h-161
q-126 0 -199 -124q-22 -46 -22 -97q0 -88 66.5 -154.5t154.5 -66.5h51q69 0 117.5 -48.5t48.5 -116.5v-142q0 -68 -48.5 -116.5t-117.5 -48.5q-233 0 -246 -8q-26 -18 -26 -46q0 -21 16 -37t37 -16h219z" />
    <glyph glyph-name="t" unicode="t" horiz-adv-x="633" 
d="M440 0q27 0 44 24q11 16 11 31q0 32 -30 47q-12 4 -172 4q-78 0 -132.5 54.5t-54.5 132.5v617h233q43 0 53 53q0 44 -53 53h-233q0 378 -4 388q-17 31 -49 31q-22 0 -37.5 -17t-15.5 -36v-1094q2 -77 41 -145q10 -10 22 -29l7 -12q102 -102 223 -102h147zM440 0
q27 0 44 24q11 16 11 31q0 32 -30 47q-12 4 -172 4q-78 0 -132.5 54.5t-54.5 132.5v617h233q43 0 53 53q0 44 -53 53h-233q0 378 -4 388q-17 31 -49 31q-22 0 -37.5 -17t-15.5 -36v-1094q2 -77 41 -145q10 -10 22 -29l7 -12q102 -102 223 -102h147z" />
    <glyph glyph-name="u" unicode="u" 
d="M491 0q44 0 53 53v915q0 21 -16 37t-37 16q-28 0 -46 -26q-7 -13 -7 -723q0 -68 -48.5 -116.5t-117.5 -48.5q-68 0 -116.5 48.5t-48.5 116.5v696q0 16 -9 29q-16 24 -45 24q-44 0 -53 -53v-696q0 -146 137 -236q64 -36 135 -36q62 0 99 26t52 51l16 26v-51
q0 -26 18.5 -39t33.5 -13z" />
    <glyph glyph-name="v" unicode="v" horiz-adv-x="737" 
d="M267 0q-12 0 -26.5 7.5t-22.5 23.5q-248 911 -248 934q0 14 9.5 30.5t30.5 20.5l12 3q37 0 51 -41l194 -804l193 804q15 41 54 41l12 -3q40 -9 40 -53l-248 -932q-8 -16 -22.5 -23.5t-28.5 -7.5z" />
    <glyph glyph-name="w" unicode="w" horiz-adv-x="958" 
d="M551 0q-37 0 -51 34l-111 576l-112 -576q-13 -34 -48 -34q-32 0 -51 36l-152 680l-56 237q0 51 41 66l12 2q37 0 51 -41l157 -823l104 719q15 46 54 46q38 0 50 -46l107 -721l157 825q15 41 51 41l12 -2q40 -13 40 -52l-1 -14q-105 -438 -206 -919q-13 -34 -48 -34z" />
    <glyph glyph-name="x" unicode="x" horiz-adv-x="764" 
d="M505 0q12 0 22 5q30 17 30 44q0 14 -219 459q219 445 219 460q0 28 -30 46q-10 5 -22 5q-31 0 -48 -29l-180 -361l-176 361q-17 29 -49 29q-12 0 -21 -5q-31 -14 -31 -46q0 -13 219 -460q-219 -445 -219 -459q0 -27 31 -44q9 -5 21 -5q32 0 49 29l176 361l180 -361
q17 -29 48 -29zM505 0q12 0 22 5q30 17 30 44q0 14 -219 459q219 445 219 460q0 28 -30 46q-10 5 -22 5q-31 0 -48 -29l-180 -361l-176 361q-17 29 -49 29q-12 0 -21 -5q-31 -14 -31 -46q0 -13 219 -460q-219 -445 -219 -459q0 -27 31 -44q9 -5 21 -5q32 0 49 29l176 361
l180 -361q17 -29 48 -29z" />
    <glyph glyph-name="y" unicode="y" 
d="M259 -407q70 0 131 34q75 39 114.5 110t39.5 146v1089q0 22 -15.5 38t-37.5 16q-29 0 -46 -27q-7 -12 -7 -721q0 -70 -48.5 -118.5t-118.5 -48.5q-65 0 -115 49.5t-50 117.5q0 709 -7 721l-7 12q-17 15 -39 15q-43 0 -53 -54v-694q0 -109 80 -191.5t191 -82.5
q82 0 119.5 31.5t47.5 65.5v-218q0 -75 -52 -128t-129 -56q-146 0 -158 -7q-28 -19 -28 -44l2 -14q4 -17 16.5 -29t33.5 -12h136z" />
    <glyph glyph-name="z" unicode="z" horiz-adv-x="752" 
d="M491 0q21 0 37 16t16 37q0 44 -53 54h-353q406 850 406 861q0 44 -53 53h-438q-21 0 -37 -16t-16 -37q0 -44 53 -54h353q-406 -849 -406 -861q0 -44 53 -53h438zM491 0q21 0 37 16t16 37q0 44 -53 54h-353q406 850 406 861q0 44 -53 53h-438q-21 0 -37 -16t-16 -37
q0 -44 53 -54h353q-406 -849 -406 -861q0 -44 53 -53h438z" />
    <glyph glyph-name="bar" unicode="|" horiz-adv-x="332" 
d="M53 -360q44 0 53 53v1917q0 22 -15.5 38t-37.5 16q-44 0 -53 -54v-1917q0 -44 53 -53zM53 -360q44 0 53 53v1917q0 22 -15.5 38t-37.5 16q-44 0 -53 -54v-1917q0 -44 53 -53z" />
    <glyph glyph-name="asciitilde" unicode="~" horiz-adv-x="822" 
d="M439 1265q19 0 39 5q69 18 99 48q39 20 39 46q0 12 -5 22q-20 20 -34 22q-17 0 -36 -12q-41 -29 -95 -29q-38 0 -83 17t-91 29q-72 21 -104 21q-41 0 -82 -19l-66 -36q-20 -16 -20 -36q0 -10 6 -22v-3q14 -19 36 -19q10 0 17 5q58 29 107 29q41 0 75 -15l41 -12l2 -2
q116 -39 155 -39zM439 1265q19 0 39 5q69 18 99 48q39 20 39 46q0 12 -5 22q-20 20 -34 22q-17 0 -36 -12q-41 -29 -95 -29q-38 0 -83 17t-91 29q-72 21 -104 21q-41 0 -82 -19l-66 -36q-20 -16 -20 -36q0 -10 6 -22v-3q14 -19 36 -19q10 0 17 5q58 29 107 29q41 0 75 -15
l41 -12l2 -2q116 -39 155 -39z" />
    <glyph glyph-name="exclamdown" unicode="&#xa1;" horiz-adv-x="332" 
d="M53 651q-53 -9 -53 -53v-945q9 -53 53 -53q22 0 38 16t16 37v945q-10 53 -54 53zM53 651q-53 -9 -53 -53v-945q9 -53 53 -53q22 0 38 16t16 37v945q-10 53 -54 53zM53 1034q-53 -10 -53 -54v-115q9 -53 53 -53q54 9 54 53v115q-10 54 -54 54zM53 1034q-53 -10 -53 -54
v-115q9 -53 53 -53q54 9 54 53v115q-10 54 -54 54z" />
    <glyph glyph-name="copyright" unicode="&#xa9;" horiz-adv-x="1090" 
d="M447 0q-185 0 -316 131t-131 317v126q0 185 131 316t316 131q180 0 317 -131q131 -137 131 -316v-126q0 -186 -131.5 -317t-316.5 -131zM447 107q141 0 241 100t100 241v126q0 136 -100 241q-104 99 -241 99q-141 0 -240.5 -99.5t-99.5 -240.5v-126q0 -141 99.5 -241
t240.5 -100zM447 0q-185 0 -316 131t-131 317v126q0 185 131 316t316 131q180 0 317 -131q131 -137 131 -316v-126q0 -186 -131.5 -317t-316.5 -131zM447 107q141 0 241 100t100 241v126q0 136 -100 241q-104 99 -241 99q-141 0 -240.5 -99.5t-99.5 -240.5v-126
q0 -141 99.5 -241t240.5 -100zM512 221q12 0 21 9t9 21l-1 7q-9 22 -29 22h-76q-38 0 -64.5 26.5t-26.5 64.5v263q0 39 26.5 65.5t64.5 26.5h76q17 0 22.5 11t5.5 19q0 10 -6 19.5t-22 9.5h-76q-60 0 -105 -45.5t-45 -105.5v-263q0 -38 20 -74q51 -76 130 -76h76zM512 221
q12 0 21 9t9 21l-1 7q-9 22 -29 22h-76q-38 0 -64.5 26.5t-26.5 64.5v263q0 39 26.5 65.5t64.5 26.5h76q17 0 22.5 11t5.5 19q0 10 -6 19.5t-22 9.5h-76q-60 0 -105 -45.5t-45 -105.5v-263q0 -38 20 -74q51 -76 130 -76h76z" />
    <glyph glyph-name="guillemotleft" unicode="&#xab;" horiz-adv-x="877" 
d="M515 68l14 3q28 14 28 45l-4 13l-167 399l167 402l4 13q0 31 -28 42q-7 5 -14 5q-27 0 -41 -26l-182 -436l182 -433q14 -27 41 -27zM515 68l14 3q28 14 28 45l-4 13l-167 399l167 402l4 13q0 31 -28 42q-7 5 -14 5q-27 0 -41 -26l-182 -436l182 -433q14 -27 41 -27z
M257 0q48 0 53 50q0 12 -4 24l-190 455q193 465 193 475q0 54 -53 54q-32 0 -49 -33l-207 -496l207 -496q17 -33 50 -33zM257 0q48 0 53 50q0 12 -4 24l-190 455q193 465 193 475q0 54 -53 54q-32 0 -49 -33l-207 -496l207 -496q17 -33 50 -33z" />
    <glyph glyph-name="registered" unicode="&#xae;" horiz-adv-x="1090" 
d="M567 231q-27 0 -36 17l-59 140h-72v-130q0 -27 -29 -27q-22 0 -27 27v471l-17 10q-17 7 -17 24q0 12 8.5 19.5t146.5 7.5q44 0 80 -33.5t36 -85.5v-164q0 -32 -14 -58q-7 -12 -41 -46l55 -136l2 -11q0 -16 -16 -25zM462 443q26 0 44.5 19t18.5 44v166q0 52 -61 63h-65
v-292h63zM567 231q-27 0 -36 17l-59 140h-72v-130q0 -27 -29 -27q-22 0 -27 27v471l-17 10q-17 7 -17 24q0 12 8.5 19.5t146.5 7.5q44 0 80 -33.5t36 -85.5v-164q0 -32 -14 -58q-7 -12 -41 -46l55 -136l2 -11q0 -16 -16 -25zM462 443q26 0 44.5 19t18.5 44v166q0 52 -61 63
h-65v-292h63zM567 231q-27 0 -36 17l-59 140h-72v-130q0 -27 -29 -27q-22 0 -27 27v471l-17 10q-17 7 -17 24q0 12 8.5 19.5t146.5 7.5q44 0 80 -33.5t36 -85.5v-164q0 -32 -14 -58q-7 -12 -41 -46l55 -136l2 -11q0 -16 -16 -25zM462 443q26 0 44.5 19t18.5 44v166
q0 52 -61 63h-65v-292h63zM567 231q-27 0 -36 17l-59 140h-72v-130q0 -27 -29 -27q-22 0 -27 27v471l-17 10q-17 7 -17 24q0 12 8.5 19.5t146.5 7.5q44 0 80 -33.5t36 -85.5v-164q0 -32 -14 -58q-7 -12 -41 -46l55 -136l2 -11q0 -16 -16 -25zM462 443q26 0 44.5 19t18.5 44
v166q0 52 -61 63h-65v-292h63zM567 231q-27 0 -36 17l-59 140h-72v-130q0 -27 -29 -27q-22 0 -27 27v471l-17 10q-17 7 -17 24q0 12 8.5 19.5t146.5 7.5q44 0 80 -33.5t36 -85.5v-164q0 -32 -14 -58q-7 -12 -41 -46l55 -136l2 -11q0 -16 -16 -25zM462 443q26 0 44.5 19
t18.5 44v166q0 52 -61 63h-65v-292h63zM447 0q-185 0 -316 131t-131 317v126q0 185 131 316t316 131q180 0 317 -131q131 -137 131 -316v-126q0 -186 -131.5 -317t-316.5 -131zM447 107q141 0 241 100t100 241v126q0 136 -100 241q-104 99 -241 99q-141 0 -240.5 -99.5
t-99.5 -240.5v-126q0 -141 99.5 -241t240.5 -100zM567 231q-27 0 -36 17l-59 140h-72v-130q0 -27 -29 -27q-22 0 -27 27v471l-17 10q-17 7 -17 24q0 12 8.5 19.5t146.5 7.5q44 0 80 -33.5t36 -85.5v-164q0 -32 -14 -58q-7 -12 -41 -46l55 -136l2 -11q0 -16 -16 -25zM462 443
q26 0 44.5 19t18.5 44v166q0 52 -61 63h-65v-292h63zM567 231q-27 0 -36 17l-59 140h-72v-130q0 -27 -29 -27q-22 0 -27 27v471l-17 10q-17 7 -17 24q0 12 8.5 19.5t146.5 7.5q44 0 80 -33.5t36 -85.5v-164q0 -32 -14 -58q-7 -12 -41 -46l55 -136l2 -11q0 -16 -16 -25z
M462 443q26 0 44.5 19t18.5 44v166q0 52 -61 63h-65v-292h63zM567 231q-27 0 -36 17l-59 140h-72v-130q0 -27 -29 -27q-22 0 -27 27v471l-17 10q-17 7 -17 24q0 12 8.5 19.5t146.5 7.5q44 0 80 -33.5t36 -85.5v-164q0 -32 -14 -58q-7 -12 -41 -46l55 -136l2 -11
q0 -16 -16 -25zM462 443q26 0 44.5 19t18.5 44v166q0 52 -61 63h-65v-292h63zM447 0q-185 0 -316 131t-131 317v126q0 185 131 316t316 131q180 0 317 -131q131 -137 131 -316v-126q0 -186 -131.5 -317t-316.5 -131zM447 107q141 0 241 100t100 241v126q0 136 -100 241
q-104 99 -241 99q-141 0 -240.5 -99.5t-99.5 -240.5v-126q0 -141 99.5 -241t240.5 -100z" />
    <glyph glyph-name="macron" unicode="&#xaf;" horiz-adv-x="1030" 
d="M910 1507q44 0 53 53q0 44 -53 54h-862q-21 0 -37 -16t-16 -38q0 -44 53 -53h862zM910 1507q44 0 53 53q0 44 -53 54h-862q-21 0 -37 -16t-16 -38q0 -44 53 -53h862z" />
    <glyph glyph-name="guillemotright" unicode="&#xbb;" horiz-adv-x="877" 
d="M42 68q27 0 41 27l182 433l-182 436q-14 26 -41 26q-7 0 -15 -5q-27 -11 -27 -42l3 -13l167 -402l-167 -399l-3 -13q0 -31 27 -45zM42 68q27 0 41 27l182 433l-182 436q-14 26 -41 26q-7 0 -15 -5q-27 -11 -27 -42l3 -13l167 -402l-167 -399l-3 -13q0 -31 27 -45zM300 0
q33 0 50 33l207 496l-207 496q-17 33 -49 33q-53 0 -53 -54q0 -10 193 -475l-190 -455q-4 -12 -4 -24q5 -50 53 -50zM300 0q33 0 50 33l207 496l-207 496q-17 33 -49 33q-53 0 -53 -54q0 -10 193 -475l-190 -455q-4 -12 -4 -24q5 -50 53 -50z" />
    <glyph glyph-name="questiondown" unicode="&#xbf;" horiz-adv-x="666" 
d="M272 1024q-44 0 -54 -54v-115q0 -44 54 -53q44 0 53 53v115q0 44 -53 54zM272 1024q-44 0 -54 -54v-115q0 -44 54 -53q44 0 53 53v115q0 44 -53 54zM272 641q-44 0 -54 -53l1 -404q0 -65 -77 -103l-6 -5h-4q-31 -18 -56 -43q-76 -79 -76 -183q0 -66 32 -125
q86 -135 228 -135h140q22 0 38 16t16 37q0 27 -23 44q-14 10 -171 10q-64 0 -108.5 44.5t-44.5 108.5q0 86 86 136q39 22 83.5 56.5t48.5 73.5v472q0 44 -53 53zM272 641q-44 0 -54 -53l1 -404q0 -65 -77 -103l-6 -5h-4q-31 -18 -56 -43q-76 -79 -76 -183q0 -66 32 -125
q86 -135 228 -135h140q22 0 38 16t16 37q0 27 -23 44q-14 10 -171 10q-64 0 -108.5 44.5t-44.5 108.5q0 86 86 136q39 22 83.5 56.5t48.5 73.5v472q0 44 -53 53z" />
    <glyph glyph-name="Agrave" unicode="&#xc0;" horiz-adv-x="873" 
d="M694 0q-37 0 -51 39l-80 295h-441l-77 -295q-14 -39 -51 -39l-14 2q-40 15 -40 53q0 9 352 1336q7 32 39 42q38 0 55 -20q9 -13 10 -22q349 -1327 349 -1336q0 -38 -39 -53zM536 441l-193 730l-192 -730h385zM694 0q-37 0 -51 39l-80 295h-441l-77 -295q-14 -39 -51 -39
l-14 2q-40 15 -40 53q0 9 352 1336q7 32 39 42q38 0 55 -20q9 -13 10 -22q349 -1327 349 -1336q0 -38 -39 -53zM536 441l-193 730l-192 -730h385zM347 1601l11 1q39 10 39 54l-1 11l-48 181q-6 20 -25 32q-13 7 -26 7q-8 0 -15 -2q-38 -10 -38 -54l1 -11l48 -180
q11 -39 54 -39zM347 1601l11 1q39 10 39 54l-1 11l-48 181q-6 20 -25 32q-13 7 -26 7q-8 0 -15 -2q-38 -10 -38 -54l1 -11l48 -180q11 -39 54 -39z" />
    <glyph glyph-name="Aacute" unicode="&#xc1;" horiz-adv-x="873" 
d="M694 0q-37 0 -51 39l-80 295h-441l-77 -295q-14 -39 -51 -39l-14 2q-40 15 -40 53q0 9 352 1336q7 32 39 42q38 0 55 -20q9 -13 10 -22q349 -1327 349 -1336q0 -38 -39 -53zM536 441l-193 730l-192 -730h385zM694 0q-37 0 -51 39l-80 295h-441l-77 -295q-14 -39 -51 -39
l-14 2q-40 15 -40 53q0 9 352 1336q7 32 39 42q38 0 55 -20q9 -13 10 -22q349 -1327 349 -1336q0 -38 -39 -53zM536 441l-193 730l-192 -730h385zM354 1601q43 0 54 39l48 180l1 11q0 44 -38 54q-7 2 -15 2q-13 0 -26 -7q-19 -12 -25 -32l-48 -181l-1 -11q0 -44 39 -54z
M354 1601q43 0 54 39l48 180l1 11q0 44 -38 54q-7 2 -15 2q-13 0 -26 -7q-19 -12 -25 -32l-48 -181l-1 -11q0 -44 39 -54z" />
    <glyph glyph-name="Acircumflex" unicode="&#xc2;" horiz-adv-x="873" 
d="M694 0q-37 0 -51 39l-80 295h-441l-77 -295q-14 -39 -51 -39l-14 2q-40 15 -40 53q0 9 352 1336q7 32 39 42q38 0 55 -20q9 -13 10 -22q349 -1327 349 -1336q0 -38 -39 -53zM536 441l-193 730l-192 -730h385zM694 0q-37 0 -51 39l-80 295h-441l-77 -295q-14 -39 -51 -39
l-14 2q-40 15 -40 53q0 9 352 1336q7 32 39 42q38 0 55 -20q9 -13 10 -22q349 -1327 349 -1336q0 -38 -39 -53zM536 441l-193 730l-192 -730h385zM-6 1683q0 -48 50 -53q12 0 24 4l285 110q295 -113 305 -113q54 0 54 53q0 32 -33 49l-326 127l-326 -127q-33 -17 -33 -50z
M-6 1683q0 -48 50 -53q12 0 24 4l285 110q295 -113 305 -113q54 0 54 53q0 32 -33 49l-326 127l-326 -127q-33 -17 -33 -50z" />
    <glyph glyph-name="Atilde" unicode="&#xc3;" horiz-adv-x="873" 
d="M694 0q-37 0 -51 39l-80 295h-441l-77 -295q-14 -39 -51 -39l-14 2q-40 15 -40 53q0 9 352 1336q7 32 39 42q38 0 55 -20q9 -13 10 -22q349 -1327 349 -1336q0 -38 -39 -53zM536 441l-193 730l-192 -730h385zM694 0q-37 0 -51 39l-80 295h-441l-77 -295q-14 -39 -51 -39
l-14 2q-40 15 -40 53q0 9 352 1336q7 32 39 42q38 0 55 -20q9 -13 10 -22q349 -1327 349 -1336q0 -38 -39 -53zM536 441l-193 730l-192 -730h385zM460 1718q19 0 39 5q69 18 99 48q39 20 39 46q0 12 -5 22q-20 20 -34 22q-17 0 -36 -12q-41 -29 -95 -29q-38 0 -83 17t-91 29
q-72 21 -104 21q-41 0 -82 -19l-66 -36q-20 -16 -20 -36q0 -10 6 -22v-3q14 -19 36 -19q10 0 17 5q58 29 107 29q41 0 75 -15l41 -12l2 -2q116 -39 155 -39zM460 1718q19 0 39 5q69 18 99 48q39 20 39 46q0 12 -5 22q-20 20 -34 22q-17 0 -36 -12q-41 -29 -95 -29
q-38 0 -83 17t-91 29q-72 21 -104 21q-41 0 -82 -19l-66 -36q-20 -16 -20 -36q0 -10 6 -22v-3q14 -19 36 -19q10 0 17 5q58 29 107 29q41 0 75 -15l41 -12l2 -2q116 -39 155 -39z" />
    <glyph glyph-name="Adieresis" unicode="&#xc4;" horiz-adv-x="873" 
d="M694 0q-37 0 -51 39l-80 295h-441l-77 -295q-14 -39 -51 -39l-14 2q-40 15 -40 53q0 9 352 1336q7 32 39 42q38 0 55 -20q9 -13 10 -22q349 -1327 349 -1336q0 -38 -39 -53zM536 441l-193 730l-192 -730h385zM694 0q-37 0 -51 39l-80 295h-441l-77 -295q-14 -39 -51 -39
l-14 2q-40 15 -40 53q0 9 352 1336q7 32 39 42q38 0 55 -20q9 -13 10 -22q349 -1327 349 -1336q0 -38 -39 -53zM536 441l-193 730l-192 -730h385zM199 1691q44 0 54 53v115q0 44 -54 54q-44 0 -53 -54v-115q0 -44 53 -53zM199 1691q44 0 54 53v115q0 44 -54 54
q-44 0 -53 -54v-115q0 -44 53 -53zM464 1691q44 0 54 53v115q0 44 -54 54q-44 0 -53 -54v-115q0 -44 53 -53zM464 1691q44 0 54 53v115q0 44 -54 54q-44 0 -53 -54v-115q0 -44 53 -53z" />
    <glyph glyph-name="Aring" unicode="&#xc5;" horiz-adv-x="873" 
d="M356 1468q62 0 97 45t35 108q0 68 -36.5 110.5t-95.5 42.5h-25q-63 0 -98 -45.5t-35 -107.5q0 -69 36.5 -111t96.5 -42h25zM536 441l-193 730l-192 -730h385zM286 1368q-77 16 -126 69q-69 76 -69 184q0 106 68.5 182.5t196.5 76.5q104 0 171.5 -73.5t67.5 -185.5
q0 -107 -68 -183q-52 -59 -124 -73q342 -1301 342 -1310q0 -38 -39 -53l-12 -2q-37 0 -51 39l-80 295h-441l-77 -295q-14 -39 -51 -39l-14 2q-40 15 -40 53q0 9 346 1313z" />
    <glyph glyph-name="Ccedilla" unicode="&#xc7;" horiz-adv-x="685" 
d="M421 0q17 0 30.5 10t17.5 27l5 16q0 34 -31 48q-10 6 -151 6q-77 0 -131 54.5t-54 130.5v849q0 77 51.5 129.5t129.5 56.5q145 0 156 5q30 17 30 48q-1 22 -14.5 38t-38.5 16h-136q-69 -2 -129 -34q-76 -41 -116 -112t-40 -147v-849q0 -81 43 -153q67 -107 179 -132
l-36 -137l-1 -11q0 -44 39 -54l11 -1q43 0 54 39l42 157h90z" />
    <glyph glyph-name="Egrave" unicode="&#xc8;" horiz-adv-x="646" 
d="M380 0q44 0 54 53q0 44 -54 54h-274v807h224q44 0 53 54q0 44 -53 53h-224v306h274q44 0 54 53q0 44 -54 54h-333q-47 -13 -47 -54v-1327q0 -40 47 -53h333zM380 0q44 0 54 53q0 44 -54 54h-274v807h224q44 0 53 54q0 44 -53 53h-224v306h274q44 0 54 53q0 44 -54 54
h-333q-47 -13 -47 -54v-1327q0 -40 47 -53h333zM247 1601l11 1q39 10 39 54l-1 11l-48 181q-6 20 -25 32q-13 7 -26 7q-8 0 -15 -2q-38 -10 -38 -54l1 -11l48 -180q11 -39 54 -39zM247 1601l11 1q39 10 39 54l-1 11l-48 181q-6 20 -25 32q-13 7 -26 7q-8 0 -15 -2
q-38 -10 -38 -54l1 -11l48 -180q11 -39 54 -39z" />
    <glyph glyph-name="Eacute" unicode="&#xc9;" horiz-adv-x="646" 
d="M380 0q44 0 54 53q0 44 -54 54h-274v807h224q44 0 53 54q0 44 -53 53h-224v306h274q44 0 54 53q0 44 -54 54h-333q-47 -13 -47 -54v-1327q0 -40 47 -53h333zM380 0q44 0 54 53q0 44 -54 54h-274v807h224q44 0 53 54q0 44 -53 53h-224v306h274q44 0 54 53q0 44 -54 54
h-333q-47 -13 -47 -54v-1327q0 -40 47 -53h333zM224 1601q43 0 54 39l48 180l1 11q0 44 -38 54q-7 2 -15 2q-13 0 -26 -7q-19 -12 -25 -32l-48 -181l-1 -11q0 -44 39 -54zM224 1601q43 0 54 39l48 180l1 11q0 44 -38 54q-7 2 -15 2q-13 0 -26 -7q-19 -12 -25 -32l-48 -181
l-1 -11q0 -44 39 -54z" />
    <glyph glyph-name="Ecircumflex" unicode="&#xca;" horiz-adv-x="646" 
d="M380 0q44 0 54 53q0 44 -54 54h-274v807h224q44 0 53 54q0 44 -53 53h-224v306h274q44 0 54 53q0 44 -54 54h-333q-47 -13 -47 -54v-1327q0 -40 47 -53h333zM380 0q44 0 54 53q0 44 -54 54h-274v807h224q44 0 53 54q0 44 -53 53h-224v306h274q44 0 54 53q0 44 -54 54
h-333q-47 -13 -47 -54v-1327q0 -40 47 -53h333zM-146 1683q0 -48 50 -53q12 0 24 4l285 110q295 -113 305 -113q54 0 54 53q0 32 -33 49l-326 127l-326 -127q-33 -17 -33 -50zM-146 1683q0 -48 50 -53q12 0 24 4l285 110q295 -113 305 -113q54 0 54 53q0 32 -33 49l-326 127
l-326 -127q-33 -17 -33 -50z" />
    <glyph glyph-name="Edieresis" unicode="&#xcb;" horiz-adv-x="646" 
d="M380 0q44 0 54 53q0 44 -54 54h-274v807h224q44 0 53 54q0 44 -53 53h-224v306h274q44 0 54 53q0 44 -54 54h-333q-47 -13 -47 -54v-1327q0 -40 47 -53h333zM380 0q44 0 54 53q0 44 -54 54h-274v807h224q44 0 53 54q0 44 -53 53h-224v306h274q44 0 54 53q0 44 -54 54
h-333q-47 -13 -47 -54v-1327q0 -40 47 -53h333zM84 1740q44 0 54 53v115q0 44 -54 54q-44 0 -53 -54v-115q0 -44 53 -53zM84 1740q44 0 54 53v115q0 44 -54 54q-44 0 -53 -54v-115q0 -44 53 -53zM349 1740q44 0 54 53v115q0 44 -54 54q-44 0 -53 -54v-115q0 -44 53 -53z
M349 1740q44 0 54 53v115q0 44 -54 54q-44 0 -53 -54v-115q0 -44 53 -53z" />
    <glyph glyph-name="Igrave" unicode="&#xcc;" horiz-adv-x="332" 
d="M53 0q44 0 53 53v1327q0 22 -15.5 38t-37.5 16q-44 0 -53 -54v-1327q0 -44 53 -53zM53 0q44 0 53 53v1327q0 22 -15.5 38t-37.5 16q-44 0 -53 -54v-1327q0 -44 53 -53zM57 1601l11 1q39 10 39 54l-1 11l-48 181q-6 20 -25 32q-13 7 -26 7q-8 0 -15 -2q-38 -10 -38 -54
l1 -11l48 -180q11 -39 54 -39zM57 1601l11 1q39 10 39 54l-1 11l-48 181q-6 20 -25 32q-13 7 -26 7q-8 0 -15 -2q-38 -10 -38 -54l1 -11l48 -180q11 -39 54 -39z" />
    <glyph glyph-name="Iacute" unicode="&#xcd;" horiz-adv-x="416" 
d="M53 0q44 0 53 53v1327q0 22 -15.5 38t-37.5 16q-44 0 -53 -54v-1327q0 -44 53 -53zM53 0q44 0 53 53v1327q0 22 -15.5 38t-37.5 16q-44 0 -53 -54v-1327q0 -44 53 -53zM44 1601q43 0 54 39l48 180l1 11q0 44 -38 54q-7 2 -15 2q-13 0 -26 -7q-19 -12 -25 -32l-48 -181
l-1 -11q0 -44 39 -54zM44 1601q43 0 54 39l48 180l1 11q0 44 -38 54q-7 2 -15 2q-13 0 -26 -7q-19 -12 -25 -32l-48 -181l-1 -11q0 -44 39 -54z" />
    <glyph glyph-name="Icircumflex" unicode="&#xce;" horiz-adv-x="621" 
d="M53 0q44 0 53 53v1327q0 22 -15.5 38t-37.5 16q-44 0 -53 -54v-1327q0 -44 53 -53zM53 0q44 0 53 53v1327q0 22 -15.5 38t-37.5 16q-44 0 -53 -54v-1327q0 -44 53 -53zM-306 1683q0 -48 50 -53q12 0 24 4l285 110q295 -113 305 -113q54 0 54 53q0 32 -33 49l-326 127
l-326 -127q-33 -17 -33 -50zM-306 1683q0 -48 50 -53q12 0 24 4l285 110q295 -113 305 -113q54 0 54 53q0 32 -33 49l-326 127l-326 -127q-33 -17 -33 -50z" />
    <glyph glyph-name="Idieresis" unicode="&#xcf;" horiz-adv-x="467" 
d="M53 0q44 0 54 53v1327q0 22 -16 38t-38 16q-44 0 -53 -54v-1327q0 -44 53 -53zM53 0q44 0 54 53v1327q0 22 -16 38t-38 16q-44 0 -53 -54v-1327q0 -44 53 -53zM-88 1707q44 0 54 53v115q0 44 -54 54q-44 0 -53 -54v-115q0 -44 53 -53zM-88 1707q44 0 54 53v115
q0 44 -54 54q-44 0 -53 -54v-115q0 -44 53 -53zM178 1707q44 0 53 53v115q0 44 -53 54q-45 0 -54 -54v-115q0 -44 54 -53zM178 1707q44 0 53 53v115q0 44 -53 54q-45 0 -54 -54v-115q0 -44 54 -53z" />
    <glyph glyph-name="Ntilde" unicode="&#xd1;" horiz-adv-x="792" 
d="M530 0q47 0 53 48v1331q0 46 -53 54q-44 0 -53 -54v-1021l-54 153l-317 876q-20 46 -37 46h-18q-36 0 -46 -34q-5 -10 -5 -1346q0 -43 53 -53q44 0 53 53v1017l371 -1026q16 -44 53 -44zM420 1718q19 0 39 5q69 18 99 48q39 20 39 46q0 12 -5 22q-20 20 -34 22
q-17 0 -36 -12q-41 -29 -95 -29q-38 0 -83 17t-91 29q-72 21 -104 21q-41 0 -82 -19l-66 -36q-20 -16 -20 -36q0 -10 6 -22v-3q14 -19 36 -19q10 0 17 5q58 29 107 29q41 0 75 -15l41 -12l2 -2q116 -39 155 -39zM420 1718q19 0 39 5q69 18 99 48q39 20 39 46q0 12 -5 22
q-20 20 -34 22q-17 0 -36 -12q-41 -29 -95 -29q-38 0 -83 17t-91 29q-72 21 -104 21q-41 0 -82 -19l-66 -36q-20 -16 -20 -36q0 -10 6 -22v-3q14 -19 36 -19q10 0 17 5q58 29 107 29q41 0 75 -15l41 -12l2 -2q116 -39 155 -39z" />
    <glyph glyph-name="Ograve" unicode="&#xd2;" horiz-adv-x="791" 
d="M292 0q-121 0 -206.5 85.5t-85.5 206.5v849q0 121 85.5 207t206.5 86t207 -86t86 -207v-849q0 -121 -86 -206.5t-207 -85.5zM292 107q77 0 131.5 54.5t54.5 130.5v849q0 77 -54.5 131.5t-131.5 54.5t-131 -54.5t-54 -131.5v-849q0 -76 54 -130.5t131 -54.5zM292 0
q-121 0 -206.5 85.5t-85.5 206.5v849q0 121 85.5 207t206.5 86t207 -86t86 -207v-849q0 -121 -86 -206.5t-207 -85.5zM292 107q77 0 131.5 54.5t54.5 130.5v849q0 77 -54.5 131.5t-131.5 54.5t-131 -54.5t-54 -131.5v-849q0 -76 54 -130.5t131 -54.5zM307 1601l11 1
q39 10 39 54l-1 11l-48 181q-6 20 -25 32q-13 7 -26 7q-8 0 -15 -2q-38 -10 -38 -54l1 -11l48 -180q11 -39 54 -39zM307 1601l11 1q39 10 39 54l-1 11l-48 181q-6 20 -25 32q-13 7 -26 7q-8 0 -15 -2q-38 -10 -38 -54l1 -11l48 -180q11 -39 54 -39z" />
    <glyph glyph-name="Oacute" unicode="&#xd3;" horiz-adv-x="791" 
d="M292 0q-121 0 -206.5 85.5t-85.5 206.5v849q0 121 85.5 207t206.5 86t207 -86t86 -207v-849q0 -121 -86 -206.5t-207 -85.5zM292 107q77 0 131.5 54.5t54.5 130.5v849q0 77 -54.5 131.5t-131.5 54.5t-131 -54.5t-54 -131.5v-849q0 -76 54 -130.5t131 -54.5zM292 0
q-121 0 -206.5 85.5t-85.5 206.5v849q0 121 85.5 207t206.5 86t207 -86t86 -207v-849q0 -121 -86 -206.5t-207 -85.5zM292 107q77 0 131.5 54.5t54.5 130.5v849q0 77 -54.5 131.5t-131.5 54.5t-131 -54.5t-54 -131.5v-849q0 -76 54 -130.5t131 -54.5zM284 1601q43 0 54 39
l48 180l1 11q0 44 -38 54q-7 2 -15 2q-13 0 -26 -7q-19 -12 -25 -32l-48 -181l-1 -11q0 -44 39 -54zM284 1601q43 0 54 39l48 180l1 11q0 44 -38 54q-7 2 -15 2q-13 0 -26 -7q-19 -12 -25 -32l-48 -181l-1 -11q0 -44 39 -54z" />
    <glyph glyph-name="Ocircumflex" unicode="&#xd4;" horiz-adv-x="791" 
d="M292 0q-121 0 -206.5 85.5t-85.5 206.5v849q0 121 85.5 207t206.5 86t207 -86t86 -207v-849q0 -121 -86 -206.5t-207 -85.5zM292 107q77 0 131.5 54.5t54.5 130.5v849q0 77 -54.5 131.5t-131.5 54.5t-131 -54.5t-54 -131.5v-849q0 -76 54 -130.5t131 -54.5zM292 0
q-121 0 -206.5 85.5t-85.5 206.5v849q0 121 85.5 207t206.5 86t207 -86t86 -207v-849q0 -121 -86 -206.5t-207 -85.5zM292 107q77 0 131.5 54.5t54.5 130.5v849q0 77 -54.5 131.5t-131.5 54.5t-131 -54.5t-54 -131.5v-849q0 -76 54 -130.5t131 -54.5zM-76 1683q0 -48 50 -53
q12 0 24 4l285 110q295 -113 305 -113q54 0 54 53q0 32 -33 49l-326 127l-326 -127q-33 -17 -33 -50zM-76 1683q0 -48 50 -53q12 0 24 4l285 110q295 -113 305 -113q54 0 54 53q0 32 -33 49l-326 127l-326 -127q-33 -17 -33 -50z" />
    <glyph glyph-name="Otilde" unicode="&#xd5;" horiz-adv-x="791" 
d="M292 0q-121 0 -206.5 85.5t-85.5 206.5v849q0 121 85.5 207t206.5 86t207 -86t86 -207v-849q0 -121 -86 -206.5t-207 -85.5zM292 107q77 0 131.5 54.5t54.5 130.5v849q0 77 -54.5 131.5t-131.5 54.5t-131 -54.5t-54 -131.5v-849q0 -76 54 -130.5t131 -54.5zM292 0
q-121 0 -206.5 85.5t-85.5 206.5v849q0 121 85.5 207t206.5 86t207 -86t86 -207v-849q0 -121 -86 -206.5t-207 -85.5zM292 107q77 0 131.5 54.5t54.5 130.5v849q0 77 -54.5 131.5t-131.5 54.5t-131 -54.5t-54 -131.5v-849q0 -76 54 -130.5t131 -54.5zM420 1718q19 0 39 5
q69 18 99 48q39 20 39 46q0 12 -5 22q-20 20 -34 22q-17 0 -36 -12q-41 -29 -95 -29q-38 0 -83 17t-91 29q-72 21 -104 21q-41 0 -82 -19l-66 -36q-20 -16 -20 -36q0 -10 6 -22v-3q14 -19 36 -19q10 0 17 5q58 29 107 29q41 0 75 -15l41 -12l2 -2q116 -39 155 -39zM420 1718
q19 0 39 5q69 18 99 48q39 20 39 46q0 12 -5 22q-20 20 -34 22q-17 0 -36 -12q-41 -29 -95 -29q-38 0 -83 17t-91 29q-72 21 -104 21q-41 0 -82 -19l-66 -36q-20 -16 -20 -36q0 -10 6 -22v-3q14 -19 36 -19q10 0 17 5q58 29 107 29q41 0 75 -15l41 -12l2 -2q116 -39 155 -39
z" />
    <glyph glyph-name="Odieresis" unicode="&#xd6;" horiz-adv-x="791" 
d="M292 0q-121 0 -206.5 85.5t-85.5 206.5v849q0 121 85.5 207t206.5 86t207 -86t86 -207v-849q0 -121 -86 -206.5t-207 -85.5zM292 107q77 0 131.5 54.5t54.5 130.5v849q0 77 -54.5 131.5t-131.5 54.5t-131 -54.5t-54 -131.5v-849q0 -76 54 -130.5t131 -54.5zM292 0
q-121 0 -206.5 85.5t-85.5 206.5v849q0 121 85.5 207t206.5 86t207 -86t86 -207v-849q0 -121 -86 -206.5t-207 -85.5zM292 107q77 0 131.5 54.5t54.5 130.5v849q0 77 -54.5 131.5t-131.5 54.5t-131 -54.5t-54 -131.5v-849q0 -76 54 -130.5t131 -54.5zM152 1707q44 0 54 53
v115q0 44 -54 54q-44 0 -53 -54v-115q0 -44 53 -53zM152 1707q44 0 54 53v115q0 44 -54 54q-44 0 -53 -54v-115q0 -44 53 -53zM417 1707q44 0 54 53v115q0 44 -54 54q-44 0 -53 -54v-115q0 -44 53 -53zM417 1707q44 0 54 53v115q0 44 -54 54q-44 0 -53 -54v-115
q0 -44 53 -53z" />
    <glyph glyph-name="Oslash" unicode="&#xd8;" horiz-adv-x="791" 
d="M141 185q9 -12 20 -23q54 -55 131 -55t131.5 54.5t54.5 130.5v838q-107 -301 -337 -945zM107 401q109 307 312 876q-53 50 -127 50q-77 0 -131 -54.5t-54 -131.5v-740zM101 71q-8 -20 -15 -41q-19 -40 -51 -40q-7 0 -15 2q-39 18 -39 50q0 2 45 128q-26 56 -26 122v849
q0 121 85.5 207t206.5 86q93 0 165 -51q4 13 9 26q19 40 50 40q7 0 15 -2q21 -6 30.5 -22t9.5 -30q0 -2 -33 -95q47 -70 47 -159v-849q0 -121 -86 -206.5t-207 -85.5q-110 0 -191 71z" />
    <glyph glyph-name="Ugrave" unicode="&#xd9;" horiz-adv-x="791" 
d="M292 0q80 0 151 42q141 90 141 250v1088q0 22 -16 38t-37 16q-31 0 -48 -30q-5 -11 -5 -1112q0 -76 -54.5 -130.5t-131.5 -54.5t-131 54.5t-54 130.5q0 1101 -6 1112q-14 30 -48 30q-44 0 -53 -54v-1088q0 -155 142 -250q70 -42 150 -42zM292 0q80 0 151 42
q141 90 141 250v1088q0 22 -16 38t-37 16q-31 0 -48 -30q-5 -11 -5 -1112q0 -76 -54.5 -130.5t-131.5 -54.5t-131 54.5t-54 130.5q0 1101 -6 1112q-14 30 -48 30q-44 0 -53 -54v-1088q0 -155 142 -250q70 -42 150 -42zM307 1601l11 1q39 10 39 54l-1 11l-48 181
q-6 20 -25 32q-13 7 -26 7q-8 0 -15 -2q-38 -10 -38 -54l1 -11l48 -180q11 -39 54 -39zM307 1601l11 1q39 10 39 54l-1 11l-48 181q-6 20 -25 32q-13 7 -26 7q-8 0 -15 -2q-38 -10 -38 -54l1 -11l48 -180q11 -39 54 -39z" />
    <glyph glyph-name="Uacute" unicode="&#xda;" horiz-adv-x="791" 
d="M292 0q80 0 151 42q141 90 141 250v1088q0 22 -16 38t-37 16q-31 0 -48 -30q-5 -11 -5 -1112q0 -76 -54.5 -130.5t-131.5 -54.5t-131 54.5t-54 130.5q0 1101 -6 1112q-14 30 -48 30q-44 0 -53 -54v-1088q0 -155 142 -250q70 -42 150 -42zM292 0q80 0 151 42
q141 90 141 250v1088q0 22 -16 38t-37 16q-31 0 -48 -30q-5 -11 -5 -1112q0 -76 -54.5 -130.5t-131.5 -54.5t-131 54.5t-54 130.5q0 1101 -6 1112q-14 30 -48 30q-44 0 -53 -54v-1088q0 -155 142 -250q70 -42 150 -42zM284 1601q43 0 54 39l48 180l1 11q0 44 -38 54
q-7 2 -15 2q-13 0 -26 -7q-19 -12 -25 -32l-48 -181l-1 -11q0 -44 39 -54zM284 1601q43 0 54 39l48 180l1 11q0 44 -38 54q-7 2 -15 2q-13 0 -26 -7q-19 -12 -25 -32l-48 -181l-1 -11q0 -44 39 -54z" />
    <glyph glyph-name="Ucircumflex" unicode="&#xdb;" horiz-adv-x="791" 
d="M292 0q80 0 151 42q141 90 141 250v1088q0 22 -16 38t-37 16q-31 0 -48 -30q-5 -11 -5 -1112q0 -76 -54.5 -130.5t-131.5 -54.5t-131 54.5t-54 130.5q0 1101 -6 1112q-14 30 -48 30q-44 0 -53 -54v-1088q0 -155 142 -250q70 -42 150 -42zM292 0q80 0 151 42
q141 90 141 250v1088q0 22 -16 38t-37 16q-31 0 -48 -30q-5 -11 -5 -1112q0 -76 -54.5 -130.5t-131.5 -54.5t-131 54.5t-54 130.5q0 1101 -6 1112q-14 30 -48 30q-44 0 -53 -54v-1088q0 -155 142 -250q70 -42 150 -42zM-76 1683q0 -48 50 -53q12 0 24 4l285 110
q295 -113 305 -113q54 0 54 53q0 32 -33 49l-326 127l-326 -127q-33 -17 -33 -50zM-76 1683q0 -48 50 -53q12 0 24 4l285 110q295 -113 305 -113q54 0 54 53q0 32 -33 49l-326 127l-326 -127q-33 -17 -33 -50z" />
    <glyph glyph-name="Udieresis" unicode="&#xdc;" horiz-adv-x="791" 
d="M292 0q80 0 151 42q141 90 141 250v1088q0 22 -16 38t-37 16q-31 0 -48 -30q-5 -11 -5 -1112q0 -76 -54.5 -130.5t-131.5 -54.5t-131 54.5t-54 130.5q0 1101 -6 1112q-14 30 -48 30q-44 0 -53 -54v-1088q0 -155 142 -250q70 -42 150 -42zM292 0q80 0 151 42
q141 90 141 250v1088q0 22 -16 38t-37 16q-31 0 -48 -30q-5 -11 -5 -1112q0 -76 -54.5 -130.5t-131.5 -54.5t-131 54.5t-54 130.5q0 1101 -6 1112q-14 30 -48 30q-44 0 -53 -54v-1088q0 -155 142 -250q70 -42 150 -42zM152 1707q44 0 54 53v115q0 44 -54 54q-44 0 -53 -54
v-115q0 -44 53 -53zM152 1707q44 0 54 53v115q0 44 -54 54q-44 0 -53 -54v-115q0 -44 53 -53zM417 1707q44 0 54 53v115q0 44 -54 54q-44 0 -53 -54v-115q0 -44 53 -53zM417 1707q44 0 54 53v115q0 44 -54 54q-44 0 -53 -54v-115q0 -44 53 -53z" />
    <glyph glyph-name="Yacute" unicode="&#xdd;" horiz-adv-x="858" 
d="M326 0q45 0 54 53v653q273 664 273 675q0 33 -33 49q-10 4 -20 4q-33 0 -49 -33l-224 -544l-225 544q-16 33 -49 33l-20 -4q-33 -16 -33 -49q0 -10 273 -675v-653q0 -44 53 -53zM326 0q45 0 54 53v653q273 664 273 675q0 33 -33 49q-10 4 -20 4q-33 0 -49 -33l-224 -544
l-225 544q-16 33 -49 33l-20 -4q-33 -16 -33 -49q0 -10 273 -675v-653q0 -44 53 -53zM334 1601q43 0 54 39l48 180l1 11q0 44 -38 54q-7 2 -15 2q-13 0 -26 -7q-19 -12 -25 -32l-48 -181l-1 -11q0 -44 39 -54zM334 1601q43 0 54 39l48 180l1 11q0 44 -38 54q-7 2 -15 2
q-13 0 -26 -7q-19 -12 -25 -32l-48 -181l-1 -11q0 -44 39 -54z" />
    <glyph glyph-name="agrave" unicode="&#xe0;" 
d="M491 0q-41 0 -51 53l-2 53q-10 -31 -47.5 -68.5t-124.5 -37.5q-60 0 -123 34q-143 89 -143 237v143q0 155 148 242q54 29 116 29h9q66 -3 102 -29.5t50 -52.5l13 -27v172q0 68 -49.5 117.5t-115.5 49.5h-106q-44 0 -53 53q0 22 14 39h5q15 14 34 14h106
q112 0 191.5 -79.5t79.5 -193.5v-695q0 -43 -53 -53zM273 107q68 0 116.5 48.5t48.5 116.5v142q0 66 -49.5 115.5t-115.5 49.5q-69 0 -117.5 -48.5t-48.5 -116.5v-142q0 -68 48.5 -116.5t117.5 -48.5zM323 1190l11 1q39 10 39 54l-1 11l-48 181q-6 20 -25 32q-13 7 -26 7
q-8 0 -15 -2q-38 -10 -38 -54l1 -11l48 -180q11 -39 54 -39zM323 1190l11 1q39 10 39 54l-1 11l-48 181q-6 20 -25 32q-13 7 -26 7q-8 0 -15 -2q-38 -10 -38 -54l1 -11l48 -180q11 -39 54 -39z" />
    <glyph glyph-name="aacute" unicode="&#xe1;" 
d="M491 0q-41 0 -51 53l-2 53q-10 -31 -47.5 -68.5t-124.5 -37.5q-60 0 -123 34q-143 89 -143 237v143q0 155 148 242q54 29 116 29h9q66 -3 102 -29.5t50 -52.5l13 -27v172q0 68 -49.5 117.5t-115.5 49.5h-106q-44 0 -53 53q0 22 14 39h5q15 14 34 14h106
q112 0 191.5 -79.5t79.5 -193.5v-695q0 -43 -53 -53zM273 107q68 0 116.5 48.5t48.5 116.5v142q0 66 -49.5 115.5t-115.5 49.5q-69 0 -117.5 -48.5t-48.5 -116.5v-142q0 -68 48.5 -116.5t117.5 -48.5zM268 1180q43 0 54 39l48 180l1 11q0 44 -38 54q-7 2 -15 2q-13 0 -26 -7
q-19 -12 -25 -32l-48 -181l-1 -11q0 -44 39 -54zM268 1180q43 0 54 39l48 180l1 11q0 44 -38 54q-7 2 -15 2q-13 0 -26 -7q-19 -12 -25 -32l-48 -181l-1 -11q0 -44 39 -54z" />
    <glyph glyph-name="acircumflex" unicode="&#xe2;" 
d="M491 0q-41 0 -51 53l-2 53q-10 -31 -47.5 -68.5t-124.5 -37.5q-60 0 -123 34q-143 89 -143 237v143q0 155 148 242q54 29 116 29h9q66 -3 102 -29.5t50 -52.5l13 -27v172q0 68 -49.5 117.5t-115.5 49.5h-106q-44 0 -53 53q0 22 14 39h5q15 14 34 14h106
q112 0 191.5 -79.5t79.5 -193.5v-695q0 -43 -53 -53zM273 107q68 0 116.5 48.5t48.5 116.5v142q0 66 -49.5 115.5t-115.5 49.5q-69 0 -117.5 -48.5t-48.5 -116.5v-142q0 -68 48.5 -116.5t117.5 -48.5zM-65 1272q0 -48 50 -53q12 0 24 4l285 110q295 -113 305 -113
q54 0 54 53q0 32 -33 49l-326 127l-326 -127q-33 -17 -33 -50zM-65 1272q0 -48 50 -53q12 0 24 4l285 110q295 -113 305 -113q54 0 54 53q0 32 -33 49l-326 127l-326 -127q-33 -17 -33 -50z" />
    <glyph glyph-name="atilde" unicode="&#xe3;" 
d="M491 0q-41 0 -51 53l-2 53q-10 -31 -47.5 -68.5t-124.5 -37.5q-60 0 -123 34q-143 89 -143 237v143q0 155 148 242q54 29 116 29h9q66 -3 102 -29.5t50 -52.5l13 -27v172q0 68 -49.5 117.5t-115.5 49.5h-106q-44 0 -53 53q0 22 14 39h5q15 14 34 14h106
q112 0 191.5 -79.5t79.5 -193.5v-695q0 -43 -53 -53zM273 107q68 0 116.5 48.5t48.5 116.5v142q0 66 -49.5 115.5t-115.5 49.5q-69 0 -117.5 -48.5t-48.5 -116.5v-142q0 -68 48.5 -116.5t117.5 -48.5zM414 1276q19 0 39 5q69 18 99 48q39 20 39 46q0 12 -5 22q-20 20 -34 22
q-17 0 -36 -12q-41 -29 -95 -29q-38 0 -83 17t-91 29q-72 21 -104 21q-41 0 -82 -19l-66 -36q-20 -16 -20 -36q0 -10 6 -22v-3q14 -19 36 -19q10 0 17 5q58 29 107 29q41 0 75 -15l41 -12l2 -2q116 -39 155 -39zM414 1276q19 0 39 5q69 18 99 48q39 20 39 46q0 12 -5 22
q-20 20 -34 22q-17 0 -36 -12q-41 -29 -95 -29q-38 0 -83 17t-91 29q-72 21 -104 21q-41 0 -82 -19l-66 -36q-20 -16 -20 -36q0 -10 6 -22v-3q14 -19 36 -19q10 0 17 5q58 29 107 29q41 0 75 -15l41 -12l2 -2q116 -39 155 -39z" />
    <glyph glyph-name="adieresis" unicode="&#xe4;" 
d="M491 0q-41 0 -51 53l-2 53q-10 -31 -47.5 -68.5t-124.5 -37.5q-60 0 -123 34q-143 89 -143 237v143q0 155 148 242q54 29 116 29h9q66 -3 102 -29.5t50 -52.5l13 -27v172q0 68 -49.5 117.5t-115.5 49.5h-106q-44 0 -53 53q0 22 14 39h5q15 14 34 14h106
q112 0 191.5 -79.5t79.5 -193.5v-695q0 -43 -53 -53zM273 107q68 0 116.5 48.5t48.5 116.5v142q0 66 -49.5 115.5t-115.5 49.5q-69 0 -117.5 -48.5t-48.5 -116.5v-142q0 -68 48.5 -116.5t117.5 -48.5zM174 1237q44 0 54 53v115q0 44 -54 54q-44 0 -53 -54v-115q0 -44 53 -53
zM174 1237q44 0 54 53v115q0 44 -54 54q-44 0 -53 -54v-115q0 -44 53 -53zM439 1237q44 0 54 53v115q0 44 -54 54q-44 0 -53 -54v-115q0 -44 53 -53zM439 1237q44 0 54 53v115q0 44 -54 54q-44 0 -53 -54v-115q0 -44 53 -53z" />
    <glyph glyph-name="aring" unicode="&#xe5;" 
d="M491 0q-41 0 -51 53l-2 53q-10 -31 -47.5 -68.5t-124.5 -37.5q-60 0 -123 34q-143 89 -143 237v143q0 155 148 242q54 29 116 29h9q66 -3 102 -29.5t50 -52.5l13 -27v172q0 68 -49.5 117.5t-115.5 49.5h-106q-44 0 -53 53q0 22 14 39h5q15 14 34 14h106
q112 0 191.5 -79.5t79.5 -193.5v-695q0 -43 -53 -53zM273 107q68 0 116.5 48.5t48.5 116.5v142q0 66 -49.5 115.5t-115.5 49.5q-69 0 -117.5 -48.5t-48.5 -116.5v-142q0 -68 48.5 -116.5t117.5 -48.5zM312 1156q-82 0 -126.5 49t-44.5 119q0 69 44 118.5t127 49.5
q67 0 111 -47.5t44 -120.5q0 -69 -44 -118.5t-111 -49.5zM312 1225q40 0 63 29t23 70q0 44 -23.5 71.5t-62.5 27.5h-16q-41 0 -63.5 -29.5t-22.5 -69.5q0 -45 23.5 -72t62.5 -27h16zM312 1156q-82 0 -126.5 49t-44.5 119q0 69 44 118.5t127 49.5q67 0 111 -47.5t44 -120.5
q0 -69 -44 -118.5t-111 -49.5zM312 1225q40 0 63 29t23 70q0 44 -23.5 71.5t-62.5 27.5h-16q-41 0 -63.5 -29.5t-22.5 -69.5q0 -45 23.5 -72t62.5 -27h16z" />
    <glyph glyph-name="ccedilla" unicode="&#xe7;" horiz-adv-x="653" 
d="M409 0q22 0 38.5 16.5t16.5 37.5l-2 14q-17 38 -53 38h-138q-68 0 -116.5 48.5t-48.5 116.5v477q0 70 48.5 118.5t116.5 48.5h138q31 0 41 19t10 34q0 19 -11 36t-40 17h-138q-109 0 -190 -82t-81 -191v-477q0 -68 36 -133q70 -106 171 -130l-37 -138l-1 -11
q0 -44 39 -54l11 -1q43 0 54 39l42 157h94z" />
    <glyph glyph-name="egrave" unicode="&#xe8;" horiz-adv-x="742" 
d="M459 0h-187q-147 0 -237 138q-35 60 -35 134v470q0 116 80 197.5t192 81.5q112 -1 192 -82t80 -190v-196q0 -92 -65 -157t-157 -65h-215v-59q0 -68 48.5 -116.5t116.5 -48.5q202 0 215 -9q25 -16 25 -45q0 -21 -16 -37t-37 -16zM302 437q56 0 96 40t40 95v177
q0 66 -49.5 115.5t-114.5 49.5h-3q-70 -2 -117 -50.5t-47 -118.5v-308h195zM459 0h-187q-147 0 -237 138q-35 60 -35 134v470q0 116 80 197.5t192 81.5q112 -1 192 -82t80 -190v-196q0 -92 -65 -157t-157 -65h-215v-59q0 -68 48.5 -116.5t116.5 -48.5q202 0 215 -9
q25 -16 25 -45q0 -21 -16 -37t-37 -16zM302 437q56 0 96 40t40 95v177q0 66 -49.5 115.5t-114.5 49.5h-3q-70 -2 -117 -50.5t-47 -118.5v-308h195zM293 1190l11 1q39 10 39 54l-1 11l-48 181q-6 20 -25 32q-13 7 -26 7q-8 0 -15 -2q-38 -10 -38 -54l1 -11l48 -180
q11 -39 54 -39zM293 1190l11 1q39 10 39 54l-1 11l-48 181q-6 20 -25 32q-13 7 -26 7q-8 0 -15 -2q-38 -10 -38 -54l1 -11l48 -180q11 -39 54 -39z" />
    <glyph glyph-name="eacute" unicode="&#xe9;" horiz-adv-x="742" 
d="M459 0h-187q-147 0 -237 138q-35 60 -35 134v470q0 116 80 197.5t192 81.5q112 -1 192 -82t80 -190v-196q0 -92 -65 -157t-157 -65h-215v-59q0 -68 48.5 -116.5t116.5 -48.5q202 0 215 -9q25 -16 25 -45q0 -21 -16 -37t-37 -16zM302 437q56 0 96 40t40 95v177
q0 66 -49.5 115.5t-114.5 49.5h-3q-70 -2 -117 -50.5t-47 -118.5v-308h195zM459 0h-187q-147 0 -237 138q-35 60 -35 134v470q0 116 80 197.5t192 81.5q112 -1 192 -82t80 -190v-196q0 -92 -65 -157t-157 -65h-215v-59q0 -68 48.5 -116.5t116.5 -48.5q202 0 215 -9
q25 -16 25 -45q0 -21 -16 -37t-37 -16zM302 437q56 0 96 40t40 95v177q0 66 -49.5 115.5t-114.5 49.5h-3q-70 -2 -117 -50.5t-47 -118.5v-308h195zM268 1180q43 0 54 39l48 180l1 11q0 44 -38 54q-7 2 -15 2q-13 0 -26 -7q-19 -12 -25 -32l-48 -181l-1 -11q0 -44 39 -54z
M268 1180q43 0 54 39l48 180l1 11q0 44 -38 54q-7 2 -15 2q-13 0 -26 -7q-19 -12 -25 -32l-48 -181l-1 -11q0 -44 39 -54z" />
    <glyph glyph-name="ecircumflex" unicode="&#xea;" horiz-adv-x="742" 
d="M459 0h-187q-147 0 -237 138q-35 60 -35 134v470q0 116 80 197.5t192 81.5q112 -1 192 -82t80 -190v-196q0 -92 -65 -157t-157 -65h-215v-59q0 -68 48.5 -116.5t116.5 -48.5q202 0 215 -9q25 -16 25 -45q0 -21 -16 -37t-37 -16zM302 437q56 0 96 40t40 95v177
q0 66 -49.5 115.5t-114.5 49.5h-3q-70 -2 -117 -50.5t-47 -118.5v-308h195zM459 0h-187q-147 0 -237 138q-35 60 -35 134v470q0 116 80 197.5t192 81.5q112 -1 192 -82t80 -190v-196q0 -92 -65 -157t-157 -65h-215v-59q0 -68 48.5 -116.5t116.5 -48.5q202 0 215 -9
q25 -16 25 -45q0 -21 -16 -37t-37 -16zM302 437q56 0 96 40t40 95v177q0 66 -49.5 115.5t-114.5 49.5h-3q-70 -2 -117 -50.5t-47 -118.5v-308h195zM-85 1272q0 -48 50 -53q12 0 24 4l285 110q295 -113 305 -113q54 0 54 53q0 32 -33 49l-326 127l-326 -127q-33 -17 -33 -50z
M-85 1272q0 -48 50 -53q12 0 24 4l285 110q295 -113 305 -113q54 0 54 53q0 32 -33 49l-326 127l-326 -127q-33 -17 -33 -50z" />
    <glyph glyph-name="edieresis" unicode="&#xeb;" horiz-adv-x="742" 
d="M459 0h-187q-147 0 -237 138q-35 60 -35 134v470q0 116 80 197.5t192 81.5q112 -1 192 -82t80 -190v-196q0 -92 -65 -157t-157 -65h-215v-59q0 -68 48.5 -116.5t116.5 -48.5q202 0 215 -9q25 -16 25 -45q0 -21 -16 -37t-37 -16zM302 437q56 0 96 40t40 95v177
q0 66 -49.5 115.5t-114.5 49.5h-3q-70 -2 -117 -50.5t-47 -118.5v-308h195zM459 0h-187q-147 0 -237 138q-35 60 -35 134v470q0 116 80 197.5t192 81.5q112 -1 192 -82t80 -190v-196q0 -92 -65 -157t-157 -65h-215v-59q0 -68 48.5 -116.5t116.5 -48.5q202 0 215 -9
q25 -16 25 -45q0 -21 -16 -37t-37 -16zM302 437q56 0 96 40t40 95v177q0 66 -49.5 115.5t-114.5 49.5h-3q-70 -2 -117 -50.5t-47 -118.5v-308h195zM132 1228q44 0 54 53v115q0 44 -54 54q-44 0 -53 -54v-115q0 -44 53 -53zM132 1228q44 0 54 53v115q0 44 -54 54
q-44 0 -53 -54v-115q0 -44 53 -53zM397 1228q44 0 54 53v115q0 44 -54 54q-44 0 -53 -54v-115q0 -44 53 -53zM397 1228q44 0 54 53v115q0 44 -54 54q-44 0 -53 -54v-115q0 -44 53 -53z" />
    <glyph glyph-name="igrave" unicode="&#xec;" horiz-adv-x="332" 
d="M53 0q44 0 54 53v915q0 44 -54 53q-44 0 -53 -53v-915q0 -44 53 -53zM53 0q44 0 54 53v915q0 44 -54 53q-44 0 -53 -53v-915q0 -44 53 -53zM63 1190l11 1q39 10 39 54l-1 11l-48 181q-6 20 -25 32q-13 7 -26 7q-8 0 -15 -2q-38 -10 -38 -54l1 -11l48 -180q11 -39 54 -39z
M63 1190l11 1q39 10 39 54l-1 11l-48 181q-6 20 -25 32q-13 7 -26 7q-8 0 -15 -2q-38 -10 -38 -54l1 -11l48 -180q11 -39 54 -39z" />
    <glyph glyph-name="iacute" unicode="&#xed;" horiz-adv-x="332" 
d="M53 0q44 0 54 53v915q0 44 -54 53q-44 0 -53 -53v-915q0 -44 53 -53zM53 0q44 0 54 53v915q0 44 -54 53q-44 0 -53 -53v-915q0 -44 53 -53zM48 1180q43 0 54 39l48 180l1 11q0 44 -38 54q-7 2 -15 2q-13 0 -26 -7q-19 -12 -25 -32l-48 -181l-1 -11q0 -44 39 -54zM48 1180
q43 0 54 39l48 180l1 11q0 44 -38 54q-7 2 -15 2q-13 0 -26 -7q-19 -12 -25 -32l-48 -181l-1 -11q0 -44 39 -54z" />
    <glyph glyph-name="icircumflex" unicode="&#xee;" horiz-adv-x="332" 
d="M53 0q44 0 54 53v915q0 44 -54 53q-44 0 -53 -53v-915q0 -44 53 -53zM53 0q44 0 54 53v915q0 44 -54 53q-44 0 -53 -53v-915q0 -44 53 -53zM-295 1272q0 -48 50 -53q12 0 24 4l285 110q295 -113 305 -113q54 0 54 53q0 32 -33 49l-326 127l-326 -127q-33 -17 -33 -50z
M-295 1272q0 -48 50 -53q12 0 24 4l285 110q295 -113 305 -113q54 0 54 53q0 32 -33 49l-326 127l-326 -127q-33 -17 -33 -50z" />
    <glyph glyph-name="idieresis" unicode="&#xef;" horiz-adv-x="332" 
d="M53 0q44 0 54 53v915q0 44 -54 53q-44 0 -53 -53v-915q0 -44 53 -53zM53 0q44 0 54 53v915q0 44 -54 53q-44 0 -53 -53v-915q0 -44 53 -53zM-78 1228q44 0 54 53v115q0 44 -54 54q-44 0 -53 -54v-115q0 -44 53 -53zM-78 1228q44 0 54 53v115q0 44 -54 54q-44 0 -53 -54
v-115q0 -44 53 -53zM188 1228q44 0 53 53v115q0 44 -53 54q-45 0 -54 -54v-115q0 -44 54 -53zM188 1228q44 0 53 53v115q0 44 -53 54q-45 0 -54 -54v-115q0 -44 54 -53z" />
    <glyph glyph-name="ntilde" unicode="&#xf1;" 
d="M491 0q44 0 53 53v696q0 146 -137 236q-62 36 -135 36q-61 -2 -98 -26.5t-53 -50.5l-16 -26l1 49q0 18 -11 36t-42 18q-44 0 -53 -53v-915q0 -21 16 -37t37 -16q28 0 46 26q8 13 8 723q0 68 48.5 117t116.5 49q69 0 117.5 -49t48.5 -117v-696q0 -15 9 -29q16 -24 44 -24z
M394 1276q19 0 39 5q69 18 99 48q39 20 39 46q0 12 -5 22q-20 20 -34 22q-17 0 -36 -12q-41 -29 -95 -29q-38 0 -83 17t-91 29q-72 21 -104 21q-41 0 -82 -19l-66 -36q-20 -16 -20 -36q0 -10 6 -22v-3q14 -19 36 -19q10 0 17 5q58 29 107 29q41 0 75 -15l41 -12l2 -2
q116 -39 155 -39zM394 1276q19 0 39 5q69 18 99 48q39 20 39 46q0 12 -5 22q-20 20 -34 22q-17 0 -36 -12q-41 -29 -95 -29q-38 0 -83 17t-91 29q-72 21 -104 21q-41 0 -82 -19l-66 -36q-20 -16 -20 -36q0 -10 6 -22v-3q14 -19 36 -19q10 0 17 5q58 29 107 29q41 0 75 -15
l41 -12l2 -2q116 -39 155 -39z" />
    <glyph glyph-name="ograve" unicode="&#xf2;" 
d="M272 0q-112 0 -192 80t-80 192v477q0 113 80 192.5t192 79.5q109 0 193 -80q79 -83 79 -192v-477q0 -112 -79.5 -192t-192.5 -80zM272 107q69 0 117.5 48.5t48.5 116.5v477q0 66 -50 115.5t-116 49.5q-68 0 -116.5 -48.5t-48.5 -116.5v-477q0 -68 48.5 -116.5
t116.5 -48.5zM272 0q-112 0 -192 80t-80 192v477q0 113 80 192.5t192 79.5q109 0 193 -80q79 -83 79 -192v-477q0 -112 -79.5 -192t-192.5 -80zM272 107q69 0 117.5 48.5t48.5 116.5v477q0 66 -50 115.5t-116 49.5q-68 0 -116.5 -48.5t-48.5 -116.5v-477q0 -68 48.5 -116.5
t116.5 -48.5zM283 1190l11 1q39 10 39 54l-1 11l-48 181q-6 20 -25 32q-13 7 -26 7q-8 0 -15 -2q-38 -10 -38 -54l1 -11l48 -180q11 -39 54 -39zM283 1190l11 1q39 10 39 54l-1 11l-48 181q-6 20 -25 32q-13 7 -26 7q-8 0 -15 -2q-38 -10 -38 -54l1 -11l48 -180
q11 -39 54 -39z" />
    <glyph glyph-name="oacute" unicode="&#xf3;" 
d="M272 0q-112 0 -192 80t-80 192v477q0 113 80 192.5t192 79.5q109 0 193 -80q79 -83 79 -192v-477q0 -112 -79.5 -192t-192.5 -80zM272 107q69 0 117.5 48.5t48.5 116.5v477q0 66 -50 115.5t-116 49.5q-68 0 -116.5 -48.5t-48.5 -116.5v-477q0 -68 48.5 -116.5
t116.5 -48.5zM272 0q-112 0 -192 80t-80 192v477q0 113 80 192.5t192 79.5q109 0 193 -80q79 -83 79 -192v-477q0 -112 -79.5 -192t-192.5 -80zM272 107q69 0 117.5 48.5t48.5 116.5v477q0 66 -50 115.5t-116 49.5q-68 0 -116.5 -48.5t-48.5 -116.5v-477q0 -68 48.5 -116.5
t116.5 -48.5zM248 1180q43 0 54 39l48 180l1 11q0 44 -38 54q-7 2 -15 2q-13 0 -26 -7q-19 -12 -25 -32l-48 -181l-1 -11q0 -44 39 -54zM248 1180q43 0 54 39l48 180l1 11q0 44 -38 54q-7 2 -15 2q-13 0 -26 -7q-19 -12 -25 -32l-48 -181l-1 -11q0 -44 39 -54z" />
    <glyph glyph-name="ocircumflex" unicode="&#xf4;" 
d="M272 0q-112 0 -192 80t-80 192v477q0 113 80 192.5t192 79.5q109 0 193 -80q79 -83 79 -192v-477q0 -112 -79.5 -192t-192.5 -80zM272 107q69 0 117.5 48.5t48.5 116.5v477q0 66 -50 115.5t-116 49.5q-68 0 -116.5 -48.5t-48.5 -116.5v-477q0 -68 48.5 -116.5
t116.5 -48.5zM272 0q-112 0 -192 80t-80 192v477q0 113 80 192.5t192 79.5q109 0 193 -80q79 -83 79 -192v-477q0 -112 -79.5 -192t-192.5 -80zM272 107q69 0 117.5 48.5t48.5 116.5v477q0 66 -50 115.5t-116 49.5q-68 0 -116.5 -48.5t-48.5 -116.5v-477q0 -68 48.5 -116.5
t116.5 -48.5zM-85 1272q0 -48 50 -53q12 0 24 4l285 110q295 -113 305 -113q54 0 54 53q0 32 -33 49l-326 127l-326 -127q-33 -17 -33 -50zM-85 1272q0 -48 50 -53q12 0 24 4l285 110q295 -113 305 -113q54 0 54 53q0 32 -33 49l-326 127l-326 -127q-33 -17 -33 -50z" />
    <glyph glyph-name="otilde" unicode="&#xf5;" 
d="M272 0q-112 0 -192 80t-80 192v477q0 113 80 192.5t192 79.5q109 0 193 -80q79 -83 79 -192v-477q0 -112 -79.5 -192t-192.5 -80zM272 107q69 0 117.5 48.5t48.5 116.5v477q0 66 -50 115.5t-116 49.5q-68 0 -116.5 -48.5t-48.5 -116.5v-477q0 -68 48.5 -116.5
t116.5 -48.5zM272 0q-112 0 -192 80t-80 192v477q0 113 80 192.5t192 79.5q109 0 193 -80q79 -83 79 -192v-477q0 -112 -79.5 -192t-192.5 -80zM272 107q69 0 117.5 48.5t48.5 116.5v477q0 66 -50 115.5t-116 49.5q-68 0 -116.5 -48.5t-48.5 -116.5v-477q0 -68 48.5 -116.5
t116.5 -48.5zM394 1276q19 0 39 5q69 18 99 48q39 20 39 46q0 12 -5 22q-20 20 -34 22q-17 0 -36 -12q-41 -29 -95 -29q-38 0 -83 17t-91 29q-72 21 -104 21q-41 0 -82 -19l-66 -36q-20 -16 -20 -36q0 -10 6 -22v-3q14 -19 36 -19q10 0 17 5q58 29 107 29q41 0 75 -15
l41 -12l2 -2q116 -39 155 -39zM394 1276q19 0 39 5q69 18 99 48q39 20 39 46q0 12 -5 22q-20 20 -34 22q-17 0 -36 -12q-41 -29 -95 -29q-38 0 -83 17t-91 29q-72 21 -104 21q-41 0 -82 -19l-66 -36q-20 -16 -20 -36q0 -10 6 -22v-3q14 -19 36 -19q10 0 17 5q58 29 107 29
q41 0 75 -15l41 -12l2 -2q116 -39 155 -39z" />
    <glyph glyph-name="odieresis" unicode="&#xf6;" 
d="M272 0q-112 0 -192 80t-80 192v477q0 113 80 192.5t192 79.5q109 0 193 -80q79 -83 79 -192v-477q0 -112 -79.5 -192t-192.5 -80zM272 107q69 0 117.5 48.5t48.5 116.5v477q0 66 -50 115.5t-116 49.5q-68 0 -116.5 -48.5t-48.5 -116.5v-477q0 -68 48.5 -116.5
t116.5 -48.5zM272 0q-112 0 -192 80t-80 192v477q0 113 80 192.5t192 79.5q109 0 193 -80q79 -83 79 -192v-477q0 -112 -79.5 -192t-192.5 -80zM272 107q69 0 117.5 48.5t48.5 116.5v477q0 66 -50 115.5t-116 49.5q-68 0 -116.5 -48.5t-48.5 -116.5v-477q0 -68 48.5 -116.5
t116.5 -48.5zM132 1228q44 0 54 53v115q0 44 -54 54q-44 0 -53 -54v-115q0 -44 53 -53zM132 1228q44 0 54 53v115q0 44 -54 54q-44 0 -53 -54v-115q0 -44 53 -53zM397 1228q44 0 54 53v115q0 44 -54 54q-44 0 -53 -54v-115q0 -44 53 -53zM397 1228q44 0 54 53v115
q0 44 -54 54q-44 0 -53 -54v-115q0 -44 53 -53z" />
    <glyph glyph-name="oslash" unicode="&#xf8;" 
d="M153 158q1 -1 3 -2q48 -49 116 -49q69 0 117.5 48.5t48.5 116.5v477q0 10 -1 20q-95 -207 -284 -611zM107 307q96 207 266 571q-45 36 -101 36q-68 0 -116.5 -48.5t-48.5 -116.5v-442zM106 57q-9 -20 -19 -41q-22 -34 -50 -34q-9 0 -20 4q-34 21 -34 48q0 3 49 110
q-32 58 -32 128v477q0 113 80 192.5t192 79.5q80 0 147 -43q6 12 12 25q21 34 49 34q9 0 20 -4q34 -21 34 -49q0 -3 -36 -83q46 -68 46 -152v-477q0 -112 -79.5 -192t-192.5 -80q-94 0 -166 57z" />
    <glyph glyph-name="ugrave" unicode="&#xf9;" 
d="M491 0q44 0 53 53v915q0 21 -16 37t-37 16q-28 0 -46 -26q-7 -13 -7 -723q0 -68 -48.5 -116.5t-117.5 -48.5q-68 0 -116.5 48.5t-48.5 116.5v696q0 16 -9 29q-16 24 -45 24q-44 0 -53 -53v-696q0 -146 137 -236q64 -36 135 -36q62 0 99 26t52 51l16 26v-51
q0 -26 18.5 -39t33.5 -13zM283 1190l11 1q39 10 39 54l-1 11l-48 181q-6 20 -25 32q-13 7 -26 7q-8 0 -15 -2q-38 -10 -38 -54l1 -11l48 -180q11 -39 54 -39zM283 1190l11 1q39 10 39 54l-1 11l-48 181q-6 20 -25 32q-13 7 -26 7q-8 0 -15 -2q-38 -10 -38 -54l1 -11l48 -180
q11 -39 54 -39z" />
    <glyph glyph-name="uacute" unicode="&#xfa;" 
d="M491 0q44 0 53 53v915q0 21 -16 37t-37 16q-28 0 -46 -26q-7 -13 -7 -723q0 -68 -48.5 -116.5t-117.5 -48.5q-68 0 -116.5 48.5t-48.5 116.5v696q0 16 -9 29q-16 24 -45 24q-44 0 -53 -53v-696q0 -146 137 -236q64 -36 135 -36q62 0 99 26t52 51l16 26v-51
q0 -26 18.5 -39t33.5 -13zM248 1180q43 0 54 39l48 180l1 11q0 44 -38 54q-7 2 -15 2q-13 0 -26 -7q-19 -12 -25 -32l-48 -181l-1 -11q0 -44 39 -54zM248 1180q43 0 54 39l48 180l1 11q0 44 -38 54q-7 2 -15 2q-13 0 -26 -7q-19 -12 -25 -32l-48 -181l-1 -11q0 -44 39 -54z
" />
    <glyph glyph-name="ucircumflex" unicode="&#xfb;" 
d="M491 0q44 0 53 53v915q0 21 -16 37t-37 16q-28 0 -46 -26q-7 -13 -7 -723q0 -68 -48.5 -116.5t-117.5 -48.5q-68 0 -116.5 48.5t-48.5 116.5v696q0 16 -9 29q-16 24 -45 24q-44 0 -53 -53v-696q0 -146 137 -236q64 -36 135 -36q62 0 99 26t52 51l16 26v-51
q0 -26 18.5 -39t33.5 -13zM-85 1272q0 -48 50 -53q12 0 24 4l285 110q295 -113 305 -113q54 0 54 53q0 32 -33 49l-326 127l-326 -127q-33 -17 -33 -50zM-85 1272q0 -48 50 -53q12 0 24 4l285 110q295 -113 305 -113q54 0 54 53q0 32 -33 49l-326 127l-326 -127
q-33 -17 -33 -50z" />
    <glyph glyph-name="udieresis" unicode="&#xfc;" 
d="M491 0q44 0 53 53v915q0 21 -16 37t-37 16q-28 0 -46 -26q-7 -13 -7 -723q0 -68 -48.5 -116.5t-117.5 -48.5q-68 0 -116.5 48.5t-48.5 116.5v696q0 16 -9 29q-16 24 -45 24q-44 0 -53 -53v-696q0 -146 137 -236q64 -36 135 -36q62 0 99 26t52 51l16 26v-51
q0 -26 18.5 -39t33.5 -13zM132 1228q44 0 54 53v115q0 44 -54 54q-44 0 -53 -54v-115q0 -44 53 -53zM132 1228q44 0 54 53v115q0 44 -54 54q-44 0 -53 -54v-115q0 -44 53 -53zM397 1228q44 0 54 53v115q0 44 -54 54q-44 0 -53 -54v-115q0 -44 53 -53zM397 1228q44 0 54 53
v115q0 44 -54 54q-44 0 -53 -54v-115q0 -44 53 -53z" />
    <glyph glyph-name="yacute" unicode="&#xfd;" 
d="M259 -407q70 0 131 34q75 39 114.5 110t39.5 146v1089q0 22 -15.5 38t-37.5 16q-29 0 -46 -27q-7 -12 -7 -721q0 -70 -48.5 -118.5t-118.5 -48.5q-65 0 -115 49.5t-50 117.5q0 709 -7 721l-7 12q-17 15 -39 15q-43 0 -53 -54v-694q0 -109 80 -191.5t191 -82.5
q82 0 119.5 31.5t47.5 65.5v-218q0 -75 -52 -128t-129 -56q-146 0 -158 -7q-28 -19 -28 -44l2 -14q4 -17 16.5 -29t33.5 -12h136zM248 1180q43 0 54 39l48 180l1 11q0 44 -38 54q-7 2 -15 2q-13 0 -26 -7q-19 -12 -25 -32l-48 -181l-1 -11q0 -44 39 -54zM248 1180
q43 0 54 39l48 180l1 11q0 44 -38 54q-7 2 -15 2q-13 0 -26 -7q-19 -12 -25 -32l-48 -181l-1 -11q0 -44 39 -54z" />
    <glyph glyph-name="ydieresis" unicode="&#xff;" 
d="M259 -407q70 0 131 34q75 39 114.5 110t39.5 146v1089q0 22 -15.5 38t-37.5 16q-29 0 -46 -27q-7 -12 -7 -721q0 -70 -48.5 -118.5t-118.5 -48.5q-65 0 -115 49.5t-50 117.5q0 709 -7 721l-7 12q-17 15 -39 15q-43 0 -53 -54v-694q0 -109 80 -191.5t191 -82.5
q82 0 119.5 31.5t47.5 65.5v-218q0 -75 -52 -128t-129 -56q-146 0 -158 -7q-28 -19 -28 -44l2 -14q4 -17 16.5 -29t33.5 -12h136zM132 1228q44 0 54 53v115q0 44 -54 54q-44 0 -53 -54v-115q0 -44 53 -53zM132 1228q44 0 54 53v115q0 44 -54 54q-44 0 -53 -54v-115
q0 -44 53 -53zM397 1228q44 0 54 53v115q0 44 -54 54q-44 0 -53 -54v-115q0 -44 53 -53zM397 1228q44 0 54 53v115q0 44 -54 54q-44 0 -53 -54v-115q0 -44 53 -53z" />
    <glyph glyph-name="gravecomb" unicode="&#x300;" horiz-adv-x="395" 
d="M119 1298q12 0 21 5q32 17 32 46q0 14 -66 157v121q-7 53 -53 53q-53 -9 -53 -53q0 -121 5 -155l65 -143q17 -31 49 -31zM119 1298q12 0 21 5q32 17 32 46q0 14 -66 157v121q-7 53 -53 53q-53 -9 -53 -53q0 -121 5 -155l65 -143q17 -31 49 -31z" />
    <glyph glyph-name="acutecomb" unicode="&#x301;" horiz-adv-x="335" 
d="M-17 1298q32 0 49 31l65 143q5 34 5 155q0 44 -54 53q-45 0 -53 -53v-121q-65 -143 -65 -157q0 -29 31 -46q10 -5 22 -5zM-17 1298q32 0 49 31l65 143q5 34 5 155q0 44 -54 53q-45 0 -53 -53v-121q-65 -143 -65 -157q0 -29 31 -46q10 -5 22 -5z" />
    <glyph glyph-name="u0401" unicode="&#x401;" horiz-adv-x="646" 
d="M380 0q44 0 54 53q0 44 -54 54h-274v807h224q44 0 53 54q0 44 -53 53h-224v306h274q44 0 54 53q0 44 -54 54h-333q-47 -13 -47 -54v-1327q0 -40 47 -53h333zM380 0q44 0 54 53q0 44 -54 54h-274v807h224q44 0 53 54q0 44 -53 53h-224v306h274q44 0 54 53q0 44 -54 54
h-333q-47 -13 -47 -54v-1327q0 -40 47 -53h333zM84 1740q44 0 54 53v115q0 44 -54 54q-44 0 -53 -54v-115q0 -44 53 -53zM84 1740q44 0 54 53v115q0 44 -54 54q-44 0 -53 -54v-115q0 -44 53 -53zM349 1740q44 0 54 53v115q0 44 -54 54q-44 0 -53 -54v-115q0 -44 53 -53z
M349 1740q44 0 54 53v115q0 44 -54 54q-44 0 -53 -54v-115q0 -44 53 -53z" />
    <glyph glyph-name="u0410" unicode="&#x410;" horiz-adv-x="872" 
d="M694 0q-37 0 -51 39l-80 295h-441l-77 -295q-14 -39 -51 -39l-14 2q-40 15 -40 53q0 9 352 1336q7 32 39 42q38 0 55 -20q9 -13 10 -22q349 -1327 349 -1336q0 -38 -39 -53zM536 441l-193 730l-192 -730h385zM694 0q-37 0 -51 39l-80 295h-441l-77 -295q-14 -39 -51 -39
l-14 2q-40 15 -40 53q0 9 352 1336q7 32 39 42q38 0 55 -20q9 -13 10 -22q349 -1327 349 -1336q0 -38 -39 -53zM536 441l-193 730l-192 -730h385z" />
    <glyph glyph-name="u0411" unicode="&#x411;" horiz-adv-x="791" 
d="M292 0h-239q-44 0 -53 53v1327q0 41 47 54h333q44 0 54 -54q0 -44 -54 -53h-274v-306h186q158 0 255 -149q37 -68 37 -143v-437q0 -75 -37 -143q-97 -149 -255 -149zM292 107q77 0 131.5 54.5t54.5 130.5v437q0 77 -54.5 131t-131.5 54h-186v-807h186zM292 0h-239
q-44 0 -53 53v1327q0 41 47 54h333q44 0 54 -54q0 -44 -54 -53h-274v-306h186q158 0 255 -149q37 -68 37 -143v-437q0 -75 -37 -143q-97 -149 -255 -149zM292 107q77 0 131.5 54.5t54.5 130.5v437q0 77 -54.5 131t-131.5 54h-186v-807h186z" />
    <glyph glyph-name="u0412" unicode="&#x412;" horiz-adv-x="805" 
d="M303 0h-240q-43 0 -53 53v1273q-80 0 -80 53v5q12 49 56 49h235q164 0 256 -148q24 -57 24 -110q0 -57 -26 -110q-9 -22 -49 -70l29 -17q138 -91 138 -250v-435q0 -75 -36 -143q-97 -150 -254 -150zM116 1022l127 2q68 10 100 56t32 95t-32 94.5t-100 56.5l-127 1v-305z
M302 106q77 0 131.5 54.5t54.5 131.5v437q0 77 -54.5 131t-131.5 54h-186v-808h186zM303 0h-240q-43 0 -53 53v1273q-80 0 -80 53v5q12 49 56 49h235q164 0 256 -148q24 -57 24 -110q0 -57 -26 -110q-9 -22 -49 -70l29 -17q138 -91 138 -250v-435q0 -75 -36 -143
q-97 -150 -254 -150zM116 1022l127 2q68 10 100 56t32 95t-32 94.5t-100 56.5l-127 1v-305zM302 106q77 0 131.5 54.5t54.5 131.5v437q0 77 -54.5 131t-131.5 54h-186v-808h186z" />
    <glyph glyph-name="u0413" unicode="&#x413;" horiz-adv-x="588" 
d="M53 0q31 0 48 30q6 11 6 1297h273q44 0 54 53q0 44 -54 54h-333q-47 -13 -47 -54v-1327q0 -44 53 -53zM53 0q31 0 48 30q6 11 6 1297h273q44 0 54 53q0 44 -54 54h-333q-47 -13 -47 -54v-1327q0 -44 53 -53z" />
    <glyph glyph-name="u0414" unicode="&#x414;" horiz-adv-x="997" 
d="M796 -267q-44 0 -54 53v216h-635v-216q0 -44 -54 -53q-44 0 -53 53v270q0 43 53 53h106v1024q0 125 89 214t214 89h239q44 0 53 -53q0 -52 -79 -54v-1220h122q52 -10 52 -53v-270q0 -44 -53 -53zM568 109v1221h-81q-92 0 -156.5 -65t-64.5 -156v-1000h302zM796 -267
q-44 0 -54 53v216h-635v-216q0 -44 -54 -53q-44 0 -53 53v270q0 43 53 53h106v1024q0 125 89 214t214 89h239q44 0 53 -53q0 -52 -79 -54v-1220h122q52 -10 52 -53v-270q0 -44 -53 -53zM568 109v1221h-81q-92 0 -156.5 -65t-64.5 -156v-1000h302z" />
    <glyph glyph-name="u0415" unicode="&#x415;" horiz-adv-x="647" 
d="M380 0q44 0 54 53q0 44 -54 54h-274v807h224q44 0 53 54q0 44 -53 53h-224v306h274q44 0 54 53q0 44 -54 54h-333q-47 -13 -47 -54v-1327q0 -40 47 -53h333zM380 0q44 0 54 53q0 44 -54 54h-274v807h224q44 0 53 54q0 44 -53 53h-224v306h274q44 0 54 53q0 44 -54 54
h-333q-47 -13 -47 -54v-1327q0 -40 47 -53h333z" />
    <glyph glyph-name="u0416" unicode="&#x416;" horiz-adv-x="1127" 
d="M914 0l14 2q39 15 39 51l-2 14l-210 781l140 519l2 14q0 36 -40 52l-13 1q-36 0 -52 -39l-133 -495h-119v481q0 44 -54 53q-44 0 -53 -53v-481h-125l-133 495q-15 39 -51 39l-14 -1q-40 -16 -40 -52l2 -14l140 -519l-212 -795q0 -36 39 -51l14 -2q36 0 52 39l203 755h125
v-740q0 -44 53 -53q44 0 54 53v740h120l203 -755q15 -39 51 -39zM914 0l14 2q39 15 39 51l-2 14l-210 781l140 519l2 14q0 36 -40 52l-13 1q-36 0 -52 -39l-133 -495h-119v481q0 44 -54 53q-44 0 -53 -53v-481h-125l-133 495q-15 39 -51 39l-14 -1q-40 -16 -40 -52l2 -14
l140 -519l-212 -795q0 -36 39 -51l14 -2q36 0 52 39l203 755h125v-740q0 -44 53 -53q44 0 54 53v740h120l203 -755q15 -39 51 -39z" />
    <glyph glyph-name="u0417" unicode="&#x417;" horiz-adv-x="771" 
d="M293 0q157 0 254 150q36 68 36 143v435q0 169 -167 267l22 26q53 60 53 154q0 53 -24 110q-92 148 -256 148h-158q-22 0 -34 -13.5t-17 -28.5l-2 -13q0 -25 29 -45q12 -7 22 -7h181q68 -10 100.5 -57t32.5 -95q0 -49 -32.5 -95t-100.5 -55l-2 -3h-65q-46 0 -54 -53
q0 -31 29 -48l12 -5h141q75 0 129.5 -54.5t54.5 -132.5v-435q0 -78 -54.5 -132.5t-129.5 -54.5q-252 0 -264 -4q-29 -17 -29 -49q0 -43 53 -53h240zM293 0q157 0 254 150q36 68 36 143v435q0 169 -167 267l22 26q53 60 53 154q0 53 -24 110q-92 148 -256 148h-158
q-22 0 -34 -13.5t-17 -28.5l-2 -13q0 -25 29 -45q12 -7 22 -7h181q68 -10 100.5 -57t32.5 -95q0 -49 -32.5 -95t-100.5 -55l-2 -3h-65q-46 0 -54 -53q0 -31 29 -48l12 -5h141q75 0 129.5 -54.5t54.5 -132.5v-435q0 -78 -54.5 -132.5t-129.5 -54.5q-252 0 -264 -4
q-29 -17 -29 -49q0 -43 53 -53h240z" />
    <glyph glyph-name="u0418" unicode="&#x418;" horiz-adv-x="791" 
d="M531 1q44 0 53 53v1322q0 22 -13 40t-40 18q-36 0 -50 -35l-374 -1036v1018q0 44 -54 53q-44 0 -53 -53v-1327q0 -28 15 -39.5t19 -11.5l17 -3q38 0 56 50l371 1027v-1023q0 -44 53 -53z" />
    <glyph glyph-name="u0419" unicode="&#x419;" horiz-adv-x="791" 
d="M531 1q44 0 53 53v1322q0 22 -13 40t-40 18q-36 0 -50 -35l-374 -1036v1018q0 44 -54 53q-44 0 -53 -53v-1327q0 -28 15 -39.5t19 -11.5l17 -3q38 0 56 50l371 1027v-1023q0 -44 53 -53zM382 1631q44 0 54 53q0 44 -54 53h-180q-21 0 -37 -16t-16 -37q0 -44 53 -53h180z
M382 1631q44 0 54 53q0 44 -54 53h-180q-21 0 -37 -16t-16 -37q0 -44 53 -53h180z" />
    <glyph glyph-name="u041A" unicode="&#x41a;" horiz-adv-x="839" 
d="M581 0l14 2q40 15 40 51l-2 14l-210 781l129 480h27q44 0 53 53q0 22 -15.5 37.5t-37.5 15.5h-68q-36 0 -51 -39l-133 -495h-220v481q0 44 -54 53q-44 0 -53 -53v-1327q0 -44 53 -53q44 0 54 53v740h220l203 -754q16 -40 51 -40zM581 0l14 2q40 15 40 51l-2 14l-210 781
l129 480h27q44 0 53 53q0 22 -15.5 37.5t-37.5 15.5h-68q-36 0 -51 -39l-133 -495h-220v481q0 44 -54 53q-44 0 -53 -53v-1327q0 -44 53 -53q44 0 54 53v740h220l203 -754q16 -40 51 -40z" />
    <glyph glyph-name="u041B" unicode="&#x41b;" horiz-adv-x="880" 
d="M567 0q43 0 53 53v1273h36q44 0 54 53q0 22 -16 38t-38 16h-322q-37 0 -50 -39q-354 -1337 -354 -1342q0 -13 8.5 -29t30.5 -21l15 -2q36 0 50 39l342 1287h138v-1273q0 -43 53 -53zM567 0q43 0 53 53v1273h36q44 0 54 53q0 22 -16 38t-38 16h-322q-37 0 -50 -39
q-354 -1337 -354 -1342q0 -13 8.5 -29t30.5 -21l15 -2q36 0 50 39l342 1287h138v-1273q0 -43 53 -53z" />
    <glyph glyph-name="u041C" unicode="&#x41c;" horiz-adv-x="1008" 
d="M757 0q44 0 53 53v1327q0 22 -16 38t-37 16q-33 0 -50 -35l-302 -837l-300 831q-18 40 -52 41q-44 0 -53 -54v-1327q0 -44 53 -53q44 0 54 53v1025l55 -161l186 -511q20 -54 57 -54q43 0 63 71q180 494 236 656v-1026q0 -44 53 -53z" />
    <glyph glyph-name="u041D" unicode="&#x41d;" horiz-adv-x="791" 
d="M531 0q44 0 53 53v1327q0 22 -16 38t-37 16q-44 0 -53 -54v-399h-371v399q0 44 -54 54q-44 0 -53 -54v-1327q0 -44 53 -53q44 0 54 53v822h371v-822q0 -44 53 -53zM531 0q44 0 53 53v1327q0 22 -16 38t-37 16q-44 0 -53 -54v-399h-371v399q0 44 -54 54q-44 0 -53 -54
v-1327q0 -44 53 -53q44 0 54 53v822h371v-822q0 -44 53 -53z" />
    <glyph glyph-name="u041E" unicode="&#x41e;" horiz-adv-x="792" 
d="M292 0q-121 0 -206.5 85.5t-85.5 206.5v849q0 121 85.5 207t206.5 86t207 -86t86 -207v-849q0 -121 -86 -206.5t-207 -85.5zM292 107q77 0 131.5 54.5t54.5 130.5v849q0 77 -54.5 131.5t-131.5 54.5t-131 -54.5t-54 -131.5v-849q0 -76 54 -130.5t131 -54.5zM292 0
q-121 0 -206.5 85.5t-85.5 206.5v849q0 121 85.5 207t206.5 86t207 -86t86 -207v-849q0 -121 -86 -206.5t-207 -85.5zM292 107q77 0 131.5 54.5t54.5 130.5v849q0 77 -54.5 131.5t-131.5 54.5t-131 -54.5t-54 -131.5v-849q0 -76 54 -130.5t131 -54.5z" />
    <glyph glyph-name="u041F" unicode="&#x41f;" horiz-adv-x="791" 
d="M531 0q44 0 53 53v1327q0 22 -16 38t-37 16h-478q-44 0 -53 -54v-1327q0 -44 53 -53q44 0 54 53v1274h371v-1274q0 -44 53 -53zM531 0q44 0 53 53v1327q0 22 -16 38t-37 16h-478q-44 0 -53 -54v-1327q0 -44 53 -53q44 0 54 53v1274h371v-1274q0 -44 53 -53z" />
    <glyph glyph-name="u0420" unicode="&#x420;" horiz-adv-x="768" 
d="M69 0q-44 0 -53 53v1274h-33q-44 0 -53 53q0 22 16 38t37 16h331q108 -4 190 -75q97 -87 97 -218v-436q0 -76 -38 -143q-97 -149 -255 -149h-185v-360q0 -21 -16 -37t-38 -16zM308 519q77 0 131.5 54.5t54.5 131.5v436q0 76 -51.5 129t-129.5 57h-190v-808h185zM69 0
q-44 0 -53 53v1274h-33q-44 0 -53 53q0 22 16 38t37 16h331q108 -4 190 -75q97 -87 97 -218v-436q0 -76 -38 -143q-97 -149 -255 -149h-185v-360q0 -21 -16 -37t-38 -16zM308 519q77 0 131.5 54.5t54.5 131.5v436q0 76 -51.5 129t-129.5 57h-190v-808h185z" />
    <glyph glyph-name="u0421" unicode="&#x421;" horiz-adv-x="685" 
d="M421 0q17 0 30.5 10t17.5 27l5 16q0 34 -31 48q-10 6 -151 6q-77 0 -131 54.5t-54 130.5v849q0 77 51.5 129.5t129.5 56.5q145 0 156 5q30 17 30 48q-1 22 -14.5 38t-38.5 16h-136q-69 -2 -129 -34q-76 -41 -116 -112t-40 -147v-849q0 -81 43 -153q87 -139 249 -139h129z
M421 0q17 0 30.5 10t17.5 27l5 16q0 34 -31 48q-10 6 -151 6q-77 0 -131 54.5t-54 130.5v849q0 77 51.5 129.5t129.5 56.5q145 0 156 5q30 17 30 48q-1 22 -14.5 38t-38.5 16h-136q-69 -2 -129 -34q-76 -41 -116 -112t-40 -147v-849q0 -81 43 -153q87 -139 249 -139h129z
" />
    <glyph glyph-name="u0422" unicode="&#x422;" horiz-adv-x="716" 
d="M252 0q44 0 53 53v1274h186q44 0 53 53q0 44 -53 54h-478q-44 0 -53 -54q0 -44 53 -53h186v-1274q0 -44 53 -53zM252 0q44 0 53 53v1274h186q44 0 53 53q0 44 -53 54h-478q-44 0 -53 -54q0 -44 53 -53h186v-1274q0 -44 53 -53z" />
    <glyph glyph-name="u0423" unicode="&#x423;" horiz-adv-x="791" 
d="M292 0q82 0 151 42q136 83 141 242v1071q0 79 -53 79q-31 0 -48 -30q-5 -11 -5 -570q0 -77 -54.5 -131.5t-131.5 -54.5t-131 54.5t-54 131.5q0 559 -6 570q-14 30 -48 30q-44 0 -53 -54v-546q0 -158 149 -255q68 -37 143 -37q76 0 143 37l43 24v-311q0 -77 -54.5 -131
t-131.5 -54q-251 0 -262 -6q-30 -17 -30 -48q0 -44 53 -53h239zM292 0q82 0 151 42q136 83 141 242v1071q0 79 -53 79q-31 0 -48 -30q-5 -11 -5 -570q0 -77 -54.5 -131.5t-131.5 -54.5t-131 54.5t-54 131.5q0 559 -6 570q-14 30 -48 30q-44 0 -53 -54v-546q0 -158 149 -255
q68 -37 143 -37q76 0 143 37l43 24v-311q0 -77 -54.5 -131t-131.5 -54q-251 0 -262 -6q-30 -17 -30 -48q0 -44 53 -53h239z" />
    <glyph glyph-name="u0424" unicode="&#x424;" horiz-adv-x="1096" 
d="M451 0q-44 0 -54 53v239h-105q-158 0 -254 149q-38 67 -38 143v437q0 133 106 225q82 67 206 67h85v67q0 30 29 48q11 5 23 5q31 0 50 -30q5 -10 5 -90h46q93 0 135 -10q66 -18 120 -65q96 -87 96 -217v-437q0 -76 -37 -143q-97 -149 -255 -149h-105v-239q0 -21 -16 -37
t-37 -16zM397 398v808h-109q-78 -4 -129.5 -56.5t-51.5 -128.5v-437q0 -77 54 -131.5t131 -54.5h105zM609 398q77 0 131.5 54.5t54.5 131.5v437q0 76 -51.5 128.5t-129.5 56.5h-110v-808h105zM451 0q-44 0 -54 53v239h-105q-158 0 -254 149q-38 67 -38 143v437
q0 133 106 225q82 67 206 67h85v67q0 30 29 48q11 5 23 5q31 0 50 -30q5 -10 5 -90h46q93 0 135 -10q66 -18 120 -65q96 -87 96 -217v-437q0 -76 -37 -143q-97 -149 -255 -149h-105v-239q0 -21 -16 -37t-37 -16zM397 398v808h-109q-78 -4 -129.5 -56.5t-51.5 -128.5v-437
q0 -77 54 -131.5t131 -54.5h105zM609 398q77 0 131.5 54.5t54.5 131.5v437q0 76 -51.5 128.5t-129.5 56.5h-110v-808h105z" />
    <glyph glyph-name="u0425" unicode="&#x425;" horiz-adv-x="856" 
d="M600 0q10 0 20 5q33 16 33 46q0 13 -268 665q268 653 268 667q0 31 -33 47q-10 5 -20 5q-33 0 -50 -34l-223 -544l-225 544q-17 34 -48 34q-13 0 -22 -5q-32 -17 -32 -49l3 -21l266 -644l-266 -643l-3 -20q0 -31 32 -48q9 -5 22 -5q31 0 48 31l225 545l223 -545
q17 -31 50 -31zM600 0q10 0 20 5q33 16 33 46q0 13 -268 665q268 653 268 667q0 31 -33 47q-10 5 -20 5q-33 0 -50 -34l-223 -544l-225 544q-17 34 -48 34q-13 0 -22 -5q-32 -17 -32 -49l3 -21l266 -644l-266 -643l-3 -20q0 -31 32 -48q9 -5 22 -5q31 0 48 31l225 545
l223 -545q17 -31 50 -31z" />
    <glyph glyph-name="u0426" unicode="&#x426;" horiz-adv-x="872" 
d="M688 -267q44 0 53 53v270q0 43 -52 53h-122v1274q0 44 -53 53q-44 0 -54 -53v-1274h-353v1274q0 21 -16 37t-38 16q-44 0 -53 -53v-1328q5 -53 53 -53l582 1v-217q0 -44 53 -53zM688 -267q44 0 53 53v270q0 43 -52 53h-122v1274q0 44 -53 53q-44 0 -54 -53v-1274h-353
v1274q0 21 -16 37t-38 16q-44 0 -53 -53v-1328q5 -53 53 -53l582 1v-217q0 -44 53 -53z" />
    <glyph glyph-name="u0427" unicode="&#x427;" horiz-adv-x="791" 
d="M531 0q44 0 53 53v1327q0 17 -13 35t-40 19q-33 0 -48 -30q-5 -11 -5 -885h-186q-77 0 -131.5 54.5t-54.5 131.5q0 687 -5 699q-16 29 -48 29q-53 0 -53 -68v-665q1 -74 39.5 -141.5t108 -106.5t144.5 -39h186v-360q0 -21 16 -37t37 -16zM531 0q44 0 53 53v1327
q0 17 -13 35t-40 19q-33 0 -48 -30q-5 -11 -5 -885h-186q-77 0 -131.5 54.5t-54.5 131.5q0 687 -5 699q-16 29 -48 29q-53 0 -53 -68v-665q1 -74 39.5 -141.5t108 -106.5t144.5 -39h186v-360q0 -21 16 -37t37 -16z" />
    <glyph glyph-name="u0428" unicode="&#x428;" horiz-adv-x="1048" 
d="M799 0q21 0 37 16t16 37v1327q0 44 -53 54q-44 0 -53 -54v-1273h-267v1273q0 44 -53 54q-44 0 -53 -54v-1273h-266v1273q0 44 -54 54q-44 0 -53 -54v-1327q0 -44 53 -53h746zM799 0q21 0 37 16t16 37v1327q0 44 -53 54q-44 0 -53 -54v-1273h-267v1273q0 44 -53 54
q-44 0 -53 -54v-1273h-266v1273q0 44 -54 54q-44 0 -53 -54v-1327q0 -44 53 -53h746z" />
    <glyph glyph-name="u0429" unicode="&#x429;" horiz-adv-x="1158" 
d="M974 -267q44 0 53 53v270q0 44 -53 53h-121v1274q0 44 -53 53q-44 0 -54 -53v-1274h-267v1274q0 44 -53 53q-44 0 -53 -53v-1274h-266v1274q0 44 -54 53q-44 0 -53 -53v-1327q0 -44 53 -54h868v-216q0 -44 53 -53zM974 -267q44 0 53 53v270q0 44 -53 53h-121v1274
q0 44 -53 53q-44 0 -54 -53v-1274h-267v1274q0 44 -53 53q-44 0 -53 -53v-1274h-266v1274q0 44 -54 53q-44 0 -53 -53v-1327q0 -44 53 -54h868v-216q0 -44 53 -53z" />
    <glyph glyph-name="u042A" unicode="&#x42a;" horiz-adv-x="878" 
d="M384 0h-248q-49 11 -49 53v1274h-104q-21 0 -37 16t-16 37q0 44 53 54h157q21 0 37 -16t16 -38v-359h186q158 0 255 -149q37 -68 37 -143v-437q0 -131 -97 -217q-82 -72 -190 -75zM383 107q78 3 129.5 56t51.5 129v437q0 76 -53 129.5t-132 55.5h-186v-807h190zM384 0
h-248q-49 11 -49 53v1274h-104q-21 0 -37 16t-16 37q0 44 53 54h157q21 0 37 -16t16 -38v-359h186q158 0 255 -149q37 -68 37 -143v-437q0 -131 -97 -217q-82 -72 -190 -75zM383 107q78 3 129.5 56t51.5 129v437q0 76 -53 129.5t-132 55.5h-186v-807h190z" />
    <glyph glyph-name="u042B" unicode="&#x42b;" horiz-adv-x="1114" 
d="M297 0h-247q-50 11 -50 53v1327q0 44 53 54q22 0 37.5 -16t15.5 -38v-359h186q158 0 255 -149q37 -68 37 -143v-437q0 -130 -96 -217q-82 -72 -191 -75zM296 107q79 3 130.5 56t51.5 129v437q0 77 -53.5 130t-132.5 55h-186v-807h190zM297 0h-247q-50 11 -50 53v1327
q0 44 53 54q22 0 37.5 -16t15.5 -38v-359h186q158 0 255 -149q37 -68 37 -143v-437q0 -130 -96 -217q-82 -72 -191 -75zM296 107q79 3 130.5 56t51.5 129v437q0 77 -53.5 130t-132.5 55h-186v-807h190zM807 0q33 0 48 30q5 11 5 1350q0 22 -15.5 38t-37.5 16q-44 0 -53 -54
v-1327q0 -19 14.5 -36t38.5 -17zM807 0q33 0 48 30q5 11 5 1350q0 22 -15.5 38t-37.5 16q-44 0 -53 -54v-1327q0 -19 14.5 -36t38.5 -17z" />
    <glyph glyph-name="u042C" unicode="&#x42c;" horiz-adv-x="792" 
d="M297 0h-247q-50 11 -50 53v1327q0 44 53 54q22 0 38 -16t16 -38v-359h185q158 0 255 -149q38 -68 38 -143v-437q0 -130 -97 -217q-82 -72 -191 -75zM296 107q79 3 130.5 56t51.5 129v437q0 76 -53.5 129.5t-132.5 55.5h-185v-807h189zM297 0h-247q-50 11 -50 53v1327
q0 44 53 54q22 0 38 -16t16 -38v-359h185q158 0 255 -149q38 -68 38 -143v-437q0 -130 -97 -217q-82 -72 -191 -75zM296 107q79 3 130.5 56t51.5 129v437q0 76 -53.5 129.5t-132.5 55.5h-185v-807h189z" />
    <glyph glyph-name="u042D" unicode="&#x42d;" horiz-adv-x="685" 
d="M189 0q163 6 247 150q37 68 37 143v849q0 83 -42.5 151.5t-109 105t-139.5 36.5h-128q-32 0 -49 -29q-5 -15 -5 -26q0 -28 30 -47q9 -4 152 -4q75 0 129.5 -54.5t54.5 -132.5v-159h-237q-19 0 -36 -16t-17 -38q0 -43 53 -53h237v-583q0 -75 -51 -128.5t-130 -58.5
q-143 0 -155 -4q-29 -17 -29 -49q0 -36 41 -51l7 -2h140zM189 0q163 6 247 150q37 68 37 143v849q0 83 -42.5 151.5t-109 105t-139.5 36.5h-128q-32 0 -49 -29q-5 -15 -5 -26q0 -28 30 -47q9 -4 152 -4q75 0 129.5 -54.5t54.5 -132.5v-159h-237q-19 0 -36 -16t-17 -38
q0 -43 53 -53h237v-583q0 -75 -51 -128.5t-130 -58.5q-143 0 -155 -4q-29 -17 -29 -49q0 -36 41 -51l7 -2h140z" />
    <glyph glyph-name="u042E" unicode="&#x42e;" horiz-adv-x="1144" 
d="M658 0q-121 0 -206.5 85.5t-85.5 206.5v583h-260v-822q0 -44 -53 -53q-44 0 -53 53v1327q0 44 53 54q21 0 37 -16t16 -38v-399h260v160q0 121 85.5 207t206.5 86t207 -86t86 -207v-849q0 -121 -86 -206.5t-207 -85.5zM658 107q77 0 131.5 54t54.5 131v849
q0 77 -54.5 131.5t-131.5 54.5q-76 0 -130.5 -54.5t-54.5 -131.5v-849q0 -77 54.5 -131t130.5 -54zM658 0q-121 0 -206.5 85.5t-85.5 206.5v583h-260v-822q0 -44 -53 -53q-44 0 -53 53v1327q0 44 53 54q21 0 37 -16t16 -38v-399h260v160q0 121 85.5 207t206.5 86t207 -86
t86 -207v-849q0 -121 -86 -206.5t-207 -85.5zM658 107q77 0 131.5 54t54.5 131v849q0 77 -54.5 131.5t-131.5 54.5q-76 0 -130.5 -54.5t-54.5 -131.5v-849q0 -77 54.5 -131t130.5 -54z" />
    <glyph glyph-name="u042F" unicode="&#x42f;" horiz-adv-x="881" 
d="M541 0q-22 0 -37.5 17t-15.5 36v361q-207 0 -228 2l-157 -382q-17 -34 -49 -34q-12 0 -21 5q-33 12 -33 49q0 12 159 396q-151 94 -151 257v435q0 75 39 143q22 44 58 75q83 73 191 75h330q21 0 37 -15.5t16 -37.5q0 -34 -32 -51l-21 -2h-32v-1276q0 -43 -53 -53z
M487 520v808h-191q-77 -4 -129 -57t-52 -129v-436q0 -73 55 -129.5t131 -56.5h186zM541 0q-22 0 -37.5 17t-15.5 36v361q-207 0 -228 2l-157 -382q-17 -34 -49 -34q-12 0 -21 5q-33 12 -33 49q0 12 159 396q-151 94 -151 257v435q0 75 39 143q22 44 58 75q83 73 191 75h330
q21 0 37 -15.5t16 -37.5q0 -34 -32 -51l-21 -2h-32v-1276q0 -43 -53 -53zM487 520v808h-191q-77 -4 -129 -57t-52 -129v-436q0 -73 55 -129.5t131 -56.5h186z" />
    <glyph glyph-name="u0430" unicode="&#x430;" 
d="M491 0q-41 0 -51 53l-2 53q-10 -31 -47.5 -68.5t-124.5 -37.5q-60 0 -123 34q-143 89 -143 237v143q0 155 148 242q54 29 116 29h9q66 -3 102 -29.5t50 -52.5l13 -27v172q0 68 -49.5 117.5t-115.5 49.5h-106q-44 0 -53 53q0 22 14 39h5q15 14 34 14h106
q112 0 191.5 -79.5t79.5 -193.5v-695q0 -43 -53 -53zM273 107q68 0 116.5 48.5t48.5 116.5v142q0 66 -49.5 115.5t-115.5 49.5q-69 0 -117.5 -48.5t-48.5 -116.5v-142q0 -68 48.5 -116.5t117.5 -48.5z" />
    <glyph glyph-name="u0431" unicode="&#x431;" horiz-adv-x="752" 
d="M272 0q-112 0 -192 79.5t-80 192.5v869q0 76 37 143q85 150 284 150h100q37 -3 45 -27t8 -27q0 -31 -30 -48q-11 -5 -156 -5q-78 -4 -129.5 -56.5t-51.5 -129.5v-212l48 47q42 45 117 45q109 0 193 -80q79 -83 79 -192v-477q0 -113 -79.5 -192.5t-192.5 -79.5zM272 107
q69 0 117.5 48.5t48.5 116.5v477q0 66 -50 115.5t-116 49.5q-68 0 -116.5 -48.5t-48.5 -116.5v-477q0 -68 48.5 -116.5t116.5 -48.5zM272 0q-112 0 -192 79.5t-80 192.5v869q0 76 37 143q85 150 284 150h100q37 -3 45 -27t8 -27q0 -31 -30 -48q-11 -5 -156 -5
q-78 -4 -129.5 -56.5t-51.5 -129.5v-212l48 47q42 45 117 45q109 0 193 -80q79 -83 79 -192v-477q0 -113 -79.5 -192.5t-192.5 -79.5zM272 107q69 0 117.5 48.5t48.5 116.5v477q0 66 -50 115.5t-116 49.5q-68 0 -116.5 -48.5t-48.5 -116.5v-477q0 -68 48.5 -116.5
t116.5 -48.5z" />
    <glyph glyph-name="u0432" unicode="&#x432;" horiz-adv-x="752" 
d="M272 0q-112 0 -192 80t-80 192v971q0 79 56 135t134 56q77 0 134 -57t57 -134v-108q-5 -74 -40 -102l-34 -28l60 -14q60 -15 98 -50q79 -83 79 -192v-477q0 -112 -79.5 -192t-192.5 -80zM107 936l21 25q22 25 50 44q30 18 63 45.5t33 53.5v139q0 34 -25 59t-59 25
q-69 0 -83 -84v-307zM272 107q69 0 117.5 48.5t48.5 116.5v477q0 66 -50 115.5t-116 49.5q-68 0 -116.5 -48.5t-48.5 -116.5v-477q0 -68 48.5 -116.5t116.5 -48.5z" />
    <glyph glyph-name="u0433" unicode="&#x433;" horiz-adv-x="752" 
d="M491 0q21 0 37 16t16 37q0 28 -25 46q-14 8 -247 8q-68 0 -116.5 48.5t-48.5 116.5v142q0 68 48.5 116.5t116.5 48.5h51q84 0 152.5 61t68.5 160q0 51 -22 97q-73 124 -199 124h-161q-21 0 -37 -15.5t-16 -37.5q0 -44 53 -54h161q48 0 81.5 -33.5t33.5 -80.5
q0 -45 -34.5 -79.5t-80.5 -34.5h-51q-114 0 -200 -88q-72 -81 -72 -184v-142q0 -71 36 -135q90 -137 236 -137h219zM491 0q21 0 37 16t16 37q0 28 -25 46q-14 8 -247 8q-68 0 -116.5 48.5t-48.5 116.5v142q0 68 48.5 116.5t116.5 48.5h51q84 0 152.5 61t68.5 160
q0 51 -22 97q-73 124 -199 124h-161q-21 0 -37 -15.5t-16 -37.5q0 -44 53 -54h161q48 0 81.5 -33.5t33.5 -80.5q0 -45 -34.5 -79.5t-80.5 -34.5h-51q-114 0 -200 -88q-72 -81 -72 -184v-142q0 -71 36 -135q90 -137 236 -137h219z" />
    <glyph glyph-name="u0434" unicode="&#x434;" 
d="M259 -407h-136q-29 0 -43 24q-11 14 -11 30q0 33 30 48q12 4 155 4q80 5 131 57t51 130v213l-49 -49q-41 -43 -116 -43q-109 0 -194 80q-77 82 -77 191v477q0 113 78.5 193t192.5 80q73 0 108 -28t48 -55l13 -28l-2 55q0 17 12 36.5t39 19.5q53 0 53 -49v-1093
q0 -75 -36 -143q-84 -144 -247 -150zM271 113q68 0 116.5 48.5t48.5 116.5v477q0 68 -48.5 117t-116.5 49t-117 -49t-49 -117v-477q0 -66 50 -115.5t116 -49.5z" />
    <glyph glyph-name="u0435" unicode="&#x435;" horiz-adv-x="741" 
d="M459 0h-187q-147 0 -237 138q-35 60 -35 134v470q0 116 80 197.5t192 81.5q112 -1 192 -82t80 -190v-196q0 -92 -65 -157t-157 -65h-215v-59q0 -68 48.5 -116.5t116.5 -48.5q202 0 215 -9q25 -16 25 -45q0 -21 -16 -37t-37 -16zM302 437q56 0 96 40t40 95v177
q0 66 -49.5 115.5t-114.5 49.5h-3q-70 -2 -117 -50.5t-47 -118.5v-308h195zM459 0h-187q-147 0 -237 138q-35 60 -35 134v470q0 116 80 197.5t192 81.5q112 -1 192 -82t80 -190v-196q0 -92 -65 -157t-157 -65h-215v-59q0 -68 48.5 -116.5t116.5 -48.5q202 0 215 -9
q25 -16 25 -45q0 -21 -16 -37t-37 -16zM302 437q56 0 96 40t40 95v177q0 66 -49.5 115.5t-114.5 49.5h-3q-70 -2 -117 -50.5t-47 -118.5v-308h195z" />
    <glyph glyph-name="u0436" unicode="&#x436;" horiz-adv-x="1001" 
d="M810 0q10 0 20 5q34 13 34 51l-3 17l-208 561l118 317l3 17q0 34 -34 51l-19 2q-34 0 -51 -34l-112 -300h-99v281q0 46 -53 53q-44 0 -53 -53v-281h-99l-112 300q-17 34 -48 34l-20 -2q-33 -17 -33 -51l2 -17l119 -317q-212 -571 -212 -582q0 -31 35 -47q7 -5 17 -5
q34 0 51 36l201 545h99v-528q0 -43 53 -53q46 0 53 53v528h99l204 -545q17 -36 48 -36zM810 0q10 0 20 5q34 13 34 51l-3 17l-208 561l118 317l3 17q0 34 -34 51l-19 2q-34 0 -51 -34l-112 -300h-99v281q0 46 -53 53q-44 0 -53 -53v-281h-99l-112 300q-17 34 -48 34l-20 -2
q-33 -17 -33 -51l2 -17l119 -317q-212 -571 -212 -582q0 -31 35 -47q7 -5 17 -5q34 0 51 36l201 545h99v-528q0 -43 53 -53q46 0 53 53v528h99l204 -545q17 -36 48 -36z" />
    <glyph glyph-name="u0437" unicode="&#x437;" 
d="M273 0q146 0 235 138q36 63 36 135v141q0 143 -130 235l19 21q41 72 41 128q0 59 -34 117q-62 99 -179 106h-208q-22 0 -37 -17.5t-15 -36.5q0 -18 16 -35q10 -17 36 -17h201q46 0 80 -33t34 -81q0 -46 -34 -80t-80 -34h-160q-26 0 -38 -17t-12 -36q0 -14 10.5 -33.5
t39.5 -19.5h179q66 0 115.5 -49.5t49.5 -117.5v-141q0 -67 -48.5 -117t-116.5 -50q-234 0 -246 -7q-27 -13 -27 -46q0 -43 53 -53h220zM273 0q146 0 235 138q36 63 36 135v141q0 143 -130 235l19 21q41 72 41 128q0 59 -34 117q-62 99 -179 106h-208q-22 0 -37 -17.5
t-15 -36.5q0 -18 16 -35q10 -17 36 -17h201q46 0 80 -33t34 -81q0 -46 -34 -80t-80 -34h-160q-26 0 -38 -17t-12 -36q0 -14 10.5 -33.5t39.5 -19.5h179q66 0 115.5 -49.5t49.5 -117.5v-141q0 -67 -48.5 -117t-116.5 -50q-234 0 -246 -7q-27 -13 -27 -46q0 -43 53 -53h220z
" />
    <glyph glyph-name="u0438" unicode="&#x438;" horiz-adv-x="752" 
d="M491 0q44 0 53 53v915q0 21 -16 37t-37 16q-28 0 -46 -26q-7 -13 -7 -723q0 -68 -48.5 -116.5t-117.5 -48.5q-68 0 -116.5 48.5t-48.5 116.5v696q0 16 -9 29q-16 24 -45 24q-44 0 -53 -53v-696q0 -146 137 -236q64 -36 135 -36q62 0 99 26t52 51l16 26v-51
q0 -26 18.5 -39t33.5 -13z" />
    <glyph glyph-name="u0439" unicode="&#x439;" 
d="M491 0q44 0 53 53v915q0 21 -16 37t-37 16q-28 0 -46 -26q-7 -13 -7 -723q0 -68 -48.5 -116.5t-117.5 -48.5q-68 0 -116.5 48.5t-48.5 116.5v696q0 16 -9 29q-16 24 -45 24q-44 0 -53 -53v-696q0 -146 137 -236q64 -36 135 -36q62 0 99 26t52 51l16 26v-51
q0 -26 18.5 -39t33.5 -13zM362 1296q44 0 54 53q0 44 -54 53h-180q-21 0 -37 -16t-16 -37q0 -44 53 -53h180zM362 1296q44 0 54 53q0 44 -54 53h-180q-21 0 -37 -16t-16 -37q0 -44 53 -53h180z" />
    <glyph glyph-name="u043A" unicode="&#x43a;" horiz-adv-x="727" 
d="M528 0q9 0 19 5q34 13 34 51l-3 17l-208 561q121 330 121 334q0 34 -36 51l-17 2q-34 0 -51 -34l-111 -300h-170v281q0 53 -53 53q-43 0 -53 -53v-915q0 -43 53 -53q44 0 53 53v528h170l203 -545q15 -36 49 -36zM528 0q9 0 19 5q34 13 34 51l-3 17l-208 561
q121 330 121 334q0 34 -36 51l-17 2q-34 0 -51 -34l-111 -300h-170v281q0 53 -53 53q-43 0 -53 -53v-915q0 -43 53 -53q44 0 53 53v528h170l203 -545q15 -36 49 -36z" />
    <glyph glyph-name="u043B" unicode="&#x43b;" horiz-adv-x="762" 
d="M507 0q-43 0 -53 53v862h-70l-320 -881q-17 -34 -51 -34l-19 2q-34 17 -34 51l3 20l327 886q29 63 89 63h126q58 0 58 -53v-916q0 -43 -56 -53z" />
    <glyph glyph-name="u043C" unicode="&#x43c;" horiz-adv-x="911" 
d="M655 0q44 0 54 53v915q-1 23 -17 37.5t-36 15.5q-32 0 -49 -31l-253 -547l-253 548q-16 30 -47 30q-15 0 -29 -8q-22 -15 -25 -41v-919q0 -44 53 -53q44 0 54 53v686l216 -426q10 -26 31 -26q22 0 32 26l216 426v-686q0 -44 53 -53z" />
    <glyph glyph-name="u043D" unicode="&#x43d;" horiz-adv-x="752" 
d="M491 0q44 0 53 53v915q0 44 -53 53q-44 0 -53 -53v-282h-331v282q0 44 -54 53q-44 0 -53 -53v-915q0 -44 53 -53q44 0 54 53v526h331v-526q0 -44 53 -53zM491 0q44 0 53 53v915q0 44 -53 53q-44 0 -53 -53v-282h-331v282q0 44 -54 53q-44 0 -53 -53v-915q0 -44 53 -53
q44 0 54 53v526h331v-526q0 -44 53 -53z" />
    <glyph glyph-name="u043E" unicode="&#x43e;" horiz-adv-x="752" 
d="M272 0q-112 0 -192 80t-80 192v477q0 113 80 192.5t192 79.5q109 0 193 -80q79 -83 79 -192v-477q0 -112 -79.5 -192t-192.5 -80zM272 107q69 0 117.5 48.5t48.5 116.5v477q0 66 -50 115.5t-116 49.5q-68 0 -116.5 -48.5t-48.5 -116.5v-477q0 -68 48.5 -116.5
t116.5 -48.5zM272 0q-112 0 -192 80t-80 192v477q0 113 80 192.5t192 79.5q109 0 193 -80q79 -83 79 -192v-477q0 -112 -79.5 -192t-192.5 -80zM272 107q69 0 117.5 48.5t48.5 116.5v477q0 66 -50 115.5t-116 49.5q-68 0 -116.5 -48.5t-48.5 -116.5v-477q0 -68 48.5 -116.5
t116.5 -48.5z" />
    <glyph glyph-name="u043F" unicode="&#x43f;" horiz-adv-x="752" 
d="M491 0q44 0 53 53v915q0 44 -53 53h-438q-44 0 -53 -53v-915q0 -44 53 -53q44 0 54 53v861h331v-861q0 -44 53 -53zM491 0q44 0 53 53v915q0 44 -53 53h-438q-44 0 -53 -53v-915q0 -44 53 -53q44 0 54 53v861h331v-861q0 -44 53 -53z" />
    <glyph glyph-name="u0440" unicode="&#x440;" horiz-adv-x="752" 
d="M53 -407q-21 0 -37 16t-16 37v1327q0 22 16 38t37 16q45 0 54 -49v-61l14 27q13 28 48.5 55.5t102.5 27.5q146 0 237 -138q35 -63 35 -135v-476q0 -113 -79.5 -192.5t-192.5 -79.5q-62 0 -98 23t-52 46l-15 23v-452q0 -44 -54 -53zM272 112q69 0 117.5 48.5t48.5 117.5
v476q0 69 -48.5 117.5t-117.5 48.5q-68 0 -116.5 -48.5t-48.5 -117.5v-476q0 -67 49.5 -116.5t115.5 -49.5z" />
    <glyph glyph-name="u0441" unicode="&#x441;" horiz-adv-x="652" 
d="M409 0q22 0 38.5 16.5t16.5 37.5l-2 14q-17 38 -53 38h-138q-68 0 -116.5 48.5t-48.5 116.5v477q0 70 48.5 118.5t116.5 48.5h138q31 0 41 19t10 34q0 19 -11 36t-40 17h-138q-109 0 -190 -82t-81 -191v-477q0 -68 36 -133q92 -138 235 -138h138zM409 0q22 0 38.5 16.5
t16.5 37.5l-2 14q-17 38 -53 38h-138q-68 0 -116.5 48.5t-48.5 116.5v477q0 70 48.5 118.5t116.5 48.5h138q31 0 41 19t10 34q0 19 -11 36t-40 17h-138q-109 0 -190 -82t-81 -191v-477q0 -68 36 -133q92 -138 235 -138h138z" />
    <glyph glyph-name="u0442" unicode="&#x442;" horiz-adv-x="682" 
d="M232 0q44 0 53 53v861h166q44 0 53 54q0 44 -53 53h-438q-44 0 -53 -53q0 -44 53 -54h166v-861q0 -44 53 -53zM232 0q44 0 53 53v861h166q44 0 53 54q0 44 -53 53h-438q-44 0 -53 -53q0 -44 53 -54h166v-861q0 -44 53 -53z" />
    <glyph glyph-name="u0443" unicode="&#x443;" 
d="M259 -407q70 0 131 34q75 39 114.5 110t39.5 146v1089q0 22 -15.5 38t-37.5 16q-29 0 -46 -27q-7 -12 -7 -721q0 -70 -48.5 -118.5t-118.5 -48.5q-65 0 -115 49.5t-50 117.5q0 709 -7 721l-7 12q-17 15 -39 15q-43 0 -53 -54v-694q0 -109 80 -191.5t191 -82.5
q82 0 119.5 31.5t47.5 65.5v-218q0 -75 -52 -128t-129 -56q-146 0 -158 -7q-28 -19 -28 -44l2 -14q4 -17 16.5 -29t33.5 -12h136z" />
    <glyph glyph-name="u0444" unicode="&#x444;" horiz-adv-x="910" 
d="M354 -407q-44 0 -53 53v360h-29q-112 0 -192 79.5t-80 192.5v473q0 112 80 192t192 80h29v110q0 44 53 54q44 0 53 -54v-110h29q109 0 192 -80q80 -83 80 -192v-473q0 -113 -80 -192.5t-192 -79.5l-29 -1v-359q0 -44 -53 -53zM301 112v796h-29q-68 0 -116.5 -48.5
t-48.5 -116.5v-465q0 -69 48.5 -117.5t116.5 -48.5h29zM436 112q68 0 116.5 48.5t48.5 117.5v465q0 66 -49.5 115.5t-115.5 49.5h-29v-796h29zM354 -407q-44 0 -53 53v360h-29q-112 0 -192 79.5t-80 192.5v473q0 112 80 192t192 80h29v110q0 44 53 54q44 0 53 -54v-110h29
q109 0 192 -80q80 -83 80 -192v-473q0 -113 -80 -192.5t-192 -79.5l-29 -1v-359q0 -44 -53 -53zM301 112v796h-29q-68 0 -116.5 -48.5t-48.5 -116.5v-465q0 -69 48.5 -117.5t116.5 -48.5h29zM436 112q68 0 116.5 48.5t48.5 117.5v465q0 66 -49.5 115.5t-115.5 49.5h-29v-796
h29z" />
    <glyph glyph-name="u0445" unicode="&#x445;" horiz-adv-x="765" 
d="M505 0q12 0 22 5q30 17 30 44q0 14 -219 459q219 445 219 460q0 28 -30 46q-10 5 -22 5q-31 0 -48 -29l-180 -361l-176 361q-17 29 -49 29q-12 0 -21 -5q-31 -14 -31 -46q0 -13 219 -460q-219 -445 -219 -459q0 -27 31 -44q9 -5 21 -5q32 0 49 29l176 361l180 -361
q17 -29 48 -29zM505 0q12 0 22 5q30 17 30 44q0 14 -219 459q219 445 219 460q0 28 -30 46q-10 5 -22 5q-31 0 -48 -29l-180 -361l-176 361q-17 29 -49 29q-12 0 -21 -5q-31 -14 -31 -46q0 -13 219 -460q-219 -445 -219 -459q0 -27 31 -44q9 -5 21 -5q32 0 49 29l176 361
l180 -361q17 -29 48 -29z" />
    <glyph glyph-name="u0446" unicode="&#x446;" horiz-adv-x="771" 
d="M600 -267q44 0 53 53v271q0 44 -53 53h-116v861q0 44 -53 53q-45 0 -54 -53v-861h-270v861q0 44 -54 53q-44 0 -53 -53v-914q0 -44 53 -54h494v-217q0 -44 53 -53zM600 -267q44 0 53 53v271q0 44 -53 53h-116v861q0 44 -53 53q-45 0 -54 -53v-861h-270v861q0 44 -54 53
q-44 0 -53 -53v-914q0 -44 53 -54h494v-217q0 -44 53 -53z" />
    <glyph glyph-name="u0447" unicode="&#x447;" horiz-adv-x="752" 
d="M491 0q44 0 53 53v915q0 21 -16 37t-37 16q-44 0 -53 -53v-361q0 -68 -48.5 -116.5t-117.5 -48.5q-68 0 -116.5 48.5t-48.5 116.5v361q0 21 -16 37t-38 16q-44 0 -53 -53v-361q0 -154 148 -242q58 -30 124 -30q73 0 108.5 25.5t46.5 51.5l11 26v-385q0 -44 53 -53z" />
    <glyph glyph-name="u0448" unicode="&#x448;" horiz-adv-x="911" 
d="M655 0q44 0 54 53l-1 915q0 44 -53 53q-45 0 -54 -53v-861h-194v861q0 44 -53 53q-44 0 -53 -53v-861h-194v861q0 44 -54 53q-44 0 -53 -53v-915q0 -44 53 -53h602zM655 0q44 0 54 53l-1 915q0 44 -53 53q-45 0 -54 -53v-861h-194v861q0 44 -53 53q-44 0 -53 -53v-861
h-194v861q0 44 -54 53q-44 0 -53 -53v-915q0 -44 53 -53h602z" />
    <glyph glyph-name="u0449" unicode="&#x449;" horiz-adv-x="988" 
d="M826 -267q44 0 53 53v271q0 44 -53 53h-118v861q0 44 -53 53q-44 0 -54 -53v-861h-194v861q0 44 -53 53q-44 0 -53 -53v-861h-194v861q0 44 -54 53q-44 0 -53 -53v-914q0 -44 53 -54h720v-217q0 -44 53 -53zM826 -267q44 0 53 53v271q0 44 -53 53h-118v861q0 44 -53 53
q-44 0 -54 -53v-861h-194v861q0 44 -53 53q-44 0 -53 -53v-861h-194v861q0 44 -54 53q-44 0 -53 -53v-914q0 -44 53 -54h720v-217q0 -44 53 -53z" />
    <glyph glyph-name="u044A" unicode="&#x44a;" horiz-adv-x="844" 
d="M375 0h-219q-44 0 -53 53v861h-120q-44 0 -53 54q0 44 53 53h174q27 -1 43 -24q9 -13 9 -416l15 26q14 26 50 52.5t101 26.5q109 0 192 -80q80 -83 80 -192v-142q0 -154 -148 -242q-59 -30 -124 -30zM375 107q68 0 116.5 48.5t48.5 116.5v142q0 66 -49.5 115.5
t-115.5 49.5q-69 0 -117.5 -48.5t-48.5 -116.5v-307h166z" />
    <glyph glyph-name="u044B" unicode="&#x44b;" horiz-adv-x="1020" 
d="M758 0q44 0 54 53v915q0 44 -54 53q-44 0 -53 -53v-915q0 -44 53 -53zM758 0q44 0 54 53v915q0 44 -54 53q-44 0 -53 -53v-915q0 -44 53 -53zM272 0h-219q-44 0 -53 53v915q0 44 53 53q44 0 54 -53v-387l14 26q14 26 49.5 52.5t101.5 26.5q109 0 193 -80q79 -83 79 -192
v-142q0 -154 -148 -242q-58 -30 -124 -30zM272 107q69 0 117.5 48.5t48.5 116.5v142q0 66 -49.5 115.5t-116.5 49.5q-68 0 -116.5 -48.5t-48.5 -116.5v-307h165z" />
    <glyph glyph-name="u044C" unicode="&#x44c;" horiz-adv-x="752" 
d="M272 0h-219q-44 0 -53 53v915q0 44 53 53q44 0 54 -53v-387l14 26q14 26 49.5 52.5t101.5 26.5q109 0 193 -80q79 -83 79 -192v-142q0 -154 -148 -242q-58 -30 -124 -30zM272 107q69 0 117.5 48.5t48.5 116.5v142q0 66 -49.5 115.5t-116.5 49.5q-68 0 -116.5 -48.5
t-48.5 -116.5v-307h165z" />
    <glyph glyph-name="u044D" unicode="&#x44d;" horiz-adv-x="675" 
d="M191 0q138 0 235 140q39 63 39 133v477q0 112 -81 191.5t-193 79.5h-137q-22 0 -38 -16t-16 -36v-6q12 -48 54 -48h137q68 0 117.5 -48.5t49.5 -116.5v-63h-234q-44 0 -54 -53q0 -44 54 -53h234v-308q0 -67 -49.5 -117t-117.5 -50q-152 0 -166 -7q-25 -20 -25 -43
q0 -56 54 -56h137zM191 0q138 0 235 140q39 63 39 133v477q0 112 -81 191.5t-193 79.5h-137q-22 0 -38 -16t-16 -36v-6q12 -48 54 -48h137q68 0 117.5 -48.5t49.5 -116.5v-63h-234q-44 0 -54 -53q0 -44 54 -53h234v-308q0 -67 -49.5 -117t-117.5 -50q-152 0 -166 -7
q-25 -20 -25 -43q0 -56 54 -56h137z" />
    <glyph glyph-name="u044E" unicode="&#x44e;" horiz-adv-x="1045" 
d="M576 0q-113 0 -192.5 80t-79.5 192v307h-197v-526q0 -44 -54 -53q-44 0 -53 53v915q0 44 53 53q44 0 54 -53v-282h197v63q0 112 79.5 192t192.5 80q109 0 193 -80q79 -83 79 -192v-477q0 -112 -79.5 -192t-192.5 -80zM576 107q68 0 117 48.5t49 116.5v477q0 66 -50 115.5
t-116 49.5q-68 0 -116.5 -48.5t-48.5 -116.5v-477q0 -68 48.5 -116.5t116.5 -48.5zM576 0q-113 0 -192.5 80t-79.5 192v307h-197v-526q0 -44 -54 -53q-44 0 -53 53v915q0 44 53 53q44 0 54 -53v-282h197v63q0 112 79.5 192t192.5 80q109 0 193 -80q79 -83 79 -192v-477
q0 -112 -79.5 -192t-192.5 -80zM576 107q68 0 117 48.5t49 116.5v477q0 66 -50 115.5t-116 49.5q-68 0 -116.5 -48.5t-48.5 -116.5v-477q0 -68 48.5 -116.5t116.5 -48.5z" />
    <glyph glyph-name="u044F" unicode="&#x44f;" 
d="M489 0q-44 0 -53 53v283h-184l-153 -305q-17 -31 -46 -31q-12 0 -24 7q-29 17 -29 45q0 16 148 311q-148 98 -148 244v143q0 66 29 124q65 123 203 145q20 2 257 2q22 0 39 -15.5t17 -37.5l-3 -915q0 -43 -53 -53zM437 443v472h-166q-68 0 -116.5 -48.5t-48.5 -116.5
v-142q1 -78 67 -133q45 -32 98 -32h166z" />
    <glyph glyph-name="u0451" unicode="&#x451;" horiz-adv-x="742" 
d="M459 0h-187q-147 0 -237 138q-35 60 -35 134v470q0 116 80 197.5t192 81.5q112 -1 192 -82t80 -190v-196q0 -92 -65 -157t-157 -65h-215v-59q0 -68 48.5 -116.5t116.5 -48.5q202 0 215 -9q25 -16 25 -45q0 -21 -16 -37t-37 -16zM302 437q56 0 96 40t40 95v177
q0 66 -49.5 115.5t-114.5 49.5h-3q-70 -2 -117 -50.5t-47 -118.5v-308h195zM459 0h-187q-147 0 -237 138q-35 60 -35 134v470q0 116 80 197.5t192 81.5q112 -1 192 -82t80 -190v-196q0 -92 -65 -157t-157 -65h-215v-59q0 -68 48.5 -116.5t116.5 -48.5q202 0 215 -9
q25 -16 25 -45q0 -21 -16 -37t-37 -16zM302 437q56 0 96 40t40 95v177q0 66 -49.5 115.5t-114.5 49.5h-3q-70 -2 -117 -50.5t-47 -118.5v-308h195zM132 1228q44 0 54 53v115q0 44 -54 54q-44 0 -53 -54v-115q0 -44 53 -53zM132 1228q44 0 54 53v115q0 44 -54 54
q-44 0 -53 -54v-115q0 -44 53 -53zM397 1228q44 0 54 53v115q0 44 -54 54q-44 0 -53 -54v-115q0 -44 53 -53zM397 1228q44 0 54 53v115q0 44 -54 54q-44 0 -53 -54v-115q0 -44 53 -53z" />
    <glyph glyph-name="endash" unicode="&#x2013;" horiz-adv-x="905" 
d="M735 470q44 0 53 53q0 44 -53 54h-682q-21 0 -37 -16t-16 -38q0 -44 53 -53h682zM735 470q44 0 53 53q0 44 -53 54h-682q-21 0 -37 -16t-16 -38q0 -44 53 -53h682z" />
    <glyph glyph-name="emdash" unicode="&#x2014;" horiz-adv-x="1055" 
d="M885 470q44 0 53 53q0 44 -53 54h-832q-21 0 -37 -16t-16 -38q0 -44 53 -53h832zM885 470q44 0 53 53q0 44 -53 54h-832q-21 0 -37 -16t-16 -38q0 -44 53 -53h832z" />
    <glyph glyph-name="quoteleft" unicode="&#x2018;" horiz-adv-x="396" 
d="M119 1550q-32 0 -49 -31l-65 -143q-5 -34 -5 -155q0 -43 53 -53q46 0 53 53v121q66 144 66 157q0 29 -32 47q-9 4 -21 4zM119 1550q-32 0 -49 -31l-65 -143q-5 -34 -5 -155q0 -43 53 -53q46 0 53 53v121q66 144 66 157q0 29 -32 47q-9 4 -21 4z" />
    <glyph glyph-name="quoteright" unicode="&#x2019;" horiz-adv-x="336" 
d="M-17 1058q32 0 49 31l65 143q5 34 5 155q0 44 -54 53q-45 0 -53 -53v-121q-65 -143 -65 -157q0 -29 31 -46q10 -5 22 -5zM-17 1058q32 0 49 31l65 143q5 34 5 155q0 44 -54 53q-45 0 -53 -53v-121q-65 -143 -65 -157q0 -29 31 -46q10 -5 22 -5z" />
    <glyph glyph-name="quotesinglbase" unicode="&#x201a;" horiz-adv-x="394" 
d="M50 -189q32 0 49 31l65 143q5 34 5 155q0 44 -54 53q-45 0 -53 -53v-121q-65 -144 -65 -157q0 -29 31 -46q10 -5 22 -5zM50 -189q32 0 49 31l65 143q5 34 5 155q0 44 -54 53q-45 0 -53 -53v-121q-65 -144 -65 -157q0 -29 31 -46q10 -5 22 -5z" />
    <glyph glyph-name="quotedblleft" unicode="&#x201c;" horiz-adv-x="726" 
d="M119 1550q-32 0 -49 -31l-65 -143q-5 -34 -5 -155q0 -43 53 -53q46 0 53 53v121q66 144 66 157q0 29 -32 47q-9 4 -21 4zM119 1550q-32 0 -49 -31l-65 -143q-5 -34 -5 -155q0 -43 53 -53q46 0 53 53v121q66 144 66 157q0 29 -32 47q-9 4 -21 4zM394 1550q-32 0 -49 -31
l-65 -143q-5 -34 -5 -155q0 -43 53 -53q46 0 53 53v121q66 144 66 157q0 29 -32 47q-9 4 -21 4zM394 1550q-32 0 -49 -31l-65 -143q-5 -34 -5 -155q0 -43 53 -53q46 0 53 53v121q66 144 66 157q0 29 -32 47q-9 4 -21 4z" />
    <glyph glyph-name="quotedblright" unicode="&#x201d;" horiz-adv-x="656" 
d="M-17 1058q32 0 49 31l65 143q5 34 5 155q0 44 -54 53q-45 0 -53 -53v-121q-65 -143 -65 -157q0 -29 31 -46q10 -5 22 -5zM-17 1058q32 0 49 31l65 143q5 34 5 155q0 44 -54 53q-45 0 -53 -53v-121q-65 -143 -65 -157q0 -29 31 -46q10 -5 22 -5zM259 1058q32 0 49 31
l65 143q5 34 5 155q0 44 -54 53q-45 0 -53 -53v-121q-65 -143 -65 -157q0 -29 31 -46q10 -5 22 -5zM259 1058q32 0 49 31l65 143q5 34 5 155q0 44 -54 53q-45 0 -53 -53v-121q-65 -143 -65 -157q0 -29 31 -46q10 -5 22 -5z" />
    <glyph glyph-name="quotedblbase" unicode="&#x201e;" horiz-adv-x="656" 
d="M-1 -194q32 0 49 31l65 143q5 34 5 155q0 44 -54 53q-45 0 -53 -53v-121q-65 -143 -65 -157q0 -29 31 -46q10 -5 22 -5zM-1 -194q32 0 49 31l65 143q5 34 5 155q0 44 -54 53q-45 0 -53 -53v-121q-65 -143 -65 -157q0 -29 31 -46q10 -5 22 -5zM275 -194q32 0 49 31l65 143
q5 34 5 155q0 44 -54 53q-45 0 -53 -53v-121q-65 -143 -65 -157q0 -29 31 -46q10 -5 22 -5zM275 -194q32 0 49 31l65 143q5 34 5 155q0 44 -54 53q-45 0 -53 -53v-121q-65 -143 -65 -157q0 -29 31 -46q10 -5 22 -5z" />
    <glyph glyph-name="ellipsis" unicode="&#x2026;" horiz-adv-x="1175" 
d="M53 0q44 0 54 53v116q0 44 -54 53q-44 0 -53 -53v-116q0 -44 53 -53zM53 0q44 0 54 53v116q0 44 -54 53q-44 0 -53 -53v-116q0 -44 53 -53zM403 0q44 0 54 53v116q0 44 -54 53q-44 0 -53 -53v-116q0 -44 53 -53zM403 0q44 0 54 53v116q0 44 -54 53q-44 0 -53 -53v-116
q0 -44 53 -53zM749 0q44 0 54 53v116q0 44 -54 53q-44 0 -53 -53v-116q0 -44 53 -53zM749 0q44 0 54 53v116q0 44 -54 53q-44 0 -53 -53v-116q0 -44 53 -53z" />
    <glyph glyph-name="guilsinglleft" unicode="&#x2039;" horiz-adv-x="689" 
d="M423 237q27 0 44 22q9 14 9 29q0 31 -23 46l-288 198l288 196q23 15 23 46q0 15 -9 29q-17 24 -44 24q-16 0 -31 -9l-380 -262q-12 -9 -12 -24q0 -17 12 -26l380 -259q15 -10 31 -10zM423 237q27 0 44 22q9 14 9 29q0 31 -23 46l-288 198l288 196q23 15 23 46q0 15 -9 29
q-17 24 -44 24q-16 0 -31 -9l-380 -262q-12 -9 -12 -24q0 -17 12 -26l380 -259q15 -10 31 -10z" />
    <glyph glyph-name="guilsinglright" unicode="&#x203a;" horiz-adv-x="689" 
d="M52 237q17 0 32 10l380 259q12 9 12 26q0 15 -12 24l-380 262q-15 9 -32 9q-26 0 -43 -24q-9 -14 -9 -29q0 -31 23 -46l288 -196l-288 -198q-23 -15 -23 -46q0 -15 9 -29q17 -22 43 -22zM52 237q17 0 32 10l380 259q12 9 12 26q0 15 -12 24l-380 262q-15 9 -32 9
q-26 0 -43 -24q-9 -14 -9 -29q0 -31 23 -46l288 -196l-288 -198q-23 -15 -23 -46q0 -15 9 -29q17 -22 43 -22z" />
    <glyph glyph-name="u2116" unicode="&#x2116;" horiz-adv-x="1399" 
d="M530 0q47 0 53 48v1331q0 46 -53 54q-44 0 -53 -54v-1021l-54 153l-317 876q-20 46 -37 46h-18q-36 0 -46 -34q-5 -10 -5 -1346q0 -43 53 -53q44 0 53 53v1017l371 -1026q16 -44 53 -44zM975 913q-127 0 -196 76t-69 184q0 106 68.5 182.5t196.5 76.5q104 0 171.5 -73.5
t67.5 -185.5q0 -107 -68 -183.5t-171 -76.5zM975 1020q62 0 97 45t35 108q0 68 -36.5 110.5t-95.5 42.5h-25q-63 0 -98 -45.5t-35 -107.5q0 -69 36.5 -111t96.5 -42h25zM975 913q-127 0 -196 76t-69 184q0 106 68.5 182.5t196.5 76.5q104 0 171.5 -73.5t67.5 -185.5
q0 -107 -68 -183.5t-171 -76.5zM975 1020q62 0 97 45t35 108q0 68 -36.5 110.5t-95.5 42.5h-25q-63 0 -98 -45.5t-35 -107.5q0 -69 36.5 -111t96.5 -42h25zM1177 706q44 0 53 53q0 44 -53 54h-412q-21 0 -37 -16t-16 -38q0 -44 53 -53h412zM1177 706q44 0 53 53q0 44 -53 54
h-412q-21 0 -37 -16t-16 -38q0 -44 53 -53h412z" />
    <glyph glyph-name="minus" unicode="&#x2212;" horiz-adv-x="795" 
d="M535 657q44 0 53 53q0 44 -53 54h-482q-21 0 -37 -16t-16 -38q0 -44 53 -53h482zM535 657q44 0 53 53q0 44 -53 54h-482q-21 0 -37 -16t-16 -38q0 -44 53 -53h482z" />
  </font>
</defs>
</svg>
