<?xml version="1.0" standalone="no"?>
<!DOCTYPE svg PUBLIC "-//W3C//DTD SVG 1.1//EN" "http://www.w3.org/Graphics/SVG/1.1/DTD/svg11.dtd" >
<svg xmlns="http://www.w3.org/2000/svg" xmlns:xlink="http://www.w3.org/1999/xlink" version="1.1">
<metadata>
Created by FontForge 20201107 at Fri Oct 23 23:24:33 2020
 By 
Copyright (c) 2020 by Vunira Design. All rights reserved.
</metadata>
<defs>
<font id="Ouvality" horiz-adv-x="341" >
  <font-face 
    font-family="Ouvality"
    font-weight="400"
    font-stretch="normal"
    units-per-em="1024"
    panose-1="2 0 5 4 0 0 0 2 0 4"
    ascent="819"
    descent="-205"
    x-height="309"
    cap-height="677"
    bbox="-2197 -494.167 1492.12 876.875"
    underline-thickness="50"
    underline-position="-100"
    unicode-range="U+001D-E4F8"
  />
<missing-glyph horiz-adv-x="219" 
 />
    <glyph glyph-name="t_h" unicode="th" horiz-adv-x="645" 
d="M748 235l6 3t4 -5q0 -10 -3.5 -15t-4.5 -6q-33 -35 -70.5 -76.5t-74 -77.5t-69 -60t-55.5 -24q-18 0 -29 17t-11 39q0 19 16 51t36 64.5t38 58t23 32.5q16 22 16 29q0 3 -3 3q-11 0 -33.5 -15t-50.5 -39t-59.5 -53.5t-61.5 -59t-55 -55.5t-41 -43q-14 -21 -21 -32.5
t-10.5 -16.5t-5 -6t-3.5 -1q-5 -1 -11.5 4t-13.5 20q-3 6 3 22q12 30 38.5 77.5t62.5 104.5t77.5 119t82.5 121q-22 -2 -45 -3.5t-46 -3.5q-14 -18 -33.5 -46t-51 -75t-78.5 -117.5t-116 -174.5q-17 -27 -26 -41.5t-13.5 -21t-6 -7.5t-3.5 -1q-11 -2 -25 24q-3 8 4 23
q14 37 48 96q19 58 26.5 104t7 81.5t-6.5 61t-14 42.5q-11 1 -19 6t-13.5 12t-8.5 14.5t-3 13.5q0 11 7 10q20 4 55 8q30 4 80 8t128 8q25 36 48 67t40.5 55t29 39t15.5 18q9 9 14 9t11 -6t11 -14t8 -17.5t3 -15.5q0 -2 -5 -10t-13 -19q-30 -42 -46.5 -63.5t-29.5 -39.5
q20 1 41 1.5t44 1.5q33 48 63.5 90t54.5 74.5t39.5 52.5t20.5 24q10 8 13 8q6 0 11.5 -6t10.5 -14t8 -17t3 -16q0 -2 -4.5 -9.5t-12.5 -19.5q-23 -32 -39 -53t-29.5 -38.5t-26.5 -34.5t-30 -39q12 0 24.5 0.5t26.5 0.5q3 0 6 0.5t6 -0.5q8 0 14.5 -8.5t6.5 -13.5t-5 -5
q-2 1 -4 1h-4.5t-5.5 1h-35t-48 -1q-15 -20 -34 -47t-44 -63.5t-56.5 -83.5t-71.5 -108q28 27 63.5 59.5t70 60.5t63.5 47t44 19q17 0 34.5 -20.5t17.5 -55.5q0 -6 -10.5 -22.5t-26.5 -38.5t-34.5 -46.5t-34.5 -47.5t-26.5 -42t-10.5 -28q0 -2 3 -2q14 0 36.5 18t53.5 50
t72 74.5t92 92.5zM120 146q37 60 80.5 125.5t85.5 126.5q-49 -7 -93 -16t-76 -21q-1 -1 -3 -1q-2 -1 -4 -1t-4 -1q23 -47 24.5 -98.5t-10.5 -113.5z" />
    <glyph glyph-name="o_x" unicode="ox" horiz-adv-x="664" 
d="M761 235q2 2 5.5 3.5t3.5 -5.5q0 -10 -3.5 -15t-4.5 -6q-21 -23 -53.5 -59t-68 -70.5t-70.5 -59.5t-62 -25q-32 0 -48.5 28t-24.5 76q-27 -19 -51.5 -37t-43 -34.5t-29.5 -30.5t-11 -26q0 -5 -5 -5q-4 0 -5 1q-14 8 -23 18.5t-9 22.5q0 13 14 31t38 38t55 42t64 44
q-2 21 -2 44v47q0 4 -2 4q-53 -63 -106 -95t-94 -45q-23 -32 -50 -62.5t-53.5 -54.5t-50.5 -39t-42 -15q-20 0 -33.5 23.5t-13.5 50.5q0 22 12 52t28 58.5t31.5 49t21.5 23.5q7 24 25 45t41 37.5t47.5 26t42.5 9.5q7 0 18.5 -4.5t22.5 -12t19 -17.5t8 -22q0 -20 -15 -51.5
t-39 -67.5q42 14 78.5 41t68.5 65q19 23 34.5 40t26.5 17t19 -8t13.5 -22t9 -32t5.5 -39q45 29 81.5 54t54.5 44l14 14t17 9q4 0 8.5 -4.5t8.5 -11t7 -14t3 -13.5q0 -9 -16 -24t-43 -33.5t-61 -40.5t-70 -45q1 -21 2 -40.5t2.5 -34.5t3.5 -23.5t7 -8.5q24 0 51 16t56.5 43
t63 62.5t71.5 73.5zM266 282q-12 0 -30 -8.5t-38 -21.5t-38 -29.5t-30 -32.5q4 -5 4 -11t-16 -30q3 -8 13.5 -11.5t21.5 -3.5q15 0 30 2t29 5q27 42 44.5 78.5t17.5 55.5q0 7 -8 7zM32 -16q18 0 38 10.5t41 28.5t41.5 41t39.5 48q-14 -3 -23 -4t-12 -1q-16 0 -30 5.5
t-25 14.5q-12 -17 -25 -36.5t-24 -38.5t-18 -36t-7 -29q0 -3 4 -3z" />
    <glyph glyph-name="v_e" unicode="ve" horiz-adv-x="653" 
d="M765 235q2 1 5.5 3t3.5 -5q0 -10 -3 -15t-5 -6q-8 -8 -26 -29t-44.5 -47.5t-58.5 -55t-67 -52t-71.5 -39t-70.5 -15.5q-36 0 -55.5 19.5t-19.5 52.5q0 29 12.5 61t33.5 63q-22 13 -37.5 29t-23.5 33q-21 -23 -49 -51.5t-58.5 -58t-61.5 -57.5t-58.5 -49.5t-50 -34.5
t-34.5 -13q-13 0 -29 13.5t-16 49.5q0 12 9 32t23.5 43.5t32 48.5t34.5 48q13 19 29.5 40t31 38t26 28t15.5 11q6 0 11.5 -6t10.5 -14t8 -17t3 -16q0 -3 -13 -21.5t-33 -44.5t-43 -56.5t-43 -58.5t-33 -50t-13 -31q0 -2 2 -2q9 0 33 16t54.5 41.5t65.5 57t67 62.5
q23 21 40.5 39.5t30.5 33.5q-2 10 -2 15q0 19 10 29t24 10q11 0 16 -5.5t5 -12.5q0 -5 -27 -37q6 -18 21 -33.5t37 -26.5q18 24 39 44.5t43.5 36.5t45 25t42.5 9q8 0 20.5 -2.5t24.5 -9t20.5 -17t8.5 -26.5q0 -17 -9.5 -37t-27.5 -37t-44.5 -28.5t-60.5 -11.5
q-13 0 -24.5 1.5t-22.5 3.5q-26 -35 -43 -69t-17 -59q0 -5 3 -7.5t18 -2.5q52 0 99 24.5t89 60.5t79 75.5t68 69.5zM354 286q-1 -2 -1 -3.5t-1 -3.5q9 10 9 13q-3 0 -7 -6zM620 269q-11 0 -25.5 -7.5t-31 -20t-34.5 -30t-35 -37.5h7q31 0 55 10.5t40.5 24.5t25.5 28t9 22
q0 10 -11 10z" />
    <glyph glyph-name="z_y" unicode="zy" horiz-adv-x="682" 
d="M662 309q5 0 11 -6t11 -14t8 -17.5t3 -15.5q0 -4 -16 -26.5t-39 -54.5l-465 -635q-4 -5 -11 -4q-10 3 -16 11t-9 17.5t-3 18.5t3 13q5 8 25 37t50.5 72.5t68 97.5t78.5 111.5t82.5 115t78.5 107.5q-32 -33 -61.5 -63t-55.5 -52t-47 -35t-35 -13q-12 0 -28 13.5t-16 49.5
q0 11 7 29t19 39q-54 -43 -110.5 -83.5t-113.5 -78.5q11 -45 5 -92t-25 -92q-24 -57 -65.5 -101t-91 -74t-104.5 -45.5t-106 -15.5q-20 0 -36 6t-27 15.5t-16.5 20.5t-5.5 21q0 36 35 75t94.5 83t138 93t165.5 105q-3 21 -9.5 37t-14.5 27q-6 5 -10.5 11t-5.5 13q1 14 14 24
q31 25 69 59.5t71 66.5t55.5 56t22.5 27v1h-2q-3 0 -12 -0.5t-17 -0.5q-5 0 -11 0.5t-12 1.5q-8 -7 -20.5 -18t-27.5 -24t-30.5 -27t-29.5 -27q-2 -2 -4.5 -1t-2.5 9q0 5 3.5 9t3.5 5q23 23 40.5 43t34.5 36h10q-12 4 -20 11.5t-8 19.5q0 7 6 7q3 0 5 -2q5 -3 17.5 -4
t29.5 -1q18 0 37.5 0.5t35.5 2.5q18 1 37 3q11 0 20.5 -10.5t9.5 -27.5q0 -8 -2.5 -14.5t-5.5 -10.5q-8 -11 -26.5 -31t-43 -45t-52.5 -52t-54.5 -51.5t-48 -43.5t-33.5 -28q5 -8 8 -14.5t6 -14.5q64 42 129 88t128 98q9 14 18.5 27t18.5 26q13 19 29.5 40t31 38t26 28
t15.5 11q6 0 11.5 -6t10.5 -14t8 -17t3 -16q0 -3 -12.5 -21t-31.5 -43.5t-41 -55.5t-41 -57t-31.5 -48.5t-12.5 -30.5q0 -2 2 -2q10 0 31.5 15.5t49 40.5t58.5 55.5t60.5 60.5t54.5 55.5t40 40.5q27 32 32 32zM2 -218q23 42 32 75.5t10 59.5q-82 -56 -157 -105.5t-132 -92
t-90.5 -77t-33.5 -60.5q0 -11 12 -11q40 0 90.5 13t100.5 39t94.5 66t73.5 93z" />
    <glyph glyph-name="o_g" unicode="og" horiz-adv-x="646" 
d="M657 -248q9 -1 12 -12t3 -25q0 -20 -2.5 -27.5t-10.5 -7.5q-40 14 -91 29q-44 13 -106 27.5t-140 27.5q-38 -51 -71 -97t-59 -81q-30 -41 -55 -76q-4 -5 -11 -4q-9 3 -15 10.5t-10 16.5q-4 5 -24 34.5t-56 69t-89.5 81t-124.5 71.5q-72 -5 -142.5 -12.5t-126 -15t-90 -13
l-34.5 -5.5q-18 0 -32 7t-14 26q0 28 21 45.5t51.5 27t65.5 12.5t63 3q60 0 114.5 -11t103.5 -30q57 4 120 6.5t133 2.5q69 0 128 -2.5t111 -6.5q38 55 83 117t95 131q-20 -19 -39 -36.5t-36.5 -31t-31 -21.5t-22.5 -8q-6 0 -16.5 3.5t-21 12.5t-18 24t-7.5 39q0 22 13 49
t35 56q-21 -10 -43.5 -19t-42.5 -16q-24 -32 -51 -63t-53.5 -55.5t-50.5 -39.5t-42 -15q-21 0 -34.5 23.5t-13.5 50.5q0 22 12.5 52t28.5 58.5t31.5 49t21.5 23.5q7 24 25 45t41 37.5t47 26t42 9.5q7 0 19 -4.5t23 -12t19 -17.5t8 -22q0 -19 -14.5 -50t-37.5 -66
q29 10 55 23t47 26q19 20 39 37.5t40 30.5t38 20.5t33 7.5q32 0 52.5 -21.5t20.5 -47.5v-2q23 26 30 26q6 0 11.5 -6t10.5 -14t8 -17.5t3 -15.5t-24 -38q-38 -53 -80 -110q-36 -49 -81 -111t-91 -125q78 -9 133 -20t91 -21t53.5 -16.5t19.5 -6.5zM267 282q-12 0 -30 -8.5
t-38 -21.5t-38 -29.5t-30 -32.5q2 -3 3 -5.5t1 -5.5t-4.5 -11t-12.5 -19q4 -8 14.5 -11.5t20.5 -3.5q28 0 60 8q27 42 44 78.5t17 54.5q0 7 -7 7zM32 -16q18 0 38.5 10.5t41.5 28.5t41.5 41t39.5 49q-21 -6 -35 -6q-17 0 -30.5 5.5t-24.5 14.5q-12 -17 -25 -36.5t-24 -38.5
t-18 -36t-7 -29q0 -3 3 -3zM322 4q12 0 32 12.5t44.5 32.5t51.5 46.5t53 53.5q-5 3 -8.5 7t-3.5 9q0 3 8.5 11t18.5 18.5t18.5 23t8.5 25.5q0 10 -11 10q-9 0 -29 -13t-44.5 -34.5t-50 -48t-47 -53.5t-35 -51t-13.5 -41q0 -8 7 -8zM-586 -228q34 8 80 16q39 7 95.5 14.5
t128.5 14.5q-61 14 -126 14q-40 0 -75 -4.5t-61 -11.5t-41 -15.5t-15 -16.5q0 -11 14 -11zM104 -430q10 14 46.5 68t95.5 137q-67 9 -141.5 14.5t-156.5 5.5q-44 0 -92 -3q49 -26 90 -56.5t72.5 -60.5t53 -57.5t32.5 -47.5z" />
    <glyph glyph-name="i_t" unicode="it" horiz-adv-x="370" 
d="M785 438q18 -5 26.5 -17t10 -23.5t-4 -18t-16.5 1.5q-12 9 -48.5 11.5t-85.5 1t-105.5 -6t-108.5 -10.5q-15 -21 -36 -51t-51.5 -75.5t-72 -108t-97.5 -147.5q-18 -27 -27 -41.5t-13 -21t-5.5 -7.5t-3.5 -1q-5 -1 -11.5 4.5t-13.5 19.5q-3 7 3 23q11 26 31 64t47 83l1 1
q-24 -23 -49.5 -45t-50.5 -39.5t-47 -28.5t-38 -11q-17 0 -28 17t-11 39q0 13 10 36.5t26 51t35 55.5t37 51.5t32 38t20 14.5t11.5 -6t10.5 -14t8 -17t3 -16q0 -3 -10.5 -18.5t-26.5 -37t-34.5 -47t-34.5 -49t-26.5 -42t-10.5 -27.5q0 -3 2 -3q12 0 32.5 11.5t45.5 30.5
t52 43t53 49q8 31 11 57t1 50.5t-8.5 49.5t-16.5 55q-25 13 -28 44q-1 2 -0.5 3.5t0.5 3.5q0 9 10 6q8 -2 12.5 -5.5t10.5 -7t16 -5.5t29 0q41 4 78 7t71 6q27 39 51.5 73.5t44 60.5t32.5 42.5t17 19.5q9 9 13 9q6 0 11.5 -6t10.5 -14t8 -17.5t3 -15.5q0 -2 -4.5 -10
t-12.5 -19q-18 -24 -30.5 -41t-22 -30t-17.5 -23t-16 -21q115 11 187.5 15t108.5 -4zM246 187q29 45 59.5 90.5t60.5 90.5q-42 -5 -68 -8.5t-28 -3.5q-11 0 -22 0.5t-22 2.5q15 -41 19.5 -83t-3.5 -93q1 1 2 1.5t2 2.5z" />
    <glyph glyph-name="uni0410_uni0431" unicode="&#x410;&#x431;" horiz-adv-x="1115" 
d="M1012 612q0 -7 -5 -12q-22 -25 -49.5 -56t-61.5 -71.5t-74.5 -91t-86.5 -114.5q8 1 14 1t11 1q5 0 9 1q5 0 13 -3.5t16 -8t13.5 -10.5t5.5 -10t-7 -4h-1q-14 1 -17.5 2.5t-11.5 1.5q-8 -1 -19 -2q-9 -1 -22 -2t-30 -3q-2 -2 -2.5 -3.5t-2.5 -3.5q-50 -73 -81.5 -123
t-50 -83t-27.5 -53.5t-13.5 -36t-8 -30t-11.5 -35.5q-2 -3 -6.5 -7t-9.5 -4t-9 7.5t-7 18t-4.5 22t-1.5 18.5q0 33 12.5 68.5t32.5 72t44.5 74t47.5 74.5q2 4 5 7.5t5 7.5q-45 -5 -97 -9.5t-106 -8.5t-106 -6.5t-97 -3.5q-87 -76 -136.5 -140.5t-49.5 -106.5q-2 -14 -16 -14
q-11 0 -22 13t-11 33q0 19 12.5 43.5t35.5 51.5t55 57t70 62q-20 0 -47 1.5t-52 6t-42.5 13t-17.5 23.5q0 7 3.5 12.5t9.5 5.5q2 0 7 -3q14 -11 58 -15t104 -4h27q67 52 144 104.5t154 100.5t149.5 90.5t130 73.5t96 49t47.5 18q3 0 4 -1q1 -2 2 -2.5t2 -2.5q5 2 10.5 4
t12.5 2q14 0 24.5 -7.5t18 -17t11 -19t3.5 -13.5zM262 234q47 2 98 5t102 6.5t98.5 7t87.5 6.5q42 60 85 117.5t80 106t66 84.5t43 54q-95 -38 -186 -84t-175.5 -96.5t-160 -103t-138.5 -103.5zM1082 143q27 41 44 77.5t17 55.5q0 7 -8 7q-12 0 -30 -8.5t-38 -21.5t-38 -30
t-30 -33q4 -4 4 -10t-16 -30l-16 -23q-12 -17 -25 -36.5t-24 -38t-18 -36t-7 -29.5q0 -3 4 -3q18 0 38.5 10.5t41.5 28.5t41.5 41.5t38.5 48.5zM1119 321l8 -4l-16 6zM1154 219q-15 -31 -48.5 -79.5t-60.5 -79.5t-54 -55t-51 -39t-42 -15q-20 0 -33.5 23.5t-13.5 50.5
q0 21 12 51.5t28 59t31.5 49t21.5 23.5q7 23 25 44.5t41 37.5t47.5 25.5t42.5 9.5q4 0 11 -2l16 -6q2 -2 4 -3q0 1 -1 3h1l-7 17q-21 53 -40 106t-27 104.5t-1 99.5q3 26 15 51t21 38q20 28 41.5 41t43.5 16h7q10 2 21 3q23 1 37.5 -1.5t29.5 -8t34 -14t51 -18.5
q22 -7 38 -5.5t28.5 8t22.5 15t21 16.5q7 5 14 3t10 -10q3 -12 -2 -20q-28 -41 -48.5 -63.5t-45 -28.5t-60 2.5t-93.5 30.5q-37 14 -59 14.5t-38 -6t-29 -23.5t-17 -45q-7 -44 -2 -92.5t17.5 -97t27.5 -92.5q34 -97 12 -138z" />
    <glyph glyph-name=".notdef" horiz-adv-x="219" 
 />
    <glyph glyph-name=".null" horiz-adv-x="0" 
 />
    <glyph glyph-name=".null" horiz-adv-x="0" 
 />
    <glyph glyph-name="nonmarkingreturn" horiz-adv-x="219" 
 />
    <glyph glyph-name="space" unicode=" " horiz-adv-x="219" 
 />
    <glyph glyph-name="exclam" unicode="!" horiz-adv-x="254" 
d="M12 -56q14 5 28 4.5t23 -17.5q4 -8 2.5 -17.5t-8 -18.5t-17 -16t-24.5 -8q-18 -2 -26.5 7t-9 21.5t7.5 25.5t24 19zM585 762q2 -12 -1 -22t-9 -21q-10 -17 -34.5 -55t-58 -89.5t-73 -112t-80 -122.5t-78.5 -120t-68.5 -105t-50 -77.5t-23.5 -37.5q-4 -6 -13 -8t-14 3
q-14 12 -21.5 32t3.5 35q4 5 26 38.5t55.5 84t74.5 114t84 128.5t83.5 127t72.5 110.5t51.5 79t20.5 31.5q7 10 7 19q0 7 6.5 6.5t14.5 -5.5t15.5 -14t9.5 -19z" />
    <glyph glyph-name="quotedbl" unicode="&#x22;" horiz-adv-x="304" 
d="M212 427q3 7 12 2.5t16.5 -16t10 -28.5t-7.5 -35q-11 -18 -19.5 -34t-15.5 -27q-8 -14 -15 -25q-5 -10 -14.5 -5.5t-17.5 15.5t-11.5 25.5t2.5 25.5zM317 427q3 7 12 2.5t16.5 -16t10 -28.5t-7.5 -35q-11 -18 -20 -34t-16 -27q-8 -14 -14 -25q-5 -10 -14.5 -5.5t-18 15.5
t-12 25.5t3.5 25.5z" />
    <glyph glyph-name="numbersign" unicode="#" horiz-adv-x="619" 
d="M594 380q13 -8 21 -21t5 -30q-2 -11 -7.5 -20t-11.5 -18q-5 -8 -14.5 -22t-23.5 -33q1 0 1 0.5t1 0.5h1q3 -2 6.5 -2t6.5 -2q6 -4 13.5 -13.5t2.5 -14.5q-4 -4 -8 -2q-8 4 -16.5 2t-16.5 -2q-1 0 -5 -0.5t-11 -1.5q-18 -25 -39 -52.5t-42 -55.5q30 2 48.5 3t20.5 1
q8 2 16 -5.5t13 -13.5q2 -2 4 -6q2 -13 -10 -10q-15 4 -46 2.5t-71 -4.5q-23 -30 -43.5 -57.5t-37.5 -49t-28.5 -35.5t-14.5 -17q-2 -2 -2 -3t-1 -3q-2 -7 -7.5 -8.5t-12 3t-12.5 14t-7 23.5q0 9 6 17q1 0 23 30.5t56 77.5l-62 -6t-60 -5q-27 -36 -48.5 -63t-35.5 -45
q-17 -21 -29 -35q-5 -9 -13 -6t-14 11.5t-8.5 19.5t2.5 19q2 2 20 28.5t46 68.5q-13 0 -24.5 1t-19.5 3q-14 4 -20.5 11.5t-8.5 13.5q-3 9 7 10q6 1 12 0l12 -2t24 -0.5t44 1.5q17 26 35.5 53t37.5 54q-17 2 -32 3.5t-26 4.5q-9 2 -16.5 7t-12.5 14q0 2 -2 4q-2 11 0.5 14
t11.5 1q42 -7 103 -9q23 35 44 66.5l37 55.5t26 38.5t10 16.5q4 10 13 4q28 -17 31.5 -37.5t-3.5 -30.5q-20 -31 -38 -58.5t-36 -53.5q32 1 63.5 2.5t57.5 3.5q21 30 40 56.5t33.5 46.5t23 32.5t9.5 13.5q3 5 9 1zM377 88q18 25 37 51.5t38 52.5q-28 -2 -58.5 -4t-61.5 -3
q-20 -29 -38 -55t-35 -49q29 2 59 3.5t59 3.5z" />
    <glyph glyph-name="dollar" unicode="$" horiz-adv-x="470" 
d="M729 800q6 -14 -4 -27q-1 -1 -12.5 -17t-32.5 -44q13 -16 18.5 -33.5t0.5 -40.5q-8 -32 -25.5 -66t-40.5 -67t-50.5 -62t-54.5 -51q-7 -5 -17.5 -2.5t-11.5 14.5q0 5 3 8q47 39 83.5 81.5t59.5 81.5t30.5 70.5t-3.5 48.5q0 1 -3 4q-24 -33 -56.5 -76.5t-70.5 -94.5
t-79.5 -107.5t-83.5 -114.5q2 -34 0 -74.5t-14 -86.5t-36.5 -97t-66.5 -105q-5 -6 -13 -13t-17 -13.5t-18 -12t-15 -8.5q-2 -1 -12.5 -3.5t-25 -3t-32 3.5t-34.5 15q-30 -45 -48.5 -74.5t-21.5 -40.5q-1 -5 -4.5 -5.5t-7.5 1.5q-13 9 -13 22.5t8 18.5q1 1 3 5q8 14 23.5 38
t37.5 56q-1 2 -2 2.5t-2 2.5q-17 19 -27 47.5t-1 51.5q25 62 64.5 112t101.5 79q7 4 13 0q10 -5 14.5 -13.5t-7.5 -10.5q-7 -2 -9 -3.5t-6 -3.5q-25 -5 -51.5 -29.5t-48.5 -56.5t-35.5 -65t-12.5 -56q1 -14 6 -18t12 -8q6 -2 10 -2q48 70 112.5 162t134.5 190v10
q-2 35 -8.5 69t-3.5 72.5t23.5 83t73.5 100.5q31 33 56 53.5t44.5 31.5t33.5 16.5t23 8.5q20 8 36.5 2.5t33.5 -17.5q2 -1 4 -3q20 25 34.5 42t22.5 25q6 6 10 5t8 -8zM318 179q2 6 5.5 23t7.5 38q-57 -79 -110.5 -153.5t-95.5 -135.5q17 -1 29 2t20 8q28 17 51.5 43.5
t42 57t31.5 61.5t19 56zM373 357q73 102 141 194.5t119 157.5q-4 0 -7 -0.5t-7 -1.5q-31 -14 -73.5 -46.5t-81.5 -73t-67 -84t-30 -80.5q-1 -12 1 -28.5t5 -37.5z" />
    <glyph glyph-name="percent" unicode="%" horiz-adv-x="395" 
d="M357 553q-15 -6 -26 -2.5t-19 12.5t-11.5 20.5t-3.5 22.5q-1 13 10.5 36t29.5 46t38 41.5t37 24.5q11 4 20.5 -1t14.5 -15v-4q6 -2 12.5 -5t10.5 -6q18 -12 12 -33q-5 -16 -19 -37t-32.5 -41.5t-38.5 -36.5t-35 -22zM435 715q-15 -15 -32 -35t-30.5 -39t-21.5 -32.5
t-5 -16.5t15.5 4.5t29 20.5t32.5 29.5t26.5 32t11 26.5t-14.5 14q-3 0 -5 2zM612 756q13 -6 18.5 -14.5t6 -17.5t-2 -16.5t-5.5 -11.5q-1 -1 -27 -34.5t-68 -87.5t-95.5 -123t-109 -141t-109 -141.5t-96 -124.5t-69 -90.5t-27.5 -39.5q-4 -7 -13 -6q-19 5 -25 22l-4 10
l-4 10q-2 7 -1.5 10.5t2 5.5t4 4.5t6.5 7.5q27 40 67.5 94.5t88.5 117t100 128t102 128.5q117 147 249 308q4 6 12 2zM308 84q17 -13 11 -33q-5 -16 -19 -37t-32.5 -41.5t-38.5 -37t-35 -22.5t-26 -2t-19 12.5t-11.5 20.5t-3.5 23q-1 13 10.5 36t29.5 46t38 41.5t37 24.5
q12 4 21.5 -1t13.5 -15v-4q6 -2 12.5 -5t11.5 -6zM183 -48q3 -3 15.5 4.5t29 21t32.5 30t26.5 31.5t11 26t-14.5 14q-4 2 -5 3l-6 -6q-15 -15 -32 -35t-30.5 -39t-21.5 -33t-5 -17z" />
    <glyph glyph-name="ampersand" unicode="&#x26;" horiz-adv-x="694" 
d="M735 329q6 1 14.5 -3.5t14.5 -11t7.5 -13t-6.5 -7.5q-6 -1 -12.5 -1.5t-12.5 -1.5q-40 -3 -67.5 -5.5t-47.5 -4.5q0 -3 0.5 -4.5t0.5 -3.5q-1 -8 -9 -16q-1 -1 -10.5 -14t-23 -32t-29.5 -41t-29.5 -41t-22.5 -32t-10 -14q-7 -10 -18 -27t-23 -37t-23 -40.5t-16.5 -37.5
t-4.5 -27.5t13 -10.5q6 0 12.5 0.5t12.5 1.5q10 2 5.5 -5t-12.5 -12q-27 -14 -43 -8t-24 20t-10 31.5t0 27.5q6 48 33 92q7 11 13.5 21.5t13.5 21.5q-50 -52 -87 -86.5t-64 -52.5q-39 -26 -72 -27t-56 17t-34 51.5t-5 76.5t32 92.5t76 99.5q18 18 49 41.5t68.5 45.5t78 38
t76.5 18q5 0 6 2q0 2 -3 5q-21 26 -29 51t3 56q7 21 26.5 49t45.5 56t57 54t61.5 43.5t59 23.5t49.5 -5q4 -2 11.5 -5.5t15 -9.5t13 -15t6.5 -21q2 -33 -13.5 -71.5t-37.5 -74t-44.5 -63.5t-34.5 -40q-7 -6 -19 -5.5t-18 11.5q-1 2 -1.5 5t-1.5 5q-1 3 2 6q9 6 33 32
t48 61.5t41.5 74t12.5 70.5q-1 5 -7 4q-44 -17 -87.5 -48t-80 -67t-62 -70.5t-33.5 -56.5q-10 -25 8 -49q3 -4 6 -6l6 -4t5.5 -6t4.5 -11q3 -10 -8 -17t-20 -10q-84 -32 -154 -79.5t-118 -101t-69.5 -107.5t-9.5 -99q3 -8 12 -10q37 -8 69 8q42 22 78 49t67 55.5t58.5 58.5
t51.5 58q17 24 31 42.5t28 35.5q-12 -2 -26 -2h-34q-14 0 -23.5 6t-14.5 13.5t-4.5 13.5t7.5 6q3 0 15 0.5t30 1.5t41 2.5t47 3.5q3 3 4 5q6 4 10 2q2 -1 6 -5q25 2 48 3.5t41 3t29 2.5z" />
    <glyph glyph-name="quotesingle" unicode="'" horiz-adv-x="282" 
d="M265 350q-11 -18 -19.5 -34t-15.5 -27q-8 -14 -15 -25q-5 -10 -14.5 -5.5t-17.5 15.5t-11.5 25.5t3.5 25.5l59 102q3 7 12 2.5t17 -16t10 -28.5t-8 -35z" />
    <glyph glyph-name="parenleft" unicode="(" horiz-adv-x="282" 
d="M638 616q8 -1 13 -8q9 -11 -4 -15q-43 -13 -96 -52.5t-109 -96t-111 -125t-101 -139.5q-11 -16 -28.5 -45.5t-36.5 -66t-37 -76t-29.5 -75t-13 -64t11.5 -41.5q5 -5 3 -7q-4 -6 -14.5 -0.5t-19 23.5t-12 49.5t5.5 77.5t34.5 107t74.5 137q51 80 115.5 156.5t129.5 135.5
t124 93.5t100 31.5z" />
    <glyph glyph-name="parenright" unicode=")" horiz-adv-x="281" 
d="M349 605q-2 7 2 9q3 2 5.5 1t5.5 -3q12 -9 17 -28q8 -35 -0.5 -83t-29 -103t-50.5 -113.5t-64 -115.5q-18 -29 -44 -67.5t-57 -79t-66.5 -79.5t-72.5 -70t-74.5 -50.5t-72.5 -20.5q-5 -1 -6.5 3t0.5 8l4 4t5 4q43 24 90.5 69.5t92.5 99t84 107.5t65 95q40 62 73.5 124
t56.5 117t33 99.5t3 72.5z" />
    <glyph glyph-name="asterisk" unicode="*" horiz-adv-x="417" 
d="M465 459q13 5 14 -8t-17 -30q-3 -3 -10.5 -8t-19.5 -10q-14 -6 -29 -12t-31 -13q9 -11 16.5 -19.5t14.5 -15.5q4 -5 1 -11t-10 -12t-17 -11t-19 -8q-13 -4 -15.5 -3.5t-6.5 6.5q-8 9 -15 20q-10 -14 -18 -26t-15 -23q-12 -17 -28.5 -18.5t-23.5 6.5q-5 6 -4.5 8.5
t8.5 13.5q11 14 19.5 26t16.5 24q-22 -10 -41.5 -19t-35.5 -16q-11 -5 -16.5 -4t-6 6t2.5 12t9 15q9 11 12.5 14t16.5 8q17 7 32 13.5t30 13.5q-7 8 -14 17.5t-15 20.5q-2 3 2.5 8.5t12 11.5t17.5 11t20 6q3 1 8 -1t9 -7q7 -12 18 -24q11 15 22 31t24 34q4 5 11.5 8.5
t14.5 4.5t13 -1.5t7 -9.5q2 -6 -11 -24q-7 -9 -13 -18t-13 -19q17 8 35 15.5t38 16.5z" />
    <glyph glyph-name="plus" unicode="+" horiz-adv-x="563" 
d="M544 202q1 -15 -11 -24q-8 -5 -18 -5q-21 2 -59.5 2.5t-81.5 -0.5l-6 -14q-19 -38 -34 -67q-7 -13 -13 -24.5t-11 -21.5q-6 -11 -11 -21q-4 -12 -12.5 -10t-15.5 11.5t-10 23t3 25.5q19 36 38 70l12 26q-50 -2 -86.5 -3t-37.5 -2q-5 -2 -9.5 2.5t-6 13t1 18.5t11.5 21
q2 3 6.5 2.5t11.5 -1.5q37 0 71 1t65 3q7 16 19 38t23 42.5t19.5 36t10.5 18.5q2 5 8.5 4t11.5 -8t6 -20t-6 -32q-8 -20 -16 -38.5t-17 -37.5v-1q66 2 104 -2.5t40 -25.5z" />
    <glyph glyph-name="comma" unicode="," horiz-adv-x="147" 
d="M-7 -81q-11 0 -12 13t4 21q12 13 22.5 24t18.5 22.5t14.5 25.5t9.5 33q0 4 1 5q0 3 5 3q17 0 31 -15.5t14 -38.5q0 -20 -16 -37t-35.5 -29.5t-36.5 -19.5t-20 -7z" />
    <glyph glyph-name="hyphen" unicode="-" horiz-adv-x="409" 
d="M368 178q5 0 8.5 -4.5t4 -11.5t-2 -14.5t-9.5 -13.5q-6 -6 -24 -6q-23 0 -49 -1t-51 -2t-48 -2t-40 -2q-9 -1 -13.5 3t-5.5 10.5t0.5 14.5t6.5 14q6 9 8.5 10.5t13.5 1.5q28 0 51.5 0.5t46.5 1t48 1t55 0.5z" />
    <glyph glyph-name="period" unicode="." horiz-adv-x="134" 
d="M83 48q4 -8 2.5 -17.5t-8 -18.5t-17 -15.5t-24.5 -7.5q-18 -2 -26.5 7t-9 21.5t7.5 25.5t24 19q14 5 28 4t23 -18z" />
    <glyph glyph-name="slash" unicode="/" horiz-adv-x="277" 
d="M528 699q-6 -21 -27 -62t-52.5 -94.5t-70.5 -115.5t-80 -124.5t-80.5 -122t-73 -108t-57.5 -82.5t-33 -45q-7 -9 -16.5 -2.5t-11.5 12.5q-4 7 -4.5 17.5t4.5 16.5q7 9 31 45t58.5 88t76 116t84 129.5t83 127.5t71.5 110t50.5 78t20.5 31q5 7 10.5 7.5t9.5 -3t6 -9
t1 -10.5z" />
    <glyph glyph-name="zero" unicode="0" horiz-adv-x="361" 
d="M561 625q0 -21 -7.5 -45t-19.5 -48.5t-28 -48t-33 -44.5q1 -1 1 -4q0 -22 -20 -66t-53 -96.5t-75 -108t-85.5 -101t-85.5 -74.5t-75 -29q-20 0 -35 26t-15 60q0 52 28 120t72 139.5t97.5 141t105 124t94.5 88t66 33.5q12 0 24 -5t22 -14t16 -21t6 -27zM81 4q21 0 52 22.5
t67 58t72 79t67 85.5t52 78t27 56q0 1 0.5 1.5t0.5 1.5q-22 -17 -35 -17t-19.5 10.5t-6.5 18.5q0 5 5 5.5t14 5.5q49 27 80 59t48.5 64t24 60t6.5 46q0 14 -7 14t-30 -19t-56 -52t-72.5 -77.5t-80.5 -94.5t-79 -104t-67.5 -106.5t-47.5 -101t-18 -87.5q0 -6 3 -6z" />
    <glyph glyph-name="one" unicode="1" horiz-adv-x="256" 
d="M401 579q-3 0 -15.5 -8t-28.5 -17t-31.5 -16.5t-24.5 -7.5q-8 0 -11.5 4t-5.5 10v3q0 3 4 6q42 20 81.5 43.5t69.5 44.5q35 25 66 50q4 0 9.5 -6t10 -14.5t8 -18.5t3.5 -18q0 -11 -6 -17q-15 -14 -43.5 -48t-65 -80.5t-78.5 -102t-84 -111.5q-98 -131 -213 -288
q-11 0 -23.5 14.5t-12.5 31.5q0 4 16.5 29t44 64t62.5 87t71.5 98t71.5 97.5t63 85t45 60.5t17 25z" />
    <glyph glyph-name="two" unicode="2" horiz-adv-x="458" 
d="M86 24q0 -2 3 -2h77h39.5h37t27.5 -0.5t12 -1.5q9 -5 22.5 -16.5t13.5 -22.5q0 -9 -7 -9q-5 1 -19 3q-12 2 -34 3t-59 1q-17 0 -42.5 -0.5t-48.5 -0.5q-27 -1 -57 -1q-16 0 -28.5 11t-12.5 37q0 18 27.5 50t72 72t101.5 86.5t117 94.5t117 95.5t101.5 89t72 74.5t27.5 54
q0 10 -5.5 12.5t-15.5 2.5q-28 0 -61 -17t-67 -42.5t-66.5 -55t-60 -55t-47.5 -42.5t-28 -17q-6 0 -9.5 4t-3.5 8q0 3 17.5 22.5t45.5 47t64 58.5t73 57t71 43.5t60 17.5t45.5 -22.5t19.5 -58.5q0 -27 -15 -59.5t-50 -66.5q-12 -11 -40.5 -36t-68 -57.5t-85.5 -71t-92.5 -77
t-90 -75t-77 -65.5t-53.5 -48.5t-20 -23.5z" />
    <glyph glyph-name="three" unicode="3" horiz-adv-x="447" 
d="M10 51q0 20 12.5 42.5t32.5 44.5t45.5 41.5t51 34.5t48.5 24t39 9q7 0 7 -6q0 -3 -3 -4q-56 -30 -94.5 -62.5t-63 -61t-35.5 -50t-11 -31.5q0 -12 12.5 -20t35.5 -8q35 0 70.5 18.5t69 47t62.5 62.5t50.5 66.5t34 58t12.5 36.5q0 13 -6.5 19t-14.5 10.5t-15.5 10
t-9.5 16.5q-1 3 -2.5 10.5t-1.5 15.5t2.5 14.5t9.5 9.5q51 22 104 52t96.5 62.5t71 65t27.5 59.5q0 13 -10 13q-36 0 -73 -16t-73 -41t-68.5 -55t-60 -58t-47.5 -50t-30 -31q-4 -4 -8 -4q-3 0 -6 2.5t-3 6.5q0 10 18.5 34.5t48.5 55.5t68.5 63.5t78 59.5t77.5 44.5t67 17.5
q19 0 35 -25.5t16 -60.5q0 -33 -18.5 -63.5t-47 -57t-62 -49t-64 -39t-53.5 -27.5t-29 -15q-6 -3 -6 -5t3 -6q8 -12 20 -28.5t12 -44.5q0 -23 -15 -55.5t-40 -68.5t-57 -71.5t-66 -64t-67.5 -46t-61.5 -17.5q-25 0 -46 12t-36.5 29.5t-24 37.5t-8.5 36z" />
    <glyph glyph-name="four" unicode="4" horiz-adv-x="398" 
d="M656 686q14 -16 11.5 -37.5t-13.5 -41.5q-6 -12 -27 -41.5t-52 -70.5t-69.5 -90.5t-78.5 -100.5q2 -5 1 -9t-6 -4q-3 0 -5 -1q-38 -48 -74 -94.5t-66.5 -86.5t-53.5 -71t-34 -47q-7 -11 -16 -4q-10 7 -15 16.5t-6.5 19t0 17.5t4.5 11q23 30 50 65q23 30 53.5 70t65.5 86
q-84 -18 -134.5 -29.5t-70.5 1.5q-6 4 -9 11t5 12q4 0 6 1q-1 1 -1.5 2t-2.5 3q-7 19 9 31q19 14 60 52.5t92 90t105.5 110.5t99.5 114q2 3 4 9q4 10 11 4q17 -14 22 -28t1.5 -28t-14 -29t-25.5 -31q-8 -8 -25 -27.5t-41 -45.5t-52 -56t-56 -59t-55 -55t-49 -43
q45 8 82 14.5t66 11.5q49 64 98.5 129.5t91 119t69 89t32.5 40.5q5 7 12 0z" />
    <glyph glyph-name="five" unicode="5" horiz-adv-x="398" 
d="M612 659q5 -4 11 -10.5t10 -13t4 -12t-6 -6.5q-39 -3 -72 -5q-29 -2 -57 -3.5t-42 -1.5q-8 -20 -27.5 -48.5t-46 -62.5t-57 -72t-59.5 -76q38 12 81.5 23t78.5 11q5 0 10 -3q16 -22 19 -42.5t-3 -41.5t-19 -42.5t-28 -45.5q-27 -44 -70 -89.5t-89 -82t-88 -57.5t-66 -15
q-33 9 -51.5 25t-26.5 33t-7.5 32t3.5 24q14 35 39 62t51 45t48 27.5t31 11.5q11 2 16 -5q5 -8 -3 -12q-3 -2 -22.5 -10t-43.5 -24.5t-47 -41t-34 -58.5q-8 -23 -5.5 -35.5t12 -15.5t26.5 2.5t38 17.5q42 24 83.5 58.5t79.5 74.5t71.5 83t59.5 84q5 8 -4 8q-26 -4 -51 -11.5
t-48.5 -15.5t-45 -16t-38.5 -12q-12 -3 -25 4q-9 6 -7 16q-1 0 -1.5 0.5t-1.5 0.5h-1q-8 5 -10.5 11t4.5 17q-1 -1 10.5 13.5t30.5 39t43.5 56t49 64t47 62t38.5 51.5q-6 8 -5 20q0 10 10 7q3 0 13 -2q3 6 5 8l2 6t5 4q5 1 7 -2t4 -5t3.5 -5l3.5 -7q20 0 42.5 1.5t43.5 3
t39 2.5t29 1q4 0 6 -2z" />
    <glyph glyph-name="six" unicode="6" horiz-adv-x="362" 
d="M490 690q12 0 25 -5.5t23.5 -16t17 -26.5t6.5 -37q0 -40 -18.5 -73.5t-41.5 -57.5t-43 -37.5t-23 -13.5q-5 0 -7.5 3.5t-2.5 6.5q0 6 8 11.5t31 26.5q14 13 26 31t20.5 37t13.5 37.5t5 32.5q0 11 -3.5 19.5t-14.5 8.5q-20 0 -60 -35t-89.5 -90.5t-101.5 -124.5t-94 -138
q21 20 45.5 40t48.5 36.5t45 27t35 10.5q6 0 15.5 -5.5t18.5 -15.5t15.5 -25.5t6.5 -34.5q0 -26 -15.5 -60t-41 -69.5t-57.5 -69.5t-65 -60.5t-64 -43t-54 -16.5q-12 0 -24.5 4t-22.5 14.5t-16.5 28.5t-6.5 47q0 40 25 102t65 132.5t90.5 141.5t101.5 128t98 93t80 36z
M117 152q-4 -8 -9 -10q-17 -35 -26 -64.5t-9 -52.5q0 -5 2 -10t12 -5q15 0 41 17.5t55.5 45t59.5 62t54.5 69.5t40 66.5t15.5 52.5q0 9 -10 9q-7 0 -24.5 -9.5t-39.5 -25t-47 -34.5t-47.5 -39t-41 -39t-26.5 -33z" />
    <glyph glyph-name="seven" unicode="7" horiz-adv-x="338" 
d="M582 687q5 -8 8 -12.5t5 -9.5t2.5 -13.5t-0.5 -24.5q0 -8 -9 -17q-29 -26 -68 -66t-82 -87.5t-88 -99.5t-88 -103t-81 -97.5t-67 -81.5t-46.5 -57t-18.5 -23q-10 -11 -15 -10t-12 6q-12 9 -12 26.5t5 28.5q4 11 28.5 42.5t61.5 75.5t82 96.5t92 105.5q109 124 246 275
q-42 -3 -78 -5q-31 -2 -61 -2.5t-43 1.5q-14 2 -19.5 10t-6.5 22q0 11 12 9q18 -2 49.5 -2.5t66.5 1t69 5t57 9.5q7 1 11 -2z" />
    <glyph glyph-name="eight" unicode="8" horiz-adv-x="324" 
d="M443 697q13 0 27.5 -4.5t26.5 -13.5t19.5 -22.5t7.5 -31.5q0 -20 -10 -46.5t-25.5 -51t-34.5 -44.5t-37 -28q-3 -2 -7 -3t-9 -3q-12 -11 -30.5 -24.5t-41.5 -29.5q3 -25 7.5 -49t4.5 -54q0 -58 -13.5 -115.5t-39.5 -103.5t-63 -74.5t-84 -28.5q-20 0 -39.5 6.5
t-35.5 21.5t-26 38.5t-10 57.5q0 51 23 93.5t59.5 79.5t83 69t94.5 62q-2 27 -6.5 47t-4.5 52q0 43 18.5 79.5t45 63.5t54.5 42t46 15zM292 369q-38 -27 -77 -59t-71.5 -68t-53 -75.5t-20.5 -81.5q0 -9 2.5 -19.5t7 -20t11 -15.5t15.5 -6q37 0 71 24t59.5 68.5t40.5 106.5
t15 137v9zM391 486q17 15 33.5 34t29 39.5t20.5 40.5t8 37q0 10 -3 21q-1 1 -2 1q-7 0 -29.5 -18t-47.5 -44t-46 -55.5t-25 -53.5q-2 -14 -3 -25.5t-1 -22.5q0 -5 0.5 -9.5t0.5 -9.5q10 7 19.5 13t19.5 13q-6 4 -6 19q0 8 2.5 10t7 2.5t10 1t12.5 6.5z" />
    <glyph glyph-name="nine" unicode="9" horiz-adv-x="358" 
d="M590 670q10 -13 7 -33t-14 -42q-8 -18 -35.5 -59t-66 -95t-83.5 -116t-88.5 -123t-81 -116.5t-61.5 -95.5q-1 -1 -1 -1.5t-1 -1.5q-2 -8 -9 -9.5t-12 3.5q-6 5 -16 14t-7 30q1 10 24 47.5t59 90.5t80.5 116.5t89.5 125.5q-21 -19 -42 -35.5t-40.5 -27t-36 -14t-28.5 3.5
q-29 17 -34.5 45t3.5 59.5t28.5 64t40.5 59.5q15 18 42 47t58 52.5t62.5 34t56.5 -7.5q20 -14 27.5 -38t6.5 -48q23 29 38 47.5t20 22.5q8 6 14 0zM242 370q31 -1 62 15t59 39.5t51 49t39 43.5q2 2 4.5 5t4.5 5q1 2 2 3.5t2 3.5q4 10 10 25.5t10.5 32t6 32.5t-2.5 28
q-2 5 -19 -4t-42.5 -28.5t-55 -48t-57 -60.5t-49 -67t-30.5 -67q-1 -7 5 -7z" />
    <glyph glyph-name="colon" unicode=":" horiz-adv-x="299" 
d="M93 62q14 5 27.5 4t23.5 -18q4 -8 2.5 -17.5t-8 -18.5t-17 -15.5t-24.5 -7.5q-18 -2 -27 7t-9.5 21.5t7.5 25.5t25 19zM298 269q4 -8 2.5 -18t-8 -19t-17 -15.5t-23.5 -7.5q-18 -2 -27 7t-9.5 21.5t7.5 25.5t24 19q14 5 28 4.5t23 -17.5z" />
    <glyph glyph-name="semicolon" unicode=";" horiz-adv-x="267" 
d="M77 66q17 0 31 -15.5t14 -38.5q0 -20 -16 -37t-35.5 -29.5t-37 -19.5t-20.5 -7q-11 0 -12 13t5 21q12 13 22 24t18 22.5t14.5 25.5t9.5 33q0 4 1 5q1 3 6 3zM266 269q4 -8 2.5 -18t-8 -19t-17 -15.5t-23.5 -7.5q-18 -2 -27 7t-9.5 21.5t7.5 25.5t24 19q14 5 28 4.5
t23 -17.5z" />
    <glyph glyph-name="less" unicode="&#x3c;" horiz-adv-x="491" 
d="M180 100q11 -5 39.5 -14.5t58.5 -20.5t54 -22.5t27 -19.5q4 -11 3 -13t-4 -7q-2 -5 -7 -4.5t-7 2.5q-51 18 -93 34q-18 6 -36 12.5t-33.5 12.5t-27 10t-15.5 6q-7 3 -10.5 8t-4 10.5t0.5 10.5t3 7t2 5q3 21 28 30q4 1 33.5 14.5t72 33t91.5 43t93 46t76.5 40.5t40.5 26
q10 10 14 1q8 -19 -4 -39t-37 -37q-45 -30 -105.5 -60.5t-117.5 -56.5q-66 -30 -135 -58z" />
    <glyph glyph-name="equal" unicode="=" horiz-adv-x="493" 
d="M369 53q5 0 8.5 -4.5t4.5 -11.5t-1.5 -14.5t-9.5 -13.5q-2 -2 -8.5 -4.5t-15.5 -2.5q-24 0 -59.5 -0.5t-72 -1.5t-69 -2.5t-49.5 -2.5q-9 0 -13.5 4t-5.5 10.5t1 14.5t6 14q6 9 8.5 10.5t13.5 1.5q28 0 61 0.5t67.5 1l69 1t64.5 0.5zM441 173q5 0 8.5 -5t4.5 -12
t-1.5 -14.5t-9.5 -13.5q-6 -6 -24 -6q-24 0 -59.5 -0.5t-72 -1.5t-68.5 -2.5t-49 -2.5q-9 -1 -13.5 3t-6 10.5t0.5 14.5t6 14q6 9 8.5 10.5t13.5 1.5q28 0 61 0.5t67.5 1.5t69 1.5t64.5 0.5z" />
    <glyph glyph-name="greater" unicode="&#x3e;" horiz-adv-x="462" 
d="M375 151q-18 9 -49 25.5t-60 38.5t-47 48t-9 52q4 6 7 9q9 6 12 1q2 -4 2 -6q4 -14 18.5 -30t33.5 -31.5t40 -29.5t39.5 -25t32 -17.5t16.5 -7.5q11 -2 12 -14t-6.5 -27.5t-22 -30.5t-33.5 -23q-15 -7 -42.5 -16t-70.5 -22.5t-104.5 -33t-145.5 -47.5q-16 -5 -16.5 5
t7 24.5t19.5 28.5t22 17l25.5 8.5t63.5 20.5t82.5 26t82.5 26.5t64 21t27 9.5z" />
    <glyph glyph-name="question" unicode="?" horiz-adv-x="508" 
d="M12 -56q14 5 28 4.5t23 -17.5q4 -8 2.5 -17.5t-8 -18.5t-17 -16t-24.5 -8q-18 -2 -26.5 7t-9 21.5t7.5 25.5t24 19zM636 791q22 0 40 -9.5t30.5 -24.5t19 -34.5t6.5 -39.5q0 -40 -23 -83.5t-60.5 -89t-87 -92t-102.5 -92t-106 -89.5t-98 -85t-78.5 -77.5t-48.5 -66.5
q-5 -11 -18 -11q-7 0 -12 4q-15 14 -17.5 25.5t-5.5 17.5q-2 4 -2 7q0 9 20 32.5t50 54.5t65.5 64.5t66.5 62t52 47.5t23 21q54 48 113.5 99t110 103t83 102t32.5 97q0 14 -13.5 17.5t-27.5 3.5q-33 0 -74.5 -18.5t-84 -49.5t-82.5 -72t-71.5 -86t-50.5 -91.5t-19 -88.5
q0 -14 1.5 -22t3.5 -12t4 -6t4 -5q0 -2 0.5 -3t0.5 -2q0 -7 -7 -7q-6 0 -14.5 10t-11.5 17q-10 24 -10 54q0 43 20 90.5t52.5 94t74.5 89t86.5 74.5t87.5 51t78 19z" />
    <glyph glyph-name="at" unicode="@" horiz-adv-x="705" 
d="M711 356q11 -24 0 -69t-36.5 -97.5t-60.5 -105.5t-71.5 -92.5t-70 -59t-55.5 -3.5q-19 12 -24 40q-2 15 1 28.5t8.5 26t13.5 25.5t16 28l-1 1q-42 -41 -79.5 -71t-86.5 -39q-15 -3 -27 8q-20 18 -21.5 42.5t10.5 51t34 55t48 55t53 49.5t49 40q18 13 37 25.5t38.5 19
t39 6t38.5 -12.5q11 -7 14.5 -18.5t2.5 -24t-6 -25t-11 -21.5q-5 -8 -6 -14.5t4 -15.5q8 -16 -2 -38q-9 -17 -28 -46t-38.5 -57.5t-34.5 -52t-15 -29.5q3 -1 10.5 2.5t16 8.5t17 11t13.5 11q24 20 57 58.5t63 87.5t50 103t18 106q0 9 -8 17q-23 21 -48 29t-70 -4
q-46 -13 -104.5 -49.5t-118 -86.5t-114 -108.5t-94 -116t-58 -109t-4.5 -87.5q8 -21 28.5 -30.5t47.5 -10t58 7t60.5 19.5t54.5 28t40 32q2 2 2.5 4.5t3.5 2.5t8 -1.5t10 -6.5q6 -5 -9 -21.5t-44 -35.5t-67 -35.5t-76.5 -22t-73.5 4.5t-58 45q-24 36 -22 82t22.5 97.5
t57 105t82 103.5t96.5 94.5t102 77.5t97.5 51.5t82.5 17.5q39 -2 67 -21q18 -13 39.5 -31.5t31.5 -38.5zM399 78q19 19 39 37t38 38q19 20 35.5 42t30.5 46q12 20 13 37q0 8 -1.5 9t-6.5 -1q-3 -2 -5.5 -3t-5.5 -3q-13 -8 -24.5 -17t-22.5 -19q-13 -11 -26.5 -22.5
t-27.5 -22.5q-21 -19 -41.5 -38.5t-40.5 -39.5q-40 -41 -72 -92q-3 -5 -5 -9t-4 -9q-1 -6 5 -6q5 1 11 3t11 4q57 25 100 66z" />
    <glyph glyph-name="A" unicode="A" horiz-adv-x="772" 
d="M1012 612q0 -7 -5 -12q-22 -25 -49.5 -56t-61.5 -71.5t-74.5 -91t-86.5 -114.5q8 1 14 1t11 1q5 0 9 1q5 0 13 -3.5t16 -8t13.5 -10.5t5.5 -10t-7 -4h-1q-14 1 -17.5 2.5t-11.5 1.5q-8 -1 -19 -2q-9 -1 -22 -2t-30 -3q-2 -2 -2.5 -3.5t-2.5 -3.5q-50 -73 -81.5 -123
t-50 -83t-27.5 -53.5t-13.5 -36t-8 -30t-11.5 -35.5q-2 -3 -6.5 -7t-9.5 -4t-9 7.5t-7 18t-4.5 22t-1.5 18.5q0 33 12.5 68.5t32.5 72t44.5 74t47.5 74.5q2 4 5 7.5t5 7.5q-45 -5 -97 -9.5t-106 -8.5t-106 -6.5t-97 -3.5q-87 -76 -136.5 -140.5t-49.5 -106.5q-2 -14 -16 -14
q-11 0 -22 13t-11 33q0 19 12.5 43.5t35.5 51.5t55 57t70 62q-20 0 -47 1.5t-52 6t-42.5 13t-17.5 23.5q0 7 3.5 12.5t9.5 5.5q2 0 7 -3q14 -11 58 -15t104 -4h27q67 52 144 104.5t154 100.5t149.5 90.5t130 73.5t96 49t47.5 18q3 0 4 -1q1 -2 2 -2.5t2 -2.5q5 2 10.5 4
t12.5 2q14 0 24.5 -7.5t18 -17t11 -19t3.5 -13.5zM262 234q47 2 98 5t102 6.5t98.5 7t87.5 6.5q42 60 85 117.5t80 106t66 84.5t43 54q-95 -38 -186 -84t-175.5 -96.5t-160 -103t-138.5 -103.5z" />
    <glyph glyph-name="B" unicode="B" horiz-adv-x="958" 
d="M1098 557q0 -26 -18 -54t-48.5 -54.5t-71 -51.5t-84.5 -46t-89.5 -37.5t-86.5 -26.5q47 0 87 -4.5t69.5 -18t46.5 -38.5t17 -65q0 -39 -46.5 -92t-133.5 -101.5t-211.5 -82t-281.5 -33.5q-42 0 -89 8t-86.5 27t-65.5 49.5t-26 75.5q0 30 26 54t67.5 41.5t94.5 29.5
t107 20q29 45 74.5 103.5t97 122.5t105 128t98.5 120q4 5 4 11t11 3q9 -3 15 -10t9.5 -15.5t4.5 -17t-1 -12.5q-2 -6 -5 -9q-44 -53 -89 -108q-38 -47 -83.5 -101.5t-86.5 -104.5q4 4 7 6t5 4q2 1 30.5 28t74 66t104.5 84.5t121 84.5t123 65t112 26q41 0 66.5 -20.5
t25.5 -53.5zM581 300q5 3 42.5 15.5t91 33t114.5 47.5t112.5 58t85.5 65.5t34 69.5q0 6 -5 10t-31 4q-39 0 -91.5 -22.5t-112.5 -58.5t-123.5 -82.5t-123.5 -95t-113.5 -94.5t-92.5 -82q32 3 59.5 4t50.5 1h25t29 -2t23.5 -6.5t9.5 -13.5t-8 -9q-4 0 -6 2t-6 2
q-14 1 -28 1.5t-29 0.5q-42 0 -80 -2.5t-73 -6.5q-12 -11 -21.5 -20t-15.5 -15q-8 -7 -13 -12q-10 0 -14.5 4t-5.5 9q-9 9 -7 21q-60 -12 -107.5 -28t-80.5 -33.5t-50 -34.5t-17 -31q0 -7 12.5 -21.5t42.5 -29.5t80.5 -26t126.5 -11t152 13.5t145.5 35.5t130 51t105 60.5
t70 63.5t25.5 60q0 25 -24.5 37t-62 16.5t-82.5 3.5t-85 -1q-18 0 -32 2t-18 17q0 2 -0.5 3t-0.5 3t1 3q-15 4 -15 12q0 5 7 9z" />
    <glyph glyph-name="C" unicode="C" horiz-adv-x="620" 
d="M600 408q40 6 89.5 28t93 50.5t73 58.5t29.5 52q0 18 -22 18q-30 0 -82 -14.5t-116.5 -41.5t-137 -64t-143.5 -81.5t-136 -95t-114.5 -104.5t-79 -110t-29.5 -111q0 -21 5 -40t19.5 -33t41.5 -22t71 -8q68 0 133.5 21.5t123.5 54.5t106.5 71t84 71t56.5 55.5t23 23.5
q1 0 1.5 0.5t2.5 0.5q8 0 18 -8t10 -16q0 -6 -25.5 -31t-68.5 -58.5t-99.5 -70.5t-118.5 -68.5t-125.5 -52t-120.5 -20.5q-36 0 -69.5 8t-58.5 27t-40 48.5t-15 73.5q0 52 24.5 105.5t67.5 107t100 104t123 95.5t136.5 83t139.5 65t132.5 42.5t116.5 15.5q48 0 78 -18
q5 -3 13.5 -21t8.5 -39q0 -25 -16.5 -50t-43 -48t-59.5 -43.5t-65.5 -35.5t-61.5 -23.5t-47 -8.5h-7q-3 0 -9.5 5t-12.5 11.5t-11 14t-5 13.5q0 5 4 8.5t14 4.5z" />
    <glyph glyph-name="D" unicode="D" horiz-adv-x="992" 
d="M1059 649q26 0 47 -10.5t35.5 -27t22.5 -36.5t8 -39q0 -50 -28 -106t-76 -113.5t-113 -114.5t-140 -108.5t-155.5 -95.5t-160 -76.5t-154.5 -51t-137 -18.5t-105.5 21t-70.5 49t-39.5 56.5t-12.5 43.5q0 40 27.5 75t74.5 63t109 48.5t130 33.5q24 32 60 77.5t79.5 98
t93 108.5t101.5 110q7 7 17 1.5t17.5 -16.5t10 -23.5t-3.5 -18.5q-41 -42 -81.5 -86t-78.5 -86t-72 -80.5t-62 -70.5q45 36 101 79.5t117 87t123.5 84.5t121 72.5t108.5 50.5t86 19zM169 -85q90 0 196.5 31t214 82.5t207.5 119t177 141t123.5 147t46.5 138.5q0 19 -12 30
t-37 11q-39 0 -87.5 -16.5t-102.5 -44t-112 -64t-114 -76t-109 -79.5t-97 -76q14 1 28.5 1.5t28.5 0.5q18 0 47.5 -2t57 -7.5t47.5 -16t20 -26.5q0 -3 -4 -3h-3q-10 3 -17.5 8t-21 10.5t-35.5 9.5t-61 4q-29 0 -59.5 -1.5t-62.5 -5.5q-26 -22 -47.5 -40t-36.5 -31
q-18 -15 -31 -27h-2q-13 0 -20 7.5t-7 13.5q-2 3 -4 6.5t-4 5.5q-3 5 -2 9t3 8q0 1 17 23q-57 -14 -108.5 -33t-90.5 -44t-62.5 -55t-23.5 -65q0 -23 15.5 -40.5t39.5 -29.5t52 -18t53 -6z" />
    <glyph glyph-name="E" unicode="E" horiz-adv-x="640" 
d="M1059 611q2 -7 0 -13q-3 -10 -11 -20t-19 -10q-38 -2 -94.5 -2.5t-124.5 -0.5t-143 -2t-149 -7q-2 -2 -4 -4.5t-4 -4.5q0 -1 -16.5 -19.5t-44 -50t-63 -72.5t-74.5 -86q59 4 116 6t102 2.5t74 -0.5t33 -3q6 -2 6.5 -7t-4.5 -9q-15 -10 -32 -10q-20 -1 -51.5 -1.5
t-73.5 -1.5t-92.5 -3.5t-107.5 -7.5q-44 -51 -86 -101t-75 -91t-53.5 -68.5t-20.5 -34.5q0 -3 11 -3q26 0 66.5 7t88 17t97.5 22.5t94 22.5t78 17t49 7q3 0 9 -2t12 -5t10 -6.5t4 -6.5q0 -4 -5 -4t-10.5 1.5t-8.5 1.5q-15 0 -54 -8t-89.5 -20.5t-107.5 -27t-107.5 -27
t-89.5 -20.5t-54 -8q-60 0 -60 41q0 10 6 24.5t27.5 44.5t63 81.5t111.5 135.5q-18 -3 -38 -5.5t-37 -5.5t-28.5 -6t-14.5 -5q-5 -5 -10 -2.5t-7.5 9t-1 14t8.5 13.5q4 3 22.5 7t42.5 7.5t50 6.5t45 5q40 48 89 106t109 130q-79 -9 -146 -25.5t-111 -42.5q-3 -2 -6.5 1
t-6.5 8t-4 10.5t2 8.5q8 15 53 38q42 22 112.5 36t155.5 23q8 10 11.5 17t5 11t2.5 4.5t6 -2.5q18 -11 27 -25q87 7 175.5 10t162.5 3.5t125.5 -1t64.5 -2.5q3 0 7 -3t5 -6z" />
    <glyph glyph-name="F" unicode="F" horiz-adv-x="484" 
d="M1043 609q2 -4 -3.5 -11t-16 -14t-24.5 -12t-29 -5q-1 0 -21 -0.5t-52.5 -2t-76 -3.5t-92.5 -4.5t-100.5 -5.5t-100.5 -7q-14 -15 -35 -35t-48.5 -47.5t-61.5 -64t-74 -85.5l-4 -4t-4 -5q34 1 66 2t58.5 2t46 2t28.5 2q18 2 27 6t13 7t6 3t6 -5q5 -6 3 -16t-8.5 -20.5
t-17 -19t-23.5 -11.5t-37.5 -3.5t-57.5 -0.5t-72 0.5t-81 1.5q-30 -35 -67 -81.5t-70 -90.5t-55.5 -80t-22.5 -51q0 -7 6 -8q2 -1 3.5 -1t1.5 -2t-6 -7.5t-14 -5.5q-16 0 -22.5 13.5t-6.5 27.5q0 21 13.5 51.5t36.5 68t53.5 80.5t65.5 87q-48 0 -94 -1t-84 -5
q-10 -1 -12.5 1.5t-2.5 13.5q0 14 16 20q12 3 33.5 6t49.5 5t61.5 3.5t69.5 2.5q53 65 105.5 125.5t95.5 106.5q-69 -9 -122.5 -20t-90 -22.5t-55 -21t-17.5 -15.5q1 -5 -3 -3.5t-6 7.5q-6 22 13 42t49 35.5t64 26.5t60 16q40 8 82 13.5t91 10.5q26 28 29 28h-1q2 3 4 5.5
t3 5.5q3 7 9 7q5 0 17.5 -11.5t17.5 -27.5q88 5 202.5 7.5t270.5 2.5q12 0 15 -9z" />
    <glyph glyph-name="G" unicode="G" horiz-adv-x="819" 
d="M866 309q5 0 9 -5.5t4 -16.5q0 -32 -25 -42t-61 -10q-2 0 -24 1t-56 3q-19 -20 -51 -55t-71 -79t-81 -94.5t-81.5 -101t-73.5 -99.5t-56 -90q-12 -20 -29 -20q-13 0 -13 17q0 24 14.5 59t39 76t56.5 86t67 89.5t71 87t69 77.5q-57 -38 -124 -79.5t-131.5 -76.5
t-120.5 -58t-89 -23q-40 0 -73 19t-47 55t-4.5 87.5t54.5 117.5q35 51 85 102.5t109 98t122.5 86.5t126 69.5t119.5 46.5t102 17q28 0 52 -4.5t41.5 -15t27.5 -27.5t10 -42q0 -31 -20 -57t-50.5 -46.5t-66.5 -35.5t-69 -25t-57.5 -15t-31.5 -5q-12 0 -15 10q-2 5 -4 12
t-2 12q0 6 4 17t19 12q6 0 27.5 5.5t49.5 15t60 22.5t58 29t43.5 34.5t17.5 38.5q0 5 -13.5 15t-42.5 10q-37 0 -88.5 -17t-110.5 -46.5t-122 -69t-122 -85t-111.5 -95t-89.5 -97.5q-26 -34 -46.5 -72t-25.5 -70.5t10.5 -53.5t62.5 -21q27 0 64.5 12.5t81 33t91 47.5
t93.5 55.5t89 57t78 52.5q-35 2 -67.5 3t-57.5 1q-30 0 -57.5 -1t-49.5 -3.5t-36.5 -7t-18.5 -10.5q-2 -4 -4 -4q-4 0 -6.5 4t-2.5 7q0 15 36.5 23.5t90 13.5t114 7t109.5 2q24 16 37.5 25.5t15.5 9.5q7 0 14 -5.5t9 -12.5q0 1 -2 -3q8 -6 13 -15h37q21 0 46 4.5t45 22.5
q4 3 6 3z" />
    <glyph glyph-name="H" unicode="H" horiz-adv-x="895" 
d="M1090 324q5 -5 4.5 -14t-11.5 -7q0 1 -2 1q-8 6 -17.5 5t-18.5 -2q-30 -2 -92 -4.5t-143 -4.5q-23 -25 -47 -52.5t-50 -58.5q-16 -18 -41.5 -47.5t-49.5 -58.5q-29 -33 -60 -70q-8 -4 -13.5 -1t-9 8.5t-4.5 12.5t1 12q3 8 9 16.5t19.5 26.5t39 50t67.5 89
q11 16 25.5 33.5t31.5 37.5q-53 -1 -108.5 -2t-110 -2t-106.5 -2t-97 -2q8 -5 15 -9.5t14 -9.5q49 -35 87.5 -69.5t66 -63t43.5 -47.5t19 -21l-10 -12q-11 17 -36.5 42.5t-57.5 53.5t-66.5 53.5t-63.5 42.5q-8 5 -16 9t-16 9q-68 -74 -135 -152t-130 -164q-2 -3 -8.5 -3.5
t-13 1t-12 6t-5.5 12.5q0 21 18 55t49.5 76t72.5 90.5t86 99.5q-38 -1 -61 -1h-27q-24 2 -38.5 6t-22 9t-11 11t-5.5 12q-6 15 1 23.5t21 12t31.5 3t33.5 -3.5q47 -9 86 -25q8 1 17.5 1h18.5q44 49 88 96t81.5 88.5t67 75.5t44.5 57q5 7 1 11q-5 5 1 9q3 4 16 -1.5t25 -15
t18.5 -22.5t-2.5 -24q-51 -66 -112.5 -133t-127.5 -139q48 1 101 2t107 1.5t107 1.5t103 2q39 45 81.5 91.5t79 87t63 71t35.5 43.5q2 3 4 9q3 7 11 4q7 -3 11.5 -10t7 -16.5t2.5 -19t-1 -16.5q-1 -4 -14 -19t-38.5 -44t-65 -73.5t-94.5 -105.5q60 1 104 1.5t67 0.5
q19 0 28 0.5t14 -1.5t9.5 -7.5t16.5 -15.5zM105 332h-1q-1 1 1 0z" />
    <glyph glyph-name="I" unicode="I" horiz-adv-x="481" 
d="M970 620q1 -10 -1 -17.5t-7 -8.5q-17 -5 -31.5 -6.5t-29.5 -1.5q-27 0 -61 3t-90 4q-8 -8 -22.5 -19.5t-34.5 -31.5q-45 -46 -107 -112.5t-126.5 -139t-123.5 -142.5t-97 -124q27 1 51.5 2t44 2t32.5 1.5t17 0.5q6 0 13 -0.5t13.5 -2t11 -4.5t4.5 -8q0 -8 -18 -13t-48 -9
t-69 -6t-79 -4q-5 -7 -8.5 -13.5t-6.5 -11.5q-7 -13 -19 -13q-10 0 -18 7.5t-8 16.5v3t2 9q-54 -2 -97 -4.5t-58 -7.5q-1 0 -2 -0.5t-2 -0.5q-6 0 -10.5 5t-4.5 12q0 12 10 21q1 1 17 3t41.5 4t57.5 3.5t67 3.5q20 36 54 83t76 99.5t89.5 107.5t93.5 106.5t87.5 96.5
t72.5 78q-42 -2 -82 -5.5t-72.5 -8t-53.5 -8.5t-24 -8q-3 -3 -5 -3q-4 0 -7 8t-3 12q0 7 3 11t17 7t43 6.5t81 8.5q34 3 67 5.5t65 4.5q16 16 24.5 25t9.5 9h2q8 0 21.5 -9.5t21.5 -20.5q39 2 72 4t58.5 4.5t41.5 5t21 6.5q4 4 8 4q7 0 10.5 -9t4.5 -20z" />
    <glyph glyph-name="J" unicode="J" horiz-adv-x="784" 
d="M1169 637q7 -2 11 -7.5t4 -13.5q0 -16 -10.5 -22t-28.5 -6q-31 1 -58 1.5t-52 0.5q-3 -14 -23 -46.5t-53 -78t-77.5 -101t-97.5 -114.5h17q3 0 9 -4t11 -9t9 -10t4 -7q0 -4 -6 -4q-8 2 -18 4q-8 2 -20 3.5t-27 3.5q-72 -78 -153.5 -154.5t-165.5 -137t-167 -98
t-156 -37.5q-33 0 -59 12t-44.5 31t-28 42.5t-9.5 47.5q0 46 40.5 102.5t124.5 105t211.5 81.5t301.5 33h21t18 -1q46 49 87 97t75.5 92t60.5 81.5t43 66.5h-10q-33 0 -63 -0.5t-60 -1.5t-61.5 -3t-66.5 -4q-4 0 -7.5 -1.5t-6.5 -1.5q-5 0 -7.5 7.5t-2.5 11.5
q0 10 28.5 17.5t73.5 12t99.5 6.5t106.5 3q0 1 0.5 1.5t0.5 1.5q4 4 6 4q3 0 6 -3q2 -2 4 -3q53 1 93.5 1h57.5q5 0 15 -2zM91 -158q62 0 135 33.5t150 88.5t154 125.5t148 144.5h-23q-161 0 -281 -33.5t-199.5 -83.5t-119 -108.5t-39.5 -108.5q0 -30 20 -44t55 -14z" />
    <glyph glyph-name="K" unicode="K" horiz-adv-x="732" 
d="M911 524q8 0 14.5 -5.5t6.5 -13.5q0 -7 -6 -14t-13.5 -12t-14.5 -8.5t-10 -4.5q-14 -4 -40 -11t-58 -16.5t-66 -20t-64.5 -20t-54 -16.5t-34.5 -10q-49 -14 -82 -24t-56.5 -18t-40 -15t-31.5 -14q-14 -15 -28.5 -32t-30.5 -35q23 -19 63.5 -49.5t88 -65t96.5 -69.5
t89 -64.5t65 -49.5t25 -23t-4 -3q-7 0 -23 8q-72 37 -137 74.5t-120.5 73t-101.5 67.5t-79 57q-14 -16 -28.5 -33t-28.5 -34q-13 -15 -30.5 -37t-37 -46t-39 -47.5t-36.5 -42.5t-30.5 -30.5t-19.5 -11.5q-8 0 -21 6t-13 16q0 2 1 4t4.5 7t10.5 14.5t20 26.5q49 66 98.5 128
t98.5 121q-29 23 -29 26q0 14 31 32.5t82 40.5q66 75 123 137.5t100 107.5q50 53 92 95q2 5 6 5t10.5 -5t13 -13t11.5 -17.5t5 -18.5q0 -7 -3.5 -12.5t-12 -14.5t-24 -23t-39 -37t-56 -57t-76.5 -83l-6 -6t-6 -7q52 18 107 35.5t107.5 33.5t99.5 29.5t82.5 23.5t56.5 15.5
t23 5.5z" />
    <glyph glyph-name="L" unicode="L" horiz-adv-x="688" 
d="M572 50q11 0 21.5 -4.5t18 -10t12 -11t4.5 -7.5q0 -3 -5 -3h-16q-27 0 -77.5 -7.5t-111.5 -18.5t-125.5 -24.5t-120.5 -24.5t-97 -19t-54 -9q-3 -6 -7 -6q-10 0 -22 11t-12 28t25 56t66 91.5t93.5 114.5t107 124t107 120.5t93.5 104t66 74t25 30.5q0 1 1 3q2 4 6 4
q3 0 10 -5t14.5 -13t13.5 -18t6 -20q0 -9 -4 -14.5t-7 -9.5q-20 -22 -70.5 -71t-123.5 -126t-164 -184t-191 -245q27 5 71.5 14t96.5 19t107 20t103.5 18.5t86 13.5t53.5 5z" />
    <glyph glyph-name="M" unicode="M" horiz-adv-x="886" 
d="M1104 697q24 0 43 -16.5t19 -37.5q0 -12 -7 -22q-29 -47 -58 -86.5t-60.5 -80t-67 -87t-79 -108t-96 -142.5t-117.5 -190q-23 -38 -33 -55t-21 -17q-4 0 -12 3t-16.5 7.5t-14.5 10.5t-6 11q0 15 22.5 56.5t59 98.5t83.5 125t96 137q115 161 262 356v2h-2
q-23 0 -67.5 -28.5t-101.5 -76t-122.5 -107.5t-129.5 -123.5t-122.5 -124t-102.5 -108.5q-18 -20 -46 -20q-13 0 -22 5t-14 12t-7.5 15t-2.5 13q0 13 8 39t21.5 59t31 71t35.5 76q42 89 97 193q-2 0 -28 -23.5t-66.5 -61t-90 -86t-99 -98.5t-93 -97.5t-71.5 -83.5l-9 -9
q-38 -46 -61 -74.5t-25 -28.5q-14 0 -22.5 7.5t-8.5 19.5q0 3 19.5 32t51.5 74t73 101.5t84 115t84.5 114t74 98.5t53.5 69.5t23 26.5q14 0 27 -16t13 -29q0 -4 -17 -29t-46 -64t-66.5 -88t-77.5 -101q52 52 106.5 104.5t99 94t73.5 67.5t31 26q6 0 14 -4t15.5 -11t13 -16.5
t5.5 -19.5q0 -11 -5 -18q-11 -18 -29.5 -51.5t-40 -73.5t-44 -83.5t-40.5 -83t-30.5 -71.5t-13.5 -49q2 1 26 25.5t64 64.5t92 90t108.5 102t114 102t109 89t93 63t66.5 24z" />
    <glyph glyph-name="N" unicode="N" horiz-adv-x="811" 
d="M959 803q9 0 26.5 -9.5t34 -26.5t29 -41.5t12.5 -55.5q0 -40 -21 -91.5t-55.5 -108t-80 -115t-95 -114t-99 -104.5t-93 -85.5t-77.5 -57.5t-52 -21q-27 0 -44 5t-26.5 16.5t-12.5 29t-3 41.5q0 32 6 72t15.5 84t21.5 89t25 87q-33 -48 -71.5 -99.5t-79 -101t-81.5 -94.5
t-78 -78.5t-69 -53.5t-55 -20q-25 0 -40 8.5t-15 16.5q-2 6 8 8q29 6 68 36t83 76t90.5 103t90.5 116t83 115.5t68.5 101.5t46.5 73.5t17 31.5q-1 7 5 7q4 0 13 -4.5t17 -14.5h4q14 0 20.5 -15.5t6.5 -32.5q0 -8 -12 -40.5t-30 -79.5t-38.5 -103.5t-38.5 -112.5t-30 -106.5
t-12 -85.5q0 -14 4 -27.5t21 -13.5q20 0 53.5 23.5t75 63.5t87.5 92.5t91 110.5t86 118t72 114.5t49.5 100t18.5 74.5q0 15 -4 27t-13 20q-7 6 -12.5 12t-13.5 11q-4 2 -7 8t-3 11q0 10 13 10z" />
    <glyph glyph-name="O" unicode="O" horiz-adv-x="870" 
d="M774 712q64 0 112.5 -18t80 -48t47.5 -69.5t16 -81.5q0 -46 -25 -94.5t-68 -97t-99.5 -94.5t-119 -87.5t-127.5 -76.5t-124.5 -60.5t-110 -39.5t-84.5 -14q-25 0 -49 7.5t-43 23t-30.5 40t-11.5 58.5q0 47 30 100.5t75.5 107.5t99 104.5t100.5 91.5t79 68.5t36 35.5
q1 3 8 1q19 -9 28 -19.5t11 -20.5t-1.5 -19t-10.5 -16q-2 -2 -33.5 -26.5t-77.5 -64.5t-99 -90t-98.5 -103t-75.5 -104.5t-30 -92.5q0 -19 10.5 -30.5t25 -17.5t29.5 -8t24 -2q45 0 116.5 26.5t152.5 71t163 102.5t147.5 121.5t107 127.5t41.5 121q0 37 -14 61t-38.5 37.5
t-59.5 18.5t-77 5q-90 0 -183.5 -28t-181.5 -73t-165.5 -102t-136 -114t-92 -109.5t-33.5 -89.5q0 -11 6 -15q14 -9 26 -10q5 0 10 -3q3 -2 3 -3l-2 -1q-14 -6 -25 -6q-23 0 -38 22t-15 47q0 59 38 123t101 125t145 116t170 96.5t176 65.5t164 24z" />
    <glyph glyph-name="P" unicode="P" horiz-adv-x="884" 
d="M935 679q20 1 42.5 -9t41 -28.5t31.5 -43t13 -51.5q2 -39 -17 -88q-26 -65 -72 -118.5t-104.5 -96t-126 -74t-136 -52.5t-134 -31t-119.5 -9q-29 0 -59 4t-58 12q-49 -45 -95 -88.5t-87 -84.5l-1 -1q-6 -7 -13.5 -14.5t-15.5 -12.5q-6 -3 -14 -4.5t-15 -0.5t-11.5 4.5
t-3.5 9.5q1 10 15.5 33.5t37.5 55t53 69.5t62 77q-20 16 -35 38q-5 4 -6 9q-2 3 1 6q2 1 2.5 0t2.5 -2q22 -16 52 -29q34 42 67 81.5t61 72.5t48 56t27 32q36 42 72 83t65.5 76t50.5 60t29 36q5 5 5 11q2 16 16 7q11 -7 16 -15l7.5 -7.5t6.5 -8.5q18 -24 -3 -45l-5 -5
q-32 -36 -65 -73q-29 -32 -64 -70.5t-68 -76.5q-68 -77 -115 -131.5t-86 -101.5q2 -1 5 -1t5 -1q36 34 76.5 71t82.5 75t84.5 76t83.5 73q93 80 153.5 127.5t100 73.5t64.5 34.5t49 10.5zM188 88q5 4 9 8l9 9q-2 0 -3 1zM988 483q17 35 22 65.5t0 52.5t-20 33.5t-37 9.5
q-10 -1 -20 -2.5t-25 -8.5t-38 -21t-59 -40t-87.5 -66.5t-124.5 -99.5q-32 -26 -69 -57t-78 -66t-84.5 -73t-86.5 -77q20 -2 40 -2.5t40 0.5q50 2 109 14t119.5 33t121 51t113 68.5t95.5 85t69 100.5z" />
    <glyph glyph-name="Q" unicode="Q" horiz-adv-x="726" 
d="M283 -69q44 -5 97.5 -14.5t108 -21.5t105.5 -26t90 -27t63 -25t24 -20q0 -10 -9 -17q-5 -4 -10 -11.5t-16 -7.5q-95 33 -190 61q-41 12 -85 24t-88.5 22.5t-88 19t-81.5 12.5q-26 -8 -49.5 -12t-43.5 -4q-28 0 -49 10t-35 27t-21 39.5t-7 47.5q0 30 13 62.5t35 67.5
q-33 17 -49.5 47.5t-16.5 65.5q0 50 37.5 103.5t99 104t140 95.5t161.5 78.5t163 53t144 19.5q25 0 56 -11t59 -31t47 -47.5t19 -61.5q0 -48 -28 -104.5t-75 -116t-109.5 -119t-131.5 -112.5t-141 -97.5t-138 -73.5zM38 -26q0 -27 13.5 -43t47.5 -16h1q8 6 22.5 9.5
t30.5 5.5t32 3t27 1q67 21 140.5 60.5t145 91.5t136.5 113t114.5 124.5t79 127t29.5 119.5q0 48 -25 69t-78 21q-59 0 -136.5 -19.5t-158.5 -52t-159 -76.5t-139.5 -93.5t-99 -101t-37.5 -100.5q0 -17 5.5 -32.5t31.5 -25.5q27 38 60.5 75.5t69 72t69 64.5t60.5 53t43.5 37
t18.5 16q3 3 6 3q6 0 19.5 -12t13.5 -35q0 -9 -29 -36t-72.5 -66t-94 -86t-92.5 -96q61 0 119.5 14.5t103.5 31.5q53 20 100 47q5 0 5 -8v-9v-1q0 -7 -17 -17.5t-44.5 -22t-62.5 -23.5t-71.5 -21t-72 -15t-62.5 -6h-11.5t-10.5 1q-32 -40 -51.5 -77t-19.5 -69z" />
    <glyph glyph-name="R" unicode="R" horiz-adv-x="700" 
d="M940 565q0 -46 -43.5 -103t-121.5 -107t-187 -84t-240 -34q-23 0 -53.5 2t-62.5 7q39 -36 86.5 -86t100 -102.5t107 -101t108.5 -79.5q32 -19 59 -30t46.5 -18t30.5 -12t11 -12t-13 -10.5t-22 -3.5q-48 0 -99.5 21t-104.5 55.5t-105 78t-99 88.5t-88 87t-72 74
q-18 -21 -35 -40.5t-32 -37.5q-2 -3 -4.5 -6t-5.5 -6q-2 -3 -5 -5q-23 -27 -39.5 -45t-21.5 -23q-6 -6 -14 -8.5t-10 -1.5q-7 2 -14.5 4t-13.5 7q-5 5 -2.5 11.5t6.5 11.5q30 44 66.5 91.5t75.5 95.5q-15 13 -20 14q-8 3 -8 9t7 13q-29 14 -29 34q0 4 1.5 7.5t4.5 3.5
q6 -5 17 -9q10 -4 27 -8.5t45 -8.5q41 50 80.5 96.5t72.5 86t56.5 69t33.5 45.5q2 2 2.5 5t2.5 5q5 9 13 4q3 -2 10 -6t14.5 -9t13 -12t7.5 -14q2 -16 -8 -27q-1 -1 -10 -11.5t-24.5 -28.5t-36.5 -43t-45 -53q58 52 120.5 101.5t122.5 88.5t115 62.5t98 23.5q31 0 55 -10.5
t40 -27.5t24.5 -37.5t8.5 -40.5zM304 291q89 0 167 16.5t143.5 43t116.5 60.5t86.5 68.5t54 67t18.5 57.5q0 23 -15.5 32.5t-46.5 9.5q-56 0 -126.5 -31.5t-145 -82.5t-148.5 -114.5t-138 -126.5h34z" />
    <glyph glyph-name="S" unicode="S" horiz-adv-x="636" 
d="M629 402q37 9 85 35.5t90 59.5t70.5 66.5t27.5 56.5q-1 13 -14.5 17t-34.5 2t-47 -9t-51 -15.5t-47 -17t-34 -13.5q-122 -47 -221.5 -99.5t-173 -100.5t-119 -85.5t-58.5 -54.5q-16 -21 -4.5 -33t62.5 -14q31 -1 68 2.5t74.5 8t73.5 7t66.5 -1.5t53 -17t32.5 -39
q35 8 76.5 16t90.5 17q9 2 10 1.5l3 -1.5q4 -3 7 -6.5t5 -8.5q3 -7 -5 -7q-4 0 -19.5 -3t-40 -8t-56 -11.5t-65.5 -14.5q4 -38 -15.5 -76.5t-51.5 -73t-71 -63t-72 -47.5t-60.5 -28t-48.5 -17q-38 -13 -80 -10t-77.5 17.5t-57.5 38t-19 50.5q1 15 14 28q27 27 61.5 49t73 40
t79 32.5t78.5 25.5q43 12 92 25t117 28q0 2 0.5 4t0.5 4q1 16 -12.5 24.5t-37 11t-53 0.5t-59 -6.5t-56.5 -9.5t-45 -9q-25 -5 -50 -7t-51 3q-34 7 -55 25.5t-24 44.5q-4 34 34.5 78.5t103.5 93t147 95.5t164 85t154.5 62.5t119.5 27.5q36 2 64.5 -4.5t48.5 -18.5t31.5 -27
t13.5 -28q3 -23 -16.5 -58.5t-56 -73t-87.5 -70.5t-110 -49q-26 -7 -48 4t-20 37q1 4 8 6q6 2 12 3.5t12 3.5zM140 -124q47 7 100 32t101.5 59.5t87 74.5t56.5 78q-51 -12 -100.5 -24.5t-87.5 -24.5q-25 -8 -56 -16.5t-63 -20t-64 -26.5t-59 -35q-7 -6 -19 -16.5
t-21.5 -21.5t-13 -21t5.5 -15q17 -10 54 -19.5t79 -3.5z" />
    <glyph glyph-name="T" unicode="T" horiz-adv-x="399" 
d="M1067 652q29 -1 47 -2t28 -4t13.5 -9t3.5 -16q0 -12 -6.5 -23.5t-23.5 -10.5h-6q-123 5 -237 4t-218 -8q-82 -105 -154 -192t-132.5 -166t-107.5 -154.5t-80 -158.5q-1 -5 -7 -5q-8 0 -18.5 11.5t-9.5 31.5q1 31 22.5 77t55 101t76.5 115t88 119.5t88.5 114t78.5 98.5
q-130 -11 -236 -28t-181 -35t-115.5 -34.5t-40.5 -27.5q0 -6 8 -14l8 -8q-6 0 -18.5 11t-12.5 28q0 33 55 61t145 49.5t205 37.5t235 25q3 3 7 9q4 5 8 10.5t6 12.5q2 5 7 5q9 0 17.5 -10.5t13.5 -21.5q108 7 207.5 9t180.5 -2z" />
    <glyph glyph-name="U" unicode="U" horiz-adv-x="705" 
d="M964 603q0 -2 0.5 -4t0.5 -4q0 -13 -24 -47t-61.5 -81.5t-83 -103.5t-88.5 -111t-78 -105t-51 -85l-7.5 -15t-11.5 -7q-9 0 -21.5 8t-12.5 34q0 23 23 64.5t59 92t78.5 104t81.5 102t69 86t40 54.5q-11 -2 -47.5 -29.5t-89.5 -71.5t-118.5 -99t-135 -112t-138.5 -112
t-129.5 -97.5t-107.5 -68.5t-73 -26q-31 0 -44.5 17t-13.5 45q0 21 15.5 55t42 75.5t61 89t72 95t76.5 94t73.5 86t62.5 70.5t45 49q11 11 18.5 25t12.5 14q6 0 14.5 -6.5t16.5 -15.5t14 -19t6 -17q0 -5 -20.5 -30t-54.5 -63.5t-77 -86.5t-88 -99.5t-88 -103t-77 -95.5
t-54.5 -78.5t-20.5 -51.5q0 -9 5.5 -11t14.5 -2q24 0 71 27.5t108 72.5t131.5 102.5t142 118t139.5 118t124 102.5t95 72.5t53 27.5q3 0 11 -3.5t17 -9.5t15.5 -13t6.5 -14v-3z" />
    <glyph glyph-name="V" unicode="V" horiz-adv-x="422" 
d="M1026 696q3 0 9 -2.5t12 -6.5t10.5 -9t4.5 -9q0 -5 -5 -7q-19 -11 -42 -19t-59 -25t-88.5 -46.5t-131 -82.5t-186 -134.5t-253.5 -201.5q-84 -69 -133 -111.5t-77 -66t-42.5 -31t-30.5 -7.5q-14 0 -24 8t-10 28q0 26 24 75t62 109t85 126.5t93.5 128t87.5 113t67 82.5
q14 17 19.5 30t9.5 13q2 0 5.5 -0.5t5.5 -2.5q13 -11 28 -26t15 -29q0 -5 -18.5 -29t-48.5 -61t-69 -83.5t-79 -96.5t-79 -100.5t-69 -94.5t-48.5 -78.5t-18.5 -53.5q0 -1 2 -1q239 196 440 351q85 66 170.5 129t158 112.5t126.5 79.5t77 30z" />
    <glyph glyph-name="W" unicode="W" horiz-adv-x="763" 
d="M1245 712q3 0 9 -3.5t12.5 -8t11.5 -10t5 -9.5q0 -2 -4 -5q-25 -10 -75 -49t-116.5 -96t-143.5 -126.5t-155.5 -140.5t-153.5 -138t-136.5 -119t-104 -83.5t-57.5 -31.5q-18 0 -36.5 14.5t-18.5 39.5q0 27 16.5 67t43.5 88t61.5 100t70.5 103q84 119 193 252
q-77 -57 -147 -118t-133 -119t-117.5 -110.5t-99 -91.5t-79 -62t-56.5 -23q-19 0 -37 14t-18 43q0 28 20.5 69.5t53.5 90t75.5 101t87 103t87.5 95.5t77 79.5t55 54.5t23 20t6 -2q8 -6 12.5 -11t13.5 -26q3 -8 3 -13t-20 -28.5t-53 -59t-75.5 -80t-86.5 -92t-86.5 -95.5
t-75.5 -91t-53 -77.5t-20 -54.5q0 -5 7 -5q13 0 47.5 24.5t83 64.5t107 91.5t118 105t116.5 105t103.5 91.5t78 64.5t40.5 24.5q8 0 18.5 -6t19.5 -15t15.5 -19t6.5 -17l-19.5 -24t-51.5 -64t-72.5 -92t-83.5 -108.5t-83.5 -113.5t-72.5 -107.5t-51.5 -90t-19.5 -60.5
q0 -3 2 -3q12 0 53.5 34t103 90t137 127.5t154 145.5t155 145.5t140 127.5t108.5 90t61 34z" />
    <glyph glyph-name="X" unicode="X" horiz-adv-x="1136" 
d="M1156 671q0 -4 -3 -7q-62 -24 -139 -57q-66 -29 -157.5 -71.5t-200.5 -100.5h1q-3 -1 -9 -5q31 -40 67.5 -84.5t75 -88t78 -82.5t77 -69t72 -48t62.5 -18q9 0 20 2.5t20 7.5q2 1 5 1q4 0 4 -2q0 -3 -2 -3q-6 -5 -25 -15t-52 -10q-52 0 -111.5 34t-121 88t-122 120
t-113.5 130q-55 -32 -101.5 -58t-87.5 -50.5t-78.5 -49t-75.5 -54t-78 -66t-85 -82.5q-6 -6 -14.5 -15.5t-16 -20t-12.5 -20.5t-5 -17q0 -3 0.5 -4t0.5 -3q0 -6 -4.5 -9t-9.5 -3q-9 0 -22 12.5t-13 29.5q0 37 48.5 89.5t129 112.5t183 123t210.5 122q-31 37 -57.5 70.5
t-47.5 58.5t-35.5 41t-21.5 19t-7 8q0 7 17.5 14t37.5 7q23 0 48.5 -22t56.5 -60q12 -15 31.5 -40.5t45.5 -58.5q87 45 169 84.5t150.5 68.5t119 45.5t73.5 16.5q8 0 16.5 -2.5t8.5 -8.5z" />
    <glyph glyph-name="Y" unicode="Y" horiz-adv-x="572" 
d="M869 680q10 -2 18 -5t13 -9t8 -16.5t4 -28.5q0 -9 -7.5 -17t-21.5 -21q-111 -114 -208 -224t-177 -208t-142.5 -180.5t-105 -142t-64 -91.5t-19.5 -30q-8 -10 -18.5 -17t-24.5 -8q-9 -1 -12 8.5t8 29.5q54 104 127.5 211.5t151.5 207.5t155 188.5t138 155t99.5 106.5
t40.5 43q-2 2 -3.5 1t-3.5 -2q-66 -29 -142 -74.5t-152 -98t-147.5 -106.5t-129.5 -99.5t-98.5 -77t-53.5 -38.5q-38 -20 -57.5 -21.5t-33.5 3.5q-22 7 -27.5 26.5t-1.5 44t14.5 50t20.5 43.5q17 32 43.5 67.5t56.5 71.5t61.5 69.5t58.5 61.5t46.5 48t27.5 29t8 12.5t8 1.5
q4 0 5 -1q22 -16 30 -26.5t2.5 -23.5t-23 -32t-46.5 -50q-9 -10 -30 -31t-48 -49t-56.5 -62.5t-56.5 -70.5t-47.5 -72.5t-29.5 -69.5q-1 -6 6 -5q11 2 37.5 18t59.5 38t70 48.5t69 50.5t57 42.5t34 25.5q106 80 197 138t159.5 95.5t108.5 55t44 17.5z" />
    <glyph glyph-name="Z" unicode="Z" horiz-adv-x="1033" 
d="M1129 213q4 -3 4 -8q0 -7 -8 -7h-6q-1 1 -9 1q-45 0 -113 -10t-151 -27q-4 -39 -33 -84.5t-75.5 -90.5t-106.5 -86.5t-127.5 -73.5t-138.5 -51t-138 -19q-54 0 -99.5 9t-78 24t-51 34.5t-18.5 39.5q0 23 33 48t84.5 49.5t115 48t123.5 43t110.5 34t76.5 21.5
q78 22 145.5 38.5t126.5 29.5q10 25 10 41q0 15 -9.5 24t-24.5 14.5t-33 7.5t-34 2q-20 0 -34 -2t-17 -4q-2 -1 -4.5 -2t-4.5 -1q-4 0 -6 2q-8 -2 -14.5 1t-12.5 17q-3 7 -4 13.5t-2 11.5q-3 14 14 20q12 4 50.5 26.5t89 54.5t106 70t103 73t78.5 64.5t33 44.5q0 5 -5 5
q-49 4 -109 -17t-122.5 -55.5t-124 -77t-115 -82.5t-94.5 -71.5t-62 -44.5q-3 -2 -5.5 -3t-5.5 -3q-13 -6 -23 -7.5t-21 6.5q-8 7 -2 14l4 4l4 4q31 26 77 63.5t101 78t115 80.5t118.5 71.5t112 51t96.5 19.5q17 0 33 -1t28.5 -6.5t22 -16.5t13.5 -32q4 -22 -14.5 -50.5
t-51.5 -60t-76.5 -64t-89.5 -63t-90.5 -57t-79.5 -45.5q65 -3 97.5 -31t36.5 -77q63 13 111.5 20.5t80.5 11.5q38 4 66 6h1q4 0 12.5 -4.5t10.5 -6.5zM170 -187q100 0 196.5 33.5t178 83.5t143 108.5t91.5 108.5q-83 -19 -171 -43.5t-171.5 -51t-157.5 -54t-130 -53.5
t-88.5 -49.5t-32.5 -41.5q0 -8 16.5 -15t39 -13t47 -9.5t39.5 -3.5z" />
    <glyph glyph-name="bracketleft" unicode="[" horiz-adv-x="270" 
d="M641 635q2 -6 -3 -9.5t-10 -2.5h-9t-22 0.5t-27.5 0.5h-26.5q-1 -3 -2.5 -6.5t-3.5 -8.5q-7 -14 -34.5 -54.5t-68 -97.5t-90.5 -126.5t-101.5 -141.5t-102 -141t-92 -126t-70.5 -97t-39 -53q-3 -5 -6 -9.5t-7 -9.5q13 0 22 0.5t17.5 1.5t18 2t23.5 3q4 0 6 -3
q9 -10 7 -18t-13 -10q-17 -3 -47 -6t-66 2q-21 2 -23 11.5t7 14.5q-7 8 -4 18q0 1 23 34t61 87t87.5 124t103 145t107.5 150.5t100.5 140.5t82.5 115t54 74q2 3 4 4.5t4 3.5q0 4 1 6q4 7 11 6q3 0 5 -0.5t10 -1t25 -0.5t50 1q17 1 27 -7.5t11 -15.5z" />
    <glyph glyph-name="backslash" unicode="\" horiz-adv-x="473" 
d="M133 767q13 -18 31.5 -60t40.5 -100.5t45.5 -127.5t47 -140t45 -139t38.5 -124.5t28.5 -96.5t14.5 -54q3 -11 -8 -14.5t-17 -1.5q-8 2 -16.5 8t-10.5 14q-3 11 -15.5 52t-32 101t-43 132t-48 146.5t-47.5 144.5t-41 124.5t-29.5 88t-11.5 35.5q-2 8 1 12.5t8 6t11 -0.5
t9 -6z" />
    <glyph glyph-name="bracketright" unicode="]" horiz-adv-x="281" 
d="M529 658q21 -3 23 -12.5t-7 -14.5q7 -7 4 -18q-1 -1 -24 -34t-61 -87t-87.5 -123.5t-102.5 -145t-107 -151t-100.5 -140.5t-82.5 -115t-54 -74q-2 -2 -4 -3.5t-4 -3.5q0 -4 -1 -6q-4 -7 -12 -7q-3 0 -5 0.5t-9.5 1t-24.5 0.5t-50 -1q-17 -1 -27.5 8t-11.5 15q-1 7 4 10.5
t10 2.5h9t22 -0.5t27.5 -1t26.5 -0.5q1 7 6 15q7 14 34.5 54.5t68 97.5t90.5 127t101.5 141.5t102 141t92 126.5t70.5 97t39 53q3 4 6 8.5t7 9.5h-23t-17 -1t-17.5 -2t-23.5 -3q-3 -1 -6 2q-9 10 -7 18.5t13 10.5q17 2 47 5.5t66 -1.5z" />
    <glyph glyph-name="asciicircum" unicode="^" horiz-adv-x="420" 
d="M406 400q-2 0 -21 -17t-45.5 -40.5t-55 -48t-47.5 -40.5q-12 -11 -21 -6.5t-13.5 15t-5 22t3.5 14.5q55 47 91.5 78.5t60.5 51.5t36.5 30.5t19.5 15.5t10 7t7 5q8 4 19.5 3t20.5 -6.5t13.5 -15t-1.5 -21.5q-1 -2 -8 -16.5t-17 -35.5t-21.5 -46t-21.5 -47.5t-17 -39.5
t-8 -23q-1 -10 -8 -9t-13.5 8t-10.5 18t1 23q9 20 14.5 32.5t10 23.5t10 23.5t15.5 33.5q2 6 2 8z" />
    <glyph glyph-name="underscore" unicode="_" horiz-adv-x="695" 
d="M624 43q10 -2 11.5 -7.5t-1.5 -12.5q-6 -16 -23 -19q-7 -1 -35.5 -2.5t-70.5 -3t-93.5 -3.5t-104.5 -4q-124 -4 -277 -9q-3 -2 -7.5 2t-7 11t-1 16.5t11.5 20.5q1 1 26.5 2.5t66.5 2.5t93 2.5t106.5 2.5t107 1.5t95.5 0.5h70.5t32.5 -1z" />
    <glyph glyph-name="grave" unicode="`" horiz-adv-x="326" 
d="M231 290q-3 1 -19 18.5t-33.5 39.5t-30 41.5t-6.5 25.5q9 8 21.5 11.5t24.5 4t22 -1t13 -3.5q9 -3 10 -10q10 -31 20.5 -50.5t19 -31.5t14.5 -18.5t9 -11.5t1 -10.5t-9.5 -9t-21.5 -3t-35 8.5z" />
    <glyph glyph-name="a" unicode="a" horiz-adv-x="376" 
d="M487 235q1 2 5 3.5t4 -4.5q0 -10 -3.5 -15.5t-4.5 -6.5q-39 -41 -83.5 -88.5t-86 -88.5t-76 -68t-53.5 -27q-17 0 -28 17t-11 39q0 14 12 40t31 58q-21 -22 -43.5 -43.5t-43 -38t-37 -27t-26.5 -10.5q-6 0 -16.5 3.5t-21 12t-18 24t-7.5 39.5q0 20 12 46.5t32 53.5t45 53
t51 46.5t51 33t44 12.5q16 0 29.5 -6t23.5 -16t15.5 -22t5.5 -25q0 -1 -0.5 -1t-0.5 -1q22 25 31 25q5 0 11 -5.5t11 -14t8 -17.5t3 -15q0 -3 -11.5 -19.5t-28 -39.5t-36.5 -49.5t-36.5 -51t-28 -44.5t-11.5 -29q0 -2 2 -2q6 0 26 16.5t47 42t58.5 56.5t61 61t54 55t38.5 38
zM37 5q12 0 32 12.5t44.5 32.5t51.5 46.5t53 53.5q-5 2 -8.5 6t-3.5 9q0 3 8.5 11t18.5 18.5t18.5 23.5t8.5 25q0 11 -11 11q-9 0 -29 -13t-44.5 -34.5t-50 -48t-47 -53.5t-35 -51t-13.5 -41q0 -8 7 -8z" />
    <glyph glyph-name="b" unicode="b" horiz-adv-x="374" 
d="M484 235q2 2 6 3.5t4 -4.5q0 -10 -3.5 -15.5t-5.5 -6.5q-8 -8 -19.5 -16.5t-27.5 -17.5q-13 -8 -41 -18t-65 -23q-19 -34 -46 -67.5t-58.5 -60.5t-66.5 -44t-69 -17q-28 0 -50 8.5t-34 19.5l-10.5 -16.5t-5.5 -8.5t-3 -3.5t-2 -0.5q-12 -2 -26 24q-2 6 4 23q11 28 34 70
t54 92t67 104.5t72.5 108t71 102.5t62.5 87t46.5 62t23.5 29q10 8 14 8q5 0 11 -6t11 -14t8 -17t3 -16q0 -2 -5 -10t-13 -19q-27 -37 -43 -58.5t-29 -38t-27 -34.5t-36 -48.5t-55 -79t-85 -126.5q24 24 48.5 46.5t45.5 40t37.5 28t25.5 10.5q23 0 40.5 -23t17.5 -54
q0 -16 -5.5 -35.5t-15.5 -41.5q30 11 54 21.5t38 18.5q18 11 30.5 20t17.5 14zM306 283q-12 0 -37 -21t-58 -54t-72.5 -74.5t-81.5 -83.5q34 17 80 35t94 35q18 24 33 48t25 45.5t15.5 38.5t5.5 27q0 4 -4 4zM39 0q49 0 92.5 27.5t78.5 67.5q-30 -11 -58.5 -22t-52 -21.5
t-41.5 -21t-27 -19.5q-2 -2 -3 -5t-3 -5q1 0 5 -0.5t9 -0.5z" />
    <glyph glyph-name="c" unicode="c" horiz-adv-x="274" 
d="M385 235q1 2 5 3.5t4 -4.5q0 -10 -3.5 -15.5t-4.5 -6.5q-24 -25 -60.5 -65t-80 -78.5t-92.5 -66t-98 -27.5q-36 0 -55.5 19t-19.5 53q0 39 24.5 86.5t61.5 89t79.5 69.5t77.5 28q6 0 18.5 -2.5t24.5 -8.5t21.5 -16.5t9.5 -26.5q0 -20 -12 -43t-27.5 -42t-31 -31.5
t-21.5 -12.5q-8 0 -15 6t-7 12q0 4 4 7q18 14 34 31t27.5 33t18.5 29.5t7 22.5q0 10 -10 10q-14 0 -36.5 -14.5t-48 -38t-51 -53.5t-46 -60t-33.5 -58t-13 -48q0 -6 3 -8.5t18 -2.5q47 0 93 24.5t88 60.5t79.5 75.5t67.5 69.5z" />
    <glyph glyph-name="d" unicode="d" horiz-adv-x="377" 
d="M637 604q0 -6 -17 -29q-1 -2 -19.5 -27t-48 -65.5t-67 -93t-76.5 -107.5t-76 -109t-66 -98.5t-46.5 -75.5t-17.5 -40q0 -2 3 -2q6 0 23.5 15.5t42 40t54 55.5t58.5 61.5t56 58.5t47 47q2 2 5.5 3.5t3.5 -4.5q0 -10 -3.5 -15.5t-4.5 -6.5q-53 -56 -99.5 -107t-84 -89.5
t-66 -61.5t-45.5 -23q-18 0 -29 17t-11 38q0 13 21.5 52.5t56.5 94.5q-23 -25 -50.5 -52.5t-54 -51t-48.5 -39t-34 -15.5q-6 0 -17 3.5t-21.5 12t-18 24t-7.5 39.5q0 20 12 46.5t32 53.5t45 53t51.5 46.5t51.5 33t44 12.5q16 0 29.5 -6t23 -16t15 -22t5.5 -25q0 -3 -2 -9
q30 46 63.5 94.5t65.5 94.5t61.5 87.5t53 74t39.5 53t21 24.5q10 8 13 8q6 0 11.5 -6t10.5 -14t8 -17t3 -16zM37 5q12 0 32 12.5t45 32.5t51.5 46.5t52.5 53.5q-11 5 -11 15q0 3 8.5 11t18 18.5t18 23.5t8.5 25q0 11 -11 11q-9 0 -29 -13t-44.5 -34.5t-50 -48t-47 -53.5
t-35 -51t-13.5 -41q0 -8 7 -8z" />
    <glyph glyph-name="e" unicode="e" horiz-adv-x="282" 
d="M393 235q1 2 5 3.5t4 -4.5q0 -10 -3.5 -15.5t-4.5 -6.5q-8 -8 -26.5 -28.5t-44.5 -47t-58.5 -55t-67.5 -52t-71.5 -39t-70.5 -15.5q-36 0 -55.5 19t-19.5 53q0 26 10.5 55t28.5 58t41.5 55.5t49 47t51.5 32.5t50 12q8 0 20.5 -2.5t24.5 -8.5t20.5 -16.5t8.5 -26.5
q0 -26 -13.5 -48t-34.5 -39.5t-46.5 -31t-50 -22t-45 -13t-30.5 -3.5q-14 -23 -21.5 -43t-7.5 -37q0 -6 3 -8.5t18 -2.5q52 0 99.5 25t89.5 60.5t78.5 75t68.5 69.5zM248 270q-14 0 -34.5 -12.5t-43.5 -33t-45.5 -47t-41.5 -53.5q29 7 60 23.5t56.5 36.5t42 40.5t16.5 35.5
q0 10 -10 10z" />
    <glyph glyph-name="f" unicode="f" horiz-adv-x="192" 
d="M303 235q2 2 5.5 3.5t3.5 -4.5q0 -10 -3.5 -15.5t-4.5 -6.5q-15 -16 -49.5 -43.5t-75.5 -57t-81.5 -56.5t-67.5 -41v-1q0 -39 -12 -83t-31.5 -88t-44 -84.5t-49.5 -71.5t-47.5 -49.5t-38.5 -18.5q-13 0 -25 13.5t-12 44.5q0 27 17.5 70t46.5 94.5t67 110t80 117t85 114
t81 103t69.5 83t49.5 53.5l6 6q5 4 12 0q19 -8 22.5 -32.5t-19.5 -52.5q-9 -11 -30.5 -37.5t-51 -64t-65.5 -83t-73 -94.5q24 13 54.5 32.5t62.5 42t63 47.5t56 50zM-197 -361q10 0 27.5 14t37.5 38.5t41 57t39 69t30.5 74.5t15.5 75q-39 -54 -75 -104.5t-63.5 -93.5
t-43.5 -74.5t-16 -46.5q0 -3 1.5 -6t5.5 -3z" />
    <glyph glyph-name="g" unicode="g" horiz-adv-x="364" 
d="M475 235q1 2 5 3.5t4 -4.5q0 -10 -3.5 -15.5t-4.5 -6.5q-45 -48 -82.5 -83t-75.5 -65q-30 -24 -63 -47.5t-74 -49.5q-5 -7 -9.5 -13t-9.5 -13q-77 -105 -136.5 -182.5t-112.5 -128t-104 -75.5t-109 -25q-27 0 -48.5 18t-21.5 46q0 33 37 70t98 78t138.5 86.5t157.5 93.5
q24 34 51 71.5t57 79.5q-19 -19 -38.5 -37t-36.5 -31.5t-31 -21.5t-23 -8q-6 0 -17 3.5t-21.5 12t-18 24t-7.5 39.5q0 20 12 46.5t32 53.5t45 53t51.5 46.5t51.5 33t44 12.5q16 0 29.5 -6t23 -16t15 -22t5.5 -25v-2q22 25 30 25q5 0 11 -5.5t11 -14t8 -17.5t3 -15
q0 -3 -6.5 -13t-17.5 -25q-12 -18 -28 -39q-14 -18 -32.5 -43.5t-40.5 -55.5q24 17 46 33t43 33q38 30 78 66t85 78zM33 5q12 0 32.5 12.5t45 32.5t51 46.5t52.5 53.5q-11 5 -11 15q0 3 8.5 11t18 18.5t18 23.5t8.5 25q0 11 -11 11q-9 0 -29 -13t-44.5 -34.5t-50 -48
t-47 -53.5t-35 -51t-13.5 -41q0 -8 7 -8zM-315 -434q48 13 88.5 36.5t79.5 60t79.5 87t89.5 117.5q-38 -23 -81.5 -50t-94.5 -59q-59 -38 -97.5 -66.5t-61 -49.5t-31 -35.5t-8.5 -23.5q0 -11 8 -15t18 -4q5 0 11 2z" />
    <glyph glyph-name="h" unicode="h" horiz-adv-x="409" 
d="M520 235q2 2 5.5 3.5t3.5 -4.5q0 -10 -3.5 -15.5t-4.5 -6.5q-33 -35 -70.5 -76t-74 -77t-69 -60t-55.5 -24q-18 0 -28.5 17t-10.5 38q0 19 15.5 51t35.5 64.5t38 58.5t23 33q16 21 16 29q0 3 -3 3q-11 0 -33 -15t-50.5 -39t-60 -53.5t-61.5 -59t-55 -55.5t-41 -43
q-14 -21 -21 -32.5t-10.5 -17t-5 -6.5t-3.5 -1q-5 -1 -11.5 4.5t-13.5 19.5q-3 7 3 23q11 28 34 70t54 92t67 104.5t73 108t71.5 102.5t62.5 87t46.5 62t23.5 29q10 8 13 8q6 0 11.5 -6t10.5 -14t8 -17t3 -16q0 -6 -17 -29q-29 -40 -45.5 -61.5t-30.5 -39.5t-30 -38.5
t-42.5 -58t-68 -99t-107.5 -160.5q28 27 63.5 59.5t70 60.5t63.5 47t45 19q17 0 34 -20.5t17 -55.5q0 -6 -10.5 -22.5t-26.5 -38.5t-34.5 -46.5t-34.5 -47.5t-26.5 -42t-10.5 -28q0 -3 3 -3q15 0 37 18.5t53.5 50t72 74.5t92.5 92z" />
    <glyph glyph-name="i" unicode="i" horiz-adv-x="164" 
d="M209 349q-14 2 -18 13t6 25q9 14 26 21.5t31 5.5q15 -2 18.5 -13t-5.5 -25q-10 -14 -27 -21.5t-31 -5.5zM275 235q2 2 5.5 3.5t3.5 -4.5q0 -10 -3.5 -15.5t-4.5 -6.5q-15 -16 -34.5 -38t-42.5 -46t-47 -47.5t-48 -42.5t-46 -30.5t-39 -11.5q-18 0 -28.5 17t-10.5 39
q0 13 10 36t26 50.5t35 56t36.5 51.5t32 38t20.5 15q5 0 11 -6t11 -14t8 -17.5t3 -15.5q0 -4 -10.5 -19t-26.5 -36.5t-35 -47t-35 -49t-26.5 -42.5t-10.5 -28q0 -2 3 -2q18 0 46.5 22.5t62 55t69 69.5t65.5 66z" />
    <glyph glyph-name="j" unicode="j" horiz-adv-x="194" 
d="M238 349q-14 2 -17.5 13t5.5 25q10 14 26.5 21.5t31.5 5.5q14 -2 18 -13t-6 -25q-9 -14 -26 -21.5t-32 -5.5zM305 235q1 2 5 3.5t4 -4.5q0 -10 -3.5 -15.5t-4.5 -6.5q-45 -48 -82.5 -83t-75.5 -65q-31 -25 -65 -48.5t-76 -50.5q-81 -114 -143.5 -196t-117 -135
t-106 -78.5t-110.5 -25.5q-27 0 -48.5 18t-21.5 46q0 32 36.5 69t96.5 77.5t136.5 85t156.5 92.5q49 72 106.5 154.5t130.5 176.5q17 22 30.5 36t19.5 14t11.5 -6t10.5 -14t8 -17.5t3 -15.5q0 -3 -8 -15t-21 -30q-35 -49 -67.5 -93t-61.5 -86q25 17 48.5 34t45.5 35
q38 30 78 66t85 78zM-485 -434q51 14 93.5 40.5t82 64t78 86.5t79.5 108q-37 -23 -79.5 -49.5t-92.5 -57.5q-59 -38 -97.5 -66.5t-61 -49.5t-31 -35.5t-8.5 -23.5q0 -11 8 -15t18 -4q5 0 11 2z" />
    <glyph glyph-name="k" unicode="k" horiz-adv-x="323" 
d="M443 604q0 -2 -5 -10t-13 -19q-28 -40 -45 -61.5t-30.5 -39.5t-29.5 -38.5t-42.5 -58t-68 -99.5t-107.5 -161q33 32 66.5 60.5t64 52t56.5 41t43 26.5q6 3 14 0.5t14 -8.5t9.5 -13.5t2.5 -13.5q-1 -2 -5 -4q-3 -2 -29.5 -16.5t-59.5 -34t-64 -39.5t-43 -32q-2 -2 -4 -3
q10 -2 19 -5.5t13 -12.5q9 -20 20.5 -47t27.5 -52t35 -42.5t43 -17.5q8 0 21 4.5t16 4.5q6 0 6 -5q0 -3 -6 -8t-15.5 -9.5t-21.5 -8t-25 -3.5q-35 0 -63 19t-49 45.5t-35.5 55.5t-21.5 49q0 -1 -1 -1q-2 -2 -16 -15t-32.5 -31t-37.5 -37t-31 -34q-9 -13 -13.5 -20t-6.5 -10
t-3 -4t-3 -1q-5 -1 -11.5 4.5t-13.5 19.5q-3 7 3 23q11 28 34 70t54 92t67 104.5t72.5 108t71 102.5t62.5 87t46.5 62t23.5 29q10 8 14 8q5 0 11 -6t11 -14t8 -17t3 -16z" />
    <glyph glyph-name="l" unicode="l" horiz-adv-x="186" 
d="M446 604q0 -2 -5 -10t-13 -19q-1 -2 -18.5 -26t-45.5 -62.5l-64 -88t-73 -102t-72.5 -104t-63 -94t-44.5 -72.5t-17 -39q0 -2 2 -2q6 0 22.5 13.5t39 35t49.5 48.5t54 55t52.5 53.5t45.5 44.5q2 2 5.5 3.5t3.5 -4.5q0 -10 -3.5 -15.5t-4.5 -6.5q-53 -56 -96.5 -102.5
t-78 -80t-60 -52t-42.5 -18.5t-28 17t-11 38q0 11 16.5 43.5t44.5 77.5t63.5 99.5t73.5 109.5t75 107.5t67.5 95t51.5 70t27 32.5q10 8 14 8q5 0 11 -6t11 -14t8 -17t3 -16z" />
    <glyph glyph-name="m" unicode="m" horiz-adv-x="629" 
d="M740 235q2 2 5.5 3.5t3.5 -4.5q0 -10 -3 -15.5t-5 -6.5q-15 -15 -37 -40t-48.5 -53.5t-55 -57t-55.5 -51.5t-50.5 -37.5t-39.5 -14.5q-18 0 -28.5 17t-10.5 38q0 19 14.5 48t33 57.5t35.5 51.5t22 30q8 11 12.5 18t4.5 11q0 3 -3 3q-13 0 -39.5 -17.5t-58 -44t-65 -58
t-61.5 -58.5t-46 -46t-19 -21l5 14q-2 -4 -2.5 -6t-1.5 -4t-1 -4q-18 0 -28.5 17t-10.5 39q0 19 16.5 49t37.5 60t40 54t24 31q7 10 11.5 17.5t4.5 11.5q0 3 -3 3q-13 0 -42 -21t-64 -52t-73 -68t-69 -68.5t-51.5 -53.5t-21.5 -24l1 4q-10 -13 -13 -13q-5 -1 -15.5 8
t-17.5 23q-2 4 -2 9.5t5 13.5q13 20 32 51t41 65t45 68t43 61q8 11 12.5 20l7.5 15t6.5 9t11.5 3q9 0 19.5 -14.5t14.5 -29.5q2 -9 -1 -15t-11 -17q-7 -10 -18 -25.5t-23.5 -33.5t-26.5 -38t-27 -39q28 27 64.5 61t73 64t67.5 51t47 21q17 0 34.5 -20.5t17.5 -55.5
q0 -5 -8.5 -18.5t-21.5 -31.5t-29.5 -39t-32.5 -43q24 22 58 52t68.5 56t64 44.5t46.5 18.5q8 0 17.5 -5.5t17 -15t12.5 -23.5t5 -32q0 -6 -10 -21t-25 -34t-32 -41t-32 -42.5t-25 -37.5t-10 -26q0 -2 2 -2q15 0 41 20.5t61 55t77.5 79.5t90.5 93z" />
    <glyph glyph-name="n" unicode="n" horiz-adv-x="409" 
d="M520 235q1 2 5 3.5t4 -4.5q0 -10 -3.5 -15.5t-4.5 -6.5q-15 -15 -37.5 -40t-49 -53.5t-55 -57t-55.5 -51.5t-50.5 -37.5t-39.5 -14.5q-17 0 -28 17t-11 38q0 13 8.5 33t22 43.5t29.5 47.5t30.5 44.5t25.5 35.5t14 20q16 21 16 29q0 3 -3 3q-13 0 -41.5 -21t-64 -52
t-73 -68t-69 -68.5t-52 -53.5t-21.5 -24l2 4q-11 -13 -14 -13q-5 -1 -15 8t-18 23q-4 10 4 23q12 20 31.5 51t41.5 65t44.5 68t42.5 61q9 11 13 20t7.5 15t7 9t10.5 3q9 0 20 -14.5t15 -29.5q2 -9 -1 -15t-11 -17q-8 -10 -19 -25.5t-23.5 -33.5t-26.5 -38t-27 -39
q28 27 64.5 61t73 64t67.5 51t48 21t34 -20.5t17 -55.5q0 -6 -11.5 -23.5t-29.5 -41t-38 -50t-38 -51t-29.5 -44.5t-11.5 -29q0 -2 2 -2q15 0 41 20.5t61.5 55t78 79.5t90.5 93z" />
    <glyph glyph-name="o" unicode="o" horiz-adv-x="282" 
d="M402 234q0 -10 -3.5 -15.5t-4.5 -6.5q-11 -11 -30 -23t-42 -24t-48.5 -23t-49.5 -19q-23 -32 -50 -63t-54 -55t-51 -39t-42 -15q-20 0 -33.5 23.5t-13.5 50.5q0 21 12 51.5t28 59t31.5 49t21.5 23.5q7 23 25 44.5t41 37.5t47.5 25.5t42.5 9.5q7 0 18.5 -4.5t22.5 -12
t19 -17.5t8 -21q0 -20 -14.5 -51t-37.5 -66q27 9 51 21t44 24t33.5 22t19.5 15q2 2 5.5 3.5t3.5 -4.5zM264 283q-12 0 -30 -8.5t-38 -21.5t-38 -30t-30 -33q4 -4 4 -10t-16 -30q3 -9 13.5 -12t21.5 -3q28 0 60 8q27 41 44 77.5t17 55.5q0 7 -8 7zM30 -16q18 0 38.5 10.5
t41.5 28.5t41.5 41.5t38.5 48.5q-23 -5 -35 -5q-31 0 -55 19q-12 -17 -25 -36.5t-24 -38t-18 -36t-7 -29.5q0 -3 4 -3z" />
    <glyph glyph-name="p" unicode="p" horiz-adv-x="407" 
d="M518 235q2 2 5.5 3.5t3.5 -4.5q0 -10 -3.5 -15.5t-4.5 -6.5q-15 -15 -47 -34q-13 -8 -41.5 -18t-65.5 -23q-19 -34 -45.5 -67.5t-58 -60.5t-66.5 -44t-69 -17t-58 11.5t-33 25.5q-41 -45 -78.5 -87.5t-68.5 -78.5q-29 -39 -54 -74t-44.5 -62t-32 -45.5t-16.5 -24.5
q-5 -9 -11 -5t-15 12q-8 8 -12.5 23t1.5 29q4 6 10 14q51 79 95 143.5t91 130.5t104 142t134 178q2 3 3 5.5t1 6.5q2 16 14 6q23 -19 29.5 -42.5t-10.5 -46.5q-20 -26 -42 -56t-46 -63q42 44 82.5 84.5t75 72t59.5 50t36 18.5q12 0 22.5 -6.5t18.5 -17t13 -24.5t5 -29
q0 -16 -5.5 -35.5t-15.5 -41.5q30 11 53.5 21.5t37.5 18.5q18 11 31 20t18 14zM340 283q-8 0 -31 -19t-56 -50.5t-73 -73t-83 -87.5q34 17 78 33.5t90 33.5q18 24 33 48t25 45.5t15.5 38.5t5.5 27q0 4 -4 4zM73 0q49 0 92.5 27.5t78.5 67.5q-34 -12 -66 -24.5t-57.5 -24.5
t-42 -23.5t-20.5 -21.5q1 0 5 -0.5t10 -0.5z" />
    <glyph glyph-name="q" unicode="q" horiz-adv-x="342" 
d="M362 254q0 -26 -6.5 -42.5t-17.5 -36.5q-14 -20 -46 -63t-72 -97v-2q0 -39 -12 -83t-31.5 -88t-44 -84.5t-49.5 -71.5t-47.5 -49.5t-38.5 -18.5q-13 0 -25 13.5t-12 44.5q0 26 14.5 64t38.5 83t55.5 94.5t65.5 97.5q-21 -18 -38.5 -29t-27.5 -11q-6 0 -17 3.5t-21.5 12
t-18 24t-7.5 39.5q0 25 11.5 53t30 55t43 52t51 44t52 30t47.5 11q27 0 46.5 -16t24.5 -37q28 34 32 34q7 0 13.5 -5t6.5 -21zM61 5q11 0 28.5 10.5t39 28.5t45 41t46.5 48q19 25 36 46.5t31 39.5q-1 4 -1 10t-1 11.5t-3.5 9.5t-8.5 4q-11 0 -31.5 -12.5t-45 -32.5
t-50 -45.5t-46 -52.5t-33.5 -52.5t-13 -45.5q0 -8 7 -8zM-8 -361q16 0 46 30.5t61 78.5t55.5 106t29.5 113q-36 -49 -71.5 -99.5t-63.5 -94t-45.5 -77t-17.5 -48.5q0 -3 1.5 -6t4.5 -3z" />
    <glyph glyph-name="r" unicode="r" horiz-adv-x="387" 
d="M498 235q2 2 5.5 3.5t3.5 -4.5q0 -10 -3.5 -15.5t-4.5 -6.5q-5 -5 -21.5 -23t-41 -37.5t-54.5 -35.5t-60 -16q-17 0 -28 18.5t-11 39.5q0 12 4 26.5t9 27.5q6 15 14 30q0 3 -3 3q-9 0 -32.5 -19t-53.5 -48t-63.5 -64t-64 -66t-54 -54t-32.5 -29l2 4q-10 -12 -14 -13
q-5 -1 -15 8.5t-18 23.5q-2 3 -1.5 9t5.5 13q12 20 33 53.5t45 71t48 74t44 63.5q9 11 13 20t7.5 15t7 9t10.5 3q9 0 20 -14.5t15 -29.5q2 -9 -1 -15t-11 -17t-20 -28t-26.5 -37.5t-30 -43.5t-30.5 -44q29 28 68.5 65t78.5 70t71 56t46 23q17 0 29.5 -17.5t12.5 -40.5
q0 -9 -10 -23.5t-21.5 -30.5t-21.5 -33t-10 -31q0 -2 2 -2q23 0 48.5 14t48 32.5t40 36.5t26.5 26z" />
    <glyph glyph-name="s" unicode="s" horiz-adv-x="262" 
d="M382 234q0 -10 -3.5 -15.5t-4.5 -6.5q-11 -11 -34.5 -25t-54 -29.5t-66 -31t-71.5 -29.5q1 -8 1.5 -15.5t0.5 -16.5q0 -61 -34.5 -92.5t-85.5 -31.5q-22 0 -42 12.5t-35 30.5t-24 39t-9 38q0 10 9 10q2 0 2.5 -0.5t2.5 -0.5q26 -3 73.5 8t102.5 30q-2 20 -6 43t-4 45
t8.5 40t23.5 34t35 30.5t43 30.5q3 3 7 3q11 0 19.5 -17.5t8.5 -34.5q0 -15 -16 -28t-35.5 -29t-35.5 -36.5t-16 -48.5q0 -5 0.5 -9.5t1.5 -9.5q37 14 73 29.5t67 30.5t54 29t35 25q2 2 5.5 3.5t3.5 -4.5zM112 83q-49 -18 -89 -31t-57 -16q10 -11 26 -20.5t45 -9.5
q10 0 23.5 5t24.5 14.5t19 23.5t8 32v2z" />
    <glyph glyph-name="t" unicode="t" horiz-adv-x="206" 
d="M536 446q8 -1 14 -9t6 -13t-5 -5h-4q-2 0 -4 0.5t-5 0.5q-63 0 -113 -2.5t-89 -7.5q-7 -9 -15.5 -20t-21 -29t-32 -46t-48 -71t-69 -104t-95.5 -145q-18 -27 -27 -41t-13 -20.5t-5.5 -7.5t-3.5 -1q-5 -1 -11.5 4t-13.5 20q-3 6 3 22q11 29 34 71t52 90q48 100 66 161.5
t15 93.5q-17 3 -26 11.5t-9 19.5q0 10 7 10q9 2 28 5q17 2 46 4t78 4q41 57 69.5 95.5t35.5 44.5q10 8 13 8q6 0 11.5 -6t10.5 -14t8 -17t3 -16q0 -2 -4.5 -9.5t-12.5 -19.5q-17 -22 -28 -37t-19 -26q34 1 74.5 1h88.5q2 0 5 0.5t6 0.5zM151 260q49 73 94 138q-25 -4 -43 -7
t-32 -4q5 -30 -0.5 -61t-18.5 -66z" />
    <glyph glyph-name="u" unicode="u" horiz-adv-x="376" 
d="M487 235q2 2 5.5 3.5t3.5 -4.5q0 -10 -3.5 -15.5t-4.5 -6.5q-42 -44 -80.5 -86.5t-72.5 -76t-61.5 -54t-47.5 -20.5q-13 0 -28.5 13.5t-15.5 48.5q0 17 14.5 47t35.5 63q-33 -35 -64 -66t-58 -54.5t-49 -37.5t-37 -14q-12 0 -28 13.5t-16 48.5q0 12 8 31.5t20.5 42
t29 46.5t33.5 47q13 19 29 39.5t30.5 37.5t26 28t16.5 11t11 -5.5t11 -14t8 -17.5t3 -15q0 -3 -12.5 -21t-31.5 -43.5t-41.5 -55.5t-41.5 -57t-31.5 -48.5t-12.5 -30.5q0 -3 2 -3q9 0 28 13.5t44 35t53 49t56 55.5t53 54t44 45q14 17 25 27.5t16 10.5t11 -6t11 -14t8 -17.5
t3 -15.5q0 -3 -11.5 -19.5t-28 -39.5t-36.5 -50t-36.5 -52t-28 -44.5t-11.5 -28.5q0 -3 2 -3q15 0 36.5 17t51.5 47t69.5 71.5t90.5 90.5z" />
    <glyph glyph-name="v" unicode="v" horiz-adv-x="301" 
d="M380 389q-1 8 5 7t13.5 -8t14.5 -18.5t7 -23.5t-25 -44.5t-64.5 -74.5t-86.5 -87.5t-91 -83.5t-79.5 -62.5t-49.5 -24.5q-12 0 -28 13.5t-16 48.5q0 12 9 32.5t23.5 44t32 48.5t34.5 48q13 19 29 39.5t30.5 37.5t26 28t16.5 11t11 -5.5t11 -14t8 -17.5t3 -15
q0 -3 -13.5 -21.5t-33 -44.5t-43 -56.5t-43 -58.5t-33 -50t-13.5 -31q0 -3 3 -3q11 0 41 23t68.5 59.5t80.5 81.5t76.5 88t56 79t19.5 55z" />
    <glyph glyph-name="w" unicode="w" horiz-adv-x="494" 
d="M574 389q-1 8 5 7t13.5 -8t14.5 -18.5t7 -23.5q0 -16 -27.5 -50t-64.5 -73q-11 -11 -36 -36.5t-57 -57.5t-68 -66t-69.5 -62t-61.5 -46t-44 -18q-12 0 -28 13.5t-16 49.5q0 9 6 24t15.5 34t22.5 40t27 42q-31 -34 -60 -64t-53.5 -52.5t-44 -35.5t-31.5 -13t-28 13.5
t-16 48.5q0 12 8 31.5t20.5 42t29 46.5t33.5 47q13 19 29 39.5t30.5 37.5t26 28t16.5 11t11 -5.5t11 -14t8 -17.5t3 -15q0 -3 -12.5 -21t-31.5 -43.5t-41.5 -55.5t-41.5 -57t-31.5 -48.5t-12.5 -30.5q0 -3 2 -3q7 0 24 13.5t40 35t50 49t53.5 55t51 53.5t43.5 45
q14 17 25 28t16 11q6 0 11.5 -6t10.5 -14t8 -17.5t3 -15.5q0 -3 -13 -22t-32.5 -46.5t-42.5 -59.5t-42.5 -61t-32.5 -51.5t-13 -31.5q0 -2 2 -2q11 0 32 14.5t46.5 37t53 50t52 53t43 45.5t26.5 29q19 22 41 48t40.5 52t30 49t10.5 39z" />
    <glyph glyph-name="x" unicode="x" horiz-adv-x="382" 
d="M493 235q2 2 5.5 3.5t3.5 -4.5q0 -10 -3.5 -15.5t-4.5 -6.5q-21 -23 -53.5 -59t-68 -70t-70.5 -59t-62 -25q-32 0 -48.5 28t-24.5 75q-27 -18 -51.5 -36t-43 -34.5t-29.5 -31t-11 -26.5q0 -5 -6 -5q-2 0 -4 2q-14 8 -23 18.5t-9 22.5q0 13 14 30.5t38 37.5t55 42t64 44
q-2 20 -2 41.5v44.5q-19 -16 -44.5 -38.5t-48.5 -44.5q-2 -2 -4.5 -0.5t-2.5 8.5q0 5 3 10q2 3 4 4q1 1 9.5 10.5t21.5 23t28 29.5t28 29l22 22t10 9q11 0 19 -8t13.5 -22t9 -32.5t5.5 -38.5q45 29 81.5 54t54.5 44q5 5 14 13.5t17 8.5q4 0 8.5 -4.5t8.5 -10.5t7 -13.5
t3 -13.5q0 -9 -16 -24t-43 -33.5t-61 -40.5t-70 -45q1 -21 2 -40.5t2.5 -34.5t3.5 -23.5t7 -8.5q24 0 51 16t56.5 43t63 62t71.5 73z" />
    <glyph glyph-name="y" unicode="y" horiz-adv-x="394" 
d="M505 235q1 2 5 3.5t4 -4.5q0 -10 -3.5 -15.5t-4.5 -6.5q-45 -48 -82.5 -83t-75.5 -65q-31 -25 -65.5 -49t-76.5 -52q-23 -32 -46 -63.5t-43.5 -60t-38 -51.5t-29.5 -38q-45 -57 -84.5 -98.5t-77.5 -68.5t-76.5 -40t-80.5 -13q-27 0 -48.5 18t-21.5 46q0 32 36.5 69
t96 77.5t135.5 85t156 92.5q37 53 79 111.5t80 112.5q-32 -34 -62.5 -64.5t-57 -53t-48 -36t-35.5 -13.5q-12 0 -28 13.5t-16 48.5q0 12 7.5 31.5t20.5 42t29 46.5t33 47q13 19 29 39.5t31 37.5t26.5 28t15.5 11q6 0 11.5 -5.5t10.5 -14t8 -17.5t3 -15q0 -3 -12.5 -21
t-31.5 -43.5t-41 -55.5t-41 -57t-31.5 -48.5t-12.5 -30.5q0 -3 2 -3q9 0 30 15t47.5 39t56.5 53.5t59 59t54 55.5t42 42q30 36 37 36q5 0 11 -6t11 -14t8 -17t3 -16q0 -4 -16 -26.5t-39 -53.5q1 1 -7.5 -11t-24 -33.5t-36 -50t-43.5 -61.5q26 17 49.5 35t46.5 36
q38 30 78 66t85 78zM-21 -230q10 12 27 36.5t40 57.5q-37 -23 -79 -49t-91 -57q-59 -38 -97.5 -66.5t-61 -49.5t-31 -35.5t-8.5 -23.5q0 -11 8 -15t18 -4q5 0 11 2q80 22 141.5 73.5t122.5 130.5z" />
    <glyph glyph-name="z" unicode="z" horiz-adv-x="318" 
d="M438 234q0 -10 -3.5 -15.5t-4.5 -6.5q-82 -77 -178 -148t-193 -137q-5 -57 -27 -109t-55 -97t-72.5 -81.5t-79 -62t-76 -39.5t-61.5 -14q-18 0 -32.5 6t-24.5 15t-15.5 20t-5.5 21q0 34 30.5 70t83 76t122 84.5t148.5 94.5q15 40 15 79q0 11 -1 19.5t-3 14.5q-1 2 -1 3
t-1 3q1 16 14 24q31 25 69 59.5t71 66.5t55.5 56t22.5 28h-2h-29h-14t-15 2q-18 -17 -47 -45t-55 -52q-2 -2 -4.5 -0.5t-2.5 8.5q0 5 3 10q2 3 4 4q22 23 41.5 46.5t32.5 37.5q-17 10 -17 27q0 7 6 7q1 0 5 -2q5 -3 17.5 -4t29.5 -1q18 0 37.5 0.5t35.5 1.5q18 1 37 3
q11 0 20.5 -10.5t9.5 -27.5q0 -8 -2.5 -14t-5.5 -10q-8 -12 -29 -34.5t-48.5 -50t-57.5 -56.5t-57 -54t-47.5 -42.5t-27.5 -20.5q3 -10 5 -19t2 -14q94 61 189 130.5t180 150.5q2 2 5.5 3.5t3.5 -4.5zM-356 -429q30 0 75.5 26t93.5 69t92.5 96.5t71.5 109.5
q-71 -47 -134 -89.5t-110 -79.5t-74 -67.5t-27 -53.5q0 -11 12 -11z" />
    <glyph glyph-name="braceleft" unicode="{" 
d="M732 652q0 -23 -8.5 -43.5t-20 -35.5t-23 -24t-18.5 -9q-8 0 -13 5t-5 7t7 9q3 2 11.5 9.5t18.5 19.5t17.5 28.5t7.5 37.5q0 8 -3.5 18t-11.5 10q-25 0 -55 -26.5t-64.5 -68.5t-71 -92.5t-73 -98.5t-72 -88t-67.5 -59q-5 -3 -5 -7q0 -1 0.5 -2t0.5 -2q2 -8 2 -12
q0 -27 -20 -68.5t-50 -89.5t-65 -97l-65 -91t-50 -72.5t-20 -39.5q0 -6 8 -6q22 0 48.5 15t49.5 33t39.5 33t19.5 16h2q5 0 10 -4.5t5 -9.5q0 -3 -3 -6q-11 -8 -29 -24.5t-40 -33.5t-46.5 -29.5t-47.5 -12.5t-37.5 16t-14.5 42q0 18 19.5 52.5t49.5 77.5t64 90.5t64 91
t49.5 78.5t19.5 54q0 14 -7 20q-3 1 -3 7q0 5 4 11.5t9 9.5q34 20 68 58.5t68.5 85t69.5 94.5t69.5 87.5t69.5 65t70 25.5q30 0 49 -13t19 -42z" />
    <glyph glyph-name="bar" unicode="|" horiz-adv-x="315" 
d="M231 -175q-2 -8 -9 -9q-26 -1 -42 22q-3 4 -3 48.5t2.5 114t6.5 157.5t8.5 180.5t9 182t8 163t5.5 122.5t1 61q-1 8 7.5 9.5t19 -3t19.5 -15t11 -28.5q2 -23 1.5 -78t-3 -129t-6.5 -162t-9 -176t-9.5 -170.5t-8.5 -146t-6.5 -103t-2.5 -40.5z" />
    <glyph glyph-name="braceright" unicode="}" horiz-adv-x="320" 
d="M-184 -187q0 -9 8 -13t19 -4q29 0 61.5 30.5t67.5 76.5t70.5 100.5t70.5 102.5t68.5 82t63.5 39q7 4 7 11q-3 10 -3 22q0 20 19 54t47.5 75t61.5 85t61.5 84t47.5 72t19 48q0 11 -13 11q-23 0 -43 -10t-37.5 -25t-32 -33t-26.5 -33t-21 -25t-15 -10q-9 0 -13 10h-1
q0 5 15 29t40.5 51t60 48.5t72.5 21.5q26 0 38.5 -16.5t12.5 -42.5t-18 -61.5t-45.5 -75.5t-59 -81t-59 -79t-45.5 -70t-18 -52v-3q-1 -17 -21 -20q-27 -3 -56.5 -38t-62 -86t-67.5 -109.5t-72 -108.5t-75.5 -83t-77.5 -33q-16 0 -28 6t-20.5 15.5t-12.5 20.5t-4 20
q0 12 4 23t10 19.5t12 13t9 4.5q6 0 6.5 -5.5t-1.5 -7.5q-5 -6 -14.5 -18.5t-9.5 -31.5z" />
    <glyph glyph-name="asciitilde" unicode="~" horiz-adv-x="531" 
d="M262 114q-37 14 -59 14.5t-38 -6t-29 -15.5t-31 -15q-7 -2 -10.5 1t-4.5 8t0 10.5t4 8.5q20 23 36 39t31 26.5t30.5 16t33.5 6.5q23 1 37.5 -1.5t29.5 -8t34 -14t51 -18.5q22 -7 38 -5.5t28.5 8t22.5 15t21 16.5q7 5 14 3t10 -10q3 -12 -2 -20q-28 -41 -48.5 -63.5
t-45 -28.5t-60 2.5t-93.5 30.5z" />
    <glyph glyph-name="dieresis" unicode="&#xa8;" horiz-adv-x="385" 
d="M193 332q14 5 28 4t23 -18q4 -8 2.5 -17.5t-8 -18.5t-17 -15.5t-24.5 -7.5q-18 -2 -27 7t-9.5 21.5t7.5 25.5t25 19zM364 318q4 -8 2.5 -17.5t-8 -18.5t-17 -15.5t-24.5 -7.5q-18 -2 -26.5 7t-9 21.5t7.5 25.5t24 19q14 5 28 4t23 -18z" />
    <glyph glyph-name="copyright" unicode="&#xa9;" horiz-adv-x="572" 
d="M542 574q12 0 26.5 -4t27 -12t21 -20.5t8.5 -30.5q0 -24 -9.5 -48.5t-22.5 -44t-26.5 -31.5t-20.5 -12q-8 0 -14 6t-6 9t4 6q14 10 26 24.5t21 31t14 33.5t6 32v3q0 8 -4.5 19t-13.5 11t-29 -18.5t-45 -48t-51 -66.5t-48 -75t-36 -73t-14 -60q0 -5 1.5 -7.5t9.5 -2.5
q18 0 41.5 15t44.5 34q25 22 51 50q5 0 11.5 -2.5t6.5 -7.5q0 -4 -3 -5q-20 -21 -38 -43t-35.5 -39t-35.5 -28t-37 -11q-33 0 -46 27t-13 61t12.5 72t32.5 74.5t45 69.5t50.5 58t48.5 39.5t39 14.5zM583 708q25 0 50 -10t45.5 -27t33 -39.5t12.5 -47.5q0 -29 -11 -59
t-27 -54q-3 -5 -9 -6q0 -2 0.5 -4.5t0.5 -4.5v-4q-1 -30 -17 -73.5t-43 -90.5t-63.5 -93.5t-77.5 -83.5t-85 -60t-86 -23q-27 0 -53.5 11t-47 32t-33 51t-12.5 68q0 50 19 108t51.5 115.5t75 111t89.5 94t95.5 65t92.5 24.5zM667 481q5 4 11 14.5t11 25t8.5 31.5t3.5 34
q0 42 -25 68.5t-70 26.5q-43 0 -90 -26t-93 -68.5t-87.5 -97.5t-73 -112t-50 -112.5t-18.5 -99.5q0 -47 24 -75.5t78 -28.5q41 0 83.5 21t82 55t74 77t60.5 87.5t41 86.5t15 74v11q0 8 7 8h3q1 -1 3 -1z" />
    <glyph glyph-name="guillemotleft" unicode="&#xab;" horiz-adv-x="650" 
d="M232 139q18 -9 49 -25.5t60 -38.5t47 -48t9 -52q-4 -6 -7 -9q-9 -6 -12 -1q-2 4 -2 6q-4 14 -18.5 30t-33.5 31.5t-40 29.5t-39.5 25t-32 17.5t-16.5 7.5q-11 2 -12 14t6.5 27.5t22 30.5t33.5 23q15 7 42.5 16t70.5 22.5t104.5 33t145.5 47.5q16 5 16.5 -5t-7 -24.5
t-19.5 -28.5t-22 -17l-25.5 -8.5t-63.5 -20.5t-82.5 -26t-82.5 -26.5t-64 -21t-27 -9.5zM46 180q18 -9 49 -25.5t60 -38.5t47 -48t9 -52q-4 -6 -7 -9q-9 -6 -12 -1q-2 4 -2 6q-4 14 -18.5 30t-33.5 31.5t-40 29.5t-39.5 25t-32 17.5t-16.5 7.5q-11 2 -12 14t6.5 27.5
t22 30.5t33.5 23q15 7 42.5 16t70.5 22.5t104.5 33t145.5 47.5q16 5 16.5 -5t-7 -24.5t-19.5 -28.5t-22 -17l-25.5 -8.5t-63.5 -20.5t-82.5 -26t-82.5 -26.5t-64 -21t-27 -9.5z" />
    <glyph glyph-name="plusminus" unicode="&#xb1;" horiz-adv-x="494" 
d="M338 36q11 0 8 -16t-20 -29q-3 -2 -9.5 -4t-16.5 -2q-23 0 -61 -0.5t-77 -1.5t-74 -2.5t-52 -2.5q-9 0 -12.5 4t-3 10.5t5 14.5t10.5 14q9 9 12 10.5t13 1.5q28 0 63.5 0.5t73 1t74 1t66.5 0.5zM488 294q11 0 6.5 -16t-23.5 -28q-3 -2 -10 -4.5t-16 -2.5h-41t-50 -1
q-20 -30 -37 -56t-27 -42q-5 -9 -13.5 -13.5t-17.5 -5.5t-16.5 0.5t-10.5 6.5q-5 6 -5 8.5t7 12.5q14 21 29 42.5t30 44.5q-30 -1 -55.5 -1.5t-40.5 -2.5q-9 0 -12 4t-1.5 10.5t6.5 14.5t12 14q10 9 13 10.5t14 1.5h47.5t52.5 1q17 26 34.5 51t34.5 50q4 5 12 8.5t16.5 4.5
t15.5 -1.5t9 -9.5q2 -6 -9 -24q-11 -16 -25 -36t-28 -42q26 1 51 1h48z" />
    <glyph glyph-name="guillemotright" unicode="&#xbb;" horiz-adv-x="650" 
d="M377 192q-18 9 -49 25.5t-60 38.5t-47 48t-9 52q4 6 7 9q9 6 12 1q2 -4 2 -6q4 -14 18.5 -30t33.5 -31.5t40 -29.5t39.5 -25t32 -17.5t16.5 -7.5q11 -2 12 -14t-6.5 -27.5t-22 -30.5t-33.5 -23q-15 -7 -42.5 -16t-70.5 -22.5t-104.5 -33t-145.5 -47.5q-16 -5 -16.5 5
t7 24.5t19.5 28.5t22 17l25.5 8.5t63.5 20.5t82.5 26t82.5 26.5t64 21t27 9.5zM563 151q-18 9 -49 25.5t-60 38.5t-47 48t-9 52q4 6 7 9q9 6 12 1q2 -4 2 -6q4 -14 18.5 -30t33.5 -31.5t40 -29.5t39.5 -25t32 -17.5t16.5 -7.5q11 -2 12 -14t-6.5 -27.5t-22 -30.5t-33.5 -23
q-15 -7 -42.5 -16t-70.5 -22.5t-104.5 -33t-145.5 -47.5q-16 -5 -16.5 5t7 24.5t19.5 28.5t22 17l25.5 8.5t63.5 20.5t82.5 26t82.5 26.5t64 21t27 9.5z" />
    <glyph glyph-name="Adieresis" unicode="&#xc4;" horiz-adv-x="772" 
d="M1012 612q0 -7 -5 -12q-22 -25 -49.5 -56t-61.5 -71.5t-74.5 -91t-86.5 -114.5q8 1 14 1t11 1q5 0 9 1q5 0 13 -3.5t16 -8t13.5 -10.5t5.5 -10t-7 -4h-1q-14 1 -17.5 2.5t-11.5 1.5q-8 -1 -19 -2q-9 -1 -22 -2t-30 -3q-2 -2 -2.5 -3.5t-2.5 -3.5q-50 -73 -81.5 -123
t-50 -83t-27.5 -53.5t-13.5 -36t-8 -30t-11.5 -35.5q-2 -3 -6.5 -7t-9.5 -4t-9 7.5t-7 18t-4.5 22t-1.5 18.5q0 33 12.5 68.5t32.5 72t44.5 74t47.5 74.5q2 4 5 7.5t5 7.5q-45 -5 -97 -9.5t-106 -8.5t-106 -6.5t-97 -3.5q-87 -76 -136.5 -140.5t-49.5 -106.5q-2 -14 -16 -14
q-11 0 -22 13t-11 33q0 19 12.5 43.5t35.5 51.5t55 57t70 62q-20 0 -47 1.5t-52 6t-42.5 13t-17.5 23.5q0 7 3.5 12.5t9.5 5.5q2 0 7 -3q14 -11 58 -15t104 -4h27q67 52 144 104.5t154 100.5t149.5 90.5t130 73.5t96 49t47.5 18q3 0 4 -1q1 -2 2 -2.5t2 -2.5q5 2 10.5 4
t12.5 2q14 0 24.5 -7.5t18 -17t11 -19t3.5 -13.5zM262 234q47 2 98 5t102 6.5t98.5 7t87.5 6.5q42 60 85 117.5t80 106t66 84.5t43 54q-95 -38 -186 -84t-175.5 -96.5t-160 -103t-138.5 -103.5zM909 769q14 5 28 4t23 -18q4 -8 2.5 -17.5t-8 -18.5t-17 -15.5t-24.5 -7.5
q-18 -2 -27 7t-9.5 21.5t7.5 25.5t25 19zM1080 755q4 -8 2.5 -17.5t-8 -18.5t-17 -15.5t-24.5 -7.5q-18 -2 -26.5 7t-9 21.5t7.5 25.5t24 19q14 5 28 4t23 -18z" />
    <glyph glyph-name="Odieresis" unicode="&#xd6;" horiz-adv-x="870" 
d="M774 712q64 0 112.5 -18t80 -48t47.5 -69.5t16 -81.5q0 -46 -25 -94.5t-68 -97t-99.5 -94.5t-119 -87.5t-127.5 -76.5t-124.5 -60.5t-110 -39.5t-84.5 -14q-25 0 -49 7.5t-43 23t-30.5 40t-11.5 58.5q0 47 30 100.5t75.5 107.5t99 104.5t100.5 91.5t79 68.5t36 35.5
q1 3 8 1q19 -9 28 -19.5t11 -20.5t-1.5 -19t-10.5 -16q-2 -2 -33.5 -26.5t-77.5 -64.5t-99 -90t-98.5 -103t-75.5 -104.5t-30 -92.5q0 -19 10.5 -30.5t25 -17.5t29.5 -8t24 -2q45 0 116.5 26.5t152.5 71t163 102.5t147.5 121.5t107 127.5t41.5 121q0 37 -14 61t-38.5 37.5
t-59.5 18.5t-77 5q-90 0 -183.5 -28t-181.5 -73t-165.5 -102t-136 -114t-92 -109.5t-33.5 -89.5q0 -11 6 -15q14 -9 26 -10q5 0 10 -3q3 -2 3 -3l-2 -1q-14 -6 -25 -6q-23 0 -38 22t-15 47q0 59 38 123t101 125t145 116t170 96.5t176 65.5t164 24zM812 807q14 5 28 4t23 -18
q4 -8 2.5 -17.5t-8 -18.5t-17 -15.5t-24.5 -7.5q-18 -2 -27 7t-9.5 21.5t7.5 25.5t25 19zM983 793q4 -8 2.5 -17.5t-8 -18.5t-17 -15.5t-24.5 -7.5q-18 -2 -26.5 7t-9 21.5t7.5 25.5t24 19q14 5 28 4t23 -18z" />
    <glyph glyph-name="multiply" unicode="&#xd7;" horiz-adv-x="446" 
d="M509 327q6 4 10 0.5t6 -11t2 -16.5t-3 -17q-1 -3 -20.5 -16.5t-51 -34.5t-72.5 -47t-85 -54q6 -29 12.5 -57t11.5 -50t8.5 -37t5.5 -18q2 -4 -2.5 -9t-9.5 -7q-16 -4 -28.5 1.5t-17.5 24.5q-5 17 -12 50t-15 72q-45 -29 -88 -55.5t-76.5 -46.5t-54.5 -32t-22 -12
q-3 2 -6 3.5t-4 5.5q-5 16 1.5 34t17.5 22q72 45 125.5 79t95.5 60q-9 50 -16 92.5t-7 60.5q0 6 6.5 10t14.5 4.5t15 -3t8 -12.5q0 -1 2 -11.5t5.5 -27t8 -38.5t9.5 -46q43 27 72.5 45.5t53.5 33t46.5 28.5t53.5 32z" />
    <glyph glyph-name="Udieresis" unicode="&#xdc;" horiz-adv-x="705" 
d="M964 603q0 -2 0.5 -4t0.5 -4q0 -13 -24 -47t-61.5 -81.5t-83 -103.5t-88.5 -111t-78 -105t-51 -85l-7.5 -15t-11.5 -7q-9 0 -21.5 8t-12.5 34q0 23 23 64.5t59 92t78.5 104t81.5 102t69 86t40 54.5q-11 -2 -47.5 -29.5t-89.5 -71.5t-118.5 -99t-135 -112t-138.5 -112
t-129.5 -97.5t-107.5 -68.5t-73 -26q-31 0 -44.5 17t-13.5 45q0 21 15.5 55t42 75.5t61 89t72 95t76.5 94t73.5 86t62.5 70.5t45 49q11 11 18.5 25t12.5 14q6 0 14.5 -6.5t16.5 -15.5t14 -19t6 -17q0 -5 -20.5 -30t-54.5 -63.5t-77 -86.5t-88 -99.5t-88 -103t-77 -95.5
t-54.5 -78.5t-20.5 -51.5q0 -9 5.5 -11t14.5 -2q24 0 71 27.5t108 72.5t131.5 102.5t142 118t139.5 118t124 102.5t95 72.5t53 27.5q3 0 11 -3.5t17 -9.5t15.5 -13t6.5 -14v-3zM649 732q14 5 28 4t23 -18q4 -8 2.5 -17.5t-8 -18.5t-17 -15.5t-24.5 -7.5q-18 -2 -27 7
t-9.5 21.5t7.5 25.5t25 19zM820 718q4 -8 2.5 -17.5t-8 -18.5t-17 -15.5t-24.5 -7.5q-18 -2 -26.5 7t-9 21.5t7.5 25.5t24 19q14 5 28 4t23 -18z" />
    <glyph glyph-name="germandbls" unicode="&#xdf;" horiz-adv-x="469" 
d="M586 235q2 1 5.5 2.5t3.5 -4.5q0 -10 -3 -15t-5 -6q-11 -11 -33.5 -25t-52.5 -29.5t-65.5 -31t-71.5 -29.5q-1 -3 -1.5 -5.5t-1.5 -5.5q-5 -21 -19 -46.5t-33.5 -47.5t-42 -37t-44.5 -15q-44 0 -62.5 24.5t-18.5 68.5v3v6.5t2 5.5q-2 6 -2 8q0 8 11 8q26 2 68 13t92 28
q0 1 2 3q17 38 17 56q0 10 -3 17t-8 16v1h-1q-5 0 -13 12t-8 30q0 9 3 16t9 9q22 6 51 24.5t60 44.5t61.5 57.5t54 63.5t38 63.5t14.5 57.5q0 14 -4.5 23.5t-18.5 9.5q-21 0 -54 -25.5t-72 -67.5t-82 -96t-85 -111.5t-80.5 -113.5t-68.5 -101.5t-49 -77t-22 -38.5
q-6 -11 -15 -11q-4 0 -7.5 2t-3.5 6q0 2 17 32t45.5 77.5t66.5 107t80.5 121.5t87.5 121t87 105t78.5 74t63.5 28q12 0 26 -6t25.5 -17.5t19 -29t7.5 -40.5q0 -58 -33 -112.5t-79 -100.5t-94 -79t-78 -48l3 -3q9 -17 14 -32.5t5 -33.5q0 -9 -1 -14q35 13 68.5 27.5t63 28.5
t52 28t34.5 26zM210 4q20 0 40.5 20.5t37.5 43.5q-41 -14 -72.5 -24t-47.5 -12q2 -2 6 -8q7 -7 16.5 -13.5t19.5 -6.5z" />
    <glyph glyph-name="adieresis" unicode="&#xe4;" horiz-adv-x="376" 
d="M487 235q1 2 5 3.5t4 -4.5q0 -10 -3.5 -15.5t-4.5 -6.5q-39 -41 -83.5 -88.5t-86 -88.5t-76 -68t-53.5 -27q-17 0 -28 17t-11 39q0 14 12 40t31 58q-21 -22 -43.5 -43.5t-43 -38t-37 -27t-26.5 -10.5q-6 0 -16.5 3.5t-21 12t-18 24t-7.5 39.5q0 20 12 46.5t32 53.5t45 53
t51 46.5t51 33t44 12.5q16 0 29.5 -6t23.5 -16t15.5 -22t5.5 -25q0 -1 -0.5 -1t-0.5 -1q22 25 31 25q5 0 11 -5.5t11 -14t8 -17.5t3 -15q0 -3 -11.5 -19.5t-28 -39.5t-36.5 -49.5t-36.5 -51t-28 -44.5t-11.5 -29q0 -2 2 -2q6 0 26 16.5t47 42t58.5 56.5t61 61t54 55t38.5 38
zM37 5q12 0 32 12.5t44.5 32.5t51.5 46.5t53 53.5q-5 2 -8.5 6t-3.5 9q0 3 8.5 11t18.5 18.5t18.5 23.5t8.5 25q0 11 -11 11q-9 0 -29 -13t-44.5 -34.5t-50 -48t-47 -53.5t-35 -51t-13.5 -41q0 -8 7 -8zM247 398q14 5 28 4t23 -18q4 -8 2.5 -17.5t-8 -18.5t-17 -15.5
t-24.5 -7.5q-18 -2 -27 7t-9.5 21.5t7.5 25.5t25 19zM418 384q4 -8 2.5 -17.5t-8 -18.5t-17 -15.5t-24.5 -7.5q-18 -2 -26.5 7t-9 21.5t7.5 25.5t24 19q14 5 28 4t23 -18z" />
    <glyph glyph-name="odieresis" unicode="&#xf6;" horiz-adv-x="282" 
d="M402 234q0 -10 -3.5 -15.5t-4.5 -6.5q-11 -11 -30 -23t-42 -24t-48.5 -23t-49.5 -19q-23 -32 -50 -63t-54 -55t-51 -39t-42 -15q-20 0 -33.5 23.5t-13.5 50.5q0 21 12 51.5t28 59t31.5 49t21.5 23.5q7 23 25 44.5t41 37.5t47.5 25.5t42.5 9.5q7 0 18.5 -4.5t22.5 -12
t19 -17.5t8 -21q0 -20 -14.5 -51t-37.5 -66q27 9 51 21t44 24t33.5 22t19.5 15q2 2 5.5 3.5t3.5 -4.5zM264 283q-12 0 -30 -8.5t-38 -21.5t-38 -30t-30 -33q4 -4 4 -10t-16 -30q3 -9 13.5 -12t21.5 -3q28 0 60 8q27 41 44 77.5t17 55.5q0 7 -8 7zM30 -16q18 0 38.5 10.5
t41.5 28.5t41.5 41.5t38.5 48.5q-23 -5 -35 -5q-31 0 -55 19q-12 -17 -25 -36.5t-24 -38t-18 -36t-7 -29.5q0 -3 4 -3zM189 410q14 5 28 4t23 -18q4 -8 2.5 -17.5t-8 -18.5t-17 -15.5t-24.5 -7.5q-18 -2 -27 7t-9.5 21.5t7.5 25.5t25 19zM360 396q4 -8 2.5 -17.5t-8 -18.5
t-17 -15.5t-24.5 -7.5q-18 -2 -26.5 7t-9 21.5t7.5 25.5t24 19q14 5 28 4t23 -18z" />
    <glyph glyph-name="divide" unicode="&#xf7;" horiz-adv-x="438" 
d="M170 49q14 5 28 4t23 -18q4 -8 2.5 -17.5t-8 -18.5t-17 -15.5t-24.5 -7.5q-18 -2 -26.5 7t-9 21.5t7.5 25.5t24 19zM350 235q-18 -2 -26.5 7t-9 21.5t7.5 25.5t24 19q14 5 28 4t23 -18q4 -8 2.5 -17.5t-8 -18.5t-17 -15.5t-24.5 -7.5zM381 173q11 0 8 -16t-20 -29
q-3 -2 -9.5 -4t-15.5 -2q-24 0 -50 -0.5t-51.5 -1.5t-48.5 -2.5t-41 -2.5q-9 0 -12.5 4t-2.5 10.5t5 14t10 13.5q9 10 12 11t14 1q28 0 51.5 0.5t47 1.5t48.5 1.5t55 0.5z" />
    <glyph glyph-name="udieresis" unicode="&#xfc;" horiz-adv-x="376" 
d="M487 235q2 2 5.5 3.5t3.5 -4.5q0 -10 -3.5 -15.5t-4.5 -6.5q-42 -44 -80.5 -86.5t-72.5 -76t-61.5 -54t-47.5 -20.5q-13 0 -28.5 13.5t-15.5 48.5q0 17 14.5 47t35.5 63q-33 -35 -64 -66t-58 -54.5t-49 -37.5t-37 -14q-12 0 -28 13.5t-16 48.5q0 12 8 31.5t20.5 42
t29 46.5t33.5 47q13 19 29 39.5t30.5 37.5t26 28t16.5 11t11 -5.5t11 -14t8 -17.5t3 -15q0 -3 -12.5 -21t-31.5 -43.5t-41.5 -55.5t-41.5 -57t-31.5 -48.5t-12.5 -30.5q0 -3 2 -3q9 0 28 13.5t44 35t53 49t56 55.5t53 54t44 45q14 17 25 27.5t16 10.5t11 -6t11 -14t8 -17.5
t3 -15.5q0 -3 -11.5 -19.5t-28 -39.5t-36.5 -50t-36.5 -52t-28 -44.5t-11.5 -28.5q0 -3 2 -3q15 0 36.5 17t51.5 47t69.5 71.5t90.5 90.5zM226 397q14 5 28 4t23 -18q4 -8 2.5 -17.5t-8 -18.5t-17 -15.5t-24.5 -7.5q-18 -2 -27 7t-9.5 21.5t7.5 25.5t25 19zM397 383
q4 -8 2.5 -17.5t-8 -18.5t-17 -15.5t-24.5 -7.5q-18 -2 -26.5 7t-9 21.5t7.5 25.5t24 19q14 5 28 4t23 -18z" />
    <glyph glyph-name="uni0401" unicode="&#x401;" horiz-adv-x="640" 
d="M1059 611q2 -7 0 -13q-3 -10 -11 -20t-19 -10q-38 -2 -94.5 -2.5t-124.5 -0.5t-143 -2t-149 -7q-2 -2 -4 -4.5t-4 -4.5q0 -1 -16.5 -19.5t-44 -50t-63 -72.5t-74.5 -86q59 4 116 6t102 2.5t74 -0.5t33 -3q6 -2 6.5 -7t-4.5 -9q-15 -10 -32 -10q-20 -1 -51.5 -1.5
t-73.5 -1.5t-92.5 -3.5t-107.5 -7.5q-44 -51 -86 -101t-75 -91t-53.5 -68.5t-20.5 -34.5q0 -3 11 -3q26 0 66.5 7t88 17t97.5 22.5t94 22.5t78 17t49 7q3 0 9 -2t12 -5t10 -6.5t4 -6.5q0 -4 -5 -4t-10.5 1.5t-8.5 1.5q-15 0 -54 -8t-89.5 -20.5t-107.5 -27t-107.5 -27
t-89.5 -20.5t-54 -8q-60 0 -60 41q0 10 6 24.5t27.5 44.5t63 81.5t111.5 135.5q-18 -3 -38 -5.5t-37 -5.5t-28.5 -6t-14.5 -5q-5 -5 -10 -2.5t-7.5 9t-1 14t8.5 13.5q4 3 22.5 7t42.5 7.5t50 6.5t45 5q40 48 89 106t109 130q-79 -9 -146 -25.5t-111 -42.5q-3 -2 -6.5 1
t-6.5 8t-4 10.5t2 8.5q8 15 53 38q42 22 112.5 36t155.5 23q8 10 11.5 17t5 11t2.5 4.5t6 -2.5q18 -11 27 -25q87 7 175.5 10t162.5 3.5t125.5 -1t64.5 -2.5q3 0 7 -3t5 -6zM581 730q14 5 28 4t23 -18q4 -8 2.5 -17.5t-8 -18.5t-17 -15.5t-24.5 -7.5q-18 -2 -27 7t-9.5 21.5
t7.5 25.5t25 19zM752 716q4 -8 2.5 -17.5t-8 -18.5t-17 -15.5t-24.5 -7.5q-18 -2 -26.5 7t-9 21.5t7.5 25.5t24 19q14 5 28 4t23 -18z" />
    <glyph glyph-name="uni0404" unicode="&#x404;" horiz-adv-x="620" 
d="M68 227l4 6q43 53 100 103.5t123 95.5t136.5 83t139.5 65t132.5 42.5t116.5 15.5q48 0 78 -18q5 -3 13.5 -21t8.5 -39q0 -25 -16.5 -50t-43 -48t-59.5 -43.5t-65.5 -35.5t-61.5 -23.5t-47 -8.5h-7q-3 0 -9.5 5t-12.5 11.5t-11 14t-5 13.5q0 5 4 8.5t14 4.5q40 6 89.5 28
t93 50.5t73 58.5t29.5 52q0 18 -22 18q-30 0 -82 -14.5t-116.5 -41.5t-137 -64t-143.5 -81.5t-136 -94.5q-56 -44 -101 -90q37 0 73 1h66q11 0 8.5 -16t-19.5 -29q-3 -2 -10 -4t-16 -2q-24 0 -61.5 -0.5t-76.5 -1.5h-9q-28 -36 -47 -73q-30 -56 -30 -111q0 -21 5 -40
t19.5 -33t41.5 -22t71 -8q68 0 133.5 21.5t123.5 54.5t106.5 71t84 71t56.5 55.5t23 23.5q1 0 1.5 0.5t2.5 0.5q8 0 18 -8t10 -16q0 -6 -25.5 -31t-68.5 -58.5t-99.5 -70.5t-118.5 -68.5t-125.5 -52t-120.5 -20.5q-36 0 -69.5 8t-58.5 27t-40 48.5t-15 73.5q0 52 25 106
q11 24 26 48q-30 -1 -46 -2q-9 0 -12.5 4t-3 10.5t5 14.5t10.5 14q8 9 11 10.5t14 1.5h58z" />
    <glyph glyph-name="uni0406" unicode="&#x406;" horiz-adv-x="784" 
d="M1169 637q7 -2 11 -7.5t4 -13.5q0 -16 -10.5 -22t-28.5 -6q-31 1 -58 1.5t-52 0.5q-3 -14 -23 -46.5t-53 -78t-77.5 -101t-97.5 -114.5h17q3 0 9 -4t11 -9t9 -10t4 -7q0 -4 -6 -4q-8 2 -18 4q-8 2 -20 3.5t-27 3.5q-72 -78 -153.5 -154.5t-165.5 -137t-167 -98
t-156 -37.5q-33 0 -59 12t-44.5 31t-28 42.5t-9.5 47.5q0 46 40.5 102.5t124.5 105t211.5 81.5t301.5 33h21t18 -1q46 49 87 97t75.5 92t60.5 81.5t43 66.5h-10q-33 0 -63 -0.5t-60 -1.5t-61.5 -3t-66.5 -4q-4 0 -7.5 -1.5t-6.5 -1.5q-5 0 -7.5 7.5t-2.5 11.5
q0 10 28.5 17.5t73.5 12t99.5 6.5t106.5 3q0 1 0.5 1.5t0.5 1.5q4 4 6 4q3 0 6 -3q2 -2 4 -3q53 1 93.5 1h57.5q5 0 15 -2zM91 -158q62 0 135 33.5t150 88.5t154 125.5t148 144.5h-23q-161 0 -281 -33.5t-199.5 -83.5t-119 -108.5t-39.5 -108.5q0 -30 20 -44t55 -14z" />
    <glyph glyph-name="uni0407" unicode="&#x407;" horiz-adv-x="784" 
d="M1169 637q7 -2 11 -7.5t4 -13.5q0 -16 -10.5 -22t-28.5 -6q-31 1 -58 1.5t-52 0.5q-3 -14 -23 -46.5t-53 -78t-77.5 -101t-97.5 -114.5h17q3 0 9 -4t11 -9t9 -10t4 -7q0 -4 -6 -4q-8 2 -18 4q-8 2 -20 3.5t-27 3.5q-72 -78 -153.5 -154.5t-165.5 -137t-167 -98
t-156 -37.5q-33 0 -59 12t-44.5 31t-28 42.5t-9.5 47.5q0 46 40.5 102.5t124.5 105t211.5 81.5t301.5 33h21t18 -1q46 49 87 97t75.5 92t60.5 81.5t43 66.5h-10q-33 0 -63 -0.5t-60 -1.5t-61.5 -3t-66.5 -4q-4 0 -7.5 -1.5t-6.5 -1.5q-5 0 -7.5 7.5t-2.5 11.5
q0 10 28.5 17.5t73.5 12t99.5 6.5t106.5 3q0 1 0.5 1.5t0.5 1.5q4 4 6 4q3 0 6 -3q2 -2 4 -3q53 1 93.5 1h57.5q5 0 15 -2zM91 -158q62 0 135 33.5t150 88.5t154 125.5t148 144.5h-23q-161 0 -281 -33.5t-199.5 -83.5t-119 -108.5t-39.5 -108.5q0 -30 20 -44t55 -14z
M894 730q14 5 28 4t23 -18q4 -8 2.5 -17.5t-8 -18.5t-17 -15.5t-24.5 -7.5q-18 -2 -27 7t-9.5 21.5t7.5 25.5t25 19zM1065 716q4 -8 2.5 -17.5t-8 -18.5t-17 -15.5t-24.5 -7.5q-18 -2 -26.5 7t-9 21.5t7.5 25.5t24 19q14 5 28 4t23 -18z" />
    <glyph glyph-name="uni040E" unicode="&#x40e;" horiz-adv-x="1015" 
d="M730 102q4 6 8 13q9 15 19 31q-81 -19 -167 -42q-88 -25 -171.5 -51.5t-157.5 -54t-130 -53.5t-88.5 -49.5t-32.5 -41.5q0 -8 16.5 -15t39 -13t47 -9.5t39.5 -3.5q100 0 196.5 33.5t178 83.5t143.5 109q35 33 60 63zM855 167q-27 -38 -50 -72q-5 -8 -10 -17
q-29 -46 -75.5 -91t-106.5 -86.5t-127.5 -73.5t-138.5 -51t-138 -19q-54 0 -99.5 9t-78 24t-51 34.5t-18.5 39.5q0 23 33 48t84.5 49.5t115 48t123.5 43t110.5 34t76.5 21.5q78 22 146 39q66 16 124 29q2 2 4 5l13 20q34 52 70 103q84 119 193 252q-77 -57 -147 -118
q-37 -32 -83.5 -73.5t-92.5 -79.5q-49 -39 -86 -62t-59 -23q-19 0 -35.5 14t-13.5 43q3 28 27.5 69.5t62.5 90.5q19 23 47.5 57t66.5 74q43 45 77 79.5t55 54.5t23 20t6 -2q8 -6 12.5 -11t13.5 -26q3 -8 3 -13t-20 -28.5t-53 -59t-75 -79.5q-202 -223 -204 -243q0 -5 7 -5
q13 0 50 24.5t90 64.5q45 35 88.5 70t75.5 64q57 51 103.5 91t78 64.5t40.5 24.5q5 0 12 -3q3 -1 7 -3q10 -6 19 -15t15.5 -19t6.5 -17l-19 -24q-20 -24 -52 -64t-72.5 -92t-83.5 -108q-37 -49 -72 -98q36 7 67 12q48 7 80 11q38 4 66 6h1q4 0 12.5 -4.5t10.5 -6.5
q4 -3 4 -8q0 -7 -8 -7h-6q-1 1 -9 1q-45 0 -113 -10q-57 -8 -124 -22zM1130 696q-3 -2 -26.5 -3.5t-51.5 -1t-51 3t-24 10.5q-1 12 4 24t12.5 22t15 16.5t10.5 7.5q8 5 14 2q31 -12 52.5 -16t36 -5t23.5 -0.5t15 -0.5t9 -6t1 -13t-11.5 -18.5t-28.5 -21.5z" />
    <glyph glyph-name="uni0410" unicode="&#x410;" horiz-adv-x="772" 
d="M1012 612q0 -7 -5 -12q-22 -25 -49.5 -56t-61.5 -71.5t-74.5 -91t-86.5 -114.5q8 1 14 1t11 1q5 0 9 1q5 0 13 -3.5t16 -8t13.5 -10.5t5.5 -10t-7 -4h-1q-14 1 -17.5 2.5t-11.5 1.5q-8 -1 -19 -2q-9 -1 -22 -2t-30 -3q-2 -2 -2.5 -3.5t-2.5 -3.5q-50 -73 -81.5 -123
t-50 -83t-27.5 -53.5t-13.5 -36t-8 -30t-11.5 -35.5q-2 -3 -6.5 -7t-9.5 -4t-9 7.5t-7 18t-4.5 22t-1.5 18.5q0 33 12.5 68.5t32.5 72t44.5 74t47.5 74.5q2 4 5 7.5t5 7.5q-45 -5 -97 -9.5t-106 -8.5t-106 -6.5t-97 -3.5q-87 -76 -136.5 -140.5t-49.5 -106.5q-2 -14 -16 -14
q-11 0 -22 13t-11 33q0 19 12.5 43.5t35.5 51.5t55 57t70 62q-20 0 -47 1.5t-52 6t-42.5 13t-17.5 23.5q0 7 3.5 12.5t9.5 5.5q2 0 7 -3q14 -11 58 -15t104 -4h27q67 52 144 104.5t154 100.5t149.5 90.5t130 73.5t96 49t47.5 18q3 0 4 -1q1 -2 2 -2.5t2 -2.5q5 2 10.5 4
t12.5 2q14 0 24.5 -7.5t18 -17t11 -19t3.5 -13.5zM262 234q47 2 98 5t102 6.5t98.5 7t87.5 6.5q42 60 85 117.5t80 106t66 84.5t43 54q-95 -38 -186 -84t-175.5 -96.5t-160 -103t-138.5 -103.5z" />
    <glyph glyph-name="uni0411" unicode="&#x411;" horiz-adv-x="958" 
d="M250 124q-55 -11 -99 -26q-48 -16 -81 -33.5t-50 -34.5t-17 -31q0 -7 12.5 -21.5t42.5 -29.5t80.5 -26t126.5 -11t152 13.5t145.5 35.5t130 51t105 60.5t70 63.5t25.5 60q0 25 -24.5 37t-62 16.5t-82.5 3.5t-85 -1q-18 0 -32 2t-18 17q0 2 -0.5 3t-0.5 3t1 3q65 9 111 8
q47 0 87 -4.5t69.5 -18t46.5 -38.5t17 -65q0 -39 -46.5 -92t-133.5 -101.5t-211.5 -82t-281.5 -33.5q-42 0 -89 8t-86.5 27t-65.5 49.5t-26 75.5q0 30 26 54t67.5 41.5t94.5 29.5q52 12 104 20l8 10q30 43 92.5 120.5t115 138t95.5 106.5q-69 -9 -122.5 -20t-90 -22.5
t-55 -21t-17.5 -15.5q1 -5 -3 -3.5t-6 7.5q-6 22 13 42t49 35.5t64 26.5t60 16q40 8 82 13.5t91 10.5q26 28 29 28h-1q2 3 4 5.5t3 5.5q3 7 9 7q5 0 17.5 -11.5t17.5 -27.5q88 5 202.5 7.5t270.5 2.5q12 0 15 -9q2 -4 -3.5 -11t-16 -14t-24.5 -12t-29 -5q-1 0 -21 -0.5
t-52.5 -2t-76 -3.5t-92.5 -4.5t-100.5 -5.5t-100.5 -7q-14 -15 -35 -35t-48.5 -47.5t-61.5 -64t-94.5 -108t-97.5 -117.5q-2 -3 -4 -5l10 1q32 3 59.5 4t50.5 1h25t29 -2t23.5 -6.5t9.5 -13.5t-8 -9q-4 0 -6 2t-6 2q-14 1 -28 1.5t-29 0.5q-42 0 -80 -2q-37 -3 -71 -7
q-24 -29 -45 -58q-33 -44 -55.5 -80t-22.5 -51q0 -7 6 -8q2 -1 3.5 -1t1.5 -2t-6 -7.5t-14 -5.5q-16 0 -22.5 13.5t-6.5 27.5q0 21 13.5 51.5t36.5 68.5q11 18 24 37z" />
    <glyph glyph-name="uni0412" unicode="&#x412;" horiz-adv-x="958" 
d="M1098 557q0 -26 -18 -54t-48.5 -54.5t-71 -51.5t-84.5 -46t-89.5 -37.5t-86.5 -26.5q47 0 87 -4.5t69.5 -18t46.5 -38.5t17 -65q0 -39 -46.5 -92t-133.5 -101.5t-211.5 -82t-281.5 -33.5q-42 0 -89 8t-86.5 27t-65.5 49.5t-26 75.5q0 30 26 54t67.5 41.5t94.5 29.5
t107 20q29 45 74.5 103.5t97 122.5t105 128t98.5 120q4 5 4 11t11 3q9 -3 15 -10t9.5 -15.5t4.5 -17t-1 -12.5q-2 -6 -5 -9q-44 -53 -89 -108q-38 -47 -83.5 -101.5t-86.5 -104.5q4 4 7 6t5 4q2 1 30.5 28t74 66t104.5 84.5t121 84.5t123 65t112 26q41 0 66.5 -20.5
t25.5 -53.5zM581 300q5 3 42.5 15.5t91 33t114.5 47.5t112.5 58t85.5 65.5t34 69.5q0 6 -5 10t-31 4q-39 0 -91.5 -22.5t-112.5 -58.5t-123.5 -82.5t-123.5 -95t-113.5 -94.5t-92.5 -82q32 3 59.5 4t50.5 1h25t29 -2t23.5 -6.5t9.5 -13.5t-8 -9q-4 0 -6 2t-6 2
q-14 1 -28 1.5t-29 0.5q-42 0 -80 -2.5t-73 -6.5q-12 -11 -21.5 -20t-15.5 -15q-8 -7 -13 -12q-10 0 -14.5 4t-5.5 9q-9 9 -7 21q-60 -12 -107.5 -28t-80.5 -33.5t-50 -34.5t-17 -31q0 -7 12.5 -21.5t42.5 -29.5t80.5 -26t126.5 -11t152 13.5t145.5 35.5t130 51t105 60.5
t70 63.5t25.5 60q0 25 -24.5 37t-62 16.5t-82.5 3.5t-85 -1q-18 0 -32 2t-18 17q0 2 -0.5 3t-0.5 3t1 3q-15 4 -15 12q0 5 7 9z" />
    <glyph glyph-name="uni0413" unicode="&#x413;" horiz-adv-x="484" 
d="M1043 609q2 -4 -3.5 -11t-16 -14t-24.5 -12t-29 -5q-1 0 -21 -0.5t-52.5 -2t-76 -3.5t-92.5 -4.5t-100.5 -5.5t-100.5 -7q-14 -15 -35 -35t-48.5 -47.5t-61.5 -64t-94.5 -108t-97.5 -118t-70 -90.5t-55.5 -80t-22.5 -51q0 -7 6 -8q2 -1 3.5 -1t1.5 -2t-6 -7.5t-14 -5.5
q-16 0 -22.5 13.5t-6.5 27.5q0 21 13.5 51.5t36.5 68t53.5 80.5t93 120.5t115 138t95.5 106.5q-69 -9 -122.5 -20t-90 -22.5t-55 -21t-17.5 -15.5q1 -5 -3 -3.5t-6 7.5q-6 22 13 42t49 35.5t64 26.5t60 16q40 8 82 13.5t91 10.5q26 28 29 28h-1q2 3 4 5.5t3 5.5q3 7 9 7
q5 0 17.5 -11.5t17.5 -27.5q88 5 202.5 7.5t270.5 2.5q12 0 15 -9z" />
    <glyph glyph-name="uni0414" unicode="&#x414;" horiz-adv-x="813" 
d="M183 -80q-41 -8 -54 -9q-3 -6 -7 -6q-10 0 -22 11t-12 28t25 56t66 91.5t122.5 148.5t122.5 141.5t66 74t25 30.5q0 1 1 3q2 4 6 4q3 0 10 -5t14.5 -13t13.5 -18t6 -20q0 -9 -4 -14.5t-7 -9.5q-20 -22 -156.5 -168.5t-236.5 -284.5q119 27 219.5 62.5t220 113t185 141
t107 127.5t41.5 121q0 37 -14 61t-38.5 37.5t-59.5 18.5t-77 5q-90 0 -183.5 -28t-181.5 -73t-165.5 -102t-136 -114t-92 -109.5t-33.5 -89.5q0 -11 6 -15q14 -9 26 -10q5 0 10 -3q3 -2 3 -3l-2 -1q-14 -6 -25 -6q-23 0 -38 22t-15 47q0 59 38 123t101 125t145 116t170 96.5
t176 65.5t164 24q64 0 112.5 -18t80 -48t47.5 -69.5t16 -81.5q0 -46 -25 -94.5t-68 -97t-99.5 -94.5t-119 -87.5t-127.5 -76.5t-185.5 -76t-161.5 -49z" />
    <glyph glyph-name="uni0415" unicode="&#x415;" horiz-adv-x="640" 
d="M1059 611q2 -7 0 -13q-3 -10 -11 -20t-19 -10q-38 -2 -94.5 -2.5t-124.5 -0.5t-143 -2t-149 -7q-2 -2 -4 -4.5t-4 -4.5q0 -1 -16.5 -19.5t-44 -50t-63 -72.5t-74.5 -86q59 4 116 6t102 2.5t74 -0.5t33 -3q6 -2 6.5 -7t-4.5 -9q-15 -10 -32 -10q-20 -1 -51.5 -1.5
t-73.5 -1.5t-92.5 -3.5t-107.5 -7.5q-44 -51 -86 -101t-75 -91t-53.5 -68.5t-20.5 -34.5q0 -3 11 -3q26 0 66.5 7t88 17t97.5 22.5t94 22.5t78 17t49 7q3 0 9 -2t12 -5t10 -6.5t4 -6.5q0 -4 -5 -4t-10.5 1.5t-8.5 1.5q-15 0 -54 -8t-89.5 -20.5t-107.5 -27t-107.5 -27
t-89.5 -20.5t-54 -8q-60 0 -60 41q0 10 6 24.5t27.5 44.5t63 81.5t111.5 135.5q-18 -3 -38 -5.5t-37 -5.5t-28.5 -6t-14.5 -5q-5 -5 -10 -2.5t-7.5 9t-1 14t8.5 13.5q4 3 22.5 7t42.5 7.5t50 6.5t45 5q40 48 89 106t109 130q-79 -9 -146 -25.5t-111 -42.5q-3 -2 -6.5 1
t-6.5 8t-4 10.5t2 8.5q8 15 53 38q42 22 112.5 36t155.5 23q8 10 11.5 17t5 11t2.5 4.5t6 -2.5q18 -11 27 -25q87 7 175.5 10t162.5 3.5t125.5 -1t64.5 -2.5q3 0 7 -3t5 -6z" />
    <glyph glyph-name="uni0416" unicode="&#x416;" horiz-adv-x="1136" 
d="M669 493q61 31 119 59q82 39 150.5 68t119 45.5t73.5 16.5q8 0 16.5 -2.5t8.5 -8.5q0 -4 -3 -7q-62 -24 -139 -57q-66 -29 -157.5 -71.5t-200.5 -100.5h1q-3 -1 -9 -5q31 -40 67.5 -84.5t75 -88t78 -82.5t77 -69t72 -48t62.5 -18q9 0 20 2.5t20 7.5q2 1 5 1q4 0 4 -2
q0 -3 -2 -3q-6 -5 -25 -15t-52 -10q-52 0 -111.5 34t-121 88t-121.5 120q-53 57 -99 113q-29 -45 -58 -89q-41 -63 -80.5 -122.5t-73 -108t-57.5 -82.5t-33 -45q-7 -9 -16.5 -2.5t-11.5 12.5q-4 7 -4.5 17.5t4.5 16.5q7 9 31 45t58.5 88t76 116t84.5 130l3 6
q-20 -12 -39 -23q-47 -26 -88 -50.5t-78.5 -49t-75.5 -54t-78 -66t-85 -82.5q-6 -6 -14.5 -15.5t-16 -20t-12.5 -20.5t-5 -17q0 -3 0.5 -4t0.5 -3q0 -6 -4.5 -9t-9.5 -3q-9 0 -22 12.5t-13 29.5q0 37 48.5 89.5t129 112.5t183 123t210.5 122q-31 37 -57.5 70.5t-47.5 58.5
t-35.5 41t-21.5 19t-7 8q0 7 17.5 14t37.5 7q23 0 48.5 -22t56.5 -60l32 -40q13 -18 30 -40q38 58 67 103q31 48 50.5 78t20.5 31q5 7 10.5 7.5t9.5 -3t6 -9t1 -10.5q-6 -21 -27 -62t-52 -94q-10 -17 -21 -34z" />
    <glyph glyph-name="uni0417" unicode="&#x417;" horiz-adv-x="1033" 
d="M1129 213q4 -3 4 -8q0 -7 -8 -7h-6q-1 1 -9 1q-45 0 -113 -10t-151 -27q-4 -39 -33 -84.5t-75.5 -90.5t-106.5 -86.5t-127.5 -73.5t-138.5 -51t-138 -19q-54 0 -99.5 9t-78 24t-51 34.5t-18.5 39.5q0 23 33 48t84.5 49.5t115 48t123.5 43t110.5 34t76.5 21.5
q78 22 145.5 38.5t126.5 29.5q10 25 10 41q0 15 -9.5 24t-24.5 14.5t-33 7.5t-34 2q-20 0 -34 -2t-17 -4q-2 -1 -4.5 -2t-4.5 -1q-4 0 -6 2q-8 -2 -14.5 1t-12.5 17q-3 7 -4 13.5t-2 11.5q-3 14 14 20q12 4 50.5 26.5t89 54.5t106 70t103 73t78.5 64.5t33 44.5q0 5 -5 5
q-49 4 -109 -17t-122.5 -55.5t-124 -77t-115 -82.5t-94.5 -71.5t-62 -44.5q-3 -2 -5.5 -3t-5.5 -3q-13 -6 -23 -7.5t-21 6.5q-8 7 -2 14l4 4l4 4q31 26 77 63.5t101 78t115 80.5t118.5 71.5t112 51t96.5 19.5q17 0 33 -1t28.5 -6.5t22 -16.5t13.5 -32q4 -22 -14.5 -50.5
t-51.5 -60t-76.5 -64t-89.5 -63t-90.5 -57t-79.5 -45.5q65 -3 97.5 -31t36.5 -77q63 13 111.5 20.5t80.5 11.5q38 4 66 6h1q4 0 12.5 -4.5t10.5 -6.5zM170 -187q100 0 196.5 33.5t178 83.5t143 108.5t91.5 108.5q-83 -19 -171 -43.5t-171.5 -51t-157.5 -54t-130 -53.5
t-88.5 -49.5t-32.5 -41.5q0 -8 16.5 -15t39 -13t47 -9.5t39.5 -3.5z" />
    <glyph glyph-name="uni0418" unicode="&#x418;" horiz-adv-x="576" 
d="M375 25q-19 -33 -28 -53.5t-13.5 -36t-8 -30t-11.5 -35.5q-2 -3 -6.5 -7t-9.5 -4t-9 7.5t-7 18t-4.5 22t-1.5 18.5q0 33 12.5 68.5t32.5 72.5q13 24 29 49q24 41 54 86q34 52 70 103q84 119 193 252q-77 -57 -147 -118t-133 -119t-117.5 -110.5t-99 -91.5t-79 -62
t-56.5 -23q-19 0 -37 14t-18 43q0 28 20.5 69.5t53.5 90t75.5 101t87 103t87.5 95.5t77 79.5t55 54.5t23 20t6 -2q8 -6 12.5 -11t13.5 -26q3 -8 3 -13t-20 -28.5t-53 -59t-75.5 -80t-86.5 -92t-86.5 -95.5t-75.5 -91t-53 -77.5t-20 -54.5q0 -5 7 -5q13 0 47.5 24.5t83 64.5
t107 91.5t118 105t116.5 105t103.5 91.5t78 64.5t40.5 24.5q8 0 18.5 -6t19.5 -15t15.5 -19t6.5 -17l-19 -24q-20 -24 -52 -64t-72.5 -92t-83.5 -108.5t-83 -113.5q-33 -46 -60 -87q-25 -39 -40 -67z" />
    <glyph glyph-name="uni0419" unicode="&#x419;" horiz-adv-x="576" 
d="M375 25q-19 -33 -28 -53.5t-13.5 -36t-8 -30t-11.5 -35.5q-2 -3 -6.5 -7t-9.5 -4t-9 7.5t-7 18t-4.5 22t-1.5 18.5q0 33 12.5 68.5t32.5 72.5q13 24 29 49q24 41 54 86q34 52 70 103q84 119 193 252q-77 -57 -147 -118t-133 -119t-117.5 -110.5t-99 -91.5t-79 -62
t-56.5 -23q-19 0 -37 14t-18 43q0 28 20.5 69.5t53.5 90t75.5 101t87 103t87.5 95.5t77 79.5t55 54.5t23 20t6 -2q8 -6 12.5 -11t13.5 -26q3 -8 3 -13t-20 -28.5t-53 -59t-75.5 -80t-86.5 -92t-86.5 -95.5t-75.5 -91t-53 -77.5t-20 -54.5q0 -5 7 -5q13 0 47.5 24.5t83 64.5
t107 91.5t118 105t116.5 105t103.5 91.5t78 64.5t40.5 24.5q8 0 18.5 -6t19.5 -15t15.5 -19t6.5 -17l-19 -24q-20 -24 -52 -64t-72.5 -92t-83.5 -108.5t-83 -113.5q-33 -46 -60 -87q-25 -39 -40 -67zM709 691q-3 -2 -26.5 -3.5t-51.5 -1t-51 3t-24 10.5q-1 12 4 24t12.5 22
t15 16.5t10.5 7.5q8 5 14 2q31 -12 52.5 -16t36 -5t23.5 -0.5t15 -0.5t9 -6t1 -13t-11.5 -18.5t-28.5 -21.5z" />
    <glyph glyph-name="uni041A" unicode="&#x41a;" horiz-adv-x="799" 
d="M241 304q24 12 56 26q66 75 123 137.5t100 107.5q50 53 92 95q2 5 6 5t10.5 -5t13 -13t11.5 -17.5t5 -18.5q0 -7 -3.5 -12.5t-12 -14.5t-24 -23t-39 -37t-56 -57t-76.5 -83l-6 -6t-6 -7q52 18 107 35.5t107.5 33.5t99.5 29.5t82.5 23.5t56.5 15.5t23 5.5q8 0 14.5 -5.5
t6.5 -13.5q0 -7 -6 -14t-13.5 -12t-14.5 -8.5t-10 -4.5q-14 -4 -40 -11t-58 -16.5t-66 -20t-64.5 -20t-54 -16.5t-34.5 -10q-49 -14 -82 -24t-56.5 -18t-40 -15t-31.5 -14q-14 -15 -28 -32q-6 -7 -12 -13l11 -10q39 -36 86.5 -86t100 -102.5t107 -101t108.5 -79.5
q32 -19 59 -30t46.5 -18t30.5 -12t11 -12t-13 -10.5t-22 -3.5q-48 0 -99.5 21t-104.5 55.5t-105 78t-99 88.5t-88 87t-72 74l-5 5l-9 -10q-14 -16 -28.5 -33t-28.5 -34q-13 -15 -30.5 -37t-37 -46t-39 -47.5t-36.5 -42.5t-30.5 -30.5t-19.5 -11.5q-8 0 -21 6t-13 16q0 2 1 4
t4.5 7t10.5 14.5t20 26.5q49 66 99 128q43 55 127 155l-34 14q-29 14 -29 34q0 4 1.5 7.5t4.5 3.5q6 -5 17 -9q10 -4 27 -8q5 -2 12 -3z" />
    <glyph glyph-name="uni041B" unicode="&#x41b;" horiz-adv-x="772" 
d="M733 376.5q43 57.5 80 106t66 84.5t43 54q-95 -38 -186 -84t-175.5 -96.5t-160 -103t-138.5 -103.5l-47 -40q-87 -76 -136.5 -140.5t-49.5 -106.5q-2 -14 -16 -14q-11 0 -22 13t-11 33q0 19 12.5 43.5t35.5 51.5t55 57t70 62l50 40q67 52 144 104.5t154 100.5t149.5 90.5
t130 73.5t96 49t47.5 18q3 0 4 -1q1 -2 2 -2.5t2 -2.5q5 2 10.5 4t12.5 2q14 0 24.5 -7.5t18 -17t11 -19t3.5 -13.5q0 -7 -5 -12q-22 -25 -49.5 -56t-61.5 -71.5t-74.5 -91t-104 -140.5t-95 -140t-50 -83t-27.5 -53.5t-13.5 -36t-8 -30t-11.5 -35.5q-2 -3 -6.5 -7t-9.5 -4
t-9 7.5t-7 18t-4.5 22t-1.5 18.5q0 33 12.5 68.5t32.5 72t44.5 74t47.5 74.5q2 4 5 7.5t5 7.5q69 97 112 154.5z" />
    <glyph glyph-name="uni041C" unicode="&#x41c;" horiz-adv-x="886" 
d="M1104 697q24 0 43 -16.5t19 -37.5q0 -12 -7 -22q-29 -47 -58 -86.5t-60.5 -80t-67 -87t-79 -108t-96 -142.5t-117.5 -190q-23 -38 -33 -55t-21 -17q-4 0 -12 3t-16.5 7.5t-14.5 10.5t-6 11q0 15 22.5 56.5t59 98.5t83.5 125t96 137q115 161 262 356v2h-2
q-23 0 -67.5 -28.5t-101.5 -76t-122.5 -107.5t-129.5 -123.5t-122.5 -124t-102.5 -108.5q-18 -20 -46 -20q-13 0 -22 5t-14 12t-7.5 15t-2.5 13q0 13 8 39t21.5 59t31 71t35.5 76q42 89 97 193q-2 0 -28 -23.5t-66.5 -61t-90 -86t-99 -98.5t-93 -97.5t-71.5 -83.5l-9 -9
q-38 -46 -61 -74.5t-25 -28.5q-14 0 -22.5 7.5t-8.5 19.5q0 3 19.5 32t51.5 74t73 101.5t84 115t84.5 114t74 98.5t53.5 69.5t23 26.5q14 0 27 -16t13 -29q0 -4 -17 -29t-46 -64t-66.5 -88t-77.5 -101q52 52 106.5 104.5t99 94t73.5 67.5t31 26q6 0 14 -4t15.5 -11t13 -16.5
t5.5 -19.5q0 -11 -5 -18q-11 -18 -29.5 -51.5t-40 -73.5t-44 -83.5t-40.5 -83t-30.5 -71.5t-13.5 -49q2 1 26 25.5t64 64.5t92 90t108.5 102t114 102t109 89t93 63t66.5 24z" />
    <glyph glyph-name="uni041D" unicode="&#x41d;" horiz-adv-x="895" 
d="M1090 324q5 -5 4.5 -14t-11.5 -7q0 1 -2 1q-8 6 -17.5 5t-18.5 -2q-30 -2 -92 -4.5t-143 -4.5q-23 -25 -47 -52.5t-50 -58.5q-16 -18 -41.5 -47.5t-49.5 -58.5q-29 -33 -60 -70q-8 -4 -13.5 -1t-9 8.5t-4.5 12.5t1 12q3 8 9 16.5t19.5 26.5t39 50t67.5 89
q11 16 25.5 33.5t31.5 37.5q-53 -1 -108.5 -2t-110 -2t-106.5 -2t-97 -2q8 -5 15 -9.5t14 -9.5q49 -35 87.5 -69.5t66 -63t43.5 -47.5t19 -21l-10 -12q-11 17 -36.5 42.5t-57.5 53.5t-66.5 53.5t-63.5 42.5q-8 5 -16 9t-16 9q-68 -74 -135 -152t-130 -164q-2 -3 -8.5 -3.5
t-13 1t-12 6t-5.5 12.5q0 21 18 55t49.5 76t72.5 90.5t86 99.5q-38 -1 -61 -1h-27q-24 2 -38.5 6t-22 9t-11 11t-5.5 12q-6 15 1 23.5t21 12t31.5 3t33.5 -3.5q47 -9 86 -25q8 1 17.5 1h18.5q44 49 88 96t81.5 88.5t67 75.5t44.5 57q5 7 1 11q-5 5 1 9q3 4 16 -1.5t25 -15
t18.5 -22.5t-2.5 -24q-51 -66 -112.5 -133t-127.5 -139q48 1 101 2t107 1.5t107 1.5t103 2q39 45 81.5 91.5t79 87t63 71t35.5 43.5q2 3 4 9q3 7 11 4q7 -3 11.5 -10t7 -16.5t2.5 -19t-1 -16.5q-1 -4 -14 -19t-38.5 -44t-65 -73.5t-94.5 -105.5q60 1 104 1.5t67 0.5
q19 0 28 0.5t14 -1.5t9.5 -7.5t16.5 -15.5zM105 332h-1q-1 1 1 0z" />
    <glyph glyph-name="uni041E" unicode="&#x41e;" horiz-adv-x="870" 
d="M774 712q64 0 112.5 -18t80 -48t47.5 -69.5t16 -81.5q0 -46 -25 -94.5t-68 -97t-99.5 -94.5t-119 -87.5t-127.5 -76.5t-124.5 -60.5t-110 -39.5t-84.5 -14q-25 0 -49 7.5t-43 23t-30.5 40t-11.5 58.5q0 47 30 100.5t75.5 107.5t99 104.5t100.5 91.5t79 68.5t36 35.5
q1 3 8 1q19 -9 28 -19.5t11 -20.5t-1.5 -19t-10.5 -16q-2 -2 -33.5 -26.5t-77.5 -64.5t-99 -90t-98.5 -103t-75.5 -104.5t-30 -92.5q0 -19 10.5 -30.5t25 -17.5t29.5 -8t24 -2q45 0 116.5 26.5t152.5 71t163 102.5t147.5 121.5t107 127.5t41.5 121q0 37 -14 61t-38.5 37.5
t-59.5 18.5t-77 5q-90 0 -183.5 -28t-181.5 -73t-165.5 -102t-136 -114t-92 -109.5t-33.5 -89.5q0 -11 6 -15q14 -9 26 -10q5 0 10 -3q3 -2 3 -3l-2 -1q-14 -6 -25 -6q-23 0 -38 22t-15 47q0 59 38 123t101 125t145 116t170 96.5t176 65.5t164 24z" />
    <glyph glyph-name="uni041F" unicode="&#x41f;" horiz-adv-x="699" 
d="M421 560q-47 -6 -89 -13q-106 -17 -181 -35t-115.5 -34.5t-40.5 -27.5q0 -6 8 -14l8 -8q-6 0 -18.5 11t-12.5 28q0 33 55 61t145 49.5t205 37.5q42 6 89 11l11 14q3 3 7 9q4 5 8 10.5t6 12.5q2 5 7 5q9 0 17.5 -10.5t13.5 -21.5l-2 -12q49 5 102 9q143 10 243 12
q21 0 41 1q2 2 4 5q4 5 6 12q2 5 7 5q9 0 18 -10l8 -12q51 -1 96 -3q29 -1 47 -2t28 -4t13.5 -9t3.5 -16q0 -12 -6.5 -23.5t-23.5 -10.5h-6q-80 3 -157 4l-1 -8q-82 -105 -154 -192t-132.5 -166t-107.5 -154.5t-80 -158.5q-1 -5 -7 -5q-8 0 -18.5 11.5t-9.5 31.5
q1 31 22.5 77t55 101t76.5 115t88 119.5t88.5 114t78.5 98.5l13 16q-110 -1 -210 -8l-100 -8q-23 -2 -44 -4q-77 -98 -145 -180q-72 -87 -132.5 -166t-107.5 -154.5t-80 -158.5q-1 -5 -7 -5q-8 0 -18.5 11.5t-9.5 31.5q1 31 22.5 77t55 101t76.5 115t88 119.5t89 114.5
q36 45 66 83z" />
    <glyph glyph-name="uni0420" unicode="&#x420;" horiz-adv-x="884" 
d="M935 679q20 1 42.5 -9t41 -28.5t31.5 -43t13 -51.5q2 -39 -17 -88q-26 -65 -72 -118.5t-104.5 -96t-126 -74t-136 -52.5t-134 -31t-119.5 -9q-29 0 -59 4t-58 12q-49 -45 -95 -88.5t-87 -84.5l-1 -1q-6 -7 -13.5 -14.5t-15.5 -12.5q-6 -3 -14 -4.5t-15 -0.5t-11.5 4.5
t-3.5 9.5q1 10 15.5 33.5t37.5 55t53 69.5t62 77q-20 16 -35 38q-5 4 -6 9q-2 3 1 6q2 1 2.5 0t2.5 -2q22 -16 52 -29q34 42 67 81.5t61 72.5t48 56t27 32q36 42 72 83t65.5 76t50.5 60t29 36q5 5 5 11q2 16 16 7q11 -7 16 -15l7.5 -7.5t6.5 -8.5q18 -24 -3 -45l-5 -5
q-32 -36 -65 -73q-29 -32 -64 -70.5t-68 -76.5q-68 -77 -115 -131.5t-86 -101.5q2 -1 5 -1t5 -1q36 34 76.5 71t82.5 75t84.5 76t83.5 73q93 80 153.5 127.5t100 73.5t64.5 34.5t49 10.5zM188 88q5 4 9 8l9 9q-2 0 -3 1zM988 483q17 35 22 65.5t0 52.5t-20 33.5t-37 9.5
q-10 -1 -20 -2.5t-25 -8.5t-38 -21t-59 -40t-87.5 -66.5t-124.5 -99.5q-32 -26 -69 -57t-78 -66t-84.5 -73t-86.5 -77q20 -2 40 -2.5t40 0.5q50 2 109 14t119.5 33t121 51t113 68.5t95.5 85t69 100.5z" />
    <glyph glyph-name="uni0421" unicode="&#x421;" horiz-adv-x="620" 
d="M600 408q40 6 89.5 28t93 50.5t73 58.5t29.5 52q0 18 -22 18q-30 0 -82 -14.5t-116.5 -41.5t-137 -64t-143.5 -81.5t-136 -95t-114.5 -104.5t-79 -110t-29.5 -111q0 -21 5 -40t19.5 -33t41.5 -22t71 -8q68 0 133.5 21.5t123.5 54.5t106.5 71t84 71t56.5 55.5t23 23.5
q1 0 1.5 0.5t2.5 0.5q8 0 18 -8t10 -16q0 -6 -25.5 -31t-68.5 -58.5t-99.5 -70.5t-118.5 -68.5t-125.5 -52t-120.5 -20.5q-36 0 -69.5 8t-58.5 27t-40 48.5t-15 73.5q0 52 24.5 105.5t67.5 107t100 104t123 95.5t136.5 83t139.5 65t132.5 42.5t116.5 15.5q48 0 78 -18
q5 -3 13.5 -21t8.5 -39q0 -25 -16.5 -50t-43 -48t-59.5 -43.5t-65.5 -35.5t-61.5 -23.5t-47 -8.5h-7q-3 0 -9.5 5t-12.5 11.5t-11 14t-5 13.5q0 5 4 8.5t14 4.5z" />
    <glyph glyph-name="uni0422" unicode="&#x422;" horiz-adv-x="399" 
d="M1067 652q29 -1 47 -2t28 -4t13.5 -9t3.5 -16q0 -12 -6.5 -23.5t-23.5 -10.5h-6q-123 5 -237 4t-218 -8q-82 -105 -154 -192t-132.5 -166t-107.5 -154.5t-80 -158.5q-1 -5 -7 -5q-8 0 -18.5 11.5t-9.5 31.5q1 31 22.5 77t55 101t76.5 115t88 119.5t88.5 114t78.5 98.5
q-130 -11 -236 -28t-181 -35t-115.5 -34.5t-40.5 -27.5q0 -6 8 -14l8 -8q-6 0 -18.5 11t-12.5 28q0 33 55 61t145 49.5t205 37.5t235 25q3 3 7 9q4 5 8 10.5t6 12.5q2 5 7 5q9 0 17.5 -10.5t13.5 -21.5q108 7 207.5 9t180.5 -2z" />
    <glyph glyph-name="uni0423" unicode="&#x423;" horiz-adv-x="1015" 
d="M730 102q4 6 8 13q9 15 19 31q-81 -19 -167 -42q-88 -25 -171.5 -51.5t-157.5 -54t-130 -53.5t-88.5 -49.5t-32.5 -41.5q0 -8 16.5 -15t39 -13t47 -9.5t39.5 -3.5q100 0 196.5 33.5t178 83.5t143.5 109q35 33 60 63zM855 167q-27 -38 -50 -72q-5 -8 -10 -17
q-29 -46 -75.5 -91t-106.5 -86.5t-127.5 -73.5t-138.5 -51t-138 -19q-54 0 -99.5 9t-78 24t-51 34.5t-18.5 39.5q0 23 33 48t84.5 49.5t115 48t123.5 43t110.5 34t76.5 21.5q78 22 146 39q66 16 124 29q2 2 4 5q2 5 3 9l3 1q4 5 7 10q34 52 70 103q84 119 193 252
q-77 -57 -147 -118q-37 -32 -83.5 -73.5t-92.5 -79.5q-49 -39 -86 -62t-59 -23q-19 0 -35.5 14t-13.5 43q3 28 27.5 69.5t62.5 90.5q19 23 40 47l-3 1q39 43 77 83q43 45 77 79.5t55 54.5t23 20t6 -2q8 -6 12.5 -11t13.5 -26q3 -8 3 -13t-20 -28.5t-53 -59t-75 -79.5
q-17 -17 -109.5 -120t-94.5 -123q0 -5 7 -5q13 0 50 24.5t90 64.5q45 35 88.5 70t75.5 64q57 51 103.5 91t78 64.5t40.5 24.5q5 0 12 -3q3 -1 7 -3q10 -6 19 -15t15.5 -19t6.5 -17l-19 -24q-20 -24 -52 -64t-72.5 -92t-83.5 -108q-37 -49 -72 -98q36 7 67 12q48 7 80 11
q38 4 66 6h1q4 0 12.5 -4.5t10.5 -6.5q4 -3 4 -8q0 -7 -8 -7h-6q-1 1 -9 1q-45 0 -113 -10q-57 -8 -124 -22z" />
    <glyph glyph-name="uni0424" unicode="&#x424;" horiz-adv-x="609" 
d="M43 240q0 -5 7 -5q13 0 50 24.5t90 64.5q45 35 99 78l1 -2l64 58q57 51 103.5 91t78.5 65q15 12 26 18l14 22q15 24 18 47q2 18 -1.5 24.5t-12.5 7.5q-26 4 -62.5 -14t-79.5 -50t-91.5 -76.5t-175 -188.5t-128.5 -164zM616 615l16 18q42 46 78.5 74t63.5 28q12 0 26 -6
t25.5 -17.5t19 -29t7.5 -40.5q0 -58 -33 -112.5t-79 -100.5t-94 -79t-78 -48q-24 -10 -41 2q-8 12 -8 30q0 9 3 16t9 9q22 6 51 24.5t60 44.5t61.5 57.5t54 63.5t38 63.5t14.5 57.5q0 14 -4.5 23.5t-18.5 9.5q-21 0 -54 -25.5t-72 -67.5q-12 -13 -25 -28v-1l-19 -24
q-20 -24 -52 -64t-72.5 -92t-83.5 -108.5t-83 -113.5q-33 -46 -60 -87q-25 -39 -40 -67q-19 -33 -28 -53.5t-13.5 -36t-8 -30t-11.5 -35.5q-2 -3 -6.5 -7t-9.5 -4t-9 7.5t-7 18t-4.5 22t-1.5 18.5q0 33 12.5 68.5t32.5 72.5q13 24 29 49q24 41 54 86q34 52 70 103
q83 118 191 250h-1q-75 -56 -144 -116q-37 -32 -73 -65v-1q-57 -49 -103 -87q-49 -39 -86 -62t-59 -23q-19 0 -35.5 14t-13.5 43q3 28 27.5 69.5t62.5 90.5q19 23 39 46h-1l1 1l-2 1q21 23 42 45l2 2q49 54 101 103t100.5 85.5t91 56t72.5 15.5q16 -2 31 -8.5t27 -14
t20 -15.5t10 -12q2 -9 3 -16.5t0 -15.5q-4 -26 -25 -57q-1 -2 -3 -4q7 -5 14 -12z" />
    <glyph glyph-name="uni0425" unicode="&#x425;" horiz-adv-x="1136" 
d="M1156 671q0 -4 -3 -7q-62 -24 -139 -57q-66 -29 -157.5 -71.5t-200.5 -100.5h1q-3 -1 -9 -5q31 -40 67.5 -84.5t75 -88t78 -82.5t77 -69t72 -48t62.5 -18q9 0 20 2.5t20 7.5q2 1 5 1q4 0 4 -2q0 -3 -2 -3q-6 -5 -25 -15t-52 -10q-52 0 -111.5 34t-121 88t-122 120
t-113.5 130q-55 -32 -101.5 -58t-87.5 -50.5t-78.5 -49t-75.5 -54t-78 -66t-85 -82.5q-6 -6 -14.5 -15.5t-16 -20t-12.5 -20.5t-5 -17q0 -3 0.5 -4t0.5 -3q0 -6 -4.5 -9t-9.5 -3q-9 0 -22 12.5t-13 29.5q0 37 48.5 89.5t129 112.5t183 123t210.5 122q-31 37 -57.5 70.5
t-47.5 58.5t-35.5 41t-21.5 19t-7 8q0 7 17.5 14t37.5 7q23 0 48.5 -22t56.5 -60q12 -15 31.5 -40.5t45.5 -58.5q87 45 169 84.5t150.5 68.5t119 45.5t73.5 16.5q8 0 16.5 -2.5t8.5 -8.5z" />
    <glyph glyph-name="uni0426" unicode="&#x426;" horiz-adv-x="717" 
d="M802 534q-28 -21 -62 -50q-53 -44 -118.5 -99t-135 -112t-138.5 -112t-129.5 -97.5t-107.5 -68.5t-73 -26q-31 0 -44.5 17t-13.5 45q0 21 15.5 55t42 75.5t61 89t72 95t76.5 94t73.5 86t62.5 70.5t45 49q11 11 18.5 25t12.5 14q6 0 14.5 -6.5t16.5 -15.5t14 -19t6 -17
q0 -5 -20.5 -30t-54.5 -63.5t-77 -86.5t-88 -99.5t-88 -103t-77 -95.5t-54.5 -78.5t-20.5 -51.5q0 -9 5.5 -11t14.5 -2q24 0 71 27.5t108 72.5t131.5 102.5t142 118t139.5 118t124 102.5t95 73q23 15 37 22q33 20 44.5 7t15 -22.5t3.5 -13.5q0 -7 -5 -12q-22 -25 -49.5 -56
t-61.5 -71.5t-74.5 -91t-104 -140.5t-95 -140t-50 -83t-27.5 -53.5t-13.5 -36t-8 -30t-11.5 -35.5q-2 -3 -6.5 -7t-9.5 -4t-9 7.5t-7 18t-4.5 22t-1.5 18.5q0 33 12.5 68.5t32.5 72t44.5 74t47.5 74.5q2 4 5 7.5t5 7.5q69 97 112 154.5t80 106.5q21 28 40 51zM477 -89
q-4 -21 -3.5 -29.5t4.5 -19.5q25 -56 6 -99t-65 -63q-20 -9 -43.5 -6t-44.5 13.5t-38 26t-23 31.5q-4 9 4 12q2 1 2.5 1h2.5q25 8 64 37.5t81 69.5q-7 74 16 42q2 -5 4.5 -9t5.5 -8zM436 -137q-37 -37 -68.5 -65t-45.5 -38q13 -6 31.5 -8t45.5 10q9 4 19.5 14t16.5 23
t7.5 29t-5.5 33z" />
    <glyph glyph-name="uni0427" unicode="&#x427;" horiz-adv-x="430" 
d="M205 548q43 45 77 79.5t55 54.5t23 20t6 -2q8 -6 12.5 -11t13.5 -26q3 -8 3 -13t-20 -28.5t-53 -59t-75 -79.5q-17 -17 -109.5 -120t-94.5 -123q0 -5 7 -5q13 0 50 24.5t90 64.5q45 35 88.5 70t75.5 64q57 51 103.5 91t78 64.5t40.5 24.5q5 0 12 -3q3 -1 7 -3
q10 -6 19 -15t15.5 -19t6.5 -17l-19 -24q-20 -24 -52 -64t-72.5 -92t-83.5 -108.5t-83 -113.5q-33 -46 -60 -87q-25 -39 -40 -67q-19 -33 -28 -53.5t-13.5 -36t-8 -30t-11.5 -35.5q-2 -3 -6.5 -7t-9.5 -4t-9 7.5t-7 18t-4.5 22t-1.5 18.5q0 33 12.5 68.5t32.5 72.5
q13 24 29 49q24 41 54 86q34 52 70 103q84 119 193 252q-77 -57 -147 -118q-37 -32 -83.5 -73.5t-92.5 -79.5q-49 -39 -86 -62t-59 -23q-19 0 -35.5 14t-13.5 43q3 28 27.5 69.5t62.5 90.5q19 23 47.5 57t66.5 74z" />
    <glyph glyph-name="uni0428" unicode="&#x428;" horiz-adv-x="947" 
d="M541.5 295q-42.5 -48 -75.5 -91t-53 -77.5t-20 -54.5q0 -5 7 -5q13 0 47.5 24.5t83 64.5t107 91.5t118 105t116.5 105t103.5 91.5t78 64.5t40.5 24.5q8 0 18.5 -6t19.5 -15t15.5 -19t6.5 -17l-19 -24q-20 -24 -52 -64t-72.5 -92t-83.5 -108.5t-83 -113.5q-33 -46 -60 -87
q-25 -39 -40 -67q-19 -33 -28 -53.5t-13.5 -36t-8 -30t-11.5 -35.5q-2 -3 -6.5 -7t-9.5 -4t-9 7.5t-7 18t-4.5 22t-1.5 18.5q0 33 12.5 68.5t32.5 72.5q13 24 29 49q24 41 54 86q34 52 70 103q84 119 193 252q-77 -57 -147 -118t-133 -119t-117.5 -110.5t-99 -91.5t-79 -62
t-56.5 -23q-19 0 -37 14t-18 43q0 28 20.5 69.5t53.5 90t76 101.5q36 44 77.5 95t90.5 111q-77 -57 -147 -118t-133 -119t-117.5 -110.5t-99 -91.5t-79 -62t-56.5 -23q-19 0 -37 14t-18 43q0 28 20.5 69.5t53.5 90t75.5 101t87 103t87.5 95.5t77 79.5t55 54.5t23 20t6 -2
q8 -6 12.5 -11t13.5 -26q3 -8 3 -13t-20 -28.5t-53 -59t-75.5 -80t-86.5 -92t-86.5 -95.5t-75.5 -91t-53 -77.5t-20 -54.5q0 -5 7 -5q13 0 47.5 24.5t83 64.5t107 91.5t118 105t116.5 105t103.5 91.5t78 64.5t40.5 24.5q8 0 18.5 -6t19.5 -15t15.5 -19t6.5 -17l-19 -24
q-20 -24 -52 -64q-130 -150 -172.5 -198z" />
    <glyph glyph-name="uni0429" unicode="&#x429;" horiz-adv-x="947" 
d="M664 -137q-37 -37 -68.5 -65t-45.5 -38q13 -6 31.5 -8t45.5 10q9 4 19.5 14t16.5 23t7.5 29t-5.5 33zM651 -116v1q-3 10 -4.5 21.5t-1.5 18.5q0 33 12.5 68.5t32.5 72.5q13 24 29 49q24 41 54 86q34 52 70 103q84 119 193 252q-77 -57 -147 -118t-133 -119t-117.5 -110.5
t-99 -91.5t-79 -62t-56.5 -23q-19 0 -37 14t-18 43q0 28 20.5 69.5t53.5 90t76 101.5q36 44 77.5 95t90.5 111q-77 -57 -147 -118t-133 -119t-117.5 -110.5t-99 -91.5t-79 -62t-56.5 -23q-19 0 -37 14t-18 43q0 28 20.5 69.5t53.5 90t75.5 101t87 103t87.5 95.5t77 79.5
t55 54.5t23 20t6 -2q8 -6 12.5 -11t13.5 -26q3 -8 3 -13t-20 -28.5t-53 -59t-75.5 -80t-86.5 -92t-86.5 -95.5t-75.5 -91t-53 -77.5t-20 -54.5q0 -5 7 -5q13 0 47.5 24.5t83 64.5t107 91.5t118 105t116.5 105t103.5 91.5t78 64.5t40.5 24.5q8 0 18.5 -6t19.5 -15t15.5 -19
t6.5 -17l-19 -24q-20 -24 -52 -64q-130 -150 -172.5 -198t-75.5 -91t-53 -77.5t-20 -54.5q0 -5 7 -5q13 0 47.5 24.5t83 64.5t107 91.5t118 105t116.5 105t103.5 91.5t78 64.5t40.5 24.5q8 0 18.5 -6t19.5 -15t15.5 -19t6.5 -17l-19 -24q-20 -24 -52 -64t-72.5 -92
t-83.5 -108.5t-83 -113.5q-33 -46 -60 -87q-25 -39 -40 -67q-19 -33 -28 -53.5t-13 -35.5q-4 -13 -7 -25q1 -14 3.5 -26t6.5 -23q25 -56 6 -99t-65 -63q-20 -9 -43.5 -6t-44.5 13.5t-38 26t-23 31.5q-4 9 4 12q2 1 2.5 1h2.5q25 8 64 38q39 29 80 68z" />
    <glyph glyph-name="uni042A" unicode="&#x42a;" horiz-adv-x="387" 
d="M62 9l-16 -22q-11 0 -23.5 14.5t-12.5 31.5q0 4 16.5 29t44 64t62.5 87t71.5 98t71.5 97.5t63 85t45 60.5t17 25q-3 0 -15.5 -8t-28.5 -17t-31.5 -16.5t-24.5 -7.5q-8 0 -11.5 4t-5.5 10v3q0 3 4 6q42 20 81.5 43.5t69.5 44.5q35 25 66 50q4 0 9.5 -6t10 -14.5t8 -18.5
t3.5 -18q0 -11 -6 -17q-15 -14 -43.5 -48t-65 -80.5t-78.5 -101.5l-36 -48q13 8 24 14q21 10 35 10q6 0 15.5 -5.5t18.5 -15.5t15.5 -25.5t6.5 -34.5q0 -26 -15.5 -60t-41 -69.5t-57.5 -69.5t-65 -60.5t-64 -43t-54 -16.5q-12 0 -24.5 4t-22.5 15q-10 10 -16 27zM240 249
l-136 -182q-14 -23 -13.5 -36.5t21.5 -20.5q15 0 41 17.5t55.5 45t59.5 62t54.5 69.5t40 66.5t15.5 52.5q0 9 -10 9q-7 0 -24.5 -9.5t-39.5 -25t-47 -34.5q-9 -7 -17 -14z" />
    <glyph glyph-name="uni042B" unicode="&#x42b;" horiz-adv-x="632" 
d="M240 249l-136 -182q-14 -23 -13.5 -36.5t21.5 -20.5q15 0 41 17.5t55.5 45t59.5 62t54.5 69.5t40 66.5t15.5 52.5q0 9 -10 9q-7 0 -24.5 -9.5t-39.5 -25t-47 -34.5q-9 -7 -17 -14zM845 646q3 0 11 -3.5t17 -9.5t15.5 -13t6.5 -14v-3q0 -2 0.5 -4t0.5 -4q0 -13 -24 -47
t-61.5 -81.5t-83 -103.5t-123.5 -163.5t-113 -157.5t-51 -85l-7.5 -15t-11.5 -7q-9 0 -21.5 8t-12.5 34q0 23 23 64.5t94 144.5t113.5 156.5t81.5 102t69 86t40 54.5q-12 -9 -29 -23q-38 -34 -94 -88.5t-125 -122.5t-144.5 -151t-107.5 -117t-65 -60.5t-64 -43t-54 -16.5
q-12 0 -24.5 4t-22.5 15q-10 10 -16 27l-16 -22q-11 0 -23.5 14.5t-12.5 31.5q0 4 16.5 29t44 64t62.5 87t71.5 98t71.5 97.5t116.5 152.5t112.5 130q4 0 9.5 -6t10 -14.5t8 -18.5t3.5 -18q0 -11 -6 -17q-15 -14 -43.5 -48t-65 -80.5t-78.5 -101.5l-36 -48q13 8 24 14
q21 10 35 10q6 0 15.5 -5.5t18.5 -15.5t15.5 -25.5t6.5 -34.5q0 -9 -20 -37q-1 -1 28 28q75 74 146.5 144.5t130.5 126.5t93.5 79t44.5 23z" />
    <glyph glyph-name="uni042C" unicode="&#x42c;" horiz-adv-x="387" 
d="M62 9l-16 -22q-11 0 -23.5 14.5t-12.5 31.5q0 4 16.5 29t44 64t62.5 87t71.5 98t71.5 97.5t116.5 152.5t112.5 130q4 0 9.5 -6t10 -14.5t8 -18.5t3.5 -18q0 -11 -6 -17q-15 -14 -43.5 -48t-65 -80.5t-78.5 -101.5l-36 -48q13 8 24 14q21 10 35 10q6 0 15.5 -5.5
t18.5 -15.5t15.5 -25.5t6.5 -34.5q0 -26 -15.5 -60t-41 -69.5t-57.5 -69.5t-65 -60.5t-64 -43t-54 -16.5q-12 0 -24.5 4t-22.5 15q-10 10 -16 27zM240 249l-136 -182q-14 -23 -13.5 -36.5t21.5 -20.5q15 0 41 17.5t55.5 45t59.5 62t54.5 69.5t40 66.5t15.5 52.5q0 9 -10 9
q-7 0 -24.5 -9.5t-39.5 -25t-47 -34.5q-9 -7 -17 -14z" />
    <glyph glyph-name="uni042D" unicode="&#x42d;" horiz-adv-x="513" 
d="M454 331q16 22 52 70q34 48 63.5 92.5t51.5 83t35.5 68.5t15.5 47v1h-1q-22 7 -62 -10.5t-83.5 -49t-82.5 -70.5t-58 -72q-4 -5 -7 -10.5t-5 -10.5q-5 -7 -9 -6q-26 5 -30 29t10 47q31 53 77 93t92 64.5t85.5 33.5t60.5 0q7 -3 13 -9q30 -21 25 -82q-5 -39 -33.5 -104.5
t-77.5 -137.5l-46 -69h20q10 0 12.5 -1.5t10.5 -10.5q5 -6 9 -14t4.5 -14.5t-2.5 -10.5t-11 -4q-15 1 -81 3q-15 -20 -39 -50q-50 -64 -102.5 -121.5t-101.5 -100.5t-92 -66t-72 -20q-16 2 -31.5 9.5t-27.5 16t-20 17.5t-9 14q-2 9 -3 18t0 18q4 29 25.5 66t48.5 68t53 52
t37 20q8 -1 12.5 -6.5t4.5 -9.5q-1 -4 -5 -7q-20 -16 -44 -37.5t-44.5 -48t-35.5 -54.5t-18 -56q-3 -20 1 -27.5t13 -8.5q25 -3 62 18t80.5 59t92 90t97.5 112q17 22 30 38q-9 0 -17 1h-56q-9 0 -15.5 2t-8.5 4q-16 13 -18 29t8 16h60z" />
    <glyph glyph-name="uni042E" unicode="&#x42e;" horiz-adv-x="1169" 
d="M113 -171q59 7 123 47.5t130.5 101.5t130 137t122.5 154l-22 -3q-151 -19 -259.5 -65t-177 -102t-99 -116t-24.5 -108q3 -29 23 -39.5t53 -6.5zM885 -13q21 0 52 22.5t67 58t72 79t67 85.5t52 78t59 104.5t55.5 100.5t24 60t6.5 46q0 14 -7 14t-30 -19t-56 -52
t-72.5 -77.5t-80.5 -94.5t-79 -104t-67.5 -106.5t-47.5 -101t-18 -87.5q0 -6 3 -6zM928 279q-220 -9 -231 -10q-58 -81 -123 -160q-68 -83 -140 -150t-145.5 -112t-142.5 -54q-31 -4 -56.5 4t-45.5 24t-31 37.5t-14 44.5q-6 43 26 101t105 113.5t189 102t278 66.5
q11 2 20.5 3t16.5 1q38 51 70.5 101.5t60 96t48 84t32.5 68.5q16 46 16.5 47t0.5 2q3 4 5 4q2 1 6 -2q2 -2 4 -2q49 7 36 -42q-2 -13 -16.5 -46.5t-40.5 -80t-61.5 -104.5t-78.5 -120q165 6 228 8q40 63 88 126q53 69 104.5 123.5t94.5 88t66 33.5q12 0 24 -5t22 -14t16 -21
t6 -27q0 -21 -7.5 -45t-63.5 -139.5t-89 -168t-75 -108t-85.5 -101t-85.5 -74.5t-75 -29q-20 0 -35 26t-15 60q0 52 28 120q26 63 66 130z" />
    <glyph glyph-name="uni042F" unicode="&#x42f;" horiz-adv-x="737" 
d="M365 240q0 -5 7 -5q13 0 50 24.5t90 64.5q45 35 88.5 70t75.5 64q57 51 103.5 91t78.5 65q15 12 26 18l14 22q15 24 18 47q2 18 -1.5 24.5t-12.5 7.5q-26 4 -62.5 -14t-79.5 -50t-91.5 -76.5t-175 -188.5t-128.5 -164zM549 312q-17 -14 -32 -27q-49 -39 -86 -62t-59 -23
q-19 0 -35.5 14t-13.5 43q3 28 27.5 69.5t62.5 90.5q19 23 39 46h-1l1 1l-2 1q21 23 42 45l2 2q49 54 101 103t100.5 85.5t91 56t72.5 15.5q16 -2 31 -8.5t27 -14t20 -15.5t10 -12q2 -9 3 -16.5t0 -15.5q-4 -26 -25 -57q-1 -2 -3 -4q7 -5 14 -12q1 -1 10 -15.5t-41 -81.5
t-90.5 -119t-83.5 -108.5t-83 -113.5q-33 -46 -60 -87q-25 -39 -40 -67q-19 -33 -28 -53.5t-13.5 -36t-8 -30t-11.5 -35.5q-2 -3 -6.5 -7t-9.5 -4t-9 7.5t-7 18t-4.5 22t-1.5 18.5q0 33 12.5 68.5t32.5 72.5q13 24 29 49q24 41 54 86q34 52 70 103q11 16 23 32l-18 -18
q-43 -44 -89 -95.5t-93 -103t-95 -99.5t-95 -84t-91 -57.5t-84 -20.5q-20 1 -39.5 8t-34 20t-23.5 31.5t-8 40.5q1 35 22 78q12 26 29 52q27 43 61 67q25 17 51 23q7 2 20 0.5t17 -6.5q4 -6 -2 -10q0 -1 -1.5 -1t-2.5 -1q-4 0 -7 0.5t-7.5 0t-11.5 -4.5t-19 -11
q-34 -25 -57 -62.5t-35 -63.5q-20 -41 -22 -74q0 -14 3 -27.5t17 -14.5q47 -1 98 29.5t105 79.5t106.5 106.5t102.5 109.5q2 2 22 22.5t50 50.5q5 5 10 11z" />
    <glyph glyph-name="uni0430" unicode="&#x430;" horiz-adv-x="351" 
d="M408 152q1 2 5 3.5t4 -4.5q0 -10 -3.5 -15.5t-4.5 -6.5q-49 -53 -90.5 -94t-76 -68t-53.5 -27q-17 0 -28 17t-11 39q0 14 12 40t31 58q-21 -22 -43.5 -43.5t-43 -38t-37 -27t-26.5 -10.5q-6 0 -16.5 3.5t-21 12t-18 24t-7.5 39.5q0 20 12 46.5t32 53.5t45 53t51 46.5
t51 33t44 12.5q16 0 29.5 -6t23.5 -16t15.5 -22t5.5 -25q0 -1 -0.5 -1t-0.5 -1q22 25 31 25q5 0 11 -5.5t11 -14t8 -17.5t3 -15q0 -3 -11.5 -19.5t-28 -39.5t-36.5 -49.5t-36.5 -51t-28 -44.5t-11.5 -29q0 -2 2 -2q6 0 26 16.5t47 42t58.5 56.5t46 44.5t28.5 26.5zM37 5
q12 0 32 12.5t44.5 32.5t51.5 46.5t53 53.5q-5 2 -8.5 6t-3.5 9q0 3 8.5 11t18.5 18.5t18.5 23.5t8.5 25q0 11 -11 11q-9 0 -29 -13t-44.5 -34.5t-50 -48t-47 -53.5t-35 -51t-13.5 -41q0 -8 7 -8z" />
    <glyph glyph-name="uni0431" unicode="&#x431;" horiz-adv-x="276" 
d="M234 143q27 41 44 77.5t17 55.5q0 7 -8 7q-12 0 -30 -8.5t-38 -21.5t-38 -30t-30 -33q-56 -79 -72 -117.5t-23 -56t-7 -29.5q0 -3 4 -3q18 0 38.5 10.5t41.5 28.5t41.5 41.5t38.5 48.5zM305.5 219q-14.5 -31 -48 -79.5t-60.5 -79.5t-54 -55t-51 -39t-42 -15
q-20 0 -33.5 23.5t-13.5 50.5q0 21 12 51.5t28 59t56 83.5t63 71t47.5 25.5t42.5 9.5q7 0 38 -12l-10 19l-15 39q-21 53 -40 106t-27 104.5t-1 99.5q3 26 15 51t21 38q20 28 41.5 41t56.5 17.5t66 -4.5t50 -17.5t51 -18.5q22 -7 38 -5.5t28.5 8t22.5 15t19 1.5t2.5 -30
t-27 -45.5t-62.5 -25.5t-136 30q-37 14 -59 14.5t-38 -6t-29 -23.5t-17 -45q-7 -44 -2 -92.5t41 -153t38.5 -142.5t-12 -69z" />
    <glyph glyph-name="uni0432" unicode="&#x432;" horiz-adv-x="340" 
d="M273 235q-12 -1 -31.5 -14.5t-42.5 -35t-48 -50t-49 -56.5q11 -7 12 -16q0 -3 -8 -11.5t-16.5 -19.5t-16 -24t-7.5 -26q1 -10 12 -9q9 0 28 14.5t42 37.5t47 51t43.5 56.5t31.5 53.5t11 42q-1 8 -8 7zM591 696q-47 -16 -86 -42t-75.5 -65t-73.5 -92t-81 -123q36 25 78 55
t90 65q57 41 93.5 72t57.5 53.5t28.5 37.5t6.5 24q0 11 -8.5 14.5t-18.5 2.5q-8 0 -11 -2zM20 -7q-21 -32 -22 -33l-6 -9t-3 -3.5t-2 -0.5q-12 -2 -26 24q-2 6 4 23q11 28 34 70t120 193t146 224q54 81 103.5 135t98.5 82t107 32q27 2 49.5 -14.5t24.5 -43.5
q2 -33 -32.5 -72.5t-92.5 -84t-132.5 -95.5t-150.5 -104q-22 -36 -46.5 -75.5t-51.5 -83.5q18 21 36 40t34 33.5t29.5 24t22.5 10.5q6 0 17 -2.5t22.5 -11t20 -23t9.5 -38.5q2 -21 -8.5 -47.5t-28.5 -55.5t-41.5 -56.5t-48.5 -49t-49 -36t-43 -15.5q-51 -6 -72 20
q-19 21 -22 43z" />
    <glyph glyph-name="uni0433" unicode="&#x433;" horiz-adv-x="276" 
d="M224 304q17 0 34.5 -20.5t17.5 -55.5q0 -5 -8.5 -18.5t-21.5 -31.5q-10 -13 -21 -28h1q-5 -7 -11 -14q-15 -19 -32 -41t-32 -42.5t-25 -37.5t-10 -26q0 -2 2 -2q15 0 41 20.5t61 55t85 80.5q2 2 5.5 3.5t3.5 -4.5q0 -10 -3 -15.5t-5 -6.5q-15 -15 -22 -22.5t-35.5 -36
t-55.5 -51.5t-50.5 -37.5t-39.5 -14.5q-18 0 -28.5 17t-10.5 38q0 19 14.5 48t29.5 53.5t24 37.5q21 30 40 54t24 31q7 10 11.5 17.5t4.5 11.5q0 3 -3 3q-4 -3 -66.5 -59t-110.5 -105q-2 -2 -5.5 -3.5t-3.5 4.5q-1 10 2 15.5t5 6.5q14 16 20.5 24t34 37.5t53.5 53.5
q20 19 45 40t41 21z" />
    <glyph glyph-name="uni0434" unicode="&#x434;" horiz-adv-x="318" 
d="M33 5q12 0 32.5 12.5t45 32.5t51 46.5t52.5 53.5q-11 5 -11 15q0 3 8.5 11t18 18.5t18 23.5t8.5 25q0 11 -11 11q-9 0 -29 -13t-44.5 -34.5t-50 -48t-47 -53.5t-35 -51t-13.5 -41q0 -8 7 -8zM-315 -434q48 13 88.5 36.5t79.5 60t79.5 87t89.5 117.5q-38 -23 -81.5 -50
t-94.5 -59q-59 -38 -97.5 -66.5t-61 -49.5t-31 -35.5t-8.5 -23.5q0 -11 8 -15t18 -4q5 0 11 2zM142 -86q-65 -88 -116 -155q-60 -78 -113 -128.5t-104 -75.5t-109 -25q-27 0 -48.5 18t-21.5 46q0 33 37 70t98 78t138.5 86.5t157.5 93.5q24 34 51 71.5t57 79.5
q-19 -19 -38.5 -37t-36.5 -31.5t-31 -21.5t-23 -8q-6 0 -17 3.5t-21.5 12t-18 24t-7.5 39.5q0 20 12 46.5t32 53.5t45 53t51.5 46.5t51.5 33t44 12.5q16 0 29.5 -6t23 -16t15 -22t5.5 -25v-2q22 25 30 25q5 0 11 -5.5t11 -14t8 -17.5t3 -15q0 -3 -6.5 -13t-17.5 -25
q-12 -18 -28 -39q-14 -18 -32 -43q-14 -19 -50 -69q24 18 40 32q20 19 39 38q35 33 100 93q0 2 4 4t5 -4q1 -10 -2 -16t-4 -7q-59 -63 -94 -97q-28 -27 -58 -53t-102 -88z" />
    <glyph glyph-name="uni0435" unicode="&#x435;" horiz-adv-x="269" 
d="M345 186q1 2 5 3q4 2 4 -4q0 -10 -4 -16q-3 -5 -4 -6q-8 -8 -18.5 -18t-42.5 -39q-33 -28 -68 -52q-35 -23 -72 -39q-36 -15 -70 -15q-36 0 -56 19q-19 19 -19 53q0 26 11 55q10 29 28 58t42 55q23 27 48 47q26 21 52 33t50 12q8 0 21 -3q12 -2 24 -8t20 -17q9 -10 9 -26
q0 -26 -13 -48q-14 -22 -35 -40q-21 -17 -46 -31q-26 -13 -50 -22q-25 -8 -46 -13q-20 -4 -30 -3q-14 -23 -21 -43q-8 -20 -8 -37q0 -6 3 -9q3 -2 18 -2q52 0 99 25q48 25 90 60q42 36 79 71zM268 295q-14 0 -34 -13q-21 -12 -44 -33q-23 -20 -45 -47q-23 -26 -42 -53
q29 7 60 23q31 17 56 37q26 20 43 40q16 21 16 36q0 10 -10 10z" />
    <glyph glyph-name="uni0436" unicode="&#x436;" horiz-adv-x="504" 
d="M204 108q-7 -3 -15 -6q-27 -18 -51.5 -36t-43 -34.5t-29.5 -31t-11 -26.5q0 -5 -6 -5q-2 0 -4 2q-14 8 -23 18.5t-9 22.5q0 13 14 30.5t38 37.5t55 42t64 44q-2 20 -2 42v36l-38 -34q-63 -56 -111 -105q-2 -2 -5.5 -3.5t-3.5 4.5q-1 10 2 15.5t5 6.5q14 16 20.5 24
t34 37.5t53.5 53.5q20 19 45 40q3 3 6 5q4 13 8 17q9 9 10 9q11 0 19 -8t9 -133q43 53 69 92q39 58 44 63q10 8 14 8q5 0 11 -6t11 -14t8 -17t3 -16q0 -2 -5 -10t-13 -19l-95 -137q33 32 66.5 60.5t64 52t56.5 41t43 26.5q6 3 14 0.5t14 -8.5t9.5 -13.5t2.5 -13.5
q-1 -2 -5 -4q-3 -2 -29.5 -16.5t-59.5 -34t-64 -39.5t-43 -32q-2 -2 -4 -3q10 -2 19 -5.5t13 -12.5q9 -20 20.5 -47t27.5 -52t35 -42.5t43 -17.5q8 0 21 4.5t16 4.5q6 0 6 -5q0 -3 -6 -8t-15.5 -9.5t-21.5 -8t-25 -3.5q-35 0 -63 19t-49 45.5t-35.5 55.5t-21.5 49
q0 -1 -1 -1q-2 -2 -16 -15t-32.5 -31t-37.5 -37t-31 -34q-9 -13 -13.5 -20t-6.5 -10t-3 -4t-3 -1q-5 -1 -11.5 4.5t-13.5 19.5q-3 7 3 23q11 28 34 70q11 21 25 44z" />
    <glyph glyph-name="uni0437" unicode="&#x437;" horiz-adv-x="322" 
d="M-311 -429q30 0 75.5 26t93.5 69t92.5 96.5t71.5 109.5q-71 -47 -134 -89.5t-110 -79.5t-74 -67.5t-27 -53.5q0 -11 12 -11zM182 283q-7 8 -7 19q0 7 6 7q1 0 5 -2q5 -3 17.5 -4t29.5 -1q18 0 37.5 0.5t35.5 1.5q18 1 37 3q11 0 20.5 -10.5t9.5 -27.5q0 -8 -2.5 -14
t-5.5 -10q-8 -12 -29 -34.5t-48.5 -50t-57.5 -56.5t-57 -54t-47.5 -42.5t-27.5 -20.5q3 -10 5 -19t2 -14l-1 -27l50 36l57 45q22 18 42 35q21 18 40 37q35 34 100 93q1 2 5 3.5t4 -4.5q1 -10 -2 -15.5t-4 -6.5q-60 -63 -95 -96q-27 -27 -58 -53q-30 -25 -67 -54l-77 -58
q-7 -36 -22 -71q-22 -52 -55 -97t-72.5 -81.5t-79 -62t-76 -39.5t-61.5 -14q-18 0 -32.5 6t-24.5 15t-15.5 20t-5.5 21q0 34 30.5 70t83 76t122 84.5t148.5 94.5q15 40 15 79q0 11 -1 19.5t-3 14.5q-1 2 -1 3t-1 3q1 16 14 24q31 25 69 59.5t71 66.5t55.5 56t22.5 28h-31
h-14t-15 2l-10 3q-34 -29 -67 -59q-63 -56 -111 -105q-2 -2 -5.5 -3.5t-3.5 4.5q-1 10 2 15.5t5 6.5q14 16 20.5 24t34 37.5t53.5 53.5q20 19 44 40z" />
    <glyph glyph-name="uni0438" unicode="&#x438;" 
d="M409 145q2 2 5.5 3.5t3.5 -4.5q0 -10 -3.5 -15.5t-4.5 -6.5q-41 -39 -75 -72.5t-61.5 -54t-47.5 -20.5q-13 0 -28.5 13.5t-15.5 48.5q0 17 14.5 47t35.5 63q-33 -35 -64 -66t-58 -54.5t-49 -37.5t-37 -14q-12 0 -28 13.5t-16 48.5q0 12 8 31.5t20.5 42t29 46.5t33.5 47
q13 19 29 39.5t30.5 37.5t26 28t16.5 11t11 -5.5t11 -14t8 -17.5t3 -15q0 -3 -12.5 -21t-31.5 -43.5t-41.5 -55.5t-41.5 -57t-31.5 -48.5t-12.5 -30.5q0 -3 2 -3q9 0 28 13.5t44 35t53 49t56 55.5t53 54t44 45q14 17 25 27.5t16 10.5t11 -6t11 -14t8 -17.5t3 -15.5
q0 -3 -11.5 -19.5t-28 -39.5t-36.5 -50t-36.5 -52t-28 -44.5t-11.5 -28.5q0 -3 2 -3q15 0 36.5 17t51.5 47t82 72z" />
    <glyph glyph-name="uni0439" unicode="&#x439;" 
d="M409 145q2 2 5.5 3.5t3.5 -4.5q0 -10 -3.5 -15.5t-4.5 -6.5q-41 -39 -75 -72.5t-61.5 -54t-47.5 -20.5q-13 0 -28.5 13.5t-15.5 48.5q0 17 14.5 47t35.5 63q-33 -35 -64 -66t-58 -54.5t-49 -37.5t-37 -14q-12 0 -28 13.5t-16 48.5q0 12 8 31.5t20.5 42t29 46.5t33.5 47
q13 19 29 39.5t30.5 37.5t26 28t16.5 11t11 -5.5t11 -14t8 -17.5t3 -15q0 -3 -12.5 -21t-31.5 -43.5t-41.5 -55.5t-41.5 -57t-31.5 -48.5t-12.5 -30.5q0 -3 2 -3q9 0 28 13.5t44 35t53 49t56 55.5t53 54t44 45q14 17 25 27.5t16 10.5t11 -6t11 -14t8 -17.5t3 -15.5
q0 -3 -11.5 -19.5t-28 -39.5t-36.5 -50t-36.5 -52t-28 -44.5t-11.5 -28.5q0 -3 2 -3q15 0 36.5 17t51.5 47t82 72zM362 344q-3 -2 -26.5 -3.5t-51.5 -1t-51 3t-24 10.5q-1 12 4 24t12.5 22t15 16.5t10.5 7.5q8 5 14 2q31 -12 52.5 -16t36 -5t23.5 -0.5t15 -0.5t9 -6t1 -13
t-11.5 -18.5t-28.5 -21.5z" />
    <glyph glyph-name="uni043A" unicode="&#x43a;" horiz-adv-x="323" 
d="M215 283q0 -2 -5 -10t-13 -19l-95 -137q33 32 66.5 60.5t64 52t56.5 41t43 26.5q6 3 14 0.5t14 -8.5t9.5 -13.5t2.5 -13.5q-1 -2 -5 -4q-3 -2 -29.5 -16.5t-59.5 -34t-64 -39.5t-43 -32q-2 -2 -4 -3q10 -2 19 -5.5t13 -12.5q9 -20 20.5 -47t27.5 -52t35 -42.5t43 -17.5
q8 0 21 4.5t16 4.5q6 0 6 -5q0 -3 -6 -8t-15.5 -9.5t-21.5 -8t-25 -3.5q-35 0 -63 19t-49 45.5t-35.5 55.5t-21.5 49q0 -1 -1 -1q-2 -2 -16 -15t-32.5 -31t-37.5 -37t-31 -34q-9 -13 -13.5 -20t-6.5 -10t-3 -4t-3 -1q-5 -1 -11.5 4.5t-13.5 19.5q-3 7 3 23q11 28 34 70
t54 92t70.5 108.5t44.5 63.5q10 8 14 8q5 0 11 -6t11 -14t8 -17t3 -16z" />
    <glyph glyph-name="uni043B" unicode="&#x43b;" horiz-adv-x="331" 
d="M406 148q2 2 5.5 3.5t3.5 -4.5q0 -10 -3.5 -15.5t-4.5 -6.5q-38 -42 -72 -75.5t-61.5 -54t-47.5 -20.5q-13 0 -28.5 13.5t-15.5 48.5q0 17 14.5 47t35.5 63q-33 -35 -64 -66t-58 -54.5t-49 -37.5t-37 -14q-12 0 -28 13.5t-16 48.5q0 12 8 31.5t20.5 42t38 53t30.5 30.5
t11 -5.5t11 -14t8 -17.5t3 -15q0 -3 -12.5 -21t-19 -26t-12.5 -19.5t-18.5 -33t-12.5 -30.5q0 -3 2 -3q9 0 28 13.5t44 35t53 49t56 55.5t53 54t44 45q14 17 25 27.5t16 10.5t11 -6t11 -14t8 -17.5t3 -15.5q0 -3 -11.5 -19.5t-28 -39.5t-36.5 -50t-36.5 -52t-28 -44.5
t-11.5 -28.5q0 -3 2 -3q15 0 36.5 17t51.5 47t79 75z" />
    <glyph glyph-name="uni043C" unicode="&#x43c;" horiz-adv-x="543" 
d="M252 -17v-1q-14 -7 -26 -7q-13 0 -28.5 13.5t-15.5 48.5q0 17 14.5 47t35.5 63q-33 -35 -64 -66t-58 -54.5t-49 -37.5t-37 -14q-12 0 -28 13.5t-16 48.5q0 12 8 31.5t20.5 42t38 53t30.5 30.5t11 -5.5t11 -14t8 -17.5t3 -15q0 -3 -12.5 -21t-19 -26t-12.5 -19.5
t-18.5 -33t-12.5 -30.5q0 -3 2 -3q9 0 28 13.5t44 35t53 49t56 55.5t53 54t44 45q14 17 25 27.5t16 10.5t11 -6t11 -14t8 -17.5t3 -15.5q0 -3 -11.5 -19.5t-28 -39.5t-36.5 -50t-36.5 -52t-27.5 -44q-9 -14 -11 -23v-1q-1 -3 -1 -5q0 -3 2 -3q9 0 28 13.5t44 35t53 49
t56 55.5t53 54t44 45q14 17 25 27.5t16 10.5t11 -6t11 -14t8 -17.5t3 -15.5q0 -3 -11.5 -19.5t-28 -39.5t-36.5 -50t-36.5 -52t-28 -44.5t-11.5 -28.5q0 -3 2 -3q15 0 36.5 17t51.5 47t82 72q2 2 5.5 3.5t3.5 -4.5q0 -10 -3.5 -15.5t-4.5 -6.5q-41 -39 -75 -72.5t-61.5 -54
t-47.5 -20.5q-13 0 -28.5 13.5t-15.5 48.5q0 17 14.5 47t35.5 63q-33 -35 -64 -66t-58 -54.5t-49 -37.5q-6 -4 -11 -6z" />
    <glyph glyph-name="uni043D" unicode="&#x43d;" horiz-adv-x="380" 
d="M288 195q19 28 36.5 51t32 38t20.5 15q5 0 11 -6t11 -14t8 -17.5t3 -15.5q0 -4 -10.5 -19t-26.5 -36.5t-35 -47t-35 -49t-26.5 -42.5t-10.5 -28q0 -2 3 -2q18 0 46.5 22.5t54.5 48t56 54.5q2 2 5.5 3.5t3.5 -4.5q0 -10 -3.5 -15.5t-4.5 -6.5q-15 -16 -38.5 -41.5
t-47.5 -44.5t-46 -30.5t-39 -11.5q-18 0 -28.5 17t-10.5 39q0 13 10 36q6 13 13 27q-14 -7 -28 -13q-37 -16 -71 -16q-28 0 -46 12q-13 -19 -29 -43q-48 -71 -49 -73l2 4q-11 -13 -14 -13q-5 -1 -15 8t-18 23q-4 10 4 23q12 20 31.5 51t41.5 65t44.5 68t42.5 61q9 11 13 20
t7.5 15t7 9t10.5 3q9 0 20 -14.5t15 -29.5q2 -9 -1 -15t-11 -17q-8 -10 -19 -25.5t-23.5 -33.5t-26.5 -38q-2 -3 -5 -8q-1 -5 -1 -11t3 -8.5t18 -2.5q52 0 100 25q9 5 17 10q13 21 28 44z" />
    <glyph glyph-name="uni043E" unicode="&#x43e;" horiz-adv-x="246" 
d="M174 60q-27 -31 -54 -55t-51 -39t-42 -15q-20 0 -33.5 23.5t-13.5 50.5q0 21 12 51.5t28 59t31.5 49t21.5 23.5q7 23 25 44.5t41 37.5t47.5 25.5t42.5 9.5q7 0 18.5 -4.5t22.5 -12t19 -17.5t8 -21q0 -20 -14.5 -51t-48 -79.5t-60.5 -79.5zM211 143q27 41 44 77.5t17 55.5
q0 7 -8 7q-12 0 -30 -8.5t-38 -21.5t-38 -30t-30 -33q4 -4 4 -10t-16 -30l-16 -23q-12 -17 -25 -36.5t-24 -38t-18 -36t-7 -29.5q0 -3 4 -3q18 0 38.5 10.5t41.5 28.5t41.5 41.5t38.5 48.5z" />
    <glyph glyph-name="uni043F" unicode="&#x43f;" horiz-adv-x="380" 
d="M438 151q1 2 5 3.5t4 -4.5q0 -10 -3.5 -15.5t-4.5 -6.5q-15 -15 -37.5 -40t-36.5 -40t-41 -38t-50.5 -37.5t-39.5 -14.5q-17 0 -28 17t-11 38q0 13 8.5 33t22 43.5t29.5 47.5t30.5 44.5t25.5 35.5t14 20q16 21 16 29q0 3 -3 3q-13 0 -41.5 -21t-64 -52t-73 -68t-69 -68.5
t-52 -53.5t-21.5 -24l2 4q-11 -13 -14 -13q-5 -1 -15 8t-18 23q-4 10 4 23q12 20 31.5 51t41.5 65t44.5 68t42.5 61q9 11 13 20t7.5 15t7 9t10.5 3q9 0 20 -14.5t15 -29.5q2 -9 -1 -15t-11 -17q-8 -10 -19 -25.5t-23.5 -33.5t-26.5 -38t-27 -39q28 27 64.5 61t73 64t67.5 51
t48 21t34 -20.5t17 -55.5q0 -6 -11.5 -23.5t-29.5 -41t-38 -50t-38 -51t-29.5 -44.5t-11.5 -29q0 -2 2 -2q15 0 41 20.5t63 58t85 85.5z" />
    <glyph glyph-name="uni0440" unicode="&#x440;" horiz-adv-x="383" 
d="M365 137q-19 -34 -45.5 -67.5t-58 -60.5t-66.5 -44t-69 -17t-58 11.5t-33 25.5q-41 -45 -78.5 -87.5t-68.5 -78.5q-29 -39 -54 -74t-44.5 -62t-32 -45.5t-16.5 -24.5q-5 -9 -11 -5t-15 12q-8 8 -12.5 23t1.5 29q4 6 10 14q51 79 95 143.5t91 130.5t104 142t134 178
q2 3 3 5.5t1 6.5q2 16 14 6q23 -19 29.5 -42.5t-10.5 -46.5q-20 -26 -42 -56t-46 -63q42 44 82.5 84.5t75 72t59.5 50t36 18.5q12 0 22.5 -6.5t18.5 -17t13 -24.5t5 -29q0 -16 -5.5 -35.5t-15.5 -41.5zM58 1q1 0 5 -0.5t10 -0.5q49 0 92.5 27.5t78.5 67.5l21 25q18 24 33 48
t25 45.5t15.5 38.5t5.5 27q0 4 -4 4q-8 0 -31 -19t-56 -50.5t-73 -73t-83 -87.5q-35 -42 -39 -52z" />
    <glyph glyph-name="uni0441" unicode="&#x441;" horiz-adv-x="274" 
d="M315 162q1 2 5 3.5t4 -4.5q0 -10 -3.5 -15.5t-4.5 -6.5q-24 -25 -69 -67t-94 -69.5t-98 -27.5q-36 0 -55.5 19t-19.5 53q0 39 24.5 86.5t61.5 89t79.5 69.5t77.5 28q6 0 18.5 -2.5t24.5 -8.5t21.5 -16.5t9.5 -26.5q0 -20 -12 -43t-27.5 -42t-31 -31.5t-21.5 -12.5
q-8 0 -15 6t-7 12q0 4 4 7q18 14 34 31t27.5 33t18.5 29.5t7 22.5q0 10 -10 10q-14 0 -36.5 -14.5t-48 -38t-51 -53.5t-46 -60t-33.5 -58t-13 -48q0 -6 3 -8.5t18 -2.5q47 0 93 24.5t90.5 63.5t74.5 69z" />
    <glyph glyph-name="uni0442" unicode="&#x442;" horiz-adv-x="629" 
d="M657 143q2 2 5.5 3.5t3.5 -4.5q0 -10 -3 -15.5t-5 -6.5q-15 -15 -22 -22.5t-35.5 -36t-55.5 -51.5t-50.5 -37.5t-39.5 -14.5q-18 0 -28.5 17t-10.5 38q0 19 14.5 48t33 57.5t35.5 51.5t22 30q8 11 12.5 18t4.5 11q0 3 -3 3q-13 0 -39.5 -17.5t-58 -44t-65 -58
t-61.5 -58.5t-46 -46t-19 -21l1 4q-1 -2 -1 -4q-18 0 -28.5 17t-10.5 39q0 19 16.5 49t37.5 60t40 54t24 31q7 10 11.5 17.5t4.5 11.5q0 3 -3 3q-13 0 -42 -21t-64 -52t-73 -68t-69 -68.5t-51.5 -53.5t-21.5 -24l1 4q-10 -13 -13 -13q-5 -1 -15.5 8t-17.5 23q-2 4 -2 9.5
t5 13.5q13 20 32 51t41 65t45 68t43 61q8 11 12.5 20l7.5 15t6.5 9t11.5 3q9 0 19.5 -14.5t14.5 -29.5q2 -9 -1 -15t-11 -17q-7 -10 -18 -25.5t-23.5 -33.5t-26.5 -38t-27 -39q28 27 64.5 61t73 64t67.5 51t47 21q17 0 34.5 -20.5t17.5 -55.5q0 -5 -8.5 -18.5t-21.5 -31.5
t-29.5 -39t-32.5 -43q24 22 58 52t68.5 56t64 44.5t46.5 18.5q8 0 17.5 -5.5t17 -15t12.5 -23.5t5 -32q0 -6 -10 -21t-25 -34t-32 -41t-32 -42.5t-25 -37.5t-10 -26q0 -2 2 -2q15 0 41 20.5t61 55t85 80.5z" />
    <glyph glyph-name="uni0443" unicode="&#x443;" horiz-adv-x="363" 
d="M-29 -230q10 12 27 36.5t40 56.5q-37 -23 -79 -49t-91 -57q-59 -37 -97.5 -65.5t-61 -49.5t-31 -35.5t-8.5 -23.5q0 -11 8 -15t18 -4q8 0 11 1q80 22 141.5 74t122.5 131zM198 -37l57 45q22 18 42 35q21 18 40 37q35 34 100 93q1 2 5 3.5t4 -4.5q1 -10 -2 -15.5t-4 -6.5
q-60 -63 -95 -96q-27 -27 -58 -53q-30 -25 -67 -54l-72 -54q-21 -28 -39 -54q-21 -28 -38.5 -51t-29.5 -38q-45 -57 -84.5 -98.5t-77.5 -68.5t-76.5 -40t-80.5 -13q-27 0 -48.5 18t-21.5 45q0 32 36.5 69t96 77.5t135.5 85t156 92.5q37 53 79 111.5t80 112.5
q-32 -34 -62.5 -64t-57 -53t-48 -36.5t-35.5 -13.5q-12 0 -28 13.5t-16 49.5q0 12 7.5 31t20.5 41.5t29 46.5t33 47q13 19 29 40t31 38t26.5 28t15.5 11q6 0 11.5 -6t10.5 -14t8 -17t3 -16q0 -3 -12.5 -21t-31.5 -43.5t-41 -55.5t-41 -57t-31.5 -48.5t-12.5 -30.5q0 -2 2 -2
q9 0 30 15t47.5 39t56.5 53.5t59 58.5t54 55t42 42q14 17 23.5 27t13.5 10q5 0 11 -6t11 -14t8 -17.5t3 -15.5q0 -4 -16 -26.5t-39 -54.5q1 1 -7.5 -10.5t-24 -33t-35.5 -49.5q-19 -26 -80 -113z" />
    <glyph glyph-name="uni0444" unicode="&#x444;" horiz-adv-x="616" 
d="M61 5q11 0 28.5 10.5t39 28.5t45 41t46.5 48q19 25 36 46.5t31 39.5q-1 4 -1 10t-1 11.5t-3.5 9.5t-8.5 4q-11 0 -31.5 -12.5t-45 -32.5t-50 -45.5t-46 -52.5t-33.5 -52.5t-13 -45.5q0 -8 7 -8zM472 120q18 24 33 48t25 45.5t15.5 38.5t5.5 27q0 4 -4 4q-8 0 -31 -19
t-56 -50.5t-73 -73t-83 -87.5q-35 -42 -39 -52q1 0 5 -0.5t10 -0.5q49 0 92.5 27.5t99.5 92.5zM572 137q-19 -34 -45.5 -67.5t-58 -60.5t-66.5 -44t-69 -17t-58 11.5t-33 25.5q-41 -45 -78.5 -87.5t-68.5 -78.5q-29 -39 -54 -74t-44.5 -62t-32 -45.5t-16.5 -24.5
q-5 -9 -11 -5t-15 12q-8 8 -12.5 23t1.5 29q4 6 10 14q51 79 95 143.5t91 130.5q33 47 72 99l-45 -44q-21 -18 -38.5 -29t-27.5 -11q-6 0 -17 3.5t-21.5 12t-18 24t-7.5 39.5q0 25 11.5 53t30 55t43 52t51 44t52 30t47.5 11q27 0 46.5 -16t24.5 -37q28 34 32 34h3q2 3 3 5.5
t1 6.5q2 16 14 6q23 -19 29.5 -42.5t-10.5 -46.5q-20 -26 -42 -56t-46 -63q42 44 82.5 84.5t75 72t59.5 50t36 18.5q12 0 22.5 -6.5t18.5 -17t13 -24.5t5 -29q0 -16 -5.5 -35.5t-15.5 -41.5z" />
    <glyph glyph-name="uni0445" unicode="&#x445;" horiz-adv-x="382" 
d="M181 244l-38 -34q-63 -56 -111 -105q-2 -2 -5.5 -3.5t-3.5 4.5q-1 10 2 15.5t5 6.5q14 16 20.5 24t34 37.5t53.5 53.5q20 19 45 40q3 3 6 5q4 13 8 17q9 9 10 9q11 0 19 -8t13.5 -22t9 -32.5t5.5 -38.5q45 29 81.5 54t54.5 44q5 5 14 13.5t17 8.5q4 0 8.5 -4.5t8.5 -10.5
t7 -13.5t3 -13.5q0 -9 -16 -24t-43 -33.5t-61 -40.5t-70 -45q1 -21 2 -40.5t2.5 -34.5t3.5 -23.5t7 -8.5q24 0 51 16t46.5 32.5t56.5 50.5q2 2 5.5 3.5t3.5 -4.5q0 -10 -3.5 -15.5t-4.5 -6.5q-21 -23 -45 -45.5t-59 -47.5t-62 -25q-32 0 -48.5 28t-24.5 75
q-27 -18 -51.5 -36t-43 -34.5t-29.5 -31t-11 -26.5q0 -5 -6 -5q-2 0 -4 2q-14 8 -23 18.5t-9 22.5q0 13 14 30.5t38 37.5t55 42t64 44q-2 20 -2 42v36z" />
    <glyph glyph-name="uni0446" unicode="&#x446;" 
d="M226 -21q-19 -35 -36 -63t-26 -38q12 -1 26.5 1.5t31.5 17.5q6 5 11.5 14.5t7 21t-1 23.5t-11.5 22zM206 -18q-4 3 -8 7q-16 13 -16 48q0 17 14.5 47t35.5 63q-33 -35 -64 -66t-58 -54.5t-49 -37.5t-37 -14q-12 0 -28 13.5t-16 48.5q0 12 8 31.5t20.5 42t29 46.5t33.5 47
q13 19 29 39.5t30.5 37.5t26 28t16.5 11t11 -5.5t11 -14t8 -17.5t3 -15q0 -3 -12.5 -21t-31.5 -43.5t-41.5 -55.5t-41.5 -57t-31.5 -48.5t-12.5 -30.5q0 -3 2 -3q9 0 28 13.5t44 35t53 49t56 55.5t53 54t44 45q14 17 25 27.5t16 10.5t11 -6t11 -14t8 -17.5t3 -15.5
q0 -3 -11.5 -19.5t-28 -39.5t-36.5 -50t-36.5 -52t-28 -44.5t-11.5 -28.5q0 -3 2 -3q15 0 36.5 17t51.5 47t82 72q2 2 5.5 3.5t3.5 -4.5q0 -10 -3.5 -15.5t-4.5 -6.5q-41 -39 -75 -72.5t-61 -53.5q-7 -6 -14 -9q31 -35 27 -69q-4 -36 -35 -62q-13 -12 -31.5 -14.5t-37 0
t-35 10t-24.5 17.5q-6 6 0 10q1 1 1.5 1t1.5 1q17 12 40 43q19 26 39 58z" />
    <glyph glyph-name="uni0447" unicode="&#x447;" 
d="M309 178q-10 -13 -17.5 -24t-13.5 -18q-15 -19 -32 -41t-32 -42.5t-25 -37.5t-10 -26q0 -2 2 -2q15 0 41 20.5t61 55t85 80.5q2 2 5.5 3.5t3.5 -4.5q0 -10 -3 -15.5t-5 -6.5q-15 -15 -22 -22.5t-35.5 -36t-55.5 -51.5t-50.5 -37.5t-39.5 -14.5q-18 0 -28.5 17t-10.5 38
q0 19 14.5 48t29.5 53.5t24 37.5q18 26 51.5 67t33.5 45h-31h-14t-15 2l-10 3q-34 -29 -67 -59q-63 -56 -111 -105q-2 -2 -5.5 -3.5t-3.5 4.5q-1 10 2 15.5t5 6.5q14 16 20.5 24t34 37.5t53.5 53.5q20 19 44 40q-7 8 -7 19q0 7 6 7q1 0 5 -2q5 -3 17.5 -4t29.5 -1
q18 0 37.5 0.5t35.5 1.5q18 1 37 3q11 0 20.5 -10.5t9.5 -27.5q0 -8 -2.5 -14t-5.5 -10q-8 -12 -29 -34q-7 -7 -14 -15q-6 -8 -13 -18z" />
    <glyph glyph-name="uni0448" unicode="&#x448;" horiz-adv-x="544" 
d="M198 -11q-16 13 -16 48q0 17 14.5 47t35.5 63q-33 -35 -64 -66t-58 -54.5t-49 -37.5t-37 -14q-12 0 -28 13.5t-16 48.5q0 12 8 31.5t20.5 42t29 46.5t33.5 47q13 19 29 39.5t30.5 37.5t26 28t16.5 11t11 -5.5t11 -14t8 -17.5t3 -15q0 -3 -12.5 -21t-31.5 -43.5
t-41.5 -55.5t-41.5 -57t-31.5 -48.5t-12.5 -30.5q0 -3 2 -3q9 0 28 13.5t44 35t53 49t56 55.5t53 54t44 45q14 17 25 27.5t16 10.5t11 -6t11 -14t8 -17.5t3 -15.5q0 -3 -11.5 -19.5t-28 -39.5t-36.5 -50t-36.5 -52t-27.5 -44l-6 -10h1q-6 -13 -6 -19q0 -3 2 -3q9 0 28 13.5
t44 35t53 49t56 55.5t53 54t44 45q14 17 25 27.5t16 10.5t11 -6t11 -14t8 -17.5t3 -15.5q0 -3 -11.5 -19.5t-28 -39.5t-36.5 -50t-36.5 -52t-28 -44.5t-11.5 -28.5q0 -3 2 -3q15 0 36.5 17t51.5 47t82 72q2 2 5.5 3.5t3.5 -4.5q0 -10 -3.5 -15.5t-4.5 -6.5
q-41 -39 -75 -72.5t-61.5 -54t-47.5 -20.5q-13 0 -28.5 13.5t-15.5 48.5q0 17 14.5 47t35.5 63q-33 -35 -64 -66t-58 -54.5t-49 -37.5t-37 -14q-7 0 -14.5 3.5t-14.5 10.5z" />
    <glyph glyph-name="uni0449" unicode="&#x449;" horiz-adv-x="544" 
d="M198 -11q-16 13 -16 48q0 17 14.5 47t35.5 63q-33 -35 -64 -66t-58 -54.5t-49 -37.5t-37 -14q-12 0 -28 13.5t-16 48.5q0 12 8 31.5t20.5 42t29 46.5t33.5 47q13 19 29 39.5t30.5 37.5t26 28t16.5 11t11 -5.5t11 -14t8 -17.5t3 -15q0 -3 -12.5 -21t-31.5 -43.5
t-41.5 -55.5t-41.5 -57t-31.5 -48.5t-12.5 -30.5q0 -3 2 -3q9 0 28 13.5t44 35t53 49t56 55.5t53 54t44 45q14 17 25 27.5t16 10.5t11 -6t11 -14t8 -17.5t3 -15.5q0 -3 -11.5 -19.5t-28 -39.5t-36.5 -50t-36.5 -52t-27.5 -44l-6 -10h1q-6 -13 -6 -19q0 -3 2 -3q9 0 28 13.5
t44 35t53 49t56 55.5t53 54t44 45q14 17 25 27.5t16 10.5t11 -6t11 -14t8 -17.5t3 -15.5q0 -3 -11.5 -19.5t-28 -39.5t-36.5 -50t-36.5 -52t-28 -44.5t-11.5 -28.5q0 -3 2 -3q15 0 36.5 17t51.5 47t82 72q2 2 5.5 3.5t3.5 -4.5q0 -10 -3.5 -15.5t-4.5 -6.5
q-41 -39 -75 -72.5t-61.5 -54t-47.5 -20.5q-13 0 -28.5 13.5t-15.5 48.5q0 17 14.5 47t35.5 63q-33 -35 -64 -66t-58 -54.5t-49 -37.5t-37 -14q-7 0 -14.5 3.5t-14.5 10.5zM450 -3q4 -4 8.5 -8t9.5 -10q32 -35 28 -70.5t-35 -61.5q-13 -12 -31.5 -14.5t-37 0t-35 10
t-24.5 17.5q-6 6 0 10q1 1 1.5 1t1.5 1q17 12 39.5 42.5t45.5 69.5q10 27 14 25zM435 -30q-19 -35 -36 -63t-26 -38q12 -1 26.5 1.5t31.5 17.5q6 5 11.5 14.5t7 21t-1 23.5t-11.5 22z" />
    <glyph glyph-name="uni044A" unicode="&#x44a;" 
d="M181 -9q2 -2 11.5 3.5t22 15.5t24.5 22t19.5 23t7.5 19.5t-13 10.5q-3 2 -4 2l-4 -4q-11 -11 -23.5 -26t-22.5 -29t-15.5 -24.5t-2.5 -12.5zM284 63q35 35 84 80q2 2 5.5 3.5t3.5 -4.5q0 -10 -3 -15.5t-5 -6.5q-15 -15 -22 -22.5t-35.5 -36t-55.5 -51.5t-50.5 -37.5
t-39.5 -14.5q-18 0 -28.5 17t-10.5 38q0 19 14.5 48t29.5 53.5t24 37.5q18 26 51.5 67t33.5 45h-31h-14t-15 2l-10 3q-34 -29 -67 -59q-63 -56 -111 -105q-2 -2 -5.5 -3.5t-3.5 4.5q-1 10 2 15.5t5 6.5q14 16 20.5 24t34 37.5t53.5 53.5q20 19 44 40q-7 8 -7 19q0 7 6 7
q1 0 5 -2q5 -3 17.5 -4t29.5 -1q18 0 37.5 0.5t35.5 1.5q18 1 37 3q11 0 20.5 -10.5t9.5 -27.5q0 -8 -2.5 -14t-5.5 -10q-8 -12 -29 -34q-7 -7 -14 -15q-6 -8 -13 -18q-10 -13 -17.5 -24t-13.5 -18q-12 -16 -26 -34q0 -1 1 -2v-3q5 -1 10.5 -3.5t9.5 -4.5q14 -10 11 -25v-1z
" />
    <glyph glyph-name="uni044B" unicode="&#x44b;" 
d="M40 10q2 -2 11 4t20.5 17t23 24t18 24.5t6 20t-13.5 9.5q-3 2 -4 1l-4 -4q-10 -12 -21.5 -27.5t-20.5 -30.5t-14 -25.5t-1 -12.5zM134 80q14 13 28 27q28 27 56 55t53 54t44 45q14 17 25 27.5t16 10.5t11 -6t11 -14t8 -17.5t3 -15.5q0 -3 -11.5 -19.5t-28 -39.5
t-36.5 -50t-36.5 -52t-28 -44.5t-11.5 -28.5q0 -3 2 -3q15 0 36.5 17t51.5 47t82 72q2 2 5.5 3.5t3.5 -4.5q0 -10 -3.5 -15.5t-4.5 -6.5q-41 -39 -75 -72.5t-61.5 -54t-47.5 -20.5q-13 0 -28.5 13.5t-15.5 48.5q0 17 14.5 47t35.5 63q-33 -35 -64 -66t-58 -54.5t-49 -37.5
t-37 -14q-12 0 -28 13.5t-16 48.5q0 12 8 31.5t20.5 42t52 78t54 72.5t26 28t16.5 11t11 -5.5t11 -14t8 -17.5t3 -15q0 -3 -69 -100q-9 -12 -18 -23l1 -1v-3q5 -1 10.5 -3t9.5 -4q15 -9 13 -24q-1 -5 -3 -10z" />
    <glyph glyph-name="uni044C" unicode="&#x44c;" horiz-adv-x="168" 
d="M9 -9q2 -2 11.5 3.5t22 15.5t24.5 22t19.5 23t7.5 19.5t-13 10.5q-3 2 -4 2l-4 -4q-11 -11 -23.5 -26t-22.5 -29t-15.5 -24.5t-2.5 -12.5zM80 102q0 -1 1 -2v-3q5 -1 10.5 -3.5t9.5 -4.5q14 -10 11 -25v-1q35 35 84 80q2 2 5.5 3.5t3.5 -4.5q0 -10 -3 -15.5t-5 -6.5
q-15 -15 -22 -22.5t-35.5 -36t-55.5 -51.5t-50.5 -37.5t-39.5 -14.5q-18 0 -28.5 17t-10.5 38q0 19 14.5 48t29.5 53.5t59.5 88t59 78.5t20.5 15q5 0 11 -6t11 -14t8 -17.5t3 -15.5q0 -4 -10 -19q-6 -7 -35 -52.5t-46 -69.5z" />
    <glyph glyph-name="uni044D" unicode="&#x44d;" horiz-adv-x="274" 
d="M9 51q2 5 6.5 14t11.5 21q10 18 23 30.5t17 14.5q7 0 14 -4.5t8 -9.5q0 -3 -3 -7q-14 -14 -26 -31t-21.5 -35t-9.5 -27q0 -10 10 -10q14 0 36.5 14.5t48 38t50.5 53.5q8 10 16 19h-26q-16 -1 -28 -1q-5 0 -3.5 11.5t8.5 21.5q1 1 3.5 2.5t7.5 1.5q9 0 25 0.5t32 0.5
q5 0 9 1l16 23q11 20 20 38q13 28 13 48q0 6 -3 8.5t-18 2.5q-9 0 -19 -1q-10 -4 -22 -10q-16 -8 -23 -18q-4 -5 -9 -6.5t-9 -4.5l-2 -1q-6 -1 -8 10q-3 13 15 32q17 18 46 25v1q7 1 13 2q10 2 21 1q35 0 55 -19q19 -19 19 -53q0 -39 -24.5 -86.5t-61.5 -89t-79.5 -69.5
t-77.5 -28q-6 0 -18.5 2.5t-24.5 8.5t-21.5 16.5t-9.5 26.5q0 10 3 21v1z" />
    <glyph glyph-name="uni044E" unicode="&#x44e;" horiz-adv-x="453" 
d="M435 143q27 41 44 77.5t17 55.5q0 7 -8 7q-12 0 -30 -8.5t-38 -21.5t-38 -30t-30 -33q4 -4 4 -10t-16 -30l-16 -23q-12 -17 -25 -36.5t-24 -38t-18 -36t-7 -29.5q0 -3 4 -3q18 0 38.5 10.5t41.5 28.5t41.5 41.5t38.5 48.5zM231 110q-10 -4 -19 -8q-37 -16 -71 -16
q-28 0 -46 12q-13 -19 -29 -43q-48 -71 -49 -73l2 4q-11 -13 -14 -13q-5 -1 -15 8t-18 23q-4 10 4 23q12 20 31.5 51t41.5 65t44.5 68t42.5 61q9 11 13 20t7.5 15t7 9t10.5 3q9 0 20 -14.5t15 -29.5q2 -9 -1 -15t-11 -17q-8 -10 -19 -25.5t-23.5 -33.5t-26.5 -38
q-2 -3 -5 -8q-1 -5 -1 -11t3 -8.5t18 -2.5q52 0 100 25q3 2 6 3q14 23 27 41q15 20 21 23q7 23 25 44.5t41 37.5t47.5 25.5t42.5 9.5q7 0 18.5 -4.5t22.5 -12t19 -17.5t8 -21q0 -20 -14.5 -51t-48 -79.5t-60.5 -79.5t-54 -55t-51 -39t-42 -15q-20 0 -33.5 23.5t-13.5 50.5
q0 21 12 52q7 17 15 33z" />
    <glyph glyph-name="uni044F" unicode="&#x44f;" horiz-adv-x="340" 
d="M190 162q3 -3 15.5 4.5t29 21t32.5 30t26.5 31.5t11 26t-14.5 14q-4 2 -5 3l-6 -6q-15 -15 -32 -35t-30.5 -39t-21.5 -33t-5 -17zM327 275q7 8 13 14q11 10 16 10t11 -6t11 -14t8 -17.5t3 -15.5q0 -3 -11.5 -19.5t-28 -39.5t-36.5 -50t-36.5 -52t-28 -44.5t-11.5 -28.5
q0 -3 2 -3q15 0 36.5 17t51.5 47t79 75q2 2 5.5 3.5t3.5 -4.5q0 -10 -3.5 -15.5t-4.5 -6.5q-38 -42 -72 -75.5t-61.5 -54t-47.5 -20.5q-13 0 -28.5 13.5t-15.5 48.5q0 17 15 47q12 26 29 54l-8 -6q-26 -27 -50 -51q-31 -31 -58 -54.5t-49 -37.5t-37 -14q-12 0 -28 13.5
t-16 48.5q0 12 8 31.5t20.5 42t38 53t30.5 30.5t11 -5.5t11 -14t8 -17.5t3 -15q0 -3 -12.5 -21t-19 -26t-12.5 -19.5t-18.5 -33t-12.5 -30.5q0 -3 2 -3q9 0 28 13.5t44 35t53 49.5l14 14h-1q-11 4 -19 12.5t-11.5 20.5t-3.5 23q-1 13 10.5 36t29.5 46t38 41.5t37 24.5
q12 4 21.5 -1t13.5 -15v-4q6 -2 12.5 -5t11.5 -6q11 -8 12 -19z" />
    <glyph glyph-name="uni0451" unicode="&#x451;" horiz-adv-x="269" 
d="M345 186q1 2 5 3q4 2 4 -4q0 -10 -4 -16q-3 -5 -4 -6q-8 -8 -18.5 -18t-42.5 -39q-33 -28 -68 -52q-35 -23 -72 -39q-36 -15 -70 -15q-36 0 -56 19q-19 19 -19 53q0 26 11 55q10 29 28 58t42 55q23 27 48 47q26 21 52 33t50 12q8 0 21 -3q12 -2 24 -8t20 -17q9 -10 9 -26
q0 -26 -13 -48q-14 -22 -35 -40q-21 -17 -46 -31q-26 -13 -50 -22q-25 -8 -46 -13q-20 -4 -30 -3q-14 -23 -21 -43q-8 -20 -8 -37q0 -6 3 -9q3 -2 18 -2q52 0 99 25q48 25 90 60q42 36 79 71zM268 295q-14 0 -34 -13q-21 -12 -44 -33q-23 -20 -45 -47q-23 -26 -42 -53
q29 7 60 23q31 17 56 37q26 20 43 40q16 21 16 36q0 10 -10 10zM189 433q14 5 28 4t23 -18q4 -8 2.5 -17.5t-8 -18.5t-17 -15.5t-24.5 -7.5q-18 -2 -27 7t-9.5 21.5t7.5 25.5t25 19zM360 419q4 -8 2.5 -17.5t-8 -18.5t-17 -15.5t-24.5 -7.5q-18 -2 -26.5 7t-9 21.5t7.5 25.5
t24 19q14 5 28 4t23 -18z" />
    <glyph glyph-name="uni0454" unicode="&#x454;" horiz-adv-x="274" 
d="M69 102q-11 -20 -20 -38q-13 -28 -13 -48q0 -6 3 -8.5t18 -2.5q47 0 93 24.5t90.5 63.5t74.5 69q1 2 5 3.5t4 -4.5q0 -10 -3.5 -15.5t-4.5 -6.5q-24 -25 -69 -67t-94 -69.5t-98 -27.5q-36 0 -55.5 19t-19.5 53q0 39 24.5 86.5t61.5 89t79.5 69.5t77.5 28q6 0 18.5 -2.5
t24.5 -8.5t21.5 -16.5t9.5 -26.5q0 -20 -12 -43t-27.5 -42t-31 -31.5t-21.5 -12.5q-8 0 -15 6t-7 12q0 4 4 7q18 14 34 31t27.5 33t18.5 29.5t7 22.5q0 10 -10 10q-14 0 -36.5 -14.5t-48 -38t-50.5 -53.5q-18 -21 -34 -42h11q15 0 30.5 0.5t27.5 0.5q5 0 3.5 -11.5
t-8.5 -21.5q-1 -1 -3.5 -2.5t-7.5 -1.5q-9 0 -25 -0.5t-32 -0.5q-12 -1 -22 -1z" />
    <glyph glyph-name="uni0456" unicode="&#x456;" horiz-adv-x="133" 
d="M209 349q-14 2 -18 13t6 25q9 14 26 21.5t31 5.5q15 -2 18.5 -13t-5.5 -25q-10 -14 -27 -21.5t-31 -5.5zM189 147q2 2 5.5 3.5t3.5 -4.5q0 -10 -3.5 -15.5t-4.5 -6.5q-15 -16 -38.5 -41.5t-47.5 -44.5t-46 -30.5t-39 -11.5q-18 0 -28.5 17t-10.5 39q0 13 10 36t26 50.5
t35 56t36.5 51.5t32 38t20.5 15q5 0 11 -6t11 -14t8 -17.5t3 -15.5q0 -4 -10.5 -19t-26.5 -36.5t-35 -47t-35 -49t-26.5 -42.5t-10.5 -28q0 -2 3 -2q18 0 46.5 22.5t54.5 48t56 54.5z" />
    <glyph glyph-name="uni0457" unicode="&#x457;" horiz-adv-x="133" 
d="M104 336q-14 2 -18 13t6 25q9 14 26 21.5t31 5.5q15 -2 18.5 -13t-5.5 -25q-10 -14 -27 -21.5t-31 -5.5zM189 147q2 2 5.5 3.5t3.5 -4.5q0 -10 -3.5 -15.5t-4.5 -6.5q-15 -16 -38.5 -41.5t-47.5 -44.5t-46 -30.5t-39 -11.5q-18 0 -28.5 17t-10.5 39q0 13 10 36t26 50.5
t35 56t36.5 51.5t32 38t20.5 15q5 0 11 -6t11 -14t8 -17.5t3 -15.5q0 -4 -10.5 -19t-26.5 -36.5t-35 -47t-35 -49t-26.5 -42.5t-10.5 -28q0 -2 3 -2q18 0 46.5 22.5t54.5 48t56 54.5zM205 336q-14 2 -18 13t6 25q9 14 26 21.5t31 5.5q15 -2 18.5 -13t-5.5 -25
q-10 -14 -27 -21.5t-31 -5.5z" />
    <glyph glyph-name="uni045E" unicode="&#x45e;" horiz-adv-x="363" 
d="M-29 -230q10 12 27 36.5t40 56.5q-37 -23 -79 -49t-91 -57q-59 -37 -97.5 -65.5t-61 -49.5t-31 -35.5t-8.5 -23.5q0 -11 8 -15t18 -4q8 0 11 1q80 22 141.5 74t122.5 131zM198 -37l57 45q22 18 42 35q21 18 40 37q35 34 100 93q1 2 5 3.5t4 -4.5q1 -10 -2 -15.5t-4 -6.5
q-60 -63 -95 -96q-27 -27 -58 -53q-30 -25 -67 -54l-72 -54q-21 -28 -39 -54q-21 -28 -38.5 -51t-29.5 -38q-45 -57 -84.5 -98.5t-77.5 -68.5t-76.5 -40t-80.5 -13q-27 0 -48.5 18t-21.5 45q0 32 36.5 69t96 77.5t135.5 85t156 92.5q37 53 79 111.5t80 112.5
q-32 -34 -62.5 -64t-57 -53t-48 -36.5t-35.5 -13.5q-12 0 -28 13.5t-16 49.5q0 12 7.5 31t20.5 41.5t29 46.5t33 47q13 19 29 40t31 38t26.5 28t15.5 11q6 0 11.5 -6t10.5 -14t8 -17t3 -16q0 -3 -12.5 -21t-31.5 -43.5t-41 -55.5t-41 -57t-31.5 -48.5t-12.5 -30.5q0 -2 2 -2
q9 0 30 15t47.5 39t56.5 53.5t59 58.5t54 55t42 42q14 17 23.5 27t13.5 10q5 0 11 -6t11 -14t8 -17.5t3 -15.5q0 -4 -16 -26.5t-39 -54.5q1 1 -7.5 -10.5t-24 -33t-35.5 -49.5q-19 -26 -80 -113zM362 344q-3 -2 -26.5 -3.5t-51.5 -1t-51 3t-24 10.5q-1 12 4 24t12.5 22
t15 16.5t10.5 7.5q8 5 14 2q31 -12 52.5 -16t36 -5t23.5 -0.5t15 -0.5t9 -6t1 -13t-11.5 -18.5t-28.5 -21.5z" />
    <glyph glyph-name="uni0490" unicode="&#x490;" horiz-adv-x="484" 
d="M834 562q-7 -1 -13 -1q-44 -2 -93 -4.5t-100.5 -5.5t-100.5 -7q-14 -15 -35 -35t-48.5 -47.5t-61.5 -64t-94.5 -108t-97.5 -118t-70 -90.5t-55.5 -80t-22.5 -51q0 -7 6 -8q2 -1 3.5 -1t1.5 -2t-6 -7.5t-14 -5.5q-16 0 -22.5 13.5t-6.5 27.5q0 21 13.5 51.5t36.5 68
t53.5 80.5t93 120.5t115 138t95.5 106.5q-69 -9 -122.5 -20t-90 -22.5t-55 -21t-17.5 -15.5q1 -5 -3 -3.5t-6 7.5q-6 22 13 42t49 35.5t64 26.5t60 16q40 8 82 13.5t91 10.5q26 28 29 28h-1q2 3 4 5.5t3 5.5q3 7 9 7q5 0 17.5 -11.5t17.5 -27.5q88 5 203 8q29 0 60 1v1
q4 0 8 -1q29 0 60 1q4 0 8 2q11 3 18.5 9.5t13.5 13.5t13 14q5 4 10 4t8 -4q5 -6 2 -13q-14 -29 -25.5 -46.5t-27.5 -25.5q-7 -3 -14 -5l-1 -3q-7 0 -15 -1q-6 0 -13 -1q-13 -1 -29 0z" />
    <glyph glyph-name="uni0491" unicode="&#x491;" horiz-adv-x="301" 
d="M321 546q23 0 46.5 -8.5t42.5 -24.5t31 -38t12 -50q0 -35 -18 -68t-44.5 -64t-57.5 -58.5t-57 -50.5q-38 -36 -79 -72.5t-77 -66t-63 -48.5t-37 -19q-11 0 -25 12t-14 43q0 11 11.5 33t29 48.5t36.5 53t34 46.5q12 17 26 35.5t27 33.5t23.5 25t14.5 10t9.5 -5t9.5 -12.5
t7 -16t3 -14.5q0 -3 -13.5 -21t-34 -44t-44 -57t-44 -58.5t-34 -49t-13.5 -29.5q0 -2 2 -2q7 0 30 18t54 46.5t67 64t69 69.5l52.5 52.5t55.5 61.5t43.5 65t17.5 65q0 18 -7.5 30.5t-19.5 20t-27 11t-30 3.5q-20 0 -37.5 -4.5t-26.5 -12.5q-5 -4 -10 -4.5t-10 -2.5h-2
q-6 0 -6 11q0 13 21.5 28t55.5 15z" />
    <glyph glyph-name="uni0492" unicode="&#x492;" horiz-adv-x="484" 
d="M1043 609q2 -4 -3.5 -11t-16 -14t-24.5 -12t-29 -5q-1 0 -21 -0.5t-52.5 -2t-76 -3.5t-92.5 -4.5t-100.5 -5.5t-100.5 -7q-14 -15 -35 -35t-48.5 -47.5t-61.5 -64t-74 -85.5l-4 -4t-4 -5q34 1 66 2t58.5 2t46 2t28.5 2q18 2 27 6t13 7t6 3t6 -5q5 -6 3 -16t-8.5 -20.5
t-17 -19t-23.5 -11.5t-37.5 -3.5t-57.5 -0.5t-72 0.5t-81 1.5q-30 -35 -67 -81.5t-70 -90.5t-55.5 -80t-22.5 -51q0 -7 6 -8q2 -1 3.5 -1t1.5 -2t-6 -7.5t-14 -5.5q-16 0 -22.5 13.5t-6.5 27.5q0 21 13.5 51.5t36.5 68t53.5 80.5t65.5 87q-48 0 -94 -1t-84 -5
q-10 -1 -12.5 1.5t-2.5 13.5q0 14 16 20q12 3 33.5 6t49.5 5t61.5 3.5t69.5 2.5q53 65 105.5 125.5t95.5 106.5q-69 -9 -122.5 -20t-90 -22.5t-55 -21t-17.5 -15.5q1 -5 -3 -3.5t-6 7.5q-6 22 13 42t49 35.5t64 26.5t60 16q40 8 82 13.5t91 10.5q26 28 29 28h-1q2 3 4 5.5
t3 5.5q3 7 9 7q5 0 17.5 -11.5t17.5 -27.5q88 5 202.5 7.5t270.5 2.5q12 0 15 -9z" />
    <glyph glyph-name="uni0493" unicode="&#x493;" horiz-adv-x="276" 
d="M122 136q6 10 10 16q21 30 40 54t24 31q7 10 11.5 17.5t4.5 11.5q0 3 -3 3q-4 -3 -66.5 -59t-110.5 -105q-2 -2 -5.5 -3.5t-3.5 4.5q-1 10 2 15.5t5 6.5q14 16 20.5 24t34 37.5t53.5 53.5q20 19 45 40t41 21q17 0 34.5 -20.5t17.5 -55.5q0 -5 -8.5 -18.5t-21.5 -31.5
q-10 -13 -21 -28h1q-5 -7 -11 -14q0 -1 -1 -1q12 -1 23 -1q9 0 6 -13t-17 -23q-3 -2 -8.5 -3.5t-14.5 -1.5q-8 0 -21 1q-16 -22 -31 -41q-15 -21 -25 -38t-10 -26q0 -2 2 -2q15 0 41 20.5t61 55t85 80.5q2 2 5.5 3.5t3.5 -4.5q0 -10 -3 -15.5t-5 -6.5q-15 -15 -22 -22.5
t-35.5 -36t-55.5 -51.5t-50.5 -37.5t-39.5 -14.5q-18 0 -28.5 17t-10.5 38q0 19 15 48q8 17 16 32h-9q-8 0 -10.5 3t-2 8.5t4.5 12t9 11.5q8 7 10.5 8t11.5 1q7 0 13 -1z" />
    <glyph glyph-name="uni049A" unicode="&#x49a;" horiz-adv-x="799" 
d="M696 -155q-30 -43 -55 -76.5t-37 -45.5q14 -3 32.5 -2t42.5 18q8 6 16 18t11.5 26t2 30t-11.5 31zM670 -149q-14 8 -28 17q-53 34 -105 77.5t-99 88.5t-88 87t-72 74l-5 5l-9 -10q-14 -16 -28.5 -33t-28.5 -34q-13 -15 -30.5 -37t-37 -46t-39 -47.5t-36.5 -42.5
t-30.5 -30.5t-19.5 -11.5q-8 0 -21 6t-13 16q0 2 1 4t4.5 7t10.5 14.5t20 26.5q49 66 99 128q43 55 127 155l-34 14q-29 14 -29 34q0 4 1.5 7.5t4.5 3.5q6 -5 17 -9q10 -4 27 -8q5 -2 12 -3q24 12 56 26q66 75 123 137.5t100 107.5q50 53 92 95q2 5 6 5t10.5 -5t13 -13
t11.5 -17.5t5 -18.5q0 -7 -3.5 -12.5t-12 -14.5t-24 -23t-39 -37t-56 -57t-76.5 -83l-6 -6t-6 -7q52 18 107 35.5t107.5 33.5t99.5 29.5t82.5 23.5t56.5 15.5t23 5.5q8 0 14.5 -5.5t6.5 -13.5q0 -7 -6 -14t-13.5 -12t-14.5 -8.5t-10 -4.5q-14 -4 -40 -11t-58 -16.5t-66 -20
t-64.5 -20t-54 -16.5t-34.5 -10q-49 -14 -82 -24t-56.5 -18t-40 -15t-31.5 -14q-14 -15 -28 -32q-6 -7 -12 -13l11 -10q39 -36 86.5 -86t100 -102.5t107.5 -100.5q99 -88 102 -91q4 -6 9 -14q35 -49 25 -95t-51 -75q-18 -13 -41.5 -14t-46.5 5t-42.5 18t-28.5 26q-6 8 1 13
q2 1 2.5 1t2.5 1q23 13 56 49q27 30 56 70z" />
    <glyph glyph-name="uni049B" unicode="&#x49b;" horiz-adv-x="323" 
d="M205 0q-19 -35 -36 -63t-26 -38q12 -1 26.5 1.5t31.5 17.5q6 5 11.5 14.5t7 21t-1 23.5t-11.5 22zM184 2q-19 6 -30 25q-16 27 -24 72q-3 -3 -16 -15q-14 -13 -32.5 -31t-37.5 -37t-31 -34q-9 -13 -13.5 -20t-6.5 -10t-3 -4t-3 -1q-5 -1 -11.5 4.5t-13.5 19.5q-3 7 3 23
q11 28 34 70t54 92t70.5 108.5t44.5 63.5q10 8 14 8q5 0 11 -6t11 -14t8 -17t3 -16q0 -2 -5 -10t-13 -19l-95 -137q33 32 66.5 60.5t64 52t56.5 41t43 26.5q6 3 14 0.5t14 -8.5t9.5 -13.5t2.5 -13.5q-1 -2 -5 -4q-3 -2 -29.5 -16.5t-59.5 -34t-64 -39.5q-10 -6 -18 -12l2 -8
q1 -21 2 -40.5t2.5 -34.5t3.5 -23.5t7 -8.5q24 0 51 16t46.5 32.5t56.5 50.5q2 2 5.5 3.5t3.5 -4.5q0 -10 -3.5 -15.5t-4.5 -6.5q-21 -23 -45 -45.5t-59 -47.5q-13 -10 -26 -15q32 -35 28 -70q-4 -36 -35 -62q-13 -12 -31.5 -14.5t-37 0t-35 10t-24.5 17.5q-6 6 0 10
q1 1 1.5 1t1.5 1q17 12 40 43q18 25 38 57z" />
    <glyph glyph-name="uni04A2" unicode="&#x4a2;" horiz-adv-x="1236" 
d="M91 -158q62 0 135 33.5t150 88.5t154 125.5t148 144.5h-23q-161 0 -281 -33.5t-199.5 -83.5t-119 -108.5t-39.5 -108.5q0 -30 20 -44t55 -14zM949 -137q-37 -37 -68.5 -65t-45.5 -38q13 -6 31.5 -8t45.5 10q9 4 19.5 14t16.5 23t7.5 29t-5.5 33zM936 -74q0 32 13 68
q12 35 32 72q13 24 29 49q19 33 43 69q-13 2 -26 5q-50 8 -107 16l-89 11h-3q-3 1 -7 2q-15 1 -32 3q-15 2 -29 3q-71 -77 -150 -151q-82 -77 -166 -137.5t-167 -98t-156 -37.5q-33 0 -59 12t-44.5 31t-28 42.5t-9.5 47.5q0 46 40.5 102.5t124.5 105t211.5 81.5t301.5 33h21
t18 -1q46 49 87 97t75.5 92t60.5 81.5t43 66.5q23 47 23.5 47.5t0.5 1.5q4 4 6 4q3 0 6 -3q2 -2 4 -3q53 1 32 -48q-3 -14 -23 -46.5t-53 -78t-77.5 -101t-97.5 -114.5q34 -7 38 -7q26 -4 44 -6l91 -14q56 -9 109 -18q33 50 68 99q84 119 163 226.5t88 107.5q8 0 18.5 -6
t19.5 -15t15.5 -19t6.5 -17l-19 -24q-20 -24 -52 -64t-72.5 -92t-83.5 -108q-39 -52 -75 -103q14 -3 28 -5q44 -9 72 -16t32 -9q5 -2 4.5 -5.5t-6.5 -5.5q-17 -4 -33 -1q-20 4 -51 10q-27 5 -60 12q-30 -41 -54 -78q-25 -39 -40 -67q-19 -33 -28 -53.5t-13 -35.5
q-2 -5 -3 -10l1 1q-6 -37 -5.5 -45.5t4.5 -19.5q25 -56 6 -99t-65 -63q-20 -9 -43.5 -6t-44.5 13.5t-38 26t-23 31.5q-4 9 4 12q2 1 2.5 1h2.5q25 8 64 37.5t81 69.5q-3 28 -1 41z" />
    <glyph glyph-name="uni04A3" unicode="&#x4a3;" horiz-adv-x="380" 
d="M258 -12q-19 -35 -36 -63t-26 -38q12 -1 26.5 1.5t31.5 17.5q6 5 11.5 14.5t7 21t-1 23.5t-11.5 22zM242 -1q-8 4 -14 14q-11 17 -11 39q0 13 10 36q6 13 13 27q-14 -7 -28 -13q-37 -16 -71 -16q-28 0 -46 12q-13 -19 -29 -43q-48 -71 -49 -73l2 4q-11 -13 -14 -13
q-5 -1 -15 8t-18 23q-4 10 4 23q12 20 31.5 51t41.5 65t44.5 68t42.5 61q9 11 13 20t7.5 15t7 9t10.5 3q9 0 20 -14.5t15 -29.5q2 -9 -1 -15t-11 -17q-8 -10 -19 -25.5t-23.5 -33.5t-26.5 -38q-2 -3 -5 -8q-1 -5 -1 -11t3 -8.5t18 -2.5q52 0 100 25q9 5 17 10q13 21 28 44
q19 28 36.5 51t32 38t20.5 15q5 0 11 -6t11 -14t8 -17.5t3 -15.5q0 -4 -10.5 -19t-26.5 -36.5t-35 -47t-35 -49t-26.5 -42.5t-10.5 -28q0 -2 3 -2q18 0 46.5 22.5t54.5 48t56 54.5q2 2 5.5 3.5t3.5 -4.5q0 -10 -3.5 -15.5t-4.5 -6.5q-15 -16 -38.5 -41.5t-47.5 -44.5
t-46 -30q-5 -3 -9 -5q2 -3 5 -6q32 -35 28 -70.5t-35 -61.5q-13 -12 -31.5 -14.5t-37 0t-35 10t-24.5 17.5q-6 6 0 10q1 1 1.5 1t1.5 1q17 12 40 43q21 29 43 66z" />
    <glyph glyph-name="uni04AE" unicode="&#x4ae;" horiz-adv-x="572" 
d="M869 680q10 -2 18 -5t13 -9t8 -16.5t4 -28.5q0 -9 -7.5 -17t-21.5 -21q-111 -114 -208 -224t-177 -208t-142.5 -180.5t-105 -142t-64 -91.5t-19.5 -30q-8 -10 -18.5 -17t-24.5 -8q-9 -1 -12 8.5t8 29.5q54 104 127.5 211.5t151.5 207.5t155 188.5t138 155t99.5 106.5
t40.5 43q-2 2 -3.5 1t-3.5 -2q-66 -29 -142 -74.5t-152 -98t-147.5 -106.5t-129.5 -99.5t-98.5 -77t-53.5 -38.5q-38 -20 -57.5 -21.5t-33.5 3.5q-22 7 -27.5 26.5t-1.5 44t14.5 50t20.5 43.5q17 32 43.5 67.5t56.5 71.5t61.5 69.5t58.5 61.5t46.5 48t27.5 29t8 12.5t8 1.5
q4 0 5 -1q22 -16 30 -26.5t2.5 -23.5t-23 -32t-46.5 -50q-9 -10 -30 -31t-48 -49t-56.5 -62.5t-56.5 -70.5t-47.5 -72.5t-29.5 -69.5q-1 -6 6 -5q11 2 37.5 18t59.5 38t70 48.5t69 50.5t57 42.5t34 25.5q106 80 197 138t159.5 95.5t108.5 55t44 17.5z" />
    <glyph glyph-name="uni04AF" unicode="&#x4af;" horiz-adv-x="345" 
d="M376 309q5 0 11 -6t11 -14t8 -17.5t3 -15.5q0 -4 -16.5 -26.5t-39.5 -54.5l-465 -635q-4 -5 -10 -4q-10 3 -16.5 11t-9.5 17.5t-2.5 18.5t3.5 13q5 8 25 37l50 72.5t68 97.5t79 111.5t82.5 115t78.5 107.5q-32 -33 -61.5 -63t-55.5 -52t-47 -35t-35 -13q-13 0 -29 13.5
t-16 49.5q0 12 8 31t20.5 41.5t29 46.5t33.5 47q13 19 29 40t30.5 38t26 28t16.5 11t11 -6t11 -14t8 -17t3 -16q0 -3 -12.5 -21t-31.5 -43.5t-41.5 -55.5t-41.5 -57t-31.5 -48.5t-12.5 -30.5q0 -2 3 -2q10 0 31 15.5t48.5 40.5t58.5 55.5t60.5 60.5t54.5 55.5t41 40.5
q27 32 32 32z" />
    <glyph glyph-name="uni04B0" unicode="&#x4b0;" horiz-adv-x="572" 
d="M869 680q10 -2 18 -5t13 -9t8 -16.5t4 -28.5q0 -9 -7.5 -17t-21.5 -21q-111 -114 -208 -224t-177 -208t-142.5 -180.5t-105 -142t-64 -91.5t-19.5 -30q-8 -10 -18.5 -17t-24.5 -8q-9 -1 -12 8.5t8 29.5q54 104 127.5 211.5t151.5 207.5t155 188.5t138 155t99.5 106.5
t40.5 43q-2 2 -3.5 1t-3.5 -2q-66 -29 -142 -74.5t-152 -98t-147.5 -106.5t-129.5 -99.5t-98.5 -77t-53.5 -38.5q-38 -20 -57.5 -21.5t-33.5 3.5q-22 7 -27.5 26.5t-1.5 44t14.5 50t20.5 43.5q17 32 43.5 67.5t56.5 71.5t61.5 69.5t58.5 61.5t46.5 48t27.5 29t8 12.5t8 1.5
q4 0 5 -1q22 -16 30 -26.5t2.5 -23.5t-23 -32t-46.5 -50q-9 -10 -30 -31t-48 -49t-56.5 -62.5t-56.5 -70.5t-47.5 -72.5t-29.5 -69.5q-1 -6 6 -5q11 2 37.5 18t59.5 38t70 48.5t69 50.5t57 42.5t34 25.5q106 80 197 138t159.5 95.5t108.5 55t44 17.5zM526 55q5 -2 5.5 -7.5
t-1.5 -12.5q-4 -16 -13 -18q-4 -1 -20 -1.5t-39 -0.5t-51 -0.5t-57 -0.5h-152q-2 -2 -4 2t-3 11t0.5 16.5t7.5 20.5q1 1 15 1.5t36 0t50.5 -0.5t58.5 -1t58.5 -2t52 -2.5t38.5 -2.5t18 -2z" />
    <glyph glyph-name="uni04B1" unicode="&#x4b1;" horiz-adv-x="343" 
d="M83 -74q37 52 75 104q41 57 78 107q-32 -33 -61.5 -63t-55.5 -52t-47 -35t-35 -13q-13 0 -29 13.5t-16 49.5q0 12 8 31t20.5 41.5t29 46.5t33.5 47q13 19 29 40t30.5 38t26 28t16.5 11t11 -6t11 -14t8 -17t3 -16q0 -3 -12.5 -21t-31.5 -43.5t-41.5 -55.5t-41.5 -57
t-31.5 -48.5t-12.5 -30.5q0 -2 3 -2q10 0 31 15.5t48.5 40.5t58.5 55.5t60.5 60.5t54.5 55.5t41 40.5q27 32 32 32t11 -6t11 -14t8 -17.5t3 -15.5q0 -4 -16.5 -26.5t-39.5 -54.5l-181 -247h46q8 0 5.5 -16t-14.5 -29q-2 -2 -7 -4t-12 -2h-45q-5 -1 -11 -1l-246 -336
q-4 -5 -10 -4q-10 3 -16.5 11t-9.5 17.5t-2.5 18.5t3.5 13q5 8 25 37l50 72.5t68 97.5q24 34 49 70h-11q-26 -2 -38 -3q-7 0 -9.5 4t-2 10.5t3.5 14.5t8 14q6 9 8.5 10.5t9.5 1.5q21 0 47 1h22z" />
    <glyph glyph-name="uni04BA" unicode="&#x4ba;" horiz-adv-x="759" 
d="M32 -222q-10 2 -18 5t-13 9t-8 16.5t-4 28.5q0 9 7.5 17t21.5 21q111 114 208 224t177 208t105.5 132.5t68 94t64 91.5t19.5 30q8 10 18.5 17t24.5 8q9 1 12 -8.5t-8 -29.5q-54 -104 -90.5 -163.5t-114.5 -159.5t-155 -188.5t-138 -155t-99.5 -106.5t-40.5 -43
q2 -2 3.5 -1t3.5 2q66 29 142 74.5t152 98t147.5 106.5t129.5 99.5t98.5 77t53.5 38.5q38 20 57.5 21.5t33.5 -3.5q22 -7 27.5 -26.5t1.5 -44t-14.5 -50t-20.5 -43.5q-17 -32 -43.5 -67.5t-56.5 -71.5t-61.5 -69.5t-58.5 -61.5t-46.5 -48t-27.5 -29t-8 -12.5t-8 -1.5
q-4 0 -5 1q-22 16 -30 26.5t-2.5 23.5t23 32t46.5 50q9 10 30 31t48 49t56.5 62.5t56.5 70.5t47.5 72.5t29.5 69.5q1 6 -6 5q-11 -2 -37.5 -18t-59.5 -38t-70 -48.5t-69 -50.5t-57 -42.5t-34 -25.5q-106 -80 -197 -138t-159.5 -95.5t-108.5 -55t-44 -17.5z" />
    <glyph glyph-name="uni04BB" unicode="&#x4bb;" horiz-adv-x="381" 
d="M432 141q2 2 5.5 3.5t3.5 -4.5q0 -10 -3.5 -15.5t-4.5 -6.5q-33 -35 -63 -65t-62.5 -54t-55.5 -24q-18 0 -28.5 17t-10.5 38q0 19 15.5 51t35.5 64.5t38 58.5t23 33q16 21 16 29q0 3 -3 3q-11 0 -33 -15t-50.5 -39t-60 -53.5t-61.5 -59t-55 -55.5t-41 -43
q-14 -21 -21 -32.5t-10.5 -17t-5 -6.5t-3.5 -1q-5 -1 -11.5 4.5t-13.5 19.5q-3 7 3 23q11 28 34 70t54 92t67 104.5t73 108t71.5 102.5t62.5 87t46.5 62t23.5 29q10 8 13 8q6 0 11.5 -6t10.5 -14t8 -17t3 -16q0 -6 -17 -29q-29 -40 -45.5 -61.5t-30.5 -39.5t-30 -38.5
t-42.5 -58t-68 -99t-107.5 -160.5q28 27 63.5 59.5t70 60.5t63.5 47t45 19q17 0 34 -20.5t17 -55.5q0 -6 -10.5 -22.5t-26.5 -38.5t-34.5 -46.5t-34.5 -47.5t-26.5 -42t-10.5 -28q0 -3 3 -3q15 0 37 18.5t50 46t80 76.5z" />
    <glyph glyph-name="uni04D8" unicode="&#x4d8;" horiz-adv-x="784" 
d="M91 -158q62 0 135 33.5t150 88.5t154 125.5t148 144.5h-23q-161 0 -281 -33.5t-199.5 -83.5t-119 -108.5t-39.5 -108.5q0 -30 20 -44t55 -14zM696 254q12 15 44.5 57t68.5 90q34 48 63.5 92.5t51.5 83t35.5 68.5t15.5 47v1h-1q-22 7 -62 -10.5t-83.5 -49t-82.5 -70.5
t-58 -72q-4 -5 -7 -10.5t-5 -10.5q-5 -7 -9 -6q-26 5 -30 29t10 47q31 53 77 93t92 64.5t85.5 33.5t60.5 0q7 -3 13 -9q30 -21 25 -82q-5 -39 -33.5 -104.5t-77.5 -137.5q-30 -45 -105 -148h17q3 0 9 -4t11 -9t9 -10t4 -7q0 -4 -6 -4q-8 2 -18 4q-8 2 -20 3.5t-27 3.5
q-72 -78 -153.5 -154.5t-165.5 -137t-167 -98t-156 -37.5q-33 0 -59 12t-44.5 31t-28 42.5t-9.5 47.5q0 46 40.5 102.5t124.5 105t211.5 81.5t301.5 33h21q10 0 17 -1z" />
    <glyph glyph-name="uni04D9" unicode="&#x4d9;" horiz-adv-x="282" 
d="M43 12q14 0 34.5 12.5t43.5 33t45.5 47t41.5 53.5q-29 -7 -60 -23.5t-56.5 -36.5t-42 -40.5t-16.5 -35.5q0 -10 10 -10zM124 245q-3 -2 -7 -4q-9 -6 -18 -10h-1l-2 -2q-14 -8 -24 -10q-12 -3 -21 0q-6 2 -3.5 4.5t5.5 4.5q9 5 29 18q13 9 34 21q24 14 50 25q36 15 70 15
q36 0 55.5 -19t19.5 -53q0 -26 -10.5 -55t-28.5 -58t-41.5 -55.5t-49 -47t-51.5 -32.5t-50 -12q-8 0 -20.5 2.5t-24.5 8.5t-20.5 16.5t-8.5 26.5q0 26 13.5 48t34.5 39.5t46.5 31t50 22t45 13t30.5 3.5q14 23 21.5 43t7.5 37q0 6 -3 8.5t-18 2.5q-52 0 -110 -32z" />
    <glyph glyph-name="uni04E8" unicode="&#x4e8;" horiz-adv-x="726" 
d="M283 -69l-80 -31q-26 -8 -49.5 -12t-43.5 -4q-28 0 -49 10t-35 27t-21 39.5t-7 47.5q0 30 13 62.5t35 67.5q-33 17 -49.5 47.5t-16.5 65.5q0 50 37.5 103.5t99 104t140 95.5t161.5 78.5t163 53t144 19.5q25 0 56 -11t59 -31t47 -47.5t19 -61.5q0 -48 -28 -104.5t-75 -116
t-109.5 -119t-131.5 -112.5t-141 -97.5t-138 -73.5zM110 120q-36 -46 -52 -77q-20 -37 -20 -69q0 -27 13.5 -43t47.5 -16h1q28 0 38.5 1t73.5 18q67 21 140.5 60.5t145 91.5t136.5 113t115 125q25 32 45 65q-38 -31 -83 -60q-62 -39 -129 -73t-136 -61t-131 -45.5
t-113.5 -26.5t-85.5 -4q-3 0 -6 1zM849 509q8 31 8 61q0 48 -25 69t-78 21q-59 0 -136.5 -19.5t-158.5 -52t-159 -76.5t-139.5 -93.5t-99 -101t-37.5 -100.5q0 -17 5.5 -32.5t31.5 -25.5q27 38 60.5 75.5t69 72t69 64.5t60.5 53t43.5 37t18.5 16q3 3 6 3q6 0 19.5 -12
t13.5 -35q0 -9 -29 -36t-123 -113q-92 -84 -140 -142q41 -1 105 14q74 18 159.5 52.5t173.5 82.5t161 104q72 55 121 114z" />
    <glyph glyph-name="uni04E9" unicode="&#x4e9;" horiz-adv-x="228" 
d="M224 123q-23 -32 -50 -63t-54 -55t-51 -39t-42 -15q-20 0 -33.5 23.5t-13.5 50.5q0 21 12 51.5t28 59t31.5 49t21.5 23.5q7 23 25 44.5t41 37.5t47.5 25.5t42.5 9.5q7 0 18.5 -4.5t22.5 -12t19 -17.5t8 -21q0 -20 -14.5 -51t-58.5 -96zM264 283q-12 0 -30 -8.5t-38 -21.5
t-38 -30t-30 -33q4 -4 4 -10t-16 -30q3 -9 13.5 -12t21.5 -3q28 0 60 8q27 41 44 77.5t17 55.5q0 7 -8 7zM30 -16q18 0 38.5 10.5t41.5 28.5t41.5 41.5t38.5 48.5q-23 -5 -35 -5q-31 0 -55 19q-12 -17 -25 -36.5t-24 -38t-18 -36t-7 -29.5q0 -3 4 -3z" />
    <glyph glyph-name="Euro" unicode="&#x20ac;" horiz-adv-x="515" 
d="M771 713q3 -8 5 -15.5t2 -15.5q0 -26 -17 -60t-40 -64t-46 -51t-35 -21q-8 0 -13 4t-5 8q0 3 4 6q18 16 39 37.5t38 46.5t28.5 51t11.5 50q0 18 -4.5 24t-13.5 6q-26 0 -60 -22.5t-72.5 -60t-80.5 -88t-82 -105.5q14 -1 24 -1h15q7 1 16.5 -6.5t14.5 -24.5q3 -9 -6 -10
h-28h-30t-35 1l-24 -36t-24 -35q18 -1 31 -1h18q7 1 16.5 -6.5t14.5 -24.5q3 -9 -7 -10h-30h-31.5t-37.5 1q-28 -45 -51.5 -87t-41 -77.5t-27 -63t-9.5 -42.5q0 -9 7 -12.5t16 -3.5q20 0 45.5 15t52 37.5t52.5 49.5t47 51.5t35 43t18 23.5q2 3 6 6t8 3t9.5 -6.5t7.5 -9.5
q0 -3 -14 -22t-37 -45.5t-52.5 -56.5t-61 -55.5t-62 -42.5t-54.5 -17q-26 0 -44.5 23.5t-18.5 58.5q0 34 25 95t67 135h-56q-15 1 -25.5 11.5t-10.5 25.5q-1 11 12 13q2 0 11.5 -0.5t24 -1.5t33 -1.5t37.5 -1.5q11 17 21.5 33.5t21.5 33.5h-58q-15 1 -25.5 11.5t-10.5 25.5
q0 11 12 13q5 0 38 -2t74 -4q42 60 87 115.5t88.5 98t83 67.5t69.5 25q16 0 32 -4.5t29 -10.5t22 -13t11 -11z" />
    <glyph glyph-name="notequal" unicode="&#x2260;" horiz-adv-x="483" 
d="M431 187q5 0 8.5 -5t4.5 -12t-1.5 -14.5t-9.5 -13.5q-6 -6 -24 -6q-17 0 -39.5 -0.5t-48.5 -0.5q-12 -17 -25 -34t-27 -34q24 0 47 0.5t43 0.5q5 0 8.5 -5t4.5 -12t-1.5 -14.5t-9.5 -13.5q-6 -6 -24 -6q-20 0 -48 -0.5t-59 -1.5q-34 -45 -59 -79t-28 -41q-3 -8 -10 -5.5
t-13 9.5t-8 17t6 18q2 2 18.5 24t41.5 56q-29 -2 -53 -2.5t-38 -1.5q-9 -1 -13.5 3t-5.5 10.5t1 14.5t6 14q6 9 8.5 10.5t13.5 1.5q26 0 57 0.5t64 1.5q13 17 25.5 33.5t26.5 33.5q-35 -1 -64.5 -2t-45.5 -2q-9 -1 -13.5 3t-6 10.5t0.5 14.5t6 14q6 9 8.5 10.5t13.5 1.5
q30 0 66.5 0.5t74.5 1.5q29 38 51 66.5t30 36.5q7 8 14 0q12 -11 5.5 -26.5t-16.5 -29.5q-5 -7 -14 -19t-20 -27q19 1 36.5 1h34.5z" />
    <glyph glyph-name="lessequal" unicode="&#x2264;" horiz-adv-x="460" 
d="M271 -59q11 0 8.5 -16t-19.5 -29q-3 -2 -10 -4t-16 -2q-24 0 -61.5 -0.5t-77 -1.5t-74 -2.5t-51.5 -2.5q-9 0 -12.5 4t-3 10.5t5 14.5t10.5 14q8 9 11 10.5t14 1.5q28 0 63.5 0.5t73 1t73.5 1t66 0.5zM525 342q8 6 12.5 0t4 -16.5t-7 -23t-19.5 -19.5
q-20 -12 -63.5 -31.5t-92 -40t-93 -39.5t-67.5 -29q17 -11 40 -24t44 -25q25 -14 50 -29q7 -2 10 -11t2 -18.5t-5.5 -16t-13.5 -3.5q-6 2 -26 14.5t-46.5 29.5t-54.5 34.5t-50 29.5q-12 11 -9.5 23t8.5 15q3 8 7 14t9 9q2 1 28.5 12t64.5 27t83 35t84 36.5t67 30t34 16.5z
" />
    <glyph glyph-name="greaterequal" unicode="&#x2265;" horiz-adv-x="489" 
d="M254 -79q11 0 8 -16t-20 -29q-2 -2 -9 -4t-16 -2q-24 0 -61.5 -0.5t-77 -1.5t-74 -2.5t-52.5 -2.5q-9 0 -12 4t-2.5 10.5t5 14.5t10.5 14q8 9 11 10.5t14 1.5q28 0 63 0.5t72.5 1t74 1t66.5 0.5zM448 209q5 0 8.5 -5t4 -12t-1.5 -14.5t-9 -10.5q-7 -11 -19 -22.5
t-31 -19.5q-2 -1 -22.5 -8.5t-51 -18.5t-68 -24.5t-73.5 -27.5t-67.5 -26.5t-49.5 -20.5q-12 -6 -18 -3t-2 17q7 28 21.5 44t35.5 27q4 2 25.5 9.5t52 18t65.5 23t66.5 23.5t54.5 19.5t30 11.5q-21 11 -46 25t-47.5 27.5t-39 24t-20.5 14.5q-11 10 -3 30q2 6 4 8q9 10 14 4
q6 -8 32 -25t56.5 -35t58.5 -33t40 -20z" />
    <glyph glyph-name="g.ss03" unicode="&#xe005;" horiz-adv-x="364" 
d="M365 -248q9 -1 12 -12t3 -25q0 -20 -2.5 -27.5t-10.5 -7.5q-40 14 -91 29q-44 13 -106 27.5t-140 27.5q-38 -51 -71 -97t-59 -81q-30 -41 -55 -76q-4 -5 -11 -4q-9 3 -15 10.5t-10 16.5q-4 5 -24 34.5t-56 69t-89.5 81t-124.5 71.5q-72 -5 -142.5 -12.5t-126 -15t-90 -13
l-34.5 -5.5q-18 0 -32 7t-14 26q0 28 21 45.5t51.5 27t65.5 12.5t63 3q60 0 114.5 -11t103.5 -30q57 4 120 6.5t133 2.5q69 0 128 -2.5t111 -6.5q38 55 83 117t95 131q-20 -19 -39 -36.5t-36.5 -31t-31 -21.5t-22.5 -8q-6 0 -16.5 3.5t-21 12.5t-18 24t-7.5 39q0 21 12 47
t32 53.5t45 53.5t51 46t51 32.5t44 12.5q32 0 52.5 -21.5t20.5 -47.5v-2q23 26 30 26q6 0 11.5 -6t10.5 -14t8 -17.5t3 -15.5t-24 -38q-38 -53 -80 -110q-36 -49 -81 -111t-91 -125q78 -9 133 -20t91 -21t53.5 -16.5t19.5 -6.5zM30 4q12 0 32 12.5t44.5 32.5t51.5 46.5
t53 53.5q-5 3 -8.5 7t-3.5 9q0 3 8.5 11t18.5 18.5t18.5 23t8.5 25.5q0 10 -11 10q-9 0 -29 -13t-44.5 -34.5t-50 -48t-47 -53.5t-35 -51t-13.5 -41q0 -8 7 -8zM-878 -228q34 8 80 16q39 7 95.5 14.5t128.5 14.5q-61 14 -126 14q-40 0 -75 -4.5t-61 -11.5t-41 -15.5
t-15 -16.5q0 -11 14 -11zM-188 -430q10 14 46.5 68t95.5 137q-67 9 -141.5 14.5t-156.5 5.5q-44 0 -92 -3q49 -26 90 -56.5t72.5 -60.5t53 -57.5t32.5 -47.5z" />
    <glyph glyph-name="y.ss03" unicode="&#xe006;" horiz-adv-x="394" 
d="M376 309q5 0 11 -6t11 -14t8 -17.5t3 -15.5q0 -4 -16.5 -26.5t-39.5 -54.5l-465 -635q-4 -5 -10 -4q-10 3 -16.5 11t-9.5 17.5t-2.5 18.5t3.5 13q5 8 25 37l50 72.5t68 97.5t79 111.5t82.5 115t78.5 107.5q-32 -33 -61.5 -63t-55.5 -52t-47 -35t-35 -13q-13 0 -29 13.5
t-16 49.5q0 12 8 31t20.5 41.5t29 46.5t33.5 47q13 19 29 40t30.5 38t26 28t16.5 11t11 -6t11 -14t8 -17t3 -16q0 -3 -12.5 -21t-31.5 -43.5t-41.5 -55.5t-41.5 -57t-31.5 -48.5t-12.5 -30.5q0 -2 3 -2q10 0 31 15.5t48.5 40.5t58.5 55.5t60.5 60.5t54.5 55.5t41 40.5
q27 32 32 32z" />
    <glyph glyph-name="g.ss04" unicode="&#xe007;" horiz-adv-x="364" 
d="M311 253q6 0 11.5 -6t10.5 -14t8 -17.5t3 -15.5t-24 -38l-475 -652q-4 -5 -11 -4q-10 3 -16 11.5t-9 18t-3 18t3 12.5q4 6 32 47t75 108.5t110 157t138 192.5q-19 -19 -38 -36.5t-36.5 -31t-31 -21.5t-22.5 -8q-6 0 -17 3.5t-21 12.5t-17.5 24t-7.5 39q0 21 12 47
t32 53.5t45 53.5t51 46t51 32.5t44 12.5q32 0 52.5 -21.5t20.5 -47.5v-2q23 26 30 26zM30 4q12 0 32 12.5t44.5 32.5t51.5 46.5t53 53.5q-12 7 -12 16q0 3 8.5 11t18.5 18.5t18.5 23t8.5 25.5q0 10 -11 10q-9 0 -29 -13t-44.5 -34.5t-50.5 -48t-47.5 -53.5t-35 -51
t-13.5 -41q0 -8 8 -8z" />
    <glyph glyph-name="z_y.ss01" unicode="&#xe008;" horiz-adv-x="712" 
d="M685 309q6 0 11.5 -6t10.5 -14t8 -17.5t3 -15.5q0 -4 -16 -26.5t-39 -54.5l-465 -635q-4 -5 -11 -4q-10 3 -16 11t-9 17.5t-2.5 18.5t3.5 13q5 8 24.5 37t50 72.5t68.5 97.5t79 111.5t82.5 115t78.5 107.5q-32 -33 -62 -63t-56 -52t-47 -35t-35 -13q-12 0 -28 13.5
t-16 49.5q0 17 14 44.5t34 59.5q-69 -57 -143.5 -110.5t-148.5 -103.5q-4 -57 -26.5 -109.5t-55 -97t-72.5 -81t-79.5 -62.5t-76 -40t-61.5 -14q-18 0 -32 6t-24.5 15.5t-16 20.5t-5.5 21q0 33 30.5 69.5t83 76.5t122 84.5t148.5 94.5q16 43 16 79q0 11 -1 19.5t-3 13.5
q-2 4 -2 7q1 14 13 24q31 25 69 59.5t71 66.5t55.5 56t22.5 27v1h-2q-2 0 -11.5 -0.5t-16.5 -0.5t-14 0.5t-15 1.5q-9 -8 -21.5 -19.5t-26 -24.5t-28 -26.5t-27.5 -25.5q-2 -2 -4.5 -1t-2.5 9q0 5 3.5 9t4.5 5q22 22 41.5 46t32.5 38q-18 8 -18 26q0 7 6 7q4 0 6 -2
q5 -3 17.5 -4t29.5 -1q18 0 37.5 0.5t35.5 2.5q18 1 37 3q11 0 20.5 -10.5t9.5 -27.5q0 -8 -2.5 -14.5t-5.5 -10.5q-8 -11 -29 -33.5t-48.5 -50t-58 -57t-57.5 -54t-47 -42t-27 -20.5q3 -11 5 -19.5t2 -14.5q83 54 167.5 115t162.5 131q1 1 1.5 2t1.5 2q13 19 29 40t30.5 38
t26 28t16.5 11t11 -6t11 -14t8 -17t3 -16q0 -3 -12.5 -21t-31.5 -43.5t-41.5 -55.5t-41.5 -57t-31.5 -48.5t-12.5 -30.5q0 -2 3 -2q10 0 31 15.5t48.5 40.5t58.5 55.5t60.5 60.5t54.5 55.5t41 40.5q26 32 31 32zM-357 -429q30 0 76 26t94 68.5t92 96.5t72 110
q-71 -48 -134 -90.5t-110 -79.5t-74.5 -67t-27.5 -53q0 -11 12 -11z" />
    <glyph glyph-name="g.ss01" unicode="&#xe4c6;" horiz-adv-x="364" 
d="M463 235q1 1 5 3t4 -5q0 -10 -3.5 -15t-4.5 -6q-45 -48 -82.5 -83t-75.5 -66q-30 -24 -63 -47.5t-74 -49.5q-5 -6 -9.5 -12.5t-9.5 -12.5q-77 -105 -136.5 -182.5t-112.5 -128t-104 -75.5t-109 -25q-27 0 -48.5 18t-21.5 45q0 33 37 70t98 78t138.5 86.5t157.5 93.5
q24 35 51 72.5t57 79.5q-19 -19 -38.5 -37t-36.5 -31.5t-31 -22t-23 -8.5q-6 0 -17 3.5t-21.5 12.5t-18 24t-7.5 39q0 21 12 47t32 53.5t45 53.5t51.5 46t51.5 32.5t44 12.5q32 0 52.5 -21.5t20.5 -47.5v-2q23 26 30 26q5 0 11 -6t11 -14t8 -17.5t3 -15.5q0 -2 -6.5 -12.5
t-17.5 -25.5q-12 -18 -28 -39q-14 -18 -32.5 -43t-40.5 -55q24 16 46 32t43 33q38 31 78 66.5t85 78.5zM21 4q12 0 32.5 12.5t45 32.5t51 46.5t52.5 53.5q-11 7 -11 16q0 3 8.5 11t18 18.5t18 23t8.5 25.5q0 10 -11 10q-9 0 -29 -13t-44.5 -34.5t-50 -48t-47 -53.5t-35 -51
t-13.5 -41q0 -8 7 -8zM-327 -435q48 13 88.5 36.5t79.5 60t79.5 87t89.5 117.5q-38 -23 -81.5 -50t-94.5 -59q-59 -37 -97.5 -65.5t-61 -49.5t-31 -35.5t-8.5 -23.5q0 -11 8 -15t18 -4q8 0 11 1z" />
    <glyph glyph-name="j.ss01" unicode="&#xe4c9;" horiz-adv-x="194" 
d="M234 349q-14 2 -17.5 12.5t5.5 24.5q10 14 26.5 21.5t31.5 5.5q14 -2 18 -12.5t-6 -24.5q-9 -14 -26 -21.5t-32 -5.5zM301 235q1 1 5 3t4 -5q0 -10 -3.5 -15t-4.5 -6q-45 -48 -82.5 -83t-75.5 -66q-31 -25 -65 -48.5t-76 -50.5q-81 -113 -143.5 -195t-117 -135
t-106 -78.5t-110.5 -25.5q-27 0 -48.5 18t-21.5 45q0 32 36.5 69t96.5 78t136.5 85.5t156.5 92.5q49 72 106.5 154.5t130.5 176.5q17 22 30.5 35.5t19.5 13.5t11.5 -6t10.5 -14t8 -17t3 -16q0 -2 -8 -14t-21 -30q-71 -98 -129 -180q25 17 48.5 34.5t45.5 34.5q38 31 78 66.5
t85 78.5zM-489 -435q51 14 93.5 40.5t82 64.5t78 87t79.5 108q-37 -23 -79.5 -49.5t-92.5 -58.5q-59 -37 -97.5 -65.5t-61 -49.5t-31 -35.5t-8.5 -23.5q0 -11 8 -15t18 -4q8 0 11 1z" />
    <glyph glyph-name="v.ss01" unicode="&#xe4d5;" horiz-adv-x="301" 
d="M321 546q23 0 46.5 -8.5t42.5 -24.5t31 -38t12 -50q0 -35 -18 -68t-44.5 -64t-57.5 -58.5t-57 -50.5q-38 -36 -79 -72.5t-77 -66t-63 -48.5t-37 -19q-11 0 -25 12t-14 43q0 11 11.5 33t29 48.5t36.5 53t34 46.5q12 17 26 35.5t27 33.5t23.5 25t14.5 10t9.5 -5t9.5 -12.5
t7 -16t3 -14.5q0 -3 -13.5 -21t-34 -44t-44 -57t-44 -58.5t-34 -49t-13.5 -29.5q0 -2 2 -2q7 0 30 18t54 46.5t67 64t69 69.5l52.5 52.5t55.5 61.5t43.5 65t17.5 65q0 18 -7.5 30.5t-19.5 20t-27 11t-30 3.5q-20 0 -37.5 -4.5t-26.5 -12.5q-5 -4 -10 -4.5t-10 -2.5h-2
q-6 0 -6 11q0 13 21.5 28t55.5 15z" />
    <glyph glyph-name="w.ss01" unicode="&#xe4d6;" horiz-adv-x="534" 
d="M524 579q26 0 53 -10t48.5 -28t35 -43.5t13.5 -56.5q0 -26 -19 -62t-51 -76.5t-73 -83t-85 -83.5t-87 -77t-79 -63t-62 -43t-34 -16q-12 0 -28 13.5t-16 48.5q0 12 11.5 37t29 54.5t37.5 59.5t37 53q13 19 26 36.5t24.5 30.5t20 20.5t12.5 7.5q6 0 11.5 -6t10.5 -14
t8 -17t3 -16q0 -3 -13 -22t-32.5 -46t-42.5 -59t-42.5 -61t-32.5 -51.5t-13 -31.5q0 -2 2 -2q10 0 46.5 28.5t85.5 73.5t103 101t99.5 111.5t75.5 104.5t30 80q0 20 -8.5 34t-22 22.5t-30.5 12.5t-34 4q-23 0 -42.5 -5.5t-30.5 -13.5q-5 -4 -11 -4.5t-11 -2.5h-2q-8 0 -8 12
q0 7 6.5 16t18 16t27.5 12t35 5zM319 282q2 2 5.5 3.5t3.5 -5.5q0 -10 -3 -15t-5 -6q-46 -49 -91.5 -99.5t-85.5 -92t-71.5 -67.5t-49.5 -26q-12 0 -28 13.5t-16 49.5q0 12 7.5 31t20.5 41.5t29 46.5t33 47q13 19 29.5 40t31 38t26 28t15.5 11q6 0 11.5 -6t10.5 -14t8 -17
t3 -16q0 -3 -12.5 -21t-31.5 -43.5t-41 -55.5t-41 -57t-31.5 -48.5t-12.5 -30.5q0 -2 2 -2q8 0 28 16.5t47 42.5t58 58t60 62t53 55.5t38 38.5z" />
    <glyph glyph-name="y.ss01" unicode="&#xe4d8;" horiz-adv-x="394" 
d="M497 235q1 1 5 3t4 -5q0 -10 -3.5 -15t-4.5 -6q-45 -48 -82.5 -83t-75.5 -66q-31 -25 -65.5 -49t-76.5 -51l-46 -64t-43.5 -60t-38 -51t-29.5 -38q-45 -57 -84.5 -98.5t-77.5 -68.5t-76.5 -40t-80.5 -13q-27 0 -48.5 18t-21.5 45q0 32 36.5 69t96 77.5t135.5 85t156 92.5
q37 53 79 111.5t80 112.5q-32 -34 -62.5 -64t-57 -53t-48 -36.5t-35.5 -13.5q-12 0 -28 13.5t-16 49.5q0 12 7.5 31t20.5 41.5t29 46.5t33 47q13 19 29 40t31 38t26.5 28t15.5 11q6 0 11.5 -6t10.5 -14t8 -17t3 -16q0 -3 -12.5 -21t-31.5 -43.5t-41 -55.5t-41 -57
t-31.5 -48.5t-12.5 -30.5q0 -2 2 -2q9 0 30 15t47.5 39t56.5 53.5t59 58.5t54 55t42 42q14 17 23.5 27t13.5 10q5 0 11 -6t11 -14t8 -17.5t3 -15.5q0 -4 -16 -26.5t-39 -54.5q1 1 -7.5 -10.5t-24 -33t-36 -50t-43.5 -61.5q26 17 49.5 34.5t46.5 35.5q38 31 78 66.5t85 78.5z
M-29 -230q10 12 27 36.5t40 56.5q-37 -23 -79 -49t-91 -57q-59 -37 -97.5 -65.5t-61 -49.5t-31 -35.5t-8.5 -23.5q0 -11 8 -15t18 -4q8 0 11 1q80 22 141.5 74t122.5 131z" />
    <glyph glyph-name="g.ss02" unicode="&#xe4e6;" horiz-adv-x="364" 
d="M364 -248q9 -1 12 -12t3 -25q0 -20 -2.5 -27.5t-10.5 -7.5q-40 14 -91 29q-44 13 -106 27.5t-140 27.5q-38 -51 -71 -97t-59 -81q-30 -41 -55 -76q-4 -5 -11 -4q-9 3 -15 10.5t-10 16.5q-4 5 -24 34.5t-56 69t-89.5 81t-124.5 71.5q-72 -5 -142.5 -12.5t-126 -15t-90 -13
l-34.5 -5.5q-18 0 -32 7t-14 26q0 28 21 45.5t51.5 27t65.5 12.5t63 3q60 0 114.5 -11t103.5 -30q57 4 120 6.5t133 2.5q69 0 128 -2.5t111 -6.5q38 55 83 117t95 131q-20 -19 -39 -36.5t-36.5 -31t-31 -21.5t-22.5 -8q-6 0 -16.5 3.5t-21 12.5t-18 24t-7.5 39q0 21 12 47
t32 53.5t45 53.5t51 46t51 32.5t44 12.5q32 0 52.5 -21.5t20.5 -47.5v-2q23 26 30 26q6 0 11.5 -6t10.5 -14t8 -17.5t3 -15.5t-24 -38q-38 -53 -80 -110q-36 -49 -81 -111t-91 -125q78 -9 133 -20t91 -21t53.5 -16.5t19.5 -6.5zM29 4q12 0 32 12.5t44.5 32.5t51.5 46.5
t53 53.5q-5 3 -8.5 7t-3.5 9q0 3 8.5 11t18.5 18.5t18.5 23t8.5 25.5q0 10 -11 10q-9 0 -29 -13t-44.5 -34.5t-50 -48t-47 -53.5t-35 -51t-13.5 -41q0 -8 7 -8zM-879 -228q34 8 80 16q39 7 95.5 14.5t128.5 14.5q-61 14 -126 14q-40 0 -75 -4.5t-61 -11.5t-41 -15.5
t-15 -16.5q0 -11 14 -11zM-189 -430q10 14 46.5 68t95.5 137q-67 9 -141.5 14.5t-156.5 5.5q-44 0 -92 -3q49 -26 90 -56.5t72.5 -60.5t53 -57.5t32.5 -47.5z" />
    <glyph glyph-name="y.ss02" unicode="&#xe4f8;" horiz-adv-x="394" 
d="M347 -275q3 0 10 -1t14 -5.5t12.5 -13.5t5.5 -25q0 -5 -1 -8t-6 -5h-1q-31 13 -80 26q-42 11 -109 24t-163 24q-47 -64 -85 -117t-60 -83q-1 -6 -6 -11.5t-7 -7.5l-2 -2q-5 -5 -6 -7t-2 -3q-4 -5 -11 -4q-14 5 -21 19.5t-7 26.5q-22 18 -58 43t-87 52.5t-117.5 56.5
t-150.5 56q-175 -4 -341 -14.5t-315.5 -24.5t-278 -29t-227.5 -27.5t-165 -20.5t-90 -8q-29 0 -59.5 4t-55 14.5t-40.5 28.5t-16 47q0 30 28 54.5t75 44t109 34t130 25.5t138.5 18t134 11t115.5 6t85 2q116 0 223.5 -10t205 -27.5t185 -40.5t163.5 -49q17 1 35 1h36
q121 0 242.5 -5t245.5 -17q30 43 63.5 90t67 94.5t66 92.5t62.5 86q-32 -34 -62 -64t-56.5 -52.5t-48 -36t-35.5 -13.5q-12 0 -28 13.5t-16 49.5q0 12 8 31t20.5 41.5t29 46.5t33.5 47q13 19 29 40t30.5 38t26 28t16.5 11t11 -6t11 -14t8 -17t3 -16q0 -3 -12.5 -21
t-31.5 -43.5t-41.5 -55.5t-41.5 -57t-31.5 -48.5t-12.5 -30.5q0 -2 2 -2q10 0 31.5 16t49.5 41t59.5 56t61 60.5t54.5 55t40 40.5q25 31 30 31t11 -6t11 -14t8 -17.5t3 -15.5q0 -4 -16 -26.5t-39 -54.5q-47 -64 -97 -133q-43 -59 -95.5 -131t-103.5 -142q75 -8 149.5 -19
t147.5 -25zM-2011 -319q69 0 192.5 15.5t291 35.5t373 38.5t439.5 25.5q-128 32 -287.5 52t-357.5 20q-71 0 -158 -4.5t-175 -13t-171 -21.5t-147 -29t-103 -35t-39 -41q0 -15 16.5 -23.5t39.5 -13t47 -5.5t39 -1zM-161 -414q16 23 45 65.5t67 96.5q-75 7 -165.5 11
t-198.5 4q-20 0 -38.5 -0.5t-38.5 -0.5q120 -48 203 -95t126 -81z" />
    <glyph glyph-name="uni045E.1" horiz-adv-x="419" 
d="M-852 -228q34 8 80 16q39 7 95.5 14.5t128.5 14.5q-61 14 -126 14q-40 0 -75 -4.5t-61 -11.5t-41 -15.5t-15 -16.5q0 -11 14 -11zM-162 -430q10 14 46.5 68t95.5 137q-67 9 -141.5 14.5t-156.5 5.5q-44 0 -92 -3q49 -26 90 -56.5t72.5 -60.5t53 -57.5t32.5 -47.5z
M185 -59q-45 -62 -91 -125q78 -9 133 -20t91 -21t53.5 -16.5t19.5 -6.5q9 -1 12 -12t3 -25q0 -20 -2.5 -27.5t-10.5 -7.5q-40 14 -91 29q-44 13 -106 27.5t-140 27.5q-38 -51 -71 -97t-59 -81q-30 -41 -55 -76q-4 -5 -11 -4q-9 3 -15 10.5t-10 16.5q-4 5 -24 34.5t-56 69
t-89.5 81t-124.5 71.5q-72 -5 -142.5 -12.5t-126 -15t-89.5 -12.5l-35 -6q-18 0 -32 7t-14 26q0 28 21 45.5t51.5 27t65.5 12.5t63 3q60 0 114.5 -11t103.5 -30q57 4 120 6.5t133 2.5q69 0 128 -2.5t111 -6.5q38 55 83 117q13 18 26.5 40t32.5 49q42 58 80 112
q-32 -34 -62.5 -64t-57 -53t-48 -36.5t-35.5 -13.5q-12 0 -28 13.5t-16 49.5q0 12 7.5 31t20.5 41.5t29 46.5t33 47q13 19 29 40t31 38t26.5 28t15.5 11q6 0 11.5 -6t10.5 -14t8 -17t3 -16q0 -3 -12.5 -21t-31.5 -43.5t-41 -55.5t-41 -57t-31.5 -48.5t-12.5 -30.5q0 -2 2 -2
q9 0 30 15t47.5 39t56.5 53.5t59 58.5t54 55t42 42q14 17 23.5 27t13.5 10q5 0 11 -6t11 -14t8 -17.5t3 -15.5q0 -4 -16 -26.5t-39 -54.5q1 1 -7.5 -10.5t-60 -86.5t-96.5 -137zM362 344q-3 -2 -26.5 -3.5t-51.5 -1t-51 3t-24 10.5q-1 12 4 24t12.5 22t15 16.5t10.5 7.5
q8 5 14 2q31 -12 52.5 -16t36 -5t23.5 -0.5t15 -0.5t9 -6t1 -13t-11.5 -18.5t-28.5 -21.5z" />
    <glyph glyph-name="uni0443.2" horiz-adv-x="394" 
d="M347 -275q3 0 10 -1t14 -5.5t12.5 -13.5t5.5 -25q0 -5 -1 -8t-6 -5h-1q-31 13 -80 26q-42 11 -109 24t-163 24q-47 -64 -85 -117t-60 -83q-1 -6 -6 -11.5t-7 -7.5l-2 -2q-5 -5 -6 -7t-2 -3q-4 -5 -11 -4q-14 5 -21 19.5t-7 26.5q-22 18 -58 43t-87 52.5t-117.5 56.5
t-150.5 56q-175 -4 -341 -14.5t-315.5 -24.5t-278 -29t-227.5 -27.5t-165 -20.5t-90 -8q-29 0 -59.5 4t-55 14.5t-40.5 28.5t-16 47q0 30 28 54.5t75 44t109 34t130 25.5t138.5 18t134 11t115.5 6t85 2q116 0 223.5 -10t205 -27.5t185 -40.5t163.5 -49q17 1 35 1h36
q121 0 242.5 -5t245.5 -17q30 43 63.5 90t67 94.5t66 92.5t62.5 86q-32 -34 -62 -64t-56.5 -52.5t-48 -36t-35.5 -13.5q-12 0 -28 13.5t-16 49.5q0 12 8 31t20.5 41.5t29 46.5t33.5 47q13 19 29 40t30.5 38t26 28t16.5 11t11 -6t11 -14t8 -17t3 -16q0 -3 -12.5 -21
t-31.5 -43.5t-41.5 -55.5t-41.5 -57t-31.5 -48.5t-12.5 -30.5q0 -2 2 -2q10 0 31.5 16t49.5 41t59.5 56t61 60.5t54.5 55t40 40.5q25 31 30 31t11 -6t11 -14t8 -17.5t3 -15.5q0 -4 -16 -26.5t-39 -54.5q-47 -64 -97 -133q-43 -59 -95.5 -131t-103.5 -142q75 -8 149.5 -19
t147.5 -25zM-2011 -319q69 0 192.5 15.5t291 35.5t373 38.5t439.5 25.5q-128 32 -287.5 52t-357.5 20q-71 0 -158 -4.5t-175 -13t-171 -21.5t-147 -29t-103 -35t-39 -41q0 -15 16.5 -23.5t39.5 -13t47 -5.5t39 -1zM-161 -414q16 23 45 65.5t67 96.5q-75 7 -165.5 11
t-198.5 4q-20 0 -38.5 -0.5t-38.5 -0.5q120 -48 203 -95t126 -81z" />
    <glyph glyph-name="uni045E.2" horiz-adv-x="394" 
d="M347 -275q3 0 10 -1t14 -5.5t12.5 -13.5t5.5 -25q0 -5 -1 -8t-6 -5h-1q-31 13 -80 26q-42 11 -109 24t-163 24q-47 -64 -85 -117t-60 -83q-1 -6 -6 -11.5t-7 -7.5l-2 -2q-5 -5 -6 -7t-2 -3q-4 -5 -11 -4q-14 5 -21 19.5t-7 26.5q-22 18 -58 43t-87 52.5t-117.5 56.5
t-150.5 56q-175 -4 -341 -14.5t-315.5 -24.5t-278 -29t-227.5 -27.5t-165 -20.5t-90 -8q-29 0 -59.5 4t-55 14.5t-40.5 28.5t-16 47q0 30 28 54.5t75 44t109 34t130 25.5t138.5 18t134 11t115.5 6t85 2q116 0 223.5 -10t205 -27.5t185 -40.5t163.5 -49q17 1 35 1h36
q121 0 242.5 -5t245.5 -17q30 43 63.5 90t67 94.5t66 92.5t62.5 86q-32 -34 -62 -64t-56.5 -52.5t-48 -36t-35.5 -13.5q-12 0 -28 13.5t-16 49.5q0 12 8 31t20.5 41.5t29 46.5t33.5 47q13 19 29 40t30.5 38t26 28t16.5 11t11 -6t11 -14t8 -17t3 -16q0 -3 -12.5 -21
t-31.5 -43.5t-41.5 -55.5t-41.5 -57t-31.5 -48.5t-12.5 -30.5q0 -2 2 -2q10 0 31.5 16t49.5 41t59.5 56t61 60.5t54.5 55t40 40.5q25 31 30 31t11 -6t11 -14t8 -17.5t3 -15.5q0 -4 -16 -26.5t-39 -54.5q-47 -64 -97 -133q-43 -59 -95.5 -131t-103.5 -142q75 -8 149.5 -19
t147.5 -25zM-2011 -319q69 0 192.5 15.5t291 35.5t373 38.5t439.5 25.5q-128 32 -287.5 52t-357.5 20q-71 0 -158 -4.5t-175 -13t-171 -21.5t-147 -29t-103 -35t-39 -41q0 -15 16.5 -23.5t39.5 -13t47 -5.5t39 -1zM-161 -414q16 23 45 65.5t67 96.5q-75 7 -165.5 11
t-198.5 4q-20 0 -38.5 -0.5t-38.5 -0.5q120 -48 203 -95t126 -81zM362 344q-3 -2 -26.5 -3.5t-51.5 -1t-51 3t-24 10.5q-1 12 4 24t12.5 22t15 16.5t10.5 7.5q8 5 14 2q31 -12 52.5 -16t36 -5t23.5 -0.5t15 -0.5t9 -6t1 -13t-11.5 -18.5t-28.5 -21.5z" />
    <glyph glyph-name="uni0434.1" horiz-adv-x="364" 
d="M364 -248q9 -1 12 -12t3 -25q0 -20 -2.5 -27.5t-10.5 -7.5q-40 14 -91 29q-44 13 -106 27.5t-140 27.5q-38 -51 -71 -97t-59 -81q-30 -41 -55 -76q-4 -5 -11 -4q-9 3 -15 10.5t-10 16.5q-4 5 -24 34.5t-56 69t-89.5 81t-124.5 71.5q-72 -5 -142.5 -12.5t-126 -15t-90 -13
l-34.5 -5.5q-18 0 -32 7t-14 26q0 28 21 45.5t51.5 27t65.5 12.5t63 3q60 0 114.5 -11t103.5 -30q57 4 120 6.5t133 2.5q69 0 128 -2.5t111 -6.5q38 55 83 117t95 131q-20 -19 -39 -36.5t-36.5 -31t-31 -21.5t-22.5 -8q-6 0 -16.5 3.5t-21 12.5t-18 24t-7.5 39q0 21 12 47
t32 53.5t45 53.5t51 46t51 32.5t44 12.5q32 0 52.5 -21.5t20.5 -47.5v-2q23 26 30 26q6 0 11.5 -6t10.5 -14t8 -17.5t3 -15.5t-24 -38q-38 -53 -80 -110q-36 -49 -81 -111t-91 -125q78 -9 133 -20t91 -21t53.5 -16.5t19.5 -6.5zM29 4q12 0 32 12.5t44.5 32.5t51.5 46.5
t53 53.5q-5 3 -8.5 7t-3.5 9q0 3 8.5 11t18.5 18.5t18.5 23t8.5 25.5q0 10 -11 10q-9 0 -29 -13t-44.5 -34.5t-50 -48t-47 -53.5t-35 -51t-13.5 -41q0 -8 7 -8zM-879 -228q34 8 80 16q39 7 95.5 14.5t128.5 14.5q-61 14 -126 14q-40 0 -75 -4.5t-61 -11.5t-41 -15.5
t-15 -16.5q0 -11 14 -11zM-189 -430q10 14 46.5 68t95.5 137q-67 9 -141.5 14.5t-156.5 5.5q-44 0 -92 -3q49 -26 90 -56.5t72.5 -60.5t53 -57.5t32.5 -47.5z" />
    <glyph glyph-name="uni04331" horiz-adv-x="214" 
d="M115 283q31 21 47 21q17 0 34.5 -20.5t17.5 -55.5q0 -5 -8.5 -18.5t-21.5 -31.5q-10 -13 -21 -28h1q-5 -7 -11 -14q-15 -19 -32 -41t-32 -42.5t-25 -37.5t-10 -26q0 -2 2 -2q15 0 41 20.5t61 55t85 80.5q2 2 5.5 3.5t3.5 -4.5q0 -10 -3 -15.5t-5 -6.5q-15 -15 -22 -22.5
t-35.5 -36t-55.5 -51.5t-50.5 -37.5t-39.5 -14.5q-18 0 -28.5 17t-10.5 38q0 19 14.5 48t29.5 53.5t24 37.5q21 30 40 54t24 31q7 10 11.5 17.5t4.5 11.5q0 3 -3 3q-13 0 -42 -21q-3 -2 -7 -5q-8 -7 -16 -12q-15 -12 -26 -16t-21 -2q-6 1 -3.5 4t4.5 5q9 6 26.5 21.5
t46.5 35.5z" />
    <glyph glyph-name="uni0437.1" horiz-adv-x="279" 
d="M-356 -429q30 0 75.5 26t93.5 69t92.5 96.5t71.5 109.5q-71 -47 -134 -89.5t-110 -79.5t-74 -67.5t-27 -53.5q0 -11 12 -11zM54 -111q-7 -36 -22 -71q-22 -52 -55 -97t-72.5 -81.5t-79 -62t-76 -39.5t-61.5 -14q-18 0 -32.5 6t-24.5 15t-15.5 20t-5.5 21q0 34 30.5 70
t83 76t122 84.5t148.5 94.5q15 40 15 79q0 11 -1 19.5t-3 14.5q-1 2 -1 3t-1 3q1 16 14 24q31 25 69 59.5t71 66.5t55.5 56t22.5 28h-31h-14t-15 2l-28 9q-17 10 -17 27q0 7 6 7q1 0 5 -2q5 -3 17.5 -4t29.5 -1q18 0 37.5 0.5t35.5 1.5q18 1 37 3q11 0 20.5 -10.5t9.5 -27.5
q0 -8 -2.5 -14t-5.5 -10q-8 -12 -29 -34.5t-48.5 -50t-57.5 -56.5t-57 -54t-47.5 -42.5t-27.5 -20.5q3 -10 5 -19t2 -14l-1 -27l50 36l57 45q22 18 42 35q21 18 40 37q35 34 100 93q1 2 5 3.5t4 -4.5q1 -10 -2 -15.5t-4 -6.5q-60 -63 -95 -96q-27 -27 -58 -53
q-30 -25 -67 -54z" />
    <glyph glyph-name="uni0443.1" horiz-adv-x="419" 
d="M-852 -228q34 8 80 16q39 7 95.5 14.5t128.5 14.5q-61 14 -126 14q-40 0 -75 -4.5t-61 -11.5t-41 -15.5t-15 -16.5q0 -11 14 -11zM-162 -430q10 14 46.5 68t95.5 137q-67 9 -141.5 14.5t-156.5 5.5q-44 0 -92 -3q49 -26 90 -56.5t72.5 -60.5t53 -57.5t32.5 -47.5z
M185 -59q-45 -62 -91 -125q78 -9 133 -20t91 -21t53.5 -16.5t19.5 -6.5q9 -1 12 -12t3 -25q0 -20 -2.5 -27.5t-10.5 -7.5q-40 14 -91 29q-44 13 -106 27.5t-140 27.5q-38 -51 -71 -97t-59 -81q-30 -41 -55 -76q-4 -5 -11 -4q-9 3 -15 10.5t-10 16.5q-4 5 -24 34.5t-56 69
t-89.5 81t-124.5 71.5q-72 -5 -142.5 -12.5t-126 -15t-89.5 -12.5l-35 -6q-18 0 -32 7t-14 26q0 28 21 45.5t51.5 27t65.5 12.5t63 3q60 0 114.5 -11t103.5 -30q57 4 120 6.5t133 2.5q69 0 128 -2.5t111 -6.5q38 55 83 117q13 18 26.5 40t32.5 49q42 58 80 112
q-32 -34 -62.5 -64t-57 -53t-48 -36.5t-35.5 -13.5q-12 0 -28 13.5t-16 49.5q0 12 7.5 31t20.5 41.5t29 46.5t33 47q13 19 29 40t31 38t26.5 28t15.5 11q6 0 11.5 -6t10.5 -14t8 -17t3 -16q0 -3 -12.5 -21t-31.5 -43.5t-41 -55.5t-41 -57t-31.5 -48.5t-12.5 -30.5q0 -2 2 -2
q9 0 30 15t47.5 39t56.5 53.5t59 58.5t54 55t42 42q14 17 23.5 27t13.5 10q5 0 11 -6t11 -14t8 -17.5t3 -15.5q0 -4 -16 -26.5t-39 -54.5q1 1 -7.5 -10.5t-60 -86.5t-96.5 -137z" />
    <glyph glyph-name="uni041E1" horiz-adv-x="726" 
d="M203 -100q-26 -8 -49.5 -12t-43.5 -4q-28 0 -49 10t-35 27t-21 39.5t-7 47.5q0 30 13 62.5t35 67.5q-33 17 -49.5 47.5t-16.5 65.5q0 50 37.5 103.5t99 104t140 95.5t161.5 78.5t163 53t144 19.5q25 0 56 -11t59 -31t47 -47.5t19 -61.5q0 -48 -28 -104.5t-75 -116
t-109.5 -119t-131.5 -112.5t-141 -97.5t-218 -104.5zM38 -26q0 -27 13.5 -43t47.5 -16h1q51 1 112 19q67 21 140.5 60.5t145 91.5t136.5 113t114.5 124.5t79 127t29.5 119.5q0 48 -25 69t-78 21q-59 0 -136.5 -19.5t-158.5 -52t-159 -76.5t-139.5 -93.5t-99 -101
t-37.5 -100.5q0 -17 5.5 -32.5t31.5 -25.5q27 38 60.5 75.5t69 72t69 64.5t60.5 53t43.5 37t18.5 16q3 3 6 3q6 0 19.5 -12t13.5 -35q0 -9 -29 -36t-72.5 -66t-94 -86t-92.5 -96q61 0 119.5 14.5t103.5 31.5q53 20 100 47q5 0 5 -8v-9v-1q0 -7 -17 -17.5t-44.5 -22
t-62.5 -23.5t-71.5 -21t-72 -15t-62.5 -6h-11.5t-10.5 1q-32 -40 -51.5 -77t-19.5 -69z" />
    <glyph glyph-name="uni041D1" horiz-adv-x="1236" 
d="M91 -158q62 0 135 33.5t150 88.5t154 125.5t148 144.5h-23q-161 0 -281 -33.5t-199.5 -83.5t-119 -108.5t-39.5 -108.5q0 -30 20 -44t55 -14zM760 224q-71 -77 -150 -151q-82 -77 -166 -137.5t-167 -98t-156 -37.5q-33 0 -59 12t-44.5 31t-28 42.5t-9.5 47.5
q0 46 40.5 102.5t124.5 105t211.5 81.5t301.5 33h21t18 -1q46 49 87 97t75.5 92t60.5 81.5t43 66.5q23 47 23.5 47.5t0.5 1.5q4 4 6 4q3 0 6 -3q2 -2 4 -3q53 1 32 -48q-3 -14 -23 -46.5t-53 -78t-77.5 -101t-97.5 -114.5q34 -7 38 -7q26 -4 44 -6l91 -14q56 -9 109 -18
q33 50 68 99q84 119 163 226.5t88 107.5q8 0 18.5 -6t19.5 -15t15.5 -19t6.5 -17l-19 -24q-20 -24 -52 -64t-72.5 -92t-83.5 -108q-39 -52 -75 -103q14 -3 28 -5q44 -9 72 -16t32 -9q5 -2 4.5 -5.5t-6.5 -5.5q-17 -4 -33 -1q-20 4 -51 10q-27 5 -60 12q-30 -41 -54 -78
q-25 -39 -40 -67q-19 -33 -28 -53.5t-13.5 -36t-8 -30t-11.5 -35.5q-2 -3 -6.5 -7t-9.5 -4t-9 7.5t-7 18t-4.5 22t-1.5 18.5q0 33 12.5 68.5t32.5 72.5q13 24 29 49q19 33 43 69q-13 2 -26 5q-50 8 -107 16l-89 11h-3q-3 1 -7 2q-15 1 -32 3q-15 2 -29 3z" />
    <glyph glyph-name="uni042D.1" horiz-adv-x="562" 
d="M443 261q-49 -60 -97 -112q-87 -92 -116 -118q-54 -49 -105 -79q-51 -31 -98 -30q-14 1 -17 15q-3 13 -3 27q2 33 22 74q12 26 35 64q23 37 57 62q14 8 19 11q7 4 12 5h7q3 -1 7 -1q1 1 3 1q1 0 1 1q6 4 2 10q-4 5 -17 7q-13 1 -20 -1q-26 -6 -51 -23q-34 -24 -61 -67
q-17 -26 -29 -52q-21 -43 -22 -78q-1 -22 8 -40q9 -19 24 -32q14 -13 34 -20q19 -7 39 -8q40 -1 84 21q44 21 91 57t95 84q34 34 80 89q45 54 95 118q24 31 40 51h4q63 -3 77 -4q7 0 10 4t3 11q-1 6 -4 14q-4 8 -9 14q-7 9 -9 11q-3 1 -12 1h-23l46 69q49 72 78 138
q28 65 33 104q5 61 -25 82q-6 6 -13 9q-21 9 -60 0q-40 -9 -86 -33q-46 -25 -92 -65t-77 -93q-14 -23 -10 -47t30 -29q4 -1 9 6q2 5 5 11q3 5 7 10q19 33 58 72t83 71q43 31 83 49q40 17 62 10h1v-1q-2 -17 -15 -47q-14 -30 -36 -68q-22 -39 -51 -83q-30 -45 -64 -93
q-36 -48 -52 -70l-71 1h-56q-9 0 -7 -16t17 -29q2 -2 8 -4t14 -2h56q-13 -17 -31 -39z" />
    <glyph glyph-name="uni04321" horiz-adv-x="340" 
d="M310 279q0 4 -4 4q-12 0 -37 -21t-58 -54t-72.5 -74.5t-107.5 -122.5q-2 -2 -3 -5t-3 -5q1 0 5 -0.5t9 -0.5q49 0 92.5 27.5t80.5 72t52 68.5t25 45.5t15.5 38.5t5.5 27zM542 621q-45 -15 -81.5 -38.5t-71.5 -60t-71 -85.5t-79 -114q35 23 74.5 50.5t86.5 59.5
q53 39 88 67.5t55 49t27.5 34.5t6.5 23q0 10 -7.5 13.5t-17.5 2.5q-5 0 -10 -2zM150 190q24 24 48.5 46.5t45.5 40t37.5 28t25.5 10.5q23 0 40.5 -23t17.5 -54q0 -16 -5.5 -35.5t-15.5 -41.5l-12 -24q-19 -34 -46 -67.5t-58.5 -60.5t-66.5 -44t-69 -17q-28 0 -50 8.5
t-34 19.5l-10.5 -16.5t-5.5 -8.5t-3 -3.5t-2 -0.5q-12 -2 -26 24q-2 6 4 23q11 28 34 70t54 92t67 105q28 43 57 85t54 79q52 75 99.5 125t94.5 75.5t101 28.5q26 1 47 -15t22 -42q1 -31 -32 -67.5t-88.5 -77.5t-126 -87.5t-143.5 -95.5q-31 -44 -55 -79z" />
    <glyph glyph-name="uni04361" horiz-adv-x="479" 
d="M176 108l-9 -6q-27 -18 -51.5 -36t-43 -34.5t-29.5 -31t-11 -26.5q0 -5 -6 -5q-2 0 -4 2q-14 8 -23 18.5t-9 22.5q0 13 14 30.5t38 37.5t55 42t64 44q-2 20 -2 41.5v44.5q7 44 16 53t10 9q11 0 19 -8t13 -110l1 -19q26 41 58 88q39 58 44 63q10 8 14 8q5 0 11 -6t11 -14
t8 -17t3 -16q0 -2 -5 -10t-13 -19l-95 -137q33 32 66.5 60.5t64 52t56.5 41t43 26.5q6 3 14 0.5t14 -8.5t9.5 -13.5t2.5 -13.5q-1 -2 -5 -4q-3 -2 -29.5 -16.5t-59.5 -34t-64 -39.5q-10 -6 -18 -12l2 -8q1 -21 2 -40.5t2.5 -34.5t3.5 -23.5t7 -8.5q24 0 51 16t46.5 32.5
t56.5 50.5q2 2 5.5 3.5t3.5 -4.5q0 -10 -3.5 -15.5t-4.5 -6.5q-21 -23 -45 -45.5t-59 -47.5t-62 -25q-32 0 -48 28q-16 27 -24 72q-3 -3 -16 -15q-14 -13 -32.5 -31t-37.5 -37t-31 -34q-9 -13 -13.5 -20t-6.5 -10t-3 -4t-3 -1q-5 -1 -11.5 4.5t-13.5 19.5q-3 7 3 23
q11 28 34 70q11 21 25 44z" />
    <glyph glyph-name="uni0436.2" horiz-adv-x="479" 
d="M184 113l-17 -11q-27 -18 -51.5 -36t-43 -34.5t-29.5 -31t-11 -26.5q0 -5 -6 -5q-2 0 -4 2q-14 8 -23 18.5t-9 22.5q0 13 14 30.5t38 37.5t55 42t64 44q-2 20 -2 41.5v44.5q7 44 16 53t10 9q11 0 19 -8t13 -110l1 -20q37 51 63 89q39 58 44 63q10 8 14 8q5 0 11 -6
t11 -14t8 -17t3 -16q0 -2 -5 -10t-13 -19l-95 -137q33 32 66.5 60.5t64 52t56.5 41t43 26.5q6 3 14 0.5t14 -8.5t9.5 -13.5t2.5 -13.5q-1 -2 -5 -4q-3 -2 -29.5 -16.5t-59.5 -34t-64 -39.5t-43 -32q-2 -2 -4 -3q10 -2 19 -5.5t13 -12.5q9 -20 20.5 -47t27.5 -52t35 -42.5
t43 -17.5q8 0 21 4.5t16 4.5q6 0 6 -5q0 -3 -6 -8t-15.5 -9.5t-21.5 -8t-25 -3.5q-35 0 -63 19t-49 45.5t-35.5 55.5t-21.5 49q0 -1 -1 -1q-2 -2 -16 -15t-32.5 -31t-37.5 -37t-31 -34q-9 -13 -13.5 -20t-6.5 -10t-3 -4t-3 -1q-5 -1 -11.5 4.5t-13.5 19.5q-3 7 3 23
q11 28 34 70q13 23 28 49z" />
    <glyph glyph-name="uni0445.1" horiz-adv-x="361" 
d="M405 140q2 2 5.5 3.5t3.5 -4.5q0 -10 -3.5 -15.5t-4.5 -6.5q-21 -23 -45 -45.5t-59 -47.5t-62 -25q-32 0 -48.5 28t-24.5 75q-27 -18 -51.5 -36t-43 -34.5t-29.5 -31t-11 -26.5q0 -5 -6 -5q-2 0 -4 2q-14 8 -23 18.5t-9 22.5q0 13 14 30.5t38 37.5t55 42t64 44
q-2 20 -2 41.5v44.5q7 44 16 53t10 9q11 0 19 -8t13.5 -22t9 -32.5t5.5 -38.5q45 29 81.5 54t54.5 44q5 5 14 13.5t17 8.5q4 0 8.5 -4.5t8.5 -10.5t7 -13.5t3 -13.5q0 -9 -16 -24t-43 -33.5t-61 -40.5t-70 -45q1 -21 2 -40.5t2.5 -34.5t3.5 -23.5t7 -8.5q24 0 51 16
t46.5 32.5t56.5 50.5z" />
    <glyph glyph-name="uni043A.1" horiz-adv-x="323" 
d="M130 99q-3 -3 -16 -15q-14 -13 -32.5 -31t-37.5 -37t-31 -34q-9 -13 -13.5 -20t-6.5 -10t-3 -4t-3 -1q-5 -1 -11.5 4.5t-13.5 19.5q-3 7 3 23q11 28 34 70t54 92t70.5 108.5t44.5 63.5q10 8 14 8q5 0 11 -6t11 -14t8 -17t3 -16q0 -2 -5 -10t-13 -19l-95 -137
q33 32 66.5 60.5t64 52t56.5 41t43 26.5q6 3 14 0.5t14 -8.5t9.5 -13.5t2.5 -13.5q-1 -2 -5 -4q-3 -2 -29.5 -16.5t-59.5 -34t-64 -39.5q-10 -6 -18 -12l2 -8q1 -21 2 -40.5t2.5 -34.5t3.5 -23.5t7 -8.5q24 0 51 16t46.5 32.5t56.5 50.5q2 2 5.5 3.5t3.5 -4.5
q0 -10 -3.5 -15.5t-4.5 -6.5q-21 -23 -45 -45.5t-59 -47.5t-62 -25q-32 0 -48 28q-16 27 -24 72z" />
    <glyph glyph-name="uni04471" horiz-adv-x="214" 
d="M153 136q-15 -19 -32 -41t-32 -42.5t-25 -37.5t-10 -26q0 -2 2 -2q15 0 41 20.5t61 55t85 80.5q2 2 5.5 3.5t3.5 -4.5q0 -10 -3 -15.5t-5 -6.5q-15 -15 -22 -22.5t-35.5 -36t-55.5 -51.5t-50.5 -37.5t-39.5 -14.5q-18 0 -28.5 17t-10.5 38q0 19 14.5 48t29.5 54
q13 21 22 33q0 2 2 4q11 16 22 30q13 17 30 37q33 41 33 45h-31h-14t-15 2l-15 3l-18 9q-12 13 -12 24q0 7 6 7q1 0 5 -2q5 -3 17.5 -4t29.5 -1q18 0 37.5 0.5t35.5 1.5q18 1 37 3q11 0 20.5 -10.5t9.5 -27.5q0 -8 -2.5 -14t-5.5 -10q-8 -12 -29 -34q-7 -7 -14 -15
q-23 -31 -44 -60z" />
    <glyph glyph-name="uni0493.1" horiz-adv-x="214" 
d="M76 160q18 25 34 46q19 24 24 31q7 10 11.5 17.5t4.5 11.5q0 3 -3 3q-13 0 -42 -21q-3 -2 -7 -5q-8 -7 -16 -12q-15 -12 -26 -16t-21 -2q-6 1 -3.5 4t4.5 5q9 6 26.5 21.5t46.5 35.5l6 4q31 21 47 21q17 0 34.5 -20.5t17.5 -55.5q0 -5 -8.5 -18.5t-21.5 -31.5
q-7 -9 -15 -19q10 -1 19 -1t6 -13t-17 -23q-3 -2 -8.5 -3.5t-14.5 -1.5h-16q-8 -10 -17 -22q-17 -22 -32 -42.5t-25 -37.5t-10 -26q0 -2 2 -2q15 0 41 20.5t61 55t85 80.5q2 2 5.5 3.5t3.5 -4.5q0 -10 -3 -15.5t-5 -6.5q-15 -15 -22 -22.5t-35.5 -36t-55.5 -51.5
t-50.5 -37.5t-39.5 -14.5q-18 0 -28.5 17t-10.5 38q0 19 14.5 48t29.5 54l2 2h-11q-8 0 -10.5 3t-2 8.5t4.5 12t9 11.5q8 7 10.5 8t11.5 1t16 -1z" />
    <glyph glyph-name="uni0434.2" horiz-adv-x="358" 
d="M-2029 -319q69 0 192.5 15.5t291 35.5t373 38.5t439.5 25.5q-128 32 -287.5 52t-357.5 20q-71 0 -158 -4.5t-175 -13t-171 -21.5t-147 -29t-103 -35t-39 -41q0 -15 16.5 -23.5t39.5 -13t47 -5.5t39 -1zM-179 -414q16 23 45 65.5t67 96.5q-75 7 -165.5 11t-198.5 4
q-20 0 -38.5 -0.5t-38.5 -0.5q120 -48 203 -95t126 -81zM33 5q12 0 32.5 12.5t45 32.5t51 46.5t52.5 53.5q-11 5 -11 15q0 3 8.5 11t18 18.5t18 23.5t8.5 25q0 11 -11 11q-9 0 -29 -13t-44.5 -34.5t-50 -48t-47 -53.5t-35 -51t-13.5 -41q0 -8 7 -8zM136 -89
q-53 -72 -104 -142q75 -8 149.5 -19t147.5 -25q3 0 10 -1t14 -5.5t12.5 -13.5t5.5 -25q0 -5 -1 -8t-6 -5h-1q-31 13 -80 26q-42 11 -109 24t-163 24q-47 -64 -85 -117t-60 -83q-1 -6 -6 -11.5t-7 -7.5l-2 -2q-5 -5 -6 -7t-2 -3q-4 -5 -11 -4q-14 5 -21 19.5t-7 26.5
q-22 18 -58 43t-87 52.5t-117.5 56.5t-150.5 56q-175 -4 -341 -14.5t-315.5 -24.5t-278 -29t-227.5 -27.5t-165 -20.5t-90 -8q-29 0 -59.5 4t-55 14.5t-40.5 28.5t-16 47q0 30 28 54.5t75 44t109 34t130 25.5t138.5 18t134 11t115.5 6t85 2q116 0 223.5 -10t205 -27.5
t185 -40.5t163.5 -49q17 1 35 1h36q121 0 242.5 -5t245.5 -17q30 43 63.5 90t67 94.5t45.5 66.5t1 8q-20 -18 -37 -31.5t-31 -21.5t-23 -8q-6 0 -17 3.5t-21.5 12t-18 24t-7.5 39.5q0 20 12 46.5t32 53.5t45 53t51.5 46.5t51.5 33t44 12.5q16 0 29.5 -6t23 -16t15 -22
t5.5 -25v-2q22 25 30 25q5 0 11 -5.5t11 -14t8 -17.5t3 -15q0 -3 -6.5 -13t-17.5 -25q-12 -18 -28 -39q-14 -18 -32 -43q-10 -13 -43.5 -56.5t-84.5 -113.5z" />
    <glyph glyph-name="uni0431.1" horiz-adv-x="260" 
d="M231 143q27 41 44 77.5t17 55.5q0 7 -8 7q-12 0 -30 -8.5t-38 -21.5t-38 -30t-30 -33q4 -4 4 -10t-16 -30l-16 -23q-12 -17 -25 -36.5t-24 -38t-18 -36t-7 -29.5q0 -3 4 -3q18 0 38.5 10.5t41.5 28.5t41.5 41.5t38.5 48.5zM306 232.5q-18 -44.5 -51.5 -93t-60.5 -79.5
t-54 -55t-51 -39t-42 -15q-20 0 -33.5 23.5t-13.5 50.5q0 21 12 51.5t28 59t31.5 49t21.5 23.5q7 23 25 44.5t41 37.5t47.5 25.5t42.5 9.5q7 0 18.5 -4.5t22.5 -11.5q3 -2 5 -5q-4 39 -4 42q-7 22 -20.5 30.5t-37 11t-53 0.5t-59 -6.5t-56.5 -9.5t-45 -9q-25 -5 -50 -7
t-51 3q-34 7 -55 25.5t-24 44.5q-4 34 34.5 78.5t103.5 93t147 95.5t164 85t154.5 62.5t119.5 27.5q36 2 64.5 -4.5t48.5 -18.5t31.5 -27t13.5 -28q3 -23 -16.5 -58.5t-56 -73t-87.5 -70.5t-110 -49q-26 -7 -48 4t-20 37q1 4 8 6q6 2 12 3.5t12 3.5q37 9 85 35.5t90 59.5
t70.5 66.5t27.5 56.5q-1 13 -14.5 17t-34.5 2t-47 -9t-51 -15.5t-47 -17t-34 -13.5q-122 -47 -221.5 -99.5t-173 -100.5t-119 -85.5t-58.5 -54.5q-16 -21 -4.5 -33t62.5 -14q31 -1 68 2.5t74.5 8t73.5 7t66.5 -1.5t53 -17t34.5 -56q8 -57 -10 -101.5z" />
    </font>
</defs>
</svg>
