<svg xmlns="http://www.w3.org/2000/svg" xmlns:xlink="http://www.w3.org/1999/xlink" width="20" height="20" viewBox="0 0 20 20">
  <metadata><?xpacket begin="﻿" id="W5M0MpCehiHzreSzNTczkc9d"?>
<x:xmpmeta xmlns:x="adobe:ns:meta/" x:xmptk="Adobe XMP Core 5.6-c142 79.160924, 2017/07/13-01:06:39        ">
   <rdf:RDF xmlns:rdf="http://www.w3.org/1999/02/22-rdf-syntax-ns#">
      <rdf:Description rdf:about=""
            xmlns:xmp="http://ns.adobe.com/xap/1.0/">
         <xmp:CreatorTool>Adobe Photoshop CC (Windows)</xmp:CreatorTool>
      </rdf:Description>
   </rdf:RDF>
</x:xmpmeta>
                                                                                                    
                                                                                                    
                                                                                                    
                                                                                                    
                                                                                                    
                                                                                                    
                                                                                                    
                                                                                                    
                                                                                                    
                                                                                                    
                                                                                                    
                                                                                                    
                                                                                                    
                                                                                                    
                                                                                                    
                                                                                                    
                                                                                                    
                                                                                                    
                                                                                                    
                                                                                                    
                           
<?xpacket end="w"?></metadata>
<defs>
    <style>
      .cls-1 {
        fill: none;
        stroke: #fff;
        stroke-width: 1px;
        fill-rule: evenodd;
        filter: url(#filter);
      }
    </style>
    <filter id="filter" x="0" y="0" width="19.969" height="20" filterUnits="userSpaceOnUse">
      <feFlood result="flood" flood-color="#fff"/>
      <feComposite result="composite" operator="in" in2="SourceGraphic"/>
      <feBlend result="blend" in2="SourceGraphic"/>
    </filter>
  </defs>
  <g style="fill: none; filter: url(#filter)">
    <path id="СОЛНЕЧНАЯ_СИСТЕМА" data-name="СОЛНЕЧНАЯ СИСТЕМА" class="cls-1" d="M0.012,9.791a0.328,0.328,0,0,0,.082.091,13.924,13.924,0,0,1,1.166,1.051c0.285,0.277.612,0.515,0.924,0.765a1.185,1.185,0,0,0,.25.147,5.655,5.655,0,0,0,.862.312A1.82,1.82,0,0,0,4.2,12.123a0.518,0.518,0,0,0,.148-0.074c0.129-.08.259-0.161,0.384-0.247a3.226,3.226,0,0,1,.744-0.369c0.236-.084.471-0.169,0.7-0.259a0.446,0.446,0,0,0,.28-0.144,0.582,0.582,0,0,0-.228-0.171c-0.086-.069-0.183-0.126-0.264-0.2q-0.5-.459-1-0.926a1.021,1.021,0,0,1-.13-0.157,0.212,0.212,0,0,1,.051-0.259,2.1,2.1,0,0,1,.217-0.122c0.2-.1.4-0.189,0.6-0.287a0.334,0.334,0,0,0,.077-0.08,0.443,0.443,0,0,0-.093-0.078,5.64,5.64,0,0,1-1.33-.84C4.333,7.882,4.3,7.857,4.267,7.832a0.646,0.646,0,0,0-.617-0.179,1.728,1.728,0,0,0-.84.213,4.74,4.74,0,0,0-.781.472,7.759,7.759,0,0,1-.9.593,11.712,11.712,0,0,0-1.032.7,0.317,0.317,0,0,0-.082.09A0.085,0.085,0,0,0,.012,9.791ZM2.526,5.3a4.227,4.227,0,0,0,.149.466,2.3,2.3,0,0,0,.581.886C3.376,6.76,3.49,6.881,3.619,6.985,4.061,7.339,4.5,7.7,4.955,8.035a4.586,4.586,0,0,0,1.178.614A0.246,0.246,0,0,0,6.3,8.66c0.159-.048.32-0.092,0.479-0.142a0.075,0.075,0,0,0,.038-0.062C6.8,8.389,6.781,8.324,6.756,8.229,6.75,8.179,6.737,8.1,6.731,8.017,6.7,7.625,6.669,7.232,6.638,6.839c0-.013,0-0.027,0-0.04a0.246,0.246,0,0,1,.318-0.272c0.245,0.056.487,0.12,0.732,0.178q0.183,0.044.368,0.076a0.11,0.11,0,0,0,.066-0.033,0.04,0.04,0,0,0,0-.038,1.473,1.473,0,0,0-.106-0.174,8.325,8.325,0,0,0-.989-1.105C6.84,5.265,6.674,5.081,6.5,4.9,6.4,4.793,6.3,4.675,6.193,4.57a3.387,3.387,0,0,0-1.369-.84C4.558,3.649,4.289,3.578,4.018,3.509S3.48,3.365,3.21,3.3Q2.684,3.159,2.157,3.028a1.275,1.275,0,0,0-.166-0.022,0.088,0.088,0,0,0-.1.1c0.015,0.066.028,0.133,0.049,0.2C2.152,3.96,2.359,4.622,2.526,5.3Zm4.51-.543a0.872,0.872,0,0,0,.379.692A6.852,6.852,0,0,1,8.485,6.8a0.273,0.273,0,0,0,.18.157,0.094,0.094,0,0,0,.072-0.019,0.128,0.128,0,0,0,.031-0.073,1.99,1.99,0,0,1,.3-0.754A6.376,6.376,0,0,1,9.888,5.03c0.178-.191.262-0.192,0.444,0,0.1,0.108.2,0.226,0.295,0.343,0.052,0.064.086,0.142,0.143,0.2a0.745,0.745,0,0,0,.316.31,1.274,1.274,0,0,0,.14-0.376,1.535,1.535,0,0,0,.067-0.482c0-.231,0-0.462,0-0.693h0c0-.2,0-0.408,0-0.611a3.227,3.227,0,0,0-.1-0.725,1.678,1.678,0,0,0-.35-0.689c-0.268-.331-0.533-0.664-0.813-0.986C9.685,0.925,9.328.542,8.976,0.156A1.9,1.9,0,0,0,8.824.017a0.1,0.1,0,0,0-.113.016A0.507,0.507,0,0,0,8.658.1c-0.2.345-.391,0.689-0.582,1.037-0.138.251-.267,0.508-0.4,0.76C7.551,2.122,7.417,2.345,7.3,2.577a3.924,3.924,0,0,0-.3.844,2.535,2.535,0,0,0-.02,1.051C7,4.566,7.025,4.658,7.035,4.752Zm4.077,4.5a0.141,0.141,0,0,0,.075,0c0.158-.111.314-0.226,0.471-0.34a4.637,4.637,0,0,1,1.329-.592A0.7,0.7,0,0,0,13.328,8.1a1.091,1.091,0,0,0,.255-0.461A8.9,8.9,0,0,0,13.8,6.356a0.161,0.161,0,0,0-.009-0.08,0.1,0.1,0,0,0-.054-0.051,0.155,0.155,0,0,0-.081.007c-0.321.095-.643,0.187-0.962,0.288a4.612,4.612,0,0,0-.469.177,1.555,1.555,0,0,0-.528.4,0.538,0.538,0,0,0-.145.368,4.863,4.863,0,0,1-.242,1.32,3.562,3.562,0,0,1-.206.444A0.051,0.051,0,0,0,11.112,9.256ZM11.521,6.75a0.065,0.065,0,0,0,.1.035,3.036,3.036,0,0,1,1.154-.557c0.308-.087.613-0.187,0.92-0.278a1.03,1.03,0,0,1,.205-0.03,0.185,0.185,0,0,1,.177.145,0.619,0.619,0,0,1,.008.121c-0.014.148-.034,0.3-0.049,0.445S14.011,6.9,14,7.034a0.042,0.042,0,0,0,.02.033,0.061,0.061,0,0,0,.041,0A0.084,0.084,0,0,0,14.1,7.041a9,9,0,0,0,.892-1.23,1.633,1.633,0,0,0,.233-0.855,7.938,7.938,0,0,0-.035-1.017,4.116,4.116,0,0,1-.019-0.447c-0.008-.434-0.014-0.869-0.023-1.3,0-.081-0.014-0.161-0.023-0.241a0.116,0.116,0,0,0-.093-0.069,1.164,1.164,0,0,0-.161.04c-0.4.152-.809,0.3-1.209,0.46a6.215,6.215,0,0,1-.875.278,2.114,2.114,0,0,0-.909.484c-0.062.054-.119,0.115-0.178,0.173a0.46,0.46,0,0,0-.14.368c0.009,0.231,0,.462,0,0.692h0c0,0.177-.006.353,0,0.529a2.268,2.268,0,0,1-.1.763c-0.043.143-.085,0.287-0.124,0.431a0.288,0.288,0,0,0,.024.237A1.462,1.462,0,0,1,11.521,6.75Zm3.5-.5a12.688,12.688,0,0,1-1.094,1.392,2.465,2.465,0,0,0-.275.5,0.038,0.038,0,0,0,.029.062,2.657,2.657,0,0,1,.832.262c0.33,0.148.66,0.3,0.988,0.448a0.843,0.843,0,0,1,.173.111,0.226,0.226,0,0,1,.03.3,1.139,1.139,0,0,1-.08.094l-0.782.8c-0.154.157-.308,0.313-0.461,0.471a0.047,0.047,0,0,0,0,.04,0.042,0.042,0,0,0,.027.023c0.083,0.008.165,0.014,0.207,0.017a8.524,8.524,0,0,0,1.2-.16,3.976,3.976,0,0,0,.443-0.121c0.3-.1.6-0.214,0.91-0.308a1.628,1.628,0,0,0,.732-0.453,12.972,12.972,0,0,0,.859-1.054,9.093,9.093,0,0,1,.677-0.83,3.462,3.462,0,0,0,.509-0.745,0.107,0.107,0,0,0-.048-0.138C19.656,6.835,19.4,6.716,19.15,6.6,19,6.537,18.838,6.484,18.685,6.419a5.875,5.875,0,0,0-1.072-.348c-0.163-.035-0.324-0.082-0.484-0.131a2.667,2.667,0,0,0-1.88.13A0.493,0.493,0,0,0,15.025,6.247Zm4.208,7.018c-0.228-.342-0.45-0.687-0.683-1.025a4.866,4.866,0,0,0-.759-0.865,3.743,3.743,0,0,0-1.19-.667,0.289,0.289,0,0,0-.2,0,7.067,7.067,0,0,1-1.849.314c-0.069.005-.138,0.015-0.207,0.024a0.066,0.066,0,0,0-.044.1c0.013,0.024.024,0.049,0.039,0.072,0.044,0.069.085,0.141,0.134,0.207a7.711,7.711,0,0,1,.645,1.139,0.9,0.9,0,0,1,.066.191,0.184,0.184,0,0,1-.123.192c-0.081.015-.164,0.022-0.247,0.03a0.929,0.929,0,0,0-.33.031,0.074,0.074,0,0,0-.032.065,0.327,0.327,0,0,0,.053.109c0.094,0.135.187,0.27,0.288,0.4a3.948,3.948,0,0,1,.454.682,0.408,0.408,0,0,0,.208.191c0.126,0.059.252,0.117,0.374,0.183a2.108,2.108,0,0,0,1.092.225c0.112,0,.223-0.014.361-0.024a16.614,16.614,0,0,0,2.259-.255c0.137-.022.272-0.058,0.408-0.089a0.067,0.067,0,0,0,.037-0.1q-0.077-.121-0.157-0.24Zm-4.292.984a1.128,1.128,0,0,0-.107-0.175c-0.219-.3-0.44-0.595-0.66-0.892a0.333,0.333,0,0,0-.281-0.149,4.728,4.728,0,0,1-.751-0.06,0.093,0.093,0,0,0-.11.123,1.763,1.763,0,0,1-.023.806c-0.1.4-.19,0.792-0.289,1.187a0.476,0.476,0,0,1-.077.143,0.186,0.186,0,0,1-.223.058c-0.061-.033-0.121-0.067-0.178-0.105-0.335-.222-0.667-0.447-1-0.666A1.6,1.6,0,0,1,10.714,14c-0.083-.14-0.116-0.14-0.2-0.031a1.813,1.813,0,0,1-.234.285,0.373,0.373,0,0,0-.1.442,2.984,2.984,0,0,0,.23.61,7.288,7.288,0,0,1,.407.936,3.879,3.879,0,0,0,.417.8,1.516,1.516,0,0,0,.5.482c0.428,0.257.867,0.5,1.318,0.71,0.552,0.263,1.1.539,1.625,0.843a1.279,1.279,0,0,0,.15.069,0.134,0.134,0,0,0,.166-0.083,2.805,2.805,0,0,0,.069-0.277q0.209-1.244.413-2.489c0.022-.133.024-0.27,0.035-0.405a1.816,1.816,0,0,0-.16-0.794C15.215,14.813,15.076,14.532,14.94,14.25Zm-4.65,1.43a5.714,5.714,0,0,1-.4-0.981,0.077,0.077,0,0,0-.127-0.049,7.865,7.865,0,0,0-.756.434,1.091,1.091,0,0,1-.143.084,0.245,0.245,0,0,1-.325-0.1c-0.047-.1-0.083-0.2-0.125-0.3s-0.073-.175-0.11-0.262A0.073,0.073,0,0,0,8.2,14.5q-0.182.2-.362,0.394a6.375,6.375,0,0,1-.952.913,0.369,0.369,0,0,0-.133.2,2.491,2.491,0,0,0-.075.625,2.463,2.463,0,0,0,.088.744c0.05,0.169.088,0.342,0.127,0.514a3.759,3.759,0,0,0,.312.882,5.355,5.355,0,0,1,.316.882c0.032,0.1.067,0.206,0.1,0.309a0.067,0.067,0,0,0,.1.019c0.055-.042.11-0.083,0.162-0.128Q8.37,19.428,8.85,19a4.527,4.527,0,0,0,.329-0.313q0.419-.454.827-0.918a3.082,3.082,0,0,0,.583-0.981,0.519,0.519,0,0,0,0-.4C10.487,16.157,10.4,15.912,10.289,15.68ZM5.207,9.439a0.076,0.076,0,0,0-.023.132C5.241,9.631,5.3,9.692,5.357,9.748,5.6,9.973,5.841,10.2,6.09,10.417a3.29,3.29,0,0,0,.366.271,1.408,1.408,0,0,0,.629.205,0.819,0.819,0,0,0,.521-0.1,3.064,3.064,0,0,1,1.229-.375c0.138-.014.274-0.05,0.412-0.072A0.208,0.208,0,0,0,9.459,10.1a0.186,0.186,0,0,0-.087-0.174C9.135,9.76,8.9,9.587,8.658,9.429,8.485,9.316,8.3,9.222,8.116,9.122a0.76,0.76,0,0,0-.151-0.069C7.7,8.975,7.429,8.9,7.16,8.829A1.392,1.392,0,0,0,6.922,8.8a1.078,1.078,0,0,0-.423.06A12.67,12.67,0,0,0,5.207,9.439Zm3.136-2.31c-0.42-.1-0.838-0.2-1.258-0.3C6.959,6.8,6.915,6.849,6.921,6.987c0,0.041.006,0.081,0.008,0.122s0.008,0.108.012,0.162,0.008,0.108.012,0.162h0c0.007,0.162.011,0.325,0.02,0.487a1.145,1.145,0,0,0,.135.507,0.346,0.346,0,0,0,.214.18c0.2,0.055.4,0.11,0.6,0.169a1.339,1.339,0,0,1,.272.1A7.842,7.842,0,0,1,9.228,9.5c0.1,0.076.2,0.144,0.306,0.213a0.129,0.129,0,0,0,.154.008c0.057-.038.118-0.072,0.176-0.109a0.136,0.136,0,0,0,.062-0.174c-0.043-.157-0.1-0.311-0.13-0.47A1.931,1.931,0,0,0,9.509,8.3,6.467,6.467,0,0,0,8.862,7.45,1.008,1.008,0,0,0,8.342,7.129Zm2.914,0.739A2.06,2.06,0,0,0,11.285,7.3c-0.007-.122-0.016-0.243-0.021-0.365a0.958,0.958,0,0,0-.2-0.566c-0.042-.054-0.08-0.111-0.121-0.166-0.2-.261-0.418-0.508-0.6-0.784a1.007,1.007,0,0,0-.139-0.151,0.124,0.124,0,0,0-.183,0,5.107,5.107,0,0,0-.566.7C9.365,6.111,9.284,6.254,9.2,6.394a1.153,1.153,0,0,0-.149.783,0.366,0.366,0,0,0,.06.148c0.045,0.068.106,0.126,0.154,0.192,0.169,0.232.34,0.463,0.5,0.7a2.039,2.039,0,0,1,.286.672c0.046,0.184.105,0.364,0.16,0.546a0.138,0.138,0,0,0,.123.093,2.042,2.042,0,0,0,.248.033,0.131,0.131,0,0,0,.1-0.051,7.56,7.56,0,0,1,.338-0.7,1.038,1.038,0,0,0,.09-0.27C11.165,8.319,11.21,8.093,11.256,7.868Zm4.133,1.4a0.077,0.077,0,0,0-.008-0.109,0.656,0.656,0,0,0-.067-0.047C15.24,9.07,15.166,9.032,15.09,9,14.8,8.869,14.5,8.748,14.215,8.611a1.364,1.364,0,0,0-.855-0.1,4.025,4.025,0,0,0-1.215.419,5.876,5.876,0,0,0-1.107.8c-0.06.053-.055,0.108,0.013,0.17,0.02,0.018.043,0.035,0.064,0.052a0.681,0.681,0,0,1,.293.516,0.127,0.127,0,0,0,.1.112,2.991,2.991,0,0,0,1.05.177c0.127,0,.239.009,0.349,0,0.263-.026.526-0.056,0.788-0.095a1.041,1.041,0,0,0,.627-0.3C14.68,9.992,15.035,9.629,15.389,9.264ZM13,12.645a2.263,2.263,0,0,0,.442.114,3.683,3.683,0,0,0,.834-0.006c0.137-.02.277-0.029,0.415-0.038,0.166-.012.185-0.046,0.111-0.2a8.236,8.236,0,0,0-.664-1.126,1.479,1.479,0,0,0-.374-0.379,0.354,0.354,0,0,0-.234-0.071,2.39,2.39,0,0,0-.332.031,3.3,3.3,0,0,1-1.245-.014,0.61,0.61,0,0,0-.312-0.017,5.462,5.462,0,0,1,1.146,1.529A0.343,0.343,0,0,0,13,12.645Zm-1.366-1.736-0.009.03,0.016-.005,0,0Zm-0.881,0c0.111-.121.222-0.242,0.328-0.368a0.224,0.224,0,0,0-.022-0.3,1.353,1.353,0,0,0-.152-0.138c-0.087-.067-0.181-0.126-0.268-0.193a0.463,0.463,0,0,0-.3-0.122,0.77,0.77,0,0,0-.437.111,0.444,0.444,0,0,0-.106.123,0.609,0.609,0,0,0-.083.345,0.3,0.3,0,0,0,.083.229c0.141,0.13.281,0.262,0.431,0.382a0.358,0.358,0,0,0,.429,0A0.509,0.509,0,0,0,10.75,10.913Zm-2.472,2.62c0.157,0.434.269,0.884,0.458,1.307a0.084,0.084,0,0,0,.107.032c0.012-.006.026-0.01,0.038-0.017,0.2-.117.411-0.232,0.613-0.352,0.119-.07.231-0.152,0.35-0.223a1.494,1.494,0,0,0,.481-0.5,0.776,0.776,0,0,0,.126-0.459c-0.013-.045-0.031-0.124-0.057-0.2a2.6,2.6,0,0,1-.119-0.638,5.809,5.809,0,0,1-.02-0.975,0.443,0.443,0,0,0,0-.081,0.206,0.206,0,0,0-.1-0.169c-0.036-.021-0.071-0.044-0.107-0.063a0.131,0.131,0,0,0-.154.015,0.684,0.684,0,0,0-.08.093,8.542,8.542,0,0,1-.852,1,2.078,2.078,0,0,1-.513.416,0.462,0.462,0,0,0-.22.373,1.433,1.433,0,0,0,.011.283A0.671,0.671,0,0,0,8.277,13.532Zm-1.253-.417a1.147,1.147,0,0,0,.559-0.146,7.732,7.732,0,0,0,1.029-.7,2.392,2.392,0,0,0,.263-0.262c0.14-.15.284-0.3,0.413-0.458s0.261-.351.389-0.528a0.122,0.122,0,0,0,0-.151c-0.061-.074-0.12-0.15-0.185-0.22A0.165,0.165,0,0,0,9.339,10.6c-0.316.05-.634,0.093-0.948,0.154a2.717,2.717,0,0,0-.731.3c-0.184.1-.368,0.194-0.554,0.285a1.587,1.587,0,0,0-.666.541c-0.237.367-.46,0.742-0.687,1.115a0.069,0.069,0,0,0,.057.115c0.056,0,.111,0,0.167,0h0.5v0H7.024Zm3.546-.326a9.447,9.447,0,0,0,.354,1.043,0.919,0.919,0,0,0,.251.323,0.7,0.7,0,0,0,.065.052l1.146,0.751a0.046,0.046,0,0,0,.071-0.019,0.5,0.5,0,0,0,.054-0.109c0.086-.342.173-0.685,0.253-1.029a1.472,1.472,0,0,0-.069-0.879,5.174,5.174,0,0,0-.9-1.462,3.736,3.736,0,0,0-.555-0.495,0.132,0.132,0,0,0-.187.013c-0.094.081-.188,0.16-0.283,0.241a0.347,0.347,0,0,0-.271.434,0.429,0.429,0,0,1,0,.079A8,8,0,0,0,10.57,12.79ZM7.063,15.325a13.33,13.33,0,0,0,1.057-1.157,0.148,0.148,0,0,0,.04-0.151,4.357,4.357,0,0,1-.233-0.863,0.043,0.043,0,0,0-.067-0.029,0.264,0.264,0,0,0-.039.012,1.877,1.877,0,0,1-1.086.237c-0.307-.012-0.615,0-0.922,0-0.084,0-.168,0-0.251,0A0.191,0.191,0,0,1,5.4,13.1a1.215,1.215,0,0,1,.071-0.147q0.134-.23.273-0.458c0.064-.105.136-0.206,0.2-0.313a3.467,3.467,0,0,1,.553-0.763A0.044,0.044,0,0,0,6.5,11.384a0.048,0.048,0,0,0-.07-0.024c-0.326.12-.652,0.241-0.98,0.359a2.513,2.513,0,0,0-.484.24c-0.317.2-.638,0.391-0.951,0.6-0.209.136-.409,0.284-0.608,0.432a1.959,1.959,0,0,0-.627.8,3.813,3.813,0,0,0-.174.458c-0.211.718-.488,1.414-0.737,2.12a2.337,2.337,0,0,0-.075.273,0.073,0.073,0,0,0,.045.054,0.712,0.712,0,0,0,.165.016c0.251-.005.5-0.014,0.754-0.021,0,0,0,0,0-.007,0.14,0,.28,0,0.419,0,0.223-.008.446-0.021,0.669-0.033,0.2-.011.39-0.027,0.586-0.032a3.529,3.529,0,0,0,.662-0.1,2.6,2.6,0,0,0,1.087-.5c0.215-.173.439-0.336,0.657-0.506A2.6,2.6,0,0,0,7.063,15.325Z" style="stroke: inherit; filter: none; fill: inherit"/>
  </g>
  <use xlink:href="#СОЛНЕЧНАЯ_СИСТЕМА" style="stroke: #fff; filter: none; fill: none"/>
</svg>
