<?xml version="1.0" standalone="no"?>
<!DOCTYPE svg PUBLIC "-//W3C//DTD SVG 1.1//EN" "http://www.w3.org/Graphics/SVG/1.1/DTD/svg11.dtd" >
<svg xmlns="http://www.w3.org/2000/svg" xmlns:xlink="http://www.w3.org/1999/xlink" version="1.1">
<metadata></metadata>
<defs>
<font id="tavridaregular" horiz-adv-x="487" >
<font-face units-per-em="2048" ascent="1556" descent="-492" />
<missing-glyph horiz-adv-x="614" />
<glyph horiz-adv-x="0" />
<glyph horiz-adv-x="682" />
<glyph unicode=" "  horiz-adv-x="614" />
<glyph unicode="&#x09;" horiz-adv-x="614" />
<glyph unicode="&#xa0;" horiz-adv-x="614" />
<glyph unicode="!" d="M82 113q0 58 42.5 95.5t119.5 37.5q72 0 117 -38t45 -95t-45 -95t-117 -38q-78 0 -120 37.5t-42 95.5zM94 1200h301l-33 -858h-237z" />
<glyph unicode="&#x22;" horiz-adv-x="802" d="M39 1313q0 61 42 97t120 36q76 0 118.5 -37.5t42.5 -95.5v-3q-1 -4 -2.5 -10.5t-3 -14t-3 -15.5t-3.5 -13l-78 -294h-143l-78 294q-12 32 -12 56zM436 1313q0 61 42 97t120 36q76 0 119 -37.5t43 -95.5v-3q-1 -4 -2.5 -10.5t-3 -14t-3 -15.5t-3.5 -13l-78 -294h-144 l-77 294q-13 35 -13 56z" />
<glyph unicode="#" horiz-adv-x="1183" d="M41 213v258h188l21 213h-160v258h186l50 483h278l-49 -483h147l50 483h278l-49 -483h162v-258h-189l-20 -213h160v-258h-187l-47 -471h-278l47 471h-148l-47 -471h-278l47 471h-162zM508 471h147l21 213h-148z" />
<glyph unicode="$" horiz-adv-x="751" d="M41 33v223q115 -51 229 -51h34.5t31.5 1t31.5 4t26 7.5t24 12t16.5 18.5t12 26.5t3 34.5q0 31 -19.5 56t-49.5 43t-66.5 35.5t-73 40t-66.5 51t-49 74t-19 102.5q0 87 41 153.5t109 98.5v86h246v-86q51 -10 86 -31v-203q-51 21 -125 21q-111 0 -111 -62q0 -20 20 -37 t52 -30.5t71 -29t77.5 -38.5t71 -53t53 -78.5t20.5 -108.5q2 -107 -61 -204.5t-154 -128.5v-107h-246v107q-35 0 -100 16t-115 37z" />
<glyph unicode="%" horiz-adv-x="1390" d="M41 926q0 122 92.5 208.5t222.5 86.5t223 -86.5t93 -208.5t-93 -208.5t-223 -86.5t-222.5 86.5t-92.5 208.5zM168 0l815 1200h238l-813 -1200h-240zM260 926q0 -40 28 -68.5t68 -28.5t68.5 28.5t28.5 68.5t-28.5 68t-68.5 28t-68 -28t-28 -68zM719 295q0 122 92.5 208.5 t222.5 86.5t223 -86.5t93 -208.5t-93 -208.5t-223 -86.5t-222.5 86.5t-92.5 208.5zM938 295q0 -40 28 -68t68 -28t68 28t28 68t-28 68t-68 28t-68 -28t-28 -68z" />
<glyph unicode="&#x26;" horiz-adv-x="1028" d="M43 381q0 132 62 226.5t169 131.5q-39 19 -65.5 67t-26.5 107q0 127 123.5 217.5t296.5 90.5q66 0 180 -29v-250q-75 21 -166 21q-58 0 -100.5 -16.5t-42.5 -45.5t23 -46t86 -17h127v-238h-131q-106 0 -181 -54t-75 -130q0 -78 69.5 -134.5t167.5 -56.5q33 0 77.5 13 t72.5 30v312h278v-504q-77 -40 -198 -68t-220 -28q-144 0 -265.5 54t-191.5 146t-69 201z" />
<glyph unicode="'" d="M82 1313q0 58 42.5 95.5t119.5 37.5q72 0 117 -38t45 -95q0 -30 -13 -56l-104 -229h-117l72 152q-78 0 -120 37.5t-42 95.5z" />
<glyph unicode="(" horiz-adv-x="591" d="M82 600q0 212 66 453.5t157 371.5h246q-78 -130 -134.5 -372t-56.5 -453q0 -216 49 -467t121 -391h-245q-86 137 -144.5 387.5t-58.5 470.5z" />
<glyph unicode=")" horiz-adv-x="591" d="M41 1425h246q91 -130 157 -371.5t66 -453.5q0 -220 -58.5 -470.5t-144.5 -387.5h-246q72 140 121 391t49 467q0 212 -56 454t-134 371z" />
<glyph unicode="*" horiz-adv-x="684" d="M44.5 1032q6.5 33 35.5 49q23 9 33 11l143 28l-143 29q-22 4 -33 10q-68 41 -19 123q23 40 55.5 51.5t61.5 -6.5q-1 0 3.5 -3.5t11.5 -9.5t10 -9l96 -109l-47 137q-6 15 -6 33q0 36 25 58t71 22t71 -22.5t25 -57.5q0 -18 -6 -33l-47 -137l96 107q6 10 25 24q30 18 62 6.5 t55 -51.5q23 -41 16.5 -74t-35.5 -49q-23 -8 -33 -10l-143 -29l143 -28q18 -4 33 -11q68 -41 19 -123q-23 -40 -55.5 -51.5t-61.5 6.5q1 0 -3.5 4t-11.5 10t-10 9l-96 108l47 -137q6 -15 6 -33q0 -36 -25 -57.5t-71 -21.5t-71 22t-25 57q0 18 6 33l49 142l-98 -111 q-7 -11 -25 -25q-30 -18 -62 -6.5t-55 51.5q-23 41 -16.5 74z" />
<glyph unicode="+" horiz-adv-x="978" d="M82 406v258h278v278h258v-278h279v-258h-279v-279h-258v279h-278z" />
<glyph unicode="," d="M82 113q0 58 42.5 95.5t119.5 37.5q72 0 117 -38t45 -95q0 -30 -13 -56l-104 -229h-117l72 152q-78 0 -120 37.5t-42 95.5z" />
<glyph unicode="-" horiz-adv-x="495" d="M61 471v217h373v-217h-373z" />
<glyph unicode="." d="M82 113q0 58 42.5 95.5t119.5 37.5q72 0 117 -38t45 -95t-45 -95t-117 -38q-78 0 -120 37.5t-42 95.5z" />
<glyph unicode="/" horiz-adv-x="530" d="M41 -258l170 1683h278l-170 -1683h-278z" />
<glyph unicode="0" horiz-adv-x="1380" d="M41 600q0 127 49.5 241t135 198t207 133t257.5 49t257.5 -49t207 -133t135 -198t49.5 -241q0 -169 -84 -311t-233.5 -225.5t-331.5 -83.5t-331.5 83.5t-233.5 225.5t-84 311zM319 600q0 -151 108.5 -256.5t262.5 -105.5t262.5 105.5t108.5 256.5t-108.5 257t-262.5 106 t-262.5 -106t-108.5 -257z" />
<glyph unicode="1" horiz-adv-x="507" d="M49 942v258h377v-1200h-279v942h-98z" />
<glyph unicode="2" horiz-adv-x="876" d="M41 942v227q62 22 142.5 37t135.5 15q212 0 364.5 -121.5t152.5 -286.5q0 -103 -45 -204t-113 -163l-223 -200h305v-246h-676v258l393 342q34 29 57 85.5t23 107.5q0 70 -76.5 120t-183.5 50q-163 0 -256 -21z" />
<glyph unicode="3" horiz-adv-x="909" d="M41 20v248q139 -30 248 -30q128 0 208.5 48.5t80.5 159.5q0 103 -119.5 176.5t-288.5 73.5v23l186 223h-262v258h611v-225l-127 -148q136 -35 213 -131.5t77 -246.5q0 -96 -43 -182t-119 -149.5t-187.5 -100.5t-242.5 -37q-75 0 -235 40z" />
<glyph unicode="4" horiz-adv-x="1005" d="M41 258v279l246 471h280v192h279v-684h119v-258h-119v-258h-279v258h-526zM330 516h237v438z" />
<glyph unicode="5" horiz-adv-x="897" d="M41 20v248q130 -35 260 -35q58 1 105 11t87 31.5t62.5 60t22.5 90.5q0 100 -66.5 142t-196.5 42q-134 0 -211 -18v608h570v-258h-289v-86q223 0 347 -98.5t124 -304.5q0 -120 -44 -212t-122 -148t-179 -84.5t-222 -28.5q-47 0 -119.5 11.5t-128.5 28.5z" />
<glyph unicode="6" horiz-adv-x="1040" d="M41 428q0 53 13.5 119.5t33.5 107.5l254 545h328l-303 -575q-20 -35 -34 -92.5t-14 -102.5q0 -80 59 -136t144 -56q83 0 141 55t58 133q0 81 -45 126.5t-123 45.5h-111l123 258q118 0 218 -56t158 -151t58 -207q0 -126 -65.5 -232.5t-177.5 -168t-244 -61.5 q-195 0 -333 131t-138 317z" />
<glyph unicode="7" horiz-adv-x="811" d="M41 942v258h729v-278l-311 -922h-289l322 942h-451z" />
<glyph unicode="8" horiz-adv-x="1026" d="M41 369q0 60 39.5 142.5t93.5 141.5q11 -13 23 -24.5t29 -23t28 -19t34 -20t32.5 -17.5t39 -20t37.5 -19q-39 -27 -58.5 -67t-19.5 -74q0 -54 52.5 -92.5t126.5 -38.5q86 0 147.5 38.5t61.5 92.5q0 36 -19 63t-51.5 45.5t-74 34t-88 31t-92.5 34.5t-87.5 47t-74 65 t-51.5 92.5t-19 125.5q0 129 105.5 221.5t254.5 92.5q155 0 252.5 -86.5t97.5 -227.5q0 -33 -15.5 -78.5t-37.5 -78.5q-37 17 -117.5 50.5t-124.5 55.5q17 17 17 51q0 23 -23 39.5t-57 16.5q-28 0 -51 -16.5t-23 -39.5q0 -25 24 -47.5t63 -39.5t89 -39t102.5 -44.5 t102.5 -57t89 -75t63 -101.5t24 -134q0 -100 -37.5 -176.5t-104.5 -122t-152.5 -68t-188.5 -22.5q-194 0 -327.5 113.5t-133.5 275.5z" />
<glyph unicode="9" horiz-adv-x="1042" d="M43 758q-1 126 64 232.5t177.5 168.5t245.5 62q127 0 235 -60t171.5 -163.5t64.5 -225.5q0 -148 -40 -229l-261 -543h-327l303 575q47 103 47 195q0 80 -59.5 136.5t-143.5 56.5q-83 0 -140.5 -55.5t-57.5 -133.5q0 -72 49 -122t118 -50h111l-123 -258q-178 0 -305 121.5 t-129 292.5z" />
<glyph unicode=":" d="M82 113q0 58 42.5 95.5t119.5 37.5q72 0 117 -38t45 -95t-45 -95t-117 -38q-78 0 -120 37.5t-42 95.5zM82 829q0 58 42.5 96t119.5 38q72 0 117 -38.5t45 -95.5t-45 -95t-117 -38q-78 0 -120 37.5t-42 95.5z" />
<glyph unicode=";" d="M82 113q0 58 42.5 95.5t119.5 37.5q72 0 117 -38t45 -95q0 -17 -13 -56l-104 -229h-117l72 152q-78 0 -120 37.5t-42 95.5zM82 829q0 58 42.5 96t119.5 38q72 0 117 -38.5t45 -95.5t-45 -95t-117 -38q-78 0 -120 37.5t-42 95.5z" />
<glyph unicode="&#x3c;" horiz-adv-x="720" d="M82 412v239l557 377v-240l-381 -258l381 -258v-237z" />
<glyph unicode="=" horiz-adv-x="978" d="M82 223v258h815v-258h-815zM82 580v258h815v-258h-815z" />
<glyph unicode="&#x3e;" horiz-adv-x="720" d="M82 35v237l381 258l-381 258v240l557 -377v-239z" />
<glyph unicode="?" horiz-adv-x="737" d="M41 928v233q56 26 140.5 43t150.5 17q151 0 257.5 -93t106.5 -225q0 -63 -22.5 -114.5t-55.5 -83t-72.5 -62.5t-72.5 -54.5t-55.5 -58.5t-22.5 -75v-131h-245q-23 48 -23 131q0 64 20 118.5t49.5 88t64.5 64.5t64.5 51.5t49.5 44.5t20 48q0 44 -36.5 68.5t-92.5 24.5 q-58 0 -124 -10.5t-101 -24.5zM100 113q0 58 42.5 95.5t119.5 37.5q72 0 117 -38t45 -95t-45 -95t-117 -38q-78 0 -120 37.5t-42 95.5z" />
<glyph unicode="@" horiz-adv-x="1581" d="M41 471q0 153 59.5 291.5t160 239t239 160t291.5 59.5q152 0 291 -59.5t239 -160t159.5 -239t59.5 -291.5q0 -158 -97.5 -269.5t-234.5 -111.5h-501q-130 0 -220.5 78t-89.5 190q0 109 80.5 188t194.5 79q116 0 155 -17v-174q-10 2 -33.5 7t-41.5 7.5t-35 2.5 q-46 0 -79.5 -25t-33.5 -61q0 -38 34 -66.5t81 -28.5h168v346q0 33 -34.5 56.5t-86.5 23.5q-125 0 -178 -22v170q112 33 205 33q81 0 141 -21t93.5 -57.5t49 -79.5t15.5 -94v-355h102q69 0 117.5 59t48.5 142q0 154 -76.5 285t-207.5 207.5t-285 76.5t-285.5 -76.5 t-208 -207.5t-76.5 -285t76.5 -285t208 -207.5t285.5 -76.5q161 0 301 98v-215q-144 -64 -301 -64q-153 0 -291.5 59.5t-239 160t-160 239t-59.5 291.5z" />
<glyph unicode="A" horiz-adv-x="1204" d="M0 0l442 1200h301l461 -1200h-291l-133 385h-286l84 258h112l-84 295h-4l-311 -938h-291z" />
<glyph unicode="B" horiz-adv-x="1026" d="M82 0v1180q39 17 144 29t208 12q84 0 149.5 -13t118.5 -43t81 -84t28 -131q0 -125 -86 -188q130 -25 199 -117t69 -237q0 -192 -116 -310t-310 -118q-79 0 -121 20v268q38 -6 76 -6q84 0 132 42t48 126q0 48 -18.5 80.5t-55 48.5t-79.5 22q-37 5 -86 5h-17v245 q35 0 60.5 22.5t25.5 51.5q0 25 -22.5 41.5t-54.5 16.5q-52 0 -82 -9v-954h-291z" />
<glyph unicode="C" horiz-adv-x="915" d="M33 600q0 126 53 241t141 198t208 132.5t249 49.5q101 0 141 -21v-258q-35 21 -141 21q-149 0 -254.5 -106t-105.5 -257q0 -145 105.5 -247.5t254.5 -102.5q166 0 219 24v-274q-48 -20 -219 -20q-173 0 -322.5 81t-239 224.5t-89.5 314.5z" />
<glyph unicode="D" horiz-adv-x="1181" d="M82 0v1180q42 17 169 29t263 12q172 0 318.5 -83.5t231.5 -226.5t85 -311q0 -163 -79 -301.5t-215 -218.5t-296 -80h-123v258h123q124 0 211.5 100.5t87.5 241.5q0 151 -99 257t-239 106q-38 0 -86.5 -4.5t-60.5 -8.5v-950h-291z" />
<glyph unicode="E" horiz-adv-x="823" d="M82 0v1200h653v-258h-362v-98h276v-258h-276v-328h438v-258h-729z" />
<glyph unicode="F" horiz-adv-x="739" d="M82 0v1200h569v-258h-278v-147h354v-258h-354v-537h-291z" />
<glyph unicode="G" horiz-adv-x="1161" d="M33 600q0 128 44.5 241t125.5 197.5t203.5 133.5t271.5 49q70 0 149 -21v-258q-57 21 -139 21q-155 0 -259.5 -105.5t-104.5 -257.5q0 -149 99 -252.5t247 -103.5q70 0 135 14v539h291v-711q-69 -44 -191.5 -75t-228.5 -31q-143 0 -264 49t-203.5 133t-129 197t-46.5 241 z" />
<glyph unicode="H" horiz-adv-x="1097" d="M82 0v1200h291v-1200h-291zM457 586v258h268v356h291v-1200h-291v586h-268z" />
<glyph unicode="I" horiz-adv-x="454" d="M82 0v1200h291v-1200h-291z" />
<glyph unicode="J" horiz-adv-x="641" d="M0 0q30 -20 100 -20t119 57t49 137v1026h291v-1073q0 -197 -112.5 -301.5t-301.5 -104.5q-107 0 -145 19v260z" />
<glyph unicode="K" horiz-adv-x="1036" d="M82 0v1200h291v-1200h-291zM446 586v237l181 377h303l-225 -377h65q86 0 145.5 -53.5t59.5 -136.5v-633h-291v506q0 37 -25 58.5t-63 21.5h-150z" />
<glyph unicode="L" horiz-adv-x="739" d="M82 0v1200h291v-942h354v-258h-645z" />
<glyph unicode="M" horiz-adv-x="1423" d="M41 0l98 1200h279l299 -532h2l276 532h279l108 -1200h-290l-62 782l-301 -546h-33l-301 546l-63 -782h-291z" />
<glyph unicode="N" horiz-adv-x="1153" d="M82 0v1200h291l407 -407v407h291v-1200h-291v449l-407 407v-856h-291z" />
<glyph unicode="O" horiz-adv-x="1363" d="M33 600q0 127 49.5 241t135 198t207 133t257.5 49t257.5 -49t207 -133t135 -198t49.5 -241q0 -169 -84 -311t-233.5 -225.5t-331.5 -83.5t-331.5 83.5t-233.5 225.5t-84 311zM324 600q0 -152 102.5 -257t255.5 -105t255.5 105t102.5 257t-102.5 257.5t-255.5 105.5 t-255.5 -105.5t-102.5 -257.5z" />
<glyph unicode="P" horiz-adv-x="954" d="M82 0v1180q42 17 151.5 29t215.5 12q75 0 143 -13.5t128.5 -43.5t105 -72.5t70.5 -104.5t26 -137q0 -165 -101.5 -260.5t-275.5 -95.5q-14 0 -96 8v237h67q49 0 82 30.5t33 80.5q0 51 -40 82t-99 31q-64 0 -119 -19v-944h-291z" />
<glyph unicode="Q" horiz-adv-x="1384" d="M33 600q0 127 49.5 241t135 198t207 133t257.5 49t257.5 -49t207 -133t135 -198t49.5 -241q0 -196 -114 -354h106v-246h-475q-88 -20 -166 -20q-182 0 -331.5 83.5t-233.5 225.5t-84 311zM324 600q0 -152 102.5 -257t255.5 -105t255.5 105t102.5 257t-102.5 257.5 t-255.5 105.5t-255.5 -105.5t-102.5 -257.5z" />
<glyph unicode="R" horiz-adv-x="1026" d="M82 0v1180q62 16 177 28.5t204 12.5q159 0 276 -82t117 -197q0 -114 -96 -192q74 -22 139.5 -99t65.5 -149v-502h-291v416q0 76 -44 130t-106 54h-78v229q49 0 84 21.5t35 52.5q0 32 -30 52t-72 20q-29 0 -55 -7t-35 -16v-952h-291z" />
<glyph unicode="S" horiz-adv-x="784" d="M33 0v248q68 -23 205 -23q49 0 90.5 8t77.5 26.5t56.5 53t20.5 82.5q0 43 -16.5 77.5t-43.5 57t-61.5 45.5t-71 42t-71 47t-61.5 59.5t-43.5 80.5t-16.5 109q0 140 103 224t254 84q101 0 145 -21v-244q-10 1 -33.5 3t-44 3t-37.5 1q-44 0 -76 -20.5t-32 -49.5 q0 -27 21 -54t55 -52t75 -53.5t82.5 -63.5t75.5 -75t55 -95.5t21 -121.5q0 -192 -133 -294q-134 -104 -346 -104q-205 0 -250 20z" />
<glyph unicode="T" horiz-adv-x="847" d="M20 942v258h807v-258h-258v-942h-290v942h-259z" />
<glyph unicode="U" horiz-adv-x="1064" d="M70 385v815h290v-805q0 -71 48.5 -120.5t117.5 -49.5q74 0 126.5 50t52.5 120v805h290v-815q0 -115 -64.5 -208.5t-172 -145t-232.5 -51.5q-122 0 -226.5 53.5t-167 147t-62.5 204.5z" />
<glyph unicode="V" horiz-adv-x="1189" d="M0 1200h332l262 -899l264 899h332l-449 -1200h-295z" />
<glyph unicode="W" horiz-adv-x="1648" d="M12 1200h332l193 -835l280 655h23l272 -655l193 835h331l-376 -1200h-279l-154 418h-10l-149 -418h-279z" />
<glyph unicode="X" horiz-adv-x="1257" d="M0 0l457 662l-375 538h332l209 -334l208 334h332l-375 -538l469 -662h-352l-282 438l-271 -438h-352z" />
<glyph unicode="Y" horiz-adv-x="1048" d="M0 1200h332l192 -338l193 338h332l-383 -567v-633h-291v643z" />
<glyph unicode="Z" horiz-adv-x="886" d="M41 0v276l440 666h-354v258h653v-268l-428 -674h494v-258h-805z" />
<glyph unicode="[" horiz-adv-x="591" d="M82 -258v1683h448v-258h-170v-1167h170v-258h-448z" />
<glyph unicode="\" horiz-adv-x="530" d="M41 1425h278l170 -1683h-278z" />
<glyph unicode="]" horiz-adv-x="591" d="M80 0h170v1167h-170v258h448v-1683h-448v258z" />
<glyph unicode="^" horiz-adv-x="792" d="M41 373l219 569h279l213 -569h-260l-93 268l-96 -268h-262z" />
<glyph unicode="_" horiz-adv-x="983" d="M0 -258h983v-213h-983v213z" />
<glyph unicode="`" d="M82 1161q0 32 12 56l105 229h116l-71 -152q78 0 120 -37.5t42 -95.5t-42.5 -95.5t-119.5 -37.5q-72 0 -117 38t-45 95z" />
<glyph unicode="a" horiz-adv-x="956" d="M23 315q0 137 100.5 234.5t241.5 97.5q146 0 194 -20v-217q-107 20 -137 20q-59 0 -100 -31t-41 -75q0 -50 41.5 -84.5t101.5 -34.5q50 0 111.5 10t97.5 23v399q0 42 -43 71t-107 29q-68 0 -132.5 -8t-90.5 -20v213q57 17 131.5 29t124.5 12q102 0 177.5 -26t117 -72 t61 -100t19.5 -118v-581q-77 -35 -222 -60.5t-259 -25.5q-162 0 -276 98q-111 95 -111 230v7z" />
<glyph unicode="b" horiz-adv-x="1044" d="M66 66v1359h258v-1200q52 -20 147 -20q112 0 191 78.5t79 187.5q0 134 -58.5 204t-158.5 70q-59 0 -127 -22v209q7 2 40 10.5t45.5 11t35.5 6t41 3.5q188 0 320.5 -143t132.5 -349q0 -131 -77 -244t-209.5 -180t-287.5 -67q-204 0 -372 86z" />
<glyph unicode="c" horiz-adv-x="827" d="M33 477q0 133 67.5 245t183 176.5t251.5 64.5q107 0 174 -29v-223q-70 34 -158 34q-103 0 -175.5 -75.5t-72.5 -182.5q0 -117 89.5 -199.5t215.5 -82.5q48 0 109 12.5t98 30.5v-236q-28 -13 -108 -22.5t-168 -9.5q-137 0 -253.5 66.5t-184.5 181t-68 249.5z" />
<glyph unicode="d" horiz-adv-x="1032" d="M33 498q0 126 57 233t155 169.5t214 62.5q114 0 176 -21v-211q-68 14 -107 14q-108 -2 -172.5 -65.5t-64.5 -179.5q-1 -140 79 -218q78 -76 189 -75h6q73 0 144 41v1177h258v-1359q-182 -84 -365 -84h-17q-81 0 -157 17q-84 19 -156 60.5t-125 102t-83.5 147t-30.5 189.5 z" />
<glyph unicode="e" horiz-adv-x="1052" d="M104 729q69 108 188 171t259 63q131 0 241.5 -57t175 -155t64.5 -214v-107h-659q-6 21 -6 55q0 40 19 88t46 74h311q-13 41 -72 69.5t-128 28.5q-103 0 -176.5 -76.5t-73.5 -183.5q0 -111 75.5 -195.5t180.5 -84.5q109 0 235 41v-246q-114 -20 -231 -20q-142 0 -261 68 q-120 70 -189 188q-68 117 -68 254q0 131 69 239z" />
<glyph unicode="f" horiz-adv-x="624" d="M66 0v1073q0 146 98.5 249t238.5 103h123v-225h-100q-37 0 -69.5 -27t-32.5 -63v-168h288v-225h-288v-717h-258z" />
<glyph unicode="g" horiz-adv-x="933" d="M33 573q0 161 125.5 275.5t300.5 114.5q87 0 166 -31q20 34 61.5 56t85.5 22h105v-226h-62q70 -99 70 -211q0 -161 -125.5 -275t-300.5 -114t-300.5 114t-125.5 275zM94 -121l80 305q44 -27 127 -44t158 -17q198 0 308 -81.5t110 -231.5q0 -145 -104 -223.5t-269 -78.5 q-61 0 -154 21v215q72 -10 131 -10q54 0 90.5 20.5t36.5 52.5q0 41 -57 70t-135 29q-81 0 -176.5 -8.5t-145.5 -18.5zM291 575q0 -72 49.5 -123t118.5 -51t118.5 51t49.5 123q0 70 -49.5 120t-118.5 50q-71 0 -119.5 -49.5t-48.5 -120.5z" />
<glyph unicode="h" horiz-adv-x="960" d="M66 0v1425h258v-501q53 15 123 27t98 12q149 0 253.5 -83t104.5 -200v-680h-258v600q-1 61 -48 104.5t-112 43.5q-109 -8 -161 -50v-698h-258z" />
<glyph unicode="i" horiz-adv-x="405" d="M57 1325q0 52 38.5 86.5t107.5 34.5q64 0 104.5 -35t40.5 -86t-40.5 -88t-104.5 -37q-70 0 -108 36t-38 89zM74 0v942h258v-942h-258z" />
<glyph unicode="j" horiz-adv-x="405" d="M-129 -258q32 -8 92 -8q45 0 78 39t33 90v1079h258v-1141q0 -122 -103 -207.5t-249 -85.5q-81 0 -109 21v213zM57 1325q0 52 38.5 86.5t107.5 34.5q64 0 104.5 -35t40.5 -86t-40.5 -88t-104.5 -37q-70 0 -108 36t-38 89z" />
<glyph unicode="k" horiz-adv-x="960" d="M66 0v1425h258v-1425h-258zM387 494v225l162 223h311l-205 -235q103 -13 175.5 -87t72.5 -165v-455h-258v391q0 43 -29.5 73t-72.5 30h-156z" />
<glyph unicode="l" horiz-adv-x="389" d="M66 0v1425h258v-1425h-258z" />
<glyph unicode="m" horiz-adv-x="1486" d="M66 0v856q80 46 210.5 76.5t237.5 30.5q62 0 133 -21.5t121 -69.5q54 29 88.5 45t86.5 31t99 15q78 0 146 -19t123 -57t87 -102t32 -146v-639h-259v639q0 39 -40.5 68.5t-98.5 29.5q-46 0 -92.5 -9.5t-62.5 -20.5v-707h-259v664q0 30 -32 51.5t-82 21.5t-102.5 -12.5 t-77.5 -28.5v-696h-258z" />
<glyph unicode="n" horiz-adv-x="970" d="M66 0v856q70 44 212 75.5t263 31.5q154 0 263 -100.5t109 -241.5v-621h-258v621q0 46 -40.5 81t-98.5 35q-48 0 -112.5 -10t-79.5 -20v-707h-258z" />
<glyph unicode="o" horiz-adv-x="1118" d="M33 471q0 100 41.5 190.5t112 157t168 105.5t204.5 39t204.5 -39t168 -105.5t112 -157t41.5 -190.5q0 -133 -70.5 -246t-191.5 -179t-264 -66t-264 66t-191.5 179t-70.5 246zM303 471q0 -111 73.5 -188.5t182.5 -77.5t182.5 77.5t73.5 188.5t-73.5 188.5t-182.5 77.5 t-182.5 -77.5t-73.5 -188.5z" />
<glyph unicode="p" horiz-adv-x="1054" d="M66 -471v1372q76 26 206 44t238 18q139 0 257 -66t186.5 -179.5t68.5 -246.5q0 -201 -125 -346t-293 -145q-84 0 -207 20v229q45 -24 119 -24q99 0 167.5 75t68.5 191q0 115 -76 195q-75 79 -179 79h-5q-37 0 -85.5 -10.5t-82.5 -25.5v-1180h-258z" />
<glyph unicode="q" horiz-adv-x="1054" d="M33 471q0 133 68.5 246.5t186.5 179.5t257 66q140 0 270 -18t174 -44v-1372h-258v1180q-34 15 -82.5 25.5t-85.5 10.5q-107 0 -183.5 -80t-76.5 -194q0 -116 68.5 -191t167.5 -75q57 0 118 26v-231q-123 -20 -206 -20q-168 0 -293 145t-125 346z" />
<glyph unicode="r" horiz-adv-x="550" d="M66 0v856q47 33 86.5 52.5t122 37t190.5 17.5h74v-226h-58q-45 0 -91 -12.5t-66 -30.5v-694h-258z" />
<glyph unicode="s" horiz-adv-x="716" d="M12 14v222q99 -31 203 -31q96 0 159.5 23t63.5 63q0 39 -20.5 68t-53 47.5t-72 36t-79 38.5t-72 48t-53 72.5t-20.5 105.5q0 109 95.5 182.5t217.5 73.5q102 0 184 -21v-219q-72 22 -147 22q-105 0 -105 -55q0 -20 21 -34.5t55 -26.5t74.5 -26t81.5 -37.5t75 -55.5 t55 -87t21 -126q0 -132 -126.5 -224.5t-305.5 -92.5q-79 0 -153 10t-99 24z" />
<glyph unicode="t" horiz-adv-x="604" d="M66 311v824h258v-193h268v-225h-268v-418q0 -38 31.5 -66t74.5 -28h96v-205q-58 -20 -145 -20q-130 0 -222.5 97t-92.5 234z" />
<glyph unicode="u" horiz-adv-x="960" d="M57 319v623h258v-608q0 -61 46 -95t116 -34q37 0 83.5 11.5t76.5 29.5v696h258v-858q-91 -43 -227 -73.5t-236 -30.5q-161 0 -268 98.5t-107 240.5z" />
<glyph unicode="v" horiz-adv-x="892" d="M0 942h270l176 -645l177 645h270l-320 -942h-254z" />
<glyph unicode="w" horiz-adv-x="1388" d="M8 942h271l155 -666l250 666h21l249 -666l156 666h270l-303 -942h-233l-150 397l-149 -397h-234z" />
<glyph unicode="x" horiz-adv-x="954" d="M0 0l330 492l-301 450h286l162 -287l162 287h287l-301 -450l329 -492h-290l-187 291l-186 -291h-291z" />
<glyph unicode="y" horiz-adv-x="948" d="M57 283v659h258v-608q0 -51 48.5 -90t115.5 -39q76 5 146 41v696h258v-1051q0 -180 -105 -281.5t-266 -101.5q-83 0 -123 21v229q57 -24 133 -24q43 0 73 30.5t30 73.5v174q-82 -32 -168 -32q-166 0 -283 88.5t-117 214.5z" />
<glyph unicode="z" horiz-adv-x="800" d="M41 0v225l332 492h-236v225h547v-203l-354 -514h430v-225h-719z" />
<glyph unicode="{" horiz-adv-x="710" d="M41 471v258h98q35 0 56.5 23t21.5 53v416q0 77 54.5 140.5t129.5 63.5h269v-258h-88q-35 0 -60.5 -25.5t-25.5 -60.5v-290q0 -76 -51.5 -136t-125.5 -69q75 -10 126 -69.5t51 -133.5v-297q0 -30 28 -58t58 -28h88v-258h-271q-75 0 -128.5 59.5t-53.5 143.5v442 q0 35 -23 59.5t-55 24.5h-98z" />
<glyph unicode="|" horiz-adv-x="395" d="M74 -258v1683h248v-1683h-248z" />
<glyph unicode="}" horiz-adv-x="710" d="M41 0h88q30 0 58 28t28 58v297q0 74 51 133.5t125 69.5q-74 9 -125 69t-51 136v290q0 35 -25.5 60.5t-60.5 25.5h-88v258h268q75 0 130 -63.5t55 -140.5v-416q0 -30 21 -53t56 -23h99v-258h-99q-32 0 -54.5 -24.5t-22.5 -59.5v-442q0 -84 -54 -143.5t-129 -59.5h-270v258 z" />
<glyph unicode="~" horiz-adv-x="747" d="M82 406v299q58 20 127 20q52 0 110 -29.5t112 -58.5t97 -29q79 0 138 74v-299q-43 -21 -127 -21q-41 0 -87 18.5t-79.5 40t-76.5 40t-79 18.5q-79 0 -135 -73z" />
<glyph unicode="&#xa4;" horiz-adv-x="1118" d="M80 139l127 127q-60 96 -60 205t60 205l-127 127l160 160l135 -136q84 41 184 41q101 0 180 -39l133 134l160 -160l-125 -125q64 -100 64 -207q0 -109 -60 -205l121 -127l-160 -159l-127 133l9 8q-86 -47 -195 -47q-103 0 -186 39l-133 -133zM373 471q0 -80 54 -136 t132 -56t132 56t54 136t-54 136.5t-132 56.5t-132 -56.5t-54 -136.5z" />
<glyph unicode="&#xa6;" horiz-adv-x="395" d="M74 -258v786h248v-786h-248zM74 733v692h248v-692h-248z" />
<glyph unicode="&#xa7;" horiz-adv-x="899" d="M82 674q0 103 56.5 173t150.5 99q-72 90 -72 211q0 134 93.5 211.5t230.5 77.5q38 0 137 -21v-227q-64 23 -152 23q-25 0 -44 -22t-19 -52q0 -32 19.5 -60.5t50.5 -52.5t69 -50.5t76 -61t69 -76.5t50.5 -105t19.5 -139q0 -92 -46 -170.5t-126 -130.5q37 -79 37 -182 q0 -92 -63.5 -180t-165.5 -142.5t-209 -54.5q-44 0 -74 20v218q29 -8 74 -13q75 0 127.5 46t52.5 112q0 50 -19 91t-49 70t-66.5 56t-73 57.5t-66.5 65.5t-49 88.5t-19 120.5zM328 664q0 -15 4.5 -30t16.5 -30.5t21.5 -27t30.5 -28t32 -25t36.5 -27t34.5 -25.5q23 15 39 55 t16 82q0 25 -40 73.5t-97 94.5q-31 -3 -62.5 -40t-31.5 -72z" />
<glyph unicode="&#xa9;" horiz-adv-x="1323" d="M41 600q0 168 83.5 311t226.5 226.5t311 83.5t311 -83.5t226 -226.5t83 -311q0 -126 -49 -241t-132 -198t-198 -132t-241 -49q-168 0 -311 83t-226.5 226t-83.5 311zM160 600q0 -136 67.5 -251.5t183 -183t251.5 -67.5t251.5 67.5t182.5 183t67 251.5t-67 251.5 t-182.5 183t-251.5 67.5t-251.5 -67.5t-183 -183t-67.5 -251.5zM338 600q0 153 116 263t275 110q56 0 84 -12v-156q-18 12 -84 12q-91 0 -153 -63t-62 -154q0 -87 62.5 -149t152.5 -62q100 0 131 17v-166q-39 -13 -131 -13q-160 0 -275.5 108t-115.5 265z" />
<glyph unicode="&#xab;" horiz-adv-x="1028" d="M41 444v54l233 444h285l-250 -467l250 -475h-280zM469 444v54l233 444h285l-250 -467l250 -475h-280z" />
<glyph unicode="&#xac;" horiz-adv-x="1064" d="M41 471v217h983v-448h-229v231h-754z" />
<glyph unicode="&#xad;" horiz-adv-x="495" d="M61 471v217h373v-217h-373z" />
<glyph unicode="&#xae;" horiz-adv-x="1323" d="M41 600q0 168 83.5 311t226.5 226.5t311 83.5t311 -83.5t226 -226.5t83 -311q0 -126 -49 -241t-132 -198t-198 -132t-241 -49q-168 0 -311 83t-226.5 226t-83.5 311zM160 600q0 -136 67.5 -251.5t183 -183t251.5 -67.5t251.5 67.5t182.5 183t67 251.5t-67 251.5 t-182.5 183t-251.5 67.5t-251.5 -67.5t-183 -183t-67.5 -251.5zM424 240v708q37 9 106 17t123 8q94 0 165 -50t71 -118t-58 -115q44 -14 83.5 -60t39.5 -89v-301l-176 2v247q0 46 -25.5 78.5t-62.5 32.5h-47v137q31 0 51.5 13t20.5 32t-18.5 31t-43.5 12q-43 0 -55 -14v-571 h-174z" />
<glyph unicode="&#xb0;" horiz-adv-x="663" d="M41 950q0 112 85.5 191.5t205.5 79.5t205.5 -79.5t85.5 -191.5t-85.5 -191t-205.5 -79t-205.5 79t-85.5 191zM184 950q0 -61 43 -104t105 -43t104.5 42.5t42.5 104.5t-43 105t-104 43q-62 0 -105 -43t-43 -105z" />
<glyph unicode="&#xb1;" horiz-adv-x="978" d="M82 0v240h278v166h-278v258h278v278h258v-278h279v-258h-279v-166h279v-240h-815z" />
<glyph unicode="&#xb5;" horiz-adv-x="972" d="M-137 -258q32 -8 92 -8q45 0 78 39t33 90v1079h258v-623q0 -47 47 -80.5t114 -33.5q37 0 83.5 11.5t76.5 29.5v696h258v-858q-91 -43 -227 -73.5t-236 -30.5q-64 0 -116 14v-193q0 -121 -103.5 -207t-249.5 -86q-80 0 -108 21v213z" />
<glyph unicode="&#xb6;" horiz-adv-x="663" d="M41 918q0 126 88.5 214.5t214.5 88.5q63 0 145 -15t134 -37v-1640h-279v1071q-126 0 -214.5 93t-88.5 225z" />
<glyph unicode="&#xb7;" d="M82 469q0 58 42.5 95.5t119.5 37.5q72 0 117 -38t45 -95t-45 -95t-117 -38q-78 0 -120 37.5t-42 95.5z" />
<glyph unicode="&#xbb;" horiz-adv-x="1028" d="M41 0l250 475l-250 467h285l233 -444v-54l-237 -444h-281zM469 0l250 475l-250 467h285l233 -444v-54l-237 -444h-281z" />
<glyph unicode="&#x401;" horiz-adv-x="823" d="M82 0v1200h653v-258h-362v-98h276v-258h-276v-328h438v-258h-729zM82 1374q0 52 38 86.5t107 34.5q65 0 105.5 -35t40.5 -86t-41 -88t-105 -37q-70 0 -107.5 36t-37.5 89zM446 1374q0 52 38.5 86.5t107.5 34.5q64 0 104.5 -35t40.5 -86t-40.5 -88t-104.5 -37 q-70 0 -108 36t-38 89z" />
<glyph unicode="&#x404;" horiz-adv-x="563" d="M41 864q0 75 56 129t134 54q76 0 109 -11v-118q-68 10 -78 10q-32 0 -55 -17.5t-23 -42.5q0 -26 23 -45.5t55 -19.5q56 0 117 18v219q0 24 -23.5 41t-58.5 17q-83 0 -125 -17v117q71 23 141 23q109 0 159 -50t50 -124v-320q-43 -19 -123 -33t-143 -14q-89 0 -152 54 t-63 130zM49 471v123h473v-123h-473z" />
<glyph unicode="&#x405;" horiz-adv-x="1452" d="M82 0l815 1200h238l-813 -1200h-240zM84 1044v156h225v-721h-166v565h-59zM895 565v137q95 31 166 31q128 0 218.5 -73t90.5 -173q0 -62 -26.5 -122.5t-67.5 -96.5l-133 -121h182v-147h-405v156l235 204q21 17 35 51t14 64q0 43 -45.5 73t-109.5 30q-104 0 -154 -13z" />
<glyph unicode="&#x406;" horiz-adv-x="557" d="M41 1053v137q95 31 166 31q128 0 218.5 -73t90.5 -173q0 -62 -26.5 -122.5t-67.5 -96.5l-133 -121h182v-148h-405v156l235 205q21 17 35 51t14 64q0 43 -45 72.5t-110 29.5q-107 0 -154 -12z" />
<glyph unicode="&#x408;" horiz-adv-x="1099" d="M61 616v226h215v80q0 117 80 208t189 91h278v-246h-198q-32 0 -56 -31.5t-24 -64.5v-37h278v-226h-278v-278q0 -46 -33 -92h526v-246h-966v246h129q31 15 53 44.5t22 57.5v268h-215z" />
<glyph unicode="&#x40e;" d="M82 829q0 58 42.5 96t119.5 38q72 0 117 -38.5t45 -95.5t-45 -95t-117 -38q-78 0 -120 37.5t-42 95.5zM92 -258l35 858h238l30 -858h-303z" />
<glyph unicode="&#x410;" horiz-adv-x="1204" d="M0 0l442 1200h301l461 -1200h-291l-133 385h-286l84 258h112l-84 295h-4l-311 -938h-291z" />
<glyph unicode="&#x411;" horiz-adv-x="989" d="M82 41v1159h760v-258h-469v-666q52 -18 119 -18q72 0 123 43.5t51 104.5q0 60 -44.5 102.5t-107.5 42.5h-68v237q92 9 97 9q170 0 291.5 -115t121.5 -276q0 -110 -72 -204.5t-188.5 -148t-246.5 -53.5q-106 0 -215.5 12t-151.5 29z" />
<glyph unicode="&#x412;" horiz-adv-x="1026" d="M82 0v1180q39 17 144 29t208 12q84 0 149.5 -13t118.5 -43t81 -84t28 -131q0 -125 -86 -188q130 -25 199 -117t69 -237q0 -192 -116 -310t-310 -118q-79 0 -121 20v268q38 -6 76 -6q84 0 132 42t48 126q0 48 -18.5 80.5t-55 48.5t-79.5 22t-103 5v245q35 0 60.5 22.5 t25.5 51.5q0 25 -22.5 41.5t-54.5 16.5q-52 0 -82 -9v-954h-291z" />
<glyph unicode="&#x413;" horiz-adv-x="663" d="M82 0v1200h569v-258h-278v-942h-291z" />
<glyph unicode="&#x414;" horiz-adv-x="1163" d="M33 0v258h86v424q0 109 46 209t123 172t182 115t218 43q72 0 180.5 -12t175.5 -29v-848h-290v610h-68q-110 0 -193 -86.5t-83 -206.5v-391h720v-258h-1097z" />
<glyph unicode="&#x415;" horiz-adv-x="823" d="M82 0v1200h653v-258h-362v-98h276v-258h-276v-328h438v-258h-729z" />
<glyph unicode="&#x416;" horiz-adv-x="1470" d="M61 0v586q0 89 64 163t154 74l-218 377h301l175 -377h53v377h291v-377h53l172 377h303l-217 -377q89 0 153 -76.5t64 -160.5v-586h-291v471q0 47 -25.5 81t-62.5 34h-149v-586h-291v586h-150q-37 0 -62.5 -34t-25.5 -81v-471h-291z" />
<glyph unicode="&#x417;" horiz-adv-x="858" d="M12 27v258q28 -22 79 -33t91 -12.5t117 -1.5q100 0 169 50.5t69 127.5q0 75 -74 122.5t-182 47.5h-131v245h126q109 0 109 70q0 29 -42.5 45.5t-100.5 16.5q-91 0 -166 -21v250q114 29 180 29q173 0 296.5 -82t123.5 -197q0 -66 -27 -125t-65 -78q107 -37 169 -131.5 t62 -226.5q1 -109 -69 -201t-191.5 -146t-265.5 -54q-120 0 -277 47z" />
<glyph unicode="&#x418;" horiz-adv-x="1153" d="M80 0v1200h291v-407l407 407h291v-1200h-291v856l-407 -407v-449h-291z" />
<glyph unicode="&#x419;" horiz-adv-x="1153" d="M80 0v1200h291v-407l407 407h291v-1200h-291v856l-407 -407v-449h-291zM205 1495h229q0 -37 37.5 -63.5t89.5 -26.5q54 0 91.5 26.5t37.5 63.5h230q0 -122 -105 -208.5t-254 -86.5q-147 0 -251.5 86.5t-104.5 208.5z" />
<glyph unicode="&#x41a;" horiz-adv-x="1036" d="M82 0v1200h291v-1200h-291zM446 586v237l181 377h303l-225 -377h65q86 0 145.5 -53.5t59.5 -136.5v-633h-291v506q0 37 -25 58.5t-63 21.5h-150z" />
<glyph unicode="&#x41b;" horiz-adv-x="1189" d="M0 0l449 1200h294l447 -1200h-332l-262 899l-264 -899h-332z" />
<glyph unicode="&#x41c;" horiz-adv-x="1423" d="M41 0l98 1200h279l299 -532h2l276 532h279l108 -1200h-290l-62 782l-301 -546h-33l-301 546l-63 -782h-291z" />
<glyph unicode="&#x41d;" horiz-adv-x="1097" d="M82 0v1200h291v-1200h-291zM457 586v258h268v356h291v-1200h-291v586h-268z" />
<glyph unicode="&#x41e;" horiz-adv-x="1363" d="M33 600q0 127 49.5 241t135 198t207 133t257.5 49t257.5 -49t207 -133t135 -198t49.5 -241q0 -169 -84 -311t-233.5 -225.5t-331.5 -83.5t-331.5 83.5t-233.5 225.5t-84 311zM324 600q0 -152 102.5 -257t255.5 -105t255.5 105t102.5 257t-102.5 257.5t-255.5 105.5 t-255.5 -105.5t-102.5 -257.5z" />
<glyph unicode="&#x41f;" horiz-adv-x="1097" d="M82 0v1200h934v-1200h-291v942h-352v-942h-291z" />
<glyph unicode="&#x420;" horiz-adv-x="954" d="M82 0v1180q42 17 151.5 29t215.5 12q75 0 143 -13.5t128.5 -43.5t105 -72.5t70.5 -104.5t26 -137q0 -165 -101.5 -260.5t-275.5 -95.5q-14 0 -96 8v237h67q49 0 82 30.5t33 80.5q0 51 -40 82t-99 31q-64 0 -119 -19v-944h-291z" />
<glyph unicode="&#x421;" horiz-adv-x="915" d="M33 600q0 126 53 241t141 198t208 132.5t249 49.5q101 0 141 -21v-258q-35 21 -141 21q-149 0 -254.5 -106t-105.5 -257q0 -145 105.5 -247.5t254.5 -102.5q166 0 219 24v-274q-48 -20 -219 -20q-173 0 -322.5 81t-239 224.5t-89.5 314.5z" />
<glyph unicode="&#x422;" horiz-adv-x="847" d="M20 942v258h807v-258h-258v-942h-290v942h-259z" />
<glyph unicode="&#x423;" horiz-adv-x="1060" d="M12 1200h332l211 -434l174 434h332l-559 -1200h-312l224 496z" />
<glyph unicode="&#x424;" horiz-adv-x="1454" d="M33 616q0 130 63.5 240t173 174t238.5 64h74v106h290v-106h74q129 0 238.5 -64t173 -174t63.5 -240q0 -94 -37.5 -180t-101.5 -148t-151.5 -99t-184.5 -37v245q76 0 130 64t54 155t-64 155.5t-155 64.5h-39v-836h-290v836h-39q-81 0 -150 -66t-69 -154q0 -91 54 -155 t130 -64v-245q-97 0 -184.5 37t-151.5 99t-101.5 148t-37.5 180z" />
<glyph unicode="&#x425;" horiz-adv-x="1257" d="M0 0l457 662l-375 538h332l209 -334l208 334h332l-375 -538l469 -662h-352l-282 438l-271 -438h-352z" />
<glyph unicode="&#x426;" horiz-adv-x="1126" d="M82 0v1200h291v-942h741v-258h-1032zM725 332v868h291v-868h-291z" />
<glyph unicode="&#x427;" horiz-adv-x="1064" d="M41 942v258h291v-217q0 -104 75 -179t179 -75h32v-258h-75q-136 0 -251.5 63t-183 171.5t-67.5 236.5zM692 0v1200h291v-1200h-291z" />
<glyph unicode="&#x428;" horiz-adv-x="1691" d="M82 0v1200h291v-942h913v942h291v-1200h-1495zM684 332v868h291v-868h-291z" />
<glyph unicode="&#x429;" horiz-adv-x="1687" d="M82 0v1200h291v-942h1302v-258h-1593zM684 332v868h291v-868h-291zM1286 332v868h291v-868h-291z" />
<glyph unicode="&#x42a;" horiz-adv-x="1060" d="M12 975v225h455v-944q52 -18 119 -18q64 0 107.5 37.5t43.5 115.5q0 58 -37.5 98.5t-91.5 40.5h-67v238q82 8 96 8q161 0 276 -110t115 -265q0 -86 -27 -157.5t-73 -119.5t-109 -81t-132 -48t-144 -15q-107 0 -216 11.5t-151 28.5v955h-164z" />
<glyph unicode="&#x42b;" horiz-adv-x="1370" d="M82 20v1180h291v-944q52 -18 119 -18q64 0 107.5 37.5t43.5 115.5q0 58 -37.5 98.5t-91.5 40.5h-68v238q82 8 97 8q161 0 276 -110t115 -265q0 -86 -27 -157.5t-73 -119.5t-109 -81t-132 -48t-144 -15q-107 0 -216 11.5t-151 28.5zM997 0v1200h291v-1200h-291z" />
<glyph unicode="&#x42c;" horiz-adv-x="966" d="M82 20v1180h291v-944q52 -18 119 -18q64 0 107.5 37.5t43.5 115.5q0 58 -37.5 98.5t-91.5 40.5h-68v238q82 8 97 8q161 0 276 -110t115 -265q0 -86 -27 -157.5t-73 -119.5t-109 -81t-132 -48t-144 -15q-107 0 -216 11.5t-151 28.5z" />
<glyph unicode="&#x42d;" horiz-adv-x="944" d="M41 0v274q53 -24 219 -24q146 0 249 98t103 238h-571v258h485q-29 49 -107.5 84t-158.5 35q-106 0 -141 -21v258q40 21 141 21q129 0 249 -49.5t208 -132.5t141 -198t53 -241q0 -171 -89.5 -314.5t-239 -224.5t-322.5 -81q-171 0 -219 20z" />
<glyph unicode="&#x42e;" horiz-adv-x="1851" d="M82 0v1200h291v-356h125q-23 -51 -37.5 -126.5t-14.5 -131.5h-73v-586h-291zM520 600q0 127 49.5 241t135 198t207 133t257.5 49q182 0 331.5 -83.5t234 -226t84.5 -311.5t-84.5 -311t-234 -225.5t-331.5 -83.5t-331.5 83.5t-233.5 225.5t-84 311zM811 600 q0 -152 102.5 -257t255.5 -105t256 105t103 257t-103 257.5t-256 105.5t-255.5 -105.5t-102.5 -257.5z" />
<glyph unicode="&#x42f;" horiz-adv-x="1026" d="M61 0v502q0 72 65.5 149t139.5 99q-96 78 -96 192q0 115 117 197t276 82q89 0 204 -12.5t177 -28.5v-1180h-291v952q-9 9 -35 16t-55 7q-42 0 -72 -20t-30 -52q0 -31 35 -52.5t84 -21.5v-229h-78q-62 0 -106 -54t-44 -130v-416h-291z" />
<glyph unicode="&#x430;" horiz-adv-x="964" d="M35 315q0 137 100.5 234.5t241.5 97.5q146 0 194 -20v-217q-108 20 -137 20q-59 0 -100 -31t-41 -75q0 -50 41.5 -84.5t101.5 -34.5q50 0 111.5 10t97.5 23v399q0 42 -42.5 71t-106.5 29q-68 0 -133 -8t-91 -20v213q57 17 131.5 29t124.5 12q102 0 177.5 -26t117 -72 t61 -100t19.5 -118v-581q-77 -35 -222 -60.5t-259 -25.5q-163 0 -276.5 98t-110.5 237z" />
<glyph unicode="&#x431;" horiz-adv-x="1085" d="M61 471q0 132 64.5 244.5t179.5 180t252 67.5q110 0 204 -39.5t157.5 -106.5t99 -157t35.5 -189q0 -133 -60.5 -244.5t-175 -179t-260.5 -67.5q-137 0 -252 67t-179.5 179.5t-64.5 244.5zM61 1081q0 156 109 260.5t291 104.5q22 0 118.5 -10.5t137.5 -10.5q131 0 166 21 l49 -199q-24 -20 -64 -33.5t-73 -13.5q-25 0 -100 10.5t-103 10.5q-54 0 -93 -3t-75 -12t-58 -24t-34.5 -40t-12.5 -59q0 -67 35 -94q-8 -4 -35.5 -18.5t-36.5 -19.5t-31.5 -18.5t-34.5 -23t-30 -24.5t-33.5 -31.5t-31.5 -36.5q-20 58 -40 140.5t-20 123.5zM319 471 q0 -111 68 -188.5t170 -77.5q114 0 176 75t62 191t-62 191t-176 75q-102 0 -170 -77.5t-68 -188.5z" />
<glyph unicode="&#x432;" horiz-adv-x="923" d="M66 0v856q94 42 208 74.5t199 32.5q141 0 240.5 -77t99.5 -186q0 -60 -30 -113t-74 -79q75 -9 128.5 -69.5t53.5 -135.5q0 -151 -86 -237t-238 -86q-167 19 -170 20v225h138q40 0 69 23t29 55q0 28 -29 49t-69 21h-138v217h103q28 0 47.5 20.5t19.5 51.5q0 25 -20 46 t-51 21q-81 0 -172 -24v-705h-258z" />
<glyph unicode="&#x433;" horiz-adv-x="550" d="M66 0v942h473v-225h-215v-717h-258z" />
<glyph unicode="&#x434;" horiz-adv-x="987" d="M20 0v225h74v375q0 151 111 257t268 106q148 0 259 -32t161 -75v-557h-258v395q-27 18 -72 30.5t-82 12.5q-45 0 -87 -41t-42 -96v-375h615v-225h-947z" />
<glyph unicode="&#x435;" horiz-adv-x="1052" d="M35 494q0 127 69 235t188 171t259 63q131 0 241.5 -57t175 -155t64.5 -214v-107h-659q-6 21 -6 55q0 40 19 88t46 74h311q-13 41 -72 69.5t-128 28.5q-103 0 -176.5 -76.5t-73.5 -183.5q0 -111 75.5 -195.5t180.5 -84.5q109 0 235 41v-246q-114 -20 -231 -20 q-142 0 -261.5 68.5t-188.5 187t-68 258.5z" />
<glyph unicode="&#x436;" horiz-adv-x="1376" d="M41 0v391q0 90 75 164t175 88l-230 299h312l186 -287v287h258v-287l187 287h311l-228 -299q99 -14 173.5 -88t74.5 -164v-391h-258v328q0 43 -29.5 72.5t-72.5 29.5h-158v-430h-258v430h-156q-43 0 -73.5 -29.5t-30.5 -72.5v-328h-258z" />
<glyph unicode="&#x437;" horiz-adv-x="751" d="M41 18v232q70 -19 157 -32t140 -13q46 0 78.5 23t32.5 55q0 37 -30 63.5t-71 26.5h-221v217h149q47 0 81 18.5t34 44.5q0 38 -31 65t-75 27q-53 0 -117 -16t-102 -39v232q45 17 126.5 29t151.5 12q132 0 225 -85.5t93 -205.5q0 -104 -111 -180q69 -19 118.5 -83 t49.5 -135q0 -122 -107.5 -208t-259.5 -86q-233 0 -311 38z" />
<glyph unicode="&#x438;" horiz-adv-x="968" d="M66 0v942h258v-321l321 321h258v-942h-258v610l-321 -321v-289h-258z" />
<glyph unicode="&#x439;" horiz-adv-x="968" d="M66 0v942h258v-321l321 321h258v-942h-258v610l-321 -321v-289h-258zM127 1425h229q0 -47 37 -80.5t90 -33.5q54 0 91.5 33.5t37.5 80.5h230q0 -132 -105 -225.5t-254 -93.5q-148 0 -252 93.5t-104 225.5z" />
<glyph unicode="&#x43a;" horiz-adv-x="956" d="M66 0v942h258v-942h-258zM387 430v225l199 287h317l-248 -299q103 -13 175.5 -87t72.5 -165v-391h-258v328q0 43 -29.5 72.5t-72.5 29.5h-156z" />
<glyph unicode="&#x43b;" horiz-adv-x="892" d="M0 0l319 942h254l320 -942h-270l-177 645l-176 -645h-270z" />
<glyph unicode="&#x43c;" horiz-adv-x="1208" d="M41 0l90 942h258l215 -383l215 383h258l90 -942h-270l-53 575l-217 -393h-45l-217 393l-54 -575h-270z" />
<glyph unicode="&#x43d;" horiz-adv-x="968" d="M66 0v942h258v-287v-225v-430h-258zM389 430v225h256v287h258v-942h-258v430h-256z" />
<glyph unicode="&#x43e;" horiz-adv-x="1118" d="M33 471q0 100 41.5 190.5t112 157t168 105.5t204.5 39t204.5 -39t168 -105.5t112 -157t41.5 -190.5q0 -133 -70.5 -246t-191.5 -179t-264 -66t-264 66t-191.5 179t-70.5 246zM303 471q0 -111 73.5 -188.5t182.5 -77.5t182.5 77.5t73.5 188.5t-73.5 188.5t-182.5 77.5 t-182.5 -77.5t-73.5 -188.5z" />
<glyph unicode="&#x43f;" horiz-adv-x="978" d="M66 0v942h847v-942h-258v717h-331v-717h-258z" />
<glyph unicode="&#x440;" horiz-adv-x="1054" d="M66 -471v1372q76 26 206 44t238 18q139 0 257 -66t186.5 -179.5t68.5 -246.5q0 -201 -125 -346t-293 -145q-84 0 -207 20v229q45 -24 119 -24q99 0 167.5 75t68.5 191q0 115 -76.5 195.5t-183.5 78.5q-37 0 -85.5 -10.5t-82.5 -25.5v-1180h-258z" />
<glyph unicode="&#x441;" horiz-adv-x="827" d="M33 477q0 133 67.5 245t183 176.5t251.5 64.5q107 0 174 -29v-223q-70 34 -158 34q-103 0 -175.5 -75.5t-72.5 -182.5q0 -117 89.5 -199.5t215.5 -82.5q48 0 109 12.5t98 30.5v-236q-28 -13 -108 -22.5t-168 -9.5q-137 0 -253.5 66.5t-184.5 181t-68 249.5z" />
<glyph unicode="&#x442;" horiz-adv-x="712" d="M12 717v225h688v-225h-215v-717h-258v717h-215z" />
<glyph unicode="&#x443;" horiz-adv-x="956" d="M66 283v659h258v-608q0 -52 48 -90.5t115 -38.5q76 5 146 41v696h258v-1051q0 -180 -105 -281.5t-266 -101.5q-83 0 -123 21v229q57 -24 133 -24q43 0 73 30.5t30 73.5v174q-82 -32 -168 -32q-166 0 -282.5 88.5t-116.5 214.5z" />
<glyph unicode="&#x444;" horiz-adv-x="1556" d="M33 471q0 133 68.5 246.5t186.5 179.5t257 66h104v462h258v-462h105q139 0 257 -66t186.5 -179.5t68.5 -246.5q0 -201 -117.5 -346t-276.5 -145h-149v225h96q72 0 124 78t52 188q0 108 -76.5 187t-183.5 79h-86v-1208h-258v1208h-86q-107 0 -183.5 -79t-76.5 -187 q0 -110 52 -188t124 -78h96v-225h-149q-159 0 -276 145t-117 346z" />
<glyph unicode="&#x445;" horiz-adv-x="954" d="M0 0l330 492l-301 450h286l162 -287l162 287h287l-301 -450l329 -492h-290l-187 291l-186 -291h-291z" />
<glyph unicode="&#x446;" horiz-adv-x="1013" d="M66 0v942h258v-717h677v-225h-935zM645 299v643h258v-643h-258z" />
<glyph unicode="&#x447;" horiz-adv-x="956" d="M53 598v344h258v-264q1 -60 47.5 -98.5t112.5 -38.5h88v-226h-147q-149 0 -254 83t-105 200zM633 0v942h258v-942h-258z" />
<glyph unicode="&#x448;" horiz-adv-x="1495" d="M66 0v942h258v-717h847v717h259v-942h-1364zM618 299v643h259v-643h-259z" />
<glyph unicode="&#x449;" horiz-adv-x="1548" d="M66 0v942h258v-717h1204v-225h-1462zM618 299v643h259v-643h-259zM1171 299v643h259v-643h-259z" />
<glyph unicode="&#x44a;" horiz-adv-x="1019" d="M12 717v225h357v-717q52 -20 147 -20q83 0 142 47t59 113q0 69 -48 117t-116 48h-109v218h162q158 0 269.5 -110t111.5 -267q0 -161 -147.5 -276t-356.5 -115q-204 0 -372 86v651h-99z" />
<glyph unicode="&#x44b;" horiz-adv-x="1318" d="M66 66v659v217h258v-717q52 -20 147 -20q83 0 142 47t59 113q0 69 -48 117t-116 48h-109v218h162q158 0 269.5 -110t111.5 -267q0 -161 -147.5 -276t-356.5 -115q-204 0 -372 86zM995 0v942h258v-942h-258z" />
<glyph unicode="&#x44c;" horiz-adv-x="974" d="M66 66v876h258v-717q52 -20 147 -20q83 0 142 47t59 113q0 69 -48 117t-116 48h-109v218h162q158 0 269.5 -110t111.5 -267q0 -161 -147.5 -276t-356.5 -115q-204 0 -372 86z" />
<glyph unicode="&#x44d;" horiz-adv-x="829" d="M12 430v217h385q27 -26 46.5 -74t19.5 -88q0 -34 -6 -55h-445zM45 0v246q126 -41 236 -41q105 0 180.5 84.5t75.5 195.5q0 107 -73.5 183.5t-176.5 76.5q-52 0 -101.5 -10t-66.5 -24v223q63 29 160 29q140 0 259 -63t188 -171t69 -235q1 -140 -68 -258.5t-189 -187 t-262 -68.5q-117 0 -231 20z" />
<glyph unicode="&#x44e;" horiz-adv-x="1527" d="M66 0v942h258v-289h84q-29 -69 -29 -223h-55v-430h-258zM442 471q0 99 42 190t112.5 157.5t168 105.5t204.5 39t204.5 -39t168 -105.5t112 -157t41.5 -190.5q0 -133 -70.5 -246t-191.5 -179t-264 -66t-264.5 66t-192 179t-70.5 246zM713 471q0 -111 73.5 -188.5 t182.5 -77.5t182.5 77.5t73.5 188.5t-73.5 188.5t-182.5 77.5t-182.5 -77.5t-73.5 -188.5z" />
<glyph unicode="&#x44f;" horiz-adv-x="956" d="M53 0v244q0 81 50.5 153.5t121.5 94.5q-32 26 -63 82.5t-31 109.5q0 118 92 198.5t236 80.5q87 0 228.5 -12.5t203.5 -28.5v-922h-258v715q-19 22 -154 22q-37 0 -63.5 -21t-26.5 -50q0 -31 26 -49.5t64 -18.5h80v-225h-82q-62 0 -114 -65.5t-52 -149.5v-158h-258z" />
<glyph unicode="&#x451;" horiz-adv-x="1052" d="M35 494q0 127 69 235t188 171t259 63q131 0 241.5 -57t175 -155t64.5 -214v-107h-659q-6 21 -6 55q0 40 19 88t46 74h311q-13 41 -72 69.5t-128 28.5q-103 0 -176.5 -76.5t-73.5 -183.5q0 -111 75.5 -195.5t180.5 -84.5q109 0 235 41v-246q-114 -20 -231 -20 q-142 0 -261.5 68.5t-188.5 187t-68 258.5zM217 1325q0 52 38 86.5t107 34.5q65 0 105.5 -35t40.5 -86t-41 -88t-105 -37q-70 0 -107.5 36t-37.5 89zM594 1325q0 52 38 86.5t107 34.5q65 0 105.5 -35t40.5 -86t-41 -88t-105 -37q-70 0 -107.5 36t-37.5 89z" />
<glyph unicode="&#x453;" horiz-adv-x="632" d="M-129 -258q32 -8 92 -8q45 0 78 39t33 90v1210q0 146 99 249t239 103h123v-225h-101q-37 0 -69.5 -27t-32.5 -63v-168h289v-225h-289v-916q0 -122 -103 -207.5t-249 -85.5q-81 0 -109 21v213z" />
<glyph unicode="&#x454;" horiz-adv-x="663" d="M41 950q0 112 85.5 191.5t205.5 79.5t205.5 -79.5t85.5 -191.5t-85.5 -191t-205.5 -79t-205.5 79t-85.5 191zM70 471v123h524v-123h-524zM184 950q0 -61 43 -104t105 -43t104.5 42.5t42.5 104.5t-43 105t-104 43q-62 0 -105 -43t-43 -105z" />
<glyph unicode="&#x455;" horiz-adv-x="1533" d="M82 492v149q77 -18 147 -18q174 0 174 125q0 62 -71 105.5t-172 43.5v14l110 133h-157v156h366v-135l-76 -88q82 -22 128.5 -79.5t46.5 -147.5q0 -119 -99 -201t-256 -82q-26 0 -141 25zM258 0l815 1200h238l-813 -1200h-240zM897 156v166l147 282h168v117h168v-412h72 v-153h-72v-156h-168v156h-315zM1071 309h141v264z" />
<glyph unicode="&#x456;" horiz-adv-x="577" d="M41 492v149q77 -18 147 -18q174 0 174 125q0 62 -71 105.5t-172 43.5v14l110 133h-157v156h366v-135l-76 -88q82 -22 128.5 -79.5t46.5 -147.5q0 -119 -99 -201t-256 -82q-26 0 -141 25z" />
<glyph unicode="&#x457;" horiz-adv-x="737" d="M41 39q0 63 22.5 114.5t55.5 83t72.5 62.5t72.5 54.5t55.5 58.5t22.5 75v131h246q22 -46 22 -131q0 -64 -20 -118.5t-49.5 -88t-64.5 -64.5t-64.5 -51.5t-49.5 -44.5t-20 -48q0 -44 36 -68t93 -24q59 0 125 10t100 24v-233q-56 -26 -140 -43t-150 -17q-151 0 -258 93 t-107 225zM313 829q0 58 42.5 96t119.5 38q72 0 117 -38.5t45 -95.5t-45 -95t-117 -38q-78 0 -120 37.5t-42 95.5z" />
<glyph unicode="&#x458;" horiz-adv-x="1357" d="M82 0l815 1200h238l-813 -1200h-240zM84 1044v156h225v-721h-166v565h-59zM721 156v166l147 282h168v117h168v-412h72v-153h-72v-156h-168v156h-315zM895 309h141v264z" />
<glyph unicode="&#x45e;" horiz-adv-x="827" d="M33 477q0 165 100.5 292.5t259.5 172.5v127h234v-113q49 -9 82 -22v-223q-70 34 -158 34q-109 0 -184.5 -77t-75.5 -181q0 -144 86 -213t231 -69q48 0 109 12.5t98 30.5v-236q-53 -26 -188 -32v-107h-234v127q-158 46 -259 178t-101 299z" />
<glyph unicode="&#x490;" horiz-adv-x="1048" d="M0 1200h332l192 -338l193 338h332l-301 -452h208v-218h-290v-108h290v-217h-290v-205h-291v205h-291v217h291v108h-291v218h221z" />
<glyph unicode="&#x2000;" horiz-adv-x="747" />
<glyph unicode="&#x2001;" horiz-adv-x="1495" />
<glyph unicode="&#x2002;" horiz-adv-x="747" />
<glyph unicode="&#x2003;" horiz-adv-x="1495" />
<glyph unicode="&#x2004;" horiz-adv-x="498" />
<glyph unicode="&#x2005;" horiz-adv-x="373" />
<glyph unicode="&#x2006;" horiz-adv-x="249" />
<glyph unicode="&#x2007;" horiz-adv-x="249" />
<glyph unicode="&#x2008;" horiz-adv-x="186" />
<glyph unicode="&#x2009;" horiz-adv-x="299" />
<glyph unicode="&#x200a;" horiz-adv-x="83" />
<glyph unicode="&#x2010;" horiz-adv-x="495" d="M61 471v217h373v-217h-373z" />
<glyph unicode="&#x2011;" horiz-adv-x="495" d="M61 471v217h373v-217h-373z" />
<glyph unicode="&#x2012;" horiz-adv-x="495" d="M61 471v217h373v-217h-373z" />
<glyph unicode="&#x2013;" horiz-adv-x="1064" d="M41 471v217h983v-217h-983z" />
<glyph unicode="&#x2014;" horiz-adv-x="1421" d="M41 471v217h1339v-217h-1339z" />
<glyph unicode="&#x2018;" horiz-adv-x="405" d="M41 1161q0 32 12 56l105 229h116l-71 -152q78 0 120 -37.5t42 -95.5t-42.5 -95.5t-119.5 -37.5q-72 0 -117 38t-45 95z" />
<glyph unicode="&#x2019;" horiz-adv-x="405" d="M41 1313q0 58 42.5 95.5t119.5 37.5q72 0 117 -38t45 -95q0 -30 -13 -56l-104 -229h-117l72 152q-78 0 -120 37.5t-42 95.5z" />
<glyph unicode="&#x201a;" horiz-adv-x="405" d="M41 113q0 58 42.5 95.5t119.5 37.5q72 0 117 -38t45 -95q0 -30 -13 -56l-104 -229h-117l72 152q-78 0 -120 37.5t-42 95.5z" />
<glyph unicode="&#x201c;" horiz-adv-x="790" d="M41 1161q0 32 12 56l105 229h116l-71 -152q78 0 120 -37.5t42 -95.5t-42.5 -95.5t-119.5 -37.5q-72 0 -117 38t-45 95zM426 1161q0 32 12 56l105 229h116l-71 -152q78 0 120 -37.5t42 -95.5t-42.5 -95.5t-119.5 -37.5q-72 0 -117 38t-45 95z" />
<glyph unicode="&#x201d;" horiz-adv-x="790" d="M41 1313q0 58 42.5 95.5t119.5 37.5q72 0 117 -38t45 -95q0 -30 -13 -56l-104 -229h-117l72 152q-78 0 -120 37.5t-42 95.5zM426 1313q0 58 42.5 95.5t119.5 37.5q72 0 117 -38t45 -95q0 -30 -13 -56l-104 -229h-117l72 152q-78 0 -120 37.5t-42 95.5z" />
<glyph unicode="&#x201e;" horiz-adv-x="790" d="M41 113q0 58 42.5 95.5t119.5 37.5q72 0 117 -38t45 -95q0 -30 -13 -56l-104 -229h-117l72 152q-78 0 -120 37.5t-42 95.5zM426 113q0 58 42.5 95.5t119.5 37.5q72 0 117 -38t45 -95q0 -30 -13 -56l-104 -229h-117l72 152q-78 0 -120 37.5t-42 95.5z" />
<glyph unicode="&#x2020;" horiz-adv-x="886" d="M41 684v258h278v258h248v-258h279v-258h-279v-1155h-248v1155h-278z" />
<glyph unicode="&#x2021;" horiz-adv-x="886" d="M41 213v258h278v213h-278v258h278v258h248v-258h279v-258h-279v-213h279v-258h-279v-684h-248v684h-278z" />
<glyph unicode="&#x2022;" horiz-adv-x="552" d="M82 471q0 80 57.5 137.5t136.5 57.5q80 0 137.5 -58t57.5 -137t-57.5 -137t-137.5 -58q-79 0 -136.5 57.5t-57.5 137.5z" />
<glyph unicode="&#x2026;" horiz-adv-x="1306" d="M82 113q0 58 42.5 95.5t119.5 37.5q72 0 117 -38t45 -95t-45 -95t-117 -38q-78 0 -120 37.5t-42 95.5zM492 113q0 58 42 95.5t119 37.5q72 0 117 -38t45 -95t-45 -95t-117 -38q-78 0 -119.5 37t-41.5 96zM901 113q0 58 42.5 95.5t119.5 37.5q72 0 117 -38t45 -95t-45 -95 t-117 -38q-78 0 -120 37.5t-42 95.5z" />
<glyph unicode="&#x202f;" horiz-adv-x="299" />
<glyph unicode="&#x2030;" horiz-adv-x="2062" d="M41 926q0 122 92.5 208.5t222.5 86.5t223 -86.5t93 -208.5t-93 -208.5t-223 -86.5t-222.5 86.5t-92.5 208.5zM168 0l815 1200h238l-813 -1200h-240zM260 926q0 -40 28 -68.5t68 -28.5t68.5 28.5t28.5 68.5t-28.5 68t-68.5 28t-68 -28t-28 -68zM719 295q0 122 92.5 208.5 t222.5 86.5t223 -86.5t93 -208.5t-93 -208.5t-223 -86.5t-222.5 86.5t-92.5 208.5zM938 295q0 -40 28 -68t68 -28t68 28t28 68t-28 68t-68 28t-68 -28t-28 -68zM1391 274q0 122 92.5 208.5t222.5 86.5t222.5 -86.5t92.5 -208.5t-92.5 -208t-222.5 -86t-222.5 86t-92.5 208z M1610 274q0 -40 28 -68t68 -28t68 28t28 68t-28 68.5t-68 28.5t-68 -28.5t-28 -68.5z" />
<glyph unicode="&#x205f;" horiz-adv-x="373" />
<glyph unicode="&#x20ac;" horiz-adv-x="1380" d="M41 393l78 158h94q-4 28 -4 53q0 23 4 47h-172l78 158h112q25 89 72 160.5t123 130t191 91t260 32.5q128 0 235 -24t160 -54v-225q-51 41 -145.5 69.5t-221.5 28.5q-166 0 -264 -56t-129 -153h678l-78 -158h-631q-4 -20 -4 -45q0 -31 4 -55h582l-76 -158h-473 q30 -99 129.5 -155t263.5 -56q122 0 215 28.5t150 70.5v-226q-44 -27 -148.5 -50t-246.5 -23q-265 0 -430.5 102.5t-215.5 308.5h-190z" />
<glyph unicode="&#x2122;" horiz-adv-x="1380" d="M41 1270v155h485v-155h-155v-565h-174v565h-156zM532 705l62 720h162l184 -319h2l180 319h154l63 -720h-165l-33 469l-193 -328h-20l-193 328l-35 -469h-168z" />
<glyph unicode="&#x25fc;" horiz-adv-x="942" d="M0 0v942h942v-942h-942z" />
</font>
</defs>
</svg>
