<?xml version="1.0" standalone="no"?>
<!DOCTYPE svg PUBLIC "-//W3C//DTD SVG 1.1//EN" "http://www.w3.org/Graphics/SVG/1.1/DTD/svg11.dtd" >
<svg xmlns="http://www.w3.org/2000/svg" xmlns:xlink="http://www.w3.org/1999/xlink" version="1.1">
<metadata>
Created by FontForge 20201107 at Sun Mar 26 00:36:15 2017
 By 
Typeface (c) (your company). 2017. All Rights Reserved
</metadata>
<defs>
<font id="Paper" horiz-adv-x="855" >
  <font-face 
    font-family="Paper"
    font-weight="400"
    font-stretch="normal"
    units-per-em="2048"
    panose-1="2 0 5 0 0 0 0 0 0 0"
    ascent="1638"
    descent="-410"
    x-height="1413"
    cap-height="1354"
    bbox="-0.25 -500 1643.54 1937"
    underline-thickness="150"
    underline-position="-292"
    unicode-range="U+001D-F002"
  />
<missing-glyph horiz-adv-x="924" 
d="M50 0v1434h824v-1434h-824zM100 50h724v1334h-724v-1334zM275 1148q31 28 58 43q53 30 112 30q92 0 148 -47.5t56 -127.5q0 -49 -23 -98.5t-87 -129.5q-63 -80 -99 -132t-36 -99q0 -38 24 -133h-32q-35 97 -35 148q0 76 81.5 218t81.5 217q0 57 -33 90t-91 33
q-38 0 -69 -17q-26 -15 -56 -40v45zM339 334l57 58q11 10 20 10q10 0 22 -11l56 -60q9 -11 9 -20q0 -11 -10 -22l-56 -62q-14 -14 -21 -14q-11 0 -20 10l-61 71q-7 9 -7 18q0 10 11 22z" />
    <glyph glyph-name=".notdef" horiz-adv-x="924" 
d="M50 0v1434h824v-1434h-824zM100 50h724v1334h-724v-1334zM275 1148q31 28 58 43q53 30 112 30q92 0 148 -47.5t56 -127.5q0 -49 -23 -98.5t-87 -129.5q-63 -80 -99 -132t-36 -99q0 -38 24 -133h-32q-35 97 -35 148q0 76 81.5 218t81.5 217q0 57 -33 90t-91 33
q-38 0 -69 -17q-26 -15 -56 -40v45zM339 334l57 58q11 10 20 10q10 0 22 -11l56 -60q9 -11 9 -20q0 -11 -10 -22l-56 -62q-14 -14 -21 -14q-11 0 -20 10l-61 71q-7 9 -7 18q0 10 11 22z" />
    <glyph glyph-name=".null" horiz-adv-x="0" 
 />
    <glyph glyph-name=".null" horiz-adv-x="0" 
 />
    <glyph glyph-name="nonmarkingreturn" horiz-adv-x="508" 
 />
    <glyph glyph-name="space" unicode=" " horiz-adv-x="508" 
 />
    <glyph glyph-name="space" unicode="&#xa0;" horiz-adv-x="508" 
 />
    <glyph glyph-name="exclam" unicode="!" horiz-adv-x="346" 
d="M74 1382l-1 -13l-1 -23l-1 -53l-1 -52q-13 -433 -4 -827v-33v-32q1 -27 22 -30l59 -11q34 -6 60 -8q37 -4 36 38l-1 45v45q4 117 12 266q7 139 14 244l14 205l14 206v17v9v11q-41 2 -110 5l-55 2l-56 3zM212 181q-49 35 -108 13q-46 -18 -52 -74q-2 -29 1 -77
q1 -25 29 -31l12 -3l12 -3q29 -13 57 3q38 22 53 38q22 26 15 62v19v17q-1 23 -19 36z" />
    <glyph glyph-name="quotedbl" unicode="&#x22;" horiz-adv-x="633" 
d="M424 1415q-43 -24 -63 -79q-19 -56 -1 -103q11 -28 26 -63l27 -62q5 -11 13 -27l7 -13l8 -15l20 28l20 27q21 30 33 55l10 20l9 20q11 23 21 38q29 48 15 99q-15 52 -64 77q-41 21 -81 -2zM209 1412q43 -24 63 -79q19 -56 1 -103q-13 -31 -26 -63l-27 -62q-4 -9 -13 -27
l-7 -13l-8 -15l-20 28l-20 27q-21 30 -33 55l-10 20l-9 20q-11 22 -21 38q-29 48 -15 99q15 52 64 77q41 21 81 -2z" />
    <glyph glyph-name="numbersign" unicode="#" horiz-adv-x="1281" 
d="M931 1159v14l-1 7l-1 10h-21h-20l-103 -3q-21 -1 -27 -6q-6 -6 -7 -25q-5 -66 -5 -128q0 -25 -6 -31q-6 -7 -30 -8q-55 -1 -115 1q-17 0 -21 5q-4 4 -5 21v62v62v23h-71h-36h-36q-17 0 -18 -19l-7 -70l-7 -69q-1 -21 -6 -26t-25 -7l-50 -4l-50 -4l-115 -8q-18 -2 -23 -6
q-6 -4 -9 -20q-10 -64 -14 -117q-3 -33 32 -36h23l22 2l75 3l76 3q47 1 44 -49l-4 -64l-4 -64q-3 -29 -12 -38t-38 -10l-173 -7l-53 -3q-28 -3 -32 -31q-8 -68 -8 -106q1 -23 19 -38q18 -14 44 -13l84 3l83 2q22 1 28 -6q6 -6 5 -28l-3 -38l-1 -38q0 -33 32 -39
q52 -10 121 -7l2 16l2 16l6 83q2 26 8 32q7 7 32 7h49l49 -1q19 -1 23 -5t5 -23l1 -142q1 -20 5 -25q5 -5 24 -4l90 8l91 8q-5 46 -3 112l1 56l1 57q147 10 340 13l8 70l8 71l-7 1l-7 1l-12 1l-108 -2l-107 -1q-11 -1 -25 2l-25 4q-14 2 -14 17l-1 7v7l5 97l6 96q1 21 6 25
q5 5 26 6l142 10l143 9q0 27 2 78l2 41l1 41h-22h-22h-41l-67 -2l-67 -2q-22 0 -53 7q-16 4 -20 8q-3 5 -3 23z" />
    <glyph glyph-name="dollar" unicode="$" horiz-adv-x="893" 
d="M246 1345q-126 -98 -112 -263q3 -35 18 -75q6 -16 14 -35l16 -35l10 -21l10 -19q13 -22 28 -36q21 -19 47 -45l46 -46q43 -44 41 -91q-1 -18 0 -50l2 -25v-25l-3 -287v-11q-1 -6 -2 -10q-4 -12 -18 -18q-94 54 -198 143l-48 -48l-47 -47l16 -32l15 -30q18 -35 30 -58
q9 -16 31 -39q29 -32 70 -72q80 -80 170 -69q58 7 153 32q23 6 51 30q71 59 100 144q11 34 22 52q23 40 21 93q-5 143 -87 248q-19 23 -46 53l-24 25l-24 26q-20 20 -20 48v75l-1 75q-1 90 0 150q4 118 111 68l36 -16q21 -10 35 -17l128 181l6 13l-53 41q-97 74 -222 94
q-194 29 -322 -71z" />
    <glyph glyph-name="percent" unicode="%" horiz-adv-x="1027" 
d="M616 1268l-49 -152l-94 -288l-92 -289q-97 -305 -139 -497q-5 -24 -1 -31q5 -8 26 -10q23 -1 55 -1l57 1q32 1 36 35q1 7 4 16l6 16l61 189q37 112 61 190q15 51 41 144l21 72l21 72l43 140l45 140l45 140l45 139l20 66l10 34l10 35l-88 1l-89 2l-3 -7l-2 -5zM970 409v17
q-1 23 -19 36q-49 35 -108 13q-46 -18 -52 -74q-2 -29 1 -77q1 -25 29 -31l12 -3l12 -3q29 -13 57 3q38 22 53 38q22 26 15 62v19zM231 977v17q-1 23 -19 36q-49 35 -108 13q-46 -18 -52 -74q-2 -29 1 -77q1 -25 29 -31l12 -3l12 -3q29 -13 57 3q38 22 53 38q22 26 15 62v19
z" />
    <glyph glyph-name="ampersand" unicode="&#x26;" horiz-adv-x="1026" 
d="M844 234l-99 70q-8 6 -19 16l-10 9l-9 10l7 10l7 9q8 10 14 15q67 57 123 100q69 53 76 117q-72 54 -121 92l-48 -43l-47 -42q-54 -47 -98 -79l-3 3l-2 3q-3 3 -4 5q-41 96 -122 186q-15 17 -15 24q0 6 13 26l53 77l53 78q74 110 61 202l-9 56l-9 55q-6 40 -32 75
q-64 84 -135 86h-65l-65 -2q-8 0 -17 -7q-104 -74 -127 -181q-5 -26 -8 -50q-5 -55 -5 -83q1 -45 15 -81l20 -48l22 -48l30 -67q15 -30 0 -55l-21 -35q-12 -21 -22 -35q-122 -168 -160 -341q-16 -71 -14 -123q4 -69 65 -153q18 -24 47 -37q54 -25 162 -46l8 -1h8q27 -4 60 9
l27 12l28 11q84 33 153 110q17 19 30 21q14 2 34 -11q21 -13 51 -35l50 -37l32 -23q20 -13 32 -23q25 -21 62 -14q37 8 52 37q23 47 17 88l-6 4l-7 4l-14 10z" />
    <glyph glyph-name="quotesingle" unicode="'" horiz-adv-x="341" 
d="M132 1415q-43 -24 -63 -79q-19 -56 -1 -103q11 -28 26 -63l27 -62q5 -11 13 -27l7 -13l8 -15l20 28l20 27q21 30 33 55l10 20l9 20q11 23 21 38q29 48 15 99q-15 52 -64 77q-41 21 -81 -2z" />
    <glyph glyph-name="parenleft" unicode="(" horiz-adv-x="486" 
d="M331 1430l-86 2q-13 0 -21 -12l-40 -59q-73 -106 -98 -238l-13 -71q-7 -41 -12 -72q-11 -81 -10 -145l3 -119l4 -118q4 -115 33 -237q36 -148 125 -289q13 -22 36 -45q4 -4 11 -7q6 -2 14 -4l24 -2l25 -3l11 -3l10 -3q13 -4 20 -5q15 -1 23 12q3 3 2 12q-1 7 -3 14
q-2 5 -7 12l-4 6l-4 6l-15 25q-8 14 -14 25q-3 8 -8 21l-3 11l-4 10q-54 143 -101 324q-13 53 -19 123l-4 62l-3 62q-7 173 46 307l26 66q15 37 28 64q32 71 67 121q13 19 28 47l13 24l13 24q7 13 9 22q3 13 -1 25l-7 2l-8 1z" />
    <glyph glyph-name="parenright" unicode=")" horiz-adv-x="487" 
d="M70 1428l-8 -1l-8 -2q-4 -12 -1 -25q3 -9 9 -22l13 -24l13 -24q15 -28 28 -47q35 -50 68 -121q13 -27 27 -64l27 -66q53 -134 45 -307l-3 -62l-3 -62q-6 -70 -20 -123q-47 -181 -101 -324l-3 -10l-4 -11q-4 -13 -8 -21q-5 -11 -14 -25l-15 -25l-4 -6l-4 -6q-5 -7 -6 -12
q-3 -7 -4 -14q0 -9 2 -12q9 -13 23 -12q8 1 21 5l10 3l10 3l25 3l25 2q8 2 13 4q7 3 12 7q22 23 36 45q88 141 124 289q30 122 34 237l3 118l3 119q2 64 -10 145q-4 31 -12 72l-13 71q-24 132 -98 238l-40 59q-8 12 -21 12l-86 -2z" />
    <glyph glyph-name="asterisk" unicode="*" horiz-adv-x="683" 
d="M88 1277l25 -7l48 -14l26 -6l14 -4l16 -4q-28 -25 -68 -52l-36 -23l-37 -24l13 -19l13 -19q14 -21 25 -35q28 -36 44 -38t54 25l52 40l52 40q27 19 36 19t37 -18l77 -50l79 -49q14 -8 22 -6q7 2 17 16q15 24 28 52q8 18 6 25t-19 18l-149 99l-15 12l-15 11l6 7l18 7
q73 25 133 66q23 16 27 28q3 12 -9 36l-35 67l-6 9l-6 10l-4 -3l-4 -1l-6 -4l-71 -44l-72 -44l-8 -5l-10 -5q-11 -4 -24 -1l-9 104l-10 106l-17 -2l-16 -2l-31 -4l-30 -4l-31 -4l2 -23l2 -22l4 -42l5 -50l4 -50q2 -24 -23 -21l-19 3l-19 3l-50 7l-26 4l-27 4l-5 -24l-4 -23
l-10 -46q-2 -14 12 -19z" />
    <glyph glyph-name="plus" unicode="+" horiz-adv-x="687" 
d="M232 568l6 -60q2 -21 6 -25q5 -5 26 -7h14h14q17 1 27 -1q21 -4 45 0l22 4l21 6q17 4 21 11q3 6 2 25q-4 56 -5 120q0 27 28 26l12 -2l13 -2l15 -3l15 -2l36 -1l36 -1q51 -2 51 46l-2 53l-3 54q-1 18 -6 23q-5 4 -25 5l-140 3q-42 1 -47 6q-6 5 -11 50l-3 38l-3 37
q-2 20 -19 19l-68 -5l-35 -3l-36 -2v-17v-17l3 -44l2 -45q0 -20 -5 -25t-26 -5l-61 3l-62 3l-17 1l-19 -1l-1 -6l-2 -5q-1 -6 -1 -10l1 -117q0 -13 4 -19q3 -5 7 -9t8 -5l39 -3l39 -2h24l23 -1q19 -2 23 -6t6 -23z" />
    <glyph glyph-name="comma" unicode="," horiz-adv-x="266" 
d="M121 -116v-5l2 -4q1 -5 3 -5q8 -3 18 3q3 1 7 5l7 8q48 48 52 122q6 90 -78 122l-13 5l-14 6l-13 -8l-12 -7q-30 -17 -29 -57q1 -27 19 -48q19 -23 29 -37q33 -44 22 -86q-1 -8 0 -14z" />
    <glyph glyph-name="hyphen" unicode="-" horiz-adv-x="548" 
d="M439 558l-32 1h-330l-11 -1l-6 -1l-7 -1l-2 -8l-1 -7l4 -98q1 -17 5 -22q5 -6 21 -7q55 -6 130 -10l50 -1l50 -1l150 -4l11 1q27 4 27 27q0 38 -3 109q-1 21 -24 21z" />
    <glyph glyph-name="hyphen" unicode="&#xad;" horiz-adv-x="548" 
d="M439 558l-32 1h-330l-11 -1l-6 -1l-7 -1l-2 -8l-1 -7l4 -98q1 -17 5 -22q5 -6 21 -7q55 -6 130 -10l50 -1l50 -1l150 -4l11 1q27 4 27 27q0 38 -3 109q-1 21 -24 21z" />
    <glyph glyph-name="period" unicode="." horiz-adv-x="288" 
d="M231 134v17q-1 23 -19 36q-49 35 -108 13q-46 -18 -52 -74q-2 -29 1 -77q1 -25 29 -31l12 -3l12 -3q29 -13 57 3q38 22 53 38q22 26 15 62v19z" />
    <glyph glyph-name="slash" unicode="/" horiz-adv-x="711" 
d="M429 1268l-49 -152l-94 -288l-92 -289q-97 -305 -139 -497q-5 -24 -1 -31q5 -8 26 -10q23 -1 55 -1l57 1q32 1 36 35q1 7 4 16l6 16l61 189q37 112 61 190q15 51 41 144l21 72l21 72l43 140l45 140l45 140l45 139l20 66l10 34l10 35l-88 1l-89 2l-3 -7l-2 -5z" />
    <glyph glyph-name="zero" unicode="0" horiz-adv-x="982" 
d="M908 304q-2 -35 -30 -50q-21 -12 -37 -40q-79 -145 -284 -207q-74 -22 -142 26q-177 127 -236 330l-23 75l-22 76q-25 87 -40 152q-44 194 1 410q10 47 51 118q48 83 121 189q19 28 51 42q114 53 222 -5t242 -222q24 -29 42 -73q6 -17 14 -40l12 -40q82 -268 71 -568z
" />
    <glyph glyph-name="one" unicode="1" horiz-adv-x="575" 
d="M522 1287q-2 -71 -5 -124l-17 -292l-17 -291l-15 -265l-15 -264l-1 -15l-1 -15q-2 -12 -8 -21h-132l-9 8q-5 4 -13 9l-8 4l-8 5l4 98l5 97q19 271 20 643q0 43 2 120l3 119q1 51 -11 59q-12 9 -59 -9l-53 -20l-53 -20q-21 -7 -29 -4q-8 4 -15 24q-6 23 -15 57l-15 57
q-7 23 15 39q87 63 211 154q33 25 70 25h69h70q5 0 12 -2l8 -1l8 -2l3 -24q2 -15 2 -25z" />
    <glyph glyph-name="two" unicode="2" horiz-adv-x="850" 
d="M798 186l1 -43q1 -50 0 -85q0 -26 -30 -32q-18 -3 -31 -4l-124 -9l-123 -8q-42 -2 -101 -3l-100 -2q-38 -1 -59 26l-4 6l-5 6q-6 6 -10 7q-24 5 -31 23q-2 7 -3 18l-1 20q-6 124 32 240q100 305 170 533q14 47 31 120l14 60l14 61q10 37 -22 61q-33 24 -71 6
q-56 -28 -73 -83l-9 -28l-9 -29q-7 -22 -17 -29q-11 -7 -32 -4q-59 7 -128 21q-18 3 -22 10q-5 8 -1 26q19 110 63 190l9 16l10 16q12 20 18 33q42 87 159 117q21 5 50 9l26 4l25 3q35 4 61 -21q106 -101 143 -173q61 -115 33 -253q-54 -268 -127 -450q-13 -31 -36 -83
l-19 -41l-19 -42q-17 -40 -43 -110q-8 -22 -3 -30q6 -9 30 -10l96 -5l97 -3l68 -2l69 -2q6 0 15 -1l8 -2l11 -1v-44z" />
    <glyph glyph-name="three" unicode="3" horiz-adv-x="729" 
d="M81 328l31 13q34 15 58 25q13 5 30 -13q38 -40 61 -61q23 -20 63 -25q41 -5 67 9q13 6 19 18q81 149 74 262q-1 20 -10 53q-1 6 -7 17l-4 8l-3 8q-21 78 -119 146q-21 14 -53 34l-54 33l-22 13l-21 15q-24 17 -18 48q11 61 39 105t64 107l62 107q3 5 6 13l3 8l3 9l-11 3
l-11 3q-12 4 -20 5q-77 6 -142 9q-61 2 -69 12q-6 6 -11 68l-1 27v28l5 14l18 2l19 2l382 9q32 1 38 -5q7 -5 10 -38q10 -88 13 -137q3 -56 -28 -100l-100 -142l-14 -19l-12 -20q-19 -32 -17 -44q2 -11 27 -37q50 -51 98 -108q155 -184 128 -472q-13 -137 -67 -232
q-40 -71 -116 -94q-175 -52 -289 86q-49 60 -130 215z" />
    <glyph glyph-name="four" unicode="4" horiz-adv-x="767" 
d="M699 739q-4 20 -9 25q-6 5 -26 6l-62 4q-36 1 -63 0q-42 -1 -63 36q-9 14 -11 36l-21 235l-19 235q-5 56 -34 144q-29 -15 -49 -54q-126 -248 -190 -468q-22 -72 -50 -176l-47 -177q-2 -6 -3 -15l-1 -8l-1 -10l25 -1l24 -2q27 -2 45 -2l72 1q46 1 72 1q27 -1 36 -9
q8 -8 10 -35l4 -43l3 -42l25 -342l1 -10l1 -10q2 -10 6 -18l2 -40h163l-21 175l-28 335q-4 45 4 54q9 8 53 6q67 -4 117 -2q32 1 43 13q10 12 7 46q-4 40 -15 112z" />
    <glyph glyph-name="five" unicode="5" horiz-adv-x="670" 
d="M527 823q-99 159 -260 210q-36 11 -41 18q-7 7 -11 42l-1 20q-2 40 10 52q11 12 52 17q83 12 231 42q22 4 27 12q5 7 5 31l-1 157q0 6 -2 16l-1 9l-2 11q-97 0 -229 -6l-115 -6l-115 -7l-3 -45l-3 -43q-4 -50 -5 -85l-4 -156q-3 -98 -6 -157q-3 -64 41 -83q31 5 62 5
q42 -1 78 -9v0q39 -1 73 -26q116 -83 139 -241l1 -1q13 -14 14 -70q0 -55 -12 -120q-31 -165 -94 -192q-51 -22 -86 6q-13 10 -22 26l-6 12q-3 5 -4 9l-1 1l-4 11l-11 26l-6 15l-6 16l-11 -7l-9 -5q-11 -7 -17 -11l-28 -22l-28 -21q-18 -14 -21 -23q-2 -8 8 -29l14 -29
l15 -30q18 -33 34 -56q29 -40 63 -74v2q16 -20 47 -29q27 -9 57 -4q38 5 79 31v-1q90 70 141 181q12 26 20 63l14 74l14 75l8 45q4 26 6 46q5 52 -5 93q-31 132 -83 214z" />
    <glyph glyph-name="six" unicode="6" horiz-adv-x="786" 
d="M686 525l-14 47q-18 53 -40 89q-45 75 -131 103q-85 28 -165 -6q-10 -4 -24 -12l-24 -14q-45 -24 -48 24l-9 133q0 8 1 17q0 12 1 25q3 34 7 66q13 93 34 147q13 20 18 35q15 21 31 27q58 21 87 23q40 2 77 -25q17 -12 30 -27q17 -18 25 -19t28 14q23 17 57 42l30 23
l30 23l-19 25l-19 25l-36 49q-52 68 -148 88q-103 21 -173 -36q-9 -7 -24 -16l-13 -8l-12 -8q-68 -45 -99 -100q-33 -59 -58 -116q-14 -29 -16 -60l-6 -65l-5 -65q-5 -74 -6 -129q-3 -297 84 -626q19 -72 61 -132q56 -81 168 -86q119 -4 241 60q105 56 119 192
q10 110 -25 226z" />
    <glyph glyph-name="seven" unicode="7" horiz-adv-x="685" 
d="M619 1440q-6 6 -27 6l-488 12q-9 1 -25 -2l-13 -2l-14 -2v-57l-1 -56l-1 -112l39 -8l39 -7q43 -7 78 -7q68 -1 161 -6q28 -2 34 -11q5 -9 -4 -37l-4 -9l-4 -9l-13 -35l-13 -35q-16 -42 -25 -70q-133 -431 -149 -903v-14l2 -76h191l4 45q3 7 4 26l9 149l10 149
q17 231 55 358q62 212 158 419l5 11l4 11q4 13 4 22q-2 91 -9 225q-1 20 -7 25z" />
    <glyph glyph-name="eight" unicode="8" horiz-adv-x="761" 
d="M689 428q-1 41 -8 63q-20 70 -53 118q-55 114 -152 162q-10 11 -10 19q0 29 11 59q7 19 18 42l19 41q66 138 88 326q7 62 -28 114q-49 71 -146 99q-82 23 -187 11q-99 -11 -165 -94q-26 -32 -20 -70l7 -54l6 -54q35 -252 137 -423q12 -21 10 -36q-8 -9 -16 -20
q-10 -14 -20 -29q-26 -40 -44 -84q-50 -126 -24 -259q29 -147 70 -217q42 -71 124 -107l3 -2q39 -24 85 -27l8 -2q64 -16 128 31q55 40 101 118q41 69 60 142q20 71 8 101q-5 12 -10 32z" />
    <glyph glyph-name="nine" unicode="9" horiz-adv-x="681" 
d="M614 1249l-3 120q-1 40 -16 58t-51 23q-113 18 -193 -21l-19 -8l-19 -8q-23 -10 -37 -19q-37 -22 -55 -47q-95 -128 -137 -316q-34 -156 97 -265q72 -59 186 -90q67 -17 77 -32q11 -15 10 -85l-1 -122v-122h-9v-142v-141l1 -16q1 -9 3 -16h139q5 10 6 20l5 61l4 60
q29 362 14 988z" />
    <glyph glyph-name="colon" unicode=":" horiz-adv-x="291" 
d="M57 531v-17v-19q-7 -36 15 -62q14 -16 53 -38q27 -16 56 -3l12 3l13 3q27 6 29 31q3 48 0 77q-5 56 -51 74q-59 22 -108 -13q-18 -13 -19 -36zM215 1060q-49 35 -108 13q-46 -18 -52 -74q-2 -29 1 -77q1 -25 29 -31l12 -3l12 -3q29 -13 57 3q38 22 53 38q22 26 15 62v19
v17q-1 23 -19 36z" />
    <glyph glyph-name="semicolon" unicode=";" horiz-adv-x="291" 
d="M57 531v-17v-19q-7 -36 15 -62q14 -16 53 -38q27 -16 56 -3l12 3l13 3q27 6 29 31q3 48 0 77q-5 56 -51 74q-59 22 -108 -13q-18 -13 -19 -36zM215 1060q-49 35 -108 13q-46 -18 -52 -74q-2 -29 1 -77q1 -25 29 -31l12 -3l12 -3q29 -13 57 3q38 22 53 38q22 26 15 62v19
v17q-1 23 -19 36zM143 311v-5l2 -4q1 -5 3 -5q8 -3 18 3q3 1 7 5l7 8q48 48 52 122q6 90 -78 122l-13 5l-14 6l-13 -8l-12 -7q-30 -17 -29 -57q1 -27 19 -48q19 -23 29 -37q33 -44 22 -86q-1 -8 0 -14z" />
    <glyph glyph-name="semicolon" unicode="&#x37e;" horiz-adv-x="291" 
d="M57 531v-17v-19q-7 -36 15 -62q14 -16 53 -38q27 -16 56 -3l12 3l13 3q27 6 29 31q3 48 0 77q-5 56 -51 74q-59 22 -108 -13q-18 -13 -19 -36zM215 1060q-49 35 -108 13q-46 -18 -52 -74q-2 -29 1 -77q1 -25 29 -31l12 -3l12 -3q29 -13 57 3q38 22 53 38q22 26 15 62v19
v17q-1 23 -19 36zM143 311v-5l2 -4q1 -5 3 -5q8 -3 18 3q3 1 7 5l7 8q48 48 52 122q6 90 -78 122l-13 5l-14 6l-13 -8l-12 -7q-30 -17 -29 -57q1 -27 19 -48q19 -23 29 -37q33 -44 22 -86q-1 -8 0 -14z" />
    <glyph glyph-name="less" unicode="&#x3c;" horiz-adv-x="846" 
d="M276 826l-187 -96q-7 -4 -18 -12l-10 -6l-11 -8q16 -9 17 -9l167 -79l167 -78l164 -75l165 -73q40 -18 47 24l8 52l7 53q4 25 -18 36q-94 51 -252 139l-9 5l-9 4q-10 7 -9 17q1 9 10 15l9 4l10 4l95 39l96 39l18 8l18 8q25 10 27 35l7 70q4 41 5 69q1 26 -16 37
q-17 10 -41 -1l-135 -62q-78 -36 -133 -63q-80 -40 -189 -96z" />
    <glyph glyph-name="equal" unicode="=" horiz-adv-x="778" 
d="M610 946l-46 1h-468l-16 -1l-9 -1l-10 -1l-3 -8l-1 -7l6 -98q1 -17 7 -22q7 -6 29 -7q79 -6 185 -10l71 -1l71 -1l214 -4l16 1q38 4 38 27q0 38 -5 109q-1 21 -34 21zM91 631q-34 0 -36 -21q-5 -71 -5 -109q0 -23 40 -27l17 -1l228 4l76 1l75 1q113 4 197 10q24 1 31 7
q6 5 8 22l6 98l-1 7l-4 8l-10 1l-9 1l-17 1h-499l-48 -1z" />
    <glyph glyph-name="greater" unicode="&#x3e;" horiz-adv-x="846" 
d="M381 922q-55 27 -134 63l-135 62q-23 11 -40 1q-17 -11 -16 -37q1 -28 5 -69l6 -70q2 -25 27 -35l18 -8l18 -8l96 -39l96 -39l9 -4l9 -4q10 -6 11 -15q0 -10 -10 -17l-9 -4l-8 -5q-158 -88 -253 -139q-21 -11 -18 -36l8 -53l7 -52q7 -42 47 -24l165 73l164 75l168 78
l167 79l17 9l-11 8l-10 6q-11 8 -18 12l-188 96q-109 56 -188 96z" />
    <glyph glyph-name="question" unicode="?" horiz-adv-x="598" 
d="M295 1378q-42 6 -75 -8q-92 -38 -156 -92q-14 -11 -12 -29l10 -83l10 -83q1 -6 3 -15l3 -8l3 -10l7 5l5 4l8 8q19 26 34 51q46 73 131 71q84 -2 85 -63q1 -23 -6 -41q-15 -41 -30 -69l-31 -57l-31 -57q-36 -65 -65 -110q-77 -121 -60 -306l5 -50l3 -50q1 -18 4 -23
q3 -6 17 -11q54 -20 122 9q27 11 25 46q-6 76 5 195l3 31l3 31q5 34 14 59q52 143 156 264q29 34 36 80l2 18l3 18q3 22 7 36q15 53 -14 110q-26 53 -71 78q-74 40 -153 51zM291 145q0 23 -19 36q-49 35 -108 13q-46 -18 -51 -74q-3 -29 0 -77q2 -25 30 -31l12 -3l12 -3
q29 -13 56 3q39 22 53 38q22 26 15 62v36z" />
    <glyph glyph-name="at" unicode="@" horiz-adv-x="1173" 
d="M1058 381l-17 23l-5 7l-4 7l-7 -7l-6 -7q-8 -7 -13 -11l-87 -52q-49 -30 -87 -51q-43 -23 -104 -39q-41 -12 -121 -24l-36 -7l-37 -7q-45 -8 -74 -11q-39 -4 -57 9q-54 44 -75 82l-17 29l-17 29q-70 124 -86 198l-18 77l-17 77q-18 89 -13 137q2 19 7 31l28 61l29 60
q7 16 13 23l18 25l19 24l7 11l7 10q8 12 16 19q55 46 91 68q116 71 271 42q34 -6 59 -18q84 -42 133 -116l11 -15l10 -15q10 -18 13 -34q22 -153 -29 -321q-33 23 -44 51l-53 133l-53 134l-14 40l-14 40q-9 26 -20 32t-37 1l-20 -3l-21 -4q-116 -28 -170 -96
q-27 -33 -65 -71q-19 -19 -23 -46q-17 -119 -15 -246q1 -120 70 -255q39 -78 107 -108q92 -42 168 -12q105 41 162 102q35 37 95 46q92 13 128 87q17 38 21 85l6 56l6 57q4 43 4 78q1 89 -42 236q-54 187 -200 284q-113 76 -188 87l-61 9l-61 8l-32 5l-33 5q-9 1 -15 0
q-96 -30 -138 -74q-100 -102 -145 -173q-29 -45 -59 -108l-25 -56l-24 -57q-4 -9 -4 -26q-4 -164 24 -258q4 -14 9 -36l8 -36l12 -46q6 -27 13 -47q16 -51 41 -89q-7 4 -15 10l-14 9q6 -17 17 -37l9 -17l10 -17q10 -19 23 -45l21 -46q27 -56 48 -88l10 -16l10 -15
q11 -17 23 -28q84 -83 140 -108q95 -42 159 -21l52 17l52 17q61 20 104 36q126 49 250 155l19 16l20 16q21 16 23 29q1 13 -16 33l-16 17l-15 18z" />
    <glyph glyph-name="A" unicode="A" horiz-adv-x="900" 
d="M697 0h153l-6 35l-1 4l-5 33l-4 20v1q-16 94 -27 151q-55 288 -110 468q-50 166 -105 332t-127 301q-15 29 -45 69q-18 25 -47 21l-4 -6l-2 -6l-51 -207l-50 -207q-13 -57 -32 -143l-30 -144l-20 -91l-21 -92l-32 -146l-32 -147l-22 -107l-11 -54l-11 -56v0l-5 -29h177
l16 100l72 329l9 41l9 42q5 19 10 23q6 5 25 5l71 -2q45 -1 72 0q31 0 48 -17q0 -1 17 -65q20 -71 40 -145q58 -214 68 -251z" />
    <glyph glyph-name="B" unicode="B" horiz-adv-x="649" 
d="M361 727l-22 9l-22 8q-8 4 -22 9l-13 6q-8 3 -15 6q31 24 32 25q59 40 120 108q93 103 73 243q-11 80 -32 126q-40 92 -119 117q-142 45 -255 56l-17 1l-16 1l-3 -9l8 -222q4 -131 9 -222q10 -212 -1 -451q-10 -211 28 -507q2 -17 8 -23q7 -6 25 -7q38 -2 75 0
q144 8 212 39q44 20 73 63q76 110 98 263q14 107 -38 203q-50 91 -142 139q-17 9 -44 19z" />
    <glyph glyph-name="C" unicode="C" horiz-adv-x="651" 
d="M517 620l-27 1l-27 1l-5 -31l-6 -31q-3 -17 -7 -46l-6 -47q-8 -55 -26 -91q-14 -29 -60 -60l-5 -1q-3 -1 -4 0l-15 6l-16 6q-18 7 -27 19q-35 43 -45 125q-6 46 -15 128l-14 127q-20 168 28 318l9 28q6 16 10 28q14 31 33 50q32 31 59 24q26 -6 38 -49l9 -34l7 -34
q6 -24 31 -23l40 1l39 2q16 2 20 7t3 21l-2 15l-1 15q-2 95 -64 215q-33 65 -124 114q-11 6 -29 8q-89 12 -148 -62q-38 -47 -66 -137q-44 -142 -48 -341q-6 -269 32 -610q4 -29 13 -47q44 -81 77 -132q32 -51 85 -82q60 -34 135 -13q69 19 110 70q45 53 60 135
q28 159 31 246l2 62v63q0 21 -6 27q-6 5 -26 6z" />
    <glyph glyph-name="D" unicode="D" horiz-adv-x="728" 
d="M542 1095q-10 18 -22 31l-30 30l-29 30q-35 34 -62 55q-129 99 -293 172q-10 5 -26 11l-14 6l-16 7l1 -11v-8q1 -9 2 -14q39 -288 50 -516l19 -362l20 -361q3 -47 13 -139q3 -32 31 -24q52 13 78 25q137 64 266 239q7 10 10 18l47 104l46 105q45 106 29 224
q-28 200 -120 378z" />
    <glyph glyph-name="E" unicode="E" horiz-adv-x="684" 
d="M626 1398q-1 7 -3 19l-3 11l-2 11q-62 -4 -141 -5h-71h-70q-185 2 -284 -5v-38l6 -176l4 -176l5 -206q3 -120 4 -206q1 -234 -11 -413l-6 -96l-4 -95q0 -17 2 -23l528 5l1 14l-6 85l-5 85q-1 27 -26 28l-43 2l-43 3q-52 2 -87 -3q-18 -3 -51 -4q-41 0 -51 9q-9 10 -9 52
l-1 280q0 5 1 13l1 8l1 9l5 10l246 -8q4 10 4 28q0 70 -1 113l-2 18l-3 19h-211v17q0 10 -1 22v1q-2 6 -2 18l-2 31v6v3q-4 74 -7 148q-3 64 -5 167q0 22 5 29q6 6 27 8q21 3 48 3l119 2l119 2q22 0 28 6q5 6 4 29q-3 74 -7 140z" />
    <glyph glyph-name="F" unicode="F" horiz-adv-x="657" 
d="M602 1411l-2 15l-3 16l-116 -4l-115 -4l-227 -8l-34 -3l-35 -3q-19 -2 -20 -21v-23l7 -729l4 -548v0v-99h206l-3 117v0l-3 167l-2 91l-2 92q0 19 6 26q6 8 25 10q11 1 26 1l48 -2l47 -1q78 -1 118 0q25 0 24 22l-6 121l-2 13l-2 13l-16 2l-14 2l-98 6l-98 7q-28 2 -34 9
q-7 8 -7 35l2 75l3 75l8 252q1 30 8 37q8 7 39 7h36l35 -1h74l74 1q32 1 43 12q11 12 11 43q0 66 -3 151q0 11 -2 28z" />
    <glyph glyph-name="G" unicode="G" horiz-adv-x="778" 
d="M163 118q65 -117 196 -117h20h20q41 -4 83 23q37 25 65 78q76 142 119 275q52 160 62 282v6l-2 8l-128 9l-128 8q-9 -26 -22 -62l-12 -31l-11 -33l9 -3l9 -3l16 -6l33 -10l32 -11q18 -6 22 -12q5 -7 2 -24q-14 -77 -38 -184q-7 -33 -37 -49q-75 -39 -153 -32
q-16 1 -27 18q-9 14 -15 36l-4 19l-4 19q-37 143 -32 319q4 152 36 316q24 127 83 231q36 64 105 59q60 -5 73 -57q4 -16 7 -38l5 -39q4 -27 28 -30q24 -4 50 -5q43 -1 39 42l-4 49l-5 48q-15 104 -65 167q-24 31 -52 42q-77 30 -150 5q-53 -18 -101 -41q-27 -13 -41 -32
l-22 -30l-22 -31q-24 -35 -38 -64q-28 -59 -56 -156q-52 -182 -55 -300q-3 -90 8 -247q12 -176 56 -306q20 -59 46 -106z" />
    <glyph glyph-name="H" unicode="H" horiz-adv-x="825" 
d="M226 7q5 5 5 23l2 41l2 41l4 167l3 167q2 56 5 102q1 20 7 26t26 8l20 1l232 10h17l9 -1l9 -1l1 -9l1 -9l2 -15v-112v-203v-203q0 -8 2 -19l4 -19h188q7 24 9 51q1 11 0 26l-2 26l-8 278q-5 164 -6 278q-3 161 1 446q1 53 4 137l5 136q1 13 0 34l-2 17v19
q-95 -5 -172 -19q-14 -2 -17 -13q-2 -4 -2 -10v-11l1 -193l-1 -193l1 -48v-48q-2 -56 -14 -96q-7 -22 -10 -26q-6 -6 -25 -7q-118 -3 -252 -4q-19 0 -24 6q-5 5 -7 25q-2 39 -2 71l5 268l5 268l-88 2l-88 2l-1 -9l-1 -8q-1 -8 -1 -13l-4 -179l-4 -180l-13 -822l-2 -180
q0 -21 5 -27q6 -5 26 -6q64 -1 123 1q17 1 22 6z" />
    <glyph glyph-name="I" unicode="I" horiz-adv-x="906" 
d="M789 4q6 5 7 26l6 88q1 15 4 46h-38l-100 3l-101 4q-27 1 -33 8q-6 6 -4 33l7 179l10 179l11 178l12 179q3 43 5 109l3 109q1 27 10 36q8 9 35 10q21 1 52 -1l53 -2l33 -1l32 -1q27 0 37 21l6 13l6 15q6 16 7 29q3 25 5 61v0l2 55q0 4 -2 19v38l-662 1l-5 -29l-5 -28
q-5 -32 -8 -54q-1 -11 -1 -19q0 -12 2 -19l4 -30l143 -17l20 -4q31 -7 39 -19q7 -11 5 -43l-15 -159q-8 -92 -13 -160q-5 -80 -12 -213l-11 -213q-5 -86 -16 -214q-3 -32 -11 -39q-7 -6 -40 -4l-70 5l-70 6l-20 1h-11l-12 1l-9 -42l-8 -42q-10 -49 -18 -86l12 -2l12 -2
q12 -2 21 -2l58 2l58 2q198 0 344 -3q31 0 75 -3l75 -4l29 -2l29 -3q20 -1 26 4z" />
    <glyph glyph-name="J" unicode="J" horiz-adv-x="878" 
d="M824 1300l4 71v24l-2 25l-8 1l-7 2q-8 1 -13 1l-84 2l-84 1l-162 -2l-163 -1l-40 -1q-20 0 -22 -22l-7 -65q-4 -40 -6 -65q-2 -49 7 -59q10 -10 59 -11l54 1l54 1q29 -1 35 -8t3 -35l-6 -59l-6 -59q-7 -70 -9 -118q-6 -112 -31 -309l-20 -154q-10 -87 -15 -154
q-2 -18 -8 -25q-6 -6 -24 -11l-7 -1l-8 -1q-9 -1 -13 -4q-18 -12 -35 -5q-6 2 -14 9l-13 12q-7 6 -11 19l-30 94l-4 16l-5 16l-27 -2l-26 -3l-50 -5q-19 -2 -24 -7q-6 -6 -6 -26q0 -66 2 -115q4 -82 33 -146q50 -108 165 -121q53 -6 99 17v0v0q30 14 53 40q30 26 53 58
q29 39 45 84q33 80 39 160l35 632l15 211h15l92 -2l92 -1q21 0 26 5t6 25z" />
    <glyph glyph-name="K" unicode="K" horiz-adv-x="944" 
d="M709 1444q-8 -4 -12 -10l-78 -105l-76 -106l-124 -171l-125 -170q-5 -7 -14 -18l-9 -9l-9 -11q-5 30 -5 31l2 43l2 44l6 409l-1 20v4v42h-170v-74l-1 -38l-2 -151l-4 -152l-10 -253l-10 -253l-18 -439v-1l-1 -20q0 -16 1 -25v-29h23l9 -2h26l26 1h66l3 34q2 11 4 40
l12 228q8 141 12 229q1 36 26 64q8 10 24 24l13 11l12 11q31 -20 34 -66q15 -227 92 -400q43 -96 98 -134q56 -39 101 -34q42 6 90 54q23 22 50 58q36 46 56 79q5 6 6 16q1 11 -3 16q-7 12 -20 27l-11 13l-12 14l-22 -17l-20 -17q-24 -19 -40 -31q-42 -31 -85 -36
q-27 -4 -44 18q-43 56 -65 153q-12 50 -25 120l-23 121l-15 81l-16 80q-5 28 14 51l45 56l45 57l53 64l52 63l45 57l44 57l22 28l22 28l17 25l18 25q21 30 38 48q35 38 46 119l-6 3l-4 2l-81 5l-80 4q-6 0 -14 -5z" />
    <glyph glyph-name="L" unicode="L" horiz-adv-x="632" 
d="M571 142q-2 31 -9 38q-6 6 -37 10q-113 13 -232 31q-23 3 -29 10q-5 6 -6 29l-10 204q-6 119 -9 203l-10 350l-10 350q-1 19 -3 29l-3 40h-163v-113l1 -101l5 -225l6 -226l8 -169l9 -169l21 -347v0v-10q0 -6 2 -12l7 -64h472l-1 25q2 6 1 17q-7 65 -10 100z" />
    <glyph glyph-name="M" unicode="M" horiz-adv-x="967" 
d="M686 743l2 -10q2 -13 3 -21l36 -562l7 -150h183v130l-1 1l-2 227l-2 228q-2 383 -18 642l-2 38l-3 39q-3 45 -13 76q-9 31 -42 31l-15 -23l-15 -23q-19 -29 -31 -49l-114 -194l-114 -195q-4 -6 -11 -15l-6 -8l-7 -8l-7 6l-6 5q-7 6 -10 11l-63 83q-36 47 -62 83l-99 140
l-98 140q-7 10 -22 27l-12 14l-10 14q-17 22 -42 16q-25 -5 -32 -32q-8 -36 -7 -80l5 -141l5 -141q9 -371 -5 -896q-1 -17 1 -26v-110h206v137l3 113l18 469q0 12 3 29l4 28l9 3l14 -17l13 -17l66 -94q40 -56 67 -92q32 -43 90 -22q9 29 61 110q52 82 73 97z" />
    <glyph glyph-name="N" unicode="N" horiz-adv-x="869" 
d="M818 41l1 6l-1 17l-3 281q-2 167 -4 281l-10 382l-11 381l-1 18l-2 9l-1 10q-80 9 -140 6v-8v-6v-11l8 -119q5 -70 6 -118l7 -265l6 -265l1 -72l-1 -71q0 -1 -7 -32q-9 13 -22 31l-22 29q-25 33 -38 57q-110 200 -272 596q-36 87 -89 227q-11 28 -38 28q-21 0 -54 2
l-54 2l-13 -1l-14 -3v-17l17 -303l17 -303l11 -252l10 -253l4 -122l3 -122l1 -12v-49h145v19q1 7 1 16q2 95 2 164l-1 274l-1 273l1 26l2 26l11 2l18 -37l18 -37q71 -160 130 -258q97 -161 153 -262q16 -29 35 -72l16 -37l16 -37l17 -60h143z" />
    <glyph glyph-name="O" unicode="O" horiz-adv-x="857" 
d="M761 477l9 38l9 38q20 94 26 169q2 61 -3 111q-6 68 -25 124q-25 76 -77 203q-21 51 -44 82q-83 108 -196 167q-89 46 -156 4l-15 -9l-15 -9q-17 -10 -27 -22q-144 -183 -176 -406q-21 -146 -16 -293q8 -213 59 -343q50 -126 112 -209q86 -116 244 -122q50 -2 83 37
l21 25l23 25q106 123 132 251l8 32l8 32q6 28 16 75z" />
    <glyph glyph-name="P" unicode="P" horiz-adv-x="633" 
d="M557 986q26 103 5 171q-58 186 -214 255q-16 7 -29 9q-110 22 -243 12l-12 -2l-7 -1l-7 -2v-7v-6v-10l14 -195l12 -195l10 -190l9 -191l12 -184l13 -185l6 -79l6 -78l6 -108h156v27q3 10 3 25l-2 55v1l-6 165l-5 136l-6 136q-3 49 37 76q29 20 64 48l31 25l31 26
q17 14 30 40q55 104 86 226z" />
    <glyph glyph-name="Q" unicode="Q" horiz-adv-x="986" 
d="M829 197l-88 153q-15 25 -4 56l10 29l9 28q9 33 11 59q18 218 6 363l-7 44l-6 45q-8 52 -19 87q-9 32 -28 73l-18 36l-17 36q-50 101 -170 180q-48 32 -91 45q-100 29 -164 -43q-29 -33 -68 -81l-33 -42l-33 -41q-46 -58 -53 -144q-13 -177 -15 -284q-1 -44 3 -127l3 -64
l1 -63q0 -83 25 -191q43 -183 201 -302q30 -23 74 -38q47 -16 93 5q123 58 172 124q11 15 21 14q8 -1 22 -16l7 -10l8 -10l37 -51q22 -31 38 -51q8 -10 16 -16h160q4 11 -2 24l-6 10l-7 11z" />
    <glyph glyph-name="R" unicode="R" horiz-adv-x="850" 
d="M70 922l1 -316l1 -315q1 -104 3 -256q0 -16 6 -28h162v8v14l-7 172l-7 172l-4 67l-4 66l1 10l1 11q10 -16 19 -37l14 -36q25 -64 65 -143l37 -69l37 -69q38 -72 87 -127l2 -2l4 -4l5 -4q8 -6 17 -11q25 -14 55 -20q91 -19 203 39l6 3l5 2l21 11l-6 27v0l-15 56l-7 29
l-7 28l-2 -1l-7 46l-16 -16q-58 -36 -108 -32q-40 3 -74 30q-38 31 -55 76l-212 402q63 77 94 128q59 96 77 151q33 99 21 257q-4 49 -44 90t-106 66q-97 37 -261 48q-4 0 -10 -1l-5 -2l-7 -1l1 -22l1 -20l7 -136l7 -137q3 -90 4 -204z" />
    <glyph glyph-name="S" unicode="S" horiz-adv-x="693" 
d="M541 544q-20 54 -54 115q-37 66 -90 156l-90 155q-36 61 -33 129q3 69 43 119q29 35 75 31q74 -7 105 -86l11 -30l11 -31q8 -22 25 -21q58 4 99 21l-2 34l-2 34q-2 40 -6 67q-7 45 -28 96q-25 60 -88 82q-84 29 -203 18q-39 -3 -66 -34l-39 -45q-22 -25 -39 -46
q-12 -15 -22 -43q-28 -74 -20 -226q6 -111 65 -203q23 -35 56 -78l29 -38l30 -38q88 -110 104 -186q25 -118 -25 -219q-28 -56 -76 -65q-44 -9 -64 20q-50 73 -58 130q-2 16 -9 38l-5 19l-6 20q-61 -6 -113 -11l-5 -8q-1 -6 -1 -10q8 -171 44 -256q36 -87 118 -134
q40 -24 91 -19q56 4 94 41q92 89 136 193q64 151 8 309z" />
    <glyph glyph-name="T" unicode="T" horiz-adv-x="765" 
d="M54 1308q3 -79 12 -112q43 -11 116 -11h30l29 1q35 -1 60 -3l2 -13l1 -11q2 -13 2 -22l-3 -273q-2 -160 -5 -273l-9 -295l-10 -296h160l-1 27l-1 28l-2 273q-1 161 0 273q2 115 7 273l9 272q0 28 6 34q5 4 33 6q85 7 190 19q24 3 29 9t5 30l1 167q0 1 -5 20
q-131 -17 -327 -19l-82 -1h-82q-99 0 -163 -2q-6 -20 -2 -101z" />
    <glyph glyph-name="U" unicode="U" 
d="M513 57q43 45 77 85q70 83 105 162q92 207 104 469q6 120 5 284l-2 142l-1 143v72q0 25 -24 25h-115q-23 0 -22 -26l1 -52l6 -144l5 -144q4 -163 1 -287q-4 -166 -62 -301q-39 -90 -118 -123q-68 -29 -132 -8q-68 22 -99 90q-26 57 -28 111l-1 38l-1 37q-10 209 -1 543
l3 113l1 114q0 21 -6 26q-5 5 -27 4l-44 -3l-44 -4q-25 -2 -30 -8q-5 -5 -6 -30q-2 -90 -4 -217l-2 -107l-2 -105q1 -48 1 -139l1 -68v-68q3 -158 16 -269q19 -154 72 -251q59 -109 173 -148q117 -40 200 44z" />
    <glyph glyph-name="V" unicode="V" horiz-adv-x="889" 
d="M631 1436l-5 -24l-1 -9l-12 -75l-14 -84l-6 -42l-8 -43l-8 -41l-8 -42l-18 -84l-19 -79l-21 -83l-11 -41l-11 -41l-22 -83l-10 -42l-11 -41l-5 -20l-5 -20q-7 -25 -20 -40l-3 8l-4 8q-3 8 -4 13l-14 48l-14 48q-16 57 -25 96q-59 257 -147 653q-11 47 -14 50q-6 6 -56 8
l-40 1l-22 1l-23 1l2 -12l1 -11q2 -12 4 -20l27 -127l28 -126l27 -117l27 -116q32 -135 59 -231q32 -116 81 -270l44 -135l43 -134q8 -26 23 -58l13 -28l14 -27q23 -46 55 -7q22 28 32 63l41 134q22 76 36 136q17 67 36 158l32 159l108 540l56 228h-208z" />
    <glyph glyph-name="W" unicode="W" horiz-adv-x="1229" 
d="M949 1437l5 -54q1 -11 1 -18l3 -25l25 -945q-44 39 -96 103l-43 54q-26 32 -43 52q-38 44 -93 109l-47 56l-48 56l-4 -8l-4 -6l-5 -10l-172 -324l-133 466l-32 198q-8 49 -23 109l-36 186h-154q51 -296 103 -601q13 -116 23 -184q15 -96 36 -220l38 -220l7 -36
q-2 -23 21 -94l5 -22q3 -16 12 -25q7 -20 13 -34h30l14 25q4 3 8 9l7 11l25 43l25 43l36 66q21 38 35 66l1 2v0l12 26q23 51 55 127l27 64l27 64q3 7 9 18l6 10l6 11l8 -8l7 -8q7 -7 10 -12l93 -136l93 -135l85 -121l85 -121q13 -18 32 -23q37 -24 66 -21q69 132 56 797
q-7 332 -28 639z" />
    <glyph glyph-name="X" unicode="X" horiz-adv-x="1101" 
d="M891 1433l-9 1q-26 3 -41 -23l-80 -128l-78 -128q-91 -148 -152 -261q-86 164 -179 340q-16 30 -31 59q-12 24 -24 46q-4 8 -9 16q-3 7 -6 13l-3 4l-1 4l-2 3l-25 48h-100l-12 1l-51 1q-6 0 -16 -1h-10l-12 -1q3 -6 6 -15l4 -14q5 -14 9 -22l20 -43l21 -43q24 -49 43 -83
q106 -191 255 -447q17 -31 4 -57l-18 -42l-19 -41l-244 -494l-9 -19l-9 -18l2 -1l-44 -88h194l287 521l99 -186l68 -131l67 -130v0l3 -6l4 -9l3 -4l29 -55h169l-9 17l-4 7l-2 4l-1 2l18 -25l21 3q-13 -2 -375 677l409 742z" />
    <glyph glyph-name="Y" unicode="Y" horiz-adv-x="1171" 
d="M663 1087l-47 -57l-47 -56l-9 12l-9 11q-9 13 -15 21l-139 197l-138 197q-12 18 -37 19l-68 4l-68 4h-16h-9h-11q6 -21 19 -42l11 -17l12 -17q68 -97 107 -149l126 -170l127 -169q24 -32 19 -60q-2 -9 -2 -22l1 -22l2 -132q1 -78 0 -131q-3 -197 -11 -389v-119h211
l-19 821q18 25 48 61l65 76l66 77q78 92 129 154q30 38 71 94l34 47l35 48q4 6 9 16l5 10q3 6 6 11q-128 4 -174 6l-49 -57l-48 -56l-95 -110q-37 -45 -92 -111z" />
    <glyph glyph-name="Z" unicode="Z" horiz-adv-x="1044" 
d="M478 1427l-102 2q-126 2 -204 2q-3 -39 0 -86l5 -42l5 -40q3 -32 41 -39q46 -9 70 -11l173 -13l173 -13q6 0 15 -2l9 -3l10 -2l-8 -16l-8 -15q-8 -18 -14 -28l-90 -151l-90 -151l-80 -137q-47 -80 -80 -138q-89 -156 -148 -281l-41 -84q-24 -50 -39 -84q-25 -55 -7 -95
h824v4l-5 73l-6 72q-1 7 -4 16l-2 7l-3 7h-19h-17q-21 -1 -34 0l-114 9l-114 8l-104 7l-104 8q-52 4 -25 50q25 42 55 84l45 62l45 62q56 78 89 124q59 86 123 188l105 172l104 172q22 36 37 52q38 42 43 101l4 54l3 54v19v10v10h-106h-104h-204z" />
    <glyph glyph-name="bracketleft" unicode="[" horiz-adv-x="427" 
d="M243 154q-26 3 -27 27l-4 87l-8 204l-6 204l-4 193l-2 193q-1 69 1 112q1 23 8 30q7 6 30 7h34h34l32 -1h33l-1 30v28v55q0 64 -60 78q-32 8 -77 11l-39 1l-39 2q-6 0 -14 -1l-13 -3q-47 -11 -52 -56q-6 -53 -6 -93v-137l-5 -204l-4 -204l-2 -163v-164l-2 -154v-154
q0 -16 4 -40l4 -20l4 -22h28l26 1l52 1l53 2l53 2l51 -1h26l26 -1v24v23q0 27 -2 44q-4 38 -40 46q-37 7 -92 13z" />
    <glyph glyph-name="backslash" unicode="\" horiz-adv-x="712" 
d="M232 1420l-2 5l-3 7l-88 -2l-89 -1l11 -35l10 -34l20 -66l45 -139l45 -140l44 -140l44 -140l21 -72l20 -72q26 -93 42 -144q24 -78 60 -190l62 -189l5 -16q4 -9 5 -16q4 -34 36 -35l56 -1q33 0 56 1q21 2 25 10q5 7 -1 31q-42 192 -138 497l-93 289l-93 288l-50 152z" />
    <glyph glyph-name="bracketright" unicode="]" horiz-adv-x="427" 
d="M93 141q-36 -8 -41 -46q-2 -17 -2 -44v-23v-24l27 1h26l51 1l53 -2l52 -2l52 -1l27 -1h28l3 22l4 20q4 24 4 40v154l-1 154l-1 164l-2 163l-4 204l-4 204v137q-1 40 -7 93q-5 45 -51 56l-14 3q-8 1 -14 1l-39 -2l-38 -1q-46 -3 -77 -11q-60 -14 -61 -78v-55v-28v-30h33
l31 1h34h35q23 -1 30 -7q7 -7 8 -30q2 -43 1 -112l-3 -193l-3 -193l-7 -204l-7 -204l-4 -87q-2 -24 -27 -27q-56 -6 -92 -13z" />
    <glyph glyph-name="asciicircum" unicode="^" horiz-adv-x="786" 
d="M504 1211l-96 188q-4 7 -12 18l-6 10l-8 11l-9 -17l-79 -167l-78 -168l-75 -164l-73 -165q-18 -40 24 -47l52 -7l53 -7q25 -4 36 18q51 94 139 252l5 9l4 9q7 9 17 9q9 -1 15 -11l4 -9l4 -9l39 -96l39 -96l8 -18l8 -17q10 -25 35 -28l70 -6q41 -4 69 -5q26 -1 37 16
q10 17 -1 41l-62 134q-36 79 -63 134q-40 79 -96 188z" />
    <glyph glyph-name="underscore" unicode="_" horiz-adv-x="1141" 
d="M983 -27l-50 3v-1l-110 2l-110 2l-309 3l-309 1q-26 0 -34 -3q-9 -4 -9 -19q-2 -26 0 -72q1 -23 12 -29t55 -8l105 -5l105 -5l120 -6l121 -6q121 -5 277 -9q56 -1 167 -1q20 0 42 4q35 7 32 26l-7 50l-7 50q-3 19 -41 20z" />
    <glyph glyph-name="grave" unicode="`" horiz-adv-x="341" 
d="M132 1403q-43 -24 -63 -79q-19 -56 -1 -103q11 -28 26 -63l27 -62q5 -11 13 -27l7 -13l8 -15l20 28l20 27q21 30 33 55l10 20l9 20q11 23 21 38q29 48 15 99q-15 52 -64 77q-41 21 -81 -2z" />
    <glyph glyph-name="a" unicode="a" horiz-adv-x="1044" 
d="M986 185l-6 84q-3 29 -10 36q-6 6 -34 4q-28 -1 -82 -1q-44 0 -61 46l-15 41l-16 41q-16 48 -22 84q-29 180 -40 339q-5 82 -7 203l-2 101l-2 101q-2 41 -5 74q-4 40 -14 51q-9 12 -42 18q-24 4 -58 8l-59 7q-104 13 -242 -49q-8 -3 -17 -11l-16 -13q-79 -68 -124 -182
q-31 -80 -58 -227v-70l-2 -71q-2 -87 -1 -146q3 -168 35 -315q36 -164 134 -283q49 -62 121 -54q65 7 112 18l23 6l23 6q25 8 44 17q48 22 77 62l2 3l4 3q25 23 44 21q18 -2 42 -31l18 -25q12 -16 19 -25q30 -36 67 -31q65 9 101 17q13 3 29 10l28 12q20 9 18 36z" />
    <glyph glyph-name="b" unicode="b" horiz-adv-x="647" 
d="M423 774q-25 19 -65 35l-35 13l-35 13q-49 20 -57 31q-8 12 -10 64l-3 179l-4 178l-2 58l-3 58q-1 25 -20 26l-62 4l-64 4l2 -53l1 -50q1 -58 2 -97l2 -137l2 -137q3 -160 1 -273q-2 -132 -9 -323l-7 -162l-6 -162q-1 -26 5 -34q7 -8 30 -9q121 -2 198 25q83 30 202 110
q71 48 85 122q26 136 19 214q-18 193 -167 303z" />
    <glyph glyph-name="c" unicode="c" horiz-adv-x="691" 
d="M636 509l-4 -29q-5 -33 -10 -55q-17 -89 -41 -197q-29 -133 -162 -209q-72 -42 -141 10q-100 76 -158 222q-68 172 -69 391q-1 255 31 429q23 118 88 247q10 20 34 39l21 15l22 14l12 8l13 6q17 9 25 14q58 40 151 5q92 -34 115 -103q49 -148 69 -271q4 -23 -10 -37
q-11 -10 -16 -19q-16 -32 -61 -27q-31 4 -45 45q-21 69 -42 118q-16 38 -49 53q-32 14 -71 1q-92 -32 -107 -107q-18 -89 -37 -227q-11 -75 -3 -177q3 -34 9 -89l9 -88q6 -60 13 -100q13 -71 66 -97q34 -17 69 -8t58 39q26 35 41 79q9 23 24 58l12 29l12 29q11 27 39 25
q18 -2 47 -3l25 -2l26 -1z" />
    <glyph glyph-name="d" unicode="d" horiz-adv-x="787" 
d="M737 1332l-1 -82l-5 -582l-36 -668q-113 3 -185 12q-32 4 -80 32q-103 62 -171 109q-67 48 -112 144q-22 48 -42 104q-55 157 29 318q73 140 230 169q62 12 168 17q35 1 40 7q6 6 5 40l-7 124l-6 125l-4 116l-3 115q0 2 2 23l10 1l9 1q9 1 16 1l104 -4q27 -1 33 -7
q6 -7 6 -34v-81z" />
    <glyph glyph-name="e" unicode="e" horiz-adv-x="672" 
d="M592 488l1 -10q1 -11 0 -17l-8 -60l-8 -59q-10 -69 -19 -119q-14 -70 -72 -147q-32 -41 -109 -66q-52 -16 -124 -6q-49 7 -84 57q-45 64 -60 140q-35 185 -47 373q-12 187 -1 287q21 204 86 368q12 31 37 73l22 35l22 35q3 6 10 10q52 38 125 69l16 -9l15 -8
q16 -9 27 -14q109 -49 158 -172q43 -110 4 -225q-85 -249 -279 -427l-28 -27q-18 -17 -29 -27q-18 -15 -16 -41q9 -96 62 -193q23 -41 55 -65q30 -22 53 -14t30 45l18 80q9 46 14 81q6 40 41 46l21 4l21 6q26 7 45 7z" />
    <glyph glyph-name="f" unicode="f" horiz-adv-x="681" 
d="M442 1470q-41 5 -81 -20q-26 -17 -36 -31q-23 -35 -34 -53q-18 -29 -30 -54q-41 -83 -55 -239l-11 -132l-10 -132q-2 -25 -9 -32q-6 -7 -30 -13q-26 -6 -69 -14q-27 -6 -24 -35l6 -44l7 -44q4 -25 30 -21l23 6l24 6q29 5 37 -2q9 -7 10 -36q0 -76 -4 -147l-6 -101
q-4 -56 -8 -100q-11 -111 -30 -198q-1 -5 -1 -13l-1 -8v-9l157 -4q89 615 66 676q8 4 37 8l70 12q26 5 25 27l-1 25l-2 26q-2 29 -11 50q-15 3 -33 1l-17 -2l-16 -2q-44 -8 -67 -2l-1 8l-2 8q-1 8 -2 14l-4 298q0 14 5 33q12 51 63 51q48 1 74 -27l25 -29l1 -1l37 -46l51 42
l13 11l23 18q-24 102 -63 167q-15 26 -31 45q-13 14 -26 24q-29 31 -69 35z" />
    <glyph glyph-name="g" unicode="g" horiz-adv-x="618" 
d="M557 1366l2 28l1 28q0 38 -35 37l-52 -3q-30 -1 -52 -5q-58 -9 -98 -37l-23 -14l-22 -14q-28 -17 -44 -29q-46 -34 -67 -60q-18 -22 -39 -54l-18 -28l-18 -28q-38 -59 -28 -102q1 -3 1 -10v-11q1 -101 18 -184q20 -96 93 -166q90 -86 205 -106q32 -6 39 -15q6 -9 1 -42
q-27 -176 -105 -291q-38 -56 -93 -20q-25 17 -34 34q-13 23 -26 54l-24 54q-8 18 -13 21q-6 4 -23 1q-36 -5 -44 -17q-9 -11 -3 -48q16 -102 65 -210q54 -116 202 -129q29 -2 48 16q60 54 88 137q48 143 78 317q18 106 24 246q2 52 4 123l2 124q1 82 -2 201l-2 101l-2 101
h-4z" />
    <glyph glyph-name="h" unicode="h" horiz-adv-x="674" 
d="M484 0q-11 71 -15 162l-1 82l-1 82v51q0 30 -2 52q-5 42 -19 78q-9 23 -34 36q-32 17 -68 9q-34 -7 -60 -34q-19 -19 -22 -53l-19 -176l-23 -227l-1 -22v-22q0 -11 -3 -18h-154q-1 8 -1 19l8 102l7 102q9 120 11 204q8 264 -17 685l-19 316q-1 26 5 32q6 7 31 7h74
q24 -1 30 -6q6 -6 7 -30l8 -163q4 -96 6 -164l4 -190l2 -189q0 -2 5 -45q10 5 22 13l10 6l10 6q21 13 35 21q67 38 130 8q11 -5 16 -10q101 -100 120 -193q31 -152 37 -296q2 -50 8 -117l6 -59l7 -59h-140z" />
    <glyph glyph-name="i" unicode="i" horiz-adv-x="297" 
d="M227 503l3 98l3 97l4 150l4 149q0 24 -6 31q-6 6 -30 6q-30 0 -74 -2l-38 -1l-41 -1v-36v-32l2 -67v-67q-1 -158 8 -387l8 -194l8 -194q1 -48 47 -52q29 -3 67 3q55 8 49 69l-6 59l-5 59q-6 67 -6 117q0 80 3 195zM212 1277q31 42 33 95q1 22 -41 73q-28 34 -76 26
q-53 -8 -63 -54q-15 -65 12 -113q13 -23 52 -36q39 -14 63 -4q14 5 20 13z" />
    <glyph glyph-name="j" unicode="j" horiz-adv-x="659" 
d="M589 1110l-166 -9v-77v-77q0 -89 -3 -153q-12 -254 -60 -416q-11 -35 -25 -41q-9 -3 -47 5q-9 1 -18 10q-9 7 -15 17q-30 47 -41 79q-6 16 -10 42l-4 21l-4 21q-4 18 -11 22t-25 -1l-32 -9l-32 -10q-30 -10 -38 -21t-5 -42q2 -21 7 -52l9 -53q26 -143 119 -285
q11 -16 29 -34l17 -15l17 -14q29 -25 63 -15q123 33 170 122q78 146 101 361q24 222 11 488q-3 71 -7 136zM549 1285q31 42 32 94q1 23 -41 74q-28 34 -75 26q-53 -9 -64 -54q-15 -66 12 -113q14 -23 52 -37q39 -14 64 -4q14 6 20 14z" />
    <glyph glyph-name="k" unicode="k" horiz-adv-x="839" 
d="M780 91l-1 10l-10 53l-10 53q-1 6 -4 14l-3 7l-4 9l-38 -5q-22 -3 -37 -4q-79 -5 -121 42l-15 15l-14 15q-17 18 -26 32q-68 104 -108 177q-15 28 -33 68l-14 35l-15 35q-17 42 12 66l118 99q68 56 120 97q72 56 118 129q24 38 -11 65q-13 10 -33 24l-35 24l-5 -4l-5 -4
l-8 -7l-59 -58l-59 -58q-82 -80 -159 -151q-7 -7 -21 -16l-12 -8l-12 -9q-6 16 -8 34v16v15l6 203l4 203q0 32 -2 81l-1 42l-2 43h-14h-13h-22l-48 -1h-49q-49 1 -58 -8t-7 -60l5 -214q2 -124 2 -213q0 -90 -4 -227l-3 -113l-3 -113l-9 -485q0 -26 5 -31q5 -6 32 -7
q62 -2 140 0q21 0 27 7q6 6 5 28l-3 193l-4 139l-4 138v20l2 21q14 -5 17 -12l14 -30q7 -17 11 -30q55 -172 175 -329q64 -84 135 -121q44 -22 87 -17l12 1q3 0 6 1q4 0 9 1q12 1 23 4q33 9 50 28z" />
    <glyph glyph-name="l" unicode="l" horiz-adv-x="472" 
d="M89 1472l30 -3q34 -3 57 -5q25 -1 28 -27l2 -28l10 -285l10 -285q2 -71 3 -196l1 -97l2 -98q2 -67 12 -121q6 -27 31 -68q18 -28 67 -25l53 4q24 2 24 -20l3 -82v-83q0 -31 -33 -36l-30 -5l-30 -5q-36 -6 -61 -7q-93 -2 -135 84q-62 127 -72 261q-9 118 -11 278v139v139
q0 110 2 267l2 267l1 18l1 10l1 11z" />
    <glyph glyph-name="m" unicode="m" horiz-adv-x="1331" 
d="M1180 1016q-18 104 -52 187q-21 53 -59 109q-14 22 -34 50l-36 48q-37 50 -96 52q-42 2 -72 -17q-18 -11 -37 -30q-12 -11 -33 -35q-82 -94 -123 -167q-18 -30 -44 -53q-14 -12 -23 -9q-8 3 -17 22l-22 50l-22 50l-19 44q-11 27 -20 45q-21 43 -68 81l-5 1l-14 4l-20 2
q-27 1 -54 -5q-75 -19 -138 -99q-71 -91 -97 -394l-7 -171l-3 -128l-3 -127l-6 -225l-5 -225q-1 -52 10 -65t54 -9h7l1 1q39 -6 64 0q4 483 15 766l6 64q4 39 15 91l9 45l11 45q6 28 23 37q17 10 35 -4q75 -60 96 -128l39 -126l40 -125l-1 -2l58 -186h68q1 18 4 45q2 9 3 21
l1 10l1 10q25 256 88 460q15 47 48 56l41 11q24 6 42 9q29 5 55 -18q124 -111 157 -261l8 -40l8 -39q9 -51 16 -78q17 -71 29 -167l9 -84l9 -84q3 -28 5 -69l3 -68l3 -57l4 -58l2 -70q136 -18 141 0q3 9 -10 167q-5 61 -12 142q-5 63 -11 134q-25 345 -65 564z" />
    <glyph glyph-name="n" unicode="n" horiz-adv-x="961" 
d="M845 302l-7 86l-8 86q-9 100 -20 172q-23 155 -80 434q-7 35 -21 80l-13 39l-14 39q-45 131 -178 176q-78 25 -129 38q-146 36 -240 -35q-18 -14 -47 -30q-38 -21 -37 -67l-1 -227v-226q2 -319 7 -658q0 -25 5 -69l-3 -1l6 -127q171 8 171 0q0 2 -1 40q-1 27 -2 78l1 27
v27l-1 98l-3 98l-4 78l-5 78q-5 95 -5 155q0 158 14 346q10 137 56 199q55 75 131 32q75 -43 105 -99q75 -139 110 -347q7 -43 12 -108l3 -54l4 -54l15 -173l15 -172q9 -96 66 -184q37 -56 90 -73q42 -13 53 28l7 31l6 31q8 39 -15 71q-36 50 -43 137z" />
    <glyph glyph-name="o" unicode="o" horiz-adv-x="857" 
d="M761 477l9 38l9 38q20 94 26 169q2 61 -3 111q-6 68 -25 124q-25 76 -77 203q-21 51 -44 82q-83 108 -196 167q-89 46 -156 4l-15 -9l-15 -9q-17 -10 -27 -22q-144 -183 -176 -406q-21 -146 -16 -293q8 -213 59 -343q50 -126 112 -209q86 -116 244 -122q50 -2 83 37
l21 25l23 25q106 123 132 251l8 32l8 32q6 28 16 75z" />
    <glyph glyph-name="p" unicode="p" horiz-adv-x="668" 
d="M357 1405q-161 61 -268 49q-26 -3 -32 -11q-7 -8 -1 -34l5 -26l6 -26q6 -30 7 -52q14 -176 22 -322q11 -233 14 -386q2 -97 3 -254l2 -253q1 -17 3 -41l3 -21l2 -22q54 -9 127 -4q23 1 24 25v19q-4 100 3 231l9 114l9 115q3 45 35 77q76 77 113 120q68 78 103 129
q21 31 31 51q16 30 19 55q22 171 -32 272q-77 144 -207 195z" />
    <glyph glyph-name="q" unicode="q" horiz-adv-x="970" 
d="M819 416l-4 -3l-37 -33l-36 -32q-43 -38 -75 -62q-19 -14 -47 -28q-18 -8 -52 -21q-26 -10 -35 -4q-9 7 -9 34l2 58l4 58l5 150q4 89 8 149q17 288 -9 594q-3 27 -2 68v33l1 34l-2 16l-2 14q-130 21 -266 -24q-30 -10 -49 -32l-27 -32l-27 -32q-29 -38 -48 -69
q-52 -87 -56 -180q-6 -109 39 -231q15 -41 48 -74q88 -88 206 -135q40 -16 36 -52v-13l1 -13l-5 -142l-4 -142q-3 -109 -3 -194h-3l1 -74l89 -2v0q37 15 87 41q63 32 122 69q161 102 249 209l1 5l-47 47l-49 48z" />
    <glyph glyph-name="r" unicode="r" horiz-adv-x="780" 
d="M674 1428l-26 6q-31 6 -53 6q-95 1 -263 -6q-75 -3 -179 -43q-33 -13 -33 -46q0 -94 -2 -150l-5 -145l-4 -144q-7 -169 -14 -289q-6 -106 -20 -261l-12 -131l-11 -130q-1 -9 -2 -20v-9v-7l13 -10l11 -10l20 -15l12 -6l12 -7q14 -7 25 -8q16 -3 37 -3l38 1q28 1 40 12
q13 10 19 37l3 16l1 16q13 144 15 338l1 169v169v154l1 153q1 64 47 141q22 35 66 45q69 14 141 4l47 -6l47 -7q24 -2 35 5q12 7 18 29q7 27 16 66l8 33l7 34l-9 5l-8 3q-8 4 -13 5z" />
    <glyph glyph-name="s" unicode="s" horiz-adv-x="873" 
d="M685 1417q-11 13 -21 21q-13 10 -25 11q-132 21 -209 -20q-141 -76 -192 -269q-1 -5 -1 -15q2 -97 29 -154q44 -95 74 -146q30 -49 70 -112l73 -111q50 -78 44 -155q-4 -39 -5 -84q0 -31 -22 -51l-41 -38l-40 -37q-3 -3 -8 -5l-9 -3q-53 -16 -95 34q-16 19 -34 46l-16 24
l-15 24q-12 18 -28 46l-13 24l-15 25l-68 -25l-33 -12l-35 -13l4 -13l4 -12q5 -13 9 -21l24 -47l24 -47q28 -54 52 -92q55 -89 130 -154q64 -55 140 -26q149 56 177 179q12 51 46 92q20 24 21 60q4 222 -89 431q-13 28 -31 62l-34 60l-55 96l-56 96q-9 16 -9 35q1 32 22 60
q22 29 52 38q34 11 90 19q55 9 87 -36q16 -21 43 -63q31 -47 74 -15q10 7 23 22l12 13l13 13l-11 25l-11 24q-12 27 -19 46q-30 76 -97 150z" />
    <glyph glyph-name="t" unicode="t" horiz-adv-x="778" 
d="M641 377q-14 -25 -28 -48q-19 -30 -39 -54q-52 -64 -99 -74q-60 -12 -88 36q-13 24 -15 51l-8 27q-3 16 -4 29q-8 164 -15 356q0 8 3 20l2 10l2 12q11 -1 23 -3l19 -2l50 -5q29 -4 49 -5q42 -1 47 35q8 75 0 132l-39 5l-38 6q-37 5 -44 14q-7 8 -5 44l1 7l29 448l1 21v11
v11q-31 4 -75 9l-36 4l-37 4l-1 -14l-2 -13q-2 -15 -3 -25l-32 -448q-1 -6 -3 -15l-2 -8l-2 -9l-94 15l-95 16l-2 -9l-2 -9q-2 -9 -2 -15q-4 -57 -6 -103q-1 -28 5 -35q5 -7 34 -14l48 -10l49 -10q21 -4 27 -10q5 -6 7 -27l1 -12v-11l2 -146q1 -86 4 -145q4 -104 19 -195
q20 -118 102 -193q31 -28 69 -32t72 18q59 40 160 118q23 18 34 41q8 20 19 50l8 26l9 25q8 22 -11 37q-23 21 -68 61z" />
    <glyph glyph-name="u" unicode="u" horiz-adv-x="1077" 
d="M966 206l-21 7q-23 10 -38 20q-86 61 -95 178q-3 38 -4 88l-1 89l-1 208q0 127 -2 209q-5 239 -27 417q-5 41 -33 47q-44 10 -131 1l3 -31l3 -29l5 -57q26 -251 13 -405q-5 -56 -10 -145l-10 -146l-4 -43l-4 -43q-5 -52 -5 -86q2 -96 -31 -189q-10 -30 -44 -57
q-36 -27 -66 -27q-33 0 -50 5q-27 8 -39 32q-38 76 -54 131q-74 256 -94 494q-9 102 -18 254l-8 127l-7 126l-3 32l-2 16l-2 16l-67 -4q-38 -3 -68 -5v-9l-1 -7v-13l6 -179l7 -179l3 -79l2 -78q4 -92 10 -158q8 -93 30 -210l22 -104l23 -104q19 -85 84 -194
q68 -115 202 -122q99 -4 165 48q24 19 55 47l55 49q18 16 29 15t26 -19l10 -14l10 -13q12 -17 21 -26q65 -73 141 -77q65 -4 72 55q3 23 3 58v29l1 29l-12 5l-10 4l-19 8z" />
    <glyph glyph-name="v" unicode="v" horiz-adv-x="951" 
d="M822 1499l-42 3q-30 3 -38 -3t-15 -37l-16 -78l-16 -78l-54 -267l-55 -266l-39 -180l-39 -180q-2 -8 -7 -22l-5 -12q-3 -8 -5 -15q-17 33 -18 34l-17 59q-10 33 -14 58l-18 100l-17 101q-21 122 -40 199q-25 109 -67 265l-36 132l-35 132q-2 5 -5 11l-2 6l-3 7l-83 -1
h-86q1 -6 3 -13l2 -11q2 -11 4 -18q101 -335 228 -910l34 -156q20 -92 36 -155q9 -34 24 -76l14 -38l14 -37q20 -49 64 -53l6 15l5 14l42 137q24 80 40 136l94 337l94 337q25 85 64 219l65 218q4 15 9 37l4 19l5 20l-11 2l-10 2q-10 2 -16 3z" />
    <glyph glyph-name="w" unicode="w" horiz-adv-x="1182" 
d="M1011 1472l-3 -35l-2 -35q-30 -517 -137 -1005l-5 -18l-5 -16q-29 0 -36 3q-8 2 -26 19q-112 105 -190 256l-34 68l-33 69q-16 33 -38 34q-21 2 -42 -29q-21 -32 -32 -60q-12 -28 -26 -68l-24 -68l-24 -67l-23 -66l-3 -10q-3 -6 -5 -9q-7 -10 -22 -10l-4 24q-3 14 -3 24
l-10 175l-9 176q-11 208 -28 350l-15 125l-14 125q-3 23 -8 27q-5 5 -28 6q-54 0 -87 -1q-32 -1 -39 -9q-6 -7 -3 -39l14 -138q7 -81 11 -139q26 -395 85 -770q28 -180 66 -286q5 -15 15 -37l9 -18l9 -20l9 4l9 3q9 4 12 8l23 34l22 34q25 40 41 71q25 47 59 119l29 61
l28 60l6 12q3 7 6 12q9 13 25 17l14 -18q8 -12 13 -20l28 -49l28 -48q34 -59 59 -97q22 -34 54 -75l29 -37l29 -37q14 -17 46 -33q29 -14 40 16l12 32l11 32q70 216 102 391q24 134 57 369q32 224 77 575q2 15 2 36h-121z" />
    <glyph glyph-name="x" unicode="x" horiz-adv-x="986" 
d="M829 1240l93 217q3 6 7 17l3 10l4 11l-23 1h-23q-26 0 -43 2q-44 7 -64 -38l-79 -169l-79 -170l-77 -163q-17 -35 -54 -34q-69 112 -139 274q-24 55 -59 143l-29 72l-30 71q-68 -2 -126 -4l4 -28l4 -28q4 -31 9 -52q66 -238 198 -484l63 -117q23 -41 1 -82l-35 -67
l-35 -67l-258 -500q-3 -5 -6 -14l-3 -8l-3 -10l12 -2l11 -3q12 -2 20 -3h15h15q19 0 30 -2q58 -10 85 50q17 36 44 92l45 92l61 129l62 130q11 23 20 36q20 26 40 0q7 -8 14 -20l11 -22q23 -46 43 -113l16 -58l16 -58q13 -44 30 -111l29 -112q7 -25 17 -33q9 -8 35 -11
l38 -2l38 -2q36 -3 57 26l-2 8l-2 9l-31 97q-18 58 -30 97l-45 158l-43 159l-28 102l-28 102q-14 52 10 98q42 80 80 167z" />
    <glyph glyph-name="y" unicode="y" horiz-adv-x="692" 
d="M611 1451q-2 15 -4 21h-136q-3 -6 -8 -27q-4 -19 -9 -48l-7 -47l-4 -25v-7q2 -111 -66 -176q-64 -60 -125 -34q-47 20 -69 152q-11 65 -13 127q1 0 2 1l-9 49l-2 11q-2 6 -4 10q-6 10 -19 10q-16 0 -41 -1l-21 -1h-23q0 -21 -1 -51l-1 -49q-1 -56 2 -94q4 -56 14 -136
l8 -68l8 -68l1 -4l1 -3l15 -27l15 -27q18 -31 33 -51q60 -79 142 -18q24 18 60 47l59 47l9 7l9 6q23 13 30 -10q9 -27 10 -51q12 -174 -11 -371q-19 -153 -61 -247l-6 -16q-4 -10 -7 -15q-15 -27 -44 -36q-28 -8 -56 6q-31 15 -49 67q-25 69 -44 142q-13 47 -59 126l-62 -33
q-1 -13 1 -24q13 -103 26 -158q46 -191 99 -287v0q20 -21 42 -36q29 -20 59 -28q78 -22 148 37l4 7q66 108 93 234q41 188 59 336q43 333 20 712z" />
    <glyph glyph-name="z" unicode="z" horiz-adv-x="740" 
d="M459 188l-53 7q-33 4 -54 8q-24 5 -30 14t0 34q19 77 39 134l34 103l35 103q41 118 73 204q21 55 56 133l30 66l30 65q71 158 41 310q-9 44 -20 54q-11 9 -55 13q-231 18 -445 12l-25 -1l-13 -1h-15l1 -32l1 -31q1 -33 2 -56q2 -27 29 -27q15 -1 25 -5h3h4h12q17 1 35 1
q54 1 97 2q134 0 134 -7q0 -6 -3 -21l-2 -13l-3 -12l-1 -5v-3q-1 -2 -1 -3q-8 -35 -29 -101l-12 -30l-7 -14l-5 -15l-85 -260l-84 -260q-13 -42 -36 -106l-19 -53l-19 -53q-44 -126 -59 -216q-15 -91 71 -102l67 -9q81 5 251 -3q60 -2 127 -6l50 -4q19 -1 37 -2q1 14 -2 35
q-4 23 -12 57l-6 28l-7 29q-70 23 -182 39z" />
    <glyph glyph-name="braceleft" unicode="{" horiz-adv-x="564" 
d="M476 1431q-6 -1 -10 -3l-70 -35q-41 -20 -69 -37q-82 -46 -138 -152q-45 -86 -35 -190q4 -42 8 -123q2 -32 -17 -53q-21 -23 -48 -59l-24 -31l-23 -31q15 -31 56 -63l17 -13l16 -14q19 -15 31 -29l-8 -13l-7 -14l-13 -24l-13 -24q-15 -29 -23 -50q-35 -90 -16 -164
q25 -93 99 -172q62 -65 194 -129q12 -6 26 -8q39 -4 40 36l-1 17v17q-1 22 0 35q2 25 -25 46l-25 21l-25 20q-29 24 -48 44q-86 88 -46 189l12 33q8 18 15 31q38 66 81 133q15 23 15 31t-16 28l-25 30l-25 31q-15 17 -1 37l11 17l12 16q18 25 9 56q-19 67 -15 160
q3 73 50 110q16 13 40 35l19 18l20 17q33 29 28 73q-4 31 -11 75l-6 38l-6 38z" />
    <glyph glyph-name="bar" unicode="|" horiz-adv-x="260" 
d="M50 1577h160v-1995h-160v1995z" />
    <glyph glyph-name="braceright" unicode="}" horiz-adv-x="564" 
d="M79 1432l-6 -38l-6 -38q-7 -44 -11 -75q-6 -44 28 -73l19 -17l19 -18q25 -22 40 -35q48 -37 51 -110q3 -93 -15 -160q-9 -31 9 -56l11 -16l11 -17q14 -20 -1 -37l-24 -31l-25 -30q-17 -20 -17 -28t15 -31q43 -67 81 -133q7 -13 15 -31l13 -33q40 -101 -46 -189
q-20 -20 -48 -44l-26 -20l-25 -21q-27 -21 -24 -46q1 -13 0 -35l-1 -17v-17q1 -40 39 -36q14 2 27 8q132 64 193 129q74 79 99 172q20 74 -16 164q-8 21 -23 50l-13 24l-12 24l-8 14l-8 13q12 14 31 29l17 14l16 13q41 32 56 63l-23 31l-23 31q-28 36 -48 59q-20 21 -18 53
q4 81 8 123q10 104 -35 190q-56 106 -137 152q-29 17 -70 37l-70 35q-3 2 -10 3z" />
    <glyph glyph-name="asciitilde" unicode="~" horiz-adv-x="906" 
d="M788 756l-12 -6q-13 -6 -21 -11q-55 -30 -133 -50q-19 -4 -32 4l-30 18l-31 18q-36 21 -59 36q-69 45 -167 77q-47 15 -100 5q-30 -6 -66 -21l-32 -15l-32 -15q-5 -2 -9 -9q-4 -6 -5 -12l-5 -64l-4 -64q0 -4 1 -10l2 -5l2 -6q12 4 26 11l11 7l11 7l47 30l48 30
q41 25 106 11q16 -4 35 -15l16 -11l16 -12q17 -12 43 -34l20 -18l21 -18l30 -23q17 -13 31 -21l20 -12q11 -6 21 -10q24 -10 45 -7q77 9 121 29q16 8 40 17l41 15l15 6q9 3 15 7q22 13 14 35q-9 23 -23 55l-12 28l-12 29z" />
    <glyph glyph-name="exclamdown" unicode="&#xa1;" horiz-adv-x="346" 
d="M75 0l56 3l55 2q69 3 110 5v11v9v17l-14 206l-14 205q-7 105 -14 244q-8 149 -12 266v45l1 45q1 42 -36 38q-26 -2 -60 -8l-59 -11q-21 -3 -22 -30v-32v-33q-9 -394 4 -827l1 -52l1 -53l1 -23l1 -13zM231 1251v17v19q7 36 -15 62q-15 16 -53 38q-28 16 -57 3l-12 -3
l-12 -3q-28 -6 -29 -31q-3 -48 -1 -77q6 -56 52 -74q59 -22 108 13q18 13 19 36z" />
    <glyph glyph-name="cent" unicode="&#xa2;" horiz-adv-x="1139" 
 />
    <glyph glyph-name="sterling" unicode="&#xa3;" horiz-adv-x="734" 
d="M623 240l-29 -1l-57 -2q-129 -4 -206 -5q-21 0 -26 5q-6 5 -7 23l-12 219q0 10 1 21q4 37 39 42l32 4l31 3l94 11l93 12q32 4 30 38l-8 99l-3 13l-3 14h-16h-15h-29l-120 2l-119 4q-25 1 -30 5q-5 5 -6 30l-2 140q-1 79 0 141q1 22 8 52l6 26l7 26q3 16 13 23
q39 28 81 53q20 13 46 -1q8 -4 20 -9l22 -6q40 -13 50 -44q3 -9 9 -20q18 -34 31 -40q13 -7 50 1q18 3 35 10q25 8 28 32q0 6 4 14l4 8l4 9q-27 77 -86 144q-64 72 -180 82q-78 7 -129 -24q-70 -42 -116 -105q-52 -73 -69 -161q-17 -89 -21 -147q-22 -283 4 -609
q3 -43 10 -109l13 -108l4 -48q2 -30 5 -48q5 -28 14 -37q10 -10 37 -12l85 -7q47 -4 84 -3q59 1 141 6l141 9q18 1 35 6q20 6 29 31q10 25 3 65l-12 62l-12 63z" />
    <glyph glyph-name="currency" unicode="&#xa4;" horiz-adv-x="869" 
d="M278 560q41 -40 99 -57q29 -8 58 -8t58 8q58 17 99 57q40 41 57 99q9 29 9 58t-9 58q-17 58 -57 99q-41 40 -100 57q-29 8 -58 8t-58 -9q-58 -17 -98 -56q-39 -40 -56 -98q-10 -30 -10 -60q0 -28 9 -56q16 -59 57 -100zM168 903l-118 118l80 81l118 -118q44 30 99 46
q44 14 89 14q41 0 83 -12q57 -17 102 -48l118 118l80 -81l-117 -117q31 -46 48 -102q12 -42 12 -85q0 -42 -12 -85q-17 -56 -48 -102l117 -117l-80 -81l-118 118q-45 -32 -101 -48q-42 -12 -85 -12q-42 0 -85 12q-57 16 -102 48l-118 -118l-80 81l118 117q-32 46 -48 103
q-12 42 -12 84q0 44 13 87q16 55 47 99z" />
    <glyph glyph-name="yen" unicode="&#xa5;" horiz-adv-x="1366" 
d="M589 225l-2 242q0 19 -1.5 35t-4.5 32l-484 1q-14 0 -21 6.5t-7 19.5t6.5 19t21.5 6h467l-121 172h-344q-17 0 -23.5 5.5t-6.5 18.5q0 14 6 19.5t22 5.5h307q-43 57 -108 155q-131 197 -227 197q-7 0 -13 5.5t-6 11.5q0 19 10.5 27.5t32.5 8.5q27 0 123 -8t164 -8h88
q33 0 41 -6.5t8 -26.5q0 -8 -15 -14t-38 -6q-6 0 -18.5 2t-18.5 2q-24 0 -37.5 -9.5t-13.5 -25.5q0 -18 16.5 -52t46.5 -77l158 -221q13 -19 33 -53q41 -70 71 -70q9 0 16.5 5t14.5 15l277 396q8 12 13 26.5t5 24.5q0 18 -10 27t-37 14q-15 2 -41 4q-47 3 -47 25
q0 15 8 22.5t25 7.5q3 0 15 -1q56 -7 108 -7h139q30 0 65 1t37 1q11 0 18.5 -4.5t8.5 -11.5q0 -28 -38 -34q-18 -3 -27 -5q-63 -15 -147 -117q-7 -9 -12 -15l-169 -206h323q15 0 24 -6t9 -17q0 -15 -6 -20.5t-23 -5.5h-366q-46 -57 -96.5 -112.5t-52.5 -59.5h511
q18 0 25.5 -5.5t7.5 -17.5q0 -14 -7 -21t-22 -7h-530q0 -11 -1 -30.5t-1 -29.5l2 -215q0 -114 5.5 -150t20.5 -44q30 -17 107.5 -19t77.5 -31q0 -12 -10 -20t-25 -8q-2 0 -35.5 4t-64.5 4q-91 0 -208.5 -4t-142.5 -4q-31 0 -40 4t-9 16t8 18.5t37 12.5q9 2 25 5q74 16 92 32
q17 13 24 47t7 102z" />
    <glyph glyph-name="brokenbar" unicode="&#xa6;" horiz-adv-x="260" 
d="M50 371h160v-789h-160v789zM50 1578h160v-789h-160v789z" />
    <glyph glyph-name="section" unicode="&#xa7;" horiz-adv-x="774" 
d="M425 321q56 16 97 53q73 65 73 166q0 5 -1 10h-2q-1 14 -4 27q-22 61 -113 127q-59 29 -126 29q-78 0 -125 -44.5t-47 -117.5q0 -123 248 -250zM346 -346q113 6 185 69q72 64 72 165q0 125 -316 276q-123 64 -175.5 137t-52.5 177q0 148 89 237q67 65 170 82l-40 19
q-123 64 -175.5 137t-52.5 177q0 148 89 237q82 79 216 86q8 1 17 1h3q66 0 163 -16.5t97 -41.5v-194h-51q-5 81 -80 132q-70 47 -149 51h-15q-78 0 -125 -44.5t-47 -117.5q0 -132 287 -269q149 -67 204.5 -143.5t55.5 -187.5q0 -171 -101 -282q-47 -39 -99 -64
q108 -56 154 -118q55 -77 55 -187q0 -171 -101 -283q-124 -102 -277 -105v1q-6 -1 -13 -1h-3q-66 0 -163 16.5t-97 41.5v194h51q5 -81 80 -132q68 -45 145 -50z" />
    <glyph glyph-name="dieresis" unicode="&#xa8;" horiz-adv-x="681" 
d="M64 1289l71 72q13 12 25 12q11 0 27 -14l69 -73q10 -14 10 -25q0 -13 -12 -27l-69 -75q-17 -17 -25 -17q-14 0 -25 12l-76 86q-9 12 -9 23q0 13 14 26zM429 1289l71 72q13 12 25 12q11 0 27 -13l69 -74q10 -14 10 -25q0 -13 -12 -26l-69 -76q-17 -17 -25 -17
q-14 0 -25 12l-76 87q-9 11 -9 22q0 13 14 26z" />
    <glyph glyph-name="copyright" unicode="&#xa9;" horiz-adv-x="1221" 
d="M906 599l-15 -38l-14 -38l-7 -16l-6 -17q-23 -64 -116 -126l-8 -5q11 21 16 48q16 88 17 136l1 35v35q0 17 -18 18l-29 2l-30 1l-2 -17l-4 -17l-3 -26l-4 -26q-5 -31 -14 -51q-8 -16 -34 -33l-2 -1h-3l-8 4l-9 3q-10 4 -15 11q-19 23 -25 69l-8 71l-8 71q-11 93 16 176
l5 16l5 15q8 17 19 28q17 17 32 14q15 -4 21 -28l10 -38q3 -13 17 -12h22l22 2q13 1 12 15l-1 8l-1 9q-1 47 -27 103q50 -23 89 -53q21 -16 39 -42q45 -64 67 -102q16 -29 22 -63q4 -25 3 -56q-6 -38 -24 -85zM277 660q-5 74 14 148q28 112 154 205q8 6 23 11l13 4l13 5
q17 6 35 9q-17 -25 -31 -69q-24 -78 -27 -189q-3 -150 18 -339q2 -16 8 -26q24 -45 42 -73q5 -8 13 -18q-76 15 -127 54q-53 41 -97 105q-44 66 -51 173zM1013 1092q-31 44 -66 71q-123 92 -290 143q-132 40 -231 3l-22 -7l-22 -8q-26 -9 -39 -19q-215 -157 -262 -349
q-31 -125 -23 -252q11 -182 87 -294q74 -109 165 -180q129 -100 362 -105q74 -2 122 32l33 22l33 21q157 106 196 215l12 28q8 18 11 28q9 23 25 64l13 32l12 34q30 80 40 145q2 52 -5 95q-9 58 -37 106q-37 65 -114 175z" />
    <glyph glyph-name="ordfeminine" unicode="&#xaa;" horiz-adv-x="648" 
 />
    <glyph glyph-name="guillemotleft" unicode="&#xab;" horiz-adv-x="769" 
d="M50 479l342 303h14v-37l-205 -266l205 -266v-37h-14zM363 479l342 303h14v-37l-205 -266l205 -266v-37h-14z" />
    <glyph glyph-name="logicalnot" unicode="&#xac;" horiz-adv-x="940" 
d="M50 767h840v-491l-1 -1h-98v392h-741v100z" />
    <glyph glyph-name="registered" unicode="&#xae;" horiz-adv-x="1221" 
d="M906 611l-15 -38l-14 -38l-7 -16l-6 -17q-8 -20 -23 -42l-1 2l-8 -9q-30 -18 -57 -17q-21 2 -38 16q-20 17 -29 40l-111 211q33 40 49 67q31 50 41 79q17 52 10 135q-1 22 -17 41q67 -27 119 -66q21 -16 39 -42q45 -64 67 -102q16 -29 22 -63q4 -25 3 -56q-6 -38 -24 -85
zM571 337l1 4v7l-8 181l-2 35l-2 35v5l1 5q5 -8 10 -19l8 -19q12 -33 34 -75l19 -36l19 -36q20 -38 46 -67l1 -1l3 -3l6 -4q-28 -18 -69 -17q-35 1 -67 5zM277 672q-5 74 14 148q28 112 154 205q8 6 28 13l5 -114q2 -48 3 -107l1 -331l1 -125q-33 13 -58 33q-53 41 -97 105
q-44 66 -51 173zM1013 1104q-31 44 -66 71q-123 92 -290 143q-132 40 -231 3l-22 -7l-22 -8q-26 -9 -39 -19q-215 -157 -262 -349q-31 -125 -23 -252q11 -182 87 -294q74 -109 165 -180q129 -100 362 -105q74 -2 122 32l33 22l33 21q157 106 196 215l12 28q8 18 11 28
q9 23 25 64l13 32l12 34q30 80 40 145q2 52 -5 95q-9 58 -37 106q-37 65 -114 175z" />
    <glyph glyph-name="macron" unicode="&#xaf;" horiz-adv-x="670" 
 />
    <glyph glyph-name="degree" unicode="&#xb0;" horiz-adv-x="656" 
d="M329 1372q-86 0 -147.5 -61t-61.5 -148t61 -147t148 -60t147 60t60 147t-60.5 148t-146.5 61zM329 1442q115 0 196 -81.5t81 -196.5q0 -114 -82 -196t-197 -82q-117 0 -197 81t-80 197t81.5 197t197.5 81z" />
    <glyph glyph-name="plusminus" unicode="&#xb1;" horiz-adv-x="1014" 
 />
    <glyph glyph-name="uni00B2" unicode="&#xb2;" horiz-adv-x="1014" 
 />
    <glyph glyph-name="uni00B3" unicode="&#xb3;" horiz-adv-x="1014" 
 />
    <glyph glyph-name="acute" unicode="&#xb4;" horiz-adv-x="341" 
d="M132 1403q-43 -24 -63 -79q-19 -56 -1 -103q11 -28 26 -63l27 -62q5 -11 13 -27l7 -13l8 -15l20 28l20 27q21 30 33 55l10 20l9 20q11 23 21 38q29 48 15 99q-15 52 -64 77q-41 21 -81 -2z" />
    <glyph glyph-name="mu" unicode="&#xb5;" horiz-adv-x="1180" 
 />
    <glyph glyph-name="paragraph" unicode="&#xb6;" horiz-adv-x="936" 
d="M886 1435v-70h-127v-1365h-82v1365h-166v-1365h-84v738q-174 8 -275.5 102.5t-101.5 245.5q0 157 107.5 253t285.5 96h443z" />
    <glyph glyph-name="periodcentered" unicode="&#xb7;" horiz-adv-x="350" 
d="M66 740l82 84q15 14 29 14q13 0 31 -16l80 -86q12 -16 12 -29q0 -15 -14 -31l-80 -88q-20 -20 -29 -20q-16 0 -29 14l-88 101q-10 13 -10 26q0 15 16 31z" />
    <glyph glyph-name="periodcentered" unicode="&#x2219;" horiz-adv-x="350" 
d="M66 740l82 84q15 14 29 14q13 0 31 -16l80 -86q12 -16 12 -29q0 -15 -14 -31l-80 -88q-20 -20 -29 -20q-16 0 -29 14l-88 101q-10 13 -10 26q0 15 16 31z" />
    <glyph glyph-name="cedilla" unicode="&#xb8;" horiz-adv-x="508" 
d="M50 -290q85 -52 152 -52q66 0 94.5 21.5t28.5 66.5t-49 64q-40 16 -102 16q-16 0 -34 -2l48 176h63l-37 -104q32 4 62 5q86 0 134 -40.5t48 -113.5q0 -76 -58.5 -120.5t-160.5 -44.5q-109 0 -189 32v96z" />
    <glyph glyph-name="uni00B9" unicode="&#xb9;" horiz-adv-x="1014" 
 />
    <glyph glyph-name="ordmasculine" unicode="&#xba;" horiz-adv-x="718" 
 />
    <glyph glyph-name="guillemotright" unicode="&#xbb;" horiz-adv-x="769" 
d="M64 176h-14v37l205 266l-205 266v37h14l342 -303zM377 176h-14v37l205 266l-205 266v37h14l342 -303z" />
    <glyph glyph-name="onequarter" unicode="&#xbc;" horiz-adv-x="1708" 
 />
    <glyph glyph-name="onehalf" unicode="&#xbd;" horiz-adv-x="1964" 
 />
    <glyph glyph-name="threequarters" unicode="&#xbe;" horiz-adv-x="1708" 
 />
    <glyph glyph-name="questiondown" unicode="&#xbf;" horiz-adv-x="598" 
d="M303 2q42 -6 75 8q92 38 156 92q14 11 12 29l-10 83l-10 83q-1 6 -3 15l-3 8l-3 10l-7 -5l-5 -4l-8 -8q-19 -26 -34 -51q-46 -73 -131 -71q-84 2 -85 63q-1 23 6 41q15 41 30 69l31 57l31 57q36 65 65 110q77 121 60 306l-5 50l-3 50q-1 18 -4 23q-3 6 -17 11
q-54 20 -122 -9q-27 -11 -25 -46q6 -76 -5 -195l-3 -31l-3 -31q-5 -34 -14 -59q-52 -143 -156 -264q-29 -34 -36 -80l-2 -18l-3 -18q-3 -22 -7 -36q-15 -53 14 -110q26 -53 71 -78q74 -40 153 -51zM307 1235q0 -23 19 -36q49 -35 108 -13q46 18 51 74q3 29 0 77
q-2 25 -30 31l-12 3l-12 3q-29 13 -56 -3q-39 -22 -53 -38q-22 -26 -15 -62v-36z" />
    <glyph glyph-name="Agrave" unicode="&#xc0;" horiz-adv-x="900" 
d="M697 0h153l-6 35l-1 4l-5 33l-4 20v1q-16 94 -27 151q-55 288 -110 468q-50 166 -105 332t-127 301q-15 29 -45 69q-18 25 -47 21l-4 -6l-2 -6l-51 -207l-50 -207q-13 -57 -32 -143l-30 -144l-20 -91l-21 -92l-32 -146l-32 -147l-22 -107l-11 -54l-11 -56v0l-5 -29h177
l16 100l72 329l9 41l9 42q5 19 10 23q6 5 25 5l71 -2q44 -1 72 0q31 0 48 -17q0 -1 17 -65q20 -71 40 -145q58 -214 68 -251zM533 1480l35 46l23 7l17 16l-139 66l-203 79l-65 -144l123 -15z" />
    <glyph glyph-name="Aacute" unicode="&#xc1;" horiz-adv-x="900" 
d="M697 0h153l-6 35l-1 4l-5 33l-4 20v1q-16 94 -27 151q-55 288 -110 468q-50 166 -105 332t-127 301q-15 29 -45 69q-18 25 -47 21l-4 -6l-2 -6l-51 -207l-50 -207q-13 -57 -32 -143l-30 -144l-20 -91l-21 -92l-32 -146l-32 -147l-22 -107l-11 -54l-11 -56v0l-5 -29h177
l16 100l72 329l9 41l9 42q5 19 10 23q6 5 25 5l71 -2q44 -1 72 0q31 0 48 -17q0 -1 17 -65q20 -71 40 -145q58 -214 68 -251zM486 1535l122 15l-65 144l-202 -79l-140 -66l17 -16l23 -7l35 -46z" />
    <glyph glyph-name="Acircumflex" unicode="&#xc2;" horiz-adv-x="900" 
d="M397 1845l4 -5l5 -9l50 -96l49 -97l33 -69l31 -69q6 -12 1 -21q-6 -8 -19 -8l-36 3l-36 3q-13 1 -18 14l-4 9l-4 9l-40 99l-2 5l-2 4q-3 5 -8 5q-5 1 -8 -4l-3 -5l-2 -4l-71 -130q-6 -11 -19 -9l-27 4l-27 4q-21 3 -12 24l38 84l38 85l40 85l40 86q1 0 5 9zM697 0h153
l-6 35l-1 4l-5 33l-4 20v1q-16 94 -27 151q-55 288 -110 468q-50 166 -105 332t-127 301q-15 29 -45 69q-18 25 -47 21l-4 -6l-2 -6l-51 -207l-50 -207q-13 -57 -32 -143l-30 -144l-20 -91l-21 -92l-32 -146l-32 -147l-22 -107l-11 -54l-11 -56v0l-5 -29h177l16 100l72 329
l9 41l9 42q5 19 10 23q6 5 25 5l71 -2q44 -1 72 0q31 0 48 -17q0 -1 17 -65q20 -71 40 -145q58 -214 68 -251z" />
    <glyph glyph-name="Atilde" unicode="&#xc3;" horiz-adv-x="900" 
d="M620 1614l6 -17l12 -32q4 -14 -7 -22l-8 -4l-8 -4l-20 -9l-21 -10q-22 -12 -61 -18q-11 -1 -23 5l-11 6l-10 7q-7 5 -16 13l-15 14l-21 21l-21 21l-8 7l-9 6q-9 7 -18 10q-32 8 -53 -7l-24 -18l-24 -18l-12 -8q-6 -5 -13 -7l-1 7l-1 5l4 78q1 3 3 7t5 5l16 9l16 9
q18 9 34 13q26 6 50 -3q50 -19 85 -46l30 -22l31 -22q7 -5 16 -2q40 12 67 30l11 7l6 3l7 4zM697 0h153l-6 35l-1 4l-5 33l-4 20v1q-16 94 -27 151q-55 288 -110 468q-50 166 -105 332t-127 301q-15 29 -45 69q-18 25 -47 21l-4 -6l-2 -6l-51 -207l-50 -207
q-13 -57 -32 -143l-30 -144l-20 -91l-21 -92l-32 -146l-32 -147l-22 -107l-11 -54l-11 -56v0l-5 -29h177l16 100l72 329l9 41l9 42q5 19 10 23q6 5 25 5l71 -2q44 -1 72 0q31 0 48 -17q0 -1 17 -65q20 -71 40 -145q58 -214 68 -251z" />
    <glyph glyph-name="Adieresis" unicode="&#xc4;" horiz-adv-x="900" 
d="M241 1536q-18 -10 -36 -2l-8 3l-8 1q-18 4 -19 20q-2 31 0 50q3 35 33 47q38 14 69 -9q12 -8 12 -23v-10v-12q7 -36 -43 -65zM579 1601q7 -36 -44 -65q-18 -10 -36 -2l-8 3l-7 1q-18 4 -19 20q-2 31 -1 50q4 35 33 47q38 14 70 -9q11 -8 12 -23v-22zM697 0h153l-6 35
l-1 4l-5 33l-4 20v1q-16 94 -27 151q-55 288 -110 468q-50 166 -105 332t-127 301q-15 29 -45 69q-18 25 -47 21l-4 -6l-2 -6l-51 -207l-50 -207q-13 -57 -32 -143l-30 -144l-20 -91l-21 -92l-32 -146l-32 -147l-22 -107l-11 -54l-11 -56v0l-5 -29h177l16 100l72 329l9 41
l9 42q5 19 10 23q6 5 25 5l71 -2q44 -1 72 0q31 0 48 -17q0 -1 17 -65q20 -71 40 -145q58 -214 68 -251z" />
    <glyph glyph-name="Aring" unicode="&#xc5;" horiz-adv-x="900" 
d="M844 35l-1 4l-5 33l-4 20v1q-16 93 -27 151q-55 288 -110 468q-50 167 -105 332q-55 166 -127 301q-10 20 -27 43q69 41 59 97v10v10l-1 18q0 23 -19 37q-52 37 -113 13q-48 -18 -53 -76q-3 -30 0 -81q1 -16 8 -22q5 -6 23 -10l14 -3l-45 -186l-45 -186q-13 -57 -32 -143
l-30 -144l-20 -91l-21 -92l-32 -146l-32 -147l-22 -107l-11 -54l-11 -56v0l-5 -29h177l16 100l72 329l9 41l9 42q5 19 10 24q6 4 25 4l71 -2q44 -1 72 0q31 0 48 -17l17 -65q10 -35 18 -67q12 -41 22 -78q25 -94 42 -155q20 -76 26 -96l13 -60h153z" />
    <glyph glyph-name="AE" unicode="&#xc6;" horiz-adv-x="1370" 
d="M1311 1405q0 7 -3 19l-2 11l-2 11q-63 -4 -142 -5h-70h-71q-185 2 -283 -5v-7q-4 -3 -5 -5l-104 -173l-102 -173q-28 -47 -69 -120l-67 -121l-44 -77l-44 -77l-70 -123l-70 -123l-50 -91l-25 -46l-25 -46v0l-13 -25l160 -50l42 86l157 276l19 35l20 35q10 16 16 19
q6 2 24 -3l64 -22q39 -13 64 -20q28 -8 38 -29l-2 -63q-1 -35 -2 -65q-1 -41 -3 -77q-3 -92 -5 -151q-3 -75 -3 -94l-4 -49l-4 -42q176 -27 303 -6l332 3v14l-5 85l-5 85q-2 28 -26 28l-43 2l-44 3q-51 2 -87 -3q-18 -3 -51 -3q-41 -1 -50 8q-9 10 -10 52l-1 280q0 5 1 13
l1 8l1 9l5 11l247 -9q3 10 3 29q0 69 -1 112l-2 18l-3 19h-210v17q-1 10 -2 22v1q-1 6 -2 19l-1 30q-1 4 -1 7v2q-4 74 -7 148q-2 65 -4 167q-1 22 5 29q5 6 26 8q22 3 48 3l120 2l119 2q21 0 27 6t5 29q-4 74 -8 140z" />
    <glyph glyph-name="Ccedilla" unicode="&#xc7;" horiz-adv-x="651" 
d="M517 615l-27 1l-27 1l-5 -30l-6 -31q-3 -18 -7 -47l-6 -46q-8 -55 -26 -92q-14 -29 -60 -59l-5 -2q-3 0 -4 1l-15 6l-16 5q-18 8 -27 20q-35 42 -45 125q-6 45 -15 127l-14 128q-20 168 28 317l9 29q6 16 10 27q14 31 33 50q32 31 59 25q26 -7 38 -49l9 -34l7 -35
q6 -24 31 -23l40 2l39 2q16 1 20 6t3 21l-2 15l-1 16q-2 95 -64 215q-33 65 -124 114q-11 6 -29 8q-89 11 -148 -62q-38 -48 -66 -137q-44 -142 -48 -341q-6 -269 32 -611q4 -28 13 -46q44 -82 77 -133q32 -51 85 -81l8 -4l8 -182q29 11 57 12q58 2 58 -50t-160 -92
q-79 -20 -159 -29l7 -172q164 30 299 96q118 57 157 124q49 85 -30 181q-63 57 -127 45l4 54q77 17 123 73q45 54 60 136q28 159 31 245l2 63v63q0 20 -6 26t-26 7z" />
    <glyph glyph-name="Egrave" unicode="&#xc8;" horiz-adv-x="684" 
d="M580 5l1 14l-6 85l-5 85q-1 27 -26 28l-43 2l-43 3q-52 2 -87 -3q-18 -3 -51 -4q-41 0 -51 9q-9 10 -9 52l-1 280q0 5 1 13l1 8l1 9l5 10l246 -8q4 10 4 28q0 70 -1 113l-2 18l-3 19h-211v17q0 10 -1 22v1q-2 6 -2 18l-2 31v6v3q-4 74 -7 148q-3 64 -5 167q0 22 5 29
q6 6 27 8q21 3 48 3l119 2l119 1q22 1 28 7q5 6 4 29q-3 74 -7 140q-1 7 -3 19l-3 11l-2 11q-62 -4 -141 -5h-71h-70q-185 2 -284 -5v-38l6 -176l4 -176l5 -206q3 -120 4 -206q1 -234 -11 -413l-6 -96l-4 -95q0 -17 2 -23zM491 1556l35 46l23 7l17 16l-139 66l-203 79
l-65 -144l123 -15z" />
    <glyph glyph-name="Eacute" unicode="&#xc9;" horiz-adv-x="684" 
d="M580 5l1 14l-6 85l-5 85q-1 27 -26 28l-43 2l-43 3q-52 2 -87 -3q-18 -3 -51 -4q-41 0 -51 9q-9 10 -9 52l-1 280q0 5 1 13l1 8l1 9l5 10l246 -8q4 10 4 28q0 70 -1 113l-2 18l-3 19h-211v17q0 10 -1 22v1q-2 6 -2 18l-2 31v6v3q-4 74 -7 148q-3 64 -5 167q0 22 5 29
q6 6 27 8q21 3 48 3l119 2l119 1q22 1 28 7q5 6 4 29q-3 74 -7 140q-1 7 -3 19l-3 11l-2 11q-62 -4 -141 -5h-71h-70q-185 2 -284 -5v-38l6 -176l4 -176l5 -206q3 -120 4 -206q1 -234 -11 -413l-6 -96l-4 -95q0 -17 2 -23zM444 1611l122 15l-65 144l-202 -79l-140 -66
l17 -16l23 -7l35 -46z" />
    <glyph glyph-name="Ecircumflex" unicode="&#xca;" horiz-adv-x="684" 
d="M334 1925l3 -5l6 -10l50 -96l48 -96l33 -69l32 -69q6 -12 0 -21q-5 -9 -19 -8l-35 2l-36 4q-13 1 -18 14l-4 9l-4 9l-40 98l-2 5l-2 5q-3 5 -8 5t-8 -5l-3 -4l-2 -5l-71 -129q-6 -11 -19 -9l-27 3l-27 4q-22 4 -13 24l38 85l38 84l41 86l40 86l5 8zM580 5l1 14l-6 85
l-5 85q-1 27 -26 28l-43 2l-43 3q-52 2 -87 -3q-18 -3 -51 -4q-41 0 -51 9q-9 10 -9 52l-1 280q0 5 1 13l1 8l1 9l5 10l246 -8q4 10 4 28q0 70 -1 113l-2 18l-3 19h-211v17q0 10 -1 22v1q-2 6 -2 18l-2 31v6v3q-4 74 -7 148q-3 64 -5 167q0 22 5 29q6 6 27 8q21 3 48 3
l119 2l119 1q22 1 28 7q5 6 4 29q-3 74 -7 140q-1 7 -3 19l-3 11l-2 11q-62 -4 -141 -5h-71h-70q-185 2 -284 -5v-38l6 -176l4 -176l5 -206q3 -120 4 -206q1 -234 -11 -413l-6 -96l-4 -95q0 -17 2 -23z" />
    <glyph glyph-name="Edieresis" unicode="&#xcb;" horiz-adv-x="684" 
d="M200 1640q7 -36 -43 -64q-18 -10 -37 -2l-7 2l-8 2q-18 4 -19 19q-2 32 0 50q3 36 33 47q37 15 69 -8q12 -8 12 -23v-23zM495 1640q6 -36 -44 -64q-18 -10 -36 -2l-8 2l-8 2q-17 4 -18 19q-2 32 -1 50q4 36 33 47q38 15 69 -8q12 -8 12 -23zM580 5l1 14l-6 85l-5 85
q-1 27 -26 28l-43 2l-43 3q-52 2 -87 -3q-18 -3 -51 -4q-41 0 -51 9q-9 10 -9 52l-1 280q0 5 1 13l1 8l1 9l5 10l246 -8q4 10 4 28q0 70 -1 113l-2 18l-3 19h-211v17q0 10 -1 22v1q-2 6 -2 18l-2 31v6v3q-4 74 -7 148q-3 64 -5 167q0 22 5 29q6 6 27 8q21 3 48 3l119 2
l119 1q22 1 28 7q5 6 4 29q-3 74 -7 140q-1 7 -3 19l-3 11l-2 11q-62 -4 -141 -5h-71h-70q-185 2 -284 -5v-38l6 -176l4 -176l5 -206q3 -120 4 -206q1 -234 -11 -413l-6 -96l-4 -95q0 -17 2 -23z" />
    <glyph glyph-name="Igrave" unicode="&#xcc;" horiz-adv-x="906" 
d="M789 4q6 5 7 26l6 88q1 15 4 46h-38l-100 3l-101 4q-27 1 -33 8q-6 6 -4 33l7 179l10 179l11 178l12 179q3 43 5 109l3 109q1 27 10 36q8 9 35 10q21 1 52 -1l53 -2l33 -1l32 -1q27 0 37 21l6 13l6 15q6 16 7 29q3 25 5 61v0l2 55q0 4 -2 19v38l-662 1l-5 -29l-5 -28
q-5 -32 -8 -54q-1 -11 -1 -19q0 -12 2 -19l4 -30l143 -17l20 -4q31 -7 39 -19q7 -11 5 -43l-15 -159q-8 -92 -13 -160q-5 -80 -12 -213l-11 -213q-5 -86 -16 -214q-3 -32 -11 -39q-7 -6 -40 -4l-70 5l-70 6l-20 1h-11l-12 1l-9 -42l-8 -42q-10 -49 -18 -86l12 -2l12 -2
q12 -2 21 -2l58 2l58 2q198 0 344 -3q31 0 75 -3l75 -4l29 -2l29 -3q20 -1 26 4zM683 1561l35 45l23 7l17 16l-139 66l-203 79l-64 -144l122 -14z" />
    <glyph glyph-name="Iacute" unicode="&#xcd;" horiz-adv-x="906" 
d="M789 4q6 5 7 26l6 88q1 15 4 46h-38l-100 3l-101 4q-27 1 -33 8q-6 6 -4 33l7 179l10 179l11 178l12 179q3 43 5 109l3 109q1 27 10 36q8 9 35 10q21 1 52 -1l53 -2l33 -1l32 -1q27 0 37 21l6 13l6 15q6 16 7 29q3 25 5 61v0l2 55q0 4 -2 19v38l-662 1l-5 -29l-5 -28
q-5 -32 -8 -54q-1 -11 -1 -19q0 -12 2 -19l4 -30l143 -17l20 -4q31 -7 39 -19q7 -11 5 -43l-15 -159q-8 -92 -13 -160q-5 -80 -12 -213l-11 -213q-5 -86 -16 -214q-3 -32 -11 -39q-7 -6 -40 -4l-70 5l-70 6l-20 1h-11l-12 1l-9 -42l-8 -42q-10 -49 -18 -86l12 -2l12 -2
q12 -2 21 -2l58 2l58 2q198 0 344 -3q31 0 75 -3l75 -4l29 -2l29 -3q20 -1 26 4zM636 1616l122 14l-64 144l-203 -79l-139 -66l16 -16l24 -7l34 -45z" />
    <glyph glyph-name="Icircumflex" unicode="&#xce;" horiz-adv-x="906" 
d="M512 1932l4 -5l5 -10l50 -96l49 -96l33 -69l31 -69q6 -12 1 -21q-6 -9 -19 -8l-36 2l-36 4q-13 1 -18 14l-4 9l-4 9l-40 98l-2 5l-2 5q-3 5 -8 5t-8 -5l-3 -4l-2 -5l-71 -129q-6 -11 -19 -9l-27 3l-27 4q-21 4 -12 24l38 85l38 84l40 86l40 85q1 1 5 9zM789 4q6 5 7 26
l6 88q1 15 4 46h-38l-100 3l-101 4q-27 1 -33 8q-6 6 -4 33l7 179l10 179l11 178l12 179q3 43 5 109l3 109q1 27 10 36q8 9 35 10q21 1 52 -1l53 -2l33 -1l32 -1q27 0 37 21l6 13l6 15q6 16 7 29q3 25 5 61v0l2 55q0 4 -2 19v38l-662 1l-5 -29l-5 -28q-5 -32 -8 -54
q-1 -11 -1 -19q0 -12 2 -19l4 -30l143 -17l20 -4q31 -7 39 -19q7 -11 5 -43l-15 -159q-8 -92 -13 -160q-5 -80 -12 -213l-11 -213q-5 -86 -16 -214q-3 -32 -11 -39q-7 -6 -40 -4l-70 5l-70 6l-20 1h-11l-12 1l-9 -42l-8 -42q-10 -49 -18 -86l12 -2l12 -2q12 -2 21 -2l58 2
l58 2q198 0 344 -3q31 0 75 -3l75 -4l29 -2l29 -3q20 -1 26 4z" />
    <glyph glyph-name="Idieresis" unicode="&#xcf;" horiz-adv-x="906" 
d="M397 1556q-17 -10 -36 -2l-7 2l-8 2q-18 4 -19 20q-2 31 0 50q3 35 33 46q37 15 69 -8q11 -8 12 -23v-11v-12q7 -35 -44 -64zM735 1620q7 -35 -43 -64q-18 -10 -36 -2l-8 2l-8 2q-17 4 -19 20q-2 31 0 50q3 35 33 46q38 15 69 -8q12 -8 12 -23v-11v-12zM789 4q6 5 7 26
l6 88q1 15 4 46h-38l-100 3l-101 4q-27 1 -33 8q-6 6 -4 33l7 179l10 179l11 178l12 179q3 43 5 109l3 109q1 27 10 36q8 9 35 10q21 1 52 -1l53 -2l33 -1l32 -1q27 0 37 21l6 13l6 15q6 16 7 29q3 25 5 61v0l2 55q0 4 -2 19v38l-662 1l-5 -29l-5 -28q-5 -32 -8 -54
q-1 -11 -1 -19q0 -12 2 -19l4 -30l143 -17l20 -4q31 -7 39 -19q7 -11 5 -43l-15 -159q-8 -92 -13 -160q-5 -80 -12 -213l-11 -213q-5 -86 -16 -214q-3 -32 -11 -39q-7 -6 -40 -4l-70 5l-70 6l-20 1h-11l-12 1l-9 -42l-8 -42q-10 -49 -18 -86l12 -2l12 -2q12 -2 21 -2l58 2
l58 2q198 0 344 -3q31 0 75 -3l75 -4l29 -2l29 -3q20 -1 26 4z" />
    <glyph glyph-name="Eth" unicode="&#xd0;" 
d="M668 1095q-9 18 -22 31l-29 30l-29 30q-35 34 -62 55q-129 99 -294 172q-10 5 -25 11l-14 6l-16 7l1 -11v-8q1 -9 2 -14q38 -288 50 -516l8 -166l-171 6l-7 -1l-8 -2l-1 -6l-1 -5l5 -78q1 -21 17 -23q36 -6 84 -11l32 -2l32 -1l25 -2l24 -432q3 -47 12 -139q4 -32 32 -24
q52 13 78 25q137 64 266 239q7 10 10 18l47 104l45 105q46 106 30 224q-28 200 -121 378z" />
    <glyph glyph-name="Ntilde" unicode="&#xd1;" horiz-adv-x="869" 
d="M634 1638l6 -17l11 -33q4 -14 -7 -22l-7 -4l-8 -4l-21 -9l-20 -10q-22 -12 -62 -18q-10 -1 -23 5l-10 6l-10 7q-7 5 -16 13l-15 14l-21 21q-13 14 -22 21l-8 7l-8 7q-10 7 -18 9q-33 8 -54 -7l-24 -18l-24 -18l-11 -8q-7 -5 -13 -7l-2 7l-1 5l5 78q0 3 2 7q3 4 5 5l16 10
l16 8q19 9 34 13q27 6 51 -3q50 -19 84 -46l31 -22l30 -22q7 -5 16 -2q40 12 68 30l11 7l6 3l6 4zM818 41l1 6l-1 17l-3 281q-2 167 -4 281l-10 382l-11 381l-1 18l-2 9l-1 10q-80 9 -140 6v-8v-6v-11l8 -119q5 -70 6 -118l7 -265l6 -265l1 -72l-1 -71q0 -1 -7 -32
q-9 13 -22 31l-22 29q-25 33 -38 57q-110 200 -272 596q-36 87 -89 227q-11 28 -38 28q-21 0 -54 2l-54 2l-13 -1l-14 -3v-17l17 -303l17 -303l11 -252l10 -253l4 -122l3 -122l1 -12v-49h145v19q1 7 1 16q2 95 2 164l-1 274l-1 273l1 26l2 26l11 2l18 -37l18 -37
q71 -160 130 -258q97 -161 153 -262q16 -29 35 -72l16 -37l16 -37l17 -60h143z" />
    <glyph glyph-name="Ograve" unicode="&#xd2;" horiz-adv-x="857" 
d="M761 477l9 38l9 38q20 94 26 169q2 61 -3 111q-6 68 -25 124q-25 76 -77 203q-21 51 -44 82q-83 108 -196 167q-89 46 -156 4l-15 -9l-15 -9q-17 -10 -27 -22q-144 -183 -176 -406q-21 -146 -16 -293q8 -213 59 -343q50 -126 112 -209q86 -116 244 -122q50 -2 83 37
l21 25l23 25q106 123 132 251l8 32l8 32q6 28 16 75zM527 1506l35 45l23 7l17 16l-140 66l-202 79l-65 -144l123 -14z" />
    <glyph glyph-name="Oacute" unicode="&#xd3;" horiz-adv-x="857" 
d="M761 477l9 38l9 38q20 94 26 169q2 61 -3 111q-6 68 -25 124q-25 76 -77 203q-21 51 -44 82q-83 108 -196 167q-89 46 -156 4l-15 -9l-15 -9q-17 -10 -27 -22q-144 -183 -176 -406q-21 -146 -16 -293q8 -213 59 -343q50 -126 112 -209q86 -116 244 -122q50 -2 83 37
l21 25l23 25q106 123 132 251l8 32l8 32q6 28 16 75zM479 1561l123 14l-65 144l-203 -79l-139 -66l17 -16l23 -7l35 -45z" />
    <glyph glyph-name="Ocircumflex" unicode="&#xd4;" horiz-adv-x="857" 
d="M395 1921l4 -5l5 -10l50 -96l49 -96l33 -69l31 -69q6 -12 1 -21q-6 -9 -19 -8l-36 2l-36 4q-13 1 -18 14l-4 9l-4 9l-40 98l-2 5l-2 5q-3 5 -8 5t-8 -5l-2 -4l-3 -5l-71 -129q-6 -11 -19 -9l-27 3l-27 4q-21 4 -12 24l38 85l38 84l40 86l41 86l4 8zM761 477l9 38l9 38
q20 94 26 169q2 61 -3 111q-6 68 -25 124q-25 76 -77 203q-21 51 -44 82q-83 108 -196 167q-89 46 -156 4l-15 -9l-15 -9q-17 -10 -27 -22q-144 -183 -176 -406q-21 -146 -16 -293q8 -213 59 -343q50 -126 112 -209q86 -116 244 -122q50 -2 83 37l21 25l23 25
q106 123 132 251l8 32l8 32q6 28 16 75z" />
    <glyph glyph-name="Otilde" unicode="&#xd5;" horiz-adv-x="857" 
d="M612 1646l6 -17l11 -33q5 -13 -6 -21l-8 -5l-8 -3l-20 -9l-21 -10q-22 -12 -61 -18q-11 -2 -23 4l-11 7l-10 6q-7 5 -16 13l-15 14l-21 22q-13 13 -21 20l-8 7l-9 7q-9 7 -18 9q-33 8 -53 -7l-24 -18l-24 -18l-12 -8q-6 -4 -13 -6l-2 6v6l4 77q1 3 3 7t5 6l16 9l16 9
q18 9 33 12q27 6 51 -3q50 -19 85 -46l30 -22l30 -21q7 -5 17 -3q40 12 67 30l11 7l6 4l7 4zM761 477l9 38l9 38q20 94 26 169q2 61 -3 111q-6 68 -25 124q-25 76 -77 203q-21 51 -44 82q-83 108 -196 167q-89 46 -156 4l-15 -9l-15 -9q-17 -10 -27 -22q-144 -183 -176 -406
q-21 -146 -16 -293q8 -213 59 -343q50 -126 112 -209q86 -116 244 -122q50 -2 83 37l21 25l23 25q106 123 132 251l8 32l8 32q6 28 16 75z" />
    <glyph glyph-name="Odieresis" unicode="&#xd6;" horiz-adv-x="857" 
d="M306 1591q-17 -10 -36 -2l-7 2l-8 2q-18 4 -19 19q-2 31 0 50q3 35 32 47q38 14 70 -8q11 -9 12 -23v-11v-12q7 -36 -44 -64zM644 1655q7 -36 -43 -64q-18 -10 -37 -2l-7 2l-8 2q-18 4 -19 19q-2 31 0 50q3 35 33 47q37 14 69 -8q12 -9 12 -23v-23zM761 477l9 38l9 38
q20 94 26 169q2 61 -3 111q-6 68 -25 124q-25 76 -77 203q-21 51 -44 82q-83 108 -196 167q-89 46 -156 4l-15 -9l-15 -9q-17 -10 -27 -22q-144 -183 -176 -406q-21 -146 -16 -293q8 -213 59 -343q50 -126 112 -209q86 -116 244 -122q50 -2 83 37l21 25l23 25
q106 123 132 251l8 32l8 32q6 28 16 75z" />
    <glyph glyph-name="multiply" unicode="&#xd7;" horiz-adv-x="792" 
d="M396 618l-247 -247l-99 99l247 247l-247 248l99 98l247 -247l248 247l98 -99l-247 -247l247 -247l-99 -99z" />
    <glyph glyph-name="Oslash" unicode="&#xd8;" horiz-adv-x="1000" 
d="M797 1177l80 148l36 67l18 34l19 35l-70 1h-69l-2 -4l-2 -2l-3 -5l-87 -159q-69 72 -154 117q-89 46 -156 4l-15 -9l-15 -9q-17 -10 -26 -22q-145 -183 -177 -406q-21 -146 -15 -293q7 -197 50 -319q-86 -164 -148 -297q-11 -24 -10 -31q1 -9 17 -10q18 -1 44 0l44 2
q26 1 39 35q2 7 8 16l9 17l64 117q25 -45 53 -82q87 -116 244 -122q50 -2 83 37l22 25l22 25q107 123 133 251l8 32l7 32q6 28 17 75l9 38l8 38q20 94 27 169q1 61 -3 111q-7 68 -25 124q-26 76 -77 203z" />
    <glyph glyph-name="Ugrave" unicode="&#xd9;" 
d="M513 57q43 45 77 85q70 83 105 162q92 207 104 469q6 120 5 284l-2 142l-1 143v72q0 25 -24 25h-115q-23 0 -22 -26l1 -52l6 -144l5 -144q4 -163 1 -287q-4 -166 -62 -301q-39 -90 -118 -123q-68 -29 -132 -8q-68 22 -99 90q-26 57 -28 111l-1 38l-1 37q-10 209 -1 543
l3 113l1 114q0 21 -6 26q-5 5 -27 4l-44 -3l-44 -4q-25 -2 -30 -8q-5 -5 -6 -30q-2 -90 -4 -217l-2 -107l-2 -105q1 -48 1 -139l1 -68v-68q3 -158 16 -269q19 -154 72 -251q59 -109 173 -148q117 -40 200 44zM583 1595l35 46l23 7l17 16l-139 66l-203 79l-64 -144l122 -15z
" />
    <glyph glyph-name="Uacute" unicode="&#xda;" 
d="M513 57q43 45 77 85q70 83 105 162q92 207 104 469q6 120 5 284l-2 142l-1 143v72q0 25 -24 25h-115q-23 0 -22 -26l1 -52l6 -144l5 -144q4 -163 1 -287q-4 -166 -62 -301q-39 -90 -118 -123q-68 -29 -132 -8q-68 22 -99 90q-26 57 -28 111l-1 38l-1 37q-10 209 -1 543
l3 113l1 114q0 21 -6 26q-5 5 -27 4l-44 -3l-44 -4q-25 -2 -30 -8q-5 -5 -6 -30q-2 -90 -4 -217l-2 -107l-2 -105q1 -48 1 -139l1 -68v-68q3 -158 16 -269q19 -154 72 -251q59 -109 173 -148q117 -40 200 44zM536 1650l122 15l-64 144l-203 -79l-139 -66l16 -16l24 -7
l34 -46z" />
    <glyph glyph-name="Ucircumflex" unicode="&#xdb;" 
d="M440 1898l3 -5l6 -9l50 -97l49 -96l32 -69l32 -69q6 -12 0 -21q-5 -9 -19 -8l-35 3l-36 3q-13 1 -18 14l-4 9l-4 9l-40 99l-2 4l-2 5q-3 5 -8 5q-5 1 -8 -4l-3 -5l-2 -5l-71 -129q-6 -11 -19 -9l-27 3l-27 4q-22 4 -12 25l37 84l39 84l40 86l40 86l5 8zM513 57
q43 45 77 85q70 83 105 162q92 207 104 469q6 120 5 284l-2 142l-1 143v72q0 25 -24 25h-115q-23 0 -22 -26l1 -52l6 -144l5 -144q4 -163 1 -287q-4 -166 -62 -301q-39 -90 -118 -123q-68 -29 -132 -8q-68 22 -99 90q-26 57 -28 111l-1 38l-1 37q-10 209 -1 543l3 113l1 114
q0 21 -6 26q-5 5 -27 4l-44 -3l-44 -4q-25 -2 -30 -8q-5 -5 -6 -30q-2 -90 -4 -217l-2 -107l-2 -105q1 -48 1 -139l1 -68v-68q3 -158 16 -269q19 -154 72 -251q59 -109 173 -148q117 -40 200 44z" />
    <glyph glyph-name="Udieresis" unicode="&#xdc;" 
d="M359 1613q6 -36 -44 -64q-18 -10 -36 -2l-8 2l-8 2q-17 4 -18 19q-2 31 -1 50q4 36 33 47q38 15 69 -8q12 -9 12 -23zM609 1549q-17 -10 -36 -2l-7 2l-8 2q-18 4 -19 19q-2 31 0 50q3 36 32 47q38 15 70 -8q11 -9 12 -23v-11v-12q7 -36 -44 -64zM513 57q43 45 77 85
q70 83 105 162q92 207 104 469q6 120 5 284l-2 142l-1 143v72q0 25 -24 25h-115q-23 0 -22 -26l1 -52l6 -144l5 -144q4 -163 1 -287q-4 -166 -62 -301q-39 -90 -118 -123q-68 -29 -132 -8q-68 22 -99 90q-26 57 -28 111l-1 38l-1 37q-10 209 -1 543l3 113l1 114q0 21 -6 26
q-5 5 -27 4l-44 -3l-44 -4q-25 -2 -30 -8q-5 -5 -6 -30q-2 -90 -4 -217l-2 -107l-2 -105q1 -48 1 -139l1 -68v-68q3 -158 16 -269q19 -154 72 -251q59 -109 173 -148q117 -40 200 44z" />
    <glyph glyph-name="Yacute" unicode="&#xdd;" horiz-adv-x="1171" 
d="M663 1087l-47 -57l-47 -56l-9 12l-9 11q-9 13 -15 21l-139 197l-138 197q-12 18 -37 19l-68 4l-68 4h-16h-9h-11q6 -21 19 -42l11 -17l12 -17q68 -97 107 -149l126 -170l127 -169q24 -32 19 -60q-2 -9 -2 -22l1 -22l2 -132q1 -78 0 -131q-3 -197 -11 -389v-119h211
l-19 821q18 25 48 61l65 76l66 77q78 92 129 154q30 38 71 94l34 47l35 48q4 6 9 16l5 10q3 6 6 11q-128 4 -174 6l-49 -57l-48 -56l-95 -110q-37 -45 -92 -111zM747 1546l122 15l-64 144l-203 -79l-139 -66l17 -16l23 -7l35 -46z" />
    <glyph glyph-name="Thorn" unicode="&#xde;" horiz-adv-x="1120" 
 />
    <glyph glyph-name="germandbls" unicode="&#xdf;" horiz-adv-x="1251" 
 />
    <glyph glyph-name="agrave" unicode="&#xe0;" horiz-adv-x="1197" 
d="M1138 185l-7 84q-3 29 -11 36q-8 6 -40 4q-33 -1 -95 -1q-52 0 -71 46l-18 41l-18 41q-19 48 -26 84q-34 180 -46 339q-6 82 -9 203l-2 101l-2 101q-2 41 -6 74q-5 40 -16 51q-11 12 -49 18q-28 4 -68 8l-68 7q-121 13 -282 -49q-9 -3 -19 -11l-19 -13q-92 -68 -144 -182
q-36 -80 -67 -227l-1 -70l-2 -71q-2 -87 -1 -146q3 -168 41 -315q42 -164 155 -283q58 -62 141 -54q76 7 130 18l27 6l27 6q29 8 51 17q56 22 89 62l3 3l4 3q30 23 52 21q21 -2 48 -31l21 -25q14 -16 22 -25q36 -36 78 -31q76 9 118 17q15 3 34 10l32 12q23 9 21 36z
M405 1628l209 -55l35 46l23 7l17 16l-139 66l-203 79l-65 -144z" />
    <glyph glyph-name="aacute" unicode="&#xe1;" horiz-adv-x="1197" 
d="M1138 185l-7 84q-3 29 -11 36q-8 6 -40 4q-33 -1 -95 -1q-52 0 -71 46l-18 41l-18 41q-19 48 -26 84q-34 180 -46 339q-6 82 -9 203l-2 101l-2 101q-2 41 -6 74q-5 40 -16 51q-11 12 -49 18q-28 4 -68 8l-68 7q-121 13 -282 -49q-9 -3 -19 -11l-19 -13q-92 -68 -144 -182
q-36 -80 -67 -227l-1 -70l-2 -71q-2 -87 -1 -146q3 -168 41 -315q42 -164 155 -283q58 -62 141 -54q76 7 130 18l27 6l27 6q29 8 51 17q56 22 89 62l3 3l4 3q30 23 52 21q21 -2 48 -31l21 -25q14 -16 22 -25q36 -36 78 -31q76 9 118 17q15 3 34 10l32 12q23 9 21 36z
M567 1628l122 15l-65 144l-202 -79l-140 -66l17 -16l23 -7l35 -46zM689 1643l-65 144l-202 -79l-140 -66l17 -16l23 -7l35 -46l210 55z" />
    <glyph glyph-name="acircumflex" unicode="&#xe2;" horiz-adv-x="1197" 
d="M1138 185l-7 84q-3 29 -11 36q-8 6 -40 4q-33 -1 -95 -1q-52 0 -71 46l-18 41l-18 41q-19 48 -26 84q-34 180 -46 339q-6 82 -9 203l-2 101l-2 101q-2 41 -6 74q-5 40 -16 51q-11 12 -49 18q-28 4 -68 8l-68 7q-121 13 -282 -49q-9 -3 -19 -11l-19 -13q-92 -68 -144 -182
q-36 -80 -67 -227l-1 -70l-2 -71q-2 -87 -1 -146q3 -168 41 -315q42 -164 155 -283q58 -62 141 -54q76 7 130 18l27 6l27 6q29 8 51 17q56 22 89 62l3 3l4 3q30 23 52 21q21 -2 48 -31l21 -25q14 -16 22 -25q36 -36 78 -31q76 9 118 17q15 3 34 10l32 12q23 9 21 36z
M519 1902l4 -5l6 -10l49 -96l49 -96l33 -69l32 -69q5 -12 0 -21q-6 -9 -19 -8l-36 2l-35 4q-13 1 -19 14l-3 9l-5 9l-40 98l-1 5l-3 5q-3 5 -8 5t-8 -5l-2 -4l-2 -5l-72 -129q-6 -11 -18 -9l-27 3l-27 4q-22 4 -13 24l38 85l38 84l40 86l41 86l5 8z" />
    <glyph glyph-name="atilde" unicode="&#xe3;" horiz-adv-x="1197" 
d="M1138 185l-7 84q-3 29 -11 36q-8 6 -40 4q-33 -1 -95 -1q-52 0 -71 46l-18 41l-18 41q-19 48 -26 84q-34 180 -46 339q-6 82 -9 203l-2 101l-2 101q-2 41 -6 74q-5 40 -16 51q-11 12 -49 18q-28 4 -68 8l-68 7q-121 13 -282 -49q-9 -3 -19 -11l-19 -13q-92 -68 -144 -182
q-36 -80 -67 -227l-1 -70l-2 -71q-2 -87 -1 -146q3 -168 41 -315q42 -164 155 -283q58 -62 141 -54q76 7 130 18l27 6l27 6q29 8 51 17q56 22 89 62l3 3l4 3q30 23 52 21q21 -2 48 -31l21 -25q14 -16 22 -25q36 -36 78 -31q76 9 118 17q15 3 34 10l32 12q23 9 21 36z
M723 1625l6 -17l12 -33q4 -13 -7 -21l-8 -5l-8 -4l-20 -9l-21 -9q-22 -12 -61 -18q-11 -2 -23 4l-11 6l-10 7q-7 5 -16 13l-15 14l-21 21q-13 14 -21 21l-8 7l-9 7q-9 7 -17 9q-33 8 -54 -7l-24 -18l-24 -18l-11 -8q-7 -4 -14 -7l-1 7l-1 6l5 77q0 3 2 7t5 6l16 9l16 8
q18 10 34 13q26 6 50 -3q50 -19 85 -46l30 -22l31 -21q7 -5 16 -3q40 12 67 30l11 7l6 3l7 4z" />
    <glyph glyph-name="adieresis" unicode="&#xe4;" horiz-adv-x="1197" 
d="M1138 185l-7 84q-3 29 -11 36q-8 6 -40 4q-33 -1 -95 -1q-52 0 -71 46l-18 41l-18 41q-19 48 -26 84q-34 180 -46 339q-6 82 -9 203l-2 101l-2 101q-2 41 -6 74q-5 40 -16 51q-11 12 -49 18q-28 4 -68 8l-68 7q-121 13 -282 -49q-9 -3 -19 -11l-19 -13q-92 -68 -144 -182
q-36 -80 -67 -227l-1 -70l-2 -71q-2 -87 -1 -146q3 -168 41 -315q42 -164 155 -283q58 -62 141 -54q76 7 130 18l27 6l27 6q29 8 51 17q56 22 89 62l3 3l4 3q30 23 52 21q21 -2 48 -31l21 -25q14 -16 22 -25q36 -36 78 -31q76 9 118 17q15 3 34 10l32 12q23 9 21 36z
M367 1517q-17 -10 -36 -2l-7 2l-8 2q-18 4 -19 20q-2 31 0 49q3 36 32 47q38 15 70 -8q11 -8 12 -23v-11v-12q7 -35 -44 -64zM705 1581q7 -35 -43 -64q-18 -10 -37 -2l-7 2l-8 2q-18 4 -19 20q-2 31 0 49q3 36 33 47q37 15 69 -8q12 -8 12 -23v-23z" />
    <glyph glyph-name="aring" unicode="&#xe5;" horiz-adv-x="1197" 
d="M633 1605v9v17q-1 23 -19 36q-50 36 -108 13q-47 -18 -52 -73q-2 -30 1 -78q1 -25 29 -31l12 -2l12 -4q29 -13 57 3q38 22 52 39q23 25 16 61v10zM1138 185l-7 84q-3 29 -11 36q-8 6 -40 4q-33 -1 -95 -1q-52 0 -71 46l-18 41l-18 41q-19 48 -26 84q-34 180 -46 339
q-6 82 -9 203l-2 101l-2 101q-2 41 -6 74q-5 40 -16 51q-11 12 -49 18q-28 4 -68 8l-68 7q-121 13 -282 -49q-9 -3 -19 -11l-19 -13q-92 -68 -144 -182q-36 -80 -67 -227l-1 -70l-2 -71q-2 -87 -1 -146q3 -168 41 -315q42 -164 155 -283q58 -62 141 -54q76 7 130 18l27 6
l27 6q29 8 51 17q56 22 89 62l3 3l4 3q30 23 52 21q21 -2 48 -31l21 -25q14 -16 22 -25q36 -36 78 -31q76 9 118 17q15 3 34 10l32 12q23 9 21 36z" />
    <glyph glyph-name="ae" unicode="&#xe6;" horiz-adv-x="1484" 
d="M1275 473q-5 -35 -15 -81l-17 -80q-8 -37 -30 -45q-23 -8 -54 14q-32 24 -54 65q-54 97 -62 193q-3 26 15 41q12 10 29 27l29 27q194 178 279 427q39 115 -5 225q-48 123 -157 172q-11 5 -27 14l-15 8l-16 9q-74 -31 -125 -68q-7 -5 -10 -11l-22 -35l-22 -35
q-26 -42 -38 -73q-64 -164 -86 -368q-10 -100 2 -287q7 -108 22 -217q-36 82 -44 125q-34 180 -46 339q-6 82 -9 203l-2 101l-2 101q-2 41 -6 74q-5 40 -16 51q-11 12 -49 18q-28 4 -68 8l-68 7q-121 13 -282 -49q-9 -3 -19 -11l-19 -13q-92 -68 -144 -182q-36 -80 -67 -227
l-1 -70l-2 -71q-2 -87 -1 -146q3 -168 41 -315q42 -164 155 -283q58 -62 141 -54q76 7 130 18l27 6l27 6q29 8 51 17q56 22 89 62l3 3l4 3q30 23 52 21q21 -2 48 -31l21 -25q14 -16 22 -25q36 -36 78 -31q76 9 118 17l2 1l4 -1q73 -10 125 6q77 25 108 67q59 76 72 146
q10 50 20 119l7 59l8 60q1 7 0 17l-1 10v10q-19 0 -46 -7l-21 -6l-20 -4q-35 -6 -41 -46z" />
    <glyph glyph-name="ccedilla" unicode="&#xe7;" horiz-adv-x="651" 
d="M517 615l-27 1l-27 1l-5 -30l-6 -31q-3 -18 -7 -47l-6 -46q-8 -55 -26 -92q-14 -29 -60 -59l-5 -2q-3 0 -4 1l-15 6l-16 5q-18 8 -27 20q-35 42 -45 125q-6 45 -15 127l-14 128q-20 168 28 317l9 29q6 16 10 27q14 31 33 50q32 31 59 25q26 -7 38 -49l9 -34l7 -35
q6 -24 31 -23l40 2l39 2q16 1 20 6t3 21l-2 15l-1 16q-2 95 -64 215q-33 65 -124 114q-11 6 -29 8q-89 11 -148 -62q-38 -48 -66 -137q-44 -142 -48 -341q-6 -269 32 -611q4 -28 13 -46q44 -82 77 -133q32 -51 85 -81l8 -4l8 -182q29 11 57 12q58 2 58 -50t-160 -92
q-79 -20 -159 -29l7 -172q164 30 299 96q118 57 157 124q49 85 -30 181q-63 57 -127 45l4 54q77 17 123 73q45 54 60 136q28 159 31 245l2 63v63q0 20 -6 26t-26 7z" />
    <glyph glyph-name="egrave" unicode="&#xe8;" horiz-adv-x="672" 
d="M592 488l1 -10q1 -11 0 -17l-8 -60l-8 -59q-10 -69 -19 -119q-14 -70 -72 -147q-32 -41 -109 -66q-52 -16 -124 -6q-49 7 -84 57q-45 64 -60 140q-35 185 -47 373q-12 187 -1 287q21 204 86 368q12 31 37 73l22 35l22 35q3 6 10 10q52 38 125 69l16 -9l15 -8
q16 -9 27 -14q109 -49 158 -172q43 -110 4 -225q-85 -249 -279 -427l-28 -27q-18 -17 -29 -27q-18 -15 -16 -41q9 -96 62 -193q23 -41 55 -65q30 -22 53 -14t30 45l18 80q9 46 14 81q6 40 41 46l21 4l21 6q26 7 45 7zM250 1625l209 -55l35 46l23 7l17 16l-139 66l-203 79
l-65 -144z" />
    <glyph glyph-name="eacute" unicode="&#xe9;" horiz-adv-x="672" 
d="M592 488l1 -10q1 -11 0 -17l-8 -60l-8 -59q-10 -69 -19 -119q-14 -70 -72 -147q-32 -41 -109 -66q-52 -16 -124 -6q-49 7 -84 57q-45 64 -60 140q-35 185 -47 373q-12 187 -1 287q21 204 86 368q12 31 37 73l22 35l22 35q3 6 10 10q52 38 125 69l16 -9l15 -8
q16 -9 27 -14q109 -49 158 -172q43 -110 4 -225q-85 -249 -279 -427l-28 -27q-18 -17 -29 -27q-18 -15 -16 -41q9 -96 62 -193q23 -41 55 -65q30 -22 53 -14t30 45l18 80q9 46 14 81q6 40 41 46l21 4l21 6q26 7 45 7zM411 1625l123 15l-65 144l-203 -79l-139 -66l17 -16
l23 -7l35 -46zM534 1640l-65 144l-203 -79l-139 -66l17 -16l23 -7l35 -46l209 55z" />
    <glyph glyph-name="ecircumflex" unicode="&#xea;" horiz-adv-x="672" 
d="M592 488l1 -10q1 -11 0 -17l-8 -60l-8 -59q-10 -69 -19 -119q-14 -70 -72 -147q-32 -41 -109 -66q-52 -16 -124 -6q-49 7 -84 57q-45 64 -60 140q-35 185 -47 373q-12 187 -1 287q21 204 86 368q12 31 37 73l22 35l22 35q3 6 10 10q52 38 125 69l16 -9l15 -8
q16 -9 27 -14q109 -49 158 -172q43 -110 4 -225q-85 -249 -279 -427l-28 -27q-18 -17 -29 -27q-18 -15 -16 -41q9 -96 62 -193q23 -41 55 -65q30 -22 53 -14t30 45l18 80q9 46 14 81q6 40 41 46l21 4l21 6q26 7 45 7zM354 1830l3 -5l6 -10l49 -96l49 -96l33 -69l32 -69
q5 -12 0 -21t-19 -8l-35 2l-36 4q-13 1 -18 14l-4 9l-4 9l-40 98l-2 5l-3 5q-2 5 -7 5t-9 -5l-2 -4l-2 -5l-72 -129q-5 -11 -18 -9l-27 3l-27 4q-22 4 -13 24l38 85l38 84l40 86l41 85q0 1 5 9z" />
    <glyph glyph-name="edieresis" unicode="&#xeb;" horiz-adv-x="672" 
d="M592 488l1 -10q1 -11 0 -17l-8 -60l-8 -59q-10 -69 -19 -119q-14 -70 -72 -147q-32 -41 -109 -66q-52 -16 -124 -6q-49 7 -84 57q-45 64 -60 140q-35 185 -47 373q-12 187 -1 287q21 204 86 368q12 31 37 73l22 35l22 35q3 6 10 10q52 38 125 69l16 -9l15 -8
q16 -9 27 -14q109 -49 158 -172q43 -110 4 -225q-85 -249 -279 -427l-28 -27q-18 -17 -29 -27q-18 -15 -16 -41q9 -96 62 -193q23 -41 55 -65q30 -22 53 -14t30 45l18 80q9 46 14 81q6 40 41 46l21 4l21 6q26 7 45 7zM277 1622q6 -35 -44 -64q-18 -10 -36 -2l-8 2l-8 2
q-17 4 -18 20q-2 31 -1 50q4 35 33 46q38 15 69 -8q12 -8 12 -23zM571 1622q7 -35 -44 -64q-17 -10 -36 -2l-7 2l-8 2q-18 4 -19 20q-2 31 0 50q3 35 32 46q38 15 70 -8q11 -8 12 -23v-11v-12z" />
    <glyph glyph-name="igrave" unicode="&#xec;" horiz-adv-x="507" 
d="M340 503l3 98l3 97l4 150l4 149q0 24 -6 31q-6 6 -30 6q-30 0 -74 -2l-38 -1l-41 -1v-68l2 -67l1 -67q-2 -158 7 -387l8 -194l8 -194q2 -48 47 -52q30 -3 67 3q55 8 49 69l-5 59l-6 59q-5 67 -6 117q0 80 3 195zM325 1277q32 42 33 95q1 22 -41 73q-28 34 -76 26
q-53 -8 -63 -54q-15 -65 12 -113q13 -23 52 -36q39 -14 64 -4q13 5 19 13zM173 1623l209 -55l35 46l23 7l17 16l-139 66l-203 79l-65 -144z" />
    <glyph glyph-name="iacute" unicode="&#xed;" horiz-adv-x="507" 
d="M340 503l3 98l3 97l4 150l4 149q0 24 -6 31q-6 6 -30 6q-30 0 -74 -2l-38 -1l-41 -1v-68l2 -67l1 -67q-2 -158 7 -387l8 -194l8 -194q2 -48 47 -52q30 -3 67 3q55 8 49 69l-5 59l-6 59q-5 67 -6 117q0 80 3 195zM325 1277q32 42 33 95q1 22 -41 73q-28 34 -76 26
q-53 -8 -63 -54q-15 -65 12 -113q13 -23 52 -36q39 -14 64 -4q13 5 19 13zM334 1623l123 15l-65 144l-203 -79l-139 -66l17 -16l23 -7l35 -46zM457 1638l-65 144l-203 -79l-139 -66l17 -16l23 -7l35 -46l209 55z" />
    <glyph glyph-name="icircumflex" unicode="&#xee;" horiz-adv-x="452" 
d="M306 503l3 98l2 97l5 150l3 149q1 24 -5 31q-7 6 -31 6q-29 0 -73 -2l-39 -1l-40 -1v-68l1 -67l1 -67q-1 -158 8 -387l8 -194l7 -194q2 -48 48 -52q29 -3 66 3q55 8 50 69l-6 59l-5 59q-6 67 -6 117q0 80 3 195zM291 1277q31 42 32 95q2 22 -40 73q-28 34 -76 26
q-53 -8 -64 -54q-15 -65 13 -113q13 -23 52 -36q38 -14 63 -4q14 5 20 13zM225 1899l3 -5l6 -9l49 -96l49 -97l33 -68l32 -69q5 -13 0 -21q-5 -9 -19 -9l-35 3l-36 3q-13 2 -18 14l-4 10l-4 9l-40 98l-2 5l-3 4q-2 5 -7 6q-5 0 -9 -5l-2 -5l-2 -4l-72 -129q-5 -11 -18 -10
l-27 4l-27 4q-22 3 -13 24l38 85l38 84l40 86l41 85l5 9z" />
    <glyph glyph-name="idieresis" unicode="&#xef;" horiz-adv-x="517" 
d="M348 503l2 98l3 97l4 150l4 149q1 24 -6 31q-6 6 -30 6q-29 0 -73 -2l-39 -1l-40 -1v-68l1 -67l1 -67q-2 -158 7 -387l9 -194l7 -194q2 -48 47 -52q30 -3 67 3q55 8 50 69l-6 59l-5 59q-6 67 -6 117q-1 80 3 195zM333 1277q31 42 32 95q2 22 -40 73q-29 34 -76 26
q-53 -8 -64 -54q-15 -65 12 -113q14 -23 52 -36q39 -14 64 -4q14 5 20 13zM122 1602q-17 -10 -36 -2l-7 3l-8 1q-18 4 -19 20q-2 31 0 50q3 35 33 47q37 14 69 -9q12 -8 12 -22v-11v-12q7 -36 -44 -65zM460 1667q7 -36 -43 -65q-18 -10 -36 -2l-8 3l-8 1q-17 4 -18 20
q-3 31 -1 50q4 35 33 47q38 14 69 -9q12 -8 12 -22v-23z" />
    <glyph glyph-name="eth" unicode="&#xf0;" horiz-adv-x="1139" 
 />
    <glyph glyph-name="ntilde" unicode="&#xf1;" horiz-adv-x="961" 
d="M845 302l-7 86l-8 86q-9 100 -20 172q-23 155 -80 434q-7 35 -21 80l-13 39l-14 39q-45 131 -178 176q-78 25 -129 38q-146 36 -240 -35q-18 -14 -47 -30q-38 -21 -37 -67l-1 -227v-226q2 -319 7 -658q0 -25 5 -69l-3 -1l6 -127q171 8 171 0q0 2 -1 40q-1 27 -2 78l1 27
v27l-1 98l-3 98l-4 78l-5 78q-5 95 -5 155q0 158 14 346q10 137 56 199q55 75 131 32q75 -43 105 -99q75 -139 110 -347q7 -43 12 -108l3 -54l4 -54l15 -173l15 -172q9 -96 66 -184q37 -56 90 -73q42 -13 53 28l7 31l6 31q8 39 -15 71q-36 50 -43 137zM581 1741l7 -17
l11 -32q4 -14 -7 -22l-8 -4l-7 -4l-21 -9l-20 -10q-23 -12 -62 -18q-11 -1 -23 5l-10 6l-11 7q-7 5 -15 13l-15 14l-21 21q-13 13 -22 21l-8 7l-8 6q-10 7 -18 9q-33 9 -54 -6l-24 -18l-24 -18l-11 -8q-7 -5 -14 -7l-1 7l-1 5l5 77q0 4 2 8t5 5l16 9l16 9q19 9 34 13
q26 6 50 -3q50 -19 85 -46l30 -22l31 -22q7 -5 16 -2q40 12 68 30l10 7l7 3l6 4z" />
    <glyph glyph-name="ograve" unicode="&#xf2;" horiz-adv-x="926" 
d="M801 1046l-21 63l-21 63q-38 112 -164 235q-24 23 -72 36q-72 18 -185 -14q-132 -38 -180 -168q-44 -118 -63 -190q-24 -85 -27 -152q-18 -322 75 -645q26 -88 61 -128q55 -59 114 -117q46 -20 94 -26q60 -8 118 5q72 37 107 57q87 49 129 110q21 31 38 43q26 18 30 51
l42 315q-1 227 -34 336q-15 52 -41 126zM422 1651l210 -55l35 45l23 7l17 16l-140 66l-202 79l-65 -144z" />
    <glyph glyph-name="oacute" unicode="&#xf3;" horiz-adv-x="926" 
d="M801 1046l-21 63l-21 63q-38 112 -164 235q-24 23 -72 36q-72 18 -185 -14q-132 -38 -180 -168q-44 -118 -63 -190q-24 -85 -27 -152q-18 -322 75 -645q26 -88 61 -128q55 -59 114 -117q46 -20 94 -26q60 -8 118 5q72 37 107 57q87 49 129 110q21 31 38 43q26 18 30 51
l42 315q-1 227 -34 336q-15 52 -41 126zM584 1651l123 14l-65 144l-203 -79l-139 -66l17 -16l23 -7l35 -45zM707 1665l-65 144l-203 -79l-139 -66l17 -16l23 -7l35 -45l209 55zM801 1046l-21 63l-21 63q-38 112 -164 235q-24 23 -72 36q-72 18 -185 -14q-132 -38 -180 -168
q-44 -118 -63 -190q-24 -85 -27 -152q-18 -322 75 -645q26 -88 61 -128q55 -59 114 -117q46 -20 94 -26q60 -8 118 5q72 37 107 57q87 49 129 110q21 31 38 43q26 18 30 51l42 315q-1 227 -34 336q-15 52 -41 126zM584 1651l123 14l-65 144l-203 -79l-139 -66l17 -16l23 -7
l35 -45zM707 1665l-65 144l-203 -79l-139 -66l17 -16l23 -7l35 -45l209 55z" />
    <glyph glyph-name="ocircumflex" unicode="&#xf4;" horiz-adv-x="926" 
d="M801 1046l-21 63l-21 63q-38 112 -164 235q-24 23 -72 36q-72 18 -185 -14q-132 -38 -180 -168q-44 -118 -63 -190q-24 -85 -27 -152q-18 -322 75 -645q26 -88 61 -128q55 -59 114 -117q46 -20 94 -26q60 -8 118 5q72 37 107 57q87 49 129 110q21 31 38 43q26 18 30 51
l42 315q-1 227 -34 336q-15 52 -41 126zM441 1911l4 -5l5 -10l50 -96l49 -96l33 -69l31 -69q6 -12 1 -21q-6 -9 -19 -8l-36 3l-36 3q-13 1 -18 14l-4 9l-4 9l-40 98l-2 5l-2 5q-3 5 -8 5t-8 -4l-2 -5l-3 -5l-71 -129q-6 -11 -19 -9l-27 3l-27 4q-21 4 -12 25l38 84l38 84
l40 86l41 86l4 8z" />
    <glyph glyph-name="otilde" unicode="&#xf5;" horiz-adv-x="926" 
d="M801 1046l-21 63l-21 63q-38 112 -164 235q-24 23 -72 36q-72 18 -185 -14q-132 -38 -180 -168q-44 -118 -63 -190q-24 -85 -27 -152q-18 -322 75 -645q26 -88 61 -128q55 -59 114 -117q46 -20 94 -26q60 -8 118 5q72 37 107 57q87 49 129 110q21 31 38 43q26 18 30 51
l42 315q-1 227 -34 336q-15 52 -41 126zM649 1638l6 -17l12 -32q4 -14 -7 -22l-8 -4l-8 -4l-20 -9l-21 -10q-22 -12 -61 -18q-11 -1 -23 5l-11 6l-10 7q-7 5 -16 13l-15 14l-21 21l-21 21l-8 7l-9 6q-9 7 -18 10q-32 8 -53 -7l-24 -18l-24 -18l-12 -8q-6 -5 -13 -7l-1 7
l-1 5l4 78q1 3 3 7t5 5l16 9l16 9q18 9 34 13q26 6 50 -3q50 -19 85 -46l30 -22l31 -22q6 -5 16 -2q40 12 67 30l11 7l6 3l7 4z" />
    <glyph glyph-name="odieresis" unicode="&#xf6;" horiz-adv-x="926" 
d="M801 1046l-21 63l-21 63q-38 112 -164 235q-24 23 -72 36q-72 18 -185 -14q-132 -38 -180 -168q-44 -118 -63 -190q-24 -85 -27 -152q-18 -322 75 -645q26 -88 61 -128q55 -59 114 -117q46 -20 94 -26q60 -8 118 5q72 37 107 57q87 49 129 110q21 31 38 43q26 18 30 51
l42 315q-1 227 -34 336q-15 52 -41 126zM325 1579q-17 -10 -36 -2l-7 3l-8 1q-18 4 -19 20q-2 31 0 50q3 35 32 47q38 14 70 -9q11 -8 12 -23v-10v-12q7 -36 -44 -65zM663 1644q7 -36 -43 -65q-18 -10 -37 -2l-7 3l-8 1q-18 4 -19 20q-2 31 0 50q3 35 33 47q37 14 69 -9
q12 -8 12 -23v-22z" />
    <glyph glyph-name="divide" unicode="&#xf7;" horiz-adv-x="940" 
d="M50 647v140h839l1 -1v-139h-840zM361 408l82 84q15 14 29 14q13 0 31 -16l80 -86q12 -16 12 -29q0 -15 -14 -31l-80 -88q-20 -20 -29 -20q-16 0 -29 14l-88 101q-10 13 -10 26q0 15 16 31zM361 1101l82 84q15 14 29 14q13 0 31 -16l80 -86q12 -16 12 -29q0 -15 -14 -31
l-80 -88q-20 -20 -29 -20q-16 0 -29 14l-88 101q-10 13 -10 26q0 15 16 31z" />
    <glyph glyph-name="oslash" unicode="&#xf8;" horiz-adv-x="1000" 
d="M797 1177l80 148l36 67l18 34l19 35l-70 1h-69l-2 -4l-2 -2l-3 -5l-87 -159q-69 72 -154 117q-89 46 -156 4l-15 -9l-15 -9q-17 -10 -26 -22q-145 -183 -177 -406q-21 -146 -15 -293q7 -197 50 -319q-86 -164 -148 -297q-11 -24 -10 -31q1 -9 17 -10q18 -1 44 0l44 2
q26 1 39 35q2 7 8 16l9 17l64 117q25 -45 53 -82q87 -116 244 -122q50 -2 83 37l22 25l22 25q107 123 133 251l8 32l7 32q6 28 17 75l9 38l8 38q20 94 27 169q1 61 -3 111q-7 68 -25 124q-26 76 -77 203z" />
    <glyph glyph-name="ugrave" unicode="&#xf9;" 
d="M513 57q43 45 77 85q70 83 105 162q92 207 104 469q6 120 5 284l-2 142l-1 143v72q0 25 -24 25h-115q-23 0 -22 -26l1 -52l6 -144l5 -144q4 -163 1 -287q-4 -166 -62 -301q-39 -90 -118 -123q-68 -29 -132 -8q-68 22 -99 90q-26 57 -28 111l-1 38l-1 37q-10 209 -1 543
l3 113l1 114q0 21 -6 26q-5 5 -27 4l-44 -3l-44 -4q-25 -2 -30 -8q-5 -5 -6 -30q-2 -90 -4 -217l-2 -107l-2 -105q1 -48 1 -139l1 -68v-68q3 -158 16 -269q19 -154 72 -251q59 -109 173 -148q117 -40 200 44zM583 1595l35 46l23 7l17 16l-139 66l-203 79l-64 -144l122 -15z
" />
    <glyph glyph-name="uacute" unicode="&#xfa;" 
d="M513 57q43 45 77 85q70 83 105 162q92 207 104 469q6 120 5 284l-2 142l-1 143v72q0 25 -24 25h-115q-23 0 -22 -26l1 -52l6 -144l5 -144q4 -163 1 -287q-4 -166 -62 -301q-39 -90 -118 -123q-68 -29 -132 -8q-68 22 -99 90q-26 57 -28 111l-1 38l-1 37q-10 209 -1 543
l3 113l1 114q0 21 -6 26q-5 5 -27 4l-44 -3l-44 -4q-25 -2 -30 -8q-5 -5 -6 -30q-2 -90 -4 -217l-2 -107l-2 -105q1 -48 1 -139l1 -68v-68q3 -158 16 -269q19 -154 72 -251q59 -109 173 -148q117 -40 200 44zM536 1650l122 15l-64 144l-203 -79l-139 -66l16 -16l24 -7
l34 -46z" />
    <glyph glyph-name="ucircumflex" unicode="&#xfb;" 
d="M440 1898l3 -5l6 -9l50 -97l49 -96l32 -69l32 -69q6 -12 0 -21q-5 -9 -19 -8l-35 3l-36 3q-13 1 -18 14l-4 9l-4 9l-40 99l-2 4l-2 5q-3 5 -8 5q-5 1 -8 -4l-3 -5l-2 -5l-71 -129q-6 -11 -19 -9l-27 3l-27 4q-22 4 -12 25l37 84l39 84l40 86l40 86l5 8zM513 57
q43 45 77 85q70 83 105 162q92 207 104 469q6 120 5 284l-2 142l-1 143v72q0 25 -24 25h-115q-23 0 -22 -26l1 -52l6 -144l5 -144q4 -163 1 -287q-4 -166 -62 -301q-39 -90 -118 -123q-68 -29 -132 -8q-68 22 -99 90q-26 57 -28 111l-1 38l-1 37q-10 209 -1 543l3 113l1 114
q0 21 -6 26q-5 5 -27 4l-44 -3l-44 -4q-25 -2 -30 -8q-5 -5 -6 -30q-2 -90 -4 -217l-2 -107l-2 -105q1 -48 1 -139l1 -68v-68q3 -158 16 -269q19 -154 72 -251q59 -109 173 -148q117 -40 200 44z" />
    <glyph glyph-name="udieresis" unicode="&#xfc;" 
d="M359 1613q6 -36 -44 -64q-18 -10 -36 -2l-8 2l-8 2q-17 4 -18 19q-2 31 -1 50q4 36 33 47q38 15 69 -8q12 -9 12 -23zM609 1549q-17 -10 -36 -2l-7 2l-8 2q-18 4 -19 19q-2 31 0 50q3 36 32 47q38 15 70 -8q11 -9 12 -23v-11v-12q7 -36 -44 -64zM513 57q43 45 77 85
q70 83 105 162q92 207 104 469q6 120 5 284l-2 142l-1 143v72q0 25 -24 25h-115q-23 0 -22 -26l1 -52l6 -144l5 -144q4 -163 1 -287q-4 -166 -62 -301q-39 -90 -118 -123q-68 -29 -132 -8q-68 22 -99 90q-26 57 -28 111l-1 38l-1 37q-10 209 -1 543l3 113l1 114q0 21 -6 26
q-5 5 -27 4l-44 -3l-44 -4q-25 -2 -30 -8q-5 -5 -6 -30q-2 -90 -4 -217l-2 -107l-2 -105q1 -48 1 -139l1 -68v-68q3 -158 16 -269q19 -154 72 -251q59 -109 173 -148q117 -40 200 44z" />
    <glyph glyph-name="yacute" unicode="&#xfd;" horiz-adv-x="1171" 
d="M663 1087l-47 -57l-47 -56l-9 12l-9 11q-9 13 -15 21l-139 197l-138 197q-12 18 -37 19l-68 4l-68 4h-16h-9h-11q6 -21 19 -42l11 -17l12 -17q68 -97 107 -149l126 -170l127 -169q24 -32 19 -60q-2 -9 -2 -22l1 -22l2 -132q1 -78 0 -131q-3 -197 -11 -389v-119h211
l-19 821q18 25 48 61l65 76l66 77q78 92 129 154q30 38 71 94l34 47l35 48q4 6 9 16l5 10q3 6 6 11q-128 4 -174 6l-49 -57l-48 -56l-95 -110q-37 -45 -92 -111zM747 1546l122 15l-64 144l-203 -79l-139 -66l17 -16l23 -7l35 -46z" />
    <glyph glyph-name="thorn" unicode="&#xfe;" horiz-adv-x="1010" 
 />
    <glyph glyph-name="ydieresis" unicode="&#xff;" horiz-adv-x="1171" 
d="M524 1639q6 -36 -44 -65q-18 -10 -36 -2l-8 3l-8 1q-17 4 -18 20q-2 31 -1 50q4 35 33 47q38 14 69 -9q12 -8 13 -22v-11v-12zM818 1639q7 -36 -44 -65q-17 -10 -36 -2l-7 3l-8 1q-18 4 -19 20q-2 31 0 50q3 35 33 47q37 14 69 -9q11 -8 12 -22v-23zM663 1087l-47 -57
l-47 -56l-9 12l-9 11q-9 13 -15 21l-139 197l-138 197q-12 18 -37 19l-68 4l-68 4h-16h-9h-11q6 -21 19 -42l11 -17l12 -17q68 -97 107 -149l126 -170l127 -169q24 -32 19 -60q-2 -9 -2 -22l1 -22l2 -132q1 -78 0 -131q-3 -197 -11 -389v-119h211l-19 821q18 25 48 61l65 76
l66 77q78 92 129 154q30 38 71 94l34 47l35 48q4 6 9 16l5 10q3 6 6 11q-128 4 -174 6l-49 -57l-48 -56l-95 -110q-37 -45 -92 -111z" />
    <glyph glyph-name="dotlessi" unicode="&#x131;" horiz-adv-x="555" 
d="M359 223q0 -173 100 -173h46v-50h-442v50h46q100 0 100 173v432q0 77 -111 77h-48v44q222 69 261 182h48v-735z" />
    <glyph glyph-name="circumflex" unicode="&#x2c6;" horiz-adv-x="682" 
 />
    <glyph glyph-name="caron" unicode="&#x2c7;" horiz-adv-x="682" 
 />
    <glyph glyph-name="uni02C9" unicode="&#x2c9;" horiz-adv-x="616" 
 />
    <glyph glyph-name="breve" unicode="&#x2d8;" horiz-adv-x="684" 
 />
    <glyph glyph-name="dotaccent" unicode="&#x2d9;" horiz-adv-x="315" 
 />
    <glyph glyph-name="ring" unicode="&#x2da;" horiz-adv-x="455" 
 />
    <glyph glyph-name="ogonek" unicode="&#x2db;" horiz-adv-x="468" 
 />
    <glyph glyph-name="tilde" unicode="&#x2dc;" horiz-adv-x="906" 
d="M788 756l-12 -6q-13 -6 -21 -11q-55 -30 -133 -50q-19 -4 -32 4l-30 18l-31 18q-36 21 -59 36q-69 45 -167 77q-47 15 -100 5q-30 -6 -66 -21l-32 -15l-32 -15q-5 -2 -9 -9q-4 -6 -5 -12l-5 -64l-4 -64q0 -4 1 -10l2 -5l2 -6q12 4 26 11l11 7l11 7l47 30l48 30
q41 25 106 11q16 -4 35 -15l16 -11l16 -12q17 -12 43 -34l20 -18l21 -18l30 -23q17 -13 31 -21l20 -12q11 -6 21 -10q24 -10 45 -7q77 9 121 29q16 8 40 17l41 15l15 6q9 3 15 7q22 13 14 35q-9 23 -23 55l-12 28l-12 29z" />
    <glyph glyph-name="hungarumlaut" unicode="&#x2dd;" horiz-adv-x="689" 
 />
    <glyph glyph-name="uni0401" unicode="&#x401;" horiz-adv-x="684" 
d="M200 1640q7 -36 -43 -64q-18 -10 -37 -2l-7 2l-8 2q-18 4 -19 19q-2 32 0 50q3 36 33 47q37 15 69 -8q12 -8 12 -23v-23zM495 1640q6 -36 -44 -64q-18 -10 -36 -2l-8 2l-8 2q-17 4 -18 19q-2 32 -1 50q4 36 33 47q38 15 69 -8q12 -8 12 -23zM580 5l1 14l-6 85l-5 85
q-1 27 -26 28l-43 2l-43 3q-52 2 -87 -3q-18 -3 -51 -4q-41 0 -51 9q-9 10 -9 52l-1 280q0 5 1 13l1 8l1 9l5 10l246 -8q4 10 4 28q0 70 -1 113l-2 18l-3 19h-211v17q0 10 -1 22v1q-2 6 -2 18l-2 31v6v3q-4 74 -7 148q-3 64 -5 167q0 22 5 29q6 6 27 8q21 3 48 3l119 2
l119 1q22 1 28 7q5 6 4 29q-3 74 -7 140q-1 7 -3 19l-3 11l-2 11q-62 -4 -141 -5h-71h-70q-185 2 -284 -5v-38l6 -176l4 -176l5 -206q3 -120 4 -206q1 -234 -11 -413l-6 -96l-4 -95q0 -17 2 -23z" />
    <glyph glyph-name="uni0410" unicode="&#x410;" horiz-adv-x="900" 
d="M697 0h153l-6 35l-1 4l-5 33l-4 20v1q-16 94 -27 151q-55 288 -110 468q-50 166 -105 332t-127 301q-15 29 -45 69q-18 25 -47 21l-4 -6l-2 -6l-51 -207l-50 -207q-13 -57 -32 -143l-30 -144l-20 -91l-21 -92l-32 -146l-32 -147l-22 -107l-11 -54l-11 -56v0l-5 -29h177
l16 100l72 329l9 41l9 42q5 19 10 23q6 5 25 5l71 -2q45 -1 72 0q31 0 48 -17q0 -1 17 -65q20 -71 40 -145q58 -214 68 -251z" />
    <glyph glyph-name="uni0411" unicode="&#x411;" horiz-adv-x="879" 
d="M733 1446l34 2q17 0 27 -2q35 -8 33 -43l-5 -70l-5 -69l-1 -26l-1 -25q0 -24 -24 -27l-294 -35l-34 -5l-34 -5q-30 -4 -41 -36l-6 -18q-3 -10 -3 -18l-35 -376q-3 -32 4 -43q8 -11 37 -19q119 -31 206 -72q155 -74 188 -231l3 -15q2 -9 4 -15q23 -47 -19 -94
q-69 -79 -134 -108q-8 -4 -21 -13l-11 -8l-10 -7q-73 -41 -205 -60q-124 -17 -258 1l-15 2l-15 3q-6 2 -10 4q-5 3 -7 7q-13 33 -28 79q-3 10 -2 24l12 118l12 98l10 98q14 138 23 261l6 105l6 105l2 26l3 27q4 32 3 52q-1 53 9 132q4 33 8 75l5 74q3 42 17 69q11 22 41 33
q33 11 78 16l40 4l40 3q62 5 151 11l151 9l16 1l16 -1z" />
    <glyph glyph-name="uni0413" unicode="&#x413;" horiz-adv-x="695" 
d="M70 1073l21 -351l41 -702q0 -3 2 -8l2 -5l3 -6l28 -1q17 0 28 1q85 8 166 19q27 3 34 11q6 8 5 34l-19 248l-25 299l-24 299l-8 102l-7 102q-1 26 6 37q8 12 32 17q32 8 94 18l161 26q35 5 35 34q-2 81 -8 193q-1 8 -4 21l-3 11l-3 11l-144 -11l-144 -12
q-169 -15 -289 -33z" />
    <glyph glyph-name="uni0414" unicode="&#x414;" horiz-adv-x="1422" 
d="M1357 265l-9 111l-7 90l-7 91q-2 24 -7 30t-30 13l-70 17q-23 5 -28 11t-4 30l3 49l3 49l5 144q3 84 3 145q0 143 -29 393q-3 23 -25 35q-33 19 -78 18q-16 0 -39 -3l-39 -6l-8 -2l-606 -16q-64 8 -102 -6q-22 0 -25 -14q-14 -10 -16 -29q-29 -251 -29 -394q0 -60 3 -144
l5 -145l3 -48l3 -49q1 -24 -4 -30t-28 -11l-70 -18q-26 -7 -30 -12q-6 -6 -8 -31l-7 -90l-6 -90l-10 -112l-9 -112l-3 -50l-2 -51l48 -7l48 -7l93 -14l5 7q3 3 4 6l13 43l12 44q15 51 22 87q7 40 13 100l5 50l5 50q3 28 13 37q11 10 38 10l29 1h29l181 6q106 4 180 9
q54 3 135 11l72 -2l29 -1h29q27 -1 37 -10q11 -10 14 -37l5 -50l5 -51q6 -59 13 -99q7 -37 21 -88l13 -43l13 -44q1 -2 4 -6l5 -6l93 13q59 9 96 15l-2 51l-3 50z" />
    <glyph glyph-name="uni0415" unicode="&#x415;" horiz-adv-x="684" 
d="M626 1398q-1 7 -3 19l-3 11l-2 11q-62 -4 -141 -5h-71h-70q-185 2 -284 -5v-38l6 -176l4 -176l5 -206q3 -120 4 -206q1 -234 -11 -413l-6 -96l-4 -95q0 -17 2 -23l528 5l1 14l-6 85l-5 85q-1 27 -26 28l-43 2l-43 3q-52 2 -87 -3q-18 -3 -51 -4q-41 0 -51 9q-9 10 -9 52
l-1 280q0 5 1 13l1 8l1 9l5 10l246 -8q4 10 4 28q0 70 -1 113l-2 18l-3 19h-211v17q0 10 -1 22v1q-2 6 -2 18l-2 31v6v3q-4 74 -7 148q-3 64 -5 167q0 22 5 29q6 6 27 8q21 3 48 3l119 2l119 2q22 0 28 6q5 6 4 29q-3 74 -7 140z" />
    <glyph glyph-name="uni0416" unicode="&#x416;" horiz-adv-x="1711" 
d="M648 381l-16 -15l-254 -251l-47 -46l-47 -47q-18 -17 -40 -15l-73 9l-72 9l-9 1l-8 1q-32 7 -18 34q14 28 39 59q57 70 122 146l42 49l41 48q48 56 85 95q41 43 107 106l55 53l54 52q35 34 38 48q4 18 -21 60q-12 19 -32 45l-17 21l-17 21l-106 137l-108 137l-61 76
l-61 75q-13 16 -20 28q-13 25 12 31l70 17l69 16q29 7 51 -19l253 -295l13 -13l12 -14q27 -29 38 7q10 31 14 67l12 117l12 117q3 30 9 37q7 8 37 10q23 2 59 7l30 5l29 4q29 4 37 -3q7 -8 6 -36l-2 -88l-3 -89q-1 -24 -6 -66l-6 -66l-2 -51l-1 -51q0 -3 2 -8l2 -6l2 -6l7 3
l6 3q8 3 11 6l67 66l66 66l51 52l52 51l18 16l17 16q20 19 29 38q2 4 8 8l5 4l4 4l27 29l26 28l12 13l11 12l51 51q37 36 80 22q62 -19 120 -59q40 -27 9 -64l-13 -14l-12 -14l-108 -127q-64 -76 -109 -126q-24 -27 -63 -65l-32 -31l-32 -32l-108 -109l-34 -36l-34 -35
q-42 -47 -3 -98l60 -80q36 -47 60 -80q15 -20 36 -54l17 -27l18 -27l26 -37l26 -38l13 -19l13 -20l9 -12l9 -12q11 -14 21 -22q18 -14 36 -52l16 -33l16 -34l9 -20l5 -11l6 -11l-8 -3l-8 -3q-7 -3 -12 -3l-72 -4l-71 -3q-19 -1 -41 19q-36 32 -82 96l-18 25l-19 26
q-21 28 -39 49q-32 35 -76 87l-74 89l-6 7l-7 5q-7 6 -15 1q-15 -9 -18 -26q-3 -21 -6 -47l-5 -48q-4 -41 -6 -81l-4 -77l-4 -76l-3 -34q-1 -20 -22 -21l-71 -4l-72 -4q-31 -1 -32 34q-1 59 0 143l1 85l2 85q0 31 -24 49z" />
    <glyph glyph-name="uni0417" unicode="&#x417;" horiz-adv-x="729" 
d="M81 328l31 13q34 15 58 25q13 5 30 -13q38 -40 61 -61q23 -20 63 -25q41 -5 67 9q13 6 19 18q81 149 74 262q-1 20 -10 53q-1 6 -7 17l-4 8l-3 8q-21 78 -119 146q-21 14 -53 34l-54 33l-22 13l-21 15q-24 17 -18 48q11 61 39 105t64 107l62 107q3 5 6 13l3 8l3 9l-11 3
l-11 3q-12 4 -20 5q-77 6 -142 9q-61 2 -69 12q-6 6 -11 68l-1 27v28l5 14l18 2l19 2l382 9q32 1 38 -5q7 -5 10 -38q10 -88 13 -137q3 -56 -28 -100l-100 -142l-14 -19l-12 -20q-19 -32 -17 -44q2 -11 27 -37q50 -51 98 -108q155 -184 128 -472q-13 -137 -67 -232
q-40 -71 -116 -94q-175 -52 -289 86q-49 60 -130 215z" />
    <glyph glyph-name="uni0418" unicode="&#x418;" horiz-adv-x="965" 
d="M312 660l13 27l86 180l85 180q105 223 156 366l12 29q9 22 32 21l86 -2q52 -1 87 -3q46 -3 41 -53l-9 -101l-8 -102l-5 -64l-4 -65l-9 -112l-9 -112q-13 -135 -29 -284l-11 -79l-11 -79l-9 -92q-6 -58 -10 -91l-16 -104l-16 -104l-2 -7l-2 -4l-1 -5l-106 12l-104 12l3 85
l4 84q3 99 5 166l2 81l2 81q1 93 -4 164q-14 0 -22 -9q-3 -3 -5 -8l-4 -9l-17 -39l-17 -39l-68 -141l-67 -142q-66 -138 -101 -216q-14 -32 -47 -30l-64 5l-65 4q-21 1 -27 7q-6 7 -6 28l-1 239l1 238q1 67 4 164l5 163l17 566q1 25 7 31q7 7 31 5l41 -2l41 -3q47 -3 80 -13
q26 -8 31 -14t5 -33l-1 -70l-3 -70l-12 -245l-11 -245l-1 -70v-70l1 -16l2 -16l10 -2z" />
    <glyph glyph-name="uni0419" unicode="&#x419;" horiz-adv-x="965" 
d="M312 660l13 27l86 180l85 180q105 223 156 366l12 29q9 22 32 21l86 -2q52 -1 87 -3q46 -3 41 -53l-9 -101l-8 -102l-5 -64l-4 -65l-9 -112l-9 -112q-13 -135 -29 -284l-11 -79l-11 -79l-9 -92q-6 -58 -10 -91l-16 -104l-16 -104l-2 -7l-2 -4l-1 -5l-106 12l-104 12l3 85
l4 84q3 99 5 166l2 81l2 81q1 93 -4 164q-14 0 -22 -9q-3 -3 -5 -8l-4 -9l-17 -39l-17 -39l-68 -141l-67 -142q-66 -138 -101 -216q-14 -32 -47 -30l-64 5l-65 4q-21 1 -27 7q-6 7 -6 28l-1 239l1 238q1 67 4 164l5 163l17 566q1 25 7 31q7 7 31 5l41 -2l41 -3q47 -3 80 -13
q26 -8 31 -14t5 -33l-1 -70l-3 -70l-12 -245l-11 -245l-1 -70v-70l1 -16l2 -16l10 -2zM271 1594q-16 9 -17 18q-2 8 9 23l17 22l16 22q15 20 25 22q10 3 33 -6l28 -11q16 -6 29 -9q70 -17 128 -1l77 22q43 13 76 24q12 4 26 12l13 8l12 8q20 13 36 -2q9 -9 21 -20l22 -19
q18 -14 3 -32q-13 -17 -24 -24l-53 -32q-30 -19 -53 -31q-62 -34 -115 -48q-17 -5 -43 -9l-22 -4l-21 -3q-105 4 -223 70z" />
    <glyph glyph-name="uni041A" unicode="&#x41a;" horiz-adv-x="907" 
d="M408 954q83 66 112 143q53 140 170 247l9 9q5 4 10 6q29 11 72 13l37 1q25 0 39 1l-8 -16q-92 -65 -144 -152q-17 -29 -35 -72l-14 -37l-15 -37q-5 -14 -12 -33l-10 -34q-13 -41 -28 -63l-14 -22l-14 -22q-17 -24 -32 -41q-39 -43 -88 -58q-45 -13 -50 -29q-5 -15 19 -56
l39 -64l39 -64l42 -75l42 -76l77 -139l3 -6l65 -127l2 -5l3 -6q3 -6 2 -11q-1 -18 7 -41l7 -20l7 -20q2 -7 6 -18l4 -10l5 -11l-11 -3l-11 -3q-11 -3 -19 -3l-56 4l-56 5q-22 1 -33 24q-68 147 -139 296l-137 286q-1 3 -5 7l-3 4l-4 5q-7 -11 -9 -24v-12v-11l1 -92l1 -92
l-1 -136l-1 -136v-33l-1 -32q-2 -17 -6 -22q-5 -4 -21 -4l-89 5l-88 6q-24 2 -24 27l1 41l16 289l17 290q17 324 15 688v20q1 21 22 21l61 1q36 0 61 -1q29 -2 49 -27t20 -55q-1 -20 1 -54l2 -27l1 -27q1 -87 -1 -150q-1 -22 -4 -61l-5 -61q0 -8 1 -22l1 -11l1 -13
q55 2 99 38z" />
    <glyph glyph-name="uni041B" unicode="&#x41b;" horiz-adv-x="1274" 
d="M886 29l4 1l-3 14l-6 -1zM1060 1443h-12l-40 -3l-41 -3q-138 -8 -216 -30q-19 -5 -56 -13l-28 -7l-28 -7q-65 -17 -141 -40q-7 -2 -14 -7t-9 -10q-15 -37 -17 -62q-2 -28 -4 -71l-3 -72l-10 -192l-11 -192q-7 -111 -44 -196l-17 -40l-17 -41q-21 -49 -36 -81
q-14 -27 -34 -62l-19 -31l-18 -30q-4 -6 -12 -14l-7 -6l-7 -7l-19 -19l-8 -7l-8 -8q-9 -10 -16 -14q-39 -23 -87 -46q-23 -11 -27 -17q-4 -7 -2 -32l5 -54q4 -30 30 -28l31 4l30 5l30 4q18 3 30 6q29 8 63 29l29 18l30 19q25 17 48 39q30 17 59 49q40 43 74 112
q90 185 120 523q24 268 23 393q96 14 161 21q79 9 94 -73l3 -21l4 -22l21 -130l21 -129l14 -100l13 -99l27 -201l26 -201q5 -39 9 -102l4 -51l5 -51q2 -27 13 -36t38 -6q40 3 81 10q7 1 17 5l8 4l8 3q3 24 -68 705t-80 713z" />
    <glyph glyph-name="uni041C" unicode="&#x41c;" horiz-adv-x="967" 
d="M686 743l2 -10q2 -13 3 -21l36 -562l7 -150h183v130l-1 1l-2 227l-2 228q-2 383 -18 642l-2 38l-3 39q-3 45 -13 76q-9 31 -42 31l-15 -23l-15 -23q-19 -29 -31 -49l-114 -194l-114 -195q-4 -6 -11 -15l-6 -8l-7 -8l-7 6l-6 5q-7 6 -10 11l-63 83q-36 47 -62 83l-99 140
l-98 140q-7 10 -22 27l-12 14l-10 14q-17 22 -42 16q-25 -5 -32 -32q-8 -36 -7 -80l5 -141l5 -141q9 -371 -5 -896q-1 -17 1 -26v-110h206v137l3 113l18 469q0 12 3 29l4 28l9 3l14 -17l13 -17l66 -94q40 -56 67 -92q32 -43 90 -22q9 29 61 110q52 82 73 97z" />
    <glyph glyph-name="uni041D" unicode="&#x41d;" horiz-adv-x="825" 
d="M226 7q5 5 5 23l2 41l2 41l4 167l3 167q2 56 5 102q1 20 7 26t26 8l20 1l232 10h17l9 -1l9 -1l1 -9l1 -9l2 -15v-112v-203v-203q0 -8 2 -19l4 -19h188q7 24 9 51q1 11 0 26l-2 26l-8 278q-5 164 -6 278q-3 161 1 446q1 53 4 137l5 136q1 13 0 34l-2 17v19
q-95 -5 -172 -19q-14 -2 -17 -13q-2 -4 -2 -10v-11l1 -193l-1 -193l1 -48v-48q-2 -56 -14 -96q-7 -22 -10 -26q-6 -6 -25 -7q-118 -3 -252 -4q-19 0 -24 6q-5 5 -7 25q-2 39 -2 71l5 268l5 268l-88 2l-88 2l-1 -9l-1 -8q-1 -8 -1 -13l-4 -179l-4 -180l-13 -822l-2 -180
q0 -21 5 -27q6 -5 26 -6q64 -1 123 1q17 1 22 6z" />
    <glyph glyph-name="uni041E" unicode="&#x41e;" horiz-adv-x="857" 
d="M761 477l9 38l9 38q20 94 26 169q2 61 -3 111q-6 68 -25 124q-25 76 -77 203q-21 51 -44 82q-83 108 -196 167q-89 46 -156 4l-15 -9l-15 -9q-17 -10 -27 -22q-144 -183 -176 -406q-21 -146 -16 -293q8 -213 59 -343q50 -126 112 -209q86 -116 244 -122q50 -2 83 37
l21 25l23 25q106 123 132 251l8 32l8 32q6 28 16 75z" />
    <glyph glyph-name="uni041F" unicode="&#x41f;" horiz-adv-x="886" 
d="M812 3l-23 -1q-28 -2 -46 -2q-50 -1 -87 6q-34 7 -37 37q-2 35 -5 82l-4 82q-1 29 -1 68l1 172l-1 171l-3 215l-5 215l1 17l1 17q2 32 -29 37l-22 2l-22 1l-101 4l-100 2q-29 0 -39 -9q-11 -9 -13 -38q-1 -19 -1 -48l-1 -48l-3 -163l-5 -164l-8 -212l-8 -213
q-1 -31 0 -82v-41l1 -41q-1 -42 -11 -52q-11 -9 -53 -9l-89 2q-33 1 -40 8t-7 39l-2 124q0 71 1 125q4 101 10 233l12 233l6 102l6 102l2 89l2 88q2 64 6 99q1 9 6 20l5 11l4 10l2 3l3 4q4 4 4 7q7 36 59 37l102 3l101 4q120 3 203 3q37 0 91 -9l45 -7l46 -7q23 -3 24 -30
l3 -136l4 -136l3 -147l4 -197q2 -118 5 -198q3 -83 9 -199l10 -199q1 -16 4 -41l2 -21l2 -23z" />
    <glyph glyph-name="uni0420" unicode="&#x420;" horiz-adv-x="633" 
d="M557 986q26 103 5 171q-58 186 -214 255q-16 7 -29 9q-110 22 -243 12l-12 -2l-7 -1l-7 -2v-7v-6v-10l14 -195l12 -195l10 -190l9 -191l12 -184l13 -185l6 -79l6 -78l6 -108h156v27q3 10 3 25l-2 55v1l-6 165l-5 136l-6 136q-3 49 37 76q29 20 64 48l31 25l31 26
q17 14 30 40q55 104 86 226z" />
    <glyph glyph-name="uni0421" unicode="&#x421;" horiz-adv-x="651" 
d="M517 620l-27 1l-27 1l-5 -31l-6 -31q-3 -17 -7 -46l-6 -47q-8 -55 -26 -91q-14 -29 -60 -60l-5 -1q-3 -1 -4 0l-15 6l-16 6q-18 7 -27 19q-35 43 -45 125q-6 46 -15 128l-14 127q-20 168 28 318l9 28q6 16 10 28q14 31 33 50q32 31 59 24q26 -6 38 -49l9 -34l7 -34
q6 -24 31 -23l40 1l39 2q16 2 20 7t3 21l-2 15l-1 15q-2 95 -64 215q-33 65 -124 114q-11 6 -29 8q-89 12 -148 -62q-38 -47 -66 -137q-44 -142 -48 -341q-6 -269 32 -610q4 -29 13 -47q44 -81 77 -132q32 -51 85 -82q60 -34 135 -13q69 19 110 70q45 53 60 135
q28 159 31 246l2 62v63q0 21 -6 27q-6 5 -26 6z" />
    <glyph glyph-name="uni0422" unicode="&#x422;" horiz-adv-x="765" 
d="M54 1308q3 -79 12 -112q43 -11 116 -11h30l29 1q35 -1 60 -3l2 -13l1 -11q2 -13 2 -22l-3 -273q-2 -160 -5 -273l-9 -295l-10 -296h160l-1 27l-1 28l-2 273q-1 161 0 273q2 115 7 273l9 272q0 28 6 34q5 4 33 6q85 7 190 19q24 3 29 9t5 30l1 167q0 1 -5 20
q-131 -17 -327 -19l-82 -1h-82q-99 0 -163 -2q-6 -20 -2 -101z" />
    <glyph glyph-name="uni0423" unicode="&#x423;" horiz-adv-x="1171" 
d="M663 1087l-47 -57l-47 -56l-9 12l-9 11q-9 13 -15 21l-139 197l-138 197q-12 18 -37 19l-68 4l-68 4h-16h-9h-11q6 -21 19 -42l11 -17l12 -17q68 -97 107 -149l126 -170l127 -169q24 -32 19 -60q-2 -9 -2 -22l1 -22l2 -132q1 -78 0 -131q-3 -197 -11 -389v-119h211
l-19 821q18 25 48 61l65 76l66 77q78 92 129 154q30 38 71 94l34 47l35 48q4 6 9 16l5 10q3 6 6 11q-128 4 -174 6l-49 -57l-48 -56l-95 -110q-37 -45 -92 -111z" />
    <glyph glyph-name="uni0424" unicode="&#x424;" horiz-adv-x="1041" 
d="M342 38l18 118l17 117l1 10v10q0 12 2 19q15 48 -39 80q-23 13 -64 42l-31 22l-32 21q-73 44 -115 141q-40 93 -44 153q-5 61 16 100l6 15l7 14q68 141 197 176q13 3 33 7l17 2l17 3q29 6 42 20t17 44l4 37l3 37q13 92 27 187q3 18 10 24q6 6 25 7q47 1 85 -2
q24 -2 30 -9t7 -31l4 -121q2 -71 2 -121q-1 -52 46 -76l18 -9q10 -4 18 -6q131 -22 209 -146q96 -153 40 -316q-27 -79 -108 -132q-92 -60 -173 -72q-44 -6 -51 -53q-21 -129 -52 -295q-8 -44 -18 -51q-8 -6 -53 0l-51 6l-51 5l-16 2l-9 2l-10 1q-1 17 -1 18z" />
    <glyph glyph-name="uni0425" unicode="&#x425;" horiz-adv-x="986" 
d="M829 1240l93 217q3 6 7 17l3 10l4 11l-23 1h-23q-26 0 -43 2q-44 7 -64 -38l-79 -169l-79 -170l-77 -163q-17 -35 -54 -34q-69 112 -139 274q-24 55 -59 143l-29 72l-30 71q-68 -2 -126 -4l4 -28l4 -28q4 -31 9 -52q66 -238 198 -484l63 -117q23 -41 1 -82l-35 -67
l-35 -67l-258 -500q-3 -5 -6 -14l-3 -8l-3 -10l12 -2l11 -3q12 -2 20 -3h15h15q19 0 30 -2q58 -10 85 50q17 36 44 92l45 92l61 129l62 130q11 23 20 36q20 26 40 0q7 -8 14 -20l11 -22q23 -46 43 -113l16 -58l16 -58q13 -44 30 -111l29 -112q7 -25 17 -33q9 -8 35 -11
l38 -2l38 -2q36 -3 57 26l-2 8l-2 9l-31 97q-18 58 -30 97l-45 158l-43 159l-28 102l-28 102q-14 52 10 98q42 80 80 167z" />
    <glyph glyph-name="uni0426" unicode="&#x426;" horiz-adv-x="1216" 
d="M1070 14q59 9 96 14l-3 51l-2 50l-10 112l-9 112l-7 90l-7 90q-2 25 -7 31q-5 5 -30 12l-70 18q-23 5 -28 11t-4 30l3 49l3 48l5 145q3 84 3 144q0 143 -29 394q-3 22 -25 35q-33 18 -78 17q-16 0 -39 -3l-39 -6q-22 -2 -25 -31q-4 -36 -5 -83l-4 -151l-4 -152
q-2 -115 -23 -248q-9 -52 -58 -61q-62 -10 -118 -13q-31 -1 -70 0l-70 1q-8 1 -20 4l-19 5q-38 10 -43 52l-7 76q-5 44 -7 75q-6 115 -11 279l-2 83v83q0 24 -5 30q-5 8 -26 14q-18 5 -36 6l-158 7q-20 1 -26 -5t-6 -26l3 -188l5 -188l3 -128q3 -73 8 -129q4 -50 14 -122
l9 -61l9 -60l3 -11l3 -10q5 -27 36 -29l71 -8l71 -7q86 -9 142 -12q75 -5 181 -9l181 -6h29l29 -1q27 0 37 -10q11 -9 14 -37l5 -50l5 -50q6 -60 13 -100q7 -36 21 -87l13 -44l13 -43q1 -3 3 -6l6 -7z" />
    <glyph glyph-name="uni0427" unicode="&#x427;" horiz-adv-x="838" 
d="M83 1426l112 -14q21 -3 24 -24l5 -31l4 -30l9 -56l10 -56q13 -65 34 -109q11 -24 28 -52l32 -51q10 -16 27 -18q50 -4 75 17l33 28q18 16 31 30q33 35 49 72q7 17 16 46l8 24l8 23l19 49l20 49q8 21 35 17l37 -7l37 -5q22 -4 27 -10q6 -7 6 -28l1 -77l1 -76l5 -351
l4 -233l5 -234l1 -136l2 -136l-1 -10v-9l-22 -9l-20 -9q-25 -9 -42 -10q-39 -1 -99 18q-12 4 -18 18q-4 11 -4 28v84l2 83l4 92l5 92l3 149l3 150q0 35 -2 68q-3 47 -46 27l-7 -4l-6 -4q-9 -5 -14 -7l-17 -7l-18 -7q-21 -7 -36 -8q-91 -3 -156 5q-132 16 -188 152
q-27 66 -40 179q-19 154 -14 238q1 16 6 40l4 19l4 19z" />
    <glyph glyph-name="uni0428" unicode="&#x428;" horiz-adv-x="1342" 
d="M579 1356h10l17 2l43 1l42 2q33 2 43 -6t13 -41l9 -82l8 -82q10 -98 18 -165q10 -76 27 -180l29 -180l18 -100l17 -101q7 -40 18 -49t51 -4q37 3 84 12q33 5 36 38l9 98q4 56 5 99q4 183 5 446l-1 145l-2 145v17q1 26 26 29l63 8l63 8q37 4 44 -34q3 -17 5 -41l5 -68
l4 -68q4 -76 2 -136q-4 -157 -15 -306l-6 -73l-8 -73q-11 -94 -14 -145q-4 -60 -20 -144l-14 -70l-14 -71l-5 -31q-4 -17 -8 -29q-14 -44 -30 -72q-3 -6 -13 -10q-9 -4 -18 -5l-93 -9l-92 -9q-108 -10 -185 -13l-97 -5l-97 -3q-111 -3 -194 6l-78 9l-78 10q-32 4 -36 38
l-7 60l-7 61l-19 170l-17 170l-12 147l-12 148l-34 390l-16 167q-1 15 3 20q3 5 18 6q93 7 146 11q30 1 40 -7t13 -38l6 -70l5 -69l9 -123l9 -122l8 -120l10 -121q18 -189 44 -427q3 -30 14 -38q10 -8 40 -3q73 12 184 35q20 4 25 10q5 7 3 27q-10 115 -19 180
q-11 75 -16 175l-4 87l-3 88l-8 189l-8 189l-1 48l-1 25v26z" />
    <glyph glyph-name="uni0429" unicode="&#x429;" horiz-adv-x="1469" 
d="M1383 0h-30q-34 0 -57 2l-58 3l-57 6q-30 2 -51 22q-20 21 -22 51q-1 13 -1 36l1 19v18q-2 34 -7 59q-9 42 -51 43h-71h-70l-369 -1h-128l-129 1q-60 1 -148 9q-26 2 -35 11q-8 8 -11 36l-23 195l-1 5v5q12 19 7 47l-5 23q-3 14 -3 23l-1 24l-2 23q-1 28 2 46q4 31 -1 85
l-3 42q-2 24 -1 42l1 25v25q0 31 2 49q1 23 -3 59l-3 30l-3 29q0 12 2 30l2 14l2 15l1 17q0 9 -2 16q-7 26 8 47q8 11 9 25l-1 39v40v7v6q1 8 4 12q25 38 32 61q1 6 10 10q9 5 16 5l76 -3l75 -4q18 0 20 -21l6 -87l5 -86l6 -179l8 -178q2 -52 8 -128l10 -128l3 -20
q7 -34 40 -37h31h32l138 -9q29 -2 40 8q12 10 13 40l1 92l1 92l3 326v69l1 68q3 66 11 128q2 21 9 27t27 5q54 -2 111 -8q25 -2 24 -28l-2 -88l-3 -88l-2 -104l-2 -103l-1 -90l-2 -90l1 -95l1 -95l2 -23q3 -27 28 -27l161 3q26 1 30 29l7 43l7 44q9 51 11 87q7 110 15 262
l13 263l1 44v43q1 20 7 27q7 8 25 10q47 3 89 1q20 -1 26 -8q7 -7 8 -27l5 -113l5 -113l6 -107l6 -107q3 -79 4 -166l1 -102v-101q1 -19 7 -27q7 -6 26 -10q47 -9 75 -15q19 -4 24 -10t5 -25l1 -130l-1 -130q0 -47 -1 -116l-1 -60l-1 -61h-32z" />
    <glyph glyph-name="uni042A" unicode="&#x42a;" horiz-adv-x="1000" 
d="M923 313l-3 15q-33 157 -188 231q-87 42 -205 72q-30 8 -37 19t-5 43q10 101 25 248q16 155 19 164v0l14 321l-493 -27l6 -195l223 -46l-1 -8q-10 -79 -9 -132q1 -20 -3 -52l-3 -27l-2 -26l-6 -105l-6 -105q-9 -126 -22 -261l-11 -98l-11 -98l-12 -118q-2 -14 2 -24
q15 -48 28 -79q1 -4 6 -7l10 -4l15 -3l15 -2q134 -18 258 -1q132 19 205 60l11 7l10 8q13 9 22 13q64 29 134 108q41 47 19 94q-3 6 -5 15z" />
    <glyph glyph-name="uni042B" unicode="&#x42b;" horiz-adv-x="1277" 
d="M923 362l-3 15q-33 157 -188 231q-87 42 -205 73q-30 7 -37 19q-7 11 -5 42q10 102 25 248q16 155 19 165v0l14 321l-493 -28l6 -194l223 -47l-1 -7q-10 -79 -9 -132q1 -21 -3 -53l-3 -26l-2 -26l-6 -106l-6 -105q-9 -125 -22 -260l-11 -98l-11 -98l-12 -119
q-2 -14 2 -23q15 -48 28 -80q1 -3 6 -6t10 -4l15 -4l15 -2q134 -17 258 0q132 18 205 60l11 7l10 7q13 10 22 14q64 28 134 108q41 47 19 94q-3 5 -5 14zM1197 1543l30 -832l-5 -711h-230q60 1325 25 1554z" />
    <glyph glyph-name="uni042C" unicode="&#x42c;" horiz-adv-x="859" 
d="M582 96q-8 -4 -21 -13l-11 -8l-10 -7q-74 -41 -205 -60q-124 -17 -258 1l-15 2l-15 3q-6 2 -10 4q-5 3 -7 7q-12 31 -28 79q-3 10 -2 24l12 118l12 98l10 98q13 135 23 261l6 105l6 105l2 26l3 27q4 32 3 52v34q20 187 37 361l237 13l-14 -321v0q-3 -9 -19 -164
q-16 -147 -25 -248q-3 -32 4 -43q8 -11 37 -19q118 -30 206 -72q155 -74 188 -231l3 -15q2 -9 4 -15q23 -47 -19 -94q-69 -79 -134 -108z" />
    <glyph glyph-name="uni042D" unicode="&#x42d;" horiz-adv-x="961" 
d="M524 722l50 -1q30 0 50 1q34 3 45 18t4 49q-9 54 -50 118q-74 116 -186 187q-123 78 -254 92l-96 10q-28 2 -29 30l-3 57l-4 58q-1 20 4 26q5 7 25 12q166 44 290 0l16 -4l17 -4q76 -19 111 -47q22 -17 53 -33q71 -36 131 -122q22 -32 50 -82l23 -42l23 -42l22 -36
q12 -22 20 -37q22 -43 26 -92q3 -24 11 -65l7 -33l6 -32l7 -44l6 -44q7 -50 9 -88q3 -68 -45 -185q-28 -68 -114 -167q-45 -50 -75 -75q-35 -29 -89 -48q-20 -6 -49 -14l-49 -12q-153 -40 -297 -28q-29 2 -37 9q-9 8 -12 36q-9 67 -15 132q-2 26 6 33t34 5l97 -7
q57 -4 98 -4q128 -2 239 84q55 42 88 143q6 17 10 41l6 42q4 32 -29 38l-11 2h-11l-210 8q-32 1 -39 9q-7 7 -7 39v39l1 39q1 20 7 26q7 6 27 6h92v-1z" />
    <glyph glyph-name="uni042E" unicode="&#x42e;" horiz-adv-x="1296" 
d="M1134 198q-20 -24 -54 -61l-28 -30l-27 -30q-30 -35 -100 -55l-8 -1l-8 -2q-10 -2 -16 -4q-95 -44 -186 46q-43 42 -78 103q-88 148 -140 378q-3 12 -8 26l-9 25q-8 22 -34 21l-44 -2l-43 -3q-21 -2 -27 -8q-7 -7 -6 -28q1 -84 6 -163l6 -78l5 -77q7 -95 10 -155
q1 -19 -5 -48l-4 -23l-5 -24l-20 -2l-20 -1q-21 -1 -36 -1l-36 1l-36 3q-35 2 -45 11q-10 10 -13 44l-12 148q-7 84 -11 148l-22 434l-22 433l-4 58l-3 58q-1 22 4 29q6 6 27 7q72 4 130 7q25 0 32 -5q6 -6 9 -31l16 -140l16 -140l29 -237l3 -22q5 -25 12 -32q7 -6 33 -6
l31 1l30 1q40 0 51 41q21 75 55 183q23 75 52 158q9 25 22 41l48 57l48 57q26 31 60 22q8 -2 15 -1q103 9 223 -80q112 -82 157 -207l14 -37l13 -38q14 -42 21 -76q16 -72 26 -186q4 -38 6 -97l2 -49l2 -48l3 -44l3 -43q2 -32 -28 -20q0 -108 -82 -206z" />
    <glyph glyph-name="uni042F" unicode="&#x42f;" horiz-adv-x="850" 
d="M784 1126l7 137l7 136l1 20l1 22l-7 1l-5 2q-6 1 -10 1q-164 -11 -261 -48q-66 -25 -106 -66t-44 -90q-12 -158 21 -257q18 -55 77 -151q31 -51 94 -128l-212 -402q-17 -45 -55 -76q-34 -27 -74 -30q-50 -4 -108 32l-16 16l-7 -46l-2 1l-7 -28l-7 -29l-15 -56v0l-6 -27
l21 -11l5 -2l6 -3q112 -58 203 -39q30 6 55 20q9 5 17 11l5 4l4 4l2 2q49 55 87 127l37 69l37 69q40 79 65 143l14 36q9 21 19 37l1 -11l1 -10l-4 -66l-4 -67l-7 -172l-7 -172v-14v-8h162q6 12 6 28q2 152 3 256l1 315l1 316q1 114 4 204z" />
    <glyph glyph-name="uni0430" unicode="&#x430;" horiz-adv-x="1044" 
d="M986 185l-6 84q-3 29 -10 36q-6 6 -34 4q-28 -1 -82 -1q-44 0 -61 46l-15 41l-16 41q-16 48 -22 84q-29 180 -40 339q-5 82 -7 203l-2 101l-2 101q-2 41 -5 74q-4 40 -14 51q-9 12 -42 18q-24 4 -58 8l-59 7q-104 13 -242 -49q-8 -3 -17 -11l-16 -13q-79 -68 -124 -182
q-31 -80 -58 -227v-70l-2 -71q-2 -87 -1 -146q3 -168 35 -315q36 -164 134 -283q49 -62 121 -54q65 7 112 18l23 6l23 6q25 8 44 17q48 22 77 62l2 3l4 3q25 23 44 21q18 -2 42 -31l18 -25q12 -16 19 -25q30 -36 67 -31q65 9 101 17q13 3 29 10l28 12q20 9 18 36z" />
    <glyph glyph-name="uni0431" unicode="&#x431;" horiz-adv-x="1059" 
d="M984 1336q-24 -49 -48 -64q-15 -10 -31 -13l-66 -12q-37 -7 -65 -10q-74 -9 -200 -19q-32 -2 -70 -13l-34 -11l-34 -12q-47 -17 -74 -62q-73 -118 -90 -194l-3 -8l-1 -8q-1 -9 6 -15q19 -17 40 -8q8 3 23 8l11 4l11 4q60 25 154 29q23 1 52 -1l52 -6q30 -4 84 -17
q73 -18 142 -106q33 -42 52 -80q21 -39 25 -73q6 -51 14 -125l12 -126l2 -11l3 -12q5 -21 -13 -28q-26 -10 -41 -51q-46 -125 -183 -200q-138 -75 -258 -93q-65 -10 -120 15q-124 58 -178 138q-24 35 -39 71q-50 123 -55 238l-6 133l-7 133q-1 25 2 44q33 212 97 407
q13 39 41 80q11 17 27 37l28 35l27 31q17 20 26 31q22 28 51 31l55 4q30 1 54 0l60 -4l60 -6q77 -7 121 -8q40 -2 98 0l50 3l49 2l48 2l47 1l8 -1l8 -2q1 -32 -24 -82z" />
    <glyph glyph-name="uni0432" unicode="&#x432;" horiz-adv-x="649" 
d="M361 727l-22 9l-22 8q-8 4 -22 9l-13 6q-8 3 -15 6q31 24 32 25q59 40 120 108q93 103 73 243q-11 80 -32 126q-40 92 -119 117q-142 45 -255 56l-17 1l-16 1l-3 -9l8 -222q4 -131 9 -222q10 -212 -1 -451q-10 -211 28 -507q2 -17 8 -23q7 -6 25 -7q38 -2 75 0
q144 8 212 39q44 20 73 63q76 110 98 263q14 107 -38 203q-50 91 -142 139q-17 9 -44 19z" />
    <glyph glyph-name="uni0433" unicode="&#x433;" horiz-adv-x="695" 
d="M70 1073l21 -351l41 -702q0 -3 2 -8l2 -5l3 -6l28 -1q17 0 28 1q85 8 166 19q27 3 34 11q6 8 5 34l-19 248l-25 299l-24 299l-8 102l-7 102q-1 26 6 37q8 12 32 17q32 8 94 18l161 26q35 5 35 34q-2 81 -8 193q-1 8 -4 21l-3 11l-3 11l-144 -11l-144 -12
q-169 -15 -289 -33z" />
    <glyph glyph-name="uni0434" unicode="&#x434;" horiz-adv-x="1422" 
d="M1357 265l-9 111l-7 90l-7 91q-2 24 -7 30t-30 13l-70 17q-23 5 -28 11t-4 30l3 49l3 49l5 144q3 84 3 145q0 143 -29 393q-3 23 -25 35q-33 19 -78 18q-16 0 -39 -3l-39 -6l-8 -2l-606 -16q-64 8 -102 -6q-22 0 -25 -14q-14 -10 -16 -29q-29 -251 -29 -394q0 -60 3 -144
l5 -145l3 -48l3 -49q1 -24 -4 -30t-28 -11l-70 -18q-26 -7 -30 -12q-6 -6 -8 -31l-7 -90l-6 -90l-10 -112l-9 -112l-3 -50l-2 -51l48 -7l48 -7l93 -14l5 7q3 3 4 6l13 43l12 44q15 51 22 87q7 40 13 100l5 50l5 50q3 28 13 37q11 10 38 10l29 1h29l181 6q106 4 180 9
q54 3 135 11l72 -2l29 -1h29q27 -1 37 -10q11 -10 14 -37l5 -50l5 -51q6 -59 13 -99q7 -37 21 -88l13 -43l13 -44q1 -2 4 -6l5 -6l93 13q59 9 96 15l-2 51l-3 50z" />
    <glyph glyph-name="uni0435" unicode="&#x435;" horiz-adv-x="672" 
d="M592 488l1 -10q1 -11 0 -17l-8 -60l-8 -59q-10 -69 -19 -119q-14 -70 -72 -147q-32 -41 -109 -66q-52 -16 -124 -6q-49 7 -84 57q-45 64 -60 140q-35 185 -47 373q-12 187 -1 287q21 204 86 368q12 31 37 73l22 35l22 35q3 6 10 10q52 38 125 69l16 -9l15 -8
q16 -9 27 -14q109 -49 158 -172q43 -110 4 -225q-85 -249 -279 -427l-28 -27q-18 -17 -29 -27q-18 -15 -16 -41q9 -96 62 -193q23 -41 55 -65q30 -22 53 -14t30 45l18 80q9 46 14 81q6 40 41 46l21 4l21 6q26 7 45 7z" />
    <glyph glyph-name="uni0436" unicode="&#x436;" horiz-adv-x="1711" 
d="M648 381l-16 -15l-254 -251l-47 -46l-47 -47q-18 -17 -40 -15l-73 9l-72 9l-9 1l-8 1q-32 7 -18 34q14 28 39 59q57 70 122 146l42 49l41 48q48 56 85 95q41 43 107 106l55 53l54 52q35 34 38 48q4 18 -21 60q-12 19 -32 45l-17 21l-17 21l-106 137l-108 137l-61 76
l-61 75q-13 16 -20 28q-13 25 12 31l70 17l69 16q29 7 51 -19l253 -295l13 -13l12 -14q27 -29 38 7q10 31 14 67l12 117l12 117q3 30 9 37q7 8 37 10q23 2 59 7l30 5l29 4q29 4 37 -3q7 -8 6 -36l-2 -88l-3 -89q-1 -24 -6 -66l-6 -66l-2 -51l-1 -51q0 -3 2 -8l2 -6l2 -6l7 3
l6 3q8 3 11 6l67 66l66 66l51 52l52 51l18 16l17 16q20 19 29 38q2 4 8 8l5 4l4 4l27 29l26 28l12 13l11 12l51 51q37 36 80 22q62 -19 120 -59q40 -27 9 -64l-13 -14l-12 -14l-108 -127q-64 -76 -109 -126q-24 -27 -63 -65l-32 -31l-32 -32l-108 -109l-34 -36l-34 -35
q-42 -47 -3 -98l60 -80q36 -47 60 -80q15 -20 36 -54l17 -27l18 -27l26 -37l26 -38l13 -19l13 -20l9 -12l9 -12q11 -14 21 -22q18 -14 36 -52l16 -33l16 -34l9 -20l5 -11l6 -11l-8 -3l-8 -3q-7 -3 -12 -3l-72 -4l-71 -3q-19 -1 -41 19q-36 32 -82 96l-18 25l-19 26
q-21 28 -39 49q-32 35 -76 87l-74 89l-6 7l-7 5q-7 6 -15 1q-15 -9 -18 -26q-3 -21 -6 -47l-5 -48q-4 -41 -6 -81l-4 -77l-4 -76l-3 -34q-1 -20 -22 -21l-71 -4l-72 -4q-31 -1 -32 34q-1 59 0 143l1 85l2 85q0 31 -24 49z" />
    <glyph glyph-name="uni0437" unicode="&#x437;" horiz-adv-x="729" 
d="M81 328l31 13q34 15 58 25q13 5 30 -13q38 -40 61 -61q23 -20 63 -25q41 -5 67 9q13 6 19 18q81 149 74 262q-1 20 -10 53q-1 6 -7 17l-4 8l-3 8q-21 78 -119 146q-21 14 -53 34l-54 33l-22 13l-21 15q-24 17 -18 48q11 61 39 105t64 107l62 107q3 5 6 13l3 8l3 9l-11 3
l-11 3q-12 4 -20 5q-77 6 -142 9q-61 2 -69 12q-6 6 -11 68l-1 27v28l5 14l18 2l19 2l382 9q32 1 38 -5q7 -5 10 -38q10 -88 13 -137q3 -56 -28 -100l-100 -142l-14 -19l-12 -20q-19 -32 -17 -44q2 -11 27 -37q50 -51 98 -108q155 -184 128 -472q-13 -137 -67 -232
q-40 -71 -116 -94q-175 -52 -289 86q-49 60 -130 215z" />
    <glyph glyph-name="uni0438" unicode="&#x438;" horiz-adv-x="965" 
d="M312 660l13 27l86 180l85 180q105 223 156 366l12 29q9 22 32 21l86 -2q52 -1 87 -3q46 -3 41 -53l-9 -101l-8 -102l-5 -64l-4 -65l-9 -112l-9 -112q-13 -135 -29 -284l-11 -79l-11 -79l-9 -92q-6 -58 -10 -91l-16 -104l-16 -104l-2 -7l-2 -4l-1 -5l-106 12l-104 12l3 85
l4 84q3 99 5 166l2 81l2 81q1 93 -4 164q-14 0 -22 -9q-3 -3 -5 -8l-4 -9l-17 -39l-17 -39l-68 -141l-67 -142q-66 -138 -101 -216q-14 -32 -47 -30l-64 5l-65 4q-21 1 -27 7q-6 7 -6 28l-1 239l1 238q1 67 4 164l5 163l17 566q1 25 7 31q7 7 31 5l41 -2l41 -3q47 -3 80 -13
q26 -8 31 -14t5 -33l-1 -70l-3 -70l-12 -245l-11 -245l-1 -70v-70l1 -16l2 -16l10 -2z" />
    <glyph glyph-name="uni0439" unicode="&#x439;" horiz-adv-x="965" 
d="M312 660l13 27l86 180l85 180q105 223 156 366l12 29q9 22 32 21l86 -2q52 -1 87 -3q46 -3 41 -53l-9 -101l-8 -102l-5 -64l-4 -65l-9 -112l-9 -112q-13 -135 -29 -284l-11 -79l-11 -79l-9 -92q-6 -58 -10 -91l-16 -104l-16 -104l-2 -7l-2 -4l-1 -5l-106 12l-104 12l3 85
l4 84q3 99 5 166l2 81l2 81q1 93 -4 164q-14 0 -22 -9q-3 -3 -5 -8l-4 -9l-17 -39l-17 -39l-68 -141l-67 -142q-66 -138 -101 -216q-14 -32 -47 -30l-64 5l-65 4q-21 1 -27 7q-6 7 -6 28l-1 239l1 238q1 67 4 164l5 163l17 566q1 25 7 31q7 7 31 5l41 -2l41 -3q47 -3 80 -13
q26 -8 31 -14t5 -33l-1 -70l-3 -70l-12 -245l-11 -245l-1 -70v-70l1 -16l2 -16l10 -2zM271 1594q-16 9 -17 18q-2 8 9 23l17 22l16 22q15 20 25 22q10 3 33 -6l28 -11q16 -6 29 -9q70 -17 128 -1l77 22q43 13 76 24q12 4 26 12l13 8l12 8q20 13 36 -2q9 -9 21 -20l22 -19
q18 -14 3 -32q-13 -17 -24 -24l-53 -32q-30 -19 -53 -31q-62 -34 -115 -48q-17 -5 -43 -9l-22 -4l-21 -3q-105 4 -223 70z" />
    <glyph glyph-name="uni043A" unicode="&#x43a;" horiz-adv-x="907" 
d="M408 954q83 66 112 143q53 140 170 247l9 9q5 4 10 6q29 11 72 13l37 1q25 0 39 1l-8 -16q-92 -65 -144 -152q-17 -29 -35 -72l-14 -37l-15 -37q-5 -14 -12 -33l-10 -34q-13 -41 -28 -63l-14 -22l-14 -22q-17 -24 -32 -41q-39 -43 -88 -58q-45 -13 -50 -29q-5 -15 19 -56
l39 -64l39 -64l42 -75l42 -76l77 -139l3 -6l65 -127l2 -5l3 -6q3 -6 2 -11q-1 -18 7 -41l7 -20l7 -20q2 -7 6 -18l4 -10l5 -11l-11 -3l-11 -3q-11 -3 -19 -3l-56 4l-56 5q-22 1 -33 24q-68 147 -139 296l-137 286q-1 3 -5 7l-3 4l-4 5q-7 -11 -9 -24v-12v-11l1 -92l1 -92
l-1 -136l-1 -136v-33l-1 -32q-2 -17 -6 -22q-5 -4 -21 -4l-89 5l-88 6q-24 2 -24 27l1 41l16 289l17 290q17 324 15 688v20q1 21 22 21l61 1q36 0 61 -1q29 -2 49 -27t20 -55q-1 -20 1 -54l2 -27l1 -27q1 -87 -1 -150q-1 -22 -4 -61l-5 -61q0 -8 1 -22l1 -11l1 -13
q55 2 99 38z" />
    <glyph glyph-name="uni043B" unicode="&#x43b;" horiz-adv-x="1274" 
d="M886 29l4 1l-3 14l-6 -1zM1060 1443h-12l-40 -3l-41 -3q-138 -8 -216 -30q-19 -5 -56 -13l-28 -7l-28 -7q-65 -17 -141 -40q-7 -2 -14 -7t-9 -10q-15 -37 -17 -62q-2 -28 -4 -71l-3 -72l-10 -192l-11 -192q-7 -111 -44 -196l-17 -40l-17 -41q-21 -49 -36 -81
q-14 -27 -34 -62l-19 -31l-18 -30q-4 -6 -12 -14l-7 -6l-7 -7l-19 -19l-8 -7l-8 -8q-9 -10 -16 -14q-39 -23 -87 -46q-23 -11 -27 -17q-4 -7 -2 -32l5 -54q4 -30 30 -28l31 4l30 5l30 4q18 3 30 6q29 8 63 29l29 18l30 19q25 17 48 39q30 17 59 49q40 43 74 112
q90 185 120 523q24 268 23 393q96 14 161 21q79 9 94 -73l3 -21l4 -22l21 -130l21 -129l14 -100l13 -99l27 -201l26 -201q5 -39 9 -102l4 -51l5 -51q2 -27 13 -36t38 -6q40 3 81 10q7 1 17 5l8 4l8 3q3 24 -68 705t-80 713z" />
    <glyph glyph-name="uni043C" unicode="&#x43c;" horiz-adv-x="967" 
d="M686 743l2 -10q2 -13 3 -21l36 -562l7 -150h183v130l-1 1l-2 227l-2 228q-2 383 -18 642l-2 38l-3 39q-3 45 -13 76q-9 31 -42 31l-15 -23l-15 -23q-19 -29 -31 -49l-114 -194l-114 -195q-4 -6 -11 -15l-6 -8l-7 -8l-7 6l-6 5q-7 6 -10 11l-63 83q-36 47 -62 83l-99 140
l-98 140q-7 10 -22 27l-12 14l-10 14q-17 22 -42 16q-25 -5 -32 -32q-8 -36 -7 -80l5 -141l5 -141q9 -371 -5 -896q-1 -17 1 -26v-110h206v137l3 113l18 469q0 12 3 29l4 28l9 3l14 -17l13 -17l66 -94q40 -56 67 -92q32 -43 90 -22q9 29 61 110q52 82 73 97z" />
    <glyph glyph-name="uni043D" unicode="&#x43d;" horiz-adv-x="825" 
d="M226 7q5 5 5 23l2 41l2 41l4 167l3 167q2 56 5 102q1 20 7 26t26 8l20 1l232 10h17l9 -1l9 -1l1 -9l1 -9l2 -15v-112v-203v-203q0 -8 2 -19l4 -19h188q7 24 9 51q1 11 0 26l-2 26l-8 278q-5 164 -6 278q-3 161 1 446q1 53 4 137l5 136q1 13 0 34l-2 17v19
q-95 -5 -172 -19q-14 -2 -17 -13q-2 -4 -2 -10v-11l1 -193l-1 -193l1 -48v-48q-2 -56 -14 -96q-7 -22 -10 -26q-6 -6 -25 -7q-118 -3 -252 -4q-19 0 -24 6q-5 5 -7 25q-2 39 -2 71l5 268l5 268l-88 2l-88 2l-1 -9l-1 -8q-1 -8 -1 -13l-4 -179l-4 -180l-13 -822l-2 -180
q0 -21 5 -27q6 -5 26 -6q64 -1 123 1q17 1 22 6z" />
    <glyph glyph-name="uni043E" unicode="&#x43e;" horiz-adv-x="857" 
d="M761 477l9 38l9 38q20 94 26 169q2 61 -3 111q-6 68 -25 124q-25 76 -77 203q-21 51 -44 82q-83 108 -196 167q-89 46 -156 4l-15 -9l-15 -9q-17 -10 -27 -22q-144 -183 -176 -406q-21 -146 -16 -293q8 -213 59 -343q50 -126 112 -209q86 -116 244 -122q50 -2 83 37
l21 25l23 25q106 123 132 251l8 32l8 32q6 28 16 75z" />
    <glyph glyph-name="uni043F" unicode="&#x43f;" horiz-adv-x="886" 
d="M812 3l-23 -1q-28 -2 -46 -2q-50 -1 -87 6q-34 7 -37 37q-2 35 -5 82l-4 82q-1 29 -1 68l1 172l-1 171l-3 215l-5 215l1 17l1 17q2 32 -29 37l-22 2l-22 1l-101 4l-100 2q-29 0 -39 -9q-11 -9 -13 -38q-1 -19 -1 -48l-1 -48l-3 -163l-5 -164l-8 -212l-8 -213
q-1 -31 0 -82v-41l1 -41q-1 -42 -11 -52q-11 -9 -53 -9l-89 2q-33 1 -40 8t-7 39l-2 124q0 71 1 125q4 101 10 233l12 233l6 102l6 102l2 89l2 88q2 64 6 99q1 9 6 20l5 11l4 10l2 3l3 4q4 4 4 7q7 36 59 37l102 3l101 4q120 3 203 3q37 0 91 -9l45 -7l46 -7q23 -3 24 -30
l3 -136l4 -136l3 -147l4 -197q2 -118 5 -198q3 -83 9 -199l10 -199q1 -16 4 -41l2 -21l2 -23z" />
    <glyph glyph-name="uni0440" unicode="&#x440;" horiz-adv-x="633" 
d="M557 986q26 103 5 171q-58 186 -214 255q-16 7 -29 9q-110 22 -243 12l-12 -2l-7 -1l-7 -2v-7v-6v-10l14 -195l12 -195l10 -190l9 -191l12 -184l13 -185l6 -79l6 -78l6 -108h156v27q3 10 3 25l-2 55v1l-6 165l-5 136l-6 136q-3 49 37 76q29 20 64 48l31 25l31 26
q17 14 30 40q55 104 86 226z" />
    <glyph glyph-name="uni0441" unicode="&#x441;" horiz-adv-x="651" 
d="M517 620l-27 1l-27 1l-5 -31l-6 -31q-3 -17 -7 -46l-6 -47q-8 -55 -26 -91q-14 -29 -60 -60l-5 -1q-3 -1 -4 0l-15 6l-16 6q-18 7 -27 19q-35 43 -45 125q-6 46 -15 128l-14 127q-20 168 28 318l9 28q6 16 10 28q14 31 33 50q32 31 59 24q26 -6 38 -49l9 -34l7 -34
q6 -24 31 -23l40 1l39 2q16 2 20 7t3 21l-2 15l-1 15q-2 95 -64 215q-33 65 -124 114q-11 6 -29 8q-89 12 -148 -62q-38 -47 -66 -137q-44 -142 -48 -341q-6 -269 32 -610q4 -29 13 -47q44 -81 77 -132q32 -51 85 -82q60 -34 135 -13q69 19 110 70q45 53 60 135
q28 159 31 246l2 62v63q0 21 -6 27q-6 5 -26 6z" />
    <glyph glyph-name="uni0442" unicode="&#x442;" horiz-adv-x="765" 
d="M54 1308q3 -79 12 -112q43 -11 116 -11h30l29 1q35 -1 60 -3l2 -13l1 -11q2 -13 2 -22l-3 -273q-2 -160 -5 -273l-9 -295l-10 -296h160l-1 27l-1 28l-2 273q-1 161 0 273q2 115 7 273l9 272q0 28 6 34q5 4 33 6q85 7 190 19q24 3 29 9t5 30l1 167q0 1 -5 20
q-131 -17 -327 -19l-82 -1h-82q-99 0 -163 -2q-6 -20 -2 -101z" />
    <glyph glyph-name="uni0443" unicode="&#x443;" horiz-adv-x="1171" 
d="M663 1087l-47 -57l-47 -56l-9 12l-9 11q-9 13 -15 21l-139 197l-138 197q-12 18 -37 19l-68 4l-68 4h-16h-9h-11q6 -21 19 -42l11 -17l12 -17q68 -97 107 -149l126 -170l127 -169q24 -32 19 -60q-2 -9 -2 -22l1 -22l2 -132q1 -78 0 -131q-3 -197 -11 -389v-119h211
l-19 821q18 25 48 61l65 76l66 77q78 92 129 154q30 38 71 94l34 47l35 48q4 6 9 16l5 10q3 6 6 11q-128 4 -174 6l-49 -57l-48 -56l-95 -110q-37 -45 -92 -111z" />
    <glyph glyph-name="uni0444" unicode="&#x444;" horiz-adv-x="1041" 
d="M342 38l18 118l17 117l1 10v10q0 12 2 19q15 48 -39 80q-23 13 -64 42l-31 22l-32 21q-73 44 -115 141q-40 93 -44 153q-5 61 16 100l6 15l7 14q68 141 197 176q13 3 33 7l17 2l17 3q29 6 42 20t17 44l4 37l3 37q13 92 27 187q3 18 10 24q6 6 25 7q47 1 85 -2
q24 -2 30 -9t7 -31l4 -121q2 -71 2 -121q-1 -52 46 -76l18 -9q10 -4 18 -6q131 -22 209 -146q96 -153 40 -316q-27 -79 -108 -132q-92 -60 -173 -72q-44 -6 -51 -53q-21 -129 -52 -295q-8 -44 -18 -51q-8 -6 -53 0l-51 6l-51 5l-16 2l-9 2l-10 1q-1 17 -1 18z" />
    <glyph glyph-name="uni0445" unicode="&#x445;" horiz-adv-x="986" 
d="M829 1240l93 217q3 6 7 17l3 10l4 11l-23 1h-23q-26 0 -43 2q-44 7 -64 -38l-79 -169l-79 -170l-77 -163q-17 -35 -54 -34q-69 112 -139 274q-24 55 -59 143l-29 72l-30 71q-68 -2 -126 -4l4 -28l4 -28q4 -31 9 -52q66 -238 198 -484l63 -117q23 -41 1 -82l-35 -67
l-35 -67l-258 -500q-3 -5 -6 -14l-3 -8l-3 -10l12 -2l11 -3q12 -2 20 -3h15h15q19 0 30 -2q58 -10 85 50q17 36 44 92l45 92l61 129l62 130q11 23 20 36q20 26 40 0q7 -8 14 -20l11 -22q23 -46 43 -113l16 -58l16 -58q13 -44 30 -111l29 -112q7 -25 17 -33q9 -8 35 -11
l38 -2l38 -2q36 -3 57 26l-2 8l-2 9l-31 97q-18 58 -30 97l-45 158l-43 159l-28 102l-28 102q-14 52 10 98q42 80 80 167z" />
    <glyph glyph-name="uni0446" unicode="&#x446;" horiz-adv-x="1216" 
d="M1070 14q59 9 96 14l-3 51l-2 50l-10 112l-9 112l-7 90l-7 90q-2 25 -7 31q-5 5 -30 12l-70 18q-23 5 -28 11t-4 30l3 49l3 48l5 145q3 84 3 144q0 143 -29 394q-3 22 -25 35q-33 18 -78 17q-16 0 -39 -3l-39 -6q-22 -2 -25 -31q-4 -36 -5 -83l-4 -151l-4 -152
q-2 -115 -23 -248q-9 -52 -58 -61q-62 -10 -118 -13q-31 -1 -70 0l-70 1q-8 1 -20 4l-19 5q-38 10 -43 52l-7 76q-5 44 -7 75q-6 115 -11 279l-2 83v83q0 24 -5 30q-5 8 -26 14q-18 5 -36 6l-158 7q-20 1 -26 -5t-6 -26l3 -188l5 -188l3 -128q3 -73 8 -129q4 -50 14 -122
l9 -61l9 -60l3 -11l3 -10q5 -27 36 -29l71 -8l71 -7q86 -9 142 -12q75 -5 181 -9l181 -6h29l29 -1q27 0 37 -10q11 -9 14 -37l5 -50l5 -50q6 -60 13 -100q7 -36 21 -87l13 -44l13 -43q1 -3 3 -6l6 -7z" />
    <glyph glyph-name="uni0447" unicode="&#x447;" horiz-adv-x="838" 
d="M83 1426l112 -14q21 -3 24 -24l5 -31l4 -30l9 -56l10 -56q13 -65 34 -109q11 -24 28 -52l32 -51q10 -16 27 -18q50 -4 75 17l33 28q18 16 31 30q33 35 49 72q7 17 16 46l8 24l8 23l19 49l20 49q8 21 35 17l37 -7l37 -5q22 -4 27 -10q6 -7 6 -28l1 -77l1 -76l5 -351
l4 -233l5 -234l1 -136l2 -136l-1 -10v-9l-22 -9l-20 -9q-25 -9 -42 -10q-39 -1 -99 18q-12 4 -18 18q-4 11 -4 28v84l2 83l4 92l5 92l3 149l3 150q0 35 -2 68q-3 47 -46 27l-7 -4l-6 -4q-9 -5 -14 -7l-17 -7l-18 -7q-21 -7 -36 -8q-91 -3 -156 5q-132 16 -188 152
q-27 66 -40 179q-19 154 -14 238q1 16 6 40l4 19l4 19z" />
    <glyph glyph-name="uni0448" unicode="&#x448;" horiz-adv-x="1342" 
d="M579 1356h10l17 2l43 1l42 2q33 2 43 -6t13 -41l9 -82l8 -82q10 -98 18 -165q10 -76 27 -180l29 -180l18 -100l17 -101q7 -40 18 -49t51 -4q37 3 84 12q33 5 36 38l9 98q4 56 5 99q4 183 5 446l-1 145l-2 145v17q1 26 26 29l63 8l63 8q37 4 44 -34q3 -17 5 -41l5 -68
l4 -68q4 -76 2 -136q-4 -157 -15 -306l-6 -73l-8 -73q-11 -94 -14 -145q-4 -60 -20 -144l-14 -70l-14 -71l-5 -31q-4 -17 -8 -29q-14 -44 -30 -72q-3 -6 -13 -10q-9 -4 -18 -5l-93 -9l-92 -9q-108 -10 -185 -13l-97 -5l-97 -3q-111 -3 -194 6l-78 9l-78 10q-32 4 -36 38
l-7 60l-7 61l-19 170l-17 170l-12 147l-12 148l-34 390l-16 167q-1 15 3 20q3 5 18 6q93 7 146 11q30 1 40 -7t13 -38l6 -70l5 -69l9 -123l9 -122l8 -120l10 -121q18 -189 44 -427q3 -30 14 -38q10 -8 40 -3q73 12 184 35q20 4 25 10q5 7 3 27q-10 115 -19 180
q-11 75 -16 175l-4 87l-3 88l-8 189l-8 189l-1 48l-1 25v26z" />
    <glyph glyph-name="uni0449" unicode="&#x449;" horiz-adv-x="1469" 
d="M1383 0h-30q-34 0 -57 2l-58 3l-57 6q-30 2 -51 22q-20 21 -22 51q-1 13 -1 36l1 19v18q-2 34 -7 59q-9 42 -51 43h-71h-70l-369 -1h-128l-129 1q-60 1 -148 9q-26 2 -35 11q-8 8 -11 36l-23 195l-1 5v5q12 19 7 47l-5 23q-3 14 -3 23l-1 24l-2 23q-1 28 2 46q4 31 -1 85
l-3 42q-2 24 -1 42l1 25v25q0 31 2 49q1 23 -3 59l-3 30l-3 29q0 12 2 30l2 14l2 15l1 17q0 9 -2 16q-7 26 8 47q8 11 9 25l-1 39v40v7v6q1 8 4 12q25 38 32 61q1 6 10 10q9 5 16 5l76 -3l75 -4q18 0 20 -21l6 -87l5 -86l6 -179l8 -178q2 -52 8 -128l10 -128l3 -20
q7 -34 40 -37h31h32l138 -9q29 -2 40 8q12 10 13 40l1 92l1 92l3 326v69l1 68q3 66 11 128q2 21 9 27t27 5q54 -2 111 -8q25 -2 24 -28l-2 -88l-3 -88l-2 -104l-2 -103l-1 -90l-2 -90l1 -95l1 -95l2 -23q3 -27 28 -27l161 3q26 1 30 29l7 43l7 44q9 51 11 87q7 110 15 262
l13 263l1 44v43q1 20 7 27q7 8 25 10q47 3 89 1q20 -1 26 -8q7 -7 8 -27l5 -113l5 -113l6 -107l6 -107q3 -79 4 -166l1 -102v-101q1 -19 7 -27q7 -6 26 -10q47 -9 75 -15q19 -4 24 -10t5 -25l1 -130l-1 -130q0 -47 -1 -116l-1 -60l-1 -61h-32z" />
    <glyph glyph-name="uni044A" unicode="&#x44a;" horiz-adv-x="1000" 
d="M923 313l-3 15q-33 157 -188 231q-87 42 -205 72q-30 8 -37 19t-5 43q10 101 25 248q16 155 19 164v0l14 321l-493 -27l6 -195l223 -46l-1 -8q-10 -79 -9 -132q1 -20 -3 -52l-3 -27l-2 -26l-6 -105l-6 -105q-9 -126 -22 -261l-11 -98l-11 -98l-12 -118q-2 -14 2 -24
q15 -48 28 -79q1 -4 6 -7l10 -4l15 -3l15 -2q134 -18 258 -1q132 19 205 60l11 7l10 8q13 9 22 13q64 29 134 108q41 47 19 94q-3 6 -5 15z" />
    <glyph glyph-name="uni044B" unicode="&#x44b;" horiz-adv-x="1277" 
d="M923 362l-3 15q-33 157 -188 231q-87 42 -205 73q-30 7 -37 19q-7 11 -5 42q10 102 25 248q16 155 19 165v0l14 321l-493 -28l6 -194l223 -47l-1 -7q-10 -79 -9 -132q1 -21 -3 -53l-3 -26l-2 -26l-6 -106l-6 -105q-9 -125 -22 -260l-11 -98l-11 -98l-12 -119
q-2 -14 2 -23q15 -48 28 -80q1 -3 6 -6t10 -4l15 -4l15 -2q134 -17 258 0q132 18 205 60l11 7l10 7q13 10 22 14q64 28 134 108q41 47 19 94q-3 5 -5 14zM1197 1543l30 -832l-5 -711h-230q60 1325 25 1554z" />
    <glyph glyph-name="uni044C" unicode="&#x44c;" horiz-adv-x="1000" 
d="M923 313l-3 15q-33 157 -188 231q-87 42 -205 72q-30 8 -37 19t-5 43q10 101 25 248q16 155 19 164v0l14 321l-493 -27l6 -195l223 -46l-1 -8q-10 -79 -9 -132q1 -20 -3 -52l-3 -27l-2 -26l-6 -105l-6 -105q-9 -126 -22 -261l-11 -98l-11 -98l-12 -118q-2 -14 2 -24
q15 -48 28 -79q1 -4 6 -7l10 -4l15 -3l15 -2q134 -18 258 -1q132 19 205 60l11 7l10 8q13 9 22 13q64 29 134 108q41 47 19 94q-3 6 -5 15z" />
    <glyph glyph-name="uni044D" unicode="&#x44d;" horiz-adv-x="961" 
d="M524 722l50 -1q30 0 50 1q34 3 45 18t4 49q-9 54 -50 118q-74 116 -186 187q-123 78 -254 92l-96 10q-28 2 -29 30l-3 57l-4 58q-1 20 4 26q5 7 25 12q166 44 290 0l16 -4l17 -4q76 -19 111 -47q22 -17 53 -33q71 -36 131 -122q22 -32 50 -82l23 -42l23 -42l22 -36
q12 -22 20 -37q22 -43 26 -92q3 -24 11 -65l7 -33l6 -32l7 -44l6 -44q7 -50 9 -88q3 -68 -45 -185q-28 -68 -114 -167q-45 -50 -75 -75q-35 -29 -89 -48q-20 -6 -49 -14l-49 -12q-153 -40 -297 -28q-29 2 -37 9q-9 8 -12 36q-9 67 -15 132q-2 26 6 33t34 5l97 -7
q57 -4 98 -4q128 -2 239 84q55 42 88 143q6 17 10 41l6 42q4 32 -29 38l-11 2h-11l-210 8q-32 1 -39 9q-7 7 -7 39v39l1 39q1 20 7 26q7 6 27 6h92v-1z" />
    <glyph glyph-name="uni044E" unicode="&#x44e;" horiz-adv-x="1296" 
d="M1134 198q-20 -24 -54 -61l-28 -30l-27 -30q-30 -35 -100 -55l-8 -1l-8 -2q-10 -2 -16 -4q-95 -44 -186 46q-43 42 -78 103q-88 148 -140 378q-3 12 -8 26l-9 25q-8 22 -34 21l-44 -2l-43 -3q-21 -2 -27 -8q-7 -7 -6 -28q1 -84 6 -163l6 -78l5 -77q7 -95 10 -155
q1 -19 -5 -48l-4 -23l-5 -24l-20 -2l-20 -1q-21 -1 -36 -1l-36 1l-36 3q-35 2 -45 11q-10 10 -13 44l-12 148q-7 84 -11 148l-22 434l-22 433l-4 58l-3 58q-1 22 4 29q6 6 27 7q72 4 130 7q25 0 32 -5q6 -6 9 -31l16 -140l16 -140l29 -237l3 -22q5 -25 12 -32q7 -6 33 -6
l31 1l30 1q40 0 51 41q21 75 55 183q23 75 52 158q9 25 22 41l48 57l48 57q26 31 60 22q8 -2 15 -1q103 9 223 -80q112 -82 157 -207l14 -37l13 -38q14 -42 21 -76q16 -72 26 -186q4 -38 6 -97l2 -49l2 -48l3 -44l3 -43q2 -32 -28 -20q0 -108 -82 -206z" />
    <glyph glyph-name="uni044F" unicode="&#x44f;" horiz-adv-x="850" 
d="M784 1126l7 137l7 136l1 20l1 22l-7 1l-5 2q-6 1 -10 1q-164 -11 -261 -48q-66 -25 -106 -66t-44 -90q-12 -158 21 -257q18 -55 77 -151q31 -51 94 -128l-212 -402q-17 -45 -55 -76q-34 -27 -74 -30q-50 -4 -108 32l-16 16l-7 -46l-2 1l-7 -28l-7 -29l-15 -56v0l-6 -27
l21 -11l5 -2l6 -3q112 -58 203 -39q30 6 55 20q9 5 17 11l5 4l4 4l2 2q49 55 87 127l37 69l37 69q40 79 65 143l14 36q9 21 19 37l1 -11l1 -10l-4 -66l-4 -67l-7 -172l-7 -172v-14v-8h162q6 12 6 28q2 152 3 256l1 315l1 316q1 114 4 204z" />
    <glyph glyph-name="endash" unicode="&#x2013;" horiz-adv-x="1096" 
 />
    <glyph glyph-name="emdash" unicode="&#x2014;" horiz-adv-x="2148" 
 />
    <glyph glyph-name="quoteleft" unicode="&#x2018;" horiz-adv-x="341" 
d="M132 1403q-43 -24 -63 -79q-19 -56 -1 -103q11 -28 26 -63l27 -62q5 -11 13 -27l7 -13l8 -15l20 28l20 27q21 30 33 55l10 20l9 20q11 23 21 38q29 48 15 99q-15 52 -64 77q-41 21 -81 -2z" />
    <glyph glyph-name="quoteright" unicode="&#x2019;" horiz-adv-x="341" 
d="M132 1403q-43 -24 -63 -79q-19 -56 -1 -103q11 -28 26 -63l27 -62q5 -11 13 -27l7 -13l8 -15l20 28l20 27q21 30 33 55l10 20l9 20q11 23 21 38q29 48 15 99q-15 52 -64 77q-41 21 -81 -2z" />
    <glyph glyph-name="quotesinglbase" unicode="&#x201a;" horiz-adv-x="341" 
d="M132 211q-43 -24 -63 -79q-19 -56 -1 -103q11 -28 26 -63l27 -62q5 -11 13 -27l7 -13l8 -15l20 28l20 27q21 30 33 55l10 20l9 20q11 23 21 38q29 48 15 99q-15 52 -64 77q-41 21 -81 -2z" />
    <glyph glyph-name="quotedblleft" unicode="&#x201c;" horiz-adv-x="633" 
d="M424 1415q-43 -24 -63 -79q-19 -56 -1 -103q11 -28 26 -63l27 -62q5 -11 13 -27l7 -13l8 -15l20 28l20 27q21 30 33 55l10 20l9 20q11 23 21 38q29 48 15 99q-15 52 -64 77q-41 21 -81 -2zM209 1412q43 -24 63 -79q19 -56 1 -103q-13 -31 -26 -63l-27 -62q-4 -9 -13 -27
l-7 -13l-8 -15l-20 28l-20 27q-21 30 -33 55l-10 20l-9 20q-11 22 -21 38q-29 48 -15 99q15 52 64 77q41 21 81 -2z" />
    <glyph glyph-name="quotedblright" unicode="&#x201d;" horiz-adv-x="633" 
d="M424 1415q-43 -24 -63 -79q-19 -56 -1 -103q11 -28 26 -63l27 -62q5 -11 13 -27l7 -13l8 -15l20 28l20 27q21 30 33 55l10 20l9 20q11 23 21 38q29 48 15 99q-15 52 -64 77q-41 21 -81 -2zM209 1412q43 -24 63 -79q19 -56 1 -103q-13 -31 -26 -63l-27 -62q-4 -9 -13 -27
l-7 -13l-8 -15l-20 28l-20 27q-21 30 -33 55l-10 20l-9 20q-11 22 -21 38q-29 48 -15 99q15 52 64 77q41 21 81 -2z" />
    <glyph glyph-name="daggerdbl" unicode="&#x2021;" horiz-adv-x="973" 
 />
    <glyph glyph-name="bullet" unicode="&#x2022;" horiz-adv-x="1039" 
d="M961 846q-8 -24 -16 -42q-19 -47 -45 -80q-43 -51 -91 -107q-71 -83 -124 -145q-40 -37 -95 -86q-41 -36 -80 -68l-7 2q-14 4 -28 14l-13 9l-12 10l-55 44l-56 44q-54 44 -123 126q-45 53 -74 99q-61 92 -69 185q-5 46 -14 95q-9 44 29 86q32 35 79 47q46 12 95 -2
q54 -16 116 -60q22 -17 50 -39l48 -41q8 -6 18 -17l9 -10l8 -9q26 4 55 28q81 66 152 103q17 9 44 21l22 10l23 9q4 2 11 2l21 -3l22 -1q49 -2 89 -33q18 -14 25 -40q14 -55 -1 -108z" />
    <glyph glyph-name="ellipsis" unicode="&#x2026;" horiz-adv-x="1716" 
 />
    <glyph glyph-name="guilsinglleft" unicode="&#x2039;" horiz-adv-x="456" 
 />
    <glyph glyph-name="guilsinglright" unicode="&#x203a;" horiz-adv-x="456" 
 />
    <glyph glyph-name="fraction" unicode="&#x2044;" horiz-adv-x="1124" 
 />
    <glyph glyph-name="fraction" unicode="&#x2215;" horiz-adv-x="1124" 
 />
    <glyph glyph-name="franc" unicode="&#x20a3;" horiz-adv-x="1118" 
 />
    <glyph glyph-name="lira" unicode="&#x20a4;" horiz-adv-x="960" 
 />
    <glyph glyph-name="peseta" unicode="&#x20a7;" horiz-adv-x="2019" 
 />
    <glyph glyph-name="Euro" unicode="&#x20ac;" horiz-adv-x="651" 
d="M517 620l-27 1l-27 1l-5 -31l-6 -31q-3 -17 -7 -46l-6 -47q-8 -55 -26 -91q-14 -29 -60 -60l-5 -1q-3 -1 -4 0l-15 6l-16 6q-18 7 -27 19q-35 43 -45 125l-12 100l-11 101h273l11 1h6l7 1l2 7l1 6l-4 81q-1 14 -5 18q-5 5 -20 6q-56 5 -131 8l-49 1h-50l-53 1v29h268
l11 1l6 1l7 1l2 6l1 6l-5 81q0 14 -4 18q-5 5 -20 6q-54 5 -126 8l-48 1h-48l-31 1q8 43 21 83l9 28q6 16 10 28q14 31 33 50q32 31 59 24q26 -6 38 -49l9 -34l7 -34q6 -24 31 -23l40 1l39 2q16 2 20 7t3 21l-2 15l-1 15q-2 95 -64 215q-33 65 -124 114q-11 6 -29 8
q-89 12 -148 -62q-38 -47 -66 -137q-44 -142 -48 -341q-6 -269 32 -610q4 -29 13 -47q44 -81 77 -132q32 -51 85 -82q60 -34 135 -13q69 19 110 70q45 53 60 135q28 159 31 246l2 62v63q0 21 -6 27q-6 5 -26 6z" />
    <glyph glyph-name="uni2116" unicode="&#x2116;" horiz-adv-x="2271" 
 />
    <glyph glyph-name="trademark" unicode="&#x2122;" horiz-adv-x="1497" 
 />
    <glyph glyph-name="partialdiff" unicode="&#x2202;" horiz-adv-x="960" 
 />
    <glyph glyph-name="Delta" unicode="&#x2206;" horiz-adv-x="1167" 
 />
    <glyph glyph-name="product" unicode="&#x220f;" horiz-adv-x="1519" 
 />
    <glyph glyph-name="summation" unicode="&#x2211;" horiz-adv-x="1124" 
 />
    <glyph glyph-name="minus" unicode="&#x2212;" horiz-adv-x="940" 
 />
    <glyph glyph-name="radical" unicode="&#x221a;" horiz-adv-x="1137" 
 />
    <glyph glyph-name="infinity" unicode="&#x221e;" horiz-adv-x="985" 
 />
    <glyph glyph-name="integral" unicode="&#x222b;" horiz-adv-x="897" 
 />
    <glyph glyph-name="approxequal" unicode="&#x2248;" horiz-adv-x="929" 
 />
    <glyph glyph-name="lessequal" unicode="&#x2264;" horiz-adv-x="940" 
 />
    <glyph glyph-name="greaterequal" unicode="&#x2265;" horiz-adv-x="940" 
 />
    <glyph glyph-name="uniF001" unicode="&#xf001;" horiz-adv-x="1073" 
 />
    <glyph glyph-name="uniF001" unicode="&#xfb01;" horiz-adv-x="1073" 
 />
    <glyph glyph-name="uniF002" unicode="&#xf002;" horiz-adv-x="1081" 
 />
    <glyph glyph-name="uniF002" unicode="&#xfb02;" horiz-adv-x="1081" 
 />
  </font>
</defs>
</svg>
